<?xml version="1.0" encoding="UTF-8"?>
<svg xmlns="http://www.w3.org/2000/svg"
     xmlns:xlink="http://www.w3.org/1999/xlink"
     xmlns:gadfly="http://www.gadflyjl.org/ns"
     version="1.2"
     width="203.2mm" height="76.2mm" viewBox="0 0 203.2 76.2"
     stroke="none"
     fill="#000000"
     stroke-width="0.3"
     font-size="3.88"
>
<g class="plotroot xscalable yscalable" id="fig-60a44a996126457387cc798e20a5bced-element-1">
  <g font-size="3.88" font-family="'PT Sans','Helvetica Neue','Helvetica',sans-serif" fill="#564A55" stroke="#000000" stroke-opacity="0.000" id="fig-60a44a996126457387cc798e20a5bced-element-2">
    <text x="101.74" y="64.59" text-anchor="middle" dy="0.6em">Date</text>
  </g>
  <g class="guide xlabels" font-size="2.82" font-family="'PT Sans Caption','Helvetica Neue','Helvetica',sans-serif" fill="#6C606B" id="fig-60a44a996126457387cc798e20a5bced-element-3">
    <text x="22.34" y="57.92" text-anchor="middle" dy="0.6em">Apr</text>
    <text x="32.97" y="57.92" text-anchor="middle" dy="0.6em">May</text>
    <text x="43.96" y="57.92" text-anchor="middle" dy="0.6em">Jun</text>
    <text x="54.6" y="57.92" text-anchor="middle" dy="0.6em">Jul</text>
    <text x="65.59" y="57.92" text-anchor="middle" dy="0.6em">Aug</text>
    <text x="76.58" y="57.92" text-anchor="middle" dy="0.6em">Sep</text>
    <text x="87.21" y="57.92" text-anchor="middle" dy="0.6em">Oct</text>
    <text x="98.2" y="57.92" text-anchor="middle" dy="0.6em">Nov</text>
    <text x="108.83" y="57.92" text-anchor="middle" dy="0.6em">Dec</text>
    <text x="119.82" y="57.92" text-anchor="middle" dy="0.6em">Jan 2015</text>
    <text x="130.81" y="57.92" text-anchor="middle" dy="0.6em">Feb</text>
    <text x="140.74" y="57.92" text-anchor="middle" dy="0.6em">Mar</text>
    <text x="151.72" y="57.92" text-anchor="middle" dy="0.6em">Apr</text>
    <text x="162.36" y="57.92" text-anchor="middle" dy="0.6em">May</text>
    <text x="173.35" y="57.92" text-anchor="middle" dy="0.6em">Jun</text>
  </g>
  <g class="guide colorkey" id="fig-60a44a996126457387cc798e20a5bced-element-4">
    <g fill="#4C404B" font-size="2.82" font-family="'PT Sans','Helvetica Neue','Helvetica',sans-serif" id="fig-60a44a996126457387cc798e20a5bced-element-5">
      <text x="187.67" y="29.14" dy="0.35em" id="fig-60a44a996126457387cc798e20a5bced-element-6" class="color_0.2">0.2</text>
      <text x="187.67" y="32.77" dy="0.35em" id="fig-60a44a996126457387cc798e20a5bced-element-7" class="color_0.3">0.3</text>
      <text x="187.67" y="36.4" dy="0.35em" id="fig-60a44a996126457387cc798e20a5bced-element-8" class="color_0.4">0.4</text>
    </g>
    <g stroke="#000000" stroke-opacity="0.000" id="fig-60a44a996126457387cc798e20a5bced-element-9">
      <rect x="184.85" y="28.24" width="1.81" height="1.81" id="fig-60a44a996126457387cc798e20a5bced-element-10" class="color_0.2" fill="#00BFFF"/>
      <rect x="184.85" y="31.86" width="1.81" height="1.81" id="fig-60a44a996126457387cc798e20a5bced-element-11" class="color_0.3" fill="#D4CA3A"/>
      <rect x="184.85" y="35.49" width="1.81" height="1.81" id="fig-60a44a996126457387cc798e20a5bced-element-12" class="color_0.4" fill="#FF5EA0"/>
    </g>
    <g fill="#362A35" font-size="3.88" font-family="'PT Sans','Helvetica Neue','Helvetica',sans-serif" stroke="#000000" stroke-opacity="0.000" id="fig-60a44a996126457387cc798e20a5bced-element-13">
      <text x="184.85" y="25.32" id="fig-60a44a996126457387cc798e20a5bced-element-14">Julia ver.</text>
    </g>
  </g>
  <g font-size="3.88" font-family="'PT Sans','Helvetica Neue','Helvetica',sans-serif" fill="#564A55" stroke="#000000" stroke-opacity="0.000" id="fig-60a44a996126457387cc798e20a5bced-element-15">
    <text x="8.81" y="28.96" text-anchor="middle" dy="0.35em" transform="rotate(-90, 8.81, 30.96)" id="fig-60a44a996126457387cc798e20a5bced-element-16">Number of Tagged Packages</text>
  </g>
  <g clip-path="url(#fig-60a44a996126457387cc798e20a5bced-element-18)" id="fig-60a44a996126457387cc798e20a5bced-element-17">
    <g pointer-events="visible" opacity="1" fill="#000000" fill-opacity="0.000" stroke="#000000" stroke-opacity="0.000" class="guide background" id="fig-60a44a996126457387cc798e20a5bced-element-19">
      <rect x="19.63" y="5" width="164.22" height="51.92" id="fig-60a44a996126457387cc798e20a5bced-element-20"/>
    </g>
    <g class="guide ygridlines xfixed" stroke-dasharray="0.5,0.5" stroke-width="0.2" stroke="#D0D0E0" id="fig-60a44a996126457387cc798e20a5bced-element-21">
      <path fill="none" d="M19.63,54.91 L 183.85 54.91" id="fig-60a44a996126457387cc798e20a5bced-element-22"/>
      <path fill="none" d="M19.63,42.94 L 183.85 42.94" id="fig-60a44a996126457387cc798e20a5bced-element-23"/>
      <path fill="none" d="M19.63,30.96 L 183.85 30.96" id="fig-60a44a996126457387cc798e20a5bced-element-24"/>
      <path fill="none" d="M19.63,18.98 L 183.85 18.98" id="fig-60a44a996126457387cc798e20a5bced-element-25"/>
      <path fill="none" d="M19.63,7 L 183.85 7" id="fig-60a44a996126457387cc798e20a5bced-element-26"/>
    </g>
    <g class="guide xgridlines yfixed" stroke-dasharray="0.5,0.5" stroke-width="0.2" stroke="#D0D0E0" id="fig-60a44a996126457387cc798e20a5bced-element-27">
      <path fill="none" d="M22.34,5 L 22.34 56.92" id="fig-60a44a996126457387cc798e20a5bced-element-28"/>
      <path fill="none" d="M32.97,5 L 32.97 56.92" id="fig-60a44a996126457387cc798e20a5bced-element-29"/>
      <path fill="none" d="M43.96,5 L 43.96 56.92" id="fig-60a44a996126457387cc798e20a5bced-element-30"/>
      <path fill="none" d="M54.6,5 L 54.6 56.92" id="fig-60a44a996126457387cc798e20a5bced-element-31"/>
      <path fill="none" d="M65.59,5 L 65.59 56.92" id="fig-60a44a996126457387cc798e20a5bced-element-32"/>
      <path fill="none" d="M76.58,5 L 76.58 56.92" id="fig-60a44a996126457387cc798e20a5bced-element-33"/>
      <path fill="none" d="M87.21,5 L 87.21 56.92" id="fig-60a44a996126457387cc798e20a5bced-element-34"/>
      <path fill="none" d="M98.2,5 L 98.2 56.92" id="fig-60a44a996126457387cc798e20a5bced-element-35"/>
      <path fill="none" d="M108.83,5 L 108.83 56.92" id="fig-60a44a996126457387cc798e20a5bced-element-36"/>
      <path fill="none" d="M119.82,5 L 119.82 56.92" id="fig-60a44a996126457387cc798e20a5bced-element-37"/>
      <path fill="none" d="M130.81,5 L 130.81 56.92" id="fig-60a44a996126457387cc798e20a5bced-element-38"/>
      <path fill="none" d="M140.74,5 L 140.74 56.92" id="fig-60a44a996126457387cc798e20a5bced-element-39"/>
      <path fill="none" d="M151.72,5 L 151.72 56.92" id="fig-60a44a996126457387cc798e20a5bced-element-40"/>
      <path fill="none" d="M162.36,5 L 162.36 56.92" id="fig-60a44a996126457387cc798e20a5bced-element-41"/>
      <path fill="none" d="M173.35,5 L 173.35 56.92" id="fig-60a44a996126457387cc798e20a5bced-element-42"/>
    </g>
    <g class="plotpanel" id="fig-60a44a996126457387cc798e20a5bced-element-43">
      <g class="geometry" stroke="#000000" stroke-opacity="0.000" fill="#4C404B" font-size="2.82" font-family="'PT Sans Caption','Helvetica Neue','Helvetica',sans-serif" id="fig-60a44a996126457387cc798e20a5bced-element-44">
        <text x="77.26" y="51.26" text-anchor="middle" dy="0.35em" id="fig-60a44a996126457387cc798e20a5bced-element-45" visibility="visible">v0.3.0</text>
        <text x="88.6" y="51.26" text-anchor="middle" dy="0.35em" id="fig-60a44a996126457387cc798e20a5bced-element-46" visibility="visible">v0.3.1</text>
        <text x="99.24" y="51.26" text-anchor="middle" dy="0.35em" id="fig-60a44a996126457387cc798e20a5bced-element-47" visibility="visible">v0.3.2</text>
        <text x="110.94" y="51.26" text-anchor="middle" dy="0.35em" id="fig-60a44a996126457387cc798e20a5bced-element-48" visibility="visible">v0.3.3</text>
        <text x="118.69" y="51.26" text-anchor="middle" dy="0.35em" id="fig-60a44a996126457387cc798e20a5bced-element-49" visibility="visible"></text>
        <text x="127.24" y="51.26" text-anchor="middle" dy="0.35em" id="fig-60a44a996126457387cc798e20a5bced-element-50" visibility="visible">v0.3.5</text>
        <text x="141.42" y="51.26" text-anchor="middle" dy="0.35em" id="fig-60a44a996126457387cc798e20a5bced-element-51" visibility="visible">v0.3.6</text>
        <text x="153.47" y="51.26" text-anchor="middle" dy="0.35em" id="fig-60a44a996126457387cc798e20a5bced-element-52" visibility="visible">v0.3.7</text>
        <text x="166.94" y="51.26" text-anchor="middle" dy="0.35em" id="fig-60a44a996126457387cc798e20a5bced-element-53" visibility="visible">v0.3.8</text>
        <text x="177.58" y="51.26" text-anchor="middle" dy="0.35em" id="fig-60a44a996126457387cc798e20a5bced-element-54" visibility="visible">v0.3.9</text>
      </g>
      <g class="yfixed" stroke-width="0.26" stroke="#333333" id="fig-60a44a996126457387cc798e20a5bced-element-55">
        <path fill="none" d="M72.32,5 L 72.32 56.92" id="fig-60a44a996126457387cc798e20a5bced-element-56"/>
        <path fill="none" d="M83.66,5 L 83.66 56.92" id="fig-60a44a996126457387cc798e20a5bced-element-57"/>
        <path fill="none" d="M94.3,5 L 94.3 56.92" id="fig-60a44a996126457387cc798e20a5bced-element-58"/>
        <path fill="none" d="M106,5 L 106 56.92" id="fig-60a44a996126457387cc798e20a5bced-element-59"/>
        <path fill="none" d="M117.69,5 L 117.69 56.92" id="fig-60a44a996126457387cc798e20a5bced-element-60"/>
        <path fill="none" d="M122.3,5 L 122.3 56.92" id="fig-60a44a996126457387cc798e20a5bced-element-61"/>
        <path fill="none" d="M136.48,5 L 136.48 56.92" id="fig-60a44a996126457387cc798e20a5bced-element-62"/>
        <path fill="none" d="M148.53,5 L 148.53 56.92" id="fig-60a44a996126457387cc798e20a5bced-element-63"/>
        <path fill="none" d="M162,5 L 162 56.92" id="fig-60a44a996126457387cc798e20a5bced-element-64"/>
        <path fill="none" d="M172.64,5 L 172.64 56.92" id="fig-60a44a996126457387cc798e20a5bced-element-65"/>
      </g>
      <g stroke-width="0.79" fill="#000000" fill-opacity="0.000" class="geometry color_0.4" stroke="#FF5EA0" id="fig-60a44a996126457387cc798e20a5bced-element-66">
        <path fill="none" d="M69.84,35.27 L 70.19 34.91 70.55 34.79 70.9 34.67 71.26 34.67 71.61 34.67 72.32 34.31 72.68 34.31 73.03 34.19 73.38 34.19 73.74 34.19 74.09 33.83 74.45 33.59 74.8 33.59 75.51 33.35 75.87 32.99 76.58 32.75 76.93 32.75 77.28 32.75 78.7 32.75 79.77 32.04 80.12 31.92 80.47 31.8 80.83 31.56 81.18 31.56 81.54 31.56 81.89 30.6 82.25 30.6 82.6 30.6 83.31 30.48 83.66 30.48 84.02 30.36 84.37 30.36 84.73 30.36 85.08 30.24 85.44 30.24 86.15 30.36 86.5 30.24 86.85 30.24 87.21 30 87.56 29.76 87.92 29.76 88.27 29.76 88.63 29.52 89.69 29.28 90.05 29.28 90.4 29.04 90.75 28.92 91.11 28.92 91.46 28.92 91.82 28.68 92.17 28.68 92.53 28.56 92.88 28.44 93.24 28.44 93.59 28.44 93.94 28.44 94.3 28.2 94.65 27.96 95.01 27.96 95.36 27.96 95.72 27.84 96.07 27.84 96.43 27.72 96.78 27.72 97.13 27.48 97.49 27.36 97.84 27.36 98.2 27.24 98.55 27.24 98.91 27.24 99.26 27.24 99.62 27.12 99.97 27 101.03 27 102.81 26.29 103.16 26.05 103.52 26.05 103.87 25.93 104.22 25.93 104.58 25.57 104.93 25.57 106.35 24.97 106.71 24.97 108.48 24.85 109.19 24.85 109.54 24.61 109.9 24.49 110.25 24.49 110.6 24.49 110.96 24.25 111.31 24.01 112.38 23.89 112.73 23.77 113.44 23.29 113.8 23.29 114.15 23.29 115.21 23.29 115.92 23.05 116.99 22.81 118.4 22.57 119.11 22.09 120.18 21.85 122.66 21.02 124.07 20.18 124.43 19.94 124.78 19.94 125.14 19.22 125.49 19.22 125.85 19.22 126.56 19.1 126.91 18.98 127.27 18.98 127.62 18.62 127.97 18.5 128.33 18.5 128.68 18.5 129.39 18.14 129.75 17.78 130.1 17.66 131.52 16.7 131.87 16.7 132.23 17.06 132.94 16.7 133.65 16.34 134 16.34 135.06 16.1 136.84 16.1 138.61 15.98 140.38 14.91 140.74 14.91 141.09 14.91 141.44 14.67 141.8 14.67 142.51 14.43 143.22 14.43 144.63 14.31 144.99 14.07 145.34 14.07 145.7 14.07 146.05 13.83 146.41 13.95 146.76 13.71 151.01 13.23 151.72 13.23 152.08 12.87 152.79 12.87 154.21 12.75 154.91 12.63 155.62 12.27 157.04 12.03 157.75 11.79 158.1 11.43 158.81 10.83 159.17 10.83 159.52 10.71 159.88 10.47 160.23 10.47 160.59 10.35 161.29 10.23 161.65 9.99 162.36 9.99 163.07 9.76 163.42 9.4 163.78 9.28 164.48 9.04 164.84 8.92 166.61 8.44 168.03 8.2 168.38 7.96 171.22 7.6 171.57 7.6 171.93 7.6 172.99 7.12 173.35 7 173.7 6.76 174.41 6.52 175.12 6.52 175.83 6.28 179.02 5.44 180.08 5.44 180.44 5.44 180.79 5.2 181.15 5.2 181.5 4.84 181.85 4.84" id="fig-60a44a996126457387cc798e20a5bced-element-67"/>
      </g>
      <g stroke-width="0.79" fill="#000000" fill-opacity="0.000" class="geometry color_0.3" stroke="#D4CA3A" id="fig-60a44a996126457387cc798e20a5bced-element-68">
        <path fill="none" d="M21.63,43.42 L 21.99 43.42 22.34 43.3 22.7 43.3 23.05 43.3 23.4 43.3 23.76 43.3 24.11 43.18 24.82 43.18 25.18 43.06 25.89 42.94 26.59 42.7 26.95 42.7 27.66 42.7 28.01 42.58 30.49 42.1 31.56 42.1 32.27 42.1 34.75 41.98 35.1 41.74 35.46 41.62 35.81 41.62 36.17 41.62 36.52 41.62 36.87 41.62 37.23 41.62 37.58 41.62 37.94 41.62 38.29 41.62 38.65 41.26 39.36 41.14 39.71 41.14 40.06 41.14 40.42 40.9 40.77 40.9 41.13 40.9 41.48 40.78 41.84 40.78 42.19 40.78 42.55 40.78 42.9 40.78 43.25 40.66 43.61 40.66 43.96 45.45 44.32 40.54 44.67 40.42 45.03 40.3 47.15 39.58 47.51 39.46 47.86 39.34 48.22 39.22 48.57 38.98 48.93 38.98 49.28 38.74 49.64 38.74 49.99 38.62 50.34 38.5 51.05 38.5 51.41 38.26 51.76 38.26 52.12 38.26 52.47 38.26 52.83 38.26 53.18 37.91 53.53 37.91 54.24 37.79 54.6 37.55 54.95 37.43 55.31 37.31 55.66 37.31 56.02 37.07 56.72 36.95 57.08 36.59 57.43 36.59 57.79 36.59 58.5 35.99 59.21 35.63 59.56 35.63 59.91 35.51 60.27 35.51 61.33 35.39 61.69 35.39 62.04 35.27 62.4 35.27 62.75 35.27 63.11 35.15 63.46 35.03 63.81 34.91 64.52 34.91 64.88 34.91 65.59 34.91 65.94 34.79 66.3 34.43 66.65 34.43 67.36 34.31 67.71 34.31 68.07 34.07 68.42 33.95 68.78 33.83 69.13 33.71 69.49 33.59 69.84 33.35 70.19 33.35 70.55 33.23 70.9 33.11 71.26 33.11 71.61 33.11 72.32 32.75 72.68 32.75 73.03 32.63 73.38 32.63 73.74 32.63 74.09 32.28 74.45 32.16 74.8 32.04 75.51 33.47 75.87 33.11 76.58 32.87 76.93 32.87 77.28 32.87 78.7 32.87 79.77 32.16 80.12 32.04 80.47 31.92 80.83 31.68 81.18 31.68 81.54 31.68 81.89 30.72 82.25 30.72 82.6 30.72 83.31 30.72 83.66 30.6 84.02 30.48 84.37 30.48 84.73 30.48 85.08 30.36 85.44 30.36 86.15 30.48 86.5 30.36 86.85 30.36 87.21 30.12 87.56 27.72 87.92 29.88 88.27 29.88 88.63 29.64 89.69 29.4 90.05 29.4 90.4 29.16 90.75 29.04 91.11 29.04 91.46 29.04 91.82 28.8 92.17 28.8 92.53 28.68 92.88 28.56 93.24 28.56 93.59 28.56 93.94 28.56 94.3 28.44 94.65 28.2 95.01 28.2 95.36 28.2 95.72 28.08 96.07 28.08 96.43 27.96 96.78 27.96 97.13 27.72 97.49 27.6 97.84 27.6 98.2 27.48 98.55 27.48 98.91 27.48 99.26 27.36 99.62 27.36 99.97 27.24 101.03 27.24 102.81 26.65 103.16 26.41 103.52 26.41 103.87 26.29 104.22 26.29 104.58 25.93 104.93 25.93 106.35 25.33 106.71 25.33 108.48 25.21 109.19 25.21 109.54 25.09 109.9 24.97 110.25 24.97 110.6 24.97 110.96 24.73 111.31 24.61 112.38 24.37 112.73 24.25 113.44 23.89 113.8 23.77 114.15 23.77 115.21 23.77 115.92 23.53 116.99 23.29 118.4 23.05 119.11 22.69 120.18 22.21 122.66 21.49 124.07 20.66 124.43 20.42 124.78 20.42 125.14 19.82 125.49 19.82 125.85 19.82 126.56 19.82 126.91 19.58 127.27 19.58 127.62 19.22 127.97 19.1 128.33 19.1 128.68 19.1 129.39 18.74 129.75 18.5 130.1 18.38 131.52 17.42 131.87 17.66 132.23 17.66 132.94 17.3 133.65 16.94 134 16.94 135.06 16.7 136.84 16.7 138.61 15.98 140.38 15.5 140.74 15.5 141.09 15.5 141.44 15.27 141.8 15.27 142.51 15.27 143.22 15.27 144.63 15.03 144.99 14.79 145.34 14.67 145.7 14.67 146.05 14.43 146.41 14.55 146.76 14.31 151.01 14.19 151.72 14.19 152.08 13.83 152.79 13.83 154.21 13.71 154.91 13.71 155.62 13.35 157.04 13.35 157.75 13.11 158.1 12.99 158.81 12.39 159.17 12.39 159.52 12.27 159.88 11.91 160.23 11.91 160.59 11.79 161.29 11.67 161.65 11.55 162.36 11.55 163.07 11.31 163.42 10.95 163.78 10.83 164.48 10.59 164.84 10.47 166.61 9.99 168.03 9.76 168.38 9.52 171.22 9.04 171.57 9.04 171.93 9.04 172.99 8.68 173.35 8.56 173.7 8.44 174.41 8.2 175.12 8.2 175.83 8.08 179.02 7.48 180.08 7.6 180.44 7.6 180.79 7.36 181.15 7.36 181.5 7.12 181.85 7.12" id="fig-60a44a996126457387cc798e20a5bced-element-69"/>
      </g>
      <g stroke-width="0.79" fill="#000000" fill-opacity="0.000" class="geometry color_0.2" stroke="#00BFFF" id="fig-60a44a996126457387cc798e20a5bced-element-70">
        <path fill="none" d="M21.63,44.73 L 21.99 44.73 22.34 44.61 22.7 44.61 23.05 44.61 23.4 44.61 23.76 44.61 24.11 44.61 24.82 44.61 25.18 44.61 25.89 44.49 26.59 44.37 26.95 44.37 27.66 44.25 28.01 44.13 30.49 43.89 31.56 43.89 32.27 43.89 34.75 43.77 35.1 43.65 35.46 43.65 35.81 43.65 36.17 43.65 36.52 43.65 36.87 43.65 37.23 43.65 37.58 43.65 37.94 43.65 38.29 43.3 38.65 43.3 39.36 43.18 39.71 43.18 40.06 43.18 40.42 43.06 40.77 44.01 41.13 43.42 41.48 43.42 41.84 43.42 42.19 43.42 42.55 43.42 42.9 43.42 43.25 43.42 43.61 43.42 43.96 43.3 44.32 43.3 44.67 43.18 45.03 43.18 47.15 42.58 47.51 42.58 47.86 42.46 48.22 42.34 48.57 42.1 48.93 42.1 49.28 42.1 49.64 42.1 49.99 42.1 50.34 41.98 51.05 41.98 51.41 41.74 51.76 41.74 52.12 41.74 52.47 41.74 52.83 41.74 53.18 41.38 53.53 41.38 54.24 41.26 54.6 41.02 54.95 40.9 55.31 40.78 55.66 40.78 56.02 40.78 56.72 40.54 57.08 40.42 57.43 40.3 57.79 40.3 58.5 40.06 59.21 39.82 59.56 39.82 59.91 39.82 60.27 39.82 61.33 39.82 61.69 39.82 62.04 39.7 62.4 39.7 62.75 39.7 63.11 39.58 63.46 39.58 63.81 39.58 64.52 39.46 64.88 39.46 65.59 39.46 65.94 39.46 66.3 39.1 66.65 39.1 67.36 39.34 67.71 39.34 68.07 39.1 68.42 38.98 68.78 38.98 69.13 38.74 69.49 38.74" id="fig-60a44a996126457387cc798e20a5bced-element-71"/>
      </g>
    </g>
  </g>
  <g class="guide ylabels" font-size="2.82" font-family="'PT Sans Caption','Helvetica Neue','Helvetica',sans-serif" fill="#6C606B" id="fig-60a44a996126457387cc798e20a5bced-element-72">
    <text x="18.63" y="54.91" text-anchor="end" dy="0.35em" id="fig-60a44a996126457387cc798e20a5bced-element-73">200</text>
    <text x="18.63" y="42.94" text-anchor="end" dy="0.35em" id="fig-60a44a996126457387cc798e20a5bced-element-74">300</text>
    <text x="18.63" y="30.96" text-anchor="end" dy="0.35em" id="fig-60a44a996126457387cc798e20a5bced-element-75">400</text>
    <text x="18.63" y="18.98" text-anchor="end" dy="0.35em" id="fig-60a44a996126457387cc798e20a5bced-element-76">500</text>
    <text x="18.63" y="7" text-anchor="end" dy="0.35em" id="fig-60a44a996126457387cc798e20a5bced-element-77">600</text>
  </g>
</g>
<defs>
<clipPath id="fig-60a44a996126457387cc798e20a5bced-element-18">
  <path d="M19.63,5 L 183.85 5 183.85 56.92 19.63 56.92" />
</clipPath
></defs>
</svg>
