<?xml version="1.0" encoding="UTF-8"?>
<svg xmlns="http://www.w3.org/2000/svg"
     xmlns:xlink="http://www.w3.org/1999/xlink"
     xmlns:gadfly="http://www.gadflyjl.org/ns"
     version="1.2"
     width="203.2mm" height="76.2mm" viewBox="0 0 203.2 76.2"
     stroke="none"
     fill="#000000"
     stroke-width="0.3"
     font-size="3.88"
>
<g class="plotroot xscalable yscalable" id="fig-6270463756f64396a3a03a744d0783bc-element-1">
  <g font-size="3.88" font-family="'PT Sans','Helvetica Neue','Helvetica',sans-serif" fill="#564A55" stroke="none" id="fig-6270463756f64396a3a03a744d0783bc-element-2">
    <text x="101.74" y="68.2" text-anchor="middle">Date</text>
  </g>
  <g class="guide xlabels" font-size="2.82" font-family="'PT Sans Caption','Helvetica Neue','Helvetica',sans-serif" fill="#6C606B" id="fig-6270463756f64396a3a03a744d0783bc-element-3">
    <text x="22.73" y="62.59" text-anchor="middle">Apr</text>
    <text x="41.32" y="62.59" text-anchor="middle">May</text>
    <text x="60.53" y="62.59" text-anchor="middle">June</text>
    <text x="79.12" y="62.59" text-anchor="middle">July</text>
    <text x="98.33" y="62.59" text-anchor="middle">Aug</text>
    <text x="117.55" y="62.59" text-anchor="middle">Sept</text>
    <text x="136.14" y="62.59" text-anchor="middle">Oct</text>
    <text x="155.35" y="62.59" text-anchor="middle">Nev</text>
    <text x="173.94" y="62.59" text-anchor="middle">Dec</text>
  </g>
  <g class="guide colorkey" id="fig-6270463756f64396a3a03a744d0783bc-element-4">
    <g fill="#4C404B" font-size="2.82" font-family="'PT Sans','Helvetica Neue','Helvetica',sans-serif" id="fig-6270463756f64396a3a03a744d0783bc-element-5">
      <text x="187.67" y="30.14" dy="0.35em" id="fig-6270463756f64396a3a03a744d0783bc-element-6" class="color_0.2">0.2</text>
      <text x="187.67" y="33.77" dy="0.35em" id="fig-6270463756f64396a3a03a744d0783bc-element-7" class="color_0.3">0.3</text>
      <text x="187.67" y="37.4" dy="0.35em" id="fig-6270463756f64396a3a03a744d0783bc-element-8" class="color_0.4">0.4</text>
    </g>
    <g stroke="none" id="fig-6270463756f64396a3a03a744d0783bc-element-9">
      <rect x="184.85" y="29.24" width="1.81" height="1.81" id="fig-6270463756f64396a3a03a744d0783bc-element-10" fill="#00BFFF" class="color_0.2"/>
      <rect x="184.85" y="32.86" width="1.81" height="1.81" id="fig-6270463756f64396a3a03a744d0783bc-element-11" fill="#D4CA3A" class="color_0.3"/>
      <rect x="184.85" y="36.49" width="1.81" height="1.81" id="fig-6270463756f64396a3a03a744d0783bc-element-12" fill="#FF5EA0" class="color_0.4"/>
    </g>
    <g fill="#362A35" font-size="3.88" font-family="'PT Sans','Helvetica Neue','Helvetica',sans-serif" stroke="none" id="fig-6270463756f64396a3a03a744d0783bc-element-13">
      <text x="184.85" y="26.32" id="fig-6270463756f64396a3a03a744d0783bc-element-14">Julia ver.</text>
    </g>
  </g>
  <g font-size="3.88" font-family="'PT Sans','Helvetica Neue','Helvetica',sans-serif" fill="#564A55" stroke="none" id="fig-6270463756f64396a3a03a744d0783bc-element-15">
    <text x="8.81" y="29.96" text-anchor="middle" dy="0.35em" transform="rotate(-90, 8.81, 31.96)" id="fig-6270463756f64396a3a03a744d0783bc-element-16">Number of Tagged Packages</text>
  </g>
  <g clip-path="url(#fig-6270463756f64396a3a03a744d0783bc-element-18)" id="fig-6270463756f64396a3a03a744d0783bc-element-17">
    <g pointer-events="visible" opacity="1" fill="none" stroke="none" class="guide background" id="fig-6270463756f64396a3a03a744d0783bc-element-19">
      <rect x="19.63" y="5" width="164.22" height="53.91" id="fig-6270463756f64396a3a03a744d0783bc-element-20"/>
    </g>
    <g class="guide ygridlines xfixed" stroke-dasharray="0.5,0.5" stroke-width="0.2" stroke="#D0D0E0" id="fig-6270463756f64396a3a03a744d0783bc-element-21">
      <path fill="none" d="M19.63,56.91 L 183.85 56.91" id="fig-6270463756f64396a3a03a744d0783bc-element-22"/>
      <path fill="none" d="M19.63,44.44 L 183.85 44.44" id="fig-6270463756f64396a3a03a744d0783bc-element-23"/>
      <path fill="none" d="M19.63,31.96 L 183.85 31.96" id="fig-6270463756f64396a3a03a744d0783bc-element-24"/>
      <path fill="none" d="M19.63,19.48 L 183.85 19.48" id="fig-6270463756f64396a3a03a744d0783bc-element-25"/>
      <path fill="none" d="M19.63,7 L 183.85 7" id="fig-6270463756f64396a3a03a744d0783bc-element-26"/>
    </g>
    <g class="guide xgridlines yfixed" stroke-dasharray="0.5,0.5" stroke-width="0.2" stroke="#D0D0E0" id="fig-6270463756f64396a3a03a744d0783bc-element-27">
      <path fill="none" d="M22.73,5 L 22.73 58.91" id="fig-6270463756f64396a3a03a744d0783bc-element-28"/>
      <path fill="none" d="M41.32,5 L 41.32 58.91" id="fig-6270463756f64396a3a03a744d0783bc-element-29"/>
      <path fill="none" d="M60.53,5 L 60.53 58.91" id="fig-6270463756f64396a3a03a744d0783bc-element-30"/>
      <path fill="none" d="M79.12,5 L 79.12 58.91" id="fig-6270463756f64396a3a03a744d0783bc-element-31"/>
      <path fill="none" d="M98.33,5 L 98.33 58.91" id="fig-6270463756f64396a3a03a744d0783bc-element-32"/>
      <path fill="none" d="M117.55,5 L 117.55 58.91" id="fig-6270463756f64396a3a03a744d0783bc-element-33"/>
      <path fill="none" d="M136.14,5 L 136.14 58.91" id="fig-6270463756f64396a3a03a744d0783bc-element-34"/>
      <path fill="none" d="M155.35,5 L 155.35 58.91" id="fig-6270463756f64396a3a03a744d0783bc-element-35"/>
      <path fill="none" d="M173.94,5 L 173.94 58.91" id="fig-6270463756f64396a3a03a744d0783bc-element-36"/>
    </g>
    <g class="plotpanel" id="fig-6270463756f64396a3a03a744d0783bc-element-37">
      <g stroke-width="0.79" fill="none" class="geometry color_0.4" stroke="#FF5EA0" id="fig-6270463756f64396a3a03a744d0783bc-element-38">
        <path fill="none" d="M105.77,28.46 L 106.39 27.71 107.01 27.47 107.63 27.22 108.25 27.22 108.87 27.22 110.11 26.47 110.73 26.47 111.35 26.22 111.97 26.22 112.59 26.22 113.21 25.47 113.83 24.97 114.45 24.97 115.69 24.47 116.31 23.72 117.55 23.22 118.17 23.22 118.78 23.22 121.26 23.22 123.12 21.72 123.74 21.48 124.36 21.23 124.98 20.73 125.6 20.73 126.22 20.73 126.84 18.73 127.46 18.73 128.08 18.73 129.32 18.48 129.94 18.48 130.56 18.23 131.18 18.23 131.8 18.23 132.42 17.98 133.04 17.98 134.28 18.23 134.9 17.98 135.52 17.98 136.14 17.48 136.76 16.98 137.38 16.98 138 16.98 138.62 16.48 140.47 15.98 141.09 15.98 141.71 15.49 142.33 15.24 142.95 15.24 143.57 15.24 144.19 14.74 144.81 14.74 145.43 14.49 146.05 14.24 146.67 14.24 147.29 14.24 147.91 14.24 148.53 13.74 149.15 13.24 149.77 13.24 150.39 13.24 151.01 12.99 151.63 12.99 152.25 12.74 152.87 12.74 153.49 12.24 154.11 11.99 154.73 11.99 155.35 11.74 155.97 11.74 156.59 11.74 157.21 11.74 157.83 11.49 158.45 11.24 160.31 11.24 163.4 9.75 164.02 9.25 164.64 9.25 165.26 9 165.88 9 166.5 8.25 167.12 8.25 169.6 7 170.22 7 173.32 6.75 174.56 6.75 175.18 6.25 175.8 6 176.42 6 177.04 6 177.66 5.5 178.28 5 180.14 4.75 180.76 4.5 182 3.51" id="fig-6270463756f64396a3a03a744d0783bc-element-39"/>
      </g>
      <g stroke-width="0.79" fill="none" class="geometry color_0.3" stroke="#D4CA3A" id="fig-6270463756f64396a3a03a744d0783bc-element-40">
        <path fill="none" d="M21.49,45.43 L 22.11 45.43 22.73 45.18 23.35 45.18 23.97 45.18 24.59 45.18 25.21 45.18 25.83 44.94 27.07 44.94 27.69 44.69 28.93 44.44 30.17 43.94 30.79 43.94 32.03 43.94 32.65 43.69 36.98 42.69 38.84 42.69 40.08 42.69 44.42 42.44 45.04 41.94 45.66 41.69 46.28 41.69 46.9 41.69 47.52 41.69 48.14 41.69 48.76 41.69 49.38 41.69 50 41.69 50.62 41.69 51.24 40.94 52.48 40.69 53.1 40.69 53.72 40.69 54.34 40.19 54.95 40.19 55.57 40.19 56.19 39.94 56.81 39.94 57.43 39.94 58.05 39.94 58.67 39.94 59.29 39.69 59.91 39.69 60.53 49.68 61.15 39.44 61.77 39.2 62.39 38.95 66.11 37.45 66.73 37.2 67.35 36.95 67.97 36.7 68.59 36.2 69.21 36.2 69.83 35.7 70.45 35.7 71.07 35.45 71.69 35.2 72.93 35.2 73.55 34.7 74.17 34.7 74.79 34.7 75.41 34.7 76.03 34.7 76.64 33.95 77.26 33.95 78.5 33.7 79.12 33.21 79.74 32.96 80.36 32.71 80.98 32.71 81.6 32.21 82.84 31.96 83.46 31.21 84.08 31.21 84.7 31.21 85.94 29.96 87.18 29.21 87.8 29.21 88.42 28.96 89.04 28.96 90.9 28.71 91.52 28.71 92.14 28.46 92.76 28.46 93.38 28.46 94 28.21 94.62 27.96 95.24 27.71 96.48 27.71 97.1 27.71 98.33 27.71 98.95 27.47 99.57 26.72 100.19 26.72 101.43 26.47 102.05 26.47 102.67 25.97 103.29 25.72 103.91 25.47 104.53 25.22 105.15 24.97 105.77 24.47 106.39 24.47 107.01 24.22 107.63 23.97 108.25 23.97 108.87 23.97 110.11 23.22 110.73 23.22 111.35 22.97 111.97 22.97 112.59 22.97 113.21 22.22 113.83 21.97 114.45 21.72 115.69 24.72 116.31 23.97 117.55 23.47 118.17 23.47 118.78 23.47 121.26 23.47 123.12 21.97 123.74 21.72 124.36 21.48 124.98 20.98 125.6 20.98 126.22 20.98 126.84 18.98 127.46 18.98 128.08 18.98 129.32 18.98 129.94 18.73 130.56 18.48 131.18 18.48 131.8 18.48 132.42 18.23 133.04 18.23 134.28 18.48 134.9 18.23 135.52 18.23 136.14 17.73 136.76 12.74 137.38 17.23 138 17.23 138.62 16.73 140.47 16.23 141.09 16.23 141.71 15.74 142.33 15.49 142.95 15.49 143.57 15.49 144.19 14.99 144.81 14.99 145.43 14.74 146.05 14.49 146.67 14.49 147.29 14.49 147.91 14.49 148.53 14.24 149.15 13.74 149.77 13.74 150.39 13.74 151.01 13.49 151.63 13.49 152.25 13.24 152.87 13.24 153.49 12.74 154.11 12.49 154.73 12.49 155.35 12.24 155.97 12.24 156.59 12.24 157.21 11.99 157.83 11.99 158.45 11.74 160.31 11.74 163.4 10.49 164.02 9.99 164.64 9.99 165.26 9.75 165.88 9.75 166.5 9 167.12 9 169.6 7.75 170.22 7.75 173.32 7.5 174.56 7.5 175.18 7.25 175.8 7 176.42 7 177.04 7 177.66 6.5 178.28 6.25 180.14 5.75 180.76 5.5 182 4.75" id="fig-6270463756f64396a3a03a744d0783bc-element-41"/>
      </g>
      <g stroke-width="0.79" fill="none" class="geometry color_0.2" stroke="#00BFFF" id="fig-6270463756f64396a3a03a744d0783bc-element-42">
        <path fill="none" d="M21.49,48.18 L 22.11 48.18 22.73 47.93 23.35 47.93 23.97 47.93 24.59 47.93 25.21 47.93 25.83 47.93 27.07 47.93 27.69 47.93 28.93 47.68 30.17 47.43 30.79 47.43 32.03 47.18 32.65 46.93 36.98 46.43 38.84 46.43 40.08 46.43 44.42 46.18 45.04 45.93 45.66 45.93 46.28 45.93 46.9 45.93 47.52 45.93 48.14 45.93 48.76 45.93 49.38 45.93 50 45.93 50.62 45.18 51.24 45.18 52.48 44.94 53.1 44.94 53.72 44.94 54.34 44.69 54.95 46.68 55.57 45.43 56.19 45.43 56.81 45.43 57.43 45.43 58.05 45.43 58.67 45.43 59.29 45.43 59.91 45.43 60.53 45.18 61.15 45.18 61.77 44.94 62.39 44.94 66.11 43.69 66.73 43.69 67.35 43.44 67.97 43.19 68.59 42.69 69.21 42.69 69.83 42.69 70.45 42.69 71.07 42.69 71.69 42.44 72.93 42.44 73.55 41.94 74.17 41.94 74.79 41.94 75.41 41.94 76.03 41.94 76.64 41.19 77.26 41.19 78.5 40.94 79.12 40.44 79.74 40.19 80.36 39.94 80.98 39.94 81.6 39.94 82.84 39.44 83.46 39.2 84.08 38.95 84.7 38.95 85.94 38.45 87.18 37.95 87.8 37.95 88.42 37.95 89.04 37.95 90.9 37.95 91.52 37.95 92.14 37.7 92.76 37.7 93.38 37.7 94 37.45 94.62 37.45 95.24 37.45 96.48 37.2 97.1 37.2 98.33 37.2 98.95 37.2 99.57 36.45 100.19 36.45 101.43 36.95 102.05 36.95 102.67 36.45 103.29 36.2 103.91 36.2 104.53 35.7 105.15 35.7" id="fig-6270463756f64396a3a03a744d0783bc-element-43"/>
      </g>
    </g>
  </g>
  <g class="guide ylabels" font-size="2.82" font-family="'PT Sans Caption','Helvetica Neue','Helvetica',sans-serif" fill="#6C606B" id="fig-6270463756f64396a3a03a744d0783bc-element-44">
    <text x="18.63" y="56.91" text-anchor="end" dy="0.35em" id="fig-6270463756f64396a3a03a744d0783bc-element-45">250</text>
    <text x="18.63" y="44.44" text-anchor="end" dy="0.35em" id="fig-6270463756f64396a3a03a744d0783bc-element-46">300</text>
    <text x="18.63" y="31.96" text-anchor="end" dy="0.35em" id="fig-6270463756f64396a3a03a744d0783bc-element-47">350</text>
    <text x="18.63" y="19.48" text-anchor="end" dy="0.35em" id="fig-6270463756f64396a3a03a744d0783bc-element-48">400</text>
    <text x="18.63" y="7" text-anchor="end" dy="0.35em" id="fig-6270463756f64396a3a03a744d0783bc-element-49">450</text>
  </g>
</g>
<defs>
<clipPath id="fig-6270463756f64396a3a03a744d0783bc-element-18">
  <path d="M19.63,5 L 183.85 5 183.85 58.91 19.63 58.91" />
</clipPath
></defs>
</svg>
