<?xml version="1.0" encoding="UTF-8"?>
<svg xmlns="http://www.w3.org/2000/svg"
     xmlns:xlink="http://www.w3.org/1999/xlink"
     xmlns:gadfly="http://www.gadflyjl.org/ns"
     version="1.2"
     width="203.2mm" height="76.2mm" viewBox="0 0 203.2 76.2"
     stroke="none"
     fill="#000000"
     stroke-width="0.3"
     font-size="3.88"
>
<g class="plotroot xscalable yscalable" id="fig-1bce68d506f844dc970b4e7d420f042f-element-1">
  <g font-size="3.88" font-family="'PT Sans','Helvetica Neue','Helvetica',sans-serif" fill="#564A55" stroke="none" id="fig-1bce68d506f844dc970b4e7d420f042f-element-2">
    <text x="101.74" y="68.2" text-anchor="middle">Date</text>
  </g>
  <g class="guide xlabels" font-size="2.82" font-family="'PT Sans Caption','Helvetica Neue','Helvetica',sans-serif" fill="#6C606B" id="fig-1bce68d506f844dc970b4e7d420f042f-element-3">
    <text x="22.97" y="62.59" text-anchor="middle">Apr</text>
    <text x="43" y="62.59" text-anchor="middle">May</text>
    <text x="63.69" y="62.59" text-anchor="middle">June</text>
    <text x="83.72" y="62.59" text-anchor="middle">July</text>
    <text x="104.41" y="62.59" text-anchor="middle">Aug</text>
    <text x="125.11" y="62.59" text-anchor="middle">Sept</text>
    <text x="145.14" y="62.59" text-anchor="middle">Oct</text>
    <text x="165.83" y="62.59" text-anchor="middle">Nev</text>
  </g>
  <g class="guide colorkey" id="fig-1bce68d506f844dc970b4e7d420f042f-element-4">
    <g fill="#4C404B" font-size="2.82" font-family="'PT Sans','Helvetica Neue','Helvetica',sans-serif" id="fig-1bce68d506f844dc970b4e7d420f042f-element-5">
      <text x="187.67" y="30.14" dy="0.35em" id="fig-1bce68d506f844dc970b4e7d420f042f-element-6" class="color_0.2">0.2</text>
      <text x="187.67" y="33.77" dy="0.35em" id="fig-1bce68d506f844dc970b4e7d420f042f-element-7" class="color_0.3">0.3</text>
      <text x="187.67" y="37.4" dy="0.35em" id="fig-1bce68d506f844dc970b4e7d420f042f-element-8" class="color_0.4">0.4</text>
    </g>
    <g stroke="none" id="fig-1bce68d506f844dc970b4e7d420f042f-element-9">
      <rect x="184.85" y="29.24" width="1.81" height="1.81" id="fig-1bce68d506f844dc970b4e7d420f042f-element-10" class="color_0.2" fill="#00BFFF"/>
      <rect x="184.85" y="32.86" width="1.81" height="1.81" id="fig-1bce68d506f844dc970b4e7d420f042f-element-11" class="color_0.3" fill="#D4CA3A"/>
      <rect x="184.85" y="36.49" width="1.81" height="1.81" id="fig-1bce68d506f844dc970b4e7d420f042f-element-12" class="color_0.4" fill="#FF5EA0"/>
    </g>
    <g fill="#362A35" font-size="3.88" font-family="'PT Sans','Helvetica Neue','Helvetica',sans-serif" stroke="none" id="fig-1bce68d506f844dc970b4e7d420f042f-element-13">
      <text x="184.85" y="26.32" id="fig-1bce68d506f844dc970b4e7d420f042f-element-14">Julia ver.</text>
    </g>
  </g>
  <g font-size="3.88" font-family="'PT Sans','Helvetica Neue','Helvetica',sans-serif" fill="#564A55" stroke="none" id="fig-1bce68d506f844dc970b4e7d420f042f-element-15">
    <text x="8.81" y="29.96" text-anchor="middle" dy="0.35em" transform="rotate(-90, 8.81, 31.96)" id="fig-1bce68d506f844dc970b4e7d420f042f-element-16">Number of Tagged Packages</text>
  </g>
  <g clip-path="url(#fig-1bce68d506f844dc970b4e7d420f042f-element-18)" id="fig-1bce68d506f844dc970b4e7d420f042f-element-17">
    <g pointer-events="visible" opacity="1" fill="none" stroke="none" class="guide background" id="fig-1bce68d506f844dc970b4e7d420f042f-element-19">
      <rect x="19.63" y="5" width="164.22" height="53.91" id="fig-1bce68d506f844dc970b4e7d420f042f-element-20"/>
    </g>
    <g class="guide ygridlines xfixed" stroke-dasharray="0.5,0.5" stroke-width="0.2" stroke="#D0D0E0" id="fig-1bce68d506f844dc970b4e7d420f042f-element-21">
      <path fill="none" d="M19.63,56.91 L 183.85 56.91" id="fig-1bce68d506f844dc970b4e7d420f042f-element-22"/>
      <path fill="none" d="M19.63,44.44 L 183.85 44.44" id="fig-1bce68d506f844dc970b4e7d420f042f-element-23"/>
      <path fill="none" d="M19.63,31.96 L 183.85 31.96" id="fig-1bce68d506f844dc970b4e7d420f042f-element-24"/>
      <path fill="none" d="M19.63,19.48 L 183.85 19.48" id="fig-1bce68d506f844dc970b4e7d420f042f-element-25"/>
      <path fill="none" d="M19.63,7 L 183.85 7" id="fig-1bce68d506f844dc970b4e7d420f042f-element-26"/>
    </g>
    <g class="guide xgridlines yfixed" stroke-dasharray="0.5,0.5" stroke-width="0.2" stroke="#D0D0E0" id="fig-1bce68d506f844dc970b4e7d420f042f-element-27">
      <path fill="none" d="M22.97,5 L 22.97 58.91" id="fig-1bce68d506f844dc970b4e7d420f042f-element-28"/>
      <path fill="none" d="M43,5 L 43 58.91" id="fig-1bce68d506f844dc970b4e7d420f042f-element-29"/>
      <path fill="none" d="M63.69,5 L 63.69 58.91" id="fig-1bce68d506f844dc970b4e7d420f042f-element-30"/>
      <path fill="none" d="M83.72,5 L 83.72 58.91" id="fig-1bce68d506f844dc970b4e7d420f042f-element-31"/>
      <path fill="none" d="M104.41,5 L 104.41 58.91" id="fig-1bce68d506f844dc970b4e7d420f042f-element-32"/>
      <path fill="none" d="M125.11,5 L 125.11 58.91" id="fig-1bce68d506f844dc970b4e7d420f042f-element-33"/>
      <path fill="none" d="M145.14,5 L 145.14 58.91" id="fig-1bce68d506f844dc970b4e7d420f042f-element-34"/>
      <path fill="none" d="M165.83,5 L 165.83 58.91" id="fig-1bce68d506f844dc970b4e7d420f042f-element-35"/>
    </g>
    <g class="plotpanel" id="fig-1bce68d506f844dc970b4e7d420f042f-element-36">
      <g stroke-width="0.79" fill="none" class="geometry color_0.4" stroke="#FF5EA0" id="fig-1bce68d506f844dc970b4e7d420f042f-element-37">
        <path fill="none" d="M112.42,28.46 L 113.09 27.71 113.76 27.47 114.43 27.22 115.09 27.22 115.76 27.22 117.1 26.47 117.76 26.47 118.43 26.22 119.1 26.22 119.77 26.22 120.43 25.47 121.1 24.97 121.77 24.97 123.11 24.47 123.77 23.72 125.11 23.22 125.78 23.22 126.44 23.22 129.11 23.22 131.12 21.72 131.78 21.48 132.45 21.23 133.12 20.73 133.79 20.73 134.45 20.73 135.12 18.73 135.79 18.73 136.46 18.73 137.79 18.48 138.46 18.48 139.13 18.23 139.79 18.23 140.46 18.23 141.13 17.98 141.8 17.98 143.13 18.23 143.8 17.98 144.47 17.98 145.14 17.48 145.8 16.98 146.47 16.98 147.14 16.98 147.81 16.48 149.81 15.98 150.48 15.98 151.14 15.49 151.81 15.24 152.48 15.24 153.15 15.24 153.81 14.74 154.48 14.74 155.15 14.49 155.82 14.24 156.48 14.24 157.15 14.24 157.82 14.24 158.49 13.74 159.15 13.24 159.82 13.24 160.49 13.24 161.16 12.99 161.82 12.99 162.49 12.74 163.16 12.74 163.83 12.24 164.49 11.99 165.16 11.99 165.83 11.74 166.5 11.74 167.16 11.74 167.83 11.74 168.5 11.49 169.17 11.24 171.17 11.24 174.51 9.75 175.18 9.25 175.84 9.25 176.51 9 177.18 9 177.85 8.25 178.51 8.25 181.18 7 181.85 7" id="fig-1bce68d506f844dc970b4e7d420f042f-element-38"/>
      </g>
      <g stroke-width="0.79" fill="none" class="geometry color_0.3" stroke="#D4CA3A" id="fig-1bce68d506f844dc970b4e7d420f042f-element-39">
        <path fill="none" d="M21.63,45.43 L 22.3 45.43 22.97 45.18 23.64 45.18 24.3 45.18 24.97 45.18 25.64 45.18 26.31 44.94 27.64 44.94 28.31 44.69 29.65 44.44 30.98 43.94 31.65 43.94 32.98 43.94 33.65 43.69 38.32 42.69 40.33 42.69 41.66 42.69 46.33 42.44 47 41.94 47.67 41.69 48.34 41.69 49 41.69 49.67 41.69 50.34 41.69 51.01 41.69 51.68 41.69 52.34 41.69 53.01 41.69 53.68 40.94 55.01 40.69 55.68 40.69 56.35 40.69 57.02 40.19 57.68 40.19 58.35 40.19 59.02 39.94 59.69 39.94 60.35 39.94 61.02 39.94 61.69 39.94 62.36 39.69 63.02 39.69 63.69 49.68 64.36 39.44 65.03 39.2 65.69 38.95 69.7 37.45 70.37 37.2 71.03 36.95 71.7 36.7 72.37 36.2 73.04 36.2 73.7 35.7 74.37 35.7 75.04 35.45 75.71 35.2 77.04 35.2 77.71 34.7 78.38 34.7 79.05 34.7 79.71 34.7 80.38 34.7 81.05 33.95 81.72 33.95 83.05 33.7 83.72 33.21 84.39 32.96 85.05 32.71 85.72 32.71 86.39 32.21 87.72 31.96 88.39 31.21 89.06 31.21 89.73 31.21 91.06 29.96 92.4 29.21 93.06 29.21 93.73 28.96 94.4 28.96 96.4 28.71 97.07 28.71 97.74 28.46 98.41 28.46 99.07 28.46 99.74 28.21 100.41 27.96 101.08 27.71 102.41 27.71 103.08 27.71 104.41 27.71 105.08 27.47 105.75 26.72 106.42 26.72 107.75 26.47 108.42 26.47 109.09 25.97 109.75 25.72 110.42 25.47 111.09 25.22 111.76 24.97 112.42 24.47 113.09 24.47 113.76 24.22 114.43 23.97 115.09 23.97 115.76 23.97 117.1 23.22 117.76 23.22 118.43 22.97 119.1 22.97 119.77 22.97 120.43 22.22 121.1 21.97 121.77 21.72 123.11 24.72 123.77 23.97 125.11 23.47 125.78 23.47 126.44 23.47 129.11 23.47 131.12 21.97 131.78 21.72 132.45 21.48 133.12 20.98 133.79 20.98 134.45 20.98 135.12 18.98 135.79 18.98 136.46 18.98 137.79 18.98 138.46 18.73 139.13 18.48 139.79 18.48 140.46 18.48 141.13 18.23 141.8 18.23 143.13 18.48 143.8 18.23 144.47 18.23 145.14 17.73 145.8 12.74 146.47 17.23 147.14 17.23 147.81 16.73 149.81 16.23 150.48 16.23 151.14 15.74 151.81 15.49 152.48 15.49 153.15 15.49 153.81 14.99 154.48 14.99 155.15 14.74 155.82 14.49 156.48 14.49 157.15 14.49 157.82 14.49 158.49 14.24 159.15 13.74 159.82 13.74 160.49 13.74 161.16 13.49 161.82 13.49 162.49 13.24 163.16 13.24 163.83 12.74 164.49 12.49 165.16 12.49 165.83 12.24 166.5 12.24 167.16 12.24 167.83 11.99 168.5 11.99 169.17 11.74 171.17 11.74 174.51 10.49 175.18 9.99 175.84 9.99 176.51 9.75 177.18 9.75 177.85 9 178.51 9 181.18 7.75 181.85 7.75" id="fig-1bce68d506f844dc970b4e7d420f042f-element-40"/>
      </g>
      <g stroke-width="0.79" fill="none" class="geometry color_0.2" stroke="#00BFFF" id="fig-1bce68d506f844dc970b4e7d420f042f-element-41">
        <path fill="none" d="M21.63,48.18 L 22.3 48.18 22.97 47.93 23.64 47.93 24.3 47.93 24.97 47.93 25.64 47.93 26.31 47.93 27.64 47.93 28.31 47.93 29.65 47.68 30.98 47.43 31.65 47.43 32.98 47.18 33.65 46.93 38.32 46.43 40.33 46.43 41.66 46.43 46.33 46.18 47 45.93 47.67 45.93 48.34 45.93 49 45.93 49.67 45.93 50.34 45.93 51.01 45.93 51.68 45.93 52.34 45.93 53.01 45.18 53.68 45.18 55.01 44.94 55.68 44.94 56.35 44.94 57.02 44.69 57.68 46.68 58.35 45.43 59.02 45.43 59.69 45.43 60.35 45.43 61.02 45.43 61.69 45.43 62.36 45.43 63.02 45.43 63.69 45.18 64.36 45.18 65.03 44.94 65.69 44.94 69.7 43.69 70.37 43.69 71.03 43.44 71.7 43.19 72.37 42.69 73.04 42.69 73.7 42.69 74.37 42.69 75.04 42.69 75.71 42.44 77.04 42.44 77.71 41.94 78.38 41.94 79.05 41.94 79.71 41.94 80.38 41.94 81.05 41.19 81.72 41.19 83.05 40.94 83.72 40.44 84.39 40.19 85.05 39.94 85.72 39.94 86.39 39.94 87.72 39.44 88.39 39.2 89.06 38.95 89.73 38.95 91.06 38.45 92.4 37.95 93.06 37.95 93.73 37.95 94.4 37.95 96.4 37.95 97.07 37.95 97.74 37.7 98.41 37.7 99.07 37.7 99.74 37.45 100.41 37.45 101.08 37.45 102.41 37.2 103.08 37.2 104.41 37.2 105.08 37.2 105.75 36.45 106.42 36.45 107.75 36.95 108.42 36.95 109.09 36.45 109.75 36.2 110.42 36.2 111.09 35.7 111.76 35.7" id="fig-1bce68d506f844dc970b4e7d420f042f-element-42"/>
      </g>
    </g>
  </g>
  <g class="guide ylabels" font-size="2.82" font-family="'PT Sans Caption','Helvetica Neue','Helvetica',sans-serif" fill="#6C606B" id="fig-1bce68d506f844dc970b4e7d420f042f-element-43">
    <text x="18.63" y="56.91" text-anchor="end" dy="0.35em" id="fig-1bce68d506f844dc970b4e7d420f042f-element-44">250</text>
    <text x="18.63" y="44.44" text-anchor="end" dy="0.35em" id="fig-1bce68d506f844dc970b4e7d420f042f-element-45">300</text>
    <text x="18.63" y="31.96" text-anchor="end" dy="0.35em" id="fig-1bce68d506f844dc970b4e7d420f042f-element-46">350</text>
    <text x="18.63" y="19.48" text-anchor="end" dy="0.35em" id="fig-1bce68d506f844dc970b4e7d420f042f-element-47">400</text>
    <text x="18.63" y="7" text-anchor="end" dy="0.35em" id="fig-1bce68d506f844dc970b4e7d420f042f-element-48">450</text>
  </g>
</g>
<defs>
<clipPath id="fig-1bce68d506f844dc970b4e7d420f042f-element-18">
  <path d="M19.63,5 L 183.85 5 183.85 58.91 19.63 58.91" />
</clipPath
></defs>
</svg>
