<?xml version="1.0" encoding="UTF-8"?>
<svg xmlns="http://www.w3.org/2000/svg"
     xmlns:xlink="http://www.w3.org/1999/xlink"
     xmlns:gadfly="http://www.gadflyjl.org/ns"
     version="1.2"
     width="203.2mm" height="76.2mm" viewBox="0 0 203.2 76.2"
     stroke="none"
     fill="#000000"
     stroke-width="0.3"
     font-size="3.88"
>
<g class="plotroot xscalable yscalable" id="fig-88dbe98b9c124bdea8d6506198d106bb-element-1">
  <g font-size="3.88" font-family="'PT Sans','Helvetica Neue','Helvetica',sans-serif" fill="#564A55" stroke="#000000" stroke-opacity="0.000" id="fig-88dbe98b9c124bdea8d6506198d106bb-element-2">
    <text x="101.74" y="64.59" text-anchor="middle" dy="0.6em">Date</text>
  </g>
  <g class="guide xlabels" font-size="2.82" font-family="'PT Sans Caption','Helvetica Neue','Helvetica',sans-serif" fill="#6C606B" id="fig-88dbe98b9c124bdea8d6506198d106bb-element-3">
    <text x="22.35" y="57.92" text-anchor="middle" dy="0.6em">Apr</text>
    <text x="33.05" y="57.92" text-anchor="middle" dy="0.6em">May</text>
    <text x="44.11" y="57.92" text-anchor="middle" dy="0.6em">Jun</text>
    <text x="54.82" y="57.92" text-anchor="middle" dy="0.6em">Jul</text>
    <text x="65.88" y="57.92" text-anchor="middle" dy="0.6em">Aug</text>
    <text x="76.94" y="57.92" text-anchor="middle" dy="0.6em">Sep</text>
    <text x="87.65" y="57.92" text-anchor="middle" dy="0.6em">Oct</text>
    <text x="98.71" y="57.92" text-anchor="middle" dy="0.6em">Nov</text>
    <text x="109.42" y="57.92" text-anchor="middle" dy="0.6em">Dec</text>
    <text x="120.48" y="57.92" text-anchor="middle" dy="0.6em">Jan 2015</text>
    <text x="131.54" y="57.92" text-anchor="middle" dy="0.6em">Feb</text>
    <text x="141.53" y="57.92" text-anchor="middle" dy="0.6em">Mar</text>
    <text x="152.59" y="57.92" text-anchor="middle" dy="0.6em">Apr</text>
    <text x="163.3" y="57.92" text-anchor="middle" dy="0.6em">May</text>
    <text x="174.36" y="57.92" text-anchor="middle" dy="0.6em">Jun</text>
  </g>
  <g class="guide colorkey" id="fig-88dbe98b9c124bdea8d6506198d106bb-element-4">
    <g fill="#4C404B" font-size="2.82" font-family="'PT Sans','Helvetica Neue','Helvetica',sans-serif" id="fig-88dbe98b9c124bdea8d6506198d106bb-element-5">
      <text x="187.67" y="29.14" dy="0.35em" id="fig-88dbe98b9c124bdea8d6506198d106bb-element-6" class="color_0.2">0.2</text>
      <text x="187.67" y="32.77" dy="0.35em" id="fig-88dbe98b9c124bdea8d6506198d106bb-element-7" class="color_0.3">0.3</text>
      <text x="187.67" y="36.4" dy="0.35em" id="fig-88dbe98b9c124bdea8d6506198d106bb-element-8" class="color_0.4">0.4</text>
    </g>
    <g stroke="#000000" stroke-opacity="0.000" id="fig-88dbe98b9c124bdea8d6506198d106bb-element-9">
      <rect x="184.85" y="28.24" width="1.81" height="1.81" id="fig-88dbe98b9c124bdea8d6506198d106bb-element-10" class="color_0.2" fill="#00BFFF"/>
      <rect x="184.85" y="31.86" width="1.81" height="1.81" id="fig-88dbe98b9c124bdea8d6506198d106bb-element-11" class="color_0.3" fill="#D4CA3A"/>
      <rect x="184.85" y="35.49" width="1.81" height="1.81" id="fig-88dbe98b9c124bdea8d6506198d106bb-element-12" class="color_0.4" fill="#FF5EA0"/>
    </g>
    <g fill="#362A35" font-size="3.88" font-family="'PT Sans','Helvetica Neue','Helvetica',sans-serif" stroke="#000000" stroke-opacity="0.000" id="fig-88dbe98b9c124bdea8d6506198d106bb-element-13">
      <text x="184.85" y="25.32" id="fig-88dbe98b9c124bdea8d6506198d106bb-element-14">Julia ver.</text>
    </g>
  </g>
  <g font-size="3.88" font-family="'PT Sans','Helvetica Neue','Helvetica',sans-serif" fill="#564A55" stroke="#000000" stroke-opacity="0.000" id="fig-88dbe98b9c124bdea8d6506198d106bb-element-15">
    <text x="8.81" y="28.96" text-anchor="middle" dy="0.35em" transform="rotate(-90, 8.81, 30.96)" id="fig-88dbe98b9c124bdea8d6506198d106bb-element-16">Number of Tagged Packages</text>
  </g>
  <g clip-path="url(#fig-88dbe98b9c124bdea8d6506198d106bb-element-18)" id="fig-88dbe98b9c124bdea8d6506198d106bb-element-17">
    <g pointer-events="visible" opacity="1" fill="#000000" fill-opacity="0.000" stroke="#000000" stroke-opacity="0.000" class="guide background" id="fig-88dbe98b9c124bdea8d6506198d106bb-element-19">
      <rect x="19.63" y="5" width="164.22" height="51.92" id="fig-88dbe98b9c124bdea8d6506198d106bb-element-20"/>
    </g>
    <g class="guide ygridlines xfixed" stroke-dasharray="0.5,0.5" stroke-width="0.2" stroke="#D0D0E0" id="fig-88dbe98b9c124bdea8d6506198d106bb-element-21">
      <path fill="none" d="M19.63,54.91 L 183.85 54.91" id="fig-88dbe98b9c124bdea8d6506198d106bb-element-22"/>
      <path fill="none" d="M19.63,42.94 L 183.85 42.94" id="fig-88dbe98b9c124bdea8d6506198d106bb-element-23"/>
      <path fill="none" d="M19.63,30.96 L 183.85 30.96" id="fig-88dbe98b9c124bdea8d6506198d106bb-element-24"/>
      <path fill="none" d="M19.63,18.98 L 183.85 18.98" id="fig-88dbe98b9c124bdea8d6506198d106bb-element-25"/>
      <path fill="none" d="M19.63,7 L 183.85 7" id="fig-88dbe98b9c124bdea8d6506198d106bb-element-26"/>
    </g>
    <g class="guide xgridlines yfixed" stroke-dasharray="0.5,0.5" stroke-width="0.2" stroke="#D0D0E0" id="fig-88dbe98b9c124bdea8d6506198d106bb-element-27">
      <path fill="none" d="M22.35,5 L 22.35 56.92" id="fig-88dbe98b9c124bdea8d6506198d106bb-element-28"/>
      <path fill="none" d="M33.05,5 L 33.05 56.92" id="fig-88dbe98b9c124bdea8d6506198d106bb-element-29"/>
      <path fill="none" d="M44.11,5 L 44.11 56.92" id="fig-88dbe98b9c124bdea8d6506198d106bb-element-30"/>
      <path fill="none" d="M54.82,5 L 54.82 56.92" id="fig-88dbe98b9c124bdea8d6506198d106bb-element-31"/>
      <path fill="none" d="M65.88,5 L 65.88 56.92" id="fig-88dbe98b9c124bdea8d6506198d106bb-element-32"/>
      <path fill="none" d="M76.94,5 L 76.94 56.92" id="fig-88dbe98b9c124bdea8d6506198d106bb-element-33"/>
      <path fill="none" d="M87.65,5 L 87.65 56.92" id="fig-88dbe98b9c124bdea8d6506198d106bb-element-34"/>
      <path fill="none" d="M98.71,5 L 98.71 56.92" id="fig-88dbe98b9c124bdea8d6506198d106bb-element-35"/>
      <path fill="none" d="M109.42,5 L 109.42 56.92" id="fig-88dbe98b9c124bdea8d6506198d106bb-element-36"/>
      <path fill="none" d="M120.48,5 L 120.48 56.92" id="fig-88dbe98b9c124bdea8d6506198d106bb-element-37"/>
      <path fill="none" d="M131.54,5 L 131.54 56.92" id="fig-88dbe98b9c124bdea8d6506198d106bb-element-38"/>
      <path fill="none" d="M141.53,5 L 141.53 56.92" id="fig-88dbe98b9c124bdea8d6506198d106bb-element-39"/>
      <path fill="none" d="M152.59,5 L 152.59 56.92" id="fig-88dbe98b9c124bdea8d6506198d106bb-element-40"/>
      <path fill="none" d="M163.3,5 L 163.3 56.92" id="fig-88dbe98b9c124bdea8d6506198d106bb-element-41"/>
      <path fill="none" d="M174.36,5 L 174.36 56.92" id="fig-88dbe98b9c124bdea8d6506198d106bb-element-42"/>
    </g>
    <g class="plotpanel" id="fig-88dbe98b9c124bdea8d6506198d106bb-element-43">
      <g class="geometry" stroke="#000000" stroke-opacity="0.000" fill="#4C404B" font-size="2.82" font-family="'PT Sans Caption','Helvetica Neue','Helvetica',sans-serif" id="fig-88dbe98b9c124bdea8d6506198d106bb-element-44">
        <text x="77.6" y="51.26" text-anchor="middle" dy="0.35em" id="fig-88dbe98b9c124bdea8d6506198d106bb-element-45" visibility="visible">v0.3.0</text>
        <text x="89.02" y="51.26" text-anchor="middle" dy="0.35em" id="fig-88dbe98b9c124bdea8d6506198d106bb-element-46" visibility="visible">v0.3.1</text>
        <text x="99.72" y="51.26" text-anchor="middle" dy="0.35em" id="fig-88dbe98b9c124bdea8d6506198d106bb-element-47" visibility="visible">v0.3.2</text>
        <text x="111.5" y="51.26" text-anchor="middle" dy="0.35em" id="fig-88dbe98b9c124bdea8d6506198d106bb-element-48" visibility="visible">v0.3.3</text>
        <text x="119.34" y="51.26" text-anchor="middle" dy="0.35em" id="fig-88dbe98b9c124bdea8d6506198d106bb-element-49" visibility="visible"></text>
        <text x="127.92" y="51.26" text-anchor="middle" dy="0.35em" id="fig-88dbe98b9c124bdea8d6506198d106bb-element-50" visibility="visible">v0.3.5</text>
        <text x="142.19" y="51.26" text-anchor="middle" dy="0.35em" id="fig-88dbe98b9c124bdea8d6506198d106bb-element-51" visibility="visible">v0.3.6</text>
        <text x="154.32" y="51.26" text-anchor="middle" dy="0.35em" id="fig-88dbe98b9c124bdea8d6506198d106bb-element-52" visibility="visible">v0.3.7</text>
        <text x="167.88" y="51.26" text-anchor="middle" dy="0.35em" id="fig-88dbe98b9c124bdea8d6506198d106bb-element-53" visibility="visible">v0.3.8</text>
        <text x="178.59" y="51.26" text-anchor="middle" dy="0.35em" id="fig-88dbe98b9c124bdea8d6506198d106bb-element-54" visibility="visible">v0.3.9</text>
      </g>
      <g class="yfixed" stroke-width="0.26" stroke="#333333" id="fig-88dbe98b9c124bdea8d6506198d106bb-element-55">
        <path fill="none" d="M72.66,5 L 72.66 56.92" id="fig-88dbe98b9c124bdea8d6506198d106bb-element-56"/>
        <path fill="none" d="M84.08,5 L 84.08 56.92" id="fig-88dbe98b9c124bdea8d6506198d106bb-element-57"/>
        <path fill="none" d="M94.78,5 L 94.78 56.92" id="fig-88dbe98b9c124bdea8d6506198d106bb-element-58"/>
        <path fill="none" d="M106.56,5 L 106.56 56.92" id="fig-88dbe98b9c124bdea8d6506198d106bb-element-59"/>
        <path fill="none" d="M118.34,5 L 118.34 56.92" id="fig-88dbe98b9c124bdea8d6506198d106bb-element-60"/>
        <path fill="none" d="M122.98,5 L 122.98 56.92" id="fig-88dbe98b9c124bdea8d6506198d106bb-element-61"/>
        <path fill="none" d="M137.25,5 L 137.25 56.92" id="fig-88dbe98b9c124bdea8d6506198d106bb-element-62"/>
        <path fill="none" d="M149.38,5 L 149.38 56.92" id="fig-88dbe98b9c124bdea8d6506198d106bb-element-63"/>
        <path fill="none" d="M162.94,5 L 162.94 56.92" id="fig-88dbe98b9c124bdea8d6506198d106bb-element-64"/>
        <path fill="none" d="M173.65,5 L 173.65 56.92" id="fig-88dbe98b9c124bdea8d6506198d106bb-element-65"/>
      </g>
      <g stroke-width="0.79" fill="#000000" fill-opacity="0.000" class="geometry color_0.4" stroke="#FF5EA0" id="fig-88dbe98b9c124bdea8d6506198d106bb-element-66">
        <path fill="none" d="M70.16,35.27 L 70.52 34.91 70.88 34.79 71.23 34.67 71.59 34.67 71.95 34.67 72.66 34.31 73.02 34.31 73.37 34.19 73.73 34.19 74.09 34.19 74.44 33.83 74.8 33.59 75.16 33.59 75.87 33.35 76.23 32.99 76.94 32.75 77.3 32.75 77.66 32.75 79.08 32.75 80.15 32.04 80.51 31.92 80.87 31.8 81.22 31.56 81.58 31.56 81.94 31.56 82.29 30.6 82.65 30.6 83.01 30.6 83.72 30.48 84.08 30.48 84.44 30.36 84.79 30.36 85.15 30.36 85.51 30.24 85.86 30.24 86.58 30.36 86.93 30.24 87.29 30.24 87.65 30 88 29.76 88.36 29.76 88.72 29.76 89.07 29.52 90.15 29.28 90.5 29.28 90.86 29.04 91.22 28.92 91.57 28.92 91.93 28.92 92.29 28.68 92.64 28.68 93 28.56 93.36 28.44 93.71 28.44 94.07 28.44 94.43 28.44 94.78 28.2 95.14 27.96 95.5 27.96 95.86 27.96 96.21 27.84 96.57 27.84 96.93 27.72 97.28 27.72 97.64 27.48 98 27.36 98.35 27.36 98.71 27.24 99.07 27.24 99.42 27.24 99.78 27.24 100.14 27.12 100.49 27 101.56 27 103.35 26.29 103.71 26.05 104.06 26.05 104.42 25.93 104.78 25.93 105.13 25.57 105.49 25.57 106.92 24.97 107.27 24.97 109.06 24.85 109.77 24.85 110.13 24.61 110.49 24.49 110.84 24.49 111.2 24.49 111.56 24.25 111.91 24.01 112.98 23.89 113.34 23.77 114.05 23.29 114.41 23.29 114.77 23.29 115.84 23.29 116.55 23.05 117.62 22.81 119.05 22.57 119.76 22.09 120.83 21.85 123.33 21.02 124.76 20.18 125.12 19.94 125.47 19.94 125.83 19.22 126.19 19.22 126.54 19.22 127.26 19.1 127.61 18.98 127.97 18.98 128.33 18.62 128.68 18.5 129.04 18.5 129.4 18.5 130.11 18.14 130.47 17.78 130.83 17.66 132.25 16.7 132.61 16.7 132.97 17.06 133.68 16.7 134.39 16.34 134.75 16.34 135.82 16.1 137.61 16.1 139.39 15.98 141.17 14.91 141.53 14.91 141.89 14.91 142.24 14.67 142.6 14.67 143.32 14.43 144.03 14.43 145.46 14.31 145.81 14.07 146.17 14.07 146.53 14.07 146.88 13.83 147.24 13.95 147.6 13.71 151.88 13.23 152.59 13.23 152.95 12.87 153.66 12.87 155.09 12.75 155.8 12.63 156.52 12.27 157.95 12.03 158.66 11.79 159.02 11.43 159.73 10.83 160.09 10.83 160.44 10.71 160.8 10.47 161.16 10.47 161.51 10.35 162.23 10.23 162.58 9.99 163.3 9.99 164.01 9.76 164.37 9.4 164.73 9.28 165.44 9.04 165.8 8.92 167.58 8.44 169.01 8.2 169.36 7.96 172.22 7.6 172.58 7.6 172.93 7.6 174 7.12 174.36 7 174.72 6.76 175.43 6.52 176.14 6.52 176.86 6.28 180.07 5.44 181.14 5.44 181.5 5.44 181.85 5.2" id="fig-88dbe98b9c124bdea8d6506198d106bb-element-67"/>
      </g>
      <g stroke-width="0.79" fill="#000000" fill-opacity="0.000" class="geometry color_0.3" stroke="#D4CA3A" id="fig-88dbe98b9c124bdea8d6506198d106bb-element-68">
        <path fill="none" d="M21.63,43.42 L 21.99 43.42 22.35 43.3 22.7 43.3 23.06 43.3 23.42 43.3 23.77 43.3 24.13 43.18 24.84 43.18 25.2 43.06 25.91 42.94 26.63 42.7 26.98 42.7 27.7 42.7 28.05 42.58 30.55 42.1 31.62 42.1 32.34 42.1 34.83 41.98 35.19 41.74 35.55 41.62 35.91 41.62 36.26 41.62 36.62 41.62 36.98 41.62 37.33 41.62 37.69 41.62 38.05 41.62 38.4 41.62 38.76 41.26 39.47 41.14 39.83 41.14 40.19 41.14 40.54 40.9 40.9 40.9 41.26 40.9 41.61 40.78 41.97 40.78 42.33 40.78 42.69 40.78 43.04 40.78 43.4 40.66 43.76 40.66 44.11 45.45 44.47 40.54 44.83 40.42 45.18 40.3 47.32 39.58 47.68 39.46 48.04 39.34 48.39 39.22 48.75 38.98 49.11 38.98 49.47 38.74 49.82 38.74 50.18 38.62 50.54 38.5 51.25 38.5 51.61 38.26 51.96 38.26 52.32 38.26 52.68 38.26 53.03 38.26 53.39 37.91 53.75 37.91 54.46 37.79 54.82 37.55 55.17 37.43 55.53 37.31 55.89 37.31 56.25 37.07 56.96 36.95 57.32 36.59 57.67 36.59 58.03 36.59 58.74 35.99 59.46 35.63 59.81 35.63 60.17 35.51 60.53 35.51 61.6 35.39 61.95 35.39 62.31 35.27 62.67 35.27 63.03 35.27 63.38 35.15 63.74 35.03 64.1 34.91 64.81 34.91 65.17 34.91 65.88 34.91 66.24 34.79 66.59 34.43 66.95 34.43 67.66 34.31 68.02 34.31 68.38 34.07 68.73 33.95 69.09 33.83 69.45 33.71 69.81 33.59 70.16 33.35 70.52 33.35 70.88 33.23 71.23 33.11 71.59 33.11 71.95 33.11 72.66 32.75 73.02 32.75 73.37 32.63 73.73 32.63 74.09 32.63 74.44 32.28 74.8 32.16 75.16 32.04 75.87 33.47 76.23 33.11 76.94 32.87 77.3 32.87 77.66 32.87 79.08 32.87 80.15 32.16 80.51 32.04 80.87 31.92 81.22 31.68 81.58 31.68 81.94 31.68 82.29 30.72 82.65 30.72 83.01 30.72 83.72 30.72 84.08 30.6 84.44 30.48 84.79 30.48 85.15 30.48 85.51 30.36 85.86 30.36 86.58 30.48 86.93 30.36 87.29 30.36 87.65 30.12 88 27.72 88.36 29.88 88.72 29.88 89.07 29.64 90.15 29.4 90.5 29.4 90.86 29.16 91.22 29.04 91.57 29.04 91.93 29.04 92.29 28.8 92.64 28.8 93 28.68 93.36 28.56 93.71 28.56 94.07 28.56 94.43 28.56 94.78 28.44 95.14 28.2 95.5 28.2 95.86 28.2 96.21 28.08 96.57 28.08 96.93 27.96 97.28 27.96 97.64 27.72 98 27.6 98.35 27.6 98.71 27.48 99.07 27.48 99.42 27.48 99.78 27.36 100.14 27.36 100.49 27.24 101.56 27.24 103.35 26.65 103.71 26.41 104.06 26.41 104.42 26.29 104.78 26.29 105.13 25.93 105.49 25.93 106.92 25.33 107.27 25.33 109.06 25.21 109.77 25.21 110.13 25.09 110.49 24.97 110.84 24.97 111.2 24.97 111.56 24.73 111.91 24.61 112.98 24.37 113.34 24.25 114.05 23.89 114.41 23.77 114.77 23.77 115.84 23.77 116.55 23.53 117.62 23.29 119.05 23.05 119.76 22.69 120.83 22.21 123.33 21.49 124.76 20.66 125.12 20.42 125.47 20.42 125.83 19.82 126.19 19.82 126.54 19.82 127.26 19.82 127.61 19.58 127.97 19.58 128.33 19.22 128.68 19.1 129.04 19.1 129.4 19.1 130.11 18.74 130.47 18.5 130.83 18.38 132.25 17.42 132.61 17.66 132.97 17.66 133.68 17.3 134.39 16.94 134.75 16.94 135.82 16.7 137.61 16.7 139.39 15.98 141.17 15.5 141.53 15.5 141.89 15.5 142.24 15.27 142.6 15.27 143.32 15.27 144.03 15.27 145.46 15.03 145.81 14.79 146.17 14.67 146.53 14.67 146.88 14.43 147.24 14.55 147.6 14.31 151.88 14.19 152.59 14.19 152.95 13.83 153.66 13.83 155.09 13.71 155.8 13.71 156.52 13.35 157.95 13.35 158.66 13.11 159.02 12.99 159.73 12.39 160.09 12.39 160.44 12.27 160.8 11.91 161.16 11.91 161.51 11.79 162.23 11.67 162.58 11.55 163.3 11.55 164.01 11.31 164.37 10.95 164.73 10.83 165.44 10.59 165.8 10.47 167.58 9.99 169.01 9.76 169.36 9.52 172.22 9.04 172.58 9.04 172.93 9.04 174 8.68 174.36 8.56 174.72 8.44 175.43 8.2 176.14 8.2 176.86 8.08 180.07 7.48 181.14 7.6 181.5 7.6 181.85 7.36" id="fig-88dbe98b9c124bdea8d6506198d106bb-element-69"/>
      </g>
      <g stroke-width="0.79" fill="#000000" fill-opacity="0.000" class="geometry color_0.2" stroke="#00BFFF" id="fig-88dbe98b9c124bdea8d6506198d106bb-element-70">
        <path fill="none" d="M21.63,44.73 L 21.99 44.73 22.35 44.61 22.7 44.61 23.06 44.61 23.42 44.61 23.77 44.61 24.13 44.61 24.84 44.61 25.2 44.61 25.91 44.49 26.63 44.37 26.98 44.37 27.7 44.25 28.05 44.13 30.55 43.89 31.62 43.89 32.34 43.89 34.83 43.77 35.19 43.65 35.55 43.65 35.91 43.65 36.26 43.65 36.62 43.65 36.98 43.65 37.33 43.65 37.69 43.65 38.05 43.65 38.4 43.3 38.76 43.3 39.47 43.18 39.83 43.18 40.19 43.18 40.54 43.06 40.9 44.01 41.26 43.42 41.61 43.42 41.97 43.42 42.33 43.42 42.69 43.42 43.04 43.42 43.4 43.42 43.76 43.42 44.11 43.3 44.47 43.3 44.83 43.18 45.18 43.18 47.32 42.58 47.68 42.58 48.04 42.46 48.39 42.34 48.75 42.1 49.11 42.1 49.47 42.1 49.82 42.1 50.18 42.1 50.54 41.98 51.25 41.98 51.61 41.74 51.96 41.74 52.32 41.74 52.68 41.74 53.03 41.74 53.39 41.38 53.75 41.38 54.46 41.26 54.82 41.02 55.17 40.9 55.53 40.78 55.89 40.78 56.25 40.78 56.96 40.54 57.32 40.42 57.67 40.3 58.03 40.3 58.74 40.06 59.46 39.82 59.81 39.82 60.17 39.82 60.53 39.82 61.6 39.82 61.95 39.82 62.31 39.7 62.67 39.7 63.03 39.7 63.38 39.58 63.74 39.58 64.1 39.58 64.81 39.46 65.17 39.46 65.88 39.46 66.24 39.46 66.59 39.1 66.95 39.1 67.66 39.34 68.02 39.34 68.38 39.1 68.73 38.98 69.09 38.98 69.45 38.74 69.81 38.74" id="fig-88dbe98b9c124bdea8d6506198d106bb-element-71"/>
      </g>
    </g>
  </g>
  <g class="guide ylabels" font-size="2.82" font-family="'PT Sans Caption','Helvetica Neue','Helvetica',sans-serif" fill="#6C606B" id="fig-88dbe98b9c124bdea8d6506198d106bb-element-72">
    <text x="18.63" y="54.91" text-anchor="end" dy="0.35em" id="fig-88dbe98b9c124bdea8d6506198d106bb-element-73">200</text>
    <text x="18.63" y="42.94" text-anchor="end" dy="0.35em" id="fig-88dbe98b9c124bdea8d6506198d106bb-element-74">300</text>
    <text x="18.63" y="30.96" text-anchor="end" dy="0.35em" id="fig-88dbe98b9c124bdea8d6506198d106bb-element-75">400</text>
    <text x="18.63" y="18.98" text-anchor="end" dy="0.35em" id="fig-88dbe98b9c124bdea8d6506198d106bb-element-76">500</text>
    <text x="18.63" y="7" text-anchor="end" dy="0.35em" id="fig-88dbe98b9c124bdea8d6506198d106bb-element-77">600</text>
  </g>
</g>
<defs>
<clipPath id="fig-88dbe98b9c124bdea8d6506198d106bb-element-18">
  <path d="M19.63,5 L 183.85 5 183.85 56.92 19.63 56.92" />
</clipPath
></defs>
</svg>
