<?xml version="1.0" encoding="UTF-8"?>
<svg xmlns="http://www.w3.org/2000/svg"
     xmlns:xlink="http://www.w3.org/1999/xlink"
     xmlns:gadfly="http://www.gadflyjl.org/ns"
     version="1.2"
     width="203.2mm" height="76.2mm" viewBox="0 0 203.2 76.2"
     stroke="none"
     fill="#000000"
     stroke-width="0.3"
     font-size="3.88"
>
<g class="plotroot xscalable yscalable" id="fig-b17d6f085af048eeac11488f9c55d910-element-1">
  <g font-size="3.88" font-family="'PT Sans','Helvetica Neue','Helvetica',sans-serif" fill="#564A55" stroke="none" id="fig-b17d6f085af048eeac11488f9c55d910-element-2">
    <text x="101.74" y="68.2" text-anchor="middle">Date</text>
  </g>
  <g class="guide xlabels" font-size="2.82" font-family="'PT Sans Caption','Helvetica Neue','Helvetica',sans-serif" fill="#6C606B" id="fig-b17d6f085af048eeac11488f9c55d910-element-3">
    <text x="23.52" y="62.59" text-anchor="middle">Apr</text>
    <text x="46.87" y="62.59" text-anchor="middle">May</text>
    <text x="71" y="62.59" text-anchor="middle">June</text>
    <text x="94.35" y="62.59" text-anchor="middle">July</text>
    <text x="118.48" y="62.59" text-anchor="middle">Aug</text>
    <text x="142.6" y="62.59" text-anchor="middle">Sept</text>
    <text x="165.95" y="62.59" text-anchor="middle">Oct</text>
  </g>
  <g class="guide colorkey" id="fig-b17d6f085af048eeac11488f9c55d910-element-4">
    <g fill="#4C404B" font-size="2.82" font-family="'PT Sans','Helvetica Neue','Helvetica',sans-serif" id="fig-b17d6f085af048eeac11488f9c55d910-element-5">
      <text x="187.67" y="30.14" dy="0.35em" id="fig-b17d6f085af048eeac11488f9c55d910-element-6" class="color_0.2">0.2</text>
      <text x="187.67" y="33.77" dy="0.35em" id="fig-b17d6f085af048eeac11488f9c55d910-element-7" class="color_0.3">0.3</text>
      <text x="187.67" y="37.4" dy="0.35em" id="fig-b17d6f085af048eeac11488f9c55d910-element-8" class="color_0.4">0.4</text>
    </g>
    <g stroke="none" id="fig-b17d6f085af048eeac11488f9c55d910-element-9">
      <rect x="184.85" y="29.24" width="1.81" height="1.81" id="fig-b17d6f085af048eeac11488f9c55d910-element-10" class="color_0.2" fill="#00BFFF"/>
      <rect x="184.85" y="32.86" width="1.81" height="1.81" id="fig-b17d6f085af048eeac11488f9c55d910-element-11" class="color_0.3" fill="#D4CA3A"/>
      <rect x="184.85" y="36.49" width="1.81" height="1.81" id="fig-b17d6f085af048eeac11488f9c55d910-element-12" class="color_0.4" fill="#FF5EA0"/>
    </g>
    <g fill="#362A35" font-size="3.88" font-family="'PT Sans','Helvetica Neue','Helvetica',sans-serif" stroke="none" id="fig-b17d6f085af048eeac11488f9c55d910-element-13">
      <text x="184.85" y="26.32" id="fig-b17d6f085af048eeac11488f9c55d910-element-14">Julia ver.</text>
    </g>
  </g>
  <g font-size="3.88" font-family="'PT Sans','Helvetica Neue','Helvetica',sans-serif" fill="#564A55" stroke="none" id="fig-b17d6f085af048eeac11488f9c55d910-element-15">
    <text x="8.81" y="29.96" text-anchor="middle" dy="0.35em" transform="rotate(-90, 8.81, 31.96)" id="fig-b17d6f085af048eeac11488f9c55d910-element-16">Number of Tagged Packages</text>
  </g>
  <g clip-path="url(#fig-b17d6f085af048eeac11488f9c55d910-element-18)" id="fig-b17d6f085af048eeac11488f9c55d910-element-17">
    <g pointer-events="visible" opacity="1" fill="none" stroke="none" class="guide background" id="fig-b17d6f085af048eeac11488f9c55d910-element-19">
      <rect x="19.63" y="5" width="164.22" height="53.91" id="fig-b17d6f085af048eeac11488f9c55d910-element-20"/>
    </g>
    <g class="guide ygridlines xfixed" stroke-dasharray="0.5,0.5" stroke-width="0.2" stroke="#D0D0E0" id="fig-b17d6f085af048eeac11488f9c55d910-element-21">
      <path fill="none" d="M19.63,56.91 L 183.85 56.91" id="fig-b17d6f085af048eeac11488f9c55d910-element-22"/>
      <path fill="none" d="M19.63,44.44 L 183.85 44.44" id="fig-b17d6f085af048eeac11488f9c55d910-element-23"/>
      <path fill="none" d="M19.63,31.96 L 183.85 31.96" id="fig-b17d6f085af048eeac11488f9c55d910-element-24"/>
      <path fill="none" d="M19.63,19.48 L 183.85 19.48" id="fig-b17d6f085af048eeac11488f9c55d910-element-25"/>
      <path fill="none" d="M19.63,7 L 183.85 7" id="fig-b17d6f085af048eeac11488f9c55d910-element-26"/>
    </g>
    <g class="guide xgridlines yfixed" stroke-dasharray="0.5,0.5" stroke-width="0.2" stroke="#D0D0E0" id="fig-b17d6f085af048eeac11488f9c55d910-element-27">
      <path fill="none" d="M23.52,5 L 23.52 58.91" id="fig-b17d6f085af048eeac11488f9c55d910-element-28"/>
      <path fill="none" d="M46.87,5 L 46.87 58.91" id="fig-b17d6f085af048eeac11488f9c55d910-element-29"/>
      <path fill="none" d="M71,5 L 71 58.91" id="fig-b17d6f085af048eeac11488f9c55d910-element-30"/>
      <path fill="none" d="M94.35,5 L 94.35 58.91" id="fig-b17d6f085af048eeac11488f9c55d910-element-31"/>
      <path fill="none" d="M118.48,5 L 118.48 58.91" id="fig-b17d6f085af048eeac11488f9c55d910-element-32"/>
      <path fill="none" d="M142.6,5 L 142.6 58.91" id="fig-b17d6f085af048eeac11488f9c55d910-element-33"/>
      <path fill="none" d="M165.95,5 L 165.95 58.91" id="fig-b17d6f085af048eeac11488f9c55d910-element-34"/>
    </g>
    <g class="plotpanel" id="fig-b17d6f085af048eeac11488f9c55d910-element-35">
      <g stroke-width="0.79" fill="none" class="geometry color_0.4" stroke="#FF5EA0" id="fig-b17d6f085af048eeac11488f9c55d910-element-36">
        <path fill="none" d="M127.82,28.46 L 128.59 27.71 129.37 27.47 130.15 27.22 130.93 27.22 131.71 27.22 133.26 26.47 134.04 26.47 134.82 26.22 135.6 26.22 136.38 26.22 137.16 25.47 137.93 24.97 138.71 24.97 140.27 24.47 141.05 23.72 142.6 23.22 143.38 23.22 144.16 23.22 147.27 23.22 149.61 21.72 150.39 21.48 151.17 21.23 151.94 20.73 152.72 20.73 153.5 20.73 154.28 18.73 155.06 18.73 155.84 18.73 157.39 18.48 158.17 18.48 158.95 18.23 159.73 18.23 160.5 18.23 161.28 17.98 162.06 17.98 163.62 18.23 164.4 17.98 165.17 17.98 165.95 17.48 166.73 16.98 167.51 16.98 168.29 16.98 169.07 16.48 171.4 15.98 172.18 15.98 172.96 15.49 173.74 15.24 174.51 15.24 175.29 15.24 176.07 14.74 176.85 14.74 177.63 14.49 178.41 14.24 179.18 14.24 179.96 14.24 180.74 14.24 181.52 13.74 182.3 13.24" id="fig-b17d6f085af048eeac11488f9c55d910-element-37"/>
      </g>
      <g stroke-width="0.79" fill="none" class="geometry color_0.3" stroke="#D4CA3A" id="fig-b17d6f085af048eeac11488f9c55d910-element-38">
        <path fill="none" d="M21.97,45.43 L 22.74 45.43 23.52 45.18 24.3 45.18 25.08 45.18 25.86 45.18 26.64 45.18 27.41 44.94 28.97 44.94 29.75 44.69 31.31 44.44 32.86 43.94 33.64 43.94 35.2 43.94 35.98 43.69 41.42 42.69 43.76 42.69 45.32 42.69 50.76 42.44 51.54 41.94 52.32 41.69 53.1 41.69 53.88 41.69 54.66 41.69 55.43 41.69 56.21 41.69 56.99 41.69 57.77 41.69 58.55 41.69 59.33 40.94 60.88 40.69 61.66 40.69 62.44 40.69 63.22 40.19 64 40.19 64.77 40.19 65.55 39.94 66.33 39.94 67.11 39.94 67.89 39.94 68.66 39.94 69.44 39.69 70.22 39.69 71 49.68 71.78 39.44 72.56 39.2 73.33 38.95 78 37.45 78.78 37.2 79.56 36.95 80.34 36.7 81.12 36.2 81.9 36.2 82.67 35.7 83.45 35.7 84.23 35.45 85.01 35.2 86.57 35.2 87.34 34.7 88.12 34.7 88.9 34.7 89.68 34.7 90.46 34.7 91.24 33.95 92.01 33.95 93.57 33.7 94.35 33.21 95.13 32.96 95.91 32.71 96.68 32.71 97.46 32.21 99.02 31.96 99.8 31.21 100.58 31.21 101.35 31.21 102.91 29.96 104.47 29.21 105.25 29.21 106.02 28.96 106.8 28.96 109.14 28.71 109.92 28.71 110.69 28.46 111.47 28.46 112.25 28.46 113.03 28.21 113.81 27.96 114.58 27.71 116.14 27.71 116.92 27.71 118.48 27.71 119.25 27.47 120.03 26.72 120.81 26.72 122.37 26.47 123.15 26.47 123.92 25.97 124.7 25.72 125.48 25.47 126.26 25.22 127.04 24.97 127.82 24.47 128.59 24.47 129.37 24.22 130.15 23.97 130.93 23.97 131.71 23.97 133.26 23.22 134.04 23.22 134.82 22.97 135.6 22.97 136.38 22.97 137.16 22.22 137.93 21.97 138.71 21.72 140.27 24.72 141.05 23.97 142.6 23.47 143.38 23.47 144.16 23.47 147.27 23.47 149.61 21.97 150.39 21.72 151.17 21.48 151.94 20.98 152.72 20.98 153.5 20.98 154.28 18.98 155.06 18.98 155.84 18.98 157.39 18.98 158.17 18.73 158.95 18.48 159.73 18.48 160.5 18.48 161.28 18.23 162.06 18.23 163.62 18.48 164.4 18.23 165.17 18.23 165.95 17.73 166.73 12.74 167.51 17.23 168.29 17.23 169.07 16.73 171.4 16.23 172.18 16.23 172.96 15.74 173.74 15.49 174.51 15.49 175.29 15.49 176.07 14.99 176.85 14.99 177.63 14.74 178.41 14.49 179.18 14.49 179.96 14.49 180.74 14.49 181.52 14.24 182.3 13.74" id="fig-b17d6f085af048eeac11488f9c55d910-element-39"/>
      </g>
      <g stroke-width="0.79" fill="none" class="geometry color_0.2" stroke="#00BFFF" id="fig-b17d6f085af048eeac11488f9c55d910-element-40">
        <path fill="none" d="M21.97,48.18 L 22.74 48.18 23.52 47.93 24.3 47.93 25.08 47.93 25.86 47.93 26.64 47.93 27.41 47.93 28.97 47.93 29.75 47.93 31.31 47.68 32.86 47.43 33.64 47.43 35.2 47.18 35.98 46.93 41.42 46.43 43.76 46.43 45.32 46.43 50.76 46.18 51.54 45.93 52.32 45.93 53.1 45.93 53.88 45.93 54.66 45.93 55.43 45.93 56.21 45.93 56.99 45.93 57.77 45.93 58.55 45.18 59.33 45.18 60.88 44.94 61.66 44.94 62.44 44.94 63.22 44.69 64 46.68 64.77 45.43 65.55 45.43 66.33 45.43 67.11 45.43 67.89 45.43 68.66 45.43 69.44 45.43 70.22 45.43 71 45.18 71.78 45.18 72.56 44.94 73.33 44.94 78 43.69 78.78 43.69 79.56 43.44 80.34 43.19 81.12 42.69 81.9 42.69 82.67 42.69 83.45 42.69 84.23 42.69 85.01 42.44 86.57 42.44 87.34 41.94 88.12 41.94 88.9 41.94 89.68 41.94 90.46 41.94 91.24 41.19 92.01 41.19 93.57 40.94 94.35 40.44 95.13 40.19 95.91 39.94 96.68 39.94 97.46 39.94 99.02 39.44 99.8 39.2 100.58 38.95 101.35 38.95 102.91 38.45 104.47 37.95 105.25 37.95 106.02 37.95 106.8 37.95 109.14 37.95 109.92 37.95 110.69 37.7 111.47 37.7 112.25 37.7 113.03 37.45 113.81 37.45 114.58 37.45 116.14 37.2 116.92 37.2 118.48 37.2 119.25 37.2 120.03 36.45 120.81 36.45 122.37 36.95 123.15 36.95 123.92 36.45 124.7 36.2 125.48 36.2 126.26 35.7 127.04 35.7" id="fig-b17d6f085af048eeac11488f9c55d910-element-41"/>
      </g>
    </g>
  </g>
  <g class="guide ylabels" font-size="2.82" font-family="'PT Sans Caption','Helvetica Neue','Helvetica',sans-serif" fill="#6C606B" id="fig-b17d6f085af048eeac11488f9c55d910-element-42">
    <text x="18.63" y="56.91" text-anchor="end" dy="0.35em" id="fig-b17d6f085af048eeac11488f9c55d910-element-43">250</text>
    <text x="18.63" y="44.44" text-anchor="end" dy="0.35em" id="fig-b17d6f085af048eeac11488f9c55d910-element-44">300</text>
    <text x="18.63" y="31.96" text-anchor="end" dy="0.35em" id="fig-b17d6f085af048eeac11488f9c55d910-element-45">350</text>
    <text x="18.63" y="19.48" text-anchor="end" dy="0.35em" id="fig-b17d6f085af048eeac11488f9c55d910-element-46">400</text>
    <text x="18.63" y="7" text-anchor="end" dy="0.35em" id="fig-b17d6f085af048eeac11488f9c55d910-element-47">450</text>
  </g>
</g>
<defs>
<clipPath id="fig-b17d6f085af048eeac11488f9c55d910-element-18">
  <path d="M19.63,5 L 183.85 5 183.85 58.91 19.63 58.91" />
</clipPath
></defs>
</svg>
