<?xml version="1.0" encoding="UTF-8"?>
<svg xmlns="http://www.w3.org/2000/svg"
     xmlns:xlink="http://www.w3.org/1999/xlink"
     xmlns:gadfly="http://www.gadflyjl.org/ns"
     version="1.2"
     width="203.2mm" height="76.2mm" viewBox="0 0 203.2 76.2"
     stroke="none"
     fill="#000000"
     stroke-width="0.3"
     font-size="3.88"
>
<g class="plotroot xscalable yscalable" id="fig-cee4d9d55dac4676b647fed7dbbe54d8-element-1">
  <g font-size="3.88" font-family="'PT Sans','Helvetica Neue','Helvetica',sans-serif" fill="#564A55" stroke="none" id="fig-cee4d9d55dac4676b647fed7dbbe54d8-element-2">
    <text x="101.74" y="68.2" text-anchor="middle">Date</text>
  </g>
  <g class="guide xlabels" font-size="2.82" font-family="'PT Sans Caption','Helvetica Neue','Helvetica',sans-serif" fill="#6C606B" id="fig-cee4d9d55dac4676b647fed7dbbe54d8-element-3">
    <text x="23.09" y="62.59" text-anchor="middle">Apr</text>
    <text x="49.02" y="62.59" text-anchor="middle">May</text>
    <text x="75.81" y="62.59" text-anchor="middle">June</text>
    <text x="101.74" y="62.59" text-anchor="middle">July</text>
    <text x="128.54" y="62.59" text-anchor="middle">Aug</text>
    <text x="155.33" y="62.59" text-anchor="middle">Sept</text>
    <text x="181.26" y="62.59" text-anchor="middle">Oct</text>
  </g>
  <g class="guide colorkey" id="fig-cee4d9d55dac4676b647fed7dbbe54d8-element-4">
    <g fill="#4C404B" font-size="2.82" font-family="'PT Sans','Helvetica Neue','Helvetica',sans-serif" id="fig-cee4d9d55dac4676b647fed7dbbe54d8-element-5">
      <text x="187.67" y="30.14" dy="0.35em" id="fig-cee4d9d55dac4676b647fed7dbbe54d8-element-6" class="color_0.2">0.2</text>
      <text x="187.67" y="33.77" dy="0.35em" id="fig-cee4d9d55dac4676b647fed7dbbe54d8-element-7" class="color_0.3">0.3</text>
      <text x="187.67" y="37.4" dy="0.35em" id="fig-cee4d9d55dac4676b647fed7dbbe54d8-element-8" class="color_0.4">0.4</text>
    </g>
    <g stroke="none" id="fig-cee4d9d55dac4676b647fed7dbbe54d8-element-9">
      <rect x="184.85" y="29.24" width="1.81" height="1.81" id="fig-cee4d9d55dac4676b647fed7dbbe54d8-element-10" fill="#00BFFF" class="color_0.2"/>
      <rect x="184.85" y="32.86" width="1.81" height="1.81" id="fig-cee4d9d55dac4676b647fed7dbbe54d8-element-11" fill="#D4CA3A" class="color_0.3"/>
      <rect x="184.85" y="36.49" width="1.81" height="1.81" id="fig-cee4d9d55dac4676b647fed7dbbe54d8-element-12" fill="#FF5EA0" class="color_0.4"/>
    </g>
    <g fill="#362A35" font-size="3.88" font-family="'PT Sans','Helvetica Neue','Helvetica',sans-serif" stroke="none" id="fig-cee4d9d55dac4676b647fed7dbbe54d8-element-13">
      <text x="184.85" y="26.32" id="fig-cee4d9d55dac4676b647fed7dbbe54d8-element-14">Julia ver.</text>
    </g>
  </g>
  <g clip-path="url(#fig-cee4d9d55dac4676b647fed7dbbe54d8-element-16)" id="fig-cee4d9d55dac4676b647fed7dbbe54d8-element-15">
    <g pointer-events="visible" opacity="1" fill="none" stroke="none" class="guide background" id="fig-cee4d9d55dac4676b647fed7dbbe54d8-element-17">
      <rect x="19.63" y="5" width="164.22" height="53.91" id="fig-cee4d9d55dac4676b647fed7dbbe54d8-element-18"/>
    </g>
    <g class="guide ygridlines xfixed" stroke-dasharray="0.5,0.5" stroke-width="0.2" stroke="#D0D0E0" id="fig-cee4d9d55dac4676b647fed7dbbe54d8-element-19">
      <path fill="none" d="M19.63,56.91 L 183.85 56.91" id="fig-cee4d9d55dac4676b647fed7dbbe54d8-element-20"/>
      <path fill="none" d="M19.63,44.44 L 183.85 44.44" id="fig-cee4d9d55dac4676b647fed7dbbe54d8-element-21"/>
      <path fill="none" d="M19.63,31.96 L 183.85 31.96" id="fig-cee4d9d55dac4676b647fed7dbbe54d8-element-22"/>
      <path fill="none" d="M19.63,19.48 L 183.85 19.48" id="fig-cee4d9d55dac4676b647fed7dbbe54d8-element-23"/>
      <path fill="none" d="M19.63,7 L 183.85 7" id="fig-cee4d9d55dac4676b647fed7dbbe54d8-element-24"/>
    </g>
    <g class="guide xgridlines yfixed" stroke-dasharray="0.5,0.5" stroke-width="0.2" stroke="#D0D0E0" id="fig-cee4d9d55dac4676b647fed7dbbe54d8-element-25">
      <path fill="none" d="M23.09,5 L 23.09 58.91" id="fig-cee4d9d55dac4676b647fed7dbbe54d8-element-26"/>
      <path fill="none" d="M49.02,5 L 49.02 58.91" id="fig-cee4d9d55dac4676b647fed7dbbe54d8-element-27"/>
      <path fill="none" d="M75.81,5 L 75.81 58.91" id="fig-cee4d9d55dac4676b647fed7dbbe54d8-element-28"/>
      <path fill="none" d="M101.74,5 L 101.74 58.91" id="fig-cee4d9d55dac4676b647fed7dbbe54d8-element-29"/>
      <path fill="none" d="M128.54,5 L 128.54 58.91" id="fig-cee4d9d55dac4676b647fed7dbbe54d8-element-30"/>
      <path fill="none" d="M155.33,5 L 155.33 58.91" id="fig-cee4d9d55dac4676b647fed7dbbe54d8-element-31"/>
      <path fill="none" d="M181.26,5 L 181.26 58.91" id="fig-cee4d9d55dac4676b647fed7dbbe54d8-element-32"/>
    </g>
    <g class="plotpanel" id="fig-cee4d9d55dac4676b647fed7dbbe54d8-element-33">
      <g stroke-width="0.79" fill="none" class="geometry color_0.4" stroke="#FF5EA0" id="fig-cee4d9d55dac4676b647fed7dbbe54d8-element-34">
        <path fill="none" d="M138.91,28.46 L 139.77 27.71 140.64 27.47 141.5 27.22 142.37 27.22 143.23 27.22 144.96 26.47 145.82 26.47 146.69 26.22 147.55 26.22 148.42 26.22 149.28 25.47 150.15 24.97 151.01 24.97 152.74 24.47 153.6 23.72 155.33 23.22 156.2 23.22 157.06 23.22 160.52 23.22 163.11 21.72 163.97 21.48 164.84 21.23 165.7 20.73 166.57 20.73 167.43 20.73 168.3 18.73 169.16 18.73 170.02 18.73 171.75 18.48 172.62 18.48 173.48 18.23 174.35 18.23 175.21 18.23 176.08 17.98 176.94 17.98 178.67 18.23 179.53 17.98 180.4 17.98 181.26 17.48" id="fig-cee4d9d55dac4676b647fed7dbbe54d8-element-35"/>
      </g>
      <g stroke-width="0.79" fill="none" class="geometry color_0.3" stroke="#D4CA3A" id="fig-cee4d9d55dac4676b647fed7dbbe54d8-element-36">
        <path fill="none" d="M21.36,45.43 L 22.22 45.43 23.09 45.18 23.95 45.18 24.82 45.18 25.68 45.18 26.55 45.18 27.41 44.94 29.14 44.94 30 44.69 31.73 44.44 33.46 43.94 34.33 43.94 36.05 43.94 36.92 43.69 42.97 42.69 45.56 42.69 47.29 42.69 53.34 42.44 54.2 41.94 55.07 41.69 55.93 41.69 56.8 41.69 57.66 41.69 58.53 41.69 59.39 41.69 60.26 41.69 61.12 41.69 61.98 41.69 62.85 40.94 64.58 40.69 65.44 40.69 66.31 40.69 67.17 40.19 68.03 40.19 68.9 40.19 69.76 39.94 70.63 39.94 71.49 39.94 72.36 39.94 73.22 39.94 74.08 39.69 74.95 39.69 75.81 49.68 76.68 39.44 77.54 39.2 78.41 38.95 83.59 37.45 84.46 37.2 85.32 36.95 86.18 36.7 87.05 36.2 87.91 36.2 88.78 35.7 89.64 35.7 90.51 35.45 91.37 35.2 93.1 35.2 93.96 34.7 94.83 34.7 95.69 34.7 96.56 34.7 97.42 34.7 98.29 33.95 99.15 33.95 100.88 33.7 101.74 33.21 102.61 32.96 103.47 32.71 104.34 32.71 105.2 32.21 106.93 31.96 107.79 31.21 108.66 31.21 109.52 31.21 111.25 29.96 112.98 29.21 113.84 29.21 114.71 28.96 115.57 28.96 118.17 28.71 119.03 28.71 119.89 28.46 120.76 28.46 121.62 28.46 122.49 28.21 123.35 27.96 124.22 27.71 125.94 27.71 126.81 27.71 128.54 27.71 129.4 27.47 130.27 26.72 131.13 26.72 132.86 26.47 133.72 26.47 134.59 25.97 135.45 25.72 136.32 25.47 137.18 25.22 138.04 24.97 138.91 24.47 139.77 24.47 140.64 24.22 141.5 23.97 142.37 23.97 143.23 23.97 144.96 23.22 145.82 23.22 146.69 22.97 147.55 22.97 148.42 22.97 149.28 22.22 150.15 21.97 151.01 21.72 152.74 24.72 153.6 23.97 155.33 23.47 156.2 23.47 157.06 23.47 160.52 23.47 163.11 21.97 163.97 21.72 164.84 21.48 165.7 20.98 166.57 20.98 167.43 20.98 168.3 18.98 169.16 18.98 170.02 18.98 171.75 18.98 172.62 18.73 173.48 18.48 174.35 18.48 175.21 18.48 176.08 18.23 176.94 18.23 178.67 18.48 179.53 18.23 180.4 18.23 181.26 17.73" id="fig-cee4d9d55dac4676b647fed7dbbe54d8-element-37"/>
      </g>
      <g stroke-width="0.79" fill="none" class="geometry color_0.2" stroke="#00BFFF" id="fig-cee4d9d55dac4676b647fed7dbbe54d8-element-38">
        <path fill="none" d="M21.36,48.18 L 22.22 48.18 23.09 47.93 23.95 47.93 24.82 47.93 25.68 47.93 26.55 47.93 27.41 47.93 29.14 47.93 30 47.93 31.73 47.68 33.46 47.43 34.33 47.43 36.05 47.18 36.92 46.93 42.97 46.43 45.56 46.43 47.29 46.43 53.34 46.18 54.2 45.93 55.07 45.93 55.93 45.93 56.8 45.93 57.66 45.93 58.53 45.93 59.39 45.93 60.26 45.93 61.12 45.93 61.98 45.18 62.85 45.18 64.58 44.94 65.44 44.94 66.31 44.94 67.17 44.69 68.03 46.68 68.9 45.43 69.76 45.43 70.63 45.43 71.49 45.43 72.36 45.43 73.22 45.43 74.08 45.43 74.95 45.43 75.81 45.18 76.68 45.18 77.54 44.94 78.41 44.94 83.59 43.69 84.46 43.69 85.32 43.44 86.18 43.19 87.05 42.69 87.91 42.69 88.78 42.69 89.64 42.69 90.51 42.69 91.37 42.44 93.1 42.44 93.96 41.94 94.83 41.94 95.69 41.94 96.56 41.94 97.42 41.94 98.29 41.19 99.15 41.19 100.88 40.94 101.74 40.44 102.61 40.19 103.47 39.94 104.34 39.94 105.2 39.94 106.93 39.44 107.79 39.2 108.66 38.95 109.52 38.95 111.25 38.45 112.98 37.95 113.84 37.95 114.71 37.95 115.57 37.95 118.17 37.95 119.03 37.95 119.89 37.7 120.76 37.7 121.62 37.7 122.49 37.45 123.35 37.45 124.22 37.45 125.94 37.2 126.81 37.2 128.54 37.2 129.4 37.2 130.27 36.45 131.13 36.45 132.86 36.95 133.72 36.95 134.59 36.45 135.45 36.2 136.32 36.2 137.18 35.7 138.04 35.7" id="fig-cee4d9d55dac4676b647fed7dbbe54d8-element-39"/>
      </g>
    </g>
  </g>
  <g class="guide ylabels" font-size="2.82" font-family="'PT Sans Caption','Helvetica Neue','Helvetica',sans-serif" fill="#6C606B" id="fig-cee4d9d55dac4676b647fed7dbbe54d8-element-40">
    <text x="18.63" y="56.91" text-anchor="end" dy="0.35em" id="fig-cee4d9d55dac4676b647fed7dbbe54d8-element-41">250</text>
    <text x="18.63" y="44.44" text-anchor="end" dy="0.35em" id="fig-cee4d9d55dac4676b647fed7dbbe54d8-element-42">300</text>
    <text x="18.63" y="31.96" text-anchor="end" dy="0.35em" id="fig-cee4d9d55dac4676b647fed7dbbe54d8-element-43">350</text>
    <text x="18.63" y="19.48" text-anchor="end" dy="0.35em" id="fig-cee4d9d55dac4676b647fed7dbbe54d8-element-44">400</text>
    <text x="18.63" y="7" text-anchor="end" dy="0.35em" id="fig-cee4d9d55dac4676b647fed7dbbe54d8-element-45">450</text>
  </g>
  <g font-size="3.88" font-family="'PT Sans','Helvetica Neue','Helvetica',sans-serif" fill="#564A55" stroke="none" id="fig-cee4d9d55dac4676b647fed7dbbe54d8-element-46">
    <text x="8.81" y="29.96" text-anchor="middle" dy="0.35em" transform="rotate(-90, 8.81, 31.96)" id="fig-cee4d9d55dac4676b647fed7dbbe54d8-element-47">Number of Tagged Packages</text>
  </g>
</g>
<defs>
<clipPath id="fig-cee4d9d55dac4676b647fed7dbbe54d8-element-16">
  <path d="M19.63,5 L 183.85 5 183.85 58.91 19.63 58.91" />
</clipPath
></defs>
</svg>
