<?xml version="1.0" encoding="UTF-8"?>
<svg xmlns="http://www.w3.org/2000/svg"
     xmlns:xlink="http://www.w3.org/1999/xlink"
     xmlns:gadfly="http://www.gadflyjl.org/ns"
     version="1.2"
     width="203.2mm" height="76.2mm" viewBox="0 0 203.2 76.2"
     stroke="none"
     fill="#000000"
     stroke-width="0.3"
     font-size="3.88"
>
<g class="plotroot xscalable yscalable" id="fig-921dc33f3c1642cc82601241049ceaed-element-1">
  <g font-size="3.88" font-family="'PT Sans','Helvetica Neue','Helvetica',sans-serif" fill="#564A55" stroke="none" id="fig-921dc33f3c1642cc82601241049ceaed-element-2">
    <text x="101.74" y="68.2" text-anchor="middle">Date</text>
  </g>
  <g class="guide xlabels" font-size="2.82" font-family="'PT Sans Caption','Helvetica Neue','Helvetica',sans-serif" fill="#6C606B" id="fig-921dc33f3c1642cc82601241049ceaed-element-3">
    <text x="22.64" y="62.59" text-anchor="middle">Apr</text>
    <text x="40.69" y="62.59" text-anchor="middle">May</text>
    <text x="59.33" y="62.59" text-anchor="middle">Jun</text>
    <text x="77.38" y="62.59" text-anchor="middle">Jul</text>
    <text x="96.03" y="62.59" text-anchor="middle">Aug</text>
    <text x="114.68" y="62.59" text-anchor="middle">Sep</text>
    <text x="132.72" y="62.59" text-anchor="middle">Oct</text>
    <text x="151.37" y="62.59" text-anchor="middle">Nov</text>
    <text x="169.42" y="62.59" text-anchor="middle">Dec</text>
  </g>
  <g class="guide colorkey" id="fig-921dc33f3c1642cc82601241049ceaed-element-4">
    <g fill="#4C404B" font-size="2.82" font-family="'PT Sans','Helvetica Neue','Helvetica',sans-serif" id="fig-921dc33f3c1642cc82601241049ceaed-element-5">
      <text x="187.67" y="30.14" dy="0.35em" id="fig-921dc33f3c1642cc82601241049ceaed-element-6" class="color_0.2">0.2</text>
      <text x="187.67" y="33.77" dy="0.35em" id="fig-921dc33f3c1642cc82601241049ceaed-element-7" class="color_0.3">0.3</text>
      <text x="187.67" y="37.4" dy="0.35em" id="fig-921dc33f3c1642cc82601241049ceaed-element-8" class="color_0.4">0.4</text>
    </g>
    <g stroke="none" id="fig-921dc33f3c1642cc82601241049ceaed-element-9">
      <rect x="184.85" y="29.24" width="1.81" height="1.81" id="fig-921dc33f3c1642cc82601241049ceaed-element-10" class="color_0.2" fill="#00BFFF"/>
      <rect x="184.85" y="32.86" width="1.81" height="1.81" id="fig-921dc33f3c1642cc82601241049ceaed-element-11" class="color_0.3" fill="#D4CA3A"/>
      <rect x="184.85" y="36.49" width="1.81" height="1.81" id="fig-921dc33f3c1642cc82601241049ceaed-element-12" class="color_0.4" fill="#FF5EA0"/>
    </g>
    <g fill="#362A35" font-size="3.88" font-family="'PT Sans','Helvetica Neue','Helvetica',sans-serif" stroke="none" id="fig-921dc33f3c1642cc82601241049ceaed-element-13">
      <text x="184.85" y="26.32" id="fig-921dc33f3c1642cc82601241049ceaed-element-14">Julia ver.</text>
    </g>
  </g>
  <g font-size="3.88" font-family="'PT Sans','Helvetica Neue','Helvetica',sans-serif" fill="#564A55" stroke="none" id="fig-921dc33f3c1642cc82601241049ceaed-element-15">
    <text x="8.81" y="29.96" text-anchor="middle" dy="0.35em" transform="rotate(-90, 8.81, 31.96)" id="fig-921dc33f3c1642cc82601241049ceaed-element-16">Number of Tagged Packages</text>
  </g>
  <g clip-path="url(#fig-921dc33f3c1642cc82601241049ceaed-element-18)" id="fig-921dc33f3c1642cc82601241049ceaed-element-17">
    <g pointer-events="visible" opacity="1" fill="none" stroke="none" class="guide background" id="fig-921dc33f3c1642cc82601241049ceaed-element-19">
      <rect x="19.63" y="5" width="164.22" height="53.91" id="fig-921dc33f3c1642cc82601241049ceaed-element-20"/>
    </g>
    <g class="guide ygridlines xfixed" stroke-dasharray="0.5,0.5" stroke-width="0.2" stroke="#D0D0E0" id="fig-921dc33f3c1642cc82601241049ceaed-element-21">
      <path fill="none" d="M19.63,56.92 L 183.85 56.92" id="fig-921dc33f3c1642cc82601241049ceaed-element-22"/>
      <path fill="none" d="M19.63,46.93 L 183.85 46.93" id="fig-921dc33f3c1642cc82601241049ceaed-element-23"/>
      <path fill="none" d="M19.63,36.95 L 183.85 36.95" id="fig-921dc33f3c1642cc82601241049ceaed-element-24"/>
      <path fill="none" d="M19.63,26.97 L 183.85 26.97" id="fig-921dc33f3c1642cc82601241049ceaed-element-25"/>
      <path fill="none" d="M19.63,16.98 L 183.85 16.98" id="fig-921dc33f3c1642cc82601241049ceaed-element-26"/>
      <path fill="none" d="M19.63,7 L 183.85 7" id="fig-921dc33f3c1642cc82601241049ceaed-element-27"/>
    </g>
    <g class="guide xgridlines yfixed" stroke-dasharray="0.5,0.5" stroke-width="0.2" stroke="#D0D0E0" id="fig-921dc33f3c1642cc82601241049ceaed-element-28">
      <path fill="none" d="M22.64,5 L 22.64 58.91" id="fig-921dc33f3c1642cc82601241049ceaed-element-29"/>
      <path fill="none" d="M40.69,5 L 40.69 58.91" id="fig-921dc33f3c1642cc82601241049ceaed-element-30"/>
      <path fill="none" d="M59.33,5 L 59.33 58.91" id="fig-921dc33f3c1642cc82601241049ceaed-element-31"/>
      <path fill="none" d="M77.38,5 L 77.38 58.91" id="fig-921dc33f3c1642cc82601241049ceaed-element-32"/>
      <path fill="none" d="M96.03,5 L 96.03 58.91" id="fig-921dc33f3c1642cc82601241049ceaed-element-33"/>
      <path fill="none" d="M114.68,5 L 114.68 58.91" id="fig-921dc33f3c1642cc82601241049ceaed-element-34"/>
      <path fill="none" d="M132.72,5 L 132.72 58.91" id="fig-921dc33f3c1642cc82601241049ceaed-element-35"/>
      <path fill="none" d="M151.37,5 L 151.37 58.91" id="fig-921dc33f3c1642cc82601241049ceaed-element-36"/>
      <path fill="none" d="M169.42,5 L 169.42 58.91" id="fig-921dc33f3c1642cc82601241049ceaed-element-37"/>
    </g>
    <g class="plotpanel" id="fig-921dc33f3c1642cc82601241049ceaed-element-38">
      <g stroke-width="0.79" fill="none" class="geometry color_0.4" stroke="#FF5EA0" id="fig-921dc33f3c1642cc82601241049ceaed-element-39">
        <path fill="none" d="M103.25,34.15 L 103.85 33.55 104.45 33.36 105.05 33.16 105.65 33.16 106.25 33.16 107.46 32.56 108.06 32.56 108.66 32.36 109.26 32.36 109.86 32.36 110.47 31.76 111.07 31.36 111.67 31.36 112.87 30.96 113.47 30.36 114.68 29.96 115.28 29.96 115.88 29.96 118.29 29.96 120.09 28.76 120.69 28.56 121.29 28.36 121.89 27.96 122.5 27.96 123.1 27.96 123.7 26.37 124.3 26.37 124.9 26.37 126.11 26.17 126.71 26.17 127.31 25.97 127.91 25.97 128.51 25.97 129.11 25.77 129.71 25.77 130.92 25.97 131.52 25.77 132.12 25.77 132.72 25.37 133.32 24.97 133.93 24.97 134.53 24.97 135.13 24.57 136.93 24.17 137.54 24.17 138.14 23.77 138.74 23.57 139.34 23.57 139.94 23.57 140.54 23.17 141.14 23.17 141.75 22.97 142.35 22.77 142.95 22.77 143.55 22.77 144.15 22.77 144.75 22.37 145.36 21.97 145.96 21.97 146.56 21.97 147.16 21.77 147.76 21.77 148.36 21.58 148.96 21.58 149.57 21.18 150.17 20.98 150.77 20.98 151.37 20.78 151.97 20.78 152.57 20.78 153.18 20.78 153.78 20.58 154.38 20.38 156.18 20.38 159.19 19.18 159.79 18.78 160.39 18.78 161 18.58 161.6 18.58 162.2 17.98 162.8 17.98 165.21 16.98 165.81 16.98 168.82 16.78 170.02 16.78 170.62 16.38 171.22 16.18 171.82 16.18 172.42 16.18 173.03 15.79 173.63 15.39 175.43 15.19 176.03 14.99 177.24 14.19 177.84 14.19 178.44 14.19 180.24 14.19 181.45 13.79" id="fig-921dc33f3c1642cc82601241049ceaed-element-40"/>
      </g>
      <g stroke-width="0.79" fill="none" class="geometry color_0.3" stroke="#D4CA3A" id="fig-921dc33f3c1642cc82601241049ceaed-element-41">
        <path fill="none" d="M21.44,47.73 L 22.04 47.73 22.64 47.53 23.24 47.53 23.84 47.53 24.44 47.53 25.05 47.53 25.65 47.33 26.85 47.33 27.45 47.13 28.65 46.93 29.86 46.53 30.46 46.53 31.66 46.53 32.26 46.33 36.47 45.53 38.28 45.53 39.48 45.53 43.69 45.33 44.3 44.94 44.9 44.74 45.5 44.74 46.1 44.74 46.7 44.74 47.3 44.74 47.9 44.74 48.51 44.74 49.11 44.74 49.71 44.74 50.31 44.14 51.51 43.94 52.12 43.94 52.72 43.94 53.32 43.54 53.92 43.54 54.52 43.54 55.12 43.34 55.72 43.34 56.33 43.34 56.93 43.34 57.53 43.34 58.13 43.14 58.73 43.14 59.33 51.12 59.94 42.94 60.54 42.74 61.14 42.54 64.75 41.34 65.35 41.14 65.95 40.94 66.55 40.74 67.15 40.34 67.76 40.34 68.36 39.94 68.96 39.94 69.56 39.74 70.16 39.54 71.36 39.54 71.97 39.15 72.57 39.15 73.17 39.15 73.77 39.15 74.37 39.15 74.97 38.55 75.58 38.55 76.78 38.35 77.38 37.95 77.98 37.75 78.58 37.55 79.18 37.55 79.79 37.15 80.99 36.95 81.59 36.35 82.19 36.35 82.79 36.35 84 35.35 85.2 34.75 85.8 34.75 86.4 34.55 87.01 34.55 88.81 34.35 89.41 34.35 90.01 34.15 90.61 34.15 91.22 34.15 91.82 33.95 92.42 33.75 93.02 33.55 94.22 33.55 94.83 33.55 96.03 33.55 96.63 33.36 97.23 32.76 97.83 32.76 99.04 32.56 99.64 32.56 100.24 32.16 100.84 31.96 101.44 31.76 102.04 31.56 102.65 31.36 103.25 30.96 103.85 30.96 104.45 30.76 105.05 30.56 105.65 30.56 106.25 30.56 107.46 29.96 108.06 29.96 108.66 29.76 109.26 29.76 109.86 29.76 110.47 29.16 111.07 28.96 111.67 28.76 112.87 31.16 113.47 30.56 114.68 30.16 115.28 30.16 115.88 30.16 118.29 30.16 120.09 28.96 120.69 28.76 121.29 28.56 121.89 28.16 122.5 28.16 123.1 28.16 123.7 26.57 124.3 26.57 124.9 26.57 126.11 26.57 126.71 26.37 127.31 26.17 127.91 26.17 128.51 26.17 129.11 25.97 129.71 25.97 130.92 26.17 131.52 25.97 132.12 25.97 132.72 25.57 133.32 21.58 133.93 25.17 134.53 25.17 135.13 24.77 136.93 24.37 137.54 24.37 138.14 23.97 138.74 23.77 139.34 23.77 139.94 23.77 140.54 23.37 141.14 23.37 141.75 23.17 142.35 22.97 142.95 22.97 143.55 22.97 144.15 22.97 144.75 22.77 145.36 22.37 145.96 22.37 146.56 22.37 147.16 22.17 147.76 22.17 148.36 21.97 148.96 21.97 149.57 21.58 150.17 21.38 150.77 21.38 151.37 21.18 151.97 21.18 152.57 21.18 153.18 20.98 153.78 20.98 154.38 20.78 156.18 20.78 159.19 19.78 159.79 19.38 160.39 19.38 161 19.18 161.6 19.18 162.2 18.58 162.8 18.58 165.21 17.58 165.81 17.58 168.82 17.38 170.02 17.38 170.62 17.18 171.22 16.98 171.82 16.98 172.42 16.98 173.03 16.58 173.63 16.38 175.43 15.98 176.03 15.79 177.24 15.19 177.84 14.99 178.44 14.99 180.24 14.99 181.45 14.59" id="fig-921dc33f3c1642cc82601241049ceaed-element-42"/>
      </g>
      <g stroke-width="0.79" fill="none" class="geometry color_0.2" stroke="#00BFFF" id="fig-921dc33f3c1642cc82601241049ceaed-element-43">
        <path fill="none" d="M21.44,49.93 L 22.04 49.93 22.64 49.73 23.24 49.73 23.84 49.73 24.44 49.73 25.05 49.73 25.65 49.73 26.85 49.73 27.45 49.73 28.65 49.53 29.86 49.33 30.46 49.33 31.66 49.13 32.26 48.93 36.47 48.53 38.28 48.53 39.48 48.53 43.69 48.33 44.3 48.13 44.9 48.13 45.5 48.13 46.1 48.13 46.7 48.13 47.3 48.13 47.9 48.13 48.51 48.13 49.11 48.13 49.71 47.53 50.31 47.53 51.51 47.33 52.12 47.33 52.72 47.33 53.32 47.13 53.92 48.73 54.52 47.73 55.12 47.73 55.72 47.73 56.33 47.73 56.93 47.73 57.53 47.73 58.13 47.73 58.73 47.73 59.33 47.53 59.94 47.53 60.54 47.33 61.14 47.33 64.75 46.33 65.35 46.33 65.95 46.13 66.55 45.93 67.15 45.53 67.76 45.53 68.36 45.53 68.96 45.53 69.56 45.53 70.16 45.33 71.36 45.33 71.97 44.94 72.57 44.94 73.17 44.94 73.77 44.94 74.37 44.94 74.97 44.34 75.58 44.34 76.78 44.14 77.38 43.74 77.98 43.54 78.58 43.34 79.18 43.34 79.79 43.34 80.99 42.94 81.59 42.74 82.19 42.54 82.79 42.54 84 42.14 85.2 41.74 85.8 41.74 86.4 41.74 87.01 41.74 88.81 41.74 89.41 41.74 90.01 41.54 90.61 41.54 91.22 41.54 91.82 41.34 92.42 41.34 93.02 41.34 94.22 41.14 94.83 41.14 96.03 41.14 96.63 41.14 97.23 40.54 97.83 40.54 99.04 40.94 99.64 40.94 100.24 40.54 100.84 40.34 101.44 40.34 102.04 39.94 102.65 39.94" id="fig-921dc33f3c1642cc82601241049ceaed-element-44"/>
      </g>
    </g>
  </g>
  <g class="guide ylabels" font-size="2.82" font-family="'PT Sans Caption','Helvetica Neue','Helvetica',sans-serif" fill="#6C606B" id="fig-921dc33f3c1642cc82601241049ceaed-element-45">
    <text x="18.63" y="56.92" text-anchor="end" dy="0.35em" id="fig-921dc33f3c1642cc82601241049ceaed-element-46">250</text>
    <text x="18.63" y="46.93" text-anchor="end" dy="0.35em" id="fig-921dc33f3c1642cc82601241049ceaed-element-47">300</text>
    <text x="18.63" y="36.95" text-anchor="end" dy="0.35em" id="fig-921dc33f3c1642cc82601241049ceaed-element-48">350</text>
    <text x="18.63" y="26.97" text-anchor="end" dy="0.35em" id="fig-921dc33f3c1642cc82601241049ceaed-element-49">400</text>
    <text x="18.63" y="16.98" text-anchor="end" dy="0.35em" id="fig-921dc33f3c1642cc82601241049ceaed-element-50">450</text>
    <text x="18.63" y="7" text-anchor="end" dy="0.35em" id="fig-921dc33f3c1642cc82601241049ceaed-element-51">500</text>
  </g>
</g>
<defs>
<clipPath id="fig-921dc33f3c1642cc82601241049ceaed-element-18">
  <path d="M19.63,5 L 183.85 5 183.85 58.91 19.63 58.91" />
</clipPath
></defs>
</svg>
