<?xml version="1.0" encoding="UTF-8"?>
<svg xmlns="http://www.w3.org/2000/svg"
     xmlns:xlink="http://www.w3.org/1999/xlink"
     xmlns:gadfly="http://www.gadflyjl.org/ns"
     version="1.2"
     width="203.2mm" height="76.2mm" viewBox="0 0 203.2 76.2"
     stroke="none"
     fill="#000000"
     stroke-width="0.3"
     font-size="3.88"
>
<g class="plotroot xscalable yscalable" id="fig-594487a04412404b993c815324ebe4db-element-1">
  <g font-size="3.88" font-family="'PT Sans','Helvetica Neue','Helvetica',sans-serif" fill="#564A55" stroke="none" id="fig-594487a04412404b993c815324ebe4db-element-2">
    <text x="101.74" y="68.2" text-anchor="middle">Date</text>
  </g>
  <g class="guide xlabels" font-size="2.82" font-family="'PT Sans Caption','Helvetica Neue','Helvetica',sans-serif" fill="#6C606B" id="fig-594487a04412404b993c815324ebe4db-element-3">
    <text x="23.01" y="62.59" text-anchor="middle">Apr</text>
    <text x="39.88" y="62.59" text-anchor="middle">May</text>
    <text x="57.31" y="62.59" text-anchor="middle">Jun</text>
    <text x="74.19" y="62.59" text-anchor="middle">Jul</text>
    <text x="91.62" y="62.59" text-anchor="middle">Aug</text>
    <text x="109.05" y="62.59" text-anchor="middle">Sep</text>
    <text x="125.93" y="62.59" text-anchor="middle">Oct</text>
    <text x="143.36" y="62.59" text-anchor="middle">Nov</text>
    <text x="160.23" y="62.59" text-anchor="middle">Dec</text>
    <text x="177.67" y="62.59" text-anchor="middle">Jan 2015</text>
  </g>
  <g class="guide colorkey" id="fig-594487a04412404b993c815324ebe4db-element-4">
    <g fill="#4C404B" font-size="2.82" font-family="'PT Sans','Helvetica Neue','Helvetica',sans-serif" id="fig-594487a04412404b993c815324ebe4db-element-5">
      <text x="187.67" y="30.14" dy="0.35em" id="fig-594487a04412404b993c815324ebe4db-element-6" class="color_0.2">0.2</text>
      <text x="187.67" y="33.77" dy="0.35em" id="fig-594487a04412404b993c815324ebe4db-element-7" class="color_0.3">0.3</text>
      <text x="187.67" y="37.4" dy="0.35em" id="fig-594487a04412404b993c815324ebe4db-element-8" class="color_0.4">0.4</text>
    </g>
    <g stroke="none" id="fig-594487a04412404b993c815324ebe4db-element-9">
      <rect x="184.85" y="29.24" width="1.81" height="1.81" id="fig-594487a04412404b993c815324ebe4db-element-10" class="color_0.2" fill="#00BFFF"/>
      <rect x="184.85" y="32.86" width="1.81" height="1.81" id="fig-594487a04412404b993c815324ebe4db-element-11" class="color_0.3" fill="#D4CA3A"/>
      <rect x="184.85" y="36.49" width="1.81" height="1.81" id="fig-594487a04412404b993c815324ebe4db-element-12" class="color_0.4" fill="#FF5EA0"/>
    </g>
    <g fill="#362A35" font-size="3.88" font-family="'PT Sans','Helvetica Neue','Helvetica',sans-serif" stroke="none" id="fig-594487a04412404b993c815324ebe4db-element-13">
      <text x="184.85" y="26.32" id="fig-594487a04412404b993c815324ebe4db-element-14">Julia ver.</text>
    </g>
  </g>
  <g font-size="3.88" font-family="'PT Sans','Helvetica Neue','Helvetica',sans-serif" fill="#564A55" stroke="none" id="fig-594487a04412404b993c815324ebe4db-element-15">
    <text x="8.81" y="29.96" text-anchor="middle" dy="0.35em" transform="rotate(-90, 8.81, 31.96)" id="fig-594487a04412404b993c815324ebe4db-element-16">Number of Tagged Packages</text>
  </g>
  <g clip-path="url(#fig-594487a04412404b993c815324ebe4db-element-18)" id="fig-594487a04412404b993c815324ebe4db-element-17">
    <g pointer-events="visible" opacity="1" fill="none" stroke="none" class="guide background" id="fig-594487a04412404b993c815324ebe4db-element-19">
      <rect x="19.63" y="5" width="164.22" height="53.91" id="fig-594487a04412404b993c815324ebe4db-element-20"/>
    </g>
    <g class="guide ygridlines xfixed" stroke-dasharray="0.5,0.5" stroke-width="0.2" stroke="#D0D0E0" id="fig-594487a04412404b993c815324ebe4db-element-21">
      <path fill="none" d="M19.63,56.91 L 183.85 56.91" id="fig-594487a04412404b993c815324ebe4db-element-22"/>
      <path fill="none" d="M19.63,46.93 L 183.85 46.93" id="fig-594487a04412404b993c815324ebe4db-element-23"/>
      <path fill="none" d="M19.63,36.95 L 183.85 36.95" id="fig-594487a04412404b993c815324ebe4db-element-24"/>
      <path fill="none" d="M19.63,26.97 L 183.85 26.97" id="fig-594487a04412404b993c815324ebe4db-element-25"/>
      <path fill="none" d="M19.63,16.98 L 183.85 16.98" id="fig-594487a04412404b993c815324ebe4db-element-26"/>
      <path fill="none" d="M19.63,7 L 183.85 7" id="fig-594487a04412404b993c815324ebe4db-element-27"/>
    </g>
    <g class="guide xgridlines yfixed" stroke-dasharray="0.5,0.5" stroke-width="0.2" stroke="#D0D0E0" id="fig-594487a04412404b993c815324ebe4db-element-28">
      <path fill="none" d="M23.01,5 L 23.01 58.91" id="fig-594487a04412404b993c815324ebe4db-element-29"/>
      <path fill="none" d="M39.88,5 L 39.88 58.91" id="fig-594487a04412404b993c815324ebe4db-element-30"/>
      <path fill="none" d="M57.31,5 L 57.31 58.91" id="fig-594487a04412404b993c815324ebe4db-element-31"/>
      <path fill="none" d="M74.19,5 L 74.19 58.91" id="fig-594487a04412404b993c815324ebe4db-element-32"/>
      <path fill="none" d="M91.62,5 L 91.62 58.91" id="fig-594487a04412404b993c815324ebe4db-element-33"/>
      <path fill="none" d="M109.05,5 L 109.05 58.91" id="fig-594487a04412404b993c815324ebe4db-element-34"/>
      <path fill="none" d="M125.93,5 L 125.93 58.91" id="fig-594487a04412404b993c815324ebe4db-element-35"/>
      <path fill="none" d="M143.36,5 L 143.36 58.91" id="fig-594487a04412404b993c815324ebe4db-element-36"/>
      <path fill="none" d="M160.23,5 L 160.23 58.91" id="fig-594487a04412404b993c815324ebe4db-element-37"/>
      <path fill="none" d="M177.67,5 L 177.67 58.91" id="fig-594487a04412404b993c815324ebe4db-element-38"/>
    </g>
    <g class="plotpanel" id="fig-594487a04412404b993c815324ebe4db-element-39">
      <g stroke-width="0.79" fill="none" class="geometry color_0.4" stroke="#FF5EA0" id="fig-594487a04412404b993c815324ebe4db-element-40">
        <path fill="none" d="M98.37,34.15 L 98.93 33.55 99.49 33.36 100.06 33.16 100.62 33.16 101.18 33.16 102.31 32.56 102.87 32.56 103.43 32.36 103.99 32.36 104.55 32.36 105.12 31.76 105.68 31.36 106.24 31.36 107.37 30.96 107.93 30.36 109.05 29.96 109.62 29.96 110.18 29.96 112.43 29.96 114.12 28.76 114.68 28.56 115.24 28.36 115.8 27.96 116.37 27.96 116.93 27.96 117.49 26.37 118.05 26.37 118.62 26.37 119.74 26.17 120.3 26.17 120.86 25.97 121.43 25.97 121.99 25.97 122.55 25.77 123.11 25.77 124.24 25.97 124.8 25.77 125.36 25.77 125.93 25.37 126.49 24.97 127.05 24.97 127.61 24.97 128.18 24.57 129.86 24.17 130.43 24.17 130.99 23.77 131.55 23.57 132.11 23.57 132.68 23.57 133.24 23.17 133.8 23.17 134.36 22.97 134.92 22.77 135.49 22.77 136.05 22.77 136.61 22.77 137.17 22.37 137.74 21.97 138.3 21.97 138.86 21.97 139.42 21.77 139.99 21.77 140.55 21.58 141.11 21.58 141.67 21.18 142.24 20.98 142.8 20.98 143.36 20.78 143.92 20.78 144.49 20.78 145.05 20.78 145.61 20.58 146.17 20.38 147.86 20.38 150.67 19.18 151.23 18.78 151.8 18.78 152.36 18.58 152.92 18.58 153.48 17.98 154.05 17.98 156.3 16.98 156.86 16.98 159.67 16.78 160.8 16.78 161.36 16.38 161.92 16.18 162.48 16.18 163.05 16.18 163.61 15.79 164.17 15.39 165.86 15.19 166.42 14.99 167.54 14.19 168.11 14.19 168.67 14.19 170.36 14.19 171.48 13.79 173.17 13.39 175.42 12.99 176.54 12.19 178.23 11.79 182.17 10.39" id="fig-594487a04412404b993c815324ebe4db-element-41"/>
      </g>
      <g stroke-width="0.79" fill="none" class="geometry color_0.3" stroke="#D4CA3A" id="fig-594487a04412404b993c815324ebe4db-element-42">
        <path fill="none" d="M21.88,47.73 L 22.44 47.73 23.01 47.53 23.57 47.53 24.13 47.53 24.69 47.53 25.26 47.53 25.82 47.33 26.94 47.33 27.51 47.13 28.63 46.93 29.75 46.53 30.32 46.53 31.44 46.53 32 46.33 35.94 45.53 37.63 45.53 38.75 45.53 42.69 45.33 43.25 44.94 43.82 44.74 44.38 44.74 44.94 44.74 45.5 44.74 46.06 44.74 46.63 44.74 47.19 44.74 47.75 44.74 48.31 44.74 48.88 44.14 50 43.94 50.56 43.94 51.13 43.94 51.69 43.54 52.25 43.54 52.81 43.54 53.38 43.34 53.94 43.34 54.5 43.34 55.06 43.34 55.63 43.34 56.19 43.14 56.75 43.14 57.31 51.12 57.88 42.94 58.44 42.74 59 42.54 62.37 41.34 62.94 41.14 63.5 40.94 64.06 40.74 64.62 40.34 65.19 40.34 65.75 39.94 66.31 39.94 66.87 39.74 67.44 39.54 68.56 39.54 69.12 39.15 69.69 39.15 70.25 39.15 70.81 39.15 71.37 39.15 71.94 38.55 72.5 38.55 73.62 38.35 74.19 37.95 74.75 37.75 75.31 37.55 75.87 37.55 76.43 37.15 77.56 36.95 78.12 36.35 78.68 36.35 79.25 36.35 80.37 35.35 81.5 34.75 82.06 34.75 82.62 34.55 83.18 34.55 84.87 34.35 85.43 34.35 86 34.15 86.56 34.15 87.12 34.15 87.68 33.95 88.25 33.75 88.81 33.55 89.93 33.55 90.49 33.55 91.62 33.55 92.18 33.36 92.74 32.76 93.31 32.76 94.43 32.56 94.99 32.56 95.56 32.16 96.12 31.96 96.68 31.76 97.24 31.56 97.81 31.36 98.37 30.96 98.93 30.96 99.49 30.76 100.06 30.56 100.62 30.56 101.18 30.56 102.31 29.96 102.87 29.96 103.43 29.76 103.99 29.76 104.55 29.76 105.12 29.16 105.68 28.96 106.24 28.76 107.37 31.16 107.93 30.56 109.05 30.16 109.62 30.16 110.18 30.16 112.43 30.16 114.12 28.96 114.68 28.76 115.24 28.56 115.8 28.16 116.37 28.16 116.93 28.16 117.49 26.57 118.05 26.57 118.62 26.57 119.74 26.57 120.3 26.37 120.86 26.17 121.43 26.17 121.99 26.17 122.55 25.97 123.11 25.97 124.24 26.17 124.8 25.97 125.36 25.97 125.93 25.57 126.49 21.58 127.05 25.17 127.61 25.17 128.18 24.77 129.86 24.37 130.43 24.37 130.99 23.97 131.55 23.77 132.11 23.77 132.68 23.77 133.24 23.37 133.8 23.37 134.36 23.17 134.92 22.97 135.49 22.97 136.05 22.97 136.61 22.97 137.17 22.77 137.74 22.37 138.3 22.37 138.86 22.37 139.42 22.17 139.99 22.17 140.55 21.97 141.11 21.97 141.67 21.58 142.24 21.38 142.8 21.38 143.36 21.18 143.92 21.18 144.49 21.18 145.05 20.98 145.61 20.98 146.17 20.78 147.86 20.78 150.67 19.78 151.23 19.38 151.8 19.38 152.36 19.18 152.92 19.18 153.48 18.58 154.05 18.58 156.3 17.58 156.86 17.58 159.67 17.38 160.8 17.38 161.36 17.18 161.92 16.98 162.48 16.98 163.05 16.98 163.61 16.58 164.17 16.38 165.86 15.98 166.42 15.79 167.54 15.19 168.11 14.99 168.67 14.99 170.36 14.99 171.48 14.59 173.17 14.19 175.42 13.79 176.54 13.19 178.23 12.39 182.17 11.19" id="fig-594487a04412404b993c815324ebe4db-element-43"/>
      </g>
      <g stroke-width="0.79" fill="none" class="geometry color_0.2" stroke="#00BFFF" id="fig-594487a04412404b993c815324ebe4db-element-44">
        <path fill="none" d="M21.88,49.93 L 22.44 49.93 23.01 49.73 23.57 49.73 24.13 49.73 24.69 49.73 25.26 49.73 25.82 49.73 26.94 49.73 27.51 49.73 28.63 49.53 29.75 49.33 30.32 49.33 31.44 49.13 32 48.93 35.94 48.53 37.63 48.53 38.75 48.53 42.69 48.33 43.25 48.13 43.82 48.13 44.38 48.13 44.94 48.13 45.5 48.13 46.06 48.13 46.63 48.13 47.19 48.13 47.75 48.13 48.31 47.53 48.88 47.53 50 47.33 50.56 47.33 51.13 47.33 51.69 47.13 52.25 48.73 52.81 47.73 53.38 47.73 53.94 47.73 54.5 47.73 55.06 47.73 55.63 47.73 56.19 47.73 56.75 47.73 57.31 47.53 57.88 47.53 58.44 47.33 59 47.33 62.37 46.33 62.94 46.33 63.5 46.13 64.06 45.93 64.62 45.53 65.19 45.53 65.75 45.53 66.31 45.53 66.87 45.53 67.44 45.33 68.56 45.33 69.12 44.94 69.69 44.94 70.25 44.94 70.81 44.94 71.37 44.94 71.94 44.34 72.5 44.34 73.62 44.14 74.19 43.74 74.75 43.54 75.31 43.34 75.87 43.34 76.43 43.34 77.56 42.94 78.12 42.74 78.68 42.54 79.25 42.54 80.37 42.14 81.5 41.74 82.06 41.74 82.62 41.74 83.18 41.74 84.87 41.74 85.43 41.74 86 41.54 86.56 41.54 87.12 41.54 87.68 41.34 88.25 41.34 88.81 41.34 89.93 41.14 90.49 41.14 91.62 41.14 92.18 41.14 92.74 40.54 93.31 40.54 94.43 40.94 94.99 40.94 95.56 40.54 96.12 40.34 96.68 40.34 97.24 39.94 97.81 39.94" id="fig-594487a04412404b993c815324ebe4db-element-45"/>
      </g>
    </g>
  </g>
  <g class="guide ylabels" font-size="2.82" font-family="'PT Sans Caption','Helvetica Neue','Helvetica',sans-serif" fill="#6C606B" id="fig-594487a04412404b993c815324ebe4db-element-46">
    <text x="18.63" y="56.91" text-anchor="end" dy="0.35em" id="fig-594487a04412404b993c815324ebe4db-element-47">250</text>
    <text x="18.63" y="46.93" text-anchor="end" dy="0.35em" id="fig-594487a04412404b993c815324ebe4db-element-48">300</text>
    <text x="18.63" y="36.95" text-anchor="end" dy="0.35em" id="fig-594487a04412404b993c815324ebe4db-element-49">350</text>
    <text x="18.63" y="26.97" text-anchor="end" dy="0.35em" id="fig-594487a04412404b993c815324ebe4db-element-50">400</text>
    <text x="18.63" y="16.98" text-anchor="end" dy="0.35em" id="fig-594487a04412404b993c815324ebe4db-element-51">450</text>
    <text x="18.63" y="7" text-anchor="end" dy="0.35em" id="fig-594487a04412404b993c815324ebe4db-element-52">500</text>
  </g>
</g>
<defs>
<clipPath id="fig-594487a04412404b993c815324ebe4db-element-18">
  <path d="M19.63,5 L 183.85 5 183.85 58.91 19.63 58.91" />
</clipPath
></defs>
</svg>
