<?xml version="1.0" encoding="UTF-8"?>
<svg xmlns="http://www.w3.org/2000/svg"
     xmlns:xlink="http://www.w3.org/1999/xlink"
     xmlns:gadfly="http://www.gadflyjl.org/ns"
     version="1.2"
     width="203.2mm" height="76.2mm" viewBox="0 0 203.2 76.2"
     stroke="none"
     fill="#000000"
     stroke-width="0.3"
     font-size="3.88"
>
<g class="plotroot xscalable yscalable" id="fig-5eb356850c554588929b42e341a15928-element-1">
  <g font-size="3.88" font-family="'PT Sans','Helvetica Neue','Helvetica',sans-serif" fill="#564A55" stroke="none" id="fig-5eb356850c554588929b42e341a15928-element-2">
    <text x="101.74" y="68.2" text-anchor="middle">Date</text>
  </g>
  <g class="guide xlabels" font-size="2.82" font-family="'PT Sans Caption','Helvetica Neue','Helvetica',sans-serif" fill="#6C606B" id="fig-5eb356850c554588929b42e341a15928-element-3">
    <text x="22.86" y="62.59" text-anchor="middle">Apr</text>
    <text x="39.02" y="62.59" text-anchor="middle">May</text>
    <text x="55.71" y="62.59" text-anchor="middle">Jun</text>
    <text x="71.86" y="62.59" text-anchor="middle">Jul</text>
    <text x="88.55" y="62.59" text-anchor="middle">Aug</text>
    <text x="105.24" y="62.59" text-anchor="middle">Sep</text>
    <text x="121.4" y="62.59" text-anchor="middle">Oct</text>
    <text x="138.09" y="62.59" text-anchor="middle">Nov</text>
    <text x="154.24" y="62.59" text-anchor="middle">Dec</text>
    <text x="170.93" y="62.59" text-anchor="middle">Jan 2015</text>
  </g>
  <g class="guide colorkey" id="fig-5eb356850c554588929b42e341a15928-element-4">
    <g fill="#4C404B" font-size="2.82" font-family="'PT Sans','Helvetica Neue','Helvetica',sans-serif" id="fig-5eb356850c554588929b42e341a15928-element-5">
      <text x="187.67" y="30.14" dy="0.35em" id="fig-5eb356850c554588929b42e341a15928-element-6" class="color_0.2">0.2</text>
      <text x="187.67" y="33.77" dy="0.35em" id="fig-5eb356850c554588929b42e341a15928-element-7" class="color_0.3">0.3</text>
      <text x="187.67" y="37.4" dy="0.35em" id="fig-5eb356850c554588929b42e341a15928-element-8" class="color_0.4">0.4</text>
    </g>
    <g stroke="none" id="fig-5eb356850c554588929b42e341a15928-element-9">
      <rect x="184.85" y="29.24" width="1.81" height="1.81" id="fig-5eb356850c554588929b42e341a15928-element-10" class="color_0.2" fill="#00BFFF"/>
      <rect x="184.85" y="32.86" width="1.81" height="1.81" id="fig-5eb356850c554588929b42e341a15928-element-11" class="color_0.3" fill="#D4CA3A"/>
      <rect x="184.85" y="36.49" width="1.81" height="1.81" id="fig-5eb356850c554588929b42e341a15928-element-12" class="color_0.4" fill="#FF5EA0"/>
    </g>
    <g fill="#362A35" font-size="3.88" font-family="'PT Sans','Helvetica Neue','Helvetica',sans-serif" stroke="none" id="fig-5eb356850c554588929b42e341a15928-element-13">
      <text x="184.85" y="26.32" id="fig-5eb356850c554588929b42e341a15928-element-14">Julia ver.</text>
    </g>
  </g>
  <g font-size="3.88" font-family="'PT Sans','Helvetica Neue','Helvetica',sans-serif" fill="#564A55" stroke="none" id="fig-5eb356850c554588929b42e341a15928-element-15">
    <text x="8.81" y="29.96" text-anchor="middle" dy="0.35em" transform="rotate(-90, 8.81, 31.96)" id="fig-5eb356850c554588929b42e341a15928-element-16">Number of Tagged Packages</text>
  </g>
  <g clip-path="url(#fig-5eb356850c554588929b42e341a15928-element-18)" id="fig-5eb356850c554588929b42e341a15928-element-17">
    <g pointer-events="visible" opacity="1" fill="none" stroke="none" class="guide background" id="fig-5eb356850c554588929b42e341a15928-element-19">
      <rect x="19.63" y="5" width="164.22" height="53.91" id="fig-5eb356850c554588929b42e341a15928-element-20"/>
    </g>
    <g class="guide ygridlines xfixed" stroke-dasharray="0.5,0.5" stroke-width="0.2" stroke="#D0D0E0" id="fig-5eb356850c554588929b42e341a15928-element-21">
      <path fill="none" d="M19.63,56.91 L 183.85 56.91" id="fig-5eb356850c554588929b42e341a15928-element-22"/>
      <path fill="none" d="M19.63,46.93 L 183.85 46.93" id="fig-5eb356850c554588929b42e341a15928-element-23"/>
      <path fill="none" d="M19.63,36.95 L 183.85 36.95" id="fig-5eb356850c554588929b42e341a15928-element-24"/>
      <path fill="none" d="M19.63,26.97 L 183.85 26.97" id="fig-5eb356850c554588929b42e341a15928-element-25"/>
      <path fill="none" d="M19.63,16.98 L 183.85 16.98" id="fig-5eb356850c554588929b42e341a15928-element-26"/>
      <path fill="none" d="M19.63,7 L 183.85 7" id="fig-5eb356850c554588929b42e341a15928-element-27"/>
    </g>
    <g class="guide xgridlines yfixed" stroke-dasharray="0.5,0.5" stroke-width="0.2" stroke="#D0D0E0" id="fig-5eb356850c554588929b42e341a15928-element-28">
      <path fill="none" d="M22.86,5 L 22.86 58.91" id="fig-5eb356850c554588929b42e341a15928-element-29"/>
      <path fill="none" d="M39.02,5 L 39.02 58.91" id="fig-5eb356850c554588929b42e341a15928-element-30"/>
      <path fill="none" d="M55.71,5 L 55.71 58.91" id="fig-5eb356850c554588929b42e341a15928-element-31"/>
      <path fill="none" d="M71.86,5 L 71.86 58.91" id="fig-5eb356850c554588929b42e341a15928-element-32"/>
      <path fill="none" d="M88.55,5 L 88.55 58.91" id="fig-5eb356850c554588929b42e341a15928-element-33"/>
      <path fill="none" d="M105.24,5 L 105.24 58.91" id="fig-5eb356850c554588929b42e341a15928-element-34"/>
      <path fill="none" d="M121.4,5 L 121.4 58.91" id="fig-5eb356850c554588929b42e341a15928-element-35"/>
      <path fill="none" d="M138.09,5 L 138.09 58.91" id="fig-5eb356850c554588929b42e341a15928-element-36"/>
      <path fill="none" d="M154.24,5 L 154.24 58.91" id="fig-5eb356850c554588929b42e341a15928-element-37"/>
      <path fill="none" d="M170.93,5 L 170.93 58.91" id="fig-5eb356850c554588929b42e341a15928-element-38"/>
    </g>
    <g class="plotpanel" id="fig-5eb356850c554588929b42e341a15928-element-39">
      <g stroke-width="0.79" fill="none" class="geometry color_0.4" stroke="#FF5EA0" id="fig-5eb356850c554588929b42e341a15928-element-40">
        <path fill="none" d="M95.01,34.15 L 95.55 33.55 96.09 33.36 96.63 33.16 97.17 33.16 97.7 33.16 98.78 32.56 99.32 32.56 99.86 32.36 100.4 32.36 100.94 32.36 101.47 31.76 102.01 31.36 102.55 31.36 103.63 30.96 104.17 30.36 105.24 29.96 105.78 29.96 106.32 29.96 108.47 29.96 110.09 28.76 110.63 28.56 111.17 28.36 111.7 27.96 112.24 27.96 112.78 27.96 113.32 26.37 113.86 26.37 114.4 26.37 115.47 26.17 116.01 26.17 116.55 25.97 117.09 25.97 117.63 25.97 118.17 25.77 118.7 25.77 119.78 25.97 120.32 25.77 120.86 25.77 121.4 25.37 121.93 24.97 122.47 24.97 123.01 24.97 123.55 24.57 125.16 24.17 125.7 24.17 126.24 23.77 126.78 23.57 127.32 23.57 127.86 23.57 128.4 23.17 128.93 23.17 129.47 22.97 130.01 22.77 130.55 22.77 131.09 22.77 131.63 22.77 132.16 22.37 132.7 21.97 133.24 21.97 133.78 21.97 134.32 21.77 134.86 21.77 135.4 21.58 135.93 21.58 136.47 21.18 137.01 20.98 137.55 20.98 138.09 20.78 138.63 20.78 139.16 20.78 139.7 20.78 140.24 20.58 140.78 20.38 142.39 20.38 145.09 19.18 145.63 18.78 146.16 18.78 146.7 18.58 147.24 18.58 147.78 17.98 148.32 17.98 150.47 16.98 151.01 16.98 153.7 16.78 154.78 16.78 155.32 16.38 155.86 16.18 156.39 16.18 156.93 16.18 157.47 15.79 158.01 15.39 159.62 15.19 160.16 14.99 161.24 14.19 161.78 14.19 162.32 14.19 163.93 14.19 165.01 13.79 166.62 13.39 168.78 12.99 169.85 12.19 171.47 11.79 175.24 10.39 177.39 9 177.93 8.6 178.47 8.6 179.01 7.4 179.55 7.4 180.09 7.4 181.16 7.2 181.7 7 182.24 7" id="fig-5eb356850c554588929b42e341a15928-element-41"/>
      </g>
      <g stroke-width="0.79" fill="none" class="geometry color_0.3" stroke="#D4CA3A" id="fig-5eb356850c554588929b42e341a15928-element-42">
        <path fill="none" d="M21.79,47.73 L 22.32 47.73 22.86 47.53 23.4 47.53 23.94 47.53 24.48 47.53 25.02 47.53 25.55 47.33 26.63 47.33 27.17 47.13 28.25 46.93 29.32 46.53 29.86 46.53 30.94 46.53 31.48 46.33 35.25 45.53 36.86 45.53 37.94 45.53 41.71 45.33 42.25 44.94 42.78 44.74 43.32 44.74 43.86 44.74 44.4 44.74 44.94 44.74 45.48 44.74 46.01 44.74 46.55 44.74 47.09 44.74 47.63 44.14 48.71 43.94 49.25 43.94 49.78 43.94 50.32 43.54 50.86 43.54 51.4 43.54 51.94 43.34 52.48 43.34 53.01 43.34 53.55 43.34 54.09 43.34 54.63 43.14 55.17 43.14 55.71 51.12 56.25 42.94 56.78 42.74 57.32 42.54 60.55 41.34 61.09 41.14 61.63 40.94 62.17 40.74 62.71 40.34 63.24 40.34 63.78 39.94 64.32 39.94 64.86 39.74 65.4 39.54 66.48 39.54 67.01 39.15 67.55 39.15 68.09 39.15 68.63 39.15 69.17 39.15 69.71 38.55 70.24 38.55 71.32 38.35 71.86 37.95 72.4 37.75 72.94 37.55 73.48 37.55 74.01 37.15 75.09 36.95 75.63 36.35 76.17 36.35 76.71 36.35 77.78 35.35 78.86 34.75 79.4 34.75 79.94 34.55 80.47 34.55 82.09 34.35 82.63 34.35 83.17 34.15 83.71 34.15 84.24 34.15 84.78 33.95 85.32 33.75 85.86 33.55 86.94 33.55 87.47 33.55 88.55 33.55 89.09 33.36 89.63 32.76 90.17 32.76 91.24 32.56 91.78 32.56 92.32 32.16 92.86 31.96 93.4 31.76 93.94 31.56 94.47 31.36 95.01 30.96 95.55 30.96 96.09 30.76 96.63 30.56 97.17 30.56 97.7 30.56 98.78 29.96 99.32 29.96 99.86 29.76 100.4 29.76 100.94 29.76 101.47 29.16 102.01 28.96 102.55 28.76 103.63 31.16 104.17 30.56 105.24 30.16 105.78 30.16 106.32 30.16 108.47 30.16 110.09 28.96 110.63 28.76 111.17 28.56 111.7 28.16 112.24 28.16 112.78 28.16 113.32 26.57 113.86 26.57 114.4 26.57 115.47 26.57 116.01 26.37 116.55 26.17 117.09 26.17 117.63 26.17 118.17 25.97 118.7 25.97 119.78 26.17 120.32 25.97 120.86 25.97 121.4 25.57 121.93 21.58 122.47 25.17 123.01 25.17 123.55 24.77 125.16 24.37 125.7 24.37 126.24 23.97 126.78 23.77 127.32 23.77 127.86 23.77 128.4 23.37 128.93 23.37 129.47 23.17 130.01 22.97 130.55 22.97 131.09 22.97 131.63 22.97 132.16 22.77 132.7 22.37 133.24 22.37 133.78 22.37 134.32 22.17 134.86 22.17 135.4 21.97 135.93 21.97 136.47 21.58 137.01 21.38 137.55 21.38 138.09 21.18 138.63 21.18 139.16 21.18 139.7 20.98 140.24 20.98 140.78 20.78 142.39 20.78 145.09 19.78 145.63 19.38 146.16 19.38 146.7 19.18 147.24 19.18 147.78 18.58 148.32 18.58 150.47 17.58 151.01 17.58 153.7 17.38 154.78 17.38 155.32 17.18 155.86 16.98 156.39 16.98 156.93 16.98 157.47 16.58 158.01 16.38 159.62 15.98 160.16 15.79 161.24 15.19 161.78 14.99 162.32 14.99 163.93 14.99 165.01 14.59 166.62 14.19 168.78 13.79 169.85 13.19 171.47 12.39 175.24 11.19 177.39 9.8 177.93 9.4 178.47 9.4 179.01 8.4 179.55 8.4 180.09 8.4 181.16 8.4 181.7 8 182.24 8" id="fig-5eb356850c554588929b42e341a15928-element-43"/>
      </g>
      <g stroke-width="0.79" fill="none" class="geometry color_0.2" stroke="#00BFFF" id="fig-5eb356850c554588929b42e341a15928-element-44">
        <path fill="none" d="M21.79,49.93 L 22.32 49.93 22.86 49.73 23.4 49.73 23.94 49.73 24.48 49.73 25.02 49.73 25.55 49.73 26.63 49.73 27.17 49.73 28.25 49.53 29.32 49.33 29.86 49.33 30.94 49.13 31.48 48.93 35.25 48.53 36.86 48.53 37.94 48.53 41.71 48.33 42.25 48.13 42.78 48.13 43.32 48.13 43.86 48.13 44.4 48.13 44.94 48.13 45.48 48.13 46.01 48.13 46.55 48.13 47.09 47.53 47.63 47.53 48.71 47.33 49.25 47.33 49.78 47.33 50.32 47.13 50.86 48.73 51.4 47.73 51.94 47.73 52.48 47.73 53.01 47.73 53.55 47.73 54.09 47.73 54.63 47.73 55.17 47.73 55.71 47.53 56.25 47.53 56.78 47.33 57.32 47.33 60.55 46.33 61.09 46.33 61.63 46.13 62.17 45.93 62.71 45.53 63.24 45.53 63.78 45.53 64.32 45.53 64.86 45.53 65.4 45.33 66.48 45.33 67.01 44.94 67.55 44.94 68.09 44.94 68.63 44.94 69.17 44.94 69.71 44.34 70.24 44.34 71.32 44.14 71.86 43.74 72.4 43.54 72.94 43.34 73.48 43.34 74.01 43.34 75.09 42.94 75.63 42.74 76.17 42.54 76.71 42.54 77.78 42.14 78.86 41.74 79.4 41.74 79.94 41.74 80.47 41.74 82.09 41.74 82.63 41.74 83.17 41.54 83.71 41.54 84.24 41.54 84.78 41.34 85.32 41.34 85.86 41.34 86.94 41.14 87.47 41.14 88.55 41.14 89.09 41.14 89.63 40.54 90.17 40.54 91.24 40.94 91.78 40.94 92.32 40.54 92.86 40.34 93.4 40.34 93.94 39.94 94.47 39.94" id="fig-5eb356850c554588929b42e341a15928-element-45"/>
      </g>
    </g>
  </g>
  <g class="guide ylabels" font-size="2.82" font-family="'PT Sans Caption','Helvetica Neue','Helvetica',sans-serif" fill="#6C606B" id="fig-5eb356850c554588929b42e341a15928-element-46">
    <text x="18.63" y="56.91" text-anchor="end" dy="0.35em" id="fig-5eb356850c554588929b42e341a15928-element-47">250</text>
    <text x="18.63" y="46.93" text-anchor="end" dy="0.35em" id="fig-5eb356850c554588929b42e341a15928-element-48">300</text>
    <text x="18.63" y="36.95" text-anchor="end" dy="0.35em" id="fig-5eb356850c554588929b42e341a15928-element-49">350</text>
    <text x="18.63" y="26.97" text-anchor="end" dy="0.35em" id="fig-5eb356850c554588929b42e341a15928-element-50">400</text>
    <text x="18.63" y="16.98" text-anchor="end" dy="0.35em" id="fig-5eb356850c554588929b42e341a15928-element-51">450</text>
    <text x="18.63" y="7" text-anchor="end" dy="0.35em" id="fig-5eb356850c554588929b42e341a15928-element-52">500</text>
  </g>
</g>
<defs>
<clipPath id="fig-5eb356850c554588929b42e341a15928-element-18">
  <path d="M19.63,5 L 183.85 5 183.85 58.91 19.63 58.91" />
</clipPath
></defs>
</svg>
