<?xml version="1.0" encoding="UTF-8"?>
<svg xmlns="http://www.w3.org/2000/svg"
     xmlns:xlink="http://www.w3.org/1999/xlink"
     xmlns:gadfly="http://www.gadflyjl.org/ns"
     version="1.2"
     width="203.2mm" height="76.2mm" viewBox="0 0 203.2 76.2"
     stroke="none"
     fill="#000000"
     stroke-width="0.3"
     font-size="3.88"
>
<g class="plotroot xscalable yscalable" id="fig-54bcb22faa204a7f9971caeec87b39bc-element-1">
  <g font-size="3.88" font-family="'PT Sans','Helvetica Neue','Helvetica',sans-serif" fill="#564A55" stroke="none" id="fig-54bcb22faa204a7f9971caeec87b39bc-element-2">
    <text x="101.74" y="68.2" text-anchor="middle">Date</text>
  </g>
  <g class="guide xlabels" font-size="2.82" font-family="'PT Sans Caption','Helvetica Neue','Helvetica',sans-serif" fill="#6C606B" id="fig-54bcb22faa204a7f9971caeec87b39bc-element-3">
    <text x="22.95" y="62.59" text-anchor="middle">Apr</text>
    <text x="47.83" y="62.59" text-anchor="middle">May</text>
    <text x="73.54" y="62.59" text-anchor="middle">June</text>
    <text x="98.43" y="62.59" text-anchor="middle">July</text>
    <text x="124.14" y="62.59" text-anchor="middle">Aug</text>
    <text x="149.85" y="62.59" text-anchor="middle">Sept</text>
    <text x="174.73" y="62.59" text-anchor="middle">Oct</text>
  </g>
  <g class="guide colorkey" id="fig-54bcb22faa204a7f9971caeec87b39bc-element-4">
    <g fill="#4C404B" font-size="2.82" font-family="'PT Sans','Helvetica Neue','Helvetica',sans-serif" id="fig-54bcb22faa204a7f9971caeec87b39bc-element-5">
      <text x="187.67" y="30.14" dy="0.35em" id="fig-54bcb22faa204a7f9971caeec87b39bc-element-6" class="color_0.2">0.2</text>
      <text x="187.67" y="33.77" dy="0.35em" id="fig-54bcb22faa204a7f9971caeec87b39bc-element-7" class="color_0.3">0.3</text>
      <text x="187.67" y="37.4" dy="0.35em" id="fig-54bcb22faa204a7f9971caeec87b39bc-element-8" class="color_0.4">0.4</text>
    </g>
    <g stroke="none" id="fig-54bcb22faa204a7f9971caeec87b39bc-element-9">
      <rect x="184.85" y="29.24" width="1.81" height="1.81" id="fig-54bcb22faa204a7f9971caeec87b39bc-element-10" fill="#00BFFF" class="color_0.2"/>
      <rect x="184.85" y="32.86" width="1.81" height="1.81" id="fig-54bcb22faa204a7f9971caeec87b39bc-element-11" fill="#D4CA3A" class="color_0.3"/>
      <rect x="184.85" y="36.49" width="1.81" height="1.81" id="fig-54bcb22faa204a7f9971caeec87b39bc-element-12" fill="#FF5EA0" class="color_0.4"/>
    </g>
    <g fill="#362A35" font-size="3.88" font-family="'PT Sans','Helvetica Neue','Helvetica',sans-serif" stroke="none" id="fig-54bcb22faa204a7f9971caeec87b39bc-element-13">
      <text x="184.85" y="26.32" id="fig-54bcb22faa204a7f9971caeec87b39bc-element-14">Julia ver.</text>
    </g>
  </g>
  <g clip-path="url(#fig-54bcb22faa204a7f9971caeec87b39bc-element-16)" id="fig-54bcb22faa204a7f9971caeec87b39bc-element-15">
    <g pointer-events="visible" opacity="1" fill="none" stroke="none" class="guide background" id="fig-54bcb22faa204a7f9971caeec87b39bc-element-17">
      <rect x="19.63" y="5" width="164.22" height="53.91" id="fig-54bcb22faa204a7f9971caeec87b39bc-element-18"/>
    </g>
    <g class="guide ygridlines xfixed" stroke-dasharray="0.5,0.5" stroke-width="0.2" stroke="#D0D0E0" id="fig-54bcb22faa204a7f9971caeec87b39bc-element-19">
      <path fill="none" d="M19.63,56.91 L 183.85 56.91" id="fig-54bcb22faa204a7f9971caeec87b39bc-element-20"/>
      <path fill="none" d="M19.63,44.44 L 183.85 44.44" id="fig-54bcb22faa204a7f9971caeec87b39bc-element-21"/>
      <path fill="none" d="M19.63,31.96 L 183.85 31.96" id="fig-54bcb22faa204a7f9971caeec87b39bc-element-22"/>
      <path fill="none" d="M19.63,19.48 L 183.85 19.48" id="fig-54bcb22faa204a7f9971caeec87b39bc-element-23"/>
      <path fill="none" d="M19.63,7 L 183.85 7" id="fig-54bcb22faa204a7f9971caeec87b39bc-element-24"/>
    </g>
    <g class="guide xgridlines yfixed" stroke-dasharray="0.5,0.5" stroke-width="0.2" stroke="#D0D0E0" id="fig-54bcb22faa204a7f9971caeec87b39bc-element-25">
      <path fill="none" d="M22.95,5 L 22.95 58.91" id="fig-54bcb22faa204a7f9971caeec87b39bc-element-26"/>
      <path fill="none" d="M47.83,5 L 47.83 58.91" id="fig-54bcb22faa204a7f9971caeec87b39bc-element-27"/>
      <path fill="none" d="M73.54,5 L 73.54 58.91" id="fig-54bcb22faa204a7f9971caeec87b39bc-element-28"/>
      <path fill="none" d="M98.43,5 L 98.43 58.91" id="fig-54bcb22faa204a7f9971caeec87b39bc-element-29"/>
      <path fill="none" d="M124.14,5 L 124.14 58.91" id="fig-54bcb22faa204a7f9971caeec87b39bc-element-30"/>
      <path fill="none" d="M149.85,5 L 149.85 58.91" id="fig-54bcb22faa204a7f9971caeec87b39bc-element-31"/>
      <path fill="none" d="M174.73,5 L 174.73 58.91" id="fig-54bcb22faa204a7f9971caeec87b39bc-element-32"/>
    </g>
    <g class="plotpanel" id="fig-54bcb22faa204a7f9971caeec87b39bc-element-33">
      <g stroke-width="0.79" fill="none" class="geometry color_0.4" stroke="#FF5EA0" id="fig-54bcb22faa204a7f9971caeec87b39bc-element-34">
        <path fill="none" d="M134.09,28.46 L 134.92 27.71 135.75 27.47 136.58 27.22 137.41 27.22 138.24 27.22 139.9 26.47 140.73 26.47 141.55 26.22 142.38 26.22 143.21 26.22 144.04 25.47 144.87 24.97 145.7 24.97 147.36 24.47 148.19 23.72 149.85 23.22 150.68 23.22 151.51 23.22 154.82 23.22 157.31 21.72 158.14 21.48 158.97 21.23 159.8 20.73 160.63 20.73 161.46 20.73 162.29 18.73 163.12 18.73 163.95 18.73 165.61 18.48 166.44 18.48 167.27 18.23 168.1 18.23 168.92 18.23 169.75 17.98 170.58 17.98 172.24 18.23 173.07 17.98 173.9 17.98 174.73 17.48 175.56 16.98 176.39 16.98 177.22 16.98 178.05 16.48 180.54 15.98 181.37 15.98" id="fig-54bcb22faa204a7f9971caeec87b39bc-element-35"/>
      </g>
      <g stroke-width="0.79" fill="none" class="geometry color_0.3" stroke="#D4CA3A" id="fig-54bcb22faa204a7f9971caeec87b39bc-element-36">
        <path fill="none" d="M21.29,45.43 L 22.12 45.43 22.95 45.18 23.78 45.18 24.61 45.18 25.44 45.18 26.27 45.18 27.1 44.94 28.76 44.94 29.58 44.69 31.24 44.44 32.9 43.94 33.73 43.94 35.39 43.94 36.22 43.69 42.03 42.69 44.51 42.69 46.17 42.69 51.98 42.44 52.81 41.94 53.64 41.69 54.47 41.69 55.3 41.69 56.13 41.69 56.95 41.69 57.78 41.69 58.61 41.69 59.44 41.69 60.27 41.69 61.1 40.94 62.76 40.69 63.59 40.69 64.42 40.69 65.25 40.19 66.08 40.19 66.91 40.19 67.74 39.94 68.57 39.94 69.4 39.94 70.23 39.94 71.05 39.94 71.88 39.69 72.71 39.69 73.54 49.68 74.37 39.44 75.2 39.2 76.03 38.95 81.01 37.45 81.84 37.2 82.67 36.95 83.5 36.7 84.33 36.2 85.15 36.2 85.98 35.7 86.81 35.7 87.64 35.45 88.47 35.2 90.13 35.2 90.96 34.7 91.79 34.7 92.62 34.7 93.45 34.7 94.28 34.7 95.11 33.95 95.94 33.95 97.6 33.7 98.43 33.21 99.25 32.96 100.08 32.71 100.91 32.71 101.74 32.21 103.4 31.96 104.23 31.21 105.06 31.21 105.89 31.21 107.55 29.96 109.21 29.21 110.04 29.21 110.87 28.96 111.7 28.96 114.18 28.71 115.01 28.71 115.84 28.46 116.67 28.46 117.5 28.46 118.33 28.21 119.16 27.96 119.99 27.71 121.65 27.71 122.48 27.71 124.14 27.71 124.97 27.47 125.8 26.72 126.63 26.72 128.28 26.47 129.11 26.47 129.94 25.97 130.77 25.72 131.6 25.47 132.43 25.22 133.26 24.97 134.09 24.47 134.92 24.47 135.75 24.22 136.58 23.97 137.41 23.97 138.24 23.97 139.9 23.22 140.73 23.22 141.55 22.97 142.38 22.97 143.21 22.97 144.04 22.22 144.87 21.97 145.7 21.72 147.36 24.72 148.19 23.97 149.85 23.47 150.68 23.47 151.51 23.47 154.82 23.47 157.31 21.97 158.14 21.72 158.97 21.48 159.8 20.98 160.63 20.98 161.46 20.98 162.29 18.98 163.12 18.98 163.95 18.98 165.61 18.98 166.44 18.73 167.27 18.48 168.1 18.48 168.92 18.48 169.75 18.23 170.58 18.23 172.24 18.48 173.07 18.23 173.9 18.23 174.73 17.73 175.56 12.74 176.39 17.23 177.22 17.23 178.05 16.73 180.54 16.23 181.37 16.23" id="fig-54bcb22faa204a7f9971caeec87b39bc-element-37"/>
      </g>
      <g stroke-width="0.79" fill="none" class="geometry color_0.2" stroke="#00BFFF" id="fig-54bcb22faa204a7f9971caeec87b39bc-element-38">
        <path fill="none" d="M21.29,48.18 L 22.12 48.18 22.95 47.93 23.78 47.93 24.61 47.93 25.44 47.93 26.27 47.93 27.1 47.93 28.76 47.93 29.58 47.93 31.24 47.68 32.9 47.43 33.73 47.43 35.39 47.18 36.22 46.93 42.03 46.43 44.51 46.43 46.17 46.43 51.98 46.18 52.81 45.93 53.64 45.93 54.47 45.93 55.3 45.93 56.13 45.93 56.95 45.93 57.78 45.93 58.61 45.93 59.44 45.93 60.27 45.18 61.1 45.18 62.76 44.94 63.59 44.94 64.42 44.94 65.25 44.69 66.08 46.68 66.91 45.43 67.74 45.43 68.57 45.43 69.4 45.43 70.23 45.43 71.05 45.43 71.88 45.43 72.71 45.43 73.54 45.18 74.37 45.18 75.2 44.94 76.03 44.94 81.01 43.69 81.84 43.69 82.67 43.44 83.5 43.19 84.33 42.69 85.15 42.69 85.98 42.69 86.81 42.69 87.64 42.69 88.47 42.44 90.13 42.44 90.96 41.94 91.79 41.94 92.62 41.94 93.45 41.94 94.28 41.94 95.11 41.19 95.94 41.19 97.6 40.94 98.43 40.44 99.25 40.19 100.08 39.94 100.91 39.94 101.74 39.94 103.4 39.44 104.23 39.2 105.06 38.95 105.89 38.95 107.55 38.45 109.21 37.95 110.04 37.95 110.87 37.95 111.7 37.95 114.18 37.95 115.01 37.95 115.84 37.7 116.67 37.7 117.5 37.7 118.33 37.45 119.16 37.45 119.99 37.45 121.65 37.2 122.48 37.2 124.14 37.2 124.97 37.2 125.8 36.45 126.63 36.45 128.28 36.95 129.11 36.95 129.94 36.45 130.77 36.2 131.6 36.2 132.43 35.7 133.26 35.7" id="fig-54bcb22faa204a7f9971caeec87b39bc-element-39"/>
      </g>
    </g>
  </g>
  <g class="guide ylabels" font-size="2.82" font-family="'PT Sans Caption','Helvetica Neue','Helvetica',sans-serif" fill="#6C606B" id="fig-54bcb22faa204a7f9971caeec87b39bc-element-40">
    <text x="18.63" y="56.91" text-anchor="end" dy="0.35em" id="fig-54bcb22faa204a7f9971caeec87b39bc-element-41">250</text>
    <text x="18.63" y="44.44" text-anchor="end" dy="0.35em" id="fig-54bcb22faa204a7f9971caeec87b39bc-element-42">300</text>
    <text x="18.63" y="31.96" text-anchor="end" dy="0.35em" id="fig-54bcb22faa204a7f9971caeec87b39bc-element-43">350</text>
    <text x="18.63" y="19.48" text-anchor="end" dy="0.35em" id="fig-54bcb22faa204a7f9971caeec87b39bc-element-44">400</text>
    <text x="18.63" y="7" text-anchor="end" dy="0.35em" id="fig-54bcb22faa204a7f9971caeec87b39bc-element-45">450</text>
  </g>
  <g font-size="3.88" font-family="'PT Sans','Helvetica Neue','Helvetica',sans-serif" fill="#564A55" stroke="none" id="fig-54bcb22faa204a7f9971caeec87b39bc-element-46">
    <text x="8.81" y="29.96" text-anchor="middle" dy="0.35em" transform="rotate(-90, 8.81, 31.96)" id="fig-54bcb22faa204a7f9971caeec87b39bc-element-47">Number of Tagged Packages</text>
  </g>
</g>
<defs>
<clipPath id="fig-54bcb22faa204a7f9971caeec87b39bc-element-16">
  <path d="M19.63,5 L 183.85 5 183.85 58.91 19.63 58.91" />
</clipPath
></defs>
</svg>
