<?xml version="1.0" encoding="UTF-8"?>
<svg xmlns="http://www.w3.org/2000/svg"
     xmlns:xlink="http://www.w3.org/1999/xlink"
     xmlns:gadfly="http://www.gadflyjl.org/ns"
     version="1.2"
     width="203.2mm" height="76.2mm" viewBox="0 0 203.2 76.2"
     stroke="none"
     fill="#000000"
     stroke-width="0.3"
     font-size="3.88"
>
<g class="plotroot xscalable yscalable" id="fig-3947031daf024151a837aee8e63f824d-element-1">
  <g font-size="3.88" font-family="'PT Sans','Helvetica Neue','Helvetica',sans-serif" fill="#564A55" stroke="none" id="fig-3947031daf024151a837aee8e63f824d-element-2">
    <text x="101.74" y="68.2" text-anchor="middle">Date</text>
  </g>
  <g class="guide xlabels" font-size="2.82" font-family="'PT Sans Caption','Helvetica Neue','Helvetica',sans-serif" fill="#6C606B" id="fig-3947031daf024151a837aee8e63f824d-element-3">
    <text x="23.6" y="62.59" text-anchor="middle">Apr</text>
    <text x="47.4" y="62.59" text-anchor="middle">May</text>
    <text x="71.99" y="62.59" text-anchor="middle">June</text>
    <text x="95.79" y="62.59" text-anchor="middle">July</text>
    <text x="120.39" y="62.59" text-anchor="middle">Aug</text>
    <text x="144.98" y="62.59" text-anchor="middle">Sept</text>
    <text x="168.78" y="62.59" text-anchor="middle">Oct</text>
  </g>
  <g class="guide colorkey" id="fig-3947031daf024151a837aee8e63f824d-element-4">
    <g fill="#4C404B" font-size="2.82" font-family="'PT Sans','Helvetica Neue','Helvetica',sans-serif" id="fig-3947031daf024151a837aee8e63f824d-element-5">
      <text x="187.67" y="30.14" dy="0.35em" id="fig-3947031daf024151a837aee8e63f824d-element-6" class="color_0.2">0.2</text>
      <text x="187.67" y="33.77" dy="0.35em" id="fig-3947031daf024151a837aee8e63f824d-element-7" class="color_0.3">0.3</text>
      <text x="187.67" y="37.4" dy="0.35em" id="fig-3947031daf024151a837aee8e63f824d-element-8" class="color_0.4">0.4</text>
    </g>
    <g stroke="none" id="fig-3947031daf024151a837aee8e63f824d-element-9">
      <rect x="184.85" y="29.24" width="1.81" height="1.81" id="fig-3947031daf024151a837aee8e63f824d-element-10" fill="#00BFFF" class="color_0.2"/>
      <rect x="184.85" y="32.86" width="1.81" height="1.81" id="fig-3947031daf024151a837aee8e63f824d-element-11" fill="#D4CA3A" class="color_0.3"/>
      <rect x="184.85" y="36.49" width="1.81" height="1.81" id="fig-3947031daf024151a837aee8e63f824d-element-12" fill="#FF5EA0" class="color_0.4"/>
    </g>
    <g fill="#362A35" font-size="3.88" font-family="'PT Sans','Helvetica Neue','Helvetica',sans-serif" stroke="none" id="fig-3947031daf024151a837aee8e63f824d-element-13">
      <text x="184.85" y="26.32" id="fig-3947031daf024151a837aee8e63f824d-element-14">Julia ver.</text>
    </g>
  </g>
  <g font-size="3.88" font-family="'PT Sans','Helvetica Neue','Helvetica',sans-serif" fill="#564A55" stroke="none" id="fig-3947031daf024151a837aee8e63f824d-element-15">
    <text x="8.81" y="29.96" text-anchor="middle" dy="0.35em" transform="rotate(-90, 8.81, 31.96)" id="fig-3947031daf024151a837aee8e63f824d-element-16">Number of Tagged Packages</text>
  </g>
  <g clip-path="url(#fig-3947031daf024151a837aee8e63f824d-element-18)" id="fig-3947031daf024151a837aee8e63f824d-element-17">
    <g pointer-events="visible" opacity="1" fill="none" stroke="none" class="guide background" id="fig-3947031daf024151a837aee8e63f824d-element-19">
      <rect x="19.63" y="5" width="164.22" height="53.91" id="fig-3947031daf024151a837aee8e63f824d-element-20"/>
    </g>
    <g class="guide ygridlines xfixed" stroke-dasharray="0.5,0.5" stroke-width="0.2" stroke="#D0D0E0" id="fig-3947031daf024151a837aee8e63f824d-element-21">
      <path fill="none" d="M19.63,56.91 L 183.85 56.91" id="fig-3947031daf024151a837aee8e63f824d-element-22"/>
      <path fill="none" d="M19.63,44.44 L 183.85 44.44" id="fig-3947031daf024151a837aee8e63f824d-element-23"/>
      <path fill="none" d="M19.63,31.96 L 183.85 31.96" id="fig-3947031daf024151a837aee8e63f824d-element-24"/>
      <path fill="none" d="M19.63,19.48 L 183.85 19.48" id="fig-3947031daf024151a837aee8e63f824d-element-25"/>
      <path fill="none" d="M19.63,7 L 183.85 7" id="fig-3947031daf024151a837aee8e63f824d-element-26"/>
    </g>
    <g class="guide xgridlines yfixed" stroke-dasharray="0.5,0.5" stroke-width="0.2" stroke="#D0D0E0" id="fig-3947031daf024151a837aee8e63f824d-element-27">
      <path fill="none" d="M23.6,5 L 23.6 58.91" id="fig-3947031daf024151a837aee8e63f824d-element-28"/>
      <path fill="none" d="M47.4,5 L 47.4 58.91" id="fig-3947031daf024151a837aee8e63f824d-element-29"/>
      <path fill="none" d="M71.99,5 L 71.99 58.91" id="fig-3947031daf024151a837aee8e63f824d-element-30"/>
      <path fill="none" d="M95.79,5 L 95.79 58.91" id="fig-3947031daf024151a837aee8e63f824d-element-31"/>
      <path fill="none" d="M120.39,5 L 120.39 58.91" id="fig-3947031daf024151a837aee8e63f824d-element-32"/>
      <path fill="none" d="M144.98,5 L 144.98 58.91" id="fig-3947031daf024151a837aee8e63f824d-element-33"/>
      <path fill="none" d="M168.78,5 L 168.78 58.91" id="fig-3947031daf024151a837aee8e63f824d-element-34"/>
    </g>
    <g class="plotpanel" id="fig-3947031daf024151a837aee8e63f824d-element-35">
      <g stroke-width="0.79" fill="none" class="geometry color_0.4" stroke="#FF5EA0" id="fig-3947031daf024151a837aee8e63f824d-element-36">
        <path fill="none" d="M129.91,28.46 L 130.7 27.71 131.49 27.47 132.29 27.22 133.08 27.22 133.87 27.22 135.46 26.47 136.25 26.47 137.05 26.22 137.84 26.22 138.63 26.22 139.43 25.47 140.22 24.97 141.01 24.97 142.6 24.47 143.39 23.72 144.98 23.22 145.77 23.22 146.57 23.22 149.74 23.22 152.12 21.72 152.91 21.48 153.71 21.23 154.5 20.73 155.29 20.73 156.09 20.73 156.88 18.73 157.67 18.73 158.47 18.73 160.05 18.48 160.85 18.48 161.64 18.23 162.43 18.23 163.23 18.23 164.02 17.98 164.81 17.98 166.4 18.23 167.19 17.98 167.99 17.98 168.78 17.48 169.57 16.98 170.37 16.98 171.16 16.98 171.95 16.48 174.33 15.98 175.13 15.98 175.92 15.49 176.71 15.24 177.51 15.24 178.3 15.24 179.09 14.74 179.89 14.74 180.68 14.49 181.47 14.24 182.27 14.24" id="fig-3947031daf024151a837aee8e63f824d-element-37"/>
      </g>
      <g stroke-width="0.79" fill="none" class="geometry color_0.3" stroke="#D4CA3A" id="fig-3947031daf024151a837aee8e63f824d-element-38">
        <path fill="none" d="M22.01,45.43 L 22.81 45.43 23.6 45.18 24.39 45.18 25.19 45.18 25.98 45.18 26.77 45.18 27.57 44.94 29.15 44.94 29.95 44.69 31.53 44.44 33.12 43.94 33.91 43.94 35.5 43.94 36.29 43.69 41.85 42.69 44.23 42.69 45.81 42.69 51.37 42.44 52.16 41.94 52.95 41.69 53.75 41.69 54.54 41.69 55.33 41.69 56.13 41.69 56.92 41.69 57.71 41.69 58.51 41.69 59.3 41.69 60.09 40.94 61.68 40.69 62.47 40.69 63.27 40.69 64.06 40.19 64.85 40.19 65.65 40.19 66.44 39.94 67.23 39.94 68.03 39.94 68.82 39.94 69.61 39.94 70.41 39.69 71.2 39.69 71.99 49.68 72.79 39.44 73.58 39.2 74.37 38.95 79.13 37.45 79.93 37.2 80.72 36.95 81.51 36.7 82.31 36.2 83.1 36.2 83.89 35.7 84.69 35.7 85.48 35.45 86.27 35.2 87.86 35.2 88.65 34.7 89.45 34.7 90.24 34.7 91.03 34.7 91.83 34.7 92.62 33.95 93.41 33.95 95 33.7 95.79 33.21 96.59 32.96 97.38 32.71 98.17 32.71 98.97 32.21 100.55 31.96 101.35 31.21 102.14 31.21 102.93 31.21 104.52 29.96 106.11 29.21 106.9 29.21 107.69 28.96 108.49 28.96 110.87 28.71 111.66 28.71 112.45 28.46 113.25 28.46 114.04 28.46 114.83 28.21 115.63 27.96 116.42 27.71 118.01 27.71 118.8 27.71 120.39 27.71 121.18 27.47 121.97 26.72 122.77 26.72 124.35 26.47 125.15 26.47 125.94 25.97 126.73 25.72 127.53 25.47 128.32 25.22 129.11 24.97 129.91 24.47 130.7 24.47 131.49 24.22 132.29 23.97 133.08 23.97 133.87 23.97 135.46 23.22 136.25 23.22 137.05 22.97 137.84 22.97 138.63 22.97 139.43 22.22 140.22 21.97 141.01 21.72 142.6 24.72 143.39 23.97 144.98 23.47 145.77 23.47 146.57 23.47 149.74 23.47 152.12 21.97 152.91 21.72 153.71 21.48 154.5 20.98 155.29 20.98 156.09 20.98 156.88 18.98 157.67 18.98 158.47 18.98 160.05 18.98 160.85 18.73 161.64 18.48 162.43 18.48 163.23 18.48 164.02 18.23 164.81 18.23 166.4 18.48 167.19 18.23 167.99 18.23 168.78 17.73 169.57 12.74 170.37 17.23 171.16 17.23 171.95 16.73 174.33 16.23 175.13 16.23 175.92 15.74 176.71 15.49 177.51 15.49 178.3 15.49 179.09 14.99 179.89 14.99 180.68 14.74 181.47 14.49 182.27 14.49" id="fig-3947031daf024151a837aee8e63f824d-element-39"/>
      </g>
      <g stroke-width="0.79" fill="none" class="geometry color_0.2" stroke="#00BFFF" id="fig-3947031daf024151a837aee8e63f824d-element-40">
        <path fill="none" d="M22.01,48.18 L 22.81 48.18 23.6 47.93 24.39 47.93 25.19 47.93 25.98 47.93 26.77 47.93 27.57 47.93 29.15 47.93 29.95 47.93 31.53 47.68 33.12 47.43 33.91 47.43 35.5 47.18 36.29 46.93 41.85 46.43 44.23 46.43 45.81 46.43 51.37 46.18 52.16 45.93 52.95 45.93 53.75 45.93 54.54 45.93 55.33 45.93 56.13 45.93 56.92 45.93 57.71 45.93 58.51 45.93 59.3 45.18 60.09 45.18 61.68 44.94 62.47 44.94 63.27 44.94 64.06 44.69 64.85 46.68 65.65 45.43 66.44 45.43 67.23 45.43 68.03 45.43 68.82 45.43 69.61 45.43 70.41 45.43 71.2 45.43 71.99 45.18 72.79 45.18 73.58 44.94 74.37 44.94 79.13 43.69 79.93 43.69 80.72 43.44 81.51 43.19 82.31 42.69 83.1 42.69 83.89 42.69 84.69 42.69 85.48 42.69 86.27 42.44 87.86 42.44 88.65 41.94 89.45 41.94 90.24 41.94 91.03 41.94 91.83 41.94 92.62 41.19 93.41 41.19 95 40.94 95.79 40.44 96.59 40.19 97.38 39.94 98.17 39.94 98.97 39.94 100.55 39.44 101.35 39.2 102.14 38.95 102.93 38.95 104.52 38.45 106.11 37.95 106.9 37.95 107.69 37.95 108.49 37.95 110.87 37.95 111.66 37.95 112.45 37.7 113.25 37.7 114.04 37.7 114.83 37.45 115.63 37.45 116.42 37.45 118.01 37.2 118.8 37.2 120.39 37.2 121.18 37.2 121.97 36.45 122.77 36.45 124.35 36.95 125.15 36.95 125.94 36.45 126.73 36.2 127.53 36.2 128.32 35.7 129.11 35.7" id="fig-3947031daf024151a837aee8e63f824d-element-41"/>
      </g>
    </g>
  </g>
  <g class="guide ylabels" font-size="2.82" font-family="'PT Sans Caption','Helvetica Neue','Helvetica',sans-serif" fill="#6C606B" id="fig-3947031daf024151a837aee8e63f824d-element-42">
    <text x="18.63" y="56.91" text-anchor="end" dy="0.35em" id="fig-3947031daf024151a837aee8e63f824d-element-43">250</text>
    <text x="18.63" y="44.44" text-anchor="end" dy="0.35em" id="fig-3947031daf024151a837aee8e63f824d-element-44">300</text>
    <text x="18.63" y="31.96" text-anchor="end" dy="0.35em" id="fig-3947031daf024151a837aee8e63f824d-element-45">350</text>
    <text x="18.63" y="19.48" text-anchor="end" dy="0.35em" id="fig-3947031daf024151a837aee8e63f824d-element-46">400</text>
    <text x="18.63" y="7" text-anchor="end" dy="0.35em" id="fig-3947031daf024151a837aee8e63f824d-element-47">450</text>
  </g>
</g>
<defs>
<clipPath id="fig-3947031daf024151a837aee8e63f824d-element-18">
  <path d="M19.63,5 L 183.85 5 183.85 58.91 19.63 58.91" />
</clipPath
></defs>
</svg>
