<?xml version="1.0" encoding="UTF-8"?>
<svg xmlns="http://www.w3.org/2000/svg"
     xmlns:xlink="http://www.w3.org/1999/xlink"
     xmlns:gadfly="http://www.gadflyjl.org/ns"
     version="1.2"
     width="203.2mm" height="76.2mm" viewBox="0 0 203.2 76.2"
     stroke="none"
     fill="#000000"
     stroke-width="0.3"
     font-size="3.88"
>
<g class="plotroot xscalable yscalable" id="fig-e8ebb74a977243e19f323de170527fb0-element-1">
  <g font-size="3.88" font-family="'PT Sans','Helvetica Neue','Helvetica',sans-serif" fill="#564A55" stroke="#000000" stroke-opacity="0.000" id="fig-e8ebb74a977243e19f323de170527fb0-element-2">
    <text x="101.74" y="64.59" text-anchor="middle" dy="0.6em">Date</text>
  </g>
  <g class="guide xlabels" font-size="2.82" font-family="'PT Sans Caption','Helvetica Neue','Helvetica',sans-serif" fill="#6C606B" id="fig-e8ebb74a977243e19f323de170527fb0-element-3">
    <text x="22.34" y="57.92" text-anchor="middle" dy="0.6em">Apr</text>
    <text x="32.92" y="57.92" text-anchor="middle" dy="0.6em">May</text>
    <text x="43.87" y="57.92" text-anchor="middle" dy="0.6em">Jun</text>
    <text x="54.45" y="57.92" text-anchor="middle" dy="0.6em">Jul</text>
    <text x="65.39" y="57.92" text-anchor="middle" dy="0.6em">Aug</text>
    <text x="76.33" y="57.92" text-anchor="middle" dy="0.6em">Sep</text>
    <text x="86.92" y="57.92" text-anchor="middle" dy="0.6em">Oct</text>
    <text x="97.86" y="57.92" text-anchor="middle" dy="0.6em">Nov</text>
    <text x="108.45" y="57.92" text-anchor="middle" dy="0.6em">Dec</text>
    <text x="119.39" y="57.92" text-anchor="middle" dy="0.6em">Jan 2015</text>
    <text x="130.33" y="57.92" text-anchor="middle" dy="0.6em">Feb</text>
    <text x="140.21" y="57.92" text-anchor="middle" dy="0.6em">Mar</text>
    <text x="151.15" y="57.92" text-anchor="middle" dy="0.6em">Apr</text>
    <text x="161.74" y="57.92" text-anchor="middle" dy="0.6em">May</text>
    <text x="172.68" y="57.92" text-anchor="middle" dy="0.6em">Jun</text>
  </g>
  <g class="guide colorkey" id="fig-e8ebb74a977243e19f323de170527fb0-element-4">
    <g fill="#4C404B" font-size="2.82" font-family="'PT Sans','Helvetica Neue','Helvetica',sans-serif" id="fig-e8ebb74a977243e19f323de170527fb0-element-5">
      <text x="187.67" y="29.14" dy="0.35em" id="fig-e8ebb74a977243e19f323de170527fb0-element-6" class="color_0.2">0.2</text>
      <text x="187.67" y="32.77" dy="0.35em" id="fig-e8ebb74a977243e19f323de170527fb0-element-7" class="color_0.3">0.3</text>
      <text x="187.67" y="36.4" dy="0.35em" id="fig-e8ebb74a977243e19f323de170527fb0-element-8" class="color_0.4">0.4</text>
    </g>
    <g stroke="#000000" stroke-opacity="0.000" id="fig-e8ebb74a977243e19f323de170527fb0-element-9">
      <rect x="184.85" y="28.24" width="1.81" height="1.81" id="fig-e8ebb74a977243e19f323de170527fb0-element-10" fill="#00BFFF" class="color_0.2"/>
      <rect x="184.85" y="31.86" width="1.81" height="1.81" id="fig-e8ebb74a977243e19f323de170527fb0-element-11" fill="#D4CA3A" class="color_0.3"/>
      <rect x="184.85" y="35.49" width="1.81" height="1.81" id="fig-e8ebb74a977243e19f323de170527fb0-element-12" fill="#FF5EA0" class="color_0.4"/>
    </g>
    <g fill="#362A35" font-size="3.88" font-family="'PT Sans','Helvetica Neue','Helvetica',sans-serif" stroke="#000000" stroke-opacity="0.000" id="fig-e8ebb74a977243e19f323de170527fb0-element-13">
      <text x="184.85" y="25.32" id="fig-e8ebb74a977243e19f323de170527fb0-element-14">Julia ver.</text>
    </g>
  </g>
  <g font-size="3.88" font-family="'PT Sans','Helvetica Neue','Helvetica',sans-serif" fill="#564A55" stroke="#000000" stroke-opacity="0.000" id="fig-e8ebb74a977243e19f323de170527fb0-element-15">
    <text x="8.81" y="28.96" text-anchor="middle" dy="0.35em" transform="rotate(-90, 8.81, 30.96)" id="fig-e8ebb74a977243e19f323de170527fb0-element-16">Number of Tagged Packages</text>
  </g>
  <g clip-path="url(#fig-e8ebb74a977243e19f323de170527fb0-element-18)" id="fig-e8ebb74a977243e19f323de170527fb0-element-17">
    <g pointer-events="visible" opacity="1" fill="#000000" fill-opacity="0.000" stroke="#000000" stroke-opacity="0.000" class="guide background" id="fig-e8ebb74a977243e19f323de170527fb0-element-19">
      <rect x="19.63" y="5" width="164.22" height="51.92" id="fig-e8ebb74a977243e19f323de170527fb0-element-20"/>
    </g>
    <g class="guide ygridlines xfixed" stroke-dasharray="0.5,0.5" stroke-width="0.2" stroke="#D0D0E0" id="fig-e8ebb74a977243e19f323de170527fb0-element-21">
      <path fill="none" d="M19.63,54.91 L 183.85 54.91" id="fig-e8ebb74a977243e19f323de170527fb0-element-22"/>
      <path fill="none" d="M19.63,45.33 L 183.85 45.33" id="fig-e8ebb74a977243e19f323de170527fb0-element-23"/>
      <path fill="none" d="M19.63,35.75 L 183.85 35.75" id="fig-e8ebb74a977243e19f323de170527fb0-element-24"/>
      <path fill="none" d="M19.63,26.17 L 183.85 26.17" id="fig-e8ebb74a977243e19f323de170527fb0-element-25"/>
      <path fill="none" d="M19.63,16.58 L 183.85 16.58" id="fig-e8ebb74a977243e19f323de170527fb0-element-26"/>
      <path fill="none" d="M19.63,7 L 183.85 7" id="fig-e8ebb74a977243e19f323de170527fb0-element-27"/>
    </g>
    <g class="guide xgridlines yfixed" stroke-dasharray="0.5,0.5" stroke-width="0.2" stroke="#D0D0E0" id="fig-e8ebb74a977243e19f323de170527fb0-element-28">
      <path fill="none" d="M22.34,5 L 22.34 56.92" id="fig-e8ebb74a977243e19f323de170527fb0-element-29"/>
      <path fill="none" d="M32.92,5 L 32.92 56.92" id="fig-e8ebb74a977243e19f323de170527fb0-element-30"/>
      <path fill="none" d="M43.87,5 L 43.87 56.92" id="fig-e8ebb74a977243e19f323de170527fb0-element-31"/>
      <path fill="none" d="M54.45,5 L 54.45 56.92" id="fig-e8ebb74a977243e19f323de170527fb0-element-32"/>
      <path fill="none" d="M65.39,5 L 65.39 56.92" id="fig-e8ebb74a977243e19f323de170527fb0-element-33"/>
      <path fill="none" d="M76.33,5 L 76.33 56.92" id="fig-e8ebb74a977243e19f323de170527fb0-element-34"/>
      <path fill="none" d="M86.92,5 L 86.92 56.92" id="fig-e8ebb74a977243e19f323de170527fb0-element-35"/>
      <path fill="none" d="M97.86,5 L 97.86 56.92" id="fig-e8ebb74a977243e19f323de170527fb0-element-36"/>
      <path fill="none" d="M108.45,5 L 108.45 56.92" id="fig-e8ebb74a977243e19f323de170527fb0-element-37"/>
      <path fill="none" d="M119.39,5 L 119.39 56.92" id="fig-e8ebb74a977243e19f323de170527fb0-element-38"/>
      <path fill="none" d="M130.33,5 L 130.33 56.92" id="fig-e8ebb74a977243e19f323de170527fb0-element-39"/>
      <path fill="none" d="M140.21,5 L 140.21 56.92" id="fig-e8ebb74a977243e19f323de170527fb0-element-40"/>
      <path fill="none" d="M151.15,5 L 151.15 56.92" id="fig-e8ebb74a977243e19f323de170527fb0-element-41"/>
      <path fill="none" d="M161.74,5 L 161.74 56.92" id="fig-e8ebb74a977243e19f323de170527fb0-element-42"/>
      <path fill="none" d="M172.68,5 L 172.68 56.92" id="fig-e8ebb74a977243e19f323de170527fb0-element-43"/>
    </g>
    <g class="plotpanel" id="fig-e8ebb74a977243e19f323de170527fb0-element-44">
      <g class="geometry" stroke="#000000" stroke-opacity="0.000" fill="#4C404B" font-size="2.82" font-family="'PT Sans Caption','Helvetica Neue','Helvetica',sans-serif" id="fig-e8ebb74a977243e19f323de170527fb0-element-45">
        <text x="77.04" y="52.46" text-anchor="middle" dy="0.35em" id="fig-e8ebb74a977243e19f323de170527fb0-element-46" visibility="visible">v0.3.0</text>
        <text x="88.33" y="52.46" text-anchor="middle" dy="0.35em" id="fig-e8ebb74a977243e19f323de170527fb0-element-47" visibility="visible">v0.3.1</text>
        <text x="98.92" y="52.46" text-anchor="middle" dy="0.35em" id="fig-e8ebb74a977243e19f323de170527fb0-element-48" visibility="visible">v0.3.2</text>
        <text x="110.56" y="52.46" text-anchor="middle" dy="0.35em" id="fig-e8ebb74a977243e19f323de170527fb0-element-49" visibility="visible">v0.3.3</text>
        <text x="118.27" y="52.46" text-anchor="middle" dy="0.35em" id="fig-e8ebb74a977243e19f323de170527fb0-element-50" visibility="visible"></text>
        <text x="126.8" y="52.46" text-anchor="middle" dy="0.35em" id="fig-e8ebb74a977243e19f323de170527fb0-element-51" visibility="visible">v0.3.5</text>
        <text x="140.92" y="52.46" text-anchor="middle" dy="0.35em" id="fig-e8ebb74a977243e19f323de170527fb0-element-52" visibility="visible">v0.3.6</text>
        <text x="152.91" y="52.46" text-anchor="middle" dy="0.35em" id="fig-e8ebb74a977243e19f323de170527fb0-element-53" visibility="visible">v0.3.7</text>
        <text x="166.33" y="52.46" text-anchor="middle" dy="0.35em" id="fig-e8ebb74a977243e19f323de170527fb0-element-54" visibility="visible">v0.3.8</text>
        <text x="176.91" y="52.46" text-anchor="middle" dy="0.35em" id="fig-e8ebb74a977243e19f323de170527fb0-element-55" visibility="visible">v0.3.9</text>
      </g>
      <g class="yfixed" stroke-width="0.26" stroke="#333333" id="fig-e8ebb74a977243e19f323de170527fb0-element-56">
        <path fill="none" d="M72.1,5 L 72.1 56.92" id="fig-e8ebb74a977243e19f323de170527fb0-element-57"/>
        <path fill="none" d="M83.39,5 L 83.39 56.92" id="fig-e8ebb74a977243e19f323de170527fb0-element-58"/>
        <path fill="none" d="M93.98,5 L 93.98 56.92" id="fig-e8ebb74a977243e19f323de170527fb0-element-59"/>
        <path fill="none" d="M105.62,5 L 105.62 56.92" id="fig-e8ebb74a977243e19f323de170527fb0-element-60"/>
        <path fill="none" d="M117.27,5 L 117.27 56.92" id="fig-e8ebb74a977243e19f323de170527fb0-element-61"/>
        <path fill="none" d="M121.86,5 L 121.86 56.92" id="fig-e8ebb74a977243e19f323de170527fb0-element-62"/>
        <path fill="none" d="M135.98,5 L 135.98 56.92" id="fig-e8ebb74a977243e19f323de170527fb0-element-63"/>
        <path fill="none" d="M147.97,5 L 147.97 56.92" id="fig-e8ebb74a977243e19f323de170527fb0-element-64"/>
        <path fill="none" d="M161.39,5 L 161.39 56.92" id="fig-e8ebb74a977243e19f323de170527fb0-element-65"/>
        <path fill="none" d="M171.97,5 L 171.97 56.92" id="fig-e8ebb74a977243e19f323de170527fb0-element-66"/>
      </g>
      <g stroke-width="0.79" fill="#000000" fill-opacity="0.000" class="geometry color_0.4" stroke="#FF5EA0" id="fig-e8ebb74a977243e19f323de170527fb0-element-67">
        <path fill="none" d="M69.63,39.2 L 69.98 38.91 70.33 38.82 70.69 38.72 71.04 38.72 71.39 38.72 72.1 38.43 72.45 38.43 72.8 38.34 73.16 38.34 73.51 38.34 73.86 38.05 74.22 37.86 74.57 37.86 75.27 37.67 75.63 37.38 76.33 37.19 76.69 37.19 77.04 37.19 78.45 37.19 79.51 36.61 79.86 36.52 80.22 36.42 80.57 36.23 80.92 36.23 81.27 36.23 81.63 35.46 81.98 35.46 82.33 35.46 83.04 35.37 83.39 35.37 83.74 35.27 84.1 35.27 84.45 35.27 84.8 35.17 85.16 35.17 85.86 35.27 86.21 35.17 86.57 35.17 86.92 34.98 87.27 34.79 87.63 34.79 87.98 34.79 88.33 34.6 89.39 34.41 89.74 34.41 90.1 34.22 90.45 34.12 90.8 34.12 91.16 34.12 91.51 33.93 91.86 33.93 92.21 33.83 92.57 33.74 92.92 33.74 93.27 33.74 93.63 33.74 93.98 33.54 94.33 33.35 94.68 33.35 95.04 33.35 95.39 33.26 95.74 33.26 96.1 33.16 96.45 33.16 96.8 32.97 97.16 32.87 97.51 32.87 97.86 32.78 98.21 32.78 98.57 32.78 98.92 32.78 99.27 32.68 99.63 32.59 100.68 32.59 102.45 32.01 102.8 31.82 103.15 31.82 103.51 31.72 103.86 31.72 104.21 31.44 104.57 31.44 105.98 30.96 106.33 30.96 108.1 30.86 108.8 30.86 109.15 30.67 109.51 30.57 109.86 30.57 110.21 30.57 110.57 30.38 110.92 30.19 111.98 30.1 112.33 30 113.04 29.62 113.39 29.62 113.74 29.62 114.8 29.62 115.51 29.42 116.57 29.23 117.98 29.04 118.68 28.66 119.74 28.47 122.21 27.8 123.62 27.12 123.98 26.93 124.33 26.93 124.68 26.36 125.04 26.36 125.39 26.36 126.09 26.26 126.45 26.17 126.8 26.17 127.15 25.88 127.51 25.78 127.86 25.78 128.21 25.78 128.92 25.5 129.27 25.21 129.62 25.11 131.03 24.35 131.39 24.35 131.74 24.63 132.45 24.35 133.15 24.06 133.51 24.06 134.56 23.87 136.33 23.87 138.09 23.77 139.86 22.91 140.21 22.91 140.56 22.91 140.92 22.72 141.27 22.72 141.97 22.52 142.68 22.52 144.09 22.43 144.45 22.24 144.8 22.24 145.15 22.24 145.5 22.05 145.86 22.14 146.21 21.95 150.44 21.57 151.15 21.57 151.5 21.28 152.21 21.28 153.62 21.18 154.33 21.09 155.03 20.8 156.44 20.61 157.15 20.42 157.5 20.13 158.21 19.65 158.56 19.65 158.91 19.55 159.27 19.36 159.62 19.36 159.97 19.27 160.68 19.17 161.03 18.98 161.74 18.98 162.44 18.79 162.8 18.5 163.15 18.4 163.86 18.21 164.21 18.12 165.97 17.73 167.38 17.54 167.74 17.35 170.56 17.06 170.91 17.06 171.27 17.06 172.33 16.68 172.68 16.58 173.03 16.39 173.74 16.2 174.44 16.2 175.15 16.01 178.33 15.34 179.38 15.34 179.74 15.34 180.09 15.15 180.44 15.15 180.8 14.86 181.15 14.86 181.5 14.86 181.85 14.76" id="fig-e8ebb74a977243e19f323de170527fb0-element-68"/>
      </g>
      <g stroke-width="0.79" fill="#000000" fill-opacity="0.000" class="geometry color_0.3" stroke="#D4CA3A" id="fig-e8ebb74a977243e19f323de170527fb0-element-69">
        <path fill="none" d="M21.63,45.72 L 21.98 45.72 22.34 45.62 22.69 45.62 23.04 45.62 23.4 45.62 23.75 45.62 24.1 45.52 24.81 45.52 25.16 45.43 25.87 45.33 26.57 45.14 26.93 45.14 27.63 45.14 27.98 45.04 30.45 44.66 31.51 44.66 32.22 44.66 34.69 44.57 35.04 44.37 35.4 44.28 35.75 44.28 36.1 44.28 36.45 44.28 36.81 44.28 37.16 44.28 37.51 44.28 37.87 44.28 38.22 44.28 38.57 43.99 39.28 43.89 39.63 43.89 39.98 43.89 40.34 43.7 40.69 43.7 41.04 43.7 41.39 43.61 41.75 43.61 42.1 43.61 42.45 43.61 42.81 43.61 43.16 43.51 43.51 43.51 43.87 47.34 44.22 43.42 44.57 43.32 44.92 43.22 47.04 42.65 47.39 42.55 47.75 42.46 48.1 42.36 48.45 42.17 48.81 42.17 49.16 41.98 49.51 41.98 49.86 41.88 50.22 41.79 50.92 41.79 51.28 41.59 51.63 41.59 51.98 41.59 52.34 41.59 52.69 41.59 53.04 41.31 53.39 41.31 54.1 41.21 54.45 41.02 54.81 40.92 55.16 40.83 55.51 40.83 55.86 40.64 56.57 40.54 56.92 40.25 57.28 40.25 57.63 40.25 58.33 39.77 59.04 39.49 59.39 39.49 59.75 39.39 60.1 39.39 61.16 39.29 61.51 39.29 61.86 39.2 62.22 39.2 62.57 39.2 62.92 39.1 63.28 39.01 63.63 38.91 64.33 38.91 64.69 38.91 65.39 38.91 65.75 38.82 66.1 38.53 66.45 38.53 67.16 38.43 67.51 38.43 67.86 38.24 68.22 38.14 68.57 38.05 68.92 37.95 69.27 37.86 69.63 37.67 69.98 37.67 70.33 37.57 70.69 37.47 71.04 37.47 71.39 37.47 72.1 37.19 72.45 37.19 72.8 37.09 73.16 37.09 73.51 37.09 73.86 36.8 74.22 36.71 74.57 36.61 75.27 37.76 75.63 37.47 76.33 37.28 76.69 37.28 77.04 37.28 78.45 37.28 79.51 36.71 79.86 36.61 80.22 36.52 80.57 36.32 80.92 36.32 81.27 36.32 81.63 35.56 81.98 35.56 82.33 35.56 83.04 35.56 83.39 35.46 83.74 35.37 84.1 35.37 84.45 35.37 84.8 35.27 85.16 35.27 85.86 35.37 86.21 35.27 86.57 35.27 86.92 35.08 87.27 33.16 87.63 34.89 87.98 34.89 88.33 34.69 89.39 34.5 89.74 34.5 90.1 34.31 90.45 34.22 90.8 34.22 91.16 34.22 91.51 34.02 91.86 34.02 92.21 33.93 92.57 33.83 92.92 33.83 93.27 33.83 93.63 33.83 93.98 33.74 94.33 33.54 94.68 33.54 95.04 33.54 95.39 33.45 95.74 33.45 96.1 33.35 96.45 33.35 96.8 33.16 97.16 33.07 97.51 33.07 97.86 32.97 98.21 32.97 98.57 32.97 98.92 32.87 99.27 32.87 99.63 32.78 100.68 32.78 102.45 32.3 102.8 32.11 103.15 32.11 103.51 32.01 103.86 32.01 104.21 31.72 104.57 31.72 105.98 31.24 106.33 31.24 108.1 31.15 108.8 31.15 109.15 31.05 109.51 30.96 109.86 30.96 110.21 30.96 110.57 30.77 110.92 30.67 111.98 30.48 112.33 30.38 113.04 30.1 113.39 30 113.74 30 114.8 30 115.51 29.81 116.57 29.62 117.98 29.42 118.68 29.14 119.74 28.75 122.21 28.18 123.62 27.51 123.98 27.32 124.33 27.32 124.68 26.84 125.04 26.84 125.39 26.84 126.09 26.84 126.45 26.65 126.8 26.65 127.15 26.36 127.51 26.26 127.86 26.26 128.21 26.26 128.92 25.97 129.27 25.78 129.62 25.69 131.03 24.92 131.39 25.11 131.74 25.11 132.45 24.82 133.15 24.54 133.51 24.54 134.56 24.35 136.33 24.35 138.09 23.77 139.86 23.39 140.21 23.39 140.56 23.39 140.92 23.2 141.27 23.2 141.97 23.2 142.68 23.2 144.09 23 144.45 22.81 144.8 22.72 145.15 22.72 145.5 22.52 145.86 22.62 146.21 22.43 150.44 22.33 151.15 22.33 151.5 22.05 152.21 22.05 153.62 21.95 154.33 21.95 155.03 21.66 156.44 21.66 157.15 21.47 157.5 21.37 158.21 20.9 158.56 20.9 158.91 20.8 159.27 20.51 159.62 20.51 159.97 20.42 160.68 20.32 161.03 20.22 161.74 20.22 162.44 20.03 162.8 19.75 163.15 19.65 163.86 19.46 164.21 19.36 165.97 18.98 167.38 18.79 167.74 18.6 170.56 18.21 170.91 18.21 171.27 18.21 172.33 17.92 172.68 17.83 173.03 17.73 173.74 17.54 174.44 17.54 175.15 17.45 178.33 16.97 179.38 17.06 179.74 17.06 180.09 16.87 180.44 16.87 180.8 16.68 181.15 16.68 181.5 16.68 181.85 16.58" id="fig-e8ebb74a977243e19f323de170527fb0-element-70"/>
      </g>
      <g stroke-width="0.79" fill="#000000" fill-opacity="0.000" class="geometry color_0.2" stroke="#00BFFF" id="fig-e8ebb74a977243e19f323de170527fb0-element-71">
        <path fill="none" d="M21.63,46.77 L 21.98 46.77 22.34 46.67 22.69 46.67 23.04 46.67 23.4 46.67 23.75 46.67 24.1 46.67 24.81 46.67 25.16 46.67 25.87 46.58 26.57 46.48 26.93 46.48 27.63 46.39 27.98 46.29 30.45 46.1 31.51 46.1 32.22 46.1 34.69 46 35.04 45.91 35.4 45.91 35.75 45.91 36.1 45.91 36.45 45.91 36.81 45.91 37.16 45.91 37.51 45.91 37.87 45.91 38.22 45.62 38.57 45.62 39.28 45.52 39.63 45.52 39.98 45.52 40.34 45.43 40.69 46.19 41.04 45.72 41.39 45.72 41.75 45.72 42.1 45.72 42.45 45.72 42.81 45.72 43.16 45.72 43.51 45.72 43.87 45.62 44.22 45.62 44.57 45.52 44.92 45.52 47.04 45.04 47.39 45.04 47.75 44.95 48.1 44.85 48.45 44.66 48.81 44.66 49.16 44.66 49.51 44.66 49.86 44.66 50.22 44.57 50.92 44.57 51.28 44.37 51.63 44.37 51.98 44.37 52.34 44.37 52.69 44.37 53.04 44.09 53.39 44.09 54.1 43.99 54.45 43.8 54.81 43.7 55.16 43.61 55.51 43.61 55.86 43.61 56.57 43.42 56.92 43.32 57.28 43.22 57.63 43.22 58.33 43.03 59.04 42.84 59.39 42.84 59.75 42.84 60.1 42.84 61.16 42.84 61.51 42.84 61.86 42.74 62.22 42.74 62.57 42.74 62.92 42.65 63.28 42.65 63.63 42.65 64.33 42.55 64.69 42.55 65.39 42.55 65.75 42.55 66.1 42.27 66.45 42.27 67.16 42.46 67.51 42.46 67.86 42.27 68.22 42.17 68.57 42.17 68.92 41.98 69.27 41.98" id="fig-e8ebb74a977243e19f323de170527fb0-element-72"/>
      </g>
    </g>
  </g>
  <g class="guide ylabels" font-size="2.82" font-family="'PT Sans Caption','Helvetica Neue','Helvetica',sans-serif" fill="#6C606B" id="fig-e8ebb74a977243e19f323de170527fb0-element-73">
    <text x="18.63" y="54.91" text-anchor="end" dy="0.35em" id="fig-e8ebb74a977243e19f323de170527fb0-element-74">200</text>
    <text x="18.63" y="45.33" text-anchor="end" dy="0.35em" id="fig-e8ebb74a977243e19f323de170527fb0-element-75">300</text>
    <text x="18.63" y="35.75" text-anchor="end" dy="0.35em" id="fig-e8ebb74a977243e19f323de170527fb0-element-76">400</text>
    <text x="18.63" y="26.17" text-anchor="end" dy="0.35em" id="fig-e8ebb74a977243e19f323de170527fb0-element-77">500</text>
    <text x="18.63" y="16.58" text-anchor="end" dy="0.35em" id="fig-e8ebb74a977243e19f323de170527fb0-element-78">600</text>
    <text x="18.63" y="7" text-anchor="end" dy="0.35em" id="fig-e8ebb74a977243e19f323de170527fb0-element-79">700</text>
  </g>
</g>
<defs>
<clipPath id="fig-e8ebb74a977243e19f323de170527fb0-element-18">
  <path d="M19.63,5 L 183.85 5 183.85 56.92 19.63 56.92" />
</clipPath
></defs>
</svg>
