<?xml version="1.0" encoding="UTF-8"?>
<svg xmlns="http://www.w3.org/2000/svg"
     xmlns:xlink="http://www.w3.org/1999/xlink"
     xmlns:gadfly="http://www.gadflyjl.org/ns"
     version="1.2"
     width="203.2mm" height="76.2mm" viewBox="0 0 203.2 76.2"
     stroke="none"
     fill="#000000"
     stroke-width="0.3"
     font-size="3.88"
>
<g class="plotroot xscalable yscalable" id="fig-d4990f8358844f05aaca70691e2fef33-element-1">
  <g font-size="3.88" font-family="'PT Sans','Helvetica Neue','Helvetica',sans-serif" fill="#564A55" stroke="#000000" stroke-opacity="0.000" id="fig-d4990f8358844f05aaca70691e2fef33-element-2">
    <text x="101.74" y="64.59" text-anchor="middle" dy="0.6em">Date</text>
  </g>
  <g class="guide xlabels" font-size="2.82" font-family="'PT Sans Caption','Helvetica Neue','Helvetica',sans-serif" fill="#6C606B" id="fig-d4990f8358844f05aaca70691e2fef33-element-3">
    <text x="22.32" y="57.92" text-anchor="middle" dy="0.6em">Apr</text>
    <text x="32.63" y="57.92" text-anchor="middle" dy="0.6em">May</text>
    <text x="43.29" y="57.92" text-anchor="middle" dy="0.6em">Jun</text>
    <text x="53.61" y="57.92" text-anchor="middle" dy="0.6em">Jul</text>
    <text x="64.27" y="57.92" text-anchor="middle" dy="0.6em">Aug</text>
    <text x="74.92" y="57.92" text-anchor="middle" dy="0.6em">Sep</text>
    <text x="85.24" y="57.92" text-anchor="middle" dy="0.6em">Oct</text>
    <text x="95.9" y="57.92" text-anchor="middle" dy="0.6em">Nov</text>
    <text x="106.21" y="57.92" text-anchor="middle" dy="0.6em">Dec</text>
    <text x="116.87" y="57.92" text-anchor="middle" dy="0.6em">Jan 2015</text>
    <text x="127.53" y="57.92" text-anchor="middle" dy="0.6em">Feb</text>
    <text x="137.16" y="57.92" text-anchor="middle" dy="0.6em">Mar</text>
    <text x="147.82" y="57.92" text-anchor="middle" dy="0.6em">Apr</text>
    <text x="158.13" y="57.92" text-anchor="middle" dy="0.6em">May</text>
    <text x="168.79" y="57.92" text-anchor="middle" dy="0.6em">Jun</text>
    <text x="179.1" y="57.92" text-anchor="middle" dy="0.6em">Jul</text>
  </g>
  <g class="guide colorkey" id="fig-d4990f8358844f05aaca70691e2fef33-element-4">
    <g fill="#4C404B" font-size="2.82" font-family="'PT Sans','Helvetica Neue','Helvetica',sans-serif" id="fig-d4990f8358844f05aaca70691e2fef33-element-5">
      <text x="187.67" y="29.14" dy="0.35em" id="fig-d4990f8358844f05aaca70691e2fef33-element-6" class="color_0.2">0.2</text>
      <text x="187.67" y="32.77" dy="0.35em" id="fig-d4990f8358844f05aaca70691e2fef33-element-7" class="color_0.3">0.3</text>
      <text x="187.67" y="36.4" dy="0.35em" id="fig-d4990f8358844f05aaca70691e2fef33-element-8" class="color_0.4">0.4</text>
    </g>
    <g stroke="#000000" stroke-opacity="0.000" id="fig-d4990f8358844f05aaca70691e2fef33-element-9">
      <rect x="184.85" y="28.24" width="1.81" height="1.81" id="fig-d4990f8358844f05aaca70691e2fef33-element-10" fill="#00BFFF" class="color_0.2"/>
      <rect x="184.85" y="31.86" width="1.81" height="1.81" id="fig-d4990f8358844f05aaca70691e2fef33-element-11" fill="#D4CA3A" class="color_0.3"/>
      <rect x="184.85" y="35.49" width="1.81" height="1.81" id="fig-d4990f8358844f05aaca70691e2fef33-element-12" fill="#FF5EA0" class="color_0.4"/>
    </g>
    <g fill="#362A35" font-size="3.88" font-family="'PT Sans','Helvetica Neue','Helvetica',sans-serif" stroke="#000000" stroke-opacity="0.000" id="fig-d4990f8358844f05aaca70691e2fef33-element-13">
      <text x="184.85" y="25.32" id="fig-d4990f8358844f05aaca70691e2fef33-element-14">Julia ver.</text>
    </g>
  </g>
  <g font-size="3.88" font-family="'PT Sans','Helvetica Neue','Helvetica',sans-serif" fill="#564A55" stroke="#000000" stroke-opacity="0.000" id="fig-d4990f8358844f05aaca70691e2fef33-element-15">
    <text x="8.81" y="28.96" text-anchor="middle" dy="0.35em" transform="rotate(-90, 8.81, 30.96)" id="fig-d4990f8358844f05aaca70691e2fef33-element-16">Number of Tagged Packages</text>
  </g>
  <g clip-path="url(#fig-d4990f8358844f05aaca70691e2fef33-element-18)" id="fig-d4990f8358844f05aaca70691e2fef33-element-17">
    <g pointer-events="visible" opacity="1" fill="#000000" fill-opacity="0.000" stroke="#000000" stroke-opacity="0.000" class="guide background" id="fig-d4990f8358844f05aaca70691e2fef33-element-19">
      <rect x="19.63" y="5" width="164.22" height="51.92" id="fig-d4990f8358844f05aaca70691e2fef33-element-20"/>
    </g>
    <g class="guide ygridlines xfixed" stroke-dasharray="0.5,0.5" stroke-width="0.2" stroke="#D0D0E0" id="fig-d4990f8358844f05aaca70691e2fef33-element-21">
      <path fill="none" d="M19.63,54.91 L 183.85 54.91" id="fig-d4990f8358844f05aaca70691e2fef33-element-22"/>
      <path fill="none" d="M19.63,45.33 L 183.85 45.33" id="fig-d4990f8358844f05aaca70691e2fef33-element-23"/>
      <path fill="none" d="M19.63,35.75 L 183.85 35.75" id="fig-d4990f8358844f05aaca70691e2fef33-element-24"/>
      <path fill="none" d="M19.63,26.17 L 183.85 26.17" id="fig-d4990f8358844f05aaca70691e2fef33-element-25"/>
      <path fill="none" d="M19.63,16.58 L 183.85 16.58" id="fig-d4990f8358844f05aaca70691e2fef33-element-26"/>
      <path fill="none" d="M19.63,7 L 183.85 7" id="fig-d4990f8358844f05aaca70691e2fef33-element-27"/>
    </g>
    <g class="guide xgridlines yfixed" stroke-dasharray="0.5,0.5" stroke-width="0.2" stroke="#D0D0E0" id="fig-d4990f8358844f05aaca70691e2fef33-element-28">
      <path fill="none" d="M22.32,5 L 22.32 56.92" id="fig-d4990f8358844f05aaca70691e2fef33-element-29"/>
      <path fill="none" d="M32.63,5 L 32.63 56.92" id="fig-d4990f8358844f05aaca70691e2fef33-element-30"/>
      <path fill="none" d="M43.29,5 L 43.29 56.92" id="fig-d4990f8358844f05aaca70691e2fef33-element-31"/>
      <path fill="none" d="M53.61,5 L 53.61 56.92" id="fig-d4990f8358844f05aaca70691e2fef33-element-32"/>
      <path fill="none" d="M64.27,5 L 64.27 56.92" id="fig-d4990f8358844f05aaca70691e2fef33-element-33"/>
      <path fill="none" d="M74.92,5 L 74.92 56.92" id="fig-d4990f8358844f05aaca70691e2fef33-element-34"/>
      <path fill="none" d="M85.24,5 L 85.24 56.92" id="fig-d4990f8358844f05aaca70691e2fef33-element-35"/>
      <path fill="none" d="M95.9,5 L 95.9 56.92" id="fig-d4990f8358844f05aaca70691e2fef33-element-36"/>
      <path fill="none" d="M106.21,5 L 106.21 56.92" id="fig-d4990f8358844f05aaca70691e2fef33-element-37"/>
      <path fill="none" d="M116.87,5 L 116.87 56.92" id="fig-d4990f8358844f05aaca70691e2fef33-element-38"/>
      <path fill="none" d="M127.53,5 L 127.53 56.92" id="fig-d4990f8358844f05aaca70691e2fef33-element-39"/>
      <path fill="none" d="M137.16,5 L 137.16 56.92" id="fig-d4990f8358844f05aaca70691e2fef33-element-40"/>
      <path fill="none" d="M147.82,5 L 147.82 56.92" id="fig-d4990f8358844f05aaca70691e2fef33-element-41"/>
      <path fill="none" d="M158.13,5 L 158.13 56.92" id="fig-d4990f8358844f05aaca70691e2fef33-element-42"/>
      <path fill="none" d="M168.79,5 L 168.79 56.92" id="fig-d4990f8358844f05aaca70691e2fef33-element-43"/>
      <path fill="none" d="M179.1,5 L 179.1 56.92" id="fig-d4990f8358844f05aaca70691e2fef33-element-44"/>
    </g>
    <g class="plotpanel" id="fig-d4990f8358844f05aaca70691e2fef33-element-45">
      <g class="geometry" stroke="#000000" stroke-opacity="0.000" fill="#4C404B" font-size="2.82" font-family="'PT Sans Caption','Helvetica Neue','Helvetica',sans-serif" id="fig-d4990f8358844f05aaca70691e2fef33-element-46">
        <text x="75.74" y="52.46" text-anchor="middle" dy="0.35em" id="fig-d4990f8358844f05aaca70691e2fef33-element-47" visibility="visible">v0.3.0</text>
        <text x="86.74" y="52.46" text-anchor="middle" dy="0.35em" id="fig-d4990f8358844f05aaca70691e2fef33-element-48" visibility="visible">v0.3.1</text>
        <text x="97.06" y="52.46" text-anchor="middle" dy="0.35em" id="fig-d4990f8358844f05aaca70691e2fef33-element-49" visibility="visible">v0.3.2</text>
        <text x="108.4" y="52.46" text-anchor="middle" dy="0.35em" id="fig-d4990f8358844f05aaca70691e2fef33-element-50" visibility="visible">v0.3.3</text>
        <text x="115.81" y="52.46" text-anchor="middle" dy="0.35em" id="fig-d4990f8358844f05aaca70691e2fef33-element-51" visibility="visible"></text>
        <text x="124.22" y="52.46" text-anchor="middle" dy="0.35em" id="fig-d4990f8358844f05aaca70691e2fef33-element-52" visibility="visible">v0.3.5</text>
        <text x="137.97" y="52.46" text-anchor="middle" dy="0.35em" id="fig-d4990f8358844f05aaca70691e2fef33-element-53" visibility="visible">v0.3.6</text>
        <text x="149.66" y="52.46" text-anchor="middle" dy="0.35em" id="fig-d4990f8358844f05aaca70691e2fef33-element-54" visibility="visible">v0.3.7</text>
        <text x="162.73" y="52.46" text-anchor="middle" dy="0.35em" id="fig-d4990f8358844f05aaca70691e2fef33-element-55" visibility="visible">v0.3.8</text>
        <text x="173.04" y="52.46" text-anchor="middle" dy="0.35em" id="fig-d4990f8358844f05aaca70691e2fef33-element-56" visibility="visible">v0.3.9</text>
      </g>
      <g class="yfixed" stroke-width="0.26" stroke="#333333" id="fig-d4990f8358844f05aaca70691e2fef33-element-57">
        <path fill="none" d="M70.8,5 L 70.8 56.92" id="fig-d4990f8358844f05aaca70691e2fef33-element-58"/>
        <path fill="none" d="M81.8,5 L 81.8 56.92" id="fig-d4990f8358844f05aaca70691e2fef33-element-59"/>
        <path fill="none" d="M92.12,5 L 92.12 56.92" id="fig-d4990f8358844f05aaca70691e2fef33-element-60"/>
        <path fill="none" d="M103.46,5 L 103.46 56.92" id="fig-d4990f8358844f05aaca70691e2fef33-element-61"/>
        <path fill="none" d="M114.81,5 L 114.81 56.92" id="fig-d4990f8358844f05aaca70691e2fef33-element-62"/>
        <path fill="none" d="M119.28,5 L 119.28 56.92" id="fig-d4990f8358844f05aaca70691e2fef33-element-63"/>
        <path fill="none" d="M133.03,5 L 133.03 56.92" id="fig-d4990f8358844f05aaca70691e2fef33-element-64"/>
        <path fill="none" d="M144.72,5 L 144.72 56.92" id="fig-d4990f8358844f05aaca70691e2fef33-element-65"/>
        <path fill="none" d="M157.79,5 L 157.79 56.92" id="fig-d4990f8358844f05aaca70691e2fef33-element-66"/>
        <path fill="none" d="M168.1,5 L 168.1 56.92" id="fig-d4990f8358844f05aaca70691e2fef33-element-67"/>
      </g>
      <g stroke-width="0.79" fill="#000000" fill-opacity="0.000" class="geometry color_0.4" stroke="#FF5EA0" id="fig-d4990f8358844f05aaca70691e2fef33-element-68">
        <path fill="none" d="M68.39,39.2 L 68.74 38.91 69.08 38.82 69.42 38.72 69.77 38.72 70.11 38.72 70.8 38.43 71.14 38.43 71.49 38.34 71.83 38.34 72.17 38.34 72.52 38.05 72.86 37.86 73.21 37.86 73.89 37.67 74.24 37.38 74.92 37.19 75.27 37.19 75.61 37.19 76.99 37.19 78.02 36.61 78.36 36.52 78.71 36.42 79.05 36.23 79.39 36.23 79.74 36.23 80.08 35.46 80.43 35.46 80.77 35.46 81.46 35.37 81.8 35.37 82.14 35.27 82.49 35.27 82.83 35.27 83.18 35.17 83.52 35.17 84.21 35.27 84.55 35.17 84.9 35.17 85.24 34.98 85.58 34.79 85.93 34.79 86.27 34.79 86.61 34.6 87.65 34.41 87.99 34.41 88.33 34.22 88.68 34.12 89.02 34.12 89.37 34.12 89.71 33.93 90.05 33.93 90.4 33.83 90.74 33.74 91.08 33.74 91.43 33.74 91.77 33.74 92.12 33.54 92.46 33.35 92.8 33.35 93.15 33.35 93.49 33.26 93.83 33.26 94.18 33.16 94.52 33.16 94.87 32.97 95.21 32.87 95.55 32.87 95.9 32.78 96.24 32.78 96.59 32.78 96.93 32.78 97.27 32.68 97.62 32.59 98.65 32.59 100.37 32.01 100.71 31.82 101.06 31.82 101.4 31.72 101.74 31.72 102.09 31.44 102.43 31.44 103.81 30.96 104.15 30.96 105.87 30.86 106.56 30.86 106.9 30.67 107.24 30.57 107.59 30.57 107.93 30.57 108.28 30.38 108.62 30.19 109.65 30.1 109.99 30 110.68 29.62 111.03 29.62 111.37 29.62 112.4 29.62 113.09 29.42 114.12 29.23 115.5 29.04 116.18 28.66 117.22 28.47 119.62 27.8 121 27.12 121.34 26.93 121.68 26.93 122.03 26.36 122.37 26.36 122.72 26.36 123.4 26.26 123.75 26.17 124.09 26.17 124.44 25.88 124.78 25.78 125.12 25.78 125.47 25.78 126.15 25.5 126.5 25.21 126.84 25.11 128.22 24.35 128.56 24.35 128.91 24.63 129.59 24.35 130.28 24.06 130.62 24.06 131.66 23.87 133.37 23.87 135.09 23.77 136.81 22.91 137.16 22.91 137.5 22.91 137.84 22.72 138.19 22.72 138.88 22.52 139.56 22.52 140.94 22.43 141.28 22.24 141.63 22.24 141.97 22.24 142.31 22.05 142.66 22.14 143 21.95 147.13 21.57 147.82 21.57 148.16 21.28 148.85 21.28 150.22 21.18 150.91 21.09 151.6 20.8 152.97 20.61 153.66 20.42 154 20.13 154.69 19.65 155.04 19.65 155.38 19.55 155.72 19.36 156.07 19.36 156.41 19.27 157.1 19.17 157.44 18.98 158.13 18.98 158.82 18.79 159.16 18.5 159.51 18.4 160.19 18.21 160.54 18.12 162.26 17.73 163.63 17.54 163.98 17.35 166.73 17.06 167.07 17.06 167.41 17.06 168.44 16.68 168.79 16.58 169.13 16.39 169.82 16.2 170.51 16.2 171.2 16.01 174.29 15.34 175.32 15.34 175.67 15.34 176.01 15.15 176.35 15.15 176.7 14.86 177.04 14.86 177.38 14.86 177.73 14.76 178.76 14.67 179.45 14.47 180.14 14.47 180.48 14.28 180.82 13.9 181.17 13.71 181.51 13.61 181.85 13.61" id="fig-d4990f8358844f05aaca70691e2fef33-element-69"/>
      </g>
      <g stroke-width="0.79" fill="#000000" fill-opacity="0.000" class="geometry color_0.3" stroke="#D4CA3A" id="fig-d4990f8358844f05aaca70691e2fef33-element-70">
        <path fill="none" d="M21.63,45.72 L 21.98 45.72 22.32 45.62 22.66 45.62 23.01 45.62 23.35 45.62 23.69 45.62 24.04 45.52 24.73 45.52 25.07 45.43 25.76 45.33 26.45 45.14 26.79 45.14 27.48 45.14 27.82 45.04 30.23 44.66 31.26 44.66 31.95 44.66 34.35 44.57 34.7 44.37 35.04 44.28 35.38 44.28 35.73 44.28 36.07 44.28 36.42 44.28 36.76 44.28 37.1 44.28 37.45 44.28 37.79 44.28 38.14 43.99 38.82 43.89 39.17 43.89 39.51 43.89 39.85 43.7 40.2 43.7 40.54 43.7 40.89 43.61 41.23 43.61 41.57 43.61 41.92 43.61 42.26 43.61 42.6 43.51 42.95 43.51 43.29 47.34 43.64 43.42 43.98 43.32 44.32 43.22 46.39 42.65 46.73 42.55 47.07 42.46 47.42 42.36 47.76 42.17 48.11 42.17 48.45 41.98 48.79 41.98 49.14 41.88 49.48 41.79 50.17 41.79 50.51 41.59 50.86 41.59 51.2 41.59 51.54 41.59 51.89 41.59 52.23 41.31 52.58 41.31 53.26 41.21 53.61 41.02 53.95 40.92 54.3 40.83 54.64 40.83 54.98 40.64 55.67 40.54 56.01 40.25 56.36 40.25 56.7 40.25 57.39 39.77 58.08 39.49 58.42 39.49 58.76 39.39 59.11 39.39 60.14 39.29 60.48 39.29 60.83 39.2 61.17 39.2 61.52 39.2 61.86 39.1 62.2 39.01 62.55 38.91 63.23 38.91 63.58 38.91 64.27 38.91 64.61 38.82 64.95 38.53 65.3 38.53 65.99 38.43 66.33 38.43 66.67 38.24 67.02 38.14 67.36 38.05 67.7 37.95 68.05 37.86 68.39 37.67 68.74 37.67 69.08 37.57 69.42 37.47 69.77 37.47 70.11 37.47 70.8 37.19 71.14 37.19 71.49 37.09 71.83 37.09 72.17 37.09 72.52 36.8 72.86 36.71 73.21 36.61 73.89 37.76 74.24 37.47 74.92 37.28 75.27 37.28 75.61 37.28 76.99 37.28 78.02 36.71 78.36 36.61 78.71 36.52 79.05 36.32 79.39 36.32 79.74 36.32 80.08 35.56 80.43 35.56 80.77 35.56 81.46 35.56 81.8 35.46 82.14 35.37 82.49 35.37 82.83 35.37 83.18 35.27 83.52 35.27 84.21 35.37 84.55 35.27 84.9 35.27 85.24 35.08 85.58 33.16 85.93 34.89 86.27 34.89 86.61 34.69 87.65 34.5 87.99 34.5 88.33 34.31 88.68 34.22 89.02 34.22 89.37 34.22 89.71 34.02 90.05 34.02 90.4 33.93 90.74 33.83 91.08 33.83 91.43 33.83 91.77 33.83 92.12 33.74 92.46 33.54 92.8 33.54 93.15 33.54 93.49 33.45 93.83 33.45 94.18 33.35 94.52 33.35 94.87 33.16 95.21 33.07 95.55 33.07 95.9 32.97 96.24 32.97 96.59 32.97 96.93 32.87 97.27 32.87 97.62 32.78 98.65 32.78 100.37 32.3 100.71 32.11 101.06 32.11 101.4 32.01 101.74 32.01 102.09 31.72 102.43 31.72 103.81 31.24 104.15 31.24 105.87 31.15 106.56 31.15 106.9 31.05 107.24 30.96 107.59 30.96 107.93 30.96 108.28 30.77 108.62 30.67 109.65 30.48 109.99 30.38 110.68 30.1 111.03 30 111.37 30 112.4 30 113.09 29.81 114.12 29.62 115.5 29.42 116.18 29.14 117.22 28.75 119.62 28.18 121 27.51 121.34 27.32 121.68 27.32 122.03 26.84 122.37 26.84 122.72 26.84 123.4 26.84 123.75 26.65 124.09 26.65 124.44 26.36 124.78 26.26 125.12 26.26 125.47 26.26 126.15 25.97 126.5 25.78 126.84 25.69 128.22 24.92 128.56 25.11 128.91 25.11 129.59 24.82 130.28 24.54 130.62 24.54 131.66 24.35 133.37 24.35 135.09 23.77 136.81 23.39 137.16 23.39 137.5 23.39 137.84 23.2 138.19 23.2 138.88 23.2 139.56 23.2 140.94 23 141.28 22.81 141.63 22.72 141.97 22.72 142.31 22.52 142.66 22.62 143 22.43 147.13 22.33 147.82 22.33 148.16 22.05 148.85 22.05 150.22 21.95 150.91 21.95 151.6 21.66 152.97 21.66 153.66 21.47 154 21.37 154.69 20.9 155.04 20.9 155.38 20.8 155.72 20.51 156.07 20.51 156.41 20.42 157.1 20.32 157.44 20.22 158.13 20.22 158.82 20.03 159.16 19.75 159.51 19.65 160.19 19.46 160.54 19.36 162.26 18.98 163.63 18.79 163.98 18.6 166.73 18.21 167.07 18.21 167.41 18.21 168.44 17.92 168.79 17.83 169.13 17.73 169.82 17.54 170.51 17.54 171.2 17.45 174.29 16.97 175.32 17.06 175.67 17.06 176.01 16.87 176.35 16.87 176.7 16.68 177.04 16.68 177.38 16.68 177.73 16.58 178.76 16.58 179.45 16.39 180.14 16.49 180.48 16.3 180.82 15.91 181.17 15.72 181.51 15.62 181.85 15.62" id="fig-d4990f8358844f05aaca70691e2fef33-element-71"/>
      </g>
      <g stroke-width="0.79" fill="#000000" fill-opacity="0.000" class="geometry color_0.2" stroke="#00BFFF" id="fig-d4990f8358844f05aaca70691e2fef33-element-72">
        <path fill="none" d="M21.63,46.77 L 21.98 46.77 22.32 46.67 22.66 46.67 23.01 46.67 23.35 46.67 23.69 46.67 24.04 46.67 24.73 46.67 25.07 46.67 25.76 46.58 26.45 46.48 26.79 46.48 27.48 46.39 27.82 46.29 30.23 46.1 31.26 46.1 31.95 46.1 34.35 46 34.7 45.91 35.04 45.91 35.38 45.91 35.73 45.91 36.07 45.91 36.42 45.91 36.76 45.91 37.1 45.91 37.45 45.91 37.79 45.62 38.14 45.62 38.82 45.52 39.17 45.52 39.51 45.52 39.85 45.43 40.2 46.19 40.54 45.72 40.89 45.72 41.23 45.72 41.57 45.72 41.92 45.72 42.26 45.72 42.6 45.72 42.95 45.72 43.29 45.62 43.64 45.62 43.98 45.52 44.32 45.52 46.39 45.04 46.73 45.04 47.07 44.95 47.42 44.85 47.76 44.66 48.11 44.66 48.45 44.66 48.79 44.66 49.14 44.66 49.48 44.57 50.17 44.57 50.51 44.37 50.86 44.37 51.2 44.37 51.54 44.37 51.89 44.37 52.23 44.09 52.58 44.09 53.26 43.99 53.61 43.8 53.95 43.7 54.3 43.61 54.64 43.61 54.98 43.61 55.67 43.42 56.01 43.32 56.36 43.22 56.7 43.22 57.39 43.03 58.08 42.84 58.42 42.84 58.76 42.84 59.11 42.84 60.14 42.84 60.48 42.84 60.83 42.74 61.17 42.74 61.52 42.74 61.86 42.65 62.2 42.65 62.55 42.65 63.23 42.55 63.58 42.55 64.27 42.55 64.61 42.55 64.95 42.27 65.3 42.27 65.99 42.46 66.33 42.46 66.67 42.27 67.02 42.17 67.36 42.17 67.7 41.98 68.05 41.98" id="fig-d4990f8358844f05aaca70691e2fef33-element-73"/>
      </g>
    </g>
  </g>
  <g class="guide ylabels" font-size="2.82" font-family="'PT Sans Caption','Helvetica Neue','Helvetica',sans-serif" fill="#6C606B" id="fig-d4990f8358844f05aaca70691e2fef33-element-74">
    <text x="18.63" y="54.91" text-anchor="end" dy="0.35em" id="fig-d4990f8358844f05aaca70691e2fef33-element-75">200</text>
    <text x="18.63" y="45.33" text-anchor="end" dy="0.35em" id="fig-d4990f8358844f05aaca70691e2fef33-element-76">300</text>
    <text x="18.63" y="35.75" text-anchor="end" dy="0.35em" id="fig-d4990f8358844f05aaca70691e2fef33-element-77">400</text>
    <text x="18.63" y="26.17" text-anchor="end" dy="0.35em" id="fig-d4990f8358844f05aaca70691e2fef33-element-78">500</text>
    <text x="18.63" y="16.58" text-anchor="end" dy="0.35em" id="fig-d4990f8358844f05aaca70691e2fef33-element-79">600</text>
    <text x="18.63" y="7" text-anchor="end" dy="0.35em" id="fig-d4990f8358844f05aaca70691e2fef33-element-80">700</text>
  </g>
</g>
<defs>
<clipPath id="fig-d4990f8358844f05aaca70691e2fef33-element-18">
  <path d="M19.63,5 L 183.85 5 183.85 56.92 19.63 56.92" />
</clipPath
></defs>
</svg>
