<?xml version="1.0" encoding="UTF-8"?>
<svg xmlns="http://www.w3.org/2000/svg"
     xmlns:xlink="http://www.w3.org/1999/xlink"
     xmlns:gadfly="http://www.gadflyjl.org/ns"
     version="1.2"
     width="203.2mm" height="76.2mm" viewBox="0 0 203.2 76.2"
     stroke="none"
     fill="#000000"
     stroke-width="0.3"
     font-size="3.88"
>
<g class="plotroot xscalable yscalable" id="fig-60b1a2043b4f4b618e1b1ac0a0916a9b-element-1">
  <g font-size="3.88" font-family="'PT Sans','Helvetica Neue','Helvetica',sans-serif" fill="#564A55" stroke="none" id="fig-60b1a2043b4f4b618e1b1ac0a0916a9b-element-2">
    <text x="101.74" y="68.2" text-anchor="middle">Date</text>
  </g>
  <g class="guide xlabels" font-size="2.82" font-family="'PT Sans Caption','Helvetica Neue','Helvetica',sans-serif" fill="#6C606B" id="fig-60b1a2043b4f4b618e1b1ac0a0916a9b-element-3">
    <text x="23.31" y="62.59" text-anchor="middle">Apr</text>
    <text x="45.41" y="62.59" text-anchor="middle">May</text>
    <text x="68.24" y="62.59" text-anchor="middle">June</text>
    <text x="90.33" y="62.59" text-anchor="middle">July</text>
    <text x="113.16" y="62.59" text-anchor="middle">Aug</text>
    <text x="135.99" y="62.59" text-anchor="middle">Sept</text>
    <text x="158.08" y="62.59" text-anchor="middle">Oct</text>
    <text x="180.91" y="62.59" text-anchor="middle">Nev</text>
  </g>
  <g class="guide colorkey" id="fig-60b1a2043b4f4b618e1b1ac0a0916a9b-element-4">
    <g fill="#4C404B" font-size="2.82" font-family="'PT Sans','Helvetica Neue','Helvetica',sans-serif" id="fig-60b1a2043b4f4b618e1b1ac0a0916a9b-element-5">
      <text x="187.67" y="30.14" dy="0.35em" id="fig-60b1a2043b4f4b618e1b1ac0a0916a9b-element-6" class="color_0.2">0.2</text>
      <text x="187.67" y="33.77" dy="0.35em" id="fig-60b1a2043b4f4b618e1b1ac0a0916a9b-element-7" class="color_0.3">0.3</text>
      <text x="187.67" y="37.4" dy="0.35em" id="fig-60b1a2043b4f4b618e1b1ac0a0916a9b-element-8" class="color_0.4">0.4</text>
    </g>
    <g stroke="none" id="fig-60b1a2043b4f4b618e1b1ac0a0916a9b-element-9">
      <rect x="184.85" y="29.24" width="1.81" height="1.81" id="fig-60b1a2043b4f4b618e1b1ac0a0916a9b-element-10" class="color_0.2" fill="#00BFFF"/>
      <rect x="184.85" y="32.86" width="1.81" height="1.81" id="fig-60b1a2043b4f4b618e1b1ac0a0916a9b-element-11" class="color_0.3" fill="#D4CA3A"/>
      <rect x="184.85" y="36.49" width="1.81" height="1.81" id="fig-60b1a2043b4f4b618e1b1ac0a0916a9b-element-12" class="color_0.4" fill="#FF5EA0"/>
    </g>
    <g fill="#362A35" font-size="3.88" font-family="'PT Sans','Helvetica Neue','Helvetica',sans-serif" stroke="none" id="fig-60b1a2043b4f4b618e1b1ac0a0916a9b-element-13">
      <text x="184.85" y="26.32" id="fig-60b1a2043b4f4b618e1b1ac0a0916a9b-element-14">Julia ver.</text>
    </g>
  </g>
  <g font-size="3.88" font-family="'PT Sans','Helvetica Neue','Helvetica',sans-serif" fill="#564A55" stroke="none" id="fig-60b1a2043b4f4b618e1b1ac0a0916a9b-element-15">
    <text x="8.81" y="29.96" text-anchor="middle" dy="0.35em" transform="rotate(-90, 8.81, 31.96)" id="fig-60b1a2043b4f4b618e1b1ac0a0916a9b-element-16">Number of Tagged Packages</text>
  </g>
  <g clip-path="url(#fig-60b1a2043b4f4b618e1b1ac0a0916a9b-element-18)" id="fig-60b1a2043b4f4b618e1b1ac0a0916a9b-element-17">
    <g pointer-events="visible" opacity="1" fill="none" stroke="none" class="guide background" id="fig-60b1a2043b4f4b618e1b1ac0a0916a9b-element-19">
      <rect x="19.63" y="5" width="164.22" height="53.91" id="fig-60b1a2043b4f4b618e1b1ac0a0916a9b-element-20"/>
    </g>
    <g class="guide ygridlines xfixed" stroke-dasharray="0.5,0.5" stroke-width="0.2" stroke="#D0D0E0" id="fig-60b1a2043b4f4b618e1b1ac0a0916a9b-element-21">
      <path fill="none" d="M19.63,56.91 L 183.85 56.91" id="fig-60b1a2043b4f4b618e1b1ac0a0916a9b-element-22"/>
      <path fill="none" d="M19.63,44.44 L 183.85 44.44" id="fig-60b1a2043b4f4b618e1b1ac0a0916a9b-element-23"/>
      <path fill="none" d="M19.63,31.96 L 183.85 31.96" id="fig-60b1a2043b4f4b618e1b1ac0a0916a9b-element-24"/>
      <path fill="none" d="M19.63,19.48 L 183.85 19.48" id="fig-60b1a2043b4f4b618e1b1ac0a0916a9b-element-25"/>
      <path fill="none" d="M19.63,7 L 183.85 7" id="fig-60b1a2043b4f4b618e1b1ac0a0916a9b-element-26"/>
    </g>
    <g class="guide xgridlines yfixed" stroke-dasharray="0.5,0.5" stroke-width="0.2" stroke="#D0D0E0" id="fig-60b1a2043b4f4b618e1b1ac0a0916a9b-element-27">
      <path fill="none" d="M23.31,5 L 23.31 58.91" id="fig-60b1a2043b4f4b618e1b1ac0a0916a9b-element-28"/>
      <path fill="none" d="M45.41,5 L 45.41 58.91" id="fig-60b1a2043b4f4b618e1b1ac0a0916a9b-element-29"/>
      <path fill="none" d="M68.24,5 L 68.24 58.91" id="fig-60b1a2043b4f4b618e1b1ac0a0916a9b-element-30"/>
      <path fill="none" d="M90.33,5 L 90.33 58.91" id="fig-60b1a2043b4f4b618e1b1ac0a0916a9b-element-31"/>
      <path fill="none" d="M113.16,5 L 113.16 58.91" id="fig-60b1a2043b4f4b618e1b1ac0a0916a9b-element-32"/>
      <path fill="none" d="M135.99,5 L 135.99 58.91" id="fig-60b1a2043b4f4b618e1b1ac0a0916a9b-element-33"/>
      <path fill="none" d="M158.08,5 L 158.08 58.91" id="fig-60b1a2043b4f4b618e1b1ac0a0916a9b-element-34"/>
      <path fill="none" d="M180.91,5 L 180.91 58.91" id="fig-60b1a2043b4f4b618e1b1ac0a0916a9b-element-35"/>
    </g>
    <g class="plotpanel" id="fig-60b1a2043b4f4b618e1b1ac0a0916a9b-element-36">
      <g stroke-width="0.79" fill="none" class="geometry color_0.4" stroke="#FF5EA0" id="fig-60b1a2043b4f4b618e1b1ac0a0916a9b-element-37">
        <path fill="none" d="M121.99,28.46 L 122.73 27.71 123.47 27.47 124.2 27.22 124.94 27.22 125.68 27.22 127.15 26.47 127.89 26.47 128.62 26.22 129.36 26.22 130.1 26.22 130.83 25.47 131.57 24.97 132.3 24.97 133.78 24.47 134.51 23.72 135.99 23.22 136.72 23.22 137.46 23.22 140.41 23.22 142.61 21.72 143.35 21.48 144.09 21.23 144.82 20.73 145.56 20.73 146.3 20.73 147.03 18.73 147.77 18.73 148.51 18.73 149.98 18.48 150.72 18.48 151.45 18.23 152.19 18.23 152.92 18.23 153.66 17.98 154.4 17.98 155.87 18.23 156.61 17.98 157.34 17.98 158.08 17.48 158.82 16.98 159.55 16.98 160.29 16.98 161.03 16.48 163.23 15.98 163.97 15.98 164.71 15.49 165.44 15.24 166.18 15.24 166.92 15.24 167.65 14.74 168.39 14.74 169.13 14.49 169.86 14.24 170.6 14.24 171.33 14.24 172.07 14.24 172.81 13.74 173.54 13.24 174.28 13.24 175.02 13.24 175.75 12.99 176.49 12.99 177.23 12.74 177.96 12.74 178.7 12.24 179.44 11.99 180.17 11.99 180.91 11.74 181.64 11.74 182.38 11.74" id="fig-60b1a2043b4f4b618e1b1ac0a0916a9b-element-38"/>
      </g>
      <g stroke-width="0.79" fill="none" class="geometry color_0.3" stroke="#D4CA3A" id="fig-60b1a2043b4f4b618e1b1ac0a0916a9b-element-39">
        <path fill="none" d="M21.84,45.43 L 22.58 45.43 23.31 45.18 24.05 45.18 24.79 45.18 25.52 45.18 26.26 45.18 27 44.94 28.47 44.94 29.21 44.69 30.68 44.44 32.15 43.94 32.89 43.94 34.36 43.94 35.1 43.69 40.25 42.69 42.46 42.69 43.93 42.69 49.09 42.44 49.83 41.94 50.56 41.69 51.3 41.69 52.03 41.69 52.77 41.69 53.51 41.69 54.24 41.69 54.98 41.69 55.72 41.69 56.45 41.69 57.19 40.94 58.66 40.69 59.4 40.69 60.13 40.69 60.87 40.19 61.61 40.19 62.34 40.19 63.08 39.94 63.82 39.94 64.55 39.94 65.29 39.94 66.03 39.94 66.76 39.69 67.5 39.69 68.24 49.68 68.97 39.44 69.71 39.2 70.44 38.95 74.86 37.45 75.6 37.2 76.34 36.95 77.07 36.7 77.81 36.2 78.55 36.2 79.28 35.7 80.02 35.7 80.75 35.45 81.49 35.2 82.96 35.2 83.7 34.7 84.44 34.7 85.17 34.7 85.91 34.7 86.65 34.7 87.38 33.95 88.12 33.95 89.59 33.7 90.33 33.21 91.06 32.96 91.8 32.71 92.54 32.71 93.27 32.21 94.75 31.96 95.48 31.21 96.22 31.21 96.96 31.21 98.43 29.96 99.9 29.21 100.64 29.21 101.37 28.96 102.11 28.96 104.32 28.71 105.06 28.71 105.79 28.46 106.53 28.46 107.27 28.46 108 28.21 108.74 27.96 109.48 27.71 110.95 27.71 111.68 27.71 113.16 27.71 113.89 27.47 114.63 26.72 115.37 26.72 116.84 26.47 117.58 26.47 118.31 25.97 119.05 25.72 119.79 25.47 120.52 25.22 121.26 24.97 121.99 24.47 122.73 24.47 123.47 24.22 124.2 23.97 124.94 23.97 125.68 23.97 127.15 23.22 127.89 23.22 128.62 22.97 129.36 22.97 130.1 22.97 130.83 22.22 131.57 21.97 132.3 21.72 133.78 24.72 134.51 23.97 135.99 23.47 136.72 23.47 137.46 23.47 140.41 23.47 142.61 21.97 143.35 21.72 144.09 21.48 144.82 20.98 145.56 20.98 146.3 20.98 147.03 18.98 147.77 18.98 148.51 18.98 149.98 18.98 150.72 18.73 151.45 18.48 152.19 18.48 152.92 18.48 153.66 18.23 154.4 18.23 155.87 18.48 156.61 18.23 157.34 18.23 158.08 17.73 158.82 12.74 159.55 17.23 160.29 17.23 161.03 16.73 163.23 16.23 163.97 16.23 164.71 15.74 165.44 15.49 166.18 15.49 166.92 15.49 167.65 14.99 168.39 14.99 169.13 14.74 169.86 14.49 170.6 14.49 171.33 14.49 172.07 14.49 172.81 14.24 173.54 13.74 174.28 13.74 175.02 13.74 175.75 13.49 176.49 13.49 177.23 13.24 177.96 13.24 178.7 12.74 179.44 12.49 180.17 12.49 180.91 12.24 181.64 12.24 182.38 12.24" id="fig-60b1a2043b4f4b618e1b1ac0a0916a9b-element-40"/>
      </g>
      <g stroke-width="0.79" fill="none" class="geometry color_0.2" stroke="#00BFFF" id="fig-60b1a2043b4f4b618e1b1ac0a0916a9b-element-41">
        <path fill="none" d="M21.84,48.18 L 22.58 48.18 23.31 47.93 24.05 47.93 24.79 47.93 25.52 47.93 26.26 47.93 27 47.93 28.47 47.93 29.21 47.93 30.68 47.68 32.15 47.43 32.89 47.43 34.36 47.18 35.1 46.93 40.25 46.43 42.46 46.43 43.93 46.43 49.09 46.18 49.83 45.93 50.56 45.93 51.3 45.93 52.03 45.93 52.77 45.93 53.51 45.93 54.24 45.93 54.98 45.93 55.72 45.93 56.45 45.18 57.19 45.18 58.66 44.94 59.4 44.94 60.13 44.94 60.87 44.69 61.61 46.68 62.34 45.43 63.08 45.43 63.82 45.43 64.55 45.43 65.29 45.43 66.03 45.43 66.76 45.43 67.5 45.43 68.24 45.18 68.97 45.18 69.71 44.94 70.44 44.94 74.86 43.69 75.6 43.69 76.34 43.44 77.07 43.19 77.81 42.69 78.55 42.69 79.28 42.69 80.02 42.69 80.75 42.69 81.49 42.44 82.96 42.44 83.7 41.94 84.44 41.94 85.17 41.94 85.91 41.94 86.65 41.94 87.38 41.19 88.12 41.19 89.59 40.94 90.33 40.44 91.06 40.19 91.8 39.94 92.54 39.94 93.27 39.94 94.75 39.44 95.48 39.2 96.22 38.95 96.96 38.95 98.43 38.45 99.9 37.95 100.64 37.95 101.37 37.95 102.11 37.95 104.32 37.95 105.06 37.95 105.79 37.7 106.53 37.7 107.27 37.7 108 37.45 108.74 37.45 109.48 37.45 110.95 37.2 111.68 37.2 113.16 37.2 113.89 37.2 114.63 36.45 115.37 36.45 116.84 36.95 117.58 36.95 118.31 36.45 119.05 36.2 119.79 36.2 120.52 35.7 121.26 35.7" id="fig-60b1a2043b4f4b618e1b1ac0a0916a9b-element-42"/>
      </g>
    </g>
  </g>
  <g class="guide ylabels" font-size="2.82" font-family="'PT Sans Caption','Helvetica Neue','Helvetica',sans-serif" fill="#6C606B" id="fig-60b1a2043b4f4b618e1b1ac0a0916a9b-element-43">
    <text x="18.63" y="56.91" text-anchor="end" dy="0.35em" id="fig-60b1a2043b4f4b618e1b1ac0a0916a9b-element-44">250</text>
    <text x="18.63" y="44.44" text-anchor="end" dy="0.35em" id="fig-60b1a2043b4f4b618e1b1ac0a0916a9b-element-45">300</text>
    <text x="18.63" y="31.96" text-anchor="end" dy="0.35em" id="fig-60b1a2043b4f4b618e1b1ac0a0916a9b-element-46">350</text>
    <text x="18.63" y="19.48" text-anchor="end" dy="0.35em" id="fig-60b1a2043b4f4b618e1b1ac0a0916a9b-element-47">400</text>
    <text x="18.63" y="7" text-anchor="end" dy="0.35em" id="fig-60b1a2043b4f4b618e1b1ac0a0916a9b-element-48">450</text>
  </g>
</g>
<defs>
<clipPath id="fig-60b1a2043b4f4b618e1b1ac0a0916a9b-element-18">
  <path d="M19.63,5 L 183.85 5 183.85 58.91 19.63 58.91" />
</clipPath
></defs>
</svg>
