<?xml version="1.0" encoding="UTF-8"?>
<svg xmlns="http://www.w3.org/2000/svg"
     xmlns:xlink="http://www.w3.org/1999/xlink"
     xmlns:gadfly="http://www.gadflyjl.org/ns"
     version="1.2"
     width="203.2mm" height="76.2mm" viewBox="0 0 203.2 76.2"
     stroke="none"
     fill="#000000"
     stroke-width="0.3"
     font-size="3.88"
>
<g class="plotroot xscalable yscalable" id="fig-15380f009964435fac433c185140549c-element-1">
  <g font-size="3.88" font-family="'PT Sans','Helvetica Neue','Helvetica',sans-serif" fill="#564A55" stroke="none" id="fig-15380f009964435fac433c185140549c-element-2">
    <text x="101.74" y="68.2" text-anchor="middle">Date</text>
  </g>
  <g class="guide xlabels" font-size="2.82" font-family="'PT Sans Caption','Helvetica Neue','Helvetica',sans-serif" fill="#6C606B" id="fig-15380f009964435fac433c185140549c-element-3">
    <text x="23.13" y="62.59" text-anchor="middle">Apr</text>
    <text x="49.33" y="62.59" text-anchor="middle">May</text>
    <text x="76.41" y="62.59" text-anchor="middle">June</text>
    <text x="102.62" y="62.59" text-anchor="middle">July</text>
    <text x="129.7" y="62.59" text-anchor="middle">Aug</text>
    <text x="156.77" y="62.59" text-anchor="middle">Sept</text>
  </g>
  <g class="guide colorkey" id="fig-15380f009964435fac433c185140549c-element-4">
    <g fill="#4C404B" font-size="2.82" font-family="'PT Sans','Helvetica Neue','Helvetica',sans-serif" id="fig-15380f009964435fac433c185140549c-element-5">
      <text x="187.67" y="30.14" dy="0.35em" id="fig-15380f009964435fac433c185140549c-element-6" class="color_0.2">0.2</text>
      <text x="187.67" y="33.77" dy="0.35em" id="fig-15380f009964435fac433c185140549c-element-7" class="color_0.3">0.3</text>
      <text x="187.67" y="37.4" dy="0.35em" id="fig-15380f009964435fac433c185140549c-element-8" class="color_0.4">0.4</text>
    </g>
    <g stroke="none" id="fig-15380f009964435fac433c185140549c-element-9">
      <rect x="184.85" y="29.24" width="1.81" height="1.81" id="fig-15380f009964435fac433c185140549c-element-10" class="color_0.2" fill="#00BFFF"/>
      <rect x="184.85" y="32.86" width="1.81" height="1.81" id="fig-15380f009964435fac433c185140549c-element-11" class="color_0.3" fill="#D4CA3A"/>
      <rect x="184.85" y="36.49" width="1.81" height="1.81" id="fig-15380f009964435fac433c185140549c-element-12" class="color_0.4" fill="#FF5EA0"/>
    </g>
    <g fill="#362A35" font-size="3.88" font-family="'PT Sans','Helvetica Neue','Helvetica',sans-serif" stroke="none" id="fig-15380f009964435fac433c185140549c-element-13">
      <text x="184.85" y="26.32" id="fig-15380f009964435fac433c185140549c-element-14">Julia ver.</text>
    </g>
  </g>
  <g clip-path="url(#fig-15380f009964435fac433c185140549c-element-16)" id="fig-15380f009964435fac433c185140549c-element-15">
    <g pointer-events="visible" opacity="1" fill="none" stroke="none" class="guide background" id="fig-15380f009964435fac433c185140549c-element-17">
      <rect x="19.63" y="5" width="164.22" height="53.91" id="fig-15380f009964435fac433c185140549c-element-18"/>
    </g>
    <g class="guide ygridlines xfixed" stroke-dasharray="0.5,0.5" stroke-width="0.2" stroke="#D0D0E0" id="fig-15380f009964435fac433c185140549c-element-19">
      <path fill="none" d="M19.63,56.91 L 183.85 56.91" id="fig-15380f009964435fac433c185140549c-element-20"/>
      <path fill="none" d="M19.63,44.44 L 183.85 44.44" id="fig-15380f009964435fac433c185140549c-element-21"/>
      <path fill="none" d="M19.63,31.96 L 183.85 31.96" id="fig-15380f009964435fac433c185140549c-element-22"/>
      <path fill="none" d="M19.63,19.48 L 183.85 19.48" id="fig-15380f009964435fac433c185140549c-element-23"/>
      <path fill="none" d="M19.63,7 L 183.85 7" id="fig-15380f009964435fac433c185140549c-element-24"/>
    </g>
    <g class="guide xgridlines yfixed" stroke-dasharray="0.5,0.5" stroke-width="0.2" stroke="#D0D0E0" id="fig-15380f009964435fac433c185140549c-element-25">
      <path fill="none" d="M23.13,5 L 23.13 58.91" id="fig-15380f009964435fac433c185140549c-element-26"/>
      <path fill="none" d="M49.33,5 L 49.33 58.91" id="fig-15380f009964435fac433c185140549c-element-27"/>
      <path fill="none" d="M76.41,5 L 76.41 58.91" id="fig-15380f009964435fac433c185140549c-element-28"/>
      <path fill="none" d="M102.62,5 L 102.62 58.91" id="fig-15380f009964435fac433c185140549c-element-29"/>
      <path fill="none" d="M129.7,5 L 129.7 58.91" id="fig-15380f009964435fac433c185140549c-element-30"/>
      <path fill="none" d="M156.77,5 L 156.77 58.91" id="fig-15380f009964435fac433c185140549c-element-31"/>
    </g>
    <g class="plotpanel" id="fig-15380f009964435fac433c185140549c-element-32">
      <g stroke-width="0.79" fill="none" class="geometry color_0.4" stroke="#FF5EA0" id="fig-15380f009964435fac433c185140549c-element-33">
        <path fill="none" d="M140.18,28.46 L 141.05 27.71 141.93 27.47 142.8 27.22 143.67 27.22 144.55 27.22 146.29 26.47 147.17 26.47 148.04 26.22 148.91 26.22 149.79 26.22 150.66 25.47 151.53 24.97 152.41 24.97 154.15 24.47 155.03 23.72 156.77 23.22 157.65 23.22 158.52 23.22 162.02 23.22 164.64 21.72 165.51 21.48 166.38 21.23 167.26 20.73 168.13 20.73 169 20.73 169.88 18.73 170.75 18.73 171.62 18.73 173.37 18.48 174.25 18.48 175.12 18.23 175.99 18.23 176.87 18.23 177.74 17.98 178.61 17.98 180.36 18.23 181.23 17.98" id="fig-15380f009964435fac433c185140549c-element-34"/>
      </g>
      <g stroke-width="0.79" fill="none" class="geometry color_0.3" stroke="#D4CA3A" id="fig-15380f009964435fac433c185140549c-element-35">
        <path fill="none" d="M21.38,45.43 L 22.25 45.43 23.13 45.18 24 45.18 24.87 45.18 25.75 45.18 26.62 45.18 27.49 44.94 29.24 44.94 30.11 44.69 31.86 44.44 33.61 43.94 34.48 43.94 36.23 43.94 37.1 43.69 43.22 42.69 45.84 42.69 47.58 42.69 53.7 42.44 54.57 41.94 55.45 41.69 56.32 41.69 57.19 41.69 58.07 41.69 58.94 41.69 59.81 41.69 60.69 41.69 61.56 41.69 62.43 41.69 63.31 40.94 65.05 40.69 65.93 40.69 66.8 40.69 67.68 40.19 68.55 40.19 69.42 40.19 70.3 39.94 71.17 39.94 72.04 39.94 72.92 39.94 73.79 39.94 74.66 39.69 75.54 39.69 76.41 49.68 77.28 39.44 78.16 39.2 79.03 38.95 84.27 37.45 85.15 37.2 86.02 36.95 86.89 36.7 87.77 36.2 88.64 36.2 89.51 35.7 90.39 35.7 91.26 35.45 92.13 35.2 93.88 35.2 94.75 34.7 95.63 34.7 96.5 34.7 97.38 34.7 98.25 34.7 99.12 33.95 100 33.95 101.74 33.7 102.62 33.21 103.49 32.96 104.36 32.71 105.24 32.71 106.11 32.21 107.86 31.96 108.73 31.21 109.6 31.21 110.48 31.21 112.23 29.96 113.97 29.21 114.85 29.21 115.72 28.96 116.59 28.96 119.21 28.71 120.09 28.71 120.96 28.46 121.83 28.46 122.71 28.46 123.58 28.21 124.45 27.96 125.33 27.71 127.08 27.71 127.95 27.71 129.7 27.71 130.57 27.47 131.44 26.72 132.32 26.72 134.06 26.47 134.94 26.47 135.81 25.97 136.68 25.72 137.56 25.47 138.43 25.22 139.3 24.97 140.18 24.47 141.05 24.47 141.93 24.22 142.8 23.97 143.67 23.97 144.55 23.97 146.29 23.22 147.17 23.22 148.04 22.97 148.91 22.97 149.79 22.97 150.66 22.22 151.53 21.97 152.41 21.72 154.15 24.72 155.03 23.97 156.77 23.47 157.65 23.47 158.52 23.47 162.02 23.47 164.64 21.97 165.51 21.72 166.38 21.48 167.26 20.98 168.13 20.98 169 20.98 169.88 18.98 170.75 18.98 171.62 18.98 173.37 18.98 174.25 18.73 175.12 18.48 175.99 18.48 176.87 18.48 177.74 18.23 178.61 18.23 180.36 18.48 181.23 18.23" id="fig-15380f009964435fac433c185140549c-element-36"/>
      </g>
      <g stroke-width="0.79" fill="none" class="geometry color_0.2" stroke="#00BFFF" id="fig-15380f009964435fac433c185140549c-element-37">
        <path fill="none" d="M21.38,48.18 L 22.25 48.18 23.13 47.93 24 47.93 24.87 47.93 25.75 47.93 26.62 47.93 27.49 47.93 29.24 47.93 30.11 47.93 31.86 47.68 33.61 47.43 34.48 47.43 36.23 47.18 37.1 46.93 43.22 46.43 45.84 46.43 47.58 46.43 53.7 46.18 54.57 45.93 55.45 45.93 56.32 45.93 57.19 45.93 58.07 45.93 58.94 45.93 59.81 45.93 60.69 45.93 61.56 45.93 62.43 45.18 63.31 45.18 65.05 44.94 65.93 44.94 66.8 44.94 67.68 44.69 68.55 46.68 69.42 45.43 70.3 45.43 71.17 45.43 72.04 45.43 72.92 45.43 73.79 45.43 74.66 45.43 75.54 45.43 76.41 45.18 77.28 45.18 78.16 44.94 79.03 44.94 84.27 43.69 85.15 43.69 86.02 43.44 86.89 43.19 87.77 42.69 88.64 42.69 89.51 42.69 90.39 42.69 91.26 42.69 92.13 42.44 93.88 42.44 94.75 41.94 95.63 41.94 96.5 41.94 97.38 41.94 98.25 41.94 99.12 41.19 100 41.19 101.74 40.94 102.62 40.44 103.49 40.19 104.36 39.94 105.24 39.94 106.11 39.94 107.86 39.44 108.73 39.2 109.6 38.95 110.48 38.95 112.23 38.45 113.97 37.95 114.85 37.95 115.72 37.95 116.59 37.95 119.21 37.95 120.09 37.95 120.96 37.7 121.83 37.7 122.71 37.7 123.58 37.45 124.45 37.45 125.33 37.45 127.08 37.2 127.95 37.2 129.7 37.2 130.57 37.2 131.44 36.45 132.32 36.45 134.06 36.95 134.94 36.95 135.81 36.45 136.68 36.2 137.56 36.2 138.43 35.7 139.3 35.7" id="fig-15380f009964435fac433c185140549c-element-38"/>
      </g>
    </g>
  </g>
  <g class="guide ylabels" font-size="2.82" font-family="'PT Sans Caption','Helvetica Neue','Helvetica',sans-serif" fill="#6C606B" id="fig-15380f009964435fac433c185140549c-element-39">
    <text x="18.63" y="56.91" text-anchor="end" dy="0.35em" id="fig-15380f009964435fac433c185140549c-element-40">250</text>
    <text x="18.63" y="44.44" text-anchor="end" dy="0.35em" id="fig-15380f009964435fac433c185140549c-element-41">300</text>
    <text x="18.63" y="31.96" text-anchor="end" dy="0.35em" id="fig-15380f009964435fac433c185140549c-element-42">350</text>
    <text x="18.63" y="19.48" text-anchor="end" dy="0.35em" id="fig-15380f009964435fac433c185140549c-element-43">400</text>
    <text x="18.63" y="7" text-anchor="end" dy="0.35em" id="fig-15380f009964435fac433c185140549c-element-44">450</text>
  </g>
  <g font-size="3.88" font-family="'PT Sans','Helvetica Neue','Helvetica',sans-serif" fill="#564A55" stroke="none" id="fig-15380f009964435fac433c185140549c-element-45">
    <text x="8.81" y="29.96" text-anchor="middle" dy="0.35em" transform="rotate(-90, 8.81, 31.96)" id="fig-15380f009964435fac433c185140549c-element-46">Number of Tagged Packages</text>
  </g>
</g>
<defs>
<clipPath id="fig-15380f009964435fac433c185140549c-element-16">
  <path d="M19.63,5 L 183.85 5 183.85 58.91 19.63 58.91" />
</clipPath
></defs>
</svg>
