<?xml version="1.0" encoding="UTF-8"?>
<svg xmlns="http://www.w3.org/2000/svg"
     xmlns:xlink="http://www.w3.org/1999/xlink"
     xmlns:gadfly="http://www.gadflyjl.org/ns"
     version="1.2"
     width="203.2mm" height="76.2mm" viewBox="0 0 203.2 76.2"
     stroke="none"
     fill="#000000"
     stroke-width="0.3"
     font-size="3.88"
>
<g class="plotroot xscalable yscalable" id="fig-70bb45ca851448f1964beb42051be97b-element-1">
  <g font-size="3.88" font-family="'PT Sans','Helvetica Neue','Helvetica',sans-serif" fill="#564A55" stroke="none" id="fig-70bb45ca851448f1964beb42051be97b-element-2">
    <text x="101.74" y="68.2" text-anchor="middle">Date</text>
  </g>
  <g class="guide xlabels" font-size="2.82" font-family="'PT Sans Caption','Helvetica Neue','Helvetica',sans-serif" fill="#6C606B" id="fig-70bb45ca851448f1964beb42051be97b-element-3">
    <text x="23.28" y="62.59" text-anchor="middle">Apr</text>
    <text x="45.18" y="62.59" text-anchor="middle">May</text>
    <text x="67.8" y="62.59" text-anchor="middle">June</text>
    <text x="89.7" y="62.59" text-anchor="middle">July</text>
    <text x="112.33" y="62.59" text-anchor="middle">Aug</text>
    <text x="134.95" y="62.59" text-anchor="middle">Sept</text>
    <text x="156.85" y="62.59" text-anchor="middle">Oct</text>
    <text x="179.47" y="62.59" text-anchor="middle">Nev</text>
  </g>
  <g class="guide colorkey" id="fig-70bb45ca851448f1964beb42051be97b-element-4">
    <g fill="#4C404B" font-size="2.82" font-family="'PT Sans','Helvetica Neue','Helvetica',sans-serif" id="fig-70bb45ca851448f1964beb42051be97b-element-5">
      <text x="187.67" y="30.14" dy="0.35em" id="fig-70bb45ca851448f1964beb42051be97b-element-6" class="color_0.2">0.2</text>
      <text x="187.67" y="33.77" dy="0.35em" id="fig-70bb45ca851448f1964beb42051be97b-element-7" class="color_0.3">0.3</text>
      <text x="187.67" y="37.4" dy="0.35em" id="fig-70bb45ca851448f1964beb42051be97b-element-8" class="color_0.4">0.4</text>
    </g>
    <g stroke="none" id="fig-70bb45ca851448f1964beb42051be97b-element-9">
      <rect x="184.85" y="29.24" width="1.81" height="1.81" id="fig-70bb45ca851448f1964beb42051be97b-element-10" class="color_0.2" fill="#00BFFF"/>
      <rect x="184.85" y="32.86" width="1.81" height="1.81" id="fig-70bb45ca851448f1964beb42051be97b-element-11" class="color_0.3" fill="#D4CA3A"/>
      <rect x="184.85" y="36.49" width="1.81" height="1.81" id="fig-70bb45ca851448f1964beb42051be97b-element-12" class="color_0.4" fill="#FF5EA0"/>
    </g>
    <g fill="#362A35" font-size="3.88" font-family="'PT Sans','Helvetica Neue','Helvetica',sans-serif" stroke="none" id="fig-70bb45ca851448f1964beb42051be97b-element-13">
      <text x="184.85" y="26.32" id="fig-70bb45ca851448f1964beb42051be97b-element-14">Julia ver.</text>
    </g>
  </g>
  <g font-size="3.88" font-family="'PT Sans','Helvetica Neue','Helvetica',sans-serif" fill="#564A55" stroke="none" id="fig-70bb45ca851448f1964beb42051be97b-element-15">
    <text x="8.81" y="29.96" text-anchor="middle" dy="0.35em" transform="rotate(-90, 8.81, 31.96)" id="fig-70bb45ca851448f1964beb42051be97b-element-16">Number of Tagged Packages</text>
  </g>
  <g clip-path="url(#fig-70bb45ca851448f1964beb42051be97b-element-18)" id="fig-70bb45ca851448f1964beb42051be97b-element-17">
    <g pointer-events="visible" opacity="1" fill="none" stroke="none" class="guide background" id="fig-70bb45ca851448f1964beb42051be97b-element-19">
      <rect x="19.63" y="5" width="164.22" height="53.91" id="fig-70bb45ca851448f1964beb42051be97b-element-20"/>
    </g>
    <g class="guide ygridlines xfixed" stroke-dasharray="0.5,0.5" stroke-width="0.2" stroke="#D0D0E0" id="fig-70bb45ca851448f1964beb42051be97b-element-21">
      <path fill="none" d="M19.63,56.91 L 183.85 56.91" id="fig-70bb45ca851448f1964beb42051be97b-element-22"/>
      <path fill="none" d="M19.63,44.44 L 183.85 44.44" id="fig-70bb45ca851448f1964beb42051be97b-element-23"/>
      <path fill="none" d="M19.63,31.96 L 183.85 31.96" id="fig-70bb45ca851448f1964beb42051be97b-element-24"/>
      <path fill="none" d="M19.63,19.48 L 183.85 19.48" id="fig-70bb45ca851448f1964beb42051be97b-element-25"/>
      <path fill="none" d="M19.63,7 L 183.85 7" id="fig-70bb45ca851448f1964beb42051be97b-element-26"/>
    </g>
    <g class="guide xgridlines yfixed" stroke-dasharray="0.5,0.5" stroke-width="0.2" stroke="#D0D0E0" id="fig-70bb45ca851448f1964beb42051be97b-element-27">
      <path fill="none" d="M23.28,5 L 23.28 58.91" id="fig-70bb45ca851448f1964beb42051be97b-element-28"/>
      <path fill="none" d="M45.18,5 L 45.18 58.91" id="fig-70bb45ca851448f1964beb42051be97b-element-29"/>
      <path fill="none" d="M67.8,5 L 67.8 58.91" id="fig-70bb45ca851448f1964beb42051be97b-element-30"/>
      <path fill="none" d="M89.7,5 L 89.7 58.91" id="fig-70bb45ca851448f1964beb42051be97b-element-31"/>
      <path fill="none" d="M112.33,5 L 112.33 58.91" id="fig-70bb45ca851448f1964beb42051be97b-element-32"/>
      <path fill="none" d="M134.95,5 L 134.95 58.91" id="fig-70bb45ca851448f1964beb42051be97b-element-33"/>
      <path fill="none" d="M156.85,5 L 156.85 58.91" id="fig-70bb45ca851448f1964beb42051be97b-element-34"/>
      <path fill="none" d="M179.47,5 L 179.47 58.91" id="fig-70bb45ca851448f1964beb42051be97b-element-35"/>
    </g>
    <g class="plotpanel" id="fig-70bb45ca851448f1964beb42051be97b-element-36">
      <g stroke-width="0.79" fill="none" class="geometry color_0.4" stroke="#FF5EA0" id="fig-70bb45ca851448f1964beb42051be97b-element-37">
        <path fill="none" d="M121.08,28.46 L 121.81 27.71 122.54 27.47 123.27 27.22 124 27.22 124.73 27.22 126.19 26.47 126.92 26.47 127.65 26.22 128.38 26.22 129.11 26.22 129.84 25.47 130.57 24.97 131.3 24.97 132.76 24.47 133.49 23.72 134.95 23.22 135.68 23.22 136.41 23.22 139.33 23.22 141.52 21.72 142.25 21.48 142.98 21.23 143.71 20.73 144.44 20.73 145.17 20.73 145.9 18.73 146.63 18.73 147.36 18.73 148.82 18.48 149.55 18.48 150.28 18.23 151.01 18.23 151.74 18.23 152.47 17.98 153.2 17.98 154.66 18.23 155.39 17.98 156.12 17.98 156.85 17.48 157.58 16.98 158.31 16.98 159.04 16.98 159.77 16.48 161.96 15.98 162.69 15.98 163.42 15.49 164.15 15.24 164.88 15.24 165.61 15.24 166.34 14.74 167.07 14.74 167.8 14.49 168.53 14.24 169.26 14.24 169.99 14.24 170.72 14.24 171.45 13.74 172.18 13.24 172.91 13.24 173.64 13.24 174.37 12.99 175.1 12.99 175.83 12.74 176.56 12.74 177.29 12.24 178.02 11.99 178.75 11.99 179.47 11.74 180.2 11.74 180.93 11.74 181.66 11.74 182.39 11.49" id="fig-70bb45ca851448f1964beb42051be97b-element-38"/>
      </g>
      <g stroke-width="0.79" fill="none" class="geometry color_0.3" stroke="#D4CA3A" id="fig-70bb45ca851448f1964beb42051be97b-element-39">
        <path fill="none" d="M21.82,45.43 L 22.55 45.43 23.28 45.18 24.01 45.18 24.74 45.18 25.47 45.18 26.2 45.18 26.93 44.94 28.39 44.94 29.12 44.69 30.58 44.44 32.04 43.94 32.77 43.94 34.23 43.94 34.96 43.69 40.07 42.69 42.26 42.69 43.72 42.69 48.83 42.44 49.56 41.94 50.29 41.69 51.02 41.69 51.75 41.69 52.48 41.69 53.21 41.69 53.94 41.69 54.67 41.69 55.4 41.69 56.13 41.69 56.86 40.94 58.32 40.69 59.05 40.69 59.77 40.69 60.5 40.19 61.23 40.19 61.96 40.19 62.69 39.94 63.42 39.94 64.15 39.94 64.88 39.94 65.61 39.94 66.34 39.69 67.07 39.69 67.8 49.68 68.53 39.44 69.26 39.2 69.99 38.95 74.37 37.45 75.1 37.2 75.83 36.95 76.56 36.7 77.29 36.2 78.02 36.2 78.75 35.7 79.48 35.7 80.21 35.45 80.94 35.2 82.4 35.2 83.13 34.7 83.86 34.7 84.59 34.7 85.32 34.7 86.05 34.7 86.78 33.95 87.51 33.95 88.97 33.7 89.7 33.21 90.43 32.96 91.16 32.71 91.89 32.71 92.62 32.21 94.08 31.96 94.81 31.21 95.54 31.21 96.27 31.21 97.73 29.96 99.19 29.21 99.92 29.21 100.65 28.96 101.38 28.96 103.57 28.71 104.3 28.71 105.03 28.46 105.76 28.46 106.49 28.46 107.22 28.21 107.95 27.96 108.68 27.71 110.14 27.71 110.87 27.71 112.33 27.71 113.06 27.47 113.79 26.72 114.52 26.72 115.98 26.47 116.71 26.47 117.44 25.97 118.17 25.72 118.9 25.47 119.62 25.22 120.35 24.97 121.08 24.47 121.81 24.47 122.54 24.22 123.27 23.97 124 23.97 124.73 23.97 126.19 23.22 126.92 23.22 127.65 22.97 128.38 22.97 129.11 22.97 129.84 22.22 130.57 21.97 131.3 21.72 132.76 24.72 133.49 23.97 134.95 23.47 135.68 23.47 136.41 23.47 139.33 23.47 141.52 21.97 142.25 21.72 142.98 21.48 143.71 20.98 144.44 20.98 145.17 20.98 145.9 18.98 146.63 18.98 147.36 18.98 148.82 18.98 149.55 18.73 150.28 18.48 151.01 18.48 151.74 18.48 152.47 18.23 153.2 18.23 154.66 18.48 155.39 18.23 156.12 18.23 156.85 17.73 157.58 12.74 158.31 17.23 159.04 17.23 159.77 16.73 161.96 16.23 162.69 16.23 163.42 15.74 164.15 15.49 164.88 15.49 165.61 15.49 166.34 14.99 167.07 14.99 167.8 14.74 168.53 14.49 169.26 14.49 169.99 14.49 170.72 14.49 171.45 14.24 172.18 13.74 172.91 13.74 173.64 13.74 174.37 13.49 175.1 13.49 175.83 13.24 176.56 13.24 177.29 12.74 178.02 12.49 178.75 12.49 179.47 12.24 180.2 12.24 180.93 12.24 181.66 11.99 182.39 11.99" id="fig-70bb45ca851448f1964beb42051be97b-element-40"/>
      </g>
      <g stroke-width="0.79" fill="none" class="geometry color_0.2" stroke="#00BFFF" id="fig-70bb45ca851448f1964beb42051be97b-element-41">
        <path fill="none" d="M21.82,48.18 L 22.55 48.18 23.28 47.93 24.01 47.93 24.74 47.93 25.47 47.93 26.2 47.93 26.93 47.93 28.39 47.93 29.12 47.93 30.58 47.68 32.04 47.43 32.77 47.43 34.23 47.18 34.96 46.93 40.07 46.43 42.26 46.43 43.72 46.43 48.83 46.18 49.56 45.93 50.29 45.93 51.02 45.93 51.75 45.93 52.48 45.93 53.21 45.93 53.94 45.93 54.67 45.93 55.4 45.93 56.13 45.18 56.86 45.18 58.32 44.94 59.05 44.94 59.77 44.94 60.5 44.69 61.23 46.68 61.96 45.43 62.69 45.43 63.42 45.43 64.15 45.43 64.88 45.43 65.61 45.43 66.34 45.43 67.07 45.43 67.8 45.18 68.53 45.18 69.26 44.94 69.99 44.94 74.37 43.69 75.1 43.69 75.83 43.44 76.56 43.19 77.29 42.69 78.02 42.69 78.75 42.69 79.48 42.69 80.21 42.69 80.94 42.44 82.4 42.44 83.13 41.94 83.86 41.94 84.59 41.94 85.32 41.94 86.05 41.94 86.78 41.19 87.51 41.19 88.97 40.94 89.7 40.44 90.43 40.19 91.16 39.94 91.89 39.94 92.62 39.94 94.08 39.44 94.81 39.2 95.54 38.95 96.27 38.95 97.73 38.45 99.19 37.95 99.92 37.95 100.65 37.95 101.38 37.95 103.57 37.95 104.3 37.95 105.03 37.7 105.76 37.7 106.49 37.7 107.22 37.45 107.95 37.45 108.68 37.45 110.14 37.2 110.87 37.2 112.33 37.2 113.06 37.2 113.79 36.45 114.52 36.45 115.98 36.95 116.71 36.95 117.44 36.45 118.17 36.2 118.9 36.2 119.62 35.7 120.35 35.7" id="fig-70bb45ca851448f1964beb42051be97b-element-42"/>
      </g>
    </g>
  </g>
  <g class="guide ylabels" font-size="2.82" font-family="'PT Sans Caption','Helvetica Neue','Helvetica',sans-serif" fill="#6C606B" id="fig-70bb45ca851448f1964beb42051be97b-element-43">
    <text x="18.63" y="56.91" text-anchor="end" dy="0.35em" id="fig-70bb45ca851448f1964beb42051be97b-element-44">250</text>
    <text x="18.63" y="44.44" text-anchor="end" dy="0.35em" id="fig-70bb45ca851448f1964beb42051be97b-element-45">300</text>
    <text x="18.63" y="31.96" text-anchor="end" dy="0.35em" id="fig-70bb45ca851448f1964beb42051be97b-element-46">350</text>
    <text x="18.63" y="19.48" text-anchor="end" dy="0.35em" id="fig-70bb45ca851448f1964beb42051be97b-element-47">400</text>
    <text x="18.63" y="7" text-anchor="end" dy="0.35em" id="fig-70bb45ca851448f1964beb42051be97b-element-48">450</text>
  </g>
</g>
<defs>
<clipPath id="fig-70bb45ca851448f1964beb42051be97b-element-18">
  <path d="M19.63,5 L 183.85 5 183.85 58.91 19.63 58.91" />
</clipPath
></defs>
</svg>
