<?xml version="1.0" encoding="UTF-8"?>
<svg xmlns="http://www.w3.org/2000/svg"
     xmlns:xlink="http://www.w3.org/1999/xlink"
     xmlns:gadfly="http://www.gadflyjl.org/ns"
     version="1.2"
     width="203.2mm" height="76.2mm" viewBox="0 0 203.2 76.2"
     stroke="none"
     fill="#000000"
     stroke-width="0.3"
     font-size="3.88"
>
<g class="plotroot xscalable yscalable" id="fig-c2492bd53ef94577bd7cdbe7ff2a43dd-element-1">
  <g font-size="3.88" font-family="'PT Sans','Helvetica Neue','Helvetica',sans-serif" fill="#564A55" stroke="none" id="fig-c2492bd53ef94577bd7cdbe7ff2a43dd-element-2">
    <text x="101.74" y="68.2" text-anchor="middle">Date</text>
  </g>
  <g class="guide xlabels" font-size="2.82" font-family="'PT Sans Caption','Helvetica Neue','Helvetica',sans-serif" fill="#6C606B" id="fig-c2492bd53ef94577bd7cdbe7ff2a43dd-element-3">
    <text x="23.07" y="62.59" text-anchor="middle">Apr</text>
    <text x="43.68" y="62.59" text-anchor="middle">May</text>
    <text x="64.98" y="62.59" text-anchor="middle">June</text>
    <text x="85.6" y="62.59" text-anchor="middle">July</text>
    <text x="106.9" y="62.59" text-anchor="middle">Aug</text>
    <text x="128.2" y="62.59" text-anchor="middle">Sept</text>
    <text x="148.81" y="62.59" text-anchor="middle">Oct</text>
    <text x="170.11" y="62.59" text-anchor="middle">Nev</text>
  </g>
  <g class="guide colorkey" id="fig-c2492bd53ef94577bd7cdbe7ff2a43dd-element-4">
    <g fill="#4C404B" font-size="2.82" font-family="'PT Sans','Helvetica Neue','Helvetica',sans-serif" id="fig-c2492bd53ef94577bd7cdbe7ff2a43dd-element-5">
      <text x="187.67" y="30.14" dy="0.35em" id="fig-c2492bd53ef94577bd7cdbe7ff2a43dd-element-6" class="color_0.2">0.2</text>
      <text x="187.67" y="33.77" dy="0.35em" id="fig-c2492bd53ef94577bd7cdbe7ff2a43dd-element-7" class="color_0.3">0.3</text>
      <text x="187.67" y="37.4" dy="0.35em" id="fig-c2492bd53ef94577bd7cdbe7ff2a43dd-element-8" class="color_0.4">0.4</text>
    </g>
    <g stroke="none" id="fig-c2492bd53ef94577bd7cdbe7ff2a43dd-element-9">
      <rect x="184.85" y="29.24" width="1.81" height="1.81" id="fig-c2492bd53ef94577bd7cdbe7ff2a43dd-element-10" class="color_0.2" fill="#00BFFF"/>
      <rect x="184.85" y="32.86" width="1.81" height="1.81" id="fig-c2492bd53ef94577bd7cdbe7ff2a43dd-element-11" class="color_0.3" fill="#D4CA3A"/>
      <rect x="184.85" y="36.49" width="1.81" height="1.81" id="fig-c2492bd53ef94577bd7cdbe7ff2a43dd-element-12" class="color_0.4" fill="#FF5EA0"/>
    </g>
    <g fill="#362A35" font-size="3.88" font-family="'PT Sans','Helvetica Neue','Helvetica',sans-serif" stroke="none" id="fig-c2492bd53ef94577bd7cdbe7ff2a43dd-element-13">
      <text x="184.85" y="26.32" id="fig-c2492bd53ef94577bd7cdbe7ff2a43dd-element-14">Julia ver.</text>
    </g>
  </g>
  <g font-size="3.88" font-family="'PT Sans','Helvetica Neue','Helvetica',sans-serif" fill="#564A55" stroke="none" id="fig-c2492bd53ef94577bd7cdbe7ff2a43dd-element-15">
    <text x="8.81" y="29.96" text-anchor="middle" dy="0.35em" transform="rotate(-90, 8.81, 31.96)" id="fig-c2492bd53ef94577bd7cdbe7ff2a43dd-element-16">Number of Tagged Packages</text>
  </g>
  <g clip-path="url(#fig-c2492bd53ef94577bd7cdbe7ff2a43dd-element-18)" id="fig-c2492bd53ef94577bd7cdbe7ff2a43dd-element-17">
    <g pointer-events="visible" opacity="1" fill="none" stroke="none" class="guide background" id="fig-c2492bd53ef94577bd7cdbe7ff2a43dd-element-19">
      <rect x="19.63" y="5" width="164.22" height="53.91" id="fig-c2492bd53ef94577bd7cdbe7ff2a43dd-element-20"/>
    </g>
    <g class="guide ygridlines xfixed" stroke-dasharray="0.5,0.5" stroke-width="0.2" stroke="#D0D0E0" id="fig-c2492bd53ef94577bd7cdbe7ff2a43dd-element-21">
      <path fill="none" d="M19.63,56.91 L 183.85 56.91" id="fig-c2492bd53ef94577bd7cdbe7ff2a43dd-element-22"/>
      <path fill="none" d="M19.63,44.44 L 183.85 44.44" id="fig-c2492bd53ef94577bd7cdbe7ff2a43dd-element-23"/>
      <path fill="none" d="M19.63,31.96 L 183.85 31.96" id="fig-c2492bd53ef94577bd7cdbe7ff2a43dd-element-24"/>
      <path fill="none" d="M19.63,19.48 L 183.85 19.48" id="fig-c2492bd53ef94577bd7cdbe7ff2a43dd-element-25"/>
      <path fill="none" d="M19.63,7 L 183.85 7" id="fig-c2492bd53ef94577bd7cdbe7ff2a43dd-element-26"/>
    </g>
    <g class="guide xgridlines yfixed" stroke-dasharray="0.5,0.5" stroke-width="0.2" stroke="#D0D0E0" id="fig-c2492bd53ef94577bd7cdbe7ff2a43dd-element-27">
      <path fill="none" d="M23.07,5 L 23.07 58.91" id="fig-c2492bd53ef94577bd7cdbe7ff2a43dd-element-28"/>
      <path fill="none" d="M43.68,5 L 43.68 58.91" id="fig-c2492bd53ef94577bd7cdbe7ff2a43dd-element-29"/>
      <path fill="none" d="M64.98,5 L 64.98 58.91" id="fig-c2492bd53ef94577bd7cdbe7ff2a43dd-element-30"/>
      <path fill="none" d="M85.6,5 L 85.6 58.91" id="fig-c2492bd53ef94577bd7cdbe7ff2a43dd-element-31"/>
      <path fill="none" d="M106.9,5 L 106.9 58.91" id="fig-c2492bd53ef94577bd7cdbe7ff2a43dd-element-32"/>
      <path fill="none" d="M128.2,5 L 128.2 58.91" id="fig-c2492bd53ef94577bd7cdbe7ff2a43dd-element-33"/>
      <path fill="none" d="M148.81,5 L 148.81 58.91" id="fig-c2492bd53ef94577bd7cdbe7ff2a43dd-element-34"/>
      <path fill="none" d="M170.11,5 L 170.11 58.91" id="fig-c2492bd53ef94577bd7cdbe7ff2a43dd-element-35"/>
    </g>
    <g class="plotpanel" id="fig-c2492bd53ef94577bd7cdbe7ff2a43dd-element-36">
      <g stroke-width="0.79" fill="none" class="geometry color_0.4" stroke="#FF5EA0" id="fig-c2492bd53ef94577bd7cdbe7ff2a43dd-element-37">
        <path fill="none" d="M115.14,28.46 L 115.83 27.71 116.52 27.47 117.2 27.22 117.89 27.22 118.58 27.22 119.95 26.47 120.64 26.47 121.33 26.22 122.01 26.22 122.7 26.22 123.39 25.47 124.07 24.97 124.76 24.97 126.14 24.47 126.82 23.72 128.2 23.22 128.88 23.22 129.57 23.22 132.32 23.22 134.38 21.72 135.07 21.48 135.76 21.23 136.44 20.73 137.13 20.73 137.82 20.73 138.5 18.73 139.19 18.73 139.88 18.73 141.25 18.48 141.94 18.48 142.63 18.23 143.31 18.23 144 18.23 144.69 17.98 145.38 17.98 146.75 18.23 147.44 17.98 148.12 17.98 148.81 17.48 149.5 16.98 150.19 16.98 150.87 16.98 151.56 16.48 153.62 15.98 154.31 15.98 154.99 15.49 155.68 15.24 156.37 15.24 157.06 15.24 157.74 14.74 158.43 14.74 159.12 14.49 159.8 14.24 160.49 14.24 161.18 14.24 161.87 14.24 162.55 13.74 163.24 13.24 163.93 13.24 164.61 13.24 165.3 12.99 165.99 12.99 166.68 12.74 167.36 12.74 168.05 12.24 168.74 11.99 169.42 11.99 170.11 11.74 170.8 11.74 171.49 11.74 172.17 11.74 172.86 11.49 173.55 11.24 175.61 11.24 179.04 9.75 179.73 9.25 180.42 9.25 181.11 9 181.79 9" id="fig-c2492bd53ef94577bd7cdbe7ff2a43dd-element-38"/>
      </g>
      <g stroke-width="0.79" fill="none" class="geometry color_0.3" stroke="#D4CA3A" id="fig-c2492bd53ef94577bd7cdbe7ff2a43dd-element-39">
        <path fill="none" d="M21.69,45.43 L 22.38 45.43 23.07 45.18 23.75 45.18 24.44 45.18 25.13 45.18 25.82 45.18 26.5 44.94 27.88 44.94 28.56 44.69 29.94 44.44 31.31 43.94 32 43.94 33.37 43.94 34.06 43.69 38.87 42.69 40.93 42.69 42.31 42.69 47.12 42.44 47.8 41.94 48.49 41.69 49.18 41.69 49.87 41.69 50.55 41.69 51.24 41.69 51.93 41.69 52.61 41.69 53.3 41.69 53.99 41.69 54.67 40.94 56.05 40.69 56.74 40.69 57.42 40.69 58.11 40.19 58.8 40.19 59.48 40.19 60.17 39.94 60.86 39.94 61.55 39.94 62.23 39.94 62.92 39.94 63.61 39.69 64.29 39.69 64.98 49.68 65.67 39.44 66.36 39.2 67.04 38.95 71.17 37.45 71.85 37.2 72.54 36.95 73.23 36.7 73.91 36.2 74.6 36.2 75.29 35.7 75.98 35.7 76.66 35.45 77.35 35.2 78.72 35.2 79.41 34.7 80.1 34.7 80.79 34.7 81.47 34.7 82.16 34.7 82.85 33.95 83.53 33.95 84.91 33.7 85.6 33.21 86.28 32.96 86.97 32.71 87.66 32.71 88.34 32.21 89.72 31.96 90.41 31.21 91.09 31.21 91.78 31.21 93.15 29.96 94.53 29.21 95.22 29.21 95.9 28.96 96.59 28.96 98.65 28.71 99.34 28.71 100.03 28.46 100.71 28.46 101.4 28.46 102.09 28.21 102.77 27.96 103.46 27.71 104.83 27.71 105.52 27.71 106.9 27.71 107.58 27.47 108.27 26.72 108.96 26.72 110.33 26.47 111.02 26.47 111.71 25.97 112.39 25.72 113.08 25.47 113.77 25.22 114.45 24.97 115.14 24.47 115.83 24.47 116.52 24.22 117.2 23.97 117.89 23.97 118.58 23.97 119.95 23.22 120.64 23.22 121.33 22.97 122.01 22.97 122.7 22.97 123.39 22.22 124.07 21.97 124.76 21.72 126.14 24.72 126.82 23.97 128.2 23.47 128.88 23.47 129.57 23.47 132.32 23.47 134.38 21.97 135.07 21.72 135.76 21.48 136.44 20.98 137.13 20.98 137.82 20.98 138.5 18.98 139.19 18.98 139.88 18.98 141.25 18.98 141.94 18.73 142.63 18.48 143.31 18.48 144 18.48 144.69 18.23 145.38 18.23 146.75 18.48 147.44 18.23 148.12 18.23 148.81 17.73 149.5 12.74 150.19 17.23 150.87 17.23 151.56 16.73 153.62 16.23 154.31 16.23 154.99 15.74 155.68 15.49 156.37 15.49 157.06 15.49 157.74 14.99 158.43 14.99 159.12 14.74 159.8 14.49 160.49 14.49 161.18 14.49 161.87 14.49 162.55 14.24 163.24 13.74 163.93 13.74 164.61 13.74 165.3 13.49 165.99 13.49 166.68 13.24 167.36 13.24 168.05 12.74 168.74 12.49 169.42 12.49 170.11 12.24 170.8 12.24 171.49 12.24 172.17 11.99 172.86 11.99 173.55 11.74 175.61 11.74 179.04 10.49 179.73 9.99 180.42 9.99 181.11 9.75 181.79 9.75" id="fig-c2492bd53ef94577bd7cdbe7ff2a43dd-element-40"/>
      </g>
      <g stroke-width="0.79" fill="none" class="geometry color_0.2" stroke="#00BFFF" id="fig-c2492bd53ef94577bd7cdbe7ff2a43dd-element-41">
        <path fill="none" d="M21.69,48.18 L 22.38 48.18 23.07 47.93 23.75 47.93 24.44 47.93 25.13 47.93 25.82 47.93 26.5 47.93 27.88 47.93 28.56 47.93 29.94 47.68 31.31 47.43 32 47.43 33.37 47.18 34.06 46.93 38.87 46.43 40.93 46.43 42.31 46.43 47.12 46.18 47.8 45.93 48.49 45.93 49.18 45.93 49.87 45.93 50.55 45.93 51.24 45.93 51.93 45.93 52.61 45.93 53.3 45.93 53.99 45.18 54.67 45.18 56.05 44.94 56.74 44.94 57.42 44.94 58.11 44.69 58.8 46.68 59.48 45.43 60.17 45.43 60.86 45.43 61.55 45.43 62.23 45.43 62.92 45.43 63.61 45.43 64.29 45.43 64.98 45.18 65.67 45.18 66.36 44.94 67.04 44.94 71.17 43.69 71.85 43.69 72.54 43.44 73.23 43.19 73.91 42.69 74.6 42.69 75.29 42.69 75.98 42.69 76.66 42.69 77.35 42.44 78.72 42.44 79.41 41.94 80.1 41.94 80.79 41.94 81.47 41.94 82.16 41.94 82.85 41.19 83.53 41.19 84.91 40.94 85.6 40.44 86.28 40.19 86.97 39.94 87.66 39.94 88.34 39.94 89.72 39.44 90.41 39.2 91.09 38.95 91.78 38.95 93.15 38.45 94.53 37.95 95.22 37.95 95.9 37.95 96.59 37.95 98.65 37.95 99.34 37.95 100.03 37.7 100.71 37.7 101.4 37.7 102.09 37.45 102.77 37.45 103.46 37.45 104.83 37.2 105.52 37.2 106.9 37.2 107.58 37.2 108.27 36.45 108.96 36.45 110.33 36.95 111.02 36.95 111.71 36.45 112.39 36.2 113.08 36.2 113.77 35.7 114.45 35.7" id="fig-c2492bd53ef94577bd7cdbe7ff2a43dd-element-42"/>
      </g>
    </g>
  </g>
  <g class="guide ylabels" font-size="2.82" font-family="'PT Sans Caption','Helvetica Neue','Helvetica',sans-serif" fill="#6C606B" id="fig-c2492bd53ef94577bd7cdbe7ff2a43dd-element-43">
    <text x="18.63" y="56.91" text-anchor="end" dy="0.35em" id="fig-c2492bd53ef94577bd7cdbe7ff2a43dd-element-44">250</text>
    <text x="18.63" y="44.44" text-anchor="end" dy="0.35em" id="fig-c2492bd53ef94577bd7cdbe7ff2a43dd-element-45">300</text>
    <text x="18.63" y="31.96" text-anchor="end" dy="0.35em" id="fig-c2492bd53ef94577bd7cdbe7ff2a43dd-element-46">350</text>
    <text x="18.63" y="19.48" text-anchor="end" dy="0.35em" id="fig-c2492bd53ef94577bd7cdbe7ff2a43dd-element-47">400</text>
    <text x="18.63" y="7" text-anchor="end" dy="0.35em" id="fig-c2492bd53ef94577bd7cdbe7ff2a43dd-element-48">450</text>
  </g>
</g>
<defs>
<clipPath id="fig-c2492bd53ef94577bd7cdbe7ff2a43dd-element-18">
  <path d="M19.63,5 L 183.85 5 183.85 58.91 19.63 58.91" />
</clipPath
></defs>
</svg>
