<?xml version="1.0" encoding="UTF-8"?>
<svg xmlns="http://www.w3.org/2000/svg"
     xmlns:xlink="http://www.w3.org/1999/xlink"
     xmlns:gadfly="http://www.gadflyjl.org/ns"
     version="1.2"
     width="203.2mm" height="76.2mm" viewBox="0 0 203.2 76.2"
     stroke="none"
     fill="#000000"
     stroke-width="0.3"
     font-size="3.88"
>
<g class="plotroot xscalable yscalable" id="fig-6f1ba9404b65487dbd066579eccd4bcf-element-1">
  <g font-size="3.88" font-family="'PT Sans','Helvetica Neue','Helvetica',sans-serif" fill="#564A55" stroke="none" id="fig-6f1ba9404b65487dbd066579eccd4bcf-element-2">
    <text x="101.74" y="68.2" text-anchor="middle">Date</text>
  </g>
  <g class="guide xlabels" font-size="2.82" font-family="'PT Sans Caption','Helvetica Neue','Helvetica',sans-serif" fill="#6C606B" id="fig-6f1ba9404b65487dbd066579eccd4bcf-element-3">
    <text x="23.14" y="62.59" text-anchor="middle">Apr</text>
    <text x="49.49" y="62.59" text-anchor="middle">May</text>
    <text x="76.71" y="62.59" text-anchor="middle">June</text>
    <text x="103.06" y="62.59" text-anchor="middle">July</text>
    <text x="130.28" y="62.59" text-anchor="middle">Aug</text>
    <text x="157.51" y="62.59" text-anchor="middle">Sept</text>
  </g>
  <g class="guide colorkey" id="fig-6f1ba9404b65487dbd066579eccd4bcf-element-4">
    <g fill="#4C404B" font-size="2.82" font-family="'PT Sans','Helvetica Neue','Helvetica',sans-serif" id="fig-6f1ba9404b65487dbd066579eccd4bcf-element-5">
      <text x="187.67" y="30.14" dy="0.35em" id="fig-6f1ba9404b65487dbd066579eccd4bcf-element-6" class="color_0.2">0.2</text>
      <text x="187.67" y="33.77" dy="0.35em" id="fig-6f1ba9404b65487dbd066579eccd4bcf-element-7" class="color_0.3">0.3</text>
      <text x="187.67" y="37.4" dy="0.35em" id="fig-6f1ba9404b65487dbd066579eccd4bcf-element-8" class="color_0.4">0.4</text>
    </g>
    <g stroke="none" id="fig-6f1ba9404b65487dbd066579eccd4bcf-element-9">
      <rect x="184.85" y="29.24" width="1.81" height="1.81" id="fig-6f1ba9404b65487dbd066579eccd4bcf-element-10" fill="#00BFFF" class="color_0.2"/>
      <rect x="184.85" y="32.86" width="1.81" height="1.81" id="fig-6f1ba9404b65487dbd066579eccd4bcf-element-11" fill="#D4CA3A" class="color_0.3"/>
      <rect x="184.85" y="36.49" width="1.81" height="1.81" id="fig-6f1ba9404b65487dbd066579eccd4bcf-element-12" fill="#FF5EA0" class="color_0.4"/>
    </g>
    <g fill="#362A35" font-size="3.88" font-family="'PT Sans','Helvetica Neue','Helvetica',sans-serif" stroke="none" id="fig-6f1ba9404b65487dbd066579eccd4bcf-element-13">
      <text x="184.85" y="26.32" id="fig-6f1ba9404b65487dbd066579eccd4bcf-element-14">Julia ver.</text>
    </g>
  </g>
  <g clip-path="url(#fig-6f1ba9404b65487dbd066579eccd4bcf-element-16)" id="fig-6f1ba9404b65487dbd066579eccd4bcf-element-15">
    <g pointer-events="visible" opacity="1" fill="none" stroke="none" class="guide background" id="fig-6f1ba9404b65487dbd066579eccd4bcf-element-17">
      <rect x="19.63" y="5" width="164.22" height="53.91" id="fig-6f1ba9404b65487dbd066579eccd4bcf-element-18"/>
    </g>
    <g class="guide ygridlines xfixed" stroke-dasharray="0.5,0.5" stroke-width="0.2" stroke="#D0D0E0" id="fig-6f1ba9404b65487dbd066579eccd4bcf-element-19">
      <path fill="none" d="M19.63,56.91 L 183.85 56.91" id="fig-6f1ba9404b65487dbd066579eccd4bcf-element-20"/>
      <path fill="none" d="M19.63,44.44 L 183.85 44.44" id="fig-6f1ba9404b65487dbd066579eccd4bcf-element-21"/>
      <path fill="none" d="M19.63,31.96 L 183.85 31.96" id="fig-6f1ba9404b65487dbd066579eccd4bcf-element-22"/>
      <path fill="none" d="M19.63,19.48 L 183.85 19.48" id="fig-6f1ba9404b65487dbd066579eccd4bcf-element-23"/>
      <path fill="none" d="M19.63,7 L 183.85 7" id="fig-6f1ba9404b65487dbd066579eccd4bcf-element-24"/>
    </g>
    <g class="guide xgridlines yfixed" stroke-dasharray="0.5,0.5" stroke-width="0.2" stroke="#D0D0E0" id="fig-6f1ba9404b65487dbd066579eccd4bcf-element-25">
      <path fill="none" d="M23.14,5 L 23.14 58.91" id="fig-6f1ba9404b65487dbd066579eccd4bcf-element-26"/>
      <path fill="none" d="M49.49,5 L 49.49 58.91" id="fig-6f1ba9404b65487dbd066579eccd4bcf-element-27"/>
      <path fill="none" d="M76.71,5 L 76.71 58.91" id="fig-6f1ba9404b65487dbd066579eccd4bcf-element-28"/>
      <path fill="none" d="M103.06,5 L 103.06 58.91" id="fig-6f1ba9404b65487dbd066579eccd4bcf-element-29"/>
      <path fill="none" d="M130.28,5 L 130.28 58.91" id="fig-6f1ba9404b65487dbd066579eccd4bcf-element-30"/>
      <path fill="none" d="M157.51,5 L 157.51 58.91" id="fig-6f1ba9404b65487dbd066579eccd4bcf-element-31"/>
    </g>
    <g class="plotpanel" id="fig-6f1ba9404b65487dbd066579eccd4bcf-element-32">
      <g stroke-width="0.79" fill="none" class="geometry color_0.4" stroke="#FF5EA0" id="fig-6f1ba9404b65487dbd066579eccd4bcf-element-33">
        <path fill="none" d="M140.82,28.46 L 141.7 27.71 142.58 27.47 143.46 27.22 144.34 27.22 145.21 27.22 146.97 26.47 147.85 26.47 148.73 26.22 149.6 26.22 150.48 26.22 151.36 25.47 152.24 24.97 153.12 24.97 154.87 24.47 155.75 23.72 157.51 23.22 158.39 23.22 159.26 23.22 162.78 23.22 165.41 21.72 166.29 21.48 167.17 21.23 168.05 20.73 168.92 20.73 169.8 20.73 170.68 18.73 171.56 18.73 172.44 18.73 174.19 18.48 175.07 18.48 175.95 18.23 176.83 18.23 177.71 18.23 178.58 17.98 179.46 17.98 181.22 18.23" id="fig-6f1ba9404b65487dbd066579eccd4bcf-element-34"/>
      </g>
      <g stroke-width="0.79" fill="none" class="geometry color_0.3" stroke="#D4CA3A" id="fig-6f1ba9404b65487dbd066579eccd4bcf-element-35">
        <path fill="none" d="M21.39,45.43 L 22.27 45.43 23.14 45.18 24.02 45.18 24.9 45.18 25.78 45.18 26.66 45.18 27.54 44.94 29.29 44.94 30.17 44.69 31.93 44.44 33.68 43.94 34.56 43.94 36.32 43.94 37.2 43.69 43.34 42.69 45.98 42.69 47.73 42.69 53.88 42.44 54.76 41.94 55.64 41.69 56.52 41.69 57.39 41.69 58.27 41.69 59.15 41.69 60.03 41.69 60.91 41.69 61.79 41.69 62.66 41.69 63.54 40.94 65.3 40.69 66.18 40.69 67.05 40.69 67.93 40.19 68.81 40.19 69.69 40.19 70.57 39.94 71.45 39.94 72.32 39.94 73.2 39.94 74.08 39.94 74.96 39.69 75.84 39.69 76.71 49.68 77.59 39.44 78.47 39.2 79.35 38.95 84.62 37.45 85.5 37.2 86.37 36.95 87.25 36.7 88.13 36.2 89.01 36.2 89.89 35.7 90.77 35.7 91.64 35.45 92.52 35.2 94.28 35.2 95.16 34.7 96.03 34.7 96.91 34.7 97.79 34.7 98.67 34.7 99.55 33.95 100.43 33.95 102.18 33.7 103.06 33.21 103.94 32.96 104.82 32.71 105.69 32.71 106.57 32.21 108.33 31.96 109.21 31.21 110.09 31.21 110.96 31.21 112.72 29.96 114.48 29.21 115.35 29.21 116.23 28.96 117.11 28.96 119.75 28.71 120.62 28.71 121.5 28.46 122.38 28.46 123.26 28.46 124.14 28.21 125.02 27.96 125.89 27.71 127.65 27.71 128.53 27.71 130.28 27.71 131.16 27.47 132.04 26.72 132.92 26.72 134.68 26.47 135.55 26.47 136.43 25.97 137.31 25.72 138.19 25.47 139.07 25.22 139.94 24.97 140.82 24.47 141.7 24.47 142.58 24.22 143.46 23.97 144.34 23.97 145.21 23.97 146.97 23.22 147.85 23.22 148.73 22.97 149.6 22.97 150.48 22.97 151.36 22.22 152.24 21.97 153.12 21.72 154.87 24.72 155.75 23.97 157.51 23.47 158.39 23.47 159.26 23.47 162.78 23.47 165.41 21.97 166.29 21.72 167.17 21.48 168.05 20.98 168.92 20.98 169.8 20.98 170.68 18.98 171.56 18.98 172.44 18.98 174.19 18.98 175.07 18.73 175.95 18.48 176.83 18.48 177.71 18.48 178.58 18.23 179.46 18.23 181.22 18.48" id="fig-6f1ba9404b65487dbd066579eccd4bcf-element-36"/>
      </g>
      <g stroke-width="0.79" fill="none" class="geometry color_0.2" stroke="#00BFFF" id="fig-6f1ba9404b65487dbd066579eccd4bcf-element-37">
        <path fill="none" d="M21.39,48.18 L 22.27 48.18 23.14 47.93 24.02 47.93 24.9 47.93 25.78 47.93 26.66 47.93 27.54 47.93 29.29 47.93 30.17 47.93 31.93 47.68 33.68 47.43 34.56 47.43 36.32 47.18 37.2 46.93 43.34 46.43 45.98 46.43 47.73 46.43 53.88 46.18 54.76 45.93 55.64 45.93 56.52 45.93 57.39 45.93 58.27 45.93 59.15 45.93 60.03 45.93 60.91 45.93 61.79 45.93 62.66 45.18 63.54 45.18 65.3 44.94 66.18 44.94 67.05 44.94 67.93 44.69 68.81 46.68 69.69 45.43 70.57 45.43 71.45 45.43 72.32 45.43 73.2 45.43 74.08 45.43 74.96 45.43 75.84 45.43 76.71 45.18 77.59 45.18 78.47 44.94 79.35 44.94 84.62 43.69 85.5 43.69 86.37 43.44 87.25 43.19 88.13 42.69 89.01 42.69 89.89 42.69 90.77 42.69 91.64 42.69 92.52 42.44 94.28 42.44 95.16 41.94 96.03 41.94 96.91 41.94 97.79 41.94 98.67 41.94 99.55 41.19 100.43 41.19 102.18 40.94 103.06 40.44 103.94 40.19 104.82 39.94 105.69 39.94 106.57 39.94 108.33 39.44 109.21 39.2 110.09 38.95 110.96 38.95 112.72 38.45 114.48 37.95 115.35 37.95 116.23 37.95 117.11 37.95 119.75 37.95 120.62 37.95 121.5 37.7 122.38 37.7 123.26 37.7 124.14 37.45 125.02 37.45 125.89 37.45 127.65 37.2 128.53 37.2 130.28 37.2 131.16 37.2 132.04 36.45 132.92 36.45 134.68 36.95 135.55 36.95 136.43 36.45 137.31 36.2 138.19 36.2 139.07 35.7 139.94 35.7" id="fig-6f1ba9404b65487dbd066579eccd4bcf-element-38"/>
      </g>
    </g>
  </g>
  <g class="guide ylabels" font-size="2.82" font-family="'PT Sans Caption','Helvetica Neue','Helvetica',sans-serif" fill="#6C606B" id="fig-6f1ba9404b65487dbd066579eccd4bcf-element-39">
    <text x="18.63" y="56.91" text-anchor="end" dy="0.35em" id="fig-6f1ba9404b65487dbd066579eccd4bcf-element-40">250</text>
    <text x="18.63" y="44.44" text-anchor="end" dy="0.35em" id="fig-6f1ba9404b65487dbd066579eccd4bcf-element-41">300</text>
    <text x="18.63" y="31.96" text-anchor="end" dy="0.35em" id="fig-6f1ba9404b65487dbd066579eccd4bcf-element-42">350</text>
    <text x="18.63" y="19.48" text-anchor="end" dy="0.35em" id="fig-6f1ba9404b65487dbd066579eccd4bcf-element-43">400</text>
    <text x="18.63" y="7" text-anchor="end" dy="0.35em" id="fig-6f1ba9404b65487dbd066579eccd4bcf-element-44">450</text>
  </g>
  <g font-size="3.88" font-family="'PT Sans','Helvetica Neue','Helvetica',sans-serif" fill="#564A55" stroke="none" id="fig-6f1ba9404b65487dbd066579eccd4bcf-element-45">
    <text x="8.81" y="29.96" text-anchor="middle" dy="0.35em" transform="rotate(-90, 8.81, 31.96)" id="fig-6f1ba9404b65487dbd066579eccd4bcf-element-46">Number of Tagged Packages</text>
  </g>
</g>
<defs>
<clipPath id="fig-6f1ba9404b65487dbd066579eccd4bcf-element-16">
  <path d="M19.63,5 L 183.85 5 183.85 58.91 19.63 58.91" />
</clipPath
></defs>
</svg>
