<?xml version="1.0" encoding="UTF-8"?>
<svg xmlns="http://www.w3.org/2000/svg"
     xmlns:xlink="http://www.w3.org/1999/xlink"
     xmlns:gadfly="http://www.gadflyjl.org/ns"
     version="1.2"
     width="203.2mm" height="76.2mm" viewBox="0 0 203.2 76.2"
     stroke="none"
     fill="#000000"
     stroke-width="0.3"
     font-size="3.88"
>
<g class="plotroot xscalable yscalable" id="fig-928f6ec0960e4ead95546089987ef4b8-element-1">
  <g font-size="3.88" font-family="'PT Sans','Helvetica Neue','Helvetica',sans-serif" fill="#564A55" stroke="none" id="fig-928f6ec0960e4ead95546089987ef4b8-element-2">
    <text x="101.74" y="68.2" text-anchor="middle">Date</text>
  </g>
  <g class="guide xlabels" font-size="2.82" font-family="'PT Sans Caption','Helvetica Neue','Helvetica',sans-serif" fill="#6C606B" id="fig-928f6ec0960e4ead95546089987ef4b8-element-3">
    <text x="23.11" y="62.59" text-anchor="middle">Apr</text>
    <text x="43.99" y="62.59" text-anchor="middle">May</text>
    <text x="65.56" y="62.59" text-anchor="middle">June</text>
    <text x="86.43" y="62.59" text-anchor="middle">July</text>
    <text x="108.01" y="62.59" text-anchor="middle">Aug</text>
    <text x="129.58" y="62.59" text-anchor="middle">Sept</text>
    <text x="150.45" y="62.59" text-anchor="middle">Oct</text>
    <text x="172.02" y="62.59" text-anchor="middle">Nev</text>
  </g>
  <g class="guide colorkey" id="fig-928f6ec0960e4ead95546089987ef4b8-element-4">
    <g fill="#4C404B" font-size="2.82" font-family="'PT Sans','Helvetica Neue','Helvetica',sans-serif" id="fig-928f6ec0960e4ead95546089987ef4b8-element-5">
      <text x="187.67" y="30.14" dy="0.35em" id="fig-928f6ec0960e4ead95546089987ef4b8-element-6" class="color_0.2">0.2</text>
      <text x="187.67" y="33.77" dy="0.35em" id="fig-928f6ec0960e4ead95546089987ef4b8-element-7" class="color_0.3">0.3</text>
      <text x="187.67" y="37.4" dy="0.35em" id="fig-928f6ec0960e4ead95546089987ef4b8-element-8" class="color_0.4">0.4</text>
    </g>
    <g stroke="none" id="fig-928f6ec0960e4ead95546089987ef4b8-element-9">
      <rect x="184.85" y="29.24" width="1.81" height="1.81" id="fig-928f6ec0960e4ead95546089987ef4b8-element-10" fill="#00BFFF" class="color_0.2"/>
      <rect x="184.85" y="32.86" width="1.81" height="1.81" id="fig-928f6ec0960e4ead95546089987ef4b8-element-11" fill="#D4CA3A" class="color_0.3"/>
      <rect x="184.85" y="36.49" width="1.81" height="1.81" id="fig-928f6ec0960e4ead95546089987ef4b8-element-12" fill="#FF5EA0" class="color_0.4"/>
    </g>
    <g fill="#362A35" font-size="3.88" font-family="'PT Sans','Helvetica Neue','Helvetica',sans-serif" stroke="none" id="fig-928f6ec0960e4ead95546089987ef4b8-element-13">
      <text x="184.85" y="26.32" id="fig-928f6ec0960e4ead95546089987ef4b8-element-14">Julia ver.</text>
    </g>
  </g>
  <g font-size="3.88" font-family="'PT Sans','Helvetica Neue','Helvetica',sans-serif" fill="#564A55" stroke="none" id="fig-928f6ec0960e4ead95546089987ef4b8-element-15">
    <text x="8.81" y="29.96" text-anchor="middle" dy="0.35em" transform="rotate(-90, 8.81, 31.96)" id="fig-928f6ec0960e4ead95546089987ef4b8-element-16">Number of Tagged Packages</text>
  </g>
  <g clip-path="url(#fig-928f6ec0960e4ead95546089987ef4b8-element-18)" id="fig-928f6ec0960e4ead95546089987ef4b8-element-17">
    <g pointer-events="visible" opacity="1" fill="none" stroke="none" class="guide background" id="fig-928f6ec0960e4ead95546089987ef4b8-element-19">
      <rect x="19.63" y="5" width="164.22" height="53.91" id="fig-928f6ec0960e4ead95546089987ef4b8-element-20"/>
    </g>
    <g class="guide ygridlines xfixed" stroke-dasharray="0.5,0.5" stroke-width="0.2" stroke="#D0D0E0" id="fig-928f6ec0960e4ead95546089987ef4b8-element-21">
      <path fill="none" d="M19.63,56.91 L 183.85 56.91" id="fig-928f6ec0960e4ead95546089987ef4b8-element-22"/>
      <path fill="none" d="M19.63,44.44 L 183.85 44.44" id="fig-928f6ec0960e4ead95546089987ef4b8-element-23"/>
      <path fill="none" d="M19.63,31.96 L 183.85 31.96" id="fig-928f6ec0960e4ead95546089987ef4b8-element-24"/>
      <path fill="none" d="M19.63,19.48 L 183.85 19.48" id="fig-928f6ec0960e4ead95546089987ef4b8-element-25"/>
      <path fill="none" d="M19.63,7 L 183.85 7" id="fig-928f6ec0960e4ead95546089987ef4b8-element-26"/>
    </g>
    <g class="guide xgridlines yfixed" stroke-dasharray="0.5,0.5" stroke-width="0.2" stroke="#D0D0E0" id="fig-928f6ec0960e4ead95546089987ef4b8-element-27">
      <path fill="none" d="M23.11,5 L 23.11 58.91" id="fig-928f6ec0960e4ead95546089987ef4b8-element-28"/>
      <path fill="none" d="M43.99,5 L 43.99 58.91" id="fig-928f6ec0960e4ead95546089987ef4b8-element-29"/>
      <path fill="none" d="M65.56,5 L 65.56 58.91" id="fig-928f6ec0960e4ead95546089987ef4b8-element-30"/>
      <path fill="none" d="M86.43,5 L 86.43 58.91" id="fig-928f6ec0960e4ead95546089987ef4b8-element-31"/>
      <path fill="none" d="M108.01,5 L 108.01 58.91" id="fig-928f6ec0960e4ead95546089987ef4b8-element-32"/>
      <path fill="none" d="M129.58,5 L 129.58 58.91" id="fig-928f6ec0960e4ead95546089987ef4b8-element-33"/>
      <path fill="none" d="M150.45,5 L 150.45 58.91" id="fig-928f6ec0960e4ead95546089987ef4b8-element-34"/>
      <path fill="none" d="M172.02,5 L 172.02 58.91" id="fig-928f6ec0960e4ead95546089987ef4b8-element-35"/>
    </g>
    <g class="plotpanel" id="fig-928f6ec0960e4ead95546089987ef4b8-element-36">
      <g stroke-width="0.79" fill="none" class="geometry color_0.4" stroke="#FF5EA0" id="fig-928f6ec0960e4ead95546089987ef4b8-element-37">
        <path fill="none" d="M116.36,28.46 L 117.05 27.71 117.75 27.47 118.44 27.22 119.14 27.22 119.84 27.22 121.23 26.47 121.92 26.47 122.62 26.22 123.31 26.22 124.01 26.22 124.71 25.47 125.4 24.97 126.1 24.97 127.49 24.47 128.19 23.72 129.58 23.22 130.27 23.22 130.97 23.22 133.75 23.22 135.84 21.72 136.54 21.48 137.23 21.23 137.93 20.73 138.62 20.73 139.32 20.73 140.02 18.73 140.71 18.73 141.41 18.73 142.8 18.48 143.49 18.48 144.19 18.23 144.89 18.23 145.58 18.23 146.28 17.98 146.97 17.98 148.37 18.23 149.06 17.98 149.76 17.98 150.45 17.48 151.15 16.98 151.84 16.98 152.54 16.98 153.24 16.48 155.32 15.98 156.02 15.98 156.72 15.49 157.41 15.24 158.11 15.24 158.8 15.24 159.5 14.74 160.19 14.74 160.89 14.49 161.59 14.24 162.28 14.24 162.98 14.24 163.67 14.24 164.37 13.74 165.07 13.24 165.76 13.24 166.46 13.24 167.15 12.99 167.85 12.99 168.55 12.74 169.24 12.74 169.94 12.24 170.63 11.99 171.33 11.99 172.02 11.74 172.72 11.74 173.42 11.74 174.11 11.74 174.81 11.49 175.5 11.24 177.59 11.24 181.07 9.75 181.77 9.25" id="fig-928f6ec0960e4ead95546089987ef4b8-element-38"/>
      </g>
      <g stroke-width="0.79" fill="none" class="geometry color_0.3" stroke="#D4CA3A" id="fig-928f6ec0960e4ead95546089987ef4b8-element-39">
        <path fill="none" d="M21.72,45.43 L 22.42 45.43 23.11 45.18 23.81 45.18 24.5 45.18 25.2 45.18 25.89 45.18 26.59 44.94 27.98 44.94 28.68 44.69 30.07 44.44 31.46 43.94 32.16 43.94 33.55 43.94 34.24 43.69 39.12 42.69 41.2 42.69 42.59 42.69 47.47 42.44 48.16 41.94 48.86 41.69 49.55 41.69 50.25 41.69 50.95 41.69 51.64 41.69 52.34 41.69 53.03 41.69 53.73 41.69 54.42 41.69 55.12 40.94 56.51 40.69 57.21 40.69 57.9 40.69 58.6 40.19 59.3 40.19 59.99 40.19 60.69 39.94 61.38 39.94 62.08 39.94 62.77 39.94 63.47 39.94 64.17 39.69 64.86 39.69 65.56 49.68 66.25 39.44 66.95 39.2 67.65 38.95 71.82 37.45 72.52 37.2 73.21 36.95 73.91 36.7 74.6 36.2 75.3 36.2 76 35.7 76.69 35.7 77.39 35.45 78.08 35.2 79.48 35.2 80.17 34.7 80.87 34.7 81.56 34.7 82.26 34.7 82.95 34.7 83.65 33.95 84.35 33.95 85.74 33.7 86.43 33.21 87.13 32.96 87.83 32.71 88.52 32.71 89.22 32.21 90.61 31.96 91.31 31.21 92 31.21 92.7 31.21 94.09 29.96 95.48 29.21 96.18 29.21 96.87 28.96 97.57 28.96 99.66 28.71 100.35 28.71 101.05 28.46 101.74 28.46 102.44 28.46 103.13 28.21 103.83 27.96 104.53 27.71 105.92 27.71 106.61 27.71 108.01 27.71 108.7 27.47 109.4 26.72 110.09 26.72 111.48 26.47 112.18 26.47 112.88 25.97 113.57 25.72 114.27 25.47 114.96 25.22 115.66 24.97 116.36 24.47 117.05 24.47 117.75 24.22 118.44 23.97 119.14 23.97 119.84 23.97 121.23 23.22 121.92 23.22 122.62 22.97 123.31 22.97 124.01 22.97 124.71 22.22 125.4 21.97 126.1 21.72 127.49 24.72 128.19 23.97 129.58 23.47 130.27 23.47 130.97 23.47 133.75 23.47 135.84 21.97 136.54 21.72 137.23 21.48 137.93 20.98 138.62 20.98 139.32 20.98 140.02 18.98 140.71 18.98 141.41 18.98 142.8 18.98 143.49 18.73 144.19 18.48 144.89 18.48 145.58 18.48 146.28 18.23 146.97 18.23 148.37 18.48 149.06 18.23 149.76 18.23 150.45 17.73 151.15 12.74 151.84 17.23 152.54 17.23 153.24 16.73 155.32 16.23 156.02 16.23 156.72 15.74 157.41 15.49 158.11 15.49 158.8 15.49 159.5 14.99 160.19 14.99 160.89 14.74 161.59 14.49 162.28 14.49 162.98 14.49 163.67 14.49 164.37 14.24 165.07 13.74 165.76 13.74 166.46 13.74 167.15 13.49 167.85 13.49 168.55 13.24 169.24 13.24 169.94 12.74 170.63 12.49 171.33 12.49 172.02 12.24 172.72 12.24 173.42 12.24 174.11 11.99 174.81 11.99 175.5 11.74 177.59 11.74 181.07 10.49 181.77 9.99" id="fig-928f6ec0960e4ead95546089987ef4b8-element-40"/>
      </g>
      <g stroke-width="0.79" fill="none" class="geometry color_0.2" stroke="#00BFFF" id="fig-928f6ec0960e4ead95546089987ef4b8-element-41">
        <path fill="none" d="M21.72,48.18 L 22.42 48.18 23.11 47.93 23.81 47.93 24.5 47.93 25.2 47.93 25.89 47.93 26.59 47.93 27.98 47.93 28.68 47.93 30.07 47.68 31.46 47.43 32.16 47.43 33.55 47.18 34.24 46.93 39.12 46.43 41.2 46.43 42.59 46.43 47.47 46.18 48.16 45.93 48.86 45.93 49.55 45.93 50.25 45.93 50.95 45.93 51.64 45.93 52.34 45.93 53.03 45.93 53.73 45.93 54.42 45.18 55.12 45.18 56.51 44.94 57.21 44.94 57.9 44.94 58.6 44.69 59.3 46.68 59.99 45.43 60.69 45.43 61.38 45.43 62.08 45.43 62.77 45.43 63.47 45.43 64.17 45.43 64.86 45.43 65.56 45.18 66.25 45.18 66.95 44.94 67.65 44.94 71.82 43.69 72.52 43.69 73.21 43.44 73.91 43.19 74.6 42.69 75.3 42.69 76 42.69 76.69 42.69 77.39 42.69 78.08 42.44 79.48 42.44 80.17 41.94 80.87 41.94 81.56 41.94 82.26 41.94 82.95 41.94 83.65 41.19 84.35 41.19 85.74 40.94 86.43 40.44 87.13 40.19 87.83 39.94 88.52 39.94 89.22 39.94 90.61 39.44 91.31 39.2 92 38.95 92.7 38.95 94.09 38.45 95.48 37.95 96.18 37.95 96.87 37.95 97.57 37.95 99.66 37.95 100.35 37.95 101.05 37.7 101.74 37.7 102.44 37.7 103.13 37.45 103.83 37.45 104.53 37.45 105.92 37.2 106.61 37.2 108.01 37.2 108.7 37.2 109.4 36.45 110.09 36.45 111.48 36.95 112.18 36.95 112.88 36.45 113.57 36.2 114.27 36.2 114.96 35.7 115.66 35.7" id="fig-928f6ec0960e4ead95546089987ef4b8-element-42"/>
      </g>
    </g>
  </g>
  <g class="guide ylabels" font-size="2.82" font-family="'PT Sans Caption','Helvetica Neue','Helvetica',sans-serif" fill="#6C606B" id="fig-928f6ec0960e4ead95546089987ef4b8-element-43">
    <text x="18.63" y="56.91" text-anchor="end" dy="0.35em" id="fig-928f6ec0960e4ead95546089987ef4b8-element-44">250</text>
    <text x="18.63" y="44.44" text-anchor="end" dy="0.35em" id="fig-928f6ec0960e4ead95546089987ef4b8-element-45">300</text>
    <text x="18.63" y="31.96" text-anchor="end" dy="0.35em" id="fig-928f6ec0960e4ead95546089987ef4b8-element-46">350</text>
    <text x="18.63" y="19.48" text-anchor="end" dy="0.35em" id="fig-928f6ec0960e4ead95546089987ef4b8-element-47">400</text>
    <text x="18.63" y="7" text-anchor="end" dy="0.35em" id="fig-928f6ec0960e4ead95546089987ef4b8-element-48">450</text>
  </g>
</g>
<defs>
<clipPath id="fig-928f6ec0960e4ead95546089987ef4b8-element-18">
  <path d="M19.63,5 L 183.85 5 183.85 58.91 19.63 58.91" />
</clipPath
></defs>
</svg>
