<?xml version="1.0" encoding="UTF-8"?>
<svg xmlns="http://www.w3.org/2000/svg"
     xmlns:xlink="http://www.w3.org/1999/xlink"
     xmlns:gadfly="http://www.gadflyjl.org/ns"
     version="1.2"
     width="203.2mm" height="76.2mm" viewBox="0 0 203.2 76.2"
     stroke="none"
     fill="#000000"
     stroke-width="0.3"
     font-size="3.88"
>
<g class="plotroot xscalable yscalable" id="fig-9578bf9419d44c4ab516b5eaa4d4e13e-element-1">
  <g font-size="3.88" font-family="'PT Sans','Helvetica Neue','Helvetica',sans-serif" fill="#564A55" stroke="none" id="fig-9578bf9419d44c4ab516b5eaa4d4e13e-element-2">
    <text x="101.74" y="68.2" text-anchor="middle">Date</text>
  </g>
  <g class="guide xlabels" font-size="2.82" font-family="'PT Sans Caption','Helvetica Neue','Helvetica',sans-serif" fill="#6C606B" id="fig-9578bf9419d44c4ab516b5eaa4d4e13e-element-3">
    <text x="23.4" y="62.59" text-anchor="middle">Apr</text>
    <text x="46" y="62.59" text-anchor="middle">May</text>
    <text x="69.35" y="62.59" text-anchor="middle">June</text>
    <text x="91.95" y="62.59" text-anchor="middle">July</text>
    <text x="115.3" y="62.59" text-anchor="middle">Aug</text>
    <text x="138.66" y="62.59" text-anchor="middle">Sept</text>
    <text x="161.25" y="62.59" text-anchor="middle">Oct</text>
  </g>
  <g class="guide colorkey" id="fig-9578bf9419d44c4ab516b5eaa4d4e13e-element-4">
    <g fill="#4C404B" font-size="2.82" font-family="'PT Sans','Helvetica Neue','Helvetica',sans-serif" id="fig-9578bf9419d44c4ab516b5eaa4d4e13e-element-5">
      <text x="187.67" y="30.14" dy="0.35em" id="fig-9578bf9419d44c4ab516b5eaa4d4e13e-element-6" class="color_0.2">0.2</text>
      <text x="187.67" y="33.77" dy="0.35em" id="fig-9578bf9419d44c4ab516b5eaa4d4e13e-element-7" class="color_0.3">0.3</text>
      <text x="187.67" y="37.4" dy="0.35em" id="fig-9578bf9419d44c4ab516b5eaa4d4e13e-element-8" class="color_0.4">0.4</text>
    </g>
    <g stroke="none" id="fig-9578bf9419d44c4ab516b5eaa4d4e13e-element-9">
      <rect x="184.85" y="29.24" width="1.81" height="1.81" id="fig-9578bf9419d44c4ab516b5eaa4d4e13e-element-10" fill="#00BFFF" class="color_0.2"/>
      <rect x="184.85" y="32.86" width="1.81" height="1.81" id="fig-9578bf9419d44c4ab516b5eaa4d4e13e-element-11" fill="#D4CA3A" class="color_0.3"/>
      <rect x="184.85" y="36.49" width="1.81" height="1.81" id="fig-9578bf9419d44c4ab516b5eaa4d4e13e-element-12" fill="#FF5EA0" class="color_0.4"/>
    </g>
    <g fill="#362A35" font-size="3.88" font-family="'PT Sans','Helvetica Neue','Helvetica',sans-serif" stroke="none" id="fig-9578bf9419d44c4ab516b5eaa4d4e13e-element-13">
      <text x="184.85" y="26.32" id="fig-9578bf9419d44c4ab516b5eaa4d4e13e-element-14">Julia ver.</text>
    </g>
  </g>
  <g font-size="3.88" font-family="'PT Sans','Helvetica Neue','Helvetica',sans-serif" fill="#564A55" stroke="none" id="fig-9578bf9419d44c4ab516b5eaa4d4e13e-element-15">
    <text x="8.81" y="29.96" text-anchor="middle" dy="0.35em" transform="rotate(-90, 8.81, 31.96)" id="fig-9578bf9419d44c4ab516b5eaa4d4e13e-element-16">Number of Tagged Packages</text>
  </g>
  <g clip-path="url(#fig-9578bf9419d44c4ab516b5eaa4d4e13e-element-18)" id="fig-9578bf9419d44c4ab516b5eaa4d4e13e-element-17">
    <g pointer-events="visible" opacity="1" fill="none" stroke="none" class="guide background" id="fig-9578bf9419d44c4ab516b5eaa4d4e13e-element-19">
      <rect x="19.63" y="5" width="164.22" height="53.91" id="fig-9578bf9419d44c4ab516b5eaa4d4e13e-element-20"/>
    </g>
    <g class="guide ygridlines xfixed" stroke-dasharray="0.5,0.5" stroke-width="0.2" stroke="#D0D0E0" id="fig-9578bf9419d44c4ab516b5eaa4d4e13e-element-21">
      <path fill="none" d="M19.63,56.91 L 183.85 56.91" id="fig-9578bf9419d44c4ab516b5eaa4d4e13e-element-22"/>
      <path fill="none" d="M19.63,44.44 L 183.85 44.44" id="fig-9578bf9419d44c4ab516b5eaa4d4e13e-element-23"/>
      <path fill="none" d="M19.63,31.96 L 183.85 31.96" id="fig-9578bf9419d44c4ab516b5eaa4d4e13e-element-24"/>
      <path fill="none" d="M19.63,19.48 L 183.85 19.48" id="fig-9578bf9419d44c4ab516b5eaa4d4e13e-element-25"/>
      <path fill="none" d="M19.63,7 L 183.85 7" id="fig-9578bf9419d44c4ab516b5eaa4d4e13e-element-26"/>
    </g>
    <g class="guide xgridlines yfixed" stroke-dasharray="0.5,0.5" stroke-width="0.2" stroke="#D0D0E0" id="fig-9578bf9419d44c4ab516b5eaa4d4e13e-element-27">
      <path fill="none" d="M23.4,5 L 23.4 58.91" id="fig-9578bf9419d44c4ab516b5eaa4d4e13e-element-28"/>
      <path fill="none" d="M46,5 L 46 58.91" id="fig-9578bf9419d44c4ab516b5eaa4d4e13e-element-29"/>
      <path fill="none" d="M69.35,5 L 69.35 58.91" id="fig-9578bf9419d44c4ab516b5eaa4d4e13e-element-30"/>
      <path fill="none" d="M91.95,5 L 91.95 58.91" id="fig-9578bf9419d44c4ab516b5eaa4d4e13e-element-31"/>
      <path fill="none" d="M115.3,5 L 115.3 58.91" id="fig-9578bf9419d44c4ab516b5eaa4d4e13e-element-32"/>
      <path fill="none" d="M138.66,5 L 138.66 58.91" id="fig-9578bf9419d44c4ab516b5eaa4d4e13e-element-33"/>
      <path fill="none" d="M161.25,5 L 161.25 58.91" id="fig-9578bf9419d44c4ab516b5eaa4d4e13e-element-34"/>
    </g>
    <g class="plotpanel" id="fig-9578bf9419d44c4ab516b5eaa4d4e13e-element-35">
      <g stroke-width="0.79" fill="none" class="geometry color_0.4" stroke="#FF5EA0" id="fig-9578bf9419d44c4ab516b5eaa4d4e13e-element-36">
        <path fill="none" d="M124.34,28.46 L 125.1 27.71 125.85 27.47 126.6 27.22 127.36 27.22 128.11 27.22 129.62 26.47 130.37 26.47 131.12 26.22 131.88 26.22 132.63 26.22 133.38 25.47 134.14 24.97 134.89 24.97 136.4 24.47 137.15 23.72 138.66 23.22 139.41 23.22 140.16 23.22 143.18 23.22 145.44 21.72 146.19 21.48 146.94 21.23 147.7 20.73 148.45 20.73 149.2 20.73 149.96 18.73 150.71 18.73 151.46 18.73 152.97 18.48 153.72 18.48 154.47 18.23 155.23 18.23 155.98 18.23 156.73 17.98 157.49 17.98 158.99 18.23 159.75 17.98 160.5 17.98 161.25 17.48 162.01 16.98 162.76 16.98 163.51 16.98 164.27 16.48 166.53 15.98 167.28 15.98 168.03 15.49 168.79 15.24 169.54 15.24 170.29 15.24 171.05 14.74 171.8 14.74 172.55 14.49 173.31 14.24 174.06 14.24 174.81 14.24 175.57 14.24 176.32 13.74 177.07 13.24 177.83 13.24 178.58 13.24 179.33 12.99 180.09 12.99 180.84 12.74 181.59 12.74 182.35 12.24" id="fig-9578bf9419d44c4ab516b5eaa4d4e13e-element-37"/>
      </g>
      <g stroke-width="0.79" fill="none" class="geometry color_0.3" stroke="#D4CA3A" id="fig-9578bf9419d44c4ab516b5eaa4d4e13e-element-38">
        <path fill="none" d="M21.89,45.43 L 22.64 45.43 23.4 45.18 24.15 45.18 24.9 45.18 25.66 45.18 26.41 45.18 27.16 44.94 28.67 44.94 29.42 44.69 30.93 44.44 32.44 43.94 33.19 43.94 34.7 43.94 35.45 43.69 40.72 42.69 42.98 42.69 44.49 42.69 49.76 42.44 50.52 41.94 51.27 41.69 52.02 41.69 52.78 41.69 53.53 41.69 54.28 41.69 55.04 41.69 55.79 41.69 56.54 41.69 57.3 41.69 58.05 40.94 59.56 40.69 60.31 40.69 61.06 40.69 61.82 40.19 62.57 40.19 63.32 40.19 64.08 39.94 64.83 39.94 65.58 39.94 66.34 39.94 67.09 39.94 67.84 39.69 68.6 39.69 69.35 49.68 70.1 39.44 70.86 39.2 71.61 38.95 76.13 37.45 76.88 37.2 77.64 36.95 78.39 36.7 79.14 36.2 79.9 36.2 80.65 35.7 81.4 35.7 82.16 35.45 82.91 35.2 84.42 35.2 85.17 34.7 85.92 34.7 86.68 34.7 87.43 34.7 88.18 34.7 88.94 33.95 89.69 33.95 91.2 33.7 91.95 33.21 92.7 32.96 93.46 32.71 94.21 32.71 94.96 32.21 96.47 31.96 97.22 31.21 97.98 31.21 98.73 31.21 100.24 29.96 101.74 29.21 102.5 29.21 103.25 28.96 104 28.96 106.26 28.71 107.02 28.71 107.77 28.46 108.52 28.46 109.28 28.46 110.03 28.21 110.78 27.96 111.54 27.71 113.04 27.71 113.8 27.71 115.3 27.71 116.06 27.47 116.81 26.72 117.56 26.72 119.07 26.47 119.82 26.47 120.58 25.97 121.33 25.72 122.08 25.47 122.84 25.22 123.59 24.97 124.34 24.47 125.1 24.47 125.85 24.22 126.6 23.97 127.36 23.97 128.11 23.97 129.62 23.22 130.37 23.22 131.12 22.97 131.88 22.97 132.63 22.97 133.38 22.22 134.14 21.97 134.89 21.72 136.4 24.72 137.15 23.97 138.66 23.47 139.41 23.47 140.16 23.47 143.18 23.47 145.44 21.97 146.19 21.72 146.94 21.48 147.7 20.98 148.45 20.98 149.2 20.98 149.96 18.98 150.71 18.98 151.46 18.98 152.97 18.98 153.72 18.73 154.47 18.48 155.23 18.48 155.98 18.48 156.73 18.23 157.49 18.23 158.99 18.48 159.75 18.23 160.5 18.23 161.25 17.73 162.01 12.74 162.76 17.23 163.51 17.23 164.27 16.73 166.53 16.23 167.28 16.23 168.03 15.74 168.79 15.49 169.54 15.49 170.29 15.49 171.05 14.99 171.8 14.99 172.55 14.74 173.31 14.49 174.06 14.49 174.81 14.49 175.57 14.49 176.32 14.24 177.07 13.74 177.83 13.74 178.58 13.74 179.33 13.49 180.09 13.49 180.84 13.24 181.59 13.24 182.35 12.74" id="fig-9578bf9419d44c4ab516b5eaa4d4e13e-element-39"/>
      </g>
      <g stroke-width="0.79" fill="none" class="geometry color_0.2" stroke="#00BFFF" id="fig-9578bf9419d44c4ab516b5eaa4d4e13e-element-40">
        <path fill="none" d="M21.89,48.18 L 22.64 48.18 23.4 47.93 24.15 47.93 24.9 47.93 25.66 47.93 26.41 47.93 27.16 47.93 28.67 47.93 29.42 47.93 30.93 47.68 32.44 47.43 33.19 47.43 34.7 47.18 35.45 46.93 40.72 46.43 42.98 46.43 44.49 46.43 49.76 46.18 50.52 45.93 51.27 45.93 52.02 45.93 52.78 45.93 53.53 45.93 54.28 45.93 55.04 45.93 55.79 45.93 56.54 45.93 57.3 45.18 58.05 45.18 59.56 44.94 60.31 44.94 61.06 44.94 61.82 44.69 62.57 46.68 63.32 45.43 64.08 45.43 64.83 45.43 65.58 45.43 66.34 45.43 67.09 45.43 67.84 45.43 68.6 45.43 69.35 45.18 70.1 45.18 70.86 44.94 71.61 44.94 76.13 43.69 76.88 43.69 77.64 43.44 78.39 43.19 79.14 42.69 79.9 42.69 80.65 42.69 81.4 42.69 82.16 42.69 82.91 42.44 84.42 42.44 85.17 41.94 85.92 41.94 86.68 41.94 87.43 41.94 88.18 41.94 88.94 41.19 89.69 41.19 91.2 40.94 91.95 40.44 92.7 40.19 93.46 39.94 94.21 39.94 94.96 39.94 96.47 39.44 97.22 39.2 97.98 38.95 98.73 38.95 100.24 38.45 101.74 37.95 102.5 37.95 103.25 37.95 104 37.95 106.26 37.95 107.02 37.95 107.77 37.7 108.52 37.7 109.28 37.7 110.03 37.45 110.78 37.45 111.54 37.45 113.04 37.2 113.8 37.2 115.3 37.2 116.06 37.2 116.81 36.45 117.56 36.45 119.07 36.95 119.82 36.95 120.58 36.45 121.33 36.2 122.08 36.2 122.84 35.7 123.59 35.7" id="fig-9578bf9419d44c4ab516b5eaa4d4e13e-element-41"/>
      </g>
    </g>
  </g>
  <g class="guide ylabels" font-size="2.82" font-family="'PT Sans Caption','Helvetica Neue','Helvetica',sans-serif" fill="#6C606B" id="fig-9578bf9419d44c4ab516b5eaa4d4e13e-element-42">
    <text x="18.63" y="56.91" text-anchor="end" dy="0.35em" id="fig-9578bf9419d44c4ab516b5eaa4d4e13e-element-43">250</text>
    <text x="18.63" y="44.44" text-anchor="end" dy="0.35em" id="fig-9578bf9419d44c4ab516b5eaa4d4e13e-element-44">300</text>
    <text x="18.63" y="31.96" text-anchor="end" dy="0.35em" id="fig-9578bf9419d44c4ab516b5eaa4d4e13e-element-45">350</text>
    <text x="18.63" y="19.48" text-anchor="end" dy="0.35em" id="fig-9578bf9419d44c4ab516b5eaa4d4e13e-element-46">400</text>
    <text x="18.63" y="7" text-anchor="end" dy="0.35em" id="fig-9578bf9419d44c4ab516b5eaa4d4e13e-element-47">450</text>
  </g>
</g>
<defs>
<clipPath id="fig-9578bf9419d44c4ab516b5eaa4d4e13e-element-18">
  <path d="M19.63,5 L 183.85 5 183.85 58.91 19.63 58.91" />
</clipPath
></defs>
</svg>
