<?xml version="1.0" encoding="UTF-8"?>
<svg xmlns="http://www.w3.org/2000/svg"
     xmlns:xlink="http://www.w3.org/1999/xlink"
     xmlns:gadfly="http://www.gadflyjl.org/ns"
     version="1.2"
     width="203.2mm" height="76.2mm" viewBox="0 0 203.2 76.2"
     stroke="none"
     fill="#000000"
     stroke-width="0.3"
     font-size="3.88"
>
<g class="plotroot xscalable yscalable" id="fig-20db34cd7b854d77bdd5cce8b46aec1d-element-1">
  <g font-size="3.88" font-family="'PT Sans','Helvetica Neue','Helvetica',sans-serif" fill="#564A55" stroke="#000000" stroke-opacity="0.000" id="fig-20db34cd7b854d77bdd5cce8b46aec1d-element-2">
    <text x="101.74" y="64.59" text-anchor="middle" dy="0.6em">Date</text>
  </g>
  <g class="guide xlabels" font-size="2.82" font-family="'PT Sans Caption','Helvetica Neue','Helvetica',sans-serif" fill="#6C606B" id="fig-20db34cd7b854d77bdd5cce8b46aec1d-element-3">
    <text x="22.32" y="57.92" text-anchor="middle" dy="0.6em">Apr</text>
    <text x="32.66" y="57.92" text-anchor="middle" dy="0.6em">May</text>
    <text x="43.34" y="57.92" text-anchor="middle" dy="0.6em">Jun</text>
    <text x="53.68" y="57.92" text-anchor="middle" dy="0.6em">Jul</text>
    <text x="64.36" y="57.92" text-anchor="middle" dy="0.6em">Aug</text>
    <text x="75.04" y="57.92" text-anchor="middle" dy="0.6em">Sep</text>
    <text x="85.38" y="57.92" text-anchor="middle" dy="0.6em">Oct</text>
    <text x="96.06" y="57.92" text-anchor="middle" dy="0.6em">Nov</text>
    <text x="106.39" y="57.92" text-anchor="middle" dy="0.6em">Dec</text>
    <text x="117.08" y="57.92" text-anchor="middle" dy="0.6em">Jan 2015</text>
    <text x="127.76" y="57.92" text-anchor="middle" dy="0.6em">Feb</text>
    <text x="137.41" y="57.92" text-anchor="middle" dy="0.6em">Mar</text>
    <text x="148.09" y="57.92" text-anchor="middle" dy="0.6em">Apr</text>
    <text x="158.42" y="57.92" text-anchor="middle" dy="0.6em">May</text>
    <text x="169.11" y="57.92" text-anchor="middle" dy="0.6em">Jun</text>
    <text x="179.44" y="57.92" text-anchor="middle" dy="0.6em">Jul</text>
  </g>
  <g class="guide colorkey" id="fig-20db34cd7b854d77bdd5cce8b46aec1d-element-4">
    <g fill="#4C404B" font-size="2.82" font-family="'PT Sans','Helvetica Neue','Helvetica',sans-serif" id="fig-20db34cd7b854d77bdd5cce8b46aec1d-element-5">
      <text x="187.67" y="29.14" dy="0.35em" id="fig-20db34cd7b854d77bdd5cce8b46aec1d-element-6" class="color_0.2">0.2</text>
      <text x="187.67" y="32.77" dy="0.35em" id="fig-20db34cd7b854d77bdd5cce8b46aec1d-element-7" class="color_0.3">0.3</text>
      <text x="187.67" y="36.4" dy="0.35em" id="fig-20db34cd7b854d77bdd5cce8b46aec1d-element-8" class="color_0.4">0.4</text>
    </g>
    <g stroke="#000000" stroke-opacity="0.000" id="fig-20db34cd7b854d77bdd5cce8b46aec1d-element-9">
      <rect x="184.85" y="28.24" width="1.81" height="1.81" id="fig-20db34cd7b854d77bdd5cce8b46aec1d-element-10" class="color_0.2" fill="#00BFFF"/>
      <rect x="184.85" y="31.86" width="1.81" height="1.81" id="fig-20db34cd7b854d77bdd5cce8b46aec1d-element-11" class="color_0.3" fill="#D4CA3A"/>
      <rect x="184.85" y="35.49" width="1.81" height="1.81" id="fig-20db34cd7b854d77bdd5cce8b46aec1d-element-12" class="color_0.4" fill="#FF5EA0"/>
    </g>
    <g fill="#362A35" font-size="3.88" font-family="'PT Sans','Helvetica Neue','Helvetica',sans-serif" stroke="#000000" stroke-opacity="0.000" id="fig-20db34cd7b854d77bdd5cce8b46aec1d-element-13">
      <text x="184.85" y="25.32" id="fig-20db34cd7b854d77bdd5cce8b46aec1d-element-14">Julia ver.</text>
    </g>
  </g>
  <g font-size="3.88" font-family="'PT Sans','Helvetica Neue','Helvetica',sans-serif" fill="#564A55" stroke="#000000" stroke-opacity="0.000" id="fig-20db34cd7b854d77bdd5cce8b46aec1d-element-15">
    <text x="8.81" y="28.96" text-anchor="middle" dy="0.35em" transform="rotate(-90, 8.81, 30.96)" id="fig-20db34cd7b854d77bdd5cce8b46aec1d-element-16">Number of Tagged Packages</text>
  </g>
  <g clip-path="url(#fig-20db34cd7b854d77bdd5cce8b46aec1d-element-18)" id="fig-20db34cd7b854d77bdd5cce8b46aec1d-element-17">
    <g pointer-events="visible" opacity="1" fill="#000000" fill-opacity="0.000" stroke="#000000" stroke-opacity="0.000" class="guide background" id="fig-20db34cd7b854d77bdd5cce8b46aec1d-element-19">
      <rect x="19.63" y="5" width="164.22" height="51.92" id="fig-20db34cd7b854d77bdd5cce8b46aec1d-element-20"/>
    </g>
    <g class="guide ygridlines xfixed" stroke-dasharray="0.5,0.5" stroke-width="0.2" stroke="#D0D0E0" id="fig-20db34cd7b854d77bdd5cce8b46aec1d-element-21">
      <path fill="none" d="M19.63,54.91 L 183.85 54.91" id="fig-20db34cd7b854d77bdd5cce8b46aec1d-element-22"/>
      <path fill="none" d="M19.63,45.33 L 183.85 45.33" id="fig-20db34cd7b854d77bdd5cce8b46aec1d-element-23"/>
      <path fill="none" d="M19.63,35.75 L 183.85 35.75" id="fig-20db34cd7b854d77bdd5cce8b46aec1d-element-24"/>
      <path fill="none" d="M19.63,26.17 L 183.85 26.17" id="fig-20db34cd7b854d77bdd5cce8b46aec1d-element-25"/>
      <path fill="none" d="M19.63,16.58 L 183.85 16.58" id="fig-20db34cd7b854d77bdd5cce8b46aec1d-element-26"/>
      <path fill="none" d="M19.63,7 L 183.85 7" id="fig-20db34cd7b854d77bdd5cce8b46aec1d-element-27"/>
    </g>
    <g class="guide xgridlines yfixed" stroke-dasharray="0.5,0.5" stroke-width="0.2" stroke="#D0D0E0" id="fig-20db34cd7b854d77bdd5cce8b46aec1d-element-28">
      <path fill="none" d="M22.32,5 L 22.32 56.92" id="fig-20db34cd7b854d77bdd5cce8b46aec1d-element-29"/>
      <path fill="none" d="M32.66,5 L 32.66 56.92" id="fig-20db34cd7b854d77bdd5cce8b46aec1d-element-30"/>
      <path fill="none" d="M43.34,5 L 43.34 56.92" id="fig-20db34cd7b854d77bdd5cce8b46aec1d-element-31"/>
      <path fill="none" d="M53.68,5 L 53.68 56.92" id="fig-20db34cd7b854d77bdd5cce8b46aec1d-element-32"/>
      <path fill="none" d="M64.36,5 L 64.36 56.92" id="fig-20db34cd7b854d77bdd5cce8b46aec1d-element-33"/>
      <path fill="none" d="M75.04,5 L 75.04 56.92" id="fig-20db34cd7b854d77bdd5cce8b46aec1d-element-34"/>
      <path fill="none" d="M85.38,5 L 85.38 56.92" id="fig-20db34cd7b854d77bdd5cce8b46aec1d-element-35"/>
      <path fill="none" d="M96.06,5 L 96.06 56.92" id="fig-20db34cd7b854d77bdd5cce8b46aec1d-element-36"/>
      <path fill="none" d="M106.39,5 L 106.39 56.92" id="fig-20db34cd7b854d77bdd5cce8b46aec1d-element-37"/>
      <path fill="none" d="M117.08,5 L 117.08 56.92" id="fig-20db34cd7b854d77bdd5cce8b46aec1d-element-38"/>
      <path fill="none" d="M127.76,5 L 127.76 56.92" id="fig-20db34cd7b854d77bdd5cce8b46aec1d-element-39"/>
      <path fill="none" d="M137.41,5 L 137.41 56.92" id="fig-20db34cd7b854d77bdd5cce8b46aec1d-element-40"/>
      <path fill="none" d="M148.09,5 L 148.09 56.92" id="fig-20db34cd7b854d77bdd5cce8b46aec1d-element-41"/>
      <path fill="none" d="M158.42,5 L 158.42 56.92" id="fig-20db34cd7b854d77bdd5cce8b46aec1d-element-42"/>
      <path fill="none" d="M169.11,5 L 169.11 56.92" id="fig-20db34cd7b854d77bdd5cce8b46aec1d-element-43"/>
      <path fill="none" d="M179.44,5 L 179.44 56.92" id="fig-20db34cd7b854d77bdd5cce8b46aec1d-element-44"/>
    </g>
    <g class="plotpanel" id="fig-20db34cd7b854d77bdd5cce8b46aec1d-element-45">
      <g class="geometry" stroke="#000000" stroke-opacity="0.000" fill="#4C404B" font-size="2.82" font-family="'PT Sans Caption','Helvetica Neue','Helvetica',sans-serif" id="fig-20db34cd7b854d77bdd5cce8b46aec1d-element-46">
        <text x="75.84" y="52.46" text-anchor="middle" dy="0.35em" id="fig-20db34cd7b854d77bdd5cce8b46aec1d-element-47" visibility="visible">v0.3.0</text>
        <text x="86.87" y="52.46" text-anchor="middle" dy="0.35em" id="fig-20db34cd7b854d77bdd5cce8b46aec1d-element-48" visibility="visible">v0.3.1</text>
        <text x="97.21" y="52.46" text-anchor="middle" dy="0.35em" id="fig-20db34cd7b854d77bdd5cce8b46aec1d-element-49" visibility="visible">v0.3.2</text>
        <text x="108.58" y="52.46" text-anchor="middle" dy="0.35em" id="fig-20db34cd7b854d77bdd5cce8b46aec1d-element-50" visibility="visible">v0.3.3</text>
        <text x="116.01" y="52.46" text-anchor="middle" dy="0.35em" id="fig-20db34cd7b854d77bdd5cce8b46aec1d-element-51" visibility="visible"></text>
        <text x="124.43" y="52.46" text-anchor="middle" dy="0.35em" id="fig-20db34cd7b854d77bdd5cce8b46aec1d-element-52" visibility="visible">v0.3.5</text>
        <text x="138.21" y="52.46" text-anchor="middle" dy="0.35em" id="fig-20db34cd7b854d77bdd5cce8b46aec1d-element-53" visibility="visible">v0.3.6</text>
        <text x="149.93" y="52.46" text-anchor="middle" dy="0.35em" id="fig-20db34cd7b854d77bdd5cce8b46aec1d-element-54" visibility="visible">v0.3.7</text>
        <text x="163.02" y="52.46" text-anchor="middle" dy="0.35em" id="fig-20db34cd7b854d77bdd5cce8b46aec1d-element-55" visibility="visible">v0.3.8</text>
        <text x="173.36" y="52.46" text-anchor="middle" dy="0.35em" id="fig-20db34cd7b854d77bdd5cce8b46aec1d-element-56" visibility="visible">v0.3.9</text>
      </g>
      <g class="yfixed" stroke-width="0.26" stroke="#333333" id="fig-20db34cd7b854d77bdd5cce8b46aec1d-element-57">
        <path fill="none" d="M70.9,5 L 70.9 56.92" id="fig-20db34cd7b854d77bdd5cce8b46aec1d-element-58"/>
        <path fill="none" d="M81.93,5 L 81.93 56.92" id="fig-20db34cd7b854d77bdd5cce8b46aec1d-element-59"/>
        <path fill="none" d="M92.27,5 L 92.27 56.92" id="fig-20db34cd7b854d77bdd5cce8b46aec1d-element-60"/>
        <path fill="none" d="M103.64,5 L 103.64 56.92" id="fig-20db34cd7b854d77bdd5cce8b46aec1d-element-61"/>
        <path fill="none" d="M115.01,5 L 115.01 56.92" id="fig-20db34cd7b854d77bdd5cce8b46aec1d-element-62"/>
        <path fill="none" d="M119.49,5 L 119.49 56.92" id="fig-20db34cd7b854d77bdd5cce8b46aec1d-element-63"/>
        <path fill="none" d="M133.27,5 L 133.27 56.92" id="fig-20db34cd7b854d77bdd5cce8b46aec1d-element-64"/>
        <path fill="none" d="M144.99,5 L 144.99 56.92" id="fig-20db34cd7b854d77bdd5cce8b46aec1d-element-65"/>
        <path fill="none" d="M158.08,5 L 158.08 56.92" id="fig-20db34cd7b854d77bdd5cce8b46aec1d-element-66"/>
        <path fill="none" d="M168.42,5 L 168.42 56.92" id="fig-20db34cd7b854d77bdd5cce8b46aec1d-element-67"/>
      </g>
      <g stroke-width="0.79" fill="#000000" fill-opacity="0.000" class="geometry color_0.4" stroke="#FF5EA0" id="fig-20db34cd7b854d77bdd5cce8b46aec1d-element-68">
        <path fill="none" d="M68.49,39.2 L 68.84 38.91 69.18 38.82 69.53 38.72 69.87 38.72 70.22 38.72 70.9 38.43 71.25 38.43 71.59 38.34 71.94 38.34 72.28 38.34 72.63 38.05 72.97 37.86 73.32 37.86 74.01 37.67 74.35 37.38 75.04 37.19 75.38 37.19 75.73 37.19 77.11 37.19 78.14 36.61 78.48 36.52 78.83 36.42 79.17 36.23 79.52 36.23 79.86 36.23 80.21 35.46 80.55 35.46 80.9 35.46 81.59 35.37 81.93 35.37 82.28 35.27 82.62 35.27 82.96 35.27 83.31 35.17 83.65 35.17 84.34 35.27 84.69 35.17 85.03 35.17 85.38 34.98 85.72 34.79 86.07 34.79 86.41 34.79 86.75 34.6 87.79 34.41 88.13 34.41 88.48 34.22 88.82 34.12 89.17 34.12 89.51 34.12 89.86 33.93 90.2 33.93 90.54 33.83 90.89 33.74 91.23 33.74 91.58 33.74 91.92 33.74 92.27 33.54 92.61 33.35 92.96 33.35 93.3 33.35 93.65 33.26 93.99 33.26 94.33 33.16 94.68 33.16 95.02 32.97 95.37 32.87 95.71 32.87 96.06 32.78 96.4 32.78 96.75 32.78 97.09 32.78 97.44 32.68 97.78 32.59 98.81 32.59 100.54 32.01 100.88 31.82 101.23 31.82 101.57 31.72 101.92 31.72 102.26 31.44 102.6 31.44 103.98 30.96 104.33 30.96 106.05 30.86 106.74 30.86 107.08 30.67 107.43 30.57 107.77 30.57 108.12 30.57 108.46 30.38 108.81 30.19 109.84 30.1 110.18 30 110.87 29.62 111.22 29.62 111.56 29.62 112.6 29.62 113.29 29.42 114.32 29.23 115.7 29.04 116.39 28.66 117.42 28.47 119.83 27.8 121.21 27.12 121.56 26.93 121.9 26.93 122.24 26.36 122.59 26.36 122.93 26.36 123.62 26.26 123.97 26.17 124.31 26.17 124.66 25.88 125 25.78 125.35 25.78 125.69 25.78 126.38 25.5 126.72 25.21 127.07 25.11 128.45 24.35 128.79 24.35 129.14 24.63 129.82 24.35 130.51 24.06 130.86 24.06 131.89 23.87 133.62 23.87 135.34 23.77 137.06 22.91 137.41 22.91 137.75 22.91 138.09 22.72 138.44 22.72 139.13 22.52 139.82 22.52 141.2 22.43 141.54 22.24 141.88 22.24 142.23 22.24 142.57 22.05 142.92 22.14 143.26 21.95 147.4 21.57 148.09 21.57 148.43 21.28 149.12 21.28 150.5 21.18 151.19 21.09 151.88 20.8 153.26 20.61 153.94 20.42 154.29 20.13 154.98 19.65 155.32 19.65 155.67 19.55 156.01 19.36 156.36 19.36 156.7 19.27 157.39 19.17 157.73 18.98 158.42 18.98 159.11 18.79 159.46 18.5 159.8 18.4 160.49 18.21 160.84 18.12 162.56 17.73 163.94 17.54 164.28 17.35 167.04 17.06 167.38 17.06 167.73 17.06 168.76 16.68 169.11 16.58 169.45 16.39 170.14 16.2 170.83 16.2 171.52 16.01 174.62 15.34 175.65 15.34 176 15.34 176.34 15.15 176.69 15.15 177.03 14.86 177.37 14.86 177.72 14.86 178.06 14.76 179.1 14.67 179.79 14.47 180.48 14.47 180.82 14.28 181.17 13.9 181.51 13.71 181.85 13.61" id="fig-20db34cd7b854d77bdd5cce8b46aec1d-element-69"/>
      </g>
      <g stroke-width="0.79" fill="#000000" fill-opacity="0.000" class="geometry color_0.3" stroke="#D4CA3A" id="fig-20db34cd7b854d77bdd5cce8b46aec1d-element-70">
        <path fill="none" d="M21.63,45.72 L 21.98 45.72 22.32 45.62 22.67 45.62 23.01 45.62 23.35 45.62 23.7 45.62 24.04 45.52 24.73 45.52 25.08 45.43 25.77 45.33 26.46 45.14 26.8 45.14 27.49 45.14 27.83 45.04 30.25 44.66 31.28 44.66 31.97 44.66 34.38 44.57 34.73 44.37 35.07 44.28 35.41 44.28 35.76 44.28 36.1 44.28 36.45 44.28 36.79 44.28 37.14 44.28 37.48 44.28 37.83 44.28 38.17 43.99 38.86 43.89 39.2 43.89 39.55 43.89 39.89 43.7 40.24 43.7 40.58 43.7 40.93 43.61 41.27 43.61 41.62 43.61 41.96 43.61 42.31 43.61 42.65 43.51 42.99 43.51 43.34 47.34 43.68 43.42 44.03 43.32 44.37 43.22 46.44 42.65 46.78 42.55 47.13 42.46 47.47 42.36 47.82 42.17 48.16 42.17 48.51 41.98 48.85 41.98 49.2 41.88 49.54 41.79 50.23 41.79 50.58 41.59 50.92 41.59 51.26 41.59 51.61 41.59 51.95 41.59 52.3 41.31 52.64 41.31 53.33 41.21 53.68 41.02 54.02 40.92 54.37 40.83 54.71 40.83 55.05 40.64 55.74 40.54 56.09 40.25 56.43 40.25 56.78 40.25 57.47 39.77 58.16 39.49 58.5 39.49 58.84 39.39 59.19 39.39 60.22 39.29 60.57 39.29 60.91 39.2 61.26 39.2 61.6 39.2 61.95 39.1 62.29 39.01 62.63 38.91 63.32 38.91 63.67 38.91 64.36 38.91 64.7 38.82 65.05 38.53 65.39 38.53 66.08 38.43 66.43 38.43 66.77 38.24 67.11 38.14 67.46 38.05 67.8 37.95 68.15 37.86 68.49 37.67 68.84 37.67 69.18 37.57 69.53 37.47 69.87 37.47 70.22 37.47 70.9 37.19 71.25 37.19 71.59 37.09 71.94 37.09 72.28 37.09 72.63 36.8 72.97 36.71 73.32 36.61 74.01 37.76 74.35 37.47 75.04 37.28 75.38 37.28 75.73 37.28 77.11 37.28 78.14 36.71 78.48 36.61 78.83 36.52 79.17 36.32 79.52 36.32 79.86 36.32 80.21 35.56 80.55 35.56 80.9 35.56 81.59 35.56 81.93 35.46 82.28 35.37 82.62 35.37 82.96 35.37 83.31 35.27 83.65 35.27 84.34 35.37 84.69 35.27 85.03 35.27 85.38 35.08 85.72 33.16 86.07 34.89 86.41 34.89 86.75 34.69 87.79 34.5 88.13 34.5 88.48 34.31 88.82 34.22 89.17 34.22 89.51 34.22 89.86 34.02 90.2 34.02 90.54 33.93 90.89 33.83 91.23 33.83 91.58 33.83 91.92 33.83 92.27 33.74 92.61 33.54 92.96 33.54 93.3 33.54 93.65 33.45 93.99 33.45 94.33 33.35 94.68 33.35 95.02 33.16 95.37 33.07 95.71 33.07 96.06 32.97 96.4 32.97 96.75 32.97 97.09 32.87 97.44 32.87 97.78 32.78 98.81 32.78 100.54 32.3 100.88 32.11 101.23 32.11 101.57 32.01 101.92 32.01 102.26 31.72 102.6 31.72 103.98 31.24 104.33 31.24 106.05 31.15 106.74 31.15 107.08 31.05 107.43 30.96 107.77 30.96 108.12 30.96 108.46 30.77 108.81 30.67 109.84 30.48 110.18 30.38 110.87 30.1 111.22 30 111.56 30 112.6 30 113.29 29.81 114.32 29.62 115.7 29.42 116.39 29.14 117.42 28.75 119.83 28.18 121.21 27.51 121.56 27.32 121.9 27.32 122.24 26.84 122.59 26.84 122.93 26.84 123.62 26.84 123.97 26.65 124.31 26.65 124.66 26.36 125 26.26 125.35 26.26 125.69 26.26 126.38 25.97 126.72 25.78 127.07 25.69 128.45 24.92 128.79 25.11 129.14 25.11 129.82 24.82 130.51 24.54 130.86 24.54 131.89 24.35 133.62 24.35 135.34 23.77 137.06 23.39 137.41 23.39 137.75 23.39 138.09 23.2 138.44 23.2 139.13 23.2 139.82 23.2 141.2 23 141.54 22.81 141.88 22.72 142.23 22.72 142.57 22.52 142.92 22.62 143.26 22.43 147.4 22.33 148.09 22.33 148.43 22.05 149.12 22.05 150.5 21.95 151.19 21.95 151.88 21.66 153.26 21.66 153.94 21.47 154.29 21.37 154.98 20.9 155.32 20.9 155.67 20.8 156.01 20.51 156.36 20.51 156.7 20.42 157.39 20.32 157.73 20.22 158.42 20.22 159.11 20.03 159.46 19.75 159.8 19.65 160.49 19.46 160.84 19.36 162.56 18.98 163.94 18.79 164.28 18.6 167.04 18.21 167.38 18.21 167.73 18.21 168.76 17.92 169.11 17.83 169.45 17.73 170.14 17.54 170.83 17.54 171.52 17.45 174.62 16.97 175.65 17.06 176 17.06 176.34 16.87 176.69 16.87 177.03 16.68 177.37 16.68 177.72 16.68 178.06 16.58 179.1 16.58 179.79 16.39 180.48 16.49 180.82 16.3 181.17 15.91 181.51 15.72 181.85 15.62" id="fig-20db34cd7b854d77bdd5cce8b46aec1d-element-71"/>
      </g>
      <g stroke-width="0.79" fill="#000000" fill-opacity="0.000" class="geometry color_0.2" stroke="#00BFFF" id="fig-20db34cd7b854d77bdd5cce8b46aec1d-element-72">
        <path fill="none" d="M21.63,46.77 L 21.98 46.77 22.32 46.67 22.67 46.67 23.01 46.67 23.35 46.67 23.7 46.67 24.04 46.67 24.73 46.67 25.08 46.67 25.77 46.58 26.46 46.48 26.8 46.48 27.49 46.39 27.83 46.29 30.25 46.1 31.28 46.1 31.97 46.1 34.38 46 34.73 45.91 35.07 45.91 35.41 45.91 35.76 45.91 36.1 45.91 36.45 45.91 36.79 45.91 37.14 45.91 37.48 45.91 37.83 45.62 38.17 45.62 38.86 45.52 39.2 45.52 39.55 45.52 39.89 45.43 40.24 46.19 40.58 45.72 40.93 45.72 41.27 45.72 41.62 45.72 41.96 45.72 42.31 45.72 42.65 45.72 42.99 45.72 43.34 45.62 43.68 45.62 44.03 45.52 44.37 45.52 46.44 45.04 46.78 45.04 47.13 44.95 47.47 44.85 47.82 44.66 48.16 44.66 48.51 44.66 48.85 44.66 49.2 44.66 49.54 44.57 50.23 44.57 50.58 44.37 50.92 44.37 51.26 44.37 51.61 44.37 51.95 44.37 52.3 44.09 52.64 44.09 53.33 43.99 53.68 43.8 54.02 43.7 54.37 43.61 54.71 43.61 55.05 43.61 55.74 43.42 56.09 43.32 56.43 43.22 56.78 43.22 57.47 43.03 58.16 42.84 58.5 42.84 58.84 42.84 59.19 42.84 60.22 42.84 60.57 42.84 60.91 42.74 61.26 42.74 61.6 42.74 61.95 42.65 62.29 42.65 62.63 42.65 63.32 42.55 63.67 42.55 64.36 42.55 64.7 42.55 65.05 42.27 65.39 42.27 66.08 42.46 66.43 42.46 66.77 42.27 67.11 42.17 67.46 42.17 67.8 41.98 68.15 41.98" id="fig-20db34cd7b854d77bdd5cce8b46aec1d-element-73"/>
      </g>
    </g>
  </g>
  <g class="guide ylabels" font-size="2.82" font-family="'PT Sans Caption','Helvetica Neue','Helvetica',sans-serif" fill="#6C606B" id="fig-20db34cd7b854d77bdd5cce8b46aec1d-element-74">
    <text x="18.63" y="54.91" text-anchor="end" dy="0.35em" id="fig-20db34cd7b854d77bdd5cce8b46aec1d-element-75">200</text>
    <text x="18.63" y="45.33" text-anchor="end" dy="0.35em" id="fig-20db34cd7b854d77bdd5cce8b46aec1d-element-76">300</text>
    <text x="18.63" y="35.75" text-anchor="end" dy="0.35em" id="fig-20db34cd7b854d77bdd5cce8b46aec1d-element-77">400</text>
    <text x="18.63" y="26.17" text-anchor="end" dy="0.35em" id="fig-20db34cd7b854d77bdd5cce8b46aec1d-element-78">500</text>
    <text x="18.63" y="16.58" text-anchor="end" dy="0.35em" id="fig-20db34cd7b854d77bdd5cce8b46aec1d-element-79">600</text>
    <text x="18.63" y="7" text-anchor="end" dy="0.35em" id="fig-20db34cd7b854d77bdd5cce8b46aec1d-element-80">700</text>
  </g>
</g>
<defs>
<clipPath id="fig-20db34cd7b854d77bdd5cce8b46aec1d-element-18">
  <path d="M19.63,5 L 183.85 5 183.85 56.92 19.63 56.92" />
</clipPath
></defs>
</svg>
