<?xml version="1.0" encoding="UTF-8"?>
<svg xmlns="http://www.w3.org/2000/svg"
     xmlns:xlink="http://www.w3.org/1999/xlink"
     xmlns:gadfly="http://www.gadflyjl.org/ns"
     version="1.2"
     width="203.2mm" height="76.2mm" viewBox="0 0 203.2 76.2"
     stroke="none"
     fill="#000000"
     stroke-width="0.3"
     font-size="3.88"
>
<g class="plotroot xscalable yscalable" id="fig-983e5052824d4586a1eed7bc075fdb18-element-1">
  <g font-size="3.88" font-family="'PT Sans','Helvetica Neue','Helvetica',sans-serif" fill="#564A55" stroke="none" id="fig-983e5052824d4586a1eed7bc075fdb18-element-2">
    <text x="101.74" y="68.2" text-anchor="middle">Date</text>
  </g>
  <g class="guide xlabels" font-size="2.82" font-family="'PT Sans Caption','Helvetica Neue','Helvetica',sans-serif" fill="#6C606B" id="fig-983e5052824d4586a1eed7bc075fdb18-element-3">
    <text x="22.97" y="62.59" text-anchor="middle">Apr</text>
    <text x="47.97" y="62.59" text-anchor="middle">May</text>
    <text x="73.82" y="62.59" text-anchor="middle">June</text>
    <text x="98.83" y="62.59" text-anchor="middle">July</text>
    <text x="124.67" y="62.59" text-anchor="middle">Aug</text>
    <text x="150.51" y="62.59" text-anchor="middle">Sept</text>
    <text x="175.52" y="62.59" text-anchor="middle">Oct</text>
  </g>
  <g class="guide colorkey" id="fig-983e5052824d4586a1eed7bc075fdb18-element-4">
    <g fill="#4C404B" font-size="2.82" font-family="'PT Sans','Helvetica Neue','Helvetica',sans-serif" id="fig-983e5052824d4586a1eed7bc075fdb18-element-5">
      <text x="187.67" y="30.14" dy="0.35em" id="fig-983e5052824d4586a1eed7bc075fdb18-element-6" class="color_0.2">0.2</text>
      <text x="187.67" y="33.77" dy="0.35em" id="fig-983e5052824d4586a1eed7bc075fdb18-element-7" class="color_0.3">0.3</text>
      <text x="187.67" y="37.4" dy="0.35em" id="fig-983e5052824d4586a1eed7bc075fdb18-element-8" class="color_0.4">0.4</text>
    </g>
    <g stroke="none" id="fig-983e5052824d4586a1eed7bc075fdb18-element-9">
      <rect x="184.85" y="29.24" width="1.81" height="1.81" id="fig-983e5052824d4586a1eed7bc075fdb18-element-10" fill="#00BFFF" class="color_0.2"/>
      <rect x="184.85" y="32.86" width="1.81" height="1.81" id="fig-983e5052824d4586a1eed7bc075fdb18-element-11" fill="#D4CA3A" class="color_0.3"/>
      <rect x="184.85" y="36.49" width="1.81" height="1.81" id="fig-983e5052824d4586a1eed7bc075fdb18-element-12" fill="#FF5EA0" class="color_0.4"/>
    </g>
    <g fill="#362A35" font-size="3.88" font-family="'PT Sans','Helvetica Neue','Helvetica',sans-serif" stroke="none" id="fig-983e5052824d4586a1eed7bc075fdb18-element-13">
      <text x="184.85" y="26.32" id="fig-983e5052824d4586a1eed7bc075fdb18-element-14">Julia ver.</text>
    </g>
  </g>
  <g clip-path="url(#fig-983e5052824d4586a1eed7bc075fdb18-element-16)" id="fig-983e5052824d4586a1eed7bc075fdb18-element-15">
    <g pointer-events="visible" opacity="1" fill="none" stroke="none" class="guide background" id="fig-983e5052824d4586a1eed7bc075fdb18-element-17">
      <rect x="19.63" y="5" width="164.22" height="53.91" id="fig-983e5052824d4586a1eed7bc075fdb18-element-18"/>
    </g>
    <g class="guide ygridlines xfixed" stroke-dasharray="0.5,0.5" stroke-width="0.2" stroke="#D0D0E0" id="fig-983e5052824d4586a1eed7bc075fdb18-element-19">
      <path fill="none" d="M19.63,56.91 L 183.85 56.91" id="fig-983e5052824d4586a1eed7bc075fdb18-element-20"/>
      <path fill="none" d="M19.63,44.44 L 183.85 44.44" id="fig-983e5052824d4586a1eed7bc075fdb18-element-21"/>
      <path fill="none" d="M19.63,31.96 L 183.85 31.96" id="fig-983e5052824d4586a1eed7bc075fdb18-element-22"/>
      <path fill="none" d="M19.63,19.48 L 183.85 19.48" id="fig-983e5052824d4586a1eed7bc075fdb18-element-23"/>
      <path fill="none" d="M19.63,7 L 183.85 7" id="fig-983e5052824d4586a1eed7bc075fdb18-element-24"/>
    </g>
    <g class="guide xgridlines yfixed" stroke-dasharray="0.5,0.5" stroke-width="0.2" stroke="#D0D0E0" id="fig-983e5052824d4586a1eed7bc075fdb18-element-25">
      <path fill="none" d="M22.97,5 L 22.97 58.91" id="fig-983e5052824d4586a1eed7bc075fdb18-element-26"/>
      <path fill="none" d="M47.97,5 L 47.97 58.91" id="fig-983e5052824d4586a1eed7bc075fdb18-element-27"/>
      <path fill="none" d="M73.82,5 L 73.82 58.91" id="fig-983e5052824d4586a1eed7bc075fdb18-element-28"/>
      <path fill="none" d="M98.83,5 L 98.83 58.91" id="fig-983e5052824d4586a1eed7bc075fdb18-element-29"/>
      <path fill="none" d="M124.67,5 L 124.67 58.91" id="fig-983e5052824d4586a1eed7bc075fdb18-element-30"/>
      <path fill="none" d="M150.51,5 L 150.51 58.91" id="fig-983e5052824d4586a1eed7bc075fdb18-element-31"/>
      <path fill="none" d="M175.52,5 L 175.52 58.91" id="fig-983e5052824d4586a1eed7bc075fdb18-element-32"/>
    </g>
    <g class="plotpanel" id="fig-983e5052824d4586a1eed7bc075fdb18-element-33">
      <g stroke-width="0.79" fill="none" class="geometry color_0.4" stroke="#FF5EA0" id="fig-983e5052824d4586a1eed7bc075fdb18-element-34">
        <path fill="none" d="M134.67,28.46 L 135.5 27.71 136.34 27.47 137.17 27.22 138.01 27.22 138.84 27.22 140.51 26.47 141.34 26.47 142.17 26.22 143.01 26.22 143.84 26.22 144.67 25.47 145.51 24.97 146.34 24.97 148.01 24.47 148.84 23.72 150.51 23.22 151.34 23.22 152.18 23.22 155.51 23.22 158.01 21.72 158.85 21.48 159.68 21.23 160.51 20.73 161.35 20.73 162.18 20.73 163.01 18.73 163.85 18.73 164.68 18.73 166.35 18.48 167.18 18.48 168.02 18.23 168.85 18.23 169.68 18.23 170.52 17.98 171.35 17.98 173.02 18.23 173.85 17.98 174.68 17.98 175.52 17.48 176.35 16.98 177.19 16.98 178.02 16.98 178.85 16.48 181.35 15.98" id="fig-983e5052824d4586a1eed7bc075fdb18-element-35"/>
      </g>
      <g stroke-width="0.79" fill="none" class="geometry color_0.3" stroke="#D4CA3A" id="fig-983e5052824d4586a1eed7bc075fdb18-element-36">
        <path fill="none" d="M21.3,45.43 L 22.13 45.43 22.97 45.18 23.8 45.18 24.63 45.18 25.47 45.18 26.3 45.18 27.13 44.94 28.8 44.94 29.64 44.69 31.3 44.44 32.97 43.94 33.8 43.94 35.47 43.94 36.3 43.69 42.14 42.69 44.64 42.69 46.31 42.69 52.14 42.44 52.98 41.94 53.81 41.69 54.64 41.69 55.48 41.69 56.31 41.69 57.14 41.69 57.98 41.69 58.81 41.69 59.65 41.69 60.48 41.69 61.31 40.94 62.98 40.69 63.81 40.69 64.65 40.69 65.48 40.19 66.31 40.19 67.15 40.19 67.98 39.94 68.82 39.94 69.65 39.94 70.48 39.94 71.32 39.94 72.15 39.69 72.98 39.69 73.82 49.68 74.65 39.44 75.48 39.2 76.32 38.95 81.32 37.45 82.15 37.2 82.99 36.95 83.82 36.7 84.65 36.2 85.49 36.2 86.32 35.7 87.15 35.7 87.99 35.45 88.82 35.2 90.49 35.2 91.32 34.7 92.16 34.7 92.99 34.7 93.82 34.7 94.66 34.7 95.49 33.95 96.32 33.95 97.99 33.7 98.83 33.21 99.66 32.96 100.49 32.71 101.33 32.71 102.16 32.21 103.83 31.96 104.66 31.21 105.49 31.21 106.33 31.21 108 29.96 109.66 29.21 110.5 29.21 111.33 28.96 112.16 28.96 114.66 28.71 115.5 28.71 116.33 28.46 117.16 28.46 118 28.46 118.83 28.21 119.67 27.96 120.5 27.71 122.17 27.71 123 27.71 124.67 27.71 125.5 27.47 126.33 26.72 127.17 26.72 128.84 26.47 129.67 26.47 130.5 25.97 131.34 25.72 132.17 25.47 133 25.22 133.84 24.97 134.67 24.47 135.5 24.47 136.34 24.22 137.17 23.97 138.01 23.97 138.84 23.97 140.51 23.22 141.34 23.22 142.17 22.97 143.01 22.97 143.84 22.97 144.67 22.22 145.51 21.97 146.34 21.72 148.01 24.72 148.84 23.97 150.51 23.47 151.34 23.47 152.18 23.47 155.51 23.47 158.01 21.97 158.85 21.72 159.68 21.48 160.51 20.98 161.35 20.98 162.18 20.98 163.01 18.98 163.85 18.98 164.68 18.98 166.35 18.98 167.18 18.73 168.02 18.48 168.85 18.48 169.68 18.48 170.52 18.23 171.35 18.23 173.02 18.48 173.85 18.23 174.68 18.23 175.52 17.73 176.35 12.74 177.19 17.23 178.02 17.23 178.85 16.73 181.35 16.23" id="fig-983e5052824d4586a1eed7bc075fdb18-element-37"/>
      </g>
      <g stroke-width="0.79" fill="none" class="geometry color_0.2" stroke="#00BFFF" id="fig-983e5052824d4586a1eed7bc075fdb18-element-38">
        <path fill="none" d="M21.3,48.18 L 22.13 48.18 22.97 47.93 23.8 47.93 24.63 47.93 25.47 47.93 26.3 47.93 27.13 47.93 28.8 47.93 29.64 47.93 31.3 47.68 32.97 47.43 33.8 47.43 35.47 47.18 36.3 46.93 42.14 46.43 44.64 46.43 46.31 46.43 52.14 46.18 52.98 45.93 53.81 45.93 54.64 45.93 55.48 45.93 56.31 45.93 57.14 45.93 57.98 45.93 58.81 45.93 59.65 45.93 60.48 45.18 61.31 45.18 62.98 44.94 63.81 44.94 64.65 44.94 65.48 44.69 66.31 46.68 67.15 45.43 67.98 45.43 68.82 45.43 69.65 45.43 70.48 45.43 71.32 45.43 72.15 45.43 72.98 45.43 73.82 45.18 74.65 45.18 75.48 44.94 76.32 44.94 81.32 43.69 82.15 43.69 82.99 43.44 83.82 43.19 84.65 42.69 85.49 42.69 86.32 42.69 87.15 42.69 87.99 42.69 88.82 42.44 90.49 42.44 91.32 41.94 92.16 41.94 92.99 41.94 93.82 41.94 94.66 41.94 95.49 41.19 96.32 41.19 97.99 40.94 98.83 40.44 99.66 40.19 100.49 39.94 101.33 39.94 102.16 39.94 103.83 39.44 104.66 39.2 105.49 38.95 106.33 38.95 108 38.45 109.66 37.95 110.5 37.95 111.33 37.95 112.16 37.95 114.66 37.95 115.5 37.95 116.33 37.7 117.16 37.7 118 37.7 118.83 37.45 119.67 37.45 120.5 37.45 122.17 37.2 123 37.2 124.67 37.2 125.5 37.2 126.33 36.45 127.17 36.45 128.84 36.95 129.67 36.95 130.5 36.45 131.34 36.2 132.17 36.2 133 35.7 133.84 35.7" id="fig-983e5052824d4586a1eed7bc075fdb18-element-39"/>
      </g>
    </g>
  </g>
  <g class="guide ylabels" font-size="2.82" font-family="'PT Sans Caption','Helvetica Neue','Helvetica',sans-serif" fill="#6C606B" id="fig-983e5052824d4586a1eed7bc075fdb18-element-40">
    <text x="18.63" y="56.91" text-anchor="end" dy="0.35em" id="fig-983e5052824d4586a1eed7bc075fdb18-element-41">250</text>
    <text x="18.63" y="44.44" text-anchor="end" dy="0.35em" id="fig-983e5052824d4586a1eed7bc075fdb18-element-42">300</text>
    <text x="18.63" y="31.96" text-anchor="end" dy="0.35em" id="fig-983e5052824d4586a1eed7bc075fdb18-element-43">350</text>
    <text x="18.63" y="19.48" text-anchor="end" dy="0.35em" id="fig-983e5052824d4586a1eed7bc075fdb18-element-44">400</text>
    <text x="18.63" y="7" text-anchor="end" dy="0.35em" id="fig-983e5052824d4586a1eed7bc075fdb18-element-45">450</text>
  </g>
  <g font-size="3.88" font-family="'PT Sans','Helvetica Neue','Helvetica',sans-serif" fill="#564A55" stroke="none" id="fig-983e5052824d4586a1eed7bc075fdb18-element-46">
    <text x="8.81" y="29.96" text-anchor="middle" dy="0.35em" transform="rotate(-90, 8.81, 31.96)" id="fig-983e5052824d4586a1eed7bc075fdb18-element-47">Number of Tagged Packages</text>
  </g>
</g>
<defs>
<clipPath id="fig-983e5052824d4586a1eed7bc075fdb18-element-16">
  <path d="M19.63,5 L 183.85 5 183.85 58.91 19.63 58.91" />
</clipPath
></defs>
</svg>
