<?xml version="1.0" encoding="UTF-8"?>
<svg xmlns="http://www.w3.org/2000/svg"
     xmlns:xlink="http://www.w3.org/1999/xlink"
     xmlns:gadfly="http://www.gadflyjl.org/ns"
     version="1.2"
     width="203.2mm" height="76.2mm" viewBox="0 0 203.2 76.2"
     stroke="none"
     fill="#000000"
     stroke-width="0.3"
     font-size="3.88"
>
<g class="plotroot xscalable yscalable" id="fig-5b306ed41b94438f93e4ebaeaf6d849e-element-1">
  <g font-size="3.88" font-family="'PT Sans','Helvetica Neue','Helvetica',sans-serif" fill="#564A55" stroke="#000000" stroke-opacity="0.000" id="fig-5b306ed41b94438f93e4ebaeaf6d849e-element-2">
    <text x="101.74" y="64.59" text-anchor="middle" dy="0.6em">Date</text>
  </g>
  <g class="guide xlabels" font-size="2.82" font-family="'PT Sans Caption','Helvetica Neue','Helvetica',sans-serif" fill="#6C606B" id="fig-5b306ed41b94438f93e4ebaeaf6d849e-element-3">
    <text x="22.34" y="57.92" text-anchor="middle" dy="0.6em">Apr</text>
    <text x="33" y="57.92" text-anchor="middle" dy="0.6em">May</text>
    <text x="44.01" y="57.92" text-anchor="middle" dy="0.6em">Jun</text>
    <text x="54.67" y="57.92" text-anchor="middle" dy="0.6em">Jul</text>
    <text x="65.68" y="57.92" text-anchor="middle" dy="0.6em">Aug</text>
    <text x="76.7" y="57.92" text-anchor="middle" dy="0.6em">Sep</text>
    <text x="87.35" y="57.92" text-anchor="middle" dy="0.6em">Oct</text>
    <text x="98.37" y="57.92" text-anchor="middle" dy="0.6em">Nov</text>
    <text x="109.03" y="57.92" text-anchor="middle" dy="0.6em">Dec</text>
    <text x="120.04" y="57.92" text-anchor="middle" dy="0.6em">Jan 2015</text>
    <text x="131.05" y="57.92" text-anchor="middle" dy="0.6em">Feb</text>
    <text x="141" y="57.92" text-anchor="middle" dy="0.6em">Mar</text>
    <text x="152.01" y="57.92" text-anchor="middle" dy="0.6em">Apr</text>
    <text x="162.67" y="57.92" text-anchor="middle" dy="0.6em">May</text>
    <text x="173.68" y="57.92" text-anchor="middle" dy="0.6em">Jun</text>
  </g>
  <g class="guide colorkey" id="fig-5b306ed41b94438f93e4ebaeaf6d849e-element-4">
    <g fill="#4C404B" font-size="2.82" font-family="'PT Sans','Helvetica Neue','Helvetica',sans-serif" id="fig-5b306ed41b94438f93e4ebaeaf6d849e-element-5">
      <text x="187.67" y="29.14" dy="0.35em" id="fig-5b306ed41b94438f93e4ebaeaf6d849e-element-6" class="color_0.2">0.2</text>
      <text x="187.67" y="32.77" dy="0.35em" id="fig-5b306ed41b94438f93e4ebaeaf6d849e-element-7" class="color_0.3">0.3</text>
      <text x="187.67" y="36.4" dy="0.35em" id="fig-5b306ed41b94438f93e4ebaeaf6d849e-element-8" class="color_0.4">0.4</text>
    </g>
    <g stroke="#000000" stroke-opacity="0.000" id="fig-5b306ed41b94438f93e4ebaeaf6d849e-element-9">
      <rect x="184.85" y="28.24" width="1.81" height="1.81" id="fig-5b306ed41b94438f93e4ebaeaf6d849e-element-10" class="color_0.2" fill="#00BFFF"/>
      <rect x="184.85" y="31.86" width="1.81" height="1.81" id="fig-5b306ed41b94438f93e4ebaeaf6d849e-element-11" class="color_0.3" fill="#D4CA3A"/>
      <rect x="184.85" y="35.49" width="1.81" height="1.81" id="fig-5b306ed41b94438f93e4ebaeaf6d849e-element-12" class="color_0.4" fill="#FF5EA0"/>
    </g>
    <g fill="#362A35" font-size="3.88" font-family="'PT Sans','Helvetica Neue','Helvetica',sans-serif" stroke="#000000" stroke-opacity="0.000" id="fig-5b306ed41b94438f93e4ebaeaf6d849e-element-13">
      <text x="184.85" y="25.32" id="fig-5b306ed41b94438f93e4ebaeaf6d849e-element-14">Julia ver.</text>
    </g>
  </g>
  <g font-size="3.88" font-family="'PT Sans','Helvetica Neue','Helvetica',sans-serif" fill="#564A55" stroke="#000000" stroke-opacity="0.000" id="fig-5b306ed41b94438f93e4ebaeaf6d849e-element-15">
    <text x="8.81" y="28.96" text-anchor="middle" dy="0.35em" transform="rotate(-90, 8.81, 30.96)" id="fig-5b306ed41b94438f93e4ebaeaf6d849e-element-16">Number of Tagged Packages</text>
  </g>
  <g clip-path="url(#fig-5b306ed41b94438f93e4ebaeaf6d849e-element-18)" id="fig-5b306ed41b94438f93e4ebaeaf6d849e-element-17">
    <g pointer-events="visible" opacity="1" fill="#000000" fill-opacity="0.000" stroke="#000000" stroke-opacity="0.000" class="guide background" id="fig-5b306ed41b94438f93e4ebaeaf6d849e-element-19">
      <rect x="19.63" y="5" width="164.22" height="51.92" id="fig-5b306ed41b94438f93e4ebaeaf6d849e-element-20"/>
    </g>
    <g class="guide ygridlines xfixed" stroke-dasharray="0.5,0.5" stroke-width="0.2" stroke="#D0D0E0" id="fig-5b306ed41b94438f93e4ebaeaf6d849e-element-21">
      <path fill="none" d="M19.63,54.91 L 183.85 54.91" id="fig-5b306ed41b94438f93e4ebaeaf6d849e-element-22"/>
      <path fill="none" d="M19.63,42.94 L 183.85 42.94" id="fig-5b306ed41b94438f93e4ebaeaf6d849e-element-23"/>
      <path fill="none" d="M19.63,30.96 L 183.85 30.96" id="fig-5b306ed41b94438f93e4ebaeaf6d849e-element-24"/>
      <path fill="none" d="M19.63,18.98 L 183.85 18.98" id="fig-5b306ed41b94438f93e4ebaeaf6d849e-element-25"/>
      <path fill="none" d="M19.63,7 L 183.85 7" id="fig-5b306ed41b94438f93e4ebaeaf6d849e-element-26"/>
    </g>
    <g class="guide xgridlines yfixed" stroke-dasharray="0.5,0.5" stroke-width="0.2" stroke="#D0D0E0" id="fig-5b306ed41b94438f93e4ebaeaf6d849e-element-27">
      <path fill="none" d="M22.34,5 L 22.34 56.92" id="fig-5b306ed41b94438f93e4ebaeaf6d849e-element-28"/>
      <path fill="none" d="M33,5 L 33 56.92" id="fig-5b306ed41b94438f93e4ebaeaf6d849e-element-29"/>
      <path fill="none" d="M44.01,5 L 44.01 56.92" id="fig-5b306ed41b94438f93e4ebaeaf6d849e-element-30"/>
      <path fill="none" d="M54.67,5 L 54.67 56.92" id="fig-5b306ed41b94438f93e4ebaeaf6d849e-element-31"/>
      <path fill="none" d="M65.68,5 L 65.68 56.92" id="fig-5b306ed41b94438f93e4ebaeaf6d849e-element-32"/>
      <path fill="none" d="M76.7,5 L 76.7 56.92" id="fig-5b306ed41b94438f93e4ebaeaf6d849e-element-33"/>
      <path fill="none" d="M87.35,5 L 87.35 56.92" id="fig-5b306ed41b94438f93e4ebaeaf6d849e-element-34"/>
      <path fill="none" d="M98.37,5 L 98.37 56.92" id="fig-5b306ed41b94438f93e4ebaeaf6d849e-element-35"/>
      <path fill="none" d="M109.03,5 L 109.03 56.92" id="fig-5b306ed41b94438f93e4ebaeaf6d849e-element-36"/>
      <path fill="none" d="M120.04,5 L 120.04 56.92" id="fig-5b306ed41b94438f93e4ebaeaf6d849e-element-37"/>
      <path fill="none" d="M131.05,5 L 131.05 56.92" id="fig-5b306ed41b94438f93e4ebaeaf6d849e-element-38"/>
      <path fill="none" d="M141,5 L 141 56.92" id="fig-5b306ed41b94438f93e4ebaeaf6d849e-element-39"/>
      <path fill="none" d="M152.01,5 L 152.01 56.92" id="fig-5b306ed41b94438f93e4ebaeaf6d849e-element-40"/>
      <path fill="none" d="M162.67,5 L 162.67 56.92" id="fig-5b306ed41b94438f93e4ebaeaf6d849e-element-41"/>
      <path fill="none" d="M173.68,5 L 173.68 56.92" id="fig-5b306ed41b94438f93e4ebaeaf6d849e-element-42"/>
    </g>
    <g class="plotpanel" id="fig-5b306ed41b94438f93e4ebaeaf6d849e-element-43">
      <g class="geometry" stroke="#000000" stroke-opacity="0.000" fill="#4C404B" font-size="2.82" font-family="'PT Sans Caption','Helvetica Neue','Helvetica',sans-serif" id="fig-5b306ed41b94438f93e4ebaeaf6d849e-element-44">
        <text x="77.37" y="51.26" text-anchor="middle" dy="0.35em" id="fig-5b306ed41b94438f93e4ebaeaf6d849e-element-45" visibility="visible">v0.3.0</text>
        <text x="88.74" y="51.26" text-anchor="middle" dy="0.35em" id="fig-5b306ed41b94438f93e4ebaeaf6d849e-element-46" visibility="visible">v0.3.1</text>
        <text x="99.4" y="51.26" text-anchor="middle" dy="0.35em" id="fig-5b306ed41b94438f93e4ebaeaf6d849e-element-47" visibility="visible">v0.3.2</text>
        <text x="111.12" y="51.26" text-anchor="middle" dy="0.35em" id="fig-5b306ed41b94438f93e4ebaeaf6d849e-element-48" visibility="visible">v0.3.3</text>
        <text x="118.91" y="51.26" text-anchor="middle" dy="0.35em" id="fig-5b306ed41b94438f93e4ebaeaf6d849e-element-49" visibility="visible"></text>
        <text x="127.47" y="51.26" text-anchor="middle" dy="0.35em" id="fig-5b306ed41b94438f93e4ebaeaf6d849e-element-50" visibility="visible">v0.3.5</text>
        <text x="141.68" y="51.26" text-anchor="middle" dy="0.35em" id="fig-5b306ed41b94438f93e4ebaeaf6d849e-element-51" visibility="visible">v0.3.6</text>
        <text x="153.75" y="51.26" text-anchor="middle" dy="0.35em" id="fig-5b306ed41b94438f93e4ebaeaf6d849e-element-52" visibility="visible">v0.3.7</text>
        <text x="167.25" y="51.26" text-anchor="middle" dy="0.35em" id="fig-5b306ed41b94438f93e4ebaeaf6d849e-element-53" visibility="visible">v0.3.8</text>
        <text x="177.91" y="51.26" text-anchor="middle" dy="0.35em" id="fig-5b306ed41b94438f93e4ebaeaf6d849e-element-54" visibility="visible">v0.3.9</text>
      </g>
      <g class="yfixed" stroke-width="0.26" stroke="#333333" id="fig-5b306ed41b94438f93e4ebaeaf6d849e-element-55">
        <path fill="none" d="M72.43,5 L 72.43 56.92" id="fig-5b306ed41b94438f93e4ebaeaf6d849e-element-56"/>
        <path fill="none" d="M83.8,5 L 83.8 56.92" id="fig-5b306ed41b94438f93e4ebaeaf6d849e-element-57"/>
        <path fill="none" d="M94.46,5 L 94.46 56.92" id="fig-5b306ed41b94438f93e4ebaeaf6d849e-element-58"/>
        <path fill="none" d="M106.18,5 L 106.18 56.92" id="fig-5b306ed41b94438f93e4ebaeaf6d849e-element-59"/>
        <path fill="none" d="M117.91,5 L 117.91 56.92" id="fig-5b306ed41b94438f93e4ebaeaf6d849e-element-60"/>
        <path fill="none" d="M122.53,5 L 122.53 56.92" id="fig-5b306ed41b94438f93e4ebaeaf6d849e-element-61"/>
        <path fill="none" d="M136.74,5 L 136.74 56.92" id="fig-5b306ed41b94438f93e4ebaeaf6d849e-element-62"/>
        <path fill="none" d="M148.81,5 L 148.81 56.92" id="fig-5b306ed41b94438f93e4ebaeaf6d849e-element-63"/>
        <path fill="none" d="M162.31,5 L 162.31 56.92" id="fig-5b306ed41b94438f93e4ebaeaf6d849e-element-64"/>
        <path fill="none" d="M172.97,5 L 172.97 56.92" id="fig-5b306ed41b94438f93e4ebaeaf6d849e-element-65"/>
      </g>
      <g stroke-width="0.79" fill="#000000" fill-opacity="0.000" class="geometry color_0.4" stroke="#FF5EA0" id="fig-5b306ed41b94438f93e4ebaeaf6d849e-element-66">
        <path fill="none" d="M69.95,35.27 L 70.3 34.91 70.66 34.79 71.01 34.67 71.37 34.67 71.72 34.67 72.43 34.31 72.79 34.31 73.14 34.19 73.5 34.19 73.85 34.19 74.21 33.83 74.57 33.59 74.92 33.59 75.63 33.35 75.99 32.99 76.7 32.75 77.05 32.75 77.41 32.75 78.83 32.75 79.89 32.04 80.25 31.92 80.6 31.8 80.96 31.56 81.32 31.56 81.67 31.56 82.03 30.6 82.38 30.6 82.74 30.6 83.45 30.48 83.8 30.48 84.16 30.36 84.51 30.36 84.87 30.36 85.22 30.24 85.58 30.24 86.29 30.36 86.64 30.24 87 30.24 87.35 30 87.71 29.76 88.07 29.76 88.42 29.76 88.78 29.52 89.84 29.28 90.2 29.28 90.55 29.04 90.91 28.92 91.26 28.92 91.62 28.92 91.97 28.68 92.33 28.68 92.68 28.56 93.04 28.44 93.39 28.44 93.75 28.44 94.1 28.44 94.46 28.2 94.82 27.96 95.17 27.96 95.53 27.96 95.88 27.84 96.24 27.84 96.59 27.72 96.95 27.72 97.3 27.48 97.66 27.36 98.01 27.36 98.37 27.24 98.72 27.24 99.08 27.24 99.43 27.24 99.79 27.12 100.14 27 101.21 27 102.99 26.29 103.34 26.05 103.7 26.05 104.05 25.93 104.41 25.93 104.76 25.57 105.12 25.57 106.54 24.97 106.89 24.97 108.67 24.85 109.38 24.85 109.74 24.61 110.09 24.49 110.45 24.49 110.8 24.49 111.16 24.25 111.51 24.01 112.58 23.89 112.93 23.77 113.64 23.29 114 23.29 114.35 23.29 115.42 23.29 116.13 23.05 117.2 22.81 118.62 22.57 119.33 22.09 120.39 21.85 122.88 21.02 124.3 20.18 124.66 19.94 125.01 19.94 125.37 19.22 125.72 19.22 126.08 19.22 126.79 19.1 127.14 18.98 127.5 18.98 127.85 18.62 128.21 18.5 128.57 18.5 128.92 18.5 129.63 18.14 129.99 17.78 130.34 17.66 131.76 16.7 132.12 16.7 132.47 17.06 133.18 16.7 133.89 16.34 134.25 16.34 135.32 16.1 137.09 16.1 138.87 15.98 140.64 14.91 141 14.91 141.35 14.91 141.71 14.67 142.06 14.67 142.78 14.43 143.49 14.43 144.91 14.31 145.26 14.07 145.62 14.07 145.97 14.07 146.33 13.83 146.68 13.95 147.04 13.71 151.3 13.23 152.01 13.23 152.37 12.87 153.08 12.87 154.5 12.75 155.21 12.63 155.92 12.27 157.34 12.03 158.05 11.79 158.41 11.43 159.12 10.83 159.47 10.83 159.83 10.71 160.18 10.47 160.54 10.47 160.89 10.35 161.6 10.23 161.96 9.99 162.67 9.99 163.38 9.76 163.74 9.4 164.09 9.28 164.8 9.04 165.16 8.92 166.93 8.44 168.35 8.2 168.71 7.96 171.55 7.6 171.91 7.6 172.26 7.6 173.33 7.12 173.68 7 174.04 6.76 174.75 6.52 175.46 6.52 176.17 6.28 179.37 5.44 180.43 5.44 180.79 5.44 181.14 5.2 181.5 5.2 181.85 4.84" id="fig-5b306ed41b94438f93e4ebaeaf6d849e-element-67"/>
      </g>
      <g stroke-width="0.79" fill="#000000" fill-opacity="0.000" class="geometry color_0.3" stroke="#D4CA3A" id="fig-5b306ed41b94438f93e4ebaeaf6d849e-element-68">
        <path fill="none" d="M21.63,43.42 L 21.99 43.42 22.34 43.3 22.7 43.3 23.05 43.3 23.41 43.3 23.76 43.3 24.12 43.18 24.83 43.18 25.18 43.06 25.89 42.94 26.61 42.7 26.96 42.7 27.67 42.7 28.03 42.58 30.51 42.1 31.58 42.1 32.29 42.1 34.78 41.98 35.13 41.74 35.49 41.62 35.84 41.62 36.2 41.62 36.55 41.62 36.91 41.62 37.26 41.62 37.62 41.62 37.97 41.62 38.33 41.62 38.68 41.26 39.39 41.14 39.75 41.14 40.11 41.14 40.46 40.9 40.82 40.9 41.17 40.9 41.53 40.78 41.88 40.78 42.24 40.78 42.59 40.78 42.95 40.78 43.3 40.66 43.66 40.66 44.01 45.45 44.37 40.54 44.72 40.42 45.08 40.3 47.21 39.58 47.57 39.46 47.92 39.34 48.28 39.22 48.63 38.98 48.99 38.98 49.34 38.74 49.7 38.74 50.05 38.62 50.41 38.5 51.12 38.5 51.47 38.26 51.83 38.26 52.18 38.26 52.54 38.26 52.89 38.26 53.25 37.91 53.61 37.91 54.32 37.79 54.67 37.55 55.03 37.43 55.38 37.31 55.74 37.31 56.09 37.07 56.8 36.95 57.16 36.59 57.51 36.59 57.87 36.59 58.58 35.99 59.29 35.63 59.64 35.63 60 35.51 60.36 35.51 61.42 35.39 61.78 35.39 62.13 35.27 62.49 35.27 62.84 35.27 63.2 35.15 63.55 35.03 63.91 34.91 64.62 34.91 64.97 34.91 65.68 34.91 66.04 34.79 66.39 34.43 66.75 34.43 67.46 34.31 67.82 34.31 68.17 34.07 68.53 33.95 68.88 33.83 69.24 33.71 69.59 33.59 69.95 33.35 70.3 33.35 70.66 33.23 71.01 33.11 71.37 33.11 71.72 33.11 72.43 32.75 72.79 32.75 73.14 32.63 73.5 32.63 73.85 32.63 74.21 32.28 74.57 32.16 74.92 32.04 75.63 33.47 75.99 33.11 76.7 32.87 77.05 32.87 77.41 32.87 78.83 32.87 79.89 32.16 80.25 32.04 80.6 31.92 80.96 31.68 81.32 31.68 81.67 31.68 82.03 30.72 82.38 30.72 82.74 30.72 83.45 30.72 83.8 30.6 84.16 30.48 84.51 30.48 84.87 30.48 85.22 30.36 85.58 30.36 86.29 30.48 86.64 30.36 87 30.36 87.35 30.12 87.71 27.72 88.07 29.88 88.42 29.88 88.78 29.64 89.84 29.4 90.2 29.4 90.55 29.16 90.91 29.04 91.26 29.04 91.62 29.04 91.97 28.8 92.33 28.8 92.68 28.68 93.04 28.56 93.39 28.56 93.75 28.56 94.1 28.56 94.46 28.44 94.82 28.2 95.17 28.2 95.53 28.2 95.88 28.08 96.24 28.08 96.59 27.96 96.95 27.96 97.3 27.72 97.66 27.6 98.01 27.6 98.37 27.48 98.72 27.48 99.08 27.48 99.43 27.36 99.79 27.36 100.14 27.24 101.21 27.24 102.99 26.65 103.34 26.41 103.7 26.41 104.05 26.29 104.41 26.29 104.76 25.93 105.12 25.93 106.54 25.33 106.89 25.33 108.67 25.21 109.38 25.21 109.74 25.09 110.09 24.97 110.45 24.97 110.8 24.97 111.16 24.73 111.51 24.61 112.58 24.37 112.93 24.25 113.64 23.89 114 23.77 114.35 23.77 115.42 23.77 116.13 23.53 117.2 23.29 118.62 23.05 119.33 22.69 120.39 22.21 122.88 21.49 124.3 20.66 124.66 20.42 125.01 20.42 125.37 19.82 125.72 19.82 126.08 19.82 126.79 19.82 127.14 19.58 127.5 19.58 127.85 19.22 128.21 19.1 128.57 19.1 128.92 19.1 129.63 18.74 129.99 18.5 130.34 18.38 131.76 17.42 132.12 17.66 132.47 17.66 133.18 17.3 133.89 16.94 134.25 16.94 135.32 16.7 137.09 16.7 138.87 15.98 140.64 15.5 141 15.5 141.35 15.5 141.71 15.27 142.06 15.27 142.78 15.27 143.49 15.27 144.91 15.03 145.26 14.79 145.62 14.67 145.97 14.67 146.33 14.43 146.68 14.55 147.04 14.31 151.3 14.19 152.01 14.19 152.37 13.83 153.08 13.83 154.5 13.71 155.21 13.71 155.92 13.35 157.34 13.35 158.05 13.11 158.41 12.99 159.12 12.39 159.47 12.39 159.83 12.27 160.18 11.91 160.54 11.91 160.89 11.79 161.6 11.67 161.96 11.55 162.67 11.55 163.38 11.31 163.74 10.95 164.09 10.83 164.8 10.59 165.16 10.47 166.93 9.99 168.35 9.76 168.71 9.52 171.55 9.04 171.91 9.04 172.26 9.04 173.33 8.68 173.68 8.56 174.04 8.44 174.75 8.2 175.46 8.2 176.17 8.08 179.37 7.48 180.43 7.6 180.79 7.6 181.14 7.36 181.5 7.36 181.85 7.12" id="fig-5b306ed41b94438f93e4ebaeaf6d849e-element-69"/>
      </g>
      <g stroke-width="0.79" fill="#000000" fill-opacity="0.000" class="geometry color_0.2" stroke="#00BFFF" id="fig-5b306ed41b94438f93e4ebaeaf6d849e-element-70">
        <path fill="none" d="M21.63,44.73 L 21.99 44.73 22.34 44.61 22.7 44.61 23.05 44.61 23.41 44.61 23.76 44.61 24.12 44.61 24.83 44.61 25.18 44.61 25.89 44.49 26.61 44.37 26.96 44.37 27.67 44.25 28.03 44.13 30.51 43.89 31.58 43.89 32.29 43.89 34.78 43.77 35.13 43.65 35.49 43.65 35.84 43.65 36.2 43.65 36.55 43.65 36.91 43.65 37.26 43.65 37.62 43.65 37.97 43.65 38.33 43.3 38.68 43.3 39.39 43.18 39.75 43.18 40.11 43.18 40.46 43.06 40.82 44.01 41.17 43.42 41.53 43.42 41.88 43.42 42.24 43.42 42.59 43.42 42.95 43.42 43.3 43.42 43.66 43.42 44.01 43.3 44.37 43.3 44.72 43.18 45.08 43.18 47.21 42.58 47.57 42.58 47.92 42.46 48.28 42.34 48.63 42.1 48.99 42.1 49.34 42.1 49.7 42.1 50.05 42.1 50.41 41.98 51.12 41.98 51.47 41.74 51.83 41.74 52.18 41.74 52.54 41.74 52.89 41.74 53.25 41.38 53.61 41.38 54.32 41.26 54.67 41.02 55.03 40.9 55.38 40.78 55.74 40.78 56.09 40.78 56.8 40.54 57.16 40.42 57.51 40.3 57.87 40.3 58.58 40.06 59.29 39.82 59.64 39.82 60 39.82 60.36 39.82 61.42 39.82 61.78 39.82 62.13 39.7 62.49 39.7 62.84 39.7 63.2 39.58 63.55 39.58 63.91 39.58 64.62 39.46 64.97 39.46 65.68 39.46 66.04 39.46 66.39 39.1 66.75 39.1 67.46 39.34 67.82 39.34 68.17 39.1 68.53 38.98 68.88 38.98 69.24 38.74 69.59 38.74" id="fig-5b306ed41b94438f93e4ebaeaf6d849e-element-71"/>
      </g>
    </g>
  </g>
  <g class="guide ylabels" font-size="2.82" font-family="'PT Sans Caption','Helvetica Neue','Helvetica',sans-serif" fill="#6C606B" id="fig-5b306ed41b94438f93e4ebaeaf6d849e-element-72">
    <text x="18.63" y="54.91" text-anchor="end" dy="0.35em" id="fig-5b306ed41b94438f93e4ebaeaf6d849e-element-73">200</text>
    <text x="18.63" y="42.94" text-anchor="end" dy="0.35em" id="fig-5b306ed41b94438f93e4ebaeaf6d849e-element-74">300</text>
    <text x="18.63" y="30.96" text-anchor="end" dy="0.35em" id="fig-5b306ed41b94438f93e4ebaeaf6d849e-element-75">400</text>
    <text x="18.63" y="18.98" text-anchor="end" dy="0.35em" id="fig-5b306ed41b94438f93e4ebaeaf6d849e-element-76">500</text>
    <text x="18.63" y="7" text-anchor="end" dy="0.35em" id="fig-5b306ed41b94438f93e4ebaeaf6d849e-element-77">600</text>
  </g>
</g>
<defs>
<clipPath id="fig-5b306ed41b94438f93e4ebaeaf6d849e-element-18">
  <path d="M19.63,5 L 183.85 5 183.85 56.92 19.63 56.92" />
</clipPath
></defs>
</svg>
