<?xml version="1.0" encoding="UTF-8"?>
<svg xmlns="http://www.w3.org/2000/svg"
     xmlns:xlink="http://www.w3.org/1999/xlink"
     xmlns:gadfly="http://www.gadflyjl.org/ns"
     version="1.2"
     width="203.2mm" height="76.2mm" viewBox="0 0 203.2 76.2"
     stroke="none"
     fill="#000000"
     stroke-width="0.3"
     font-size="3.88"
>
<g class="plotroot xscalable yscalable" id="fig-7bbb593383144d988f8d058d7fadf772-element-1">
  <g font-size="3.88" font-family="'PT Sans','Helvetica Neue','Helvetica',sans-serif" fill="#564A55" stroke="#000000" stroke-opacity="0.000" id="fig-7bbb593383144d988f8d058d7fadf772-element-2">
    <text x="101.74" y="64.59" text-anchor="middle" dy="0.6em">Date</text>
  </g>
  <g class="guide xlabels" font-size="2.82" font-family="'PT Sans Caption','Helvetica Neue','Helvetica',sans-serif" fill="#6C606B" id="fig-7bbb593383144d988f8d058d7fadf772-element-3">
    <text x="22.32" y="57.92" text-anchor="middle" dy="0.6em">Apr</text>
    <text x="32.68" y="57.92" text-anchor="middle" dy="0.6em">May</text>
    <text x="43.39" y="57.92" text-anchor="middle" dy="0.6em">Jun</text>
    <text x="53.75" y="57.92" text-anchor="middle" dy="0.6em">Jul</text>
    <text x="64.45" y="57.92" text-anchor="middle" dy="0.6em">Aug</text>
    <text x="75.15" y="57.92" text-anchor="middle" dy="0.6em">Sep</text>
    <text x="85.51" y="57.92" text-anchor="middle" dy="0.6em">Oct</text>
    <text x="96.22" y="57.92" text-anchor="middle" dy="0.6em">Nov</text>
    <text x="106.58" y="57.92" text-anchor="middle" dy="0.6em">Dec</text>
    <text x="117.28" y="57.92" text-anchor="middle" dy="0.6em">Jan 2015</text>
    <text x="127.99" y="57.92" text-anchor="middle" dy="0.6em">Feb</text>
    <text x="137.65" y="57.92" text-anchor="middle" dy="0.6em">Mar</text>
    <text x="148.36" y="57.92" text-anchor="middle" dy="0.6em">Apr</text>
    <text x="158.72" y="57.92" text-anchor="middle" dy="0.6em">May</text>
    <text x="169.42" y="57.92" text-anchor="middle" dy="0.6em">Jun</text>
    <text x="179.78" y="57.92" text-anchor="middle" dy="0.6em">Jul</text>
  </g>
  <g class="guide colorkey" id="fig-7bbb593383144d988f8d058d7fadf772-element-4">
    <g fill="#4C404B" font-size="2.82" font-family="'PT Sans','Helvetica Neue','Helvetica',sans-serif" id="fig-7bbb593383144d988f8d058d7fadf772-element-5">
      <text x="187.67" y="29.14" dy="0.35em" id="fig-7bbb593383144d988f8d058d7fadf772-element-6" class="color_0.2">0.2</text>
      <text x="187.67" y="32.77" dy="0.35em" id="fig-7bbb593383144d988f8d058d7fadf772-element-7" class="color_0.3">0.3</text>
      <text x="187.67" y="36.4" dy="0.35em" id="fig-7bbb593383144d988f8d058d7fadf772-element-8" class="color_0.4">0.4</text>
    </g>
    <g stroke="#000000" stroke-opacity="0.000" id="fig-7bbb593383144d988f8d058d7fadf772-element-9">
      <rect x="184.85" y="28.24" width="1.81" height="1.81" id="fig-7bbb593383144d988f8d058d7fadf772-element-10" fill="#00BFFF" class="color_0.2"/>
      <rect x="184.85" y="31.86" width="1.81" height="1.81" id="fig-7bbb593383144d988f8d058d7fadf772-element-11" fill="#D4CA3A" class="color_0.3"/>
      <rect x="184.85" y="35.49" width="1.81" height="1.81" id="fig-7bbb593383144d988f8d058d7fadf772-element-12" fill="#FF5EA0" class="color_0.4"/>
    </g>
    <g fill="#362A35" font-size="3.88" font-family="'PT Sans','Helvetica Neue','Helvetica',sans-serif" stroke="#000000" stroke-opacity="0.000" id="fig-7bbb593383144d988f8d058d7fadf772-element-13">
      <text x="184.85" y="25.32" id="fig-7bbb593383144d988f8d058d7fadf772-element-14">Julia ver.</text>
    </g>
  </g>
  <g font-size="3.88" font-family="'PT Sans','Helvetica Neue','Helvetica',sans-serif" fill="#564A55" stroke="#000000" stroke-opacity="0.000" id="fig-7bbb593383144d988f8d058d7fadf772-element-15">
    <text x="8.81" y="28.96" text-anchor="middle" dy="0.35em" transform="rotate(-90, 8.81, 30.96)" id="fig-7bbb593383144d988f8d058d7fadf772-element-16">Number of Tagged Packages</text>
  </g>
  <g clip-path="url(#fig-7bbb593383144d988f8d058d7fadf772-element-18)" id="fig-7bbb593383144d988f8d058d7fadf772-element-17">
    <g pointer-events="visible" opacity="1" fill="#000000" fill-opacity="0.000" stroke="#000000" stroke-opacity="0.000" class="guide background" id="fig-7bbb593383144d988f8d058d7fadf772-element-19">
      <rect x="19.63" y="5" width="164.22" height="51.92" id="fig-7bbb593383144d988f8d058d7fadf772-element-20"/>
    </g>
    <g class="guide ygridlines xfixed" stroke-dasharray="0.5,0.5" stroke-width="0.2" stroke="#D0D0E0" id="fig-7bbb593383144d988f8d058d7fadf772-element-21">
      <path fill="none" d="M19.63,54.91 L 183.85 54.91" id="fig-7bbb593383144d988f8d058d7fadf772-element-22"/>
      <path fill="none" d="M19.63,45.33 L 183.85 45.33" id="fig-7bbb593383144d988f8d058d7fadf772-element-23"/>
      <path fill="none" d="M19.63,35.75 L 183.85 35.75" id="fig-7bbb593383144d988f8d058d7fadf772-element-24"/>
      <path fill="none" d="M19.63,26.17 L 183.85 26.17" id="fig-7bbb593383144d988f8d058d7fadf772-element-25"/>
      <path fill="none" d="M19.63,16.58 L 183.85 16.58" id="fig-7bbb593383144d988f8d058d7fadf772-element-26"/>
      <path fill="none" d="M19.63,7 L 183.85 7" id="fig-7bbb593383144d988f8d058d7fadf772-element-27"/>
    </g>
    <g class="guide xgridlines yfixed" stroke-dasharray="0.5,0.5" stroke-width="0.2" stroke="#D0D0E0" id="fig-7bbb593383144d988f8d058d7fadf772-element-28">
      <path fill="none" d="M22.32,5 L 22.32 56.92" id="fig-7bbb593383144d988f8d058d7fadf772-element-29"/>
      <path fill="none" d="M32.68,5 L 32.68 56.92" id="fig-7bbb593383144d988f8d058d7fadf772-element-30"/>
      <path fill="none" d="M43.39,5 L 43.39 56.92" id="fig-7bbb593383144d988f8d058d7fadf772-element-31"/>
      <path fill="none" d="M53.75,5 L 53.75 56.92" id="fig-7bbb593383144d988f8d058d7fadf772-element-32"/>
      <path fill="none" d="M64.45,5 L 64.45 56.92" id="fig-7bbb593383144d988f8d058d7fadf772-element-33"/>
      <path fill="none" d="M75.15,5 L 75.15 56.92" id="fig-7bbb593383144d988f8d058d7fadf772-element-34"/>
      <path fill="none" d="M85.51,5 L 85.51 56.92" id="fig-7bbb593383144d988f8d058d7fadf772-element-35"/>
      <path fill="none" d="M96.22,5 L 96.22 56.92" id="fig-7bbb593383144d988f8d058d7fadf772-element-36"/>
      <path fill="none" d="M106.58,5 L 106.58 56.92" id="fig-7bbb593383144d988f8d058d7fadf772-element-37"/>
      <path fill="none" d="M117.28,5 L 117.28 56.92" id="fig-7bbb593383144d988f8d058d7fadf772-element-38"/>
      <path fill="none" d="M127.99,5 L 127.99 56.92" id="fig-7bbb593383144d988f8d058d7fadf772-element-39"/>
      <path fill="none" d="M137.65,5 L 137.65 56.92" id="fig-7bbb593383144d988f8d058d7fadf772-element-40"/>
      <path fill="none" d="M148.36,5 L 148.36 56.92" id="fig-7bbb593383144d988f8d058d7fadf772-element-41"/>
      <path fill="none" d="M158.72,5 L 158.72 56.92" id="fig-7bbb593383144d988f8d058d7fadf772-element-42"/>
      <path fill="none" d="M169.42,5 L 169.42 56.92" id="fig-7bbb593383144d988f8d058d7fadf772-element-43"/>
      <path fill="none" d="M179.78,5 L 179.78 56.92" id="fig-7bbb593383144d988f8d058d7fadf772-element-44"/>
    </g>
    <g class="plotpanel" id="fig-7bbb593383144d988f8d058d7fadf772-element-45">
      <g class="geometry" stroke="#000000" stroke-opacity="0.000" fill="#4C404B" font-size="2.82" font-family="'PT Sans Caption','Helvetica Neue','Helvetica',sans-serif" id="fig-7bbb593383144d988f8d058d7fadf772-element-46">
        <text x="75.95" y="52.46" text-anchor="middle" dy="0.35em" id="fig-7bbb593383144d988f8d058d7fadf772-element-47" visibility="visible">v0.3.0</text>
        <text x="87" y="52.46" text-anchor="middle" dy="0.35em" id="fig-7bbb593383144d988f8d058d7fadf772-element-48" visibility="visible">v0.3.1</text>
        <text x="97.36" y="52.46" text-anchor="middle" dy="0.35em" id="fig-7bbb593383144d988f8d058d7fadf772-element-49" visibility="visible">v0.3.2</text>
        <text x="108.75" y="52.46" text-anchor="middle" dy="0.35em" id="fig-7bbb593383144d988f8d058d7fadf772-element-50" visibility="visible">v0.3.3</text>
        <text x="116.21" y="52.46" text-anchor="middle" dy="0.35em" id="fig-7bbb593383144d988f8d058d7fadf772-element-51" visibility="visible"></text>
        <text x="124.64" y="52.46" text-anchor="middle" dy="0.35em" id="fig-7bbb593383144d988f8d058d7fadf772-element-52" visibility="visible">v0.3.5</text>
        <text x="138.45" y="52.46" text-anchor="middle" dy="0.35em" id="fig-7bbb593383144d988f8d058d7fadf772-element-53" visibility="visible">v0.3.6</text>
        <text x="150.19" y="52.46" text-anchor="middle" dy="0.35em" id="fig-7bbb593383144d988f8d058d7fadf772-element-54" visibility="visible">v0.3.7</text>
        <text x="163.31" y="52.46" text-anchor="middle" dy="0.35em" id="fig-7bbb593383144d988f8d058d7fadf772-element-55" visibility="visible">v0.3.8</text>
        <text x="173.67" y="52.46" text-anchor="middle" dy="0.35em" id="fig-7bbb593383144d988f8d058d7fadf772-element-56" visibility="visible">v0.3.9</text>
      </g>
      <g class="yfixed" stroke-width="0.26" stroke="#333333" id="fig-7bbb593383144d988f8d058d7fadf772-element-57">
        <path fill="none" d="M71.01,5 L 71.01 56.92" id="fig-7bbb593383144d988f8d058d7fadf772-element-58"/>
        <path fill="none" d="M82.06,5 L 82.06 56.92" id="fig-7bbb593383144d988f8d058d7fadf772-element-59"/>
        <path fill="none" d="M92.42,5 L 92.42 56.92" id="fig-7bbb593383144d988f8d058d7fadf772-element-60"/>
        <path fill="none" d="M103.81,5 L 103.81 56.92" id="fig-7bbb593383144d988f8d058d7fadf772-element-61"/>
        <path fill="none" d="M115.21,5 L 115.21 56.92" id="fig-7bbb593383144d988f8d058d7fadf772-element-62"/>
        <path fill="none" d="M119.7,5 L 119.7 56.92" id="fig-7bbb593383144d988f8d058d7fadf772-element-63"/>
        <path fill="none" d="M133.51,5 L 133.51 56.92" id="fig-7bbb593383144d988f8d058d7fadf772-element-64"/>
        <path fill="none" d="M145.25,5 L 145.25 56.92" id="fig-7bbb593383144d988f8d058d7fadf772-element-65"/>
        <path fill="none" d="M158.37,5 L 158.37 56.92" id="fig-7bbb593383144d988f8d058d7fadf772-element-66"/>
        <path fill="none" d="M168.73,5 L 168.73 56.92" id="fig-7bbb593383144d988f8d058d7fadf772-element-67"/>
      </g>
      <g stroke-width="0.79" fill="#000000" fill-opacity="0.000" class="geometry color_0.4" stroke="#FF5EA0" id="fig-7bbb593383144d988f8d058d7fadf772-element-68">
        <path fill="none" d="M68.59,39.2 L 68.94 38.91 69.28 38.82 69.63 38.72 69.97 38.72 70.32 38.72 71.01 38.43 71.36 38.43 71.7 38.34 72.05 38.34 72.39 38.34 72.74 38.05 73.08 37.86 73.43 37.86 74.12 37.67 74.46 37.38 75.15 37.19 75.5 37.19 75.84 37.19 77.23 37.19 78.26 36.61 78.61 36.52 78.95 36.42 79.3 36.23 79.64 36.23 79.99 36.23 80.33 35.46 80.68 35.46 81.02 35.46 81.72 35.37 82.06 35.37 82.41 35.27 82.75 35.27 83.1 35.27 83.44 35.17 83.79 35.17 84.48 35.27 84.82 35.17 85.17 35.17 85.51 34.98 85.86 34.79 86.2 34.79 86.55 34.79 86.89 34.6 87.93 34.41 88.28 34.41 88.62 34.22 88.97 34.12 89.31 34.12 89.66 34.12 90 33.93 90.35 33.93 90.69 33.83 91.04 33.74 91.38 33.74 91.73 33.74 92.07 33.74 92.42 33.54 92.76 33.35 93.11 33.35 93.46 33.35 93.8 33.26 94.15 33.26 94.49 33.16 94.84 33.16 95.18 32.97 95.53 32.87 95.87 32.87 96.22 32.78 96.56 32.78 96.91 32.78 97.25 32.78 97.6 32.68 97.94 32.59 98.98 32.59 100.71 32.01 101.05 31.82 101.4 31.82 101.74 31.72 102.09 31.72 102.43 31.44 102.78 31.44 104.16 30.96 104.51 30.96 106.23 30.86 106.92 30.86 107.27 30.67 107.61 30.57 107.96 30.57 108.3 30.57 108.65 30.38 108.99 30.19 110.03 30.1 110.38 30 111.07 29.62 111.41 29.62 111.76 29.62 112.79 29.62 113.48 29.42 114.52 29.23 115.9 29.04 116.59 28.66 117.63 28.47 120.04 27.8 121.43 27.12 121.77 26.93 122.12 26.93 122.46 26.36 122.81 26.36 123.15 26.36 123.84 26.26 124.19 26.17 124.53 26.17 124.88 25.88 125.22 25.78 125.57 25.78 125.91 25.78 126.61 25.5 126.95 25.21 127.3 25.11 128.68 24.35 129.02 24.35 129.37 24.63 130.06 24.35 130.75 24.06 131.09 24.06 132.13 23.87 133.86 23.87 135.58 23.77 137.31 22.91 137.65 22.91 138 22.91 138.35 22.72 138.69 22.72 139.38 22.52 140.07 22.52 141.45 22.43 141.8 22.24 142.14 22.24 142.49 22.24 142.83 22.05 143.18 22.14 143.53 21.95 147.67 21.57 148.36 21.57 148.7 21.28 149.4 21.28 150.78 21.18 151.47 21.09 152.16 20.8 153.54 20.61 154.23 20.42 154.57 20.13 155.27 19.65 155.61 19.65 155.96 19.55 156.3 19.36 156.65 19.36 156.99 19.27 157.68 19.17 158.03 18.98 158.72 18.98 159.41 18.79 159.75 18.5 160.1 18.4 160.79 18.21 161.14 18.12 162.86 17.73 164.24 17.54 164.59 17.35 167.35 17.06 167.7 17.06 168.04 17.06 169.08 16.68 169.42 16.58 169.77 16.39 170.46 16.2 171.15 16.2 171.84 16.01 174.95 15.34 175.98 15.34 176.33 15.34 176.67 15.15 177.02 15.15 177.37 14.86 177.71 14.86 178.06 14.86 178.4 14.76 179.44 14.67 180.13 14.47 180.82 14.47 181.16 14.28 181.51 13.9 181.85 13.71" id="fig-7bbb593383144d988f8d058d7fadf772-element-69"/>
      </g>
      <g stroke-width="0.79" fill="#000000" fill-opacity="0.000" class="geometry color_0.3" stroke="#D4CA3A" id="fig-7bbb593383144d988f8d058d7fadf772-element-70">
        <path fill="none" d="M21.63,45.72 L 21.98 45.72 22.32 45.62 22.67 45.62 23.01 45.62 23.36 45.62 23.7 45.62 24.05 45.52 24.74 45.52 25.08 45.43 25.78 45.33 26.47 45.14 26.81 45.14 27.5 45.14 27.85 45.04 30.26 44.66 31.3 44.66 31.99 44.66 34.41 44.57 34.75 44.37 35.1 44.28 35.44 44.28 35.79 44.28 36.13 44.28 36.48 44.28 36.83 44.28 37.17 44.28 37.52 44.28 37.86 44.28 38.21 43.99 38.9 43.89 39.24 43.89 39.59 43.89 39.93 43.7 40.28 43.7 40.62 43.7 40.97 43.61 41.31 43.61 41.66 43.61 42 43.61 42.35 43.61 42.7 43.51 43.04 43.51 43.39 47.34 43.73 43.42 44.08 43.32 44.42 43.22 46.49 42.65 46.84 42.55 47.18 42.46 47.53 42.36 47.88 42.17 48.22 42.17 48.57 41.98 48.91 41.98 49.26 41.88 49.6 41.79 50.29 41.79 50.64 41.59 50.98 41.59 51.33 41.59 51.67 41.59 52.02 41.59 52.36 41.31 52.71 41.31 53.4 41.21 53.75 41.02 54.09 40.92 54.44 40.83 54.78 40.83 55.13 40.64 55.82 40.54 56.16 40.25 56.51 40.25 56.85 40.25 57.54 39.77 58.23 39.49 58.58 39.49 58.92 39.39 59.27 39.39 60.31 39.29 60.65 39.29 61 39.2 61.34 39.2 61.69 39.2 62.03 39.1 62.38 39.01 62.72 38.91 63.41 38.91 63.76 38.91 64.45 38.91 64.8 38.82 65.14 38.53 65.49 38.53 66.18 38.43 66.52 38.43 66.87 38.24 67.21 38.14 67.56 38.05 67.9 37.95 68.25 37.86 68.59 37.67 68.94 37.67 69.28 37.57 69.63 37.47 69.97 37.47 70.32 37.47 71.01 37.19 71.36 37.19 71.7 37.09 72.05 37.09 72.39 37.09 72.74 36.8 73.08 36.71 73.43 36.61 74.12 37.76 74.46 37.47 75.15 37.28 75.5 37.28 75.84 37.28 77.23 37.28 78.26 36.71 78.61 36.61 78.95 36.52 79.3 36.32 79.64 36.32 79.99 36.32 80.33 35.56 80.68 35.56 81.02 35.56 81.72 35.56 82.06 35.46 82.41 35.37 82.75 35.37 83.1 35.37 83.44 35.27 83.79 35.27 84.48 35.37 84.82 35.27 85.17 35.27 85.51 35.08 85.86 33.16 86.2 34.89 86.55 34.89 86.89 34.69 87.93 34.5 88.28 34.5 88.62 34.31 88.97 34.22 89.31 34.22 89.66 34.22 90 34.02 90.35 34.02 90.69 33.93 91.04 33.83 91.38 33.83 91.73 33.83 92.07 33.83 92.42 33.74 92.76 33.54 93.11 33.54 93.46 33.54 93.8 33.45 94.15 33.45 94.49 33.35 94.84 33.35 95.18 33.16 95.53 33.07 95.87 33.07 96.22 32.97 96.56 32.97 96.91 32.97 97.25 32.87 97.6 32.87 97.94 32.78 98.98 32.78 100.71 32.3 101.05 32.11 101.4 32.11 101.74 32.01 102.09 32.01 102.43 31.72 102.78 31.72 104.16 31.24 104.51 31.24 106.23 31.15 106.92 31.15 107.27 31.05 107.61 30.96 107.96 30.96 108.3 30.96 108.65 30.77 108.99 30.67 110.03 30.48 110.38 30.38 111.07 30.1 111.41 30 111.76 30 112.79 30 113.48 29.81 114.52 29.62 115.9 29.42 116.59 29.14 117.63 28.75 120.04 28.18 121.43 27.51 121.77 27.32 122.12 27.32 122.46 26.84 122.81 26.84 123.15 26.84 123.84 26.84 124.19 26.65 124.53 26.65 124.88 26.36 125.22 26.26 125.57 26.26 125.91 26.26 126.61 25.97 126.95 25.78 127.3 25.69 128.68 24.92 129.02 25.11 129.37 25.11 130.06 24.82 130.75 24.54 131.09 24.54 132.13 24.35 133.86 24.35 135.58 23.77 137.31 23.39 137.65 23.39 138 23.39 138.35 23.2 138.69 23.2 139.38 23.2 140.07 23.2 141.45 23 141.8 22.81 142.14 22.72 142.49 22.72 142.83 22.52 143.18 22.62 143.53 22.43 147.67 22.33 148.36 22.33 148.7 22.05 149.4 22.05 150.78 21.95 151.47 21.95 152.16 21.66 153.54 21.66 154.23 21.47 154.57 21.37 155.27 20.9 155.61 20.9 155.96 20.8 156.3 20.51 156.65 20.51 156.99 20.42 157.68 20.32 158.03 20.22 158.72 20.22 159.41 20.03 159.75 19.75 160.1 19.65 160.79 19.46 161.14 19.36 162.86 18.98 164.24 18.79 164.59 18.6 167.35 18.21 167.7 18.21 168.04 18.21 169.08 17.92 169.42 17.83 169.77 17.73 170.46 17.54 171.15 17.54 171.84 17.45 174.95 16.97 175.98 17.06 176.33 17.06 176.67 16.87 177.02 16.87 177.37 16.68 177.71 16.68 178.06 16.68 178.4 16.58 179.44 16.58 180.13 16.39 180.82 16.49 181.16 16.3 181.51 15.91 181.85 15.72" id="fig-7bbb593383144d988f8d058d7fadf772-element-71"/>
      </g>
      <g stroke-width="0.79" fill="#000000" fill-opacity="0.000" class="geometry color_0.2" stroke="#00BFFF" id="fig-7bbb593383144d988f8d058d7fadf772-element-72">
        <path fill="none" d="M21.63,46.77 L 21.98 46.77 22.32 46.67 22.67 46.67 23.01 46.67 23.36 46.67 23.7 46.67 24.05 46.67 24.74 46.67 25.08 46.67 25.78 46.58 26.47 46.48 26.81 46.48 27.5 46.39 27.85 46.29 30.26 46.1 31.3 46.1 31.99 46.1 34.41 46 34.75 45.91 35.1 45.91 35.44 45.91 35.79 45.91 36.13 45.91 36.48 45.91 36.83 45.91 37.17 45.91 37.52 45.91 37.86 45.62 38.21 45.62 38.9 45.52 39.24 45.52 39.59 45.52 39.93 45.43 40.28 46.19 40.62 45.72 40.97 45.72 41.31 45.72 41.66 45.72 42 45.72 42.35 45.72 42.7 45.72 43.04 45.72 43.39 45.62 43.73 45.62 44.08 45.52 44.42 45.52 46.49 45.04 46.84 45.04 47.18 44.95 47.53 44.85 47.88 44.66 48.22 44.66 48.57 44.66 48.91 44.66 49.26 44.66 49.6 44.57 50.29 44.57 50.64 44.37 50.98 44.37 51.33 44.37 51.67 44.37 52.02 44.37 52.36 44.09 52.71 44.09 53.4 43.99 53.75 43.8 54.09 43.7 54.44 43.61 54.78 43.61 55.13 43.61 55.82 43.42 56.16 43.32 56.51 43.22 56.85 43.22 57.54 43.03 58.23 42.84 58.58 42.84 58.92 42.84 59.27 42.84 60.31 42.84 60.65 42.84 61 42.74 61.34 42.74 61.69 42.74 62.03 42.65 62.38 42.65 62.72 42.65 63.41 42.55 63.76 42.55 64.45 42.55 64.8 42.55 65.14 42.27 65.49 42.27 66.18 42.46 66.52 42.46 66.87 42.27 67.21 42.17 67.56 42.17 67.9 41.98 68.25 41.98" id="fig-7bbb593383144d988f8d058d7fadf772-element-73"/>
      </g>
    </g>
  </g>
  <g class="guide ylabels" font-size="2.82" font-family="'PT Sans Caption','Helvetica Neue','Helvetica',sans-serif" fill="#6C606B" id="fig-7bbb593383144d988f8d058d7fadf772-element-74">
    <text x="18.63" y="54.91" text-anchor="end" dy="0.35em" id="fig-7bbb593383144d988f8d058d7fadf772-element-75">200</text>
    <text x="18.63" y="45.33" text-anchor="end" dy="0.35em" id="fig-7bbb593383144d988f8d058d7fadf772-element-76">300</text>
    <text x="18.63" y="35.75" text-anchor="end" dy="0.35em" id="fig-7bbb593383144d988f8d058d7fadf772-element-77">400</text>
    <text x="18.63" y="26.17" text-anchor="end" dy="0.35em" id="fig-7bbb593383144d988f8d058d7fadf772-element-78">500</text>
    <text x="18.63" y="16.58" text-anchor="end" dy="0.35em" id="fig-7bbb593383144d988f8d058d7fadf772-element-79">600</text>
    <text x="18.63" y="7" text-anchor="end" dy="0.35em" id="fig-7bbb593383144d988f8d058d7fadf772-element-80">700</text>
  </g>
</g>
<defs>
<clipPath id="fig-7bbb593383144d988f8d058d7fadf772-element-18">
  <path d="M19.63,5 L 183.85 5 183.85 56.92 19.63 56.92" />
</clipPath
></defs>
</svg>
