<?xml version="1.0" encoding="UTF-8"?>
<svg xmlns="http://www.w3.org/2000/svg"
     xmlns:xlink="http://www.w3.org/1999/xlink"
     xmlns:gadfly="http://www.gadflyjl.org/ns"
     version="1.2"
     width="203.2mm" height="76.2mm" viewBox="0 0 203.2 76.2"
     stroke="none"
     fill="#000000"
     stroke-width="0.3"
     font-size="3.88"
>
<g class="plotroot xscalable yscalable" id="fig-c0e7d6a60bdb449498749d00932e195f-element-1">
  <g font-size="3.88" font-family="'PT Sans','Helvetica Neue','Helvetica',sans-serif" fill="#564A55" stroke="none" id="fig-c0e7d6a60bdb449498749d00932e195f-element-2">
    <text x="101.74" y="68.2" text-anchor="middle">Date</text>
  </g>
  <g class="guide xlabels" font-size="2.82" font-family="'PT Sans Caption','Helvetica Neue','Helvetica',sans-serif" fill="#6C606B" id="fig-c0e7d6a60bdb449498749d00932e195f-element-3">
    <text x="23.56" y="62.59" text-anchor="middle">Apr</text>
    <text x="47.13" y="62.59" text-anchor="middle">May</text>
    <text x="71.49" y="62.59" text-anchor="middle">June</text>
    <text x="95.06" y="62.59" text-anchor="middle">July</text>
    <text x="119.42" y="62.59" text-anchor="middle">Aug</text>
    <text x="143.78" y="62.59" text-anchor="middle">Sept</text>
    <text x="167.35" y="62.59" text-anchor="middle">Oct</text>
  </g>
  <g class="guide colorkey" id="fig-c0e7d6a60bdb449498749d00932e195f-element-4">
    <g fill="#4C404B" font-size="2.82" font-family="'PT Sans','Helvetica Neue','Helvetica',sans-serif" id="fig-c0e7d6a60bdb449498749d00932e195f-element-5">
      <text x="187.67" y="30.14" dy="0.35em" id="fig-c0e7d6a60bdb449498749d00932e195f-element-6" class="color_0.2">0.2</text>
      <text x="187.67" y="33.77" dy="0.35em" id="fig-c0e7d6a60bdb449498749d00932e195f-element-7" class="color_0.3">0.3</text>
      <text x="187.67" y="37.4" dy="0.35em" id="fig-c0e7d6a60bdb449498749d00932e195f-element-8" class="color_0.4">0.4</text>
    </g>
    <g stroke="none" id="fig-c0e7d6a60bdb449498749d00932e195f-element-9">
      <rect x="184.85" y="29.24" width="1.81" height="1.81" id="fig-c0e7d6a60bdb449498749d00932e195f-element-10" class="color_0.2" fill="#00BFFF"/>
      <rect x="184.85" y="32.86" width="1.81" height="1.81" id="fig-c0e7d6a60bdb449498749d00932e195f-element-11" class="color_0.3" fill="#D4CA3A"/>
      <rect x="184.85" y="36.49" width="1.81" height="1.81" id="fig-c0e7d6a60bdb449498749d00932e195f-element-12" class="color_0.4" fill="#FF5EA0"/>
    </g>
    <g fill="#362A35" font-size="3.88" font-family="'PT Sans','Helvetica Neue','Helvetica',sans-serif" stroke="none" id="fig-c0e7d6a60bdb449498749d00932e195f-element-13">
      <text x="184.85" y="26.32" id="fig-c0e7d6a60bdb449498749d00932e195f-element-14">Julia ver.</text>
    </g>
  </g>
  <g font-size="3.88" font-family="'PT Sans','Helvetica Neue','Helvetica',sans-serif" fill="#564A55" stroke="none" id="fig-c0e7d6a60bdb449498749d00932e195f-element-15">
    <text x="8.81" y="29.96" text-anchor="middle" dy="0.35em" transform="rotate(-90, 8.81, 31.96)" id="fig-c0e7d6a60bdb449498749d00932e195f-element-16">Number of Tagged Packages</text>
  </g>
  <g clip-path="url(#fig-c0e7d6a60bdb449498749d00932e195f-element-18)" id="fig-c0e7d6a60bdb449498749d00932e195f-element-17">
    <g pointer-events="visible" opacity="1" fill="none" stroke="none" class="guide background" id="fig-c0e7d6a60bdb449498749d00932e195f-element-19">
      <rect x="19.63" y="5" width="164.22" height="53.91" id="fig-c0e7d6a60bdb449498749d00932e195f-element-20"/>
    </g>
    <g class="guide ygridlines xfixed" stroke-dasharray="0.5,0.5" stroke-width="0.2" stroke="#D0D0E0" id="fig-c0e7d6a60bdb449498749d00932e195f-element-21">
      <path fill="none" d="M19.63,56.91 L 183.85 56.91" id="fig-c0e7d6a60bdb449498749d00932e195f-element-22"/>
      <path fill="none" d="M19.63,44.44 L 183.85 44.44" id="fig-c0e7d6a60bdb449498749d00932e195f-element-23"/>
      <path fill="none" d="M19.63,31.96 L 183.85 31.96" id="fig-c0e7d6a60bdb449498749d00932e195f-element-24"/>
      <path fill="none" d="M19.63,19.48 L 183.85 19.48" id="fig-c0e7d6a60bdb449498749d00932e195f-element-25"/>
      <path fill="none" d="M19.63,7 L 183.85 7" id="fig-c0e7d6a60bdb449498749d00932e195f-element-26"/>
    </g>
    <g class="guide xgridlines yfixed" stroke-dasharray="0.5,0.5" stroke-width="0.2" stroke="#D0D0E0" id="fig-c0e7d6a60bdb449498749d00932e195f-element-27">
      <path fill="none" d="M23.56,5 L 23.56 58.91" id="fig-c0e7d6a60bdb449498749d00932e195f-element-28"/>
      <path fill="none" d="M47.13,5 L 47.13 58.91" id="fig-c0e7d6a60bdb449498749d00932e195f-element-29"/>
      <path fill="none" d="M71.49,5 L 71.49 58.91" id="fig-c0e7d6a60bdb449498749d00932e195f-element-30"/>
      <path fill="none" d="M95.06,5 L 95.06 58.91" id="fig-c0e7d6a60bdb449498749d00932e195f-element-31"/>
      <path fill="none" d="M119.42,5 L 119.42 58.91" id="fig-c0e7d6a60bdb449498749d00932e195f-element-32"/>
      <path fill="none" d="M143.78,5 L 143.78 58.91" id="fig-c0e7d6a60bdb449498749d00932e195f-element-33"/>
      <path fill="none" d="M167.35,5 L 167.35 58.91" id="fig-c0e7d6a60bdb449498749d00932e195f-element-34"/>
    </g>
    <g class="plotpanel" id="fig-c0e7d6a60bdb449498749d00932e195f-element-35">
      <g stroke-width="0.79" fill="none" class="geometry color_0.4" stroke="#FF5EA0" id="fig-c0e7d6a60bdb449498749d00932e195f-element-36">
        <path fill="none" d="M128.85,28.46 L 129.64 27.71 130.42 27.47 131.21 27.22 131.99 27.22 132.78 27.22 134.35 26.47 135.14 26.47 135.92 26.22 136.71 26.22 137.49 26.22 138.28 25.47 139.07 24.97 139.85 24.97 141.42 24.47 142.21 23.72 143.78 23.22 144.57 23.22 145.35 23.22 148.5 23.22 150.85 21.72 151.64 21.48 152.42 21.23 153.21 20.73 154 20.73 154.78 20.73 155.57 18.73 156.35 18.73 157.14 18.73 158.71 18.48 159.5 18.48 160.28 18.23 161.07 18.23 161.85 18.23 162.64 17.98 163.42 17.98 165 18.23 165.78 17.98 166.57 17.98 167.35 17.48 168.14 16.98 168.92 16.98 169.71 16.98 170.5 16.48 172.85 15.98 173.64 15.98 174.43 15.49 175.21 15.24 176 15.24 176.78 15.24 177.57 14.74 178.35 14.74 179.14 14.49 179.93 14.24 180.71 14.24 181.5 14.24 182.28 14.24" id="fig-c0e7d6a60bdb449498749d00932e195f-element-37"/>
      </g>
      <g stroke-width="0.79" fill="none" class="geometry color_0.3" stroke="#D4CA3A" id="fig-c0e7d6a60bdb449498749d00932e195f-element-38">
        <path fill="none" d="M21.99,45.43 L 22.77 45.43 23.56 45.18 24.35 45.18 25.13 45.18 25.92 45.18 26.7 45.18 27.49 44.94 29.06 44.94 29.85 44.69 31.42 44.44 32.99 43.94 33.78 43.94 35.35 43.94 36.13 43.69 41.63 42.69 43.99 42.69 45.56 42.69 51.06 42.44 51.85 41.94 52.63 41.69 53.42 41.69 54.2 41.69 54.99 41.69 55.78 41.69 56.56 41.69 57.35 41.69 58.13 41.69 58.92 41.69 59.71 40.94 61.28 40.69 62.06 40.69 62.85 40.69 63.63 40.19 64.42 40.19 65.21 40.19 65.99 39.94 66.78 39.94 67.56 39.94 68.35 39.94 69.13 39.94 69.92 39.69 70.71 39.69 71.49 49.68 72.28 39.44 73.06 39.2 73.85 38.95 78.56 37.45 79.35 37.2 80.13 36.95 80.92 36.7 81.71 36.2 82.49 36.2 83.28 35.7 84.06 35.7 84.85 35.45 85.63 35.2 87.21 35.2 87.99 34.7 88.78 34.7 89.56 34.7 90.35 34.7 91.14 34.7 91.92 33.95 92.71 33.95 94.28 33.7 95.06 33.21 95.85 32.96 96.64 32.71 97.42 32.71 98.21 32.21 99.78 31.96 100.56 31.21 101.35 31.21 102.14 31.21 103.71 29.96 105.28 29.21 106.06 29.21 106.85 28.96 107.64 28.96 109.99 28.71 110.78 28.71 111.56 28.46 112.35 28.46 113.14 28.46 113.92 28.21 114.71 27.96 115.49 27.71 117.07 27.71 117.85 27.71 119.42 27.71 120.21 27.47 120.99 26.72 121.78 26.72 123.35 26.47 124.14 26.47 124.92 25.97 125.71 25.72 126.49 25.47 127.28 25.22 128.07 24.97 128.85 24.47 129.64 24.47 130.42 24.22 131.21 23.97 131.99 23.97 132.78 23.97 134.35 23.22 135.14 23.22 135.92 22.97 136.71 22.97 137.49 22.97 138.28 22.22 139.07 21.97 139.85 21.72 141.42 24.72 142.21 23.97 143.78 23.47 144.57 23.47 145.35 23.47 148.5 23.47 150.85 21.97 151.64 21.72 152.42 21.48 153.21 20.98 154 20.98 154.78 20.98 155.57 18.98 156.35 18.98 157.14 18.98 158.71 18.98 159.5 18.73 160.28 18.48 161.07 18.48 161.85 18.48 162.64 18.23 163.42 18.23 165 18.48 165.78 18.23 166.57 18.23 167.35 17.73 168.14 12.74 168.92 17.23 169.71 17.23 170.5 16.73 172.85 16.23 173.64 16.23 174.43 15.74 175.21 15.49 176 15.49 176.78 15.49 177.57 14.99 178.35 14.99 179.14 14.74 179.93 14.49 180.71 14.49 181.5 14.49 182.28 14.49" id="fig-c0e7d6a60bdb449498749d00932e195f-element-39"/>
      </g>
      <g stroke-width="0.79" fill="none" class="geometry color_0.2" stroke="#00BFFF" id="fig-c0e7d6a60bdb449498749d00932e195f-element-40">
        <path fill="none" d="M21.99,48.18 L 22.77 48.18 23.56 47.93 24.35 47.93 25.13 47.93 25.92 47.93 26.7 47.93 27.49 47.93 29.06 47.93 29.85 47.93 31.42 47.68 32.99 47.43 33.78 47.43 35.35 47.18 36.13 46.93 41.63 46.43 43.99 46.43 45.56 46.43 51.06 46.18 51.85 45.93 52.63 45.93 53.42 45.93 54.2 45.93 54.99 45.93 55.78 45.93 56.56 45.93 57.35 45.93 58.13 45.93 58.92 45.18 59.71 45.18 61.28 44.94 62.06 44.94 62.85 44.94 63.63 44.69 64.42 46.68 65.21 45.43 65.99 45.43 66.78 45.43 67.56 45.43 68.35 45.43 69.13 45.43 69.92 45.43 70.71 45.43 71.49 45.18 72.28 45.18 73.06 44.94 73.85 44.94 78.56 43.69 79.35 43.69 80.13 43.44 80.92 43.19 81.71 42.69 82.49 42.69 83.28 42.69 84.06 42.69 84.85 42.69 85.63 42.44 87.21 42.44 87.99 41.94 88.78 41.94 89.56 41.94 90.35 41.94 91.14 41.94 91.92 41.19 92.71 41.19 94.28 40.94 95.06 40.44 95.85 40.19 96.64 39.94 97.42 39.94 98.21 39.94 99.78 39.44 100.56 39.2 101.35 38.95 102.14 38.95 103.71 38.45 105.28 37.95 106.06 37.95 106.85 37.95 107.64 37.95 109.99 37.95 110.78 37.95 111.56 37.7 112.35 37.7 113.14 37.7 113.92 37.45 114.71 37.45 115.49 37.45 117.07 37.2 117.85 37.2 119.42 37.2 120.21 37.2 120.99 36.45 121.78 36.45 123.35 36.95 124.14 36.95 124.92 36.45 125.71 36.2 126.49 36.2 127.28 35.7 128.07 35.7" id="fig-c0e7d6a60bdb449498749d00932e195f-element-41"/>
      </g>
    </g>
  </g>
  <g class="guide ylabels" font-size="2.82" font-family="'PT Sans Caption','Helvetica Neue','Helvetica',sans-serif" fill="#6C606B" id="fig-c0e7d6a60bdb449498749d00932e195f-element-42">
    <text x="18.63" y="56.91" text-anchor="end" dy="0.35em" id="fig-c0e7d6a60bdb449498749d00932e195f-element-43">250</text>
    <text x="18.63" y="44.44" text-anchor="end" dy="0.35em" id="fig-c0e7d6a60bdb449498749d00932e195f-element-44">300</text>
    <text x="18.63" y="31.96" text-anchor="end" dy="0.35em" id="fig-c0e7d6a60bdb449498749d00932e195f-element-45">350</text>
    <text x="18.63" y="19.48" text-anchor="end" dy="0.35em" id="fig-c0e7d6a60bdb449498749d00932e195f-element-46">400</text>
    <text x="18.63" y="7" text-anchor="end" dy="0.35em" id="fig-c0e7d6a60bdb449498749d00932e195f-element-47">450</text>
  </g>
</g>
<defs>
<clipPath id="fig-c0e7d6a60bdb449498749d00932e195f-element-18">
  <path d="M19.63,5 L 183.85 5 183.85 58.91 19.63 58.91" />
</clipPath
></defs>
</svg>
