<?xml version="1.0" encoding="UTF-8"?>
<svg xmlns="http://www.w3.org/2000/svg"
     xmlns:xlink="http://www.w3.org/1999/xlink"
     xmlns:gadfly="http://www.gadflyjl.org/ns"
     version="1.2"
     width="203.2mm" height="76.2mm" viewBox="0 0 203.2 76.2"
     stroke="none"
     fill="#000000"
     stroke-width="0.3"
     font-size="3.88"
>
<g class="plotroot xscalable yscalable" id="fig-cba454f18a204ddc826f8f41f8c8c6e1-element-1">
  <g font-size="3.88" font-family="'PT Sans','Helvetica Neue','Helvetica',sans-serif" fill="#564A55" stroke="none" id="fig-cba454f18a204ddc826f8f41f8c8c6e1-element-2">
    <text x="101.74" y="68.2" text-anchor="middle">Date</text>
  </g>
  <g class="guide xlabels" font-size="2.82" font-family="'PT Sans Caption','Helvetica Neue','Helvetica',sans-serif" fill="#6C606B" id="fig-cba454f18a204ddc826f8f41f8c8c6e1-element-3">
    <text x="23.43" y="62.59" text-anchor="middle">Apr</text>
    <text x="46.24" y="62.59" text-anchor="middle">May</text>
    <text x="69.81" y="62.59" text-anchor="middle">June</text>
    <text x="92.62" y="62.59" text-anchor="middle">July</text>
    <text x="116.19" y="62.59" text-anchor="middle">Aug</text>
    <text x="139.76" y="62.59" text-anchor="middle">Sept</text>
    <text x="162.57" y="62.59" text-anchor="middle">Oct</text>
  </g>
  <g class="guide colorkey" id="fig-cba454f18a204ddc826f8f41f8c8c6e1-element-4">
    <g fill="#4C404B" font-size="2.82" font-family="'PT Sans','Helvetica Neue','Helvetica',sans-serif" id="fig-cba454f18a204ddc826f8f41f8c8c6e1-element-5">
      <text x="187.67" y="30.14" dy="0.35em" id="fig-cba454f18a204ddc826f8f41f8c8c6e1-element-6" class="color_0.2">0.2</text>
      <text x="187.67" y="33.77" dy="0.35em" id="fig-cba454f18a204ddc826f8f41f8c8c6e1-element-7" class="color_0.3">0.3</text>
      <text x="187.67" y="37.4" dy="0.35em" id="fig-cba454f18a204ddc826f8f41f8c8c6e1-element-8" class="color_0.4">0.4</text>
    </g>
    <g stroke="none" id="fig-cba454f18a204ddc826f8f41f8c8c6e1-element-9">
      <rect x="184.85" y="29.24" width="1.81" height="1.81" id="fig-cba454f18a204ddc826f8f41f8c8c6e1-element-10" class="color_0.2" fill="#00BFFF"/>
      <rect x="184.85" y="32.86" width="1.81" height="1.81" id="fig-cba454f18a204ddc826f8f41f8c8c6e1-element-11" class="color_0.3" fill="#D4CA3A"/>
      <rect x="184.85" y="36.49" width="1.81" height="1.81" id="fig-cba454f18a204ddc826f8f41f8c8c6e1-element-12" class="color_0.4" fill="#FF5EA0"/>
    </g>
    <g fill="#362A35" font-size="3.88" font-family="'PT Sans','Helvetica Neue','Helvetica',sans-serif" stroke="none" id="fig-cba454f18a204ddc826f8f41f8c8c6e1-element-13">
      <text x="184.85" y="26.32" id="fig-cba454f18a204ddc826f8f41f8c8c6e1-element-14">Julia ver.</text>
    </g>
  </g>
  <g font-size="3.88" font-family="'PT Sans','Helvetica Neue','Helvetica',sans-serif" fill="#564A55" stroke="none" id="fig-cba454f18a204ddc826f8f41f8c8c6e1-element-15">
    <text x="8.81" y="29.96" text-anchor="middle" dy="0.35em" transform="rotate(-90, 8.81, 31.96)" id="fig-cba454f18a204ddc826f8f41f8c8c6e1-element-16">Number of Tagged Packages</text>
  </g>
  <g clip-path="url(#fig-cba454f18a204ddc826f8f41f8c8c6e1-element-18)" id="fig-cba454f18a204ddc826f8f41f8c8c6e1-element-17">
    <g pointer-events="visible" opacity="1" fill="none" stroke="none" class="guide background" id="fig-cba454f18a204ddc826f8f41f8c8c6e1-element-19">
      <rect x="19.63" y="5" width="164.22" height="53.91" id="fig-cba454f18a204ddc826f8f41f8c8c6e1-element-20"/>
    </g>
    <g class="guide ygridlines xfixed" stroke-dasharray="0.5,0.5" stroke-width="0.2" stroke="#D0D0E0" id="fig-cba454f18a204ddc826f8f41f8c8c6e1-element-21">
      <path fill="none" d="M19.63,56.91 L 183.85 56.91" id="fig-cba454f18a204ddc826f8f41f8c8c6e1-element-22"/>
      <path fill="none" d="M19.63,44.44 L 183.85 44.44" id="fig-cba454f18a204ddc826f8f41f8c8c6e1-element-23"/>
      <path fill="none" d="M19.63,31.96 L 183.85 31.96" id="fig-cba454f18a204ddc826f8f41f8c8c6e1-element-24"/>
      <path fill="none" d="M19.63,19.48 L 183.85 19.48" id="fig-cba454f18a204ddc826f8f41f8c8c6e1-element-25"/>
      <path fill="none" d="M19.63,7 L 183.85 7" id="fig-cba454f18a204ddc826f8f41f8c8c6e1-element-26"/>
    </g>
    <g class="guide xgridlines yfixed" stroke-dasharray="0.5,0.5" stroke-width="0.2" stroke="#D0D0E0" id="fig-cba454f18a204ddc826f8f41f8c8c6e1-element-27">
      <path fill="none" d="M23.43,5 L 23.43 58.91" id="fig-cba454f18a204ddc826f8f41f8c8c6e1-element-28"/>
      <path fill="none" d="M46.24,5 L 46.24 58.91" id="fig-cba454f18a204ddc826f8f41f8c8c6e1-element-29"/>
      <path fill="none" d="M69.81,5 L 69.81 58.91" id="fig-cba454f18a204ddc826f8f41f8c8c6e1-element-30"/>
      <path fill="none" d="M92.62,5 L 92.62 58.91" id="fig-cba454f18a204ddc826f8f41f8c8c6e1-element-31"/>
      <path fill="none" d="M116.19,5 L 116.19 58.91" id="fig-cba454f18a204ddc826f8f41f8c8c6e1-element-32"/>
      <path fill="none" d="M139.76,5 L 139.76 58.91" id="fig-cba454f18a204ddc826f8f41f8c8c6e1-element-33"/>
      <path fill="none" d="M162.57,5 L 162.57 58.91" id="fig-cba454f18a204ddc826f8f41f8c8c6e1-element-34"/>
    </g>
    <g class="plotpanel" id="fig-cba454f18a204ddc826f8f41f8c8c6e1-element-35">
      <g stroke-width="0.79" fill="none" class="geometry color_0.4" stroke="#FF5EA0" id="fig-cba454f18a204ddc826f8f41f8c8c6e1-element-36">
        <path fill="none" d="M125.31,28.46 L 126.07 27.71 126.83 27.47 127.59 27.22 128.35 27.22 129.11 27.22 130.63 26.47 131.39 26.47 132.15 26.22 132.91 26.22 133.68 26.22 134.44 25.47 135.2 24.97 135.96 24.97 137.48 24.47 138.24 23.72 139.76 23.22 140.52 23.22 141.28 23.22 144.32 23.22 146.6 21.72 147.36 21.48 148.12 21.23 148.88 20.73 149.64 20.73 150.4 20.73 151.16 18.73 151.92 18.73 152.68 18.73 154.2 18.48 154.96 18.48 155.72 18.23 156.48 18.23 157.24 18.23 158 17.98 158.76 17.98 160.29 18.23 161.05 17.98 161.81 17.98 162.57 17.48 163.33 16.98 164.09 16.98 164.85 16.98 165.61 16.48 167.89 15.98 168.65 15.98 169.41 15.49 170.17 15.24 170.93 15.24 171.69 15.24 172.45 14.74 173.21 14.74 173.97 14.49 174.73 14.24 175.49 14.24 176.25 14.24 177.01 14.24 177.77 13.74 178.53 13.24 179.29 13.24 180.05 13.24 180.81 12.99 181.57 12.99 182.33 12.74" id="fig-cba454f18a204ddc826f8f41f8c8c6e1-element-37"/>
      </g>
      <g stroke-width="0.79" fill="none" class="geometry color_0.3" stroke="#D4CA3A" id="fig-cba454f18a204ddc826f8f41f8c8c6e1-element-38">
        <path fill="none" d="M21.91,45.43 L 22.67 45.43 23.43 45.18 24.19 45.18 24.95 45.18 25.71 45.18 26.47 45.18 27.23 44.94 28.76 44.94 29.52 44.69 31.04 44.44 32.56 43.94 33.32 43.94 34.84 43.94 35.6 43.69 40.92 42.69 43.2 42.69 44.72 42.69 50.04 42.44 50.8 41.94 51.56 41.69 52.32 41.69 53.08 41.69 53.84 41.69 54.6 41.69 55.37 41.69 56.13 41.69 56.89 41.69 57.65 41.69 58.41 40.94 59.93 40.69 60.69 40.69 61.45 40.69 62.21 40.19 62.97 40.19 63.73 40.19 64.49 39.94 65.25 39.94 66.01 39.94 66.77 39.94 67.53 39.94 68.29 39.69 69.05 39.69 69.81 49.68 70.57 39.44 71.33 39.2 72.09 38.95 76.65 37.45 77.41 37.2 78.17 36.95 78.93 36.7 79.69 36.2 80.45 36.2 81.22 35.7 81.98 35.7 82.74 35.45 83.5 35.2 85.02 35.2 85.78 34.7 86.54 34.7 87.3 34.7 88.06 34.7 88.82 34.7 89.58 33.95 90.34 33.95 91.86 33.7 92.62 33.21 93.38 32.96 94.14 32.71 94.9 32.71 95.66 32.21 97.18 31.96 97.94 31.21 98.7 31.21 99.46 31.21 100.98 29.96 102.5 29.21 103.26 29.21 104.02 28.96 104.78 28.96 107.06 28.71 107.83 28.71 108.59 28.46 109.35 28.46 110.11 28.46 110.87 28.21 111.63 27.96 112.39 27.71 113.91 27.71 114.67 27.71 116.19 27.71 116.95 27.47 117.71 26.72 118.47 26.72 119.99 26.47 120.75 26.47 121.51 25.97 122.27 25.72 123.03 25.47 123.79 25.22 124.55 24.97 125.31 24.47 126.07 24.47 126.83 24.22 127.59 23.97 128.35 23.97 129.11 23.97 130.63 23.22 131.39 23.22 132.15 22.97 132.91 22.97 133.68 22.97 134.44 22.22 135.2 21.97 135.96 21.72 137.48 24.72 138.24 23.97 139.76 23.47 140.52 23.47 141.28 23.47 144.32 23.47 146.6 21.97 147.36 21.72 148.12 21.48 148.88 20.98 149.64 20.98 150.4 20.98 151.16 18.98 151.92 18.98 152.68 18.98 154.2 18.98 154.96 18.73 155.72 18.48 156.48 18.48 157.24 18.48 158 18.23 158.76 18.23 160.29 18.48 161.05 18.23 161.81 18.23 162.57 17.73 163.33 12.74 164.09 17.23 164.85 17.23 165.61 16.73 167.89 16.23 168.65 16.23 169.41 15.74 170.17 15.49 170.93 15.49 171.69 15.49 172.45 14.99 173.21 14.99 173.97 14.74 174.73 14.49 175.49 14.49 176.25 14.49 177.01 14.49 177.77 14.24 178.53 13.74 179.29 13.74 180.05 13.74 180.81 13.49 181.57 13.49 182.33 13.24" id="fig-cba454f18a204ddc826f8f41f8c8c6e1-element-39"/>
      </g>
      <g stroke-width="0.79" fill="none" class="geometry color_0.2" stroke="#00BFFF" id="fig-cba454f18a204ddc826f8f41f8c8c6e1-element-40">
        <path fill="none" d="M21.91,48.18 L 22.67 48.18 23.43 47.93 24.19 47.93 24.95 47.93 25.71 47.93 26.47 47.93 27.23 47.93 28.76 47.93 29.52 47.93 31.04 47.68 32.56 47.43 33.32 47.43 34.84 47.18 35.6 46.93 40.92 46.43 43.2 46.43 44.72 46.43 50.04 46.18 50.8 45.93 51.56 45.93 52.32 45.93 53.08 45.93 53.84 45.93 54.6 45.93 55.37 45.93 56.13 45.93 56.89 45.93 57.65 45.18 58.41 45.18 59.93 44.94 60.69 44.94 61.45 44.94 62.21 44.69 62.97 46.68 63.73 45.43 64.49 45.43 65.25 45.43 66.01 45.43 66.77 45.43 67.53 45.43 68.29 45.43 69.05 45.43 69.81 45.18 70.57 45.18 71.33 44.94 72.09 44.94 76.65 43.69 77.41 43.69 78.17 43.44 78.93 43.19 79.69 42.69 80.45 42.69 81.22 42.69 81.98 42.69 82.74 42.69 83.5 42.44 85.02 42.44 85.78 41.94 86.54 41.94 87.3 41.94 88.06 41.94 88.82 41.94 89.58 41.19 90.34 41.19 91.86 40.94 92.62 40.44 93.38 40.19 94.14 39.94 94.9 39.94 95.66 39.94 97.18 39.44 97.94 39.2 98.7 38.95 99.46 38.95 100.98 38.45 102.5 37.95 103.26 37.95 104.02 37.95 104.78 37.95 107.06 37.95 107.83 37.95 108.59 37.7 109.35 37.7 110.11 37.7 110.87 37.45 111.63 37.45 112.39 37.45 113.91 37.2 114.67 37.2 116.19 37.2 116.95 37.2 117.71 36.45 118.47 36.45 119.99 36.95 120.75 36.95 121.51 36.45 122.27 36.2 123.03 36.2 123.79 35.7 124.55 35.7" id="fig-cba454f18a204ddc826f8f41f8c8c6e1-element-41"/>
      </g>
    </g>
  </g>
  <g class="guide ylabels" font-size="2.82" font-family="'PT Sans Caption','Helvetica Neue','Helvetica',sans-serif" fill="#6C606B" id="fig-cba454f18a204ddc826f8f41f8c8c6e1-element-42">
    <text x="18.63" y="56.91" text-anchor="end" dy="0.35em" id="fig-cba454f18a204ddc826f8f41f8c8c6e1-element-43">250</text>
    <text x="18.63" y="44.44" text-anchor="end" dy="0.35em" id="fig-cba454f18a204ddc826f8f41f8c8c6e1-element-44">300</text>
    <text x="18.63" y="31.96" text-anchor="end" dy="0.35em" id="fig-cba454f18a204ddc826f8f41f8c8c6e1-element-45">350</text>
    <text x="18.63" y="19.48" text-anchor="end" dy="0.35em" id="fig-cba454f18a204ddc826f8f41f8c8c6e1-element-46">400</text>
    <text x="18.63" y="7" text-anchor="end" dy="0.35em" id="fig-cba454f18a204ddc826f8f41f8c8c6e1-element-47">450</text>
  </g>
</g>
<defs>
<clipPath id="fig-cba454f18a204ddc826f8f41f8c8c6e1-element-18">
  <path d="M19.63,5 L 183.85 5 183.85 58.91 19.63 58.91" />
</clipPath
></defs>
</svg>
