<?xml version="1.0" encoding="UTF-8"?>
<svg xmlns="http://www.w3.org/2000/svg"
     xmlns:xlink="http://www.w3.org/1999/xlink"
     xmlns:gadfly="http://www.gadflyjl.org/ns"
     version="1.2"
     width="203.2mm" height="76.2mm" viewBox="0 0 203.2 76.2"
     stroke="none"
     fill="#000000"
     stroke-width="0.3"
     font-size="3.88"
>
<g class="plotroot xscalable yscalable" id="fig-f626dde418ce4584bb4f76551180ea35-element-1">
  <g font-size="3.88" font-family="'PT Sans','Helvetica Neue','Helvetica',sans-serif" fill="#564A55" stroke="none" id="fig-f626dde418ce4584bb4f76551180ea35-element-2">
    <text x="101.74" y="68.2" text-anchor="middle">Date</text>
  </g>
  <g class="guide xlabels" font-size="2.82" font-family="'PT Sans Caption','Helvetica Neue','Helvetica',sans-serif" fill="#6C606B" id="fig-f626dde418ce4584bb4f76551180ea35-element-3">
    <text x="23.36" y="62.59" text-anchor="middle">Apr</text>
    <text x="45.76" y="62.59" text-anchor="middle">May</text>
    <text x="68.9" y="62.59" text-anchor="middle">June</text>
    <text x="91.29" y="62.59" text-anchor="middle">July</text>
    <text x="114.43" y="62.59" text-anchor="middle">Aug</text>
    <text x="137.57" y="62.59" text-anchor="middle">Sept</text>
    <text x="159.97" y="62.59" text-anchor="middle">Oct</text>
  </g>
  <g class="guide colorkey" id="fig-f626dde418ce4584bb4f76551180ea35-element-4">
    <g fill="#4C404B" font-size="2.82" font-family="'PT Sans','Helvetica Neue','Helvetica',sans-serif" id="fig-f626dde418ce4584bb4f76551180ea35-element-5">
      <text x="187.67" y="30.14" dy="0.35em" id="fig-f626dde418ce4584bb4f76551180ea35-element-6" class="color_0.2">0.2</text>
      <text x="187.67" y="33.77" dy="0.35em" id="fig-f626dde418ce4584bb4f76551180ea35-element-7" class="color_0.3">0.3</text>
      <text x="187.67" y="37.4" dy="0.35em" id="fig-f626dde418ce4584bb4f76551180ea35-element-8" class="color_0.4">0.4</text>
    </g>
    <g stroke="none" id="fig-f626dde418ce4584bb4f76551180ea35-element-9">
      <rect x="184.85" y="29.24" width="1.81" height="1.81" id="fig-f626dde418ce4584bb4f76551180ea35-element-10" class="color_0.2" fill="#00BFFF"/>
      <rect x="184.85" y="32.86" width="1.81" height="1.81" id="fig-f626dde418ce4584bb4f76551180ea35-element-11" class="color_0.3" fill="#D4CA3A"/>
      <rect x="184.85" y="36.49" width="1.81" height="1.81" id="fig-f626dde418ce4584bb4f76551180ea35-element-12" class="color_0.4" fill="#FF5EA0"/>
    </g>
    <g fill="#362A35" font-size="3.88" font-family="'PT Sans','Helvetica Neue','Helvetica',sans-serif" stroke="none" id="fig-f626dde418ce4584bb4f76551180ea35-element-13">
      <text x="184.85" y="26.32" id="fig-f626dde418ce4584bb4f76551180ea35-element-14">Julia ver.</text>
    </g>
  </g>
  <g font-size="3.88" font-family="'PT Sans','Helvetica Neue','Helvetica',sans-serif" fill="#564A55" stroke="none" id="fig-f626dde418ce4584bb4f76551180ea35-element-15">
    <text x="8.81" y="29.96" text-anchor="middle" dy="0.35em" transform="rotate(-90, 8.81, 31.96)" id="fig-f626dde418ce4584bb4f76551180ea35-element-16">Number of Tagged Packages</text>
  </g>
  <g clip-path="url(#fig-f626dde418ce4584bb4f76551180ea35-element-18)" id="fig-f626dde418ce4584bb4f76551180ea35-element-17">
    <g pointer-events="visible" opacity="1" fill="none" stroke="none" class="guide background" id="fig-f626dde418ce4584bb4f76551180ea35-element-19">
      <rect x="19.63" y="5" width="164.22" height="53.91" id="fig-f626dde418ce4584bb4f76551180ea35-element-20"/>
    </g>
    <g class="guide ygridlines xfixed" stroke-dasharray="0.5,0.5" stroke-width="0.2" stroke="#D0D0E0" id="fig-f626dde418ce4584bb4f76551180ea35-element-21">
      <path fill="none" d="M19.63,56.91 L 183.85 56.91" id="fig-f626dde418ce4584bb4f76551180ea35-element-22"/>
      <path fill="none" d="M19.63,44.44 L 183.85 44.44" id="fig-f626dde418ce4584bb4f76551180ea35-element-23"/>
      <path fill="none" d="M19.63,31.96 L 183.85 31.96" id="fig-f626dde418ce4584bb4f76551180ea35-element-24"/>
      <path fill="none" d="M19.63,19.48 L 183.85 19.48" id="fig-f626dde418ce4584bb4f76551180ea35-element-25"/>
      <path fill="none" d="M19.63,7 L 183.85 7" id="fig-f626dde418ce4584bb4f76551180ea35-element-26"/>
    </g>
    <g class="guide xgridlines yfixed" stroke-dasharray="0.5,0.5" stroke-width="0.2" stroke="#D0D0E0" id="fig-f626dde418ce4584bb4f76551180ea35-element-27">
      <path fill="none" d="M23.36,5 L 23.36 58.91" id="fig-f626dde418ce4584bb4f76551180ea35-element-28"/>
      <path fill="none" d="M45.76,5 L 45.76 58.91" id="fig-f626dde418ce4584bb4f76551180ea35-element-29"/>
      <path fill="none" d="M68.9,5 L 68.9 58.91" id="fig-f626dde418ce4584bb4f76551180ea35-element-30"/>
      <path fill="none" d="M91.29,5 L 91.29 58.91" id="fig-f626dde418ce4584bb4f76551180ea35-element-31"/>
      <path fill="none" d="M114.43,5 L 114.43 58.91" id="fig-f626dde418ce4584bb4f76551180ea35-element-32"/>
      <path fill="none" d="M137.57,5 L 137.57 58.91" id="fig-f626dde418ce4584bb4f76551180ea35-element-33"/>
      <path fill="none" d="M159.97,5 L 159.97 58.91" id="fig-f626dde418ce4584bb4f76551180ea35-element-34"/>
    </g>
    <g class="plotpanel" id="fig-f626dde418ce4584bb4f76551180ea35-element-35">
      <g stroke-width="0.79" fill="none" class="geometry color_0.4" stroke="#FF5EA0" id="fig-f626dde418ce4584bb4f76551180ea35-element-36">
        <path fill="none" d="M123.39,28.46 L 124.14 27.71 124.88 27.47 125.63 27.22 126.38 27.22 127.12 27.22 128.62 26.47 129.36 26.47 130.11 26.22 130.86 26.22 131.6 26.22 132.35 25.47 133.09 24.97 133.84 24.97 135.33 24.47 136.08 23.72 137.57 23.22 138.32 23.22 139.07 23.22 142.05 23.22 144.29 21.72 145.04 21.48 145.78 21.23 146.53 20.73 147.28 20.73 148.02 20.73 148.77 18.73 149.52 18.73 150.26 18.73 151.76 18.48 152.5 18.48 153.25 18.23 154 18.23 154.74 18.23 155.49 17.98 156.23 17.98 157.73 18.23 158.47 17.98 159.22 17.98 159.97 17.48 160.71 16.98 161.46 16.98 162.21 16.98 162.95 16.48 165.19 15.98 165.94 15.98 166.69 15.49 167.43 15.24 168.18 15.24 168.92 15.24 169.67 14.74 170.42 14.74 171.16 14.49 171.91 14.24 172.66 14.24 173.4 14.24 174.15 14.24 174.9 13.74 175.64 13.24 176.39 13.24 177.14 13.24 177.88 12.99 178.63 12.99 179.38 12.74 180.12 12.74 180.87 12.24 181.61 11.99 182.36 11.99" id="fig-f626dde418ce4584bb4f76551180ea35-element-37"/>
      </g>
      <g stroke-width="0.79" fill="none" class="geometry color_0.3" stroke="#D4CA3A" id="fig-f626dde418ce4584bb4f76551180ea35-element-38">
        <path fill="none" d="M21.87,45.43 L 22.62 45.43 23.36 45.18 24.11 45.18 24.86 45.18 25.6 45.18 26.35 45.18 27.1 44.94 28.59 44.94 29.34 44.69 30.83 44.44 32.32 43.94 33.07 43.94 34.56 43.94 35.31 43.69 40.53 42.69 42.77 42.69 44.27 42.69 49.49 42.44 50.24 41.94 50.98 41.69 51.73 41.69 52.48 41.69 53.22 41.69 53.97 41.69 54.72 41.69 55.46 41.69 56.21 41.69 56.95 41.69 57.7 40.94 59.19 40.69 59.94 40.69 60.69 40.69 61.43 40.19 62.18 40.19 62.93 40.19 63.67 39.94 64.42 39.94 65.17 39.94 65.91 39.94 66.66 39.94 67.41 39.69 68.15 39.69 68.9 49.68 69.64 39.44 70.39 39.2 71.14 38.95 75.62 37.45 76.36 37.2 77.11 36.95 77.86 36.7 78.6 36.2 79.35 36.2 80.1 35.7 80.84 35.7 81.59 35.45 82.33 35.2 83.83 35.2 84.57 34.7 85.32 34.7 86.07 34.7 86.81 34.7 87.56 34.7 88.31 33.95 89.05 33.95 90.55 33.7 91.29 33.21 92.04 32.96 92.79 32.71 93.53 32.71 94.28 32.21 95.77 31.96 96.52 31.21 97.26 31.21 98.01 31.21 99.5 29.96 101 29.21 101.74 29.21 102.49 28.96 103.24 28.96 105.48 28.71 106.22 28.71 106.97 28.46 107.71 28.46 108.46 28.46 109.21 28.21 109.95 27.96 110.7 27.71 112.19 27.71 112.94 27.71 114.43 27.71 115.18 27.47 115.93 26.72 116.67 26.72 118.17 26.47 118.91 26.47 119.66 25.97 120.4 25.72 121.15 25.47 121.9 25.22 122.64 24.97 123.39 24.47 124.14 24.47 124.88 24.22 125.63 23.97 126.38 23.97 127.12 23.97 128.62 23.22 129.36 23.22 130.11 22.97 130.86 22.97 131.6 22.97 132.35 22.22 133.09 21.97 133.84 21.72 135.33 24.72 136.08 23.97 137.57 23.47 138.32 23.47 139.07 23.47 142.05 23.47 144.29 21.97 145.04 21.72 145.78 21.48 146.53 20.98 147.28 20.98 148.02 20.98 148.77 18.98 149.52 18.98 150.26 18.98 151.76 18.98 152.5 18.73 153.25 18.48 154 18.48 154.74 18.48 155.49 18.23 156.23 18.23 157.73 18.48 158.47 18.23 159.22 18.23 159.97 17.73 160.71 12.74 161.46 17.23 162.21 17.23 162.95 16.73 165.19 16.23 165.94 16.23 166.69 15.74 167.43 15.49 168.18 15.49 168.92 15.49 169.67 14.99 170.42 14.99 171.16 14.74 171.91 14.49 172.66 14.49 173.4 14.49 174.15 14.49 174.9 14.24 175.64 13.74 176.39 13.74 177.14 13.74 177.88 13.49 178.63 13.49 179.38 13.24 180.12 13.24 180.87 12.74 181.61 12.49 182.36 12.49" id="fig-f626dde418ce4584bb4f76551180ea35-element-39"/>
      </g>
      <g stroke-width="0.79" fill="none" class="geometry color_0.2" stroke="#00BFFF" id="fig-f626dde418ce4584bb4f76551180ea35-element-40">
        <path fill="none" d="M21.87,48.18 L 22.62 48.18 23.36 47.93 24.11 47.93 24.86 47.93 25.6 47.93 26.35 47.93 27.1 47.93 28.59 47.93 29.34 47.93 30.83 47.68 32.32 47.43 33.07 47.43 34.56 47.18 35.31 46.93 40.53 46.43 42.77 46.43 44.27 46.43 49.49 46.18 50.24 45.93 50.98 45.93 51.73 45.93 52.48 45.93 53.22 45.93 53.97 45.93 54.72 45.93 55.46 45.93 56.21 45.93 56.95 45.18 57.7 45.18 59.19 44.94 59.94 44.94 60.69 44.94 61.43 44.69 62.18 46.68 62.93 45.43 63.67 45.43 64.42 45.43 65.17 45.43 65.91 45.43 66.66 45.43 67.41 45.43 68.15 45.43 68.9 45.18 69.64 45.18 70.39 44.94 71.14 44.94 75.62 43.69 76.36 43.69 77.11 43.44 77.86 43.19 78.6 42.69 79.35 42.69 80.1 42.69 80.84 42.69 81.59 42.69 82.33 42.44 83.83 42.44 84.57 41.94 85.32 41.94 86.07 41.94 86.81 41.94 87.56 41.94 88.31 41.19 89.05 41.19 90.55 40.94 91.29 40.44 92.04 40.19 92.79 39.94 93.53 39.94 94.28 39.94 95.77 39.44 96.52 39.2 97.26 38.95 98.01 38.95 99.5 38.45 101 37.95 101.74 37.95 102.49 37.95 103.24 37.95 105.48 37.95 106.22 37.95 106.97 37.7 107.71 37.7 108.46 37.7 109.21 37.45 109.95 37.45 110.7 37.45 112.19 37.2 112.94 37.2 114.43 37.2 115.18 37.2 115.93 36.45 116.67 36.45 118.17 36.95 118.91 36.95 119.66 36.45 120.4 36.2 121.15 36.2 121.9 35.7 122.64 35.7" id="fig-f626dde418ce4584bb4f76551180ea35-element-41"/>
      </g>
    </g>
  </g>
  <g class="guide ylabels" font-size="2.82" font-family="'PT Sans Caption','Helvetica Neue','Helvetica',sans-serif" fill="#6C606B" id="fig-f626dde418ce4584bb4f76551180ea35-element-42">
    <text x="18.63" y="56.91" text-anchor="end" dy="0.35em" id="fig-f626dde418ce4584bb4f76551180ea35-element-43">250</text>
    <text x="18.63" y="44.44" text-anchor="end" dy="0.35em" id="fig-f626dde418ce4584bb4f76551180ea35-element-44">300</text>
    <text x="18.63" y="31.96" text-anchor="end" dy="0.35em" id="fig-f626dde418ce4584bb4f76551180ea35-element-45">350</text>
    <text x="18.63" y="19.48" text-anchor="end" dy="0.35em" id="fig-f626dde418ce4584bb4f76551180ea35-element-46">400</text>
    <text x="18.63" y="7" text-anchor="end" dy="0.35em" id="fig-f626dde418ce4584bb4f76551180ea35-element-47">450</text>
  </g>
</g>
<defs>
<clipPath id="fig-f626dde418ce4584bb4f76551180ea35-element-18">
  <path d="M19.63,5 L 183.85 5 183.85 58.91 19.63 58.91" />
</clipPath
></defs>
</svg>
