<?xml version="1.0" encoding="UTF-8"?>
<svg xmlns="http://www.w3.org/2000/svg"
     xmlns:xlink="http://www.w3.org/1999/xlink"
     xmlns:gadfly="http://www.gadflyjl.org/ns"
     version="1.2"
     width="203.2mm" height="76.2mm" viewBox="0 0 203.2 76.2"
     stroke="none"
     fill="#000000"
     stroke-width="0.3"
     font-size="3.88"
>
<g class="plotroot xscalable yscalable" id="fig-bd187aa4d25a40f7923c23bf87e034ac-element-1">
  <g font-size="3.88" font-family="'PT Sans','Helvetica Neue','Helvetica',sans-serif" fill="#564A55" stroke="none" id="fig-bd187aa4d25a40f7923c23bf87e034ac-element-2">
    <text x="101.74" y="68.2" text-anchor="middle">Date</text>
  </g>
  <g class="guide xlabels" font-size="2.82" font-family="'PT Sans Caption','Helvetica Neue','Helvetica',sans-serif" fill="#6C606B" id="fig-bd187aa4d25a40f7923c23bf87e034ac-element-3">
    <text x="23.38" y="62.59" text-anchor="middle">Apr</text>
    <text x="45.88" y="62.59" text-anchor="middle">May</text>
    <text x="69.12" y="62.59" text-anchor="middle">June</text>
    <text x="91.62" y="62.59" text-anchor="middle">July</text>
    <text x="114.87" y="62.59" text-anchor="middle">Aug</text>
    <text x="138.11" y="62.59" text-anchor="middle">Sept</text>
    <text x="160.61" y="62.59" text-anchor="middle">Oct</text>
  </g>
  <g class="guide colorkey" id="fig-bd187aa4d25a40f7923c23bf87e034ac-element-4">
    <g fill="#4C404B" font-size="2.82" font-family="'PT Sans','Helvetica Neue','Helvetica',sans-serif" id="fig-bd187aa4d25a40f7923c23bf87e034ac-element-5">
      <text x="187.67" y="30.14" dy="0.35em" id="fig-bd187aa4d25a40f7923c23bf87e034ac-element-6" class="color_0.2">0.2</text>
      <text x="187.67" y="33.77" dy="0.35em" id="fig-bd187aa4d25a40f7923c23bf87e034ac-element-7" class="color_0.3">0.3</text>
      <text x="187.67" y="37.4" dy="0.35em" id="fig-bd187aa4d25a40f7923c23bf87e034ac-element-8" class="color_0.4">0.4</text>
    </g>
    <g stroke="none" id="fig-bd187aa4d25a40f7923c23bf87e034ac-element-9">
      <rect x="184.85" y="29.24" width="1.81" height="1.81" id="fig-bd187aa4d25a40f7923c23bf87e034ac-element-10" class="color_0.2" fill="#00BFFF"/>
      <rect x="184.85" y="32.86" width="1.81" height="1.81" id="fig-bd187aa4d25a40f7923c23bf87e034ac-element-11" class="color_0.3" fill="#D4CA3A"/>
      <rect x="184.85" y="36.49" width="1.81" height="1.81" id="fig-bd187aa4d25a40f7923c23bf87e034ac-element-12" class="color_0.4" fill="#FF5EA0"/>
    </g>
    <g fill="#362A35" font-size="3.88" font-family="'PT Sans','Helvetica Neue','Helvetica',sans-serif" stroke="none" id="fig-bd187aa4d25a40f7923c23bf87e034ac-element-13">
      <text x="184.85" y="26.32" id="fig-bd187aa4d25a40f7923c23bf87e034ac-element-14">Julia ver.</text>
    </g>
  </g>
  <g font-size="3.88" font-family="'PT Sans','Helvetica Neue','Helvetica',sans-serif" fill="#564A55" stroke="none" id="fig-bd187aa4d25a40f7923c23bf87e034ac-element-15">
    <text x="8.81" y="29.96" text-anchor="middle" dy="0.35em" transform="rotate(-90, 8.81, 31.96)" id="fig-bd187aa4d25a40f7923c23bf87e034ac-element-16">Number of Tagged Packages</text>
  </g>
  <g clip-path="url(#fig-bd187aa4d25a40f7923c23bf87e034ac-element-18)" id="fig-bd187aa4d25a40f7923c23bf87e034ac-element-17">
    <g pointer-events="visible" opacity="1" fill="none" stroke="none" class="guide background" id="fig-bd187aa4d25a40f7923c23bf87e034ac-element-19">
      <rect x="19.63" y="5" width="164.22" height="53.91" id="fig-bd187aa4d25a40f7923c23bf87e034ac-element-20"/>
    </g>
    <g class="guide ygridlines xfixed" stroke-dasharray="0.5,0.5" stroke-width="0.2" stroke="#D0D0E0" id="fig-bd187aa4d25a40f7923c23bf87e034ac-element-21">
      <path fill="none" d="M19.63,56.91 L 183.85 56.91" id="fig-bd187aa4d25a40f7923c23bf87e034ac-element-22"/>
      <path fill="none" d="M19.63,44.44 L 183.85 44.44" id="fig-bd187aa4d25a40f7923c23bf87e034ac-element-23"/>
      <path fill="none" d="M19.63,31.96 L 183.85 31.96" id="fig-bd187aa4d25a40f7923c23bf87e034ac-element-24"/>
      <path fill="none" d="M19.63,19.48 L 183.85 19.48" id="fig-bd187aa4d25a40f7923c23bf87e034ac-element-25"/>
      <path fill="none" d="M19.63,7 L 183.85 7" id="fig-bd187aa4d25a40f7923c23bf87e034ac-element-26"/>
    </g>
    <g class="guide xgridlines yfixed" stroke-dasharray="0.5,0.5" stroke-width="0.2" stroke="#D0D0E0" id="fig-bd187aa4d25a40f7923c23bf87e034ac-element-27">
      <path fill="none" d="M23.38,5 L 23.38 58.91" id="fig-bd187aa4d25a40f7923c23bf87e034ac-element-28"/>
      <path fill="none" d="M45.88,5 L 45.88 58.91" id="fig-bd187aa4d25a40f7923c23bf87e034ac-element-29"/>
      <path fill="none" d="M69.12,5 L 69.12 58.91" id="fig-bd187aa4d25a40f7923c23bf87e034ac-element-30"/>
      <path fill="none" d="M91.62,5 L 91.62 58.91" id="fig-bd187aa4d25a40f7923c23bf87e034ac-element-31"/>
      <path fill="none" d="M114.87,5 L 114.87 58.91" id="fig-bd187aa4d25a40f7923c23bf87e034ac-element-32"/>
      <path fill="none" d="M138.11,5 L 138.11 58.91" id="fig-bd187aa4d25a40f7923c23bf87e034ac-element-33"/>
      <path fill="none" d="M160.61,5 L 160.61 58.91" id="fig-bd187aa4d25a40f7923c23bf87e034ac-element-34"/>
    </g>
    <g class="plotpanel" id="fig-bd187aa4d25a40f7923c23bf87e034ac-element-35">
      <g stroke-width="0.79" fill="none" class="geometry color_0.4" stroke="#FF5EA0" id="fig-bd187aa4d25a40f7923c23bf87e034ac-element-36">
        <path fill="none" d="M123.86,28.46 L 124.61 27.71 125.36 27.47 126.11 27.22 126.86 27.22 127.61 27.22 129.11 26.47 129.86 26.47 130.61 26.22 131.36 26.22 132.11 26.22 132.86 25.47 133.61 24.97 134.36 24.97 135.86 24.47 136.61 23.72 138.11 23.22 138.86 23.22 139.61 23.22 142.61 23.22 144.86 21.72 145.61 21.48 146.36 21.23 147.11 20.73 147.86 20.73 148.61 20.73 149.36 18.73 150.11 18.73 150.86 18.73 152.36 18.48 153.11 18.48 153.86 18.23 154.61 18.23 155.36 18.23 156.11 17.98 156.86 17.98 158.36 18.23 159.11 17.98 159.86 17.98 160.61 17.48 161.36 16.98 162.11 16.98 162.86 16.98 163.61 16.48 165.86 15.98 166.61 15.98 167.36 15.49 168.11 15.24 168.86 15.24 169.61 15.24 170.36 14.74 171.11 14.74 171.86 14.49 172.61 14.24 173.36 14.24 174.11 14.24 174.86 14.24 175.61 13.74 176.36 13.24 177.11 13.24 177.86 13.24 178.61 12.99 179.35 12.99 180.1 12.74 180.85 12.74 181.6 12.24 182.35 11.99" id="fig-bd187aa4d25a40f7923c23bf87e034ac-element-37"/>
      </g>
      <g stroke-width="0.79" fill="none" class="geometry color_0.3" stroke="#D4CA3A" id="fig-bd187aa4d25a40f7923c23bf87e034ac-element-38">
        <path fill="none" d="M21.88,45.43 L 22.63 45.43 23.38 45.18 24.13 45.18 24.88 45.18 25.63 45.18 26.38 45.18 27.13 44.94 28.63 44.94 29.38 44.69 30.88 44.44 32.38 43.94 33.13 43.94 34.63 43.94 35.38 43.69 40.63 42.69 42.88 42.69 44.38 42.69 49.63 42.44 50.38 41.94 51.13 41.69 51.88 41.69 52.63 41.69 53.38 41.69 54.13 41.69 54.88 41.69 55.63 41.69 56.38 41.69 57.13 41.69 57.88 40.94 59.38 40.69 60.12 40.69 60.87 40.69 61.62 40.19 62.37 40.19 63.12 40.19 63.87 39.94 64.62 39.94 65.37 39.94 66.12 39.94 66.87 39.94 67.62 39.69 68.37 39.69 69.12 49.68 69.87 39.44 70.62 39.2 71.37 38.95 75.87 37.45 76.62 37.2 77.37 36.95 78.12 36.7 78.87 36.2 79.62 36.2 80.37 35.7 81.12 35.7 81.87 35.45 82.62 35.2 84.12 35.2 84.87 34.7 85.62 34.7 86.37 34.7 87.12 34.7 87.87 34.7 88.62 33.95 89.37 33.95 90.87 33.7 91.62 33.21 92.37 32.96 93.12 32.71 93.87 32.71 94.62 32.21 96.12 31.96 96.87 31.21 97.62 31.21 98.37 31.21 99.87 29.96 101.37 29.21 102.12 29.21 102.87 28.96 103.62 28.96 105.87 28.71 106.62 28.71 107.37 28.46 108.12 28.46 108.87 28.46 109.62 28.21 110.37 27.96 111.12 27.71 112.62 27.71 113.37 27.71 114.87 27.71 115.62 27.47 116.37 26.72 117.12 26.72 118.62 26.47 119.36 26.47 120.11 25.97 120.86 25.72 121.61 25.47 122.36 25.22 123.11 24.97 123.86 24.47 124.61 24.47 125.36 24.22 126.11 23.97 126.86 23.97 127.61 23.97 129.11 23.22 129.86 23.22 130.61 22.97 131.36 22.97 132.11 22.97 132.86 22.22 133.61 21.97 134.36 21.72 135.86 24.72 136.61 23.97 138.11 23.47 138.86 23.47 139.61 23.47 142.61 23.47 144.86 21.97 145.61 21.72 146.36 21.48 147.11 20.98 147.86 20.98 148.61 20.98 149.36 18.98 150.11 18.98 150.86 18.98 152.36 18.98 153.11 18.73 153.86 18.48 154.61 18.48 155.36 18.48 156.11 18.23 156.86 18.23 158.36 18.48 159.11 18.23 159.86 18.23 160.61 17.73 161.36 12.74 162.11 17.23 162.86 17.23 163.61 16.73 165.86 16.23 166.61 16.23 167.36 15.74 168.11 15.49 168.86 15.49 169.61 15.49 170.36 14.99 171.11 14.99 171.86 14.74 172.61 14.49 173.36 14.49 174.11 14.49 174.86 14.49 175.61 14.24 176.36 13.74 177.11 13.74 177.86 13.74 178.61 13.49 179.35 13.49 180.1 13.24 180.85 13.24 181.6 12.74 182.35 12.49" id="fig-bd187aa4d25a40f7923c23bf87e034ac-element-39"/>
      </g>
      <g stroke-width="0.79" fill="none" class="geometry color_0.2" stroke="#00BFFF" id="fig-bd187aa4d25a40f7923c23bf87e034ac-element-40">
        <path fill="none" d="M21.88,48.18 L 22.63 48.18 23.38 47.93 24.13 47.93 24.88 47.93 25.63 47.93 26.38 47.93 27.13 47.93 28.63 47.93 29.38 47.93 30.88 47.68 32.38 47.43 33.13 47.43 34.63 47.18 35.38 46.93 40.63 46.43 42.88 46.43 44.38 46.43 49.63 46.18 50.38 45.93 51.13 45.93 51.88 45.93 52.63 45.93 53.38 45.93 54.13 45.93 54.88 45.93 55.63 45.93 56.38 45.93 57.13 45.18 57.88 45.18 59.38 44.94 60.12 44.94 60.87 44.94 61.62 44.69 62.37 46.68 63.12 45.43 63.87 45.43 64.62 45.43 65.37 45.43 66.12 45.43 66.87 45.43 67.62 45.43 68.37 45.43 69.12 45.18 69.87 45.18 70.62 44.94 71.37 44.94 75.87 43.69 76.62 43.69 77.37 43.44 78.12 43.19 78.87 42.69 79.62 42.69 80.37 42.69 81.12 42.69 81.87 42.69 82.62 42.44 84.12 42.44 84.87 41.94 85.62 41.94 86.37 41.94 87.12 41.94 87.87 41.94 88.62 41.19 89.37 41.19 90.87 40.94 91.62 40.44 92.37 40.19 93.12 39.94 93.87 39.94 94.62 39.94 96.12 39.44 96.87 39.2 97.62 38.95 98.37 38.95 99.87 38.45 101.37 37.95 102.12 37.95 102.87 37.95 103.62 37.95 105.87 37.95 106.62 37.95 107.37 37.7 108.12 37.7 108.87 37.7 109.62 37.45 110.37 37.45 111.12 37.45 112.62 37.2 113.37 37.2 114.87 37.2 115.62 37.2 116.37 36.45 117.12 36.45 118.62 36.95 119.36 36.95 120.11 36.45 120.86 36.2 121.61 36.2 122.36 35.7 123.11 35.7" id="fig-bd187aa4d25a40f7923c23bf87e034ac-element-41"/>
      </g>
    </g>
  </g>
  <g class="guide ylabels" font-size="2.82" font-family="'PT Sans Caption','Helvetica Neue','Helvetica',sans-serif" fill="#6C606B" id="fig-bd187aa4d25a40f7923c23bf87e034ac-element-42">
    <text x="18.63" y="56.91" text-anchor="end" dy="0.35em" id="fig-bd187aa4d25a40f7923c23bf87e034ac-element-43">250</text>
    <text x="18.63" y="44.44" text-anchor="end" dy="0.35em" id="fig-bd187aa4d25a40f7923c23bf87e034ac-element-44">300</text>
    <text x="18.63" y="31.96" text-anchor="end" dy="0.35em" id="fig-bd187aa4d25a40f7923c23bf87e034ac-element-45">350</text>
    <text x="18.63" y="19.48" text-anchor="end" dy="0.35em" id="fig-bd187aa4d25a40f7923c23bf87e034ac-element-46">400</text>
    <text x="18.63" y="7" text-anchor="end" dy="0.35em" id="fig-bd187aa4d25a40f7923c23bf87e034ac-element-47">450</text>
  </g>
</g>
<defs>
<clipPath id="fig-bd187aa4d25a40f7923c23bf87e034ac-element-18">
  <path d="M19.63,5 L 183.85 5 183.85 58.91 19.63 58.91" />
</clipPath
></defs>
</svg>
