<?xml version="1.0" encoding="UTF-8"?>
<svg xmlns="http://www.w3.org/2000/svg"
     xmlns:xlink="http://www.w3.org/1999/xlink"
     xmlns:gadfly="http://www.gadflyjl.org/ns"
     version="1.2"
     width="203.2mm" height="76.2mm" viewBox="0 0 203.2 76.2"
     stroke="none"
     fill="#000000"
     stroke-width="0.3"
     font-size="3.88"
>
<g class="plotroot xscalable yscalable" id="fig-4486b579f87f4eb999e0ebe8fefd7c01-element-1">
  <g font-size="3.88" font-family="'PT Sans','Helvetica Neue','Helvetica',sans-serif" fill="#564A55" stroke="none" id="fig-4486b579f87f4eb999e0ebe8fefd7c01-element-2">
    <text x="101.74" y="68.2" text-anchor="middle">Date</text>
  </g>
  <g class="guide xlabels" font-size="2.82" font-family="'PT Sans Caption','Helvetica Neue','Helvetica',sans-serif" fill="#6C606B" id="fig-4486b579f87f4eb999e0ebe8fefd7c01-element-3">
    <text x="22.8" y="62.59" text-anchor="middle">Apr</text>
    <text x="41.82" y="62.59" text-anchor="middle">May</text>
    <text x="61.48" y="62.59" text-anchor="middle">June</text>
    <text x="80.5" y="62.59" text-anchor="middle">July</text>
    <text x="100.16" y="62.59" text-anchor="middle">Aug</text>
    <text x="119.81" y="62.59" text-anchor="middle">Sept</text>
    <text x="138.84" y="62.59" text-anchor="middle">Oct</text>
    <text x="158.49" y="62.59" text-anchor="middle">Nev</text>
    <text x="177.51" y="62.59" text-anchor="middle">Dec</text>
  </g>
  <g class="guide colorkey" id="fig-4486b579f87f4eb999e0ebe8fefd7c01-element-4">
    <g fill="#4C404B" font-size="2.82" font-family="'PT Sans','Helvetica Neue','Helvetica',sans-serif" id="fig-4486b579f87f4eb999e0ebe8fefd7c01-element-5">
      <text x="187.67" y="30.14" dy="0.35em" id="fig-4486b579f87f4eb999e0ebe8fefd7c01-element-6" class="color_0.2">0.2</text>
      <text x="187.67" y="33.77" dy="0.35em" id="fig-4486b579f87f4eb999e0ebe8fefd7c01-element-7" class="color_0.3">0.3</text>
      <text x="187.67" y="37.4" dy="0.35em" id="fig-4486b579f87f4eb999e0ebe8fefd7c01-element-8" class="color_0.4">0.4</text>
    </g>
    <g stroke="none" id="fig-4486b579f87f4eb999e0ebe8fefd7c01-element-9">
      <rect x="184.85" y="29.24" width="1.81" height="1.81" id="fig-4486b579f87f4eb999e0ebe8fefd7c01-element-10" fill="#00BFFF" class="color_0.2"/>
      <rect x="184.85" y="32.86" width="1.81" height="1.81" id="fig-4486b579f87f4eb999e0ebe8fefd7c01-element-11" fill="#D4CA3A" class="color_0.3"/>
      <rect x="184.85" y="36.49" width="1.81" height="1.81" id="fig-4486b579f87f4eb999e0ebe8fefd7c01-element-12" fill="#FF5EA0" class="color_0.4"/>
    </g>
    <g fill="#362A35" font-size="3.88" font-family="'PT Sans','Helvetica Neue','Helvetica',sans-serif" stroke="none" id="fig-4486b579f87f4eb999e0ebe8fefd7c01-element-13">
      <text x="184.85" y="26.32" id="fig-4486b579f87f4eb999e0ebe8fefd7c01-element-14">Julia ver.</text>
    </g>
  </g>
  <g font-size="3.88" font-family="'PT Sans','Helvetica Neue','Helvetica',sans-serif" fill="#564A55" stroke="none" id="fig-4486b579f87f4eb999e0ebe8fefd7c01-element-15">
    <text x="8.81" y="29.96" text-anchor="middle" dy="0.35em" transform="rotate(-90, 8.81, 31.96)" id="fig-4486b579f87f4eb999e0ebe8fefd7c01-element-16">Number of Tagged Packages</text>
  </g>
  <g clip-path="url(#fig-4486b579f87f4eb999e0ebe8fefd7c01-element-18)" id="fig-4486b579f87f4eb999e0ebe8fefd7c01-element-17">
    <g pointer-events="visible" opacity="1" fill="none" stroke="none" class="guide background" id="fig-4486b579f87f4eb999e0ebe8fefd7c01-element-19">
      <rect x="19.63" y="5" width="164.22" height="53.91" id="fig-4486b579f87f4eb999e0ebe8fefd7c01-element-20"/>
    </g>
    <g class="guide ygridlines xfixed" stroke-dasharray="0.5,0.5" stroke-width="0.2" stroke="#D0D0E0" id="fig-4486b579f87f4eb999e0ebe8fefd7c01-element-21">
      <path fill="none" d="M19.63,56.91 L 183.85 56.91" id="fig-4486b579f87f4eb999e0ebe8fefd7c01-element-22"/>
      <path fill="none" d="M19.63,44.44 L 183.85 44.44" id="fig-4486b579f87f4eb999e0ebe8fefd7c01-element-23"/>
      <path fill="none" d="M19.63,31.96 L 183.85 31.96" id="fig-4486b579f87f4eb999e0ebe8fefd7c01-element-24"/>
      <path fill="none" d="M19.63,19.48 L 183.85 19.48" id="fig-4486b579f87f4eb999e0ebe8fefd7c01-element-25"/>
      <path fill="none" d="M19.63,7 L 183.85 7" id="fig-4486b579f87f4eb999e0ebe8fefd7c01-element-26"/>
    </g>
    <g class="guide xgridlines yfixed" stroke-dasharray="0.5,0.5" stroke-width="0.2" stroke="#D0D0E0" id="fig-4486b579f87f4eb999e0ebe8fefd7c01-element-27">
      <path fill="none" d="M22.8,5 L 22.8 58.91" id="fig-4486b579f87f4eb999e0ebe8fefd7c01-element-28"/>
      <path fill="none" d="M41.82,5 L 41.82 58.91" id="fig-4486b579f87f4eb999e0ebe8fefd7c01-element-29"/>
      <path fill="none" d="M61.48,5 L 61.48 58.91" id="fig-4486b579f87f4eb999e0ebe8fefd7c01-element-30"/>
      <path fill="none" d="M80.5,5 L 80.5 58.91" id="fig-4486b579f87f4eb999e0ebe8fefd7c01-element-31"/>
      <path fill="none" d="M100.16,5 L 100.16 58.91" id="fig-4486b579f87f4eb999e0ebe8fefd7c01-element-32"/>
      <path fill="none" d="M119.81,5 L 119.81 58.91" id="fig-4486b579f87f4eb999e0ebe8fefd7c01-element-33"/>
      <path fill="none" d="M138.84,5 L 138.84 58.91" id="fig-4486b579f87f4eb999e0ebe8fefd7c01-element-34"/>
      <path fill="none" d="M158.49,5 L 158.49 58.91" id="fig-4486b579f87f4eb999e0ebe8fefd7c01-element-35"/>
      <path fill="none" d="M177.51,5 L 177.51 58.91" id="fig-4486b579f87f4eb999e0ebe8fefd7c01-element-36"/>
    </g>
    <g class="plotpanel" id="fig-4486b579f87f4eb999e0ebe8fefd7c01-element-37">
      <g stroke-width="0.79" fill="none" class="geometry color_0.4" stroke="#FF5EA0" id="fig-4486b579f87f4eb999e0ebe8fefd7c01-element-38">
        <path fill="none" d="M107.77,28.46 L 108.4 27.71 109.03 27.47 109.67 27.22 110.3 27.22 110.94 27.22 112.2 26.47 112.84 26.47 113.47 26.22 114.11 26.22 114.74 26.22 115.38 25.47 116.01 24.97 116.64 24.97 117.91 24.47 118.55 23.72 119.81 23.22 120.45 23.22 121.08 23.22 123.62 23.22 125.52 21.72 126.15 21.48 126.79 21.23 127.42 20.73 128.06 20.73 128.69 20.73 129.32 18.73 129.96 18.73 130.59 18.73 131.86 18.48 132.5 18.48 133.13 18.23 133.76 18.23 134.4 18.23 135.03 17.98 135.67 17.98 136.93 18.23 137.57 17.98 138.2 17.98 138.84 17.48 139.47 16.98 140.1 16.98 140.74 16.98 141.37 16.48 143.27 15.98 143.91 15.98 144.54 15.49 145.18 15.24 145.81 15.24 146.44 15.24 147.08 14.74 147.71 14.74 148.35 14.49 148.98 14.24 149.61 14.24 150.25 14.24 150.88 14.24 151.52 13.74 152.15 13.24 152.79 13.24 153.42 13.24 154.05 12.99 154.69 12.99 155.32 12.74 155.96 12.74 156.59 12.24 157.22 11.99 157.86 11.99 158.49 11.74 159.13 11.74 159.76 11.74 160.39 11.74 161.03 11.49 161.66 11.24 163.56 11.24 166.73 9.75 167.37 9.25 168 9.25 168.64 9 169.27 9 169.9 8.25 170.54 8.25 173.08 7 173.71 7 176.88 6.75 178.15 6.75 178.78 6.25 179.42 6 180.05 6 180.68 6 181.32 5.5 181.95 5" id="fig-4486b579f87f4eb999e0ebe8fefd7c01-element-39"/>
      </g>
      <g stroke-width="0.79" fill="none" class="geometry color_0.3" stroke="#D4CA3A" id="fig-4486b579f87f4eb999e0ebe8fefd7c01-element-40">
        <path fill="none" d="M21.53,45.43 L 22.17 45.43 22.8 45.18 23.44 45.18 24.07 45.18 24.7 45.18 25.34 45.18 25.97 44.94 27.24 44.94 27.87 44.69 29.14 44.44 30.41 43.94 31.04 43.94 32.31 43.94 32.95 43.69 37.39 42.69 39.29 42.69 40.56 42.69 44.99 42.44 45.63 41.94 46.26 41.69 46.9 41.69 47.53 41.69 48.16 41.69 48.8 41.69 49.43 41.69 50.07 41.69 50.7 41.69 51.33 41.69 51.97 40.94 53.24 40.69 53.87 40.69 54.51 40.69 55.14 40.19 55.77 40.19 56.41 40.19 57.04 39.94 57.68 39.94 58.31 39.94 58.94 39.94 59.58 39.94 60.21 39.69 60.85 39.69 61.48 49.68 62.11 39.44 62.75 39.2 63.38 38.95 67.19 37.45 67.82 37.2 68.45 36.95 69.09 36.7 69.72 36.2 70.36 36.2 70.99 35.7 71.62 35.7 72.26 35.45 72.89 35.2 74.16 35.2 74.8 34.7 75.43 34.7 76.06 34.7 76.7 34.7 77.33 34.7 77.97 33.95 78.6 33.95 79.87 33.7 80.5 33.21 81.14 32.96 81.77 32.71 82.4 32.71 83.04 32.21 84.31 31.96 84.94 31.21 85.57 31.21 86.21 31.21 87.48 29.96 88.74 29.21 89.38 29.21 90.01 28.96 90.65 28.96 92.55 28.71 93.18 28.71 93.82 28.46 94.45 28.46 95.09 28.46 95.72 28.21 96.35 27.96 96.99 27.71 98.26 27.71 98.89 27.71 100.16 27.71 100.79 27.47 101.43 26.72 102.06 26.72 103.33 26.47 103.96 26.47 104.6 25.97 105.23 25.72 105.86 25.47 106.5 25.22 107.13 24.97 107.77 24.47 108.4 24.47 109.03 24.22 109.67 23.97 110.3 23.97 110.94 23.97 112.2 23.22 112.84 23.22 113.47 22.97 114.11 22.97 114.74 22.97 115.38 22.22 116.01 21.97 116.64 21.72 117.91 24.72 118.55 23.97 119.81 23.47 120.45 23.47 121.08 23.47 123.62 23.47 125.52 21.97 126.15 21.72 126.79 21.48 127.42 20.98 128.06 20.98 128.69 20.98 129.32 18.98 129.96 18.98 130.59 18.98 131.86 18.98 132.5 18.73 133.13 18.48 133.76 18.48 134.4 18.48 135.03 18.23 135.67 18.23 136.93 18.48 137.57 18.23 138.2 18.23 138.84 17.73 139.47 12.74 140.1 17.23 140.74 17.23 141.37 16.73 143.27 16.23 143.91 16.23 144.54 15.74 145.18 15.49 145.81 15.49 146.44 15.49 147.08 14.99 147.71 14.99 148.35 14.74 148.98 14.49 149.61 14.49 150.25 14.49 150.88 14.49 151.52 14.24 152.15 13.74 152.79 13.74 153.42 13.74 154.05 13.49 154.69 13.49 155.32 13.24 155.96 13.24 156.59 12.74 157.22 12.49 157.86 12.49 158.49 12.24 159.13 12.24 159.76 12.24 160.39 11.99 161.03 11.99 161.66 11.74 163.56 11.74 166.73 10.49 167.37 9.99 168 9.99 168.64 9.75 169.27 9.75 169.9 9 170.54 9 173.08 7.75 173.71 7.75 176.88 7.5 178.15 7.5 178.78 7.25 179.42 7 180.05 7 180.68 7 181.32 6.5 181.95 6.25" id="fig-4486b579f87f4eb999e0ebe8fefd7c01-element-41"/>
      </g>
      <g stroke-width="0.79" fill="none" class="geometry color_0.2" stroke="#00BFFF" id="fig-4486b579f87f4eb999e0ebe8fefd7c01-element-42">
        <path fill="none" d="M21.53,48.18 L 22.17 48.18 22.8 47.93 23.44 47.93 24.07 47.93 24.7 47.93 25.34 47.93 25.97 47.93 27.24 47.93 27.87 47.93 29.14 47.68 30.41 47.43 31.04 47.43 32.31 47.18 32.95 46.93 37.39 46.43 39.29 46.43 40.56 46.43 44.99 46.18 45.63 45.93 46.26 45.93 46.9 45.93 47.53 45.93 48.16 45.93 48.8 45.93 49.43 45.93 50.07 45.93 50.7 45.93 51.33 45.18 51.97 45.18 53.24 44.94 53.87 44.94 54.51 44.94 55.14 44.69 55.77 46.68 56.41 45.43 57.04 45.43 57.68 45.43 58.31 45.43 58.94 45.43 59.58 45.43 60.21 45.43 60.85 45.43 61.48 45.18 62.11 45.18 62.75 44.94 63.38 44.94 67.19 43.69 67.82 43.69 68.45 43.44 69.09 43.19 69.72 42.69 70.36 42.69 70.99 42.69 71.62 42.69 72.26 42.69 72.89 42.44 74.16 42.44 74.8 41.94 75.43 41.94 76.06 41.94 76.7 41.94 77.33 41.94 77.97 41.19 78.6 41.19 79.87 40.94 80.5 40.44 81.14 40.19 81.77 39.94 82.4 39.94 83.04 39.94 84.31 39.44 84.94 39.2 85.57 38.95 86.21 38.95 87.48 38.45 88.74 37.95 89.38 37.95 90.01 37.95 90.65 37.95 92.55 37.95 93.18 37.95 93.82 37.7 94.45 37.7 95.09 37.7 95.72 37.45 96.35 37.45 96.99 37.45 98.26 37.2 98.89 37.2 100.16 37.2 100.79 37.2 101.43 36.45 102.06 36.45 103.33 36.95 103.96 36.95 104.6 36.45 105.23 36.2 105.86 36.2 106.5 35.7 107.13 35.7" id="fig-4486b579f87f4eb999e0ebe8fefd7c01-element-43"/>
      </g>
    </g>
  </g>
  <g class="guide ylabels" font-size="2.82" font-family="'PT Sans Caption','Helvetica Neue','Helvetica',sans-serif" fill="#6C606B" id="fig-4486b579f87f4eb999e0ebe8fefd7c01-element-44">
    <text x="18.63" y="56.91" text-anchor="end" dy="0.35em" id="fig-4486b579f87f4eb999e0ebe8fefd7c01-element-45">250</text>
    <text x="18.63" y="44.44" text-anchor="end" dy="0.35em" id="fig-4486b579f87f4eb999e0ebe8fefd7c01-element-46">300</text>
    <text x="18.63" y="31.96" text-anchor="end" dy="0.35em" id="fig-4486b579f87f4eb999e0ebe8fefd7c01-element-47">350</text>
    <text x="18.63" y="19.48" text-anchor="end" dy="0.35em" id="fig-4486b579f87f4eb999e0ebe8fefd7c01-element-48">400</text>
    <text x="18.63" y="7" text-anchor="end" dy="0.35em" id="fig-4486b579f87f4eb999e0ebe8fefd7c01-element-49">450</text>
  </g>
</g>
<defs>
<clipPath id="fig-4486b579f87f4eb999e0ebe8fefd7c01-element-18">
  <path d="M19.63,5 L 183.85 5 183.85 58.91 19.63 58.91" />
</clipPath
></defs>
</svg>
