<?xml version="1.0" encoding="UTF-8"?>
<svg xmlns="http://www.w3.org/2000/svg"
     xmlns:xlink="http://www.w3.org/1999/xlink"
     xmlns:gadfly="http://www.gadflyjl.org/ns"
     version="1.2"
     width="203.2mm" height="76.2mm" viewBox="0 0 203.2 76.2"
     stroke="none"
     fill="#000000"
     stroke-width="0.3"
     font-size="3.88"
>
<g class="plotroot xscalable yscalable" id="fig-f8c578d342f547d2aadd9a14649243ab-element-1">
  <g font-size="3.88" font-family="'PT Sans','Helvetica Neue','Helvetica',sans-serif" fill="#564A55" stroke="none" id="fig-f8c578d342f547d2aadd9a14649243ab-element-2">
    <text x="101.74" y="68.2" text-anchor="middle">Date</text>
  </g>
  <g class="guide xlabels" font-size="2.82" font-family="'PT Sans Caption','Helvetica Neue','Helvetica',sans-serif" fill="#6C606B" id="fig-f8c578d342f547d2aadd9a14649243ab-element-3">
    <text x="22.84" y="62.59" text-anchor="middle">Apr</text>
    <text x="46.87" y="62.59" text-anchor="middle">May</text>
    <text x="71.7" y="62.59" text-anchor="middle">June</text>
    <text x="95.73" y="62.59" text-anchor="middle">July</text>
    <text x="120.57" y="62.59" text-anchor="middle">Aug</text>
    <text x="145.4" y="62.59" text-anchor="middle">Sept</text>
    <text x="169.43" y="62.59" text-anchor="middle">Oct</text>
  </g>
  <g class="guide colorkey" id="fig-f8c578d342f547d2aadd9a14649243ab-element-4">
    <g fill="#4C404B" font-size="2.82" font-family="'PT Sans','Helvetica Neue','Helvetica',sans-serif" id="fig-f8c578d342f547d2aadd9a14649243ab-element-5">
      <text x="187.67" y="30.14" dy="0.35em" id="fig-f8c578d342f547d2aadd9a14649243ab-element-6" class="color_0.2">0.2</text>
      <text x="187.67" y="33.77" dy="0.35em" id="fig-f8c578d342f547d2aadd9a14649243ab-element-7" class="color_0.3">0.3</text>
      <text x="187.67" y="37.4" dy="0.35em" id="fig-f8c578d342f547d2aadd9a14649243ab-element-8" class="color_0.4">0.4</text>
    </g>
    <g stroke="none" id="fig-f8c578d342f547d2aadd9a14649243ab-element-9">
      <rect x="184.85" y="29.24" width="1.81" height="1.81" id="fig-f8c578d342f547d2aadd9a14649243ab-element-10" fill="#00BFFF" class="color_0.2"/>
      <rect x="184.85" y="32.86" width="1.81" height="1.81" id="fig-f8c578d342f547d2aadd9a14649243ab-element-11" fill="#D4CA3A" class="color_0.3"/>
      <rect x="184.85" y="36.49" width="1.81" height="1.81" id="fig-f8c578d342f547d2aadd9a14649243ab-element-12" fill="#FF5EA0" class="color_0.4"/>
    </g>
    <g fill="#362A35" font-size="3.88" font-family="'PT Sans','Helvetica Neue','Helvetica',sans-serif" stroke="none" id="fig-f8c578d342f547d2aadd9a14649243ab-element-13">
      <text x="184.85" y="26.32" id="fig-f8c578d342f547d2aadd9a14649243ab-element-14">Julia ver.</text>
    </g>
  </g>
  <g font-size="3.88" font-family="'PT Sans','Helvetica Neue','Helvetica',sans-serif" fill="#564A55" stroke="none" id="fig-f8c578d342f547d2aadd9a14649243ab-element-15">
    <text x="8.81" y="29.96" text-anchor="middle" dy="0.35em" transform="rotate(-90, 8.81, 31.96)" id="fig-f8c578d342f547d2aadd9a14649243ab-element-16">Number of Tagged Packages</text>
  </g>
  <g clip-path="url(#fig-f8c578d342f547d2aadd9a14649243ab-element-18)" id="fig-f8c578d342f547d2aadd9a14649243ab-element-17">
    <g pointer-events="visible" opacity="1" fill="none" stroke="none" class="guide background" id="fig-f8c578d342f547d2aadd9a14649243ab-element-19">
      <rect x="19.63" y="5" width="164.22" height="53.91" id="fig-f8c578d342f547d2aadd9a14649243ab-element-20"/>
    </g>
    <g class="guide ygridlines xfixed" stroke-dasharray="0.5,0.5" stroke-width="0.2" stroke="#D0D0E0" id="fig-f8c578d342f547d2aadd9a14649243ab-element-21">
      <path fill="none" d="M19.63,56.91 L 183.85 56.91" id="fig-f8c578d342f547d2aadd9a14649243ab-element-22"/>
      <path fill="none" d="M19.63,44.44 L 183.85 44.44" id="fig-f8c578d342f547d2aadd9a14649243ab-element-23"/>
      <path fill="none" d="M19.63,31.96 L 183.85 31.96" id="fig-f8c578d342f547d2aadd9a14649243ab-element-24"/>
      <path fill="none" d="M19.63,19.48 L 183.85 19.48" id="fig-f8c578d342f547d2aadd9a14649243ab-element-25"/>
      <path fill="none" d="M19.63,7 L 183.85 7" id="fig-f8c578d342f547d2aadd9a14649243ab-element-26"/>
    </g>
    <g class="guide xgridlines yfixed" stroke-dasharray="0.5,0.5" stroke-width="0.2" stroke="#D0D0E0" id="fig-f8c578d342f547d2aadd9a14649243ab-element-27">
      <path fill="none" d="M22.84,5 L 22.84 58.91" id="fig-f8c578d342f547d2aadd9a14649243ab-element-28"/>
      <path fill="none" d="M46.87,5 L 46.87 58.91" id="fig-f8c578d342f547d2aadd9a14649243ab-element-29"/>
      <path fill="none" d="M71.7,5 L 71.7 58.91" id="fig-f8c578d342f547d2aadd9a14649243ab-element-30"/>
      <path fill="none" d="M95.73,5 L 95.73 58.91" id="fig-f8c578d342f547d2aadd9a14649243ab-element-31"/>
      <path fill="none" d="M120.57,5 L 120.57 58.91" id="fig-f8c578d342f547d2aadd9a14649243ab-element-32"/>
      <path fill="none" d="M145.4,5 L 145.4 58.91" id="fig-f8c578d342f547d2aadd9a14649243ab-element-33"/>
      <path fill="none" d="M169.43,5 L 169.43 58.91" id="fig-f8c578d342f547d2aadd9a14649243ab-element-34"/>
    </g>
    <g class="plotpanel" id="fig-f8c578d342f547d2aadd9a14649243ab-element-35">
      <g stroke-width="0.79" fill="none" class="geometry color_0.4" stroke="#FF5EA0" id="fig-f8c578d342f547d2aadd9a14649243ab-element-36">
        <path fill="none" d="M130.18,28.46 L 130.98 27.71 131.78 27.47 132.58 27.22 133.39 27.22 134.19 27.22 135.79 26.47 136.59 26.47 137.39 26.22 138.19 26.22 138.99 26.22 139.79 25.47 140.6 24.97 141.4 24.97 143 24.47 143.8 23.72 145.4 23.22 146.2 23.22 147 23.22 150.21 23.22 152.61 21.72 153.41 21.48 154.21 21.23 155.02 20.73 155.82 20.73 156.62 20.73 157.42 18.73 158.22 18.73 159.02 18.73 160.62 18.48 161.42 18.48 162.22 18.23 163.03 18.23 163.83 18.23 164.63 17.98 165.43 17.98 167.03 18.23 167.83 17.98 168.63 17.98 169.43 17.48 170.24 16.98 171.04 16.98 171.84 16.98 172.64 16.48 175.04 15.98 175.84 15.98 176.64 15.49 177.45 15.24 178.25 15.24 179.05 15.24 179.85 14.74 180.65 14.74 181.45 14.49" id="fig-f8c578d342f547d2aadd9a14649243ab-element-37"/>
      </g>
      <g stroke-width="0.79" fill="none" class="geometry color_0.3" stroke="#D4CA3A" id="fig-f8c578d342f547d2aadd9a14649243ab-element-38">
        <path fill="none" d="M21.23,45.43 L 22.03 45.43 22.84 45.18 23.64 45.18 24.44 45.18 25.24 45.18 26.04 45.18 26.84 44.94 28.44 44.94 29.24 44.69 30.85 44.44 32.45 43.94 33.25 43.94 34.85 43.94 35.65 43.69 41.26 42.69 43.66 42.69 45.27 42.69 50.87 42.44 51.68 41.94 52.48 41.69 53.28 41.69 54.08 41.69 54.88 41.69 55.68 41.69 56.48 41.69 57.28 41.69 58.08 41.69 58.88 41.69 59.69 40.94 61.29 40.69 62.09 40.69 62.89 40.69 63.69 40.19 64.49 40.19 65.29 40.19 66.09 39.94 66.9 39.94 67.7 39.94 68.5 39.94 69.3 39.94 70.1 39.69 70.9 39.69 71.7 49.68 72.5 39.44 73.3 39.2 74.11 38.95 78.91 37.45 79.71 37.2 80.51 36.95 81.32 36.7 82.12 36.2 82.92 36.2 83.72 35.7 84.52 35.7 85.32 35.45 86.12 35.2 87.72 35.2 88.53 34.7 89.33 34.7 90.13 34.7 90.93 34.7 91.73 34.7 92.53 33.95 93.33 33.95 94.93 33.7 95.73 33.21 96.54 32.96 97.34 32.71 98.14 32.71 98.94 32.21 100.54 31.96 101.34 31.21 102.14 31.21 102.94 31.21 104.55 29.96 106.15 29.21 106.95 29.21 107.75 28.96 108.55 28.96 110.96 28.71 111.76 28.71 112.56 28.46 113.36 28.46 114.16 28.46 114.96 28.21 115.76 27.96 116.56 27.71 118.17 27.71 118.97 27.71 120.57 27.71 121.37 27.47 122.17 26.72 122.97 26.72 124.57 26.47 125.37 26.47 126.18 25.97 126.98 25.72 127.78 25.47 128.58 25.22 129.38 24.97 130.18 24.47 130.98 24.47 131.78 24.22 132.58 23.97 133.39 23.97 134.19 23.97 135.79 23.22 136.59 23.22 137.39 22.97 138.19 22.97 138.99 22.97 139.79 22.22 140.6 21.97 141.4 21.72 143 24.72 143.8 23.97 145.4 23.47 146.2 23.47 147 23.47 150.21 23.47 152.61 21.97 153.41 21.72 154.21 21.48 155.02 20.98 155.82 20.98 156.62 20.98 157.42 18.98 158.22 18.98 159.02 18.98 160.62 18.98 161.42 18.73 162.22 18.48 163.03 18.48 163.83 18.48 164.63 18.23 165.43 18.23 167.03 18.48 167.83 18.23 168.63 18.23 169.43 17.73 170.24 12.74 171.04 17.23 171.84 17.23 172.64 16.73 175.04 16.23 175.84 16.23 176.64 15.74 177.45 15.49 178.25 15.49 179.05 15.49 179.85 14.99 180.65 14.99 181.45 14.74" id="fig-f8c578d342f547d2aadd9a14649243ab-element-39"/>
      </g>
      <g stroke-width="0.79" fill="none" class="geometry color_0.2" stroke="#00BFFF" id="fig-f8c578d342f547d2aadd9a14649243ab-element-40">
        <path fill="none" d="M21.23,48.18 L 22.03 48.18 22.84 47.93 23.64 47.93 24.44 47.93 25.24 47.93 26.04 47.93 26.84 47.93 28.44 47.93 29.24 47.93 30.85 47.68 32.45 47.43 33.25 47.43 34.85 47.18 35.65 46.93 41.26 46.43 43.66 46.43 45.27 46.43 50.87 46.18 51.68 45.93 52.48 45.93 53.28 45.93 54.08 45.93 54.88 45.93 55.68 45.93 56.48 45.93 57.28 45.93 58.08 45.93 58.88 45.18 59.69 45.18 61.29 44.94 62.09 44.94 62.89 44.94 63.69 44.69 64.49 46.68 65.29 45.43 66.09 45.43 66.9 45.43 67.7 45.43 68.5 45.43 69.3 45.43 70.1 45.43 70.9 45.43 71.7 45.18 72.5 45.18 73.3 44.94 74.11 44.94 78.91 43.69 79.71 43.69 80.51 43.44 81.32 43.19 82.12 42.69 82.92 42.69 83.72 42.69 84.52 42.69 85.32 42.69 86.12 42.44 87.72 42.44 88.53 41.94 89.33 41.94 90.13 41.94 90.93 41.94 91.73 41.94 92.53 41.19 93.33 41.19 94.93 40.94 95.73 40.44 96.54 40.19 97.34 39.94 98.14 39.94 98.94 39.94 100.54 39.44 101.34 39.2 102.14 38.95 102.94 38.95 104.55 38.45 106.15 37.95 106.95 37.95 107.75 37.95 108.55 37.95 110.96 37.95 111.76 37.95 112.56 37.7 113.36 37.7 114.16 37.7 114.96 37.45 115.76 37.45 116.56 37.45 118.17 37.2 118.97 37.2 120.57 37.2 121.37 37.2 122.17 36.45 122.97 36.45 124.57 36.95 125.37 36.95 126.18 36.45 126.98 36.2 127.78 36.2 128.58 35.7 129.38 35.7" id="fig-f8c578d342f547d2aadd9a14649243ab-element-41"/>
      </g>
    </g>
  </g>
  <g class="guide ylabels" font-size="2.82" font-family="'PT Sans Caption','Helvetica Neue','Helvetica',sans-serif" fill="#6C606B" id="fig-f8c578d342f547d2aadd9a14649243ab-element-42">
    <text x="18.63" y="56.91" text-anchor="end" dy="0.35em" id="fig-f8c578d342f547d2aadd9a14649243ab-element-43">250</text>
    <text x="18.63" y="44.44" text-anchor="end" dy="0.35em" id="fig-f8c578d342f547d2aadd9a14649243ab-element-44">300</text>
    <text x="18.63" y="31.96" text-anchor="end" dy="0.35em" id="fig-f8c578d342f547d2aadd9a14649243ab-element-45">350</text>
    <text x="18.63" y="19.48" text-anchor="end" dy="0.35em" id="fig-f8c578d342f547d2aadd9a14649243ab-element-46">400</text>
    <text x="18.63" y="7" text-anchor="end" dy="0.35em" id="fig-f8c578d342f547d2aadd9a14649243ab-element-47">450</text>
  </g>
</g>
<defs>
<clipPath id="fig-f8c578d342f547d2aadd9a14649243ab-element-18">
  <path d="M19.63,5 L 183.85 5 183.85 58.91 19.63 58.91" />
</clipPath
></defs>
</svg>
