<?xml version="1.0" encoding="UTF-8"?>
<svg xmlns="http://www.w3.org/2000/svg"
     xmlns:xlink="http://www.w3.org/1999/xlink"
     xmlns:gadfly="http://www.gadflyjl.org/ns"
     version="1.2"
     width="203.2mm" height="76.2mm" viewBox="0 0 203.2 76.2"
     stroke="none"
     fill="#000000"
     stroke-width="0.3"
     font-size="3.88"
>
<g class="plotroot xscalable yscalable" id="fig-86b469f68b6149caafa09f1f379a584e-element-1">
  <g font-size="3.88" font-family="'PT Sans','Helvetica Neue','Helvetica',sans-serif" fill="#564A55" stroke="#000000" stroke-opacity="0.000" id="fig-86b469f68b6149caafa09f1f379a584e-element-2">
    <text x="101.74" y="64.59" text-anchor="middle" dy="0.6em">Date</text>
  </g>
  <g class="guide xlabels" font-size="2.82" font-family="'PT Sans Caption','Helvetica Neue','Helvetica',sans-serif" fill="#6C606B" id="fig-86b469f68b6149caafa09f1f379a584e-element-3">
    <text x="22.24" y="57.91" text-anchor="middle" dy="0.6em">Apr</text>
    <text x="31.31" y="57.91" text-anchor="middle" dy="0.6em">May</text>
    <text x="40.68" y="57.91" text-anchor="middle" dy="0.6em">Jun</text>
    <text x="49.75" y="57.91" text-anchor="middle" dy="0.6em">Jul</text>
    <text x="59.12" y="57.91" text-anchor="middle" dy="0.6em">Aug</text>
    <text x="68.49" y="57.91" text-anchor="middle" dy="0.6em">Sep</text>
    <text x="77.56" y="57.91" text-anchor="middle" dy="0.6em">Oct</text>
    <text x="86.93" y="57.91" text-anchor="middle" dy="0.6em">Nov</text>
    <text x="96" y="57.91" text-anchor="middle" dy="0.6em">Dec</text>
    <text x="105.37" y="57.91" text-anchor="middle" dy="0.6em">Jan 2015</text>
    <text x="114.74" y="57.91" text-anchor="middle" dy="0.6em">Feb</text>
    <text x="123.21" y="57.91" text-anchor="middle" dy="0.6em">Mar</text>
    <text x="132.58" y="57.91" text-anchor="middle" dy="0.6em">Apr</text>
    <text x="141.65" y="57.91" text-anchor="middle" dy="0.6em">May</text>
    <text x="151.02" y="57.91" text-anchor="middle" dy="0.6em">Jun</text>
    <text x="160.09" y="57.91" text-anchor="middle" dy="0.6em">Jul</text>
    <text x="169.46" y="57.91" text-anchor="middle" dy="0.6em">Aug</text>
    <text x="178.83" y="57.91" text-anchor="middle" dy="0.6em">Sep</text>
  </g>
  <g class="guide colorkey" id="fig-86b469f68b6149caafa09f1f379a584e-element-4">
    <g fill="#4C404B" font-size="2.82" font-family="'PT Sans','Helvetica Neue','Helvetica',sans-serif" id="fig-86b469f68b6149caafa09f1f379a584e-element-5">
      <text x="187.67" y="29.14" dy="0.35em" id="fig-86b469f68b6149caafa09f1f379a584e-element-6" class="color_0.2">0.2</text>
      <text x="187.67" y="32.77" dy="0.35em" id="fig-86b469f68b6149caafa09f1f379a584e-element-7" class="color_0.3">0.3</text>
      <text x="187.67" y="36.4" dy="0.35em" id="fig-86b469f68b6149caafa09f1f379a584e-element-8" class="color_0.4">0.4</text>
    </g>
    <g stroke="#000000" stroke-opacity="0.000" id="fig-86b469f68b6149caafa09f1f379a584e-element-9">
      <rect x="184.85" y="28.24" width="1.81" height="1.81" id="fig-86b469f68b6149caafa09f1f379a584e-element-10" fill="#00BFFF" class="color_0.2"/>
      <rect x="184.85" y="31.86" width="1.81" height="1.81" id="fig-86b469f68b6149caafa09f1f379a584e-element-11" fill="#D4CA3A" class="color_0.3"/>
      <rect x="184.85" y="35.49" width="1.81" height="1.81" id="fig-86b469f68b6149caafa09f1f379a584e-element-12" fill="#FF5EA0" class="color_0.4"/>
    </g>
    <g fill="#362A35" font-size="3.88" font-family="'PT Sans','Helvetica Neue','Helvetica',sans-serif" stroke="#000000" stroke-opacity="0.000" id="fig-86b469f68b6149caafa09f1f379a584e-element-13">
      <text x="184.85" y="25.32" id="fig-86b469f68b6149caafa09f1f379a584e-element-14">Julia ver.</text>
    </g>
  </g>
  <g clip-path="url(#fig-86b469f68b6149caafa09f1f379a584e-element-16)" id="fig-86b469f68b6149caafa09f1f379a584e-element-15">
    <g pointer-events="visible" opacity="1" fill="#000000" fill-opacity="0.000" stroke="#000000" stroke-opacity="0.000" class="guide background" id="fig-86b469f68b6149caafa09f1f379a584e-element-17">
      <rect x="19.63" y="5" width="164.22" height="51.91" id="fig-86b469f68b6149caafa09f1f379a584e-element-18"/>
    </g>
    <g class="guide ygridlines xfixed" stroke-dasharray="0.5,0.5" stroke-width="0.2" stroke="#D0D0E0" id="fig-86b469f68b6149caafa09f1f379a584e-element-19">
      <path fill="none" d="M19.63,54.91 L 183.85 54.91" id="fig-86b469f68b6149caafa09f1f379a584e-element-20"/>
      <path fill="none" d="M19.63,45.33 L 183.85 45.33" id="fig-86b469f68b6149caafa09f1f379a584e-element-21"/>
      <path fill="none" d="M19.63,35.75 L 183.85 35.75" id="fig-86b469f68b6149caafa09f1f379a584e-element-22"/>
      <path fill="none" d="M19.63,26.17 L 183.85 26.17" id="fig-86b469f68b6149caafa09f1f379a584e-element-23"/>
      <path fill="none" d="M19.63,16.58 L 183.85 16.58" id="fig-86b469f68b6149caafa09f1f379a584e-element-24"/>
      <path fill="none" d="M19.63,7 L 183.85 7" id="fig-86b469f68b6149caafa09f1f379a584e-element-25"/>
    </g>
    <g class="guide xgridlines yfixed" stroke-dasharray="0.5,0.5" stroke-width="0.2" stroke="#D0D0E0" id="fig-86b469f68b6149caafa09f1f379a584e-element-26">
      <path fill="none" d="M22.24,5 L 22.24 56.91" id="fig-86b469f68b6149caafa09f1f379a584e-element-27"/>
      <path fill="none" d="M31.31,5 L 31.31 56.91" id="fig-86b469f68b6149caafa09f1f379a584e-element-28"/>
      <path fill="none" d="M40.68,5 L 40.68 56.91" id="fig-86b469f68b6149caafa09f1f379a584e-element-29"/>
      <path fill="none" d="M49.75,5 L 49.75 56.91" id="fig-86b469f68b6149caafa09f1f379a584e-element-30"/>
      <path fill="none" d="M59.12,5 L 59.12 56.91" id="fig-86b469f68b6149caafa09f1f379a584e-element-31"/>
      <path fill="none" d="M68.49,5 L 68.49 56.91" id="fig-86b469f68b6149caafa09f1f379a584e-element-32"/>
      <path fill="none" d="M77.56,5 L 77.56 56.91" id="fig-86b469f68b6149caafa09f1f379a584e-element-33"/>
      <path fill="none" d="M86.93,5 L 86.93 56.91" id="fig-86b469f68b6149caafa09f1f379a584e-element-34"/>
      <path fill="none" d="M96,5 L 96 56.91" id="fig-86b469f68b6149caafa09f1f379a584e-element-35"/>
      <path fill="none" d="M105.37,5 L 105.37 56.91" id="fig-86b469f68b6149caafa09f1f379a584e-element-36"/>
      <path fill="none" d="M114.74,5 L 114.74 56.91" id="fig-86b469f68b6149caafa09f1f379a584e-element-37"/>
      <path fill="none" d="M123.21,5 L 123.21 56.91" id="fig-86b469f68b6149caafa09f1f379a584e-element-38"/>
      <path fill="none" d="M132.58,5 L 132.58 56.91" id="fig-86b469f68b6149caafa09f1f379a584e-element-39"/>
      <path fill="none" d="M141.65,5 L 141.65 56.91" id="fig-86b469f68b6149caafa09f1f379a584e-element-40"/>
      <path fill="none" d="M151.02,5 L 151.02 56.91" id="fig-86b469f68b6149caafa09f1f379a584e-element-41"/>
      <path fill="none" d="M160.09,5 L 160.09 56.91" id="fig-86b469f68b6149caafa09f1f379a584e-element-42"/>
      <path fill="none" d="M169.46,5 L 169.46 56.91" id="fig-86b469f68b6149caafa09f1f379a584e-element-43"/>
      <path fill="none" d="M178.83,5 L 178.83 56.91" id="fig-86b469f68b6149caafa09f1f379a584e-element-44"/>
    </g>
    <g class="plotpanel" id="fig-86b469f68b6149caafa09f1f379a584e-element-45">
      <g class="geometry" stroke="#000000" stroke-opacity="0.000" fill="#4C404B" font-size="2.82" font-family="'PT Sans Caption','Helvetica Neue','Helvetica',sans-serif" id="fig-86b469f68b6149caafa09f1f379a584e-element-46">
        <text x="69.8" y="52.46" text-anchor="middle" dy="0.35em" id="fig-86b469f68b6149caafa09f1f379a584e-element-47" visibility="visible">v0.3.0</text>
        <text x="79.48" y="52.46" text-anchor="middle" dy="0.35em" id="fig-86b469f68b6149caafa09f1f379a584e-element-48" visibility="visible">v0.3.1</text>
        <text x="88.54" y="52.46" text-anchor="middle" dy="0.35em" id="fig-86b469f68b6149caafa09f1f379a584e-element-49" visibility="visible">v0.3.2</text>
        <text x="98.52" y="52.46" text-anchor="middle" dy="0.35em" id="fig-86b469f68b6149caafa09f1f379a584e-element-50" visibility="visible">v0.3.3</text>
        <text x="104.56" y="52.46" text-anchor="middle" dy="0.35em" id="fig-86b469f68b6149caafa09f1f379a584e-element-51" visibility="visible"></text>
        <text x="112.43" y="52.46" text-anchor="middle" dy="0.35em" id="fig-86b469f68b6149caafa09f1f379a584e-element-52" visibility="visible">v0.3.5</text>
        <text x="124.52" y="52.46" text-anchor="middle" dy="0.35em" id="fig-86b469f68b6149caafa09f1f379a584e-element-53" visibility="visible">v0.3.6</text>
        <text x="134.8" y="52.46" text-anchor="middle" dy="0.35em" id="fig-86b469f68b6149caafa09f1f379a584e-element-54" visibility="visible">v0.3.7</text>
        <text x="146.29" y="52.46" text-anchor="middle" dy="0.35em" id="fig-86b469f68b6149caafa09f1f379a584e-element-55" visibility="visible">v0.3.8</text>
        <text x="155.35" y="52.46" text-anchor="middle" dy="0.35em" id="fig-86b469f68b6149caafa09f1f379a584e-element-56" visibility="visible">v0.3.9</text>
        <text x="155.35" y="52.46" text-anchor="middle" dy="0.35em" id="fig-86b469f68b6149caafa09f1f379a584e-element-57" visibility="visible">v0.3.9</text>
        <text x="163.75" y="52.46" text-anchor="middle" dy="0.35em" id="fig-86b469f68b6149caafa09f1f379a584e-element-58" visibility="visible">v0.3.10</text>
        <text x="173.72" y="52.46" text-anchor="middle" dy="0.35em" id="fig-86b469f68b6149caafa09f1f379a584e-element-59" visibility="visible">v0.3.11</text>
      </g>
      <g class="yfixed" stroke-width="0.26" stroke="#333333" id="fig-86b469f68b6149caafa09f1f379a584e-element-60">
        <path fill="none" d="M64.86,5 L 64.86 56.91" id="fig-86b469f68b6149caafa09f1f379a584e-element-61"/>
        <path fill="none" d="M74.54,5 L 74.54 56.91" id="fig-86b469f68b6149caafa09f1f379a584e-element-62"/>
        <path fill="none" d="M83.6,5 L 83.6 56.91" id="fig-86b469f68b6149caafa09f1f379a584e-element-63"/>
        <path fill="none" d="M93.58,5 L 93.58 56.91" id="fig-86b469f68b6149caafa09f1f379a584e-element-64"/>
        <path fill="none" d="M103.56,5 L 103.56 56.91" id="fig-86b469f68b6149caafa09f1f379a584e-element-65"/>
        <path fill="none" d="M107.49,5 L 107.49 56.91" id="fig-86b469f68b6149caafa09f1f379a584e-element-66"/>
        <path fill="none" d="M119.58,5 L 119.58 56.91" id="fig-86b469f68b6149caafa09f1f379a584e-element-67"/>
        <path fill="none" d="M129.86,5 L 129.86 56.91" id="fig-86b469f68b6149caafa09f1f379a584e-element-68"/>
        <path fill="none" d="M141.35,5 L 141.35 56.91" id="fig-86b469f68b6149caafa09f1f379a584e-element-69"/>
        <path fill="none" d="M150.41,5 L 150.41 56.91" id="fig-86b469f68b6149caafa09f1f379a584e-element-70"/>
        <path fill="none" d="M150.41,5 L 150.41 56.91" id="fig-86b469f68b6149caafa09f1f379a584e-element-71"/>
        <path fill="none" d="M157.97,5 L 157.97 56.91" id="fig-86b469f68b6149caafa09f1f379a584e-element-72"/>
        <path fill="none" d="M167.95,5 L 167.95 56.91" id="fig-86b469f68b6149caafa09f1f379a584e-element-73"/>
      </g>
      <g stroke-width="0.79" fill="#000000" fill-opacity="0.000" class="geometry color_0.4" stroke="#FF5EA0" id="fig-86b469f68b6149caafa09f1f379a584e-element-74">
        <path fill="none" d="M62.75,39.2 L 63.05 38.91 63.35 38.82 63.65 38.72 63.95 38.72 64.26 38.72 64.86 38.43 65.16 38.43 65.47 38.34 65.77 38.34 66.07 38.34 66.37 38.05 66.68 37.86 66.98 37.86 67.58 37.67 67.88 37.38 68.49 37.19 68.79 37.19 69.09 37.19 70.3 37.19 71.21 36.61 71.51 36.52 71.81 36.42 72.12 36.23 72.42 36.23 72.72 36.23 73.02 35.46 73.33 35.46 73.63 35.46 74.23 35.37 74.54 35.37 74.84 35.27 75.14 35.27 75.44 35.27 75.74 35.17 76.05 35.17 76.65 35.27 76.95 35.17 77.26 35.17 77.56 34.98 77.86 34.79 78.16 34.79 78.47 34.79 78.77 34.6 79.67 34.41 79.98 34.41 80.28 34.22 80.58 34.12 80.88 34.12 81.19 34.12 81.49 33.93 81.79 33.93 82.09 33.83 82.4 33.74 82.7 33.74 83 33.74 83.3 33.74 83.6 33.54 83.91 33.35 84.21 33.35 84.51 33.35 84.81 33.26 85.12 33.26 85.42 33.16 85.72 33.16 86.02 32.97 86.33 32.87 86.63 32.87 86.93 32.78 87.23 32.78 87.53 32.78 87.84 32.78 88.14 32.68 88.44 32.59 89.35 32.59 90.86 32.01 91.16 31.82 91.46 31.82 91.77 31.72 92.07 31.72 92.37 31.44 92.67 31.44 93.88 30.96 94.19 30.96 95.7 30.86 96.3 30.86 96.6 30.67 96.91 30.57 97.21 30.57 97.51 30.57 97.81 30.38 98.12 30.19 99.02 30.1 99.32 30 99.93 29.62 100.23 29.62 100.53 29.62 101.44 29.62 102.05 29.42 102.95 29.23 104.16 29.04 104.77 28.66 105.67 28.47 107.79 27.8 109 27.12 109.3 26.93 109.6 26.93 109.91 26.36 110.21 26.36 110.51 26.36 111.11 26.26 111.42 26.17 111.72 26.17 112.02 25.88 112.32 25.78 112.63 25.78 112.93 25.78 113.53 25.5 113.84 25.21 114.14 25.11 115.35 24.35 115.65 24.35 115.95 24.63 116.56 24.35 117.16 24.06 117.46 24.06 118.37 23.87 119.88 23.87 121.39 23.77 122.9 22.91 123.21 22.91 123.51 22.91 123.81 22.72 124.11 22.72 124.72 22.52 125.32 22.52 126.53 22.43 126.83 22.24 127.14 22.24 127.44 22.24 127.74 22.05 128.04 22.14 128.35 21.95 131.97 21.57 132.58 21.57 132.88 21.28 133.49 21.28 134.69 21.18 135.3 21.09 135.9 20.8 137.11 20.61 137.72 20.42 138.02 20.13 138.62 19.65 138.93 19.65 139.23 19.55 139.53 19.36 139.83 19.36 140.14 19.27 140.74 19.17 141.04 18.98 141.65 18.98 142.25 18.79 142.55 18.5 142.86 18.4 143.46 18.21 143.76 18.12 145.28 17.73 146.48 17.54 146.79 17.35 149.21 17.06 149.51 17.06 149.81 17.06 150.72 16.68 151.02 16.58 151.32 16.39 151.93 16.2 152.53 16.2 153.14 16.01 155.86 15.34 156.76 15.34 157.07 15.34 157.37 15.15 157.67 15.15 157.97 14.86 158.27 14.86 158.58 14.86 158.88 14.76 159.79 14.67 160.39 14.47 161 14.47 161.3 14.28 161.6 13.9 161.9 13.71 162.2 13.61 162.51 13.61 167.65 12.17 170.06 11.6 172.78 11.12 177.92 8.72 178.83 8.53 180.34 8.15 181.85 7.48" id="fig-86b469f68b6149caafa09f1f379a584e-element-75"/>
      </g>
      <g stroke-width="0.79" fill="#000000" fill-opacity="0.000" class="geometry color_0.3" stroke="#D4CA3A" id="fig-86b469f68b6149caafa09f1f379a584e-element-76">
        <path fill="none" d="M21.63,45.72 L 21.93 45.72 22.24 45.62 22.54 45.62 22.84 45.62 23.14 45.62 23.45 45.62 23.75 45.52 24.35 45.52 24.65 45.43 25.26 45.33 25.86 45.14 26.17 45.14 26.77 45.14 27.07 45.04 29.19 44.66 30.1 44.66 30.7 44.66 32.82 44.57 33.12 44.37 33.42 44.28 33.72 44.28 34.03 44.28 34.33 44.28 34.63 44.28 34.93 44.28 35.24 44.28 35.54 44.28 35.84 44.28 36.14 43.99 36.75 43.89 37.05 43.89 37.35 43.89 37.65 43.7 37.96 43.7 38.26 43.7 38.56 43.61 38.86 43.61 39.17 43.61 39.47 43.61 39.77 43.61 40.07 43.51 40.37 43.51 40.68 47.34 40.98 43.42 41.28 43.32 41.58 43.22 43.4 42.65 43.7 42.55 44 42.46 44.3 42.36 44.61 42.17 44.91 42.17 45.21 41.98 45.51 41.98 45.82 41.88 46.12 41.79 46.72 41.79 47.03 41.59 47.33 41.59 47.63 41.59 47.93 41.59 48.23 41.59 48.54 41.31 48.84 41.31 49.44 41.21 49.75 41.02 50.05 40.92 50.35 40.83 50.65 40.83 50.96 40.64 51.56 40.54 51.86 40.25 52.16 40.25 52.47 40.25 53.07 39.77 53.68 39.49 53.98 39.49 54.28 39.39 54.58 39.39 55.49 39.29 55.79 39.29 56.09 39.2 56.4 39.2 56.7 39.2 57 39.1 57.3 39.01 57.61 38.91 58.21 38.91 58.51 38.91 59.12 38.91 59.42 38.82 59.72 38.53 60.02 38.53 60.63 38.43 60.93 38.43 61.23 38.24 61.54 38.14 61.84 38.05 62.14 37.95 62.44 37.86 62.75 37.67 63.05 37.67 63.35 37.57 63.65 37.47 63.95 37.47 64.26 37.47 64.86 37.19 65.16 37.19 65.47 37.09 65.77 37.09 66.07 37.09 66.37 36.8 66.68 36.71 66.98 36.61 67.58 37.76 67.88 37.47 68.49 37.28 68.79 37.28 69.09 37.28 70.3 37.28 71.21 36.71 71.51 36.61 71.81 36.52 72.12 36.32 72.42 36.32 72.72 36.32 73.02 35.56 73.33 35.56 73.63 35.56 74.23 35.56 74.54 35.46 74.84 35.37 75.14 35.37 75.44 35.37 75.74 35.27 76.05 35.27 76.65 35.37 76.95 35.27 77.26 35.27 77.56 35.08 77.86 33.16 78.16 34.89 78.47 34.89 78.77 34.69 79.67 34.5 79.98 34.5 80.28 34.31 80.58 34.22 80.88 34.22 81.19 34.22 81.49 34.02 81.79 34.02 82.09 33.93 82.4 33.83 82.7 33.83 83 33.83 83.3 33.83 83.6 33.74 83.91 33.54 84.21 33.54 84.51 33.54 84.81 33.45 85.12 33.45 85.42 33.35 85.72 33.35 86.02 33.16 86.33 33.07 86.63 33.07 86.93 32.97 87.23 32.97 87.53 32.97 87.84 32.87 88.14 32.87 88.44 32.78 89.35 32.78 90.86 32.3 91.16 32.11 91.46 32.11 91.77 32.01 92.07 32.01 92.37 31.72 92.67 31.72 93.88 31.24 94.19 31.24 95.7 31.15 96.3 31.15 96.6 31.05 96.91 30.96 97.21 30.96 97.51 30.96 97.81 30.77 98.12 30.67 99.02 30.48 99.32 30.38 99.93 30.1 100.23 30 100.53 30 101.44 30 102.05 29.81 102.95 29.62 104.16 29.42 104.77 29.14 105.67 28.75 107.79 28.18 109 27.51 109.3 27.32 109.6 27.32 109.91 26.84 110.21 26.84 110.51 26.84 111.11 26.84 111.42 26.65 111.72 26.65 112.02 26.36 112.32 26.26 112.63 26.26 112.93 26.26 113.53 25.97 113.84 25.78 114.14 25.69 115.35 24.92 115.65 25.11 115.95 25.11 116.56 24.82 117.16 24.54 117.46 24.54 118.37 24.35 119.88 24.35 121.39 23.77 122.9 23.39 123.21 23.39 123.51 23.39 123.81 23.2 124.11 23.2 124.72 23.2 125.32 23.2 126.53 23 126.83 22.81 127.14 22.72 127.44 22.72 127.74 22.52 128.04 22.62 128.35 22.43 131.97 22.33 132.58 22.33 132.88 22.05 133.49 22.05 134.69 21.95 135.3 21.95 135.9 21.66 137.11 21.66 137.72 21.47 138.02 21.37 138.62 20.9 138.93 20.9 139.23 20.8 139.53 20.51 139.83 20.51 140.14 20.42 140.74 20.32 141.04 20.22 141.65 20.22 142.25 20.03 142.55 19.75 142.86 19.65 143.46 19.46 143.76 19.36 145.28 18.98 146.48 18.79 146.79 18.6 149.21 18.21 149.51 18.21 149.81 18.21 150.72 17.92 151.02 17.83 151.32 17.73 151.93 17.54 152.53 17.54 153.14 17.45 155.86 16.97 156.76 17.06 157.07 17.06 157.37 16.87 157.67 16.87 157.97 16.68 158.27 16.68 158.58 16.68 158.88 16.58 159.79 16.58 160.39 16.39 161 16.49 161.3 16.3 161.6 15.91 161.9 15.72 162.2 15.62 162.51 15.62 167.65 14.28 170.06 13.8 172.78 13.32 177.92 11.98 178.83 11.79 180.34 11.7 181.85 11.5" id="fig-86b469f68b6149caafa09f1f379a584e-element-77"/>
      </g>
      <g stroke-width="0.79" fill="#000000" fill-opacity="0.000" class="geometry color_0.2" stroke="#00BFFF" id="fig-86b469f68b6149caafa09f1f379a584e-element-78">
        <path fill="none" d="M21.63,46.77 L 21.93 46.77 22.24 46.67 22.54 46.67 22.84 46.67 23.14 46.67 23.45 46.67 23.75 46.67 24.35 46.67 24.65 46.67 25.26 46.58 25.86 46.48 26.17 46.48 26.77 46.39 27.07 46.29 29.19 46.1 30.1 46.1 30.7 46.1 32.82 46 33.12 45.91 33.42 45.91 33.72 45.91 34.03 45.91 34.33 45.91 34.63 45.91 34.93 45.91 35.24 45.91 35.54 45.91 35.84 45.62 36.14 45.62 36.75 45.52 37.05 45.52 37.35 45.52 37.65 45.43 37.96 46.19 38.26 45.72 38.56 45.72 38.86 45.72 39.17 45.72 39.47 45.72 39.77 45.72 40.07 45.72 40.37 45.72 40.68 45.62 40.98 45.62 41.28 45.52 41.58 45.52 43.4 45.04 43.7 45.04 44 44.95 44.3 44.85 44.61 44.66 44.91 44.66 45.21 44.66 45.51 44.66 45.82 44.66 46.12 44.57 46.72 44.57 47.03 44.37 47.33 44.37 47.63 44.37 47.93 44.37 48.23 44.37 48.54 44.09 48.84 44.09 49.44 43.99 49.75 43.8 50.05 43.7 50.35 43.61 50.65 43.61 50.96 43.61 51.56 43.42 51.86 43.32 52.16 43.22 52.47 43.22 53.07 43.03 53.68 42.84 53.98 42.84 54.28 42.84 54.58 42.84 55.49 42.84 55.79 42.84 56.09 42.74 56.4 42.74 56.7 42.74 57 42.65 57.3 42.65 57.61 42.65 58.21 42.55 58.51 42.55 59.12 42.55 59.42 42.55 59.72 42.27 60.02 42.27 60.63 42.46 60.93 42.46 61.23 42.27 61.54 42.17 61.84 42.17 62.14 41.98 62.44 41.98" id="fig-86b469f68b6149caafa09f1f379a584e-element-79"/>
      </g>
    </g>
  </g>
  <g class="guide ylabels" font-size="2.82" font-family="'PT Sans Caption','Helvetica Neue','Helvetica',sans-serif" fill="#6C606B" id="fig-86b469f68b6149caafa09f1f379a584e-element-80">
    <text x="18.63" y="54.91" text-anchor="end" dy="0.35em" id="fig-86b469f68b6149caafa09f1f379a584e-element-81">200</text>
    <text x="18.63" y="45.33" text-anchor="end" dy="0.35em" id="fig-86b469f68b6149caafa09f1f379a584e-element-82">300</text>
    <text x="18.63" y="35.75" text-anchor="end" dy="0.35em" id="fig-86b469f68b6149caafa09f1f379a584e-element-83">400</text>
    <text x="18.63" y="26.17" text-anchor="end" dy="0.35em" id="fig-86b469f68b6149caafa09f1f379a584e-element-84">500</text>
    <text x="18.63" y="16.58" text-anchor="end" dy="0.35em" id="fig-86b469f68b6149caafa09f1f379a584e-element-85">600</text>
    <text x="18.63" y="7" text-anchor="end" dy="0.35em" id="fig-86b469f68b6149caafa09f1f379a584e-element-86">700</text>
  </g>
  <g font-size="3.88" font-family="'PT Sans','Helvetica Neue','Helvetica',sans-serif" fill="#564A55" stroke="#000000" stroke-opacity="0.000" id="fig-86b469f68b6149caafa09f1f379a584e-element-87">
    <text x="8.81" y="28.96" text-anchor="middle" dy="0.35em" transform="rotate(-90, 8.81, 30.96)" id="fig-86b469f68b6149caafa09f1f379a584e-element-88">Number of Tagged Packages</text>
  </g>
</g>
<defs>
<clipPath id="fig-86b469f68b6149caafa09f1f379a584e-element-16">
  <path d="M19.63,5 L 183.85 5 183.85 56.91 19.63 56.91" />
</clipPath
></defs>
</svg>
