<?xml version="1.0" encoding="UTF-8"?>
<svg xmlns="http://www.w3.org/2000/svg"
     xmlns:xlink="http://www.w3.org/1999/xlink"
     xmlns:gadfly="http://www.gadflyjl.org/ns"
     version="1.2"
     width="203.2mm" height="76.2mm" viewBox="0 0 203.2 76.2"
     stroke="none"
     fill="#000000"
     stroke-width="0.3"
     font-size="3.88"
>
<g class="plotroot xscalable yscalable" id="fig-f9e2b7be0bd340cd88c2a8852c6d7373-element-1">
  <g font-size="3.88" font-family="'PT Sans','Helvetica Neue','Helvetica',sans-serif" fill="#564A55" stroke="none" id="fig-f9e2b7be0bd340cd88c2a8852c6d7373-element-2">
    <text x="101.74" y="68.2" text-anchor="middle">Date</text>
  </g>
  <g class="guide xlabels" font-size="2.82" font-family="'PT Sans Caption','Helvetica Neue','Helvetica',sans-serif" fill="#6C606B" id="fig-f9e2b7be0bd340cd88c2a8852c6d7373-element-3">
    <text x="23.2" y="62.59" text-anchor="middle">Apr</text>
    <text x="49.98" y="62.59" text-anchor="middle">May</text>
    <text x="77.65" y="62.59" text-anchor="middle">June</text>
    <text x="104.42" y="62.59" text-anchor="middle">July</text>
    <text x="132.09" y="62.59" text-anchor="middle">Aug</text>
    <text x="159.76" y="62.59" text-anchor="middle">Sept</text>
  </g>
  <g class="guide colorkey" id="fig-f9e2b7be0bd340cd88c2a8852c6d7373-element-4">
    <g fill="#4C404B" font-size="2.82" font-family="'PT Sans','Helvetica Neue','Helvetica',sans-serif" id="fig-f9e2b7be0bd340cd88c2a8852c6d7373-element-5">
      <text x="187.67" y="30.14" dy="0.35em" id="fig-f9e2b7be0bd340cd88c2a8852c6d7373-element-6" class="color_0.2">0.2</text>
      <text x="187.67" y="33.77" dy="0.35em" id="fig-f9e2b7be0bd340cd88c2a8852c6d7373-element-7" class="color_0.3">0.3</text>
      <text x="187.67" y="37.4" dy="0.35em" id="fig-f9e2b7be0bd340cd88c2a8852c6d7373-element-8" class="color_0.4">0.4</text>
    </g>
    <g stroke="none" id="fig-f9e2b7be0bd340cd88c2a8852c6d7373-element-9">
      <rect x="184.85" y="29.24" width="1.81" height="1.81" id="fig-f9e2b7be0bd340cd88c2a8852c6d7373-element-10" class="color_0.2" fill="#00BFFF"/>
      <rect x="184.85" y="32.86" width="1.81" height="1.81" id="fig-f9e2b7be0bd340cd88c2a8852c6d7373-element-11" class="color_0.3" fill="#D4CA3A"/>
      <rect x="184.85" y="36.49" width="1.81" height="1.81" id="fig-f9e2b7be0bd340cd88c2a8852c6d7373-element-12" class="color_0.4" fill="#FF5EA0"/>
    </g>
    <g fill="#362A35" font-size="3.88" font-family="'PT Sans','Helvetica Neue','Helvetica',sans-serif" stroke="none" id="fig-f9e2b7be0bd340cd88c2a8852c6d7373-element-13">
      <text x="184.85" y="26.32" id="fig-f9e2b7be0bd340cd88c2a8852c6d7373-element-14">Julia ver.</text>
    </g>
  </g>
  <g clip-path="url(#fig-f9e2b7be0bd340cd88c2a8852c6d7373-element-16)" id="fig-f9e2b7be0bd340cd88c2a8852c6d7373-element-15">
    <g pointer-events="visible" opacity="1" fill="none" stroke="none" class="guide background" id="fig-f9e2b7be0bd340cd88c2a8852c6d7373-element-17">
      <rect x="19.63" y="5" width="164.22" height="53.91" id="fig-f9e2b7be0bd340cd88c2a8852c6d7373-element-18"/>
    </g>
    <g class="guide ygridlines xfixed" stroke-dasharray="0.5,0.5" stroke-width="0.2" stroke="#D0D0E0" id="fig-f9e2b7be0bd340cd88c2a8852c6d7373-element-19">
      <path fill="none" d="M19.63,56.91 L 183.85 56.91" id="fig-f9e2b7be0bd340cd88c2a8852c6d7373-element-20"/>
      <path fill="none" d="M19.63,44.44 L 183.85 44.44" id="fig-f9e2b7be0bd340cd88c2a8852c6d7373-element-21"/>
      <path fill="none" d="M19.63,31.96 L 183.85 31.96" id="fig-f9e2b7be0bd340cd88c2a8852c6d7373-element-22"/>
      <path fill="none" d="M19.63,19.48 L 183.85 19.48" id="fig-f9e2b7be0bd340cd88c2a8852c6d7373-element-23"/>
      <path fill="none" d="M19.63,7 L 183.85 7" id="fig-f9e2b7be0bd340cd88c2a8852c6d7373-element-24"/>
    </g>
    <g class="guide xgridlines yfixed" stroke-dasharray="0.5,0.5" stroke-width="0.2" stroke="#D0D0E0" id="fig-f9e2b7be0bd340cd88c2a8852c6d7373-element-25">
      <path fill="none" d="M23.2,5 L 23.2 58.91" id="fig-f9e2b7be0bd340cd88c2a8852c6d7373-element-26"/>
      <path fill="none" d="M49.98,5 L 49.98 58.91" id="fig-f9e2b7be0bd340cd88c2a8852c6d7373-element-27"/>
      <path fill="none" d="M77.65,5 L 77.65 58.91" id="fig-f9e2b7be0bd340cd88c2a8852c6d7373-element-28"/>
      <path fill="none" d="M104.42,5 L 104.42 58.91" id="fig-f9e2b7be0bd340cd88c2a8852c6d7373-element-29"/>
      <path fill="none" d="M132.09,5 L 132.09 58.91" id="fig-f9e2b7be0bd340cd88c2a8852c6d7373-element-30"/>
      <path fill="none" d="M159.76,5 L 159.76 58.91" id="fig-f9e2b7be0bd340cd88c2a8852c6d7373-element-31"/>
    </g>
    <g class="plotpanel" id="fig-f9e2b7be0bd340cd88c2a8852c6d7373-element-32">
      <g stroke-width="0.79" fill="none" class="geometry color_0.4" stroke="#FF5EA0" id="fig-f9e2b7be0bd340cd88c2a8852c6d7373-element-33">
        <path fill="none" d="M142.8,28.46 L 143.69 27.71 144.58 27.47 145.48 27.22 146.37 27.22 147.26 27.22 149.05 26.47 149.94 26.47 150.83 26.22 151.72 26.22 152.62 26.22 153.51 25.47 154.4 24.97 155.29 24.97 157.08 24.47 157.97 23.72 159.76 23.22 160.65 23.22 161.54 23.22 165.11 23.22 167.79 21.72 168.68 21.48 169.57 21.23 170.47 20.73 171.36 20.73 172.25 20.73 173.14 18.73 174.04 18.73 174.93 18.73 176.71 18.48 177.61 18.48 178.5 18.23 179.39 18.23 180.28 18.23 181.18 17.98 182.07 17.98" id="fig-f9e2b7be0bd340cd88c2a8852c6d7373-element-34"/>
      </g>
      <g stroke-width="0.79" fill="none" class="geometry color_0.3" stroke="#D4CA3A" id="fig-f9e2b7be0bd340cd88c2a8852c6d7373-element-35">
        <path fill="none" d="M21.42,45.43 L 22.31 45.43 23.2 45.18 24.09 45.18 24.99 45.18 25.88 45.18 26.77 45.18 27.66 44.94 29.45 44.94 30.34 44.69 32.13 44.44 33.91 43.94 34.8 43.94 36.59 43.94 37.48 43.69 43.73 42.69 46.41 42.69 48.19 42.69 54.44 42.44 55.33 41.94 56.22 41.69 57.12 41.69 58.01 41.69 58.9 41.69 59.79 41.69 60.69 41.69 61.58 41.69 62.47 41.69 63.36 41.69 64.26 40.94 66.04 40.69 66.93 40.69 67.83 40.69 68.72 40.19 69.61 40.19 70.5 40.19 71.4 39.94 72.29 39.94 73.18 39.94 74.07 39.94 74.97 39.94 75.86 39.69 76.75 39.69 77.65 49.68 78.54 39.44 79.43 39.2 80.32 38.95 85.68 37.45 86.57 37.2 87.46 36.95 88.36 36.7 89.25 36.2 90.14 36.2 91.03 35.7 91.93 35.7 92.82 35.45 93.71 35.2 95.5 35.2 96.39 34.7 97.28 34.7 98.17 34.7 99.07 34.7 99.96 34.7 100.85 33.95 101.74 33.95 103.53 33.7 104.42 33.21 105.31 32.96 106.21 32.71 107.1 32.71 107.99 32.21 109.78 31.96 110.67 31.21 111.56 31.21 112.45 31.21 114.24 29.96 116.02 29.21 116.92 29.21 117.81 28.96 118.7 28.96 121.38 28.71 122.27 28.71 123.16 28.46 124.06 28.46 124.95 28.46 125.84 28.21 126.73 27.96 127.63 27.71 129.41 27.71 130.3 27.71 132.09 27.71 132.98 27.47 133.87 26.72 134.77 26.72 136.55 26.47 137.44 26.47 138.34 25.97 139.23 25.72 140.12 25.47 141.01 25.22 141.91 24.97 142.8 24.47 143.69 24.47 144.58 24.22 145.48 23.97 146.37 23.97 147.26 23.97 149.05 23.22 149.94 23.22 150.83 22.97 151.72 22.97 152.62 22.97 153.51 22.22 154.4 21.97 155.29 21.72 157.08 24.72 157.97 23.97 159.76 23.47 160.65 23.47 161.54 23.47 165.11 23.47 167.79 21.97 168.68 21.72 169.57 21.48 170.47 20.98 171.36 20.98 172.25 20.98 173.14 18.98 174.04 18.98 174.93 18.98 176.71 18.98 177.61 18.73 178.5 18.48 179.39 18.48 180.28 18.48 181.18 18.23 182.07 18.23" id="fig-f9e2b7be0bd340cd88c2a8852c6d7373-element-36"/>
      </g>
      <g stroke-width="0.79" fill="none" class="geometry color_0.2" stroke="#00BFFF" id="fig-f9e2b7be0bd340cd88c2a8852c6d7373-element-37">
        <path fill="none" d="M21.42,48.18 L 22.31 48.18 23.2 47.93 24.09 47.93 24.99 47.93 25.88 47.93 26.77 47.93 27.66 47.93 29.45 47.93 30.34 47.93 32.13 47.68 33.91 47.43 34.8 47.43 36.59 47.18 37.48 46.93 43.73 46.43 46.41 46.43 48.19 46.43 54.44 46.18 55.33 45.93 56.22 45.93 57.12 45.93 58.01 45.93 58.9 45.93 59.79 45.93 60.69 45.93 61.58 45.93 62.47 45.93 63.36 45.18 64.26 45.18 66.04 44.94 66.93 44.94 67.83 44.94 68.72 44.69 69.61 46.68 70.5 45.43 71.4 45.43 72.29 45.43 73.18 45.43 74.07 45.43 74.97 45.43 75.86 45.43 76.75 45.43 77.65 45.18 78.54 45.18 79.43 44.94 80.32 44.94 85.68 43.69 86.57 43.69 87.46 43.44 88.36 43.19 89.25 42.69 90.14 42.69 91.03 42.69 91.93 42.69 92.82 42.69 93.71 42.44 95.5 42.44 96.39 41.94 97.28 41.94 98.17 41.94 99.07 41.94 99.96 41.94 100.85 41.19 101.74 41.19 103.53 40.94 104.42 40.44 105.31 40.19 106.21 39.94 107.1 39.94 107.99 39.94 109.78 39.44 110.67 39.2 111.56 38.95 112.45 38.95 114.24 38.45 116.02 37.95 116.92 37.95 117.81 37.95 118.7 37.95 121.38 37.95 122.27 37.95 123.16 37.7 124.06 37.7 124.95 37.7 125.84 37.45 126.73 37.45 127.63 37.45 129.41 37.2 130.3 37.2 132.09 37.2 132.98 37.2 133.87 36.45 134.77 36.45 136.55 36.95 137.44 36.95 138.34 36.45 139.23 36.2 140.12 36.2 141.01 35.7 141.91 35.7" id="fig-f9e2b7be0bd340cd88c2a8852c6d7373-element-38"/>
      </g>
    </g>
  </g>
  <g class="guide ylabels" font-size="2.82" font-family="'PT Sans Caption','Helvetica Neue','Helvetica',sans-serif" fill="#6C606B" id="fig-f9e2b7be0bd340cd88c2a8852c6d7373-element-39">
    <text x="18.63" y="56.91" text-anchor="end" dy="0.35em" id="fig-f9e2b7be0bd340cd88c2a8852c6d7373-element-40">250</text>
    <text x="18.63" y="44.44" text-anchor="end" dy="0.35em" id="fig-f9e2b7be0bd340cd88c2a8852c6d7373-element-41">300</text>
    <text x="18.63" y="31.96" text-anchor="end" dy="0.35em" id="fig-f9e2b7be0bd340cd88c2a8852c6d7373-element-42">350</text>
    <text x="18.63" y="19.48" text-anchor="end" dy="0.35em" id="fig-f9e2b7be0bd340cd88c2a8852c6d7373-element-43">400</text>
    <text x="18.63" y="7" text-anchor="end" dy="0.35em" id="fig-f9e2b7be0bd340cd88c2a8852c6d7373-element-44">450</text>
  </g>
  <g font-size="3.88" font-family="'PT Sans','Helvetica Neue','Helvetica',sans-serif" fill="#564A55" stroke="none" id="fig-f9e2b7be0bd340cd88c2a8852c6d7373-element-45">
    <text x="8.81" y="29.96" text-anchor="middle" dy="0.35em" transform="rotate(-90, 8.81, 31.96)" id="fig-f9e2b7be0bd340cd88c2a8852c6d7373-element-46">Number of Tagged Packages</text>
  </g>
</g>
<defs>
<clipPath id="fig-f9e2b7be0bd340cd88c2a8852c6d7373-element-16">
  <path d="M19.63,5 L 183.85 5 183.85 58.91 19.63 58.91" />
</clipPath
></defs>
</svg>
