<?xml version="1.0" encoding="UTF-8"?>
<svg xmlns="http://www.w3.org/2000/svg"
     xmlns:xlink="http://www.w3.org/1999/xlink"
     xmlns:gadfly="http://www.gadflyjl.org/ns"
     version="1.2"
     width="203.2mm" height="76.2mm" viewBox="0 0 203.2 76.2"
     stroke="none"
     fill="#000000"
     stroke-width="0.3"
     font-size="3.88"
>
<g class="plotroot xscalable yscalable" id="fig-8a7873e760464ec3a3b63cb1768298e8-element-1">
  <g font-size="3.88" font-family="'PT Sans','Helvetica Neue','Helvetica',sans-serif" fill="#564A55" stroke="none" id="fig-8a7873e760464ec3a3b63cb1768298e8-element-2">
    <text x="101.74" y="68.2" text-anchor="middle">Date</text>
  </g>
  <g class="guide xlabels" font-size="2.82" font-family="'PT Sans Caption','Helvetica Neue','Helvetica',sans-serif" fill="#6C606B" id="fig-8a7873e760464ec3a3b63cb1768298e8-element-3">
    <text x="22.95" y="62.59" text-anchor="middle">Apr</text>
    <text x="39.54" y="62.59" text-anchor="middle">May</text>
    <text x="56.68" y="62.59" text-anchor="middle">Jun</text>
    <text x="73.27" y="62.59" text-anchor="middle">Jul</text>
    <text x="90.41" y="62.59" text-anchor="middle">Aug</text>
    <text x="107.55" y="62.59" text-anchor="middle">Sep</text>
    <text x="124.14" y="62.59" text-anchor="middle">Oct</text>
    <text x="141.28" y="62.59" text-anchor="middle">Nov</text>
    <text x="157.87" y="62.59" text-anchor="middle">Dec</text>
    <text x="175.01" y="62.59" text-anchor="middle">Jan 2015</text>
  </g>
  <g class="guide colorkey" id="fig-8a7873e760464ec3a3b63cb1768298e8-element-4">
    <g fill="#4C404B" font-size="2.82" font-family="'PT Sans','Helvetica Neue','Helvetica',sans-serif" id="fig-8a7873e760464ec3a3b63cb1768298e8-element-5">
      <text x="187.67" y="30.14" dy="0.35em" id="fig-8a7873e760464ec3a3b63cb1768298e8-element-6" class="color_0.2">0.2</text>
      <text x="187.67" y="33.77" dy="0.35em" id="fig-8a7873e760464ec3a3b63cb1768298e8-element-7" class="color_0.3">0.3</text>
      <text x="187.67" y="37.4" dy="0.35em" id="fig-8a7873e760464ec3a3b63cb1768298e8-element-8" class="color_0.4">0.4</text>
    </g>
    <g stroke="none" id="fig-8a7873e760464ec3a3b63cb1768298e8-element-9">
      <rect x="184.85" y="29.24" width="1.81" height="1.81" id="fig-8a7873e760464ec3a3b63cb1768298e8-element-10" fill="#00BFFF" class="color_0.2"/>
      <rect x="184.85" y="32.86" width="1.81" height="1.81" id="fig-8a7873e760464ec3a3b63cb1768298e8-element-11" fill="#D4CA3A" class="color_0.3"/>
      <rect x="184.85" y="36.49" width="1.81" height="1.81" id="fig-8a7873e760464ec3a3b63cb1768298e8-element-12" fill="#FF5EA0" class="color_0.4"/>
    </g>
    <g fill="#362A35" font-size="3.88" font-family="'PT Sans','Helvetica Neue','Helvetica',sans-serif" stroke="none" id="fig-8a7873e760464ec3a3b63cb1768298e8-element-13">
      <text x="184.85" y="26.32" id="fig-8a7873e760464ec3a3b63cb1768298e8-element-14">Julia ver.</text>
    </g>
  </g>
  <g font-size="3.88" font-family="'PT Sans','Helvetica Neue','Helvetica',sans-serif" fill="#564A55" stroke="none" id="fig-8a7873e760464ec3a3b63cb1768298e8-element-15">
    <text x="8.81" y="29.96" text-anchor="middle" dy="0.35em" transform="rotate(-90, 8.81, 31.96)" id="fig-8a7873e760464ec3a3b63cb1768298e8-element-16">Number of Tagged Packages</text>
  </g>
  <g clip-path="url(#fig-8a7873e760464ec3a3b63cb1768298e8-element-18)" id="fig-8a7873e760464ec3a3b63cb1768298e8-element-17">
    <g pointer-events="visible" opacity="1" fill="none" stroke="none" class="guide background" id="fig-8a7873e760464ec3a3b63cb1768298e8-element-19">
      <rect x="19.63" y="5" width="164.22" height="53.91" id="fig-8a7873e760464ec3a3b63cb1768298e8-element-20"/>
    </g>
    <g class="guide ygridlines xfixed" stroke-dasharray="0.5,0.5" stroke-width="0.2" stroke="#D0D0E0" id="fig-8a7873e760464ec3a3b63cb1768298e8-element-21">
      <path fill="none" d="M19.63,56.91 L 183.85 56.91" id="fig-8a7873e760464ec3a3b63cb1768298e8-element-22"/>
      <path fill="none" d="M19.63,46.93 L 183.85 46.93" id="fig-8a7873e760464ec3a3b63cb1768298e8-element-23"/>
      <path fill="none" d="M19.63,36.95 L 183.85 36.95" id="fig-8a7873e760464ec3a3b63cb1768298e8-element-24"/>
      <path fill="none" d="M19.63,26.97 L 183.85 26.97" id="fig-8a7873e760464ec3a3b63cb1768298e8-element-25"/>
      <path fill="none" d="M19.63,16.98 L 183.85 16.98" id="fig-8a7873e760464ec3a3b63cb1768298e8-element-26"/>
      <path fill="none" d="M19.63,7 L 183.85 7" id="fig-8a7873e760464ec3a3b63cb1768298e8-element-27"/>
    </g>
    <g class="guide xgridlines yfixed" stroke-dasharray="0.5,0.5" stroke-width="0.2" stroke="#D0D0E0" id="fig-8a7873e760464ec3a3b63cb1768298e8-element-28">
      <path fill="none" d="M22.95,5 L 22.95 58.91" id="fig-8a7873e760464ec3a3b63cb1768298e8-element-29"/>
      <path fill="none" d="M39.54,5 L 39.54 58.91" id="fig-8a7873e760464ec3a3b63cb1768298e8-element-30"/>
      <path fill="none" d="M56.68,5 L 56.68 58.91" id="fig-8a7873e760464ec3a3b63cb1768298e8-element-31"/>
      <path fill="none" d="M73.27,5 L 73.27 58.91" id="fig-8a7873e760464ec3a3b63cb1768298e8-element-32"/>
      <path fill="none" d="M90.41,5 L 90.41 58.91" id="fig-8a7873e760464ec3a3b63cb1768298e8-element-33"/>
      <path fill="none" d="M107.55,5 L 107.55 58.91" id="fig-8a7873e760464ec3a3b63cb1768298e8-element-34"/>
      <path fill="none" d="M124.14,5 L 124.14 58.91" id="fig-8a7873e760464ec3a3b63cb1768298e8-element-35"/>
      <path fill="none" d="M141.28,5 L 141.28 58.91" id="fig-8a7873e760464ec3a3b63cb1768298e8-element-36"/>
      <path fill="none" d="M157.87,5 L 157.87 58.91" id="fig-8a7873e760464ec3a3b63cb1768298e8-element-37"/>
      <path fill="none" d="M175.01,5 L 175.01 58.91" id="fig-8a7873e760464ec3a3b63cb1768298e8-element-38"/>
    </g>
    <g class="plotpanel" id="fig-8a7873e760464ec3a3b63cb1768298e8-element-39">
      <g stroke-width="0.79" fill="none" class="geometry color_0.4" stroke="#FF5EA0" id="fig-8a7873e760464ec3a3b63cb1768298e8-element-40">
        <path fill="none" d="M97.04,34.15 L 97.6 33.55 98.15 33.36 98.7 33.16 99.25 33.16 99.81 33.16 100.91 32.56 101.47 32.56 102.02 32.36 102.57 32.36 103.13 32.36 103.68 31.76 104.23 31.36 104.78 31.36 105.89 30.96 106.44 30.36 107.55 29.96 108.1 29.96 108.65 29.96 110.87 29.96 112.53 28.76 113.08 28.56 113.63 28.36 114.18 27.96 114.74 27.96 115.29 27.96 115.84 26.37 116.4 26.37 116.95 26.37 118.05 26.17 118.61 26.17 119.16 25.97 119.71 25.97 120.27 25.97 120.82 25.77 121.37 25.77 122.48 25.97 123.03 25.77 123.58 25.77 124.14 25.37 124.69 24.97 125.24 24.97 125.8 24.97 126.35 24.57 128.01 24.17 128.56 24.17 129.11 23.77 129.67 23.57 130.22 23.57 130.77 23.57 131.33 23.17 131.88 23.17 132.43 22.97 132.98 22.77 133.54 22.77 134.09 22.77 134.64 22.77 135.2 22.37 135.75 21.97 136.3 21.97 136.85 21.97 137.41 21.77 137.96 21.77 138.51 21.58 139.07 21.58 139.62 21.18 140.17 20.98 140.73 20.98 141.28 20.78 141.83 20.78 142.38 20.78 142.94 20.78 143.49 20.58 144.04 20.38 145.7 20.38 148.47 19.18 149.02 18.78 149.57 18.78 150.12 18.58 150.68 18.58 151.23 17.98 151.78 17.98 154 16.98 154.55 16.98 157.31 16.78 158.42 16.78 158.97 16.38 159.52 16.18 160.08 16.18 160.63 16.18 161.18 15.79 161.74 15.39 163.4 15.19 163.95 14.99 165.05 14.19 165.61 14.19 166.16 14.19 167.82 14.19 168.92 13.79 170.58 13.39 172.8 12.99 173.9 12.19 175.56 11.79 179.43 10.39 181.64 9 182.2 8.6" id="fig-8a7873e760464ec3a3b63cb1768298e8-element-41"/>
      </g>
      <g stroke-width="0.79" fill="none" class="geometry color_0.3" stroke="#D4CA3A" id="fig-8a7873e760464ec3a3b63cb1768298e8-element-42">
        <path fill="none" d="M21.84,47.73 L 22.4 47.73 22.95 47.53 23.5 47.53 24.06 47.53 24.61 47.53 25.16 47.53 25.71 47.33 26.82 47.33 27.37 47.13 28.48 46.93 29.58 46.53 30.14 46.53 31.24 46.53 31.8 46.33 35.67 45.53 37.33 45.53 38.43 45.53 42.3 45.33 42.86 44.94 43.41 44.74 43.96 44.74 44.51 44.74 45.07 44.74 45.62 44.74 46.17 44.74 46.73 44.74 47.28 44.74 47.83 44.74 48.38 44.14 49.49 43.94 50.04 43.94 50.6 43.94 51.15 43.54 51.7 43.54 52.25 43.54 52.81 43.34 53.36 43.34 53.91 43.34 54.47 43.34 55.02 43.34 55.57 43.14 56.13 43.14 56.68 51.12 57.23 42.94 57.78 42.74 58.34 42.54 61.65 41.34 62.21 41.14 62.76 40.94 63.31 40.74 63.87 40.34 64.42 40.34 64.97 39.94 65.53 39.94 66.08 39.74 66.63 39.54 67.74 39.54 68.29 39.15 68.84 39.15 69.4 39.15 69.95 39.15 70.5 39.15 71.05 38.55 71.61 38.55 72.71 38.35 73.27 37.95 73.82 37.75 74.37 37.55 74.93 37.55 75.48 37.15 76.58 36.95 77.14 36.35 77.69 36.35 78.24 36.35 79.35 35.35 80.45 34.75 81.01 34.75 81.56 34.55 82.11 34.55 83.77 34.35 84.33 34.35 84.88 34.15 85.43 34.15 85.98 34.15 86.54 33.95 87.09 33.75 87.64 33.55 88.75 33.55 89.3 33.55 90.41 33.55 90.96 33.36 91.51 32.76 92.07 32.76 93.17 32.56 93.73 32.56 94.28 32.16 94.83 31.96 95.38 31.76 95.94 31.56 96.49 31.36 97.04 30.96 97.6 30.96 98.15 30.76 98.7 30.56 99.25 30.56 99.81 30.56 100.91 29.96 101.47 29.96 102.02 29.76 102.57 29.76 103.13 29.76 103.68 29.16 104.23 28.96 104.78 28.76 105.89 31.16 106.44 30.56 107.55 30.16 108.1 30.16 108.65 30.16 110.87 30.16 112.53 28.96 113.08 28.76 113.63 28.56 114.18 28.16 114.74 28.16 115.29 28.16 115.84 26.57 116.4 26.57 116.95 26.57 118.05 26.57 118.61 26.37 119.16 26.17 119.71 26.17 120.27 26.17 120.82 25.97 121.37 25.97 122.48 26.17 123.03 25.97 123.58 25.97 124.14 25.57 124.69 21.58 125.24 25.17 125.8 25.17 126.35 24.77 128.01 24.37 128.56 24.37 129.11 23.97 129.67 23.77 130.22 23.77 130.77 23.77 131.33 23.37 131.88 23.37 132.43 23.17 132.98 22.97 133.54 22.97 134.09 22.97 134.64 22.97 135.2 22.77 135.75 22.37 136.3 22.37 136.85 22.37 137.41 22.17 137.96 22.17 138.51 21.97 139.07 21.97 139.62 21.58 140.17 21.38 140.73 21.38 141.28 21.18 141.83 21.18 142.38 21.18 142.94 20.98 143.49 20.98 144.04 20.78 145.7 20.78 148.47 19.78 149.02 19.38 149.57 19.38 150.12 19.18 150.68 19.18 151.23 18.58 151.78 18.58 154 17.58 154.55 17.58 157.31 17.38 158.42 17.38 158.97 17.18 159.52 16.98 160.08 16.98 160.63 16.98 161.18 16.58 161.74 16.38 163.4 15.98 163.95 15.79 165.05 15.19 165.61 14.99 166.16 14.99 167.82 14.99 168.92 14.59 170.58 14.19 172.8 13.79 173.9 13.19 175.56 12.39 179.43 11.19 181.64 9.8 182.2 9.4" id="fig-8a7873e760464ec3a3b63cb1768298e8-element-43"/>
      </g>
      <g stroke-width="0.79" fill="none" class="geometry color_0.2" stroke="#00BFFF" id="fig-8a7873e760464ec3a3b63cb1768298e8-element-44">
        <path fill="none" d="M21.84,49.93 L 22.4 49.93 22.95 49.73 23.5 49.73 24.06 49.73 24.61 49.73 25.16 49.73 25.71 49.73 26.82 49.73 27.37 49.73 28.48 49.53 29.58 49.33 30.14 49.33 31.24 49.13 31.8 48.93 35.67 48.53 37.33 48.53 38.43 48.53 42.3 48.33 42.86 48.13 43.41 48.13 43.96 48.13 44.51 48.13 45.07 48.13 45.62 48.13 46.17 48.13 46.73 48.13 47.28 48.13 47.83 47.53 48.38 47.53 49.49 47.33 50.04 47.33 50.6 47.33 51.15 47.13 51.7 48.73 52.25 47.73 52.81 47.73 53.36 47.73 53.91 47.73 54.47 47.73 55.02 47.73 55.57 47.73 56.13 47.73 56.68 47.53 57.23 47.53 57.78 47.33 58.34 47.33 61.65 46.33 62.21 46.33 62.76 46.13 63.31 45.93 63.87 45.53 64.42 45.53 64.97 45.53 65.53 45.53 66.08 45.53 66.63 45.33 67.74 45.33 68.29 44.94 68.84 44.94 69.4 44.94 69.95 44.94 70.5 44.94 71.05 44.34 71.61 44.34 72.71 44.14 73.27 43.74 73.82 43.54 74.37 43.34 74.93 43.34 75.48 43.34 76.58 42.94 77.14 42.74 77.69 42.54 78.24 42.54 79.35 42.14 80.45 41.74 81.01 41.74 81.56 41.74 82.11 41.74 83.77 41.74 84.33 41.74 84.88 41.54 85.43 41.54 85.98 41.54 86.54 41.34 87.09 41.34 87.64 41.34 88.75 41.14 89.3 41.14 90.41 41.14 90.96 41.14 91.51 40.54 92.07 40.54 93.17 40.94 93.73 40.94 94.28 40.54 94.83 40.34 95.38 40.34 95.94 39.94 96.49 39.94" id="fig-8a7873e760464ec3a3b63cb1768298e8-element-45"/>
      </g>
    </g>
  </g>
  <g class="guide ylabels" font-size="2.82" font-family="'PT Sans Caption','Helvetica Neue','Helvetica',sans-serif" fill="#6C606B" id="fig-8a7873e760464ec3a3b63cb1768298e8-element-46">
    <text x="18.63" y="56.91" text-anchor="end" dy="0.35em" id="fig-8a7873e760464ec3a3b63cb1768298e8-element-47">250</text>
    <text x="18.63" y="46.93" text-anchor="end" dy="0.35em" id="fig-8a7873e760464ec3a3b63cb1768298e8-element-48">300</text>
    <text x="18.63" y="36.95" text-anchor="end" dy="0.35em" id="fig-8a7873e760464ec3a3b63cb1768298e8-element-49">350</text>
    <text x="18.63" y="26.97" text-anchor="end" dy="0.35em" id="fig-8a7873e760464ec3a3b63cb1768298e8-element-50">400</text>
    <text x="18.63" y="16.98" text-anchor="end" dy="0.35em" id="fig-8a7873e760464ec3a3b63cb1768298e8-element-51">450</text>
    <text x="18.63" y="7" text-anchor="end" dy="0.35em" id="fig-8a7873e760464ec3a3b63cb1768298e8-element-52">500</text>
  </g>
</g>
<defs>
<clipPath id="fig-8a7873e760464ec3a3b63cb1768298e8-element-18">
  <path d="M19.63,5 L 183.85 5 183.85 58.91 19.63 58.91" />
</clipPath
></defs>
</svg>
