<?xml version="1.0" encoding="UTF-8"?>
<svg xmlns="http://www.w3.org/2000/svg"
     xmlns:xlink="http://www.w3.org/1999/xlink"
     xmlns:gadfly="http://www.gadflyjl.org/ns"
     version="1.2"
     width="203.2mm" height="76.2mm" viewBox="0 0 203.2 76.2"
     stroke="none"
     fill="#000000"
     stroke-width="0.3"
     font-size="3.88"
>
<g class="plotroot xscalable yscalable" id="fig-22eb4e44f22249b8997ef85a04830ab5-element-1">
  <g font-size="3.88" font-family="'PT Sans','Helvetica Neue','Helvetica',sans-serif" fill="#564A55" stroke="none" id="fig-22eb4e44f22249b8997ef85a04830ab5-element-2">
    <text x="101.74" y="68.2" text-anchor="middle">Date</text>
  </g>
  <g class="guide xlabels" font-size="2.82" font-family="'PT Sans Caption','Helvetica Neue','Helvetica',sans-serif" fill="#6C606B" id="fig-22eb4e44f22249b8997ef85a04830ab5-element-3">
    <text x="23.13" y="62.59" text-anchor="middle">Apr</text>
    <text x="44.09" y="62.59" text-anchor="middle">May</text>
    <text x="65.75" y="62.59" text-anchor="middle">June</text>
    <text x="86.72" y="62.59" text-anchor="middle">July</text>
    <text x="108.38" y="62.59" text-anchor="middle">Aug</text>
    <text x="130.05" y="62.59" text-anchor="middle">Sept</text>
    <text x="151.01" y="62.59" text-anchor="middle">Oct</text>
    <text x="172.67" y="62.59" text-anchor="middle">Nev</text>
  </g>
  <g class="guide colorkey" id="fig-22eb4e44f22249b8997ef85a04830ab5-element-4">
    <g fill="#4C404B" font-size="2.82" font-family="'PT Sans','Helvetica Neue','Helvetica',sans-serif" id="fig-22eb4e44f22249b8997ef85a04830ab5-element-5">
      <text x="187.67" y="30.14" dy="0.35em" id="fig-22eb4e44f22249b8997ef85a04830ab5-element-6" class="color_0.2">0.2</text>
      <text x="187.67" y="33.77" dy="0.35em" id="fig-22eb4e44f22249b8997ef85a04830ab5-element-7" class="color_0.3">0.3</text>
      <text x="187.67" y="37.4" dy="0.35em" id="fig-22eb4e44f22249b8997ef85a04830ab5-element-8" class="color_0.4">0.4</text>
    </g>
    <g stroke="none" id="fig-22eb4e44f22249b8997ef85a04830ab5-element-9">
      <rect x="184.85" y="29.24" width="1.81" height="1.81" id="fig-22eb4e44f22249b8997ef85a04830ab5-element-10" fill="#00BFFF" class="color_0.2"/>
      <rect x="184.85" y="32.86" width="1.81" height="1.81" id="fig-22eb4e44f22249b8997ef85a04830ab5-element-11" fill="#D4CA3A" class="color_0.3"/>
      <rect x="184.85" y="36.49" width="1.81" height="1.81" id="fig-22eb4e44f22249b8997ef85a04830ab5-element-12" fill="#FF5EA0" class="color_0.4"/>
    </g>
    <g fill="#362A35" font-size="3.88" font-family="'PT Sans','Helvetica Neue','Helvetica',sans-serif" stroke="none" id="fig-22eb4e44f22249b8997ef85a04830ab5-element-13">
      <text x="184.85" y="26.32" id="fig-22eb4e44f22249b8997ef85a04830ab5-element-14">Julia ver.</text>
    </g>
  </g>
  <g font-size="3.88" font-family="'PT Sans','Helvetica Neue','Helvetica',sans-serif" fill="#564A55" stroke="none" id="fig-22eb4e44f22249b8997ef85a04830ab5-element-15">
    <text x="8.81" y="29.96" text-anchor="middle" dy="0.35em" transform="rotate(-90, 8.81, 31.96)" id="fig-22eb4e44f22249b8997ef85a04830ab5-element-16">Number of Tagged Packages</text>
  </g>
  <g clip-path="url(#fig-22eb4e44f22249b8997ef85a04830ab5-element-18)" id="fig-22eb4e44f22249b8997ef85a04830ab5-element-17">
    <g pointer-events="visible" opacity="1" fill="none" stroke="none" class="guide background" id="fig-22eb4e44f22249b8997ef85a04830ab5-element-19">
      <rect x="19.63" y="5" width="164.22" height="53.91" id="fig-22eb4e44f22249b8997ef85a04830ab5-element-20"/>
    </g>
    <g class="guide ygridlines xfixed" stroke-dasharray="0.5,0.5" stroke-width="0.2" stroke="#D0D0E0" id="fig-22eb4e44f22249b8997ef85a04830ab5-element-21">
      <path fill="none" d="M19.63,56.91 L 183.85 56.91" id="fig-22eb4e44f22249b8997ef85a04830ab5-element-22"/>
      <path fill="none" d="M19.63,44.44 L 183.85 44.44" id="fig-22eb4e44f22249b8997ef85a04830ab5-element-23"/>
      <path fill="none" d="M19.63,31.96 L 183.85 31.96" id="fig-22eb4e44f22249b8997ef85a04830ab5-element-24"/>
      <path fill="none" d="M19.63,19.48 L 183.85 19.48" id="fig-22eb4e44f22249b8997ef85a04830ab5-element-25"/>
      <path fill="none" d="M19.63,7 L 183.85 7" id="fig-22eb4e44f22249b8997ef85a04830ab5-element-26"/>
    </g>
    <g class="guide xgridlines yfixed" stroke-dasharray="0.5,0.5" stroke-width="0.2" stroke="#D0D0E0" id="fig-22eb4e44f22249b8997ef85a04830ab5-element-27">
      <path fill="none" d="M23.13,5 L 23.13 58.91" id="fig-22eb4e44f22249b8997ef85a04830ab5-element-28"/>
      <path fill="none" d="M44.09,5 L 44.09 58.91" id="fig-22eb4e44f22249b8997ef85a04830ab5-element-29"/>
      <path fill="none" d="M65.75,5 L 65.75 58.91" id="fig-22eb4e44f22249b8997ef85a04830ab5-element-30"/>
      <path fill="none" d="M86.72,5 L 86.72 58.91" id="fig-22eb4e44f22249b8997ef85a04830ab5-element-31"/>
      <path fill="none" d="M108.38,5 L 108.38 58.91" id="fig-22eb4e44f22249b8997ef85a04830ab5-element-32"/>
      <path fill="none" d="M130.05,5 L 130.05 58.91" id="fig-22eb4e44f22249b8997ef85a04830ab5-element-33"/>
      <path fill="none" d="M151.01,5 L 151.01 58.91" id="fig-22eb4e44f22249b8997ef85a04830ab5-element-34"/>
      <path fill="none" d="M172.67,5 L 172.67 58.91" id="fig-22eb4e44f22249b8997ef85a04830ab5-element-35"/>
    </g>
    <g class="plotpanel" id="fig-22eb4e44f22249b8997ef85a04830ab5-element-36">
      <g stroke-width="0.79" fill="none" class="geometry color_0.4" stroke="#FF5EA0" id="fig-22eb4e44f22249b8997ef85a04830ab5-element-37">
        <path fill="none" d="M116.77,28.46 L 117.47 27.71 118.17 27.47 118.86 27.22 119.56 27.22 120.26 27.22 121.66 26.47 122.36 26.47 123.06 26.22 123.76 26.22 124.45 26.22 125.15 25.47 125.85 24.97 126.55 24.97 127.95 24.47 128.65 23.72 130.05 23.22 130.74 23.22 131.44 23.22 134.24 23.22 136.33 21.72 137.03 21.48 137.73 21.23 138.43 20.73 139.13 20.73 139.83 20.73 140.53 18.73 141.23 18.73 141.93 18.73 143.32 18.48 144.02 18.48 144.72 18.23 145.42 18.23 146.12 18.23 146.82 17.98 147.52 17.98 148.91 18.23 149.61 17.98 150.31 17.98 151.01 17.48 151.71 16.98 152.41 16.98 153.11 16.98 153.8 16.48 155.9 15.98 156.6 15.98 157.3 15.49 158 15.24 158.7 15.24 159.4 15.24 160.09 14.74 160.79 14.74 161.49 14.49 162.19 14.24 162.89 14.24 163.59 14.24 164.29 14.24 164.99 13.74 165.68 13.24 166.38 13.24 167.08 13.24 167.78 12.99 168.48 12.99 169.18 12.74 169.88 12.74 170.58 12.24 171.28 11.99 171.97 11.99 172.67 11.74 173.37 11.74 174.07 11.74 174.77 11.74 175.47 11.49 176.17 11.24 178.26 11.24 181.76 9.75" id="fig-22eb4e44f22249b8997ef85a04830ab5-element-38"/>
      </g>
      <g stroke-width="0.79" fill="none" class="geometry color_0.3" stroke="#D4CA3A" id="fig-22eb4e44f22249b8997ef85a04830ab5-element-39">
        <path fill="none" d="M21.73,45.43 L 22.43 45.43 23.13 45.18 23.82 45.18 24.52 45.18 25.22 45.18 25.92 45.18 26.62 44.94 28.02 44.94 28.72 44.69 30.11 44.44 31.51 43.94 32.21 43.94 33.61 43.94 34.31 43.69 39.2 42.69 41.3 42.69 42.69 42.69 47.58 42.44 48.28 41.94 48.98 41.69 49.68 41.69 50.38 41.69 51.08 41.69 51.78 41.69 52.48 41.69 53.17 41.69 53.87 41.69 54.57 41.69 55.27 40.94 56.67 40.69 57.37 40.69 58.07 40.69 58.77 40.19 59.46 40.19 60.16 40.19 60.86 39.94 61.56 39.94 62.26 39.94 62.96 39.94 63.66 39.94 64.36 39.69 65.05 39.69 65.75 49.68 66.45 39.44 67.15 39.2 67.85 38.95 72.04 37.45 72.74 37.2 73.44 36.95 74.14 36.7 74.84 36.2 75.54 36.2 76.24 35.7 76.93 35.7 77.63 35.45 78.33 35.2 79.73 35.2 80.43 34.7 81.13 34.7 81.83 34.7 82.53 34.7 83.22 34.7 83.92 33.95 84.62 33.95 86.02 33.7 86.72 33.21 87.42 32.96 88.12 32.71 88.81 32.71 89.51 32.21 90.91 31.96 91.61 31.21 92.31 31.21 93.01 31.21 94.41 29.96 95.8 29.21 96.5 29.21 97.2 28.96 97.9 28.96 100 28.71 100.69 28.71 101.39 28.46 102.09 28.46 102.79 28.46 103.49 28.21 104.19 27.96 104.89 27.71 106.29 27.71 106.98 27.71 108.38 27.71 109.08 27.47 109.78 26.72 110.48 26.72 111.88 26.47 112.57 26.47 113.27 25.97 113.97 25.72 114.67 25.47 115.37 25.22 116.07 24.97 116.77 24.47 117.47 24.47 118.17 24.22 118.86 23.97 119.56 23.97 120.26 23.97 121.66 23.22 122.36 23.22 123.06 22.97 123.76 22.97 124.45 22.97 125.15 22.22 125.85 21.97 126.55 21.72 127.95 24.72 128.65 23.97 130.05 23.47 130.74 23.47 131.44 23.47 134.24 23.47 136.33 21.97 137.03 21.72 137.73 21.48 138.43 20.98 139.13 20.98 139.83 20.98 140.53 18.98 141.23 18.98 141.93 18.98 143.32 18.98 144.02 18.73 144.72 18.48 145.42 18.48 146.12 18.48 146.82 18.23 147.52 18.23 148.91 18.48 149.61 18.23 150.31 18.23 151.01 17.73 151.71 12.74 152.41 17.23 153.11 17.23 153.8 16.73 155.9 16.23 156.6 16.23 157.3 15.74 158 15.49 158.7 15.49 159.4 15.49 160.09 14.99 160.79 14.99 161.49 14.74 162.19 14.49 162.89 14.49 163.59 14.49 164.29 14.49 164.99 14.24 165.68 13.74 166.38 13.74 167.08 13.74 167.78 13.49 168.48 13.49 169.18 13.24 169.88 13.24 170.58 12.74 171.28 12.49 171.97 12.49 172.67 12.24 173.37 12.24 174.07 12.24 174.77 11.99 175.47 11.99 176.17 11.74 178.26 11.74 181.76 10.49" id="fig-22eb4e44f22249b8997ef85a04830ab5-element-40"/>
      </g>
      <g stroke-width="0.79" fill="none" class="geometry color_0.2" stroke="#00BFFF" id="fig-22eb4e44f22249b8997ef85a04830ab5-element-41">
        <path fill="none" d="M21.73,48.18 L 22.43 48.18 23.13 47.93 23.82 47.93 24.52 47.93 25.22 47.93 25.92 47.93 26.62 47.93 28.02 47.93 28.72 47.93 30.11 47.68 31.51 47.43 32.21 47.43 33.61 47.18 34.31 46.93 39.2 46.43 41.3 46.43 42.69 46.43 47.58 46.18 48.28 45.93 48.98 45.93 49.68 45.93 50.38 45.93 51.08 45.93 51.78 45.93 52.48 45.93 53.17 45.93 53.87 45.93 54.57 45.18 55.27 45.18 56.67 44.94 57.37 44.94 58.07 44.94 58.77 44.69 59.46 46.68 60.16 45.43 60.86 45.43 61.56 45.43 62.26 45.43 62.96 45.43 63.66 45.43 64.36 45.43 65.05 45.43 65.75 45.18 66.45 45.18 67.15 44.94 67.85 44.94 72.04 43.69 72.74 43.69 73.44 43.44 74.14 43.19 74.84 42.69 75.54 42.69 76.24 42.69 76.93 42.69 77.63 42.69 78.33 42.44 79.73 42.44 80.43 41.94 81.13 41.94 81.83 41.94 82.53 41.94 83.22 41.94 83.92 41.19 84.62 41.19 86.02 40.94 86.72 40.44 87.42 40.19 88.12 39.94 88.81 39.94 89.51 39.94 90.91 39.44 91.61 39.2 92.31 38.95 93.01 38.95 94.41 38.45 95.8 37.95 96.5 37.95 97.2 37.95 97.9 37.95 100 37.95 100.69 37.95 101.39 37.7 102.09 37.7 102.79 37.7 103.49 37.45 104.19 37.45 104.89 37.45 106.29 37.2 106.98 37.2 108.38 37.2 109.08 37.2 109.78 36.45 110.48 36.45 111.88 36.95 112.57 36.95 113.27 36.45 113.97 36.2 114.67 36.2 115.37 35.7 116.07 35.7" id="fig-22eb4e44f22249b8997ef85a04830ab5-element-42"/>
      </g>
    </g>
  </g>
  <g class="guide ylabels" font-size="2.82" font-family="'PT Sans Caption','Helvetica Neue','Helvetica',sans-serif" fill="#6C606B" id="fig-22eb4e44f22249b8997ef85a04830ab5-element-43">
    <text x="18.63" y="56.91" text-anchor="end" dy="0.35em" id="fig-22eb4e44f22249b8997ef85a04830ab5-element-44">250</text>
    <text x="18.63" y="44.44" text-anchor="end" dy="0.35em" id="fig-22eb4e44f22249b8997ef85a04830ab5-element-45">300</text>
    <text x="18.63" y="31.96" text-anchor="end" dy="0.35em" id="fig-22eb4e44f22249b8997ef85a04830ab5-element-46">350</text>
    <text x="18.63" y="19.48" text-anchor="end" dy="0.35em" id="fig-22eb4e44f22249b8997ef85a04830ab5-element-47">400</text>
    <text x="18.63" y="7" text-anchor="end" dy="0.35em" id="fig-22eb4e44f22249b8997ef85a04830ab5-element-48">450</text>
  </g>
</g>
<defs>
<clipPath id="fig-22eb4e44f22249b8997ef85a04830ab5-element-18">
  <path d="M19.63,5 L 183.85 5 183.85 58.91 19.63 58.91" />
</clipPath
></defs>
</svg>
