<?xml version="1.0" encoding="UTF-8"?>
<svg xmlns="http://www.w3.org/2000/svg"
     xmlns:xlink="http://www.w3.org/1999/xlink"
     xmlns:gadfly="http://www.gadflyjl.org/ns"
     version="1.2"
     width="203.2mm" height="76.2mm" viewBox="0 0 203.2 76.2"
     stroke="none"
     fill="#000000"
     stroke-width="0.3"
     font-size="3.88"
>
<g class="plotroot xscalable yscalable" id="fig-b1f71f68716c4196bcb70a48490e2397-element-1">
  <g font-size="3.88" font-family="'PT Sans','Helvetica Neue','Helvetica',sans-serif" fill="#564A55" stroke="none" id="fig-b1f71f68716c4196bcb70a48490e2397-element-2">
    <text x="101.74" y="68.2" text-anchor="middle">Date</text>
  </g>
  <g class="guide xlabels" font-size="2.82" font-family="'PT Sans Caption','Helvetica Neue','Helvetica',sans-serif" fill="#6C606B" id="fig-b1f71f68716c4196bcb70a48490e2397-element-3">
    <text x="23.1" y="62.59" text-anchor="middle">Apr</text>
    <text x="43.88" y="62.59" text-anchor="middle">May</text>
    <text x="65.36" y="62.59" text-anchor="middle">June</text>
    <text x="86.15" y="62.59" text-anchor="middle">July</text>
    <text x="107.63" y="62.59" text-anchor="middle">Aug</text>
    <text x="129.11" y="62.59" text-anchor="middle">Sept</text>
    <text x="149.9" y="62.59" text-anchor="middle">Oct</text>
    <text x="171.38" y="62.59" text-anchor="middle">Nev</text>
  </g>
  <g class="guide colorkey" id="fig-b1f71f68716c4196bcb70a48490e2397-element-4">
    <g fill="#4C404B" font-size="2.82" font-family="'PT Sans','Helvetica Neue','Helvetica',sans-serif" id="fig-b1f71f68716c4196bcb70a48490e2397-element-5">
      <text x="187.67" y="30.14" dy="0.35em" id="fig-b1f71f68716c4196bcb70a48490e2397-element-6" class="color_0.2">0.2</text>
      <text x="187.67" y="33.77" dy="0.35em" id="fig-b1f71f68716c4196bcb70a48490e2397-element-7" class="color_0.3">0.3</text>
      <text x="187.67" y="37.4" dy="0.35em" id="fig-b1f71f68716c4196bcb70a48490e2397-element-8" class="color_0.4">0.4</text>
    </g>
    <g stroke="none" id="fig-b1f71f68716c4196bcb70a48490e2397-element-9">
      <rect x="184.85" y="29.24" width="1.81" height="1.81" id="fig-b1f71f68716c4196bcb70a48490e2397-element-10" fill="#00BFFF" class="color_0.2"/>
      <rect x="184.85" y="32.86" width="1.81" height="1.81" id="fig-b1f71f68716c4196bcb70a48490e2397-element-11" fill="#D4CA3A" class="color_0.3"/>
      <rect x="184.85" y="36.49" width="1.81" height="1.81" id="fig-b1f71f68716c4196bcb70a48490e2397-element-12" fill="#FF5EA0" class="color_0.4"/>
    </g>
    <g fill="#362A35" font-size="3.88" font-family="'PT Sans','Helvetica Neue','Helvetica',sans-serif" stroke="none" id="fig-b1f71f68716c4196bcb70a48490e2397-element-13">
      <text x="184.85" y="26.32" id="fig-b1f71f68716c4196bcb70a48490e2397-element-14">Julia ver.</text>
    </g>
  </g>
  <g font-size="3.88" font-family="'PT Sans','Helvetica Neue','Helvetica',sans-serif" fill="#564A55" stroke="none" id="fig-b1f71f68716c4196bcb70a48490e2397-element-15">
    <text x="8.81" y="29.96" text-anchor="middle" dy="0.35em" transform="rotate(-90, 8.81, 31.96)" id="fig-b1f71f68716c4196bcb70a48490e2397-element-16">Number of Tagged Packages</text>
  </g>
  <g clip-path="url(#fig-b1f71f68716c4196bcb70a48490e2397-element-18)" id="fig-b1f71f68716c4196bcb70a48490e2397-element-17">
    <g pointer-events="visible" opacity="1" fill="none" stroke="none" class="guide background" id="fig-b1f71f68716c4196bcb70a48490e2397-element-19">
      <rect x="19.63" y="5" width="164.22" height="53.91" id="fig-b1f71f68716c4196bcb70a48490e2397-element-20"/>
    </g>
    <g class="guide ygridlines xfixed" stroke-dasharray="0.5,0.5" stroke-width="0.2" stroke="#D0D0E0" id="fig-b1f71f68716c4196bcb70a48490e2397-element-21">
      <path fill="none" d="M19.63,56.91 L 183.85 56.91" id="fig-b1f71f68716c4196bcb70a48490e2397-element-22"/>
      <path fill="none" d="M19.63,44.44 L 183.85 44.44" id="fig-b1f71f68716c4196bcb70a48490e2397-element-23"/>
      <path fill="none" d="M19.63,31.96 L 183.85 31.96" id="fig-b1f71f68716c4196bcb70a48490e2397-element-24"/>
      <path fill="none" d="M19.63,19.48 L 183.85 19.48" id="fig-b1f71f68716c4196bcb70a48490e2397-element-25"/>
      <path fill="none" d="M19.63,7 L 183.85 7" id="fig-b1f71f68716c4196bcb70a48490e2397-element-26"/>
    </g>
    <g class="guide xgridlines yfixed" stroke-dasharray="0.5,0.5" stroke-width="0.2" stroke="#D0D0E0" id="fig-b1f71f68716c4196bcb70a48490e2397-element-27">
      <path fill="none" d="M23.1,5 L 23.1 58.91" id="fig-b1f71f68716c4196bcb70a48490e2397-element-28"/>
      <path fill="none" d="M43.88,5 L 43.88 58.91" id="fig-b1f71f68716c4196bcb70a48490e2397-element-29"/>
      <path fill="none" d="M65.36,5 L 65.36 58.91" id="fig-b1f71f68716c4196bcb70a48490e2397-element-30"/>
      <path fill="none" d="M86.15,5 L 86.15 58.91" id="fig-b1f71f68716c4196bcb70a48490e2397-element-31"/>
      <path fill="none" d="M107.63,5 L 107.63 58.91" id="fig-b1f71f68716c4196bcb70a48490e2397-element-32"/>
      <path fill="none" d="M129.11,5 L 129.11 58.91" id="fig-b1f71f68716c4196bcb70a48490e2397-element-33"/>
      <path fill="none" d="M149.9,5 L 149.9 58.91" id="fig-b1f71f68716c4196bcb70a48490e2397-element-34"/>
      <path fill="none" d="M171.38,5 L 171.38 58.91" id="fig-b1f71f68716c4196bcb70a48490e2397-element-35"/>
    </g>
    <g class="plotpanel" id="fig-b1f71f68716c4196bcb70a48490e2397-element-36">
      <g stroke-width="0.79" fill="none" class="geometry color_0.4" stroke="#FF5EA0" id="fig-b1f71f68716c4196bcb70a48490e2397-element-37">
        <path fill="none" d="M115.95,28.46 L 116.64 27.71 117.33 27.47 118.03 27.22 118.72 27.22 119.41 27.22 120.8 26.47 121.49 26.47 122.18 26.22 122.88 26.22 123.57 26.22 124.26 25.47 124.96 24.97 125.65 24.97 127.03 24.47 127.73 23.72 129.11 23.22 129.81 23.22 130.5 23.22 133.27 23.22 135.35 21.72 136.04 21.48 136.74 21.23 137.43 20.73 138.12 20.73 138.81 20.73 139.51 18.73 140.2 18.73 140.89 18.73 142.28 18.48 142.97 18.48 143.66 18.23 144.36 18.23 145.05 18.23 145.74 17.98 146.44 17.98 147.82 18.23 148.52 17.98 149.21 17.98 149.9 17.48 150.59 16.98 151.29 16.98 151.98 16.98 152.67 16.48 154.75 15.98 155.44 15.98 156.14 15.49 156.83 15.24 157.52 15.24 158.22 15.24 158.91 14.74 159.6 14.74 160.29 14.49 160.99 14.24 161.68 14.24 162.37 14.24 163.07 14.24 163.76 13.74 164.45 13.24 165.15 13.24 165.84 13.24 166.53 12.99 167.22 12.99 167.92 12.74 168.61 12.74 169.3 12.24 170 11.99 170.69 11.99 171.38 11.74 172.07 11.74 172.77 11.74 173.46 11.74 174.15 11.49 174.85 11.24 176.92 11.24 180.39 9.75 181.08 9.25 181.78 9.25" id="fig-b1f71f68716c4196bcb70a48490e2397-element-38"/>
      </g>
      <g stroke-width="0.79" fill="none" class="geometry color_0.3" stroke="#D4CA3A" id="fig-b1f71f68716c4196bcb70a48490e2397-element-39">
        <path fill="none" d="M21.71,45.43 L 22.4 45.43 23.1 45.18 23.79 45.18 24.48 45.18 25.18 45.18 25.87 45.18 26.56 44.94 27.95 44.94 28.64 44.69 30.03 44.44 31.41 43.94 32.1 43.94 33.49 43.94 34.18 43.69 39.03 42.69 41.11 42.69 42.5 42.69 47.35 42.44 48.04 41.94 48.73 41.69 49.43 41.69 50.12 41.69 50.81 41.69 51.51 41.69 52.2 41.69 52.89 41.69 53.58 41.69 54.28 41.69 54.97 40.94 56.36 40.69 57.05 40.69 57.74 40.69 58.44 40.19 59.13 40.19 59.82 40.19 60.51 39.94 61.21 39.94 61.9 39.94 62.59 39.94 63.29 39.94 63.98 39.69 64.67 39.69 65.36 49.68 66.06 39.44 66.75 39.2 67.44 38.95 71.6 37.45 72.29 37.2 72.99 36.95 73.68 36.7 74.37 36.2 75.07 36.2 75.76 35.7 76.45 35.7 77.14 35.45 77.84 35.2 79.22 35.2 79.92 34.7 80.61 34.7 81.3 34.7 81.99 34.7 82.69 34.7 83.38 33.95 84.07 33.95 85.46 33.7 86.15 33.21 86.85 32.96 87.54 32.71 88.23 32.71 88.92 32.21 90.31 31.96 91 31.21 91.7 31.21 92.39 31.21 93.77 29.96 95.16 29.21 95.85 29.21 96.55 28.96 97.24 28.96 99.32 28.71 100.01 28.71 100.7 28.46 101.4 28.46 102.09 28.46 102.78 28.21 103.48 27.96 104.17 27.71 105.55 27.71 106.25 27.71 107.63 27.71 108.33 27.47 109.02 26.72 109.71 26.72 111.1 26.47 111.79 26.47 112.48 25.97 113.18 25.72 113.87 25.47 114.56 25.22 115.25 24.97 115.95 24.47 116.64 24.47 117.33 24.22 118.03 23.97 118.72 23.97 119.41 23.97 120.8 23.22 121.49 23.22 122.18 22.97 122.88 22.97 123.57 22.97 124.26 22.22 124.96 21.97 125.65 21.72 127.03 24.72 127.73 23.97 129.11 23.47 129.81 23.47 130.5 23.47 133.27 23.47 135.35 21.97 136.04 21.72 136.74 21.48 137.43 20.98 138.12 20.98 138.81 20.98 139.51 18.98 140.2 18.98 140.89 18.98 142.28 18.98 142.97 18.73 143.66 18.48 144.36 18.48 145.05 18.48 145.74 18.23 146.44 18.23 147.82 18.48 148.52 18.23 149.21 18.23 149.9 17.73 150.59 12.74 151.29 17.23 151.98 17.23 152.67 16.73 154.75 16.23 155.44 16.23 156.14 15.74 156.83 15.49 157.52 15.49 158.22 15.49 158.91 14.99 159.6 14.99 160.29 14.74 160.99 14.49 161.68 14.49 162.37 14.49 163.07 14.49 163.76 14.24 164.45 13.74 165.15 13.74 165.84 13.74 166.53 13.49 167.22 13.49 167.92 13.24 168.61 13.24 169.3 12.74 170 12.49 170.69 12.49 171.38 12.24 172.07 12.24 172.77 12.24 173.46 11.99 174.15 11.99 174.85 11.74 176.92 11.74 180.39 10.49 181.08 9.99 181.78 9.99" id="fig-b1f71f68716c4196bcb70a48490e2397-element-40"/>
      </g>
      <g stroke-width="0.79" fill="none" class="geometry color_0.2" stroke="#00BFFF" id="fig-b1f71f68716c4196bcb70a48490e2397-element-41">
        <path fill="none" d="M21.71,48.18 L 22.4 48.18 23.1 47.93 23.79 47.93 24.48 47.93 25.18 47.93 25.87 47.93 26.56 47.93 27.95 47.93 28.64 47.93 30.03 47.68 31.41 47.43 32.1 47.43 33.49 47.18 34.18 46.93 39.03 46.43 41.11 46.43 42.5 46.43 47.35 46.18 48.04 45.93 48.73 45.93 49.43 45.93 50.12 45.93 50.81 45.93 51.51 45.93 52.2 45.93 52.89 45.93 53.58 45.93 54.28 45.18 54.97 45.18 56.36 44.94 57.05 44.94 57.74 44.94 58.44 44.69 59.13 46.68 59.82 45.43 60.51 45.43 61.21 45.43 61.9 45.43 62.59 45.43 63.29 45.43 63.98 45.43 64.67 45.43 65.36 45.18 66.06 45.18 66.75 44.94 67.44 44.94 71.6 43.69 72.29 43.69 72.99 43.44 73.68 43.19 74.37 42.69 75.07 42.69 75.76 42.69 76.45 42.69 77.14 42.69 77.84 42.44 79.22 42.44 79.92 41.94 80.61 41.94 81.3 41.94 81.99 41.94 82.69 41.94 83.38 41.19 84.07 41.19 85.46 40.94 86.15 40.44 86.85 40.19 87.54 39.94 88.23 39.94 88.92 39.94 90.31 39.44 91 39.2 91.7 38.95 92.39 38.95 93.77 38.45 95.16 37.95 95.85 37.95 96.55 37.95 97.24 37.95 99.32 37.95 100.01 37.95 100.7 37.7 101.4 37.7 102.09 37.7 102.78 37.45 103.48 37.45 104.17 37.45 105.55 37.2 106.25 37.2 107.63 37.2 108.33 37.2 109.02 36.45 109.71 36.45 111.1 36.95 111.79 36.95 112.48 36.45 113.18 36.2 113.87 36.2 114.56 35.7 115.25 35.7" id="fig-b1f71f68716c4196bcb70a48490e2397-element-42"/>
      </g>
    </g>
  </g>
  <g class="guide ylabels" font-size="2.82" font-family="'PT Sans Caption','Helvetica Neue','Helvetica',sans-serif" fill="#6C606B" id="fig-b1f71f68716c4196bcb70a48490e2397-element-43">
    <text x="18.63" y="56.91" text-anchor="end" dy="0.35em" id="fig-b1f71f68716c4196bcb70a48490e2397-element-44">250</text>
    <text x="18.63" y="44.44" text-anchor="end" dy="0.35em" id="fig-b1f71f68716c4196bcb70a48490e2397-element-45">300</text>
    <text x="18.63" y="31.96" text-anchor="end" dy="0.35em" id="fig-b1f71f68716c4196bcb70a48490e2397-element-46">350</text>
    <text x="18.63" y="19.48" text-anchor="end" dy="0.35em" id="fig-b1f71f68716c4196bcb70a48490e2397-element-47">400</text>
    <text x="18.63" y="7" text-anchor="end" dy="0.35em" id="fig-b1f71f68716c4196bcb70a48490e2397-element-48">450</text>
  </g>
</g>
<defs>
<clipPath id="fig-b1f71f68716c4196bcb70a48490e2397-element-18">
  <path d="M19.63,5 L 183.85 5 183.85 58.91 19.63 58.91" />
</clipPath
></defs>
</svg>
