<?xml version="1.0" encoding="UTF-8"?>
<svg xmlns="http://www.w3.org/2000/svg"
     xmlns:xlink="http://www.w3.org/1999/xlink"
     xmlns:gadfly="http://www.gadflyjl.org/ns"
     version="1.2"
     width="203.2mm" height="76.2mm" viewBox="0 0 203.2 76.2"
     stroke="none"
     fill="#000000"
     stroke-width="0.3"
     font-size="3.88"
>
<g class="plotroot xscalable yscalable" id="fig-f861f7b48536463d93732f83bb6a148d-element-1">
  <g font-size="3.88" font-family="'PT Sans','Helvetica Neue','Helvetica',sans-serif" fill="#564A55" stroke="none" id="fig-f861f7b48536463d93732f83bb6a148d-element-2">
    <text x="101.74" y="68.2" text-anchor="middle">Date</text>
  </g>
  <g class="guide xlabels" font-size="2.82" font-family="'PT Sans Caption','Helvetica Neue','Helvetica',sans-serif" fill="#6C606B" id="fig-f861f7b48536463d93732f83bb6a148d-element-3">
    <text x="22.56" y="62.59" text-anchor="middle">Apr</text>
    <text x="40.16" y="62.59" text-anchor="middle">May</text>
    <text x="58.34" y="62.59" text-anchor="middle">Jun</text>
    <text x="75.94" y="62.59" text-anchor="middle">Jul</text>
    <text x="94.12" y="62.59" text-anchor="middle">Aug</text>
    <text x="112.3" y="62.59" text-anchor="middle">Sep</text>
    <text x="129.9" y="62.59" text-anchor="middle">Oct</text>
    <text x="148.08" y="62.59" text-anchor="middle">Nov</text>
    <text x="165.67" y="62.59" text-anchor="middle">Dec</text>
  </g>
  <g class="guide colorkey" id="fig-f861f7b48536463d93732f83bb6a148d-element-4">
    <g fill="#4C404B" font-size="2.82" font-family="'PT Sans','Helvetica Neue','Helvetica',sans-serif" id="fig-f861f7b48536463d93732f83bb6a148d-element-5">
      <text x="187.67" y="30.14" dy="0.35em" id="fig-f861f7b48536463d93732f83bb6a148d-element-6" class="color_0.2">0.2</text>
      <text x="187.67" y="33.77" dy="0.35em" id="fig-f861f7b48536463d93732f83bb6a148d-element-7" class="color_0.3">0.3</text>
      <text x="187.67" y="37.4" dy="0.35em" id="fig-f861f7b48536463d93732f83bb6a148d-element-8" class="color_0.4">0.4</text>
    </g>
    <g stroke="none" id="fig-f861f7b48536463d93732f83bb6a148d-element-9">
      <rect x="184.85" y="29.24" width="1.81" height="1.81" id="fig-f861f7b48536463d93732f83bb6a148d-element-10" class="color_0.2" fill="#00BFFF"/>
      <rect x="184.85" y="32.86" width="1.81" height="1.81" id="fig-f861f7b48536463d93732f83bb6a148d-element-11" class="color_0.3" fill="#D4CA3A"/>
      <rect x="184.85" y="36.49" width="1.81" height="1.81" id="fig-f861f7b48536463d93732f83bb6a148d-element-12" class="color_0.4" fill="#FF5EA0"/>
    </g>
    <g fill="#362A35" font-size="3.88" font-family="'PT Sans','Helvetica Neue','Helvetica',sans-serif" stroke="none" id="fig-f861f7b48536463d93732f83bb6a148d-element-13">
      <text x="184.85" y="26.32" id="fig-f861f7b48536463d93732f83bb6a148d-element-14">Julia ver.</text>
    </g>
  </g>
  <g font-size="3.88" font-family="'PT Sans','Helvetica Neue','Helvetica',sans-serif" fill="#564A55" stroke="none" id="fig-f861f7b48536463d93732f83bb6a148d-element-15">
    <text x="8.81" y="29.96" text-anchor="middle" dy="0.35em" transform="rotate(-90, 8.81, 31.96)" id="fig-f861f7b48536463d93732f83bb6a148d-element-16">Number of Tagged Packages</text>
  </g>
  <g clip-path="url(#fig-f861f7b48536463d93732f83bb6a148d-element-18)" id="fig-f861f7b48536463d93732f83bb6a148d-element-17">
    <g pointer-events="visible" opacity="1" fill="none" stroke="none" class="guide background" id="fig-f861f7b48536463d93732f83bb6a148d-element-19">
      <rect x="19.63" y="5" width="164.22" height="53.91" id="fig-f861f7b48536463d93732f83bb6a148d-element-20"/>
    </g>
    <g class="guide ygridlines xfixed" stroke-dasharray="0.5,0.5" stroke-width="0.2" stroke="#D0D0E0" id="fig-f861f7b48536463d93732f83bb6a148d-element-21">
      <path fill="none" d="M19.63,56.92 L 183.85 56.92" id="fig-f861f7b48536463d93732f83bb6a148d-element-22"/>
      <path fill="none" d="M19.63,46.93 L 183.85 46.93" id="fig-f861f7b48536463d93732f83bb6a148d-element-23"/>
      <path fill="none" d="M19.63,36.95 L 183.85 36.95" id="fig-f861f7b48536463d93732f83bb6a148d-element-24"/>
      <path fill="none" d="M19.63,26.97 L 183.85 26.97" id="fig-f861f7b48536463d93732f83bb6a148d-element-25"/>
      <path fill="none" d="M19.63,16.98 L 183.85 16.98" id="fig-f861f7b48536463d93732f83bb6a148d-element-26"/>
      <path fill="none" d="M19.63,7 L 183.85 7" id="fig-f861f7b48536463d93732f83bb6a148d-element-27"/>
    </g>
    <g class="guide xgridlines yfixed" stroke-dasharray="0.5,0.5" stroke-width="0.2" stroke="#D0D0E0" id="fig-f861f7b48536463d93732f83bb6a148d-element-28">
      <path fill="none" d="M22.56,5 L 22.56 58.91" id="fig-f861f7b48536463d93732f83bb6a148d-element-29"/>
      <path fill="none" d="M40.16,5 L 40.16 58.91" id="fig-f861f7b48536463d93732f83bb6a148d-element-30"/>
      <path fill="none" d="M58.34,5 L 58.34 58.91" id="fig-f861f7b48536463d93732f83bb6a148d-element-31"/>
      <path fill="none" d="M75.94,5 L 75.94 58.91" id="fig-f861f7b48536463d93732f83bb6a148d-element-32"/>
      <path fill="none" d="M94.12,5 L 94.12 58.91" id="fig-f861f7b48536463d93732f83bb6a148d-element-33"/>
      <path fill="none" d="M112.3,5 L 112.3 58.91" id="fig-f861f7b48536463d93732f83bb6a148d-element-34"/>
      <path fill="none" d="M129.9,5 L 129.9 58.91" id="fig-f861f7b48536463d93732f83bb6a148d-element-35"/>
      <path fill="none" d="M148.08,5 L 148.08 58.91" id="fig-f861f7b48536463d93732f83bb6a148d-element-36"/>
      <path fill="none" d="M165.67,5 L 165.67 58.91" id="fig-f861f7b48536463d93732f83bb6a148d-element-37"/>
    </g>
    <g class="plotpanel" id="fig-f861f7b48536463d93732f83bb6a148d-element-38">
      <g stroke-width="0.79" fill="none" class="geometry color_0.4" stroke="#FF5EA0" id="fig-f861f7b48536463d93732f83bb6a148d-element-39">
        <path fill="none" d="M101.16,34.15 L 101.74 33.55 102.33 33.36 102.92 33.16 103.5 33.16 104.09 33.16 105.26 32.56 105.85 32.56 106.43 32.36 107.02 32.36 107.61 32.36 108.19 31.76 108.78 31.36 109.37 31.36 110.54 30.96 111.13 30.36 112.3 29.96 112.89 29.96 113.47 29.96 115.82 29.96 117.58 28.76 118.17 28.56 118.75 28.36 119.34 27.96 119.92 27.96 120.51 27.96 121.1 26.37 121.68 26.37 122.27 26.37 123.44 26.17 124.03 26.17 124.62 25.97 125.2 25.97 125.79 25.97 126.38 25.77 126.96 25.77 128.14 25.97 128.72 25.77 129.31 25.77 129.9 25.37 130.48 24.97 131.07 24.97 131.65 24.97 132.24 24.57 134 24.17 134.59 24.17 135.17 23.77 135.76 23.57 136.35 23.57 136.93 23.57 137.52 23.17 138.11 23.17 138.69 22.97 139.28 22.77 139.87 22.77 140.45 22.77 141.04 22.77 141.63 22.37 142.21 21.97 142.8 21.97 143.39 21.97 143.97 21.77 144.56 21.77 145.14 21.58 145.73 21.58 146.32 21.18 146.9 20.98 147.49 20.98 148.08 20.78 148.66 20.78 149.25 20.78 149.84 20.78 150.42 20.58 151.01 20.38 152.77 20.38 155.7 19.18 156.29 18.78 156.87 18.78 157.46 18.58 158.05 18.58 158.63 17.98 159.22 17.98 161.57 16.98 162.15 16.98 165.09 16.78 166.26 16.78 166.85 16.38 167.43 16.18 168.02 16.18 168.6 16.18 169.19 15.79 169.78 15.39 171.54 15.19 172.12 14.99 173.3 14.19 173.88 14.19 174.47 14.19 176.23 14.19 177.4 13.79 179.16 13.39 181.51 12.99" id="fig-f861f7b48536463d93732f83bb6a148d-element-40"/>
      </g>
      <g stroke-width="0.79" fill="none" class="geometry color_0.3" stroke="#D4CA3A" id="fig-f861f7b48536463d93732f83bb6a148d-element-41">
        <path fill="none" d="M21.39,47.73 L 21.98 47.73 22.56 47.53 23.15 47.53 23.74 47.53 24.32 47.53 24.91 47.53 25.5 47.33 26.67 47.33 27.26 47.13 28.43 46.93 29.6 46.53 30.19 46.53 31.36 46.53 31.95 46.33 36.05 45.53 37.81 45.53 38.99 45.53 43.09 45.33 43.68 44.94 44.27 44.74 44.85 44.74 45.44 44.74 46.02 44.74 46.61 44.74 47.2 44.74 47.78 44.74 48.37 44.74 48.96 44.74 49.54 44.14 50.72 43.94 51.3 43.94 51.89 43.94 52.48 43.54 53.06 43.54 53.65 43.54 54.24 43.34 54.82 43.34 55.41 43.34 56 43.34 56.58 43.34 57.17 43.14 57.75 43.14 58.34 51.12 58.93 42.94 59.51 42.74 60.1 42.54 63.62 41.34 64.21 41.14 64.79 40.94 65.38 40.74 65.97 40.34 66.55 40.34 67.14 39.94 67.73 39.94 68.31 39.74 68.9 39.54 70.07 39.54 70.66 39.15 71.24 39.15 71.83 39.15 72.42 39.15 73 39.15 73.59 38.55 74.18 38.55 75.35 38.35 75.94 37.95 76.52 37.75 77.11 37.55 77.7 37.55 78.28 37.15 79.46 36.95 80.04 36.35 80.63 36.35 81.22 36.35 82.39 35.35 83.56 34.75 84.15 34.75 84.73 34.55 85.32 34.55 87.08 34.35 87.67 34.35 88.25 34.15 88.84 34.15 89.43 34.15 90.01 33.95 90.6 33.75 91.19 33.55 92.36 33.55 92.95 33.55 94.12 33.55 94.7 33.36 95.29 32.76 95.88 32.76 97.05 32.56 97.64 32.56 98.22 32.16 98.81 31.96 99.4 31.76 99.98 31.56 100.57 31.36 101.16 30.96 101.74 30.96 102.33 30.76 102.92 30.56 103.5 30.56 104.09 30.56 105.26 29.96 105.85 29.96 106.43 29.76 107.02 29.76 107.61 29.76 108.19 29.16 108.78 28.96 109.37 28.76 110.54 31.16 111.13 30.56 112.3 30.16 112.89 30.16 113.47 30.16 115.82 30.16 117.58 28.96 118.17 28.76 118.75 28.56 119.34 28.16 119.92 28.16 120.51 28.16 121.1 26.57 121.68 26.57 122.27 26.57 123.44 26.57 124.03 26.37 124.62 26.17 125.2 26.17 125.79 26.17 126.38 25.97 126.96 25.97 128.14 26.17 128.72 25.97 129.31 25.97 129.9 25.57 130.48 21.58 131.07 25.17 131.65 25.17 132.24 24.77 134 24.37 134.59 24.37 135.17 23.97 135.76 23.77 136.35 23.77 136.93 23.77 137.52 23.37 138.11 23.37 138.69 23.17 139.28 22.97 139.87 22.97 140.45 22.97 141.04 22.97 141.63 22.77 142.21 22.37 142.8 22.37 143.39 22.37 143.97 22.17 144.56 22.17 145.14 21.97 145.73 21.97 146.32 21.58 146.9 21.38 147.49 21.38 148.08 21.18 148.66 21.18 149.25 21.18 149.84 20.98 150.42 20.98 151.01 20.78 152.77 20.78 155.7 19.78 156.29 19.38 156.87 19.38 157.46 19.18 158.05 19.18 158.63 18.58 159.22 18.58 161.57 17.58 162.15 17.58 165.09 17.38 166.26 17.38 166.85 17.18 167.43 16.98 168.02 16.98 168.6 16.98 169.19 16.58 169.78 16.38 171.54 15.98 172.12 15.79 173.3 15.19 173.88 14.99 174.47 14.99 176.23 14.99 177.4 14.59 179.16 14.19 181.51 13.79" id="fig-f861f7b48536463d93732f83bb6a148d-element-42"/>
      </g>
      <g stroke-width="0.79" fill="none" class="geometry color_0.2" stroke="#00BFFF" id="fig-f861f7b48536463d93732f83bb6a148d-element-43">
        <path fill="none" d="M21.39,49.93 L 21.98 49.93 22.56 49.73 23.15 49.73 23.74 49.73 24.32 49.73 24.91 49.73 25.5 49.73 26.67 49.73 27.26 49.73 28.43 49.53 29.6 49.33 30.19 49.33 31.36 49.13 31.95 48.93 36.05 48.53 37.81 48.53 38.99 48.53 43.09 48.33 43.68 48.13 44.27 48.13 44.85 48.13 45.44 48.13 46.02 48.13 46.61 48.13 47.2 48.13 47.78 48.13 48.37 48.13 48.96 47.53 49.54 47.53 50.72 47.33 51.3 47.33 51.89 47.33 52.48 47.13 53.06 48.73 53.65 47.73 54.24 47.73 54.82 47.73 55.41 47.73 56 47.73 56.58 47.73 57.17 47.73 57.75 47.73 58.34 47.53 58.93 47.53 59.51 47.33 60.1 47.33 63.62 46.33 64.21 46.33 64.79 46.13 65.38 45.93 65.97 45.53 66.55 45.53 67.14 45.53 67.73 45.53 68.31 45.53 68.9 45.33 70.07 45.33 70.66 44.94 71.24 44.94 71.83 44.94 72.42 44.94 73 44.94 73.59 44.34 74.18 44.34 75.35 44.14 75.94 43.74 76.52 43.54 77.11 43.34 77.7 43.34 78.28 43.34 79.46 42.94 80.04 42.74 80.63 42.54 81.22 42.54 82.39 42.14 83.56 41.74 84.15 41.74 84.73 41.74 85.32 41.74 87.08 41.74 87.67 41.74 88.25 41.54 88.84 41.54 89.43 41.54 90.01 41.34 90.6 41.34 91.19 41.34 92.36 41.14 92.95 41.14 94.12 41.14 94.7 41.14 95.29 40.54 95.88 40.54 97.05 40.94 97.64 40.94 98.22 40.54 98.81 40.34 99.4 40.34 99.98 39.94 100.57 39.94" id="fig-f861f7b48536463d93732f83bb6a148d-element-44"/>
      </g>
    </g>
  </g>
  <g class="guide ylabels" font-size="2.82" font-family="'PT Sans Caption','Helvetica Neue','Helvetica',sans-serif" fill="#6C606B" id="fig-f861f7b48536463d93732f83bb6a148d-element-45">
    <text x="18.63" y="56.92" text-anchor="end" dy="0.35em" id="fig-f861f7b48536463d93732f83bb6a148d-element-46">250</text>
    <text x="18.63" y="46.93" text-anchor="end" dy="0.35em" id="fig-f861f7b48536463d93732f83bb6a148d-element-47">300</text>
    <text x="18.63" y="36.95" text-anchor="end" dy="0.35em" id="fig-f861f7b48536463d93732f83bb6a148d-element-48">350</text>
    <text x="18.63" y="26.97" text-anchor="end" dy="0.35em" id="fig-f861f7b48536463d93732f83bb6a148d-element-49">400</text>
    <text x="18.63" y="16.98" text-anchor="end" dy="0.35em" id="fig-f861f7b48536463d93732f83bb6a148d-element-50">450</text>
    <text x="18.63" y="7" text-anchor="end" dy="0.35em" id="fig-f861f7b48536463d93732f83bb6a148d-element-51">500</text>
  </g>
</g>
<defs>
<clipPath id="fig-f861f7b48536463d93732f83bb6a148d-element-18">
  <path d="M19.63,5 L 183.85 5 183.85 58.91 19.63 58.91" />
</clipPath
></defs>
</svg>
