<?xml version="1.0" encoding="UTF-8"?>
<svg xmlns="http://www.w3.org/2000/svg"
     xmlns:xlink="http://www.w3.org/1999/xlink"
     xmlns:gadfly="http://www.gadflyjl.org/ns"
     version="1.2"
     width="203.2mm" height="76.2mm" viewBox="0 0 203.2 76.2"
     stroke="none"
     fill="#000000"
     stroke-width="0.3"
     font-size="3.88"
>
<g class="plotroot xscalable yscalable" id="fig-862612b0f9b14c229ab893dfedad9ab4-element-1">
  <g font-size="3.88" font-family="'PT Sans','Helvetica Neue','Helvetica',sans-serif" fill="#564A55" stroke="none" id="fig-862612b0f9b14c229ab893dfedad9ab4-element-2">
    <text x="101.74" y="68.2" text-anchor="middle">Date</text>
  </g>
  <g class="guide xlabels" font-size="2.82" font-family="'PT Sans Caption','Helvetica Neue','Helvetica',sans-serif" fill="#6C606B" id="fig-862612b0f9b14c229ab893dfedad9ab4-element-3">
    <text x="22.54" y="62.59" text-anchor="middle">Apr</text>
    <text x="40.01" y="62.59" text-anchor="middle">May</text>
    <text x="58.07" y="62.59" text-anchor="middle">Jun</text>
    <text x="75.54" y="62.59" text-anchor="middle">Jul</text>
    <text x="93.59" y="62.59" text-anchor="middle">Aug</text>
    <text x="111.64" y="62.59" text-anchor="middle">Sep</text>
    <text x="129.11" y="62.59" text-anchor="middle">Oct</text>
    <text x="147.17" y="62.59" text-anchor="middle">Nov</text>
    <text x="164.64" y="62.59" text-anchor="middle">Dec</text>
  </g>
  <g class="guide colorkey" id="fig-862612b0f9b14c229ab893dfedad9ab4-element-4">
    <g fill="#4C404B" font-size="2.82" font-family="'PT Sans','Helvetica Neue','Helvetica',sans-serif" id="fig-862612b0f9b14c229ab893dfedad9ab4-element-5">
      <text x="187.67" y="30.14" dy="0.35em" id="fig-862612b0f9b14c229ab893dfedad9ab4-element-6" class="color_0.2">0.2</text>
      <text x="187.67" y="33.77" dy="0.35em" id="fig-862612b0f9b14c229ab893dfedad9ab4-element-7" class="color_0.3">0.3</text>
      <text x="187.67" y="37.4" dy="0.35em" id="fig-862612b0f9b14c229ab893dfedad9ab4-element-8" class="color_0.4">0.4</text>
    </g>
    <g stroke="none" id="fig-862612b0f9b14c229ab893dfedad9ab4-element-9">
      <rect x="184.85" y="29.24" width="1.81" height="1.81" id="fig-862612b0f9b14c229ab893dfedad9ab4-element-10" class="color_0.2" fill="#00BFFF"/>
      <rect x="184.85" y="32.86" width="1.81" height="1.81" id="fig-862612b0f9b14c229ab893dfedad9ab4-element-11" class="color_0.3" fill="#D4CA3A"/>
      <rect x="184.85" y="36.49" width="1.81" height="1.81" id="fig-862612b0f9b14c229ab893dfedad9ab4-element-12" class="color_0.4" fill="#FF5EA0"/>
    </g>
    <g fill="#362A35" font-size="3.88" font-family="'PT Sans','Helvetica Neue','Helvetica',sans-serif" stroke="none" id="fig-862612b0f9b14c229ab893dfedad9ab4-element-13">
      <text x="184.85" y="26.32" id="fig-862612b0f9b14c229ab893dfedad9ab4-element-14">Julia ver.</text>
    </g>
  </g>
  <g font-size="3.88" font-family="'PT Sans','Helvetica Neue','Helvetica',sans-serif" fill="#564A55" stroke="none" id="fig-862612b0f9b14c229ab893dfedad9ab4-element-15">
    <text x="8.81" y="29.96" text-anchor="middle" dy="0.35em" transform="rotate(-90, 8.81, 31.96)" id="fig-862612b0f9b14c229ab893dfedad9ab4-element-16">Number of Tagged Packages</text>
  </g>
  <g clip-path="url(#fig-862612b0f9b14c229ab893dfedad9ab4-element-18)" id="fig-862612b0f9b14c229ab893dfedad9ab4-element-17">
    <g pointer-events="visible" opacity="1" fill="none" stroke="none" class="guide background" id="fig-862612b0f9b14c229ab893dfedad9ab4-element-19">
      <rect x="19.63" y="5" width="164.22" height="53.91" id="fig-862612b0f9b14c229ab893dfedad9ab4-element-20"/>
    </g>
    <g class="guide ygridlines xfixed" stroke-dasharray="0.5,0.5" stroke-width="0.2" stroke="#D0D0E0" id="fig-862612b0f9b14c229ab893dfedad9ab4-element-21">
      <path fill="none" d="M19.63,56.92 L 183.85 56.92" id="fig-862612b0f9b14c229ab893dfedad9ab4-element-22"/>
      <path fill="none" d="M19.63,46.93 L 183.85 46.93" id="fig-862612b0f9b14c229ab893dfedad9ab4-element-23"/>
      <path fill="none" d="M19.63,36.95 L 183.85 36.95" id="fig-862612b0f9b14c229ab893dfedad9ab4-element-24"/>
      <path fill="none" d="M19.63,26.97 L 183.85 26.97" id="fig-862612b0f9b14c229ab893dfedad9ab4-element-25"/>
      <path fill="none" d="M19.63,16.98 L 183.85 16.98" id="fig-862612b0f9b14c229ab893dfedad9ab4-element-26"/>
      <path fill="none" d="M19.63,7 L 183.85 7" id="fig-862612b0f9b14c229ab893dfedad9ab4-element-27"/>
    </g>
    <g class="guide xgridlines yfixed" stroke-dasharray="0.5,0.5" stroke-width="0.2" stroke="#D0D0E0" id="fig-862612b0f9b14c229ab893dfedad9ab4-element-28">
      <path fill="none" d="M22.54,5 L 22.54 58.91" id="fig-862612b0f9b14c229ab893dfedad9ab4-element-29"/>
      <path fill="none" d="M40.01,5 L 40.01 58.91" id="fig-862612b0f9b14c229ab893dfedad9ab4-element-30"/>
      <path fill="none" d="M58.07,5 L 58.07 58.91" id="fig-862612b0f9b14c229ab893dfedad9ab4-element-31"/>
      <path fill="none" d="M75.54,5 L 75.54 58.91" id="fig-862612b0f9b14c229ab893dfedad9ab4-element-32"/>
      <path fill="none" d="M93.59,5 L 93.59 58.91" id="fig-862612b0f9b14c229ab893dfedad9ab4-element-33"/>
      <path fill="none" d="M111.64,5 L 111.64 58.91" id="fig-862612b0f9b14c229ab893dfedad9ab4-element-34"/>
      <path fill="none" d="M129.11,5 L 129.11 58.91" id="fig-862612b0f9b14c229ab893dfedad9ab4-element-35"/>
      <path fill="none" d="M147.17,5 L 147.17 58.91" id="fig-862612b0f9b14c229ab893dfedad9ab4-element-36"/>
      <path fill="none" d="M164.64,5 L 164.64 58.91" id="fig-862612b0f9b14c229ab893dfedad9ab4-element-37"/>
    </g>
    <g class="plotpanel" id="fig-862612b0f9b14c229ab893dfedad9ab4-element-38">
      <g stroke-width="0.79" fill="none" class="geometry color_0.4" stroke="#FF5EA0" id="fig-862612b0f9b14c229ab893dfedad9ab4-element-39">
        <path fill="none" d="M100.58,34.15 L 101.16 33.55 101.74 33.36 102.33 33.16 102.91 33.16 103.49 33.16 104.65 32.56 105.24 32.56 105.82 32.36 106.4 32.36 106.98 32.36 107.57 31.76 108.15 31.36 108.73 31.36 109.9 30.96 110.48 30.36 111.64 29.96 112.23 29.96 112.81 29.96 115.14 29.96 116.88 28.76 117.47 28.56 118.05 28.36 118.63 27.96 119.21 27.96 119.8 27.96 120.38 26.37 120.96 26.37 121.54 26.37 122.71 26.17 123.29 26.17 123.87 25.97 124.45 25.97 125.04 25.97 125.62 25.77 126.2 25.77 127.37 25.97 127.95 25.77 128.53 25.77 129.11 25.37 129.7 24.97 130.28 24.97 130.86 24.97 131.44 24.57 133.19 24.17 133.77 24.17 134.35 23.77 134.94 23.57 135.52 23.57 136.1 23.57 136.68 23.17 137.27 23.17 137.85 22.97 138.43 22.77 139.01 22.77 139.6 22.77 140.18 22.77 140.76 22.37 141.34 21.97 141.93 21.97 142.51 21.97 143.09 21.77 143.67 21.77 144.25 21.58 144.84 21.58 145.42 21.18 146 20.98 146.58 20.98 147.17 20.78 147.75 20.78 148.33 20.78 148.91 20.78 149.5 20.58 150.08 20.38 151.82 20.38 154.74 19.18 155.32 18.78 155.9 18.78 156.48 18.58 157.07 18.58 157.65 17.98 158.23 17.98 160.56 16.98 161.14 16.98 164.05 16.78 165.22 16.78 165.8 16.38 166.38 16.18 166.97 16.18 167.55 16.18 168.13 15.79 168.71 15.39 170.46 15.19 171.04 14.99 172.21 14.19 172.79 14.19 173.37 14.19 175.12 14.19 176.28 13.79 178.03 13.39 180.36 12.99 181.52 12.19" id="fig-862612b0f9b14c229ab893dfedad9ab4-element-40"/>
      </g>
      <g stroke-width="0.79" fill="none" class="geometry color_0.3" stroke="#D4CA3A" id="fig-862612b0f9b14c229ab893dfedad9ab4-element-41">
        <path fill="none" d="M21.38,47.73 L 21.96 47.73 22.54 47.53 23.13 47.53 23.71 47.53 24.29 47.53 24.87 47.53 25.46 47.33 26.62 47.33 27.2 47.13 28.37 46.93 29.53 46.53 30.11 46.53 31.28 46.53 31.86 46.33 35.94 45.53 37.68 45.53 38.85 45.53 42.93 45.33 43.51 44.94 44.09 44.74 44.67 44.74 45.26 44.74 45.84 44.74 46.42 44.74 47 44.74 47.58 44.74 48.17 44.74 48.75 44.74 49.33 44.14 50.5 43.94 51.08 43.94 51.66 43.94 52.24 43.54 52.83 43.54 53.41 43.54 53.99 43.34 54.57 43.34 55.15 43.34 55.74 43.34 56.32 43.34 56.9 43.14 57.48 43.14 58.07 51.12 58.65 42.94 59.23 42.74 59.81 42.54 63.31 41.34 63.89 41.14 64.47 40.94 65.05 40.74 65.64 40.34 66.22 40.34 66.8 39.94 67.38 39.94 67.97 39.74 68.55 39.54 69.71 39.54 70.3 39.15 70.88 39.15 71.46 39.15 72.04 39.15 72.63 39.15 73.21 38.55 73.79 38.55 74.95 38.35 75.54 37.95 76.12 37.75 76.7 37.55 77.28 37.55 77.87 37.15 79.03 36.95 79.61 36.35 80.2 36.35 80.78 36.35 81.94 35.35 83.11 34.75 83.69 34.75 84.27 34.55 84.85 34.55 86.6 34.35 87.18 34.35 87.77 34.15 88.35 34.15 88.93 34.15 89.51 33.95 90.1 33.75 90.68 33.55 91.84 33.55 92.43 33.55 93.59 33.55 94.17 33.36 94.75 32.76 95.34 32.76 96.5 32.56 97.08 32.56 97.67 32.16 98.25 31.96 98.83 31.76 99.41 31.56 100 31.36 100.58 30.96 101.16 30.96 101.74 30.76 102.33 30.56 102.91 30.56 103.49 30.56 104.65 29.96 105.24 29.96 105.82 29.76 106.4 29.76 106.98 29.76 107.57 29.16 108.15 28.96 108.73 28.76 109.9 31.16 110.48 30.56 111.64 30.16 112.23 30.16 112.81 30.16 115.14 30.16 116.88 28.96 117.47 28.76 118.05 28.56 118.63 28.16 119.21 28.16 119.8 28.16 120.38 26.57 120.96 26.57 121.54 26.57 122.71 26.57 123.29 26.37 123.87 26.17 124.45 26.17 125.04 26.17 125.62 25.97 126.2 25.97 127.37 26.17 127.95 25.97 128.53 25.97 129.11 25.57 129.7 21.58 130.28 25.17 130.86 25.17 131.44 24.77 133.19 24.37 133.77 24.37 134.35 23.97 134.94 23.77 135.52 23.77 136.1 23.77 136.68 23.37 137.27 23.37 137.85 23.17 138.43 22.97 139.01 22.97 139.6 22.97 140.18 22.97 140.76 22.77 141.34 22.37 141.93 22.37 142.51 22.37 143.09 22.17 143.67 22.17 144.25 21.97 144.84 21.97 145.42 21.58 146 21.38 146.58 21.38 147.17 21.18 147.75 21.18 148.33 21.18 148.91 20.98 149.5 20.98 150.08 20.78 151.82 20.78 154.74 19.78 155.32 19.38 155.9 19.38 156.48 19.18 157.07 19.18 157.65 18.58 158.23 18.58 160.56 17.58 161.14 17.58 164.05 17.38 165.22 17.38 165.8 17.18 166.38 16.98 166.97 16.98 167.55 16.98 168.13 16.58 168.71 16.38 170.46 15.98 171.04 15.79 172.21 15.19 172.79 14.99 173.37 14.99 175.12 14.99 176.28 14.59 178.03 14.19 180.36 13.79 181.52 13.19" id="fig-862612b0f9b14c229ab893dfedad9ab4-element-42"/>
      </g>
      <g stroke-width="0.79" fill="none" class="geometry color_0.2" stroke="#00BFFF" id="fig-862612b0f9b14c229ab893dfedad9ab4-element-43">
        <path fill="none" d="M21.38,49.93 L 21.96 49.93 22.54 49.73 23.13 49.73 23.71 49.73 24.29 49.73 24.87 49.73 25.46 49.73 26.62 49.73 27.2 49.73 28.37 49.53 29.53 49.33 30.11 49.33 31.28 49.13 31.86 48.93 35.94 48.53 37.68 48.53 38.85 48.53 42.93 48.33 43.51 48.13 44.09 48.13 44.67 48.13 45.26 48.13 45.84 48.13 46.42 48.13 47 48.13 47.58 48.13 48.17 48.13 48.75 47.53 49.33 47.53 50.5 47.33 51.08 47.33 51.66 47.33 52.24 47.13 52.83 48.73 53.41 47.73 53.99 47.73 54.57 47.73 55.15 47.73 55.74 47.73 56.32 47.73 56.9 47.73 57.48 47.73 58.07 47.53 58.65 47.53 59.23 47.33 59.81 47.33 63.31 46.33 63.89 46.33 64.47 46.13 65.05 45.93 65.64 45.53 66.22 45.53 66.8 45.53 67.38 45.53 67.97 45.53 68.55 45.33 69.71 45.33 70.3 44.94 70.88 44.94 71.46 44.94 72.04 44.94 72.63 44.94 73.21 44.34 73.79 44.34 74.95 44.14 75.54 43.74 76.12 43.54 76.7 43.34 77.28 43.34 77.87 43.34 79.03 42.94 79.61 42.74 80.2 42.54 80.78 42.54 81.94 42.14 83.11 41.74 83.69 41.74 84.27 41.74 84.85 41.74 86.6 41.74 87.18 41.74 87.77 41.54 88.35 41.54 88.93 41.54 89.51 41.34 90.1 41.34 90.68 41.34 91.84 41.14 92.43 41.14 93.59 41.14 94.17 41.14 94.75 40.54 95.34 40.54 96.5 40.94 97.08 40.94 97.67 40.54 98.25 40.34 98.83 40.34 99.41 39.94 100 39.94" id="fig-862612b0f9b14c229ab893dfedad9ab4-element-44"/>
      </g>
    </g>
  </g>
  <g class="guide ylabels" font-size="2.82" font-family="'PT Sans Caption','Helvetica Neue','Helvetica',sans-serif" fill="#6C606B" id="fig-862612b0f9b14c229ab893dfedad9ab4-element-45">
    <text x="18.63" y="56.92" text-anchor="end" dy="0.35em" id="fig-862612b0f9b14c229ab893dfedad9ab4-element-46">250</text>
    <text x="18.63" y="46.93" text-anchor="end" dy="0.35em" id="fig-862612b0f9b14c229ab893dfedad9ab4-element-47">300</text>
    <text x="18.63" y="36.95" text-anchor="end" dy="0.35em" id="fig-862612b0f9b14c229ab893dfedad9ab4-element-48">350</text>
    <text x="18.63" y="26.97" text-anchor="end" dy="0.35em" id="fig-862612b0f9b14c229ab893dfedad9ab4-element-49">400</text>
    <text x="18.63" y="16.98" text-anchor="end" dy="0.35em" id="fig-862612b0f9b14c229ab893dfedad9ab4-element-50">450</text>
    <text x="18.63" y="7" text-anchor="end" dy="0.35em" id="fig-862612b0f9b14c229ab893dfedad9ab4-element-51">500</text>
  </g>
</g>
<defs>
<clipPath id="fig-862612b0f9b14c229ab893dfedad9ab4-element-18">
  <path d="M19.63,5 L 183.85 5 183.85 58.91 19.63 58.91" />
</clipPath
></defs>
</svg>
