<?xml version="1.0" encoding="UTF-8"?>
<svg xmlns="http://www.w3.org/2000/svg"
     xmlns:xlink="http://www.w3.org/1999/xlink"
     xmlns:gadfly="http://www.gadflyjl.org/ns"
     version="1.2"
     width="203.2mm" height="76.2mm" viewBox="0 0 203.2 76.2"
     stroke="none"
     fill="#000000"
     stroke-width="0.3"
     font-size="3.88"
>
<g class="plotroot xscalable yscalable" id="fig-ef77ad74b8924394b4e8671a0729813d-element-1">
  <g font-size="3.88" font-family="'PT Sans','Helvetica Neue','Helvetica',sans-serif" fill="#564A55" stroke="#000000" stroke-opacity="0.000" id="fig-ef77ad74b8924394b4e8671a0729813d-element-2">
    <text x="101.74" y="64.59" text-anchor="middle" dy="0.6em">Date</text>
  </g>
  <g class="guide xlabels" font-size="2.82" font-family="'PT Sans Caption','Helvetica Neue','Helvetica',sans-serif" fill="#6C606B" id="fig-ef77ad74b8924394b4e8671a0729813d-element-3">
    <text x="22.25" y="57.91" text-anchor="middle" dy="0.6em">Apr</text>
    <text x="31.49" y="57.91" text-anchor="middle" dy="0.6em">May</text>
    <text x="41.04" y="57.91" text-anchor="middle" dy="0.6em">Jun</text>
    <text x="50.29" y="57.91" text-anchor="middle" dy="0.6em">Jul</text>
    <text x="59.84" y="57.91" text-anchor="middle" dy="0.6em">Aug</text>
    <text x="69.39" y="57.91" text-anchor="middle" dy="0.6em">Sep</text>
    <text x="78.63" y="57.91" text-anchor="middle" dy="0.6em">Oct</text>
    <text x="88.19" y="57.91" text-anchor="middle" dy="0.6em">Nov</text>
    <text x="97.43" y="57.91" text-anchor="middle" dy="0.6em">Dec</text>
    <text x="106.98" y="57.91" text-anchor="middle" dy="0.6em">Jan 2015</text>
    <text x="116.53" y="57.91" text-anchor="middle" dy="0.6em">Feb</text>
    <text x="125.16" y="57.91" text-anchor="middle" dy="0.6em">Mar</text>
    <text x="134.71" y="57.91" text-anchor="middle" dy="0.6em">Apr</text>
    <text x="143.96" y="57.91" text-anchor="middle" dy="0.6em">May</text>
    <text x="153.51" y="57.91" text-anchor="middle" dy="0.6em">Jun</text>
    <text x="162.75" y="57.91" text-anchor="middle" dy="0.6em">Jul</text>
    <text x="172.3" y="57.91" text-anchor="middle" dy="0.6em">Aug</text>
    <text x="181.85" y="57.91" text-anchor="middle" dy="0.6em">Sep</text>
  </g>
  <g class="guide colorkey" id="fig-ef77ad74b8924394b4e8671a0729813d-element-4">
    <g fill="#4C404B" font-size="2.82" font-family="'PT Sans','Helvetica Neue','Helvetica',sans-serif" id="fig-ef77ad74b8924394b4e8671a0729813d-element-5">
      <text x="187.67" y="29.14" dy="0.35em" id="fig-ef77ad74b8924394b4e8671a0729813d-element-6" class="color_0.2">0.2</text>
      <text x="187.67" y="32.77" dy="0.35em" id="fig-ef77ad74b8924394b4e8671a0729813d-element-7" class="color_0.3">0.3</text>
      <text x="187.67" y="36.4" dy="0.35em" id="fig-ef77ad74b8924394b4e8671a0729813d-element-8" class="color_0.4">0.4</text>
    </g>
    <g stroke="#000000" stroke-opacity="0.000" id="fig-ef77ad74b8924394b4e8671a0729813d-element-9">
      <rect x="184.85" y="28.24" width="1.81" height="1.81" id="fig-ef77ad74b8924394b4e8671a0729813d-element-10" class="color_0.2" fill="#00BFFF"/>
      <rect x="184.85" y="31.86" width="1.81" height="1.81" id="fig-ef77ad74b8924394b4e8671a0729813d-element-11" class="color_0.3" fill="#D4CA3A"/>
      <rect x="184.85" y="35.49" width="1.81" height="1.81" id="fig-ef77ad74b8924394b4e8671a0729813d-element-12" class="color_0.4" fill="#FF5EA0"/>
    </g>
    <g fill="#362A35" font-size="3.88" font-family="'PT Sans','Helvetica Neue','Helvetica',sans-serif" stroke="#000000" stroke-opacity="0.000" id="fig-ef77ad74b8924394b4e8671a0729813d-element-13">
      <text x="184.85" y="25.32" id="fig-ef77ad74b8924394b4e8671a0729813d-element-14">Julia ver.</text>
    </g>
  </g>
  <g clip-path="url(#fig-ef77ad74b8924394b4e8671a0729813d-element-16)" id="fig-ef77ad74b8924394b4e8671a0729813d-element-15">
    <g pointer-events="visible" opacity="1" fill="#000000" fill-opacity="0.000" stroke="#000000" stroke-opacity="0.000" class="guide background" id="fig-ef77ad74b8924394b4e8671a0729813d-element-17">
      <rect x="19.63" y="5" width="164.22" height="51.91" id="fig-ef77ad74b8924394b4e8671a0729813d-element-18"/>
    </g>
    <g class="guide ygridlines xfixed" stroke-dasharray="0.5,0.5" stroke-width="0.2" stroke="#D0D0E0" id="fig-ef77ad74b8924394b4e8671a0729813d-element-19">
      <path fill="none" d="M19.63,54.91 L 183.85 54.91" id="fig-ef77ad74b8924394b4e8671a0729813d-element-20"/>
      <path fill="none" d="M19.63,45.33 L 183.85 45.33" id="fig-ef77ad74b8924394b4e8671a0729813d-element-21"/>
      <path fill="none" d="M19.63,35.75 L 183.85 35.75" id="fig-ef77ad74b8924394b4e8671a0729813d-element-22"/>
      <path fill="none" d="M19.63,26.17 L 183.85 26.17" id="fig-ef77ad74b8924394b4e8671a0729813d-element-23"/>
      <path fill="none" d="M19.63,16.58 L 183.85 16.58" id="fig-ef77ad74b8924394b4e8671a0729813d-element-24"/>
      <path fill="none" d="M19.63,7 L 183.85 7" id="fig-ef77ad74b8924394b4e8671a0729813d-element-25"/>
    </g>
    <g class="guide xgridlines yfixed" stroke-dasharray="0.5,0.5" stroke-width="0.2" stroke="#D0D0E0" id="fig-ef77ad74b8924394b4e8671a0729813d-element-26">
      <path fill="none" d="M22.25,5 L 22.25 56.91" id="fig-ef77ad74b8924394b4e8671a0729813d-element-27"/>
      <path fill="none" d="M31.49,5 L 31.49 56.91" id="fig-ef77ad74b8924394b4e8671a0729813d-element-28"/>
      <path fill="none" d="M41.04,5 L 41.04 56.91" id="fig-ef77ad74b8924394b4e8671a0729813d-element-29"/>
      <path fill="none" d="M50.29,5 L 50.29 56.91" id="fig-ef77ad74b8924394b4e8671a0729813d-element-30"/>
      <path fill="none" d="M59.84,5 L 59.84 56.91" id="fig-ef77ad74b8924394b4e8671a0729813d-element-31"/>
      <path fill="none" d="M69.39,5 L 69.39 56.91" id="fig-ef77ad74b8924394b4e8671a0729813d-element-32"/>
      <path fill="none" d="M78.63,5 L 78.63 56.91" id="fig-ef77ad74b8924394b4e8671a0729813d-element-33"/>
      <path fill="none" d="M88.19,5 L 88.19 56.91" id="fig-ef77ad74b8924394b4e8671a0729813d-element-34"/>
      <path fill="none" d="M97.43,5 L 97.43 56.91" id="fig-ef77ad74b8924394b4e8671a0729813d-element-35"/>
      <path fill="none" d="M106.98,5 L 106.98 56.91" id="fig-ef77ad74b8924394b4e8671a0729813d-element-36"/>
      <path fill="none" d="M116.53,5 L 116.53 56.91" id="fig-ef77ad74b8924394b4e8671a0729813d-element-37"/>
      <path fill="none" d="M125.16,5 L 125.16 56.91" id="fig-ef77ad74b8924394b4e8671a0729813d-element-38"/>
      <path fill="none" d="M134.71,5 L 134.71 56.91" id="fig-ef77ad74b8924394b4e8671a0729813d-element-39"/>
      <path fill="none" d="M143.96,5 L 143.96 56.91" id="fig-ef77ad74b8924394b4e8671a0729813d-element-40"/>
      <path fill="none" d="M153.51,5 L 153.51 56.91" id="fig-ef77ad74b8924394b4e8671a0729813d-element-41"/>
      <path fill="none" d="M162.75,5 L 162.75 56.91" id="fig-ef77ad74b8924394b4e8671a0729813d-element-42"/>
      <path fill="none" d="M172.3,5 L 172.3 56.91" id="fig-ef77ad74b8924394b4e8671a0729813d-element-43"/>
      <path fill="none" d="M181.85,5 L 181.85 56.91" id="fig-ef77ad74b8924394b4e8671a0729813d-element-44"/>
    </g>
    <g class="plotpanel" id="fig-ef77ad74b8924394b4e8671a0729813d-element-45">
      <g class="geometry" stroke="#000000" stroke-opacity="0.000" fill="#4C404B" font-size="2.82" font-family="'PT Sans Caption','Helvetica Neue','Helvetica',sans-serif" id="fig-ef77ad74b8924394b4e8671a0729813d-element-46">
        <text x="70.63" y="52.46" text-anchor="middle" dy="0.35em" id="fig-ef77ad74b8924394b4e8671a0729813d-element-47" visibility="visible">v0.3.0</text>
        <text x="80.49" y="52.46" text-anchor="middle" dy="0.35em" id="fig-ef77ad74b8924394b4e8671a0729813d-element-48" visibility="visible">v0.3.1</text>
        <text x="89.74" y="52.46" text-anchor="middle" dy="0.35em" id="fig-ef77ad74b8924394b4e8671a0729813d-element-49" visibility="visible">v0.3.2</text>
        <text x="99.9" y="52.46" text-anchor="middle" dy="0.35em" id="fig-ef77ad74b8924394b4e8671a0729813d-element-50" visibility="visible">v0.3.3</text>
        <text x="106.13" y="52.46" text-anchor="middle" dy="0.35em" id="fig-ef77ad74b8924394b4e8671a0729813d-element-51" visibility="visible"></text>
        <text x="114.08" y="52.46" text-anchor="middle" dy="0.35em" id="fig-ef77ad74b8924394b4e8671a0729813d-element-52" visibility="visible">v0.3.5</text>
        <text x="126.4" y="52.46" text-anchor="middle" dy="0.35em" id="fig-ef77ad74b8924394b4e8671a0729813d-element-53" visibility="visible">v0.3.6</text>
        <text x="136.88" y="52.46" text-anchor="middle" dy="0.35em" id="fig-ef77ad74b8924394b4e8671a0729813d-element-54" visibility="visible">v0.3.7</text>
        <text x="148.59" y="52.46" text-anchor="middle" dy="0.35em" id="fig-ef77ad74b8924394b4e8671a0729813d-element-55" visibility="visible">v0.3.8</text>
        <text x="157.83" y="52.46" text-anchor="middle" dy="0.35em" id="fig-ef77ad74b8924394b4e8671a0729813d-element-56" visibility="visible">v0.3.9</text>
        <text x="157.83" y="52.46" text-anchor="middle" dy="0.35em" id="fig-ef77ad74b8924394b4e8671a0729813d-element-57" visibility="visible">v0.3.9</text>
        <text x="166.37" y="52.46" text-anchor="middle" dy="0.35em" id="fig-ef77ad74b8924394b4e8671a0729813d-element-58" visibility="visible">v0.3.10</text>
        <text x="176.54" y="52.46" text-anchor="middle" dy="0.35em" id="fig-ef77ad74b8924394b4e8671a0729813d-element-59" visibility="visible">v0.3.11</text>
      </g>
      <g class="yfixed" stroke-width="0.26" stroke="#333333" id="fig-ef77ad74b8924394b4e8671a0729813d-element-60">
        <path fill="none" d="M65.69,5 L 65.69 56.91" id="fig-ef77ad74b8924394b4e8671a0729813d-element-61"/>
        <path fill="none" d="M75.55,5 L 75.55 56.91" id="fig-ef77ad74b8924394b4e8671a0729813d-element-62"/>
        <path fill="none" d="M84.8,5 L 84.8 56.91" id="fig-ef77ad74b8924394b4e8671a0729813d-element-63"/>
        <path fill="none" d="M94.96,5 L 94.96 56.91" id="fig-ef77ad74b8924394b4e8671a0729813d-element-64"/>
        <path fill="none" d="M105.13,5 L 105.13 56.91" id="fig-ef77ad74b8924394b4e8671a0729813d-element-65"/>
        <path fill="none" d="M109.14,5 L 109.14 56.91" id="fig-ef77ad74b8924394b4e8671a0729813d-element-66"/>
        <path fill="none" d="M121.46,5 L 121.46 56.91" id="fig-ef77ad74b8924394b4e8671a0729813d-element-67"/>
        <path fill="none" d="M131.94,5 L 131.94 56.91" id="fig-ef77ad74b8924394b4e8671a0729813d-element-68"/>
        <path fill="none" d="M143.65,5 L 143.65 56.91" id="fig-ef77ad74b8924394b4e8671a0729813d-element-69"/>
        <path fill="none" d="M152.89,5 L 152.89 56.91" id="fig-ef77ad74b8924394b4e8671a0729813d-element-70"/>
        <path fill="none" d="M152.89,5 L 152.89 56.91" id="fig-ef77ad74b8924394b4e8671a0729813d-element-71"/>
        <path fill="none" d="M160.59,5 L 160.59 56.91" id="fig-ef77ad74b8924394b4e8671a0729813d-element-72"/>
        <path fill="none" d="M170.76,5 L 170.76 56.91" id="fig-ef77ad74b8924394b4e8671a0729813d-element-73"/>
      </g>
      <g stroke-width="0.79" fill="#000000" fill-opacity="0.000" class="geometry color_0.4" stroke="#FF5EA0" id="fig-ef77ad74b8924394b4e8671a0729813d-element-74">
        <path fill="none" d="M63.54,39.2 L 63.84 38.91 64.15 38.82 64.46 38.72 64.77 38.72 65.08 38.72 65.69 38.43 66 38.43 66.31 38.34 66.62 38.34 66.93 38.34 67.23 38.05 67.54 37.86 67.85 37.86 68.47 37.67 68.77 37.38 69.39 37.19 69.7 37.19 70.01 37.19 71.24 37.19 72.16 36.61 72.47 36.52 72.78 36.42 73.09 36.23 73.4 36.23 73.7 36.23 74.01 35.46 74.32 35.46 74.63 35.46 75.24 35.37 75.55 35.37 75.86 35.27 76.17 35.27 76.48 35.27 76.79 35.17 77.09 35.17 77.71 35.27 78.02 35.17 78.33 35.17 78.63 34.98 78.94 34.79 79.25 34.79 79.56 34.79 79.87 34.6 80.79 34.41 81.1 34.41 81.41 34.22 81.72 34.12 82.02 34.12 82.33 34.12 82.64 33.93 82.95 33.93 83.26 33.83 83.56 33.74 83.87 33.74 84.18 33.74 84.49 33.74 84.8 33.54 85.1 33.35 85.41 33.35 85.72 33.35 86.03 33.26 86.34 33.26 86.65 33.16 86.95 33.16 87.26 32.97 87.57 32.87 87.88 32.87 88.19 32.78 88.49 32.78 88.8 32.78 89.11 32.78 89.42 32.68 89.73 32.59 90.65 32.59 92.19 32.01 92.5 31.82 92.81 31.82 93.12 31.72 93.42 31.72 93.73 31.44 94.04 31.44 95.27 30.96 95.58 30.96 97.12 30.86 97.74 30.86 98.05 30.67 98.35 30.57 98.66 30.57 98.97 30.57 99.28 30.38 99.59 30.19 100.51 30.1 100.82 30 101.43 29.62 101.74 29.62 102.05 29.62 102.98 29.62 103.59 29.42 104.52 29.23 105.75 29.04 106.36 28.66 107.29 28.47 109.45 27.8 110.68 27.12 110.99 26.93 111.29 26.93 111.6 26.36 111.91 26.36 112.22 26.36 112.84 26.26 113.14 26.17 113.45 26.17 113.76 25.88 114.07 25.78 114.38 25.78 114.68 25.78 115.3 25.5 115.61 25.21 115.92 25.11 117.15 24.35 117.46 24.35 117.77 24.63 118.38 24.35 119 24.06 119.31 24.06 120.23 23.87 121.77 23.87 123.31 23.77 124.85 22.91 125.16 22.91 125.47 22.91 125.78 22.72 126.08 22.72 126.7 22.52 127.32 22.52 128.55 22.43 128.86 22.24 129.17 22.24 129.47 22.24 129.78 22.05 130.09 22.14 130.4 21.95 134.1 21.57 134.71 21.57 135.02 21.28 135.64 21.28 136.87 21.18 137.48 21.09 138.1 20.8 139.33 20.61 139.95 20.42 140.26 20.13 140.87 19.65 141.18 19.65 141.49 19.55 141.8 19.36 142.11 19.36 142.41 19.27 143.03 19.17 143.34 18.98 143.96 18.98 144.57 18.79 144.88 18.5 145.19 18.4 145.8 18.21 146.11 18.12 147.65 17.73 148.89 17.54 149.19 17.35 151.66 17.06 151.97 17.06 152.27 17.06 153.2 16.68 153.51 16.58 153.82 16.39 154.43 16.2 155.05 16.2 155.66 16.01 158.44 15.34 159.36 15.34 159.67 15.34 159.98 15.15 160.29 15.15 160.59 14.86 160.9 14.86 161.21 14.86 161.52 14.76 162.44 14.67 163.06 14.47 163.68 14.47 163.98 14.28 164.29 13.9 164.6 13.71 164.91 13.61 165.22 13.61 170.45 12.17 172.92 11.6 175.69 11.12 180.93 8.72 181.85 8.53" id="fig-ef77ad74b8924394b4e8671a0729813d-element-75"/>
      </g>
      <g stroke-width="0.79" fill="#000000" fill-opacity="0.000" class="geometry color_0.3" stroke="#D4CA3A" id="fig-ef77ad74b8924394b4e8671a0729813d-element-76">
        <path fill="none" d="M21.63,45.72 L 21.94 45.72 22.25 45.62 22.56 45.62 22.86 45.62 23.17 45.62 23.48 45.62 23.79 45.52 24.4 45.52 24.71 45.43 25.33 45.33 25.95 45.14 26.25 45.14 26.87 45.14 27.18 45.04 29.33 44.66 30.26 44.66 30.88 44.66 33.03 44.57 33.34 44.37 33.65 44.28 33.96 44.28 34.26 44.28 34.57 44.28 34.88 44.28 35.19 44.28 35.5 44.28 35.81 44.28 36.11 44.28 36.42 43.99 37.04 43.89 37.35 43.89 37.65 43.89 37.96 43.7 38.27 43.7 38.58 43.7 38.89 43.61 39.19 43.61 39.5 43.61 39.81 43.61 40.12 43.61 40.43 43.51 40.74 43.51 41.04 47.34 41.35 43.42 41.66 43.32 41.97 43.22 43.82 42.65 44.12 42.55 44.43 42.46 44.74 42.36 45.05 42.17 45.36 42.17 45.67 41.98 45.97 41.98 46.28 41.88 46.59 41.79 47.21 41.79 47.51 41.59 47.82 41.59 48.13 41.59 48.44 41.59 48.75 41.59 49.05 41.31 49.36 41.31 49.98 41.21 50.29 41.02 50.59 40.92 50.9 40.83 51.21 40.83 51.52 40.64 52.14 40.54 52.44 40.25 52.75 40.25 53.06 40.25 53.68 39.77 54.29 39.49 54.6 39.49 54.91 39.39 55.22 39.39 56.14 39.29 56.45 39.29 56.76 39.2 57.07 39.2 57.37 39.2 57.68 39.1 57.99 39.01 58.3 38.91 58.91 38.91 59.22 38.91 59.84 38.91 60.15 38.82 60.45 38.53 60.76 38.53 61.38 38.43 61.69 38.43 62 38.24 62.3 38.14 62.61 38.05 62.92 37.95 63.23 37.86 63.54 37.67 63.84 37.67 64.15 37.57 64.46 37.47 64.77 37.47 65.08 37.47 65.69 37.19 66 37.19 66.31 37.09 66.62 37.09 66.93 37.09 67.23 36.8 67.54 36.71 67.85 36.61 68.47 37.76 68.77 37.47 69.39 37.28 69.7 37.28 70.01 37.28 71.24 37.28 72.16 36.71 72.47 36.61 72.78 36.52 73.09 36.32 73.4 36.32 73.7 36.32 74.01 35.56 74.32 35.56 74.63 35.56 75.24 35.56 75.55 35.46 75.86 35.37 76.17 35.37 76.48 35.37 76.79 35.27 77.09 35.27 77.71 35.37 78.02 35.27 78.33 35.27 78.63 35.08 78.94 33.16 79.25 34.89 79.56 34.89 79.87 34.69 80.79 34.5 81.1 34.5 81.41 34.31 81.72 34.22 82.02 34.22 82.33 34.22 82.64 34.02 82.95 34.02 83.26 33.93 83.56 33.83 83.87 33.83 84.18 33.83 84.49 33.83 84.8 33.74 85.1 33.54 85.41 33.54 85.72 33.54 86.03 33.45 86.34 33.45 86.65 33.35 86.95 33.35 87.26 33.16 87.57 33.07 87.88 33.07 88.19 32.97 88.49 32.97 88.8 32.97 89.11 32.87 89.42 32.87 89.73 32.78 90.65 32.78 92.19 32.3 92.5 32.11 92.81 32.11 93.12 32.01 93.42 32.01 93.73 31.72 94.04 31.72 95.27 31.24 95.58 31.24 97.12 31.15 97.74 31.15 98.05 31.05 98.35 30.96 98.66 30.96 98.97 30.96 99.28 30.77 99.59 30.67 100.51 30.48 100.82 30.38 101.43 30.1 101.74 30 102.05 30 102.98 30 103.59 29.81 104.52 29.62 105.75 29.42 106.36 29.14 107.29 28.75 109.45 28.18 110.68 27.51 110.99 27.32 111.29 27.32 111.6 26.84 111.91 26.84 112.22 26.84 112.84 26.84 113.14 26.65 113.45 26.65 113.76 26.36 114.07 26.26 114.38 26.26 114.68 26.26 115.3 25.97 115.61 25.78 115.92 25.69 117.15 24.92 117.46 25.11 117.77 25.11 118.38 24.82 119 24.54 119.31 24.54 120.23 24.35 121.77 24.35 123.31 23.77 124.85 23.39 125.16 23.39 125.47 23.39 125.78 23.2 126.08 23.2 126.7 23.2 127.32 23.2 128.55 23 128.86 22.81 129.17 22.72 129.47 22.72 129.78 22.52 130.09 22.62 130.4 22.43 134.1 22.33 134.71 22.33 135.02 22.05 135.64 22.05 136.87 21.95 137.48 21.95 138.1 21.66 139.33 21.66 139.95 21.47 140.26 21.37 140.87 20.9 141.18 20.9 141.49 20.8 141.8 20.51 142.11 20.51 142.41 20.42 143.03 20.32 143.34 20.22 143.96 20.22 144.57 20.03 144.88 19.75 145.19 19.65 145.8 19.46 146.11 19.36 147.65 18.98 148.89 18.79 149.19 18.6 151.66 18.21 151.97 18.21 152.27 18.21 153.2 17.92 153.51 17.83 153.82 17.73 154.43 17.54 155.05 17.54 155.66 17.45 158.44 16.97 159.36 17.06 159.67 17.06 159.98 16.87 160.29 16.87 160.59 16.68 160.9 16.68 161.21 16.68 161.52 16.58 162.44 16.58 163.06 16.39 163.68 16.49 163.98 16.3 164.29 15.91 164.6 15.72 164.91 15.62 165.22 15.62 170.45 14.28 172.92 13.8 175.69 13.32 180.93 11.98 181.85 11.79" id="fig-ef77ad74b8924394b4e8671a0729813d-element-77"/>
      </g>
      <g stroke-width="0.79" fill="#000000" fill-opacity="0.000" class="geometry color_0.2" stroke="#00BFFF" id="fig-ef77ad74b8924394b4e8671a0729813d-element-78">
        <path fill="none" d="M21.63,46.77 L 21.94 46.77 22.25 46.67 22.56 46.67 22.86 46.67 23.17 46.67 23.48 46.67 23.79 46.67 24.4 46.67 24.71 46.67 25.33 46.58 25.95 46.48 26.25 46.48 26.87 46.39 27.18 46.29 29.33 46.1 30.26 46.1 30.88 46.1 33.03 46 33.34 45.91 33.65 45.91 33.96 45.91 34.26 45.91 34.57 45.91 34.88 45.91 35.19 45.91 35.5 45.91 35.81 45.91 36.11 45.62 36.42 45.62 37.04 45.52 37.35 45.52 37.65 45.52 37.96 45.43 38.27 46.19 38.58 45.72 38.89 45.72 39.19 45.72 39.5 45.72 39.81 45.72 40.12 45.72 40.43 45.72 40.74 45.72 41.04 45.62 41.35 45.62 41.66 45.52 41.97 45.52 43.82 45.04 44.12 45.04 44.43 44.95 44.74 44.85 45.05 44.66 45.36 44.66 45.67 44.66 45.97 44.66 46.28 44.66 46.59 44.57 47.21 44.57 47.51 44.37 47.82 44.37 48.13 44.37 48.44 44.37 48.75 44.37 49.05 44.09 49.36 44.09 49.98 43.99 50.29 43.8 50.59 43.7 50.9 43.61 51.21 43.61 51.52 43.61 52.14 43.42 52.44 43.32 52.75 43.22 53.06 43.22 53.68 43.03 54.29 42.84 54.6 42.84 54.91 42.84 55.22 42.84 56.14 42.84 56.45 42.84 56.76 42.74 57.07 42.74 57.37 42.74 57.68 42.65 57.99 42.65 58.3 42.65 58.91 42.55 59.22 42.55 59.84 42.55 60.15 42.55 60.45 42.27 60.76 42.27 61.38 42.46 61.69 42.46 62 42.27 62.3 42.17 62.61 42.17 62.92 41.98 63.23 41.98" id="fig-ef77ad74b8924394b4e8671a0729813d-element-79"/>
      </g>
    </g>
  </g>
  <g class="guide ylabels" font-size="2.82" font-family="'PT Sans Caption','Helvetica Neue','Helvetica',sans-serif" fill="#6C606B" id="fig-ef77ad74b8924394b4e8671a0729813d-element-80">
    <text x="18.63" y="54.91" text-anchor="end" dy="0.35em" id="fig-ef77ad74b8924394b4e8671a0729813d-element-81">200</text>
    <text x="18.63" y="45.33" text-anchor="end" dy="0.35em" id="fig-ef77ad74b8924394b4e8671a0729813d-element-82">300</text>
    <text x="18.63" y="35.75" text-anchor="end" dy="0.35em" id="fig-ef77ad74b8924394b4e8671a0729813d-element-83">400</text>
    <text x="18.63" y="26.17" text-anchor="end" dy="0.35em" id="fig-ef77ad74b8924394b4e8671a0729813d-element-84">500</text>
    <text x="18.63" y="16.58" text-anchor="end" dy="0.35em" id="fig-ef77ad74b8924394b4e8671a0729813d-element-85">600</text>
    <text x="18.63" y="7" text-anchor="end" dy="0.35em" id="fig-ef77ad74b8924394b4e8671a0729813d-element-86">700</text>
  </g>
  <g font-size="3.88" font-family="'PT Sans','Helvetica Neue','Helvetica',sans-serif" fill="#564A55" stroke="#000000" stroke-opacity="0.000" id="fig-ef77ad74b8924394b4e8671a0729813d-element-87">
    <text x="8.81" y="28.96" text-anchor="middle" dy="0.35em" transform="rotate(-90, 8.81, 30.96)" id="fig-ef77ad74b8924394b4e8671a0729813d-element-88">Number of Tagged Packages</text>
  </g>
</g>
<defs>
<clipPath id="fig-ef77ad74b8924394b4e8671a0729813d-element-16">
  <path d="M19.63,5 L 183.85 5 183.85 56.91 19.63 56.91" />
</clipPath
></defs>
</svg>
