<?xml version="1.0" encoding="UTF-8"?>
<svg xmlns="http://www.w3.org/2000/svg"
     xmlns:xlink="http://www.w3.org/1999/xlink"
     xmlns:gadfly="http://www.gadflyjl.org/ns"
     version="1.2"
     width="203.2mm" height="76.2mm" viewBox="0 0 203.2 76.2"
     stroke="none"
     fill="#000000"
     stroke-width="0.3"
     font-size="3.88"
>
<g class="plotroot xscalable yscalable" id="fig-d10f1b4fda994cd99a98ac6863baedd3-element-1">
  <g font-size="3.88" font-family="'PT Sans','Helvetica Neue','Helvetica',sans-serif" fill="#564A55" stroke="#000000" stroke-opacity="0.000" id="fig-d10f1b4fda994cd99a98ac6863baedd3-element-2">
    <text x="101.74" y="68.2" text-anchor="middle">Date</text>
  </g>
  <g class="guide xlabels" font-size="2.82" font-family="'PT Sans Caption','Helvetica Neue','Helvetica',sans-serif" fill="#6C606B" id="fig-d10f1b4fda994cd99a98ac6863baedd3-element-3">
    <text x="22.35" y="60.59" text-anchor="middle">Apr</text>
    <text x="33.08" y="60.59" text-anchor="middle">May</text>
    <text x="44.16" y="60.59" text-anchor="middle">Jun</text>
    <text x="54.89" y="60.59" text-anchor="middle">Jul</text>
    <text x="65.98" y="60.59" text-anchor="middle">Aug</text>
    <text x="77.07" y="60.59" text-anchor="middle">Sep</text>
    <text x="87.79" y="60.59" text-anchor="middle">Oct</text>
    <text x="98.88" y="60.59" text-anchor="middle">Nov</text>
    <text x="109.61" y="60.59" text-anchor="middle">Dec</text>
    <text x="120.7" y="60.59" text-anchor="middle">Jan 2015</text>
    <text x="131.78" y="60.59" text-anchor="middle">Feb</text>
    <text x="141.8" y="60.59" text-anchor="middle">Mar</text>
    <text x="152.89" y="60.59" text-anchor="middle">Apr</text>
    <text x="163.61" y="60.59" text-anchor="middle">May</text>
    <text x="174.7" y="60.59" text-anchor="middle">Jun</text>
  </g>
  <g class="guide colorkey" id="fig-d10f1b4fda994cd99a98ac6863baedd3-element-4">
    <g fill="#4C404B" font-size="2.82" font-family="'PT Sans','Helvetica Neue','Helvetica',sans-serif" id="fig-d10f1b4fda994cd99a98ac6863baedd3-element-5">
      <text x="187.67" y="29.14" dy="0.35em" id="fig-d10f1b4fda994cd99a98ac6863baedd3-element-6" class="color_0.2">0.2</text>
      <text x="187.67" y="32.77" dy="0.35em" id="fig-d10f1b4fda994cd99a98ac6863baedd3-element-7" class="color_0.3">0.3</text>
      <text x="187.67" y="36.4" dy="0.35em" id="fig-d10f1b4fda994cd99a98ac6863baedd3-element-8" class="color_0.4">0.4</text>
    </g>
    <g stroke="#000000" stroke-opacity="0.000" id="fig-d10f1b4fda994cd99a98ac6863baedd3-element-9">
      <rect x="184.85" y="28.24" width="1.81" height="1.81" id="fig-d10f1b4fda994cd99a98ac6863baedd3-element-10" class="color_0.2" fill="#00BFFF"/>
      <rect x="184.85" y="31.86" width="1.81" height="1.81" id="fig-d10f1b4fda994cd99a98ac6863baedd3-element-11" class="color_0.3" fill="#D4CA3A"/>
      <rect x="184.85" y="35.49" width="1.81" height="1.81" id="fig-d10f1b4fda994cd99a98ac6863baedd3-element-12" class="color_0.4" fill="#FF5EA0"/>
    </g>
    <g fill="#362A35" font-size="3.88" font-family="'PT Sans','Helvetica Neue','Helvetica',sans-serif" stroke="#000000" stroke-opacity="0.000" id="fig-d10f1b4fda994cd99a98ac6863baedd3-element-13">
      <text x="184.85" y="25.32" id="fig-d10f1b4fda994cd99a98ac6863baedd3-element-14">Julia ver.</text>
    </g>
  </g>
  <g font-size="3.88" font-family="'PT Sans','Helvetica Neue','Helvetica',sans-serif" fill="#564A55" stroke="#000000" stroke-opacity="0.000" id="fig-d10f1b4fda994cd99a98ac6863baedd3-element-15">
    <text x="8.81" y="28.96" text-anchor="middle" dy="0.35em" transform="rotate(-90, 8.81, 30.96)" id="fig-d10f1b4fda994cd99a98ac6863baedd3-element-16">Number of Tagged Packages</text>
  </g>
  <g clip-path="url(#fig-d10f1b4fda994cd99a98ac6863baedd3-element-18)" id="fig-d10f1b4fda994cd99a98ac6863baedd3-element-17">
    <g pointer-events="visible" opacity="1" fill="#000000" fill-opacity="0.000" stroke="#000000" stroke-opacity="0.000" class="guide background" id="fig-d10f1b4fda994cd99a98ac6863baedd3-element-19">
      <rect x="19.63" y="5" width="164.22" height="51.92" id="fig-d10f1b4fda994cd99a98ac6863baedd3-element-20"/>
    </g>
    <g class="guide ygridlines xfixed" stroke-dasharray="0.5,0.5" stroke-width="0.2" stroke="#D0D0E0" id="fig-d10f1b4fda994cd99a98ac6863baedd3-element-21">
      <path fill="none" d="M19.63,54.91 L 183.85 54.91" id="fig-d10f1b4fda994cd99a98ac6863baedd3-element-22"/>
      <path fill="none" d="M19.63,42.94 L 183.85 42.94" id="fig-d10f1b4fda994cd99a98ac6863baedd3-element-23"/>
      <path fill="none" d="M19.63,30.96 L 183.85 30.96" id="fig-d10f1b4fda994cd99a98ac6863baedd3-element-24"/>
      <path fill="none" d="M19.63,18.98 L 183.85 18.98" id="fig-d10f1b4fda994cd99a98ac6863baedd3-element-25"/>
      <path fill="none" d="M19.63,7 L 183.85 7" id="fig-d10f1b4fda994cd99a98ac6863baedd3-element-26"/>
    </g>
    <g class="guide xgridlines yfixed" stroke-dasharray="0.5,0.5" stroke-width="0.2" stroke="#D0D0E0" id="fig-d10f1b4fda994cd99a98ac6863baedd3-element-27">
      <path fill="none" d="M22.35,5 L 22.35 56.92" id="fig-d10f1b4fda994cd99a98ac6863baedd3-element-28"/>
      <path fill="none" d="M33.08,5 L 33.08 56.92" id="fig-d10f1b4fda994cd99a98ac6863baedd3-element-29"/>
      <path fill="none" d="M44.16,5 L 44.16 56.92" id="fig-d10f1b4fda994cd99a98ac6863baedd3-element-30"/>
      <path fill="none" d="M54.89,5 L 54.89 56.92" id="fig-d10f1b4fda994cd99a98ac6863baedd3-element-31"/>
      <path fill="none" d="M65.98,5 L 65.98 56.92" id="fig-d10f1b4fda994cd99a98ac6863baedd3-element-32"/>
      <path fill="none" d="M77.07,5 L 77.07 56.92" id="fig-d10f1b4fda994cd99a98ac6863baedd3-element-33"/>
      <path fill="none" d="M87.79,5 L 87.79 56.92" id="fig-d10f1b4fda994cd99a98ac6863baedd3-element-34"/>
      <path fill="none" d="M98.88,5 L 98.88 56.92" id="fig-d10f1b4fda994cd99a98ac6863baedd3-element-35"/>
      <path fill="none" d="M109.61,5 L 109.61 56.92" id="fig-d10f1b4fda994cd99a98ac6863baedd3-element-36"/>
      <path fill="none" d="M120.7,5 L 120.7 56.92" id="fig-d10f1b4fda994cd99a98ac6863baedd3-element-37"/>
      <path fill="none" d="M131.78,5 L 131.78 56.92" id="fig-d10f1b4fda994cd99a98ac6863baedd3-element-38"/>
      <path fill="none" d="M141.8,5 L 141.8 56.92" id="fig-d10f1b4fda994cd99a98ac6863baedd3-element-39"/>
      <path fill="none" d="M152.89,5 L 152.89 56.92" id="fig-d10f1b4fda994cd99a98ac6863baedd3-element-40"/>
      <path fill="none" d="M163.61,5 L 163.61 56.92" id="fig-d10f1b4fda994cd99a98ac6863baedd3-element-41"/>
      <path fill="none" d="M174.7,5 L 174.7 56.92" id="fig-d10f1b4fda994cd99a98ac6863baedd3-element-42"/>
    </g>
    <g class="plotpanel" id="fig-d10f1b4fda994cd99a98ac6863baedd3-element-43">
      <g class="geometry" stroke="#000000" stroke-opacity="0.000" fill="#4C404B" font-size="2.82" font-family="'PT Sans Caption','Helvetica Neue','Helvetica',sans-serif" id="fig-d10f1b4fda994cd99a98ac6863baedd3-element-44">
        <text x="77.71" y="51.26" text-anchor="middle" dy="0.35em" id="fig-d10f1b4fda994cd99a98ac6863baedd3-element-45" visibility="visible">v0.3.0</text>
        <text x="89.16" y="51.26" text-anchor="middle" dy="0.35em" id="fig-d10f1b4fda994cd99a98ac6863baedd3-element-46" visibility="visible">v0.3.1</text>
        <text x="99.89" y="51.26" text-anchor="middle" dy="0.35em" id="fig-d10f1b4fda994cd99a98ac6863baedd3-element-47" visibility="visible">v0.3.2</text>
        <text x="111.69" y="51.26" text-anchor="middle" dy="0.35em" id="fig-d10f1b4fda994cd99a98ac6863baedd3-element-48" visibility="visible">v0.3.3</text>
        <text x="119.55" y="51.26" text-anchor="middle" dy="0.35em" id="fig-d10f1b4fda994cd99a98ac6863baedd3-element-49" visibility="visible"></text>
        <text x="128.14" y="51.26" text-anchor="middle" dy="0.35em" id="fig-d10f1b4fda994cd99a98ac6863baedd3-element-50" visibility="visible">v0.3.5</text>
        <text x="142.45" y="51.26" text-anchor="middle" dy="0.35em" id="fig-d10f1b4fda994cd99a98ac6863baedd3-element-51" visibility="visible">v0.3.6</text>
        <text x="154.61" y="51.26" text-anchor="middle" dy="0.35em" id="fig-d10f1b4fda994cd99a98ac6863baedd3-element-52" visibility="visible">v0.3.7</text>
        <text x="168.2" y="51.26" text-anchor="middle" dy="0.35em" id="fig-d10f1b4fda994cd99a98ac6863baedd3-element-53" visibility="visible">v0.3.8</text>
        <text x="178.93" y="51.26" text-anchor="middle" dy="0.35em" id="fig-d10f1b4fda994cd99a98ac6863baedd3-element-54" visibility="visible">v0.3.9</text>
      </g>
      <g class="yfixed" stroke-width="0.26" stroke="#333333" id="fig-d10f1b4fda994cd99a98ac6863baedd3-element-55">
        <path fill="none" d="M72.77,5 L 72.77 56.92" id="fig-d10f1b4fda994cd99a98ac6863baedd3-element-56"/>
        <path fill="none" d="M84.22,5 L 84.22 56.92" id="fig-d10f1b4fda994cd99a98ac6863baedd3-element-57"/>
        <path fill="none" d="M94.95,5 L 94.95 56.92" id="fig-d10f1b4fda994cd99a98ac6863baedd3-element-58"/>
        <path fill="none" d="M106.75,5 L 106.75 56.92" id="fig-d10f1b4fda994cd99a98ac6863baedd3-element-59"/>
        <path fill="none" d="M118.55,5 L 118.55 56.92" id="fig-d10f1b4fda994cd99a98ac6863baedd3-element-60"/>
        <path fill="none" d="M123.2,5 L 123.2 56.92" id="fig-d10f1b4fda994cd99a98ac6863baedd3-element-61"/>
        <path fill="none" d="M137.51,5 L 137.51 56.92" id="fig-d10f1b4fda994cd99a98ac6863baedd3-element-62"/>
        <path fill="none" d="M149.67,5 L 149.67 56.92" id="fig-d10f1b4fda994cd99a98ac6863baedd3-element-63"/>
        <path fill="none" d="M163.26,5 L 163.26 56.92" id="fig-d10f1b4fda994cd99a98ac6863baedd3-element-64"/>
        <path fill="none" d="M173.99,5 L 173.99 56.92" id="fig-d10f1b4fda994cd99a98ac6863baedd3-element-65"/>
      </g>
      <g stroke-width="0.79" fill="#000000" fill-opacity="0.000" class="geometry color_0.4" stroke="#FF5EA0" id="fig-d10f1b4fda994cd99a98ac6863baedd3-element-66">
        <path fill="none" d="M70.27,35.27 L 70.63 34.91 70.99 34.79 71.34 34.67 71.7 34.67 72.06 34.67 72.77 34.31 73.13 34.31 73.49 34.19 73.85 34.19 74.2 34.19 74.56 33.83 74.92 33.59 75.28 33.59 75.99 33.35 76.35 32.99 77.07 32.75 77.42 32.75 77.78 32.75 79.21 32.75 80.28 32.04 80.64 31.92 81 31.8 81.36 31.56 81.72 31.56 82.07 31.56 82.43 30.6 82.79 30.6 83.15 30.6 83.86 30.48 84.22 30.48 84.58 30.36 84.93 30.36 85.29 30.36 85.65 30.24 86.01 30.24 86.72 30.36 87.08 30.24 87.44 30.24 87.79 30 88.15 29.76 88.51 29.76 88.87 29.76 89.23 29.52 90.3 29.28 90.66 29.28 91.01 29.04 91.37 28.92 91.73 28.92 92.09 28.92 92.44 28.68 92.8 28.68 93.16 28.56 93.52 28.44 93.87 28.44 94.23 28.44 94.59 28.44 94.95 28.2 95.31 27.96 95.66 27.96 96.02 27.96 96.38 27.84 96.74 27.84 97.09 27.72 97.45 27.72 97.81 27.48 98.17 27.36 98.52 27.36 98.88 27.24 99.24 27.24 99.6 27.24 99.95 27.24 100.31 27.12 100.67 27 101.74 27 103.53 26.29 103.89 26.05 104.25 26.05 104.6 25.93 104.96 25.93 105.32 25.57 105.68 25.57 107.11 24.97 107.47 24.97 109.25 24.85 109.97 24.85 110.33 24.61 110.68 24.49 111.04 24.49 111.4 24.49 111.76 24.25 112.11 24.01 113.19 23.89 113.55 23.77 114.26 23.29 114.62 23.29 114.98 23.29 116.05 23.29 116.76 23.05 117.84 22.81 119.27 22.57 119.98 22.09 121.06 21.85 123.56 21.02 124.99 20.18 125.35 19.94 125.7 19.94 126.06 19.22 126.42 19.22 126.78 19.22 127.49 19.1 127.85 18.98 128.21 18.98 128.57 18.62 128.92 18.5 129.28 18.5 129.64 18.5 130.35 18.14 130.71 17.78 131.07 17.66 132.5 16.7 132.86 16.7 133.22 17.06 133.93 16.7 134.65 16.34 135 16.34 136.08 16.1 137.86 16.1 139.65 15.98 141.44 14.91 141.8 14.91 142.16 14.91 142.51 14.67 142.87 14.67 143.59 14.43 144.3 14.43 145.73 14.31 146.09 14.07 146.45 14.07 146.81 14.07 147.16 13.83 147.52 13.95 147.88 13.71 152.17 13.23 152.89 13.23 153.24 12.87 153.96 12.87 155.39 12.75 156.1 12.63 156.82 12.27 158.25 12.03 158.97 11.79 159.32 11.43 160.04 10.83 160.4 10.83 160.75 10.71 161.11 10.47 161.47 10.47 161.83 10.35 162.54 10.23 162.9 9.99 163.61 9.99 164.33 9.76 164.69 9.4 165.05 9.28 165.76 9.04 166.12 8.92 167.91 8.44 169.34 8.2 169.69 7.96 172.56 7.6 172.91 7.6 173.27 7.6 174.34 7.12 174.7 7 175.06 6.76 175.77 6.52 176.49 6.52 177.2 6.28 180.42 5.44 181.5 5.44 181.85 5.44" id="fig-d10f1b4fda994cd99a98ac6863baedd3-element-67"/>
      </g>
      <g stroke-width="0.79" fill="#000000" fill-opacity="0.000" class="geometry color_0.3" stroke="#D4CA3A" id="fig-d10f1b4fda994cd99a98ac6863baedd3-element-68">
        <path fill="none" d="M21.63,43.42 L 21.99 43.42 22.35 43.3 22.7 43.3 23.06 43.3 23.42 43.3 23.78 43.3 24.14 43.18 24.85 43.18 25.21 43.06 25.92 42.94 26.64 42.7 27 42.7 27.71 42.7 28.07 42.58 30.57 42.1 31.65 42.1 32.36 42.1 34.86 41.98 35.22 41.74 35.58 41.62 35.94 41.62 36.29 41.62 36.65 41.62 37.01 41.62 37.37 41.62 37.73 41.62 38.08 41.62 38.44 41.62 38.8 41.26 39.51 41.14 39.87 41.14 40.23 41.14 40.59 40.9 40.94 40.9 41.3 40.9 41.66 40.78 42.02 40.78 42.37 40.78 42.73 40.78 43.09 40.78 43.45 40.66 43.81 40.66 44.16 45.45 44.52 40.54 44.88 40.42 45.24 40.3 47.38 39.58 47.74 39.46 48.1 39.34 48.45 39.22 48.81 38.98 49.17 38.98 49.53 38.74 49.89 38.74 50.24 38.62 50.6 38.5 51.32 38.5 51.67 38.26 52.03 38.26 52.39 38.26 52.75 38.26 53.1 38.26 53.46 37.91 53.82 37.91 54.53 37.79 54.89 37.55 55.25 37.43 55.61 37.31 55.97 37.31 56.32 37.07 57.04 36.95 57.4 36.59 57.75 36.59 58.11 36.59 58.83 35.99 59.54 35.63 59.9 35.63 60.26 35.51 60.61 35.51 61.69 35.39 62.04 35.39 62.4 35.27 62.76 35.27 63.12 35.27 63.48 35.15 63.83 35.03 64.19 34.91 64.91 34.91 65.26 34.91 65.98 34.91 66.34 34.79 66.69 34.43 67.05 34.43 67.77 34.31 68.12 34.31 68.48 34.07 68.84 33.95 69.2 33.83 69.56 33.71 69.91 33.59 70.27 33.35 70.63 33.35 70.99 33.23 71.34 33.11 71.7 33.11 72.06 33.11 72.77 32.75 73.13 32.75 73.49 32.63 73.85 32.63 74.2 32.63 74.56 32.28 74.92 32.16 75.28 32.04 75.99 33.47 76.35 33.11 77.07 32.87 77.42 32.87 77.78 32.87 79.21 32.87 80.28 32.16 80.64 32.04 81 31.92 81.36 31.68 81.72 31.68 82.07 31.68 82.43 30.72 82.79 30.72 83.15 30.72 83.86 30.72 84.22 30.6 84.58 30.48 84.93 30.48 85.29 30.48 85.65 30.36 86.01 30.36 86.72 30.48 87.08 30.36 87.44 30.36 87.79 30.12 88.15 27.72 88.51 29.88 88.87 29.88 89.23 29.64 90.3 29.4 90.66 29.4 91.01 29.16 91.37 29.04 91.73 29.04 92.09 29.04 92.44 28.8 92.8 28.8 93.16 28.68 93.52 28.56 93.87 28.56 94.23 28.56 94.59 28.56 94.95 28.44 95.31 28.2 95.66 28.2 96.02 28.2 96.38 28.08 96.74 28.08 97.09 27.96 97.45 27.96 97.81 27.72 98.17 27.6 98.52 27.6 98.88 27.48 99.24 27.48 99.6 27.48 99.95 27.36 100.31 27.36 100.67 27.24 101.74 27.24 103.53 26.65 103.89 26.41 104.25 26.41 104.6 26.29 104.96 26.29 105.32 25.93 105.68 25.93 107.11 25.33 107.47 25.33 109.25 25.21 109.97 25.21 110.33 25.09 110.68 24.97 111.04 24.97 111.4 24.97 111.76 24.73 112.11 24.61 113.19 24.37 113.55 24.25 114.26 23.89 114.62 23.77 114.98 23.77 116.05 23.77 116.76 23.53 117.84 23.29 119.27 23.05 119.98 22.69 121.06 22.21 123.56 21.49 124.99 20.66 125.35 20.42 125.7 20.42 126.06 19.82 126.42 19.82 126.78 19.82 127.49 19.82 127.85 19.58 128.21 19.58 128.57 19.22 128.92 19.1 129.28 19.1 129.64 19.1 130.35 18.74 130.71 18.5 131.07 18.38 132.5 17.42 132.86 17.66 133.22 17.66 133.93 17.3 134.65 16.94 135 16.94 136.08 16.7 137.86 16.7 139.65 15.98 141.44 15.5 141.8 15.5 142.16 15.5 142.51 15.27 142.87 15.27 143.59 15.27 144.3 15.27 145.73 15.03 146.09 14.79 146.45 14.67 146.81 14.67 147.16 14.43 147.52 14.55 147.88 14.31 152.17 14.19 152.89 14.19 153.24 13.83 153.96 13.83 155.39 13.71 156.1 13.71 156.82 13.35 158.25 13.35 158.97 13.11 159.32 12.99 160.04 12.39 160.4 12.39 160.75 12.27 161.11 11.91 161.47 11.91 161.83 11.79 162.54 11.67 162.9 11.55 163.61 11.55 164.33 11.31 164.69 10.95 165.05 10.83 165.76 10.59 166.12 10.47 167.91 9.99 169.34 9.76 169.69 9.52 172.56 9.04 172.91 9.04 173.27 9.04 174.34 8.68 174.7 8.56 175.06 8.44 175.77 8.2 176.49 8.2 177.2 8.08 180.42 7.48 181.5 7.6 181.85 7.6" id="fig-d10f1b4fda994cd99a98ac6863baedd3-element-69"/>
      </g>
      <g stroke-width="0.79" fill="#000000" fill-opacity="0.000" class="geometry color_0.2" stroke="#00BFFF" id="fig-d10f1b4fda994cd99a98ac6863baedd3-element-70">
        <path fill="none" d="M21.63,44.73 L 21.99 44.73 22.35 44.61 22.7 44.61 23.06 44.61 23.42 44.61 23.78 44.61 24.14 44.61 24.85 44.61 25.21 44.61 25.92 44.49 26.64 44.37 27 44.37 27.71 44.25 28.07 44.13 30.57 43.89 31.65 43.89 32.36 43.89 34.86 43.77 35.22 43.65 35.58 43.65 35.94 43.65 36.29 43.65 36.65 43.65 37.01 43.65 37.37 43.65 37.73 43.65 38.08 43.65 38.44 43.3 38.8 43.3 39.51 43.18 39.87 43.18 40.23 43.18 40.59 43.06 40.94 44.01 41.3 43.42 41.66 43.42 42.02 43.42 42.37 43.42 42.73 43.42 43.09 43.42 43.45 43.42 43.81 43.42 44.16 43.3 44.52 43.3 44.88 43.18 45.24 43.18 47.38 42.58 47.74 42.58 48.1 42.46 48.45 42.34 48.81 42.1 49.17 42.1 49.53 42.1 49.89 42.1 50.24 42.1 50.6 41.98 51.32 41.98 51.67 41.74 52.03 41.74 52.39 41.74 52.75 41.74 53.1 41.74 53.46 41.38 53.82 41.38 54.53 41.26 54.89 41.02 55.25 40.9 55.61 40.78 55.97 40.78 56.32 40.78 57.04 40.54 57.4 40.42 57.75 40.3 58.11 40.3 58.83 40.06 59.54 39.82 59.9 39.82 60.26 39.82 60.61 39.82 61.69 39.82 62.04 39.82 62.4 39.7 62.76 39.7 63.12 39.7 63.48 39.58 63.83 39.58 64.19 39.58 64.91 39.46 65.26 39.46 65.98 39.46 66.34 39.46 66.69 39.1 67.05 39.1 67.77 39.34 68.12 39.34 68.48 39.1 68.84 38.98 69.2 38.98 69.56 38.74 69.91 38.74" id="fig-d10f1b4fda994cd99a98ac6863baedd3-element-71"/>
      </g>
    </g>
  </g>
  <g class="guide ylabels" font-size="2.82" font-family="'PT Sans Caption','Helvetica Neue','Helvetica',sans-serif" fill="#6C606B" id="fig-d10f1b4fda994cd99a98ac6863baedd3-element-72">
    <text x="18.63" y="54.91" text-anchor="end" dy="0.35em" id="fig-d10f1b4fda994cd99a98ac6863baedd3-element-73">200</text>
    <text x="18.63" y="42.94" text-anchor="end" dy="0.35em" id="fig-d10f1b4fda994cd99a98ac6863baedd3-element-74">300</text>
    <text x="18.63" y="30.96" text-anchor="end" dy="0.35em" id="fig-d10f1b4fda994cd99a98ac6863baedd3-element-75">400</text>
    <text x="18.63" y="18.98" text-anchor="end" dy="0.35em" id="fig-d10f1b4fda994cd99a98ac6863baedd3-element-76">500</text>
    <text x="18.63" y="7" text-anchor="end" dy="0.35em" id="fig-d10f1b4fda994cd99a98ac6863baedd3-element-77">600</text>
  </g>
</g>
<defs>
<clipPath id="fig-d10f1b4fda994cd99a98ac6863baedd3-element-18">
  <path d="M19.63,5 L 183.85 5 183.85 56.92 19.63 56.92" />
</clipPath
></defs>
</svg>
