<?xml version="1.0" encoding="UTF-8"?>
<svg xmlns="http://www.w3.org/2000/svg"
     xmlns:xlink="http://www.w3.org/1999/xlink"
     xmlns:gadfly="http://www.gadflyjl.org/ns"
     version="1.2"
     width="203.2mm" height="76.2mm" viewBox="0 0 203.2 76.2"
     stroke="none"
     fill="#000000"
     stroke-width="0.3"
     font-size="3.88"
>
<g class="plotroot xscalable yscalable" id="fig-a9e3de8d73704527962ca9706f51315f-element-1">
  <g font-size="3.88" font-family="'PT Sans','Helvetica Neue','Helvetica',sans-serif" fill="#564A55" stroke="none" id="fig-a9e3de8d73704527962ca9706f51315f-element-2">
    <text x="101.74" y="68.2" text-anchor="middle">Date</text>
  </g>
  <g class="guide xlabels" font-size="2.82" font-family="'PT Sans Caption','Helvetica Neue','Helvetica',sans-serif" fill="#6C606B" id="fig-a9e3de8d73704527962ca9706f51315f-element-3">
    <text x="23.58" y="62.59" text-anchor="middle">Apr</text>
    <text x="47.27" y="62.59" text-anchor="middle">May</text>
    <text x="71.74" y="62.59" text-anchor="middle">June</text>
    <text x="95.43" y="62.59" text-anchor="middle">July</text>
    <text x="119.9" y="62.59" text-anchor="middle">Aug</text>
    <text x="144.38" y="62.59" text-anchor="middle">Sept</text>
    <text x="168.06" y="62.59" text-anchor="middle">Oct</text>
  </g>
  <g class="guide colorkey" id="fig-a9e3de8d73704527962ca9706f51315f-element-4">
    <g fill="#4C404B" font-size="2.82" font-family="'PT Sans','Helvetica Neue','Helvetica',sans-serif" id="fig-a9e3de8d73704527962ca9706f51315f-element-5">
      <text x="187.67" y="30.14" dy="0.35em" id="fig-a9e3de8d73704527962ca9706f51315f-element-6" class="color_0.2">0.2</text>
      <text x="187.67" y="33.77" dy="0.35em" id="fig-a9e3de8d73704527962ca9706f51315f-element-7" class="color_0.3">0.3</text>
      <text x="187.67" y="37.4" dy="0.35em" id="fig-a9e3de8d73704527962ca9706f51315f-element-8" class="color_0.4">0.4</text>
    </g>
    <g stroke="none" id="fig-a9e3de8d73704527962ca9706f51315f-element-9">
      <rect x="184.85" y="29.24" width="1.81" height="1.81" id="fig-a9e3de8d73704527962ca9706f51315f-element-10" fill="#00BFFF" class="color_0.2"/>
      <rect x="184.85" y="32.86" width="1.81" height="1.81" id="fig-a9e3de8d73704527962ca9706f51315f-element-11" fill="#D4CA3A" class="color_0.3"/>
      <rect x="184.85" y="36.49" width="1.81" height="1.81" id="fig-a9e3de8d73704527962ca9706f51315f-element-12" fill="#FF5EA0" class="color_0.4"/>
    </g>
    <g fill="#362A35" font-size="3.88" font-family="'PT Sans','Helvetica Neue','Helvetica',sans-serif" stroke="none" id="fig-a9e3de8d73704527962ca9706f51315f-element-13">
      <text x="184.85" y="26.32" id="fig-a9e3de8d73704527962ca9706f51315f-element-14">Julia ver.</text>
    </g>
  </g>
  <g font-size="3.88" font-family="'PT Sans','Helvetica Neue','Helvetica',sans-serif" fill="#564A55" stroke="none" id="fig-a9e3de8d73704527962ca9706f51315f-element-15">
    <text x="8.81" y="29.96" text-anchor="middle" dy="0.35em" transform="rotate(-90, 8.81, 31.96)" id="fig-a9e3de8d73704527962ca9706f51315f-element-16">Number of Tagged Packages</text>
  </g>
  <g clip-path="url(#fig-a9e3de8d73704527962ca9706f51315f-element-18)" id="fig-a9e3de8d73704527962ca9706f51315f-element-17">
    <g pointer-events="visible" opacity="1" fill="none" stroke="none" class="guide background" id="fig-a9e3de8d73704527962ca9706f51315f-element-19">
      <rect x="19.63" y="5" width="164.22" height="53.91" id="fig-a9e3de8d73704527962ca9706f51315f-element-20"/>
    </g>
    <g class="guide ygridlines xfixed" stroke-dasharray="0.5,0.5" stroke-width="0.2" stroke="#D0D0E0" id="fig-a9e3de8d73704527962ca9706f51315f-element-21">
      <path fill="none" d="M19.63,56.91 L 183.85 56.91" id="fig-a9e3de8d73704527962ca9706f51315f-element-22"/>
      <path fill="none" d="M19.63,44.44 L 183.85 44.44" id="fig-a9e3de8d73704527962ca9706f51315f-element-23"/>
      <path fill="none" d="M19.63,31.96 L 183.85 31.96" id="fig-a9e3de8d73704527962ca9706f51315f-element-24"/>
      <path fill="none" d="M19.63,19.48 L 183.85 19.48" id="fig-a9e3de8d73704527962ca9706f51315f-element-25"/>
      <path fill="none" d="M19.63,7 L 183.85 7" id="fig-a9e3de8d73704527962ca9706f51315f-element-26"/>
    </g>
    <g class="guide xgridlines yfixed" stroke-dasharray="0.5,0.5" stroke-width="0.2" stroke="#D0D0E0" id="fig-a9e3de8d73704527962ca9706f51315f-element-27">
      <path fill="none" d="M23.58,5 L 23.58 58.91" id="fig-a9e3de8d73704527962ca9706f51315f-element-28"/>
      <path fill="none" d="M47.27,5 L 47.27 58.91" id="fig-a9e3de8d73704527962ca9706f51315f-element-29"/>
      <path fill="none" d="M71.74,5 L 71.74 58.91" id="fig-a9e3de8d73704527962ca9706f51315f-element-30"/>
      <path fill="none" d="M95.43,5 L 95.43 58.91" id="fig-a9e3de8d73704527962ca9706f51315f-element-31"/>
      <path fill="none" d="M119.9,5 L 119.9 58.91" id="fig-a9e3de8d73704527962ca9706f51315f-element-32"/>
      <path fill="none" d="M144.38,5 L 144.38 58.91" id="fig-a9e3de8d73704527962ca9706f51315f-element-33"/>
      <path fill="none" d="M168.06,5 L 168.06 58.91" id="fig-a9e3de8d73704527962ca9706f51315f-element-34"/>
    </g>
    <g class="plotpanel" id="fig-a9e3de8d73704527962ca9706f51315f-element-35">
      <g stroke-width="0.79" fill="none" class="geometry color_0.4" stroke="#FF5EA0" id="fig-a9e3de8d73704527962ca9706f51315f-element-36">
        <path fill="none" d="M129.38,28.46 L 130.17 27.71 130.96 27.47 131.75 27.22 132.53 27.22 133.32 27.22 134.9 26.47 135.69 26.47 136.48 26.22 137.27 26.22 138.06 26.22 138.85 25.47 139.64 24.97 140.43 24.97 142.01 24.47 142.8 23.72 144.38 23.22 145.17 23.22 145.96 23.22 149.11 23.22 151.48 21.72 152.27 21.48 153.06 21.23 153.85 20.73 154.64 20.73 155.43 20.73 156.22 18.73 157.01 18.73 157.8 18.73 159.38 18.48 160.17 18.48 160.96 18.23 161.75 18.23 162.54 18.23 163.33 17.98 164.12 17.98 165.69 18.23 166.48 17.98 167.27 17.98 168.06 17.48 168.85 16.98 169.64 16.98 170.43 16.98 171.22 16.48 173.59 15.98 174.38 15.98 175.17 15.49 175.96 15.24 176.75 15.24 177.54 15.24 178.33 14.74 179.12 14.74 179.91 14.49 180.7 14.24 181.49 14.24 182.28 14.24" id="fig-a9e3de8d73704527962ca9706f51315f-element-37"/>
      </g>
      <g stroke-width="0.79" fill="none" class="geometry color_0.3" stroke="#D4CA3A" id="fig-a9e3de8d73704527962ca9706f51315f-element-38">
        <path fill="none" d="M22,45.43 L 22.79 45.43 23.58 45.18 24.37 45.18 25.16 45.18 25.95 45.18 26.74 45.18 27.53 44.94 29.11 44.94 29.9 44.69 31.47 44.44 33.05 43.94 33.84 43.94 35.42 43.94 36.21 43.69 41.74 42.69 44.11 42.69 45.69 42.69 51.21 42.44 52 41.94 52.79 41.69 53.58 41.69 54.37 41.69 55.16 41.69 55.95 41.69 56.74 41.69 57.53 41.69 58.32 41.69 59.11 41.69 59.9 40.94 61.48 40.69 62.27 40.69 63.06 40.69 63.85 40.19 64.63 40.19 65.42 40.19 66.21 39.94 67 39.94 67.79 39.94 68.58 39.94 69.37 39.94 70.16 39.69 70.95 39.69 71.74 49.68 72.53 39.44 73.32 39.2 74.11 38.95 78.85 37.45 79.64 37.2 80.43 36.95 81.22 36.7 82 36.2 82.79 36.2 83.58 35.7 84.37 35.7 85.16 35.45 85.95 35.2 87.53 35.2 88.32 34.7 89.11 34.7 89.9 34.7 90.69 34.7 91.48 34.7 92.27 33.95 93.06 33.95 94.64 33.7 95.43 33.21 96.22 32.96 97.01 32.71 97.8 32.71 98.58 32.21 100.16 31.96 100.95 31.21 101.74 31.21 102.53 31.21 104.11 29.96 105.69 29.21 106.48 29.21 107.27 28.96 108.06 28.96 110.43 28.71 111.22 28.71 112.01 28.46 112.8 28.46 113.59 28.46 114.38 28.21 115.16 27.96 115.95 27.71 117.53 27.71 118.32 27.71 119.9 27.71 120.69 27.47 121.48 26.72 122.27 26.72 123.85 26.47 124.64 26.47 125.43 25.97 126.22 25.72 127.01 25.47 127.8 25.22 128.59 24.97 129.38 24.47 130.17 24.47 130.96 24.22 131.75 23.97 132.53 23.97 133.32 23.97 134.9 23.22 135.69 23.22 136.48 22.97 137.27 22.97 138.06 22.97 138.85 22.22 139.64 21.97 140.43 21.72 142.01 24.72 142.8 23.97 144.38 23.47 145.17 23.47 145.96 23.47 149.11 23.47 151.48 21.97 152.27 21.72 153.06 21.48 153.85 20.98 154.64 20.98 155.43 20.98 156.22 18.98 157.01 18.98 157.8 18.98 159.38 18.98 160.17 18.73 160.96 18.48 161.75 18.48 162.54 18.48 163.33 18.23 164.12 18.23 165.69 18.48 166.48 18.23 167.27 18.23 168.06 17.73 168.85 12.74 169.64 17.23 170.43 17.23 171.22 16.73 173.59 16.23 174.38 16.23 175.17 15.74 175.96 15.49 176.75 15.49 177.54 15.49 178.33 14.99 179.12 14.99 179.91 14.74 180.7 14.49 181.49 14.49 182.28 14.49" id="fig-a9e3de8d73704527962ca9706f51315f-element-39"/>
      </g>
      <g stroke-width="0.79" fill="none" class="geometry color_0.2" stroke="#00BFFF" id="fig-a9e3de8d73704527962ca9706f51315f-element-40">
        <path fill="none" d="M22,48.18 L 22.79 48.18 23.58 47.93 24.37 47.93 25.16 47.93 25.95 47.93 26.74 47.93 27.53 47.93 29.11 47.93 29.9 47.93 31.47 47.68 33.05 47.43 33.84 47.43 35.42 47.18 36.21 46.93 41.74 46.43 44.11 46.43 45.69 46.43 51.21 46.18 52 45.93 52.79 45.93 53.58 45.93 54.37 45.93 55.16 45.93 55.95 45.93 56.74 45.93 57.53 45.93 58.32 45.93 59.11 45.18 59.9 45.18 61.48 44.94 62.27 44.94 63.06 44.94 63.85 44.69 64.63 46.68 65.42 45.43 66.21 45.43 67 45.43 67.79 45.43 68.58 45.43 69.37 45.43 70.16 45.43 70.95 45.43 71.74 45.18 72.53 45.18 73.32 44.94 74.11 44.94 78.85 43.69 79.64 43.69 80.43 43.44 81.22 43.19 82 42.69 82.79 42.69 83.58 42.69 84.37 42.69 85.16 42.69 85.95 42.44 87.53 42.44 88.32 41.94 89.11 41.94 89.9 41.94 90.69 41.94 91.48 41.94 92.27 41.19 93.06 41.19 94.64 40.94 95.43 40.44 96.22 40.19 97.01 39.94 97.8 39.94 98.58 39.94 100.16 39.44 100.95 39.2 101.74 38.95 102.53 38.95 104.11 38.45 105.69 37.95 106.48 37.95 107.27 37.95 108.06 37.95 110.43 37.95 111.22 37.95 112.01 37.7 112.8 37.7 113.59 37.7 114.38 37.45 115.16 37.45 115.95 37.45 117.53 37.2 118.32 37.2 119.9 37.2 120.69 37.2 121.48 36.45 122.27 36.45 123.85 36.95 124.64 36.95 125.43 36.45 126.22 36.2 127.01 36.2 127.8 35.7 128.59 35.7" id="fig-a9e3de8d73704527962ca9706f51315f-element-41"/>
      </g>
    </g>
  </g>
  <g class="guide ylabels" font-size="2.82" font-family="'PT Sans Caption','Helvetica Neue','Helvetica',sans-serif" fill="#6C606B" id="fig-a9e3de8d73704527962ca9706f51315f-element-42">
    <text x="18.63" y="56.91" text-anchor="end" dy="0.35em" id="fig-a9e3de8d73704527962ca9706f51315f-element-43">250</text>
    <text x="18.63" y="44.44" text-anchor="end" dy="0.35em" id="fig-a9e3de8d73704527962ca9706f51315f-element-44">300</text>
    <text x="18.63" y="31.96" text-anchor="end" dy="0.35em" id="fig-a9e3de8d73704527962ca9706f51315f-element-45">350</text>
    <text x="18.63" y="19.48" text-anchor="end" dy="0.35em" id="fig-a9e3de8d73704527962ca9706f51315f-element-46">400</text>
    <text x="18.63" y="7" text-anchor="end" dy="0.35em" id="fig-a9e3de8d73704527962ca9706f51315f-element-47">450</text>
  </g>
</g>
<defs>
<clipPath id="fig-a9e3de8d73704527962ca9706f51315f-element-18">
  <path d="M19.63,5 L 183.85 5 183.85 58.91 19.63 58.91" />
</clipPath
></defs>
</svg>
