<?xml version="1.0" encoding="UTF-8"?>
<svg xmlns="http://www.w3.org/2000/svg"
     xmlns:xlink="http://www.w3.org/1999/xlink"
     xmlns:gadfly="http://www.gadflyjl.org/ns"
     version="1.2"
     width="203.2mm" height="76.2mm" viewBox="0 0 203.2 76.2"
     stroke="none"
     fill="#000000"
     stroke-width="0.3"
     font-size="3.88"
>
<g class="plotroot xscalable yscalable" id="fig-afb4f0ce8fca4160a90cce528121547b-element-1">
  <g font-size="3.88" font-family="'PT Sans','Helvetica Neue','Helvetica',sans-serif" fill="#564A55" stroke="none" id="fig-afb4f0ce8fca4160a90cce528121547b-element-2">
    <text x="101.74" y="68.2" text-anchor="middle">Date</text>
  </g>
  <g class="guide xlabels" font-size="2.82" font-family="'PT Sans Caption','Helvetica Neue','Helvetica',sans-serif" fill="#6C606B" id="fig-afb4f0ce8fca4160a90cce528121547b-element-3">
    <text x="22.96" y="62.59" text-anchor="middle">Apr</text>
    <text x="39.6" y="62.59" text-anchor="middle">May</text>
    <text x="56.8" y="62.59" text-anchor="middle">Jun</text>
    <text x="73.45" y="62.59" text-anchor="middle">Jul</text>
    <text x="90.65" y="62.59" text-anchor="middle">Aug</text>
    <text x="107.85" y="62.59" text-anchor="middle">Sep</text>
    <text x="124.49" y="62.59" text-anchor="middle">Oct</text>
    <text x="141.69" y="62.59" text-anchor="middle">Nov</text>
    <text x="158.33" y="62.59" text-anchor="middle">Dec</text>
    <text x="175.53" y="62.59" text-anchor="middle">Jan 2015</text>
  </g>
  <g class="guide colorkey" id="fig-afb4f0ce8fca4160a90cce528121547b-element-4">
    <g fill="#4C404B" font-size="2.82" font-family="'PT Sans','Helvetica Neue','Helvetica',sans-serif" id="fig-afb4f0ce8fca4160a90cce528121547b-element-5">
      <text x="187.67" y="30.14" dy="0.35em" id="fig-afb4f0ce8fca4160a90cce528121547b-element-6" class="color_0.2">0.2</text>
      <text x="187.67" y="33.77" dy="0.35em" id="fig-afb4f0ce8fca4160a90cce528121547b-element-7" class="color_0.3">0.3</text>
      <text x="187.67" y="37.4" dy="0.35em" id="fig-afb4f0ce8fca4160a90cce528121547b-element-8" class="color_0.4">0.4</text>
    </g>
    <g stroke="none" id="fig-afb4f0ce8fca4160a90cce528121547b-element-9">
      <rect x="184.85" y="29.24" width="1.81" height="1.81" id="fig-afb4f0ce8fca4160a90cce528121547b-element-10" class="color_0.2" fill="#00BFFF"/>
      <rect x="184.85" y="32.86" width="1.81" height="1.81" id="fig-afb4f0ce8fca4160a90cce528121547b-element-11" class="color_0.3" fill="#D4CA3A"/>
      <rect x="184.85" y="36.49" width="1.81" height="1.81" id="fig-afb4f0ce8fca4160a90cce528121547b-element-12" class="color_0.4" fill="#FF5EA0"/>
    </g>
    <g fill="#362A35" font-size="3.88" font-family="'PT Sans','Helvetica Neue','Helvetica',sans-serif" stroke="none" id="fig-afb4f0ce8fca4160a90cce528121547b-element-13">
      <text x="184.85" y="26.32" id="fig-afb4f0ce8fca4160a90cce528121547b-element-14">Julia ver.</text>
    </g>
  </g>
  <g font-size="3.88" font-family="'PT Sans','Helvetica Neue','Helvetica',sans-serif" fill="#564A55" stroke="none" id="fig-afb4f0ce8fca4160a90cce528121547b-element-15">
    <text x="8.81" y="29.96" text-anchor="middle" dy="0.35em" transform="rotate(-90, 8.81, 31.96)" id="fig-afb4f0ce8fca4160a90cce528121547b-element-16">Number of Tagged Packages</text>
  </g>
  <g clip-path="url(#fig-afb4f0ce8fca4160a90cce528121547b-element-18)" id="fig-afb4f0ce8fca4160a90cce528121547b-element-17">
    <g pointer-events="visible" opacity="1" fill="none" stroke="none" class="guide background" id="fig-afb4f0ce8fca4160a90cce528121547b-element-19">
      <rect x="19.63" y="5" width="164.22" height="53.91" id="fig-afb4f0ce8fca4160a90cce528121547b-element-20"/>
    </g>
    <g class="guide ygridlines xfixed" stroke-dasharray="0.5,0.5" stroke-width="0.2" stroke="#D0D0E0" id="fig-afb4f0ce8fca4160a90cce528121547b-element-21">
      <path fill="none" d="M19.63,56.91 L 183.85 56.91" id="fig-afb4f0ce8fca4160a90cce528121547b-element-22"/>
      <path fill="none" d="M19.63,46.93 L 183.85 46.93" id="fig-afb4f0ce8fca4160a90cce528121547b-element-23"/>
      <path fill="none" d="M19.63,36.95 L 183.85 36.95" id="fig-afb4f0ce8fca4160a90cce528121547b-element-24"/>
      <path fill="none" d="M19.63,26.97 L 183.85 26.97" id="fig-afb4f0ce8fca4160a90cce528121547b-element-25"/>
      <path fill="none" d="M19.63,16.98 L 183.85 16.98" id="fig-afb4f0ce8fca4160a90cce528121547b-element-26"/>
      <path fill="none" d="M19.63,7 L 183.85 7" id="fig-afb4f0ce8fca4160a90cce528121547b-element-27"/>
    </g>
    <g class="guide xgridlines yfixed" stroke-dasharray="0.5,0.5" stroke-width="0.2" stroke="#D0D0E0" id="fig-afb4f0ce8fca4160a90cce528121547b-element-28">
      <path fill="none" d="M22.96,5 L 22.96 58.91" id="fig-afb4f0ce8fca4160a90cce528121547b-element-29"/>
      <path fill="none" d="M39.6,5 L 39.6 58.91" id="fig-afb4f0ce8fca4160a90cce528121547b-element-30"/>
      <path fill="none" d="M56.8,5 L 56.8 58.91" id="fig-afb4f0ce8fca4160a90cce528121547b-element-31"/>
      <path fill="none" d="M73.45,5 L 73.45 58.91" id="fig-afb4f0ce8fca4160a90cce528121547b-element-32"/>
      <path fill="none" d="M90.65,5 L 90.65 58.91" id="fig-afb4f0ce8fca4160a90cce528121547b-element-33"/>
      <path fill="none" d="M107.85,5 L 107.85 58.91" id="fig-afb4f0ce8fca4160a90cce528121547b-element-34"/>
      <path fill="none" d="M124.49,5 L 124.49 58.91" id="fig-afb4f0ce8fca4160a90cce528121547b-element-35"/>
      <path fill="none" d="M141.69,5 L 141.69 58.91" id="fig-afb4f0ce8fca4160a90cce528121547b-element-36"/>
      <path fill="none" d="M158.33,5 L 158.33 58.91" id="fig-afb4f0ce8fca4160a90cce528121547b-element-37"/>
      <path fill="none" d="M175.53,5 L 175.53 58.91" id="fig-afb4f0ce8fca4160a90cce528121547b-element-38"/>
    </g>
    <g class="plotpanel" id="fig-afb4f0ce8fca4160a90cce528121547b-element-39">
      <g stroke-width="0.79" fill="none" class="geometry color_0.4" stroke="#FF5EA0" id="fig-afb4f0ce8fca4160a90cce528121547b-element-40">
        <path fill="none" d="M97.3,34.15 L 97.86 33.55 98.41 33.36 98.97 33.16 99.52 33.16 100.08 33.16 101.19 32.56 101.74 32.56 102.3 32.36 102.85 32.36 103.41 32.36 103.96 31.76 104.52 31.36 105.07 31.36 106.18 30.96 106.74 30.36 107.85 29.96 108.4 29.96 108.96 29.96 111.17 29.96 112.84 28.76 113.39 28.56 113.95 28.36 114.5 27.96 115.06 27.96 115.61 27.96 116.17 26.37 116.72 26.37 117.28 26.37 118.39 26.17 118.94 26.17 119.5 25.97 120.05 25.97 120.61 25.97 121.16 25.77 121.72 25.77 122.83 25.97 123.38 25.77 123.94 25.77 124.49 25.37 125.04 24.97 125.6 24.97 126.15 24.97 126.71 24.57 128.37 24.17 128.93 24.17 129.48 23.77 130.04 23.57 130.59 23.57 131.15 23.57 131.7 23.17 132.26 23.17 132.81 22.97 133.37 22.77 133.92 22.77 134.48 22.77 135.03 22.77 135.59 22.37 136.14 21.97 136.7 21.97 137.25 21.97 137.81 21.77 138.36 21.77 138.91 21.58 139.47 21.58 140.02 21.18 140.58 20.98 141.13 20.98 141.69 20.78 142.24 20.78 142.8 20.78 143.35 20.78 143.91 20.58 144.46 20.38 146.13 20.38 148.9 19.18 149.46 18.78 150.01 18.78 150.57 18.58 151.12 18.58 151.68 17.98 152.23 17.98 154.45 16.98 155 16.98 157.78 16.78 158.89 16.78 159.44 16.38 160 16.18 160.55 16.18 161.11 16.18 161.66 15.79 162.22 15.39 163.88 15.19 164.44 14.99 165.55 14.19 166.1 14.19 166.66 14.19 168.32 14.19 169.43 13.79 171.09 13.39 173.31 12.99 174.42 12.19 176.09 11.79 179.97 10.39 182.19 9" id="fig-afb4f0ce8fca4160a90cce528121547b-element-41"/>
      </g>
      <g stroke-width="0.79" fill="none" class="geometry color_0.3" stroke="#D4CA3A" id="fig-afb4f0ce8fca4160a90cce528121547b-element-42">
        <path fill="none" d="M21.85,47.73 L 22.41 47.73 22.96 47.53 23.52 47.53 24.07 47.53 24.62 47.53 25.18 47.53 25.73 47.33 26.84 47.33 27.4 47.13 28.51 46.93 29.62 46.53 30.17 46.53 31.28 46.53 31.84 46.33 35.72 45.53 37.39 45.53 38.5 45.53 42.38 45.33 42.93 44.94 43.49 44.74 44.04 44.74 44.6 44.74 45.15 44.74 45.71 44.74 46.26 44.74 46.82 44.74 47.37 44.74 47.93 44.74 48.48 44.14 49.59 43.94 50.15 43.94 50.7 43.94 51.26 43.54 51.81 43.54 52.37 43.54 52.92 43.34 53.47 43.34 54.03 43.34 54.58 43.34 55.14 43.34 55.69 43.14 56.25 43.14 56.8 51.12 57.36 42.94 57.91 42.74 58.47 42.54 61.8 41.34 62.35 41.14 62.91 40.94 63.46 40.74 64.02 40.34 64.57 40.34 65.13 39.94 65.68 39.94 66.24 39.74 66.79 39.54 67.9 39.54 68.45 39.15 69.01 39.15 69.56 39.15 70.12 39.15 70.67 39.15 71.23 38.55 71.78 38.55 72.89 38.35 73.45 37.95 74 37.75 74.56 37.55 75.11 37.55 75.67 37.15 76.78 36.95 77.33 36.35 77.89 36.35 78.44 36.35 79.55 35.35 80.66 34.75 81.22 34.75 81.77 34.55 82.32 34.55 83.99 34.35 84.54 34.35 85.1 34.15 85.65 34.15 86.21 34.15 86.76 33.95 87.32 33.75 87.87 33.55 88.98 33.55 89.54 33.55 90.65 33.55 91.2 33.36 91.76 32.76 92.31 32.76 93.42 32.56 93.98 32.56 94.53 32.16 95.09 31.96 95.64 31.76 96.19 31.56 96.75 31.36 97.3 30.96 97.86 30.96 98.41 30.76 98.97 30.56 99.52 30.56 100.08 30.56 101.19 29.96 101.74 29.96 102.3 29.76 102.85 29.76 103.41 29.76 103.96 29.16 104.52 28.96 105.07 28.76 106.18 31.16 106.74 30.56 107.85 30.16 108.4 30.16 108.96 30.16 111.17 30.16 112.84 28.96 113.39 28.76 113.95 28.56 114.5 28.16 115.06 28.16 115.61 28.16 116.17 26.57 116.72 26.57 117.28 26.57 118.39 26.57 118.94 26.37 119.5 26.17 120.05 26.17 120.61 26.17 121.16 25.97 121.72 25.97 122.83 26.17 123.38 25.97 123.94 25.97 124.49 25.57 125.04 21.58 125.6 25.17 126.15 25.17 126.71 24.77 128.37 24.37 128.93 24.37 129.48 23.97 130.04 23.77 130.59 23.77 131.15 23.77 131.7 23.37 132.26 23.37 132.81 23.17 133.37 22.97 133.92 22.97 134.48 22.97 135.03 22.97 135.59 22.77 136.14 22.37 136.7 22.37 137.25 22.37 137.81 22.17 138.36 22.17 138.91 21.97 139.47 21.97 140.02 21.58 140.58 21.38 141.13 21.38 141.69 21.18 142.24 21.18 142.8 21.18 143.35 20.98 143.91 20.98 144.46 20.78 146.13 20.78 148.9 19.78 149.46 19.38 150.01 19.38 150.57 19.18 151.12 19.18 151.68 18.58 152.23 18.58 154.45 17.58 155 17.58 157.78 17.38 158.89 17.38 159.44 17.18 160 16.98 160.55 16.98 161.11 16.98 161.66 16.58 162.22 16.38 163.88 15.98 164.44 15.79 165.55 15.19 166.1 14.99 166.66 14.99 168.32 14.99 169.43 14.59 171.09 14.19 173.31 13.79 174.42 13.19 176.09 12.39 179.97 11.19 182.19 9.8" id="fig-afb4f0ce8fca4160a90cce528121547b-element-43"/>
      </g>
      <g stroke-width="0.79" fill="none" class="geometry color_0.2" stroke="#00BFFF" id="fig-afb4f0ce8fca4160a90cce528121547b-element-44">
        <path fill="none" d="M21.85,49.93 L 22.41 49.93 22.96 49.73 23.52 49.73 24.07 49.73 24.62 49.73 25.18 49.73 25.73 49.73 26.84 49.73 27.4 49.73 28.51 49.53 29.62 49.33 30.17 49.33 31.28 49.13 31.84 48.93 35.72 48.53 37.39 48.53 38.5 48.53 42.38 48.33 42.93 48.13 43.49 48.13 44.04 48.13 44.6 48.13 45.15 48.13 45.71 48.13 46.26 48.13 46.82 48.13 47.37 48.13 47.93 47.53 48.48 47.53 49.59 47.33 50.15 47.33 50.7 47.33 51.26 47.13 51.81 48.73 52.37 47.73 52.92 47.73 53.47 47.73 54.03 47.73 54.58 47.73 55.14 47.73 55.69 47.73 56.25 47.73 56.8 47.53 57.36 47.53 57.91 47.33 58.47 47.33 61.8 46.33 62.35 46.33 62.91 46.13 63.46 45.93 64.02 45.53 64.57 45.53 65.13 45.53 65.68 45.53 66.24 45.53 66.79 45.33 67.9 45.33 68.45 44.94 69.01 44.94 69.56 44.94 70.12 44.94 70.67 44.94 71.23 44.34 71.78 44.34 72.89 44.14 73.45 43.74 74 43.54 74.56 43.34 75.11 43.34 75.67 43.34 76.78 42.94 77.33 42.74 77.89 42.54 78.44 42.54 79.55 42.14 80.66 41.74 81.22 41.74 81.77 41.74 82.32 41.74 83.99 41.74 84.54 41.74 85.1 41.54 85.65 41.54 86.21 41.54 86.76 41.34 87.32 41.34 87.87 41.34 88.98 41.14 89.54 41.14 90.65 41.14 91.2 41.14 91.76 40.54 92.31 40.54 93.42 40.94 93.98 40.94 94.53 40.54 95.09 40.34 95.64 40.34 96.19 39.94 96.75 39.94" id="fig-afb4f0ce8fca4160a90cce528121547b-element-45"/>
      </g>
    </g>
  </g>
  <g class="guide ylabels" font-size="2.82" font-family="'PT Sans Caption','Helvetica Neue','Helvetica',sans-serif" fill="#6C606B" id="fig-afb4f0ce8fca4160a90cce528121547b-element-46">
    <text x="18.63" y="56.91" text-anchor="end" dy="0.35em" id="fig-afb4f0ce8fca4160a90cce528121547b-element-47">250</text>
    <text x="18.63" y="46.93" text-anchor="end" dy="0.35em" id="fig-afb4f0ce8fca4160a90cce528121547b-element-48">300</text>
    <text x="18.63" y="36.95" text-anchor="end" dy="0.35em" id="fig-afb4f0ce8fca4160a90cce528121547b-element-49">350</text>
    <text x="18.63" y="26.97" text-anchor="end" dy="0.35em" id="fig-afb4f0ce8fca4160a90cce528121547b-element-50">400</text>
    <text x="18.63" y="16.98" text-anchor="end" dy="0.35em" id="fig-afb4f0ce8fca4160a90cce528121547b-element-51">450</text>
    <text x="18.63" y="7" text-anchor="end" dy="0.35em" id="fig-afb4f0ce8fca4160a90cce528121547b-element-52">500</text>
  </g>
</g>
<defs>
<clipPath id="fig-afb4f0ce8fca4160a90cce528121547b-element-18">
  <path d="M19.63,5 L 183.85 5 183.85 58.91 19.63 58.91" />
</clipPath
></defs>
</svg>
