<?xml version="1.0" encoding="UTF-8"?>
<svg xmlns="http://www.w3.org/2000/svg"
     xmlns:xlink="http://www.w3.org/1999/xlink"
     xmlns:gadfly="http://www.gadflyjl.org/ns"
     version="1.2"
     width="203.2mm" height="76.2mm" viewBox="0 0 203.2 76.2"
     stroke="none"
     fill="#000000"
     stroke-width="0.3"
     font-size="3.88"
>
<g class="plotroot xscalable yscalable" id="fig-a4eaeabe8aee4d1e811146fde8a1a657-element-1">
  <g font-size="3.88" font-family="'PT Sans','Helvetica Neue','Helvetica',sans-serif" fill="#564A55" stroke="none" id="fig-a4eaeabe8aee4d1e811146fde8a1a657-element-2">
    <text x="101.74" y="68.2" text-anchor="middle">Date</text>
  </g>
  <g class="guide xlabels" font-size="2.82" font-family="'PT Sans Caption','Helvetica Neue','Helvetica',sans-serif" fill="#6C606B" id="fig-a4eaeabe8aee4d1e811146fde8a1a657-element-3">
    <text x="23.2" y="62.59" text-anchor="middle">Apr</text>
    <text x="44.62" y="62.59" text-anchor="middle">May</text>
    <text x="66.76" y="62.59" text-anchor="middle">June</text>
    <text x="88.18" y="62.59" text-anchor="middle">July</text>
    <text x="110.31" y="62.59" text-anchor="middle">Aug</text>
    <text x="132.45" y="62.59" text-anchor="middle">Sept</text>
    <text x="153.87" y="62.59" text-anchor="middle">Oct</text>
    <text x="176" y="62.59" text-anchor="middle">Nev</text>
  </g>
  <g class="guide colorkey" id="fig-a4eaeabe8aee4d1e811146fde8a1a657-element-4">
    <g fill="#4C404B" font-size="2.82" font-family="'PT Sans','Helvetica Neue','Helvetica',sans-serif" id="fig-a4eaeabe8aee4d1e811146fde8a1a657-element-5">
      <text x="187.67" y="30.14" dy="0.35em" id="fig-a4eaeabe8aee4d1e811146fde8a1a657-element-6" class="color_0.2">0.2</text>
      <text x="187.67" y="33.77" dy="0.35em" id="fig-a4eaeabe8aee4d1e811146fde8a1a657-element-7" class="color_0.3">0.3</text>
      <text x="187.67" y="37.4" dy="0.35em" id="fig-a4eaeabe8aee4d1e811146fde8a1a657-element-8" class="color_0.4">0.4</text>
    </g>
    <g stroke="none" id="fig-a4eaeabe8aee4d1e811146fde8a1a657-element-9">
      <rect x="184.85" y="29.24" width="1.81" height="1.81" id="fig-a4eaeabe8aee4d1e811146fde8a1a657-element-10" class="color_0.2" fill="#00BFFF"/>
      <rect x="184.85" y="32.86" width="1.81" height="1.81" id="fig-a4eaeabe8aee4d1e811146fde8a1a657-element-11" class="color_0.3" fill="#D4CA3A"/>
      <rect x="184.85" y="36.49" width="1.81" height="1.81" id="fig-a4eaeabe8aee4d1e811146fde8a1a657-element-12" class="color_0.4" fill="#FF5EA0"/>
    </g>
    <g fill="#362A35" font-size="3.88" font-family="'PT Sans','Helvetica Neue','Helvetica',sans-serif" stroke="none" id="fig-a4eaeabe8aee4d1e811146fde8a1a657-element-13">
      <text x="184.85" y="26.32" id="fig-a4eaeabe8aee4d1e811146fde8a1a657-element-14">Julia ver.</text>
    </g>
  </g>
  <g font-size="3.88" font-family="'PT Sans','Helvetica Neue','Helvetica',sans-serif" fill="#564A55" stroke="none" id="fig-a4eaeabe8aee4d1e811146fde8a1a657-element-15">
    <text x="8.81" y="29.96" text-anchor="middle" dy="0.35em" transform="rotate(-90, 8.81, 31.96)" id="fig-a4eaeabe8aee4d1e811146fde8a1a657-element-16">Number of Tagged Packages</text>
  </g>
  <g clip-path="url(#fig-a4eaeabe8aee4d1e811146fde8a1a657-element-18)" id="fig-a4eaeabe8aee4d1e811146fde8a1a657-element-17">
    <g pointer-events="visible" opacity="1" fill="none" stroke="none" class="guide background" id="fig-a4eaeabe8aee4d1e811146fde8a1a657-element-19">
      <rect x="19.63" y="5" width="164.22" height="53.91" id="fig-a4eaeabe8aee4d1e811146fde8a1a657-element-20"/>
    </g>
    <g class="guide ygridlines xfixed" stroke-dasharray="0.5,0.5" stroke-width="0.2" stroke="#D0D0E0" id="fig-a4eaeabe8aee4d1e811146fde8a1a657-element-21">
      <path fill="none" d="M19.63,56.91 L 183.85 56.91" id="fig-a4eaeabe8aee4d1e811146fde8a1a657-element-22"/>
      <path fill="none" d="M19.63,44.44 L 183.85 44.44" id="fig-a4eaeabe8aee4d1e811146fde8a1a657-element-23"/>
      <path fill="none" d="M19.63,31.96 L 183.85 31.96" id="fig-a4eaeabe8aee4d1e811146fde8a1a657-element-24"/>
      <path fill="none" d="M19.63,19.48 L 183.85 19.48" id="fig-a4eaeabe8aee4d1e811146fde8a1a657-element-25"/>
      <path fill="none" d="M19.63,7 L 183.85 7" id="fig-a4eaeabe8aee4d1e811146fde8a1a657-element-26"/>
    </g>
    <g class="guide xgridlines yfixed" stroke-dasharray="0.5,0.5" stroke-width="0.2" stroke="#D0D0E0" id="fig-a4eaeabe8aee4d1e811146fde8a1a657-element-27">
      <path fill="none" d="M23.2,5 L 23.2 58.91" id="fig-a4eaeabe8aee4d1e811146fde8a1a657-element-28"/>
      <path fill="none" d="M44.62,5 L 44.62 58.91" id="fig-a4eaeabe8aee4d1e811146fde8a1a657-element-29"/>
      <path fill="none" d="M66.76,5 L 66.76 58.91" id="fig-a4eaeabe8aee4d1e811146fde8a1a657-element-30"/>
      <path fill="none" d="M88.18,5 L 88.18 58.91" id="fig-a4eaeabe8aee4d1e811146fde8a1a657-element-31"/>
      <path fill="none" d="M110.31,5 L 110.31 58.91" id="fig-a4eaeabe8aee4d1e811146fde8a1a657-element-32"/>
      <path fill="none" d="M132.45,5 L 132.45 58.91" id="fig-a4eaeabe8aee4d1e811146fde8a1a657-element-33"/>
      <path fill="none" d="M153.87,5 L 153.87 58.91" id="fig-a4eaeabe8aee4d1e811146fde8a1a657-element-34"/>
      <path fill="none" d="M176,5 L 176 58.91" id="fig-a4eaeabe8aee4d1e811146fde8a1a657-element-35"/>
    </g>
    <g class="plotpanel" id="fig-a4eaeabe8aee4d1e811146fde8a1a657-element-36">
      <g stroke-width="0.79" fill="none" class="geometry color_0.4" stroke="#FF5EA0" id="fig-a4eaeabe8aee4d1e811146fde8a1a657-element-37">
        <path fill="none" d="M118.88,28.46 L 119.59 27.71 120.31 27.47 121.02 27.22 121.74 27.22 122.45 27.22 123.88 26.47 124.59 26.47 125.31 26.22 126.02 26.22 126.73 26.22 127.45 25.47 128.16 24.97 128.88 24.97 130.3 24.47 131.02 23.72 132.45 23.22 133.16 23.22 133.87 23.22 136.73 23.22 138.87 21.72 139.59 21.48 140.3 21.23 141.01 20.73 141.73 20.73 142.44 20.73 143.16 18.73 143.87 18.73 144.58 18.73 146.01 18.48 146.73 18.48 147.44 18.23 148.15 18.23 148.87 18.23 149.58 17.98 150.3 17.98 151.72 18.23 152.44 17.98 153.15 17.98 153.87 17.48 154.58 16.98 155.29 16.98 156.01 16.98 156.72 16.48 158.86 15.98 159.58 15.98 160.29 15.49 161.01 15.24 161.72 15.24 162.43 15.24 163.15 14.74 163.86 14.74 164.58 14.49 165.29 14.24 166 14.24 166.72 14.24 167.43 14.24 168.15 13.74 168.86 13.24 169.57 13.24 170.29 13.24 171 12.99 171.72 12.99 172.43 12.74 173.14 12.74 173.86 12.24 174.57 11.99 175.29 11.99 176 11.74 176.71 11.74 177.43 11.74 178.14 11.74 178.86 11.49 179.57 11.24 181.71 11.24" id="fig-a4eaeabe8aee4d1e811146fde8a1a657-element-38"/>
      </g>
      <g stroke-width="0.79" fill="none" class="geometry color_0.3" stroke="#D4CA3A" id="fig-a4eaeabe8aee4d1e811146fde8a1a657-element-39">
        <path fill="none" d="M21.77,45.43 L 22.49 45.43 23.2 45.18 23.92 45.18 24.63 45.18 25.34 45.18 26.06 45.18 26.77 44.94 28.2 44.94 28.91 44.69 30.34 44.44 31.77 43.94 32.48 43.94 33.91 43.94 34.63 43.69 39.62 42.69 41.77 42.69 43.19 42.69 48.19 42.44 48.91 41.94 49.62 41.69 50.33 41.69 51.05 41.69 51.76 41.69 52.48 41.69 53.19 41.69 53.9 41.69 54.62 41.69 55.33 41.69 56.05 40.94 57.47 40.69 58.19 40.69 58.9 40.69 59.62 40.19 60.33 40.19 61.04 40.19 61.76 39.94 62.47 39.94 63.19 39.94 63.9 39.94 64.61 39.94 65.33 39.69 66.04 39.69 66.76 49.68 67.47 39.44 68.18 39.2 68.9 38.95 73.18 37.45 73.9 37.2 74.61 36.95 75.32 36.7 76.04 36.2 76.75 36.2 77.47 35.7 78.18 35.7 78.89 35.45 79.61 35.2 81.04 35.2 81.75 34.7 82.46 34.7 83.18 34.7 83.89 34.7 84.61 34.7 85.32 33.95 86.03 33.95 87.46 33.7 88.18 33.21 88.89 32.96 89.6 32.71 90.32 32.71 91.03 32.21 92.46 31.96 93.17 31.21 93.89 31.21 94.6 31.21 96.03 29.96 97.46 29.21 98.17 29.21 98.89 28.96 99.6 28.96 101.74 28.71 102.46 28.71 103.17 28.46 103.88 28.46 104.6 28.46 105.31 28.21 106.03 27.96 106.74 27.71 108.17 27.71 108.88 27.71 110.31 27.71 111.03 27.47 111.74 26.72 112.45 26.72 113.88 26.47 114.6 26.47 115.31 25.97 116.02 25.72 116.74 25.47 117.45 25.22 118.17 24.97 118.88 24.47 119.59 24.47 120.31 24.22 121.02 23.97 121.74 23.97 122.45 23.97 123.88 23.22 124.59 23.22 125.31 22.97 126.02 22.97 126.73 22.97 127.45 22.22 128.16 21.97 128.88 21.72 130.3 24.72 131.02 23.97 132.45 23.47 133.16 23.47 133.87 23.47 136.73 23.47 138.87 21.97 139.59 21.72 140.3 21.48 141.01 20.98 141.73 20.98 142.44 20.98 143.16 18.98 143.87 18.98 144.58 18.98 146.01 18.98 146.73 18.73 147.44 18.48 148.15 18.48 148.87 18.48 149.58 18.23 150.3 18.23 151.72 18.48 152.44 18.23 153.15 18.23 153.87 17.73 154.58 12.74 155.29 17.23 156.01 17.23 156.72 16.73 158.86 16.23 159.58 16.23 160.29 15.74 161.01 15.49 161.72 15.49 162.43 15.49 163.15 14.99 163.86 14.99 164.58 14.74 165.29 14.49 166 14.49 166.72 14.49 167.43 14.49 168.15 14.24 168.86 13.74 169.57 13.74 170.29 13.74 171 13.49 171.72 13.49 172.43 13.24 173.14 13.24 173.86 12.74 174.57 12.49 175.29 12.49 176 12.24 176.71 12.24 177.43 12.24 178.14 11.99 178.86 11.99 179.57 11.74 181.71 11.74" id="fig-a4eaeabe8aee4d1e811146fde8a1a657-element-40"/>
      </g>
      <g stroke-width="0.79" fill="none" class="geometry color_0.2" stroke="#00BFFF" id="fig-a4eaeabe8aee4d1e811146fde8a1a657-element-41">
        <path fill="none" d="M21.77,48.18 L 22.49 48.18 23.2 47.93 23.92 47.93 24.63 47.93 25.34 47.93 26.06 47.93 26.77 47.93 28.2 47.93 28.91 47.93 30.34 47.68 31.77 47.43 32.48 47.43 33.91 47.18 34.63 46.93 39.62 46.43 41.77 46.43 43.19 46.43 48.19 46.18 48.91 45.93 49.62 45.93 50.33 45.93 51.05 45.93 51.76 45.93 52.48 45.93 53.19 45.93 53.9 45.93 54.62 45.93 55.33 45.18 56.05 45.18 57.47 44.94 58.19 44.94 58.9 44.94 59.62 44.69 60.33 46.68 61.04 45.43 61.76 45.43 62.47 45.43 63.19 45.43 63.9 45.43 64.61 45.43 65.33 45.43 66.04 45.43 66.76 45.18 67.47 45.18 68.18 44.94 68.9 44.94 73.18 43.69 73.9 43.69 74.61 43.44 75.32 43.19 76.04 42.69 76.75 42.69 77.47 42.69 78.18 42.69 78.89 42.69 79.61 42.44 81.04 42.44 81.75 41.94 82.46 41.94 83.18 41.94 83.89 41.94 84.61 41.94 85.32 41.19 86.03 41.19 87.46 40.94 88.18 40.44 88.89 40.19 89.6 39.94 90.32 39.94 91.03 39.94 92.46 39.44 93.17 39.2 93.89 38.95 94.6 38.95 96.03 38.45 97.46 37.95 98.17 37.95 98.89 37.95 99.6 37.95 101.74 37.95 102.46 37.95 103.17 37.7 103.88 37.7 104.6 37.7 105.31 37.45 106.03 37.45 106.74 37.45 108.17 37.2 108.88 37.2 110.31 37.2 111.03 37.2 111.74 36.45 112.45 36.45 113.88 36.95 114.6 36.95 115.31 36.45 116.02 36.2 116.74 36.2 117.45 35.7 118.17 35.7" id="fig-a4eaeabe8aee4d1e811146fde8a1a657-element-42"/>
      </g>
    </g>
  </g>
  <g class="guide ylabels" font-size="2.82" font-family="'PT Sans Caption','Helvetica Neue','Helvetica',sans-serif" fill="#6C606B" id="fig-a4eaeabe8aee4d1e811146fde8a1a657-element-43">
    <text x="18.63" y="56.91" text-anchor="end" dy="0.35em" id="fig-a4eaeabe8aee4d1e811146fde8a1a657-element-44">250</text>
    <text x="18.63" y="44.44" text-anchor="end" dy="0.35em" id="fig-a4eaeabe8aee4d1e811146fde8a1a657-element-45">300</text>
    <text x="18.63" y="31.96" text-anchor="end" dy="0.35em" id="fig-a4eaeabe8aee4d1e811146fde8a1a657-element-46">350</text>
    <text x="18.63" y="19.48" text-anchor="end" dy="0.35em" id="fig-a4eaeabe8aee4d1e811146fde8a1a657-element-47">400</text>
    <text x="18.63" y="7" text-anchor="end" dy="0.35em" id="fig-a4eaeabe8aee4d1e811146fde8a1a657-element-48">450</text>
  </g>
</g>
<defs>
<clipPath id="fig-a4eaeabe8aee4d1e811146fde8a1a657-element-18">
  <path d="M19.63,5 L 183.85 5 183.85 58.91 19.63 58.91" />
</clipPath
></defs>
</svg>
