<?xml version="1.0" encoding="UTF-8"?>
<svg xmlns="http://www.w3.org/2000/svg"
     xmlns:xlink="http://www.w3.org/1999/xlink"
     xmlns:gadfly="http://www.gadflyjl.org/ns"
     version="1.2"
     width="203.2mm" height="76.2mm" viewBox="0 0 203.2 76.2"
     stroke="none"
     fill="#000000"
     stroke-width="0.3"
     font-size="3.88"
>
<g class="plotroot xscalable yscalable" id="fig-6edea91cf13e44129f4913510a4fcdce-element-1">
  <g font-size="3.88" font-family="'PT Sans','Helvetica Neue','Helvetica',sans-serif" fill="#564A55" stroke="#000000" stroke-opacity="0.000" id="fig-6edea91cf13e44129f4913510a4fcdce-element-2">
    <text x="101.74" y="64.59" text-anchor="middle" dy="0.6em">Date</text>
  </g>
  <g class="guide xlabels" font-size="2.82" font-family="'PT Sans Caption','Helvetica Neue','Helvetica',sans-serif" fill="#6C606B" id="fig-6edea91cf13e44129f4913510a4fcdce-element-3">
    <text x="22.3" y="57.92" text-anchor="middle" dy="0.6em">Apr</text>
    <text x="32.25" y="57.92" text-anchor="middle" dy="0.6em">May</text>
    <text x="42.53" y="57.92" text-anchor="middle" dy="0.6em">Jun</text>
    <text x="52.48" y="57.92" text-anchor="middle" dy="0.6em">Jul</text>
    <text x="62.77" y="57.92" text-anchor="middle" dy="0.6em">Aug</text>
    <text x="73.05" y="57.92" text-anchor="middle" dy="0.6em">Sep</text>
    <text x="83" y="57.92" text-anchor="middle" dy="0.6em">Oct</text>
    <text x="93.28" y="57.92" text-anchor="middle" dy="0.6em">Nov</text>
    <text x="103.24" y="57.92" text-anchor="middle" dy="0.6em">Dec</text>
    <text x="113.52" y="57.92" text-anchor="middle" dy="0.6em">Jan 2015</text>
    <text x="123.8" y="57.92" text-anchor="middle" dy="0.6em">Feb</text>
    <text x="133.09" y="57.92" text-anchor="middle" dy="0.6em">Mar</text>
    <text x="143.37" y="57.92" text-anchor="middle" dy="0.6em">Apr</text>
    <text x="153.33" y="57.92" text-anchor="middle" dy="0.6em">May</text>
    <text x="163.61" y="57.92" text-anchor="middle" dy="0.6em">Jun</text>
    <text x="173.56" y="57.92" text-anchor="middle" dy="0.6em">Jul</text>
  </g>
  <g class="guide colorkey" id="fig-6edea91cf13e44129f4913510a4fcdce-element-4">
    <g fill="#4C404B" font-size="2.82" font-family="'PT Sans','Helvetica Neue','Helvetica',sans-serif" id="fig-6edea91cf13e44129f4913510a4fcdce-element-5">
      <text x="187.67" y="29.14" dy="0.35em" id="fig-6edea91cf13e44129f4913510a4fcdce-element-6" class="color_0.2">0.2</text>
      <text x="187.67" y="32.77" dy="0.35em" id="fig-6edea91cf13e44129f4913510a4fcdce-element-7" class="color_0.3">0.3</text>
      <text x="187.67" y="36.4" dy="0.35em" id="fig-6edea91cf13e44129f4913510a4fcdce-element-8" class="color_0.4">0.4</text>
    </g>
    <g stroke="#000000" stroke-opacity="0.000" id="fig-6edea91cf13e44129f4913510a4fcdce-element-9">
      <rect x="184.85" y="28.24" width="1.81" height="1.81" id="fig-6edea91cf13e44129f4913510a4fcdce-element-10" fill="#00BFFF" class="color_0.2"/>
      <rect x="184.85" y="31.86" width="1.81" height="1.81" id="fig-6edea91cf13e44129f4913510a4fcdce-element-11" fill="#D4CA3A" class="color_0.3"/>
      <rect x="184.85" y="35.49" width="1.81" height="1.81" id="fig-6edea91cf13e44129f4913510a4fcdce-element-12" fill="#FF5EA0" class="color_0.4"/>
    </g>
    <g fill="#362A35" font-size="3.88" font-family="'PT Sans','Helvetica Neue','Helvetica',sans-serif" stroke="#000000" stroke-opacity="0.000" id="fig-6edea91cf13e44129f4913510a4fcdce-element-13">
      <text x="184.85" y="25.32" id="fig-6edea91cf13e44129f4913510a4fcdce-element-14">Julia ver.</text>
    </g>
  </g>
  <g font-size="3.88" font-family="'PT Sans','Helvetica Neue','Helvetica',sans-serif" fill="#564A55" stroke="#000000" stroke-opacity="0.000" id="fig-6edea91cf13e44129f4913510a4fcdce-element-15">
    <text x="8.81" y="28.96" text-anchor="middle" dy="0.35em" transform="rotate(-90, 8.81, 30.96)" id="fig-6edea91cf13e44129f4913510a4fcdce-element-16">Number of Tagged Packages</text>
  </g>
  <g clip-path="url(#fig-6edea91cf13e44129f4913510a4fcdce-element-18)" id="fig-6edea91cf13e44129f4913510a4fcdce-element-17">
    <g pointer-events="visible" opacity="1" fill="#000000" fill-opacity="0.000" stroke="#000000" stroke-opacity="0.000" class="guide background" id="fig-6edea91cf13e44129f4913510a4fcdce-element-19">
      <rect x="19.63" y="5" width="164.22" height="51.92" id="fig-6edea91cf13e44129f4913510a4fcdce-element-20"/>
    </g>
    <g class="guide ygridlines xfixed" stroke-dasharray="0.5,0.5" stroke-width="0.2" stroke="#D0D0E0" id="fig-6edea91cf13e44129f4913510a4fcdce-element-21">
      <path fill="none" d="M19.63,54.91 L 183.85 54.91" id="fig-6edea91cf13e44129f4913510a4fcdce-element-22"/>
      <path fill="none" d="M19.63,45.33 L 183.85 45.33" id="fig-6edea91cf13e44129f4913510a4fcdce-element-23"/>
      <path fill="none" d="M19.63,35.75 L 183.85 35.75" id="fig-6edea91cf13e44129f4913510a4fcdce-element-24"/>
      <path fill="none" d="M19.63,26.17 L 183.85 26.17" id="fig-6edea91cf13e44129f4913510a4fcdce-element-25"/>
      <path fill="none" d="M19.63,16.58 L 183.85 16.58" id="fig-6edea91cf13e44129f4913510a4fcdce-element-26"/>
      <path fill="none" d="M19.63,7 L 183.85 7" id="fig-6edea91cf13e44129f4913510a4fcdce-element-27"/>
    </g>
    <g class="guide xgridlines yfixed" stroke-dasharray="0.5,0.5" stroke-width="0.2" stroke="#D0D0E0" id="fig-6edea91cf13e44129f4913510a4fcdce-element-28">
      <path fill="none" d="M22.3,5 L 22.3 56.92" id="fig-6edea91cf13e44129f4913510a4fcdce-element-29"/>
      <path fill="none" d="M32.25,5 L 32.25 56.92" id="fig-6edea91cf13e44129f4913510a4fcdce-element-30"/>
      <path fill="none" d="M42.53,5 L 42.53 56.92" id="fig-6edea91cf13e44129f4913510a4fcdce-element-31"/>
      <path fill="none" d="M52.48,5 L 52.48 56.92" id="fig-6edea91cf13e44129f4913510a4fcdce-element-32"/>
      <path fill="none" d="M62.77,5 L 62.77 56.92" id="fig-6edea91cf13e44129f4913510a4fcdce-element-33"/>
      <path fill="none" d="M73.05,5 L 73.05 56.92" id="fig-6edea91cf13e44129f4913510a4fcdce-element-34"/>
      <path fill="none" d="M83,5 L 83 56.92" id="fig-6edea91cf13e44129f4913510a4fcdce-element-35"/>
      <path fill="none" d="M93.28,5 L 93.28 56.92" id="fig-6edea91cf13e44129f4913510a4fcdce-element-36"/>
      <path fill="none" d="M103.24,5 L 103.24 56.92" id="fig-6edea91cf13e44129f4913510a4fcdce-element-37"/>
      <path fill="none" d="M113.52,5 L 113.52 56.92" id="fig-6edea91cf13e44129f4913510a4fcdce-element-38"/>
      <path fill="none" d="M123.8,5 L 123.8 56.92" id="fig-6edea91cf13e44129f4913510a4fcdce-element-39"/>
      <path fill="none" d="M133.09,5 L 133.09 56.92" id="fig-6edea91cf13e44129f4913510a4fcdce-element-40"/>
      <path fill="none" d="M143.37,5 L 143.37 56.92" id="fig-6edea91cf13e44129f4913510a4fcdce-element-41"/>
      <path fill="none" d="M153.33,5 L 153.33 56.92" id="fig-6edea91cf13e44129f4913510a4fcdce-element-42"/>
      <path fill="none" d="M163.61,5 L 163.61 56.92" id="fig-6edea91cf13e44129f4913510a4fcdce-element-43"/>
      <path fill="none" d="M173.56,5 L 173.56 56.92" id="fig-6edea91cf13e44129f4913510a4fcdce-element-44"/>
    </g>
    <g class="plotpanel" id="fig-6edea91cf13e44129f4913510a4fcdce-element-45">
      <g class="geometry" stroke="#000000" stroke-opacity="0.000" fill="#4C404B" font-size="2.82" font-family="'PT Sans Caption','Helvetica Neue','Helvetica',sans-serif" id="fig-6edea91cf13e44129f4913510a4fcdce-element-46">
        <text x="74.01" y="52.46" text-anchor="middle" dy="0.35em" id="fig-6edea91cf13e44129f4913510a4fcdce-element-47" visibility="visible">v0.3.0</text>
        <text x="84.62" y="52.46" text-anchor="middle" dy="0.35em" id="fig-6edea91cf13e44129f4913510a4fcdce-element-48" visibility="visible">v0.3.1</text>
        <text x="94.58" y="52.46" text-anchor="middle" dy="0.35em" id="fig-6edea91cf13e44129f4913510a4fcdce-element-49" visibility="visible">v0.3.2</text>
        <text x="105.52" y="52.46" text-anchor="middle" dy="0.35em" id="fig-6edea91cf13e44129f4913510a4fcdce-element-50" visibility="visible">v0.3.3</text>
        <text x="112.53" y="52.46" text-anchor="middle" dy="0.35em" id="fig-6edea91cf13e44129f4913510a4fcdce-element-51" visibility="visible"></text>
        <text x="120.78" y="52.46" text-anchor="middle" dy="0.35em" id="fig-6edea91cf13e44129f4913510a4fcdce-element-52" visibility="visible">v0.3.5</text>
        <text x="134.05" y="52.46" text-anchor="middle" dy="0.35em" id="fig-6edea91cf13e44129f4913510a4fcdce-element-53" visibility="visible">v0.3.6</text>
        <text x="145.33" y="52.46" text-anchor="middle" dy="0.35em" id="fig-6edea91cf13e44129f4913510a4fcdce-element-54" visibility="visible">v0.3.7</text>
        <text x="157.93" y="52.46" text-anchor="middle" dy="0.35em" id="fig-6edea91cf13e44129f4913510a4fcdce-element-55" visibility="visible">v0.3.8</text>
        <text x="167.89" y="52.46" text-anchor="middle" dy="0.35em" id="fig-6edea91cf13e44129f4913510a4fcdce-element-56" visibility="visible">v0.3.9</text>
      </g>
      <g class="yfixed" stroke-width="0.26" stroke="#333333" id="fig-6edea91cf13e44129f4913510a4fcdce-element-57">
        <path fill="none" d="M69.07,5 L 69.07 56.92" id="fig-6edea91cf13e44129f4913510a4fcdce-element-58"/>
        <path fill="none" d="M79.68,5 L 79.68 56.92" id="fig-6edea91cf13e44129f4913510a4fcdce-element-59"/>
        <path fill="none" d="M89.64,5 L 89.64 56.92" id="fig-6edea91cf13e44129f4913510a4fcdce-element-60"/>
        <path fill="none" d="M100.58,5 L 100.58 56.92" id="fig-6edea91cf13e44129f4913510a4fcdce-element-61"/>
        <path fill="none" d="M111.53,5 L 111.53 56.92" id="fig-6edea91cf13e44129f4913510a4fcdce-element-62"/>
        <path fill="none" d="M115.84,5 L 115.84 56.92" id="fig-6edea91cf13e44129f4913510a4fcdce-element-63"/>
        <path fill="none" d="M129.11,5 L 129.11 56.92" id="fig-6edea91cf13e44129f4913510a4fcdce-element-64"/>
        <path fill="none" d="M140.39,5 L 140.39 56.92" id="fig-6edea91cf13e44129f4913510a4fcdce-element-65"/>
        <path fill="none" d="M152.99,5 L 152.99 56.92" id="fig-6edea91cf13e44129f4913510a4fcdce-element-66"/>
        <path fill="none" d="M162.95,5 L 162.95 56.92" id="fig-6edea91cf13e44129f4913510a4fcdce-element-67"/>
      </g>
      <g stroke-width="0.79" fill="#000000" fill-opacity="0.000" class="geometry color_0.4" stroke="#FF5EA0" id="fig-6edea91cf13e44129f4913510a4fcdce-element-68">
        <path fill="none" d="M66.75,39.2 L 67.08 38.91 67.41 38.82 67.74 38.72 68.07 38.72 68.4 38.72 69.07 38.43 69.4 38.43 69.73 38.34 70.06 38.34 70.4 38.34 70.73 38.05 71.06 37.86 71.39 37.86 72.05 37.67 72.39 37.38 73.05 37.19 73.38 37.19 73.71 37.19 75.04 37.19 76.03 36.61 76.37 36.52 76.7 36.42 77.03 36.23 77.36 36.23 77.69 36.23 78.02 35.46 78.36 35.46 78.69 35.46 79.35 35.37 79.68 35.37 80.02 35.27 80.35 35.27 80.68 35.27 81.01 35.17 81.34 35.17 82.01 35.27 82.34 35.17 82.67 35.17 83 34.98 83.33 34.79 83.66 34.79 84 34.79 84.33 34.6 85.32 34.41 85.65 34.41 85.99 34.22 86.32 34.12 86.65 34.12 86.98 34.12 87.31 33.93 87.64 33.93 87.98 33.83 88.31 33.74 88.64 33.74 88.97 33.74 89.3 33.74 89.64 33.54 89.97 33.35 90.3 33.35 90.63 33.35 90.96 33.26 91.29 33.26 91.63 33.16 91.96 33.16 92.29 32.97 92.62 32.87 92.95 32.87 93.28 32.78 93.62 32.78 93.95 32.78 94.28 32.78 94.61 32.68 94.94 32.59 95.94 32.59 97.6 32.01 97.93 31.82 98.26 31.82 98.59 31.72 98.92 31.72 99.25 31.44 99.59 31.44 100.91 30.96 101.25 30.96 102.9 30.86 103.57 30.86 103.9 30.67 104.23 30.57 104.56 30.57 104.89 30.57 105.23 30.38 105.56 30.19 106.55 30.1 106.88 30 107.55 29.62 107.88 29.62 108.21 29.62 109.21 29.62 109.87 29.42 110.87 29.23 112.19 29.04 112.86 28.66 113.85 28.47 116.17 27.8 117.5 27.12 117.83 26.93 118.16 26.93 118.49 26.36 118.83 26.36 119.16 26.36 119.82 26.26 120.15 26.17 120.49 26.17 120.82 25.88 121.15 25.78 121.48 25.78 121.81 25.78 122.48 25.5 122.81 25.21 123.14 25.11 124.47 24.35 124.8 24.35 125.13 24.63 125.79 24.35 126.46 24.06 126.79 24.06 127.78 23.87 129.44 23.87 131.1 23.77 132.76 22.91 133.09 22.91 133.42 22.91 133.75 22.72 134.09 22.72 134.75 22.52 135.41 22.52 136.74 22.43 137.07 22.24 137.4 22.24 137.73 22.24 138.07 22.05 138.4 22.14 138.73 21.95 142.71 21.57 143.37 21.57 143.71 21.28 144.37 21.28 145.7 21.18 146.36 21.09 147.02 20.8 148.35 20.61 149.01 20.42 149.35 20.13 150.01 19.65 150.34 19.65 150.67 19.55 151 19.36 151.34 19.36 151.67 19.27 152.33 19.17 152.66 18.98 153.33 18.98 153.99 18.79 154.32 18.5 154.65 18.4 155.32 18.21 155.65 18.12 157.31 17.73 158.63 17.54 158.97 17.35 161.62 17.06 161.95 17.06 162.28 17.06 163.28 16.68 163.61 16.58 163.94 16.39 164.6 16.2 165.27 16.2 165.93 16.01 168.92 15.34 169.91 15.34 170.24 15.34 170.58 15.15 170.91 15.15 171.24 14.86 171.57 14.86 171.9 14.86 172.23 14.76 173.23 14.67 173.89 14.47 174.56 14.47 174.89 14.28 175.22 13.9 175.55 13.71 175.88 13.61 176.21 13.61 181.85 12.17" id="fig-6edea91cf13e44129f4913510a4fcdce-element-69"/>
      </g>
      <g stroke-width="0.79" fill="#000000" fill-opacity="0.000" class="geometry color_0.3" stroke="#D4CA3A" id="fig-6edea91cf13e44129f4913510a4fcdce-element-70">
        <path fill="none" d="M21.63,45.72 L 21.96 45.72 22.3 45.62 22.63 45.62 22.96 45.62 23.29 45.62 23.62 45.62 23.95 45.52 24.62 45.52 24.95 45.43 25.61 45.33 26.28 45.14 26.61 45.14 27.27 45.14 27.6 45.04 29.92 44.66 30.92 44.66 31.58 44.66 33.91 44.57 34.24 44.37 34.57 44.28 34.9 44.28 35.23 44.28 35.56 44.28 35.9 44.28 36.23 44.28 36.56 44.28 36.89 44.28 37.22 44.28 37.55 43.99 38.22 43.89 38.55 43.89 38.88 43.89 39.21 43.7 39.54 43.7 39.88 43.7 40.21 43.61 40.54 43.61 40.87 43.61 41.2 43.61 41.54 43.61 41.87 43.51 42.2 43.51 42.53 47.34 42.86 43.42 43.19 43.32 43.53 43.22 45.52 42.65 45.85 42.55 46.18 42.46 46.51 42.36 46.84 42.17 47.17 42.17 47.51 41.98 47.84 41.98 48.17 41.88 48.5 41.79 49.16 41.79 49.5 41.59 49.83 41.59 50.16 41.59 50.49 41.59 50.82 41.59 51.16 41.31 51.49 41.31 52.15 41.21 52.48 41.02 52.81 40.92 53.15 40.83 53.48 40.83 53.81 40.64 54.47 40.54 54.8 40.25 55.14 40.25 55.47 40.25 56.13 39.77 56.79 39.49 57.13 39.49 57.46 39.39 57.79 39.39 58.78 39.29 59.12 39.29 59.45 39.2 59.78 39.2 60.11 39.2 60.44 39.1 60.78 39.01 61.11 38.91 61.77 38.91 62.1 38.91 62.77 38.91 63.1 38.82 63.43 38.53 63.76 38.53 64.42 38.43 64.76 38.43 65.09 38.24 65.42 38.14 65.75 38.05 66.08 37.95 66.41 37.86 66.75 37.67 67.08 37.67 67.41 37.57 67.74 37.47 68.07 37.47 68.4 37.47 69.07 37.19 69.4 37.19 69.73 37.09 70.06 37.09 70.4 37.09 70.73 36.8 71.06 36.71 71.39 36.61 72.05 37.76 72.39 37.47 73.05 37.28 73.38 37.28 73.71 37.28 75.04 37.28 76.03 36.71 76.37 36.61 76.7 36.52 77.03 36.32 77.36 36.32 77.69 36.32 78.02 35.56 78.36 35.56 78.69 35.56 79.35 35.56 79.68 35.46 80.02 35.37 80.35 35.37 80.68 35.37 81.01 35.27 81.34 35.27 82.01 35.37 82.34 35.27 82.67 35.27 83 35.08 83.33 33.16 83.66 34.89 84 34.89 84.33 34.69 85.32 34.5 85.65 34.5 85.99 34.31 86.32 34.22 86.65 34.22 86.98 34.22 87.31 34.02 87.64 34.02 87.98 33.93 88.31 33.83 88.64 33.83 88.97 33.83 89.3 33.83 89.64 33.74 89.97 33.54 90.3 33.54 90.63 33.54 90.96 33.45 91.29 33.45 91.63 33.35 91.96 33.35 92.29 33.16 92.62 33.07 92.95 33.07 93.28 32.97 93.62 32.97 93.95 32.97 94.28 32.87 94.61 32.87 94.94 32.78 95.94 32.78 97.6 32.3 97.93 32.11 98.26 32.11 98.59 32.01 98.92 32.01 99.25 31.72 99.59 31.72 100.91 31.24 101.25 31.24 102.9 31.15 103.57 31.15 103.9 31.05 104.23 30.96 104.56 30.96 104.89 30.96 105.23 30.77 105.56 30.67 106.55 30.48 106.88 30.38 107.55 30.1 107.88 30 108.21 30 109.21 30 109.87 29.81 110.87 29.62 112.19 29.42 112.86 29.14 113.85 28.75 116.17 28.18 117.5 27.51 117.83 27.32 118.16 27.32 118.49 26.84 118.83 26.84 119.16 26.84 119.82 26.84 120.15 26.65 120.49 26.65 120.82 26.36 121.15 26.26 121.48 26.26 121.81 26.26 122.48 25.97 122.81 25.78 123.14 25.69 124.47 24.92 124.8 25.11 125.13 25.11 125.79 24.82 126.46 24.54 126.79 24.54 127.78 24.35 129.44 24.35 131.1 23.77 132.76 23.39 133.09 23.39 133.42 23.39 133.75 23.2 134.09 23.2 134.75 23.2 135.41 23.2 136.74 23 137.07 22.81 137.4 22.72 137.73 22.72 138.07 22.52 138.4 22.62 138.73 22.43 142.71 22.33 143.37 22.33 143.71 22.05 144.37 22.05 145.7 21.95 146.36 21.95 147.02 21.66 148.35 21.66 149.01 21.47 149.35 21.37 150.01 20.9 150.34 20.9 150.67 20.8 151 20.51 151.34 20.51 151.67 20.42 152.33 20.32 152.66 20.22 153.33 20.22 153.99 20.03 154.32 19.75 154.65 19.65 155.32 19.46 155.65 19.36 157.31 18.98 158.63 18.79 158.97 18.6 161.62 18.21 161.95 18.21 162.28 18.21 163.28 17.92 163.61 17.83 163.94 17.73 164.6 17.54 165.27 17.54 165.93 17.45 168.92 16.97 169.91 17.06 170.24 17.06 170.58 16.87 170.91 16.87 171.24 16.68 171.57 16.68 171.9 16.68 172.23 16.58 173.23 16.58 173.89 16.39 174.56 16.49 174.89 16.3 175.22 15.91 175.55 15.72 175.88 15.62 176.21 15.62 181.85 14.28" id="fig-6edea91cf13e44129f4913510a4fcdce-element-71"/>
      </g>
      <g stroke-width="0.79" fill="#000000" fill-opacity="0.000" class="geometry color_0.2" stroke="#00BFFF" id="fig-6edea91cf13e44129f4913510a4fcdce-element-72">
        <path fill="none" d="M21.63,46.77 L 21.96 46.77 22.3 46.67 22.63 46.67 22.96 46.67 23.29 46.67 23.62 46.67 23.95 46.67 24.62 46.67 24.95 46.67 25.61 46.58 26.28 46.48 26.61 46.48 27.27 46.39 27.6 46.29 29.92 46.1 30.92 46.1 31.58 46.1 33.91 46 34.24 45.91 34.57 45.91 34.9 45.91 35.23 45.91 35.56 45.91 35.9 45.91 36.23 45.91 36.56 45.91 36.89 45.91 37.22 45.62 37.55 45.62 38.22 45.52 38.55 45.52 38.88 45.52 39.21 45.43 39.54 46.19 39.88 45.72 40.21 45.72 40.54 45.72 40.87 45.72 41.2 45.72 41.54 45.72 41.87 45.72 42.2 45.72 42.53 45.62 42.86 45.62 43.19 45.52 43.53 45.52 45.52 45.04 45.85 45.04 46.18 44.95 46.51 44.85 46.84 44.66 47.17 44.66 47.51 44.66 47.84 44.66 48.17 44.66 48.5 44.57 49.16 44.57 49.5 44.37 49.83 44.37 50.16 44.37 50.49 44.37 50.82 44.37 51.16 44.09 51.49 44.09 52.15 43.99 52.48 43.8 52.81 43.7 53.15 43.61 53.48 43.61 53.81 43.61 54.47 43.42 54.8 43.32 55.14 43.22 55.47 43.22 56.13 43.03 56.79 42.84 57.13 42.84 57.46 42.84 57.79 42.84 58.78 42.84 59.12 42.84 59.45 42.74 59.78 42.74 60.11 42.74 60.44 42.65 60.78 42.65 61.11 42.65 61.77 42.55 62.1 42.55 62.77 42.55 63.1 42.55 63.43 42.27 63.76 42.27 64.42 42.46 64.76 42.46 65.09 42.27 65.42 42.17 65.75 42.17 66.08 41.98 66.41 41.98" id="fig-6edea91cf13e44129f4913510a4fcdce-element-73"/>
      </g>
    </g>
  </g>
  <g class="guide ylabels" font-size="2.82" font-family="'PT Sans Caption','Helvetica Neue','Helvetica',sans-serif" fill="#6C606B" id="fig-6edea91cf13e44129f4913510a4fcdce-element-74">
    <text x="18.63" y="54.91" text-anchor="end" dy="0.35em" id="fig-6edea91cf13e44129f4913510a4fcdce-element-75">200</text>
    <text x="18.63" y="45.33" text-anchor="end" dy="0.35em" id="fig-6edea91cf13e44129f4913510a4fcdce-element-76">300</text>
    <text x="18.63" y="35.75" text-anchor="end" dy="0.35em" id="fig-6edea91cf13e44129f4913510a4fcdce-element-77">400</text>
    <text x="18.63" y="26.17" text-anchor="end" dy="0.35em" id="fig-6edea91cf13e44129f4913510a4fcdce-element-78">500</text>
    <text x="18.63" y="16.58" text-anchor="end" dy="0.35em" id="fig-6edea91cf13e44129f4913510a4fcdce-element-79">600</text>
    <text x="18.63" y="7" text-anchor="end" dy="0.35em" id="fig-6edea91cf13e44129f4913510a4fcdce-element-80">700</text>
  </g>
</g>
<defs>
<clipPath id="fig-6edea91cf13e44129f4913510a4fcdce-element-18">
  <path d="M19.63,5 L 183.85 5 183.85 56.92 19.63 56.92" />
</clipPath
></defs>
</svg>
