<?xml version="1.0" encoding="UTF-8"?>
<svg xmlns="http://www.w3.org/2000/svg"
     xmlns:xlink="http://www.w3.org/1999/xlink"
     xmlns:gadfly="http://www.gadflyjl.org/ns"
     version="1.2"
     width="203.2mm" height="76.2mm" viewBox="0 0 203.2 76.2"
     stroke="none"
     fill="#000000"
     stroke-width="0.3"
     font-size="3.88"
>
<g class="plotroot xscalable yscalable" id="fig-25d2b34b4293405487d5c9d072db9e34-element-1">
  <g font-size="3.88" font-family="'PT Sans','Helvetica Neue','Helvetica',sans-serif" fill="#564A55" stroke="none" id="fig-25d2b34b4293405487d5c9d072db9e34-element-2">
    <text x="101.74" y="68.2" text-anchor="middle">Date</text>
  </g>
  <g class="guide xlabels" font-size="2.82" font-family="'PT Sans Caption','Helvetica Neue','Helvetica',sans-serif" fill="#6C606B" id="fig-25d2b34b4293405487d5c9d072db9e34-element-3">
    <text x="22.85" y="62.59" text-anchor="middle">Apr</text>
    <text x="47" y="62.59" text-anchor="middle">May</text>
    <text x="71.96" y="62.59" text-anchor="middle">June</text>
    <text x="96.11" y="62.59" text-anchor="middle">July</text>
    <text x="121.06" y="62.59" text-anchor="middle">Aug</text>
    <text x="146.02" y="62.59" text-anchor="middle">Sept</text>
    <text x="170.17" y="62.59" text-anchor="middle">Oct</text>
  </g>
  <g class="guide colorkey" id="fig-25d2b34b4293405487d5c9d072db9e34-element-4">
    <g fill="#4C404B" font-size="2.82" font-family="'PT Sans','Helvetica Neue','Helvetica',sans-serif" id="fig-25d2b34b4293405487d5c9d072db9e34-element-5">
      <text x="187.67" y="30.14" dy="0.35em" id="fig-25d2b34b4293405487d5c9d072db9e34-element-6" class="color_0.2">0.2</text>
      <text x="187.67" y="33.77" dy="0.35em" id="fig-25d2b34b4293405487d5c9d072db9e34-element-7" class="color_0.3">0.3</text>
      <text x="187.67" y="37.4" dy="0.35em" id="fig-25d2b34b4293405487d5c9d072db9e34-element-8" class="color_0.4">0.4</text>
    </g>
    <g stroke="none" id="fig-25d2b34b4293405487d5c9d072db9e34-element-9">
      <rect x="184.85" y="29.24" width="1.81" height="1.81" id="fig-25d2b34b4293405487d5c9d072db9e34-element-10" fill="#00BFFF" class="color_0.2"/>
      <rect x="184.85" y="32.86" width="1.81" height="1.81" id="fig-25d2b34b4293405487d5c9d072db9e34-element-11" fill="#D4CA3A" class="color_0.3"/>
      <rect x="184.85" y="36.49" width="1.81" height="1.81" id="fig-25d2b34b4293405487d5c9d072db9e34-element-12" fill="#FF5EA0" class="color_0.4"/>
    </g>
    <g fill="#362A35" font-size="3.88" font-family="'PT Sans','Helvetica Neue','Helvetica',sans-serif" stroke="none" id="fig-25d2b34b4293405487d5c9d072db9e34-element-13">
      <text x="184.85" y="26.32" id="fig-25d2b34b4293405487d5c9d072db9e34-element-14">Julia ver.</text>
    </g>
  </g>
  <g font-size="3.88" font-family="'PT Sans','Helvetica Neue','Helvetica',sans-serif" fill="#564A55" stroke="none" id="fig-25d2b34b4293405487d5c9d072db9e34-element-15">
    <text x="8.81" y="29.96" text-anchor="middle" dy="0.35em" transform="rotate(-90, 8.81, 31.96)" id="fig-25d2b34b4293405487d5c9d072db9e34-element-16">Number of Tagged Packages</text>
  </g>
  <g clip-path="url(#fig-25d2b34b4293405487d5c9d072db9e34-element-18)" id="fig-25d2b34b4293405487d5c9d072db9e34-element-17">
    <g pointer-events="visible" opacity="1" fill="none" stroke="none" class="guide background" id="fig-25d2b34b4293405487d5c9d072db9e34-element-19">
      <rect x="19.63" y="5" width="164.22" height="53.91" id="fig-25d2b34b4293405487d5c9d072db9e34-element-20"/>
    </g>
    <g class="guide ygridlines xfixed" stroke-dasharray="0.5,0.5" stroke-width="0.2" stroke="#D0D0E0" id="fig-25d2b34b4293405487d5c9d072db9e34-element-21">
      <path fill="none" d="M19.63,56.91 L 183.85 56.91" id="fig-25d2b34b4293405487d5c9d072db9e34-element-22"/>
      <path fill="none" d="M19.63,44.44 L 183.85 44.44" id="fig-25d2b34b4293405487d5c9d072db9e34-element-23"/>
      <path fill="none" d="M19.63,31.96 L 183.85 31.96" id="fig-25d2b34b4293405487d5c9d072db9e34-element-24"/>
      <path fill="none" d="M19.63,19.48 L 183.85 19.48" id="fig-25d2b34b4293405487d5c9d072db9e34-element-25"/>
      <path fill="none" d="M19.63,7 L 183.85 7" id="fig-25d2b34b4293405487d5c9d072db9e34-element-26"/>
    </g>
    <g class="guide xgridlines yfixed" stroke-dasharray="0.5,0.5" stroke-width="0.2" stroke="#D0D0E0" id="fig-25d2b34b4293405487d5c9d072db9e34-element-27">
      <path fill="none" d="M22.85,5 L 22.85 58.91" id="fig-25d2b34b4293405487d5c9d072db9e34-element-28"/>
      <path fill="none" d="M47,5 L 47 58.91" id="fig-25d2b34b4293405487d5c9d072db9e34-element-29"/>
      <path fill="none" d="M71.96,5 L 71.96 58.91" id="fig-25d2b34b4293405487d5c9d072db9e34-element-30"/>
      <path fill="none" d="M96.11,5 L 96.11 58.91" id="fig-25d2b34b4293405487d5c9d072db9e34-element-31"/>
      <path fill="none" d="M121.06,5 L 121.06 58.91" id="fig-25d2b34b4293405487d5c9d072db9e34-element-32"/>
      <path fill="none" d="M146.02,5 L 146.02 58.91" id="fig-25d2b34b4293405487d5c9d072db9e34-element-33"/>
      <path fill="none" d="M170.17,5 L 170.17 58.91" id="fig-25d2b34b4293405487d5c9d072db9e34-element-34"/>
    </g>
    <g class="plotpanel" id="fig-25d2b34b4293405487d5c9d072db9e34-element-35">
      <g stroke-width="0.79" fill="none" class="geometry color_0.4" stroke="#FF5EA0" id="fig-25d2b34b4293405487d5c9d072db9e34-element-36">
        <path fill="none" d="M130.72,28.46 L 131.53 27.71 132.33 27.47 133.14 27.22 133.94 27.22 134.75 27.22 136.36 26.47 137.16 26.47 137.97 26.22 138.77 26.22 139.58 26.22 140.38 25.47 141.19 24.97 141.99 24.97 143.6 24.47 144.41 23.72 146.02 23.22 146.82 23.22 147.63 23.22 150.85 23.22 153.26 21.72 154.07 21.48 154.87 21.23 155.68 20.73 156.48 20.73 157.29 20.73 158.09 18.73 158.9 18.73 159.7 18.73 161.31 18.48 162.12 18.48 162.92 18.23 163.73 18.23 164.53 18.23 165.34 17.98 166.14 17.98 167.75 18.23 168.56 17.98 169.36 17.98 170.17 17.48 170.97 16.98 171.78 16.98 172.58 16.98 173.39 16.48 175.8 15.98 176.61 15.98 177.41 15.49 178.22 15.24 179.02 15.24 179.83 15.24 180.63 14.74 181.44 14.74" id="fig-25d2b34b4293405487d5c9d072db9e34-element-37"/>
      </g>
      <g stroke-width="0.79" fill="none" class="geometry color_0.3" stroke="#D4CA3A" id="fig-25d2b34b4293405487d5c9d072db9e34-element-38">
        <path fill="none" d="M21.24,45.43 L 22.05 45.43 22.85 45.18 23.66 45.18 24.46 45.18 25.27 45.18 26.07 45.18 26.88 44.94 28.49 44.94 29.29 44.69 30.9 44.44 32.51 43.94 33.32 43.94 34.93 43.94 35.73 43.69 41.37 42.69 43.78 42.69 45.39 42.69 51.03 42.44 51.83 41.94 52.64 41.69 53.44 41.69 54.25 41.69 55.05 41.69 55.86 41.69 56.66 41.69 57.47 41.69 58.27 41.69 59.08 41.69 59.88 40.94 61.49 40.69 62.3 40.69 63.1 40.69 63.91 40.19 64.71 40.19 65.52 40.19 66.32 39.94 67.13 39.94 67.93 39.94 68.74 39.94 69.54 39.94 70.35 39.69 71.15 39.69 71.96 49.68 72.76 39.44 73.57 39.2 74.37 38.95 79.2 37.45 80.01 37.2 80.81 36.95 81.62 36.7 82.42 36.2 83.23 36.2 84.03 35.7 84.84 35.7 85.64 35.45 86.45 35.2 88.06 35.2 88.86 34.7 89.67 34.7 90.47 34.7 91.28 34.7 92.08 34.7 92.89 33.95 93.69 33.95 95.3 33.7 96.11 33.21 96.91 32.96 97.72 32.71 98.52 32.71 99.33 32.21 100.94 31.96 101.74 31.21 102.55 31.21 103.35 31.21 104.96 29.96 106.57 29.21 107.38 29.21 108.18 28.96 108.99 28.96 111.4 28.71 112.21 28.71 113.01 28.46 113.82 28.46 114.62 28.46 115.43 28.21 116.23 27.96 117.04 27.71 118.65 27.71 119.45 27.71 121.06 27.71 121.87 27.47 122.67 26.72 123.48 26.72 125.09 26.47 125.89 26.47 126.7 25.97 127.5 25.72 128.31 25.47 129.11 25.22 129.92 24.97 130.72 24.47 131.53 24.47 132.33 24.22 133.14 23.97 133.94 23.97 134.75 23.97 136.36 23.22 137.16 23.22 137.97 22.97 138.77 22.97 139.58 22.97 140.38 22.22 141.19 21.97 141.99 21.72 143.6 24.72 144.41 23.97 146.02 23.47 146.82 23.47 147.63 23.47 150.85 23.47 153.26 21.97 154.07 21.72 154.87 21.48 155.68 20.98 156.48 20.98 157.29 20.98 158.09 18.98 158.9 18.98 159.7 18.98 161.31 18.98 162.12 18.73 162.92 18.48 163.73 18.48 164.53 18.48 165.34 18.23 166.14 18.23 167.75 18.48 168.56 18.23 169.36 18.23 170.17 17.73 170.97 12.74 171.78 17.23 172.58 17.23 173.39 16.73 175.8 16.23 176.61 16.23 177.41 15.74 178.22 15.49 179.02 15.49 179.83 15.49 180.63 14.99 181.44 14.99" id="fig-25d2b34b4293405487d5c9d072db9e34-element-39"/>
      </g>
      <g stroke-width="0.79" fill="none" class="geometry color_0.2" stroke="#00BFFF" id="fig-25d2b34b4293405487d5c9d072db9e34-element-40">
        <path fill="none" d="M21.24,48.18 L 22.05 48.18 22.85 47.93 23.66 47.93 24.46 47.93 25.27 47.93 26.07 47.93 26.88 47.93 28.49 47.93 29.29 47.93 30.9 47.68 32.51 47.43 33.32 47.43 34.93 47.18 35.73 46.93 41.37 46.43 43.78 46.43 45.39 46.43 51.03 46.18 51.83 45.93 52.64 45.93 53.44 45.93 54.25 45.93 55.05 45.93 55.86 45.93 56.66 45.93 57.47 45.93 58.27 45.93 59.08 45.18 59.88 45.18 61.49 44.94 62.3 44.94 63.1 44.94 63.91 44.69 64.71 46.68 65.52 45.43 66.32 45.43 67.13 45.43 67.93 45.43 68.74 45.43 69.54 45.43 70.35 45.43 71.15 45.43 71.96 45.18 72.76 45.18 73.57 44.94 74.37 44.94 79.2 43.69 80.01 43.69 80.81 43.44 81.62 43.19 82.42 42.69 83.23 42.69 84.03 42.69 84.84 42.69 85.64 42.69 86.45 42.44 88.06 42.44 88.86 41.94 89.67 41.94 90.47 41.94 91.28 41.94 92.08 41.94 92.89 41.19 93.69 41.19 95.3 40.94 96.11 40.44 96.91 40.19 97.72 39.94 98.52 39.94 99.33 39.94 100.94 39.44 101.74 39.2 102.55 38.95 103.35 38.95 104.96 38.45 106.57 37.95 107.38 37.95 108.18 37.95 108.99 37.95 111.4 37.95 112.21 37.95 113.01 37.7 113.82 37.7 114.62 37.7 115.43 37.45 116.23 37.45 117.04 37.45 118.65 37.2 119.45 37.2 121.06 37.2 121.87 37.2 122.67 36.45 123.48 36.45 125.09 36.95 125.89 36.95 126.7 36.45 127.5 36.2 128.31 36.2 129.11 35.7 129.92 35.7" id="fig-25d2b34b4293405487d5c9d072db9e34-element-41"/>
      </g>
    </g>
  </g>
  <g class="guide ylabels" font-size="2.82" font-family="'PT Sans Caption','Helvetica Neue','Helvetica',sans-serif" fill="#6C606B" id="fig-25d2b34b4293405487d5c9d072db9e34-element-42">
    <text x="18.63" y="56.91" text-anchor="end" dy="0.35em" id="fig-25d2b34b4293405487d5c9d072db9e34-element-43">250</text>
    <text x="18.63" y="44.44" text-anchor="end" dy="0.35em" id="fig-25d2b34b4293405487d5c9d072db9e34-element-44">300</text>
    <text x="18.63" y="31.96" text-anchor="end" dy="0.35em" id="fig-25d2b34b4293405487d5c9d072db9e34-element-45">350</text>
    <text x="18.63" y="19.48" text-anchor="end" dy="0.35em" id="fig-25d2b34b4293405487d5c9d072db9e34-element-46">400</text>
    <text x="18.63" y="7" text-anchor="end" dy="0.35em" id="fig-25d2b34b4293405487d5c9d072db9e34-element-47">450</text>
  </g>
</g>
<defs>
<clipPath id="fig-25d2b34b4293405487d5c9d072db9e34-element-18">
  <path d="M19.63,5 L 183.85 5 183.85 58.91 19.63 58.91" />
</clipPath
></defs>
</svg>
