<?xml version="1.0" encoding="UTF-8"?>
<svg xmlns="http://www.w3.org/2000/svg"
     xmlns:xlink="http://www.w3.org/1999/xlink"
     xmlns:gadfly="http://www.gadflyjl.org/ns"
     version="1.2"
     width="203.2mm" height="76.2mm" viewBox="0 0 203.2 76.2"
     stroke="none"
     fill="#000000"
     stroke-width="0.3"
     font-size="3.88"
>
<g class="plotroot xscalable yscalable" id="fig-5991d8360f9140f0aacbd2d5c0fd0996-element-1">
  <g font-size="3.88" font-family="'PT Sans','Helvetica Neue','Helvetica',sans-serif" fill="#564A55" stroke="none" id="fig-5991d8360f9140f0aacbd2d5c0fd0996-element-2">
    <text x="101.74" y="68.2" text-anchor="middle">Date</text>
  </g>
  <g class="guide xlabels" font-size="2.82" font-family="'PT Sans Caption','Helvetica Neue','Helvetica',sans-serif" fill="#6C606B" id="fig-5991d8360f9140f0aacbd2d5c0fd0996-element-3">
    <text x="22.84" y="62.59" text-anchor="middle">Apr</text>
    <text x="42.08" y="62.59" text-anchor="middle">May</text>
    <text x="61.97" y="62.59" text-anchor="middle">June</text>
    <text x="81.22" y="62.59" text-anchor="middle">July</text>
    <text x="101.1" y="62.59" text-anchor="middle">Aug</text>
    <text x="120.99" y="62.59" text-anchor="middle">Sept</text>
    <text x="140.23" y="62.59" text-anchor="middle">Oct</text>
    <text x="160.12" y="62.59" text-anchor="middle">Nev</text>
    <text x="179.36" y="62.59" text-anchor="middle">Dec</text>
  </g>
  <g class="guide colorkey" id="fig-5991d8360f9140f0aacbd2d5c0fd0996-element-4">
    <g fill="#4C404B" font-size="2.82" font-family="'PT Sans','Helvetica Neue','Helvetica',sans-serif" id="fig-5991d8360f9140f0aacbd2d5c0fd0996-element-5">
      <text x="187.67" y="30.14" dy="0.35em" id="fig-5991d8360f9140f0aacbd2d5c0fd0996-element-6" class="color_0.2">0.2</text>
      <text x="187.67" y="33.77" dy="0.35em" id="fig-5991d8360f9140f0aacbd2d5c0fd0996-element-7" class="color_0.3">0.3</text>
      <text x="187.67" y="37.4" dy="0.35em" id="fig-5991d8360f9140f0aacbd2d5c0fd0996-element-8" class="color_0.4">0.4</text>
    </g>
    <g stroke="none" id="fig-5991d8360f9140f0aacbd2d5c0fd0996-element-9">
      <rect x="184.85" y="29.24" width="1.81" height="1.81" id="fig-5991d8360f9140f0aacbd2d5c0fd0996-element-10" fill="#00BFFF" class="color_0.2"/>
      <rect x="184.85" y="32.86" width="1.81" height="1.81" id="fig-5991d8360f9140f0aacbd2d5c0fd0996-element-11" fill="#D4CA3A" class="color_0.3"/>
      <rect x="184.85" y="36.49" width="1.81" height="1.81" id="fig-5991d8360f9140f0aacbd2d5c0fd0996-element-12" fill="#FF5EA0" class="color_0.4"/>
    </g>
    <g fill="#362A35" font-size="3.88" font-family="'PT Sans','Helvetica Neue','Helvetica',sans-serif" stroke="none" id="fig-5991d8360f9140f0aacbd2d5c0fd0996-element-13">
      <text x="184.85" y="26.32" id="fig-5991d8360f9140f0aacbd2d5c0fd0996-element-14">Julia ver.</text>
    </g>
  </g>
  <g font-size="3.88" font-family="'PT Sans','Helvetica Neue','Helvetica',sans-serif" fill="#564A55" stroke="none" id="fig-5991d8360f9140f0aacbd2d5c0fd0996-element-15">
    <text x="8.81" y="29.96" text-anchor="middle" dy="0.35em" transform="rotate(-90, 8.81, 31.96)" id="fig-5991d8360f9140f0aacbd2d5c0fd0996-element-16">Number of Tagged Packages</text>
  </g>
  <g clip-path="url(#fig-5991d8360f9140f0aacbd2d5c0fd0996-element-18)" id="fig-5991d8360f9140f0aacbd2d5c0fd0996-element-17">
    <g pointer-events="visible" opacity="1" fill="none" stroke="none" class="guide background" id="fig-5991d8360f9140f0aacbd2d5c0fd0996-element-19">
      <rect x="19.63" y="5" width="164.22" height="53.91" id="fig-5991d8360f9140f0aacbd2d5c0fd0996-element-20"/>
    </g>
    <g class="guide ygridlines xfixed" stroke-dasharray="0.5,0.5" stroke-width="0.2" stroke="#D0D0E0" id="fig-5991d8360f9140f0aacbd2d5c0fd0996-element-21">
      <path fill="none" d="M19.63,56.91 L 183.85 56.91" id="fig-5991d8360f9140f0aacbd2d5c0fd0996-element-22"/>
      <path fill="none" d="M19.63,44.44 L 183.85 44.44" id="fig-5991d8360f9140f0aacbd2d5c0fd0996-element-23"/>
      <path fill="none" d="M19.63,31.96 L 183.85 31.96" id="fig-5991d8360f9140f0aacbd2d5c0fd0996-element-24"/>
      <path fill="none" d="M19.63,19.48 L 183.85 19.48" id="fig-5991d8360f9140f0aacbd2d5c0fd0996-element-25"/>
      <path fill="none" d="M19.63,7 L 183.85 7" id="fig-5991d8360f9140f0aacbd2d5c0fd0996-element-26"/>
    </g>
    <g class="guide xgridlines yfixed" stroke-dasharray="0.5,0.5" stroke-width="0.2" stroke="#D0D0E0" id="fig-5991d8360f9140f0aacbd2d5c0fd0996-element-27">
      <path fill="none" d="M22.84,5 L 22.84 58.91" id="fig-5991d8360f9140f0aacbd2d5c0fd0996-element-28"/>
      <path fill="none" d="M42.08,5 L 42.08 58.91" id="fig-5991d8360f9140f0aacbd2d5c0fd0996-element-29"/>
      <path fill="none" d="M61.97,5 L 61.97 58.91" id="fig-5991d8360f9140f0aacbd2d5c0fd0996-element-30"/>
      <path fill="none" d="M81.22,5 L 81.22 58.91" id="fig-5991d8360f9140f0aacbd2d5c0fd0996-element-31"/>
      <path fill="none" d="M101.1,5 L 101.1 58.91" id="fig-5991d8360f9140f0aacbd2d5c0fd0996-element-32"/>
      <path fill="none" d="M120.99,5 L 120.99 58.91" id="fig-5991d8360f9140f0aacbd2d5c0fd0996-element-33"/>
      <path fill="none" d="M140.23,5 L 140.23 58.91" id="fig-5991d8360f9140f0aacbd2d5c0fd0996-element-34"/>
      <path fill="none" d="M160.12,5 L 160.12 58.91" id="fig-5991d8360f9140f0aacbd2d5c0fd0996-element-35"/>
      <path fill="none" d="M179.36,5 L 179.36 58.91" id="fig-5991d8360f9140f0aacbd2d5c0fd0996-element-36"/>
    </g>
    <g class="plotpanel" id="fig-5991d8360f9140f0aacbd2d5c0fd0996-element-37">
      <g stroke-width="0.79" fill="none" class="geometry color_0.4" stroke="#FF5EA0" id="fig-5991d8360f9140f0aacbd2d5c0fd0996-element-38">
        <path fill="none" d="M108.8,28.46 L 109.44 27.71 110.08 27.47 110.72 27.22 111.37 27.22 112.01 27.22 113.29 26.47 113.93 26.47 114.57 26.22 115.21 26.22 115.86 26.22 116.5 25.47 117.14 24.97 117.78 24.97 119.06 24.47 119.7 23.72 120.99 23.22 121.63 23.22 122.27 23.22 124.84 23.22 126.76 21.72 127.4 21.48 128.04 21.23 128.69 20.73 129.33 20.73 129.97 20.73 130.61 18.73 131.25 18.73 131.89 18.73 133.18 18.48 133.82 18.48 134.46 18.23 135.1 18.23 135.74 18.23 136.38 17.98 137.03 17.98 138.31 18.23 138.95 17.98 139.59 17.98 140.23 17.48 140.87 16.98 141.52 16.98 142.16 16.98 142.8 16.48 144.72 15.98 145.36 15.98 146.01 15.49 146.65 15.24 147.29 15.24 147.93 15.24 148.57 14.74 149.21 14.74 149.85 14.49 150.5 14.24 151.14 14.24 151.78 14.24 152.42 14.24 153.06 13.74 153.7 13.24 154.35 13.24 154.99 13.24 155.63 12.99 156.27 12.99 156.91 12.74 157.55 12.74 158.19 12.24 158.84 11.99 159.48 11.99 160.12 11.74 160.76 11.74 161.4 11.74 162.04 11.74 162.68 11.49 163.33 11.24 165.25 11.24 168.46 9.75 169.1 9.25 169.74 9.25 170.38 9 171.02 9 171.67 8.25 172.31 8.25 174.87 7 175.51 7 178.72 6.75 180.01 6.75 180.65 6.25 181.29 6 181.93 6" id="fig-5991d8360f9140f0aacbd2d5c0fd0996-element-39"/>
      </g>
      <g stroke-width="0.79" fill="none" class="geometry color_0.3" stroke="#D4CA3A" id="fig-5991d8360f9140f0aacbd2d5c0fd0996-element-40">
        <path fill="none" d="M21.56,45.43 L 22.2 45.43 22.84 45.18 23.48 45.18 24.12 45.18 24.76 45.18 25.41 45.18 26.05 44.94 27.33 44.94 27.97 44.69 29.25 44.44 30.54 43.94 31.18 43.94 32.46 43.94 33.1 43.69 37.59 42.69 39.52 42.69 40.8 42.69 45.29 42.44 45.93 41.94 46.57 41.69 47.22 41.69 47.86 41.69 48.5 41.69 49.14 41.69 49.78 41.69 50.42 41.69 51.06 41.69 51.71 41.69 52.35 40.94 53.63 40.69 54.27 40.69 54.91 40.69 55.56 40.19 56.2 40.19 56.84 40.19 57.48 39.94 58.12 39.94 58.76 39.94 59.4 39.94 60.05 39.94 60.69 39.69 61.33 39.69 61.97 49.68 62.61 39.44 63.25 39.2 63.89 38.95 67.74 37.45 68.39 37.2 69.03 36.95 69.67 36.7 70.31 36.2 70.95 36.2 71.59 35.7 72.23 35.7 72.88 35.45 73.52 35.2 74.8 35.2 75.44 34.7 76.08 34.7 76.72 34.7 77.37 34.7 78.01 34.7 78.65 33.95 79.29 33.95 80.57 33.7 81.22 33.21 81.86 32.96 82.5 32.71 83.14 32.71 83.78 32.21 85.06 31.96 85.71 31.21 86.35 31.21 86.99 31.21 88.27 29.96 89.55 29.21 90.2 29.21 90.84 28.96 91.48 28.96 93.4 28.71 94.04 28.71 94.69 28.46 95.33 28.46 95.97 28.46 96.61 28.21 97.25 27.96 97.89 27.71 99.18 27.71 99.82 27.71 101.1 27.71 101.74 27.47 102.38 26.72 103.03 26.72 104.31 26.47 104.95 26.47 105.59 25.97 106.23 25.72 106.87 25.47 107.52 25.22 108.16 24.97 108.8 24.47 109.44 24.47 110.08 24.22 110.72 23.97 111.37 23.97 112.01 23.97 113.29 23.22 113.93 23.22 114.57 22.97 115.21 22.97 115.86 22.97 116.5 22.22 117.14 21.97 117.78 21.72 119.06 24.72 119.7 23.97 120.99 23.47 121.63 23.47 122.27 23.47 124.84 23.47 126.76 21.97 127.4 21.72 128.04 21.48 128.69 20.98 129.33 20.98 129.97 20.98 130.61 18.98 131.25 18.98 131.89 18.98 133.18 18.98 133.82 18.73 134.46 18.48 135.1 18.48 135.74 18.48 136.38 18.23 137.03 18.23 138.31 18.48 138.95 18.23 139.59 18.23 140.23 17.73 140.87 12.74 141.52 17.23 142.16 17.23 142.8 16.73 144.72 16.23 145.36 16.23 146.01 15.74 146.65 15.49 147.29 15.49 147.93 15.49 148.57 14.99 149.21 14.99 149.85 14.74 150.5 14.49 151.14 14.49 151.78 14.49 152.42 14.49 153.06 14.24 153.7 13.74 154.35 13.74 154.99 13.74 155.63 13.49 156.27 13.49 156.91 13.24 157.55 13.24 158.19 12.74 158.84 12.49 159.48 12.49 160.12 12.24 160.76 12.24 161.4 12.24 162.04 11.99 162.68 11.99 163.33 11.74 165.25 11.74 168.46 10.49 169.1 9.99 169.74 9.99 170.38 9.75 171.02 9.75 171.67 9 172.31 9 174.87 7.75 175.51 7.75 178.72 7.5 180.01 7.5 180.65 7.25 181.29 7 181.93 7" id="fig-5991d8360f9140f0aacbd2d5c0fd0996-element-41"/>
      </g>
      <g stroke-width="0.79" fill="none" class="geometry color_0.2" stroke="#00BFFF" id="fig-5991d8360f9140f0aacbd2d5c0fd0996-element-42">
        <path fill="none" d="M21.56,48.18 L 22.2 48.18 22.84 47.93 23.48 47.93 24.12 47.93 24.76 47.93 25.41 47.93 26.05 47.93 27.33 47.93 27.97 47.93 29.25 47.68 30.54 47.43 31.18 47.43 32.46 47.18 33.1 46.93 37.59 46.43 39.52 46.43 40.8 46.43 45.29 46.18 45.93 45.93 46.57 45.93 47.22 45.93 47.86 45.93 48.5 45.93 49.14 45.93 49.78 45.93 50.42 45.93 51.06 45.93 51.71 45.18 52.35 45.18 53.63 44.94 54.27 44.94 54.91 44.94 55.56 44.69 56.2 46.68 56.84 45.43 57.48 45.43 58.12 45.43 58.76 45.43 59.4 45.43 60.05 45.43 60.69 45.43 61.33 45.43 61.97 45.18 62.61 45.18 63.25 44.94 63.89 44.94 67.74 43.69 68.39 43.69 69.03 43.44 69.67 43.19 70.31 42.69 70.95 42.69 71.59 42.69 72.23 42.69 72.88 42.69 73.52 42.44 74.8 42.44 75.44 41.94 76.08 41.94 76.72 41.94 77.37 41.94 78.01 41.94 78.65 41.19 79.29 41.19 80.57 40.94 81.22 40.44 81.86 40.19 82.5 39.94 83.14 39.94 83.78 39.94 85.06 39.44 85.71 39.2 86.35 38.95 86.99 38.95 88.27 38.45 89.55 37.95 90.2 37.95 90.84 37.95 91.48 37.95 93.4 37.95 94.04 37.95 94.69 37.7 95.33 37.7 95.97 37.7 96.61 37.45 97.25 37.45 97.89 37.45 99.18 37.2 99.82 37.2 101.1 37.2 101.74 37.2 102.38 36.45 103.03 36.45 104.31 36.95 104.95 36.95 105.59 36.45 106.23 36.2 106.87 36.2 107.52 35.7 108.16 35.7" id="fig-5991d8360f9140f0aacbd2d5c0fd0996-element-43"/>
      </g>
    </g>
  </g>
  <g class="guide ylabels" font-size="2.82" font-family="'PT Sans Caption','Helvetica Neue','Helvetica',sans-serif" fill="#6C606B" id="fig-5991d8360f9140f0aacbd2d5c0fd0996-element-44">
    <text x="18.63" y="56.91" text-anchor="end" dy="0.35em" id="fig-5991d8360f9140f0aacbd2d5c0fd0996-element-45">250</text>
    <text x="18.63" y="44.44" text-anchor="end" dy="0.35em" id="fig-5991d8360f9140f0aacbd2d5c0fd0996-element-46">300</text>
    <text x="18.63" y="31.96" text-anchor="end" dy="0.35em" id="fig-5991d8360f9140f0aacbd2d5c0fd0996-element-47">350</text>
    <text x="18.63" y="19.48" text-anchor="end" dy="0.35em" id="fig-5991d8360f9140f0aacbd2d5c0fd0996-element-48">400</text>
    <text x="18.63" y="7" text-anchor="end" dy="0.35em" id="fig-5991d8360f9140f0aacbd2d5c0fd0996-element-49">450</text>
  </g>
</g>
<defs>
<clipPath id="fig-5991d8360f9140f0aacbd2d5c0fd0996-element-18">
  <path d="M19.63,5 L 183.85 5 183.85 58.91 19.63 58.91" />
</clipPath
></defs>
</svg>
