<?xml version="1.0" encoding="UTF-8"?>
<svg xmlns="http://www.w3.org/2000/svg"
     xmlns:xlink="http://www.w3.org/1999/xlink"
     xmlns:gadfly="http://www.gadflyjl.org/ns"
     version="1.2"
     width="203.2mm" height="76.2mm" viewBox="0 0 203.2 76.2"
     stroke="none"
     fill="#000000"
     stroke-width="0.3"
     font-size="3.88"
>
<g class="plotroot xscalable yscalable" id="fig-db20178f90294b29bada6881507895c7-element-1">
  <g font-size="3.88" font-family="'PT Sans','Helvetica Neue','Helvetica',sans-serif" fill="#564A55" stroke="none" id="fig-db20178f90294b29bada6881507895c7-element-2">
    <text x="101.74" y="68.2" text-anchor="middle">Date</text>
  </g>
  <g class="guide xlabels" font-size="2.82" font-family="'PT Sans Caption','Helvetica Neue','Helvetica',sans-serif" fill="#6C606B" id="fig-db20178f90294b29bada6881507895c7-element-3">
    <text x="23.49" y="62.59" text-anchor="middle">Apr</text>
    <text x="46.62" y="62.59" text-anchor="middle">May</text>
    <text x="70.52" y="62.59" text-anchor="middle">June</text>
    <text x="93.65" y="62.59" text-anchor="middle">July</text>
    <text x="117.55" y="62.59" text-anchor="middle">Aug</text>
    <text x="141.45" y="62.59" text-anchor="middle">Sept</text>
    <text x="164.58" y="62.59" text-anchor="middle">Oct</text>
  </g>
  <g class="guide colorkey" id="fig-db20178f90294b29bada6881507895c7-element-4">
    <g fill="#4C404B" font-size="2.82" font-family="'PT Sans','Helvetica Neue','Helvetica',sans-serif" id="fig-db20178f90294b29bada6881507895c7-element-5">
      <text x="187.67" y="30.14" dy="0.35em" id="fig-db20178f90294b29bada6881507895c7-element-6" class="color_0.2">0.2</text>
      <text x="187.67" y="33.77" dy="0.35em" id="fig-db20178f90294b29bada6881507895c7-element-7" class="color_0.3">0.3</text>
      <text x="187.67" y="37.4" dy="0.35em" id="fig-db20178f90294b29bada6881507895c7-element-8" class="color_0.4">0.4</text>
    </g>
    <g stroke="none" id="fig-db20178f90294b29bada6881507895c7-element-9">
      <rect x="184.85" y="29.24" width="1.81" height="1.81" id="fig-db20178f90294b29bada6881507895c7-element-10" class="color_0.2" fill="#00BFFF"/>
      <rect x="184.85" y="32.86" width="1.81" height="1.81" id="fig-db20178f90294b29bada6881507895c7-element-11" class="color_0.3" fill="#D4CA3A"/>
      <rect x="184.85" y="36.49" width="1.81" height="1.81" id="fig-db20178f90294b29bada6881507895c7-element-12" class="color_0.4" fill="#FF5EA0"/>
    </g>
    <g fill="#362A35" font-size="3.88" font-family="'PT Sans','Helvetica Neue','Helvetica',sans-serif" stroke="none" id="fig-db20178f90294b29bada6881507895c7-element-13">
      <text x="184.85" y="26.32" id="fig-db20178f90294b29bada6881507895c7-element-14">Julia ver.</text>
    </g>
  </g>
  <g font-size="3.88" font-family="'PT Sans','Helvetica Neue','Helvetica',sans-serif" fill="#564A55" stroke="none" id="fig-db20178f90294b29bada6881507895c7-element-15">
    <text x="8.81" y="29.96" text-anchor="middle" dy="0.35em" transform="rotate(-90, 8.81, 31.96)" id="fig-db20178f90294b29bada6881507895c7-element-16">Number of Tagged Packages</text>
  </g>
  <g clip-path="url(#fig-db20178f90294b29bada6881507895c7-element-18)" id="fig-db20178f90294b29bada6881507895c7-element-17">
    <g pointer-events="visible" opacity="1" fill="none" stroke="none" class="guide background" id="fig-db20178f90294b29bada6881507895c7-element-19">
      <rect x="19.63" y="5" width="164.22" height="53.91" id="fig-db20178f90294b29bada6881507895c7-element-20"/>
    </g>
    <g class="guide ygridlines xfixed" stroke-dasharray="0.5,0.5" stroke-width="0.2" stroke="#D0D0E0" id="fig-db20178f90294b29bada6881507895c7-element-21">
      <path fill="none" d="M19.63,56.91 L 183.85 56.91" id="fig-db20178f90294b29bada6881507895c7-element-22"/>
      <path fill="none" d="M19.63,44.44 L 183.85 44.44" id="fig-db20178f90294b29bada6881507895c7-element-23"/>
      <path fill="none" d="M19.63,31.96 L 183.85 31.96" id="fig-db20178f90294b29bada6881507895c7-element-24"/>
      <path fill="none" d="M19.63,19.48 L 183.85 19.48" id="fig-db20178f90294b29bada6881507895c7-element-25"/>
      <path fill="none" d="M19.63,7 L 183.85 7" id="fig-db20178f90294b29bada6881507895c7-element-26"/>
    </g>
    <g class="guide xgridlines yfixed" stroke-dasharray="0.5,0.5" stroke-width="0.2" stroke="#D0D0E0" id="fig-db20178f90294b29bada6881507895c7-element-27">
      <path fill="none" d="M23.49,5 L 23.49 58.91" id="fig-db20178f90294b29bada6881507895c7-element-28"/>
      <path fill="none" d="M46.62,5 L 46.62 58.91" id="fig-db20178f90294b29bada6881507895c7-element-29"/>
      <path fill="none" d="M70.52,5 L 70.52 58.91" id="fig-db20178f90294b29bada6881507895c7-element-30"/>
      <path fill="none" d="M93.65,5 L 93.65 58.91" id="fig-db20178f90294b29bada6881507895c7-element-31"/>
      <path fill="none" d="M117.55,5 L 117.55 58.91" id="fig-db20178f90294b29bada6881507895c7-element-32"/>
      <path fill="none" d="M141.45,5 L 141.45 58.91" id="fig-db20178f90294b29bada6881507895c7-element-33"/>
      <path fill="none" d="M164.58,5 L 164.58 58.91" id="fig-db20178f90294b29bada6881507895c7-element-34"/>
    </g>
    <g class="plotpanel" id="fig-db20178f90294b29bada6881507895c7-element-35">
      <g stroke-width="0.79" fill="none" class="geometry color_0.4" stroke="#FF5EA0" id="fig-db20178f90294b29bada6881507895c7-element-36">
        <path fill="none" d="M126.8,28.46 L 127.57 27.71 128.34 27.47 129.11 27.22 129.88 27.22 130.66 27.22 132.2 26.47 132.97 26.47 133.74 26.22 134.51 26.22 135.28 26.22 136.05 25.47 136.82 24.97 137.59 24.97 139.14 24.47 139.91 23.72 141.45 23.22 142.22 23.22 142.99 23.22 146.08 23.22 148.39 21.72 149.16 21.48 149.93 21.23 150.7 20.73 151.47 20.73 152.24 20.73 153.01 18.73 153.79 18.73 154.56 18.73 156.1 18.48 156.87 18.48 157.64 18.23 158.41 18.23 159.18 18.23 159.95 17.98 160.72 17.98 162.27 18.23 163.04 17.98 163.81 17.98 164.58 17.48 165.35 16.98 166.12 16.98 166.89 16.98 167.66 16.48 169.98 15.98 170.75 15.98 171.52 15.49 172.29 15.24 173.06 15.24 173.83 15.24 174.6 14.74 175.37 14.74 176.14 14.49 176.92 14.24 177.69 14.24 178.46 14.24 179.23 14.24 180 13.74 180.77 13.24 181.54 13.24 182.31 13.24" id="fig-db20178f90294b29bada6881507895c7-element-37"/>
      </g>
      <g stroke-width="0.79" fill="none" class="geometry color_0.3" stroke="#D4CA3A" id="fig-db20178f90294b29bada6881507895c7-element-38">
        <path fill="none" d="M21.94,45.43 L 22.72 45.43 23.49 45.18 24.26 45.18 25.03 45.18 25.8 45.18 26.57 45.18 27.34 44.94 28.88 44.94 29.65 44.69 31.2 44.44 32.74 43.94 33.51 43.94 35.05 43.94 35.82 43.69 41.22 42.69 43.53 42.69 45.07 42.69 50.47 42.44 51.24 41.94 52.01 41.69 52.78 41.69 53.56 41.69 54.33 41.69 55.1 41.69 55.87 41.69 56.64 41.69 57.41 41.69 58.18 41.69 58.95 40.94 60.49 40.69 61.27 40.69 62.04 40.69 62.81 40.19 63.58 40.19 64.35 40.19 65.12 39.94 65.89 39.94 66.66 39.94 67.43 39.94 68.2 39.94 68.98 39.69 69.75 39.69 70.52 49.68 71.29 39.44 72.06 39.2 72.83 38.95 77.46 37.45 78.23 37.2 79 36.95 79.77 36.7 80.54 36.2 81.31 36.2 82.08 35.7 82.85 35.7 83.62 35.45 84.4 35.2 85.94 35.2 86.71 34.7 87.48 34.7 88.25 34.7 89.02 34.7 89.79 34.7 90.56 33.95 91.33 33.95 92.88 33.7 93.65 33.21 94.42 32.96 95.19 32.71 95.96 32.71 96.73 32.21 98.27 31.96 99.04 31.21 99.82 31.21 100.59 31.21 102.13 29.96 103.67 29.21 104.44 29.21 105.21 28.96 105.98 28.96 108.3 28.71 109.07 28.71 109.84 28.46 110.61 28.46 111.38 28.46 112.15 28.21 112.92 27.96 113.69 27.71 115.24 27.71 116.01 27.71 117.55 27.71 118.32 27.47 119.09 26.72 119.86 26.72 121.4 26.47 122.17 26.47 122.95 25.97 123.72 25.72 124.49 25.47 125.26 25.22 126.03 24.97 126.8 24.47 127.57 24.47 128.34 24.22 129.11 23.97 129.88 23.97 130.66 23.97 132.2 23.22 132.97 23.22 133.74 22.97 134.51 22.97 135.28 22.97 136.05 22.22 136.82 21.97 137.59 21.72 139.14 24.72 139.91 23.97 141.45 23.47 142.22 23.47 142.99 23.47 146.08 23.47 148.39 21.97 149.16 21.72 149.93 21.48 150.7 20.98 151.47 20.98 152.24 20.98 153.01 18.98 153.79 18.98 154.56 18.98 156.1 18.98 156.87 18.73 157.64 18.48 158.41 18.48 159.18 18.48 159.95 18.23 160.72 18.23 162.27 18.48 163.04 18.23 163.81 18.23 164.58 17.73 165.35 12.74 166.12 17.23 166.89 17.23 167.66 16.73 169.98 16.23 170.75 16.23 171.52 15.74 172.29 15.49 173.06 15.49 173.83 15.49 174.6 14.99 175.37 14.99 176.14 14.74 176.92 14.49 177.69 14.49 178.46 14.49 179.23 14.49 180 14.24 180.77 13.74 181.54 13.74 182.31 13.74" id="fig-db20178f90294b29bada6881507895c7-element-39"/>
      </g>
      <g stroke-width="0.79" fill="none" class="geometry color_0.2" stroke="#00BFFF" id="fig-db20178f90294b29bada6881507895c7-element-40">
        <path fill="none" d="M21.94,48.18 L 22.72 48.18 23.49 47.93 24.26 47.93 25.03 47.93 25.8 47.93 26.57 47.93 27.34 47.93 28.88 47.93 29.65 47.93 31.2 47.68 32.74 47.43 33.51 47.43 35.05 47.18 35.82 46.93 41.22 46.43 43.53 46.43 45.07 46.43 50.47 46.18 51.24 45.93 52.01 45.93 52.78 45.93 53.56 45.93 54.33 45.93 55.1 45.93 55.87 45.93 56.64 45.93 57.41 45.93 58.18 45.18 58.95 45.18 60.49 44.94 61.27 44.94 62.04 44.94 62.81 44.69 63.58 46.68 64.35 45.43 65.12 45.43 65.89 45.43 66.66 45.43 67.43 45.43 68.2 45.43 68.98 45.43 69.75 45.43 70.52 45.18 71.29 45.18 72.06 44.94 72.83 44.94 77.46 43.69 78.23 43.69 79 43.44 79.77 43.19 80.54 42.69 81.31 42.69 82.08 42.69 82.85 42.69 83.62 42.69 84.4 42.44 85.94 42.44 86.71 41.94 87.48 41.94 88.25 41.94 89.02 41.94 89.79 41.94 90.56 41.19 91.33 41.19 92.88 40.94 93.65 40.44 94.42 40.19 95.19 39.94 95.96 39.94 96.73 39.94 98.27 39.44 99.04 39.2 99.82 38.95 100.59 38.95 102.13 38.45 103.67 37.95 104.44 37.95 105.21 37.95 105.98 37.95 108.3 37.95 109.07 37.95 109.84 37.7 110.61 37.7 111.38 37.7 112.15 37.45 112.92 37.45 113.69 37.45 115.24 37.2 116.01 37.2 117.55 37.2 118.32 37.2 119.09 36.45 119.86 36.45 121.4 36.95 122.17 36.95 122.95 36.45 123.72 36.2 124.49 36.2 125.26 35.7 126.03 35.7" id="fig-db20178f90294b29bada6881507895c7-element-41"/>
      </g>
    </g>
  </g>
  <g class="guide ylabels" font-size="2.82" font-family="'PT Sans Caption','Helvetica Neue','Helvetica',sans-serif" fill="#6C606B" id="fig-db20178f90294b29bada6881507895c7-element-42">
    <text x="18.63" y="56.91" text-anchor="end" dy="0.35em" id="fig-db20178f90294b29bada6881507895c7-element-43">250</text>
    <text x="18.63" y="44.44" text-anchor="end" dy="0.35em" id="fig-db20178f90294b29bada6881507895c7-element-44">300</text>
    <text x="18.63" y="31.96" text-anchor="end" dy="0.35em" id="fig-db20178f90294b29bada6881507895c7-element-45">350</text>
    <text x="18.63" y="19.48" text-anchor="end" dy="0.35em" id="fig-db20178f90294b29bada6881507895c7-element-46">400</text>
    <text x="18.63" y="7" text-anchor="end" dy="0.35em" id="fig-db20178f90294b29bada6881507895c7-element-47">450</text>
  </g>
</g>
<defs>
<clipPath id="fig-db20178f90294b29bada6881507895c7-element-18">
  <path d="M19.63,5 L 183.85 5 183.85 58.91 19.63 58.91" />
</clipPath
></defs>
</svg>
