<?xml version="1.0" encoding="UTF-8"?>
<svg xmlns="http://www.w3.org/2000/svg"
     xmlns:xlink="http://www.w3.org/1999/xlink"
     xmlns:gadfly="http://www.gadflyjl.org/ns"
     version="1.2"
     width="203.2mm" height="76.2mm" viewBox="0 0 203.2 76.2"
     stroke="none"
     fill="#000000"
     stroke-width="0.3"
     font-size="3.88"
>
<g class="plotroot xscalable yscalable" id="fig-a0b21de474ca47da98db16ca074c0b0e-element-1">
  <g font-size="3.88" font-family="'PT Sans','Helvetica Neue','Helvetica',sans-serif" fill="#564A55" stroke="none" id="fig-a0b21de474ca47da98db16ca074c0b0e-element-2">
    <text x="101.74" y="68.2" text-anchor="middle">Date</text>
  </g>
  <g class="guide xlabels" font-size="2.82" font-family="'PT Sans Caption','Helvetica Neue','Helvetica',sans-serif" fill="#6C606B" id="fig-a0b21de474ca47da98db16ca074c0b0e-element-3">
    <text x="23.5" y="62.59" text-anchor="middle">Apr</text>
    <text x="46.74" y="62.59" text-anchor="middle">May</text>
    <text x="70.76" y="62.59" text-anchor="middle">June</text>
    <text x="94" y="62.59" text-anchor="middle">July</text>
    <text x="118.01" y="62.59" text-anchor="middle">Aug</text>
    <text x="142.02" y="62.59" text-anchor="middle">Sept</text>
    <text x="165.26" y="62.59" text-anchor="middle">Oct</text>
  </g>
  <g class="guide colorkey" id="fig-a0b21de474ca47da98db16ca074c0b0e-element-4">
    <g fill="#4C404B" font-size="2.82" font-family="'PT Sans','Helvetica Neue','Helvetica',sans-serif" id="fig-a0b21de474ca47da98db16ca074c0b0e-element-5">
      <text x="187.67" y="30.14" dy="0.35em" id="fig-a0b21de474ca47da98db16ca074c0b0e-element-6" class="color_0.2">0.2</text>
      <text x="187.67" y="33.77" dy="0.35em" id="fig-a0b21de474ca47da98db16ca074c0b0e-element-7" class="color_0.3">0.3</text>
      <text x="187.67" y="37.4" dy="0.35em" id="fig-a0b21de474ca47da98db16ca074c0b0e-element-8" class="color_0.4">0.4</text>
    </g>
    <g stroke="none" id="fig-a0b21de474ca47da98db16ca074c0b0e-element-9">
      <rect x="184.85" y="29.24" width="1.81" height="1.81" id="fig-a0b21de474ca47da98db16ca074c0b0e-element-10" class="color_0.2" fill="#00BFFF"/>
      <rect x="184.85" y="32.86" width="1.81" height="1.81" id="fig-a0b21de474ca47da98db16ca074c0b0e-element-11" class="color_0.3" fill="#D4CA3A"/>
      <rect x="184.85" y="36.49" width="1.81" height="1.81" id="fig-a0b21de474ca47da98db16ca074c0b0e-element-12" class="color_0.4" fill="#FF5EA0"/>
    </g>
    <g fill="#362A35" font-size="3.88" font-family="'PT Sans','Helvetica Neue','Helvetica',sans-serif" stroke="none" id="fig-a0b21de474ca47da98db16ca074c0b0e-element-13">
      <text x="184.85" y="26.32" id="fig-a0b21de474ca47da98db16ca074c0b0e-element-14">Julia ver.</text>
    </g>
  </g>
  <g font-size="3.88" font-family="'PT Sans','Helvetica Neue','Helvetica',sans-serif" fill="#564A55" stroke="none" id="fig-a0b21de474ca47da98db16ca074c0b0e-element-15">
    <text x="8.81" y="29.96" text-anchor="middle" dy="0.35em" transform="rotate(-90, 8.81, 31.96)" id="fig-a0b21de474ca47da98db16ca074c0b0e-element-16">Number of Tagged Packages</text>
  </g>
  <g clip-path="url(#fig-a0b21de474ca47da98db16ca074c0b0e-element-18)" id="fig-a0b21de474ca47da98db16ca074c0b0e-element-17">
    <g pointer-events="visible" opacity="1" fill="none" stroke="none" class="guide background" id="fig-a0b21de474ca47da98db16ca074c0b0e-element-19">
      <rect x="19.63" y="5" width="164.22" height="53.91" id="fig-a0b21de474ca47da98db16ca074c0b0e-element-20"/>
    </g>
    <g class="guide ygridlines xfixed" stroke-dasharray="0.5,0.5" stroke-width="0.2" stroke="#D0D0E0" id="fig-a0b21de474ca47da98db16ca074c0b0e-element-21">
      <path fill="none" d="M19.63,56.91 L 183.85 56.91" id="fig-a0b21de474ca47da98db16ca074c0b0e-element-22"/>
      <path fill="none" d="M19.63,44.44 L 183.85 44.44" id="fig-a0b21de474ca47da98db16ca074c0b0e-element-23"/>
      <path fill="none" d="M19.63,31.96 L 183.85 31.96" id="fig-a0b21de474ca47da98db16ca074c0b0e-element-24"/>
      <path fill="none" d="M19.63,19.48 L 183.85 19.48" id="fig-a0b21de474ca47da98db16ca074c0b0e-element-25"/>
      <path fill="none" d="M19.63,7 L 183.85 7" id="fig-a0b21de474ca47da98db16ca074c0b0e-element-26"/>
    </g>
    <g class="guide xgridlines yfixed" stroke-dasharray="0.5,0.5" stroke-width="0.2" stroke="#D0D0E0" id="fig-a0b21de474ca47da98db16ca074c0b0e-element-27">
      <path fill="none" d="M23.5,5 L 23.5 58.91" id="fig-a0b21de474ca47da98db16ca074c0b0e-element-28"/>
      <path fill="none" d="M46.74,5 L 46.74 58.91" id="fig-a0b21de474ca47da98db16ca074c0b0e-element-29"/>
      <path fill="none" d="M70.76,5 L 70.76 58.91" id="fig-a0b21de474ca47da98db16ca074c0b0e-element-30"/>
      <path fill="none" d="M94,5 L 94 58.91" id="fig-a0b21de474ca47da98db16ca074c0b0e-element-31"/>
      <path fill="none" d="M118.01,5 L 118.01 58.91" id="fig-a0b21de474ca47da98db16ca074c0b0e-element-32"/>
      <path fill="none" d="M142.02,5 L 142.02 58.91" id="fig-a0b21de474ca47da98db16ca074c0b0e-element-33"/>
      <path fill="none" d="M165.26,5 L 165.26 58.91" id="fig-a0b21de474ca47da98db16ca074c0b0e-element-34"/>
    </g>
    <g class="plotpanel" id="fig-a0b21de474ca47da98db16ca074c0b0e-element-35">
      <g stroke-width="0.79" fill="none" class="geometry color_0.4" stroke="#FF5EA0" id="fig-a0b21de474ca47da98db16ca074c0b0e-element-36">
        <path fill="none" d="M127.31,28.46 L 128.08 27.71 128.86 27.47 129.63 27.22 130.4 27.22 131.18 27.22 132.73 26.47 133.5 26.47 134.28 26.22 135.05 26.22 135.83 26.22 136.6 25.47 137.38 24.97 138.15 24.97 139.7 24.47 140.47 23.72 142.02 23.22 142.8 23.22 143.57 23.22 146.67 23.22 149 21.72 149.77 21.48 150.54 21.23 151.32 20.73 152.09 20.73 152.87 20.73 153.64 18.73 154.42 18.73 155.19 18.73 156.74 18.48 157.52 18.48 158.29 18.23 159.07 18.23 159.84 18.23 160.62 17.98 161.39 17.98 162.94 18.23 163.71 17.98 164.49 17.98 165.26 17.48 166.04 16.98 166.81 16.98 167.59 16.98 168.36 16.48 170.69 15.98 171.46 15.98 172.23 15.49 173.01 15.24 173.78 15.24 174.56 15.24 175.33 14.74 176.11 14.74 176.88 14.49 177.66 14.24 178.43 14.24 179.21 14.24 179.98 14.24 180.76 13.74 181.53 13.24 182.3 13.24" id="fig-a0b21de474ca47da98db16ca074c0b0e-element-37"/>
      </g>
      <g stroke-width="0.79" fill="none" class="geometry color_0.3" stroke="#D4CA3A" id="fig-a0b21de474ca47da98db16ca074c0b0e-element-38">
        <path fill="none" d="M21.96,45.43 L 22.73 45.43 23.5 45.18 24.28 45.18 25.05 45.18 25.83 45.18 26.6 45.18 27.38 44.94 28.93 44.94 29.7 44.69 31.25 44.44 32.8 43.94 33.58 43.94 35.12 43.94 35.9 43.69 41.32 42.69 43.65 42.69 45.19 42.69 50.62 42.44 51.39 41.94 52.17 41.69 52.94 41.69 53.72 41.69 54.49 41.69 55.26 41.69 56.04 41.69 56.81 41.69 57.59 41.69 58.36 41.69 59.14 40.94 60.69 40.69 61.46 40.69 62.24 40.69 63.01 40.19 63.79 40.19 64.56 40.19 65.34 39.94 66.11 39.94 66.88 39.94 67.66 39.94 68.43 39.94 69.21 39.69 69.98 39.69 70.76 49.68 71.53 39.44 72.31 39.2 73.08 38.95 77.73 37.45 78.5 37.2 79.28 36.95 80.05 36.7 80.83 36.2 81.6 36.2 82.38 35.7 83.15 35.7 83.93 35.45 84.7 35.2 86.25 35.2 87.02 34.7 87.8 34.7 88.57 34.7 89.35 34.7 90.12 34.7 90.9 33.95 91.67 33.95 93.22 33.7 94 33.21 94.77 32.96 95.55 32.71 96.32 32.71 97.1 32.21 98.64 31.96 99.42 31.21 100.19 31.21 100.97 31.21 102.52 29.96 104.07 29.21 104.84 29.21 105.62 28.96 106.39 28.96 108.71 28.71 109.49 28.71 110.26 28.46 111.04 28.46 111.81 28.46 112.59 28.21 113.36 27.96 114.14 27.71 115.69 27.71 116.46 27.71 118.01 27.71 118.78 27.47 119.56 26.72 120.33 26.72 121.88 26.47 122.66 26.47 123.43 25.97 124.21 25.72 124.98 25.47 125.76 25.22 126.53 24.97 127.31 24.47 128.08 24.47 128.86 24.22 129.63 23.97 130.4 23.97 131.18 23.97 132.73 23.22 133.5 23.22 134.28 22.97 135.05 22.97 135.83 22.97 136.6 22.22 137.38 21.97 138.15 21.72 139.7 24.72 140.47 23.97 142.02 23.47 142.8 23.47 143.57 23.47 146.67 23.47 149 21.97 149.77 21.72 150.54 21.48 151.32 20.98 152.09 20.98 152.87 20.98 153.64 18.98 154.42 18.98 155.19 18.98 156.74 18.98 157.52 18.73 158.29 18.48 159.07 18.48 159.84 18.48 160.62 18.23 161.39 18.23 162.94 18.48 163.71 18.23 164.49 18.23 165.26 17.73 166.04 12.74 166.81 17.23 167.59 17.23 168.36 16.73 170.69 16.23 171.46 16.23 172.23 15.74 173.01 15.49 173.78 15.49 174.56 15.49 175.33 14.99 176.11 14.99 176.88 14.74 177.66 14.49 178.43 14.49 179.21 14.49 179.98 14.49 180.76 14.24 181.53 13.74 182.3 13.74" id="fig-a0b21de474ca47da98db16ca074c0b0e-element-39"/>
      </g>
      <g stroke-width="0.79" fill="none" class="geometry color_0.2" stroke="#00BFFF" id="fig-a0b21de474ca47da98db16ca074c0b0e-element-40">
        <path fill="none" d="M21.96,48.18 L 22.73 48.18 23.5 47.93 24.28 47.93 25.05 47.93 25.83 47.93 26.6 47.93 27.38 47.93 28.93 47.93 29.7 47.93 31.25 47.68 32.8 47.43 33.58 47.43 35.12 47.18 35.9 46.93 41.32 46.43 43.65 46.43 45.19 46.43 50.62 46.18 51.39 45.93 52.17 45.93 52.94 45.93 53.72 45.93 54.49 45.93 55.26 45.93 56.04 45.93 56.81 45.93 57.59 45.93 58.36 45.18 59.14 45.18 60.69 44.94 61.46 44.94 62.24 44.94 63.01 44.69 63.79 46.68 64.56 45.43 65.34 45.43 66.11 45.43 66.88 45.43 67.66 45.43 68.43 45.43 69.21 45.43 69.98 45.43 70.76 45.18 71.53 45.18 72.31 44.94 73.08 44.94 77.73 43.69 78.5 43.69 79.28 43.44 80.05 43.19 80.83 42.69 81.6 42.69 82.38 42.69 83.15 42.69 83.93 42.69 84.7 42.44 86.25 42.44 87.02 41.94 87.8 41.94 88.57 41.94 89.35 41.94 90.12 41.94 90.9 41.19 91.67 41.19 93.22 40.94 94 40.44 94.77 40.19 95.55 39.94 96.32 39.94 97.1 39.94 98.64 39.44 99.42 39.2 100.19 38.95 100.97 38.95 102.52 38.45 104.07 37.95 104.84 37.95 105.62 37.95 106.39 37.95 108.71 37.95 109.49 37.95 110.26 37.7 111.04 37.7 111.81 37.7 112.59 37.45 113.36 37.45 114.14 37.45 115.69 37.2 116.46 37.2 118.01 37.2 118.78 37.2 119.56 36.45 120.33 36.45 121.88 36.95 122.66 36.95 123.43 36.45 124.21 36.2 124.98 36.2 125.76 35.7 126.53 35.7" id="fig-a0b21de474ca47da98db16ca074c0b0e-element-41"/>
      </g>
    </g>
  </g>
  <g class="guide ylabels" font-size="2.82" font-family="'PT Sans Caption','Helvetica Neue','Helvetica',sans-serif" fill="#6C606B" id="fig-a0b21de474ca47da98db16ca074c0b0e-element-42">
    <text x="18.63" y="56.91" text-anchor="end" dy="0.35em" id="fig-a0b21de474ca47da98db16ca074c0b0e-element-43">250</text>
    <text x="18.63" y="44.44" text-anchor="end" dy="0.35em" id="fig-a0b21de474ca47da98db16ca074c0b0e-element-44">300</text>
    <text x="18.63" y="31.96" text-anchor="end" dy="0.35em" id="fig-a0b21de474ca47da98db16ca074c0b0e-element-45">350</text>
    <text x="18.63" y="19.48" text-anchor="end" dy="0.35em" id="fig-a0b21de474ca47da98db16ca074c0b0e-element-46">400</text>
    <text x="18.63" y="7" text-anchor="end" dy="0.35em" id="fig-a0b21de474ca47da98db16ca074c0b0e-element-47">450</text>
  </g>
</g>
<defs>
<clipPath id="fig-a0b21de474ca47da98db16ca074c0b0e-element-18">
  <path d="M19.63,5 L 183.85 5 183.85 58.91 19.63 58.91" />
</clipPath
></defs>
</svg>
