<?xml version="1.0" encoding="UTF-8"?>
<svg xmlns="http://www.w3.org/2000/svg"
     xmlns:xlink="http://www.w3.org/1999/xlink"
     xmlns:gadfly="http://www.gadflyjl.org/ns"
     version="1.2"
     width="203.2mm" height="76.2mm" viewBox="0 0 203.2 76.2"
     stroke="none"
     fill="#000000"
     stroke-width="0.3"
     font-size="3.88"
>
<g class="plotroot xscalable yscalable" id="fig-92df4f0452314d7084e89997a0edc321-element-1">
  <g font-size="3.88" font-family="'PT Sans','Helvetica Neue','Helvetica',sans-serif" fill="#564A55" stroke="none" id="fig-92df4f0452314d7084e89997a0edc321-element-2">
    <text x="101.74" y="68.2" text-anchor="middle">Date</text>
  </g>
  <g class="guide xlabels" font-size="2.82" font-family="'PT Sans Caption','Helvetica Neue','Helvetica',sans-serif" fill="#6C606B" id="fig-92df4f0452314d7084e89997a0edc321-element-3">
    <text x="22.66" y="62.59" text-anchor="middle">Apr</text>
    <text x="40.84" y="62.59" text-anchor="middle">May</text>
    <text x="59.63" y="62.59" text-anchor="middle">Jun</text>
    <text x="77.81" y="62.59" text-anchor="middle">Jul</text>
    <text x="96.59" y="62.59" text-anchor="middle">Aug</text>
    <text x="115.38" y="62.59" text-anchor="middle">Sep</text>
    <text x="133.56" y="62.59" text-anchor="middle">Oct</text>
    <text x="152.34" y="62.59" text-anchor="middle">Nov</text>
    <text x="170.52" y="62.59" text-anchor="middle">Dec</text>
  </g>
  <g class="guide colorkey" id="fig-92df4f0452314d7084e89997a0edc321-element-4">
    <g fill="#4C404B" font-size="2.82" font-family="'PT Sans','Helvetica Neue','Helvetica',sans-serif" id="fig-92df4f0452314d7084e89997a0edc321-element-5">
      <text x="187.67" y="30.14" dy="0.35em" id="fig-92df4f0452314d7084e89997a0edc321-element-6" class="color_0.2">0.2</text>
      <text x="187.67" y="33.77" dy="0.35em" id="fig-92df4f0452314d7084e89997a0edc321-element-7" class="color_0.3">0.3</text>
      <text x="187.67" y="37.4" dy="0.35em" id="fig-92df4f0452314d7084e89997a0edc321-element-8" class="color_0.4">0.4</text>
    </g>
    <g stroke="none" id="fig-92df4f0452314d7084e89997a0edc321-element-9">
      <rect x="184.85" y="29.24" width="1.81" height="1.81" id="fig-92df4f0452314d7084e89997a0edc321-element-10" class="color_0.2" fill="#00BFFF"/>
      <rect x="184.85" y="32.86" width="1.81" height="1.81" id="fig-92df4f0452314d7084e89997a0edc321-element-11" class="color_0.3" fill="#D4CA3A"/>
      <rect x="184.85" y="36.49" width="1.81" height="1.81" id="fig-92df4f0452314d7084e89997a0edc321-element-12" class="color_0.4" fill="#FF5EA0"/>
    </g>
    <g fill="#362A35" font-size="3.88" font-family="'PT Sans','Helvetica Neue','Helvetica',sans-serif" stroke="none" id="fig-92df4f0452314d7084e89997a0edc321-element-13">
      <text x="184.85" y="26.32" id="fig-92df4f0452314d7084e89997a0edc321-element-14">Julia ver.</text>
    </g>
  </g>
  <g font-size="3.88" font-family="'PT Sans','Helvetica Neue','Helvetica',sans-serif" fill="#564A55" stroke="none" id="fig-92df4f0452314d7084e89997a0edc321-element-15">
    <text x="8.81" y="29.96" text-anchor="middle" dy="0.35em" transform="rotate(-90, 8.81, 31.96)" id="fig-92df4f0452314d7084e89997a0edc321-element-16">Number of Tagged Packages</text>
  </g>
  <g clip-path="url(#fig-92df4f0452314d7084e89997a0edc321-element-18)" id="fig-92df4f0452314d7084e89997a0edc321-element-17">
    <g pointer-events="visible" opacity="1" fill="none" stroke="none" class="guide background" id="fig-92df4f0452314d7084e89997a0edc321-element-19">
      <rect x="19.63" y="5" width="164.22" height="53.91" id="fig-92df4f0452314d7084e89997a0edc321-element-20"/>
    </g>
    <g class="guide ygridlines xfixed" stroke-dasharray="0.5,0.5" stroke-width="0.2" stroke="#D0D0E0" id="fig-92df4f0452314d7084e89997a0edc321-element-21">
      <path fill="none" d="M19.63,56.92 L 183.85 56.92" id="fig-92df4f0452314d7084e89997a0edc321-element-22"/>
      <path fill="none" d="M19.63,46.93 L 183.85 46.93" id="fig-92df4f0452314d7084e89997a0edc321-element-23"/>
      <path fill="none" d="M19.63,36.95 L 183.85 36.95" id="fig-92df4f0452314d7084e89997a0edc321-element-24"/>
      <path fill="none" d="M19.63,26.97 L 183.85 26.97" id="fig-92df4f0452314d7084e89997a0edc321-element-25"/>
      <path fill="none" d="M19.63,16.98 L 183.85 16.98" id="fig-92df4f0452314d7084e89997a0edc321-element-26"/>
      <path fill="none" d="M19.63,7 L 183.85 7" id="fig-92df4f0452314d7084e89997a0edc321-element-27"/>
    </g>
    <g class="guide xgridlines yfixed" stroke-dasharray="0.5,0.5" stroke-width="0.2" stroke="#D0D0E0" id="fig-92df4f0452314d7084e89997a0edc321-element-28">
      <path fill="none" d="M22.66,5 L 22.66 58.91" id="fig-92df4f0452314d7084e89997a0edc321-element-29"/>
      <path fill="none" d="M40.84,5 L 40.84 58.91" id="fig-92df4f0452314d7084e89997a0edc321-element-30"/>
      <path fill="none" d="M59.63,5 L 59.63 58.91" id="fig-92df4f0452314d7084e89997a0edc321-element-31"/>
      <path fill="none" d="M77.81,5 L 77.81 58.91" id="fig-92df4f0452314d7084e89997a0edc321-element-32"/>
      <path fill="none" d="M96.59,5 L 96.59 58.91" id="fig-92df4f0452314d7084e89997a0edc321-element-33"/>
      <path fill="none" d="M115.38,5 L 115.38 58.91" id="fig-92df4f0452314d7084e89997a0edc321-element-34"/>
      <path fill="none" d="M133.56,5 L 133.56 58.91" id="fig-92df4f0452314d7084e89997a0edc321-element-35"/>
      <path fill="none" d="M152.34,5 L 152.34 58.91" id="fig-92df4f0452314d7084e89997a0edc321-element-36"/>
      <path fill="none" d="M170.52,5 L 170.52 58.91" id="fig-92df4f0452314d7084e89997a0edc321-element-37"/>
    </g>
    <g class="plotpanel" id="fig-92df4f0452314d7084e89997a0edc321-element-38">
      <g stroke-width="0.79" fill="none" class="geometry color_0.4" stroke="#FF5EA0" id="fig-92df4f0452314d7084e89997a0edc321-element-39">
        <path fill="none" d="M103.86,34.15 L 104.47 33.55 105.08 33.36 105.68 33.16 106.29 33.16 106.89 33.16 108.11 32.56 108.71 32.56 109.32 32.36 109.92 32.36 110.53 32.36 111.14 31.76 111.74 31.36 112.35 31.36 113.56 30.96 114.17 30.36 115.38 29.96 115.98 29.96 116.59 29.96 119.01 29.96 120.83 28.76 121.44 28.56 122.04 28.36 122.65 27.96 123.26 27.96 123.86 27.96 124.47 26.37 125.07 26.37 125.68 26.37 126.89 26.17 127.5 26.17 128.1 25.97 128.71 25.97 129.32 25.97 129.92 25.77 130.53 25.77 131.74 25.97 132.35 25.77 132.95 25.77 133.56 25.37 134.16 24.97 134.77 24.97 135.38 24.97 135.98 24.57 137.8 24.17 138.41 24.17 139.01 23.77 139.62 23.57 140.22 23.57 140.83 23.57 141.44 23.17 142.04 23.17 142.65 22.97 143.25 22.77 143.86 22.77 144.47 22.77 145.07 22.77 145.68 22.37 146.28 21.97 146.89 21.97 147.49 21.97 148.1 21.77 148.71 21.77 149.31 21.58 149.92 21.58 150.52 21.18 151.13 20.98 151.74 20.98 152.34 20.78 152.95 20.78 153.55 20.78 154.16 20.78 154.77 20.58 155.37 20.38 157.19 20.38 160.22 19.18 160.83 18.78 161.43 18.78 162.04 18.58 162.64 18.58 163.25 17.98 163.86 17.98 166.28 16.98 166.89 16.98 169.92 16.78 171.13 16.78 171.73 16.38 172.34 16.18 172.95 16.18 173.55 16.18 174.16 15.79 174.76 15.39 176.58 15.19 177.19 14.99 178.4 14.19 179.01 14.19 179.61 14.19 181.43 14.19" id="fig-92df4f0452314d7084e89997a0edc321-element-40"/>
      </g>
      <g stroke-width="0.79" fill="none" class="geometry color_0.3" stroke="#D4CA3A" id="fig-92df4f0452314d7084e89997a0edc321-element-41">
        <path fill="none" d="M21.45,47.73 L 22.06 47.73 22.66 47.53 23.27 47.53 23.87 47.53 24.48 47.53 25.09 47.53 25.69 47.33 26.9 47.33 27.51 47.13 28.72 46.93 29.93 46.53 30.54 46.53 31.75 46.53 32.36 46.33 36.6 45.53 38.42 45.53 39.63 45.53 43.87 45.33 44.48 44.94 45.08 44.74 45.69 44.74 46.3 44.74 46.9 44.74 47.51 44.74 48.11 44.74 48.72 44.74 49.33 44.74 49.93 44.74 50.54 44.14 51.75 43.94 52.35 43.94 52.96 43.94 53.57 43.54 54.17 43.54 54.78 43.54 55.38 43.34 55.99 43.34 56.6 43.34 57.2 43.34 57.81 43.34 58.41 43.14 59.02 43.14 59.63 51.12 60.23 42.94 60.84 42.74 61.44 42.54 65.08 41.34 65.69 41.14 66.29 40.94 66.9 40.74 67.5 40.34 68.11 40.34 68.72 39.94 69.32 39.94 69.93 39.74 70.53 39.54 71.75 39.54 72.35 39.15 72.96 39.15 73.56 39.15 74.17 39.15 74.78 39.15 75.38 38.55 75.99 38.55 77.2 38.35 77.81 37.95 78.41 37.75 79.02 37.55 79.62 37.55 80.23 37.15 81.44 36.95 82.05 36.35 82.65 36.35 83.26 36.35 84.47 35.35 85.68 34.75 86.29 34.75 86.9 34.55 87.5 34.55 89.32 34.35 89.93 34.35 90.53 34.15 91.14 34.15 91.74 34.15 92.35 33.95 92.96 33.75 93.56 33.55 94.77 33.55 95.38 33.55 96.59 33.55 97.2 33.36 97.8 32.76 98.41 32.76 99.62 32.56 100.23 32.56 100.83 32.16 101.44 31.96 102.05 31.76 102.65 31.56 103.26 31.36 103.86 30.96 104.47 30.96 105.08 30.76 105.68 30.56 106.29 30.56 106.89 30.56 108.11 29.96 108.71 29.96 109.32 29.76 109.92 29.76 110.53 29.76 111.14 29.16 111.74 28.96 112.35 28.76 113.56 31.16 114.17 30.56 115.38 30.16 115.98 30.16 116.59 30.16 119.01 30.16 120.83 28.96 121.44 28.76 122.04 28.56 122.65 28.16 123.26 28.16 123.86 28.16 124.47 26.57 125.07 26.57 125.68 26.57 126.89 26.57 127.5 26.37 128.1 26.17 128.71 26.17 129.32 26.17 129.92 25.97 130.53 25.97 131.74 26.17 132.35 25.97 132.95 25.97 133.56 25.57 134.16 21.58 134.77 25.17 135.38 25.17 135.98 24.77 137.8 24.37 138.41 24.37 139.01 23.97 139.62 23.77 140.22 23.77 140.83 23.77 141.44 23.37 142.04 23.37 142.65 23.17 143.25 22.97 143.86 22.97 144.47 22.97 145.07 22.97 145.68 22.77 146.28 22.37 146.89 22.37 147.49 22.37 148.1 22.17 148.71 22.17 149.31 21.97 149.92 21.97 150.52 21.58 151.13 21.38 151.74 21.38 152.34 21.18 152.95 21.18 153.55 21.18 154.16 20.98 154.77 20.98 155.37 20.78 157.19 20.78 160.22 19.78 160.83 19.38 161.43 19.38 162.04 19.18 162.64 19.18 163.25 18.58 163.86 18.58 166.28 17.58 166.89 17.58 169.92 17.38 171.13 17.38 171.73 17.18 172.34 16.98 172.95 16.98 173.55 16.98 174.16 16.58 174.76 16.38 176.58 15.98 177.19 15.79 178.4 15.19 179.01 14.99 179.61 14.99 181.43 14.99" id="fig-92df4f0452314d7084e89997a0edc321-element-42"/>
      </g>
      <g stroke-width="0.79" fill="none" class="geometry color_0.2" stroke="#00BFFF" id="fig-92df4f0452314d7084e89997a0edc321-element-43">
        <path fill="none" d="M21.45,49.93 L 22.06 49.93 22.66 49.73 23.27 49.73 23.87 49.73 24.48 49.73 25.09 49.73 25.69 49.73 26.9 49.73 27.51 49.73 28.72 49.53 29.93 49.33 30.54 49.33 31.75 49.13 32.36 48.93 36.6 48.53 38.42 48.53 39.63 48.53 43.87 48.33 44.48 48.13 45.08 48.13 45.69 48.13 46.3 48.13 46.9 48.13 47.51 48.13 48.11 48.13 48.72 48.13 49.33 48.13 49.93 47.53 50.54 47.53 51.75 47.33 52.35 47.33 52.96 47.33 53.57 47.13 54.17 48.73 54.78 47.73 55.38 47.73 55.99 47.73 56.6 47.73 57.2 47.73 57.81 47.73 58.41 47.73 59.02 47.73 59.63 47.53 60.23 47.53 60.84 47.33 61.44 47.33 65.08 46.33 65.69 46.33 66.29 46.13 66.9 45.93 67.5 45.53 68.11 45.53 68.72 45.53 69.32 45.53 69.93 45.53 70.53 45.33 71.75 45.33 72.35 44.94 72.96 44.94 73.56 44.94 74.17 44.94 74.78 44.94 75.38 44.34 75.99 44.34 77.2 44.14 77.81 43.74 78.41 43.54 79.02 43.34 79.62 43.34 80.23 43.34 81.44 42.94 82.05 42.74 82.65 42.54 83.26 42.54 84.47 42.14 85.68 41.74 86.29 41.74 86.9 41.74 87.5 41.74 89.32 41.74 89.93 41.74 90.53 41.54 91.14 41.54 91.74 41.54 92.35 41.34 92.96 41.34 93.56 41.34 94.77 41.14 95.38 41.14 96.59 41.14 97.2 41.14 97.8 40.54 98.41 40.54 99.62 40.94 100.23 40.94 100.83 40.54 101.44 40.34 102.05 40.34 102.65 39.94 103.26 39.94" id="fig-92df4f0452314d7084e89997a0edc321-element-44"/>
      </g>
    </g>
  </g>
  <g class="guide ylabels" font-size="2.82" font-family="'PT Sans Caption','Helvetica Neue','Helvetica',sans-serif" fill="#6C606B" id="fig-92df4f0452314d7084e89997a0edc321-element-45">
    <text x="18.63" y="56.92" text-anchor="end" dy="0.35em" id="fig-92df4f0452314d7084e89997a0edc321-element-46">250</text>
    <text x="18.63" y="46.93" text-anchor="end" dy="0.35em" id="fig-92df4f0452314d7084e89997a0edc321-element-47">300</text>
    <text x="18.63" y="36.95" text-anchor="end" dy="0.35em" id="fig-92df4f0452314d7084e89997a0edc321-element-48">350</text>
    <text x="18.63" y="26.97" text-anchor="end" dy="0.35em" id="fig-92df4f0452314d7084e89997a0edc321-element-49">400</text>
    <text x="18.63" y="16.98" text-anchor="end" dy="0.35em" id="fig-92df4f0452314d7084e89997a0edc321-element-50">450</text>
    <text x="18.63" y="7" text-anchor="end" dy="0.35em" id="fig-92df4f0452314d7084e89997a0edc321-element-51">500</text>
  </g>
</g>
<defs>
<clipPath id="fig-92df4f0452314d7084e89997a0edc321-element-18">
  <path d="M19.63,5 L 183.85 5 183.85 58.91 19.63 58.91" />
</clipPath
></defs>
</svg>
