<?xml version="1.0" encoding="UTF-8"?>
<svg xmlns="http://www.w3.org/2000/svg"
     xmlns:xlink="http://www.w3.org/1999/xlink"
     xmlns:gadfly="http://www.gadflyjl.org/ns"
     version="1.2"
     width="203.2mm" height="76.2mm" viewBox="0 0 203.2 76.2"
     stroke="none"
     fill="#000000"
     stroke-width="0.3"
     font-size="3.88"
>
<g class="plotroot xscalable yscalable" id="fig-c7e98e879725438c8e1fcc5fa3b9182a-element-1">
  <g font-size="3.88" font-family="'PT Sans','Helvetica Neue','Helvetica',sans-serif" fill="#564A55" stroke="none" id="fig-c7e98e879725438c8e1fcc5fa3b9182a-element-2">
    <text x="101.74" y="68.2" text-anchor="middle">Date</text>
  </g>
  <g class="guide xlabels" font-size="2.82" font-family="'PT Sans Caption','Helvetica Neue','Helvetica',sans-serif" fill="#6C606B" id="fig-c7e98e879725438c8e1fcc5fa3b9182a-element-3">
    <text x="22.81" y="62.59" text-anchor="middle">Apr</text>
    <text x="41.91" y="62.59" text-anchor="middle">May</text>
    <text x="61.64" y="62.59" text-anchor="middle">June</text>
    <text x="80.74" y="62.59" text-anchor="middle">July</text>
    <text x="100.47" y="62.59" text-anchor="middle">Aug</text>
    <text x="120.2" y="62.59" text-anchor="middle">Sept</text>
    <text x="139.3" y="62.59" text-anchor="middle">Oct</text>
    <text x="159.03" y="62.59" text-anchor="middle">Nev</text>
    <text x="178.13" y="62.59" text-anchor="middle">Dec</text>
  </g>
  <g class="guide colorkey" id="fig-c7e98e879725438c8e1fcc5fa3b9182a-element-4">
    <g fill="#4C404B" font-size="2.82" font-family="'PT Sans','Helvetica Neue','Helvetica',sans-serif" id="fig-c7e98e879725438c8e1fcc5fa3b9182a-element-5">
      <text x="187.67" y="30.14" dy="0.35em" id="fig-c7e98e879725438c8e1fcc5fa3b9182a-element-6" class="color_0.2">0.2</text>
      <text x="187.67" y="33.77" dy="0.35em" id="fig-c7e98e879725438c8e1fcc5fa3b9182a-element-7" class="color_0.3">0.3</text>
      <text x="187.67" y="37.4" dy="0.35em" id="fig-c7e98e879725438c8e1fcc5fa3b9182a-element-8" class="color_0.4">0.4</text>
    </g>
    <g stroke="none" id="fig-c7e98e879725438c8e1fcc5fa3b9182a-element-9">
      <rect x="184.85" y="29.24" width="1.81" height="1.81" id="fig-c7e98e879725438c8e1fcc5fa3b9182a-element-10" fill="#00BFFF" class="color_0.2"/>
      <rect x="184.85" y="32.86" width="1.81" height="1.81" id="fig-c7e98e879725438c8e1fcc5fa3b9182a-element-11" fill="#D4CA3A" class="color_0.3"/>
      <rect x="184.85" y="36.49" width="1.81" height="1.81" id="fig-c7e98e879725438c8e1fcc5fa3b9182a-element-12" fill="#FF5EA0" class="color_0.4"/>
    </g>
    <g fill="#362A35" font-size="3.88" font-family="'PT Sans','Helvetica Neue','Helvetica',sans-serif" stroke="none" id="fig-c7e98e879725438c8e1fcc5fa3b9182a-element-13">
      <text x="184.85" y="26.32" id="fig-c7e98e879725438c8e1fcc5fa3b9182a-element-14">Julia ver.</text>
    </g>
  </g>
  <g font-size="3.88" font-family="'PT Sans','Helvetica Neue','Helvetica',sans-serif" fill="#564A55" stroke="none" id="fig-c7e98e879725438c8e1fcc5fa3b9182a-element-15">
    <text x="8.81" y="29.96" text-anchor="middle" dy="0.35em" transform="rotate(-90, 8.81, 31.96)" id="fig-c7e98e879725438c8e1fcc5fa3b9182a-element-16">Number of Tagged Packages</text>
  </g>
  <g clip-path="url(#fig-c7e98e879725438c8e1fcc5fa3b9182a-element-18)" id="fig-c7e98e879725438c8e1fcc5fa3b9182a-element-17">
    <g pointer-events="visible" opacity="1" fill="none" stroke="none" class="guide background" id="fig-c7e98e879725438c8e1fcc5fa3b9182a-element-19">
      <rect x="19.63" y="5" width="164.22" height="53.91" id="fig-c7e98e879725438c8e1fcc5fa3b9182a-element-20"/>
    </g>
    <g class="guide ygridlines xfixed" stroke-dasharray="0.5,0.5" stroke-width="0.2" stroke="#D0D0E0" id="fig-c7e98e879725438c8e1fcc5fa3b9182a-element-21">
      <path fill="none" d="M19.63,56.91 L 183.85 56.91" id="fig-c7e98e879725438c8e1fcc5fa3b9182a-element-22"/>
      <path fill="none" d="M19.63,44.44 L 183.85 44.44" id="fig-c7e98e879725438c8e1fcc5fa3b9182a-element-23"/>
      <path fill="none" d="M19.63,31.96 L 183.85 31.96" id="fig-c7e98e879725438c8e1fcc5fa3b9182a-element-24"/>
      <path fill="none" d="M19.63,19.48 L 183.85 19.48" id="fig-c7e98e879725438c8e1fcc5fa3b9182a-element-25"/>
      <path fill="none" d="M19.63,7 L 183.85 7" id="fig-c7e98e879725438c8e1fcc5fa3b9182a-element-26"/>
    </g>
    <g class="guide xgridlines yfixed" stroke-dasharray="0.5,0.5" stroke-width="0.2" stroke="#D0D0E0" id="fig-c7e98e879725438c8e1fcc5fa3b9182a-element-27">
      <path fill="none" d="M22.81,5 L 22.81 58.91" id="fig-c7e98e879725438c8e1fcc5fa3b9182a-element-28"/>
      <path fill="none" d="M41.91,5 L 41.91 58.91" id="fig-c7e98e879725438c8e1fcc5fa3b9182a-element-29"/>
      <path fill="none" d="M61.64,5 L 61.64 58.91" id="fig-c7e98e879725438c8e1fcc5fa3b9182a-element-30"/>
      <path fill="none" d="M80.74,5 L 80.74 58.91" id="fig-c7e98e879725438c8e1fcc5fa3b9182a-element-31"/>
      <path fill="none" d="M100.47,5 L 100.47 58.91" id="fig-c7e98e879725438c8e1fcc5fa3b9182a-element-32"/>
      <path fill="none" d="M120.2,5 L 120.2 58.91" id="fig-c7e98e879725438c8e1fcc5fa3b9182a-element-33"/>
      <path fill="none" d="M139.3,5 L 139.3 58.91" id="fig-c7e98e879725438c8e1fcc5fa3b9182a-element-34"/>
      <path fill="none" d="M159.03,5 L 159.03 58.91" id="fig-c7e98e879725438c8e1fcc5fa3b9182a-element-35"/>
      <path fill="none" d="M178.13,5 L 178.13 58.91" id="fig-c7e98e879725438c8e1fcc5fa3b9182a-element-36"/>
    </g>
    <g class="plotpanel" id="fig-c7e98e879725438c8e1fcc5fa3b9182a-element-37">
      <g stroke-width="0.79" fill="none" class="geometry color_0.4" stroke="#FF5EA0" id="fig-c7e98e879725438c8e1fcc5fa3b9182a-element-38">
        <path fill="none" d="M108.11,28.46 L 108.74 27.71 109.38 27.47 110.02 27.22 110.65 27.22 111.29 27.22 112.56 26.47 113.2 26.47 113.84 26.22 114.47 26.22 115.11 26.22 115.75 25.47 116.38 24.97 117.02 24.97 118.29 24.47 118.93 23.72 120.2 23.22 120.84 23.22 121.48 23.22 124.02 23.22 125.93 21.72 126.57 21.48 127.2 21.23 127.84 20.73 128.48 20.73 129.11 20.73 129.75 18.73 130.39 18.73 131.02 18.73 132.3 18.48 132.93 18.48 133.57 18.23 134.21 18.23 134.84 18.23 135.48 17.98 136.12 17.98 137.39 18.23 138.02 17.98 138.66 17.98 139.3 17.48 139.93 16.98 140.57 16.98 141.21 16.98 141.84 16.48 143.75 15.98 144.39 15.98 145.03 15.49 145.66 15.24 146.3 15.24 146.94 15.24 147.57 14.74 148.21 14.74 148.85 14.49 149.48 14.24 150.12 14.24 150.76 14.24 151.39 14.24 152.03 13.74 152.66 13.24 153.3 13.24 153.94 13.24 154.57 12.99 155.21 12.99 155.85 12.74 156.48 12.74 157.12 12.24 157.76 11.99 158.39 11.99 159.03 11.74 159.67 11.74 160.3 11.74 160.94 11.74 161.58 11.49 162.21 11.24 164.12 11.24 167.3 9.75 167.94 9.25 168.58 9.25 169.21 9 169.85 9 170.49 8.25 171.12 8.25 173.67 7 174.31 7 177.49 6.75 178.76 6.75 179.4 6.25 180.04 6 180.67 6 181.31 6 181.94 5.5" id="fig-c7e98e879725438c8e1fcc5fa3b9182a-element-39"/>
      </g>
      <g stroke-width="0.79" fill="none" class="geometry color_0.3" stroke="#D4CA3A" id="fig-c7e98e879725438c8e1fcc5fa3b9182a-element-40">
        <path fill="none" d="M21.54,45.43 L 22.18 45.43 22.81 45.18 23.45 45.18 24.09 45.18 24.72 45.18 25.36 45.18 26 44.94 27.27 44.94 27.91 44.69 29.18 44.44 30.45 43.94 31.09 43.94 32.36 43.94 33 43.69 37.45 42.69 39.36 42.69 40.64 42.69 45.09 42.44 45.73 41.94 46.37 41.69 47 41.69 47.64 41.69 48.28 41.69 48.91 41.69 49.55 41.69 50.18 41.69 50.82 41.69 51.46 41.69 52.09 40.94 53.37 40.69 54 40.69 54.64 40.69 55.28 40.19 55.91 40.19 56.55 40.19 57.19 39.94 57.82 39.94 58.46 39.94 59.1 39.94 59.73 39.94 60.37 39.69 61.01 39.69 61.64 49.68 62.28 39.44 62.92 39.2 63.55 38.95 67.37 37.45 68.01 37.2 68.64 36.95 69.28 36.7 69.92 36.2 70.55 36.2 71.19 35.7 71.83 35.7 72.46 35.45 73.1 35.2 74.37 35.2 75.01 34.7 75.65 34.7 76.28 34.7 76.92 34.7 77.56 34.7 78.19 33.95 78.83 33.95 80.1 33.7 80.74 33.21 81.37 32.96 82.01 32.71 82.65 32.71 83.28 32.21 84.56 31.96 85.19 31.21 85.83 31.21 86.47 31.21 87.74 29.96 89.01 29.21 89.65 29.21 90.29 28.96 90.92 28.96 92.83 28.71 93.47 28.71 94.1 28.46 94.74 28.46 95.38 28.46 96.01 28.21 96.65 27.96 97.29 27.71 98.56 27.71 99.2 27.71 100.47 27.71 101.11 27.47 101.74 26.72 102.38 26.72 103.65 26.47 104.29 26.47 104.93 25.97 105.56 25.72 106.2 25.47 106.84 25.22 107.47 24.97 108.11 24.47 108.74 24.47 109.38 24.22 110.02 23.97 110.65 23.97 111.29 23.97 112.56 23.22 113.2 23.22 113.84 22.97 114.47 22.97 115.11 22.97 115.75 22.22 116.38 21.97 117.02 21.72 118.29 24.72 118.93 23.97 120.2 23.47 120.84 23.47 121.48 23.47 124.02 23.47 125.93 21.97 126.57 21.72 127.2 21.48 127.84 20.98 128.48 20.98 129.11 20.98 129.75 18.98 130.39 18.98 131.02 18.98 132.3 18.98 132.93 18.73 133.57 18.48 134.21 18.48 134.84 18.48 135.48 18.23 136.12 18.23 137.39 18.48 138.02 18.23 138.66 18.23 139.3 17.73 139.93 12.74 140.57 17.23 141.21 17.23 141.84 16.73 143.75 16.23 144.39 16.23 145.03 15.74 145.66 15.49 146.3 15.49 146.94 15.49 147.57 14.99 148.21 14.99 148.85 14.74 149.48 14.49 150.12 14.49 150.76 14.49 151.39 14.49 152.03 14.24 152.66 13.74 153.3 13.74 153.94 13.74 154.57 13.49 155.21 13.49 155.85 13.24 156.48 13.24 157.12 12.74 157.76 12.49 158.39 12.49 159.03 12.24 159.67 12.24 160.3 12.24 160.94 11.99 161.58 11.99 162.21 11.74 164.12 11.74 167.3 10.49 167.94 9.99 168.58 9.99 169.21 9.75 169.85 9.75 170.49 9 171.12 9 173.67 7.75 174.31 7.75 177.49 7.5 178.76 7.5 179.4 7.25 180.04 7 180.67 7 181.31 7 181.94 6.5" id="fig-c7e98e879725438c8e1fcc5fa3b9182a-element-41"/>
      </g>
      <g stroke-width="0.79" fill="none" class="geometry color_0.2" stroke="#00BFFF" id="fig-c7e98e879725438c8e1fcc5fa3b9182a-element-42">
        <path fill="none" d="M21.54,48.18 L 22.18 48.18 22.81 47.93 23.45 47.93 24.09 47.93 24.72 47.93 25.36 47.93 26 47.93 27.27 47.93 27.91 47.93 29.18 47.68 30.45 47.43 31.09 47.43 32.36 47.18 33 46.93 37.45 46.43 39.36 46.43 40.64 46.43 45.09 46.18 45.73 45.93 46.37 45.93 47 45.93 47.64 45.93 48.28 45.93 48.91 45.93 49.55 45.93 50.18 45.93 50.82 45.93 51.46 45.18 52.09 45.18 53.37 44.94 54 44.94 54.64 44.94 55.28 44.69 55.91 46.68 56.55 45.43 57.19 45.43 57.82 45.43 58.46 45.43 59.1 45.43 59.73 45.43 60.37 45.43 61.01 45.43 61.64 45.18 62.28 45.18 62.92 44.94 63.55 44.94 67.37 43.69 68.01 43.69 68.64 43.44 69.28 43.19 69.92 42.69 70.55 42.69 71.19 42.69 71.83 42.69 72.46 42.69 73.1 42.44 74.37 42.44 75.01 41.94 75.65 41.94 76.28 41.94 76.92 41.94 77.56 41.94 78.19 41.19 78.83 41.19 80.1 40.94 80.74 40.44 81.37 40.19 82.01 39.94 82.65 39.94 83.28 39.94 84.56 39.44 85.19 39.2 85.83 38.95 86.47 38.95 87.74 38.45 89.01 37.95 89.65 37.95 90.29 37.95 90.92 37.95 92.83 37.95 93.47 37.95 94.1 37.7 94.74 37.7 95.38 37.7 96.01 37.45 96.65 37.45 97.29 37.45 98.56 37.2 99.2 37.2 100.47 37.2 101.11 37.2 101.74 36.45 102.38 36.45 103.65 36.95 104.29 36.95 104.93 36.45 105.56 36.2 106.2 36.2 106.84 35.7 107.47 35.7" id="fig-c7e98e879725438c8e1fcc5fa3b9182a-element-43"/>
      </g>
    </g>
  </g>
  <g class="guide ylabels" font-size="2.82" font-family="'PT Sans Caption','Helvetica Neue','Helvetica',sans-serif" fill="#6C606B" id="fig-c7e98e879725438c8e1fcc5fa3b9182a-element-44">
    <text x="18.63" y="56.91" text-anchor="end" dy="0.35em" id="fig-c7e98e879725438c8e1fcc5fa3b9182a-element-45">250</text>
    <text x="18.63" y="44.44" text-anchor="end" dy="0.35em" id="fig-c7e98e879725438c8e1fcc5fa3b9182a-element-46">300</text>
    <text x="18.63" y="31.96" text-anchor="end" dy="0.35em" id="fig-c7e98e879725438c8e1fcc5fa3b9182a-element-47">350</text>
    <text x="18.63" y="19.48" text-anchor="end" dy="0.35em" id="fig-c7e98e879725438c8e1fcc5fa3b9182a-element-48">400</text>
    <text x="18.63" y="7" text-anchor="end" dy="0.35em" id="fig-c7e98e879725438c8e1fcc5fa3b9182a-element-49">450</text>
  </g>
</g>
<defs>
<clipPath id="fig-c7e98e879725438c8e1fcc5fa3b9182a-element-18">
  <path d="M19.63,5 L 183.85 5 183.85 58.91 19.63 58.91" />
</clipPath
></defs>
</svg>
