<?xml version="1.0" encoding="UTF-8"?>
<svg xmlns="http://www.w3.org/2000/svg"
     xmlns:xlink="http://www.w3.org/1999/xlink"
     xmlns:gadfly="http://www.gadflyjl.org/ns"
     version="1.2"
     width="203.2mm" height="76.2mm" viewBox="0 0 203.2 76.2"
     stroke="none"
     fill="#000000"
     stroke-width="0.3"
     font-size="3.88"
>
<g class="plotroot xscalable yscalable" id="fig-e74920a5c81d4b7db549695b0602b441-element-1">
  <g font-size="3.88" font-family="'PT Sans','Helvetica Neue','Helvetica',sans-serif" fill="#564A55" stroke="none" id="fig-e74920a5c81d4b7db549695b0602b441-element-2">
    <text x="101.74" y="68.2" text-anchor="middle">Date</text>
  </g>
  <g class="guide xlabels" font-size="2.82" font-family="'PT Sans Caption','Helvetica Neue','Helvetica',sans-serif" fill="#6C606B" id="fig-e74920a5c81d4b7db549695b0602b441-element-3">
    <text x="23.42" y="62.59" text-anchor="middle">Apr</text>
    <text x="46.12" y="62.59" text-anchor="middle">May</text>
    <text x="69.58" y="62.59" text-anchor="middle">June</text>
    <text x="92.28" y="62.59" text-anchor="middle">July</text>
    <text x="115.74" y="62.59" text-anchor="middle">Aug</text>
    <text x="139.2" y="62.59" text-anchor="middle">Sept</text>
    <text x="161.91" y="62.59" text-anchor="middle">Oct</text>
  </g>
  <g class="guide colorkey" id="fig-e74920a5c81d4b7db549695b0602b441-element-4">
    <g fill="#4C404B" font-size="2.82" font-family="'PT Sans','Helvetica Neue','Helvetica',sans-serif" id="fig-e74920a5c81d4b7db549695b0602b441-element-5">
      <text x="187.67" y="30.14" dy="0.35em" id="fig-e74920a5c81d4b7db549695b0602b441-element-6" class="color_0.2">0.2</text>
      <text x="187.67" y="33.77" dy="0.35em" id="fig-e74920a5c81d4b7db549695b0602b441-element-7" class="color_0.3">0.3</text>
      <text x="187.67" y="37.4" dy="0.35em" id="fig-e74920a5c81d4b7db549695b0602b441-element-8" class="color_0.4">0.4</text>
    </g>
    <g stroke="none" id="fig-e74920a5c81d4b7db549695b0602b441-element-9">
      <rect x="184.85" y="29.24" width="1.81" height="1.81" id="fig-e74920a5c81d4b7db549695b0602b441-element-10" class="color_0.2" fill="#00BFFF"/>
      <rect x="184.85" y="32.86" width="1.81" height="1.81" id="fig-e74920a5c81d4b7db549695b0602b441-element-11" class="color_0.3" fill="#D4CA3A"/>
      <rect x="184.85" y="36.49" width="1.81" height="1.81" id="fig-e74920a5c81d4b7db549695b0602b441-element-12" class="color_0.4" fill="#FF5EA0"/>
    </g>
    <g fill="#362A35" font-size="3.88" font-family="'PT Sans','Helvetica Neue','Helvetica',sans-serif" stroke="none" id="fig-e74920a5c81d4b7db549695b0602b441-element-13">
      <text x="184.85" y="26.32" id="fig-e74920a5c81d4b7db549695b0602b441-element-14">Julia ver.</text>
    </g>
  </g>
  <g font-size="3.88" font-family="'PT Sans','Helvetica Neue','Helvetica',sans-serif" fill="#564A55" stroke="none" id="fig-e74920a5c81d4b7db549695b0602b441-element-15">
    <text x="8.81" y="29.96" text-anchor="middle" dy="0.35em" transform="rotate(-90, 8.81, 31.96)" id="fig-e74920a5c81d4b7db549695b0602b441-element-16">Number of Tagged Packages</text>
  </g>
  <g clip-path="url(#fig-e74920a5c81d4b7db549695b0602b441-element-18)" id="fig-e74920a5c81d4b7db549695b0602b441-element-17">
    <g pointer-events="visible" opacity="1" fill="none" stroke="none" class="guide background" id="fig-e74920a5c81d4b7db549695b0602b441-element-19">
      <rect x="19.63" y="5" width="164.22" height="53.91" id="fig-e74920a5c81d4b7db549695b0602b441-element-20"/>
    </g>
    <g class="guide ygridlines xfixed" stroke-dasharray="0.5,0.5" stroke-width="0.2" stroke="#D0D0E0" id="fig-e74920a5c81d4b7db549695b0602b441-element-21">
      <path fill="none" d="M19.63,56.91 L 183.85 56.91" id="fig-e74920a5c81d4b7db549695b0602b441-element-22"/>
      <path fill="none" d="M19.63,44.44 L 183.85 44.44" id="fig-e74920a5c81d4b7db549695b0602b441-element-23"/>
      <path fill="none" d="M19.63,31.96 L 183.85 31.96" id="fig-e74920a5c81d4b7db549695b0602b441-element-24"/>
      <path fill="none" d="M19.63,19.48 L 183.85 19.48" id="fig-e74920a5c81d4b7db549695b0602b441-element-25"/>
      <path fill="none" d="M19.63,7 L 183.85 7" id="fig-e74920a5c81d4b7db549695b0602b441-element-26"/>
    </g>
    <g class="guide xgridlines yfixed" stroke-dasharray="0.5,0.5" stroke-width="0.2" stroke="#D0D0E0" id="fig-e74920a5c81d4b7db549695b0602b441-element-27">
      <path fill="none" d="M23.42,5 L 23.42 58.91" id="fig-e74920a5c81d4b7db549695b0602b441-element-28"/>
      <path fill="none" d="M46.12,5 L 46.12 58.91" id="fig-e74920a5c81d4b7db549695b0602b441-element-29"/>
      <path fill="none" d="M69.58,5 L 69.58 58.91" id="fig-e74920a5c81d4b7db549695b0602b441-element-30"/>
      <path fill="none" d="M92.28,5 L 92.28 58.91" id="fig-e74920a5c81d4b7db549695b0602b441-element-31"/>
      <path fill="none" d="M115.74,5 L 115.74 58.91" id="fig-e74920a5c81d4b7db549695b0602b441-element-32"/>
      <path fill="none" d="M139.2,5 L 139.2 58.91" id="fig-e74920a5c81d4b7db549695b0602b441-element-33"/>
      <path fill="none" d="M161.91,5 L 161.91 58.91" id="fig-e74920a5c81d4b7db549695b0602b441-element-34"/>
    </g>
    <g class="plotpanel" id="fig-e74920a5c81d4b7db549695b0602b441-element-35">
      <g stroke-width="0.79" fill="none" class="geometry color_0.4" stroke="#FF5EA0" id="fig-e74920a5c81d4b7db549695b0602b441-element-36">
        <path fill="none" d="M124.82,28.46 L 125.58 27.71 126.34 27.47 127.1 27.22 127.85 27.22 128.61 27.22 130.12 26.47 130.88 26.47 131.64 26.22 132.39 26.22 133.15 26.22 133.91 25.47 134.66 24.97 135.42 24.97 136.93 24.47 137.69 23.72 139.2 23.22 139.96 23.22 140.72 23.22 143.74 23.22 146.01 21.72 146.77 21.48 147.53 21.23 148.29 20.73 149.04 20.73 149.8 20.73 150.56 18.73 151.31 18.73 152.07 18.73 153.58 18.48 154.34 18.48 155.1 18.23 155.85 18.23 156.61 18.23 157.37 17.98 158.12 17.98 159.64 18.23 160.39 17.98 161.15 17.98 161.91 17.48 162.66 16.98 163.42 16.98 164.18 16.98 164.93 16.48 167.2 15.98 167.96 15.98 168.72 15.49 169.48 15.24 170.23 15.24 170.99 15.24 171.75 14.74 172.5 14.74 173.26 14.49 174.02 14.24 174.77 14.24 175.53 14.24 176.29 14.24 177.04 13.74 177.8 13.24 178.56 13.24 179.31 13.24 180.07 12.99 180.83 12.99 181.58 12.74 182.34 12.74" id="fig-e74920a5c81d4b7db549695b0602b441-element-37"/>
      </g>
      <g stroke-width="0.79" fill="none" class="geometry color_0.3" stroke="#D4CA3A" id="fig-e74920a5c81d4b7db549695b0602b441-element-38">
        <path fill="none" d="M21.9,45.43 L 22.66 45.43 23.42 45.18 24.17 45.18 24.93 45.18 25.69 45.18 26.44 45.18 27.2 44.94 28.71 44.94 29.47 44.69 30.98 44.44 32.5 43.94 33.25 43.94 34.77 43.94 35.52 43.69 40.82 42.69 43.09 42.69 44.61 42.69 49.9 42.44 50.66 41.94 51.42 41.69 52.17 41.69 52.93 41.69 53.69 41.69 54.44 41.69 55.2 41.69 55.96 41.69 56.71 41.69 57.47 41.69 58.23 40.94 59.74 40.69 60.5 40.69 61.25 40.69 62.01 40.19 62.77 40.19 63.53 40.19 64.28 39.94 65.04 39.94 65.8 39.94 66.55 39.94 67.31 39.94 68.07 39.69 68.82 39.69 69.58 49.68 70.34 39.44 71.09 39.2 71.85 38.95 76.39 37.45 77.15 37.2 77.9 36.95 78.66 36.7 79.42 36.2 80.17 36.2 80.93 35.7 81.69 35.7 82.44 35.45 83.2 35.2 84.72 35.2 85.47 34.7 86.23 34.7 86.99 34.7 87.74 34.7 88.5 34.7 89.26 33.95 90.01 33.95 91.53 33.7 92.28 33.21 93.04 32.96 93.8 32.71 94.55 32.71 95.31 32.21 96.82 31.96 97.58 31.21 98.34 31.21 99.09 31.21 100.61 29.96 102.12 29.21 102.88 29.21 103.63 28.96 104.39 28.96 106.66 28.71 107.42 28.71 108.18 28.46 108.93 28.46 109.69 28.46 110.45 28.21 111.2 27.96 111.96 27.71 113.47 27.71 114.23 27.71 115.74 27.71 116.5 27.47 117.26 26.72 118.01 26.72 119.53 26.47 120.28 26.47 121.04 25.97 121.8 25.72 122.55 25.47 123.31 25.22 124.07 24.97 124.82 24.47 125.58 24.47 126.34 24.22 127.1 23.97 127.85 23.97 128.61 23.97 130.12 23.22 130.88 23.22 131.64 22.97 132.39 22.97 133.15 22.97 133.91 22.22 134.66 21.97 135.42 21.72 136.93 24.72 137.69 23.97 139.2 23.47 139.96 23.47 140.72 23.47 143.74 23.47 146.01 21.97 146.77 21.72 147.53 21.48 148.29 20.98 149.04 20.98 149.8 20.98 150.56 18.98 151.31 18.98 152.07 18.98 153.58 18.98 154.34 18.73 155.1 18.48 155.85 18.48 156.61 18.48 157.37 18.23 158.12 18.23 159.64 18.48 160.39 18.23 161.15 18.23 161.91 17.73 162.66 12.74 163.42 17.23 164.18 17.23 164.93 16.73 167.2 16.23 167.96 16.23 168.72 15.74 169.48 15.49 170.23 15.49 170.99 15.49 171.75 14.99 172.5 14.99 173.26 14.74 174.02 14.49 174.77 14.49 175.53 14.49 176.29 14.49 177.04 14.24 177.8 13.74 178.56 13.74 179.31 13.74 180.07 13.49 180.83 13.49 181.58 13.24 182.34 13.24" id="fig-e74920a5c81d4b7db549695b0602b441-element-39"/>
      </g>
      <g stroke-width="0.79" fill="none" class="geometry color_0.2" stroke="#00BFFF" id="fig-e74920a5c81d4b7db549695b0602b441-element-40">
        <path fill="none" d="M21.9,48.18 L 22.66 48.18 23.42 47.93 24.17 47.93 24.93 47.93 25.69 47.93 26.44 47.93 27.2 47.93 28.71 47.93 29.47 47.93 30.98 47.68 32.5 47.43 33.25 47.43 34.77 47.18 35.52 46.93 40.82 46.43 43.09 46.43 44.61 46.43 49.9 46.18 50.66 45.93 51.42 45.93 52.17 45.93 52.93 45.93 53.69 45.93 54.44 45.93 55.2 45.93 55.96 45.93 56.71 45.93 57.47 45.18 58.23 45.18 59.74 44.94 60.5 44.94 61.25 44.94 62.01 44.69 62.77 46.68 63.53 45.43 64.28 45.43 65.04 45.43 65.8 45.43 66.55 45.43 67.31 45.43 68.07 45.43 68.82 45.43 69.58 45.18 70.34 45.18 71.09 44.94 71.85 44.94 76.39 43.69 77.15 43.69 77.9 43.44 78.66 43.19 79.42 42.69 80.17 42.69 80.93 42.69 81.69 42.69 82.44 42.69 83.2 42.44 84.72 42.44 85.47 41.94 86.23 41.94 86.99 41.94 87.74 41.94 88.5 41.94 89.26 41.19 90.01 41.19 91.53 40.94 92.28 40.44 93.04 40.19 93.8 39.94 94.55 39.94 95.31 39.94 96.82 39.44 97.58 39.2 98.34 38.95 99.09 38.95 100.61 38.45 102.12 37.95 102.88 37.95 103.63 37.95 104.39 37.95 106.66 37.95 107.42 37.95 108.18 37.7 108.93 37.7 109.69 37.7 110.45 37.45 111.2 37.45 111.96 37.45 113.47 37.2 114.23 37.2 115.74 37.2 116.5 37.2 117.26 36.45 118.01 36.45 119.53 36.95 120.28 36.95 121.04 36.45 121.8 36.2 122.55 36.2 123.31 35.7 124.07 35.7" id="fig-e74920a5c81d4b7db549695b0602b441-element-41"/>
      </g>
    </g>
  </g>
  <g class="guide ylabels" font-size="2.82" font-family="'PT Sans Caption','Helvetica Neue','Helvetica',sans-serif" fill="#6C606B" id="fig-e74920a5c81d4b7db549695b0602b441-element-42">
    <text x="18.63" y="56.91" text-anchor="end" dy="0.35em" id="fig-e74920a5c81d4b7db549695b0602b441-element-43">250</text>
    <text x="18.63" y="44.44" text-anchor="end" dy="0.35em" id="fig-e74920a5c81d4b7db549695b0602b441-element-44">300</text>
    <text x="18.63" y="31.96" text-anchor="end" dy="0.35em" id="fig-e74920a5c81d4b7db549695b0602b441-element-45">350</text>
    <text x="18.63" y="19.48" text-anchor="end" dy="0.35em" id="fig-e74920a5c81d4b7db549695b0602b441-element-46">400</text>
    <text x="18.63" y="7" text-anchor="end" dy="0.35em" id="fig-e74920a5c81d4b7db549695b0602b441-element-47">450</text>
  </g>
</g>
<defs>
<clipPath id="fig-e74920a5c81d4b7db549695b0602b441-element-18">
  <path d="M19.63,5 L 183.85 5 183.85 58.91 19.63 58.91" />
</clipPath
></defs>
</svg>
