<?xml version="1.0" encoding="UTF-8"?>
<svg xmlns="http://www.w3.org/2000/svg"
     xmlns:xlink="http://www.w3.org/1999/xlink"
     xmlns:gadfly="http://www.gadflyjl.org/ns"
     version="1.2"
     width="203.2mm" height="76.2mm" viewBox="0 0 203.2 76.2"
     stroke="none"
     fill="#000000"
     stroke-width="0.3"
     font-size="3.88"
>
<g class="plotroot xscalable yscalable" id="fig-8d6310039e7c47ffbe8b17d2482e9e02-element-1">
  <g font-size="3.88" font-family="'PT Sans','Helvetica Neue','Helvetica',sans-serif" fill="#564A55" stroke="none" id="fig-8d6310039e7c47ffbe8b17d2482e9e02-element-2">
    <text x="101.74" y="68.2" text-anchor="middle">Date</text>
  </g>
  <g class="guide xlabels" font-size="2.82" font-family="'PT Sans Caption','Helvetica Neue','Helvetica',sans-serif" fill="#6C606B" id="fig-8d6310039e7c47ffbe8b17d2482e9e02-element-3">
    <text x="23.02" y="62.59" text-anchor="middle">Apr</text>
    <text x="48.41" y="62.59" text-anchor="middle">May</text>
    <text x="74.65" y="62.59" text-anchor="middle">June</text>
    <text x="100.05" y="62.59" text-anchor="middle">July</text>
    <text x="126.29" y="62.59" text-anchor="middle">Aug</text>
    <text x="152.53" y="62.59" text-anchor="middle">Sept</text>
    <text x="177.93" y="62.59" text-anchor="middle">Oct</text>
  </g>
  <g class="guide colorkey" id="fig-8d6310039e7c47ffbe8b17d2482e9e02-element-4">
    <g fill="#4C404B" font-size="2.82" font-family="'PT Sans','Helvetica Neue','Helvetica',sans-serif" id="fig-8d6310039e7c47ffbe8b17d2482e9e02-element-5">
      <text x="187.67" y="30.14" dy="0.35em" id="fig-8d6310039e7c47ffbe8b17d2482e9e02-element-6" class="color_0.2">0.2</text>
      <text x="187.67" y="33.77" dy="0.35em" id="fig-8d6310039e7c47ffbe8b17d2482e9e02-element-7" class="color_0.3">0.3</text>
      <text x="187.67" y="37.4" dy="0.35em" id="fig-8d6310039e7c47ffbe8b17d2482e9e02-element-8" class="color_0.4">0.4</text>
    </g>
    <g stroke="none" id="fig-8d6310039e7c47ffbe8b17d2482e9e02-element-9">
      <rect x="184.85" y="29.24" width="1.81" height="1.81" id="fig-8d6310039e7c47ffbe8b17d2482e9e02-element-10" fill="#00BFFF" class="color_0.2"/>
      <rect x="184.85" y="32.86" width="1.81" height="1.81" id="fig-8d6310039e7c47ffbe8b17d2482e9e02-element-11" fill="#D4CA3A" class="color_0.3"/>
      <rect x="184.85" y="36.49" width="1.81" height="1.81" id="fig-8d6310039e7c47ffbe8b17d2482e9e02-element-12" fill="#FF5EA0" class="color_0.4"/>
    </g>
    <g fill="#362A35" font-size="3.88" font-family="'PT Sans','Helvetica Neue','Helvetica',sans-serif" stroke="none" id="fig-8d6310039e7c47ffbe8b17d2482e9e02-element-13">
      <text x="184.85" y="26.32" id="fig-8d6310039e7c47ffbe8b17d2482e9e02-element-14">Julia ver.</text>
    </g>
  </g>
  <g clip-path="url(#fig-8d6310039e7c47ffbe8b17d2482e9e02-element-16)" id="fig-8d6310039e7c47ffbe8b17d2482e9e02-element-15">
    <g pointer-events="visible" opacity="1" fill="none" stroke="none" class="guide background" id="fig-8d6310039e7c47ffbe8b17d2482e9e02-element-17">
      <rect x="19.63" y="5" width="164.22" height="53.91" id="fig-8d6310039e7c47ffbe8b17d2482e9e02-element-18"/>
    </g>
    <g class="guide ygridlines xfixed" stroke-dasharray="0.5,0.5" stroke-width="0.2" stroke="#D0D0E0" id="fig-8d6310039e7c47ffbe8b17d2482e9e02-element-19">
      <path fill="none" d="M19.63,56.91 L 183.85 56.91" id="fig-8d6310039e7c47ffbe8b17d2482e9e02-element-20"/>
      <path fill="none" d="M19.63,44.44 L 183.85 44.44" id="fig-8d6310039e7c47ffbe8b17d2482e9e02-element-21"/>
      <path fill="none" d="M19.63,31.96 L 183.85 31.96" id="fig-8d6310039e7c47ffbe8b17d2482e9e02-element-22"/>
      <path fill="none" d="M19.63,19.48 L 183.85 19.48" id="fig-8d6310039e7c47ffbe8b17d2482e9e02-element-23"/>
      <path fill="none" d="M19.63,7 L 183.85 7" id="fig-8d6310039e7c47ffbe8b17d2482e9e02-element-24"/>
    </g>
    <g class="guide xgridlines yfixed" stroke-dasharray="0.5,0.5" stroke-width="0.2" stroke="#D0D0E0" id="fig-8d6310039e7c47ffbe8b17d2482e9e02-element-25">
      <path fill="none" d="M23.02,5 L 23.02 58.91" id="fig-8d6310039e7c47ffbe8b17d2482e9e02-element-26"/>
      <path fill="none" d="M48.41,5 L 48.41 58.91" id="fig-8d6310039e7c47ffbe8b17d2482e9e02-element-27"/>
      <path fill="none" d="M74.65,5 L 74.65 58.91" id="fig-8d6310039e7c47ffbe8b17d2482e9e02-element-28"/>
      <path fill="none" d="M100.05,5 L 100.05 58.91" id="fig-8d6310039e7c47ffbe8b17d2482e9e02-element-29"/>
      <path fill="none" d="M126.29,5 L 126.29 58.91" id="fig-8d6310039e7c47ffbe8b17d2482e9e02-element-30"/>
      <path fill="none" d="M152.53,5 L 152.53 58.91" id="fig-8d6310039e7c47ffbe8b17d2482e9e02-element-31"/>
      <path fill="none" d="M177.93,5 L 177.93 58.91" id="fig-8d6310039e7c47ffbe8b17d2482e9e02-element-32"/>
    </g>
    <g class="plotpanel" id="fig-8d6310039e7c47ffbe8b17d2482e9e02-element-33">
      <g stroke-width="0.79" fill="none" class="geometry color_0.4" stroke="#FF5EA0" id="fig-8d6310039e7c47ffbe8b17d2482e9e02-element-34">
        <path fill="none" d="M136.45,28.46 L 137.3 27.71 138.14 27.47 138.99 27.22 139.84 27.22 140.68 27.22 142.38 26.47 143.22 26.47 144.07 26.22 144.91 26.22 145.76 26.22 146.61 25.47 147.45 24.97 148.3 24.97 149.99 24.47 150.84 23.72 152.53 23.22 153.38 23.22 154.23 23.22 157.61 23.22 160.15 21.72 161 21.48 161.84 21.23 162.69 20.73 163.54 20.73 164.38 20.73 165.23 18.73 166.08 18.73 166.92 18.73 168.62 18.48 169.46 18.48 170.31 18.23 171.16 18.23 172 18.23 172.85 17.98 173.7 17.98 175.39 18.23 176.24 17.98 177.08 17.98 177.93 17.48 178.78 16.98 179.62 16.98 180.47 16.98 181.31 16.48" id="fig-8d6310039e7c47ffbe8b17d2482e9e02-element-35"/>
      </g>
      <g stroke-width="0.79" fill="none" class="geometry color_0.3" stroke="#D4CA3A" id="fig-8d6310039e7c47ffbe8b17d2482e9e02-element-36">
        <path fill="none" d="M21.32,45.43 L 22.17 45.43 23.02 45.18 23.86 45.18 24.71 45.18 25.56 45.18 26.4 45.18 27.25 44.94 28.94 44.94 29.79 44.69 31.48 44.44 33.18 43.94 34.02 43.94 35.72 43.94 36.56 43.69 42.49 42.69 45.03 42.69 46.72 42.69 52.65 42.44 53.49 41.94 54.34 41.69 55.18 41.69 56.03 41.69 56.88 41.69 57.72 41.69 58.57 41.69 59.42 41.69 60.26 41.69 61.11 41.69 61.96 40.94 63.65 40.69 64.5 40.69 65.34 40.69 66.19 40.19 67.04 40.19 67.88 40.19 68.73 39.94 69.58 39.94 70.42 39.94 71.27 39.94 72.12 39.94 72.96 39.69 73.81 39.69 74.65 49.68 75.5 39.44 76.35 39.2 77.19 38.95 82.27 37.45 83.12 37.2 83.97 36.95 84.81 36.7 85.66 36.2 86.51 36.2 87.35 35.7 88.2 35.7 89.05 35.45 89.89 35.2 91.58 35.2 92.43 34.7 93.28 34.7 94.12 34.7 94.97 34.7 95.82 34.7 96.66 33.95 97.51 33.95 99.2 33.7 100.05 33.21 100.9 32.96 101.74 32.71 102.59 32.71 103.44 32.21 105.13 31.96 105.98 31.21 106.82 31.21 107.67 31.21 109.36 29.96 111.05 29.21 111.9 29.21 112.75 28.96 113.59 28.96 116.13 28.71 116.98 28.71 117.83 28.46 118.67 28.46 119.52 28.46 120.37 28.21 121.21 27.96 122.06 27.71 123.75 27.71 124.6 27.71 126.29 27.71 127.14 27.47 127.98 26.72 128.83 26.72 130.52 26.47 131.37 26.47 132.22 25.97 133.06 25.72 133.91 25.47 134.76 25.22 135.6 24.97 136.45 24.47 137.3 24.47 138.14 24.22 138.99 23.97 139.84 23.97 140.68 23.97 142.38 23.22 143.22 23.22 144.07 22.97 144.91 22.97 145.76 22.97 146.61 22.22 147.45 21.97 148.3 21.72 149.99 24.72 150.84 23.97 152.53 23.47 153.38 23.47 154.23 23.47 157.61 23.47 160.15 21.97 161 21.72 161.84 21.48 162.69 20.98 163.54 20.98 164.38 20.98 165.23 18.98 166.08 18.98 166.92 18.98 168.62 18.98 169.46 18.73 170.31 18.48 171.16 18.48 172 18.48 172.85 18.23 173.7 18.23 175.39 18.48 176.24 18.23 177.08 18.23 177.93 17.73 178.78 12.74 179.62 17.23 180.47 17.23 181.31 16.73" id="fig-8d6310039e7c47ffbe8b17d2482e9e02-element-37"/>
      </g>
      <g stroke-width="0.79" fill="none" class="geometry color_0.2" stroke="#00BFFF" id="fig-8d6310039e7c47ffbe8b17d2482e9e02-element-38">
        <path fill="none" d="M21.32,48.18 L 22.17 48.18 23.02 47.93 23.86 47.93 24.71 47.93 25.56 47.93 26.4 47.93 27.25 47.93 28.94 47.93 29.79 47.93 31.48 47.68 33.18 47.43 34.02 47.43 35.72 47.18 36.56 46.93 42.49 46.43 45.03 46.43 46.72 46.43 52.65 46.18 53.49 45.93 54.34 45.93 55.18 45.93 56.03 45.93 56.88 45.93 57.72 45.93 58.57 45.93 59.42 45.93 60.26 45.93 61.11 45.18 61.96 45.18 63.65 44.94 64.5 44.94 65.34 44.94 66.19 44.69 67.04 46.68 67.88 45.43 68.73 45.43 69.58 45.43 70.42 45.43 71.27 45.43 72.12 45.43 72.96 45.43 73.81 45.43 74.65 45.18 75.5 45.18 76.35 44.94 77.19 44.94 82.27 43.69 83.12 43.69 83.97 43.44 84.81 43.19 85.66 42.69 86.51 42.69 87.35 42.69 88.2 42.69 89.05 42.69 89.89 42.44 91.58 42.44 92.43 41.94 93.28 41.94 94.12 41.94 94.97 41.94 95.82 41.94 96.66 41.19 97.51 41.19 99.2 40.94 100.05 40.44 100.9 40.19 101.74 39.94 102.59 39.94 103.44 39.94 105.13 39.44 105.98 39.2 106.82 38.95 107.67 38.95 109.36 38.45 111.05 37.95 111.9 37.95 112.75 37.95 113.59 37.95 116.13 37.95 116.98 37.95 117.83 37.7 118.67 37.7 119.52 37.7 120.37 37.45 121.21 37.45 122.06 37.45 123.75 37.2 124.6 37.2 126.29 37.2 127.14 37.2 127.98 36.45 128.83 36.45 130.52 36.95 131.37 36.95 132.22 36.45 133.06 36.2 133.91 36.2 134.76 35.7 135.6 35.7" id="fig-8d6310039e7c47ffbe8b17d2482e9e02-element-39"/>
      </g>
    </g>
  </g>
  <g class="guide ylabels" font-size="2.82" font-family="'PT Sans Caption','Helvetica Neue','Helvetica',sans-serif" fill="#6C606B" id="fig-8d6310039e7c47ffbe8b17d2482e9e02-element-40">
    <text x="18.63" y="56.91" text-anchor="end" dy="0.35em" id="fig-8d6310039e7c47ffbe8b17d2482e9e02-element-41">250</text>
    <text x="18.63" y="44.44" text-anchor="end" dy="0.35em" id="fig-8d6310039e7c47ffbe8b17d2482e9e02-element-42">300</text>
    <text x="18.63" y="31.96" text-anchor="end" dy="0.35em" id="fig-8d6310039e7c47ffbe8b17d2482e9e02-element-43">350</text>
    <text x="18.63" y="19.48" text-anchor="end" dy="0.35em" id="fig-8d6310039e7c47ffbe8b17d2482e9e02-element-44">400</text>
    <text x="18.63" y="7" text-anchor="end" dy="0.35em" id="fig-8d6310039e7c47ffbe8b17d2482e9e02-element-45">450</text>
  </g>
  <g font-size="3.88" font-family="'PT Sans','Helvetica Neue','Helvetica',sans-serif" fill="#564A55" stroke="none" id="fig-8d6310039e7c47ffbe8b17d2482e9e02-element-46">
    <text x="8.81" y="29.96" text-anchor="middle" dy="0.35em" transform="rotate(-90, 8.81, 31.96)" id="fig-8d6310039e7c47ffbe8b17d2482e9e02-element-47">Number of Tagged Packages</text>
  </g>
</g>
<defs>
<clipPath id="fig-8d6310039e7c47ffbe8b17d2482e9e02-element-16">
  <path d="M19.63,5 L 183.85 5 183.85 58.91 19.63 58.91" />
</clipPath
></defs>
</svg>
