<?xml version="1.0" encoding="UTF-8"?>
<svg xmlns="http://www.w3.org/2000/svg"
     xmlns:xlink="http://www.w3.org/1999/xlink"
     xmlns:gadfly="http://www.gadflyjl.org/ns"
     version="1.2"
     width="203.2mm" height="76.2mm" viewBox="0 0 203.2 76.2"
     stroke="none"
     fill="#000000"
     stroke-width="0.3"
     font-size="3.88"
>
<g class="plotroot xscalable yscalable" id="fig-9b4559f2edfe4759bbefc98291e05847-element-1">
  <g font-size="3.88" font-family="'PT Sans','Helvetica Neue','Helvetica',sans-serif" fill="#564A55" stroke="none" id="fig-9b4559f2edfe4759bbefc98291e05847-element-2">
    <text x="101.74" y="68.2" text-anchor="middle">Date</text>
  </g>
  <g class="guide xlabels" font-size="2.82" font-family="'PT Sans Caption','Helvetica Neue','Helvetica',sans-serif" fill="#6C606B" id="fig-9b4559f2edfe4759bbefc98291e05847-element-3">
    <text x="22.93" y="62.59" text-anchor="middle">Apr</text>
    <text x="39.4" y="62.59" text-anchor="middle">May</text>
    <text x="56.43" y="62.59" text-anchor="middle">Jun</text>
    <text x="72.91" y="62.59" text-anchor="middle">Jul</text>
    <text x="89.93" y="62.59" text-anchor="middle">Aug</text>
    <text x="106.96" y="62.59" text-anchor="middle">Sep</text>
    <text x="123.44" y="62.59" text-anchor="middle">Oct</text>
    <text x="140.46" y="62.59" text-anchor="middle">Nov</text>
    <text x="156.94" y="62.59" text-anchor="middle">Dec</text>
    <text x="173.97" y="62.59" text-anchor="middle">Jan 2015</text>
  </g>
  <g class="guide colorkey" id="fig-9b4559f2edfe4759bbefc98291e05847-element-4">
    <g fill="#4C404B" font-size="2.82" font-family="'PT Sans','Helvetica Neue','Helvetica',sans-serif" id="fig-9b4559f2edfe4759bbefc98291e05847-element-5">
      <text x="187.67" y="30.14" dy="0.35em" id="fig-9b4559f2edfe4759bbefc98291e05847-element-6" class="color_0.2">0.2</text>
      <text x="187.67" y="33.77" dy="0.35em" id="fig-9b4559f2edfe4759bbefc98291e05847-element-7" class="color_0.3">0.3</text>
      <text x="187.67" y="37.4" dy="0.35em" id="fig-9b4559f2edfe4759bbefc98291e05847-element-8" class="color_0.4">0.4</text>
    </g>
    <g stroke="none" id="fig-9b4559f2edfe4759bbefc98291e05847-element-9">
      <rect x="184.85" y="29.24" width="1.81" height="1.81" id="fig-9b4559f2edfe4759bbefc98291e05847-element-10" class="color_0.2" fill="#00BFFF"/>
      <rect x="184.85" y="32.86" width="1.81" height="1.81" id="fig-9b4559f2edfe4759bbefc98291e05847-element-11" class="color_0.3" fill="#D4CA3A"/>
      <rect x="184.85" y="36.49" width="1.81" height="1.81" id="fig-9b4559f2edfe4759bbefc98291e05847-element-12" class="color_0.4" fill="#FF5EA0"/>
    </g>
    <g fill="#362A35" font-size="3.88" font-family="'PT Sans','Helvetica Neue','Helvetica',sans-serif" stroke="none" id="fig-9b4559f2edfe4759bbefc98291e05847-element-13">
      <text x="184.85" y="26.32" id="fig-9b4559f2edfe4759bbefc98291e05847-element-14">Julia ver.</text>
    </g>
  </g>
  <g font-size="3.88" font-family="'PT Sans','Helvetica Neue','Helvetica',sans-serif" fill="#564A55" stroke="none" id="fig-9b4559f2edfe4759bbefc98291e05847-element-15">
    <text x="8.81" y="29.96" text-anchor="middle" dy="0.35em" transform="rotate(-90, 8.81, 31.96)" id="fig-9b4559f2edfe4759bbefc98291e05847-element-16">Number of Tagged Packages</text>
  </g>
  <g clip-path="url(#fig-9b4559f2edfe4759bbefc98291e05847-element-18)" id="fig-9b4559f2edfe4759bbefc98291e05847-element-17">
    <g pointer-events="visible" opacity="1" fill="none" stroke="none" class="guide background" id="fig-9b4559f2edfe4759bbefc98291e05847-element-19">
      <rect x="19.63" y="5" width="164.22" height="53.91" id="fig-9b4559f2edfe4759bbefc98291e05847-element-20"/>
    </g>
    <g class="guide ygridlines xfixed" stroke-dasharray="0.5,0.5" stroke-width="0.2" stroke="#D0D0E0" id="fig-9b4559f2edfe4759bbefc98291e05847-element-21">
      <path fill="none" d="M19.63,56.91 L 183.85 56.91" id="fig-9b4559f2edfe4759bbefc98291e05847-element-22"/>
      <path fill="none" d="M19.63,46.93 L 183.85 46.93" id="fig-9b4559f2edfe4759bbefc98291e05847-element-23"/>
      <path fill="none" d="M19.63,36.95 L 183.85 36.95" id="fig-9b4559f2edfe4759bbefc98291e05847-element-24"/>
      <path fill="none" d="M19.63,26.97 L 183.85 26.97" id="fig-9b4559f2edfe4759bbefc98291e05847-element-25"/>
      <path fill="none" d="M19.63,16.98 L 183.85 16.98" id="fig-9b4559f2edfe4759bbefc98291e05847-element-26"/>
      <path fill="none" d="M19.63,7 L 183.85 7" id="fig-9b4559f2edfe4759bbefc98291e05847-element-27"/>
    </g>
    <g class="guide xgridlines yfixed" stroke-dasharray="0.5,0.5" stroke-width="0.2" stroke="#D0D0E0" id="fig-9b4559f2edfe4759bbefc98291e05847-element-28">
      <path fill="none" d="M22.93,5 L 22.93 58.91" id="fig-9b4559f2edfe4759bbefc98291e05847-element-29"/>
      <path fill="none" d="M39.4,5 L 39.4 58.91" id="fig-9b4559f2edfe4759bbefc98291e05847-element-30"/>
      <path fill="none" d="M56.43,5 L 56.43 58.91" id="fig-9b4559f2edfe4759bbefc98291e05847-element-31"/>
      <path fill="none" d="M72.91,5 L 72.91 58.91" id="fig-9b4559f2edfe4759bbefc98291e05847-element-32"/>
      <path fill="none" d="M89.93,5 L 89.93 58.91" id="fig-9b4559f2edfe4759bbefc98291e05847-element-33"/>
      <path fill="none" d="M106.96,5 L 106.96 58.91" id="fig-9b4559f2edfe4759bbefc98291e05847-element-34"/>
      <path fill="none" d="M123.44,5 L 123.44 58.91" id="fig-9b4559f2edfe4759bbefc98291e05847-element-35"/>
      <path fill="none" d="M140.46,5 L 140.46 58.91" id="fig-9b4559f2edfe4759bbefc98291e05847-element-36"/>
      <path fill="none" d="M156.94,5 L 156.94 58.91" id="fig-9b4559f2edfe4759bbefc98291e05847-element-37"/>
      <path fill="none" d="M173.97,5 L 173.97 58.91" id="fig-9b4559f2edfe4759bbefc98291e05847-element-38"/>
    </g>
    <g class="plotpanel" id="fig-9b4559f2edfe4759bbefc98291e05847-element-39">
      <g stroke-width="0.79" fill="none" class="geometry color_0.4" stroke="#FF5EA0" id="fig-9b4559f2edfe4759bbefc98291e05847-element-40">
        <path fill="none" d="M96.53,34.15 L 97.07 33.55 97.62 33.36 98.17 33.16 98.72 33.16 99.27 33.16 100.37 32.56 100.92 32.56 101.47 32.36 102.02 32.36 102.57 32.36 103.12 31.76 103.67 31.36 104.21 31.36 105.31 30.96 105.86 30.36 106.96 29.96 107.51 29.96 108.06 29.96 110.26 29.96 111.9 28.76 112.45 28.56 113 28.36 113.55 27.96 114.1 27.96 114.65 27.96 115.2 26.37 115.75 26.37 116.3 26.37 117.4 26.17 117.95 26.17 118.49 25.97 119.04 25.97 119.59 25.97 120.14 25.77 120.69 25.77 121.79 25.97 122.34 25.77 122.89 25.77 123.44 25.37 123.99 24.97 124.54 24.97 125.09 24.97 125.63 24.57 127.28 24.17 127.83 24.17 128.38 23.77 128.93 23.57 129.48 23.57 130.03 23.57 130.58 23.17 131.13 23.17 131.68 22.97 132.23 22.77 132.77 22.77 133.32 22.77 133.87 22.77 134.42 22.37 134.97 21.97 135.52 21.97 136.07 21.97 136.62 21.77 137.17 21.77 137.72 21.58 138.27 21.58 138.82 21.18 139.37 20.98 139.92 20.98 140.46 20.78 141.01 20.78 141.56 20.78 142.11 20.78 142.66 20.58 143.21 20.38 144.86 20.38 147.6 19.18 148.15 18.78 148.7 18.78 149.25 18.58 149.8 18.58 150.35 17.98 150.9 17.98 153.1 16.98 153.65 16.98 156.39 16.78 157.49 16.78 158.04 16.38 158.59 16.18 159.14 16.18 159.69 16.18 160.24 15.79 160.79 15.39 162.43 15.19 162.98 14.99 164.08 14.19 164.63 14.19 165.18 14.19 166.83 14.19 167.93 13.79 169.57 13.39 171.77 12.99 172.87 12.19 174.52 11.79 178.36 10.39 180.56 9 181.11 8.6 181.66 8.6 182.21 7.4" id="fig-9b4559f2edfe4759bbefc98291e05847-element-41"/>
      </g>
      <g stroke-width="0.79" fill="none" class="geometry color_0.3" stroke="#D4CA3A" id="fig-9b4559f2edfe4759bbefc98291e05847-element-42">
        <path fill="none" d="M21.83,47.73 L 22.38 47.73 22.93 47.53 23.48 47.53 24.03 47.53 24.57 47.53 25.12 47.53 25.67 47.33 26.77 47.33 27.32 47.13 28.42 46.93 29.52 46.53 30.07 46.53 31.17 46.53 31.71 46.33 35.56 45.53 37.21 45.53 38.31 45.53 42.15 45.33 42.7 44.94 43.25 44.74 43.8 44.74 44.35 44.74 44.9 44.74 45.45 44.74 46 44.74 46.54 44.74 47.09 44.74 47.64 44.74 48.19 44.14 49.29 43.94 49.84 43.94 50.39 43.94 50.94 43.54 51.49 43.54 52.04 43.54 52.59 43.34 53.14 43.34 53.68 43.34 54.23 43.34 54.78 43.34 55.33 43.14 55.88 43.14 56.43 51.12 56.98 42.94 57.53 42.74 58.08 42.54 61.37 41.34 61.92 41.14 62.47 40.94 63.02 40.74 63.57 40.34 64.12 40.34 64.67 39.94 65.22 39.94 65.77 39.74 66.32 39.54 67.42 39.54 67.96 39.15 68.51 39.15 69.06 39.15 69.61 39.15 70.16 39.15 70.71 38.55 71.26 38.55 72.36 38.35 72.91 37.95 73.46 37.75 74.01 37.55 74.56 37.55 75.1 37.15 76.2 36.95 76.75 36.35 77.3 36.35 77.85 36.35 78.95 35.35 80.05 34.75 80.6 34.75 81.15 34.55 81.7 34.55 83.34 34.35 83.89 34.35 84.44 34.15 84.99 34.15 85.54 34.15 86.09 33.95 86.64 33.75 87.19 33.55 88.29 33.55 88.84 33.55 89.93 33.55 90.48 33.36 91.03 32.76 91.58 32.76 92.68 32.56 93.23 32.56 93.78 32.16 94.33 31.96 94.88 31.76 95.43 31.56 95.98 31.36 96.53 30.96 97.07 30.96 97.62 30.76 98.17 30.56 98.72 30.56 99.27 30.56 100.37 29.96 100.92 29.96 101.47 29.76 102.02 29.76 102.57 29.76 103.12 29.16 103.67 28.96 104.21 28.76 105.31 31.16 105.86 30.56 106.96 30.16 107.51 30.16 108.06 30.16 110.26 30.16 111.9 28.96 112.45 28.76 113 28.56 113.55 28.16 114.1 28.16 114.65 28.16 115.2 26.57 115.75 26.57 116.3 26.57 117.4 26.57 117.95 26.37 118.49 26.17 119.04 26.17 119.59 26.17 120.14 25.97 120.69 25.97 121.79 26.17 122.34 25.97 122.89 25.97 123.44 25.57 123.99 21.58 124.54 25.17 125.09 25.17 125.63 24.77 127.28 24.37 127.83 24.37 128.38 23.97 128.93 23.77 129.48 23.77 130.03 23.77 130.58 23.37 131.13 23.37 131.68 23.17 132.23 22.97 132.77 22.97 133.32 22.97 133.87 22.97 134.42 22.77 134.97 22.37 135.52 22.37 136.07 22.37 136.62 22.17 137.17 22.17 137.72 21.97 138.27 21.97 138.82 21.58 139.37 21.38 139.92 21.38 140.46 21.18 141.01 21.18 141.56 21.18 142.11 20.98 142.66 20.98 143.21 20.78 144.86 20.78 147.6 19.78 148.15 19.38 148.7 19.38 149.25 19.18 149.8 19.18 150.35 18.58 150.9 18.58 153.1 17.58 153.65 17.58 156.39 17.38 157.49 17.38 158.04 17.18 158.59 16.98 159.14 16.98 159.69 16.98 160.24 16.58 160.79 16.38 162.43 15.98 162.98 15.79 164.08 15.19 164.63 14.99 165.18 14.99 166.83 14.99 167.93 14.59 169.57 14.19 171.77 13.79 172.87 13.19 174.52 12.39 178.36 11.19 180.56 9.8 181.11 9.4 181.66 9.4 182.21 8.4" id="fig-9b4559f2edfe4759bbefc98291e05847-element-43"/>
      </g>
      <g stroke-width="0.79" fill="none" class="geometry color_0.2" stroke="#00BFFF" id="fig-9b4559f2edfe4759bbefc98291e05847-element-44">
        <path fill="none" d="M21.83,49.93 L 22.38 49.93 22.93 49.73 23.48 49.73 24.03 49.73 24.57 49.73 25.12 49.73 25.67 49.73 26.77 49.73 27.32 49.73 28.42 49.53 29.52 49.33 30.07 49.33 31.17 49.13 31.71 48.93 35.56 48.53 37.21 48.53 38.31 48.53 42.15 48.33 42.7 48.13 43.25 48.13 43.8 48.13 44.35 48.13 44.9 48.13 45.45 48.13 46 48.13 46.54 48.13 47.09 48.13 47.64 47.53 48.19 47.53 49.29 47.33 49.84 47.33 50.39 47.33 50.94 47.13 51.49 48.73 52.04 47.73 52.59 47.73 53.14 47.73 53.68 47.73 54.23 47.73 54.78 47.73 55.33 47.73 55.88 47.73 56.43 47.53 56.98 47.53 57.53 47.33 58.08 47.33 61.37 46.33 61.92 46.33 62.47 46.13 63.02 45.93 63.57 45.53 64.12 45.53 64.67 45.53 65.22 45.53 65.77 45.53 66.32 45.33 67.42 45.33 67.96 44.94 68.51 44.94 69.06 44.94 69.61 44.94 70.16 44.94 70.71 44.34 71.26 44.34 72.36 44.14 72.91 43.74 73.46 43.54 74.01 43.34 74.56 43.34 75.1 43.34 76.2 42.94 76.75 42.74 77.3 42.54 77.85 42.54 78.95 42.14 80.05 41.74 80.6 41.74 81.15 41.74 81.7 41.74 83.34 41.74 83.89 41.74 84.44 41.54 84.99 41.54 85.54 41.54 86.09 41.34 86.64 41.34 87.19 41.34 88.29 41.14 88.84 41.14 89.93 41.14 90.48 41.14 91.03 40.54 91.58 40.54 92.68 40.94 93.23 40.94 93.78 40.54 94.33 40.34 94.88 40.34 95.43 39.94 95.98 39.94" id="fig-9b4559f2edfe4759bbefc98291e05847-element-45"/>
      </g>
    </g>
  </g>
  <g class="guide ylabels" font-size="2.82" font-family="'PT Sans Caption','Helvetica Neue','Helvetica',sans-serif" fill="#6C606B" id="fig-9b4559f2edfe4759bbefc98291e05847-element-46">
    <text x="18.63" y="56.91" text-anchor="end" dy="0.35em" id="fig-9b4559f2edfe4759bbefc98291e05847-element-47">250</text>
    <text x="18.63" y="46.93" text-anchor="end" dy="0.35em" id="fig-9b4559f2edfe4759bbefc98291e05847-element-48">300</text>
    <text x="18.63" y="36.95" text-anchor="end" dy="0.35em" id="fig-9b4559f2edfe4759bbefc98291e05847-element-49">350</text>
    <text x="18.63" y="26.97" text-anchor="end" dy="0.35em" id="fig-9b4559f2edfe4759bbefc98291e05847-element-50">400</text>
    <text x="18.63" y="16.98" text-anchor="end" dy="0.35em" id="fig-9b4559f2edfe4759bbefc98291e05847-element-51">450</text>
    <text x="18.63" y="7" text-anchor="end" dy="0.35em" id="fig-9b4559f2edfe4759bbefc98291e05847-element-52">500</text>
  </g>
</g>
<defs>
<clipPath id="fig-9b4559f2edfe4759bbefc98291e05847-element-18">
  <path d="M19.63,5 L 183.85 5 183.85 58.91 19.63 58.91" />
</clipPath
></defs>
</svg>
