<?xml version="1.0" encoding="UTF-8"?>
<svg xmlns="http://www.w3.org/2000/svg"
     xmlns:xlink="http://www.w3.org/1999/xlink"
     xmlns:gadfly="http://www.gadflyjl.org/ns"
     version="1.2"
     width="203.2mm" height="76.2mm" viewBox="0 0 203.2 76.2"
     stroke="none"
     fill="#000000"
     stroke-width="0.3"
     font-size="3.88"
>
<g class="plotroot xscalable yscalable" id="fig-4c2c6022e4a04f5cb1e1651d6c2e8f85-element-1">
  <g font-size="3.88" font-family="'PT Sans','Helvetica Neue','Helvetica',sans-serif" fill="#564A55" stroke="none" id="fig-4c2c6022e4a04f5cb1e1651d6c2e8f85-element-2">
    <text x="101.74" y="68.2" text-anchor="middle">Date</text>
  </g>
  <g class="guide xlabels" font-size="2.82" font-family="'PT Sans Caption','Helvetica Neue','Helvetica',sans-serif" fill="#6C606B" id="fig-4c2c6022e4a04f5cb1e1651d6c2e8f85-element-3">
    <text x="22.77" y="62.59" text-anchor="middle">Apr</text>
    <text x="41.57" y="62.59" text-anchor="middle">May</text>
    <text x="61" y="62.59" text-anchor="middle">June</text>
    <text x="79.8" y="62.59" text-anchor="middle">July</text>
    <text x="99.24" y="62.59" text-anchor="middle">Aug</text>
    <text x="118.67" y="62.59" text-anchor="middle">Sept</text>
    <text x="137.47" y="62.59" text-anchor="middle">Oct</text>
    <text x="156.9" y="62.59" text-anchor="middle">Nev</text>
    <text x="175.71" y="62.59" text-anchor="middle">Dec</text>
  </g>
  <g class="guide colorkey" id="fig-4c2c6022e4a04f5cb1e1651d6c2e8f85-element-4">
    <g fill="#4C404B" font-size="2.82" font-family="'PT Sans','Helvetica Neue','Helvetica',sans-serif" id="fig-4c2c6022e4a04f5cb1e1651d6c2e8f85-element-5">
      <text x="187.67" y="30.14" dy="0.35em" id="fig-4c2c6022e4a04f5cb1e1651d6c2e8f85-element-6" class="color_0.2">0.2</text>
      <text x="187.67" y="33.77" dy="0.35em" id="fig-4c2c6022e4a04f5cb1e1651d6c2e8f85-element-7" class="color_0.3">0.3</text>
      <text x="187.67" y="37.4" dy="0.35em" id="fig-4c2c6022e4a04f5cb1e1651d6c2e8f85-element-8" class="color_0.4">0.4</text>
    </g>
    <g stroke="none" id="fig-4c2c6022e4a04f5cb1e1651d6c2e8f85-element-9">
      <rect x="184.85" y="29.24" width="1.81" height="1.81" id="fig-4c2c6022e4a04f5cb1e1651d6c2e8f85-element-10" class="color_0.2" fill="#00BFFF"/>
      <rect x="184.85" y="32.86" width="1.81" height="1.81" id="fig-4c2c6022e4a04f5cb1e1651d6c2e8f85-element-11" class="color_0.3" fill="#D4CA3A"/>
      <rect x="184.85" y="36.49" width="1.81" height="1.81" id="fig-4c2c6022e4a04f5cb1e1651d6c2e8f85-element-12" class="color_0.4" fill="#FF5EA0"/>
    </g>
    <g fill="#362A35" font-size="3.88" font-family="'PT Sans','Helvetica Neue','Helvetica',sans-serif" stroke="none" id="fig-4c2c6022e4a04f5cb1e1651d6c2e8f85-element-13">
      <text x="184.85" y="26.32" id="fig-4c2c6022e4a04f5cb1e1651d6c2e8f85-element-14">Julia ver.</text>
    </g>
  </g>
  <g font-size="3.88" font-family="'PT Sans','Helvetica Neue','Helvetica',sans-serif" fill="#564A55" stroke="none" id="fig-4c2c6022e4a04f5cb1e1651d6c2e8f85-element-15">
    <text x="8.81" y="29.96" text-anchor="middle" dy="0.35em" transform="rotate(-90, 8.81, 31.96)" id="fig-4c2c6022e4a04f5cb1e1651d6c2e8f85-element-16">Number of Tagged Packages</text>
  </g>
  <g clip-path="url(#fig-4c2c6022e4a04f5cb1e1651d6c2e8f85-element-18)" id="fig-4c2c6022e4a04f5cb1e1651d6c2e8f85-element-17">
    <g pointer-events="visible" opacity="1" fill="none" stroke="none" class="guide background" id="fig-4c2c6022e4a04f5cb1e1651d6c2e8f85-element-19">
      <rect x="19.63" y="5" width="164.22" height="53.91" id="fig-4c2c6022e4a04f5cb1e1651d6c2e8f85-element-20"/>
    </g>
    <g class="guide ygridlines xfixed" stroke-dasharray="0.5,0.5" stroke-width="0.2" stroke="#D0D0E0" id="fig-4c2c6022e4a04f5cb1e1651d6c2e8f85-element-21">
      <path fill="none" d="M19.63,56.91 L 183.85 56.91" id="fig-4c2c6022e4a04f5cb1e1651d6c2e8f85-element-22"/>
      <path fill="none" d="M19.63,44.44 L 183.85 44.44" id="fig-4c2c6022e4a04f5cb1e1651d6c2e8f85-element-23"/>
      <path fill="none" d="M19.63,31.96 L 183.85 31.96" id="fig-4c2c6022e4a04f5cb1e1651d6c2e8f85-element-24"/>
      <path fill="none" d="M19.63,19.48 L 183.85 19.48" id="fig-4c2c6022e4a04f5cb1e1651d6c2e8f85-element-25"/>
      <path fill="none" d="M19.63,7 L 183.85 7" id="fig-4c2c6022e4a04f5cb1e1651d6c2e8f85-element-26"/>
    </g>
    <g class="guide xgridlines yfixed" stroke-dasharray="0.5,0.5" stroke-width="0.2" stroke="#D0D0E0" id="fig-4c2c6022e4a04f5cb1e1651d6c2e8f85-element-27">
      <path fill="none" d="M22.77,5 L 22.77 58.91" id="fig-4c2c6022e4a04f5cb1e1651d6c2e8f85-element-28"/>
      <path fill="none" d="M41.57,5 L 41.57 58.91" id="fig-4c2c6022e4a04f5cb1e1651d6c2e8f85-element-29"/>
      <path fill="none" d="M61,5 L 61 58.91" id="fig-4c2c6022e4a04f5cb1e1651d6c2e8f85-element-30"/>
      <path fill="none" d="M79.8,5 L 79.8 58.91" id="fig-4c2c6022e4a04f5cb1e1651d6c2e8f85-element-31"/>
      <path fill="none" d="M99.24,5 L 99.24 58.91" id="fig-4c2c6022e4a04f5cb1e1651d6c2e8f85-element-32"/>
      <path fill="none" d="M118.67,5 L 118.67 58.91" id="fig-4c2c6022e4a04f5cb1e1651d6c2e8f85-element-33"/>
      <path fill="none" d="M137.47,5 L 137.47 58.91" id="fig-4c2c6022e4a04f5cb1e1651d6c2e8f85-element-34"/>
      <path fill="none" d="M156.9,5 L 156.9 58.91" id="fig-4c2c6022e4a04f5cb1e1651d6c2e8f85-element-35"/>
      <path fill="none" d="M175.71,5 L 175.71 58.91" id="fig-4c2c6022e4a04f5cb1e1651d6c2e8f85-element-36"/>
    </g>
    <g class="plotpanel" id="fig-4c2c6022e4a04f5cb1e1651d6c2e8f85-element-37">
      <g stroke-width="0.79" fill="none" class="geometry color_0.4" stroke="#FF5EA0" id="fig-4c2c6022e4a04f5cb1e1651d6c2e8f85-element-38">
        <path fill="none" d="M106.76,28.46 L 107.38 27.71 108.01 27.47 108.64 27.22 109.26 27.22 109.89 27.22 111.14 26.47 111.77 26.47 112.4 26.22 113.03 26.22 113.65 26.22 114.28 25.47 114.91 24.97 115.53 24.97 116.79 24.47 117.41 23.72 118.67 23.22 119.29 23.22 119.92 23.22 122.43 23.22 124.31 21.72 124.93 21.48 125.56 21.23 126.19 20.73 126.82 20.73 127.44 20.73 128.07 18.73 128.7 18.73 129.32 18.73 130.58 18.48 131.2 18.48 131.83 18.23 132.46 18.23 133.08 18.23 133.71 17.98 134.34 17.98 135.59 18.23 136.22 17.98 136.84 17.98 137.47 17.48 138.1 16.98 138.72 16.98 139.35 16.98 139.98 16.48 141.86 15.98 142.49 15.98 143.11 15.49 143.74 15.24 144.37 15.24 144.99 15.24 145.62 14.74 146.25 14.74 146.87 14.49 147.5 14.24 148.13 14.24 148.75 14.24 149.38 14.24 150.01 13.74 150.63 13.24 151.26 13.24 151.89 13.24 152.51 12.99 153.14 12.99 153.77 12.74 154.39 12.74 155.02 12.24 155.65 11.99 156.27 11.99 156.9 11.74 157.53 11.74 158.16 11.74 158.78 11.74 159.41 11.49 160.04 11.24 161.92 11.24 165.05 9.75 165.68 9.25 166.3 9.25 166.93 9 167.56 9 168.18 8.25 168.81 8.25 171.32 7 171.94 7 175.08 6.75 176.33 6.75 176.96 6.25 177.59 6 178.21 6 178.84 6 179.47 5.5 180.09 5 181.97 4.75" id="fig-4c2c6022e4a04f5cb1e1651d6c2e8f85-element-39"/>
      </g>
      <g stroke-width="0.79" fill="none" class="geometry color_0.3" stroke="#D4CA3A" id="fig-4c2c6022e4a04f5cb1e1651d6c2e8f85-element-40">
        <path fill="none" d="M21.51,45.43 L 22.14 45.43 22.77 45.18 23.39 45.18 24.02 45.18 24.65 45.18 25.27 45.18 25.9 44.94 27.15 44.94 27.78 44.69 29.03 44.44 30.29 43.94 30.91 43.94 32.17 43.94 32.79 43.69 37.18 42.69 39.06 42.69 40.32 42.69 44.7 42.44 45.33 41.94 45.96 41.69 46.58 41.69 47.21 41.69 47.84 41.69 48.46 41.69 49.09 41.69 49.72 41.69 50.35 41.69 50.97 41.69 51.6 40.94 52.85 40.69 53.48 40.69 54.11 40.69 54.73 40.19 55.36 40.19 55.99 40.19 56.61 39.94 57.24 39.94 57.87 39.94 58.49 39.94 59.12 39.94 59.75 39.69 60.37 39.69 61 49.68 61.63 39.44 62.25 39.2 62.88 38.95 66.64 37.45 67.27 37.2 67.9 36.95 68.52 36.7 69.15 36.2 69.78 36.2 70.4 35.7 71.03 35.7 71.66 35.45 72.28 35.2 73.54 35.2 74.16 34.7 74.79 34.7 75.42 34.7 76.04 34.7 76.67 34.7 77.3 33.95 77.92 33.95 79.18 33.7 79.8 33.21 80.43 32.96 81.06 32.71 81.69 32.71 82.31 32.21 83.57 31.96 84.19 31.21 84.82 31.21 85.45 31.21 86.7 29.96 87.95 29.21 88.58 29.21 89.21 28.96 89.83 28.96 91.71 28.71 92.34 28.71 92.97 28.46 93.59 28.46 94.22 28.46 94.85 28.21 95.47 27.96 96.1 27.71 97.36 27.71 97.98 27.71 99.24 27.71 99.86 27.47 100.49 26.72 101.12 26.72 102.37 26.47 103 26.47 103.62 25.97 104.25 25.72 104.88 25.47 105.5 25.22 106.13 24.97 106.76 24.47 107.38 24.47 108.01 24.22 108.64 23.97 109.26 23.97 109.89 23.97 111.14 23.22 111.77 23.22 112.4 22.97 113.03 22.97 113.65 22.97 114.28 22.22 114.91 21.97 115.53 21.72 116.79 24.72 117.41 23.97 118.67 23.47 119.29 23.47 119.92 23.47 122.43 23.47 124.31 21.97 124.93 21.72 125.56 21.48 126.19 20.98 126.82 20.98 127.44 20.98 128.07 18.98 128.7 18.98 129.32 18.98 130.58 18.98 131.2 18.73 131.83 18.48 132.46 18.48 133.08 18.48 133.71 18.23 134.34 18.23 135.59 18.48 136.22 18.23 136.84 18.23 137.47 17.73 138.1 12.74 138.72 17.23 139.35 17.23 139.98 16.73 141.86 16.23 142.49 16.23 143.11 15.74 143.74 15.49 144.37 15.49 144.99 15.49 145.62 14.99 146.25 14.99 146.87 14.74 147.5 14.49 148.13 14.49 148.75 14.49 149.38 14.49 150.01 14.24 150.63 13.74 151.26 13.74 151.89 13.74 152.51 13.49 153.14 13.49 153.77 13.24 154.39 13.24 155.02 12.74 155.65 12.49 156.27 12.49 156.9 12.24 157.53 12.24 158.16 12.24 158.78 11.99 159.41 11.99 160.04 11.74 161.92 11.74 165.05 10.49 165.68 9.99 166.3 9.99 166.93 9.75 167.56 9.75 168.18 9 168.81 9 171.32 7.75 171.94 7.75 175.08 7.5 176.33 7.5 176.96 7.25 177.59 7 178.21 7 178.84 7 179.47 6.5 180.09 6.25 181.97 5.75" id="fig-4c2c6022e4a04f5cb1e1651d6c2e8f85-element-41"/>
      </g>
      <g stroke-width="0.79" fill="none" class="geometry color_0.2" stroke="#00BFFF" id="fig-4c2c6022e4a04f5cb1e1651d6c2e8f85-element-42">
        <path fill="none" d="M21.51,48.18 L 22.14 48.18 22.77 47.93 23.39 47.93 24.02 47.93 24.65 47.93 25.27 47.93 25.9 47.93 27.15 47.93 27.78 47.93 29.03 47.68 30.29 47.43 30.91 47.43 32.17 47.18 32.79 46.93 37.18 46.43 39.06 46.43 40.32 46.43 44.7 46.18 45.33 45.93 45.96 45.93 46.58 45.93 47.21 45.93 47.84 45.93 48.46 45.93 49.09 45.93 49.72 45.93 50.35 45.93 50.97 45.18 51.6 45.18 52.85 44.94 53.48 44.94 54.11 44.94 54.73 44.69 55.36 46.68 55.99 45.43 56.61 45.43 57.24 45.43 57.87 45.43 58.49 45.43 59.12 45.43 59.75 45.43 60.37 45.43 61 45.18 61.63 45.18 62.25 44.94 62.88 44.94 66.64 43.69 67.27 43.69 67.9 43.44 68.52 43.19 69.15 42.69 69.78 42.69 70.4 42.69 71.03 42.69 71.66 42.69 72.28 42.44 73.54 42.44 74.16 41.94 74.79 41.94 75.42 41.94 76.04 41.94 76.67 41.94 77.3 41.19 77.92 41.19 79.18 40.94 79.8 40.44 80.43 40.19 81.06 39.94 81.69 39.94 82.31 39.94 83.57 39.44 84.19 39.2 84.82 38.95 85.45 38.95 86.7 38.45 87.95 37.95 88.58 37.95 89.21 37.95 89.83 37.95 91.71 37.95 92.34 37.95 92.97 37.7 93.59 37.7 94.22 37.7 94.85 37.45 95.47 37.45 96.1 37.45 97.36 37.2 97.98 37.2 99.24 37.2 99.86 37.2 100.49 36.45 101.12 36.45 102.37 36.95 103 36.95 103.62 36.45 104.25 36.2 104.88 36.2 105.5 35.7 106.13 35.7" id="fig-4c2c6022e4a04f5cb1e1651d6c2e8f85-element-43"/>
      </g>
    </g>
  </g>
  <g class="guide ylabels" font-size="2.82" font-family="'PT Sans Caption','Helvetica Neue','Helvetica',sans-serif" fill="#6C606B" id="fig-4c2c6022e4a04f5cb1e1651d6c2e8f85-element-44">
    <text x="18.63" y="56.91" text-anchor="end" dy="0.35em" id="fig-4c2c6022e4a04f5cb1e1651d6c2e8f85-element-45">250</text>
    <text x="18.63" y="44.44" text-anchor="end" dy="0.35em" id="fig-4c2c6022e4a04f5cb1e1651d6c2e8f85-element-46">300</text>
    <text x="18.63" y="31.96" text-anchor="end" dy="0.35em" id="fig-4c2c6022e4a04f5cb1e1651d6c2e8f85-element-47">350</text>
    <text x="18.63" y="19.48" text-anchor="end" dy="0.35em" id="fig-4c2c6022e4a04f5cb1e1651d6c2e8f85-element-48">400</text>
    <text x="18.63" y="7" text-anchor="end" dy="0.35em" id="fig-4c2c6022e4a04f5cb1e1651d6c2e8f85-element-49">450</text>
  </g>
</g>
<defs>
<clipPath id="fig-4c2c6022e4a04f5cb1e1651d6c2e8f85-element-18">
  <path d="M19.63,5 L 183.85 5 183.85 58.91 19.63 58.91" />
</clipPath
></defs>
</svg>
