<?xml version="1.0" encoding="UTF-8"?>
<svg xmlns="http://www.w3.org/2000/svg"
     xmlns:xlink="http://www.w3.org/1999/xlink"
     xmlns:gadfly="http://www.gadflyjl.org/ns"
     version="1.2"
     width="203.2mm" height="76.2mm" viewBox="0 0 203.2 76.2"
     stroke="none"
     fill="#000000"
     stroke-width="0.3"
     font-size="3.88"
>
<g class="plotroot xscalable yscalable" id="fig-7ab39e99d090440ca3b317433aea5ad1-element-1">
  <g font-size="3.88" font-family="'PT Sans','Helvetica Neue','Helvetica',sans-serif" fill="#564A55" stroke="none" id="fig-7ab39e99d090440ca3b317433aea5ad1-element-2">
    <text x="101.74" y="68.2" text-anchor="middle">Date</text>
  </g>
  <g class="guide xlabels" font-size="2.82" font-family="'PT Sans Caption','Helvetica Neue','Helvetica',sans-serif" fill="#6C606B" id="fig-7ab39e99d090440ca3b317433aea5ad1-element-3">
    <text x="22.87" y="62.59" text-anchor="middle">Apr</text>
    <text x="39.08" y="62.59" text-anchor="middle">May</text>
    <text x="55.83" y="62.59" text-anchor="middle">Jun</text>
    <text x="72.03" y="62.59" text-anchor="middle">Jul</text>
    <text x="88.78" y="62.59" text-anchor="middle">Aug</text>
    <text x="105.52" y="62.59" text-anchor="middle">Sep</text>
    <text x="121.73" y="62.59" text-anchor="middle">Oct</text>
    <text x="138.48" y="62.59" text-anchor="middle">Nov</text>
    <text x="154.68" y="62.59" text-anchor="middle">Dec</text>
    <text x="171.43" y="62.59" text-anchor="middle">Jan 2015</text>
  </g>
  <g class="guide colorkey" id="fig-7ab39e99d090440ca3b317433aea5ad1-element-4">
    <g fill="#4C404B" font-size="2.82" font-family="'PT Sans','Helvetica Neue','Helvetica',sans-serif" id="fig-7ab39e99d090440ca3b317433aea5ad1-element-5">
      <text x="187.67" y="30.14" dy="0.35em" id="fig-7ab39e99d090440ca3b317433aea5ad1-element-6" class="color_0.2">0.2</text>
      <text x="187.67" y="33.77" dy="0.35em" id="fig-7ab39e99d090440ca3b317433aea5ad1-element-7" class="color_0.3">0.3</text>
      <text x="187.67" y="37.4" dy="0.35em" id="fig-7ab39e99d090440ca3b317433aea5ad1-element-8" class="color_0.4">0.4</text>
    </g>
    <g stroke="none" id="fig-7ab39e99d090440ca3b317433aea5ad1-element-9">
      <rect x="184.85" y="29.24" width="1.81" height="1.81" id="fig-7ab39e99d090440ca3b317433aea5ad1-element-10" fill="#00BFFF" class="color_0.2"/>
      <rect x="184.85" y="32.86" width="1.81" height="1.81" id="fig-7ab39e99d090440ca3b317433aea5ad1-element-11" fill="#D4CA3A" class="color_0.3"/>
      <rect x="184.85" y="36.49" width="1.81" height="1.81" id="fig-7ab39e99d090440ca3b317433aea5ad1-element-12" fill="#FF5EA0" class="color_0.4"/>
    </g>
    <g fill="#362A35" font-size="3.88" font-family="'PT Sans','Helvetica Neue','Helvetica',sans-serif" stroke="none" id="fig-7ab39e99d090440ca3b317433aea5ad1-element-13">
      <text x="184.85" y="26.32" id="fig-7ab39e99d090440ca3b317433aea5ad1-element-14">Julia ver.</text>
    </g>
  </g>
  <g font-size="3.88" font-family="'PT Sans','Helvetica Neue','Helvetica',sans-serif" fill="#564A55" stroke="none" id="fig-7ab39e99d090440ca3b317433aea5ad1-element-15">
    <text x="8.81" y="29.96" text-anchor="middle" dy="0.35em" transform="rotate(-90, 8.81, 31.96)" id="fig-7ab39e99d090440ca3b317433aea5ad1-element-16">Number of Tagged Packages</text>
  </g>
  <g clip-path="url(#fig-7ab39e99d090440ca3b317433aea5ad1-element-18)" id="fig-7ab39e99d090440ca3b317433aea5ad1-element-17">
    <g pointer-events="visible" opacity="1" fill="none" stroke="none" class="guide background" id="fig-7ab39e99d090440ca3b317433aea5ad1-element-19">
      <rect x="19.63" y="5" width="164.22" height="53.91" id="fig-7ab39e99d090440ca3b317433aea5ad1-element-20"/>
    </g>
    <g class="guide ygridlines xfixed" stroke-dasharray="0.5,0.5" stroke-width="0.2" stroke="#D0D0E0" id="fig-7ab39e99d090440ca3b317433aea5ad1-element-21">
      <path fill="none" d="M19.63,56.91 L 183.85 56.91" id="fig-7ab39e99d090440ca3b317433aea5ad1-element-22"/>
      <path fill="none" d="M19.63,46.93 L 183.85 46.93" id="fig-7ab39e99d090440ca3b317433aea5ad1-element-23"/>
      <path fill="none" d="M19.63,36.95 L 183.85 36.95" id="fig-7ab39e99d090440ca3b317433aea5ad1-element-24"/>
      <path fill="none" d="M19.63,26.97 L 183.85 26.97" id="fig-7ab39e99d090440ca3b317433aea5ad1-element-25"/>
      <path fill="none" d="M19.63,16.98 L 183.85 16.98" id="fig-7ab39e99d090440ca3b317433aea5ad1-element-26"/>
      <path fill="none" d="M19.63,7 L 183.85 7" id="fig-7ab39e99d090440ca3b317433aea5ad1-element-27"/>
    </g>
    <g class="guide xgridlines yfixed" stroke-dasharray="0.5,0.5" stroke-width="0.2" stroke="#D0D0E0" id="fig-7ab39e99d090440ca3b317433aea5ad1-element-28">
      <path fill="none" d="M22.87,5 L 22.87 58.91" id="fig-7ab39e99d090440ca3b317433aea5ad1-element-29"/>
      <path fill="none" d="M39.08,5 L 39.08 58.91" id="fig-7ab39e99d090440ca3b317433aea5ad1-element-30"/>
      <path fill="none" d="M55.83,5 L 55.83 58.91" id="fig-7ab39e99d090440ca3b317433aea5ad1-element-31"/>
      <path fill="none" d="M72.03,5 L 72.03 58.91" id="fig-7ab39e99d090440ca3b317433aea5ad1-element-32"/>
      <path fill="none" d="M88.78,5 L 88.78 58.91" id="fig-7ab39e99d090440ca3b317433aea5ad1-element-33"/>
      <path fill="none" d="M105.52,5 L 105.52 58.91" id="fig-7ab39e99d090440ca3b317433aea5ad1-element-34"/>
      <path fill="none" d="M121.73,5 L 121.73 58.91" id="fig-7ab39e99d090440ca3b317433aea5ad1-element-35"/>
      <path fill="none" d="M138.48,5 L 138.48 58.91" id="fig-7ab39e99d090440ca3b317433aea5ad1-element-36"/>
      <path fill="none" d="M154.68,5 L 154.68 58.91" id="fig-7ab39e99d090440ca3b317433aea5ad1-element-37"/>
      <path fill="none" d="M171.43,5 L 171.43 58.91" id="fig-7ab39e99d090440ca3b317433aea5ad1-element-38"/>
    </g>
    <g class="plotpanel" id="fig-7ab39e99d090440ca3b317433aea5ad1-element-39">
      <g stroke-width="0.79" fill="none" class="geometry color_0.4" stroke="#FF5EA0" id="fig-7ab39e99d090440ca3b317433aea5ad1-element-40">
        <path fill="none" d="M95.26,34.15 L 95.8 33.55 96.34 33.36 96.88 33.16 97.42 33.16 97.96 33.16 99.04 32.56 99.58 32.56 100.12 32.36 100.66 32.36 101.2 32.36 101.74 31.76 102.28 31.36 102.82 31.36 103.9 30.96 104.44 30.36 105.52 29.96 106.06 29.96 106.6 29.96 108.77 29.96 110.39 28.76 110.93 28.56 111.47 28.36 112.01 27.96 112.55 27.96 113.09 27.96 113.63 26.37 114.17 26.37 114.71 26.37 115.79 26.17 116.33 26.17 116.87 25.97 117.41 25.97 117.95 25.97 118.49 25.77 119.03 25.77 120.11 25.97 120.65 25.77 121.19 25.77 121.73 25.37 122.27 24.97 122.81 24.97 123.35 24.97 123.89 24.57 125.51 24.17 126.05 24.17 126.59 23.77 127.13 23.57 127.67 23.57 128.21 23.57 128.75 23.17 129.29 23.17 129.83 22.97 130.37 22.77 130.91 22.77 131.45 22.77 131.99 22.77 132.53 22.37 133.07 21.97 133.62 21.97 134.16 21.97 134.7 21.77 135.24 21.77 135.78 21.58 136.32 21.58 136.86 21.18 137.4 20.98 137.94 20.98 138.48 20.78 139.02 20.78 139.56 20.78 140.1 20.78 140.64 20.58 141.18 20.38 142.8 20.38 145.5 19.18 146.04 18.78 146.58 18.78 147.12 18.58 147.66 18.58 148.2 17.98 148.74 17.98 150.9 16.98 151.44 16.98 154.14 16.78 155.22 16.78 155.76 16.38 156.3 16.18 156.84 16.18 157.38 16.18 157.92 15.79 158.46 15.39 160.09 15.19 160.63 14.99 161.71 14.19 162.25 14.19 162.79 14.19 164.41 14.19 165.49 13.79 167.11 13.39 169.27 12.99 170.35 12.19 171.97 11.79 175.75 10.39 177.91 9 178.45 8.6 178.99 8.6 179.53 7.4 180.07 7.4 180.61 7.4 181.69 7.2 182.23 7" id="fig-7ab39e99d090440ca3b317433aea5ad1-element-41"/>
      </g>
      <g stroke-width="0.79" fill="none" class="geometry color_0.3" stroke="#D4CA3A" id="fig-7ab39e99d090440ca3b317433aea5ad1-element-42">
        <path fill="none" d="M21.79,47.73 L 22.33 47.73 22.87 47.53 23.41 47.53 23.95 47.53 24.49 47.53 25.03 47.53 25.57 47.33 26.65 47.33 27.19 47.13 28.27 46.93 29.36 46.53 29.9 46.53 30.98 46.53 31.52 46.33 35.3 45.53 36.92 45.53 38 45.53 41.78 45.33 42.32 44.94 42.86 44.74 43.4 44.74 43.94 44.74 44.48 44.74 45.02 44.74 45.56 44.74 46.1 44.74 46.64 44.74 47.18 44.74 47.72 44.14 48.8 43.94 49.34 43.94 49.88 43.94 50.42 43.54 50.96 43.54 51.5 43.54 52.04 43.34 52.58 43.34 53.12 43.34 53.66 43.34 54.2 43.34 54.75 43.14 55.29 43.14 55.83 51.12 56.37 42.94 56.91 42.74 57.45 42.54 60.69 41.34 61.23 41.14 61.77 40.94 62.31 40.74 62.85 40.34 63.39 40.34 63.93 39.94 64.47 39.94 65.01 39.74 65.55 39.54 66.63 39.54 67.17 39.15 67.71 39.15 68.25 39.15 68.79 39.15 69.33 39.15 69.87 38.55 70.41 38.55 71.49 38.35 72.03 37.95 72.57 37.75 73.11 37.55 73.65 37.55 74.19 37.15 75.27 36.95 75.81 36.35 76.35 36.35 76.89 36.35 77.97 35.35 79.05 34.75 79.59 34.75 80.13 34.55 80.67 34.55 82.3 34.35 82.84 34.35 83.38 34.15 83.92 34.15 84.46 34.15 85 33.95 85.54 33.75 86.08 33.55 87.16 33.55 87.7 33.55 88.78 33.55 89.32 33.36 89.86 32.76 90.4 32.76 91.48 32.56 92.02 32.56 92.56 32.16 93.1 31.96 93.64 31.76 94.18 31.56 94.72 31.36 95.26 30.96 95.8 30.96 96.34 30.76 96.88 30.56 97.42 30.56 97.96 30.56 99.04 29.96 99.58 29.96 100.12 29.76 100.66 29.76 101.2 29.76 101.74 29.16 102.28 28.96 102.82 28.76 103.9 31.16 104.44 30.56 105.52 30.16 106.06 30.16 106.6 30.16 108.77 30.16 110.39 28.96 110.93 28.76 111.47 28.56 112.01 28.16 112.55 28.16 113.09 28.16 113.63 26.57 114.17 26.57 114.71 26.57 115.79 26.57 116.33 26.37 116.87 26.17 117.41 26.17 117.95 26.17 118.49 25.97 119.03 25.97 120.11 26.17 120.65 25.97 121.19 25.97 121.73 25.57 122.27 21.58 122.81 25.17 123.35 25.17 123.89 24.77 125.51 24.37 126.05 24.37 126.59 23.97 127.13 23.77 127.67 23.77 128.21 23.77 128.75 23.37 129.29 23.37 129.83 23.17 130.37 22.97 130.91 22.97 131.45 22.97 131.99 22.97 132.53 22.77 133.07 22.37 133.62 22.37 134.16 22.37 134.7 22.17 135.24 22.17 135.78 21.97 136.32 21.97 136.86 21.58 137.4 21.38 137.94 21.38 138.48 21.18 139.02 21.18 139.56 21.18 140.1 20.98 140.64 20.98 141.18 20.78 142.8 20.78 145.5 19.78 146.04 19.38 146.58 19.38 147.12 19.18 147.66 19.18 148.2 18.58 148.74 18.58 150.9 17.58 151.44 17.58 154.14 17.38 155.22 17.38 155.76 17.18 156.3 16.98 156.84 16.98 157.38 16.98 157.92 16.58 158.46 16.38 160.09 15.98 160.63 15.79 161.71 15.19 162.25 14.99 162.79 14.99 164.41 14.99 165.49 14.59 167.11 14.19 169.27 13.79 170.35 13.19 171.97 12.39 175.75 11.19 177.91 9.8 178.45 9.4 178.99 9.4 179.53 8.4 180.07 8.4 180.61 8.4 181.69 8.4 182.23 8" id="fig-7ab39e99d090440ca3b317433aea5ad1-element-43"/>
      </g>
      <g stroke-width="0.79" fill="none" class="geometry color_0.2" stroke="#00BFFF" id="fig-7ab39e99d090440ca3b317433aea5ad1-element-44">
        <path fill="none" d="M21.79,49.93 L 22.33 49.93 22.87 49.73 23.41 49.73 23.95 49.73 24.49 49.73 25.03 49.73 25.57 49.73 26.65 49.73 27.19 49.73 28.27 49.53 29.36 49.33 29.9 49.33 30.98 49.13 31.52 48.93 35.3 48.53 36.92 48.53 38 48.53 41.78 48.33 42.32 48.13 42.86 48.13 43.4 48.13 43.94 48.13 44.48 48.13 45.02 48.13 45.56 48.13 46.1 48.13 46.64 48.13 47.18 47.53 47.72 47.53 48.8 47.33 49.34 47.33 49.88 47.33 50.42 47.13 50.96 48.73 51.5 47.73 52.04 47.73 52.58 47.73 53.12 47.73 53.66 47.73 54.2 47.73 54.75 47.73 55.29 47.73 55.83 47.53 56.37 47.53 56.91 47.33 57.45 47.33 60.69 46.33 61.23 46.33 61.77 46.13 62.31 45.93 62.85 45.53 63.39 45.53 63.93 45.53 64.47 45.53 65.01 45.53 65.55 45.33 66.63 45.33 67.17 44.94 67.71 44.94 68.25 44.94 68.79 44.94 69.33 44.94 69.87 44.34 70.41 44.34 71.49 44.14 72.03 43.74 72.57 43.54 73.11 43.34 73.65 43.34 74.19 43.34 75.27 42.94 75.81 42.74 76.35 42.54 76.89 42.54 77.97 42.14 79.05 41.74 79.59 41.74 80.13 41.74 80.67 41.74 82.3 41.74 82.84 41.74 83.38 41.54 83.92 41.54 84.46 41.54 85 41.34 85.54 41.34 86.08 41.34 87.16 41.14 87.7 41.14 88.78 41.14 89.32 41.14 89.86 40.54 90.4 40.54 91.48 40.94 92.02 40.94 92.56 40.54 93.1 40.34 93.64 40.34 94.18 39.94 94.72 39.94" id="fig-7ab39e99d090440ca3b317433aea5ad1-element-45"/>
      </g>
    </g>
  </g>
  <g class="guide ylabels" font-size="2.82" font-family="'PT Sans Caption','Helvetica Neue','Helvetica',sans-serif" fill="#6C606B" id="fig-7ab39e99d090440ca3b317433aea5ad1-element-46">
    <text x="18.63" y="56.91" text-anchor="end" dy="0.35em" id="fig-7ab39e99d090440ca3b317433aea5ad1-element-47">250</text>
    <text x="18.63" y="46.93" text-anchor="end" dy="0.35em" id="fig-7ab39e99d090440ca3b317433aea5ad1-element-48">300</text>
    <text x="18.63" y="36.95" text-anchor="end" dy="0.35em" id="fig-7ab39e99d090440ca3b317433aea5ad1-element-49">350</text>
    <text x="18.63" y="26.97" text-anchor="end" dy="0.35em" id="fig-7ab39e99d090440ca3b317433aea5ad1-element-50">400</text>
    <text x="18.63" y="16.98" text-anchor="end" dy="0.35em" id="fig-7ab39e99d090440ca3b317433aea5ad1-element-51">450</text>
    <text x="18.63" y="7" text-anchor="end" dy="0.35em" id="fig-7ab39e99d090440ca3b317433aea5ad1-element-52">500</text>
  </g>
</g>
<defs>
<clipPath id="fig-7ab39e99d090440ca3b317433aea5ad1-element-18">
  <path d="M19.63,5 L 183.85 5 183.85 58.91 19.63 58.91" />
</clipPath
></defs>
</svg>
