<?xml version="1.0" encoding="UTF-8"?>
<svg xmlns="http://www.w3.org/2000/svg"
     xmlns:xlink="http://www.w3.org/1999/xlink"
     xmlns:gadfly="http://www.gadflyjl.org/ns"
     version="1.2"
     width="203.2mm" height="76.2mm" viewBox="0 0 203.2 76.2"
     stroke="none"
     fill="#000000"
     stroke-width="0.3"
     font-size="3.88"
>
<g class="plotroot xscalable yscalable" id="fig-9dbc11f0905146009c9ebc062ff9f034-element-1">
  <g font-size="3.88" font-family="'PT Sans','Helvetica Neue','Helvetica',sans-serif" fill="#564A55" stroke="#000000" stroke-opacity="0.000" id="fig-9dbc11f0905146009c9ebc062ff9f034-element-2">
    <text x="101.74" y="64.59" text-anchor="middle" dy="0.6em">Date</text>
  </g>
  <g class="guide xlabels" font-size="2.82" font-family="'PT Sans Caption','Helvetica Neue','Helvetica',sans-serif" fill="#6C606B" id="fig-9dbc11f0905146009c9ebc062ff9f034-element-3">
    <text x="22.33" y="57.92" text-anchor="middle" dy="0.6em">Apr</text>
    <text x="32.8" y="57.92" text-anchor="middle" dy="0.6em">May</text>
    <text x="43.62" y="57.92" text-anchor="middle" dy="0.6em">Jun</text>
    <text x="54.1" y="57.92" text-anchor="middle" dy="0.6em">Jul</text>
    <text x="64.92" y="57.92" text-anchor="middle" dy="0.6em">Aug</text>
    <text x="75.74" y="57.92" text-anchor="middle" dy="0.6em">Sep</text>
    <text x="86.21" y="57.92" text-anchor="middle" dy="0.6em">Oct</text>
    <text x="97.03" y="57.92" text-anchor="middle" dy="0.6em">Nov</text>
    <text x="107.5" y="57.92" text-anchor="middle" dy="0.6em">Dec</text>
    <text x="118.32" y="57.92" text-anchor="middle" dy="0.6em">Jan 2015</text>
    <text x="129.14" y="57.92" text-anchor="middle" dy="0.6em">Feb</text>
    <text x="138.92" y="57.92" text-anchor="middle" dy="0.6em">Mar</text>
    <text x="149.74" y="57.92" text-anchor="middle" dy="0.6em">Apr</text>
    <text x="160.21" y="57.92" text-anchor="middle" dy="0.6em">May</text>
    <text x="171.03" y="57.92" text-anchor="middle" dy="0.6em">Jun</text>
    <text x="181.51" y="57.92" text-anchor="middle" dy="0.6em">Jul</text>
  </g>
  <g class="guide colorkey" id="fig-9dbc11f0905146009c9ebc062ff9f034-element-4">
    <g fill="#4C404B" font-size="2.82" font-family="'PT Sans','Helvetica Neue','Helvetica',sans-serif" id="fig-9dbc11f0905146009c9ebc062ff9f034-element-5">
      <text x="187.67" y="29.14" dy="0.35em" id="fig-9dbc11f0905146009c9ebc062ff9f034-element-6" class="color_0.2">0.2</text>
      <text x="187.67" y="32.77" dy="0.35em" id="fig-9dbc11f0905146009c9ebc062ff9f034-element-7" class="color_0.3">0.3</text>
      <text x="187.67" y="36.4" dy="0.35em" id="fig-9dbc11f0905146009c9ebc062ff9f034-element-8" class="color_0.4">0.4</text>
    </g>
    <g stroke="#000000" stroke-opacity="0.000" id="fig-9dbc11f0905146009c9ebc062ff9f034-element-9">
      <rect x="184.85" y="28.24" width="1.81" height="1.81" id="fig-9dbc11f0905146009c9ebc062ff9f034-element-10" class="color_0.2" fill="#00BFFF"/>
      <rect x="184.85" y="31.86" width="1.81" height="1.81" id="fig-9dbc11f0905146009c9ebc062ff9f034-element-11" class="color_0.3" fill="#D4CA3A"/>
      <rect x="184.85" y="35.49" width="1.81" height="1.81" id="fig-9dbc11f0905146009c9ebc062ff9f034-element-12" class="color_0.4" fill="#FF5EA0"/>
    </g>
    <g fill="#362A35" font-size="3.88" font-family="'PT Sans','Helvetica Neue','Helvetica',sans-serif" stroke="#000000" stroke-opacity="0.000" id="fig-9dbc11f0905146009c9ebc062ff9f034-element-13">
      <text x="184.85" y="25.32" id="fig-9dbc11f0905146009c9ebc062ff9f034-element-14">Julia ver.</text>
    </g>
  </g>
  <g font-size="3.88" font-family="'PT Sans','Helvetica Neue','Helvetica',sans-serif" fill="#564A55" stroke="#000000" stroke-opacity="0.000" id="fig-9dbc11f0905146009c9ebc062ff9f034-element-15">
    <text x="8.81" y="28.96" text-anchor="middle" dy="0.35em" transform="rotate(-90, 8.81, 30.96)" id="fig-9dbc11f0905146009c9ebc062ff9f034-element-16">Number of Tagged Packages</text>
  </g>
  <g clip-path="url(#fig-9dbc11f0905146009c9ebc062ff9f034-element-18)" id="fig-9dbc11f0905146009c9ebc062ff9f034-element-17">
    <g pointer-events="visible" opacity="1" fill="#000000" fill-opacity="0.000" stroke="#000000" stroke-opacity="0.000" class="guide background" id="fig-9dbc11f0905146009c9ebc062ff9f034-element-19">
      <rect x="19.63" y="5" width="164.22" height="51.92" id="fig-9dbc11f0905146009c9ebc062ff9f034-element-20"/>
    </g>
    <g class="guide ygridlines xfixed" stroke-dasharray="0.5,0.5" stroke-width="0.2" stroke="#D0D0E0" id="fig-9dbc11f0905146009c9ebc062ff9f034-element-21">
      <path fill="none" d="M19.63,54.91 L 183.85 54.91" id="fig-9dbc11f0905146009c9ebc062ff9f034-element-22"/>
      <path fill="none" d="M19.63,45.33 L 183.85 45.33" id="fig-9dbc11f0905146009c9ebc062ff9f034-element-23"/>
      <path fill="none" d="M19.63,35.75 L 183.85 35.75" id="fig-9dbc11f0905146009c9ebc062ff9f034-element-24"/>
      <path fill="none" d="M19.63,26.17 L 183.85 26.17" id="fig-9dbc11f0905146009c9ebc062ff9f034-element-25"/>
      <path fill="none" d="M19.63,16.58 L 183.85 16.58" id="fig-9dbc11f0905146009c9ebc062ff9f034-element-26"/>
      <path fill="none" d="M19.63,7 L 183.85 7" id="fig-9dbc11f0905146009c9ebc062ff9f034-element-27"/>
    </g>
    <g class="guide xgridlines yfixed" stroke-dasharray="0.5,0.5" stroke-width="0.2" stroke="#D0D0E0" id="fig-9dbc11f0905146009c9ebc062ff9f034-element-28">
      <path fill="none" d="M22.33,5 L 22.33 56.92" id="fig-9dbc11f0905146009c9ebc062ff9f034-element-29"/>
      <path fill="none" d="M32.8,5 L 32.8 56.92" id="fig-9dbc11f0905146009c9ebc062ff9f034-element-30"/>
      <path fill="none" d="M43.62,5 L 43.62 56.92" id="fig-9dbc11f0905146009c9ebc062ff9f034-element-31"/>
      <path fill="none" d="M54.1,5 L 54.1 56.92" id="fig-9dbc11f0905146009c9ebc062ff9f034-element-32"/>
      <path fill="none" d="M64.92,5 L 64.92 56.92" id="fig-9dbc11f0905146009c9ebc062ff9f034-element-33"/>
      <path fill="none" d="M75.74,5 L 75.74 56.92" id="fig-9dbc11f0905146009c9ebc062ff9f034-element-34"/>
      <path fill="none" d="M86.21,5 L 86.21 56.92" id="fig-9dbc11f0905146009c9ebc062ff9f034-element-35"/>
      <path fill="none" d="M97.03,5 L 97.03 56.92" id="fig-9dbc11f0905146009c9ebc062ff9f034-element-36"/>
      <path fill="none" d="M107.5,5 L 107.5 56.92" id="fig-9dbc11f0905146009c9ebc062ff9f034-element-37"/>
      <path fill="none" d="M118.32,5 L 118.32 56.92" id="fig-9dbc11f0905146009c9ebc062ff9f034-element-38"/>
      <path fill="none" d="M129.14,5 L 129.14 56.92" id="fig-9dbc11f0905146009c9ebc062ff9f034-element-39"/>
      <path fill="none" d="M138.92,5 L 138.92 56.92" id="fig-9dbc11f0905146009c9ebc062ff9f034-element-40"/>
      <path fill="none" d="M149.74,5 L 149.74 56.92" id="fig-9dbc11f0905146009c9ebc062ff9f034-element-41"/>
      <path fill="none" d="M160.21,5 L 160.21 56.92" id="fig-9dbc11f0905146009c9ebc062ff9f034-element-42"/>
      <path fill="none" d="M171.03,5 L 171.03 56.92" id="fig-9dbc11f0905146009c9ebc062ff9f034-element-43"/>
      <path fill="none" d="M181.51,5 L 181.51 56.92" id="fig-9dbc11f0905146009c9ebc062ff9f034-element-44"/>
    </g>
    <g class="plotpanel" id="fig-9dbc11f0905146009c9ebc062ff9f034-element-45">
      <g class="geometry" stroke="#000000" stroke-opacity="0.000" fill="#4C404B" font-size="2.82" font-family="'PT Sans Caption','Helvetica Neue','Helvetica',sans-serif" id="fig-9dbc11f0905146009c9ebc062ff9f034-element-46">
        <text x="76.49" y="52.46" text-anchor="middle" dy="0.35em" id="fig-9dbc11f0905146009c9ebc062ff9f034-element-47" visibility="visible">v0.3.0</text>
        <text x="87.66" y="52.46" text-anchor="middle" dy="0.35em" id="fig-9dbc11f0905146009c9ebc062ff9f034-element-48" visibility="visible">v0.3.1</text>
        <text x="98.13" y="52.46" text-anchor="middle" dy="0.35em" id="fig-9dbc11f0905146009c9ebc062ff9f034-element-49" visibility="visible">v0.3.2</text>
        <text x="109.65" y="52.46" text-anchor="middle" dy="0.35em" id="fig-9dbc11f0905146009c9ebc062ff9f034-element-50" visibility="visible">v0.3.3</text>
        <text x="117.23" y="52.46" text-anchor="middle" dy="0.35em" id="fig-9dbc11f0905146009c9ebc062ff9f034-element-51" visibility="visible"></text>
        <text x="125.71" y="52.46" text-anchor="middle" dy="0.35em" id="fig-9dbc11f0905146009c9ebc062ff9f034-element-52" visibility="visible">v0.3.5</text>
        <text x="139.67" y="52.46" text-anchor="middle" dy="0.35em" id="fig-9dbc11f0905146009c9ebc062ff9f034-element-53" visibility="visible">v0.3.6</text>
        <text x="151.54" y="52.46" text-anchor="middle" dy="0.35em" id="fig-9dbc11f0905146009c9ebc062ff9f034-element-54" visibility="visible">v0.3.7</text>
        <text x="164.8" y="52.46" text-anchor="middle" dy="0.35em" id="fig-9dbc11f0905146009c9ebc062ff9f034-element-55" visibility="visible">v0.3.8</text>
        <text x="175.27" y="52.46" text-anchor="middle" dy="0.35em" id="fig-9dbc11f0905146009c9ebc062ff9f034-element-56" visibility="visible">v0.3.9</text>
      </g>
      <g class="yfixed" stroke-width="0.26" stroke="#333333" id="fig-9dbc11f0905146009c9ebc062ff9f034-element-57">
        <path fill="none" d="M71.55,5 L 71.55 56.92" id="fig-9dbc11f0905146009c9ebc062ff9f034-element-58"/>
        <path fill="none" d="M82.72,5 L 82.72 56.92" id="fig-9dbc11f0905146009c9ebc062ff9f034-element-59"/>
        <path fill="none" d="M93.19,5 L 93.19 56.92" id="fig-9dbc11f0905146009c9ebc062ff9f034-element-60"/>
        <path fill="none" d="M104.71,5 L 104.71 56.92" id="fig-9dbc11f0905146009c9ebc062ff9f034-element-61"/>
        <path fill="none" d="M116.23,5 L 116.23 56.92" id="fig-9dbc11f0905146009c9ebc062ff9f034-element-62"/>
        <path fill="none" d="M120.77,5 L 120.77 56.92" id="fig-9dbc11f0905146009c9ebc062ff9f034-element-63"/>
        <path fill="none" d="M134.73,5 L 134.73 56.92" id="fig-9dbc11f0905146009c9ebc062ff9f034-element-64"/>
        <path fill="none" d="M146.6,5 L 146.6 56.92" id="fig-9dbc11f0905146009c9ebc062ff9f034-element-65"/>
        <path fill="none" d="M159.86,5 L 159.86 56.92" id="fig-9dbc11f0905146009c9ebc062ff9f034-element-66"/>
        <path fill="none" d="M170.33,5 L 170.33 56.92" id="fig-9dbc11f0905146009c9ebc062ff9f034-element-67"/>
      </g>
      <g stroke-width="0.79" fill="#000000" fill-opacity="0.000" class="geometry color_0.4" stroke="#FF5EA0" id="fig-9dbc11f0905146009c9ebc062ff9f034-element-68">
        <path fill="none" d="M69.11,39.2 L 69.45 38.91 69.8 38.82 70.15 38.72 70.5 38.72 70.85 38.72 71.55 38.43 71.9 38.43 72.25 38.34 72.6 38.34 72.94 38.34 73.29 38.05 73.64 37.86 73.99 37.86 74.69 37.67 75.04 37.38 75.74 37.19 76.09 37.19 76.44 37.19 77.83 37.19 78.88 36.61 79.23 36.52 79.58 36.42 79.93 36.23 80.28 36.23 80.62 36.23 80.97 35.46 81.32 35.46 81.67 35.46 82.37 35.37 82.72 35.37 83.07 35.27 83.42 35.27 83.77 35.27 84.11 35.17 84.46 35.17 85.16 35.27 85.51 35.17 85.86 35.17 86.21 34.98 86.56 34.79 86.91 34.79 87.26 34.79 87.61 34.6 88.65 34.41 89 34.41 89.35 34.22 89.7 34.12 90.05 34.12 90.4 34.12 90.75 33.93 91.1 33.93 91.45 33.83 91.79 33.74 92.14 33.74 92.49 33.74 92.84 33.74 93.19 33.54 93.54 33.35 93.89 33.35 94.24 33.35 94.59 33.26 94.94 33.26 95.29 33.16 95.63 33.16 95.98 32.97 96.33 32.87 96.68 32.87 97.03 32.78 97.38 32.78 97.73 32.78 98.08 32.78 98.43 32.68 98.78 32.59 99.82 32.59 101.57 32.01 101.92 31.82 102.27 31.82 102.62 31.72 102.96 31.72 103.31 31.44 103.66 31.44 105.06 30.96 105.41 30.96 107.15 30.86 107.85 30.86 108.2 30.67 108.55 30.57 108.9 30.57 109.25 30.57 109.6 30.38 109.95 30.19 110.99 30.1 111.34 30 112.04 29.62 112.39 29.62 112.74 29.62 113.79 29.62 114.48 29.42 115.53 29.23 116.93 29.04 117.63 28.66 118.67 28.47 121.12 27.8 122.51 27.12 122.86 26.93 123.21 26.93 123.56 26.36 123.91 26.36 124.26 26.36 124.96 26.26 125.31 26.17 125.65 26.17 126 25.88 126.35 25.78 126.7 25.78 127.05 25.78 127.75 25.5 128.1 25.21 128.45 25.11 129.84 24.35 130.19 24.35 130.54 24.63 131.24 24.35 131.94 24.06 132.29 24.06 133.33 23.87 135.08 23.87 136.82 23.77 138.57 22.91 138.92 22.91 139.27 22.91 139.62 22.72 139.97 22.72 140.66 22.52 141.36 22.52 142.76 22.43 143.11 22.24 143.46 22.24 143.81 22.24 144.15 22.05 144.5 22.14 144.85 21.95 149.04 21.57 149.74 21.57 150.09 21.28 150.79 21.28 152.18 21.18 152.88 21.09 153.58 20.8 154.98 20.61 155.67 20.42 156.02 20.13 156.72 19.65 157.07 19.65 157.42 19.55 157.77 19.36 158.12 19.36 158.47 19.27 159.16 19.17 159.51 18.98 160.21 18.98 160.91 18.79 161.26 18.5 161.61 18.4 162.31 18.21 162.66 18.12 164.4 17.73 165.8 17.54 166.15 17.35 168.94 17.06 169.29 17.06 169.64 17.06 170.68 16.68 171.03 16.58 171.38 16.39 172.08 16.2 172.78 16.2 173.48 16.01 176.62 15.34 177.67 15.34 178.01 15.34 178.36 15.15 178.71 15.15 179.06 14.86 179.41 14.86 179.76 14.86 180.11 14.76 181.16 14.67 181.85 14.47" id="fig-9dbc11f0905146009c9ebc062ff9f034-element-69"/>
      </g>
      <g stroke-width="0.79" fill="#000000" fill-opacity="0.000" class="geometry color_0.3" stroke="#D4CA3A" id="fig-9dbc11f0905146009c9ebc062ff9f034-element-70">
        <path fill="none" d="M21.63,45.72 L 21.98 45.72 22.33 45.62 22.68 45.62 23.03 45.62 23.38 45.62 23.73 45.62 24.08 45.52 24.77 45.52 25.12 45.43 25.82 45.33 26.52 45.14 26.87 45.14 27.57 45.14 27.91 45.04 30.36 44.66 31.41 44.66 32.1 44.66 34.55 44.57 34.9 44.37 35.25 44.28 35.59 44.28 35.94 44.28 36.29 44.28 36.64 44.28 36.99 44.28 37.34 44.28 37.69 44.28 38.04 44.28 38.39 43.99 39.09 43.89 39.43 43.89 39.78 43.89 40.13 43.7 40.48 43.7 40.83 43.7 41.18 43.61 41.53 43.61 41.88 43.61 42.23 43.61 42.58 43.61 42.92 43.51 43.27 43.51 43.62 47.34 43.97 43.42 44.32 43.32 44.67 43.22 46.76 42.65 47.11 42.55 47.46 42.46 47.81 42.36 48.16 42.17 48.51 42.17 48.86 41.98 49.21 41.98 49.56 41.88 49.91 41.79 50.6 41.79 50.95 41.59 51.3 41.59 51.65 41.59 52 41.59 52.35 41.59 52.7 41.31 53.05 41.31 53.75 41.21 54.1 41.02 54.44 40.92 54.79 40.83 55.14 40.83 55.49 40.64 56.19 40.54 56.54 40.25 56.89 40.25 57.24 40.25 57.93 39.77 58.63 39.49 58.98 39.49 59.33 39.39 59.68 39.39 60.73 39.29 61.08 39.29 61.43 39.2 61.77 39.2 62.12 39.2 62.47 39.1 62.82 39.01 63.17 38.91 63.87 38.91 64.22 38.91 64.92 38.91 65.27 38.82 65.61 38.53 65.96 38.53 66.66 38.43 67.01 38.43 67.36 38.24 67.71 38.14 68.06 38.05 68.41 37.95 68.76 37.86 69.11 37.67 69.45 37.67 69.8 37.57 70.15 37.47 70.5 37.47 70.85 37.47 71.55 37.19 71.9 37.19 72.25 37.09 72.6 37.09 72.94 37.09 73.29 36.8 73.64 36.71 73.99 36.61 74.69 37.76 75.04 37.47 75.74 37.28 76.09 37.28 76.44 37.28 77.83 37.28 78.88 36.71 79.23 36.61 79.58 36.52 79.93 36.32 80.28 36.32 80.62 36.32 80.97 35.56 81.32 35.56 81.67 35.56 82.37 35.56 82.72 35.46 83.07 35.37 83.42 35.37 83.77 35.37 84.11 35.27 84.46 35.27 85.16 35.37 85.51 35.27 85.86 35.27 86.21 35.08 86.56 33.16 86.91 34.89 87.26 34.89 87.61 34.69 88.65 34.5 89 34.5 89.35 34.31 89.7 34.22 90.05 34.22 90.4 34.22 90.75 34.02 91.1 34.02 91.45 33.93 91.79 33.83 92.14 33.83 92.49 33.83 92.84 33.83 93.19 33.74 93.54 33.54 93.89 33.54 94.24 33.54 94.59 33.45 94.94 33.45 95.29 33.35 95.63 33.35 95.98 33.16 96.33 33.07 96.68 33.07 97.03 32.97 97.38 32.97 97.73 32.97 98.08 32.87 98.43 32.87 98.78 32.78 99.82 32.78 101.57 32.3 101.92 32.11 102.27 32.11 102.62 32.01 102.96 32.01 103.31 31.72 103.66 31.72 105.06 31.24 105.41 31.24 107.15 31.15 107.85 31.15 108.2 31.05 108.55 30.96 108.9 30.96 109.25 30.96 109.6 30.77 109.95 30.67 110.99 30.48 111.34 30.38 112.04 30.1 112.39 30 112.74 30 113.79 30 114.48 29.81 115.53 29.62 116.93 29.42 117.63 29.14 118.67 28.75 121.12 28.18 122.51 27.51 122.86 27.32 123.21 27.32 123.56 26.84 123.91 26.84 124.26 26.84 124.96 26.84 125.31 26.65 125.65 26.65 126 26.36 126.35 26.26 126.7 26.26 127.05 26.26 127.75 25.97 128.1 25.78 128.45 25.69 129.84 24.92 130.19 25.11 130.54 25.11 131.24 24.82 131.94 24.54 132.29 24.54 133.33 24.35 135.08 24.35 136.82 23.77 138.57 23.39 138.92 23.39 139.27 23.39 139.62 23.2 139.97 23.2 140.66 23.2 141.36 23.2 142.76 23 143.11 22.81 143.46 22.72 143.81 22.72 144.15 22.52 144.5 22.62 144.85 22.43 149.04 22.33 149.74 22.33 150.09 22.05 150.79 22.05 152.18 21.95 152.88 21.95 153.58 21.66 154.98 21.66 155.67 21.47 156.02 21.37 156.72 20.9 157.07 20.9 157.42 20.8 157.77 20.51 158.12 20.51 158.47 20.42 159.16 20.32 159.51 20.22 160.21 20.22 160.91 20.03 161.26 19.75 161.61 19.65 162.31 19.46 162.66 19.36 164.4 18.98 165.8 18.79 166.15 18.6 168.94 18.21 169.29 18.21 169.64 18.21 170.68 17.92 171.03 17.83 171.38 17.73 172.08 17.54 172.78 17.54 173.48 17.45 176.62 16.97 177.67 17.06 178.01 17.06 178.36 16.87 178.71 16.87 179.06 16.68 179.41 16.68 179.76 16.68 180.11 16.58 181.16 16.58 181.85 16.39" id="fig-9dbc11f0905146009c9ebc062ff9f034-element-71"/>
      </g>
      <g stroke-width="0.79" fill="#000000" fill-opacity="0.000" class="geometry color_0.2" stroke="#00BFFF" id="fig-9dbc11f0905146009c9ebc062ff9f034-element-72">
        <path fill="none" d="M21.63,46.77 L 21.98 46.77 22.33 46.67 22.68 46.67 23.03 46.67 23.38 46.67 23.73 46.67 24.08 46.67 24.77 46.67 25.12 46.67 25.82 46.58 26.52 46.48 26.87 46.48 27.57 46.39 27.91 46.29 30.36 46.1 31.41 46.1 32.1 46.1 34.55 46 34.9 45.91 35.25 45.91 35.59 45.91 35.94 45.91 36.29 45.91 36.64 45.91 36.99 45.91 37.34 45.91 37.69 45.91 38.04 45.62 38.39 45.62 39.09 45.52 39.43 45.52 39.78 45.52 40.13 45.43 40.48 46.19 40.83 45.72 41.18 45.72 41.53 45.72 41.88 45.72 42.23 45.72 42.58 45.72 42.92 45.72 43.27 45.72 43.62 45.62 43.97 45.62 44.32 45.52 44.67 45.52 46.76 45.04 47.11 45.04 47.46 44.95 47.81 44.85 48.16 44.66 48.51 44.66 48.86 44.66 49.21 44.66 49.56 44.66 49.91 44.57 50.6 44.57 50.95 44.37 51.3 44.37 51.65 44.37 52 44.37 52.35 44.37 52.7 44.09 53.05 44.09 53.75 43.99 54.1 43.8 54.44 43.7 54.79 43.61 55.14 43.61 55.49 43.61 56.19 43.42 56.54 43.32 56.89 43.22 57.24 43.22 57.93 43.03 58.63 42.84 58.98 42.84 59.33 42.84 59.68 42.84 60.73 42.84 61.08 42.84 61.43 42.74 61.77 42.74 62.12 42.74 62.47 42.65 62.82 42.65 63.17 42.65 63.87 42.55 64.22 42.55 64.92 42.55 65.27 42.55 65.61 42.27 65.96 42.27 66.66 42.46 67.01 42.46 67.36 42.27 67.71 42.17 68.06 42.17 68.41 41.98 68.76 41.98" id="fig-9dbc11f0905146009c9ebc062ff9f034-element-73"/>
      </g>
    </g>
  </g>
  <g class="guide ylabels" font-size="2.82" font-family="'PT Sans Caption','Helvetica Neue','Helvetica',sans-serif" fill="#6C606B" id="fig-9dbc11f0905146009c9ebc062ff9f034-element-74">
    <text x="18.63" y="54.91" text-anchor="end" dy="0.35em" id="fig-9dbc11f0905146009c9ebc062ff9f034-element-75">200</text>
    <text x="18.63" y="45.33" text-anchor="end" dy="0.35em" id="fig-9dbc11f0905146009c9ebc062ff9f034-element-76">300</text>
    <text x="18.63" y="35.75" text-anchor="end" dy="0.35em" id="fig-9dbc11f0905146009c9ebc062ff9f034-element-77">400</text>
    <text x="18.63" y="26.17" text-anchor="end" dy="0.35em" id="fig-9dbc11f0905146009c9ebc062ff9f034-element-78">500</text>
    <text x="18.63" y="16.58" text-anchor="end" dy="0.35em" id="fig-9dbc11f0905146009c9ebc062ff9f034-element-79">600</text>
    <text x="18.63" y="7" text-anchor="end" dy="0.35em" id="fig-9dbc11f0905146009c9ebc062ff9f034-element-80">700</text>
  </g>
</g>
<defs>
<clipPath id="fig-9dbc11f0905146009c9ebc062ff9f034-element-18">
  <path d="M19.63,5 L 183.85 5 183.85 56.92 19.63 56.92" />
</clipPath
></defs>
</svg>
