<?xml version="1.0" encoding="UTF-8"?>
<svg xmlns="http://www.w3.org/2000/svg"
     xmlns:xlink="http://www.w3.org/1999/xlink"
     xmlns:gadfly="http://www.gadflyjl.org/ns"
     version="1.2"
     width="203.2mm" height="76.2mm" viewBox="0 0 203.2 76.2"
     stroke="none"
     fill="#000000"
     stroke-width="0.3"
     font-size="3.88"
>
<g class="plotroot xscalable yscalable" id="fig-656a624dfc354df7802d9be9b776290d-element-1">
  <g font-size="3.88" font-family="'PT Sans','Helvetica Neue','Helvetica',sans-serif" fill="#564A55" stroke="none" id="fig-656a624dfc354df7802d9be9b776290d-element-2">
    <text x="101.74" y="68.2" text-anchor="middle">Date</text>
  </g>
  <g class="guide xlabels" font-size="2.82" font-family="'PT Sans Caption','Helvetica Neue','Helvetica',sans-serif" fill="#6C606B" id="fig-656a624dfc354df7802d9be9b776290d-element-3">
    <text x="22.88" y="62.59" text-anchor="middle">Apr</text>
    <text x="39.14" y="62.59" text-anchor="middle">May</text>
    <text x="55.94" y="62.59" text-anchor="middle">Jun</text>
    <text x="72.2" y="62.59" text-anchor="middle">Jul</text>
    <text x="89.01" y="62.59" text-anchor="middle">Aug</text>
    <text x="105.81" y="62.59" text-anchor="middle">Sep</text>
    <text x="122.07" y="62.59" text-anchor="middle">Oct</text>
    <text x="138.87" y="62.59" text-anchor="middle">Nov</text>
    <text x="155.13" y="62.59" text-anchor="middle">Dec</text>
    <text x="171.93" y="62.59" text-anchor="middle">Jan 2015</text>
  </g>
  <g class="guide colorkey" id="fig-656a624dfc354df7802d9be9b776290d-element-4">
    <g fill="#4C404B" font-size="2.82" font-family="'PT Sans','Helvetica Neue','Helvetica',sans-serif" id="fig-656a624dfc354df7802d9be9b776290d-element-5">
      <text x="187.67" y="30.14" dy="0.35em" id="fig-656a624dfc354df7802d9be9b776290d-element-6" class="color_0.2">0.2</text>
      <text x="187.67" y="33.77" dy="0.35em" id="fig-656a624dfc354df7802d9be9b776290d-element-7" class="color_0.3">0.3</text>
      <text x="187.67" y="37.4" dy="0.35em" id="fig-656a624dfc354df7802d9be9b776290d-element-8" class="color_0.4">0.4</text>
    </g>
    <g stroke="none" id="fig-656a624dfc354df7802d9be9b776290d-element-9">
      <rect x="184.85" y="29.24" width="1.81" height="1.81" id="fig-656a624dfc354df7802d9be9b776290d-element-10" fill="#00BFFF" class="color_0.2"/>
      <rect x="184.85" y="32.86" width="1.81" height="1.81" id="fig-656a624dfc354df7802d9be9b776290d-element-11" fill="#D4CA3A" class="color_0.3"/>
      <rect x="184.85" y="36.49" width="1.81" height="1.81" id="fig-656a624dfc354df7802d9be9b776290d-element-12" fill="#FF5EA0" class="color_0.4"/>
    </g>
    <g fill="#362A35" font-size="3.88" font-family="'PT Sans','Helvetica Neue','Helvetica',sans-serif" stroke="none" id="fig-656a624dfc354df7802d9be9b776290d-element-13">
      <text x="184.85" y="26.32" id="fig-656a624dfc354df7802d9be9b776290d-element-14">Julia ver.</text>
    </g>
  </g>
  <g font-size="3.88" font-family="'PT Sans','Helvetica Neue','Helvetica',sans-serif" fill="#564A55" stroke="none" id="fig-656a624dfc354df7802d9be9b776290d-element-15">
    <text x="8.81" y="29.96" text-anchor="middle" dy="0.35em" transform="rotate(-90, 8.81, 31.96)" id="fig-656a624dfc354df7802d9be9b776290d-element-16">Number of Tagged Packages</text>
  </g>
  <g clip-path="url(#fig-656a624dfc354df7802d9be9b776290d-element-18)" id="fig-656a624dfc354df7802d9be9b776290d-element-17">
    <g pointer-events="visible" opacity="1" fill="none" stroke="none" class="guide background" id="fig-656a624dfc354df7802d9be9b776290d-element-19">
      <rect x="19.63" y="5" width="164.22" height="53.91" id="fig-656a624dfc354df7802d9be9b776290d-element-20"/>
    </g>
    <g class="guide ygridlines xfixed" stroke-dasharray="0.5,0.5" stroke-width="0.2" stroke="#D0D0E0" id="fig-656a624dfc354df7802d9be9b776290d-element-21">
      <path fill="none" d="M19.63,56.91 L 183.85 56.91" id="fig-656a624dfc354df7802d9be9b776290d-element-22"/>
      <path fill="none" d="M19.63,46.93 L 183.85 46.93" id="fig-656a624dfc354df7802d9be9b776290d-element-23"/>
      <path fill="none" d="M19.63,36.95 L 183.85 36.95" id="fig-656a624dfc354df7802d9be9b776290d-element-24"/>
      <path fill="none" d="M19.63,26.97 L 183.85 26.97" id="fig-656a624dfc354df7802d9be9b776290d-element-25"/>
      <path fill="none" d="M19.63,16.98 L 183.85 16.98" id="fig-656a624dfc354df7802d9be9b776290d-element-26"/>
      <path fill="none" d="M19.63,7 L 183.85 7" id="fig-656a624dfc354df7802d9be9b776290d-element-27"/>
    </g>
    <g class="guide xgridlines yfixed" stroke-dasharray="0.5,0.5" stroke-width="0.2" stroke="#D0D0E0" id="fig-656a624dfc354df7802d9be9b776290d-element-28">
      <path fill="none" d="M22.88,5 L 22.88 58.91" id="fig-656a624dfc354df7802d9be9b776290d-element-29"/>
      <path fill="none" d="M39.14,5 L 39.14 58.91" id="fig-656a624dfc354df7802d9be9b776290d-element-30"/>
      <path fill="none" d="M55.94,5 L 55.94 58.91" id="fig-656a624dfc354df7802d9be9b776290d-element-31"/>
      <path fill="none" d="M72.2,5 L 72.2 58.91" id="fig-656a624dfc354df7802d9be9b776290d-element-32"/>
      <path fill="none" d="M89.01,5 L 89.01 58.91" id="fig-656a624dfc354df7802d9be9b776290d-element-33"/>
      <path fill="none" d="M105.81,5 L 105.81 58.91" id="fig-656a624dfc354df7802d9be9b776290d-element-34"/>
      <path fill="none" d="M122.07,5 L 122.07 58.91" id="fig-656a624dfc354df7802d9be9b776290d-element-35"/>
      <path fill="none" d="M138.87,5 L 138.87 58.91" id="fig-656a624dfc354df7802d9be9b776290d-element-36"/>
      <path fill="none" d="M155.13,5 L 155.13 58.91" id="fig-656a624dfc354df7802d9be9b776290d-element-37"/>
      <path fill="none" d="M171.93,5 L 171.93 58.91" id="fig-656a624dfc354df7802d9be9b776290d-element-38"/>
    </g>
    <g class="plotpanel" id="fig-656a624dfc354df7802d9be9b776290d-element-39">
      <g stroke-width="0.79" fill="none" class="geometry color_0.4" stroke="#FF5EA0" id="fig-656a624dfc354df7802d9be9b776290d-element-40">
        <path fill="none" d="M95.51,34.15 L 96.05 33.55 96.59 33.36 97.14 33.16 97.68 33.16 98.22 33.16 99.3 32.56 99.85 32.56 100.39 32.36 100.93 32.36 101.47 32.36 102.01 31.76 102.56 31.36 103.1 31.36 104.18 30.96 104.72 30.36 105.81 29.96 106.35 29.96 106.89 29.96 109.06 29.96 110.69 28.76 111.23 28.56 111.77 28.36 112.31 27.96 112.85 27.96 113.4 27.96 113.94 26.37 114.48 26.37 115.02 26.37 116.11 26.17 116.65 26.17 117.19 25.97 117.73 25.97 118.27 25.97 118.82 25.77 119.36 25.77 120.44 25.97 120.98 25.77 121.53 25.77 122.07 25.37 122.61 24.97 123.15 24.97 123.69 24.97 124.24 24.57 125.86 24.17 126.4 24.17 126.95 23.77 127.49 23.57 128.03 23.57 128.57 23.57 129.11 23.17 129.66 23.17 130.2 22.97 130.74 22.77 131.28 22.77 131.82 22.77 132.37 22.77 132.91 22.37 133.45 21.97 133.99 21.97 134.53 21.97 135.08 21.77 135.62 21.77 136.16 21.58 136.7 21.58 137.24 21.18 137.79 20.98 138.33 20.98 138.87 20.78 139.41 20.78 139.95 20.78 140.5 20.78 141.04 20.58 141.58 20.38 143.21 20.38 145.91 19.18 146.46 18.78 147 18.78 147.54 18.58 148.08 18.58 148.62 17.98 149.17 17.98 151.33 16.98 151.88 16.98 154.59 16.78 155.67 16.78 156.21 16.38 156.75 16.18 157.3 16.18 157.84 16.18 158.38 15.79 158.92 15.39 160.55 15.19 161.09 14.99 162.17 14.19 162.72 14.19 163.26 14.19 164.88 14.19 165.97 13.79 167.59 13.39 169.76 12.99 170.85 12.19 172.47 11.79 176.27 10.39 178.43 9 178.98 8.6 179.52 8.6 180.06 7.4 180.6 7.4 181.14 7.4 182.23 7.2" id="fig-656a624dfc354df7802d9be9b776290d-element-41"/>
      </g>
      <g stroke-width="0.79" fill="none" class="geometry color_0.3" stroke="#D4CA3A" id="fig-656a624dfc354df7802d9be9b776290d-element-42">
        <path fill="none" d="M21.8,47.73 L 22.34 47.73 22.88 47.53 23.43 47.53 23.97 47.53 24.51 47.53 25.05 47.53 25.59 47.33 26.68 47.33 27.22 47.13 28.3 46.93 29.39 46.53 29.93 46.53 31.01 46.53 31.56 46.33 35.35 45.53 36.98 45.53 38.06 45.53 41.85 45.33 42.4 44.94 42.94 44.74 43.48 44.74 44.02 44.74 44.56 44.74 45.11 44.74 45.65 44.74 46.19 44.74 46.73 44.74 47.27 44.74 47.82 44.14 48.9 43.94 49.44 43.94 49.98 43.94 50.53 43.54 51.07 43.54 51.61 43.54 52.15 43.34 52.69 43.34 53.23 43.34 53.78 43.34 54.32 43.34 54.86 43.14 55.4 43.14 55.94 51.12 56.49 42.94 57.03 42.74 57.57 42.54 60.82 41.34 61.36 41.14 61.91 40.94 62.45 40.74 62.99 40.34 63.53 40.34 64.07 39.94 64.62 39.94 65.16 39.74 65.7 39.54 66.78 39.54 67.33 39.15 67.87 39.15 68.41 39.15 68.95 39.15 69.49 39.15 70.04 38.55 70.58 38.55 71.66 38.35 72.2 37.95 72.75 37.75 73.29 37.55 73.83 37.55 74.37 37.15 75.46 36.95 76 36.35 76.54 36.35 77.08 36.35 78.17 35.35 79.25 34.75 79.79 34.75 80.33 34.55 80.88 34.55 82.5 34.35 83.04 34.35 83.59 34.15 84.13 34.15 84.67 34.15 85.21 33.95 85.75 33.75 86.3 33.55 87.38 33.55 87.92 33.55 89.01 33.55 89.55 33.36 90.09 32.76 90.63 32.76 91.72 32.56 92.26 32.56 92.8 32.16 93.34 31.96 93.88 31.76 94.43 31.56 94.97 31.36 95.51 30.96 96.05 30.96 96.59 30.76 97.14 30.56 97.68 30.56 98.22 30.56 99.3 29.96 99.85 29.96 100.39 29.76 100.93 29.76 101.47 29.76 102.01 29.16 102.56 28.96 103.1 28.76 104.18 31.16 104.72 30.56 105.81 30.16 106.35 30.16 106.89 30.16 109.06 30.16 110.69 28.96 111.23 28.76 111.77 28.56 112.31 28.16 112.85 28.16 113.4 28.16 113.94 26.57 114.48 26.57 115.02 26.57 116.11 26.57 116.65 26.37 117.19 26.17 117.73 26.17 118.27 26.17 118.82 25.97 119.36 25.97 120.44 26.17 120.98 25.97 121.53 25.97 122.07 25.57 122.61 21.58 123.15 25.17 123.69 25.17 124.24 24.77 125.86 24.37 126.4 24.37 126.95 23.97 127.49 23.77 128.03 23.77 128.57 23.77 129.11 23.37 129.66 23.37 130.2 23.17 130.74 22.97 131.28 22.97 131.82 22.97 132.37 22.97 132.91 22.77 133.45 22.37 133.99 22.37 134.53 22.37 135.08 22.17 135.62 22.17 136.16 21.97 136.7 21.97 137.24 21.58 137.79 21.38 138.33 21.38 138.87 21.18 139.41 21.18 139.95 21.18 140.5 20.98 141.04 20.98 141.58 20.78 143.21 20.78 145.91 19.78 146.46 19.38 147 19.38 147.54 19.18 148.08 19.18 148.62 18.58 149.17 18.58 151.33 17.58 151.88 17.58 154.59 17.38 155.67 17.38 156.21 17.18 156.75 16.98 157.3 16.98 157.84 16.98 158.38 16.58 158.92 16.38 160.55 15.98 161.09 15.79 162.17 15.19 162.72 14.99 163.26 14.99 164.88 14.99 165.97 14.59 167.59 14.19 169.76 13.79 170.85 13.19 172.47 12.39 176.27 11.19 178.43 9.8 178.98 9.4 179.52 9.4 180.06 8.4 180.6 8.4 181.14 8.4 182.23 8.4" id="fig-656a624dfc354df7802d9be9b776290d-element-43"/>
      </g>
      <g stroke-width="0.79" fill="none" class="geometry color_0.2" stroke="#00BFFF" id="fig-656a624dfc354df7802d9be9b776290d-element-44">
        <path fill="none" d="M21.8,49.93 L 22.34 49.93 22.88 49.73 23.43 49.73 23.97 49.73 24.51 49.73 25.05 49.73 25.59 49.73 26.68 49.73 27.22 49.73 28.3 49.53 29.39 49.33 29.93 49.33 31.01 49.13 31.56 48.93 35.35 48.53 36.98 48.53 38.06 48.53 41.85 48.33 42.4 48.13 42.94 48.13 43.48 48.13 44.02 48.13 44.56 48.13 45.11 48.13 45.65 48.13 46.19 48.13 46.73 48.13 47.27 47.53 47.82 47.53 48.9 47.33 49.44 47.33 49.98 47.33 50.53 47.13 51.07 48.73 51.61 47.73 52.15 47.73 52.69 47.73 53.23 47.73 53.78 47.73 54.32 47.73 54.86 47.73 55.4 47.73 55.94 47.53 56.49 47.53 57.03 47.33 57.57 47.33 60.82 46.33 61.36 46.33 61.91 46.13 62.45 45.93 62.99 45.53 63.53 45.53 64.07 45.53 64.62 45.53 65.16 45.53 65.7 45.33 66.78 45.33 67.33 44.94 67.87 44.94 68.41 44.94 68.95 44.94 69.49 44.94 70.04 44.34 70.58 44.34 71.66 44.14 72.2 43.74 72.75 43.54 73.29 43.34 73.83 43.34 74.37 43.34 75.46 42.94 76 42.74 76.54 42.54 77.08 42.54 78.17 42.14 79.25 41.74 79.79 41.74 80.33 41.74 80.88 41.74 82.5 41.74 83.04 41.74 83.59 41.54 84.13 41.54 84.67 41.54 85.21 41.34 85.75 41.34 86.3 41.34 87.38 41.14 87.92 41.14 89.01 41.14 89.55 41.14 90.09 40.54 90.63 40.54 91.72 40.94 92.26 40.94 92.8 40.54 93.34 40.34 93.88 40.34 94.43 39.94 94.97 39.94" id="fig-656a624dfc354df7802d9be9b776290d-element-45"/>
      </g>
    </g>
  </g>
  <g class="guide ylabels" font-size="2.82" font-family="'PT Sans Caption','Helvetica Neue','Helvetica',sans-serif" fill="#6C606B" id="fig-656a624dfc354df7802d9be9b776290d-element-46">
    <text x="18.63" y="56.91" text-anchor="end" dy="0.35em" id="fig-656a624dfc354df7802d9be9b776290d-element-47">250</text>
    <text x="18.63" y="46.93" text-anchor="end" dy="0.35em" id="fig-656a624dfc354df7802d9be9b776290d-element-48">300</text>
    <text x="18.63" y="36.95" text-anchor="end" dy="0.35em" id="fig-656a624dfc354df7802d9be9b776290d-element-49">350</text>
    <text x="18.63" y="26.97" text-anchor="end" dy="0.35em" id="fig-656a624dfc354df7802d9be9b776290d-element-50">400</text>
    <text x="18.63" y="16.98" text-anchor="end" dy="0.35em" id="fig-656a624dfc354df7802d9be9b776290d-element-51">450</text>
    <text x="18.63" y="7" text-anchor="end" dy="0.35em" id="fig-656a624dfc354df7802d9be9b776290d-element-52">500</text>
  </g>
</g>
<defs>
<clipPath id="fig-656a624dfc354df7802d9be9b776290d-element-18">
  <path d="M19.63,5 L 183.85 5 183.85 58.91 19.63 58.91" />
</clipPath
></defs>
</svg>
