<?xml version="1.0" encoding="UTF-8"?>
<svg xmlns="http://www.w3.org/2000/svg"
     xmlns:xlink="http://www.w3.org/1999/xlink"
     xmlns:gadfly="http://www.gadflyjl.org/ns"
     version="1.2"
     width="203.2mm" height="76.2mm" viewBox="0 0 203.2 76.2"
     stroke="none"
     fill="#000000"
     stroke-width="0.3"
     font-size="3.88"
>
<g class="plotroot xscalable yscalable" id="fig-4928199cd82e40169cefc069bbc126c0-element-1">
  <g font-size="3.88" font-family="'PT Sans','Helvetica Neue','Helvetica',sans-serif" fill="#564A55" stroke="#000000" stroke-opacity="0.000" id="fig-4928199cd82e40169cefc069bbc126c0-element-2">
    <text x="101.74" y="64.59" text-anchor="middle" dy="0.6em">Date</text>
  </g>
  <g class="guide xlabels" font-size="2.82" font-family="'PT Sans Caption','Helvetica Neue','Helvetica',sans-serif" fill="#6C606B" id="fig-4928199cd82e40169cefc069bbc126c0-element-3">
    <text x="22.28" y="57.92" text-anchor="middle" dy="0.6em">Apr</text>
    <text x="32.07" y="57.92" text-anchor="middle" dy="0.6em">May</text>
    <text x="42.19" y="57.92" text-anchor="middle" dy="0.6em">Jun</text>
    <text x="51.98" y="57.92" text-anchor="middle" dy="0.6em">Jul</text>
    <text x="62.1" y="57.92" text-anchor="middle" dy="0.6em">Aug</text>
    <text x="72.21" y="57.92" text-anchor="middle" dy="0.6em">Sep</text>
    <text x="82" y="57.92" text-anchor="middle" dy="0.6em">Oct</text>
    <text x="92.12" y="57.92" text-anchor="middle" dy="0.6em">Nov</text>
    <text x="101.91" y="57.92" text-anchor="middle" dy="0.6em">Dec</text>
    <text x="112.02" y="57.92" text-anchor="middle" dy="0.6em">Jan 2015</text>
    <text x="122.14" y="57.92" text-anchor="middle" dy="0.6em">Feb</text>
    <text x="131.27" y="57.92" text-anchor="middle" dy="0.6em">Mar</text>
    <text x="141.39" y="57.92" text-anchor="middle" dy="0.6em">Apr</text>
    <text x="151.18" y="57.92" text-anchor="middle" dy="0.6em">May</text>
    <text x="161.3" y="57.92" text-anchor="middle" dy="0.6em">Jun</text>
    <text x="171.09" y="57.92" text-anchor="middle" dy="0.6em">Jul</text>
    <text x="181.2" y="57.92" text-anchor="middle" dy="0.6em">Aug</text>
  </g>
  <g class="guide colorkey" id="fig-4928199cd82e40169cefc069bbc126c0-element-4">
    <g fill="#4C404B" font-size="2.82" font-family="'PT Sans','Helvetica Neue','Helvetica',sans-serif" id="fig-4928199cd82e40169cefc069bbc126c0-element-5">
      <text x="187.67" y="29.14" dy="0.35em" id="fig-4928199cd82e40169cefc069bbc126c0-element-6" class="color_0.2">0.2</text>
      <text x="187.67" y="32.77" dy="0.35em" id="fig-4928199cd82e40169cefc069bbc126c0-element-7" class="color_0.3">0.3</text>
      <text x="187.67" y="36.4" dy="0.35em" id="fig-4928199cd82e40169cefc069bbc126c0-element-8" class="color_0.4">0.4</text>
    </g>
    <g stroke="#000000" stroke-opacity="0.000" id="fig-4928199cd82e40169cefc069bbc126c0-element-9">
      <rect x="184.85" y="28.24" width="1.81" height="1.81" id="fig-4928199cd82e40169cefc069bbc126c0-element-10" class="color_0.2" fill="#00BFFF"/>
      <rect x="184.85" y="31.86" width="1.81" height="1.81" id="fig-4928199cd82e40169cefc069bbc126c0-element-11" class="color_0.3" fill="#D4CA3A"/>
      <rect x="184.85" y="35.49" width="1.81" height="1.81" id="fig-4928199cd82e40169cefc069bbc126c0-element-12" class="color_0.4" fill="#FF5EA0"/>
    </g>
    <g fill="#362A35" font-size="3.88" font-family="'PT Sans','Helvetica Neue','Helvetica',sans-serif" stroke="#000000" stroke-opacity="0.000" id="fig-4928199cd82e40169cefc069bbc126c0-element-13">
      <text x="184.85" y="25.32" id="fig-4928199cd82e40169cefc069bbc126c0-element-14">Julia ver.</text>
    </g>
  </g>
  <g font-size="3.88" font-family="'PT Sans','Helvetica Neue','Helvetica',sans-serif" fill="#564A55" stroke="#000000" stroke-opacity="0.000" id="fig-4928199cd82e40169cefc069bbc126c0-element-15">
    <text x="8.81" y="28.96" text-anchor="middle" dy="0.35em" transform="rotate(-90, 8.81, 30.96)" id="fig-4928199cd82e40169cefc069bbc126c0-element-16">Number of Tagged Packages</text>
  </g>
  <g clip-path="url(#fig-4928199cd82e40169cefc069bbc126c0-element-18)" id="fig-4928199cd82e40169cefc069bbc126c0-element-17">
    <g pointer-events="visible" opacity="1" fill="#000000" fill-opacity="0.000" stroke="#000000" stroke-opacity="0.000" class="guide background" id="fig-4928199cd82e40169cefc069bbc126c0-element-19">
      <rect x="19.63" y="5" width="164.22" height="51.92" id="fig-4928199cd82e40169cefc069bbc126c0-element-20"/>
    </g>
    <g class="guide ygridlines xfixed" stroke-dasharray="0.5,0.5" stroke-width="0.2" stroke="#D0D0E0" id="fig-4928199cd82e40169cefc069bbc126c0-element-21">
      <path fill="none" d="M19.63,54.91 L 183.85 54.91" id="fig-4928199cd82e40169cefc069bbc126c0-element-22"/>
      <path fill="none" d="M19.63,45.33 L 183.85 45.33" id="fig-4928199cd82e40169cefc069bbc126c0-element-23"/>
      <path fill="none" d="M19.63,35.75 L 183.85 35.75" id="fig-4928199cd82e40169cefc069bbc126c0-element-24"/>
      <path fill="none" d="M19.63,26.17 L 183.85 26.17" id="fig-4928199cd82e40169cefc069bbc126c0-element-25"/>
      <path fill="none" d="M19.63,16.58 L 183.85 16.58" id="fig-4928199cd82e40169cefc069bbc126c0-element-26"/>
      <path fill="none" d="M19.63,7 L 183.85 7" id="fig-4928199cd82e40169cefc069bbc126c0-element-27"/>
    </g>
    <g class="guide xgridlines yfixed" stroke-dasharray="0.5,0.5" stroke-width="0.2" stroke="#D0D0E0" id="fig-4928199cd82e40169cefc069bbc126c0-element-28">
      <path fill="none" d="M22.28,5 L 22.28 56.92" id="fig-4928199cd82e40169cefc069bbc126c0-element-29"/>
      <path fill="none" d="M32.07,5 L 32.07 56.92" id="fig-4928199cd82e40169cefc069bbc126c0-element-30"/>
      <path fill="none" d="M42.19,5 L 42.19 56.92" id="fig-4928199cd82e40169cefc069bbc126c0-element-31"/>
      <path fill="none" d="M51.98,5 L 51.98 56.92" id="fig-4928199cd82e40169cefc069bbc126c0-element-32"/>
      <path fill="none" d="M62.1,5 L 62.1 56.92" id="fig-4928199cd82e40169cefc069bbc126c0-element-33"/>
      <path fill="none" d="M72.21,5 L 72.21 56.92" id="fig-4928199cd82e40169cefc069bbc126c0-element-34"/>
      <path fill="none" d="M82,5 L 82 56.92" id="fig-4928199cd82e40169cefc069bbc126c0-element-35"/>
      <path fill="none" d="M92.12,5 L 92.12 56.92" id="fig-4928199cd82e40169cefc069bbc126c0-element-36"/>
      <path fill="none" d="M101.91,5 L 101.91 56.92" id="fig-4928199cd82e40169cefc069bbc126c0-element-37"/>
      <path fill="none" d="M112.02,5 L 112.02 56.92" id="fig-4928199cd82e40169cefc069bbc126c0-element-38"/>
      <path fill="none" d="M122.14,5 L 122.14 56.92" id="fig-4928199cd82e40169cefc069bbc126c0-element-39"/>
      <path fill="none" d="M131.27,5 L 131.27 56.92" id="fig-4928199cd82e40169cefc069bbc126c0-element-40"/>
      <path fill="none" d="M141.39,5 L 141.39 56.92" id="fig-4928199cd82e40169cefc069bbc126c0-element-41"/>
      <path fill="none" d="M151.18,5 L 151.18 56.92" id="fig-4928199cd82e40169cefc069bbc126c0-element-42"/>
      <path fill="none" d="M161.3,5 L 161.3 56.92" id="fig-4928199cd82e40169cefc069bbc126c0-element-43"/>
      <path fill="none" d="M171.09,5 L 171.09 56.92" id="fig-4928199cd82e40169cefc069bbc126c0-element-44"/>
      <path fill="none" d="M181.2,5 L 181.2 56.92" id="fig-4928199cd82e40169cefc069bbc126c0-element-45"/>
    </g>
    <g class="plotpanel" id="fig-4928199cd82e40169cefc069bbc126c0-element-46">
      <g class="geometry" stroke="#000000" stroke-opacity="0.000" fill="#4C404B" font-size="2.82" font-family="'PT Sans Caption','Helvetica Neue','Helvetica',sans-serif" id="fig-4928199cd82e40169cefc069bbc126c0-element-47">
        <text x="73.24" y="52.46" text-anchor="middle" dy="0.35em" id="fig-4928199cd82e40169cefc069bbc126c0-element-48" visibility="visible">v0.3.0</text>
        <text x="83.68" y="52.46" text-anchor="middle" dy="0.35em" id="fig-4928199cd82e40169cefc069bbc126c0-element-49" visibility="visible">v0.3.1</text>
        <text x="93.47" y="52.46" text-anchor="middle" dy="0.35em" id="fig-4928199cd82e40169cefc069bbc126c0-element-50" visibility="visible">v0.3.2</text>
        <text x="104.24" y="52.46" text-anchor="middle" dy="0.35em" id="fig-4928199cd82e40169cefc069bbc126c0-element-51" visibility="visible">v0.3.3</text>
        <text x="111.06" y="52.46" text-anchor="middle" dy="0.35em" id="fig-4928199cd82e40169cefc069bbc126c0-element-52" visibility="visible"></text>
        <text x="119.25" y="52.46" text-anchor="middle" dy="0.35em" id="fig-4928199cd82e40169cefc069bbc126c0-element-53" visibility="visible">v0.3.5</text>
        <text x="132.3" y="52.46" text-anchor="middle" dy="0.35em" id="fig-4928199cd82e40169cefc069bbc126c0-element-54" visibility="visible">v0.3.6</text>
        <text x="143.39" y="52.46" text-anchor="middle" dy="0.35em" id="fig-4928199cd82e40169cefc069bbc126c0-element-55" visibility="visible">v0.3.7</text>
        <text x="155.79" y="52.46" text-anchor="middle" dy="0.35em" id="fig-4928199cd82e40169cefc069bbc126c0-element-56" visibility="visible">v0.3.8</text>
        <text x="165.58" y="52.46" text-anchor="middle" dy="0.35em" id="fig-4928199cd82e40169cefc069bbc126c0-element-57" visibility="visible">v0.3.9</text>
      </g>
      <g class="yfixed" stroke-width="0.26" stroke="#333333" id="fig-4928199cd82e40169cefc069bbc126c0-element-58">
        <path fill="none" d="M68.3,5 L 68.3 56.92" id="fig-4928199cd82e40169cefc069bbc126c0-element-59"/>
        <path fill="none" d="M78.74,5 L 78.74 56.92" id="fig-4928199cd82e40169cefc069bbc126c0-element-60"/>
        <path fill="none" d="M88.53,5 L 88.53 56.92" id="fig-4928199cd82e40169cefc069bbc126c0-element-61"/>
        <path fill="none" d="M99.3,5 L 99.3 56.92" id="fig-4928199cd82e40169cefc069bbc126c0-element-62"/>
        <path fill="none" d="M110.06,5 L 110.06 56.92" id="fig-4928199cd82e40169cefc069bbc126c0-element-63"/>
        <path fill="none" d="M114.31,5 L 114.31 56.92" id="fig-4928199cd82e40169cefc069bbc126c0-element-64"/>
        <path fill="none" d="M127.36,5 L 127.36 56.92" id="fig-4928199cd82e40169cefc069bbc126c0-element-65"/>
        <path fill="none" d="M138.45,5 L 138.45 56.92" id="fig-4928199cd82e40169cefc069bbc126c0-element-66"/>
        <path fill="none" d="M150.85,5 L 150.85 56.92" id="fig-4928199cd82e40169cefc069bbc126c0-element-67"/>
        <path fill="none" d="M160.64,5 L 160.64 56.92" id="fig-4928199cd82e40169cefc069bbc126c0-element-68"/>
      </g>
      <g stroke-width="0.79" fill="#000000" fill-opacity="0.000" class="geometry color_0.4" stroke="#FF5EA0" id="fig-4928199cd82e40169cefc069bbc126c0-element-69">
        <path fill="none" d="M66.01,39.2 L 66.34 38.91 66.66 38.82 66.99 38.72 67.32 38.72 67.64 38.72 68.3 38.43 68.62 38.43 68.95 38.34 69.27 38.34 69.6 38.34 69.93 38.05 70.25 37.86 70.58 37.86 71.23 37.67 71.56 37.38 72.21 37.19 72.54 37.19 72.86 37.19 74.17 37.19 75.15 36.61 75.47 36.52 75.8 36.42 76.13 36.23 76.45 36.23 76.78 36.23 77.11 35.46 77.43 35.46 77.76 35.46 78.41 35.37 78.74 35.37 79.06 35.27 79.39 35.27 79.72 35.27 80.04 35.17 80.37 35.17 81.02 35.27 81.35 35.17 81.67 35.17 82 34.98 82.33 34.79 82.65 34.79 82.98 34.79 83.31 34.6 84.28 34.41 84.61 34.41 84.94 34.22 85.26 34.12 85.59 34.12 85.92 34.12 86.24 33.93 86.57 33.93 86.9 33.83 87.22 33.74 87.55 33.74 87.87 33.74 88.2 33.74 88.53 33.54 88.85 33.35 89.18 33.35 89.51 33.35 89.83 33.26 90.16 33.26 90.48 33.16 90.81 33.16 91.14 32.97 91.46 32.87 91.79 32.87 92.12 32.78 92.44 32.78 92.77 32.78 93.1 32.78 93.42 32.68 93.75 32.59 94.73 32.59 96.36 32.01 96.68 31.82 97.01 31.82 97.34 31.72 97.66 31.72 97.99 31.44 98.32 31.44 99.62 30.96 99.95 30.96 101.58 30.86 102.23 30.86 102.56 30.67 102.89 30.57 103.21 30.57 103.54 30.57 103.86 30.38 104.19 30.19 105.17 30.1 105.5 30 106.15 29.62 106.47 29.62 106.8 29.62 107.78 29.62 108.43 29.42 109.41 29.23 110.72 29.04 111.37 28.66 112.35 28.47 114.63 27.8 115.94 27.12 116.26 26.93 116.59 26.93 116.92 26.36 117.24 26.36 117.57 26.36 118.22 26.26 118.55 26.17 118.87 26.17 119.2 25.88 119.53 25.78 119.85 25.78 120.18 25.78 120.83 25.5 121.16 25.21 121.49 25.11 122.79 24.35 123.12 24.35 123.44 24.63 124.1 24.35 124.75 24.06 125.07 24.06 126.05 23.87 127.69 23.87 129.32 23.77 130.95 22.91 131.27 22.91 131.6 22.91 131.93 22.72 132.25 22.72 132.91 22.52 133.56 22.52 134.86 22.43 135.19 22.24 135.52 22.24 135.84 22.24 136.17 22.05 136.5 22.14 136.82 21.95 140.74 21.57 141.39 21.57 141.72 21.28 142.37 21.28 143.67 21.18 144.33 21.09 144.98 20.8 146.29 20.61 146.94 20.42 147.26 20.13 147.92 19.65 148.24 19.65 148.57 19.55 148.9 19.36 149.22 19.36 149.55 19.27 150.2 19.17 150.53 18.98 151.18 18.98 151.83 18.79 152.16 18.5 152.49 18.4 153.14 18.21 153.46 18.12 155.1 17.73 156.4 17.54 156.73 17.35 159.34 17.06 159.66 17.06 159.99 17.06 160.97 16.68 161.3 16.58 161.62 16.39 162.28 16.2 162.93 16.2 163.58 16.01 166.52 15.34 167.5 15.34 167.82 15.34 168.15 15.15 168.48 15.15 168.8 14.86 169.13 14.86 169.45 14.86 169.78 14.76 170.76 14.67 171.41 14.47 172.06 14.47 172.39 14.28 172.72 13.9 173.04 13.71 173.37 13.61 173.7 13.61 179.24 12.17 181.85 11.6" id="fig-4928199cd82e40169cefc069bbc126c0-element-70"/>
      </g>
      <g stroke-width="0.79" fill="#000000" fill-opacity="0.000" class="geometry color_0.3" stroke="#D4CA3A" id="fig-4928199cd82e40169cefc069bbc126c0-element-71">
        <path fill="none" d="M21.63,45.72 L 21.96 45.72 22.28 45.62 22.61 45.62 22.94 45.62 23.26 45.62 23.59 45.62 23.92 45.52 24.57 45.52 24.89 45.43 25.55 45.33 26.2 45.14 26.53 45.14 27.18 45.14 27.51 45.04 29.79 44.66 30.77 44.66 31.42 44.66 33.71 44.57 34.03 44.37 34.36 44.28 34.68 44.28 35.01 44.28 35.34 44.28 35.66 44.28 35.99 44.28 36.32 44.28 36.64 44.28 36.97 44.28 37.29 43.99 37.95 43.89 38.27 43.89 38.6 43.89 38.93 43.7 39.25 43.7 39.58 43.7 39.91 43.61 40.23 43.61 40.56 43.61 40.88 43.61 41.21 43.61 41.54 43.51 41.86 43.51 42.19 47.34 42.52 43.42 42.84 43.32 43.17 43.22 45.13 42.65 45.45 42.55 45.78 42.46 46.11 42.36 46.43 42.17 46.76 42.17 47.08 41.98 47.41 41.98 47.74 41.88 48.06 41.79 48.72 41.79 49.04 41.59 49.37 41.59 49.7 41.59 50.02 41.59 50.35 41.59 50.67 41.31 51 41.31 51.65 41.21 51.98 41.02 52.31 40.92 52.63 40.83 52.96 40.83 53.28 40.64 53.94 40.54 54.26 40.25 54.59 40.25 54.92 40.25 55.57 39.77 56.22 39.49 56.55 39.49 56.87 39.39 57.2 39.39 58.18 39.29 58.51 39.29 58.83 39.2 59.16 39.2 59.48 39.2 59.81 39.1 60.14 39.01 60.46 38.91 61.12 38.91 61.44 38.91 62.1 38.91 62.42 38.82 62.75 38.53 63.07 38.53 63.73 38.43 64.05 38.43 64.38 38.24 64.71 38.14 65.03 38.05 65.36 37.95 65.68 37.86 66.01 37.67 66.34 37.67 66.66 37.57 66.99 37.47 67.32 37.47 67.64 37.47 68.3 37.19 68.62 37.19 68.95 37.09 69.27 37.09 69.6 37.09 69.93 36.8 70.25 36.71 70.58 36.61 71.23 37.76 71.56 37.47 72.21 37.28 72.54 37.28 72.86 37.28 74.17 37.28 75.15 36.71 75.47 36.61 75.8 36.52 76.13 36.32 76.45 36.32 76.78 36.32 77.11 35.56 77.43 35.56 77.76 35.56 78.41 35.56 78.74 35.46 79.06 35.37 79.39 35.37 79.72 35.37 80.04 35.27 80.37 35.27 81.02 35.37 81.35 35.27 81.67 35.27 82 35.08 82.33 33.16 82.65 34.89 82.98 34.89 83.31 34.69 84.28 34.5 84.61 34.5 84.94 34.31 85.26 34.22 85.59 34.22 85.92 34.22 86.24 34.02 86.57 34.02 86.9 33.93 87.22 33.83 87.55 33.83 87.87 33.83 88.2 33.83 88.53 33.74 88.85 33.54 89.18 33.54 89.51 33.54 89.83 33.45 90.16 33.45 90.48 33.35 90.81 33.35 91.14 33.16 91.46 33.07 91.79 33.07 92.12 32.97 92.44 32.97 92.77 32.97 93.1 32.87 93.42 32.87 93.75 32.78 94.73 32.78 96.36 32.3 96.68 32.11 97.01 32.11 97.34 32.01 97.66 32.01 97.99 31.72 98.32 31.72 99.62 31.24 99.95 31.24 101.58 31.15 102.23 31.15 102.56 31.05 102.89 30.96 103.21 30.96 103.54 30.96 103.86 30.77 104.19 30.67 105.17 30.48 105.5 30.38 106.15 30.1 106.47 30 106.8 30 107.78 30 108.43 29.81 109.41 29.62 110.72 29.42 111.37 29.14 112.35 28.75 114.63 28.18 115.94 27.51 116.26 27.32 116.59 27.32 116.92 26.84 117.24 26.84 117.57 26.84 118.22 26.84 118.55 26.65 118.87 26.65 119.2 26.36 119.53 26.26 119.85 26.26 120.18 26.26 120.83 25.97 121.16 25.78 121.49 25.69 122.79 24.92 123.12 25.11 123.44 25.11 124.1 24.82 124.75 24.54 125.07 24.54 126.05 24.35 127.69 24.35 129.32 23.77 130.95 23.39 131.27 23.39 131.6 23.39 131.93 23.2 132.25 23.2 132.91 23.2 133.56 23.2 134.86 23 135.19 22.81 135.52 22.72 135.84 22.72 136.17 22.52 136.5 22.62 136.82 22.43 140.74 22.33 141.39 22.33 141.72 22.05 142.37 22.05 143.67 21.95 144.33 21.95 144.98 21.66 146.29 21.66 146.94 21.47 147.26 21.37 147.92 20.9 148.24 20.9 148.57 20.8 148.9 20.51 149.22 20.51 149.55 20.42 150.2 20.32 150.53 20.22 151.18 20.22 151.83 20.03 152.16 19.75 152.49 19.65 153.14 19.46 153.46 19.36 155.1 18.98 156.4 18.79 156.73 18.6 159.34 18.21 159.66 18.21 159.99 18.21 160.97 17.92 161.3 17.83 161.62 17.73 162.28 17.54 162.93 17.54 163.58 17.45 166.52 16.97 167.5 17.06 167.82 17.06 168.15 16.87 168.48 16.87 168.8 16.68 169.13 16.68 169.45 16.68 169.78 16.58 170.76 16.58 171.41 16.39 172.06 16.49 172.39 16.3 172.72 15.91 173.04 15.72 173.37 15.62 173.7 15.62 179.24 14.28 181.85 13.8" id="fig-4928199cd82e40169cefc069bbc126c0-element-72"/>
      </g>
      <g stroke-width="0.79" fill="#000000" fill-opacity="0.000" class="geometry color_0.2" stroke="#00BFFF" id="fig-4928199cd82e40169cefc069bbc126c0-element-73">
        <path fill="none" d="M21.63,46.77 L 21.96 46.77 22.28 46.67 22.61 46.67 22.94 46.67 23.26 46.67 23.59 46.67 23.92 46.67 24.57 46.67 24.89 46.67 25.55 46.58 26.2 46.48 26.53 46.48 27.18 46.39 27.51 46.29 29.79 46.1 30.77 46.1 31.42 46.1 33.71 46 34.03 45.91 34.36 45.91 34.68 45.91 35.01 45.91 35.34 45.91 35.66 45.91 35.99 45.91 36.32 45.91 36.64 45.91 36.97 45.62 37.29 45.62 37.95 45.52 38.27 45.52 38.6 45.52 38.93 45.43 39.25 46.19 39.58 45.72 39.91 45.72 40.23 45.72 40.56 45.72 40.88 45.72 41.21 45.72 41.54 45.72 41.86 45.72 42.19 45.62 42.52 45.62 42.84 45.52 43.17 45.52 45.13 45.04 45.45 45.04 45.78 44.95 46.11 44.85 46.43 44.66 46.76 44.66 47.08 44.66 47.41 44.66 47.74 44.66 48.06 44.57 48.72 44.57 49.04 44.37 49.37 44.37 49.7 44.37 50.02 44.37 50.35 44.37 50.67 44.09 51 44.09 51.65 43.99 51.98 43.8 52.31 43.7 52.63 43.61 52.96 43.61 53.28 43.61 53.94 43.42 54.26 43.32 54.59 43.22 54.92 43.22 55.57 43.03 56.22 42.84 56.55 42.84 56.87 42.84 57.2 42.84 58.18 42.84 58.51 42.84 58.83 42.74 59.16 42.74 59.48 42.74 59.81 42.65 60.14 42.65 60.46 42.65 61.12 42.55 61.44 42.55 62.1 42.55 62.42 42.55 62.75 42.27 63.07 42.27 63.73 42.46 64.05 42.46 64.38 42.27 64.71 42.17 65.03 42.17 65.36 41.98 65.68 41.98" id="fig-4928199cd82e40169cefc069bbc126c0-element-74"/>
      </g>
    </g>
  </g>
  <g class="guide ylabels" font-size="2.82" font-family="'PT Sans Caption','Helvetica Neue','Helvetica',sans-serif" fill="#6C606B" id="fig-4928199cd82e40169cefc069bbc126c0-element-75">
    <text x="18.63" y="54.91" text-anchor="end" dy="0.35em" id="fig-4928199cd82e40169cefc069bbc126c0-element-76">200</text>
    <text x="18.63" y="45.33" text-anchor="end" dy="0.35em" id="fig-4928199cd82e40169cefc069bbc126c0-element-77">300</text>
    <text x="18.63" y="35.75" text-anchor="end" dy="0.35em" id="fig-4928199cd82e40169cefc069bbc126c0-element-78">400</text>
    <text x="18.63" y="26.17" text-anchor="end" dy="0.35em" id="fig-4928199cd82e40169cefc069bbc126c0-element-79">500</text>
    <text x="18.63" y="16.58" text-anchor="end" dy="0.35em" id="fig-4928199cd82e40169cefc069bbc126c0-element-80">600</text>
    <text x="18.63" y="7" text-anchor="end" dy="0.35em" id="fig-4928199cd82e40169cefc069bbc126c0-element-81">700</text>
  </g>
</g>
<defs>
<clipPath id="fig-4928199cd82e40169cefc069bbc126c0-element-18">
  <path d="M19.63,5 L 183.85 5 183.85 56.92 19.63 56.92" />
</clipPath
></defs>
</svg>
