<?xml version="1.0" encoding="UTF-8"?>
<svg xmlns="http://www.w3.org/2000/svg"
     xmlns:xlink="http://www.w3.org/1999/xlink"
     xmlns:gadfly="http://www.gadflyjl.org/ns"
     version="1.2"
     width="203.2mm" height="76.2mm" viewBox="0 0 203.2 76.2"
     stroke="none"
     fill="#000000"
     stroke-width="0.3"
     font-size="3.88"
>
<g class="plotroot xscalable yscalable" id="fig-58c7e54465944f2e99789cc7bf547f7e-element-1">
  <g font-size="3.88" font-family="'PT Sans','Helvetica Neue','Helvetica',sans-serif" fill="#564A55" stroke="#000000" stroke-opacity="0.000" id="fig-58c7e54465944f2e99789cc7bf547f7e-element-2">
    <text x="101.74" y="64.59" text-anchor="middle" dy="0.6em">Date</text>
  </g>
  <g class="guide xlabels" font-size="2.82" font-family="'PT Sans Caption','Helvetica Neue','Helvetica',sans-serif" fill="#6C606B" id="fig-58c7e54465944f2e99789cc7bf547f7e-element-3">
    <text x="22.34" y="57.92" text-anchor="middle" dy="0.6em">Apr</text>
    <text x="32.95" y="57.92" text-anchor="middle" dy="0.6em">May</text>
    <text x="43.91" y="57.92" text-anchor="middle" dy="0.6em">Jun</text>
    <text x="54.53" y="57.92" text-anchor="middle" dy="0.6em">Jul</text>
    <text x="65.49" y="57.92" text-anchor="middle" dy="0.6em">Aug</text>
    <text x="76.45" y="57.92" text-anchor="middle" dy="0.6em">Sep</text>
    <text x="87.06" y="57.92" text-anchor="middle" dy="0.6em">Oct</text>
    <text x="98.03" y="57.92" text-anchor="middle" dy="0.6em">Nov</text>
    <text x="108.64" y="57.92" text-anchor="middle" dy="0.6em">Dec</text>
    <text x="119.6" y="57.92" text-anchor="middle" dy="0.6em">Jan 2015</text>
    <text x="130.57" y="57.92" text-anchor="middle" dy="0.6em">Feb</text>
    <text x="140.47" y="57.92" text-anchor="middle" dy="0.6em">Mar</text>
    <text x="151.44" y="57.92" text-anchor="middle" dy="0.6em">Apr</text>
    <text x="162.05" y="57.92" text-anchor="middle" dy="0.6em">May</text>
    <text x="173.01" y="57.92" text-anchor="middle" dy="0.6em">Jun</text>
  </g>
  <g class="guide colorkey" id="fig-58c7e54465944f2e99789cc7bf547f7e-element-4">
    <g fill="#4C404B" font-size="2.82" font-family="'PT Sans','Helvetica Neue','Helvetica',sans-serif" id="fig-58c7e54465944f2e99789cc7bf547f7e-element-5">
      <text x="187.67" y="29.14" dy="0.35em" id="fig-58c7e54465944f2e99789cc7bf547f7e-element-6" class="color_0.2">0.2</text>
      <text x="187.67" y="32.77" dy="0.35em" id="fig-58c7e54465944f2e99789cc7bf547f7e-element-7" class="color_0.3">0.3</text>
      <text x="187.67" y="36.4" dy="0.35em" id="fig-58c7e54465944f2e99789cc7bf547f7e-element-8" class="color_0.4">0.4</text>
    </g>
    <g stroke="#000000" stroke-opacity="0.000" id="fig-58c7e54465944f2e99789cc7bf547f7e-element-9">
      <rect x="184.85" y="28.24" width="1.81" height="1.81" id="fig-58c7e54465944f2e99789cc7bf547f7e-element-10" class="color_0.2" fill="#00BFFF"/>
      <rect x="184.85" y="31.86" width="1.81" height="1.81" id="fig-58c7e54465944f2e99789cc7bf547f7e-element-11" class="color_0.3" fill="#D4CA3A"/>
      <rect x="184.85" y="35.49" width="1.81" height="1.81" id="fig-58c7e54465944f2e99789cc7bf547f7e-element-12" class="color_0.4" fill="#FF5EA0"/>
    </g>
    <g fill="#362A35" font-size="3.88" font-family="'PT Sans','Helvetica Neue','Helvetica',sans-serif" stroke="#000000" stroke-opacity="0.000" id="fig-58c7e54465944f2e99789cc7bf547f7e-element-13">
      <text x="184.85" y="25.32" id="fig-58c7e54465944f2e99789cc7bf547f7e-element-14">Julia ver.</text>
    </g>
  </g>
  <g font-size="3.88" font-family="'PT Sans','Helvetica Neue','Helvetica',sans-serif" fill="#564A55" stroke="#000000" stroke-opacity="0.000" id="fig-58c7e54465944f2e99789cc7bf547f7e-element-15">
    <text x="8.81" y="28.96" text-anchor="middle" dy="0.35em" transform="rotate(-90, 8.81, 30.96)" id="fig-58c7e54465944f2e99789cc7bf547f7e-element-16">Number of Tagged Packages</text>
  </g>
  <g clip-path="url(#fig-58c7e54465944f2e99789cc7bf547f7e-element-18)" id="fig-58c7e54465944f2e99789cc7bf547f7e-element-17">
    <g pointer-events="visible" opacity="1" fill="#000000" fill-opacity="0.000" stroke="#000000" stroke-opacity="0.000" class="guide background" id="fig-58c7e54465944f2e99789cc7bf547f7e-element-19">
      <rect x="19.63" y="5" width="164.22" height="51.92" id="fig-58c7e54465944f2e99789cc7bf547f7e-element-20"/>
    </g>
    <g class="guide ygridlines xfixed" stroke-dasharray="0.5,0.5" stroke-width="0.2" stroke="#D0D0E0" id="fig-58c7e54465944f2e99789cc7bf547f7e-element-21">
      <path fill="none" d="M19.63,54.91 L 183.85 54.91" id="fig-58c7e54465944f2e99789cc7bf547f7e-element-22"/>
      <path fill="none" d="M19.63,45.33 L 183.85 45.33" id="fig-58c7e54465944f2e99789cc7bf547f7e-element-23"/>
      <path fill="none" d="M19.63,35.75 L 183.85 35.75" id="fig-58c7e54465944f2e99789cc7bf547f7e-element-24"/>
      <path fill="none" d="M19.63,26.17 L 183.85 26.17" id="fig-58c7e54465944f2e99789cc7bf547f7e-element-25"/>
      <path fill="none" d="M19.63,16.58 L 183.85 16.58" id="fig-58c7e54465944f2e99789cc7bf547f7e-element-26"/>
      <path fill="none" d="M19.63,7 L 183.85 7" id="fig-58c7e54465944f2e99789cc7bf547f7e-element-27"/>
    </g>
    <g class="guide xgridlines yfixed" stroke-dasharray="0.5,0.5" stroke-width="0.2" stroke="#D0D0E0" id="fig-58c7e54465944f2e99789cc7bf547f7e-element-28">
      <path fill="none" d="M22.34,5 L 22.34 56.92" id="fig-58c7e54465944f2e99789cc7bf547f7e-element-29"/>
      <path fill="none" d="M32.95,5 L 32.95 56.92" id="fig-58c7e54465944f2e99789cc7bf547f7e-element-30"/>
      <path fill="none" d="M43.91,5 L 43.91 56.92" id="fig-58c7e54465944f2e99789cc7bf547f7e-element-31"/>
      <path fill="none" d="M54.53,5 L 54.53 56.92" id="fig-58c7e54465944f2e99789cc7bf547f7e-element-32"/>
      <path fill="none" d="M65.49,5 L 65.49 56.92" id="fig-58c7e54465944f2e99789cc7bf547f7e-element-33"/>
      <path fill="none" d="M76.45,5 L 76.45 56.92" id="fig-58c7e54465944f2e99789cc7bf547f7e-element-34"/>
      <path fill="none" d="M87.06,5 L 87.06 56.92" id="fig-58c7e54465944f2e99789cc7bf547f7e-element-35"/>
      <path fill="none" d="M98.03,5 L 98.03 56.92" id="fig-58c7e54465944f2e99789cc7bf547f7e-element-36"/>
      <path fill="none" d="M108.64,5 L 108.64 56.92" id="fig-58c7e54465944f2e99789cc7bf547f7e-element-37"/>
      <path fill="none" d="M119.6,5 L 119.6 56.92" id="fig-58c7e54465944f2e99789cc7bf547f7e-element-38"/>
      <path fill="none" d="M130.57,5 L 130.57 56.92" id="fig-58c7e54465944f2e99789cc7bf547f7e-element-39"/>
      <path fill="none" d="M140.47,5 L 140.47 56.92" id="fig-58c7e54465944f2e99789cc7bf547f7e-element-40"/>
      <path fill="none" d="M151.44,5 L 151.44 56.92" id="fig-58c7e54465944f2e99789cc7bf547f7e-element-41"/>
      <path fill="none" d="M162.05,5 L 162.05 56.92" id="fig-58c7e54465944f2e99789cc7bf547f7e-element-42"/>
      <path fill="none" d="M173.01,5 L 173.01 56.92" id="fig-58c7e54465944f2e99789cc7bf547f7e-element-43"/>
    </g>
    <g class="plotpanel" id="fig-58c7e54465944f2e99789cc7bf547f7e-element-44">
      <g class="geometry" stroke="#000000" stroke-opacity="0.000" fill="#4C404B" font-size="2.82" font-family="'PT Sans Caption','Helvetica Neue','Helvetica',sans-serif" id="fig-58c7e54465944f2e99789cc7bf547f7e-element-45">
        <text x="77.15" y="52.46" text-anchor="middle" dy="0.35em" id="fig-58c7e54465944f2e99789cc7bf547f7e-element-46" visibility="visible">v0.3.0</text>
        <text x="88.47" y="52.46" text-anchor="middle" dy="0.35em" id="fig-58c7e54465944f2e99789cc7bf547f7e-element-47" visibility="visible">v0.3.1</text>
        <text x="99.08" y="52.46" text-anchor="middle" dy="0.35em" id="fig-58c7e54465944f2e99789cc7bf547f7e-element-48" visibility="visible">v0.3.2</text>
        <text x="110.75" y="52.46" text-anchor="middle" dy="0.35em" id="fig-58c7e54465944f2e99789cc7bf547f7e-element-49" visibility="visible">v0.3.3</text>
        <text x="118.48" y="52.46" text-anchor="middle" dy="0.35em" id="fig-58c7e54465944f2e99789cc7bf547f7e-element-50" visibility="visible"></text>
        <text x="127.02" y="52.46" text-anchor="middle" dy="0.35em" id="fig-58c7e54465944f2e99789cc7bf547f7e-element-51" visibility="visible">v0.3.5</text>
        <text x="141.17" y="52.46" text-anchor="middle" dy="0.35em" id="fig-58c7e54465944f2e99789cc7bf547f7e-element-52" visibility="visible">v0.3.6</text>
        <text x="153.19" y="52.46" text-anchor="middle" dy="0.35em" id="fig-58c7e54465944f2e99789cc7bf547f7e-element-53" visibility="visible">v0.3.7</text>
        <text x="166.63" y="52.46" text-anchor="middle" dy="0.35em" id="fig-58c7e54465944f2e99789cc7bf547f7e-element-54" visibility="visible">v0.3.8</text>
        <text x="177.24" y="52.46" text-anchor="middle" dy="0.35em" id="fig-58c7e54465944f2e99789cc7bf547f7e-element-55" visibility="visible">v0.3.9</text>
      </g>
      <g class="yfixed" stroke-width="0.26" stroke="#333333" id="fig-58c7e54465944f2e99789cc7bf547f7e-element-56">
        <path fill="none" d="M72.21,5 L 72.21 56.92" id="fig-58c7e54465944f2e99789cc7bf547f7e-element-57"/>
        <path fill="none" d="M83.53,5 L 83.53 56.92" id="fig-58c7e54465944f2e99789cc7bf547f7e-element-58"/>
        <path fill="none" d="M94.14,5 L 94.14 56.92" id="fig-58c7e54465944f2e99789cc7bf547f7e-element-59"/>
        <path fill="none" d="M105.81,5 L 105.81 56.92" id="fig-58c7e54465944f2e99789cc7bf547f7e-element-60"/>
        <path fill="none" d="M117.48,5 L 117.48 56.92" id="fig-58c7e54465944f2e99789cc7bf547f7e-element-61"/>
        <path fill="none" d="M122.08,5 L 122.08 56.92" id="fig-58c7e54465944f2e99789cc7bf547f7e-element-62"/>
        <path fill="none" d="M136.23,5 L 136.23 56.92" id="fig-58c7e54465944f2e99789cc7bf547f7e-element-63"/>
        <path fill="none" d="M148.25,5 L 148.25 56.92" id="fig-58c7e54465944f2e99789cc7bf547f7e-element-64"/>
        <path fill="none" d="M161.69,5 L 161.69 56.92" id="fig-58c7e54465944f2e99789cc7bf547f7e-element-65"/>
        <path fill="none" d="M172.3,5 L 172.3 56.92" id="fig-58c7e54465944f2e99789cc7bf547f7e-element-66"/>
      </g>
      <g stroke-width="0.79" fill="#000000" fill-opacity="0.000" class="geometry color_0.4" stroke="#FF5EA0" id="fig-58c7e54465944f2e99789cc7bf547f7e-element-67">
        <path fill="none" d="M69.73,39.2 L 70.09 38.91 70.44 38.82 70.79 38.72 71.15 38.72 71.5 38.72 72.21 38.43 72.56 38.43 72.92 38.34 73.27 38.34 73.62 38.34 73.98 38.05 74.33 37.86 74.69 37.86 75.39 37.67 75.75 37.38 76.45 37.19 76.81 37.19 77.16 37.19 78.58 37.19 79.64 36.61 79.99 36.52 80.34 36.42 80.7 36.23 81.05 36.23 81.41 36.23 81.76 35.46 82.11 35.46 82.47 35.46 83.17 35.37 83.53 35.37 83.88 35.27 84.24 35.27 84.59 35.27 84.94 35.17 85.3 35.17 86 35.27 86.36 35.17 86.71 35.17 87.06 34.98 87.42 34.79 87.77 34.79 88.13 34.79 88.48 34.6 89.54 34.41 89.89 34.41 90.25 34.22 90.6 34.12 90.96 34.12 91.31 34.12 91.66 33.93 92.02 33.93 92.37 33.83 92.72 33.74 93.08 33.74 93.43 33.74 93.78 33.74 94.14 33.54 94.49 33.35 94.85 33.35 95.2 33.35 95.55 33.26 95.91 33.26 96.26 33.16 96.61 33.16 96.97 32.97 97.32 32.87 97.68 32.87 98.03 32.78 98.38 32.78 98.74 32.78 99.09 32.78 99.44 32.68 99.8 32.59 100.86 32.59 102.63 32.01 102.98 31.82 103.33 31.82 103.69 31.72 104.04 31.72 104.4 31.44 104.75 31.44 106.16 30.96 106.52 30.96 108.29 30.86 108.99 30.86 109.35 30.67 109.7 30.57 110.05 30.57 110.41 30.57 110.76 30.38 111.12 30.19 112.18 30.1 112.53 30 113.24 29.62 113.59 29.62 113.95 29.62 115.01 29.62 115.71 29.42 116.77 29.23 118.19 29.04 118.9 28.66 119.96 28.47 122.43 27.8 123.85 27.12 124.2 26.93 124.56 26.93 124.91 26.36 125.26 26.36 125.62 26.36 126.32 26.26 126.68 26.17 127.03 26.17 127.39 25.88 127.74 25.78 128.09 25.78 128.45 25.78 129.15 25.5 129.51 25.21 129.86 25.11 131.28 24.35 131.63 24.35 131.98 24.63 132.69 24.35 133.4 24.06 133.75 24.06 134.81 23.87 136.58 23.87 138.35 23.77 140.12 22.91 140.47 22.91 140.83 22.91 141.18 22.72 141.53 22.72 142.24 22.52 142.95 22.52 144.36 22.43 144.72 22.24 145.07 22.24 145.42 22.24 145.78 22.05 146.13 22.14 146.48 21.95 150.73 21.57 151.44 21.57 151.79 21.28 152.5 21.28 153.91 21.18 154.62 21.09 155.33 20.8 156.74 20.61 157.45 20.42 157.8 20.13 158.51 19.65 158.86 19.65 159.22 19.55 159.57 19.36 159.93 19.36 160.28 19.27 160.99 19.17 161.34 18.98 162.05 18.98 162.75 18.79 163.11 18.5 163.46 18.4 164.17 18.21 164.52 18.12 166.29 17.73 167.71 17.54 168.06 17.35 170.89 17.06 171.24 17.06 171.6 17.06 172.66 16.68 173.01 16.58 173.37 16.39 174.07 16.2 174.78 16.2 175.49 16.01 178.67 15.34 179.73 15.34 180.09 15.34 180.44 15.15 180.79 15.15 181.15 14.86 181.5 14.86 181.85 14.86" id="fig-58c7e54465944f2e99789cc7bf547f7e-element-68"/>
      </g>
      <g stroke-width="0.79" fill="#000000" fill-opacity="0.000" class="geometry color_0.3" stroke="#D4CA3A" id="fig-58c7e54465944f2e99789cc7bf547f7e-element-69">
        <path fill="none" d="M21.63,45.72 L 21.99 45.72 22.34 45.62 22.69 45.62 23.05 45.62 23.4 45.62 23.75 45.62 24.11 45.52 24.81 45.52 25.17 45.43 25.88 45.33 26.58 45.14 26.94 45.14 27.64 45.14 28 45.04 30.47 44.66 31.54 44.66 32.24 44.66 34.72 44.57 35.07 44.37 35.43 44.28 35.78 44.28 36.13 44.28 36.49 44.28 36.84 44.28 37.19 44.28 37.55 44.28 37.9 44.28 38.26 44.28 38.61 43.99 39.32 43.89 39.67 43.89 40.02 43.89 40.38 43.7 40.73 43.7 41.08 43.7 41.44 43.61 41.79 43.61 42.15 43.61 42.5 43.61 42.85 43.61 43.21 43.51 43.56 43.51 43.91 47.34 44.27 43.42 44.62 43.32 44.98 43.22 47.1 42.65 47.45 42.55 47.8 42.46 48.16 42.36 48.51 42.17 48.87 42.17 49.22 41.98 49.57 41.98 49.93 41.88 50.28 41.79 50.99 41.79 51.34 41.59 51.7 41.59 52.05 41.59 52.4 41.59 52.76 41.59 53.11 41.31 53.46 41.31 54.17 41.21 54.53 41.02 54.88 40.92 55.23 40.83 55.59 40.83 55.94 40.64 56.65 40.54 57 40.25 57.35 40.25 57.71 40.25 58.42 39.77 59.12 39.49 59.48 39.49 59.83 39.39 60.18 39.39 61.25 39.29 61.6 39.29 61.95 39.2 62.31 39.2 62.66 39.2 63.01 39.1 63.37 39.01 63.72 38.91 64.43 38.91 64.78 38.91 65.49 38.91 65.84 38.82 66.2 38.53 66.55 38.53 67.26 38.43 67.61 38.43 67.97 38.24 68.32 38.14 68.67 38.05 69.03 37.95 69.38 37.86 69.73 37.67 70.09 37.67 70.44 37.57 70.79 37.47 71.15 37.47 71.5 37.47 72.21 37.19 72.56 37.19 72.92 37.09 73.27 37.09 73.62 37.09 73.98 36.8 74.33 36.71 74.69 36.61 75.39 37.76 75.75 37.47 76.45 37.28 76.81 37.28 77.16 37.28 78.58 37.28 79.64 36.71 79.99 36.61 80.34 36.52 80.7 36.32 81.05 36.32 81.41 36.32 81.76 35.56 82.11 35.56 82.47 35.56 83.17 35.56 83.53 35.46 83.88 35.37 84.24 35.37 84.59 35.37 84.94 35.27 85.3 35.27 86 35.37 86.36 35.27 86.71 35.27 87.06 35.08 87.42 33.16 87.77 34.89 88.13 34.89 88.48 34.69 89.54 34.5 89.89 34.5 90.25 34.31 90.6 34.22 90.96 34.22 91.31 34.22 91.66 34.02 92.02 34.02 92.37 33.93 92.72 33.83 93.08 33.83 93.43 33.83 93.78 33.83 94.14 33.74 94.49 33.54 94.85 33.54 95.2 33.54 95.55 33.45 95.91 33.45 96.26 33.35 96.61 33.35 96.97 33.16 97.32 33.07 97.68 33.07 98.03 32.97 98.38 32.97 98.74 32.97 99.09 32.87 99.44 32.87 99.8 32.78 100.86 32.78 102.63 32.3 102.98 32.11 103.33 32.11 103.69 32.01 104.04 32.01 104.4 31.72 104.75 31.72 106.16 31.24 106.52 31.24 108.29 31.15 108.99 31.15 109.35 31.05 109.7 30.96 110.05 30.96 110.41 30.96 110.76 30.77 111.12 30.67 112.18 30.48 112.53 30.38 113.24 30.1 113.59 30 113.95 30 115.01 30 115.71 29.81 116.77 29.62 118.19 29.42 118.9 29.14 119.96 28.75 122.43 28.18 123.85 27.51 124.2 27.32 124.56 27.32 124.91 26.84 125.26 26.84 125.62 26.84 126.32 26.84 126.68 26.65 127.03 26.65 127.39 26.36 127.74 26.26 128.09 26.26 128.45 26.26 129.15 25.97 129.51 25.78 129.86 25.69 131.28 24.92 131.63 25.11 131.98 25.11 132.69 24.82 133.4 24.54 133.75 24.54 134.81 24.35 136.58 24.35 138.35 23.77 140.12 23.39 140.47 23.39 140.83 23.39 141.18 23.2 141.53 23.2 142.24 23.2 142.95 23.2 144.36 23 144.72 22.81 145.07 22.72 145.42 22.72 145.78 22.52 146.13 22.62 146.48 22.43 150.73 22.33 151.44 22.33 151.79 22.05 152.5 22.05 153.91 21.95 154.62 21.95 155.33 21.66 156.74 21.66 157.45 21.47 157.8 21.37 158.51 20.9 158.86 20.9 159.22 20.8 159.57 20.51 159.93 20.51 160.28 20.42 160.99 20.32 161.34 20.22 162.05 20.22 162.75 20.03 163.11 19.75 163.46 19.65 164.17 19.46 164.52 19.36 166.29 18.98 167.71 18.79 168.06 18.6 170.89 18.21 171.24 18.21 171.6 18.21 172.66 17.92 173.01 17.83 173.37 17.73 174.07 17.54 174.78 17.54 175.49 17.45 178.67 16.97 179.73 17.06 180.09 17.06 180.44 16.87 180.79 16.87 181.15 16.68 181.5 16.68 181.85 16.68" id="fig-58c7e54465944f2e99789cc7bf547f7e-element-70"/>
      </g>
      <g stroke-width="0.79" fill="#000000" fill-opacity="0.000" class="geometry color_0.2" stroke="#00BFFF" id="fig-58c7e54465944f2e99789cc7bf547f7e-element-71">
        <path fill="none" d="M21.63,46.77 L 21.99 46.77 22.34 46.67 22.69 46.67 23.05 46.67 23.4 46.67 23.75 46.67 24.11 46.67 24.81 46.67 25.17 46.67 25.88 46.58 26.58 46.48 26.94 46.48 27.64 46.39 28 46.29 30.47 46.1 31.54 46.1 32.24 46.1 34.72 46 35.07 45.91 35.43 45.91 35.78 45.91 36.13 45.91 36.49 45.91 36.84 45.91 37.19 45.91 37.55 45.91 37.9 45.91 38.26 45.62 38.61 45.62 39.32 45.52 39.67 45.52 40.02 45.52 40.38 45.43 40.73 46.19 41.08 45.72 41.44 45.72 41.79 45.72 42.15 45.72 42.5 45.72 42.85 45.72 43.21 45.72 43.56 45.72 43.91 45.62 44.27 45.62 44.62 45.52 44.98 45.52 47.1 45.04 47.45 45.04 47.8 44.95 48.16 44.85 48.51 44.66 48.87 44.66 49.22 44.66 49.57 44.66 49.93 44.66 50.28 44.57 50.99 44.57 51.34 44.37 51.7 44.37 52.05 44.37 52.4 44.37 52.76 44.37 53.11 44.09 53.46 44.09 54.17 43.99 54.53 43.8 54.88 43.7 55.23 43.61 55.59 43.61 55.94 43.61 56.65 43.42 57 43.32 57.35 43.22 57.71 43.22 58.42 43.03 59.12 42.84 59.48 42.84 59.83 42.84 60.18 42.84 61.25 42.84 61.6 42.84 61.95 42.74 62.31 42.74 62.66 42.74 63.01 42.65 63.37 42.65 63.72 42.65 64.43 42.55 64.78 42.55 65.49 42.55 65.84 42.55 66.2 42.27 66.55 42.27 67.26 42.46 67.61 42.46 67.97 42.27 68.32 42.17 68.67 42.17 69.03 41.98 69.38 41.98" id="fig-58c7e54465944f2e99789cc7bf547f7e-element-72"/>
      </g>
    </g>
  </g>
  <g class="guide ylabels" font-size="2.82" font-family="'PT Sans Caption','Helvetica Neue','Helvetica',sans-serif" fill="#6C606B" id="fig-58c7e54465944f2e99789cc7bf547f7e-element-73">
    <text x="18.63" y="54.91" text-anchor="end" dy="0.35em" id="fig-58c7e54465944f2e99789cc7bf547f7e-element-74">200</text>
    <text x="18.63" y="45.33" text-anchor="end" dy="0.35em" id="fig-58c7e54465944f2e99789cc7bf547f7e-element-75">300</text>
    <text x="18.63" y="35.75" text-anchor="end" dy="0.35em" id="fig-58c7e54465944f2e99789cc7bf547f7e-element-76">400</text>
    <text x="18.63" y="26.17" text-anchor="end" dy="0.35em" id="fig-58c7e54465944f2e99789cc7bf547f7e-element-77">500</text>
    <text x="18.63" y="16.58" text-anchor="end" dy="0.35em" id="fig-58c7e54465944f2e99789cc7bf547f7e-element-78">600</text>
    <text x="18.63" y="7" text-anchor="end" dy="0.35em" id="fig-58c7e54465944f2e99789cc7bf547f7e-element-79">700</text>
  </g>
</g>
<defs>
<clipPath id="fig-58c7e54465944f2e99789cc7bf547f7e-element-18">
  <path d="M19.63,5 L 183.85 5 183.85 56.92 19.63 56.92" />
</clipPath
></defs>
</svg>
