<?xml version="1.0" encoding="UTF-8"?>
<svg xmlns="http://www.w3.org/2000/svg"
     xmlns:xlink="http://www.w3.org/1999/xlink"
     xmlns:gadfly="http://www.gadflyjl.org/ns"
     version="1.2"
     width="203.2mm" height="76.2mm" viewBox="0 0 203.2 76.2"
     stroke="none"
     fill="#000000"
     stroke-width="0.3"
     font-size="3.88"
>
<g class="plotroot xscalable yscalable" id="fig-3c1746f5a5fe45a79040cd493de147cb-element-1">
  <g font-size="3.88" font-family="'PT Sans','Helvetica Neue','Helvetica',sans-serif" fill="#564A55" stroke="none" id="fig-3c1746f5a5fe45a79040cd493de147cb-element-2">
    <text x="101.74" y="68.2" text-anchor="middle">Date</text>
  </g>
  <g class="guide xlabels" font-size="2.82" font-family="'PT Sans Caption','Helvetica Neue','Helvetica',sans-serif" fill="#6C606B" id="fig-3c1746f5a5fe45a79040cd493de147cb-element-3">
    <text x="22.9" y="62.59" text-anchor="middle">Apr</text>
    <text x="42.53" y="62.59" text-anchor="middle">May</text>
    <text x="62.81" y="62.59" text-anchor="middle">June</text>
    <text x="82.44" y="62.59" text-anchor="middle">July</text>
    <text x="102.72" y="62.59" text-anchor="middle">Aug</text>
    <text x="123.01" y="62.59" text-anchor="middle">Sept</text>
    <text x="142.63" y="62.59" text-anchor="middle">Oct</text>
    <text x="162.92" y="62.59" text-anchor="middle">Nev</text>
  </g>
  <g class="guide colorkey" id="fig-3c1746f5a5fe45a79040cd493de147cb-element-4">
    <g fill="#4C404B" font-size="2.82" font-family="'PT Sans','Helvetica Neue','Helvetica',sans-serif" id="fig-3c1746f5a5fe45a79040cd493de147cb-element-5">
      <text x="187.67" y="30.14" dy="0.35em" id="fig-3c1746f5a5fe45a79040cd493de147cb-element-6" class="color_0.2">0.2</text>
      <text x="187.67" y="33.77" dy="0.35em" id="fig-3c1746f5a5fe45a79040cd493de147cb-element-7" class="color_0.3">0.3</text>
      <text x="187.67" y="37.4" dy="0.35em" id="fig-3c1746f5a5fe45a79040cd493de147cb-element-8" class="color_0.4">0.4</text>
    </g>
    <g stroke="none" id="fig-3c1746f5a5fe45a79040cd493de147cb-element-9">
      <rect x="184.85" y="29.24" width="1.81" height="1.81" id="fig-3c1746f5a5fe45a79040cd493de147cb-element-10" class="color_0.2" fill="#00BFFF"/>
      <rect x="184.85" y="32.86" width="1.81" height="1.81" id="fig-3c1746f5a5fe45a79040cd493de147cb-element-11" class="color_0.3" fill="#D4CA3A"/>
      <rect x="184.85" y="36.49" width="1.81" height="1.81" id="fig-3c1746f5a5fe45a79040cd493de147cb-element-12" class="color_0.4" fill="#FF5EA0"/>
    </g>
    <g fill="#362A35" font-size="3.88" font-family="'PT Sans','Helvetica Neue','Helvetica',sans-serif" stroke="none" id="fig-3c1746f5a5fe45a79040cd493de147cb-element-13">
      <text x="184.85" y="26.32" id="fig-3c1746f5a5fe45a79040cd493de147cb-element-14">Julia ver.</text>
    </g>
  </g>
  <g font-size="3.88" font-family="'PT Sans','Helvetica Neue','Helvetica',sans-serif" fill="#564A55" stroke="none" id="fig-3c1746f5a5fe45a79040cd493de147cb-element-15">
    <text x="8.81" y="29.96" text-anchor="middle" dy="0.35em" transform="rotate(-90, 8.81, 31.96)" id="fig-3c1746f5a5fe45a79040cd493de147cb-element-16">Number of Tagged Packages</text>
  </g>
  <g clip-path="url(#fig-3c1746f5a5fe45a79040cd493de147cb-element-18)" id="fig-3c1746f5a5fe45a79040cd493de147cb-element-17">
    <g pointer-events="visible" opacity="1" fill="none" stroke="none" class="guide background" id="fig-3c1746f5a5fe45a79040cd493de147cb-element-19">
      <rect x="19.63" y="5" width="164.22" height="53.91" id="fig-3c1746f5a5fe45a79040cd493de147cb-element-20"/>
    </g>
    <g class="guide ygridlines xfixed" stroke-dasharray="0.5,0.5" stroke-width="0.2" stroke="#D0D0E0" id="fig-3c1746f5a5fe45a79040cd493de147cb-element-21">
      <path fill="none" d="M19.63,56.91 L 183.85 56.91" id="fig-3c1746f5a5fe45a79040cd493de147cb-element-22"/>
      <path fill="none" d="M19.63,44.44 L 183.85 44.44" id="fig-3c1746f5a5fe45a79040cd493de147cb-element-23"/>
      <path fill="none" d="M19.63,31.96 L 183.85 31.96" id="fig-3c1746f5a5fe45a79040cd493de147cb-element-24"/>
      <path fill="none" d="M19.63,19.48 L 183.85 19.48" id="fig-3c1746f5a5fe45a79040cd493de147cb-element-25"/>
      <path fill="none" d="M19.63,7 L 183.85 7" id="fig-3c1746f5a5fe45a79040cd493de147cb-element-26"/>
    </g>
    <g class="guide xgridlines yfixed" stroke-dasharray="0.5,0.5" stroke-width="0.2" stroke="#D0D0E0" id="fig-3c1746f5a5fe45a79040cd493de147cb-element-27">
      <path fill="none" d="M22.9,5 L 22.9 58.91" id="fig-3c1746f5a5fe45a79040cd493de147cb-element-28"/>
      <path fill="none" d="M42.53,5 L 42.53 58.91" id="fig-3c1746f5a5fe45a79040cd493de147cb-element-29"/>
      <path fill="none" d="M62.81,5 L 62.81 58.91" id="fig-3c1746f5a5fe45a79040cd493de147cb-element-30"/>
      <path fill="none" d="M82.44,5 L 82.44 58.91" id="fig-3c1746f5a5fe45a79040cd493de147cb-element-31"/>
      <path fill="none" d="M102.72,5 L 102.72 58.91" id="fig-3c1746f5a5fe45a79040cd493de147cb-element-32"/>
      <path fill="none" d="M123.01,5 L 123.01 58.91" id="fig-3c1746f5a5fe45a79040cd493de147cb-element-33"/>
      <path fill="none" d="M142.63,5 L 142.63 58.91" id="fig-3c1746f5a5fe45a79040cd493de147cb-element-34"/>
      <path fill="none" d="M162.92,5 L 162.92 58.91" id="fig-3c1746f5a5fe45a79040cd493de147cb-element-35"/>
    </g>
    <g class="plotpanel" id="fig-3c1746f5a5fe45a79040cd493de147cb-element-36">
      <g stroke-width="0.79" fill="none" class="geometry color_0.4" stroke="#FF5EA0" id="fig-3c1746f5a5fe45a79040cd493de147cb-element-37">
        <path fill="none" d="M110.58,28.46 L 111.23 27.71 111.88 27.47 112.54 27.22 113.19 27.22 113.85 27.22 115.16 26.47 115.81 26.47 116.46 26.22 117.12 26.22 117.77 26.22 118.43 25.47 119.08 24.97 119.74 24.97 121.04 24.47 121.7 23.72 123.01 23.22 123.66 23.22 124.32 23.22 126.93 23.22 128.9 21.72 129.55 21.48 130.2 21.23 130.86 20.73 131.51 20.73 132.17 20.73 132.82 18.73 133.48 18.73 134.13 18.73 135.44 18.48 136.09 18.48 136.75 18.23 137.4 18.23 138.06 18.23 138.71 17.98 139.36 17.98 140.67 18.23 141.33 17.98 141.98 17.98 142.63 17.48 143.29 16.98 143.94 16.98 144.6 16.98 145.25 16.48 147.21 15.98 147.87 15.98 148.52 15.49 149.18 15.24 149.83 15.24 150.49 15.24 151.14 14.74 151.79 14.74 152.45 14.49 153.1 14.24 153.76 14.24 154.41 14.24 155.07 14.24 155.72 13.74 156.37 13.24 157.03 13.24 157.68 13.24 158.34 12.99 158.99 12.99 159.65 12.74 160.3 12.74 160.95 12.24 161.61 11.99 162.26 11.99 162.92 11.74 163.57 11.74 164.23 11.74 164.88 11.74 165.53 11.49 166.19 11.24 168.15 11.24 171.42 9.75 172.08 9.25 172.73 9.25 173.39 9 174.04 9 174.69 8.25 175.35 8.25 177.97 7 178.62 7 181.89 6.75" id="fig-3c1746f5a5fe45a79040cd493de147cb-element-38"/>
      </g>
      <g stroke-width="0.79" fill="none" class="geometry color_0.3" stroke="#D4CA3A" id="fig-3c1746f5a5fe45a79040cd493de147cb-element-39">
        <path fill="none" d="M21.59,45.43 L 22.25 45.43 22.9 45.18 23.56 45.18 24.21 45.18 24.87 45.18 25.52 45.18 26.17 44.94 27.48 44.94 28.14 44.69 29.45 44.44 30.75 43.94 31.41 43.94 32.72 43.94 33.37 43.69 37.95 42.69 39.91 42.69 41.22 42.69 45.8 42.44 46.46 41.94 47.11 41.69 47.77 41.69 48.42 41.69 49.07 41.69 49.73 41.69 50.38 41.69 51.04 41.69 51.69 41.69 52.35 41.69 53 40.94 54.31 40.69 54.96 40.69 55.62 40.69 56.27 40.19 56.93 40.19 57.58 40.19 58.23 39.94 58.89 39.94 59.54 39.94 60.2 39.94 60.85 39.94 61.51 39.69 62.16 39.69 62.81 49.68 63.47 39.44 64.12 39.2 64.78 38.95 68.7 37.45 69.36 37.2 70.01 36.95 70.66 36.7 71.32 36.2 71.97 36.2 72.63 35.7 73.28 35.7 73.94 35.45 74.59 35.2 75.9 35.2 76.55 34.7 77.21 34.7 77.86 34.7 78.52 34.7 79.17 34.7 79.82 33.95 80.48 33.95 81.79 33.7 82.44 33.21 83.1 32.96 83.75 32.71 84.4 32.71 85.06 32.21 86.37 31.96 87.02 31.21 87.68 31.21 88.33 31.21 89.64 29.96 90.95 29.21 91.6 29.21 92.26 28.96 92.91 28.96 94.87 28.71 95.53 28.71 96.18 28.46 96.84 28.46 97.49 28.46 98.14 28.21 98.8 27.96 99.45 27.71 100.76 27.71 101.42 27.71 102.72 27.71 103.38 27.47 104.03 26.72 104.69 26.72 106 26.47 106.65 26.47 107.3 25.97 107.96 25.72 108.61 25.47 109.27 25.22 109.92 24.97 110.58 24.47 111.23 24.47 111.88 24.22 112.54 23.97 113.19 23.97 113.85 23.97 115.16 23.22 115.81 23.22 116.46 22.97 117.12 22.97 117.77 22.97 118.43 22.22 119.08 21.97 119.74 21.72 121.04 24.72 121.7 23.97 123.01 23.47 123.66 23.47 124.32 23.47 126.93 23.47 128.9 21.97 129.55 21.72 130.2 21.48 130.86 20.98 131.51 20.98 132.17 20.98 132.82 18.98 133.48 18.98 134.13 18.98 135.44 18.98 136.09 18.73 136.75 18.48 137.4 18.48 138.06 18.48 138.71 18.23 139.36 18.23 140.67 18.48 141.33 18.23 141.98 18.23 142.63 17.73 143.29 12.74 143.94 17.23 144.6 17.23 145.25 16.73 147.21 16.23 147.87 16.23 148.52 15.74 149.18 15.49 149.83 15.49 150.49 15.49 151.14 14.99 151.79 14.99 152.45 14.74 153.1 14.49 153.76 14.49 154.41 14.49 155.07 14.49 155.72 14.24 156.37 13.74 157.03 13.74 157.68 13.74 158.34 13.49 158.99 13.49 159.65 13.24 160.3 13.24 160.95 12.74 161.61 12.49 162.26 12.49 162.92 12.24 163.57 12.24 164.23 12.24 164.88 11.99 165.53 11.99 166.19 11.74 168.15 11.74 171.42 10.49 172.08 9.99 172.73 9.99 173.39 9.75 174.04 9.75 174.69 9 175.35 9 177.97 7.75 178.62 7.75 181.89 7.5" id="fig-3c1746f5a5fe45a79040cd493de147cb-element-40"/>
      </g>
      <g stroke-width="0.79" fill="none" class="geometry color_0.2" stroke="#00BFFF" id="fig-3c1746f5a5fe45a79040cd493de147cb-element-41">
        <path fill="none" d="M21.59,48.18 L 22.25 48.18 22.9 47.93 23.56 47.93 24.21 47.93 24.87 47.93 25.52 47.93 26.17 47.93 27.48 47.93 28.14 47.93 29.45 47.68 30.75 47.43 31.41 47.43 32.72 47.18 33.37 46.93 37.95 46.43 39.91 46.43 41.22 46.43 45.8 46.18 46.46 45.93 47.11 45.93 47.77 45.93 48.42 45.93 49.07 45.93 49.73 45.93 50.38 45.93 51.04 45.93 51.69 45.93 52.35 45.18 53 45.18 54.31 44.94 54.96 44.94 55.62 44.94 56.27 44.69 56.93 46.68 57.58 45.43 58.23 45.43 58.89 45.43 59.54 45.43 60.2 45.43 60.85 45.43 61.51 45.43 62.16 45.43 62.81 45.18 63.47 45.18 64.12 44.94 64.78 44.94 68.7 43.69 69.36 43.69 70.01 43.44 70.66 43.19 71.32 42.69 71.97 42.69 72.63 42.69 73.28 42.69 73.94 42.69 74.59 42.44 75.9 42.44 76.55 41.94 77.21 41.94 77.86 41.94 78.52 41.94 79.17 41.94 79.82 41.19 80.48 41.19 81.79 40.94 82.44 40.44 83.1 40.19 83.75 39.94 84.4 39.94 85.06 39.94 86.37 39.44 87.02 39.2 87.68 38.95 88.33 38.95 89.64 38.45 90.95 37.95 91.6 37.95 92.26 37.95 92.91 37.95 94.87 37.95 95.53 37.95 96.18 37.7 96.84 37.7 97.49 37.7 98.14 37.45 98.8 37.45 99.45 37.45 100.76 37.2 101.42 37.2 102.72 37.2 103.38 37.2 104.03 36.45 104.69 36.45 106 36.95 106.65 36.95 107.3 36.45 107.96 36.2 108.61 36.2 109.27 35.7 109.92 35.7" id="fig-3c1746f5a5fe45a79040cd493de147cb-element-42"/>
      </g>
    </g>
  </g>
  <g class="guide ylabels" font-size="2.82" font-family="'PT Sans Caption','Helvetica Neue','Helvetica',sans-serif" fill="#6C606B" id="fig-3c1746f5a5fe45a79040cd493de147cb-element-43">
    <text x="18.63" y="56.91" text-anchor="end" dy="0.35em" id="fig-3c1746f5a5fe45a79040cd493de147cb-element-44">250</text>
    <text x="18.63" y="44.44" text-anchor="end" dy="0.35em" id="fig-3c1746f5a5fe45a79040cd493de147cb-element-45">300</text>
    <text x="18.63" y="31.96" text-anchor="end" dy="0.35em" id="fig-3c1746f5a5fe45a79040cd493de147cb-element-46">350</text>
    <text x="18.63" y="19.48" text-anchor="end" dy="0.35em" id="fig-3c1746f5a5fe45a79040cd493de147cb-element-47">400</text>
    <text x="18.63" y="7" text-anchor="end" dy="0.35em" id="fig-3c1746f5a5fe45a79040cd493de147cb-element-48">450</text>
  </g>
</g>
<defs>
<clipPath id="fig-3c1746f5a5fe45a79040cd493de147cb-element-18">
  <path d="M19.63,5 L 183.85 5 183.85 58.91 19.63 58.91" />
</clipPath
></defs>
</svg>
