<?xml version="1.0" encoding="UTF-8"?>
<svg xmlns="http://www.w3.org/2000/svg"
     xmlns:xlink="http://www.w3.org/1999/xlink"
     xmlns:gadfly="http://www.gadflyjl.org/ns"
     version="1.2"
     width="203.2mm" height="76.2mm" viewBox="0 0 203.2 76.2"
     stroke="none"
     fill="#000000"
     stroke-width="0.3"
     font-size="3.88"
>
<g class="plotroot xscalable yscalable" id="fig-f1ce85bd10964941961c0d2dd23e532b-element-1">
  <g font-size="3.88" font-family="'PT Sans','Helvetica Neue','Helvetica',sans-serif" fill="#564A55" stroke="#000000" stroke-opacity="0.000" id="fig-f1ce85bd10964941961c0d2dd23e532b-element-2">
    <text x="101.74" y="68.2" text-anchor="middle">Date</text>
  </g>
  <g class="guide xlabels" font-size="2.82" font-family="'PT Sans Caption','Helvetica Neue','Helvetica',sans-serif" fill="#6C606B" id="fig-f1ce85bd10964941961c0d2dd23e532b-element-3">
    <text x="22.33" y="60.59" text-anchor="middle">Apr</text>
    <text x="32.85" y="60.59" text-anchor="middle">May</text>
    <text x="43.72" y="60.59" text-anchor="middle">Jun</text>
    <text x="54.24" y="60.59" text-anchor="middle">Jul</text>
    <text x="65.11" y="60.59" text-anchor="middle">Aug</text>
    <text x="75.97" y="60.59" text-anchor="middle">Sep</text>
    <text x="86.49" y="60.59" text-anchor="middle">Oct</text>
    <text x="97.36" y="60.59" text-anchor="middle">Nov</text>
    <text x="107.88" y="60.59" text-anchor="middle">Dec</text>
    <text x="118.75" y="60.59" text-anchor="middle">Jan 2015</text>
    <text x="129.62" y="60.59" text-anchor="middle">Feb</text>
    <text x="139.43" y="60.59" text-anchor="middle">Mar</text>
    <text x="150.3" y="60.59" text-anchor="middle">Apr</text>
    <text x="160.82" y="60.59" text-anchor="middle">May</text>
    <text x="171.69" y="60.59" text-anchor="middle">Jun</text>
  </g>
  <g class="guide colorkey" id="fig-f1ce85bd10964941961c0d2dd23e532b-element-4">
    <g fill="#4C404B" font-size="2.82" font-family="'PT Sans','Helvetica Neue','Helvetica',sans-serif" id="fig-f1ce85bd10964941961c0d2dd23e532b-element-5">
      <text x="187.67" y="29.14" dy="0.35em" id="fig-f1ce85bd10964941961c0d2dd23e532b-element-6" class="color_0.2">0.2</text>
      <text x="187.67" y="32.77" dy="0.35em" id="fig-f1ce85bd10964941961c0d2dd23e532b-element-7" class="color_0.3">0.3</text>
      <text x="187.67" y="36.4" dy="0.35em" id="fig-f1ce85bd10964941961c0d2dd23e532b-element-8" class="color_0.4">0.4</text>
    </g>
    <g stroke="#000000" stroke-opacity="0.000" id="fig-f1ce85bd10964941961c0d2dd23e532b-element-9">
      <rect x="184.85" y="28.24" width="1.81" height="1.81" id="fig-f1ce85bd10964941961c0d2dd23e532b-element-10" class="color_0.2" fill="#00BFFF"/>
      <rect x="184.85" y="31.86" width="1.81" height="1.81" id="fig-f1ce85bd10964941961c0d2dd23e532b-element-11" class="color_0.3" fill="#D4CA3A"/>
      <rect x="184.85" y="35.49" width="1.81" height="1.81" id="fig-f1ce85bd10964941961c0d2dd23e532b-element-12" class="color_0.4" fill="#FF5EA0"/>
    </g>
    <g fill="#362A35" font-size="3.88" font-family="'PT Sans','Helvetica Neue','Helvetica',sans-serif" stroke="#000000" stroke-opacity="0.000" id="fig-f1ce85bd10964941961c0d2dd23e532b-element-13">
      <text x="184.85" y="25.32" id="fig-f1ce85bd10964941961c0d2dd23e532b-element-14">Julia ver.</text>
    </g>
  </g>
  <g font-size="3.88" font-family="'PT Sans','Helvetica Neue','Helvetica',sans-serif" fill="#564A55" stroke="#000000" stroke-opacity="0.000" id="fig-f1ce85bd10964941961c0d2dd23e532b-element-15">
    <text x="8.81" y="28.96" text-anchor="middle" dy="0.35em" transform="rotate(-90, 8.81, 30.96)" id="fig-f1ce85bd10964941961c0d2dd23e532b-element-16">Number of Tagged Packages</text>
  </g>
  <g clip-path="url(#fig-f1ce85bd10964941961c0d2dd23e532b-element-18)" id="fig-f1ce85bd10964941961c0d2dd23e532b-element-17">
    <g pointer-events="visible" opacity="1" fill="#000000" fill-opacity="0.000" stroke="#000000" stroke-opacity="0.000" class="guide background" id="fig-f1ce85bd10964941961c0d2dd23e532b-element-19">
      <rect x="19.63" y="5" width="164.22" height="51.92" id="fig-f1ce85bd10964941961c0d2dd23e532b-element-20"/>
    </g>
    <g class="guide ygridlines xfixed" stroke-dasharray="0.5,0.5" stroke-width="0.2" stroke="#D0D0E0" id="fig-f1ce85bd10964941961c0d2dd23e532b-element-21">
      <path fill="none" d="M19.63,54.91 L 183.85 54.91" id="fig-f1ce85bd10964941961c0d2dd23e532b-element-22"/>
      <path fill="none" d="M19.63,45.33 L 183.85 45.33" id="fig-f1ce85bd10964941961c0d2dd23e532b-element-23"/>
      <path fill="none" d="M19.63,35.75 L 183.85 35.75" id="fig-f1ce85bd10964941961c0d2dd23e532b-element-24"/>
      <path fill="none" d="M19.63,26.17 L 183.85 26.17" id="fig-f1ce85bd10964941961c0d2dd23e532b-element-25"/>
      <path fill="none" d="M19.63,16.58 L 183.85 16.58" id="fig-f1ce85bd10964941961c0d2dd23e532b-element-26"/>
      <path fill="none" d="M19.63,7 L 183.85 7" id="fig-f1ce85bd10964941961c0d2dd23e532b-element-27"/>
    </g>
    <g class="guide xgridlines yfixed" stroke-dasharray="0.5,0.5" stroke-width="0.2" stroke="#D0D0E0" id="fig-f1ce85bd10964941961c0d2dd23e532b-element-28">
      <path fill="none" d="M22.33,5 L 22.33 56.92" id="fig-f1ce85bd10964941961c0d2dd23e532b-element-29"/>
      <path fill="none" d="M32.85,5 L 32.85 56.92" id="fig-f1ce85bd10964941961c0d2dd23e532b-element-30"/>
      <path fill="none" d="M43.72,5 L 43.72 56.92" id="fig-f1ce85bd10964941961c0d2dd23e532b-element-31"/>
      <path fill="none" d="M54.24,5 L 54.24 56.92" id="fig-f1ce85bd10964941961c0d2dd23e532b-element-32"/>
      <path fill="none" d="M65.11,5 L 65.11 56.92" id="fig-f1ce85bd10964941961c0d2dd23e532b-element-33"/>
      <path fill="none" d="M75.97,5 L 75.97 56.92" id="fig-f1ce85bd10964941961c0d2dd23e532b-element-34"/>
      <path fill="none" d="M86.49,5 L 86.49 56.92" id="fig-f1ce85bd10964941961c0d2dd23e532b-element-35"/>
      <path fill="none" d="M97.36,5 L 97.36 56.92" id="fig-f1ce85bd10964941961c0d2dd23e532b-element-36"/>
      <path fill="none" d="M107.88,5 L 107.88 56.92" id="fig-f1ce85bd10964941961c0d2dd23e532b-element-37"/>
      <path fill="none" d="M118.75,5 L 118.75 56.92" id="fig-f1ce85bd10964941961c0d2dd23e532b-element-38"/>
      <path fill="none" d="M129.62,5 L 129.62 56.92" id="fig-f1ce85bd10964941961c0d2dd23e532b-element-39"/>
      <path fill="none" d="M139.43,5 L 139.43 56.92" id="fig-f1ce85bd10964941961c0d2dd23e532b-element-40"/>
      <path fill="none" d="M150.3,5 L 150.3 56.92" id="fig-f1ce85bd10964941961c0d2dd23e532b-element-41"/>
      <path fill="none" d="M160.82,5 L 160.82 56.92" id="fig-f1ce85bd10964941961c0d2dd23e532b-element-42"/>
      <path fill="none" d="M171.69,5 L 171.69 56.92" id="fig-f1ce85bd10964941961c0d2dd23e532b-element-43"/>
    </g>
    <g class="plotpanel" id="fig-f1ce85bd10964941961c0d2dd23e532b-element-44">
      <g class="geometry" stroke="#000000" stroke-opacity="0.000" fill="#4C404B" font-size="2.82" font-family="'PT Sans Caption','Helvetica Neue','Helvetica',sans-serif" id="fig-f1ce85bd10964941961c0d2dd23e532b-element-45">
        <text x="76.71" y="52.46" text-anchor="middle" dy="0.35em" id="fig-f1ce85bd10964941961c0d2dd23e532b-element-46" visibility="visible">v0.3.0</text>
        <text x="87.93" y="52.46" text-anchor="middle" dy="0.35em" id="fig-f1ce85bd10964941961c0d2dd23e532b-element-47" visibility="visible">v0.3.1</text>
        <text x="98.44" y="52.46" text-anchor="middle" dy="0.35em" id="fig-f1ce85bd10964941961c0d2dd23e532b-element-48" visibility="visible">v0.3.2</text>
        <text x="110.01" y="52.46" text-anchor="middle" dy="0.35em" id="fig-f1ce85bd10964941961c0d2dd23e532b-element-49" visibility="visible">v0.3.3</text>
        <text x="117.64" y="52.46" text-anchor="middle" dy="0.35em" id="fig-f1ce85bd10964941961c0d2dd23e532b-element-50" visibility="visible"></text>
        <text x="126.14" y="52.46" text-anchor="middle" dy="0.35em" id="fig-f1ce85bd10964941961c0d2dd23e532b-element-51" visibility="visible">v0.3.5</text>
        <text x="140.16" y="52.46" text-anchor="middle" dy="0.35em" id="fig-f1ce85bd10964941961c0d2dd23e532b-element-52" visibility="visible">v0.3.6</text>
        <text x="152.09" y="52.46" text-anchor="middle" dy="0.35em" id="fig-f1ce85bd10964941961c0d2dd23e532b-element-53" visibility="visible">v0.3.7</text>
        <text x="165.41" y="52.46" text-anchor="middle" dy="0.35em" id="fig-f1ce85bd10964941961c0d2dd23e532b-element-54" visibility="visible">v0.3.8</text>
        <text x="175.93" y="52.46" text-anchor="middle" dy="0.35em" id="fig-f1ce85bd10964941961c0d2dd23e532b-element-55" visibility="visible">v0.3.9</text>
      </g>
      <g class="yfixed" stroke-width="0.26" stroke="#333333" id="fig-f1ce85bd10964941961c0d2dd23e532b-element-56">
        <path fill="none" d="M71.77,5 L 71.77 56.92" id="fig-f1ce85bd10964941961c0d2dd23e532b-element-57"/>
        <path fill="none" d="M82.99,5 L 82.99 56.92" id="fig-f1ce85bd10964941961c0d2dd23e532b-element-58"/>
        <path fill="none" d="M93.5,5 L 93.5 56.92" id="fig-f1ce85bd10964941961c0d2dd23e532b-element-59"/>
        <path fill="none" d="M105.07,5 L 105.07 56.92" id="fig-f1ce85bd10964941961c0d2dd23e532b-element-60"/>
        <path fill="none" d="M116.64,5 L 116.64 56.92" id="fig-f1ce85bd10964941961c0d2dd23e532b-element-61"/>
        <path fill="none" d="M121.2,5 L 121.2 56.92" id="fig-f1ce85bd10964941961c0d2dd23e532b-element-62"/>
        <path fill="none" d="M135.22,5 L 135.22 56.92" id="fig-f1ce85bd10964941961c0d2dd23e532b-element-63"/>
        <path fill="none" d="M147.15,5 L 147.15 56.92" id="fig-f1ce85bd10964941961c0d2dd23e532b-element-64"/>
        <path fill="none" d="M160.47,5 L 160.47 56.92" id="fig-f1ce85bd10964941961c0d2dd23e532b-element-65"/>
        <path fill="none" d="M170.99,5 L 170.99 56.92" id="fig-f1ce85bd10964941961c0d2dd23e532b-element-66"/>
      </g>
      <g stroke-width="0.79" fill="#000000" fill-opacity="0.000" class="geometry color_0.4" stroke="#FF5EA0" id="fig-f1ce85bd10964941961c0d2dd23e532b-element-67">
        <path fill="none" d="M69.31,39.2 L 69.66 38.91 70.01 38.82 70.36 38.72 70.72 38.72 71.07 38.72 71.77 38.43 72.12 38.43 72.47 38.34 72.82 38.34 73.17 38.34 73.52 38.05 73.87 37.86 74.22 37.86 74.92 37.67 75.27 37.38 75.97 37.19 76.32 37.19 76.68 37.19 78.08 37.19 79.13 36.61 79.48 36.52 79.83 36.42 80.18 36.23 80.53 36.23 80.88 36.23 81.23 35.46 81.58 35.46 81.93 35.46 82.64 35.37 82.99 35.37 83.34 35.27 83.69 35.27 84.04 35.27 84.39 35.17 84.74 35.17 85.44 35.27 85.79 35.17 86.14 35.17 86.49 34.98 86.84 34.79 87.19 34.79 87.54 34.79 87.89 34.6 88.95 34.41 89.3 34.41 89.65 34.22 90 34.12 90.35 34.12 90.7 34.12 91.05 33.93 91.4 33.93 91.75 33.83 92.1 33.74 92.45 33.74 92.8 33.74 93.15 33.74 93.5 33.54 93.85 33.35 94.21 33.35 94.56 33.35 94.91 33.26 95.26 33.26 95.61 33.16 95.96 33.16 96.31 32.97 96.66 32.87 97.01 32.87 97.36 32.78 97.71 32.78 98.06 32.78 98.41 32.78 98.76 32.68 99.11 32.59 100.17 32.59 101.92 32.01 102.27 31.82 102.62 31.82 102.97 31.72 103.32 31.72 103.67 31.44 104.02 31.44 105.42 30.96 105.77 30.96 107.53 30.86 108.23 30.86 108.58 30.67 108.93 30.57 109.28 30.57 109.63 30.57 109.98 30.38 110.33 30.19 111.38 30.1 111.73 30 112.44 29.62 112.79 29.62 113.14 29.62 114.19 29.62 114.89 29.42 115.94 29.23 117.34 29.04 118.05 28.66 119.1 28.47 121.55 27.8 122.95 27.12 123.3 26.93 123.66 26.93 124.01 26.36 124.36 26.36 124.71 26.36 125.41 26.26 125.76 26.17 126.11 26.17 126.46 25.88 126.81 25.78 127.16 25.78 127.51 25.78 128.21 25.5 128.56 25.21 128.91 25.11 130.32 24.35 130.67 24.35 131.02 24.63 131.72 24.35 132.42 24.06 132.77 24.06 133.82 23.87 135.58 23.87 137.33 23.77 139.08 22.91 139.43 22.91 139.78 22.91 140.13 22.72 140.48 22.72 141.18 22.52 141.89 22.52 143.29 22.43 143.64 22.24 143.99 22.24 144.34 22.24 144.69 22.05 145.04 22.14 145.39 21.95 149.6 21.57 150.3 21.57 150.65 21.28 151.35 21.28 152.75 21.18 153.46 21.09 154.16 20.8 155.56 20.61 156.26 20.42 156.61 20.13 157.31 19.65 157.66 19.65 158.01 19.55 158.36 19.36 158.71 19.36 159.07 19.27 159.77 19.17 160.12 18.98 160.82 18.98 161.52 18.79 161.87 18.5 162.22 18.4 162.92 18.21 163.27 18.12 165.03 17.73 166.43 17.54 166.78 17.35 169.58 17.06 169.93 17.06 170.28 17.06 171.34 16.68 171.69 16.58 172.04 16.39 172.74 16.2 173.44 16.2 174.14 16.01 177.3 15.34 178.35 15.34 178.7 15.34 179.05 15.15 179.4 15.15 179.75 14.86 180.1 14.86 180.45 14.86 180.8 14.76 181.85 14.67" id="fig-f1ce85bd10964941961c0d2dd23e532b-element-68"/>
      </g>
      <g stroke-width="0.79" fill="#000000" fill-opacity="0.000" class="geometry color_0.3" stroke="#D4CA3A" id="fig-f1ce85bd10964941961c0d2dd23e532b-element-69">
        <path fill="none" d="M21.63,45.72 L 21.98 45.72 22.33 45.62 22.68 45.62 23.03 45.62 23.38 45.62 23.74 45.62 24.09 45.52 24.79 45.52 25.14 45.43 25.84 45.33 26.54 45.14 26.89 45.14 27.59 45.14 27.94 45.04 30.4 44.66 31.45 44.66 32.15 44.66 34.6 44.57 34.95 44.37 35.3 44.28 35.66 44.28 36.01 44.28 36.36 44.28 36.71 44.28 37.06 44.28 37.41 44.28 37.76 44.28 38.11 44.28 38.46 43.99 39.16 43.89 39.51 43.89 39.86 43.89 40.21 43.7 40.56 43.7 40.91 43.7 41.27 43.61 41.62 43.61 41.97 43.61 42.32 43.61 42.67 43.61 43.02 43.51 43.37 43.51 43.72 47.34 44.07 43.42 44.42 43.32 44.77 43.22 46.87 42.65 47.23 42.55 47.58 42.46 47.93 42.36 48.28 42.17 48.63 42.17 48.98 41.98 49.33 41.98 49.68 41.88 50.03 41.79 50.73 41.79 51.08 41.59 51.43 41.59 51.78 41.59 52.13 41.59 52.48 41.59 52.83 41.31 53.19 41.31 53.89 41.21 54.24 41.02 54.59 40.92 54.94 40.83 55.29 40.83 55.64 40.64 56.34 40.54 56.69 40.25 57.04 40.25 57.39 40.25 58.09 39.77 58.79 39.49 59.15 39.49 59.5 39.39 59.85 39.39 60.9 39.29 61.25 39.29 61.6 39.2 61.95 39.2 62.3 39.2 62.65 39.1 63 39.01 63.35 38.91 64.05 38.91 64.4 38.91 65.11 38.91 65.46 38.82 65.81 38.53 66.16 38.53 66.86 38.43 67.21 38.43 67.56 38.24 67.91 38.14 68.26 38.05 68.61 37.95 68.96 37.86 69.31 37.67 69.66 37.67 70.01 37.57 70.36 37.47 70.72 37.47 71.07 37.47 71.77 37.19 72.12 37.19 72.47 37.09 72.82 37.09 73.17 37.09 73.52 36.8 73.87 36.71 74.22 36.61 74.92 37.76 75.27 37.47 75.97 37.28 76.32 37.28 76.68 37.28 78.08 37.28 79.13 36.71 79.48 36.61 79.83 36.52 80.18 36.32 80.53 36.32 80.88 36.32 81.23 35.56 81.58 35.56 81.93 35.56 82.64 35.56 82.99 35.46 83.34 35.37 83.69 35.37 84.04 35.37 84.39 35.27 84.74 35.27 85.44 35.37 85.79 35.27 86.14 35.27 86.49 35.08 86.84 33.16 87.19 34.89 87.54 34.89 87.89 34.69 88.95 34.5 89.3 34.5 89.65 34.31 90 34.22 90.35 34.22 90.7 34.22 91.05 34.02 91.4 34.02 91.75 33.93 92.1 33.83 92.45 33.83 92.8 33.83 93.15 33.83 93.5 33.74 93.85 33.54 94.21 33.54 94.56 33.54 94.91 33.45 95.26 33.45 95.61 33.35 95.96 33.35 96.31 33.16 96.66 33.07 97.01 33.07 97.36 32.97 97.71 32.97 98.06 32.97 98.41 32.87 98.76 32.87 99.11 32.78 100.17 32.78 101.92 32.3 102.27 32.11 102.62 32.11 102.97 32.01 103.32 32.01 103.67 31.72 104.02 31.72 105.42 31.24 105.77 31.24 107.53 31.15 108.23 31.15 108.58 31.05 108.93 30.96 109.28 30.96 109.63 30.96 109.98 30.77 110.33 30.67 111.38 30.48 111.73 30.38 112.44 30.1 112.79 30 113.14 30 114.19 30 114.89 29.81 115.94 29.62 117.34 29.42 118.05 29.14 119.1 28.75 121.55 28.18 122.95 27.51 123.3 27.32 123.66 27.32 124.01 26.84 124.36 26.84 124.71 26.84 125.41 26.84 125.76 26.65 126.11 26.65 126.46 26.36 126.81 26.26 127.16 26.26 127.51 26.26 128.21 25.97 128.56 25.78 128.91 25.69 130.32 24.92 130.67 25.11 131.02 25.11 131.72 24.82 132.42 24.54 132.77 24.54 133.82 24.35 135.58 24.35 137.33 23.77 139.08 23.39 139.43 23.39 139.78 23.39 140.13 23.2 140.48 23.2 141.18 23.2 141.89 23.2 143.29 23 143.64 22.81 143.99 22.72 144.34 22.72 144.69 22.52 145.04 22.62 145.39 22.43 149.6 22.33 150.3 22.33 150.65 22.05 151.35 22.05 152.75 21.95 153.46 21.95 154.16 21.66 155.56 21.66 156.26 21.47 156.61 21.37 157.31 20.9 157.66 20.9 158.01 20.8 158.36 20.51 158.71 20.51 159.07 20.42 159.77 20.32 160.12 20.22 160.82 20.22 161.52 20.03 161.87 19.75 162.22 19.65 162.92 19.46 163.27 19.36 165.03 18.98 166.43 18.79 166.78 18.6 169.58 18.21 169.93 18.21 170.28 18.21 171.34 17.92 171.69 17.83 172.04 17.73 172.74 17.54 173.44 17.54 174.14 17.45 177.3 16.97 178.35 17.06 178.7 17.06 179.05 16.87 179.4 16.87 179.75 16.68 180.1 16.68 180.45 16.68 180.8 16.58 181.85 16.58" id="fig-f1ce85bd10964941961c0d2dd23e532b-element-70"/>
      </g>
      <g stroke-width="0.79" fill="#000000" fill-opacity="0.000" class="geometry color_0.2" stroke="#00BFFF" id="fig-f1ce85bd10964941961c0d2dd23e532b-element-71">
        <path fill="none" d="M21.63,46.77 L 21.98 46.77 22.33 46.67 22.68 46.67 23.03 46.67 23.38 46.67 23.74 46.67 24.09 46.67 24.79 46.67 25.14 46.67 25.84 46.58 26.54 46.48 26.89 46.48 27.59 46.39 27.94 46.29 30.4 46.1 31.45 46.1 32.15 46.1 34.6 46 34.95 45.91 35.3 45.91 35.66 45.91 36.01 45.91 36.36 45.91 36.71 45.91 37.06 45.91 37.41 45.91 37.76 45.91 38.11 45.62 38.46 45.62 39.16 45.52 39.51 45.52 39.86 45.52 40.21 45.43 40.56 46.19 40.91 45.72 41.27 45.72 41.62 45.72 41.97 45.72 42.32 45.72 42.67 45.72 43.02 45.72 43.37 45.72 43.72 45.62 44.07 45.62 44.42 45.52 44.77 45.52 46.87 45.04 47.23 45.04 47.58 44.95 47.93 44.85 48.28 44.66 48.63 44.66 48.98 44.66 49.33 44.66 49.68 44.66 50.03 44.57 50.73 44.57 51.08 44.37 51.43 44.37 51.78 44.37 52.13 44.37 52.48 44.37 52.83 44.09 53.19 44.09 53.89 43.99 54.24 43.8 54.59 43.7 54.94 43.61 55.29 43.61 55.64 43.61 56.34 43.42 56.69 43.32 57.04 43.22 57.39 43.22 58.09 43.03 58.79 42.84 59.15 42.84 59.5 42.84 59.85 42.84 60.9 42.84 61.25 42.84 61.6 42.74 61.95 42.74 62.3 42.74 62.65 42.65 63 42.65 63.35 42.65 64.05 42.55 64.4 42.55 65.11 42.55 65.46 42.55 65.81 42.27 66.16 42.27 66.86 42.46 67.21 42.46 67.56 42.27 67.91 42.17 68.26 42.17 68.61 41.98 68.96 41.98" id="fig-f1ce85bd10964941961c0d2dd23e532b-element-72"/>
      </g>
    </g>
  </g>
  <g class="guide ylabels" font-size="2.82" font-family="'PT Sans Caption','Helvetica Neue','Helvetica',sans-serif" fill="#6C606B" id="fig-f1ce85bd10964941961c0d2dd23e532b-element-73">
    <text x="18.63" y="54.91" text-anchor="end" dy="0.35em" id="fig-f1ce85bd10964941961c0d2dd23e532b-element-74">200</text>
    <text x="18.63" y="45.33" text-anchor="end" dy="0.35em" id="fig-f1ce85bd10964941961c0d2dd23e532b-element-75">300</text>
    <text x="18.63" y="35.75" text-anchor="end" dy="0.35em" id="fig-f1ce85bd10964941961c0d2dd23e532b-element-76">400</text>
    <text x="18.63" y="26.17" text-anchor="end" dy="0.35em" id="fig-f1ce85bd10964941961c0d2dd23e532b-element-77">500</text>
    <text x="18.63" y="16.58" text-anchor="end" dy="0.35em" id="fig-f1ce85bd10964941961c0d2dd23e532b-element-78">600</text>
    <text x="18.63" y="7" text-anchor="end" dy="0.35em" id="fig-f1ce85bd10964941961c0d2dd23e532b-element-79">700</text>
  </g>
</g>
<defs>
<clipPath id="fig-f1ce85bd10964941961c0d2dd23e532b-element-18">
  <path d="M19.63,5 L 183.85 5 183.85 56.92 19.63 56.92" />
</clipPath
></defs>
</svg>
