<?xml version="1.0" encoding="UTF-8"?>
<svg xmlns="http://www.w3.org/2000/svg"
     xmlns:xlink="http://www.w3.org/1999/xlink"
     xmlns:gadfly="http://www.gadflyjl.org/ns"
     version="1.2"
     width="203.2mm" height="76.2mm" viewBox="0 0 203.2 76.2"
     stroke="none"
     fill="#000000"
     stroke-width="0.3"
     font-size="3.88"
>
<g class="plotroot xscalable yscalable" id="fig-f3f1f7f825cf40ac96641842b73cedb3-element-1">
  <g font-size="3.88" font-family="'PT Sans','Helvetica Neue','Helvetica',sans-serif" fill="#564A55" stroke="none" id="fig-f3f1f7f825cf40ac96641842b73cedb3-element-2">
    <text x="101.74" y="68.2" text-anchor="middle">Date</text>
  </g>
  <g class="guide xlabels" font-size="2.82" font-family="'PT Sans Caption','Helvetica Neue','Helvetica',sans-serif" fill="#6C606B" id="fig-f3f1f7f825cf40ac96641842b73cedb3-element-3">
    <text x="22.83" y="62.59" text-anchor="middle">Apr</text>
    <text x="42" y="62.59" text-anchor="middle">May</text>
    <text x="61.81" y="62.59" text-anchor="middle">June</text>
    <text x="80.98" y="62.59" text-anchor="middle">July</text>
    <text x="100.78" y="62.59" text-anchor="middle">Aug</text>
    <text x="120.59" y="62.59" text-anchor="middle">Sept</text>
    <text x="139.76" y="62.59" text-anchor="middle">Oct</text>
    <text x="159.57" y="62.59" text-anchor="middle">Nev</text>
    <text x="178.74" y="62.59" text-anchor="middle">Dec</text>
  </g>
  <g class="guide colorkey" id="fig-f3f1f7f825cf40ac96641842b73cedb3-element-4">
    <g fill="#4C404B" font-size="2.82" font-family="'PT Sans','Helvetica Neue','Helvetica',sans-serif" id="fig-f3f1f7f825cf40ac96641842b73cedb3-element-5">
      <text x="187.67" y="30.14" dy="0.35em" id="fig-f3f1f7f825cf40ac96641842b73cedb3-element-6" class="color_0.2">0.2</text>
      <text x="187.67" y="33.77" dy="0.35em" id="fig-f3f1f7f825cf40ac96641842b73cedb3-element-7" class="color_0.3">0.3</text>
      <text x="187.67" y="37.4" dy="0.35em" id="fig-f3f1f7f825cf40ac96641842b73cedb3-element-8" class="color_0.4">0.4</text>
    </g>
    <g stroke="none" id="fig-f3f1f7f825cf40ac96641842b73cedb3-element-9">
      <rect x="184.85" y="29.24" width="1.81" height="1.81" id="fig-f3f1f7f825cf40ac96641842b73cedb3-element-10" class="color_0.2" fill="#00BFFF"/>
      <rect x="184.85" y="32.86" width="1.81" height="1.81" id="fig-f3f1f7f825cf40ac96641842b73cedb3-element-11" class="color_0.3" fill="#D4CA3A"/>
      <rect x="184.85" y="36.49" width="1.81" height="1.81" id="fig-f3f1f7f825cf40ac96641842b73cedb3-element-12" class="color_0.4" fill="#FF5EA0"/>
    </g>
    <g fill="#362A35" font-size="3.88" font-family="'PT Sans','Helvetica Neue','Helvetica',sans-serif" stroke="none" id="fig-f3f1f7f825cf40ac96641842b73cedb3-element-13">
      <text x="184.85" y="26.32" id="fig-f3f1f7f825cf40ac96641842b73cedb3-element-14">Julia ver.</text>
    </g>
  </g>
  <g font-size="3.88" font-family="'PT Sans','Helvetica Neue','Helvetica',sans-serif" fill="#564A55" stroke="none" id="fig-f3f1f7f825cf40ac96641842b73cedb3-element-15">
    <text x="8.81" y="29.96" text-anchor="middle" dy="0.35em" transform="rotate(-90, 8.81, 31.96)" id="fig-f3f1f7f825cf40ac96641842b73cedb3-element-16">Number of Tagged Packages</text>
  </g>
  <g clip-path="url(#fig-f3f1f7f825cf40ac96641842b73cedb3-element-18)" id="fig-f3f1f7f825cf40ac96641842b73cedb3-element-17">
    <g pointer-events="visible" opacity="1" fill="none" stroke="none" class="guide background" id="fig-f3f1f7f825cf40ac96641842b73cedb3-element-19">
      <rect x="19.63" y="5" width="164.22" height="53.91" id="fig-f3f1f7f825cf40ac96641842b73cedb3-element-20"/>
    </g>
    <g class="guide ygridlines xfixed" stroke-dasharray="0.5,0.5" stroke-width="0.2" stroke="#D0D0E0" id="fig-f3f1f7f825cf40ac96641842b73cedb3-element-21">
      <path fill="none" d="M19.63,56.91 L 183.85 56.91" id="fig-f3f1f7f825cf40ac96641842b73cedb3-element-22"/>
      <path fill="none" d="M19.63,44.44 L 183.85 44.44" id="fig-f3f1f7f825cf40ac96641842b73cedb3-element-23"/>
      <path fill="none" d="M19.63,31.96 L 183.85 31.96" id="fig-f3f1f7f825cf40ac96641842b73cedb3-element-24"/>
      <path fill="none" d="M19.63,19.48 L 183.85 19.48" id="fig-f3f1f7f825cf40ac96641842b73cedb3-element-25"/>
      <path fill="none" d="M19.63,7 L 183.85 7" id="fig-f3f1f7f825cf40ac96641842b73cedb3-element-26"/>
    </g>
    <g class="guide xgridlines yfixed" stroke-dasharray="0.5,0.5" stroke-width="0.2" stroke="#D0D0E0" id="fig-f3f1f7f825cf40ac96641842b73cedb3-element-27">
      <path fill="none" d="M22.83,5 L 22.83 58.91" id="fig-f3f1f7f825cf40ac96641842b73cedb3-element-28"/>
      <path fill="none" d="M42,5 L 42 58.91" id="fig-f3f1f7f825cf40ac96641842b73cedb3-element-29"/>
      <path fill="none" d="M61.81,5 L 61.81 58.91" id="fig-f3f1f7f825cf40ac96641842b73cedb3-element-30"/>
      <path fill="none" d="M80.98,5 L 80.98 58.91" id="fig-f3f1f7f825cf40ac96641842b73cedb3-element-31"/>
      <path fill="none" d="M100.78,5 L 100.78 58.91" id="fig-f3f1f7f825cf40ac96641842b73cedb3-element-32"/>
      <path fill="none" d="M120.59,5 L 120.59 58.91" id="fig-f3f1f7f825cf40ac96641842b73cedb3-element-33"/>
      <path fill="none" d="M139.76,5 L 139.76 58.91" id="fig-f3f1f7f825cf40ac96641842b73cedb3-element-34"/>
      <path fill="none" d="M159.57,5 L 159.57 58.91" id="fig-f3f1f7f825cf40ac96641842b73cedb3-element-35"/>
      <path fill="none" d="M178.74,5 L 178.74 58.91" id="fig-f3f1f7f825cf40ac96641842b73cedb3-element-36"/>
    </g>
    <g class="plotpanel" id="fig-f3f1f7f825cf40ac96641842b73cedb3-element-37">
      <g stroke-width="0.79" fill="none" class="geometry color_0.4" stroke="#FF5EA0" id="fig-f3f1f7f825cf40ac96641842b73cedb3-element-38">
        <path fill="none" d="M108.45,28.46 L 109.09 27.71 109.73 27.47 110.37 27.22 111.01 27.22 111.65 27.22 112.93 26.47 113.56 26.47 114.2 26.22 114.84 26.22 115.48 26.22 116.12 25.47 116.76 24.97 117.4 24.97 118.68 24.47 119.32 23.72 120.59 23.22 121.23 23.22 121.87 23.22 124.43 23.22 126.34 21.72 126.98 21.48 127.62 21.23 128.26 20.73 128.9 20.73 129.54 20.73 130.18 18.73 130.82 18.73 131.46 18.73 132.73 18.48 133.37 18.48 134.01 18.23 134.65 18.23 135.29 18.23 135.93 17.98 136.57 17.98 137.85 18.23 138.49 17.98 139.12 17.98 139.76 17.48 140.4 16.98 141.04 16.98 141.68 16.98 142.32 16.48 144.24 15.98 144.88 15.98 145.51 15.49 146.15 15.24 146.79 15.24 147.43 15.24 148.07 14.74 148.71 14.74 149.35 14.49 149.99 14.24 150.63 14.24 151.27 14.24 151.9 14.24 152.54 13.74 153.18 13.24 153.82 13.24 154.46 13.24 155.1 12.99 155.74 12.99 156.38 12.74 157.02 12.74 157.66 12.24 158.29 11.99 158.93 11.99 159.57 11.74 160.21 11.74 160.85 11.74 161.49 11.74 162.13 11.49 162.77 11.24 164.68 11.24 167.88 9.75 168.52 9.25 169.16 9.25 169.8 9 170.44 9 171.07 8.25 171.71 8.25 174.27 7 174.91 7 178.1 6.75 179.38 6.75 180.02 6.25 180.66 6 181.3 6 181.94 6" id="fig-f3f1f7f825cf40ac96641842b73cedb3-element-39"/>
      </g>
      <g stroke-width="0.79" fill="none" class="geometry color_0.3" stroke="#D4CA3A" id="fig-f3f1f7f825cf40ac96641842b73cedb3-element-40">
        <path fill="none" d="M21.55,45.43 L 22.19 45.43 22.83 45.18 23.47 45.18 24.1 45.18 24.74 45.18 25.38 45.18 26.02 44.94 27.3 44.94 27.94 44.69 29.22 44.44 30.49 43.94 31.13 43.94 32.41 43.94 33.05 43.69 37.52 42.69 39.44 42.69 40.72 42.69 45.19 42.44 45.83 41.94 46.47 41.69 47.11 41.69 47.75 41.69 48.39 41.69 49.03 41.69 49.66 41.69 50.3 41.69 50.94 41.69 51.58 41.69 52.22 40.94 53.5 40.69 54.14 40.69 54.78 40.69 55.42 40.19 56.05 40.19 56.69 40.19 57.33 39.94 57.97 39.94 58.61 39.94 59.25 39.94 59.89 39.94 60.53 39.69 61.17 39.69 61.81 49.68 62.44 39.44 63.08 39.2 63.72 38.95 67.56 37.45 68.2 37.2 68.83 36.95 69.47 36.7 70.11 36.2 70.75 36.2 71.39 35.7 72.03 35.7 72.67 35.45 73.31 35.2 74.59 35.2 75.22 34.7 75.86 34.7 76.5 34.7 77.14 34.7 77.78 34.7 78.42 33.95 79.06 33.95 80.34 33.7 80.98 33.21 81.61 32.96 82.25 32.71 82.89 32.71 83.53 32.21 84.81 31.96 85.45 31.21 86.09 31.21 86.73 31.21 88 29.96 89.28 29.21 89.92 29.21 90.56 28.96 91.2 28.96 93.12 28.71 93.76 28.71 94.39 28.46 95.03 28.46 95.67 28.46 96.31 28.21 96.95 27.96 97.59 27.71 98.87 27.71 99.51 27.71 100.78 27.71 101.42 27.47 102.06 26.72 102.7 26.72 103.98 26.47 104.62 26.47 105.26 25.97 105.9 25.72 106.54 25.47 107.17 25.22 107.81 24.97 108.45 24.47 109.09 24.47 109.73 24.22 110.37 23.97 111.01 23.97 111.65 23.97 112.93 23.22 113.56 23.22 114.2 22.97 114.84 22.97 115.48 22.97 116.12 22.22 116.76 21.97 117.4 21.72 118.68 24.72 119.32 23.97 120.59 23.47 121.23 23.47 121.87 23.47 124.43 23.47 126.34 21.97 126.98 21.72 127.62 21.48 128.26 20.98 128.9 20.98 129.54 20.98 130.18 18.98 130.82 18.98 131.46 18.98 132.73 18.98 133.37 18.73 134.01 18.48 134.65 18.48 135.29 18.48 135.93 18.23 136.57 18.23 137.85 18.48 138.49 18.23 139.12 18.23 139.76 17.73 140.4 12.74 141.04 17.23 141.68 17.23 142.32 16.73 144.24 16.23 144.88 16.23 145.51 15.74 146.15 15.49 146.79 15.49 147.43 15.49 148.07 14.99 148.71 14.99 149.35 14.74 149.99 14.49 150.63 14.49 151.27 14.49 151.9 14.49 152.54 14.24 153.18 13.74 153.82 13.74 154.46 13.74 155.1 13.49 155.74 13.49 156.38 13.24 157.02 13.24 157.66 12.74 158.29 12.49 158.93 12.49 159.57 12.24 160.21 12.24 160.85 12.24 161.49 11.99 162.13 11.99 162.77 11.74 164.68 11.74 167.88 10.49 168.52 9.99 169.16 9.99 169.8 9.75 170.44 9.75 171.07 9 171.71 9 174.27 7.75 174.91 7.75 178.1 7.5 179.38 7.5 180.02 7.25 180.66 7 181.3 7 181.94 7" id="fig-f3f1f7f825cf40ac96641842b73cedb3-element-41"/>
      </g>
      <g stroke-width="0.79" fill="none" class="geometry color_0.2" stroke="#00BFFF" id="fig-f3f1f7f825cf40ac96641842b73cedb3-element-42">
        <path fill="none" d="M21.55,48.18 L 22.19 48.18 22.83 47.93 23.47 47.93 24.1 47.93 24.74 47.93 25.38 47.93 26.02 47.93 27.3 47.93 27.94 47.93 29.22 47.68 30.49 47.43 31.13 47.43 32.41 47.18 33.05 46.93 37.52 46.43 39.44 46.43 40.72 46.43 45.19 46.18 45.83 45.93 46.47 45.93 47.11 45.93 47.75 45.93 48.39 45.93 49.03 45.93 49.66 45.93 50.3 45.93 50.94 45.93 51.58 45.18 52.22 45.18 53.5 44.94 54.14 44.94 54.78 44.94 55.42 44.69 56.05 46.68 56.69 45.43 57.33 45.43 57.97 45.43 58.61 45.43 59.25 45.43 59.89 45.43 60.53 45.43 61.17 45.43 61.81 45.18 62.44 45.18 63.08 44.94 63.72 44.94 67.56 43.69 68.2 43.69 68.83 43.44 69.47 43.19 70.11 42.69 70.75 42.69 71.39 42.69 72.03 42.69 72.67 42.69 73.31 42.44 74.59 42.44 75.22 41.94 75.86 41.94 76.5 41.94 77.14 41.94 77.78 41.94 78.42 41.19 79.06 41.19 80.34 40.94 80.98 40.44 81.61 40.19 82.25 39.94 82.89 39.94 83.53 39.94 84.81 39.44 85.45 39.2 86.09 38.95 86.73 38.95 88 38.45 89.28 37.95 89.92 37.95 90.56 37.95 91.2 37.95 93.12 37.95 93.76 37.95 94.39 37.7 95.03 37.7 95.67 37.7 96.31 37.45 96.95 37.45 97.59 37.45 98.87 37.2 99.51 37.2 100.78 37.2 101.42 37.2 102.06 36.45 102.7 36.45 103.98 36.95 104.62 36.95 105.26 36.45 105.9 36.2 106.54 36.2 107.17 35.7 107.81 35.7" id="fig-f3f1f7f825cf40ac96641842b73cedb3-element-43"/>
      </g>
    </g>
  </g>
  <g class="guide ylabels" font-size="2.82" font-family="'PT Sans Caption','Helvetica Neue','Helvetica',sans-serif" fill="#6C606B" id="fig-f3f1f7f825cf40ac96641842b73cedb3-element-44">
    <text x="18.63" y="56.91" text-anchor="end" dy="0.35em" id="fig-f3f1f7f825cf40ac96641842b73cedb3-element-45">250</text>
    <text x="18.63" y="44.44" text-anchor="end" dy="0.35em" id="fig-f3f1f7f825cf40ac96641842b73cedb3-element-46">300</text>
    <text x="18.63" y="31.96" text-anchor="end" dy="0.35em" id="fig-f3f1f7f825cf40ac96641842b73cedb3-element-47">350</text>
    <text x="18.63" y="19.48" text-anchor="end" dy="0.35em" id="fig-f3f1f7f825cf40ac96641842b73cedb3-element-48">400</text>
    <text x="18.63" y="7" text-anchor="end" dy="0.35em" id="fig-f3f1f7f825cf40ac96641842b73cedb3-element-49">450</text>
  </g>
</g>
<defs>
<clipPath id="fig-f3f1f7f825cf40ac96641842b73cedb3-element-18">
  <path d="M19.63,5 L 183.85 5 183.85 58.91 19.63 58.91" />
</clipPath
></defs>
</svg>
