<?xml version="1.0" encoding="UTF-8"?>
<svg xmlns="http://www.w3.org/2000/svg"
     xmlns:xlink="http://www.w3.org/1999/xlink"
     xmlns:gadfly="http://www.gadflyjl.org/ns"
     version="1.2"
     width="203.2mm" height="76.2mm" viewBox="0 0 203.2 76.2"
     stroke="none"
     fill="#000000"
     stroke-width="0.3"
     font-size="3.88"
>
<g class="plotroot xscalable yscalable" id="fig-25912cf9af7a46778ce4b27b85dea48d-element-1">
  <g font-size="3.88" font-family="'PT Sans','Helvetica Neue','Helvetica',sans-serif" fill="#564A55" stroke="none" id="fig-25912cf9af7a46778ce4b27b85dea48d-element-2">
    <text x="101.74" y="68.2" text-anchor="middle">Date</text>
  </g>
  <g class="guide xlabels" font-size="2.82" font-family="'PT Sans Caption','Helvetica Neue','Helvetica',sans-serif" fill="#6C606B" id="fig-25912cf9af7a46778ce4b27b85dea48d-element-3">
    <text x="23.08" y="62.59" text-anchor="middle">Apr</text>
    <text x="43.78" y="62.59" text-anchor="middle">May</text>
    <text x="65.17" y="62.59" text-anchor="middle">June</text>
    <text x="85.87" y="62.59" text-anchor="middle">July</text>
    <text x="107.26" y="62.59" text-anchor="middle">Aug</text>
    <text x="128.65" y="62.59" text-anchor="middle">Sept</text>
    <text x="149.35" y="62.59" text-anchor="middle">Oct</text>
    <text x="170.74" y="62.59" text-anchor="middle">Nev</text>
  </g>
  <g class="guide colorkey" id="fig-25912cf9af7a46778ce4b27b85dea48d-element-4">
    <g fill="#4C404B" font-size="2.82" font-family="'PT Sans','Helvetica Neue','Helvetica',sans-serif" id="fig-25912cf9af7a46778ce4b27b85dea48d-element-5">
      <text x="187.67" y="30.14" dy="0.35em" id="fig-25912cf9af7a46778ce4b27b85dea48d-element-6" class="color_0.2">0.2</text>
      <text x="187.67" y="33.77" dy="0.35em" id="fig-25912cf9af7a46778ce4b27b85dea48d-element-7" class="color_0.3">0.3</text>
      <text x="187.67" y="37.4" dy="0.35em" id="fig-25912cf9af7a46778ce4b27b85dea48d-element-8" class="color_0.4">0.4</text>
    </g>
    <g stroke="none" id="fig-25912cf9af7a46778ce4b27b85dea48d-element-9">
      <rect x="184.85" y="29.24" width="1.81" height="1.81" id="fig-25912cf9af7a46778ce4b27b85dea48d-element-10" class="color_0.2" fill="#00BFFF"/>
      <rect x="184.85" y="32.86" width="1.81" height="1.81" id="fig-25912cf9af7a46778ce4b27b85dea48d-element-11" class="color_0.3" fill="#D4CA3A"/>
      <rect x="184.85" y="36.49" width="1.81" height="1.81" id="fig-25912cf9af7a46778ce4b27b85dea48d-element-12" class="color_0.4" fill="#FF5EA0"/>
    </g>
    <g fill="#362A35" font-size="3.88" font-family="'PT Sans','Helvetica Neue','Helvetica',sans-serif" stroke="none" id="fig-25912cf9af7a46778ce4b27b85dea48d-element-13">
      <text x="184.85" y="26.32" id="fig-25912cf9af7a46778ce4b27b85dea48d-element-14">Julia ver.</text>
    </g>
  </g>
  <g font-size="3.88" font-family="'PT Sans','Helvetica Neue','Helvetica',sans-serif" fill="#564A55" stroke="none" id="fig-25912cf9af7a46778ce4b27b85dea48d-element-15">
    <text x="8.81" y="29.96" text-anchor="middle" dy="0.35em" transform="rotate(-90, 8.81, 31.96)" id="fig-25912cf9af7a46778ce4b27b85dea48d-element-16">Number of Tagged Packages</text>
  </g>
  <g clip-path="url(#fig-25912cf9af7a46778ce4b27b85dea48d-element-18)" id="fig-25912cf9af7a46778ce4b27b85dea48d-element-17">
    <g pointer-events="visible" opacity="1" fill="none" stroke="none" class="guide background" id="fig-25912cf9af7a46778ce4b27b85dea48d-element-19">
      <rect x="19.63" y="5" width="164.22" height="53.91" id="fig-25912cf9af7a46778ce4b27b85dea48d-element-20"/>
    </g>
    <g class="guide ygridlines xfixed" stroke-dasharray="0.5,0.5" stroke-width="0.2" stroke="#D0D0E0" id="fig-25912cf9af7a46778ce4b27b85dea48d-element-21">
      <path fill="none" d="M19.63,56.91 L 183.85 56.91" id="fig-25912cf9af7a46778ce4b27b85dea48d-element-22"/>
      <path fill="none" d="M19.63,44.44 L 183.85 44.44" id="fig-25912cf9af7a46778ce4b27b85dea48d-element-23"/>
      <path fill="none" d="M19.63,31.96 L 183.85 31.96" id="fig-25912cf9af7a46778ce4b27b85dea48d-element-24"/>
      <path fill="none" d="M19.63,19.48 L 183.85 19.48" id="fig-25912cf9af7a46778ce4b27b85dea48d-element-25"/>
      <path fill="none" d="M19.63,7 L 183.85 7" id="fig-25912cf9af7a46778ce4b27b85dea48d-element-26"/>
    </g>
    <g class="guide xgridlines yfixed" stroke-dasharray="0.5,0.5" stroke-width="0.2" stroke="#D0D0E0" id="fig-25912cf9af7a46778ce4b27b85dea48d-element-27">
      <path fill="none" d="M23.08,5 L 23.08 58.91" id="fig-25912cf9af7a46778ce4b27b85dea48d-element-28"/>
      <path fill="none" d="M43.78,5 L 43.78 58.91" id="fig-25912cf9af7a46778ce4b27b85dea48d-element-29"/>
      <path fill="none" d="M65.17,5 L 65.17 58.91" id="fig-25912cf9af7a46778ce4b27b85dea48d-element-30"/>
      <path fill="none" d="M85.87,5 L 85.87 58.91" id="fig-25912cf9af7a46778ce4b27b85dea48d-element-31"/>
      <path fill="none" d="M107.26,5 L 107.26 58.91" id="fig-25912cf9af7a46778ce4b27b85dea48d-element-32"/>
      <path fill="none" d="M128.65,5 L 128.65 58.91" id="fig-25912cf9af7a46778ce4b27b85dea48d-element-33"/>
      <path fill="none" d="M149.35,5 L 149.35 58.91" id="fig-25912cf9af7a46778ce4b27b85dea48d-element-34"/>
      <path fill="none" d="M170.74,5 L 170.74 58.91" id="fig-25912cf9af7a46778ce4b27b85dea48d-element-35"/>
    </g>
    <g class="plotpanel" id="fig-25912cf9af7a46778ce4b27b85dea48d-element-36">
      <g stroke-width="0.79" fill="none" class="geometry color_0.4" stroke="#FF5EA0" id="fig-25912cf9af7a46778ce4b27b85dea48d-element-37">
        <path fill="none" d="M115.54,28.46 L 116.23 27.71 116.92 27.47 117.61 27.22 118.3 27.22 118.99 27.22 120.37 26.47 121.06 26.47 121.75 26.22 122.44 26.22 123.13 26.22 123.82 25.47 124.51 24.97 125.2 24.97 126.58 24.47 127.27 23.72 128.65 23.22 129.34 23.22 130.03 23.22 132.79 23.22 134.86 21.72 135.55 21.48 136.24 21.23 136.93 20.73 137.62 20.73 138.31 20.73 139 18.73 139.69 18.73 140.38 18.73 141.76 18.48 142.45 18.48 143.14 18.23 143.83 18.23 144.52 18.23 145.21 17.98 145.9 17.98 147.28 18.23 147.97 17.98 148.66 17.98 149.35 17.48 150.04 16.98 150.73 16.98 151.42 16.98 152.11 16.48 154.18 15.98 154.87 15.98 155.56 15.49 156.25 15.24 156.94 15.24 157.63 15.24 158.32 14.74 159.01 14.74 159.7 14.49 160.39 14.24 161.08 14.24 161.77 14.24 162.46 14.24 163.15 13.74 163.84 13.24 164.53 13.24 165.22 13.24 165.91 12.99 166.6 12.99 167.29 12.74 167.98 12.74 168.67 12.24 169.36 11.99 170.05 11.99 170.74 11.74 171.43 11.74 172.12 11.74 172.81 11.74 173.5 11.49 174.19 11.24 176.26 11.24 179.71 9.75 180.4 9.25 181.09 9.25 181.78 9" id="fig-25912cf9af7a46778ce4b27b85dea48d-element-38"/>
      </g>
      <g stroke-width="0.79" fill="none" class="geometry color_0.3" stroke="#D4CA3A" id="fig-25912cf9af7a46778ce4b27b85dea48d-element-39">
        <path fill="none" d="M21.7,45.43 L 22.39 45.43 23.08 45.18 23.77 45.18 24.46 45.18 25.15 45.18 25.84 45.18 26.53 44.94 27.91 44.94 28.6 44.69 29.98 44.44 31.36 43.94 32.05 43.94 33.43 43.94 34.12 43.69 38.95 42.69 41.02 42.69 42.4 42.69 47.23 42.44 47.92 41.94 48.61 41.69 49.3 41.69 49.99 41.69 50.68 41.69 51.37 41.69 52.06 41.69 52.75 41.69 53.44 41.69 54.13 41.69 54.82 40.94 56.2 40.69 56.89 40.69 57.58 40.69 58.27 40.19 58.96 40.19 59.65 40.19 60.34 39.94 61.03 39.94 61.72 39.94 62.41 39.94 63.1 39.94 63.79 39.69 64.48 39.69 65.17 49.68 65.86 39.44 66.55 39.2 67.24 38.95 71.38 37.45 72.07 37.2 72.76 36.95 73.45 36.7 74.14 36.2 74.83 36.2 75.52 35.7 76.21 35.7 76.9 35.45 77.59 35.2 78.97 35.2 79.66 34.7 80.35 34.7 81.04 34.7 81.73 34.7 82.42 34.7 83.11 33.95 83.8 33.95 85.18 33.7 85.87 33.21 86.56 32.96 87.25 32.71 87.94 32.71 88.63 32.21 90.01 31.96 90.7 31.21 91.39 31.21 92.08 31.21 93.46 29.96 94.84 29.21 95.53 29.21 96.22 28.96 96.91 28.96 98.98 28.71 99.67 28.71 100.36 28.46 101.05 28.46 101.74 28.46 102.43 28.21 103.12 27.96 103.81 27.71 105.19 27.71 105.88 27.71 107.26 27.71 107.95 27.47 108.64 26.72 109.33 26.72 110.71 26.47 111.4 26.47 112.09 25.97 112.78 25.72 113.47 25.47 114.16 25.22 114.85 24.97 115.54 24.47 116.23 24.47 116.92 24.22 117.61 23.97 118.3 23.97 118.99 23.97 120.37 23.22 121.06 23.22 121.75 22.97 122.44 22.97 123.13 22.97 123.82 22.22 124.51 21.97 125.2 21.72 126.58 24.72 127.27 23.97 128.65 23.47 129.34 23.47 130.03 23.47 132.79 23.47 134.86 21.97 135.55 21.72 136.24 21.48 136.93 20.98 137.62 20.98 138.31 20.98 139 18.98 139.69 18.98 140.38 18.98 141.76 18.98 142.45 18.73 143.14 18.48 143.83 18.48 144.52 18.48 145.21 18.23 145.9 18.23 147.28 18.48 147.97 18.23 148.66 18.23 149.35 17.73 150.04 12.74 150.73 17.23 151.42 17.23 152.11 16.73 154.18 16.23 154.87 16.23 155.56 15.74 156.25 15.49 156.94 15.49 157.63 15.49 158.32 14.99 159.01 14.99 159.7 14.74 160.39 14.49 161.08 14.49 161.77 14.49 162.46 14.49 163.15 14.24 163.84 13.74 164.53 13.74 165.22 13.74 165.91 13.49 166.6 13.49 167.29 13.24 167.98 13.24 168.67 12.74 169.36 12.49 170.05 12.49 170.74 12.24 171.43 12.24 172.12 12.24 172.81 11.99 173.5 11.99 174.19 11.74 176.26 11.74 179.71 10.49 180.4 9.99 181.09 9.99 181.78 9.75" id="fig-25912cf9af7a46778ce4b27b85dea48d-element-40"/>
      </g>
      <g stroke-width="0.79" fill="none" class="geometry color_0.2" stroke="#00BFFF" id="fig-25912cf9af7a46778ce4b27b85dea48d-element-41">
        <path fill="none" d="M21.7,48.18 L 22.39 48.18 23.08 47.93 23.77 47.93 24.46 47.93 25.15 47.93 25.84 47.93 26.53 47.93 27.91 47.93 28.6 47.93 29.98 47.68 31.36 47.43 32.05 47.43 33.43 47.18 34.12 46.93 38.95 46.43 41.02 46.43 42.4 46.43 47.23 46.18 47.92 45.93 48.61 45.93 49.3 45.93 49.99 45.93 50.68 45.93 51.37 45.93 52.06 45.93 52.75 45.93 53.44 45.93 54.13 45.18 54.82 45.18 56.2 44.94 56.89 44.94 57.58 44.94 58.27 44.69 58.96 46.68 59.65 45.43 60.34 45.43 61.03 45.43 61.72 45.43 62.41 45.43 63.1 45.43 63.79 45.43 64.48 45.43 65.17 45.18 65.86 45.18 66.55 44.94 67.24 44.94 71.38 43.69 72.07 43.69 72.76 43.44 73.45 43.19 74.14 42.69 74.83 42.69 75.52 42.69 76.21 42.69 76.9 42.69 77.59 42.44 78.97 42.44 79.66 41.94 80.35 41.94 81.04 41.94 81.73 41.94 82.42 41.94 83.11 41.19 83.8 41.19 85.18 40.94 85.87 40.44 86.56 40.19 87.25 39.94 87.94 39.94 88.63 39.94 90.01 39.44 90.7 39.2 91.39 38.95 92.08 38.95 93.46 38.45 94.84 37.95 95.53 37.95 96.22 37.95 96.91 37.95 98.98 37.95 99.67 37.95 100.36 37.7 101.05 37.7 101.74 37.7 102.43 37.45 103.12 37.45 103.81 37.45 105.19 37.2 105.88 37.2 107.26 37.2 107.95 37.2 108.64 36.45 109.33 36.45 110.71 36.95 111.4 36.95 112.09 36.45 112.78 36.2 113.47 36.2 114.16 35.7 114.85 35.7" id="fig-25912cf9af7a46778ce4b27b85dea48d-element-42"/>
      </g>
    </g>
  </g>
  <g class="guide ylabels" font-size="2.82" font-family="'PT Sans Caption','Helvetica Neue','Helvetica',sans-serif" fill="#6C606B" id="fig-25912cf9af7a46778ce4b27b85dea48d-element-43">
    <text x="18.63" y="56.91" text-anchor="end" dy="0.35em" id="fig-25912cf9af7a46778ce4b27b85dea48d-element-44">250</text>
    <text x="18.63" y="44.44" text-anchor="end" dy="0.35em" id="fig-25912cf9af7a46778ce4b27b85dea48d-element-45">300</text>
    <text x="18.63" y="31.96" text-anchor="end" dy="0.35em" id="fig-25912cf9af7a46778ce4b27b85dea48d-element-46">350</text>
    <text x="18.63" y="19.48" text-anchor="end" dy="0.35em" id="fig-25912cf9af7a46778ce4b27b85dea48d-element-47">400</text>
    <text x="18.63" y="7" text-anchor="end" dy="0.35em" id="fig-25912cf9af7a46778ce4b27b85dea48d-element-48">450</text>
  </g>
</g>
<defs>
<clipPath id="fig-25912cf9af7a46778ce4b27b85dea48d-element-18">
  <path d="M19.63,5 L 183.85 5 183.85 58.91 19.63 58.91" />
</clipPath
></defs>
</svg>
