<?xml version="1.0" encoding="UTF-8"?>
<svg xmlns="http://www.w3.org/2000/svg"
     xmlns:xlink="http://www.w3.org/1999/xlink"
     xmlns:gadfly="http://www.gadflyjl.org/ns"
     version="1.2"
     width="203.2mm" height="76.2mm" viewBox="0 0 203.2 76.2"
     stroke="none"
     fill="#000000"
     stroke-width="0.3"
     font-size="3.88"
>
<g class="plotroot xscalable yscalable" id="fig-e94eee177352467783efcdb9c80b8c19-element-1">
  <g font-size="3.88" font-family="'PT Sans','Helvetica Neue','Helvetica',sans-serif" fill="#564A55" stroke="none" id="fig-e94eee177352467783efcdb9c80b8c19-element-2">
    <text x="101.74" y="68.2" text-anchor="middle">Date</text>
  </g>
  <g class="guide xlabels" font-size="2.82" font-family="'PT Sans Caption','Helvetica Neue','Helvetica',sans-serif" fill="#6C606B" id="fig-e94eee177352467783efcdb9c80b8c19-element-3">
    <text x="22.86" y="62.59" text-anchor="middle">Apr</text>
    <text x="42.26" y="62.59" text-anchor="middle">May</text>
    <text x="62.3" y="62.59" text-anchor="middle">June</text>
    <text x="81.7" y="62.59" text-anchor="middle">July</text>
    <text x="101.74" y="62.59" text-anchor="middle">Aug</text>
    <text x="121.79" y="62.59" text-anchor="middle">Sept</text>
    <text x="141.18" y="62.59" text-anchor="middle">Oct</text>
    <text x="161.23" y="62.59" text-anchor="middle">Nev</text>
    <text x="180.62" y="62.59" text-anchor="middle">Dec</text>
  </g>
  <g class="guide colorkey" id="fig-e94eee177352467783efcdb9c80b8c19-element-4">
    <g fill="#4C404B" font-size="2.82" font-family="'PT Sans','Helvetica Neue','Helvetica',sans-serif" id="fig-e94eee177352467783efcdb9c80b8c19-element-5">
      <text x="187.67" y="30.14" dy="0.35em" id="fig-e94eee177352467783efcdb9c80b8c19-element-6" class="color_0.2">0.2</text>
      <text x="187.67" y="33.77" dy="0.35em" id="fig-e94eee177352467783efcdb9c80b8c19-element-7" class="color_0.3">0.3</text>
      <text x="187.67" y="37.4" dy="0.35em" id="fig-e94eee177352467783efcdb9c80b8c19-element-8" class="color_0.4">0.4</text>
    </g>
    <g stroke="none" id="fig-e94eee177352467783efcdb9c80b8c19-element-9">
      <rect x="184.85" y="29.24" width="1.81" height="1.81" id="fig-e94eee177352467783efcdb9c80b8c19-element-10" class="color_0.2" fill="#00BFFF"/>
      <rect x="184.85" y="32.86" width="1.81" height="1.81" id="fig-e94eee177352467783efcdb9c80b8c19-element-11" class="color_0.3" fill="#D4CA3A"/>
      <rect x="184.85" y="36.49" width="1.81" height="1.81" id="fig-e94eee177352467783efcdb9c80b8c19-element-12" class="color_0.4" fill="#FF5EA0"/>
    </g>
    <g fill="#362A35" font-size="3.88" font-family="'PT Sans','Helvetica Neue','Helvetica',sans-serif" stroke="none" id="fig-e94eee177352467783efcdb9c80b8c19-element-13">
      <text x="184.85" y="26.32" id="fig-e94eee177352467783efcdb9c80b8c19-element-14">Julia ver.</text>
    </g>
  </g>
  <g font-size="3.88" font-family="'PT Sans','Helvetica Neue','Helvetica',sans-serif" fill="#564A55" stroke="none" id="fig-e94eee177352467783efcdb9c80b8c19-element-15">
    <text x="8.81" y="29.96" text-anchor="middle" dy="0.35em" transform="rotate(-90, 8.81, 31.96)" id="fig-e94eee177352467783efcdb9c80b8c19-element-16">Number of Tagged Packages</text>
  </g>
  <g clip-path="url(#fig-e94eee177352467783efcdb9c80b8c19-element-18)" id="fig-e94eee177352467783efcdb9c80b8c19-element-17">
    <g pointer-events="visible" opacity="1" fill="none" stroke="none" class="guide background" id="fig-e94eee177352467783efcdb9c80b8c19-element-19">
      <rect x="19.63" y="5" width="164.22" height="53.91" id="fig-e94eee177352467783efcdb9c80b8c19-element-20"/>
    </g>
    <g class="guide ygridlines xfixed" stroke-dasharray="0.5,0.5" stroke-width="0.2" stroke="#D0D0E0" id="fig-e94eee177352467783efcdb9c80b8c19-element-21">
      <path fill="none" d="M19.63,56.91 L 183.85 56.91" id="fig-e94eee177352467783efcdb9c80b8c19-element-22"/>
      <path fill="none" d="M19.63,44.44 L 183.85 44.44" id="fig-e94eee177352467783efcdb9c80b8c19-element-23"/>
      <path fill="none" d="M19.63,31.96 L 183.85 31.96" id="fig-e94eee177352467783efcdb9c80b8c19-element-24"/>
      <path fill="none" d="M19.63,19.48 L 183.85 19.48" id="fig-e94eee177352467783efcdb9c80b8c19-element-25"/>
      <path fill="none" d="M19.63,7 L 183.85 7" id="fig-e94eee177352467783efcdb9c80b8c19-element-26"/>
    </g>
    <g class="guide xgridlines yfixed" stroke-dasharray="0.5,0.5" stroke-width="0.2" stroke="#D0D0E0" id="fig-e94eee177352467783efcdb9c80b8c19-element-27">
      <path fill="none" d="M22.86,5 L 22.86 58.91" id="fig-e94eee177352467783efcdb9c80b8c19-element-28"/>
      <path fill="none" d="M42.26,5 L 42.26 58.91" id="fig-e94eee177352467783efcdb9c80b8c19-element-29"/>
      <path fill="none" d="M62.3,5 L 62.3 58.91" id="fig-e94eee177352467783efcdb9c80b8c19-element-30"/>
      <path fill="none" d="M81.7,5 L 81.7 58.91" id="fig-e94eee177352467783efcdb9c80b8c19-element-31"/>
      <path fill="none" d="M101.74,5 L 101.74 58.91" id="fig-e94eee177352467783efcdb9c80b8c19-element-32"/>
      <path fill="none" d="M121.79,5 L 121.79 58.91" id="fig-e94eee177352467783efcdb9c80b8c19-element-33"/>
      <path fill="none" d="M141.18,5 L 141.18 58.91" id="fig-e94eee177352467783efcdb9c80b8c19-element-34"/>
      <path fill="none" d="M161.23,5 L 161.23 58.91" id="fig-e94eee177352467783efcdb9c80b8c19-element-35"/>
      <path fill="none" d="M180.62,5 L 180.62 58.91" id="fig-e94eee177352467783efcdb9c80b8c19-element-36"/>
    </g>
    <g class="plotpanel" id="fig-e94eee177352467783efcdb9c80b8c19-element-37">
      <g stroke-width="0.79" fill="none" class="geometry color_0.4" stroke="#FF5EA0" id="fig-e94eee177352467783efcdb9c80b8c19-element-38">
        <path fill="none" d="M109.5,28.46 L 110.15 27.71 110.79 27.47 111.44 27.22 112.09 27.22 112.73 27.22 114.03 26.47 114.67 26.47 115.32 26.22 115.97 26.22 116.61 26.22 117.26 25.47 117.91 24.97 118.55 24.97 119.85 24.47 120.49 23.72 121.79 23.22 122.43 23.22 123.08 23.22 125.67 23.22 127.6 21.72 128.25 21.48 128.9 21.23 129.54 20.73 130.19 20.73 130.84 20.73 131.48 18.73 132.13 18.73 132.78 18.73 134.07 18.48 134.72 18.48 135.36 18.23 136.01 18.23 136.66 18.23 137.3 17.98 137.95 17.98 139.24 18.23 139.89 17.98 140.54 17.98 141.18 17.48 141.83 16.98 142.48 16.98 143.12 16.98 143.77 16.48 145.71 15.98 146.35 15.98 147 15.49 147.65 15.24 148.29 15.24 148.94 15.24 149.59 14.74 150.23 14.74 150.88 14.49 151.53 14.24 152.17 14.24 152.82 14.24 153.47 14.24 154.11 13.74 154.76 13.24 155.41 13.24 156.05 13.24 156.7 12.99 157.35 12.99 157.99 12.74 158.64 12.74 159.29 12.24 159.93 11.99 160.58 11.99 161.23 11.74 161.87 11.74 162.52 11.74 163.16 11.74 163.81 11.49 164.46 11.24 166.4 11.24 169.63 9.75 170.28 9.25 170.92 9.25 171.57 9 172.22 9 172.86 8.25 173.51 8.25 176.1 7 176.74 7 179.97 6.75 181.27 6.75 181.91 6.25" id="fig-e94eee177352467783efcdb9c80b8c19-element-39"/>
      </g>
      <g stroke-width="0.79" fill="none" class="geometry color_0.3" stroke="#D4CA3A" id="fig-e94eee177352467783efcdb9c80b8c19-element-40">
        <path fill="none" d="M21.57,45.43 L 22.22 45.43 22.86 45.18 23.51 45.18 24.16 45.18 24.8 45.18 25.45 45.18 26.1 44.94 27.39 44.94 28.04 44.69 29.33 44.44 30.62 43.94 31.27 43.94 32.56 43.94 33.21 43.69 37.73 42.69 39.67 42.69 40.97 42.69 45.49 42.44 46.14 41.94 46.79 41.69 47.43 41.69 48.08 41.69 48.73 41.69 49.37 41.69 50.02 41.69 50.67 41.69 51.31 41.69 51.96 41.69 52.61 40.94 53.9 40.69 54.55 40.69 55.19 40.69 55.84 40.19 56.48 40.19 57.13 40.19 57.78 39.94 58.42 39.94 59.07 39.94 59.72 39.94 60.36 39.94 61.01 39.69 61.66 39.69 62.3 49.68 62.95 39.44 63.6 39.2 64.24 38.95 68.12 37.45 68.77 37.2 69.42 36.95 70.06 36.7 70.71 36.2 71.36 36.2 72 35.7 72.65 35.7 73.29 35.45 73.94 35.2 75.23 35.2 75.88 34.7 76.53 34.7 77.17 34.7 77.82 34.7 78.47 34.7 79.11 33.95 79.76 33.95 81.05 33.7 81.7 33.21 82.35 32.96 82.99 32.71 83.64 32.71 84.29 32.21 85.58 31.96 86.23 31.21 86.87 31.21 87.52 31.21 88.81 29.96 90.11 29.21 90.75 29.21 91.4 28.96 92.04 28.96 93.98 28.71 94.63 28.71 95.28 28.46 95.92 28.46 96.57 28.46 97.22 28.21 97.86 27.96 98.51 27.71 99.8 27.71 100.45 27.71 101.74 27.71 102.39 27.47 103.04 26.72 103.68 26.72 104.98 26.47 105.62 26.47 106.27 25.97 106.92 25.72 107.56 25.47 108.21 25.22 108.85 24.97 109.5 24.47 110.15 24.47 110.79 24.22 111.44 23.97 112.09 23.97 112.73 23.97 114.03 23.22 114.67 23.22 115.32 22.97 115.97 22.97 116.61 22.97 117.26 22.22 117.91 21.97 118.55 21.72 119.85 24.72 120.49 23.97 121.79 23.47 122.43 23.47 123.08 23.47 125.67 23.47 127.6 21.97 128.25 21.72 128.9 21.48 129.54 20.98 130.19 20.98 130.84 20.98 131.48 18.98 132.13 18.98 132.78 18.98 134.07 18.98 134.72 18.73 135.36 18.48 136.01 18.48 136.66 18.48 137.3 18.23 137.95 18.23 139.24 18.48 139.89 18.23 140.54 18.23 141.18 17.73 141.83 12.74 142.48 17.23 143.12 17.23 143.77 16.73 145.71 16.23 146.35 16.23 147 15.74 147.65 15.49 148.29 15.49 148.94 15.49 149.59 14.99 150.23 14.99 150.88 14.74 151.53 14.49 152.17 14.49 152.82 14.49 153.47 14.49 154.11 14.24 154.76 13.74 155.41 13.74 156.05 13.74 156.7 13.49 157.35 13.49 157.99 13.24 158.64 13.24 159.29 12.74 159.93 12.49 160.58 12.49 161.23 12.24 161.87 12.24 162.52 12.24 163.16 11.99 163.81 11.99 164.46 11.74 166.4 11.74 169.63 10.49 170.28 9.99 170.92 9.99 171.57 9.75 172.22 9.75 172.86 9 173.51 9 176.1 7.75 176.74 7.75 179.97 7.5 181.27 7.5 181.91 7.25" id="fig-e94eee177352467783efcdb9c80b8c19-element-41"/>
      </g>
      <g stroke-width="0.79" fill="none" class="geometry color_0.2" stroke="#00BFFF" id="fig-e94eee177352467783efcdb9c80b8c19-element-42">
        <path fill="none" d="M21.57,48.18 L 22.22 48.18 22.86 47.93 23.51 47.93 24.16 47.93 24.8 47.93 25.45 47.93 26.1 47.93 27.39 47.93 28.04 47.93 29.33 47.68 30.62 47.43 31.27 47.43 32.56 47.18 33.21 46.93 37.73 46.43 39.67 46.43 40.97 46.43 45.49 46.18 46.14 45.93 46.79 45.93 47.43 45.93 48.08 45.93 48.73 45.93 49.37 45.93 50.02 45.93 50.67 45.93 51.31 45.93 51.96 45.18 52.61 45.18 53.9 44.94 54.55 44.94 55.19 44.94 55.84 44.69 56.48 46.68 57.13 45.43 57.78 45.43 58.42 45.43 59.07 45.43 59.72 45.43 60.36 45.43 61.01 45.43 61.66 45.43 62.3 45.18 62.95 45.18 63.6 44.94 64.24 44.94 68.12 43.69 68.77 43.69 69.42 43.44 70.06 43.19 70.71 42.69 71.36 42.69 72 42.69 72.65 42.69 73.29 42.69 73.94 42.44 75.23 42.44 75.88 41.94 76.53 41.94 77.17 41.94 77.82 41.94 78.47 41.94 79.11 41.19 79.76 41.19 81.05 40.94 81.7 40.44 82.35 40.19 82.99 39.94 83.64 39.94 84.29 39.94 85.58 39.44 86.23 39.2 86.87 38.95 87.52 38.95 88.81 38.45 90.11 37.95 90.75 37.95 91.4 37.95 92.04 37.95 93.98 37.95 94.63 37.95 95.28 37.7 95.92 37.7 96.57 37.7 97.22 37.45 97.86 37.45 98.51 37.45 99.8 37.2 100.45 37.2 101.74 37.2 102.39 37.2 103.04 36.45 103.68 36.45 104.98 36.95 105.62 36.95 106.27 36.45 106.92 36.2 107.56 36.2 108.21 35.7 108.85 35.7" id="fig-e94eee177352467783efcdb9c80b8c19-element-43"/>
      </g>
    </g>
  </g>
  <g class="guide ylabels" font-size="2.82" font-family="'PT Sans Caption','Helvetica Neue','Helvetica',sans-serif" fill="#6C606B" id="fig-e94eee177352467783efcdb9c80b8c19-element-44">
    <text x="18.63" y="56.91" text-anchor="end" dy="0.35em" id="fig-e94eee177352467783efcdb9c80b8c19-element-45">250</text>
    <text x="18.63" y="44.44" text-anchor="end" dy="0.35em" id="fig-e94eee177352467783efcdb9c80b8c19-element-46">300</text>
    <text x="18.63" y="31.96" text-anchor="end" dy="0.35em" id="fig-e94eee177352467783efcdb9c80b8c19-element-47">350</text>
    <text x="18.63" y="19.48" text-anchor="end" dy="0.35em" id="fig-e94eee177352467783efcdb9c80b8c19-element-48">400</text>
    <text x="18.63" y="7" text-anchor="end" dy="0.35em" id="fig-e94eee177352467783efcdb9c80b8c19-element-49">450</text>
  </g>
</g>
<defs>
<clipPath id="fig-e94eee177352467783efcdb9c80b8c19-element-18">
  <path d="M19.63,5 L 183.85 5 183.85 58.91 19.63 58.91" />
</clipPath
></defs>
</svg>
