<?xml version="1.0" encoding="UTF-8"?>
<svg xmlns="http://www.w3.org/2000/svg"
     xmlns:xlink="http://www.w3.org/1999/xlink"
     xmlns:gadfly="http://www.gadflyjl.org/ns"
     version="1.2"
     width="203.2mm" height="76.2mm" viewBox="0 0 203.2 76.2"
     stroke="none"
     fill="#000000"
     stroke-width="0.3"
     font-size="3.88"
>
<g class="plotroot xscalable yscalable" id="fig-b4bc756b4b354406859568536e4ee54a-element-1">
  <g font-size="3.88" font-family="'PT Sans','Helvetica Neue','Helvetica',sans-serif" fill="#564A55" stroke="none" id="fig-b4bc756b4b354406859568536e4ee54a-element-2">
    <text x="101.74" y="68.2" text-anchor="middle">Date</text>
  </g>
  <g class="guide xlabels" font-size="2.82" font-family="'PT Sans Caption','Helvetica Neue','Helvetica',sans-serif" fill="#6C606B" id="fig-b4bc756b4b354406859568536e4ee54a-element-3">
    <text x="22.94" y="62.59" text-anchor="middle">Apr</text>
    <text x="39.47" y="62.59" text-anchor="middle">May</text>
    <text x="56.55" y="62.59" text-anchor="middle">Jun</text>
    <text x="73.09" y="62.59" text-anchor="middle">Jul</text>
    <text x="90.17" y="62.59" text-anchor="middle">Aug</text>
    <text x="107.25" y="62.59" text-anchor="middle">Sep</text>
    <text x="123.79" y="62.59" text-anchor="middle">Oct</text>
    <text x="140.87" y="62.59" text-anchor="middle">Nov</text>
    <text x="157.4" y="62.59" text-anchor="middle">Dec</text>
    <text x="174.49" y="62.59" text-anchor="middle">Jan 2015</text>
  </g>
  <g class="guide colorkey" id="fig-b4bc756b4b354406859568536e4ee54a-element-4">
    <g fill="#4C404B" font-size="2.82" font-family="'PT Sans','Helvetica Neue','Helvetica',sans-serif" id="fig-b4bc756b4b354406859568536e4ee54a-element-5">
      <text x="187.67" y="30.14" dy="0.35em" id="fig-b4bc756b4b354406859568536e4ee54a-element-6" class="color_0.2">0.2</text>
      <text x="187.67" y="33.77" dy="0.35em" id="fig-b4bc756b4b354406859568536e4ee54a-element-7" class="color_0.3">0.3</text>
      <text x="187.67" y="37.4" dy="0.35em" id="fig-b4bc756b4b354406859568536e4ee54a-element-8" class="color_0.4">0.4</text>
    </g>
    <g stroke="none" id="fig-b4bc756b4b354406859568536e4ee54a-element-9">
      <rect x="184.85" y="29.24" width="1.81" height="1.81" id="fig-b4bc756b4b354406859568536e4ee54a-element-10" fill="#00BFFF" class="color_0.2"/>
      <rect x="184.85" y="32.86" width="1.81" height="1.81" id="fig-b4bc756b4b354406859568536e4ee54a-element-11" fill="#D4CA3A" class="color_0.3"/>
      <rect x="184.85" y="36.49" width="1.81" height="1.81" id="fig-b4bc756b4b354406859568536e4ee54a-element-12" fill="#FF5EA0" class="color_0.4"/>
    </g>
    <g fill="#362A35" font-size="3.88" font-family="'PT Sans','Helvetica Neue','Helvetica',sans-serif" stroke="none" id="fig-b4bc756b4b354406859568536e4ee54a-element-13">
      <text x="184.85" y="26.32" id="fig-b4bc756b4b354406859568536e4ee54a-element-14">Julia ver.</text>
    </g>
  </g>
  <g font-size="3.88" font-family="'PT Sans','Helvetica Neue','Helvetica',sans-serif" fill="#564A55" stroke="none" id="fig-b4bc756b4b354406859568536e4ee54a-element-15">
    <text x="8.81" y="29.96" text-anchor="middle" dy="0.35em" transform="rotate(-90, 8.81, 31.96)" id="fig-b4bc756b4b354406859568536e4ee54a-element-16">Number of Tagged Packages</text>
  </g>
  <g clip-path="url(#fig-b4bc756b4b354406859568536e4ee54a-element-18)" id="fig-b4bc756b4b354406859568536e4ee54a-element-17">
    <g pointer-events="visible" opacity="1" fill="none" stroke="none" class="guide background" id="fig-b4bc756b4b354406859568536e4ee54a-element-19">
      <rect x="19.63" y="5" width="164.22" height="53.91" id="fig-b4bc756b4b354406859568536e4ee54a-element-20"/>
    </g>
    <g class="guide ygridlines xfixed" stroke-dasharray="0.5,0.5" stroke-width="0.2" stroke="#D0D0E0" id="fig-b4bc756b4b354406859568536e4ee54a-element-21">
      <path fill="none" d="M19.63,56.91 L 183.85 56.91" id="fig-b4bc756b4b354406859568536e4ee54a-element-22"/>
      <path fill="none" d="M19.63,46.93 L 183.85 46.93" id="fig-b4bc756b4b354406859568536e4ee54a-element-23"/>
      <path fill="none" d="M19.63,36.95 L 183.85 36.95" id="fig-b4bc756b4b354406859568536e4ee54a-element-24"/>
      <path fill="none" d="M19.63,26.97 L 183.85 26.97" id="fig-b4bc756b4b354406859568536e4ee54a-element-25"/>
      <path fill="none" d="M19.63,16.98 L 183.85 16.98" id="fig-b4bc756b4b354406859568536e4ee54a-element-26"/>
      <path fill="none" d="M19.63,7 L 183.85 7" id="fig-b4bc756b4b354406859568536e4ee54a-element-27"/>
    </g>
    <g class="guide xgridlines yfixed" stroke-dasharray="0.5,0.5" stroke-width="0.2" stroke="#D0D0E0" id="fig-b4bc756b4b354406859568536e4ee54a-element-28">
      <path fill="none" d="M22.94,5 L 22.94 58.91" id="fig-b4bc756b4b354406859568536e4ee54a-element-29"/>
      <path fill="none" d="M39.47,5 L 39.47 58.91" id="fig-b4bc756b4b354406859568536e4ee54a-element-30"/>
      <path fill="none" d="M56.55,5 L 56.55 58.91" id="fig-b4bc756b4b354406859568536e4ee54a-element-31"/>
      <path fill="none" d="M73.09,5 L 73.09 58.91" id="fig-b4bc756b4b354406859568536e4ee54a-element-32"/>
      <path fill="none" d="M90.17,5 L 90.17 58.91" id="fig-b4bc756b4b354406859568536e4ee54a-element-33"/>
      <path fill="none" d="M107.25,5 L 107.25 58.91" id="fig-b4bc756b4b354406859568536e4ee54a-element-34"/>
      <path fill="none" d="M123.79,5 L 123.79 58.91" id="fig-b4bc756b4b354406859568536e4ee54a-element-35"/>
      <path fill="none" d="M140.87,5 L 140.87 58.91" id="fig-b4bc756b4b354406859568536e4ee54a-element-36"/>
      <path fill="none" d="M157.4,5 L 157.4 58.91" id="fig-b4bc756b4b354406859568536e4ee54a-element-37"/>
      <path fill="none" d="M174.49,5 L 174.49 58.91" id="fig-b4bc756b4b354406859568536e4ee54a-element-38"/>
    </g>
    <g class="plotpanel" id="fig-b4bc756b4b354406859568536e4ee54a-element-39">
      <g stroke-width="0.79" fill="none" class="geometry color_0.4" stroke="#FF5EA0" id="fig-b4bc756b4b354406859568536e4ee54a-element-40">
        <path fill="none" d="M96.78,34.15 L 97.33 33.55 97.89 33.36 98.44 33.16 98.99 33.16 99.54 33.16 100.64 32.56 101.19 32.56 101.74 32.36 102.29 32.36 102.85 32.36 103.4 31.76 103.95 31.36 104.5 31.36 105.6 30.96 106.15 30.36 107.25 29.96 107.8 29.96 108.36 29.96 110.56 29.96 112.21 28.76 112.76 28.56 113.32 28.36 113.87 27.96 114.42 27.96 114.97 27.96 115.52 26.37 116.07 26.37 116.62 26.37 117.72 26.17 118.28 26.17 118.83 25.97 119.38 25.97 119.93 25.97 120.48 25.77 121.03 25.77 122.13 25.97 122.68 25.77 123.24 25.77 123.79 25.37 124.34 24.97 124.89 24.97 125.44 24.97 125.99 24.57 127.64 24.17 128.19 24.17 128.75 23.77 129.3 23.57 129.85 23.57 130.4 23.57 130.95 23.17 131.5 23.17 132.05 22.97 132.6 22.77 133.15 22.77 133.71 22.77 134.26 22.77 134.81 22.37 135.36 21.97 135.91 21.97 136.46 21.97 137.01 21.77 137.56 21.77 138.11 21.58 138.67 21.58 139.22 21.18 139.77 20.98 140.32 20.98 140.87 20.78 141.42 20.78 141.97 20.78 142.52 20.78 143.07 20.58 143.63 20.38 145.28 20.38 148.03 19.18 148.58 18.78 149.14 18.78 149.69 18.58 150.24 18.58 150.79 17.98 151.34 17.98 153.54 16.98 154.1 16.98 156.85 16.78 157.95 16.78 158.5 16.38 159.06 16.18 159.61 16.18 160.16 16.18 160.71 15.79 161.26 15.39 162.91 15.19 163.46 14.99 164.57 14.19 165.12 14.19 165.67 14.19 167.32 14.19 168.42 13.79 170.08 13.39 172.28 12.99 173.38 12.19 175.04 11.79 178.89 10.39 181.1 9 181.65 8.6 182.2 8.6" id="fig-b4bc756b4b354406859568536e4ee54a-element-41"/>
      </g>
      <g stroke-width="0.79" fill="none" class="geometry color_0.3" stroke="#D4CA3A" id="fig-b4bc756b4b354406859568536e4ee54a-element-42">
        <path fill="none" d="M21.84,47.73 L 22.39 47.73 22.94 47.53 23.49 47.53 24.04 47.53 24.59 47.53 25.14 47.53 25.69 47.33 26.8 47.33 27.35 47.13 28.45 46.93 29.55 46.53 30.1 46.53 31.2 46.53 31.76 46.33 35.61 45.53 37.27 45.53 38.37 45.53 42.23 45.33 42.78 44.94 43.33 44.74 43.88 44.74 44.43 44.74 44.98 44.74 45.53 44.74 46.08 44.74 46.63 44.74 47.19 44.74 47.74 44.74 48.29 44.14 49.39 43.94 49.94 43.94 50.49 43.94 51.04 43.54 51.59 43.54 52.15 43.54 52.7 43.34 53.25 43.34 53.8 43.34 54.35 43.34 54.9 43.34 55.45 43.14 56 43.14 56.55 51.12 57.11 42.94 57.66 42.74 58.21 42.54 61.51 41.34 62.06 41.14 62.62 40.94 63.17 40.74 63.72 40.34 64.27 40.34 64.82 39.94 65.37 39.94 65.92 39.74 66.47 39.54 67.58 39.54 68.13 39.15 68.68 39.15 69.23 39.15 69.78 39.15 70.33 39.15 70.88 38.55 71.43 38.55 72.54 38.35 73.09 37.95 73.64 37.75 74.19 37.55 74.74 37.55 75.29 37.15 76.39 36.95 76.94 36.35 77.5 36.35 78.05 36.35 79.15 35.35 80.25 34.75 80.8 34.75 81.35 34.55 81.9 34.55 83.56 34.35 84.11 34.35 84.66 34.15 85.21 34.15 85.76 34.15 86.31 33.95 86.86 33.75 87.41 33.55 88.52 33.55 89.07 33.55 90.17 33.55 90.72 33.36 91.27 32.76 91.82 32.76 92.93 32.56 93.48 32.56 94.03 32.16 94.58 31.96 95.13 31.76 95.68 31.56 96.23 31.36 96.78 30.96 97.33 30.96 97.89 30.76 98.44 30.56 98.99 30.56 99.54 30.56 100.64 29.96 101.19 29.96 101.74 29.76 102.29 29.76 102.85 29.76 103.4 29.16 103.95 28.96 104.5 28.76 105.6 31.16 106.15 30.56 107.25 30.16 107.8 30.16 108.36 30.16 110.56 30.16 112.21 28.96 112.76 28.76 113.32 28.56 113.87 28.16 114.42 28.16 114.97 28.16 115.52 26.57 116.07 26.57 116.62 26.57 117.72 26.57 118.28 26.37 118.83 26.17 119.38 26.17 119.93 26.17 120.48 25.97 121.03 25.97 122.13 26.17 122.68 25.97 123.24 25.97 123.79 25.57 124.34 21.58 124.89 25.17 125.44 25.17 125.99 24.77 127.64 24.37 128.19 24.37 128.75 23.97 129.3 23.77 129.85 23.77 130.4 23.77 130.95 23.37 131.5 23.37 132.05 23.17 132.6 22.97 133.15 22.97 133.71 22.97 134.26 22.97 134.81 22.77 135.36 22.37 135.91 22.37 136.46 22.37 137.01 22.17 137.56 22.17 138.11 21.97 138.67 21.97 139.22 21.58 139.77 21.38 140.32 21.38 140.87 21.18 141.42 21.18 141.97 21.18 142.52 20.98 143.07 20.98 143.63 20.78 145.28 20.78 148.03 19.78 148.58 19.38 149.14 19.38 149.69 19.18 150.24 19.18 150.79 18.58 151.34 18.58 153.54 17.58 154.1 17.58 156.85 17.38 157.95 17.38 158.5 17.18 159.06 16.98 159.61 16.98 160.16 16.98 160.71 16.58 161.26 16.38 162.91 15.98 163.46 15.79 164.57 15.19 165.12 14.99 165.67 14.99 167.32 14.99 168.42 14.59 170.08 14.19 172.28 13.79 173.38 13.19 175.04 12.39 178.89 11.19 181.1 9.8 181.65 9.4 182.2 9.4" id="fig-b4bc756b4b354406859568536e4ee54a-element-43"/>
      </g>
      <g stroke-width="0.79" fill="none" class="geometry color_0.2" stroke="#00BFFF" id="fig-b4bc756b4b354406859568536e4ee54a-element-44">
        <path fill="none" d="M21.84,49.93 L 22.39 49.93 22.94 49.73 23.49 49.73 24.04 49.73 24.59 49.73 25.14 49.73 25.69 49.73 26.8 49.73 27.35 49.73 28.45 49.53 29.55 49.33 30.1 49.33 31.2 49.13 31.76 48.93 35.61 48.53 37.27 48.53 38.37 48.53 42.23 48.33 42.78 48.13 43.33 48.13 43.88 48.13 44.43 48.13 44.98 48.13 45.53 48.13 46.08 48.13 46.63 48.13 47.19 48.13 47.74 47.53 48.29 47.53 49.39 47.33 49.94 47.33 50.49 47.33 51.04 47.13 51.59 48.73 52.15 47.73 52.7 47.73 53.25 47.73 53.8 47.73 54.35 47.73 54.9 47.73 55.45 47.73 56 47.73 56.55 47.53 57.11 47.53 57.66 47.33 58.21 47.33 61.51 46.33 62.06 46.33 62.62 46.13 63.17 45.93 63.72 45.53 64.27 45.53 64.82 45.53 65.37 45.53 65.92 45.53 66.47 45.33 67.58 45.33 68.13 44.94 68.68 44.94 69.23 44.94 69.78 44.94 70.33 44.94 70.88 44.34 71.43 44.34 72.54 44.14 73.09 43.74 73.64 43.54 74.19 43.34 74.74 43.34 75.29 43.34 76.39 42.94 76.94 42.74 77.5 42.54 78.05 42.54 79.15 42.14 80.25 41.74 80.8 41.74 81.35 41.74 81.9 41.74 83.56 41.74 84.11 41.74 84.66 41.54 85.21 41.54 85.76 41.54 86.31 41.34 86.86 41.34 87.41 41.34 88.52 41.14 89.07 41.14 90.17 41.14 90.72 41.14 91.27 40.54 91.82 40.54 92.93 40.94 93.48 40.94 94.03 40.54 94.58 40.34 95.13 40.34 95.68 39.94 96.23 39.94" id="fig-b4bc756b4b354406859568536e4ee54a-element-45"/>
      </g>
    </g>
  </g>
  <g class="guide ylabels" font-size="2.82" font-family="'PT Sans Caption','Helvetica Neue','Helvetica',sans-serif" fill="#6C606B" id="fig-b4bc756b4b354406859568536e4ee54a-element-46">
    <text x="18.63" y="56.91" text-anchor="end" dy="0.35em" id="fig-b4bc756b4b354406859568536e4ee54a-element-47">250</text>
    <text x="18.63" y="46.93" text-anchor="end" dy="0.35em" id="fig-b4bc756b4b354406859568536e4ee54a-element-48">300</text>
    <text x="18.63" y="36.95" text-anchor="end" dy="0.35em" id="fig-b4bc756b4b354406859568536e4ee54a-element-49">350</text>
    <text x="18.63" y="26.97" text-anchor="end" dy="0.35em" id="fig-b4bc756b4b354406859568536e4ee54a-element-50">400</text>
    <text x="18.63" y="16.98" text-anchor="end" dy="0.35em" id="fig-b4bc756b4b354406859568536e4ee54a-element-51">450</text>
    <text x="18.63" y="7" text-anchor="end" dy="0.35em" id="fig-b4bc756b4b354406859568536e4ee54a-element-52">500</text>
  </g>
</g>
<defs>
<clipPath id="fig-b4bc756b4b354406859568536e4ee54a-element-18">
  <path d="M19.63,5 L 183.85 5 183.85 58.91 19.63 58.91" />
</clipPath
></defs>
</svg>
