<?xml version="1.0" encoding="UTF-8"?>
<svg xmlns="http://www.w3.org/2000/svg"
     xmlns:xlink="http://www.w3.org/1999/xlink"
     xmlns:gadfly="http://www.gadflyjl.org/ns"
     version="1.2"
     width="203.2mm" height="76.2mm" viewBox="0 0 203.2 76.2"
     stroke="none"
     fill="#000000"
     stroke-width="0.3"
     font-size="3.88"
>
<g class="plotroot xscalable yscalable" id="fig-0bf2157337994e709bd5fa9e5950cab5-element-1">
  <g font-size="3.88" font-family="'PT Sans','Helvetica Neue','Helvetica',sans-serif" fill="#564A55" stroke="none" id="fig-0bf2157337994e709bd5fa9e5950cab5-element-2">
    <text x="101.74" y="68.2" text-anchor="middle">Date</text>
  </g>
  <g class="guide xlabels" font-size="2.82" font-family="'PT Sans Caption','Helvetica Neue','Helvetica',sans-serif" fill="#6C606B" id="fig-0bf2157337994e709bd5fa9e5950cab5-element-3">
    <text x="23.25" y="62.59" text-anchor="middle">Apr</text>
    <text x="44.95" y="62.59" text-anchor="middle">May</text>
    <text x="67.38" y="62.59" text-anchor="middle">June</text>
    <text x="89.08" y="62.59" text-anchor="middle">July</text>
    <text x="111.51" y="62.59" text-anchor="middle">Aug</text>
    <text x="133.94" y="62.59" text-anchor="middle">Sept</text>
    <text x="155.64" y="62.59" text-anchor="middle">Oct</text>
    <text x="178.07" y="62.59" text-anchor="middle">Nev</text>
  </g>
  <g class="guide colorkey" id="fig-0bf2157337994e709bd5fa9e5950cab5-element-4">
    <g fill="#4C404B" font-size="2.82" font-family="'PT Sans','Helvetica Neue','Helvetica',sans-serif" id="fig-0bf2157337994e709bd5fa9e5950cab5-element-5">
      <text x="187.67" y="30.14" dy="0.35em" id="fig-0bf2157337994e709bd5fa9e5950cab5-element-6" class="color_0.2">0.2</text>
      <text x="187.67" y="33.77" dy="0.35em" id="fig-0bf2157337994e709bd5fa9e5950cab5-element-7" class="color_0.3">0.3</text>
      <text x="187.67" y="37.4" dy="0.35em" id="fig-0bf2157337994e709bd5fa9e5950cab5-element-8" class="color_0.4">0.4</text>
    </g>
    <g stroke="none" id="fig-0bf2157337994e709bd5fa9e5950cab5-element-9">
      <rect x="184.85" y="29.24" width="1.81" height="1.81" id="fig-0bf2157337994e709bd5fa9e5950cab5-element-10" class="color_0.2" fill="#00BFFF"/>
      <rect x="184.85" y="32.86" width="1.81" height="1.81" id="fig-0bf2157337994e709bd5fa9e5950cab5-element-11" class="color_0.3" fill="#D4CA3A"/>
      <rect x="184.85" y="36.49" width="1.81" height="1.81" id="fig-0bf2157337994e709bd5fa9e5950cab5-element-12" class="color_0.4" fill="#FF5EA0"/>
    </g>
    <g fill="#362A35" font-size="3.88" font-family="'PT Sans','Helvetica Neue','Helvetica',sans-serif" stroke="none" id="fig-0bf2157337994e709bd5fa9e5950cab5-element-13">
      <text x="184.85" y="26.32" id="fig-0bf2157337994e709bd5fa9e5950cab5-element-14">Julia ver.</text>
    </g>
  </g>
  <g font-size="3.88" font-family="'PT Sans','Helvetica Neue','Helvetica',sans-serif" fill="#564A55" stroke="none" id="fig-0bf2157337994e709bd5fa9e5950cab5-element-15">
    <text x="8.81" y="29.96" text-anchor="middle" dy="0.35em" transform="rotate(-90, 8.81, 31.96)" id="fig-0bf2157337994e709bd5fa9e5950cab5-element-16">Number of Tagged Packages</text>
  </g>
  <g clip-path="url(#fig-0bf2157337994e709bd5fa9e5950cab5-element-18)" id="fig-0bf2157337994e709bd5fa9e5950cab5-element-17">
    <g pointer-events="visible" opacity="1" fill="none" stroke="none" class="guide background" id="fig-0bf2157337994e709bd5fa9e5950cab5-element-19">
      <rect x="19.63" y="5" width="164.22" height="53.91" id="fig-0bf2157337994e709bd5fa9e5950cab5-element-20"/>
    </g>
    <g class="guide ygridlines xfixed" stroke-dasharray="0.5,0.5" stroke-width="0.2" stroke="#D0D0E0" id="fig-0bf2157337994e709bd5fa9e5950cab5-element-21">
      <path fill="none" d="M19.63,56.91 L 183.85 56.91" id="fig-0bf2157337994e709bd5fa9e5950cab5-element-22"/>
      <path fill="none" d="M19.63,44.44 L 183.85 44.44" id="fig-0bf2157337994e709bd5fa9e5950cab5-element-23"/>
      <path fill="none" d="M19.63,31.96 L 183.85 31.96" id="fig-0bf2157337994e709bd5fa9e5950cab5-element-24"/>
      <path fill="none" d="M19.63,19.48 L 183.85 19.48" id="fig-0bf2157337994e709bd5fa9e5950cab5-element-25"/>
      <path fill="none" d="M19.63,7 L 183.85 7" id="fig-0bf2157337994e709bd5fa9e5950cab5-element-26"/>
    </g>
    <g class="guide xgridlines yfixed" stroke-dasharray="0.5,0.5" stroke-width="0.2" stroke="#D0D0E0" id="fig-0bf2157337994e709bd5fa9e5950cab5-element-27">
      <path fill="none" d="M23.25,5 L 23.25 58.91" id="fig-0bf2157337994e709bd5fa9e5950cab5-element-28"/>
      <path fill="none" d="M44.95,5 L 44.95 58.91" id="fig-0bf2157337994e709bd5fa9e5950cab5-element-29"/>
      <path fill="none" d="M67.38,5 L 67.38 58.91" id="fig-0bf2157337994e709bd5fa9e5950cab5-element-30"/>
      <path fill="none" d="M89.08,5 L 89.08 58.91" id="fig-0bf2157337994e709bd5fa9e5950cab5-element-31"/>
      <path fill="none" d="M111.51,5 L 111.51 58.91" id="fig-0bf2157337994e709bd5fa9e5950cab5-element-32"/>
      <path fill="none" d="M133.94,5 L 133.94 58.91" id="fig-0bf2157337994e709bd5fa9e5950cab5-element-33"/>
      <path fill="none" d="M155.64,5 L 155.64 58.91" id="fig-0bf2157337994e709bd5fa9e5950cab5-element-34"/>
      <path fill="none" d="M178.07,5 L 178.07 58.91" id="fig-0bf2157337994e709bd5fa9e5950cab5-element-35"/>
    </g>
    <g class="plotpanel" id="fig-0bf2157337994e709bd5fa9e5950cab5-element-36">
      <g stroke-width="0.79" fill="none" class="geometry color_0.4" stroke="#FF5EA0" id="fig-0bf2157337994e709bd5fa9e5950cab5-element-37">
        <path fill="none" d="M120.19,28.46 L 120.91 27.71 121.64 27.47 122.36 27.22 123.08 27.22 123.81 27.22 125.25 26.47 125.98 26.47 126.7 26.22 127.43 26.22 128.15 26.22 128.87 25.47 129.6 24.97 130.32 24.97 131.77 24.47 132.49 23.72 133.94 23.22 134.66 23.22 135.38 23.22 138.28 23.22 140.45 21.72 141.17 21.48 141.89 21.23 142.62 20.73 143.34 20.73 144.06 20.73 144.79 18.73 145.51 18.73 146.23 18.73 147.68 18.48 148.41 18.48 149.13 18.23 149.85 18.23 150.58 18.23 151.3 17.98 152.02 17.98 153.47 18.23 154.19 17.98 154.92 17.98 155.64 17.48 156.36 16.98 157.09 16.98 157.81 16.98 158.53 16.48 160.7 15.98 161.43 15.98 162.15 15.49 162.87 15.24 163.6 15.24 164.32 15.24 165.04 14.74 165.77 14.74 166.49 14.49 167.21 14.24 167.94 14.24 168.66 14.24 169.39 14.24 170.11 13.74 170.83 13.24 171.56 13.24 172.28 13.24 173 12.99 173.73 12.99 174.45 12.74 175.17 12.74 175.9 12.24 176.62 11.99 177.34 11.99 178.07 11.74 178.79 11.74 179.51 11.74 180.24 11.74 180.96 11.49 181.68 11.24" id="fig-0bf2157337994e709bd5fa9e5950cab5-element-38"/>
      </g>
      <g stroke-width="0.79" fill="none" class="geometry color_0.3" stroke="#D4CA3A" id="fig-0bf2157337994e709bd5fa9e5950cab5-element-39">
        <path fill="none" d="M21.8,45.43 L 22.53 45.43 23.25 45.18 23.97 45.18 24.7 45.18 25.42 45.18 26.14 45.18 26.87 44.94 28.31 44.94 29.04 44.69 30.48 44.44 31.93 43.94 32.65 43.94 34.1 43.94 34.82 43.69 39.89 42.69 42.06 42.69 43.51 42.69 48.57 42.44 49.29 41.94 50.02 41.69 50.74 41.69 51.46 41.69 52.19 41.69 52.91 41.69 53.63 41.69 54.36 41.69 55.08 41.69 55.8 41.69 56.53 40.94 57.97 40.69 58.7 40.69 59.42 40.69 60.14 40.19 60.87 40.19 61.59 40.19 62.32 39.94 63.04 39.94 63.76 39.94 64.49 39.94 65.21 39.94 65.93 39.69 66.66 39.69 67.38 49.68 68.1 39.44 68.83 39.2 69.55 38.95 73.89 37.45 74.61 37.2 75.34 36.95 76.06 36.7 76.78 36.2 77.51 36.2 78.23 35.7 78.95 35.7 79.68 35.45 80.4 35.2 81.85 35.2 82.57 34.7 83.3 34.7 84.02 34.7 84.74 34.7 85.47 34.7 86.19 33.95 86.91 33.95 88.36 33.7 89.08 33.21 89.81 32.96 90.53 32.71 91.25 32.71 91.98 32.21 93.42 31.96 94.15 31.21 94.87 31.21 95.59 31.21 97.04 29.96 98.49 29.21 99.21 29.21 99.93 28.96 100.66 28.96 102.83 28.71 103.55 28.71 104.27 28.46 105 28.46 105.72 28.46 106.45 28.21 107.17 27.96 107.89 27.71 109.34 27.71 110.06 27.71 111.51 27.71 112.23 27.47 112.96 26.72 113.68 26.72 115.13 26.47 115.85 26.47 116.57 25.97 117.3 25.72 118.02 25.47 118.74 25.22 119.47 24.97 120.19 24.47 120.91 24.47 121.64 24.22 122.36 23.97 123.08 23.97 123.81 23.97 125.25 23.22 125.98 23.22 126.7 22.97 127.43 22.97 128.15 22.97 128.87 22.22 129.6 21.97 130.32 21.72 131.77 24.72 132.49 23.97 133.94 23.47 134.66 23.47 135.38 23.47 138.28 23.47 140.45 21.97 141.17 21.72 141.89 21.48 142.62 20.98 143.34 20.98 144.06 20.98 144.79 18.98 145.51 18.98 146.23 18.98 147.68 18.98 148.41 18.73 149.13 18.48 149.85 18.48 150.58 18.48 151.3 18.23 152.02 18.23 153.47 18.48 154.19 18.23 154.92 18.23 155.64 17.73 156.36 12.74 157.09 17.23 157.81 17.23 158.53 16.73 160.7 16.23 161.43 16.23 162.15 15.74 162.87 15.49 163.6 15.49 164.32 15.49 165.04 14.99 165.77 14.99 166.49 14.74 167.21 14.49 167.94 14.49 168.66 14.49 169.39 14.49 170.11 14.24 170.83 13.74 171.56 13.74 172.28 13.74 173 13.49 173.73 13.49 174.45 13.24 175.17 13.24 175.9 12.74 176.62 12.49 177.34 12.49 178.07 12.24 178.79 12.24 179.51 12.24 180.24 11.99 180.96 11.99 181.68 11.74" id="fig-0bf2157337994e709bd5fa9e5950cab5-element-40"/>
      </g>
      <g stroke-width="0.79" fill="none" class="geometry color_0.2" stroke="#00BFFF" id="fig-0bf2157337994e709bd5fa9e5950cab5-element-41">
        <path fill="none" d="M21.8,48.18 L 22.53 48.18 23.25 47.93 23.97 47.93 24.7 47.93 25.42 47.93 26.14 47.93 26.87 47.93 28.31 47.93 29.04 47.93 30.48 47.68 31.93 47.43 32.65 47.43 34.1 47.18 34.82 46.93 39.89 46.43 42.06 46.43 43.51 46.43 48.57 46.18 49.29 45.93 50.02 45.93 50.74 45.93 51.46 45.93 52.19 45.93 52.91 45.93 53.63 45.93 54.36 45.93 55.08 45.93 55.8 45.18 56.53 45.18 57.97 44.94 58.7 44.94 59.42 44.94 60.14 44.69 60.87 46.68 61.59 45.43 62.32 45.43 63.04 45.43 63.76 45.43 64.49 45.43 65.21 45.43 65.93 45.43 66.66 45.43 67.38 45.18 68.1 45.18 68.83 44.94 69.55 44.94 73.89 43.69 74.61 43.69 75.34 43.44 76.06 43.19 76.78 42.69 77.51 42.69 78.23 42.69 78.95 42.69 79.68 42.69 80.4 42.44 81.85 42.44 82.57 41.94 83.3 41.94 84.02 41.94 84.74 41.94 85.47 41.94 86.19 41.19 86.91 41.19 88.36 40.94 89.08 40.44 89.81 40.19 90.53 39.94 91.25 39.94 91.98 39.94 93.42 39.44 94.15 39.2 94.87 38.95 95.59 38.95 97.04 38.45 98.49 37.95 99.21 37.95 99.93 37.95 100.66 37.95 102.83 37.95 103.55 37.95 104.27 37.7 105 37.7 105.72 37.7 106.45 37.45 107.17 37.45 107.89 37.45 109.34 37.2 110.06 37.2 111.51 37.2 112.23 37.2 112.96 36.45 113.68 36.45 115.13 36.95 115.85 36.95 116.57 36.45 117.3 36.2 118.02 36.2 118.74 35.7 119.47 35.7" id="fig-0bf2157337994e709bd5fa9e5950cab5-element-42"/>
      </g>
    </g>
  </g>
  <g class="guide ylabels" font-size="2.82" font-family="'PT Sans Caption','Helvetica Neue','Helvetica',sans-serif" fill="#6C606B" id="fig-0bf2157337994e709bd5fa9e5950cab5-element-43">
    <text x="18.63" y="56.91" text-anchor="end" dy="0.35em" id="fig-0bf2157337994e709bd5fa9e5950cab5-element-44">250</text>
    <text x="18.63" y="44.44" text-anchor="end" dy="0.35em" id="fig-0bf2157337994e709bd5fa9e5950cab5-element-45">300</text>
    <text x="18.63" y="31.96" text-anchor="end" dy="0.35em" id="fig-0bf2157337994e709bd5fa9e5950cab5-element-46">350</text>
    <text x="18.63" y="19.48" text-anchor="end" dy="0.35em" id="fig-0bf2157337994e709bd5fa9e5950cab5-element-47">400</text>
    <text x="18.63" y="7" text-anchor="end" dy="0.35em" id="fig-0bf2157337994e709bd5fa9e5950cab5-element-48">450</text>
  </g>
</g>
<defs>
<clipPath id="fig-0bf2157337994e709bd5fa9e5950cab5-element-18">
  <path d="M19.63,5 L 183.85 5 183.85 58.91 19.63 58.91" />
</clipPath
></defs>
</svg>
