<?xml version="1.0" encoding="UTF-8"?>
<svg xmlns="http://www.w3.org/2000/svg"
     xmlns:xlink="http://www.w3.org/1999/xlink"
     xmlns:gadfly="http://www.gadflyjl.org/ns"
     version="1.2"
     width="203.2mm" height="76.2mm" viewBox="0 0 203.2 76.2"
     stroke="none"
     fill="#000000"
     stroke-width="0.3"
     font-size="3.88"
>
<g class="plotroot xscalable yscalable" id="fig-228af497a08f4f999a9db41b48b65e19-element-1">
  <g font-size="3.88" font-family="'PT Sans','Helvetica Neue','Helvetica',sans-serif" fill="#564A55" stroke="none" id="fig-228af497a08f4f999a9db41b48b65e19-element-2">
    <text x="101.74" y="68.2" text-anchor="middle">Date</text>
  </g>
  <g class="guide xlabels" font-size="2.82" font-family="'PT Sans Caption','Helvetica Neue','Helvetica',sans-serif" fill="#6C606B" id="fig-228af497a08f4f999a9db41b48b65e19-element-3">
    <text x="22.72" y="62.59" text-anchor="middle">Apr</text>
    <text x="41.24" y="62.59" text-anchor="middle">May</text>
    <text x="60.38" y="62.59" text-anchor="middle">June</text>
    <text x="78.9" y="62.59" text-anchor="middle">July</text>
    <text x="98.04" y="62.59" text-anchor="middle">Aug</text>
    <text x="117.18" y="62.59" text-anchor="middle">Sept</text>
    <text x="135.7" y="62.59" text-anchor="middle">Oct</text>
    <text x="154.84" y="62.59" text-anchor="middle">Nev</text>
    <text x="173.36" y="62.59" text-anchor="middle">Dec</text>
  </g>
  <g class="guide colorkey" id="fig-228af497a08f4f999a9db41b48b65e19-element-4">
    <g fill="#4C404B" font-size="2.82" font-family="'PT Sans','Helvetica Neue','Helvetica',sans-serif" id="fig-228af497a08f4f999a9db41b48b65e19-element-5">
      <text x="187.67" y="30.14" dy="0.35em" id="fig-228af497a08f4f999a9db41b48b65e19-element-6" class="color_0.2">0.2</text>
      <text x="187.67" y="33.77" dy="0.35em" id="fig-228af497a08f4f999a9db41b48b65e19-element-7" class="color_0.3">0.3</text>
      <text x="187.67" y="37.4" dy="0.35em" id="fig-228af497a08f4f999a9db41b48b65e19-element-8" class="color_0.4">0.4</text>
    </g>
    <g stroke="none" id="fig-228af497a08f4f999a9db41b48b65e19-element-9">
      <rect x="184.85" y="29.24" width="1.81" height="1.81" id="fig-228af497a08f4f999a9db41b48b65e19-element-10" class="color_0.2" fill="#00BFFF"/>
      <rect x="184.85" y="32.86" width="1.81" height="1.81" id="fig-228af497a08f4f999a9db41b48b65e19-element-11" class="color_0.3" fill="#D4CA3A"/>
      <rect x="184.85" y="36.49" width="1.81" height="1.81" id="fig-228af497a08f4f999a9db41b48b65e19-element-12" class="color_0.4" fill="#FF5EA0"/>
    </g>
    <g fill="#362A35" font-size="3.88" font-family="'PT Sans','Helvetica Neue','Helvetica',sans-serif" stroke="none" id="fig-228af497a08f4f999a9db41b48b65e19-element-13">
      <text x="184.85" y="26.32" id="fig-228af497a08f4f999a9db41b48b65e19-element-14">Julia ver.</text>
    </g>
  </g>
  <g font-size="3.88" font-family="'PT Sans','Helvetica Neue','Helvetica',sans-serif" fill="#564A55" stroke="none" id="fig-228af497a08f4f999a9db41b48b65e19-element-15">
    <text x="8.81" y="29.96" text-anchor="middle" dy="0.35em" transform="rotate(-90, 8.81, 31.96)" id="fig-228af497a08f4f999a9db41b48b65e19-element-16">Number of Tagged Packages</text>
  </g>
  <g clip-path="url(#fig-228af497a08f4f999a9db41b48b65e19-element-18)" id="fig-228af497a08f4f999a9db41b48b65e19-element-17">
    <g pointer-events="visible" opacity="1" fill="none" stroke="none" class="guide background" id="fig-228af497a08f4f999a9db41b48b65e19-element-19">
      <rect x="19.63" y="5" width="164.22" height="53.91" id="fig-228af497a08f4f999a9db41b48b65e19-element-20"/>
    </g>
    <g class="guide ygridlines xfixed" stroke-dasharray="0.5,0.5" stroke-width="0.2" stroke="#D0D0E0" id="fig-228af497a08f4f999a9db41b48b65e19-element-21">
      <path fill="none" d="M19.63,56.91 L 183.85 56.91" id="fig-228af497a08f4f999a9db41b48b65e19-element-22"/>
      <path fill="none" d="M19.63,44.44 L 183.85 44.44" id="fig-228af497a08f4f999a9db41b48b65e19-element-23"/>
      <path fill="none" d="M19.63,31.96 L 183.85 31.96" id="fig-228af497a08f4f999a9db41b48b65e19-element-24"/>
      <path fill="none" d="M19.63,19.48 L 183.85 19.48" id="fig-228af497a08f4f999a9db41b48b65e19-element-25"/>
      <path fill="none" d="M19.63,7 L 183.85 7" id="fig-228af497a08f4f999a9db41b48b65e19-element-26"/>
    </g>
    <g class="guide xgridlines yfixed" stroke-dasharray="0.5,0.5" stroke-width="0.2" stroke="#D0D0E0" id="fig-228af497a08f4f999a9db41b48b65e19-element-27">
      <path fill="none" d="M22.72,5 L 22.72 58.91" id="fig-228af497a08f4f999a9db41b48b65e19-element-28"/>
      <path fill="none" d="M41.24,5 L 41.24 58.91" id="fig-228af497a08f4f999a9db41b48b65e19-element-29"/>
      <path fill="none" d="M60.38,5 L 60.38 58.91" id="fig-228af497a08f4f999a9db41b48b65e19-element-30"/>
      <path fill="none" d="M78.9,5 L 78.9 58.91" id="fig-228af497a08f4f999a9db41b48b65e19-element-31"/>
      <path fill="none" d="M98.04,5 L 98.04 58.91" id="fig-228af497a08f4f999a9db41b48b65e19-element-32"/>
      <path fill="none" d="M117.18,5 L 117.18 58.91" id="fig-228af497a08f4f999a9db41b48b65e19-element-33"/>
      <path fill="none" d="M135.7,5 L 135.7 58.91" id="fig-228af497a08f4f999a9db41b48b65e19-element-34"/>
      <path fill="none" d="M154.84,5 L 154.84 58.91" id="fig-228af497a08f4f999a9db41b48b65e19-element-35"/>
      <path fill="none" d="M173.36,5 L 173.36 58.91" id="fig-228af497a08f4f999a9db41b48b65e19-element-36"/>
    </g>
    <g class="plotpanel" id="fig-228af497a08f4f999a9db41b48b65e19-element-37">
      <g stroke-width="0.79" fill="none" class="geometry color_0.4" stroke="#FF5EA0" id="fig-228af497a08f4f999a9db41b48b65e19-element-38">
        <path fill="none" d="M105.45,28.46 L 106.06 27.71 106.68 27.47 107.3 27.22 107.92 27.22 108.53 27.22 109.77 26.47 110.39 26.47 111 26.22 111.62 26.22 112.24 26.22 112.86 25.47 113.47 24.97 114.09 24.97 115.33 24.47 115.94 23.72 117.18 23.22 117.79 23.22 118.41 23.22 120.88 23.22 122.73 21.72 123.35 21.48 123.97 21.23 124.59 20.73 125.2 20.73 125.82 20.73 126.44 18.73 127.06 18.73 127.67 18.73 128.91 18.48 129.52 18.48 130.14 18.23 130.76 18.23 131.38 18.23 131.99 17.98 132.61 17.98 133.85 18.23 134.46 17.98 135.08 17.98 135.7 17.48 136.32 16.98 136.93 16.98 137.55 16.98 138.17 16.48 140.02 15.98 140.64 15.98 141.26 15.49 141.87 15.24 142.49 15.24 143.11 15.24 143.72 14.74 144.34 14.74 144.96 14.49 145.58 14.24 146.19 14.24 146.81 14.24 147.43 14.24 148.05 13.74 148.66 13.24 149.28 13.24 149.9 13.24 150.52 12.99 151.13 12.99 151.75 12.74 152.37 12.74 152.99 12.24 153.6 11.99 154.22 11.99 154.84 11.74 155.45 11.74 156.07 11.74 156.69 11.74 157.31 11.49 157.92 11.24 159.78 11.24 162.86 9.75 163.48 9.25 164.1 9.25 164.72 9 165.33 9 165.95 8.25 166.57 8.25 169.04 7 169.65 7 172.74 6.75 173.98 6.75 174.59 6.25 175.21 6 175.83 6 176.45 6 177.06 5.5 177.68 5 179.53 4.75 180.15 4.5 181.38 3.51 182 3.51" id="fig-228af497a08f4f999a9db41b48b65e19-element-39"/>
      </g>
      <g stroke-width="0.79" fill="none" class="geometry color_0.3" stroke="#D4CA3A" id="fig-228af497a08f4f999a9db41b48b65e19-element-40">
        <path fill="none" d="M21.48,45.43 L 22.1 45.43 22.72 45.18 23.34 45.18 23.95 45.18 24.57 45.18 25.19 45.18 25.81 44.94 27.04 44.94 27.66 44.69 28.89 44.44 30.13 43.94 30.74 43.94 31.98 43.94 32.6 43.69 36.92 42.69 38.77 42.69 40.01 42.69 44.33 42.44 44.94 41.94 45.56 41.69 46.18 41.69 46.8 41.69 47.41 41.69 48.03 41.69 48.65 41.69 49.27 41.69 49.88 41.69 50.5 41.69 51.12 40.94 52.35 40.69 52.97 40.69 53.59 40.69 54.2 40.19 54.82 40.19 55.44 40.19 56.06 39.94 56.67 39.94 57.29 39.94 57.91 39.94 58.53 39.94 59.14 39.69 59.76 39.69 60.38 49.68 61 39.44 61.61 39.2 62.23 38.95 65.94 37.45 66.55 37.2 67.17 36.95 67.79 36.7 68.4 36.2 69.02 36.2 69.64 35.7 70.26 35.7 70.87 35.45 71.49 35.2 72.73 35.2 73.34 34.7 73.96 34.7 74.58 34.7 75.2 34.7 75.81 34.7 76.43 33.95 77.05 33.95 78.28 33.7 78.9 33.21 79.52 32.96 80.13 32.71 80.75 32.71 81.37 32.21 82.6 31.96 83.22 31.21 83.84 31.21 84.46 31.21 85.69 29.96 86.93 29.21 87.54 29.21 88.16 28.96 88.78 28.96 90.63 28.71 91.25 28.71 91.86 28.46 92.48 28.46 93.1 28.46 93.72 28.21 94.33 27.96 94.95 27.71 96.19 27.71 96.8 27.71 98.04 27.71 98.66 27.47 99.27 26.72 99.89 26.72 101.13 26.47 101.74 26.47 102.36 25.97 102.98 25.72 103.6 25.47 104.21 25.22 104.83 24.97 105.45 24.47 106.06 24.47 106.68 24.22 107.3 23.97 107.92 23.97 108.53 23.97 109.77 23.22 110.39 23.22 111 22.97 111.62 22.97 112.24 22.97 112.86 22.22 113.47 21.97 114.09 21.72 115.33 24.72 115.94 23.97 117.18 23.47 117.79 23.47 118.41 23.47 120.88 23.47 122.73 21.97 123.35 21.72 123.97 21.48 124.59 20.98 125.2 20.98 125.82 20.98 126.44 18.98 127.06 18.98 127.67 18.98 128.91 18.98 129.52 18.73 130.14 18.48 130.76 18.48 131.38 18.48 131.99 18.23 132.61 18.23 133.85 18.48 134.46 18.23 135.08 18.23 135.7 17.73 136.32 12.74 136.93 17.23 137.55 17.23 138.17 16.73 140.02 16.23 140.64 16.23 141.26 15.74 141.87 15.49 142.49 15.49 143.11 15.49 143.72 14.99 144.34 14.99 144.96 14.74 145.58 14.49 146.19 14.49 146.81 14.49 147.43 14.49 148.05 14.24 148.66 13.74 149.28 13.74 149.9 13.74 150.52 13.49 151.13 13.49 151.75 13.24 152.37 13.24 152.99 12.74 153.6 12.49 154.22 12.49 154.84 12.24 155.45 12.24 156.07 12.24 156.69 11.99 157.31 11.99 157.92 11.74 159.78 11.74 162.86 10.49 163.48 9.99 164.1 9.99 164.72 9.75 165.33 9.75 165.95 9 166.57 9 169.04 7.75 169.65 7.75 172.74 7.5 173.98 7.5 174.59 7.25 175.21 7 175.83 7 176.45 7 177.06 6.5 177.68 6.25 179.53 5.75 180.15 5.5 181.38 4.75 182 4.5" id="fig-228af497a08f4f999a9db41b48b65e19-element-41"/>
      </g>
      <g stroke-width="0.79" fill="none" class="geometry color_0.2" stroke="#00BFFF" id="fig-228af497a08f4f999a9db41b48b65e19-element-42">
        <path fill="none" d="M21.48,48.18 L 22.1 48.18 22.72 47.93 23.34 47.93 23.95 47.93 24.57 47.93 25.19 47.93 25.81 47.93 27.04 47.93 27.66 47.93 28.89 47.68 30.13 47.43 30.74 47.43 31.98 47.18 32.6 46.93 36.92 46.43 38.77 46.43 40.01 46.43 44.33 46.18 44.94 45.93 45.56 45.93 46.18 45.93 46.8 45.93 47.41 45.93 48.03 45.93 48.65 45.93 49.27 45.93 49.88 45.93 50.5 45.18 51.12 45.18 52.35 44.94 52.97 44.94 53.59 44.94 54.2 44.69 54.82 46.68 55.44 45.43 56.06 45.43 56.67 45.43 57.29 45.43 57.91 45.43 58.53 45.43 59.14 45.43 59.76 45.43 60.38 45.18 61 45.18 61.61 44.94 62.23 44.94 65.94 43.69 66.55 43.69 67.17 43.44 67.79 43.19 68.4 42.69 69.02 42.69 69.64 42.69 70.26 42.69 70.87 42.69 71.49 42.44 72.73 42.44 73.34 41.94 73.96 41.94 74.58 41.94 75.2 41.94 75.81 41.94 76.43 41.19 77.05 41.19 78.28 40.94 78.9 40.44 79.52 40.19 80.13 39.94 80.75 39.94 81.37 39.94 82.6 39.44 83.22 39.2 83.84 38.95 84.46 38.95 85.69 38.45 86.93 37.95 87.54 37.95 88.16 37.95 88.78 37.95 90.63 37.95 91.25 37.95 91.86 37.7 92.48 37.7 93.1 37.7 93.72 37.45 94.33 37.45 94.95 37.45 96.19 37.2 96.8 37.2 98.04 37.2 98.66 37.2 99.27 36.45 99.89 36.45 101.13 36.95 101.74 36.95 102.36 36.45 102.98 36.2 103.6 36.2 104.21 35.7 104.83 35.7" id="fig-228af497a08f4f999a9db41b48b65e19-element-43"/>
      </g>
    </g>
  </g>
  <g class="guide ylabels" font-size="2.82" font-family="'PT Sans Caption','Helvetica Neue','Helvetica',sans-serif" fill="#6C606B" id="fig-228af497a08f4f999a9db41b48b65e19-element-44">
    <text x="18.63" y="56.91" text-anchor="end" dy="0.35em" id="fig-228af497a08f4f999a9db41b48b65e19-element-45">250</text>
    <text x="18.63" y="44.44" text-anchor="end" dy="0.35em" id="fig-228af497a08f4f999a9db41b48b65e19-element-46">300</text>
    <text x="18.63" y="31.96" text-anchor="end" dy="0.35em" id="fig-228af497a08f4f999a9db41b48b65e19-element-47">350</text>
    <text x="18.63" y="19.48" text-anchor="end" dy="0.35em" id="fig-228af497a08f4f999a9db41b48b65e19-element-48">400</text>
    <text x="18.63" y="7" text-anchor="end" dy="0.35em" id="fig-228af497a08f4f999a9db41b48b65e19-element-49">450</text>
  </g>
</g>
<defs>
<clipPath id="fig-228af497a08f4f999a9db41b48b65e19-element-18">
  <path d="M19.63,5 L 183.85 5 183.85 58.91 19.63 58.91" />
</clipPath
></defs>
</svg>
