<?xml version="1.0" encoding="UTF-8"?>
<svg xmlns="http://www.w3.org/2000/svg"
     xmlns:xlink="http://www.w3.org/1999/xlink"
     xmlns:gadfly="http://www.gadflyjl.org/ns"
     version="1.2"
     width="203.2mm" height="76.2mm" viewBox="0 0 203.2 76.2"
     stroke="none"
     fill="#000000"
     stroke-width="0.3"
     font-size="3.88"
>
<g class="plotroot xscalable yscalable" id="fig-5aef2effef484914b9cd75514d071540-element-1">
  <g font-size="3.88" font-family="'PT Sans','Helvetica Neue','Helvetica',sans-serif" fill="#564A55" stroke="none" id="fig-5aef2effef484914b9cd75514d071540-element-2">
    <text x="101.74" y="68.2" text-anchor="middle">Date</text>
  </g>
  <g class="guide xlabels" font-size="2.82" font-family="'PT Sans Caption','Helvetica Neue','Helvetica',sans-serif" fill="#6C606B" id="fig-5aef2effef484914b9cd75514d071540-element-3">
    <text x="22.61" y="62.59" text-anchor="middle">Apr</text>
    <text x="40.46" y="62.59" text-anchor="middle">May</text>
    <text x="58.9" y="62.59" text-anchor="middle">Jun</text>
    <text x="76.75" y="62.59" text-anchor="middle">Jul</text>
    <text x="95.2" y="62.59" text-anchor="middle">Aug</text>
    <text x="113.64" y="62.59" text-anchor="middle">Sep</text>
    <text x="131.49" y="62.59" text-anchor="middle">Oct</text>
    <text x="149.94" y="62.59" text-anchor="middle">Nov</text>
    <text x="167.79" y="62.59" text-anchor="middle">Dec</text>
  </g>
  <g class="guide colorkey" id="fig-5aef2effef484914b9cd75514d071540-element-4">
    <g fill="#4C404B" font-size="2.82" font-family="'PT Sans','Helvetica Neue','Helvetica',sans-serif" id="fig-5aef2effef484914b9cd75514d071540-element-5">
      <text x="187.67" y="30.14" dy="0.35em" id="fig-5aef2effef484914b9cd75514d071540-element-6" class="color_0.2">0.2</text>
      <text x="187.67" y="33.77" dy="0.35em" id="fig-5aef2effef484914b9cd75514d071540-element-7" class="color_0.3">0.3</text>
      <text x="187.67" y="37.4" dy="0.35em" id="fig-5aef2effef484914b9cd75514d071540-element-8" class="color_0.4">0.4</text>
    </g>
    <g stroke="none" id="fig-5aef2effef484914b9cd75514d071540-element-9">
      <rect x="184.85" y="29.24" width="1.81" height="1.81" id="fig-5aef2effef484914b9cd75514d071540-element-10" fill="#00BFFF" class="color_0.2"/>
      <rect x="184.85" y="32.86" width="1.81" height="1.81" id="fig-5aef2effef484914b9cd75514d071540-element-11" fill="#D4CA3A" class="color_0.3"/>
      <rect x="184.85" y="36.49" width="1.81" height="1.81" id="fig-5aef2effef484914b9cd75514d071540-element-12" fill="#FF5EA0" class="color_0.4"/>
    </g>
    <g fill="#362A35" font-size="3.88" font-family="'PT Sans','Helvetica Neue','Helvetica',sans-serif" stroke="none" id="fig-5aef2effef484914b9cd75514d071540-element-13">
      <text x="184.85" y="26.32" id="fig-5aef2effef484914b9cd75514d071540-element-14">Julia ver.</text>
    </g>
  </g>
  <g font-size="3.88" font-family="'PT Sans','Helvetica Neue','Helvetica',sans-serif" fill="#564A55" stroke="none" id="fig-5aef2effef484914b9cd75514d071540-element-15">
    <text x="8.81" y="29.96" text-anchor="middle" dy="0.35em" transform="rotate(-90, 8.81, 31.96)" id="fig-5aef2effef484914b9cd75514d071540-element-16">Number of Tagged Packages</text>
  </g>
  <g clip-path="url(#fig-5aef2effef484914b9cd75514d071540-element-18)" id="fig-5aef2effef484914b9cd75514d071540-element-17">
    <g pointer-events="visible" opacity="1" fill="none" stroke="none" class="guide background" id="fig-5aef2effef484914b9cd75514d071540-element-19">
      <rect x="19.63" y="5" width="164.22" height="53.91" id="fig-5aef2effef484914b9cd75514d071540-element-20"/>
    </g>
    <g class="guide ygridlines xfixed" stroke-dasharray="0.5,0.5" stroke-width="0.2" stroke="#D0D0E0" id="fig-5aef2effef484914b9cd75514d071540-element-21">
      <path fill="none" d="M19.63,56.92 L 183.85 56.92" id="fig-5aef2effef484914b9cd75514d071540-element-22"/>
      <path fill="none" d="M19.63,46.93 L 183.85 46.93" id="fig-5aef2effef484914b9cd75514d071540-element-23"/>
      <path fill="none" d="M19.63,36.95 L 183.85 36.95" id="fig-5aef2effef484914b9cd75514d071540-element-24"/>
      <path fill="none" d="M19.63,26.97 L 183.85 26.97" id="fig-5aef2effef484914b9cd75514d071540-element-25"/>
      <path fill="none" d="M19.63,16.98 L 183.85 16.98" id="fig-5aef2effef484914b9cd75514d071540-element-26"/>
      <path fill="none" d="M19.63,7 L 183.85 7" id="fig-5aef2effef484914b9cd75514d071540-element-27"/>
    </g>
    <g class="guide xgridlines yfixed" stroke-dasharray="0.5,0.5" stroke-width="0.2" stroke="#D0D0E0" id="fig-5aef2effef484914b9cd75514d071540-element-28">
      <path fill="none" d="M22.61,5 L 22.61 58.91" id="fig-5aef2effef484914b9cd75514d071540-element-29"/>
      <path fill="none" d="M40.46,5 L 40.46 58.91" id="fig-5aef2effef484914b9cd75514d071540-element-30"/>
      <path fill="none" d="M58.9,5 L 58.9 58.91" id="fig-5aef2effef484914b9cd75514d071540-element-31"/>
      <path fill="none" d="M76.75,5 L 76.75 58.91" id="fig-5aef2effef484914b9cd75514d071540-element-32"/>
      <path fill="none" d="M95.2,5 L 95.2 58.91" id="fig-5aef2effef484914b9cd75514d071540-element-33"/>
      <path fill="none" d="M113.64,5 L 113.64 58.91" id="fig-5aef2effef484914b9cd75514d071540-element-34"/>
      <path fill="none" d="M131.49,5 L 131.49 58.91" id="fig-5aef2effef484914b9cd75514d071540-element-35"/>
      <path fill="none" d="M149.94,5 L 149.94 58.91" id="fig-5aef2effef484914b9cd75514d071540-element-36"/>
      <path fill="none" d="M167.79,5 L 167.79 58.91" id="fig-5aef2effef484914b9cd75514d071540-element-37"/>
    </g>
    <g class="plotpanel" id="fig-5aef2effef484914b9cd75514d071540-element-38">
      <g stroke-width="0.79" fill="none" class="geometry color_0.4" stroke="#FF5EA0" id="fig-5aef2effef484914b9cd75514d071540-element-39">
        <path fill="none" d="M102.34,34.15 L 102.93 33.55 103.53 33.36 104.12 33.16 104.72 33.16 105.31 33.16 106.5 32.56 107.1 32.56 107.69 32.36 108.29 32.36 108.88 32.36 109.48 31.76 110.07 31.36 110.67 31.36 111.86 30.96 112.45 30.36 113.64 29.96 114.24 29.96 114.83 29.96 117.21 29.96 119 28.76 119.59 28.56 120.19 28.36 120.78 27.96 121.38 27.96 121.97 27.96 122.57 26.37 123.16 26.37 123.76 26.37 124.95 26.17 125.54 26.17 126.14 25.97 126.73 25.97 127.33 25.97 127.92 25.77 128.52 25.77 129.71 25.97 130.3 25.77 130.9 25.77 131.49 25.37 132.09 24.97 132.68 24.97 133.28 24.97 133.87 24.57 135.66 24.17 136.25 24.17 136.85 23.77 137.44 23.57 138.04 23.57 138.63 23.57 139.23 23.17 139.82 23.17 140.42 22.97 141.01 22.77 141.61 22.77 142.2 22.77 142.8 22.77 143.39 22.37 143.99 21.97 144.58 21.97 145.18 21.97 145.77 21.77 146.37 21.77 146.96 21.58 147.56 21.58 148.15 21.18 148.75 20.98 149.34 20.98 149.94 20.78 150.53 20.78 151.13 20.78 151.72 20.78 152.32 20.58 152.91 20.38 154.7 20.38 157.67 19.18 158.27 18.78 158.86 18.78 159.46 18.58 160.05 18.58 160.65 17.98 161.24 17.98 163.62 16.98 164.22 16.98 167.19 16.78 168.38 16.78 168.98 16.38 169.57 16.18 170.17 16.18 170.76 16.18 171.36 15.79 171.95 15.39 173.74 15.19 174.33 14.99 175.52 14.19 176.12 14.19 176.71 14.19 178.5 14.19 179.69 13.79 181.47 13.39" id="fig-5aef2effef484914b9cd75514d071540-element-40"/>
      </g>
      <g stroke-width="0.79" fill="none" class="geometry color_0.3" stroke="#D4CA3A" id="fig-5aef2effef484914b9cd75514d071540-element-41">
        <path fill="none" d="M21.42,47.73 L 22.01 47.73 22.61 47.53 23.2 47.53 23.8 47.53 24.39 47.53 24.99 47.53 25.58 47.33 26.77 47.33 27.37 47.13 28.56 46.93 29.75 46.53 30.34 46.53 31.53 46.53 32.13 46.33 36.29 45.53 38.08 45.53 39.27 45.53 43.43 45.33 44.03 44.94 44.62 44.74 45.22 44.74 45.81 44.74 46.41 44.74 47 44.74 47.6 44.74 48.19 44.74 48.79 44.74 49.38 44.74 49.98 44.14 51.17 43.94 51.76 43.94 52.36 43.94 52.95 43.54 53.55 43.54 54.14 43.54 54.74 43.34 55.33 43.34 55.93 43.34 56.52 43.34 57.12 43.34 57.71 43.14 58.31 43.14 58.9 51.12 59.5 42.94 60.09 42.74 60.69 42.54 64.26 41.34 64.85 41.14 65.45 40.94 66.04 40.74 66.64 40.34 67.23 40.34 67.83 39.94 68.42 39.94 69.02 39.74 69.61 39.54 70.8 39.54 71.4 39.15 71.99 39.15 72.59 39.15 73.18 39.15 73.78 39.15 74.37 38.55 74.97 38.55 76.16 38.35 76.75 37.95 77.35 37.75 77.94 37.55 78.54 37.55 79.13 37.15 80.32 36.95 80.92 36.35 81.51 36.35 82.11 36.35 83.3 35.35 84.49 34.75 85.08 34.75 85.68 34.55 86.27 34.55 88.06 34.35 88.65 34.35 89.25 34.15 89.84 34.15 90.44 34.15 91.03 33.95 91.63 33.75 92.22 33.55 93.41 33.55 94.01 33.55 95.2 33.55 95.79 33.36 96.39 32.76 96.98 32.76 98.17 32.56 98.77 32.56 99.36 32.16 99.96 31.96 100.55 31.76 101.15 31.56 101.74 31.36 102.34 30.96 102.93 30.96 103.53 30.76 104.12 30.56 104.72 30.56 105.31 30.56 106.5 29.96 107.1 29.96 107.69 29.76 108.29 29.76 108.88 29.76 109.48 29.16 110.07 28.96 110.67 28.76 111.86 31.16 112.45 30.56 113.64 30.16 114.24 30.16 114.83 30.16 117.21 30.16 119 28.96 119.59 28.76 120.19 28.56 120.78 28.16 121.38 28.16 121.97 28.16 122.57 26.57 123.16 26.57 123.76 26.57 124.95 26.57 125.54 26.37 126.14 26.17 126.73 26.17 127.33 26.17 127.92 25.97 128.52 25.97 129.71 26.17 130.3 25.97 130.9 25.97 131.49 25.57 132.09 21.58 132.68 25.17 133.28 25.17 133.87 24.77 135.66 24.37 136.25 24.37 136.85 23.97 137.44 23.77 138.04 23.77 138.63 23.77 139.23 23.37 139.82 23.37 140.42 23.17 141.01 22.97 141.61 22.97 142.2 22.97 142.8 22.97 143.39 22.77 143.99 22.37 144.58 22.37 145.18 22.37 145.77 22.17 146.37 22.17 146.96 21.97 147.56 21.97 148.15 21.58 148.75 21.38 149.34 21.38 149.94 21.18 150.53 21.18 151.13 21.18 151.72 20.98 152.32 20.98 152.91 20.78 154.7 20.78 157.67 19.78 158.27 19.38 158.86 19.38 159.46 19.18 160.05 19.18 160.65 18.58 161.24 18.58 163.62 17.58 164.22 17.58 167.19 17.38 168.38 17.38 168.98 17.18 169.57 16.98 170.17 16.98 170.76 16.98 171.36 16.58 171.95 16.38 173.74 15.98 174.33 15.79 175.52 15.19 176.12 14.99 176.71 14.99 178.5 14.99 179.69 14.59 181.47 14.19" id="fig-5aef2effef484914b9cd75514d071540-element-42"/>
      </g>
      <g stroke-width="0.79" fill="none" class="geometry color_0.2" stroke="#00BFFF" id="fig-5aef2effef484914b9cd75514d071540-element-43">
        <path fill="none" d="M21.42,49.93 L 22.01 49.93 22.61 49.73 23.2 49.73 23.8 49.73 24.39 49.73 24.99 49.73 25.58 49.73 26.77 49.73 27.37 49.73 28.56 49.53 29.75 49.33 30.34 49.33 31.53 49.13 32.13 48.93 36.29 48.53 38.08 48.53 39.27 48.53 43.43 48.33 44.03 48.13 44.62 48.13 45.22 48.13 45.81 48.13 46.41 48.13 47 48.13 47.6 48.13 48.19 48.13 48.79 48.13 49.38 47.53 49.98 47.53 51.17 47.33 51.76 47.33 52.36 47.33 52.95 47.13 53.55 48.73 54.14 47.73 54.74 47.73 55.33 47.73 55.93 47.73 56.52 47.73 57.12 47.73 57.71 47.73 58.31 47.73 58.9 47.53 59.5 47.53 60.09 47.33 60.69 47.33 64.26 46.33 64.85 46.33 65.45 46.13 66.04 45.93 66.64 45.53 67.23 45.53 67.83 45.53 68.42 45.53 69.02 45.53 69.61 45.33 70.8 45.33 71.4 44.94 71.99 44.94 72.59 44.94 73.18 44.94 73.78 44.94 74.37 44.34 74.97 44.34 76.16 44.14 76.75 43.74 77.35 43.54 77.94 43.34 78.54 43.34 79.13 43.34 80.32 42.94 80.92 42.74 81.51 42.54 82.11 42.54 83.3 42.14 84.49 41.74 85.08 41.74 85.68 41.74 86.27 41.74 88.06 41.74 88.65 41.74 89.25 41.54 89.84 41.54 90.44 41.54 91.03 41.34 91.63 41.34 92.22 41.34 93.41 41.14 94.01 41.14 95.2 41.14 95.79 41.14 96.39 40.54 96.98 40.54 98.17 40.94 98.77 40.94 99.36 40.54 99.96 40.34 100.55 40.34 101.15 39.94 101.74 39.94" id="fig-5aef2effef484914b9cd75514d071540-element-44"/>
      </g>
    </g>
  </g>
  <g class="guide ylabels" font-size="2.82" font-family="'PT Sans Caption','Helvetica Neue','Helvetica',sans-serif" fill="#6C606B" id="fig-5aef2effef484914b9cd75514d071540-element-45">
    <text x="18.63" y="56.92" text-anchor="end" dy="0.35em" id="fig-5aef2effef484914b9cd75514d071540-element-46">250</text>
    <text x="18.63" y="46.93" text-anchor="end" dy="0.35em" id="fig-5aef2effef484914b9cd75514d071540-element-47">300</text>
    <text x="18.63" y="36.95" text-anchor="end" dy="0.35em" id="fig-5aef2effef484914b9cd75514d071540-element-48">350</text>
    <text x="18.63" y="26.97" text-anchor="end" dy="0.35em" id="fig-5aef2effef484914b9cd75514d071540-element-49">400</text>
    <text x="18.63" y="16.98" text-anchor="end" dy="0.35em" id="fig-5aef2effef484914b9cd75514d071540-element-50">450</text>
    <text x="18.63" y="7" text-anchor="end" dy="0.35em" id="fig-5aef2effef484914b9cd75514d071540-element-51">500</text>
  </g>
</g>
<defs>
<clipPath id="fig-5aef2effef484914b9cd75514d071540-element-18">
  <path d="M19.63,5 L 183.85 5 183.85 58.91 19.63 58.91" />
</clipPath
></defs>
</svg>
