<?xml version="1.0" encoding="UTF-8"?>
<svg xmlns="http://www.w3.org/2000/svg"
     xmlns:xlink="http://www.w3.org/1999/xlink"
     xmlns:gadfly="http://www.gadflyjl.org/ns"
     version="1.2"
     width="203.2mm" height="76.2mm" viewBox="0 0 203.2 76.2"
     stroke="none"
     fill="#000000"
     stroke-width="0.3"
     font-size="3.88"
>
<g class="plotroot xscalable yscalable" id="fig-39c3109370b240779ce8b5031c035686-element-1">
  <g font-size="3.88" font-family="'PT Sans','Helvetica Neue','Helvetica',sans-serif" fill="#564A55" stroke="none" id="fig-39c3109370b240779ce8b5031c035686-element-2">
    <text x="101.74" y="68.2" text-anchor="middle">Date</text>
  </g>
  <g class="guide xlabels" font-size="2.82" font-family="'PT Sans Caption','Helvetica Neue','Helvetica',sans-serif" fill="#6C606B" id="fig-39c3109370b240779ce8b5031c035686-element-3">
    <text x="22.98" y="62.59" text-anchor="middle">Apr</text>
    <text x="43.09" y="62.59" text-anchor="middle">May</text>
    <text x="63.87" y="62.59" text-anchor="middle">June</text>
    <text x="83.98" y="62.59" text-anchor="middle">July</text>
    <text x="104.76" y="62.59" text-anchor="middle">Aug</text>
    <text x="125.54" y="62.59" text-anchor="middle">Sept</text>
    <text x="145.65" y="62.59" text-anchor="middle">Oct</text>
    <text x="166.43" y="62.59" text-anchor="middle">Nev</text>
  </g>
  <g class="guide colorkey" id="fig-39c3109370b240779ce8b5031c035686-element-4">
    <g fill="#4C404B" font-size="2.82" font-family="'PT Sans','Helvetica Neue','Helvetica',sans-serif" id="fig-39c3109370b240779ce8b5031c035686-element-5">
      <text x="187.67" y="30.14" dy="0.35em" id="fig-39c3109370b240779ce8b5031c035686-element-6" class="color_0.2">0.2</text>
      <text x="187.67" y="33.77" dy="0.35em" id="fig-39c3109370b240779ce8b5031c035686-element-7" class="color_0.3">0.3</text>
      <text x="187.67" y="37.4" dy="0.35em" id="fig-39c3109370b240779ce8b5031c035686-element-8" class="color_0.4">0.4</text>
    </g>
    <g stroke="none" id="fig-39c3109370b240779ce8b5031c035686-element-9">
      <rect x="184.85" y="29.24" width="1.81" height="1.81" id="fig-39c3109370b240779ce8b5031c035686-element-10" class="color_0.2" fill="#00BFFF"/>
      <rect x="184.85" y="32.86" width="1.81" height="1.81" id="fig-39c3109370b240779ce8b5031c035686-element-11" class="color_0.3" fill="#D4CA3A"/>
      <rect x="184.85" y="36.49" width="1.81" height="1.81" id="fig-39c3109370b240779ce8b5031c035686-element-12" class="color_0.4" fill="#FF5EA0"/>
    </g>
    <g fill="#362A35" font-size="3.88" font-family="'PT Sans','Helvetica Neue','Helvetica',sans-serif" stroke="none" id="fig-39c3109370b240779ce8b5031c035686-element-13">
      <text x="184.85" y="26.32" id="fig-39c3109370b240779ce8b5031c035686-element-14">Julia ver.</text>
    </g>
  </g>
  <g font-size="3.88" font-family="'PT Sans','Helvetica Neue','Helvetica',sans-serif" fill="#564A55" stroke="none" id="fig-39c3109370b240779ce8b5031c035686-element-15">
    <text x="8.81" y="29.96" text-anchor="middle" dy="0.35em" transform="rotate(-90, 8.81, 31.96)" id="fig-39c3109370b240779ce8b5031c035686-element-16">Number of Tagged Packages</text>
  </g>
  <g clip-path="url(#fig-39c3109370b240779ce8b5031c035686-element-18)" id="fig-39c3109370b240779ce8b5031c035686-element-17">
    <g pointer-events="visible" opacity="1" fill="none" stroke="none" class="guide background" id="fig-39c3109370b240779ce8b5031c035686-element-19">
      <rect x="19.63" y="5" width="164.22" height="53.91" id="fig-39c3109370b240779ce8b5031c035686-element-20"/>
    </g>
    <g class="guide ygridlines xfixed" stroke-dasharray="0.5,0.5" stroke-width="0.2" stroke="#D0D0E0" id="fig-39c3109370b240779ce8b5031c035686-element-21">
      <path fill="none" d="M19.63,56.91 L 183.85 56.91" id="fig-39c3109370b240779ce8b5031c035686-element-22"/>
      <path fill="none" d="M19.63,44.44 L 183.85 44.44" id="fig-39c3109370b240779ce8b5031c035686-element-23"/>
      <path fill="none" d="M19.63,31.96 L 183.85 31.96" id="fig-39c3109370b240779ce8b5031c035686-element-24"/>
      <path fill="none" d="M19.63,19.48 L 183.85 19.48" id="fig-39c3109370b240779ce8b5031c035686-element-25"/>
      <path fill="none" d="M19.63,7 L 183.85 7" id="fig-39c3109370b240779ce8b5031c035686-element-26"/>
    </g>
    <g class="guide xgridlines yfixed" stroke-dasharray="0.5,0.5" stroke-width="0.2" stroke="#D0D0E0" id="fig-39c3109370b240779ce8b5031c035686-element-27">
      <path fill="none" d="M22.98,5 L 22.98 58.91" id="fig-39c3109370b240779ce8b5031c035686-element-28"/>
      <path fill="none" d="M43.09,5 L 43.09 58.91" id="fig-39c3109370b240779ce8b5031c035686-element-29"/>
      <path fill="none" d="M63.87,5 L 63.87 58.91" id="fig-39c3109370b240779ce8b5031c035686-element-30"/>
      <path fill="none" d="M83.98,5 L 83.98 58.91" id="fig-39c3109370b240779ce8b5031c035686-element-31"/>
      <path fill="none" d="M104.76,5 L 104.76 58.91" id="fig-39c3109370b240779ce8b5031c035686-element-32"/>
      <path fill="none" d="M125.54,5 L 125.54 58.91" id="fig-39c3109370b240779ce8b5031c035686-element-33"/>
      <path fill="none" d="M145.65,5 L 145.65 58.91" id="fig-39c3109370b240779ce8b5031c035686-element-34"/>
      <path fill="none" d="M166.43,5 L 166.43 58.91" id="fig-39c3109370b240779ce8b5031c035686-element-35"/>
    </g>
    <g class="plotpanel" id="fig-39c3109370b240779ce8b5031c035686-element-36">
      <g stroke-width="0.79" fill="none" class="geometry color_0.4" stroke="#FF5EA0" id="fig-39c3109370b240779ce8b5031c035686-element-37">
        <path fill="none" d="M112.8,28.46 L 113.47 27.71 114.14 27.47 114.81 27.22 115.48 27.22 116.15 27.22 117.49 26.47 118.17 26.47 118.84 26.22 119.51 26.22 120.18 26.22 120.85 25.47 121.52 24.97 122.19 24.97 123.53 24.47 124.2 23.72 125.54 23.22 126.21 23.22 126.88 23.22 129.56 23.22 131.57 21.72 132.24 21.48 132.91 21.23 133.58 20.73 134.25 20.73 134.92 20.73 135.59 18.73 136.26 18.73 136.93 18.73 138.27 18.48 138.94 18.48 139.61 18.23 140.28 18.23 140.96 18.23 141.63 17.98 142.3 17.98 143.64 18.23 144.31 17.98 144.98 17.98 145.65 17.48 146.32 16.98 146.99 16.98 147.66 16.98 148.33 16.48 150.34 15.98 151.01 15.98 151.68 15.49 152.35 15.24 153.02 15.24 153.69 15.24 154.36 14.74 155.03 14.74 155.7 14.49 156.37 14.24 157.04 14.24 157.71 14.24 158.38 14.24 159.05 13.74 159.72 13.24 160.39 13.24 161.06 13.24 161.73 12.99 162.4 12.99 163.07 12.74 163.75 12.74 164.42 12.24 165.09 11.99 165.76 11.99 166.43 11.74 167.1 11.74 167.77 11.74 168.44 11.74 169.11 11.49 169.78 11.24 171.79 11.24 175.14 9.75 175.81 9.25 176.48 9.25 177.15 9 177.82 9 178.49 8.25 179.16 8.25 181.84 7" id="fig-39c3109370b240779ce8b5031c035686-element-38"/>
      </g>
      <g stroke-width="0.79" fill="none" class="geometry color_0.3" stroke="#D4CA3A" id="fig-39c3109370b240779ce8b5031c035686-element-39">
        <path fill="none" d="M21.64,45.43 L 22.31 45.43 22.98 45.18 23.65 45.18 24.32 45.18 24.99 45.18 25.66 45.18 26.33 44.94 27.68 44.94 28.35 44.69 29.69 44.44 31.03 43.94 31.7 43.94 33.04 43.94 33.71 43.69 38.4 42.69 40.41 42.69 41.75 42.69 46.44 42.44 47.11 41.94 47.78 41.69 48.45 41.69 49.12 41.69 49.79 41.69 50.47 41.69 51.14 41.69 51.81 41.69 52.48 41.69 53.15 41.69 53.82 40.94 55.16 40.69 55.83 40.69 56.5 40.69 57.17 40.19 57.84 40.19 58.51 40.19 59.18 39.94 59.85 39.94 60.52 39.94 61.19 39.94 61.86 39.94 62.53 39.69 63.2 39.69 63.87 49.68 64.54 39.44 65.21 39.2 65.88 38.95 69.9 37.45 70.57 37.2 71.24 36.95 71.91 36.7 72.59 36.2 73.26 36.2 73.93 35.7 74.6 35.7 75.27 35.45 75.94 35.2 77.28 35.2 77.95 34.7 78.62 34.7 79.29 34.7 79.96 34.7 80.63 34.7 81.3 33.95 81.97 33.95 83.31 33.7 83.98 33.21 84.65 32.96 85.32 32.71 85.99 32.71 86.66 32.21 88 31.96 88.67 31.21 89.34 31.21 90.01 31.21 91.35 29.96 92.69 29.21 93.36 29.21 94.03 28.96 94.7 28.96 96.72 28.71 97.39 28.71 98.06 28.46 98.73 28.46 99.4 28.46 100.07 28.21 100.74 27.96 101.41 27.71 102.75 27.71 103.42 27.71 104.76 27.71 105.43 27.47 106.1 26.72 106.77 26.72 108.11 26.47 108.78 26.47 109.45 25.97 110.12 25.72 110.79 25.47 111.46 25.22 112.13 24.97 112.8 24.47 113.47 24.47 114.14 24.22 114.81 23.97 115.48 23.97 116.15 23.97 117.49 23.22 118.17 23.22 118.84 22.97 119.51 22.97 120.18 22.97 120.85 22.22 121.52 21.97 122.19 21.72 123.53 24.72 124.2 23.97 125.54 23.47 126.21 23.47 126.88 23.47 129.56 23.47 131.57 21.97 132.24 21.72 132.91 21.48 133.58 20.98 134.25 20.98 134.92 20.98 135.59 18.98 136.26 18.98 136.93 18.98 138.27 18.98 138.94 18.73 139.61 18.48 140.28 18.48 140.96 18.48 141.63 18.23 142.3 18.23 143.64 18.48 144.31 18.23 144.98 18.23 145.65 17.73 146.32 12.74 146.99 17.23 147.66 17.23 148.33 16.73 150.34 16.23 151.01 16.23 151.68 15.74 152.35 15.49 153.02 15.49 153.69 15.49 154.36 14.99 155.03 14.99 155.7 14.74 156.37 14.49 157.04 14.49 157.71 14.49 158.38 14.49 159.05 14.24 159.72 13.74 160.39 13.74 161.06 13.74 161.73 13.49 162.4 13.49 163.07 13.24 163.75 13.24 164.42 12.74 165.09 12.49 165.76 12.49 166.43 12.24 167.1 12.24 167.77 12.24 168.44 11.99 169.11 11.99 169.78 11.74 171.79 11.74 175.14 10.49 175.81 9.99 176.48 9.99 177.15 9.75 177.82 9.75 178.49 9 179.16 9 181.84 7.75" id="fig-39c3109370b240779ce8b5031c035686-element-40"/>
      </g>
      <g stroke-width="0.79" fill="none" class="geometry color_0.2" stroke="#00BFFF" id="fig-39c3109370b240779ce8b5031c035686-element-41">
        <path fill="none" d="M21.64,48.18 L 22.31 48.18 22.98 47.93 23.65 47.93 24.32 47.93 24.99 47.93 25.66 47.93 26.33 47.93 27.68 47.93 28.35 47.93 29.69 47.68 31.03 47.43 31.7 47.43 33.04 47.18 33.71 46.93 38.4 46.43 40.41 46.43 41.75 46.43 46.44 46.18 47.11 45.93 47.78 45.93 48.45 45.93 49.12 45.93 49.79 45.93 50.47 45.93 51.14 45.93 51.81 45.93 52.48 45.93 53.15 45.18 53.82 45.18 55.16 44.94 55.83 44.94 56.5 44.94 57.17 44.69 57.84 46.68 58.51 45.43 59.18 45.43 59.85 45.43 60.52 45.43 61.19 45.43 61.86 45.43 62.53 45.43 63.2 45.43 63.87 45.18 64.54 45.18 65.21 44.94 65.88 44.94 69.9 43.69 70.57 43.69 71.24 43.44 71.91 43.19 72.59 42.69 73.26 42.69 73.93 42.69 74.6 42.69 75.27 42.69 75.94 42.44 77.28 42.44 77.95 41.94 78.62 41.94 79.29 41.94 79.96 41.94 80.63 41.94 81.3 41.19 81.97 41.19 83.31 40.94 83.98 40.44 84.65 40.19 85.32 39.94 85.99 39.94 86.66 39.94 88 39.44 88.67 39.2 89.34 38.95 90.01 38.95 91.35 38.45 92.69 37.95 93.36 37.95 94.03 37.95 94.7 37.95 96.72 37.95 97.39 37.95 98.06 37.7 98.73 37.7 99.4 37.7 100.07 37.45 100.74 37.45 101.41 37.45 102.75 37.2 103.42 37.2 104.76 37.2 105.43 37.2 106.1 36.45 106.77 36.45 108.11 36.95 108.78 36.95 109.45 36.45 110.12 36.2 110.79 36.2 111.46 35.7 112.13 35.7" id="fig-39c3109370b240779ce8b5031c035686-element-42"/>
      </g>
    </g>
  </g>
  <g class="guide ylabels" font-size="2.82" font-family="'PT Sans Caption','Helvetica Neue','Helvetica',sans-serif" fill="#6C606B" id="fig-39c3109370b240779ce8b5031c035686-element-43">
    <text x="18.63" y="56.91" text-anchor="end" dy="0.35em" id="fig-39c3109370b240779ce8b5031c035686-element-44">250</text>
    <text x="18.63" y="44.44" text-anchor="end" dy="0.35em" id="fig-39c3109370b240779ce8b5031c035686-element-45">300</text>
    <text x="18.63" y="31.96" text-anchor="end" dy="0.35em" id="fig-39c3109370b240779ce8b5031c035686-element-46">350</text>
    <text x="18.63" y="19.48" text-anchor="end" dy="0.35em" id="fig-39c3109370b240779ce8b5031c035686-element-47">400</text>
    <text x="18.63" y="7" text-anchor="end" dy="0.35em" id="fig-39c3109370b240779ce8b5031c035686-element-48">450</text>
  </g>
</g>
<defs>
<clipPath id="fig-39c3109370b240779ce8b5031c035686-element-18">
  <path d="M19.63,5 L 183.85 5 183.85 58.91 19.63 58.91" />
</clipPath
></defs>
</svg>
