<?xml version="1.0" encoding="UTF-8"?>
<svg xmlns="http://www.w3.org/2000/svg"
     xmlns:xlink="http://www.w3.org/1999/xlink"
     xmlns:gadfly="http://www.gadflyjl.org/ns"
     version="1.2"
     width="203.2mm" height="76.2mm" viewBox="0 0 203.2 76.2"
     stroke="none"
     fill="#000000"
     stroke-width="0.3"
     font-size="3.88"
>
<g class="plotroot xscalable yscalable" id="fig-f023d85eb128440d9cf05a0cbcae3662-element-1">
  <g font-size="3.88" font-family="'PT Sans','Helvetica Neue','Helvetica',sans-serif" fill="#564A55" stroke="none" id="fig-f023d85eb128440d9cf05a0cbcae3662-element-2">
    <text x="101.74" y="68.2" text-anchor="middle">Date</text>
  </g>
  <g class="guide xlabels" font-size="2.82" font-family="'PT Sans Caption','Helvetica Neue','Helvetica',sans-serif" fill="#6C606B" id="fig-f023d85eb128440d9cf05a0cbcae3662-element-3">
    <text x="22.92" y="62.59" text-anchor="middle">Apr</text>
    <text x="47.55" y="62.59" text-anchor="middle">May</text>
    <text x="73" y="62.59" text-anchor="middle">June</text>
    <text x="97.64" y="62.59" text-anchor="middle">July</text>
    <text x="123.09" y="62.59" text-anchor="middle">Aug</text>
    <text x="148.55" y="62.59" text-anchor="middle">Sept</text>
    <text x="173.18" y="62.59" text-anchor="middle">Oct</text>
  </g>
  <g class="guide colorkey" id="fig-f023d85eb128440d9cf05a0cbcae3662-element-4">
    <g fill="#4C404B" font-size="2.82" font-family="'PT Sans','Helvetica Neue','Helvetica',sans-serif" id="fig-f023d85eb128440d9cf05a0cbcae3662-element-5">
      <text x="187.67" y="30.14" dy="0.35em" id="fig-f023d85eb128440d9cf05a0cbcae3662-element-6" class="color_0.2">0.2</text>
      <text x="187.67" y="33.77" dy="0.35em" id="fig-f023d85eb128440d9cf05a0cbcae3662-element-7" class="color_0.3">0.3</text>
      <text x="187.67" y="37.4" dy="0.35em" id="fig-f023d85eb128440d9cf05a0cbcae3662-element-8" class="color_0.4">0.4</text>
    </g>
    <g stroke="none" id="fig-f023d85eb128440d9cf05a0cbcae3662-element-9">
      <rect x="184.85" y="29.24" width="1.81" height="1.81" id="fig-f023d85eb128440d9cf05a0cbcae3662-element-10" fill="#00BFFF" class="color_0.2"/>
      <rect x="184.85" y="32.86" width="1.81" height="1.81" id="fig-f023d85eb128440d9cf05a0cbcae3662-element-11" fill="#D4CA3A" class="color_0.3"/>
      <rect x="184.85" y="36.49" width="1.81" height="1.81" id="fig-f023d85eb128440d9cf05a0cbcae3662-element-12" fill="#FF5EA0" class="color_0.4"/>
    </g>
    <g fill="#362A35" font-size="3.88" font-family="'PT Sans','Helvetica Neue','Helvetica',sans-serif" stroke="none" id="fig-f023d85eb128440d9cf05a0cbcae3662-element-13">
      <text x="184.85" y="26.32" id="fig-f023d85eb128440d9cf05a0cbcae3662-element-14">Julia ver.</text>
    </g>
  </g>
  <g font-size="3.88" font-family="'PT Sans','Helvetica Neue','Helvetica',sans-serif" fill="#564A55" stroke="none" id="fig-f023d85eb128440d9cf05a0cbcae3662-element-15">
    <text x="8.81" y="29.96" text-anchor="middle" dy="0.35em" transform="rotate(-90, 8.81, 31.96)" id="fig-f023d85eb128440d9cf05a0cbcae3662-element-16">Number of Tagged Packages</text>
  </g>
  <g clip-path="url(#fig-f023d85eb128440d9cf05a0cbcae3662-element-18)" id="fig-f023d85eb128440d9cf05a0cbcae3662-element-17">
    <g pointer-events="visible" opacity="1" fill="none" stroke="none" class="guide background" id="fig-f023d85eb128440d9cf05a0cbcae3662-element-19">
      <rect x="19.63" y="5" width="164.22" height="53.91" id="fig-f023d85eb128440d9cf05a0cbcae3662-element-20"/>
    </g>
    <g class="guide ygridlines xfixed" stroke-dasharray="0.5,0.5" stroke-width="0.2" stroke="#D0D0E0" id="fig-f023d85eb128440d9cf05a0cbcae3662-element-21">
      <path fill="none" d="M19.63,56.91 L 183.85 56.91" id="fig-f023d85eb128440d9cf05a0cbcae3662-element-22"/>
      <path fill="none" d="M19.63,44.44 L 183.85 44.44" id="fig-f023d85eb128440d9cf05a0cbcae3662-element-23"/>
      <path fill="none" d="M19.63,31.96 L 183.85 31.96" id="fig-f023d85eb128440d9cf05a0cbcae3662-element-24"/>
      <path fill="none" d="M19.63,19.48 L 183.85 19.48" id="fig-f023d85eb128440d9cf05a0cbcae3662-element-25"/>
      <path fill="none" d="M19.63,7 L 183.85 7" id="fig-f023d85eb128440d9cf05a0cbcae3662-element-26"/>
    </g>
    <g class="guide xgridlines yfixed" stroke-dasharray="0.5,0.5" stroke-width="0.2" stroke="#D0D0E0" id="fig-f023d85eb128440d9cf05a0cbcae3662-element-27">
      <path fill="none" d="M22.92,5 L 22.92 58.91" id="fig-f023d85eb128440d9cf05a0cbcae3662-element-28"/>
      <path fill="none" d="M47.55,5 L 47.55 58.91" id="fig-f023d85eb128440d9cf05a0cbcae3662-element-29"/>
      <path fill="none" d="M73,5 L 73 58.91" id="fig-f023d85eb128440d9cf05a0cbcae3662-element-30"/>
      <path fill="none" d="M97.64,5 L 97.64 58.91" id="fig-f023d85eb128440d9cf05a0cbcae3662-element-31"/>
      <path fill="none" d="M123.09,5 L 123.09 58.91" id="fig-f023d85eb128440d9cf05a0cbcae3662-element-32"/>
      <path fill="none" d="M148.55,5 L 148.55 58.91" id="fig-f023d85eb128440d9cf05a0cbcae3662-element-33"/>
      <path fill="none" d="M173.18,5 L 173.18 58.91" id="fig-f023d85eb128440d9cf05a0cbcae3662-element-34"/>
    </g>
    <g class="plotpanel" id="fig-f023d85eb128440d9cf05a0cbcae3662-element-35">
      <g stroke-width="0.79" fill="none" class="geometry color_0.4" stroke="#FF5EA0" id="fig-f023d85eb128440d9cf05a0cbcae3662-element-36">
        <path fill="none" d="M132.95,28.46 L 133.77 27.71 134.59 27.47 135.41 27.22 136.23 27.22 137.05 27.22 138.69 26.47 139.51 26.47 140.34 26.22 141.16 26.22 141.98 26.22 142.8 25.47 143.62 24.97 144.44 24.97 146.08 24.47 146.9 23.72 148.55 23.22 149.37 23.22 150.19 23.22 153.47 23.22 155.94 21.72 156.76 21.48 157.58 21.23 158.4 20.73 159.22 20.73 160.04 20.73 160.86 18.73 161.68 18.73 162.51 18.73 164.15 18.48 164.97 18.48 165.79 18.23 166.61 18.23 167.43 18.23 168.25 17.98 169.07 17.98 170.72 18.23 171.54 17.98 172.36 17.98 173.18 17.48 174 16.98 174.82 16.98 175.64 16.98 176.46 16.48 178.93 15.98 179.75 15.98 180.57 15.49 181.39 15.24" id="fig-f023d85eb128440d9cf05a0cbcae3662-element-37"/>
      </g>
      <g stroke-width="0.79" fill="none" class="geometry color_0.3" stroke="#D4CA3A" id="fig-f023d85eb128440d9cf05a0cbcae3662-element-38">
        <path fill="none" d="M21.27,45.43 L 22.1 45.43 22.92 45.18 23.74 45.18 24.56 45.18 25.38 45.18 26.2 45.18 27.02 44.94 28.66 44.94 29.49 44.69 31.13 44.44 32.77 43.94 33.59 43.94 35.23 43.94 36.05 43.69 41.8 42.69 44.27 42.69 45.91 42.69 51.66 42.44 52.48 41.94 53.3 41.69 54.12 41.69 54.94 41.69 55.76 41.69 56.58 41.69 57.4 41.69 58.22 41.69 59.05 41.69 59.87 41.69 60.69 40.94 62.33 40.69 63.15 40.69 63.97 40.69 64.79 40.19 65.61 40.19 66.44 40.19 67.26 39.94 68.08 39.94 68.9 39.94 69.72 39.94 70.54 39.94 71.36 39.69 72.18 39.69 73 49.68 73.83 39.44 74.65 39.2 75.47 38.95 80.39 37.45 81.22 37.2 82.04 36.95 82.86 36.7 83.68 36.2 84.5 36.2 85.32 35.7 86.14 35.7 86.96 35.45 87.78 35.2 89.43 35.2 90.25 34.7 91.07 34.7 91.89 34.7 92.71 34.7 93.53 34.7 94.35 33.95 95.17 33.95 96.82 33.7 97.64 33.21 98.46 32.96 99.28 32.71 100.1 32.71 100.92 32.21 102.56 31.96 103.39 31.21 104.21 31.21 105.03 31.21 106.67 29.96 108.31 29.21 109.13 29.21 109.95 28.96 110.78 28.96 113.24 28.71 114.06 28.71 114.88 28.46 115.7 28.46 116.52 28.46 117.34 28.21 118.17 27.96 118.99 27.71 120.63 27.71 121.45 27.71 123.09 27.71 123.91 27.47 124.73 26.72 125.56 26.72 127.2 26.47 128.02 26.47 128.84 25.97 129.66 25.72 130.48 25.47 131.3 25.22 132.12 24.97 132.95 24.47 133.77 24.47 134.59 24.22 135.41 23.97 136.23 23.97 137.05 23.97 138.69 23.22 139.51 23.22 140.34 22.97 141.16 22.97 141.98 22.97 142.8 22.22 143.62 21.97 144.44 21.72 146.08 24.72 146.9 23.97 148.55 23.47 149.37 23.47 150.19 23.47 153.47 23.47 155.94 21.97 156.76 21.72 157.58 21.48 158.4 20.98 159.22 20.98 160.04 20.98 160.86 18.98 161.68 18.98 162.51 18.98 164.15 18.98 164.97 18.73 165.79 18.48 166.61 18.48 167.43 18.48 168.25 18.23 169.07 18.23 170.72 18.48 171.54 18.23 172.36 18.23 173.18 17.73 174 12.74 174.82 17.23 175.64 17.23 176.46 16.73 178.93 16.23 179.75 16.23 180.57 15.74 181.39 15.49" id="fig-f023d85eb128440d9cf05a0cbcae3662-element-39"/>
      </g>
      <g stroke-width="0.79" fill="none" class="geometry color_0.2" stroke="#00BFFF" id="fig-f023d85eb128440d9cf05a0cbcae3662-element-40">
        <path fill="none" d="M21.27,48.18 L 22.1 48.18 22.92 47.93 23.74 47.93 24.56 47.93 25.38 47.93 26.2 47.93 27.02 47.93 28.66 47.93 29.49 47.93 31.13 47.68 32.77 47.43 33.59 47.43 35.23 47.18 36.05 46.93 41.8 46.43 44.27 46.43 45.91 46.43 51.66 46.18 52.48 45.93 53.3 45.93 54.12 45.93 54.94 45.93 55.76 45.93 56.58 45.93 57.4 45.93 58.22 45.93 59.05 45.93 59.87 45.18 60.69 45.18 62.33 44.94 63.15 44.94 63.97 44.94 64.79 44.69 65.61 46.68 66.44 45.43 67.26 45.43 68.08 45.43 68.9 45.43 69.72 45.43 70.54 45.43 71.36 45.43 72.18 45.43 73 45.18 73.83 45.18 74.65 44.94 75.47 44.94 80.39 43.69 81.22 43.69 82.04 43.44 82.86 43.19 83.68 42.69 84.5 42.69 85.32 42.69 86.14 42.69 86.96 42.69 87.78 42.44 89.43 42.44 90.25 41.94 91.07 41.94 91.89 41.94 92.71 41.94 93.53 41.94 94.35 41.19 95.17 41.19 96.82 40.94 97.64 40.44 98.46 40.19 99.28 39.94 100.1 39.94 100.92 39.94 102.56 39.44 103.39 39.2 104.21 38.95 105.03 38.95 106.67 38.45 108.31 37.95 109.13 37.95 109.95 37.95 110.78 37.95 113.24 37.95 114.06 37.95 114.88 37.7 115.7 37.7 116.52 37.7 117.34 37.45 118.17 37.45 118.99 37.45 120.63 37.2 121.45 37.2 123.09 37.2 123.91 37.2 124.73 36.45 125.56 36.45 127.2 36.95 128.02 36.95 128.84 36.45 129.66 36.2 130.48 36.2 131.3 35.7 132.12 35.7" id="fig-f023d85eb128440d9cf05a0cbcae3662-element-41"/>
      </g>
    </g>
  </g>
  <g class="guide ylabels" font-size="2.82" font-family="'PT Sans Caption','Helvetica Neue','Helvetica',sans-serif" fill="#6C606B" id="fig-f023d85eb128440d9cf05a0cbcae3662-element-42">
    <text x="18.63" y="56.91" text-anchor="end" dy="0.35em" id="fig-f023d85eb128440d9cf05a0cbcae3662-element-43">250</text>
    <text x="18.63" y="44.44" text-anchor="end" dy="0.35em" id="fig-f023d85eb128440d9cf05a0cbcae3662-element-44">300</text>
    <text x="18.63" y="31.96" text-anchor="end" dy="0.35em" id="fig-f023d85eb128440d9cf05a0cbcae3662-element-45">350</text>
    <text x="18.63" y="19.48" text-anchor="end" dy="0.35em" id="fig-f023d85eb128440d9cf05a0cbcae3662-element-46">400</text>
    <text x="18.63" y="7" text-anchor="end" dy="0.35em" id="fig-f023d85eb128440d9cf05a0cbcae3662-element-47">450</text>
  </g>
</g>
<defs>
<clipPath id="fig-f023d85eb128440d9cf05a0cbcae3662-element-18">
  <path d="M19.63,5 L 183.85 5 183.85 58.91 19.63 58.91" />
</clipPath
></defs>
</svg>
