<?xml version="1.0" encoding="UTF-8"?>
<svg xmlns="http://www.w3.org/2000/svg"
     xmlns:xlink="http://www.w3.org/1999/xlink"
     xmlns:gadfly="http://www.gadflyjl.org/ns"
     version="1.2"
     width="203.2mm" height="76.2mm" viewBox="0 0 203.2 76.2"
     stroke="none"
     fill="#000000"
     stroke-width="0.3"
     font-size="3.88"
>
<g class="plotroot xscalable yscalable" id="fig-1a6905b28d0041c99d41d17790935032-element-1">
  <g font-size="3.88" font-family="'PT Sans','Helvetica Neue','Helvetica',sans-serif" fill="#564A55" stroke="none" id="fig-1a6905b28d0041c99d41d17790935032-element-2">
    <text x="101.74" y="68.2" text-anchor="middle">Date</text>
  </g>
  <g class="guide xlabels" font-size="2.82" font-family="'PT Sans Caption','Helvetica Neue','Helvetica',sans-serif" fill="#6C606B" id="fig-1a6905b28d0041c99d41d17790935032-element-3">
    <text x="23.04" y="62.59" text-anchor="middle">Apr</text>
    <text x="43.48" y="62.59" text-anchor="middle">May</text>
    <text x="64.61" y="62.59" text-anchor="middle">June</text>
    <text x="85.05" y="62.59" text-anchor="middle">July</text>
    <text x="106.17" y="62.59" text-anchor="middle">Aug</text>
    <text x="127.3" y="62.59" text-anchor="middle">Sept</text>
    <text x="147.74" y="62.59" text-anchor="middle">Oct</text>
    <text x="168.86" y="62.59" text-anchor="middle">Nev</text>
  </g>
  <g class="guide colorkey" id="fig-1a6905b28d0041c99d41d17790935032-element-4">
    <g fill="#4C404B" font-size="2.82" font-family="'PT Sans','Helvetica Neue','Helvetica',sans-serif" id="fig-1a6905b28d0041c99d41d17790935032-element-5">
      <text x="187.67" y="30.14" dy="0.35em" id="fig-1a6905b28d0041c99d41d17790935032-element-6" class="color_0.2">0.2</text>
      <text x="187.67" y="33.77" dy="0.35em" id="fig-1a6905b28d0041c99d41d17790935032-element-7" class="color_0.3">0.3</text>
      <text x="187.67" y="37.4" dy="0.35em" id="fig-1a6905b28d0041c99d41d17790935032-element-8" class="color_0.4">0.4</text>
    </g>
    <g stroke="none" id="fig-1a6905b28d0041c99d41d17790935032-element-9">
      <rect x="184.85" y="29.24" width="1.81" height="1.81" id="fig-1a6905b28d0041c99d41d17790935032-element-10" fill="#00BFFF" class="color_0.2"/>
      <rect x="184.85" y="32.86" width="1.81" height="1.81" id="fig-1a6905b28d0041c99d41d17790935032-element-11" fill="#D4CA3A" class="color_0.3"/>
      <rect x="184.85" y="36.49" width="1.81" height="1.81" id="fig-1a6905b28d0041c99d41d17790935032-element-12" fill="#FF5EA0" class="color_0.4"/>
    </g>
    <g fill="#362A35" font-size="3.88" font-family="'PT Sans','Helvetica Neue','Helvetica',sans-serif" stroke="none" id="fig-1a6905b28d0041c99d41d17790935032-element-13">
      <text x="184.85" y="26.32" id="fig-1a6905b28d0041c99d41d17790935032-element-14">Julia ver.</text>
    </g>
  </g>
  <g font-size="3.88" font-family="'PT Sans','Helvetica Neue','Helvetica',sans-serif" fill="#564A55" stroke="none" id="fig-1a6905b28d0041c99d41d17790935032-element-15">
    <text x="8.81" y="29.96" text-anchor="middle" dy="0.35em" transform="rotate(-90, 8.81, 31.96)" id="fig-1a6905b28d0041c99d41d17790935032-element-16">Number of Tagged Packages</text>
  </g>
  <g clip-path="url(#fig-1a6905b28d0041c99d41d17790935032-element-18)" id="fig-1a6905b28d0041c99d41d17790935032-element-17">
    <g pointer-events="visible" opacity="1" fill="none" stroke="none" class="guide background" id="fig-1a6905b28d0041c99d41d17790935032-element-19">
      <rect x="19.63" y="5" width="164.22" height="53.91" id="fig-1a6905b28d0041c99d41d17790935032-element-20"/>
    </g>
    <g class="guide ygridlines xfixed" stroke-dasharray="0.5,0.5" stroke-width="0.2" stroke="#D0D0E0" id="fig-1a6905b28d0041c99d41d17790935032-element-21">
      <path fill="none" d="M19.63,56.91 L 183.85 56.91" id="fig-1a6905b28d0041c99d41d17790935032-element-22"/>
      <path fill="none" d="M19.63,44.44 L 183.85 44.44" id="fig-1a6905b28d0041c99d41d17790935032-element-23"/>
      <path fill="none" d="M19.63,31.96 L 183.85 31.96" id="fig-1a6905b28d0041c99d41d17790935032-element-24"/>
      <path fill="none" d="M19.63,19.48 L 183.85 19.48" id="fig-1a6905b28d0041c99d41d17790935032-element-25"/>
      <path fill="none" d="M19.63,7 L 183.85 7" id="fig-1a6905b28d0041c99d41d17790935032-element-26"/>
    </g>
    <g class="guide xgridlines yfixed" stroke-dasharray="0.5,0.5" stroke-width="0.2" stroke="#D0D0E0" id="fig-1a6905b28d0041c99d41d17790935032-element-27">
      <path fill="none" d="M23.04,5 L 23.04 58.91" id="fig-1a6905b28d0041c99d41d17790935032-element-28"/>
      <path fill="none" d="M43.48,5 L 43.48 58.91" id="fig-1a6905b28d0041c99d41d17790935032-element-29"/>
      <path fill="none" d="M64.61,5 L 64.61 58.91" id="fig-1a6905b28d0041c99d41d17790935032-element-30"/>
      <path fill="none" d="M85.05,5 L 85.05 58.91" id="fig-1a6905b28d0041c99d41d17790935032-element-31"/>
      <path fill="none" d="M106.17,5 L 106.17 58.91" id="fig-1a6905b28d0041c99d41d17790935032-element-32"/>
      <path fill="none" d="M127.3,5 L 127.3 58.91" id="fig-1a6905b28d0041c99d41d17790935032-element-33"/>
      <path fill="none" d="M147.74,5 L 147.74 58.91" id="fig-1a6905b28d0041c99d41d17790935032-element-34"/>
      <path fill="none" d="M168.86,5 L 168.86 58.91" id="fig-1a6905b28d0041c99d41d17790935032-element-35"/>
    </g>
    <g class="plotpanel" id="fig-1a6905b28d0041c99d41d17790935032-element-36">
      <g stroke-width="0.79" fill="none" class="geometry color_0.4" stroke="#FF5EA0" id="fig-1a6905b28d0041c99d41d17790935032-element-37">
        <path fill="none" d="M114.35,28.46 L 115.03 27.71 115.71 27.47 116.39 27.22 117.07 27.22 117.76 27.22 119.12 26.47 119.8 26.47 120.48 26.22 121.16 26.22 121.84 26.22 122.53 25.47 123.21 24.97 123.89 24.97 125.25 24.47 125.93 23.72 127.3 23.22 127.98 23.22 128.66 23.22 131.38 23.22 133.43 21.72 134.11 21.48 134.79 21.23 135.47 20.73 136.15 20.73 136.84 20.73 137.52 18.73 138.2 18.73 138.88 18.73 140.24 18.48 140.92 18.48 141.61 18.23 142.29 18.23 142.97 18.23 143.65 17.98 144.33 17.98 145.69 18.23 146.38 17.98 147.06 17.98 147.74 17.48 148.42 16.98 149.1 16.98 149.78 16.98 150.46 16.48 152.51 15.98 153.19 15.98 153.87 15.49 154.55 15.24 155.23 15.24 155.92 15.24 156.6 14.74 157.28 14.74 157.96 14.49 158.64 14.24 159.32 14.24 160 14.24 160.69 14.24 161.37 13.74 162.05 13.24 162.73 13.24 163.41 13.24 164.09 12.99 164.77 12.99 165.46 12.74 166.14 12.74 166.82 12.24 167.5 11.99 168.18 11.99 168.86 11.74 169.54 11.74 170.23 11.74 170.91 11.74 171.59 11.49 172.27 11.24 174.31 11.24 177.72 9.75 178.4 9.25 179.08 9.25 179.77 9 180.45 9 181.13 8.25 181.81 8.25" id="fig-1a6905b28d0041c99d41d17790935032-element-38"/>
      </g>
      <g stroke-width="0.79" fill="none" class="geometry color_0.3" stroke="#D4CA3A" id="fig-1a6905b28d0041c99d41d17790935032-element-39">
        <path fill="none" d="M21.68,45.43 L 22.36 45.43 23.04 45.18 23.72 45.18 24.4 45.18 25.08 45.18 25.76 45.18 26.45 44.94 27.81 44.94 28.49 44.69 29.85 44.44 31.22 43.94 31.9 43.94 33.26 43.94 33.94 43.69 38.71 42.69 40.76 42.69 42.12 42.69 46.89 42.44 47.57 41.94 48.25 41.69 48.93 41.69 49.61 41.69 50.3 41.69 50.98 41.69 51.66 41.69 52.34 41.69 53.02 41.69 53.7 41.69 54.38 40.94 55.75 40.69 56.43 40.69 57.11 40.69 57.79 40.19 58.47 40.19 59.15 40.19 59.84 39.94 60.52 39.94 61.2 39.94 61.88 39.94 62.56 39.94 63.24 39.69 63.92 39.69 64.61 49.68 65.29 39.44 65.97 39.2 66.65 38.95 70.74 37.45 71.42 37.2 72.1 36.95 72.78 36.7 73.46 36.2 74.15 36.2 74.83 35.7 75.51 35.7 76.19 35.45 76.87 35.2 78.23 35.2 78.92 34.7 79.6 34.7 80.28 34.7 80.96 34.7 81.64 34.7 82.32 33.95 83 33.95 84.37 33.7 85.05 33.21 85.73 32.96 86.41 32.71 87.09 32.71 87.77 32.21 89.14 31.96 89.82 31.21 90.5 31.21 91.18 31.21 92.54 29.96 93.91 29.21 94.59 29.21 95.27 28.96 95.95 28.96 98 28.71 98.68 28.71 99.36 28.46 100.04 28.46 100.72 28.46 101.4 28.21 102.08 27.96 102.77 27.71 104.13 27.71 104.81 27.71 106.17 27.71 106.85 27.47 107.53 26.72 108.22 26.72 109.58 26.47 110.26 26.47 110.94 25.97 111.62 25.72 112.3 25.47 112.99 25.22 113.67 24.97 114.35 24.47 115.03 24.47 115.71 24.22 116.39 23.97 117.07 23.97 117.76 23.97 119.12 23.22 119.8 23.22 120.48 22.97 121.16 22.97 121.84 22.97 122.53 22.22 123.21 21.97 123.89 21.72 125.25 24.72 125.93 23.97 127.3 23.47 127.98 23.47 128.66 23.47 131.38 23.47 133.43 21.97 134.11 21.72 134.79 21.48 135.47 20.98 136.15 20.98 136.84 20.98 137.52 18.98 138.2 18.98 138.88 18.98 140.24 18.98 140.92 18.73 141.61 18.48 142.29 18.48 142.97 18.48 143.65 18.23 144.33 18.23 145.69 18.48 146.38 18.23 147.06 18.23 147.74 17.73 148.42 12.74 149.1 17.23 149.78 17.23 150.46 16.73 152.51 16.23 153.19 16.23 153.87 15.74 154.55 15.49 155.23 15.49 155.92 15.49 156.6 14.99 157.28 14.99 157.96 14.74 158.64 14.49 159.32 14.49 160 14.49 160.69 14.49 161.37 14.24 162.05 13.74 162.73 13.74 163.41 13.74 164.09 13.49 164.77 13.49 165.46 13.24 166.14 13.24 166.82 12.74 167.5 12.49 168.18 12.49 168.86 12.24 169.54 12.24 170.23 12.24 170.91 11.99 171.59 11.99 172.27 11.74 174.31 11.74 177.72 10.49 178.4 9.99 179.08 9.99 179.77 9.75 180.45 9.75 181.13 9 181.81 9" id="fig-1a6905b28d0041c99d41d17790935032-element-40"/>
      </g>
      <g stroke-width="0.79" fill="none" class="geometry color_0.2" stroke="#00BFFF" id="fig-1a6905b28d0041c99d41d17790935032-element-41">
        <path fill="none" d="M21.68,48.18 L 22.36 48.18 23.04 47.93 23.72 47.93 24.4 47.93 25.08 47.93 25.76 47.93 26.45 47.93 27.81 47.93 28.49 47.93 29.85 47.68 31.22 47.43 31.9 47.43 33.26 47.18 33.94 46.93 38.71 46.43 40.76 46.43 42.12 46.43 46.89 46.18 47.57 45.93 48.25 45.93 48.93 45.93 49.61 45.93 50.3 45.93 50.98 45.93 51.66 45.93 52.34 45.93 53.02 45.93 53.7 45.18 54.38 45.18 55.75 44.94 56.43 44.94 57.11 44.94 57.79 44.69 58.47 46.68 59.15 45.43 59.84 45.43 60.52 45.43 61.2 45.43 61.88 45.43 62.56 45.43 63.24 45.43 63.92 45.43 64.61 45.18 65.29 45.18 65.97 44.94 66.65 44.94 70.74 43.69 71.42 43.69 72.1 43.44 72.78 43.19 73.46 42.69 74.15 42.69 74.83 42.69 75.51 42.69 76.19 42.69 76.87 42.44 78.23 42.44 78.92 41.94 79.6 41.94 80.28 41.94 80.96 41.94 81.64 41.94 82.32 41.19 83 41.19 84.37 40.94 85.05 40.44 85.73 40.19 86.41 39.94 87.09 39.94 87.77 39.94 89.14 39.44 89.82 39.2 90.5 38.95 91.18 38.95 92.54 38.45 93.91 37.95 94.59 37.95 95.27 37.95 95.95 37.95 98 37.95 98.68 37.95 99.36 37.7 100.04 37.7 100.72 37.7 101.4 37.45 102.08 37.45 102.77 37.45 104.13 37.2 104.81 37.2 106.17 37.2 106.85 37.2 107.53 36.45 108.22 36.45 109.58 36.95 110.26 36.95 110.94 36.45 111.62 36.2 112.3 36.2 112.99 35.7 113.67 35.7" id="fig-1a6905b28d0041c99d41d17790935032-element-42"/>
      </g>
    </g>
  </g>
  <g class="guide ylabels" font-size="2.82" font-family="'PT Sans Caption','Helvetica Neue','Helvetica',sans-serif" fill="#6C606B" id="fig-1a6905b28d0041c99d41d17790935032-element-43">
    <text x="18.63" y="56.91" text-anchor="end" dy="0.35em" id="fig-1a6905b28d0041c99d41d17790935032-element-44">250</text>
    <text x="18.63" y="44.44" text-anchor="end" dy="0.35em" id="fig-1a6905b28d0041c99d41d17790935032-element-45">300</text>
    <text x="18.63" y="31.96" text-anchor="end" dy="0.35em" id="fig-1a6905b28d0041c99d41d17790935032-element-46">350</text>
    <text x="18.63" y="19.48" text-anchor="end" dy="0.35em" id="fig-1a6905b28d0041c99d41d17790935032-element-47">400</text>
    <text x="18.63" y="7" text-anchor="end" dy="0.35em" id="fig-1a6905b28d0041c99d41d17790935032-element-48">450</text>
  </g>
</g>
<defs>
<clipPath id="fig-1a6905b28d0041c99d41d17790935032-element-18">
  <path d="M19.63,5 L 183.85 5 183.85 58.91 19.63 58.91" />
</clipPath
></defs>
</svg>
