<?xml version="1.0" encoding="UTF-8"?>
<svg xmlns="http://www.w3.org/2000/svg"
     xmlns:xlink="http://www.w3.org/1999/xlink"
     xmlns:gadfly="http://www.gadflyjl.org/ns"
     version="1.2"
     width="203.2mm" height="76.2mm" viewBox="0 0 203.2 76.2"
     stroke="none"
     fill="#000000"
     stroke-width="0.3"
     font-size="3.88"
>
<g class="plotroot xscalable yscalable" id="fig-8fe59e73b75242eab1da80365847e2ee-element-1">
  <g font-size="3.88" font-family="'PT Sans','Helvetica Neue','Helvetica',sans-serif" fill="#564A55" stroke="none" id="fig-8fe59e73b75242eab1da80365847e2ee-element-2">
    <text x="101.74" y="68.2" text-anchor="middle">Date</text>
  </g>
  <g class="guide xlabels" font-size="2.82" font-family="'PT Sans Caption','Helvetica Neue','Helvetica',sans-serif" fill="#6C606B" id="fig-8fe59e73b75242eab1da80365847e2ee-element-3">
    <text x="23.47" y="62.59" text-anchor="middle">Apr</text>
    <text x="46.49" y="62.59" text-anchor="middle">May</text>
    <text x="70.28" y="62.59" text-anchor="middle">June</text>
    <text x="93.3" y="62.59" text-anchor="middle">July</text>
    <text x="117.09" y="62.59" text-anchor="middle">Aug</text>
    <text x="140.88" y="62.59" text-anchor="middle">Sept</text>
    <text x="163.9" y="62.59" text-anchor="middle">Oct</text>
  </g>
  <g class="guide colorkey" id="fig-8fe59e73b75242eab1da80365847e2ee-element-4">
    <g fill="#4C404B" font-size="2.82" font-family="'PT Sans','Helvetica Neue','Helvetica',sans-serif" id="fig-8fe59e73b75242eab1da80365847e2ee-element-5">
      <text x="187.67" y="30.14" dy="0.35em" id="fig-8fe59e73b75242eab1da80365847e2ee-element-6" class="color_0.2">0.2</text>
      <text x="187.67" y="33.77" dy="0.35em" id="fig-8fe59e73b75242eab1da80365847e2ee-element-7" class="color_0.3">0.3</text>
      <text x="187.67" y="37.4" dy="0.35em" id="fig-8fe59e73b75242eab1da80365847e2ee-element-8" class="color_0.4">0.4</text>
    </g>
    <g stroke="none" id="fig-8fe59e73b75242eab1da80365847e2ee-element-9">
      <rect x="184.85" y="29.24" width="1.81" height="1.81" id="fig-8fe59e73b75242eab1da80365847e2ee-element-10" fill="#00BFFF" class="color_0.2"/>
      <rect x="184.85" y="32.86" width="1.81" height="1.81" id="fig-8fe59e73b75242eab1da80365847e2ee-element-11" fill="#D4CA3A" class="color_0.3"/>
      <rect x="184.85" y="36.49" width="1.81" height="1.81" id="fig-8fe59e73b75242eab1da80365847e2ee-element-12" fill="#FF5EA0" class="color_0.4"/>
    </g>
    <g fill="#362A35" font-size="3.88" font-family="'PT Sans','Helvetica Neue','Helvetica',sans-serif" stroke="none" id="fig-8fe59e73b75242eab1da80365847e2ee-element-13">
      <text x="184.85" y="26.32" id="fig-8fe59e73b75242eab1da80365847e2ee-element-14">Julia ver.</text>
    </g>
  </g>
  <g font-size="3.88" font-family="'PT Sans','Helvetica Neue','Helvetica',sans-serif" fill="#564A55" stroke="none" id="fig-8fe59e73b75242eab1da80365847e2ee-element-15">
    <text x="8.81" y="29.96" text-anchor="middle" dy="0.35em" transform="rotate(-90, 8.81, 31.96)" id="fig-8fe59e73b75242eab1da80365847e2ee-element-16">Number of Tagged Packages</text>
  </g>
  <g clip-path="url(#fig-8fe59e73b75242eab1da80365847e2ee-element-18)" id="fig-8fe59e73b75242eab1da80365847e2ee-element-17">
    <g pointer-events="visible" opacity="1" fill="none" stroke="none" class="guide background" id="fig-8fe59e73b75242eab1da80365847e2ee-element-19">
      <rect x="19.63" y="5" width="164.22" height="53.91" id="fig-8fe59e73b75242eab1da80365847e2ee-element-20"/>
    </g>
    <g class="guide ygridlines xfixed" stroke-dasharray="0.5,0.5" stroke-width="0.2" stroke="#D0D0E0" id="fig-8fe59e73b75242eab1da80365847e2ee-element-21">
      <path fill="none" d="M19.63,56.91 L 183.85 56.91" id="fig-8fe59e73b75242eab1da80365847e2ee-element-22"/>
      <path fill="none" d="M19.63,44.44 L 183.85 44.44" id="fig-8fe59e73b75242eab1da80365847e2ee-element-23"/>
      <path fill="none" d="M19.63,31.96 L 183.85 31.96" id="fig-8fe59e73b75242eab1da80365847e2ee-element-24"/>
      <path fill="none" d="M19.63,19.48 L 183.85 19.48" id="fig-8fe59e73b75242eab1da80365847e2ee-element-25"/>
      <path fill="none" d="M19.63,7 L 183.85 7" id="fig-8fe59e73b75242eab1da80365847e2ee-element-26"/>
    </g>
    <g class="guide xgridlines yfixed" stroke-dasharray="0.5,0.5" stroke-width="0.2" stroke="#D0D0E0" id="fig-8fe59e73b75242eab1da80365847e2ee-element-27">
      <path fill="none" d="M23.47,5 L 23.47 58.91" id="fig-8fe59e73b75242eab1da80365847e2ee-element-28"/>
      <path fill="none" d="M46.49,5 L 46.49 58.91" id="fig-8fe59e73b75242eab1da80365847e2ee-element-29"/>
      <path fill="none" d="M70.28,5 L 70.28 58.91" id="fig-8fe59e73b75242eab1da80365847e2ee-element-30"/>
      <path fill="none" d="M93.3,5 L 93.3 58.91" id="fig-8fe59e73b75242eab1da80365847e2ee-element-31"/>
      <path fill="none" d="M117.09,5 L 117.09 58.91" id="fig-8fe59e73b75242eab1da80365847e2ee-element-32"/>
      <path fill="none" d="M140.88,5 L 140.88 58.91" id="fig-8fe59e73b75242eab1da80365847e2ee-element-33"/>
      <path fill="none" d="M163.9,5 L 163.9 58.91" id="fig-8fe59e73b75242eab1da80365847e2ee-element-34"/>
    </g>
    <g class="plotpanel" id="fig-8fe59e73b75242eab1da80365847e2ee-element-35">
      <g stroke-width="0.79" fill="none" class="geometry color_0.4" stroke="#FF5EA0" id="fig-8fe59e73b75242eab1da80365847e2ee-element-36">
        <path fill="none" d="M126.3,28.46 L 127.07 27.71 127.83 27.47 128.6 27.22 129.37 27.22 130.14 27.22 131.67 26.47 132.44 26.47 133.21 26.22 133.97 26.22 134.74 26.22 135.51 25.47 136.28 24.97 137.04 24.97 138.58 24.47 139.35 23.72 140.88 23.22 141.65 23.22 142.41 23.22 145.48 23.22 147.79 21.72 148.55 21.48 149.32 21.23 150.09 20.73 150.86 20.73 151.62 20.73 152.39 18.73 153.16 18.73 153.93 18.73 155.46 18.48 156.23 18.48 157 18.23 157.76 18.23 158.53 18.23 159.3 17.98 160.06 17.98 161.6 18.23 162.37 17.98 163.13 17.98 163.9 17.48 164.67 16.98 165.44 16.98 166.2 16.98 166.97 16.48 169.27 15.98 170.04 15.98 170.81 15.49 171.58 15.24 172.34 15.24 173.11 15.24 173.88 14.74 174.65 14.74 175.41 14.49 176.18 14.24 176.95 14.24 177.72 14.24 178.48 14.24 179.25 13.74 180.02 13.24 180.78 13.24 181.55 13.24 182.32 12.99" id="fig-8fe59e73b75242eab1da80365847e2ee-element-37"/>
      </g>
      <g stroke-width="0.79" fill="none" class="geometry color_0.3" stroke="#D4CA3A" id="fig-8fe59e73b75242eab1da80365847e2ee-element-38">
        <path fill="none" d="M21.93,45.43 L 22.7 45.43 23.47 45.18 24.24 45.18 25 45.18 25.77 45.18 26.54 45.18 27.31 44.94 28.84 44.94 29.61 44.69 31.14 44.44 32.68 43.94 33.44 43.94 34.98 43.94 35.75 43.69 41.12 42.69 43.42 42.69 44.96 42.69 50.33 42.44 51.09 41.94 51.86 41.69 52.63 41.69 53.4 41.69 54.16 41.69 54.93 41.69 55.7 41.69 56.47 41.69 57.23 41.69 58 41.69 58.77 40.94 60.3 40.69 61.07 40.69 61.84 40.69 62.61 40.19 63.37 40.19 64.14 40.19 64.91 39.94 65.68 39.94 66.44 39.94 67.21 39.94 67.98 39.94 68.74 39.69 69.51 39.69 70.28 49.68 71.05 39.44 71.81 39.2 72.58 38.95 77.19 37.45 77.95 37.2 78.72 36.95 79.49 36.7 80.26 36.2 81.02 36.2 81.79 35.7 82.56 35.7 83.33 35.45 84.09 35.2 85.63 35.2 86.4 34.7 87.16 34.7 87.93 34.7 88.7 34.7 89.46 34.7 90.23 33.95 91 33.95 92.53 33.7 93.3 33.21 94.07 32.96 94.84 32.71 95.6 32.71 96.37 32.21 97.91 31.96 98.67 31.21 99.44 31.21 100.21 31.21 101.74 29.96 103.28 29.21 104.05 29.21 104.81 28.96 105.58 28.96 107.88 28.71 108.65 28.71 109.42 28.46 110.18 28.46 110.95 28.46 111.72 28.21 112.49 27.96 113.25 27.71 114.79 27.71 115.56 27.71 117.09 27.71 117.86 27.47 118.63 26.72 119.39 26.72 120.93 26.47 121.7 26.47 122.46 25.97 123.23 25.72 124 25.47 124.76 25.22 125.53 24.97 126.3 24.47 127.07 24.47 127.83 24.22 128.6 23.97 129.37 23.97 130.14 23.97 131.67 23.22 132.44 23.22 133.21 22.97 133.97 22.97 134.74 22.97 135.51 22.22 136.28 21.97 137.04 21.72 138.58 24.72 139.35 23.97 140.88 23.47 141.65 23.47 142.41 23.47 145.48 23.47 147.79 21.97 148.55 21.72 149.32 21.48 150.09 20.98 150.86 20.98 151.62 20.98 152.39 18.98 153.16 18.98 153.93 18.98 155.46 18.98 156.23 18.73 157 18.48 157.76 18.48 158.53 18.48 159.3 18.23 160.06 18.23 161.6 18.48 162.37 18.23 163.13 18.23 163.9 17.73 164.67 12.74 165.44 17.23 166.2 17.23 166.97 16.73 169.27 16.23 170.04 16.23 170.81 15.74 171.58 15.49 172.34 15.49 173.11 15.49 173.88 14.99 174.65 14.99 175.41 14.74 176.18 14.49 176.95 14.49 177.72 14.49 178.48 14.49 179.25 14.24 180.02 13.74 180.78 13.74 181.55 13.74 182.32 13.49" id="fig-8fe59e73b75242eab1da80365847e2ee-element-39"/>
      </g>
      <g stroke-width="0.79" fill="none" class="geometry color_0.2" stroke="#00BFFF" id="fig-8fe59e73b75242eab1da80365847e2ee-element-40">
        <path fill="none" d="M21.93,48.18 L 22.7 48.18 23.47 47.93 24.24 47.93 25 47.93 25.77 47.93 26.54 47.93 27.31 47.93 28.84 47.93 29.61 47.93 31.14 47.68 32.68 47.43 33.44 47.43 34.98 47.18 35.75 46.93 41.12 46.43 43.42 46.43 44.96 46.43 50.33 46.18 51.09 45.93 51.86 45.93 52.63 45.93 53.4 45.93 54.16 45.93 54.93 45.93 55.7 45.93 56.47 45.93 57.23 45.93 58 45.18 58.77 45.18 60.3 44.94 61.07 44.94 61.84 44.94 62.61 44.69 63.37 46.68 64.14 45.43 64.91 45.43 65.68 45.43 66.44 45.43 67.21 45.43 67.98 45.43 68.74 45.43 69.51 45.43 70.28 45.18 71.05 45.18 71.81 44.94 72.58 44.94 77.19 43.69 77.95 43.69 78.72 43.44 79.49 43.19 80.26 42.69 81.02 42.69 81.79 42.69 82.56 42.69 83.33 42.69 84.09 42.44 85.63 42.44 86.4 41.94 87.16 41.94 87.93 41.94 88.7 41.94 89.46 41.94 90.23 41.19 91 41.19 92.53 40.94 93.3 40.44 94.07 40.19 94.84 39.94 95.6 39.94 96.37 39.94 97.91 39.44 98.67 39.2 99.44 38.95 100.21 38.95 101.74 38.45 103.28 37.95 104.05 37.95 104.81 37.95 105.58 37.95 107.88 37.95 108.65 37.95 109.42 37.7 110.18 37.7 110.95 37.7 111.72 37.45 112.49 37.45 113.25 37.45 114.79 37.2 115.56 37.2 117.09 37.2 117.86 37.2 118.63 36.45 119.39 36.45 120.93 36.95 121.7 36.95 122.46 36.45 123.23 36.2 124 36.2 124.76 35.7 125.53 35.7" id="fig-8fe59e73b75242eab1da80365847e2ee-element-41"/>
      </g>
    </g>
  </g>
  <g class="guide ylabels" font-size="2.82" font-family="'PT Sans Caption','Helvetica Neue','Helvetica',sans-serif" fill="#6C606B" id="fig-8fe59e73b75242eab1da80365847e2ee-element-42">
    <text x="18.63" y="56.91" text-anchor="end" dy="0.35em" id="fig-8fe59e73b75242eab1da80365847e2ee-element-43">250</text>
    <text x="18.63" y="44.44" text-anchor="end" dy="0.35em" id="fig-8fe59e73b75242eab1da80365847e2ee-element-44">300</text>
    <text x="18.63" y="31.96" text-anchor="end" dy="0.35em" id="fig-8fe59e73b75242eab1da80365847e2ee-element-45">350</text>
    <text x="18.63" y="19.48" text-anchor="end" dy="0.35em" id="fig-8fe59e73b75242eab1da80365847e2ee-element-46">400</text>
    <text x="18.63" y="7" text-anchor="end" dy="0.35em" id="fig-8fe59e73b75242eab1da80365847e2ee-element-47">450</text>
  </g>
</g>
<defs>
<clipPath id="fig-8fe59e73b75242eab1da80365847e2ee-element-18">
  <path d="M19.63,5 L 183.85 5 183.85 58.91 19.63 58.91" />
</clipPath
></defs>
</svg>
