<?xml version="1.0" encoding="UTF-8"?>
<svg xmlns="http://www.w3.org/2000/svg"
     xmlns:xlink="http://www.w3.org/1999/xlink"
     xmlns:gadfly="http://www.gadflyjl.org/ns"
     version="1.2"
     width="203.2mm" height="76.2mm" viewBox="0 0 203.2 76.2"
     stroke="none"
     fill="#000000"
     stroke-width="0.3"
     font-size="3.88"
>
<g class="plotroot xscalable yscalable" id="fig-a0f9dc7a9e0549cc85d588dcf1ea847e-element-1">
  <g font-size="3.88" font-family="'PT Sans','Helvetica Neue','Helvetica',sans-serif" fill="#564A55" stroke="none" id="fig-a0f9dc7a9e0549cc85d588dcf1ea847e-element-2">
    <text x="101.74" y="68.2" text-anchor="middle">Date</text>
  </g>
  <g class="guide xlabels" font-size="2.82" font-family="'PT Sans Caption','Helvetica Neue','Helvetica',sans-serif" fill="#6C606B" id="fig-a0f9dc7a9e0549cc85d588dcf1ea847e-element-3">
    <text x="23.3" y="62.59" text-anchor="middle">Apr</text>
    <text x="45.29" y="62.59" text-anchor="middle">May</text>
    <text x="68.02" y="62.59" text-anchor="middle">June</text>
    <text x="90.01" y="62.59" text-anchor="middle">July</text>
    <text x="112.74" y="62.59" text-anchor="middle">Aug</text>
    <text x="135.47" y="62.59" text-anchor="middle">Sept</text>
    <text x="157.46" y="62.59" text-anchor="middle">Oct</text>
    <text x="180.19" y="62.59" text-anchor="middle">Nev</text>
  </g>
  <g class="guide colorkey" id="fig-a0f9dc7a9e0549cc85d588dcf1ea847e-element-4">
    <g fill="#4C404B" font-size="2.82" font-family="'PT Sans','Helvetica Neue','Helvetica',sans-serif" id="fig-a0f9dc7a9e0549cc85d588dcf1ea847e-element-5">
      <text x="187.67" y="30.14" dy="0.35em" id="fig-a0f9dc7a9e0549cc85d588dcf1ea847e-element-6" class="color_0.2">0.2</text>
      <text x="187.67" y="33.77" dy="0.35em" id="fig-a0f9dc7a9e0549cc85d588dcf1ea847e-element-7" class="color_0.3">0.3</text>
      <text x="187.67" y="37.4" dy="0.35em" id="fig-a0f9dc7a9e0549cc85d588dcf1ea847e-element-8" class="color_0.4">0.4</text>
    </g>
    <g stroke="none" id="fig-a0f9dc7a9e0549cc85d588dcf1ea847e-element-9">
      <rect x="184.85" y="29.24" width="1.81" height="1.81" id="fig-a0f9dc7a9e0549cc85d588dcf1ea847e-element-10" class="color_0.2" fill="#00BFFF"/>
      <rect x="184.85" y="32.86" width="1.81" height="1.81" id="fig-a0f9dc7a9e0549cc85d588dcf1ea847e-element-11" class="color_0.3" fill="#D4CA3A"/>
      <rect x="184.85" y="36.49" width="1.81" height="1.81" id="fig-a0f9dc7a9e0549cc85d588dcf1ea847e-element-12" class="color_0.4" fill="#FF5EA0"/>
    </g>
    <g fill="#362A35" font-size="3.88" font-family="'PT Sans','Helvetica Neue','Helvetica',sans-serif" stroke="none" id="fig-a0f9dc7a9e0549cc85d588dcf1ea847e-element-13">
      <text x="184.85" y="26.32" id="fig-a0f9dc7a9e0549cc85d588dcf1ea847e-element-14">Julia ver.</text>
    </g>
  </g>
  <g font-size="3.88" font-family="'PT Sans','Helvetica Neue','Helvetica',sans-serif" fill="#564A55" stroke="none" id="fig-a0f9dc7a9e0549cc85d588dcf1ea847e-element-15">
    <text x="8.81" y="29.96" text-anchor="middle" dy="0.35em" transform="rotate(-90, 8.81, 31.96)" id="fig-a0f9dc7a9e0549cc85d588dcf1ea847e-element-16">Number of Tagged Packages</text>
  </g>
  <g clip-path="url(#fig-a0f9dc7a9e0549cc85d588dcf1ea847e-element-18)" id="fig-a0f9dc7a9e0549cc85d588dcf1ea847e-element-17">
    <g pointer-events="visible" opacity="1" fill="none" stroke="none" class="guide background" id="fig-a0f9dc7a9e0549cc85d588dcf1ea847e-element-19">
      <rect x="19.63" y="5" width="164.22" height="53.91" id="fig-a0f9dc7a9e0549cc85d588dcf1ea847e-element-20"/>
    </g>
    <g class="guide ygridlines xfixed" stroke-dasharray="0.5,0.5" stroke-width="0.2" stroke="#D0D0E0" id="fig-a0f9dc7a9e0549cc85d588dcf1ea847e-element-21">
      <path fill="none" d="M19.63,56.91 L 183.85 56.91" id="fig-a0f9dc7a9e0549cc85d588dcf1ea847e-element-22"/>
      <path fill="none" d="M19.63,44.44 L 183.85 44.44" id="fig-a0f9dc7a9e0549cc85d588dcf1ea847e-element-23"/>
      <path fill="none" d="M19.63,31.96 L 183.85 31.96" id="fig-a0f9dc7a9e0549cc85d588dcf1ea847e-element-24"/>
      <path fill="none" d="M19.63,19.48 L 183.85 19.48" id="fig-a0f9dc7a9e0549cc85d588dcf1ea847e-element-25"/>
      <path fill="none" d="M19.63,7 L 183.85 7" id="fig-a0f9dc7a9e0549cc85d588dcf1ea847e-element-26"/>
    </g>
    <g class="guide xgridlines yfixed" stroke-dasharray="0.5,0.5" stroke-width="0.2" stroke="#D0D0E0" id="fig-a0f9dc7a9e0549cc85d588dcf1ea847e-element-27">
      <path fill="none" d="M23.3,5 L 23.3 58.91" id="fig-a0f9dc7a9e0549cc85d588dcf1ea847e-element-28"/>
      <path fill="none" d="M45.29,5 L 45.29 58.91" id="fig-a0f9dc7a9e0549cc85d588dcf1ea847e-element-29"/>
      <path fill="none" d="M68.02,5 L 68.02 58.91" id="fig-a0f9dc7a9e0549cc85d588dcf1ea847e-element-30"/>
      <path fill="none" d="M90.01,5 L 90.01 58.91" id="fig-a0f9dc7a9e0549cc85d588dcf1ea847e-element-31"/>
      <path fill="none" d="M112.74,5 L 112.74 58.91" id="fig-a0f9dc7a9e0549cc85d588dcf1ea847e-element-32"/>
      <path fill="none" d="M135.47,5 L 135.47 58.91" id="fig-a0f9dc7a9e0549cc85d588dcf1ea847e-element-33"/>
      <path fill="none" d="M157.46,5 L 157.46 58.91" id="fig-a0f9dc7a9e0549cc85d588dcf1ea847e-element-34"/>
      <path fill="none" d="M180.19,5 L 180.19 58.91" id="fig-a0f9dc7a9e0549cc85d588dcf1ea847e-element-35"/>
    </g>
    <g class="plotpanel" id="fig-a0f9dc7a9e0549cc85d588dcf1ea847e-element-36">
      <g stroke-width="0.79" fill="none" class="geometry color_0.4" stroke="#FF5EA0" id="fig-a0f9dc7a9e0549cc85d588dcf1ea847e-element-37">
        <path fill="none" d="M121.54,28.46 L 122.27 27.71 123 27.47 123.74 27.22 124.47 27.22 125.2 27.22 126.67 26.47 127.4 26.47 128.14 26.22 128.87 26.22 129.6 26.22 130.34 25.47 131.07 24.97 131.8 24.97 133.27 24.47 134 23.72 135.47 23.22 136.2 23.22 136.93 23.22 139.87 23.22 142.07 21.72 142.8 21.48 143.53 21.23 144.26 20.73 145 20.73 145.73 20.73 146.46 18.73 147.2 18.73 147.93 18.73 149.4 18.48 150.13 18.48 150.86 18.23 151.6 18.23 152.33 18.23 153.06 17.98 153.8 17.98 155.26 18.23 155.99 17.98 156.73 17.98 157.46 17.48 158.19 16.98 158.93 16.98 159.66 16.98 160.39 16.48 162.59 15.98 163.33 15.98 164.06 15.49 164.79 15.24 165.53 15.24 166.26 15.24 166.99 14.74 167.73 14.74 168.46 14.49 169.19 14.24 169.92 14.24 170.66 14.24 171.39 14.24 172.12 13.74 172.86 13.24 173.59 13.24 174.32 13.24 175.06 12.99 175.79 12.99 176.52 12.74 177.26 12.74 177.99 12.24 178.72 11.99 179.46 11.99 180.19 11.74 180.92 11.74 181.65 11.74 182.39 11.74" id="fig-a0f9dc7a9e0549cc85d588dcf1ea847e-element-38"/>
      </g>
      <g stroke-width="0.79" fill="none" class="geometry color_0.3" stroke="#D4CA3A" id="fig-a0f9dc7a9e0549cc85d588dcf1ea847e-element-39">
        <path fill="none" d="M21.83,45.43 L 22.56 45.43 23.3 45.18 24.03 45.18 24.76 45.18 25.5 45.18 26.23 45.18 26.96 44.94 28.43 44.94 29.16 44.69 30.63 44.44 32.09 43.94 32.83 43.94 34.29 43.94 35.03 43.69 40.16 42.69 42.36 42.69 43.83 42.69 48.96 42.44 49.69 41.94 50.42 41.69 51.16 41.69 51.89 41.69 52.62 41.69 53.36 41.69 54.09 41.69 54.82 41.69 55.56 41.69 56.29 41.69 57.02 40.94 58.49 40.69 59.22 40.69 59.95 40.69 60.69 40.19 61.42 40.19 62.15 40.19 62.89 39.94 63.62 39.94 64.35 39.94 65.09 39.94 65.82 39.94 66.55 39.69 67.29 39.69 68.02 49.68 68.75 39.44 69.48 39.2 70.22 38.95 74.62 37.45 75.35 37.2 76.08 36.95 76.82 36.7 77.55 36.2 78.28 36.2 79.02 35.7 79.75 35.7 80.48 35.45 81.22 35.2 82.68 35.2 83.41 34.7 84.15 34.7 84.88 34.7 85.61 34.7 86.35 34.7 87.08 33.95 87.81 33.95 89.28 33.7 90.01 33.21 90.75 32.96 91.48 32.71 92.21 32.71 92.95 32.21 94.41 31.96 95.14 31.21 95.88 31.21 96.61 31.21 98.08 29.96 99.54 29.21 100.28 29.21 101.01 28.96 101.74 28.96 103.94 28.71 104.68 28.71 105.41 28.46 106.14 28.46 106.87 28.46 107.61 28.21 108.34 27.96 109.07 27.71 110.54 27.71 111.27 27.71 112.74 27.71 113.47 27.47 114.21 26.72 114.94 26.72 116.41 26.47 117.14 26.47 117.87 25.97 118.61 25.72 119.34 25.47 120.07 25.22 120.8 24.97 121.54 24.47 122.27 24.47 123 24.22 123.74 23.97 124.47 23.97 125.2 23.97 126.67 23.22 127.4 23.22 128.14 22.97 128.87 22.97 129.6 22.97 130.34 22.22 131.07 21.97 131.8 21.72 133.27 24.72 134 23.97 135.47 23.47 136.2 23.47 136.93 23.47 139.87 23.47 142.07 21.97 142.8 21.72 143.53 21.48 144.26 20.98 145 20.98 145.73 20.98 146.46 18.98 147.2 18.98 147.93 18.98 149.4 18.98 150.13 18.73 150.86 18.48 151.6 18.48 152.33 18.48 153.06 18.23 153.8 18.23 155.26 18.48 155.99 18.23 156.73 18.23 157.46 17.73 158.19 12.74 158.93 17.23 159.66 17.23 160.39 16.73 162.59 16.23 163.33 16.23 164.06 15.74 164.79 15.49 165.53 15.49 166.26 15.49 166.99 14.99 167.73 14.99 168.46 14.74 169.19 14.49 169.92 14.49 170.66 14.49 171.39 14.49 172.12 14.24 172.86 13.74 173.59 13.74 174.32 13.74 175.06 13.49 175.79 13.49 176.52 13.24 177.26 13.24 177.99 12.74 178.72 12.49 179.46 12.49 180.19 12.24 180.92 12.24 181.65 12.24 182.39 11.99" id="fig-a0f9dc7a9e0549cc85d588dcf1ea847e-element-40"/>
      </g>
      <g stroke-width="0.79" fill="none" class="geometry color_0.2" stroke="#00BFFF" id="fig-a0f9dc7a9e0549cc85d588dcf1ea847e-element-41">
        <path fill="none" d="M21.83,48.18 L 22.56 48.18 23.3 47.93 24.03 47.93 24.76 47.93 25.5 47.93 26.23 47.93 26.96 47.93 28.43 47.93 29.16 47.93 30.63 47.68 32.09 47.43 32.83 47.43 34.29 47.18 35.03 46.93 40.16 46.43 42.36 46.43 43.83 46.43 48.96 46.18 49.69 45.93 50.42 45.93 51.16 45.93 51.89 45.93 52.62 45.93 53.36 45.93 54.09 45.93 54.82 45.93 55.56 45.93 56.29 45.18 57.02 45.18 58.49 44.94 59.22 44.94 59.95 44.94 60.69 44.69 61.42 46.68 62.15 45.43 62.89 45.43 63.62 45.43 64.35 45.43 65.09 45.43 65.82 45.43 66.55 45.43 67.29 45.43 68.02 45.18 68.75 45.18 69.48 44.94 70.22 44.94 74.62 43.69 75.35 43.69 76.08 43.44 76.82 43.19 77.55 42.69 78.28 42.69 79.02 42.69 79.75 42.69 80.48 42.69 81.22 42.44 82.68 42.44 83.41 41.94 84.15 41.94 84.88 41.94 85.61 41.94 86.35 41.94 87.08 41.19 87.81 41.19 89.28 40.94 90.01 40.44 90.75 40.19 91.48 39.94 92.21 39.94 92.95 39.94 94.41 39.44 95.14 39.2 95.88 38.95 96.61 38.95 98.08 38.45 99.54 37.95 100.28 37.95 101.01 37.95 101.74 37.95 103.94 37.95 104.68 37.95 105.41 37.7 106.14 37.7 106.87 37.7 107.61 37.45 108.34 37.45 109.07 37.45 110.54 37.2 111.27 37.2 112.74 37.2 113.47 37.2 114.21 36.45 114.94 36.45 116.41 36.95 117.14 36.95 117.87 36.45 118.61 36.2 119.34 36.2 120.07 35.7 120.8 35.7" id="fig-a0f9dc7a9e0549cc85d588dcf1ea847e-element-42"/>
      </g>
    </g>
  </g>
  <g class="guide ylabels" font-size="2.82" font-family="'PT Sans Caption','Helvetica Neue','Helvetica',sans-serif" fill="#6C606B" id="fig-a0f9dc7a9e0549cc85d588dcf1ea847e-element-43">
    <text x="18.63" y="56.91" text-anchor="end" dy="0.35em" id="fig-a0f9dc7a9e0549cc85d588dcf1ea847e-element-44">250</text>
    <text x="18.63" y="44.44" text-anchor="end" dy="0.35em" id="fig-a0f9dc7a9e0549cc85d588dcf1ea847e-element-45">300</text>
    <text x="18.63" y="31.96" text-anchor="end" dy="0.35em" id="fig-a0f9dc7a9e0549cc85d588dcf1ea847e-element-46">350</text>
    <text x="18.63" y="19.48" text-anchor="end" dy="0.35em" id="fig-a0f9dc7a9e0549cc85d588dcf1ea847e-element-47">400</text>
    <text x="18.63" y="7" text-anchor="end" dy="0.35em" id="fig-a0f9dc7a9e0549cc85d588dcf1ea847e-element-48">450</text>
  </g>
</g>
<defs>
<clipPath id="fig-a0f9dc7a9e0549cc85d588dcf1ea847e-element-18">
  <path d="M19.63,5 L 183.85 5 183.85 58.91 19.63 58.91" />
</clipPath
></defs>
</svg>
