<?xml version="1.0" encoding="UTF-8"?>
<svg xmlns="http://www.w3.org/2000/svg"
     xmlns:xlink="http://www.w3.org/1999/xlink"
     xmlns:gadfly="http://www.gadflyjl.org/ns"
     version="1.2"
     width="203.2mm" height="76.2mm" viewBox="0 0 203.2 76.2"
     stroke="none"
     fill="#000000"
     stroke-width="0.3"
     font-size="3.88"
>
<g class="plotroot xscalable yscalable" id="fig-fc0f312344ee4e02b297757c790b6e9b-element-1">
  <g font-size="3.88" font-family="'PT Sans','Helvetica Neue','Helvetica',sans-serif" fill="#564A55" stroke="none" id="fig-fc0f312344ee4e02b297757c790b6e9b-element-2">
    <text x="101.74" y="68.2" text-anchor="middle">Date</text>
  </g>
  <g class="guide xlabels" font-size="2.82" font-family="'PT Sans Caption','Helvetica Neue','Helvetica',sans-serif" fill="#6C606B" id="fig-fc0f312344ee4e02b297757c790b6e9b-element-3">
    <text x="22.91" y="62.59" text-anchor="middle">Apr</text>
    <text x="39.27" y="62.59" text-anchor="middle">May</text>
    <text x="56.19" y="62.59" text-anchor="middle">Jun</text>
    <text x="72.55" y="62.59" text-anchor="middle">Jul</text>
    <text x="89.47" y="62.59" text-anchor="middle">Aug</text>
    <text x="106.38" y="62.59" text-anchor="middle">Sep</text>
    <text x="122.75" y="62.59" text-anchor="middle">Oct</text>
    <text x="139.66" y="62.59" text-anchor="middle">Nov</text>
    <text x="156.03" y="62.59" text-anchor="middle">Dec</text>
    <text x="172.94" y="62.59" text-anchor="middle">Jan 2015</text>
  </g>
  <g class="guide colorkey" id="fig-fc0f312344ee4e02b297757c790b6e9b-element-4">
    <g fill="#4C404B" font-size="2.82" font-family="'PT Sans','Helvetica Neue','Helvetica',sans-serif" id="fig-fc0f312344ee4e02b297757c790b6e9b-element-5">
      <text x="187.67" y="30.14" dy="0.35em" id="fig-fc0f312344ee4e02b297757c790b6e9b-element-6" class="color_0.2">0.2</text>
      <text x="187.67" y="33.77" dy="0.35em" id="fig-fc0f312344ee4e02b297757c790b6e9b-element-7" class="color_0.3">0.3</text>
      <text x="187.67" y="37.4" dy="0.35em" id="fig-fc0f312344ee4e02b297757c790b6e9b-element-8" class="color_0.4">0.4</text>
    </g>
    <g stroke="none" id="fig-fc0f312344ee4e02b297757c790b6e9b-element-9">
      <rect x="184.85" y="29.24" width="1.81" height="1.81" id="fig-fc0f312344ee4e02b297757c790b6e9b-element-10" class="color_0.2" fill="#00BFFF"/>
      <rect x="184.85" y="32.86" width="1.81" height="1.81" id="fig-fc0f312344ee4e02b297757c790b6e9b-element-11" class="color_0.3" fill="#D4CA3A"/>
      <rect x="184.85" y="36.49" width="1.81" height="1.81" id="fig-fc0f312344ee4e02b297757c790b6e9b-element-12" class="color_0.4" fill="#FF5EA0"/>
    </g>
    <g fill="#362A35" font-size="3.88" font-family="'PT Sans','Helvetica Neue','Helvetica',sans-serif" stroke="none" id="fig-fc0f312344ee4e02b297757c790b6e9b-element-13">
      <text x="184.85" y="26.32" id="fig-fc0f312344ee4e02b297757c790b6e9b-element-14">Julia ver.</text>
    </g>
  </g>
  <g font-size="3.88" font-family="'PT Sans','Helvetica Neue','Helvetica',sans-serif" fill="#564A55" stroke="none" id="fig-fc0f312344ee4e02b297757c790b6e9b-element-15">
    <text x="8.81" y="29.96" text-anchor="middle" dy="0.35em" transform="rotate(-90, 8.81, 31.96)" id="fig-fc0f312344ee4e02b297757c790b6e9b-element-16">Number of Tagged Packages</text>
  </g>
  <g clip-path="url(#fig-fc0f312344ee4e02b297757c790b6e9b-element-18)" id="fig-fc0f312344ee4e02b297757c790b6e9b-element-17">
    <g pointer-events="visible" opacity="1" fill="none" stroke="none" class="guide background" id="fig-fc0f312344ee4e02b297757c790b6e9b-element-19">
      <rect x="19.63" y="5" width="164.22" height="53.91" id="fig-fc0f312344ee4e02b297757c790b6e9b-element-20"/>
    </g>
    <g class="guide ygridlines xfixed" stroke-dasharray="0.5,0.5" stroke-width="0.2" stroke="#D0D0E0" id="fig-fc0f312344ee4e02b297757c790b6e9b-element-21">
      <path fill="none" d="M19.63,56.91 L 183.85 56.91" id="fig-fc0f312344ee4e02b297757c790b6e9b-element-22"/>
      <path fill="none" d="M19.63,46.93 L 183.85 46.93" id="fig-fc0f312344ee4e02b297757c790b6e9b-element-23"/>
      <path fill="none" d="M19.63,36.95 L 183.85 36.95" id="fig-fc0f312344ee4e02b297757c790b6e9b-element-24"/>
      <path fill="none" d="M19.63,26.97 L 183.85 26.97" id="fig-fc0f312344ee4e02b297757c790b6e9b-element-25"/>
      <path fill="none" d="M19.63,16.98 L 183.85 16.98" id="fig-fc0f312344ee4e02b297757c790b6e9b-element-26"/>
      <path fill="none" d="M19.63,7 L 183.85 7" id="fig-fc0f312344ee4e02b297757c790b6e9b-element-27"/>
    </g>
    <g class="guide xgridlines yfixed" stroke-dasharray="0.5,0.5" stroke-width="0.2" stroke="#D0D0E0" id="fig-fc0f312344ee4e02b297757c790b6e9b-element-28">
      <path fill="none" d="M22.91,5 L 22.91 58.91" id="fig-fc0f312344ee4e02b297757c790b6e9b-element-29"/>
      <path fill="none" d="M39.27,5 L 39.27 58.91" id="fig-fc0f312344ee4e02b297757c790b6e9b-element-30"/>
      <path fill="none" d="M56.19,5 L 56.19 58.91" id="fig-fc0f312344ee4e02b297757c790b6e9b-element-31"/>
      <path fill="none" d="M72.55,5 L 72.55 58.91" id="fig-fc0f312344ee4e02b297757c790b6e9b-element-32"/>
      <path fill="none" d="M89.47,5 L 89.47 58.91" id="fig-fc0f312344ee4e02b297757c790b6e9b-element-33"/>
      <path fill="none" d="M106.38,5 L 106.38 58.91" id="fig-fc0f312344ee4e02b297757c790b6e9b-element-34"/>
      <path fill="none" d="M122.75,5 L 122.75 58.91" id="fig-fc0f312344ee4e02b297757c790b6e9b-element-35"/>
      <path fill="none" d="M139.66,5 L 139.66 58.91" id="fig-fc0f312344ee4e02b297757c790b6e9b-element-36"/>
      <path fill="none" d="M156.03,5 L 156.03 58.91" id="fig-fc0f312344ee4e02b297757c790b6e9b-element-37"/>
      <path fill="none" d="M172.94,5 L 172.94 58.91" id="fig-fc0f312344ee4e02b297757c790b6e9b-element-38"/>
    </g>
    <g class="plotpanel" id="fig-fc0f312344ee4e02b297757c790b6e9b-element-39">
      <g stroke-width="0.79" fill="none" class="geometry color_0.4" stroke="#FF5EA0" id="fig-fc0f312344ee4e02b297757c790b6e9b-element-40">
        <path fill="none" d="M96.01,34.15 L 96.56 33.55 97.11 33.36 97.65 33.16 98.2 33.16 98.74 33.16 99.83 32.56 100.38 32.56 100.92 32.36 101.47 32.36 102.02 32.36 102.56 31.76 103.11 31.36 103.65 31.36 104.74 30.96 105.29 30.36 106.38 29.96 106.93 29.96 107.47 29.96 109.65 29.96 111.29 28.76 111.84 28.56 112.38 28.36 112.93 27.96 113.47 27.96 114.02 27.96 114.56 26.37 115.11 26.37 115.66 26.37 116.75 26.17 117.29 26.17 117.84 25.97 118.38 25.97 118.93 25.97 119.47 25.77 120.02 25.77 121.11 25.97 121.66 25.77 122.2 25.77 122.75 25.37 123.29 24.97 123.84 24.97 124.38 24.97 124.93 24.57 126.57 24.17 127.11 24.17 127.66 23.77 128.2 23.57 128.75 23.57 129.3 23.57 129.84 23.17 130.39 23.17 130.93 22.97 131.48 22.77 132.02 22.77 132.57 22.77 133.11 22.77 133.66 22.37 134.21 21.97 134.75 21.97 135.3 21.97 135.84 21.77 136.39 21.77 136.93 21.58 137.48 21.58 138.02 21.18 138.57 20.98 139.12 20.98 139.66 20.78 140.21 20.78 140.75 20.78 141.3 20.78 141.84 20.58 142.39 20.38 144.03 20.38 146.75 19.18 147.3 18.78 147.85 18.78 148.39 18.58 148.94 18.58 149.48 17.98 150.03 17.98 152.21 16.98 152.76 16.98 155.48 16.78 156.57 16.78 157.12 16.38 157.67 16.18 158.21 16.18 158.76 16.18 159.3 15.79 159.85 15.39 161.48 15.19 162.03 14.99 163.12 14.19 163.67 14.19 164.21 14.19 165.85 14.19 166.94 13.79 168.58 13.39 170.76 12.99 171.85 12.19 173.49 11.79 177.31 10.39 179.49 9 180.04 8.6 180.58 8.6 181.13 7.4 181.67 7.4 182.22 7.4" id="fig-fc0f312344ee4e02b297757c790b6e9b-element-41"/>
      </g>
      <g stroke-width="0.79" fill="none" class="geometry color_0.3" stroke="#D4CA3A" id="fig-fc0f312344ee4e02b297757c790b6e9b-element-42">
        <path fill="none" d="M21.81,47.73 L 22.36 47.73 22.91 47.53 23.45 47.53 24 47.53 24.54 47.53 25.09 47.53 25.63 47.33 26.72 47.33 27.27 47.13 28.36 46.93 29.45 46.53 30 46.53 31.09 46.53 31.63 46.33 35.45 45.53 37.09 45.53 38.18 45.53 42 45.33 42.55 44.94 43.09 44.74 43.64 44.74 44.18 44.74 44.73 44.74 45.27 44.74 45.82 44.74 46.37 44.74 46.91 44.74 47.46 44.74 48 44.14 49.09 43.94 49.64 43.94 50.18 43.94 50.73 43.54 51.28 43.54 51.82 43.54 52.37 43.34 52.91 43.34 53.46 43.34 54 43.34 54.55 43.34 55.09 43.14 55.64 43.14 56.19 51.12 56.73 42.94 57.28 42.74 57.82 42.54 61.1 41.34 61.64 41.14 62.19 40.94 62.73 40.74 63.28 40.34 63.82 40.34 64.37 39.94 64.92 39.94 65.46 39.74 66.01 39.54 67.1 39.54 67.64 39.15 68.19 39.15 68.73 39.15 69.28 39.15 69.83 39.15 70.37 38.55 70.92 38.55 72.01 38.35 72.55 37.95 73.1 37.75 73.65 37.55 74.19 37.55 74.74 37.15 75.83 36.95 76.37 36.35 76.92 36.35 77.46 36.35 78.56 35.35 79.65 34.75 80.19 34.75 80.74 34.55 81.28 34.55 82.92 34.35 83.47 34.35 84.01 34.15 84.56 34.15 85.1 34.15 85.65 33.95 86.19 33.75 86.74 33.55 87.83 33.55 88.38 33.55 89.47 33.55 90.01 33.36 90.56 32.76 91.1 32.76 92.2 32.56 92.74 32.56 93.29 32.16 93.83 31.96 94.38 31.76 94.92 31.56 95.47 31.36 96.01 30.96 96.56 30.96 97.11 30.76 97.65 30.56 98.2 30.56 98.74 30.56 99.83 29.96 100.38 29.96 100.92 29.76 101.47 29.76 102.02 29.76 102.56 29.16 103.11 28.96 103.65 28.76 104.74 31.16 105.29 30.56 106.38 30.16 106.93 30.16 107.47 30.16 109.65 30.16 111.29 28.96 111.84 28.76 112.38 28.56 112.93 28.16 113.47 28.16 114.02 28.16 114.56 26.57 115.11 26.57 115.66 26.57 116.75 26.57 117.29 26.37 117.84 26.17 118.38 26.17 118.93 26.17 119.47 25.97 120.02 25.97 121.11 26.17 121.66 25.97 122.2 25.97 122.75 25.57 123.29 21.58 123.84 25.17 124.38 25.17 124.93 24.77 126.57 24.37 127.11 24.37 127.66 23.97 128.2 23.77 128.75 23.77 129.3 23.77 129.84 23.37 130.39 23.37 130.93 23.17 131.48 22.97 132.02 22.97 132.57 22.97 133.11 22.97 133.66 22.77 134.21 22.37 134.75 22.37 135.3 22.37 135.84 22.17 136.39 22.17 136.93 21.97 137.48 21.97 138.02 21.58 138.57 21.38 139.12 21.38 139.66 21.18 140.21 21.18 140.75 21.18 141.3 20.98 141.84 20.98 142.39 20.78 144.03 20.78 146.75 19.78 147.3 19.38 147.85 19.38 148.39 19.18 148.94 19.18 149.48 18.58 150.03 18.58 152.21 17.58 152.76 17.58 155.48 17.38 156.57 17.38 157.12 17.18 157.67 16.98 158.21 16.98 158.76 16.98 159.3 16.58 159.85 16.38 161.48 15.98 162.03 15.79 163.12 15.19 163.67 14.99 164.21 14.99 165.85 14.99 166.94 14.59 168.58 14.19 170.76 13.79 171.85 13.19 173.49 12.39 177.31 11.19 179.49 9.8 180.04 9.4 180.58 9.4 181.13 8.4 181.67 8.4 182.22 8.4" id="fig-fc0f312344ee4e02b297757c790b6e9b-element-43"/>
      </g>
      <g stroke-width="0.79" fill="none" class="geometry color_0.2" stroke="#00BFFF" id="fig-fc0f312344ee4e02b297757c790b6e9b-element-44">
        <path fill="none" d="M21.81,49.93 L 22.36 49.93 22.91 49.73 23.45 49.73 24 49.73 24.54 49.73 25.09 49.73 25.63 49.73 26.72 49.73 27.27 49.73 28.36 49.53 29.45 49.33 30 49.33 31.09 49.13 31.63 48.93 35.45 48.53 37.09 48.53 38.18 48.53 42 48.33 42.55 48.13 43.09 48.13 43.64 48.13 44.18 48.13 44.73 48.13 45.27 48.13 45.82 48.13 46.37 48.13 46.91 48.13 47.46 47.53 48 47.53 49.09 47.33 49.64 47.33 50.18 47.33 50.73 47.13 51.28 48.73 51.82 47.73 52.37 47.73 52.91 47.73 53.46 47.73 54 47.73 54.55 47.73 55.09 47.73 55.64 47.73 56.19 47.53 56.73 47.53 57.28 47.33 57.82 47.33 61.1 46.33 61.64 46.33 62.19 46.13 62.73 45.93 63.28 45.53 63.82 45.53 64.37 45.53 64.92 45.53 65.46 45.53 66.01 45.33 67.1 45.33 67.64 44.94 68.19 44.94 68.73 44.94 69.28 44.94 69.83 44.94 70.37 44.34 70.92 44.34 72.01 44.14 72.55 43.74 73.1 43.54 73.65 43.34 74.19 43.34 74.74 43.34 75.83 42.94 76.37 42.74 76.92 42.54 77.46 42.54 78.56 42.14 79.65 41.74 80.19 41.74 80.74 41.74 81.28 41.74 82.92 41.74 83.47 41.74 84.01 41.54 84.56 41.54 85.1 41.54 85.65 41.34 86.19 41.34 86.74 41.34 87.83 41.14 88.38 41.14 89.47 41.14 90.01 41.14 90.56 40.54 91.1 40.54 92.2 40.94 92.74 40.94 93.29 40.54 93.83 40.34 94.38 40.34 94.92 39.94 95.47 39.94" id="fig-fc0f312344ee4e02b297757c790b6e9b-element-45"/>
      </g>
    </g>
  </g>
  <g class="guide ylabels" font-size="2.82" font-family="'PT Sans Caption','Helvetica Neue','Helvetica',sans-serif" fill="#6C606B" id="fig-fc0f312344ee4e02b297757c790b6e9b-element-46">
    <text x="18.63" y="56.91" text-anchor="end" dy="0.35em" id="fig-fc0f312344ee4e02b297757c790b6e9b-element-47">250</text>
    <text x="18.63" y="46.93" text-anchor="end" dy="0.35em" id="fig-fc0f312344ee4e02b297757c790b6e9b-element-48">300</text>
    <text x="18.63" y="36.95" text-anchor="end" dy="0.35em" id="fig-fc0f312344ee4e02b297757c790b6e9b-element-49">350</text>
    <text x="18.63" y="26.97" text-anchor="end" dy="0.35em" id="fig-fc0f312344ee4e02b297757c790b6e9b-element-50">400</text>
    <text x="18.63" y="16.98" text-anchor="end" dy="0.35em" id="fig-fc0f312344ee4e02b297757c790b6e9b-element-51">450</text>
    <text x="18.63" y="7" text-anchor="end" dy="0.35em" id="fig-fc0f312344ee4e02b297757c790b6e9b-element-52">500</text>
  </g>
</g>
<defs>
<clipPath id="fig-fc0f312344ee4e02b297757c790b6e9b-element-18">
  <path d="M19.63,5 L 183.85 5 183.85 58.91 19.63 58.91" />
</clipPath
></defs>
</svg>
