<?xml version="1.0" encoding="UTF-8"?>
<svg xmlns="http://www.w3.org/2000/svg"
     xmlns:xlink="http://www.w3.org/1999/xlink"
     xmlns:gadfly="http://www.gadflyjl.org/ns"
     version="1.2"
     width="203.2mm" height="76.2mm" viewBox="0 0 203.2 76.2"
     stroke="none"
     fill="#000000"
     stroke-width="0.3"
     font-size="3.88"
>
<g class="plotroot xscalable yscalable" id="fig-4bd428bca648408ea0738e9a32c4be62-element-1">
  <g font-size="3.88" font-family="'PT Sans','Helvetica Neue','Helvetica',sans-serif" fill="#564A55" stroke="none" id="fig-4bd428bca648408ea0738e9a32c4be62-element-2">
    <text x="101.74" y="68.2" text-anchor="middle">Date</text>
  </g>
  <g class="guide xlabels" font-size="2.82" font-family="'PT Sans Caption','Helvetica Neue','Helvetica',sans-serif" fill="#6C606B" id="fig-4bd428bca648408ea0738e9a32c4be62-element-3">
    <text x="22.88" y="62.59" text-anchor="middle">Apr</text>
    <text x="42.35" y="62.59" text-anchor="middle">May</text>
    <text x="62.47" y="62.59" text-anchor="middle">June</text>
    <text x="81.95" y="62.59" text-anchor="middle">July</text>
    <text x="102.07" y="62.59" text-anchor="middle">Aug</text>
    <text x="122.19" y="62.59" text-anchor="middle">Sept</text>
    <text x="141.66" y="62.59" text-anchor="middle">Oct</text>
    <text x="161.78" y="62.59" text-anchor="middle">Nev</text>
    <text x="181.26" y="62.59" text-anchor="middle">Dec</text>
  </g>
  <g class="guide colorkey" id="fig-4bd428bca648408ea0738e9a32c4be62-element-4">
    <g fill="#4C404B" font-size="2.82" font-family="'PT Sans','Helvetica Neue','Helvetica',sans-serif" id="fig-4bd428bca648408ea0738e9a32c4be62-element-5">
      <text x="187.67" y="30.14" dy="0.35em" id="fig-4bd428bca648408ea0738e9a32c4be62-element-6" class="color_0.2">0.2</text>
      <text x="187.67" y="33.77" dy="0.35em" id="fig-4bd428bca648408ea0738e9a32c4be62-element-7" class="color_0.3">0.3</text>
      <text x="187.67" y="37.4" dy="0.35em" id="fig-4bd428bca648408ea0738e9a32c4be62-element-8" class="color_0.4">0.4</text>
    </g>
    <g stroke="none" id="fig-4bd428bca648408ea0738e9a32c4be62-element-9">
      <rect x="184.85" y="29.24" width="1.81" height="1.81" id="fig-4bd428bca648408ea0738e9a32c4be62-element-10" fill="#00BFFF" class="color_0.2"/>
      <rect x="184.85" y="32.86" width="1.81" height="1.81" id="fig-4bd428bca648408ea0738e9a32c4be62-element-11" fill="#D4CA3A" class="color_0.3"/>
      <rect x="184.85" y="36.49" width="1.81" height="1.81" id="fig-4bd428bca648408ea0738e9a32c4be62-element-12" fill="#FF5EA0" class="color_0.4"/>
    </g>
    <g fill="#362A35" font-size="3.88" font-family="'PT Sans','Helvetica Neue','Helvetica',sans-serif" stroke="none" id="fig-4bd428bca648408ea0738e9a32c4be62-element-13">
      <text x="184.85" y="26.32" id="fig-4bd428bca648408ea0738e9a32c4be62-element-14">Julia ver.</text>
    </g>
  </g>
  <g font-size="3.88" font-family="'PT Sans','Helvetica Neue','Helvetica',sans-serif" fill="#564A55" stroke="none" id="fig-4bd428bca648408ea0738e9a32c4be62-element-15">
    <text x="8.81" y="29.96" text-anchor="middle" dy="0.35em" transform="rotate(-90, 8.81, 31.96)" id="fig-4bd428bca648408ea0738e9a32c4be62-element-16">Number of Tagged Packages</text>
  </g>
  <g clip-path="url(#fig-4bd428bca648408ea0738e9a32c4be62-element-18)" id="fig-4bd428bca648408ea0738e9a32c4be62-element-17">
    <g pointer-events="visible" opacity="1" fill="none" stroke="none" class="guide background" id="fig-4bd428bca648408ea0738e9a32c4be62-element-19">
      <rect x="19.63" y="5" width="164.22" height="53.91" id="fig-4bd428bca648408ea0738e9a32c4be62-element-20"/>
    </g>
    <g class="guide ygridlines xfixed" stroke-dasharray="0.5,0.5" stroke-width="0.2" stroke="#D0D0E0" id="fig-4bd428bca648408ea0738e9a32c4be62-element-21">
      <path fill="none" d="M19.63,56.91 L 183.85 56.91" id="fig-4bd428bca648408ea0738e9a32c4be62-element-22"/>
      <path fill="none" d="M19.63,44.44 L 183.85 44.44" id="fig-4bd428bca648408ea0738e9a32c4be62-element-23"/>
      <path fill="none" d="M19.63,31.96 L 183.85 31.96" id="fig-4bd428bca648408ea0738e9a32c4be62-element-24"/>
      <path fill="none" d="M19.63,19.48 L 183.85 19.48" id="fig-4bd428bca648408ea0738e9a32c4be62-element-25"/>
      <path fill="none" d="M19.63,7 L 183.85 7" id="fig-4bd428bca648408ea0738e9a32c4be62-element-26"/>
    </g>
    <g class="guide xgridlines yfixed" stroke-dasharray="0.5,0.5" stroke-width="0.2" stroke="#D0D0E0" id="fig-4bd428bca648408ea0738e9a32c4be62-element-27">
      <path fill="none" d="M22.88,5 L 22.88 58.91" id="fig-4bd428bca648408ea0738e9a32c4be62-element-28"/>
      <path fill="none" d="M42.35,5 L 42.35 58.91" id="fig-4bd428bca648408ea0738e9a32c4be62-element-29"/>
      <path fill="none" d="M62.47,5 L 62.47 58.91" id="fig-4bd428bca648408ea0738e9a32c4be62-element-30"/>
      <path fill="none" d="M81.95,5 L 81.95 58.91" id="fig-4bd428bca648408ea0738e9a32c4be62-element-31"/>
      <path fill="none" d="M102.07,5 L 102.07 58.91" id="fig-4bd428bca648408ea0738e9a32c4be62-element-32"/>
      <path fill="none" d="M122.19,5 L 122.19 58.91" id="fig-4bd428bca648408ea0738e9a32c4be62-element-33"/>
      <path fill="none" d="M141.66,5 L 141.66 58.91" id="fig-4bd428bca648408ea0738e9a32c4be62-element-34"/>
      <path fill="none" d="M161.78,5 L 161.78 58.91" id="fig-4bd428bca648408ea0738e9a32c4be62-element-35"/>
      <path fill="none" d="M181.26,5 L 181.26 58.91" id="fig-4bd428bca648408ea0738e9a32c4be62-element-36"/>
    </g>
    <g class="plotpanel" id="fig-4bd428bca648408ea0738e9a32c4be62-element-37">
      <g stroke-width="0.79" fill="none" class="geometry color_0.4" stroke="#FF5EA0" id="fig-4bd428bca648408ea0738e9a32c4be62-element-38">
        <path fill="none" d="M109.86,28.46 L 110.51 27.71 111.15 27.47 111.8 27.22 112.45 27.22 113.1 27.22 114.4 26.47 115.05 26.47 115.7 26.22 116.35 26.22 117 26.22 117.65 25.47 118.29 24.97 118.94 24.97 120.24 24.47 120.89 23.72 122.19 23.22 122.84 23.22 123.49 23.22 126.08 23.22 128.03 21.72 128.68 21.48 129.33 21.23 129.98 20.73 130.63 20.73 131.28 20.73 131.93 18.73 132.58 18.73 133.22 18.73 134.52 18.48 135.17 18.48 135.82 18.23 136.47 18.23 137.12 18.23 137.77 17.98 138.42 17.98 139.72 18.23 140.36 17.98 141.01 17.98 141.66 17.48 142.31 16.98 142.96 16.98 143.61 16.98 144.26 16.48 146.21 15.98 146.86 15.98 147.5 15.49 148.15 15.24 148.8 15.24 149.45 15.24 150.1 14.74 150.75 14.74 151.4 14.49 152.05 14.24 152.7 14.24 153.35 14.24 154 14.24 154.64 13.74 155.29 13.24 155.94 13.24 156.59 13.24 157.24 12.99 157.89 12.99 158.54 12.74 159.19 12.74 159.84 12.24 160.49 11.99 161.14 11.99 161.78 11.74 162.43 11.74 163.08 11.74 163.73 11.74 164.38 11.49 165.03 11.24 166.98 11.24 170.22 9.75 170.87 9.25 171.52 9.25 172.17 9 172.82 9 173.47 8.25 174.12 8.25 176.71 7 177.36 7 180.61 6.75 181.91 6.75" id="fig-4bd428bca648408ea0738e9a32c4be62-element-39"/>
      </g>
      <g stroke-width="0.79" fill="none" class="geometry color_0.3" stroke="#D4CA3A" id="fig-4bd428bca648408ea0738e9a32c4be62-element-40">
        <path fill="none" d="M21.58,45.43 L 22.23 45.43 22.88 45.18 23.53 45.18 24.18 45.18 24.82 45.18 25.47 45.18 26.12 44.94 27.42 44.94 28.07 44.69 29.37 44.44 30.67 43.94 31.32 43.94 32.61 43.94 33.26 43.69 37.81 42.69 39.75 42.69 41.05 42.69 45.6 42.44 46.24 41.94 46.89 41.69 47.54 41.69 48.19 41.69 48.84 41.69 49.49 41.69 50.14 41.69 50.79 41.69 51.44 41.69 52.09 41.69 52.74 40.94 54.03 40.69 54.68 40.69 55.33 40.69 55.98 40.19 56.63 40.19 57.28 40.19 57.93 39.94 58.58 39.94 59.23 39.94 59.88 39.94 60.53 39.94 61.17 39.69 61.82 39.69 62.47 49.68 63.12 39.44 63.77 39.2 64.42 38.95 68.31 37.45 68.96 37.2 69.61 36.95 70.26 36.7 70.91 36.2 71.56 36.2 72.21 35.7 72.86 35.7 73.51 35.45 74.16 35.2 75.45 35.2 76.1 34.7 76.75 34.7 77.4 34.7 78.05 34.7 78.7 34.7 79.35 33.95 80 33.95 81.3 33.7 81.95 33.21 82.59 32.96 83.24 32.71 83.89 32.71 84.54 32.21 85.84 31.96 86.49 31.21 87.14 31.21 87.79 31.21 89.09 29.96 90.38 29.21 91.03 29.21 91.68 28.96 92.33 28.96 94.28 28.71 94.93 28.71 95.58 28.46 96.23 28.46 96.87 28.46 97.52 28.21 98.17 27.96 98.82 27.71 100.12 27.71 100.77 27.71 102.07 27.71 102.72 27.47 103.37 26.72 104.01 26.72 105.31 26.47 105.96 26.47 106.61 25.97 107.26 25.72 107.91 25.47 108.56 25.22 109.21 24.97 109.86 24.47 110.51 24.47 111.15 24.22 111.8 23.97 112.45 23.97 113.1 23.97 114.4 23.22 115.05 23.22 115.7 22.97 116.35 22.97 117 22.97 117.65 22.22 118.29 21.97 118.94 21.72 120.24 24.72 120.89 23.97 122.19 23.47 122.84 23.47 123.49 23.47 126.08 23.47 128.03 21.97 128.68 21.72 129.33 21.48 129.98 20.98 130.63 20.98 131.28 20.98 131.93 18.98 132.58 18.98 133.22 18.98 134.52 18.98 135.17 18.73 135.82 18.48 136.47 18.48 137.12 18.48 137.77 18.23 138.42 18.23 139.72 18.48 140.36 18.23 141.01 18.23 141.66 17.73 142.31 12.74 142.96 17.23 143.61 17.23 144.26 16.73 146.21 16.23 146.86 16.23 147.5 15.74 148.15 15.49 148.8 15.49 149.45 15.49 150.1 14.99 150.75 14.99 151.4 14.74 152.05 14.49 152.7 14.49 153.35 14.49 154 14.49 154.64 14.24 155.29 13.74 155.94 13.74 156.59 13.74 157.24 13.49 157.89 13.49 158.54 13.24 159.19 13.24 159.84 12.74 160.49 12.49 161.14 12.49 161.78 12.24 162.43 12.24 163.08 12.24 163.73 11.99 164.38 11.99 165.03 11.74 166.98 11.74 170.22 10.49 170.87 9.99 171.52 9.99 172.17 9.75 172.82 9.75 173.47 9 174.12 9 176.71 7.75 177.36 7.75 180.61 7.5 181.91 7.5" id="fig-4bd428bca648408ea0738e9a32c4be62-element-41"/>
      </g>
      <g stroke-width="0.79" fill="none" class="geometry color_0.2" stroke="#00BFFF" id="fig-4bd428bca648408ea0738e9a32c4be62-element-42">
        <path fill="none" d="M21.58,48.18 L 22.23 48.18 22.88 47.93 23.53 47.93 24.18 47.93 24.82 47.93 25.47 47.93 26.12 47.93 27.42 47.93 28.07 47.93 29.37 47.68 30.67 47.43 31.32 47.43 32.61 47.18 33.26 46.93 37.81 46.43 39.75 46.43 41.05 46.43 45.6 46.18 46.24 45.93 46.89 45.93 47.54 45.93 48.19 45.93 48.84 45.93 49.49 45.93 50.14 45.93 50.79 45.93 51.44 45.93 52.09 45.18 52.74 45.18 54.03 44.94 54.68 44.94 55.33 44.94 55.98 44.69 56.63 46.68 57.28 45.43 57.93 45.43 58.58 45.43 59.23 45.43 59.88 45.43 60.53 45.43 61.17 45.43 61.82 45.43 62.47 45.18 63.12 45.18 63.77 44.94 64.42 44.94 68.31 43.69 68.96 43.69 69.61 43.44 70.26 43.19 70.91 42.69 71.56 42.69 72.21 42.69 72.86 42.69 73.51 42.69 74.16 42.44 75.45 42.44 76.1 41.94 76.75 41.94 77.4 41.94 78.05 41.94 78.7 41.94 79.35 41.19 80 41.19 81.3 40.94 81.95 40.44 82.59 40.19 83.24 39.94 83.89 39.94 84.54 39.94 85.84 39.44 86.49 39.2 87.14 38.95 87.79 38.95 89.09 38.45 90.38 37.95 91.03 37.95 91.68 37.95 92.33 37.95 94.28 37.95 94.93 37.95 95.58 37.7 96.23 37.7 96.87 37.7 97.52 37.45 98.17 37.45 98.82 37.45 100.12 37.2 100.77 37.2 102.07 37.2 102.72 37.2 103.37 36.45 104.01 36.45 105.31 36.95 105.96 36.95 106.61 36.45 107.26 36.2 107.91 36.2 108.56 35.7 109.21 35.7" id="fig-4bd428bca648408ea0738e9a32c4be62-element-43"/>
      </g>
    </g>
  </g>
  <g class="guide ylabels" font-size="2.82" font-family="'PT Sans Caption','Helvetica Neue','Helvetica',sans-serif" fill="#6C606B" id="fig-4bd428bca648408ea0738e9a32c4be62-element-44">
    <text x="18.63" y="56.91" text-anchor="end" dy="0.35em" id="fig-4bd428bca648408ea0738e9a32c4be62-element-45">250</text>
    <text x="18.63" y="44.44" text-anchor="end" dy="0.35em" id="fig-4bd428bca648408ea0738e9a32c4be62-element-46">300</text>
    <text x="18.63" y="31.96" text-anchor="end" dy="0.35em" id="fig-4bd428bca648408ea0738e9a32c4be62-element-47">350</text>
    <text x="18.63" y="19.48" text-anchor="end" dy="0.35em" id="fig-4bd428bca648408ea0738e9a32c4be62-element-48">400</text>
    <text x="18.63" y="7" text-anchor="end" dy="0.35em" id="fig-4bd428bca648408ea0738e9a32c4be62-element-49">450</text>
  </g>
</g>
<defs>
<clipPath id="fig-4bd428bca648408ea0738e9a32c4be62-element-18">
  <path d="M19.63,5 L 183.85 5 183.85 58.91 19.63 58.91" />
</clipPath
></defs>
</svg>
