<?xml version="1.0" encoding="UTF-8"?>
<svg xmlns="http://www.w3.org/2000/svg"
     xmlns:xlink="http://www.w3.org/1999/xlink"
     xmlns:gadfly="http://www.gadflyjl.org/ns"
     version="1.2"
     width="203.2mm" height="76.2mm" viewBox="0 0 203.2 76.2"
     stroke="none"
     fill="#000000"
     stroke-width="0.3"
     font-size="3.88"
>
<g class="plotroot xscalable yscalable" id="fig-aebf360f1b504651af3a4a770f617cd7-element-1">
  <g font-size="3.88" font-family="'PT Sans','Helvetica Neue','Helvetica',sans-serif" fill="#564A55" stroke="none" id="fig-aebf360f1b504651af3a4a770f617cd7-element-2">
    <text x="101.74" y="68.2" text-anchor="middle">Date</text>
  </g>
  <g class="guide xlabels" font-size="2.82" font-family="'PT Sans Caption','Helvetica Neue','Helvetica',sans-serif" fill="#6C606B" id="fig-aebf360f1b504651af3a4a770f617cd7-element-3">
    <text x="22.9" y="62.59" text-anchor="middle">Apr</text>
    <text x="47.41" y="62.59" text-anchor="middle">May</text>
    <text x="72.74" y="62.59" text-anchor="middle">June</text>
    <text x="97.25" y="62.59" text-anchor="middle">July</text>
    <text x="122.58" y="62.59" text-anchor="middle">Aug</text>
    <text x="147.9" y="62.59" text-anchor="middle">Sept</text>
    <text x="172.42" y="62.59" text-anchor="middle">Oct</text>
  </g>
  <g class="guide colorkey" id="fig-aebf360f1b504651af3a4a770f617cd7-element-4">
    <g fill="#4C404B" font-size="2.82" font-family="'PT Sans','Helvetica Neue','Helvetica',sans-serif" id="fig-aebf360f1b504651af3a4a770f617cd7-element-5">
      <text x="187.67" y="30.14" dy="0.35em" id="fig-aebf360f1b504651af3a4a770f617cd7-element-6" class="color_0.2">0.2</text>
      <text x="187.67" y="33.77" dy="0.35em" id="fig-aebf360f1b504651af3a4a770f617cd7-element-7" class="color_0.3">0.3</text>
      <text x="187.67" y="37.4" dy="0.35em" id="fig-aebf360f1b504651af3a4a770f617cd7-element-8" class="color_0.4">0.4</text>
    </g>
    <g stroke="none" id="fig-aebf360f1b504651af3a4a770f617cd7-element-9">
      <rect x="184.85" y="29.24" width="1.81" height="1.81" id="fig-aebf360f1b504651af3a4a770f617cd7-element-10" fill="#00BFFF" class="color_0.2"/>
      <rect x="184.85" y="32.86" width="1.81" height="1.81" id="fig-aebf360f1b504651af3a4a770f617cd7-element-11" fill="#D4CA3A" class="color_0.3"/>
      <rect x="184.85" y="36.49" width="1.81" height="1.81" id="fig-aebf360f1b504651af3a4a770f617cd7-element-12" fill="#FF5EA0" class="color_0.4"/>
    </g>
    <g fill="#362A35" font-size="3.88" font-family="'PT Sans','Helvetica Neue','Helvetica',sans-serif" stroke="none" id="fig-aebf360f1b504651af3a4a770f617cd7-element-13">
      <text x="184.85" y="26.32" id="fig-aebf360f1b504651af3a4a770f617cd7-element-14">Julia ver.</text>
    </g>
  </g>
  <g font-size="3.88" font-family="'PT Sans','Helvetica Neue','Helvetica',sans-serif" fill="#564A55" stroke="none" id="fig-aebf360f1b504651af3a4a770f617cd7-element-15">
    <text x="8.81" y="29.96" text-anchor="middle" dy="0.35em" transform="rotate(-90, 8.81, 31.96)" id="fig-aebf360f1b504651af3a4a770f617cd7-element-16">Number of Tagged Packages</text>
  </g>
  <g clip-path="url(#fig-aebf360f1b504651af3a4a770f617cd7-element-18)" id="fig-aebf360f1b504651af3a4a770f617cd7-element-17">
    <g pointer-events="visible" opacity="1" fill="none" stroke="none" class="guide background" id="fig-aebf360f1b504651af3a4a770f617cd7-element-19">
      <rect x="19.63" y="5" width="164.22" height="53.91" id="fig-aebf360f1b504651af3a4a770f617cd7-element-20"/>
    </g>
    <g class="guide ygridlines xfixed" stroke-dasharray="0.5,0.5" stroke-width="0.2" stroke="#D0D0E0" id="fig-aebf360f1b504651af3a4a770f617cd7-element-21">
      <path fill="none" d="M19.63,56.91 L 183.85 56.91" id="fig-aebf360f1b504651af3a4a770f617cd7-element-22"/>
      <path fill="none" d="M19.63,44.44 L 183.85 44.44" id="fig-aebf360f1b504651af3a4a770f617cd7-element-23"/>
      <path fill="none" d="M19.63,31.96 L 183.85 31.96" id="fig-aebf360f1b504651af3a4a770f617cd7-element-24"/>
      <path fill="none" d="M19.63,19.48 L 183.85 19.48" id="fig-aebf360f1b504651af3a4a770f617cd7-element-25"/>
      <path fill="none" d="M19.63,7 L 183.85 7" id="fig-aebf360f1b504651af3a4a770f617cd7-element-26"/>
    </g>
    <g class="guide xgridlines yfixed" stroke-dasharray="0.5,0.5" stroke-width="0.2" stroke="#D0D0E0" id="fig-aebf360f1b504651af3a4a770f617cd7-element-27">
      <path fill="none" d="M22.9,5 L 22.9 58.91" id="fig-aebf360f1b504651af3a4a770f617cd7-element-28"/>
      <path fill="none" d="M47.41,5 L 47.41 58.91" id="fig-aebf360f1b504651af3a4a770f617cd7-element-29"/>
      <path fill="none" d="M72.74,5 L 72.74 58.91" id="fig-aebf360f1b504651af3a4a770f617cd7-element-30"/>
      <path fill="none" d="M97.25,5 L 97.25 58.91" id="fig-aebf360f1b504651af3a4a770f617cd7-element-31"/>
      <path fill="none" d="M122.58,5 L 122.58 58.91" id="fig-aebf360f1b504651af3a4a770f617cd7-element-32"/>
      <path fill="none" d="M147.9,5 L 147.9 58.91" id="fig-aebf360f1b504651af3a4a770f617cd7-element-33"/>
      <path fill="none" d="M172.42,5 L 172.42 58.91" id="fig-aebf360f1b504651af3a4a770f617cd7-element-34"/>
    </g>
    <g class="plotpanel" id="fig-aebf360f1b504651af3a4a770f617cd7-element-35">
      <g stroke-width="0.79" fill="none" class="geometry color_0.4" stroke="#FF5EA0" id="fig-aebf360f1b504651af3a4a770f617cd7-element-36">
        <path fill="none" d="M132.38,28.46 L 133.2 27.71 134.02 27.47 134.83 27.22 135.65 27.22 136.47 27.22 138.1 26.47 138.92 26.47 139.73 26.22 140.55 26.22 141.37 26.22 142.19 25.47 143 24.97 143.82 24.97 145.45 24.47 146.27 23.72 147.9 23.22 148.72 23.22 149.54 23.22 152.81 23.22 155.26 21.72 156.08 21.48 156.89 21.23 157.71 20.73 158.53 20.73 159.34 20.73 160.16 18.73 160.98 18.73 161.79 18.73 163.43 18.48 164.25 18.48 165.06 18.23 165.88 18.23 166.7 18.23 167.51 17.98 168.33 17.98 169.96 18.23 170.78 17.98 171.6 17.98 172.42 17.48 173.23 16.98 174.05 16.98 174.87 16.98 175.68 16.48 178.13 15.98 178.95 15.98 179.77 15.49 180.59 15.24 181.4 15.24" id="fig-aebf360f1b504651af3a4a770f617cd7-element-37"/>
      </g>
      <g stroke-width="0.79" fill="none" class="geometry color_0.3" stroke="#D4CA3A" id="fig-aebf360f1b504651af3a4a770f617cd7-element-38">
        <path fill="none" d="M21.27,45.43 L 22.08 45.43 22.9 45.18 23.72 45.18 24.53 45.18 25.35 45.18 26.17 45.18 26.98 44.94 28.62 44.94 29.44 44.69 31.07 44.44 32.7 43.94 33.52 43.94 35.16 43.94 35.97 43.69 41.69 42.69 44.14 42.69 45.78 42.69 51.5 42.44 52.31 41.94 53.13 41.69 53.95 41.69 54.76 41.69 55.58 41.69 56.4 41.69 57.21 41.69 58.03 41.69 58.85 41.69 59.67 41.69 60.48 40.94 62.12 40.69 62.93 40.69 63.75 40.69 64.57 40.19 65.39 40.19 66.2 40.19 67.02 39.94 67.84 39.94 68.65 39.94 69.47 39.94 70.29 39.94 71.1 39.69 71.92 39.69 72.74 49.68 73.56 39.44 74.37 39.2 75.19 38.95 80.09 37.45 80.91 37.2 81.73 36.95 82.54 36.7 83.36 36.2 84.18 36.2 84.99 35.7 85.81 35.7 86.63 35.45 87.44 35.2 89.08 35.2 89.9 34.7 90.71 34.7 91.53 34.7 92.35 34.7 93.16 34.7 93.98 33.95 94.8 33.95 96.43 33.7 97.25 33.21 98.07 32.96 98.88 32.71 99.7 32.71 100.52 32.21 102.15 31.96 102.97 31.21 103.79 31.21 104.6 31.21 106.24 29.96 107.87 29.21 108.69 29.21 109.5 28.96 110.32 28.96 112.77 28.71 113.59 28.71 114.41 28.46 115.22 28.46 116.04 28.46 116.86 28.21 117.67 27.96 118.49 27.71 120.13 27.71 120.94 27.71 122.58 27.71 123.39 27.47 124.21 26.72 125.03 26.72 126.66 26.47 127.48 26.47 128.3 25.97 129.11 25.72 129.93 25.47 130.75 25.22 131.56 24.97 132.38 24.47 133.2 24.47 134.02 24.22 134.83 23.97 135.65 23.97 136.47 23.97 138.1 23.22 138.92 23.22 139.73 22.97 140.55 22.97 141.37 22.97 142.19 22.22 143 21.97 143.82 21.72 145.45 24.72 146.27 23.97 147.9 23.47 148.72 23.47 149.54 23.47 152.81 23.47 155.26 21.97 156.08 21.72 156.89 21.48 157.71 20.98 158.53 20.98 159.34 20.98 160.16 18.98 160.98 18.98 161.79 18.98 163.43 18.98 164.25 18.73 165.06 18.48 165.88 18.48 166.7 18.48 167.51 18.23 168.33 18.23 169.96 18.48 170.78 18.23 171.6 18.23 172.42 17.73 173.23 12.74 174.05 17.23 174.87 17.23 175.68 16.73 178.13 16.23 178.95 16.23 179.77 15.74 180.59 15.49 181.4 15.49" id="fig-aebf360f1b504651af3a4a770f617cd7-element-39"/>
      </g>
      <g stroke-width="0.79" fill="none" class="geometry color_0.2" stroke="#00BFFF" id="fig-aebf360f1b504651af3a4a770f617cd7-element-40">
        <path fill="none" d="M21.27,48.18 L 22.08 48.18 22.9 47.93 23.72 47.93 24.53 47.93 25.35 47.93 26.17 47.93 26.98 47.93 28.62 47.93 29.44 47.93 31.07 47.68 32.7 47.43 33.52 47.43 35.16 47.18 35.97 46.93 41.69 46.43 44.14 46.43 45.78 46.43 51.5 46.18 52.31 45.93 53.13 45.93 53.95 45.93 54.76 45.93 55.58 45.93 56.4 45.93 57.21 45.93 58.03 45.93 58.85 45.93 59.67 45.18 60.48 45.18 62.12 44.94 62.93 44.94 63.75 44.94 64.57 44.69 65.39 46.68 66.2 45.43 67.02 45.43 67.84 45.43 68.65 45.43 69.47 45.43 70.29 45.43 71.1 45.43 71.92 45.43 72.74 45.18 73.56 45.18 74.37 44.94 75.19 44.94 80.09 43.69 80.91 43.69 81.73 43.44 82.54 43.19 83.36 42.69 84.18 42.69 84.99 42.69 85.81 42.69 86.63 42.69 87.44 42.44 89.08 42.44 89.9 41.94 90.71 41.94 91.53 41.94 92.35 41.94 93.16 41.94 93.98 41.19 94.8 41.19 96.43 40.94 97.25 40.44 98.07 40.19 98.88 39.94 99.7 39.94 100.52 39.94 102.15 39.44 102.97 39.2 103.79 38.95 104.6 38.95 106.24 38.45 107.87 37.95 108.69 37.95 109.5 37.95 110.32 37.95 112.77 37.95 113.59 37.95 114.41 37.7 115.22 37.7 116.04 37.7 116.86 37.45 117.67 37.45 118.49 37.45 120.13 37.2 120.94 37.2 122.58 37.2 123.39 37.2 124.21 36.45 125.03 36.45 126.66 36.95 127.48 36.95 128.3 36.45 129.11 36.2 129.93 36.2 130.75 35.7 131.56 35.7" id="fig-aebf360f1b504651af3a4a770f617cd7-element-41"/>
      </g>
    </g>
  </g>
  <g class="guide ylabels" font-size="2.82" font-family="'PT Sans Caption','Helvetica Neue','Helvetica',sans-serif" fill="#6C606B" id="fig-aebf360f1b504651af3a4a770f617cd7-element-42">
    <text x="18.63" y="56.91" text-anchor="end" dy="0.35em" id="fig-aebf360f1b504651af3a4a770f617cd7-element-43">250</text>
    <text x="18.63" y="44.44" text-anchor="end" dy="0.35em" id="fig-aebf360f1b504651af3a4a770f617cd7-element-44">300</text>
    <text x="18.63" y="31.96" text-anchor="end" dy="0.35em" id="fig-aebf360f1b504651af3a4a770f617cd7-element-45">350</text>
    <text x="18.63" y="19.48" text-anchor="end" dy="0.35em" id="fig-aebf360f1b504651af3a4a770f617cd7-element-46">400</text>
    <text x="18.63" y="7" text-anchor="end" dy="0.35em" id="fig-aebf360f1b504651af3a4a770f617cd7-element-47">450</text>
  </g>
</g>
<defs>
<clipPath id="fig-aebf360f1b504651af3a4a770f617cd7-element-18">
  <path d="M19.63,5 L 183.85 5 183.85 58.91 19.63 58.91" />
</clipPath
></defs>
</svg>
