<?xml version="1.0" encoding="UTF-8"?>
<svg xmlns="http://www.w3.org/2000/svg"
     xmlns:xlink="http://www.w3.org/1999/xlink"
     xmlns:gadfly="http://www.gadflyjl.org/ns"
     version="1.2"
     width="203.2mm" height="76.2mm" viewBox="0 0 203.2 76.2"
     stroke="none"
     fill="#000000"
     stroke-width="0.3"
     font-size="3.88"
>
<g class="plotroot xscalable yscalable" id="fig-5f3078dc4e364a148d6c46f8dbd34d0a-element-1">
  <g font-size="3.88" font-family="'PT Sans','Helvetica Neue','Helvetica',sans-serif" fill="#564A55" stroke="#000000" stroke-opacity="0.000" id="fig-5f3078dc4e364a148d6c46f8dbd34d0a-element-2">
    <text x="101.74" y="64.59" text-anchor="middle" dy="0.6em">Date</text>
  </g>
  <g class="guide xlabels" font-size="2.82" font-family="'PT Sans Caption','Helvetica Neue','Helvetica',sans-serif" fill="#6C606B" id="fig-5f3078dc4e364a148d6c46f8dbd34d0a-element-3">
    <text x="22.27" y="57.92" text-anchor="middle" dy="0.6em">Apr</text>
    <text x="31.89" y="57.92" text-anchor="middle" dy="0.6em">May</text>
    <text x="41.82" y="57.92" text-anchor="middle" dy="0.6em">Jun</text>
    <text x="51.43" y="57.92" text-anchor="middle" dy="0.6em">Jul</text>
    <text x="61.37" y="57.92" text-anchor="middle" dy="0.6em">Aug</text>
    <text x="71.3" y="57.92" text-anchor="middle" dy="0.6em">Sep</text>
    <text x="80.91" y="57.92" text-anchor="middle" dy="0.6em">Oct</text>
    <text x="90.85" y="57.92" text-anchor="middle" dy="0.6em">Nov</text>
    <text x="100.46" y="57.92" text-anchor="middle" dy="0.6em">Dec</text>
    <text x="110.39" y="57.92" text-anchor="middle" dy="0.6em">Jan 2015</text>
    <text x="120.33" y="57.92" text-anchor="middle" dy="0.6em">Feb</text>
    <text x="129.3" y="57.92" text-anchor="middle" dy="0.6em">Mar</text>
    <text x="139.23" y="57.92" text-anchor="middle" dy="0.6em">Apr</text>
    <text x="148.85" y="57.92" text-anchor="middle" dy="0.6em">May</text>
    <text x="158.78" y="57.92" text-anchor="middle" dy="0.6em">Jun</text>
    <text x="168.4" y="57.92" text-anchor="middle" dy="0.6em">Jul</text>
    <text x="178.33" y="57.92" text-anchor="middle" dy="0.6em">Aug</text>
  </g>
  <g class="guide colorkey" id="fig-5f3078dc4e364a148d6c46f8dbd34d0a-element-4">
    <g fill="#4C404B" font-size="2.82" font-family="'PT Sans','Helvetica Neue','Helvetica',sans-serif" id="fig-5f3078dc4e364a148d6c46f8dbd34d0a-element-5">
      <text x="187.67" y="29.14" dy="0.35em" id="fig-5f3078dc4e364a148d6c46f8dbd34d0a-element-6" class="color_0.2">0.2</text>
      <text x="187.67" y="32.77" dy="0.35em" id="fig-5f3078dc4e364a148d6c46f8dbd34d0a-element-7" class="color_0.3">0.3</text>
      <text x="187.67" y="36.4" dy="0.35em" id="fig-5f3078dc4e364a148d6c46f8dbd34d0a-element-8" class="color_0.4">0.4</text>
    </g>
    <g stroke="#000000" stroke-opacity="0.000" id="fig-5f3078dc4e364a148d6c46f8dbd34d0a-element-9">
      <rect x="184.85" y="28.24" width="1.81" height="1.81" id="fig-5f3078dc4e364a148d6c46f8dbd34d0a-element-10" class="color_0.2" fill="#00BFFF"/>
      <rect x="184.85" y="31.86" width="1.81" height="1.81" id="fig-5f3078dc4e364a148d6c46f8dbd34d0a-element-11" class="color_0.3" fill="#D4CA3A"/>
      <rect x="184.85" y="35.49" width="1.81" height="1.81" id="fig-5f3078dc4e364a148d6c46f8dbd34d0a-element-12" class="color_0.4" fill="#FF5EA0"/>
    </g>
    <g fill="#362A35" font-size="3.88" font-family="'PT Sans','Helvetica Neue','Helvetica',sans-serif" stroke="#000000" stroke-opacity="0.000" id="fig-5f3078dc4e364a148d6c46f8dbd34d0a-element-13">
      <text x="184.85" y="25.32" id="fig-5f3078dc4e364a148d6c46f8dbd34d0a-element-14">Julia ver.</text>
    </g>
  </g>
  <g font-size="3.88" font-family="'PT Sans','Helvetica Neue','Helvetica',sans-serif" fill="#564A55" stroke="#000000" stroke-opacity="0.000" id="fig-5f3078dc4e364a148d6c46f8dbd34d0a-element-15">
    <text x="8.81" y="28.96" text-anchor="middle" dy="0.35em" transform="rotate(-90, 8.81, 30.96)" id="fig-5f3078dc4e364a148d6c46f8dbd34d0a-element-16">Number of Tagged Packages</text>
  </g>
  <g clip-path="url(#fig-5f3078dc4e364a148d6c46f8dbd34d0a-element-18)" id="fig-5f3078dc4e364a148d6c46f8dbd34d0a-element-17">
    <g pointer-events="visible" opacity="1" fill="#000000" fill-opacity="0.000" stroke="#000000" stroke-opacity="0.000" class="guide background" id="fig-5f3078dc4e364a148d6c46f8dbd34d0a-element-19">
      <rect x="19.63" y="5" width="164.22" height="51.92" id="fig-5f3078dc4e364a148d6c46f8dbd34d0a-element-20"/>
    </g>
    <g class="guide ygridlines xfixed" stroke-dasharray="0.5,0.5" stroke-width="0.2" stroke="#D0D0E0" id="fig-5f3078dc4e364a148d6c46f8dbd34d0a-element-21">
      <path fill="none" d="M19.63,54.91 L 183.85 54.91" id="fig-5f3078dc4e364a148d6c46f8dbd34d0a-element-22"/>
      <path fill="none" d="M19.63,45.33 L 183.85 45.33" id="fig-5f3078dc4e364a148d6c46f8dbd34d0a-element-23"/>
      <path fill="none" d="M19.63,35.75 L 183.85 35.75" id="fig-5f3078dc4e364a148d6c46f8dbd34d0a-element-24"/>
      <path fill="none" d="M19.63,26.17 L 183.85 26.17" id="fig-5f3078dc4e364a148d6c46f8dbd34d0a-element-25"/>
      <path fill="none" d="M19.63,16.58 L 183.85 16.58" id="fig-5f3078dc4e364a148d6c46f8dbd34d0a-element-26"/>
      <path fill="none" d="M19.63,7 L 183.85 7" id="fig-5f3078dc4e364a148d6c46f8dbd34d0a-element-27"/>
    </g>
    <g class="guide xgridlines yfixed" stroke-dasharray="0.5,0.5" stroke-width="0.2" stroke="#D0D0E0" id="fig-5f3078dc4e364a148d6c46f8dbd34d0a-element-28">
      <path fill="none" d="M22.27,5 L 22.27 56.92" id="fig-5f3078dc4e364a148d6c46f8dbd34d0a-element-29"/>
      <path fill="none" d="M31.89,5 L 31.89 56.92" id="fig-5f3078dc4e364a148d6c46f8dbd34d0a-element-30"/>
      <path fill="none" d="M41.82,5 L 41.82 56.92" id="fig-5f3078dc4e364a148d6c46f8dbd34d0a-element-31"/>
      <path fill="none" d="M51.43,5 L 51.43 56.92" id="fig-5f3078dc4e364a148d6c46f8dbd34d0a-element-32"/>
      <path fill="none" d="M61.37,5 L 61.37 56.92" id="fig-5f3078dc4e364a148d6c46f8dbd34d0a-element-33"/>
      <path fill="none" d="M71.3,5 L 71.3 56.92" id="fig-5f3078dc4e364a148d6c46f8dbd34d0a-element-34"/>
      <path fill="none" d="M80.91,5 L 80.91 56.92" id="fig-5f3078dc4e364a148d6c46f8dbd34d0a-element-35"/>
      <path fill="none" d="M90.85,5 L 90.85 56.92" id="fig-5f3078dc4e364a148d6c46f8dbd34d0a-element-36"/>
      <path fill="none" d="M100.46,5 L 100.46 56.92" id="fig-5f3078dc4e364a148d6c46f8dbd34d0a-element-37"/>
      <path fill="none" d="M110.39,5 L 110.39 56.92" id="fig-5f3078dc4e364a148d6c46f8dbd34d0a-element-38"/>
      <path fill="none" d="M120.33,5 L 120.33 56.92" id="fig-5f3078dc4e364a148d6c46f8dbd34d0a-element-39"/>
      <path fill="none" d="M129.3,5 L 129.3 56.92" id="fig-5f3078dc4e364a148d6c46f8dbd34d0a-element-40"/>
      <path fill="none" d="M139.23,5 L 139.23 56.92" id="fig-5f3078dc4e364a148d6c46f8dbd34d0a-element-41"/>
      <path fill="none" d="M148.85,5 L 148.85 56.92" id="fig-5f3078dc4e364a148d6c46f8dbd34d0a-element-42"/>
      <path fill="none" d="M158.78,5 L 158.78 56.92" id="fig-5f3078dc4e364a148d6c46f8dbd34d0a-element-43"/>
      <path fill="none" d="M168.4,5 L 168.4 56.92" id="fig-5f3078dc4e364a148d6c46f8dbd34d0a-element-44"/>
      <path fill="none" d="M178.33,5 L 178.33 56.92" id="fig-5f3078dc4e364a148d6c46f8dbd34d0a-element-45"/>
    </g>
    <g class="plotpanel" id="fig-5f3078dc4e364a148d6c46f8dbd34d0a-element-46">
      <g class="geometry" stroke="#000000" stroke-opacity="0.000" fill="#4C404B" font-size="2.82" font-family="'PT Sans Caption','Helvetica Neue','Helvetica',sans-serif" id="fig-5f3078dc4e364a148d6c46f8dbd34d0a-element-47">
        <text x="72.4" y="52.46" text-anchor="middle" dy="0.35em" id="fig-5f3078dc4e364a148d6c46f8dbd34d0a-element-48" visibility="visible">v0.3.0</text>
        <text x="82.65" y="52.46" text-anchor="middle" dy="0.35em" id="fig-5f3078dc4e364a148d6c46f8dbd34d0a-element-49" visibility="visible">v0.3.1</text>
        <text x="92.26" y="52.46" text-anchor="middle" dy="0.35em" id="fig-5f3078dc4e364a148d6c46f8dbd34d0a-element-50" visibility="visible">v0.3.2</text>
        <text x="102.84" y="52.46" text-anchor="middle" dy="0.35em" id="fig-5f3078dc4e364a148d6c46f8dbd34d0a-element-51" visibility="visible">v0.3.3</text>
        <text x="109.47" y="52.46" text-anchor="middle" dy="0.35em" id="fig-5f3078dc4e364a148d6c46f8dbd34d0a-element-52" visibility="visible"></text>
        <text x="117.58" y="52.46" text-anchor="middle" dy="0.35em" id="fig-5f3078dc4e364a148d6c46f8dbd34d0a-element-53" visibility="visible">v0.3.5</text>
        <text x="130.4" y="52.46" text-anchor="middle" dy="0.35em" id="fig-5f3078dc4e364a148d6c46f8dbd34d0a-element-54" visibility="visible">v0.3.6</text>
        <text x="141.29" y="52.46" text-anchor="middle" dy="0.35em" id="fig-5f3078dc4e364a148d6c46f8dbd34d0a-element-55" visibility="visible">v0.3.7</text>
        <text x="153.47" y="52.46" text-anchor="middle" dy="0.35em" id="fig-5f3078dc4e364a148d6c46f8dbd34d0a-element-56" visibility="visible">v0.3.8</text>
        <text x="163.08" y="52.46" text-anchor="middle" dy="0.35em" id="fig-5f3078dc4e364a148d6c46f8dbd34d0a-element-57" visibility="visible">v0.3.9</text>
      </g>
      <g class="yfixed" stroke-width="0.26" stroke="#333333" id="fig-5f3078dc4e364a148d6c46f8dbd34d0a-element-58">
        <path fill="none" d="M67.46,5 L 67.46 56.92" id="fig-5f3078dc4e364a148d6c46f8dbd34d0a-element-59"/>
        <path fill="none" d="M77.71,5 L 77.71 56.92" id="fig-5f3078dc4e364a148d6c46f8dbd34d0a-element-60"/>
        <path fill="none" d="M87.32,5 L 87.32 56.92" id="fig-5f3078dc4e364a148d6c46f8dbd34d0a-element-61"/>
        <path fill="none" d="M97.9,5 L 97.9 56.92" id="fig-5f3078dc4e364a148d6c46f8dbd34d0a-element-62"/>
        <path fill="none" d="M108.47,5 L 108.47 56.92" id="fig-5f3078dc4e364a148d6c46f8dbd34d0a-element-63"/>
        <path fill="none" d="M112.64,5 L 112.64 56.92" id="fig-5f3078dc4e364a148d6c46f8dbd34d0a-element-64"/>
        <path fill="none" d="M125.46,5 L 125.46 56.92" id="fig-5f3078dc4e364a148d6c46f8dbd34d0a-element-65"/>
        <path fill="none" d="M136.35,5 L 136.35 56.92" id="fig-5f3078dc4e364a148d6c46f8dbd34d0a-element-66"/>
        <path fill="none" d="M148.53,5 L 148.53 56.92" id="fig-5f3078dc4e364a148d6c46f8dbd34d0a-element-67"/>
        <path fill="none" d="M158.14,5 L 158.14 56.92" id="fig-5f3078dc4e364a148d6c46f8dbd34d0a-element-68"/>
      </g>
      <g stroke-width="0.79" fill="#000000" fill-opacity="0.000" class="geometry color_0.4" stroke="#FF5EA0" id="fig-5f3078dc4e364a148d6c46f8dbd34d0a-element-69">
        <path fill="none" d="M65.21,39.2 L 65.53 38.91 65.85 38.82 66.17 38.72 66.49 38.72 66.81 38.72 67.46 38.43 67.78 38.43 68.1 38.34 68.42 38.34 68.74 38.34 69.06 38.05 69.38 37.86 69.7 37.86 70.34 37.67 70.66 37.38 71.3 37.19 71.62 37.19 71.94 37.19 73.22 37.19 74.18 36.61 74.51 36.52 74.83 36.42 75.15 36.23 75.47 36.23 75.79 36.23 76.11 35.46 76.43 35.46 76.75 35.46 77.39 35.37 77.71 35.37 78.03 35.27 78.35 35.27 78.67 35.27 78.99 35.17 79.31 35.17 79.95 35.27 80.27 35.17 80.59 35.17 80.91 34.98 81.23 34.79 81.55 34.79 81.88 34.79 82.2 34.6 83.16 34.41 83.48 34.41 83.8 34.22 84.12 34.12 84.44 34.12 84.76 34.12 85.08 33.93 85.4 33.93 85.72 33.83 86.04 33.74 86.36 33.74 86.68 33.74 87 33.74 87.32 33.54 87.64 33.35 87.96 33.35 88.28 33.35 88.6 33.26 88.93 33.26 89.25 33.16 89.57 33.16 89.89 32.97 90.21 32.87 90.53 32.87 90.85 32.78 91.17 32.78 91.49 32.78 91.81 32.78 92.13 32.68 92.45 32.59 93.41 32.59 95.01 32.01 95.33 31.82 95.65 31.82 95.97 31.72 96.3 31.72 96.62 31.44 96.94 31.44 98.22 30.96 98.54 30.96 100.14 30.86 100.78 30.86 101.1 30.67 101.42 30.57 101.74 30.57 102.06 30.57 102.38 30.38 102.7 30.19 103.67 30.1 103.99 30 104.63 29.62 104.95 29.62 105.27 29.62 106.23 29.62 106.87 29.42 107.83 29.23 109.11 29.04 109.75 28.66 110.72 28.47 112.96 27.8 114.24 27.12 114.56 26.93 114.88 26.93 115.2 26.36 115.52 26.36 115.84 26.36 116.48 26.26 116.8 26.17 117.12 26.17 117.44 25.88 117.77 25.78 118.09 25.78 118.41 25.78 119.05 25.5 119.37 25.21 119.69 25.11 120.97 24.35 121.29 24.35 121.61 24.63 122.25 24.35 122.89 24.06 123.21 24.06 124.17 23.87 125.78 23.87 127.38 23.77 128.98 22.91 129.3 22.91 129.62 22.91 129.94 22.72 130.26 22.72 130.9 22.52 131.54 22.52 132.83 22.43 133.15 22.24 133.47 22.24 133.79 22.24 134.11 22.05 134.43 22.14 134.75 21.95 138.59 21.57 139.23 21.57 139.56 21.28 140.2 21.28 141.48 21.18 142.12 21.09 142.76 20.8 144.04 20.61 144.68 20.42 145 20.13 145.64 19.65 145.96 19.65 146.28 19.55 146.61 19.36 146.93 19.36 147.25 19.27 147.89 19.17 148.21 18.98 148.85 18.98 149.49 18.79 149.81 18.5 150.13 18.4 150.77 18.21 151.09 18.12 152.69 17.73 153.98 17.54 154.3 17.35 156.86 17.06 157.18 17.06 157.5 17.06 158.46 16.68 158.78 16.58 159.1 16.39 159.74 16.2 160.38 16.2 161.03 16.01 163.91 15.34 164.87 15.34 165.19 15.34 165.51 15.15 165.83 15.15 166.15 14.86 166.47 14.86 166.79 14.86 167.11 14.76 168.08 14.67 168.72 14.47 169.36 14.47 169.68 14.28 170 13.9 170.32 13.71 170.64 13.61 170.96 13.61 176.41 12.17 178.97 11.6 181.85 11.12" id="fig-5f3078dc4e364a148d6c46f8dbd34d0a-element-70"/>
      </g>
      <g stroke-width="0.79" fill="#000000" fill-opacity="0.000" class="geometry color_0.3" stroke="#D4CA3A" id="fig-5f3078dc4e364a148d6c46f8dbd34d0a-element-71">
        <path fill="none" d="M21.63,45.72 L 21.95 45.72 22.27 45.62 22.59 45.62 22.91 45.62 23.23 45.62 23.55 45.62 23.87 45.52 24.52 45.52 24.84 45.43 25.48 45.33 26.12 45.14 26.44 45.14 27.08 45.14 27.4 45.04 29.64 44.66 30.6 44.66 31.25 44.66 33.49 44.57 33.81 44.37 34.13 44.28 34.45 44.28 34.77 44.28 35.09 44.28 35.41 44.28 35.73 44.28 36.05 44.28 36.37 44.28 36.69 44.28 37.01 43.99 37.65 43.89 37.97 43.89 38.29 43.89 38.62 43.7 38.94 43.7 39.26 43.7 39.58 43.61 39.9 43.61 40.22 43.61 40.54 43.61 40.86 43.61 41.18 43.51 41.5 43.51 41.82 47.34 42.14 43.42 42.46 43.32 42.78 43.22 44.7 42.65 45.02 42.55 45.34 42.46 45.67 42.36 45.99 42.17 46.31 42.17 46.63 41.98 46.95 41.98 47.27 41.88 47.59 41.79 48.23 41.79 48.55 41.59 48.87 41.59 49.19 41.59 49.51 41.59 49.83 41.59 50.15 41.31 50.47 41.31 51.11 41.21 51.43 41.02 51.75 40.92 52.07 40.83 52.39 40.83 52.71 40.64 53.36 40.54 53.68 40.25 54 40.25 54.32 40.25 54.96 39.77 55.6 39.49 55.92 39.49 56.24 39.39 56.56 39.39 57.52 39.29 57.84 39.29 58.16 39.2 58.48 39.2 58.8 39.2 59.12 39.1 59.44 39.01 59.76 38.91 60.41 38.91 60.73 38.91 61.37 38.91 61.69 38.82 62.01 38.53 62.33 38.53 62.97 38.43 63.29 38.43 63.61 38.24 63.93 38.14 64.25 38.05 64.57 37.95 64.89 37.86 65.21 37.67 65.53 37.67 65.85 37.57 66.17 37.47 66.49 37.47 66.81 37.47 67.46 37.19 67.78 37.19 68.1 37.09 68.42 37.09 68.74 37.09 69.06 36.8 69.38 36.71 69.7 36.61 70.34 37.76 70.66 37.47 71.3 37.28 71.62 37.28 71.94 37.28 73.22 37.28 74.18 36.71 74.51 36.61 74.83 36.52 75.15 36.32 75.47 36.32 75.79 36.32 76.11 35.56 76.43 35.56 76.75 35.56 77.39 35.56 77.71 35.46 78.03 35.37 78.35 35.37 78.67 35.37 78.99 35.27 79.31 35.27 79.95 35.37 80.27 35.27 80.59 35.27 80.91 35.08 81.23 33.16 81.55 34.89 81.88 34.89 82.2 34.69 83.16 34.5 83.48 34.5 83.8 34.31 84.12 34.22 84.44 34.22 84.76 34.22 85.08 34.02 85.4 34.02 85.72 33.93 86.04 33.83 86.36 33.83 86.68 33.83 87 33.83 87.32 33.74 87.64 33.54 87.96 33.54 88.28 33.54 88.6 33.45 88.93 33.45 89.25 33.35 89.57 33.35 89.89 33.16 90.21 33.07 90.53 33.07 90.85 32.97 91.17 32.97 91.49 32.97 91.81 32.87 92.13 32.87 92.45 32.78 93.41 32.78 95.01 32.3 95.33 32.11 95.65 32.11 95.97 32.01 96.3 32.01 96.62 31.72 96.94 31.72 98.22 31.24 98.54 31.24 100.14 31.15 100.78 31.15 101.1 31.05 101.42 30.96 101.74 30.96 102.06 30.96 102.38 30.77 102.7 30.67 103.67 30.48 103.99 30.38 104.63 30.1 104.95 30 105.27 30 106.23 30 106.87 29.81 107.83 29.62 109.11 29.42 109.75 29.14 110.72 28.75 112.96 28.18 114.24 27.51 114.56 27.32 114.88 27.32 115.2 26.84 115.52 26.84 115.84 26.84 116.48 26.84 116.8 26.65 117.12 26.65 117.44 26.36 117.77 26.26 118.09 26.26 118.41 26.26 119.05 25.97 119.37 25.78 119.69 25.69 120.97 24.92 121.29 25.11 121.61 25.11 122.25 24.82 122.89 24.54 123.21 24.54 124.17 24.35 125.78 24.35 127.38 23.77 128.98 23.39 129.3 23.39 129.62 23.39 129.94 23.2 130.26 23.2 130.9 23.2 131.54 23.2 132.83 23 133.15 22.81 133.47 22.72 133.79 22.72 134.11 22.52 134.43 22.62 134.75 22.43 138.59 22.33 139.23 22.33 139.56 22.05 140.2 22.05 141.48 21.95 142.12 21.95 142.76 21.66 144.04 21.66 144.68 21.47 145 21.37 145.64 20.9 145.96 20.9 146.28 20.8 146.61 20.51 146.93 20.51 147.25 20.42 147.89 20.32 148.21 20.22 148.85 20.22 149.49 20.03 149.81 19.75 150.13 19.65 150.77 19.46 151.09 19.36 152.69 18.98 153.98 18.79 154.3 18.6 156.86 18.21 157.18 18.21 157.5 18.21 158.46 17.92 158.78 17.83 159.1 17.73 159.74 17.54 160.38 17.54 161.03 17.45 163.91 16.97 164.87 17.06 165.19 17.06 165.51 16.87 165.83 16.87 166.15 16.68 166.47 16.68 166.79 16.68 167.11 16.58 168.08 16.58 168.72 16.39 169.36 16.49 169.68 16.3 170 15.91 170.32 15.72 170.64 15.62 170.96 15.62 176.41 14.28 178.97 13.8 181.85 13.32" id="fig-5f3078dc4e364a148d6c46f8dbd34d0a-element-72"/>
      </g>
      <g stroke-width="0.79" fill="#000000" fill-opacity="0.000" class="geometry color_0.2" stroke="#00BFFF" id="fig-5f3078dc4e364a148d6c46f8dbd34d0a-element-73">
        <path fill="none" d="M21.63,46.77 L 21.95 46.77 22.27 46.67 22.59 46.67 22.91 46.67 23.23 46.67 23.55 46.67 23.87 46.67 24.52 46.67 24.84 46.67 25.48 46.58 26.12 46.48 26.44 46.48 27.08 46.39 27.4 46.29 29.64 46.1 30.6 46.1 31.25 46.1 33.49 46 33.81 45.91 34.13 45.91 34.45 45.91 34.77 45.91 35.09 45.91 35.41 45.91 35.73 45.91 36.05 45.91 36.37 45.91 36.69 45.62 37.01 45.62 37.65 45.52 37.97 45.52 38.29 45.52 38.62 45.43 38.94 46.19 39.26 45.72 39.58 45.72 39.9 45.72 40.22 45.72 40.54 45.72 40.86 45.72 41.18 45.72 41.5 45.72 41.82 45.62 42.14 45.62 42.46 45.52 42.78 45.52 44.7 45.04 45.02 45.04 45.34 44.95 45.67 44.85 45.99 44.66 46.31 44.66 46.63 44.66 46.95 44.66 47.27 44.66 47.59 44.57 48.23 44.57 48.55 44.37 48.87 44.37 49.19 44.37 49.51 44.37 49.83 44.37 50.15 44.09 50.47 44.09 51.11 43.99 51.43 43.8 51.75 43.7 52.07 43.61 52.39 43.61 52.71 43.61 53.36 43.42 53.68 43.32 54 43.22 54.32 43.22 54.96 43.03 55.6 42.84 55.92 42.84 56.24 42.84 56.56 42.84 57.52 42.84 57.84 42.84 58.16 42.74 58.48 42.74 58.8 42.74 59.12 42.65 59.44 42.65 59.76 42.65 60.41 42.55 60.73 42.55 61.37 42.55 61.69 42.55 62.01 42.27 62.33 42.27 62.97 42.46 63.29 42.46 63.61 42.27 63.93 42.17 64.25 42.17 64.57 41.98 64.89 41.98" id="fig-5f3078dc4e364a148d6c46f8dbd34d0a-element-74"/>
      </g>
    </g>
  </g>
  <g class="guide ylabels" font-size="2.82" font-family="'PT Sans Caption','Helvetica Neue','Helvetica',sans-serif" fill="#6C606B" id="fig-5f3078dc4e364a148d6c46f8dbd34d0a-element-75">
    <text x="18.63" y="54.91" text-anchor="end" dy="0.35em" id="fig-5f3078dc4e364a148d6c46f8dbd34d0a-element-76">200</text>
    <text x="18.63" y="45.33" text-anchor="end" dy="0.35em" id="fig-5f3078dc4e364a148d6c46f8dbd34d0a-element-77">300</text>
    <text x="18.63" y="35.75" text-anchor="end" dy="0.35em" id="fig-5f3078dc4e364a148d6c46f8dbd34d0a-element-78">400</text>
    <text x="18.63" y="26.17" text-anchor="end" dy="0.35em" id="fig-5f3078dc4e364a148d6c46f8dbd34d0a-element-79">500</text>
    <text x="18.63" y="16.58" text-anchor="end" dy="0.35em" id="fig-5f3078dc4e364a148d6c46f8dbd34d0a-element-80">600</text>
    <text x="18.63" y="7" text-anchor="end" dy="0.35em" id="fig-5f3078dc4e364a148d6c46f8dbd34d0a-element-81">700</text>
  </g>
</g>
<defs>
<clipPath id="fig-5f3078dc4e364a148d6c46f8dbd34d0a-element-18">
  <path d="M19.63,5 L 183.85 5 183.85 56.92 19.63 56.92" />
</clipPath
></defs>
</svg>
