<?xml version="1.0" encoding="UTF-8"?>
<svg xmlns="http://www.w3.org/2000/svg"
     xmlns:xlink="http://www.w3.org/1999/xlink"
     xmlns:gadfly="http://www.gadflyjl.org/ns"
     version="1.2"
     width="203.2mm" height="76.2mm" viewBox="0 0 203.2 76.2"
     stroke="none"
     fill="#000000"
     stroke-width="0.3"
     font-size="3.88"
>
<g class="plotroot xscalable yscalable" id="fig-d859fe15adf2423aa4cb3ae2cf8d0c9a-element-1">
  <g font-size="3.88" font-family="'PT Sans','Helvetica Neue','Helvetica',sans-serif" fill="#564A55" stroke="none" id="fig-d859fe15adf2423aa4cb3ae2cf8d0c9a-element-2">
    <text x="101.74" y="68.2" text-anchor="middle">Date</text>
  </g>
  <g class="guide xlabels" font-size="2.82" font-family="'PT Sans Caption','Helvetica Neue','Helvetica',sans-serif" fill="#6C606B" id="fig-d859fe15adf2423aa4cb3ae2cf8d0c9a-element-3">
    <text x="23.45" y="62.59" text-anchor="middle">Apr</text>
    <text x="46.37" y="62.59" text-anchor="middle">May</text>
    <text x="70.04" y="62.59" text-anchor="middle">June</text>
    <text x="92.96" y="62.59" text-anchor="middle">July</text>
    <text x="116.64" y="62.59" text-anchor="middle">Aug</text>
    <text x="140.32" y="62.59" text-anchor="middle">Sept</text>
    <text x="163.23" y="62.59" text-anchor="middle">Oct</text>
  </g>
  <g class="guide colorkey" id="fig-d859fe15adf2423aa4cb3ae2cf8d0c9a-element-4">
    <g fill="#4C404B" font-size="2.82" font-family="'PT Sans','Helvetica Neue','Helvetica',sans-serif" id="fig-d859fe15adf2423aa4cb3ae2cf8d0c9a-element-5">
      <text x="187.67" y="30.14" dy="0.35em" id="fig-d859fe15adf2423aa4cb3ae2cf8d0c9a-element-6" class="color_0.2">0.2</text>
      <text x="187.67" y="33.77" dy="0.35em" id="fig-d859fe15adf2423aa4cb3ae2cf8d0c9a-element-7" class="color_0.3">0.3</text>
      <text x="187.67" y="37.4" dy="0.35em" id="fig-d859fe15adf2423aa4cb3ae2cf8d0c9a-element-8" class="color_0.4">0.4</text>
    </g>
    <g stroke="none" id="fig-d859fe15adf2423aa4cb3ae2cf8d0c9a-element-9">
      <rect x="184.85" y="29.24" width="1.81" height="1.81" id="fig-d859fe15adf2423aa4cb3ae2cf8d0c9a-element-10" class="color_0.2" fill="#00BFFF"/>
      <rect x="184.85" y="32.86" width="1.81" height="1.81" id="fig-d859fe15adf2423aa4cb3ae2cf8d0c9a-element-11" class="color_0.3" fill="#D4CA3A"/>
      <rect x="184.85" y="36.49" width="1.81" height="1.81" id="fig-d859fe15adf2423aa4cb3ae2cf8d0c9a-element-12" class="color_0.4" fill="#FF5EA0"/>
    </g>
    <g fill="#362A35" font-size="3.88" font-family="'PT Sans','Helvetica Neue','Helvetica',sans-serif" stroke="none" id="fig-d859fe15adf2423aa4cb3ae2cf8d0c9a-element-13">
      <text x="184.85" y="26.32" id="fig-d859fe15adf2423aa4cb3ae2cf8d0c9a-element-14">Julia ver.</text>
    </g>
  </g>
  <g font-size="3.88" font-family="'PT Sans','Helvetica Neue','Helvetica',sans-serif" fill="#564A55" stroke="none" id="fig-d859fe15adf2423aa4cb3ae2cf8d0c9a-element-15">
    <text x="8.81" y="29.96" text-anchor="middle" dy="0.35em" transform="rotate(-90, 8.81, 31.96)" id="fig-d859fe15adf2423aa4cb3ae2cf8d0c9a-element-16">Number of Tagged Packages</text>
  </g>
  <g clip-path="url(#fig-d859fe15adf2423aa4cb3ae2cf8d0c9a-element-18)" id="fig-d859fe15adf2423aa4cb3ae2cf8d0c9a-element-17">
    <g pointer-events="visible" opacity="1" fill="none" stroke="none" class="guide background" id="fig-d859fe15adf2423aa4cb3ae2cf8d0c9a-element-19">
      <rect x="19.63" y="5" width="164.22" height="53.91" id="fig-d859fe15adf2423aa4cb3ae2cf8d0c9a-element-20"/>
    </g>
    <g class="guide ygridlines xfixed" stroke-dasharray="0.5,0.5" stroke-width="0.2" stroke="#D0D0E0" id="fig-d859fe15adf2423aa4cb3ae2cf8d0c9a-element-21">
      <path fill="none" d="M19.63,56.91 L 183.85 56.91" id="fig-d859fe15adf2423aa4cb3ae2cf8d0c9a-element-22"/>
      <path fill="none" d="M19.63,44.44 L 183.85 44.44" id="fig-d859fe15adf2423aa4cb3ae2cf8d0c9a-element-23"/>
      <path fill="none" d="M19.63,31.96 L 183.85 31.96" id="fig-d859fe15adf2423aa4cb3ae2cf8d0c9a-element-24"/>
      <path fill="none" d="M19.63,19.48 L 183.85 19.48" id="fig-d859fe15adf2423aa4cb3ae2cf8d0c9a-element-25"/>
      <path fill="none" d="M19.63,7 L 183.85 7" id="fig-d859fe15adf2423aa4cb3ae2cf8d0c9a-element-26"/>
    </g>
    <g class="guide xgridlines yfixed" stroke-dasharray="0.5,0.5" stroke-width="0.2" stroke="#D0D0E0" id="fig-d859fe15adf2423aa4cb3ae2cf8d0c9a-element-27">
      <path fill="none" d="M23.45,5 L 23.45 58.91" id="fig-d859fe15adf2423aa4cb3ae2cf8d0c9a-element-28"/>
      <path fill="none" d="M46.37,5 L 46.37 58.91" id="fig-d859fe15adf2423aa4cb3ae2cf8d0c9a-element-29"/>
      <path fill="none" d="M70.04,5 L 70.04 58.91" id="fig-d859fe15adf2423aa4cb3ae2cf8d0c9a-element-30"/>
      <path fill="none" d="M92.96,5 L 92.96 58.91" id="fig-d859fe15adf2423aa4cb3ae2cf8d0c9a-element-31"/>
      <path fill="none" d="M116.64,5 L 116.64 58.91" id="fig-d859fe15adf2423aa4cb3ae2cf8d0c9a-element-32"/>
      <path fill="none" d="M140.32,5 L 140.32 58.91" id="fig-d859fe15adf2423aa4cb3ae2cf8d0c9a-element-33"/>
      <path fill="none" d="M163.23,5 L 163.23 58.91" id="fig-d859fe15adf2423aa4cb3ae2cf8d0c9a-element-34"/>
    </g>
    <g class="plotpanel" id="fig-d859fe15adf2423aa4cb3ae2cf8d0c9a-element-35">
      <g stroke-width="0.79" fill="none" class="geometry color_0.4" stroke="#FF5EA0" id="fig-d859fe15adf2423aa4cb3ae2cf8d0c9a-element-36">
        <path fill="none" d="M125.8,28.46 L 126.57 27.71 127.33 27.47 128.09 27.22 128.86 27.22 129.62 27.22 131.15 26.47 131.91 26.47 132.68 26.22 133.44 26.22 134.21 26.22 134.97 25.47 135.73 24.97 136.5 24.97 138.02 24.47 138.79 23.72 140.32 23.22 141.08 23.22 141.84 23.22 144.9 23.22 147.19 21.72 147.95 21.48 148.72 21.23 149.48 20.73 150.25 20.73 151.01 20.73 151.77 18.73 152.54 18.73 153.3 18.73 154.83 18.48 155.59 18.48 156.36 18.23 157.12 18.23 157.88 18.23 158.65 17.98 159.41 17.98 160.94 18.23 161.7 17.98 162.47 17.98 163.23 17.48 163.99 16.98 164.76 16.98 165.52 16.98 166.29 16.48 168.58 15.98 169.34 15.98 170.11 15.49 170.87 15.24 171.63 15.24 172.4 15.24 173.16 14.74 173.92 14.74 174.69 14.49 175.45 14.24 176.22 14.24 176.98 14.24 177.74 14.24 178.51 13.74 179.27 13.24 180.04 13.24 180.8 13.24 181.56 12.99 182.33 12.99" id="fig-d859fe15adf2423aa4cb3ae2cf8d0c9a-element-37"/>
      </g>
      <g stroke-width="0.79" fill="none" class="geometry color_0.3" stroke="#D4CA3A" id="fig-d859fe15adf2423aa4cb3ae2cf8d0c9a-element-38">
        <path fill="none" d="M21.92,45.43 L 22.69 45.43 23.45 45.18 24.21 45.18 24.98 45.18 25.74 45.18 26.51 45.18 27.27 44.94 28.8 44.94 29.56 44.69 31.09 44.44 32.62 43.94 33.38 43.94 34.91 43.94 35.67 43.69 41.02 42.69 43.31 42.69 44.84 42.69 50.18 42.44 50.95 41.94 51.71 41.69 52.48 41.69 53.24 41.69 54 41.69 54.77 41.69 55.53 41.69 56.3 41.69 57.06 41.69 57.82 41.69 58.59 40.94 60.11 40.69 60.88 40.69 61.64 40.69 62.41 40.19 63.17 40.19 63.93 40.19 64.7 39.94 65.46 39.94 66.23 39.94 66.99 39.94 67.75 39.94 68.52 39.69 69.28 39.69 70.04 49.68 70.81 39.44 71.57 39.2 72.34 38.95 76.92 37.45 77.68 37.2 78.45 36.95 79.21 36.7 79.97 36.2 80.74 36.2 81.5 35.7 82.27 35.7 83.03 35.45 83.79 35.2 85.32 35.2 86.08 34.7 86.85 34.7 87.61 34.7 88.38 34.7 89.14 34.7 89.9 33.95 90.67 33.95 92.2 33.7 92.96 33.21 93.72 32.96 94.49 32.71 95.25 32.71 96.01 32.21 97.54 31.96 98.31 31.21 99.07 31.21 99.83 31.21 101.36 29.96 102.89 29.21 103.65 29.21 104.42 28.96 105.18 28.96 107.47 28.71 108.24 28.71 109 28.46 109.76 28.46 110.53 28.46 111.29 28.21 112.05 27.96 112.82 27.71 114.35 27.71 115.11 27.71 116.64 27.71 117.4 27.47 118.17 26.72 118.93 26.72 120.46 26.47 121.22 26.47 121.98 25.97 122.75 25.72 123.51 25.47 124.28 25.22 125.04 24.97 125.8 24.47 126.57 24.47 127.33 24.22 128.09 23.97 128.86 23.97 129.62 23.97 131.15 23.22 131.91 23.22 132.68 22.97 133.44 22.97 134.21 22.97 134.97 22.22 135.73 21.97 136.5 21.72 138.02 24.72 138.79 23.97 140.32 23.47 141.08 23.47 141.84 23.47 144.9 23.47 147.19 21.97 147.95 21.72 148.72 21.48 149.48 20.98 150.25 20.98 151.01 20.98 151.77 18.98 152.54 18.98 153.3 18.98 154.83 18.98 155.59 18.73 156.36 18.48 157.12 18.48 157.88 18.48 158.65 18.23 159.41 18.23 160.94 18.48 161.7 18.23 162.47 18.23 163.23 17.73 163.99 12.74 164.76 17.23 165.52 17.23 166.29 16.73 168.58 16.23 169.34 16.23 170.11 15.74 170.87 15.49 171.63 15.49 172.4 15.49 173.16 14.99 173.92 14.99 174.69 14.74 175.45 14.49 176.22 14.49 176.98 14.49 177.74 14.49 178.51 14.24 179.27 13.74 180.04 13.74 180.8 13.74 181.56 13.49 182.33 13.49" id="fig-d859fe15adf2423aa4cb3ae2cf8d0c9a-element-39"/>
      </g>
      <g stroke-width="0.79" fill="none" class="geometry color_0.2" stroke="#00BFFF" id="fig-d859fe15adf2423aa4cb3ae2cf8d0c9a-element-40">
        <path fill="none" d="M21.92,48.18 L 22.69 48.18 23.45 47.93 24.21 47.93 24.98 47.93 25.74 47.93 26.51 47.93 27.27 47.93 28.8 47.93 29.56 47.93 31.09 47.68 32.62 47.43 33.38 47.43 34.91 47.18 35.67 46.93 41.02 46.43 43.31 46.43 44.84 46.43 50.18 46.18 50.95 45.93 51.71 45.93 52.48 45.93 53.24 45.93 54 45.93 54.77 45.93 55.53 45.93 56.3 45.93 57.06 45.93 57.82 45.18 58.59 45.18 60.11 44.94 60.88 44.94 61.64 44.94 62.41 44.69 63.17 46.68 63.93 45.43 64.7 45.43 65.46 45.43 66.23 45.43 66.99 45.43 67.75 45.43 68.52 45.43 69.28 45.43 70.04 45.18 70.81 45.18 71.57 44.94 72.34 44.94 76.92 43.69 77.68 43.69 78.45 43.44 79.21 43.19 79.97 42.69 80.74 42.69 81.5 42.69 82.27 42.69 83.03 42.69 83.79 42.44 85.32 42.44 86.08 41.94 86.85 41.94 87.61 41.94 88.38 41.94 89.14 41.94 89.9 41.19 90.67 41.19 92.2 40.94 92.96 40.44 93.72 40.19 94.49 39.94 95.25 39.94 96.01 39.94 97.54 39.44 98.31 39.2 99.07 38.95 99.83 38.95 101.36 38.45 102.89 37.95 103.65 37.95 104.42 37.95 105.18 37.95 107.47 37.95 108.24 37.95 109 37.7 109.76 37.7 110.53 37.7 111.29 37.45 112.05 37.45 112.82 37.45 114.35 37.2 115.11 37.2 116.64 37.2 117.4 37.2 118.17 36.45 118.93 36.45 120.46 36.95 121.22 36.95 121.98 36.45 122.75 36.2 123.51 36.2 124.28 35.7 125.04 35.7" id="fig-d859fe15adf2423aa4cb3ae2cf8d0c9a-element-41"/>
      </g>
    </g>
  </g>
  <g class="guide ylabels" font-size="2.82" font-family="'PT Sans Caption','Helvetica Neue','Helvetica',sans-serif" fill="#6C606B" id="fig-d859fe15adf2423aa4cb3ae2cf8d0c9a-element-42">
    <text x="18.63" y="56.91" text-anchor="end" dy="0.35em" id="fig-d859fe15adf2423aa4cb3ae2cf8d0c9a-element-43">250</text>
    <text x="18.63" y="44.44" text-anchor="end" dy="0.35em" id="fig-d859fe15adf2423aa4cb3ae2cf8d0c9a-element-44">300</text>
    <text x="18.63" y="31.96" text-anchor="end" dy="0.35em" id="fig-d859fe15adf2423aa4cb3ae2cf8d0c9a-element-45">350</text>
    <text x="18.63" y="19.48" text-anchor="end" dy="0.35em" id="fig-d859fe15adf2423aa4cb3ae2cf8d0c9a-element-46">400</text>
    <text x="18.63" y="7" text-anchor="end" dy="0.35em" id="fig-d859fe15adf2423aa4cb3ae2cf8d0c9a-element-47">450</text>
  </g>
</g>
<defs>
<clipPath id="fig-d859fe15adf2423aa4cb3ae2cf8d0c9a-element-18">
  <path d="M19.63,5 L 183.85 5 183.85 58.91 19.63 58.91" />
</clipPath
></defs>
</svg>
