<?xml version="1.0" encoding="UTF-8"?>
<svg xmlns="http://www.w3.org/2000/svg"
     xmlns:xlink="http://www.w3.org/1999/xlink"
     xmlns:gadfly="http://www.gadflyjl.org/ns"
     version="1.2"
     width="203.2mm" height="76.2mm" viewBox="0 0 203.2 76.2"
     stroke="none"
     fill="#000000"
     stroke-width="0.3"
     font-size="3.88"
>
<g class="plotroot xscalable yscalable" id="fig-dc19abe19fc148a584726ecea10cc708-element-1">
  <g font-size="3.88" font-family="'PT Sans','Helvetica Neue','Helvetica',sans-serif" fill="#564A55" stroke="none" id="fig-dc19abe19fc148a584726ecea10cc708-element-2">
    <text x="101.74" y="68.2" text-anchor="middle">Date</text>
  </g>
  <g class="guide xlabels" font-size="2.82" font-family="'PT Sans Caption','Helvetica Neue','Helvetica',sans-serif" fill="#6C606B" id="fig-dc19abe19fc148a584726ecea10cc708-element-3">
    <text x="23.05" y="62.59" text-anchor="middle">Apr</text>
    <text x="48.71" y="62.59" text-anchor="middle">May</text>
    <text x="75.23" y="62.59" text-anchor="middle">June</text>
    <text x="100.89" y="62.59" text-anchor="middle">July</text>
    <text x="127.4" y="62.59" text-anchor="middle">Aug</text>
    <text x="153.92" y="62.59" text-anchor="middle">Sept</text>
    <text x="179.58" y="62.59" text-anchor="middle">Oct</text>
  </g>
  <g class="guide colorkey" id="fig-dc19abe19fc148a584726ecea10cc708-element-4">
    <g fill="#4C404B" font-size="2.82" font-family="'PT Sans','Helvetica Neue','Helvetica',sans-serif" id="fig-dc19abe19fc148a584726ecea10cc708-element-5">
      <text x="187.67" y="30.14" dy="0.35em" id="fig-dc19abe19fc148a584726ecea10cc708-element-6" class="color_0.2">0.2</text>
      <text x="187.67" y="33.77" dy="0.35em" id="fig-dc19abe19fc148a584726ecea10cc708-element-7" class="color_0.3">0.3</text>
      <text x="187.67" y="37.4" dy="0.35em" id="fig-dc19abe19fc148a584726ecea10cc708-element-8" class="color_0.4">0.4</text>
    </g>
    <g stroke="none" id="fig-dc19abe19fc148a584726ecea10cc708-element-9">
      <rect x="184.85" y="29.24" width="1.81" height="1.81" id="fig-dc19abe19fc148a584726ecea10cc708-element-10" fill="#00BFFF" class="color_0.2"/>
      <rect x="184.85" y="32.86" width="1.81" height="1.81" id="fig-dc19abe19fc148a584726ecea10cc708-element-11" fill="#D4CA3A" class="color_0.3"/>
      <rect x="184.85" y="36.49" width="1.81" height="1.81" id="fig-dc19abe19fc148a584726ecea10cc708-element-12" fill="#FF5EA0" class="color_0.4"/>
    </g>
    <g fill="#362A35" font-size="3.88" font-family="'PT Sans','Helvetica Neue','Helvetica',sans-serif" stroke="none" id="fig-dc19abe19fc148a584726ecea10cc708-element-13">
      <text x="184.85" y="26.32" id="fig-dc19abe19fc148a584726ecea10cc708-element-14">Julia ver.</text>
    </g>
  </g>
  <g clip-path="url(#fig-dc19abe19fc148a584726ecea10cc708-element-16)" id="fig-dc19abe19fc148a584726ecea10cc708-element-15">
    <g pointer-events="visible" opacity="1" fill="none" stroke="none" class="guide background" id="fig-dc19abe19fc148a584726ecea10cc708-element-17">
      <rect x="19.63" y="5" width="164.22" height="53.91" id="fig-dc19abe19fc148a584726ecea10cc708-element-18"/>
    </g>
    <g class="guide ygridlines xfixed" stroke-dasharray="0.5,0.5" stroke-width="0.2" stroke="#D0D0E0" id="fig-dc19abe19fc148a584726ecea10cc708-element-19">
      <path fill="none" d="M19.63,56.91 L 183.85 56.91" id="fig-dc19abe19fc148a584726ecea10cc708-element-20"/>
      <path fill="none" d="M19.63,44.44 L 183.85 44.44" id="fig-dc19abe19fc148a584726ecea10cc708-element-21"/>
      <path fill="none" d="M19.63,31.96 L 183.85 31.96" id="fig-dc19abe19fc148a584726ecea10cc708-element-22"/>
      <path fill="none" d="M19.63,19.48 L 183.85 19.48" id="fig-dc19abe19fc148a584726ecea10cc708-element-23"/>
      <path fill="none" d="M19.63,7 L 183.85 7" id="fig-dc19abe19fc148a584726ecea10cc708-element-24"/>
    </g>
    <g class="guide xgridlines yfixed" stroke-dasharray="0.5,0.5" stroke-width="0.2" stroke="#D0D0E0" id="fig-dc19abe19fc148a584726ecea10cc708-element-25">
      <path fill="none" d="M23.05,5 L 23.05 58.91" id="fig-dc19abe19fc148a584726ecea10cc708-element-26"/>
      <path fill="none" d="M48.71,5 L 48.71 58.91" id="fig-dc19abe19fc148a584726ecea10cc708-element-27"/>
      <path fill="none" d="M75.23,5 L 75.23 58.91" id="fig-dc19abe19fc148a584726ecea10cc708-element-28"/>
      <path fill="none" d="M100.89,5 L 100.89 58.91" id="fig-dc19abe19fc148a584726ecea10cc708-element-29"/>
      <path fill="none" d="M127.4,5 L 127.4 58.91" id="fig-dc19abe19fc148a584726ecea10cc708-element-30"/>
      <path fill="none" d="M153.92,5 L 153.92 58.91" id="fig-dc19abe19fc148a584726ecea10cc708-element-31"/>
      <path fill="none" d="M179.58,5 L 179.58 58.91" id="fig-dc19abe19fc148a584726ecea10cc708-element-32"/>
    </g>
    <g class="plotpanel" id="fig-dc19abe19fc148a584726ecea10cc708-element-33">
      <g stroke-width="0.79" fill="none" class="geometry color_0.4" stroke="#FF5EA0" id="fig-dc19abe19fc148a584726ecea10cc708-element-34">
        <path fill="none" d="M137.67,28.46 L 138.52 27.71 139.38 27.47 140.23 27.22 141.09 27.22 141.94 27.22 143.65 26.47 144.51 26.47 145.36 26.22 146.22 26.22 147.08 26.22 147.93 25.47 148.79 24.97 149.64 24.97 151.35 24.47 152.21 23.72 153.92 23.22 154.77 23.22 155.63 23.22 159.05 23.22 161.62 21.72 162.47 21.48 163.33 21.23 164.18 20.73 165.04 20.73 165.89 20.73 166.75 18.73 167.6 18.73 168.46 18.73 170.17 18.48 171.02 18.48 171.88 18.23 172.73 18.23 173.59 18.23 174.45 17.98 175.3 17.98 177.01 18.23 177.87 17.98 178.72 17.98 179.58 17.48 180.43 16.98 181.29 16.98" id="fig-dc19abe19fc148a584726ecea10cc708-element-35"/>
      </g>
      <g stroke-width="0.79" fill="none" class="geometry color_0.3" stroke="#D4CA3A" id="fig-dc19abe19fc148a584726ecea10cc708-element-36">
        <path fill="none" d="M21.34,45.43 L 22.2 45.43 23.05 45.18 23.91 45.18 24.76 45.18 25.62 45.18 26.47 45.18 27.33 44.94 29.04 44.94 29.9 44.69 31.61 44.44 33.32 43.94 34.17 43.94 35.88 43.94 36.74 43.69 42.73 42.69 45.29 42.69 47 42.69 52.99 42.44 53.84 41.94 54.7 41.69 55.56 41.69 56.41 41.69 57.27 41.69 58.12 41.69 58.98 41.69 59.83 41.69 60.69 41.69 61.54 41.69 62.4 40.94 64.11 40.69 64.96 40.69 65.82 40.69 66.67 40.19 67.53 40.19 68.39 40.19 69.24 39.94 70.1 39.94 70.95 39.94 71.81 39.94 72.66 39.94 73.52 39.69 74.37 39.69 75.23 49.68 76.08 39.44 76.94 39.2 77.79 38.95 82.93 37.45 83.78 37.2 84.64 36.95 85.49 36.7 86.35 36.2 87.2 36.2 88.06 35.7 88.91 35.7 89.77 35.45 90.62 35.2 92.33 35.2 93.19 34.7 94.04 34.7 94.9 34.7 95.76 34.7 96.61 34.7 97.47 33.95 98.32 33.95 100.03 33.7 100.89 33.21 101.74 32.96 102.6 32.71 103.45 32.71 104.31 32.21 106.02 31.96 106.87 31.21 107.73 31.21 108.59 31.21 110.3 29.96 112.01 29.21 112.86 29.21 113.72 28.96 114.57 28.96 117.14 28.71 117.99 28.71 118.85 28.46 119.7 28.46 120.56 28.46 121.42 28.21 122.27 27.96 123.13 27.71 124.84 27.71 125.69 27.71 127.4 27.71 128.26 27.47 129.11 26.72 129.97 26.72 131.68 26.47 132.53 26.47 133.39 25.97 134.25 25.72 135.1 25.47 135.96 25.22 136.81 24.97 137.67 24.47 138.52 24.47 139.38 24.22 140.23 23.97 141.09 23.97 141.94 23.97 143.65 23.22 144.51 23.22 145.36 22.97 146.22 22.97 147.08 22.97 147.93 22.22 148.79 21.97 149.64 21.72 151.35 24.72 152.21 23.97 153.92 23.47 154.77 23.47 155.63 23.47 159.05 23.47 161.62 21.97 162.47 21.72 163.33 21.48 164.18 20.98 165.04 20.98 165.89 20.98 166.75 18.98 167.6 18.98 168.46 18.98 170.17 18.98 171.02 18.73 171.88 18.48 172.73 18.48 173.59 18.48 174.45 18.23 175.3 18.23 177.01 18.48 177.87 18.23 178.72 18.23 179.58 17.73 180.43 12.74 181.29 17.23" id="fig-dc19abe19fc148a584726ecea10cc708-element-37"/>
      </g>
      <g stroke-width="0.79" fill="none" class="geometry color_0.2" stroke="#00BFFF" id="fig-dc19abe19fc148a584726ecea10cc708-element-38">
        <path fill="none" d="M21.34,48.18 L 22.2 48.18 23.05 47.93 23.91 47.93 24.76 47.93 25.62 47.93 26.47 47.93 27.33 47.93 29.04 47.93 29.9 47.93 31.61 47.68 33.32 47.43 34.17 47.43 35.88 47.18 36.74 46.93 42.73 46.43 45.29 46.43 47 46.43 52.99 46.18 53.84 45.93 54.7 45.93 55.56 45.93 56.41 45.93 57.27 45.93 58.12 45.93 58.98 45.93 59.83 45.93 60.69 45.93 61.54 45.18 62.4 45.18 64.11 44.94 64.96 44.94 65.82 44.94 66.67 44.69 67.53 46.68 68.39 45.43 69.24 45.43 70.1 45.43 70.95 45.43 71.81 45.43 72.66 45.43 73.52 45.43 74.37 45.43 75.23 45.18 76.08 45.18 76.94 44.94 77.79 44.94 82.93 43.69 83.78 43.69 84.64 43.44 85.49 43.19 86.35 42.69 87.2 42.69 88.06 42.69 88.91 42.69 89.77 42.69 90.62 42.44 92.33 42.44 93.19 41.94 94.04 41.94 94.9 41.94 95.76 41.94 96.61 41.94 97.47 41.19 98.32 41.19 100.03 40.94 100.89 40.44 101.74 40.19 102.6 39.94 103.45 39.94 104.31 39.94 106.02 39.44 106.87 39.2 107.73 38.95 108.59 38.95 110.3 38.45 112.01 37.95 112.86 37.95 113.72 37.95 114.57 37.95 117.14 37.95 117.99 37.95 118.85 37.7 119.7 37.7 120.56 37.7 121.42 37.45 122.27 37.45 123.13 37.45 124.84 37.2 125.69 37.2 127.4 37.2 128.26 37.2 129.11 36.45 129.97 36.45 131.68 36.95 132.53 36.95 133.39 36.45 134.25 36.2 135.1 36.2 135.96 35.7 136.81 35.7" id="fig-dc19abe19fc148a584726ecea10cc708-element-39"/>
      </g>
    </g>
  </g>
  <g class="guide ylabels" font-size="2.82" font-family="'PT Sans Caption','Helvetica Neue','Helvetica',sans-serif" fill="#6C606B" id="fig-dc19abe19fc148a584726ecea10cc708-element-40">
    <text x="18.63" y="56.91" text-anchor="end" dy="0.35em" id="fig-dc19abe19fc148a584726ecea10cc708-element-41">250</text>
    <text x="18.63" y="44.44" text-anchor="end" dy="0.35em" id="fig-dc19abe19fc148a584726ecea10cc708-element-42">300</text>
    <text x="18.63" y="31.96" text-anchor="end" dy="0.35em" id="fig-dc19abe19fc148a584726ecea10cc708-element-43">350</text>
    <text x="18.63" y="19.48" text-anchor="end" dy="0.35em" id="fig-dc19abe19fc148a584726ecea10cc708-element-44">400</text>
    <text x="18.63" y="7" text-anchor="end" dy="0.35em" id="fig-dc19abe19fc148a584726ecea10cc708-element-45">450</text>
  </g>
  <g font-size="3.88" font-family="'PT Sans','Helvetica Neue','Helvetica',sans-serif" fill="#564A55" stroke="none" id="fig-dc19abe19fc148a584726ecea10cc708-element-46">
    <text x="8.81" y="29.96" text-anchor="middle" dy="0.35em" transform="rotate(-90, 8.81, 31.96)" id="fig-dc19abe19fc148a584726ecea10cc708-element-47">Number of Tagged Packages</text>
  </g>
</g>
<defs>
<clipPath id="fig-dc19abe19fc148a584726ecea10cc708-element-16">
  <path d="M19.63,5 L 183.85 5 183.85 58.91 19.63 58.91" />
</clipPath
></defs>
</svg>
