<?xml version="1.0" encoding="UTF-8"?>
<svg xmlns="http://www.w3.org/2000/svg"
     xmlns:xlink="http://www.w3.org/1999/xlink"
     xmlns:gadfly="http://www.gadflyjl.org/ns"
     version="1.2"
     width="203.2mm" height="76.2mm" viewBox="0 0 203.2 76.2"
     stroke="none"
     fill="#000000"
     stroke-width="0.3"
     font-size="3.88"
>
<g class="plotroot xscalable yscalable" id="fig-daf25388385e49bdaf145f0db93e7b75-element-1">
  <g font-size="3.88" font-family="'PT Sans','Helvetica Neue','Helvetica',sans-serif" fill="#564A55" stroke="none" id="fig-daf25388385e49bdaf145f0db93e7b75-element-2">
    <text x="101.74" y="68.2" text-anchor="middle">Date</text>
  </g>
  <g class="guide xlabels" font-size="2.82" font-family="'PT Sans Caption','Helvetica Neue','Helvetica',sans-serif" fill="#6C606B" id="fig-daf25388385e49bdaf145f0db93e7b75-element-3">
    <text x="23.33" y="62.59" text-anchor="middle">Apr</text>
    <text x="45.52" y="62.59" text-anchor="middle">May</text>
    <text x="68.45" y="62.59" text-anchor="middle">June</text>
    <text x="90.65" y="62.59" text-anchor="middle">July</text>
    <text x="113.58" y="62.59" text-anchor="middle">Aug</text>
    <text x="136.51" y="62.59" text-anchor="middle">Sept</text>
    <text x="158.7" y="62.59" text-anchor="middle">Oct</text>
    <text x="181.63" y="62.59" text-anchor="middle">Nev</text>
  </g>
  <g class="guide colorkey" id="fig-daf25388385e49bdaf145f0db93e7b75-element-4">
    <g fill="#4C404B" font-size="2.82" font-family="'PT Sans','Helvetica Neue','Helvetica',sans-serif" id="fig-daf25388385e49bdaf145f0db93e7b75-element-5">
      <text x="187.67" y="30.14" dy="0.35em" id="fig-daf25388385e49bdaf145f0db93e7b75-element-6" class="color_0.2">0.2</text>
      <text x="187.67" y="33.77" dy="0.35em" id="fig-daf25388385e49bdaf145f0db93e7b75-element-7" class="color_0.3">0.3</text>
      <text x="187.67" y="37.4" dy="0.35em" id="fig-daf25388385e49bdaf145f0db93e7b75-element-8" class="color_0.4">0.4</text>
    </g>
    <g stroke="none" id="fig-daf25388385e49bdaf145f0db93e7b75-element-9">
      <rect x="184.85" y="29.24" width="1.81" height="1.81" id="fig-daf25388385e49bdaf145f0db93e7b75-element-10" class="color_0.2" fill="#00BFFF"/>
      <rect x="184.85" y="32.86" width="1.81" height="1.81" id="fig-daf25388385e49bdaf145f0db93e7b75-element-11" class="color_0.3" fill="#D4CA3A"/>
      <rect x="184.85" y="36.49" width="1.81" height="1.81" id="fig-daf25388385e49bdaf145f0db93e7b75-element-12" class="color_0.4" fill="#FF5EA0"/>
    </g>
    <g fill="#362A35" font-size="3.88" font-family="'PT Sans','Helvetica Neue','Helvetica',sans-serif" stroke="none" id="fig-daf25388385e49bdaf145f0db93e7b75-element-13">
      <text x="184.85" y="26.32" id="fig-daf25388385e49bdaf145f0db93e7b75-element-14">Julia ver.</text>
    </g>
  </g>
  <g font-size="3.88" font-family="'PT Sans','Helvetica Neue','Helvetica',sans-serif" fill="#564A55" stroke="none" id="fig-daf25388385e49bdaf145f0db93e7b75-element-15">
    <text x="8.81" y="29.96" text-anchor="middle" dy="0.35em" transform="rotate(-90, 8.81, 31.96)" id="fig-daf25388385e49bdaf145f0db93e7b75-element-16">Number of Tagged Packages</text>
  </g>
  <g clip-path="url(#fig-daf25388385e49bdaf145f0db93e7b75-element-18)" id="fig-daf25388385e49bdaf145f0db93e7b75-element-17">
    <g pointer-events="visible" opacity="1" fill="none" stroke="none" class="guide background" id="fig-daf25388385e49bdaf145f0db93e7b75-element-19">
      <rect x="19.63" y="5" width="164.22" height="53.91" id="fig-daf25388385e49bdaf145f0db93e7b75-element-20"/>
    </g>
    <g class="guide ygridlines xfixed" stroke-dasharray="0.5,0.5" stroke-width="0.2" stroke="#D0D0E0" id="fig-daf25388385e49bdaf145f0db93e7b75-element-21">
      <path fill="none" d="M19.63,56.91 L 183.85 56.91" id="fig-daf25388385e49bdaf145f0db93e7b75-element-22"/>
      <path fill="none" d="M19.63,44.44 L 183.85 44.44" id="fig-daf25388385e49bdaf145f0db93e7b75-element-23"/>
      <path fill="none" d="M19.63,31.96 L 183.85 31.96" id="fig-daf25388385e49bdaf145f0db93e7b75-element-24"/>
      <path fill="none" d="M19.63,19.48 L 183.85 19.48" id="fig-daf25388385e49bdaf145f0db93e7b75-element-25"/>
      <path fill="none" d="M19.63,7 L 183.85 7" id="fig-daf25388385e49bdaf145f0db93e7b75-element-26"/>
    </g>
    <g class="guide xgridlines yfixed" stroke-dasharray="0.5,0.5" stroke-width="0.2" stroke="#D0D0E0" id="fig-daf25388385e49bdaf145f0db93e7b75-element-27">
      <path fill="none" d="M23.33,5 L 23.33 58.91" id="fig-daf25388385e49bdaf145f0db93e7b75-element-28"/>
      <path fill="none" d="M45.52,5 L 45.52 58.91" id="fig-daf25388385e49bdaf145f0db93e7b75-element-29"/>
      <path fill="none" d="M68.45,5 L 68.45 58.91" id="fig-daf25388385e49bdaf145f0db93e7b75-element-30"/>
      <path fill="none" d="M90.65,5 L 90.65 58.91" id="fig-daf25388385e49bdaf145f0db93e7b75-element-31"/>
      <path fill="none" d="M113.58,5 L 113.58 58.91" id="fig-daf25388385e49bdaf145f0db93e7b75-element-32"/>
      <path fill="none" d="M136.51,5 L 136.51 58.91" id="fig-daf25388385e49bdaf145f0db93e7b75-element-33"/>
      <path fill="none" d="M158.7,5 L 158.7 58.91" id="fig-daf25388385e49bdaf145f0db93e7b75-element-34"/>
      <path fill="none" d="M181.63,5 L 181.63 58.91" id="fig-daf25388385e49bdaf145f0db93e7b75-element-35"/>
    </g>
    <g class="plotpanel" id="fig-daf25388385e49bdaf145f0db93e7b75-element-36">
      <g stroke-width="0.79" fill="none" class="geometry color_0.4" stroke="#FF5EA0" id="fig-daf25388385e49bdaf145f0db93e7b75-element-37">
        <path fill="none" d="M122.46,28.46 L 123.2 27.71 123.94 27.47 124.67 27.22 125.41 27.22 126.15 27.22 127.63 26.47 128.37 26.47 129.11 26.22 129.85 26.22 130.59 26.22 131.33 25.47 132.07 24.97 132.81 24.97 134.29 24.47 135.03 23.72 136.51 23.22 137.25 23.22 137.99 23.22 140.95 23.22 143.17 21.72 143.91 21.48 144.65 21.23 145.39 20.73 146.13 20.73 146.87 20.73 147.61 18.73 148.35 18.73 149.09 18.73 150.57 18.48 151.31 18.48 152.05 18.23 152.79 18.23 153.52 18.23 154.26 17.98 155 17.98 156.48 18.23 157.22 17.98 157.96 17.98 158.7 17.48 159.44 16.98 160.18 16.98 160.92 16.98 161.66 16.48 163.88 15.98 164.62 15.98 165.36 15.49 166.1 15.24 166.84 15.24 167.58 15.24 168.32 14.74 169.06 14.74 169.8 14.49 170.54 14.24 171.28 14.24 172.02 14.24 172.76 14.24 173.5 13.74 174.24 13.24 174.98 13.24 175.72 13.24 176.46 12.99 177.2 12.99 177.94 12.74 178.68 12.74 179.42 12.24 180.16 11.99 180.9 11.99 181.63 11.74 182.37 11.74" id="fig-daf25388385e49bdaf145f0db93e7b75-element-38"/>
      </g>
      <g stroke-width="0.79" fill="none" class="geometry color_0.3" stroke="#D4CA3A" id="fig-daf25388385e49bdaf145f0db93e7b75-element-39">
        <path fill="none" d="M21.85,45.43 L 22.59 45.43 23.33 45.18 24.07 45.18 24.81 45.18 25.55 45.18 26.29 45.18 27.03 44.94 28.51 44.94 29.25 44.69 30.73 44.44 32.21 43.94 32.95 43.94 34.43 43.94 35.17 43.69 40.34 42.69 42.56 42.69 44.04 42.69 49.22 42.44 49.96 41.94 50.7 41.69 51.44 41.69 52.18 41.69 52.92 41.69 53.66 41.69 54.4 41.69 55.14 41.69 55.88 41.69 56.62 41.69 57.36 40.94 58.84 40.69 59.58 40.69 60.32 40.69 61.06 40.19 61.8 40.19 62.54 40.19 63.28 39.94 64.02 39.94 64.76 39.94 65.5 39.94 66.24 39.94 66.98 39.69 67.71 39.69 68.45 49.68 69.19 39.44 69.93 39.2 70.67 38.95 75.11 37.45 75.85 37.2 76.59 36.95 77.33 36.7 78.07 36.2 78.81 36.2 79.55 35.7 80.29 35.7 81.03 35.45 81.77 35.2 83.25 35.2 83.99 34.7 84.73 34.7 85.47 34.7 86.21 34.7 86.95 34.7 87.69 33.95 88.43 33.95 89.91 33.7 90.65 33.21 91.39 32.96 92.13 32.71 92.87 32.71 93.61 32.21 95.09 31.96 95.82 31.21 96.56 31.21 97.3 31.21 98.78 29.96 100.26 29.21 101 29.21 101.74 28.96 102.48 28.96 104.7 28.71 105.44 28.71 106.18 28.46 106.92 28.46 107.66 28.46 108.4 28.21 109.14 27.96 109.88 27.71 111.36 27.71 112.1 27.71 113.58 27.71 114.32 27.47 115.06 26.72 115.8 26.72 117.28 26.47 118.02 26.47 118.76 25.97 119.5 25.72 120.24 25.47 120.98 25.22 121.72 24.97 122.46 24.47 123.2 24.47 123.94 24.22 124.67 23.97 125.41 23.97 126.15 23.97 127.63 23.22 128.37 23.22 129.11 22.97 129.85 22.97 130.59 22.97 131.33 22.22 132.07 21.97 132.81 21.72 134.29 24.72 135.03 23.97 136.51 23.47 137.25 23.47 137.99 23.47 140.95 23.47 143.17 21.97 143.91 21.72 144.65 21.48 145.39 20.98 146.13 20.98 146.87 20.98 147.61 18.98 148.35 18.98 149.09 18.98 150.57 18.98 151.31 18.73 152.05 18.48 152.79 18.48 153.52 18.48 154.26 18.23 155 18.23 156.48 18.48 157.22 18.23 157.96 18.23 158.7 17.73 159.44 12.74 160.18 17.23 160.92 17.23 161.66 16.73 163.88 16.23 164.62 16.23 165.36 15.74 166.1 15.49 166.84 15.49 167.58 15.49 168.32 14.99 169.06 14.99 169.8 14.74 170.54 14.49 171.28 14.49 172.02 14.49 172.76 14.49 173.5 14.24 174.24 13.74 174.98 13.74 175.72 13.74 176.46 13.49 177.2 13.49 177.94 13.24 178.68 13.24 179.42 12.74 180.16 12.49 180.9 12.49 181.63 12.24 182.37 12.24" id="fig-daf25388385e49bdaf145f0db93e7b75-element-40"/>
      </g>
      <g stroke-width="0.79" fill="none" class="geometry color_0.2" stroke="#00BFFF" id="fig-daf25388385e49bdaf145f0db93e7b75-element-41">
        <path fill="none" d="M21.85,48.18 L 22.59 48.18 23.33 47.93 24.07 47.93 24.81 47.93 25.55 47.93 26.29 47.93 27.03 47.93 28.51 47.93 29.25 47.93 30.73 47.68 32.21 47.43 32.95 47.43 34.43 47.18 35.17 46.93 40.34 46.43 42.56 46.43 44.04 46.43 49.22 46.18 49.96 45.93 50.7 45.93 51.44 45.93 52.18 45.93 52.92 45.93 53.66 45.93 54.4 45.93 55.14 45.93 55.88 45.93 56.62 45.18 57.36 45.18 58.84 44.94 59.58 44.94 60.32 44.94 61.06 44.69 61.8 46.68 62.54 45.43 63.28 45.43 64.02 45.43 64.76 45.43 65.5 45.43 66.24 45.43 66.98 45.43 67.71 45.43 68.45 45.18 69.19 45.18 69.93 44.94 70.67 44.94 75.11 43.69 75.85 43.69 76.59 43.44 77.33 43.19 78.07 42.69 78.81 42.69 79.55 42.69 80.29 42.69 81.03 42.69 81.77 42.44 83.25 42.44 83.99 41.94 84.73 41.94 85.47 41.94 86.21 41.94 86.95 41.94 87.69 41.19 88.43 41.19 89.91 40.94 90.65 40.44 91.39 40.19 92.13 39.94 92.87 39.94 93.61 39.94 95.09 39.44 95.82 39.2 96.56 38.95 97.3 38.95 98.78 38.45 100.26 37.95 101 37.95 101.74 37.95 102.48 37.95 104.7 37.95 105.44 37.95 106.18 37.7 106.92 37.7 107.66 37.7 108.4 37.45 109.14 37.45 109.88 37.45 111.36 37.2 112.1 37.2 113.58 37.2 114.32 37.2 115.06 36.45 115.8 36.45 117.28 36.95 118.02 36.95 118.76 36.45 119.5 36.2 120.24 36.2 120.98 35.7 121.72 35.7" id="fig-daf25388385e49bdaf145f0db93e7b75-element-42"/>
      </g>
    </g>
  </g>
  <g class="guide ylabels" font-size="2.82" font-family="'PT Sans Caption','Helvetica Neue','Helvetica',sans-serif" fill="#6C606B" id="fig-daf25388385e49bdaf145f0db93e7b75-element-43">
    <text x="18.63" y="56.91" text-anchor="end" dy="0.35em" id="fig-daf25388385e49bdaf145f0db93e7b75-element-44">250</text>
    <text x="18.63" y="44.44" text-anchor="end" dy="0.35em" id="fig-daf25388385e49bdaf145f0db93e7b75-element-45">300</text>
    <text x="18.63" y="31.96" text-anchor="end" dy="0.35em" id="fig-daf25388385e49bdaf145f0db93e7b75-element-46">350</text>
    <text x="18.63" y="19.48" text-anchor="end" dy="0.35em" id="fig-daf25388385e49bdaf145f0db93e7b75-element-47">400</text>
    <text x="18.63" y="7" text-anchor="end" dy="0.35em" id="fig-daf25388385e49bdaf145f0db93e7b75-element-48">450</text>
  </g>
</g>
<defs>
<clipPath id="fig-daf25388385e49bdaf145f0db93e7b75-element-18">
  <path d="M19.63,5 L 183.85 5 183.85 58.91 19.63 58.91" />
</clipPath
></defs>
</svg>
