<?xml version="1.0" encoding="UTF-8"?>
<svg xmlns="http://www.w3.org/2000/svg"
     xmlns:xlink="http://www.w3.org/1999/xlink"
     xmlns:gadfly="http://www.gadflyjl.org/ns"
     version="1.2"
     width="203.2mm" height="76.2mm" viewBox="0 0 203.2 76.2"
     stroke="none"
     fill="#000000"
     stroke-width="0.3"
     font-size="3.88"
>
<g class="plotroot xscalable yscalable" id="fig-9b03d579f0204a7eb4523bfd60939bdb-element-1">
  <g font-size="3.88" font-family="'PT Sans','Helvetica Neue','Helvetica',sans-serif" fill="#564A55" stroke="none" id="fig-9b03d579f0204a7eb4523bfd60939bdb-element-2">
    <text x="101.74" y="68.2" text-anchor="middle">Date</text>
  </g>
  <g class="guide xlabels" font-size="2.82" font-family="'PT Sans Caption','Helvetica Neue','Helvetica',sans-serif" fill="#6C606B" id="fig-9b03d579f0204a7eb4523bfd60939bdb-element-3">
    <text x="22.51" y="62.59" text-anchor="middle">Apr</text>
    <text x="39.8" y="62.59" text-anchor="middle">May</text>
    <text x="57.66" y="62.59" text-anchor="middle">Jun</text>
    <text x="74.95" y="62.59" text-anchor="middle">Jul</text>
    <text x="92.81" y="62.59" text-anchor="middle">Aug</text>
    <text x="110.67" y="62.59" text-anchor="middle">Sep</text>
    <text x="127.96" y="62.59" text-anchor="middle">Oct</text>
    <text x="145.82" y="62.59" text-anchor="middle">Nov</text>
    <text x="163.11" y="62.59" text-anchor="middle">Dec</text>
    <text x="180.97" y="62.59" text-anchor="middle">Jan 2015</text>
  </g>
  <g class="guide colorkey" id="fig-9b03d579f0204a7eb4523bfd60939bdb-element-4">
    <g fill="#4C404B" font-size="2.82" font-family="'PT Sans','Helvetica Neue','Helvetica',sans-serif" id="fig-9b03d579f0204a7eb4523bfd60939bdb-element-5">
      <text x="187.67" y="30.14" dy="0.35em" id="fig-9b03d579f0204a7eb4523bfd60939bdb-element-6" class="color_0.2">0.2</text>
      <text x="187.67" y="33.77" dy="0.35em" id="fig-9b03d579f0204a7eb4523bfd60939bdb-element-7" class="color_0.3">0.3</text>
      <text x="187.67" y="37.4" dy="0.35em" id="fig-9b03d579f0204a7eb4523bfd60939bdb-element-8" class="color_0.4">0.4</text>
    </g>
    <g stroke="none" id="fig-9b03d579f0204a7eb4523bfd60939bdb-element-9">
      <rect x="184.85" y="29.24" width="1.81" height="1.81" id="fig-9b03d579f0204a7eb4523bfd60939bdb-element-10" class="color_0.2" fill="#00BFFF"/>
      <rect x="184.85" y="32.86" width="1.81" height="1.81" id="fig-9b03d579f0204a7eb4523bfd60939bdb-element-11" class="color_0.3" fill="#D4CA3A"/>
      <rect x="184.85" y="36.49" width="1.81" height="1.81" id="fig-9b03d579f0204a7eb4523bfd60939bdb-element-12" class="color_0.4" fill="#FF5EA0"/>
    </g>
    <g fill="#362A35" font-size="3.88" font-family="'PT Sans','Helvetica Neue','Helvetica',sans-serif" stroke="none" id="fig-9b03d579f0204a7eb4523bfd60939bdb-element-13">
      <text x="184.85" y="26.32" id="fig-9b03d579f0204a7eb4523bfd60939bdb-element-14">Julia ver.</text>
    </g>
  </g>
  <g font-size="3.88" font-family="'PT Sans','Helvetica Neue','Helvetica',sans-serif" fill="#564A55" stroke="none" id="fig-9b03d579f0204a7eb4523bfd60939bdb-element-15">
    <text x="8.81" y="29.96" text-anchor="middle" dy="0.35em" transform="rotate(-90, 8.81, 31.96)" id="fig-9b03d579f0204a7eb4523bfd60939bdb-element-16">Number of Tagged Packages</text>
  </g>
  <g clip-path="url(#fig-9b03d579f0204a7eb4523bfd60939bdb-element-18)" id="fig-9b03d579f0204a7eb4523bfd60939bdb-element-17">
    <g pointer-events="visible" opacity="1" fill="none" stroke="none" class="guide background" id="fig-9b03d579f0204a7eb4523bfd60939bdb-element-19">
      <rect x="19.63" y="5" width="164.22" height="53.91" id="fig-9b03d579f0204a7eb4523bfd60939bdb-element-20"/>
    </g>
    <g class="guide ygridlines xfixed" stroke-dasharray="0.5,0.5" stroke-width="0.2" stroke="#D0D0E0" id="fig-9b03d579f0204a7eb4523bfd60939bdb-element-21">
      <path fill="none" d="M19.63,56.91 L 183.85 56.91" id="fig-9b03d579f0204a7eb4523bfd60939bdb-element-22"/>
      <path fill="none" d="M19.63,46.93 L 183.85 46.93" id="fig-9b03d579f0204a7eb4523bfd60939bdb-element-23"/>
      <path fill="none" d="M19.63,36.95 L 183.85 36.95" id="fig-9b03d579f0204a7eb4523bfd60939bdb-element-24"/>
      <path fill="none" d="M19.63,26.97 L 183.85 26.97" id="fig-9b03d579f0204a7eb4523bfd60939bdb-element-25"/>
      <path fill="none" d="M19.63,16.98 L 183.85 16.98" id="fig-9b03d579f0204a7eb4523bfd60939bdb-element-26"/>
      <path fill="none" d="M19.63,7 L 183.85 7" id="fig-9b03d579f0204a7eb4523bfd60939bdb-element-27"/>
    </g>
    <g class="guide xgridlines yfixed" stroke-dasharray="0.5,0.5" stroke-width="0.2" stroke="#D0D0E0" id="fig-9b03d579f0204a7eb4523bfd60939bdb-element-28">
      <path fill="none" d="M22.51,5 L 22.51 58.91" id="fig-9b03d579f0204a7eb4523bfd60939bdb-element-29"/>
      <path fill="none" d="M39.8,5 L 39.8 58.91" id="fig-9b03d579f0204a7eb4523bfd60939bdb-element-30"/>
      <path fill="none" d="M57.66,5 L 57.66 58.91" id="fig-9b03d579f0204a7eb4523bfd60939bdb-element-31"/>
      <path fill="none" d="M74.95,5 L 74.95 58.91" id="fig-9b03d579f0204a7eb4523bfd60939bdb-element-32"/>
      <path fill="none" d="M92.81,5 L 92.81 58.91" id="fig-9b03d579f0204a7eb4523bfd60939bdb-element-33"/>
      <path fill="none" d="M110.67,5 L 110.67 58.91" id="fig-9b03d579f0204a7eb4523bfd60939bdb-element-34"/>
      <path fill="none" d="M127.96,5 L 127.96 58.91" id="fig-9b03d579f0204a7eb4523bfd60939bdb-element-35"/>
      <path fill="none" d="M145.82,5 L 145.82 58.91" id="fig-9b03d579f0204a7eb4523bfd60939bdb-element-36"/>
      <path fill="none" d="M163.11,5 L 163.11 58.91" id="fig-9b03d579f0204a7eb4523bfd60939bdb-element-37"/>
      <path fill="none" d="M180.97,5 L 180.97 58.91" id="fig-9b03d579f0204a7eb4523bfd60939bdb-element-38"/>
    </g>
    <g class="plotpanel" id="fig-9b03d579f0204a7eb4523bfd60939bdb-element-39">
      <g stroke-width="0.79" fill="none" class="geometry color_0.4" stroke="#FF5EA0" id="fig-9b03d579f0204a7eb4523bfd60939bdb-element-40">
        <path fill="none" d="M99.73,34.15 L 100.3 33.55 100.88 33.36 101.45 33.16 102.03 33.16 102.61 33.16 103.76 32.56 104.34 32.56 104.91 32.36 105.49 32.36 106.06 32.36 106.64 31.76 107.22 31.36 107.79 31.36 108.95 30.96 109.52 30.36 110.67 29.96 111.25 29.96 111.83 29.96 114.13 29.96 115.86 28.76 116.44 28.56 117.01 28.36 117.59 27.96 118.17 27.96 118.74 27.96 119.32 26.37 119.89 26.37 120.47 26.37 121.62 26.17 122.2 26.17 122.77 25.97 123.35 25.97 123.93 25.97 124.5 25.77 125.08 25.77 126.23 25.97 126.81 25.77 127.38 25.77 127.96 25.37 128.54 24.97 129.11 24.97 129.69 24.97 130.27 24.57 131.99 24.17 132.57 24.17 133.15 23.77 133.72 23.57 134.3 23.57 134.88 23.57 135.45 23.17 136.03 23.17 136.6 22.97 137.18 22.77 137.76 22.77 138.33 22.77 138.91 22.77 139.49 22.37 140.06 21.97 140.64 21.97 141.21 21.97 141.79 21.77 142.37 21.77 142.94 21.58 143.52 21.58 144.1 21.18 144.67 20.98 145.25 20.98 145.82 20.78 146.4 20.78 146.98 20.78 147.55 20.78 148.13 20.58 148.7 20.38 150.43 20.38 153.31 19.18 153.89 18.78 154.47 18.78 155.04 18.58 155.62 18.58 156.2 17.98 156.77 17.98 159.08 16.98 159.65 16.98 162.53 16.78 163.69 16.78 164.26 16.38 164.84 16.18 165.42 16.18 165.99 16.18 166.57 15.79 167.14 15.39 168.87 15.19 169.45 14.99 170.6 14.19 171.18 14.19 171.75 14.19 173.48 14.19 174.63 13.79 176.36 13.39 178.67 12.99 179.82 12.19 181.55 11.79" id="fig-9b03d579f0204a7eb4523bfd60939bdb-element-41"/>
      </g>
      <g stroke-width="0.79" fill="none" class="geometry color_0.3" stroke="#D4CA3A" id="fig-9b03d579f0204a7eb4523bfd60939bdb-element-42">
        <path fill="none" d="M21.36,47.73 L 21.94 47.73 22.51 47.53 23.09 47.53 23.67 47.53 24.24 47.53 24.82 47.53 25.39 47.33 26.55 47.33 27.12 47.13 28.27 46.93 29.43 46.53 30 46.53 31.16 46.53 31.73 46.33 35.77 45.53 37.49 45.53 38.65 45.53 42.68 45.33 43.26 44.94 43.83 44.74 44.41 44.74 44.99 44.74 45.56 44.74 46.14 44.74 46.71 44.74 47.29 44.74 47.87 44.74 48.44 44.74 49.02 44.14 50.17 43.94 50.75 43.94 51.32 43.94 51.9 43.54 52.48 43.54 53.05 43.54 53.63 43.34 54.2 43.34 54.78 43.34 55.36 43.34 55.93 43.34 56.51 43.14 57.09 43.14 57.66 51.12 58.24 42.94 58.81 42.74 59.39 42.54 62.85 41.34 63.42 41.14 64 40.94 64.58 40.74 65.15 40.34 65.73 40.34 66.31 39.94 66.88 39.94 67.46 39.74 68.03 39.54 69.19 39.54 69.76 39.15 70.34 39.15 70.92 39.15 71.49 39.15 72.07 39.15 72.64 38.55 73.22 38.55 74.37 38.35 74.95 37.95 75.52 37.75 76.1 37.55 76.68 37.55 77.25 37.15 78.41 36.95 78.98 36.35 79.56 36.35 80.13 36.35 81.29 35.35 82.44 34.75 83.02 34.75 83.59 34.55 84.17 34.55 85.9 34.35 86.47 34.35 87.05 34.15 87.63 34.15 88.2 34.15 88.78 33.95 89.35 33.75 89.93 33.55 91.08 33.55 91.66 33.55 92.81 33.55 93.39 33.36 93.96 32.76 94.54 32.76 95.69 32.56 96.27 32.56 96.85 32.16 97.42 31.96 98 31.76 98.57 31.56 99.15 31.36 99.73 30.96 100.3 30.96 100.88 30.76 101.45 30.56 102.03 30.56 102.61 30.56 103.76 29.96 104.34 29.96 104.91 29.76 105.49 29.76 106.06 29.76 106.64 29.16 107.22 28.96 107.79 28.76 108.95 31.16 109.52 30.56 110.67 30.16 111.25 30.16 111.83 30.16 114.13 30.16 115.86 28.96 116.44 28.76 117.01 28.56 117.59 28.16 118.17 28.16 118.74 28.16 119.32 26.57 119.89 26.57 120.47 26.57 121.62 26.57 122.2 26.37 122.77 26.17 123.35 26.17 123.93 26.17 124.5 25.97 125.08 25.97 126.23 26.17 126.81 25.97 127.38 25.97 127.96 25.57 128.54 21.58 129.11 25.17 129.69 25.17 130.27 24.77 131.99 24.37 132.57 24.37 133.15 23.97 133.72 23.77 134.3 23.77 134.88 23.77 135.45 23.37 136.03 23.37 136.6 23.17 137.18 22.97 137.76 22.97 138.33 22.97 138.91 22.97 139.49 22.77 140.06 22.37 140.64 22.37 141.21 22.37 141.79 22.17 142.37 22.17 142.94 21.97 143.52 21.97 144.1 21.58 144.67 21.38 145.25 21.38 145.82 21.18 146.4 21.18 146.98 21.18 147.55 20.98 148.13 20.98 148.7 20.78 150.43 20.78 153.31 19.78 153.89 19.38 154.47 19.38 155.04 19.18 155.62 19.18 156.2 18.58 156.77 18.58 159.08 17.58 159.65 17.58 162.53 17.38 163.69 17.38 164.26 17.18 164.84 16.98 165.42 16.98 165.99 16.98 166.57 16.58 167.14 16.38 168.87 15.98 169.45 15.79 170.6 15.19 171.18 14.99 171.75 14.99 173.48 14.99 174.63 14.59 176.36 14.19 178.67 13.79 179.82 13.19 181.55 12.39" id="fig-9b03d579f0204a7eb4523bfd60939bdb-element-43"/>
      </g>
      <g stroke-width="0.79" fill="none" class="geometry color_0.2" stroke="#00BFFF" id="fig-9b03d579f0204a7eb4523bfd60939bdb-element-44">
        <path fill="none" d="M21.36,49.93 L 21.94 49.93 22.51 49.73 23.09 49.73 23.67 49.73 24.24 49.73 24.82 49.73 25.39 49.73 26.55 49.73 27.12 49.73 28.27 49.53 29.43 49.33 30 49.33 31.16 49.13 31.73 48.93 35.77 48.53 37.49 48.53 38.65 48.53 42.68 48.33 43.26 48.13 43.83 48.13 44.41 48.13 44.99 48.13 45.56 48.13 46.14 48.13 46.71 48.13 47.29 48.13 47.87 48.13 48.44 47.53 49.02 47.53 50.17 47.33 50.75 47.33 51.32 47.33 51.9 47.13 52.48 48.73 53.05 47.73 53.63 47.73 54.2 47.73 54.78 47.73 55.36 47.73 55.93 47.73 56.51 47.73 57.09 47.73 57.66 47.53 58.24 47.53 58.81 47.33 59.39 47.33 62.85 46.33 63.42 46.33 64 46.13 64.58 45.93 65.15 45.53 65.73 45.53 66.31 45.53 66.88 45.53 67.46 45.53 68.03 45.33 69.19 45.33 69.76 44.94 70.34 44.94 70.92 44.94 71.49 44.94 72.07 44.94 72.64 44.34 73.22 44.34 74.37 44.14 74.95 43.74 75.52 43.54 76.1 43.34 76.68 43.34 77.25 43.34 78.41 42.94 78.98 42.74 79.56 42.54 80.13 42.54 81.29 42.14 82.44 41.74 83.02 41.74 83.59 41.74 84.17 41.74 85.9 41.74 86.47 41.74 87.05 41.54 87.63 41.54 88.2 41.54 88.78 41.34 89.35 41.34 89.93 41.34 91.08 41.14 91.66 41.14 92.81 41.14 93.39 41.14 93.96 40.54 94.54 40.54 95.69 40.94 96.27 40.94 96.85 40.54 97.42 40.34 98 40.34 98.57 39.94 99.15 39.94" id="fig-9b03d579f0204a7eb4523bfd60939bdb-element-45"/>
      </g>
    </g>
  </g>
  <g class="guide ylabels" font-size="2.82" font-family="'PT Sans Caption','Helvetica Neue','Helvetica',sans-serif" fill="#6C606B" id="fig-9b03d579f0204a7eb4523bfd60939bdb-element-46">
    <text x="18.63" y="56.91" text-anchor="end" dy="0.35em" id="fig-9b03d579f0204a7eb4523bfd60939bdb-element-47">250</text>
    <text x="18.63" y="46.93" text-anchor="end" dy="0.35em" id="fig-9b03d579f0204a7eb4523bfd60939bdb-element-48">300</text>
    <text x="18.63" y="36.95" text-anchor="end" dy="0.35em" id="fig-9b03d579f0204a7eb4523bfd60939bdb-element-49">350</text>
    <text x="18.63" y="26.97" text-anchor="end" dy="0.35em" id="fig-9b03d579f0204a7eb4523bfd60939bdb-element-50">400</text>
    <text x="18.63" y="16.98" text-anchor="end" dy="0.35em" id="fig-9b03d579f0204a7eb4523bfd60939bdb-element-51">450</text>
    <text x="18.63" y="7" text-anchor="end" dy="0.35em" id="fig-9b03d579f0204a7eb4523bfd60939bdb-element-52">500</text>
  </g>
</g>
<defs>
<clipPath id="fig-9b03d579f0204a7eb4523bfd60939bdb-element-18">
  <path d="M19.63,5 L 183.85 5 183.85 58.91 19.63 58.91" />
</clipPath
></defs>
</svg>
