<?xml version="1.0" encoding="UTF-8"?>
<svg xmlns="http://www.w3.org/2000/svg"
     xmlns:xlink="http://www.w3.org/1999/xlink"
     xmlns:gadfly="http://www.gadflyjl.org/ns"
     version="1.2"
     width="203.2mm" height="76.2mm" viewBox="0 0 203.2 76.2"
     stroke="none"
     fill="#000000"
     stroke-width="0.3"
     font-size="3.88"
>
<g class="plotroot xscalable yscalable" id="fig-82f03b4a2a2e4a57bd3c381c8fdf8674-element-1">
  <g font-size="3.88" font-family="'PT Sans','Helvetica Neue','Helvetica',sans-serif" fill="#564A55" stroke="none" id="fig-82f03b4a2a2e4a57bd3c381c8fdf8674-element-2">
    <text x="101.74" y="68.2" text-anchor="middle">Date</text>
  </g>
  <g class="guide xlabels" font-size="2.82" font-family="'PT Sans Caption','Helvetica Neue','Helvetica',sans-serif" fill="#6C606B" id="fig-82f03b4a2a2e4a57bd3c381c8fdf8674-element-3">
    <text x="23.54" y="62.59" text-anchor="middle">Apr</text>
    <text x="47" y="62.59" text-anchor="middle">May</text>
    <text x="71.24" y="62.59" text-anchor="middle">June</text>
    <text x="94.7" y="62.59" text-anchor="middle">July</text>
    <text x="118.95" y="62.59" text-anchor="middle">Aug</text>
    <text x="143.19" y="62.59" text-anchor="middle">Sept</text>
    <text x="166.65" y="62.59" text-anchor="middle">Oct</text>
  </g>
  <g class="guide colorkey" id="fig-82f03b4a2a2e4a57bd3c381c8fdf8674-element-4">
    <g fill="#4C404B" font-size="2.82" font-family="'PT Sans','Helvetica Neue','Helvetica',sans-serif" id="fig-82f03b4a2a2e4a57bd3c381c8fdf8674-element-5">
      <text x="187.67" y="30.14" dy="0.35em" id="fig-82f03b4a2a2e4a57bd3c381c8fdf8674-element-6" class="color_0.2">0.2</text>
      <text x="187.67" y="33.77" dy="0.35em" id="fig-82f03b4a2a2e4a57bd3c381c8fdf8674-element-7" class="color_0.3">0.3</text>
      <text x="187.67" y="37.4" dy="0.35em" id="fig-82f03b4a2a2e4a57bd3c381c8fdf8674-element-8" class="color_0.4">0.4</text>
    </g>
    <g stroke="none" id="fig-82f03b4a2a2e4a57bd3c381c8fdf8674-element-9">
      <rect x="184.85" y="29.24" width="1.81" height="1.81" id="fig-82f03b4a2a2e4a57bd3c381c8fdf8674-element-10" fill="#00BFFF" class="color_0.2"/>
      <rect x="184.85" y="32.86" width="1.81" height="1.81" id="fig-82f03b4a2a2e4a57bd3c381c8fdf8674-element-11" fill="#D4CA3A" class="color_0.3"/>
      <rect x="184.85" y="36.49" width="1.81" height="1.81" id="fig-82f03b4a2a2e4a57bd3c381c8fdf8674-element-12" fill="#FF5EA0" class="color_0.4"/>
    </g>
    <g fill="#362A35" font-size="3.88" font-family="'PT Sans','Helvetica Neue','Helvetica',sans-serif" stroke="none" id="fig-82f03b4a2a2e4a57bd3c381c8fdf8674-element-13">
      <text x="184.85" y="26.32" id="fig-82f03b4a2a2e4a57bd3c381c8fdf8674-element-14">Julia ver.</text>
    </g>
  </g>
  <g font-size="3.88" font-family="'PT Sans','Helvetica Neue','Helvetica',sans-serif" fill="#564A55" stroke="none" id="fig-82f03b4a2a2e4a57bd3c381c8fdf8674-element-15">
    <text x="8.81" y="29.96" text-anchor="middle" dy="0.35em" transform="rotate(-90, 8.81, 31.96)" id="fig-82f03b4a2a2e4a57bd3c381c8fdf8674-element-16">Number of Tagged Packages</text>
  </g>
  <g clip-path="url(#fig-82f03b4a2a2e4a57bd3c381c8fdf8674-element-18)" id="fig-82f03b4a2a2e4a57bd3c381c8fdf8674-element-17">
    <g pointer-events="visible" opacity="1" fill="none" stroke="none" class="guide background" id="fig-82f03b4a2a2e4a57bd3c381c8fdf8674-element-19">
      <rect x="19.63" y="5" width="164.22" height="53.91" id="fig-82f03b4a2a2e4a57bd3c381c8fdf8674-element-20"/>
    </g>
    <g class="guide ygridlines xfixed" stroke-dasharray="0.5,0.5" stroke-width="0.2" stroke="#D0D0E0" id="fig-82f03b4a2a2e4a57bd3c381c8fdf8674-element-21">
      <path fill="none" d="M19.63,56.91 L 183.85 56.91" id="fig-82f03b4a2a2e4a57bd3c381c8fdf8674-element-22"/>
      <path fill="none" d="M19.63,44.44 L 183.85 44.44" id="fig-82f03b4a2a2e4a57bd3c381c8fdf8674-element-23"/>
      <path fill="none" d="M19.63,31.96 L 183.85 31.96" id="fig-82f03b4a2a2e4a57bd3c381c8fdf8674-element-24"/>
      <path fill="none" d="M19.63,19.48 L 183.85 19.48" id="fig-82f03b4a2a2e4a57bd3c381c8fdf8674-element-25"/>
      <path fill="none" d="M19.63,7 L 183.85 7" id="fig-82f03b4a2a2e4a57bd3c381c8fdf8674-element-26"/>
    </g>
    <g class="guide xgridlines yfixed" stroke-dasharray="0.5,0.5" stroke-width="0.2" stroke="#D0D0E0" id="fig-82f03b4a2a2e4a57bd3c381c8fdf8674-element-27">
      <path fill="none" d="M23.54,5 L 23.54 58.91" id="fig-82f03b4a2a2e4a57bd3c381c8fdf8674-element-28"/>
      <path fill="none" d="M47,5 L 47 58.91" id="fig-82f03b4a2a2e4a57bd3c381c8fdf8674-element-29"/>
      <path fill="none" d="M71.24,5 L 71.24 58.91" id="fig-82f03b4a2a2e4a57bd3c381c8fdf8674-element-30"/>
      <path fill="none" d="M94.7,5 L 94.7 58.91" id="fig-82f03b4a2a2e4a57bd3c381c8fdf8674-element-31"/>
      <path fill="none" d="M118.95,5 L 118.95 58.91" id="fig-82f03b4a2a2e4a57bd3c381c8fdf8674-element-32"/>
      <path fill="none" d="M143.19,5 L 143.19 58.91" id="fig-82f03b4a2a2e4a57bd3c381c8fdf8674-element-33"/>
      <path fill="none" d="M166.65,5 L 166.65 58.91" id="fig-82f03b4a2a2e4a57bd3c381c8fdf8674-element-34"/>
    </g>
    <g class="plotpanel" id="fig-82f03b4a2a2e4a57bd3c381c8fdf8674-element-35">
      <g stroke-width="0.79" fill="none" class="geometry color_0.4" stroke="#FF5EA0" id="fig-82f03b4a2a2e4a57bd3c381c8fdf8674-element-36">
        <path fill="none" d="M128.33,28.46 L 129.11 27.71 129.9 27.47 130.68 27.22 131.46 27.22 132.24 27.22 133.81 26.47 134.59 26.47 135.37 26.22 136.15 26.22 136.93 26.22 137.72 25.47 138.5 24.97 139.28 24.97 140.84 24.47 141.63 23.72 143.19 23.22 143.97 23.22 144.75 23.22 147.88 23.22 150.23 21.72 151.01 21.48 151.79 21.23 152.57 20.73 153.36 20.73 154.14 20.73 154.92 18.73 155.7 18.73 156.48 18.73 158.05 18.48 158.83 18.48 159.61 18.23 160.39 18.23 161.18 18.23 161.96 17.98 162.74 17.98 164.3 18.23 165.09 17.98 165.87 17.98 166.65 17.48 167.43 16.98 168.21 16.98 169 16.98 169.78 16.48 172.12 15.98 172.91 15.98 173.69 15.49 174.47 15.24 175.25 15.24 176.03 15.24 176.82 14.74 177.6 14.74 178.38 14.49 179.16 14.24 179.94 14.24 180.73 14.24 181.51 14.24 182.29 13.74" id="fig-82f03b4a2a2e4a57bd3c381c8fdf8674-element-37"/>
      </g>
      <g stroke-width="0.79" fill="none" class="geometry color_0.3" stroke="#D4CA3A" id="fig-82f03b4a2a2e4a57bd3c381c8fdf8674-element-38">
        <path fill="none" d="M21.98,45.43 L 22.76 45.43 23.54 45.18 24.32 45.18 25.11 45.18 25.89 45.18 26.67 45.18 27.45 44.94 29.02 44.94 29.8 44.69 31.36 44.44 32.93 43.94 33.71 43.94 35.27 43.94 36.05 43.69 41.53 42.69 43.87 42.69 45.44 42.69 50.91 42.44 51.69 41.94 52.48 41.69 53.26 41.69 54.04 41.69 54.82 41.69 55.6 41.69 56.39 41.69 57.17 41.69 57.95 41.69 58.73 41.69 59.51 40.94 61.08 40.69 61.86 40.69 62.64 40.69 63.42 40.19 64.21 40.19 64.99 40.19 65.77 39.94 66.55 39.94 67.33 39.94 68.12 39.94 68.9 39.94 69.68 39.69 70.46 39.69 71.24 49.68 72.03 39.44 72.81 39.2 73.59 38.95 78.28 37.45 79.06 37.2 79.85 36.95 80.63 36.7 81.41 36.2 82.19 36.2 82.97 35.7 83.76 35.7 84.54 35.45 85.32 35.2 86.88 35.2 87.67 34.7 88.45 34.7 89.23 34.7 90.01 34.7 90.79 34.7 91.58 33.95 92.36 33.95 93.92 33.7 94.7 33.21 95.49 32.96 96.27 32.71 97.05 32.71 97.83 32.21 99.4 31.96 100.18 31.21 100.96 31.21 101.74 31.21 103.31 29.96 104.87 29.21 105.65 29.21 106.43 28.96 107.22 28.96 109.56 28.71 110.35 28.71 111.13 28.46 111.91 28.46 112.69 28.46 113.47 28.21 114.26 27.96 115.04 27.71 116.6 27.71 117.38 27.71 118.95 27.71 119.73 27.47 120.51 26.72 121.29 26.72 122.86 26.47 123.64 26.47 124.42 25.97 125.2 25.72 125.99 25.47 126.77 25.22 127.55 24.97 128.33 24.47 129.11 24.47 129.9 24.22 130.68 23.97 131.46 23.97 132.24 23.97 133.81 23.22 134.59 23.22 135.37 22.97 136.15 22.97 136.93 22.97 137.72 22.22 138.5 21.97 139.28 21.72 140.84 24.72 141.63 23.97 143.19 23.47 143.97 23.47 144.75 23.47 147.88 23.47 150.23 21.97 151.01 21.72 151.79 21.48 152.57 20.98 153.36 20.98 154.14 20.98 154.92 18.98 155.7 18.98 156.48 18.98 158.05 18.98 158.83 18.73 159.61 18.48 160.39 18.48 161.18 18.48 161.96 18.23 162.74 18.23 164.3 18.48 165.09 18.23 165.87 18.23 166.65 17.73 167.43 12.74 168.21 17.23 169 17.23 169.78 16.73 172.12 16.23 172.91 16.23 173.69 15.74 174.47 15.49 175.25 15.49 176.03 15.49 176.82 14.99 177.6 14.99 178.38 14.74 179.16 14.49 179.94 14.49 180.73 14.49 181.51 14.49 182.29 14.24" id="fig-82f03b4a2a2e4a57bd3c381c8fdf8674-element-39"/>
      </g>
      <g stroke-width="0.79" fill="none" class="geometry color_0.2" stroke="#00BFFF" id="fig-82f03b4a2a2e4a57bd3c381c8fdf8674-element-40">
        <path fill="none" d="M21.98,48.18 L 22.76 48.18 23.54 47.93 24.32 47.93 25.11 47.93 25.89 47.93 26.67 47.93 27.45 47.93 29.02 47.93 29.8 47.93 31.36 47.68 32.93 47.43 33.71 47.43 35.27 47.18 36.05 46.93 41.53 46.43 43.87 46.43 45.44 46.43 50.91 46.18 51.69 45.93 52.48 45.93 53.26 45.93 54.04 45.93 54.82 45.93 55.6 45.93 56.39 45.93 57.17 45.93 57.95 45.93 58.73 45.18 59.51 45.18 61.08 44.94 61.86 44.94 62.64 44.94 63.42 44.69 64.21 46.68 64.99 45.43 65.77 45.43 66.55 45.43 67.33 45.43 68.12 45.43 68.9 45.43 69.68 45.43 70.46 45.43 71.24 45.18 72.03 45.18 72.81 44.94 73.59 44.94 78.28 43.69 79.06 43.69 79.85 43.44 80.63 43.19 81.41 42.69 82.19 42.69 82.97 42.69 83.76 42.69 84.54 42.69 85.32 42.44 86.88 42.44 87.67 41.94 88.45 41.94 89.23 41.94 90.01 41.94 90.79 41.94 91.58 41.19 92.36 41.19 93.92 40.94 94.7 40.44 95.49 40.19 96.27 39.94 97.05 39.94 97.83 39.94 99.4 39.44 100.18 39.2 100.96 38.95 101.74 38.95 103.31 38.45 104.87 37.95 105.65 37.95 106.43 37.95 107.22 37.95 109.56 37.95 110.35 37.95 111.13 37.7 111.91 37.7 112.69 37.7 113.47 37.45 114.26 37.45 115.04 37.45 116.6 37.2 117.38 37.2 118.95 37.2 119.73 37.2 120.51 36.45 121.29 36.45 122.86 36.95 123.64 36.95 124.42 36.45 125.2 36.2 125.99 36.2 126.77 35.7 127.55 35.7" id="fig-82f03b4a2a2e4a57bd3c381c8fdf8674-element-41"/>
      </g>
    </g>
  </g>
  <g class="guide ylabels" font-size="2.82" font-family="'PT Sans Caption','Helvetica Neue','Helvetica',sans-serif" fill="#6C606B" id="fig-82f03b4a2a2e4a57bd3c381c8fdf8674-element-42">
    <text x="18.63" y="56.91" text-anchor="end" dy="0.35em" id="fig-82f03b4a2a2e4a57bd3c381c8fdf8674-element-43">250</text>
    <text x="18.63" y="44.44" text-anchor="end" dy="0.35em" id="fig-82f03b4a2a2e4a57bd3c381c8fdf8674-element-44">300</text>
    <text x="18.63" y="31.96" text-anchor="end" dy="0.35em" id="fig-82f03b4a2a2e4a57bd3c381c8fdf8674-element-45">350</text>
    <text x="18.63" y="19.48" text-anchor="end" dy="0.35em" id="fig-82f03b4a2a2e4a57bd3c381c8fdf8674-element-46">400</text>
    <text x="18.63" y="7" text-anchor="end" dy="0.35em" id="fig-82f03b4a2a2e4a57bd3c381c8fdf8674-element-47">450</text>
  </g>
</g>
<defs>
<clipPath id="fig-82f03b4a2a2e4a57bd3c381c8fdf8674-element-18">
  <path d="M19.63,5 L 183.85 5 183.85 58.91 19.63 58.91" />
</clipPath
></defs>
</svg>
