<?xml version="1.0" encoding="UTF-8"?>
<svg xmlns="http://www.w3.org/2000/svg"
     xmlns:xlink="http://www.w3.org/1999/xlink"
     xmlns:gadfly="http://www.gadflyjl.org/ns"
     version="1.2"
     width="203.2mm" height="76.2mm" viewBox="0 0 203.2 76.2"
     stroke="none"
     fill="#000000"
     stroke-width="0.3"
     font-size="3.88"
>
<g class="plotroot xscalable yscalable" id="fig-5888189df8e149a095d27b8368c2edae-element-1">
  <g font-size="3.88" font-family="'PT Sans','Helvetica Neue','Helvetica',sans-serif" fill="#564A55" stroke="none" id="fig-5888189df8e149a095d27b8368c2edae-element-2">
    <text x="101.74" y="68.2" text-anchor="middle">Date</text>
  </g>
  <g class="guide xlabels" font-size="2.82" font-family="'PT Sans Caption','Helvetica Neue','Helvetica',sans-serif" fill="#6C606B" id="fig-5888189df8e149a095d27b8368c2edae-element-3">
    <text x="23.62" y="62.59" text-anchor="middle">Apr</text>
    <text x="47.53" y="62.59" text-anchor="middle">May</text>
    <text x="72.25" y="62.59" text-anchor="middle">June</text>
    <text x="96.16" y="62.59" text-anchor="middle">July</text>
    <text x="120.88" y="62.59" text-anchor="middle">Aug</text>
    <text x="145.59" y="62.59" text-anchor="middle">Sept</text>
    <text x="169.5" y="62.59" text-anchor="middle">Oct</text>
  </g>
  <g class="guide colorkey" id="fig-5888189df8e149a095d27b8368c2edae-element-4">
    <g fill="#4C404B" font-size="2.82" font-family="'PT Sans','Helvetica Neue','Helvetica',sans-serif" id="fig-5888189df8e149a095d27b8368c2edae-element-5">
      <text x="187.67" y="30.14" dy="0.35em" id="fig-5888189df8e149a095d27b8368c2edae-element-6" class="color_0.2">0.2</text>
      <text x="187.67" y="33.77" dy="0.35em" id="fig-5888189df8e149a095d27b8368c2edae-element-7" class="color_0.3">0.3</text>
      <text x="187.67" y="37.4" dy="0.35em" id="fig-5888189df8e149a095d27b8368c2edae-element-8" class="color_0.4">0.4</text>
    </g>
    <g stroke="none" id="fig-5888189df8e149a095d27b8368c2edae-element-9">
      <rect x="184.85" y="29.24" width="1.81" height="1.81" id="fig-5888189df8e149a095d27b8368c2edae-element-10" class="color_0.2" fill="#00BFFF"/>
      <rect x="184.85" y="32.86" width="1.81" height="1.81" id="fig-5888189df8e149a095d27b8368c2edae-element-11" class="color_0.3" fill="#D4CA3A"/>
      <rect x="184.85" y="36.49" width="1.81" height="1.81" id="fig-5888189df8e149a095d27b8368c2edae-element-12" class="color_0.4" fill="#FF5EA0"/>
    </g>
    <g fill="#362A35" font-size="3.88" font-family="'PT Sans','Helvetica Neue','Helvetica',sans-serif" stroke="none" id="fig-5888189df8e149a095d27b8368c2edae-element-13">
      <text x="184.85" y="26.32" id="fig-5888189df8e149a095d27b8368c2edae-element-14">Julia ver.</text>
    </g>
  </g>
  <g font-size="3.88" font-family="'PT Sans','Helvetica Neue','Helvetica',sans-serif" fill="#564A55" stroke="none" id="fig-5888189df8e149a095d27b8368c2edae-element-15">
    <text x="8.81" y="29.96" text-anchor="middle" dy="0.35em" transform="rotate(-90, 8.81, 31.96)" id="fig-5888189df8e149a095d27b8368c2edae-element-16">Number of Tagged Packages</text>
  </g>
  <g clip-path="url(#fig-5888189df8e149a095d27b8368c2edae-element-18)" id="fig-5888189df8e149a095d27b8368c2edae-element-17">
    <g pointer-events="visible" opacity="1" fill="none" stroke="none" class="guide background" id="fig-5888189df8e149a095d27b8368c2edae-element-19">
      <rect x="19.63" y="5" width="164.22" height="53.91" id="fig-5888189df8e149a095d27b8368c2edae-element-20"/>
    </g>
    <g class="guide ygridlines xfixed" stroke-dasharray="0.5,0.5" stroke-width="0.2" stroke="#D0D0E0" id="fig-5888189df8e149a095d27b8368c2edae-element-21">
      <path fill="none" d="M19.63,56.91 L 183.85 56.91" id="fig-5888189df8e149a095d27b8368c2edae-element-22"/>
      <path fill="none" d="M19.63,44.44 L 183.85 44.44" id="fig-5888189df8e149a095d27b8368c2edae-element-23"/>
      <path fill="none" d="M19.63,31.96 L 183.85 31.96" id="fig-5888189df8e149a095d27b8368c2edae-element-24"/>
      <path fill="none" d="M19.63,19.48 L 183.85 19.48" id="fig-5888189df8e149a095d27b8368c2edae-element-25"/>
      <path fill="none" d="M19.63,7 L 183.85 7" id="fig-5888189df8e149a095d27b8368c2edae-element-26"/>
    </g>
    <g class="guide xgridlines yfixed" stroke-dasharray="0.5,0.5" stroke-width="0.2" stroke="#D0D0E0" id="fig-5888189df8e149a095d27b8368c2edae-element-27">
      <path fill="none" d="M23.62,5 L 23.62 58.91" id="fig-5888189df8e149a095d27b8368c2edae-element-28"/>
      <path fill="none" d="M47.53,5 L 47.53 58.91" id="fig-5888189df8e149a095d27b8368c2edae-element-29"/>
      <path fill="none" d="M72.25,5 L 72.25 58.91" id="fig-5888189df8e149a095d27b8368c2edae-element-30"/>
      <path fill="none" d="M96.16,5 L 96.16 58.91" id="fig-5888189df8e149a095d27b8368c2edae-element-31"/>
      <path fill="none" d="M120.88,5 L 120.88 58.91" id="fig-5888189df8e149a095d27b8368c2edae-element-32"/>
      <path fill="none" d="M145.59,5 L 145.59 58.91" id="fig-5888189df8e149a095d27b8368c2edae-element-33"/>
      <path fill="none" d="M169.5,5 L 169.5 58.91" id="fig-5888189df8e149a095d27b8368c2edae-element-34"/>
    </g>
    <g class="plotpanel" id="fig-5888189df8e149a095d27b8368c2edae-element-35">
      <g stroke-width="0.79" fill="none" class="geometry color_0.4" stroke="#FF5EA0" id="fig-5888189df8e149a095d27b8368c2edae-element-36">
        <path fill="none" d="M130.44,28.46 L 131.24 27.71 132.04 27.47 132.83 27.22 133.63 27.22 134.43 27.22 136.02 26.47 136.82 26.47 137.62 26.22 138.41 26.22 139.21 26.22 140.01 25.47 140.81 24.97 141.6 24.97 143.2 24.47 143.99 23.72 145.59 23.22 146.39 23.22 147.18 23.22 150.37 23.22 152.76 21.72 153.56 21.48 154.36 21.23 155.16 20.73 155.95 20.73 156.75 20.73 157.55 18.73 158.34 18.73 159.14 18.73 160.74 18.48 161.53 18.48 162.33 18.23 163.13 18.23 163.92 18.23 164.72 17.98 165.52 17.98 167.11 18.23 167.91 17.98 168.71 17.98 169.5 17.48 170.3 16.98 171.1 16.98 171.9 16.98 172.69 16.48 175.09 15.98 175.88 15.98 176.68 15.49 177.48 15.24 178.27 15.24 179.07 15.24 179.87 14.74 180.67 14.74 181.46 14.49 182.26 14.24" id="fig-5888189df8e149a095d27b8368c2edae-element-37"/>
      </g>
      <g stroke-width="0.79" fill="none" class="geometry color_0.3" stroke="#D4CA3A" id="fig-5888189df8e149a095d27b8368c2edae-element-38">
        <path fill="none" d="M22.02,45.43 L 22.82 45.43 23.62 45.18 24.41 45.18 25.21 45.18 26.01 45.18 26.81 45.18 27.6 44.94 29.2 44.94 30 44.69 31.59 44.44 33.18 43.94 33.98 43.94 35.58 43.94 36.37 43.69 41.95 42.69 44.34 42.69 45.94 42.69 51.52 42.44 52.32 41.94 53.11 41.69 53.91 41.69 54.71 41.69 55.51 41.69 56.3 41.69 57.1 41.69 57.9 41.69 58.69 41.69 59.49 41.69 60.29 40.94 61.88 40.69 62.68 40.69 63.48 40.69 64.27 40.19 65.07 40.19 65.87 40.19 66.67 39.94 67.46 39.94 68.26 39.94 69.06 39.94 69.86 39.94 70.65 39.69 71.45 39.69 72.25 49.68 73.04 39.44 73.84 39.2 74.64 38.95 79.42 37.45 80.22 37.2 81.02 36.95 81.81 36.7 82.61 36.2 83.41 36.2 84.2 35.7 85 35.7 85.8 35.45 86.6 35.2 88.19 35.2 88.99 34.7 89.78 34.7 90.58 34.7 91.38 34.7 92.18 34.7 92.97 33.95 93.77 33.95 95.37 33.7 96.16 33.21 96.96 32.96 97.76 32.71 98.55 32.71 99.35 32.21 100.95 31.96 101.74 31.21 102.54 31.21 103.34 31.21 104.93 29.96 106.53 29.21 107.32 29.21 108.12 28.96 108.92 28.96 111.31 28.71 112.11 28.71 112.9 28.46 113.7 28.46 114.5 28.46 115.3 28.21 116.09 27.96 116.89 27.71 118.48 27.71 119.28 27.71 120.88 27.71 121.67 27.47 122.47 26.72 123.27 26.72 124.86 26.47 125.66 26.47 126.46 25.97 127.25 25.72 128.05 25.47 128.85 25.22 129.64 24.97 130.44 24.47 131.24 24.47 132.04 24.22 132.83 23.97 133.63 23.97 134.43 23.97 136.02 23.22 136.82 23.22 137.62 22.97 138.41 22.97 139.21 22.97 140.01 22.22 140.81 21.97 141.6 21.72 143.2 24.72 143.99 23.97 145.59 23.47 146.39 23.47 147.18 23.47 150.37 23.47 152.76 21.97 153.56 21.72 154.36 21.48 155.16 20.98 155.95 20.98 156.75 20.98 157.55 18.98 158.34 18.98 159.14 18.98 160.74 18.98 161.53 18.73 162.33 18.48 163.13 18.48 163.92 18.48 164.72 18.23 165.52 18.23 167.11 18.48 167.91 18.23 168.71 18.23 169.5 17.73 170.3 12.74 171.1 17.23 171.9 17.23 172.69 16.73 175.09 16.23 175.88 16.23 176.68 15.74 177.48 15.49 178.27 15.49 179.07 15.49 179.87 14.99 180.67 14.99 181.46 14.74 182.26 14.49" id="fig-5888189df8e149a095d27b8368c2edae-element-39"/>
      </g>
      <g stroke-width="0.79" fill="none" class="geometry color_0.2" stroke="#00BFFF" id="fig-5888189df8e149a095d27b8368c2edae-element-40">
        <path fill="none" d="M22.02,48.18 L 22.82 48.18 23.62 47.93 24.41 47.93 25.21 47.93 26.01 47.93 26.81 47.93 27.6 47.93 29.2 47.93 30 47.93 31.59 47.68 33.18 47.43 33.98 47.43 35.58 47.18 36.37 46.93 41.95 46.43 44.34 46.43 45.94 46.43 51.52 46.18 52.32 45.93 53.11 45.93 53.91 45.93 54.71 45.93 55.51 45.93 56.3 45.93 57.1 45.93 57.9 45.93 58.69 45.93 59.49 45.18 60.29 45.18 61.88 44.94 62.68 44.94 63.48 44.94 64.27 44.69 65.07 46.68 65.87 45.43 66.67 45.43 67.46 45.43 68.26 45.43 69.06 45.43 69.86 45.43 70.65 45.43 71.45 45.43 72.25 45.18 73.04 45.18 73.84 44.94 74.64 44.94 79.42 43.69 80.22 43.69 81.02 43.44 81.81 43.19 82.61 42.69 83.41 42.69 84.2 42.69 85 42.69 85.8 42.69 86.6 42.44 88.19 42.44 88.99 41.94 89.78 41.94 90.58 41.94 91.38 41.94 92.18 41.94 92.97 41.19 93.77 41.19 95.37 40.94 96.16 40.44 96.96 40.19 97.76 39.94 98.55 39.94 99.35 39.94 100.95 39.44 101.74 39.2 102.54 38.95 103.34 38.95 104.93 38.45 106.53 37.95 107.32 37.95 108.12 37.95 108.92 37.95 111.31 37.95 112.11 37.95 112.9 37.7 113.7 37.7 114.5 37.7 115.3 37.45 116.09 37.45 116.89 37.45 118.48 37.2 119.28 37.2 120.88 37.2 121.67 37.2 122.47 36.45 123.27 36.45 124.86 36.95 125.66 36.95 126.46 36.45 127.25 36.2 128.05 36.2 128.85 35.7 129.64 35.7" id="fig-5888189df8e149a095d27b8368c2edae-element-41"/>
      </g>
    </g>
  </g>
  <g class="guide ylabels" font-size="2.82" font-family="'PT Sans Caption','Helvetica Neue','Helvetica',sans-serif" fill="#6C606B" id="fig-5888189df8e149a095d27b8368c2edae-element-42">
    <text x="18.63" y="56.91" text-anchor="end" dy="0.35em" id="fig-5888189df8e149a095d27b8368c2edae-element-43">250</text>
    <text x="18.63" y="44.44" text-anchor="end" dy="0.35em" id="fig-5888189df8e149a095d27b8368c2edae-element-44">300</text>
    <text x="18.63" y="31.96" text-anchor="end" dy="0.35em" id="fig-5888189df8e149a095d27b8368c2edae-element-45">350</text>
    <text x="18.63" y="19.48" text-anchor="end" dy="0.35em" id="fig-5888189df8e149a095d27b8368c2edae-element-46">400</text>
    <text x="18.63" y="7" text-anchor="end" dy="0.35em" id="fig-5888189df8e149a095d27b8368c2edae-element-47">450</text>
  </g>
</g>
<defs>
<clipPath id="fig-5888189df8e149a095d27b8368c2edae-element-18">
  <path d="M19.63,5 L 183.85 5 183.85 58.91 19.63 58.91" />
</clipPath
></defs>
</svg>
