<?xml version="1.0" encoding="UTF-8"?>
<svg xmlns="http://www.w3.org/2000/svg"
     xmlns:xlink="http://www.w3.org/1999/xlink"
     xmlns:gadfly="http://www.gadflyjl.org/ns"
     version="1.2"
     width="203.2mm" height="76.2mm" viewBox="0 0 203.2 76.2"
     stroke="none"
     fill="#000000"
     stroke-width="0.3"
     font-size="3.88"
>
<g class="plotroot xscalable yscalable" id="fig-57278e5753f7436e9ee0c53ee2e39d13-element-1">
  <g font-size="3.88" font-family="'PT Sans','Helvetica Neue','Helvetica',sans-serif" fill="#564A55" stroke="none" id="fig-57278e5753f7436e9ee0c53ee2e39d13-element-2">
    <text x="101.74" y="68.2" text-anchor="middle">Date</text>
  </g>
  <g class="guide xlabels" font-size="2.82" font-family="'PT Sans Caption','Helvetica Neue','Helvetica',sans-serif" fill="#6C606B" id="fig-57278e5753f7436e9ee0c53ee2e39d13-element-3">
    <text x="22.93" y="62.59" text-anchor="middle">Apr</text>
    <text x="47.69" y="62.59" text-anchor="middle">May</text>
    <text x="73.27" y="62.59" text-anchor="middle">June</text>
    <text x="98.03" y="62.59" text-anchor="middle">July</text>
    <text x="123.61" y="62.59" text-anchor="middle">Aug</text>
    <text x="149.19" y="62.59" text-anchor="middle">Sept</text>
    <text x="173.95" y="62.59" text-anchor="middle">Oct</text>
  </g>
  <g class="guide colorkey" id="fig-57278e5753f7436e9ee0c53ee2e39d13-element-4">
    <g fill="#4C404B" font-size="2.82" font-family="'PT Sans','Helvetica Neue','Helvetica',sans-serif" id="fig-57278e5753f7436e9ee0c53ee2e39d13-element-5">
      <text x="187.67" y="30.14" dy="0.35em" id="fig-57278e5753f7436e9ee0c53ee2e39d13-element-6" class="color_0.2">0.2</text>
      <text x="187.67" y="33.77" dy="0.35em" id="fig-57278e5753f7436e9ee0c53ee2e39d13-element-7" class="color_0.3">0.3</text>
      <text x="187.67" y="37.4" dy="0.35em" id="fig-57278e5753f7436e9ee0c53ee2e39d13-element-8" class="color_0.4">0.4</text>
    </g>
    <g stroke="none" id="fig-57278e5753f7436e9ee0c53ee2e39d13-element-9">
      <rect x="184.85" y="29.24" width="1.81" height="1.81" id="fig-57278e5753f7436e9ee0c53ee2e39d13-element-10" class="color_0.2" fill="#00BFFF"/>
      <rect x="184.85" y="32.86" width="1.81" height="1.81" id="fig-57278e5753f7436e9ee0c53ee2e39d13-element-11" class="color_0.3" fill="#D4CA3A"/>
      <rect x="184.85" y="36.49" width="1.81" height="1.81" id="fig-57278e5753f7436e9ee0c53ee2e39d13-element-12" class="color_0.4" fill="#FF5EA0"/>
    </g>
    <g fill="#362A35" font-size="3.88" font-family="'PT Sans','Helvetica Neue','Helvetica',sans-serif" stroke="none" id="fig-57278e5753f7436e9ee0c53ee2e39d13-element-13">
      <text x="184.85" y="26.32" id="fig-57278e5753f7436e9ee0c53ee2e39d13-element-14">Julia ver.</text>
    </g>
  </g>
  <g clip-path="url(#fig-57278e5753f7436e9ee0c53ee2e39d13-element-16)" id="fig-57278e5753f7436e9ee0c53ee2e39d13-element-15">
    <g pointer-events="visible" opacity="1" fill="none" stroke="none" class="guide background" id="fig-57278e5753f7436e9ee0c53ee2e39d13-element-17">
      <rect x="19.63" y="5" width="164.22" height="53.91" id="fig-57278e5753f7436e9ee0c53ee2e39d13-element-18"/>
    </g>
    <g class="guide ygridlines xfixed" stroke-dasharray="0.5,0.5" stroke-width="0.2" stroke="#D0D0E0" id="fig-57278e5753f7436e9ee0c53ee2e39d13-element-19">
      <path fill="none" d="M19.63,56.91 L 183.85 56.91" id="fig-57278e5753f7436e9ee0c53ee2e39d13-element-20"/>
      <path fill="none" d="M19.63,44.44 L 183.85 44.44" id="fig-57278e5753f7436e9ee0c53ee2e39d13-element-21"/>
      <path fill="none" d="M19.63,31.96 L 183.85 31.96" id="fig-57278e5753f7436e9ee0c53ee2e39d13-element-22"/>
      <path fill="none" d="M19.63,19.48 L 183.85 19.48" id="fig-57278e5753f7436e9ee0c53ee2e39d13-element-23"/>
      <path fill="none" d="M19.63,7 L 183.85 7" id="fig-57278e5753f7436e9ee0c53ee2e39d13-element-24"/>
    </g>
    <g class="guide xgridlines yfixed" stroke-dasharray="0.5,0.5" stroke-width="0.2" stroke="#D0D0E0" id="fig-57278e5753f7436e9ee0c53ee2e39d13-element-25">
      <path fill="none" d="M22.93,5 L 22.93 58.91" id="fig-57278e5753f7436e9ee0c53ee2e39d13-element-26"/>
      <path fill="none" d="M47.69,5 L 47.69 58.91" id="fig-57278e5753f7436e9ee0c53ee2e39d13-element-27"/>
      <path fill="none" d="M73.27,5 L 73.27 58.91" id="fig-57278e5753f7436e9ee0c53ee2e39d13-element-28"/>
      <path fill="none" d="M98.03,5 L 98.03 58.91" id="fig-57278e5753f7436e9ee0c53ee2e39d13-element-29"/>
      <path fill="none" d="M123.61,5 L 123.61 58.91" id="fig-57278e5753f7436e9ee0c53ee2e39d13-element-30"/>
      <path fill="none" d="M149.19,5 L 149.19 58.91" id="fig-57278e5753f7436e9ee0c53ee2e39d13-element-31"/>
      <path fill="none" d="M173.95,5 L 173.95 58.91" id="fig-57278e5753f7436e9ee0c53ee2e39d13-element-32"/>
    </g>
    <g class="plotpanel" id="fig-57278e5753f7436e9ee0c53ee2e39d13-element-33">
      <g stroke-width="0.79" fill="none" class="geometry color_0.4" stroke="#FF5EA0" id="fig-57278e5753f7436e9ee0c53ee2e39d13-element-34">
        <path fill="none" d="M133.51,28.46 L 134.34 27.71 135.17 27.47 135.99 27.22 136.82 27.22 137.64 27.22 139.29 26.47 140.12 26.47 140.94 26.22 141.77 26.22 142.59 26.22 143.42 25.47 144.24 24.97 145.07 24.97 146.72 24.47 147.54 23.72 149.19 23.22 150.02 23.22 150.84 23.22 154.15 23.22 156.62 21.72 157.45 21.48 158.27 21.23 159.1 20.73 159.92 20.73 160.75 20.73 161.57 18.73 162.4 18.73 163.22 18.73 164.87 18.48 165.7 18.48 166.52 18.23 167.35 18.23 168.17 18.23 169 17.98 169.83 17.98 171.48 18.23 172.3 17.98 173.13 17.98 173.95 17.48 174.78 16.98 175.6 16.98 176.43 16.98 177.25 16.48 179.73 15.98 180.55 15.98 181.38 15.49" id="fig-57278e5753f7436e9ee0c53ee2e39d13-element-35"/>
      </g>
      <g stroke-width="0.79" fill="none" class="geometry color_0.3" stroke="#D4CA3A" id="fig-57278e5753f7436e9ee0c53ee2e39d13-element-36">
        <path fill="none" d="M21.28,45.43 L 22.11 45.43 22.93 45.18 23.76 45.18 24.58 45.18 25.41 45.18 26.23 45.18 27.06 44.94 28.71 44.94 29.53 44.69 31.19 44.44 32.84 43.94 33.66 43.94 35.31 43.94 36.14 43.69 41.91 42.69 44.39 42.69 46.04 42.69 51.82 42.44 52.64 41.94 53.47 41.69 54.29 41.69 55.12 41.69 55.94 41.69 56.77 41.69 57.59 41.69 58.42 41.69 59.24 41.69 60.07 41.69 60.89 40.94 62.54 40.69 63.37 40.69 64.19 40.69 65.02 40.19 65.85 40.19 66.67 40.19 67.5 39.94 68.32 39.94 69.15 39.94 69.97 39.94 70.8 39.94 71.62 39.69 72.45 39.69 73.27 49.68 74.1 39.44 74.92 39.2 75.75 38.95 80.7 37.45 81.52 37.2 82.35 36.95 83.18 36.7 84 36.2 84.83 36.2 85.65 35.7 86.48 35.7 87.3 35.45 88.13 35.2 89.78 35.2 90.6 34.7 91.43 34.7 92.25 34.7 93.08 34.7 93.9 34.7 94.73 33.95 95.55 33.95 97.2 33.7 98.03 33.21 98.85 32.96 99.68 32.71 100.51 32.71 101.33 32.21 102.98 31.96 103.81 31.21 104.63 31.21 105.46 31.21 107.11 29.96 108.76 29.21 109.58 29.21 110.41 28.96 111.23 28.96 113.71 28.71 114.53 28.71 115.36 28.46 116.18 28.46 117.01 28.46 117.84 28.21 118.66 27.96 119.49 27.71 121.14 27.71 121.96 27.71 123.61 27.71 124.44 27.47 125.26 26.72 126.09 26.72 127.74 26.47 128.56 26.47 129.39 25.97 130.21 25.72 131.04 25.47 131.86 25.22 132.69 24.97 133.51 24.47 134.34 24.47 135.17 24.22 135.99 23.97 136.82 23.97 137.64 23.97 139.29 23.22 140.12 23.22 140.94 22.97 141.77 22.97 142.59 22.97 143.42 22.22 144.24 21.97 145.07 21.72 146.72 24.72 147.54 23.97 149.19 23.47 150.02 23.47 150.84 23.47 154.15 23.47 156.62 21.97 157.45 21.72 158.27 21.48 159.1 20.98 159.92 20.98 160.75 20.98 161.57 18.98 162.4 18.98 163.22 18.98 164.87 18.98 165.7 18.73 166.52 18.48 167.35 18.48 168.17 18.48 169 18.23 169.83 18.23 171.48 18.48 172.3 18.23 173.13 18.23 173.95 17.73 174.78 12.74 175.6 17.23 176.43 17.23 177.25 16.73 179.73 16.23 180.55 16.23 181.38 15.74" id="fig-57278e5753f7436e9ee0c53ee2e39d13-element-37"/>
      </g>
      <g stroke-width="0.79" fill="none" class="geometry color_0.2" stroke="#00BFFF" id="fig-57278e5753f7436e9ee0c53ee2e39d13-element-38">
        <path fill="none" d="M21.28,48.18 L 22.11 48.18 22.93 47.93 23.76 47.93 24.58 47.93 25.41 47.93 26.23 47.93 27.06 47.93 28.71 47.93 29.53 47.93 31.19 47.68 32.84 47.43 33.66 47.43 35.31 47.18 36.14 46.93 41.91 46.43 44.39 46.43 46.04 46.43 51.82 46.18 52.64 45.93 53.47 45.93 54.29 45.93 55.12 45.93 55.94 45.93 56.77 45.93 57.59 45.93 58.42 45.93 59.24 45.93 60.07 45.18 60.89 45.18 62.54 44.94 63.37 44.94 64.19 44.94 65.02 44.69 65.85 46.68 66.67 45.43 67.5 45.43 68.32 45.43 69.15 45.43 69.97 45.43 70.8 45.43 71.62 45.43 72.45 45.43 73.27 45.18 74.1 45.18 74.92 44.94 75.75 44.94 80.7 43.69 81.52 43.69 82.35 43.44 83.18 43.19 84 42.69 84.83 42.69 85.65 42.69 86.48 42.69 87.3 42.69 88.13 42.44 89.78 42.44 90.6 41.94 91.43 41.94 92.25 41.94 93.08 41.94 93.9 41.94 94.73 41.19 95.55 41.19 97.2 40.94 98.03 40.44 98.85 40.19 99.68 39.94 100.51 39.94 101.33 39.94 102.98 39.44 103.81 39.2 104.63 38.95 105.46 38.95 107.11 38.45 108.76 37.95 109.58 37.95 110.41 37.95 111.23 37.95 113.71 37.95 114.53 37.95 115.36 37.7 116.18 37.7 117.01 37.7 117.84 37.45 118.66 37.45 119.49 37.45 121.14 37.2 121.96 37.2 123.61 37.2 124.44 37.2 125.26 36.45 126.09 36.45 127.74 36.95 128.56 36.95 129.39 36.45 130.21 36.2 131.04 36.2 131.86 35.7 132.69 35.7" id="fig-57278e5753f7436e9ee0c53ee2e39d13-element-39"/>
      </g>
    </g>
  </g>
  <g class="guide ylabels" font-size="2.82" font-family="'PT Sans Caption','Helvetica Neue','Helvetica',sans-serif" fill="#6C606B" id="fig-57278e5753f7436e9ee0c53ee2e39d13-element-40">
    <text x="18.63" y="56.91" text-anchor="end" dy="0.35em" id="fig-57278e5753f7436e9ee0c53ee2e39d13-element-41">250</text>
    <text x="18.63" y="44.44" text-anchor="end" dy="0.35em" id="fig-57278e5753f7436e9ee0c53ee2e39d13-element-42">300</text>
    <text x="18.63" y="31.96" text-anchor="end" dy="0.35em" id="fig-57278e5753f7436e9ee0c53ee2e39d13-element-43">350</text>
    <text x="18.63" y="19.48" text-anchor="end" dy="0.35em" id="fig-57278e5753f7436e9ee0c53ee2e39d13-element-44">400</text>
    <text x="18.63" y="7" text-anchor="end" dy="0.35em" id="fig-57278e5753f7436e9ee0c53ee2e39d13-element-45">450</text>
  </g>
  <g font-size="3.88" font-family="'PT Sans','Helvetica Neue','Helvetica',sans-serif" fill="#564A55" stroke="none" id="fig-57278e5753f7436e9ee0c53ee2e39d13-element-46">
    <text x="8.81" y="29.96" text-anchor="middle" dy="0.35em" transform="rotate(-90, 8.81, 31.96)" id="fig-57278e5753f7436e9ee0c53ee2e39d13-element-47">Number of Tagged Packages</text>
  </g>
</g>
<defs>
<clipPath id="fig-57278e5753f7436e9ee0c53ee2e39d13-element-16">
  <path d="M19.63,5 L 183.85 5 183.85 58.91 19.63 58.91" />
</clipPath
></defs>
</svg>
