<?xml version="1.0" encoding="UTF-8"?>
<svg xmlns="http://www.w3.org/2000/svg"
     xmlns:xlink="http://www.w3.org/1999/xlink"
     xmlns:gadfly="http://www.gadflyjl.org/ns"
     version="1.2"
     width="203.2mm" height="76.2mm" viewBox="0 0 203.2 76.2"
     stroke="none"
     fill="#000000"
     stroke-width="0.3"
     font-size="3.88"
>
<g class="plotroot xscalable yscalable" id="fig-2a5dac4ae6b146ab9fe6f5dc305a6bc3-element-1">
  <g font-size="3.88" font-family="'PT Sans','Helvetica Neue','Helvetica',sans-serif" fill="#564A55" stroke="none" id="fig-2a5dac4ae6b146ab9fe6f5dc305a6bc3-element-2">
    <text x="101.74" y="68.2" text-anchor="middle">Date</text>
  </g>
  <g class="guide xlabels" font-size="2.82" font-family="'PT Sans Caption','Helvetica Neue','Helvetica',sans-serif" fill="#6C606B" id="fig-2a5dac4ae6b146ab9fe6f5dc305a6bc3-element-3">
    <text x="23.07" y="62.59" text-anchor="middle">Apr</text>
    <text x="48.86" y="62.59" text-anchor="middle">May</text>
    <text x="75.52" y="62.59" text-anchor="middle">June</text>
    <text x="101.31" y="62.59" text-anchor="middle">July</text>
    <text x="127.97" y="62.59" text-anchor="middle">Aug</text>
    <text x="154.62" y="62.59" text-anchor="middle">Sept</text>
    <text x="180.41" y="62.59" text-anchor="middle">Oct</text>
  </g>
  <g class="guide colorkey" id="fig-2a5dac4ae6b146ab9fe6f5dc305a6bc3-element-4">
    <g fill="#4C404B" font-size="2.82" font-family="'PT Sans','Helvetica Neue','Helvetica',sans-serif" id="fig-2a5dac4ae6b146ab9fe6f5dc305a6bc3-element-5">
      <text x="187.67" y="30.14" dy="0.35em" id="fig-2a5dac4ae6b146ab9fe6f5dc305a6bc3-element-6" class="color_0.2">0.2</text>
      <text x="187.67" y="33.77" dy="0.35em" id="fig-2a5dac4ae6b146ab9fe6f5dc305a6bc3-element-7" class="color_0.3">0.3</text>
      <text x="187.67" y="37.4" dy="0.35em" id="fig-2a5dac4ae6b146ab9fe6f5dc305a6bc3-element-8" class="color_0.4">0.4</text>
    </g>
    <g stroke="none" id="fig-2a5dac4ae6b146ab9fe6f5dc305a6bc3-element-9">
      <rect x="184.85" y="29.24" width="1.81" height="1.81" id="fig-2a5dac4ae6b146ab9fe6f5dc305a6bc3-element-10" class="color_0.2" fill="#00BFFF"/>
      <rect x="184.85" y="32.86" width="1.81" height="1.81" id="fig-2a5dac4ae6b146ab9fe6f5dc305a6bc3-element-11" class="color_0.3" fill="#D4CA3A"/>
      <rect x="184.85" y="36.49" width="1.81" height="1.81" id="fig-2a5dac4ae6b146ab9fe6f5dc305a6bc3-element-12" class="color_0.4" fill="#FF5EA0"/>
    </g>
    <g fill="#362A35" font-size="3.88" font-family="'PT Sans','Helvetica Neue','Helvetica',sans-serif" stroke="none" id="fig-2a5dac4ae6b146ab9fe6f5dc305a6bc3-element-13">
      <text x="184.85" y="26.32" id="fig-2a5dac4ae6b146ab9fe6f5dc305a6bc3-element-14">Julia ver.</text>
    </g>
  </g>
  <g clip-path="url(#fig-2a5dac4ae6b146ab9fe6f5dc305a6bc3-element-16)" id="fig-2a5dac4ae6b146ab9fe6f5dc305a6bc3-element-15">
    <g pointer-events="visible" opacity="1" fill="none" stroke="none" class="guide background" id="fig-2a5dac4ae6b146ab9fe6f5dc305a6bc3-element-17">
      <rect x="19.63" y="5" width="164.22" height="53.91" id="fig-2a5dac4ae6b146ab9fe6f5dc305a6bc3-element-18"/>
    </g>
    <g class="guide ygridlines xfixed" stroke-dasharray="0.5,0.5" stroke-width="0.2" stroke="#D0D0E0" id="fig-2a5dac4ae6b146ab9fe6f5dc305a6bc3-element-19">
      <path fill="none" d="M19.63,56.91 L 183.85 56.91" id="fig-2a5dac4ae6b146ab9fe6f5dc305a6bc3-element-20"/>
      <path fill="none" d="M19.63,44.44 L 183.85 44.44" id="fig-2a5dac4ae6b146ab9fe6f5dc305a6bc3-element-21"/>
      <path fill="none" d="M19.63,31.96 L 183.85 31.96" id="fig-2a5dac4ae6b146ab9fe6f5dc305a6bc3-element-22"/>
      <path fill="none" d="M19.63,19.48 L 183.85 19.48" id="fig-2a5dac4ae6b146ab9fe6f5dc305a6bc3-element-23"/>
      <path fill="none" d="M19.63,7 L 183.85 7" id="fig-2a5dac4ae6b146ab9fe6f5dc305a6bc3-element-24"/>
    </g>
    <g class="guide xgridlines yfixed" stroke-dasharray="0.5,0.5" stroke-width="0.2" stroke="#D0D0E0" id="fig-2a5dac4ae6b146ab9fe6f5dc305a6bc3-element-25">
      <path fill="none" d="M23.07,5 L 23.07 58.91" id="fig-2a5dac4ae6b146ab9fe6f5dc305a6bc3-element-26"/>
      <path fill="none" d="M48.86,5 L 48.86 58.91" id="fig-2a5dac4ae6b146ab9fe6f5dc305a6bc3-element-27"/>
      <path fill="none" d="M75.52,5 L 75.52 58.91" id="fig-2a5dac4ae6b146ab9fe6f5dc305a6bc3-element-28"/>
      <path fill="none" d="M101.31,5 L 101.31 58.91" id="fig-2a5dac4ae6b146ab9fe6f5dc305a6bc3-element-29"/>
      <path fill="none" d="M127.97,5 L 127.97 58.91" id="fig-2a5dac4ae6b146ab9fe6f5dc305a6bc3-element-30"/>
      <path fill="none" d="M154.62,5 L 154.62 58.91" id="fig-2a5dac4ae6b146ab9fe6f5dc305a6bc3-element-31"/>
      <path fill="none" d="M180.41,5 L 180.41 58.91" id="fig-2a5dac4ae6b146ab9fe6f5dc305a6bc3-element-32"/>
    </g>
    <g class="plotpanel" id="fig-2a5dac4ae6b146ab9fe6f5dc305a6bc3-element-33">
      <g stroke-width="0.79" fill="none" class="geometry color_0.4" stroke="#FF5EA0" id="fig-2a5dac4ae6b146ab9fe6f5dc305a6bc3-element-34">
        <path fill="none" d="M138.28,28.46 L 139.14 27.71 140 27.47 140.86 27.22 141.72 27.22 142.58 27.22 144.3 26.47 145.16 26.47 146.02 26.22 146.88 26.22 147.74 26.22 148.6 25.47 149.46 24.97 150.32 24.97 152.04 24.47 152.9 23.72 154.62 23.22 155.48 23.22 156.34 23.22 159.78 23.22 162.36 21.72 163.22 21.48 164.08 21.23 164.94 20.73 165.8 20.73 166.66 20.73 167.52 18.73 168.38 18.73 169.24 18.73 170.96 18.48 171.82 18.48 172.68 18.23 173.54 18.23 174.4 18.23 175.26 17.98 176.12 17.98 177.84 18.23 178.7 17.98 179.56 17.98 180.41 17.48 181.27 16.98" id="fig-2a5dac4ae6b146ab9fe6f5dc305a6bc3-element-35"/>
      </g>
      <g stroke-width="0.79" fill="none" class="geometry color_0.3" stroke="#D4CA3A" id="fig-2a5dac4ae6b146ab9fe6f5dc305a6bc3-element-36">
        <path fill="none" d="M21.35,45.43 L 22.21 45.43 23.07 45.18 23.93 45.18 24.79 45.18 25.65 45.18 26.51 45.18 27.37 44.94 29.09 44.94 29.95 44.69 31.67 44.44 33.39 43.94 34.25 43.94 35.97 43.94 36.83 43.69 42.85 42.69 45.43 42.69 47.15 42.69 53.16 42.44 54.02 41.94 54.88 41.69 55.74 41.69 56.6 41.69 57.46 41.69 58.32 41.69 59.18 41.69 60.04 41.69 60.9 41.69 61.76 41.69 62.62 40.94 64.34 40.69 65.2 40.69 66.06 40.69 66.92 40.19 67.78 40.19 68.64 40.19 69.5 39.94 70.36 39.94 71.22 39.94 72.08 39.94 72.94 39.94 73.8 39.69 74.66 39.69 75.52 49.68 76.38 39.44 77.24 39.2 78.1 38.95 83.26 37.45 84.12 37.2 84.98 36.95 85.84 36.7 86.7 36.2 87.56 36.2 88.42 35.7 89.28 35.7 90.14 35.45 91 35.2 92.71 35.2 93.57 34.7 94.43 34.7 95.29 34.7 96.15 34.7 97.01 34.7 97.87 33.95 98.73 33.95 100.45 33.7 101.31 33.21 102.17 32.96 103.03 32.71 103.89 32.71 104.75 32.21 106.47 31.96 107.33 31.21 108.19 31.21 109.05 31.21 110.77 29.96 112.49 29.21 113.35 29.21 114.21 28.96 115.07 28.96 117.65 28.71 118.51 28.71 119.37 28.46 120.23 28.46 121.09 28.46 121.95 28.21 122.81 27.96 123.67 27.71 125.39 27.71 126.25 27.71 127.97 27.71 128.83 27.47 129.69 26.72 130.55 26.72 132.27 26.47 133.13 26.47 133.99 25.97 134.85 25.72 135.71 25.47 136.56 25.22 137.42 24.97 138.28 24.47 139.14 24.47 140 24.22 140.86 23.97 141.72 23.97 142.58 23.97 144.3 23.22 145.16 23.22 146.02 22.97 146.88 22.97 147.74 22.97 148.6 22.22 149.46 21.97 150.32 21.72 152.04 24.72 152.9 23.97 154.62 23.47 155.48 23.47 156.34 23.47 159.78 23.47 162.36 21.97 163.22 21.72 164.08 21.48 164.94 20.98 165.8 20.98 166.66 20.98 167.52 18.98 168.38 18.98 169.24 18.98 170.96 18.98 171.82 18.73 172.68 18.48 173.54 18.48 174.4 18.48 175.26 18.23 176.12 18.23 177.84 18.48 178.7 18.23 179.56 18.23 180.41 17.73 181.27 12.74" id="fig-2a5dac4ae6b146ab9fe6f5dc305a6bc3-element-37"/>
      </g>
      <g stroke-width="0.79" fill="none" class="geometry color_0.2" stroke="#00BFFF" id="fig-2a5dac4ae6b146ab9fe6f5dc305a6bc3-element-38">
        <path fill="none" d="M21.35,48.18 L 22.21 48.18 23.07 47.93 23.93 47.93 24.79 47.93 25.65 47.93 26.51 47.93 27.37 47.93 29.09 47.93 29.95 47.93 31.67 47.68 33.39 47.43 34.25 47.43 35.97 47.18 36.83 46.93 42.85 46.43 45.43 46.43 47.15 46.43 53.16 46.18 54.02 45.93 54.88 45.93 55.74 45.93 56.6 45.93 57.46 45.93 58.32 45.93 59.18 45.93 60.04 45.93 60.9 45.93 61.76 45.18 62.62 45.18 64.34 44.94 65.2 44.94 66.06 44.94 66.92 44.69 67.78 46.68 68.64 45.43 69.5 45.43 70.36 45.43 71.22 45.43 72.08 45.43 72.94 45.43 73.8 45.43 74.66 45.43 75.52 45.18 76.38 45.18 77.24 44.94 78.1 44.94 83.26 43.69 84.12 43.69 84.98 43.44 85.84 43.19 86.7 42.69 87.56 42.69 88.42 42.69 89.28 42.69 90.14 42.69 91 42.44 92.71 42.44 93.57 41.94 94.43 41.94 95.29 41.94 96.15 41.94 97.01 41.94 97.87 41.19 98.73 41.19 100.45 40.94 101.31 40.44 102.17 40.19 103.03 39.94 103.89 39.94 104.75 39.94 106.47 39.44 107.33 39.2 108.19 38.95 109.05 38.95 110.77 38.45 112.49 37.95 113.35 37.95 114.21 37.95 115.07 37.95 117.65 37.95 118.51 37.95 119.37 37.7 120.23 37.7 121.09 37.7 121.95 37.45 122.81 37.45 123.67 37.45 125.39 37.2 126.25 37.2 127.97 37.2 128.83 37.2 129.69 36.45 130.55 36.45 132.27 36.95 133.13 36.95 133.99 36.45 134.85 36.2 135.71 36.2 136.56 35.7 137.42 35.7" id="fig-2a5dac4ae6b146ab9fe6f5dc305a6bc3-element-39"/>
      </g>
    </g>
  </g>
  <g class="guide ylabels" font-size="2.82" font-family="'PT Sans Caption','Helvetica Neue','Helvetica',sans-serif" fill="#6C606B" id="fig-2a5dac4ae6b146ab9fe6f5dc305a6bc3-element-40">
    <text x="18.63" y="56.91" text-anchor="end" dy="0.35em" id="fig-2a5dac4ae6b146ab9fe6f5dc305a6bc3-element-41">250</text>
    <text x="18.63" y="44.44" text-anchor="end" dy="0.35em" id="fig-2a5dac4ae6b146ab9fe6f5dc305a6bc3-element-42">300</text>
    <text x="18.63" y="31.96" text-anchor="end" dy="0.35em" id="fig-2a5dac4ae6b146ab9fe6f5dc305a6bc3-element-43">350</text>
    <text x="18.63" y="19.48" text-anchor="end" dy="0.35em" id="fig-2a5dac4ae6b146ab9fe6f5dc305a6bc3-element-44">400</text>
    <text x="18.63" y="7" text-anchor="end" dy="0.35em" id="fig-2a5dac4ae6b146ab9fe6f5dc305a6bc3-element-45">450</text>
  </g>
  <g font-size="3.88" font-family="'PT Sans','Helvetica Neue','Helvetica',sans-serif" fill="#564A55" stroke="none" id="fig-2a5dac4ae6b146ab9fe6f5dc305a6bc3-element-46">
    <text x="8.81" y="29.96" text-anchor="middle" dy="0.35em" transform="rotate(-90, 8.81, 31.96)" id="fig-2a5dac4ae6b146ab9fe6f5dc305a6bc3-element-47">Number of Tagged Packages</text>
  </g>
</g>
<defs>
<clipPath id="fig-2a5dac4ae6b146ab9fe6f5dc305a6bc3-element-16">
  <path d="M19.63,5 L 183.85 5 183.85 58.91 19.63 58.91" />
</clipPath
></defs>
</svg>
