<?xml version="1.0" encoding="UTF-8"?>
<svg xmlns="http://www.w3.org/2000/svg"
     xmlns:xlink="http://www.w3.org/1999/xlink"
     xmlns:gadfly="http://www.gadflyjl.org/ns"
     version="1.2"
     width="203.2mm" height="76.2mm" viewBox="0 0 203.2 76.2"
     stroke="none"
     fill="#000000"
     stroke-width="0.3"
     font-size="3.88"
>
<g class="plotroot xscalable yscalable" id="fig-0a9ed709ed76401fb635115ba1f939f1-element-1">
  <g font-size="3.88" font-family="'PT Sans','Helvetica Neue','Helvetica',sans-serif" fill="#564A55" stroke="none" id="fig-0a9ed709ed76401fb635115ba1f939f1-element-2">
    <text x="101.74" y="68.2" text-anchor="middle">Date</text>
  </g>
  <g class="guide xlabels" font-size="2.82" font-family="'PT Sans Caption','Helvetica Neue','Helvetica',sans-serif" fill="#6C606B" id="fig-0a9ed709ed76401fb635115ba1f939f1-element-3">
    <text x="22.88" y="62.59" text-anchor="middle">Apr</text>
    <text x="47.27" y="62.59" text-anchor="middle">May</text>
    <text x="72.48" y="62.59" text-anchor="middle">June</text>
    <text x="96.87" y="62.59" text-anchor="middle">July</text>
    <text x="122.07" y="62.59" text-anchor="middle">Aug</text>
    <text x="147.27" y="62.59" text-anchor="middle">Sept</text>
    <text x="171.66" y="62.59" text-anchor="middle">Oct</text>
  </g>
  <g class="guide colorkey" id="fig-0a9ed709ed76401fb635115ba1f939f1-element-4">
    <g fill="#4C404B" font-size="2.82" font-family="'PT Sans','Helvetica Neue','Helvetica',sans-serif" id="fig-0a9ed709ed76401fb635115ba1f939f1-element-5">
      <text x="187.67" y="30.14" dy="0.35em" id="fig-0a9ed709ed76401fb635115ba1f939f1-element-6" class="color_0.2">0.2</text>
      <text x="187.67" y="33.77" dy="0.35em" id="fig-0a9ed709ed76401fb635115ba1f939f1-element-7" class="color_0.3">0.3</text>
      <text x="187.67" y="37.4" dy="0.35em" id="fig-0a9ed709ed76401fb635115ba1f939f1-element-8" class="color_0.4">0.4</text>
    </g>
    <g stroke="none" id="fig-0a9ed709ed76401fb635115ba1f939f1-element-9">
      <rect x="184.85" y="29.24" width="1.81" height="1.81" id="fig-0a9ed709ed76401fb635115ba1f939f1-element-10" class="color_0.2" fill="#00BFFF"/>
      <rect x="184.85" y="32.86" width="1.81" height="1.81" id="fig-0a9ed709ed76401fb635115ba1f939f1-element-11" class="color_0.3" fill="#D4CA3A"/>
      <rect x="184.85" y="36.49" width="1.81" height="1.81" id="fig-0a9ed709ed76401fb635115ba1f939f1-element-12" class="color_0.4" fill="#FF5EA0"/>
    </g>
    <g fill="#362A35" font-size="3.88" font-family="'PT Sans','Helvetica Neue','Helvetica',sans-serif" stroke="none" id="fig-0a9ed709ed76401fb635115ba1f939f1-element-13">
      <text x="184.85" y="26.32" id="fig-0a9ed709ed76401fb635115ba1f939f1-element-14">Julia ver.</text>
    </g>
  </g>
  <g font-size="3.88" font-family="'PT Sans','Helvetica Neue','Helvetica',sans-serif" fill="#564A55" stroke="none" id="fig-0a9ed709ed76401fb635115ba1f939f1-element-15">
    <text x="8.81" y="29.96" text-anchor="middle" dy="0.35em" transform="rotate(-90, 8.81, 31.96)" id="fig-0a9ed709ed76401fb635115ba1f939f1-element-16">Number of Tagged Packages</text>
  </g>
  <g clip-path="url(#fig-0a9ed709ed76401fb635115ba1f939f1-element-18)" id="fig-0a9ed709ed76401fb635115ba1f939f1-element-17">
    <g pointer-events="visible" opacity="1" fill="none" stroke="none" class="guide background" id="fig-0a9ed709ed76401fb635115ba1f939f1-element-19">
      <rect x="19.63" y="5" width="164.22" height="53.91" id="fig-0a9ed709ed76401fb635115ba1f939f1-element-20"/>
    </g>
    <g class="guide ygridlines xfixed" stroke-dasharray="0.5,0.5" stroke-width="0.2" stroke="#D0D0E0" id="fig-0a9ed709ed76401fb635115ba1f939f1-element-21">
      <path fill="none" d="M19.63,56.91 L 183.85 56.91" id="fig-0a9ed709ed76401fb635115ba1f939f1-element-22"/>
      <path fill="none" d="M19.63,44.44 L 183.85 44.44" id="fig-0a9ed709ed76401fb635115ba1f939f1-element-23"/>
      <path fill="none" d="M19.63,31.96 L 183.85 31.96" id="fig-0a9ed709ed76401fb635115ba1f939f1-element-24"/>
      <path fill="none" d="M19.63,19.48 L 183.85 19.48" id="fig-0a9ed709ed76401fb635115ba1f939f1-element-25"/>
      <path fill="none" d="M19.63,7 L 183.85 7" id="fig-0a9ed709ed76401fb635115ba1f939f1-element-26"/>
    </g>
    <g class="guide xgridlines yfixed" stroke-dasharray="0.5,0.5" stroke-width="0.2" stroke="#D0D0E0" id="fig-0a9ed709ed76401fb635115ba1f939f1-element-27">
      <path fill="none" d="M22.88,5 L 22.88 58.91" id="fig-0a9ed709ed76401fb635115ba1f939f1-element-28"/>
      <path fill="none" d="M47.27,5 L 47.27 58.91" id="fig-0a9ed709ed76401fb635115ba1f939f1-element-29"/>
      <path fill="none" d="M72.48,5 L 72.48 58.91" id="fig-0a9ed709ed76401fb635115ba1f939f1-element-30"/>
      <path fill="none" d="M96.87,5 L 96.87 58.91" id="fig-0a9ed709ed76401fb635115ba1f939f1-element-31"/>
      <path fill="none" d="M122.07,5 L 122.07 58.91" id="fig-0a9ed709ed76401fb635115ba1f939f1-element-32"/>
      <path fill="none" d="M147.27,5 L 147.27 58.91" id="fig-0a9ed709ed76401fb635115ba1f939f1-element-33"/>
      <path fill="none" d="M171.66,5 L 171.66 58.91" id="fig-0a9ed709ed76401fb635115ba1f939f1-element-34"/>
    </g>
    <g class="plotpanel" id="fig-0a9ed709ed76401fb635115ba1f939f1-element-35">
      <g stroke-width="0.79" fill="none" class="geometry color_0.4" stroke="#FF5EA0" id="fig-0a9ed709ed76401fb635115ba1f939f1-element-36">
        <path fill="none" d="M131.82,28.46 L 132.64 27.71 133.45 27.47 134.26 27.22 135.08 27.22 135.89 27.22 137.51 26.47 138.33 26.47 139.14 26.22 139.95 26.22 140.77 26.22 141.58 25.47 142.39 24.97 143.21 24.97 144.83 24.47 145.64 23.72 147.27 23.22 148.08 23.22 148.9 23.22 152.15 23.22 154.59 21.72 155.4 21.48 156.21 21.23 157.03 20.73 157.84 20.73 158.65 20.73 159.46 18.73 160.28 18.73 161.09 18.73 162.72 18.48 163.53 18.48 164.34 18.23 165.16 18.23 165.97 18.23 166.78 17.98 167.59 17.98 169.22 18.23 170.03 17.98 170.85 17.98 171.66 17.48 172.47 16.98 173.29 16.98 174.1 16.98 174.91 16.48 177.35 15.98 178.16 15.98 178.98 15.49 179.79 15.24 180.6 15.24 181.42 15.24" id="fig-0a9ed709ed76401fb635115ba1f939f1-element-37"/>
      </g>
      <g stroke-width="0.79" fill="none" class="geometry color_0.3" stroke="#D4CA3A" id="fig-0a9ed709ed76401fb635115ba1f939f1-element-38">
        <path fill="none" d="M21.26,45.43 L 22.07 45.43 22.88 45.18 23.7 45.18 24.51 45.18 25.32 45.18 26.14 45.18 26.95 44.94 28.57 44.94 29.39 44.69 31.01 44.44 32.64 43.94 33.45 43.94 35.08 43.94 35.89 43.69 41.58 42.69 44.02 42.69 45.65 42.69 51.34 42.44 52.15 41.94 52.96 41.69 53.78 41.69 54.59 41.69 55.4 41.69 56.22 41.69 57.03 41.69 57.84 41.69 58.65 41.69 59.47 41.69 60.28 40.94 61.91 40.69 62.72 40.69 63.53 40.69 64.35 40.19 65.16 40.19 65.97 40.19 66.78 39.94 67.6 39.94 68.41 39.94 69.22 39.94 70.04 39.94 70.85 39.69 71.66 39.69 72.48 49.68 73.29 39.44 74.1 39.2 74.91 38.95 79.79 37.45 80.61 37.2 81.42 36.95 82.23 36.7 83.04 36.2 83.86 36.2 84.67 35.7 85.48 35.7 86.3 35.45 87.11 35.2 88.74 35.2 89.55 34.7 90.36 34.7 91.17 34.7 91.99 34.7 92.8 34.7 93.61 33.95 94.43 33.95 96.05 33.7 96.87 33.21 97.68 32.96 98.49 32.71 99.3 32.71 100.12 32.21 101.74 31.96 102.56 31.21 103.37 31.21 104.18 31.21 105.81 29.96 107.43 29.21 108.25 29.21 109.06 28.96 109.87 28.96 112.31 28.71 113.12 28.71 113.94 28.46 114.75 28.46 115.56 28.46 116.38 28.21 117.19 27.96 118 27.71 119.63 27.71 120.44 27.71 122.07 27.71 122.88 27.47 123.69 26.72 124.51 26.72 126.13 26.47 126.95 26.47 127.76 25.97 128.57 25.72 129.38 25.47 130.2 25.22 131.01 24.97 131.82 24.47 132.64 24.47 133.45 24.22 134.26 23.97 135.08 23.97 135.89 23.97 137.51 23.22 138.33 23.22 139.14 22.97 139.95 22.97 140.77 22.97 141.58 22.22 142.39 21.97 143.21 21.72 144.83 24.72 145.64 23.97 147.27 23.47 148.08 23.47 148.9 23.47 152.15 23.47 154.59 21.97 155.4 21.72 156.21 21.48 157.03 20.98 157.84 20.98 158.65 20.98 159.46 18.98 160.28 18.98 161.09 18.98 162.72 18.98 163.53 18.73 164.34 18.48 165.16 18.48 165.97 18.48 166.78 18.23 167.59 18.23 169.22 18.48 170.03 18.23 170.85 18.23 171.66 17.73 172.47 12.74 173.29 17.23 174.1 17.23 174.91 16.73 177.35 16.23 178.16 16.23 178.98 15.74 179.79 15.49 180.6 15.49 181.42 15.49" id="fig-0a9ed709ed76401fb635115ba1f939f1-element-39"/>
      </g>
      <g stroke-width="0.79" fill="none" class="geometry color_0.2" stroke="#00BFFF" id="fig-0a9ed709ed76401fb635115ba1f939f1-element-40">
        <path fill="none" d="M21.26,48.18 L 22.07 48.18 22.88 47.93 23.7 47.93 24.51 47.93 25.32 47.93 26.14 47.93 26.95 47.93 28.57 47.93 29.39 47.93 31.01 47.68 32.64 47.43 33.45 47.43 35.08 47.18 35.89 46.93 41.58 46.43 44.02 46.43 45.65 46.43 51.34 46.18 52.15 45.93 52.96 45.93 53.78 45.93 54.59 45.93 55.4 45.93 56.22 45.93 57.03 45.93 57.84 45.93 58.65 45.93 59.47 45.18 60.28 45.18 61.91 44.94 62.72 44.94 63.53 44.94 64.35 44.69 65.16 46.68 65.97 45.43 66.78 45.43 67.6 45.43 68.41 45.43 69.22 45.43 70.04 45.43 70.85 45.43 71.66 45.43 72.48 45.18 73.29 45.18 74.1 44.94 74.91 44.94 79.79 43.69 80.61 43.69 81.42 43.44 82.23 43.19 83.04 42.69 83.86 42.69 84.67 42.69 85.48 42.69 86.3 42.69 87.11 42.44 88.74 42.44 89.55 41.94 90.36 41.94 91.17 41.94 91.99 41.94 92.8 41.94 93.61 41.19 94.43 41.19 96.05 40.94 96.87 40.44 97.68 40.19 98.49 39.94 99.3 39.94 100.12 39.94 101.74 39.44 102.56 39.2 103.37 38.95 104.18 38.95 105.81 38.45 107.43 37.95 108.25 37.95 109.06 37.95 109.87 37.95 112.31 37.95 113.12 37.95 113.94 37.7 114.75 37.7 115.56 37.7 116.38 37.45 117.19 37.45 118 37.45 119.63 37.2 120.44 37.2 122.07 37.2 122.88 37.2 123.69 36.45 124.51 36.45 126.13 36.95 126.95 36.95 127.76 36.45 128.57 36.2 129.38 36.2 130.2 35.7 131.01 35.7" id="fig-0a9ed709ed76401fb635115ba1f939f1-element-41"/>
      </g>
    </g>
  </g>
  <g class="guide ylabels" font-size="2.82" font-family="'PT Sans Caption','Helvetica Neue','Helvetica',sans-serif" fill="#6C606B" id="fig-0a9ed709ed76401fb635115ba1f939f1-element-42">
    <text x="18.63" y="56.91" text-anchor="end" dy="0.35em" id="fig-0a9ed709ed76401fb635115ba1f939f1-element-43">250</text>
    <text x="18.63" y="44.44" text-anchor="end" dy="0.35em" id="fig-0a9ed709ed76401fb635115ba1f939f1-element-44">300</text>
    <text x="18.63" y="31.96" text-anchor="end" dy="0.35em" id="fig-0a9ed709ed76401fb635115ba1f939f1-element-45">350</text>
    <text x="18.63" y="19.48" text-anchor="end" dy="0.35em" id="fig-0a9ed709ed76401fb635115ba1f939f1-element-46">400</text>
    <text x="18.63" y="7" text-anchor="end" dy="0.35em" id="fig-0a9ed709ed76401fb635115ba1f939f1-element-47">450</text>
  </g>
</g>
<defs>
<clipPath id="fig-0a9ed709ed76401fb635115ba1f939f1-element-18">
  <path d="M19.63,5 L 183.85 5 183.85 58.91 19.63 58.91" />
</clipPath
></defs>
</svg>
