<?xml version="1.0" encoding="UTF-8"?>
<svg xmlns="http://www.w3.org/2000/svg"
     xmlns:xlink="http://www.w3.org/1999/xlink"
     xmlns:gadfly="http://www.gadflyjl.org/ns"
     version="1.2"
     width="203.2mm" height="76.2mm" viewBox="0 0 203.2 76.2"
     stroke="none"
     fill="#000000"
     stroke-width="0.3"
     font-size="3.88"
>
<g class="plotroot xscalable yscalable" id="fig-15a8852952524d7dad248a14ca7f0366-element-1">
  <g font-size="3.88" font-family="'PT Sans','Helvetica Neue','Helvetica',sans-serif" fill="#564A55" stroke="none" id="fig-15a8852952524d7dad248a14ca7f0366-element-2">
    <text x="101.74" y="68.2" text-anchor="middle">Date</text>
  </g>
  <g class="guide xlabels" font-size="2.82" font-family="'PT Sans Caption','Helvetica Neue','Helvetica',sans-serif" fill="#6C606B" id="fig-15a8852952524d7dad248a14ca7f0366-element-3">
    <text x="23.04" y="62.59" text-anchor="middle">Apr</text>
    <text x="48.56" y="62.59" text-anchor="middle">May</text>
    <text x="74.94" y="62.59" text-anchor="middle">June</text>
    <text x="100.47" y="62.59" text-anchor="middle">July</text>
    <text x="126.84" y="62.59" text-anchor="middle">Aug</text>
    <text x="153.22" y="62.59" text-anchor="middle">Sept</text>
    <text x="178.75" y="62.59" text-anchor="middle">Oct</text>
  </g>
  <g class="guide colorkey" id="fig-15a8852952524d7dad248a14ca7f0366-element-4">
    <g fill="#4C404B" font-size="2.82" font-family="'PT Sans','Helvetica Neue','Helvetica',sans-serif" id="fig-15a8852952524d7dad248a14ca7f0366-element-5">
      <text x="187.67" y="30.14" dy="0.35em" id="fig-15a8852952524d7dad248a14ca7f0366-element-6" class="color_0.2">0.2</text>
      <text x="187.67" y="33.77" dy="0.35em" id="fig-15a8852952524d7dad248a14ca7f0366-element-7" class="color_0.3">0.3</text>
      <text x="187.67" y="37.4" dy="0.35em" id="fig-15a8852952524d7dad248a14ca7f0366-element-8" class="color_0.4">0.4</text>
    </g>
    <g stroke="none" id="fig-15a8852952524d7dad248a14ca7f0366-element-9">
      <rect x="184.85" y="29.24" width="1.81" height="1.81" id="fig-15a8852952524d7dad248a14ca7f0366-element-10" fill="#00BFFF" class="color_0.2"/>
      <rect x="184.85" y="32.86" width="1.81" height="1.81" id="fig-15a8852952524d7dad248a14ca7f0366-element-11" fill="#D4CA3A" class="color_0.3"/>
      <rect x="184.85" y="36.49" width="1.81" height="1.81" id="fig-15a8852952524d7dad248a14ca7f0366-element-12" fill="#FF5EA0" class="color_0.4"/>
    </g>
    <g fill="#362A35" font-size="3.88" font-family="'PT Sans','Helvetica Neue','Helvetica',sans-serif" stroke="none" id="fig-15a8852952524d7dad248a14ca7f0366-element-13">
      <text x="184.85" y="26.32" id="fig-15a8852952524d7dad248a14ca7f0366-element-14">Julia ver.</text>
    </g>
  </g>
  <g clip-path="url(#fig-15a8852952524d7dad248a14ca7f0366-element-16)" id="fig-15a8852952524d7dad248a14ca7f0366-element-15">
    <g pointer-events="visible" opacity="1" fill="none" stroke="none" class="guide background" id="fig-15a8852952524d7dad248a14ca7f0366-element-17">
      <rect x="19.63" y="5" width="164.22" height="53.91" id="fig-15a8852952524d7dad248a14ca7f0366-element-18"/>
    </g>
    <g class="guide ygridlines xfixed" stroke-dasharray="0.5,0.5" stroke-width="0.2" stroke="#D0D0E0" id="fig-15a8852952524d7dad248a14ca7f0366-element-19">
      <path fill="none" d="M19.63,56.91 L 183.85 56.91" id="fig-15a8852952524d7dad248a14ca7f0366-element-20"/>
      <path fill="none" d="M19.63,44.44 L 183.85 44.44" id="fig-15a8852952524d7dad248a14ca7f0366-element-21"/>
      <path fill="none" d="M19.63,31.96 L 183.85 31.96" id="fig-15a8852952524d7dad248a14ca7f0366-element-22"/>
      <path fill="none" d="M19.63,19.48 L 183.85 19.48" id="fig-15a8852952524d7dad248a14ca7f0366-element-23"/>
      <path fill="none" d="M19.63,7 L 183.85 7" id="fig-15a8852952524d7dad248a14ca7f0366-element-24"/>
    </g>
    <g class="guide xgridlines yfixed" stroke-dasharray="0.5,0.5" stroke-width="0.2" stroke="#D0D0E0" id="fig-15a8852952524d7dad248a14ca7f0366-element-25">
      <path fill="none" d="M23.04,5 L 23.04 58.91" id="fig-15a8852952524d7dad248a14ca7f0366-element-26"/>
      <path fill="none" d="M48.56,5 L 48.56 58.91" id="fig-15a8852952524d7dad248a14ca7f0366-element-27"/>
      <path fill="none" d="M74.94,5 L 74.94 58.91" id="fig-15a8852952524d7dad248a14ca7f0366-element-28"/>
      <path fill="none" d="M100.47,5 L 100.47 58.91" id="fig-15a8852952524d7dad248a14ca7f0366-element-29"/>
      <path fill="none" d="M126.84,5 L 126.84 58.91" id="fig-15a8852952524d7dad248a14ca7f0366-element-30"/>
      <path fill="none" d="M153.22,5 L 153.22 58.91" id="fig-15a8852952524d7dad248a14ca7f0366-element-31"/>
      <path fill="none" d="M178.75,5 L 178.75 58.91" id="fig-15a8852952524d7dad248a14ca7f0366-element-32"/>
    </g>
    <g class="plotpanel" id="fig-15a8852952524d7dad248a14ca7f0366-element-33">
      <g stroke-width="0.79" fill="none" class="geometry color_0.4" stroke="#FF5EA0" id="fig-15a8852952524d7dad248a14ca7f0366-element-34">
        <path fill="none" d="M137.06,28.46 L 137.91 27.71 138.76 27.47 139.61 27.22 140.46 27.22 141.31 27.22 143.01 26.47 143.86 26.47 144.71 26.22 145.56 26.22 146.41 26.22 147.27 25.47 148.12 24.97 148.97 24.97 150.67 24.47 151.52 23.72 153.22 23.22 154.07 23.22 154.92 23.22 158.33 23.22 160.88 21.72 161.73 21.48 162.58 21.23 163.43 20.73 164.28 20.73 165.13 20.73 165.99 18.73 166.84 18.73 167.69 18.73 169.39 18.48 170.24 18.48 171.09 18.23 171.94 18.23 172.79 18.23 173.64 17.98 174.49 17.98 176.2 18.23 177.05 17.98 177.9 17.98 178.75 17.48 179.6 16.98 180.45 16.98 181.3 16.98" id="fig-15a8852952524d7dad248a14ca7f0366-element-35"/>
      </g>
      <g stroke-width="0.79" fill="none" class="geometry color_0.3" stroke="#D4CA3A" id="fig-15a8852952524d7dad248a14ca7f0366-element-36">
        <path fill="none" d="M21.33,45.43 L 22.18 45.43 23.04 45.18 23.89 45.18 24.74 45.18 25.59 45.18 26.44 45.18 27.29 44.94 28.99 44.94 29.84 44.69 31.54 44.44 33.25 43.94 34.1 43.94 35.8 43.94 36.65 43.69 42.61 42.69 45.16 42.69 46.86 42.69 52.82 42.44 53.67 41.94 54.52 41.69 55.37 41.69 56.22 41.69 57.07 41.69 57.92 41.69 58.77 41.69 59.62 41.69 60.47 41.69 61.33 41.69 62.18 40.94 63.88 40.69 64.73 40.69 65.58 40.69 66.43 40.19 67.28 40.19 68.13 40.19 68.98 39.94 69.83 39.94 70.69 39.94 71.54 39.94 72.39 39.94 73.24 39.69 74.09 39.69 74.94 49.68 75.79 39.44 76.64 39.2 77.49 38.95 82.6 37.45 83.45 37.2 84.3 36.95 85.15 36.7 86 36.2 86.85 36.2 87.7 35.7 88.55 35.7 89.4 35.45 90.26 35.2 91.96 35.2 92.81 34.7 93.66 34.7 94.51 34.7 95.36 34.7 96.21 34.7 97.06 33.95 97.91 33.95 99.62 33.7 100.47 33.21 101.32 32.96 102.17 32.71 103.02 32.71 103.87 32.21 105.57 31.96 106.42 31.21 107.27 31.21 108.12 31.21 109.83 29.96 111.53 29.21 112.38 29.21 113.23 28.96 114.08 28.96 116.63 28.71 117.48 28.71 118.34 28.46 119.19 28.46 120.04 28.46 120.89 28.21 121.74 27.96 122.59 27.71 124.29 27.71 125.14 27.71 126.84 27.71 127.7 27.47 128.55 26.72 129.4 26.72 131.1 26.47 131.95 26.47 132.8 25.97 133.65 25.72 134.5 25.47 135.35 25.22 136.2 24.97 137.06 24.47 137.91 24.47 138.76 24.22 139.61 23.97 140.46 23.97 141.31 23.97 143.01 23.22 143.86 23.22 144.71 22.97 145.56 22.97 146.41 22.97 147.27 22.22 148.12 21.97 148.97 21.72 150.67 24.72 151.52 23.97 153.22 23.47 154.07 23.47 154.92 23.47 158.33 23.47 160.88 21.97 161.73 21.72 162.58 21.48 163.43 20.98 164.28 20.98 165.13 20.98 165.99 18.98 166.84 18.98 167.69 18.98 169.39 18.98 170.24 18.73 171.09 18.48 171.94 18.48 172.79 18.48 173.64 18.23 174.49 18.23 176.2 18.48 177.05 18.23 177.9 18.23 178.75 17.73 179.6 12.74 180.45 17.23 181.3 17.23" id="fig-15a8852952524d7dad248a14ca7f0366-element-37"/>
      </g>
      <g stroke-width="0.79" fill="none" class="geometry color_0.2" stroke="#00BFFF" id="fig-15a8852952524d7dad248a14ca7f0366-element-38">
        <path fill="none" d="M21.33,48.18 L 22.18 48.18 23.04 47.93 23.89 47.93 24.74 47.93 25.59 47.93 26.44 47.93 27.29 47.93 28.99 47.93 29.84 47.93 31.54 47.68 33.25 47.43 34.1 47.43 35.8 47.18 36.65 46.93 42.61 46.43 45.16 46.43 46.86 46.43 52.82 46.18 53.67 45.93 54.52 45.93 55.37 45.93 56.22 45.93 57.07 45.93 57.92 45.93 58.77 45.93 59.62 45.93 60.47 45.93 61.33 45.18 62.18 45.18 63.88 44.94 64.73 44.94 65.58 44.94 66.43 44.69 67.28 46.68 68.13 45.43 68.98 45.43 69.83 45.43 70.69 45.43 71.54 45.43 72.39 45.43 73.24 45.43 74.09 45.43 74.94 45.18 75.79 45.18 76.64 44.94 77.49 44.94 82.6 43.69 83.45 43.69 84.3 43.44 85.15 43.19 86 42.69 86.85 42.69 87.7 42.69 88.55 42.69 89.4 42.69 90.26 42.44 91.96 42.44 92.81 41.94 93.66 41.94 94.51 41.94 95.36 41.94 96.21 41.94 97.06 41.19 97.91 41.19 99.62 40.94 100.47 40.44 101.32 40.19 102.17 39.94 103.02 39.94 103.87 39.94 105.57 39.44 106.42 39.2 107.27 38.95 108.12 38.95 109.83 38.45 111.53 37.95 112.38 37.95 113.23 37.95 114.08 37.95 116.63 37.95 117.48 37.95 118.34 37.7 119.19 37.7 120.04 37.7 120.89 37.45 121.74 37.45 122.59 37.45 124.29 37.2 125.14 37.2 126.84 37.2 127.7 37.2 128.55 36.45 129.4 36.45 131.1 36.95 131.95 36.95 132.8 36.45 133.65 36.2 134.5 36.2 135.35 35.7 136.2 35.7" id="fig-15a8852952524d7dad248a14ca7f0366-element-39"/>
      </g>
    </g>
  </g>
  <g class="guide ylabels" font-size="2.82" font-family="'PT Sans Caption','Helvetica Neue','Helvetica',sans-serif" fill="#6C606B" id="fig-15a8852952524d7dad248a14ca7f0366-element-40">
    <text x="18.63" y="56.91" text-anchor="end" dy="0.35em" id="fig-15a8852952524d7dad248a14ca7f0366-element-41">250</text>
    <text x="18.63" y="44.44" text-anchor="end" dy="0.35em" id="fig-15a8852952524d7dad248a14ca7f0366-element-42">300</text>
    <text x="18.63" y="31.96" text-anchor="end" dy="0.35em" id="fig-15a8852952524d7dad248a14ca7f0366-element-43">350</text>
    <text x="18.63" y="19.48" text-anchor="end" dy="0.35em" id="fig-15a8852952524d7dad248a14ca7f0366-element-44">400</text>
    <text x="18.63" y="7" text-anchor="end" dy="0.35em" id="fig-15a8852952524d7dad248a14ca7f0366-element-45">450</text>
  </g>
  <g font-size="3.88" font-family="'PT Sans','Helvetica Neue','Helvetica',sans-serif" fill="#564A55" stroke="none" id="fig-15a8852952524d7dad248a14ca7f0366-element-46">
    <text x="8.81" y="29.96" text-anchor="middle" dy="0.35em" transform="rotate(-90, 8.81, 31.96)" id="fig-15a8852952524d7dad248a14ca7f0366-element-47">Number of Tagged Packages</text>
  </g>
</g>
<defs>
<clipPath id="fig-15a8852952524d7dad248a14ca7f0366-element-16">
  <path d="M19.63,5 L 183.85 5 183.85 58.91 19.63 58.91" />
</clipPath
></defs>
</svg>
