<?xml version="1.0" encoding="UTF-8"?>
<svg xmlns="http://www.w3.org/2000/svg"
     xmlns:xlink="http://www.w3.org/1999/xlink"
     xmlns:gadfly="http://www.gadflyjl.org/ns"
     version="1.2"
     width="203.2mm" height="76.2mm" viewBox="0 0 203.2 76.2"
     stroke="none"
     fill="#000000"
     stroke-width="0.3"
     font-size="3.88"
>
<g class="plotroot xscalable yscalable" id="fig-98fa5ce36dce4a74a5239aee971509cd-element-1">
  <g font-size="3.88" font-family="'PT Sans','Helvetica Neue','Helvetica',sans-serif" fill="#564A55" stroke="#000000" stroke-opacity="0.000" id="fig-98fa5ce36dce4a74a5239aee971509cd-element-2">
    <text x="101.74" y="64.59" text-anchor="middle" dy="0.6em">Date</text>
  </g>
  <g class="guide xlabels" font-size="2.82" font-family="'PT Sans Caption','Helvetica Neue','Helvetica',sans-serif" fill="#6C606B" id="fig-98fa5ce36dce4a74a5239aee971509cd-element-3">
    <text x="22.33" y="57.92" text-anchor="middle" dy="0.6em">Apr</text>
    <text x="32.75" y="57.92" text-anchor="middle" dy="0.6em">May</text>
    <text x="43.53" y="57.92" text-anchor="middle" dy="0.6em">Jun</text>
    <text x="53.95" y="57.92" text-anchor="middle" dy="0.6em">Jul</text>
    <text x="64.73" y="57.92" text-anchor="middle" dy="0.6em">Aug</text>
    <text x="75.5" y="57.92" text-anchor="middle" dy="0.6em">Sep</text>
    <text x="85.93" y="57.92" text-anchor="middle" dy="0.6em">Oct</text>
    <text x="96.7" y="57.92" text-anchor="middle" dy="0.6em">Nov</text>
    <text x="107.13" y="57.92" text-anchor="middle" dy="0.6em">Dec</text>
    <text x="117.9" y="57.92" text-anchor="middle" dy="0.6em">Jan 2015</text>
    <text x="128.68" y="57.92" text-anchor="middle" dy="0.6em">Feb</text>
    <text x="138.41" y="57.92" text-anchor="middle" dy="0.6em">Mar</text>
    <text x="149.18" y="57.92" text-anchor="middle" dy="0.6em">Apr</text>
    <text x="159.61" y="57.92" text-anchor="middle" dy="0.6em">May</text>
    <text x="170.38" y="57.92" text-anchor="middle" dy="0.6em">Jun</text>
    <text x="180.81" y="57.92" text-anchor="middle" dy="0.6em">Jul</text>
  </g>
  <g class="guide colorkey" id="fig-98fa5ce36dce4a74a5239aee971509cd-element-4">
    <g fill="#4C404B" font-size="2.82" font-family="'PT Sans','Helvetica Neue','Helvetica',sans-serif" id="fig-98fa5ce36dce4a74a5239aee971509cd-element-5">
      <text x="187.67" y="29.14" dy="0.35em" id="fig-98fa5ce36dce4a74a5239aee971509cd-element-6" class="color_0.2">0.2</text>
      <text x="187.67" y="32.77" dy="0.35em" id="fig-98fa5ce36dce4a74a5239aee971509cd-element-7" class="color_0.3">0.3</text>
      <text x="187.67" y="36.4" dy="0.35em" id="fig-98fa5ce36dce4a74a5239aee971509cd-element-8" class="color_0.4">0.4</text>
    </g>
    <g stroke="#000000" stroke-opacity="0.000" id="fig-98fa5ce36dce4a74a5239aee971509cd-element-9">
      <rect x="184.85" y="28.24" width="1.81" height="1.81" id="fig-98fa5ce36dce4a74a5239aee971509cd-element-10" class="color_0.2" fill="#00BFFF"/>
      <rect x="184.85" y="31.86" width="1.81" height="1.81" id="fig-98fa5ce36dce4a74a5239aee971509cd-element-11" class="color_0.3" fill="#D4CA3A"/>
      <rect x="184.85" y="35.49" width="1.81" height="1.81" id="fig-98fa5ce36dce4a74a5239aee971509cd-element-12" class="color_0.4" fill="#FF5EA0"/>
    </g>
    <g fill="#362A35" font-size="3.88" font-family="'PT Sans','Helvetica Neue','Helvetica',sans-serif" stroke="#000000" stroke-opacity="0.000" id="fig-98fa5ce36dce4a74a5239aee971509cd-element-13">
      <text x="184.85" y="25.32" id="fig-98fa5ce36dce4a74a5239aee971509cd-element-14">Julia ver.</text>
    </g>
  </g>
  <g font-size="3.88" font-family="'PT Sans','Helvetica Neue','Helvetica',sans-serif" fill="#564A55" stroke="#000000" stroke-opacity="0.000" id="fig-98fa5ce36dce4a74a5239aee971509cd-element-15">
    <text x="8.81" y="28.96" text-anchor="middle" dy="0.35em" transform="rotate(-90, 8.81, 30.96)" id="fig-98fa5ce36dce4a74a5239aee971509cd-element-16">Number of Tagged Packages</text>
  </g>
  <g clip-path="url(#fig-98fa5ce36dce4a74a5239aee971509cd-element-18)" id="fig-98fa5ce36dce4a74a5239aee971509cd-element-17">
    <g pointer-events="visible" opacity="1" fill="#000000" fill-opacity="0.000" stroke="#000000" stroke-opacity="0.000" class="guide background" id="fig-98fa5ce36dce4a74a5239aee971509cd-element-19">
      <rect x="19.63" y="5" width="164.22" height="51.92" id="fig-98fa5ce36dce4a74a5239aee971509cd-element-20"/>
    </g>
    <g class="guide ygridlines xfixed" stroke-dasharray="0.5,0.5" stroke-width="0.2" stroke="#D0D0E0" id="fig-98fa5ce36dce4a74a5239aee971509cd-element-21">
      <path fill="none" d="M19.63,54.91 L 183.85 54.91" id="fig-98fa5ce36dce4a74a5239aee971509cd-element-22"/>
      <path fill="none" d="M19.63,45.33 L 183.85 45.33" id="fig-98fa5ce36dce4a74a5239aee971509cd-element-23"/>
      <path fill="none" d="M19.63,35.75 L 183.85 35.75" id="fig-98fa5ce36dce4a74a5239aee971509cd-element-24"/>
      <path fill="none" d="M19.63,26.17 L 183.85 26.17" id="fig-98fa5ce36dce4a74a5239aee971509cd-element-25"/>
      <path fill="none" d="M19.63,16.58 L 183.85 16.58" id="fig-98fa5ce36dce4a74a5239aee971509cd-element-26"/>
      <path fill="none" d="M19.63,7 L 183.85 7" id="fig-98fa5ce36dce4a74a5239aee971509cd-element-27"/>
    </g>
    <g class="guide xgridlines yfixed" stroke-dasharray="0.5,0.5" stroke-width="0.2" stroke="#D0D0E0" id="fig-98fa5ce36dce4a74a5239aee971509cd-element-28">
      <path fill="none" d="M22.33,5 L 22.33 56.92" id="fig-98fa5ce36dce4a74a5239aee971509cd-element-29"/>
      <path fill="none" d="M32.75,5 L 32.75 56.92" id="fig-98fa5ce36dce4a74a5239aee971509cd-element-30"/>
      <path fill="none" d="M43.53,5 L 43.53 56.92" id="fig-98fa5ce36dce4a74a5239aee971509cd-element-31"/>
      <path fill="none" d="M53.95,5 L 53.95 56.92" id="fig-98fa5ce36dce4a74a5239aee971509cd-element-32"/>
      <path fill="none" d="M64.73,5 L 64.73 56.92" id="fig-98fa5ce36dce4a74a5239aee971509cd-element-33"/>
      <path fill="none" d="M75.5,5 L 75.5 56.92" id="fig-98fa5ce36dce4a74a5239aee971509cd-element-34"/>
      <path fill="none" d="M85.93,5 L 85.93 56.92" id="fig-98fa5ce36dce4a74a5239aee971509cd-element-35"/>
      <path fill="none" d="M96.7,5 L 96.7 56.92" id="fig-98fa5ce36dce4a74a5239aee971509cd-element-36"/>
      <path fill="none" d="M107.13,5 L 107.13 56.92" id="fig-98fa5ce36dce4a74a5239aee971509cd-element-37"/>
      <path fill="none" d="M117.9,5 L 117.9 56.92" id="fig-98fa5ce36dce4a74a5239aee971509cd-element-38"/>
      <path fill="none" d="M128.68,5 L 128.68 56.92" id="fig-98fa5ce36dce4a74a5239aee971509cd-element-39"/>
      <path fill="none" d="M138.41,5 L 138.41 56.92" id="fig-98fa5ce36dce4a74a5239aee971509cd-element-40"/>
      <path fill="none" d="M149.18,5 L 149.18 56.92" id="fig-98fa5ce36dce4a74a5239aee971509cd-element-41"/>
      <path fill="none" d="M159.61,5 L 159.61 56.92" id="fig-98fa5ce36dce4a74a5239aee971509cd-element-42"/>
      <path fill="none" d="M170.38,5 L 170.38 56.92" id="fig-98fa5ce36dce4a74a5239aee971509cd-element-43"/>
      <path fill="none" d="M180.81,5 L 180.81 56.92" id="fig-98fa5ce36dce4a74a5239aee971509cd-element-44"/>
    </g>
    <g class="plotpanel" id="fig-98fa5ce36dce4a74a5239aee971509cd-element-45">
      <g class="geometry" stroke="#000000" stroke-opacity="0.000" fill="#4C404B" font-size="2.82" font-family="'PT Sans Caption','Helvetica Neue','Helvetica',sans-serif" id="fig-98fa5ce36dce4a74a5239aee971509cd-element-46">
        <text x="76.27" y="52.46" text-anchor="middle" dy="0.35em" id="fig-98fa5ce36dce4a74a5239aee971509cd-element-47" visibility="visible">v0.3.0</text>
        <text x="87.39" y="52.46" text-anchor="middle" dy="0.35em" id="fig-98fa5ce36dce4a74a5239aee971509cd-element-48" visibility="visible">v0.3.1</text>
        <text x="97.82" y="52.46" text-anchor="middle" dy="0.35em" id="fig-98fa5ce36dce4a74a5239aee971509cd-element-49" visibility="visible">v0.3.2</text>
        <text x="109.29" y="52.46" text-anchor="middle" dy="0.35em" id="fig-98fa5ce36dce4a74a5239aee971509cd-element-50" visibility="visible">v0.3.3</text>
        <text x="116.82" y="52.46" text-anchor="middle" dy="0.35em" id="fig-98fa5ce36dce4a74a5239aee971509cd-element-51" visibility="visible"></text>
        <text x="125.28" y="52.46" text-anchor="middle" dy="0.35em" id="fig-98fa5ce36dce4a74a5239aee971509cd-element-52" visibility="visible">v0.3.5</text>
        <text x="139.18" y="52.46" text-anchor="middle" dy="0.35em" id="fig-98fa5ce36dce4a74a5239aee971509cd-element-53" visibility="visible">v0.3.6</text>
        <text x="151" y="52.46" text-anchor="middle" dy="0.35em" id="fig-98fa5ce36dce4a74a5239aee971509cd-element-54" visibility="visible">v0.3.7</text>
        <text x="164.2" y="52.46" text-anchor="middle" dy="0.35em" id="fig-98fa5ce36dce4a74a5239aee971509cd-element-55" visibility="visible">v0.3.8</text>
        <text x="174.63" y="52.46" text-anchor="middle" dy="0.35em" id="fig-98fa5ce36dce4a74a5239aee971509cd-element-56" visibility="visible">v0.3.9</text>
      </g>
      <g class="yfixed" stroke-width="0.26" stroke="#333333" id="fig-98fa5ce36dce4a74a5239aee971509cd-element-57">
        <path fill="none" d="M71.33,5 L 71.33 56.92" id="fig-98fa5ce36dce4a74a5239aee971509cd-element-58"/>
        <path fill="none" d="M82.45,5 L 82.45 56.92" id="fig-98fa5ce36dce4a74a5239aee971509cd-element-59"/>
        <path fill="none" d="M92.88,5 L 92.88 56.92" id="fig-98fa5ce36dce4a74a5239aee971509cd-element-60"/>
        <path fill="none" d="M104.35,5 L 104.35 56.92" id="fig-98fa5ce36dce4a74a5239aee971509cd-element-61"/>
        <path fill="none" d="M115.82,5 L 115.82 56.92" id="fig-98fa5ce36dce4a74a5239aee971509cd-element-62"/>
        <path fill="none" d="M120.34,5 L 120.34 56.92" id="fig-98fa5ce36dce4a74a5239aee971509cd-element-63"/>
        <path fill="none" d="M134.24,5 L 134.24 56.92" id="fig-98fa5ce36dce4a74a5239aee971509cd-element-64"/>
        <path fill="none" d="M146.06,5 L 146.06 56.92" id="fig-98fa5ce36dce4a74a5239aee971509cd-element-65"/>
        <path fill="none" d="M159.26,5 L 159.26 56.92" id="fig-98fa5ce36dce4a74a5239aee971509cd-element-66"/>
        <path fill="none" d="M169.69,5 L 169.69 56.92" id="fig-98fa5ce36dce4a74a5239aee971509cd-element-67"/>
      </g>
      <g stroke-width="0.79" fill="#000000" fill-opacity="0.000" class="geometry color_0.4" stroke="#FF5EA0" id="fig-98fa5ce36dce4a74a5239aee971509cd-element-68">
        <path fill="none" d="M68.9,39.2 L 69.25 38.91 69.59 38.82 69.94 38.72 70.29 38.72 70.64 38.72 71.33 38.43 71.68 38.43 72.03 38.34 72.37 38.34 72.72 38.34 73.07 38.05 73.42 37.86 73.76 37.86 74.46 37.67 74.81 37.38 75.5 37.19 75.85 37.19 76.2 37.19 77.59 37.19 78.63 36.61 78.98 36.52 79.33 36.42 79.67 36.23 80.02 36.23 80.37 36.23 80.72 35.46 81.06 35.46 81.41 35.46 82.11 35.37 82.45 35.37 82.8 35.27 83.15 35.27 83.5 35.27 83.84 35.17 84.19 35.17 84.89 35.27 85.23 35.17 85.58 35.17 85.93 34.98 86.28 34.79 86.62 34.79 86.97 34.79 87.32 34.6 88.36 34.41 88.71 34.41 89.06 34.22 89.4 34.12 89.75 34.12 90.1 34.12 90.45 33.93 90.79 33.93 91.14 33.83 91.49 33.74 91.84 33.74 92.19 33.74 92.53 33.74 92.88 33.54 93.23 33.35 93.58 33.35 93.92 33.35 94.27 33.26 94.62 33.26 94.97 33.16 95.31 33.16 95.66 32.97 96.01 32.87 96.36 32.87 96.7 32.78 97.05 32.78 97.4 32.78 97.75 32.78 98.09 32.68 98.44 32.59 99.48 32.59 101.22 32.01 101.57 31.82 101.92 31.82 102.26 31.72 102.61 31.72 102.96 31.44 103.31 31.44 104.7 30.96 105.04 30.96 106.78 30.86 107.48 30.86 107.83 30.67 108.17 30.57 108.52 30.57 108.87 30.57 109.22 30.38 109.56 30.19 110.61 30.1 110.95 30 111.65 29.62 112 29.62 112.34 29.62 113.39 29.62 114.08 29.42 115.12 29.23 116.51 29.04 117.21 28.66 118.25 28.47 120.68 27.8 122.07 27.12 122.42 26.93 122.77 26.93 123.12 26.36 123.47 26.36 123.81 26.36 124.51 26.26 124.86 26.17 125.2 26.17 125.55 25.88 125.9 25.78 126.25 25.78 126.59 25.78 127.29 25.5 127.64 25.21 127.98 25.11 129.37 24.35 129.72 24.35 130.07 24.63 130.76 24.35 131.46 24.06 131.81 24.06 132.85 23.87 134.59 23.87 136.32 23.77 138.06 22.91 138.41 22.91 138.76 22.91 139.1 22.72 139.45 22.72 140.15 22.52 140.84 22.52 142.23 22.43 142.58 22.24 142.93 22.24 143.28 22.24 143.62 22.05 143.97 22.14 144.32 21.95 148.49 21.57 149.18 21.57 149.53 21.28 150.23 21.28 151.62 21.18 152.31 21.09 153.01 20.8 154.4 20.61 155.09 20.42 155.44 20.13 156.14 19.65 156.48 19.65 156.83 19.55 157.18 19.36 157.53 19.36 157.87 19.27 158.57 19.17 158.92 18.98 159.61 18.98 160.31 18.79 160.65 18.5 161 18.4 161.7 18.21 162.04 18.12 163.78 17.73 165.17 17.54 165.52 17.35 168.3 17.06 168.65 17.06 168.99 17.06 170.04 16.68 170.38 16.58 170.73 16.39 171.43 16.2 172.12 16.2 172.82 16.01 175.95 15.34 176.99 15.34 177.34 15.34 177.68 15.15 178.03 15.15 178.38 14.86 178.73 14.86 179.07 14.86 179.42 14.76 180.46 14.67 181.16 14.47 181.85 14.47" id="fig-98fa5ce36dce4a74a5239aee971509cd-element-69"/>
      </g>
      <g stroke-width="0.79" fill="#000000" fill-opacity="0.000" class="geometry color_0.3" stroke="#D4CA3A" id="fig-98fa5ce36dce4a74a5239aee971509cd-element-70">
        <path fill="none" d="M21.63,45.72 L 21.98 45.72 22.33 45.62 22.67 45.62 23.02 45.62 23.37 45.62 23.72 45.62 24.06 45.52 24.76 45.52 25.11 45.43 25.8 45.33 26.5 45.14 26.84 45.14 27.54 45.14 27.89 45.04 30.32 44.66 31.36 44.66 32.06 44.66 34.49 44.57 34.84 44.37 35.19 44.28 35.53 44.28 35.88 44.28 36.23 44.28 36.58 44.28 36.92 44.28 37.27 44.28 37.62 44.28 37.97 44.28 38.31 43.99 39.01 43.89 39.36 43.89 39.7 43.89 40.05 43.7 40.4 43.7 40.75 43.7 41.09 43.61 41.44 43.61 41.79 43.61 42.14 43.61 42.48 43.61 42.83 43.51 43.18 43.51 43.53 47.34 43.88 43.42 44.22 43.32 44.57 43.22 46.66 42.65 47 42.55 47.35 42.46 47.7 42.36 48.05 42.17 48.39 42.17 48.74 41.98 49.09 41.98 49.44 41.88 49.78 41.79 50.48 41.79 50.83 41.59 51.17 41.59 51.52 41.59 51.87 41.59 52.22 41.59 52.56 41.31 52.91 41.31 53.61 41.21 53.95 41.02 54.3 40.92 54.65 40.83 55 40.83 55.34 40.64 56.04 40.54 56.39 40.25 56.73 40.25 57.08 40.25 57.78 39.77 58.47 39.49 58.82 39.49 59.17 39.39 59.52 39.39 60.56 39.29 60.91 39.29 61.25 39.2 61.6 39.2 61.95 39.2 62.3 39.1 62.64 39.01 62.99 38.91 63.69 38.91 64.03 38.91 64.73 38.91 65.08 38.82 65.42 38.53 65.77 38.53 66.47 38.43 66.81 38.43 67.16 38.24 67.51 38.14 67.86 38.05 68.2 37.95 68.55 37.86 68.9 37.67 69.25 37.67 69.59 37.57 69.94 37.47 70.29 37.47 70.64 37.47 71.33 37.19 71.68 37.19 72.03 37.09 72.37 37.09 72.72 37.09 73.07 36.8 73.42 36.71 73.76 36.61 74.46 37.76 74.81 37.47 75.5 37.28 75.85 37.28 76.2 37.28 77.59 37.28 78.63 36.71 78.98 36.61 79.33 36.52 79.67 36.32 80.02 36.32 80.37 36.32 80.72 35.56 81.06 35.56 81.41 35.56 82.11 35.56 82.45 35.46 82.8 35.37 83.15 35.37 83.5 35.37 83.84 35.27 84.19 35.27 84.89 35.37 85.23 35.27 85.58 35.27 85.93 35.08 86.28 33.16 86.62 34.89 86.97 34.89 87.32 34.69 88.36 34.5 88.71 34.5 89.06 34.31 89.4 34.22 89.75 34.22 90.1 34.22 90.45 34.02 90.79 34.02 91.14 33.93 91.49 33.83 91.84 33.83 92.19 33.83 92.53 33.83 92.88 33.74 93.23 33.54 93.58 33.54 93.92 33.54 94.27 33.45 94.62 33.45 94.97 33.35 95.31 33.35 95.66 33.16 96.01 33.07 96.36 33.07 96.7 32.97 97.05 32.97 97.4 32.97 97.75 32.87 98.09 32.87 98.44 32.78 99.48 32.78 101.22 32.3 101.57 32.11 101.92 32.11 102.26 32.01 102.61 32.01 102.96 31.72 103.31 31.72 104.7 31.24 105.04 31.24 106.78 31.15 107.48 31.15 107.83 31.05 108.17 30.96 108.52 30.96 108.87 30.96 109.22 30.77 109.56 30.67 110.61 30.48 110.95 30.38 111.65 30.1 112 30 112.34 30 113.39 30 114.08 29.81 115.12 29.62 116.51 29.42 117.21 29.14 118.25 28.75 120.68 28.18 122.07 27.51 122.42 27.32 122.77 27.32 123.12 26.84 123.47 26.84 123.81 26.84 124.51 26.84 124.86 26.65 125.2 26.65 125.55 26.36 125.9 26.26 126.25 26.26 126.59 26.26 127.29 25.97 127.64 25.78 127.98 25.69 129.37 24.92 129.72 25.11 130.07 25.11 130.76 24.82 131.46 24.54 131.81 24.54 132.85 24.35 134.59 24.35 136.32 23.77 138.06 23.39 138.41 23.39 138.76 23.39 139.1 23.2 139.45 23.2 140.15 23.2 140.84 23.2 142.23 23 142.58 22.81 142.93 22.72 143.28 22.72 143.62 22.52 143.97 22.62 144.32 22.43 148.49 22.33 149.18 22.33 149.53 22.05 150.23 22.05 151.62 21.95 152.31 21.95 153.01 21.66 154.4 21.66 155.09 21.47 155.44 21.37 156.14 20.9 156.48 20.9 156.83 20.8 157.18 20.51 157.53 20.51 157.87 20.42 158.57 20.32 158.92 20.22 159.61 20.22 160.31 20.03 160.65 19.75 161 19.65 161.7 19.46 162.04 19.36 163.78 18.98 165.17 18.79 165.52 18.6 168.3 18.21 168.65 18.21 168.99 18.21 170.04 17.92 170.38 17.83 170.73 17.73 171.43 17.54 172.12 17.54 172.82 17.45 175.95 16.97 176.99 17.06 177.34 17.06 177.68 16.87 178.03 16.87 178.38 16.68 178.73 16.68 179.07 16.68 179.42 16.58 180.46 16.58 181.16 16.39 181.85 16.49" id="fig-98fa5ce36dce4a74a5239aee971509cd-element-71"/>
      </g>
      <g stroke-width="0.79" fill="#000000" fill-opacity="0.000" class="geometry color_0.2" stroke="#00BFFF" id="fig-98fa5ce36dce4a74a5239aee971509cd-element-72">
        <path fill="none" d="M21.63,46.77 L 21.98 46.77 22.33 46.67 22.67 46.67 23.02 46.67 23.37 46.67 23.72 46.67 24.06 46.67 24.76 46.67 25.11 46.67 25.8 46.58 26.5 46.48 26.84 46.48 27.54 46.39 27.89 46.29 30.32 46.1 31.36 46.1 32.06 46.1 34.49 46 34.84 45.91 35.19 45.91 35.53 45.91 35.88 45.91 36.23 45.91 36.58 45.91 36.92 45.91 37.27 45.91 37.62 45.91 37.97 45.62 38.31 45.62 39.01 45.52 39.36 45.52 39.7 45.52 40.05 45.43 40.4 46.19 40.75 45.72 41.09 45.72 41.44 45.72 41.79 45.72 42.14 45.72 42.48 45.72 42.83 45.72 43.18 45.72 43.53 45.62 43.88 45.62 44.22 45.52 44.57 45.52 46.66 45.04 47 45.04 47.35 44.95 47.7 44.85 48.05 44.66 48.39 44.66 48.74 44.66 49.09 44.66 49.44 44.66 49.78 44.57 50.48 44.57 50.83 44.37 51.17 44.37 51.52 44.37 51.87 44.37 52.22 44.37 52.56 44.09 52.91 44.09 53.61 43.99 53.95 43.8 54.3 43.7 54.65 43.61 55 43.61 55.34 43.61 56.04 43.42 56.39 43.32 56.73 43.22 57.08 43.22 57.78 43.03 58.47 42.84 58.82 42.84 59.17 42.84 59.52 42.84 60.56 42.84 60.91 42.84 61.25 42.74 61.6 42.74 61.95 42.74 62.3 42.65 62.64 42.65 62.99 42.65 63.69 42.55 64.03 42.55 64.73 42.55 65.08 42.55 65.42 42.27 65.77 42.27 66.47 42.46 66.81 42.46 67.16 42.27 67.51 42.17 67.86 42.17 68.2 41.98 68.55 41.98" id="fig-98fa5ce36dce4a74a5239aee971509cd-element-73"/>
      </g>
    </g>
  </g>
  <g class="guide ylabels" font-size="2.82" font-family="'PT Sans Caption','Helvetica Neue','Helvetica',sans-serif" fill="#6C606B" id="fig-98fa5ce36dce4a74a5239aee971509cd-element-74">
    <text x="18.63" y="54.91" text-anchor="end" dy="0.35em" id="fig-98fa5ce36dce4a74a5239aee971509cd-element-75">200</text>
    <text x="18.63" y="45.33" text-anchor="end" dy="0.35em" id="fig-98fa5ce36dce4a74a5239aee971509cd-element-76">300</text>
    <text x="18.63" y="35.75" text-anchor="end" dy="0.35em" id="fig-98fa5ce36dce4a74a5239aee971509cd-element-77">400</text>
    <text x="18.63" y="26.17" text-anchor="end" dy="0.35em" id="fig-98fa5ce36dce4a74a5239aee971509cd-element-78">500</text>
    <text x="18.63" y="16.58" text-anchor="end" dy="0.35em" id="fig-98fa5ce36dce4a74a5239aee971509cd-element-79">600</text>
    <text x="18.63" y="7" text-anchor="end" dy="0.35em" id="fig-98fa5ce36dce4a74a5239aee971509cd-element-80">700</text>
  </g>
</g>
<defs>
<clipPath id="fig-98fa5ce36dce4a74a5239aee971509cd-element-18">
  <path d="M19.63,5 L 183.85 5 183.85 56.92 19.63 56.92" />
</clipPath
></defs>
</svg>
