<?xml version="1.0" encoding="UTF-8"?>
<svg xmlns="http://www.w3.org/2000/svg"
     xmlns:xlink="http://www.w3.org/1999/xlink"
     xmlns:gadfly="http://www.gadflyjl.org/ns"
     version="1.2"
     width="203.2mm" height="76.2mm" viewBox="0 0 203.2 76.2"
     stroke="none"
     fill="#000000"
     stroke-width="0.3"
     font-size="3.88"
>
<g class="plotroot xscalable yscalable" id="fig-3f24f6724c7242729e20007102c50398-element-1">
  <g font-size="3.88" font-family="'PT Sans','Helvetica Neue','Helvetica',sans-serif" fill="#564A55" stroke="#000000" stroke-opacity="0.000" id="fig-3f24f6724c7242729e20007102c50398-element-2">
    <text x="101.74" y="64.59" text-anchor="middle" dy="0.6em">Date</text>
  </g>
  <g class="guide xlabels" font-size="2.82" font-family="'PT Sans Caption','Helvetica Neue','Helvetica',sans-serif" fill="#6C606B" id="fig-3f24f6724c7242729e20007102c50398-element-3">
    <text x="22.25" y="57.91" text-anchor="middle" dy="0.6em">Apr</text>
    <text x="31.55" y="57.91" text-anchor="middle" dy="0.6em">May</text>
    <text x="41.16" y="57.91" text-anchor="middle" dy="0.6em">Jun</text>
    <text x="50.45" y="57.91" text-anchor="middle" dy="0.6em">Jul</text>
    <text x="60.06" y="57.91" text-anchor="middle" dy="0.6em">Aug</text>
    <text x="69.67" y="57.91" text-anchor="middle" dy="0.6em">Sep</text>
    <text x="78.96" y="57.91" text-anchor="middle" dy="0.6em">Oct</text>
    <text x="88.57" y="57.91" text-anchor="middle" dy="0.6em">Nov</text>
    <text x="97.87" y="57.91" text-anchor="middle" dy="0.6em">Dec</text>
    <text x="107.48" y="57.91" text-anchor="middle" dy="0.6em">Jan 2015</text>
    <text x="117.08" y="57.91" text-anchor="middle" dy="0.6em">Feb</text>
    <text x="125.76" y="57.91" text-anchor="middle" dy="0.6em">Mar</text>
    <text x="135.37" y="57.91" text-anchor="middle" dy="0.6em">Apr</text>
    <text x="144.67" y="57.91" text-anchor="middle" dy="0.6em">May</text>
    <text x="154.27" y="57.91" text-anchor="middle" dy="0.6em">Jun</text>
    <text x="163.57" y="57.91" text-anchor="middle" dy="0.6em">Jul</text>
    <text x="173.18" y="57.91" text-anchor="middle" dy="0.6em">Aug</text>
  </g>
  <g class="guide colorkey" id="fig-3f24f6724c7242729e20007102c50398-element-4">
    <g fill="#4C404B" font-size="2.82" font-family="'PT Sans','Helvetica Neue','Helvetica',sans-serif" id="fig-3f24f6724c7242729e20007102c50398-element-5">
      <text x="187.67" y="29.14" dy="0.35em" id="fig-3f24f6724c7242729e20007102c50398-element-6" class="color_0.2">0.2</text>
      <text x="187.67" y="32.77" dy="0.35em" id="fig-3f24f6724c7242729e20007102c50398-element-7" class="color_0.3">0.3</text>
      <text x="187.67" y="36.4" dy="0.35em" id="fig-3f24f6724c7242729e20007102c50398-element-8" class="color_0.4">0.4</text>
    </g>
    <g stroke="#000000" stroke-opacity="0.000" id="fig-3f24f6724c7242729e20007102c50398-element-9">
      <rect x="184.85" y="28.24" width="1.81" height="1.81" id="fig-3f24f6724c7242729e20007102c50398-element-10" fill="#00BFFF" class="color_0.2"/>
      <rect x="184.85" y="31.86" width="1.81" height="1.81" id="fig-3f24f6724c7242729e20007102c50398-element-11" fill="#D4CA3A" class="color_0.3"/>
      <rect x="184.85" y="35.49" width="1.81" height="1.81" id="fig-3f24f6724c7242729e20007102c50398-element-12" fill="#FF5EA0" class="color_0.4"/>
    </g>
    <g fill="#362A35" font-size="3.88" font-family="'PT Sans','Helvetica Neue','Helvetica',sans-serif" stroke="#000000" stroke-opacity="0.000" id="fig-3f24f6724c7242729e20007102c50398-element-13">
      <text x="184.85" y="25.32" id="fig-3f24f6724c7242729e20007102c50398-element-14">Julia ver.</text>
    </g>
  </g>
  <g clip-path="url(#fig-3f24f6724c7242729e20007102c50398-element-16)" id="fig-3f24f6724c7242729e20007102c50398-element-15">
    <g pointer-events="visible" opacity="1" fill="#000000" fill-opacity="0.000" stroke="#000000" stroke-opacity="0.000" class="guide background" id="fig-3f24f6724c7242729e20007102c50398-element-17">
      <rect x="19.63" y="5" width="164.22" height="51.91" id="fig-3f24f6724c7242729e20007102c50398-element-18"/>
    </g>
    <g class="guide ygridlines xfixed" stroke-dasharray="0.5,0.5" stroke-width="0.2" stroke="#D0D0E0" id="fig-3f24f6724c7242729e20007102c50398-element-19">
      <path fill="none" d="M19.63,54.91 L 183.85 54.91" id="fig-3f24f6724c7242729e20007102c50398-element-20"/>
      <path fill="none" d="M19.63,45.33 L 183.85 45.33" id="fig-3f24f6724c7242729e20007102c50398-element-21"/>
      <path fill="none" d="M19.63,35.75 L 183.85 35.75" id="fig-3f24f6724c7242729e20007102c50398-element-22"/>
      <path fill="none" d="M19.63,26.17 L 183.85 26.17" id="fig-3f24f6724c7242729e20007102c50398-element-23"/>
      <path fill="none" d="M19.63,16.58 L 183.85 16.58" id="fig-3f24f6724c7242729e20007102c50398-element-24"/>
      <path fill="none" d="M19.63,7 L 183.85 7" id="fig-3f24f6724c7242729e20007102c50398-element-25"/>
    </g>
    <g class="guide xgridlines yfixed" stroke-dasharray="0.5,0.5" stroke-width="0.2" stroke="#D0D0E0" id="fig-3f24f6724c7242729e20007102c50398-element-26">
      <path fill="none" d="M22.25,5 L 22.25 56.91" id="fig-3f24f6724c7242729e20007102c50398-element-27"/>
      <path fill="none" d="M31.55,5 L 31.55 56.91" id="fig-3f24f6724c7242729e20007102c50398-element-28"/>
      <path fill="none" d="M41.16,5 L 41.16 56.91" id="fig-3f24f6724c7242729e20007102c50398-element-29"/>
      <path fill="none" d="M50.45,5 L 50.45 56.91" id="fig-3f24f6724c7242729e20007102c50398-element-30"/>
      <path fill="none" d="M60.06,5 L 60.06 56.91" id="fig-3f24f6724c7242729e20007102c50398-element-31"/>
      <path fill="none" d="M69.67,5 L 69.67 56.91" id="fig-3f24f6724c7242729e20007102c50398-element-32"/>
      <path fill="none" d="M78.96,5 L 78.96 56.91" id="fig-3f24f6724c7242729e20007102c50398-element-33"/>
      <path fill="none" d="M88.57,5 L 88.57 56.91" id="fig-3f24f6724c7242729e20007102c50398-element-34"/>
      <path fill="none" d="M97.87,5 L 97.87 56.91" id="fig-3f24f6724c7242729e20007102c50398-element-35"/>
      <path fill="none" d="M107.48,5 L 107.48 56.91" id="fig-3f24f6724c7242729e20007102c50398-element-36"/>
      <path fill="none" d="M117.08,5 L 117.08 56.91" id="fig-3f24f6724c7242729e20007102c50398-element-37"/>
      <path fill="none" d="M125.76,5 L 125.76 56.91" id="fig-3f24f6724c7242729e20007102c50398-element-38"/>
      <path fill="none" d="M135.37,5 L 135.37 56.91" id="fig-3f24f6724c7242729e20007102c50398-element-39"/>
      <path fill="none" d="M144.67,5 L 144.67 56.91" id="fig-3f24f6724c7242729e20007102c50398-element-40"/>
      <path fill="none" d="M154.27,5 L 154.27 56.91" id="fig-3f24f6724c7242729e20007102c50398-element-41"/>
      <path fill="none" d="M163.57,5 L 163.57 56.91" id="fig-3f24f6724c7242729e20007102c50398-element-42"/>
      <path fill="none" d="M173.18,5 L 173.18 56.91" id="fig-3f24f6724c7242729e20007102c50398-element-43"/>
    </g>
    <g class="plotpanel" id="fig-3f24f6724c7242729e20007102c50398-element-44">
      <g class="geometry" stroke="#000000" stroke-opacity="0.000" fill="#4C404B" font-size="2.82" font-family="'PT Sans Caption','Helvetica Neue','Helvetica',sans-serif" id="fig-3f24f6724c7242729e20007102c50398-element-45">
        <text x="70.89" y="52.46" text-anchor="middle" dy="0.35em" id="fig-3f24f6724c7242729e20007102c50398-element-46" visibility="visible">v0.3.0</text>
        <text x="80.81" y="52.46" text-anchor="middle" dy="0.35em" id="fig-3f24f6724c7242729e20007102c50398-element-47" visibility="visible">v0.3.1</text>
        <text x="90.1" y="52.46" text-anchor="middle" dy="0.35em" id="fig-3f24f6724c7242729e20007102c50398-element-48" visibility="visible">v0.3.2</text>
        <text x="100.33" y="52.46" text-anchor="middle" dy="0.35em" id="fig-3f24f6724c7242729e20007102c50398-element-49" visibility="visible">v0.3.3</text>
        <text x="106.62" y="52.46" text-anchor="middle" dy="0.35em" id="fig-3f24f6724c7242729e20007102c50398-element-50" visibility="visible"></text>
        <text x="114.59" y="52.46" text-anchor="middle" dy="0.35em" id="fig-3f24f6724c7242729e20007102c50398-element-51" visibility="visible">v0.3.5</text>
        <text x="126.98" y="52.46" text-anchor="middle" dy="0.35em" id="fig-3f24f6724c7242729e20007102c50398-element-52" visibility="visible">v0.3.6</text>
        <text x="137.52" y="52.46" text-anchor="middle" dy="0.35em" id="fig-3f24f6724c7242729e20007102c50398-element-53" visibility="visible">v0.3.7</text>
        <text x="149.3" y="52.46" text-anchor="middle" dy="0.35em" id="fig-3f24f6724c7242729e20007102c50398-element-54" visibility="visible">v0.3.8</text>
        <text x="158.59" y="52.46" text-anchor="middle" dy="0.35em" id="fig-3f24f6724c7242729e20007102c50398-element-55" visibility="visible">v0.3.9</text>
      </g>
      <g class="yfixed" stroke-width="0.26" stroke="#333333" id="fig-3f24f6724c7242729e20007102c50398-element-56">
        <path fill="none" d="M65.95,5 L 65.95 56.91" id="fig-3f24f6724c7242729e20007102c50398-element-57"/>
        <path fill="none" d="M75.87,5 L 75.87 56.91" id="fig-3f24f6724c7242729e20007102c50398-element-58"/>
        <path fill="none" d="M85.16,5 L 85.16 56.91" id="fig-3f24f6724c7242729e20007102c50398-element-59"/>
        <path fill="none" d="M95.39,5 L 95.39 56.91" id="fig-3f24f6724c7242729e20007102c50398-element-60"/>
        <path fill="none" d="M105.62,5 L 105.62 56.91" id="fig-3f24f6724c7242729e20007102c50398-element-61"/>
        <path fill="none" d="M109.65,5 L 109.65 56.91" id="fig-3f24f6724c7242729e20007102c50398-element-62"/>
        <path fill="none" d="M122.04,5 L 122.04 56.91" id="fig-3f24f6724c7242729e20007102c50398-element-63"/>
        <path fill="none" d="M132.58,5 L 132.58 56.91" id="fig-3f24f6724c7242729e20007102c50398-element-64"/>
        <path fill="none" d="M144.36,5 L 144.36 56.91" id="fig-3f24f6724c7242729e20007102c50398-element-65"/>
        <path fill="none" d="M153.65,5 L 153.65 56.91" id="fig-3f24f6724c7242729e20007102c50398-element-66"/>
      </g>
      <g stroke-width="0.79" fill="#000000" fill-opacity="0.000" class="geometry color_0.4" stroke="#FF5EA0" id="fig-3f24f6724c7242729e20007102c50398-element-67">
        <path fill="none" d="M63.78,39.2 L 64.09 38.91 64.4 38.82 64.71 38.72 65.02 38.72 65.33 38.72 65.95 38.43 66.26 38.43 66.57 38.34 66.88 38.34 67.19 38.34 67.5 38.05 67.81 37.86 68.12 37.86 68.74 37.67 69.05 37.38 69.67 37.19 69.98 37.19 70.29 37.19 71.53 37.19 72.46 36.61 72.77 36.52 73.08 36.42 73.39 36.23 73.7 36.23 74.01 36.23 74.32 35.46 74.63 35.46 74.94 35.46 75.56 35.37 75.87 35.37 76.18 35.27 76.49 35.27 76.8 35.27 77.11 35.17 77.42 35.17 78.03 35.27 78.34 35.17 78.65 35.17 78.96 34.98 79.27 34.79 79.58 34.79 79.89 34.79 80.2 34.6 81.13 34.41 81.44 34.41 81.75 34.22 82.06 34.12 82.37 34.12 82.68 34.12 82.99 33.93 83.3 33.93 83.61 33.83 83.92 33.74 84.23 33.74 84.54 33.74 84.85 33.74 85.16 33.54 85.47 33.35 85.78 33.35 86.09 33.35 86.4 33.26 86.71 33.26 87.02 33.16 87.33 33.16 87.64 32.97 87.95 32.87 88.26 32.87 88.57 32.78 88.88 32.78 89.19 32.78 89.5 32.78 89.81 32.68 90.12 32.59 91.05 32.59 92.6 32.01 92.91 31.82 93.22 31.82 93.53 31.72 93.84 31.72 94.15 31.44 94.46 31.44 95.7 30.96 96.01 30.96 97.56 30.86 98.18 30.86 98.49 30.67 98.8 30.57 99.11 30.57 99.42 30.57 99.73 30.38 100.04 30.19 100.97 30.1 101.28 30 101.9 29.62 102.21 29.62 102.52 29.62 103.45 29.62 104.07 29.42 105 29.23 106.24 29.04 106.86 28.66 107.79 28.47 109.96 27.8 111.2 27.12 111.51 26.93 111.81 26.93 112.12 26.36 112.43 26.36 112.74 26.36 113.36 26.26 113.67 26.17 113.98 26.17 114.29 25.88 114.6 25.78 114.91 25.78 115.22 25.78 115.84 25.5 116.15 25.21 116.46 25.11 117.7 24.35 118.01 24.35 118.32 24.63 118.94 24.35 119.56 24.06 119.87 24.06 120.8 23.87 122.35 23.87 123.9 23.77 125.45 22.91 125.76 22.91 126.07 22.91 126.38 22.72 126.69 22.72 127.31 22.52 127.93 22.52 129.17 22.43 129.48 22.24 129.79 22.24 130.1 22.24 130.41 22.05 130.72 22.14 131.03 21.95 134.75 21.57 135.37 21.57 135.68 21.28 136.3 21.28 137.54 21.18 138.16 21.09 138.78 20.8 140.02 20.61 140.64 20.42 140.95 20.13 141.57 19.65 141.88 19.65 142.19 19.55 142.5 19.36 142.81 19.36 143.12 19.27 143.74 19.17 144.05 18.98 144.67 18.98 145.29 18.79 145.59 18.5 145.9 18.4 146.52 18.21 146.83 18.12 148.38 17.73 149.62 17.54 149.93 17.35 152.41 17.06 152.72 17.06 153.03 17.06 153.96 16.68 154.27 16.58 154.58 16.39 155.2 16.2 155.82 16.2 156.44 16.01 159.23 15.34 160.16 15.34 160.47 15.34 160.78 15.15 161.09 15.15 161.4 14.86 161.71 14.86 162.02 14.86 162.33 14.76 163.26 14.67 163.88 14.47 164.5 14.47 164.81 14.28 165.12 13.9 165.43 13.71 165.74 13.61 166.05 13.61 171.32 12.17 173.8 11.6 176.59 11.12 181.85 8.72" id="fig-3f24f6724c7242729e20007102c50398-element-68"/>
      </g>
      <g stroke-width="0.79" fill="#000000" fill-opacity="0.000" class="geometry color_0.3" stroke="#D4CA3A" id="fig-3f24f6724c7242729e20007102c50398-element-69">
        <path fill="none" d="M21.63,45.72 L 21.94 45.72 22.25 45.62 22.56 45.62 22.87 45.62 23.18 45.62 23.49 45.62 23.8 45.52 24.42 45.52 24.73 45.43 25.35 45.33 25.97 45.14 26.28 45.14 26.9 45.14 27.21 45.04 29.38 44.66 30.31 44.66 30.93 44.66 33.1 44.57 33.41 44.37 33.72 44.28 34.03 44.28 34.34 44.28 34.65 44.28 34.96 44.28 35.27 44.28 35.58 44.28 35.89 44.28 36.2 44.28 36.51 43.99 37.13 43.89 37.44 43.89 37.75 43.89 38.06 43.7 38.37 43.7 38.68 43.7 38.99 43.61 39.3 43.61 39.61 43.61 39.92 43.61 40.23 43.61 40.54 43.51 40.85 43.51 41.16 47.34 41.47 43.42 41.78 43.32 42.09 43.22 43.95 42.65 44.25 42.55 44.56 42.46 44.87 42.36 45.18 42.17 45.49 42.17 45.8 41.98 46.11 41.98 46.42 41.88 46.73 41.79 47.35 41.79 47.66 41.59 47.97 41.59 48.28 41.59 48.59 41.59 48.9 41.59 49.21 41.31 49.52 41.31 50.14 41.21 50.45 41.02 50.76 40.92 51.07 40.83 51.38 40.83 51.69 40.64 52.31 40.54 52.62 40.25 52.93 40.25 53.24 40.25 53.86 39.77 54.48 39.49 54.79 39.49 55.1 39.39 55.41 39.39 56.34 39.29 56.65 39.29 56.96 39.2 57.27 39.2 57.58 39.2 57.89 39.1 58.2 39.01 58.51 38.91 59.13 38.91 59.44 38.91 60.06 38.91 60.37 38.82 60.68 38.53 60.99 38.53 61.61 38.43 61.92 38.43 62.23 38.24 62.54 38.14 62.85 38.05 63.16 37.95 63.47 37.86 63.78 37.67 64.09 37.67 64.4 37.57 64.71 37.47 65.02 37.47 65.33 37.47 65.95 37.19 66.26 37.19 66.57 37.09 66.88 37.09 67.19 37.09 67.5 36.8 67.81 36.71 68.12 36.61 68.74 37.76 69.05 37.47 69.67 37.28 69.98 37.28 70.29 37.28 71.53 37.28 72.46 36.71 72.77 36.61 73.08 36.52 73.39 36.32 73.7 36.32 74.01 36.32 74.32 35.56 74.63 35.56 74.94 35.56 75.56 35.56 75.87 35.46 76.18 35.37 76.49 35.37 76.8 35.37 77.11 35.27 77.42 35.27 78.03 35.37 78.34 35.27 78.65 35.27 78.96 35.08 79.27 33.16 79.58 34.89 79.89 34.89 80.2 34.69 81.13 34.5 81.44 34.5 81.75 34.31 82.06 34.22 82.37 34.22 82.68 34.22 82.99 34.02 83.3 34.02 83.61 33.93 83.92 33.83 84.23 33.83 84.54 33.83 84.85 33.83 85.16 33.74 85.47 33.54 85.78 33.54 86.09 33.54 86.4 33.45 86.71 33.45 87.02 33.35 87.33 33.35 87.64 33.16 87.95 33.07 88.26 33.07 88.57 32.97 88.88 32.97 89.19 32.97 89.5 32.87 89.81 32.87 90.12 32.78 91.05 32.78 92.6 32.3 92.91 32.11 93.22 32.11 93.53 32.01 93.84 32.01 94.15 31.72 94.46 31.72 95.7 31.24 96.01 31.24 97.56 31.15 98.18 31.15 98.49 31.05 98.8 30.96 99.11 30.96 99.42 30.96 99.73 30.77 100.04 30.67 100.97 30.48 101.28 30.38 101.9 30.1 102.21 30 102.52 30 103.45 30 104.07 29.81 105 29.62 106.24 29.42 106.86 29.14 107.79 28.75 109.96 28.18 111.2 27.51 111.51 27.32 111.81 27.32 112.12 26.84 112.43 26.84 112.74 26.84 113.36 26.84 113.67 26.65 113.98 26.65 114.29 26.36 114.6 26.26 114.91 26.26 115.22 26.26 115.84 25.97 116.15 25.78 116.46 25.69 117.7 24.92 118.01 25.11 118.32 25.11 118.94 24.82 119.56 24.54 119.87 24.54 120.8 24.35 122.35 24.35 123.9 23.77 125.45 23.39 125.76 23.39 126.07 23.39 126.38 23.2 126.69 23.2 127.31 23.2 127.93 23.2 129.17 23 129.48 22.81 129.79 22.72 130.1 22.72 130.41 22.52 130.72 22.62 131.03 22.43 134.75 22.33 135.37 22.33 135.68 22.05 136.3 22.05 137.54 21.95 138.16 21.95 138.78 21.66 140.02 21.66 140.64 21.47 140.95 21.37 141.57 20.9 141.88 20.9 142.19 20.8 142.5 20.51 142.81 20.51 143.12 20.42 143.74 20.32 144.05 20.22 144.67 20.22 145.29 20.03 145.59 19.75 145.9 19.65 146.52 19.46 146.83 19.36 148.38 18.98 149.62 18.79 149.93 18.6 152.41 18.21 152.72 18.21 153.03 18.21 153.96 17.92 154.27 17.83 154.58 17.73 155.2 17.54 155.82 17.54 156.44 17.45 159.23 16.97 160.16 17.06 160.47 17.06 160.78 16.87 161.09 16.87 161.4 16.68 161.71 16.68 162.02 16.68 162.33 16.58 163.26 16.58 163.88 16.39 164.5 16.49 164.81 16.3 165.12 15.91 165.43 15.72 165.74 15.62 166.05 15.62 171.32 14.28 173.8 13.8 176.59 13.32 181.85 11.98" id="fig-3f24f6724c7242729e20007102c50398-element-70"/>
      </g>
      <g stroke-width="0.79" fill="#000000" fill-opacity="0.000" class="geometry color_0.2" stroke="#00BFFF" id="fig-3f24f6724c7242729e20007102c50398-element-71">
        <path fill="none" d="M21.63,46.77 L 21.94 46.77 22.25 46.67 22.56 46.67 22.87 46.67 23.18 46.67 23.49 46.67 23.8 46.67 24.42 46.67 24.73 46.67 25.35 46.58 25.97 46.48 26.28 46.48 26.9 46.39 27.21 46.29 29.38 46.1 30.31 46.1 30.93 46.1 33.1 46 33.41 45.91 33.72 45.91 34.03 45.91 34.34 45.91 34.65 45.91 34.96 45.91 35.27 45.91 35.58 45.91 35.89 45.91 36.2 45.62 36.51 45.62 37.13 45.52 37.44 45.52 37.75 45.52 38.06 45.43 38.37 46.19 38.68 45.72 38.99 45.72 39.3 45.72 39.61 45.72 39.92 45.72 40.23 45.72 40.54 45.72 40.85 45.72 41.16 45.62 41.47 45.62 41.78 45.52 42.09 45.52 43.95 45.04 44.25 45.04 44.56 44.95 44.87 44.85 45.18 44.66 45.49 44.66 45.8 44.66 46.11 44.66 46.42 44.66 46.73 44.57 47.35 44.57 47.66 44.37 47.97 44.37 48.28 44.37 48.59 44.37 48.9 44.37 49.21 44.09 49.52 44.09 50.14 43.99 50.45 43.8 50.76 43.7 51.07 43.61 51.38 43.61 51.69 43.61 52.31 43.42 52.62 43.32 52.93 43.22 53.24 43.22 53.86 43.03 54.48 42.84 54.79 42.84 55.1 42.84 55.41 42.84 56.34 42.84 56.65 42.84 56.96 42.74 57.27 42.74 57.58 42.74 57.89 42.65 58.2 42.65 58.51 42.65 59.13 42.55 59.44 42.55 60.06 42.55 60.37 42.55 60.68 42.27 60.99 42.27 61.61 42.46 61.92 42.46 62.23 42.27 62.54 42.17 62.85 42.17 63.16 41.98 63.47 41.98" id="fig-3f24f6724c7242729e20007102c50398-element-72"/>
      </g>
    </g>
  </g>
  <g class="guide ylabels" font-size="2.82" font-family="'PT Sans Caption','Helvetica Neue','Helvetica',sans-serif" fill="#6C606B" id="fig-3f24f6724c7242729e20007102c50398-element-73">
    <text x="18.63" y="54.91" text-anchor="end" dy="0.35em" id="fig-3f24f6724c7242729e20007102c50398-element-74">200</text>
    <text x="18.63" y="45.33" text-anchor="end" dy="0.35em" id="fig-3f24f6724c7242729e20007102c50398-element-75">300</text>
    <text x="18.63" y="35.75" text-anchor="end" dy="0.35em" id="fig-3f24f6724c7242729e20007102c50398-element-76">400</text>
    <text x="18.63" y="26.17" text-anchor="end" dy="0.35em" id="fig-3f24f6724c7242729e20007102c50398-element-77">500</text>
    <text x="18.63" y="16.58" text-anchor="end" dy="0.35em" id="fig-3f24f6724c7242729e20007102c50398-element-78">600</text>
    <text x="18.63" y="7" text-anchor="end" dy="0.35em" id="fig-3f24f6724c7242729e20007102c50398-element-79">700</text>
  </g>
  <g font-size="3.88" font-family="'PT Sans','Helvetica Neue','Helvetica',sans-serif" fill="#564A55" stroke="#000000" stroke-opacity="0.000" id="fig-3f24f6724c7242729e20007102c50398-element-80">
    <text x="8.81" y="28.96" text-anchor="middle" dy="0.35em" transform="rotate(-90, 8.81, 30.96)" id="fig-3f24f6724c7242729e20007102c50398-element-81">Number of Tagged Packages</text>
  </g>
</g>
<defs>
<clipPath id="fig-3f24f6724c7242729e20007102c50398-element-16">
  <path d="M19.63,5 L 183.85 5 183.85 56.91 19.63 56.91" />
</clipPath
></defs>
</svg>
