<?xml version="1.0" encoding="UTF-8"?>
<svg xmlns="http://www.w3.org/2000/svg"
     xmlns:xlink="http://www.w3.org/1999/xlink"
     xmlns:gadfly="http://www.gadflyjl.org/ns"
     version="1.2"
     width="203.2mm" height="76.2mm" viewBox="0 0 203.2 76.2"
     stroke="none"
     fill="#000000"
     stroke-width="0.3"
     font-size="3.88"
>
<g class="plotroot xscalable yscalable" id="fig-e6f2c4ee138b425393e508947c7d57a8-element-1">
  <g font-size="3.88" font-family="'PT Sans','Helvetica Neue','Helvetica',sans-serif" fill="#564A55" stroke="none" id="fig-e6f2c4ee138b425393e508947c7d57a8-element-2">
    <text x="101.74" y="68.2" text-anchor="middle">Date</text>
  </g>
  <g class="guide xlabels" font-size="2.82" font-family="'PT Sans Caption','Helvetica Neue','Helvetica',sans-serif" fill="#6C606B" id="fig-e6f2c4ee138b425393e508947c7d57a8-element-3">
    <text x="22.87" y="62.59" text-anchor="middle">Apr</text>
    <text x="47.14" y="62.59" text-anchor="middle">May</text>
    <text x="72.22" y="62.59" text-anchor="middle">June</text>
    <text x="96.48" y="62.59" text-anchor="middle">July</text>
    <text x="121.56" y="62.59" text-anchor="middle">Aug</text>
    <text x="146.64" y="62.59" text-anchor="middle">Sept</text>
    <text x="170.91" y="62.59" text-anchor="middle">Oct</text>
  </g>
  <g class="guide colorkey" id="fig-e6f2c4ee138b425393e508947c7d57a8-element-4">
    <g fill="#4C404B" font-size="2.82" font-family="'PT Sans','Helvetica Neue','Helvetica',sans-serif" id="fig-e6f2c4ee138b425393e508947c7d57a8-element-5">
      <text x="187.67" y="30.14" dy="0.35em" id="fig-e6f2c4ee138b425393e508947c7d57a8-element-6" class="color_0.2">0.2</text>
      <text x="187.67" y="33.77" dy="0.35em" id="fig-e6f2c4ee138b425393e508947c7d57a8-element-7" class="color_0.3">0.3</text>
      <text x="187.67" y="37.4" dy="0.35em" id="fig-e6f2c4ee138b425393e508947c7d57a8-element-8" class="color_0.4">0.4</text>
    </g>
    <g stroke="none" id="fig-e6f2c4ee138b425393e508947c7d57a8-element-9">
      <rect x="184.85" y="29.24" width="1.81" height="1.81" id="fig-e6f2c4ee138b425393e508947c7d57a8-element-10" fill="#00BFFF" class="color_0.2"/>
      <rect x="184.85" y="32.86" width="1.81" height="1.81" id="fig-e6f2c4ee138b425393e508947c7d57a8-element-11" fill="#D4CA3A" class="color_0.3"/>
      <rect x="184.85" y="36.49" width="1.81" height="1.81" id="fig-e6f2c4ee138b425393e508947c7d57a8-element-12" fill="#FF5EA0" class="color_0.4"/>
    </g>
    <g fill="#362A35" font-size="3.88" font-family="'PT Sans','Helvetica Neue','Helvetica',sans-serif" stroke="none" id="fig-e6f2c4ee138b425393e508947c7d57a8-element-13">
      <text x="184.85" y="26.32" id="fig-e6f2c4ee138b425393e508947c7d57a8-element-14">Julia ver.</text>
    </g>
  </g>
  <g font-size="3.88" font-family="'PT Sans','Helvetica Neue','Helvetica',sans-serif" fill="#564A55" stroke="none" id="fig-e6f2c4ee138b425393e508947c7d57a8-element-15">
    <text x="8.81" y="29.96" text-anchor="middle" dy="0.35em" transform="rotate(-90, 8.81, 31.96)" id="fig-e6f2c4ee138b425393e508947c7d57a8-element-16">Number of Tagged Packages</text>
  </g>
  <g clip-path="url(#fig-e6f2c4ee138b425393e508947c7d57a8-element-18)" id="fig-e6f2c4ee138b425393e508947c7d57a8-element-17">
    <g pointer-events="visible" opacity="1" fill="none" stroke="none" class="guide background" id="fig-e6f2c4ee138b425393e508947c7d57a8-element-19">
      <rect x="19.63" y="5" width="164.22" height="53.91" id="fig-e6f2c4ee138b425393e508947c7d57a8-element-20"/>
    </g>
    <g class="guide ygridlines xfixed" stroke-dasharray="0.5,0.5" stroke-width="0.2" stroke="#D0D0E0" id="fig-e6f2c4ee138b425393e508947c7d57a8-element-21">
      <path fill="none" d="M19.63,56.91 L 183.85 56.91" id="fig-e6f2c4ee138b425393e508947c7d57a8-element-22"/>
      <path fill="none" d="M19.63,44.44 L 183.85 44.44" id="fig-e6f2c4ee138b425393e508947c7d57a8-element-23"/>
      <path fill="none" d="M19.63,31.96 L 183.85 31.96" id="fig-e6f2c4ee138b425393e508947c7d57a8-element-24"/>
      <path fill="none" d="M19.63,19.48 L 183.85 19.48" id="fig-e6f2c4ee138b425393e508947c7d57a8-element-25"/>
      <path fill="none" d="M19.63,7 L 183.85 7" id="fig-e6f2c4ee138b425393e508947c7d57a8-element-26"/>
    </g>
    <g class="guide xgridlines yfixed" stroke-dasharray="0.5,0.5" stroke-width="0.2" stroke="#D0D0E0" id="fig-e6f2c4ee138b425393e508947c7d57a8-element-27">
      <path fill="none" d="M22.87,5 L 22.87 58.91" id="fig-e6f2c4ee138b425393e508947c7d57a8-element-28"/>
      <path fill="none" d="M47.14,5 L 47.14 58.91" id="fig-e6f2c4ee138b425393e508947c7d57a8-element-29"/>
      <path fill="none" d="M72.22,5 L 72.22 58.91" id="fig-e6f2c4ee138b425393e508947c7d57a8-element-30"/>
      <path fill="none" d="M96.48,5 L 96.48 58.91" id="fig-e6f2c4ee138b425393e508947c7d57a8-element-31"/>
      <path fill="none" d="M121.56,5 L 121.56 58.91" id="fig-e6f2c4ee138b425393e508947c7d57a8-element-32"/>
      <path fill="none" d="M146.64,5 L 146.64 58.91" id="fig-e6f2c4ee138b425393e508947c7d57a8-element-33"/>
      <path fill="none" d="M170.91,5 L 170.91 58.91" id="fig-e6f2c4ee138b425393e508947c7d57a8-element-34"/>
    </g>
    <g class="plotpanel" id="fig-e6f2c4ee138b425393e508947c7d57a8-element-35">
      <g stroke-width="0.79" fill="none" class="geometry color_0.4" stroke="#FF5EA0" id="fig-e6f2c4ee138b425393e508947c7d57a8-element-36">
        <path fill="none" d="M131.27,28.46 L 132.08 27.71 132.89 27.47 133.7 27.22 134.51 27.22 135.32 27.22 136.93 26.47 137.74 26.47 138.55 26.22 139.36 26.22 140.17 26.22 140.98 25.47 141.79 24.97 142.6 24.97 144.21 24.47 145.02 23.72 146.64 23.22 147.45 23.22 148.26 23.22 151.5 23.22 153.92 21.72 154.73 21.48 155.54 21.23 156.35 20.73 157.16 20.73 157.97 20.73 158.78 18.73 159.58 18.73 160.39 18.73 162.01 18.48 162.82 18.48 163.63 18.23 164.44 18.23 165.25 18.23 166.06 17.98 166.87 17.98 168.48 18.23 169.29 17.98 170.1 17.98 170.91 17.48 171.72 16.98 172.53 16.98 173.34 16.98 174.15 16.48 176.57 15.98 177.38 15.98 178.19 15.49 179 15.24 179.81 15.24 180.62 15.24 181.43 14.74" id="fig-e6f2c4ee138b425393e508947c7d57a8-element-37"/>
      </g>
      <g stroke-width="0.79" fill="none" class="geometry color_0.3" stroke="#D4CA3A" id="fig-e6f2c4ee138b425393e508947c7d57a8-element-38">
        <path fill="none" d="M21.25,45.43 L 22.06 45.43 22.87 45.18 23.68 45.18 24.49 45.18 25.29 45.18 26.1 45.18 26.91 44.94 28.53 44.94 29.34 44.69 30.96 44.44 32.58 43.94 33.38 43.94 35 43.94 35.81 43.69 41.47 42.69 43.9 42.69 45.52 42.69 51.18 42.44 51.99 41.94 52.8 41.69 53.61 41.69 54.42 41.69 55.23 41.69 56.04 41.69 56.84 41.69 57.65 41.69 58.46 41.69 59.27 41.69 60.08 40.94 61.7 40.69 62.51 40.69 63.32 40.69 64.13 40.19 64.93 40.19 65.74 40.19 66.55 39.94 67.36 39.94 68.17 39.94 68.98 39.94 69.79 39.94 70.6 39.69 71.41 39.69 72.22 49.68 73.02 39.44 73.83 39.2 74.64 38.95 79.5 37.45 80.31 37.2 81.11 36.95 81.92 36.7 82.73 36.2 83.54 36.2 84.35 35.7 85.16 35.7 85.97 35.45 86.78 35.2 88.39 35.2 89.2 34.7 90.01 34.7 90.82 34.7 91.63 34.7 92.44 34.7 93.25 33.95 94.06 33.95 95.68 33.7 96.48 33.21 97.29 32.96 98.1 32.71 98.91 32.71 99.72 32.21 101.34 31.96 102.15 31.21 102.96 31.21 103.77 31.21 105.38 29.96 107 29.21 107.81 29.21 108.62 28.96 109.43 28.96 111.86 28.71 112.66 28.71 113.47 28.46 114.28 28.46 115.09 28.46 115.9 28.21 116.71 27.96 117.52 27.71 119.14 27.71 119.94 27.71 121.56 27.71 122.37 27.47 123.18 26.72 123.99 26.72 125.61 26.47 126.42 26.47 127.23 25.97 128.03 25.72 128.84 25.47 129.65 25.22 130.46 24.97 131.27 24.47 132.08 24.47 132.89 24.22 133.7 23.97 134.51 23.97 135.32 23.97 136.93 23.22 137.74 23.22 138.55 22.97 139.36 22.97 140.17 22.97 140.98 22.22 141.79 21.97 142.6 21.72 144.21 24.72 145.02 23.97 146.64 23.47 147.45 23.47 148.26 23.47 151.5 23.47 153.92 21.97 154.73 21.72 155.54 21.48 156.35 20.98 157.16 20.98 157.97 20.98 158.78 18.98 159.58 18.98 160.39 18.98 162.01 18.98 162.82 18.73 163.63 18.48 164.44 18.48 165.25 18.48 166.06 18.23 166.87 18.23 168.48 18.48 169.29 18.23 170.1 18.23 170.91 17.73 171.72 12.74 172.53 17.23 173.34 17.23 174.15 16.73 176.57 16.23 177.38 16.23 178.19 15.74 179 15.49 179.81 15.49 180.62 15.49 181.43 14.99" id="fig-e6f2c4ee138b425393e508947c7d57a8-element-39"/>
      </g>
      <g stroke-width="0.79" fill="none" class="geometry color_0.2" stroke="#00BFFF" id="fig-e6f2c4ee138b425393e508947c7d57a8-element-40">
        <path fill="none" d="M21.25,48.18 L 22.06 48.18 22.87 47.93 23.68 47.93 24.49 47.93 25.29 47.93 26.1 47.93 26.91 47.93 28.53 47.93 29.34 47.93 30.96 47.68 32.58 47.43 33.38 47.43 35 47.18 35.81 46.93 41.47 46.43 43.9 46.43 45.52 46.43 51.18 46.18 51.99 45.93 52.8 45.93 53.61 45.93 54.42 45.93 55.23 45.93 56.04 45.93 56.84 45.93 57.65 45.93 58.46 45.93 59.27 45.18 60.08 45.18 61.7 44.94 62.51 44.94 63.32 44.94 64.13 44.69 64.93 46.68 65.74 45.43 66.55 45.43 67.36 45.43 68.17 45.43 68.98 45.43 69.79 45.43 70.6 45.43 71.41 45.43 72.22 45.18 73.02 45.18 73.83 44.94 74.64 44.94 79.5 43.69 80.31 43.69 81.11 43.44 81.92 43.19 82.73 42.69 83.54 42.69 84.35 42.69 85.16 42.69 85.97 42.69 86.78 42.44 88.39 42.44 89.2 41.94 90.01 41.94 90.82 41.94 91.63 41.94 92.44 41.94 93.25 41.19 94.06 41.19 95.68 40.94 96.48 40.44 97.29 40.19 98.1 39.94 98.91 39.94 99.72 39.94 101.34 39.44 102.15 39.2 102.96 38.95 103.77 38.95 105.38 38.45 107 37.95 107.81 37.95 108.62 37.95 109.43 37.95 111.86 37.95 112.66 37.95 113.47 37.7 114.28 37.7 115.09 37.7 115.9 37.45 116.71 37.45 117.52 37.45 119.14 37.2 119.94 37.2 121.56 37.2 122.37 37.2 123.18 36.45 123.99 36.45 125.61 36.95 126.42 36.95 127.23 36.45 128.03 36.2 128.84 36.2 129.65 35.7 130.46 35.7" id="fig-e6f2c4ee138b425393e508947c7d57a8-element-41"/>
      </g>
    </g>
  </g>
  <g class="guide ylabels" font-size="2.82" font-family="'PT Sans Caption','Helvetica Neue','Helvetica',sans-serif" fill="#6C606B" id="fig-e6f2c4ee138b425393e508947c7d57a8-element-42">
    <text x="18.63" y="56.91" text-anchor="end" dy="0.35em" id="fig-e6f2c4ee138b425393e508947c7d57a8-element-43">250</text>
    <text x="18.63" y="44.44" text-anchor="end" dy="0.35em" id="fig-e6f2c4ee138b425393e508947c7d57a8-element-44">300</text>
    <text x="18.63" y="31.96" text-anchor="end" dy="0.35em" id="fig-e6f2c4ee138b425393e508947c7d57a8-element-45">350</text>
    <text x="18.63" y="19.48" text-anchor="end" dy="0.35em" id="fig-e6f2c4ee138b425393e508947c7d57a8-element-46">400</text>
    <text x="18.63" y="7" text-anchor="end" dy="0.35em" id="fig-e6f2c4ee138b425393e508947c7d57a8-element-47">450</text>
  </g>
</g>
<defs>
<clipPath id="fig-e6f2c4ee138b425393e508947c7d57a8-element-18">
  <path d="M19.63,5 L 183.85 5 183.85 58.91 19.63 58.91" />
</clipPath
></defs>
</svg>
