<?xml version="1.0" encoding="UTF-8"?>
<svg xmlns="http://www.w3.org/2000/svg"
     xmlns:xlink="http://www.w3.org/1999/xlink"
     xmlns:gadfly="http://www.gadflyjl.org/ns"
     version="1.2"
     width="203.2mm" height="76.2mm" viewBox="0 0 203.2 76.2"
     stroke="none"
     fill="#000000"
     stroke-width="0.3"
     font-size="3.88"
>
<g class="plotroot xscalable yscalable" id="fig-63a0338aab8c4369ae45cd4537307d47-element-1">
  <g font-size="3.88" font-family="'PT Sans','Helvetica Neue','Helvetica',sans-serif" fill="#564A55" stroke="#000000" stroke-opacity="0.000" id="fig-63a0338aab8c4369ae45cd4537307d47-element-2">
    <text x="101.74" y="64.59" text-anchor="middle" dy="0.6em">Date</text>
  </g>
  <g class="guide xlabels" font-size="2.82" font-family="'PT Sans Caption','Helvetica Neue','Helvetica',sans-serif" fill="#6C606B" id="fig-63a0338aab8c4369ae45cd4537307d47-element-3">
    <text x="22.34" y="57.92" text-anchor="middle" dy="0.6em">Apr</text>
    <text x="33.03" y="57.92" text-anchor="middle" dy="0.6em">May</text>
    <text x="44.06" y="57.92" text-anchor="middle" dy="0.6em">Jun</text>
    <text x="54.74" y="57.92" text-anchor="middle" dy="0.6em">Jul</text>
    <text x="65.78" y="57.92" text-anchor="middle" dy="0.6em">Aug</text>
    <text x="76.82" y="57.92" text-anchor="middle" dy="0.6em">Sep</text>
    <text x="87.5" y="57.92" text-anchor="middle" dy="0.6em">Oct</text>
    <text x="98.54" y="57.92" text-anchor="middle" dy="0.6em">Nov</text>
    <text x="109.22" y="57.92" text-anchor="middle" dy="0.6em">Dec</text>
    <text x="120.26" y="57.92" text-anchor="middle" dy="0.6em">Jan 2015</text>
    <text x="131.3" y="57.92" text-anchor="middle" dy="0.6em">Feb</text>
    <text x="141.26" y="57.92" text-anchor="middle" dy="0.6em">Mar</text>
    <text x="152.3" y="57.92" text-anchor="middle" dy="0.6em">Apr</text>
    <text x="162.98" y="57.92" text-anchor="middle" dy="0.6em">May</text>
    <text x="174.02" y="57.92" text-anchor="middle" dy="0.6em">Jun</text>
  </g>
  <g class="guide colorkey" id="fig-63a0338aab8c4369ae45cd4537307d47-element-4">
    <g fill="#4C404B" font-size="2.82" font-family="'PT Sans','Helvetica Neue','Helvetica',sans-serif" id="fig-63a0338aab8c4369ae45cd4537307d47-element-5">
      <text x="187.67" y="29.14" dy="0.35em" id="fig-63a0338aab8c4369ae45cd4537307d47-element-6" class="color_0.2">0.2</text>
      <text x="187.67" y="32.77" dy="0.35em" id="fig-63a0338aab8c4369ae45cd4537307d47-element-7" class="color_0.3">0.3</text>
      <text x="187.67" y="36.4" dy="0.35em" id="fig-63a0338aab8c4369ae45cd4537307d47-element-8" class="color_0.4">0.4</text>
    </g>
    <g stroke="#000000" stroke-opacity="0.000" id="fig-63a0338aab8c4369ae45cd4537307d47-element-9">
      <rect x="184.85" y="28.24" width="1.81" height="1.81" id="fig-63a0338aab8c4369ae45cd4537307d47-element-10" class="color_0.2" fill="#00BFFF"/>
      <rect x="184.85" y="31.86" width="1.81" height="1.81" id="fig-63a0338aab8c4369ae45cd4537307d47-element-11" class="color_0.3" fill="#D4CA3A"/>
      <rect x="184.85" y="35.49" width="1.81" height="1.81" id="fig-63a0338aab8c4369ae45cd4537307d47-element-12" class="color_0.4" fill="#FF5EA0"/>
    </g>
    <g fill="#362A35" font-size="3.88" font-family="'PT Sans','Helvetica Neue','Helvetica',sans-serif" stroke="#000000" stroke-opacity="0.000" id="fig-63a0338aab8c4369ae45cd4537307d47-element-13">
      <text x="184.85" y="25.32" id="fig-63a0338aab8c4369ae45cd4537307d47-element-14">Julia ver.</text>
    </g>
  </g>
  <g font-size="3.88" font-family="'PT Sans','Helvetica Neue','Helvetica',sans-serif" fill="#564A55" stroke="#000000" stroke-opacity="0.000" id="fig-63a0338aab8c4369ae45cd4537307d47-element-15">
    <text x="8.81" y="28.96" text-anchor="middle" dy="0.35em" transform="rotate(-90, 8.81, 30.96)" id="fig-63a0338aab8c4369ae45cd4537307d47-element-16">Number of Tagged Packages</text>
  </g>
  <g clip-path="url(#fig-63a0338aab8c4369ae45cd4537307d47-element-18)" id="fig-63a0338aab8c4369ae45cd4537307d47-element-17">
    <g pointer-events="visible" opacity="1" fill="#000000" fill-opacity="0.000" stroke="#000000" stroke-opacity="0.000" class="guide background" id="fig-63a0338aab8c4369ae45cd4537307d47-element-19">
      <rect x="19.63" y="5" width="164.22" height="51.92" id="fig-63a0338aab8c4369ae45cd4537307d47-element-20"/>
    </g>
    <g class="guide ygridlines xfixed" stroke-dasharray="0.5,0.5" stroke-width="0.2" stroke="#D0D0E0" id="fig-63a0338aab8c4369ae45cd4537307d47-element-21">
      <path fill="none" d="M19.63,54.91 L 183.85 54.91" id="fig-63a0338aab8c4369ae45cd4537307d47-element-22"/>
      <path fill="none" d="M19.63,42.94 L 183.85 42.94" id="fig-63a0338aab8c4369ae45cd4537307d47-element-23"/>
      <path fill="none" d="M19.63,30.96 L 183.85 30.96" id="fig-63a0338aab8c4369ae45cd4537307d47-element-24"/>
      <path fill="none" d="M19.63,18.98 L 183.85 18.98" id="fig-63a0338aab8c4369ae45cd4537307d47-element-25"/>
      <path fill="none" d="M19.63,7 L 183.85 7" id="fig-63a0338aab8c4369ae45cd4537307d47-element-26"/>
    </g>
    <g class="guide xgridlines yfixed" stroke-dasharray="0.5,0.5" stroke-width="0.2" stroke="#D0D0E0" id="fig-63a0338aab8c4369ae45cd4537307d47-element-27">
      <path fill="none" d="M22.34,5 L 22.34 56.92" id="fig-63a0338aab8c4369ae45cd4537307d47-element-28"/>
      <path fill="none" d="M33.03,5 L 33.03 56.92" id="fig-63a0338aab8c4369ae45cd4537307d47-element-29"/>
      <path fill="none" d="M44.06,5 L 44.06 56.92" id="fig-63a0338aab8c4369ae45cd4537307d47-element-30"/>
      <path fill="none" d="M54.74,5 L 54.74 56.92" id="fig-63a0338aab8c4369ae45cd4537307d47-element-31"/>
      <path fill="none" d="M65.78,5 L 65.78 56.92" id="fig-63a0338aab8c4369ae45cd4537307d47-element-32"/>
      <path fill="none" d="M76.82,5 L 76.82 56.92" id="fig-63a0338aab8c4369ae45cd4537307d47-element-33"/>
      <path fill="none" d="M87.5,5 L 87.5 56.92" id="fig-63a0338aab8c4369ae45cd4537307d47-element-34"/>
      <path fill="none" d="M98.54,5 L 98.54 56.92" id="fig-63a0338aab8c4369ae45cd4537307d47-element-35"/>
      <path fill="none" d="M109.22,5 L 109.22 56.92" id="fig-63a0338aab8c4369ae45cd4537307d47-element-36"/>
      <path fill="none" d="M120.26,5 L 120.26 56.92" id="fig-63a0338aab8c4369ae45cd4537307d47-element-37"/>
      <path fill="none" d="M131.3,5 L 131.3 56.92" id="fig-63a0338aab8c4369ae45cd4537307d47-element-38"/>
      <path fill="none" d="M141.26,5 L 141.26 56.92" id="fig-63a0338aab8c4369ae45cd4537307d47-element-39"/>
      <path fill="none" d="M152.3,5 L 152.3 56.92" id="fig-63a0338aab8c4369ae45cd4537307d47-element-40"/>
      <path fill="none" d="M162.98,5 L 162.98 56.92" id="fig-63a0338aab8c4369ae45cd4537307d47-element-41"/>
      <path fill="none" d="M174.02,5 L 174.02 56.92" id="fig-63a0338aab8c4369ae45cd4537307d47-element-42"/>
    </g>
    <g class="plotpanel" id="fig-63a0338aab8c4369ae45cd4537307d47-element-43">
      <g class="geometry" stroke="#000000" stroke-opacity="0.000" fill="#4C404B" font-size="2.82" font-family="'PT Sans Caption','Helvetica Neue','Helvetica',sans-serif" id="fig-63a0338aab8c4369ae45cd4537307d47-element-44">
        <text x="77.49" y="51.26" text-anchor="middle" dy="0.35em" id="fig-63a0338aab8c4369ae45cd4537307d47-element-45" visibility="visible">v0.3.0</text>
        <text x="88.88" y="51.26" text-anchor="middle" dy="0.35em" id="fig-63a0338aab8c4369ae45cd4537307d47-element-46" visibility="visible">v0.3.1</text>
        <text x="99.56" y="51.26" text-anchor="middle" dy="0.35em" id="fig-63a0338aab8c4369ae45cd4537307d47-element-47" visibility="visible">v0.3.2</text>
        <text x="111.31" y="51.26" text-anchor="middle" dy="0.35em" id="fig-63a0338aab8c4369ae45cd4537307d47-element-48" visibility="visible">v0.3.3</text>
        <text x="119.12" y="51.26" text-anchor="middle" dy="0.35em" id="fig-63a0338aab8c4369ae45cd4537307d47-element-49" visibility="visible"></text>
        <text x="127.69" y="51.26" text-anchor="middle" dy="0.35em" id="fig-63a0338aab8c4369ae45cd4537307d47-element-50" visibility="visible">v0.3.5</text>
        <text x="141.93" y="51.26" text-anchor="middle" dy="0.35em" id="fig-63a0338aab8c4369ae45cd4537307d47-element-51" visibility="visible">v0.3.6</text>
        <text x="154.04" y="51.26" text-anchor="middle" dy="0.35em" id="fig-63a0338aab8c4369ae45cd4537307d47-element-52" visibility="visible">v0.3.7</text>
        <text x="167.57" y="51.26" text-anchor="middle" dy="0.35em" id="fig-63a0338aab8c4369ae45cd4537307d47-element-53" visibility="visible">v0.3.8</text>
        <text x="178.25" y="51.26" text-anchor="middle" dy="0.35em" id="fig-63a0338aab8c4369ae45cd4537307d47-element-54" visibility="visible">v0.3.9</text>
      </g>
      <g class="yfixed" stroke-width="0.26" stroke="#333333" id="fig-63a0338aab8c4369ae45cd4537307d47-element-55">
        <path fill="none" d="M72.55,5 L 72.55 56.92" id="fig-63a0338aab8c4369ae45cd4537307d47-element-56"/>
        <path fill="none" d="M83.94,5 L 83.94 56.92" id="fig-63a0338aab8c4369ae45cd4537307d47-element-57"/>
        <path fill="none" d="M94.62,5 L 94.62 56.92" id="fig-63a0338aab8c4369ae45cd4537307d47-element-58"/>
        <path fill="none" d="M106.37,5 L 106.37 56.92" id="fig-63a0338aab8c4369ae45cd4537307d47-element-59"/>
        <path fill="none" d="M118.12,5 L 118.12 56.92" id="fig-63a0338aab8c4369ae45cd4537307d47-element-60"/>
        <path fill="none" d="M122.75,5 L 122.75 56.92" id="fig-63a0338aab8c4369ae45cd4537307d47-element-61"/>
        <path fill="none" d="M136.99,5 L 136.99 56.92" id="fig-63a0338aab8c4369ae45cd4537307d47-element-62"/>
        <path fill="none" d="M149.1,5 L 149.1 56.92" id="fig-63a0338aab8c4369ae45cd4537307d47-element-63"/>
        <path fill="none" d="M162.63,5 L 162.63 56.92" id="fig-63a0338aab8c4369ae45cd4537307d47-element-64"/>
        <path fill="none" d="M173.31,5 L 173.31 56.92" id="fig-63a0338aab8c4369ae45cd4537307d47-element-65"/>
      </g>
      <g stroke-width="0.79" fill="#000000" fill-opacity="0.000" class="geometry color_0.4" stroke="#FF5EA0" id="fig-63a0338aab8c4369ae45cd4537307d47-element-66">
        <path fill="none" d="M70.05,35.27 L 70.41 34.91 70.77 34.79 71.12 34.67 71.48 34.67 71.83 34.67 72.55 34.31 72.9 34.31 73.26 34.19 73.61 34.19 73.97 34.19 74.33 33.83 74.68 33.59 75.04 33.59 75.75 33.35 76.11 32.99 76.82 32.75 77.18 32.75 77.53 32.75 78.96 32.75 80.02 32.04 80.38 31.92 80.74 31.8 81.09 31.56 81.45 31.56 81.8 31.56 82.16 30.6 82.52 30.6 82.87 30.6 83.58 30.48 83.94 30.48 84.3 30.36 84.65 30.36 85.01 30.36 85.36 30.24 85.72 30.24 86.43 30.36 86.79 30.24 87.14 30.24 87.5 30 87.86 29.76 88.21 29.76 88.57 29.76 88.93 29.52 89.99 29.28 90.35 29.28 90.71 29.04 91.06 28.92 91.42 28.92 91.77 28.92 92.13 28.68 92.49 28.68 92.84 28.56 93.2 28.44 93.55 28.44 93.91 28.44 94.27 28.44 94.62 28.2 94.98 27.96 95.33 27.96 95.69 27.96 96.05 27.84 96.4 27.84 96.76 27.72 97.11 27.72 97.47 27.48 97.83 27.36 98.18 27.36 98.54 27.24 98.89 27.24 99.25 27.24 99.61 27.24 99.96 27.12 100.32 27 101.39 27 103.17 26.29 103.52 26.05 103.88 26.05 104.24 25.93 104.59 25.93 104.95 25.57 105.3 25.57 106.73 24.97 107.08 24.97 108.86 24.85 109.58 24.85 109.93 24.61 110.29 24.49 110.64 24.49 111 24.49 111.36 24.25 111.71 24.01 112.78 23.89 113.14 23.77 113.85 23.29 114.2 23.29 114.56 23.29 115.63 23.29 116.34 23.05 117.41 22.81 118.83 22.57 119.55 22.09 120.61 21.85 123.11 21.02 124.53 20.18 124.89 19.94 125.24 19.94 125.6 19.22 125.95 19.22 126.31 19.22 127.02 19.1 127.38 18.98 127.73 18.98 128.09 18.62 128.45 18.5 128.8 18.5 129.16 18.5 129.87 18.14 130.23 17.78 130.58 17.66 132.01 16.7 132.36 16.7 132.72 17.06 133.43 16.7 134.14 16.34 134.5 16.34 135.57 16.1 137.35 16.1 139.13 15.98 140.91 14.91 141.26 14.91 141.62 14.91 141.98 14.67 142.33 14.67 143.04 14.43 143.76 14.43 145.18 14.31 145.54 14.07 145.89 14.07 146.25 14.07 146.61 13.83 146.96 13.95 147.32 13.71 151.59 13.23 152.3 13.23 152.66 12.87 153.37 12.87 154.79 12.75 155.51 12.63 156.22 12.27 157.64 12.03 158.35 11.79 158.71 11.43 159.42 10.83 159.78 10.83 160.14 10.71 160.49 10.47 160.85 10.47 161.2 10.35 161.92 10.23 162.27 9.99 162.98 9.99 163.7 9.76 164.05 9.4 164.41 9.28 165.12 9.04 165.48 8.92 167.26 8.44 168.68 8.2 169.04 7.96 171.88 7.6 172.24 7.6 172.6 7.6 173.67 7.12 174.02 7 174.38 6.76 175.09 6.52 175.8 6.52 176.51 6.28 179.72 5.44 180.79 5.44 181.14 5.44 181.5 5.2 181.85 5.2" id="fig-63a0338aab8c4369ae45cd4537307d47-element-67"/>
      </g>
      <g stroke-width="0.79" fill="#000000" fill-opacity="0.000" class="geometry color_0.3" stroke="#D4CA3A" id="fig-63a0338aab8c4369ae45cd4537307d47-element-68">
        <path fill="none" d="M21.63,43.42 L 21.99 43.42 22.34 43.3 22.7 43.3 23.06 43.3 23.41 43.3 23.77 43.3 24.12 43.18 24.84 43.18 25.19 43.06 25.9 42.94 26.62 42.7 26.97 42.7 27.68 42.7 28.04 42.58 30.53 42.1 31.6 42.1 32.31 42.1 34.81 41.98 35.16 41.74 35.52 41.62 35.87 41.62 36.23 41.62 36.59 41.62 36.94 41.62 37.3 41.62 37.65 41.62 38.01 41.62 38.37 41.62 38.72 41.26 39.43 41.14 39.79 41.14 40.15 41.14 40.5 40.9 40.86 40.9 41.21 40.9 41.57 40.78 41.93 40.78 42.28 40.78 42.64 40.78 42.99 40.78 43.35 40.66 43.71 40.66 44.06 45.45 44.42 40.54 44.77 40.42 45.13 40.3 47.27 39.58 47.62 39.46 47.98 39.34 48.34 39.22 48.69 38.98 49.05 38.98 49.4 38.74 49.76 38.74 50.12 38.62 50.47 38.5 51.18 38.5 51.54 38.26 51.9 38.26 52.25 38.26 52.61 38.26 52.96 38.26 53.32 37.91 53.68 37.91 54.39 37.79 54.74 37.55 55.1 37.43 55.46 37.31 55.81 37.31 56.17 37.07 56.88 36.95 57.24 36.59 57.59 36.59 57.95 36.59 58.66 35.99 59.37 35.63 59.73 35.63 60.09 35.51 60.44 35.51 61.51 35.39 61.87 35.39 62.22 35.27 62.58 35.27 62.93 35.27 63.29 35.15 63.65 35.03 64 34.91 64.71 34.91 65.07 34.91 65.78 34.91 66.14 34.79 66.49 34.43 66.85 34.43 67.56 34.31 67.92 34.31 68.27 34.07 68.63 33.95 68.99 33.83 69.34 33.71 69.7 33.59 70.05 33.35 70.41 33.35 70.77 33.23 71.12 33.11 71.48 33.11 71.83 33.11 72.55 32.75 72.9 32.75 73.26 32.63 73.61 32.63 73.97 32.63 74.33 32.28 74.68 32.16 75.04 32.04 75.75 33.47 76.11 33.11 76.82 32.87 77.18 32.87 77.53 32.87 78.96 32.87 80.02 32.16 80.38 32.04 80.74 31.92 81.09 31.68 81.45 31.68 81.8 31.68 82.16 30.72 82.52 30.72 82.87 30.72 83.58 30.72 83.94 30.6 84.3 30.48 84.65 30.48 85.01 30.48 85.36 30.36 85.72 30.36 86.43 30.48 86.79 30.36 87.14 30.36 87.5 30.12 87.86 27.72 88.21 29.88 88.57 29.88 88.93 29.64 89.99 29.4 90.35 29.4 90.71 29.16 91.06 29.04 91.42 29.04 91.77 29.04 92.13 28.8 92.49 28.8 92.84 28.68 93.2 28.56 93.55 28.56 93.91 28.56 94.27 28.56 94.62 28.44 94.98 28.2 95.33 28.2 95.69 28.2 96.05 28.08 96.4 28.08 96.76 27.96 97.11 27.96 97.47 27.72 97.83 27.6 98.18 27.6 98.54 27.48 98.89 27.48 99.25 27.48 99.61 27.36 99.96 27.36 100.32 27.24 101.39 27.24 103.17 26.65 103.52 26.41 103.88 26.41 104.24 26.29 104.59 26.29 104.95 25.93 105.3 25.93 106.73 25.33 107.08 25.33 108.86 25.21 109.58 25.21 109.93 25.09 110.29 24.97 110.64 24.97 111 24.97 111.36 24.73 111.71 24.61 112.78 24.37 113.14 24.25 113.85 23.89 114.2 23.77 114.56 23.77 115.63 23.77 116.34 23.53 117.41 23.29 118.83 23.05 119.55 22.69 120.61 22.21 123.11 21.49 124.53 20.66 124.89 20.42 125.24 20.42 125.6 19.82 125.95 19.82 126.31 19.82 127.02 19.82 127.38 19.58 127.73 19.58 128.09 19.22 128.45 19.1 128.8 19.1 129.16 19.1 129.87 18.74 130.23 18.5 130.58 18.38 132.01 17.42 132.36 17.66 132.72 17.66 133.43 17.3 134.14 16.94 134.5 16.94 135.57 16.7 137.35 16.7 139.13 15.98 140.91 15.5 141.26 15.5 141.62 15.5 141.98 15.27 142.33 15.27 143.04 15.27 143.76 15.27 145.18 15.03 145.54 14.79 145.89 14.67 146.25 14.67 146.61 14.43 146.96 14.55 147.32 14.31 151.59 14.19 152.3 14.19 152.66 13.83 153.37 13.83 154.79 13.71 155.51 13.71 156.22 13.35 157.64 13.35 158.35 13.11 158.71 12.99 159.42 12.39 159.78 12.39 160.14 12.27 160.49 11.91 160.85 11.91 161.2 11.79 161.92 11.67 162.27 11.55 162.98 11.55 163.7 11.31 164.05 10.95 164.41 10.83 165.12 10.59 165.48 10.47 167.26 9.99 168.68 9.76 169.04 9.52 171.88 9.04 172.24 9.04 172.6 9.04 173.67 8.68 174.02 8.56 174.38 8.44 175.09 8.2 175.8 8.2 176.51 8.08 179.72 7.48 180.79 7.6 181.14 7.6 181.5 7.36 181.85 7.36" id="fig-63a0338aab8c4369ae45cd4537307d47-element-69"/>
      </g>
      <g stroke-width="0.79" fill="#000000" fill-opacity="0.000" class="geometry color_0.2" stroke="#00BFFF" id="fig-63a0338aab8c4369ae45cd4537307d47-element-70">
        <path fill="none" d="M21.63,44.73 L 21.99 44.73 22.34 44.61 22.7 44.61 23.06 44.61 23.41 44.61 23.77 44.61 24.12 44.61 24.84 44.61 25.19 44.61 25.9 44.49 26.62 44.37 26.97 44.37 27.68 44.25 28.04 44.13 30.53 43.89 31.6 43.89 32.31 43.89 34.81 43.77 35.16 43.65 35.52 43.65 35.87 43.65 36.23 43.65 36.59 43.65 36.94 43.65 37.3 43.65 37.65 43.65 38.01 43.65 38.37 43.3 38.72 43.3 39.43 43.18 39.79 43.18 40.15 43.18 40.5 43.06 40.86 44.01 41.21 43.42 41.57 43.42 41.93 43.42 42.28 43.42 42.64 43.42 42.99 43.42 43.35 43.42 43.71 43.42 44.06 43.3 44.42 43.3 44.77 43.18 45.13 43.18 47.27 42.58 47.62 42.58 47.98 42.46 48.34 42.34 48.69 42.1 49.05 42.1 49.4 42.1 49.76 42.1 50.12 42.1 50.47 41.98 51.18 41.98 51.54 41.74 51.9 41.74 52.25 41.74 52.61 41.74 52.96 41.74 53.32 41.38 53.68 41.38 54.39 41.26 54.74 41.02 55.1 40.9 55.46 40.78 55.81 40.78 56.17 40.78 56.88 40.54 57.24 40.42 57.59 40.3 57.95 40.3 58.66 40.06 59.37 39.82 59.73 39.82 60.09 39.82 60.44 39.82 61.51 39.82 61.87 39.82 62.22 39.7 62.58 39.7 62.93 39.7 63.29 39.58 63.65 39.58 64 39.58 64.71 39.46 65.07 39.46 65.78 39.46 66.14 39.46 66.49 39.1 66.85 39.1 67.56 39.34 67.92 39.34 68.27 39.1 68.63 38.98 68.99 38.98 69.34 38.74 69.7 38.74" id="fig-63a0338aab8c4369ae45cd4537307d47-element-71"/>
      </g>
    </g>
  </g>
  <g class="guide ylabels" font-size="2.82" font-family="'PT Sans Caption','Helvetica Neue','Helvetica',sans-serif" fill="#6C606B" id="fig-63a0338aab8c4369ae45cd4537307d47-element-72">
    <text x="18.63" y="54.91" text-anchor="end" dy="0.35em" id="fig-63a0338aab8c4369ae45cd4537307d47-element-73">200</text>
    <text x="18.63" y="42.94" text-anchor="end" dy="0.35em" id="fig-63a0338aab8c4369ae45cd4537307d47-element-74">300</text>
    <text x="18.63" y="30.96" text-anchor="end" dy="0.35em" id="fig-63a0338aab8c4369ae45cd4537307d47-element-75">400</text>
    <text x="18.63" y="18.98" text-anchor="end" dy="0.35em" id="fig-63a0338aab8c4369ae45cd4537307d47-element-76">500</text>
    <text x="18.63" y="7" text-anchor="end" dy="0.35em" id="fig-63a0338aab8c4369ae45cd4537307d47-element-77">600</text>
  </g>
</g>
<defs>
<clipPath id="fig-63a0338aab8c4369ae45cd4537307d47-element-18">
  <path d="M19.63,5 L 183.85 5 183.85 56.92 19.63 56.92" />
</clipPath
></defs>
</svg>
