<?xml version="1.0" encoding="UTF-8"?>
<svg xmlns="http://www.w3.org/2000/svg"
     xmlns:xlink="http://www.w3.org/1999/xlink"
     xmlns:gadfly="http://www.gadflyjl.org/ns"
     version="1.2"
     width="203.2mm" height="76.2mm" viewBox="0 0 203.2 76.2"
     stroke="none"
     fill="#000000"
     stroke-width="0.3"
     font-size="3.88"
>
<g class="plotroot xscalable yscalable" id="fig-73c6677b473841de92d4efcbf1263262-element-1">
  <g font-size="3.88" font-family="'PT Sans','Helvetica Neue','Helvetica',sans-serif" fill="#564A55" stroke="none" id="fig-73c6677b473841de92d4efcbf1263262-element-2">
    <text x="101.74" y="68.2" text-anchor="middle">Date</text>
  </g>
  <g class="guide xlabels" font-size="2.82" font-family="'PT Sans Caption','Helvetica Neue','Helvetica',sans-serif" fill="#6C606B" id="fig-73c6677b473841de92d4efcbf1263262-element-3">
    <text x="23.11" y="62.59" text-anchor="middle">Apr</text>
    <text x="49.17" y="62.59" text-anchor="middle">May</text>
    <text x="76.11" y="62.59" text-anchor="middle">June</text>
    <text x="102.18" y="62.59" text-anchor="middle">July</text>
    <text x="129.11" y="62.59" text-anchor="middle">Aug</text>
    <text x="156.05" y="62.59" text-anchor="middle">Sept</text>
  </g>
  <g class="guide colorkey" id="fig-73c6677b473841de92d4efcbf1263262-element-4">
    <g fill="#4C404B" font-size="2.82" font-family="'PT Sans','Helvetica Neue','Helvetica',sans-serif" id="fig-73c6677b473841de92d4efcbf1263262-element-5">
      <text x="187.67" y="30.14" dy="0.35em" id="fig-73c6677b473841de92d4efcbf1263262-element-6" class="color_0.2">0.2</text>
      <text x="187.67" y="33.77" dy="0.35em" id="fig-73c6677b473841de92d4efcbf1263262-element-7" class="color_0.3">0.3</text>
      <text x="187.67" y="37.4" dy="0.35em" id="fig-73c6677b473841de92d4efcbf1263262-element-8" class="color_0.4">0.4</text>
    </g>
    <g stroke="none" id="fig-73c6677b473841de92d4efcbf1263262-element-9">
      <rect x="184.85" y="29.24" width="1.81" height="1.81" id="fig-73c6677b473841de92d4efcbf1263262-element-10" class="color_0.2" fill="#00BFFF"/>
      <rect x="184.85" y="32.86" width="1.81" height="1.81" id="fig-73c6677b473841de92d4efcbf1263262-element-11" class="color_0.3" fill="#D4CA3A"/>
      <rect x="184.85" y="36.49" width="1.81" height="1.81" id="fig-73c6677b473841de92d4efcbf1263262-element-12" class="color_0.4" fill="#FF5EA0"/>
    </g>
    <g fill="#362A35" font-size="3.88" font-family="'PT Sans','Helvetica Neue','Helvetica',sans-serif" stroke="none" id="fig-73c6677b473841de92d4efcbf1263262-element-13">
      <text x="184.85" y="26.32" id="fig-73c6677b473841de92d4efcbf1263262-element-14">Julia ver.</text>
    </g>
  </g>
  <g clip-path="url(#fig-73c6677b473841de92d4efcbf1263262-element-16)" id="fig-73c6677b473841de92d4efcbf1263262-element-15">
    <g pointer-events="visible" opacity="1" fill="none" stroke="none" class="guide background" id="fig-73c6677b473841de92d4efcbf1263262-element-17">
      <rect x="19.63" y="5" width="164.22" height="53.91" id="fig-73c6677b473841de92d4efcbf1263262-element-18"/>
    </g>
    <g class="guide ygridlines xfixed" stroke-dasharray="0.5,0.5" stroke-width="0.2" stroke="#D0D0E0" id="fig-73c6677b473841de92d4efcbf1263262-element-19">
      <path fill="none" d="M19.63,56.91 L 183.85 56.91" id="fig-73c6677b473841de92d4efcbf1263262-element-20"/>
      <path fill="none" d="M19.63,44.44 L 183.85 44.44" id="fig-73c6677b473841de92d4efcbf1263262-element-21"/>
      <path fill="none" d="M19.63,31.96 L 183.85 31.96" id="fig-73c6677b473841de92d4efcbf1263262-element-22"/>
      <path fill="none" d="M19.63,19.48 L 183.85 19.48" id="fig-73c6677b473841de92d4efcbf1263262-element-23"/>
      <path fill="none" d="M19.63,7 L 183.85 7" id="fig-73c6677b473841de92d4efcbf1263262-element-24"/>
    </g>
    <g class="guide xgridlines yfixed" stroke-dasharray="0.5,0.5" stroke-width="0.2" stroke="#D0D0E0" id="fig-73c6677b473841de92d4efcbf1263262-element-25">
      <path fill="none" d="M23.11,5 L 23.11 58.91" id="fig-73c6677b473841de92d4efcbf1263262-element-26"/>
      <path fill="none" d="M49.17,5 L 49.17 58.91" id="fig-73c6677b473841de92d4efcbf1263262-element-27"/>
      <path fill="none" d="M76.11,5 L 76.11 58.91" id="fig-73c6677b473841de92d4efcbf1263262-element-28"/>
      <path fill="none" d="M102.18,5 L 102.18 58.91" id="fig-73c6677b473841de92d4efcbf1263262-element-29"/>
      <path fill="none" d="M129.11,5 L 129.11 58.91" id="fig-73c6677b473841de92d4efcbf1263262-element-30"/>
      <path fill="none" d="M156.05,5 L 156.05 58.91" id="fig-73c6677b473841de92d4efcbf1263262-element-31"/>
    </g>
    <g class="plotpanel" id="fig-73c6677b473841de92d4efcbf1263262-element-32">
      <g stroke-width="0.79" fill="none" class="geometry color_0.4" stroke="#FF5EA0" id="fig-73c6677b473841de92d4efcbf1263262-element-33">
        <path fill="none" d="M139.54,28.46 L 140.41 27.71 141.28 27.47 142.15 27.22 143.02 27.22 143.88 27.22 145.62 26.47 146.49 26.47 147.36 26.22 148.23 26.22 149.1 26.22 149.97 25.47 150.84 24.97 151.7 24.97 153.44 24.47 154.31 23.72 156.05 23.22 156.92 23.22 157.79 23.22 161.26 23.22 163.87 21.72 164.74 21.48 165.61 21.23 166.48 20.73 167.35 20.73 168.21 20.73 169.08 18.73 169.95 18.73 170.82 18.73 172.56 18.48 173.43 18.48 174.3 18.23 175.17 18.23 176.03 18.23 176.9 17.98 177.77 17.98 179.51 18.23 180.38 17.98 181.25 17.98" id="fig-73c6677b473841de92d4efcbf1263262-element-34"/>
      </g>
      <g stroke-width="0.79" fill="none" class="geometry color_0.3" stroke="#D4CA3A" id="fig-73c6677b473841de92d4efcbf1263262-element-35">
        <path fill="none" d="M21.37,45.43 L 22.24 45.43 23.11 45.18 23.98 45.18 24.85 45.18 25.71 45.18 26.58 45.18 27.45 44.94 29.19 44.94 30.06 44.69 31.8 44.44 33.53 43.94 34.4 43.94 36.14 43.94 37.01 43.69 43.09 42.69 45.7 42.69 47.44 42.69 53.52 42.44 54.39 41.94 55.26 41.69 56.13 41.69 56.99 41.69 57.86 41.69 58.73 41.69 59.6 41.69 60.47 41.69 61.34 41.69 62.21 41.69 63.08 40.94 64.81 40.69 65.68 40.69 66.55 40.69 67.42 40.19 68.29 40.19 69.16 40.19 70.03 39.94 70.9 39.94 71.77 39.94 72.63 39.94 73.5 39.94 74.37 39.69 75.24 39.69 76.11 49.68 76.98 39.44 77.85 39.2 78.72 38.95 83.93 37.45 84.8 37.2 85.67 36.95 86.54 36.7 87.41 36.2 88.27 36.2 89.14 35.7 90.01 35.7 90.88 35.45 91.75 35.2 93.49 35.2 94.36 34.7 95.23 34.7 96.1 34.7 96.96 34.7 97.83 34.7 98.7 33.95 99.57 33.95 101.31 33.7 102.18 33.21 103.05 32.96 103.92 32.71 104.78 32.71 105.65 32.21 107.39 31.96 108.26 31.21 109.13 31.21 110 31.21 111.74 29.96 113.47 29.21 114.34 29.21 115.21 28.96 116.08 28.96 118.69 28.71 119.56 28.71 120.42 28.46 121.29 28.46 122.16 28.46 123.03 28.21 123.9 27.96 124.77 27.71 126.51 27.71 127.38 27.71 129.11 27.71 129.98 27.47 130.85 26.72 131.72 26.72 133.46 26.47 134.33 26.47 135.2 25.97 136.06 25.72 136.93 25.47 137.8 25.22 138.67 24.97 139.54 24.47 140.41 24.47 141.28 24.22 142.15 23.97 143.02 23.97 143.88 23.97 145.62 23.22 146.49 23.22 147.36 22.97 148.23 22.97 149.1 22.97 149.97 22.22 150.84 21.97 151.7 21.72 153.44 24.72 154.31 23.97 156.05 23.47 156.92 23.47 157.79 23.47 161.26 23.47 163.87 21.97 164.74 21.72 165.61 21.48 166.48 20.98 167.35 20.98 168.21 20.98 169.08 18.98 169.95 18.98 170.82 18.98 172.56 18.98 173.43 18.73 174.3 18.48 175.17 18.48 176.03 18.48 176.9 18.23 177.77 18.23 179.51 18.48 180.38 18.23 181.25 18.23" id="fig-73c6677b473841de92d4efcbf1263262-element-36"/>
      </g>
      <g stroke-width="0.79" fill="none" class="geometry color_0.2" stroke="#00BFFF" id="fig-73c6677b473841de92d4efcbf1263262-element-37">
        <path fill="none" d="M21.37,48.18 L 22.24 48.18 23.11 47.93 23.98 47.93 24.85 47.93 25.71 47.93 26.58 47.93 27.45 47.93 29.19 47.93 30.06 47.93 31.8 47.68 33.53 47.43 34.4 47.43 36.14 47.18 37.01 46.93 43.09 46.43 45.7 46.43 47.44 46.43 53.52 46.18 54.39 45.93 55.26 45.93 56.13 45.93 56.99 45.93 57.86 45.93 58.73 45.93 59.6 45.93 60.47 45.93 61.34 45.93 62.21 45.18 63.08 45.18 64.81 44.94 65.68 44.94 66.55 44.94 67.42 44.69 68.29 46.68 69.16 45.43 70.03 45.43 70.9 45.43 71.77 45.43 72.63 45.43 73.5 45.43 74.37 45.43 75.24 45.43 76.11 45.18 76.98 45.18 77.85 44.94 78.72 44.94 83.93 43.69 84.8 43.69 85.67 43.44 86.54 43.19 87.41 42.69 88.27 42.69 89.14 42.69 90.01 42.69 90.88 42.69 91.75 42.44 93.49 42.44 94.36 41.94 95.23 41.94 96.1 41.94 96.96 41.94 97.83 41.94 98.7 41.19 99.57 41.19 101.31 40.94 102.18 40.44 103.05 40.19 103.92 39.94 104.78 39.94 105.65 39.94 107.39 39.44 108.26 39.2 109.13 38.95 110 38.95 111.74 38.45 113.47 37.95 114.34 37.95 115.21 37.95 116.08 37.95 118.69 37.95 119.56 37.95 120.42 37.7 121.29 37.7 122.16 37.7 123.03 37.45 123.9 37.45 124.77 37.45 126.51 37.2 127.38 37.2 129.11 37.2 129.98 37.2 130.85 36.45 131.72 36.45 133.46 36.95 134.33 36.95 135.2 36.45 136.06 36.2 136.93 36.2 137.8 35.7 138.67 35.7" id="fig-73c6677b473841de92d4efcbf1263262-element-38"/>
      </g>
    </g>
  </g>
  <g class="guide ylabels" font-size="2.82" font-family="'PT Sans Caption','Helvetica Neue','Helvetica',sans-serif" fill="#6C606B" id="fig-73c6677b473841de92d4efcbf1263262-element-39">
    <text x="18.63" y="56.91" text-anchor="end" dy="0.35em" id="fig-73c6677b473841de92d4efcbf1263262-element-40">250</text>
    <text x="18.63" y="44.44" text-anchor="end" dy="0.35em" id="fig-73c6677b473841de92d4efcbf1263262-element-41">300</text>
    <text x="18.63" y="31.96" text-anchor="end" dy="0.35em" id="fig-73c6677b473841de92d4efcbf1263262-element-42">350</text>
    <text x="18.63" y="19.48" text-anchor="end" dy="0.35em" id="fig-73c6677b473841de92d4efcbf1263262-element-43">400</text>
    <text x="18.63" y="7" text-anchor="end" dy="0.35em" id="fig-73c6677b473841de92d4efcbf1263262-element-44">450</text>
  </g>
  <g font-size="3.88" font-family="'PT Sans','Helvetica Neue','Helvetica',sans-serif" fill="#564A55" stroke="none" id="fig-73c6677b473841de92d4efcbf1263262-element-45">
    <text x="8.81" y="29.96" text-anchor="middle" dy="0.35em" transform="rotate(-90, 8.81, 31.96)" id="fig-73c6677b473841de92d4efcbf1263262-element-46">Number of Tagged Packages</text>
  </g>
</g>
<defs>
<clipPath id="fig-73c6677b473841de92d4efcbf1263262-element-16">
  <path d="M19.63,5 L 183.85 5 183.85 58.91 19.63 58.91" />
</clipPath
></defs>
</svg>
