<?xml version="1.0" encoding="UTF-8"?>
<svg xmlns="http://www.w3.org/2000/svg"
     xmlns:xlink="http://www.w3.org/1999/xlink"
     xmlns:gadfly="http://www.gadflyjl.org/ns"
     version="1.2"
     width="203.2mm" height="76.2mm" viewBox="0 0 203.2 76.2"
     stroke="none"
     fill="#000000"
     stroke-width="0.3"
     font-size="3.88"
>
<g class="plotroot xscalable yscalable" id="fig-6462ae312d384b478238e2d1ee1c98e2-element-1">
  <g font-size="3.88" font-family="'PT Sans','Helvetica Neue','Helvetica',sans-serif" fill="#564A55" stroke="none" id="fig-6462ae312d384b478238e2d1ee1c98e2-element-2">
    <text x="101.74" y="68.2" text-anchor="middle">Date</text>
  </g>
  <g class="guide xlabels" font-size="2.82" font-family="'PT Sans Caption','Helvetica Neue','Helvetica',sans-serif" fill="#6C606B" id="fig-6462ae312d384b478238e2d1ee1c98e2-element-3">
    <text x="23.05" y="62.59" text-anchor="middle">Apr</text>
    <text x="43.58" y="62.59" text-anchor="middle">May</text>
    <text x="64.79" y="62.59" text-anchor="middle">June</text>
    <text x="85.32" y="62.59" text-anchor="middle">July</text>
    <text x="106.53" y="62.59" text-anchor="middle">Aug</text>
    <text x="127.74" y="62.59" text-anchor="middle">Sept</text>
    <text x="148.27" y="62.59" text-anchor="middle">Oct</text>
    <text x="169.48" y="62.59" text-anchor="middle">Nev</text>
  </g>
  <g class="guide colorkey" id="fig-6462ae312d384b478238e2d1ee1c98e2-element-4">
    <g fill="#4C404B" font-size="2.82" font-family="'PT Sans','Helvetica Neue','Helvetica',sans-serif" id="fig-6462ae312d384b478238e2d1ee1c98e2-element-5">
      <text x="187.67" y="30.14" dy="0.35em" id="fig-6462ae312d384b478238e2d1ee1c98e2-element-6" class="color_0.2">0.2</text>
      <text x="187.67" y="33.77" dy="0.35em" id="fig-6462ae312d384b478238e2d1ee1c98e2-element-7" class="color_0.3">0.3</text>
      <text x="187.67" y="37.4" dy="0.35em" id="fig-6462ae312d384b478238e2d1ee1c98e2-element-8" class="color_0.4">0.4</text>
    </g>
    <g stroke="none" id="fig-6462ae312d384b478238e2d1ee1c98e2-element-9">
      <rect x="184.85" y="29.24" width="1.81" height="1.81" id="fig-6462ae312d384b478238e2d1ee1c98e2-element-10" fill="#00BFFF" class="color_0.2"/>
      <rect x="184.85" y="32.86" width="1.81" height="1.81" id="fig-6462ae312d384b478238e2d1ee1c98e2-element-11" fill="#D4CA3A" class="color_0.3"/>
      <rect x="184.85" y="36.49" width="1.81" height="1.81" id="fig-6462ae312d384b478238e2d1ee1c98e2-element-12" fill="#FF5EA0" class="color_0.4"/>
    </g>
    <g fill="#362A35" font-size="3.88" font-family="'PT Sans','Helvetica Neue','Helvetica',sans-serif" stroke="none" id="fig-6462ae312d384b478238e2d1ee1c98e2-element-13">
      <text x="184.85" y="26.32" id="fig-6462ae312d384b478238e2d1ee1c98e2-element-14">Julia ver.</text>
    </g>
  </g>
  <g font-size="3.88" font-family="'PT Sans','Helvetica Neue','Helvetica',sans-serif" fill="#564A55" stroke="none" id="fig-6462ae312d384b478238e2d1ee1c98e2-element-15">
    <text x="8.81" y="29.96" text-anchor="middle" dy="0.35em" transform="rotate(-90, 8.81, 31.96)" id="fig-6462ae312d384b478238e2d1ee1c98e2-element-16">Number of Tagged Packages</text>
  </g>
  <g clip-path="url(#fig-6462ae312d384b478238e2d1ee1c98e2-element-18)" id="fig-6462ae312d384b478238e2d1ee1c98e2-element-17">
    <g pointer-events="visible" opacity="1" fill="none" stroke="none" class="guide background" id="fig-6462ae312d384b478238e2d1ee1c98e2-element-19">
      <rect x="19.63" y="5" width="164.22" height="53.91" id="fig-6462ae312d384b478238e2d1ee1c98e2-element-20"/>
    </g>
    <g class="guide ygridlines xfixed" stroke-dasharray="0.5,0.5" stroke-width="0.2" stroke="#D0D0E0" id="fig-6462ae312d384b478238e2d1ee1c98e2-element-21">
      <path fill="none" d="M19.63,56.91 L 183.85 56.91" id="fig-6462ae312d384b478238e2d1ee1c98e2-element-22"/>
      <path fill="none" d="M19.63,44.44 L 183.85 44.44" id="fig-6462ae312d384b478238e2d1ee1c98e2-element-23"/>
      <path fill="none" d="M19.63,31.96 L 183.85 31.96" id="fig-6462ae312d384b478238e2d1ee1c98e2-element-24"/>
      <path fill="none" d="M19.63,19.48 L 183.85 19.48" id="fig-6462ae312d384b478238e2d1ee1c98e2-element-25"/>
      <path fill="none" d="M19.63,7 L 183.85 7" id="fig-6462ae312d384b478238e2d1ee1c98e2-element-26"/>
    </g>
    <g class="guide xgridlines yfixed" stroke-dasharray="0.5,0.5" stroke-width="0.2" stroke="#D0D0E0" id="fig-6462ae312d384b478238e2d1ee1c98e2-element-27">
      <path fill="none" d="M23.05,5 L 23.05 58.91" id="fig-6462ae312d384b478238e2d1ee1c98e2-element-28"/>
      <path fill="none" d="M43.58,5 L 43.58 58.91" id="fig-6462ae312d384b478238e2d1ee1c98e2-element-29"/>
      <path fill="none" d="M64.79,5 L 64.79 58.91" id="fig-6462ae312d384b478238e2d1ee1c98e2-element-30"/>
      <path fill="none" d="M85.32,5 L 85.32 58.91" id="fig-6462ae312d384b478238e2d1ee1c98e2-element-31"/>
      <path fill="none" d="M106.53,5 L 106.53 58.91" id="fig-6462ae312d384b478238e2d1ee1c98e2-element-32"/>
      <path fill="none" d="M127.74,5 L 127.74 58.91" id="fig-6462ae312d384b478238e2d1ee1c98e2-element-33"/>
      <path fill="none" d="M148.27,5 L 148.27 58.91" id="fig-6462ae312d384b478238e2d1ee1c98e2-element-34"/>
      <path fill="none" d="M169.48,5 L 169.48 58.91" id="fig-6462ae312d384b478238e2d1ee1c98e2-element-35"/>
    </g>
    <g class="plotpanel" id="fig-6462ae312d384b478238e2d1ee1c98e2-element-36">
      <g stroke-width="0.79" fill="none" class="geometry color_0.4" stroke="#FF5EA0" id="fig-6462ae312d384b478238e2d1ee1c98e2-element-37">
        <path fill="none" d="M114.74,28.46 L 115.43 27.71 116.11 27.47 116.8 27.22 117.48 27.22 118.17 27.22 119.53 26.47 120.22 26.47 120.9 26.22 121.59 26.22 122.27 26.22 122.95 25.47 123.64 24.97 124.32 24.97 125.69 24.47 126.38 23.72 127.74 23.22 128.43 23.22 129.11 23.22 131.85 23.22 133.9 21.72 134.59 21.48 135.27 21.23 135.96 20.73 136.64 20.73 137.32 20.73 138.01 18.73 138.69 18.73 139.38 18.73 140.75 18.48 141.43 18.48 142.11 18.23 142.8 18.23 143.48 18.23 144.17 17.98 144.85 17.98 146.22 18.23 146.9 17.98 147.59 17.98 148.27 17.48 148.96 16.98 149.64 16.98 150.33 16.98 151.01 16.48 153.06 15.98 153.75 15.98 154.43 15.49 155.12 15.24 155.8 15.24 156.48 15.24 157.17 14.74 157.85 14.74 158.54 14.49 159.22 14.24 159.91 14.24 160.59 14.24 161.27 14.24 161.96 13.74 162.64 13.24 163.33 13.24 164.01 13.24 164.69 12.99 165.38 12.99 166.06 12.74 166.75 12.74 167.43 12.24 168.12 11.99 168.8 11.99 169.48 11.74 170.17 11.74 170.85 11.74 171.54 11.74 172.22 11.49 172.91 11.24 174.96 11.24 178.38 9.75 179.06 9.25 179.75 9.25 180.43 9 181.12 9 181.8 8.25" id="fig-6462ae312d384b478238e2d1ee1c98e2-element-38"/>
      </g>
      <g stroke-width="0.79" fill="none" class="geometry color_0.3" stroke="#D4CA3A" id="fig-6462ae312d384b478238e2d1ee1c98e2-element-39">
        <path fill="none" d="M21.68,45.43 L 22.37 45.43 23.05 45.18 23.74 45.18 24.42 45.18 25.11 45.18 25.79 45.18 26.47 44.94 27.84 44.94 28.53 44.69 29.9 44.44 31.26 43.94 31.95 43.94 33.32 43.94 34 43.69 38.79 42.69 40.84 42.69 42.21 42.69 47 42.44 47.69 41.94 48.37 41.69 49.05 41.69 49.74 41.69 50.42 41.69 51.11 41.69 51.79 41.69 52.48 41.69 53.16 41.69 53.84 41.69 54.53 40.94 55.9 40.69 56.58 40.69 57.27 40.69 57.95 40.19 58.63 40.19 59.32 40.19 60 39.94 60.69 39.94 61.37 39.94 62.06 39.94 62.74 39.94 63.42 39.69 64.11 39.69 64.79 49.68 65.48 39.44 66.16 39.2 66.85 38.95 70.95 37.45 71.64 37.2 72.32 36.95 73 36.7 73.69 36.2 74.37 36.2 75.06 35.7 75.74 35.7 76.43 35.45 77.11 35.2 78.48 35.2 79.16 34.7 79.85 34.7 80.53 34.7 81.22 34.7 81.9 34.7 82.58 33.95 83.27 33.95 84.64 33.7 85.32 33.21 86 32.96 86.69 32.71 87.37 32.71 88.06 32.21 89.43 31.96 90.11 31.21 90.79 31.21 91.48 31.21 92.85 29.96 94.22 29.21 94.9 29.21 95.58 28.96 96.27 28.96 98.32 28.71 99.01 28.71 99.69 28.46 100.37 28.46 101.06 28.46 101.74 28.21 102.43 27.96 103.11 27.71 104.48 27.71 105.16 27.71 106.53 27.71 107.22 27.47 107.9 26.72 108.59 26.72 109.95 26.47 110.64 26.47 111.32 25.97 112.01 25.72 112.69 25.47 113.38 25.22 114.06 24.97 114.74 24.47 115.43 24.47 116.11 24.22 116.8 23.97 117.48 23.97 118.17 23.97 119.53 23.22 120.22 23.22 120.9 22.97 121.59 22.97 122.27 22.97 122.95 22.22 123.64 21.97 124.32 21.72 125.69 24.72 126.38 23.97 127.74 23.47 128.43 23.47 129.11 23.47 131.85 23.47 133.9 21.97 134.59 21.72 135.27 21.48 135.96 20.98 136.64 20.98 137.32 20.98 138.01 18.98 138.69 18.98 139.38 18.98 140.75 18.98 141.43 18.73 142.11 18.48 142.8 18.48 143.48 18.48 144.17 18.23 144.85 18.23 146.22 18.48 146.9 18.23 147.59 18.23 148.27 17.73 148.96 12.74 149.64 17.23 150.33 17.23 151.01 16.73 153.06 16.23 153.75 16.23 154.43 15.74 155.12 15.49 155.8 15.49 156.48 15.49 157.17 14.99 157.85 14.99 158.54 14.74 159.22 14.49 159.91 14.49 160.59 14.49 161.27 14.49 161.96 14.24 162.64 13.74 163.33 13.74 164.01 13.74 164.69 13.49 165.38 13.49 166.06 13.24 166.75 13.24 167.43 12.74 168.12 12.49 168.8 12.49 169.48 12.24 170.17 12.24 170.85 12.24 171.54 11.99 172.22 11.99 172.91 11.74 174.96 11.74 178.38 10.49 179.06 9.99 179.75 9.99 180.43 9.75 181.12 9.75 181.8 9" id="fig-6462ae312d384b478238e2d1ee1c98e2-element-40"/>
      </g>
      <g stroke-width="0.79" fill="none" class="geometry color_0.2" stroke="#00BFFF" id="fig-6462ae312d384b478238e2d1ee1c98e2-element-41">
        <path fill="none" d="M21.68,48.18 L 22.37 48.18 23.05 47.93 23.74 47.93 24.42 47.93 25.11 47.93 25.79 47.93 26.47 47.93 27.84 47.93 28.53 47.93 29.9 47.68 31.26 47.43 31.95 47.43 33.32 47.18 34 46.93 38.79 46.43 40.84 46.43 42.21 46.43 47 46.18 47.69 45.93 48.37 45.93 49.05 45.93 49.74 45.93 50.42 45.93 51.11 45.93 51.79 45.93 52.48 45.93 53.16 45.93 53.84 45.18 54.53 45.18 55.9 44.94 56.58 44.94 57.27 44.94 57.95 44.69 58.63 46.68 59.32 45.43 60 45.43 60.69 45.43 61.37 45.43 62.06 45.43 62.74 45.43 63.42 45.43 64.11 45.43 64.79 45.18 65.48 45.18 66.16 44.94 66.85 44.94 70.95 43.69 71.64 43.69 72.32 43.44 73 43.19 73.69 42.69 74.37 42.69 75.06 42.69 75.74 42.69 76.43 42.69 77.11 42.44 78.48 42.44 79.16 41.94 79.85 41.94 80.53 41.94 81.22 41.94 81.9 41.94 82.58 41.19 83.27 41.19 84.64 40.94 85.32 40.44 86 40.19 86.69 39.94 87.37 39.94 88.06 39.94 89.43 39.44 90.11 39.2 90.79 38.95 91.48 38.95 92.85 38.45 94.22 37.95 94.9 37.95 95.58 37.95 96.27 37.95 98.32 37.95 99.01 37.95 99.69 37.7 100.37 37.7 101.06 37.7 101.74 37.45 102.43 37.45 103.11 37.45 104.48 37.2 105.16 37.2 106.53 37.2 107.22 37.2 107.9 36.45 108.59 36.45 109.95 36.95 110.64 36.95 111.32 36.45 112.01 36.2 112.69 36.2 113.38 35.7 114.06 35.7" id="fig-6462ae312d384b478238e2d1ee1c98e2-element-42"/>
      </g>
    </g>
  </g>
  <g class="guide ylabels" font-size="2.82" font-family="'PT Sans Caption','Helvetica Neue','Helvetica',sans-serif" fill="#6C606B" id="fig-6462ae312d384b478238e2d1ee1c98e2-element-43">
    <text x="18.63" y="56.91" text-anchor="end" dy="0.35em" id="fig-6462ae312d384b478238e2d1ee1c98e2-element-44">250</text>
    <text x="18.63" y="44.44" text-anchor="end" dy="0.35em" id="fig-6462ae312d384b478238e2d1ee1c98e2-element-45">300</text>
    <text x="18.63" y="31.96" text-anchor="end" dy="0.35em" id="fig-6462ae312d384b478238e2d1ee1c98e2-element-46">350</text>
    <text x="18.63" y="19.48" text-anchor="end" dy="0.35em" id="fig-6462ae312d384b478238e2d1ee1c98e2-element-47">400</text>
    <text x="18.63" y="7" text-anchor="end" dy="0.35em" id="fig-6462ae312d384b478238e2d1ee1c98e2-element-48">450</text>
  </g>
</g>
<defs>
<clipPath id="fig-6462ae312d384b478238e2d1ee1c98e2-element-18">
  <path d="M19.63,5 L 183.85 5 183.85 58.91 19.63 58.91" />
</clipPath
></defs>
</svg>
