<?xml version="1.0" encoding="UTF-8"?>
<svg xmlns="http://www.w3.org/2000/svg"
     xmlns:xlink="http://www.w3.org/1999/xlink"
     xmlns:gadfly="http://www.gadflyjl.org/ns"
     version="1.2"
     width="203.2mm" height="76.2mm" viewBox="0 0 203.2 76.2"
     stroke="none"
     fill="#000000"
     stroke-width="0.3"
     font-size="3.88"
>
<g class="plotroot xscalable yscalable" id="fig-12aaeeeedcfb4411b83828924bb537b4-element-1">
  <g font-size="3.88" font-family="'PT Sans','Helvetica Neue','Helvetica',sans-serif" fill="#564A55" stroke="none" id="fig-12aaeeeedcfb4411b83828924bb537b4-element-2">
    <text x="101.74" y="68.2" text-anchor="middle">Date</text>
  </g>
  <g class="guide xlabels" font-size="2.82" font-family="'PT Sans Caption','Helvetica Neue','Helvetica',sans-serif" fill="#6C606B" id="fig-12aaeeeedcfb4411b83828924bb537b4-element-3">
    <text x="22.7" y="62.59" text-anchor="middle">Apr</text>
    <text x="41.08" y="62.59" text-anchor="middle">May</text>
    <text x="60.07" y="62.59" text-anchor="middle">Jun</text>
    <text x="78.46" y="62.59" text-anchor="middle">Jul</text>
    <text x="97.45" y="62.59" text-anchor="middle">Aug</text>
    <text x="116.45" y="62.59" text-anchor="middle">Sep</text>
    <text x="134.83" y="62.59" text-anchor="middle">Oct</text>
    <text x="153.83" y="62.59" text-anchor="middle">Nov</text>
    <text x="172.21" y="62.59" text-anchor="middle">Dec</text>
  </g>
  <g class="guide colorkey" id="fig-12aaeeeedcfb4411b83828924bb537b4-element-4">
    <g fill="#4C404B" font-size="2.82" font-family="'PT Sans','Helvetica Neue','Helvetica',sans-serif" id="fig-12aaeeeedcfb4411b83828924bb537b4-element-5">
      <text x="187.67" y="30.14" dy="0.35em" id="fig-12aaeeeedcfb4411b83828924bb537b4-element-6" class="color_0.2">0.2</text>
      <text x="187.67" y="33.77" dy="0.35em" id="fig-12aaeeeedcfb4411b83828924bb537b4-element-7" class="color_0.3">0.3</text>
      <text x="187.67" y="37.4" dy="0.35em" id="fig-12aaeeeedcfb4411b83828924bb537b4-element-8" class="color_0.4">0.4</text>
    </g>
    <g stroke="none" id="fig-12aaeeeedcfb4411b83828924bb537b4-element-9">
      <rect x="184.85" y="29.24" width="1.81" height="1.81" id="fig-12aaeeeedcfb4411b83828924bb537b4-element-10" class="color_0.2" fill="#00BFFF"/>
      <rect x="184.85" y="32.86" width="1.81" height="1.81" id="fig-12aaeeeedcfb4411b83828924bb537b4-element-11" class="color_0.3" fill="#D4CA3A"/>
      <rect x="184.85" y="36.49" width="1.81" height="1.81" id="fig-12aaeeeedcfb4411b83828924bb537b4-element-12" class="color_0.4" fill="#FF5EA0"/>
    </g>
    <g fill="#362A35" font-size="3.88" font-family="'PT Sans','Helvetica Neue','Helvetica',sans-serif" stroke="none" id="fig-12aaeeeedcfb4411b83828924bb537b4-element-13">
      <text x="184.85" y="26.32" id="fig-12aaeeeedcfb4411b83828924bb537b4-element-14">Julia ver.</text>
    </g>
  </g>
  <g font-size="3.88" font-family="'PT Sans','Helvetica Neue','Helvetica',sans-serif" fill="#564A55" stroke="none" id="fig-12aaeeeedcfb4411b83828924bb537b4-element-15">
    <text x="8.81" y="29.96" text-anchor="middle" dy="0.35em" transform="rotate(-90, 8.81, 31.96)" id="fig-12aaeeeedcfb4411b83828924bb537b4-element-16">Number of Tagged Packages</text>
  </g>
  <g clip-path="url(#fig-12aaeeeedcfb4411b83828924bb537b4-element-18)" id="fig-12aaeeeedcfb4411b83828924bb537b4-element-17">
    <g pointer-events="visible" opacity="1" fill="none" stroke="none" class="guide background" id="fig-12aaeeeedcfb4411b83828924bb537b4-element-19">
      <rect x="19.63" y="5" width="164.22" height="53.91" id="fig-12aaeeeedcfb4411b83828924bb537b4-element-20"/>
    </g>
    <g class="guide ygridlines xfixed" stroke-dasharray="0.5,0.5" stroke-width="0.2" stroke="#D0D0E0" id="fig-12aaeeeedcfb4411b83828924bb537b4-element-21">
      <path fill="none" d="M19.63,56.92 L 183.85 56.92" id="fig-12aaeeeedcfb4411b83828924bb537b4-element-22"/>
      <path fill="none" d="M19.63,46.93 L 183.85 46.93" id="fig-12aaeeeedcfb4411b83828924bb537b4-element-23"/>
      <path fill="none" d="M19.63,36.95 L 183.85 36.95" id="fig-12aaeeeedcfb4411b83828924bb537b4-element-24"/>
      <path fill="none" d="M19.63,26.97 L 183.85 26.97" id="fig-12aaeeeedcfb4411b83828924bb537b4-element-25"/>
      <path fill="none" d="M19.63,16.98 L 183.85 16.98" id="fig-12aaeeeedcfb4411b83828924bb537b4-element-26"/>
      <path fill="none" d="M19.63,7 L 183.85 7" id="fig-12aaeeeedcfb4411b83828924bb537b4-element-27"/>
    </g>
    <g class="guide xgridlines yfixed" stroke-dasharray="0.5,0.5" stroke-width="0.2" stroke="#D0D0E0" id="fig-12aaeeeedcfb4411b83828924bb537b4-element-28">
      <path fill="none" d="M22.7,5 L 22.7 58.91" id="fig-12aaeeeedcfb4411b83828924bb537b4-element-29"/>
      <path fill="none" d="M41.08,5 L 41.08 58.91" id="fig-12aaeeeedcfb4411b83828924bb537b4-element-30"/>
      <path fill="none" d="M60.07,5 L 60.07 58.91" id="fig-12aaeeeedcfb4411b83828924bb537b4-element-31"/>
      <path fill="none" d="M78.46,5 L 78.46 58.91" id="fig-12aaeeeedcfb4411b83828924bb537b4-element-32"/>
      <path fill="none" d="M97.45,5 L 97.45 58.91" id="fig-12aaeeeedcfb4411b83828924bb537b4-element-33"/>
      <path fill="none" d="M116.45,5 L 116.45 58.91" id="fig-12aaeeeedcfb4411b83828924bb537b4-element-34"/>
      <path fill="none" d="M134.83,5 L 134.83 58.91" id="fig-12aaeeeedcfb4411b83828924bb537b4-element-35"/>
      <path fill="none" d="M153.83,5 L 153.83 58.91" id="fig-12aaeeeedcfb4411b83828924bb537b4-element-36"/>
      <path fill="none" d="M172.21,5 L 172.21 58.91" id="fig-12aaeeeedcfb4411b83828924bb537b4-element-37"/>
    </g>
    <g class="plotpanel" id="fig-12aaeeeedcfb4411b83828924bb537b4-element-38">
      <g stroke-width="0.79" fill="none" class="geometry color_0.4" stroke="#FF5EA0" id="fig-12aaeeeedcfb4411b83828924bb537b4-element-39">
        <path fill="none" d="M104.81,34.15 L 105.42 33.55 106.03 33.36 106.65 33.16 107.26 33.16 107.87 33.16 109.1 32.56 109.71 32.56 110.32 32.36 110.93 32.36 111.55 32.36 112.16 31.76 112.77 31.36 113.39 31.36 114.61 30.96 115.22 30.36 116.45 29.96 117.06 29.96 117.67 29.96 120.13 29.96 121.96 28.76 122.58 28.56 123.19 28.36 123.8 27.96 124.42 27.96 125.03 27.96 125.64 26.37 126.25 26.37 126.87 26.37 128.09 26.17 128.7 26.17 129.32 25.97 129.93 25.97 130.54 25.97 131.16 25.77 131.77 25.77 132.99 25.97 133.61 25.77 134.22 25.77 134.83 25.37 135.45 24.97 136.06 24.97 136.67 24.97 137.28 24.57 139.12 24.17 139.73 24.17 140.35 23.77 140.96 23.57 141.57 23.57 142.19 23.57 142.8 23.17 143.41 23.17 144.02 22.97 144.64 22.77 145.25 22.77 145.86 22.77 146.48 22.77 147.09 22.37 147.7 21.97 148.31 21.97 148.93 21.97 149.54 21.77 150.15 21.77 150.76 21.58 151.38 21.58 151.99 21.18 152.6 20.98 153.22 20.98 153.83 20.78 154.44 20.78 155.05 20.78 155.67 20.78 156.28 20.58 156.89 20.38 158.73 20.38 161.79 19.18 162.41 18.78 163.02 18.78 163.63 18.58 164.25 18.58 164.86 17.98 165.47 17.98 167.92 16.98 168.53 16.98 171.6 16.78 172.82 16.78 173.44 16.38 174.05 16.18 174.66 16.18 175.28 16.18 175.89 15.79 176.5 15.39 178.34 15.19 178.95 14.99 180.18 14.19 180.79 14.19 181.4 14.19" id="fig-12aaeeeedcfb4411b83828924bb537b4-element-40"/>
      </g>
      <g stroke-width="0.79" fill="none" class="geometry color_0.3" stroke="#D4CA3A" id="fig-12aaeeeedcfb4411b83828924bb537b4-element-41">
        <path fill="none" d="M21.47,47.73 L 22.08 47.73 22.7 47.53 23.31 47.53 23.92 47.53 24.53 47.53 25.15 47.53 25.76 47.33 26.98 47.33 27.6 47.13 28.82 46.93 30.05 46.53 30.66 46.53 31.89 46.53 32.5 46.33 36.79 45.53 38.63 45.53 39.85 45.53 44.14 45.33 44.76 44.94 45.37 44.74 45.98 44.74 46.59 44.74 47.21 44.74 47.82 44.74 48.43 44.74 49.04 44.74 49.66 44.74 50.27 44.74 50.88 44.14 52.11 43.94 52.72 43.94 53.33 43.94 53.95 43.54 54.56 43.54 55.17 43.54 55.79 43.34 56.4 43.34 57.01 43.34 57.62 43.34 58.24 43.34 58.85 43.14 59.46 43.14 60.07 51.12 60.69 42.94 61.3 42.74 61.91 42.54 65.59 41.34 66.2 41.14 66.81 40.94 67.43 40.74 68.04 40.34 68.65 40.34 69.27 39.94 69.88 39.94 70.49 39.74 71.1 39.54 72.33 39.54 72.94 39.15 73.56 39.15 74.17 39.15 74.78 39.15 75.39 39.15 76.01 38.55 76.62 38.55 77.84 38.35 78.46 37.95 79.07 37.75 79.68 37.55 80.3 37.55 80.91 37.15 82.13 36.95 82.75 36.35 83.36 36.35 83.97 36.35 85.2 35.35 86.42 34.75 87.04 34.75 87.65 34.55 88.26 34.55 90.1 34.35 90.71 34.35 91.33 34.15 91.94 34.15 92.55 34.15 93.16 33.95 93.78 33.75 94.39 33.55 95.62 33.55 96.23 33.55 97.45 33.55 98.07 33.36 98.68 32.76 99.29 32.76 100.52 32.56 101.13 32.56 101.74 32.16 102.36 31.96 102.97 31.76 103.58 31.56 104.19 31.36 104.81 30.96 105.42 30.96 106.03 30.76 106.65 30.56 107.26 30.56 107.87 30.56 109.1 29.96 109.71 29.96 110.32 29.76 110.93 29.76 111.55 29.76 112.16 29.16 112.77 28.96 113.39 28.76 114.61 31.16 115.22 30.56 116.45 30.16 117.06 30.16 117.67 30.16 120.13 30.16 121.96 28.96 122.58 28.76 123.19 28.56 123.8 28.16 124.42 28.16 125.03 28.16 125.64 26.57 126.25 26.57 126.87 26.57 128.09 26.57 128.7 26.37 129.32 26.17 129.93 26.17 130.54 26.17 131.16 25.97 131.77 25.97 132.99 26.17 133.61 25.97 134.22 25.97 134.83 25.57 135.45 21.58 136.06 25.17 136.67 25.17 137.28 24.77 139.12 24.37 139.73 24.37 140.35 23.97 140.96 23.77 141.57 23.77 142.19 23.77 142.8 23.37 143.41 23.37 144.02 23.17 144.64 22.97 145.25 22.97 145.86 22.97 146.48 22.97 147.09 22.77 147.7 22.37 148.31 22.37 148.93 22.37 149.54 22.17 150.15 22.17 150.76 21.97 151.38 21.97 151.99 21.58 152.6 21.38 153.22 21.38 153.83 21.18 154.44 21.18 155.05 21.18 155.67 20.98 156.28 20.98 156.89 20.78 158.73 20.78 161.79 19.78 162.41 19.38 163.02 19.38 163.63 19.18 164.25 19.18 164.86 18.58 165.47 18.58 167.92 17.58 168.53 17.58 171.6 17.38 172.82 17.38 173.44 17.18 174.05 16.98 174.66 16.98 175.28 16.98 175.89 16.58 176.5 16.38 178.34 15.98 178.95 15.79 180.18 15.19 180.79 14.99 181.4 14.99" id="fig-12aaeeeedcfb4411b83828924bb537b4-element-42"/>
      </g>
      <g stroke-width="0.79" fill="none" class="geometry color_0.2" stroke="#00BFFF" id="fig-12aaeeeedcfb4411b83828924bb537b4-element-43">
        <path fill="none" d="M21.47,49.93 L 22.08 49.93 22.7 49.73 23.31 49.73 23.92 49.73 24.53 49.73 25.15 49.73 25.76 49.73 26.98 49.73 27.6 49.73 28.82 49.53 30.05 49.33 30.66 49.33 31.89 49.13 32.5 48.93 36.79 48.53 38.63 48.53 39.85 48.53 44.14 48.33 44.76 48.13 45.37 48.13 45.98 48.13 46.59 48.13 47.21 48.13 47.82 48.13 48.43 48.13 49.04 48.13 49.66 48.13 50.27 47.53 50.88 47.53 52.11 47.33 52.72 47.33 53.33 47.33 53.95 47.13 54.56 48.73 55.17 47.73 55.79 47.73 56.4 47.73 57.01 47.73 57.62 47.73 58.24 47.73 58.85 47.73 59.46 47.73 60.07 47.53 60.69 47.53 61.3 47.33 61.91 47.33 65.59 46.33 66.2 46.33 66.81 46.13 67.43 45.93 68.04 45.53 68.65 45.53 69.27 45.53 69.88 45.53 70.49 45.53 71.1 45.33 72.33 45.33 72.94 44.94 73.56 44.94 74.17 44.94 74.78 44.94 75.39 44.94 76.01 44.34 76.62 44.34 77.84 44.14 78.46 43.74 79.07 43.54 79.68 43.34 80.3 43.34 80.91 43.34 82.13 42.94 82.75 42.74 83.36 42.54 83.97 42.54 85.2 42.14 86.42 41.74 87.04 41.74 87.65 41.74 88.26 41.74 90.1 41.74 90.71 41.74 91.33 41.54 91.94 41.54 92.55 41.54 93.16 41.34 93.78 41.34 94.39 41.34 95.62 41.14 96.23 41.14 97.45 41.14 98.07 41.14 98.68 40.54 99.29 40.54 100.52 40.94 101.13 40.94 101.74 40.54 102.36 40.34 102.97 40.34 103.58 39.94 104.19 39.94" id="fig-12aaeeeedcfb4411b83828924bb537b4-element-44"/>
      </g>
    </g>
  </g>
  <g class="guide ylabels" font-size="2.82" font-family="'PT Sans Caption','Helvetica Neue','Helvetica',sans-serif" fill="#6C606B" id="fig-12aaeeeedcfb4411b83828924bb537b4-element-45">
    <text x="18.63" y="56.92" text-anchor="end" dy="0.35em" id="fig-12aaeeeedcfb4411b83828924bb537b4-element-46">250</text>
    <text x="18.63" y="46.93" text-anchor="end" dy="0.35em" id="fig-12aaeeeedcfb4411b83828924bb537b4-element-47">300</text>
    <text x="18.63" y="36.95" text-anchor="end" dy="0.35em" id="fig-12aaeeeedcfb4411b83828924bb537b4-element-48">350</text>
    <text x="18.63" y="26.97" text-anchor="end" dy="0.35em" id="fig-12aaeeeedcfb4411b83828924bb537b4-element-49">400</text>
    <text x="18.63" y="16.98" text-anchor="end" dy="0.35em" id="fig-12aaeeeedcfb4411b83828924bb537b4-element-50">450</text>
    <text x="18.63" y="7" text-anchor="end" dy="0.35em" id="fig-12aaeeeedcfb4411b83828924bb537b4-element-51">500</text>
  </g>
</g>
<defs>
<clipPath id="fig-12aaeeeedcfb4411b83828924bb537b4-element-18">
  <path d="M19.63,5 L 183.85 5 183.85 58.91 19.63 58.91" />
</clipPath
></defs>
</svg>
