<?xml version="1.0" encoding="UTF-8"?>
<svg xmlns="http://www.w3.org/2000/svg"
     xmlns:xlink="http://www.w3.org/1999/xlink"
     xmlns:gadfly="http://www.gadflyjl.org/ns"
     version="1.2"
     width="203.2mm" height="76.2mm" viewBox="0 0 203.2 76.2"
     stroke="none"
     fill="#000000"
     stroke-width="0.3"
     font-size="3.88"
>
<g class="plotroot xscalable yscalable" id="fig-77058687226d445f866abba399f7315b-element-1">
  <g font-size="3.88" font-family="'PT Sans','Helvetica Neue','Helvetica',sans-serif" fill="#564A55" stroke="none" id="fig-77058687226d445f866abba399f7315b-element-2">
    <text x="101.74" y="68.2" text-anchor="middle">Date</text>
  </g>
  <g class="guide xlabels" font-size="2.82" font-family="'PT Sans Caption','Helvetica Neue','Helvetica',sans-serif" fill="#6C606B" id="fig-77058687226d445f866abba399f7315b-element-3">
    <text x="23.35" y="62.59" text-anchor="middle">Apr</text>
    <text x="45.64" y="62.59" text-anchor="middle">May</text>
    <text x="68.68" y="62.59" text-anchor="middle">June</text>
    <text x="90.97" y="62.59" text-anchor="middle">July</text>
    <text x="114" y="62.59" text-anchor="middle">Aug</text>
    <text x="137.04" y="62.59" text-anchor="middle">Sept</text>
    <text x="159.33" y="62.59" text-anchor="middle">Oct</text>
    <text x="182.37" y="62.59" text-anchor="middle">Nev</text>
  </g>
  <g class="guide colorkey" id="fig-77058687226d445f866abba399f7315b-element-4">
    <g fill="#4C404B" font-size="2.82" font-family="'PT Sans','Helvetica Neue','Helvetica',sans-serif" id="fig-77058687226d445f866abba399f7315b-element-5">
      <text x="187.67" y="30.14" dy="0.35em" id="fig-77058687226d445f866abba399f7315b-element-6" class="color_0.2">0.2</text>
      <text x="187.67" y="33.77" dy="0.35em" id="fig-77058687226d445f866abba399f7315b-element-7" class="color_0.3">0.3</text>
      <text x="187.67" y="37.4" dy="0.35em" id="fig-77058687226d445f866abba399f7315b-element-8" class="color_0.4">0.4</text>
    </g>
    <g stroke="none" id="fig-77058687226d445f866abba399f7315b-element-9">
      <rect x="184.85" y="29.24" width="1.81" height="1.81" id="fig-77058687226d445f866abba399f7315b-element-10" fill="#00BFFF" class="color_0.2"/>
      <rect x="184.85" y="32.86" width="1.81" height="1.81" id="fig-77058687226d445f866abba399f7315b-element-11" fill="#D4CA3A" class="color_0.3"/>
      <rect x="184.85" y="36.49" width="1.81" height="1.81" id="fig-77058687226d445f866abba399f7315b-element-12" fill="#FF5EA0" class="color_0.4"/>
    </g>
    <g fill="#362A35" font-size="3.88" font-family="'PT Sans','Helvetica Neue','Helvetica',sans-serif" stroke="none" id="fig-77058687226d445f866abba399f7315b-element-13">
      <text x="184.85" y="26.32" id="fig-77058687226d445f866abba399f7315b-element-14">Julia ver.</text>
    </g>
  </g>
  <g font-size="3.88" font-family="'PT Sans','Helvetica Neue','Helvetica',sans-serif" fill="#564A55" stroke="none" id="fig-77058687226d445f866abba399f7315b-element-15">
    <text x="8.81" y="29.96" text-anchor="middle" dy="0.35em" transform="rotate(-90, 8.81, 31.96)" id="fig-77058687226d445f866abba399f7315b-element-16">Number of Tagged Packages</text>
  </g>
  <g clip-path="url(#fig-77058687226d445f866abba399f7315b-element-18)" id="fig-77058687226d445f866abba399f7315b-element-17">
    <g pointer-events="visible" opacity="1" fill="none" stroke="none" class="guide background" id="fig-77058687226d445f866abba399f7315b-element-19">
      <rect x="19.63" y="5" width="164.22" height="53.91" id="fig-77058687226d445f866abba399f7315b-element-20"/>
    </g>
    <g class="guide ygridlines xfixed" stroke-dasharray="0.5,0.5" stroke-width="0.2" stroke="#D0D0E0" id="fig-77058687226d445f866abba399f7315b-element-21">
      <path fill="none" d="M19.63,56.91 L 183.85 56.91" id="fig-77058687226d445f866abba399f7315b-element-22"/>
      <path fill="none" d="M19.63,44.44 L 183.85 44.44" id="fig-77058687226d445f866abba399f7315b-element-23"/>
      <path fill="none" d="M19.63,31.96 L 183.85 31.96" id="fig-77058687226d445f866abba399f7315b-element-24"/>
      <path fill="none" d="M19.63,19.48 L 183.85 19.48" id="fig-77058687226d445f866abba399f7315b-element-25"/>
      <path fill="none" d="M19.63,7 L 183.85 7" id="fig-77058687226d445f866abba399f7315b-element-26"/>
    </g>
    <g class="guide xgridlines yfixed" stroke-dasharray="0.5,0.5" stroke-width="0.2" stroke="#D0D0E0" id="fig-77058687226d445f866abba399f7315b-element-27">
      <path fill="none" d="M23.35,5 L 23.35 58.91" id="fig-77058687226d445f866abba399f7315b-element-28"/>
      <path fill="none" d="M45.64,5 L 45.64 58.91" id="fig-77058687226d445f866abba399f7315b-element-29"/>
      <path fill="none" d="M68.68,5 L 68.68 58.91" id="fig-77058687226d445f866abba399f7315b-element-30"/>
      <path fill="none" d="M90.97,5 L 90.97 58.91" id="fig-77058687226d445f866abba399f7315b-element-31"/>
      <path fill="none" d="M114,5 L 114 58.91" id="fig-77058687226d445f866abba399f7315b-element-32"/>
      <path fill="none" d="M137.04,5 L 137.04 58.91" id="fig-77058687226d445f866abba399f7315b-element-33"/>
      <path fill="none" d="M159.33,5 L 159.33 58.91" id="fig-77058687226d445f866abba399f7315b-element-34"/>
      <path fill="none" d="M182.37,5 L 182.37 58.91" id="fig-77058687226d445f866abba399f7315b-element-35"/>
    </g>
    <g class="plotpanel" id="fig-77058687226d445f866abba399f7315b-element-36">
      <g stroke-width="0.79" fill="none" class="geometry color_0.4" stroke="#FF5EA0" id="fig-77058687226d445f866abba399f7315b-element-37">
        <path fill="none" d="M122.92,28.46 L 123.66 27.71 124.41 27.47 125.15 27.22 125.89 27.22 126.64 27.22 128.12 26.47 128.87 26.47 129.61 26.22 130.35 26.22 131.09 26.22 131.84 25.47 132.58 24.97 133.32 24.97 134.81 24.47 135.55 23.72 137.04 23.22 137.78 23.22 138.53 23.22 141.5 23.22 143.73 21.72 144.47 21.48 145.21 21.23 145.96 20.73 146.7 20.73 147.44 20.73 148.19 18.73 148.93 18.73 149.67 18.73 151.16 18.48 151.9 18.48 152.64 18.23 153.39 18.23 154.13 18.23 154.87 17.98 155.62 17.98 157.1 18.23 157.85 17.98 158.59 17.98 159.33 17.48 160.08 16.98 160.82 16.98 161.56 16.98 162.3 16.48 164.53 15.98 165.28 15.98 166.02 15.49 166.76 15.24 167.51 15.24 168.25 15.24 168.99 14.74 169.74 14.74 170.48 14.49 171.22 14.24 171.96 14.24 172.71 14.24 173.45 14.24 174.19 13.74 174.94 13.24 175.68 13.24 176.42 13.24 177.17 12.99 177.91 12.99 178.65 12.74 179.4 12.74 180.14 12.24 180.88 11.99 181.62 11.99 182.37 11.74" id="fig-77058687226d445f866abba399f7315b-element-38"/>
      </g>
      <g stroke-width="0.79" fill="none" class="geometry color_0.3" stroke="#D4CA3A" id="fig-77058687226d445f866abba399f7315b-element-39">
        <path fill="none" d="M21.86,45.43 L 22.6 45.43 23.35 45.18 24.09 45.18 24.83 45.18 25.58 45.18 26.32 45.18 27.06 44.94 28.55 44.94 29.29 44.69 30.78 44.44 32.26 43.94 33.01 43.94 34.49 43.94 35.24 43.69 40.44 42.69 42.67 42.69 44.15 42.69 49.36 42.44 50.1 41.94 50.84 41.69 51.58 41.69 52.33 41.69 53.07 41.69 53.81 41.69 54.56 41.69 55.3 41.69 56.04 41.69 56.79 41.69 57.53 40.94 59.02 40.69 59.76 40.69 60.5 40.69 61.24 40.19 61.99 40.19 62.73 40.19 63.47 39.94 64.22 39.94 64.96 39.94 65.7 39.94 66.45 39.94 67.19 39.69 67.93 39.69 68.68 49.68 69.42 39.44 70.16 39.2 70.9 38.95 75.36 37.45 76.11 37.2 76.85 36.95 77.59 36.7 78.34 36.2 79.08 36.2 79.82 35.7 80.56 35.7 81.31 35.45 82.05 35.2 83.54 35.2 84.28 34.7 85.02 34.7 85.77 34.7 86.51 34.7 87.25 34.7 88 33.95 88.74 33.95 90.23 33.7 90.97 33.21 91.71 32.96 92.45 32.71 93.2 32.71 93.94 32.21 95.43 31.96 96.17 31.21 96.91 31.21 97.66 31.21 99.14 29.96 100.63 29.21 101.37 29.21 102.11 28.96 102.86 28.96 105.09 28.71 105.83 28.71 106.57 28.46 107.32 28.46 108.06 28.46 108.8 28.21 109.55 27.96 110.29 27.71 111.77 27.71 112.52 27.71 114 27.71 114.75 27.47 115.49 26.72 116.23 26.72 117.72 26.47 118.46 26.47 119.21 25.97 119.95 25.72 120.69 25.47 121.43 25.22 122.18 24.97 122.92 24.47 123.66 24.47 124.41 24.22 125.15 23.97 125.89 23.97 126.64 23.97 128.12 23.22 128.87 23.22 129.61 22.97 130.35 22.97 131.09 22.97 131.84 22.22 132.58 21.97 133.32 21.72 134.81 24.72 135.55 23.97 137.04 23.47 137.78 23.47 138.53 23.47 141.5 23.47 143.73 21.97 144.47 21.72 145.21 21.48 145.96 20.98 146.7 20.98 147.44 20.98 148.19 18.98 148.93 18.98 149.67 18.98 151.16 18.98 151.9 18.73 152.64 18.48 153.39 18.48 154.13 18.48 154.87 18.23 155.62 18.23 157.1 18.48 157.85 18.23 158.59 18.23 159.33 17.73 160.08 12.74 160.82 17.23 161.56 17.23 162.3 16.73 164.53 16.23 165.28 16.23 166.02 15.74 166.76 15.49 167.51 15.49 168.25 15.49 168.99 14.99 169.74 14.99 170.48 14.74 171.22 14.49 171.96 14.49 172.71 14.49 173.45 14.49 174.19 14.24 174.94 13.74 175.68 13.74 176.42 13.74 177.17 13.49 177.91 13.49 178.65 13.24 179.4 13.24 180.14 12.74 180.88 12.49 181.62 12.49 182.37 12.24" id="fig-77058687226d445f866abba399f7315b-element-40"/>
      </g>
      <g stroke-width="0.79" fill="none" class="geometry color_0.2" stroke="#00BFFF" id="fig-77058687226d445f866abba399f7315b-element-41">
        <path fill="none" d="M21.86,48.18 L 22.6 48.18 23.35 47.93 24.09 47.93 24.83 47.93 25.58 47.93 26.32 47.93 27.06 47.93 28.55 47.93 29.29 47.93 30.78 47.68 32.26 47.43 33.01 47.43 34.49 47.18 35.24 46.93 40.44 46.43 42.67 46.43 44.15 46.43 49.36 46.18 50.1 45.93 50.84 45.93 51.58 45.93 52.33 45.93 53.07 45.93 53.81 45.93 54.56 45.93 55.3 45.93 56.04 45.93 56.79 45.18 57.53 45.18 59.02 44.94 59.76 44.94 60.5 44.94 61.24 44.69 61.99 46.68 62.73 45.43 63.47 45.43 64.22 45.43 64.96 45.43 65.7 45.43 66.45 45.43 67.19 45.43 67.93 45.43 68.68 45.18 69.42 45.18 70.16 44.94 70.9 44.94 75.36 43.69 76.11 43.69 76.85 43.44 77.59 43.19 78.34 42.69 79.08 42.69 79.82 42.69 80.56 42.69 81.31 42.69 82.05 42.44 83.54 42.44 84.28 41.94 85.02 41.94 85.77 41.94 86.51 41.94 87.25 41.94 88 41.19 88.74 41.19 90.23 40.94 90.97 40.44 91.71 40.19 92.45 39.94 93.2 39.94 93.94 39.94 95.43 39.44 96.17 39.2 96.91 38.95 97.66 38.95 99.14 38.45 100.63 37.95 101.37 37.95 102.11 37.95 102.86 37.95 105.09 37.95 105.83 37.95 106.57 37.7 107.32 37.7 108.06 37.7 108.8 37.45 109.55 37.45 110.29 37.45 111.77 37.2 112.52 37.2 114 37.2 114.75 37.2 115.49 36.45 116.23 36.45 117.72 36.95 118.46 36.95 119.21 36.45 119.95 36.2 120.69 36.2 121.43 35.7 122.18 35.7" id="fig-77058687226d445f866abba399f7315b-element-42"/>
      </g>
    </g>
  </g>
  <g class="guide ylabels" font-size="2.82" font-family="'PT Sans Caption','Helvetica Neue','Helvetica',sans-serif" fill="#6C606B" id="fig-77058687226d445f866abba399f7315b-element-43">
    <text x="18.63" y="56.91" text-anchor="end" dy="0.35em" id="fig-77058687226d445f866abba399f7315b-element-44">250</text>
    <text x="18.63" y="44.44" text-anchor="end" dy="0.35em" id="fig-77058687226d445f866abba399f7315b-element-45">300</text>
    <text x="18.63" y="31.96" text-anchor="end" dy="0.35em" id="fig-77058687226d445f866abba399f7315b-element-46">350</text>
    <text x="18.63" y="19.48" text-anchor="end" dy="0.35em" id="fig-77058687226d445f866abba399f7315b-element-47">400</text>
    <text x="18.63" y="7" text-anchor="end" dy="0.35em" id="fig-77058687226d445f866abba399f7315b-element-48">450</text>
  </g>
</g>
<defs>
<clipPath id="fig-77058687226d445f866abba399f7315b-element-18">
  <path d="M19.63,5 L 183.85 5 183.85 58.91 19.63 58.91" />
</clipPath
></defs>
</svg>
