<?xml version="1.0" encoding="UTF-8"?>
<svg xmlns="http://www.w3.org/2000/svg"
     xmlns:xlink="http://www.w3.org/1999/xlink"
     xmlns:gadfly="http://www.gadflyjl.org/ns"
     version="1.2"
     width="203.2mm" height="76.2mm" viewBox="0 0 203.2 76.2"
     stroke="none"
     fill="#000000"
     stroke-width="0.3"
     font-size="3.88"
>
<g class="plotroot xscalable yscalable" id="fig-e5b5c42ce2f34db1916567c880fb00af-element-1">
  <g font-size="3.88" font-family="'PT Sans','Helvetica Neue','Helvetica',sans-serif" fill="#564A55" stroke="none" id="fig-e5b5c42ce2f34db1916567c880fb00af-element-2">
    <text x="101.74" y="68.2" text-anchor="middle">Date</text>
  </g>
  <g class="guide xlabels" font-size="2.82" font-family="'PT Sans Caption','Helvetica Neue','Helvetica',sans-serif" fill="#6C606B" id="fig-e5b5c42ce2f34db1916567c880fb00af-element-3">
    <text x="22.92" y="62.59" text-anchor="middle">Apr</text>
    <text x="39.34" y="62.59" text-anchor="middle">May</text>
    <text x="56.31" y="62.59" text-anchor="middle">Jun</text>
    <text x="72.73" y="62.59" text-anchor="middle">Jul</text>
    <text x="89.7" y="62.59" text-anchor="middle">Aug</text>
    <text x="106.67" y="62.59" text-anchor="middle">Sep</text>
    <text x="123.09" y="62.59" text-anchor="middle">Oct</text>
    <text x="140.06" y="62.59" text-anchor="middle">Nov</text>
    <text x="156.48" y="62.59" text-anchor="middle">Dec</text>
    <text x="173.45" y="62.59" text-anchor="middle">Jan 2015</text>
  </g>
  <g class="guide colorkey" id="fig-e5b5c42ce2f34db1916567c880fb00af-element-4">
    <g fill="#4C404B" font-size="2.82" font-family="'PT Sans','Helvetica Neue','Helvetica',sans-serif" id="fig-e5b5c42ce2f34db1916567c880fb00af-element-5">
      <text x="187.67" y="30.14" dy="0.35em" id="fig-e5b5c42ce2f34db1916567c880fb00af-element-6" class="color_0.2">0.2</text>
      <text x="187.67" y="33.77" dy="0.35em" id="fig-e5b5c42ce2f34db1916567c880fb00af-element-7" class="color_0.3">0.3</text>
      <text x="187.67" y="37.4" dy="0.35em" id="fig-e5b5c42ce2f34db1916567c880fb00af-element-8" class="color_0.4">0.4</text>
    </g>
    <g stroke="none" id="fig-e5b5c42ce2f34db1916567c880fb00af-element-9">
      <rect x="184.85" y="29.24" width="1.81" height="1.81" id="fig-e5b5c42ce2f34db1916567c880fb00af-element-10" fill="#00BFFF" class="color_0.2"/>
      <rect x="184.85" y="32.86" width="1.81" height="1.81" id="fig-e5b5c42ce2f34db1916567c880fb00af-element-11" fill="#D4CA3A" class="color_0.3"/>
      <rect x="184.85" y="36.49" width="1.81" height="1.81" id="fig-e5b5c42ce2f34db1916567c880fb00af-element-12" fill="#FF5EA0" class="color_0.4"/>
    </g>
    <g fill="#362A35" font-size="3.88" font-family="'PT Sans','Helvetica Neue','Helvetica',sans-serif" stroke="none" id="fig-e5b5c42ce2f34db1916567c880fb00af-element-13">
      <text x="184.85" y="26.32" id="fig-e5b5c42ce2f34db1916567c880fb00af-element-14">Julia ver.</text>
    </g>
  </g>
  <g font-size="3.88" font-family="'PT Sans','Helvetica Neue','Helvetica',sans-serif" fill="#564A55" stroke="none" id="fig-e5b5c42ce2f34db1916567c880fb00af-element-15">
    <text x="8.81" y="29.96" text-anchor="middle" dy="0.35em" transform="rotate(-90, 8.81, 31.96)" id="fig-e5b5c42ce2f34db1916567c880fb00af-element-16">Number of Tagged Packages</text>
  </g>
  <g clip-path="url(#fig-e5b5c42ce2f34db1916567c880fb00af-element-18)" id="fig-e5b5c42ce2f34db1916567c880fb00af-element-17">
    <g pointer-events="visible" opacity="1" fill="none" stroke="none" class="guide background" id="fig-e5b5c42ce2f34db1916567c880fb00af-element-19">
      <rect x="19.63" y="5" width="164.22" height="53.91" id="fig-e5b5c42ce2f34db1916567c880fb00af-element-20"/>
    </g>
    <g class="guide ygridlines xfixed" stroke-dasharray="0.5,0.5" stroke-width="0.2" stroke="#D0D0E0" id="fig-e5b5c42ce2f34db1916567c880fb00af-element-21">
      <path fill="none" d="M19.63,56.91 L 183.85 56.91" id="fig-e5b5c42ce2f34db1916567c880fb00af-element-22"/>
      <path fill="none" d="M19.63,46.93 L 183.85 46.93" id="fig-e5b5c42ce2f34db1916567c880fb00af-element-23"/>
      <path fill="none" d="M19.63,36.95 L 183.85 36.95" id="fig-e5b5c42ce2f34db1916567c880fb00af-element-24"/>
      <path fill="none" d="M19.63,26.97 L 183.85 26.97" id="fig-e5b5c42ce2f34db1916567c880fb00af-element-25"/>
      <path fill="none" d="M19.63,16.98 L 183.85 16.98" id="fig-e5b5c42ce2f34db1916567c880fb00af-element-26"/>
      <path fill="none" d="M19.63,7 L 183.85 7" id="fig-e5b5c42ce2f34db1916567c880fb00af-element-27"/>
    </g>
    <g class="guide xgridlines yfixed" stroke-dasharray="0.5,0.5" stroke-width="0.2" stroke="#D0D0E0" id="fig-e5b5c42ce2f34db1916567c880fb00af-element-28">
      <path fill="none" d="M22.92,5 L 22.92 58.91" id="fig-e5b5c42ce2f34db1916567c880fb00af-element-29"/>
      <path fill="none" d="M39.34,5 L 39.34 58.91" id="fig-e5b5c42ce2f34db1916567c880fb00af-element-30"/>
      <path fill="none" d="M56.31,5 L 56.31 58.91" id="fig-e5b5c42ce2f34db1916567c880fb00af-element-31"/>
      <path fill="none" d="M72.73,5 L 72.73 58.91" id="fig-e5b5c42ce2f34db1916567c880fb00af-element-32"/>
      <path fill="none" d="M89.7,5 L 89.7 58.91" id="fig-e5b5c42ce2f34db1916567c880fb00af-element-33"/>
      <path fill="none" d="M106.67,5 L 106.67 58.91" id="fig-e5b5c42ce2f34db1916567c880fb00af-element-34"/>
      <path fill="none" d="M123.09,5 L 123.09 58.91" id="fig-e5b5c42ce2f34db1916567c880fb00af-element-35"/>
      <path fill="none" d="M140.06,5 L 140.06 58.91" id="fig-e5b5c42ce2f34db1916567c880fb00af-element-36"/>
      <path fill="none" d="M156.48,5 L 156.48 58.91" id="fig-e5b5c42ce2f34db1916567c880fb00af-element-37"/>
      <path fill="none" d="M173.45,5 L 173.45 58.91" id="fig-e5b5c42ce2f34db1916567c880fb00af-element-38"/>
    </g>
    <g class="plotpanel" id="fig-e5b5c42ce2f34db1916567c880fb00af-element-39">
      <g stroke-width="0.79" fill="none" class="geometry color_0.4" stroke="#FF5EA0" id="fig-e5b5c42ce2f34db1916567c880fb00af-element-40">
        <path fill="none" d="M96.27,34.15 L 96.82 33.55 97.36 33.36 97.91 33.16 98.46 33.16 99.01 33.16 100.1 32.56 100.65 32.56 101.2 32.36 101.74 32.36 102.29 32.36 102.84 31.76 103.39 31.36 103.93 31.36 105.03 30.96 105.57 30.36 106.67 29.96 107.22 29.96 107.76 29.96 109.95 29.96 111.6 28.76 112.14 28.56 112.69 28.36 113.24 27.96 113.79 27.96 114.33 27.96 114.88 26.37 115.43 26.37 115.98 26.37 117.07 26.17 117.62 26.17 118.17 25.97 118.71 25.97 119.26 25.97 119.81 25.77 120.35 25.77 121.45 25.97 122 25.77 122.54 25.77 123.09 25.37 123.64 24.97 124.19 24.97 124.73 24.97 125.28 24.57 126.92 24.17 127.47 24.17 128.02 23.77 128.57 23.57 129.11 23.57 129.66 23.57 130.21 23.17 130.76 23.17 131.3 22.97 131.85 22.77 132.4 22.77 132.95 22.77 133.49 22.77 134.04 22.37 134.59 21.97 135.13 21.97 135.68 21.97 136.23 21.77 136.78 21.77 137.32 21.58 137.87 21.58 138.42 21.18 138.97 20.98 139.51 20.98 140.06 20.78 140.61 20.78 141.16 20.78 141.7 20.78 142.25 20.58 142.8 20.38 144.44 20.38 147.18 19.18 147.73 18.78 148.27 18.78 148.82 18.58 149.37 18.58 149.91 17.98 150.46 17.98 152.65 16.98 153.2 16.98 155.94 16.78 157.03 16.78 157.58 16.38 158.13 16.18 158.67 16.18 159.22 16.18 159.77 15.79 160.32 15.39 161.96 15.19 162.51 14.99 163.6 14.19 164.15 14.19 164.69 14.19 166.34 14.19 167.43 13.79 169.07 13.39 171.26 12.99 172.36 12.19 174 11.79 177.83 10.39 180.02 9 180.57 8.6 181.12 8.6 181.66 7.4 182.21 7.4" id="fig-e5b5c42ce2f34db1916567c880fb00af-element-41"/>
      </g>
      <g stroke-width="0.79" fill="none" class="geometry color_0.3" stroke="#D4CA3A" id="fig-e5b5c42ce2f34db1916567c880fb00af-element-42">
        <path fill="none" d="M21.82,47.73 L 22.37 47.73 22.92 47.53 23.46 47.53 24.01 47.53 24.56 47.53 25.11 47.53 25.65 47.33 26.75 47.33 27.3 47.13 28.39 46.93 29.49 46.53 30.03 46.53 31.13 46.53 31.67 46.33 35.51 45.53 37.15 45.53 38.24 45.53 42.08 45.33 42.62 44.94 43.17 44.74 43.72 44.74 44.27 44.74 44.81 44.74 45.36 44.74 45.91 44.74 46.45 44.74 47 44.74 47.55 44.74 48.1 44.14 49.19 43.94 49.74 43.94 50.29 43.94 50.83 43.54 51.38 43.54 51.93 43.54 52.48 43.34 53.02 43.34 53.57 43.34 54.12 43.34 54.67 43.34 55.21 43.14 55.76 43.14 56.31 51.12 56.86 42.94 57.4 42.74 57.95 42.54 61.23 41.34 61.78 41.14 62.33 40.94 62.88 40.74 63.42 40.34 63.97 40.34 64.52 39.94 65.07 39.94 65.61 39.74 66.16 39.54 67.26 39.54 67.8 39.15 68.35 39.15 68.9 39.15 69.45 39.15 69.99 39.15 70.54 38.55 71.09 38.55 72.18 38.35 72.73 37.95 73.28 37.75 73.83 37.55 74.37 37.55 74.92 37.15 76.01 36.95 76.56 36.35 77.11 36.35 77.66 36.35 78.75 35.35 79.85 34.75 80.39 34.75 80.94 34.55 81.49 34.55 83.13 34.35 83.68 34.35 84.23 34.15 84.77 34.15 85.32 34.15 85.87 33.95 86.42 33.75 86.96 33.55 88.06 33.55 88.61 33.55 89.7 33.55 90.25 33.36 90.79 32.76 91.34 32.76 92.44 32.56 92.98 32.56 93.53 32.16 94.08 31.96 94.63 31.76 95.17 31.56 95.72 31.36 96.27 30.96 96.82 30.96 97.36 30.76 97.91 30.56 98.46 30.56 99.01 30.56 100.1 29.96 100.65 29.96 101.2 29.76 101.74 29.76 102.29 29.76 102.84 29.16 103.39 28.96 103.93 28.76 105.03 31.16 105.57 30.56 106.67 30.16 107.22 30.16 107.76 30.16 109.95 30.16 111.6 28.96 112.14 28.76 112.69 28.56 113.24 28.16 113.79 28.16 114.33 28.16 114.88 26.57 115.43 26.57 115.98 26.57 117.07 26.57 117.62 26.37 118.17 26.17 118.71 26.17 119.26 26.17 119.81 25.97 120.35 25.97 121.45 26.17 122 25.97 122.54 25.97 123.09 25.57 123.64 21.58 124.19 25.17 124.73 25.17 125.28 24.77 126.92 24.37 127.47 24.37 128.02 23.97 128.57 23.77 129.11 23.77 129.66 23.77 130.21 23.37 130.76 23.37 131.3 23.17 131.85 22.97 132.4 22.97 132.95 22.97 133.49 22.97 134.04 22.77 134.59 22.37 135.13 22.37 135.68 22.37 136.23 22.17 136.78 22.17 137.32 21.97 137.87 21.97 138.42 21.58 138.97 21.38 139.51 21.38 140.06 21.18 140.61 21.18 141.16 21.18 141.7 20.98 142.25 20.98 142.8 20.78 144.44 20.78 147.18 19.78 147.73 19.38 148.27 19.38 148.82 19.18 149.37 19.18 149.91 18.58 150.46 18.58 152.65 17.58 153.2 17.58 155.94 17.38 157.03 17.38 157.58 17.18 158.13 16.98 158.67 16.98 159.22 16.98 159.77 16.58 160.32 16.38 161.96 15.98 162.51 15.79 163.6 15.19 164.15 14.99 164.69 14.99 166.34 14.99 167.43 14.59 169.07 14.19 171.26 13.79 172.36 13.19 174 12.39 177.83 11.19 180.02 9.8 180.57 9.4 181.12 9.4 181.66 8.4 182.21 8.4" id="fig-e5b5c42ce2f34db1916567c880fb00af-element-43"/>
      </g>
      <g stroke-width="0.79" fill="none" class="geometry color_0.2" stroke="#00BFFF" id="fig-e5b5c42ce2f34db1916567c880fb00af-element-44">
        <path fill="none" d="M21.82,49.93 L 22.37 49.93 22.92 49.73 23.46 49.73 24.01 49.73 24.56 49.73 25.11 49.73 25.65 49.73 26.75 49.73 27.3 49.73 28.39 49.53 29.49 49.33 30.03 49.33 31.13 49.13 31.67 48.93 35.51 48.53 37.15 48.53 38.24 48.53 42.08 48.33 42.62 48.13 43.17 48.13 43.72 48.13 44.27 48.13 44.81 48.13 45.36 48.13 45.91 48.13 46.45 48.13 47 48.13 47.55 47.53 48.1 47.53 49.19 47.33 49.74 47.33 50.29 47.33 50.83 47.13 51.38 48.73 51.93 47.73 52.48 47.73 53.02 47.73 53.57 47.73 54.12 47.73 54.67 47.73 55.21 47.73 55.76 47.73 56.31 47.53 56.86 47.53 57.4 47.33 57.95 47.33 61.23 46.33 61.78 46.33 62.33 46.13 62.88 45.93 63.42 45.53 63.97 45.53 64.52 45.53 65.07 45.53 65.61 45.53 66.16 45.33 67.26 45.33 67.8 44.94 68.35 44.94 68.9 44.94 69.45 44.94 69.99 44.94 70.54 44.34 71.09 44.34 72.18 44.14 72.73 43.74 73.28 43.54 73.83 43.34 74.37 43.34 74.92 43.34 76.01 42.94 76.56 42.74 77.11 42.54 77.66 42.54 78.75 42.14 79.85 41.74 80.39 41.74 80.94 41.74 81.49 41.74 83.13 41.74 83.68 41.74 84.23 41.54 84.77 41.54 85.32 41.54 85.87 41.34 86.42 41.34 86.96 41.34 88.06 41.14 88.61 41.14 89.7 41.14 90.25 41.14 90.79 40.54 91.34 40.54 92.44 40.94 92.98 40.94 93.53 40.54 94.08 40.34 94.63 40.34 95.17 39.94 95.72 39.94" id="fig-e5b5c42ce2f34db1916567c880fb00af-element-45"/>
      </g>
    </g>
  </g>
  <g class="guide ylabels" font-size="2.82" font-family="'PT Sans Caption','Helvetica Neue','Helvetica',sans-serif" fill="#6C606B" id="fig-e5b5c42ce2f34db1916567c880fb00af-element-46">
    <text x="18.63" y="56.91" text-anchor="end" dy="0.35em" id="fig-e5b5c42ce2f34db1916567c880fb00af-element-47">250</text>
    <text x="18.63" y="46.93" text-anchor="end" dy="0.35em" id="fig-e5b5c42ce2f34db1916567c880fb00af-element-48">300</text>
    <text x="18.63" y="36.95" text-anchor="end" dy="0.35em" id="fig-e5b5c42ce2f34db1916567c880fb00af-element-49">350</text>
    <text x="18.63" y="26.97" text-anchor="end" dy="0.35em" id="fig-e5b5c42ce2f34db1916567c880fb00af-element-50">400</text>
    <text x="18.63" y="16.98" text-anchor="end" dy="0.35em" id="fig-e5b5c42ce2f34db1916567c880fb00af-element-51">450</text>
    <text x="18.63" y="7" text-anchor="end" dy="0.35em" id="fig-e5b5c42ce2f34db1916567c880fb00af-element-52">500</text>
  </g>
</g>
<defs>
<clipPath id="fig-e5b5c42ce2f34db1916567c880fb00af-element-18">
  <path d="M19.63,5 L 183.85 5 183.85 58.91 19.63 58.91" />
</clipPath
></defs>
</svg>
