<?xml version="1.0" encoding="UTF-8"?>
<svg xmlns="http://www.w3.org/2000/svg"
     xmlns:xlink="http://www.w3.org/1999/xlink"
     xmlns:gadfly="http://www.gadflyjl.org/ns"
     version="1.2"
     width="203.2mm" height="76.2mm" viewBox="0 0 203.2 76.2"
     stroke="none"
     fill="#000000"
     stroke-width="0.3"
     font-size="3.88"
>
<g class="plotroot xscalable yscalable" id="fig-e947f67110634813a63e7d1c3e04ccec-element-1">
  <g font-size="3.88" font-family="'PT Sans','Helvetica Neue','Helvetica',sans-serif" fill="#564A55" stroke="#000000" stroke-opacity="0.000" id="fig-e947f67110634813a63e7d1c3e04ccec-element-2">
    <text x="101.74" y="64.59" text-anchor="middle" dy="0.6em">Date</text>
  </g>
  <g class="guide xlabels" font-size="2.82" font-family="'PT Sans Caption','Helvetica Neue','Helvetica',sans-serif" fill="#6C606B" id="fig-e947f67110634813a63e7d1c3e04ccec-element-3">
    <text x="22.32" y="57.92" text-anchor="middle" dy="0.6em">Apr</text>
    <text x="32.71" y="57.92" text-anchor="middle" dy="0.6em">May</text>
    <text x="43.43" y="57.92" text-anchor="middle" dy="0.6em">Jun</text>
    <text x="53.81" y="57.92" text-anchor="middle" dy="0.6em">Jul</text>
    <text x="64.54" y="57.92" text-anchor="middle" dy="0.6em">Aug</text>
    <text x="75.27" y="57.92" text-anchor="middle" dy="0.6em">Sep</text>
    <text x="85.65" y="57.92" text-anchor="middle" dy="0.6em">Oct</text>
    <text x="96.38" y="57.92" text-anchor="middle" dy="0.6em">Nov</text>
    <text x="106.76" y="57.92" text-anchor="middle" dy="0.6em">Dec</text>
    <text x="117.49" y="57.92" text-anchor="middle" dy="0.6em">Jan 2015</text>
    <text x="128.22" y="57.92" text-anchor="middle" dy="0.6em">Feb</text>
    <text x="137.91" y="57.92" text-anchor="middle" dy="0.6em">Mar</text>
    <text x="148.63" y="57.92" text-anchor="middle" dy="0.6em">Apr</text>
    <text x="159.01" y="57.92" text-anchor="middle" dy="0.6em">May</text>
    <text x="169.74" y="57.92" text-anchor="middle" dy="0.6em">Jun</text>
    <text x="180.12" y="57.92" text-anchor="middle" dy="0.6em">Jul</text>
  </g>
  <g class="guide colorkey" id="fig-e947f67110634813a63e7d1c3e04ccec-element-4">
    <g fill="#4C404B" font-size="2.82" font-family="'PT Sans','Helvetica Neue','Helvetica',sans-serif" id="fig-e947f67110634813a63e7d1c3e04ccec-element-5">
      <text x="187.67" y="29.14" dy="0.35em" id="fig-e947f67110634813a63e7d1c3e04ccec-element-6" class="color_0.2">0.2</text>
      <text x="187.67" y="32.77" dy="0.35em" id="fig-e947f67110634813a63e7d1c3e04ccec-element-7" class="color_0.3">0.3</text>
      <text x="187.67" y="36.4" dy="0.35em" id="fig-e947f67110634813a63e7d1c3e04ccec-element-8" class="color_0.4">0.4</text>
    </g>
    <g stroke="#000000" stroke-opacity="0.000" id="fig-e947f67110634813a63e7d1c3e04ccec-element-9">
      <rect x="184.85" y="28.24" width="1.81" height="1.81" id="fig-e947f67110634813a63e7d1c3e04ccec-element-10" fill="#00BFFF" class="color_0.2"/>
      <rect x="184.85" y="31.86" width="1.81" height="1.81" id="fig-e947f67110634813a63e7d1c3e04ccec-element-11" fill="#D4CA3A" class="color_0.3"/>
      <rect x="184.85" y="35.49" width="1.81" height="1.81" id="fig-e947f67110634813a63e7d1c3e04ccec-element-12" fill="#FF5EA0" class="color_0.4"/>
    </g>
    <g fill="#362A35" font-size="3.88" font-family="'PT Sans','Helvetica Neue','Helvetica',sans-serif" stroke="#000000" stroke-opacity="0.000" id="fig-e947f67110634813a63e7d1c3e04ccec-element-13">
      <text x="184.85" y="25.32" id="fig-e947f67110634813a63e7d1c3e04ccec-element-14">Julia ver.</text>
    </g>
  </g>
  <g font-size="3.88" font-family="'PT Sans','Helvetica Neue','Helvetica',sans-serif" fill="#564A55" stroke="#000000" stroke-opacity="0.000" id="fig-e947f67110634813a63e7d1c3e04ccec-element-15">
    <text x="8.81" y="28.96" text-anchor="middle" dy="0.35em" transform="rotate(-90, 8.81, 30.96)" id="fig-e947f67110634813a63e7d1c3e04ccec-element-16">Number of Tagged Packages</text>
  </g>
  <g clip-path="url(#fig-e947f67110634813a63e7d1c3e04ccec-element-18)" id="fig-e947f67110634813a63e7d1c3e04ccec-element-17">
    <g pointer-events="visible" opacity="1" fill="#000000" fill-opacity="0.000" stroke="#000000" stroke-opacity="0.000" class="guide background" id="fig-e947f67110634813a63e7d1c3e04ccec-element-19">
      <rect x="19.63" y="5" width="164.22" height="51.92" id="fig-e947f67110634813a63e7d1c3e04ccec-element-20"/>
    </g>
    <g class="guide ygridlines xfixed" stroke-dasharray="0.5,0.5" stroke-width="0.2" stroke="#D0D0E0" id="fig-e947f67110634813a63e7d1c3e04ccec-element-21">
      <path fill="none" d="M19.63,54.91 L 183.85 54.91" id="fig-e947f67110634813a63e7d1c3e04ccec-element-22"/>
      <path fill="none" d="M19.63,45.33 L 183.85 45.33" id="fig-e947f67110634813a63e7d1c3e04ccec-element-23"/>
      <path fill="none" d="M19.63,35.75 L 183.85 35.75" id="fig-e947f67110634813a63e7d1c3e04ccec-element-24"/>
      <path fill="none" d="M19.63,26.17 L 183.85 26.17" id="fig-e947f67110634813a63e7d1c3e04ccec-element-25"/>
      <path fill="none" d="M19.63,16.58 L 183.85 16.58" id="fig-e947f67110634813a63e7d1c3e04ccec-element-26"/>
      <path fill="none" d="M19.63,7 L 183.85 7" id="fig-e947f67110634813a63e7d1c3e04ccec-element-27"/>
    </g>
    <g class="guide xgridlines yfixed" stroke-dasharray="0.5,0.5" stroke-width="0.2" stroke="#D0D0E0" id="fig-e947f67110634813a63e7d1c3e04ccec-element-28">
      <path fill="none" d="M22.32,5 L 22.32 56.92" id="fig-e947f67110634813a63e7d1c3e04ccec-element-29"/>
      <path fill="none" d="M32.71,5 L 32.71 56.92" id="fig-e947f67110634813a63e7d1c3e04ccec-element-30"/>
      <path fill="none" d="M43.43,5 L 43.43 56.92" id="fig-e947f67110634813a63e7d1c3e04ccec-element-31"/>
      <path fill="none" d="M53.81,5 L 53.81 56.92" id="fig-e947f67110634813a63e7d1c3e04ccec-element-32"/>
      <path fill="none" d="M64.54,5 L 64.54 56.92" id="fig-e947f67110634813a63e7d1c3e04ccec-element-33"/>
      <path fill="none" d="M75.27,5 L 75.27 56.92" id="fig-e947f67110634813a63e7d1c3e04ccec-element-34"/>
      <path fill="none" d="M85.65,5 L 85.65 56.92" id="fig-e947f67110634813a63e7d1c3e04ccec-element-35"/>
      <path fill="none" d="M96.38,5 L 96.38 56.92" id="fig-e947f67110634813a63e7d1c3e04ccec-element-36"/>
      <path fill="none" d="M106.76,5 L 106.76 56.92" id="fig-e947f67110634813a63e7d1c3e04ccec-element-37"/>
      <path fill="none" d="M117.49,5 L 117.49 56.92" id="fig-e947f67110634813a63e7d1c3e04ccec-element-38"/>
      <path fill="none" d="M128.22,5 L 128.22 56.92" id="fig-e947f67110634813a63e7d1c3e04ccec-element-39"/>
      <path fill="none" d="M137.91,5 L 137.91 56.92" id="fig-e947f67110634813a63e7d1c3e04ccec-element-40"/>
      <path fill="none" d="M148.63,5 L 148.63 56.92" id="fig-e947f67110634813a63e7d1c3e04ccec-element-41"/>
      <path fill="none" d="M159.01,5 L 159.01 56.92" id="fig-e947f67110634813a63e7d1c3e04ccec-element-42"/>
      <path fill="none" d="M169.74,5 L 169.74 56.92" id="fig-e947f67110634813a63e7d1c3e04ccec-element-43"/>
      <path fill="none" d="M180.12,5 L 180.12 56.92" id="fig-e947f67110634813a63e7d1c3e04ccec-element-44"/>
    </g>
    <g class="plotpanel" id="fig-e947f67110634813a63e7d1c3e04ccec-element-45">
      <g class="geometry" stroke="#000000" stroke-opacity="0.000" fill="#4C404B" font-size="2.82" font-family="'PT Sans Caption','Helvetica Neue','Helvetica',sans-serif" id="fig-e947f67110634813a63e7d1c3e04ccec-element-46">
        <text x="76.06" y="52.46" text-anchor="middle" dy="0.35em" id="fig-e947f67110634813a63e7d1c3e04ccec-element-47" visibility="visible">v0.3.0</text>
        <text x="87.13" y="52.46" text-anchor="middle" dy="0.35em" id="fig-e947f67110634813a63e7d1c3e04ccec-element-48" visibility="visible">v0.3.1</text>
        <text x="97.51" y="52.46" text-anchor="middle" dy="0.35em" id="fig-e947f67110634813a63e7d1c3e04ccec-element-49" visibility="visible">v0.3.2</text>
        <text x="108.93" y="52.46" text-anchor="middle" dy="0.35em" id="fig-e947f67110634813a63e7d1c3e04ccec-element-50" visibility="visible">v0.3.3</text>
        <text x="116.41" y="52.46" text-anchor="middle" dy="0.35em" id="fig-e947f67110634813a63e7d1c3e04ccec-element-51" visibility="visible"></text>
        <text x="124.85" y="52.46" text-anchor="middle" dy="0.35em" id="fig-e947f67110634813a63e7d1c3e04ccec-element-52" visibility="visible">v0.3.5</text>
        <text x="138.69" y="52.46" text-anchor="middle" dy="0.35em" id="fig-e947f67110634813a63e7d1c3e04ccec-element-53" visibility="visible">v0.3.6</text>
        <text x="150.46" y="52.46" text-anchor="middle" dy="0.35em" id="fig-e947f67110634813a63e7d1c3e04ccec-element-54" visibility="visible">v0.3.7</text>
        <text x="163.61" y="52.46" text-anchor="middle" dy="0.35em" id="fig-e947f67110634813a63e7d1c3e04ccec-element-55" visibility="visible">v0.3.8</text>
        <text x="173.99" y="52.46" text-anchor="middle" dy="0.35em" id="fig-e947f67110634813a63e7d1c3e04ccec-element-56" visibility="visible">v0.3.9</text>
      </g>
      <g class="yfixed" stroke-width="0.26" stroke="#333333" id="fig-e947f67110634813a63e7d1c3e04ccec-element-57">
        <path fill="none" d="M71.12,5 L 71.12 56.92" id="fig-e947f67110634813a63e7d1c3e04ccec-element-58"/>
        <path fill="none" d="M82.19,5 L 82.19 56.92" id="fig-e947f67110634813a63e7d1c3e04ccec-element-59"/>
        <path fill="none" d="M92.57,5 L 92.57 56.92" id="fig-e947f67110634813a63e7d1c3e04ccec-element-60"/>
        <path fill="none" d="M103.99,5 L 103.99 56.92" id="fig-e947f67110634813a63e7d1c3e04ccec-element-61"/>
        <path fill="none" d="M115.41,5 L 115.41 56.92" id="fig-e947f67110634813a63e7d1c3e04ccec-element-62"/>
        <path fill="none" d="M119.91,5 L 119.91 56.92" id="fig-e947f67110634813a63e7d1c3e04ccec-element-63"/>
        <path fill="none" d="M133.75,5 L 133.75 56.92" id="fig-e947f67110634813a63e7d1c3e04ccec-element-64"/>
        <path fill="none" d="M145.52,5 L 145.52 56.92" id="fig-e947f67110634813a63e7d1c3e04ccec-element-65"/>
        <path fill="none" d="M158.67,5 L 158.67 56.92" id="fig-e947f67110634813a63e7d1c3e04ccec-element-66"/>
        <path fill="none" d="M169.05,5 L 169.05 56.92" id="fig-e947f67110634813a63e7d1c3e04ccec-element-67"/>
      </g>
      <g stroke-width="0.79" fill="#000000" fill-opacity="0.000" class="geometry color_0.4" stroke="#FF5EA0" id="fig-e947f67110634813a63e7d1c3e04ccec-element-68">
        <path fill="none" d="M68.69,39.2 L 69.04 38.91 69.39 38.82 69.73 38.72 70.08 38.72 70.43 38.72 71.12 38.43 71.46 38.43 71.81 38.34 72.16 38.34 72.5 38.34 72.85 38.05 73.19 37.86 73.54 37.86 74.23 37.67 74.58 37.38 75.27 37.19 75.62 37.19 75.96 37.19 77.35 37.19 78.38 36.61 78.73 36.52 79.08 36.42 79.42 36.23 79.77 36.23 80.11 36.23 80.46 35.46 80.81 35.46 81.15 35.46 81.84 35.37 82.19 35.37 82.54 35.27 82.88 35.27 83.23 35.27 83.58 35.17 83.92 35.17 84.61 35.27 84.96 35.17 85.31 35.17 85.65 34.98 86 34.79 86.34 34.79 86.69 34.79 87.04 34.6 88.07 34.41 88.42 34.41 88.77 34.22 89.11 34.12 89.46 34.12 89.8 34.12 90.15 33.93 90.5 33.93 90.84 33.83 91.19 33.74 91.53 33.74 91.88 33.74 92.23 33.74 92.57 33.54 92.92 33.35 93.26 33.35 93.61 33.35 93.96 33.26 94.3 33.26 94.65 33.16 94.99 33.16 95.34 32.97 95.69 32.87 96.03 32.87 96.38 32.78 96.73 32.78 97.07 32.78 97.42 32.78 97.76 32.68 98.11 32.59 99.15 32.59 100.88 32.01 101.22 31.82 101.57 31.82 101.92 31.72 102.26 31.72 102.61 31.44 102.95 31.44 104.34 30.96 104.68 30.96 106.41 30.86 107.11 30.86 107.45 30.67 107.8 30.57 108.14 30.57 108.49 30.57 108.84 30.38 109.18 30.19 110.22 30.1 110.57 30 111.26 29.62 111.61 29.62 111.95 29.62 112.99 29.62 113.68 29.42 114.72 29.23 116.1 29.04 116.8 28.66 117.83 28.47 120.26 27.8 121.64 27.12 121.99 26.93 122.33 26.93 122.68 26.36 123.03 26.36 123.37 26.36 124.06 26.26 124.41 26.17 124.76 26.17 125.1 25.88 125.45 25.78 125.79 25.78 126.14 25.78 126.83 25.5 127.18 25.21 127.52 25.11 128.91 24.35 129.25 24.35 129.6 24.63 130.29 24.35 130.98 24.06 131.33 24.06 132.37 23.87 134.1 23.87 135.83 23.77 137.56 22.91 137.91 22.91 138.25 22.91 138.6 22.72 138.94 22.72 139.64 22.52 140.33 22.52 141.71 22.43 142.06 22.24 142.4 22.24 142.75 22.24 143.1 22.05 143.44 22.14 143.79 21.95 147.94 21.57 148.63 21.57 148.98 21.28 149.67 21.28 151.06 21.18 151.75 21.09 152.44 20.8 153.82 20.61 154.52 20.42 154.86 20.13 155.55 19.65 155.9 19.65 156.25 19.55 156.59 19.36 156.94 19.36 157.28 19.27 157.98 19.17 158.32 18.98 159.01 18.98 159.71 18.79 160.05 18.5 160.4 18.4 161.09 18.21 161.44 18.12 163.17 17.73 164.55 17.54 164.9 17.35 167.67 17.06 168.01 17.06 168.36 17.06 169.4 16.68 169.74 16.58 170.09 16.39 170.78 16.2 171.47 16.2 172.16 16.01 175.28 15.34 176.32 15.34 176.66 15.34 177.01 15.15 177.36 15.15 177.7 14.86 178.05 14.86 178.39 14.86 178.74 14.76 179.78 14.67 180.47 14.47 181.16 14.47 181.51 14.28 181.85 13.9" id="fig-e947f67110634813a63e7d1c3e04ccec-element-69"/>
      </g>
      <g stroke-width="0.79" fill="#000000" fill-opacity="0.000" class="geometry color_0.3" stroke="#D4CA3A" id="fig-e947f67110634813a63e7d1c3e04ccec-element-70">
        <path fill="none" d="M21.63,45.72 L 21.98 45.72 22.32 45.62 22.67 45.62 23.02 45.62 23.36 45.62 23.71 45.62 24.05 45.52 24.75 45.52 25.09 45.43 25.78 45.33 26.48 45.14 26.82 45.14 27.51 45.14 27.86 45.04 30.28 44.66 31.32 44.66 32.01 44.66 34.44 44.57 34.78 44.37 35.13 44.28 35.47 44.28 35.82 44.28 36.17 44.28 36.51 44.28 36.86 44.28 37.2 44.28 37.55 44.28 37.9 44.28 38.24 43.99 38.93 43.89 39.28 43.89 39.63 43.89 39.97 43.7 40.32 43.7 40.66 43.7 41.01 43.61 41.36 43.61 41.7 43.61 42.05 43.61 42.39 43.61 42.74 43.51 43.09 43.51 43.43 47.34 43.78 43.42 44.13 43.32 44.47 43.22 46.55 42.65 46.89 42.55 47.24 42.46 47.59 42.36 47.93 42.17 48.28 42.17 48.62 41.98 48.97 41.98 49.32 41.88 49.66 41.79 50.35 41.79 50.7 41.59 51.05 41.59 51.39 41.59 51.74 41.59 52.08 41.59 52.43 41.31 52.78 41.31 53.47 41.21 53.81 41.02 54.16 40.92 54.51 40.83 54.85 40.83 55.2 40.64 55.89 40.54 56.24 40.25 56.58 40.25 56.93 40.25 57.62 39.77 58.31 39.49 58.66 39.49 59.01 39.39 59.35 39.39 60.39 39.29 60.74 39.29 61.08 39.2 61.43 39.2 61.77 39.2 62.12 39.1 62.47 39.01 62.81 38.91 63.5 38.91 63.85 38.91 64.54 38.91 64.89 38.82 65.23 38.53 65.58 38.53 66.27 38.43 66.62 38.43 66.96 38.24 67.31 38.14 67.66 38.05 68 37.95 68.35 37.86 68.69 37.67 69.04 37.67 69.39 37.57 69.73 37.47 70.08 37.47 70.43 37.47 71.12 37.19 71.46 37.19 71.81 37.09 72.16 37.09 72.5 37.09 72.85 36.8 73.19 36.71 73.54 36.61 74.23 37.76 74.58 37.47 75.27 37.28 75.62 37.28 75.96 37.28 77.35 37.28 78.38 36.71 78.73 36.61 79.08 36.52 79.42 36.32 79.77 36.32 80.11 36.32 80.46 35.56 80.81 35.56 81.15 35.56 81.84 35.56 82.19 35.46 82.54 35.37 82.88 35.37 83.23 35.37 83.58 35.27 83.92 35.27 84.61 35.37 84.96 35.27 85.31 35.27 85.65 35.08 86 33.16 86.34 34.89 86.69 34.89 87.04 34.69 88.07 34.5 88.42 34.5 88.77 34.31 89.11 34.22 89.46 34.22 89.8 34.22 90.15 34.02 90.5 34.02 90.84 33.93 91.19 33.83 91.53 33.83 91.88 33.83 92.23 33.83 92.57 33.74 92.92 33.54 93.26 33.54 93.61 33.54 93.96 33.45 94.3 33.45 94.65 33.35 94.99 33.35 95.34 33.16 95.69 33.07 96.03 33.07 96.38 32.97 96.73 32.97 97.07 32.97 97.42 32.87 97.76 32.87 98.11 32.78 99.15 32.78 100.88 32.3 101.22 32.11 101.57 32.11 101.92 32.01 102.26 32.01 102.61 31.72 102.95 31.72 104.34 31.24 104.68 31.24 106.41 31.15 107.11 31.15 107.45 31.05 107.8 30.96 108.14 30.96 108.49 30.96 108.84 30.77 109.18 30.67 110.22 30.48 110.57 30.38 111.26 30.1 111.61 30 111.95 30 112.99 30 113.68 29.81 114.72 29.62 116.1 29.42 116.8 29.14 117.83 28.75 120.26 28.18 121.64 27.51 121.99 27.32 122.33 27.32 122.68 26.84 123.03 26.84 123.37 26.84 124.06 26.84 124.41 26.65 124.76 26.65 125.1 26.36 125.45 26.26 125.79 26.26 126.14 26.26 126.83 25.97 127.18 25.78 127.52 25.69 128.91 24.92 129.25 25.11 129.6 25.11 130.29 24.82 130.98 24.54 131.33 24.54 132.37 24.35 134.1 24.35 135.83 23.77 137.56 23.39 137.91 23.39 138.25 23.39 138.6 23.2 138.94 23.2 139.64 23.2 140.33 23.2 141.71 23 142.06 22.81 142.4 22.72 142.75 22.72 143.1 22.52 143.44 22.62 143.79 22.43 147.94 22.33 148.63 22.33 148.98 22.05 149.67 22.05 151.06 21.95 151.75 21.95 152.44 21.66 153.82 21.66 154.52 21.47 154.86 21.37 155.55 20.9 155.9 20.9 156.25 20.8 156.59 20.51 156.94 20.51 157.28 20.42 157.98 20.32 158.32 20.22 159.01 20.22 159.71 20.03 160.05 19.75 160.4 19.65 161.09 19.46 161.44 19.36 163.17 18.98 164.55 18.79 164.9 18.6 167.67 18.21 168.01 18.21 168.36 18.21 169.4 17.92 169.74 17.83 170.09 17.73 170.78 17.54 171.47 17.54 172.16 17.45 175.28 16.97 176.32 17.06 176.66 17.06 177.01 16.87 177.36 16.87 177.7 16.68 178.05 16.68 178.39 16.68 178.74 16.58 179.78 16.58 180.47 16.39 181.16 16.49 181.51 16.3 181.85 15.91" id="fig-e947f67110634813a63e7d1c3e04ccec-element-71"/>
      </g>
      <g stroke-width="0.79" fill="#000000" fill-opacity="0.000" class="geometry color_0.2" stroke="#00BFFF" id="fig-e947f67110634813a63e7d1c3e04ccec-element-72">
        <path fill="none" d="M21.63,46.77 L 21.98 46.77 22.32 46.67 22.67 46.67 23.02 46.67 23.36 46.67 23.71 46.67 24.05 46.67 24.75 46.67 25.09 46.67 25.78 46.58 26.48 46.48 26.82 46.48 27.51 46.39 27.86 46.29 30.28 46.1 31.32 46.1 32.01 46.1 34.44 46 34.78 45.91 35.13 45.91 35.47 45.91 35.82 45.91 36.17 45.91 36.51 45.91 36.86 45.91 37.2 45.91 37.55 45.91 37.9 45.62 38.24 45.62 38.93 45.52 39.28 45.52 39.63 45.52 39.97 45.43 40.32 46.19 40.66 45.72 41.01 45.72 41.36 45.72 41.7 45.72 42.05 45.72 42.39 45.72 42.74 45.72 43.09 45.72 43.43 45.62 43.78 45.62 44.13 45.52 44.47 45.52 46.55 45.04 46.89 45.04 47.24 44.95 47.59 44.85 47.93 44.66 48.28 44.66 48.62 44.66 48.97 44.66 49.32 44.66 49.66 44.57 50.35 44.57 50.7 44.37 51.05 44.37 51.39 44.37 51.74 44.37 52.08 44.37 52.43 44.09 52.78 44.09 53.47 43.99 53.81 43.8 54.16 43.7 54.51 43.61 54.85 43.61 55.2 43.61 55.89 43.42 56.24 43.32 56.58 43.22 56.93 43.22 57.62 43.03 58.31 42.84 58.66 42.84 59.01 42.84 59.35 42.84 60.39 42.84 60.74 42.84 61.08 42.74 61.43 42.74 61.77 42.74 62.12 42.65 62.47 42.65 62.81 42.65 63.5 42.55 63.85 42.55 64.54 42.55 64.89 42.55 65.23 42.27 65.58 42.27 66.27 42.46 66.62 42.46 66.96 42.27 67.31 42.17 67.66 42.17 68 41.98 68.35 41.98" id="fig-e947f67110634813a63e7d1c3e04ccec-element-73"/>
      </g>
    </g>
  </g>
  <g class="guide ylabels" font-size="2.82" font-family="'PT Sans Caption','Helvetica Neue','Helvetica',sans-serif" fill="#6C606B" id="fig-e947f67110634813a63e7d1c3e04ccec-element-74">
    <text x="18.63" y="54.91" text-anchor="end" dy="0.35em" id="fig-e947f67110634813a63e7d1c3e04ccec-element-75">200</text>
    <text x="18.63" y="45.33" text-anchor="end" dy="0.35em" id="fig-e947f67110634813a63e7d1c3e04ccec-element-76">300</text>
    <text x="18.63" y="35.75" text-anchor="end" dy="0.35em" id="fig-e947f67110634813a63e7d1c3e04ccec-element-77">400</text>
    <text x="18.63" y="26.17" text-anchor="end" dy="0.35em" id="fig-e947f67110634813a63e7d1c3e04ccec-element-78">500</text>
    <text x="18.63" y="16.58" text-anchor="end" dy="0.35em" id="fig-e947f67110634813a63e7d1c3e04ccec-element-79">600</text>
    <text x="18.63" y="7" text-anchor="end" dy="0.35em" id="fig-e947f67110634813a63e7d1c3e04ccec-element-80">700</text>
  </g>
</g>
<defs>
<clipPath id="fig-e947f67110634813a63e7d1c3e04ccec-element-18">
  <path d="M19.63,5 L 183.85 5 183.85 56.92 19.63 56.92" />
</clipPath
></defs>
</svg>
