<?xml version="1.0" encoding="UTF-8"?>
<svg xmlns="http://www.w3.org/2000/svg"
     xmlns:xlink="http://www.w3.org/1999/xlink"
     xmlns:gadfly="http://www.gadflyjl.org/ns"
     version="1.2"
     width="203.2mm" height="76.2mm" viewBox="0 0 203.2 76.2"
     stroke="none"
     fill="#000000"
     stroke-width="0.3"
     font-size="3.88"
>
<g class="plotroot xscalable yscalable" id="fig-299ab32989fe4e60a15e272e94b222f4-element-1">
  <g font-size="3.88" font-family="'PT Sans','Helvetica Neue','Helvetica',sans-serif" fill="#564A55" stroke="#000000" stroke-opacity="0.000" id="fig-299ab32989fe4e60a15e272e94b222f4-element-2">
    <text x="101.74" y="64.59" text-anchor="middle" dy="0.6em">Date</text>
  </g>
  <g class="guide xlabels" font-size="2.82" font-family="'PT Sans Caption','Helvetica Neue','Helvetica',sans-serif" fill="#6C606B" id="fig-299ab32989fe4e60a15e272e94b222f4-element-3">
    <text x="22.33" y="57.92" text-anchor="middle" dy="0.6em">Apr</text>
    <text x="32.73" y="57.92" text-anchor="middle" dy="0.6em">May</text>
    <text x="43.48" y="57.92" text-anchor="middle" dy="0.6em">Jun</text>
    <text x="53.88" y="57.92" text-anchor="middle" dy="0.6em">Jul</text>
    <text x="64.64" y="57.92" text-anchor="middle" dy="0.6em">Aug</text>
    <text x="75.39" y="57.92" text-anchor="middle" dy="0.6em">Sep</text>
    <text x="85.79" y="57.92" text-anchor="middle" dy="0.6em">Oct</text>
    <text x="96.54" y="57.92" text-anchor="middle" dy="0.6em">Nov</text>
    <text x="106.94" y="57.92" text-anchor="middle" dy="0.6em">Dec</text>
    <text x="117.7" y="57.92" text-anchor="middle" dy="0.6em">Jan 2015</text>
    <text x="128.45" y="57.92" text-anchor="middle" dy="0.6em">Feb</text>
    <text x="138.16" y="57.92" text-anchor="middle" dy="0.6em">Mar</text>
    <text x="148.91" y="57.92" text-anchor="middle" dy="0.6em">Apr</text>
    <text x="159.31" y="57.92" text-anchor="middle" dy="0.6em">May</text>
    <text x="170.06" y="57.92" text-anchor="middle" dy="0.6em">Jun</text>
    <text x="180.47" y="57.92" text-anchor="middle" dy="0.6em">Jul</text>
  </g>
  <g class="guide colorkey" id="fig-299ab32989fe4e60a15e272e94b222f4-element-4">
    <g fill="#4C404B" font-size="2.82" font-family="'PT Sans','Helvetica Neue','Helvetica',sans-serif" id="fig-299ab32989fe4e60a15e272e94b222f4-element-5">
      <text x="187.67" y="29.14" dy="0.35em" id="fig-299ab32989fe4e60a15e272e94b222f4-element-6" class="color_0.2">0.2</text>
      <text x="187.67" y="32.77" dy="0.35em" id="fig-299ab32989fe4e60a15e272e94b222f4-element-7" class="color_0.3">0.3</text>
      <text x="187.67" y="36.4" dy="0.35em" id="fig-299ab32989fe4e60a15e272e94b222f4-element-8" class="color_0.4">0.4</text>
    </g>
    <g stroke="#000000" stroke-opacity="0.000" id="fig-299ab32989fe4e60a15e272e94b222f4-element-9">
      <rect x="184.85" y="28.24" width="1.81" height="1.81" id="fig-299ab32989fe4e60a15e272e94b222f4-element-10" fill="#00BFFF" class="color_0.2"/>
      <rect x="184.85" y="31.86" width="1.81" height="1.81" id="fig-299ab32989fe4e60a15e272e94b222f4-element-11" fill="#D4CA3A" class="color_0.3"/>
      <rect x="184.85" y="35.49" width="1.81" height="1.81" id="fig-299ab32989fe4e60a15e272e94b222f4-element-12" fill="#FF5EA0" class="color_0.4"/>
    </g>
    <g fill="#362A35" font-size="3.88" font-family="'PT Sans','Helvetica Neue','Helvetica',sans-serif" stroke="#000000" stroke-opacity="0.000" id="fig-299ab32989fe4e60a15e272e94b222f4-element-13">
      <text x="184.85" y="25.32" id="fig-299ab32989fe4e60a15e272e94b222f4-element-14">Julia ver.</text>
    </g>
  </g>
  <g font-size="3.88" font-family="'PT Sans','Helvetica Neue','Helvetica',sans-serif" fill="#564A55" stroke="#000000" stroke-opacity="0.000" id="fig-299ab32989fe4e60a15e272e94b222f4-element-15">
    <text x="8.81" y="28.96" text-anchor="middle" dy="0.35em" transform="rotate(-90, 8.81, 30.96)" id="fig-299ab32989fe4e60a15e272e94b222f4-element-16">Number of Tagged Packages</text>
  </g>
  <g clip-path="url(#fig-299ab32989fe4e60a15e272e94b222f4-element-18)" id="fig-299ab32989fe4e60a15e272e94b222f4-element-17">
    <g pointer-events="visible" opacity="1" fill="#000000" fill-opacity="0.000" stroke="#000000" stroke-opacity="0.000" class="guide background" id="fig-299ab32989fe4e60a15e272e94b222f4-element-19">
      <rect x="19.63" y="5" width="164.22" height="51.92" id="fig-299ab32989fe4e60a15e272e94b222f4-element-20"/>
    </g>
    <g class="guide ygridlines xfixed" stroke-dasharray="0.5,0.5" stroke-width="0.2" stroke="#D0D0E0" id="fig-299ab32989fe4e60a15e272e94b222f4-element-21">
      <path fill="none" d="M19.63,54.91 L 183.85 54.91" id="fig-299ab32989fe4e60a15e272e94b222f4-element-22"/>
      <path fill="none" d="M19.63,45.33 L 183.85 45.33" id="fig-299ab32989fe4e60a15e272e94b222f4-element-23"/>
      <path fill="none" d="M19.63,35.75 L 183.85 35.75" id="fig-299ab32989fe4e60a15e272e94b222f4-element-24"/>
      <path fill="none" d="M19.63,26.17 L 183.85 26.17" id="fig-299ab32989fe4e60a15e272e94b222f4-element-25"/>
      <path fill="none" d="M19.63,16.58 L 183.85 16.58" id="fig-299ab32989fe4e60a15e272e94b222f4-element-26"/>
      <path fill="none" d="M19.63,7 L 183.85 7" id="fig-299ab32989fe4e60a15e272e94b222f4-element-27"/>
    </g>
    <g class="guide xgridlines yfixed" stroke-dasharray="0.5,0.5" stroke-width="0.2" stroke="#D0D0E0" id="fig-299ab32989fe4e60a15e272e94b222f4-element-28">
      <path fill="none" d="M22.33,5 L 22.33 56.92" id="fig-299ab32989fe4e60a15e272e94b222f4-element-29"/>
      <path fill="none" d="M32.73,5 L 32.73 56.92" id="fig-299ab32989fe4e60a15e272e94b222f4-element-30"/>
      <path fill="none" d="M43.48,5 L 43.48 56.92" id="fig-299ab32989fe4e60a15e272e94b222f4-element-31"/>
      <path fill="none" d="M53.88,5 L 53.88 56.92" id="fig-299ab32989fe4e60a15e272e94b222f4-element-32"/>
      <path fill="none" d="M64.64,5 L 64.64 56.92" id="fig-299ab32989fe4e60a15e272e94b222f4-element-33"/>
      <path fill="none" d="M75.39,5 L 75.39 56.92" id="fig-299ab32989fe4e60a15e272e94b222f4-element-34"/>
      <path fill="none" d="M85.79,5 L 85.79 56.92" id="fig-299ab32989fe4e60a15e272e94b222f4-element-35"/>
      <path fill="none" d="M96.54,5 L 96.54 56.92" id="fig-299ab32989fe4e60a15e272e94b222f4-element-36"/>
      <path fill="none" d="M106.94,5 L 106.94 56.92" id="fig-299ab32989fe4e60a15e272e94b222f4-element-37"/>
      <path fill="none" d="M117.7,5 L 117.7 56.92" id="fig-299ab32989fe4e60a15e272e94b222f4-element-38"/>
      <path fill="none" d="M128.45,5 L 128.45 56.92" id="fig-299ab32989fe4e60a15e272e94b222f4-element-39"/>
      <path fill="none" d="M138.16,5 L 138.16 56.92" id="fig-299ab32989fe4e60a15e272e94b222f4-element-40"/>
      <path fill="none" d="M148.91,5 L 148.91 56.92" id="fig-299ab32989fe4e60a15e272e94b222f4-element-41"/>
      <path fill="none" d="M159.31,5 L 159.31 56.92" id="fig-299ab32989fe4e60a15e272e94b222f4-element-42"/>
      <path fill="none" d="M170.06,5 L 170.06 56.92" id="fig-299ab32989fe4e60a15e272e94b222f4-element-43"/>
      <path fill="none" d="M180.47,5 L 180.47 56.92" id="fig-299ab32989fe4e60a15e272e94b222f4-element-44"/>
    </g>
    <g class="plotpanel" id="fig-299ab32989fe4e60a15e272e94b222f4-element-45">
      <g class="geometry" stroke="#000000" stroke-opacity="0.000" fill="#4C404B" font-size="2.82" font-family="'PT Sans Caption','Helvetica Neue','Helvetica',sans-serif" id="fig-299ab32989fe4e60a15e272e94b222f4-element-46">
        <text x="76.16" y="52.46" text-anchor="middle" dy="0.35em" id="fig-299ab32989fe4e60a15e272e94b222f4-element-47" visibility="visible">v0.3.0</text>
        <text x="87.26" y="52.46" text-anchor="middle" dy="0.35em" id="fig-299ab32989fe4e60a15e272e94b222f4-element-48" visibility="visible">v0.3.1</text>
        <text x="97.67" y="52.46" text-anchor="middle" dy="0.35em" id="fig-299ab32989fe4e60a15e272e94b222f4-element-49" visibility="visible">v0.3.2</text>
        <text x="109.11" y="52.46" text-anchor="middle" dy="0.35em" id="fig-299ab32989fe4e60a15e272e94b222f4-element-50" visibility="visible">v0.3.3</text>
        <text x="116.61" y="52.46" text-anchor="middle" dy="0.35em" id="fig-299ab32989fe4e60a15e272e94b222f4-element-51" visibility="visible"></text>
        <text x="125.06" y="52.46" text-anchor="middle" dy="0.35em" id="fig-299ab32989fe4e60a15e272e94b222f4-element-52" visibility="visible">v0.3.5</text>
        <text x="138.94" y="52.46" text-anchor="middle" dy="0.35em" id="fig-299ab32989fe4e60a15e272e94b222f4-element-53" visibility="visible">v0.3.6</text>
        <text x="150.73" y="52.46" text-anchor="middle" dy="0.35em" id="fig-299ab32989fe4e60a15e272e94b222f4-element-54" visibility="visible">v0.3.7</text>
        <text x="163.91" y="52.46" text-anchor="middle" dy="0.35em" id="fig-299ab32989fe4e60a15e272e94b222f4-element-55" visibility="visible">v0.3.8</text>
        <text x="174.31" y="52.46" text-anchor="middle" dy="0.35em" id="fig-299ab32989fe4e60a15e272e94b222f4-element-56" visibility="visible">v0.3.9</text>
      </g>
      <g class="yfixed" stroke-width="0.26" stroke="#333333" id="fig-299ab32989fe4e60a15e272e94b222f4-element-57">
        <path fill="none" d="M71.22,5 L 71.22 56.92" id="fig-299ab32989fe4e60a15e272e94b222f4-element-58"/>
        <path fill="none" d="M82.32,5 L 82.32 56.92" id="fig-299ab32989fe4e60a15e272e94b222f4-element-59"/>
        <path fill="none" d="M92.73,5 L 92.73 56.92" id="fig-299ab32989fe4e60a15e272e94b222f4-element-60"/>
        <path fill="none" d="M104.17,5 L 104.17 56.92" id="fig-299ab32989fe4e60a15e272e94b222f4-element-61"/>
        <path fill="none" d="M115.61,5 L 115.61 56.92" id="fig-299ab32989fe4e60a15e272e94b222f4-element-62"/>
        <path fill="none" d="M120.12,5 L 120.12 56.92" id="fig-299ab32989fe4e60a15e272e94b222f4-element-63"/>
        <path fill="none" d="M134,5 L 134 56.92" id="fig-299ab32989fe4e60a15e272e94b222f4-element-64"/>
        <path fill="none" d="M145.79,5 L 145.79 56.92" id="fig-299ab32989fe4e60a15e272e94b222f4-element-65"/>
        <path fill="none" d="M158.97,5 L 158.97 56.92" id="fig-299ab32989fe4e60a15e272e94b222f4-element-66"/>
        <path fill="none" d="M169.37,5 L 169.37 56.92" id="fig-299ab32989fe4e60a15e272e94b222f4-element-67"/>
      </g>
      <g stroke-width="0.79" fill="#000000" fill-opacity="0.000" class="geometry color_0.4" stroke="#FF5EA0" id="fig-299ab32989fe4e60a15e272e94b222f4-element-68">
        <path fill="none" d="M68.8,39.2 L 69.14 38.91 69.49 38.82 69.84 38.72 70.18 38.72 70.53 38.72 71.22 38.43 71.57 38.43 71.92 38.34 72.26 38.34 72.61 38.34 72.96 38.05 73.31 37.86 73.65 37.86 74.35 37.67 74.69 37.38 75.39 37.19 75.73 37.19 76.08 37.19 77.47 37.19 78.51 36.61 78.85 36.52 79.2 36.42 79.55 36.23 79.89 36.23 80.24 36.23 80.59 35.46 80.93 35.46 81.28 35.46 81.98 35.37 82.32 35.37 82.67 35.27 83.02 35.27 83.36 35.27 83.71 35.17 84.06 35.17 84.75 35.27 85.1 35.17 85.44 35.17 85.79 34.98 86.14 34.79 86.48 34.79 86.83 34.79 87.18 34.6 88.22 34.41 88.56 34.41 88.91 34.22 89.26 34.12 89.6 34.12 89.95 34.12 90.3 33.93 90.65 33.93 90.99 33.83 91.34 33.74 91.69 33.74 92.03 33.74 92.38 33.74 92.73 33.54 93.07 33.35 93.42 33.35 93.77 33.35 94.11 33.26 94.46 33.26 94.81 33.16 95.15 33.16 95.5 32.97 95.85 32.87 96.19 32.87 96.54 32.78 96.89 32.78 97.23 32.78 97.58 32.78 97.93 32.68 98.27 32.59 99.32 32.59 101.05 32.01 101.4 31.82 101.74 31.82 102.09 31.72 102.44 31.72 102.78 31.44 103.13 31.44 104.52 30.96 104.86 30.96 106.6 30.86 107.29 30.86 107.64 30.67 107.99 30.57 108.33 30.57 108.68 30.57 109.03 30.38 109.37 30.19 110.41 30.1 110.76 30 111.45 29.62 111.8 29.62 112.15 29.62 113.19 29.62 113.88 29.42 114.92 29.23 116.31 29.04 117 28.66 118.04 28.47 120.47 27.8 121.86 27.12 122.2 26.93 122.55 26.93 122.9 26.36 123.24 26.36 123.59 26.36 124.29 26.26 124.63 26.17 124.98 26.17 125.33 25.88 125.67 25.78 126.02 25.78 126.37 25.78 127.06 25.5 127.41 25.21 127.75 25.11 129.14 24.35 129.49 24.35 129.83 24.63 130.53 24.35 131.22 24.06 131.57 24.06 132.61 23.87 134.34 23.87 136.08 23.77 137.81 22.91 138.16 22.91 138.5 22.91 138.85 22.72 139.2 22.72 139.89 22.52 140.58 22.52 141.97 22.43 142.32 22.24 142.67 22.24 143.01 22.24 143.36 22.05 143.71 22.14 144.05 21.95 148.21 21.57 148.91 21.57 149.25 21.28 149.95 21.28 151.34 21.18 152.03 21.09 152.72 20.8 154.11 20.61 154.8 20.42 155.15 20.13 155.84 19.65 156.19 19.65 156.54 19.55 156.88 19.36 157.23 19.36 157.58 19.27 158.27 19.17 158.62 18.98 159.31 18.98 160.01 18.79 160.35 18.5 160.7 18.4 161.39 18.21 161.74 18.12 163.47 17.73 164.86 17.54 165.21 17.35 167.98 17.06 168.33 17.06 168.68 17.06 169.72 16.68 170.06 16.58 170.41 16.39 171.1 16.2 171.8 16.2 172.49 16.01 175.61 15.34 176.65 15.34 177 15.34 177.35 15.15 177.69 15.15 178.04 14.86 178.39 14.86 178.73 14.86 179.08 14.76 180.12 14.67 180.81 14.47 181.51 14.47 181.85 14.28" id="fig-299ab32989fe4e60a15e272e94b222f4-element-69"/>
      </g>
      <g stroke-width="0.79" fill="#000000" fill-opacity="0.000" class="geometry color_0.3" stroke="#D4CA3A" id="fig-299ab32989fe4e60a15e272e94b222f4-element-70">
        <path fill="none" d="M21.63,45.72 L 21.98 45.72 22.33 45.62 22.67 45.62 23.02 45.62 23.37 45.62 23.71 45.62 24.06 45.52 24.75 45.52 25.1 45.43 25.79 45.33 26.49 45.14 26.83 45.14 27.53 45.14 27.87 45.04 30.3 44.66 31.34 44.66 32.04 44.66 34.46 44.57 34.81 44.37 35.16 44.28 35.5 44.28 35.85 44.28 36.2 44.28 36.54 44.28 36.89 44.28 37.24 44.28 37.58 44.28 37.93 44.28 38.28 43.99 38.97 43.89 39.32 43.89 39.67 43.89 40.01 43.7 40.36 43.7 40.71 43.7 41.05 43.61 41.4 43.61 41.75 43.61 42.09 43.61 42.44 43.61 42.79 43.51 43.13 43.51 43.48 47.34 43.83 43.42 44.17 43.32 44.52 43.22 46.6 42.65 46.95 42.55 47.3 42.46 47.64 42.36 47.99 42.17 48.34 42.17 48.68 41.98 49.03 41.98 49.38 41.88 49.72 41.79 50.42 41.79 50.76 41.59 51.11 41.59 51.46 41.59 51.8 41.59 52.15 41.59 52.5 41.31 52.84 41.31 53.54 41.21 53.88 41.02 54.23 40.92 54.58 40.83 54.92 40.83 55.27 40.64 55.97 40.54 56.31 40.25 56.66 40.25 57.01 40.25 57.7 39.77 58.39 39.49 58.74 39.49 59.09 39.39 59.43 39.39 60.47 39.29 60.82 39.29 61.17 39.2 61.51 39.2 61.86 39.2 62.21 39.1 62.55 39.01 62.9 38.91 63.59 38.91 63.94 38.91 64.64 38.91 64.98 38.82 65.33 38.53 65.68 38.53 66.37 38.43 66.72 38.43 67.06 38.24 67.41 38.14 67.76 38.05 68.1 37.95 68.45 37.86 68.8 37.67 69.14 37.67 69.49 37.57 69.84 37.47 70.18 37.47 70.53 37.47 71.22 37.19 71.57 37.19 71.92 37.09 72.26 37.09 72.61 37.09 72.96 36.8 73.31 36.71 73.65 36.61 74.35 37.76 74.69 37.47 75.39 37.28 75.73 37.28 76.08 37.28 77.47 37.28 78.51 36.71 78.85 36.61 79.2 36.52 79.55 36.32 79.89 36.32 80.24 36.32 80.59 35.56 80.93 35.56 81.28 35.56 81.98 35.56 82.32 35.46 82.67 35.37 83.02 35.37 83.36 35.37 83.71 35.27 84.06 35.27 84.75 35.37 85.1 35.27 85.44 35.27 85.79 35.08 86.14 33.16 86.48 34.89 86.83 34.89 87.18 34.69 88.22 34.5 88.56 34.5 88.91 34.31 89.26 34.22 89.6 34.22 89.95 34.22 90.3 34.02 90.65 34.02 90.99 33.93 91.34 33.83 91.69 33.83 92.03 33.83 92.38 33.83 92.73 33.74 93.07 33.54 93.42 33.54 93.77 33.54 94.11 33.45 94.46 33.45 94.81 33.35 95.15 33.35 95.5 33.16 95.85 33.07 96.19 33.07 96.54 32.97 96.89 32.97 97.23 32.97 97.58 32.87 97.93 32.87 98.27 32.78 99.32 32.78 101.05 32.3 101.4 32.11 101.74 32.11 102.09 32.01 102.44 32.01 102.78 31.72 103.13 31.72 104.52 31.24 104.86 31.24 106.6 31.15 107.29 31.15 107.64 31.05 107.99 30.96 108.33 30.96 108.68 30.96 109.03 30.77 109.37 30.67 110.41 30.48 110.76 30.38 111.45 30.1 111.8 30 112.15 30 113.19 30 113.88 29.81 114.92 29.62 116.31 29.42 117 29.14 118.04 28.75 120.47 28.18 121.86 27.51 122.2 27.32 122.55 27.32 122.9 26.84 123.24 26.84 123.59 26.84 124.29 26.84 124.63 26.65 124.98 26.65 125.33 26.36 125.67 26.26 126.02 26.26 126.37 26.26 127.06 25.97 127.41 25.78 127.75 25.69 129.14 24.92 129.49 25.11 129.83 25.11 130.53 24.82 131.22 24.54 131.57 24.54 132.61 24.35 134.34 24.35 136.08 23.77 137.81 23.39 138.16 23.39 138.5 23.39 138.85 23.2 139.2 23.2 139.89 23.2 140.58 23.2 141.97 23 142.32 22.81 142.67 22.72 143.01 22.72 143.36 22.52 143.71 22.62 144.05 22.43 148.21 22.33 148.91 22.33 149.25 22.05 149.95 22.05 151.34 21.95 152.03 21.95 152.72 21.66 154.11 21.66 154.8 21.47 155.15 21.37 155.84 20.9 156.19 20.9 156.54 20.8 156.88 20.51 157.23 20.51 157.58 20.42 158.27 20.32 158.62 20.22 159.31 20.22 160.01 20.03 160.35 19.75 160.7 19.65 161.39 19.46 161.74 19.36 163.47 18.98 164.86 18.79 165.21 18.6 167.98 18.21 168.33 18.21 168.68 18.21 169.72 17.92 170.06 17.83 170.41 17.73 171.1 17.54 171.8 17.54 172.49 17.45 175.61 16.97 176.65 17.06 177 17.06 177.35 16.87 177.69 16.87 178.04 16.68 178.39 16.68 178.73 16.68 179.08 16.58 180.12 16.58 180.81 16.39 181.51 16.49 181.85 16.3" id="fig-299ab32989fe4e60a15e272e94b222f4-element-71"/>
      </g>
      <g stroke-width="0.79" fill="#000000" fill-opacity="0.000" class="geometry color_0.2" stroke="#00BFFF" id="fig-299ab32989fe4e60a15e272e94b222f4-element-72">
        <path fill="none" d="M21.63,46.77 L 21.98 46.77 22.33 46.67 22.67 46.67 23.02 46.67 23.37 46.67 23.71 46.67 24.06 46.67 24.75 46.67 25.1 46.67 25.79 46.58 26.49 46.48 26.83 46.48 27.53 46.39 27.87 46.29 30.3 46.1 31.34 46.1 32.04 46.1 34.46 46 34.81 45.91 35.16 45.91 35.5 45.91 35.85 45.91 36.2 45.91 36.54 45.91 36.89 45.91 37.24 45.91 37.58 45.91 37.93 45.62 38.28 45.62 38.97 45.52 39.32 45.52 39.67 45.52 40.01 45.43 40.36 46.19 40.71 45.72 41.05 45.72 41.4 45.72 41.75 45.72 42.09 45.72 42.44 45.72 42.79 45.72 43.13 45.72 43.48 45.62 43.83 45.62 44.17 45.52 44.52 45.52 46.6 45.04 46.95 45.04 47.3 44.95 47.64 44.85 47.99 44.66 48.34 44.66 48.68 44.66 49.03 44.66 49.38 44.66 49.72 44.57 50.42 44.57 50.76 44.37 51.11 44.37 51.46 44.37 51.8 44.37 52.15 44.37 52.5 44.09 52.84 44.09 53.54 43.99 53.88 43.8 54.23 43.7 54.58 43.61 54.92 43.61 55.27 43.61 55.97 43.42 56.31 43.32 56.66 43.22 57.01 43.22 57.7 43.03 58.39 42.84 58.74 42.84 59.09 42.84 59.43 42.84 60.47 42.84 60.82 42.84 61.17 42.74 61.51 42.74 61.86 42.74 62.21 42.65 62.55 42.65 62.9 42.65 63.59 42.55 63.94 42.55 64.64 42.55 64.98 42.55 65.33 42.27 65.68 42.27 66.37 42.46 66.72 42.46 67.06 42.27 67.41 42.17 67.76 42.17 68.1 41.98 68.45 41.98" id="fig-299ab32989fe4e60a15e272e94b222f4-element-73"/>
      </g>
    </g>
  </g>
  <g class="guide ylabels" font-size="2.82" font-family="'PT Sans Caption','Helvetica Neue','Helvetica',sans-serif" fill="#6C606B" id="fig-299ab32989fe4e60a15e272e94b222f4-element-74">
    <text x="18.63" y="54.91" text-anchor="end" dy="0.35em" id="fig-299ab32989fe4e60a15e272e94b222f4-element-75">200</text>
    <text x="18.63" y="45.33" text-anchor="end" dy="0.35em" id="fig-299ab32989fe4e60a15e272e94b222f4-element-76">300</text>
    <text x="18.63" y="35.75" text-anchor="end" dy="0.35em" id="fig-299ab32989fe4e60a15e272e94b222f4-element-77">400</text>
    <text x="18.63" y="26.17" text-anchor="end" dy="0.35em" id="fig-299ab32989fe4e60a15e272e94b222f4-element-78">500</text>
    <text x="18.63" y="16.58" text-anchor="end" dy="0.35em" id="fig-299ab32989fe4e60a15e272e94b222f4-element-79">600</text>
    <text x="18.63" y="7" text-anchor="end" dy="0.35em" id="fig-299ab32989fe4e60a15e272e94b222f4-element-80">700</text>
  </g>
</g>
<defs>
<clipPath id="fig-299ab32989fe4e60a15e272e94b222f4-element-18">
  <path d="M19.63,5 L 183.85 5 183.85 56.92 19.63 56.92" />
</clipPath
></defs>
</svg>
