<?xml version="1.0" encoding="UTF-8"?>
<svg xmlns="http://www.w3.org/2000/svg"
     xmlns:xlink="http://www.w3.org/1999/xlink"
     xmlns:gadfly="http://www.gadflyjl.org/ns"
     version="1.2"
     width="203.2mm" height="76.2mm" viewBox="0 0 203.2 76.2"
     stroke="none"
     fill="#000000"
     stroke-width="0.3"
     font-size="3.88"
>
<g class="plotroot xscalable yscalable" id="fig-c8b7e035f6264745914e79b405b41ab8-element-1">
  <g font-size="3.88" font-family="'PT Sans','Helvetica Neue','Helvetica',sans-serif" fill="#564A55" stroke="none" id="fig-c8b7e035f6264745914e79b405b41ab8-element-2">
    <text x="101.74" y="68.2" text-anchor="middle">Date</text>
  </g>
  <g class="guide xlabels" font-size="2.82" font-family="'PT Sans Caption','Helvetica Neue','Helvetica',sans-serif" fill="#6C606B" id="fig-c8b7e035f6264745914e79b405b41ab8-element-3">
    <text x="22.75" y="62.59" text-anchor="middle">Apr</text>
    <text x="41.49" y="62.59" text-anchor="middle">May</text>
    <text x="60.84" y="62.59" text-anchor="middle">June</text>
    <text x="79.58" y="62.59" text-anchor="middle">July</text>
    <text x="98.93" y="62.59" text-anchor="middle">Aug</text>
    <text x="118.29" y="62.59" text-anchor="middle">Sept</text>
    <text x="137.02" y="62.59" text-anchor="middle">Oct</text>
    <text x="156.38" y="62.59" text-anchor="middle">Nev</text>
    <text x="175.11" y="62.59" text-anchor="middle">Dec</text>
  </g>
  <g class="guide colorkey" id="fig-c8b7e035f6264745914e79b405b41ab8-element-4">
    <g fill="#4C404B" font-size="2.82" font-family="'PT Sans','Helvetica Neue','Helvetica',sans-serif" id="fig-c8b7e035f6264745914e79b405b41ab8-element-5">
      <text x="187.67" y="30.14" dy="0.35em" id="fig-c8b7e035f6264745914e79b405b41ab8-element-6" class="color_0.2">0.2</text>
      <text x="187.67" y="33.77" dy="0.35em" id="fig-c8b7e035f6264745914e79b405b41ab8-element-7" class="color_0.3">0.3</text>
      <text x="187.67" y="37.4" dy="0.35em" id="fig-c8b7e035f6264745914e79b405b41ab8-element-8" class="color_0.4">0.4</text>
    </g>
    <g stroke="none" id="fig-c8b7e035f6264745914e79b405b41ab8-element-9">
      <rect x="184.85" y="29.24" width="1.81" height="1.81" id="fig-c8b7e035f6264745914e79b405b41ab8-element-10" fill="#00BFFF" class="color_0.2"/>
      <rect x="184.85" y="32.86" width="1.81" height="1.81" id="fig-c8b7e035f6264745914e79b405b41ab8-element-11" fill="#D4CA3A" class="color_0.3"/>
      <rect x="184.85" y="36.49" width="1.81" height="1.81" id="fig-c8b7e035f6264745914e79b405b41ab8-element-12" fill="#FF5EA0" class="color_0.4"/>
    </g>
    <g fill="#362A35" font-size="3.88" font-family="'PT Sans','Helvetica Neue','Helvetica',sans-serif" stroke="none" id="fig-c8b7e035f6264745914e79b405b41ab8-element-13">
      <text x="184.85" y="26.32" id="fig-c8b7e035f6264745914e79b405b41ab8-element-14">Julia ver.</text>
    </g>
  </g>
  <g font-size="3.88" font-family="'PT Sans','Helvetica Neue','Helvetica',sans-serif" fill="#564A55" stroke="none" id="fig-c8b7e035f6264745914e79b405b41ab8-element-15">
    <text x="8.81" y="29.96" text-anchor="middle" dy="0.35em" transform="rotate(-90, 8.81, 31.96)" id="fig-c8b7e035f6264745914e79b405b41ab8-element-16">Number of Tagged Packages</text>
  </g>
  <g clip-path="url(#fig-c8b7e035f6264745914e79b405b41ab8-element-18)" id="fig-c8b7e035f6264745914e79b405b41ab8-element-17">
    <g pointer-events="visible" opacity="1" fill="none" stroke="none" class="guide background" id="fig-c8b7e035f6264745914e79b405b41ab8-element-19">
      <rect x="19.63" y="5" width="164.22" height="53.91" id="fig-c8b7e035f6264745914e79b405b41ab8-element-20"/>
    </g>
    <g class="guide ygridlines xfixed" stroke-dasharray="0.5,0.5" stroke-width="0.2" stroke="#D0D0E0" id="fig-c8b7e035f6264745914e79b405b41ab8-element-21">
      <path fill="none" d="M19.63,56.91 L 183.85 56.91" id="fig-c8b7e035f6264745914e79b405b41ab8-element-22"/>
      <path fill="none" d="M19.63,44.44 L 183.85 44.44" id="fig-c8b7e035f6264745914e79b405b41ab8-element-23"/>
      <path fill="none" d="M19.63,31.96 L 183.85 31.96" id="fig-c8b7e035f6264745914e79b405b41ab8-element-24"/>
      <path fill="none" d="M19.63,19.48 L 183.85 19.48" id="fig-c8b7e035f6264745914e79b405b41ab8-element-25"/>
      <path fill="none" d="M19.63,7 L 183.85 7" id="fig-c8b7e035f6264745914e79b405b41ab8-element-26"/>
    </g>
    <g class="guide xgridlines yfixed" stroke-dasharray="0.5,0.5" stroke-width="0.2" stroke="#D0D0E0" id="fig-c8b7e035f6264745914e79b405b41ab8-element-27">
      <path fill="none" d="M22.75,5 L 22.75 58.91" id="fig-c8b7e035f6264745914e79b405b41ab8-element-28"/>
      <path fill="none" d="M41.49,5 L 41.49 58.91" id="fig-c8b7e035f6264745914e79b405b41ab8-element-29"/>
      <path fill="none" d="M60.84,5 L 60.84 58.91" id="fig-c8b7e035f6264745914e79b405b41ab8-element-30"/>
      <path fill="none" d="M79.58,5 L 79.58 58.91" id="fig-c8b7e035f6264745914e79b405b41ab8-element-31"/>
      <path fill="none" d="M98.93,5 L 98.93 58.91" id="fig-c8b7e035f6264745914e79b405b41ab8-element-32"/>
      <path fill="none" d="M118.29,5 L 118.29 58.91" id="fig-c8b7e035f6264745914e79b405b41ab8-element-33"/>
      <path fill="none" d="M137.02,5 L 137.02 58.91" id="fig-c8b7e035f6264745914e79b405b41ab8-element-34"/>
      <path fill="none" d="M156.38,5 L 156.38 58.91" id="fig-c8b7e035f6264745914e79b405b41ab8-element-35"/>
      <path fill="none" d="M175.11,5 L 175.11 58.91" id="fig-c8b7e035f6264745914e79b405b41ab8-element-36"/>
    </g>
    <g class="plotpanel" id="fig-c8b7e035f6264745914e79b405b41ab8-element-37">
      <g stroke-width="0.79" fill="none" class="geometry color_0.4" stroke="#FF5EA0" id="fig-c8b7e035f6264745914e79b405b41ab8-element-38">
        <path fill="none" d="M106.43,28.46 L 107.05 27.71 107.67 27.47 108.3 27.22 108.92 27.22 109.55 27.22 110.8 26.47 111.42 26.47 112.05 26.22 112.67 26.22 113.29 26.22 113.92 25.47 114.54 24.97 115.17 24.97 116.42 24.47 117.04 23.72 118.29 23.22 118.91 23.22 119.54 23.22 122.04 23.22 123.91 21.72 124.53 21.48 125.16 21.23 125.78 20.73 126.41 20.73 127.03 20.73 127.66 18.73 128.28 18.73 128.91 18.73 130.15 18.48 130.78 18.48 131.4 18.23 132.03 18.23 132.65 18.23 133.28 17.98 133.9 17.98 135.15 18.23 135.77 17.98 136.4 17.98 137.02 17.48 137.65 16.98 138.27 16.98 138.9 16.98 139.52 16.48 141.39 15.98 142.02 15.98 142.64 15.49 143.27 15.24 143.89 15.24 144.52 15.24 145.14 14.74 145.76 14.74 146.39 14.49 147.01 14.24 147.64 14.24 148.26 14.24 148.89 14.24 149.51 13.74 150.14 13.24 150.76 13.24 151.38 13.24 152.01 12.99 152.63 12.99 153.26 12.74 153.88 12.74 154.51 12.24 155.13 11.99 155.76 11.99 156.38 11.74 157 11.74 157.63 11.74 158.25 11.74 158.88 11.49 159.5 11.24 161.38 11.24 164.5 9.75 165.12 9.25 165.75 9.25 166.37 9 166.99 9 167.62 8.25 168.24 8.25 170.74 7 171.37 7 174.49 6.75 175.74 6.75 176.36 6.25 176.99 6 177.61 6 178.23 6 178.86 5.5 179.48 5 181.36 4.75 181.98 4.5" id="fig-c8b7e035f6264745914e79b405b41ab8-element-39"/>
      </g>
      <g stroke-width="0.79" fill="none" class="geometry color_0.3" stroke="#D4CA3A" id="fig-c8b7e035f6264745914e79b405b41ab8-element-40">
        <path fill="none" d="M21.5,45.43 L 22.13 45.43 22.75 45.18 23.38 45.18 24 45.18 24.63 45.18 25.25 45.18 25.88 44.94 27.12 44.94 27.75 44.69 29 44.44 30.25 43.94 30.87 43.94 32.12 43.94 32.74 43.69 37.12 42.69 38.99 42.69 40.24 42.69 44.61 42.44 45.23 41.94 45.86 41.69 46.48 41.69 47.11 41.69 47.73 41.69 48.35 41.69 48.98 41.69 49.6 41.69 50.23 41.69 50.85 41.69 51.48 40.94 52.73 40.69 53.35 40.69 53.97 40.69 54.6 40.19 55.22 40.19 55.85 40.19 56.47 39.94 57.1 39.94 57.72 39.94 58.35 39.94 58.97 39.94 59.59 39.69 60.22 39.69 60.84 49.68 61.47 39.44 62.09 39.2 62.72 38.95 66.46 37.45 67.09 37.2 67.71 36.95 68.34 36.7 68.96 36.2 69.59 36.2 70.21 35.7 70.83 35.7 71.46 35.45 72.08 35.2 73.33 35.2 73.96 34.7 74.58 34.7 75.21 34.7 75.83 34.7 76.45 34.7 77.08 33.95 77.7 33.95 78.95 33.7 79.58 33.21 80.2 32.96 80.82 32.71 81.45 32.71 82.07 32.21 83.32 31.96 83.95 31.21 84.57 31.21 85.2 31.21 86.44 29.96 87.69 29.21 88.32 29.21 88.94 28.96 89.57 28.96 91.44 28.71 92.06 28.71 92.69 28.46 93.31 28.46 93.94 28.46 94.56 28.21 95.19 27.96 95.81 27.71 97.06 27.71 97.68 27.71 98.93 27.71 99.56 27.47 100.18 26.72 100.81 26.72 102.06 26.47 102.68 26.47 103.3 25.97 103.93 25.72 104.55 25.47 105.18 25.22 105.8 24.97 106.43 24.47 107.05 24.47 107.67 24.22 108.3 23.97 108.92 23.97 109.55 23.97 110.8 23.22 111.42 23.22 112.05 22.97 112.67 22.97 113.29 22.97 113.92 22.22 114.54 21.97 115.17 21.72 116.42 24.72 117.04 23.97 118.29 23.47 118.91 23.47 119.54 23.47 122.04 23.47 123.91 21.97 124.53 21.72 125.16 21.48 125.78 20.98 126.41 20.98 127.03 20.98 127.66 18.98 128.28 18.98 128.91 18.98 130.15 18.98 130.78 18.73 131.4 18.48 132.03 18.48 132.65 18.48 133.28 18.23 133.9 18.23 135.15 18.48 135.77 18.23 136.4 18.23 137.02 17.73 137.65 12.74 138.27 17.23 138.9 17.23 139.52 16.73 141.39 16.23 142.02 16.23 142.64 15.74 143.27 15.49 143.89 15.49 144.52 15.49 145.14 14.99 145.76 14.99 146.39 14.74 147.01 14.49 147.64 14.49 148.26 14.49 148.89 14.49 149.51 14.24 150.14 13.74 150.76 13.74 151.38 13.74 152.01 13.49 152.63 13.49 153.26 13.24 153.88 13.24 154.51 12.74 155.13 12.49 155.76 12.49 156.38 12.24 157 12.24 157.63 12.24 158.25 11.99 158.88 11.99 159.5 11.74 161.38 11.74 164.5 10.49 165.12 9.99 165.75 9.99 166.37 9.75 166.99 9.75 167.62 9 168.24 9 170.74 7.75 171.37 7.75 174.49 7.5 175.74 7.5 176.36 7.25 176.99 7 177.61 7 178.23 7 178.86 6.5 179.48 6.25 181.36 5.75 181.98 5.5" id="fig-c8b7e035f6264745914e79b405b41ab8-element-41"/>
      </g>
      <g stroke-width="0.79" fill="none" class="geometry color_0.2" stroke="#00BFFF" id="fig-c8b7e035f6264745914e79b405b41ab8-element-42">
        <path fill="none" d="M21.5,48.18 L 22.13 48.18 22.75 47.93 23.38 47.93 24 47.93 24.63 47.93 25.25 47.93 25.88 47.93 27.12 47.93 27.75 47.93 29 47.68 30.25 47.43 30.87 47.43 32.12 47.18 32.74 46.93 37.12 46.43 38.99 46.43 40.24 46.43 44.61 46.18 45.23 45.93 45.86 45.93 46.48 45.93 47.11 45.93 47.73 45.93 48.35 45.93 48.98 45.93 49.6 45.93 50.23 45.93 50.85 45.18 51.48 45.18 52.73 44.94 53.35 44.94 53.97 44.94 54.6 44.69 55.22 46.68 55.85 45.43 56.47 45.43 57.1 45.43 57.72 45.43 58.35 45.43 58.97 45.43 59.59 45.43 60.22 45.43 60.84 45.18 61.47 45.18 62.09 44.94 62.72 44.94 66.46 43.69 67.09 43.69 67.71 43.44 68.34 43.19 68.96 42.69 69.59 42.69 70.21 42.69 70.83 42.69 71.46 42.69 72.08 42.44 73.33 42.44 73.96 41.94 74.58 41.94 75.21 41.94 75.83 41.94 76.45 41.94 77.08 41.19 77.7 41.19 78.95 40.94 79.58 40.44 80.2 40.19 80.82 39.94 81.45 39.94 82.07 39.94 83.32 39.44 83.95 39.2 84.57 38.95 85.2 38.95 86.44 38.45 87.69 37.95 88.32 37.95 88.94 37.95 89.57 37.95 91.44 37.95 92.06 37.95 92.69 37.7 93.31 37.7 93.94 37.7 94.56 37.45 95.19 37.45 95.81 37.45 97.06 37.2 97.68 37.2 98.93 37.2 99.56 37.2 100.18 36.45 100.81 36.45 102.06 36.95 102.68 36.95 103.3 36.45 103.93 36.2 104.55 36.2 105.18 35.7 105.8 35.7" id="fig-c8b7e035f6264745914e79b405b41ab8-element-43"/>
      </g>
    </g>
  </g>
  <g class="guide ylabels" font-size="2.82" font-family="'PT Sans Caption','Helvetica Neue','Helvetica',sans-serif" fill="#6C606B" id="fig-c8b7e035f6264745914e79b405b41ab8-element-44">
    <text x="18.63" y="56.91" text-anchor="end" dy="0.35em" id="fig-c8b7e035f6264745914e79b405b41ab8-element-45">250</text>
    <text x="18.63" y="44.44" text-anchor="end" dy="0.35em" id="fig-c8b7e035f6264745914e79b405b41ab8-element-46">300</text>
    <text x="18.63" y="31.96" text-anchor="end" dy="0.35em" id="fig-c8b7e035f6264745914e79b405b41ab8-element-47">350</text>
    <text x="18.63" y="19.48" text-anchor="end" dy="0.35em" id="fig-c8b7e035f6264745914e79b405b41ab8-element-48">400</text>
    <text x="18.63" y="7" text-anchor="end" dy="0.35em" id="fig-c8b7e035f6264745914e79b405b41ab8-element-49">450</text>
  </g>
</g>
<defs>
<clipPath id="fig-c8b7e035f6264745914e79b405b41ab8-element-18">
  <path d="M19.63,5 L 183.85 5 183.85 58.91 19.63 58.91" />
</clipPath
></defs>
</svg>
