<?xml version="1.0" encoding="UTF-8"?>
<svg xmlns="http://www.w3.org/2000/svg"
     xmlns:xlink="http://www.w3.org/1999/xlink"
     xmlns:gadfly="http://www.gadflyjl.org/ns"
     version="1.2"
     width="203.2mm" height="76.2mm" viewBox="0 0 203.2 76.2"
     stroke="none"
     fill="#000000"
     stroke-width="0.3"
     font-size="3.88"
>
<g class="plotroot xscalable yscalable" id="fig-69298e0d122f447c9eff93b85ee78521-element-1">
  <g font-size="3.88" font-family="'PT Sans','Helvetica Neue','Helvetica',sans-serif" fill="#564A55" stroke="none" id="fig-69298e0d122f447c9eff93b85ee78521-element-2">
    <text x="101.74" y="68.2" text-anchor="middle">Date</text>
  </g>
  <g class="guide xlabels" font-size="2.82" font-family="'PT Sans Caption','Helvetica Neue','Helvetica',sans-serif" fill="#6C606B" id="fig-69298e0d122f447c9eff93b85ee78521-element-3">
    <text x="22.85" y="62.59" text-anchor="middle">Apr</text>
    <text x="42.17" y="62.59" text-anchor="middle">May</text>
    <text x="62.14" y="62.59" text-anchor="middle">June</text>
    <text x="81.46" y="62.59" text-anchor="middle">July</text>
    <text x="101.42" y="62.59" text-anchor="middle">Aug</text>
    <text x="121.39" y="62.59" text-anchor="middle">Sept</text>
    <text x="140.71" y="62.59" text-anchor="middle">Oct</text>
    <text x="160.67" y="62.59" text-anchor="middle">Nev</text>
    <text x="179.99" y="62.59" text-anchor="middle">Dec</text>
  </g>
  <g class="guide colorkey" id="fig-69298e0d122f447c9eff93b85ee78521-element-4">
    <g fill="#4C404B" font-size="2.82" font-family="'PT Sans','Helvetica Neue','Helvetica',sans-serif" id="fig-69298e0d122f447c9eff93b85ee78521-element-5">
      <text x="187.67" y="30.14" dy="0.35em" id="fig-69298e0d122f447c9eff93b85ee78521-element-6" class="color_0.2">0.2</text>
      <text x="187.67" y="33.77" dy="0.35em" id="fig-69298e0d122f447c9eff93b85ee78521-element-7" class="color_0.3">0.3</text>
      <text x="187.67" y="37.4" dy="0.35em" id="fig-69298e0d122f447c9eff93b85ee78521-element-8" class="color_0.4">0.4</text>
    </g>
    <g stroke="none" id="fig-69298e0d122f447c9eff93b85ee78521-element-9">
      <rect x="184.85" y="29.24" width="1.81" height="1.81" id="fig-69298e0d122f447c9eff93b85ee78521-element-10" fill="#00BFFF" class="color_0.2"/>
      <rect x="184.85" y="32.86" width="1.81" height="1.81" id="fig-69298e0d122f447c9eff93b85ee78521-element-11" fill="#D4CA3A" class="color_0.3"/>
      <rect x="184.85" y="36.49" width="1.81" height="1.81" id="fig-69298e0d122f447c9eff93b85ee78521-element-12" fill="#FF5EA0" class="color_0.4"/>
    </g>
    <g fill="#362A35" font-size="3.88" font-family="'PT Sans','Helvetica Neue','Helvetica',sans-serif" stroke="none" id="fig-69298e0d122f447c9eff93b85ee78521-element-13">
      <text x="184.85" y="26.32" id="fig-69298e0d122f447c9eff93b85ee78521-element-14">Julia ver.</text>
    </g>
  </g>
  <g font-size="3.88" font-family="'PT Sans','Helvetica Neue','Helvetica',sans-serif" fill="#564A55" stroke="none" id="fig-69298e0d122f447c9eff93b85ee78521-element-15">
    <text x="8.81" y="29.96" text-anchor="middle" dy="0.35em" transform="rotate(-90, 8.81, 31.96)" id="fig-69298e0d122f447c9eff93b85ee78521-element-16">Number of Tagged Packages</text>
  </g>
  <g clip-path="url(#fig-69298e0d122f447c9eff93b85ee78521-element-18)" id="fig-69298e0d122f447c9eff93b85ee78521-element-17">
    <g pointer-events="visible" opacity="1" fill="none" stroke="none" class="guide background" id="fig-69298e0d122f447c9eff93b85ee78521-element-19">
      <rect x="19.63" y="5" width="164.22" height="53.91" id="fig-69298e0d122f447c9eff93b85ee78521-element-20"/>
    </g>
    <g class="guide ygridlines xfixed" stroke-dasharray="0.5,0.5" stroke-width="0.2" stroke="#D0D0E0" id="fig-69298e0d122f447c9eff93b85ee78521-element-21">
      <path fill="none" d="M19.63,56.91 L 183.85 56.91" id="fig-69298e0d122f447c9eff93b85ee78521-element-22"/>
      <path fill="none" d="M19.63,44.44 L 183.85 44.44" id="fig-69298e0d122f447c9eff93b85ee78521-element-23"/>
      <path fill="none" d="M19.63,31.96 L 183.85 31.96" id="fig-69298e0d122f447c9eff93b85ee78521-element-24"/>
      <path fill="none" d="M19.63,19.48 L 183.85 19.48" id="fig-69298e0d122f447c9eff93b85ee78521-element-25"/>
      <path fill="none" d="M19.63,7 L 183.85 7" id="fig-69298e0d122f447c9eff93b85ee78521-element-26"/>
    </g>
    <g class="guide xgridlines yfixed" stroke-dasharray="0.5,0.5" stroke-width="0.2" stroke="#D0D0E0" id="fig-69298e0d122f447c9eff93b85ee78521-element-27">
      <path fill="none" d="M22.85,5 L 22.85 58.91" id="fig-69298e0d122f447c9eff93b85ee78521-element-28"/>
      <path fill="none" d="M42.17,5 L 42.17 58.91" id="fig-69298e0d122f447c9eff93b85ee78521-element-29"/>
      <path fill="none" d="M62.14,5 L 62.14 58.91" id="fig-69298e0d122f447c9eff93b85ee78521-element-30"/>
      <path fill="none" d="M81.46,5 L 81.46 58.91" id="fig-69298e0d122f447c9eff93b85ee78521-element-31"/>
      <path fill="none" d="M101.42,5 L 101.42 58.91" id="fig-69298e0d122f447c9eff93b85ee78521-element-32"/>
      <path fill="none" d="M121.39,5 L 121.39 58.91" id="fig-69298e0d122f447c9eff93b85ee78521-element-33"/>
      <path fill="none" d="M140.71,5 L 140.71 58.91" id="fig-69298e0d122f447c9eff93b85ee78521-element-34"/>
      <path fill="none" d="M160.67,5 L 160.67 58.91" id="fig-69298e0d122f447c9eff93b85ee78521-element-35"/>
      <path fill="none" d="M179.99,5 L 179.99 58.91" id="fig-69298e0d122f447c9eff93b85ee78521-element-36"/>
    </g>
    <g class="plotpanel" id="fig-69298e0d122f447c9eff93b85ee78521-element-37">
      <g stroke-width="0.79" fill="none" class="geometry color_0.4" stroke="#FF5EA0" id="fig-69298e0d122f447c9eff93b85ee78521-element-38">
        <path fill="none" d="M109.15,28.46 L 109.79 27.71 110.44 27.47 111.08 27.22 111.73 27.22 112.37 27.22 113.66 26.47 114.3 26.47 114.95 26.22 115.59 26.22 116.23 26.22 116.88 25.47 117.52 24.97 118.17 24.97 119.45 24.47 120.1 23.72 121.39 23.22 122.03 23.22 122.67 23.22 125.25 23.22 127.18 21.72 127.83 21.48 128.47 21.23 129.11 20.73 129.76 20.73 130.4 20.73 131.05 18.73 131.69 18.73 132.33 18.73 133.62 18.48 134.27 18.48 134.91 18.23 135.55 18.23 136.2 18.23 136.84 17.98 137.49 17.98 138.77 18.23 139.42 17.98 140.06 17.98 140.71 17.48 141.35 16.98 141.99 16.98 142.64 16.98 143.28 16.48 145.21 15.98 145.86 15.98 146.5 15.49 147.15 15.24 147.79 15.24 148.43 15.24 149.08 14.74 149.72 14.74 150.37 14.49 151.01 14.24 151.65 14.24 152.3 14.24 152.94 14.24 153.59 13.74 154.23 13.24 154.87 13.24 155.52 13.24 156.16 12.99 156.81 12.99 157.45 12.74 158.09 12.74 158.74 12.24 159.38 11.99 160.03 11.99 160.67 11.74 161.31 11.74 161.96 11.74 162.6 11.74 163.25 11.49 163.89 11.24 165.82 11.24 169.04 9.75 169.69 9.25 170.33 9.25 170.97 9 171.62 9 172.26 8.25 172.91 8.25 175.48 7 176.13 7 179.35 6.75 180.63 6.75 181.28 6.25 181.92 6" id="fig-69298e0d122f447c9eff93b85ee78521-element-39"/>
      </g>
      <g stroke-width="0.79" fill="none" class="geometry color_0.3" stroke="#D4CA3A" id="fig-69298e0d122f447c9eff93b85ee78521-element-40">
        <path fill="none" d="M21.56,45.43 L 22.21 45.43 22.85 45.18 23.5 45.18 24.14 45.18 24.78 45.18 25.43 45.18 26.07 44.94 27.36 44.94 28 44.69 29.29 44.44 30.58 43.94 31.22 43.94 32.51 43.94 33.16 43.69 37.66 42.69 39.6 42.69 40.88 42.69 45.39 42.44 46.04 41.94 46.68 41.69 47.32 41.69 47.97 41.69 48.61 41.69 49.26 41.69 49.9 41.69 50.54 41.69 51.19 41.69 51.83 41.69 52.48 40.94 53.76 40.69 54.41 40.69 55.05 40.69 55.7 40.19 56.34 40.19 56.98 40.19 57.63 39.94 58.27 39.94 58.92 39.94 59.56 39.94 60.2 39.94 60.85 39.69 61.49 39.69 62.14 49.68 62.78 39.44 63.42 39.2 64.07 38.95 67.93 37.45 68.58 37.2 69.22 36.95 69.86 36.7 70.51 36.2 71.15 36.2 71.8 35.7 72.44 35.7 73.08 35.45 73.73 35.2 75.02 35.2 75.66 34.7 76.3 34.7 76.95 34.7 77.59 34.7 78.24 34.7 78.88 33.95 79.52 33.95 80.81 33.7 81.46 33.21 82.1 32.96 82.74 32.71 83.39 32.71 84.03 32.21 85.32 31.96 85.96 31.21 86.61 31.21 87.25 31.21 88.54 29.96 89.83 29.21 90.47 29.21 91.12 28.96 91.76 28.96 93.69 28.71 94.34 28.71 94.98 28.46 95.62 28.46 96.27 28.46 96.91 28.21 97.56 27.96 98.2 27.71 99.49 27.71 100.13 27.71 101.42 27.71 102.06 27.47 102.71 26.72 103.35 26.72 104.64 26.47 105.28 26.47 105.93 25.97 106.57 25.72 107.22 25.47 107.86 25.22 108.51 24.97 109.15 24.47 109.79 24.47 110.44 24.22 111.08 23.97 111.73 23.97 112.37 23.97 113.66 23.22 114.3 23.22 114.95 22.97 115.59 22.97 116.23 22.97 116.88 22.22 117.52 21.97 118.17 21.72 119.45 24.72 120.1 23.97 121.39 23.47 122.03 23.47 122.67 23.47 125.25 23.47 127.18 21.97 127.83 21.72 128.47 21.48 129.11 20.98 129.76 20.98 130.4 20.98 131.05 18.98 131.69 18.98 132.33 18.98 133.62 18.98 134.27 18.73 134.91 18.48 135.55 18.48 136.2 18.48 136.84 18.23 137.49 18.23 138.77 18.48 139.42 18.23 140.06 18.23 140.71 17.73 141.35 12.74 141.99 17.23 142.64 17.23 143.28 16.73 145.21 16.23 145.86 16.23 146.5 15.74 147.15 15.49 147.79 15.49 148.43 15.49 149.08 14.99 149.72 14.99 150.37 14.74 151.01 14.49 151.65 14.49 152.3 14.49 152.94 14.49 153.59 14.24 154.23 13.74 154.87 13.74 155.52 13.74 156.16 13.49 156.81 13.49 157.45 13.24 158.09 13.24 158.74 12.74 159.38 12.49 160.03 12.49 160.67 12.24 161.31 12.24 161.96 12.24 162.6 11.99 163.25 11.99 163.89 11.74 165.82 11.74 169.04 10.49 169.69 9.99 170.33 9.99 170.97 9.75 171.62 9.75 172.26 9 172.91 9 175.48 7.75 176.13 7.75 179.35 7.5 180.63 7.5 181.28 7.25 181.92 7" id="fig-69298e0d122f447c9eff93b85ee78521-element-41"/>
      </g>
      <g stroke-width="0.79" fill="none" class="geometry color_0.2" stroke="#00BFFF" id="fig-69298e0d122f447c9eff93b85ee78521-element-42">
        <path fill="none" d="M21.56,48.18 L 22.21 48.18 22.85 47.93 23.5 47.93 24.14 47.93 24.78 47.93 25.43 47.93 26.07 47.93 27.36 47.93 28 47.93 29.29 47.68 30.58 47.43 31.22 47.43 32.51 47.18 33.16 46.93 37.66 46.43 39.6 46.43 40.88 46.43 45.39 46.18 46.04 45.93 46.68 45.93 47.32 45.93 47.97 45.93 48.61 45.93 49.26 45.93 49.9 45.93 50.54 45.93 51.19 45.93 51.83 45.18 52.48 45.18 53.76 44.94 54.41 44.94 55.05 44.94 55.7 44.69 56.34 46.68 56.98 45.43 57.63 45.43 58.27 45.43 58.92 45.43 59.56 45.43 60.2 45.43 60.85 45.43 61.49 45.43 62.14 45.18 62.78 45.18 63.42 44.94 64.07 44.94 67.93 43.69 68.58 43.69 69.22 43.44 69.86 43.19 70.51 42.69 71.15 42.69 71.8 42.69 72.44 42.69 73.08 42.69 73.73 42.44 75.02 42.44 75.66 41.94 76.3 41.94 76.95 41.94 77.59 41.94 78.24 41.94 78.88 41.19 79.52 41.19 80.81 40.94 81.46 40.44 82.1 40.19 82.74 39.94 83.39 39.94 84.03 39.94 85.32 39.44 85.96 39.2 86.61 38.95 87.25 38.95 88.54 38.45 89.83 37.95 90.47 37.95 91.12 37.95 91.76 37.95 93.69 37.95 94.34 37.95 94.98 37.7 95.62 37.7 96.27 37.7 96.91 37.45 97.56 37.45 98.2 37.45 99.49 37.2 100.13 37.2 101.42 37.2 102.06 37.2 102.71 36.45 103.35 36.45 104.64 36.95 105.28 36.95 105.93 36.45 106.57 36.2 107.22 36.2 107.86 35.7 108.51 35.7" id="fig-69298e0d122f447c9eff93b85ee78521-element-43"/>
      </g>
    </g>
  </g>
  <g class="guide ylabels" font-size="2.82" font-family="'PT Sans Caption','Helvetica Neue','Helvetica',sans-serif" fill="#6C606B" id="fig-69298e0d122f447c9eff93b85ee78521-element-44">
    <text x="18.63" y="56.91" text-anchor="end" dy="0.35em" id="fig-69298e0d122f447c9eff93b85ee78521-element-45">250</text>
    <text x="18.63" y="44.44" text-anchor="end" dy="0.35em" id="fig-69298e0d122f447c9eff93b85ee78521-element-46">300</text>
    <text x="18.63" y="31.96" text-anchor="end" dy="0.35em" id="fig-69298e0d122f447c9eff93b85ee78521-element-47">350</text>
    <text x="18.63" y="19.48" text-anchor="end" dy="0.35em" id="fig-69298e0d122f447c9eff93b85ee78521-element-48">400</text>
    <text x="18.63" y="7" text-anchor="end" dy="0.35em" id="fig-69298e0d122f447c9eff93b85ee78521-element-49">450</text>
  </g>
</g>
<defs>
<clipPath id="fig-69298e0d122f447c9eff93b85ee78521-element-18">
  <path d="M19.63,5 L 183.85 5 183.85 58.91 19.63 58.91" />
</clipPath
></defs>
</svg>
