<?xml version="1.0" encoding="UTF-8"?>
<svg xmlns="http://www.w3.org/2000/svg"
     xmlns:xlink="http://www.w3.org/1999/xlink"
     xmlns:gadfly="http://www.gadflyjl.org/ns"
     version="1.2"
     width="203.2mm" height="76.2mm" viewBox="0 0 203.2 76.2"
     stroke="none"
     fill="#000000"
     stroke-width="0.3"
     font-size="3.88"
>
<g class="plotroot xscalable yscalable" id="fig-fdbf1ac8d82a40078d23fca558b53b8c-element-1">
  <g font-size="3.88" font-family="'PT Sans','Helvetica Neue','Helvetica',sans-serif" fill="#564A55" stroke="#000000" stroke-opacity="0.000" id="fig-fdbf1ac8d82a40078d23fca558b53b8c-element-2">
    <text x="101.74" y="64.59" text-anchor="middle" dy="0.6em">Date</text>
  </g>
  <g class="guide xlabels" font-size="2.82" font-family="'PT Sans Caption','Helvetica Neue','Helvetica',sans-serif" fill="#6C606B" id="fig-fdbf1ac8d82a40078d23fca558b53b8c-element-3">
    <text x="22.34" y="57.92" text-anchor="middle" dy="0.6em">Apr</text>
    <text x="32.97" y="57.92" text-anchor="middle" dy="0.6em">May</text>
    <text x="43.96" y="57.92" text-anchor="middle" dy="0.6em">Jun</text>
    <text x="54.6" y="57.92" text-anchor="middle" dy="0.6em">Jul</text>
    <text x="65.59" y="57.92" text-anchor="middle" dy="0.6em">Aug</text>
    <text x="76.58" y="57.92" text-anchor="middle" dy="0.6em">Sep</text>
    <text x="87.21" y="57.92" text-anchor="middle" dy="0.6em">Oct</text>
    <text x="98.2" y="57.92" text-anchor="middle" dy="0.6em">Nov</text>
    <text x="108.83" y="57.92" text-anchor="middle" dy="0.6em">Dec</text>
    <text x="119.82" y="57.92" text-anchor="middle" dy="0.6em">Jan 2015</text>
    <text x="130.81" y="57.92" text-anchor="middle" dy="0.6em">Feb</text>
    <text x="140.74" y="57.92" text-anchor="middle" dy="0.6em">Mar</text>
    <text x="151.72" y="57.92" text-anchor="middle" dy="0.6em">Apr</text>
    <text x="162.36" y="57.92" text-anchor="middle" dy="0.6em">May</text>
    <text x="173.35" y="57.92" text-anchor="middle" dy="0.6em">Jun</text>
  </g>
  <g class="guide colorkey" id="fig-fdbf1ac8d82a40078d23fca558b53b8c-element-4">
    <g fill="#4C404B" font-size="2.82" font-family="'PT Sans','Helvetica Neue','Helvetica',sans-serif" id="fig-fdbf1ac8d82a40078d23fca558b53b8c-element-5">
      <text x="187.67" y="29.14" dy="0.35em" id="fig-fdbf1ac8d82a40078d23fca558b53b8c-element-6" class="color_0.2">0.2</text>
      <text x="187.67" y="32.77" dy="0.35em" id="fig-fdbf1ac8d82a40078d23fca558b53b8c-element-7" class="color_0.3">0.3</text>
      <text x="187.67" y="36.4" dy="0.35em" id="fig-fdbf1ac8d82a40078d23fca558b53b8c-element-8" class="color_0.4">0.4</text>
    </g>
    <g stroke="#000000" stroke-opacity="0.000" id="fig-fdbf1ac8d82a40078d23fca558b53b8c-element-9">
      <rect x="184.85" y="28.24" width="1.81" height="1.81" id="fig-fdbf1ac8d82a40078d23fca558b53b8c-element-10" class="color_0.2" fill="#00BFFF"/>
      <rect x="184.85" y="31.86" width="1.81" height="1.81" id="fig-fdbf1ac8d82a40078d23fca558b53b8c-element-11" class="color_0.3" fill="#D4CA3A"/>
      <rect x="184.85" y="35.49" width="1.81" height="1.81" id="fig-fdbf1ac8d82a40078d23fca558b53b8c-element-12" class="color_0.4" fill="#FF5EA0"/>
    </g>
    <g fill="#362A35" font-size="3.88" font-family="'PT Sans','Helvetica Neue','Helvetica',sans-serif" stroke="#000000" stroke-opacity="0.000" id="fig-fdbf1ac8d82a40078d23fca558b53b8c-element-13">
      <text x="184.85" y="25.32" id="fig-fdbf1ac8d82a40078d23fca558b53b8c-element-14">Julia ver.</text>
    </g>
  </g>
  <g font-size="3.88" font-family="'PT Sans','Helvetica Neue','Helvetica',sans-serif" fill="#564A55" stroke="#000000" stroke-opacity="0.000" id="fig-fdbf1ac8d82a40078d23fca558b53b8c-element-15">
    <text x="8.81" y="28.96" text-anchor="middle" dy="0.35em" transform="rotate(-90, 8.81, 30.96)" id="fig-fdbf1ac8d82a40078d23fca558b53b8c-element-16">Number of Tagged Packages</text>
  </g>
  <g clip-path="url(#fig-fdbf1ac8d82a40078d23fca558b53b8c-element-18)" id="fig-fdbf1ac8d82a40078d23fca558b53b8c-element-17">
    <g pointer-events="visible" opacity="1" fill="#000000" fill-opacity="0.000" stroke="#000000" stroke-opacity="0.000" class="guide background" id="fig-fdbf1ac8d82a40078d23fca558b53b8c-element-19">
      <rect x="19.63" y="5" width="164.22" height="51.92" id="fig-fdbf1ac8d82a40078d23fca558b53b8c-element-20"/>
    </g>
    <g class="guide ygridlines xfixed" stroke-dasharray="0.5,0.5" stroke-width="0.2" stroke="#D0D0E0" id="fig-fdbf1ac8d82a40078d23fca558b53b8c-element-21">
      <path fill="none" d="M19.63,54.91 L 183.85 54.91" id="fig-fdbf1ac8d82a40078d23fca558b53b8c-element-22"/>
      <path fill="none" d="M19.63,45.33 L 183.85 45.33" id="fig-fdbf1ac8d82a40078d23fca558b53b8c-element-23"/>
      <path fill="none" d="M19.63,35.75 L 183.85 35.75" id="fig-fdbf1ac8d82a40078d23fca558b53b8c-element-24"/>
      <path fill="none" d="M19.63,26.17 L 183.85 26.17" id="fig-fdbf1ac8d82a40078d23fca558b53b8c-element-25"/>
      <path fill="none" d="M19.63,16.58 L 183.85 16.58" id="fig-fdbf1ac8d82a40078d23fca558b53b8c-element-26"/>
      <path fill="none" d="M19.63,7 L 183.85 7" id="fig-fdbf1ac8d82a40078d23fca558b53b8c-element-27"/>
    </g>
    <g class="guide xgridlines yfixed" stroke-dasharray="0.5,0.5" stroke-width="0.2" stroke="#D0D0E0" id="fig-fdbf1ac8d82a40078d23fca558b53b8c-element-28">
      <path fill="none" d="M22.34,5 L 22.34 56.92" id="fig-fdbf1ac8d82a40078d23fca558b53b8c-element-29"/>
      <path fill="none" d="M32.97,5 L 32.97 56.92" id="fig-fdbf1ac8d82a40078d23fca558b53b8c-element-30"/>
      <path fill="none" d="M43.96,5 L 43.96 56.92" id="fig-fdbf1ac8d82a40078d23fca558b53b8c-element-31"/>
      <path fill="none" d="M54.6,5 L 54.6 56.92" id="fig-fdbf1ac8d82a40078d23fca558b53b8c-element-32"/>
      <path fill="none" d="M65.59,5 L 65.59 56.92" id="fig-fdbf1ac8d82a40078d23fca558b53b8c-element-33"/>
      <path fill="none" d="M76.58,5 L 76.58 56.92" id="fig-fdbf1ac8d82a40078d23fca558b53b8c-element-34"/>
      <path fill="none" d="M87.21,5 L 87.21 56.92" id="fig-fdbf1ac8d82a40078d23fca558b53b8c-element-35"/>
      <path fill="none" d="M98.2,5 L 98.2 56.92" id="fig-fdbf1ac8d82a40078d23fca558b53b8c-element-36"/>
      <path fill="none" d="M108.83,5 L 108.83 56.92" id="fig-fdbf1ac8d82a40078d23fca558b53b8c-element-37"/>
      <path fill="none" d="M119.82,5 L 119.82 56.92" id="fig-fdbf1ac8d82a40078d23fca558b53b8c-element-38"/>
      <path fill="none" d="M130.81,5 L 130.81 56.92" id="fig-fdbf1ac8d82a40078d23fca558b53b8c-element-39"/>
      <path fill="none" d="M140.74,5 L 140.74 56.92" id="fig-fdbf1ac8d82a40078d23fca558b53b8c-element-40"/>
      <path fill="none" d="M151.72,5 L 151.72 56.92" id="fig-fdbf1ac8d82a40078d23fca558b53b8c-element-41"/>
      <path fill="none" d="M162.36,5 L 162.36 56.92" id="fig-fdbf1ac8d82a40078d23fca558b53b8c-element-42"/>
      <path fill="none" d="M173.35,5 L 173.35 56.92" id="fig-fdbf1ac8d82a40078d23fca558b53b8c-element-43"/>
    </g>
    <g class="plotpanel" id="fig-fdbf1ac8d82a40078d23fca558b53b8c-element-44">
      <g class="geometry" stroke="#000000" stroke-opacity="0.000" fill="#4C404B" font-size="2.82" font-family="'PT Sans Caption','Helvetica Neue','Helvetica',sans-serif" id="fig-fdbf1ac8d82a40078d23fca558b53b8c-element-45">
        <text x="77.26" y="52.46" text-anchor="middle" dy="0.35em" id="fig-fdbf1ac8d82a40078d23fca558b53b8c-element-46" visibility="visible">v0.3.0</text>
        <text x="88.6" y="52.46" text-anchor="middle" dy="0.35em" id="fig-fdbf1ac8d82a40078d23fca558b53b8c-element-47" visibility="visible">v0.3.1</text>
        <text x="99.24" y="52.46" text-anchor="middle" dy="0.35em" id="fig-fdbf1ac8d82a40078d23fca558b53b8c-element-48" visibility="visible">v0.3.2</text>
        <text x="110.94" y="52.46" text-anchor="middle" dy="0.35em" id="fig-fdbf1ac8d82a40078d23fca558b53b8c-element-49" visibility="visible">v0.3.3</text>
        <text x="118.69" y="52.46" text-anchor="middle" dy="0.35em" id="fig-fdbf1ac8d82a40078d23fca558b53b8c-element-50" visibility="visible"></text>
        <text x="127.24" y="52.46" text-anchor="middle" dy="0.35em" id="fig-fdbf1ac8d82a40078d23fca558b53b8c-element-51" visibility="visible">v0.3.5</text>
        <text x="141.42" y="52.46" text-anchor="middle" dy="0.35em" id="fig-fdbf1ac8d82a40078d23fca558b53b8c-element-52" visibility="visible">v0.3.6</text>
        <text x="153.47" y="52.46" text-anchor="middle" dy="0.35em" id="fig-fdbf1ac8d82a40078d23fca558b53b8c-element-53" visibility="visible">v0.3.7</text>
        <text x="166.94" y="52.46" text-anchor="middle" dy="0.35em" id="fig-fdbf1ac8d82a40078d23fca558b53b8c-element-54" visibility="visible">v0.3.8</text>
        <text x="177.58" y="52.46" text-anchor="middle" dy="0.35em" id="fig-fdbf1ac8d82a40078d23fca558b53b8c-element-55" visibility="visible">v0.3.9</text>
      </g>
      <g class="yfixed" stroke-width="0.26" stroke="#333333" id="fig-fdbf1ac8d82a40078d23fca558b53b8c-element-56">
        <path fill="none" d="M72.32,5 L 72.32 56.92" id="fig-fdbf1ac8d82a40078d23fca558b53b8c-element-57"/>
        <path fill="none" d="M83.66,5 L 83.66 56.92" id="fig-fdbf1ac8d82a40078d23fca558b53b8c-element-58"/>
        <path fill="none" d="M94.3,5 L 94.3 56.92" id="fig-fdbf1ac8d82a40078d23fca558b53b8c-element-59"/>
        <path fill="none" d="M106,5 L 106 56.92" id="fig-fdbf1ac8d82a40078d23fca558b53b8c-element-60"/>
        <path fill="none" d="M117.69,5 L 117.69 56.92" id="fig-fdbf1ac8d82a40078d23fca558b53b8c-element-61"/>
        <path fill="none" d="M122.3,5 L 122.3 56.92" id="fig-fdbf1ac8d82a40078d23fca558b53b8c-element-62"/>
        <path fill="none" d="M136.48,5 L 136.48 56.92" id="fig-fdbf1ac8d82a40078d23fca558b53b8c-element-63"/>
        <path fill="none" d="M148.53,5 L 148.53 56.92" id="fig-fdbf1ac8d82a40078d23fca558b53b8c-element-64"/>
        <path fill="none" d="M162,5 L 162 56.92" id="fig-fdbf1ac8d82a40078d23fca558b53b8c-element-65"/>
        <path fill="none" d="M172.64,5 L 172.64 56.92" id="fig-fdbf1ac8d82a40078d23fca558b53b8c-element-66"/>
      </g>
      <g stroke-width="0.79" fill="#000000" fill-opacity="0.000" class="geometry color_0.4" stroke="#FF5EA0" id="fig-fdbf1ac8d82a40078d23fca558b53b8c-element-67">
        <path fill="none" d="M69.84,39.2 L 70.19 38.91 70.55 38.82 70.9 38.72 71.26 38.72 71.61 38.72 72.32 38.43 72.68 38.43 73.03 38.34 73.38 38.34 73.74 38.34 74.09 38.05 74.45 37.86 74.8 37.86 75.51 37.67 75.87 37.38 76.58 37.19 76.93 37.19 77.28 37.19 78.7 37.19 79.77 36.61 80.12 36.52 80.47 36.42 80.83 36.23 81.18 36.23 81.54 36.23 81.89 35.46 82.25 35.46 82.6 35.46 83.31 35.37 83.66 35.37 84.02 35.27 84.37 35.27 84.73 35.27 85.08 35.17 85.44 35.17 86.15 35.27 86.5 35.17 86.85 35.17 87.21 34.98 87.56 34.79 87.92 34.79 88.27 34.79 88.63 34.6 89.69 34.41 90.05 34.41 90.4 34.22 90.75 34.12 91.11 34.12 91.46 34.12 91.82 33.93 92.17 33.93 92.53 33.83 92.88 33.74 93.24 33.74 93.59 33.74 93.94 33.74 94.3 33.54 94.65 33.35 95.01 33.35 95.36 33.35 95.72 33.26 96.07 33.26 96.43 33.16 96.78 33.16 97.13 32.97 97.49 32.87 97.84 32.87 98.2 32.78 98.55 32.78 98.91 32.78 99.26 32.78 99.62 32.68 99.97 32.59 101.03 32.59 102.81 32.01 103.16 31.82 103.52 31.82 103.87 31.72 104.22 31.72 104.58 31.44 104.93 31.44 106.35 30.96 106.71 30.96 108.48 30.86 109.19 30.86 109.54 30.67 109.9 30.57 110.25 30.57 110.6 30.57 110.96 30.38 111.31 30.19 112.38 30.1 112.73 30 113.44 29.62 113.8 29.62 114.15 29.62 115.21 29.62 115.92 29.42 116.99 29.23 118.4 29.04 119.11 28.66 120.18 28.47 122.66 27.8 124.07 27.12 124.43 26.93 124.78 26.93 125.14 26.36 125.49 26.36 125.85 26.36 126.56 26.26 126.91 26.17 127.27 26.17 127.62 25.88 127.97 25.78 128.33 25.78 128.68 25.78 129.39 25.5 129.75 25.21 130.1 25.11 131.52 24.35 131.87 24.35 132.23 24.63 132.94 24.35 133.65 24.06 134 24.06 135.06 23.87 136.84 23.87 138.61 23.77 140.38 22.91 140.74 22.91 141.09 22.91 141.44 22.72 141.8 22.72 142.51 22.52 143.22 22.52 144.63 22.43 144.99 22.24 145.34 22.24 145.7 22.24 146.05 22.05 146.41 22.14 146.76 21.95 151.01 21.57 151.72 21.57 152.08 21.28 152.79 21.28 154.21 21.18 154.91 21.09 155.62 20.8 157.04 20.61 157.75 20.42 158.1 20.13 158.81 19.65 159.17 19.65 159.52 19.55 159.88 19.36 160.23 19.36 160.59 19.27 161.29 19.17 161.65 18.98 162.36 18.98 163.07 18.79 163.42 18.5 163.78 18.4 164.48 18.21 164.84 18.12 166.61 17.73 168.03 17.54 168.38 17.35 171.22 17.06 171.57 17.06 171.93 17.06 172.99 16.68 173.35 16.58 173.7 16.39 174.41 16.2 175.12 16.2 175.83 16.01 179.02 15.34 180.08 15.34 180.44 15.34 180.79 15.15 181.15 15.15 181.5 14.86 181.85 14.86" id="fig-fdbf1ac8d82a40078d23fca558b53b8c-element-68"/>
      </g>
      <g stroke-width="0.79" fill="#000000" fill-opacity="0.000" class="geometry color_0.3" stroke="#D4CA3A" id="fig-fdbf1ac8d82a40078d23fca558b53b8c-element-69">
        <path fill="none" d="M21.63,45.72 L 21.99 45.72 22.34 45.62 22.7 45.62 23.05 45.62 23.4 45.62 23.76 45.62 24.11 45.52 24.82 45.52 25.18 45.43 25.89 45.33 26.59 45.14 26.95 45.14 27.66 45.14 28.01 45.04 30.49 44.66 31.56 44.66 32.27 44.66 34.75 44.57 35.1 44.37 35.46 44.28 35.81 44.28 36.17 44.28 36.52 44.28 36.87 44.28 37.23 44.28 37.58 44.28 37.94 44.28 38.29 44.28 38.65 43.99 39.36 43.89 39.71 43.89 40.06 43.89 40.42 43.7 40.77 43.7 41.13 43.7 41.48 43.61 41.84 43.61 42.19 43.61 42.55 43.61 42.9 43.61 43.25 43.51 43.61 43.51 43.96 47.34 44.32 43.42 44.67 43.32 45.03 43.22 47.15 42.65 47.51 42.55 47.86 42.46 48.22 42.36 48.57 42.17 48.93 42.17 49.28 41.98 49.64 41.98 49.99 41.88 50.34 41.79 51.05 41.79 51.41 41.59 51.76 41.59 52.12 41.59 52.47 41.59 52.83 41.59 53.18 41.31 53.53 41.31 54.24 41.21 54.6 41.02 54.95 40.92 55.31 40.83 55.66 40.83 56.02 40.64 56.72 40.54 57.08 40.25 57.43 40.25 57.79 40.25 58.5 39.77 59.21 39.49 59.56 39.49 59.91 39.39 60.27 39.39 61.33 39.29 61.69 39.29 62.04 39.2 62.4 39.2 62.75 39.2 63.11 39.1 63.46 39.01 63.81 38.91 64.52 38.91 64.88 38.91 65.59 38.91 65.94 38.82 66.3 38.53 66.65 38.53 67.36 38.43 67.71 38.43 68.07 38.24 68.42 38.14 68.78 38.05 69.13 37.95 69.49 37.86 69.84 37.67 70.19 37.67 70.55 37.57 70.9 37.47 71.26 37.47 71.61 37.47 72.32 37.19 72.68 37.19 73.03 37.09 73.38 37.09 73.74 37.09 74.09 36.8 74.45 36.71 74.8 36.61 75.51 37.76 75.87 37.47 76.58 37.28 76.93 37.28 77.28 37.28 78.7 37.28 79.77 36.71 80.12 36.61 80.47 36.52 80.83 36.32 81.18 36.32 81.54 36.32 81.89 35.56 82.25 35.56 82.6 35.56 83.31 35.56 83.66 35.46 84.02 35.37 84.37 35.37 84.73 35.37 85.08 35.27 85.44 35.27 86.15 35.37 86.5 35.27 86.85 35.27 87.21 35.08 87.56 33.16 87.92 34.89 88.27 34.89 88.63 34.69 89.69 34.5 90.05 34.5 90.4 34.31 90.75 34.22 91.11 34.22 91.46 34.22 91.82 34.02 92.17 34.02 92.53 33.93 92.88 33.83 93.24 33.83 93.59 33.83 93.94 33.83 94.3 33.74 94.65 33.54 95.01 33.54 95.36 33.54 95.72 33.45 96.07 33.45 96.43 33.35 96.78 33.35 97.13 33.16 97.49 33.07 97.84 33.07 98.2 32.97 98.55 32.97 98.91 32.97 99.26 32.87 99.62 32.87 99.97 32.78 101.03 32.78 102.81 32.3 103.16 32.11 103.52 32.11 103.87 32.01 104.22 32.01 104.58 31.72 104.93 31.72 106.35 31.24 106.71 31.24 108.48 31.15 109.19 31.15 109.54 31.05 109.9 30.96 110.25 30.96 110.6 30.96 110.96 30.77 111.31 30.67 112.38 30.48 112.73 30.38 113.44 30.1 113.8 30 114.15 30 115.21 30 115.92 29.81 116.99 29.62 118.4 29.42 119.11 29.14 120.18 28.75 122.66 28.18 124.07 27.51 124.43 27.32 124.78 27.32 125.14 26.84 125.49 26.84 125.85 26.84 126.56 26.84 126.91 26.65 127.27 26.65 127.62 26.36 127.97 26.26 128.33 26.26 128.68 26.26 129.39 25.97 129.75 25.78 130.1 25.69 131.52 24.92 131.87 25.11 132.23 25.11 132.94 24.82 133.65 24.54 134 24.54 135.06 24.35 136.84 24.35 138.61 23.77 140.38 23.39 140.74 23.39 141.09 23.39 141.44 23.2 141.8 23.2 142.51 23.2 143.22 23.2 144.63 23 144.99 22.81 145.34 22.72 145.7 22.72 146.05 22.52 146.41 22.62 146.76 22.43 151.01 22.33 151.72 22.33 152.08 22.05 152.79 22.05 154.21 21.95 154.91 21.95 155.62 21.66 157.04 21.66 157.75 21.47 158.1 21.37 158.81 20.9 159.17 20.9 159.52 20.8 159.88 20.51 160.23 20.51 160.59 20.42 161.29 20.32 161.65 20.22 162.36 20.22 163.07 20.03 163.42 19.75 163.78 19.65 164.48 19.46 164.84 19.36 166.61 18.98 168.03 18.79 168.38 18.6 171.22 18.21 171.57 18.21 171.93 18.21 172.99 17.92 173.35 17.83 173.7 17.73 174.41 17.54 175.12 17.54 175.83 17.45 179.02 16.97 180.08 17.06 180.44 17.06 180.79 16.87 181.15 16.87 181.5 16.68 181.85 16.68" id="fig-fdbf1ac8d82a40078d23fca558b53b8c-element-70"/>
      </g>
      <g stroke-width="0.79" fill="#000000" fill-opacity="0.000" class="geometry color_0.2" stroke="#00BFFF" id="fig-fdbf1ac8d82a40078d23fca558b53b8c-element-71">
        <path fill="none" d="M21.63,46.77 L 21.99 46.77 22.34 46.67 22.7 46.67 23.05 46.67 23.4 46.67 23.76 46.67 24.11 46.67 24.82 46.67 25.18 46.67 25.89 46.58 26.59 46.48 26.95 46.48 27.66 46.39 28.01 46.29 30.49 46.1 31.56 46.1 32.27 46.1 34.75 46 35.1 45.91 35.46 45.91 35.81 45.91 36.17 45.91 36.52 45.91 36.87 45.91 37.23 45.91 37.58 45.91 37.94 45.91 38.29 45.62 38.65 45.62 39.36 45.52 39.71 45.52 40.06 45.52 40.42 45.43 40.77 46.19 41.13 45.72 41.48 45.72 41.84 45.72 42.19 45.72 42.55 45.72 42.9 45.72 43.25 45.72 43.61 45.72 43.96 45.62 44.32 45.62 44.67 45.52 45.03 45.52 47.15 45.04 47.51 45.04 47.86 44.95 48.22 44.85 48.57 44.66 48.93 44.66 49.28 44.66 49.64 44.66 49.99 44.66 50.34 44.57 51.05 44.57 51.41 44.37 51.76 44.37 52.12 44.37 52.47 44.37 52.83 44.37 53.18 44.09 53.53 44.09 54.24 43.99 54.6 43.8 54.95 43.7 55.31 43.61 55.66 43.61 56.02 43.61 56.72 43.42 57.08 43.32 57.43 43.22 57.79 43.22 58.5 43.03 59.21 42.84 59.56 42.84 59.91 42.84 60.27 42.84 61.33 42.84 61.69 42.84 62.04 42.74 62.4 42.74 62.75 42.74 63.11 42.65 63.46 42.65 63.81 42.65 64.52 42.55 64.88 42.55 65.59 42.55 65.94 42.55 66.3 42.27 66.65 42.27 67.36 42.46 67.71 42.46 68.07 42.27 68.42 42.17 68.78 42.17 69.13 41.98 69.49 41.98" id="fig-fdbf1ac8d82a40078d23fca558b53b8c-element-72"/>
      </g>
    </g>
  </g>
  <g class="guide ylabels" font-size="2.82" font-family="'PT Sans Caption','Helvetica Neue','Helvetica',sans-serif" fill="#6C606B" id="fig-fdbf1ac8d82a40078d23fca558b53b8c-element-73">
    <text x="18.63" y="54.91" text-anchor="end" dy="0.35em" id="fig-fdbf1ac8d82a40078d23fca558b53b8c-element-74">200</text>
    <text x="18.63" y="45.33" text-anchor="end" dy="0.35em" id="fig-fdbf1ac8d82a40078d23fca558b53b8c-element-75">300</text>
    <text x="18.63" y="35.75" text-anchor="end" dy="0.35em" id="fig-fdbf1ac8d82a40078d23fca558b53b8c-element-76">400</text>
    <text x="18.63" y="26.17" text-anchor="end" dy="0.35em" id="fig-fdbf1ac8d82a40078d23fca558b53b8c-element-77">500</text>
    <text x="18.63" y="16.58" text-anchor="end" dy="0.35em" id="fig-fdbf1ac8d82a40078d23fca558b53b8c-element-78">600</text>
    <text x="18.63" y="7" text-anchor="end" dy="0.35em" id="fig-fdbf1ac8d82a40078d23fca558b53b8c-element-79">700</text>
  </g>
</g>
<defs>
<clipPath id="fig-fdbf1ac8d82a40078d23fca558b53b8c-element-18">
  <path d="M19.63,5 L 183.85 5 183.85 56.92 19.63 56.92" />
</clipPath
></defs>
</svg>
