<?xml version="1.0" encoding="UTF-8"?>
<svg xmlns="http://www.w3.org/2000/svg"
     xmlns:xlink="http://www.w3.org/1999/xlink"
     xmlns:gadfly="http://www.gadflyjl.org/ns"
     version="1.2"
     width="203.2mm" height="76.2mm" viewBox="0 0 203.2 76.2"
     stroke="none"
     fill="#000000"
     stroke-width="0.3"
     font-size="3.88"
>
<g class="plotroot xscalable yscalable" id="fig-1d9f76e7957c46b3aa3fc6d54dbe94a9-element-1">
  <g font-size="3.88" font-family="'PT Sans','Helvetica Neue','Helvetica',sans-serif" fill="#564A55" stroke="none" id="fig-1d9f76e7957c46b3aa3fc6d54dbe94a9-element-2">
    <text x="109.75" y="68.2" text-anchor="middle">Date</text>
  </g>
  <g class="guide xlabels" font-size="2.82" font-family="'PT Sans Caption','Helvetica Neue','Helvetica',sans-serif" fill="#6C606B" id="fig-1d9f76e7957c46b3aa3fc6d54dbe94a9-element-3">
    <text x="68.93" y="62.59" text-anchor="middle">Nov</text>
    <text x="119.96" y="62.59" text-anchor="middle">Dec</text>
    <text x="172.69" y="62.59" text-anchor="middle">Jan 2015</text>
  </g>
  <g font-size="3.88" font-family="'PT Sans','Helvetica Neue','Helvetica',sans-serif" fill="#564A55" stroke="none" id="fig-1d9f76e7957c46b3aa3fc6d54dbe94a9-element-4">
    <text x="8.81" y="29.96" text-anchor="middle" dy="0.35em" transform="rotate(-90, 8.81, 31.96)">Number of Stars</text>
  </g>
  <g clip-path="url(#fig-1d9f76e7957c46b3aa3fc6d54dbe94a9-element-6)" id="fig-1d9f76e7957c46b3aa3fc6d54dbe94a9-element-5">
    <g pointer-events="visible" opacity="1" fill="none" stroke="none" class="guide background" id="fig-1d9f76e7957c46b3aa3fc6d54dbe94a9-element-7">
      <rect x="21.31" y="5" width="176.89" height="53.91"/>
    </g>
    <g class="guide ygridlines xfixed" stroke-dasharray="0.5,0.5" stroke-width="0.2" stroke="#D0D0E0" id="fig-1d9f76e7957c46b3aa3fc6d54dbe94a9-element-8">
      <path fill="none" d="M21.31,56.91 L 198.2 56.91"/>
      <path fill="none" d="M21.31,46.93 L 198.2 46.93"/>
      <path fill="none" d="M21.31,36.95 L 198.2 36.95"/>
      <path fill="none" d="M21.31,26.97 L 198.2 26.97"/>
      <path fill="none" d="M21.31,16.98 L 198.2 16.98"/>
      <path fill="none" d="M21.31,7 L 198.2 7"/>
    </g>
    <g class="guide xgridlines yfixed" stroke-dasharray="0.5,0.5" stroke-width="0.2" stroke="#D0D0E0" id="fig-1d9f76e7957c46b3aa3fc6d54dbe94a9-element-9">
      <path fill="none" d="M68.93,5 L 68.93 58.91"/>
      <path fill="none" d="M119.96,5 L 119.96 58.91"/>
      <path fill="none" d="M172.69,5 L 172.69 58.91"/>
    </g>
    <g class="plotpanel" id="fig-1d9f76e7957c46b3aa3fc6d54dbe94a9-element-10">
      <g stroke-width="0.79" fill="none" class="geometry color_1.0" stroke="#FFD700" id="fig-1d9f76e7957c46b3aa3fc6d54dbe94a9-element-11">
        <path fill="none" d="M23.01,50.13 L 28.11 49.71 29.81 49.41 31.51 49.23 33.21 49.09 34.91 48.89 36.61 48.69 38.31 48.35 40.02 48.09 41.72 48.11 43.42 47.85 45.12 47.65 46.82 47.45 48.52 47.13 50.22 46.91 51.92 46.29 53.62 45.67 55.32 45.45 57.02 45.06 58.73 44.88 60.43 44.78 62.13 44.64 63.83 45.37 65.53 45.14 67.23 45 68.93 44.9 70.63 44.84 72.33 44.6 74.03 43.5 75.73 42.58 77.44 42.4 82.54 40.72 91.04 38.77 92.74 38.71 94.44 36.81 96.15 35.95 97.85 35.71 99.55 35.13 101.25 34.79 108.05 32.64 109.75 32.36 118.26 30.24 121.66 29.42 123.36 29.08 125.06 28.72 126.76 28.4 128.46 27.76 130.16 27.56 131.86 27.66 136.97 26.77 138.67 26.11 142.07 25.53 143.77 25.13 145.47 24.71 150.57 24.47 153.98 23.93 159.08 22.87 165.88 22.03 169.28 20.48 174.39 19.48 186.29 17.6 193.1 16.04 194.8 15.77 196.5 15.69"/>
      </g>
    </g>
  </g>
  <g class="guide ylabels" font-size="2.82" font-family="'PT Sans Caption','Helvetica Neue','Helvetica',sans-serif" fill="#6C606B" id="fig-1d9f76e7957c46b3aa3fc6d54dbe94a9-element-12">
    <text x="20.31" y="56.91" text-anchor="end" dy="0.35em">4000</text>
    <text x="20.31" y="46.93" text-anchor="end" dy="0.35em">4500</text>
    <text x="20.31" y="36.95" text-anchor="end" dy="0.35em">5000</text>
    <text x="20.31" y="26.97" text-anchor="end" dy="0.35em">5500</text>
    <text x="20.31" y="16.98" text-anchor="end" dy="0.35em">6000</text>
    <text x="20.31" y="7" text-anchor="end" dy="0.35em">6500</text>
  </g>
</g>
<defs>
<clipPath id="fig-1d9f76e7957c46b3aa3fc6d54dbe94a9-element-6">
  <path d="M21.31,5 L 198.2 5 198.2 58.91 21.31 58.91" />
</clipPath
></defs>
</svg>
