<?xml version="1.0" encoding="UTF-8"?>
<svg xmlns="http://www.w3.org/2000/svg"
     xmlns:xlink="http://www.w3.org/1999/xlink"
     xmlns:gadfly="http://www.gadflyjl.org/ns"
     version="1.2"
     width="203.2mm" height="76.2mm" viewBox="0 0 203.2 76.2"
     stroke="none"
     fill="#000000"
     stroke-width="0.3"
     font-size="3.88"
>
<g class="plotroot xscalable yscalable" id="fig-9f30ccb838ad4616b08185ac4a420cbc-element-1">
  <g font-size="3.88" font-family="'PT Sans','Helvetica Neue','Helvetica',sans-serif" fill="#564A55" stroke="#000000" stroke-opacity="0.000" id="fig-9f30ccb838ad4616b08185ac4a420cbc-element-2">
    <text x="112.46" y="64.59" text-anchor="middle" dy="0.6em">Date</text>
  </g>
  <g class="guide xlabels" font-size="2.82" font-family="'PT Sans Caption','Helvetica Neue','Helvetica',sans-serif" fill="#6C606B" id="fig-9f30ccb838ad4616b08185ac4a420cbc-element-3">
    <text x="42.39" y="57.91" text-anchor="middle" dy="0.6em">Nov</text>
    <text x="57.57" y="57.91" text-anchor="middle" dy="0.6em">Dec</text>
    <text x="73.25" y="57.91" text-anchor="middle" dy="0.6em">Jan 2015</text>
    <text x="88.94" y="57.91" text-anchor="middle" dy="0.6em">Feb</text>
    <text x="103.1" y="57.91" text-anchor="middle" dy="0.6em">Mar</text>
    <text x="118.79" y="57.91" text-anchor="middle" dy="0.6em">Apr</text>
    <text x="133.97" y="57.91" text-anchor="middle" dy="0.6em">May</text>
    <text x="149.65" y="57.91" text-anchor="middle" dy="0.6em">Jun</text>
    <text x="164.83" y="57.91" text-anchor="middle" dy="0.6em">Jul</text>
    <text x="180.52" y="57.91" text-anchor="middle" dy="0.6em">Aug</text>
    <text x="196.2" y="57.91" text-anchor="middle" dy="0.6em">Sep</text>
  </g>
  <g clip-path="url(#fig-9f30ccb838ad4616b08185ac4a420cbc-element-5)" id="fig-9f30ccb838ad4616b08185ac4a420cbc-element-4">
    <g pointer-events="visible" opacity="1" fill="#000000" fill-opacity="0.000" stroke="#000000" stroke-opacity="0.000" class="guide background" id="fig-9f30ccb838ad4616b08185ac4a420cbc-element-6">
      <rect x="26.72" y="5" width="171.47" height="51.91"/>
    </g>
    <g class="guide ygridlines xfixed" stroke-dasharray="0.5,0.5" stroke-width="0.2" stroke="#D0D0E0" id="fig-9f30ccb838ad4616b08185ac4a420cbc-element-7">
      <path fill="none" d="M26.72,54.91 L 198.2 54.91"/>
      <path fill="none" d="M26.72,46.93 L 198.2 46.93"/>
      <path fill="none" d="M26.72,38.94 L 198.2 38.94"/>
      <path fill="none" d="M26.72,30.96 L 198.2 30.96"/>
      <path fill="none" d="M26.72,22.97 L 198.2 22.97"/>
      <path fill="none" d="M26.72,14.99 L 198.2 14.99"/>
      <path fill="none" d="M26.72,7 L 198.2 7"/>
    </g>
    <g class="guide xgridlines yfixed" stroke-dasharray="0.5,0.5" stroke-width="0.2" stroke="#D0D0E0" id="fig-9f30ccb838ad4616b08185ac4a420cbc-element-8">
      <path fill="none" d="M42.39,5 L 42.39 56.91"/>
      <path fill="none" d="M57.57,5 L 57.57 56.91"/>
      <path fill="none" d="M73.25,5 L 73.25 56.91"/>
      <path fill="none" d="M88.94,5 L 88.94 56.91"/>
      <path fill="none" d="M103.1,5 L 103.1 56.91"/>
      <path fill="none" d="M118.79,5 L 118.79 56.91"/>
      <path fill="none" d="M133.97,5 L 133.97 56.91"/>
      <path fill="none" d="M149.65,5 L 149.65 56.91"/>
      <path fill="none" d="M164.83,5 L 164.83 56.91"/>
      <path fill="none" d="M180.52,5 L 180.52 56.91"/>
      <path fill="none" d="M196.2,5 L 196.2 56.91"/>
    </g>
    <g class="plotpanel" id="fig-9f30ccb838ad4616b08185ac4a420cbc-element-9">
      <g stroke-width="0.79" fill="#000000" fill-opacity="0.000" class="geometry color_1.0" stroke="#FFD700" id="fig-9f30ccb838ad4616b08185ac4a420cbc-element-10">
        <path fill="none" d="M28.73,52.2 L 30.24 52.03 30.75 51.91 31.25 51.84 31.76 51.78 32.27 51.7 32.77 51.62 33.28 51.49 33.78 51.39 34.29 51.39 34.8 51.29 35.3 51.21 35.81 51.13 36.31 51 36.82 50.91 37.33 50.67 37.83 50.42 38.34 50.33 38.84 50.17 39.35 50.1 39.86 50.06 40.36 50 40.87 50.3 41.37 50.2 41.88 50.15 42.39 50.11 42.89 50.08 43.4 49.99 43.9 49.55 44.41 49.18 44.92 49.11 46.43 48.44 48.96 47.66 49.47 47.63 49.98 46.87 50.48 46.53 50.99 46.43 51.49 46.2 52 46.07 54.02 45.2 54.53 45.09 57.06 44.25 58.07 43.92 58.58 43.78 59.08 43.64 59.59 43.51 60.09 43.26 60.6 43.18 61.11 43.22 62.62 42.86 63.13 42.59 64.14 42.36 64.65 42.2 65.15 42.03 66.67 41.94 67.68 41.72 69.2 41.3 71.23 40.96 72.24 40.34 73.76 39.94 77.3 39.19 79.32 38.57 79.83 38.46 80.33 38.42 80.84 38.18 81.35 38.06 81.85 38.05 82.86 37.88 83.37 37.82 83.88 37.71 84.38 37.61 84.89 37.56 85.39 37.54 85.9 37.51 86.91 37.32 87.42 37.15 87.92 37.11 89.95 36.68 90.45 36.48 90.96 36.39 91.97 36.24 92.98 36.06 93.49 36 95.01 35.64 97.54 35.02 100.07 33.9 102.6 33.39 103.1 33.13 103.61 33.01 104.11 32.79 104.62 32.58 105.63 32.3 106.64 32.04 108.67 31.59 109.17 31.48 109.68 31.3 110.19 31.24 110.69 31.13 111.2 30.9 111.7 30.79 117.78 29.7 118.79 29.46 119.29 29.38 120.3 29.25 122.33 28.71 123.34 28.59 124.35 28.41 126.38 27.96 127.39 27.78 127.89 27.72 128.91 27.38 129.41 27.31 129.92 27.19 130.42 27.12 130.93 27.02 131.44 26.92 132.45 26.69 132.95 26.6 133.97 26.34 134.98 26.07 135.48 25.94 135.99 25.71 137 25.53 137.51 25.29 140.04 24.78 142.06 24.29 142.57 24.1 146.62 23.39 147.12 23.32 147.63 23.28 149.15 22.91 149.65 22.72 150.16 22.57 151.17 22.36 152.18 22.13 153.19 21.68 157.75 19.38 159.77 18.83 160.28 18.72 160.78 19.02 161.29 19.06 161.79 18.93 162.3 18.84 162.81 18.72 164.32 18.48 165.34 18.34 166.35 18.17 166.85 18.09 167.36 17.87 167.87 17.57 168.37 17.43 168.88 17.33 177.48 14.86 181.53 14.12 186.08 12.81 194.68 9.08 196.2 9.28"/>
      </g>
    </g>
  </g>
  <g class="guide ylabels" font-size="2.82" font-family="'PT Sans Caption','Helvetica Neue','Helvetica',sans-serif" fill="#6C606B" id="fig-9f30ccb838ad4616b08185ac4a420cbc-element-11">
    <text x="25.72" y="54.91" text-anchor="end" dy="0.35em">4.0×10³</text>
    <text x="25.72" y="46.93" text-anchor="end" dy="0.35em">5.0×10³</text>
    <text x="25.72" y="38.94" text-anchor="end" dy="0.35em">6.0×10³</text>
    <text x="25.72" y="30.96" text-anchor="end" dy="0.35em">7.0×10³</text>
    <text x="25.72" y="22.97" text-anchor="end" dy="0.35em">8.0×10³</text>
    <text x="25.72" y="14.99" text-anchor="end" dy="0.35em">9.0×10³</text>
    <text x="25.72" y="7" text-anchor="end" dy="0.35em">1.0×10⁴</text>
  </g>
  <g font-size="3.88" font-family="'PT Sans','Helvetica Neue','Helvetica',sans-serif" fill="#564A55" stroke="#000000" stroke-opacity="0.000" id="fig-9f30ccb838ad4616b08185ac4a420cbc-element-12">
    <text x="8.81" y="28.96" text-anchor="middle" dy="0.35em" transform="rotate(-90, 8.81, 30.96)">Number of Stars</text>
  </g>
</g>
<defs>
<clipPath id="fig-9f30ccb838ad4616b08185ac4a420cbc-element-5">
  <path d="M26.72,5 L 198.2 5 198.2 56.91 26.72 56.91" />
</clipPath
></defs>
</svg>
