<?xml version="1.0" encoding="UTF-8"?>
<svg xmlns="http://www.w3.org/2000/svg"
     xmlns:xlink="http://www.w3.org/1999/xlink"
     xmlns:gadfly="http://www.gadflyjl.org/ns"
     version="1.2"
     width="203.2mm" height="76.2mm" viewBox="0 0 203.2 76.2"
     stroke="none"
     fill="#000000"
     stroke-width="0.3"
     font-size="3.88"
>
<g class="plotroot xscalable yscalable" id="fig-02886f3d96b54d26ae305d78b8324e40-element-1">
  <g font-size="3.88" font-family="'PT Sans','Helvetica Neue','Helvetica',sans-serif" fill="#564A55" stroke="none" id="fig-02886f3d96b54d26ae305d78b8324e40-element-2">
    <text x="109.75" y="68.2" text-anchor="middle">Date</text>
  </g>
  <g class="guide xlabels" font-size="2.82" font-family="'PT Sans Caption','Helvetica Neue','Helvetica',sans-serif" fill="#6C606B" id="fig-02886f3d96b54d26ae305d78b8324e40-element-3">
    <text x="105.26" y="62.59" text-anchor="middle">Nev</text>
    <text x="195.2" y="62.59" text-anchor="middle">Dec</text>
  </g>
  <g font-size="3.88" font-family="'PT Sans','Helvetica Neue','Helvetica',sans-serif" fill="#564A55" stroke="none" id="fig-02886f3d96b54d26ae305d78b8324e40-element-4">
    <text x="8.81" y="29.96" text-anchor="middle" dy="0.35em" transform="rotate(-90, 8.81, 31.96)">Number of Stars</text>
  </g>
  <g clip-path="url(#fig-02886f3d96b54d26ae305d78b8324e40-element-6)" id="fig-02886f3d96b54d26ae305d78b8324e40-element-5">
    <g pointer-events="visible" opacity="1" fill="none" stroke="none" class="guide background" id="fig-02886f3d96b54d26ae305d78b8324e40-element-7">
      <rect x="21.31" y="5" width="176.89" height="53.91"/>
    </g>
    <g class="guide ygridlines xfixed" stroke-dasharray="0.5,0.5" stroke-width="0.2" stroke="#D0D0E0" id="fig-02886f3d96b54d26ae305d78b8324e40-element-8">
      <path fill="none" d="M21.31,56.91 L 198.2 56.91"/>
      <path fill="none" d="M21.31,40.28 L 198.2 40.28"/>
      <path fill="none" d="M21.31,23.64 L 198.2 23.64"/>
      <path fill="none" d="M21.31,7 L 198.2 7"/>
    </g>
    <g class="guide xgridlines yfixed" stroke-dasharray="0.5,0.5" stroke-width="0.2" stroke="#D0D0E0" id="fig-02886f3d96b54d26ae305d78b8324e40-element-9">
      <path fill="none" d="M105.26,5 L 105.26 58.91"/>
      <path fill="none" d="M195.2,5 L 195.2 58.91"/>
    </g>
    <g class="plotpanel" id="fig-02886f3d96b54d26ae305d78b8324e40-element-10">
      <g stroke-width="0.79" fill="none" class="geometry color_1.0" stroke="#FFD700" id="fig-02886f3d96b54d26ae305d78b8324e40-element-11">
        <path fill="none" d="M24.3,45.6 L 33.3 44.9 36.3 44.4 39.29 44.1 42.29 43.87 45.29 43.54 48.29 43.21 51.29 42.64 54.29 42.21 57.28 42.24 60.28 41.81 63.28 41.47 66.28 41.14 69.28 40.61 72.27 40.24 75.27 39.21 78.27 38.18 81.27 37.81 84.27 37.15 87.27 36.85 90.26 36.68 93.26 36.45 96.26 37.68 99.26 37.28 102.26 37.05 105.26 36.88 108.25 36.78 111.25 36.38 114.25 34.55 117.25 33.02 120.25 32.72 129.24 29.93 144.23 26.67 147.23 26.57 150.23 23.41 153.23 21.97 156.22 21.58 159.22 20.61 162.22 20.04 174.21 16.45 177.21 15.98 192.2 12.46 198.2 11.09"/>
      </g>
    </g>
  </g>
  <g class="guide ylabels" font-size="2.82" font-family="'PT Sans Caption','Helvetica Neue','Helvetica',sans-serif" fill="#6C606B" id="fig-02886f3d96b54d26ae305d78b8324e40-element-12">
    <text x="20.31" y="56.91" text-anchor="end" dy="0.35em">4000</text>
    <text x="20.31" y="40.28" text-anchor="end" dy="0.35em">4500</text>
    <text x="20.31" y="23.64" text-anchor="end" dy="0.35em">5000</text>
    <text x="20.31" y="7" text-anchor="end" dy="0.35em">5500</text>
  </g>
</g>
<defs>
<clipPath id="fig-02886f3d96b54d26ae305d78b8324e40-element-6">
  <path d="M21.31,5 L 198.2 5 198.2 58.91 21.31 58.91" />
</clipPath
></defs>
</svg>
