<?xml version="1.0" encoding="UTF-8"?>
<svg xmlns="http://www.w3.org/2000/svg"
     xmlns:xlink="http://www.w3.org/1999/xlink"
     xmlns:gadfly="http://www.gadflyjl.org/ns"
     version="1.2"
     width="203.2mm" height="76.2mm" viewBox="0 0 203.2 76.2"
     stroke="none"
     fill="#000000"
     stroke-width="0.3"
     font-size="3.88"
>
<g class="plotroot xscalable yscalable" id="fig-dde839f5dfed4843ab7e21f6bdc42357-element-1">
  <g font-size="3.88" font-family="'PT Sans','Helvetica Neue','Helvetica',sans-serif" fill="#564A55" stroke="none" id="fig-dde839f5dfed4843ab7e21f6bdc42357-element-2">
    <text x="109.75" y="68.2" text-anchor="middle">Date</text>
  </g>
  <g class="guide xlabels" font-size="2.82" font-family="'PT Sans Caption','Helvetica Neue','Helvetica',sans-serif" fill="#6C606B" id="fig-dde839f5dfed4843ab7e21f6bdc42357-element-3">
    <text x="97.51" y="62.59" text-anchor="middle">Nev</text>
    <text x="179.15" y="62.59" text-anchor="middle">Dec</text>
  </g>
  <g font-size="3.88" font-family="'PT Sans','Helvetica Neue','Helvetica',sans-serif" fill="#564A55" stroke="none" id="fig-dde839f5dfed4843ab7e21f6bdc42357-element-4">
    <text x="8.81" y="29.96" text-anchor="middle" dy="0.35em" transform="rotate(-90, 8.81, 31.96)">Number of Stars</text>
  </g>
  <g clip-path="url(#fig-dde839f5dfed4843ab7e21f6bdc42357-element-6)" id="fig-dde839f5dfed4843ab7e21f6bdc42357-element-5">
    <g pointer-events="visible" opacity="1" fill="none" stroke="none" class="guide background" id="fig-dde839f5dfed4843ab7e21f6bdc42357-element-7">
      <rect x="21.31" y="5" width="176.89" height="53.91"/>
    </g>
    <g class="guide ygridlines xfixed" stroke-dasharray="0.5,0.5" stroke-width="0.2" stroke="#D0D0E0" id="fig-dde839f5dfed4843ab7e21f6bdc42357-element-8">
      <path fill="none" d="M21.31,56.91 L 198.2 56.91"/>
      <path fill="none" d="M21.31,40.28 L 198.2 40.28"/>
      <path fill="none" d="M21.31,23.64 L 198.2 23.64"/>
      <path fill="none" d="M21.31,7 L 198.2 7"/>
    </g>
    <g class="guide xgridlines yfixed" stroke-dasharray="0.5,0.5" stroke-width="0.2" stroke="#D0D0E0" id="fig-dde839f5dfed4843ab7e21f6bdc42357-element-9">
      <path fill="none" d="M97.51,5 L 97.51 58.91"/>
      <path fill="none" d="M179.15,5 L 179.15 58.91"/>
    </g>
    <g class="plotpanel" id="fig-dde839f5dfed4843ab7e21f6bdc42357-element-10">
      <g stroke-width="0.79" fill="none" class="geometry color_1.0" stroke="#FFD700" id="fig-dde839f5dfed4843ab7e21f6bdc42357-element-11">
        <path fill="none" d="M24.03,45.6 L 32.19 44.9 34.91 44.4 37.63 44.1 40.36 43.87 43.08 43.54 45.8 43.21 48.52 42.64 51.24 42.21 53.96 42.24 56.68 41.81 59.41 41.47 62.13 41.14 64.85 40.61 67.57 40.24 70.29 39.21 73.01 38.18 75.73 37.81 78.46 37.15 81.18 36.85 83.9 36.68 86.62 36.45 89.34 37.68 92.06 37.28 94.78 37.05 97.51 36.88 100.23 36.78 102.95 36.38 105.67 34.55 108.39 33.02 111.11 32.72 119.28 29.93 132.88 26.67 135.61 26.57 138.33 23.41 141.05 21.97 143.77 21.58 146.49 20.61 149.21 20.04 160.1 16.45 162.82 15.98 176.43 12.46 181.87 11.09 184.59 10.53 187.31 9.93 190.04 9.4 192.76 8.33 195.48 8 198.2 8.16"/>
      </g>
    </g>
  </g>
  <g class="guide ylabels" font-size="2.82" font-family="'PT Sans Caption','Helvetica Neue','Helvetica',sans-serif" fill="#6C606B" id="fig-dde839f5dfed4843ab7e21f6bdc42357-element-12">
    <text x="20.31" y="56.91" text-anchor="end" dy="0.35em">4000</text>
    <text x="20.31" y="40.28" text-anchor="end" dy="0.35em">4500</text>
    <text x="20.31" y="23.64" text-anchor="end" dy="0.35em">5000</text>
    <text x="20.31" y="7" text-anchor="end" dy="0.35em">5500</text>
  </g>
</g>
<defs>
<clipPath id="fig-dde839f5dfed4843ab7e21f6bdc42357-element-6">
  <path d="M21.31,5 L 198.2 5 198.2 58.91 21.31 58.91" />
</clipPath
></defs>
</svg>
