<?xml version="1.0" encoding="UTF-8"?>
<svg xmlns="http://www.w3.org/2000/svg"
     xmlns:xlink="http://www.w3.org/1999/xlink"
     xmlns:gadfly="http://www.gadflyjl.org/ns"
     version="1.2"
     width="203.2mm" height="76.2mm" viewBox="0 0 203.2 76.2"
     stroke="none"
     fill="#000000"
     stroke-width="0.3"
     font-size="3.88"
>
<g class="plotroot xscalable yscalable" id="fig-608e6bbbc703458aa9a140bf33e85e37-element-1">
  <g font-size="3.88" font-family="'PT Sans','Helvetica Neue','Helvetica',sans-serif" fill="#564A55" stroke="none" id="fig-608e6bbbc703458aa9a140bf33e85e37-element-2">
    <text x="109.75" y="68.2" text-anchor="middle">Date</text>
  </g>
  <g class="guide xlabels" font-size="2.82" font-family="'PT Sans Caption','Helvetica Neue','Helvetica',sans-serif" fill="#6C606B" id="fig-608e6bbbc703458aa9a140bf33e85e37-element-3">
    <text x="78.9" y="62.59" text-anchor="middle">Nov</text>
    <text x="140.61" y="62.59" text-anchor="middle">Dec</text>
  </g>
  <g font-size="3.88" font-family="'PT Sans','Helvetica Neue','Helvetica',sans-serif" fill="#564A55" stroke="none" id="fig-608e6bbbc703458aa9a140bf33e85e37-element-4">
    <text x="8.81" y="29.96" text-anchor="middle" dy="0.35em" transform="rotate(-90, 8.81, 31.96)">Number of Stars</text>
  </g>
  <g clip-path="url(#fig-608e6bbbc703458aa9a140bf33e85e37-element-6)" id="fig-608e6bbbc703458aa9a140bf33e85e37-element-5">
    <g pointer-events="visible" opacity="1" fill="none" stroke="none" class="guide background" id="fig-608e6bbbc703458aa9a140bf33e85e37-element-7">
      <rect x="21.31" y="5" width="176.89" height="53.92"/>
    </g>
    <g class="guide ygridlines xfixed" stroke-dasharray="0.5,0.5" stroke-width="0.2" stroke="#D0D0E0" id="fig-608e6bbbc703458aa9a140bf33e85e37-element-8">
      <path fill="none" d="M21.31,56.92 L 198.2 56.92"/>
      <path fill="none" d="M21.31,44.44 L 198.2 44.44"/>
      <path fill="none" d="M21.31,31.96 L 198.2 31.96"/>
      <path fill="none" d="M21.31,19.48 L 198.2 19.48"/>
      <path fill="none" d="M21.31,7 L 198.2 7"/>
    </g>
    <g class="guide xgridlines yfixed" stroke-dasharray="0.5,0.5" stroke-width="0.2" stroke="#D0D0E0" id="fig-608e6bbbc703458aa9a140bf33e85e37-element-9">
      <path fill="none" d="M78.9,5 L 78.9 58.92"/>
      <path fill="none" d="M140.61,5 L 140.61 58.92"/>
    </g>
    <g class="plotpanel" id="fig-608e6bbbc703458aa9a140bf33e85e37-element-10">
      <g stroke-width="0.79" fill="none" class="geometry color_1.0" stroke="#FFD700" id="fig-608e6bbbc703458aa9a140bf33e85e37-element-11">
        <path fill="none" d="M23.36,48.43 L 29.53 47.91 31.59 47.53 33.65 47.31 35.7 47.13 37.76 46.88 39.82 46.63 41.87 46.21 43.93 45.88 45.99 45.91 48.04 45.58 50.1 45.33 52.16 45.09 54.22 44.69 56.27 44.41 58.33 43.64 60.39 42.86 62.44 42.59 64.5 42.09 66.56 41.87 68.61 41.74 70.67 41.57 72.73 42.49 74.78 42.19 76.84 42.02 78.9 41.89 80.96 41.82 83.01 41.52 85.07 40.14 87.13 39 89.18 38.77 95.35 36.67 105.64 34.23 107.7 34.15 109.75 31.78 111.81 30.71 113.87 30.41 115.92 29.69 117.98 29.26 126.21 26.57 128.26 26.22 138.55 23.57 142.66 22.55 144.72 22.12 146.78 21.68 148.83 21.28 150.89 20.48 152.95 20.23 155 20.35 161.18 19.23 163.23 18.41 167.35 17.68 169.4 17.18 171.46 16.66 177.63 16.36 181.74 15.69 187.92 14.36 196.14 13.31"/>
      </g>
    </g>
  </g>
  <g class="guide ylabels" font-size="2.82" font-family="'PT Sans Caption','Helvetica Neue','Helvetica',sans-serif" fill="#6C606B" id="fig-608e6bbbc703458aa9a140bf33e85e37-element-12">
    <text x="20.31" y="56.92" text-anchor="end" dy="0.35em">4000</text>
    <text x="20.31" y="44.44" text-anchor="end" dy="0.35em">4500</text>
    <text x="20.31" y="31.96" text-anchor="end" dy="0.35em">5000</text>
    <text x="20.31" y="19.48" text-anchor="end" dy="0.35em">5500</text>
    <text x="20.31" y="7" text-anchor="end" dy="0.35em">6000</text>
  </g>
</g>
<defs>
<clipPath id="fig-608e6bbbc703458aa9a140bf33e85e37-element-6">
  <path d="M21.31,5 L 198.2 5 198.2 58.92 21.31 58.92" />
</clipPath
></defs>
</svg>
