<?xml version="1.0" encoding="UTF-8"?>
<svg xmlns="http://www.w3.org/2000/svg"
     xmlns:xlink="http://www.w3.org/1999/xlink"
     xmlns:gadfly="http://www.gadflyjl.org/ns"
     version="1.2"
     width="203.2mm" height="76.2mm" viewBox="0 0 203.2 76.2"
     stroke="none"
     fill="#000000"
     stroke-width="0.3"
     font-size="3.88"
>
<g class="plotroot xscalable yscalable" id="fig-c005d2546ef64c24a9d074da82ed58b5-element-1">
  <g font-size="3.88" font-family="'PT Sans','Helvetica Neue','Helvetica',sans-serif" fill="#564A55" stroke="none" id="fig-c005d2546ef64c24a9d074da82ed58b5-element-2">
    <text x="112.46" y="68.2" text-anchor="middle">Date</text>
  </g>
  <g class="guide xlabels" font-size="2.82" font-family="'PT Sans Caption','Helvetica Neue','Helvetica',sans-serif" fill="#6C606B" id="fig-c005d2546ef64c24a9d074da82ed58b5-element-3">
    <text x="59.49" y="60.59" text-anchor="middle">Nov</text>
    <text x="93.66" y="60.59" text-anchor="middle">Dec</text>
    <text x="128.98" y="60.59" text-anchor="middle">Jan 2015</text>
    <text x="164.3" y="60.59" text-anchor="middle">Feb</text>
    <text x="196.2" y="60.59" text-anchor="middle">Mar</text>
  </g>
  <g font-size="3.88" font-family="'PT Sans','Helvetica Neue','Helvetica',sans-serif" fill="#564A55" stroke="none" id="fig-c005d2546ef64c24a9d074da82ed58b5-element-4">
    <text x="8.81" y="28.96" text-anchor="middle" dy="0.35em" transform="rotate(-90, 8.81, 30.96)">Number of Stars</text>
  </g>
  <g clip-path="url(#fig-c005d2546ef64c24a9d074da82ed58b5-element-6)" id="fig-c005d2546ef64c24a9d074da82ed58b5-element-5">
    <g pointer-events="visible" opacity="1" fill="none" stroke="none" class="guide background" id="fig-c005d2546ef64c24a9d074da82ed58b5-element-7">
      <rect x="26.72" y="5" width="171.48" height="51.91"/>
    </g>
    <g class="guide ygridlines xfixed" stroke-dasharray="0.5,0.5" stroke-width="0.2" stroke="#D0D0E0" id="fig-c005d2546ef64c24a9d074da82ed58b5-element-8">
      <path fill="none" d="M26.72,54.91 L 198.2 54.91"/>
      <path fill="none" d="M26.72,38.94 L 198.2 38.94"/>
      <path fill="none" d="M26.72,22.97 L 198.2 22.97"/>
      <path fill="none" d="M26.72,7 L 198.2 7"/>
    </g>
    <g class="guide xgridlines yfixed" stroke-dasharray="0.5,0.5" stroke-width="0.2" stroke="#D0D0E0" id="fig-c005d2546ef64c24a9d074da82ed58b5-element-9">
      <path fill="none" d="M59.49,5 L 59.49 56.91"/>
      <path fill="none" d="M93.66,5 L 93.66 56.91"/>
      <path fill="none" d="M128.98,5 L 128.98 56.91"/>
      <path fill="none" d="M164.3,5 L 164.3 56.91"/>
      <path fill="none" d="M196.2,5 L 196.2 56.91"/>
    </g>
    <g class="plotpanel" id="fig-c005d2546ef64c24a9d074da82ed58b5-element-10">
      <g stroke-width="0.79" fill="none" class="geometry color_1.0" stroke="#FFD700" id="fig-c005d2546ef64c24a9d074da82ed58b5-element-11">
        <path fill="none" d="M28.72,49.48 L 32.14 49.15 33.28 48.91 34.42 48.77 35.56 48.65 36.7 48.49 37.84 48.33 38.98 48.06 40.12 47.86 41.26 47.87 42.4 47.66 43.54 47.5 44.67 47.34 45.81 47.09 46.95 46.91 48.09 46.42 49.23 45.92 50.37 45.75 51.51 45.43 52.65 45.28 53.79 45.2 54.93 45.09 56.07 45.68 57.21 45.49 58.35 45.38 59.49 45.3 60.62 45.25 61.76 45.06 62.9 44.18 64.04 43.45 65.18 43.3 68.6 41.96 74.3 40.4 75.44 40.35 76.57 38.83 77.71 38.14 78.85 37.95 79.99 37.49 81.13 37.22 85.69 35.49 86.83 35.27 92.52 33.58 94.8 32.92 95.94 32.65 97.08 32.36 98.22 32.11 99.36 31.6 100.5 31.44 101.64 31.52 105.06 30.8 106.2 30.27 108.47 29.81 109.61 29.49 110.75 29.15 114.17 28.96 116.45 28.53 119.87 27.68 124.43 27.01 126.7 25.77 130.12 24.97 138.1 23.47 142.65 22.22 143.79 22 144.93 21.93 146.07 21.45 147.21 21.2 148.35 21.18 150.63 20.85 151.77 20.72 152.91 20.5 154.05 20.3 155.19 20.21 156.33 20.16 157.46 20.1 159.74 19.73 160.88 19.39 162.02 19.31 166.58 18.44 167.72 18.04 168.86 17.86 171.14 17.57 173.41 17.21 174.55 17.08 177.97 16.36 183.67 15.13 189.36 12.88 195.06 11.87 196.2 11.34"/>
      </g>
    </g>
  </g>
  <g class="guide ylabels" font-size="2.82" font-family="'PT Sans Caption','Helvetica Neue','Helvetica',sans-serif" fill="#6C606B" id="fig-c005d2546ef64c24a9d074da82ed58b5-element-12">
    <text x="25.72" y="54.91" text-anchor="end" dy="0.35em">4.0×10³</text>
    <text x="25.72" y="38.94" text-anchor="end" dy="0.35em">5.0×10³</text>
    <text x="25.72" y="22.97" text-anchor="end" dy="0.35em">6.0×10³</text>
    <text x="25.72" y="7" text-anchor="end" dy="0.35em">7.0×10³</text>
  </g>
</g>
<defs>
<clipPath id="fig-c005d2546ef64c24a9d074da82ed58b5-element-6">
  <path d="M26.72,5 L 198.2 5 198.2 56.91 26.72 56.91" />
</clipPath
></defs>
</svg>
