<?xml version="1.0" encoding="UTF-8"?>
<svg xmlns="http://www.w3.org/2000/svg"
     xmlns:xlink="http://www.w3.org/1999/xlink"
     xmlns:gadfly="http://www.gadflyjl.org/ns"
     version="1.2"
     width="203.2mm" height="76.2mm" viewBox="0 0 203.2 76.2"
     stroke="none"
     fill="#000000"
     stroke-width="0.3"
     font-size="3.88"
>
<g class="plotroot xscalable yscalable" id="fig-6c8ad3f6bbe44c32890bbf30cd7a3db1-element-1">
  <g font-size="3.88" font-family="'PT Sans','Helvetica Neue','Helvetica',sans-serif" fill="#564A55" stroke="none" id="fig-6c8ad3f6bbe44c32890bbf30cd7a3db1-element-2">
    <text x="109.75" y="68.2" text-anchor="middle">Date</text>
  </g>
  <g class="guide xlabels" font-size="2.82" font-family="'PT Sans Caption','Helvetica Neue','Helvetica',sans-serif" fill="#6C606B" id="fig-6c8ad3f6bbe44c32890bbf30cd7a3db1-element-3">
    <text x="93.09" y="62.59" text-anchor="middle">Nev</text>
    <text x="170" y="62.59" text-anchor="middle">Dec</text>
  </g>
  <g font-size="3.88" font-family="'PT Sans','Helvetica Neue','Helvetica',sans-serif" fill="#564A55" stroke="none" id="fig-6c8ad3f6bbe44c32890bbf30cd7a3db1-element-4">
    <text x="8.81" y="29.96" text-anchor="middle" dy="0.35em" transform="rotate(-90, 8.81, 31.96)">Number of Stars</text>
  </g>
  <g clip-path="url(#fig-6c8ad3f6bbe44c32890bbf30cd7a3db1-element-6)" id="fig-6c8ad3f6bbe44c32890bbf30cd7a3db1-element-5">
    <g pointer-events="visible" opacity="1" fill="none" stroke="none" class="guide background" id="fig-6c8ad3f6bbe44c32890bbf30cd7a3db1-element-7">
      <rect x="21.31" y="5" width="176.89" height="53.91"/>
    </g>
    <g class="guide ygridlines xfixed" stroke-dasharray="0.5,0.5" stroke-width="0.2" stroke="#D0D0E0" id="fig-6c8ad3f6bbe44c32890bbf30cd7a3db1-element-8">
      <path fill="none" d="M21.31,56.92 L 198.2 56.92"/>
      <path fill="none" d="M21.31,44.44 L 198.2 44.44"/>
      <path fill="none" d="M21.31,31.96 L 198.2 31.96"/>
      <path fill="none" d="M21.31,19.48 L 198.2 19.48"/>
      <path fill="none" d="M21.31,7 L 198.2 7"/>
    </g>
    <g class="guide xgridlines yfixed" stroke-dasharray="0.5,0.5" stroke-width="0.2" stroke="#D0D0E0" id="fig-6c8ad3f6bbe44c32890bbf30cd7a3db1-element-9">
      <path fill="none" d="M93.09,5 L 93.09 58.91"/>
      <path fill="none" d="M170,5 L 170 58.91"/>
    </g>
    <g class="plotpanel" id="fig-6c8ad3f6bbe44c32890bbf30cd7a3db1-element-10">
      <g stroke-width="0.79" fill="none" class="geometry color_1.0" stroke="#FFD700" id="fig-6c8ad3f6bbe44c32890bbf30cd7a3db1-element-11">
        <path fill="none" d="M23.87,48.43 L 31.56 47.91 34.12 47.53 36.69 47.31 39.25 47.13 41.81 46.88 44.38 46.63 46.94 46.21 49.51 45.88 52.07 45.91 54.63 45.58 57.2 45.33 59.76 45.09 62.32 44.69 64.89 44.41 67.45 43.64 70.02 42.86 72.58 42.59 75.14 42.09 77.71 41.87 80.27 41.74 82.83 41.57 85.4 42.49 87.96 42.19 90.52 42.02 93.09 41.89 95.65 41.82 98.22 41.52 100.78 40.14 103.34 39 105.91 38.77 113.6 36.67 126.42 34.23 128.98 34.15 131.54 31.78 134.11 30.71 136.67 30.41 139.23 29.69 141.8 29.26 152.05 26.57 154.62 26.22 167.44 23.57 172.56 22.55 175.13 22.12 177.69 21.68 180.25 21.28 182.82 20.48 185.38 20.23 187.95 20.35 195.64 19.23"/>
      </g>
    </g>
  </g>
  <g class="guide ylabels" font-size="2.82" font-family="'PT Sans Caption','Helvetica Neue','Helvetica',sans-serif" fill="#6C606B" id="fig-6c8ad3f6bbe44c32890bbf30cd7a3db1-element-12">
    <text x="20.31" y="56.92" text-anchor="end" dy="0.35em">4000</text>
    <text x="20.31" y="44.44" text-anchor="end" dy="0.35em">4500</text>
    <text x="20.31" y="31.96" text-anchor="end" dy="0.35em">5000</text>
    <text x="20.31" y="19.48" text-anchor="end" dy="0.35em">5500</text>
    <text x="20.31" y="7" text-anchor="end" dy="0.35em">6000</text>
  </g>
</g>
<defs>
<clipPath id="fig-6c8ad3f6bbe44c32890bbf30cd7a3db1-element-6">
  <path d="M21.31,5 L 198.2 5 198.2 58.91 21.31 58.91" />
</clipPath
></defs>
</svg>
