<?xml version="1.0" encoding="UTF-8"?>
<svg xmlns="http://www.w3.org/2000/svg"
     xmlns:xlink="http://www.w3.org/1999/xlink"
     xmlns:gadfly="http://www.gadflyjl.org/ns"
     version="1.2"
     width="203.2mm" height="76.2mm" viewBox="0 0 203.2 76.2"
     stroke="none"
     fill="#000000"
     stroke-width="0.3"
     font-size="3.88"
>
<g class="plotroot xscalable yscalable" id="fig-9e805c93e6584d3891fdb0c60f76f337-element-1">
  <g font-size="3.88" font-family="'PT Sans','Helvetica Neue','Helvetica',sans-serif" fill="#564A55" stroke="none" id="fig-9e805c93e6584d3891fdb0c60f76f337-element-2">
    <text x="109.75" y="68.2" text-anchor="middle">Date</text>
  </g>
  <g class="guide xlabels" font-size="2.82" font-family="'PT Sans Caption','Helvetica Neue','Helvetica',sans-serif" fill="#6C606B" id="fig-9e805c93e6584d3891fdb0c60f76f337-element-3">
    <text x="102.5" y="62.59" text-anchor="middle">Nev</text>
    <text x="189.5" y="62.59" text-anchor="middle">Dec</text>
  </g>
  <g font-size="3.88" font-family="'PT Sans','Helvetica Neue','Helvetica',sans-serif" fill="#564A55" stroke="none" id="fig-9e805c93e6584d3891fdb0c60f76f337-element-4">
    <text x="8.81" y="29.96" text-anchor="middle" dy="0.35em" transform="rotate(-90, 8.81, 31.96)">Number of Stars</text>
  </g>
  <g clip-path="url(#fig-9e805c93e6584d3891fdb0c60f76f337-element-6)" id="fig-9e805c93e6584d3891fdb0c60f76f337-element-5">
    <g pointer-events="visible" opacity="1" fill="none" stroke="none" class="guide background" id="fig-9e805c93e6584d3891fdb0c60f76f337-element-7">
      <rect x="21.31" y="5" width="176.89" height="53.91"/>
    </g>
    <g class="guide ygridlines xfixed" stroke-dasharray="0.5,0.5" stroke-width="0.2" stroke="#D0D0E0" id="fig-9e805c93e6584d3891fdb0c60f76f337-element-8">
      <path fill="none" d="M21.31,56.91 L 198.2 56.91"/>
      <path fill="none" d="M21.31,40.28 L 198.2 40.28"/>
      <path fill="none" d="M21.31,23.64 L 198.2 23.64"/>
      <path fill="none" d="M21.31,7 L 198.2 7"/>
    </g>
    <g class="guide xgridlines yfixed" stroke-dasharray="0.5,0.5" stroke-width="0.2" stroke="#D0D0E0" id="fig-9e805c93e6584d3891fdb0c60f76f337-element-9">
      <path fill="none" d="M102.5,5 L 102.5 58.91"/>
      <path fill="none" d="M189.5,5 L 189.5 58.91"/>
    </g>
    <g class="plotpanel" id="fig-9e805c93e6584d3891fdb0c60f76f337-element-10">
      <g stroke-width="0.79" fill="none" class="geometry color_1.0" stroke="#FFD700" id="fig-9e805c93e6584d3891fdb0c60f76f337-element-11">
        <path fill="none" d="M24.2,45.6 L 32.9 44.9 35.8 44.4 38.7 44.1 41.6 43.87 44.5 43.54 47.4 43.21 50.3 42.64 53.2 42.21 56.1 42.24 59 41.81 61.9 41.47 64.8 41.14 67.7 40.61 70.6 40.24 73.5 39.21 76.4 38.18 79.3 37.81 82.2 37.15 85.1 36.85 88 36.68 90.9 36.45 93.8 37.68 96.7 37.28 99.6 37.05 102.5 36.88 105.4 36.78 108.3 36.38 111.2 34.55 114.1 33.02 117 32.72 125.7 29.93 140.2 26.67 143.1 26.57 146 23.41 148.9 21.97 151.8 21.58 154.7 20.61 157.6 20.04 169.2 16.45 172.1 15.98 186.6 12.46 192.4 11.09 195.3 10.53 198.2 9.93"/>
      </g>
    </g>
  </g>
  <g class="guide ylabels" font-size="2.82" font-family="'PT Sans Caption','Helvetica Neue','Helvetica',sans-serif" fill="#6C606B" id="fig-9e805c93e6584d3891fdb0c60f76f337-element-12">
    <text x="20.31" y="56.91" text-anchor="end" dy="0.35em">4000</text>
    <text x="20.31" y="40.28" text-anchor="end" dy="0.35em">4500</text>
    <text x="20.31" y="23.64" text-anchor="end" dy="0.35em">5000</text>
    <text x="20.31" y="7" text-anchor="end" dy="0.35em">5500</text>
  </g>
</g>
<defs>
<clipPath id="fig-9e805c93e6584d3891fdb0c60f76f337-element-6">
  <path d="M21.31,5 L 198.2 5 198.2 58.91 21.31 58.91" />
</clipPath
></defs>
</svg>
