<?xml version="1.0" encoding="UTF-8"?>
<svg xmlns="http://www.w3.org/2000/svg"
     xmlns:xlink="http://www.w3.org/1999/xlink"
     xmlns:gadfly="http://www.gadflyjl.org/ns"
     version="1.2"
     width="203.2mm" height="76.2mm" viewBox="0 0 203.2 76.2"
     stroke="none"
     fill="#000000"
     stroke-width="0.3"
     font-size="3.88"
>
<g class="plotroot xscalable yscalable" id="fig-04afe1d678784cf8bdbae6687cb498f8-element-1">
  <g font-size="3.88" font-family="'PT Sans','Helvetica Neue','Helvetica',sans-serif" fill="#564A55" stroke="#000000" stroke-opacity="0.000" id="fig-04afe1d678784cf8bdbae6687cb498f8-element-2">
    <text x="112.46" y="64.59" text-anchor="middle" dy="0.6em">Date</text>
  </g>
  <g class="guide xlabels" font-size="2.82" font-family="'PT Sans Caption','Helvetica Neue','Helvetica',sans-serif" fill="#6C606B" id="fig-04afe1d678784cf8bdbae6687cb498f8-element-3">
    <text x="41.99" y="57.91" text-anchor="middle" dy="0.6em">Nov</text>
    <text x="56.72" y="57.91" text-anchor="middle" dy="0.6em">Dec</text>
    <text x="71.94" y="57.91" text-anchor="middle" dy="0.6em">Jan 2015</text>
    <text x="87.17" y="57.91" text-anchor="middle" dy="0.6em">Feb</text>
    <text x="100.92" y="57.91" text-anchor="middle" dy="0.6em">Mar</text>
    <text x="116.15" y="57.91" text-anchor="middle" dy="0.6em">Apr</text>
    <text x="130.88" y="57.91" text-anchor="middle" dy="0.6em">May</text>
    <text x="146.1" y="57.91" text-anchor="middle" dy="0.6em">Jun</text>
    <text x="160.84" y="57.91" text-anchor="middle" dy="0.6em">Jul</text>
    <text x="176.06" y="57.91" text-anchor="middle" dy="0.6em">Aug</text>
    <text x="191.29" y="57.91" text-anchor="middle" dy="0.6em">Sep</text>
  </g>
  <g clip-path="url(#fig-04afe1d678784cf8bdbae6687cb498f8-element-5)" id="fig-04afe1d678784cf8bdbae6687cb498f8-element-4">
    <g pointer-events="visible" opacity="1" fill="#000000" fill-opacity="0.000" stroke="#000000" stroke-opacity="0.000" class="guide background" id="fig-04afe1d678784cf8bdbae6687cb498f8-element-6">
      <rect x="26.72" y="5" width="171.47" height="51.91"/>
    </g>
    <g class="guide ygridlines xfixed" stroke-dasharray="0.5,0.5" stroke-width="0.2" stroke="#D0D0E0" id="fig-04afe1d678784cf8bdbae6687cb498f8-element-7">
      <path fill="none" d="M26.72,54.91 L 198.2 54.91"/>
      <path fill="none" d="M26.72,46.93 L 198.2 46.93"/>
      <path fill="none" d="M26.72,38.94 L 198.2 38.94"/>
      <path fill="none" d="M26.72,30.96 L 198.2 30.96"/>
      <path fill="none" d="M26.72,22.97 L 198.2 22.97"/>
      <path fill="none" d="M26.72,14.99 L 198.2 14.99"/>
      <path fill="none" d="M26.72,7 L 198.2 7"/>
    </g>
    <g class="guide xgridlines yfixed" stroke-dasharray="0.5,0.5" stroke-width="0.2" stroke="#D0D0E0" id="fig-04afe1d678784cf8bdbae6687cb498f8-element-8">
      <path fill="none" d="M41.99,5 L 41.99 56.91"/>
      <path fill="none" d="M56.72,5 L 56.72 56.91"/>
      <path fill="none" d="M71.94,5 L 71.94 56.91"/>
      <path fill="none" d="M87.17,5 L 87.17 56.91"/>
      <path fill="none" d="M100.92,5 L 100.92 56.91"/>
      <path fill="none" d="M116.15,5 L 116.15 56.91"/>
      <path fill="none" d="M130.88,5 L 130.88 56.91"/>
      <path fill="none" d="M146.1,5 L 146.1 56.91"/>
      <path fill="none" d="M160.84,5 L 160.84 56.91"/>
      <path fill="none" d="M176.06,5 L 176.06 56.91"/>
      <path fill="none" d="M191.29,5 L 191.29 56.91"/>
    </g>
    <g class="plotpanel" id="fig-04afe1d678784cf8bdbae6687cb498f8-element-9">
      <g stroke-width="0.79" fill="#000000" fill-opacity="0.000" class="geometry color_1.0" stroke="#FFD700" id="fig-04afe1d678784cf8bdbae6687cb498f8-element-10">
        <path fill="none" d="M28.73,52.2 L 30.2 52.03 30.69 51.91 31.18 51.84 31.67 51.78 32.16 51.7 32.65 51.62 33.15 51.49 33.64 51.39 34.13 51.39 34.62 51.29 35.11 51.21 35.6 51.13 36.09 51 36.58 50.91 37.07 50.67 37.57 50.42 38.06 50.33 38.55 50.17 39.04 50.1 39.53 50.06 40.02 50 40.51 50.3 41 50.2 41.49 50.15 41.99 50.11 42.48 50.08 42.97 49.99 43.46 49.55 43.95 49.18 44.44 49.11 45.91 48.44 48.37 47.66 48.86 47.63 49.35 46.87 49.84 46.53 50.33 46.43 50.83 46.2 51.32 46.07 53.28 45.2 53.77 45.09 56.23 44.25 57.21 43.92 57.7 43.78 58.19 43.64 58.68 43.51 59.18 43.26 59.67 43.18 60.16 43.22 61.63 42.86 62.12 42.59 63.1 42.36 63.6 42.2 64.09 42.03 65.56 41.94 66.54 41.72 68.02 41.3 69.98 40.96 70.96 40.34 72.44 39.94 75.87 39.19 77.84 38.57 78.33 38.46 78.82 38.42 79.31 38.18 79.8 38.06 80.29 38.05 81.28 37.88 81.77 37.82 82.26 37.71 82.75 37.61 83.24 37.56 83.73 37.54 84.22 37.51 85.2 37.32 85.7 37.15 86.19 37.11 88.15 36.68 88.64 36.48 89.13 36.39 90.12 36.24 91.1 36.06 91.59 36 93.06 35.64 95.52 35.02 97.97 33.9 100.43 33.39 100.92 33.13 101.41 33.01 101.9 32.79 102.39 32.58 103.38 32.3 104.36 32.04 106.32 31.59 106.81 31.48 107.31 31.3 107.8 31.24 108.29 31.13 108.78 30.9 109.27 30.79 115.16 29.7 116.15 29.46 116.64 29.38 117.62 29.25 119.58 28.71 120.57 28.59 121.55 28.41 123.51 27.96 124.5 27.78 124.99 27.72 125.97 27.38 126.46 27.31 126.95 27.19 127.44 27.12 127.93 27.02 128.42 26.92 129.41 26.69 129.9 26.6 130.88 26.34 131.86 26.07 132.35 25.94 132.84 25.71 133.83 25.53 134.32 25.29 136.77 24.78 138.74 24.29 139.23 24.1 143.16 23.39 143.65 23.32 144.14 23.28 145.61 22.91 146.1 22.72 146.6 22.57 147.58 22.36 148.56 22.13 149.54 21.68 153.96 19.38 155.93 18.83 156.42 18.72 156.91 19.02 157.4 19.06 157.89 18.93 158.38 18.84 158.87 18.72 160.35 18.48 161.33 18.34 162.31 18.17 162.8 18.09 163.29 17.87 163.79 17.57 164.28 17.43 164.77 17.33 173.12 14.86 177.05 14.12 181.47 12.81 189.82 9.08 191.29 9.28 193.74 8.54 196.2 7.66"/>
      </g>
    </g>
  </g>
  <g class="guide ylabels" font-size="2.82" font-family="'PT Sans Caption','Helvetica Neue','Helvetica',sans-serif" fill="#6C606B" id="fig-04afe1d678784cf8bdbae6687cb498f8-element-11">
    <text x="25.72" y="54.91" text-anchor="end" dy="0.35em">4.0×10³</text>
    <text x="25.72" y="46.93" text-anchor="end" dy="0.35em">5.0×10³</text>
    <text x="25.72" y="38.94" text-anchor="end" dy="0.35em">6.0×10³</text>
    <text x="25.72" y="30.96" text-anchor="end" dy="0.35em">7.0×10³</text>
    <text x="25.72" y="22.97" text-anchor="end" dy="0.35em">8.0×10³</text>
    <text x="25.72" y="14.99" text-anchor="end" dy="0.35em">9.0×10³</text>
    <text x="25.72" y="7" text-anchor="end" dy="0.35em">1.0×10⁴</text>
  </g>
  <g font-size="3.88" font-family="'PT Sans','Helvetica Neue','Helvetica',sans-serif" fill="#564A55" stroke="#000000" stroke-opacity="0.000" id="fig-04afe1d678784cf8bdbae6687cb498f8-element-12">
    <text x="8.81" y="28.96" text-anchor="middle" dy="0.35em" transform="rotate(-90, 8.81, 30.96)">Number of Stars</text>
  </g>
</g>
<defs>
<clipPath id="fig-04afe1d678784cf8bdbae6687cb498f8-element-5">
  <path d="M26.72,5 L 198.2 5 198.2 56.91 26.72 56.91" />
</clipPath
></defs>
</svg>
