<?xml version="1.0" encoding="UTF-8"?>
<svg xmlns="http://www.w3.org/2000/svg"
     xmlns:xlink="http://www.w3.org/1999/xlink"
     xmlns:gadfly="http://www.gadflyjl.org/ns"
     version="1.2"
     width="203.2mm" height="76.2mm" viewBox="0 0 203.2 76.2"
     stroke="none"
     fill="#000000"
     stroke-width="0.3"
     font-size="3.88"
>
<g class="plotroot xscalable yscalable" id="fig-82e6a423fc584f7cbca238fb6af882a1-element-1">
  <g font-size="3.88" font-family="'PT Sans','Helvetica Neue','Helvetica',sans-serif" fill="#564A55" stroke="none" id="fig-82e6a423fc584f7cbca238fb6af882a1-element-2">
    <text x="109.75" y="68.2" text-anchor="middle">Date</text>
  </g>
  <g class="guide xlabels" font-size="2.82" font-family="'PT Sans Caption','Helvetica Neue','Helvetica',sans-serif" fill="#6C606B" id="fig-82e6a423fc584f7cbca238fb6af882a1-element-3">
    <text x="68.48" y="62.59" text-anchor="middle">Nov</text>
    <text x="119.02" y="62.59" text-anchor="middle">Dec</text>
    <text x="171.24" y="62.59" text-anchor="middle">Jan 2015</text>
  </g>
  <g font-size="3.88" font-family="'PT Sans','Helvetica Neue','Helvetica',sans-serif" fill="#564A55" stroke="none" id="fig-82e6a423fc584f7cbca238fb6af882a1-element-4">
    <text x="8.81" y="29.96" text-anchor="middle" dy="0.35em" transform="rotate(-90, 8.81, 31.96)">Number of Stars</text>
  </g>
  <g clip-path="url(#fig-82e6a423fc584f7cbca238fb6af882a1-element-6)" id="fig-82e6a423fc584f7cbca238fb6af882a1-element-5">
    <g pointer-events="visible" opacity="1" fill="none" stroke="none" class="guide background" id="fig-82e6a423fc584f7cbca238fb6af882a1-element-7">
      <rect x="21.31" y="5" width="176.89" height="53.91"/>
    </g>
    <g class="guide ygridlines xfixed" stroke-dasharray="0.5,0.5" stroke-width="0.2" stroke="#D0D0E0" id="fig-82e6a423fc584f7cbca238fb6af882a1-element-8">
      <path fill="none" d="M21.31,56.91 L 198.2 56.91"/>
      <path fill="none" d="M21.31,46.93 L 198.2 46.93"/>
      <path fill="none" d="M21.31,36.95 L 198.2 36.95"/>
      <path fill="none" d="M21.31,26.97 L 198.2 26.97"/>
      <path fill="none" d="M21.31,16.98 L 198.2 16.98"/>
      <path fill="none" d="M21.31,7 L 198.2 7"/>
    </g>
    <g class="guide xgridlines yfixed" stroke-dasharray="0.5,0.5" stroke-width="0.2" stroke="#D0D0E0" id="fig-82e6a423fc584f7cbca238fb6af882a1-element-9">
      <path fill="none" d="M68.48,5 L 68.48 58.91"/>
      <path fill="none" d="M119.02,5 L 119.02 58.91"/>
      <path fill="none" d="M171.24,5 L 171.24 58.91"/>
    </g>
    <g class="plotpanel" id="fig-82e6a423fc584f7cbca238fb6af882a1-element-10">
      <g stroke-width="0.79" fill="none" class="geometry color_1.0" stroke="#FFD700" id="fig-82e6a423fc584f7cbca238fb6af882a1-element-11">
        <path fill="none" d="M22.99,50.13 L 28.04 49.71 29.73 49.41 31.41 49.23 33.1 49.09 34.78 48.89 36.47 48.69 38.15 48.35 39.84 48.09 41.52 48.11 43.21 47.85 44.89 47.65 46.58 47.45 48.26 47.13 49.95 46.91 51.63 46.29 53.31 45.67 55 45.45 56.68 45.06 58.37 44.88 60.05 44.78 61.74 44.64 63.42 45.37 65.11 45.14 66.79 45 68.48 44.9 70.16 44.84 71.85 44.6 73.53 43.5 75.22 42.58 76.9 42.4 81.95 40.72 90.38 38.77 92.06 38.71 93.75 36.81 95.43 35.95 97.12 35.71 98.8 35.13 100.49 34.79 107.23 32.64 108.91 32.36 117.33 30.24 120.7 29.42 122.39 29.08 124.07 28.72 125.76 28.4 127.44 27.76 129.13 27.56 130.81 27.66 135.87 26.77 137.55 26.11 140.92 25.53 142.6 25.13 144.29 24.71 149.34 24.47 152.71 23.93 157.77 22.87 164.51 22.03 167.88 20.48 172.93 19.48 184.72 17.6 191.46 16.04 193.15 15.77 194.83 15.69 196.52 15.09"/>
      </g>
    </g>
  </g>
  <g class="guide ylabels" font-size="2.82" font-family="'PT Sans Caption','Helvetica Neue','Helvetica',sans-serif" fill="#6C606B" id="fig-82e6a423fc584f7cbca238fb6af882a1-element-12">
    <text x="20.31" y="56.91" text-anchor="end" dy="0.35em">4000</text>
    <text x="20.31" y="46.93" text-anchor="end" dy="0.35em">4500</text>
    <text x="20.31" y="36.95" text-anchor="end" dy="0.35em">5000</text>
    <text x="20.31" y="26.97" text-anchor="end" dy="0.35em">5500</text>
    <text x="20.31" y="16.98" text-anchor="end" dy="0.35em">6000</text>
    <text x="20.31" y="7" text-anchor="end" dy="0.35em">6500</text>
  </g>
</g>
<defs>
<clipPath id="fig-82e6a423fc584f7cbca238fb6af882a1-element-6">
  <path d="M21.31,5 L 198.2 5 198.2 58.91 21.31 58.91" />
</clipPath
></defs>
</svg>
