<?xml version="1.0" encoding="UTF-8"?>
<svg xmlns="http://www.w3.org/2000/svg"
     xmlns:xlink="http://www.w3.org/1999/xlink"
     xmlns:gadfly="http://www.gadflyjl.org/ns"
     version="1.2"
     width="203.2mm" height="76.2mm" viewBox="0 0 203.2 76.2"
     stroke="none"
     fill="#000000"
     stroke-width="0.3"
     font-size="3.88"
>
<g class="plotroot xscalable yscalable" id="fig-b52ea6e51da740eaae221cc1948984e4-element-1">
  <g font-size="3.88" font-family="'PT Sans','Helvetica Neue','Helvetica',sans-serif" fill="#564A55" stroke="none" id="fig-b52ea6e51da740eaae221cc1948984e4-element-2">
    <text x="109.75" y="68.2" text-anchor="middle">Date</text>
  </g>
  <g class="guide xlabels" font-size="2.82" font-family="'PT Sans Caption','Helvetica Neue','Helvetica',sans-serif" fill="#6C606B" id="fig-b52ea6e51da740eaae221cc1948984e4-element-3">
    <text x="68.03" y="62.59" text-anchor="middle">Nov</text>
    <text x="118.1" y="62.59" text-anchor="middle">Dec</text>
    <text x="169.83" y="62.59" text-anchor="middle">Jan 2015</text>
  </g>
  <g font-size="3.88" font-family="'PT Sans','Helvetica Neue','Helvetica',sans-serif" fill="#564A55" stroke="none" id="fig-b52ea6e51da740eaae221cc1948984e4-element-4">
    <text x="8.81" y="29.96" text-anchor="middle" dy="0.35em" transform="rotate(-90, 8.81, 31.96)">Number of Stars</text>
  </g>
  <g clip-path="url(#fig-b52ea6e51da740eaae221cc1948984e4-element-6)" id="fig-b52ea6e51da740eaae221cc1948984e4-element-5">
    <g pointer-events="visible" opacity="1" fill="none" stroke="none" class="guide background" id="fig-b52ea6e51da740eaae221cc1948984e4-element-7">
      <rect x="21.31" y="5" width="176.89" height="53.91"/>
    </g>
    <g class="guide ygridlines xfixed" stroke-dasharray="0.5,0.5" stroke-width="0.2" stroke="#D0D0E0" id="fig-b52ea6e51da740eaae221cc1948984e4-element-8">
      <path fill="none" d="M21.31,56.91 L 198.2 56.91"/>
      <path fill="none" d="M21.31,46.93 L 198.2 46.93"/>
      <path fill="none" d="M21.31,36.95 L 198.2 36.95"/>
      <path fill="none" d="M21.31,26.97 L 198.2 26.97"/>
      <path fill="none" d="M21.31,16.98 L 198.2 16.98"/>
      <path fill="none" d="M21.31,7 L 198.2 7"/>
    </g>
    <g class="guide xgridlines yfixed" stroke-dasharray="0.5,0.5" stroke-width="0.2" stroke="#D0D0E0" id="fig-b52ea6e51da740eaae221cc1948984e4-element-9">
      <path fill="none" d="M68.03,5 L 68.03 58.91"/>
      <path fill="none" d="M118.1,5 L 118.1 58.91"/>
      <path fill="none" d="M169.83,5 L 169.83 58.91"/>
    </g>
    <g class="plotpanel" id="fig-b52ea6e51da740eaae221cc1948984e4-element-10">
      <g stroke-width="0.79" fill="none" class="geometry color_1.0" stroke="#FFD700" id="fig-b52ea6e51da740eaae221cc1948984e4-element-11">
        <path fill="none" d="M22.97,50.13 L 27.98 49.71 29.65 49.41 31.32 49.23 32.99 49.09 34.66 48.89 36.32 48.69 37.99 48.35 39.66 48.09 41.33 48.11 43 47.85 44.67 47.65 46.34 47.45 48.01 47.13 49.67 46.91 51.34 46.29 53.01 45.67 54.68 45.45 56.35 45.06 58.02 44.88 59.69 44.78 61.36 44.64 63.03 45.37 64.69 45.14 66.36 45 68.03 44.9 69.7 44.84 71.37 44.6 73.04 43.5 74.71 42.58 76.38 42.4 81.38 40.72 89.73 38.77 91.4 38.71 93.06 36.81 94.73 35.95 96.4 35.71 98.07 35.13 99.74 34.79 106.41 32.64 108.08 32.36 116.43 30.24 119.77 29.42 121.43 29.08 123.1 28.72 124.77 28.4 126.44 27.76 128.11 27.56 129.78 27.66 134.78 26.77 136.45 26.11 139.79 25.53 141.46 25.13 143.13 24.71 148.14 24.47 151.47 23.93 156.48 22.87 163.15 22.03 166.49 20.48 171.5 19.48 183.18 17.6 189.86 16.04 191.52 15.77 193.19 15.69 194.86 15.09 196.53 14.77"/>
      </g>
    </g>
  </g>
  <g class="guide ylabels" font-size="2.82" font-family="'PT Sans Caption','Helvetica Neue','Helvetica',sans-serif" fill="#6C606B" id="fig-b52ea6e51da740eaae221cc1948984e4-element-12">
    <text x="20.31" y="56.91" text-anchor="end" dy="0.35em">4000</text>
    <text x="20.31" y="46.93" text-anchor="end" dy="0.35em">4500</text>
    <text x="20.31" y="36.95" text-anchor="end" dy="0.35em">5000</text>
    <text x="20.31" y="26.97" text-anchor="end" dy="0.35em">5500</text>
    <text x="20.31" y="16.98" text-anchor="end" dy="0.35em">6000</text>
    <text x="20.31" y="7" text-anchor="end" dy="0.35em">6500</text>
  </g>
</g>
<defs>
<clipPath id="fig-b52ea6e51da740eaae221cc1948984e4-element-6">
  <path d="M21.31,5 L 198.2 5 198.2 58.91 21.31 58.91" />
</clipPath
></defs>
</svg>
