<?xml version="1.0" encoding="UTF-8"?>
<svg xmlns="http://www.w3.org/2000/svg"
     xmlns:xlink="http://www.w3.org/1999/xlink"
     xmlns:gadfly="http://www.gadflyjl.org/ns"
     version="1.2"
     width="203.2mm" height="76.2mm" viewBox="0 0 203.2 76.2"
     stroke="none"
     fill="#000000"
     stroke-width="0.3"
     font-size="3.88"
>
<g class="plotroot xscalable yscalable" id="fig-5b2c82f2315044d8b0723d14acf2a922-element-1">
  <g font-size="3.88" font-family="'PT Sans','Helvetica Neue','Helvetica',sans-serif" fill="#564A55" stroke="none" id="fig-5b2c82f2315044d8b0723d14acf2a922-element-2">
    <text x="109.75" y="68.2" text-anchor="middle">Date</text>
  </g>
  <g class="guide xlabels" font-size="2.82" font-family="'PT Sans Caption','Helvetica Neue','Helvetica',sans-serif" fill="#6C606B" id="fig-5b2c82f2315044d8b0723d14acf2a922-element-3">
    <text x="69.86" y="62.59" text-anchor="middle">Nov</text>
    <text x="121.89" y="62.59" text-anchor="middle">Dec</text>
    <text x="175.65" y="62.59" text-anchor="middle">Jan 2015</text>
  </g>
  <g font-size="3.88" font-family="'PT Sans','Helvetica Neue','Helvetica',sans-serif" fill="#564A55" stroke="none" id="fig-5b2c82f2315044d8b0723d14acf2a922-element-4">
    <text x="8.81" y="29.96" text-anchor="middle" dy="0.35em" transform="rotate(-90, 8.81, 31.96)">Number of Stars</text>
  </g>
  <g clip-path="url(#fig-5b2c82f2315044d8b0723d14acf2a922-element-6)" id="fig-5b2c82f2315044d8b0723d14acf2a922-element-5">
    <g pointer-events="visible" opacity="1" fill="none" stroke="none" class="guide background" id="fig-5b2c82f2315044d8b0723d14acf2a922-element-7">
      <rect x="21.31" y="5" width="176.89" height="53.91"/>
    </g>
    <g class="guide ygridlines xfixed" stroke-dasharray="0.5,0.5" stroke-width="0.2" stroke="#D0D0E0" id="fig-5b2c82f2315044d8b0723d14acf2a922-element-8">
      <path fill="none" d="M21.31,56.91 L 198.2 56.91"/>
      <path fill="none" d="M21.31,46.93 L 198.2 46.93"/>
      <path fill="none" d="M21.31,36.95 L 198.2 36.95"/>
      <path fill="none" d="M21.31,26.97 L 198.2 26.97"/>
      <path fill="none" d="M21.31,16.98 L 198.2 16.98"/>
      <path fill="none" d="M21.31,7 L 198.2 7"/>
    </g>
    <g class="guide xgridlines yfixed" stroke-dasharray="0.5,0.5" stroke-width="0.2" stroke="#D0D0E0" id="fig-5b2c82f2315044d8b0723d14acf2a922-element-9">
      <path fill="none" d="M69.86,5 L 69.86 58.91"/>
      <path fill="none" d="M121.89,5 L 121.89 58.91"/>
      <path fill="none" d="M175.65,5 L 175.65 58.91"/>
    </g>
    <g class="plotpanel" id="fig-5b2c82f2315044d8b0723d14acf2a922-element-10">
      <g stroke-width="0.79" fill="none" class="geometry color_1.0" stroke="#FFD700" id="fig-5b2c82f2315044d8b0723d14acf2a922-element-11">
        <path fill="none" d="M23.04,50.13 L 28.24 49.71 29.98 49.41 31.71 49.23 33.44 49.09 35.18 48.89 36.91 48.69 38.65 48.35 40.38 48.09 42.12 48.11 43.85 47.85 45.58 47.65 47.32 47.45 49.05 47.13 50.79 46.91 52.52 46.29 54.26 45.67 55.99 45.45 57.72 45.06 59.46 44.88 61.19 44.78 62.93 44.64 64.66 45.37 66.4 45.14 68.13 45 69.86 44.9 71.6 44.84 73.33 44.6 75.07 43.5 76.8 42.58 78.54 42.4 83.74 40.72 92.41 38.77 94.14 38.71 95.88 36.81 97.61 35.95 99.35 35.71 101.08 35.13 102.82 34.79 109.75 32.64 111.49 32.36 120.16 30.24 123.63 29.42 125.36 29.08 127.1 28.72 128.83 28.4 130.56 27.76 132.3 27.56 134.03 27.66 139.23 26.77 140.97 26.11 144.44 25.53 146.17 25.13 147.91 24.71 153.11 24.47 156.58 23.93 161.78 22.87 168.72 22.03 172.19 20.48 177.39 19.48 189.53 17.6 196.47 16.04"/>
      </g>
    </g>
  </g>
  <g class="guide ylabels" font-size="2.82" font-family="'PT Sans Caption','Helvetica Neue','Helvetica',sans-serif" fill="#6C606B" id="fig-5b2c82f2315044d8b0723d14acf2a922-element-12">
    <text x="20.31" y="56.91" text-anchor="end" dy="0.35em">4000</text>
    <text x="20.31" y="46.93" text-anchor="end" dy="0.35em">4500</text>
    <text x="20.31" y="36.95" text-anchor="end" dy="0.35em">5000</text>
    <text x="20.31" y="26.97" text-anchor="end" dy="0.35em">5500</text>
    <text x="20.31" y="16.98" text-anchor="end" dy="0.35em">6000</text>
    <text x="20.31" y="7" text-anchor="end" dy="0.35em">6500</text>
  </g>
</g>
<defs>
<clipPath id="fig-5b2c82f2315044d8b0723d14acf2a922-element-6">
  <path d="M21.31,5 L 198.2 5 198.2 58.91 21.31 58.91" />
</clipPath
></defs>
</svg>
