<?xml version="1.0" encoding="UTF-8"?>
<svg xmlns="http://www.w3.org/2000/svg"
     xmlns:xlink="http://www.w3.org/1999/xlink"
     xmlns:gadfly="http://www.gadflyjl.org/ns"
     version="1.2"
     width="203.2mm" height="76.2mm" viewBox="0 0 203.2 76.2"
     stroke="none"
     fill="#000000"
     stroke-width="0.3"
     font-size="3.88"
>
<g class="plotroot xscalable yscalable" id="fig-77f8f7772f124ab194483c833e89d1a6-element-1">
  <g font-size="3.88" font-family="'PT Sans','Helvetica Neue','Helvetica',sans-serif" fill="#564A55" stroke="none" id="fig-77f8f7772f124ab194483c833e89d1a6-element-2">
    <text x="109.75" y="68.2" text-anchor="middle">Date</text>
  </g>
  <g class="guide xlabels" font-size="2.82" font-family="'PT Sans Caption','Helvetica Neue','Helvetica',sans-serif" fill="#6C606B" id="fig-77f8f7772f124ab194483c833e89d1a6-element-3">
    <text x="24.35" y="62.59" text-anchor="middle">Oct 5 2014</text>
    <text x="45.7" y="62.59" text-anchor="middle">12</text>
    <text x="67.05" y="62.59" text-anchor="middle">19</text>
    <text x="88.4" y="62.59" text-anchor="middle">26</text>
    <text x="106.7" y="62.59" text-anchor="middle">Nev 1</text>
    <text x="128.05" y="62.59" text-anchor="middle">8</text>
    <text x="149.4" y="62.59" text-anchor="middle">15</text>
    <text x="170.75" y="62.59" text-anchor="middle">22</text>
    <text x="198.2" y="62.59" text-anchor="middle">Dec 1</text>
  </g>
  <g font-size="3.88" font-family="'PT Sans','Helvetica Neue','Helvetica',sans-serif" fill="#564A55" stroke="none" id="fig-77f8f7772f124ab194483c833e89d1a6-element-4">
    <text x="8.81" y="29.96" text-anchor="middle" dy="0.35em" transform="rotate(-90, 8.81, 31.96)">Number of Stars</text>
  </g>
  <g clip-path="url(#fig-77f8f7772f124ab194483c833e89d1a6-element-6)" id="fig-77f8f7772f124ab194483c833e89d1a6-element-5">
    <g pointer-events="visible" opacity="1" fill="none" stroke="none" class="guide background" id="fig-77f8f7772f124ab194483c833e89d1a6-element-7">
      <rect x="21.31" y="5" width="176.89" height="53.91"/>
    </g>
    <g class="guide ygridlines xfixed" stroke-dasharray="0.5,0.5" stroke-width="0.2" stroke="#D0D0E0" id="fig-77f8f7772f124ab194483c833e89d1a6-element-8">
      <path fill="none" d="M21.31,56.92 L 198.2 56.92"/>
      <path fill="none" d="M21.31,44.44 L 198.2 44.44"/>
      <path fill="none" d="M21.31,31.96 L 198.2 31.96"/>
      <path fill="none" d="M21.31,19.48 L 198.2 19.48"/>
      <path fill="none" d="M21.31,7 L 198.2 7"/>
    </g>
    <g class="guide xgridlines yfixed" stroke-dasharray="0.5,0.5" stroke-width="0.2" stroke="#D0D0E0" id="fig-77f8f7772f124ab194483c833e89d1a6-element-9">
      <path fill="none" d="M24.35,5 L 24.35 58.91"/>
      <path fill="none" d="M45.7,5 L 45.7 58.91"/>
      <path fill="none" d="M67.05,5 L 67.05 58.91"/>
      <path fill="none" d="M88.4,5 L 88.4 58.91"/>
      <path fill="none" d="M106.7,5 L 106.7 58.91"/>
      <path fill="none" d="M128.05,5 L 128.05 58.91"/>
      <path fill="none" d="M149.4,5 L 149.4 58.91"/>
      <path fill="none" d="M170.75,5 L 170.75 58.91"/>
      <path fill="none" d="M198.2,5 L 198.2 58.91"/>
    </g>
    <g class="plotpanel" id="fig-77f8f7772f124ab194483c833e89d1a6-element-10">
      <g stroke-width="0.79" fill="none" class="geometry color_1.0" stroke="#FFD700" id="fig-77f8f7772f124ab194483c833e89d1a6-element-11">
        <path fill="none" d="M24.35,52.42 L 33.5 51.37 36.55 50.63 39.6 50.18 42.65 49.83 45.7 49.33 48.75 48.83 51.8 47.98 54.85 47.33 57.9 47.38 60.95 46.73 64 46.23 67.05 45.73 70.1 44.94 73.15 44.39 76.2 42.84 79.25 41.29 82.3 40.74 85.35 39.74 88.4 39.3 91.45 39.05 94.5 38.7 97.55 40.54 100.6 39.94 103.65 39.59 106.7 39.34 109.75 39.2 112.8 38.6 115.85 35.85 118.9 33.55 121.95 33.11 131.1 28.91 146.35 24.02 149.4 23.87 152.45 19.13 155.5 16.98 158.55 16.38 161.6 14.94 164.65 14.09 176.85 8.7"/>
      </g>
    </g>
  </g>
  <g class="guide ylabels" font-size="2.82" font-family="'PT Sans Caption','Helvetica Neue','Helvetica',sans-serif" fill="#6C606B" id="fig-77f8f7772f124ab194483c833e89d1a6-element-12">
    <text x="20.31" y="56.92" text-anchor="end" dy="0.35em">4250</text>
    <text x="20.31" y="44.44" text-anchor="end" dy="0.35em">4500</text>
    <text x="20.31" y="31.96" text-anchor="end" dy="0.35em">4750</text>
    <text x="20.31" y="19.48" text-anchor="end" dy="0.35em">5000</text>
    <text x="20.31" y="7" text-anchor="end" dy="0.35em">5250</text>
  </g>
</g>
<defs>
<clipPath id="fig-77f8f7772f124ab194483c833e89d1a6-element-6">
  <path d="M21.31,5 L 198.2 5 198.2 58.91 21.31 58.91" />
</clipPath
></defs>
</svg>
