<?xml version="1.0" encoding="UTF-8"?>
<svg xmlns="http://www.w3.org/2000/svg"
     xmlns:xlink="http://www.w3.org/1999/xlink"
     xmlns:gadfly="http://www.gadflyjl.org/ns"
     version="1.2"
     width="203.2mm" height="76.2mm" viewBox="0 0 203.2 76.2"
     stroke="none"
     fill="#000000"
     stroke-width="0.3"
     font-size="3.88"
>
<g class="plotroot xscalable yscalable" id="fig-4f7ba4c39bb84cb0951c649b48ce6374-element-1">
  <g font-size="3.88" font-family="'PT Sans','Helvetica Neue','Helvetica',sans-serif" fill="#564A55" stroke="none" id="fig-4f7ba4c39bb84cb0951c649b48ce6374-element-2">
    <text x="109.75" y="68.2" text-anchor="middle">Date</text>
  </g>
  <g class="guide xlabels" font-size="2.82" font-family="'PT Sans Caption','Helvetica Neue','Helvetica',sans-serif" fill="#6C606B" id="fig-4f7ba4c39bb84cb0951c649b48ce6374-element-3">
    <text x="84" y="62.59" text-anchor="middle">Nov</text>
    <text x="151.18" y="62.59" text-anchor="middle">Dec</text>
  </g>
  <g font-size="3.88" font-family="'PT Sans','Helvetica Neue','Helvetica',sans-serif" fill="#564A55" stroke="none" id="fig-4f7ba4c39bb84cb0951c649b48ce6374-element-4">
    <text x="8.81" y="29.96" text-anchor="middle" dy="0.35em" transform="rotate(-90, 8.81, 31.96)">Number of Stars</text>
  </g>
  <g clip-path="url(#fig-4f7ba4c39bb84cb0951c649b48ce6374-element-6)" id="fig-4f7ba4c39bb84cb0951c649b48ce6374-element-5">
    <g pointer-events="visible" opacity="1" fill="none" stroke="none" class="guide background" id="fig-4f7ba4c39bb84cb0951c649b48ce6374-element-7">
      <rect x="21.31" y="5" width="176.89" height="53.92"/>
    </g>
    <g class="guide ygridlines xfixed" stroke-dasharray="0.5,0.5" stroke-width="0.2" stroke="#D0D0E0" id="fig-4f7ba4c39bb84cb0951c649b48ce6374-element-8">
      <path fill="none" d="M21.31,56.92 L 198.2 56.92"/>
      <path fill="none" d="M21.31,44.44 L 198.2 44.44"/>
      <path fill="none" d="M21.31,31.96 L 198.2 31.96"/>
      <path fill="none" d="M21.31,19.48 L 198.2 19.48"/>
      <path fill="none" d="M21.31,7 L 198.2 7"/>
    </g>
    <g class="guide xgridlines yfixed" stroke-dasharray="0.5,0.5" stroke-width="0.2" stroke="#D0D0E0" id="fig-4f7ba4c39bb84cb0951c649b48ce6374-element-9">
      <path fill="none" d="M84,5 L 84 58.92"/>
      <path fill="none" d="M151.18,5 L 151.18 58.92"/>
    </g>
    <g class="plotpanel" id="fig-4f7ba4c39bb84cb0951c649b48ce6374-element-10">
      <g stroke-width="0.79" fill="none" class="geometry color_1.0" stroke="#FFD700" id="fig-4f7ba4c39bb84cb0951c649b48ce6374-element-11">
        <path fill="none" d="M23.54,48.43 L 30.26 47.91 32.5 47.53 34.74 47.31 36.98 47.13 39.22 46.88 41.46 46.63 43.7 46.21 45.94 45.88 48.18 45.91 50.41 45.58 52.65 45.33 54.89 45.09 57.13 44.69 59.37 44.41 61.61 43.64 63.85 42.86 66.09 42.59 68.33 42.09 70.57 41.87 72.81 41.74 75.05 41.57 77.28 42.49 79.52 42.19 81.76 42.02 84 41.89 86.24 41.82 88.48 41.52 90.72 40.14 92.96 39 95.2 38.77 101.92 36.67 113.11 34.23 115.35 34.15 117.59 31.78 119.83 30.71 122.07 30.41 124.31 29.69 126.55 29.26 135.5 26.57 137.74 26.22 148.94 23.57 153.42 22.55 155.66 22.12 157.89 21.68 160.13 21.28 162.37 20.48 164.61 20.23 166.85 20.35 173.57 19.23 175.81 18.41 180.29 17.68 182.53 17.18 184.76 16.66 191.48 16.36 195.96 15.69"/>
      </g>
    </g>
  </g>
  <g class="guide ylabels" font-size="2.82" font-family="'PT Sans Caption','Helvetica Neue','Helvetica',sans-serif" fill="#6C606B" id="fig-4f7ba4c39bb84cb0951c649b48ce6374-element-12">
    <text x="20.31" y="56.92" text-anchor="end" dy="0.35em">4000</text>
    <text x="20.31" y="44.44" text-anchor="end" dy="0.35em">4500</text>
    <text x="20.31" y="31.96" text-anchor="end" dy="0.35em">5000</text>
    <text x="20.31" y="19.48" text-anchor="end" dy="0.35em">5500</text>
    <text x="20.31" y="7" text-anchor="end" dy="0.35em">6000</text>
  </g>
</g>
<defs>
<clipPath id="fig-4f7ba4c39bb84cb0951c649b48ce6374-element-6">
  <path d="M21.31,5 L 198.2 5 198.2 58.92 21.31 58.92" />
</clipPath
></defs>
</svg>
