<?xml version="1.0" encoding="UTF-8"?>
<svg xmlns="http://www.w3.org/2000/svg"
     xmlns:xlink="http://www.w3.org/1999/xlink"
     xmlns:gadfly="http://www.gadflyjl.org/ns"
     version="1.2"
     width="203.2mm" height="76.2mm" viewBox="0 0 203.2 76.2"
     stroke="none"
     fill="#000000"
     stroke-width="0.3"
     font-size="3.88"
>
<g class="plotroot xscalable yscalable" id="fig-2f0f7357f2994982ab6ae72febde41c2-element-1">
  <g font-size="3.88" font-family="'PT Sans','Helvetica Neue','Helvetica',sans-serif" fill="#564A55" stroke="none" id="fig-2f0f7357f2994982ab6ae72febde41c2-element-2">
    <text x="109.75" y="68.2" text-anchor="middle">Date</text>
  </g>
  <g class="guide xlabels" font-size="2.82" font-family="'PT Sans Caption','Helvetica Neue','Helvetica',sans-serif" fill="#6C606B" id="fig-2f0f7357f2994982ab6ae72febde41c2-element-3">
    <text x="99.93" y="62.59" text-anchor="middle">Nev</text>
    <text x="184.16" y="62.59" text-anchor="middle">Dec</text>
  </g>
  <g font-size="3.88" font-family="'PT Sans','Helvetica Neue','Helvetica',sans-serif" fill="#564A55" stroke="none" id="fig-2f0f7357f2994982ab6ae72febde41c2-element-4">
    <text x="8.81" y="29.96" text-anchor="middle" dy="0.35em" transform="rotate(-90, 8.81, 31.96)">Number of Stars</text>
  </g>
  <g clip-path="url(#fig-2f0f7357f2994982ab6ae72febde41c2-element-6)" id="fig-2f0f7357f2994982ab6ae72febde41c2-element-5">
    <g pointer-events="visible" opacity="1" fill="none" stroke="none" class="guide background" id="fig-2f0f7357f2994982ab6ae72febde41c2-element-7">
      <rect x="21.31" y="5" width="176.89" height="53.91"/>
    </g>
    <g class="guide ygridlines xfixed" stroke-dasharray="0.5,0.5" stroke-width="0.2" stroke="#D0D0E0" id="fig-2f0f7357f2994982ab6ae72febde41c2-element-8">
      <path fill="none" d="M21.31,56.91 L 198.2 56.91"/>
      <path fill="none" d="M21.31,40.28 L 198.2 40.28"/>
      <path fill="none" d="M21.31,23.64 L 198.2 23.64"/>
      <path fill="none" d="M21.31,7 L 198.2 7"/>
    </g>
    <g class="guide xgridlines yfixed" stroke-dasharray="0.5,0.5" stroke-width="0.2" stroke="#D0D0E0" id="fig-2f0f7357f2994982ab6ae72febde41c2-element-9">
      <path fill="none" d="M99.93,5 L 99.93 58.91"/>
      <path fill="none" d="M184.16,5 L 184.16 58.91"/>
    </g>
    <g class="plotpanel" id="fig-2f0f7357f2994982ab6ae72febde41c2-element-10">
      <g stroke-width="0.79" fill="none" class="geometry color_1.0" stroke="#FFD700" id="fig-2f0f7357f2994982ab6ae72febde41c2-element-11">
        <path fill="none" d="M24.11,45.6 L 32.54 44.9 35.34 44.4 38.15 44.1 40.96 43.87 43.77 43.54 46.58 43.21 49.38 42.64 52.19 42.21 55 42.24 57.81 41.81 60.62 41.47 63.42 41.14 66.23 40.61 69.04 40.24 71.85 39.21 74.65 38.18 77.46 37.81 80.27 37.15 83.08 36.85 85.89 36.68 88.69 36.45 91.5 37.68 94.31 37.28 97.12 37.05 99.93 36.88 102.73 36.78 105.54 36.38 108.35 34.55 111.16 33.02 113.96 32.72 122.39 29.93 136.43 26.67 139.23 26.57 142.04 23.41 144.85 21.97 147.66 21.58 150.47 20.61 153.27 20.04 164.51 16.45 167.31 15.98 181.35 12.46 186.97 11.09 189.78 10.53 192.58 9.93 195.39 9.4 198.2 8.33"/>
      </g>
    </g>
  </g>
  <g class="guide ylabels" font-size="2.82" font-family="'PT Sans Caption','Helvetica Neue','Helvetica',sans-serif" fill="#6C606B" id="fig-2f0f7357f2994982ab6ae72febde41c2-element-12">
    <text x="20.31" y="56.91" text-anchor="end" dy="0.35em">4000</text>
    <text x="20.31" y="40.28" text-anchor="end" dy="0.35em">4500</text>
    <text x="20.31" y="23.64" text-anchor="end" dy="0.35em">5000</text>
    <text x="20.31" y="7" text-anchor="end" dy="0.35em">5500</text>
  </g>
</g>
<defs>
<clipPath id="fig-2f0f7357f2994982ab6ae72febde41c2-element-6">
  <path d="M21.31,5 L 198.2 5 198.2 58.91 21.31 58.91" />
</clipPath
></defs>
</svg>
