<?xml version="1.0" encoding="UTF-8"?>
<svg xmlns="http://www.w3.org/2000/svg"
     xmlns:xlink="http://www.w3.org/1999/xlink"
     xmlns:gadfly="http://www.gadflyjl.org/ns"
     version="1.2"
     width="203.2mm" height="76.2mm" viewBox="0 0 203.2 76.2"
     stroke="none"
     fill="#000000"
     stroke-width="0.3"
     font-size="3.88"
>
<g class="plotroot xscalable yscalable" id="fig-c964e6a035184e17956834f07f5de0d4-element-1">
  <g font-size="3.88" font-family="'PT Sans','Helvetica Neue','Helvetica',sans-serif" fill="#564A55" stroke="none" id="fig-c964e6a035184e17956834f07f5de0d4-element-2">
    <text x="109.75" y="68.2" text-anchor="middle">Date</text>
  </g>
  <g class="guide xlabels" font-size="2.82" font-family="'PT Sans Caption','Helvetica Neue','Helvetica',sans-serif" fill="#6C606B" id="fig-c964e6a035184e17956834f07f5de0d4-element-3">
    <text x="88.24" y="62.59" text-anchor="middle">Nov</text>
    <text x="159.95" y="62.59" text-anchor="middle">Dec</text>
  </g>
  <g font-size="3.88" font-family="'PT Sans','Helvetica Neue','Helvetica',sans-serif" fill="#564A55" stroke="none" id="fig-c964e6a035184e17956834f07f5de0d4-element-4">
    <text x="8.81" y="29.96" text-anchor="middle" dy="0.35em" transform="rotate(-90, 8.81, 31.96)">Number of Stars</text>
  </g>
  <g clip-path="url(#fig-c964e6a035184e17956834f07f5de0d4-element-6)" id="fig-c964e6a035184e17956834f07f5de0d4-element-5">
    <g pointer-events="visible" opacity="1" fill="none" stroke="none" class="guide background" id="fig-c964e6a035184e17956834f07f5de0d4-element-7">
      <rect x="21.31" y="5" width="176.89" height="53.92"/>
    </g>
    <g class="guide ygridlines xfixed" stroke-dasharray="0.5,0.5" stroke-width="0.2" stroke="#D0D0E0" id="fig-c964e6a035184e17956834f07f5de0d4-element-8">
      <path fill="none" d="M21.31,56.92 L 198.2 56.92"/>
      <path fill="none" d="M21.31,44.44 L 198.2 44.44"/>
      <path fill="none" d="M21.31,31.96 L 198.2 31.96"/>
      <path fill="none" d="M21.31,19.48 L 198.2 19.48"/>
      <path fill="none" d="M21.31,7 L 198.2 7"/>
    </g>
    <g class="guide xgridlines yfixed" stroke-dasharray="0.5,0.5" stroke-width="0.2" stroke="#D0D0E0" id="fig-c964e6a035184e17956834f07f5de0d4-element-9">
      <path fill="none" d="M88.24,5 L 88.24 58.92"/>
      <path fill="none" d="M159.95,5 L 159.95 58.92"/>
    </g>
    <g class="plotpanel" id="fig-c964e6a035184e17956834f07f5de0d4-element-10">
      <g stroke-width="0.79" fill="none" class="geometry color_1.0" stroke="#FFD700" id="fig-c964e6a035184e17956834f07f5de0d4-element-11">
        <path fill="none" d="M23.7,48.43 L 30.87 47.91 33.26 47.53 35.65 47.31 38.04 47.13 40.43 46.88 42.82 46.63 45.21 46.21 47.6 45.88 49.99 45.91 52.38 45.58 54.77 45.33 57.16 45.09 59.55 44.69 61.94 44.41 64.33 43.64 66.72 42.86 69.11 42.59 71.5 42.09 73.9 41.87 76.29 41.74 78.68 41.57 81.07 42.49 83.46 42.19 85.85 42.02 88.24 41.89 90.63 41.82 93.02 41.52 95.41 40.14 97.8 39 100.19 38.77 107.36 36.67 119.31 34.23 121.7 34.15 124.1 31.78 126.49 30.71 128.88 30.41 131.27 29.69 133.66 29.26 143.22 26.57 145.61 26.22 157.56 23.57 162.34 22.55 164.73 22.12 167.12 21.68 169.51 21.28 171.9 20.48 174.3 20.23 176.69 20.35 183.86 19.23 186.25 18.41 191.03 17.68 193.42 17.18 195.81 16.66"/>
      </g>
    </g>
  </g>
  <g class="guide ylabels" font-size="2.82" font-family="'PT Sans Caption','Helvetica Neue','Helvetica',sans-serif" fill="#6C606B" id="fig-c964e6a035184e17956834f07f5de0d4-element-12">
    <text x="20.31" y="56.92" text-anchor="end" dy="0.35em">4000</text>
    <text x="20.31" y="44.44" text-anchor="end" dy="0.35em">4500</text>
    <text x="20.31" y="31.96" text-anchor="end" dy="0.35em">5000</text>
    <text x="20.31" y="19.48" text-anchor="end" dy="0.35em">5500</text>
    <text x="20.31" y="7" text-anchor="end" dy="0.35em">6000</text>
  </g>
</g>
<defs>
<clipPath id="fig-c964e6a035184e17956834f07f5de0d4-element-6">
  <path d="M21.31,5 L 198.2 5 198.2 58.92 21.31 58.92" />
</clipPath
></defs>
</svg>
