<?xml version="1.0" encoding="UTF-8"?>
<svg xmlns="http://www.w3.org/2000/svg"
     xmlns:xlink="http://www.w3.org/1999/xlink"
     xmlns:gadfly="http://www.gadflyjl.org/ns"
     version="1.2"
     width="203.2mm" height="76.2mm" viewBox="0 0 203.2 76.2"
     stroke="none"
     fill="#000000"
     stroke-width="0.3"
     font-size="3.88"
>
<g class="plotroot xscalable yscalable" id="fig-c0dee4034d0c487e9558b8854dd92454-element-1">
  <g font-size="3.88" font-family="'PT Sans','Helvetica Neue','Helvetica',sans-serif" fill="#564A55" stroke="none" id="fig-c0dee4034d0c487e9558b8854dd92454-element-2">
    <text x="109.75" y="68.2" text-anchor="middle">Date</text>
  </g>
  <g class="guide xlabels" font-size="2.82" font-family="'PT Sans Caption','Helvetica Neue','Helvetica',sans-serif" fill="#6C606B" id="fig-c0dee4034d0c487e9558b8854dd92454-element-3">
    <text x="24.35" y="62.59" text-anchor="middle">Oct 5 2014</text>
    <text x="45.7" y="62.59" text-anchor="middle">12</text>
    <text x="67.05" y="62.59" text-anchor="middle">19</text>
    <text x="88.4" y="62.59" text-anchor="middle">26</text>
    <text x="106.7" y="62.59" text-anchor="middle">Nev 1</text>
    <text x="128.05" y="62.59" text-anchor="middle">8</text>
    <text x="149.4" y="62.59" text-anchor="middle">15</text>
    <text x="170.75" y="62.59" text-anchor="middle">22</text>
    <text x="198.2" y="62.59" text-anchor="middle">Dec 1</text>
  </g>
  <g font-size="3.88" font-family="'PT Sans','Helvetica Neue','Helvetica',sans-serif" fill="#564A55" stroke="none" id="fig-c0dee4034d0c487e9558b8854dd92454-element-4">
    <text x="8.81" y="29.96" text-anchor="middle" dy="0.35em" transform="rotate(-90, 8.81, 31.96)">Number of Stars</text>
  </g>
  <g clip-path="url(#fig-c0dee4034d0c487e9558b8854dd92454-element-6)" id="fig-c0dee4034d0c487e9558b8854dd92454-element-5">
    <g pointer-events="visible" opacity="1" fill="none" stroke="none" class="guide background" id="fig-c0dee4034d0c487e9558b8854dd92454-element-7">
      <rect x="21.31" y="5" width="176.89" height="53.91"/>
    </g>
    <g class="guide ygridlines xfixed" stroke-dasharray="0.5,0.5" stroke-width="0.2" stroke="#D0D0E0" id="fig-c0dee4034d0c487e9558b8854dd92454-element-8">
      <path fill="none" d="M21.31,56.91 L 198.2 56.91"/>
      <path fill="none" d="M21.31,48.6 L 198.2 48.6"/>
      <path fill="none" d="M21.31,40.28 L 198.2 40.28"/>
      <path fill="none" d="M21.31,31.96 L 198.2 31.96"/>
      <path fill="none" d="M21.31,23.64 L 198.2 23.64"/>
      <path fill="none" d="M21.31,15.32 L 198.2 15.32"/>
      <path fill="none" d="M21.31,7 L 198.2 7"/>
    </g>
    <g class="guide xgridlines yfixed" stroke-dasharray="0.5,0.5" stroke-width="0.2" stroke="#D0D0E0" id="fig-c0dee4034d0c487e9558b8854dd92454-element-9">
      <path fill="none" d="M24.35,5 L 24.35 58.91"/>
      <path fill="none" d="M45.7,5 L 45.7 58.91"/>
      <path fill="none" d="M67.05,5 L 67.05 58.91"/>
      <path fill="none" d="M88.4,5 L 88.4 58.91"/>
      <path fill="none" d="M106.7,5 L 106.7 58.91"/>
      <path fill="none" d="M128.05,5 L 128.05 58.91"/>
      <path fill="none" d="M149.4,5 L 149.4 58.91"/>
      <path fill="none" d="M170.75,5 L 170.75 58.91"/>
      <path fill="none" d="M198.2,5 L 198.2 58.91"/>
    </g>
    <g class="plotpanel" id="fig-c0dee4034d0c487e9558b8854dd92454-element-10">
      <g stroke-width="0.79" fill="none" class="geometry color_1.0" stroke="#FFD700" id="fig-c0dee4034d0c487e9558b8854dd92454-element-11">
        <path fill="none" d="M24.35,53.59 L 33.5 51.84 36.55 50.59 39.6 49.84 42.65 49.26 45.7 48.43 48.75 47.6 51.8 46.18 54.85 45.1 57.9 45.18 60.95 44.1 64 43.27 67.05 42.44 70.1 41.11 73.15 40.19 76.2 37.61 79.25 35.04 82.3 34.12 85.35 32.46 88.4 31.71 91.45 31.29 94.5 30.71 97.55 33.79 100.6 32.79 103.65 32.21 106.7 31.79 109.75 31.54 112.8 30.54 115.85 25.97 118.9 22.14 121.95 21.39 131.1 14.4"/>
      </g>
    </g>
  </g>
  <g class="guide ylabels" font-size="2.82" font-family="'PT Sans Caption','Helvetica Neue','Helvetica',sans-serif" fill="#6C606B" id="fig-c0dee4034d0c487e9558b8854dd92454-element-12">
    <text x="20.31" y="56.91" text-anchor="end" dy="0.35em">4300</text>
    <text x="20.31" y="48.6" text-anchor="end" dy="0.35em">4400</text>
    <text x="20.31" y="40.28" text-anchor="end" dy="0.35em">4500</text>
    <text x="20.31" y="31.96" text-anchor="end" dy="0.35em">4600</text>
    <text x="20.31" y="23.64" text-anchor="end" dy="0.35em">4700</text>
    <text x="20.31" y="15.32" text-anchor="end" dy="0.35em">4800</text>
    <text x="20.31" y="7" text-anchor="end" dy="0.35em">4900</text>
  </g>
</g>
<defs>
<clipPath id="fig-c0dee4034d0c487e9558b8854dd92454-element-6">
  <path d="M21.31,5 L 198.2 5 198.2 58.91 21.31 58.91" />
</clipPath
></defs>
</svg>
