<?xml version="1.0" encoding="UTF-8"?>
<svg xmlns="http://www.w3.org/2000/svg"
     xmlns:xlink="http://www.w3.org/1999/xlink"
     xmlns:gadfly="http://www.gadflyjl.org/ns"
     version="1.2"
     width="203.2mm" height="76.2mm" viewBox="0 0 203.2 76.2"
     stroke="none"
     fill="#000000"
     stroke-width="0.3"
     font-size="3.88"
>
<g class="plotroot xscalable yscalable" id="fig-e30542d733744481adcc4cc46ee07587-element-1">
  <g font-size="3.88" font-family="'PT Sans','Helvetica Neue','Helvetica',sans-serif" fill="#564A55" stroke="none" id="fig-e30542d733744481adcc4cc46ee07587-element-2">
    <text x="109.75" y="68.2" text-anchor="middle">Date</text>
  </g>
  <g class="guide xlabels" font-size="2.82" font-family="'PT Sans Caption','Helvetica Neue','Helvetica',sans-serif" fill="#6C606B" id="fig-e30542d733744481adcc4cc46ee07587-element-3">
    <text x="89.16" y="62.59" text-anchor="middle">Nev</text>
    <text x="161.85" y="62.59" text-anchor="middle">Dec</text>
  </g>
  <g font-size="3.88" font-family="'PT Sans','Helvetica Neue','Helvetica',sans-serif" fill="#564A55" stroke="none" id="fig-e30542d733744481adcc4cc46ee07587-element-4">
    <text x="8.81" y="29.96" text-anchor="middle" dy="0.35em" transform="rotate(-90, 8.81, 31.96)">Number of Stars</text>
  </g>
  <g clip-path="url(#fig-e30542d733744481adcc4cc46ee07587-element-6)" id="fig-e30542d733744481adcc4cc46ee07587-element-5">
    <g pointer-events="visible" opacity="1" fill="none" stroke="none" class="guide background" id="fig-e30542d733744481adcc4cc46ee07587-element-7">
      <rect x="21.31" y="5" width="176.89" height="53.91"/>
    </g>
    <g class="guide ygridlines xfixed" stroke-dasharray="0.5,0.5" stroke-width="0.2" stroke="#D0D0E0" id="fig-e30542d733744481adcc4cc46ee07587-element-8">
      <path fill="none" d="M21.31,56.92 L 198.2 56.92"/>
      <path fill="none" d="M21.31,44.44 L 198.2 44.44"/>
      <path fill="none" d="M21.31,31.96 L 198.2 31.96"/>
      <path fill="none" d="M21.31,19.48 L 198.2 19.48"/>
      <path fill="none" d="M21.31,7 L 198.2 7"/>
    </g>
    <g class="guide xgridlines yfixed" stroke-dasharray="0.5,0.5" stroke-width="0.2" stroke="#D0D0E0" id="fig-e30542d733744481adcc4cc46ee07587-element-9">
      <path fill="none" d="M89.16,5 L 89.16 58.91"/>
      <path fill="none" d="M161.85,5 L 161.85 58.91"/>
    </g>
    <g class="plotpanel" id="fig-e30542d733744481adcc4cc46ee07587-element-10">
      <g stroke-width="0.79" fill="none" class="geometry color_1.0" stroke="#FFD700" id="fig-e30542d733744481adcc4cc46ee07587-element-11">
        <path fill="none" d="M23.73,48.43 L 31 47.91 33.42 47.53 35.84 47.31 38.27 47.13 40.69 46.88 43.11 46.63 45.54 46.21 47.96 45.88 50.38 45.91 52.81 45.58 55.23 45.33 57.65 45.09 60.08 44.69 62.5 44.41 64.92 43.64 67.35 42.86 69.77 42.59 72.19 42.09 74.62 41.87 77.04 41.74 79.46 41.57 81.89 42.49 84.31 42.19 86.73 42.02 89.16 41.89 91.58 41.82 94 41.52 96.42 40.14 98.85 39 101.27 38.77 108.54 36.67 120.66 34.23 123.08 34.15 125.5 31.78 127.93 30.71 130.35 30.41 132.77 29.69 135.2 29.26 144.89 26.57 147.31 26.22 159.43 23.57 164.27 22.55 166.7 22.12 169.12 21.68 171.54 21.28 173.97 20.48 176.39 20.23 178.81 20.35 186.08 19.23 188.51 18.41 193.35 17.68 195.78 17.18"/>
      </g>
    </g>
  </g>
  <g class="guide ylabels" font-size="2.82" font-family="'PT Sans Caption','Helvetica Neue','Helvetica',sans-serif" fill="#6C606B" id="fig-e30542d733744481adcc4cc46ee07587-element-12">
    <text x="20.31" y="56.92" text-anchor="end" dy="0.35em">4000</text>
    <text x="20.31" y="44.44" text-anchor="end" dy="0.35em">4500</text>
    <text x="20.31" y="31.96" text-anchor="end" dy="0.35em">5000</text>
    <text x="20.31" y="19.48" text-anchor="end" dy="0.35em">5500</text>
    <text x="20.31" y="7" text-anchor="end" dy="0.35em">6000</text>
  </g>
</g>
<defs>
<clipPath id="fig-e30542d733744481adcc4cc46ee07587-element-6">
  <path d="M21.31,5 L 198.2 5 198.2 58.91 21.31 58.91" />
</clipPath
></defs>
</svg>
