<?xml version="1.0" encoding="UTF-8"?>
<svg xmlns="http://www.w3.org/2000/svg"
     xmlns:xlink="http://www.w3.org/1999/xlink"
     xmlns:gadfly="http://www.gadflyjl.org/ns"
     version="1.2"
     width="203.2mm" height="76.2mm" viewBox="0 0 203.2 76.2"
     stroke="none"
     fill="#000000"
     stroke-width="0.3"
     font-size="3.88"
>
<g class="plotroot xscalable yscalable" id="fig-ed531f0bed1b44fd90d98e6c6e1bcf17-element-1">
  <g font-size="3.88" font-family="'PT Sans','Helvetica Neue','Helvetica',sans-serif" fill="#564A55" stroke="none" id="fig-ed531f0bed1b44fd90d98e6c6e1bcf17-element-2">
    <text x="109.75" y="68.2" text-anchor="middle">Date</text>
  </g>
  <g class="guide xlabels" font-size="2.82" font-family="'PT Sans Caption','Helvetica Neue','Helvetica',sans-serif" fill="#6C606B" id="fig-ed531f0bed1b44fd90d98e6c6e1bcf17-element-3">
    <text x="71.85" y="62.59" text-anchor="middle">Nov</text>
    <text x="126" y="62.59" text-anchor="middle">Dec</text>
    <text x="181.95" y="62.59" text-anchor="middle">Jan 2015</text>
  </g>
  <g font-size="3.88" font-family="'PT Sans','Helvetica Neue','Helvetica',sans-serif" fill="#564A55" stroke="none" id="fig-ed531f0bed1b44fd90d98e6c6e1bcf17-element-4">
    <text x="8.81" y="29.96" text-anchor="middle" dy="0.35em" transform="rotate(-90, 8.81, 31.96)">Number of Stars</text>
  </g>
  <g clip-path="url(#fig-ed531f0bed1b44fd90d98e6c6e1bcf17-element-6)" id="fig-ed531f0bed1b44fd90d98e6c6e1bcf17-element-5">
    <g pointer-events="visible" opacity="1" fill="none" stroke="none" class="guide background" id="fig-ed531f0bed1b44fd90d98e6c6e1bcf17-element-7">
      <rect x="21.31" y="5" width="176.89" height="53.91"/>
    </g>
    <g class="guide ygridlines xfixed" stroke-dasharray="0.5,0.5" stroke-width="0.2" stroke="#D0D0E0" id="fig-ed531f0bed1b44fd90d98e6c6e1bcf17-element-8">
      <path fill="none" d="M21.31,56.92 L 198.2 56.92"/>
      <path fill="none" d="M21.31,44.44 L 198.2 44.44"/>
      <path fill="none" d="M21.31,31.96 L 198.2 31.96"/>
      <path fill="none" d="M21.31,19.48 L 198.2 19.48"/>
      <path fill="none" d="M21.31,7 L 198.2 7"/>
    </g>
    <g class="guide xgridlines yfixed" stroke-dasharray="0.5,0.5" stroke-width="0.2" stroke="#D0D0E0" id="fig-ed531f0bed1b44fd90d98e6c6e1bcf17-element-9">
      <path fill="none" d="M71.85,5 L 71.85 58.91"/>
      <path fill="none" d="M126,5 L 126 58.91"/>
      <path fill="none" d="M181.95,5 L 181.95 58.91"/>
    </g>
    <g class="plotpanel" id="fig-ed531f0bed1b44fd90d98e6c6e1bcf17-element-10">
      <g stroke-width="0.79" fill="none" class="geometry color_1.0" stroke="#FFD700" id="fig-ed531f0bed1b44fd90d98e6c6e1bcf17-element-11">
        <path fill="none" d="M23.11,48.43 L 28.53 47.91 30.33 47.53 32.14 47.31 33.94 47.13 35.75 46.88 37.55 46.63 39.36 46.21 41.16 45.88 42.97 45.91 44.77 45.58 46.58 45.33 48.38 45.09 50.19 44.69 51.99 44.41 53.8 43.64 55.6 42.86 57.41 42.59 59.21 42.09 61.02 41.87 62.82 41.74 64.63 41.57 66.43 42.49 68.24 42.19 70.04 42.02 71.85 41.89 73.65 41.82 75.46 41.52 77.26 40.14 79.07 39 80.87 38.77 86.29 36.67 95.31 34.23 97.12 34.15 98.92 31.78 100.73 30.71 102.53 30.41 104.34 29.69 106.14 29.26 113.36 26.57 115.17 26.22 124.19 23.57 127.8 22.55 129.61 22.12 131.41 21.68 133.22 21.28 135.02 20.48 136.83 20.23 138.63 20.35 144.05 19.23 145.85 18.41 149.46 17.68 151.27 17.18 153.07 16.66 158.49 16.36 162.1 15.69 167.51 14.36 174.73 13.31 178.34 11.37 183.76 10.12 196.39 7.77"/>
      </g>
    </g>
  </g>
  <g class="guide ylabels" font-size="2.82" font-family="'PT Sans Caption','Helvetica Neue','Helvetica',sans-serif" fill="#6C606B" id="fig-ed531f0bed1b44fd90d98e6c6e1bcf17-element-12">
    <text x="20.31" y="56.92" text-anchor="end" dy="0.35em">4000</text>
    <text x="20.31" y="44.44" text-anchor="end" dy="0.35em">4500</text>
    <text x="20.31" y="31.96" text-anchor="end" dy="0.35em">5000</text>
    <text x="20.31" y="19.48" text-anchor="end" dy="0.35em">5500</text>
    <text x="20.31" y="7" text-anchor="end" dy="0.35em">6000</text>
  </g>
</g>
<defs>
<clipPath id="fig-ed531f0bed1b44fd90d98e6c6e1bcf17-element-6">
  <path d="M21.31,5 L 198.2 5 198.2 58.91 21.31 58.91" />
</clipPath
></defs>
</svg>
