<?xml version="1.0" encoding="UTF-8"?>
<svg xmlns="http://www.w3.org/2000/svg"
     xmlns:xlink="http://www.w3.org/1999/xlink"
     xmlns:gadfly="http://www.gadflyjl.org/ns"
     version="1.2"
     width="203.2mm" height="76.2mm" viewBox="0 0 203.2 76.2"
     stroke="none"
     fill="#000000"
     stroke-width="0.3"
     font-size="3.88"
>
<g class="plotroot xscalable yscalable" id="fig-68ca6000900c44da96ab7a4d52ae9a7f-element-1">
  <g font-size="3.88" font-family="'PT Sans','Helvetica Neue','Helvetica',sans-serif" fill="#564A55" stroke="none" id="fig-68ca6000900c44da96ab7a4d52ae9a7f-element-2">
    <text x="109.75" y="68.2" text-anchor="middle">Date</text>
  </g>
  <g class="guide xlabels" font-size="2.82" font-family="'PT Sans Caption','Helvetica Neue','Helvetica',sans-serif" fill="#6C606B" id="fig-68ca6000900c44da96ab7a4d52ae9a7f-element-3">
    <text x="24.35" y="62.59" text-anchor="middle">Oct 5 2014</text>
    <text x="45.7" y="62.59" text-anchor="middle">12</text>
    <text x="67.05" y="62.59" text-anchor="middle">19</text>
    <text x="88.4" y="62.59" text-anchor="middle">26</text>
    <text x="106.7" y="62.59" text-anchor="middle">Nev 1</text>
    <text x="128.05" y="62.59" text-anchor="middle">8</text>
    <text x="149.4" y="62.59" text-anchor="middle">15</text>
    <text x="170.75" y="62.59" text-anchor="middle">22</text>
    <text x="198.2" y="62.59" text-anchor="middle">Dec 1</text>
  </g>
  <g font-size="3.88" font-family="'PT Sans','Helvetica Neue','Helvetica',sans-serif" fill="#564A55" stroke="none" id="fig-68ca6000900c44da96ab7a4d52ae9a7f-element-4">
    <text x="8.81" y="29.96" text-anchor="middle" dy="0.35em" transform="rotate(-90, 8.81, 31.96)">Number of Stars</text>
  </g>
  <g clip-path="url(#fig-68ca6000900c44da96ab7a4d52ae9a7f-element-6)" id="fig-68ca6000900c44da96ab7a4d52ae9a7f-element-5">
    <g pointer-events="visible" opacity="1" fill="none" stroke="none" class="guide background" id="fig-68ca6000900c44da96ab7a4d52ae9a7f-element-7">
      <rect x="21.31" y="5" width="176.89" height="53.91"/>
    </g>
    <g class="guide ygridlines xfixed" stroke-dasharray="0.5,0.5" stroke-width="0.2" stroke="#D0D0E0" id="fig-68ca6000900c44da96ab7a4d52ae9a7f-element-8">
      <path fill="none" d="M21.31,56.92 L 198.2 56.92"/>
      <path fill="none" d="M21.31,44.44 L 198.2 44.44"/>
      <path fill="none" d="M21.31,31.96 L 198.2 31.96"/>
      <path fill="none" d="M21.31,19.48 L 198.2 19.48"/>
      <path fill="none" d="M21.31,7 L 198.2 7"/>
    </g>
    <g class="guide xgridlines yfixed" stroke-dasharray="0.5,0.5" stroke-width="0.2" stroke="#D0D0E0" id="fig-68ca6000900c44da96ab7a4d52ae9a7f-element-9">
      <path fill="none" d="M24.35,5 L 24.35 58.91"/>
      <path fill="none" d="M45.7,5 L 45.7 58.91"/>
      <path fill="none" d="M67.05,5 L 67.05 58.91"/>
      <path fill="none" d="M88.4,5 L 88.4 58.91"/>
      <path fill="none" d="M106.7,5 L 106.7 58.91"/>
      <path fill="none" d="M128.05,5 L 128.05 58.91"/>
      <path fill="none" d="M149.4,5 L 149.4 58.91"/>
      <path fill="none" d="M170.75,5 L 170.75 58.91"/>
      <path fill="none" d="M198.2,5 L 198.2 58.91"/>
    </g>
    <g class="plotpanel" id="fig-68ca6000900c44da96ab7a4d52ae9a7f-element-10">
      <g stroke-width="0.79" fill="none" class="geometry color_1.0" stroke="#FFD700" id="fig-68ca6000900c44da96ab7a4d52ae9a7f-element-11">
        <path fill="none" d="M24.35,48.18 L 33.5 46.87 36.55 45.93 39.6 45.37 42.65 44.94 45.7 44.31 48.75 43.69 51.8 42.63 54.85 41.82 57.9 41.88 60.95 41.07 64 40.44 67.05 39.82 70.1 38.82 73.15 38.13 76.2 36.2 79.25 34.27 82.3 33.58 85.35 32.33 88.4 31.77 91.45 31.46 94.5 31.02 97.55 33.33 100.6 32.58 103.65 32.14 106.7 31.83 109.75 31.65 112.8 30.9 115.85 27.47 118.9 24.6 121.95 24.03 131.1 18.79 146.35 12.68"/>
      </g>
    </g>
  </g>
  <g class="guide ylabels" font-size="2.82" font-family="'PT Sans Caption','Helvetica Neue','Helvetica',sans-serif" fill="#6C606B" id="fig-68ca6000900c44da96ab7a4d52ae9a7f-element-12">
    <text x="20.31" y="56.92" text-anchor="end" dy="0.35em">4200</text>
    <text x="20.31" y="44.44" text-anchor="end" dy="0.35em">4400</text>
    <text x="20.31" y="31.96" text-anchor="end" dy="0.35em">4600</text>
    <text x="20.31" y="19.48" text-anchor="end" dy="0.35em">4800</text>
    <text x="20.31" y="7" text-anchor="end" dy="0.35em">5000</text>
  </g>
</g>
<defs>
<clipPath id="fig-68ca6000900c44da96ab7a4d52ae9a7f-element-6">
  <path d="M21.31,5 L 198.2 5 198.2 58.91 21.31 58.91" />
</clipPath
></defs>
</svg>
