<?xml version="1.0" encoding="UTF-8"?>
<svg xmlns="http://www.w3.org/2000/svg"
     xmlns:xlink="http://www.w3.org/1999/xlink"
     xmlns:gadfly="http://www.gadflyjl.org/ns"
     version="1.2"
     width="203.2mm" height="76.2mm" viewBox="0 0 203.2 76.2"
     stroke="none"
     fill="#000000"
     stroke-width="0.3"
     font-size="3.88"
>
<g class="plotroot xscalable yscalable" id="fig-2edccca7aa1a498f8ceb63da38365aac-element-1">
  <g font-size="3.88" font-family="'PT Sans','Helvetica Neue','Helvetica',sans-serif" fill="#564A55" stroke="none" id="fig-2edccca7aa1a498f8ceb63da38365aac-element-2">
    <text x="109.75" y="68.2" text-anchor="middle">Date</text>
  </g>
  <g class="guide xlabels" font-size="2.82" font-family="'PT Sans Caption','Helvetica Neue','Helvetica',sans-serif" fill="#6C606B" id="fig-2edccca7aa1a498f8ceb63da38365aac-element-3">
    <text x="85.63" y="62.59" text-anchor="middle">Nov</text>
    <text x="154.55" y="62.59" text-anchor="middle">Dec</text>
  </g>
  <g font-size="3.88" font-family="'PT Sans','Helvetica Neue','Helvetica',sans-serif" fill="#564A55" stroke="none" id="fig-2edccca7aa1a498f8ceb63da38365aac-element-4">
    <text x="8.81" y="29.96" text-anchor="middle" dy="0.35em" transform="rotate(-90, 8.81, 31.96)">Number of Stars</text>
  </g>
  <g clip-path="url(#fig-2edccca7aa1a498f8ceb63da38365aac-element-6)" id="fig-2edccca7aa1a498f8ceb63da38365aac-element-5">
    <g pointer-events="visible" opacity="1" fill="none" stroke="none" class="guide background" id="fig-2edccca7aa1a498f8ceb63da38365aac-element-7">
      <rect x="21.31" y="5" width="176.89" height="53.92"/>
    </g>
    <g class="guide ygridlines xfixed" stroke-dasharray="0.5,0.5" stroke-width="0.2" stroke="#D0D0E0" id="fig-2edccca7aa1a498f8ceb63da38365aac-element-8">
      <path fill="none" d="M21.31,56.92 L 198.2 56.92"/>
      <path fill="none" d="M21.31,44.44 L 198.2 44.44"/>
      <path fill="none" d="M21.31,31.96 L 198.2 31.96"/>
      <path fill="none" d="M21.31,19.48 L 198.2 19.48"/>
      <path fill="none" d="M21.31,7 L 198.2 7"/>
    </g>
    <g class="guide xgridlines yfixed" stroke-dasharray="0.5,0.5" stroke-width="0.2" stroke="#D0D0E0" id="fig-2edccca7aa1a498f8ceb63da38365aac-element-9">
      <path fill="none" d="M85.63,5 L 85.63 58.92"/>
      <path fill="none" d="M154.55,5 L 154.55 58.92"/>
    </g>
    <g class="plotpanel" id="fig-2edccca7aa1a498f8ceb63da38365aac-element-10">
      <g stroke-width="0.79" fill="none" class="geometry color_1.0" stroke="#FFD700" id="fig-2edccca7aa1a498f8ceb63da38365aac-element-11">
        <path fill="none" d="M23.6,48.43 L 30.49 47.91 32.79 47.53 35.09 47.31 37.39 47.13 39.68 46.88 41.98 46.63 44.28 46.21 46.58 45.88 48.87 45.91 51.17 45.58 53.47 45.33 55.77 45.09 58.06 44.69 60.36 44.41 62.66 43.64 64.95 42.86 67.25 42.59 69.55 42.09 71.85 41.87 74.14 41.74 76.44 41.57 78.74 42.49 81.04 42.19 83.33 42.02 85.63 41.89 87.93 41.82 90.23 41.52 92.52 40.14 94.82 39 97.12 38.77 104.01 36.67 115.5 34.23 117.79 34.15 120.09 31.78 122.39 30.71 124.69 30.41 126.98 29.69 129.28 29.26 138.47 26.57 140.77 26.22 152.25 23.57 156.85 22.55 159.15 22.12 161.44 21.68 163.74 21.28 166.04 20.48 168.33 20.23 170.63 20.35 177.52 19.23 179.82 18.41 184.42 17.68 186.71 17.18 189.01 16.66 195.9 16.36"/>
      </g>
    </g>
  </g>
  <g class="guide ylabels" font-size="2.82" font-family="'PT Sans Caption','Helvetica Neue','Helvetica',sans-serif" fill="#6C606B" id="fig-2edccca7aa1a498f8ceb63da38365aac-element-12">
    <text x="20.31" y="56.92" text-anchor="end" dy="0.35em">4000</text>
    <text x="20.31" y="44.44" text-anchor="end" dy="0.35em">4500</text>
    <text x="20.31" y="31.96" text-anchor="end" dy="0.35em">5000</text>
    <text x="20.31" y="19.48" text-anchor="end" dy="0.35em">5500</text>
    <text x="20.31" y="7" text-anchor="end" dy="0.35em">6000</text>
  </g>
</g>
<defs>
<clipPath id="fig-2edccca7aa1a498f8ceb63da38365aac-element-6">
  <path d="M21.31,5 L 198.2 5 198.2 58.92 21.31 58.92" />
</clipPath
></defs>
</svg>
