<?xml version="1.0" encoding="UTF-8"?>
<svg xmlns="http://www.w3.org/2000/svg"
     xmlns:xlink="http://www.w3.org/1999/xlink"
     xmlns:gadfly="http://www.gadflyjl.org/ns"
     version="1.2"
     width="203.2mm" height="76.2mm" viewBox="0 0 203.2 76.2"
     stroke="none"
     fill="#000000"
     stroke-width="0.3"
     font-size="3.88"
>
<g class="plotroot xscalable yscalable" id="fig-2fa0400eb03a432e89857788d8eba519-element-1">
  <g font-size="3.88" font-family="'PT Sans','Helvetica Neue','Helvetica',sans-serif" fill="#564A55" stroke="none" id="fig-2fa0400eb03a432e89857788d8eba519-element-2">
    <text x="109.75" y="68.2" text-anchor="middle">Date</text>
  </g>
  <g class="guide xlabels" font-size="2.82" font-family="'PT Sans Caption','Helvetica Neue','Helvetica',sans-serif" fill="#6C606B" id="fig-2fa0400eb03a432e89857788d8eba519-element-3">
    <text x="66.75" y="62.59" text-anchor="middle">Nov</text>
    <text x="115.43" y="62.59" text-anchor="middle">Dec</text>
    <text x="165.74" y="62.59" text-anchor="middle">Jan 2015</text>
  </g>
  <g font-size="3.88" font-family="'PT Sans','Helvetica Neue','Helvetica',sans-serif" fill="#564A55" stroke="none" id="fig-2fa0400eb03a432e89857788d8eba519-element-4">
    <text x="8.81" y="29.96" text-anchor="middle" dy="0.35em" transform="rotate(-90, 8.81, 31.96)">Number of Stars</text>
  </g>
  <g clip-path="url(#fig-2fa0400eb03a432e89857788d8eba519-element-6)" id="fig-2fa0400eb03a432e89857788d8eba519-element-5">
    <g pointer-events="visible" opacity="1" fill="none" stroke="none" class="guide background" id="fig-2fa0400eb03a432e89857788d8eba519-element-7">
      <rect x="21.31" y="5" width="176.89" height="53.91"/>
    </g>
    <g class="guide ygridlines xfixed" stroke-dasharray="0.5,0.5" stroke-width="0.2" stroke="#D0D0E0" id="fig-2fa0400eb03a432e89857788d8eba519-element-8">
      <path fill="none" d="M21.31,56.91 L 198.2 56.91"/>
      <path fill="none" d="M21.31,46.93 L 198.2 46.93"/>
      <path fill="none" d="M21.31,36.95 L 198.2 36.95"/>
      <path fill="none" d="M21.31,26.97 L 198.2 26.97"/>
      <path fill="none" d="M21.31,16.98 L 198.2 16.98"/>
      <path fill="none" d="M21.31,7 L 198.2 7"/>
    </g>
    <g class="guide xgridlines yfixed" stroke-dasharray="0.5,0.5" stroke-width="0.2" stroke="#D0D0E0" id="fig-2fa0400eb03a432e89857788d8eba519-element-9">
      <path fill="none" d="M66.75,5 L 66.75 58.91"/>
      <path fill="none" d="M115.43,5 L 115.43 58.91"/>
      <path fill="none" d="M165.74,5 L 165.74 58.91"/>
    </g>
    <g class="plotpanel" id="fig-2fa0400eb03a432e89857788d8eba519-element-10">
      <g stroke-width="0.79" fill="none" class="geometry color_1.0" stroke="#FFD700" id="fig-2fa0400eb03a432e89857788d8eba519-element-11">
        <path fill="none" d="M22.93,50.13 L 27.8 49.71 29.42 49.41 31.04 49.23 32.67 49.09 34.29 48.89 35.91 48.69 37.53 48.35 39.16 48.09 40.78 48.11 42.4 47.85 44.03 47.65 45.65 47.45 47.27 47.13 48.89 46.91 50.52 46.29 52.14 45.67 53.76 45.45 55.39 45.06 57.01 44.88 58.63 44.78 60.25 44.64 61.88 45.37 63.5 45.14 65.12 45 66.75 44.9 68.37 44.84 69.99 44.6 71.61 43.5 73.24 42.58 74.86 42.4 79.73 40.72 87.84 38.77 89.47 38.71 91.09 36.81 92.71 35.95 94.34 35.71 95.96 35.13 97.58 34.79 104.07 32.64 105.7 32.36 113.81 30.24 117.06 29.42 118.68 29.08 120.3 28.72 121.92 28.4 123.55 27.76 125.17 27.56 126.79 27.66 131.66 26.77 133.28 26.11 136.53 25.53 138.15 25.13 139.78 24.71 144.64 24.47 147.89 23.93 152.76 22.87 159.25 22.03 162.5 20.48 167.37 19.48 178.73 17.6 185.22 16.04 186.84 15.77 188.46 15.69 190.09 15.09 191.71 14.77 193.33 14.75 196.58 14.33"/>
      </g>
    </g>
  </g>
  <g class="guide ylabels" font-size="2.82" font-family="'PT Sans Caption','Helvetica Neue','Helvetica',sans-serif" fill="#6C606B" id="fig-2fa0400eb03a432e89857788d8eba519-element-12">
    <text x="20.31" y="56.91" text-anchor="end" dy="0.35em">4000</text>
    <text x="20.31" y="46.93" text-anchor="end" dy="0.35em">4500</text>
    <text x="20.31" y="36.95" text-anchor="end" dy="0.35em">5000</text>
    <text x="20.31" y="26.97" text-anchor="end" dy="0.35em">5500</text>
    <text x="20.31" y="16.98" text-anchor="end" dy="0.35em">6000</text>
    <text x="20.31" y="7" text-anchor="end" dy="0.35em">6500</text>
  </g>
</g>
<defs>
<clipPath id="fig-2fa0400eb03a432e89857788d8eba519-element-6">
  <path d="M21.31,5 L 198.2 5 198.2 58.91 21.31 58.91" />
</clipPath
></defs>
</svg>
