<?xml version="1.0" encoding="UTF-8"?>
<svg xmlns="http://www.w3.org/2000/svg"
     xmlns:xlink="http://www.w3.org/1999/xlink"
     xmlns:gadfly="http://www.gadflyjl.org/ns"
     version="1.2"
     width="203.2mm" height="76.2mm" viewBox="0 0 203.2 76.2"
     stroke="none"
     fill="#000000"
     stroke-width="0.3"
     font-size="3.88"
>
<g class="plotroot xscalable yscalable" id="fig-536719d941ce40769541feedacb50d62-element-1">
  <g font-size="3.88" font-family="'PT Sans','Helvetica Neue','Helvetica',sans-serif" fill="#564A55" stroke="none" id="fig-536719d941ce40769541feedacb50d62-element-2">
    <text x="109.75" y="68.2" text-anchor="middle">Date</text>
  </g>
  <g class="guide xlabels" font-size="2.82" font-family="'PT Sans Caption','Helvetica Neue','Helvetica',sans-serif" fill="#6C606B" id="fig-536719d941ce40769541feedacb50d62-element-3">
    <text x="69.39" y="62.59" text-anchor="middle">Nov</text>
    <text x="120.92" y="62.59" text-anchor="middle">Dec</text>
    <text x="174.16" y="62.59" text-anchor="middle">Jan 2015</text>
  </g>
  <g font-size="3.88" font-family="'PT Sans','Helvetica Neue','Helvetica',sans-serif" fill="#564A55" stroke="none" id="fig-536719d941ce40769541feedacb50d62-element-4">
    <text x="8.81" y="29.96" text-anchor="middle" dy="0.35em" transform="rotate(-90, 8.81, 31.96)">Number of Stars</text>
  </g>
  <g clip-path="url(#fig-536719d941ce40769541feedacb50d62-element-6)" id="fig-536719d941ce40769541feedacb50d62-element-5">
    <g pointer-events="visible" opacity="1" fill="none" stroke="none" class="guide background" id="fig-536719d941ce40769541feedacb50d62-element-7">
      <rect x="21.31" y="5" width="176.89" height="53.91"/>
    </g>
    <g class="guide ygridlines xfixed" stroke-dasharray="0.5,0.5" stroke-width="0.2" stroke="#D0D0E0" id="fig-536719d941ce40769541feedacb50d62-element-8">
      <path fill="none" d="M21.31,56.91 L 198.2 56.91"/>
      <path fill="none" d="M21.31,46.93 L 198.2 46.93"/>
      <path fill="none" d="M21.31,36.95 L 198.2 36.95"/>
      <path fill="none" d="M21.31,26.97 L 198.2 26.97"/>
      <path fill="none" d="M21.31,16.98 L 198.2 16.98"/>
      <path fill="none" d="M21.31,7 L 198.2 7"/>
    </g>
    <g class="guide xgridlines yfixed" stroke-dasharray="0.5,0.5" stroke-width="0.2" stroke="#D0D0E0" id="fig-536719d941ce40769541feedacb50d62-element-9">
      <path fill="none" d="M69.39,5 L 69.39 58.91"/>
      <path fill="none" d="M120.92,5 L 120.92 58.91"/>
      <path fill="none" d="M174.16,5 L 174.16 58.91"/>
    </g>
    <g class="plotpanel" id="fig-536719d941ce40769541feedacb50d62-element-10">
      <g stroke-width="0.79" fill="none" class="geometry color_1.0" stroke="#FFD700" id="fig-536719d941ce40769541feedacb50d62-element-11">
        <path fill="none" d="M23.02,50.13 L 28.17 49.71 29.89 49.41 31.61 49.23 33.33 49.09 35.04 48.89 36.76 48.69 38.48 48.35 40.2 48.09 41.91 48.11 43.63 47.85 45.35 47.65 47.07 47.45 48.78 47.13 50.5 46.91 52.22 46.29 53.94 45.67 55.65 45.45 57.37 45.06 59.09 44.88 60.81 44.78 62.52 44.64 64.24 45.37 65.96 45.14 67.68 45 69.39 44.9 71.11 44.84 72.83 44.6 74.55 43.5 76.26 42.58 77.98 42.4 83.13 40.72 91.72 38.77 93.44 38.71 95.15 36.81 96.87 35.95 98.59 35.71 100.31 35.13 102.02 34.79 108.89 32.64 110.61 32.36 119.2 30.24 122.63 29.42 124.35 29.08 126.07 28.72 127.79 28.4 129.5 27.76 131.22 27.56 132.94 27.66 138.09 26.77 139.81 26.11 143.24 25.53 144.96 25.13 146.68 24.71 151.83 24.47 155.26 23.93 160.42 22.87 167.29 22.03 170.72 20.48 175.87 19.48 187.9 17.6 194.77 16.04 196.48 15.77"/>
      </g>
    </g>
  </g>
  <g class="guide ylabels" font-size="2.82" font-family="'PT Sans Caption','Helvetica Neue','Helvetica',sans-serif" fill="#6C606B" id="fig-536719d941ce40769541feedacb50d62-element-12">
    <text x="20.31" y="56.91" text-anchor="end" dy="0.35em">4000</text>
    <text x="20.31" y="46.93" text-anchor="end" dy="0.35em">4500</text>
    <text x="20.31" y="36.95" text-anchor="end" dy="0.35em">5000</text>
    <text x="20.31" y="26.97" text-anchor="end" dy="0.35em">5500</text>
    <text x="20.31" y="16.98" text-anchor="end" dy="0.35em">6000</text>
    <text x="20.31" y="7" text-anchor="end" dy="0.35em">6500</text>
  </g>
</g>
<defs>
<clipPath id="fig-536719d941ce40769541feedacb50d62-element-6">
  <path d="M21.31,5 L 198.2 5 198.2 58.91 21.31 58.91" />
</clipPath
></defs>
</svg>
