<?xml version="1.0" encoding="UTF-8"?>
<svg xmlns="http://www.w3.org/2000/svg"
     xmlns:xlink="http://www.w3.org/1999/xlink"
     xmlns:gadfly="http://www.gadflyjl.org/ns"
     version="1.2"
     width="203.2mm" height="76.2mm" viewBox="0 0 203.2 76.2"
     stroke="none"
     fill="#000000"
     stroke-width="0.3"
     font-size="3.88"
>
<g class="plotroot xscalable yscalable" id="fig-cc54f59c803e45acab183e0cc2658f42-element-1">
  <g font-size="3.88" font-family="'PT Sans','Helvetica Neue','Helvetica',sans-serif" fill="#564A55" stroke="none" id="fig-cc54f59c803e45acab183e0cc2658f42-element-2">
    <text x="109.75" y="68.2" text-anchor="middle">Date</text>
  </g>
  <g class="guide xlabels" font-size="2.82" font-family="'PT Sans Caption','Helvetica Neue','Helvetica',sans-serif" fill="#6C606B" id="fig-cc54f59c803e45acab183e0cc2658f42-element-3">
    <text x="77.59" y="62.59" text-anchor="middle">Nov</text>
    <text x="137.89" y="62.59" text-anchor="middle">Dec</text>
  </g>
  <g font-size="3.88" font-family="'PT Sans','Helvetica Neue','Helvetica',sans-serif" fill="#564A55" stroke="none" id="fig-cc54f59c803e45acab183e0cc2658f42-element-4">
    <text x="8.81" y="29.96" text-anchor="middle" dy="0.35em" transform="rotate(-90, 8.81, 31.96)">Number of Stars</text>
  </g>
  <g clip-path="url(#fig-cc54f59c803e45acab183e0cc2658f42-element-6)" id="fig-cc54f59c803e45acab183e0cc2658f42-element-5">
    <g pointer-events="visible" opacity="1" fill="none" stroke="none" class="guide background" id="fig-cc54f59c803e45acab183e0cc2658f42-element-7">
      <rect x="21.31" y="5" width="176.89" height="53.92"/>
    </g>
    <g class="guide ygridlines xfixed" stroke-dasharray="0.5,0.5" stroke-width="0.2" stroke="#D0D0E0" id="fig-cc54f59c803e45acab183e0cc2658f42-element-8">
      <path fill="none" d="M21.31,56.92 L 198.2 56.92"/>
      <path fill="none" d="M21.31,44.44 L 198.2 44.44"/>
      <path fill="none" d="M21.31,31.96 L 198.2 31.96"/>
      <path fill="none" d="M21.31,19.48 L 198.2 19.48"/>
      <path fill="none" d="M21.31,7 L 198.2 7"/>
    </g>
    <g class="guide xgridlines yfixed" stroke-dasharray="0.5,0.5" stroke-width="0.2" stroke="#D0D0E0" id="fig-cc54f59c803e45acab183e0cc2658f42-element-9">
      <path fill="none" d="M77.59,5 L 77.59 58.92"/>
      <path fill="none" d="M137.89,5 L 137.89 58.92"/>
    </g>
    <g class="plotpanel" id="fig-cc54f59c803e45acab183e0cc2658f42-element-10">
      <g stroke-width="0.79" fill="none" class="geometry color_1.0" stroke="#FFD700" id="fig-cc54f59c803e45acab183e0cc2658f42-element-11">
        <path fill="none" d="M23.32,48.43 L 29.35 47.91 31.36 47.53 33.37 47.31 35.38 47.13 37.39 46.88 39.4 46.63 41.41 46.21 43.42 45.88 45.43 45.91 47.44 45.58 49.45 45.33 51.46 45.09 53.47 44.69 55.48 44.41 57.49 43.64 59.5 42.86 61.51 42.59 63.52 42.09 65.53 41.87 67.54 41.74 69.55 41.57 71.56 42.49 73.57 42.19 75.58 42.02 77.59 41.89 79.6 41.82 81.61 41.52 83.62 40.14 85.63 39 87.64 38.77 93.67 36.67 103.72 34.23 105.73 34.15 107.74 31.78 109.75 30.71 111.76 30.41 113.77 29.69 115.78 29.26 123.82 26.57 125.83 26.22 135.88 23.57 139.91 22.55 141.92 22.12 143.93 21.68 145.94 21.28 147.95 20.48 149.96 20.23 151.97 20.35 158 19.23 160.01 18.41 164.03 17.68 166.04 17.18 168.05 16.66 174.08 16.36 178.1 15.69 184.13 14.36 192.17 13.31 196.19 11.37"/>
      </g>
    </g>
  </g>
  <g class="guide ylabels" font-size="2.82" font-family="'PT Sans Caption','Helvetica Neue','Helvetica',sans-serif" fill="#6C606B" id="fig-cc54f59c803e45acab183e0cc2658f42-element-12">
    <text x="20.31" y="56.92" text-anchor="end" dy="0.35em">4000</text>
    <text x="20.31" y="44.44" text-anchor="end" dy="0.35em">4500</text>
    <text x="20.31" y="31.96" text-anchor="end" dy="0.35em">5000</text>
    <text x="20.31" y="19.48" text-anchor="end" dy="0.35em">5500</text>
    <text x="20.31" y="7" text-anchor="end" dy="0.35em">6000</text>
  </g>
</g>
<defs>
<clipPath id="fig-cc54f59c803e45acab183e0cc2658f42-element-6">
  <path d="M21.31,5 L 198.2 5 198.2 58.92 21.31 58.92" />
</clipPath
></defs>
</svg>
