<?xml version="1.0" encoding="UTF-8"?>
<svg xmlns="http://www.w3.org/2000/svg"
     xmlns:xlink="http://www.w3.org/1999/xlink"
     xmlns:gadfly="http://www.gadflyjl.org/ns"
     version="1.2"
     width="203.2mm" height="76.2mm" viewBox="0 0 203.2 76.2"
     stroke="none"
     fill="#000000"
     stroke-width="0.3"
     font-size="3.88"
>
<g class="plotroot xscalable yscalable" id="fig-5411d36bb7cd4ffda960f853f633c33f-element-1">
  <g font-size="3.88" font-family="'PT Sans','Helvetica Neue','Helvetica',sans-serif" fill="#564A55" stroke="none" id="fig-5411d36bb7cd4ffda960f853f633c33f-element-2">
    <text x="109.75" y="68.2" text-anchor="middle">Date</text>
  </g>
  <g class="guide xlabels" font-size="2.82" font-family="'PT Sans Caption','Helvetica Neue','Helvetica',sans-serif" fill="#6C606B" id="fig-5411d36bb7cd4ffda960f853f633c33f-element-3">
    <text x="21.31" y="62.59" text-anchor="middle">Oct 4 2014</text>
    <text x="64" y="62.59" text-anchor="middle">11</text>
    <text x="106.7" y="62.59" text-anchor="middle">18</text>
    <text x="149.4" y="62.59" text-anchor="middle">25</text>
    <text x="192.1" y="62.59" text-anchor="middle">Nev 1</text>
  </g>
  <g font-size="3.88" font-family="'PT Sans','Helvetica Neue','Helvetica',sans-serif" fill="#564A55" stroke="none" id="fig-5411d36bb7cd4ffda960f853f633c33f-element-4">
    <text x="8.81" y="29.96" text-anchor="middle" dy="0.35em" transform="rotate(-90, 8.81, 31.96)">Number of Stars</text>
  </g>
  <g clip-path="url(#fig-5411d36bb7cd4ffda960f853f633c33f-element-6)" id="fig-5411d36bb7cd4ffda960f853f633c33f-element-5">
    <g pointer-events="visible" opacity="1" fill="none" stroke="none" class="guide background" id="fig-5411d36bb7cd4ffda960f853f633c33f-element-7">
      <rect x="21.31" y="5" width="176.9" height="53.91"/>
    </g>
    <g class="guide ygridlines xfixed" stroke-dasharray="0.5,0.5" stroke-width="0.2" stroke="#D0D0E0" id="fig-5411d36bb7cd4ffda960f853f633c33f-element-8">
      <path fill="none" d="M21.31,56.92 L 198.2 56.92"/>
      <path fill="none" d="M21.31,40.28 L 198.2 40.28"/>
      <path fill="none" d="M21.31,23.64 L 198.2 23.64"/>
      <path fill="none" d="M21.31,7 L 198.2 7"/>
    </g>
    <g class="guide xgridlines yfixed" stroke-dasharray="0.5,0.5" stroke-width="0.2" stroke="#D0D0E0" id="fig-5411d36bb7cd4ffda960f853f633c33f-element-9">
      <path fill="none" d="M21.31,5 L 21.31 58.91"/>
      <path fill="none" d="M64,5 L 64 58.91"/>
      <path fill="none" d="M106.7,5 L 106.7 58.91"/>
      <path fill="none" d="M149.4,5 L 149.4 58.91"/>
      <path fill="none" d="M192.1,5 L 192.1 58.91"/>
    </g>
    <g class="plotpanel" id="fig-5411d36bb7cd4ffda960f853f633c33f-element-10">
      <g stroke-width="0.79" fill="none" class="geometry color_1.0" stroke="#FFD700" id="fig-5411d36bb7cd4ffda960f853f633c33f-element-11">
        <path fill="none" d="M21.31,43.6 L 27.4 43.6 45.7 36.62 51.8 31.62 57.9 28.63 64 26.3 70.1 22.97 76.2 19.65 82.3 13.99 88.4 9.66"/>
      </g>
    </g>
  </g>
  <g class="guide ylabels" font-size="2.82" font-family="'PT Sans Caption','Helvetica Neue','Helvetica',sans-serif" fill="#6C606B" id="fig-5411d36bb7cd4ffda960f853f633c33f-element-12">
    <text x="20.31" y="56.92" text-anchor="end" dy="0.35em">4300</text>
    <text x="20.31" y="40.28" text-anchor="end" dy="0.35em">4350</text>
    <text x="20.31" y="23.64" text-anchor="end" dy="0.35em">4400</text>
    <text x="20.31" y="7" text-anchor="end" dy="0.35em">4450</text>
  </g>
</g>
<defs>
<clipPath id="fig-5411d36bb7cd4ffda960f853f633c33f-element-6">
  <path d="M21.31,5 L 198.2 5 198.2 58.91 21.31 58.91" />
</clipPath
></defs>
</svg>
