<?xml version="1.0" encoding="UTF-8"?>
<svg xmlns="http://www.w3.org/2000/svg"
     xmlns:xlink="http://www.w3.org/1999/xlink"
     xmlns:gadfly="http://www.gadflyjl.org/ns"
     version="1.2"
     width="203.2mm" height="76.2mm" viewBox="0 0 203.2 76.2"
     stroke="none"
     fill="#000000"
     stroke-width="0.3"
     font-size="3.88"
>
<g class="plotroot xscalable yscalable" id="fig-835839763b2b49c7a38bb9340411c78f-element-1">
  <g font-size="3.88" font-family="'PT Sans','Helvetica Neue','Helvetica',sans-serif" fill="#564A55" stroke="none" id="fig-835839763b2b49c7a38bb9340411c78f-element-2">
    <text x="109.75" y="68.2" text-anchor="middle">Date</text>
  </g>
  <g class="guide xlabels" font-size="2.82" font-family="'PT Sans Caption','Helvetica Neue','Helvetica',sans-serif" fill="#6C606B" id="fig-835839763b2b49c7a38bb9340411c78f-element-3">
    <text x="75.73" y="62.59" text-anchor="middle">Nov</text>
    <text x="134.05" y="62.59" text-anchor="middle">Dec</text>
    <text x="194.31" y="62.59" text-anchor="middle">Jan 2015</text>
  </g>
  <g font-size="3.88" font-family="'PT Sans','Helvetica Neue','Helvetica',sans-serif" fill="#564A55" stroke="none" id="fig-835839763b2b49c7a38bb9340411c78f-element-4">
    <text x="8.81" y="29.96" text-anchor="middle" dy="0.35em" transform="rotate(-90, 8.81, 31.96)">Number of Stars</text>
  </g>
  <g clip-path="url(#fig-835839763b2b49c7a38bb9340411c78f-element-6)" id="fig-835839763b2b49c7a38bb9340411c78f-element-5">
    <g pointer-events="visible" opacity="1" fill="none" stroke="none" class="guide background" id="fig-835839763b2b49c7a38bb9340411c78f-element-7">
      <rect x="21.31" y="5" width="176.89" height="53.91"/>
    </g>
    <g class="guide ygridlines xfixed" stroke-dasharray="0.5,0.5" stroke-width="0.2" stroke="#D0D0E0" id="fig-835839763b2b49c7a38bb9340411c78f-element-8">
      <path fill="none" d="M21.31,56.92 L 198.2 56.92"/>
      <path fill="none" d="M21.31,44.44 L 198.2 44.44"/>
      <path fill="none" d="M21.31,31.96 L 198.2 31.96"/>
      <path fill="none" d="M21.31,19.48 L 198.2 19.48"/>
      <path fill="none" d="M21.31,7 L 198.2 7"/>
    </g>
    <g class="guide xgridlines yfixed" stroke-dasharray="0.5,0.5" stroke-width="0.2" stroke="#D0D0E0" id="fig-835839763b2b49c7a38bb9340411c78f-element-9">
      <path fill="none" d="M75.73,5 L 75.73 58.91"/>
      <path fill="none" d="M134.05,5 L 134.05 58.91"/>
      <path fill="none" d="M194.31,5 L 194.31 58.91"/>
    </g>
    <g class="plotpanel" id="fig-835839763b2b49c7a38bb9340411c78f-element-10">
      <g stroke-width="0.79" fill="none" class="geometry color_1.0" stroke="#FFD700" id="fig-835839763b2b49c7a38bb9340411c78f-element-11">
        <path fill="none" d="M23.25,48.43 L 29.08 47.91 31.02 47.53 32.97 47.31 34.91 47.13 36.86 46.88 38.8 46.63 40.74 46.21 42.69 45.88 44.63 45.91 46.58 45.58 48.52 45.33 50.46 45.09 52.41 44.69 54.35 44.41 56.3 43.64 58.24 42.86 60.18 42.59 62.13 42.09 64.07 41.87 66.01 41.74 67.96 41.57 69.9 42.49 71.85 42.19 73.79 42.02 75.73 41.89 77.68 41.82 79.62 41.52 81.57 40.14 83.51 39 85.45 38.77 91.29 36.67 101 34.23 102.95 34.15 104.89 31.78 106.84 30.71 108.78 30.41 110.72 29.69 112.67 29.26 120.44 26.57 122.39 26.22 132.11 23.57 136 22.55 137.94 22.12 139.88 21.68 141.83 21.28 143.77 20.48 145.71 20.23 147.66 20.35 153.49 19.23 155.43 18.41 159.32 17.68 161.27 17.18 163.21 16.66 169.04 16.36 172.93 15.69 178.76 14.36 186.54 13.31 190.42 11.37 196.26 10.12"/>
      </g>
    </g>
  </g>
  <g class="guide ylabels" font-size="2.82" font-family="'PT Sans Caption','Helvetica Neue','Helvetica',sans-serif" fill="#6C606B" id="fig-835839763b2b49c7a38bb9340411c78f-element-12">
    <text x="20.31" y="56.92" text-anchor="end" dy="0.35em">4000</text>
    <text x="20.31" y="44.44" text-anchor="end" dy="0.35em">4500</text>
    <text x="20.31" y="31.96" text-anchor="end" dy="0.35em">5000</text>
    <text x="20.31" y="19.48" text-anchor="end" dy="0.35em">5500</text>
    <text x="20.31" y="7" text-anchor="end" dy="0.35em">6000</text>
  </g>
</g>
<defs>
<clipPath id="fig-835839763b2b49c7a38bb9340411c78f-element-6">
  <path d="M21.31,5 L 198.2 5 198.2 58.91 21.31 58.91" />
</clipPath
></defs>
</svg>
