<?xml version="1.0" encoding="UTF-8"?>
<svg xmlns="http://www.w3.org/2000/svg"
     xmlns:xlink="http://www.w3.org/1999/xlink"
     xmlns:gadfly="http://www.gadflyjl.org/ns"
     version="1.2"
     width="203.2mm" height="76.2mm" viewBox="0 0 203.2 76.2"
     stroke="none"
     fill="#000000"
     stroke-width="0.3"
     font-size="3.88"
>
<g class="plotroot xscalable yscalable" id="fig-0358e7323abf4b20943a61de8ea3a2f9-element-1">
  <g font-size="3.88" font-family="'PT Sans','Helvetica Neue','Helvetica',sans-serif" fill="#564A55" stroke="none" id="fig-0358e7323abf4b20943a61de8ea3a2f9-element-2">
    <text x="109.75" y="68.2" text-anchor="middle">Date</text>
  </g>
  <g class="guide xlabels" font-size="2.82" font-family="'PT Sans Caption','Helvetica Neue','Helvetica',sans-serif" fill="#6C606B" id="fig-0358e7323abf4b20943a61de8ea3a2f9-element-3">
    <text x="65.53" y="62.59" text-anchor="middle">Nov</text>
    <text x="112.91" y="62.59" text-anchor="middle">Dec</text>
    <text x="161.87" y="62.59" text-anchor="middle">Jan 2015</text>
  </g>
  <g font-size="3.88" font-family="'PT Sans','Helvetica Neue','Helvetica',sans-serif" fill="#564A55" stroke="none" id="fig-0358e7323abf4b20943a61de8ea3a2f9-element-4">
    <text x="8.81" y="29.96" text-anchor="middle" dy="0.35em" transform="rotate(-90, 8.81, 31.96)">Number of Stars</text>
  </g>
  <g clip-path="url(#fig-0358e7323abf4b20943a61de8ea3a2f9-element-6)" id="fig-0358e7323abf4b20943a61de8ea3a2f9-element-5">
    <g pointer-events="visible" opacity="1" fill="none" stroke="none" class="guide background" id="fig-0358e7323abf4b20943a61de8ea3a2f9-element-7">
      <rect x="21.31" y="5" width="176.89" height="53.91"/>
    </g>
    <g class="guide ygridlines xfixed" stroke-dasharray="0.5,0.5" stroke-width="0.2" stroke="#D0D0E0" id="fig-0358e7323abf4b20943a61de8ea3a2f9-element-8">
      <path fill="none" d="M21.31,56.91 L 198.2 56.91"/>
      <path fill="none" d="M21.31,46.93 L 198.2 46.93"/>
      <path fill="none" d="M21.31,36.95 L 198.2 36.95"/>
      <path fill="none" d="M21.31,26.97 L 198.2 26.97"/>
      <path fill="none" d="M21.31,16.98 L 198.2 16.98"/>
      <path fill="none" d="M21.31,7 L 198.2 7"/>
    </g>
    <g class="guide xgridlines yfixed" stroke-dasharray="0.5,0.5" stroke-width="0.2" stroke="#D0D0E0" id="fig-0358e7323abf4b20943a61de8ea3a2f9-element-9">
      <path fill="none" d="M65.53,5 L 65.53 58.91"/>
      <path fill="none" d="M112.91,5 L 112.91 58.91"/>
      <path fill="none" d="M161.87,5 L 161.87 58.91"/>
    </g>
    <g class="plotpanel" id="fig-0358e7323abf4b20943a61de8ea3a2f9-element-10">
      <g stroke-width="0.79" fill="none" class="geometry color_1.0" stroke="#FFD700" id="fig-0358e7323abf4b20943a61de8ea3a2f9-element-11">
        <path fill="none" d="M22.88,50.13 L 27.62 49.71 29.2 49.41 30.78 49.23 32.36 49.09 33.94 48.89 35.52 48.69 37.1 48.35 38.68 48.09 40.26 48.11 41.84 47.85 43.42 47.65 45 47.45 46.58 47.13 48.16 46.91 49.73 46.29 51.31 45.67 52.89 45.45 54.47 45.06 56.05 44.88 57.63 44.78 59.21 44.64 60.79 45.37 62.37 45.14 63.95 45 65.53 44.9 67.11 44.84 68.69 44.6 70.27 43.5 71.85 42.58 73.43 42.4 78.16 40.72 86.06 38.77 87.64 38.71 89.22 36.81 90.8 35.95 92.38 35.71 93.96 35.13 95.54 34.79 101.86 32.64 103.43 32.36 111.33 30.24 114.49 29.42 116.07 29.08 117.65 28.72 119.23 28.4 120.81 27.76 122.39 27.56 123.97 27.66 128.71 26.77 130.28 26.11 133.44 25.53 135.02 25.13 136.6 24.71 141.34 24.47 144.5 23.93 149.24 22.87 155.56 22.03 158.71 20.48 163.45 19.48 174.51 17.6 180.83 16.04 182.41 15.77 183.99 15.69 185.56 15.09 187.14 14.77 188.72 14.75 191.88 14.33 193.46 14.17 195.04 13.89"/>
      </g>
    </g>
  </g>
  <g class="guide ylabels" font-size="2.82" font-family="'PT Sans Caption','Helvetica Neue','Helvetica',sans-serif" fill="#6C606B" id="fig-0358e7323abf4b20943a61de8ea3a2f9-element-12">
    <text x="20.31" y="56.91" text-anchor="end" dy="0.35em">4000</text>
    <text x="20.31" y="46.93" text-anchor="end" dy="0.35em">4500</text>
    <text x="20.31" y="36.95" text-anchor="end" dy="0.35em">5000</text>
    <text x="20.31" y="26.97" text-anchor="end" dy="0.35em">5500</text>
    <text x="20.31" y="16.98" text-anchor="end" dy="0.35em">6000</text>
    <text x="20.31" y="7" text-anchor="end" dy="0.35em">6500</text>
  </g>
</g>
<defs>
<clipPath id="fig-0358e7323abf4b20943a61de8ea3a2f9-element-6">
  <path d="M21.31,5 L 198.2 5 198.2 58.91 21.31 58.91" />
</clipPath
></defs>
</svg>
