<?xml version="1.0" encoding="UTF-8"?>
<svg xmlns="http://www.w3.org/2000/svg"
     xmlns:xlink="http://www.w3.org/1999/xlink"
     xmlns:gadfly="http://www.gadflyjl.org/ns"
     version="1.2"
     width="203.2mm" height="76.2mm" viewBox="0 0 203.2 76.2"
     stroke="none"
     fill="#000000"
     stroke-width="0.3"
     font-size="3.88"
>
<g class="plotroot xscalable yscalable" id="fig-abb977df24164ee6b2cbf32d23c114e8-element-1">
  <g font-size="3.88" font-family="'PT Sans','Helvetica Neue','Helvetica',sans-serif" fill="#564A55" stroke="none" id="fig-abb977df24164ee6b2cbf32d23c114e8-element-2">
    <text x="109.75" y="68.2" text-anchor="middle">Date</text>
  </g>
  <g class="guide xlabels" font-size="2.82" font-family="'PT Sans Caption','Helvetica Neue','Helvetica',sans-serif" fill="#6C606B" id="fig-abb977df24164ee6b2cbf32d23c114e8-element-3">
    <text x="98.7" y="62.59" text-anchor="middle">Nev</text>
    <text x="181.62" y="62.59" text-anchor="middle">Dec</text>
  </g>
  <g font-size="3.88" font-family="'PT Sans','Helvetica Neue','Helvetica',sans-serif" fill="#564A55" stroke="none" id="fig-abb977df24164ee6b2cbf32d23c114e8-element-4">
    <text x="8.81" y="29.96" text-anchor="middle" dy="0.35em" transform="rotate(-90, 8.81, 31.96)">Number of Stars</text>
  </g>
  <g clip-path="url(#fig-abb977df24164ee6b2cbf32d23c114e8-element-6)" id="fig-abb977df24164ee6b2cbf32d23c114e8-element-5">
    <g pointer-events="visible" opacity="1" fill="none" stroke="none" class="guide background" id="fig-abb977df24164ee6b2cbf32d23c114e8-element-7">
      <rect x="21.31" y="5" width="176.89" height="53.91"/>
    </g>
    <g class="guide ygridlines xfixed" stroke-dasharray="0.5,0.5" stroke-width="0.2" stroke="#D0D0E0" id="fig-abb977df24164ee6b2cbf32d23c114e8-element-8">
      <path fill="none" d="M21.31,56.91 L 198.2 56.91"/>
      <path fill="none" d="M21.31,40.28 L 198.2 40.28"/>
      <path fill="none" d="M21.31,23.64 L 198.2 23.64"/>
      <path fill="none" d="M21.31,7 L 198.2 7"/>
    </g>
    <g class="guide xgridlines yfixed" stroke-dasharray="0.5,0.5" stroke-width="0.2" stroke="#D0D0E0" id="fig-abb977df24164ee6b2cbf32d23c114e8-element-9">
      <path fill="none" d="M98.7,5 L 98.7 58.91"/>
      <path fill="none" d="M181.62,5 L 181.62 58.91"/>
    </g>
    <g class="plotpanel" id="fig-abb977df24164ee6b2cbf32d23c114e8-element-10">
      <g stroke-width="0.79" fill="none" class="geometry color_1.0" stroke="#FFD700" id="fig-abb977df24164ee6b2cbf32d23c114e8-element-11">
        <path fill="none" d="M24.07,45.6 L 32.36 44.9 35.12 44.4 37.89 44.1 40.65 43.87 43.42 43.54 46.18 43.21 48.94 42.64 51.71 42.21 54.47 42.24 57.24 41.81 60 41.47 62.76 41.14 65.53 40.61 68.29 40.24 71.06 39.21 73.82 38.18 76.58 37.81 79.35 37.15 82.11 36.85 84.88 36.68 87.64 36.45 90.4 37.68 93.17 37.28 95.93 37.05 98.7 36.88 101.46 36.78 104.22 36.38 106.99 34.55 109.75 33.02 112.52 32.72 120.81 29.93 134.63 26.67 137.39 26.57 140.16 23.41 142.92 21.97 145.68 21.58 148.45 20.61 151.21 20.04 162.27 16.45 165.03 15.98 178.85 12.46 184.38 11.09 187.14 10.53 189.91 9.93 192.67 9.4 195.44 8.33 198.2 8"/>
      </g>
    </g>
  </g>
  <g class="guide ylabels" font-size="2.82" font-family="'PT Sans Caption','Helvetica Neue','Helvetica',sans-serif" fill="#6C606B" id="fig-abb977df24164ee6b2cbf32d23c114e8-element-12">
    <text x="20.31" y="56.91" text-anchor="end" dy="0.35em">4000</text>
    <text x="20.31" y="40.28" text-anchor="end" dy="0.35em">4500</text>
    <text x="20.31" y="23.64" text-anchor="end" dy="0.35em">5000</text>
    <text x="20.31" y="7" text-anchor="end" dy="0.35em">5500</text>
  </g>
</g>
<defs>
<clipPath id="fig-abb977df24164ee6b2cbf32d23c114e8-element-6">
  <path d="M21.31,5 L 198.2 5 198.2 58.91 21.31 58.91" />
</clipPath
></defs>
</svg>
