<?xml version="1.0" encoding="UTF-8"?>
<svg xmlns="http://www.w3.org/2000/svg"
     xmlns:xlink="http://www.w3.org/1999/xlink"
     xmlns:gadfly="http://www.gadflyjl.org/ns"
     version="1.2"
     width="203.2mm" height="76.2mm" viewBox="0 0 203.2 76.2"
     stroke="none"
     fill="#000000"
     stroke-width="0.3"
     font-size="3.88"
>
<g class="plotroot xscalable yscalable" id="fig-291933688ad249d3bebff54df99597ad-element-1">
  <g font-size="3.88" font-family="'PT Sans','Helvetica Neue','Helvetica',sans-serif" fill="#564A55" stroke="none" id="fig-291933688ad249d3bebff54df99597ad-element-2">
    <text x="109.75" y="68.2" text-anchor="middle">Date</text>
  </g>
  <g class="guide xlabels" font-size="2.82" font-family="'PT Sans Caption','Helvetica Neue','Helvetica',sans-serif" fill="#6C606B" id="fig-291933688ad249d3bebff54df99597ad-element-3">
    <text x="24.35" y="62.59" text-anchor="middle">Oct 5 2014</text>
    <text x="45.7" y="62.59" text-anchor="middle">12</text>
    <text x="67.05" y="62.59" text-anchor="middle">19</text>
    <text x="88.4" y="62.59" text-anchor="middle">26</text>
    <text x="106.7" y="62.59" text-anchor="middle">Nev 1</text>
    <text x="128.05" y="62.59" text-anchor="middle">8</text>
    <text x="149.4" y="62.59" text-anchor="middle">15</text>
    <text x="170.75" y="62.59" text-anchor="middle">22</text>
    <text x="198.2" y="62.59" text-anchor="middle">Dec 1</text>
  </g>
  <g font-size="3.88" font-family="'PT Sans','Helvetica Neue','Helvetica',sans-serif" fill="#564A55" stroke="none" id="fig-291933688ad249d3bebff54df99597ad-element-4">
    <text x="8.81" y="29.96" text-anchor="middle" dy="0.35em" transform="rotate(-90, 8.81, 31.96)">Number of Stars</text>
  </g>
  <g clip-path="url(#fig-291933688ad249d3bebff54df99597ad-element-6)" id="fig-291933688ad249d3bebff54df99597ad-element-5">
    <g pointer-events="visible" opacity="1" fill="none" stroke="none" class="guide background" id="fig-291933688ad249d3bebff54df99597ad-element-7">
      <rect x="21.31" y="5" width="176.89" height="53.91"/>
    </g>
    <g class="guide ygridlines xfixed" stroke-dasharray="0.5,0.5" stroke-width="0.2" stroke="#D0D0E0" id="fig-291933688ad249d3bebff54df99597ad-element-8">
      <path fill="none" d="M21.31,56.91 L 198.2 56.91"/>
      <path fill="none" d="M21.31,40.28 L 198.2 40.28"/>
      <path fill="none" d="M21.31,23.64 L 198.2 23.64"/>
      <path fill="none" d="M21.31,7 L 198.2 7"/>
    </g>
    <g class="guide xgridlines yfixed" stroke-dasharray="0.5,0.5" stroke-width="0.2" stroke="#D0D0E0" id="fig-291933688ad249d3bebff54df99597ad-element-9">
      <path fill="none" d="M24.35,5 L 24.35 58.91"/>
      <path fill="none" d="M45.7,5 L 45.7 58.91"/>
      <path fill="none" d="M67.05,5 L 67.05 58.91"/>
      <path fill="none" d="M88.4,5 L 88.4 58.91"/>
      <path fill="none" d="M106.7,5 L 106.7 58.91"/>
      <path fill="none" d="M128.05,5 L 128.05 58.91"/>
      <path fill="none" d="M149.4,5 L 149.4 58.91"/>
      <path fill="none" d="M170.75,5 L 170.75 58.91"/>
      <path fill="none" d="M198.2,5 L 198.2 58.91"/>
    </g>
    <g class="plotpanel" id="fig-291933688ad249d3bebff54df99597ad-element-10">
      <g stroke-width="0.79" fill="none" class="geometry color_1.0" stroke="#FFD700" id="fig-291933688ad249d3bebff54df99597ad-element-11">
        <path fill="none" d="M24.35,45.6 L 33.5 44.9 36.55 44.4 39.6 44.1 42.65 43.87 45.7 43.54 48.75 43.21 51.8 42.64 54.85 42.21 57.9 42.24 60.95 41.81 64 41.47 67.05 41.14 70.1 40.61 73.15 40.24 76.2 39.21 79.25 38.18 82.3 37.81 85.35 37.15 88.4 36.85 91.45 36.68 94.5 36.45 97.55 37.68 100.6 37.28 103.65 37.05 106.7 36.88 109.75 36.78 112.8 36.38 115.85 34.55 118.9 33.02 121.95 32.72 131.1 29.93 146.35 26.67 149.4 26.57 152.45 23.41 155.5 21.97 158.55 21.58 161.6 20.61 164.65 20.04 176.85 16.45 179.9 15.98 195.15 12.46"/>
      </g>
    </g>
  </g>
  <g class="guide ylabels" font-size="2.82" font-family="'PT Sans Caption','Helvetica Neue','Helvetica',sans-serif" fill="#6C606B" id="fig-291933688ad249d3bebff54df99597ad-element-12">
    <text x="20.31" y="56.91" text-anchor="end" dy="0.35em">4000</text>
    <text x="20.31" y="40.28" text-anchor="end" dy="0.35em">4500</text>
    <text x="20.31" y="23.64" text-anchor="end" dy="0.35em">5000</text>
    <text x="20.31" y="7" text-anchor="end" dy="0.35em">5500</text>
  </g>
</g>
<defs>
<clipPath id="fig-291933688ad249d3bebff54df99597ad-element-6">
  <path d="M21.31,5 L 198.2 5 198.2 58.91 21.31 58.91" />
</clipPath
></defs>
</svg>
