<?xml version="1.0" encoding="UTF-8"?>
<svg xmlns="http://www.w3.org/2000/svg"
     xmlns:xlink="http://www.w3.org/1999/xlink"
     xmlns:gadfly="http://www.gadflyjl.org/ns"
     version="1.2"
     width="203.2mm" height="76.2mm" viewBox="0 0 203.2 76.2"
     stroke="none"
     fill="#000000"
     stroke-width="0.3"
     font-size="3.88"
>
<g class="plotroot xscalable yscalable" id="fig-bdc9b08e160b4acd9fa345034835fdd8-element-1">
  <g font-size="3.88" font-family="'PT Sans','Helvetica Neue','Helvetica',sans-serif" fill="#564A55" stroke="none" id="fig-bdc9b08e160b4acd9fa345034835fdd8-element-2">
    <text x="109.75" y="68.2" text-anchor="middle">Date</text>
  </g>
  <g class="guide xlabels" font-size="2.82" font-family="'PT Sans Caption','Helvetica Neue','Helvetica',sans-serif" fill="#6C606B" id="fig-bdc9b08e160b4acd9fa345034835fdd8-element-3">
    <text x="92.06" y="62.59" text-anchor="middle">Nev</text>
    <text x="167.88" y="62.59" text-anchor="middle">Dec</text>
  </g>
  <g font-size="3.88" font-family="'PT Sans','Helvetica Neue','Helvetica',sans-serif" fill="#564A55" stroke="none" id="fig-bdc9b08e160b4acd9fa345034835fdd8-element-4">
    <text x="8.81" y="29.96" text-anchor="middle" dy="0.35em" transform="rotate(-90, 8.81, 31.96)">Number of Stars</text>
  </g>
  <g clip-path="url(#fig-bdc9b08e160b4acd9fa345034835fdd8-element-6)" id="fig-bdc9b08e160b4acd9fa345034835fdd8-element-5">
    <g pointer-events="visible" opacity="1" fill="none" stroke="none" class="guide background" id="fig-bdc9b08e160b4acd9fa345034835fdd8-element-7">
      <rect x="21.31" y="5" width="176.89" height="53.91"/>
    </g>
    <g class="guide ygridlines xfixed" stroke-dasharray="0.5,0.5" stroke-width="0.2" stroke="#D0D0E0" id="fig-bdc9b08e160b4acd9fa345034835fdd8-element-8">
      <path fill="none" d="M21.31,56.92 L 198.2 56.92"/>
      <path fill="none" d="M21.31,44.44 L 198.2 44.44"/>
      <path fill="none" d="M21.31,31.96 L 198.2 31.96"/>
      <path fill="none" d="M21.31,19.48 L 198.2 19.48"/>
      <path fill="none" d="M21.31,7 L 198.2 7"/>
    </g>
    <g class="guide xgridlines yfixed" stroke-dasharray="0.5,0.5" stroke-width="0.2" stroke="#D0D0E0" id="fig-bdc9b08e160b4acd9fa345034835fdd8-element-9">
      <path fill="none" d="M92.06,5 L 92.06 58.91"/>
      <path fill="none" d="M167.88,5 L 167.88 58.91"/>
    </g>
    <g class="plotpanel" id="fig-bdc9b08e160b4acd9fa345034835fdd8-element-10">
      <g stroke-width="0.79" fill="none" class="geometry color_1.0" stroke="#FFD700" id="fig-bdc9b08e160b4acd9fa345034835fdd8-element-11">
        <path fill="none" d="M23.83,48.43 L 31.41 47.91 33.94 47.53 36.47 47.31 38.99 47.13 41.52 46.88 44.05 46.63 46.58 46.21 49.1 45.88 51.63 45.91 54.16 45.58 56.68 45.33 59.21 45.09 61.74 44.69 64.27 44.41 66.79 43.64 69.32 42.86 71.85 42.59 74.37 42.09 76.9 41.87 79.43 41.74 81.95 41.57 84.48 42.49 87.01 42.19 89.54 42.02 92.06 41.89 94.59 41.82 97.12 41.52 99.64 40.14 102.17 39 104.7 38.77 112.28 36.67 124.91 34.23 127.44 34.15 129.97 31.78 132.5 30.71 135.02 30.41 137.55 29.69 140.08 29.26 150.19 26.57 152.71 26.22 165.35 23.57 170.4 22.55 172.93 22.12 175.46 21.68 177.98 21.28 180.51 20.48 183.04 20.23 185.56 20.35 193.15 19.23 195.67 18.41"/>
      </g>
    </g>
  </g>
  <g class="guide ylabels" font-size="2.82" font-family="'PT Sans Caption','Helvetica Neue','Helvetica',sans-serif" fill="#6C606B" id="fig-bdc9b08e160b4acd9fa345034835fdd8-element-12">
    <text x="20.31" y="56.92" text-anchor="end" dy="0.35em">4000</text>
    <text x="20.31" y="44.44" text-anchor="end" dy="0.35em">4500</text>
    <text x="20.31" y="31.96" text-anchor="end" dy="0.35em">5000</text>
    <text x="20.31" y="19.48" text-anchor="end" dy="0.35em">5500</text>
    <text x="20.31" y="7" text-anchor="end" dy="0.35em">6000</text>
  </g>
</g>
<defs>
<clipPath id="fig-bdc9b08e160b4acd9fa345034835fdd8-element-6">
  <path d="M21.31,5 L 198.2 5 198.2 58.91 21.31 58.91" />
</clipPath
></defs>
</svg>
