<?xml version="1.0" encoding="UTF-8"?>
<svg xmlns="http://www.w3.org/2000/svg"
     xmlns:xlink="http://www.w3.org/1999/xlink"
     xmlns:gadfly="http://www.gadflyjl.org/ns"
     version="1.2"
     width="203.2mm" height="76.2mm" viewBox="0 0 203.2 76.2"
     stroke="none"
     fill="#000000"
     stroke-width="0.3"
     font-size="3.88"
>
<g class="plotroot xscalable yscalable" id="fig-c8351258398d4f8e82b0c195663d9f48-element-1">
  <g font-size="3.88" font-family="'PT Sans','Helvetica Neue','Helvetica',sans-serif" fill="#564A55" stroke="none" id="fig-c8351258398d4f8e82b0c195663d9f48-element-2">
    <text x="109.75" y="68.2" text-anchor="middle">Date</text>
  </g>
  <g class="guide xlabels" font-size="2.82" font-family="'PT Sans Caption','Helvetica Neue','Helvetica',sans-serif" fill="#6C606B" id="fig-c8351258398d4f8e82b0c195663d9f48-element-3">
    <text x="67.6" y="62.59" text-anchor="middle">Nov</text>
    <text x="117.19" y="62.59" text-anchor="middle">Dec</text>
    <text x="168.44" y="62.59" text-anchor="middle">Jan 2015</text>
  </g>
  <g font-size="3.88" font-family="'PT Sans','Helvetica Neue','Helvetica',sans-serif" fill="#564A55" stroke="none" id="fig-c8351258398d4f8e82b0c195663d9f48-element-4">
    <text x="8.81" y="29.96" text-anchor="middle" dy="0.35em" transform="rotate(-90, 8.81, 31.96)">Number of Stars</text>
  </g>
  <g clip-path="url(#fig-c8351258398d4f8e82b0c195663d9f48-element-6)" id="fig-c8351258398d4f8e82b0c195663d9f48-element-5">
    <g pointer-events="visible" opacity="1" fill="none" stroke="none" class="guide background" id="fig-c8351258398d4f8e82b0c195663d9f48-element-7">
      <rect x="21.31" y="5" width="176.89" height="53.91"/>
    </g>
    <g class="guide ygridlines xfixed" stroke-dasharray="0.5,0.5" stroke-width="0.2" stroke="#D0D0E0" id="fig-c8351258398d4f8e82b0c195663d9f48-element-8">
      <path fill="none" d="M21.31,56.91 L 198.2 56.91"/>
      <path fill="none" d="M21.31,46.93 L 198.2 46.93"/>
      <path fill="none" d="M21.31,36.95 L 198.2 36.95"/>
      <path fill="none" d="M21.31,26.97 L 198.2 26.97"/>
      <path fill="none" d="M21.31,16.98 L 198.2 16.98"/>
      <path fill="none" d="M21.31,7 L 198.2 7"/>
    </g>
    <g class="guide xgridlines yfixed" stroke-dasharray="0.5,0.5" stroke-width="0.2" stroke="#D0D0E0" id="fig-c8351258398d4f8e82b0c195663d9f48-element-9">
      <path fill="none" d="M67.6,5 L 67.6 58.91"/>
      <path fill="none" d="M117.19,5 L 117.19 58.91"/>
      <path fill="none" d="M168.44,5 L 168.44 58.91"/>
    </g>
    <g class="plotpanel" id="fig-c8351258398d4f8e82b0c195663d9f48-element-10">
      <g stroke-width="0.79" fill="none" class="geometry color_1.0" stroke="#FFD700" id="fig-c8351258398d4f8e82b0c195663d9f48-element-11">
        <path fill="none" d="M22.96,50.13 L 27.92 49.71 29.57 49.41 31.22 49.23 32.88 49.09 34.53 48.89 36.18 48.69 37.84 48.35 39.49 48.09 41.14 48.11 42.8 47.85 44.45 47.65 46.1 47.45 47.76 47.13 49.41 46.91 51.06 46.29 52.72 45.67 54.37 45.45 56.02 45.06 57.68 44.88 59.33 44.78 60.98 44.64 62.64 45.37 64.29 45.14 65.94 45 67.6 44.9 69.25 44.84 70.9 44.6 72.55 43.5 74.21 42.58 75.86 42.4 80.82 40.72 89.09 38.77 90.74 38.71 92.39 36.81 94.05 35.95 95.7 35.71 97.35 35.13 99.01 34.79 105.62 32.64 107.27 32.36 115.54 30.24 118.85 29.42 120.5 29.08 122.15 28.72 123.8 28.4 125.46 27.76 127.11 27.56 128.76 27.66 133.72 26.77 135.38 26.11 138.68 25.53 140.34 25.13 141.99 24.71 146.95 24.47 150.26 23.93 155.22 22.87 161.83 22.03 165.14 20.48 170.1 19.48 181.67 17.6 188.28 16.04 189.93 15.77 191.59 15.69 193.24 15.09 194.89 14.77 196.55 14.75"/>
      </g>
    </g>
  </g>
  <g class="guide ylabels" font-size="2.82" font-family="'PT Sans Caption','Helvetica Neue','Helvetica',sans-serif" fill="#6C606B" id="fig-c8351258398d4f8e82b0c195663d9f48-element-12">
    <text x="20.31" y="56.91" text-anchor="end" dy="0.35em">4000</text>
    <text x="20.31" y="46.93" text-anchor="end" dy="0.35em">4500</text>
    <text x="20.31" y="36.95" text-anchor="end" dy="0.35em">5000</text>
    <text x="20.31" y="26.97" text-anchor="end" dy="0.35em">5500</text>
    <text x="20.31" y="16.98" text-anchor="end" dy="0.35em">6000</text>
    <text x="20.31" y="7" text-anchor="end" dy="0.35em">6500</text>
  </g>
</g>
<defs>
<clipPath id="fig-c8351258398d4f8e82b0c195663d9f48-element-6">
  <path d="M21.31,5 L 198.2 5 198.2 58.91 21.31 58.91" />
</clipPath
></defs>
</svg>
