<?xml version="1.0" encoding="UTF-8"?>
<svg xmlns="http://www.w3.org/2000/svg"
     xmlns:xlink="http://www.w3.org/1999/xlink"
     xmlns:gadfly="http://www.gadflyjl.org/ns"
     version="1.2"
     width="203.2mm" height="76.2mm" viewBox="0 0 203.2 76.2"
     stroke="none"
     fill="#000000"
     stroke-width="0.3"
     font-size="3.88"
>
<g class="plotroot xscalable yscalable" id="fig-8c73b4d8a8b0464ebe1794ff36c37744-element-1">
  <g font-size="3.88" font-family="'PT Sans','Helvetica Neue','Helvetica',sans-serif" fill="#564A55" stroke="none" id="fig-8c73b4d8a8b0464ebe1794ff36c37744-element-2">
    <text x="109.75" y="68.2" text-anchor="middle">Date</text>
  </g>
  <g class="guide xlabels" font-size="2.82" font-family="'PT Sans Caption','Helvetica Neue','Helvetica',sans-serif" fill="#6C606B" id="fig-8c73b4d8a8b0464ebe1794ff36c37744-element-3">
    <text x="101.19" y="62.59" text-anchor="middle">Nev</text>
    <text x="186.79" y="62.59" text-anchor="middle">Dec</text>
  </g>
  <g font-size="3.88" font-family="'PT Sans','Helvetica Neue','Helvetica',sans-serif" fill="#564A55" stroke="none" id="fig-8c73b4d8a8b0464ebe1794ff36c37744-element-4">
    <text x="8.81" y="29.96" text-anchor="middle" dy="0.35em" transform="rotate(-90, 8.81, 31.96)">Number of Stars</text>
  </g>
  <g clip-path="url(#fig-8c73b4d8a8b0464ebe1794ff36c37744-element-6)" id="fig-8c73b4d8a8b0464ebe1794ff36c37744-element-5">
    <g pointer-events="visible" opacity="1" fill="none" stroke="none" class="guide background" id="fig-8c73b4d8a8b0464ebe1794ff36c37744-element-7">
      <rect x="21.31" y="5" width="176.89" height="53.91"/>
    </g>
    <g class="guide ygridlines xfixed" stroke-dasharray="0.5,0.5" stroke-width="0.2" stroke="#D0D0E0" id="fig-8c73b4d8a8b0464ebe1794ff36c37744-element-8">
      <path fill="none" d="M21.31,56.91 L 198.2 56.91"/>
      <path fill="none" d="M21.31,40.28 L 198.2 40.28"/>
      <path fill="none" d="M21.31,23.64 L 198.2 23.64"/>
      <path fill="none" d="M21.31,7 L 198.2 7"/>
    </g>
    <g class="guide xgridlines yfixed" stroke-dasharray="0.5,0.5" stroke-width="0.2" stroke="#D0D0E0" id="fig-8c73b4d8a8b0464ebe1794ff36c37744-element-9">
      <path fill="none" d="M101.19,5 L 101.19 58.91"/>
      <path fill="none" d="M186.79,5 L 186.79 58.91"/>
    </g>
    <g class="plotpanel" id="fig-8c73b4d8a8b0464ebe1794ff36c37744-element-10">
      <g stroke-width="0.79" fill="none" class="geometry color_1.0" stroke="#FFD700" id="fig-8c73b4d8a8b0464ebe1794ff36c37744-element-11">
        <path fill="none" d="M24.16,45.6 L 32.72 44.9 35.57 44.4 38.42 44.1 41.28 43.87 44.13 43.54 46.98 43.21 49.84 42.64 52.69 42.21 55.54 42.24 58.4 41.81 61.25 41.47 64.1 41.14 66.96 40.61 69.81 40.24 72.66 39.21 75.51 38.18 78.37 37.81 81.22 37.15 84.07 36.85 86.93 36.68 89.78 36.45 92.63 37.68 95.49 37.28 98.34 37.05 101.19 36.88 104.05 36.78 106.9 36.38 109.75 34.55 112.61 33.02 115.46 32.72 124.02 29.93 138.28 26.67 141.14 26.57 143.99 23.41 146.84 21.97 149.7 21.58 152.55 20.61 155.4 20.04 166.82 16.45 169.67 15.98 183.93 12.46 189.64 11.09 192.49 10.53 195.35 9.93 198.2 9.4"/>
      </g>
    </g>
  </g>
  <g class="guide ylabels" font-size="2.82" font-family="'PT Sans Caption','Helvetica Neue','Helvetica',sans-serif" fill="#6C606B" id="fig-8c73b4d8a8b0464ebe1794ff36c37744-element-12">
    <text x="20.31" y="56.91" text-anchor="end" dy="0.35em">4000</text>
    <text x="20.31" y="40.28" text-anchor="end" dy="0.35em">4500</text>
    <text x="20.31" y="23.64" text-anchor="end" dy="0.35em">5000</text>
    <text x="20.31" y="7" text-anchor="end" dy="0.35em">5500</text>
  </g>
</g>
<defs>
<clipPath id="fig-8c73b4d8a8b0464ebe1794ff36c37744-element-6">
  <path d="M21.31,5 L 198.2 5 198.2 58.91 21.31 58.91" />
</clipPath
></defs>
</svg>
