<?xml version="1.0" encoding="UTF-8"?>
<svg xmlns="http://www.w3.org/2000/svg"
     xmlns:xlink="http://www.w3.org/1999/xlink"
     xmlns:gadfly="http://www.gadflyjl.org/ns"
     version="1.2"
     width="203.2mm" height="76.2mm" viewBox="0 0 203.2 76.2"
     stroke="none"
     fill="#000000"
     stroke-width="0.3"
     font-size="3.88"
>
<g class="plotroot xscalable yscalable" id="fig-565e0d95f681477fae8f4c46d7b87dd0-element-1">
  <g font-size="3.88" font-family="'PT Sans','Helvetica Neue','Helvetica',sans-serif" fill="#564A55" stroke="none" id="fig-565e0d95f681477fae8f4c46d7b87dd0-element-2">
    <text x="109.75" y="68.2" text-anchor="middle">Date</text>
  </g>
  <g class="guide xlabels" font-size="2.82" font-family="'PT Sans Caption','Helvetica Neue','Helvetica',sans-serif" fill="#6C606B" id="fig-565e0d95f681477fae8f4c46d7b87dd0-element-3">
    <text x="81.71" y="62.59" text-anchor="middle">Nov</text>
    <text x="146.43" y="62.59" text-anchor="middle">Dec</text>
  </g>
  <g font-size="3.88" font-family="'PT Sans','Helvetica Neue','Helvetica',sans-serif" fill="#564A55" stroke="none" id="fig-565e0d95f681477fae8f4c46d7b87dd0-element-4">
    <text x="8.81" y="29.96" text-anchor="middle" dy="0.35em" transform="rotate(-90, 8.81, 31.96)">Number of Stars</text>
  </g>
  <g clip-path="url(#fig-565e0d95f681477fae8f4c46d7b87dd0-element-6)" id="fig-565e0d95f681477fae8f4c46d7b87dd0-element-5">
    <g pointer-events="visible" opacity="1" fill="none" stroke="none" class="guide background" id="fig-565e0d95f681477fae8f4c46d7b87dd0-element-7">
      <rect x="21.31" y="5" width="176.89" height="53.92"/>
    </g>
    <g class="guide ygridlines xfixed" stroke-dasharray="0.5,0.5" stroke-width="0.2" stroke="#D0D0E0" id="fig-565e0d95f681477fae8f4c46d7b87dd0-element-8">
      <path fill="none" d="M21.31,56.92 L 198.2 56.92"/>
      <path fill="none" d="M21.31,44.44 L 198.2 44.44"/>
      <path fill="none" d="M21.31,31.96 L 198.2 31.96"/>
      <path fill="none" d="M21.31,19.48 L 198.2 19.48"/>
      <path fill="none" d="M21.31,7 L 198.2 7"/>
    </g>
    <g class="guide xgridlines yfixed" stroke-dasharray="0.5,0.5" stroke-width="0.2" stroke="#D0D0E0" id="fig-565e0d95f681477fae8f4c46d7b87dd0-element-9">
      <path fill="none" d="M81.71,5 L 81.71 58.92"/>
      <path fill="none" d="M146.43,5 L 146.43 58.92"/>
    </g>
    <g class="plotpanel" id="fig-565e0d95f681477fae8f4c46d7b87dd0-element-10">
      <g stroke-width="0.79" fill="none" class="geometry color_1.0" stroke="#FFD700" id="fig-565e0d95f681477fae8f4c46d7b87dd0-element-11">
        <path fill="none" d="M23.46,48.43 L 29.93 47.91 32.09 47.53 34.25 47.31 36.41 47.13 38.56 46.88 40.72 46.63 42.88 46.21 45.03 45.88 47.19 45.91 49.35 45.58 51.51 45.33 53.66 45.09 55.82 44.69 57.98 44.41 60.14 43.64 62.29 42.86 64.45 42.59 66.61 42.09 68.76 41.87 70.92 41.74 73.08 41.57 75.24 42.49 77.39 42.19 79.55 42.02 81.71 41.89 83.87 41.82 86.02 41.52 88.18 40.14 90.34 39 92.49 38.77 98.97 36.67 109.75 34.23 111.91 34.15 114.07 31.78 116.22 30.71 118.38 30.41 120.54 29.69 122.7 29.26 131.33 26.57 133.48 26.22 144.27 23.57 148.58 22.55 150.74 22.12 152.9 21.68 155.05 21.28 157.21 20.48 159.37 20.23 161.53 20.35 168 19.23 170.16 18.41 174.47 17.68 176.63 17.18 178.78 16.66 185.26 16.36 189.57 15.69 196.04 14.36"/>
      </g>
    </g>
  </g>
  <g class="guide ylabels" font-size="2.82" font-family="'PT Sans Caption','Helvetica Neue','Helvetica',sans-serif" fill="#6C606B" id="fig-565e0d95f681477fae8f4c46d7b87dd0-element-12">
    <text x="20.31" y="56.92" text-anchor="end" dy="0.35em">4000</text>
    <text x="20.31" y="44.44" text-anchor="end" dy="0.35em">4500</text>
    <text x="20.31" y="31.96" text-anchor="end" dy="0.35em">5000</text>
    <text x="20.31" y="19.48" text-anchor="end" dy="0.35em">5500</text>
    <text x="20.31" y="7" text-anchor="end" dy="0.35em">6000</text>
  </g>
</g>
<defs>
<clipPath id="fig-565e0d95f681477fae8f4c46d7b87dd0-element-6">
  <path d="M21.31,5 L 198.2 5 198.2 58.92 21.31 58.92" />
</clipPath
></defs>
</svg>
