<?xml version="1.0" encoding="UTF-8"?>
<svg xmlns="http://www.w3.org/2000/svg"
     xmlns:xlink="http://www.w3.org/1999/xlink"
     xmlns:gadfly="http://www.gadflyjl.org/ns"
     version="1.2"
     width="203.2mm" height="76.2mm" viewBox="0 0 203.2 76.2"
     stroke="none"
     fill="#000000"
     stroke-width="0.3"
     font-size="3.88"
>
<g class="plotroot xscalable yscalable" id="fig-378650b06f244406be10824388b6391c-element-1">
  <g font-size="3.88" font-family="'PT Sans','Helvetica Neue','Helvetica',sans-serif" fill="#564A55" stroke="none" id="fig-378650b06f244406be10824388b6391c-element-2">
    <text x="109.75" y="68.2" text-anchor="middle">Date</text>
  </g>
  <g class="guide xlabels" font-size="2.82" font-family="'PT Sans Caption','Helvetica Neue','Helvetica',sans-serif" fill="#6C606B" id="fig-378650b06f244406be10824388b6391c-element-3">
    <text x="90.1" y="62.59" text-anchor="middle">Nev</text>
    <text x="163.8" y="62.59" text-anchor="middle">Dec</text>
  </g>
  <g font-size="3.88" font-family="'PT Sans','Helvetica Neue','Helvetica',sans-serif" fill="#564A55" stroke="none" id="fig-378650b06f244406be10824388b6391c-element-4">
    <text x="8.81" y="29.96" text-anchor="middle" dy="0.35em" transform="rotate(-90, 8.81, 31.96)">Number of Stars</text>
  </g>
  <g clip-path="url(#fig-378650b06f244406be10824388b6391c-element-6)" id="fig-378650b06f244406be10824388b6391c-element-5">
    <g pointer-events="visible" opacity="1" fill="none" stroke="none" class="guide background" id="fig-378650b06f244406be10824388b6391c-element-7">
      <rect x="21.31" y="5" width="176.89" height="53.91"/>
    </g>
    <g class="guide ygridlines xfixed" stroke-dasharray="0.5,0.5" stroke-width="0.2" stroke="#D0D0E0" id="fig-378650b06f244406be10824388b6391c-element-8">
      <path fill="none" d="M21.31,56.92 L 198.2 56.92"/>
      <path fill="none" d="M21.31,44.44 L 198.2 44.44"/>
      <path fill="none" d="M21.31,31.96 L 198.2 31.96"/>
      <path fill="none" d="M21.31,19.48 L 198.2 19.48"/>
      <path fill="none" d="M21.31,7 L 198.2 7"/>
    </g>
    <g class="guide xgridlines yfixed" stroke-dasharray="0.5,0.5" stroke-width="0.2" stroke="#D0D0E0" id="fig-378650b06f244406be10824388b6391c-element-9">
      <path fill="none" d="M90.1,5 L 90.1 58.91"/>
      <path fill="none" d="M163.8,5 L 163.8 58.91"/>
    </g>
    <g class="plotpanel" id="fig-378650b06f244406be10824388b6391c-element-10">
      <g stroke-width="0.79" fill="none" class="geometry color_1.0" stroke="#FFD700" id="fig-378650b06f244406be10824388b6391c-element-11">
        <path fill="none" d="M23.76,48.43 L 31.13 47.91 33.59 47.53 36.05 47.31 38.5 47.13 40.96 46.88 43.42 46.63 45.87 46.21 48.33 45.88 50.79 45.91 53.24 45.58 55.7 45.33 58.16 45.09 60.62 44.69 63.07 44.41 65.53 43.64 67.99 42.86 70.44 42.59 72.9 42.09 75.36 41.87 77.81 41.74 80.27 41.57 82.73 42.49 85.18 42.19 87.64 42.02 90.1 41.89 92.55 41.82 95.01 41.52 97.47 40.14 99.93 39 102.38 38.77 109.75 36.67 122.04 34.23 124.49 34.15 126.95 31.78 129.41 30.71 131.86 30.41 134.32 29.69 136.78 29.26 146.61 26.57 149.06 26.22 161.35 23.57 166.26 22.55 168.72 22.12 171.17 21.68 173.63 21.28 176.09 20.48 178.55 20.23 181 20.35 188.37 19.23 190.83 18.41 195.74 17.68"/>
      </g>
    </g>
  </g>
  <g class="guide ylabels" font-size="2.82" font-family="'PT Sans Caption','Helvetica Neue','Helvetica',sans-serif" fill="#6C606B" id="fig-378650b06f244406be10824388b6391c-element-12">
    <text x="20.31" y="56.92" text-anchor="end" dy="0.35em">4000</text>
    <text x="20.31" y="44.44" text-anchor="end" dy="0.35em">4500</text>
    <text x="20.31" y="31.96" text-anchor="end" dy="0.35em">5000</text>
    <text x="20.31" y="19.48" text-anchor="end" dy="0.35em">5500</text>
    <text x="20.31" y="7" text-anchor="end" dy="0.35em">6000</text>
  </g>
</g>
<defs>
<clipPath id="fig-378650b06f244406be10824388b6391c-element-6">
  <path d="M21.31,5 L 198.2 5 198.2 58.91 21.31 58.91" />
</clipPath
></defs>
</svg>
