<?xml version="1.0" encoding="UTF-8"?>
<svg xmlns="http://www.w3.org/2000/svg"
     xmlns:xlink="http://www.w3.org/1999/xlink"
     xmlns:gadfly="http://www.gadflyjl.org/ns"
     version="1.2"
     width="203.2mm" height="76.2mm" viewBox="0 0 203.2 76.2"
     stroke="none"
     fill="#000000"
     stroke-width="0.3"
     font-size="3.88"
>
<g class="plotroot xscalable yscalable" id="fig-7f6edad53d604d31a775d0b1bebf5bbe-element-1">
  <g font-size="3.88" font-family="'PT Sans','Helvetica Neue','Helvetica',sans-serif" fill="#564A55" stroke="none" id="fig-7f6edad53d604d31a775d0b1bebf5bbe-element-2">
    <text x="109.75" y="68.2" text-anchor="middle">Date</text>
  </g>
  <g class="guide xlabels" font-size="2.82" font-family="'PT Sans Caption','Helvetica Neue','Helvetica',sans-serif" fill="#6C606B" id="fig-7f6edad53d604d31a775d0b1bebf5bbe-element-3">
    <text x="66.33" y="62.59" text-anchor="middle">Nov</text>
    <text x="114.58" y="62.59" text-anchor="middle">Dec</text>
    <text x="164.43" y="62.59" text-anchor="middle">Jan 2015</text>
  </g>
  <g font-size="3.88" font-family="'PT Sans','Helvetica Neue','Helvetica',sans-serif" fill="#564A55" stroke="none" id="fig-7f6edad53d604d31a775d0b1bebf5bbe-element-4">
    <text x="8.81" y="29.96" text-anchor="middle" dy="0.35em" transform="rotate(-90, 8.81, 31.96)">Number of Stars</text>
  </g>
  <g clip-path="url(#fig-7f6edad53d604d31a775d0b1bebf5bbe-element-6)" id="fig-7f6edad53d604d31a775d0b1bebf5bbe-element-5">
    <g pointer-events="visible" opacity="1" fill="none" stroke="none" class="guide background" id="fig-7f6edad53d604d31a775d0b1bebf5bbe-element-7">
      <rect x="21.31" y="5" width="176.89" height="53.91"/>
    </g>
    <g class="guide ygridlines xfixed" stroke-dasharray="0.5,0.5" stroke-width="0.2" stroke="#D0D0E0" id="fig-7f6edad53d604d31a775d0b1bebf5bbe-element-8">
      <path fill="none" d="M21.31,56.91 L 198.2 56.91"/>
      <path fill="none" d="M21.31,46.93 L 198.2 46.93"/>
      <path fill="none" d="M21.31,36.95 L 198.2 36.95"/>
      <path fill="none" d="M21.31,26.97 L 198.2 26.97"/>
      <path fill="none" d="M21.31,16.98 L 198.2 16.98"/>
      <path fill="none" d="M21.31,7 L 198.2 7"/>
    </g>
    <g class="guide xgridlines yfixed" stroke-dasharray="0.5,0.5" stroke-width="0.2" stroke="#D0D0E0" id="fig-7f6edad53d604d31a775d0b1bebf5bbe-element-9">
      <path fill="none" d="M66.33,5 L 66.33 58.91"/>
      <path fill="none" d="M114.58,5 L 114.58 58.91"/>
      <path fill="none" d="M164.43,5 L 164.43 58.91"/>
    </g>
    <g class="plotpanel" id="fig-7f6edad53d604d31a775d0b1bebf5bbe-element-10">
      <g stroke-width="0.79" fill="none" class="geometry color_1.0" stroke="#FFD700" id="fig-7f6edad53d604d31a775d0b1bebf5bbe-element-11">
        <path fill="none" d="M22.91,50.13 L 27.74 49.71 29.35 49.41 30.95 49.23 32.56 49.09 34.17 48.89 35.78 48.69 37.39 48.35 38.99 48.09 40.6 48.11 42.21 47.85 43.82 47.65 45.43 47.45 47.04 47.13 48.64 46.91 50.25 46.29 51.86 45.67 53.47 45.45 55.08 45.06 56.68 44.88 58.29 44.78 59.9 44.64 61.51 45.37 63.12 45.14 64.72 45 66.33 44.9 67.94 44.84 69.55 44.6 71.16 43.5 72.77 42.58 74.37 42.4 79.2 40.72 87.24 38.77 88.85 38.71 90.45 36.81 92.06 35.95 93.67 35.71 95.28 35.13 96.89 34.79 103.32 32.64 104.93 32.36 112.97 30.24 116.19 29.42 117.79 29.08 119.4 28.72 121.01 28.4 122.62 27.76 124.23 27.56 125.83 27.66 130.66 26.77 132.27 26.11 135.48 25.53 137.09 25.13 138.7 24.71 143.52 24.47 146.74 23.93 151.56 22.87 158 22.03 161.21 20.48 166.04 19.48 177.29 17.6 183.73 16.04 185.33 15.77 186.94 15.69 188.55 15.09 190.16 14.77 191.77 14.75 194.98 14.33 196.59 14.17"/>
      </g>
    </g>
  </g>
  <g class="guide ylabels" font-size="2.82" font-family="'PT Sans Caption','Helvetica Neue','Helvetica',sans-serif" fill="#6C606B" id="fig-7f6edad53d604d31a775d0b1bebf5bbe-element-12">
    <text x="20.31" y="56.91" text-anchor="end" dy="0.35em">4000</text>
    <text x="20.31" y="46.93" text-anchor="end" dy="0.35em">4500</text>
    <text x="20.31" y="36.95" text-anchor="end" dy="0.35em">5000</text>
    <text x="20.31" y="26.97" text-anchor="end" dy="0.35em">5500</text>
    <text x="20.31" y="16.98" text-anchor="end" dy="0.35em">6000</text>
    <text x="20.31" y="7" text-anchor="end" dy="0.35em">6500</text>
  </g>
</g>
<defs>
<clipPath id="fig-7f6edad53d604d31a775d0b1bebf5bbe-element-6">
  <path d="M21.31,5 L 198.2 5 198.2 58.91 21.31 58.91" />
</clipPath
></defs>
</svg>
