<?xml version="1.0" encoding="UTF-8"?>
<svg xmlns="http://www.w3.org/2000/svg"
     xmlns:xlink="http://www.w3.org/1999/xlink"
     xmlns:gadfly="http://www.gadflyjl.org/ns"
     version="1.2"
     width="203.2mm" height="76.2mm" viewBox="0 0 203.2 76.2"
     stroke="none"
     fill="#000000"
     stroke-width="0.3"
     font-size="3.88"
>
<g class="plotroot xscalable yscalable" id="fig-da3efd434b7a4291878f1b5ee761f538-element-1">
  <g font-size="3.88" font-family="'PT Sans','Helvetica Neue','Helvetica',sans-serif" fill="#564A55" stroke="none" id="fig-da3efd434b7a4291878f1b5ee761f538-element-2">
    <text x="109.75" y="68.2" text-anchor="middle">Date</text>
  </g>
  <g class="guide xlabels" font-size="2.82" font-family="'PT Sans Caption','Helvetica Neue','Helvetica',sans-serif" fill="#6C606B" id="fig-da3efd434b7a4291878f1b5ee761f538-element-3">
    <text x="21.31" y="62.59" text-anchor="middle">Oct 5 2014</text>
    <text x="65.53" y="62.59" text-anchor="middle">12</text>
    <text x="109.75" y="62.59" text-anchor="middle">19</text>
    <text x="153.98" y="62.59" text-anchor="middle">26</text>
    <text x="191.88" y="62.59" text-anchor="middle">Nev 1</text>
  </g>
  <g font-size="3.88" font-family="'PT Sans','Helvetica Neue','Helvetica',sans-serif" fill="#564A55" stroke="none" id="fig-da3efd434b7a4291878f1b5ee761f538-element-4">
    <text x="8.81" y="29.96" text-anchor="middle" dy="0.35em" transform="rotate(-90, 8.81, 31.96)">Number of Stars</text>
  </g>
  <g clip-path="url(#fig-da3efd434b7a4291878f1b5ee761f538-element-6)" id="fig-da3efd434b7a4291878f1b5ee761f538-element-5">
    <g pointer-events="visible" opacity="1" fill="none" stroke="none" class="guide background" id="fig-da3efd434b7a4291878f1b5ee761f538-element-7">
      <rect x="21.31" y="5" width="176.9" height="53.91"/>
    </g>
    <g class="guide ygridlines xfixed" stroke-dasharray="0.5,0.5" stroke-width="0.2" stroke="#D0D0E0" id="fig-da3efd434b7a4291878f1b5ee761f538-element-8">
      <path fill="none" d="M21.31,56.91 L 198.2 56.91"/>
      <path fill="none" d="M21.31,44.44 L 198.2 44.44"/>
      <path fill="none" d="M21.31,31.96 L 198.2 31.96"/>
      <path fill="none" d="M21.31,19.48 L 198.2 19.48"/>
      <path fill="none" d="M21.31,7 L 198.2 7"/>
    </g>
    <g class="guide xgridlines yfixed" stroke-dasharray="0.5,0.5" stroke-width="0.2" stroke="#D0D0E0" id="fig-da3efd434b7a4291878f1b5ee761f538-element-9">
      <path fill="none" d="M21.31,5 L 21.31 58.91"/>
      <path fill="none" d="M65.53,5 L 65.53 58.91"/>
      <path fill="none" d="M109.75,5 L 109.75 58.91"/>
      <path fill="none" d="M153.98,5 L 153.98 58.91"/>
      <path fill="none" d="M191.88,5 L 191.88 58.91"/>
    </g>
    <g class="plotpanel" id="fig-da3efd434b7a4291878f1b5ee761f538-element-10">
      <g stroke-width="0.79" fill="none" class="geometry color_1.0" stroke="#FFD700" id="fig-da3efd434b7a4291878f1b5ee761f538-element-11">
        <path fill="none" d="M21.31,46.93 L 40.26 41.69 46.58 37.95 52.89 35.7 59.21 33.95 65.53 31.46 71.85 28.96 78.16 24.72 84.48 21.48 90.8 21.72 97.12 18.48 103.43 15.98 109.75 13.49"/>
      </g>
    </g>
  </g>
  <g class="guide ylabels" font-size="2.82" font-family="'PT Sans Caption','Helvetica Neue','Helvetica',sans-serif" fill="#6C606B" id="fig-da3efd434b7a4291878f1b5ee761f538-element-12">
    <text x="20.31" y="56.91" text-anchor="end" dy="0.35em">4300</text>
    <text x="20.31" y="44.44" text-anchor="end" dy="0.35em">4350</text>
    <text x="20.31" y="31.96" text-anchor="end" dy="0.35em">4400</text>
    <text x="20.31" y="19.48" text-anchor="end" dy="0.35em">4450</text>
    <text x="20.31" y="7" text-anchor="end" dy="0.35em">4500</text>
  </g>
</g>
<defs>
<clipPath id="fig-da3efd434b7a4291878f1b5ee761f538-element-6">
  <path d="M21.31,5 L 198.2 5 198.2 58.91 21.31 58.91" />
</clipPath
></defs>
</svg>
