<?xml version="1.0" encoding="UTF-8"?>
<svg xmlns="http://www.w3.org/2000/svg"
     xmlns:xlink="http://www.w3.org/1999/xlink"
     xmlns:gadfly="http://www.gadflyjl.org/ns"
     version="1.2"
     width="203.2mm" height="76.2mm" viewBox="0 0 203.2 76.2"
     stroke="none"
     fill="#000000"
     stroke-width="0.3"
     font-size="3.88"
>
<g class="plotroot xscalable yscalable" id="fig-bf3e2735c0844cbb8d5776d634951f41-element-1">
  <g font-size="3.88" font-family="'PT Sans','Helvetica Neue','Helvetica',sans-serif" fill="#564A55" stroke="none" id="fig-bf3e2735c0844cbb8d5776d634951f41-element-2">
    <text x="109.75" y="68.2" text-anchor="middle">Date</text>
  </g>
  <g class="guide xlabels" font-size="2.82" font-family="'PT Sans Caption','Helvetica Neue','Helvetica',sans-serif" fill="#6C606B" id="fig-bf3e2735c0844cbb8d5776d634951f41-element-3">
    <text x="103.86" y="62.59" text-anchor="middle">Nev</text>
    <text x="192.3" y="62.59" text-anchor="middle">Dec</text>
  </g>
  <g font-size="3.88" font-family="'PT Sans','Helvetica Neue','Helvetica',sans-serif" fill="#564A55" stroke="none" id="fig-bf3e2735c0844cbb8d5776d634951f41-element-4">
    <text x="8.81" y="29.96" text-anchor="middle" dy="0.35em" transform="rotate(-90, 8.81, 31.96)">Number of Stars</text>
  </g>
  <g clip-path="url(#fig-bf3e2735c0844cbb8d5776d634951f41-element-6)" id="fig-bf3e2735c0844cbb8d5776d634951f41-element-5">
    <g pointer-events="visible" opacity="1" fill="none" stroke="none" class="guide background" id="fig-bf3e2735c0844cbb8d5776d634951f41-element-7">
      <rect x="21.31" y="5" width="176.89" height="53.91"/>
    </g>
    <g class="guide ygridlines xfixed" stroke-dasharray="0.5,0.5" stroke-width="0.2" stroke="#D0D0E0" id="fig-bf3e2735c0844cbb8d5776d634951f41-element-8">
      <path fill="none" d="M21.31,56.91 L 198.2 56.91"/>
      <path fill="none" d="M21.31,40.28 L 198.2 40.28"/>
      <path fill="none" d="M21.31,23.64 L 198.2 23.64"/>
      <path fill="none" d="M21.31,7 L 198.2 7"/>
    </g>
    <g class="guide xgridlines yfixed" stroke-dasharray="0.5,0.5" stroke-width="0.2" stroke="#D0D0E0" id="fig-bf3e2735c0844cbb8d5776d634951f41-element-9">
      <path fill="none" d="M103.86,5 L 103.86 58.91"/>
      <path fill="none" d="M192.3,5 L 192.3 58.91"/>
    </g>
    <g class="plotpanel" id="fig-bf3e2735c0844cbb8d5776d634951f41-element-10">
      <g stroke-width="0.79" fill="none" class="geometry color_1.0" stroke="#FFD700" id="fig-bf3e2735c0844cbb8d5776d634951f41-element-11">
        <path fill="none" d="M24.25,45.6 L 33.1 44.9 36.05 44.4 38.99 44.1 41.94 43.87 44.89 43.54 47.84 43.21 50.79 42.64 53.74 42.21 56.68 42.24 59.63 41.81 62.58 41.47 65.53 41.14 68.48 40.61 71.43 40.24 74.37 39.21 77.32 38.18 80.27 37.81 83.22 37.15 86.17 36.85 89.11 36.68 92.06 36.45 95.01 37.68 97.96 37.28 100.91 37.05 103.86 36.88 106.8 36.78 109.75 36.38 112.7 34.55 115.65 33.02 118.6 32.72 127.44 29.93 142.18 26.67 145.13 26.57 148.08 23.41 151.03 21.97 153.98 21.58 156.92 20.61 159.87 20.04 171.67 16.45 174.61 15.98 189.36 12.46 195.25 11.09 198.2 10.53"/>
      </g>
    </g>
  </g>
  <g class="guide ylabels" font-size="2.82" font-family="'PT Sans Caption','Helvetica Neue','Helvetica',sans-serif" fill="#6C606B" id="fig-bf3e2735c0844cbb8d5776d634951f41-element-12">
    <text x="20.31" y="56.91" text-anchor="end" dy="0.35em">4000</text>
    <text x="20.31" y="40.28" text-anchor="end" dy="0.35em">4500</text>
    <text x="20.31" y="23.64" text-anchor="end" dy="0.35em">5000</text>
    <text x="20.31" y="7" text-anchor="end" dy="0.35em">5500</text>
  </g>
</g>
<defs>
<clipPath id="fig-bf3e2735c0844cbb8d5776d634951f41-element-6">
  <path d="M21.31,5 L 198.2 5 198.2 58.91 21.31 58.91" />
</clipPath
></defs>
</svg>
