<?xml version="1.0" encoding="UTF-8"?>
<svg xmlns="http://www.w3.org/2000/svg"
     xmlns:xlink="http://www.w3.org/1999/xlink"
     xmlns:gadfly="http://www.gadflyjl.org/ns"
     version="1.2"
     width="203.2mm" height="76.2mm" viewBox="0 0 203.2 76.2"
     stroke="none"
     fill="#000000"
     stroke-width="0.3"
     font-size="3.88"
>
<g class="plotroot xscalable yscalable" id="fig-c286da64a250487fbf430ea0eb021ee2-element-1">
  <g font-size="3.88" font-family="'PT Sans','Helvetica Neue','Helvetica',sans-serif" fill="#564A55" stroke="#000000" stroke-opacity="0.000" id="fig-c286da64a250487fbf430ea0eb021ee2-element-2">
    <text x="112.46" y="64.59" text-anchor="middle" dy="0.6em">Date</text>
  </g>
  <g class="guide xlabels" font-size="2.82" font-family="'PT Sans Caption','Helvetica Neue','Helvetica',sans-serif" fill="#6C606B" id="fig-c286da64a250487fbf430ea0eb021ee2-element-3">
    <text x="42.18" y="57.91" text-anchor="middle" dy="0.6em">Nov</text>
    <text x="57.14" y="57.91" text-anchor="middle" dy="0.6em">Dec</text>
    <text x="72.59" y="57.91" text-anchor="middle" dy="0.6em">Jan 2015</text>
    <text x="88.04" y="57.91" text-anchor="middle" dy="0.6em">Feb</text>
    <text x="102" y="57.91" text-anchor="middle" dy="0.6em">Mar</text>
    <text x="117.45" y="57.91" text-anchor="middle" dy="0.6em">Apr</text>
    <text x="132.4" y="57.91" text-anchor="middle" dy="0.6em">May</text>
    <text x="147.85" y="57.91" text-anchor="middle" dy="0.6em">Jun</text>
    <text x="162.8" y="57.91" text-anchor="middle" dy="0.6em">Jul</text>
    <text x="178.26" y="57.91" text-anchor="middle" dy="0.6em">Aug</text>
    <text x="193.71" y="57.91" text-anchor="middle" dy="0.6em">Sep</text>
  </g>
  <g clip-path="url(#fig-c286da64a250487fbf430ea0eb021ee2-element-5)" id="fig-c286da64a250487fbf430ea0eb021ee2-element-4">
    <g pointer-events="visible" opacity="1" fill="#000000" fill-opacity="0.000" stroke="#000000" stroke-opacity="0.000" class="guide background" id="fig-c286da64a250487fbf430ea0eb021ee2-element-6">
      <rect x="26.72" y="5" width="171.47" height="51.91"/>
    </g>
    <g class="guide ygridlines xfixed" stroke-dasharray="0.5,0.5" stroke-width="0.2" stroke="#D0D0E0" id="fig-c286da64a250487fbf430ea0eb021ee2-element-7">
      <path fill="none" d="M26.72,54.91 L 198.2 54.91"/>
      <path fill="none" d="M26.72,46.93 L 198.2 46.93"/>
      <path fill="none" d="M26.72,38.94 L 198.2 38.94"/>
      <path fill="none" d="M26.72,30.96 L 198.2 30.96"/>
      <path fill="none" d="M26.72,22.97 L 198.2 22.97"/>
      <path fill="none" d="M26.72,14.99 L 198.2 14.99"/>
      <path fill="none" d="M26.72,7 L 198.2 7"/>
    </g>
    <g class="guide xgridlines yfixed" stroke-dasharray="0.5,0.5" stroke-width="0.2" stroke="#D0D0E0" id="fig-c286da64a250487fbf430ea0eb021ee2-element-8">
      <path fill="none" d="M42.18,5 L 42.18 56.91"/>
      <path fill="none" d="M57.14,5 L 57.14 56.91"/>
      <path fill="none" d="M72.59,5 L 72.59 56.91"/>
      <path fill="none" d="M88.04,5 L 88.04 56.91"/>
      <path fill="none" d="M102,5 L 102 56.91"/>
      <path fill="none" d="M117.45,5 L 117.45 56.91"/>
      <path fill="none" d="M132.4,5 L 132.4 56.91"/>
      <path fill="none" d="M147.85,5 L 147.85 56.91"/>
      <path fill="none" d="M162.8,5 L 162.8 56.91"/>
      <path fill="none" d="M178.26,5 L 178.26 56.91"/>
      <path fill="none" d="M193.71,5 L 193.71 56.91"/>
    </g>
    <g class="plotpanel" id="fig-c286da64a250487fbf430ea0eb021ee2-element-9">
      <g stroke-width="0.79" fill="#000000" fill-opacity="0.000" class="geometry color_1.0" stroke="#FFD700" id="fig-c286da64a250487fbf430ea0eb021ee2-element-10">
        <path fill="none" d="M28.73,52.2 L 30.22 52.03 30.72 51.91 31.22 51.84 31.72 51.78 32.21 51.7 32.71 51.62 33.21 51.49 33.71 51.39 34.21 51.39 34.71 51.29 35.2 51.21 35.7 51.13 36.2 51 36.7 50.91 37.2 50.67 37.7 50.42 38.2 50.33 38.69 50.17 39.19 50.1 39.69 50.06 40.19 50 40.69 50.3 41.19 50.2 41.68 50.15 42.18 50.11 42.68 50.08 43.18 49.99 43.68 49.55 44.18 49.18 44.68 49.11 46.17 48.44 48.66 47.66 49.16 47.63 49.66 46.87 50.16 46.53 50.66 46.43 51.15 46.2 51.65 46.07 53.65 45.2 54.15 45.09 56.64 44.25 57.63 43.92 58.13 43.78 58.63 43.64 59.13 43.51 59.63 43.26 60.13 43.18 60.63 43.22 62.12 42.86 62.62 42.59 63.62 42.36 64.11 42.2 64.61 42.03 66.11 41.94 67.1 41.72 68.6 41.3 70.59 40.96 71.59 40.34 73.09 39.94 76.58 39.19 78.57 38.57 79.07 38.46 79.57 38.42 80.06 38.18 80.56 38.06 81.06 38.05 82.06 37.88 82.56 37.82 83.05 37.71 83.55 37.61 84.05 37.56 84.55 37.54 85.05 37.51 86.05 37.32 86.54 37.15 87.04 37.11 89.04 36.68 89.53 36.48 90.03 36.39 91.03 36.24 92.03 36.06 92.53 36 94.02 35.64 96.51 35.02 99 33.9 101.5 33.39 102 33.13 102.49 33.01 102.99 32.79 103.49 32.58 104.49 32.3 105.48 32.04 107.48 31.59 107.98 31.48 108.48 31.3 108.97 31.24 109.47 31.13 109.97 30.9 110.47 30.79 116.45 29.7 117.45 29.46 117.95 29.38 118.94 29.25 120.94 28.71 121.93 28.59 122.93 28.41 124.92 27.96 125.92 27.78 126.42 27.72 127.42 27.38 127.91 27.31 128.41 27.19 128.91 27.12 129.41 27.02 129.91 26.92 130.9 26.69 131.4 26.6 132.4 26.34 133.4 26.07 133.9 25.94 134.39 25.71 135.39 25.53 135.89 25.29 138.38 24.78 140.38 24.29 140.87 24.1 144.86 23.39 145.36 23.32 145.86 23.28 147.35 22.91 147.85 22.72 148.35 22.57 149.35 22.36 150.34 22.13 151.34 21.68 155.83 19.38 157.82 18.83 158.32 18.72 158.82 19.02 159.32 19.06 159.81 18.93 160.31 18.84 160.81 18.72 162.31 18.48 163.3 18.34 164.3 18.17 164.8 18.09 165.3 17.87 165.8 17.57 166.29 17.43 166.79 17.33 175.27 14.86 179.25 14.12 183.74 12.81 192.21 9.08 193.71 9.28 196.2 8.54"/>
      </g>
    </g>
  </g>
  <g class="guide ylabels" font-size="2.82" font-family="'PT Sans Caption','Helvetica Neue','Helvetica',sans-serif" fill="#6C606B" id="fig-c286da64a250487fbf430ea0eb021ee2-element-11">
    <text x="25.72" y="54.91" text-anchor="end" dy="0.35em">4.0×10³</text>
    <text x="25.72" y="46.93" text-anchor="end" dy="0.35em">5.0×10³</text>
    <text x="25.72" y="38.94" text-anchor="end" dy="0.35em">6.0×10³</text>
    <text x="25.72" y="30.96" text-anchor="end" dy="0.35em">7.0×10³</text>
    <text x="25.72" y="22.97" text-anchor="end" dy="0.35em">8.0×10³</text>
    <text x="25.72" y="14.99" text-anchor="end" dy="0.35em">9.0×10³</text>
    <text x="25.72" y="7" text-anchor="end" dy="0.35em">1.0×10⁴</text>
  </g>
  <g font-size="3.88" font-family="'PT Sans','Helvetica Neue','Helvetica',sans-serif" fill="#564A55" stroke="#000000" stroke-opacity="0.000" id="fig-c286da64a250487fbf430ea0eb021ee2-element-12">
    <text x="8.81" y="28.96" text-anchor="middle" dy="0.35em" transform="rotate(-90, 8.81, 30.96)">Number of Stars</text>
  </g>
</g>
<defs>
<clipPath id="fig-c286da64a250487fbf430ea0eb021ee2-element-5">
  <path d="M26.72,5 L 198.2 5 198.2 56.91 26.72 56.91" />
</clipPath
></defs>
</svg>
