<?xml version="1.0" encoding="UTF-8"?>
<svg xmlns="http://www.w3.org/2000/svg"
     xmlns:xlink="http://www.w3.org/1999/xlink"
     xmlns:gadfly="http://www.gadflyjl.org/ns"
     version="1.2"
     width="101.6mm" height="76.2mm" viewBox="0 0 101.6 76.2"
     stroke="none"
     fill="#000000"
     stroke-width="0.3"
     font-size="3.88"
>
<g class="plotroot xscalable yscalable" id="img-7334be8f-1">
  <g font-size="3.88" font-family="'PT Sans','Helvetica Neue','Helvetica',sans-serif" fill="#564A55" stroke="#000000" stroke-opacity="0.000" id="img-7334be8f-2">
    <text x="58.12" y="64.59" text-anchor="middle" dy="0.6em">Date</text>
  </g>
  <g class="guide xlabels" font-size="2.82" font-family="'PT Sans Caption','Helvetica Neue','Helvetica',sans-serif" fill="#6C606B" id="img-7334be8f-3">
    <text x="22.71" y="57.91" text-anchor="middle" dy="0.6em">Apr</text>
    <text x="38.93" y="57.91" text-anchor="middle" dy="0.6em">May</text>
    <text x="55.68" y="57.91" text-anchor="middle" dy="0.6em">Jun</text>
    <text x="71.9" y="57.91" text-anchor="middle" dy="0.6em">Jul</text>
    <text x="88.65" y="57.91" text-anchor="middle" dy="0.6em">Aug</text>
  </g>
<g clip-path="url(#img-7334be8f-4)">
  <g id="img-7334be8f-5">
    <g pointer-events="visible" opacity="1" fill="#000000" fill-opacity="0.000" stroke="#000000" stroke-opacity="0.000" class="guide background" id="img-7334be8f-6">
      <rect x="19.63" y="12.61" width="76.97" height="44.3"/>
    </g>
    <g class="guide ygridlines xfixed" stroke-dasharray="0.5,0.5" stroke-width="0.2" stroke="#D0D0E0" id="img-7334be8f-7">
      <path fill="none" d="M19.63,54.91 L 96.6 54.91"/>
      <path fill="none" d="M19.63,46.85 L 96.6 46.85"/>
      <path fill="none" d="M19.63,38.79 L 96.6 38.79"/>
      <path fill="none" d="M19.63,30.73 L 96.6 30.73"/>
      <path fill="none" d="M19.63,22.67 L 96.6 22.67"/>
      <path fill="none" d="M19.63,14.61 L 96.6 14.61"/>
    </g>
    <g class="guide xgridlines yfixed" stroke-dasharray="0.5,0.5" stroke-width="0.2" stroke="#D0D0E0" id="img-7334be8f-8">
      <path fill="none" d="M22.71,12.61 L 22.71 56.91"/>
      <path fill="none" d="M38.93,12.61 L 38.93 56.91"/>
      <path fill="none" d="M55.68,12.61 L 55.68 56.91"/>
      <path fill="none" d="M71.9,12.61 L 71.9 56.91"/>
      <path fill="none" d="M88.65,12.61 L 88.65 56.91"/>
    </g>
    <g class="plotpanel" id="img-7334be8f-9">
      <g stroke-width="0.3" fill="#000000" fill-opacity="0.000" stroke-dasharray="none" id="img-7334be8f-10">
      </g>
      <g stroke-width="0.3" fill="#000000" fill-opacity="0.000" stroke-dasharray="none" id="img-7334be8f-11">
      </g>
      <g stroke-width="0.3" fill="#000000" fill-opacity="0.000" stroke-dasharray="none" id="img-7334be8f-12">
      </g>
      <g stroke-width="0.3" fill="#000000" fill-opacity="0.000" stroke-dasharray="none" id="img-7334be8f-13">
      </g>
      <g stroke-width="0.3" fill="#000000" fill-opacity="0.000" class="geometry color_oldnot_possible" stroke-dasharray="none" stroke="#808080" id="img-7334be8f-14">
        <path fill="none" d="M21.63,52.34 L 22.17 52.34 22.71 52.34 23.25 52.34 23.79 52.34 24.33 52.34 24.87 52.34 25.42 52.34 26.5 52.34 27.04 52.34 28.12 52.34 29.2 52.34 29.74 52.34 30.82 52.34 31.36 52.34 35.14 52.34 36.77 52.34 37.85 52.34 41.63 52.42 42.17 52.42 42.71 52.42 43.25 52.42 43.79 52.42 44.33 52.34 44.87 52.34 45.41 52.34 45.95 52.34 46.49 52.17 47.04 52.17 47.58 52.17 48.66 52.09 49.2 52.34 49.74 52.34 50.28 52.34 50.82 52.74 51.36 52.66 51.9 52.66 52.44 52.66 52.98 52.66 53.52 52.66 54.06 52.66 54.6 52.66 55.14 52.66 55.68 52.66 56.22 52.66 56.76 52.66 57.31 52.66 60.55 52.25 61.09 52.25 61.63 52.17 62.17 52.17 62.71 52.17 63.25 52.09 63.79 51.93 64.33 51.93 64.87 51.93 65.41 51.93 66.49 51.93 67.03 51.93 67.57 51.93 68.12 51.93 68.66 51.93 69.2 51.93 69.74 51.93 70.28 51.93 71.36 51.93 71.9 51.93 72.44 51.93 72.98 51.93 73.52 51.93 74.06 51.93 75.14 51.93 75.68 51.93 76.22 51.93 76.76 51.93 77.84 51.93 78.93 51.93 79.47 51.93 80.01 51.93 80.55 51.93 82.17 51.93 82.71 51.93 83.25 51.93 83.79 51.93 84.33 51.93 84.87 51.93 85.41 51.85 85.95 51.85 87.03 51.85 87.57 51.85 88.65 51.85 89.19 51.85 89.74 51.85 90.28 51.85 91.36 51.85 91.9 51.85 92.44 51.85 92.98 51.85 93.52 51.85 94.06 51.85 94.6 51.85"/>
      </g>
      <g stroke-width="0.3" fill="#000000" fill-opacity="0.000" class="geometry color_oldusing_fail" stroke-dasharray="none" stroke="#FF0000" id="img-7334be8f-15">
        <path fill="none" d="M21.63,51.53 L 22.17 51.53 22.71 51.61 23.25 51.53 23.79 51.53 24.33 51.61 24.87 51.53 25.42 51.61 26.5 51.53 27.04 51.61 28.12 51.45 29.2 51.37 29.74 51.37 30.82 51.45 31.36 51.37 35.14 51.45 36.77 51.45 37.85 51.45 41.63 50.24 42.17 51.29 42.71 51.37 43.25 51.37 43.79 51.29 44.33 51.37 44.87 51.37 45.41 51.21 45.95 51.37 46.49 52.01 47.04 51.85 47.58 51.93 48.66 51.85 49.2 51.69 49.74 51.77 50.28 51.77 50.82 52.09 51.36 52.17 51.9 52.17 52.44 52.17 52.98 52.17 53.52 52.17 54.06 52.17 54.6 52.17 55.14 52.09 55.68 52.5 56.22 52.5 56.76 52.5 57.31 52.5 60.55 52.74 61.09 52.74 61.63 52.82 62.17 52.82 62.71 52.74 63.25 52.5 63.79 52.5 64.33 52.5 64.87 52.5 65.41 52.42 66.49 52.42 67.03 52.42 67.57 52.58 68.12 52.66 68.66 52.66 69.2 52.66 69.74 52.5 70.28 52.5 71.36 52.42 71.9 52.42 72.44 52.34 72.98 52.34 73.52 52.34 74.06 52.34 75.14 52.01 75.68 52.17 76.22 52.17 76.76 52.17 77.84 52.17 78.93 52.09 79.47 52.17 80.01 52.17 80.55 52.09 82.17 52.17 82.71 52.17 83.25 52.09 83.79 52.09 84.33 51.45 84.87 52.17 85.41 52.25 85.95 52.25 87.03 52.34 87.57 52.34 88.65 52.34 89.19 52.34 89.74 52.25 90.28 52.25 91.36 52.34 91.9 52.34 92.44 52.25 92.98 52.01 93.52 52.01 94.06 52.17 94.6 52.17"/>
      </g>
      <g stroke-width="0.3" fill="#000000" fill-opacity="0.000" class="geometry color_oldusing_pass" stroke-dasharray="none" stroke="#0000FF" id="img-7334be8f-16">
        <path fill="none" d="M21.63,50.32 L 22.17 50.32 22.71 50.32 23.25 50.32 23.79 50.32 24.33 50.32 24.87 50.32 25.42 50.32 26.5 50.24 27.04 50.24 28.12 50.32 29.2 50.32 29.74 50.32 30.82 50.24 31.36 50.24 35.14 50.24 36.77 50.24 37.85 50.24 41.63 50.56 42.17 50.24 42.71 50.24 43.25 50.32 43.79 50.32 44.33 50.32 44.87 50.32 45.41 50.4 45.95 50.32 46.49 50.48 47.04 50.56 47.58 50.48 48.66 50.64 49.2 50.56 49.74 50.56 50.28 50.56 50.82 50.56 51.36 50.48 51.9 50.48 52.44 50.48 52.98 50.48 53.52 50.48 54.06 50.48 54.6 50.48 55.14 50.48 55.68 50.24 56.22 50.24 56.76 50.24 57.31 50.24 60.55 50.24 61.09 50.24 61.63 50.24 62.17 50.32 62.71 50.32 63.25 50.32 63.79 50.32 64.33 50.32 64.87 50.32 65.41 50.48 66.49 50.48 67.03 50.32 67.57 50.32 68.12 50.32 68.66 50.32 69.2 50.32 69.74 50.32 70.28 50.32 71.36 50.4 71.9 50.32 72.44 50.32 72.98 50.32 73.52 50.48 74.06 50.48 75.14 50.48 75.68 50.48 76.22 50.48 76.76 50.48 77.84 50.4 78.93 50.4 79.47 50.4 80.01 50.4 80.55 50.4 82.17 50.4 82.71 50.4 83.25 50.4 83.79 50.4 84.33 50.56 84.87 50.4 85.41 50.4 85.95 50.4 87.03 50.4 87.57 50.4 88.65 50.4 89.19 50.4 89.74 50.4 90.28 50.4 91.36 50.24 91.9 50.32 92.44 50.32 92.98 50.24 93.52 50.24 94.06 50.24 94.6 50.24"/>
      </g>
      <g stroke-width="0.3" fill="#000000" fill-opacity="0.000" class="geometry color_oldfull_fail" stroke-dasharray="none" stroke="#FFA500" id="img-7334be8f-17">
        <path fill="none" d="M21.63,51.93 L 22.17 51.93 22.71 51.93 23.25 52.01 23.79 52.01 24.33 52.01 24.87 51.93 25.42 52.01 26.5 52.09 27.04 52.01 28.12 52.09 29.2 52.01 29.74 52.01 30.82 51.93 31.36 52.09 35.14 51.85 36.77 51.85 37.85 51.85 41.63 51.85 42.17 51.53 42.71 51.37 43.25 51.37 43.79 51.45 44.33 51.45 44.87 51.37 45.41 51.53 45.95 51.45 46.49 51.13 47.04 51.21 47.58 51.37 48.66 51.29 49.2 51.29 49.74 51.37 50.28 51.21 50.82 51.29 51.36 51.21 51.9 51.21 52.44 51.45 52.98 51.53 53.52 51.45 54.06 51.53 54.6 51.45 55.14 51.45 55.68 51.69 56.22 51.77 56.76 51.69 57.31 51.69 60.55 52.01 61.09 52.09 61.63 52.01 62.17 52.17 62.71 52.17 63.25 52.17 63.79 52.25 64.33 52.25 64.87 52.34 65.41 52.25 66.49 52.09 67.03 52.01 67.57 52.25 68.12 52.34 68.66 52.42 69.2 52.42 69.74 52.34 70.28 52.34 71.36 52.42 71.9 52.42 72.44 52.42 72.98 52.34 73.52 52.34 74.06 52.25 75.14 52.42 75.68 52.34 76.22 52.25 76.76 52.34 77.84 52.25 78.93 52.09 79.47 52.09 80.01 52.01 80.55 51.93 82.17 52.01 82.71 52.01 83.25 51.93 83.79 52.01 84.33 52.25 84.87 51.85 85.41 51.93 85.95 51.85 87.03 51.85 87.57 51.85 88.65 52.01 89.19 52.01 89.74 51.85 90.28 51.93 91.36 52.17 91.9 52.17 92.44 52.17 92.98 52.09 93.52 52.09 94.06 52.09 94.6 52.09"/>
      </g>
      <g stroke-width="0.3" fill="#000000" fill-opacity="0.000" class="geometry color_oldfull_pass" stroke-dasharray="none" stroke="#008000" id="img-7334be8f-18">
        <path fill="none" d="M21.63,45.48 L 22.17 45.48 22.71 45.32 23.25 45.32 23.79 45.32 24.33 45.24 24.87 45.4 25.42 45.24 26.5 45.32 27.04 45.32 28.12 45.24 29.2 45.32 29.74 45.32 30.82 45.32 31.36 45.16 35.14 45.16 36.77 45.16 37.85 45.16 41.63 45.89 42.17 45.4 42.71 45.48 43.25 45.4 43.79 45.4 44.33 45.4 44.87 45.48 45.41 45.4 45.95 45.4 46.49 45.08 47.04 44.84 47.58 44.68 48.66 44.68 49.2 44.68 49.74 44.52 50.28 44.6 50.82 44.44 51.36 44.19 51.9 44.19 52.44 43.95 52.98 43.87 53.52 43.95 54.06 43.87 54.6 43.95 55.14 44.03 55.68 43.55 56.22 43.47 56.76 43.47 57.31 43.47 60.55 42.9 61.09 42.82 61.63 42.82 62.17 42.5 62.71 42.42 63.25 42.74 63.79 42.82 64.33 42.82 64.87 42.74 65.41 42.66 66.49 42.82 67.03 42.9 67.57 42.5 68.12 42.34 68.66 42.26 69.2 42.26 69.74 42.26 70.28 42.26 71.36 42.1 71.9 42.02 72.44 42.02 72.98 42.02 73.52 41.86 74.06 41.94 75.14 41.94 75.68 41.78 76.22 41.78 76.76 41.7 77.84 41.7 78.93 41.78 79.47 41.7 80.01 41.78 80.55 41.94 82.17 41.78 82.71 41.78 83.25 41.86 83.79 41.78 84.33 42.02 84.87 41.78 85.41 41.7 85.95 41.78 87.03 41.61 87.57 41.61 88.65 41.45 89.19 41.45 89.74 41.45 90.28 41.37 91.36 41.37 91.9 41.29 92.44 41.21 92.98 41.53 93.52 41.53 94.06 41.21 94.6 41.21"/>
      </g>
    </g>
  </g>
</g>
  <g class="guide ylabels" font-size="2.82" font-family="'PT Sans Caption','Helvetica Neue','Helvetica',sans-serif" fill="#6C606B" id="img-7334be8f-19">
    <text x="18.63" y="54.91" text-anchor="end" dy="0.35em">0</text>
    <text x="18.63" y="46.85" text-anchor="end" dy="0.35em">100</text>
    <text x="18.63" y="38.79" text-anchor="end" dy="0.35em">200</text>
    <text x="18.63" y="30.73" text-anchor="end" dy="0.35em">300</text>
    <text x="18.63" y="22.67" text-anchor="end" dy="0.35em">400</text>
    <text x="18.63" y="14.61" text-anchor="end" dy="0.35em">500</text>
  </g>
  <g font-size="3.88" font-family="'PT Sans','Helvetica Neue','Helvetica',sans-serif" fill="#564A55" stroke="#000000" stroke-opacity="0.000" id="img-7334be8f-20">
    <text x="8.81" y="32.76" text-anchor="middle" dy="0.35em" transform="rotate(-90, 8.81, 34.76)">Number of Packages</text>
  </g>
  <g font-size="3.88" font-family="'PT Sans','Helvetica Neue','Helvetica',sans-serif" fill="#564A55" stroke="#000000" stroke-opacity="0.000" id="img-7334be8f-21">
    <text x="58.12" y="10.61" text-anchor="middle">Julia v0.2</text>
  </g>
</g>
<defs>
  <clipPath id="img-7334be8f-4">
  <path d="M19.63,12.61 L 96.6 12.61 96.6 56.91 19.63 56.91" />
</clipPath>
</defs>
</svg>
