<?xml version="1.0" encoding="UTF-8"?>
<svg xmlns="http://www.w3.org/2000/svg"
     xmlns:xlink="http://www.w3.org/1999/xlink"
     xmlns:gadfly="http://www.gadflyjl.org/ns"
     version="1.2"
     width="101.6mm" height="76.2mm" viewBox="0 0 101.6 76.2"
     stroke="none"
     fill="#000000"
     stroke-width="0.3"
     font-size="3.88"
>
<g class="plotroot xscalable yscalable" id="fig-d2d5e5cc4d114e76be47bd2f53213a54-element-1">
  <g font-size="3.88" font-family="'PT Sans','Helvetica Neue','Helvetica',sans-serif" fill="#564A55" stroke="#000000" stroke-opacity="0.000" id="fig-d2d5e5cc4d114e76be47bd2f53213a54-element-2">
    <text x="58.12" y="64.59" text-anchor="middle" dy="0.6em">Date</text>
  </g>
  <g class="guide xlabels" font-size="2.82" font-family="'PT Sans Caption','Helvetica Neue','Helvetica',sans-serif" fill="#6C606B" id="fig-d2d5e5cc4d114e76be47bd2f53213a54-element-3">
    <text x="22.71" y="57.91" text-anchor="middle" dy="0.6em">Apr</text>
    <text x="38.93" y="57.91" text-anchor="middle" dy="0.6em">May</text>
    <text x="55.68" y="57.91" text-anchor="middle" dy="0.6em">Jun</text>
    <text x="71.9" y="57.91" text-anchor="middle" dy="0.6em">Jul</text>
    <text x="88.65" y="57.91" text-anchor="middle" dy="0.6em">Aug</text>
  </g>
  <g clip-path="url(#fig-d2d5e5cc4d114e76be47bd2f53213a54-element-5)" id="fig-d2d5e5cc4d114e76be47bd2f53213a54-element-4">
    <g pointer-events="visible" opacity="1" fill="#000000" fill-opacity="0.000" stroke="#000000" stroke-opacity="0.000" class="guide background" id="fig-d2d5e5cc4d114e76be47bd2f53213a54-element-6">
      <rect x="19.63" y="12.61" width="76.97" height="44.3"/>
    </g>
    <g class="guide ygridlines xfixed" stroke-dasharray="0.5,0.5" stroke-width="0.2" stroke="#D0D0E0" id="fig-d2d5e5cc4d114e76be47bd2f53213a54-element-7">
      <path fill="none" d="M19.63,54.91 L 96.6 54.91"/>
      <path fill="none" d="M19.63,34.76 L 96.6 34.76"/>
      <path fill="none" d="M19.63,14.61 L 96.6 14.61"/>
    </g>
    <g class="guide xgridlines yfixed" stroke-dasharray="0.5,0.5" stroke-width="0.2" stroke="#D0D0E0" id="fig-d2d5e5cc4d114e76be47bd2f53213a54-element-8">
      <path fill="none" d="M22.71,12.61 L 22.71 56.91"/>
      <path fill="none" d="M38.93,12.61 L 38.93 56.91"/>
      <path fill="none" d="M55.68,12.61 L 55.68 56.91"/>
      <path fill="none" d="M71.9,12.61 L 71.9 56.91"/>
      <path fill="none" d="M88.65,12.61 L 88.65 56.91"/>
    </g>
    <g class="plotpanel" id="fig-d2d5e5cc4d114e76be47bd2f53213a54-element-9">
      <g stroke-width="0.3" fill="#000000" fill-opacity="0.000" stroke-dasharray="none" id="fig-d2d5e5cc4d114e76be47bd2f53213a54-element-10">
      </g>
      <g stroke-width="0.3" fill="#000000" fill-opacity="0.000" stroke-dasharray="none" id="fig-d2d5e5cc4d114e76be47bd2f53213a54-element-11">
      </g>
      <g stroke-width="0.3" fill="#000000" fill-opacity="0.000" stroke-dasharray="none" id="fig-d2d5e5cc4d114e76be47bd2f53213a54-element-12">
      </g>
      <g stroke-width="0.3" fill="#000000" fill-opacity="0.000" stroke-dasharray="none" id="fig-d2d5e5cc4d114e76be47bd2f53213a54-element-13">
      </g>
      <g stroke-width="0.3" fill="#000000" fill-opacity="0.000" class="geometry color_oldnot_possible" stroke-dasharray="none" stroke="#808080" id="fig-d2d5e5cc4d114e76be47bd2f53213a54-element-14">
        <path fill="none" d="M21.63,50.39 L 22.17 50.39 22.71 50.41 23.25 50.41 23.79 50.41 24.33 50.41 24.87 50.41 25.42 50.41 26.5 50.41 27.04 50.41 28.12 50.42 29.2 50.44 29.74 50.44 30.82 50.45 31.36 50.47 35.14 50.5 36.77 50.5 37.85 50.5 41.63 50.65 42.17 50.67 42.71 50.67 43.25 50.67 43.79 50.67 44.33 50.53 44.87 50.53 45.41 50.53 45.95 50.53 46.49 50.25 47.04 50.3 47.58 50.3 48.66 50.18 49.2 50.59 49.74 50.59 50.28 50.6 50.82 51.18 51.36 51.1 51.9 51.1 52.44 51.1 52.98 51.1 53.52 51.1 54.06 51.1 54.6 51.1 55.14 51.1 55.68 51.12 56.22 51.12 56.76 51.13 57.31 51.13 60.55 50.53 61.09 50.53 61.63 50.41 62.17 50.42 62.71 50.45 63.25 50.32 63.79 50.06 64.33 50.06 64.87 50.06 65.41 50.07 66.49 50.07 67.03 50.1 67.57 50.1 68.12 50.1 68.66 50.1 69.2 50.1 69.74 50.15 70.28 50.15 71.36 50.17 71.9 50.2 72.44 50.21 72.98 50.23 73.52 50.23 74.06 50.23 75.14 50.25 75.68 50.27 76.22 50.28 76.76 50.28 77.84 50.31 78.93 50.34 79.47 50.34 80.01 50.34 80.55 50.34 82.17 50.34 82.71 50.34 83.25 50.35 83.79 50.35 84.33 50.35 84.87 50.37 85.41 50.25 85.95 50.25 87.03 50.26 87.57 50.26 88.65 50.26 89.19 50.26 89.74 50.3 90.28 50.3 91.36 50.27 91.9 50.27 92.44 50.3 92.98 50.32 93.52 50.32 94.06 50.34 94.6 50.34"/>
      </g>
      <g stroke-width="0.3" fill="#000000" fill-opacity="0.000" class="geometry color_oldusing_fail" stroke-dasharray="none" stroke="#FF0000" id="fig-d2d5e5cc4d114e76be47bd2f53213a54-element-15">
        <path fill="none" d="M21.63,48.98 L 22.17 48.98 22.71 49.14 23.25 49 23.79 49 24.33 49.14 24.87 49 25.42 49.14 26.5 49 27.04 49.14 28.12 48.88 29.2 48.76 29.74 48.76 30.82 48.92 31.36 48.8 35.14 48.98 36.77 48.98 37.85 48.98 41.63 46.94 42.17 48.75 42.71 48.88 43.25 48.88 43.79 48.75 44.33 48.88 44.87 48.88 45.41 48.61 45.95 48.88 46.49 49.98 47.04 49.76 47.58 49.89 48.66 49.78 49.2 49.51 49.74 49.64 50.28 49.66 50.82 50.07 51.36 50.29 51.9 50.29 52.44 50.29 52.98 50.29 53.52 50.29 54.06 50.29 54.6 50.29 55.14 50.15 55.68 50.84 56.22 50.84 56.76 50.86 57.31 50.86 60.55 51.32 61.09 51.32 61.63 51.47 62.17 51.48 62.71 51.37 63.25 50.98 63.79 50.98 64.33 50.98 64.87 50.98 65.41 50.86 66.49 50.86 67.03 50.88 67.57 51.14 68.12 51.27 68.66 51.27 69.2 51.27 69.74 51.05 70.28 51.05 71.36 50.94 71.9 50.96 72.44 50.85 72.98 50.86 73.52 50.86 74.06 50.86 75.14 50.38 75.68 50.65 76.22 50.66 76.76 50.66 77.84 50.69 78.93 50.59 79.47 50.71 80.01 50.71 80.55 50.59 82.17 50.71 82.71 50.71 83.25 50.6 83.79 50.6 84.33 49.62 84.87 50.74 85.41 50.86 85.95 50.86 87.03 50.99 87.57 50.99 88.65 50.99 89.19 50.99 89.74 50.91 90.28 50.91 91.36 51.01 91.9 51.01 92.44 50.91 92.98 50.56 93.52 50.56 94.06 50.82 94.6 50.82"/>
      </g>
      <g stroke-width="0.3" fill="#000000" fill-opacity="0.000" class="geometry color_oldusing_pass" stroke-dasharray="none" stroke="#0000FF" id="fig-d2d5e5cc4d114e76be47bd2f53213a54-element-16">
        <path fill="none" d="M21.63,46.85 L 22.17 46.85 22.71 46.88 23.25 46.88 23.79 46.88 24.33 46.88 24.87 46.88 25.42 46.88 26.5 46.74 27.04 46.74 28.12 46.91 29.2 46.94 29.74 46.94 30.82 46.83 31.36 46.85 35.14 46.91 36.77 46.91 37.85 46.91 41.63 47.49 42.17 46.96 42.71 46.96 43.25 47.1 43.79 47.1 44.33 47.1 44.87 47.1 45.41 47.24 45.95 47.1 46.49 47.38 47.04 47.59 47.58 47.45 48.66 47.75 49.2 47.61 49.74 47.61 50.28 47.64 50.82 47.44 51.36 47.43 51.9 47.43 52.44 47.43 52.98 47.43 53.52 47.43 54.06 47.43 54.6 47.43 55.14 47.43 55.68 47.04 56.22 47.04 56.76 47.07 57.31 47.07 60.55 47.2 61.09 47.2 61.63 47.23 62.17 47.38 62.71 47.43 63.25 47.43 63.79 47.43 64.33 47.43 64.87 47.43 65.41 47.72 66.49 47.72 67.03 47.5 67.57 47.5 68.12 47.5 68.66 47.5 69.2 47.5 69.74 47.58 70.28 47.58 71.36 47.73 71.9 47.65 72.44 47.67 72.98 47.69 73.52 47.94 74.06 47.94 75.14 47.99 75.68 48.01 76.22 48.03 76.76 48.03 77.84 47.95 78.93 47.99 79.47 47.99 80.01 47.99 80.55 47.99 82.17 47.99 82.71 47.99 83.25 48.01 83.79 48.01 84.33 48.26 84.87 48.03 85.41 48.03 85.95 48.03 87.03 48.05 87.57 48.05 88.65 48.05 89.19 48.05 89.74 48.12 90.28 48.12 91.36 47.83 91.9 47.95 92.44 48 92.98 47.9 93.52 47.9 94.06 47.94 94.6 47.94"/>
      </g>
      <g stroke-width="0.3" fill="#000000" fill-opacity="0.000" class="geometry color_oldfull_fail" stroke-dasharray="none" stroke="#FFA500" id="fig-d2d5e5cc4d114e76be47bd2f53213a54-element-17">
        <path fill="none" d="M21.63,49.68 L 22.17 49.68 22.71 49.7 23.25 49.84 23.79 49.84 24.33 49.84 24.87 49.7 25.42 49.84 26.5 49.98 27.04 49.84 28.12 50 29.2 49.88 29.74 49.88 30.82 49.76 31.36 50.05 35.14 49.67 36.77 49.67 37.85 49.67 41.63 49.69 42.17 49.16 42.71 48.88 43.25 48.88 43.79 49.02 44.33 49.02 44.87 48.88 45.41 49.16 45.95 49.02 46.49 48.47 47.04 48.67 47.58 48.94 48.66 48.83 49.2 48.83 49.74 48.96 50.28 48.71 50.82 48.68 51.36 48.65 51.9 48.65 52.44 49.06 52.98 49.2 53.52 49.06 54.06 49.2 54.6 49.06 55.14 49.06 55.68 49.49 56.22 49.62 56.76 49.51 57.31 49.51 60.55 50.13 61.09 50.26 61.63 50.14 62.17 50.42 62.71 50.45 63.25 50.45 63.79 50.58 64.33 50.58 64.87 50.71 65.41 50.6 66.49 50.34 67.03 50.23 67.57 50.62 68.12 50.75 68.66 50.88 69.2 50.88 69.74 50.79 70.28 50.79 71.36 50.94 71.9 50.96 72.44 50.97 72.98 50.86 73.52 50.86 74.06 50.73 75.14 51.01 75.68 50.9 76.22 50.78 76.76 50.91 77.84 50.81 78.93 50.59 79.47 50.59 80.01 50.46 80.55 50.34 82.17 50.46 82.71 50.46 83.25 50.35 83.79 50.48 84.33 50.85 84.87 50.25 85.41 50.37 85.95 50.25 87.03 50.26 87.57 50.26 88.65 50.5 89.19 50.5 89.74 50.3 90.28 50.42 91.36 50.76 91.9 50.76 92.44 50.79 92.98 50.68 93.52 50.68 94.06 50.7 94.6 50.7"/>
      </g>
      <g stroke-width="0.3" fill="#000000" fill-opacity="0.000" class="geometry color_oldfull_pass" stroke-dasharray="none" stroke="#008000" id="fig-d2d5e5cc4d114e76be47bd2f53213a54-element-18">
        <path fill="none" d="M21.63,38.37 L 22.17 38.37 22.71 38.15 23.25 38.15 23.79 38.15 24.33 38 24.87 38.29 25.42 38 26.5 38.15 27.04 38.15 28.12 38.06 29.2 38.26 29.74 38.26 30.82 38.32 31.36 38.1 35.14 38.21 36.77 38.21 37.85 38.21 41.63 39.51 42.17 38.74 42.71 38.88 43.25 38.74 43.79 38.74 44.33 38.74 44.87 38.88 45.41 38.74 45.95 38.74 46.49 38.19 47.04 37.95 47.58 37.68 48.66 37.74 49.2 37.74 49.74 37.47 50.28 37.66 50.82 36.91 51.36 36.81 51.9 36.81 52.44 36.4 52.98 36.26 53.52 36.4 54.06 36.26 54.6 36.4 55.14 36.53 55.68 35.78 56.22 35.65 56.76 35.71 57.31 35.71 60.55 35.1 61.09 34.96 61.63 35.03 62.17 34.57 62.71 34.57 63.25 35.09 63.79 35.22 64.33 35.22 64.87 35.09 65.41 35.03 66.49 35.29 67.03 35.54 67.57 34.89 68.12 34.63 68.66 34.5 69.2 34.5 69.74 34.7 70.28 34.7 71.36 34.51 71.9 34.51 72.44 34.57 72.98 34.64 73.52 34.38 74.06 34.51 75.14 34.64 75.68 34.45 76.22 34.51 76.76 34.39 77.84 34.51 78.93 34.76 79.47 34.64 80.01 34.76 80.55 35.01 82.17 34.76 82.71 34.76 83.25 34.95 83.79 34.82 84.33 35.19 84.87 34.89 85.41 34.76 85.95 34.89 87.03 34.7 87.57 34.7 88.65 34.46 89.19 34.46 89.74 34.64 90.28 34.52 91.36 34.4 91.9 34.27 92.44 34.28 92.98 34.82 93.52 34.82 94.06 34.46 94.6 34.46"/>
      </g>
    </g>
  </g>
  <g class="guide ylabels" font-size="2.82" font-family="'PT Sans Caption','Helvetica Neue','Helvetica',sans-serif" fill="#6C606B" id="fig-d2d5e5cc4d114e76be47bd2f53213a54-element-19">
    <text x="18.63" y="54.91" text-anchor="end" dy="0.35em">0</text>
    <text x="18.63" y="34.76" text-anchor="end" dy="0.35em">50</text>
    <text x="18.63" y="14.61" text-anchor="end" dy="0.35em">100</text>
  </g>
  <g font-size="3.88" font-family="'PT Sans','Helvetica Neue','Helvetica',sans-serif" fill="#564A55" stroke="#000000" stroke-opacity="0.000" id="fig-d2d5e5cc4d114e76be47bd2f53213a54-element-20">
    <text x="8.81" y="32.76" text-anchor="middle" dy="0.35em" transform="rotate(-90, 8.81, 34.76)">Percentage of Packages</text>
  </g>
  <g font-size="3.88" font-family="'PT Sans','Helvetica Neue','Helvetica',sans-serif" fill="#564A55" stroke="#000000" stroke-opacity="0.000" id="fig-d2d5e5cc4d114e76be47bd2f53213a54-element-21">
    <text x="58.12" y="10.61" text-anchor="middle">Julia v0.2 (relative)</text>
  </g>
</g>
<defs>
<clipPath id="fig-d2d5e5cc4d114e76be47bd2f53213a54-element-5">
  <path d="M19.63,12.61 L 96.6 12.61 96.6 56.91 19.63 56.91" />
</clipPath
></defs>
</svg>
