<?xml version="1.0" encoding="UTF-8"?>
<svg xmlns="http://www.w3.org/2000/svg"
     xmlns:xlink="http://www.w3.org/1999/xlink"
     xmlns:gadfly="http://www.gadflyjl.org/ns"
     version="1.2"
     width="101.6mm" height="76.2mm" viewBox="0 0 101.6 76.2"
     stroke="none"
     fill="#000000"
     stroke-width="0.3"
     font-size="3.88"
>
<g class="plotroot xscalable yscalable" id="img-b0e6385d-1">
  <g font-size="3.88" font-family="'PT Sans','Helvetica Neue','Helvetica',sans-serif" fill="#564A55" stroke="#000000" stroke-opacity="0.000" id="img-b0e6385d-2">
    <text x="58.12" y="64.59" text-anchor="middle" dy="0.6em">Date</text>
  </g>
  <g class="guide xlabels" font-size="2.82" font-family="'PT Sans Caption','Helvetica Neue','Helvetica',sans-serif" fill="#6C606B" id="img-b0e6385d-3">
    <text x="21.87" y="48.71" text-anchor="end" dy="0.35em" transform="rotate(-90, 21.87, 48.71)">Apr</text>
    <text x="25.49" y="48.71" text-anchor="end" dy="0.35em" transform="rotate(-90, 25.49, 48.71)">May</text>
    <text x="29.23" y="48.71" text-anchor="end" dy="0.35em" transform="rotate(-90, 29.23, 48.71)">Jun</text>
    <text x="32.85" y="48.71" text-anchor="end" dy="0.35em" transform="rotate(-90, 32.85, 48.71)">Jul</text>
    <text x="36.59" y="48.71" text-anchor="end" dy="0.35em" transform="rotate(-90, 36.59, 48.71)">Aug</text>
    <text x="40.33" y="48.71" text-anchor="end" dy="0.35em" transform="rotate(-90, 40.33, 48.71)">Sep</text>
    <text x="43.94" y="48.71" text-anchor="end" dy="0.35em" transform="rotate(-90, 43.94, 48.71)">Oct</text>
    <text x="47.68" y="48.71" text-anchor="end" dy="0.35em" transform="rotate(-90, 47.68, 48.71)">Nov</text>
    <text x="51.3" y="48.71" text-anchor="end" dy="0.35em" transform="rotate(-90, 51.3, 48.71)">Dec</text>
    <text x="55.04" y="48.71" text-anchor="end" dy="0.35em" transform="rotate(-90, 55.04, 48.71)">Jan 2015</text>
    <text x="58.78" y="48.71" text-anchor="end" dy="0.35em" transform="rotate(-90, 58.78, 48.71)">Feb</text>
    <text x="62.16" y="48.71" text-anchor="end" dy="0.35em" transform="rotate(-90, 62.16, 48.71)">Mar</text>
    <text x="65.9" y="48.71" text-anchor="end" dy="0.35em" transform="rotate(-90, 65.9, 48.71)">Apr</text>
    <text x="69.51" y="48.71" text-anchor="end" dy="0.35em" transform="rotate(-90, 69.51, 48.71)">May</text>
    <text x="73.25" y="48.71" text-anchor="end" dy="0.35em" transform="rotate(-90, 73.25, 48.71)">Jun</text>
    <text x="76.87" y="48.71" text-anchor="end" dy="0.35em" transform="rotate(-90, 76.87, 48.71)">Jul</text>
    <text x="80.61" y="48.71" text-anchor="end" dy="0.35em" transform="rotate(-90, 80.61, 48.71)">Aug</text>
    <text x="84.35" y="48.71" text-anchor="end" dy="0.35em" transform="rotate(-90, 84.35, 48.71)">Sep</text>
    <text x="87.97" y="48.71" text-anchor="end" dy="0.35em" transform="rotate(-90, 87.97, 48.71)">Oct</text>
    <text x="91.71" y="48.71" text-anchor="end" dy="0.35em" transform="rotate(-90, 91.71, 48.71)">Nov</text>
  </g>
<g clip-path="url(#img-b0e6385d-4)">
  <g id="img-b0e6385d-5">
    <g pointer-events="visible" opacity="1" fill="#000000" fill-opacity="0.000" stroke="#000000" stroke-opacity="0.000" class="guide background" id="img-b0e6385d-6">
      <rect x="19.63" y="12.61" width="76.97" height="35.1"/>
    </g>
    <g class="guide ygridlines xfixed" stroke-dasharray="0.5,0.5" stroke-width="0.2" stroke="#D0D0E0" id="img-b0e6385d-7">
      <path fill="none" d="M19.63,45.71 L 96.6 45.71"/>
      <path fill="none" d="M19.63,39.49 L 96.6 39.49"/>
      <path fill="none" d="M19.63,33.27 L 96.6 33.27"/>
      <path fill="none" d="M19.63,27.05 L 96.6 27.05"/>
      <path fill="none" d="M19.63,20.83 L 96.6 20.83"/>
      <path fill="none" d="M19.63,14.61 L 96.6 14.61"/>
    </g>
    <g class="guide xgridlines yfixed" stroke-dasharray="0.5,0.5" stroke-width="0.2" stroke="#D0D0E0" id="img-b0e6385d-8">
      <path fill="none" d="M21.87,12.61 L 21.87 47.71"/>
      <path fill="none" d="M25.49,12.61 L 25.49 47.71"/>
      <path fill="none" d="M29.23,12.61 L 29.23 47.71"/>
      <path fill="none" d="M32.85,12.61 L 32.85 47.71"/>
      <path fill="none" d="M36.59,12.61 L 36.59 47.71"/>
      <path fill="none" d="M40.33,12.61 L 40.33 47.71"/>
      <path fill="none" d="M43.94,12.61 L 43.94 47.71"/>
      <path fill="none" d="M47.68,12.61 L 47.68 47.71"/>
      <path fill="none" d="M51.3,12.61 L 51.3 47.71"/>
      <path fill="none" d="M55.04,12.61 L 55.04 47.71"/>
      <path fill="none" d="M58.78,12.61 L 58.78 47.71"/>
      <path fill="none" d="M62.16,12.61 L 62.16 47.71"/>
      <path fill="none" d="M65.9,12.61 L 65.9 47.71"/>
      <path fill="none" d="M69.51,12.61 L 69.51 47.71"/>
      <path fill="none" d="M73.25,12.61 L 73.25 47.71"/>
      <path fill="none" d="M76.87,12.61 L 76.87 47.71"/>
      <path fill="none" d="M80.61,12.61 L 80.61 47.71"/>
      <path fill="none" d="M84.35,12.61 L 84.35 47.71"/>
      <path fill="none" d="M87.97,12.61 L 87.97 47.71"/>
      <path fill="none" d="M91.71,12.61 L 91.71 47.71"/>
    </g>
    <g class="plotpanel" id="img-b0e6385d-9">
      <g stroke-width="0.3" fill="#000000" fill-opacity="0.000" class="geometry color_newnot_possible" stroke-dasharray="none" stroke="#808080" id="img-b0e6385d-10">
        <path fill="none" d="M75.54,42.41 L 75.66 42.41 75.79 42.41 75.91 42.41 76.03 42.41 76.15 42.41 76.27 42.41 76.39 42.41 76.75 42.41 76.99 42.41 77.23 42.47 77.35 42.41 77.47 42.41 77.59 42.41 77.71 42.41 77.84 42.41 79.89 42.35 80.85 42.35 81.94 42.35 83.99 42.35 84.35 42.35 84.95 42.16 85.55 41.98 87.48 41.98 87.97 41.98 88.57 41.98 89.05 41.98 89.53 41.98 89.9 41.91 91.34 41.91 92.79 41.85 93.27 41.85 93.51 41.79 94.6 41.79"/>
      </g>
      <g stroke-width="0.3" fill="#000000" fill-opacity="0.000" class="geometry color_newno_tests" stroke-dasharray="none" stroke="#0000FF" id="img-b0e6385d-11">
        <path fill="none" d="M75.54,39.05 L 75.66 39.05 75.79 39.05 75.91 39.05 76.03 39.05 76.15 39.05 76.27 39.05 76.39 39.05 76.75 39.05 76.99 39.05 77.23 39.05 77.35 39.05 77.47 39.12 77.59 39.12 77.71 39.12 77.84 39.18 79.89 39.12 80.85 39.12 81.94 39.12 83.99 39.12 84.35 39.18 84.95 39.18 85.55 39.24 87.48 39.43 87.97 39.61 88.57 39.74 89.05 39.74 89.53 39.74 89.9 39.8 91.34 39.86 92.79 39.99 93.27 39.99 93.51 39.99 94.6 39.99"/>
      </g>
      <g stroke-width="0.3" fill="#000000" fill-opacity="0.000" class="geometry color_newtests_fail" stroke-dasharray="none" stroke="#FF0000" id="img-b0e6385d-12">
        <path fill="none" d="M75.54,42.23 L 75.66 42.04 75.79 41.98 75.91 41.91 76.03 41.79 76.15 41.98 76.27 41.73 76.39 41.91 76.75 41.79 76.99 41.73 77.23 41.67 77.35 41.85 77.47 39.86 77.59 41.73 77.71 41.35 77.84 41.42 79.89 41.67 80.85 41.73 81.94 41.23 83.99 40.17 84.35 40.48 84.95 40.86 85.55 41.17 87.48 41.11 87.97 40.8 88.57 41.04 89.05 41.11 89.53 40.92 89.9 40.92 91.34 40.8 92.79 40.67 93.27 41.11 93.51 41.11 94.6 41.17"/>
      </g>
      <g stroke-width="0.3" fill="#000000" fill-opacity="0.000" class="geometry color_newtests_pass" stroke-dasharray="none" stroke="#008000" id="img-b0e6385d-13">
        <path fill="none" d="M75.54,22.14 L 75.66 22.32 75.79 22.26 75.91 22.32 76.03 22.32 76.15 22.14 76.27 22.39 76.39 22.14 76.75 22.26 76.99 22.2 77.23 22.26 77.35 22.01 77.47 23.69 77.59 21.7 77.71 22.01 77.84 21.89 79.89 20.89 80.85 20.52 81.94 20.71 83.99 20.89 84.35 20.4 84.95 20.15 85.55 19.84 87.48 19.09 87.97 18.9 88.57 18.28 89.05 18.16 89.53 18.22 89.9 18.09 91.34 18.09 92.79 18.09 93.27 17.78 93.51 17.72 94.6 17.66"/>
      </g>
      <g stroke-width="0.3" fill="#000000" fill-opacity="0.000" class="geometry color_newnot_possible" stroke-dasharray="none" stroke="#808080" id="img-b0e6385d-14">
        <path fill="none" d="M21.63,43.72 L 21.75 43.72 21.87 43.72 21.99 43.72 22.11 43.72 22.23 43.72 22.36 43.72 22.48 43.72 22.72 43.72 22.84 43.72 23.08 43.72 23.32 43.72 23.44 43.72 23.68 43.72 23.8 43.72 24.65 43.72 25.01 43.72 25.25 43.72 26.09 43.78 26.21 43.78 26.34 43.78 26.46 43.78 26.58 43.78 26.7 43.72 26.82 43.72 26.94 43.72 27.06 43.72 27.18 43.59 27.3 43.59 27.42 43.59 27.66 43.53 27.78 43.97 27.9 43.97 28.02 43.97 28.14 43.97 28.27 43.97 28.39 43.97 28.51 43.97 28.63 43.97 28.75 43.97 28.87 43.97 28.99 43.97 29.11 43.97 29.23 43.97 29.35 43.97 29.47 43.97 29.59 43.97 30.32 43.66 30.44 43.59 30.56 43.59 30.68 43.59 30.8 43.59 30.92 43.53 31.04 43.41 31.16 43.41 31.28 43.41 31.4 43.41 31.64 43.41 31.76 43.41 31.88 43.41 32 43.41 32.12 43.41 32.25 43.41 32.37 43.41 32.49 43.41 32.73 43.41 32.85 43.41 32.97 43.41 33.09 43.41 33.21 43.41 33.33 43.41 33.57 43.41 33.69 43.41 33.81 43.41 33.93 43.41 34.17 43.41 34.42 43.41 34.54 43.41 34.66 43.41 34.78 43.41 35.14 43.41 35.26 43.41 35.38 43.41 35.5 43.41 35.62 43.41 35.74 43.41 35.86 43.34 35.98 43.34 36.23 43.34 36.35 43.34 36.59 43.34 36.71 43.34 36.83 43.34 36.95 43.34 37.19 43.34 37.31 43.34 37.43 43.34 37.55 43.34 37.67 43.34 37.79 43.34 37.91 43.34 38.03 43.34 38.16 43.28 38.28 43.22 38.4 43.22 38.52 43.22 38.64 43.22 38.88 43.22 39 43.22 39.12 43.22 39.24 43.22 39.36 43.22 39.48 43.22 39.6 43.22 39.72 43.22 39.96 43.22 40.08 43.16 40.33 43.16 40.45 43.16 40.57 43.1 41.05 43.1 41.41 43.1 41.53 43.1 41.65 43.1 41.77 43.1 41.89 43.1 42.01 43.1 42.14 43.1 42.26 43.1 42.38 43.1 42.62 43.03 42.74 43.03 42.86 43.03 42.98 43.03 43.1 43.03 43.22 43.03 43.34 42.97 43.58 42.97 43.7 42.97 43.82 42.97 43.94 42.97 44.06 42.79 44.19 42.91 44.31 42.91 44.43 42.91 44.79 42.91 44.91 42.85 45.03 42.85 45.15 42.85 45.27 42.85 45.39 42.85 45.51 42.85 45.63 42.85 45.75 42.85 45.87 42.85 45.99 42.79 46.12 42.79 46.24 42.79 46.36 42.79 46.48 42.79 46.6 42.79 46.72 42.79 46.84 42.79 46.96 42.79 47.08 42.79 47.2 42.79 47.32 42.79 47.44 42.79 47.56 42.79 47.68 42.79 47.8 42.79 47.92 42.79 48.04 42.79 48.17 42.79 48.29 42.79 48.65 42.79 49.25 42.79 49.37 42.79 49.49 42.79 49.61 42.79 49.73 42.79 49.85 42.79 49.97 42.79 50.46 42.79 50.58 42.79 51.18 42.79 51.42 42.79 51.54 42.85 51.66 42.85 51.78 42.85 51.9 42.85 52.03 42.85 52.15 42.85 52.51 42.85 52.63 42.85 52.87 42.85 52.99 42.85 53.11 42.85 53.47 42.85 53.71 42.85 54.08 42.85 54.56 42.85 54.8 42.85 55.16 42.85 56.01 42.85 56.49 42.85 56.61 42.72 56.73 42.72 56.85 42.66 56.97 42.66 57.09 42.66 57.33 42.66 57.45 42.66 57.57 42.66 57.69 42.66 57.81 42.66 57.93 42.66 58.06 42.66 58.3 42.6 58.42 42.6 58.54 42.6 59.02 42.6 59.14 42.6 59.26 42.6 59.5 42.6 59.74 42.6 59.86 42.6 60.23 42.6 60.83 42.6 61.43 42.6 62.04 42.6 62.16 42.6 62.28 42.6 62.4 42.16 62.52 42.23 62.76 42.16 63 42.16 63.48 42.16 63.6 42.16 63.72 42.16 63.84 42.16 63.97 42.16 64.09 42.23 64.21 42.16 65.65 42.1 65.9 42.04 66.02 42.04 66.26 42.04 66.74 42.04 66.98 42.04 67.22 42.04 67.7 42.04 67.95 42.04 68.07 42.04 68.31 42.04 68.43 42.04 68.55 42.04 68.67 42.04 68.79 42.04 68.91 42.04 69.15 42.04 69.27 42.04 69.51 42.04 69.75 42.04 69.88 42.04 70 42.04 70.24 42.04 70.36 42.04 70.96 42.04 71.44 42.1 71.56 42.04 72.53 42.04 72.65 41.91 72.77 41.91 73.13 41.91 73.25 41.91 73.37 41.98 73.61 41.98 73.86 41.98 74.1 41.98 75.18 41.98"/>
      </g>
      <g stroke-width="0.3" fill="#000000" fill-opacity="0.000" class="geometry color_newtests_fail" stroke-dasharray="none" stroke="#FF0000" id="img-b0e6385d-15">
        <path fill="none" d="M21.63,43.22 L 21.75 43.22 21.87 42.29 21.99 43.28 22.11 43.22 22.23 42.23 22.36 42.23 22.48 42.23 22.72 43.22 22.84 43.22 23.08 43.28 23.32 43.28 23.44 43.28 23.68 43.34 23.8 43.34 24.65 43.41 25.01 43.41 25.25 43.41 26.09 43.34 26.21 43.41 26.34 43.28 26.46 43.28 26.58 43.34 26.7 43.41 26.82 43.34 26.94 43.34 27.06 43.34 27.18 43.41 27.3 43.41 27.42 43.28 27.66 43.34 27.78 43.22 27.9 43.34 28.02 43.47 28.14 43.47 28.27 43.53 28.39 43.53 28.51 43.47 28.63 43.53 28.75 43.53 28.87 43.53 28.99 43.59 29.11 43.59 29.23 44.09 29.35 43.84 29.47 43.84 29.59 43.84 30.32 44.22 30.44 44.28 30.56 44.28 30.68 44.28 30.8 44.22 30.92 44.28 31.04 44.28 31.16 44.28 31.28 44.22 31.4 43.03 31.64 44.22 31.76 44.28 31.88 44.28 32 44.28 32.12 44.28 32.25 44.28 32.37 44.28 32.49 44.28 32.73 44.28 32.85 44.28 32.97 44.22 33.09 44.22 33.21 44.22 33.33 44.22 33.57 44.22 33.69 44.09 33.81 44.09 33.93 44.09 34.17 43.97 34.42 42.72 34.54 42.66 34.66 43.97 34.78 43.9 35.14 44.03 35.26 44.03 35.38 44.03 35.5 44.03 35.62 44.09 35.74 44.15 35.86 44.15 35.98 44.15 36.23 44.15 36.35 44.22 36.59 44.15 36.71 44.22 36.83 44.22 36.95 44.22 37.19 44.22 37.31 44.22 37.43 44.09 37.55 44.15 37.67 44.15 37.79 44.09 37.91 44.09 38.03 43.97 38.16 44.03 38.28 44.15 38.4 42.41 38.52 42.79 38.64 42.79 38.88 44.22 39 44.28 39.12 44.22 39.24 44.28 39.36 44.22 39.48 44.22 39.6 44.34 39.72 44.15 39.96 44.4 40.08 44.46 40.33 44.34 40.45 44.34 40.57 44.4 41.05 44.4 41.41 44.71 41.53 44.71 41.65 44.71 41.77 44.78 41.89 44.84 42.01 44.84 42.14 44.84 42.26 44.84 42.38 44.84 42.62 44.71 42.74 44.71 42.86 44.65 42.98 44.71 43.1 44.65 43.22 44.53 43.34 44.59 43.58 44.65 43.7 44.71 43.82 44.71 43.94 44.65 44.06 44.59 44.19 44.65 44.31 44.71 44.43 44.71 44.79 44.71 44.91 44.71 45.03 44.71 45.15 44.78 45.27 44.78 45.39 44.78 45.51 44.78 45.63 44.78 45.75 44.65 45.87 44.59 45.99 44.59 46.12 44.46 46.24 44.59 46.36 44.59 46.48 44.59 46.6 44.59 46.72 44.59 46.84 44.53 46.96 44.59 47.08 44.53 47.2 44.59 47.32 44.53 47.44 44.59 47.56 44.59 47.68 44.59 47.8 44.65 47.92 44.65 48.04 44.71 48.17 44.71 48.29 44.53 48.65 44.78 49.25 44.71 49.37 44.71 49.49 44.71 49.61 44.78 49.73 44.84 49.85 44.71 49.97 44.71 50.46 44.65 50.58 44.71 51.18 44.71 51.42 44.71 51.54 44.34 51.66 44.53 51.78 44.71 51.9 44.71 52.03 44.71 52.15 44.65 52.51 44.59 52.63 44.59 52.87 44.53 52.99 44.59 53.11 44.59 53.47 44.59 53.71 44.65 54.08 44.65 54.56 44.65 54.8 44.65 55.16 44.65 56.01 44.59 56.49 44.46 56.61 44.59 56.73 44.59 56.85 44.34 56.97 44.34 57.09 44.4 57.33 44.4 57.45 44.34 57.57 44.34 57.69 44.28 57.81 44.34 57.93 44.34 58.06 44.34 58.3 44.34 58.42 44.34 58.54 44.34 59.02 44.15 59.14 44.15 59.26 44.15 59.5 44.09 59.74 44.03 59.86 44.03 60.23 44.03 60.83 44.03 61.43 44.09 62.04 42.29 62.16 42.91 62.28 43.34 62.4 44.09 62.52 44.09 62.76 44.09 63 44.09 63.48 44.09 63.6 44.03 63.72 44.03 63.84 44.03 63.97 44.03 64.09 44.03 64.21 43.97 65.65 43.9 65.9 43.97 66.02 44.09 66.26 44.09 66.74 43.97 66.98 44.09 67.22 44.03 67.7 44.03 67.95 44.03 68.07 43.97 68.31 43.84 68.43 43.84 68.55 43.84 68.67 43.9 68.79 43.78 68.91 43.78 69.15 43.78 69.27 43.84 69.51 43.78 69.75 43.78 69.88 43.66 70 43.66 70.24 43.72 70.36 43.66 70.96 43.59 71.44 43.47 71.56 43.47 72.53 43.22 72.65 43.22 72.77 43.22 73.13 43.22 73.25 43.22 73.37 43.28 73.61 43.34 73.86 43.28 74.1 43.28 75.18 43.41"/>
      </g>
      <g stroke-width="0.3" fill="#000000" fill-opacity="0.000" class="geometry color_newno_tests" stroke-dasharray="none" stroke="#0000FF" id="img-b0e6385d-16">
        <path fill="none" d="M21.63,42.35 L 21.75 42.35 21.87 42.35 21.99 42.35 22.11 42.35 22.23 42.41 22.36 42.41 22.48 42.35 22.72 42.29 22.84 42.29 23.08 42.29 23.32 42.16 23.44 42.16 23.68 42.16 23.8 42.16 24.65 42.16 25.01 42.16 25.25 42.16 26.09 42.1 26.21 42.1 26.34 42.1 26.46 42.1 26.58 42.1 26.7 42.1 26.82 42.1 26.94 42.1 27.06 42.1 27.18 42.23 27.3 42.23 27.42 42.23 27.66 42.29 27.78 42.29 27.9 42.29 28.02 42.23 28.14 42.23 28.27 42.35 28.39 42.41 28.51 42.41 28.63 42.41 28.75 42.41 28.87 42.41 28.99 42.41 29.11 42.41 29.23 42.16 29.35 42.23 29.47 42.23 29.59 42.23 30.32 42.23 30.44 42.23 30.56 42.23 30.68 42.29 30.8 42.29 30.92 42.29 31.04 42.29 31.16 42.35 31.28 42.35 31.4 42.54 31.64 42.47 31.76 42.35 31.88 42.35 32 42.35 32.12 42.35 32.25 42.35 32.37 42.35 32.49 42.35 32.73 42.41 32.85 42.35 32.97 42.35 33.09 42.35 33.21 42.47 33.33 42.47 33.57 42.47 33.69 42.47 33.81 42.47 33.93 42.47 34.17 42.35 34.42 42.54 34.54 42.47 34.66 42.41 34.78 42.41 35.14 42.41 35.26 42.41 35.38 42.41 35.5 42.41 35.62 42.47 35.74 42.47 35.86 42.47 35.98 42.54 36.23 42.54 36.35 42.54 36.59 42.54 36.71 42.54 36.83 42.54 36.95 42.54 37.19 42.41 37.31 42.47 37.43 42.47 37.55 42.41 37.67 42.41 37.79 42.41 37.91 42.41 38.03 42.41 38.16 42.41 38.28 42.41 38.4 42.79 38.52 42.79 38.64 42.79 38.88 42.35 39 42.35 39.12 42.41 39.24 42.41 39.36 42.47 39.48 42.41 39.6 42.41 39.72 42.47 39.96 42.85 40.08 42.91 40.33 42.91 40.45 42.91 40.57 42.91 41.05 42.91 41.41 42.85 41.53 42.85 41.65 42.79 41.77 42.79 41.89 42.79 42.01 42.85 42.14 42.85 42.26 42.91 42.38 42.91 42.62 42.91 42.74 42.85 42.86 42.85 42.98 42.85 43.1 42.85 43.22 42.91 43.34 42.91 43.58 42.85 43.7 42.85 43.82 42.85 43.94 42.85 44.06 42.6 44.19 42.85 44.31 42.85 44.43 42.85 44.79 42.91 44.91 42.91 45.03 42.85 45.15 42.85 45.27 42.85 45.39 42.85 45.51 42.85 45.63 42.85 45.75 42.85 45.87 42.85 45.99 42.85 46.12 42.91 46.24 42.85 46.36 42.85 46.48 42.85 46.6 42.85 46.72 42.85 46.84 42.91 46.96 42.85 47.08 42.91 47.2 42.85 47.32 42.85 47.44 42.85 47.56 42.85 47.68 42.85 47.8 42.85 47.92 42.85 48.04 42.85 48.17 42.85 48.29 42.85 48.65 42.85 49.25 42.85 49.37 42.85 49.49 42.85 49.61 42.85 49.73 42.85 49.85 42.85 49.97 42.85 50.46 42.91 50.58 42.85 51.18 42.85 51.42 42.85 51.54 42.85 51.66 42.91 51.78 42.85 51.9 42.85 52.03 42.85 52.15 42.91 52.51 42.85 52.63 42.85 52.87 42.85 52.99 42.79 53.11 42.79 53.47 42.85 53.71 42.79 54.08 42.79 54.56 42.85 54.8 42.79 55.16 42.79 56.01 42.79 56.49 42.79 56.61 42.79 56.73 42.79 56.85 42.85 56.97 42.79 57.09 42.79 57.33 42.79 57.45 42.85 57.57 42.85 57.69 42.85 57.81 42.79 57.93 42.79 58.06 42.79 58.3 42.79 58.42 42.79 58.54 42.79 59.02 42.79 59.14 42.79 59.26 42.79 59.5 42.79 59.74 42.79 59.86 42.79 60.23 42.79 60.83 42.79 61.43 42.79 62.04 42.97 62.16 42.91 62.28 42.91 62.4 42.91 62.52 42.85 62.76 42.85 63 42.85 63.48 42.85 63.6 42.85 63.72 42.91 63.84 42.91 63.97 42.91 64.09 42.91 64.21 42.91 65.65 42.97 65.9 42.97 66.02 42.97 66.26 43.03 66.74 43.03 66.98 43.03 67.22 43.03 67.7 43.03 67.95 43.03 68.07 43.03 68.31 43.03 68.43 43.03 68.55 43.03 68.67 43.03 68.79 43.03 68.91 43.03 69.15 43.03 69.27 43.03 69.51 43.1 69.75 43.03 69.88 43.03 70 43.03 70.24 43.1 70.36 43.03 70.96 43.1 71.44 43.1 71.56 43.1 72.53 43.1 72.65 43.1 72.77 43.1 73.13 43.16 73.25 43.16 73.37 43.1 73.61 43.1 73.86 43.1 74.1 43.16 75.18 43.1"/>
      </g>
      <g stroke-width="0.3" fill="#000000" fill-opacity="0.000" class="geometry color_oldfull_fail" stroke-dasharray="none" stroke="#FFA500" id="img-b0e6385d-17">
        <path fill="none" d="M21.63,43.16 L 21.75 43.16 21.87 43.59 21.99 42.91 22.11 42.97 22.23 43.47 22.36 43.34 22.48 43.47 22.72 42.6 22.84 42.6 23.08 42.54 23.32 42.79 23.44 42.66 23.68 42.85 23.8 42.79 24.65 42.91 25.01 42.91 25.25 42.91 26.09 42.85 26.21 42.72 26.34 42.1 26.46 42.1 26.58 42.41 26.7 42.41 26.82 42.6 26.94 42.6 27.06 42.6 27.18 42.85 27.3 42.85 27.42 43.16 27.66 43.16 27.78 43.1 27.9 42.97 28.02 43.03 28.14 43.03 28.27 43.16 28.39 43.16 28.51 43.16 28.63 43.03 28.75 43.28 28.87 43.22 28.99 43.16 29.11 43.03 29.23 45.71 29.35 43.28 29.47 42.97 29.59 43.1 30.32 42.97 30.44 43.22 30.56 43.47 30.68 43.47 30.8 43.41 30.92 43.66 31.04 43.59 31.16 43.59 31.28 43.66 31.4 43.84 31.64 43.53 31.76 43.59 31.88 43.72 32 43.59 32.12 43.72 32.25 43.72 32.37 43.47 32.49 43.53 32.73 43.78 32.85 43.78 32.97 43.78 33.09 43.72 33.21 43.66 33.33 43.78 33.57 43.78 33.69 43.84 33.81 43.9 33.93 43.9 34.17 43.78 34.42 43.34 34.54 43.66 34.66 43.59 34.78 43.59 35.14 43.59 35.26 43.59 35.38 43.41 35.5 43.53 35.62 43.47 35.74 43.47 35.86 43.59 35.98 43.53 36.23 43.59 36.35 43.66 36.59 43.66 36.71 43.66 36.83 43.66 36.95 43.66 37.19 43.66 37.31 43.66 37.43 43.66 37.55 43.59 37.67 43.59 37.79 43.53 37.91 43.66 38.03 43.53 38.16 43.47 38.28 43.47 38.4 43.34 38.52 43.28 38.64 43.34 38.88 43.22 39 43.28 39.12 43.47 39.24 43.28 39.36 43.28 39.48 43.34 39.6 43.16 39.72 43.22 39.96 43.53 40.08 43.47 40.33 43.47 40.45 43.47 40.57 43.47 41.05 43.47 41.41 43.41 41.53 43.34 41.65 43.41 41.77 43.28 41.89 43.28 42.01 43.47 42.14 43.16 42.26 43.1 42.38 43.1 42.62 43.16 42.74 43.28 42.86 43.22 42.98 43.28 43.1 43.28 43.22 43.16 43.34 43.28 43.58 43.41 43.7 43.41 43.82 43.41 43.94 43.41 44.06 43.22 44.19 43.47 44.31 43.47 44.43 43.47 44.79 43.1 44.91 43.28 45.03 43.28 45.15 43.41 45.27 43.28 45.39 43.41 45.51 43.41 45.63 43.34 45.75 43.34 45.87 43.28 45.99 43.47 46.12 43.41 46.24 43.34 46.36 43.41 46.48 43.41 46.6 43.34 46.72 43.47 46.84 43.28 46.96 43.28 47.08 43.41 47.2 43.34 47.32 43.28 47.44 43.28 47.56 43.28 47.68 43.22 47.8 43.28 47.92 43.41 48.04 43.22 48.17 43.28 48.29 43.28 48.65 43.16 49.25 43.16 49.37 43.03 49.49 43.03 49.61 42.91 49.73 42.97 49.85 43.16 49.97 43.16 50.46 43.1 50.58 43.1 51.18 42.97 51.42 42.97 51.54 42.72 51.66 42.85 51.78 42.91 51.9 43.03 52.03 43.03 52.15 42.91 52.51 42.79 52.63 42.79 52.87 42.72 52.99 42.54 53.11 42.85 53.47 42.79 53.71 42.91 54.08 42.85 54.56 42.72 54.8 42.85 55.16 42.6 56.01 42.47 56.49 42.54 56.61 42.54 56.73 42.54 56.85 42.23 56.97 42.1 57.09 42.04 57.33 42.16 57.45 42.16 57.57 42.16 57.69 42.1 57.81 41.91 57.93 42.23 58.06 42.23 58.3 42.23 58.42 42.23 58.54 42.29 59.02 42.1 59.14 42.23 59.26 42.04 59.5 42.47 59.74 42.47 59.86 42.41 60.23 42.29 60.83 42.29 61.43 42.35 62.04 41.85 62.16 41.6 62.28 41.67 62.4 41.6 62.52 41.91 62.76 41.85 63 41.91 63.48 41.67 63.6 41.73 63.72 41.91 63.84 41.79 63.97 41.85 64.09 41.73 64.21 41.91 65.65 41.85 65.9 41.91 66.02 41.73 66.26 41.91 66.74 42.04 66.98 41.98 67.22 41.67 67.7 41.85 67.95 41.73 68.07 42.23 68.31 42.35 68.43 42.16 68.55 42.23 68.67 42.1 68.79 42.16 68.91 42.41 69.15 42.23 69.27 42.16 69.51 42.35 69.75 42.29 69.88 42.16 70 42.29 70.24 42.16 70.36 42.1 70.96 41.91 71.44 42.1 71.56 42.1 72.53 42.16 72.65 42.23 72.77 42.16 73.13 42.41 73.25 42.41 73.37 42.35 73.61 42.04 73.86 42.16 74.1 42.1 75.18 42.23"/>
      </g>
      <g stroke-width="0.3" fill="#000000" fill-opacity="0.000" class="geometry color_newtests_pass" stroke-dasharray="none" stroke="#008000" id="img-b0e6385d-18">
        <path fill="none" d="M21.63,37.69 L 21.75 37.69 21.87 38.12 21.99 37.81 22.11 37.81 22.23 38.25 22.36 38.37 22.48 38.25 22.72 38.18 22.84 38.12 23.08 38.06 23.32 37.81 23.44 37.93 23.68 37.69 23.8 37.69 24.65 37.25 25.01 37.25 25.25 37.25 26.09 37.31 26.21 37.25 26.34 37.93 26.46 37.93 26.58 37.56 26.7 37.56 26.82 37.44 26.94 37.44 27.06 37.44 27.18 37.13 27.3 37.13 27.42 36.75 27.66 36.63 27.78 36.38 27.9 36.38 28.02 36.13 28.14 36.13 28.27 35.82 28.39 35.7 28.51 35.76 28.63 35.82 28.75 35.57 28.87 35.63 28.99 35.57 29.11 35.7 29.23 35.26 29.35 35.32 29.47 35.57 29.59 35.38 30.32 35.07 30.44 34.76 30.56 34.45 30.68 34.33 30.8 34.33 30.92 34.08 31.04 34.14 31.16 34.08 31.28 34.02 31.4 34.76 31.64 33.95 31.76 33.83 31.88 33.71 32 33.83 32.12 33.71 32.25 33.71 32.37 33.77 32.49 33.71 32.73 33.33 32.85 33.27 32.97 33.27 33.09 33.27 33.21 33.21 33.33 32.96 33.57 32.9 33.69 32.77 33.81 32.71 33.93 32.71 34.17 32.77 34.42 34.08 34.54 33.89 34.66 32.65 34.78 32.71 35.14 32.52 35.26 32.52 35.38 32.65 35.5 32.52 35.62 32.46 35.74 32.34 35.86 32.21 35.98 32.15 36.23 32.09 36.35 31.96 36.59 32.03 36.71 31.9 36.83 31.71 36.95 31.71 37.19 31.78 37.31 31.71 37.43 31.71 37.55 31.71 37.67 31.65 37.79 31.71 37.91 31.53 38.03 31.65 38.16 31.71 38.28 31.59 38.4 33.02 38.52 32.71 38.64 32.65 38.88 31.59 39 31.47 39.12 31.22 39.24 31.34 39.36 31.34 39.48 31.16 39.6 31.16 39.72 31.16 39.96 30.97 40.08 30.78 40.33 30.78 40.45 30.78 40.57 30.78 41.05 30.78 41.41 30.22 41.53 30.22 41.65 30.16 41.77 30.1 41.89 30.04 42.01 29.79 42.14 29.6 42.26 29.6 42.38 29.6 42.62 29.72 42.74 29.6 42.86 29.66 42.98 29.54 43.1 29.6 43.22 29.72 43.34 29.6 43.58 29.54 43.7 29.41 43.82 29.41 43.94 29.35 44.06 28.79 44.19 29.23 44.31 29.16 44.43 29.04 44.79 29.23 44.91 29.1 45.03 29.04 45.15 28.79 45.27 28.92 45.39 28.79 45.51 28.67 45.63 28.73 45.75 28.79 45.87 28.85 45.99 28.73 46.12 28.85 46.24 28.85 46.36 28.73 46.48 28.61 46.6 28.67 46.72 28.54 46.84 28.67 46.96 28.67 47.08 28.48 47.2 28.54 47.32 28.54 47.44 28.42 47.56 28.42 47.68 28.42 47.8 28.29 47.92 28.17 48.04 28.23 48.17 28.17 48.29 28.29 48.65 28.17 49.25 27.92 49.37 27.92 49.49 27.92 49.61 27.92 49.73 27.8 49.85 27.55 49.97 27.55 50.46 27.3 50.58 27.3 51.18 27.36 51.42 27.36 51.54 27.86 51.66 27.42 51.78 27.24 51.9 27.11 52.03 26.99 52.15 27.05 52.51 27.17 52.63 27.11 52.87 27.05 52.99 27.17 53.11 26.86 53.47 26.86 53.71 26.61 54.08 26.55 54.56 26.49 54.8 26.24 55.16 26.24 56.01 26.06 56.49 25.68 56.61 25.56 56.73 25.56 56.85 25.81 56.97 25.99 57.09 25.99 57.33 25.87 57.45 25.74 57.57 25.74 57.69 25.68 57.81 25.81 57.93 25.5 58.06 25.5 58.3 25.37 58.42 25.25 58.54 25.12 59.02 25 59.14 25 59.26 25.18 59.5 24.62 59.74 24.5 59.86 24.56 60.23 24.56 60.83 24.56 61.43 24.07 62.04 25.93 62.16 25.62 62.28 25.12 62.4 24.75 62.52 24.44 62.76 24.56 63 24.5 63.48 24.62 63.6 24.5 63.72 24.19 63.84 24.31 63.97 24.13 64.09 24.25 64.21 24.07 65.65 24.13 65.9 24.07 66.02 23.94 66.26 23.69 66.74 23.63 66.98 23.57 67.22 23.75 67.7 23.57 67.95 23.57 68.07 23.07 68.31 22.76 68.43 22.95 68.55 22.82 68.67 22.7 68.79 22.76 68.91 22.45 69.15 22.57 69.27 22.51 69.51 22.32 69.75 22.32 69.88 22.39 70 22.2 70.24 22.07 70.36 22.2 70.96 22.14 71.44 21.89 71.56 21.83 72.53 21.76 72.65 21.83 72.77 21.89 73.13 21.39 73.25 21.33 73.37 21.27 73.61 21.39 73.86 21.33 74.1 21.27 75.18 20.77"/>
      </g>
    </g>
  </g>
</g>
  <g class="guide ylabels" font-size="2.82" font-family="'PT Sans Caption','Helvetica Neue','Helvetica',sans-serif" fill="#6C606B" id="img-b0e6385d-19">
    <text x="18.63" y="45.71" text-anchor="end" dy="0.35em">0</text>
    <text x="18.63" y="39.49" text-anchor="end" dy="0.35em">100</text>
    <text x="18.63" y="33.27" text-anchor="end" dy="0.35em">200</text>
    <text x="18.63" y="27.05" text-anchor="end" dy="0.35em">300</text>
    <text x="18.63" y="20.83" text-anchor="end" dy="0.35em">400</text>
    <text x="18.63" y="14.61" text-anchor="end" dy="0.35em">500</text>
  </g>
  <g font-size="3.88" font-family="'PT Sans','Helvetica Neue','Helvetica',sans-serif" fill="#564A55" stroke="#000000" stroke-opacity="0.000" id="img-b0e6385d-20">
    <text x="8.81" y="28.16" text-anchor="middle" dy="0.35em" transform="rotate(-90, 8.81, 30.16)">Number of Packages</text>
  </g>
  <g font-size="3.88" font-family="'PT Sans','Helvetica Neue','Helvetica',sans-serif" fill="#564A55" stroke="#000000" stroke-opacity="0.000" id="img-b0e6385d-21">
    <text x="58.12" y="10.61" text-anchor="middle">Julia v0.3</text>
  </g>
</g>
<defs>
  <clipPath id="img-b0e6385d-4">
  <path d="M19.63,12.61 L 96.6 12.61 96.6 47.71 19.63 47.71" />
</clipPath>
</defs>
</svg>
