<?xml version="1.0" encoding="UTF-8"?>
<svg xmlns="http://www.w3.org/2000/svg"
     xmlns:xlink="http://www.w3.org/1999/xlink"
     xmlns:gadfly="http://www.gadflyjl.org/ns"
     version="1.2"
     width="101.6mm" height="76.2mm" viewBox="0 0 101.6 76.2"
     stroke="none"
     fill="#000000"
     stroke-width="0.3"
     font-size="3.88"
>
<g class="plotroot xscalable yscalable" id="fig-134bf4fa5f6c4ab98bee073544c7f190-element-1">
  <g font-size="3.88" font-family="'PT Sans','Helvetica Neue','Helvetica',sans-serif" fill="#564A55" stroke="#000000" stroke-opacity="0.000" id="fig-134bf4fa5f6c4ab98bee073544c7f190-element-2">
    <text x="58.12" y="64.59" text-anchor="middle" dy="0.6em">Date</text>
  </g>
  <g class="guide xlabels" font-size="2.82" font-family="'PT Sans Caption','Helvetica Neue','Helvetica',sans-serif" fill="#6C606B" id="fig-134bf4fa5f6c4ab98bee073544c7f190-element-3">
    <text x="21.88" y="48.71" text-anchor="end" dy="0.35em" transform="rotate(-90, 21.88, 48.71)">Apr</text>
    <text x="25.55" y="48.71" text-anchor="end" dy="0.35em" transform="rotate(-90, 25.55, 48.71)">May</text>
    <text x="29.34" y="48.71" text-anchor="end" dy="0.35em" transform="rotate(-90, 29.34, 48.71)">Jun</text>
    <text x="33.02" y="48.71" text-anchor="end" dy="0.35em" transform="rotate(-90, 33.02, 48.71)">Jul</text>
    <text x="36.81" y="48.71" text-anchor="end" dy="0.35em" transform="rotate(-90, 36.81, 48.71)">Aug</text>
    <text x="40.61" y="48.71" text-anchor="end" dy="0.35em" transform="rotate(-90, 40.61, 48.71)">Sep</text>
    <text x="44.28" y="48.71" text-anchor="end" dy="0.35em" transform="rotate(-90, 44.28, 48.71)">Oct</text>
    <text x="48.08" y="48.71" text-anchor="end" dy="0.35em" transform="rotate(-90, 48.08, 48.71)">Nov</text>
    <text x="51.75" y="48.71" text-anchor="end" dy="0.35em" transform="rotate(-90, 51.75, 48.71)">Dec</text>
    <text x="55.54" y="48.71" text-anchor="end" dy="0.35em" transform="rotate(-90, 55.54, 48.71)">Jan 2015</text>
    <text x="59.34" y="48.71" text-anchor="end" dy="0.35em" transform="rotate(-90, 59.34, 48.71)">Feb</text>
    <text x="62.77" y="48.71" text-anchor="end" dy="0.35em" transform="rotate(-90, 62.77, 48.71)">Mar</text>
    <text x="66.56" y="48.71" text-anchor="end" dy="0.35em" transform="rotate(-90, 66.56, 48.71)">Apr</text>
    <text x="70.24" y="48.71" text-anchor="end" dy="0.35em" transform="rotate(-90, 70.24, 48.71)">May</text>
    <text x="74.03" y="48.71" text-anchor="end" dy="0.35em" transform="rotate(-90, 74.03, 48.71)">Jun</text>
    <text x="77.7" y="48.71" text-anchor="end" dy="0.35em" transform="rotate(-90, 77.7, 48.71)">Jul</text>
    <text x="81.5" y="48.71" text-anchor="end" dy="0.35em" transform="rotate(-90, 81.5, 48.71)">Aug</text>
    <text x="85.3" y="48.71" text-anchor="end" dy="0.35em" transform="rotate(-90, 85.3, 48.71)">Sep</text>
    <text x="88.97" y="48.71" text-anchor="end" dy="0.35em" transform="rotate(-90, 88.97, 48.71)">Oct</text>
    <text x="92.76" y="48.71" text-anchor="end" dy="0.35em" transform="rotate(-90, 92.76, 48.71)">Nov</text>
  </g>
  <g clip-path="url(#fig-134bf4fa5f6c4ab98bee073544c7f190-element-5)" id="fig-134bf4fa5f6c4ab98bee073544c7f190-element-4">
    <g pointer-events="visible" opacity="1" fill="#000000" fill-opacity="0.000" stroke="#000000" stroke-opacity="0.000" class="guide background" id="fig-134bf4fa5f6c4ab98bee073544c7f190-element-6">
      <rect x="19.63" y="12.61" width="76.97" height="35.1"/>
    </g>
    <g class="guide ygridlines xfixed" stroke-dasharray="0.5,0.5" stroke-width="0.2" stroke="#D0D0E0" id="fig-134bf4fa5f6c4ab98bee073544c7f190-element-7">
      <path fill="none" d="M19.63,45.71 L 96.6 45.71"/>
      <path fill="none" d="M19.63,30.16 L 96.6 30.16"/>
      <path fill="none" d="M19.63,14.61 L 96.6 14.61"/>
    </g>
    <g class="guide xgridlines yfixed" stroke-dasharray="0.5,0.5" stroke-width="0.2" stroke="#D0D0E0" id="fig-134bf4fa5f6c4ab98bee073544c7f190-element-8">
      <path fill="none" d="M21.88,12.61 L 21.88 47.71"/>
      <path fill="none" d="M25.55,12.61 L 25.55 47.71"/>
      <path fill="none" d="M29.34,12.61 L 29.34 47.71"/>
      <path fill="none" d="M33.02,12.61 L 33.02 47.71"/>
      <path fill="none" d="M36.81,12.61 L 36.81 47.71"/>
      <path fill="none" d="M40.61,12.61 L 40.61 47.71"/>
      <path fill="none" d="M44.28,12.61 L 44.28 47.71"/>
      <path fill="none" d="M48.08,12.61 L 48.08 47.71"/>
      <path fill="none" d="M51.75,12.61 L 51.75 47.71"/>
      <path fill="none" d="M55.54,12.61 L 55.54 47.71"/>
      <path fill="none" d="M59.34,12.61 L 59.34 47.71"/>
      <path fill="none" d="M62.77,12.61 L 62.77 47.71"/>
      <path fill="none" d="M66.56,12.61 L 66.56 47.71"/>
      <path fill="none" d="M70.24,12.61 L 70.24 47.71"/>
      <path fill="none" d="M74.03,12.61 L 74.03 47.71"/>
      <path fill="none" d="M77.7,12.61 L 77.7 47.71"/>
      <path fill="none" d="M81.5,12.61 L 81.5 47.71"/>
      <path fill="none" d="M85.3,12.61 L 85.3 47.71"/>
      <path fill="none" d="M88.97,12.61 L 88.97 47.71"/>
      <path fill="none" d="M92.76,12.61 L 92.76 47.71"/>
    </g>
    <g class="plotpanel" id="fig-134bf4fa5f6c4ab98bee073544c7f190-element-9">
      <g stroke-width="0.3" fill="#000000" fill-opacity="0.000" class="geometry color_newnot_possible" stroke-dasharray="none" stroke="#808080" id="fig-134bf4fa5f6c4ab98bee073544c7f190-element-10">
        <path fill="none" d="M76.36,42.94 L 76.48 42.94 76.6 42.95 76.73 42.95 76.85 42.96 76.97 42.96 77.09 42.96 77.21 42.96 77.58 42.96 77.83 42.97 78.07 43.02 78.19 42.98 78.32 42.99 78.44 43 78.56 43.01 78.68 43.01 80.77 43.02 81.74 43.04 82.85 43.06 84.93 43.12 85.3 43.12 85.91 42.99 86.52 42.85 88.48 42.89 88.97 42.92 89.58 42.93 90.07 42.94 90.56 42.94 90.93 42.91 92.4 42.91 93.87 42.87 94.36 42.86 94.6 42.82"/>
      </g>
      <g stroke-width="0.3" fill="#000000" fill-opacity="0.000" class="geometry color_newno_tests" stroke-dasharray="none" stroke="#0000FF" id="fig-134bf4fa5f6c4ab98bee073544c7f190-element-11">
        <path fill="none" d="M76.36,40.12 L 76.48 40.12 76.6 40.13 76.73 40.13 76.85 40.15 76.97 40.15 77.09 40.15 77.21 40.16 77.58 40.16 77.83 40.18 78.07 40.17 78.19 40.19 78.32 40.28 78.44 40.3 78.56 40.3 78.68 40.36 80.77 40.43 81.74 40.47 82.85 40.51 84.93 40.62 85.3 40.69 85.91 40.69 86.52 40.76 88.48 40.97 88.97 41.15 89.58 41.27 90.07 41.27 90.56 41.29 90.93 41.34 92.4 41.4 93.87 41.49 94.36 41.48 94.6 41.49"/>
      </g>
      <g stroke-width="0.3" fill="#000000" fill-opacity="0.000" class="geometry color_newtests_fail" stroke-dasharray="none" stroke="#FF0000" id="fig-134bf4fa5f6c4ab98bee073544c7f190-element-12">
        <path fill="none" d="M76.36,42.78 L 76.48 42.62 76.6 42.58 76.73 42.53 76.85 42.44 76.97 42.59 77.09 42.39 77.21 42.55 77.58 42.44 77.83 42.4 78.07 42.35 78.19 42.51 78.32 40.89 78.44 42.44 78.56 42.14 78.68 42.19 80.77 42.47 81.74 42.54 82.85 42.18 84.93 41.44 85.3 41.69 85.91 41.98 86.52 42.23 88.48 42.24 88.97 42.03 89.58 42.24 90.07 42.29 90.56 42.16 90.93 42.17 92.4 42.08 93.87 42 94.36 42.31 94.6 42.32"/>
      </g>
      <g stroke-width="0.3" fill="#000000" fill-opacity="0.000" class="geometry color_newtests_pass" stroke-dasharray="none" stroke="#008000" id="fig-134bf4fa5f6c4ab98bee073544c7f190-element-13">
        <path fill="none" d="M76.36,25.9 L 76.48 26.06 76.6 26.07 76.73 26.12 76.85 26.19 76.97 26.03 77.09 26.24 77.21 26.07 77.58 26.17 77.83 26.18 78.07 26.2 78.19 26.06 78.32 27.57 78.44 26 78.56 26.29 78.68 26.18 80.77 25.82 81.74 25.69 82.85 25.99 84.93 26.56 85.3 26.24 85.91 26.08 86.52 25.9 88.48 25.63 88.97 25.64 89.58 25.3 90.07 25.24 90.56 25.35 90.93 25.31 92.4 25.34 93.87 25.37 94.36 25.08 94.6 25.1"/>
      </g>
      <g stroke-width="0.3" fill="#000000" fill-opacity="0.000" class="geometry color_newnot_possible" stroke-dasharray="none" stroke="#808080" id="fig-134bf4fa5f6c4ab98bee073544c7f190-element-14">
        <path fill="none" d="M21.63,42.35 L 21.75 42.35 21.88 42.36 22 42.36 22.12 42.36 22.24 42.36 22.37 42.36 22.49 42.37 22.73 42.37 22.86 42.38 23.1 42.39 23.35 42.41 23.47 42.41 23.71 42.41 23.84 42.42 24.69 42.47 25.06 42.47 25.3 42.47 26.16 42.58 26.28 42.6 26.41 42.61 26.53 42.61 26.65 42.61 26.77 42.51 26.9 42.51 27.02 42.51 27.14 42.51 27.26 42.31 27.39 42.31 27.51 42.34 27.75 42.25 27.88 42.94 28 42.94 28.12 42.96 28.24 42.96 28.37 42.96 28.49 42.97 28.61 42.97 28.73 42.97 28.86 42.97 28.98 42.97 29.1 42.98 29.22 42.98 29.34 42.59 29.47 42.99 29.59 43 29.71 43 30.45 42.58 30.57 42.49 30.69 42.5 30.81 42.51 30.94 42.53 31.06 42.44 31.18 42.27 31.3 42.27 31.43 42.28 31.55 42.29 31.79 42.29 31.92 42.31 32.04 42.31 32.16 42.31 32.28 42.31 32.41 42.31 32.53 42.34 32.65 42.34 32.9 42.35 33.02 42.37 33.14 42.38 33.26 42.39 33.38 42.39 33.51 42.41 33.75 42.42 33.87 42.45 34 42.45 34.12 42.45 34.36 42.49 34.61 42.52 34.73 42.52 34.85 42.53 34.98 42.53 35.34 42.54 35.47 42.54 35.59 42.55 35.71 42.55 35.83 42.55 35.96 42.56 36.08 42.48 36.2 42.49 36.45 42.49 36.57 42.49 36.81 42.49 36.94 42.5 37.06 42.52 37.18 42.52 37.43 42.53 37.55 42.53 37.67 42.55 37.79 42.56 37.91 42.57 38.04 42.57 38.16 42.58 38.28 42.6 38.4 42.52 38.53 42.44 38.65 42.45 38.77 42.45 38.89 42.45 39.14 42.48 39.26 42.48 39.38 42.49 39.51 42.49 39.63 42.49 39.75 42.51 39.87 42.52 40 42.53 40.24 42.43 40.36 42.37 40.61 42.39 40.73 42.39 40.85 42.31 41.34 42.31 41.71 42.36 41.83 42.37 41.96 42.38 42.08 42.39 42.2 42.39 42.32 42.39 42.44 42.46 42.57 42.46 42.69 42.46 42.93 42.38 43.06 42.39 43.18 42.4 43.3 42.4 43.42 42.4 43.55 42.41 43.67 42.33 43.91 42.32 44.04 42.33 44.16 42.33 44.28 42.35 44.4 42.29 44.53 42.29 44.65 42.29 44.77 42.3 45.14 42.32 45.26 42.24 45.38 42.26 45.51 42.27 45.63 42.27 45.75 42.27 45.87 42.29 46 42.29 46.12 42.29 46.24 42.3 46.36 42.23 46.48 42.23 46.61 42.23 46.73 42.24 46.85 42.25 46.97 42.25 47.1 42.25 47.22 42.26 47.34 42.26 47.46 42.27 47.59 42.27 47.71 42.29 47.83 42.29 47.95 42.29 48.08 42.3 48.2 42.3 48.32 42.3 48.44 42.31 48.57 42.31 48.69 42.32 49.06 42.32 49.67 42.36 49.79 42.37 49.91 42.37 50.04 42.38 50.16 42.38 50.28 42.4 50.4 42.4 50.89 42.44 51.01 42.44 51.63 42.45 51.87 42.45 51.99 42.52 52.12 42.53 52.24 42.53 52.36 42.53 52.48 42.54 52.61 42.55 52.97 42.56 53.1 42.57 53.34 42.59 53.46 42.6 53.59 42.6 53.95 42.6 54.2 42.61 54.57 42.63 55.06 42.64 55.3 42.66 55.67 42.68 56.52 42.72 57.01 42.77 57.14 42.65 57.26 42.65 57.38 42.62 57.5 42.62 57.63 42.62 57.87 42.62 57.99 42.63 58.12 42.63 58.24 42.65 58.36 42.65 58.48 42.65 58.61 42.65 58.85 42.61 58.97 42.62 59.1 42.63 59.58 42.68 59.71 42.67 59.83 42.67 60.07 42.68 60.32 42.7 60.44 42.7 60.81 42.71 61.42 42.71 62.03 42.75 62.65 42.77 62.77 42.77 62.89 42.77 63.01 42.37 63.14 42.43 63.38 42.37 63.63 42.37 64.11 42.38 64.24 42.4 64.36 42.4 64.48 42.4 64.6 42.41 64.73 42.47 64.85 42.42 66.32 42.37 66.56 42.31 66.69 42.33 66.93 42.33 67.42 42.34 67.67 42.34 67.91 42.35 68.4 42.35 68.64 42.37 68.77 42.37 69.01 42.4 69.13 42.4 69.26 42.41 69.38 42.43 69.5 42.43 69.62 42.43 69.87 42.44 69.99 42.44 70.24 42.44 70.48 42.46 70.6 42.47 70.73 42.48 70.97 42.49 71.09 42.5 71.71 42.52 72.2 42.58 72.32 42.54 73.3 42.56 73.42 42.45 73.54 42.45 73.91 42.47 74.03 42.48 74.15 42.54 74.4 42.55 74.64 42.55 74.89 42.55 75.99 42.58"/>
      </g>
      <g stroke-width="0.3" fill="#000000" fill-opacity="0.000" class="geometry color_newtests_fail" stroke-dasharray="none" stroke="#FF0000" id="fig-134bf4fa5f6c4ab98bee073544c7f190-element-15">
        <path fill="none" d="M21.63,41.51 L 21.75 41.51 21.88 39.95 22 41.62 22.12 41.52 22.24 39.84 22.37 39.84 22.49 39.86 22.73 41.53 22.86 41.55 23.1 41.67 23.35 41.69 23.47 41.69 23.71 41.8 23.84 41.81 24.69 41.96 25.06 41.96 25.3 41.96 26.16 41.87 26.28 42 26.41 41.81 26.53 41.81 26.65 41.91 26.77 42.01 26.9 41.91 27.02 41.91 27.14 41.91 27.26 42.01 27.39 42.01 27.51 41.85 27.75 41.96 27.88 41.76 28 41.96 28.12 42.18 28.24 42.18 28.37 42.27 28.49 42.29 28.61 42.19 28.73 42.29 28.86 42.29 28.98 42.29 29.1 42.39 29.22 42.39 29.34 42.81 29.47 42.79 29.59 42.8 29.71 42.81 30.45 43.43 30.57 43.53 30.69 43.54 30.81 43.55 30.94 43.47 31.06 43.56 31.18 43.57 31.3 43.57 31.43 43.49 31.55 41.74 31.79 43.49 31.92 43.6 32.04 43.6 32.16 43.6 32.28 43.6 32.41 43.6 32.53 43.62 32.65 43.62 32.9 43.62 33.02 43.64 33.14 43.55 33.26 43.56 33.38 43.56 33.51 43.57 33.75 43.58 33.87 43.42 34 43.42 34.12 43.42 34.36 43.28 34.61 41.57 34.73 41.49 34.85 43.3 34.98 43.22 35.34 43.4 35.47 43.4 35.59 43.4 35.71 43.4 35.83 43.49 35.96 43.58 36.08 43.58 36.2 43.59 36.45 43.59 36.57 43.67 36.81 43.59 36.94 43.68 37.06 43.7 37.18 43.7 37.43 43.7 37.55 43.7 37.67 43.55 37.79 43.64 37.91 43.64 38.04 43.56 38.16 43.57 38.28 43.42 38.4 43.5 38.53 43.67 38.65 41.39 38.77 41.88 38.89 41.88 39.14 43.77 39.26 43.85 39.38 43.77 39.51 43.86 39.63 43.77 39.75 43.79 39.87 43.95 40 43.72 40.24 43.99 40.36 44.08 40.61 43.93 40.73 43.93 40.85 44.01 41.34 44.01 41.71 44.43 41.83 44.44 41.96 44.44 42.08 44.52 42.2 44.6 42.32 44.6 42.44 44.63 42.57 44.63 42.69 44.63 42.93 44.47 43.06 44.47 43.18 44.4 43.3 44.48 43.42 44.4 43.55 44.25 43.67 44.33 43.91 44.4 44.04 44.48 44.16 44.48 44.28 44.41 44.4 44.4 44.53 44.42 44.65 44.49 44.77 44.5 45.14 44.5 45.26 44.5 45.38 44.51 45.51 44.59 45.63 44.59 45.75 44.59 45.87 44.59 46 44.59 46.12 44.45 46.24 44.38 46.36 44.38 46.48 44.23 46.61 44.38 46.73 44.38 46.85 44.39 46.97 44.39 47.1 44.39 47.22 44.31 47.34 44.39 47.46 44.32 47.59 44.39 47.71 44.32 47.83 44.4 47.95 44.4 48.08 44.4 48.2 44.48 48.32 44.48 48.44 44.55 48.57 44.55 48.69 44.34 49.06 44.63 49.67 44.57 49.79 44.57 49.91 44.57 50.04 44.65 50.16 44.72 50.28 44.58 50.4 44.58 50.89 44.53 51.01 44.6 51.63 44.6 51.87 44.6 51.99 44.18 52.12 44.4 52.24 44.6 52.36 44.6 52.48 44.61 52.61 44.54 52.97 44.48 53.1 44.48 53.34 44.42 53.46 44.49 53.59 44.49 53.95 44.49 54.2 44.56 54.57 44.57 55.06 44.57 55.3 44.58 55.67 44.59 56.52 44.54 57.01 44.43 57.14 44.56 57.26 44.56 57.38 44.32 57.5 44.32 57.63 44.38 57.87 44.38 57.99 44.33 58.12 44.33 58.24 44.27 58.36 44.34 58.48 44.34 58.61 44.34 58.85 44.35 58.97 44.35 59.1 44.35 59.58 44.19 59.71 44.19 59.83 44.19 60.07 44.14 60.32 44.08 60.44 44.08 60.81 44.09 61.42 44.09 62.03 44.17 62.65 42.48 62.77 43.06 62.89 43.47 63.01 44.19 63.14 44.19 63.38 44.19 63.63 44.19 64.11 44.19 64.24 44.14 64.36 44.14 64.48 44.14 64.6 44.15 64.73 44.14 64.85 44.09 66.32 44.04 66.56 44.1 66.69 44.22 66.93 44.22 67.42 44.11 67.67 44.22 67.91 44.17 68.4 44.17 68.64 44.18 68.77 44.13 69.01 44.03 69.13 44.03 69.26 44.03 69.38 44.1 69.5 43.98 69.62 43.99 69.87 43.99 69.99 44.05 70.24 43.99 70.48 44 70.6 43.9 70.73 43.9 70.97 43.96 71.09 43.91 71.71 43.87 72.2 43.77 72.32 43.77 73.3 43.57 73.42 43.57 73.54 43.57 73.91 43.59 74.03 43.59 74.15 43.65 74.4 43.71 74.64 43.65 74.89 43.66 75.99 43.78"/>
      </g>
      <g stroke-width="0.3" fill="#000000" fill-opacity="0.000" class="geometry color_newno_tests" stroke-dasharray="none" stroke="#0000FF" id="fig-134bf4fa5f6c4ab98bee073544c7f190-element-16">
        <path fill="none" d="M21.63,40.04 L 21.75 40.04 21.88 40.05 22 40.05 22.12 40.05 22.24 40.16 22.37 40.16 22.49 40.07 22.73 39.97 22.86 39.99 23.1 40.01 23.35 39.84 23.47 39.84 23.71 39.84 23.84 39.86 24.69 39.93 25.06 39.93 25.3 39.93 26.16 39.85 26.28 39.89 26.41 39.91 26.53 39.91 26.65 39.91 26.77 39.91 26.9 39.91 27.02 39.91 27.14 39.91 27.26 40.11 27.39 40.11 27.51 40.16 27.75 40.28 27.88 40.28 28 40.28 28.12 40.21 28.24 40.21 28.37 40.41 28.49 40.53 28.61 40.53 28.73 40.53 28.86 40.53 28.98 40.53 29.1 40.54 29.22 40.54 29.34 39.36 29.47 40.27 29.59 40.28 29.71 40.3 30.45 40.4 30.57 40.42 30.69 40.43 30.81 40.54 30.94 40.57 31.06 40.57 31.18 40.6 31.3 40.7 31.43 40.71 31.55 41 31.79 40.91 31.92 40.75 32.04 40.75 32.16 40.75 32.28 40.75 32.41 40.75 32.53 40.8 32.65 40.8 32.9 40.9 33.02 40.84 33.14 40.86 33.26 40.87 33.38 41.05 33.51 41.08 33.75 41.09 33.87 41.13 34 41.13 34.12 41.13 34.36 41.02 34.61 41.32 34.73 41.23 34.85 41.16 34.98 41.16 35.34 41.17 35.47 41.17 35.59 41.18 35.71 41.18 35.83 41.27 35.96 41.28 36.08 41.29 36.2 41.39 36.45 41.39 36.57 41.39 36.81 41.39 36.94 41.4 37.06 41.43 37.18 41.43 37.43 41.28 37.55 41.36 37.67 41.38 37.79 41.31 37.91 41.33 38.04 41.34 38.16 41.35 38.28 41.37 38.4 41.37 38.53 41.38 38.65 41.88 38.77 41.88 38.89 41.88 39.14 41.35 39.26 41.35 39.38 41.44 39.51 41.44 39.63 41.52 39.75 41.47 39.87 41.48 40 41.57 40.24 41.93 40.36 42.05 40.61 42.06 40.73 42.06 40.85 42.06 41.34 42.06 41.71 42.04 41.83 42.05 41.96 41.98 42.08 42 42.2 42 42.32 42.08 42.44 42.15 42.57 42.23 42.69 42.23 42.93 42.23 43.06 42.16 43.18 42.17 43.3 42.17 43.42 42.17 43.55 42.25 43.67 42.25 43.91 42.17 44.04 42.18 44.16 42.18 44.28 42.19 44.4 42.07 44.53 42.21 44.65 42.21 44.77 42.23 45.14 42.32 45.26 42.32 45.38 42.26 45.51 42.27 45.63 42.27 45.75 42.27 45.87 42.29 46 42.29 46.12 42.29 46.24 42.3 46.36 42.3 46.48 42.38 46.61 42.3 46.73 42.31 46.85 42.33 46.97 42.33 47.1 42.33 47.22 42.41 47.34 42.33 47.46 42.42 47.59 42.34 47.71 42.36 47.83 42.37 47.95 42.37 48.08 42.37 48.2 42.37 48.32 42.37 48.44 42.38 48.57 42.38 48.69 42.39 49.06 42.39 49.67 42.43 49.79 42.44 49.91 42.44 50.04 42.45 50.16 42.45 50.28 42.47 50.4 42.47 50.89 42.58 51.01 42.51 51.63 42.52 51.87 42.52 51.99 42.52 52.12 42.6 52.24 42.53 52.36 42.53 52.48 42.54 52.61 42.62 52.97 42.56 53.1 42.57 53.34 42.59 53.46 42.53 53.59 42.53 53.95 42.6 54.2 42.54 54.57 42.56 55.06 42.64 55.3 42.59 55.67 42.62 56.52 42.66 57.01 42.7 57.14 42.71 57.26 42.71 57.38 42.81 57.5 42.74 57.63 42.74 57.87 42.74 57.99 42.82 58.12 42.82 58.24 42.84 58.36 42.78 58.48 42.78 58.61 42.78 58.85 42.8 58.97 42.81 59.1 42.81 59.58 42.86 59.71 42.85 59.83 42.85 60.07 42.86 60.32 42.88 60.44 42.88 60.81 42.89 61.42 42.89 62.03 42.92 62.65 43.12 62.77 43.06 62.89 43.06 63.01 43.07 63.14 43.01 63.38 43.01 63.63 43.01 64.11 43.02 64.24 43.03 64.36 43.1 64.48 43.1 64.6 43.11 64.73 43.1 64.85 43.11 66.32 43.17 66.56 43.17 66.69 43.19 66.93 43.25 67.42 43.25 67.67 43.25 67.91 43.26 68.4 43.26 68.64 43.27 68.77 43.28 69.01 43.3 69.13 43.3 69.26 43.3 69.38 43.32 69.5 43.32 69.62 43.32 69.87 43.32 69.99 43.33 70.24 43.38 70.48 43.34 70.6 43.35 70.73 43.35 70.97 43.42 71.09 43.37 71.71 43.44 72.2 43.44 72.32 43.45 73.3 43.47 73.42 43.47 73.54 43.47 73.91 43.53 74.03 43.54 74.15 43.49 74.4 43.49 74.64 43.49 74.89 43.55 75.99 43.52"/>
      </g>
      <g stroke-width="0.3" fill="#000000" fill-opacity="0.000" class="geometry color_oldfull_fail" stroke-dasharray="none" stroke="#FFA500" id="fig-134bf4fa5f6c4ab98bee073544c7f190-element-17">
        <path fill="none" d="M21.63,41.4 L 21.75 41.4 21.88 42.15 22 41 22.12 41.1 22.24 41.94 22.37 41.73 22.49 41.95 22.73 40.49 22.86 40.51 23.1 40.42 23.35 40.87 23.47 40.66 23.71 40.97 23.84 40.88 24.69 41.15 25.06 41.15 25.3 41.15 26.16 41.06 26.28 40.89 26.41 39.91 26.53 39.91 26.65 40.41 26.77 40.41 26.9 40.71 27.02 40.71 27.14 40.71 27.26 41.11 27.39 41.11 27.51 41.65 27.75 41.66 27.88 41.56 28 41.36 28.12 41.49 28.24 41.49 28.37 41.69 28.49 41.7 28.61 41.7 28.73 41.5 28.86 41.89 28.98 41.8 29.1 41.71 29.22 41.52 29.34 45.71 29.47 41.92 29.59 41.45 29.71 41.65 30.45 41.54 30.57 41.93 30.69 42.32 30.81 42.33 30.94 42.25 31.06 42.63 31.18 42.55 31.3 42.55 31.43 42.65 31.55 42.94 31.79 42.48 31.92 42.59 32.04 42.77 32.16 42.59 32.28 42.77 32.41 42.77 32.53 42.44 32.65 42.53 32.9 42.9 33.02 42.91 33.14 42.92 33.26 42.84 33.38 42.75 33.51 42.95 33.75 42.95 33.87 43.07 34 43.15 34.12 43.15 34.36 43.02 34.61 42.44 34.73 42.87 34.85 42.79 34.98 42.79 35.34 42.8 35.47 42.8 35.59 42.55 35.71 42.72 35.83 42.63 35.96 42.64 36.08 42.82 36.2 42.74 36.45 42.83 36.57 42.91 36.81 42.91 36.94 42.92 37.06 42.94 37.18 42.94 37.43 42.95 37.55 42.95 37.67 42.96 37.79 42.89 37.91 42.9 38.04 42.82 38.16 42.99 38.28 42.84 38.4 42.76 38.53 42.77 38.65 42.61 38.77 42.53 38.89 42.61 39.14 42.48 39.26 42.56 39.38 42.81 39.51 42.57 39.63 42.57 39.75 42.67 39.87 42.44 40 42.53 40.24 42.84 40.36 42.78 40.61 42.79 40.73 42.79 40.85 42.79 41.34 42.79 41.71 42.76 41.83 42.69 41.96 42.77 42.08 42.63 42.2 42.63 42.32 42.87 42.44 42.54 42.57 42.46 42.69 42.46 42.93 42.54 43.06 42.7 43.18 42.63 43.3 42.71 43.42 42.71 43.55 42.56 43.67 42.71 43.91 42.86 44.04 42.87 44.16 42.87 44.28 42.88 44.4 42.8 44.53 42.97 44.65 42.97 44.77 42.98 45.14 42.55 45.26 42.77 45.38 42.79 45.51 42.94 45.63 42.79 45.75 42.94 45.87 42.96 46 42.88 46.12 42.89 46.24 42.82 46.36 43.04 46.48 42.97 46.61 42.89 46.73 42.98 46.85 42.99 46.97 42.91 47.1 43.06 47.22 42.85 47.34 42.85 47.46 43 47.59 42.93 47.71 42.87 47.83 42.87 47.95 42.87 48.08 42.81 48.2 42.88 48.32 43.03 48.44 42.82 48.57 42.89 48.69 42.89 49.06 42.75 49.67 42.78 49.79 42.66 49.91 42.66 50.04 42.52 50.16 42.59 50.28 42.82 50.4 42.82 50.89 42.79 51.01 42.79 51.63 42.65 51.87 42.65 51.99 42.38 52.12 42.53 52.24 42.6 52.36 42.74 52.48 42.75 52.61 42.62 52.97 42.5 53.1 42.5 53.34 42.46 53.46 42.26 53.59 42.6 53.95 42.53 54.2 42.68 54.57 42.63 55.06 42.51 55.3 42.66 55.67 42.42 56.52 42.33 57.01 42.45 57.14 42.46 57.26 42.46 57.38 42.18 57.5 42.05 57.63 41.99 57.87 42.11 57.99 42.13 58.12 42.13 58.24 42.09 58.36 41.91 58.48 42.22 58.61 42.22 58.85 42.24 58.97 42.25 59.1 42.32 59.58 42.19 59.71 42.3 59.83 42.12 60.07 42.56 60.32 42.58 60.44 42.52 60.81 42.41 61.42 42.41 62.03 42.51 62.65 42.06 62.77 41.83 62.89 41.89 63.01 41.84 63.14 42.14 63.38 42.08 63.63 42.14 64.11 41.92 64.24 41.99 64.36 42.17 64.48 42.05 64.6 42.12 64.73 42 64.85 42.19 66.32 42.14 66.56 42.2 66.69 42.04 66.93 42.21 67.42 42.34 67.67 42.28 67.91 42.01 68.4 42.18 68.64 42.08 68.77 42.54 69.01 42.68 69.13 42.51 69.26 42.58 69.38 42.48 69.5 42.54 69.62 42.77 69.87 42.6 69.99 42.55 70.24 42.72 70.48 42.68 70.6 42.58 70.73 42.7 70.97 42.6 71.09 42.55 71.71 42.41 72.2 42.58 72.32 42.59 73.3 42.67 73.42 42.72 73.54 42.67 73.91 42.9 74.03 42.9 74.15 42.85 74.4 42.6 74.64 42.7 74.89 42.66 75.99 42.79"/>
      </g>
      <g stroke-width="0.3" fill="#000000" fill-opacity="0.000" class="geometry color_newtests_pass" stroke-dasharray="none" stroke="#008000" id="fig-134bf4fa5f6c4ab98bee073544c7f190-element-18">
        <path fill="none" d="M21.63,32.16 L 21.75 32.16 21.88 32.93 22 32.41 22.12 32.41 22.24 33.14 22.37 33.35 22.49 33.19 22.73 33.08 22.86 33.02 23.1 32.96 23.35 32.63 23.47 32.84 23.71 32.43 23.84 32.47 24.69 31.93 25.06 31.93 25.3 31.93 26.16 32.08 26.28 32.07 26.41 33.21 26.53 33.21 26.65 32.61 26.77 32.61 26.9 32.41 27.02 32.41 27.14 32.41 27.26 31.91 27.39 31.91 27.51 31.45 27.75 31.3 27.88 30.9 28 30.9 28.12 30.6 28.24 30.6 28.37 30.11 28.49 29.96 28.61 30.06 28.73 30.16 28.86 29.77 28.98 29.87 29.1 29.82 29.22 30.01 29.34 26.98 29.47 29.48 29.59 29.92 29.71 29.68 30.45 29.5 30.57 29.07 30.69 28.65 30.81 28.52 30.94 28.62 31.06 28.25 31.18 28.44 31.3 28.35 31.43 28.31 31.55 29.47 31.79 28.27 31.92 28.19 32.04 28 32.16 28.19 32.28 28 32.41 28 32.53 28.25 32.65 28.16 32.9 27.67 33.02 27.68 33.14 27.73 33.26 27.79 33.38 27.7 33.51 27.44 33.75 27.41 33.87 27.39 34 27.3 34.12 27.3 34.36 27.64 34.61 29.6 34.73 29.34 34.85 27.67 34.98 27.75 35.34 27.55 35.47 27.55 35.59 27.77 35.71 27.6 35.83 27.51 35.96 27.39 36.08 27.27 36.2 27.24 36.45 27.15 36.57 26.98 36.81 27.07 36.94 26.95 37.06 26.85 37.18 26.85 37.43 26.98 37.55 26.9 37.67 27 37.79 27.05 37.91 27.02 38.04 27.15 38.16 26.95 38.28 27.21 38.4 27.3 38.53 27.18 38.65 29.1 38.77 28.69 38.89 28.61 39.14 27.37 39.26 27.21 39.38 26.94 39.51 27.1 39.63 27.1 39.75 27 39.87 27.05 40 27.1 40.24 26.26 40.36 26.17 40.61 26.27 40.73 26.27 40.85 26.27 41.34 26.27 41.71 25.85 41.83 25.91 41.96 25.88 42.08 25.9 42.2 25.82 42.32 25.5 42.44 25.67 42.57 25.67 42.69 25.67 42.93 25.83 43.06 25.72 43.18 25.85 43.3 25.7 43.42 25.77 43.55 25.98 43.67 25.82 43.91 25.7 44.04 25.59 44.16 25.59 44.28 25.61 44.4 25.9 44.53 25.56 44.65 25.48 44.77 25.43 45.14 25.76 45.26 25.6 45.38 25.63 45.51 25.38 45.63 25.53 45.75 25.38 45.87 25.32 46 25.4 46.12 25.52 46.24 25.64 46.36 25.5 46.48 25.64 46.61 25.64 46.73 25.54 46.85 25.49 46.97 25.57 47.1 25.42 47.22 25.61 47.34 25.61 47.46 25.44 47.59 25.51 47.71 25.61 47.83 25.51 47.95 25.51 48.08 25.56 48.2 25.41 48.32 25.27 48.44 25.39 48.57 25.31 48.69 25.51 49.06 25.36 49.67 25.31 49.79 25.4 49.91 25.4 50.04 25.45 50.16 25.31 50.28 25.16 50.4 25.16 50.89 25.12 51.01 25.12 51.63 25.23 51.87 25.23 51.99 25.83 52.12 25.39 52.24 25.18 52.36 25.05 52.48 25 52.61 25.11 52.97 25.34 53.1 25.32 53.34 25.38 53.46 25.56 53.59 25.23 53.95 25.23 54.2 25.04 54.57 25.07 55.06 25.09 55.3 24.96 55.67 25.13 56.52 25.19 57.01 25.11 57.14 25.06 57.26 25.06 57.38 25.52 57.5 25.71 57.63 25.71 57.87 25.59 57.99 25.54 58.12 25.54 58.24 25.6 58.36 25.77 58.48 25.45 58.61 25.45 58.85 25.45 58.97 25.41 59.1 25.33 59.58 25.52 59.71 25.44 59.83 25.63 60.07 25.2 60.32 25.2 60.44 25.26 60.81 25.34 61.42 25.34 62.03 25.1 62.65 27.02 62.77 26.72 62.89 26.25 63.01 25.97 63.14 25.68 63.38 25.8 63.63 25.74 64.11 25.93 64.24 25.89 64.36 25.63 64.48 25.75 64.6 25.65 64.73 25.73 64.85 25.63 66.32 25.73 66.56 25.67 66.69 25.66 66.93 25.44 67.42 25.42 67.67 25.36 67.91 25.64 68.4 25.47 68.64 25.54 68.77 25.13 69.01 25.03 69.13 25.2 69.26 25.13 69.38 25.13 69.5 25.18 69.62 24.94 69.87 25.09 69.99 25.07 70.24 24.9 70.48 24.98 70.6 25.14 70.73 25.01 70.97 24.98 71.09 25.12 71.71 25.21 72.2 25.07 72.32 25.08 73.3 25.17 73.42 25.23 73.54 25.28 73.91 24.96 74.03 24.94 74.15 24.92 74.4 25.1 74.64 25.05 74.89 25.03 75.99 24.79"/>
      </g>
    </g>
  </g>
  <g class="guide ylabels" font-size="2.82" font-family="'PT Sans Caption','Helvetica Neue','Helvetica',sans-serif" fill="#6C606B" id="fig-134bf4fa5f6c4ab98bee073544c7f190-element-19">
    <text x="18.63" y="45.71" text-anchor="end" dy="0.35em">0</text>
    <text x="18.63" y="30.16" text-anchor="end" dy="0.35em">50</text>
    <text x="18.63" y="14.61" text-anchor="end" dy="0.35em">100</text>
  </g>
  <g font-size="3.88" font-family="'PT Sans','Helvetica Neue','Helvetica',sans-serif" fill="#564A55" stroke="#000000" stroke-opacity="0.000" id="fig-134bf4fa5f6c4ab98bee073544c7f190-element-20">
    <text x="8.81" y="28.16" text-anchor="middle" dy="0.35em" transform="rotate(-90, 8.81, 30.16)">Percentage of Packages</text>
  </g>
  <g font-size="3.88" font-family="'PT Sans','Helvetica Neue','Helvetica',sans-serif" fill="#564A55" stroke="#000000" stroke-opacity="0.000" id="fig-134bf4fa5f6c4ab98bee073544c7f190-element-21">
    <text x="58.12" y="10.61" text-anchor="middle">Julia v0.3 (relative)</text>
  </g>
</g>
<defs>
<clipPath id="fig-134bf4fa5f6c4ab98bee073544c7f190-element-5">
  <path d="M19.63,12.61 L 96.6 12.61 96.6 47.71 19.63 47.71" />
</clipPath
></defs>
</svg>
