<?xml version="1.0" encoding="UTF-8"?>
<svg xmlns="http://www.w3.org/2000/svg"
     xmlns:xlink="http://www.w3.org/1999/xlink"
     xmlns:gadfly="http://www.gadflyjl.org/ns"
     version="1.2"
     width="101.6mm" height="76.2mm" viewBox="0 0 101.6 76.2"
     stroke="none"
     fill="#000000"
     stroke-width="0.3"
     font-size="3.88"
>
<g class="plotroot xscalable yscalable" id="img-543b658b-1">
  <g font-size="3.88" font-family="'PT Sans','Helvetica Neue','Helvetica',sans-serif" fill="#564A55" stroke="#000000" stroke-opacity="0.000" id="img-543b658b-2">
    <text x="58.12" y="64.59" text-anchor="middle" dy="0.6em">Date</text>
  </g>
  <g class="guide xlabels" font-size="2.82" font-family="'PT Sans Caption','Helvetica Neue','Helvetica',sans-serif" fill="#6C606B" id="img-543b658b-3">
    <text x="21.87" y="48.71" text-anchor="end" dy="0.35em" transform="rotate(-90, 21.87, 48.71)">Apr</text>
    <text x="25.48" y="48.71" text-anchor="end" dy="0.35em" transform="rotate(-90, 25.48, 48.71)">May</text>
    <text x="29.22" y="48.71" text-anchor="end" dy="0.35em" transform="rotate(-90, 29.22, 48.71)">Jun</text>
    <text x="32.83" y="48.71" text-anchor="end" dy="0.35em" transform="rotate(-90, 32.83, 48.71)">Jul</text>
    <text x="36.56" y="48.71" text-anchor="end" dy="0.35em" transform="rotate(-90, 36.56, 48.71)">Aug</text>
    <text x="40.3" y="48.71" text-anchor="end" dy="0.35em" transform="rotate(-90, 40.3, 48.71)">Sep</text>
    <text x="43.91" y="48.71" text-anchor="end" dy="0.35em" transform="rotate(-90, 43.91, 48.71)">Oct</text>
    <text x="47.64" y="48.71" text-anchor="end" dy="0.35em" transform="rotate(-90, 47.64, 48.71)">Nov</text>
    <text x="51.25" y="48.71" text-anchor="end" dy="0.35em" transform="rotate(-90, 51.25, 48.71)">Dec</text>
    <text x="54.99" y="48.71" text-anchor="end" dy="0.35em" transform="rotate(-90, 54.99, 48.71)">Jan 2015</text>
    <text x="58.72" y="48.71" text-anchor="end" dy="0.35em" transform="rotate(-90, 58.72, 48.71)">Feb</text>
    <text x="62.09" y="48.71" text-anchor="end" dy="0.35em" transform="rotate(-90, 62.09, 48.71)">Mar</text>
    <text x="65.82" y="48.71" text-anchor="end" dy="0.35em" transform="rotate(-90, 65.82, 48.71)">Apr</text>
    <text x="69.43" y="48.71" text-anchor="end" dy="0.35em" transform="rotate(-90, 69.43, 48.71)">May</text>
    <text x="73.17" y="48.71" text-anchor="end" dy="0.35em" transform="rotate(-90, 73.17, 48.71)">Jun</text>
    <text x="76.78" y="48.71" text-anchor="end" dy="0.35em" transform="rotate(-90, 76.78, 48.71)">Jul</text>
    <text x="80.51" y="48.71" text-anchor="end" dy="0.35em" transform="rotate(-90, 80.51, 48.71)">Aug</text>
    <text x="84.24" y="48.71" text-anchor="end" dy="0.35em" transform="rotate(-90, 84.24, 48.71)">Sep</text>
    <text x="87.86" y="48.71" text-anchor="end" dy="0.35em" transform="rotate(-90, 87.86, 48.71)">Oct</text>
    <text x="91.59" y="48.71" text-anchor="end" dy="0.35em" transform="rotate(-90, 91.59, 48.71)">Nov</text>
  </g>
<g clip-path="url(#img-543b658b-4)">
  <g id="img-543b658b-5">
    <g pointer-events="visible" opacity="1" fill="#000000" fill-opacity="0.000" stroke="#000000" stroke-opacity="0.000" class="guide background" id="img-543b658b-6">
      <rect x="19.63" y="12.61" width="76.97" height="35.1"/>
    </g>
    <g class="guide ygridlines xfixed" stroke-dasharray="0.5,0.5" stroke-width="0.2" stroke="#D0D0E0" id="img-543b658b-7">
      <path fill="none" d="M19.63,45.71 L 96.6 45.71"/>
      <path fill="none" d="M19.63,30.16 L 96.6 30.16"/>
      <path fill="none" d="M19.63,14.61 L 96.6 14.61"/>
    </g>
    <g class="guide xgridlines yfixed" stroke-dasharray="0.5,0.5" stroke-width="0.2" stroke="#D0D0E0" id="img-543b658b-8">
      <path fill="none" d="M21.87,12.61 L 21.87 47.71"/>
      <path fill="none" d="M25.48,12.61 L 25.48 47.71"/>
      <path fill="none" d="M29.22,12.61 L 29.22 47.71"/>
      <path fill="none" d="M32.83,12.61 L 32.83 47.71"/>
      <path fill="none" d="M36.56,12.61 L 36.56 47.71"/>
      <path fill="none" d="M40.3,12.61 L 40.3 47.71"/>
      <path fill="none" d="M43.91,12.61 L 43.91 47.71"/>
      <path fill="none" d="M47.64,12.61 L 47.64 47.71"/>
      <path fill="none" d="M51.25,12.61 L 51.25 47.71"/>
      <path fill="none" d="M54.99,12.61 L 54.99 47.71"/>
      <path fill="none" d="M58.72,12.61 L 58.72 47.71"/>
      <path fill="none" d="M62.09,12.61 L 62.09 47.71"/>
      <path fill="none" d="M65.82,12.61 L 65.82 47.71"/>
      <path fill="none" d="M69.43,12.61 L 69.43 47.71"/>
      <path fill="none" d="M73.17,12.61 L 73.17 47.71"/>
      <path fill="none" d="M76.78,12.61 L 76.78 47.71"/>
      <path fill="none" d="M80.51,12.61 L 80.51 47.71"/>
      <path fill="none" d="M84.24,12.61 L 84.24 47.71"/>
      <path fill="none" d="M87.86,12.61 L 87.86 47.71"/>
      <path fill="none" d="M91.59,12.61 L 91.59 47.71"/>
    </g>
    <g class="plotpanel" id="img-543b658b-9">
      <g stroke-width="0.3" fill="#000000" fill-opacity="0.000" class="geometry color_newnot_possible" stroke-dasharray="none" stroke="#808080" id="img-543b658b-10">
        <path fill="none" d="M75.45,42.94 L 75.58 42.94 75.7 42.95 75.82 42.95 75.94 42.96 76.06 42.96 76.18 42.96 76.3 42.96 76.66 42.96 76.9 42.97 77.14 43.02 77.26 42.98 77.38 42.99 77.5 43 77.62 43.01 77.74 43.01 79.79 43.02 80.75 43.04 81.84 43.06 83.88 43.12 84.24 43.12 84.85 42.99 85.45 42.85 87.38 42.89 87.86 42.92 88.46 42.93 88.94 42.94 89.42 42.94 89.78 42.91 91.23 42.91 92.67 42.87 93.16 42.86 93.4 42.82 94.48 42.82 94.6 42.82"/>
      </g>
      <g stroke-width="0.3" fill="#000000" fill-opacity="0.000" class="geometry color_newno_tests" stroke-dasharray="none" stroke="#0000FF" id="img-543b658b-11">
        <path fill="none" d="M75.45,40.12 L 75.58 40.12 75.7 40.13 75.82 40.13 75.94 40.15 76.06 40.15 76.18 40.15 76.3 40.16 76.66 40.16 76.9 40.18 77.14 40.17 77.26 40.19 77.38 40.28 77.5 40.3 77.62 40.3 77.74 40.36 79.79 40.43 80.75 40.47 81.84 40.51 83.88 40.62 84.24 40.69 84.85 40.69 85.45 40.76 87.38 40.97 87.86 41.15 88.46 41.27 88.94 41.27 89.42 41.29 89.78 41.34 91.23 41.4 92.67 41.49 93.16 41.48 93.4 41.49 94.48 41.49 94.6 41.49"/>
      </g>
      <g stroke-width="0.3" fill="#000000" fill-opacity="0.000" class="geometry color_newtests_fail" stroke-dasharray="none" stroke="#FF0000" id="img-543b658b-12">
        <path fill="none" d="M75.45,42.78 L 75.58 42.62 75.7 42.58 75.82 42.53 75.94 42.44 76.06 42.59 76.18 42.39 76.3 42.55 76.66 42.44 76.9 42.4 77.14 42.35 77.26 42.51 77.38 40.89 77.5 42.44 77.62 42.14 77.74 42.19 79.79 42.47 80.75 42.54 81.84 42.18 83.88 41.44 84.24 41.69 84.85 41.98 85.45 42.23 87.38 42.24 87.86 42.03 88.46 42.24 88.94 42.29 89.42 42.16 89.78 42.17 91.23 42.08 92.67 42 93.16 42.31 93.4 42.32 94.48 42.37 94.6 42.32"/>
      </g>
      <g stroke-width="0.3" fill="#000000" fill-opacity="0.000" class="geometry color_newtests_pass" stroke-dasharray="none" stroke="#008000" id="img-543b658b-13">
        <path fill="none" d="M75.45,25.9 L 75.58 26.06 75.7 26.07 75.82 26.12 75.94 26.19 76.06 26.03 76.18 26.24 76.3 26.07 76.66 26.17 76.9 26.18 77.14 26.2 77.26 26.06 77.38 27.57 77.5 26 77.62 26.29 77.74 26.18 79.79 25.82 80.75 25.69 81.84 25.99 83.88 26.56 84.24 26.24 84.85 26.08 85.45 25.9 87.38 25.63 87.86 25.64 88.46 25.3 88.94 25.24 89.42 25.35 89.78 25.31 91.23 25.34 92.67 25.37 93.16 25.08 93.4 25.1 94.48 25.05 94.6 25.1"/>
      </g>
      <g stroke-width="0.3" fill="#000000" fill-opacity="0.000" class="geometry color_newnot_possible" stroke-dasharray="none" stroke="#808080" id="img-543b658b-14">
        <path fill="none" d="M21.63,42.35 L 21.75 42.35 21.87 42.36 21.99 42.36 22.11 42.36 22.23 42.36 22.35 42.36 22.47 42.37 22.72 42.37 22.84 42.38 23.08 42.39 23.32 42.41 23.44 42.41 23.68 42.41 23.8 42.42 24.64 42.47 25 42.47 25.24 42.47 26.09 42.58 26.21 42.6 26.33 42.61 26.45 42.61 26.57 42.61 26.69 42.51 26.81 42.51 26.93 42.51 27.05 42.51 27.17 42.31 27.29 42.31 27.41 42.34 27.65 42.25 27.77 42.94 27.89 42.94 28.01 42.96 28.13 42.96 28.25 42.96 28.37 42.97 28.5 42.97 28.62 42.97 28.74 42.97 28.86 42.97 28.98 42.98 29.1 42.98 29.22 42.59 29.34 42.99 29.46 43 29.58 43 30.3 42.58 30.42 42.49 30.54 42.5 30.66 42.51 30.78 42.53 30.9 42.44 31.02 42.27 31.14 42.27 31.26 42.28 31.38 42.29 31.63 42.29 31.75 42.31 31.87 42.31 31.99 42.31 32.11 42.31 32.23 42.31 32.35 42.34 32.47 42.34 32.71 42.35 32.83 42.37 32.95 42.38 33.07 42.39 33.19 42.39 33.31 42.41 33.55 42.42 33.67 42.45 33.79 42.45 33.91 42.45 34.15 42.49 34.4 42.52 34.52 42.52 34.64 42.53 34.76 42.53 35.12 42.54 35.24 42.54 35.36 42.55 35.48 42.55 35.6 42.55 35.72 42.56 35.84 42.48 35.96 42.49 36.2 42.49 36.32 42.49 36.56 42.49 36.68 42.5 36.8 42.52 36.92 42.52 37.16 42.53 37.28 42.53 37.41 42.55 37.53 42.56 37.65 42.57 37.77 42.57 37.89 42.58 38.01 42.6 38.13 42.52 38.25 42.44 38.37 42.45 38.49 42.45 38.61 42.45 38.85 42.48 38.97 42.48 39.09 42.49 39.21 42.49 39.33 42.49 39.45 42.51 39.57 42.52 39.69 42.53 39.93 42.43 40.05 42.37 40.3 42.39 40.42 42.39 40.54 42.31 41.02 42.31 41.38 42.36 41.5 42.37 41.62 42.38 41.74 42.39 41.86 42.39 41.98 42.39 42.1 42.46 42.22 42.46 42.34 42.46 42.58 42.38 42.7 42.39 42.82 42.4 42.94 42.4 43.06 42.4 43.19 42.41 43.31 42.33 43.55 42.32 43.67 42.33 43.79 42.33 43.91 42.35 44.03 42.29 44.15 42.29 44.27 42.29 44.39 42.3 44.75 42.32 44.87 42.24 44.99 42.26 45.11 42.27 45.23 42.27 45.35 42.27 45.47 42.29 45.59 42.29 45.71 42.29 45.83 42.3 45.95 42.23 46.07 42.23 46.2 42.23 46.32 42.24 46.44 42.25 46.56 42.25 46.68 42.25 46.8 42.26 46.92 42.26 47.04 42.27 47.16 42.27 47.28 42.29 47.4 42.29 47.52 42.29 47.64 42.3 47.76 42.3 47.88 42.3 48 42.31 48.12 42.31 48.24 42.32 48.6 42.32 49.21 42.36 49.33 42.37 49.45 42.37 49.57 42.38 49.69 42.38 49.81 42.4 49.93 42.4 50.41 42.44 50.53 42.44 51.13 42.45 51.37 42.45 51.49 42.52 51.61 42.53 51.73 42.53 51.85 42.53 51.97 42.54 52.1 42.55 52.46 42.56 52.58 42.57 52.82 42.59 52.94 42.6 53.06 42.6 53.42 42.6 53.66 42.61 54.02 42.63 54.5 42.64 54.74 42.66 55.11 42.68 55.95 42.72 56.43 42.77 56.55 42.65 56.67 42.65 56.79 42.62 56.91 42.62 57.03 42.62 57.27 42.62 57.39 42.63 57.51 42.63 57.63 42.65 57.75 42.65 57.88 42.65 58 42.65 58.24 42.61 58.36 42.62 58.48 42.63 58.96 42.68 59.08 42.67 59.2 42.67 59.44 42.68 59.68 42.7 59.8 42.7 60.16 42.71 60.76 42.71 61.37 42.75 61.97 42.77 62.09 42.77 62.21 42.77 62.33 42.37 62.45 42.43 62.69 42.37 62.93 42.37 63.41 42.38 63.53 42.4 63.65 42.4 63.78 42.4 63.9 42.41 64.02 42.47 64.14 42.42 65.58 42.37 65.82 42.31 65.94 42.33 66.18 42.33 66.66 42.34 66.91 42.34 67.15 42.35 67.63 42.35 67.87 42.37 67.99 42.37 68.23 42.4 68.35 42.4 68.47 42.41 68.59 42.43 68.71 42.43 68.83 42.43 69.07 42.44 69.19 42.44 69.43 42.44 69.68 42.46 69.8 42.47 69.92 42.48 70.16 42.49 70.28 42.5 70.88 42.52 71.36 42.58 71.48 42.54 72.44 42.56 72.57 42.45 72.69 42.45 73.05 42.47 73.17 42.48 73.29 42.54 73.53 42.55 73.77 42.55 74.01 42.55 75.09 42.58"/>
      </g>
      <g stroke-width="0.3" fill="#000000" fill-opacity="0.000" class="geometry color_newtests_fail" stroke-dasharray="none" stroke="#FF0000" id="img-543b658b-15">
        <path fill="none" d="M21.63,41.51 L 21.75 41.51 21.87 39.95 21.99 41.62 22.11 41.52 22.23 39.84 22.35 39.84 22.47 39.86 22.72 41.53 22.84 41.55 23.08 41.67 23.32 41.69 23.44 41.69 23.68 41.8 23.8 41.81 24.64 41.96 25 41.96 25.24 41.96 26.09 41.87 26.21 42 26.33 41.81 26.45 41.81 26.57 41.91 26.69 42.01 26.81 41.91 26.93 41.91 27.05 41.91 27.17 42.01 27.29 42.01 27.41 41.85 27.65 41.96 27.77 41.76 27.89 41.96 28.01 42.18 28.13 42.18 28.25 42.27 28.37 42.29 28.5 42.19 28.62 42.29 28.74 42.29 28.86 42.29 28.98 42.39 29.1 42.39 29.22 42.81 29.34 42.79 29.46 42.8 29.58 42.81 30.3 43.43 30.42 43.53 30.54 43.54 30.66 43.55 30.78 43.47 30.9 43.56 31.02 43.57 31.14 43.57 31.26 43.49 31.38 41.74 31.63 43.49 31.75 43.6 31.87 43.6 31.99 43.6 32.11 43.6 32.23 43.6 32.35 43.62 32.47 43.62 32.71 43.62 32.83 43.64 32.95 43.55 33.07 43.56 33.19 43.56 33.31 43.57 33.55 43.58 33.67 43.42 33.79 43.42 33.91 43.42 34.15 43.28 34.4 41.57 34.52 41.49 34.64 43.3 34.76 43.22 35.12 43.4 35.24 43.4 35.36 43.4 35.48 43.4 35.6 43.49 35.72 43.58 35.84 43.58 35.96 43.59 36.2 43.59 36.32 43.67 36.56 43.59 36.68 43.68 36.8 43.7 36.92 43.7 37.16 43.7 37.28 43.7 37.41 43.55 37.53 43.64 37.65 43.64 37.77 43.56 37.89 43.57 38.01 43.42 38.13 43.5 38.25 43.67 38.37 41.39 38.49 41.88 38.61 41.88 38.85 43.77 38.97 43.85 39.09 43.77 39.21 43.86 39.33 43.77 39.45 43.79 39.57 43.95 39.69 43.72 39.93 43.99 40.05 44.08 40.3 43.93 40.42 43.93 40.54 44.01 41.02 44.01 41.38 44.43 41.5 44.44 41.62 44.44 41.74 44.52 41.86 44.6 41.98 44.6 42.1 44.63 42.22 44.63 42.34 44.63 42.58 44.47 42.7 44.47 42.82 44.4 42.94 44.48 43.06 44.4 43.19 44.25 43.31 44.33 43.55 44.4 43.67 44.48 43.79 44.48 43.91 44.41 44.03 44.4 44.15 44.42 44.27 44.49 44.39 44.5 44.75 44.5 44.87 44.5 44.99 44.51 45.11 44.59 45.23 44.59 45.35 44.59 45.47 44.59 45.59 44.59 45.71 44.45 45.83 44.38 45.95 44.38 46.07 44.23 46.2 44.38 46.32 44.38 46.44 44.39 46.56 44.39 46.68 44.39 46.8 44.31 46.92 44.39 47.04 44.32 47.16 44.39 47.28 44.32 47.4 44.4 47.52 44.4 47.64 44.4 47.76 44.48 47.88 44.48 48 44.55 48.12 44.55 48.24 44.34 48.6 44.63 49.21 44.57 49.33 44.57 49.45 44.57 49.57 44.65 49.69 44.72 49.81 44.58 49.93 44.58 50.41 44.53 50.53 44.6 51.13 44.6 51.37 44.6 51.49 44.18 51.61 44.4 51.73 44.6 51.85 44.6 51.97 44.61 52.1 44.54 52.46 44.48 52.58 44.48 52.82 44.42 52.94 44.49 53.06 44.49 53.42 44.49 53.66 44.56 54.02 44.57 54.5 44.57 54.74 44.58 55.11 44.59 55.95 44.54 56.43 44.43 56.55 44.56 56.67 44.56 56.79 44.32 56.91 44.32 57.03 44.38 57.27 44.38 57.39 44.33 57.51 44.33 57.63 44.27 57.75 44.34 57.88 44.34 58 44.34 58.24 44.35 58.36 44.35 58.48 44.35 58.96 44.19 59.08 44.19 59.2 44.19 59.44 44.14 59.68 44.08 59.8 44.08 60.16 44.09 60.76 44.09 61.37 44.17 61.97 42.48 62.09 43.06 62.21 43.47 62.33 44.19 62.45 44.19 62.69 44.19 62.93 44.19 63.41 44.19 63.53 44.14 63.65 44.14 63.78 44.14 63.9 44.15 64.02 44.14 64.14 44.09 65.58 44.04 65.82 44.1 65.94 44.22 66.18 44.22 66.66 44.11 66.91 44.22 67.15 44.17 67.63 44.17 67.87 44.18 67.99 44.13 68.23 44.03 68.35 44.03 68.47 44.03 68.59 44.1 68.71 43.98 68.83 43.99 69.07 43.99 69.19 44.05 69.43 43.99 69.68 44 69.8 43.9 69.92 43.9 70.16 43.96 70.28 43.91 70.88 43.87 71.36 43.77 71.48 43.77 72.44 43.57 72.57 43.57 72.69 43.57 73.05 43.59 73.17 43.59 73.29 43.65 73.53 43.71 73.77 43.65 74.01 43.66 75.09 43.78"/>
      </g>
      <g stroke-width="0.3" fill="#000000" fill-opacity="0.000" class="geometry color_newno_tests" stroke-dasharray="none" stroke="#0000FF" id="img-543b658b-16">
        <path fill="none" d="M21.63,40.04 L 21.75 40.04 21.87 40.05 21.99 40.05 22.11 40.05 22.23 40.16 22.35 40.16 22.47 40.07 22.72 39.97 22.84 39.99 23.08 40.01 23.32 39.84 23.44 39.84 23.68 39.84 23.8 39.86 24.64 39.93 25 39.93 25.24 39.93 26.09 39.85 26.21 39.89 26.33 39.91 26.45 39.91 26.57 39.91 26.69 39.91 26.81 39.91 26.93 39.91 27.05 39.91 27.17 40.11 27.29 40.11 27.41 40.16 27.65 40.28 27.77 40.28 27.89 40.28 28.01 40.21 28.13 40.21 28.25 40.41 28.37 40.53 28.5 40.53 28.62 40.53 28.74 40.53 28.86 40.53 28.98 40.54 29.1 40.54 29.22 39.36 29.34 40.27 29.46 40.28 29.58 40.3 30.3 40.4 30.42 40.42 30.54 40.43 30.66 40.54 30.78 40.57 30.9 40.57 31.02 40.6 31.14 40.7 31.26 40.71 31.38 41 31.63 40.91 31.75 40.75 31.87 40.75 31.99 40.75 32.11 40.75 32.23 40.75 32.35 40.8 32.47 40.8 32.71 40.9 32.83 40.84 32.95 40.86 33.07 40.87 33.19 41.05 33.31 41.08 33.55 41.09 33.67 41.13 33.79 41.13 33.91 41.13 34.15 41.02 34.4 41.32 34.52 41.23 34.64 41.16 34.76 41.16 35.12 41.17 35.24 41.17 35.36 41.18 35.48 41.18 35.6 41.27 35.72 41.28 35.84 41.29 35.96 41.39 36.2 41.39 36.32 41.39 36.56 41.39 36.68 41.4 36.8 41.43 36.92 41.43 37.16 41.28 37.28 41.36 37.41 41.38 37.53 41.31 37.65 41.33 37.77 41.34 37.89 41.35 38.01 41.37 38.13 41.37 38.25 41.38 38.37 41.88 38.49 41.88 38.61 41.88 38.85 41.35 38.97 41.35 39.09 41.44 39.21 41.44 39.33 41.52 39.45 41.47 39.57 41.48 39.69 41.57 39.93 41.93 40.05 42.05 40.3 42.06 40.42 42.06 40.54 42.06 41.02 42.06 41.38 42.04 41.5 42.05 41.62 41.98 41.74 42 41.86 42 41.98 42.08 42.1 42.15 42.22 42.23 42.34 42.23 42.58 42.23 42.7 42.16 42.82 42.17 42.94 42.17 43.06 42.17 43.19 42.25 43.31 42.25 43.55 42.17 43.67 42.18 43.79 42.18 43.91 42.19 44.03 42.07 44.15 42.21 44.27 42.21 44.39 42.23 44.75 42.32 44.87 42.32 44.99 42.26 45.11 42.27 45.23 42.27 45.35 42.27 45.47 42.29 45.59 42.29 45.71 42.29 45.83 42.3 45.95 42.3 46.07 42.38 46.2 42.3 46.32 42.31 46.44 42.33 46.56 42.33 46.68 42.33 46.8 42.41 46.92 42.33 47.04 42.42 47.16 42.34 47.28 42.36 47.4 42.37 47.52 42.37 47.64 42.37 47.76 42.37 47.88 42.37 48 42.38 48.12 42.38 48.24 42.39 48.6 42.39 49.21 42.43 49.33 42.44 49.45 42.44 49.57 42.45 49.69 42.45 49.81 42.47 49.93 42.47 50.41 42.58 50.53 42.51 51.13 42.52 51.37 42.52 51.49 42.52 51.61 42.6 51.73 42.53 51.85 42.53 51.97 42.54 52.1 42.62 52.46 42.56 52.58 42.57 52.82 42.59 52.94 42.53 53.06 42.53 53.42 42.6 53.66 42.54 54.02 42.56 54.5 42.64 54.74 42.59 55.11 42.62 55.95 42.66 56.43 42.7 56.55 42.71 56.67 42.71 56.79 42.81 56.91 42.74 57.03 42.74 57.27 42.74 57.39 42.82 57.51 42.82 57.63 42.84 57.75 42.78 57.88 42.78 58 42.78 58.24 42.8 58.36 42.81 58.48 42.81 58.96 42.86 59.08 42.85 59.2 42.85 59.44 42.86 59.68 42.88 59.8 42.88 60.16 42.89 60.76 42.89 61.37 42.92 61.97 43.12 62.09 43.06 62.21 43.06 62.33 43.07 62.45 43.01 62.69 43.01 62.93 43.01 63.41 43.02 63.53 43.03 63.65 43.1 63.78 43.1 63.9 43.11 64.02 43.1 64.14 43.11 65.58 43.17 65.82 43.17 65.94 43.19 66.18 43.25 66.66 43.25 66.91 43.25 67.15 43.26 67.63 43.26 67.87 43.27 67.99 43.28 68.23 43.3 68.35 43.3 68.47 43.3 68.59 43.32 68.71 43.32 68.83 43.32 69.07 43.32 69.19 43.33 69.43 43.38 69.68 43.34 69.8 43.35 69.92 43.35 70.16 43.42 70.28 43.37 70.88 43.44 71.36 43.44 71.48 43.45 72.44 43.47 72.57 43.47 72.69 43.47 73.05 43.53 73.17 43.54 73.29 43.49 73.53 43.49 73.77 43.49 74.01 43.55 75.09 43.52"/>
      </g>
      <g stroke-width="0.3" fill="#000000" fill-opacity="0.000" class="geometry color_oldfull_fail" stroke-dasharray="none" stroke="#FFA500" id="img-543b658b-17">
        <path fill="none" d="M21.63,41.4 L 21.75 41.4 21.87 42.15 21.99 41 22.11 41.1 22.23 41.94 22.35 41.73 22.47 41.95 22.72 40.49 22.84 40.51 23.08 40.42 23.32 40.87 23.44 40.66 23.68 40.97 23.8 40.88 24.64 41.15 25 41.15 25.24 41.15 26.09 41.06 26.21 40.89 26.33 39.91 26.45 39.91 26.57 40.41 26.69 40.41 26.81 40.71 26.93 40.71 27.05 40.71 27.17 41.11 27.29 41.11 27.41 41.65 27.65 41.66 27.77 41.56 27.89 41.36 28.01 41.49 28.13 41.49 28.25 41.69 28.37 41.7 28.5 41.7 28.62 41.5 28.74 41.89 28.86 41.8 28.98 41.71 29.1 41.52 29.22 45.71 29.34 41.92 29.46 41.45 29.58 41.65 30.3 41.54 30.42 41.93 30.54 42.32 30.66 42.33 30.78 42.25 30.9 42.63 31.02 42.55 31.14 42.55 31.26 42.65 31.38 42.94 31.63 42.48 31.75 42.59 31.87 42.77 31.99 42.59 32.11 42.77 32.23 42.77 32.35 42.44 32.47 42.53 32.71 42.9 32.83 42.91 32.95 42.92 33.07 42.84 33.19 42.75 33.31 42.95 33.55 42.95 33.67 43.07 33.79 43.15 33.91 43.15 34.15 43.02 34.4 42.44 34.52 42.87 34.64 42.79 34.76 42.79 35.12 42.8 35.24 42.8 35.36 42.55 35.48 42.72 35.6 42.63 35.72 42.64 35.84 42.82 35.96 42.74 36.2 42.83 36.32 42.91 36.56 42.91 36.68 42.92 36.8 42.94 36.92 42.94 37.16 42.95 37.28 42.95 37.41 42.96 37.53 42.89 37.65 42.9 37.77 42.82 37.89 42.99 38.01 42.84 38.13 42.76 38.25 42.77 38.37 42.61 38.49 42.53 38.61 42.61 38.85 42.48 38.97 42.56 39.09 42.81 39.21 42.57 39.33 42.57 39.45 42.67 39.57 42.44 39.69 42.53 39.93 42.84 40.05 42.78 40.3 42.79 40.42 42.79 40.54 42.79 41.02 42.79 41.38 42.76 41.5 42.69 41.62 42.77 41.74 42.63 41.86 42.63 41.98 42.87 42.1 42.54 42.22 42.46 42.34 42.46 42.58 42.54 42.7 42.7 42.82 42.63 42.94 42.71 43.06 42.71 43.19 42.56 43.31 42.71 43.55 42.86 43.67 42.87 43.79 42.87 43.91 42.88 44.03 42.8 44.15 42.97 44.27 42.97 44.39 42.98 44.75 42.55 44.87 42.77 44.99 42.79 45.11 42.94 45.23 42.79 45.35 42.94 45.47 42.96 45.59 42.88 45.71 42.89 45.83 42.82 45.95 43.04 46.07 42.97 46.2 42.89 46.32 42.98 46.44 42.99 46.56 42.91 46.68 43.06 46.8 42.85 46.92 42.85 47.04 43 47.16 42.93 47.28 42.87 47.4 42.87 47.52 42.87 47.64 42.81 47.76 42.88 47.88 43.03 48 42.82 48.12 42.89 48.24 42.89 48.6 42.75 49.21 42.78 49.33 42.66 49.45 42.66 49.57 42.52 49.69 42.59 49.81 42.82 49.93 42.82 50.41 42.79 50.53 42.79 51.13 42.65 51.37 42.65 51.49 42.38 51.61 42.53 51.73 42.6 51.85 42.74 51.97 42.75 52.1 42.62 52.46 42.5 52.58 42.5 52.82 42.46 52.94 42.26 53.06 42.6 53.42 42.53 53.66 42.68 54.02 42.63 54.5 42.51 54.74 42.66 55.11 42.42 55.95 42.33 56.43 42.45 56.55 42.46 56.67 42.46 56.79 42.18 56.91 42.05 57.03 41.99 57.27 42.11 57.39 42.13 57.51 42.13 57.63 42.09 57.75 41.91 57.88 42.22 58 42.22 58.24 42.24 58.36 42.25 58.48 42.32 58.96 42.19 59.08 42.3 59.2 42.12 59.44 42.56 59.68 42.58 59.8 42.52 60.16 42.41 60.76 42.41 61.37 42.51 61.97 42.06 62.09 41.83 62.21 41.89 62.33 41.84 62.45 42.14 62.69 42.08 62.93 42.14 63.41 41.92 63.53 41.99 63.65 42.17 63.78 42.05 63.9 42.12 64.02 42 64.14 42.19 65.58 42.14 65.82 42.2 65.94 42.04 66.18 42.21 66.66 42.34 66.91 42.28 67.15 42.01 67.63 42.18 67.87 42.08 67.99 42.54 68.23 42.68 68.35 42.51 68.47 42.58 68.59 42.48 68.71 42.54 68.83 42.77 69.07 42.6 69.19 42.55 69.43 42.72 69.68 42.68 69.8 42.58 69.92 42.7 70.16 42.6 70.28 42.55 70.88 42.41 71.36 42.58 71.48 42.59 72.44 42.67 72.57 42.72 72.69 42.67 73.05 42.9 73.17 42.9 73.29 42.85 73.53 42.6 73.77 42.7 74.01 42.66 75.09 42.79"/>
      </g>
      <g stroke-width="0.3" fill="#000000" fill-opacity="0.000" class="geometry color_newtests_pass" stroke-dasharray="none" stroke="#008000" id="img-543b658b-18">
        <path fill="none" d="M21.63,32.16 L 21.75 32.16 21.87 32.93 21.99 32.41 22.11 32.41 22.23 33.14 22.35 33.35 22.47 33.19 22.72 33.08 22.84 33.02 23.08 32.96 23.32 32.63 23.44 32.84 23.68 32.43 23.8 32.47 24.64 31.93 25 31.93 25.24 31.93 26.09 32.08 26.21 32.07 26.33 33.21 26.45 33.21 26.57 32.61 26.69 32.61 26.81 32.41 26.93 32.41 27.05 32.41 27.17 31.91 27.29 31.91 27.41 31.45 27.65 31.3 27.77 30.9 27.89 30.9 28.01 30.6 28.13 30.6 28.25 30.11 28.37 29.96 28.5 30.06 28.62 30.16 28.74 29.77 28.86 29.87 28.98 29.82 29.1 30.01 29.22 26.98 29.34 29.48 29.46 29.92 29.58 29.68 30.3 29.5 30.42 29.07 30.54 28.65 30.66 28.52 30.78 28.62 30.9 28.25 31.02 28.44 31.14 28.35 31.26 28.31 31.38 29.47 31.63 28.27 31.75 28.19 31.87 28 31.99 28.19 32.11 28 32.23 28 32.35 28.25 32.47 28.16 32.71 27.67 32.83 27.68 32.95 27.73 33.07 27.79 33.19 27.7 33.31 27.44 33.55 27.41 33.67 27.39 33.79 27.3 33.91 27.3 34.15 27.64 34.4 29.6 34.52 29.34 34.64 27.67 34.76 27.75 35.12 27.55 35.24 27.55 35.36 27.77 35.48 27.6 35.6 27.51 35.72 27.39 35.84 27.27 35.96 27.24 36.2 27.15 36.32 26.98 36.56 27.07 36.68 26.95 36.8 26.85 36.92 26.85 37.16 26.98 37.28 26.9 37.41 27 37.53 27.05 37.65 27.02 37.77 27.15 37.89 26.95 38.01 27.21 38.13 27.3 38.25 27.18 38.37 29.1 38.49 28.69 38.61 28.61 38.85 27.37 38.97 27.21 39.09 26.94 39.21 27.1 39.33 27.1 39.45 27 39.57 27.05 39.69 27.1 39.93 26.26 40.05 26.17 40.3 26.27 40.42 26.27 40.54 26.27 41.02 26.27 41.38 25.85 41.5 25.91 41.62 25.88 41.74 25.9 41.86 25.82 41.98 25.5 42.1 25.67 42.22 25.67 42.34 25.67 42.58 25.83 42.7 25.72 42.82 25.85 42.94 25.7 43.06 25.77 43.19 25.98 43.31 25.82 43.55 25.7 43.67 25.59 43.79 25.59 43.91 25.61 44.03 25.9 44.15 25.56 44.27 25.48 44.39 25.43 44.75 25.76 44.87 25.6 44.99 25.63 45.11 25.38 45.23 25.53 45.35 25.38 45.47 25.32 45.59 25.4 45.71 25.52 45.83 25.64 45.95 25.5 46.07 25.64 46.2 25.64 46.32 25.54 46.44 25.49 46.56 25.57 46.68 25.42 46.8 25.61 46.92 25.61 47.04 25.44 47.16 25.51 47.28 25.61 47.4 25.51 47.52 25.51 47.64 25.56 47.76 25.41 47.88 25.27 48 25.39 48.12 25.31 48.24 25.51 48.6 25.36 49.21 25.31 49.33 25.4 49.45 25.4 49.57 25.45 49.69 25.31 49.81 25.16 49.93 25.16 50.41 25.12 50.53 25.12 51.13 25.23 51.37 25.23 51.49 25.83 51.61 25.39 51.73 25.18 51.85 25.05 51.97 25 52.1 25.11 52.46 25.34 52.58 25.32 52.82 25.38 52.94 25.56 53.06 25.23 53.42 25.23 53.66 25.04 54.02 25.07 54.5 25.09 54.74 24.96 55.11 25.13 55.95 25.19 56.43 25.11 56.55 25.06 56.67 25.06 56.79 25.52 56.91 25.71 57.03 25.71 57.27 25.59 57.39 25.54 57.51 25.54 57.63 25.6 57.75 25.77 57.88 25.45 58 25.45 58.24 25.45 58.36 25.41 58.48 25.33 58.96 25.52 59.08 25.44 59.2 25.63 59.44 25.2 59.68 25.2 59.8 25.26 60.16 25.34 60.76 25.34 61.37 25.1 61.97 27.02 62.09 26.72 62.21 26.25 62.33 25.97 62.45 25.68 62.69 25.8 62.93 25.74 63.41 25.93 63.53 25.89 63.65 25.63 63.78 25.75 63.9 25.65 64.02 25.73 64.14 25.63 65.58 25.73 65.82 25.67 65.94 25.66 66.18 25.44 66.66 25.42 66.91 25.36 67.15 25.64 67.63 25.47 67.87 25.54 67.99 25.13 68.23 25.03 68.35 25.2 68.47 25.13 68.59 25.13 68.71 25.18 68.83 24.94 69.07 25.09 69.19 25.07 69.43 24.9 69.68 24.98 69.8 25.14 69.92 25.01 70.16 24.98 70.28 25.12 70.88 25.21 71.36 25.07 71.48 25.08 72.44 25.17 72.57 25.23 72.69 25.28 73.05 24.96 73.17 24.94 73.29 24.92 73.53 25.1 73.77 25.05 74.01 25.03 75.09 24.79"/>
      </g>
    </g>
  </g>
</g>
  <g class="guide ylabels" font-size="2.82" font-family="'PT Sans Caption','Helvetica Neue','Helvetica',sans-serif" fill="#6C606B" id="img-543b658b-19">
    <text x="18.63" y="45.71" text-anchor="end" dy="0.35em">0</text>
    <text x="18.63" y="30.16" text-anchor="end" dy="0.35em">50</text>
    <text x="18.63" y="14.61" text-anchor="end" dy="0.35em">100</text>
  </g>
  <g font-size="3.88" font-family="'PT Sans','Helvetica Neue','Helvetica',sans-serif" fill="#564A55" stroke="#000000" stroke-opacity="0.000" id="img-543b658b-20">
    <text x="8.81" y="28.16" text-anchor="middle" dy="0.35em" transform="rotate(-90, 8.81, 30.16)">Percentage of Packages</text>
  </g>
  <g font-size="3.88" font-family="'PT Sans','Helvetica Neue','Helvetica',sans-serif" fill="#564A55" stroke="#000000" stroke-opacity="0.000" id="img-543b658b-21">
    <text x="58.12" y="10.61" text-anchor="middle">Julia v0.3 (relative)</text>
  </g>
</g>
<defs>
  <clipPath id="img-543b658b-4">
  <path d="M19.63,12.61 L 96.6 12.61 96.6 47.71 19.63 47.71" />
</clipPath>
</defs>
</svg>
