<?xml version="1.0" encoding="UTF-8"?>
<svg xmlns="http://www.w3.org/2000/svg"
     xmlns:xlink="http://www.w3.org/1999/xlink"
     xmlns:gadfly="http://www.gadflyjl.org/ns"
     version="1.2"
     width="101.6mm" height="76.2mm" viewBox="0 0 101.6 76.2"
     stroke="none"
     fill="#000000"
     stroke-width="0.3"
     font-size="3.88"
>
<g class="plotroot xscalable yscalable" id="fig-23e44727c37b43d1a60ad79787c717cd-element-1">
  <g font-size="3.88" font-family="'PT Sans','Helvetica Neue','Helvetica',sans-serif" fill="#564A55" stroke="#000000" stroke-opacity="0.000" id="fig-23e44727c37b43d1a60ad79787c717cd-element-2">
    <text x="58.12" y="64.59" text-anchor="middle" dy="0.6em">Date</text>
  </g>
  <g class="guide xlabels" font-size="2.82" font-family="'PT Sans Caption','Helvetica Neue','Helvetica',sans-serif" fill="#6C606B" id="fig-23e44727c37b43d1a60ad79787c717cd-element-3">
    <text x="21.89" y="48.71" text-anchor="end" dy="0.35em" transform="rotate(-90, 21.89, 48.71)">Apr</text>
    <text x="25.84" y="48.71" text-anchor="end" dy="0.35em" transform="rotate(-90, 25.84, 48.71)">May</text>
    <text x="29.91" y="48.71" text-anchor="end" dy="0.35em" transform="rotate(-90, 29.91, 48.71)">Jun</text>
    <text x="33.86" y="48.71" text-anchor="end" dy="0.35em" transform="rotate(-90, 33.86, 48.71)">Jul</text>
    <text x="37.93" y="48.71" text-anchor="end" dy="0.35em" transform="rotate(-90, 37.93, 48.71)">Aug</text>
    <text x="42.01" y="48.71" text-anchor="end" dy="0.35em" transform="rotate(-90, 42.01, 48.71)">Sep</text>
    <text x="45.95" y="48.71" text-anchor="end" dy="0.35em" transform="rotate(-90, 45.95, 48.71)">Oct</text>
    <text x="50.03" y="48.71" text-anchor="end" dy="0.35em" transform="rotate(-90, 50.03, 48.71)">Nov</text>
    <text x="53.97" y="48.71" text-anchor="end" dy="0.35em" transform="rotate(-90, 53.97, 48.71)">Dec</text>
    <text x="58.05" y="48.71" text-anchor="end" dy="0.35em" transform="rotate(-90, 58.05, 48.71)">Jan 2015</text>
    <text x="62.13" y="48.71" text-anchor="end" dy="0.35em" transform="rotate(-90, 62.13, 48.71)">Feb</text>
    <text x="65.81" y="48.71" text-anchor="end" dy="0.35em" transform="rotate(-90, 65.81, 48.71)">Mar</text>
    <text x="69.88" y="48.71" text-anchor="end" dy="0.35em" transform="rotate(-90, 69.88, 48.71)">Apr</text>
    <text x="73.83" y="48.71" text-anchor="end" dy="0.35em" transform="rotate(-90, 73.83, 48.71)">May</text>
    <text x="77.9" y="48.71" text-anchor="end" dy="0.35em" transform="rotate(-90, 77.9, 48.71)">Jun</text>
    <text x="81.85" y="48.71" text-anchor="end" dy="0.35em" transform="rotate(-90, 81.85, 48.71)">Jul</text>
    <text x="85.92" y="48.71" text-anchor="end" dy="0.35em" transform="rotate(-90, 85.92, 48.71)">Aug</text>
    <text x="90" y="48.71" text-anchor="end" dy="0.35em" transform="rotate(-90, 90, 48.71)">Sep</text>
    <text x="93.94" y="48.71" text-anchor="end" dy="0.35em" transform="rotate(-90, 93.94, 48.71)">Oct</text>
  </g>
  <g clip-path="url(#fig-23e44727c37b43d1a60ad79787c717cd-element-5)" id="fig-23e44727c37b43d1a60ad79787c717cd-element-4">
    <g pointer-events="visible" opacity="1" fill="#000000" fill-opacity="0.000" stroke="#000000" stroke-opacity="0.000" class="guide background" id="fig-23e44727c37b43d1a60ad79787c717cd-element-6">
      <rect x="19.63" y="12.61" width="76.97" height="35.1"/>
    </g>
    <g class="guide ygridlines xfixed" stroke-dasharray="0.5,0.5" stroke-width="0.2" stroke="#D0D0E0" id="fig-23e44727c37b43d1a60ad79787c717cd-element-7">
      <path fill="none" d="M19.63,45.71 L 96.6 45.71"/>
      <path fill="none" d="M19.63,30.16 L 96.6 30.16"/>
      <path fill="none" d="M19.63,14.61 L 96.6 14.61"/>
    </g>
    <g class="guide xgridlines yfixed" stroke-dasharray="0.5,0.5" stroke-width="0.2" stroke="#D0D0E0" id="fig-23e44727c37b43d1a60ad79787c717cd-element-8">
      <path fill="none" d="M21.89,12.61 L 21.89 47.71"/>
      <path fill="none" d="M25.84,12.61 L 25.84 47.71"/>
      <path fill="none" d="M29.91,12.61 L 29.91 47.71"/>
      <path fill="none" d="M33.86,12.61 L 33.86 47.71"/>
      <path fill="none" d="M37.93,12.61 L 37.93 47.71"/>
      <path fill="none" d="M42.01,12.61 L 42.01 47.71"/>
      <path fill="none" d="M45.95,12.61 L 45.95 47.71"/>
      <path fill="none" d="M50.03,12.61 L 50.03 47.71"/>
      <path fill="none" d="M53.97,12.61 L 53.97 47.71"/>
      <path fill="none" d="M58.05,12.61 L 58.05 47.71"/>
      <path fill="none" d="M62.13,12.61 L 62.13 47.71"/>
      <path fill="none" d="M65.81,12.61 L 65.81 47.71"/>
      <path fill="none" d="M69.88,12.61 L 69.88 47.71"/>
      <path fill="none" d="M73.83,12.61 L 73.83 47.71"/>
      <path fill="none" d="M77.9,12.61 L 77.9 47.71"/>
      <path fill="none" d="M81.85,12.61 L 81.85 47.71"/>
      <path fill="none" d="M85.92,12.61 L 85.92 47.71"/>
      <path fill="none" d="M90,12.61 L 90 47.71"/>
      <path fill="none" d="M93.94,12.61 L 93.94 47.71"/>
    </g>
    <g class="plotpanel" id="fig-23e44727c37b43d1a60ad79787c717cd-element-9">
      <g stroke-width="0.3" fill="#000000" fill-opacity="0.000" class="geometry color_newnot_possible" stroke-dasharray="none" stroke="#808080" id="fig-23e44727c37b43d1a60ad79787c717cd-element-10">
        <path fill="none" d="M80.4,42.94 L 80.53 42.94 80.66 42.95 80.8 42.95 80.93 42.96 81.06 42.96 81.19 42.96 81.32 42.96 81.72 42.96 81.98 42.97 82.24 43.02 82.37 42.98 82.5 42.99 82.64 43 82.77 43.01 82.9 43.01 85.13 43.02 86.19 43.04 87.37 43.06 89.6 43.12 90 43.12 90.66 42.99 91.31 42.85 93.42 42.89 93.94 42.92 94.6 42.93"/>
      </g>
      <g stroke-width="0.3" fill="#000000" fill-opacity="0.000" class="geometry color_newno_tests" stroke-dasharray="none" stroke="#0000FF" id="fig-23e44727c37b43d1a60ad79787c717cd-element-11">
        <path fill="none" d="M80.4,40.12 L 80.53 40.12 80.66 40.13 80.8 40.13 80.93 40.15 81.06 40.15 81.19 40.15 81.32 40.16 81.72 40.16 81.98 40.18 82.24 40.17 82.37 40.19 82.5 40.28 82.64 40.3 82.77 40.3 82.9 40.36 85.13 40.43 86.19 40.47 87.37 40.51 89.6 40.62 90 40.69 90.66 40.69 91.31 40.76 93.42 40.97 93.94 41.15 94.6 41.27"/>
      </g>
      <g stroke-width="0.3" fill="#000000" fill-opacity="0.000" class="geometry color_newtests_fail" stroke-dasharray="none" stroke="#FF0000" id="fig-23e44727c37b43d1a60ad79787c717cd-element-12">
        <path fill="none" d="M80.4,42.78 L 80.53 42.62 80.66 42.58 80.8 42.53 80.93 42.44 81.06 42.59 81.19 42.39 81.32 42.55 81.72 42.44 81.98 42.4 82.24 42.35 82.37 42.51 82.5 40.89 82.64 42.44 82.77 42.14 82.9 42.19 85.13 42.47 86.19 42.54 87.37 42.18 89.6 41.44 90 41.69 90.66 41.98 91.31 42.23 93.42 42.24 93.94 42.03 94.6 42.24"/>
      </g>
      <g stroke-width="0.3" fill="#000000" fill-opacity="0.000" class="geometry color_newtests_pass" stroke-dasharray="none" stroke="#008000" id="fig-23e44727c37b43d1a60ad79787c717cd-element-13">
        <path fill="none" d="M80.4,25.9 L 80.53 26.06 80.66 26.07 80.8 26.12 80.93 26.19 81.06 26.03 81.19 26.24 81.32 26.07 81.72 26.17 81.98 26.18 82.24 26.2 82.37 26.06 82.5 27.57 82.64 26 82.77 26.29 82.9 26.18 85.13 25.82 86.19 25.69 87.37 25.99 89.6 26.56 90 26.24 90.66 26.08 91.31 25.9 93.42 25.63 93.94 25.64 94.6 25.3"/>
      </g>
      <g stroke-width="0.3" fill="#000000" fill-opacity="0.000" class="geometry color_newnot_possible" stroke-dasharray="none" stroke="#808080" id="fig-23e44727c37b43d1a60ad79787c717cd-element-14">
        <path fill="none" d="M21.63,42.35 L 21.76 42.35 21.89 42.36 22.03 42.36 22.16 42.36 22.29 42.36 22.42 42.36 22.55 42.37 22.81 42.37 22.95 42.38 23.21 42.39 23.47 42.41 23.6 42.41 23.87 42.41 24 42.42 24.92 42.47 25.31 42.47 25.58 42.47 26.5 42.58 26.63 42.6 26.76 42.61 26.89 42.61 27.02 42.61 27.15 42.51 27.29 42.51 27.42 42.51 27.55 42.51 27.68 42.31 27.81 42.31 27.94 42.34 28.21 42.25 28.34 42.94 28.47 42.94 28.6 42.96 28.73 42.96 28.86 42.96 28.99 42.97 29.13 42.97 29.26 42.97 29.39 42.97 29.52 42.97 29.65 42.98 29.78 42.98 29.91 42.59 30.05 42.99 30.18 43 30.31 43 31.1 42.58 31.23 42.49 31.36 42.5 31.49 42.51 31.62 42.53 31.76 42.44 31.89 42.27 32.02 42.27 32.15 42.28 32.28 42.29 32.54 42.29 32.68 42.31 32.81 42.31 32.94 42.31 33.07 42.31 33.2 42.31 33.33 42.34 33.46 42.34 33.73 42.35 33.86 42.37 33.99 42.38 34.12 42.39 34.25 42.39 34.38 42.41 34.65 42.42 34.78 42.45 34.91 42.45 35.04 42.45 35.31 42.49 35.57 42.52 35.7 42.52 35.83 42.53 35.96 42.53 36.36 42.54 36.49 42.54 36.62 42.55 36.75 42.55 36.88 42.55 37.01 42.56 37.15 42.48 37.28 42.49 37.54 42.49 37.67 42.49 37.93 42.49 38.07 42.5 38.2 42.52 38.33 42.52 38.59 42.53 38.72 42.53 38.85 42.55 38.99 42.56 39.12 42.57 39.25 42.57 39.38 42.58 39.51 42.6 39.64 42.52 39.78 42.44 39.91 42.45 40.04 42.45 40.17 42.45 40.43 42.48 40.56 42.48 40.7 42.49 40.83 42.49 40.96 42.49 41.09 42.51 41.22 42.52 41.35 42.53 41.62 42.43 41.75 42.37 42.01 42.39 42.14 42.39 42.27 42.31 42.8 42.31 43.19 42.36 43.32 42.37 43.46 42.38 43.59 42.39 43.72 42.39 43.85 42.39 43.98 42.46 44.11 42.46 44.25 42.46 44.51 42.38 44.64 42.39 44.77 42.4 44.9 42.4 45.03 42.4 45.17 42.41 45.3 42.33 45.56 42.32 45.69 42.33 45.82 42.33 45.95 42.35 46.09 42.29 46.22 42.29 46.35 42.29 46.48 42.3 46.87 42.32 47.01 42.24 47.14 42.26 47.27 42.27 47.4 42.27 47.53 42.27 47.66 42.29 47.8 42.29 47.93 42.29 48.06 42.3 48.19 42.23 48.32 42.23 48.45 42.23 48.58 42.24 48.72 42.25 48.85 42.25 48.98 42.25 49.11 42.26 49.24 42.26 49.37 42.27 49.5 42.27 49.64 42.29 49.77 42.29 49.9 42.29 50.03 42.3 50.16 42.3 50.29 42.3 50.42 42.31 50.56 42.31 50.69 42.32 51.08 42.32 51.74 42.36 51.87 42.37 52 42.37 52.13 42.38 52.27 42.38 52.4 42.4 52.53 42.4 53.05 42.44 53.19 42.44 53.84 42.45 54.11 42.45 54.24 42.52 54.37 42.53 54.5 42.53 54.63 42.53 54.76 42.54 54.89 42.55 55.29 42.56 55.42 42.57 55.68 42.59 55.82 42.6 55.95 42.6 56.34 42.6 56.6 42.61 57 42.63 57.52 42.64 57.79 42.66 58.18 42.68 59.1 42.72 59.63 42.77 59.76 42.65 59.89 42.65 60.02 42.62 60.15 42.62 60.29 42.62 60.55 42.62 60.68 42.63 60.81 42.63 60.94 42.65 61.07 42.65 61.21 42.65 61.34 42.65 61.6 42.61 61.73 42.62 61.86 42.63 62.39 42.68 62.52 42.67 62.65 42.67 62.91 42.68 63.18 42.7 63.31 42.7 63.7 42.71 64.36 42.71 65.02 42.75 65.68 42.77 65.81 42.77 65.94 42.77 66.07 42.37 66.2 42.43 66.46 42.37 66.73 42.37 67.25 42.38 67.38 42.4 67.52 42.4 67.65 42.4 67.78 42.41 67.91 42.47 68.04 42.42 69.62 42.37 69.88 42.31 70.01 42.33 70.28 42.33 70.8 42.34 71.07 42.34 71.33 42.35 71.85 42.35 72.12 42.37 72.25 42.37 72.51 42.4 72.64 42.4 72.78 42.41 72.91 42.43 73.04 42.43 73.17 42.43 73.43 42.44 73.56 42.44 73.83 42.44 74.09 42.46 74.22 42.47 74.35 42.48 74.62 42.49 74.75 42.5 75.4 42.52 75.93 42.58 76.06 42.54 77.11 42.56 77.25 42.45 77.38 42.45 77.77 42.47 77.9 42.48 78.03 42.54 78.3 42.55 78.56 42.55 78.82 42.55 80.01 42.58"/>
      </g>
      <g stroke-width="0.3" fill="#000000" fill-opacity="0.000" class="geometry color_newtests_fail" stroke-dasharray="none" stroke="#FF0000" id="fig-23e44727c37b43d1a60ad79787c717cd-element-15">
        <path fill="none" d="M21.63,41.51 L 21.76 41.51 21.89 39.95 22.03 41.62 22.16 41.52 22.29 39.84 22.42 39.84 22.55 39.86 22.81 41.53 22.95 41.55 23.21 41.67 23.47 41.69 23.6 41.69 23.87 41.8 24 41.81 24.92 41.96 25.31 41.96 25.58 41.96 26.5 41.87 26.63 42 26.76 41.81 26.89 41.81 27.02 41.91 27.15 42.01 27.29 41.91 27.42 41.91 27.55 41.91 27.68 42.01 27.81 42.01 27.94 41.85 28.21 41.96 28.34 41.76 28.47 41.96 28.6 42.18 28.73 42.18 28.86 42.27 28.99 42.29 29.13 42.19 29.26 42.29 29.39 42.29 29.52 42.29 29.65 42.39 29.78 42.39 29.91 42.81 30.05 42.79 30.18 42.8 30.31 42.81 31.1 43.43 31.23 43.53 31.36 43.54 31.49 43.55 31.62 43.47 31.76 43.56 31.89 43.57 32.02 43.57 32.15 43.49 32.28 41.74 32.54 43.49 32.68 43.6 32.81 43.6 32.94 43.6 33.07 43.6 33.2 43.6 33.33 43.62 33.46 43.62 33.73 43.62 33.86 43.64 33.99 43.55 34.12 43.56 34.25 43.56 34.38 43.57 34.65 43.58 34.78 43.42 34.91 43.42 35.04 43.42 35.31 43.28 35.57 41.57 35.7 41.49 35.83 43.3 35.96 43.22 36.36 43.4 36.49 43.4 36.62 43.4 36.75 43.4 36.88 43.49 37.01 43.58 37.15 43.58 37.28 43.59 37.54 43.59 37.67 43.67 37.93 43.59 38.07 43.68 38.2 43.7 38.33 43.7 38.59 43.7 38.72 43.7 38.85 43.55 38.99 43.64 39.12 43.64 39.25 43.56 39.38 43.57 39.51 43.42 39.64 43.5 39.78 43.67 39.91 41.39 40.04 41.88 40.17 41.88 40.43 43.77 40.56 43.85 40.7 43.77 40.83 43.86 40.96 43.77 41.09 43.79 41.22 43.95 41.35 43.72 41.62 43.99 41.75 44.08 42.01 43.93 42.14 43.93 42.27 44.01 42.8 44.01 43.19 44.43 43.32 44.44 43.46 44.44 43.59 44.52 43.72 44.6 43.85 44.6 43.98 44.63 44.11 44.63 44.25 44.63 44.51 44.47 44.64 44.47 44.77 44.4 44.9 44.48 45.03 44.4 45.17 44.25 45.3 44.33 45.56 44.4 45.69 44.48 45.82 44.48 45.95 44.41 46.09 44.4 46.22 44.42 46.35 44.49 46.48 44.5 46.87 44.5 47.01 44.5 47.14 44.51 47.27 44.59 47.4 44.59 47.53 44.59 47.66 44.59 47.8 44.59 47.93 44.45 48.06 44.38 48.19 44.38 48.32 44.23 48.45 44.38 48.58 44.38 48.72 44.39 48.85 44.39 48.98 44.39 49.11 44.31 49.24 44.39 49.37 44.32 49.5 44.39 49.64 44.32 49.77 44.4 49.9 44.4 50.03 44.4 50.16 44.48 50.29 44.48 50.42 44.55 50.56 44.55 50.69 44.34 51.08 44.63 51.74 44.57 51.87 44.57 52 44.57 52.13 44.65 52.27 44.72 52.4 44.58 52.53 44.58 53.05 44.53 53.19 44.6 53.84 44.6 54.11 44.6 54.24 44.18 54.37 44.4 54.5 44.6 54.63 44.6 54.76 44.61 54.89 44.54 55.29 44.48 55.42 44.48 55.68 44.42 55.82 44.49 55.95 44.49 56.34 44.49 56.6 44.56 57 44.57 57.52 44.57 57.79 44.58 58.18 44.59 59.1 44.54 59.63 44.43 59.76 44.56 59.89 44.56 60.02 44.32 60.15 44.32 60.29 44.38 60.55 44.38 60.68 44.33 60.81 44.33 60.94 44.27 61.07 44.34 61.21 44.34 61.34 44.34 61.6 44.35 61.73 44.35 61.86 44.35 62.39 44.19 62.52 44.19 62.65 44.19 62.91 44.14 63.18 44.08 63.31 44.08 63.7 44.09 64.36 44.09 65.02 44.17 65.68 42.48 65.81 43.06 65.94 43.47 66.07 44.19 66.2 44.19 66.46 44.19 66.73 44.19 67.25 44.19 67.38 44.14 67.52 44.14 67.65 44.14 67.78 44.15 67.91 44.14 68.04 44.09 69.62 44.04 69.88 44.1 70.01 44.22 70.28 44.22 70.8 44.11 71.07 44.22 71.33 44.17 71.85 44.17 72.12 44.18 72.25 44.13 72.51 44.03 72.64 44.03 72.78 44.03 72.91 44.1 73.04 43.98 73.17 43.99 73.43 43.99 73.56 44.05 73.83 43.99 74.09 44 74.22 43.9 74.35 43.9 74.62 43.96 74.75 43.91 75.4 43.87 75.93 43.77 76.06 43.77 77.11 43.57 77.25 43.57 77.38 43.57 77.77 43.59 77.9 43.59 78.03 43.65 78.3 43.71 78.56 43.65 78.82 43.66 80.01 43.78"/>
      </g>
      <g stroke-width="0.3" fill="#000000" fill-opacity="0.000" class="geometry color_newno_tests" stroke-dasharray="none" stroke="#0000FF" id="fig-23e44727c37b43d1a60ad79787c717cd-element-16">
        <path fill="none" d="M21.63,40.04 L 21.76 40.04 21.89 40.05 22.03 40.05 22.16 40.05 22.29 40.16 22.42 40.16 22.55 40.07 22.81 39.97 22.95 39.99 23.21 40.01 23.47 39.84 23.6 39.84 23.87 39.84 24 39.86 24.92 39.93 25.31 39.93 25.58 39.93 26.5 39.85 26.63 39.89 26.76 39.91 26.89 39.91 27.02 39.91 27.15 39.91 27.29 39.91 27.42 39.91 27.55 39.91 27.68 40.11 27.81 40.11 27.94 40.16 28.21 40.28 28.34 40.28 28.47 40.28 28.6 40.21 28.73 40.21 28.86 40.41 28.99 40.53 29.13 40.53 29.26 40.53 29.39 40.53 29.52 40.53 29.65 40.54 29.78 40.54 29.91 39.36 30.05 40.27 30.18 40.28 30.31 40.3 31.1 40.4 31.23 40.42 31.36 40.43 31.49 40.54 31.62 40.57 31.76 40.57 31.89 40.6 32.02 40.7 32.15 40.71 32.28 41 32.54 40.91 32.68 40.75 32.81 40.75 32.94 40.75 33.07 40.75 33.2 40.75 33.33 40.8 33.46 40.8 33.73 40.9 33.86 40.84 33.99 40.86 34.12 40.87 34.25 41.05 34.38 41.08 34.65 41.09 34.78 41.13 34.91 41.13 35.04 41.13 35.31 41.02 35.57 41.32 35.7 41.23 35.83 41.16 35.96 41.16 36.36 41.17 36.49 41.17 36.62 41.18 36.75 41.18 36.88 41.27 37.01 41.28 37.15 41.29 37.28 41.39 37.54 41.39 37.67 41.39 37.93 41.39 38.07 41.4 38.2 41.43 38.33 41.43 38.59 41.28 38.72 41.36 38.85 41.38 38.99 41.31 39.12 41.33 39.25 41.34 39.38 41.35 39.51 41.37 39.64 41.37 39.78 41.38 39.91 41.88 40.04 41.88 40.17 41.88 40.43 41.35 40.56 41.35 40.7 41.44 40.83 41.44 40.96 41.52 41.09 41.47 41.22 41.48 41.35 41.57 41.62 41.93 41.75 42.05 42.01 42.06 42.14 42.06 42.27 42.06 42.8 42.06 43.19 42.04 43.32 42.05 43.46 41.98 43.59 42 43.72 42 43.85 42.08 43.98 42.15 44.11 42.23 44.25 42.23 44.51 42.23 44.64 42.16 44.77 42.17 44.9 42.17 45.03 42.17 45.17 42.25 45.3 42.25 45.56 42.17 45.69 42.18 45.82 42.18 45.95 42.19 46.09 42.07 46.22 42.21 46.35 42.21 46.48 42.23 46.87 42.32 47.01 42.32 47.14 42.26 47.27 42.27 47.4 42.27 47.53 42.27 47.66 42.29 47.8 42.29 47.93 42.29 48.06 42.3 48.19 42.3 48.32 42.38 48.45 42.3 48.58 42.31 48.72 42.33 48.85 42.33 48.98 42.33 49.11 42.41 49.24 42.33 49.37 42.42 49.5 42.34 49.64 42.36 49.77 42.37 49.9 42.37 50.03 42.37 50.16 42.37 50.29 42.37 50.42 42.38 50.56 42.38 50.69 42.39 51.08 42.39 51.74 42.43 51.87 42.44 52 42.44 52.13 42.45 52.27 42.45 52.4 42.47 52.53 42.47 53.05 42.58 53.19 42.51 53.84 42.52 54.11 42.52 54.24 42.52 54.37 42.6 54.5 42.53 54.63 42.53 54.76 42.54 54.89 42.62 55.29 42.56 55.42 42.57 55.68 42.59 55.82 42.53 55.95 42.53 56.34 42.6 56.6 42.54 57 42.56 57.52 42.64 57.79 42.59 58.18 42.62 59.1 42.66 59.63 42.7 59.76 42.71 59.89 42.71 60.02 42.81 60.15 42.74 60.29 42.74 60.55 42.74 60.68 42.82 60.81 42.82 60.94 42.84 61.07 42.78 61.21 42.78 61.34 42.78 61.6 42.8 61.73 42.81 61.86 42.81 62.39 42.86 62.52 42.85 62.65 42.85 62.91 42.86 63.18 42.88 63.31 42.88 63.7 42.89 64.36 42.89 65.02 42.92 65.68 43.12 65.81 43.06 65.94 43.06 66.07 43.07 66.2 43.01 66.46 43.01 66.73 43.01 67.25 43.02 67.38 43.03 67.52 43.1 67.65 43.1 67.78 43.11 67.91 43.1 68.04 43.11 69.62 43.17 69.88 43.17 70.01 43.19 70.28 43.25 70.8 43.25 71.07 43.25 71.33 43.26 71.85 43.26 72.12 43.27 72.25 43.28 72.51 43.3 72.64 43.3 72.78 43.3 72.91 43.32 73.04 43.32 73.17 43.32 73.43 43.32 73.56 43.33 73.83 43.38 74.09 43.34 74.22 43.35 74.35 43.35 74.62 43.42 74.75 43.37 75.4 43.44 75.93 43.44 76.06 43.45 77.11 43.47 77.25 43.47 77.38 43.47 77.77 43.53 77.9 43.54 78.03 43.49 78.3 43.49 78.56 43.49 78.82 43.55 80.01 43.52"/>
      </g>
      <g stroke-width="0.3" fill="#000000" fill-opacity="0.000" class="geometry color_oldfull_fail" stroke-dasharray="none" stroke="#FFA500" id="fig-23e44727c37b43d1a60ad79787c717cd-element-17">
        <path fill="none" d="M21.63,41.4 L 21.76 41.4 21.89 42.15 22.03 41 22.16 41.1 22.29 41.94 22.42 41.73 22.55 41.95 22.81 40.49 22.95 40.51 23.21 40.42 23.47 40.87 23.6 40.66 23.87 40.97 24 40.88 24.92 41.15 25.31 41.15 25.58 41.15 26.5 41.06 26.63 40.89 26.76 39.91 26.89 39.91 27.02 40.41 27.15 40.41 27.29 40.71 27.42 40.71 27.55 40.71 27.68 41.11 27.81 41.11 27.94 41.65 28.21 41.66 28.34 41.56 28.47 41.36 28.6 41.49 28.73 41.49 28.86 41.69 28.99 41.7 29.13 41.7 29.26 41.5 29.39 41.89 29.52 41.8 29.65 41.71 29.78 41.52 29.91 45.71 30.05 41.92 30.18 41.45 30.31 41.65 31.1 41.54 31.23 41.93 31.36 42.32 31.49 42.33 31.62 42.25 31.76 42.63 31.89 42.55 32.02 42.55 32.15 42.65 32.28 42.94 32.54 42.48 32.68 42.59 32.81 42.77 32.94 42.59 33.07 42.77 33.2 42.77 33.33 42.44 33.46 42.53 33.73 42.9 33.86 42.91 33.99 42.92 34.12 42.84 34.25 42.75 34.38 42.95 34.65 42.95 34.78 43.07 34.91 43.15 35.04 43.15 35.31 43.02 35.57 42.44 35.7 42.87 35.83 42.79 35.96 42.79 36.36 42.8 36.49 42.8 36.62 42.55 36.75 42.72 36.88 42.63 37.01 42.64 37.15 42.82 37.28 42.74 37.54 42.83 37.67 42.91 37.93 42.91 38.07 42.92 38.2 42.94 38.33 42.94 38.59 42.95 38.72 42.95 38.85 42.96 38.99 42.89 39.12 42.9 39.25 42.82 39.38 42.99 39.51 42.84 39.64 42.76 39.78 42.77 39.91 42.61 40.04 42.53 40.17 42.61 40.43 42.48 40.56 42.56 40.7 42.81 40.83 42.57 40.96 42.57 41.09 42.67 41.22 42.44 41.35 42.53 41.62 42.84 41.75 42.78 42.01 42.79 42.14 42.79 42.27 42.79 42.8 42.79 43.19 42.76 43.32 42.69 43.46 42.77 43.59 42.63 43.72 42.63 43.85 42.87 43.98 42.54 44.11 42.46 44.25 42.46 44.51 42.54 44.64 42.7 44.77 42.63 44.9 42.71 45.03 42.71 45.17 42.56 45.3 42.71 45.56 42.86 45.69 42.87 45.82 42.87 45.95 42.88 46.09 42.8 46.22 42.97 46.35 42.97 46.48 42.98 46.87 42.55 47.01 42.77 47.14 42.79 47.27 42.94 47.4 42.79 47.53 42.94 47.66 42.96 47.8 42.88 47.93 42.89 48.06 42.82 48.19 43.04 48.32 42.97 48.45 42.89 48.58 42.98 48.72 42.99 48.85 42.91 48.98 43.06 49.11 42.85 49.24 42.85 49.37 43 49.5 42.93 49.64 42.87 49.77 42.87 49.9 42.87 50.03 42.81 50.16 42.88 50.29 43.03 50.42 42.82 50.56 42.89 50.69 42.89 51.08 42.75 51.74 42.78 51.87 42.66 52 42.66 52.13 42.52 52.27 42.59 52.4 42.82 52.53 42.82 53.05 42.79 53.19 42.79 53.84 42.65 54.11 42.65 54.24 42.38 54.37 42.53 54.5 42.6 54.63 42.74 54.76 42.75 54.89 42.62 55.29 42.5 55.42 42.5 55.68 42.46 55.82 42.26 55.95 42.6 56.34 42.53 56.6 42.68 57 42.63 57.52 42.51 57.79 42.66 58.18 42.42 59.1 42.33 59.63 42.45 59.76 42.46 59.89 42.46 60.02 42.18 60.15 42.05 60.29 41.99 60.55 42.11 60.68 42.13 60.81 42.13 60.94 42.09 61.07 41.91 61.21 42.22 61.34 42.22 61.6 42.24 61.73 42.25 61.86 42.32 62.39 42.19 62.52 42.3 62.65 42.12 62.91 42.56 63.18 42.58 63.31 42.52 63.7 42.41 64.36 42.41 65.02 42.51 65.68 42.06 65.81 41.83 65.94 41.89 66.07 41.84 66.2 42.14 66.46 42.08 66.73 42.14 67.25 41.92 67.38 41.99 67.52 42.17 67.65 42.05 67.78 42.12 67.91 42 68.04 42.19 69.62 42.14 69.88 42.2 70.01 42.04 70.28 42.21 70.8 42.34 71.07 42.28 71.33 42.01 71.85 42.18 72.12 42.08 72.25 42.54 72.51 42.68 72.64 42.51 72.78 42.58 72.91 42.48 73.04 42.54 73.17 42.77 73.43 42.6 73.56 42.55 73.83 42.72 74.09 42.68 74.22 42.58 74.35 42.7 74.62 42.6 74.75 42.55 75.4 42.41 75.93 42.58 76.06 42.59 77.11 42.67 77.25 42.72 77.38 42.67 77.77 42.9 77.9 42.9 78.03 42.85 78.3 42.6 78.56 42.7 78.82 42.66 80.01 42.79"/>
      </g>
      <g stroke-width="0.3" fill="#000000" fill-opacity="0.000" class="geometry color_newtests_pass" stroke-dasharray="none" stroke="#008000" id="fig-23e44727c37b43d1a60ad79787c717cd-element-18">
        <path fill="none" d="M21.63,32.16 L 21.76 32.16 21.89 32.93 22.03 32.41 22.16 32.41 22.29 33.14 22.42 33.35 22.55 33.19 22.81 33.08 22.95 33.02 23.21 32.96 23.47 32.63 23.6 32.84 23.87 32.43 24 32.47 24.92 31.93 25.31 31.93 25.58 31.93 26.5 32.08 26.63 32.07 26.76 33.21 26.89 33.21 27.02 32.61 27.15 32.61 27.29 32.41 27.42 32.41 27.55 32.41 27.68 31.91 27.81 31.91 27.94 31.45 28.21 31.3 28.34 30.9 28.47 30.9 28.6 30.6 28.73 30.6 28.86 30.11 28.99 29.96 29.13 30.06 29.26 30.16 29.39 29.77 29.52 29.87 29.65 29.82 29.78 30.01 29.91 26.98 30.05 29.48 30.18 29.92 30.31 29.68 31.1 29.5 31.23 29.07 31.36 28.65 31.49 28.52 31.62 28.62 31.76 28.25 31.89 28.44 32.02 28.35 32.15 28.31 32.28 29.47 32.54 28.27 32.68 28.19 32.81 28 32.94 28.19 33.07 28 33.2 28 33.33 28.25 33.46 28.16 33.73 27.67 33.86 27.68 33.99 27.73 34.12 27.79 34.25 27.7 34.38 27.44 34.65 27.41 34.78 27.39 34.91 27.3 35.04 27.3 35.31 27.64 35.57 29.6 35.7 29.34 35.83 27.67 35.96 27.75 36.36 27.55 36.49 27.55 36.62 27.77 36.75 27.6 36.88 27.51 37.01 27.39 37.15 27.27 37.28 27.24 37.54 27.15 37.67 26.98 37.93 27.07 38.07 26.95 38.2 26.85 38.33 26.85 38.59 26.98 38.72 26.9 38.85 27 38.99 27.05 39.12 27.02 39.25 27.15 39.38 26.95 39.51 27.21 39.64 27.3 39.78 27.18 39.91 29.1 40.04 28.69 40.17 28.61 40.43 27.37 40.56 27.21 40.7 26.94 40.83 27.1 40.96 27.1 41.09 27 41.22 27.05 41.35 27.1 41.62 26.26 41.75 26.17 42.01 26.27 42.14 26.27 42.27 26.27 42.8 26.27 43.19 25.85 43.32 25.91 43.46 25.88 43.59 25.9 43.72 25.82 43.85 25.5 43.98 25.67 44.11 25.67 44.25 25.67 44.51 25.83 44.64 25.72 44.77 25.85 44.9 25.7 45.03 25.77 45.17 25.98 45.3 25.82 45.56 25.7 45.69 25.59 45.82 25.59 45.95 25.61 46.09 25.9 46.22 25.56 46.35 25.48 46.48 25.43 46.87 25.76 47.01 25.6 47.14 25.63 47.27 25.38 47.4 25.53 47.53 25.38 47.66 25.32 47.8 25.4 47.93 25.52 48.06 25.64 48.19 25.5 48.32 25.64 48.45 25.64 48.58 25.54 48.72 25.49 48.85 25.57 48.98 25.42 49.11 25.61 49.24 25.61 49.37 25.44 49.5 25.51 49.64 25.61 49.77 25.51 49.9 25.51 50.03 25.56 50.16 25.41 50.29 25.27 50.42 25.39 50.56 25.31 50.69 25.51 51.08 25.36 51.74 25.31 51.87 25.4 52 25.4 52.13 25.45 52.27 25.31 52.4 25.16 52.53 25.16 53.05 25.12 53.19 25.12 53.84 25.23 54.11 25.23 54.24 25.83 54.37 25.39 54.5 25.18 54.63 25.05 54.76 25 54.89 25.11 55.29 25.34 55.42 25.32 55.68 25.38 55.82 25.56 55.95 25.23 56.34 25.23 56.6 25.04 57 25.07 57.52 25.09 57.79 24.96 58.18 25.13 59.1 25.19 59.63 25.11 59.76 25.06 59.89 25.06 60.02 25.52 60.15 25.71 60.29 25.71 60.55 25.59 60.68 25.54 60.81 25.54 60.94 25.6 61.07 25.77 61.21 25.45 61.34 25.45 61.6 25.45 61.73 25.41 61.86 25.33 62.39 25.52 62.52 25.44 62.65 25.63 62.91 25.2 63.18 25.2 63.31 25.26 63.7 25.34 64.36 25.34 65.02 25.1 65.68 27.02 65.81 26.72 65.94 26.25 66.07 25.97 66.2 25.68 66.46 25.8 66.73 25.74 67.25 25.93 67.38 25.89 67.52 25.63 67.65 25.75 67.78 25.65 67.91 25.73 68.04 25.63 69.62 25.73 69.88 25.67 70.01 25.66 70.28 25.44 70.8 25.42 71.07 25.36 71.33 25.64 71.85 25.47 72.12 25.54 72.25 25.13 72.51 25.03 72.64 25.2 72.78 25.13 72.91 25.13 73.04 25.18 73.17 24.94 73.43 25.09 73.56 25.07 73.83 24.9 74.09 24.98 74.22 25.14 74.35 25.01 74.62 24.98 74.75 25.12 75.4 25.21 75.93 25.07 76.06 25.08 77.11 25.17 77.25 25.23 77.38 25.28 77.77 24.96 77.9 24.94 78.03 24.92 78.3 25.1 78.56 25.05 78.82 25.03 80.01 24.79"/>
      </g>
    </g>
  </g>
  <g class="guide ylabels" font-size="2.82" font-family="'PT Sans Caption','Helvetica Neue','Helvetica',sans-serif" fill="#6C606B" id="fig-23e44727c37b43d1a60ad79787c717cd-element-19">
    <text x="18.63" y="45.71" text-anchor="end" dy="0.35em">0</text>
    <text x="18.63" y="30.16" text-anchor="end" dy="0.35em">50</text>
    <text x="18.63" y="14.61" text-anchor="end" dy="0.35em">100</text>
  </g>
  <g font-size="3.88" font-family="'PT Sans','Helvetica Neue','Helvetica',sans-serif" fill="#564A55" stroke="#000000" stroke-opacity="0.000" id="fig-23e44727c37b43d1a60ad79787c717cd-element-20">
    <text x="8.81" y="28.16" text-anchor="middle" dy="0.35em" transform="rotate(-90, 8.81, 30.16)">Percentage of Packages</text>
  </g>
  <g font-size="3.88" font-family="'PT Sans','Helvetica Neue','Helvetica',sans-serif" fill="#564A55" stroke="#000000" stroke-opacity="0.000" id="fig-23e44727c37b43d1a60ad79787c717cd-element-21">
    <text x="58.12" y="10.61" text-anchor="middle">Julia v0.3 (relative)</text>
  </g>
</g>
<defs>
<clipPath id="fig-23e44727c37b43d1a60ad79787c717cd-element-5">
  <path d="M19.63,12.61 L 96.6 12.61 96.6 47.71 19.63 47.71" />
</clipPath
></defs>
</svg>
