<?xml version="1.0" encoding="UTF-8"?>
<svg xmlns="http://www.w3.org/2000/svg"
     xmlns:xlink="http://www.w3.org/1999/xlink"
     xmlns:gadfly="http://www.gadflyjl.org/ns"
     version="1.2"
     width="101.6mm" height="76.2mm" viewBox="0 0 101.6 76.2"
     stroke="none"
     fill="#000000"
     stroke-width="0.3"
     font-size="3.88"
>
<g class="plotroot xscalable yscalable" id="fig-4e5c45c814f5438484c889b81982d739-element-1">
  <g font-size="3.88" font-family="'PT Sans','Helvetica Neue','Helvetica',sans-serif" fill="#564A55" stroke="#000000" stroke-opacity="0.000" id="fig-4e5c45c814f5438484c889b81982d739-element-2">
    <text x="58.12" y="64.59" text-anchor="middle" dy="0.6em">Date</text>
  </g>
  <g class="guide xlabels" font-size="2.82" font-family="'PT Sans Caption','Helvetica Neue','Helvetica',sans-serif" fill="#6C606B" id="fig-4e5c45c814f5438484c889b81982d739-element-3">
    <text x="21.89" y="48.71" text-anchor="end" dy="0.35em" transform="rotate(-90, 21.89, 48.71)">Apr</text>
    <text x="25.81" y="48.71" text-anchor="end" dy="0.35em" transform="rotate(-90, 25.81, 48.71)">May</text>
    <text x="29.86" y="48.71" text-anchor="end" dy="0.35em" transform="rotate(-90, 29.86, 48.71)">Jun</text>
    <text x="33.77" y="48.71" text-anchor="end" dy="0.35em" transform="rotate(-90, 33.77, 48.71)">Jul</text>
    <text x="37.82" y="48.71" text-anchor="end" dy="0.35em" transform="rotate(-90, 37.82, 48.71)">Aug</text>
    <text x="41.86" y="48.71" text-anchor="end" dy="0.35em" transform="rotate(-90, 41.86, 48.71)">Sep</text>
    <text x="45.78" y="48.71" text-anchor="end" dy="0.35em" transform="rotate(-90, 45.78, 48.71)">Oct</text>
    <text x="49.83" y="48.71" text-anchor="end" dy="0.35em" transform="rotate(-90, 49.83, 48.71)">Nov</text>
    <text x="53.74" y="48.71" text-anchor="end" dy="0.35em" transform="rotate(-90, 53.74, 48.71)">Dec</text>
    <text x="57.79" y="48.71" text-anchor="end" dy="0.35em" transform="rotate(-90, 57.79, 48.71)">Jan 2015</text>
    <text x="61.84" y="48.71" text-anchor="end" dy="0.35em" transform="rotate(-90, 61.84, 48.71)">Feb</text>
    <text x="65.49" y="48.71" text-anchor="end" dy="0.35em" transform="rotate(-90, 65.49, 48.71)">Mar</text>
    <text x="69.54" y="48.71" text-anchor="end" dy="0.35em" transform="rotate(-90, 69.54, 48.71)">Apr</text>
    <text x="73.45" y="48.71" text-anchor="end" dy="0.35em" transform="rotate(-90, 73.45, 48.71)">May</text>
    <text x="77.5" y="48.71" text-anchor="end" dy="0.35em" transform="rotate(-90, 77.5, 48.71)">Jun</text>
    <text x="81.42" y="48.71" text-anchor="end" dy="0.35em" transform="rotate(-90, 81.42, 48.71)">Jul</text>
    <text x="85.46" y="48.71" text-anchor="end" dy="0.35em" transform="rotate(-90, 85.46, 48.71)">Aug</text>
    <text x="89.51" y="48.71" text-anchor="end" dy="0.35em" transform="rotate(-90, 89.51, 48.71)">Sep</text>
    <text x="93.43" y="48.71" text-anchor="end" dy="0.35em" transform="rotate(-90, 93.43, 48.71)">Oct</text>
  </g>
  <g clip-path="url(#fig-4e5c45c814f5438484c889b81982d739-element-5)" id="fig-4e5c45c814f5438484c889b81982d739-element-4">
    <g pointer-events="visible" opacity="1" fill="#000000" fill-opacity="0.000" stroke="#000000" stroke-opacity="0.000" class="guide background" id="fig-4e5c45c814f5438484c889b81982d739-element-6">
      <rect x="19.63" y="12.61" width="76.97" height="35.1"/>
    </g>
    <g class="guide ygridlines xfixed" stroke-dasharray="0.5,0.5" stroke-width="0.2" stroke="#D0D0E0" id="fig-4e5c45c814f5438484c889b81982d739-element-7">
      <path fill="none" d="M19.63,45.71 L 96.6 45.71"/>
      <path fill="none" d="M19.63,30.16 L 96.6 30.16"/>
      <path fill="none" d="M19.63,14.61 L 96.6 14.61"/>
    </g>
    <g class="guide xgridlines yfixed" stroke-dasharray="0.5,0.5" stroke-width="0.2" stroke="#D0D0E0" id="fig-4e5c45c814f5438484c889b81982d739-element-8">
      <path fill="none" d="M21.89,12.61 L 21.89 47.71"/>
      <path fill="none" d="M25.81,12.61 L 25.81 47.71"/>
      <path fill="none" d="M29.86,12.61 L 29.86 47.71"/>
      <path fill="none" d="M33.77,12.61 L 33.77 47.71"/>
      <path fill="none" d="M37.82,12.61 L 37.82 47.71"/>
      <path fill="none" d="M41.86,12.61 L 41.86 47.71"/>
      <path fill="none" d="M45.78,12.61 L 45.78 47.71"/>
      <path fill="none" d="M49.83,12.61 L 49.83 47.71"/>
      <path fill="none" d="M53.74,12.61 L 53.74 47.71"/>
      <path fill="none" d="M57.79,12.61 L 57.79 47.71"/>
      <path fill="none" d="M61.84,12.61 L 61.84 47.71"/>
      <path fill="none" d="M65.49,12.61 L 65.49 47.71"/>
      <path fill="none" d="M69.54,12.61 L 69.54 47.71"/>
      <path fill="none" d="M73.45,12.61 L 73.45 47.71"/>
      <path fill="none" d="M77.5,12.61 L 77.5 47.71"/>
      <path fill="none" d="M81.42,12.61 L 81.42 47.71"/>
      <path fill="none" d="M85.46,12.61 L 85.46 47.71"/>
      <path fill="none" d="M89.51,12.61 L 89.51 47.71"/>
      <path fill="none" d="M93.43,12.61 L 93.43 47.71"/>
    </g>
    <g class="plotpanel" id="fig-4e5c45c814f5438484c889b81982d739-element-9">
      <g stroke-width="0.3" fill="#000000" fill-opacity="0.000" class="geometry color_newnot_possible" stroke-dasharray="none" stroke="#808080" id="fig-4e5c45c814f5438484c889b81982d739-element-10">
        <path fill="none" d="M79.98,42.94 L 80.11 42.94 80.24 42.95 80.37 42.95 80.5 42.96 80.63 42.96 80.76 42.96 80.89 42.96 81.29 42.96 81.55 42.97 81.81 43.02 81.94 42.98 82.07 42.99 82.2 43 82.33 43.01 82.46 43.01 84.68 43.02 85.72 43.04 86.9 43.06 89.12 43.12 89.51 43.12 90.16 42.99 90.81 42.85 92.9 42.89 93.43 42.92 94.08 42.93 94.6 42.94"/>
      </g>
      <g stroke-width="0.3" fill="#000000" fill-opacity="0.000" class="geometry color_newno_tests" stroke-dasharray="none" stroke="#0000FF" id="fig-4e5c45c814f5438484c889b81982d739-element-11">
        <path fill="none" d="M79.98,40.12 L 80.11 40.12 80.24 40.13 80.37 40.13 80.5 40.15 80.63 40.15 80.76 40.15 80.89 40.16 81.29 40.16 81.55 40.18 81.81 40.17 81.94 40.19 82.07 40.28 82.2 40.3 82.33 40.3 82.46 40.36 84.68 40.43 85.72 40.47 86.9 40.51 89.12 40.62 89.51 40.69 90.16 40.69 90.81 40.76 92.9 40.97 93.43 41.15 94.08 41.27 94.6 41.27"/>
      </g>
      <g stroke-width="0.3" fill="#000000" fill-opacity="0.000" class="geometry color_newtests_fail" stroke-dasharray="none" stroke="#FF0000" id="fig-4e5c45c814f5438484c889b81982d739-element-12">
        <path fill="none" d="M79.98,42.78 L 80.11 42.62 80.24 42.58 80.37 42.53 80.5 42.44 80.63 42.59 80.76 42.39 80.89 42.55 81.29 42.44 81.55 42.4 81.81 42.35 81.94 42.51 82.07 40.89 82.2 42.44 82.33 42.14 82.46 42.19 84.68 42.47 85.72 42.54 86.9 42.18 89.12 41.44 89.51 41.69 90.16 41.98 90.81 42.23 92.9 42.24 93.43 42.03 94.08 42.24 94.6 42.29"/>
      </g>
      <g stroke-width="0.3" fill="#000000" fill-opacity="0.000" class="geometry color_newtests_pass" stroke-dasharray="none" stroke="#008000" id="fig-4e5c45c814f5438484c889b81982d739-element-13">
        <path fill="none" d="M79.98,25.9 L 80.11 26.06 80.24 26.07 80.37 26.12 80.5 26.19 80.63 26.03 80.76 26.24 80.89 26.07 81.29 26.17 81.55 26.18 81.81 26.2 81.94 26.06 82.07 27.57 82.2 26 82.33 26.29 82.46 26.18 84.68 25.82 85.72 25.69 86.9 25.99 89.12 26.56 89.51 26.24 90.16 26.08 90.81 25.9 92.9 25.63 93.43 25.64 94.08 25.3 94.6 25.24"/>
      </g>
      <g stroke-width="0.3" fill="#000000" fill-opacity="0.000" class="geometry color_newnot_possible" stroke-dasharray="none" stroke="#808080" id="fig-4e5c45c814f5438484c889b81982d739-element-14">
        <path fill="none" d="M21.63,42.35 L 21.76 42.35 21.89 42.36 22.02 42.36 22.15 42.36 22.28 42.36 22.41 42.36 22.55 42.37 22.81 42.37 22.94 42.38 23.2 42.39 23.46 42.41 23.59 42.41 23.85 42.41 23.98 42.42 24.9 42.47 25.29 42.47 25.55 42.47 26.46 42.58 26.59 42.6 26.72 42.61 26.85 42.61 26.98 42.61 27.11 42.51 27.24 42.51 27.38 42.51 27.51 42.51 27.64 42.31 27.77 42.31 27.9 42.34 28.16 42.25 28.29 42.94 28.42 42.94 28.55 42.96 28.68 42.96 28.81 42.96 28.94 42.97 29.07 42.97 29.2 42.97 29.33 42.97 29.46 42.97 29.59 42.98 29.72 42.98 29.86 42.59 29.99 42.99 30.12 43 30.25 43 31.03 42.58 31.16 42.49 31.29 42.5 31.42 42.51 31.55 42.53 31.68 42.44 31.81 42.27 31.94 42.27 32.07 42.28 32.2 42.29 32.47 42.29 32.6 42.31 32.73 42.31 32.86 42.31 32.99 42.31 33.12 42.31 33.25 42.34 33.38 42.34 33.64 42.35 33.77 42.37 33.9 42.38 34.03 42.39 34.16 42.39 34.29 42.41 34.55 42.42 34.69 42.45 34.82 42.45 34.95 42.45 35.21 42.49 35.47 42.52 35.6 42.52 35.73 42.53 35.86 42.53 36.25 42.54 36.38 42.54 36.51 42.55 36.64 42.55 36.77 42.55 36.9 42.56 37.03 42.48 37.17 42.49 37.43 42.49 37.56 42.49 37.82 42.49 37.95 42.5 38.08 42.52 38.21 42.52 38.47 42.53 38.6 42.53 38.73 42.55 38.86 42.56 38.99 42.57 39.12 42.57 39.25 42.58 39.38 42.6 39.51 42.52 39.65 42.44 39.78 42.45 39.91 42.45 40.04 42.45 40.3 42.48 40.43 42.48 40.56 42.49 40.69 42.49 40.82 42.49 40.95 42.51 41.08 42.52 41.21 42.53 41.47 42.43 41.6 42.37 41.86 42.39 41.99 42.39 42.13 42.31 42.65 42.31 43.04 42.36 43.17 42.37 43.3 42.38 43.43 42.39 43.56 42.39 43.69 42.39 43.82 42.46 43.95 42.46 44.08 42.46 44.34 42.38 44.48 42.39 44.61 42.4 44.74 42.4 44.87 42.4 45 42.41 45.13 42.33 45.39 42.32 45.52 42.33 45.65 42.33 45.78 42.35 45.91 42.29 46.04 42.29 46.17 42.29 46.3 42.3 46.69 42.32 46.82 42.24 46.96 42.26 47.09 42.27 47.22 42.27 47.35 42.27 47.48 42.29 47.61 42.29 47.74 42.29 47.87 42.3 48 42.23 48.13 42.23 48.26 42.23 48.39 42.24 48.52 42.25 48.65 42.25 48.78 42.25 48.91 42.26 49.04 42.26 49.17 42.27 49.3 42.27 49.44 42.29 49.57 42.29 49.7 42.29 49.83 42.3 49.96 42.3 50.09 42.3 50.22 42.31 50.35 42.31 50.48 42.32 50.87 42.32 51.52 42.36 51.65 42.37 51.78 42.37 51.92 42.38 52.05 42.38 52.18 42.4 52.31 42.4 52.83 42.44 52.96 42.44 53.61 42.45 53.87 42.45 54 42.52 54.13 42.53 54.27 42.53 54.4 42.53 54.53 42.54 54.66 42.55 55.05 42.56 55.18 42.57 55.44 42.59 55.57 42.6 55.7 42.6 56.09 42.6 56.35 42.61 56.75 42.63 57.27 42.64 57.53 42.66 57.92 42.68 58.83 42.72 59.36 42.77 59.49 42.65 59.62 42.65 59.75 42.62 59.88 42.62 60.01 42.62 60.27 42.62 60.4 42.63 60.53 42.63 60.66 42.65 60.79 42.65 60.92 42.65 61.05 42.65 61.31 42.61 61.44 42.62 61.57 42.63 62.1 42.68 62.23 42.67 62.36 42.67 62.62 42.68 62.88 42.7 63.01 42.7 63.4 42.71 64.06 42.71 64.71 42.75 65.36 42.77 65.49 42.77 65.62 42.77 65.75 42.37 65.88 42.43 66.14 42.37 66.4 42.37 66.93 42.38 67.06 42.4 67.19 42.4 67.32 42.4 67.45 42.41 67.58 42.47 67.71 42.42 69.28 42.37 69.54 42.31 69.67 42.33 69.93 42.33 70.45 42.34 70.71 42.34 70.97 42.35 71.5 42.35 71.76 42.37 71.89 42.37 72.15 42.4 72.28 42.4 72.41 42.41 72.54 42.43 72.67 42.43 72.8 42.43 73.06 42.44 73.19 42.44 73.45 42.44 73.71 42.46 73.85 42.47 73.98 42.48 74.24 42.49 74.37 42.5 75.02 42.52 75.54 42.58 75.67 42.54 76.72 42.56 76.85 42.45 76.98 42.45 77.37 42.47 77.5 42.48 77.63 42.54 77.89 42.55 78.15 42.55 78.41 42.55 79.59 42.58"/>
      </g>
      <g stroke-width="0.3" fill="#000000" fill-opacity="0.000" class="geometry color_newtests_fail" stroke-dasharray="none" stroke="#FF0000" id="fig-4e5c45c814f5438484c889b81982d739-element-15">
        <path fill="none" d="M21.63,41.51 L 21.76 41.51 21.89 39.95 22.02 41.62 22.15 41.52 22.28 39.84 22.41 39.84 22.55 39.86 22.81 41.53 22.94 41.55 23.2 41.67 23.46 41.69 23.59 41.69 23.85 41.8 23.98 41.81 24.9 41.96 25.29 41.96 25.55 41.96 26.46 41.87 26.59 42 26.72 41.81 26.85 41.81 26.98 41.91 27.11 42.01 27.24 41.91 27.38 41.91 27.51 41.91 27.64 42.01 27.77 42.01 27.9 41.85 28.16 41.96 28.29 41.76 28.42 41.96 28.55 42.18 28.68 42.18 28.81 42.27 28.94 42.29 29.07 42.19 29.2 42.29 29.33 42.29 29.46 42.29 29.59 42.39 29.72 42.39 29.86 42.81 29.99 42.79 30.12 42.8 30.25 42.81 31.03 43.43 31.16 43.53 31.29 43.54 31.42 43.55 31.55 43.47 31.68 43.56 31.81 43.57 31.94 43.57 32.07 43.49 32.2 41.74 32.47 43.49 32.6 43.6 32.73 43.6 32.86 43.6 32.99 43.6 33.12 43.6 33.25 43.62 33.38 43.62 33.64 43.62 33.77 43.64 33.9 43.55 34.03 43.56 34.16 43.56 34.29 43.57 34.55 43.58 34.69 43.42 34.82 43.42 34.95 43.42 35.21 43.28 35.47 41.57 35.6 41.49 35.73 43.3 35.86 43.22 36.25 43.4 36.38 43.4 36.51 43.4 36.64 43.4 36.77 43.49 36.9 43.58 37.03 43.58 37.17 43.59 37.43 43.59 37.56 43.67 37.82 43.59 37.95 43.68 38.08 43.7 38.21 43.7 38.47 43.7 38.6 43.7 38.73 43.55 38.86 43.64 38.99 43.64 39.12 43.56 39.25 43.57 39.38 43.42 39.51 43.5 39.65 43.67 39.78 41.39 39.91 41.88 40.04 41.88 40.3 43.77 40.43 43.85 40.56 43.77 40.69 43.86 40.82 43.77 40.95 43.79 41.08 43.95 41.21 43.72 41.47 43.99 41.6 44.08 41.86 43.93 41.99 43.93 42.13 44.01 42.65 44.01 43.04 44.43 43.17 44.44 43.3 44.44 43.43 44.52 43.56 44.6 43.69 44.6 43.82 44.63 43.95 44.63 44.08 44.63 44.34 44.47 44.48 44.47 44.61 44.4 44.74 44.48 44.87 44.4 45 44.25 45.13 44.33 45.39 44.4 45.52 44.48 45.65 44.48 45.78 44.41 45.91 44.4 46.04 44.42 46.17 44.49 46.3 44.5 46.69 44.5 46.82 44.5 46.96 44.51 47.09 44.59 47.22 44.59 47.35 44.59 47.48 44.59 47.61 44.59 47.74 44.45 47.87 44.38 48 44.38 48.13 44.23 48.26 44.38 48.39 44.38 48.52 44.39 48.65 44.39 48.78 44.39 48.91 44.31 49.04 44.39 49.17 44.32 49.3 44.39 49.44 44.32 49.57 44.4 49.7 44.4 49.83 44.4 49.96 44.48 50.09 44.48 50.22 44.55 50.35 44.55 50.48 44.34 50.87 44.63 51.52 44.57 51.65 44.57 51.78 44.57 51.92 44.65 52.05 44.72 52.18 44.58 52.31 44.58 52.83 44.53 52.96 44.6 53.61 44.6 53.87 44.6 54 44.18 54.13 44.4 54.27 44.6 54.4 44.6 54.53 44.61 54.66 44.54 55.05 44.48 55.18 44.48 55.44 44.42 55.57 44.49 55.7 44.49 56.09 44.49 56.35 44.56 56.75 44.57 57.27 44.57 57.53 44.58 57.92 44.59 58.83 44.54 59.36 44.43 59.49 44.56 59.62 44.56 59.75 44.32 59.88 44.32 60.01 44.38 60.27 44.38 60.4 44.33 60.53 44.33 60.66 44.27 60.79 44.34 60.92 44.34 61.05 44.34 61.31 44.35 61.44 44.35 61.57 44.35 62.1 44.19 62.23 44.19 62.36 44.19 62.62 44.14 62.88 44.08 63.01 44.08 63.4 44.09 64.06 44.09 64.71 44.17 65.36 42.48 65.49 43.06 65.62 43.47 65.75 44.19 65.88 44.19 66.14 44.19 66.4 44.19 66.93 44.19 67.06 44.14 67.19 44.14 67.32 44.14 67.45 44.15 67.58 44.14 67.71 44.09 69.28 44.04 69.54 44.1 69.67 44.22 69.93 44.22 70.45 44.11 70.71 44.22 70.97 44.17 71.5 44.17 71.76 44.18 71.89 44.13 72.15 44.03 72.28 44.03 72.41 44.03 72.54 44.1 72.67 43.98 72.8 43.99 73.06 43.99 73.19 44.05 73.45 43.99 73.71 44 73.85 43.9 73.98 43.9 74.24 43.96 74.37 43.91 75.02 43.87 75.54 43.77 75.67 43.77 76.72 43.57 76.85 43.57 76.98 43.57 77.37 43.59 77.5 43.59 77.63 43.65 77.89 43.71 78.15 43.65 78.41 43.66 79.59 43.78"/>
      </g>
      <g stroke-width="0.3" fill="#000000" fill-opacity="0.000" class="geometry color_newno_tests" stroke-dasharray="none" stroke="#0000FF" id="fig-4e5c45c814f5438484c889b81982d739-element-16">
        <path fill="none" d="M21.63,40.04 L 21.76 40.04 21.89 40.05 22.02 40.05 22.15 40.05 22.28 40.16 22.41 40.16 22.55 40.07 22.81 39.97 22.94 39.99 23.2 40.01 23.46 39.84 23.59 39.84 23.85 39.84 23.98 39.86 24.9 39.93 25.29 39.93 25.55 39.93 26.46 39.85 26.59 39.89 26.72 39.91 26.85 39.91 26.98 39.91 27.11 39.91 27.24 39.91 27.38 39.91 27.51 39.91 27.64 40.11 27.77 40.11 27.9 40.16 28.16 40.28 28.29 40.28 28.42 40.28 28.55 40.21 28.68 40.21 28.81 40.41 28.94 40.53 29.07 40.53 29.2 40.53 29.33 40.53 29.46 40.53 29.59 40.54 29.72 40.54 29.86 39.36 29.99 40.27 30.12 40.28 30.25 40.3 31.03 40.4 31.16 40.42 31.29 40.43 31.42 40.54 31.55 40.57 31.68 40.57 31.81 40.6 31.94 40.7 32.07 40.71 32.2 41 32.47 40.91 32.6 40.75 32.73 40.75 32.86 40.75 32.99 40.75 33.12 40.75 33.25 40.8 33.38 40.8 33.64 40.9 33.77 40.84 33.9 40.86 34.03 40.87 34.16 41.05 34.29 41.08 34.55 41.09 34.69 41.13 34.82 41.13 34.95 41.13 35.21 41.02 35.47 41.32 35.6 41.23 35.73 41.16 35.86 41.16 36.25 41.17 36.38 41.17 36.51 41.18 36.64 41.18 36.77 41.27 36.9 41.28 37.03 41.29 37.17 41.39 37.43 41.39 37.56 41.39 37.82 41.39 37.95 41.4 38.08 41.43 38.21 41.43 38.47 41.28 38.6 41.36 38.73 41.38 38.86 41.31 38.99 41.33 39.12 41.34 39.25 41.35 39.38 41.37 39.51 41.37 39.65 41.38 39.78 41.88 39.91 41.88 40.04 41.88 40.3 41.35 40.43 41.35 40.56 41.44 40.69 41.44 40.82 41.52 40.95 41.47 41.08 41.48 41.21 41.57 41.47 41.93 41.6 42.05 41.86 42.06 41.99 42.06 42.13 42.06 42.65 42.06 43.04 42.04 43.17 42.05 43.3 41.98 43.43 42 43.56 42 43.69 42.08 43.82 42.15 43.95 42.23 44.08 42.23 44.34 42.23 44.48 42.16 44.61 42.17 44.74 42.17 44.87 42.17 45 42.25 45.13 42.25 45.39 42.17 45.52 42.18 45.65 42.18 45.78 42.19 45.91 42.07 46.04 42.21 46.17 42.21 46.3 42.23 46.69 42.32 46.82 42.32 46.96 42.26 47.09 42.27 47.22 42.27 47.35 42.27 47.48 42.29 47.61 42.29 47.74 42.29 47.87 42.3 48 42.3 48.13 42.38 48.26 42.3 48.39 42.31 48.52 42.33 48.65 42.33 48.78 42.33 48.91 42.41 49.04 42.33 49.17 42.42 49.3 42.34 49.44 42.36 49.57 42.37 49.7 42.37 49.83 42.37 49.96 42.37 50.09 42.37 50.22 42.38 50.35 42.38 50.48 42.39 50.87 42.39 51.52 42.43 51.65 42.44 51.78 42.44 51.92 42.45 52.05 42.45 52.18 42.47 52.31 42.47 52.83 42.58 52.96 42.51 53.61 42.52 53.87 42.52 54 42.52 54.13 42.6 54.27 42.53 54.4 42.53 54.53 42.54 54.66 42.62 55.05 42.56 55.18 42.57 55.44 42.59 55.57 42.53 55.7 42.53 56.09 42.6 56.35 42.54 56.75 42.56 57.27 42.64 57.53 42.59 57.92 42.62 58.83 42.66 59.36 42.7 59.49 42.71 59.62 42.71 59.75 42.81 59.88 42.74 60.01 42.74 60.27 42.74 60.4 42.82 60.53 42.82 60.66 42.84 60.79 42.78 60.92 42.78 61.05 42.78 61.31 42.8 61.44 42.81 61.57 42.81 62.1 42.86 62.23 42.85 62.36 42.85 62.62 42.86 62.88 42.88 63.01 42.88 63.4 42.89 64.06 42.89 64.71 42.92 65.36 43.12 65.49 43.06 65.62 43.06 65.75 43.07 65.88 43.01 66.14 43.01 66.4 43.01 66.93 43.02 67.06 43.03 67.19 43.1 67.32 43.1 67.45 43.11 67.58 43.1 67.71 43.11 69.28 43.17 69.54 43.17 69.67 43.19 69.93 43.25 70.45 43.25 70.71 43.25 70.97 43.26 71.5 43.26 71.76 43.27 71.89 43.28 72.15 43.3 72.28 43.3 72.41 43.3 72.54 43.32 72.67 43.32 72.8 43.32 73.06 43.32 73.19 43.33 73.45 43.38 73.71 43.34 73.85 43.35 73.98 43.35 74.24 43.42 74.37 43.37 75.02 43.44 75.54 43.44 75.67 43.45 76.72 43.47 76.85 43.47 76.98 43.47 77.37 43.53 77.5 43.54 77.63 43.49 77.89 43.49 78.15 43.49 78.41 43.55 79.59 43.52"/>
      </g>
      <g stroke-width="0.3" fill="#000000" fill-opacity="0.000" class="geometry color_oldfull_fail" stroke-dasharray="none" stroke="#FFA500" id="fig-4e5c45c814f5438484c889b81982d739-element-17">
        <path fill="none" d="M21.63,41.4 L 21.76 41.4 21.89 42.15 22.02 41 22.15 41.1 22.28 41.94 22.41 41.73 22.55 41.95 22.81 40.49 22.94 40.51 23.2 40.42 23.46 40.87 23.59 40.66 23.85 40.97 23.98 40.88 24.9 41.15 25.29 41.15 25.55 41.15 26.46 41.06 26.59 40.89 26.72 39.91 26.85 39.91 26.98 40.41 27.11 40.41 27.24 40.71 27.38 40.71 27.51 40.71 27.64 41.11 27.77 41.11 27.9 41.65 28.16 41.66 28.29 41.56 28.42 41.36 28.55 41.49 28.68 41.49 28.81 41.69 28.94 41.7 29.07 41.7 29.2 41.5 29.33 41.89 29.46 41.8 29.59 41.71 29.72 41.52 29.86 45.71 29.99 41.92 30.12 41.45 30.25 41.65 31.03 41.54 31.16 41.93 31.29 42.32 31.42 42.33 31.55 42.25 31.68 42.63 31.81 42.55 31.94 42.55 32.07 42.65 32.2 42.94 32.47 42.48 32.6 42.59 32.73 42.77 32.86 42.59 32.99 42.77 33.12 42.77 33.25 42.44 33.38 42.53 33.64 42.9 33.77 42.91 33.9 42.92 34.03 42.84 34.16 42.75 34.29 42.95 34.55 42.95 34.69 43.07 34.82 43.15 34.95 43.15 35.21 43.02 35.47 42.44 35.6 42.87 35.73 42.79 35.86 42.79 36.25 42.8 36.38 42.8 36.51 42.55 36.64 42.72 36.77 42.63 36.9 42.64 37.03 42.82 37.17 42.74 37.43 42.83 37.56 42.91 37.82 42.91 37.95 42.92 38.08 42.94 38.21 42.94 38.47 42.95 38.6 42.95 38.73 42.96 38.86 42.89 38.99 42.9 39.12 42.82 39.25 42.99 39.38 42.84 39.51 42.76 39.65 42.77 39.78 42.61 39.91 42.53 40.04 42.61 40.3 42.48 40.43 42.56 40.56 42.81 40.69 42.57 40.82 42.57 40.95 42.67 41.08 42.44 41.21 42.53 41.47 42.84 41.6 42.78 41.86 42.79 41.99 42.79 42.13 42.79 42.65 42.79 43.04 42.76 43.17 42.69 43.3 42.77 43.43 42.63 43.56 42.63 43.69 42.87 43.82 42.54 43.95 42.46 44.08 42.46 44.34 42.54 44.48 42.7 44.61 42.63 44.74 42.71 44.87 42.71 45 42.56 45.13 42.71 45.39 42.86 45.52 42.87 45.65 42.87 45.78 42.88 45.91 42.8 46.04 42.97 46.17 42.97 46.3 42.98 46.69 42.55 46.82 42.77 46.96 42.79 47.09 42.94 47.22 42.79 47.35 42.94 47.48 42.96 47.61 42.88 47.74 42.89 47.87 42.82 48 43.04 48.13 42.97 48.26 42.89 48.39 42.98 48.52 42.99 48.65 42.91 48.78 43.06 48.91 42.85 49.04 42.85 49.17 43 49.3 42.93 49.44 42.87 49.57 42.87 49.7 42.87 49.83 42.81 49.96 42.88 50.09 43.03 50.22 42.82 50.35 42.89 50.48 42.89 50.87 42.75 51.52 42.78 51.65 42.66 51.78 42.66 51.92 42.52 52.05 42.59 52.18 42.82 52.31 42.82 52.83 42.79 52.96 42.79 53.61 42.65 53.87 42.65 54 42.38 54.13 42.53 54.27 42.6 54.4 42.74 54.53 42.75 54.66 42.62 55.05 42.5 55.18 42.5 55.44 42.46 55.57 42.26 55.7 42.6 56.09 42.53 56.35 42.68 56.75 42.63 57.27 42.51 57.53 42.66 57.92 42.42 58.83 42.33 59.36 42.45 59.49 42.46 59.62 42.46 59.75 42.18 59.88 42.05 60.01 41.99 60.27 42.11 60.4 42.13 60.53 42.13 60.66 42.09 60.79 41.91 60.92 42.22 61.05 42.22 61.31 42.24 61.44 42.25 61.57 42.32 62.1 42.19 62.23 42.3 62.36 42.12 62.62 42.56 62.88 42.58 63.01 42.52 63.4 42.41 64.06 42.41 64.71 42.51 65.36 42.06 65.49 41.83 65.62 41.89 65.75 41.84 65.88 42.14 66.14 42.08 66.4 42.14 66.93 41.92 67.06 41.99 67.19 42.17 67.32 42.05 67.45 42.12 67.58 42 67.71 42.19 69.28 42.14 69.54 42.2 69.67 42.04 69.93 42.21 70.45 42.34 70.71 42.28 70.97 42.01 71.5 42.18 71.76 42.08 71.89 42.54 72.15 42.68 72.28 42.51 72.41 42.58 72.54 42.48 72.67 42.54 72.8 42.77 73.06 42.6 73.19 42.55 73.45 42.72 73.71 42.68 73.85 42.58 73.98 42.7 74.24 42.6 74.37 42.55 75.02 42.41 75.54 42.58 75.67 42.59 76.72 42.67 76.85 42.72 76.98 42.67 77.37 42.9 77.5 42.9 77.63 42.85 77.89 42.6 78.15 42.7 78.41 42.66 79.59 42.79"/>
      </g>
      <g stroke-width="0.3" fill="#000000" fill-opacity="0.000" class="geometry color_newtests_pass" stroke-dasharray="none" stroke="#008000" id="fig-4e5c45c814f5438484c889b81982d739-element-18">
        <path fill="none" d="M21.63,32.16 L 21.76 32.16 21.89 32.93 22.02 32.41 22.15 32.41 22.28 33.14 22.41 33.35 22.55 33.19 22.81 33.08 22.94 33.02 23.2 32.96 23.46 32.63 23.59 32.84 23.85 32.43 23.98 32.47 24.9 31.93 25.29 31.93 25.55 31.93 26.46 32.08 26.59 32.07 26.72 33.21 26.85 33.21 26.98 32.61 27.11 32.61 27.24 32.41 27.38 32.41 27.51 32.41 27.64 31.91 27.77 31.91 27.9 31.45 28.16 31.3 28.29 30.9 28.42 30.9 28.55 30.6 28.68 30.6 28.81 30.11 28.94 29.96 29.07 30.06 29.2 30.16 29.33 29.77 29.46 29.87 29.59 29.82 29.72 30.01 29.86 26.98 29.99 29.48 30.12 29.92 30.25 29.68 31.03 29.5 31.16 29.07 31.29 28.65 31.42 28.52 31.55 28.62 31.68 28.25 31.81 28.44 31.94 28.35 32.07 28.31 32.2 29.47 32.47 28.27 32.6 28.19 32.73 28 32.86 28.19 32.99 28 33.12 28 33.25 28.25 33.38 28.16 33.64 27.67 33.77 27.68 33.9 27.73 34.03 27.79 34.16 27.7 34.29 27.44 34.55 27.41 34.69 27.39 34.82 27.3 34.95 27.3 35.21 27.64 35.47 29.6 35.6 29.34 35.73 27.67 35.86 27.75 36.25 27.55 36.38 27.55 36.51 27.77 36.64 27.6 36.77 27.51 36.9 27.39 37.03 27.27 37.17 27.24 37.43 27.15 37.56 26.98 37.82 27.07 37.95 26.95 38.08 26.85 38.21 26.85 38.47 26.98 38.6 26.9 38.73 27 38.86 27.05 38.99 27.02 39.12 27.15 39.25 26.95 39.38 27.21 39.51 27.3 39.65 27.18 39.78 29.1 39.91 28.69 40.04 28.61 40.3 27.37 40.43 27.21 40.56 26.94 40.69 27.1 40.82 27.1 40.95 27 41.08 27.05 41.21 27.1 41.47 26.26 41.6 26.17 41.86 26.27 41.99 26.27 42.13 26.27 42.65 26.27 43.04 25.85 43.17 25.91 43.3 25.88 43.43 25.9 43.56 25.82 43.69 25.5 43.82 25.67 43.95 25.67 44.08 25.67 44.34 25.83 44.48 25.72 44.61 25.85 44.74 25.7 44.87 25.77 45 25.98 45.13 25.82 45.39 25.7 45.52 25.59 45.65 25.59 45.78 25.61 45.91 25.9 46.04 25.56 46.17 25.48 46.3 25.43 46.69 25.76 46.82 25.6 46.96 25.63 47.09 25.38 47.22 25.53 47.35 25.38 47.48 25.32 47.61 25.4 47.74 25.52 47.87 25.64 48 25.5 48.13 25.64 48.26 25.64 48.39 25.54 48.52 25.49 48.65 25.57 48.78 25.42 48.91 25.61 49.04 25.61 49.17 25.44 49.3 25.51 49.44 25.61 49.57 25.51 49.7 25.51 49.83 25.56 49.96 25.41 50.09 25.27 50.22 25.39 50.35 25.31 50.48 25.51 50.87 25.36 51.52 25.31 51.65 25.4 51.78 25.4 51.92 25.45 52.05 25.31 52.18 25.16 52.31 25.16 52.83 25.12 52.96 25.12 53.61 25.23 53.87 25.23 54 25.83 54.13 25.39 54.27 25.18 54.4 25.05 54.53 25 54.66 25.11 55.05 25.34 55.18 25.32 55.44 25.38 55.57 25.56 55.7 25.23 56.09 25.23 56.35 25.04 56.75 25.07 57.27 25.09 57.53 24.96 57.92 25.13 58.83 25.19 59.36 25.11 59.49 25.06 59.62 25.06 59.75 25.52 59.88 25.71 60.01 25.71 60.27 25.59 60.4 25.54 60.53 25.54 60.66 25.6 60.79 25.77 60.92 25.45 61.05 25.45 61.31 25.45 61.44 25.41 61.57 25.33 62.1 25.52 62.23 25.44 62.36 25.63 62.62 25.2 62.88 25.2 63.01 25.26 63.4 25.34 64.06 25.34 64.71 25.1 65.36 27.02 65.49 26.72 65.62 26.25 65.75 25.97 65.88 25.68 66.14 25.8 66.4 25.74 66.93 25.93 67.06 25.89 67.19 25.63 67.32 25.75 67.45 25.65 67.58 25.73 67.71 25.63 69.28 25.73 69.54 25.67 69.67 25.66 69.93 25.44 70.45 25.42 70.71 25.36 70.97 25.64 71.5 25.47 71.76 25.54 71.89 25.13 72.15 25.03 72.28 25.2 72.41 25.13 72.54 25.13 72.67 25.18 72.8 24.94 73.06 25.09 73.19 25.07 73.45 24.9 73.71 24.98 73.85 25.14 73.98 25.01 74.24 24.98 74.37 25.12 75.02 25.21 75.54 25.07 75.67 25.08 76.72 25.17 76.85 25.23 76.98 25.28 77.37 24.96 77.5 24.94 77.63 24.92 77.89 25.1 78.15 25.05 78.41 25.03 79.59 24.79"/>
      </g>
    </g>
  </g>
  <g class="guide ylabels" font-size="2.82" font-family="'PT Sans Caption','Helvetica Neue','Helvetica',sans-serif" fill="#6C606B" id="fig-4e5c45c814f5438484c889b81982d739-element-19">
    <text x="18.63" y="45.71" text-anchor="end" dy="0.35em">0</text>
    <text x="18.63" y="30.16" text-anchor="end" dy="0.35em">50</text>
    <text x="18.63" y="14.61" text-anchor="end" dy="0.35em">100</text>
  </g>
  <g font-size="3.88" font-family="'PT Sans','Helvetica Neue','Helvetica',sans-serif" fill="#564A55" stroke="#000000" stroke-opacity="0.000" id="fig-4e5c45c814f5438484c889b81982d739-element-20">
    <text x="8.81" y="28.16" text-anchor="middle" dy="0.35em" transform="rotate(-90, 8.81, 30.16)">Percentage of Packages</text>
  </g>
  <g font-size="3.88" font-family="'PT Sans','Helvetica Neue','Helvetica',sans-serif" fill="#564A55" stroke="#000000" stroke-opacity="0.000" id="fig-4e5c45c814f5438484c889b81982d739-element-21">
    <text x="58.12" y="10.61" text-anchor="middle">Julia v0.3 (relative)</text>
  </g>
</g>
<defs>
<clipPath id="fig-4e5c45c814f5438484c889b81982d739-element-5">
  <path d="M19.63,12.61 L 96.6 12.61 96.6 47.71 19.63 47.71" />
</clipPath
></defs>
</svg>
