<?xml version="1.0" encoding="UTF-8"?>
<svg xmlns="http://www.w3.org/2000/svg"
     xmlns:xlink="http://www.w3.org/1999/xlink"
     xmlns:gadfly="http://www.gadflyjl.org/ns"
     version="1.2"
     width="101.6mm" height="76.2mm" viewBox="0 0 101.6 76.2"
     stroke="none"
     fill="#000000"
     stroke-width="0.3"
     font-size="3.88"
>
<g class="plotroot xscalable yscalable" id="fig-07dddd4088714b95b00ff1d76bd287e8-element-1">
  <g font-size="3.88" font-family="'PT Sans','Helvetica Neue','Helvetica',sans-serif" fill="#564A55" stroke="#000000" stroke-opacity="0.000" id="fig-07dddd4088714b95b00ff1d76bd287e8-element-2">
    <text x="58.12" y="64.59" text-anchor="middle" dy="0.6em">Date</text>
  </g>
  <g class="guide xlabels" font-size="2.82" font-family="'PT Sans Caption','Helvetica Neue','Helvetica',sans-serif" fill="#6C606B" id="fig-07dddd4088714b95b00ff1d76bd287e8-element-3">
    <text x="21.89" y="48.71" text-anchor="end" dy="0.35em" transform="rotate(-90, 21.89, 48.71)">Apr</text>
    <text x="25.78" y="48.71" text-anchor="end" dy="0.35em" transform="rotate(-90, 25.78, 48.71)">May</text>
    <text x="29.8" y="48.71" text-anchor="end" dy="0.35em" transform="rotate(-90, 29.8, 48.71)">Jun</text>
    <text x="33.69" y="48.71" text-anchor="end" dy="0.35em" transform="rotate(-90, 33.69, 48.71)">Jul</text>
    <text x="37.7" y="48.71" text-anchor="end" dy="0.35em" transform="rotate(-90, 37.7, 48.71)">Aug</text>
    <text x="41.72" y="48.71" text-anchor="end" dy="0.35em" transform="rotate(-90, 41.72, 48.71)">Sep</text>
    <text x="45.61" y="48.71" text-anchor="end" dy="0.35em" transform="rotate(-90, 45.61, 48.71)">Oct</text>
    <text x="49.63" y="48.71" text-anchor="end" dy="0.35em" transform="rotate(-90, 49.63, 48.71)">Nov</text>
    <text x="53.51" y="48.71" text-anchor="end" dy="0.35em" transform="rotate(-90, 53.51, 48.71)">Dec</text>
    <text x="57.53" y="48.71" text-anchor="end" dy="0.35em" transform="rotate(-90, 57.53, 48.71)">Jan 2015</text>
    <text x="61.55" y="48.71" text-anchor="end" dy="0.35em" transform="rotate(-90, 61.55, 48.71)">Feb</text>
    <text x="65.18" y="48.71" text-anchor="end" dy="0.35em" transform="rotate(-90, 65.18, 48.71)">Mar</text>
    <text x="69.2" y="48.71" text-anchor="end" dy="0.35em" transform="rotate(-90, 69.2, 48.71)">Apr</text>
    <text x="73.09" y="48.71" text-anchor="end" dy="0.35em" transform="rotate(-90, 73.09, 48.71)">May</text>
    <text x="77.1" y="48.71" text-anchor="end" dy="0.35em" transform="rotate(-90, 77.1, 48.71)">Jun</text>
    <text x="80.99" y="48.71" text-anchor="end" dy="0.35em" transform="rotate(-90, 80.99, 48.71)">Jul</text>
    <text x="85.01" y="48.71" text-anchor="end" dy="0.35em" transform="rotate(-90, 85.01, 48.71)">Aug</text>
    <text x="89.03" y="48.71" text-anchor="end" dy="0.35em" transform="rotate(-90, 89.03, 48.71)">Sep</text>
    <text x="92.92" y="48.71" text-anchor="end" dy="0.35em" transform="rotate(-90, 92.92, 48.71)">Oct</text>
  </g>
  <g clip-path="url(#fig-07dddd4088714b95b00ff1d76bd287e8-element-5)" id="fig-07dddd4088714b95b00ff1d76bd287e8-element-4">
    <g pointer-events="visible" opacity="1" fill="#000000" fill-opacity="0.000" stroke="#000000" stroke-opacity="0.000" class="guide background" id="fig-07dddd4088714b95b00ff1d76bd287e8-element-6">
      <rect x="19.63" y="12.61" width="76.97" height="35.1"/>
    </g>
    <g class="guide ygridlines xfixed" stroke-dasharray="0.5,0.5" stroke-width="0.2" stroke="#D0D0E0" id="fig-07dddd4088714b95b00ff1d76bd287e8-element-7">
      <path fill="none" d="M19.63,45.71 L 96.6 45.71"/>
      <path fill="none" d="M19.63,30.16 L 96.6 30.16"/>
      <path fill="none" d="M19.63,14.61 L 96.6 14.61"/>
    </g>
    <g class="guide xgridlines yfixed" stroke-dasharray="0.5,0.5" stroke-width="0.2" stroke="#D0D0E0" id="fig-07dddd4088714b95b00ff1d76bd287e8-element-8">
      <path fill="none" d="M21.89,12.61 L 21.89 47.71"/>
      <path fill="none" d="M25.78,12.61 L 25.78 47.71"/>
      <path fill="none" d="M29.8,12.61 L 29.8 47.71"/>
      <path fill="none" d="M33.69,12.61 L 33.69 47.71"/>
      <path fill="none" d="M37.7,12.61 L 37.7 47.71"/>
      <path fill="none" d="M41.72,12.61 L 41.72 47.71"/>
      <path fill="none" d="M45.61,12.61 L 45.61 47.71"/>
      <path fill="none" d="M49.63,12.61 L 49.63 47.71"/>
      <path fill="none" d="M53.51,12.61 L 53.51 47.71"/>
      <path fill="none" d="M57.53,12.61 L 57.53 47.71"/>
      <path fill="none" d="M61.55,12.61 L 61.55 47.71"/>
      <path fill="none" d="M65.18,12.61 L 65.18 47.71"/>
      <path fill="none" d="M69.2,12.61 L 69.2 47.71"/>
      <path fill="none" d="M73.09,12.61 L 73.09 47.71"/>
      <path fill="none" d="M77.1,12.61 L 77.1 47.71"/>
      <path fill="none" d="M80.99,12.61 L 80.99 47.71"/>
      <path fill="none" d="M85.01,12.61 L 85.01 47.71"/>
      <path fill="none" d="M89.03,12.61 L 89.03 47.71"/>
      <path fill="none" d="M92.92,12.61 L 92.92 47.71"/>
    </g>
    <g class="plotpanel" id="fig-07dddd4088714b95b00ff1d76bd287e8-element-9">
      <g stroke-width="0.3" fill="#000000" fill-opacity="0.000" class="geometry color_newnot_possible" stroke-dasharray="none" stroke="#808080" id="fig-07dddd4088714b95b00ff1d76bd287e8-element-10">
        <path fill="none" d="M79.57,42.94 L 79.7 42.94 79.82 42.95 79.95 42.95 80.08 42.96 80.21 42.96 80.34 42.96 80.47 42.96 80.86 42.96 81.12 42.97 81.38 43.02 81.51 42.98 81.64 42.99 81.77 43 81.9 43.01 82.03 43.01 84.23 43.02 85.27 43.04 86.43 43.06 88.64 43.12 89.03 43.12 89.67 42.99 90.32 42.85 92.4 42.89 92.92 42.92 93.56 42.93 94.08 42.94 94.6 42.94"/>
      </g>
      <g stroke-width="0.3" fill="#000000" fill-opacity="0.000" class="geometry color_newno_tests" stroke-dasharray="none" stroke="#0000FF" id="fig-07dddd4088714b95b00ff1d76bd287e8-element-11">
        <path fill="none" d="M79.57,40.12 L 79.7 40.12 79.82 40.13 79.95 40.13 80.08 40.15 80.21 40.15 80.34 40.15 80.47 40.16 80.86 40.16 81.12 40.18 81.38 40.17 81.51 40.19 81.64 40.28 81.77 40.3 81.9 40.3 82.03 40.36 84.23 40.43 85.27 40.47 86.43 40.51 88.64 40.62 89.03 40.69 89.67 40.69 90.32 40.76 92.4 40.97 92.92 41.15 93.56 41.27 94.08 41.27 94.6 41.29"/>
      </g>
      <g stroke-width="0.3" fill="#000000" fill-opacity="0.000" class="geometry color_newtests_fail" stroke-dasharray="none" stroke="#FF0000" id="fig-07dddd4088714b95b00ff1d76bd287e8-element-12">
        <path fill="none" d="M79.57,42.78 L 79.7 42.62 79.82 42.58 79.95 42.53 80.08 42.44 80.21 42.59 80.34 42.39 80.47 42.55 80.86 42.44 81.12 42.4 81.38 42.35 81.51 42.51 81.64 40.89 81.77 42.44 81.9 42.14 82.03 42.19 84.23 42.47 85.27 42.54 86.43 42.18 88.64 41.44 89.03 41.69 89.67 41.98 90.32 42.23 92.4 42.24 92.92 42.03 93.56 42.24 94.08 42.29 94.6 42.16"/>
      </g>
      <g stroke-width="0.3" fill="#000000" fill-opacity="0.000" class="geometry color_newtests_pass" stroke-dasharray="none" stroke="#008000" id="fig-07dddd4088714b95b00ff1d76bd287e8-element-13">
        <path fill="none" d="M79.57,25.9 L 79.7 26.06 79.82 26.07 79.95 26.12 80.08 26.19 80.21 26.03 80.34 26.24 80.47 26.07 80.86 26.17 81.12 26.18 81.38 26.2 81.51 26.06 81.64 27.57 81.77 26 81.9 26.29 82.03 26.18 84.23 25.82 85.27 25.69 86.43 25.99 88.64 26.56 89.03 26.24 89.67 26.08 90.32 25.9 92.4 25.63 92.92 25.64 93.56 25.3 94.08 25.24 94.6 25.35"/>
      </g>
      <g stroke-width="0.3" fill="#000000" fill-opacity="0.000" class="geometry color_newnot_possible" stroke-dasharray="none" stroke="#808080" id="fig-07dddd4088714b95b00ff1d76bd287e8-element-14">
        <path fill="none" d="M21.63,42.35 L 21.76 42.35 21.89 42.36 22.02 42.36 22.15 42.36 22.28 42.36 22.41 42.36 22.54 42.37 22.8 42.37 22.93 42.38 23.19 42.39 23.45 42.41 23.58 42.41 23.83 42.41 23.96 42.42 24.87 42.47 25.26 42.47 25.52 42.47 26.43 42.58 26.56 42.6 26.69 42.61 26.82 42.61 26.95 42.61 27.08 42.51 27.2 42.51 27.33 42.51 27.46 42.51 27.59 42.31 27.72 42.31 27.85 42.34 28.11 42.25 28.24 42.94 28.37 42.94 28.5 42.96 28.63 42.96 28.76 42.96 28.89 42.97 29.02 42.97 29.15 42.97 29.28 42.97 29.41 42.97 29.54 42.98 29.67 42.98 29.8 42.59 29.93 42.99 30.06 43 30.19 43 30.96 42.58 31.09 42.49 31.22 42.5 31.35 42.51 31.48 42.53 31.61 42.44 31.74 42.27 31.87 42.27 32 42.28 32.13 42.29 32.39 42.29 32.52 42.31 32.65 42.31 32.78 42.31 32.91 42.31 33.04 42.31 33.17 42.34 33.3 42.34 33.56 42.35 33.69 42.37 33.81 42.38 33.94 42.39 34.07 42.39 34.2 42.41 34.46 42.42 34.59 42.45 34.72 42.45 34.85 42.45 35.11 42.49 35.37 42.52 35.5 42.52 35.63 42.53 35.76 42.53 36.15 42.54 36.28 42.54 36.41 42.55 36.54 42.55 36.67 42.55 36.8 42.56 36.93 42.48 37.05 42.49 37.31 42.49 37.44 42.49 37.7 42.49 37.83 42.5 37.96 42.52 38.09 42.52 38.35 42.53 38.48 42.53 38.61 42.55 38.74 42.56 38.87 42.57 39 42.57 39.13 42.58 39.26 42.6 39.39 42.52 39.52 42.44 39.65 42.45 39.78 42.45 39.91 42.45 40.17 42.48 40.29 42.48 40.42 42.49 40.55 42.49 40.68 42.49 40.81 42.51 40.94 42.52 41.07 42.53 41.33 42.43 41.46 42.37 41.72 42.39 41.85 42.39 41.98 42.31 42.5 42.31 42.89 42.36 43.02 42.37 43.15 42.38 43.28 42.39 43.41 42.39 43.54 42.39 43.66 42.46 43.79 42.46 43.92 42.46 44.18 42.38 44.31 42.39 44.44 42.4 44.57 42.4 44.7 42.4 44.83 42.41 44.96 42.33 45.22 42.32 45.35 42.33 45.48 42.33 45.61 42.35 45.74 42.29 45.87 42.29 46 42.29 46.13 42.3 46.52 42.32 46.65 42.24 46.78 42.26 46.9 42.27 47.03 42.27 47.16 42.27 47.29 42.29 47.42 42.29 47.55 42.29 47.68 42.3 47.81 42.23 47.94 42.23 48.07 42.23 48.2 42.24 48.33 42.25 48.46 42.25 48.59 42.25 48.72 42.26 48.85 42.26 48.98 42.27 49.11 42.27 49.24 42.29 49.37 42.29 49.5 42.29 49.63 42.3 49.76 42.3 49.89 42.3 50.02 42.31 50.15 42.31 50.27 42.32 50.66 42.32 51.31 42.36 51.44 42.37 51.57 42.37 51.7 42.38 51.83 42.38 51.96 42.4 52.09 42.4 52.61 42.44 52.74 42.44 53.39 42.45 53.64 42.45 53.77 42.52 53.9 42.53 54.03 42.53 54.16 42.53 54.29 42.54 54.42 42.55 54.81 42.56 54.94 42.57 55.2 42.59 55.33 42.6 55.46 42.6 55.85 42.6 56.11 42.61 56.5 42.63 57.01 42.64 57.27 42.66 57.66 42.68 58.57 42.72 59.09 42.77 59.22 42.65 59.35 42.65 59.48 42.62 59.61 42.62 59.74 42.62 60 42.62 60.12 42.63 60.25 42.63 60.38 42.65 60.51 42.65 60.64 42.65 60.77 42.65 61.03 42.61 61.16 42.62 61.29 42.63 61.81 42.68 61.94 42.67 62.07 42.67 62.33 42.68 62.59 42.7 62.72 42.7 63.11 42.71 63.75 42.71 64.4 42.75 65.05 42.77 65.18 42.77 65.31 42.77 65.44 42.37 65.57 42.43 65.83 42.37 66.09 42.37 66.61 42.38 66.73 42.4 66.86 42.4 66.99 42.4 67.12 42.41 67.25 42.47 67.38 42.42 68.94 42.37 69.2 42.31 69.33 42.33 69.59 42.33 70.1 42.34 70.36 42.34 70.62 42.35 71.14 42.35 71.4 42.37 71.53 42.37 71.79 42.4 71.92 42.4 72.05 42.41 72.18 42.43 72.31 42.43 72.44 42.43 72.7 42.44 72.83 42.44 73.09 42.44 73.34 42.46 73.47 42.47 73.6 42.48 73.86 42.49 73.99 42.5 74.64 42.52 75.16 42.58 75.29 42.54 76.33 42.56 76.46 42.45 76.58 42.45 76.97 42.47 77.1 42.48 77.23 42.54 77.49 42.55 77.75 42.55 78.01 42.55 79.18 42.58"/>
      </g>
      <g stroke-width="0.3" fill="#000000" fill-opacity="0.000" class="geometry color_newtests_fail" stroke-dasharray="none" stroke="#FF0000" id="fig-07dddd4088714b95b00ff1d76bd287e8-element-15">
        <path fill="none" d="M21.63,41.51 L 21.76 41.51 21.89 39.95 22.02 41.62 22.15 41.52 22.28 39.84 22.41 39.84 22.54 39.86 22.8 41.53 22.93 41.55 23.19 41.67 23.45 41.69 23.58 41.69 23.83 41.8 23.96 41.81 24.87 41.96 25.26 41.96 25.52 41.96 26.43 41.87 26.56 42 26.69 41.81 26.82 41.81 26.95 41.91 27.08 42.01 27.2 41.91 27.33 41.91 27.46 41.91 27.59 42.01 27.72 42.01 27.85 41.85 28.11 41.96 28.24 41.76 28.37 41.96 28.5 42.18 28.63 42.18 28.76 42.27 28.89 42.29 29.02 42.19 29.15 42.29 29.28 42.29 29.41 42.29 29.54 42.39 29.67 42.39 29.8 42.81 29.93 42.79 30.06 42.8 30.19 42.81 30.96 43.43 31.09 43.53 31.22 43.54 31.35 43.55 31.48 43.47 31.61 43.56 31.74 43.57 31.87 43.57 32 43.49 32.13 41.74 32.39 43.49 32.52 43.6 32.65 43.6 32.78 43.6 32.91 43.6 33.04 43.6 33.17 43.62 33.3 43.62 33.56 43.62 33.69 43.64 33.81 43.55 33.94 43.56 34.07 43.56 34.2 43.57 34.46 43.58 34.59 43.42 34.72 43.42 34.85 43.42 35.11 43.28 35.37 41.57 35.5 41.49 35.63 43.3 35.76 43.22 36.15 43.4 36.28 43.4 36.41 43.4 36.54 43.4 36.67 43.49 36.8 43.58 36.93 43.58 37.05 43.59 37.31 43.59 37.44 43.67 37.7 43.59 37.83 43.68 37.96 43.7 38.09 43.7 38.35 43.7 38.48 43.7 38.61 43.55 38.74 43.64 38.87 43.64 39 43.56 39.13 43.57 39.26 43.42 39.39 43.5 39.52 43.67 39.65 41.39 39.78 41.88 39.91 41.88 40.17 43.77 40.29 43.85 40.42 43.77 40.55 43.86 40.68 43.77 40.81 43.79 40.94 43.95 41.07 43.72 41.33 43.99 41.46 44.08 41.72 43.93 41.85 43.93 41.98 44.01 42.5 44.01 42.89 44.43 43.02 44.44 43.15 44.44 43.28 44.52 43.41 44.6 43.54 44.6 43.66 44.63 43.79 44.63 43.92 44.63 44.18 44.47 44.31 44.47 44.44 44.4 44.57 44.48 44.7 44.4 44.83 44.25 44.96 44.33 45.22 44.4 45.35 44.48 45.48 44.48 45.61 44.41 45.74 44.4 45.87 44.42 46 44.49 46.13 44.5 46.52 44.5 46.65 44.5 46.78 44.51 46.9 44.59 47.03 44.59 47.16 44.59 47.29 44.59 47.42 44.59 47.55 44.45 47.68 44.38 47.81 44.38 47.94 44.23 48.07 44.38 48.2 44.38 48.33 44.39 48.46 44.39 48.59 44.39 48.72 44.31 48.85 44.39 48.98 44.32 49.11 44.39 49.24 44.32 49.37 44.4 49.5 44.4 49.63 44.4 49.76 44.48 49.89 44.48 50.02 44.55 50.15 44.55 50.27 44.34 50.66 44.63 51.31 44.57 51.44 44.57 51.57 44.57 51.7 44.65 51.83 44.72 51.96 44.58 52.09 44.58 52.61 44.53 52.74 44.6 53.39 44.6 53.64 44.6 53.77 44.18 53.9 44.4 54.03 44.6 54.16 44.6 54.29 44.61 54.42 44.54 54.81 44.48 54.94 44.48 55.2 44.42 55.33 44.49 55.46 44.49 55.85 44.49 56.11 44.56 56.5 44.57 57.01 44.57 57.27 44.58 57.66 44.59 58.57 44.54 59.09 44.43 59.22 44.56 59.35 44.56 59.48 44.32 59.61 44.32 59.74 44.38 60 44.38 60.12 44.33 60.25 44.33 60.38 44.27 60.51 44.34 60.64 44.34 60.77 44.34 61.03 44.35 61.16 44.35 61.29 44.35 61.81 44.19 61.94 44.19 62.07 44.19 62.33 44.14 62.59 44.08 62.72 44.08 63.11 44.09 63.75 44.09 64.4 44.17 65.05 42.48 65.18 43.06 65.31 43.47 65.44 44.19 65.57 44.19 65.83 44.19 66.09 44.19 66.61 44.19 66.73 44.14 66.86 44.14 66.99 44.14 67.12 44.15 67.25 44.14 67.38 44.09 68.94 44.04 69.2 44.1 69.33 44.22 69.59 44.22 70.1 44.11 70.36 44.22 70.62 44.17 71.14 44.17 71.4 44.18 71.53 44.13 71.79 44.03 71.92 44.03 72.05 44.03 72.18 44.1 72.31 43.98 72.44 43.99 72.7 43.99 72.83 44.05 73.09 43.99 73.34 44 73.47 43.9 73.6 43.9 73.86 43.96 73.99 43.91 74.64 43.87 75.16 43.77 75.29 43.77 76.33 43.57 76.46 43.57 76.58 43.57 76.97 43.59 77.1 43.59 77.23 43.65 77.49 43.71 77.75 43.65 78.01 43.66 79.18 43.78"/>
      </g>
      <g stroke-width="0.3" fill="#000000" fill-opacity="0.000" class="geometry color_newno_tests" stroke-dasharray="none" stroke="#0000FF" id="fig-07dddd4088714b95b00ff1d76bd287e8-element-16">
        <path fill="none" d="M21.63,40.04 L 21.76 40.04 21.89 40.05 22.02 40.05 22.15 40.05 22.28 40.16 22.41 40.16 22.54 40.07 22.8 39.97 22.93 39.99 23.19 40.01 23.45 39.84 23.58 39.84 23.83 39.84 23.96 39.86 24.87 39.93 25.26 39.93 25.52 39.93 26.43 39.85 26.56 39.89 26.69 39.91 26.82 39.91 26.95 39.91 27.08 39.91 27.2 39.91 27.33 39.91 27.46 39.91 27.59 40.11 27.72 40.11 27.85 40.16 28.11 40.28 28.24 40.28 28.37 40.28 28.5 40.21 28.63 40.21 28.76 40.41 28.89 40.53 29.02 40.53 29.15 40.53 29.28 40.53 29.41 40.53 29.54 40.54 29.67 40.54 29.8 39.36 29.93 40.27 30.06 40.28 30.19 40.3 30.96 40.4 31.09 40.42 31.22 40.43 31.35 40.54 31.48 40.57 31.61 40.57 31.74 40.6 31.87 40.7 32 40.71 32.13 41 32.39 40.91 32.52 40.75 32.65 40.75 32.78 40.75 32.91 40.75 33.04 40.75 33.17 40.8 33.3 40.8 33.56 40.9 33.69 40.84 33.81 40.86 33.94 40.87 34.07 41.05 34.2 41.08 34.46 41.09 34.59 41.13 34.72 41.13 34.85 41.13 35.11 41.02 35.37 41.32 35.5 41.23 35.63 41.16 35.76 41.16 36.15 41.17 36.28 41.17 36.41 41.18 36.54 41.18 36.67 41.27 36.8 41.28 36.93 41.29 37.05 41.39 37.31 41.39 37.44 41.39 37.7 41.39 37.83 41.4 37.96 41.43 38.09 41.43 38.35 41.28 38.48 41.36 38.61 41.38 38.74 41.31 38.87 41.33 39 41.34 39.13 41.35 39.26 41.37 39.39 41.37 39.52 41.38 39.65 41.88 39.78 41.88 39.91 41.88 40.17 41.35 40.29 41.35 40.42 41.44 40.55 41.44 40.68 41.52 40.81 41.47 40.94 41.48 41.07 41.57 41.33 41.93 41.46 42.05 41.72 42.06 41.85 42.06 41.98 42.06 42.5 42.06 42.89 42.04 43.02 42.05 43.15 41.98 43.28 42 43.41 42 43.54 42.08 43.66 42.15 43.79 42.23 43.92 42.23 44.18 42.23 44.31 42.16 44.44 42.17 44.57 42.17 44.7 42.17 44.83 42.25 44.96 42.25 45.22 42.17 45.35 42.18 45.48 42.18 45.61 42.19 45.74 42.07 45.87 42.21 46 42.21 46.13 42.23 46.52 42.32 46.65 42.32 46.78 42.26 46.9 42.27 47.03 42.27 47.16 42.27 47.29 42.29 47.42 42.29 47.55 42.29 47.68 42.3 47.81 42.3 47.94 42.38 48.07 42.3 48.2 42.31 48.33 42.33 48.46 42.33 48.59 42.33 48.72 42.41 48.85 42.33 48.98 42.42 49.11 42.34 49.24 42.36 49.37 42.37 49.5 42.37 49.63 42.37 49.76 42.37 49.89 42.37 50.02 42.38 50.15 42.38 50.27 42.39 50.66 42.39 51.31 42.43 51.44 42.44 51.57 42.44 51.7 42.45 51.83 42.45 51.96 42.47 52.09 42.47 52.61 42.58 52.74 42.51 53.39 42.52 53.64 42.52 53.77 42.52 53.9 42.6 54.03 42.53 54.16 42.53 54.29 42.54 54.42 42.62 54.81 42.56 54.94 42.57 55.2 42.59 55.33 42.53 55.46 42.53 55.85 42.6 56.11 42.54 56.5 42.56 57.01 42.64 57.27 42.59 57.66 42.62 58.57 42.66 59.09 42.7 59.22 42.71 59.35 42.71 59.48 42.81 59.61 42.74 59.74 42.74 60 42.74 60.12 42.82 60.25 42.82 60.38 42.84 60.51 42.78 60.64 42.78 60.77 42.78 61.03 42.8 61.16 42.81 61.29 42.81 61.81 42.86 61.94 42.85 62.07 42.85 62.33 42.86 62.59 42.88 62.72 42.88 63.11 42.89 63.75 42.89 64.4 42.92 65.05 43.12 65.18 43.06 65.31 43.06 65.44 43.07 65.57 43.01 65.83 43.01 66.09 43.01 66.61 43.02 66.73 43.03 66.86 43.1 66.99 43.1 67.12 43.11 67.25 43.1 67.38 43.11 68.94 43.17 69.2 43.17 69.33 43.19 69.59 43.25 70.1 43.25 70.36 43.25 70.62 43.26 71.14 43.26 71.4 43.27 71.53 43.28 71.79 43.3 71.92 43.3 72.05 43.3 72.18 43.32 72.31 43.32 72.44 43.32 72.7 43.32 72.83 43.33 73.09 43.38 73.34 43.34 73.47 43.35 73.6 43.35 73.86 43.42 73.99 43.37 74.64 43.44 75.16 43.44 75.29 43.45 76.33 43.47 76.46 43.47 76.58 43.47 76.97 43.53 77.1 43.54 77.23 43.49 77.49 43.49 77.75 43.49 78.01 43.55 79.18 43.52"/>
      </g>
      <g stroke-width="0.3" fill="#000000" fill-opacity="0.000" class="geometry color_oldfull_fail" stroke-dasharray="none" stroke="#FFA500" id="fig-07dddd4088714b95b00ff1d76bd287e8-element-17">
        <path fill="none" d="M21.63,41.4 L 21.76 41.4 21.89 42.15 22.02 41 22.15 41.1 22.28 41.94 22.41 41.73 22.54 41.95 22.8 40.49 22.93 40.51 23.19 40.42 23.45 40.87 23.58 40.66 23.83 40.97 23.96 40.88 24.87 41.15 25.26 41.15 25.52 41.15 26.43 41.06 26.56 40.89 26.69 39.91 26.82 39.91 26.95 40.41 27.08 40.41 27.2 40.71 27.33 40.71 27.46 40.71 27.59 41.11 27.72 41.11 27.85 41.65 28.11 41.66 28.24 41.56 28.37 41.36 28.5 41.49 28.63 41.49 28.76 41.69 28.89 41.7 29.02 41.7 29.15 41.5 29.28 41.89 29.41 41.8 29.54 41.71 29.67 41.52 29.8 45.71 29.93 41.92 30.06 41.45 30.19 41.65 30.96 41.54 31.09 41.93 31.22 42.32 31.35 42.33 31.48 42.25 31.61 42.63 31.74 42.55 31.87 42.55 32 42.65 32.13 42.94 32.39 42.48 32.52 42.59 32.65 42.77 32.78 42.59 32.91 42.77 33.04 42.77 33.17 42.44 33.3 42.53 33.56 42.9 33.69 42.91 33.81 42.92 33.94 42.84 34.07 42.75 34.2 42.95 34.46 42.95 34.59 43.07 34.72 43.15 34.85 43.15 35.11 43.02 35.37 42.44 35.5 42.87 35.63 42.79 35.76 42.79 36.15 42.8 36.28 42.8 36.41 42.55 36.54 42.72 36.67 42.63 36.8 42.64 36.93 42.82 37.05 42.74 37.31 42.83 37.44 42.91 37.7 42.91 37.83 42.92 37.96 42.94 38.09 42.94 38.35 42.95 38.48 42.95 38.61 42.96 38.74 42.89 38.87 42.9 39 42.82 39.13 42.99 39.26 42.84 39.39 42.76 39.52 42.77 39.65 42.61 39.78 42.53 39.91 42.61 40.17 42.48 40.29 42.56 40.42 42.81 40.55 42.57 40.68 42.57 40.81 42.67 40.94 42.44 41.07 42.53 41.33 42.84 41.46 42.78 41.72 42.79 41.85 42.79 41.98 42.79 42.5 42.79 42.89 42.76 43.02 42.69 43.15 42.77 43.28 42.63 43.41 42.63 43.54 42.87 43.66 42.54 43.79 42.46 43.92 42.46 44.18 42.54 44.31 42.7 44.44 42.63 44.57 42.71 44.7 42.71 44.83 42.56 44.96 42.71 45.22 42.86 45.35 42.87 45.48 42.87 45.61 42.88 45.74 42.8 45.87 42.97 46 42.97 46.13 42.98 46.52 42.55 46.65 42.77 46.78 42.79 46.9 42.94 47.03 42.79 47.16 42.94 47.29 42.96 47.42 42.88 47.55 42.89 47.68 42.82 47.81 43.04 47.94 42.97 48.07 42.89 48.2 42.98 48.33 42.99 48.46 42.91 48.59 43.06 48.72 42.85 48.85 42.85 48.98 43 49.11 42.93 49.24 42.87 49.37 42.87 49.5 42.87 49.63 42.81 49.76 42.88 49.89 43.03 50.02 42.82 50.15 42.89 50.27 42.89 50.66 42.75 51.31 42.78 51.44 42.66 51.57 42.66 51.7 42.52 51.83 42.59 51.96 42.82 52.09 42.82 52.61 42.79 52.74 42.79 53.39 42.65 53.64 42.65 53.77 42.38 53.9 42.53 54.03 42.6 54.16 42.74 54.29 42.75 54.42 42.62 54.81 42.5 54.94 42.5 55.2 42.46 55.33 42.26 55.46 42.6 55.85 42.53 56.11 42.68 56.5 42.63 57.01 42.51 57.27 42.66 57.66 42.42 58.57 42.33 59.09 42.45 59.22 42.46 59.35 42.46 59.48 42.18 59.61 42.05 59.74 41.99 60 42.11 60.12 42.13 60.25 42.13 60.38 42.09 60.51 41.91 60.64 42.22 60.77 42.22 61.03 42.24 61.16 42.25 61.29 42.32 61.81 42.19 61.94 42.3 62.07 42.12 62.33 42.56 62.59 42.58 62.72 42.52 63.11 42.41 63.75 42.41 64.4 42.51 65.05 42.06 65.18 41.83 65.31 41.89 65.44 41.84 65.57 42.14 65.83 42.08 66.09 42.14 66.61 41.92 66.73 41.99 66.86 42.17 66.99 42.05 67.12 42.12 67.25 42 67.38 42.19 68.94 42.14 69.2 42.2 69.33 42.04 69.59 42.21 70.1 42.34 70.36 42.28 70.62 42.01 71.14 42.18 71.4 42.08 71.53 42.54 71.79 42.68 71.92 42.51 72.05 42.58 72.18 42.48 72.31 42.54 72.44 42.77 72.7 42.6 72.83 42.55 73.09 42.72 73.34 42.68 73.47 42.58 73.6 42.7 73.86 42.6 73.99 42.55 74.64 42.41 75.16 42.58 75.29 42.59 76.33 42.67 76.46 42.72 76.58 42.67 76.97 42.9 77.1 42.9 77.23 42.85 77.49 42.6 77.75 42.7 78.01 42.66 79.18 42.79"/>
      </g>
      <g stroke-width="0.3" fill="#000000" fill-opacity="0.000" class="geometry color_newtests_pass" stroke-dasharray="none" stroke="#008000" id="fig-07dddd4088714b95b00ff1d76bd287e8-element-18">
        <path fill="none" d="M21.63,32.16 L 21.76 32.16 21.89 32.93 22.02 32.41 22.15 32.41 22.28 33.14 22.41 33.35 22.54 33.19 22.8 33.08 22.93 33.02 23.19 32.96 23.45 32.63 23.58 32.84 23.83 32.43 23.96 32.47 24.87 31.93 25.26 31.93 25.52 31.93 26.43 32.08 26.56 32.07 26.69 33.21 26.82 33.21 26.95 32.61 27.08 32.61 27.2 32.41 27.33 32.41 27.46 32.41 27.59 31.91 27.72 31.91 27.85 31.45 28.11 31.3 28.24 30.9 28.37 30.9 28.5 30.6 28.63 30.6 28.76 30.11 28.89 29.96 29.02 30.06 29.15 30.16 29.28 29.77 29.41 29.87 29.54 29.82 29.67 30.01 29.8 26.98 29.93 29.48 30.06 29.92 30.19 29.68 30.96 29.5 31.09 29.07 31.22 28.65 31.35 28.52 31.48 28.62 31.61 28.25 31.74 28.44 31.87 28.35 32 28.31 32.13 29.47 32.39 28.27 32.52 28.19 32.65 28 32.78 28.19 32.91 28 33.04 28 33.17 28.25 33.3 28.16 33.56 27.67 33.69 27.68 33.81 27.73 33.94 27.79 34.07 27.7 34.2 27.44 34.46 27.41 34.59 27.39 34.72 27.3 34.85 27.3 35.11 27.64 35.37 29.6 35.5 29.34 35.63 27.67 35.76 27.75 36.15 27.55 36.28 27.55 36.41 27.77 36.54 27.6 36.67 27.51 36.8 27.39 36.93 27.27 37.05 27.24 37.31 27.15 37.44 26.98 37.7 27.07 37.83 26.95 37.96 26.85 38.09 26.85 38.35 26.98 38.48 26.9 38.61 27 38.74 27.05 38.87 27.02 39 27.15 39.13 26.95 39.26 27.21 39.39 27.3 39.52 27.18 39.65 29.1 39.78 28.69 39.91 28.61 40.17 27.37 40.29 27.21 40.42 26.94 40.55 27.1 40.68 27.1 40.81 27 40.94 27.05 41.07 27.1 41.33 26.26 41.46 26.17 41.72 26.27 41.85 26.27 41.98 26.27 42.5 26.27 42.89 25.85 43.02 25.91 43.15 25.88 43.28 25.9 43.41 25.82 43.54 25.5 43.66 25.67 43.79 25.67 43.92 25.67 44.18 25.83 44.31 25.72 44.44 25.85 44.57 25.7 44.7 25.77 44.83 25.98 44.96 25.82 45.22 25.7 45.35 25.59 45.48 25.59 45.61 25.61 45.74 25.9 45.87 25.56 46 25.48 46.13 25.43 46.52 25.76 46.65 25.6 46.78 25.63 46.9 25.38 47.03 25.53 47.16 25.38 47.29 25.32 47.42 25.4 47.55 25.52 47.68 25.64 47.81 25.5 47.94 25.64 48.07 25.64 48.2 25.54 48.33 25.49 48.46 25.57 48.59 25.42 48.72 25.61 48.85 25.61 48.98 25.44 49.11 25.51 49.24 25.61 49.37 25.51 49.5 25.51 49.63 25.56 49.76 25.41 49.89 25.27 50.02 25.39 50.15 25.31 50.27 25.51 50.66 25.36 51.31 25.31 51.44 25.4 51.57 25.4 51.7 25.45 51.83 25.31 51.96 25.16 52.09 25.16 52.61 25.12 52.74 25.12 53.39 25.23 53.64 25.23 53.77 25.83 53.9 25.39 54.03 25.18 54.16 25.05 54.29 25 54.42 25.11 54.81 25.34 54.94 25.32 55.2 25.38 55.33 25.56 55.46 25.23 55.85 25.23 56.11 25.04 56.5 25.07 57.01 25.09 57.27 24.96 57.66 25.13 58.57 25.19 59.09 25.11 59.22 25.06 59.35 25.06 59.48 25.52 59.61 25.71 59.74 25.71 60 25.59 60.12 25.54 60.25 25.54 60.38 25.6 60.51 25.77 60.64 25.45 60.77 25.45 61.03 25.45 61.16 25.41 61.29 25.33 61.81 25.52 61.94 25.44 62.07 25.63 62.33 25.2 62.59 25.2 62.72 25.26 63.11 25.34 63.75 25.34 64.4 25.1 65.05 27.02 65.18 26.72 65.31 26.25 65.44 25.97 65.57 25.68 65.83 25.8 66.09 25.74 66.61 25.93 66.73 25.89 66.86 25.63 66.99 25.75 67.12 25.65 67.25 25.73 67.38 25.63 68.94 25.73 69.2 25.67 69.33 25.66 69.59 25.44 70.1 25.42 70.36 25.36 70.62 25.64 71.14 25.47 71.4 25.54 71.53 25.13 71.79 25.03 71.92 25.2 72.05 25.13 72.18 25.13 72.31 25.18 72.44 24.94 72.7 25.09 72.83 25.07 73.09 24.9 73.34 24.98 73.47 25.14 73.6 25.01 73.86 24.98 73.99 25.12 74.64 25.21 75.16 25.07 75.29 25.08 76.33 25.17 76.46 25.23 76.58 25.28 76.97 24.96 77.1 24.94 77.23 24.92 77.49 25.1 77.75 25.05 78.01 25.03 79.18 24.79"/>
      </g>
    </g>
  </g>
  <g class="guide ylabels" font-size="2.82" font-family="'PT Sans Caption','Helvetica Neue','Helvetica',sans-serif" fill="#6C606B" id="fig-07dddd4088714b95b00ff1d76bd287e8-element-19">
    <text x="18.63" y="45.71" text-anchor="end" dy="0.35em">0</text>
    <text x="18.63" y="30.16" text-anchor="end" dy="0.35em">50</text>
    <text x="18.63" y="14.61" text-anchor="end" dy="0.35em">100</text>
  </g>
  <g font-size="3.88" font-family="'PT Sans','Helvetica Neue','Helvetica',sans-serif" fill="#564A55" stroke="#000000" stroke-opacity="0.000" id="fig-07dddd4088714b95b00ff1d76bd287e8-element-20">
    <text x="8.81" y="28.16" text-anchor="middle" dy="0.35em" transform="rotate(-90, 8.81, 30.16)">Percentage of Packages</text>
  </g>
  <g font-size="3.88" font-family="'PT Sans','Helvetica Neue','Helvetica',sans-serif" fill="#564A55" stroke="#000000" stroke-opacity="0.000" id="fig-07dddd4088714b95b00ff1d76bd287e8-element-21">
    <text x="58.12" y="10.61" text-anchor="middle">Julia v0.3 (relative)</text>
  </g>
</g>
<defs>
<clipPath id="fig-07dddd4088714b95b00ff1d76bd287e8-element-5">
  <path d="M19.63,12.61 L 96.6 12.61 96.6 47.71 19.63 47.71" />
</clipPath
></defs>
</svg>
