<?xml version="1.0" encoding="UTF-8"?>
<svg xmlns="http://www.w3.org/2000/svg"
     xmlns:xlink="http://www.w3.org/1999/xlink"
     xmlns:gadfly="http://www.gadflyjl.org/ns"
     version="1.2"
     width="101.6mm" height="76.2mm" viewBox="0 0 101.6 76.2"
     stroke="none"
     fill="#000000"
     stroke-width="0.3"
     font-size="3.88"
>
<g class="plotroot xscalable yscalable" id="img-53d28ff2-1">
  <g font-size="3.88" font-family="'PT Sans','Helvetica Neue','Helvetica',sans-serif" fill="#564A55" stroke="#000000" stroke-opacity="0.000" id="img-53d28ff2-2">
    <text x="58.12" y="64.59" text-anchor="middle" dy="0.6em">Date</text>
  </g>
  <g class="guide xlabels" font-size="2.82" font-family="'PT Sans Caption','Helvetica Neue','Helvetica',sans-serif" fill="#6C606B" id="img-53d28ff2-3">
    <text x="21.63" y="57.91" text-anchor="middle" dy="0.6em">2014</text>
    <text x="45.93" y="57.91" text-anchor="middle" dy="0.6em">2015</text>
    <text x="70.23" y="57.91" text-anchor="middle" dy="0.6em">2016</text>
    <text x="94.6" y="57.91" text-anchor="middle" dy="0.6em">2017</text>
  </g>
<g clip-path="url(#img-53d28ff2-4)">
  <g id="img-53d28ff2-5">
    <g pointer-events="visible" opacity="1" fill="#000000" fill-opacity="0.000" stroke="#000000" stroke-opacity="0.000" class="guide background" id="img-53d28ff2-6">
      <rect x="19.63" y="12.61" width="76.97" height="44.3"/>
    </g>
    <g class="guide ygridlines xfixed" stroke-dasharray="0.5,0.5" stroke-width="0.2" stroke="#D0D0E0" id="img-53d28ff2-7">
      <path fill="none" d="M19.63,54.91 L 96.6 54.91"/>
      <path fill="none" d="M19.63,34.76 L 96.6 34.76"/>
      <path fill="none" d="M19.63,14.61 L 96.6 14.61"/>
    </g>
    <g class="guide xgridlines yfixed" stroke-dasharray="0.5,0.5" stroke-width="0.2" stroke="#D0D0E0" id="img-53d28ff2-8">
      <path fill="none" d="M21.63,12.61 L 21.63 56.91"/>
      <path fill="none" d="M45.93,12.61 L 45.93 56.91"/>
      <path fill="none" d="M70.23,12.61 L 70.23 56.91"/>
      <path fill="none" d="M94.6,12.61 L 94.6 56.91"/>
    </g>
    <g class="plotpanel" id="img-53d28ff2-9">
      <g stroke-width="0.3" fill="#000000" fill-opacity="0.000" class="geometry color_newnot_possible" stroke-dasharray="none" stroke="#808080" id="img-53d28ff2-10">
        <path fill="none" d="M57.25,51.32 L 57.32 51.32 57.38 51.34 57.45 51.34 57.52 51.35 57.58 51.35 57.65 51.35 57.72 51.35 57.92 51.35 58.05 51.37 58.18 51.43 58.25 51.37 58.32 51.4 58.38 51.41 58.45 51.41 58.52 51.41 59.65 51.43 60.18 51.45 60.78 51.48 61.91 51.56 62.11 51.57 62.44 51.39 62.78 51.21 63.84 51.27 64.11 51.29 64.44 51.32 64.71 51.32 64.97 51.33 65.17 51.28 65.97 51.29 66.77 51.23 67.04 51.22 67.17 51.18 67.77 51.18 67.84 51.18 68.3 51.19 68.37 51.19 68.83 51.2 69.17 51.2 70.63 51.2 72.03 51.21"/>
      </g>
      <g stroke-width="0.3" fill="#000000" fill-opacity="0.000" class="geometry color_newno_tests" stroke-dasharray="none" stroke="#0000FF" id="img-53d28ff2-11">
        <path fill="none" d="M57.25,47.67 L 57.32 47.67 57.38 47.69 57.45 47.69 57.52 47.72 57.58 47.72 57.65 47.72 57.72 47.73 57.92 47.73 58.05 47.75 58.18 47.74 58.25 47.76 58.32 47.88 58.38 47.9 58.45 47.91 58.52 47.98 59.65 48.07 60.18 48.12 60.78 48.18 61.91 48.32 62.11 48.4 62.44 48.41 62.78 48.5 63.84 48.78 64.11 49 64.44 49.16 64.71 49.17 64.97 49.18 65.17 49.26 65.97 49.33 66.77 49.45 67.04 49.44 67.17 49.45 67.77 49.45 67.84 49.45 68.3 49.47 68.37 49.48 68.83 49.49 69.17 49.49 70.63 49.55 72.03 49.62"/>
      </g>
      <g stroke-width="0.3" fill="#000000" fill-opacity="0.000" class="geometry color_newtests_fail" stroke-dasharray="none" stroke="#FF0000" id="img-53d28ff2-12">
        <path fill="none" d="M57.25,51.12 L 57.32 50.92 57.38 50.86 57.45 50.8 57.52 50.68 57.58 50.88 57.65 50.61 57.72 50.82 57.92 50.68 58.05 50.63 58.18 50.56 58.25 50.77 58.32 48.67 58.38 50.68 58.45 50.29 58.52 50.36 59.65 50.72 60.18 50.81 60.78 50.34 61.91 49.38 62.11 49.71 62.44 50.09 62.78 50.41 63.84 50.42 64.11 50.15 64.44 50.42 64.71 50.48 64.97 50.32 65.17 50.33 65.97 50.22 66.77 50.11 67.04 50.51 67.17 50.52 67.77 50.58 67.84 50.52 68.3 50.71 68.37 50.66 68.83 50.73 69.17 50.61 70.63 50.5 72.03 50.5"/>
      </g>
      <g stroke-width="0.3" fill="#000000" fill-opacity="0.000" class="geometry color_newtests_pass" stroke-dasharray="none" stroke="#008000" id="img-53d28ff2-13">
        <path fill="none" d="M57.25,29.24 L 57.32 29.45 57.38 29.46 57.45 29.53 57.52 29.62 57.58 29.41 57.65 29.68 57.72 29.46 57.92 29.59 58.05 29.61 58.18 29.63 58.25 29.45 58.32 31.41 58.38 29.37 58.45 29.74 58.52 29.61 59.65 29.14 60.18 28.96 60.78 29.36 61.91 30.1 62.11 29.68 62.44 29.47 62.78 29.24 63.84 28.9 64.11 28.91 64.44 28.47 64.71 28.39 64.97 28.52 65.17 28.48 65.97 28.52 66.77 28.56 67.04 28.19 67.17 28.2 67.77 28.15 67.84 28.2 68.3 27.99 68.37 28.03 68.83 27.95 69.17 28.05 70.63 28.11 72.03 28.03"/>
      </g>
      <g stroke-width="0.3" fill="#000000" fill-opacity="0.000" class="geometry color_newnot_possible" stroke-dasharray="none" stroke="#808080" id="img-53d28ff2-14">
        <path fill="none" d="M27.49,50.56 L 27.56 50.56 27.62 50.57 27.69 50.57 27.76 50.57 27.82 50.57 27.89 50.57 27.96 50.59 28.09 50.59 28.16 50.6 28.29 50.62 28.42 50.64 28.49 50.64 28.62 50.64 28.69 50.66 29.15 50.71 29.35 50.71 29.49 50.71 29.95 50.86 30.02 50.88 30.09 50.9 30.15 50.9 30.22 50.9 30.29 50.77 30.35 50.77 30.42 50.77 30.49 50.77 30.55 50.51 30.62 50.51 30.69 50.55 30.82 50.44 30.89 51.33 30.95 51.33 31.02 51.36 31.09 51.36 31.15 51.36 31.22 51.37 31.29 51.37 31.35 51.37 31.42 51.37 31.49 51.37 31.55 51.38 31.62 51.38 31.68 50.87 31.75 51.39 31.82 51.4 31.88 51.41 32.28 50.86 32.35 50.75 32.42 50.76 32.48 50.78 32.55 50.8 32.62 50.68 32.68 50.46 32.75 50.46 32.82 50.48 32.88 50.49 33.02 50.49 33.08 50.52 33.15 50.52 33.22 50.52 33.28 50.52 33.35 50.52 33.42 50.55 33.48 50.55 33.62 50.57 33.68 50.59 33.75 50.61 33.82 50.62 33.88 50.62 33.95 50.64 34.08 50.65 34.15 50.69 34.21 50.69 34.28 50.69 34.41 50.75 34.55 50.78 34.61 50.78 34.68 50.8 34.75 50.8 34.95 50.81 35.01 50.81 35.08 50.82 35.15 50.82 35.21 50.82 35.28 50.83 35.35 50.73 35.41 50.74 35.55 50.74 35.61 50.74 35.75 50.74 35.81 50.75 35.88 50.79 35.95 50.79 36.08 50.8 36.15 50.8 36.21 50.82 36.28 50.83 36.35 50.84 36.41 50.85 36.48 50.86 36.54 50.88 36.61 50.78 36.68 50.68 36.74 50.69 36.81 50.69 36.88 50.69 37.01 50.73 37.08 50.73 37.14 50.74 37.21 50.74 37.28 50.74 37.34 50.77 37.41 50.78 37.48 50.79 37.61 50.66 37.68 50.59 37.81 50.61 37.88 50.61 37.94 50.51 38.21 50.51 38.41 50.57 38.48 50.59 38.54 50.6 38.61 50.62 38.68 50.62 38.74 50.62 38.81 50.7 38.88 50.7 38.94 50.7 39.07 50.6 39.14 50.61 39.21 50.63 39.27 50.63 39.34 50.63 39.41 50.64 39.47 50.54 39.61 50.53 39.67 50.54 39.74 50.54 39.81 50.56 39.87 50.48 39.94 50.48 40.01 50.48 40.07 50.5 40.27 50.52 40.34 50.43 40.41 50.45 40.47 50.46 40.54 50.46 40.61 50.46 40.67 50.48 40.74 50.48 40.81 50.49 40.87 50.5 40.94 50.4 41.01 50.4 41.07 50.4 41.14 50.42 41.21 50.44 41.27 50.44 41.34 50.44 41.41 50.45 41.47 50.45 41.54 50.46 41.6 50.46 41.67 50.48 41.74 50.49 41.8 50.49 41.87 50.5 41.94 50.5 42 50.5 42.07 50.51 42.14 50.51 42.2 50.52 42.4 50.52 42.74 50.57 42.8 50.59 42.87 50.59 42.94 50.6 43 50.6 43.07 50.63 43.14 50.63 43.4 50.68 43.47 50.68 43.8 50.69 43.93 50.69 44 50.79 44.07 50.8 44.13 50.8 44.2 50.8 44.27 50.81 44.33 50.82 44.53 50.84 44.6 50.85 44.73 50.88 44.8 50.88 44.87 50.88 45.07 50.88 45.2 50.9 45.4 50.92 45.67 50.94 45.8 50.96 46 51 46.46 51.04 46.73 51.1 46.8 50.95 46.86 50.95 46.93 50.91 47 50.91 47.06 50.91 47.2 50.91 47.26 50.93 47.33 50.93 47.4 50.95 47.46 50.96 47.53 50.96 47.6 50.96 47.73 50.9 47.8 50.92 47.86 50.92 48.13 50.99 48.2 50.97 48.26 50.97 48.4 50.99 48.53 51.02 48.6 51.02 48.8 51.03 49.13 51.03 49.46 51.08 49.79 51.11 49.86 51.11 49.93 51.11 49.99 50.59 50.06 50.66 50.19 50.59 50.33 50.59 50.59 50.6 50.66 50.62 50.73 50.63 50.79 50.63 50.86 50.64 50.93 50.71 50.99 50.65 51.79 50.59 51.92 50.51 51.99 50.54 52.12 50.54 52.39 50.54 52.52 50.54 52.66 50.57 52.92 50.57 53.06 50.58 53.12 50.59 53.26 50.63 53.32 50.63 53.39 50.64 53.46 50.66 53.52 50.66 53.59 50.67 53.72 50.68 53.79 50.68 53.92 50.68 54.05 50.7 54.12 50.72 54.19 50.73 54.32 50.74 54.39 50.75 54.72 50.78 54.99 50.86 55.05 50.81 55.59 50.84 55.65 50.7 55.72 50.7 55.92 50.72 55.99 50.73 56.05 50.8 56.19 50.82 56.32 50.82 56.45 50.82 57.05 50.86"/>
      </g>
      <g stroke-width="0.3" fill="#000000" fill-opacity="0.000" class="geometry color_newtests_fail" stroke-dasharray="none" stroke="#FF0000" id="img-53d28ff2-15">
        <path fill="none" d="M27.49,49.47 L 27.56 49.47 27.62 47.45 27.69 49.62 27.76 49.49 27.82 47.32 27.89 47.32 27.96 47.34 28.09 49.51 28.16 49.52 28.29 49.68 28.42 49.71 28.49 49.71 28.62 49.84 28.69 49.86 29.15 50.06 29.35 50.06 29.49 50.06 29.95 49.94 30.02 50.1 30.09 49.86 30.15 49.86 30.22 49.99 30.29 50.12 30.35 49.99 30.42 49.99 30.49 49.99 30.55 50.12 30.62 50.12 30.69 49.91 30.82 50.05 30.89 49.8 30.95 50.05 31.02 50.34 31.09 50.34 31.15 50.47 31.22 50.48 31.29 50.35 31.35 50.48 31.42 50.48 31.49 50.48 31.55 50.62 31.62 50.62 31.68 51.16 31.75 51.14 31.82 51.15 31.88 51.16 32.28 51.97 32.35 52.1 32.42 52.11 32.48 52.11 32.55 52.01 32.62 52.13 32.68 52.15 32.75 52.15 32.82 52.04 32.88 49.77 33.02 52.04 33.08 52.18 33.15 52.18 33.22 52.18 33.28 52.18 33.35 52.18 33.42 52.2 33.48 52.2 33.62 52.21 33.68 52.23 33.75 52.12 33.82 52.13 33.88 52.13 33.95 52.14 34.08 52.15 34.15 51.95 34.21 51.95 34.28 51.95 34.41 51.76 34.55 49.56 34.61 49.44 34.68 51.8 34.75 51.69 34.95 51.92 35.01 51.92 35.08 51.93 35.15 51.93 35.21 52.04 35.28 52.15 35.35 52.16 35.41 52.17 35.55 52.17 35.61 52.28 35.75 52.17 35.81 52.29 35.88 52.31 35.95 52.31 36.08 52.31 36.15 52.31 36.21 52.11 36.28 52.23 36.35 52.24 36.41 52.14 36.48 52.14 36.54 51.95 36.61 52.05 36.68 52.27 36.74 49.32 36.81 49.96 36.88 49.96 37.01 52.4 37.08 52.51 37.14 52.41 37.21 52.51 37.28 52.41 37.34 52.43 37.41 52.64 37.48 52.34 37.61 52.68 37.68 52.8 37.81 52.61 37.88 52.61 37.94 52.71 38.21 52.71 38.41 53.26 38.48 53.27 38.54 53.27 38.61 53.38 38.68 53.48 38.74 53.48 38.81 53.51 38.88 53.51 38.94 53.51 39.07 53.31 39.14 53.31 39.21 53.22 39.27 53.32 39.34 53.22 39.41 53.02 39.47 53.12 39.61 53.22 39.67 53.32 39.74 53.32 39.81 53.23 39.87 53.22 39.94 53.24 40.01 53.34 40.07 53.35 40.27 53.35 40.34 53.35 40.41 53.36 40.47 53.46 40.54 53.46 40.61 53.46 40.67 53.47 40.74 53.47 40.81 53.28 40.87 53.19 40.94 53.19 41.01 53 41.07 53.19 41.14 53.19 41.21 53.2 41.27 53.2 41.34 53.2 41.41 53.11 41.47 53.2 41.54 53.11 41.6 53.21 41.67 53.12 41.74 53.22 41.8 53.22 41.87 53.22 41.94 53.32 42 53.32 42.07 53.42 42.14 53.42 42.2 53.14 42.4 53.51 42.74 53.44 42.8 53.44 42.87 53.44 42.94 53.54 43 53.63 43.07 53.46 43.14 53.46 43.4 53.38 43.47 53.47 43.8 53.48 43.93 53.48 44 52.94 44.07 53.21 44.13 53.48 44.2 53.48 44.27 53.49 44.33 53.4 44.53 53.32 44.6 53.32 44.73 53.25 44.8 53.34 44.87 53.34 45.07 53.34 45.2 53.43 45.4 53.44 45.67 53.44 45.8 53.45 46 53.47 46.46 53.4 46.73 53.26 46.8 53.43 46.86 53.43 46.93 53.12 47 53.12 47.06 53.2 47.2 53.2 47.26 53.12 47.33 53.12 47.4 53.05 47.46 53.14 47.53 53.14 47.6 53.14 47.73 53.15 47.8 53.16 47.86 53.16 48.13 52.95 48.2 52.94 48.26 52.94 48.4 52.88 48.53 52.81 48.6 52.81 48.8 52.82 49.13 52.82 49.46 52.92 49.79 50.72 49.86 51.49 49.93 52.02 49.99 52.94 50.06 52.94 50.19 52.94 50.33 52.94 50.59 52.95 50.66 52.88 50.73 52.88 50.79 52.88 50.86 52.89 50.93 52.89 50.99 52.82 51.79 52.75 51.92 52.83 51.99 52.99 52.12 52.99 52.39 52.84 52.52 52.99 52.66 52.93 52.92 52.93 53.06 52.93 53.12 52.86 53.26 52.74 53.32 52.74 53.39 52.74 53.46 52.82 53.52 52.68 53.59 52.68 53.72 52.69 53.79 52.76 53.92 52.69 54.05 52.7 54.12 52.57 54.19 52.57 54.32 52.65 54.39 52.59 54.72 52.53 54.99 52.4 55.05 52.41 55.59 52.15 55.65 52.15 55.72 52.15 55.92 52.16 55.99 52.17 56.05 52.24 56.19 52.32 56.32 52.25 56.45 52.26 57.05 52.41"/>
      </g>
      <g stroke-width="0.3" fill="#000000" fill-opacity="0.000" class="geometry color_newno_tests" stroke-dasharray="none" stroke="#0000FF" id="img-53d28ff2-16">
        <path fill="none" d="M27.49,47.56 L 27.56 47.56 27.62 47.59 27.69 47.59 27.76 47.59 27.82 47.72 27.89 47.72 27.96 47.61 28.09 47.48 28.16 47.5 28.29 47.53 28.42 47.31 28.49 47.31 28.62 47.31 28.69 47.33 29.15 47.43 29.35 47.43 29.49 47.43 29.95 47.33 30.02 47.37 30.09 47.4 30.15 47.4 30.22 47.4 30.29 47.4 30.35 47.4 30.42 47.4 30.49 47.4 30.55 47.66 30.62 47.66 30.69 47.73 30.82 47.88 30.89 47.88 30.95 47.88 31.02 47.8 31.09 47.8 31.15 48.05 31.22 48.2 31.29 48.2 31.35 48.2 31.42 48.2 31.49 48.2 31.55 48.22 31.62 48.22 31.68 46.68 31.75 47.86 31.82 47.88 31.88 47.91 32.28 48.03 32.35 48.05 32.42 48.08 32.48 48.22 32.55 48.26 32.62 48.26 32.68 48.3 32.75 48.42 32.82 48.44 32.88 48.82 33.02 48.7 33.08 48.49 33.15 48.49 33.22 48.49 33.28 48.49 33.35 48.49 33.42 48.55 33.48 48.55 33.62 48.69 33.68 48.61 33.75 48.62 33.82 48.64 33.88 48.88 33.95 48.91 34.08 48.93 34.15 48.98 34.21 48.98 34.28 48.98 34.41 48.84 34.55 49.22 34.61 49.11 34.68 49.01 34.75 49.01 34.95 49.03 35.01 49.03 35.08 49.05 35.15 49.05 35.21 49.16 35.28 49.17 35.35 49.19 35.41 49.31 35.55 49.31 35.61 49.31 35.75 49.31 35.81 49.33 35.88 49.37 35.95 49.37 36.08 49.17 36.15 49.28 36.21 49.31 36.28 49.22 36.35 49.23 36.41 49.25 36.48 49.26 36.54 49.29 36.61 49.29 36.68 49.31 36.74 49.96 36.81 49.96 36.88 49.96 37.01 49.26 37.08 49.26 37.14 49.38 37.21 49.38 37.28 49.49 37.34 49.42 37.41 49.44 37.48 49.55 37.61 50.02 37.68 50.17 37.81 50.19 37.88 50.19 37.94 50.19 38.21 50.19 38.41 50.16 38.48 50.17 38.54 50.08 38.61 50.11 38.68 50.11 38.74 50.21 38.81 50.3 38.88 50.4 38.94 50.4 39.07 50.4 39.14 50.31 39.21 50.33 39.27 50.33 39.34 50.33 39.41 50.44 39.47 50.44 39.61 50.33 39.67 50.34 39.74 50.34 39.81 50.36 39.87 50.2 39.94 50.38 40.01 50.38 40.07 50.4 40.27 50.52 40.34 50.52 40.41 50.45 40.47 50.46 40.54 50.46 40.61 50.46 40.67 50.48 40.74 50.48 40.81 50.49 40.87 50.5 40.94 50.5 41.01 50.6 41.07 50.5 41.14 50.51 41.21 50.53 41.27 50.53 41.34 50.53 41.41 50.64 41.47 50.54 41.54 50.65 41.6 50.55 41.67 50.57 41.74 50.58 41.8 50.58 41.87 50.59 41.94 50.59 42 50.59 42.07 50.6 42.14 50.6 42.2 50.61 42.4 50.61 42.74 50.66 42.8 50.68 42.87 50.68 42.94 50.69 43 50.69 43.07 50.72 43.14 50.72 43.4 50.86 43.47 50.77 43.8 50.78 43.93 50.78 44 50.79 44.07 50.88 44.13 50.8 44.2 50.8 44.27 50.81 44.33 50.91 44.53 50.84 44.6 50.85 44.73 50.88 44.8 50.8 44.87 50.8 45.07 50.88 45.2 50.81 45.4 50.83 45.67 50.94 45.8 50.88 46 50.91 46.46 50.96 46.73 51.02 46.8 51.03 46.86 51.03 46.93 51.15 47 51.07 47.06 51.07 47.2 51.07 47.26 51.17 47.33 51.17 47.4 51.19 47.46 51.12 47.53 51.12 47.6 51.12 47.73 51.14 47.8 51.16 47.86 51.16 48.13 51.22 48.2 51.21 48.26 51.21 48.4 51.23 48.53 51.25 48.6 51.25 48.8 51.27 49.13 51.27 49.46 51.31 49.79 51.56 49.86 51.49 49.93 51.49 49.99 51.5 50.06 51.42 50.19 51.42 50.33 51.42 50.59 51.44 50.66 51.45 50.73 51.53 50.79 51.53 50.86 51.54 50.93 51.54 50.99 51.55 51.79 51.63 51.92 51.63 51.99 51.65 52.12 51.72 52.39 51.73 52.52 51.73 52.66 51.75 52.92 51.75 53.06 51.76 53.12 51.76 53.26 51.79 53.32 51.79 53.39 51.8 53.46 51.81 53.52 51.81 53.59 51.82 53.72 51.83 53.79 51.83 53.92 51.9 54.05 51.84 54.12 51.86 54.19 51.86 54.32 51.95 54.39 51.88 54.72 51.97 54.99 51.98 55.05 51.99 55.59 52.01 55.65 52.01 55.72 52.01 55.92 52.1 55.99 52.1 56.05 52.04 56.19 52.05 56.32 52.05 56.45 52.12 57.05 52.07"/>
      </g>
      <g stroke-width="0.3" fill="#000000" fill-opacity="0.000" class="geometry color_oldfull_fail" stroke-dasharray="none" stroke="#FFA500" id="img-53d28ff2-17">
        <path fill="none" d="M27.49,49.33 L 27.56 49.33 27.62 50.3 27.69 48.81 27.76 48.94 27.82 50.03 27.89 49.76 27.96 50.05 28.09 48.15 28.16 48.18 28.29 48.06 28.42 48.64 28.49 48.38 28.62 48.78 28.69 48.66 29.15 49.01 29.35 49.01 29.49 49.01 29.95 48.9 30.02 48.67 30.09 47.4 30.15 47.4 30.22 48.05 30.29 48.05 30.35 48.44 30.42 48.44 30.49 48.44 30.55 48.95 30.62 48.95 30.69 49.65 30.82 49.67 30.89 49.54 30.95 49.29 31.02 49.45 31.09 49.45 31.15 49.7 31.22 49.72 31.29 49.72 31.35 49.47 31.42 49.97 31.49 49.85 31.55 49.73 31.62 49.48 31.68 54.91 31.75 50 31.82 49.39 31.88 49.66 32.28 49.51 32.35 50.01 32.42 50.52 32.48 50.53 32.55 50.44 32.62 50.92 32.68 50.82 32.75 50.82 32.82 50.96 32.88 51.33 33.02 50.73 33.08 50.87 33.15 51.11 33.22 50.87 33.28 51.11 33.35 51.11 33.42 50.67 33.48 50.79 33.62 51.27 33.68 51.29 33.75 51.3 33.82 51.2 33.88 51.08 33.95 51.34 34.08 51.35 34.15 51.49 34.21 51.6 34.28 51.6 34.41 51.43 34.55 50.67 34.61 51.23 34.68 51.13 34.75 51.13 34.95 51.14 35.01 51.14 35.08 50.82 35.15 51.04 35.21 50.93 35.28 50.94 35.35 51.17 35.41 51.07 35.55 51.18 35.61 51.29 35.75 51.29 35.81 51.3 35.88 51.33 35.95 51.33 36.08 51.34 36.15 51.34 36.21 51.36 36.28 51.26 36.35 51.27 36.41 51.17 36.48 51.4 36.54 51.2 36.61 51.1 36.68 51.11 36.74 50.91 36.81 50.8 36.88 50.91 37.01 50.73 37.08 50.83 37.14 51.16 37.21 50.84 37.28 50.84 37.34 50.98 37.41 50.68 37.48 50.79 37.61 51.19 37.68 51.12 37.81 51.14 37.88 51.14 37.94 51.14 38.21 51.14 38.41 51.09 38.48 51 38.54 51.11 38.61 50.93 38.68 50.93 38.74 51.23 38.81 50.8 38.88 50.7 38.94 50.7 39.07 50.8 39.14 51.01 39.21 50.92 39.27 51.02 39.34 51.02 39.41 50.83 39.47 51.03 39.61 51.22 39.67 51.23 39.74 51.23 39.81 51.25 39.87 51.14 39.94 51.37 40.01 51.37 40.07 51.38 40.27 50.82 40.34 51.11 40.41 51.13 40.47 51.33 40.54 51.14 40.61 51.33 40.67 51.35 40.74 51.25 40.81 51.26 40.87 51.17 40.94 51.46 41.01 51.36 41.07 51.27 41.14 51.37 41.21 51.39 41.27 51.29 41.34 51.48 41.41 51.21 41.47 51.21 41.54 51.41 41.6 51.31 41.67 51.23 41.74 51.24 41.8 51.24 41.87 51.16 41.94 51.25 42 51.44 42.07 51.17 42.14 51.26 42.2 51.27 42.4 51.08 42.74 51.13 42.8 50.96 42.87 50.96 42.94 50.78 43 50.88 43.07 51.18 43.14 51.18 43.4 51.13 43.47 51.13 43.8 50.96 43.93 50.96 44 50.61 44.07 50.8 44.13 50.88 44.2 51.06 44.27 51.08 44.33 50.91 44.53 50.75 44.6 50.76 44.73 50.7 44.8 50.45 44.87 50.88 45.07 50.8 45.2 50.99 45.4 50.92 45.67 50.76 45.8 50.96 46 50.65 46.46 50.54 46.73 50.69 46.8 50.7 46.86 50.7 46.93 50.34 47 50.17 47.06 50.09 47.2 50.26 47.26 50.27 47.33 50.27 47.4 50.22 47.46 49.99 47.53 50.39 47.6 50.39 47.73 50.42 47.8 50.44 47.86 50.53 48.13 50.36 48.2 50.5 48.26 50.26 48.4 50.84 48.53 50.86 48.6 50.78 48.8 50.64 49.13 50.64 49.46 50.77 49.79 50.19 49.86 49.89 49.93 49.96 49.99 49.91 50.06 50.29 50.19 50.21 50.33 50.29 50.59 50 50.66 50.09 50.73 50.33 50.79 50.18 50.86 50.27 50.93 50.11 50.99 50.35 51.79 50.29 51.92 50.36 51.99 50.16 52.12 50.39 52.39 50.54 52.52 50.47 52.66 50.13 52.92 50.35 53.06 50.22 53.12 50.81 53.26 50.99 53.32 50.78 53.39 50.86 53.46 50.73 53.52 50.81 53.59 51.1 53.72 50.89 53.79 50.83 53.92 51.04 54.05 50.98 54.12 50.86 54.19 51.01 54.32 50.88 54.39 50.82 54.72 50.64 54.99 50.86 55.05 50.88 55.59 50.97 55.65 51.04 55.72 50.97 55.92 51.27 55.99 51.28 56.05 51.21 56.19 50.88 56.32 51.02 56.45 50.96 57.05 51.13"/>
      </g>
      <g stroke-width="0.3" fill="#000000" fill-opacity="0.000" class="geometry color_newtests_pass" stroke-dasharray="none" stroke="#008000" id="img-53d28ff2-18">
        <path fill="none" d="M27.49,37.35 L 27.56 37.35 27.62 38.36 27.69 37.68 27.76 37.68 27.82 38.63 27.89 38.9 27.96 38.69 28.09 38.55 28.16 38.47 28.29 38.39 28.42 37.97 28.49 38.23 28.62 37.7 28.69 37.76 29.15 37.06 29.35 37.06 29.49 37.06 29.95 37.25 30.02 37.23 30.09 38.72 30.15 38.72 30.22 37.94 30.29 37.94 30.35 37.68 30.42 37.68 30.49 37.68 30.55 37.03 30.62 37.03 30.69 36.43 30.82 36.23 30.89 35.72 30.95 35.72 31.02 35.34 31.09 35.34 31.15 34.7 31.22 34.51 31.29 34.64 31.35 34.76 31.42 34.26 31.49 34.38 31.55 34.32 31.62 34.57 31.68 30.65 31.75 33.88 31.82 34.45 31.88 34.14 32.28 33.9 32.35 33.35 32.42 32.81 32.48 32.63 32.55 32.77 32.62 32.28 32.68 32.54 32.75 32.42 32.82 32.36 32.88 33.87 33.02 32.31 33.08 32.21 33.15 31.97 33.22 32.21 33.28 31.97 33.35 31.97 33.42 32.29 33.48 32.17 33.62 31.53 33.68 31.55 33.75 31.62 33.82 31.69 33.88 31.57 33.95 31.24 34.08 31.19 34.15 31.17 34.21 31.05 34.28 31.05 34.41 31.5 34.55 34.04 34.61 33.7 34.68 31.53 34.75 31.65 34.95 31.38 35.01 31.38 35.08 31.66 35.15 31.44 35.21 31.33 35.28 31.17 35.35 31.02 35.41 30.97 35.55 30.86 35.61 30.65 35.75 30.75 35.81 30.6 35.88 30.47 35.95 30.47 36.08 30.65 36.15 30.54 36.21 30.67 36.28 30.73 36.35 30.69 36.41 30.86 36.48 30.61 36.54 30.95 36.61 31.05 36.68 30.9 36.74 33.39 36.81 32.86 36.88 32.76 37.01 31.15 37.08 30.94 37.14 30.59 37.21 30.8 37.28 30.8 37.34 30.67 37.41 30.73 37.48 30.79 37.61 29.71 37.68 29.59 37.81 29.73 37.88 29.73 37.94 29.73 38.21 29.73 38.41 29.18 38.48 29.25 38.54 29.21 38.61 29.24 38.68 29.14 38.74 28.73 38.81 28.95 38.88 28.95 38.94 28.95 39.07 29.15 39.14 29.01 39.21 29.18 39.27 28.98 39.34 29.08 39.41 29.34 39.47 29.14 39.61 28.98 39.67 28.84 39.74 28.84 39.81 28.87 39.87 29.24 39.94 28.8 40.01 28.7 40.07 28.63 40.27 29.05 40.34 28.86 40.41 28.89 40.47 28.56 40.54 28.76 40.61 28.56 40.67 28.5 40.74 28.59 40.81 28.75 40.87 28.91 40.94 28.72 41.01 28.91 41.07 28.91 41.14 28.78 41.21 28.71 41.27 28.81 41.34 28.62 41.41 28.87 41.47 28.87 41.54 28.65 41.6 28.74 41.67 28.86 41.74 28.74 41.8 28.74 41.87 28.8 41.94 28.61 42 28.42 42.07 28.58 42.14 28.48 42.2 28.73 42.4 28.54 42.74 28.48 42.8 28.6 42.87 28.6 42.94 28.66 43 28.47 43.07 28.29 43.14 28.29 43.4 28.23 43.47 28.23 43.8 28.38 43.93 28.38 44 29.15 44.07 28.58 44.13 28.31 44.2 28.14 44.27 28.08 44.33 28.22 44.53 28.52 44.6 28.49 44.73 28.57 44.8 28.81 44.87 28.37 45.07 28.37 45.2 28.13 45.4 28.16 45.67 28.19 45.8 28.02 46 28.24 46.46 28.33 46.73 28.21 46.8 28.16 46.86 28.16 46.93 28.75 47 29 47.06 29 47.2 28.84 47.26 28.78 47.33 28.78 47.4 28.86 47.46 29.07 47.53 28.67 47.6 28.67 47.73 28.66 47.8 28.61 47.86 28.5 48.13 28.75 48.2 28.65 48.26 28.89 48.4 28.33 48.53 28.33 48.6 28.41 48.8 28.51 49.13 28.51 49.46 28.2 49.79 30.69 49.86 30.31 49.93 29.7 49.99 29.34 50.06 28.96 50.19 29.11 50.33 29.03 50.59 29.28 50.66 29.23 50.73 28.9 50.79 29.05 50.86 28.92 50.93 29.02 50.99 28.89 51.79 29.02 51.92 28.94 51.99 28.94 52.12 28.64 52.39 28.61 52.52 28.54 52.66 28.91 52.92 28.68 53.06 28.78 53.12 28.24 53.26 28.12 53.32 28.34 53.39 28.24 53.46 28.24 53.52 28.31 53.59 28 53.72 28.19 53.79 28.17 53.92 27.95 54.05 28.05 54.12 28.26 54.19 28.09 54.32 28.05 54.39 28.23 54.72 28.35 54.99 28.16 55.05 28.19 55.59 28.3 55.65 28.37 55.72 28.44 55.92 28.02 55.99 28 56.05 27.98 56.19 28.21 56.32 28.14 56.45 28.11 57.05 27.8"/>
      </g>
    </g>
  </g>
</g>
  <g class="guide ylabels" font-size="2.82" font-family="'PT Sans Caption','Helvetica Neue','Helvetica',sans-serif" fill="#6C606B" id="img-53d28ff2-19">
    <text x="18.63" y="54.91" text-anchor="end" dy="0.35em">0</text>
    <text x="18.63" y="34.76" text-anchor="end" dy="0.35em">50</text>
    <text x="18.63" y="14.61" text-anchor="end" dy="0.35em">100</text>
  </g>
  <g font-size="3.88" font-family="'PT Sans','Helvetica Neue','Helvetica',sans-serif" fill="#564A55" stroke="#000000" stroke-opacity="0.000" id="img-53d28ff2-20">
    <text x="8.81" y="32.76" text-anchor="middle" dy="0.35em" transform="rotate(-90, 8.81, 34.76)">Percentage of Packages</text>
  </g>
  <g font-size="3.88" font-family="'PT Sans','Helvetica Neue','Helvetica',sans-serif" fill="#564A55" stroke="#000000" stroke-opacity="0.000" id="img-53d28ff2-21">
    <text x="58.12" y="10.61" text-anchor="middle">Julia v0.3 (relative)</text>
  </g>
</g>
<defs>
  <clipPath id="img-53d28ff2-4">
  <path d="M19.63,12.61 L 96.6 12.61 96.6 56.91 19.63 56.91" />
</clipPath>
</defs>
</svg>
