<?xml version="1.0" encoding="UTF-8"?>
<svg xmlns="http://www.w3.org/2000/svg"
     xmlns:xlink="http://www.w3.org/1999/xlink"
     xmlns:gadfly="http://www.gadflyjl.org/ns"
     version="1.2"
     width="101.6mm" height="76.2mm" viewBox="0 0 101.6 76.2"
     stroke="none"
     fill="#000000"
     stroke-width="0.3"
     font-size="3.88"
>
<g class="plotroot xscalable yscalable" id="img-8222d1be-1">
  <g font-size="3.88" font-family="'PT Sans','Helvetica Neue','Helvetica',sans-serif" fill="#564A55" stroke="#000000" stroke-opacity="0.000" id="img-8222d1be-2">
    <text x="58.12" y="64.59" text-anchor="middle" dy="0.6em">Date</text>
  </g>
  <g class="guide xlabels" font-size="2.82" font-family="'PT Sans Caption','Helvetica Neue','Helvetica',sans-serif" fill="#6C606B" id="img-8222d1be-3">
    <text x="21.87" y="48.71" text-anchor="end" dy="0.35em" transform="rotate(-90, 21.87, 48.71)">Apr</text>
    <text x="25.43" y="48.71" text-anchor="end" dy="0.35em" transform="rotate(-90, 25.43, 48.71)">May</text>
    <text x="29.12" y="48.71" text-anchor="end" dy="0.35em" transform="rotate(-90, 29.12, 48.71)">Jun</text>
    <text x="32.68" y="48.71" text-anchor="end" dy="0.35em" transform="rotate(-90, 32.68, 48.71)">Jul</text>
    <text x="36.37" y="48.71" text-anchor="end" dy="0.35em" transform="rotate(-90, 36.37, 48.71)">Aug</text>
    <text x="40.05" y="48.71" text-anchor="end" dy="0.35em" transform="rotate(-90, 40.05, 48.71)">Sep</text>
    <text x="43.62" y="48.71" text-anchor="end" dy="0.35em" transform="rotate(-90, 43.62, 48.71)">Oct</text>
    <text x="47.3" y="48.71" text-anchor="end" dy="0.35em" transform="rotate(-90, 47.3, 48.71)">Nov</text>
    <text x="50.87" y="48.71" text-anchor="end" dy="0.35em" transform="rotate(-90, 50.87, 48.71)">Dec</text>
    <text x="54.55" y="48.71" text-anchor="end" dy="0.35em" transform="rotate(-90, 54.55, 48.71)">Jan 2015</text>
    <text x="58.23" y="48.71" text-anchor="end" dy="0.35em" transform="rotate(-90, 58.23, 48.71)">Feb</text>
    <text x="61.56" y="48.71" text-anchor="end" dy="0.35em" transform="rotate(-90, 61.56, 48.71)">Mar</text>
    <text x="65.25" y="48.71" text-anchor="end" dy="0.35em" transform="rotate(-90, 65.25, 48.71)">Apr</text>
    <text x="68.81" y="48.71" text-anchor="end" dy="0.35em" transform="rotate(-90, 68.81, 48.71)">May</text>
    <text x="72.5" y="48.71" text-anchor="end" dy="0.35em" transform="rotate(-90, 72.5, 48.71)">Jun</text>
    <text x="76.06" y="48.71" text-anchor="end" dy="0.35em" transform="rotate(-90, 76.06, 48.71)">Jul</text>
    <text x="79.74" y="48.71" text-anchor="end" dy="0.35em" transform="rotate(-90, 79.74, 48.71)">Aug</text>
    <text x="83.43" y="48.71" text-anchor="end" dy="0.35em" transform="rotate(-90, 83.43, 48.71)">Sep</text>
    <text x="86.99" y="48.71" text-anchor="end" dy="0.35em" transform="rotate(-90, 86.99, 48.71)">Oct</text>
    <text x="90.68" y="48.71" text-anchor="end" dy="0.35em" transform="rotate(-90, 90.68, 48.71)">Nov</text>
    <text x="94.24" y="48.71" text-anchor="end" dy="0.35em" transform="rotate(-90, 94.24, 48.71)">Dec</text>
  </g>
<g clip-path="url(#img-8222d1be-4)">
  <g id="img-8222d1be-5">
    <g pointer-events="visible" opacity="1" fill="#000000" fill-opacity="0.000" stroke="#000000" stroke-opacity="0.000" class="guide background" id="img-8222d1be-6">
      <rect x="19.63" y="12.61" width="76.97" height="35.1"/>
    </g>
    <g class="guide ygridlines xfixed" stroke-dasharray="0.5,0.5" stroke-width="0.2" stroke="#D0D0E0" id="img-8222d1be-7">
      <path fill="none" d="M19.63,45.71 L 96.6 45.71"/>
      <path fill="none" d="M19.63,39.49 L 96.6 39.49"/>
      <path fill="none" d="M19.63,33.27 L 96.6 33.27"/>
      <path fill="none" d="M19.63,27.05 L 96.6 27.05"/>
      <path fill="none" d="M19.63,20.83 L 96.6 20.83"/>
      <path fill="none" d="M19.63,14.61 L 96.6 14.61"/>
    </g>
    <g class="guide xgridlines yfixed" stroke-dasharray="0.5,0.5" stroke-width="0.2" stroke="#D0D0E0" id="img-8222d1be-8">
      <path fill="none" d="M21.87,12.61 L 21.87 47.71"/>
      <path fill="none" d="M25.43,12.61 L 25.43 47.71"/>
      <path fill="none" d="M29.12,12.61 L 29.12 47.71"/>
      <path fill="none" d="M32.68,12.61 L 32.68 47.71"/>
      <path fill="none" d="M36.37,12.61 L 36.37 47.71"/>
      <path fill="none" d="M40.05,12.61 L 40.05 47.71"/>
      <path fill="none" d="M43.62,12.61 L 43.62 47.71"/>
      <path fill="none" d="M47.3,12.61 L 47.3 47.71"/>
      <path fill="none" d="M50.87,12.61 L 50.87 47.71"/>
      <path fill="none" d="M54.55,12.61 L 54.55 47.71"/>
      <path fill="none" d="M58.23,12.61 L 58.23 47.71"/>
      <path fill="none" d="M61.56,12.61 L 61.56 47.71"/>
      <path fill="none" d="M65.25,12.61 L 65.25 47.71"/>
      <path fill="none" d="M68.81,12.61 L 68.81 47.71"/>
      <path fill="none" d="M72.5,12.61 L 72.5 47.71"/>
      <path fill="none" d="M76.06,12.61 L 76.06 47.71"/>
      <path fill="none" d="M79.74,12.61 L 79.74 47.71"/>
      <path fill="none" d="M83.43,12.61 L 83.43 47.71"/>
      <path fill="none" d="M86.99,12.61 L 86.99 47.71"/>
      <path fill="none" d="M90.68,12.61 L 90.68 47.71"/>
      <path fill="none" d="M94.24,12.61 L 94.24 47.71"/>
    </g>
    <g class="plotpanel" id="img-8222d1be-9">
      <g stroke-width="0.3" fill="#000000" fill-opacity="0.000" class="geometry color_newnot_possible" stroke-dasharray="none" stroke="#808080" id="img-8222d1be-10">
        <path fill="none" d="M74.75,42.41 L 74.87 42.41 74.99 42.41 75.11 42.41 75.23 42.41 75.35 42.41 75.47 42.41 75.59 42.41 75.94 42.41 76.18 42.41 76.42 42.47 76.54 42.41 76.66 42.41 76.77 42.41 76.89 42.41 77.01 42.41 79.03 42.35 79.98 42.35 81.05 42.35 83.07 42.35 83.43 42.35 84.02 42.16 84.62 41.98 86.52 41.98 86.99 41.98 87.59 41.98 88.06 41.98 88.54 41.98 88.9 41.91 90.32 41.91 91.75 41.85 92.22 41.85 92.46 41.79 93.53 41.79 93.65 41.79 94.48 41.79 94.6 41.79"/>
      </g>
      <g stroke-width="0.3" fill="#000000" fill-opacity="0.000" class="geometry color_newno_tests" stroke-dasharray="none" stroke="#0000FF" id="img-8222d1be-11">
        <path fill="none" d="M74.75,39.05 L 74.87 39.05 74.99 39.05 75.11 39.05 75.23 39.05 75.35 39.05 75.47 39.05 75.59 39.05 75.94 39.05 76.18 39.05 76.42 39.05 76.54 39.05 76.66 39.12 76.77 39.12 76.89 39.12 77.01 39.18 79.03 39.12 79.98 39.12 81.05 39.12 83.07 39.12 83.43 39.18 84.02 39.18 84.62 39.24 86.52 39.43 86.99 39.61 87.59 39.74 88.06 39.74 88.54 39.74 88.9 39.8 90.32 39.86 91.75 39.99 92.22 39.99 92.46 39.99 93.53 39.99 93.65 39.99 94.48 39.99 94.6 39.99"/>
      </g>
      <g stroke-width="0.3" fill="#000000" fill-opacity="0.000" class="geometry color_newtests_fail" stroke-dasharray="none" stroke="#FF0000" id="img-8222d1be-12">
        <path fill="none" d="M74.75,42.23 L 74.87 42.04 74.99 41.98 75.11 41.91 75.23 41.79 75.35 41.98 75.47 41.73 75.59 41.91 75.94 41.79 76.18 41.73 76.42 41.67 76.54 41.85 76.66 39.86 76.77 41.73 76.89 41.35 77.01 41.42 79.03 41.67 79.98 41.73 81.05 41.23 83.07 40.17 83.43 40.48 84.02 40.86 84.62 41.17 86.52 41.11 86.99 40.8 87.59 41.04 88.06 41.11 88.54 40.92 88.9 40.92 90.32 40.8 91.75 40.67 92.22 41.11 92.46 41.11 93.53 41.17 93.65 41.11 94.48 41.29 94.6 41.23"/>
      </g>
      <g stroke-width="0.3" fill="#000000" fill-opacity="0.000" class="geometry color_newtests_pass" stroke-dasharray="none" stroke="#008000" id="img-8222d1be-13">
        <path fill="none" d="M74.75,22.14 L 74.87 22.32 74.99 22.26 75.11 22.32 75.23 22.32 75.35 22.14 75.47 22.39 75.59 22.14 75.94 22.26 76.18 22.2 76.42 22.26 76.54 22.01 76.66 23.69 76.77 21.7 76.89 22.01 77.01 21.89 79.03 20.89 79.98 20.52 81.05 20.71 83.07 20.89 83.43 20.4 84.02 20.15 84.62 19.84 86.52 19.09 86.99 18.9 87.59 18.28 88.06 18.16 88.54 18.22 88.9 18.09 90.32 18.09 91.75 18.09 92.22 17.78 92.46 17.72 93.53 17.66 93.65 17.72 94.48 17.41 94.6 17.41"/>
      </g>
      <g stroke-width="0.3" fill="#000000" fill-opacity="0.000" class="geometry color_newnot_possible" stroke-dasharray="none" stroke="#808080" id="img-8222d1be-14">
        <path fill="none" d="M21.63,43.72 L 21.75 43.72 21.87 43.72 21.99 43.72 22.11 43.72 22.23 43.72 22.34 43.72 22.46 43.72 22.7 43.72 22.82 43.72 23.06 43.72 23.3 43.72 23.41 43.72 23.65 43.72 23.77 43.72 24.6 43.72 24.96 43.72 25.2 43.72 26.03 43.78 26.15 43.78 26.27 43.78 26.39 43.78 26.5 43.78 26.62 43.72 26.74 43.72 26.86 43.72 26.98 43.72 27.1 43.59 27.22 43.59 27.34 43.59 27.57 43.53 27.69 43.97 27.81 43.97 27.93 43.97 28.05 43.97 28.17 43.97 28.29 43.97 28.41 43.97 28.52 43.97 28.64 43.97 28.76 43.97 28.88 43.97 29 43.97 29.12 43.97 29.24 43.97 29.36 43.97 29.48 43.97 30.19 43.66 30.31 43.59 30.43 43.59 30.54 43.59 30.66 43.59 30.78 43.53 30.9 43.41 31.02 43.41 31.14 43.41 31.26 43.41 31.5 43.41 31.61 43.41 31.73 43.41 31.85 43.41 31.97 43.41 32.09 43.41 32.21 43.41 32.33 43.41 32.57 43.41 32.68 43.41 32.8 43.41 32.92 43.41 33.04 43.41 33.16 43.41 33.4 43.41 33.52 43.41 33.63 43.41 33.75 43.41 33.99 43.41 34.23 43.41 34.35 43.41 34.47 43.41 34.59 43.41 34.94 43.41 35.06 43.41 35.18 43.41 35.3 43.41 35.42 43.41 35.54 43.41 35.65 43.34 35.77 43.34 36.01 43.34 36.13 43.34 36.37 43.34 36.49 43.34 36.61 43.34 36.72 43.34 36.96 43.34 37.08 43.34 37.2 43.34 37.32 43.34 37.44 43.34 37.56 43.34 37.68 43.34 37.79 43.34 37.91 43.28 38.03 43.22 38.15 43.22 38.27 43.22 38.39 43.22 38.63 43.22 38.74 43.22 38.86 43.22 38.98 43.22 39.1 43.22 39.22 43.22 39.34 43.22 39.46 43.22 39.7 43.22 39.81 43.16 40.05 43.16 40.17 43.16 40.29 43.1 40.77 43.1 41.12 43.1 41.24 43.1 41.36 43.1 41.48 43.1 41.6 43.1 41.72 43.1 41.83 43.1 41.95 43.1 42.07 43.1 42.31 43.03 42.43 43.03 42.55 43.03 42.67 43.03 42.79 43.03 42.9 43.03 43.02 42.97 43.26 42.97 43.38 42.97 43.5 42.97 43.62 42.97 43.74 42.79 43.85 42.91 43.97 42.91 44.09 42.91 44.45 42.91 44.57 42.85 44.69 42.85 44.81 42.85 44.92 42.85 45.04 42.85 45.16 42.85 45.28 42.85 45.4 42.85 45.52 42.85 45.64 42.79 45.76 42.79 45.88 42.79 45.99 42.79 46.11 42.79 46.23 42.79 46.35 42.79 46.47 42.79 46.59 42.79 46.71 42.79 46.83 42.79 46.94 42.79 47.06 42.79 47.18 42.79 47.3 42.79 47.42 42.79 47.54 42.79 47.66 42.79 47.78 42.79 47.9 42.79 48.25 42.79 48.85 42.79 48.97 42.79 49.08 42.79 49.2 42.79 49.32 42.79 49.44 42.79 49.56 42.79 50.03 42.79 50.15 42.79 50.75 42.79 50.99 42.79 51.1 42.85 51.22 42.85 51.34 42.85 51.46 42.85 51.58 42.85 51.7 42.85 52.05 42.85 52.17 42.85 52.41 42.85 52.53 42.85 52.65 42.85 53.01 42.85 53.24 42.85 53.6 42.85 54.08 42.85 54.31 42.85 54.67 42.85 55.5 42.85 55.98 42.85 56.1 42.72 56.21 42.72 56.33 42.66 56.45 42.66 56.57 42.66 56.81 42.66 56.93 42.66 57.05 42.66 57.17 42.66 57.28 42.66 57.4 42.66 57.52 42.66 57.76 42.6 57.88 42.6 58 42.6 58.47 42.6 58.59 42.6 58.71 42.6 58.95 42.6 59.19 42.6 59.3 42.6 59.66 42.6 60.25 42.6 60.85 42.6 61.44 42.6 61.56 42.6 61.68 42.6 61.8 42.16 61.92 42.23 62.16 42.16 62.39 42.16 62.87 42.16 62.99 42.16 63.11 42.16 63.23 42.16 63.34 42.16 63.46 42.23 63.58 42.16 65.01 42.1 65.25 42.04 65.37 42.04 65.6 42.04 66.08 42.04 66.32 42.04 66.55 42.04 67.03 42.04 67.27 42.04 67.39 42.04 67.62 42.04 67.74 42.04 67.86 42.04 67.98 42.04 68.1 42.04 68.22 42.04 68.45 42.04 68.57 42.04 68.81 42.04 69.05 42.04 69.17 42.04 69.29 42.04 69.52 42.04 69.64 42.04 70.24 42.04 70.71 42.1 70.83 42.04 71.78 42.04 71.9 41.91 72.02 41.91 72.38 41.91 72.5 41.91 72.61 41.98 72.85 41.98 73.09 41.98 73.33 41.98 74.4 41.98"/>
      </g>
      <g stroke-width="0.3" fill="#000000" fill-opacity="0.000" class="geometry color_newtests_fail" stroke-dasharray="none" stroke="#FF0000" id="img-8222d1be-15">
        <path fill="none" d="M21.63,43.22 L 21.75 43.22 21.87 42.29 21.99 43.28 22.11 43.22 22.23 42.23 22.34 42.23 22.46 42.23 22.7 43.22 22.82 43.22 23.06 43.28 23.3 43.28 23.41 43.28 23.65 43.34 23.77 43.34 24.6 43.41 24.96 43.41 25.2 43.41 26.03 43.34 26.15 43.41 26.27 43.28 26.39 43.28 26.5 43.34 26.62 43.41 26.74 43.34 26.86 43.34 26.98 43.34 27.1 43.41 27.22 43.41 27.34 43.28 27.57 43.34 27.69 43.22 27.81 43.34 27.93 43.47 28.05 43.47 28.17 43.53 28.29 43.53 28.41 43.47 28.52 43.53 28.64 43.53 28.76 43.53 28.88 43.59 29 43.59 29.12 44.09 29.24 43.84 29.36 43.84 29.48 43.84 30.19 44.22 30.31 44.28 30.43 44.28 30.54 44.28 30.66 44.22 30.78 44.28 30.9 44.28 31.02 44.28 31.14 44.22 31.26 43.03 31.5 44.22 31.61 44.28 31.73 44.28 31.85 44.28 31.97 44.28 32.09 44.28 32.21 44.28 32.33 44.28 32.57 44.28 32.68 44.28 32.8 44.22 32.92 44.22 33.04 44.22 33.16 44.22 33.4 44.22 33.52 44.09 33.63 44.09 33.75 44.09 33.99 43.97 34.23 42.72 34.35 42.66 34.47 43.97 34.59 43.9 34.94 44.03 35.06 44.03 35.18 44.03 35.3 44.03 35.42 44.09 35.54 44.15 35.65 44.15 35.77 44.15 36.01 44.15 36.13 44.22 36.37 44.15 36.49 44.22 36.61 44.22 36.72 44.22 36.96 44.22 37.08 44.22 37.2 44.09 37.32 44.15 37.44 44.15 37.56 44.09 37.68 44.09 37.79 43.97 37.91 44.03 38.03 44.15 38.15 42.41 38.27 42.79 38.39 42.79 38.63 44.22 38.74 44.28 38.86 44.22 38.98 44.28 39.1 44.22 39.22 44.22 39.34 44.34 39.46 44.15 39.7 44.4 39.81 44.46 40.05 44.34 40.17 44.34 40.29 44.4 40.77 44.4 41.12 44.71 41.24 44.71 41.36 44.71 41.48 44.78 41.6 44.84 41.72 44.84 41.83 44.84 41.95 44.84 42.07 44.84 42.31 44.71 42.43 44.71 42.55 44.65 42.67 44.71 42.79 44.65 42.9 44.53 43.02 44.59 43.26 44.65 43.38 44.71 43.5 44.71 43.62 44.65 43.74 44.59 43.85 44.65 43.97 44.71 44.09 44.71 44.45 44.71 44.57 44.71 44.69 44.71 44.81 44.78 44.92 44.78 45.04 44.78 45.16 44.78 45.28 44.78 45.4 44.65 45.52 44.59 45.64 44.59 45.76 44.46 45.88 44.59 45.99 44.59 46.11 44.59 46.23 44.59 46.35 44.59 46.47 44.53 46.59 44.59 46.71 44.53 46.83 44.59 46.94 44.53 47.06 44.59 47.18 44.59 47.3 44.59 47.42 44.65 47.54 44.65 47.66 44.71 47.78 44.71 47.9 44.53 48.25 44.78 48.85 44.71 48.97 44.71 49.08 44.71 49.2 44.78 49.32 44.84 49.44 44.71 49.56 44.71 50.03 44.65 50.15 44.71 50.75 44.71 50.99 44.71 51.1 44.34 51.22 44.53 51.34 44.71 51.46 44.71 51.58 44.71 51.7 44.65 52.05 44.59 52.17 44.59 52.41 44.53 52.53 44.59 52.65 44.59 53.01 44.59 53.24 44.65 53.6 44.65 54.08 44.65 54.31 44.65 54.67 44.65 55.5 44.59 55.98 44.46 56.1 44.59 56.21 44.59 56.33 44.34 56.45 44.34 56.57 44.4 56.81 44.4 56.93 44.34 57.05 44.34 57.17 44.28 57.28 44.34 57.4 44.34 57.52 44.34 57.76 44.34 57.88 44.34 58 44.34 58.47 44.15 58.59 44.15 58.71 44.15 58.95 44.09 59.19 44.03 59.3 44.03 59.66 44.03 60.25 44.03 60.85 44.09 61.44 42.29 61.56 42.91 61.68 43.34 61.8 44.09 61.92 44.09 62.16 44.09 62.39 44.09 62.87 44.09 62.99 44.03 63.11 44.03 63.23 44.03 63.34 44.03 63.46 44.03 63.58 43.97 65.01 43.9 65.25 43.97 65.37 44.09 65.6 44.09 66.08 43.97 66.32 44.09 66.55 44.03 67.03 44.03 67.27 44.03 67.39 43.97 67.62 43.84 67.74 43.84 67.86 43.84 67.98 43.9 68.1 43.78 68.22 43.78 68.45 43.78 68.57 43.84 68.81 43.78 69.05 43.78 69.17 43.66 69.29 43.66 69.52 43.72 69.64 43.66 70.24 43.59 70.71 43.47 70.83 43.47 71.78 43.22 71.9 43.22 72.02 43.22 72.38 43.22 72.5 43.22 72.61 43.28 72.85 43.34 73.09 43.28 73.33 43.28 74.4 43.41"/>
      </g>
      <g stroke-width="0.3" fill="#000000" fill-opacity="0.000" class="geometry color_newno_tests" stroke-dasharray="none" stroke="#0000FF" id="img-8222d1be-16">
        <path fill="none" d="M21.63,42.35 L 21.75 42.35 21.87 42.35 21.99 42.35 22.11 42.35 22.23 42.41 22.34 42.41 22.46 42.35 22.7 42.29 22.82 42.29 23.06 42.29 23.3 42.16 23.41 42.16 23.65 42.16 23.77 42.16 24.6 42.16 24.96 42.16 25.2 42.16 26.03 42.1 26.15 42.1 26.27 42.1 26.39 42.1 26.5 42.1 26.62 42.1 26.74 42.1 26.86 42.1 26.98 42.1 27.1 42.23 27.22 42.23 27.34 42.23 27.57 42.29 27.69 42.29 27.81 42.29 27.93 42.23 28.05 42.23 28.17 42.35 28.29 42.41 28.41 42.41 28.52 42.41 28.64 42.41 28.76 42.41 28.88 42.41 29 42.41 29.12 42.16 29.24 42.23 29.36 42.23 29.48 42.23 30.19 42.23 30.31 42.23 30.43 42.23 30.54 42.29 30.66 42.29 30.78 42.29 30.9 42.29 31.02 42.35 31.14 42.35 31.26 42.54 31.5 42.47 31.61 42.35 31.73 42.35 31.85 42.35 31.97 42.35 32.09 42.35 32.21 42.35 32.33 42.35 32.57 42.41 32.68 42.35 32.8 42.35 32.92 42.35 33.04 42.47 33.16 42.47 33.4 42.47 33.52 42.47 33.63 42.47 33.75 42.47 33.99 42.35 34.23 42.54 34.35 42.47 34.47 42.41 34.59 42.41 34.94 42.41 35.06 42.41 35.18 42.41 35.3 42.41 35.42 42.47 35.54 42.47 35.65 42.47 35.77 42.54 36.01 42.54 36.13 42.54 36.37 42.54 36.49 42.54 36.61 42.54 36.72 42.54 36.96 42.41 37.08 42.47 37.2 42.47 37.32 42.41 37.44 42.41 37.56 42.41 37.68 42.41 37.79 42.41 37.91 42.41 38.03 42.41 38.15 42.79 38.27 42.79 38.39 42.79 38.63 42.35 38.74 42.35 38.86 42.41 38.98 42.41 39.1 42.47 39.22 42.41 39.34 42.41 39.46 42.47 39.7 42.85 39.81 42.91 40.05 42.91 40.17 42.91 40.29 42.91 40.77 42.91 41.12 42.85 41.24 42.85 41.36 42.79 41.48 42.79 41.6 42.79 41.72 42.85 41.83 42.85 41.95 42.91 42.07 42.91 42.31 42.91 42.43 42.85 42.55 42.85 42.67 42.85 42.79 42.85 42.9 42.91 43.02 42.91 43.26 42.85 43.38 42.85 43.5 42.85 43.62 42.85 43.74 42.6 43.85 42.85 43.97 42.85 44.09 42.85 44.45 42.91 44.57 42.91 44.69 42.85 44.81 42.85 44.92 42.85 45.04 42.85 45.16 42.85 45.28 42.85 45.4 42.85 45.52 42.85 45.64 42.85 45.76 42.91 45.88 42.85 45.99 42.85 46.11 42.85 46.23 42.85 46.35 42.85 46.47 42.91 46.59 42.85 46.71 42.91 46.83 42.85 46.94 42.85 47.06 42.85 47.18 42.85 47.3 42.85 47.42 42.85 47.54 42.85 47.66 42.85 47.78 42.85 47.9 42.85 48.25 42.85 48.85 42.85 48.97 42.85 49.08 42.85 49.2 42.85 49.32 42.85 49.44 42.85 49.56 42.85 50.03 42.91 50.15 42.85 50.75 42.85 50.99 42.85 51.1 42.85 51.22 42.91 51.34 42.85 51.46 42.85 51.58 42.85 51.7 42.91 52.05 42.85 52.17 42.85 52.41 42.85 52.53 42.79 52.65 42.79 53.01 42.85 53.24 42.79 53.6 42.79 54.08 42.85 54.31 42.79 54.67 42.79 55.5 42.79 55.98 42.79 56.1 42.79 56.21 42.79 56.33 42.85 56.45 42.79 56.57 42.79 56.81 42.79 56.93 42.85 57.05 42.85 57.17 42.85 57.28 42.79 57.4 42.79 57.52 42.79 57.76 42.79 57.88 42.79 58 42.79 58.47 42.79 58.59 42.79 58.71 42.79 58.95 42.79 59.19 42.79 59.3 42.79 59.66 42.79 60.25 42.79 60.85 42.79 61.44 42.97 61.56 42.91 61.68 42.91 61.8 42.91 61.92 42.85 62.16 42.85 62.39 42.85 62.87 42.85 62.99 42.85 63.11 42.91 63.23 42.91 63.34 42.91 63.46 42.91 63.58 42.91 65.01 42.97 65.25 42.97 65.37 42.97 65.6 43.03 66.08 43.03 66.32 43.03 66.55 43.03 67.03 43.03 67.27 43.03 67.39 43.03 67.62 43.03 67.74 43.03 67.86 43.03 67.98 43.03 68.1 43.03 68.22 43.03 68.45 43.03 68.57 43.03 68.81 43.1 69.05 43.03 69.17 43.03 69.29 43.03 69.52 43.1 69.64 43.03 70.24 43.1 70.71 43.1 70.83 43.1 71.78 43.1 71.9 43.1 72.02 43.1 72.38 43.16 72.5 43.16 72.61 43.1 72.85 43.1 73.09 43.1 73.33 43.16 74.4 43.1"/>
      </g>
      <g stroke-width="0.3" fill="#000000" fill-opacity="0.000" class="geometry color_oldfull_fail" stroke-dasharray="none" stroke="#FFA500" id="img-8222d1be-17">
        <path fill="none" d="M21.63,43.16 L 21.75 43.16 21.87 43.59 21.99 42.91 22.11 42.97 22.23 43.47 22.34 43.34 22.46 43.47 22.7 42.6 22.82 42.6 23.06 42.54 23.3 42.79 23.41 42.66 23.65 42.85 23.77 42.79 24.6 42.91 24.96 42.91 25.2 42.91 26.03 42.85 26.15 42.72 26.27 42.1 26.39 42.1 26.5 42.41 26.62 42.41 26.74 42.6 26.86 42.6 26.98 42.6 27.1 42.85 27.22 42.85 27.34 43.16 27.57 43.16 27.69 43.1 27.81 42.97 27.93 43.03 28.05 43.03 28.17 43.16 28.29 43.16 28.41 43.16 28.52 43.03 28.64 43.28 28.76 43.22 28.88 43.16 29 43.03 29.12 45.71 29.24 43.28 29.36 42.97 29.48 43.1 30.19 42.97 30.31 43.22 30.43 43.47 30.54 43.47 30.66 43.41 30.78 43.66 30.9 43.59 31.02 43.59 31.14 43.66 31.26 43.84 31.5 43.53 31.61 43.59 31.73 43.72 31.85 43.59 31.97 43.72 32.09 43.72 32.21 43.47 32.33 43.53 32.57 43.78 32.68 43.78 32.8 43.78 32.92 43.72 33.04 43.66 33.16 43.78 33.4 43.78 33.52 43.84 33.63 43.9 33.75 43.9 33.99 43.78 34.23 43.34 34.35 43.66 34.47 43.59 34.59 43.59 34.94 43.59 35.06 43.59 35.18 43.41 35.3 43.53 35.42 43.47 35.54 43.47 35.65 43.59 35.77 43.53 36.01 43.59 36.13 43.66 36.37 43.66 36.49 43.66 36.61 43.66 36.72 43.66 36.96 43.66 37.08 43.66 37.2 43.66 37.32 43.59 37.44 43.59 37.56 43.53 37.68 43.66 37.79 43.53 37.91 43.47 38.03 43.47 38.15 43.34 38.27 43.28 38.39 43.34 38.63 43.22 38.74 43.28 38.86 43.47 38.98 43.28 39.1 43.28 39.22 43.34 39.34 43.16 39.46 43.22 39.7 43.53 39.81 43.47 40.05 43.47 40.17 43.47 40.29 43.47 40.77 43.47 41.12 43.41 41.24 43.34 41.36 43.41 41.48 43.28 41.6 43.28 41.72 43.47 41.83 43.16 41.95 43.1 42.07 43.1 42.31 43.16 42.43 43.28 42.55 43.22 42.67 43.28 42.79 43.28 42.9 43.16 43.02 43.28 43.26 43.41 43.38 43.41 43.5 43.41 43.62 43.41 43.74 43.22 43.85 43.47 43.97 43.47 44.09 43.47 44.45 43.1 44.57 43.28 44.69 43.28 44.81 43.41 44.92 43.28 45.04 43.41 45.16 43.41 45.28 43.34 45.4 43.34 45.52 43.28 45.64 43.47 45.76 43.41 45.88 43.34 45.99 43.41 46.11 43.41 46.23 43.34 46.35 43.47 46.47 43.28 46.59 43.28 46.71 43.41 46.83 43.34 46.94 43.28 47.06 43.28 47.18 43.28 47.3 43.22 47.42 43.28 47.54 43.41 47.66 43.22 47.78 43.28 47.9 43.28 48.25 43.16 48.85 43.16 48.97 43.03 49.08 43.03 49.2 42.91 49.32 42.97 49.44 43.16 49.56 43.16 50.03 43.1 50.15 43.1 50.75 42.97 50.99 42.97 51.1 42.72 51.22 42.85 51.34 42.91 51.46 43.03 51.58 43.03 51.7 42.91 52.05 42.79 52.17 42.79 52.41 42.72 52.53 42.54 52.65 42.85 53.01 42.79 53.24 42.91 53.6 42.85 54.08 42.72 54.31 42.85 54.67 42.6 55.5 42.47 55.98 42.54 56.1 42.54 56.21 42.54 56.33 42.23 56.45 42.1 56.57 42.04 56.81 42.16 56.93 42.16 57.05 42.16 57.17 42.1 57.28 41.91 57.4 42.23 57.52 42.23 57.76 42.23 57.88 42.23 58 42.29 58.47 42.1 58.59 42.23 58.71 42.04 58.95 42.47 59.19 42.47 59.3 42.41 59.66 42.29 60.25 42.29 60.85 42.35 61.44 41.85 61.56 41.6 61.68 41.67 61.8 41.6 61.92 41.91 62.16 41.85 62.39 41.91 62.87 41.67 62.99 41.73 63.11 41.91 63.23 41.79 63.34 41.85 63.46 41.73 63.58 41.91 65.01 41.85 65.25 41.91 65.37 41.73 65.6 41.91 66.08 42.04 66.32 41.98 66.55 41.67 67.03 41.85 67.27 41.73 67.39 42.23 67.62 42.35 67.74 42.16 67.86 42.23 67.98 42.1 68.1 42.16 68.22 42.41 68.45 42.23 68.57 42.16 68.81 42.35 69.05 42.29 69.17 42.16 69.29 42.29 69.52 42.16 69.64 42.1 70.24 41.91 70.71 42.1 70.83 42.1 71.78 42.16 71.9 42.23 72.02 42.16 72.38 42.41 72.5 42.41 72.61 42.35 72.85 42.04 73.09 42.16 73.33 42.1 74.4 42.23"/>
      </g>
      <g stroke-width="0.3" fill="#000000" fill-opacity="0.000" class="geometry color_newtests_pass" stroke-dasharray="none" stroke="#008000" id="img-8222d1be-18">
        <path fill="none" d="M21.63,37.69 L 21.75 37.69 21.87 38.12 21.99 37.81 22.11 37.81 22.23 38.25 22.34 38.37 22.46 38.25 22.7 38.18 22.82 38.12 23.06 38.06 23.3 37.81 23.41 37.93 23.65 37.69 23.77 37.69 24.6 37.25 24.96 37.25 25.2 37.25 26.03 37.31 26.15 37.25 26.27 37.93 26.39 37.93 26.5 37.56 26.62 37.56 26.74 37.44 26.86 37.44 26.98 37.44 27.1 37.13 27.22 37.13 27.34 36.75 27.57 36.63 27.69 36.38 27.81 36.38 27.93 36.13 28.05 36.13 28.17 35.82 28.29 35.7 28.41 35.76 28.52 35.82 28.64 35.57 28.76 35.63 28.88 35.57 29 35.7 29.12 35.26 29.24 35.32 29.36 35.57 29.48 35.38 30.19 35.07 30.31 34.76 30.43 34.45 30.54 34.33 30.66 34.33 30.78 34.08 30.9 34.14 31.02 34.08 31.14 34.02 31.26 34.76 31.5 33.95 31.61 33.83 31.73 33.71 31.85 33.83 31.97 33.71 32.09 33.71 32.21 33.77 32.33 33.71 32.57 33.33 32.68 33.27 32.8 33.27 32.92 33.27 33.04 33.21 33.16 32.96 33.4 32.9 33.52 32.77 33.63 32.71 33.75 32.71 33.99 32.77 34.23 34.08 34.35 33.89 34.47 32.65 34.59 32.71 34.94 32.52 35.06 32.52 35.18 32.65 35.3 32.52 35.42 32.46 35.54 32.34 35.65 32.21 35.77 32.15 36.01 32.09 36.13 31.96 36.37 32.03 36.49 31.9 36.61 31.71 36.72 31.71 36.96 31.78 37.08 31.71 37.2 31.71 37.32 31.71 37.44 31.65 37.56 31.71 37.68 31.53 37.79 31.65 37.91 31.71 38.03 31.59 38.15 33.02 38.27 32.71 38.39 32.65 38.63 31.59 38.74 31.47 38.86 31.22 38.98 31.34 39.1 31.34 39.22 31.16 39.34 31.16 39.46 31.16 39.7 30.97 39.81 30.78 40.05 30.78 40.17 30.78 40.29 30.78 40.77 30.78 41.12 30.22 41.24 30.22 41.36 30.16 41.48 30.1 41.6 30.04 41.72 29.79 41.83 29.6 41.95 29.6 42.07 29.6 42.31 29.72 42.43 29.6 42.55 29.66 42.67 29.54 42.79 29.6 42.9 29.72 43.02 29.6 43.26 29.54 43.38 29.41 43.5 29.41 43.62 29.35 43.74 28.79 43.85 29.23 43.97 29.16 44.09 29.04 44.45 29.23 44.57 29.1 44.69 29.04 44.81 28.79 44.92 28.92 45.04 28.79 45.16 28.67 45.28 28.73 45.4 28.79 45.52 28.85 45.64 28.73 45.76 28.85 45.88 28.85 45.99 28.73 46.11 28.61 46.23 28.67 46.35 28.54 46.47 28.67 46.59 28.67 46.71 28.48 46.83 28.54 46.94 28.54 47.06 28.42 47.18 28.42 47.3 28.42 47.42 28.29 47.54 28.17 47.66 28.23 47.78 28.17 47.9 28.29 48.25 28.17 48.85 27.92 48.97 27.92 49.08 27.92 49.2 27.92 49.32 27.8 49.44 27.55 49.56 27.55 50.03 27.3 50.15 27.3 50.75 27.36 50.99 27.36 51.1 27.86 51.22 27.42 51.34 27.24 51.46 27.11 51.58 26.99 51.7 27.05 52.05 27.17 52.17 27.11 52.41 27.05 52.53 27.17 52.65 26.86 53.01 26.86 53.24 26.61 53.6 26.55 54.08 26.49 54.31 26.24 54.67 26.24 55.5 26.06 55.98 25.68 56.1 25.56 56.21 25.56 56.33 25.81 56.45 25.99 56.57 25.99 56.81 25.87 56.93 25.74 57.05 25.74 57.17 25.68 57.28 25.81 57.4 25.5 57.52 25.5 57.76 25.37 57.88 25.25 58 25.12 58.47 25 58.59 25 58.71 25.18 58.95 24.62 59.19 24.5 59.3 24.56 59.66 24.56 60.25 24.56 60.85 24.07 61.44 25.93 61.56 25.62 61.68 25.12 61.8 24.75 61.92 24.44 62.16 24.56 62.39 24.5 62.87 24.62 62.99 24.5 63.11 24.19 63.23 24.31 63.34 24.13 63.46 24.25 63.58 24.07 65.01 24.13 65.25 24.07 65.37 23.94 65.6 23.69 66.08 23.63 66.32 23.57 66.55 23.75 67.03 23.57 67.27 23.57 67.39 23.07 67.62 22.76 67.74 22.95 67.86 22.82 67.98 22.7 68.1 22.76 68.22 22.45 68.45 22.57 68.57 22.51 68.81 22.32 69.05 22.32 69.17 22.39 69.29 22.2 69.52 22.07 69.64 22.2 70.24 22.14 70.71 21.89 70.83 21.83 71.78 21.76 71.9 21.83 72.02 21.89 72.38 21.39 72.5 21.33 72.61 21.27 72.85 21.39 73.09 21.33 73.33 21.27 74.4 20.77"/>
      </g>
    </g>
  </g>
</g>
  <g class="guide ylabels" font-size="2.82" font-family="'PT Sans Caption','Helvetica Neue','Helvetica',sans-serif" fill="#6C606B" id="img-8222d1be-19">
    <text x="18.63" y="45.71" text-anchor="end" dy="0.35em">0</text>
    <text x="18.63" y="39.49" text-anchor="end" dy="0.35em">100</text>
    <text x="18.63" y="33.27" text-anchor="end" dy="0.35em">200</text>
    <text x="18.63" y="27.05" text-anchor="end" dy="0.35em">300</text>
    <text x="18.63" y="20.83" text-anchor="end" dy="0.35em">400</text>
    <text x="18.63" y="14.61" text-anchor="end" dy="0.35em">500</text>
  </g>
  <g font-size="3.88" font-family="'PT Sans','Helvetica Neue','Helvetica',sans-serif" fill="#564A55" stroke="#000000" stroke-opacity="0.000" id="img-8222d1be-20">
    <text x="8.81" y="28.16" text-anchor="middle" dy="0.35em" transform="rotate(-90, 8.81, 30.16)">Number of Packages</text>
  </g>
  <g font-size="3.88" font-family="'PT Sans','Helvetica Neue','Helvetica',sans-serif" fill="#564A55" stroke="#000000" stroke-opacity="0.000" id="img-8222d1be-21">
    <text x="58.12" y="10.61" text-anchor="middle">Julia v0.3</text>
  </g>
</g>
<defs>
  <clipPath id="img-8222d1be-4">
  <path d="M19.63,12.61 L 96.6 12.61 96.6 47.71 19.63 47.71" />
</clipPath>
</defs>
</svg>
