<?xml version="1.0" encoding="UTF-8"?>
<svg xmlns="http://www.w3.org/2000/svg"
     xmlns:xlink="http://www.w3.org/1999/xlink"
     xmlns:gadfly="http://www.gadflyjl.org/ns"
     version="1.2"
     width="101.6mm" height="76.2mm" viewBox="0 0 101.6 76.2"
     stroke="none"
     fill="#000000"
     stroke-width="0.3"
     font-size="3.88"
>
<g class="plotroot xscalable yscalable" id="img-8b5bb149-1">
  <g font-size="3.88" font-family="'PT Sans','Helvetica Neue','Helvetica',sans-serif" fill="#564A55" stroke="#000000" stroke-opacity="0.000" id="img-8b5bb149-2">
    <text x="58.12" y="64.59" text-anchor="middle" dy="0.6em">Date</text>
  </g>
  <g class="guide xlabels" font-size="2.82" font-family="'PT Sans Caption','Helvetica Neue','Helvetica',sans-serif" fill="#6C606B" id="img-8b5bb149-3">
    <text x="21.87" y="48.71" text-anchor="end" dy="0.35em" transform="rotate(-90, 21.87, 48.71)">Apr</text>
    <text x="25.39" y="48.71" text-anchor="end" dy="0.35em" transform="rotate(-90, 25.39, 48.71)">May</text>
    <text x="29.03" y="48.71" text-anchor="end" dy="0.35em" transform="rotate(-90, 29.03, 48.71)">Jun</text>
    <text x="32.56" y="48.71" text-anchor="end" dy="0.35em" transform="rotate(-90, 32.56, 48.71)">Jul</text>
    <text x="36.2" y="48.71" text-anchor="end" dy="0.35em" transform="rotate(-90, 36.2, 48.71)">Aug</text>
    <text x="39.84" y="48.71" text-anchor="end" dy="0.35em" transform="rotate(-90, 39.84, 48.71)">Sep</text>
    <text x="43.37" y="48.71" text-anchor="end" dy="0.35em" transform="rotate(-90, 43.37, 48.71)">Oct</text>
    <text x="47.01" y="48.71" text-anchor="end" dy="0.35em" transform="rotate(-90, 47.01, 48.71)">Nov</text>
    <text x="50.54" y="48.71" text-anchor="end" dy="0.35em" transform="rotate(-90, 50.54, 48.71)">Dec</text>
    <text x="54.18" y="48.71" text-anchor="end" dy="0.35em" transform="rotate(-90, 54.18, 48.71)">Jan 2015</text>
    <text x="57.82" y="48.71" text-anchor="end" dy="0.35em" transform="rotate(-90, 57.82, 48.71)">Feb</text>
    <text x="61.11" y="48.71" text-anchor="end" dy="0.35em" transform="rotate(-90, 61.11, 48.71)">Mar</text>
    <text x="64.75" y="48.71" text-anchor="end" dy="0.35em" transform="rotate(-90, 64.75, 48.71)">Apr</text>
    <text x="68.28" y="48.71" text-anchor="end" dy="0.35em" transform="rotate(-90, 68.28, 48.71)">May</text>
    <text x="71.92" y="48.71" text-anchor="end" dy="0.35em" transform="rotate(-90, 71.92, 48.71)">Jun</text>
    <text x="75.45" y="48.71" text-anchor="end" dy="0.35em" transform="rotate(-90, 75.45, 48.71)">Jul</text>
    <text x="79.09" y="48.71" text-anchor="end" dy="0.35em" transform="rotate(-90, 79.09, 48.71)">Aug</text>
    <text x="82.73" y="48.71" text-anchor="end" dy="0.35em" transform="rotate(-90, 82.73, 48.71)">Sep</text>
    <text x="86.26" y="48.71" text-anchor="end" dy="0.35em" transform="rotate(-90, 86.26, 48.71)">Oct</text>
    <text x="89.9" y="48.71" text-anchor="end" dy="0.35em" transform="rotate(-90, 89.9, 48.71)">Nov</text>
    <text x="93.42" y="48.71" text-anchor="end" dy="0.35em" transform="rotate(-90, 93.42, 48.71)">Dec</text>
  </g>
<g clip-path="url(#img-8b5bb149-4)">
  <g id="img-8b5bb149-5">
    <g pointer-events="visible" opacity="1" fill="#000000" fill-opacity="0.000" stroke="#000000" stroke-opacity="0.000" class="guide background" id="img-8b5bb149-6">
      <rect x="19.63" y="12.61" width="76.97" height="35.1"/>
    </g>
    <g class="guide ygridlines xfixed" stroke-dasharray="0.5,0.5" stroke-width="0.2" stroke="#D0D0E0" id="img-8b5bb149-7">
      <path fill="none" d="M19.63,45.71 L 96.6 45.71"/>
      <path fill="none" d="M19.63,30.16 L 96.6 30.16"/>
      <path fill="none" d="M19.63,14.61 L 96.6 14.61"/>
    </g>
    <g class="guide xgridlines yfixed" stroke-dasharray="0.5,0.5" stroke-width="0.2" stroke="#D0D0E0" id="img-8b5bb149-8">
      <path fill="none" d="M21.87,12.61 L 21.87 47.71"/>
      <path fill="none" d="M25.39,12.61 L 25.39 47.71"/>
      <path fill="none" d="M29.03,12.61 L 29.03 47.71"/>
      <path fill="none" d="M32.56,12.61 L 32.56 47.71"/>
      <path fill="none" d="M36.2,12.61 L 36.2 47.71"/>
      <path fill="none" d="M39.84,12.61 L 39.84 47.71"/>
      <path fill="none" d="M43.37,12.61 L 43.37 47.71"/>
      <path fill="none" d="M47.01,12.61 L 47.01 47.71"/>
      <path fill="none" d="M50.54,12.61 L 50.54 47.71"/>
      <path fill="none" d="M54.18,12.61 L 54.18 47.71"/>
      <path fill="none" d="M57.82,12.61 L 57.82 47.71"/>
      <path fill="none" d="M61.11,12.61 L 61.11 47.71"/>
      <path fill="none" d="M64.75,12.61 L 64.75 47.71"/>
      <path fill="none" d="M68.28,12.61 L 68.28 47.71"/>
      <path fill="none" d="M71.92,12.61 L 71.92 47.71"/>
      <path fill="none" d="M75.45,12.61 L 75.45 47.71"/>
      <path fill="none" d="M79.09,12.61 L 79.09 47.71"/>
      <path fill="none" d="M82.73,12.61 L 82.73 47.71"/>
      <path fill="none" d="M86.26,12.61 L 86.26 47.71"/>
      <path fill="none" d="M89.9,12.61 L 89.9 47.71"/>
      <path fill="none" d="M93.42,12.61 L 93.42 47.71"/>
    </g>
    <g class="plotpanel" id="img-8b5bb149-9">
      <g stroke-width="0.3" fill="#000000" fill-opacity="0.000" class="geometry color_newnot_possible" stroke-dasharray="none" stroke="#808080" id="img-8b5bb149-10">
        <path fill="none" d="M74.15,42.94 L 74.27 42.94 74.39 42.95 74.51 42.95 74.62 42.96 74.74 42.96 74.86 42.96 74.98 42.96 75.33 42.96 75.56 42.97 75.8 43.02 75.92 42.98 76.03 42.99 76.15 43 76.27 43.01 76.39 43.01 78.38 43.02 79.32 43.04 80.38 43.06 82.38 43.12 82.73 43.12 83.32 42.99 83.91 42.85 85.79 42.89 86.26 42.92 86.84 42.93 87.31 42.94 87.78 42.94 88.14 42.91 89.55 42.91 90.96 42.87 91.43 42.86 91.66 42.82 92.72 42.82 92.84 42.82 93.66 42.83 93.78 42.84 94.6 42.84"/>
      </g>
      <g stroke-width="0.3" fill="#000000" fill-opacity="0.000" class="geometry color_newno_tests" stroke-dasharray="none" stroke="#0000FF" id="img-8b5bb149-11">
        <path fill="none" d="M74.15,40.12 L 74.27 40.12 74.39 40.13 74.51 40.13 74.62 40.15 74.74 40.15 74.86 40.15 74.98 40.16 75.33 40.16 75.56 40.18 75.8 40.17 75.92 40.19 76.03 40.28 76.15 40.3 76.27 40.3 76.39 40.36 78.38 40.43 79.32 40.47 80.38 40.51 82.38 40.62 82.73 40.69 83.32 40.69 83.91 40.76 85.79 40.97 86.26 41.15 86.84 41.27 87.31 41.27 87.78 41.29 88.14 41.34 89.55 41.4 90.96 41.49 91.43 41.48 91.66 41.49 92.72 41.49 92.84 41.49 93.66 41.51 93.78 41.51 94.6 41.52"/>
      </g>
      <g stroke-width="0.3" fill="#000000" fill-opacity="0.000" class="geometry color_newtests_fail" stroke-dasharray="none" stroke="#FF0000" id="img-8b5bb149-12">
        <path fill="none" d="M74.15,42.78 L 74.27 42.62 74.39 42.58 74.51 42.53 74.62 42.44 74.74 42.59 74.86 42.39 74.98 42.55 75.33 42.44 75.56 42.4 75.8 42.35 75.92 42.51 76.03 40.89 76.15 42.44 76.27 42.14 76.39 42.19 78.38 42.47 79.32 42.54 80.38 42.18 82.38 41.44 82.73 41.69 83.32 41.98 83.91 42.23 85.79 42.24 86.26 42.03 86.84 42.24 87.31 42.29 87.78 42.16 88.14 42.17 89.55 42.08 90.96 42 91.43 42.31 91.66 42.32 92.72 42.37 92.84 42.32 93.66 42.47 93.78 42.43 94.6 42.48"/>
      </g>
      <g stroke-width="0.3" fill="#000000" fill-opacity="0.000" class="geometry color_newtests_pass" stroke-dasharray="none" stroke="#008000" id="img-8b5bb149-13">
        <path fill="none" d="M74.15,25.9 L 74.27 26.06 74.39 26.07 74.51 26.12 74.62 26.19 74.74 26.03 74.86 26.24 74.98 26.07 75.33 26.17 75.56 26.18 75.8 26.2 75.92 26.06 76.03 27.57 76.15 26 76.27 26.29 76.39 26.18 78.38 25.82 79.32 25.69 80.38 25.99 82.38 26.56 82.73 26.24 83.32 26.08 83.91 25.9 85.79 25.63 86.26 25.64 86.84 25.3 87.31 25.24 87.78 25.35 88.14 25.31 89.55 25.34 90.96 25.37 91.43 25.08 91.66 25.1 92.72 25.05 92.84 25.1 93.66 24.93 93.78 24.96 94.6 24.9"/>
      </g>
      <g stroke-width="0.3" fill="#000000" fill-opacity="0.000" class="geometry color_newnot_possible" stroke-dasharray="none" stroke="#808080" id="img-8b5bb149-14">
        <path fill="none" d="M21.63,42.35 L 21.75 42.35 21.87 42.36 21.98 42.36 22.1 42.36 22.22 42.36 22.34 42.36 22.45 42.37 22.69 42.37 22.81 42.38 23.04 42.39 23.28 42.41 23.39 42.41 23.63 42.41 23.75 42.42 24.57 42.47 24.92 42.47 25.16 42.47 25.98 42.58 26.1 42.6 26.21 42.61 26.33 42.61 26.45 42.61 26.57 42.51 26.68 42.51 26.8 42.51 26.92 42.51 27.04 42.31 27.15 42.31 27.27 42.34 27.51 42.25 27.62 42.94 27.74 42.94 27.86 42.96 27.98 42.96 28.09 42.96 28.21 42.97 28.33 42.97 28.45 42.97 28.56 42.97 28.68 42.97 28.8 42.98 28.92 42.98 29.03 42.59 29.15 42.99 29.27 43 29.39 43 30.09 42.58 30.21 42.49 30.33 42.5 30.44 42.51 30.56 42.53 30.68 42.44 30.8 42.27 30.91 42.27 31.03 42.28 31.15 42.29 31.38 42.29 31.5 42.31 31.62 42.31 31.74 42.31 31.85 42.31 31.97 42.31 32.09 42.34 32.21 42.34 32.44 42.35 32.56 42.37 32.68 42.38 32.79 42.39 32.91 42.39 33.03 42.41 33.26 42.42 33.38 42.45 33.5 42.45 33.62 42.45 33.85 42.49 34.09 42.52 34.2 42.52 34.32 42.53 34.44 42.53 34.79 42.54 34.91 42.54 35.03 42.55 35.14 42.55 35.26 42.55 35.38 42.56 35.5 42.48 35.61 42.49 35.85 42.49 35.97 42.49 36.2 42.49 36.32 42.5 36.44 42.52 36.55 42.52 36.79 42.53 36.91 42.53 37.02 42.55 37.14 42.56 37.26 42.57 37.38 42.57 37.49 42.58 37.61 42.6 37.73 42.52 37.85 42.44 37.96 42.45 38.08 42.45 38.2 42.45 38.43 42.48 38.55 42.48 38.67 42.49 38.79 42.49 38.9 42.49 39.02 42.51 39.14 42.52 39.26 42.53 39.49 42.43 39.61 42.37 39.84 42.39 39.96 42.39 40.08 42.31 40.55 42.31 40.9 42.36 41.02 42.37 41.14 42.38 41.25 42.39 41.37 42.39 41.49 42.39 41.61 42.46 41.72 42.46 41.84 42.46 42.08 42.38 42.19 42.39 42.31 42.4 42.43 42.4 42.55 42.4 42.66 42.41 42.78 42.33 43.02 42.32 43.13 42.33 43.25 42.33 43.37 42.35 43.49 42.29 43.6 42.29 43.72 42.29 43.84 42.3 44.19 42.32 44.31 42.24 44.43 42.26 44.54 42.27 44.66 42.27 44.78 42.27 44.9 42.29 45.01 42.29 45.13 42.29 45.25 42.3 45.37 42.23 45.48 42.23 45.6 42.23 45.72 42.24 45.84 42.25 45.95 42.25 46.07 42.25 46.19 42.26 46.31 42.26 46.42 42.27 46.54 42.27 46.66 42.29 46.78 42.29 46.89 42.29 47.01 42.3 47.13 42.3 47.25 42.3 47.36 42.31 47.48 42.31 47.6 42.32 47.95 42.32 48.54 42.36 48.66 42.37 48.77 42.37 48.89 42.38 49.01 42.38 49.13 42.4 49.24 42.4 49.71 42.44 49.83 42.44 50.42 42.45 50.65 42.45 50.77 42.52 50.89 42.53 51.01 42.53 51.12 42.53 51.24 42.54 51.36 42.55 51.71 42.56 51.83 42.57 52.06 42.59 52.18 42.6 52.3 42.6 52.65 42.6 52.89 42.61 53.24 42.63 53.71 42.64 53.94 42.66 54.3 42.68 55.12 42.72 55.59 42.77 55.71 42.65 55.82 42.65 55.94 42.62 56.06 42.62 56.18 42.62 56.41 42.62 56.53 42.63 56.65 42.63 56.76 42.65 56.88 42.65 57 42.65 57.12 42.65 57.35 42.61 57.47 42.62 57.59 42.63 58.06 42.68 58.17 42.67 58.29 42.67 58.53 42.68 58.76 42.7 58.88 42.7 59.23 42.71 59.82 42.71 60.41 42.75 60.99 42.77 61.11 42.77 61.23 42.77 61.35 42.37 61.46 42.43 61.7 42.37 61.93 42.37 62.4 42.38 62.52 42.4 62.64 42.4 62.76 42.4 62.87 42.41 62.99 42.47 63.11 42.42 64.52 42.37 64.75 42.31 64.87 42.33 65.11 42.33 65.58 42.34 65.81 42.34 66.05 42.35 66.52 42.35 66.75 42.37 66.87 42.37 67.1 42.4 67.22 42.4 67.34 42.41 67.46 42.43 67.57 42.43 67.69 42.43 67.93 42.44 68.04 42.44 68.28 42.44 68.51 42.46 68.63 42.47 68.75 42.48 68.98 42.49 69.1 42.5 69.69 42.52 70.16 42.58 70.28 42.54 71.22 42.56 71.33 42.45 71.45 42.45 71.8 42.47 71.92 42.48 72.04 42.54 72.27 42.55 72.51 42.55 72.74 42.55 73.8 42.58"/>
      </g>
      <g stroke-width="0.3" fill="#000000" fill-opacity="0.000" class="geometry color_newtests_fail" stroke-dasharray="none" stroke="#FF0000" id="img-8b5bb149-15">
        <path fill="none" d="M21.63,41.51 L 21.75 41.51 21.87 39.95 21.98 41.62 22.1 41.52 22.22 39.84 22.34 39.84 22.45 39.86 22.69 41.53 22.81 41.55 23.04 41.67 23.28 41.69 23.39 41.69 23.63 41.8 23.75 41.81 24.57 41.96 24.92 41.96 25.16 41.96 25.98 41.87 26.1 42 26.21 41.81 26.33 41.81 26.45 41.91 26.57 42.01 26.68 41.91 26.8 41.91 26.92 41.91 27.04 42.01 27.15 42.01 27.27 41.85 27.51 41.96 27.62 41.76 27.74 41.96 27.86 42.18 27.98 42.18 28.09 42.27 28.21 42.29 28.33 42.19 28.45 42.29 28.56 42.29 28.68 42.29 28.8 42.39 28.92 42.39 29.03 42.81 29.15 42.79 29.27 42.8 29.39 42.81 30.09 43.43 30.21 43.53 30.33 43.54 30.44 43.55 30.56 43.47 30.68 43.56 30.8 43.57 30.91 43.57 31.03 43.49 31.15 41.74 31.38 43.49 31.5 43.6 31.62 43.6 31.74 43.6 31.85 43.6 31.97 43.6 32.09 43.62 32.21 43.62 32.44 43.62 32.56 43.64 32.68 43.55 32.79 43.56 32.91 43.56 33.03 43.57 33.26 43.58 33.38 43.42 33.5 43.42 33.62 43.42 33.85 43.28 34.09 41.57 34.2 41.49 34.32 43.3 34.44 43.22 34.79 43.4 34.91 43.4 35.03 43.4 35.14 43.4 35.26 43.49 35.38 43.58 35.5 43.58 35.61 43.59 35.85 43.59 35.97 43.67 36.2 43.59 36.32 43.68 36.44 43.7 36.55 43.7 36.79 43.7 36.91 43.7 37.02 43.55 37.14 43.64 37.26 43.64 37.38 43.56 37.49 43.57 37.61 43.42 37.73 43.5 37.85 43.67 37.96 41.39 38.08 41.88 38.2 41.88 38.43 43.77 38.55 43.85 38.67 43.77 38.79 43.86 38.9 43.77 39.02 43.79 39.14 43.95 39.26 43.72 39.49 43.99 39.61 44.08 39.84 43.93 39.96 43.93 40.08 44.01 40.55 44.01 40.9 44.43 41.02 44.44 41.14 44.44 41.25 44.52 41.37 44.6 41.49 44.6 41.61 44.63 41.72 44.63 41.84 44.63 42.08 44.47 42.19 44.47 42.31 44.4 42.43 44.48 42.55 44.4 42.66 44.25 42.78 44.33 43.02 44.4 43.13 44.48 43.25 44.48 43.37 44.41 43.49 44.4 43.6 44.42 43.72 44.49 43.84 44.5 44.19 44.5 44.31 44.5 44.43 44.51 44.54 44.59 44.66 44.59 44.78 44.59 44.9 44.59 45.01 44.59 45.13 44.45 45.25 44.38 45.37 44.38 45.48 44.23 45.6 44.38 45.72 44.38 45.84 44.39 45.95 44.39 46.07 44.39 46.19 44.31 46.31 44.39 46.42 44.32 46.54 44.39 46.66 44.32 46.78 44.4 46.89 44.4 47.01 44.4 47.13 44.48 47.25 44.48 47.36 44.55 47.48 44.55 47.6 44.34 47.95 44.63 48.54 44.57 48.66 44.57 48.77 44.57 48.89 44.65 49.01 44.72 49.13 44.58 49.24 44.58 49.71 44.53 49.83 44.6 50.42 44.6 50.65 44.6 50.77 44.18 50.89 44.4 51.01 44.6 51.12 44.6 51.24 44.61 51.36 44.54 51.71 44.48 51.83 44.48 52.06 44.42 52.18 44.49 52.3 44.49 52.65 44.49 52.89 44.56 53.24 44.57 53.71 44.57 53.94 44.58 54.3 44.59 55.12 44.54 55.59 44.43 55.71 44.56 55.82 44.56 55.94 44.32 56.06 44.32 56.18 44.38 56.41 44.38 56.53 44.33 56.65 44.33 56.76 44.27 56.88 44.34 57 44.34 57.12 44.34 57.35 44.35 57.47 44.35 57.59 44.35 58.06 44.19 58.17 44.19 58.29 44.19 58.53 44.14 58.76 44.08 58.88 44.08 59.23 44.09 59.82 44.09 60.41 44.17 60.99 42.48 61.11 43.06 61.23 43.47 61.35 44.19 61.46 44.19 61.7 44.19 61.93 44.19 62.4 44.19 62.52 44.14 62.64 44.14 62.76 44.14 62.87 44.15 62.99 44.14 63.11 44.09 64.52 44.04 64.75 44.1 64.87 44.22 65.11 44.22 65.58 44.11 65.81 44.22 66.05 44.17 66.52 44.17 66.75 44.18 66.87 44.13 67.1 44.03 67.22 44.03 67.34 44.03 67.46 44.1 67.57 43.98 67.69 43.99 67.93 43.99 68.04 44.05 68.28 43.99 68.51 44 68.63 43.9 68.75 43.9 68.98 43.96 69.1 43.91 69.69 43.87 70.16 43.77 70.28 43.77 71.22 43.57 71.33 43.57 71.45 43.57 71.8 43.59 71.92 43.59 72.04 43.65 72.27 43.71 72.51 43.65 72.74 43.66 73.8 43.78"/>
      </g>
      <g stroke-width="0.3" fill="#000000" fill-opacity="0.000" class="geometry color_newno_tests" stroke-dasharray="none" stroke="#0000FF" id="img-8b5bb149-16">
        <path fill="none" d="M21.63,40.04 L 21.75 40.04 21.87 40.05 21.98 40.05 22.1 40.05 22.22 40.16 22.34 40.16 22.45 40.07 22.69 39.97 22.81 39.99 23.04 40.01 23.28 39.84 23.39 39.84 23.63 39.84 23.75 39.86 24.57 39.93 24.92 39.93 25.16 39.93 25.98 39.85 26.1 39.89 26.21 39.91 26.33 39.91 26.45 39.91 26.57 39.91 26.68 39.91 26.8 39.91 26.92 39.91 27.04 40.11 27.15 40.11 27.27 40.16 27.51 40.28 27.62 40.28 27.74 40.28 27.86 40.21 27.98 40.21 28.09 40.41 28.21 40.53 28.33 40.53 28.45 40.53 28.56 40.53 28.68 40.53 28.8 40.54 28.92 40.54 29.03 39.36 29.15 40.27 29.27 40.28 29.39 40.3 30.09 40.4 30.21 40.42 30.33 40.43 30.44 40.54 30.56 40.57 30.68 40.57 30.8 40.6 30.91 40.7 31.03 40.71 31.15 41 31.38 40.91 31.5 40.75 31.62 40.75 31.74 40.75 31.85 40.75 31.97 40.75 32.09 40.8 32.21 40.8 32.44 40.9 32.56 40.84 32.68 40.86 32.79 40.87 32.91 41.05 33.03 41.08 33.26 41.09 33.38 41.13 33.5 41.13 33.62 41.13 33.85 41.02 34.09 41.32 34.2 41.23 34.32 41.16 34.44 41.16 34.79 41.17 34.91 41.17 35.03 41.18 35.14 41.18 35.26 41.27 35.38 41.28 35.5 41.29 35.61 41.39 35.85 41.39 35.97 41.39 36.2 41.39 36.32 41.4 36.44 41.43 36.55 41.43 36.79 41.28 36.91 41.36 37.02 41.38 37.14 41.31 37.26 41.33 37.38 41.34 37.49 41.35 37.61 41.37 37.73 41.37 37.85 41.38 37.96 41.88 38.08 41.88 38.2 41.88 38.43 41.35 38.55 41.35 38.67 41.44 38.79 41.44 38.9 41.52 39.02 41.47 39.14 41.48 39.26 41.57 39.49 41.93 39.61 42.05 39.84 42.06 39.96 42.06 40.08 42.06 40.55 42.06 40.9 42.04 41.02 42.05 41.14 41.98 41.25 42 41.37 42 41.49 42.08 41.61 42.15 41.72 42.23 41.84 42.23 42.08 42.23 42.19 42.16 42.31 42.17 42.43 42.17 42.55 42.17 42.66 42.25 42.78 42.25 43.02 42.17 43.13 42.18 43.25 42.18 43.37 42.19 43.49 42.07 43.6 42.21 43.72 42.21 43.84 42.23 44.19 42.32 44.31 42.32 44.43 42.26 44.54 42.27 44.66 42.27 44.78 42.27 44.9 42.29 45.01 42.29 45.13 42.29 45.25 42.3 45.37 42.3 45.48 42.38 45.6 42.3 45.72 42.31 45.84 42.33 45.95 42.33 46.07 42.33 46.19 42.41 46.31 42.33 46.42 42.42 46.54 42.34 46.66 42.36 46.78 42.37 46.89 42.37 47.01 42.37 47.13 42.37 47.25 42.37 47.36 42.38 47.48 42.38 47.6 42.39 47.95 42.39 48.54 42.43 48.66 42.44 48.77 42.44 48.89 42.45 49.01 42.45 49.13 42.47 49.24 42.47 49.71 42.58 49.83 42.51 50.42 42.52 50.65 42.52 50.77 42.52 50.89 42.6 51.01 42.53 51.12 42.53 51.24 42.54 51.36 42.62 51.71 42.56 51.83 42.57 52.06 42.59 52.18 42.53 52.3 42.53 52.65 42.6 52.89 42.54 53.24 42.56 53.71 42.64 53.94 42.59 54.3 42.62 55.12 42.66 55.59 42.7 55.71 42.71 55.82 42.71 55.94 42.81 56.06 42.74 56.18 42.74 56.41 42.74 56.53 42.82 56.65 42.82 56.76 42.84 56.88 42.78 57 42.78 57.12 42.78 57.35 42.8 57.47 42.81 57.59 42.81 58.06 42.86 58.17 42.85 58.29 42.85 58.53 42.86 58.76 42.88 58.88 42.88 59.23 42.89 59.82 42.89 60.41 42.92 60.99 43.12 61.11 43.06 61.23 43.06 61.35 43.07 61.46 43.01 61.7 43.01 61.93 43.01 62.4 43.02 62.52 43.03 62.64 43.1 62.76 43.1 62.87 43.11 62.99 43.1 63.11 43.11 64.52 43.17 64.75 43.17 64.87 43.19 65.11 43.25 65.58 43.25 65.81 43.25 66.05 43.26 66.52 43.26 66.75 43.27 66.87 43.28 67.1 43.3 67.22 43.3 67.34 43.3 67.46 43.32 67.57 43.32 67.69 43.32 67.93 43.32 68.04 43.33 68.28 43.38 68.51 43.34 68.63 43.35 68.75 43.35 68.98 43.42 69.1 43.37 69.69 43.44 70.16 43.44 70.28 43.45 71.22 43.47 71.33 43.47 71.45 43.47 71.8 43.53 71.92 43.54 72.04 43.49 72.27 43.49 72.51 43.49 72.74 43.55 73.8 43.52"/>
      </g>
      <g stroke-width="0.3" fill="#000000" fill-opacity="0.000" class="geometry color_oldfull_fail" stroke-dasharray="none" stroke="#FFA500" id="img-8b5bb149-17">
        <path fill="none" d="M21.63,41.4 L 21.75 41.4 21.87 42.15 21.98 41 22.1 41.1 22.22 41.94 22.34 41.73 22.45 41.95 22.69 40.49 22.81 40.51 23.04 40.42 23.28 40.87 23.39 40.66 23.63 40.97 23.75 40.88 24.57 41.15 24.92 41.15 25.16 41.15 25.98 41.06 26.1 40.89 26.21 39.91 26.33 39.91 26.45 40.41 26.57 40.41 26.68 40.71 26.8 40.71 26.92 40.71 27.04 41.11 27.15 41.11 27.27 41.65 27.51 41.66 27.62 41.56 27.74 41.36 27.86 41.49 27.98 41.49 28.09 41.69 28.21 41.7 28.33 41.7 28.45 41.5 28.56 41.89 28.68 41.8 28.8 41.71 28.92 41.52 29.03 45.71 29.15 41.92 29.27 41.45 29.39 41.65 30.09 41.54 30.21 41.93 30.33 42.32 30.44 42.33 30.56 42.25 30.68 42.63 30.8 42.55 30.91 42.55 31.03 42.65 31.15 42.94 31.38 42.48 31.5 42.59 31.62 42.77 31.74 42.59 31.85 42.77 31.97 42.77 32.09 42.44 32.21 42.53 32.44 42.9 32.56 42.91 32.68 42.92 32.79 42.84 32.91 42.75 33.03 42.95 33.26 42.95 33.38 43.07 33.5 43.15 33.62 43.15 33.85 43.02 34.09 42.44 34.2 42.87 34.32 42.79 34.44 42.79 34.79 42.8 34.91 42.8 35.03 42.55 35.14 42.72 35.26 42.63 35.38 42.64 35.5 42.82 35.61 42.74 35.85 42.83 35.97 42.91 36.2 42.91 36.32 42.92 36.44 42.94 36.55 42.94 36.79 42.95 36.91 42.95 37.02 42.96 37.14 42.89 37.26 42.9 37.38 42.82 37.49 42.99 37.61 42.84 37.73 42.76 37.85 42.77 37.96 42.61 38.08 42.53 38.2 42.61 38.43 42.48 38.55 42.56 38.67 42.81 38.79 42.57 38.9 42.57 39.02 42.67 39.14 42.44 39.26 42.53 39.49 42.84 39.61 42.78 39.84 42.79 39.96 42.79 40.08 42.79 40.55 42.79 40.9 42.76 41.02 42.69 41.14 42.77 41.25 42.63 41.37 42.63 41.49 42.87 41.61 42.54 41.72 42.46 41.84 42.46 42.08 42.54 42.19 42.7 42.31 42.63 42.43 42.71 42.55 42.71 42.66 42.56 42.78 42.71 43.02 42.86 43.13 42.87 43.25 42.87 43.37 42.88 43.49 42.8 43.6 42.97 43.72 42.97 43.84 42.98 44.19 42.55 44.31 42.77 44.43 42.79 44.54 42.94 44.66 42.79 44.78 42.94 44.9 42.96 45.01 42.88 45.13 42.89 45.25 42.82 45.37 43.04 45.48 42.97 45.6 42.89 45.72 42.98 45.84 42.99 45.95 42.91 46.07 43.06 46.19 42.85 46.31 42.85 46.42 43 46.54 42.93 46.66 42.87 46.78 42.87 46.89 42.87 47.01 42.81 47.13 42.88 47.25 43.03 47.36 42.82 47.48 42.89 47.6 42.89 47.95 42.75 48.54 42.78 48.66 42.66 48.77 42.66 48.89 42.52 49.01 42.59 49.13 42.82 49.24 42.82 49.71 42.79 49.83 42.79 50.42 42.65 50.65 42.65 50.77 42.38 50.89 42.53 51.01 42.6 51.12 42.74 51.24 42.75 51.36 42.62 51.71 42.5 51.83 42.5 52.06 42.46 52.18 42.26 52.3 42.6 52.65 42.53 52.89 42.68 53.24 42.63 53.71 42.51 53.94 42.66 54.3 42.42 55.12 42.33 55.59 42.45 55.71 42.46 55.82 42.46 55.94 42.18 56.06 42.05 56.18 41.99 56.41 42.11 56.53 42.13 56.65 42.13 56.76 42.09 56.88 41.91 57 42.22 57.12 42.22 57.35 42.24 57.47 42.25 57.59 42.32 58.06 42.19 58.17 42.3 58.29 42.12 58.53 42.56 58.76 42.58 58.88 42.52 59.23 42.41 59.82 42.41 60.41 42.51 60.99 42.06 61.11 41.83 61.23 41.89 61.35 41.84 61.46 42.14 61.7 42.08 61.93 42.14 62.4 41.92 62.52 41.99 62.64 42.17 62.76 42.05 62.87 42.12 62.99 42 63.11 42.19 64.52 42.14 64.75 42.2 64.87 42.04 65.11 42.21 65.58 42.34 65.81 42.28 66.05 42.01 66.52 42.18 66.75 42.08 66.87 42.54 67.1 42.68 67.22 42.51 67.34 42.58 67.46 42.48 67.57 42.54 67.69 42.77 67.93 42.6 68.04 42.55 68.28 42.72 68.51 42.68 68.63 42.58 68.75 42.7 68.98 42.6 69.1 42.55 69.69 42.41 70.16 42.58 70.28 42.59 71.22 42.67 71.33 42.72 71.45 42.67 71.8 42.9 71.92 42.9 72.04 42.85 72.27 42.6 72.51 42.7 72.74 42.66 73.8 42.79"/>
      </g>
      <g stroke-width="0.3" fill="#000000" fill-opacity="0.000" class="geometry color_newtests_pass" stroke-dasharray="none" stroke="#008000" id="img-8b5bb149-18">
        <path fill="none" d="M21.63,32.16 L 21.75 32.16 21.87 32.93 21.98 32.41 22.1 32.41 22.22 33.14 22.34 33.35 22.45 33.19 22.69 33.08 22.81 33.02 23.04 32.96 23.28 32.63 23.39 32.84 23.63 32.43 23.75 32.47 24.57 31.93 24.92 31.93 25.16 31.93 25.98 32.08 26.1 32.07 26.21 33.21 26.33 33.21 26.45 32.61 26.57 32.61 26.68 32.41 26.8 32.41 26.92 32.41 27.04 31.91 27.15 31.91 27.27 31.45 27.51 31.3 27.62 30.9 27.74 30.9 27.86 30.6 27.98 30.6 28.09 30.11 28.21 29.96 28.33 30.06 28.45 30.16 28.56 29.77 28.68 29.87 28.8 29.82 28.92 30.01 29.03 26.98 29.15 29.48 29.27 29.92 29.39 29.68 30.09 29.5 30.21 29.07 30.33 28.65 30.44 28.52 30.56 28.62 30.68 28.25 30.8 28.44 30.91 28.35 31.03 28.31 31.15 29.47 31.38 28.27 31.5 28.19 31.62 28 31.74 28.19 31.85 28 31.97 28 32.09 28.25 32.21 28.16 32.44 27.67 32.56 27.68 32.68 27.73 32.79 27.79 32.91 27.7 33.03 27.44 33.26 27.41 33.38 27.39 33.5 27.3 33.62 27.3 33.85 27.64 34.09 29.6 34.2 29.34 34.32 27.67 34.44 27.75 34.79 27.55 34.91 27.55 35.03 27.77 35.14 27.6 35.26 27.51 35.38 27.39 35.5 27.27 35.61 27.24 35.85 27.15 35.97 26.98 36.2 27.07 36.32 26.95 36.44 26.85 36.55 26.85 36.79 26.98 36.91 26.9 37.02 27 37.14 27.05 37.26 27.02 37.38 27.15 37.49 26.95 37.61 27.21 37.73 27.3 37.85 27.18 37.96 29.1 38.08 28.69 38.2 28.61 38.43 27.37 38.55 27.21 38.67 26.94 38.79 27.1 38.9 27.1 39.02 27 39.14 27.05 39.26 27.1 39.49 26.26 39.61 26.17 39.84 26.27 39.96 26.27 40.08 26.27 40.55 26.27 40.9 25.85 41.02 25.91 41.14 25.88 41.25 25.9 41.37 25.82 41.49 25.5 41.61 25.67 41.72 25.67 41.84 25.67 42.08 25.83 42.19 25.72 42.31 25.85 42.43 25.7 42.55 25.77 42.66 25.98 42.78 25.82 43.02 25.7 43.13 25.59 43.25 25.59 43.37 25.61 43.49 25.9 43.6 25.56 43.72 25.48 43.84 25.43 44.19 25.76 44.31 25.6 44.43 25.63 44.54 25.38 44.66 25.53 44.78 25.38 44.9 25.32 45.01 25.4 45.13 25.52 45.25 25.64 45.37 25.5 45.48 25.64 45.6 25.64 45.72 25.54 45.84 25.49 45.95 25.57 46.07 25.42 46.19 25.61 46.31 25.61 46.42 25.44 46.54 25.51 46.66 25.61 46.78 25.51 46.89 25.51 47.01 25.56 47.13 25.41 47.25 25.27 47.36 25.39 47.48 25.31 47.6 25.51 47.95 25.36 48.54 25.31 48.66 25.4 48.77 25.4 48.89 25.45 49.01 25.31 49.13 25.16 49.24 25.16 49.71 25.12 49.83 25.12 50.42 25.23 50.65 25.23 50.77 25.83 50.89 25.39 51.01 25.18 51.12 25.05 51.24 25 51.36 25.11 51.71 25.34 51.83 25.32 52.06 25.38 52.18 25.56 52.3 25.23 52.65 25.23 52.89 25.04 53.24 25.07 53.71 25.09 53.94 24.96 54.3 25.13 55.12 25.19 55.59 25.11 55.71 25.06 55.82 25.06 55.94 25.52 56.06 25.71 56.18 25.71 56.41 25.59 56.53 25.54 56.65 25.54 56.76 25.6 56.88 25.77 57 25.45 57.12 25.45 57.35 25.45 57.47 25.41 57.59 25.33 58.06 25.52 58.17 25.44 58.29 25.63 58.53 25.2 58.76 25.2 58.88 25.26 59.23 25.34 59.82 25.34 60.41 25.1 60.99 27.02 61.11 26.72 61.23 26.25 61.35 25.97 61.46 25.68 61.7 25.8 61.93 25.74 62.4 25.93 62.52 25.89 62.64 25.63 62.76 25.75 62.87 25.65 62.99 25.73 63.11 25.63 64.52 25.73 64.75 25.67 64.87 25.66 65.11 25.44 65.58 25.42 65.81 25.36 66.05 25.64 66.52 25.47 66.75 25.54 66.87 25.13 67.1 25.03 67.22 25.2 67.34 25.13 67.46 25.13 67.57 25.18 67.69 24.94 67.93 25.09 68.04 25.07 68.28 24.9 68.51 24.98 68.63 25.14 68.75 25.01 68.98 24.98 69.1 25.12 69.69 25.21 70.16 25.07 70.28 25.08 71.22 25.17 71.33 25.23 71.45 25.28 71.8 24.96 71.92 24.94 72.04 24.92 72.27 25.1 72.51 25.05 72.74 25.03 73.8 24.79"/>
      </g>
    </g>
  </g>
</g>
  <g class="guide ylabels" font-size="2.82" font-family="'PT Sans Caption','Helvetica Neue','Helvetica',sans-serif" fill="#6C606B" id="img-8b5bb149-19">
    <text x="18.63" y="45.71" text-anchor="end" dy="0.35em">0</text>
    <text x="18.63" y="30.16" text-anchor="end" dy="0.35em">50</text>
    <text x="18.63" y="14.61" text-anchor="end" dy="0.35em">100</text>
  </g>
  <g font-size="3.88" font-family="'PT Sans','Helvetica Neue','Helvetica',sans-serif" fill="#564A55" stroke="#000000" stroke-opacity="0.000" id="img-8b5bb149-20">
    <text x="8.81" y="28.16" text-anchor="middle" dy="0.35em" transform="rotate(-90, 8.81, 30.16)">Percentage of Packages</text>
  </g>
  <g font-size="3.88" font-family="'PT Sans','Helvetica Neue','Helvetica',sans-serif" fill="#564A55" stroke="#000000" stroke-opacity="0.000" id="img-8b5bb149-21">
    <text x="58.12" y="10.61" text-anchor="middle">Julia v0.3 (relative)</text>
  </g>
</g>
<defs>
  <clipPath id="img-8b5bb149-4">
  <path d="M19.63,12.61 L 96.6 12.61 96.6 47.71 19.63 47.71" />
</clipPath>
</defs>
</svg>
