<?xml version="1.0" encoding="UTF-8"?>
<svg xmlns="http://www.w3.org/2000/svg"
     xmlns:xlink="http://www.w3.org/1999/xlink"
     xmlns:gadfly="http://www.gadflyjl.org/ns"
     version="1.2"
     width="101.6mm" height="76.2mm" viewBox="0 0 101.6 76.2"
     stroke="none"
     fill="#000000"
     stroke-width="0.3"
     font-size="3.88"
>
<g class="plotroot xscalable yscalable" id="fig-6b751083bb2b4bf0ada09312181d6c58-element-1">
  <g font-size="3.88" font-family="'PT Sans','Helvetica Neue','Helvetica',sans-serif" fill="#564A55" stroke="#000000" stroke-opacity="0.000" id="fig-6b751083bb2b4bf0ada09312181d6c58-element-2">
    <text x="58.12" y="64.59" text-anchor="middle" dy="0.6em">Date</text>
  </g>
  <g class="guide xlabels" font-size="2.82" font-family="'PT Sans Caption','Helvetica Neue','Helvetica',sans-serif" fill="#6C606B" id="fig-6b751083bb2b4bf0ada09312181d6c58-element-3">
    <text x="21.89" y="48.71" text-anchor="end" dy="0.35em" transform="rotate(-90, 21.89, 48.71)">Apr</text>
    <text x="25.78" y="48.71" text-anchor="end" dy="0.35em" transform="rotate(-90, 25.78, 48.71)">May</text>
    <text x="29.8" y="48.71" text-anchor="end" dy="0.35em" transform="rotate(-90, 29.8, 48.71)">Jun</text>
    <text x="33.69" y="48.71" text-anchor="end" dy="0.35em" transform="rotate(-90, 33.69, 48.71)">Jul</text>
    <text x="37.7" y="48.71" text-anchor="end" dy="0.35em" transform="rotate(-90, 37.7, 48.71)">Aug</text>
    <text x="41.72" y="48.71" text-anchor="end" dy="0.35em" transform="rotate(-90, 41.72, 48.71)">Sep</text>
    <text x="45.61" y="48.71" text-anchor="end" dy="0.35em" transform="rotate(-90, 45.61, 48.71)">Oct</text>
    <text x="49.63" y="48.71" text-anchor="end" dy="0.35em" transform="rotate(-90, 49.63, 48.71)">Nov</text>
    <text x="53.51" y="48.71" text-anchor="end" dy="0.35em" transform="rotate(-90, 53.51, 48.71)">Dec</text>
    <text x="57.53" y="48.71" text-anchor="end" dy="0.35em" transform="rotate(-90, 57.53, 48.71)">Jan 2015</text>
    <text x="61.55" y="48.71" text-anchor="end" dy="0.35em" transform="rotate(-90, 61.55, 48.71)">Feb</text>
    <text x="65.18" y="48.71" text-anchor="end" dy="0.35em" transform="rotate(-90, 65.18, 48.71)">Mar</text>
    <text x="69.2" y="48.71" text-anchor="end" dy="0.35em" transform="rotate(-90, 69.2, 48.71)">Apr</text>
    <text x="73.09" y="48.71" text-anchor="end" dy="0.35em" transform="rotate(-90, 73.09, 48.71)">May</text>
    <text x="77.1" y="48.71" text-anchor="end" dy="0.35em" transform="rotate(-90, 77.1, 48.71)">Jun</text>
    <text x="80.99" y="48.71" text-anchor="end" dy="0.35em" transform="rotate(-90, 80.99, 48.71)">Jul</text>
    <text x="85.01" y="48.71" text-anchor="end" dy="0.35em" transform="rotate(-90, 85.01, 48.71)">Aug</text>
    <text x="89.03" y="48.71" text-anchor="end" dy="0.35em" transform="rotate(-90, 89.03, 48.71)">Sep</text>
    <text x="92.92" y="48.71" text-anchor="end" dy="0.35em" transform="rotate(-90, 92.92, 48.71)">Oct</text>
  </g>
  <g clip-path="url(#fig-6b751083bb2b4bf0ada09312181d6c58-element-5)" id="fig-6b751083bb2b4bf0ada09312181d6c58-element-4">
    <g pointer-events="visible" opacity="1" fill="#000000" fill-opacity="0.000" stroke="#000000" stroke-opacity="0.000" class="guide background" id="fig-6b751083bb2b4bf0ada09312181d6c58-element-6">
      <rect x="19.63" y="12.61" width="76.97" height="35.1"/>
    </g>
    <g class="guide ygridlines xfixed" stroke-dasharray="0.5,0.5" stroke-width="0.2" stroke="#D0D0E0" id="fig-6b751083bb2b4bf0ada09312181d6c58-element-7">
      <path fill="none" d="M19.63,45.71 L 96.6 45.71"/>
      <path fill="none" d="M19.63,39.49 L 96.6 39.49"/>
      <path fill="none" d="M19.63,33.27 L 96.6 33.27"/>
      <path fill="none" d="M19.63,27.05 L 96.6 27.05"/>
      <path fill="none" d="M19.63,20.83 L 96.6 20.83"/>
      <path fill="none" d="M19.63,14.61 L 96.6 14.61"/>
    </g>
    <g class="guide xgridlines yfixed" stroke-dasharray="0.5,0.5" stroke-width="0.2" stroke="#D0D0E0" id="fig-6b751083bb2b4bf0ada09312181d6c58-element-8">
      <path fill="none" d="M21.89,12.61 L 21.89 47.71"/>
      <path fill="none" d="M25.78,12.61 L 25.78 47.71"/>
      <path fill="none" d="M29.8,12.61 L 29.8 47.71"/>
      <path fill="none" d="M33.69,12.61 L 33.69 47.71"/>
      <path fill="none" d="M37.7,12.61 L 37.7 47.71"/>
      <path fill="none" d="M41.72,12.61 L 41.72 47.71"/>
      <path fill="none" d="M45.61,12.61 L 45.61 47.71"/>
      <path fill="none" d="M49.63,12.61 L 49.63 47.71"/>
      <path fill="none" d="M53.51,12.61 L 53.51 47.71"/>
      <path fill="none" d="M57.53,12.61 L 57.53 47.71"/>
      <path fill="none" d="M61.55,12.61 L 61.55 47.71"/>
      <path fill="none" d="M65.18,12.61 L 65.18 47.71"/>
      <path fill="none" d="M69.2,12.61 L 69.2 47.71"/>
      <path fill="none" d="M73.09,12.61 L 73.09 47.71"/>
      <path fill="none" d="M77.1,12.61 L 77.1 47.71"/>
      <path fill="none" d="M80.99,12.61 L 80.99 47.71"/>
      <path fill="none" d="M85.01,12.61 L 85.01 47.71"/>
      <path fill="none" d="M89.03,12.61 L 89.03 47.71"/>
      <path fill="none" d="M92.92,12.61 L 92.92 47.71"/>
    </g>
    <g class="plotpanel" id="fig-6b751083bb2b4bf0ada09312181d6c58-element-9">
      <g stroke-width="0.3" fill="#000000" fill-opacity="0.000" class="geometry color_newnot_possible" stroke-dasharray="none" stroke="#808080" id="fig-6b751083bb2b4bf0ada09312181d6c58-element-10">
        <path fill="none" d="M79.57,42.41 L 79.7 42.41 79.82 42.41 79.95 42.41 80.08 42.41 80.21 42.41 80.34 42.41 80.47 42.41 80.86 42.41 81.12 42.41 81.38 42.47 81.51 42.41 81.64 42.41 81.77 42.41 81.9 42.41 82.03 42.41 84.23 42.35 85.27 42.35 86.43 42.35 88.64 42.35 89.03 42.35 89.67 42.16 90.32 41.98 92.4 41.98 92.92 41.98 93.56 41.98 94.08 41.98 94.6 41.98"/>
      </g>
      <g stroke-width="0.3" fill="#000000" fill-opacity="0.000" class="geometry color_newno_tests" stroke-dasharray="none" stroke="#0000FF" id="fig-6b751083bb2b4bf0ada09312181d6c58-element-11">
        <path fill="none" d="M79.57,39.05 L 79.7 39.05 79.82 39.05 79.95 39.05 80.08 39.05 80.21 39.05 80.34 39.05 80.47 39.05 80.86 39.05 81.12 39.05 81.38 39.05 81.51 39.05 81.64 39.12 81.77 39.12 81.9 39.12 82.03 39.18 84.23 39.12 85.27 39.12 86.43 39.12 88.64 39.12 89.03 39.18 89.67 39.18 90.32 39.24 92.4 39.43 92.92 39.61 93.56 39.74 94.08 39.74 94.6 39.74"/>
      </g>
      <g stroke-width="0.3" fill="#000000" fill-opacity="0.000" class="geometry color_newtests_fail" stroke-dasharray="none" stroke="#FF0000" id="fig-6b751083bb2b4bf0ada09312181d6c58-element-12">
        <path fill="none" d="M79.57,42.23 L 79.7 42.04 79.82 41.98 79.95 41.91 80.08 41.79 80.21 41.98 80.34 41.73 80.47 41.91 80.86 41.79 81.12 41.73 81.38 41.67 81.51 41.85 81.64 39.86 81.77 41.73 81.9 41.35 82.03 41.42 84.23 41.67 85.27 41.73 86.43 41.23 88.64 40.17 89.03 40.48 89.67 40.86 90.32 41.17 92.4 41.11 92.92 40.8 93.56 41.04 94.08 41.11 94.6 40.92"/>
      </g>
      <g stroke-width="0.3" fill="#000000" fill-opacity="0.000" class="geometry color_newtests_pass" stroke-dasharray="none" stroke="#008000" id="fig-6b751083bb2b4bf0ada09312181d6c58-element-13">
        <path fill="none" d="M79.57,22.14 L 79.7 22.32 79.82 22.26 79.95 22.32 80.08 22.32 80.21 22.14 80.34 22.39 80.47 22.14 80.86 22.26 81.12 22.2 81.38 22.26 81.51 22.01 81.64 23.69 81.77 21.7 81.9 22.01 82.03 21.89 84.23 20.89 85.27 20.52 86.43 20.71 88.64 20.89 89.03 20.4 89.67 20.15 90.32 19.84 92.4 19.09 92.92 18.9 93.56 18.28 94.08 18.16 94.6 18.22"/>
      </g>
      <g stroke-width="0.3" fill="#000000" fill-opacity="0.000" class="geometry color_newnot_possible" stroke-dasharray="none" stroke="#808080" id="fig-6b751083bb2b4bf0ada09312181d6c58-element-14">
        <path fill="none" d="M21.63,43.72 L 21.76 43.72 21.89 43.72 22.02 43.72 22.15 43.72 22.28 43.72 22.41 43.72 22.54 43.72 22.8 43.72 22.93 43.72 23.19 43.72 23.45 43.72 23.58 43.72 23.83 43.72 23.96 43.72 24.87 43.72 25.26 43.72 25.52 43.72 26.43 43.78 26.56 43.78 26.69 43.78 26.82 43.78 26.95 43.78 27.08 43.72 27.2 43.72 27.33 43.72 27.46 43.72 27.59 43.59 27.72 43.59 27.85 43.59 28.11 43.53 28.24 43.97 28.37 43.97 28.5 43.97 28.63 43.97 28.76 43.97 28.89 43.97 29.02 43.97 29.15 43.97 29.28 43.97 29.41 43.97 29.54 43.97 29.67 43.97 29.8 43.97 29.93 43.97 30.06 43.97 30.19 43.97 30.96 43.66 31.09 43.59 31.22 43.59 31.35 43.59 31.48 43.59 31.61 43.53 31.74 43.41 31.87 43.41 32 43.41 32.13 43.41 32.39 43.41 32.52 43.41 32.65 43.41 32.78 43.41 32.91 43.41 33.04 43.41 33.17 43.41 33.3 43.41 33.56 43.41 33.69 43.41 33.81 43.41 33.94 43.41 34.07 43.41 34.2 43.41 34.46 43.41 34.59 43.41 34.72 43.41 34.85 43.41 35.11 43.41 35.37 43.41 35.5 43.41 35.63 43.41 35.76 43.41 36.15 43.41 36.28 43.41 36.41 43.41 36.54 43.41 36.67 43.41 36.8 43.41 36.93 43.34 37.05 43.34 37.31 43.34 37.44 43.34 37.7 43.34 37.83 43.34 37.96 43.34 38.09 43.34 38.35 43.34 38.48 43.34 38.61 43.34 38.74 43.34 38.87 43.34 39 43.34 39.13 43.34 39.26 43.34 39.39 43.28 39.52 43.22 39.65 43.22 39.78 43.22 39.91 43.22 40.17 43.22 40.29 43.22 40.42 43.22 40.55 43.22 40.68 43.22 40.81 43.22 40.94 43.22 41.07 43.22 41.33 43.22 41.46 43.16 41.72 43.16 41.85 43.16 41.98 43.1 42.5 43.1 42.89 43.1 43.02 43.1 43.15 43.1 43.28 43.1 43.41 43.1 43.54 43.1 43.66 43.1 43.79 43.1 43.92 43.1 44.18 43.03 44.31 43.03 44.44 43.03 44.57 43.03 44.7 43.03 44.83 43.03 44.96 42.97 45.22 42.97 45.35 42.97 45.48 42.97 45.61 42.97 45.74 42.79 45.87 42.91 46 42.91 46.13 42.91 46.52 42.91 46.65 42.85 46.78 42.85 46.9 42.85 47.03 42.85 47.16 42.85 47.29 42.85 47.42 42.85 47.55 42.85 47.68 42.85 47.81 42.79 47.94 42.79 48.07 42.79 48.2 42.79 48.33 42.79 48.46 42.79 48.59 42.79 48.72 42.79 48.85 42.79 48.98 42.79 49.11 42.79 49.24 42.79 49.37 42.79 49.5 42.79 49.63 42.79 49.76 42.79 49.89 42.79 50.02 42.79 50.15 42.79 50.27 42.79 50.66 42.79 51.31 42.79 51.44 42.79 51.57 42.79 51.7 42.79 51.83 42.79 51.96 42.79 52.09 42.79 52.61 42.79 52.74 42.79 53.39 42.79 53.64 42.79 53.77 42.85 53.9 42.85 54.03 42.85 54.16 42.85 54.29 42.85 54.42 42.85 54.81 42.85 54.94 42.85 55.2 42.85 55.33 42.85 55.46 42.85 55.85 42.85 56.11 42.85 56.5 42.85 57.01 42.85 57.27 42.85 57.66 42.85 58.57 42.85 59.09 42.85 59.22 42.72 59.35 42.72 59.48 42.66 59.61 42.66 59.74 42.66 60 42.66 60.12 42.66 60.25 42.66 60.38 42.66 60.51 42.66 60.64 42.66 60.77 42.66 61.03 42.6 61.16 42.6 61.29 42.6 61.81 42.6 61.94 42.6 62.07 42.6 62.33 42.6 62.59 42.6 62.72 42.6 63.11 42.6 63.75 42.6 64.4 42.6 65.05 42.6 65.18 42.6 65.31 42.6 65.44 42.16 65.57 42.23 65.83 42.16 66.09 42.16 66.61 42.16 66.73 42.16 66.86 42.16 66.99 42.16 67.12 42.16 67.25 42.23 67.38 42.16 68.94 42.1 69.2 42.04 69.33 42.04 69.59 42.04 70.1 42.04 70.36 42.04 70.62 42.04 71.14 42.04 71.4 42.04 71.53 42.04 71.79 42.04 71.92 42.04 72.05 42.04 72.18 42.04 72.31 42.04 72.44 42.04 72.7 42.04 72.83 42.04 73.09 42.04 73.34 42.04 73.47 42.04 73.6 42.04 73.86 42.04 73.99 42.04 74.64 42.04 75.16 42.1 75.29 42.04 76.33 42.04 76.46 41.91 76.58 41.91 76.97 41.91 77.1 41.91 77.23 41.98 77.49 41.98 77.75 41.98 78.01 41.98 79.18 41.98"/>
      </g>
      <g stroke-width="0.3" fill="#000000" fill-opacity="0.000" class="geometry color_newtests_fail" stroke-dasharray="none" stroke="#FF0000" id="fig-6b751083bb2b4bf0ada09312181d6c58-element-15">
        <path fill="none" d="M21.63,43.22 L 21.76 43.22 21.89 42.29 22.02 43.28 22.15 43.22 22.28 42.23 22.41 42.23 22.54 42.23 22.8 43.22 22.93 43.22 23.19 43.28 23.45 43.28 23.58 43.28 23.83 43.34 23.96 43.34 24.87 43.41 25.26 43.41 25.52 43.41 26.43 43.34 26.56 43.41 26.69 43.28 26.82 43.28 26.95 43.34 27.08 43.41 27.2 43.34 27.33 43.34 27.46 43.34 27.59 43.41 27.72 43.41 27.85 43.28 28.11 43.34 28.24 43.22 28.37 43.34 28.5 43.47 28.63 43.47 28.76 43.53 28.89 43.53 29.02 43.47 29.15 43.53 29.28 43.53 29.41 43.53 29.54 43.59 29.67 43.59 29.8 44.09 29.93 43.84 30.06 43.84 30.19 43.84 30.96 44.22 31.09 44.28 31.22 44.28 31.35 44.28 31.48 44.22 31.61 44.28 31.74 44.28 31.87 44.28 32 44.22 32.13 43.03 32.39 44.22 32.52 44.28 32.65 44.28 32.78 44.28 32.91 44.28 33.04 44.28 33.17 44.28 33.3 44.28 33.56 44.28 33.69 44.28 33.81 44.22 33.94 44.22 34.07 44.22 34.2 44.22 34.46 44.22 34.59 44.09 34.72 44.09 34.85 44.09 35.11 43.97 35.37 42.72 35.5 42.66 35.63 43.97 35.76 43.9 36.15 44.03 36.28 44.03 36.41 44.03 36.54 44.03 36.67 44.09 36.8 44.15 36.93 44.15 37.05 44.15 37.31 44.15 37.44 44.22 37.7 44.15 37.83 44.22 37.96 44.22 38.09 44.22 38.35 44.22 38.48 44.22 38.61 44.09 38.74 44.15 38.87 44.15 39 44.09 39.13 44.09 39.26 43.97 39.39 44.03 39.52 44.15 39.65 42.41 39.78 42.79 39.91 42.79 40.17 44.22 40.29 44.28 40.42 44.22 40.55 44.28 40.68 44.22 40.81 44.22 40.94 44.34 41.07 44.15 41.33 44.4 41.46 44.46 41.72 44.34 41.85 44.34 41.98 44.4 42.5 44.4 42.89 44.71 43.02 44.71 43.15 44.71 43.28 44.78 43.41 44.84 43.54 44.84 43.66 44.84 43.79 44.84 43.92 44.84 44.18 44.71 44.31 44.71 44.44 44.65 44.57 44.71 44.7 44.65 44.83 44.53 44.96 44.59 45.22 44.65 45.35 44.71 45.48 44.71 45.61 44.65 45.74 44.59 45.87 44.65 46 44.71 46.13 44.71 46.52 44.71 46.65 44.71 46.78 44.71 46.9 44.78 47.03 44.78 47.16 44.78 47.29 44.78 47.42 44.78 47.55 44.65 47.68 44.59 47.81 44.59 47.94 44.46 48.07 44.59 48.2 44.59 48.33 44.59 48.46 44.59 48.59 44.59 48.72 44.53 48.85 44.59 48.98 44.53 49.11 44.59 49.24 44.53 49.37 44.59 49.5 44.59 49.63 44.59 49.76 44.65 49.89 44.65 50.02 44.71 50.15 44.71 50.27 44.53 50.66 44.78 51.31 44.71 51.44 44.71 51.57 44.71 51.7 44.78 51.83 44.84 51.96 44.71 52.09 44.71 52.61 44.65 52.74 44.71 53.39 44.71 53.64 44.71 53.77 44.34 53.9 44.53 54.03 44.71 54.16 44.71 54.29 44.71 54.42 44.65 54.81 44.59 54.94 44.59 55.2 44.53 55.33 44.59 55.46 44.59 55.85 44.59 56.11 44.65 56.5 44.65 57.01 44.65 57.27 44.65 57.66 44.65 58.57 44.59 59.09 44.46 59.22 44.59 59.35 44.59 59.48 44.34 59.61 44.34 59.74 44.4 60 44.4 60.12 44.34 60.25 44.34 60.38 44.28 60.51 44.34 60.64 44.34 60.77 44.34 61.03 44.34 61.16 44.34 61.29 44.34 61.81 44.15 61.94 44.15 62.07 44.15 62.33 44.09 62.59 44.03 62.72 44.03 63.11 44.03 63.75 44.03 64.4 44.09 65.05 42.29 65.18 42.91 65.31 43.34 65.44 44.09 65.57 44.09 65.83 44.09 66.09 44.09 66.61 44.09 66.73 44.03 66.86 44.03 66.99 44.03 67.12 44.03 67.25 44.03 67.38 43.97 68.94 43.9 69.2 43.97 69.33 44.09 69.59 44.09 70.1 43.97 70.36 44.09 70.62 44.03 71.14 44.03 71.4 44.03 71.53 43.97 71.79 43.84 71.92 43.84 72.05 43.84 72.18 43.9 72.31 43.78 72.44 43.78 72.7 43.78 72.83 43.84 73.09 43.78 73.34 43.78 73.47 43.66 73.6 43.66 73.86 43.72 73.99 43.66 74.64 43.59 75.16 43.47 75.29 43.47 76.33 43.22 76.46 43.22 76.58 43.22 76.97 43.22 77.1 43.22 77.23 43.28 77.49 43.34 77.75 43.28 78.01 43.28 79.18 43.41"/>
      </g>
      <g stroke-width="0.3" fill="#000000" fill-opacity="0.000" class="geometry color_newno_tests" stroke-dasharray="none" stroke="#0000FF" id="fig-6b751083bb2b4bf0ada09312181d6c58-element-16">
        <path fill="none" d="M21.63,42.35 L 21.76 42.35 21.89 42.35 22.02 42.35 22.15 42.35 22.28 42.41 22.41 42.41 22.54 42.35 22.8 42.29 22.93 42.29 23.19 42.29 23.45 42.16 23.58 42.16 23.83 42.16 23.96 42.16 24.87 42.16 25.26 42.16 25.52 42.16 26.43 42.1 26.56 42.1 26.69 42.1 26.82 42.1 26.95 42.1 27.08 42.1 27.2 42.1 27.33 42.1 27.46 42.1 27.59 42.23 27.72 42.23 27.85 42.23 28.11 42.29 28.24 42.29 28.37 42.29 28.5 42.23 28.63 42.23 28.76 42.35 28.89 42.41 29.02 42.41 29.15 42.41 29.28 42.41 29.41 42.41 29.54 42.41 29.67 42.41 29.8 42.16 29.93 42.23 30.06 42.23 30.19 42.23 30.96 42.23 31.09 42.23 31.22 42.23 31.35 42.29 31.48 42.29 31.61 42.29 31.74 42.29 31.87 42.35 32 42.35 32.13 42.54 32.39 42.47 32.52 42.35 32.65 42.35 32.78 42.35 32.91 42.35 33.04 42.35 33.17 42.35 33.3 42.35 33.56 42.41 33.69 42.35 33.81 42.35 33.94 42.35 34.07 42.47 34.2 42.47 34.46 42.47 34.59 42.47 34.72 42.47 34.85 42.47 35.11 42.35 35.37 42.54 35.5 42.47 35.63 42.41 35.76 42.41 36.15 42.41 36.28 42.41 36.41 42.41 36.54 42.41 36.67 42.47 36.8 42.47 36.93 42.47 37.05 42.54 37.31 42.54 37.44 42.54 37.7 42.54 37.83 42.54 37.96 42.54 38.09 42.54 38.35 42.41 38.48 42.47 38.61 42.47 38.74 42.41 38.87 42.41 39 42.41 39.13 42.41 39.26 42.41 39.39 42.41 39.52 42.41 39.65 42.79 39.78 42.79 39.91 42.79 40.17 42.35 40.29 42.35 40.42 42.41 40.55 42.41 40.68 42.47 40.81 42.41 40.94 42.41 41.07 42.47 41.33 42.85 41.46 42.91 41.72 42.91 41.85 42.91 41.98 42.91 42.5 42.91 42.89 42.85 43.02 42.85 43.15 42.79 43.28 42.79 43.41 42.79 43.54 42.85 43.66 42.85 43.79 42.91 43.92 42.91 44.18 42.91 44.31 42.85 44.44 42.85 44.57 42.85 44.7 42.85 44.83 42.91 44.96 42.91 45.22 42.85 45.35 42.85 45.48 42.85 45.61 42.85 45.74 42.6 45.87 42.85 46 42.85 46.13 42.85 46.52 42.91 46.65 42.91 46.78 42.85 46.9 42.85 47.03 42.85 47.16 42.85 47.29 42.85 47.42 42.85 47.55 42.85 47.68 42.85 47.81 42.85 47.94 42.91 48.07 42.85 48.2 42.85 48.33 42.85 48.46 42.85 48.59 42.85 48.72 42.91 48.85 42.85 48.98 42.91 49.11 42.85 49.24 42.85 49.37 42.85 49.5 42.85 49.63 42.85 49.76 42.85 49.89 42.85 50.02 42.85 50.15 42.85 50.27 42.85 50.66 42.85 51.31 42.85 51.44 42.85 51.57 42.85 51.7 42.85 51.83 42.85 51.96 42.85 52.09 42.85 52.61 42.91 52.74 42.85 53.39 42.85 53.64 42.85 53.77 42.85 53.9 42.91 54.03 42.85 54.16 42.85 54.29 42.85 54.42 42.91 54.81 42.85 54.94 42.85 55.2 42.85 55.33 42.79 55.46 42.79 55.85 42.85 56.11 42.79 56.5 42.79 57.01 42.85 57.27 42.79 57.66 42.79 58.57 42.79 59.09 42.79 59.22 42.79 59.35 42.79 59.48 42.85 59.61 42.79 59.74 42.79 60 42.79 60.12 42.85 60.25 42.85 60.38 42.85 60.51 42.79 60.64 42.79 60.77 42.79 61.03 42.79 61.16 42.79 61.29 42.79 61.81 42.79 61.94 42.79 62.07 42.79 62.33 42.79 62.59 42.79 62.72 42.79 63.11 42.79 63.75 42.79 64.4 42.79 65.05 42.97 65.18 42.91 65.31 42.91 65.44 42.91 65.57 42.85 65.83 42.85 66.09 42.85 66.61 42.85 66.73 42.85 66.86 42.91 66.99 42.91 67.12 42.91 67.25 42.91 67.38 42.91 68.94 42.97 69.2 42.97 69.33 42.97 69.59 43.03 70.1 43.03 70.36 43.03 70.62 43.03 71.14 43.03 71.4 43.03 71.53 43.03 71.79 43.03 71.92 43.03 72.05 43.03 72.18 43.03 72.31 43.03 72.44 43.03 72.7 43.03 72.83 43.03 73.09 43.1 73.34 43.03 73.47 43.03 73.6 43.03 73.86 43.1 73.99 43.03 74.64 43.1 75.16 43.1 75.29 43.1 76.33 43.1 76.46 43.1 76.58 43.1 76.97 43.16 77.1 43.16 77.23 43.1 77.49 43.1 77.75 43.1 78.01 43.16 79.18 43.1"/>
      </g>
      <g stroke-width="0.3" fill="#000000" fill-opacity="0.000" class="geometry color_oldfull_fail" stroke-dasharray="none" stroke="#FFA500" id="fig-6b751083bb2b4bf0ada09312181d6c58-element-17">
        <path fill="none" d="M21.63,43.16 L 21.76 43.16 21.89 43.59 22.02 42.91 22.15 42.97 22.28 43.47 22.41 43.34 22.54 43.47 22.8 42.6 22.93 42.6 23.19 42.54 23.45 42.79 23.58 42.66 23.83 42.85 23.96 42.79 24.87 42.91 25.26 42.91 25.52 42.91 26.43 42.85 26.56 42.72 26.69 42.1 26.82 42.1 26.95 42.41 27.08 42.41 27.2 42.6 27.33 42.6 27.46 42.6 27.59 42.85 27.72 42.85 27.85 43.16 28.11 43.16 28.24 43.1 28.37 42.97 28.5 43.03 28.63 43.03 28.76 43.16 28.89 43.16 29.02 43.16 29.15 43.03 29.28 43.28 29.41 43.22 29.54 43.16 29.67 43.03 29.8 45.71 29.93 43.28 30.06 42.97 30.19 43.1 30.96 42.97 31.09 43.22 31.22 43.47 31.35 43.47 31.48 43.41 31.61 43.66 31.74 43.59 31.87 43.59 32 43.66 32.13 43.84 32.39 43.53 32.52 43.59 32.65 43.72 32.78 43.59 32.91 43.72 33.04 43.72 33.17 43.47 33.3 43.53 33.56 43.78 33.69 43.78 33.81 43.78 33.94 43.72 34.07 43.66 34.2 43.78 34.46 43.78 34.59 43.84 34.72 43.9 34.85 43.9 35.11 43.78 35.37 43.34 35.5 43.66 35.63 43.59 35.76 43.59 36.15 43.59 36.28 43.59 36.41 43.41 36.54 43.53 36.67 43.47 36.8 43.47 36.93 43.59 37.05 43.53 37.31 43.59 37.44 43.66 37.7 43.66 37.83 43.66 37.96 43.66 38.09 43.66 38.35 43.66 38.48 43.66 38.61 43.66 38.74 43.59 38.87 43.59 39 43.53 39.13 43.66 39.26 43.53 39.39 43.47 39.52 43.47 39.65 43.34 39.78 43.28 39.91 43.34 40.17 43.22 40.29 43.28 40.42 43.47 40.55 43.28 40.68 43.28 40.81 43.34 40.94 43.16 41.07 43.22 41.33 43.53 41.46 43.47 41.72 43.47 41.85 43.47 41.98 43.47 42.5 43.47 42.89 43.41 43.02 43.34 43.15 43.41 43.28 43.28 43.41 43.28 43.54 43.47 43.66 43.16 43.79 43.1 43.92 43.1 44.18 43.16 44.31 43.28 44.44 43.22 44.57 43.28 44.7 43.28 44.83 43.16 44.96 43.28 45.22 43.41 45.35 43.41 45.48 43.41 45.61 43.41 45.74 43.22 45.87 43.47 46 43.47 46.13 43.47 46.52 43.1 46.65 43.28 46.78 43.28 46.9 43.41 47.03 43.28 47.16 43.41 47.29 43.41 47.42 43.34 47.55 43.34 47.68 43.28 47.81 43.47 47.94 43.41 48.07 43.34 48.2 43.41 48.33 43.41 48.46 43.34 48.59 43.47 48.72 43.28 48.85 43.28 48.98 43.41 49.11 43.34 49.24 43.28 49.37 43.28 49.5 43.28 49.63 43.22 49.76 43.28 49.89 43.41 50.02 43.22 50.15 43.28 50.27 43.28 50.66 43.16 51.31 43.16 51.44 43.03 51.57 43.03 51.7 42.91 51.83 42.97 51.96 43.16 52.09 43.16 52.61 43.1 52.74 43.1 53.39 42.97 53.64 42.97 53.77 42.72 53.9 42.85 54.03 42.91 54.16 43.03 54.29 43.03 54.42 42.91 54.81 42.79 54.94 42.79 55.2 42.72 55.33 42.54 55.46 42.85 55.85 42.79 56.11 42.91 56.5 42.85 57.01 42.72 57.27 42.85 57.66 42.6 58.57 42.47 59.09 42.54 59.22 42.54 59.35 42.54 59.48 42.23 59.61 42.1 59.74 42.04 60 42.16 60.12 42.16 60.25 42.16 60.38 42.1 60.51 41.91 60.64 42.23 60.77 42.23 61.03 42.23 61.16 42.23 61.29 42.29 61.81 42.1 61.94 42.23 62.07 42.04 62.33 42.47 62.59 42.47 62.72 42.41 63.11 42.29 63.75 42.29 64.4 42.35 65.05 41.85 65.18 41.6 65.31 41.67 65.44 41.6 65.57 41.91 65.83 41.85 66.09 41.91 66.61 41.67 66.73 41.73 66.86 41.91 66.99 41.79 67.12 41.85 67.25 41.73 67.38 41.91 68.94 41.85 69.2 41.91 69.33 41.73 69.59 41.91 70.1 42.04 70.36 41.98 70.62 41.67 71.14 41.85 71.4 41.73 71.53 42.23 71.79 42.35 71.92 42.16 72.05 42.23 72.18 42.1 72.31 42.16 72.44 42.41 72.7 42.23 72.83 42.16 73.09 42.35 73.34 42.29 73.47 42.16 73.6 42.29 73.86 42.16 73.99 42.1 74.64 41.91 75.16 42.1 75.29 42.1 76.33 42.16 76.46 42.23 76.58 42.16 76.97 42.41 77.1 42.41 77.23 42.35 77.49 42.04 77.75 42.16 78.01 42.1 79.18 42.23"/>
      </g>
      <g stroke-width="0.3" fill="#000000" fill-opacity="0.000" class="geometry color_newtests_pass" stroke-dasharray="none" stroke="#008000" id="fig-6b751083bb2b4bf0ada09312181d6c58-element-18">
        <path fill="none" d="M21.63,37.69 L 21.76 37.69 21.89 38.12 22.02 37.81 22.15 37.81 22.28 38.25 22.41 38.37 22.54 38.25 22.8 38.18 22.93 38.12 23.19 38.06 23.45 37.81 23.58 37.93 23.83 37.69 23.96 37.69 24.87 37.25 25.26 37.25 25.52 37.25 26.43 37.31 26.56 37.25 26.69 37.93 26.82 37.93 26.95 37.56 27.08 37.56 27.2 37.44 27.33 37.44 27.46 37.44 27.59 37.13 27.72 37.13 27.85 36.75 28.11 36.63 28.24 36.38 28.37 36.38 28.5 36.13 28.63 36.13 28.76 35.82 28.89 35.7 29.02 35.76 29.15 35.82 29.28 35.57 29.41 35.63 29.54 35.57 29.67 35.7 29.8 35.26 29.93 35.32 30.06 35.57 30.19 35.38 30.96 35.07 31.09 34.76 31.22 34.45 31.35 34.33 31.48 34.33 31.61 34.08 31.74 34.14 31.87 34.08 32 34.02 32.13 34.76 32.39 33.95 32.52 33.83 32.65 33.71 32.78 33.83 32.91 33.71 33.04 33.71 33.17 33.77 33.3 33.71 33.56 33.33 33.69 33.27 33.81 33.27 33.94 33.27 34.07 33.21 34.2 32.96 34.46 32.9 34.59 32.77 34.72 32.71 34.85 32.71 35.11 32.77 35.37 34.08 35.5 33.89 35.63 32.65 35.76 32.71 36.15 32.52 36.28 32.52 36.41 32.65 36.54 32.52 36.67 32.46 36.8 32.34 36.93 32.21 37.05 32.15 37.31 32.09 37.44 31.96 37.7 32.03 37.83 31.9 37.96 31.71 38.09 31.71 38.35 31.78 38.48 31.71 38.61 31.71 38.74 31.71 38.87 31.65 39 31.71 39.13 31.53 39.26 31.65 39.39 31.71 39.52 31.59 39.65 33.02 39.78 32.71 39.91 32.65 40.17 31.59 40.29 31.47 40.42 31.22 40.55 31.34 40.68 31.34 40.81 31.16 40.94 31.16 41.07 31.16 41.33 30.97 41.46 30.78 41.72 30.78 41.85 30.78 41.98 30.78 42.5 30.78 42.89 30.22 43.02 30.22 43.15 30.16 43.28 30.1 43.41 30.04 43.54 29.79 43.66 29.6 43.79 29.6 43.92 29.6 44.18 29.72 44.31 29.6 44.44 29.66 44.57 29.54 44.7 29.6 44.83 29.72 44.96 29.6 45.22 29.54 45.35 29.41 45.48 29.41 45.61 29.35 45.74 28.79 45.87 29.23 46 29.16 46.13 29.04 46.52 29.23 46.65 29.1 46.78 29.04 46.9 28.79 47.03 28.92 47.16 28.79 47.29 28.67 47.42 28.73 47.55 28.79 47.68 28.85 47.81 28.73 47.94 28.85 48.07 28.85 48.2 28.73 48.33 28.61 48.46 28.67 48.59 28.54 48.72 28.67 48.85 28.67 48.98 28.48 49.11 28.54 49.24 28.54 49.37 28.42 49.5 28.42 49.63 28.42 49.76 28.29 49.89 28.17 50.02 28.23 50.15 28.17 50.27 28.29 50.66 28.17 51.31 27.92 51.44 27.92 51.57 27.92 51.7 27.92 51.83 27.8 51.96 27.55 52.09 27.55 52.61 27.3 52.74 27.3 53.39 27.36 53.64 27.36 53.77 27.86 53.9 27.42 54.03 27.24 54.16 27.11 54.29 26.99 54.42 27.05 54.81 27.17 54.94 27.11 55.2 27.05 55.33 27.17 55.46 26.86 55.85 26.86 56.11 26.61 56.5 26.55 57.01 26.49 57.27 26.24 57.66 26.24 58.57 26.06 59.09 25.68 59.22 25.56 59.35 25.56 59.48 25.81 59.61 25.99 59.74 25.99 60 25.87 60.12 25.74 60.25 25.74 60.38 25.68 60.51 25.81 60.64 25.5 60.77 25.5 61.03 25.37 61.16 25.25 61.29 25.12 61.81 25 61.94 25 62.07 25.18 62.33 24.62 62.59 24.5 62.72 24.56 63.11 24.56 63.75 24.56 64.4 24.07 65.05 25.93 65.18 25.62 65.31 25.12 65.44 24.75 65.57 24.44 65.83 24.56 66.09 24.5 66.61 24.62 66.73 24.5 66.86 24.19 66.99 24.31 67.12 24.13 67.25 24.25 67.38 24.07 68.94 24.13 69.2 24.07 69.33 23.94 69.59 23.69 70.1 23.63 70.36 23.57 70.62 23.75 71.14 23.57 71.4 23.57 71.53 23.07 71.79 22.76 71.92 22.95 72.05 22.82 72.18 22.7 72.31 22.76 72.44 22.45 72.7 22.57 72.83 22.51 73.09 22.32 73.34 22.32 73.47 22.39 73.6 22.2 73.86 22.07 73.99 22.2 74.64 22.14 75.16 21.89 75.29 21.83 76.33 21.76 76.46 21.83 76.58 21.89 76.97 21.39 77.1 21.33 77.23 21.27 77.49 21.39 77.75 21.33 78.01 21.27 79.18 20.77"/>
      </g>
    </g>
  </g>
  <g class="guide ylabels" font-size="2.82" font-family="'PT Sans Caption','Helvetica Neue','Helvetica',sans-serif" fill="#6C606B" id="fig-6b751083bb2b4bf0ada09312181d6c58-element-19">
    <text x="18.63" y="45.71" text-anchor="end" dy="0.35em">0</text>
    <text x="18.63" y="39.49" text-anchor="end" dy="0.35em">100</text>
    <text x="18.63" y="33.27" text-anchor="end" dy="0.35em">200</text>
    <text x="18.63" y="27.05" text-anchor="end" dy="0.35em">300</text>
    <text x="18.63" y="20.83" text-anchor="end" dy="0.35em">400</text>
    <text x="18.63" y="14.61" text-anchor="end" dy="0.35em">500</text>
  </g>
  <g font-size="3.88" font-family="'PT Sans','Helvetica Neue','Helvetica',sans-serif" fill="#564A55" stroke="#000000" stroke-opacity="0.000" id="fig-6b751083bb2b4bf0ada09312181d6c58-element-20">
    <text x="8.81" y="28.16" text-anchor="middle" dy="0.35em" transform="rotate(-90, 8.81, 30.16)">Number of Packages</text>
  </g>
  <g font-size="3.88" font-family="'PT Sans','Helvetica Neue','Helvetica',sans-serif" fill="#564A55" stroke="#000000" stroke-opacity="0.000" id="fig-6b751083bb2b4bf0ada09312181d6c58-element-21">
    <text x="58.12" y="10.61" text-anchor="middle">Julia v0.3</text>
  </g>
</g>
<defs>
<clipPath id="fig-6b751083bb2b4bf0ada09312181d6c58-element-5">
  <path d="M19.63,12.61 L 96.6 12.61 96.6 47.71 19.63 47.71" />
</clipPath
></defs>
</svg>
