<?xml version="1.0" encoding="UTF-8"?>
<svg xmlns="http://www.w3.org/2000/svg"
     xmlns:xlink="http://www.w3.org/1999/xlink"
     xmlns:gadfly="http://www.gadflyjl.org/ns"
     version="1.2"
     width="101.6mm" height="76.2mm" viewBox="0 0 101.6 76.2"
     stroke="none"
     fill="#000000"
     stroke-width="0.3"
     font-size="3.88"
>
<g class="plotroot xscalable yscalable" id="fig-e56c999139f74a48ac86c2f3afeeca47-element-1">
  <g font-size="3.88" font-family="'PT Sans','Helvetica Neue','Helvetica',sans-serif" fill="#564A55" stroke="#000000" stroke-opacity="0.000" id="fig-e56c999139f74a48ac86c2f3afeeca47-element-2">
    <text x="58.12" y="64.59" text-anchor="middle" dy="0.6em">Date</text>
  </g>
  <g class="guide xlabels" font-size="2.82" font-family="'PT Sans Caption','Helvetica Neue','Helvetica',sans-serif" fill="#6C606B" id="fig-e56c999139f74a48ac86c2f3afeeca47-element-3">
    <text x="21.88" y="48.71" text-anchor="end" dy="0.35em" transform="rotate(-90, 21.88, 48.71)">Apr</text>
    <text x="25.59" y="48.71" text-anchor="end" dy="0.35em" transform="rotate(-90, 25.59, 48.71)">May</text>
    <text x="29.42" y="48.71" text-anchor="end" dy="0.35em" transform="rotate(-90, 29.42, 48.71)">Jun</text>
    <text x="33.13" y="48.71" text-anchor="end" dy="0.35em" transform="rotate(-90, 33.13, 48.71)">Jul</text>
    <text x="36.97" y="48.71" text-anchor="end" dy="0.35em" transform="rotate(-90, 36.97, 48.71)">Aug</text>
    <text x="40.8" y="48.71" text-anchor="end" dy="0.35em" transform="rotate(-90, 40.8, 48.71)">Sep</text>
    <text x="44.51" y="48.71" text-anchor="end" dy="0.35em" transform="rotate(-90, 44.51, 48.71)">Oct</text>
    <text x="48.35" y="48.71" text-anchor="end" dy="0.35em" transform="rotate(-90, 48.35, 48.71)">Nov</text>
    <text x="52.06" y="48.71" text-anchor="end" dy="0.35em" transform="rotate(-90, 52.06, 48.71)">Dec</text>
    <text x="55.89" y="48.71" text-anchor="end" dy="0.35em" transform="rotate(-90, 55.89, 48.71)">Jan 2015</text>
    <text x="59.72" y="48.71" text-anchor="end" dy="0.35em" transform="rotate(-90, 59.72, 48.71)">Feb</text>
    <text x="63.19" y="48.71" text-anchor="end" dy="0.35em" transform="rotate(-90, 63.19, 48.71)">Mar</text>
    <text x="67.02" y="48.71" text-anchor="end" dy="0.35em" transform="rotate(-90, 67.02, 48.71)">Apr</text>
    <text x="70.73" y="48.71" text-anchor="end" dy="0.35em" transform="rotate(-90, 70.73, 48.71)">May</text>
    <text x="74.56" y="48.71" text-anchor="end" dy="0.35em" transform="rotate(-90, 74.56, 48.71)">Jun</text>
    <text x="78.27" y="48.71" text-anchor="end" dy="0.35em" transform="rotate(-90, 78.27, 48.71)">Jul</text>
    <text x="82.11" y="48.71" text-anchor="end" dy="0.35em" transform="rotate(-90, 82.11, 48.71)">Aug</text>
    <text x="85.94" y="48.71" text-anchor="end" dy="0.35em" transform="rotate(-90, 85.94, 48.71)">Sep</text>
    <text x="89.65" y="48.71" text-anchor="end" dy="0.35em" transform="rotate(-90, 89.65, 48.71)">Oct</text>
    <text x="93.49" y="48.71" text-anchor="end" dy="0.35em" transform="rotate(-90, 93.49, 48.71)">Nov</text>
  </g>
  <g clip-path="url(#fig-e56c999139f74a48ac86c2f3afeeca47-element-5)" id="fig-e56c999139f74a48ac86c2f3afeeca47-element-4">
    <g pointer-events="visible" opacity="1" fill="#000000" fill-opacity="0.000" stroke="#000000" stroke-opacity="0.000" class="guide background" id="fig-e56c999139f74a48ac86c2f3afeeca47-element-6">
      <rect x="19.63" y="12.61" width="76.97" height="35.1"/>
    </g>
    <g class="guide ygridlines xfixed" stroke-dasharray="0.5,0.5" stroke-width="0.2" stroke="#D0D0E0" id="fig-e56c999139f74a48ac86c2f3afeeca47-element-7">
      <path fill="none" d="M19.63,45.71 L 96.6 45.71"/>
      <path fill="none" d="M19.63,39.49 L 96.6 39.49"/>
      <path fill="none" d="M19.63,33.27 L 96.6 33.27"/>
      <path fill="none" d="M19.63,27.05 L 96.6 27.05"/>
      <path fill="none" d="M19.63,20.83 L 96.6 20.83"/>
      <path fill="none" d="M19.63,14.61 L 96.6 14.61"/>
    </g>
    <g class="guide xgridlines yfixed" stroke-dasharray="0.5,0.5" stroke-width="0.2" stroke="#D0D0E0" id="fig-e56c999139f74a48ac86c2f3afeeca47-element-8">
      <path fill="none" d="M21.88,12.61 L 21.88 47.71"/>
      <path fill="none" d="M25.59,12.61 L 25.59 47.71"/>
      <path fill="none" d="M29.42,12.61 L 29.42 47.71"/>
      <path fill="none" d="M33.13,12.61 L 33.13 47.71"/>
      <path fill="none" d="M36.97,12.61 L 36.97 47.71"/>
      <path fill="none" d="M40.8,12.61 L 40.8 47.71"/>
      <path fill="none" d="M44.51,12.61 L 44.51 47.71"/>
      <path fill="none" d="M48.35,12.61 L 48.35 47.71"/>
      <path fill="none" d="M52.06,12.61 L 52.06 47.71"/>
      <path fill="none" d="M55.89,12.61 L 55.89 47.71"/>
      <path fill="none" d="M59.72,12.61 L 59.72 47.71"/>
      <path fill="none" d="M63.19,12.61 L 63.19 47.71"/>
      <path fill="none" d="M67.02,12.61 L 67.02 47.71"/>
      <path fill="none" d="M70.73,12.61 L 70.73 47.71"/>
      <path fill="none" d="M74.56,12.61 L 74.56 47.71"/>
      <path fill="none" d="M78.27,12.61 L 78.27 47.71"/>
      <path fill="none" d="M82.11,12.61 L 82.11 47.71"/>
      <path fill="none" d="M85.94,12.61 L 85.94 47.71"/>
      <path fill="none" d="M89.65,12.61 L 89.65 47.71"/>
      <path fill="none" d="M93.49,12.61 L 93.49 47.71"/>
    </g>
    <g class="plotpanel" id="fig-e56c999139f74a48ac86c2f3afeeca47-element-9">
      <g stroke-width="0.3" fill="#000000" fill-opacity="0.000" class="geometry color_newnot_possible" stroke-dasharray="none" stroke="#808080" id="fig-e56c999139f74a48ac86c2f3afeeca47-element-10">
        <path fill="none" d="M76.91,42.41 L 77.04 42.41 77.16 42.41 77.29 42.41 77.41 42.41 77.53 42.41 77.66 42.41 77.78 42.41 78.15 42.41 78.4 42.41 78.65 42.47 78.77 42.41 78.89 42.41 79.02 42.41 79.14 42.41 79.26 42.41 81.37 42.35 82.36 42.35 83.47 42.35 85.57 42.35 85.94 42.35 86.56 42.16 87.18 41.98 89.16 41.98 89.65 41.98 90.27 41.98 90.77 41.98 91.26 41.98 91.63 41.91 93.12 41.91 94.6 41.85"/>
      </g>
      <g stroke-width="0.3" fill="#000000" fill-opacity="0.000" class="geometry color_newno_tests" stroke-dasharray="none" stroke="#0000FF" id="fig-e56c999139f74a48ac86c2f3afeeca47-element-11">
        <path fill="none" d="M76.91,39.05 L 77.04 39.05 77.16 39.05 77.29 39.05 77.41 39.05 77.53 39.05 77.66 39.05 77.78 39.05 78.15 39.05 78.4 39.05 78.65 39.05 78.77 39.05 78.89 39.12 79.02 39.12 79.14 39.12 79.26 39.18 81.37 39.12 82.36 39.12 83.47 39.12 85.57 39.12 85.94 39.18 86.56 39.18 87.18 39.24 89.16 39.43 89.65 39.61 90.27 39.74 90.77 39.74 91.26 39.74 91.63 39.8 93.12 39.86 94.6 39.99"/>
      </g>
      <g stroke-width="0.3" fill="#000000" fill-opacity="0.000" class="geometry color_newtests_fail" stroke-dasharray="none" stroke="#FF0000" id="fig-e56c999139f74a48ac86c2f3afeeca47-element-12">
        <path fill="none" d="M76.91,42.23 L 77.04 42.04 77.16 41.98 77.29 41.91 77.41 41.79 77.53 41.98 77.66 41.73 77.78 41.91 78.15 41.79 78.4 41.73 78.65 41.67 78.77 41.85 78.89 39.86 79.02 41.73 79.14 41.35 79.26 41.42 81.37 41.67 82.36 41.73 83.47 41.23 85.57 40.17 85.94 40.48 86.56 40.86 87.18 41.17 89.16 41.11 89.65 40.8 90.27 41.04 90.77 41.11 91.26 40.92 91.63 40.92 93.12 40.8 94.6 40.67"/>
      </g>
      <g stroke-width="0.3" fill="#000000" fill-opacity="0.000" class="geometry color_newtests_pass" stroke-dasharray="none" stroke="#008000" id="fig-e56c999139f74a48ac86c2f3afeeca47-element-13">
        <path fill="none" d="M76.91,22.14 L 77.04 22.32 77.16 22.26 77.29 22.32 77.41 22.32 77.53 22.14 77.66 22.39 77.78 22.14 78.15 22.26 78.4 22.2 78.65 22.26 78.77 22.01 78.89 23.69 79.02 21.7 79.14 22.01 79.26 21.89 81.37 20.89 82.36 20.52 83.47 20.71 85.57 20.89 85.94 20.4 86.56 20.15 87.18 19.84 89.16 19.09 89.65 18.9 90.27 18.28 90.77 18.16 91.26 18.22 91.63 18.09 93.12 18.09 94.6 18.09"/>
      </g>
      <g stroke-width="0.3" fill="#000000" fill-opacity="0.000" class="geometry color_newnot_possible" stroke-dasharray="none" stroke="#808080" id="fig-e56c999139f74a48ac86c2f3afeeca47-element-14">
        <path fill="none" d="M21.63,43.72 L 21.76 43.72 21.88 43.72 22 43.72 22.13 43.72 22.25 43.72 22.37 43.72 22.5 43.72 22.74 43.72 22.87 43.72 23.12 43.72 23.36 43.72 23.49 43.72 23.73 43.72 23.86 43.72 24.72 43.72 25.09 43.72 25.34 43.72 26.21 43.78 26.33 43.78 26.45 43.78 26.58 43.78 26.7 43.78 26.83 43.72 26.95 43.72 27.07 43.72 27.2 43.72 27.32 43.59 27.44 43.59 27.57 43.59 27.82 43.53 27.94 43.97 28.06 43.97 28.19 43.97 28.31 43.97 28.43 43.97 28.56 43.97 28.68 43.97 28.8 43.97 28.93 43.97 29.05 43.97 29.18 43.97 29.3 43.97 29.42 43.97 29.55 43.97 29.67 43.97 29.79 43.97 30.54 43.66 30.66 43.59 30.78 43.59 30.91 43.59 31.03 43.59 31.15 43.53 31.28 43.41 31.4 43.41 31.53 43.41 31.65 43.41 31.9 43.41 32.02 43.41 32.14 43.41 32.27 43.41 32.39 43.41 32.52 43.41 32.64 43.41 32.76 43.41 33.01 43.41 33.13 43.41 33.26 43.41 33.38 43.41 33.5 43.41 33.63 43.41 33.88 43.41 34 43.41 34.12 43.41 34.25 43.41 34.49 43.41 34.74 43.41 34.86 43.41 34.99 43.41 35.11 43.41 35.48 43.41 35.61 43.41 35.73 43.41 35.85 43.41 35.98 43.41 36.1 43.41 36.23 43.34 36.35 43.34 36.6 43.34 36.72 43.34 36.97 43.34 37.09 43.34 37.21 43.34 37.34 43.34 37.59 43.34 37.71 43.34 37.83 43.34 37.96 43.34 38.08 43.34 38.2 43.34 38.33 43.34 38.45 43.34 38.58 43.28 38.7 43.22 38.82 43.22 38.95 43.22 39.07 43.22 39.32 43.22 39.44 43.22 39.56 43.22 39.69 43.22 39.81 43.22 39.94 43.22 40.06 43.22 40.18 43.22 40.43 43.22 40.55 43.16 40.8 43.16 40.92 43.16 41.05 43.1 41.54 43.1 41.91 43.1 42.04 43.1 42.16 43.1 42.29 43.1 42.41 43.1 42.53 43.1 42.66 43.1 42.78 43.1 42.9 43.1 43.15 43.03 43.27 43.03 43.4 43.03 43.52 43.03 43.65 43.03 43.77 43.03 43.89 42.97 44.14 42.97 44.26 42.97 44.39 42.97 44.51 42.97 44.64 42.79 44.76 42.91 44.88 42.91 45.01 42.91 45.38 42.91 45.5 42.85 45.62 42.85 45.75 42.85 45.87 42.85 46 42.85 46.12 42.85 46.24 42.85 46.37 42.85 46.49 42.85 46.61 42.79 46.74 42.79 46.86 42.79 46.99 42.79 47.11 42.79 47.23 42.79 47.36 42.79 47.48 42.79 47.6 42.79 47.73 42.79 47.85 42.79 47.97 42.79 48.1 42.79 48.22 42.79 48.35 42.79 48.47 42.79 48.59 42.79 48.72 42.79 48.84 42.79 48.96 42.79 49.33 42.79 49.95 42.79 50.08 42.79 50.2 42.79 50.32 42.79 50.45 42.79 50.57 42.79 50.7 42.79 51.19 42.79 51.31 42.79 51.93 42.79 52.18 42.79 52.3 42.85 52.43 42.85 52.55 42.85 52.67 42.85 52.8 42.85 52.92 42.85 53.29 42.85 53.42 42.85 53.66 42.85 53.79 42.85 53.91 42.85 54.28 42.85 54.53 42.85 54.9 42.85 55.39 42.85 55.64 42.85 56.01 42.85 56.88 42.85 57.37 42.85 57.5 42.72 57.62 42.72 57.74 42.66 57.87 42.66 57.99 42.66 58.24 42.66 58.36 42.66 58.49 42.66 58.61 42.66 58.73 42.66 58.86 42.66 58.98 42.66 59.23 42.6 59.35 42.6 59.48 42.6 59.97 42.6 60.09 42.6 60.22 42.6 60.47 42.6 60.71 42.6 60.84 42.6 61.21 42.6 61.83 42.6 62.44 42.6 63.06 42.6 63.19 42.6 63.31 42.6 63.43 42.16 63.56 42.23 63.8 42.16 64.05 42.16 64.55 42.16 64.67 42.16 64.79 42.16 64.92 42.16 65.04 42.16 65.17 42.23 65.29 42.16 66.77 42.1 67.02 42.04 67.14 42.04 67.39 42.04 67.89 42.04 68.13 42.04 68.38 42.04 68.88 42.04 69.12 42.04 69.25 42.04 69.49 42.04 69.62 42.04 69.74 42.04 69.86 42.04 69.99 42.04 70.11 42.04 70.36 42.04 70.48 42.04 70.73 42.04 70.98 42.04 71.1 42.04 71.23 42.04 71.47 42.04 71.6 42.04 72.21 42.04 72.71 42.1 72.83 42.04 73.82 42.04 73.95 41.91 74.07 41.91 74.44 41.91 74.56 41.91 74.69 41.98 74.94 41.98 75.18 41.98 75.43 41.98 76.54 41.98"/>
      </g>
      <g stroke-width="0.3" fill="#000000" fill-opacity="0.000" class="geometry color_newtests_fail" stroke-dasharray="none" stroke="#FF0000" id="fig-e56c999139f74a48ac86c2f3afeeca47-element-15">
        <path fill="none" d="M21.63,43.22 L 21.76 43.22 21.88 42.29 22 43.28 22.13 43.22 22.25 42.23 22.37 42.23 22.5 42.23 22.74 43.22 22.87 43.22 23.12 43.28 23.36 43.28 23.49 43.28 23.73 43.34 23.86 43.34 24.72 43.41 25.09 43.41 25.34 43.41 26.21 43.34 26.33 43.41 26.45 43.28 26.58 43.28 26.7 43.34 26.83 43.41 26.95 43.34 27.07 43.34 27.2 43.34 27.32 43.41 27.44 43.41 27.57 43.28 27.82 43.34 27.94 43.22 28.06 43.34 28.19 43.47 28.31 43.47 28.43 43.53 28.56 43.53 28.68 43.47 28.8 43.53 28.93 43.53 29.05 43.53 29.18 43.59 29.3 43.59 29.42 44.09 29.55 43.84 29.67 43.84 29.79 43.84 30.54 44.22 30.66 44.28 30.78 44.28 30.91 44.28 31.03 44.22 31.15 44.28 31.28 44.28 31.4 44.28 31.53 44.22 31.65 43.03 31.9 44.22 32.02 44.28 32.14 44.28 32.27 44.28 32.39 44.28 32.52 44.28 32.64 44.28 32.76 44.28 33.01 44.28 33.13 44.28 33.26 44.22 33.38 44.22 33.5 44.22 33.63 44.22 33.88 44.22 34 44.09 34.12 44.09 34.25 44.09 34.49 43.97 34.74 42.72 34.86 42.66 34.99 43.97 35.11 43.9 35.48 44.03 35.61 44.03 35.73 44.03 35.85 44.03 35.98 44.09 36.1 44.15 36.23 44.15 36.35 44.15 36.6 44.15 36.72 44.22 36.97 44.15 37.09 44.22 37.21 44.22 37.34 44.22 37.59 44.22 37.71 44.22 37.83 44.09 37.96 44.15 38.08 44.15 38.2 44.09 38.33 44.09 38.45 43.97 38.58 44.03 38.7 44.15 38.82 42.41 38.95 42.79 39.07 42.79 39.32 44.22 39.44 44.28 39.56 44.22 39.69 44.28 39.81 44.22 39.94 44.22 40.06 44.34 40.18 44.15 40.43 44.4 40.55 44.46 40.8 44.34 40.92 44.34 41.05 44.4 41.54 44.4 41.91 44.71 42.04 44.71 42.16 44.71 42.29 44.78 42.41 44.84 42.53 44.84 42.66 44.84 42.78 44.84 42.9 44.84 43.15 44.71 43.27 44.71 43.4 44.65 43.52 44.71 43.65 44.65 43.77 44.53 43.89 44.59 44.14 44.65 44.26 44.71 44.39 44.71 44.51 44.65 44.64 44.59 44.76 44.65 44.88 44.71 45.01 44.71 45.38 44.71 45.5 44.71 45.62 44.71 45.75 44.78 45.87 44.78 46 44.78 46.12 44.78 46.24 44.78 46.37 44.65 46.49 44.59 46.61 44.59 46.74 44.46 46.86 44.59 46.99 44.59 47.11 44.59 47.23 44.59 47.36 44.59 47.48 44.53 47.6 44.59 47.73 44.53 47.85 44.59 47.97 44.53 48.1 44.59 48.22 44.59 48.35 44.59 48.47 44.65 48.59 44.65 48.72 44.71 48.84 44.71 48.96 44.53 49.33 44.78 49.95 44.71 50.08 44.71 50.2 44.71 50.32 44.78 50.45 44.84 50.57 44.71 50.7 44.71 51.19 44.65 51.31 44.71 51.93 44.71 52.18 44.71 52.3 44.34 52.43 44.53 52.55 44.71 52.67 44.71 52.8 44.71 52.92 44.65 53.29 44.59 53.42 44.59 53.66 44.53 53.79 44.59 53.91 44.59 54.28 44.59 54.53 44.65 54.9 44.65 55.39 44.65 55.64 44.65 56.01 44.65 56.88 44.59 57.37 44.46 57.5 44.59 57.62 44.59 57.74 44.34 57.87 44.34 57.99 44.4 58.24 44.4 58.36 44.34 58.49 44.34 58.61 44.28 58.73 44.34 58.86 44.34 58.98 44.34 59.23 44.34 59.35 44.34 59.48 44.34 59.97 44.15 60.09 44.15 60.22 44.15 60.47 44.09 60.71 44.03 60.84 44.03 61.21 44.03 61.83 44.03 62.44 44.09 63.06 42.29 63.19 42.91 63.31 43.34 63.43 44.09 63.56 44.09 63.8 44.09 64.05 44.09 64.55 44.09 64.67 44.03 64.79 44.03 64.92 44.03 65.04 44.03 65.17 44.03 65.29 43.97 66.77 43.9 67.02 43.97 67.14 44.09 67.39 44.09 67.89 43.97 68.13 44.09 68.38 44.03 68.88 44.03 69.12 44.03 69.25 43.97 69.49 43.84 69.62 43.84 69.74 43.84 69.86 43.9 69.99 43.78 70.11 43.78 70.36 43.78 70.48 43.84 70.73 43.78 70.98 43.78 71.1 43.66 71.23 43.66 71.47 43.72 71.6 43.66 72.21 43.59 72.71 43.47 72.83 43.47 73.82 43.22 73.95 43.22 74.07 43.22 74.44 43.22 74.56 43.22 74.69 43.28 74.94 43.34 75.18 43.28 75.43 43.28 76.54 43.41"/>
      </g>
      <g stroke-width="0.3" fill="#000000" fill-opacity="0.000" class="geometry color_newno_tests" stroke-dasharray="none" stroke="#0000FF" id="fig-e56c999139f74a48ac86c2f3afeeca47-element-16">
        <path fill="none" d="M21.63,42.35 L 21.76 42.35 21.88 42.35 22 42.35 22.13 42.35 22.25 42.41 22.37 42.41 22.5 42.35 22.74 42.29 22.87 42.29 23.12 42.29 23.36 42.16 23.49 42.16 23.73 42.16 23.86 42.16 24.72 42.16 25.09 42.16 25.34 42.16 26.21 42.1 26.33 42.1 26.45 42.1 26.58 42.1 26.7 42.1 26.83 42.1 26.95 42.1 27.07 42.1 27.2 42.1 27.32 42.23 27.44 42.23 27.57 42.23 27.82 42.29 27.94 42.29 28.06 42.29 28.19 42.23 28.31 42.23 28.43 42.35 28.56 42.41 28.68 42.41 28.8 42.41 28.93 42.41 29.05 42.41 29.18 42.41 29.3 42.41 29.42 42.16 29.55 42.23 29.67 42.23 29.79 42.23 30.54 42.23 30.66 42.23 30.78 42.23 30.91 42.29 31.03 42.29 31.15 42.29 31.28 42.29 31.4 42.35 31.53 42.35 31.65 42.54 31.9 42.47 32.02 42.35 32.14 42.35 32.27 42.35 32.39 42.35 32.52 42.35 32.64 42.35 32.76 42.35 33.01 42.41 33.13 42.35 33.26 42.35 33.38 42.35 33.5 42.47 33.63 42.47 33.88 42.47 34 42.47 34.12 42.47 34.25 42.47 34.49 42.35 34.74 42.54 34.86 42.47 34.99 42.41 35.11 42.41 35.48 42.41 35.61 42.41 35.73 42.41 35.85 42.41 35.98 42.47 36.1 42.47 36.23 42.47 36.35 42.54 36.6 42.54 36.72 42.54 36.97 42.54 37.09 42.54 37.21 42.54 37.34 42.54 37.59 42.41 37.71 42.47 37.83 42.47 37.96 42.41 38.08 42.41 38.2 42.41 38.33 42.41 38.45 42.41 38.58 42.41 38.7 42.41 38.82 42.79 38.95 42.79 39.07 42.79 39.32 42.35 39.44 42.35 39.56 42.41 39.69 42.41 39.81 42.47 39.94 42.41 40.06 42.41 40.18 42.47 40.43 42.85 40.55 42.91 40.8 42.91 40.92 42.91 41.05 42.91 41.54 42.91 41.91 42.85 42.04 42.85 42.16 42.79 42.29 42.79 42.41 42.79 42.53 42.85 42.66 42.85 42.78 42.91 42.9 42.91 43.15 42.91 43.27 42.85 43.4 42.85 43.52 42.85 43.65 42.85 43.77 42.91 43.89 42.91 44.14 42.85 44.26 42.85 44.39 42.85 44.51 42.85 44.64 42.6 44.76 42.85 44.88 42.85 45.01 42.85 45.38 42.91 45.5 42.91 45.62 42.85 45.75 42.85 45.87 42.85 46 42.85 46.12 42.85 46.24 42.85 46.37 42.85 46.49 42.85 46.61 42.85 46.74 42.91 46.86 42.85 46.99 42.85 47.11 42.85 47.23 42.85 47.36 42.85 47.48 42.91 47.6 42.85 47.73 42.91 47.85 42.85 47.97 42.85 48.1 42.85 48.22 42.85 48.35 42.85 48.47 42.85 48.59 42.85 48.72 42.85 48.84 42.85 48.96 42.85 49.33 42.85 49.95 42.85 50.08 42.85 50.2 42.85 50.32 42.85 50.45 42.85 50.57 42.85 50.7 42.85 51.19 42.91 51.31 42.85 51.93 42.85 52.18 42.85 52.3 42.85 52.43 42.91 52.55 42.85 52.67 42.85 52.8 42.85 52.92 42.91 53.29 42.85 53.42 42.85 53.66 42.85 53.79 42.79 53.91 42.79 54.28 42.85 54.53 42.79 54.9 42.79 55.39 42.85 55.64 42.79 56.01 42.79 56.88 42.79 57.37 42.79 57.5 42.79 57.62 42.79 57.74 42.85 57.87 42.79 57.99 42.79 58.24 42.79 58.36 42.85 58.49 42.85 58.61 42.85 58.73 42.79 58.86 42.79 58.98 42.79 59.23 42.79 59.35 42.79 59.48 42.79 59.97 42.79 60.09 42.79 60.22 42.79 60.47 42.79 60.71 42.79 60.84 42.79 61.21 42.79 61.83 42.79 62.44 42.79 63.06 42.97 63.19 42.91 63.31 42.91 63.43 42.91 63.56 42.85 63.8 42.85 64.05 42.85 64.55 42.85 64.67 42.85 64.79 42.91 64.92 42.91 65.04 42.91 65.17 42.91 65.29 42.91 66.77 42.97 67.02 42.97 67.14 42.97 67.39 43.03 67.89 43.03 68.13 43.03 68.38 43.03 68.88 43.03 69.12 43.03 69.25 43.03 69.49 43.03 69.62 43.03 69.74 43.03 69.86 43.03 69.99 43.03 70.11 43.03 70.36 43.03 70.48 43.03 70.73 43.1 70.98 43.03 71.1 43.03 71.23 43.03 71.47 43.1 71.6 43.03 72.21 43.1 72.71 43.1 72.83 43.1 73.82 43.1 73.95 43.1 74.07 43.1 74.44 43.16 74.56 43.16 74.69 43.1 74.94 43.1 75.18 43.1 75.43 43.16 76.54 43.1"/>
      </g>
      <g stroke-width="0.3" fill="#000000" fill-opacity="0.000" class="geometry color_oldfull_fail" stroke-dasharray="none" stroke="#FFA500" id="fig-e56c999139f74a48ac86c2f3afeeca47-element-17">
        <path fill="none" d="M21.63,43.16 L 21.76 43.16 21.88 43.59 22 42.91 22.13 42.97 22.25 43.47 22.37 43.34 22.5 43.47 22.74 42.6 22.87 42.6 23.12 42.54 23.36 42.79 23.49 42.66 23.73 42.85 23.86 42.79 24.72 42.91 25.09 42.91 25.34 42.91 26.21 42.85 26.33 42.72 26.45 42.1 26.58 42.1 26.7 42.41 26.83 42.41 26.95 42.6 27.07 42.6 27.2 42.6 27.32 42.85 27.44 42.85 27.57 43.16 27.82 43.16 27.94 43.1 28.06 42.97 28.19 43.03 28.31 43.03 28.43 43.16 28.56 43.16 28.68 43.16 28.8 43.03 28.93 43.28 29.05 43.22 29.18 43.16 29.3 43.03 29.42 45.71 29.55 43.28 29.67 42.97 29.79 43.1 30.54 42.97 30.66 43.22 30.78 43.47 30.91 43.47 31.03 43.41 31.15 43.66 31.28 43.59 31.4 43.59 31.53 43.66 31.65 43.84 31.9 43.53 32.02 43.59 32.14 43.72 32.27 43.59 32.39 43.72 32.52 43.72 32.64 43.47 32.76 43.53 33.01 43.78 33.13 43.78 33.26 43.78 33.38 43.72 33.5 43.66 33.63 43.78 33.88 43.78 34 43.84 34.12 43.9 34.25 43.9 34.49 43.78 34.74 43.34 34.86 43.66 34.99 43.59 35.11 43.59 35.48 43.59 35.61 43.59 35.73 43.41 35.85 43.53 35.98 43.47 36.1 43.47 36.23 43.59 36.35 43.53 36.6 43.59 36.72 43.66 36.97 43.66 37.09 43.66 37.21 43.66 37.34 43.66 37.59 43.66 37.71 43.66 37.83 43.66 37.96 43.59 38.08 43.59 38.2 43.53 38.33 43.66 38.45 43.53 38.58 43.47 38.7 43.47 38.82 43.34 38.95 43.28 39.07 43.34 39.32 43.22 39.44 43.28 39.56 43.47 39.69 43.28 39.81 43.28 39.94 43.34 40.06 43.16 40.18 43.22 40.43 43.53 40.55 43.47 40.8 43.47 40.92 43.47 41.05 43.47 41.54 43.47 41.91 43.41 42.04 43.34 42.16 43.41 42.29 43.28 42.41 43.28 42.53 43.47 42.66 43.16 42.78 43.1 42.9 43.1 43.15 43.16 43.27 43.28 43.4 43.22 43.52 43.28 43.65 43.28 43.77 43.16 43.89 43.28 44.14 43.41 44.26 43.41 44.39 43.41 44.51 43.41 44.64 43.22 44.76 43.47 44.88 43.47 45.01 43.47 45.38 43.1 45.5 43.28 45.62 43.28 45.75 43.41 45.87 43.28 46 43.41 46.12 43.41 46.24 43.34 46.37 43.34 46.49 43.28 46.61 43.47 46.74 43.41 46.86 43.34 46.99 43.41 47.11 43.41 47.23 43.34 47.36 43.47 47.48 43.28 47.6 43.28 47.73 43.41 47.85 43.34 47.97 43.28 48.1 43.28 48.22 43.28 48.35 43.22 48.47 43.28 48.59 43.41 48.72 43.22 48.84 43.28 48.96 43.28 49.33 43.16 49.95 43.16 50.08 43.03 50.2 43.03 50.32 42.91 50.45 42.97 50.57 43.16 50.7 43.16 51.19 43.1 51.31 43.1 51.93 42.97 52.18 42.97 52.3 42.72 52.43 42.85 52.55 42.91 52.67 43.03 52.8 43.03 52.92 42.91 53.29 42.79 53.42 42.79 53.66 42.72 53.79 42.54 53.91 42.85 54.28 42.79 54.53 42.91 54.9 42.85 55.39 42.72 55.64 42.85 56.01 42.6 56.88 42.47 57.37 42.54 57.5 42.54 57.62 42.54 57.74 42.23 57.87 42.1 57.99 42.04 58.24 42.16 58.36 42.16 58.49 42.16 58.61 42.1 58.73 41.91 58.86 42.23 58.98 42.23 59.23 42.23 59.35 42.23 59.48 42.29 59.97 42.1 60.09 42.23 60.22 42.04 60.47 42.47 60.71 42.47 60.84 42.41 61.21 42.29 61.83 42.29 62.44 42.35 63.06 41.85 63.19 41.6 63.31 41.67 63.43 41.6 63.56 41.91 63.8 41.85 64.05 41.91 64.55 41.67 64.67 41.73 64.79 41.91 64.92 41.79 65.04 41.85 65.17 41.73 65.29 41.91 66.77 41.85 67.02 41.91 67.14 41.73 67.39 41.91 67.89 42.04 68.13 41.98 68.38 41.67 68.88 41.85 69.12 41.73 69.25 42.23 69.49 42.35 69.62 42.16 69.74 42.23 69.86 42.1 69.99 42.16 70.11 42.41 70.36 42.23 70.48 42.16 70.73 42.35 70.98 42.29 71.1 42.16 71.23 42.29 71.47 42.16 71.6 42.1 72.21 41.91 72.71 42.1 72.83 42.1 73.82 42.16 73.95 42.23 74.07 42.16 74.44 42.41 74.56 42.41 74.69 42.35 74.94 42.04 75.18 42.16 75.43 42.1 76.54 42.23"/>
      </g>
      <g stroke-width="0.3" fill="#000000" fill-opacity="0.000" class="geometry color_newtests_pass" stroke-dasharray="none" stroke="#008000" id="fig-e56c999139f74a48ac86c2f3afeeca47-element-18">
        <path fill="none" d="M21.63,37.69 L 21.76 37.69 21.88 38.12 22 37.81 22.13 37.81 22.25 38.25 22.37 38.37 22.5 38.25 22.74 38.18 22.87 38.12 23.12 38.06 23.36 37.81 23.49 37.93 23.73 37.69 23.86 37.69 24.72 37.25 25.09 37.25 25.34 37.25 26.21 37.31 26.33 37.25 26.45 37.93 26.58 37.93 26.7 37.56 26.83 37.56 26.95 37.44 27.07 37.44 27.2 37.44 27.32 37.13 27.44 37.13 27.57 36.75 27.82 36.63 27.94 36.38 28.06 36.38 28.19 36.13 28.31 36.13 28.43 35.82 28.56 35.7 28.68 35.76 28.8 35.82 28.93 35.57 29.05 35.63 29.18 35.57 29.3 35.7 29.42 35.26 29.55 35.32 29.67 35.57 29.79 35.38 30.54 35.07 30.66 34.76 30.78 34.45 30.91 34.33 31.03 34.33 31.15 34.08 31.28 34.14 31.4 34.08 31.53 34.02 31.65 34.76 31.9 33.95 32.02 33.83 32.14 33.71 32.27 33.83 32.39 33.71 32.52 33.71 32.64 33.77 32.76 33.71 33.01 33.33 33.13 33.27 33.26 33.27 33.38 33.27 33.5 33.21 33.63 32.96 33.88 32.9 34 32.77 34.12 32.71 34.25 32.71 34.49 32.77 34.74 34.08 34.86 33.89 34.99 32.65 35.11 32.71 35.48 32.52 35.61 32.52 35.73 32.65 35.85 32.52 35.98 32.46 36.1 32.34 36.23 32.21 36.35 32.15 36.6 32.09 36.72 31.96 36.97 32.03 37.09 31.9 37.21 31.71 37.34 31.71 37.59 31.78 37.71 31.71 37.83 31.71 37.96 31.71 38.08 31.65 38.2 31.71 38.33 31.53 38.45 31.65 38.58 31.71 38.7 31.59 38.82 33.02 38.95 32.71 39.07 32.65 39.32 31.59 39.44 31.47 39.56 31.22 39.69 31.34 39.81 31.34 39.94 31.16 40.06 31.16 40.18 31.16 40.43 30.97 40.55 30.78 40.8 30.78 40.92 30.78 41.05 30.78 41.54 30.78 41.91 30.22 42.04 30.22 42.16 30.16 42.29 30.1 42.41 30.04 42.53 29.79 42.66 29.6 42.78 29.6 42.9 29.6 43.15 29.72 43.27 29.6 43.4 29.66 43.52 29.54 43.65 29.6 43.77 29.72 43.89 29.6 44.14 29.54 44.26 29.41 44.39 29.41 44.51 29.35 44.64 28.79 44.76 29.23 44.88 29.16 45.01 29.04 45.38 29.23 45.5 29.1 45.62 29.04 45.75 28.79 45.87 28.92 46 28.79 46.12 28.67 46.24 28.73 46.37 28.79 46.49 28.85 46.61 28.73 46.74 28.85 46.86 28.85 46.99 28.73 47.11 28.61 47.23 28.67 47.36 28.54 47.48 28.67 47.6 28.67 47.73 28.48 47.85 28.54 47.97 28.54 48.1 28.42 48.22 28.42 48.35 28.42 48.47 28.29 48.59 28.17 48.72 28.23 48.84 28.17 48.96 28.29 49.33 28.17 49.95 27.92 50.08 27.92 50.2 27.92 50.32 27.92 50.45 27.8 50.57 27.55 50.7 27.55 51.19 27.3 51.31 27.3 51.93 27.36 52.18 27.36 52.3 27.86 52.43 27.42 52.55 27.24 52.67 27.11 52.8 26.99 52.92 27.05 53.29 27.17 53.42 27.11 53.66 27.05 53.79 27.17 53.91 26.86 54.28 26.86 54.53 26.61 54.9 26.55 55.39 26.49 55.64 26.24 56.01 26.24 56.88 26.06 57.37 25.68 57.5 25.56 57.62 25.56 57.74 25.81 57.87 25.99 57.99 25.99 58.24 25.87 58.36 25.74 58.49 25.74 58.61 25.68 58.73 25.81 58.86 25.5 58.98 25.5 59.23 25.37 59.35 25.25 59.48 25.12 59.97 25 60.09 25 60.22 25.18 60.47 24.62 60.71 24.5 60.84 24.56 61.21 24.56 61.83 24.56 62.44 24.07 63.06 25.93 63.19 25.62 63.31 25.12 63.43 24.75 63.56 24.44 63.8 24.56 64.05 24.5 64.55 24.62 64.67 24.5 64.79 24.19 64.92 24.31 65.04 24.13 65.17 24.25 65.29 24.07 66.77 24.13 67.02 24.07 67.14 23.94 67.39 23.69 67.89 23.63 68.13 23.57 68.38 23.75 68.88 23.57 69.12 23.57 69.25 23.07 69.49 22.76 69.62 22.95 69.74 22.82 69.86 22.7 69.99 22.76 70.11 22.45 70.36 22.57 70.48 22.51 70.73 22.32 70.98 22.32 71.1 22.39 71.23 22.2 71.47 22.07 71.6 22.2 72.21 22.14 72.71 21.89 72.83 21.83 73.82 21.76 73.95 21.83 74.07 21.89 74.44 21.39 74.56 21.33 74.69 21.27 74.94 21.39 75.18 21.33 75.43 21.27 76.54 20.77"/>
      </g>
    </g>
  </g>
  <g class="guide ylabels" font-size="2.82" font-family="'PT Sans Caption','Helvetica Neue','Helvetica',sans-serif" fill="#6C606B" id="fig-e56c999139f74a48ac86c2f3afeeca47-element-19">
    <text x="18.63" y="45.71" text-anchor="end" dy="0.35em">0</text>
    <text x="18.63" y="39.49" text-anchor="end" dy="0.35em">100</text>
    <text x="18.63" y="33.27" text-anchor="end" dy="0.35em">200</text>
    <text x="18.63" y="27.05" text-anchor="end" dy="0.35em">300</text>
    <text x="18.63" y="20.83" text-anchor="end" dy="0.35em">400</text>
    <text x="18.63" y="14.61" text-anchor="end" dy="0.35em">500</text>
  </g>
  <g font-size="3.88" font-family="'PT Sans','Helvetica Neue','Helvetica',sans-serif" fill="#564A55" stroke="#000000" stroke-opacity="0.000" id="fig-e56c999139f74a48ac86c2f3afeeca47-element-20">
    <text x="8.81" y="28.16" text-anchor="middle" dy="0.35em" transform="rotate(-90, 8.81, 30.16)">Number of Packages</text>
  </g>
  <g font-size="3.88" font-family="'PT Sans','Helvetica Neue','Helvetica',sans-serif" fill="#564A55" stroke="#000000" stroke-opacity="0.000" id="fig-e56c999139f74a48ac86c2f3afeeca47-element-21">
    <text x="58.12" y="10.61" text-anchor="middle">Julia v0.3</text>
  </g>
</g>
<defs>
<clipPath id="fig-e56c999139f74a48ac86c2f3afeeca47-element-5">
  <path d="M19.63,12.61 L 96.6 12.61 96.6 47.71 19.63 47.71" />
</clipPath
></defs>
</svg>
