<?xml version="1.0" encoding="UTF-8"?>
<svg xmlns="http://www.w3.org/2000/svg"
     xmlns:xlink="http://www.w3.org/1999/xlink"
     xmlns:gadfly="http://www.gadflyjl.org/ns"
     version="1.2"
     width="101.6mm" height="76.2mm" viewBox="0 0 101.6 76.2"
     stroke="none"
     fill="#000000"
     stroke-width="0.3"
     font-size="3.88"
>
<g class="plotroot xscalable yscalable" id="img-d2147f7b-1">
  <g font-size="3.88" font-family="'PT Sans','Helvetica Neue','Helvetica',sans-serif" fill="#564A55" stroke="#000000" stroke-opacity="0.000" id="img-d2147f7b-2">
    <text x="58.12" y="64.59" text-anchor="middle" dy="0.6em">Date</text>
  </g>
  <g class="guide xlabels" font-size="2.82" font-family="'PT Sans Caption','Helvetica Neue','Helvetica',sans-serif" fill="#6C606B" id="img-d2147f7b-3">
    <text x="21.87" y="48.71" text-anchor="end" dy="0.35em" transform="rotate(-90, 21.87, 48.71)">Apr</text>
    <text x="25.44" y="48.71" text-anchor="end" dy="0.35em" transform="rotate(-90, 25.44, 48.71)">May</text>
    <text x="29.13" y="48.71" text-anchor="end" dy="0.35em" transform="rotate(-90, 29.13, 48.71)">Jun</text>
    <text x="32.7" y="48.71" text-anchor="end" dy="0.35em" transform="rotate(-90, 32.7, 48.71)">Jul</text>
    <text x="36.39" y="48.71" text-anchor="end" dy="0.35em" transform="rotate(-90, 36.39, 48.71)">Aug</text>
    <text x="40.08" y="48.71" text-anchor="end" dy="0.35em" transform="rotate(-90, 40.08, 48.71)">Sep</text>
    <text x="43.65" y="48.71" text-anchor="end" dy="0.35em" transform="rotate(-90, 43.65, 48.71)">Oct</text>
    <text x="47.34" y="48.71" text-anchor="end" dy="0.35em" transform="rotate(-90, 47.34, 48.71)">Nov</text>
    <text x="50.91" y="48.71" text-anchor="end" dy="0.35em" transform="rotate(-90, 50.91, 48.71)">Dec</text>
    <text x="54.6" y="48.71" text-anchor="end" dy="0.35em" transform="rotate(-90, 54.6, 48.71)">Jan 2015</text>
    <text x="58.29" y="48.71" text-anchor="end" dy="0.35em" transform="rotate(-90, 58.29, 48.71)">Feb</text>
    <text x="61.63" y="48.71" text-anchor="end" dy="0.35em" transform="rotate(-90, 61.63, 48.71)">Mar</text>
    <text x="65.32" y="48.71" text-anchor="end" dy="0.35em" transform="rotate(-90, 65.32, 48.71)">Apr</text>
    <text x="68.89" y="48.71" text-anchor="end" dy="0.35em" transform="rotate(-90, 68.89, 48.71)">May</text>
    <text x="72.58" y="48.71" text-anchor="end" dy="0.35em" transform="rotate(-90, 72.58, 48.71)">Jun</text>
    <text x="76.15" y="48.71" text-anchor="end" dy="0.35em" transform="rotate(-90, 76.15, 48.71)">Jul</text>
    <text x="79.84" y="48.71" text-anchor="end" dy="0.35em" transform="rotate(-90, 79.84, 48.71)">Aug</text>
    <text x="83.53" y="48.71" text-anchor="end" dy="0.35em" transform="rotate(-90, 83.53, 48.71)">Sep</text>
    <text x="87.1" y="48.71" text-anchor="end" dy="0.35em" transform="rotate(-90, 87.1, 48.71)">Oct</text>
    <text x="90.79" y="48.71" text-anchor="end" dy="0.35em" transform="rotate(-90, 90.79, 48.71)">Nov</text>
    <text x="94.36" y="48.71" text-anchor="end" dy="0.35em" transform="rotate(-90, 94.36, 48.71)">Dec</text>
  </g>
<g clip-path="url(#img-d2147f7b-4)">
  <g id="img-d2147f7b-5">
    <g pointer-events="visible" opacity="1" fill="#000000" fill-opacity="0.000" stroke="#000000" stroke-opacity="0.000" class="guide background" id="img-d2147f7b-6">
      <rect x="19.63" y="12.61" width="76.97" height="35.1"/>
    </g>
    <g class="guide ygridlines xfixed" stroke-dasharray="0.5,0.5" stroke-width="0.2" stroke="#D0D0E0" id="img-d2147f7b-7">
      <path fill="none" d="M19.63,45.71 L 96.6 45.71"/>
      <path fill="none" d="M19.63,39.49 L 96.6 39.49"/>
      <path fill="none" d="M19.63,33.27 L 96.6 33.27"/>
      <path fill="none" d="M19.63,27.05 L 96.6 27.05"/>
      <path fill="none" d="M19.63,20.83 L 96.6 20.83"/>
      <path fill="none" d="M19.63,14.61 L 96.6 14.61"/>
    </g>
    <g class="guide xgridlines yfixed" stroke-dasharray="0.5,0.5" stroke-width="0.2" stroke="#D0D0E0" id="img-d2147f7b-8">
      <path fill="none" d="M21.87,12.61 L 21.87 47.71"/>
      <path fill="none" d="M25.44,12.61 L 25.44 47.71"/>
      <path fill="none" d="M29.13,12.61 L 29.13 47.71"/>
      <path fill="none" d="M32.7,12.61 L 32.7 47.71"/>
      <path fill="none" d="M36.39,12.61 L 36.39 47.71"/>
      <path fill="none" d="M40.08,12.61 L 40.08 47.71"/>
      <path fill="none" d="M43.65,12.61 L 43.65 47.71"/>
      <path fill="none" d="M47.34,12.61 L 47.34 47.71"/>
      <path fill="none" d="M50.91,12.61 L 50.91 47.71"/>
      <path fill="none" d="M54.6,12.61 L 54.6 47.71"/>
      <path fill="none" d="M58.29,12.61 L 58.29 47.71"/>
      <path fill="none" d="M61.63,12.61 L 61.63 47.71"/>
      <path fill="none" d="M65.32,12.61 L 65.32 47.71"/>
      <path fill="none" d="M68.89,12.61 L 68.89 47.71"/>
      <path fill="none" d="M72.58,12.61 L 72.58 47.71"/>
      <path fill="none" d="M76.15,12.61 L 76.15 47.71"/>
      <path fill="none" d="M79.84,12.61 L 79.84 47.71"/>
      <path fill="none" d="M83.53,12.61 L 83.53 47.71"/>
      <path fill="none" d="M87.1,12.61 L 87.1 47.71"/>
      <path fill="none" d="M90.79,12.61 L 90.79 47.71"/>
      <path fill="none" d="M94.36,12.61 L 94.36 47.71"/>
    </g>
    <g class="plotpanel" id="img-d2147f7b-9">
      <g stroke-width="0.3" fill="#000000" fill-opacity="0.000" class="geometry color_newnot_possible" stroke-dasharray="none" stroke="#808080" id="img-d2147f7b-10">
        <path fill="none" d="M74.84,42.41 L 74.96 42.41 75.08 42.41 75.2 42.41 75.32 42.41 75.44 42.41 75.55 42.41 75.67 42.41 76.03 42.41 76.27 42.41 76.51 42.47 76.63 42.41 76.74 42.41 76.86 42.41 76.98 42.41 77.1 42.41 79.13 42.35 80.08 42.35 81.15 42.35 83.17 42.35 83.53 42.35 84.12 42.16 84.72 41.98 86.62 41.98 87.1 41.98 87.7 41.98 88.17 41.98 88.65 41.98 89.01 41.91 90.43 41.91 91.86 41.85 92.34 41.85 92.58 41.79 93.65 41.79 93.77 41.79 94.6 41.79"/>
      </g>
      <g stroke-width="0.3" fill="#000000" fill-opacity="0.000" class="geometry color_newno_tests" stroke-dasharray="none" stroke="#0000FF" id="img-d2147f7b-11">
        <path fill="none" d="M74.84,39.05 L 74.96 39.05 75.08 39.05 75.2 39.05 75.32 39.05 75.44 39.05 75.55 39.05 75.67 39.05 76.03 39.05 76.27 39.05 76.51 39.05 76.63 39.05 76.74 39.12 76.86 39.12 76.98 39.12 77.1 39.18 79.13 39.12 80.08 39.12 81.15 39.12 83.17 39.12 83.53 39.18 84.12 39.18 84.72 39.24 86.62 39.43 87.1 39.61 87.7 39.74 88.17 39.74 88.65 39.74 89.01 39.8 90.43 39.86 91.86 39.99 92.34 39.99 92.58 39.99 93.65 39.99 93.77 39.99 94.6 39.99"/>
      </g>
      <g stroke-width="0.3" fill="#000000" fill-opacity="0.000" class="geometry color_newtests_fail" stroke-dasharray="none" stroke="#FF0000" id="img-d2147f7b-12">
        <path fill="none" d="M74.84,42.23 L 74.96 42.04 75.08 41.98 75.2 41.91 75.32 41.79 75.44 41.98 75.55 41.73 75.67 41.91 76.03 41.79 76.27 41.73 76.51 41.67 76.63 41.85 76.74 39.86 76.86 41.73 76.98 41.35 77.1 41.42 79.13 41.67 80.08 41.73 81.15 41.23 83.17 40.17 83.53 40.48 84.12 40.86 84.72 41.17 86.62 41.11 87.1 40.8 87.7 41.04 88.17 41.11 88.65 40.92 89.01 40.92 90.43 40.8 91.86 40.67 92.34 41.11 92.58 41.11 93.65 41.17 93.77 41.11 94.6 41.29"/>
      </g>
      <g stroke-width="0.3" fill="#000000" fill-opacity="0.000" class="geometry color_newtests_pass" stroke-dasharray="none" stroke="#008000" id="img-d2147f7b-13">
        <path fill="none" d="M74.84,22.14 L 74.96 22.32 75.08 22.26 75.2 22.32 75.32 22.32 75.44 22.14 75.55 22.39 75.67 22.14 76.03 22.26 76.27 22.2 76.51 22.26 76.63 22.01 76.74 23.69 76.86 21.7 76.98 22.01 77.1 21.89 79.13 20.89 80.08 20.52 81.15 20.71 83.17 20.89 83.53 20.4 84.12 20.15 84.72 19.84 86.62 19.09 87.1 18.9 87.7 18.28 88.17 18.16 88.65 18.22 89.01 18.09 90.43 18.09 91.86 18.09 92.34 17.78 92.58 17.72 93.65 17.66 93.77 17.72 94.6 17.41"/>
      </g>
      <g stroke-width="0.3" fill="#000000" fill-opacity="0.000" class="geometry color_newnot_possible" stroke-dasharray="none" stroke="#808080" id="img-d2147f7b-14">
        <path fill="none" d="M21.63,43.72 L 21.75 43.72 21.87 43.72 21.99 43.72 22.11 43.72 22.23 43.72 22.35 43.72 22.46 43.72 22.7 43.72 22.82 43.72 23.06 43.72 23.3 43.72 23.42 43.72 23.66 43.72 23.77 43.72 24.61 43.72 24.96 43.72 25.2 43.72 26.04 43.78 26.15 43.78 26.27 43.78 26.39 43.78 26.51 43.78 26.63 43.72 26.75 43.72 26.87 43.72 26.99 43.72 27.11 43.59 27.23 43.59 27.35 43.59 27.58 43.53 27.7 43.97 27.82 43.97 27.94 43.97 28.06 43.97 28.18 43.97 28.3 43.97 28.42 43.97 28.54 43.97 28.65 43.97 28.77 43.97 28.89 43.97 29.01 43.97 29.13 43.97 29.25 43.97 29.37 43.97 29.49 43.97 30.2 43.66 30.32 43.59 30.44 43.59 30.56 43.59 30.68 43.59 30.8 43.53 30.92 43.41 31.04 43.41 31.15 43.41 31.27 43.41 31.51 43.41 31.63 43.41 31.75 43.41 31.87 43.41 31.99 43.41 32.11 43.41 32.23 43.41 32.34 43.41 32.58 43.41 32.7 43.41 32.82 43.41 32.94 43.41 33.06 43.41 33.18 43.41 33.42 43.41 33.54 43.41 33.65 43.41 33.77 43.41 34.01 43.41 34.25 43.41 34.37 43.41 34.49 43.41 34.61 43.41 34.96 43.41 35.08 43.41 35.2 43.41 35.32 43.41 35.44 43.41 35.56 43.41 35.68 43.34 35.8 43.34 36.03 43.34 36.15 43.34 36.39 43.34 36.51 43.34 36.63 43.34 36.75 43.34 36.99 43.34 37.11 43.34 37.23 43.34 37.34 43.34 37.46 43.34 37.58 43.34 37.7 43.34 37.82 43.34 37.94 43.28 38.06 43.22 38.18 43.22 38.3 43.22 38.42 43.22 38.65 43.22 38.77 43.22 38.89 43.22 39.01 43.22 39.13 43.22 39.25 43.22 39.37 43.22 39.49 43.22 39.72 43.22 39.84 43.16 40.08 43.16 40.2 43.16 40.32 43.1 40.8 43.1 41.15 43.1 41.27 43.1 41.39 43.1 41.51 43.1 41.63 43.1 41.75 43.1 41.87 43.1 41.99 43.1 42.11 43.1 42.34 43.03 42.46 43.03 42.58 43.03 42.7 43.03 42.82 43.03 42.94 43.03 43.06 42.97 43.3 42.97 43.42 42.97 43.53 42.97 43.65 42.97 43.77 42.79 43.89 42.91 44.01 42.91 44.13 42.91 44.49 42.91 44.61 42.85 44.72 42.85 44.84 42.85 44.96 42.85 45.08 42.85 45.2 42.85 45.32 42.85 45.44 42.85 45.56 42.85 45.68 42.79 45.8 42.79 45.91 42.79 46.03 42.79 46.15 42.79 46.27 42.79 46.39 42.79 46.51 42.79 46.63 42.79 46.75 42.79 46.87 42.79 46.99 42.79 47.11 42.79 47.22 42.79 47.34 42.79 47.46 42.79 47.58 42.79 47.7 42.79 47.82 42.79 47.94 42.79 48.3 42.79 48.89 42.79 49.01 42.79 49.13 42.79 49.25 42.79 49.37 42.79 49.49 42.79 49.6 42.79 50.08 42.79 50.2 42.79 50.8 42.79 51.03 42.79 51.15 42.85 51.27 42.85 51.39 42.85 51.51 42.85 51.63 42.85 51.75 42.85 52.1 42.85 52.22 42.85 52.46 42.85 52.58 42.85 52.7 42.85 53.06 42.85 53.29 42.85 53.65 42.85 54.13 42.85 54.37 42.85 54.72 42.85 55.56 42.85 56.03 42.85 56.15 42.72 56.27 42.72 56.39 42.66 56.51 42.66 56.63 42.66 56.87 42.66 56.99 42.66 57.1 42.66 57.22 42.66 57.34 42.66 57.46 42.66 57.58 42.66 57.82 42.6 57.94 42.6 58.06 42.6 58.53 42.6 58.65 42.6 58.77 42.6 59.01 42.6 59.25 42.6 59.37 42.6 59.72 42.6 60.32 42.6 60.91 42.6 61.51 42.6 61.63 42.6 61.75 42.6 61.87 42.16 61.98 42.23 62.22 42.16 62.46 42.16 62.94 42.16 63.06 42.16 63.17 42.16 63.29 42.16 63.41 42.16 63.53 42.23 63.65 42.16 65.08 42.1 65.32 42.04 65.44 42.04 65.67 42.04 66.15 42.04 66.39 42.04 66.63 42.04 67.1 42.04 67.34 42.04 67.46 42.04 67.7 42.04 67.82 42.04 67.94 42.04 68.06 42.04 68.17 42.04 68.29 42.04 68.53 42.04 68.65 42.04 68.89 42.04 69.13 42.04 69.25 42.04 69.36 42.04 69.6 42.04 69.72 42.04 70.32 42.04 70.79 42.1 70.91 42.04 71.86 42.04 71.98 41.91 72.1 41.91 72.46 41.91 72.58 41.91 72.7 41.98 72.94 41.98 73.17 41.98 73.41 41.98 74.48 41.98"/>
      </g>
      <g stroke-width="0.3" fill="#000000" fill-opacity="0.000" class="geometry color_newtests_fail" stroke-dasharray="none" stroke="#FF0000" id="img-d2147f7b-15">
        <path fill="none" d="M21.63,43.22 L 21.75 43.22 21.87 42.29 21.99 43.28 22.11 43.22 22.23 42.23 22.35 42.23 22.46 42.23 22.7 43.22 22.82 43.22 23.06 43.28 23.3 43.28 23.42 43.28 23.66 43.34 23.77 43.34 24.61 43.41 24.96 43.41 25.2 43.41 26.04 43.34 26.15 43.41 26.27 43.28 26.39 43.28 26.51 43.34 26.63 43.41 26.75 43.34 26.87 43.34 26.99 43.34 27.11 43.41 27.23 43.41 27.35 43.28 27.58 43.34 27.7 43.22 27.82 43.34 27.94 43.47 28.06 43.47 28.18 43.53 28.3 43.53 28.42 43.47 28.54 43.53 28.65 43.53 28.77 43.53 28.89 43.59 29.01 43.59 29.13 44.09 29.25 43.84 29.37 43.84 29.49 43.84 30.2 44.22 30.32 44.28 30.44 44.28 30.56 44.28 30.68 44.22 30.8 44.28 30.92 44.28 31.04 44.28 31.15 44.22 31.27 43.03 31.51 44.22 31.63 44.28 31.75 44.28 31.87 44.28 31.99 44.28 32.11 44.28 32.23 44.28 32.34 44.28 32.58 44.28 32.7 44.28 32.82 44.22 32.94 44.22 33.06 44.22 33.18 44.22 33.42 44.22 33.54 44.09 33.65 44.09 33.77 44.09 34.01 43.97 34.25 42.72 34.37 42.66 34.49 43.97 34.61 43.9 34.96 44.03 35.08 44.03 35.2 44.03 35.32 44.03 35.44 44.09 35.56 44.15 35.68 44.15 35.8 44.15 36.03 44.15 36.15 44.22 36.39 44.15 36.51 44.22 36.63 44.22 36.75 44.22 36.99 44.22 37.11 44.22 37.23 44.09 37.34 44.15 37.46 44.15 37.58 44.09 37.7 44.09 37.82 43.97 37.94 44.03 38.06 44.15 38.18 42.41 38.3 42.79 38.42 42.79 38.65 44.22 38.77 44.28 38.89 44.22 39.01 44.28 39.13 44.22 39.25 44.22 39.37 44.34 39.49 44.15 39.72 44.4 39.84 44.46 40.08 44.34 40.2 44.34 40.32 44.4 40.8 44.4 41.15 44.71 41.27 44.71 41.39 44.71 41.51 44.78 41.63 44.84 41.75 44.84 41.87 44.84 41.99 44.84 42.11 44.84 42.34 44.71 42.46 44.71 42.58 44.65 42.7 44.71 42.82 44.65 42.94 44.53 43.06 44.59 43.3 44.65 43.42 44.71 43.53 44.71 43.65 44.65 43.77 44.59 43.89 44.65 44.01 44.71 44.13 44.71 44.49 44.71 44.61 44.71 44.72 44.71 44.84 44.78 44.96 44.78 45.08 44.78 45.2 44.78 45.32 44.78 45.44 44.65 45.56 44.59 45.68 44.59 45.8 44.46 45.91 44.59 46.03 44.59 46.15 44.59 46.27 44.59 46.39 44.59 46.51 44.53 46.63 44.59 46.75 44.53 46.87 44.59 46.99 44.53 47.11 44.59 47.22 44.59 47.34 44.59 47.46 44.65 47.58 44.65 47.7 44.71 47.82 44.71 47.94 44.53 48.3 44.78 48.89 44.71 49.01 44.71 49.13 44.71 49.25 44.78 49.37 44.84 49.49 44.71 49.6 44.71 50.08 44.65 50.2 44.71 50.8 44.71 51.03 44.71 51.15 44.34 51.27 44.53 51.39 44.71 51.51 44.71 51.63 44.71 51.75 44.65 52.1 44.59 52.22 44.59 52.46 44.53 52.58 44.59 52.7 44.59 53.06 44.59 53.29 44.65 53.65 44.65 54.13 44.65 54.37 44.65 54.72 44.65 55.56 44.59 56.03 44.46 56.15 44.59 56.27 44.59 56.39 44.34 56.51 44.34 56.63 44.4 56.87 44.4 56.99 44.34 57.1 44.34 57.22 44.28 57.34 44.34 57.46 44.34 57.58 44.34 57.82 44.34 57.94 44.34 58.06 44.34 58.53 44.15 58.65 44.15 58.77 44.15 59.01 44.09 59.25 44.03 59.37 44.03 59.72 44.03 60.32 44.03 60.91 44.09 61.51 42.29 61.63 42.91 61.75 43.34 61.87 44.09 61.98 44.09 62.22 44.09 62.46 44.09 62.94 44.09 63.06 44.03 63.17 44.03 63.29 44.03 63.41 44.03 63.53 44.03 63.65 43.97 65.08 43.9 65.32 43.97 65.44 44.09 65.67 44.09 66.15 43.97 66.39 44.09 66.63 44.03 67.1 44.03 67.34 44.03 67.46 43.97 67.7 43.84 67.82 43.84 67.94 43.84 68.06 43.9 68.17 43.78 68.29 43.78 68.53 43.78 68.65 43.84 68.89 43.78 69.13 43.78 69.25 43.66 69.36 43.66 69.6 43.72 69.72 43.66 70.32 43.59 70.79 43.47 70.91 43.47 71.86 43.22 71.98 43.22 72.1 43.22 72.46 43.22 72.58 43.22 72.7 43.28 72.94 43.34 73.17 43.28 73.41 43.28 74.48 43.41"/>
      </g>
      <g stroke-width="0.3" fill="#000000" fill-opacity="0.000" class="geometry color_newno_tests" stroke-dasharray="none" stroke="#0000FF" id="img-d2147f7b-16">
        <path fill="none" d="M21.63,42.35 L 21.75 42.35 21.87 42.35 21.99 42.35 22.11 42.35 22.23 42.41 22.35 42.41 22.46 42.35 22.7 42.29 22.82 42.29 23.06 42.29 23.3 42.16 23.42 42.16 23.66 42.16 23.77 42.16 24.61 42.16 24.96 42.16 25.2 42.16 26.04 42.1 26.15 42.1 26.27 42.1 26.39 42.1 26.51 42.1 26.63 42.1 26.75 42.1 26.87 42.1 26.99 42.1 27.11 42.23 27.23 42.23 27.35 42.23 27.58 42.29 27.7 42.29 27.82 42.29 27.94 42.23 28.06 42.23 28.18 42.35 28.3 42.41 28.42 42.41 28.54 42.41 28.65 42.41 28.77 42.41 28.89 42.41 29.01 42.41 29.13 42.16 29.25 42.23 29.37 42.23 29.49 42.23 30.2 42.23 30.32 42.23 30.44 42.23 30.56 42.29 30.68 42.29 30.8 42.29 30.92 42.29 31.04 42.35 31.15 42.35 31.27 42.54 31.51 42.47 31.63 42.35 31.75 42.35 31.87 42.35 31.99 42.35 32.11 42.35 32.23 42.35 32.34 42.35 32.58 42.41 32.7 42.35 32.82 42.35 32.94 42.35 33.06 42.47 33.18 42.47 33.42 42.47 33.54 42.47 33.65 42.47 33.77 42.47 34.01 42.35 34.25 42.54 34.37 42.47 34.49 42.41 34.61 42.41 34.96 42.41 35.08 42.41 35.2 42.41 35.32 42.41 35.44 42.47 35.56 42.47 35.68 42.47 35.8 42.54 36.03 42.54 36.15 42.54 36.39 42.54 36.51 42.54 36.63 42.54 36.75 42.54 36.99 42.41 37.11 42.47 37.23 42.47 37.34 42.41 37.46 42.41 37.58 42.41 37.7 42.41 37.82 42.41 37.94 42.41 38.06 42.41 38.18 42.79 38.3 42.79 38.42 42.79 38.65 42.35 38.77 42.35 38.89 42.41 39.01 42.41 39.13 42.47 39.25 42.41 39.37 42.41 39.49 42.47 39.72 42.85 39.84 42.91 40.08 42.91 40.2 42.91 40.32 42.91 40.8 42.91 41.15 42.85 41.27 42.85 41.39 42.79 41.51 42.79 41.63 42.79 41.75 42.85 41.87 42.85 41.99 42.91 42.11 42.91 42.34 42.91 42.46 42.85 42.58 42.85 42.7 42.85 42.82 42.85 42.94 42.91 43.06 42.91 43.3 42.85 43.42 42.85 43.53 42.85 43.65 42.85 43.77 42.6 43.89 42.85 44.01 42.85 44.13 42.85 44.49 42.91 44.61 42.91 44.72 42.85 44.84 42.85 44.96 42.85 45.08 42.85 45.2 42.85 45.32 42.85 45.44 42.85 45.56 42.85 45.68 42.85 45.8 42.91 45.91 42.85 46.03 42.85 46.15 42.85 46.27 42.85 46.39 42.85 46.51 42.91 46.63 42.85 46.75 42.91 46.87 42.85 46.99 42.85 47.11 42.85 47.22 42.85 47.34 42.85 47.46 42.85 47.58 42.85 47.7 42.85 47.82 42.85 47.94 42.85 48.3 42.85 48.89 42.85 49.01 42.85 49.13 42.85 49.25 42.85 49.37 42.85 49.49 42.85 49.6 42.85 50.08 42.91 50.2 42.85 50.8 42.85 51.03 42.85 51.15 42.85 51.27 42.91 51.39 42.85 51.51 42.85 51.63 42.85 51.75 42.91 52.1 42.85 52.22 42.85 52.46 42.85 52.58 42.79 52.7 42.79 53.06 42.85 53.29 42.79 53.65 42.79 54.13 42.85 54.37 42.79 54.72 42.79 55.56 42.79 56.03 42.79 56.15 42.79 56.27 42.79 56.39 42.85 56.51 42.79 56.63 42.79 56.87 42.79 56.99 42.85 57.1 42.85 57.22 42.85 57.34 42.79 57.46 42.79 57.58 42.79 57.82 42.79 57.94 42.79 58.06 42.79 58.53 42.79 58.65 42.79 58.77 42.79 59.01 42.79 59.25 42.79 59.37 42.79 59.72 42.79 60.32 42.79 60.91 42.79 61.51 42.97 61.63 42.91 61.75 42.91 61.87 42.91 61.98 42.85 62.22 42.85 62.46 42.85 62.94 42.85 63.06 42.85 63.17 42.91 63.29 42.91 63.41 42.91 63.53 42.91 63.65 42.91 65.08 42.97 65.32 42.97 65.44 42.97 65.67 43.03 66.15 43.03 66.39 43.03 66.63 43.03 67.1 43.03 67.34 43.03 67.46 43.03 67.7 43.03 67.82 43.03 67.94 43.03 68.06 43.03 68.17 43.03 68.29 43.03 68.53 43.03 68.65 43.03 68.89 43.1 69.13 43.03 69.25 43.03 69.36 43.03 69.6 43.1 69.72 43.03 70.32 43.1 70.79 43.1 70.91 43.1 71.86 43.1 71.98 43.1 72.1 43.1 72.46 43.16 72.58 43.16 72.7 43.1 72.94 43.1 73.17 43.1 73.41 43.16 74.48 43.1"/>
      </g>
      <g stroke-width="0.3" fill="#000000" fill-opacity="0.000" class="geometry color_oldfull_fail" stroke-dasharray="none" stroke="#FFA500" id="img-d2147f7b-17">
        <path fill="none" d="M21.63,43.16 L 21.75 43.16 21.87 43.59 21.99 42.91 22.11 42.97 22.23 43.47 22.35 43.34 22.46 43.47 22.7 42.6 22.82 42.6 23.06 42.54 23.3 42.79 23.42 42.66 23.66 42.85 23.77 42.79 24.61 42.91 24.96 42.91 25.2 42.91 26.04 42.85 26.15 42.72 26.27 42.1 26.39 42.1 26.51 42.41 26.63 42.41 26.75 42.6 26.87 42.6 26.99 42.6 27.11 42.85 27.23 42.85 27.35 43.16 27.58 43.16 27.7 43.1 27.82 42.97 27.94 43.03 28.06 43.03 28.18 43.16 28.3 43.16 28.42 43.16 28.54 43.03 28.65 43.28 28.77 43.22 28.89 43.16 29.01 43.03 29.13 45.71 29.25 43.28 29.37 42.97 29.49 43.1 30.2 42.97 30.32 43.22 30.44 43.47 30.56 43.47 30.68 43.41 30.8 43.66 30.92 43.59 31.04 43.59 31.15 43.66 31.27 43.84 31.51 43.53 31.63 43.59 31.75 43.72 31.87 43.59 31.99 43.72 32.11 43.72 32.23 43.47 32.34 43.53 32.58 43.78 32.7 43.78 32.82 43.78 32.94 43.72 33.06 43.66 33.18 43.78 33.42 43.78 33.54 43.84 33.65 43.9 33.77 43.9 34.01 43.78 34.25 43.34 34.37 43.66 34.49 43.59 34.61 43.59 34.96 43.59 35.08 43.59 35.2 43.41 35.32 43.53 35.44 43.47 35.56 43.47 35.68 43.59 35.8 43.53 36.03 43.59 36.15 43.66 36.39 43.66 36.51 43.66 36.63 43.66 36.75 43.66 36.99 43.66 37.11 43.66 37.23 43.66 37.34 43.59 37.46 43.59 37.58 43.53 37.7 43.66 37.82 43.53 37.94 43.47 38.06 43.47 38.18 43.34 38.3 43.28 38.42 43.34 38.65 43.22 38.77 43.28 38.89 43.47 39.01 43.28 39.13 43.28 39.25 43.34 39.37 43.16 39.49 43.22 39.72 43.53 39.84 43.47 40.08 43.47 40.2 43.47 40.32 43.47 40.8 43.47 41.15 43.41 41.27 43.34 41.39 43.41 41.51 43.28 41.63 43.28 41.75 43.47 41.87 43.16 41.99 43.1 42.11 43.1 42.34 43.16 42.46 43.28 42.58 43.22 42.7 43.28 42.82 43.28 42.94 43.16 43.06 43.28 43.3 43.41 43.42 43.41 43.53 43.41 43.65 43.41 43.77 43.22 43.89 43.47 44.01 43.47 44.13 43.47 44.49 43.1 44.61 43.28 44.72 43.28 44.84 43.41 44.96 43.28 45.08 43.41 45.2 43.41 45.32 43.34 45.44 43.34 45.56 43.28 45.68 43.47 45.8 43.41 45.91 43.34 46.03 43.41 46.15 43.41 46.27 43.34 46.39 43.47 46.51 43.28 46.63 43.28 46.75 43.41 46.87 43.34 46.99 43.28 47.11 43.28 47.22 43.28 47.34 43.22 47.46 43.28 47.58 43.41 47.7 43.22 47.82 43.28 47.94 43.28 48.3 43.16 48.89 43.16 49.01 43.03 49.13 43.03 49.25 42.91 49.37 42.97 49.49 43.16 49.6 43.16 50.08 43.1 50.2 43.1 50.8 42.97 51.03 42.97 51.15 42.72 51.27 42.85 51.39 42.91 51.51 43.03 51.63 43.03 51.75 42.91 52.1 42.79 52.22 42.79 52.46 42.72 52.58 42.54 52.7 42.85 53.06 42.79 53.29 42.91 53.65 42.85 54.13 42.72 54.37 42.85 54.72 42.6 55.56 42.47 56.03 42.54 56.15 42.54 56.27 42.54 56.39 42.23 56.51 42.1 56.63 42.04 56.87 42.16 56.99 42.16 57.1 42.16 57.22 42.1 57.34 41.91 57.46 42.23 57.58 42.23 57.82 42.23 57.94 42.23 58.06 42.29 58.53 42.1 58.65 42.23 58.77 42.04 59.01 42.47 59.25 42.47 59.37 42.41 59.72 42.29 60.32 42.29 60.91 42.35 61.51 41.85 61.63 41.6 61.75 41.67 61.87 41.6 61.98 41.91 62.22 41.85 62.46 41.91 62.94 41.67 63.06 41.73 63.17 41.91 63.29 41.79 63.41 41.85 63.53 41.73 63.65 41.91 65.08 41.85 65.32 41.91 65.44 41.73 65.67 41.91 66.15 42.04 66.39 41.98 66.63 41.67 67.1 41.85 67.34 41.73 67.46 42.23 67.7 42.35 67.82 42.16 67.94 42.23 68.06 42.1 68.17 42.16 68.29 42.41 68.53 42.23 68.65 42.16 68.89 42.35 69.13 42.29 69.25 42.16 69.36 42.29 69.6 42.16 69.72 42.1 70.32 41.91 70.79 42.1 70.91 42.1 71.86 42.16 71.98 42.23 72.1 42.16 72.46 42.41 72.58 42.41 72.7 42.35 72.94 42.04 73.17 42.16 73.41 42.1 74.48 42.23"/>
      </g>
      <g stroke-width="0.3" fill="#000000" fill-opacity="0.000" class="geometry color_newtests_pass" stroke-dasharray="none" stroke="#008000" id="img-d2147f7b-18">
        <path fill="none" d="M21.63,37.69 L 21.75 37.69 21.87 38.12 21.99 37.81 22.11 37.81 22.23 38.25 22.35 38.37 22.46 38.25 22.7 38.18 22.82 38.12 23.06 38.06 23.3 37.81 23.42 37.93 23.66 37.69 23.77 37.69 24.61 37.25 24.96 37.25 25.2 37.25 26.04 37.31 26.15 37.25 26.27 37.93 26.39 37.93 26.51 37.56 26.63 37.56 26.75 37.44 26.87 37.44 26.99 37.44 27.11 37.13 27.23 37.13 27.35 36.75 27.58 36.63 27.7 36.38 27.82 36.38 27.94 36.13 28.06 36.13 28.18 35.82 28.3 35.7 28.42 35.76 28.54 35.82 28.65 35.57 28.77 35.63 28.89 35.57 29.01 35.7 29.13 35.26 29.25 35.32 29.37 35.57 29.49 35.38 30.2 35.07 30.32 34.76 30.44 34.45 30.56 34.33 30.68 34.33 30.8 34.08 30.92 34.14 31.04 34.08 31.15 34.02 31.27 34.76 31.51 33.95 31.63 33.83 31.75 33.71 31.87 33.83 31.99 33.71 32.11 33.71 32.23 33.77 32.34 33.71 32.58 33.33 32.7 33.27 32.82 33.27 32.94 33.27 33.06 33.21 33.18 32.96 33.42 32.9 33.54 32.77 33.65 32.71 33.77 32.71 34.01 32.77 34.25 34.08 34.37 33.89 34.49 32.65 34.61 32.71 34.96 32.52 35.08 32.52 35.2 32.65 35.32 32.52 35.44 32.46 35.56 32.34 35.68 32.21 35.8 32.15 36.03 32.09 36.15 31.96 36.39 32.03 36.51 31.9 36.63 31.71 36.75 31.71 36.99 31.78 37.11 31.71 37.23 31.71 37.34 31.71 37.46 31.65 37.58 31.71 37.7 31.53 37.82 31.65 37.94 31.71 38.06 31.59 38.18 33.02 38.3 32.71 38.42 32.65 38.65 31.59 38.77 31.47 38.89 31.22 39.01 31.34 39.13 31.34 39.25 31.16 39.37 31.16 39.49 31.16 39.72 30.97 39.84 30.78 40.08 30.78 40.2 30.78 40.32 30.78 40.8 30.78 41.15 30.22 41.27 30.22 41.39 30.16 41.51 30.1 41.63 30.04 41.75 29.79 41.87 29.6 41.99 29.6 42.11 29.6 42.34 29.72 42.46 29.6 42.58 29.66 42.7 29.54 42.82 29.6 42.94 29.72 43.06 29.6 43.3 29.54 43.42 29.41 43.53 29.41 43.65 29.35 43.77 28.79 43.89 29.23 44.01 29.16 44.13 29.04 44.49 29.23 44.61 29.1 44.72 29.04 44.84 28.79 44.96 28.92 45.08 28.79 45.2 28.67 45.32 28.73 45.44 28.79 45.56 28.85 45.68 28.73 45.8 28.85 45.91 28.85 46.03 28.73 46.15 28.61 46.27 28.67 46.39 28.54 46.51 28.67 46.63 28.67 46.75 28.48 46.87 28.54 46.99 28.54 47.11 28.42 47.22 28.42 47.34 28.42 47.46 28.29 47.58 28.17 47.7 28.23 47.82 28.17 47.94 28.29 48.3 28.17 48.89 27.92 49.01 27.92 49.13 27.92 49.25 27.92 49.37 27.8 49.49 27.55 49.6 27.55 50.08 27.3 50.2 27.3 50.8 27.36 51.03 27.36 51.15 27.86 51.27 27.42 51.39 27.24 51.51 27.11 51.63 26.99 51.75 27.05 52.1 27.17 52.22 27.11 52.46 27.05 52.58 27.17 52.7 26.86 53.06 26.86 53.29 26.61 53.65 26.55 54.13 26.49 54.37 26.24 54.72 26.24 55.56 26.06 56.03 25.68 56.15 25.56 56.27 25.56 56.39 25.81 56.51 25.99 56.63 25.99 56.87 25.87 56.99 25.74 57.1 25.74 57.22 25.68 57.34 25.81 57.46 25.5 57.58 25.5 57.82 25.37 57.94 25.25 58.06 25.12 58.53 25 58.65 25 58.77 25.18 59.01 24.62 59.25 24.5 59.37 24.56 59.72 24.56 60.32 24.56 60.91 24.07 61.51 25.93 61.63 25.62 61.75 25.12 61.87 24.75 61.98 24.44 62.22 24.56 62.46 24.5 62.94 24.62 63.06 24.5 63.17 24.19 63.29 24.31 63.41 24.13 63.53 24.25 63.65 24.07 65.08 24.13 65.32 24.07 65.44 23.94 65.67 23.69 66.15 23.63 66.39 23.57 66.63 23.75 67.1 23.57 67.34 23.57 67.46 23.07 67.7 22.76 67.82 22.95 67.94 22.82 68.06 22.7 68.17 22.76 68.29 22.45 68.53 22.57 68.65 22.51 68.89 22.32 69.13 22.32 69.25 22.39 69.36 22.2 69.6 22.07 69.72 22.2 70.32 22.14 70.79 21.89 70.91 21.83 71.86 21.76 71.98 21.83 72.1 21.89 72.46 21.39 72.58 21.33 72.7 21.27 72.94 21.39 73.17 21.33 73.41 21.27 74.48 20.77"/>
      </g>
    </g>
  </g>
</g>
  <g class="guide ylabels" font-size="2.82" font-family="'PT Sans Caption','Helvetica Neue','Helvetica',sans-serif" fill="#6C606B" id="img-d2147f7b-19">
    <text x="18.63" y="45.71" text-anchor="end" dy="0.35em">0</text>
    <text x="18.63" y="39.49" text-anchor="end" dy="0.35em">100</text>
    <text x="18.63" y="33.27" text-anchor="end" dy="0.35em">200</text>
    <text x="18.63" y="27.05" text-anchor="end" dy="0.35em">300</text>
    <text x="18.63" y="20.83" text-anchor="end" dy="0.35em">400</text>
    <text x="18.63" y="14.61" text-anchor="end" dy="0.35em">500</text>
  </g>
  <g font-size="3.88" font-family="'PT Sans','Helvetica Neue','Helvetica',sans-serif" fill="#564A55" stroke="#000000" stroke-opacity="0.000" id="img-d2147f7b-20">
    <text x="8.81" y="28.16" text-anchor="middle" dy="0.35em" transform="rotate(-90, 8.81, 30.16)">Number of Packages</text>
  </g>
  <g font-size="3.88" font-family="'PT Sans','Helvetica Neue','Helvetica',sans-serif" fill="#564A55" stroke="#000000" stroke-opacity="0.000" id="img-d2147f7b-21">
    <text x="58.12" y="10.61" text-anchor="middle">Julia v0.3</text>
  </g>
</g>
<defs>
  <clipPath id="img-d2147f7b-4">
  <path d="M19.63,12.61 L 96.6 12.61 96.6 47.71 19.63 47.71" />
</clipPath>
</defs>
</svg>
