<?xml version="1.0" encoding="UTF-8"?>
<svg xmlns="http://www.w3.org/2000/svg"
     xmlns:xlink="http://www.w3.org/1999/xlink"
     xmlns:gadfly="http://www.gadflyjl.org/ns"
     version="1.2"
     width="101.6mm" height="76.2mm" viewBox="0 0 101.6 76.2"
     stroke="none"
     fill="#000000"
     stroke-width="0.3"
     font-size="3.88"
>
<g class="plotroot xscalable yscalable" id="fig-235a9965ade549518d501d70efb7cf34-element-1">
  <g font-size="3.88" font-family="'PT Sans','Helvetica Neue','Helvetica',sans-serif" fill="#564A55" stroke="#000000" stroke-opacity="0.000" id="fig-235a9965ade549518d501d70efb7cf34-element-2">
    <text x="58.12" y="64.59" text-anchor="middle" dy="0.6em">Date</text>
  </g>
  <g class="guide xlabels" font-size="2.82" font-family="'PT Sans Caption','Helvetica Neue','Helvetica',sans-serif" fill="#6C606B" id="fig-235a9965ade549518d501d70efb7cf34-element-3">
    <text x="21.88" y="48.71" text-anchor="end" dy="0.35em" transform="rotate(-90, 21.88, 48.71)">Apr</text>
    <text x="25.56" y="48.71" text-anchor="end" dy="0.35em" transform="rotate(-90, 25.56, 48.71)">May</text>
    <text x="29.37" y="48.71" text-anchor="end" dy="0.35em" transform="rotate(-90, 29.37, 48.71)">Jun</text>
    <text x="33.06" y="48.71" text-anchor="end" dy="0.35em" transform="rotate(-90, 33.06, 48.71)">Jul</text>
    <text x="36.86" y="48.71" text-anchor="end" dy="0.35em" transform="rotate(-90, 36.86, 48.71)">Aug</text>
    <text x="40.67" y="48.71" text-anchor="end" dy="0.35em" transform="rotate(-90, 40.67, 48.71)">Sep</text>
    <text x="44.36" y="48.71" text-anchor="end" dy="0.35em" transform="rotate(-90, 44.36, 48.71)">Oct</text>
    <text x="48.17" y="48.71" text-anchor="end" dy="0.35em" transform="rotate(-90, 48.17, 48.71)">Nov</text>
    <text x="51.85" y="48.71" text-anchor="end" dy="0.35em" transform="rotate(-90, 51.85, 48.71)">Dec</text>
    <text x="55.66" y="48.71" text-anchor="end" dy="0.35em" transform="rotate(-90, 55.66, 48.71)">Jan 2015</text>
    <text x="59.47" y="48.71" text-anchor="end" dy="0.35em" transform="rotate(-90, 59.47, 48.71)">Feb</text>
    <text x="62.91" y="48.71" text-anchor="end" dy="0.35em" transform="rotate(-90, 62.91, 48.71)">Mar</text>
    <text x="66.71" y="48.71" text-anchor="end" dy="0.35em" transform="rotate(-90, 66.71, 48.71)">Apr</text>
    <text x="70.4" y="48.71" text-anchor="end" dy="0.35em" transform="rotate(-90, 70.4, 48.71)">May</text>
    <text x="74.21" y="48.71" text-anchor="end" dy="0.35em" transform="rotate(-90, 74.21, 48.71)">Jun</text>
    <text x="77.89" y="48.71" text-anchor="end" dy="0.35em" transform="rotate(-90, 77.89, 48.71)">Jul</text>
    <text x="81.7" y="48.71" text-anchor="end" dy="0.35em" transform="rotate(-90, 81.7, 48.71)">Aug</text>
    <text x="85.51" y="48.71" text-anchor="end" dy="0.35em" transform="rotate(-90, 85.51, 48.71)">Sep</text>
    <text x="89.19" y="48.71" text-anchor="end" dy="0.35em" transform="rotate(-90, 89.19, 48.71)">Oct</text>
    <text x="93" y="48.71" text-anchor="end" dy="0.35em" transform="rotate(-90, 93, 48.71)">Nov</text>
  </g>
  <g clip-path="url(#fig-235a9965ade549518d501d70efb7cf34-element-5)" id="fig-235a9965ade549518d501d70efb7cf34-element-4">
    <g pointer-events="visible" opacity="1" fill="#000000" fill-opacity="0.000" stroke="#000000" stroke-opacity="0.000" class="guide background" id="fig-235a9965ade549518d501d70efb7cf34-element-6">
      <rect x="19.63" y="12.61" width="76.97" height="35.1"/>
    </g>
    <g class="guide ygridlines xfixed" stroke-dasharray="0.5,0.5" stroke-width="0.2" stroke="#D0D0E0" id="fig-235a9965ade549518d501d70efb7cf34-element-7">
      <path fill="none" d="M19.63,45.71 L 96.6 45.71"/>
      <path fill="none" d="M19.63,39.49 L 96.6 39.49"/>
      <path fill="none" d="M19.63,33.27 L 96.6 33.27"/>
      <path fill="none" d="M19.63,27.05 L 96.6 27.05"/>
      <path fill="none" d="M19.63,20.83 L 96.6 20.83"/>
      <path fill="none" d="M19.63,14.61 L 96.6 14.61"/>
    </g>
    <g class="guide xgridlines yfixed" stroke-dasharray="0.5,0.5" stroke-width="0.2" stroke="#D0D0E0" id="fig-235a9965ade549518d501d70efb7cf34-element-8">
      <path fill="none" d="M21.88,12.61 L 21.88 47.71"/>
      <path fill="none" d="M25.56,12.61 L 25.56 47.71"/>
      <path fill="none" d="M29.37,12.61 L 29.37 47.71"/>
      <path fill="none" d="M33.06,12.61 L 33.06 47.71"/>
      <path fill="none" d="M36.86,12.61 L 36.86 47.71"/>
      <path fill="none" d="M40.67,12.61 L 40.67 47.71"/>
      <path fill="none" d="M44.36,12.61 L 44.36 47.71"/>
      <path fill="none" d="M48.17,12.61 L 48.17 47.71"/>
      <path fill="none" d="M51.85,12.61 L 51.85 47.71"/>
      <path fill="none" d="M55.66,12.61 L 55.66 47.71"/>
      <path fill="none" d="M59.47,12.61 L 59.47 47.71"/>
      <path fill="none" d="M62.91,12.61 L 62.91 47.71"/>
      <path fill="none" d="M66.71,12.61 L 66.71 47.71"/>
      <path fill="none" d="M70.4,12.61 L 70.4 47.71"/>
      <path fill="none" d="M74.21,12.61 L 74.21 47.71"/>
      <path fill="none" d="M77.89,12.61 L 77.89 47.71"/>
      <path fill="none" d="M81.7,12.61 L 81.7 47.71"/>
      <path fill="none" d="M85.51,12.61 L 85.51 47.71"/>
      <path fill="none" d="M89.19,12.61 L 89.19 47.71"/>
      <path fill="none" d="M93,12.61 L 93 47.71"/>
    </g>
    <g class="plotpanel" id="fig-235a9965ade549518d501d70efb7cf34-element-9">
      <g stroke-width="0.3" fill="#000000" fill-opacity="0.000" class="geometry color_newnot_possible" stroke-dasharray="none" stroke="#808080" id="fig-235a9965ade549518d501d70efb7cf34-element-10">
        <path fill="none" d="M76.54,42.41 L 76.67 42.41 76.79 42.41 76.91 42.41 77.03 42.41 77.16 42.41 77.28 42.41 77.4 42.41 77.77 42.41 78.02 42.41 78.26 42.47 78.38 42.41 78.51 42.41 78.63 42.41 78.75 42.41 78.88 42.41 80.96 42.35 81.95 42.35 83.05 42.35 85.14 42.35 85.51 42.35 86.12 42.16 86.74 41.98 88.7 41.98 89.19 41.98 89.81 41.98 90.3 41.98 90.79 41.98 91.16 41.91 92.63 41.91 94.11 41.85 94.6 41.85"/>
      </g>
      <g stroke-width="0.3" fill="#000000" fill-opacity="0.000" class="geometry color_newno_tests" stroke-dasharray="none" stroke="#0000FF" id="fig-235a9965ade549518d501d70efb7cf34-element-11">
        <path fill="none" d="M76.54,39.05 L 76.67 39.05 76.79 39.05 76.91 39.05 77.03 39.05 77.16 39.05 77.28 39.05 77.4 39.05 77.77 39.05 78.02 39.05 78.26 39.05 78.38 39.05 78.51 39.12 78.63 39.12 78.75 39.12 78.88 39.18 80.96 39.12 81.95 39.12 83.05 39.12 85.14 39.12 85.51 39.18 86.12 39.18 86.74 39.24 88.7 39.43 89.19 39.61 89.81 39.74 90.3 39.74 90.79 39.74 91.16 39.8 92.63 39.86 94.11 39.99 94.6 39.99"/>
      </g>
      <g stroke-width="0.3" fill="#000000" fill-opacity="0.000" class="geometry color_newtests_fail" stroke-dasharray="none" stroke="#FF0000" id="fig-235a9965ade549518d501d70efb7cf34-element-12">
        <path fill="none" d="M76.54,42.23 L 76.67 42.04 76.79 41.98 76.91 41.91 77.03 41.79 77.16 41.98 77.28 41.73 77.4 41.91 77.77 41.79 78.02 41.73 78.26 41.67 78.38 41.85 78.51 39.86 78.63 41.73 78.75 41.35 78.88 41.42 80.96 41.67 81.95 41.73 83.05 41.23 85.14 40.17 85.51 40.48 86.12 40.86 86.74 41.17 88.7 41.11 89.19 40.8 89.81 41.04 90.3 41.11 90.79 40.92 91.16 40.92 92.63 40.8 94.11 40.67 94.6 41.11"/>
      </g>
      <g stroke-width="0.3" fill="#000000" fill-opacity="0.000" class="geometry color_newtests_pass" stroke-dasharray="none" stroke="#008000" id="fig-235a9965ade549518d501d70efb7cf34-element-13">
        <path fill="none" d="M76.54,22.14 L 76.67 22.32 76.79 22.26 76.91 22.32 77.03 22.32 77.16 22.14 77.28 22.39 77.4 22.14 77.77 22.26 78.02 22.2 78.26 22.26 78.38 22.01 78.51 23.69 78.63 21.7 78.75 22.01 78.88 21.89 80.96 20.89 81.95 20.52 83.05 20.71 85.14 20.89 85.51 20.4 86.12 20.15 86.74 19.84 88.7 19.09 89.19 18.9 89.81 18.28 90.3 18.16 90.79 18.22 91.16 18.09 92.63 18.09 94.11 18.09 94.6 17.78"/>
      </g>
      <g stroke-width="0.3" fill="#000000" fill-opacity="0.000" class="geometry color_newnot_possible" stroke-dasharray="none" stroke="#808080" id="fig-235a9965ade549518d501d70efb7cf34-element-14">
        <path fill="none" d="M21.63,43.72 L 21.75 43.72 21.88 43.72 22 43.72 22.12 43.72 22.25 43.72 22.37 43.72 22.49 43.72 22.74 43.72 22.86 43.72 23.11 43.72 23.35 43.72 23.47 43.72 23.72 43.72 23.84 43.72 24.7 43.72 25.07 43.72 25.32 43.72 26.18 43.78 26.3 43.78 26.42 43.78 26.55 43.78 26.67 43.78 26.79 43.72 26.91 43.72 27.04 43.72 27.16 43.72 27.28 43.59 27.41 43.59 27.53 43.59 27.77 43.53 27.9 43.97 28.02 43.97 28.14 43.97 28.27 43.97 28.39 43.97 28.51 43.97 28.63 43.97 28.76 43.97 28.88 43.97 29 43.97 29.13 43.97 29.25 43.97 29.37 43.97 29.49 43.97 29.62 43.97 29.74 43.97 30.48 43.66 30.6 43.59 30.72 43.59 30.84 43.59 30.97 43.59 31.09 43.53 31.21 43.41 31.34 43.41 31.46 43.41 31.58 43.41 31.83 43.41 31.95 43.41 32.07 43.41 32.2 43.41 32.32 43.41 32.44 43.41 32.56 43.41 32.69 43.41 32.93 43.41 33.06 43.41 33.18 43.41 33.3 43.41 33.42 43.41 33.55 43.41 33.79 43.41 33.92 43.41 34.04 43.41 34.16 43.41 34.41 43.41 34.65 43.41 34.78 43.41 34.9 43.41 35.02 43.41 35.39 43.41 35.51 43.41 35.64 43.41 35.76 43.41 35.88 43.41 36 43.41 36.13 43.34 36.25 43.34 36.5 43.34 36.62 43.34 36.86 43.34 36.99 43.34 37.11 43.34 37.23 43.34 37.48 43.34 37.6 43.34 37.72 43.34 37.85 43.34 37.97 43.34 38.09 43.34 38.22 43.34 38.34 43.34 38.46 43.28 38.58 43.22 38.71 43.22 38.83 43.22 38.95 43.22 39.2 43.22 39.32 43.22 39.44 43.22 39.57 43.22 39.69 43.22 39.81 43.22 39.94 43.22 40.06 43.22 40.3 43.22 40.43 43.16 40.67 43.16 40.8 43.16 40.92 43.1 41.41 43.1 41.78 43.1 41.9 43.1 42.02 43.1 42.15 43.1 42.27 43.1 42.39 43.1 42.51 43.1 42.64 43.1 42.76 43.1 43.01 43.03 43.13 43.03 43.25 43.03 43.37 43.03 43.5 43.03 43.62 43.03 43.74 42.97 43.99 42.97 44.11 42.97 44.23 42.97 44.36 42.97 44.48 42.79 44.6 42.91 44.73 42.91 44.85 42.91 45.22 42.91 45.34 42.85 45.46 42.85 45.59 42.85 45.71 42.85 45.83 42.85 45.95 42.85 46.08 42.85 46.2 42.85 46.32 42.85 46.45 42.79 46.57 42.79 46.69 42.79 46.81 42.79 46.94 42.79 47.06 42.79 47.18 42.79 47.31 42.79 47.43 42.79 47.55 42.79 47.67 42.79 47.8 42.79 47.92 42.79 48.04 42.79 48.17 42.79 48.29 42.79 48.41 42.79 48.53 42.79 48.66 42.79 48.78 42.79 49.15 42.79 49.76 42.79 49.89 42.79 50.01 42.79 50.13 42.79 50.25 42.79 50.38 42.79 50.5 42.79 50.99 42.79 51.11 42.79 51.73 42.79 51.97 42.79 52.1 42.85 52.22 42.85 52.34 42.85 52.47 42.85 52.59 42.85 52.71 42.85 53.08 42.85 53.2 42.85 53.45 42.85 53.57 42.85 53.69 42.85 54.06 42.85 54.31 42.85 54.68 42.85 55.17 42.85 55.41 42.85 55.78 42.85 56.64 42.85 57.13 42.85 57.26 42.72 57.38 42.72 57.5 42.66 57.62 42.66 57.75 42.66 57.99 42.66 58.12 42.66 58.24 42.66 58.36 42.66 58.48 42.66 58.61 42.66 58.73 42.66 58.98 42.6 59.1 42.6 59.22 42.6 59.71 42.6 59.84 42.6 59.96 42.6 60.2 42.6 60.45 42.6 60.57 42.6 60.94 42.6 61.56 42.6 62.17 42.6 62.78 42.6 62.91 42.6 63.03 42.6 63.15 42.16 63.28 42.23 63.52 42.16 63.77 42.16 64.26 42.16 64.38 42.16 64.5 42.16 64.63 42.16 64.75 42.16 64.87 42.23 65 42.16 66.47 42.1 66.71 42.04 66.84 42.04 67.08 42.04 67.57 42.04 67.82 42.04 68.07 42.04 68.56 42.04 68.8 42.04 68.93 42.04 69.17 42.04 69.29 42.04 69.42 42.04 69.54 42.04 69.66 42.04 69.79 42.04 70.03 42.04 70.15 42.04 70.4 42.04 70.65 42.04 70.77 42.04 70.89 42.04 71.14 42.04 71.26 42.04 71.87 42.04 72.37 42.1 72.49 42.04 73.47 42.04 73.59 41.91 73.72 41.91 74.09 41.91 74.21 41.91 74.33 41.98 74.58 41.98 74.82 41.98 75.07 41.98 76.17 41.98"/>
      </g>
      <g stroke-width="0.3" fill="#000000" fill-opacity="0.000" class="geometry color_newtests_fail" stroke-dasharray="none" stroke="#FF0000" id="fig-235a9965ade549518d501d70efb7cf34-element-15">
        <path fill="none" d="M21.63,43.22 L 21.75 43.22 21.88 42.29 22 43.28 22.12 43.22 22.25 42.23 22.37 42.23 22.49 42.23 22.74 43.22 22.86 43.22 23.11 43.28 23.35 43.28 23.47 43.28 23.72 43.34 23.84 43.34 24.7 43.41 25.07 43.41 25.32 43.41 26.18 43.34 26.3 43.41 26.42 43.28 26.55 43.28 26.67 43.34 26.79 43.41 26.91 43.34 27.04 43.34 27.16 43.34 27.28 43.41 27.41 43.41 27.53 43.28 27.77 43.34 27.9 43.22 28.02 43.34 28.14 43.47 28.27 43.47 28.39 43.53 28.51 43.53 28.63 43.47 28.76 43.53 28.88 43.53 29 43.53 29.13 43.59 29.25 43.59 29.37 44.09 29.49 43.84 29.62 43.84 29.74 43.84 30.48 44.22 30.6 44.28 30.72 44.28 30.84 44.28 30.97 44.22 31.09 44.28 31.21 44.28 31.34 44.28 31.46 44.22 31.58 43.03 31.83 44.22 31.95 44.28 32.07 44.28 32.2 44.28 32.32 44.28 32.44 44.28 32.56 44.28 32.69 44.28 32.93 44.28 33.06 44.28 33.18 44.22 33.3 44.22 33.42 44.22 33.55 44.22 33.79 44.22 33.92 44.09 34.04 44.09 34.16 44.09 34.41 43.97 34.65 42.72 34.78 42.66 34.9 43.97 35.02 43.9 35.39 44.03 35.51 44.03 35.64 44.03 35.76 44.03 35.88 44.09 36 44.15 36.13 44.15 36.25 44.15 36.5 44.15 36.62 44.22 36.86 44.15 36.99 44.22 37.11 44.22 37.23 44.22 37.48 44.22 37.6 44.22 37.72 44.09 37.85 44.15 37.97 44.15 38.09 44.09 38.22 44.09 38.34 43.97 38.46 44.03 38.58 44.15 38.71 42.41 38.83 42.79 38.95 42.79 39.2 44.22 39.32 44.28 39.44 44.22 39.57 44.28 39.69 44.22 39.81 44.22 39.94 44.34 40.06 44.15 40.3 44.4 40.43 44.46 40.67 44.34 40.8 44.34 40.92 44.4 41.41 44.4 41.78 44.71 41.9 44.71 42.02 44.71 42.15 44.78 42.27 44.84 42.39 44.84 42.51 44.84 42.64 44.84 42.76 44.84 43.01 44.71 43.13 44.71 43.25 44.65 43.37 44.71 43.5 44.65 43.62 44.53 43.74 44.59 43.99 44.65 44.11 44.71 44.23 44.71 44.36 44.65 44.48 44.59 44.6 44.65 44.73 44.71 44.85 44.71 45.22 44.71 45.34 44.71 45.46 44.71 45.59 44.78 45.71 44.78 45.83 44.78 45.95 44.78 46.08 44.78 46.2 44.65 46.32 44.59 46.45 44.59 46.57 44.46 46.69 44.59 46.81 44.59 46.94 44.59 47.06 44.59 47.18 44.59 47.31 44.53 47.43 44.59 47.55 44.53 47.67 44.59 47.8 44.53 47.92 44.59 48.04 44.59 48.17 44.59 48.29 44.65 48.41 44.65 48.53 44.71 48.66 44.71 48.78 44.53 49.15 44.78 49.76 44.71 49.89 44.71 50.01 44.71 50.13 44.78 50.25 44.84 50.38 44.71 50.5 44.71 50.99 44.65 51.11 44.71 51.73 44.71 51.97 44.71 52.1 44.34 52.22 44.53 52.34 44.71 52.47 44.71 52.59 44.71 52.71 44.65 53.08 44.59 53.2 44.59 53.45 44.53 53.57 44.59 53.69 44.59 54.06 44.59 54.31 44.65 54.68 44.65 55.17 44.65 55.41 44.65 55.78 44.65 56.64 44.59 57.13 44.46 57.26 44.59 57.38 44.59 57.5 44.34 57.62 44.34 57.75 44.4 57.99 44.4 58.12 44.34 58.24 44.34 58.36 44.28 58.48 44.34 58.61 44.34 58.73 44.34 58.98 44.34 59.1 44.34 59.22 44.34 59.71 44.15 59.84 44.15 59.96 44.15 60.2 44.09 60.45 44.03 60.57 44.03 60.94 44.03 61.56 44.03 62.17 44.09 62.78 42.29 62.91 42.91 63.03 43.34 63.15 44.09 63.28 44.09 63.52 44.09 63.77 44.09 64.26 44.09 64.38 44.03 64.5 44.03 64.63 44.03 64.75 44.03 64.87 44.03 65 43.97 66.47 43.9 66.71 43.97 66.84 44.09 67.08 44.09 67.57 43.97 67.82 44.09 68.07 44.03 68.56 44.03 68.8 44.03 68.93 43.97 69.17 43.84 69.29 43.84 69.42 43.84 69.54 43.9 69.66 43.78 69.79 43.78 70.03 43.78 70.15 43.84 70.4 43.78 70.65 43.78 70.77 43.66 70.89 43.66 71.14 43.72 71.26 43.66 71.87 43.59 72.37 43.47 72.49 43.47 73.47 43.22 73.59 43.22 73.72 43.22 74.09 43.22 74.21 43.22 74.33 43.28 74.58 43.34 74.82 43.28 75.07 43.28 76.17 43.41"/>
      </g>
      <g stroke-width="0.3" fill="#000000" fill-opacity="0.000" class="geometry color_newno_tests" stroke-dasharray="none" stroke="#0000FF" id="fig-235a9965ade549518d501d70efb7cf34-element-16">
        <path fill="none" d="M21.63,42.35 L 21.75 42.35 21.88 42.35 22 42.35 22.12 42.35 22.25 42.41 22.37 42.41 22.49 42.35 22.74 42.29 22.86 42.29 23.11 42.29 23.35 42.16 23.47 42.16 23.72 42.16 23.84 42.16 24.7 42.16 25.07 42.16 25.32 42.16 26.18 42.1 26.3 42.1 26.42 42.1 26.55 42.1 26.67 42.1 26.79 42.1 26.91 42.1 27.04 42.1 27.16 42.1 27.28 42.23 27.41 42.23 27.53 42.23 27.77 42.29 27.9 42.29 28.02 42.29 28.14 42.23 28.27 42.23 28.39 42.35 28.51 42.41 28.63 42.41 28.76 42.41 28.88 42.41 29 42.41 29.13 42.41 29.25 42.41 29.37 42.16 29.49 42.23 29.62 42.23 29.74 42.23 30.48 42.23 30.6 42.23 30.72 42.23 30.84 42.29 30.97 42.29 31.09 42.29 31.21 42.29 31.34 42.35 31.46 42.35 31.58 42.54 31.83 42.47 31.95 42.35 32.07 42.35 32.2 42.35 32.32 42.35 32.44 42.35 32.56 42.35 32.69 42.35 32.93 42.41 33.06 42.35 33.18 42.35 33.3 42.35 33.42 42.47 33.55 42.47 33.79 42.47 33.92 42.47 34.04 42.47 34.16 42.47 34.41 42.35 34.65 42.54 34.78 42.47 34.9 42.41 35.02 42.41 35.39 42.41 35.51 42.41 35.64 42.41 35.76 42.41 35.88 42.47 36 42.47 36.13 42.47 36.25 42.54 36.5 42.54 36.62 42.54 36.86 42.54 36.99 42.54 37.11 42.54 37.23 42.54 37.48 42.41 37.6 42.47 37.72 42.47 37.85 42.41 37.97 42.41 38.09 42.41 38.22 42.41 38.34 42.41 38.46 42.41 38.58 42.41 38.71 42.79 38.83 42.79 38.95 42.79 39.2 42.35 39.32 42.35 39.44 42.41 39.57 42.41 39.69 42.47 39.81 42.41 39.94 42.41 40.06 42.47 40.3 42.85 40.43 42.91 40.67 42.91 40.8 42.91 40.92 42.91 41.41 42.91 41.78 42.85 41.9 42.85 42.02 42.79 42.15 42.79 42.27 42.79 42.39 42.85 42.51 42.85 42.64 42.91 42.76 42.91 43.01 42.91 43.13 42.85 43.25 42.85 43.37 42.85 43.5 42.85 43.62 42.91 43.74 42.91 43.99 42.85 44.11 42.85 44.23 42.85 44.36 42.85 44.48 42.6 44.6 42.85 44.73 42.85 44.85 42.85 45.22 42.91 45.34 42.91 45.46 42.85 45.59 42.85 45.71 42.85 45.83 42.85 45.95 42.85 46.08 42.85 46.2 42.85 46.32 42.85 46.45 42.85 46.57 42.91 46.69 42.85 46.81 42.85 46.94 42.85 47.06 42.85 47.18 42.85 47.31 42.91 47.43 42.85 47.55 42.91 47.67 42.85 47.8 42.85 47.92 42.85 48.04 42.85 48.17 42.85 48.29 42.85 48.41 42.85 48.53 42.85 48.66 42.85 48.78 42.85 49.15 42.85 49.76 42.85 49.89 42.85 50.01 42.85 50.13 42.85 50.25 42.85 50.38 42.85 50.5 42.85 50.99 42.91 51.11 42.85 51.73 42.85 51.97 42.85 52.1 42.85 52.22 42.91 52.34 42.85 52.47 42.85 52.59 42.85 52.71 42.91 53.08 42.85 53.2 42.85 53.45 42.85 53.57 42.79 53.69 42.79 54.06 42.85 54.31 42.79 54.68 42.79 55.17 42.85 55.41 42.79 55.78 42.79 56.64 42.79 57.13 42.79 57.26 42.79 57.38 42.79 57.5 42.85 57.62 42.79 57.75 42.79 57.99 42.79 58.12 42.85 58.24 42.85 58.36 42.85 58.48 42.79 58.61 42.79 58.73 42.79 58.98 42.79 59.1 42.79 59.22 42.79 59.71 42.79 59.84 42.79 59.96 42.79 60.2 42.79 60.45 42.79 60.57 42.79 60.94 42.79 61.56 42.79 62.17 42.79 62.78 42.97 62.91 42.91 63.03 42.91 63.15 42.91 63.28 42.85 63.52 42.85 63.77 42.85 64.26 42.85 64.38 42.85 64.5 42.91 64.63 42.91 64.75 42.91 64.87 42.91 65 42.91 66.47 42.97 66.71 42.97 66.84 42.97 67.08 43.03 67.57 43.03 67.82 43.03 68.07 43.03 68.56 43.03 68.8 43.03 68.93 43.03 69.17 43.03 69.29 43.03 69.42 43.03 69.54 43.03 69.66 43.03 69.79 43.03 70.03 43.03 70.15 43.03 70.4 43.1 70.65 43.03 70.77 43.03 70.89 43.03 71.14 43.1 71.26 43.03 71.87 43.1 72.37 43.1 72.49 43.1 73.47 43.1 73.59 43.1 73.72 43.1 74.09 43.16 74.21 43.16 74.33 43.1 74.58 43.1 74.82 43.1 75.07 43.16 76.17 43.1"/>
      </g>
      <g stroke-width="0.3" fill="#000000" fill-opacity="0.000" class="geometry color_oldfull_fail" stroke-dasharray="none" stroke="#FFA500" id="fig-235a9965ade549518d501d70efb7cf34-element-17">
        <path fill="none" d="M21.63,43.16 L 21.75 43.16 21.88 43.59 22 42.91 22.12 42.97 22.25 43.47 22.37 43.34 22.49 43.47 22.74 42.6 22.86 42.6 23.11 42.54 23.35 42.79 23.47 42.66 23.72 42.85 23.84 42.79 24.7 42.91 25.07 42.91 25.32 42.91 26.18 42.85 26.3 42.72 26.42 42.1 26.55 42.1 26.67 42.41 26.79 42.41 26.91 42.6 27.04 42.6 27.16 42.6 27.28 42.85 27.41 42.85 27.53 43.16 27.77 43.16 27.9 43.1 28.02 42.97 28.14 43.03 28.27 43.03 28.39 43.16 28.51 43.16 28.63 43.16 28.76 43.03 28.88 43.28 29 43.22 29.13 43.16 29.25 43.03 29.37 45.71 29.49 43.28 29.62 42.97 29.74 43.1 30.48 42.97 30.6 43.22 30.72 43.47 30.84 43.47 30.97 43.41 31.09 43.66 31.21 43.59 31.34 43.59 31.46 43.66 31.58 43.84 31.83 43.53 31.95 43.59 32.07 43.72 32.2 43.59 32.32 43.72 32.44 43.72 32.56 43.47 32.69 43.53 32.93 43.78 33.06 43.78 33.18 43.78 33.3 43.72 33.42 43.66 33.55 43.78 33.79 43.78 33.92 43.84 34.04 43.9 34.16 43.9 34.41 43.78 34.65 43.34 34.78 43.66 34.9 43.59 35.02 43.59 35.39 43.59 35.51 43.59 35.64 43.41 35.76 43.53 35.88 43.47 36 43.47 36.13 43.59 36.25 43.53 36.5 43.59 36.62 43.66 36.86 43.66 36.99 43.66 37.11 43.66 37.23 43.66 37.48 43.66 37.6 43.66 37.72 43.66 37.85 43.59 37.97 43.59 38.09 43.53 38.22 43.66 38.34 43.53 38.46 43.47 38.58 43.47 38.71 43.34 38.83 43.28 38.95 43.34 39.2 43.22 39.32 43.28 39.44 43.47 39.57 43.28 39.69 43.28 39.81 43.34 39.94 43.16 40.06 43.22 40.3 43.53 40.43 43.47 40.67 43.47 40.8 43.47 40.92 43.47 41.41 43.47 41.78 43.41 41.9 43.34 42.02 43.41 42.15 43.28 42.27 43.28 42.39 43.47 42.51 43.16 42.64 43.1 42.76 43.1 43.01 43.16 43.13 43.28 43.25 43.22 43.37 43.28 43.5 43.28 43.62 43.16 43.74 43.28 43.99 43.41 44.11 43.41 44.23 43.41 44.36 43.41 44.48 43.22 44.6 43.47 44.73 43.47 44.85 43.47 45.22 43.1 45.34 43.28 45.46 43.28 45.59 43.41 45.71 43.28 45.83 43.41 45.95 43.41 46.08 43.34 46.2 43.34 46.32 43.28 46.45 43.47 46.57 43.41 46.69 43.34 46.81 43.41 46.94 43.41 47.06 43.34 47.18 43.47 47.31 43.28 47.43 43.28 47.55 43.41 47.67 43.34 47.8 43.28 47.92 43.28 48.04 43.28 48.17 43.22 48.29 43.28 48.41 43.41 48.53 43.22 48.66 43.28 48.78 43.28 49.15 43.16 49.76 43.16 49.89 43.03 50.01 43.03 50.13 42.91 50.25 42.97 50.38 43.16 50.5 43.16 50.99 43.1 51.11 43.1 51.73 42.97 51.97 42.97 52.1 42.72 52.22 42.85 52.34 42.91 52.47 43.03 52.59 43.03 52.71 42.91 53.08 42.79 53.2 42.79 53.45 42.72 53.57 42.54 53.69 42.85 54.06 42.79 54.31 42.91 54.68 42.85 55.17 42.72 55.41 42.85 55.78 42.6 56.64 42.47 57.13 42.54 57.26 42.54 57.38 42.54 57.5 42.23 57.62 42.1 57.75 42.04 57.99 42.16 58.12 42.16 58.24 42.16 58.36 42.1 58.48 41.91 58.61 42.23 58.73 42.23 58.98 42.23 59.1 42.23 59.22 42.29 59.71 42.1 59.84 42.23 59.96 42.04 60.2 42.47 60.45 42.47 60.57 42.41 60.94 42.29 61.56 42.29 62.17 42.35 62.78 41.85 62.91 41.6 63.03 41.67 63.15 41.6 63.28 41.91 63.52 41.85 63.77 41.91 64.26 41.67 64.38 41.73 64.5 41.91 64.63 41.79 64.75 41.85 64.87 41.73 65 41.91 66.47 41.85 66.71 41.91 66.84 41.73 67.08 41.91 67.57 42.04 67.82 41.98 68.07 41.67 68.56 41.85 68.8 41.73 68.93 42.23 69.17 42.35 69.29 42.16 69.42 42.23 69.54 42.1 69.66 42.16 69.79 42.41 70.03 42.23 70.15 42.16 70.4 42.35 70.65 42.29 70.77 42.16 70.89 42.29 71.14 42.16 71.26 42.1 71.87 41.91 72.37 42.1 72.49 42.1 73.47 42.16 73.59 42.23 73.72 42.16 74.09 42.41 74.21 42.41 74.33 42.35 74.58 42.04 74.82 42.16 75.07 42.1 76.17 42.23"/>
      </g>
      <g stroke-width="0.3" fill="#000000" fill-opacity="0.000" class="geometry color_newtests_pass" stroke-dasharray="none" stroke="#008000" id="fig-235a9965ade549518d501d70efb7cf34-element-18">
        <path fill="none" d="M21.63,37.69 L 21.75 37.69 21.88 38.12 22 37.81 22.12 37.81 22.25 38.25 22.37 38.37 22.49 38.25 22.74 38.18 22.86 38.12 23.11 38.06 23.35 37.81 23.47 37.93 23.72 37.69 23.84 37.69 24.7 37.25 25.07 37.25 25.32 37.25 26.18 37.31 26.3 37.25 26.42 37.93 26.55 37.93 26.67 37.56 26.79 37.56 26.91 37.44 27.04 37.44 27.16 37.44 27.28 37.13 27.41 37.13 27.53 36.75 27.77 36.63 27.9 36.38 28.02 36.38 28.14 36.13 28.27 36.13 28.39 35.82 28.51 35.7 28.63 35.76 28.76 35.82 28.88 35.57 29 35.63 29.13 35.57 29.25 35.7 29.37 35.26 29.49 35.32 29.62 35.57 29.74 35.38 30.48 35.07 30.6 34.76 30.72 34.45 30.84 34.33 30.97 34.33 31.09 34.08 31.21 34.14 31.34 34.08 31.46 34.02 31.58 34.76 31.83 33.95 31.95 33.83 32.07 33.71 32.2 33.83 32.32 33.71 32.44 33.71 32.56 33.77 32.69 33.71 32.93 33.33 33.06 33.27 33.18 33.27 33.3 33.27 33.42 33.21 33.55 32.96 33.79 32.9 33.92 32.77 34.04 32.71 34.16 32.71 34.41 32.77 34.65 34.08 34.78 33.89 34.9 32.65 35.02 32.71 35.39 32.52 35.51 32.52 35.64 32.65 35.76 32.52 35.88 32.46 36 32.34 36.13 32.21 36.25 32.15 36.5 32.09 36.62 31.96 36.86 32.03 36.99 31.9 37.11 31.71 37.23 31.71 37.48 31.78 37.6 31.71 37.72 31.71 37.85 31.71 37.97 31.65 38.09 31.71 38.22 31.53 38.34 31.65 38.46 31.71 38.58 31.59 38.71 33.02 38.83 32.71 38.95 32.65 39.2 31.59 39.32 31.47 39.44 31.22 39.57 31.34 39.69 31.34 39.81 31.16 39.94 31.16 40.06 31.16 40.3 30.97 40.43 30.78 40.67 30.78 40.8 30.78 40.92 30.78 41.41 30.78 41.78 30.22 41.9 30.22 42.02 30.16 42.15 30.1 42.27 30.04 42.39 29.79 42.51 29.6 42.64 29.6 42.76 29.6 43.01 29.72 43.13 29.6 43.25 29.66 43.37 29.54 43.5 29.6 43.62 29.72 43.74 29.6 43.99 29.54 44.11 29.41 44.23 29.41 44.36 29.35 44.48 28.79 44.6 29.23 44.73 29.16 44.85 29.04 45.22 29.23 45.34 29.1 45.46 29.04 45.59 28.79 45.71 28.92 45.83 28.79 45.95 28.67 46.08 28.73 46.2 28.79 46.32 28.85 46.45 28.73 46.57 28.85 46.69 28.85 46.81 28.73 46.94 28.61 47.06 28.67 47.18 28.54 47.31 28.67 47.43 28.67 47.55 28.48 47.67 28.54 47.8 28.54 47.92 28.42 48.04 28.42 48.17 28.42 48.29 28.29 48.41 28.17 48.53 28.23 48.66 28.17 48.78 28.29 49.15 28.17 49.76 27.92 49.89 27.92 50.01 27.92 50.13 27.92 50.25 27.8 50.38 27.55 50.5 27.55 50.99 27.3 51.11 27.3 51.73 27.36 51.97 27.36 52.1 27.86 52.22 27.42 52.34 27.24 52.47 27.11 52.59 26.99 52.71 27.05 53.08 27.17 53.2 27.11 53.45 27.05 53.57 27.17 53.69 26.86 54.06 26.86 54.31 26.61 54.68 26.55 55.17 26.49 55.41 26.24 55.78 26.24 56.64 26.06 57.13 25.68 57.26 25.56 57.38 25.56 57.5 25.81 57.62 25.99 57.75 25.99 57.99 25.87 58.12 25.74 58.24 25.74 58.36 25.68 58.48 25.81 58.61 25.5 58.73 25.5 58.98 25.37 59.1 25.25 59.22 25.12 59.71 25 59.84 25 59.96 25.18 60.2 24.62 60.45 24.5 60.57 24.56 60.94 24.56 61.56 24.56 62.17 24.07 62.78 25.93 62.91 25.62 63.03 25.12 63.15 24.75 63.28 24.44 63.52 24.56 63.77 24.5 64.26 24.62 64.38 24.5 64.5 24.19 64.63 24.31 64.75 24.13 64.87 24.25 65 24.07 66.47 24.13 66.71 24.07 66.84 23.94 67.08 23.69 67.57 23.63 67.82 23.57 68.07 23.75 68.56 23.57 68.8 23.57 68.93 23.07 69.17 22.76 69.29 22.95 69.42 22.82 69.54 22.7 69.66 22.76 69.79 22.45 70.03 22.57 70.15 22.51 70.4 22.32 70.65 22.32 70.77 22.39 70.89 22.2 71.14 22.07 71.26 22.2 71.87 22.14 72.37 21.89 72.49 21.83 73.47 21.76 73.59 21.83 73.72 21.89 74.09 21.39 74.21 21.33 74.33 21.27 74.58 21.39 74.82 21.33 75.07 21.27 76.17 20.77"/>
      </g>
    </g>
  </g>
  <g class="guide ylabels" font-size="2.82" font-family="'PT Sans Caption','Helvetica Neue','Helvetica',sans-serif" fill="#6C606B" id="fig-235a9965ade549518d501d70efb7cf34-element-19">
    <text x="18.63" y="45.71" text-anchor="end" dy="0.35em">0</text>
    <text x="18.63" y="39.49" text-anchor="end" dy="0.35em">100</text>
    <text x="18.63" y="33.27" text-anchor="end" dy="0.35em">200</text>
    <text x="18.63" y="27.05" text-anchor="end" dy="0.35em">300</text>
    <text x="18.63" y="20.83" text-anchor="end" dy="0.35em">400</text>
    <text x="18.63" y="14.61" text-anchor="end" dy="0.35em">500</text>
  </g>
  <g font-size="3.88" font-family="'PT Sans','Helvetica Neue','Helvetica',sans-serif" fill="#564A55" stroke="#000000" stroke-opacity="0.000" id="fig-235a9965ade549518d501d70efb7cf34-element-20">
    <text x="8.81" y="28.16" text-anchor="middle" dy="0.35em" transform="rotate(-90, 8.81, 30.16)">Number of Packages</text>
  </g>
  <g font-size="3.88" font-family="'PT Sans','Helvetica Neue','Helvetica',sans-serif" fill="#564A55" stroke="#000000" stroke-opacity="0.000" id="fig-235a9965ade549518d501d70efb7cf34-element-21">
    <text x="58.12" y="10.61" text-anchor="middle">Julia v0.3</text>
  </g>
</g>
<defs>
<clipPath id="fig-235a9965ade549518d501d70efb7cf34-element-5">
  <path d="M19.63,12.61 L 96.6 12.61 96.6 47.71 19.63 47.71" />
</clipPath
></defs>
</svg>
