<?xml version="1.0" encoding="UTF-8"?>
<svg xmlns="http://www.w3.org/2000/svg"
     xmlns:xlink="http://www.w3.org/1999/xlink"
     xmlns:gadfly="http://www.gadflyjl.org/ns"
     version="1.2"
     width="101.6mm" height="76.2mm" viewBox="0 0 101.6 76.2"
     stroke="none"
     fill="#000000"
     stroke-width="0.3"
     font-size="3.88"
>
<g class="plotroot xscalable yscalable" id="fig-a2b6c043b4c44d339ff8c98f2f4663eb-element-1">
  <g font-size="3.88" font-family="'PT Sans','Helvetica Neue','Helvetica',sans-serif" fill="#564A55" stroke="#000000" stroke-opacity="0.000" id="fig-a2b6c043b4c44d339ff8c98f2f4663eb-element-2">
    <text x="58.12" y="64.59" text-anchor="middle" dy="0.6em">Date</text>
  </g>
  <g class="guide xlabels" font-size="2.82" font-family="'PT Sans Caption','Helvetica Neue','Helvetica',sans-serif" fill="#6C606B" id="fig-a2b6c043b4c44d339ff8c98f2f4663eb-element-3">
    <text x="21.88" y="48.71" text-anchor="end" dy="0.35em" transform="rotate(-90, 21.88, 48.71)">Apr</text>
    <text x="25.67" y="48.71" text-anchor="end" dy="0.35em" transform="rotate(-90, 25.67, 48.71)">May</text>
    <text x="29.58" y="48.71" text-anchor="end" dy="0.35em" transform="rotate(-90, 29.58, 48.71)">Jun</text>
    <text x="33.37" y="48.71" text-anchor="end" dy="0.35em" transform="rotate(-90, 33.37, 48.71)">Jul</text>
    <text x="37.29" y="48.71" text-anchor="end" dy="0.35em" transform="rotate(-90, 37.29, 48.71)">Aug</text>
    <text x="41.2" y="48.71" text-anchor="end" dy="0.35em" transform="rotate(-90, 41.2, 48.71)">Sep</text>
    <text x="44.99" y="48.71" text-anchor="end" dy="0.35em" transform="rotate(-90, 44.99, 48.71)">Oct</text>
    <text x="48.9" y="48.71" text-anchor="end" dy="0.35em" transform="rotate(-90, 48.9, 48.71)">Nov</text>
    <text x="52.69" y="48.71" text-anchor="end" dy="0.35em" transform="rotate(-90, 52.69, 48.71)">Dec</text>
    <text x="56.6" y="48.71" text-anchor="end" dy="0.35em" transform="rotate(-90, 56.6, 48.71)">Jan 2015</text>
    <text x="60.51" y="48.71" text-anchor="end" dy="0.35em" transform="rotate(-90, 60.51, 48.71)">Feb</text>
    <text x="64.05" y="48.71" text-anchor="end" dy="0.35em" transform="rotate(-90, 64.05, 48.71)">Mar</text>
    <text x="67.96" y="48.71" text-anchor="end" dy="0.35em" transform="rotate(-90, 67.96, 48.71)">Apr</text>
    <text x="71.75" y="48.71" text-anchor="end" dy="0.35em" transform="rotate(-90, 71.75, 48.71)">May</text>
    <text x="75.66" y="48.71" text-anchor="end" dy="0.35em" transform="rotate(-90, 75.66, 48.71)">Jun</text>
    <text x="79.45" y="48.71" text-anchor="end" dy="0.35em" transform="rotate(-90, 79.45, 48.71)">Jul</text>
    <text x="83.36" y="48.71" text-anchor="end" dy="0.35em" transform="rotate(-90, 83.36, 48.71)">Aug</text>
    <text x="87.28" y="48.71" text-anchor="end" dy="0.35em" transform="rotate(-90, 87.28, 48.71)">Sep</text>
    <text x="91.07" y="48.71" text-anchor="end" dy="0.35em" transform="rotate(-90, 91.07, 48.71)">Oct</text>
  </g>
  <g clip-path="url(#fig-a2b6c043b4c44d339ff8c98f2f4663eb-element-5)" id="fig-a2b6c043b4c44d339ff8c98f2f4663eb-element-4">
    <g pointer-events="visible" opacity="1" fill="#000000" fill-opacity="0.000" stroke="#000000" stroke-opacity="0.000" class="guide background" id="fig-a2b6c043b4c44d339ff8c98f2f4663eb-element-6">
      <rect x="19.63" y="12.61" width="76.97" height="35.1"/>
    </g>
    <g class="guide ygridlines xfixed" stroke-dasharray="0.5,0.5" stroke-width="0.2" stroke="#D0D0E0" id="fig-a2b6c043b4c44d339ff8c98f2f4663eb-element-7">
      <path fill="none" d="M19.63,45.71 L 96.6 45.71"/>
      <path fill="none" d="M19.63,30.16 L 96.6 30.16"/>
      <path fill="none" d="M19.63,14.61 L 96.6 14.61"/>
    </g>
    <g class="guide xgridlines yfixed" stroke-dasharray="0.5,0.5" stroke-width="0.2" stroke="#D0D0E0" id="fig-a2b6c043b4c44d339ff8c98f2f4663eb-element-8">
      <path fill="none" d="M21.88,12.61 L 21.88 47.71"/>
      <path fill="none" d="M25.67,12.61 L 25.67 47.71"/>
      <path fill="none" d="M29.58,12.61 L 29.58 47.71"/>
      <path fill="none" d="M33.37,12.61 L 33.37 47.71"/>
      <path fill="none" d="M37.29,12.61 L 37.29 47.71"/>
      <path fill="none" d="M41.2,12.61 L 41.2 47.71"/>
      <path fill="none" d="M44.99,12.61 L 44.99 47.71"/>
      <path fill="none" d="M48.9,12.61 L 48.9 47.71"/>
      <path fill="none" d="M52.69,12.61 L 52.69 47.71"/>
      <path fill="none" d="M56.6,12.61 L 56.6 47.71"/>
      <path fill="none" d="M60.51,12.61 L 60.51 47.71"/>
      <path fill="none" d="M64.05,12.61 L 64.05 47.71"/>
      <path fill="none" d="M67.96,12.61 L 67.96 47.71"/>
      <path fill="none" d="M71.75,12.61 L 71.75 47.71"/>
      <path fill="none" d="M75.66,12.61 L 75.66 47.71"/>
      <path fill="none" d="M79.45,12.61 L 79.45 47.71"/>
      <path fill="none" d="M83.36,12.61 L 83.36 47.71"/>
      <path fill="none" d="M87.28,12.61 L 87.28 47.71"/>
      <path fill="none" d="M91.07,12.61 L 91.07 47.71"/>
    </g>
    <g class="plotpanel" id="fig-a2b6c043b4c44d339ff8c98f2f4663eb-element-9">
      <g stroke-width="0.3" fill="#000000" fill-opacity="0.000" class="geometry color_newnot_possible" stroke-dasharray="none" stroke="#808080" id="fig-a2b6c043b4c44d339ff8c98f2f4663eb-element-10">
        <path fill="none" d="M78.06,42.94 L 78.19 42.94 78.31 42.95 78.44 42.95 78.57 42.96 78.69 42.96 78.82 42.96 78.95 42.96 79.32 42.96 79.58 42.97 79.83 43.02 79.96 42.98 80.08 42.99 80.21 43 80.33 43.01 80.46 43.01 82.61 43.02 83.62 43.04 84.75 43.06 86.9 43.12 87.28 43.12 87.91 42.99 88.54 42.85 90.56 42.89 91.07 42.92 91.7 42.93 92.2 42.94 92.71 42.94 93.09 42.91 94.6 42.91"/>
      </g>
      <g stroke-width="0.3" fill="#000000" fill-opacity="0.000" class="geometry color_newno_tests" stroke-dasharray="none" stroke="#0000FF" id="fig-a2b6c043b4c44d339ff8c98f2f4663eb-element-11">
        <path fill="none" d="M78.06,40.12 L 78.19 40.12 78.31 40.13 78.44 40.13 78.57 40.15 78.69 40.15 78.82 40.15 78.95 40.16 79.32 40.16 79.58 40.18 79.83 40.17 79.96 40.19 80.08 40.28 80.21 40.3 80.33 40.3 80.46 40.36 82.61 40.43 83.62 40.47 84.75 40.51 86.9 40.62 87.28 40.69 87.91 40.69 88.54 40.76 90.56 40.97 91.07 41.15 91.7 41.27 92.2 41.27 92.71 41.29 93.09 41.34 94.6 41.4"/>
      </g>
      <g stroke-width="0.3" fill="#000000" fill-opacity="0.000" class="geometry color_newtests_fail" stroke-dasharray="none" stroke="#FF0000" id="fig-a2b6c043b4c44d339ff8c98f2f4663eb-element-12">
        <path fill="none" d="M78.06,42.78 L 78.19 42.62 78.31 42.58 78.44 42.53 78.57 42.44 78.69 42.59 78.82 42.39 78.95 42.55 79.32 42.44 79.58 42.4 79.83 42.35 79.96 42.51 80.08 40.89 80.21 42.44 80.33 42.14 80.46 42.19 82.61 42.47 83.62 42.54 84.75 42.18 86.9 41.44 87.28 41.69 87.91 41.98 88.54 42.23 90.56 42.24 91.07 42.03 91.7 42.24 92.2 42.29 92.71 42.16 93.09 42.17 94.6 42.08"/>
      </g>
      <g stroke-width="0.3" fill="#000000" fill-opacity="0.000" class="geometry color_newtests_pass" stroke-dasharray="none" stroke="#008000" id="fig-a2b6c043b4c44d339ff8c98f2f4663eb-element-13">
        <path fill="none" d="M78.06,25.9 L 78.19 26.06 78.31 26.07 78.44 26.12 78.57 26.19 78.69 26.03 78.82 26.24 78.95 26.07 79.32 26.17 79.58 26.18 79.83 26.2 79.96 26.06 80.08 27.57 80.21 26 80.33 26.29 80.46 26.18 82.61 25.82 83.62 25.69 84.75 25.99 86.9 26.56 87.28 26.24 87.91 26.08 88.54 25.9 90.56 25.63 91.07 25.64 91.7 25.3 92.2 25.24 92.71 25.35 93.09 25.31 94.6 25.34"/>
      </g>
      <g stroke-width="0.3" fill="#000000" fill-opacity="0.000" class="geometry color_newnot_possible" stroke-dasharray="none" stroke="#808080" id="fig-a2b6c043b4c44d339ff8c98f2f4663eb-element-14">
        <path fill="none" d="M21.63,42.35 L 21.76 42.35 21.88 42.36 22.01 42.36 22.14 42.36 22.26 42.36 22.39 42.36 22.52 42.37 22.77 42.37 22.89 42.38 23.15 42.39 23.4 42.41 23.53 42.41 23.78 42.41 23.9 42.42 24.79 42.47 25.17 42.47 25.42 42.47 26.3 42.58 26.43 42.6 26.56 42.61 26.68 42.61 26.81 42.61 26.93 42.51 27.06 42.51 27.19 42.51 27.31 42.51 27.44 42.31 27.57 42.31 27.69 42.34 27.94 42.25 28.07 42.94 28.2 42.94 28.32 42.96 28.45 42.96 28.58 42.96 28.7 42.97 28.83 42.97 28.95 42.97 29.08 42.97 29.21 42.97 29.33 42.98 29.46 42.98 29.58 42.59 29.71 42.99 29.84 43 29.96 43 30.72 42.58 30.85 42.49 30.97 42.5 31.1 42.51 31.23 42.53 31.35 42.44 31.48 42.27 31.6 42.27 31.73 42.28 31.86 42.29 32.11 42.29 32.24 42.31 32.36 42.31 32.49 42.31 32.61 42.31 32.74 42.31 32.87 42.34 32.99 42.34 33.25 42.35 33.37 42.37 33.5 42.38 33.62 42.39 33.75 42.39 33.88 42.41 34.13 42.42 34.26 42.45 34.38 42.45 34.51 42.45 34.76 42.49 35.01 42.52 35.14 42.52 35.27 42.53 35.39 42.53 35.77 42.54 35.9 42.54 36.02 42.55 36.15 42.55 36.28 42.55 36.4 42.56 36.53 42.48 36.65 42.49 36.91 42.49 37.03 42.49 37.29 42.49 37.41 42.5 37.54 42.52 37.66 42.52 37.92 42.53 38.04 42.53 38.17 42.55 38.3 42.56 38.42 42.57 38.55 42.57 38.67 42.58 38.8 42.6 38.93 42.52 39.05 42.44 39.18 42.45 39.31 42.45 39.43 42.45 39.68 42.48 39.81 42.48 39.94 42.49 40.06 42.49 40.19 42.49 40.32 42.51 40.44 42.52 40.57 42.53 40.82 42.43 40.95 42.37 41.2 42.39 41.33 42.39 41.45 42.31 41.96 42.31 42.34 42.36 42.46 42.37 42.59 42.38 42.71 42.39 42.84 42.39 42.97 42.39 43.09 42.46 43.22 42.46 43.35 42.46 43.6 42.38 43.72 42.39 43.85 42.4 43.98 42.4 44.1 42.4 44.23 42.41 44.36 42.33 44.61 42.32 44.73 42.33 44.86 42.33 44.99 42.35 45.11 42.29 45.24 42.29 45.37 42.29 45.49 42.3 45.87 42.32 46 42.24 46.12 42.26 46.25 42.27 46.38 42.27 46.5 42.27 46.63 42.29 46.75 42.29 46.88 42.29 47.01 42.3 47.13 42.23 47.26 42.23 47.39 42.23 47.51 42.24 47.64 42.25 47.76 42.25 47.89 42.25 48.02 42.26 48.14 42.26 48.27 42.27 48.4 42.27 48.52 42.29 48.65 42.29 48.77 42.29 48.9 42.3 49.03 42.3 49.15 42.3 49.28 42.31 49.41 42.31 49.53 42.32 49.91 42.32 50.54 42.36 50.67 42.37 50.79 42.37 50.92 42.38 51.05 42.38 51.17 42.4 51.3 42.4 51.8 42.44 51.93 42.44 52.56 42.45 52.81 42.45 52.94 42.52 53.07 42.53 53.19 42.53 53.32 42.53 53.44 42.54 53.57 42.55 53.95 42.56 54.08 42.57 54.33 42.59 54.45 42.6 54.58 42.6 54.96 42.6 55.21 42.61 55.59 42.63 56.1 42.64 56.35 42.66 56.73 42.68 57.61 42.72 58.12 42.77 58.24 42.65 58.37 42.65 58.49 42.62 58.62 42.62 58.75 42.62 59 42.62 59.13 42.63 59.25 42.63 59.38 42.65 59.5 42.65 59.63 42.65 59.76 42.65 60.01 42.61 60.14 42.62 60.26 42.63 60.77 42.68 60.89 42.67 61.02 42.67 61.27 42.68 61.52 42.7 61.65 42.7 62.03 42.71 62.66 42.71 63.29 42.75 63.92 42.77 64.05 42.77 64.18 42.77 64.3 42.37 64.43 42.43 64.68 42.37 64.93 42.37 65.44 42.38 65.56 42.4 65.69 42.4 65.82 42.4 65.94 42.41 66.07 42.47 66.2 42.42 67.71 42.37 67.96 42.31 68.09 42.33 68.34 42.33 68.85 42.34 69.1 42.34 69.35 42.35 69.86 42.35 70.11 42.37 70.24 42.37 70.49 42.4 70.61 42.4 70.74 42.41 70.87 42.43 70.99 42.43 71.12 42.43 71.37 42.44 71.5 42.44 71.75 42.44 72 42.46 72.13 42.47 72.26 42.48 72.51 42.49 72.63 42.5 73.26 42.52 73.77 42.58 73.9 42.54 74.91 42.56 75.03 42.45 75.16 42.45 75.54 42.47 75.66 42.48 75.79 42.54 76.04 42.55 76.29 42.55 76.55 42.55 77.68 42.58"/>
      </g>
      <g stroke-width="0.3" fill="#000000" fill-opacity="0.000" class="geometry color_newtests_fail" stroke-dasharray="none" stroke="#FF0000" id="fig-a2b6c043b4c44d339ff8c98f2f4663eb-element-15">
        <path fill="none" d="M21.63,41.51 L 21.76 41.51 21.88 39.95 22.01 41.62 22.14 41.52 22.26 39.84 22.39 39.84 22.52 39.86 22.77 41.53 22.89 41.55 23.15 41.67 23.4 41.69 23.53 41.69 23.78 41.8 23.9 41.81 24.79 41.96 25.17 41.96 25.42 41.96 26.3 41.87 26.43 42 26.56 41.81 26.68 41.81 26.81 41.91 26.93 42.01 27.06 41.91 27.19 41.91 27.31 41.91 27.44 42.01 27.57 42.01 27.69 41.85 27.94 41.96 28.07 41.76 28.2 41.96 28.32 42.18 28.45 42.18 28.58 42.27 28.7 42.29 28.83 42.19 28.95 42.29 29.08 42.29 29.21 42.29 29.33 42.39 29.46 42.39 29.58 42.81 29.71 42.79 29.84 42.8 29.96 42.81 30.72 43.43 30.85 43.53 30.97 43.54 31.1 43.55 31.23 43.47 31.35 43.56 31.48 43.57 31.6 43.57 31.73 43.49 31.86 41.74 32.11 43.49 32.24 43.6 32.36 43.6 32.49 43.6 32.61 43.6 32.74 43.6 32.87 43.62 32.99 43.62 33.25 43.62 33.37 43.64 33.5 43.55 33.62 43.56 33.75 43.56 33.88 43.57 34.13 43.58 34.26 43.42 34.38 43.42 34.51 43.42 34.76 43.28 35.01 41.57 35.14 41.49 35.27 43.3 35.39 43.22 35.77 43.4 35.9 43.4 36.02 43.4 36.15 43.4 36.28 43.49 36.4 43.58 36.53 43.58 36.65 43.59 36.91 43.59 37.03 43.67 37.29 43.59 37.41 43.68 37.54 43.7 37.66 43.7 37.92 43.7 38.04 43.7 38.17 43.55 38.3 43.64 38.42 43.64 38.55 43.56 38.67 43.57 38.8 43.42 38.93 43.5 39.05 43.67 39.18 41.39 39.31 41.88 39.43 41.88 39.68 43.77 39.81 43.85 39.94 43.77 40.06 43.86 40.19 43.77 40.32 43.79 40.44 43.95 40.57 43.72 40.82 43.99 40.95 44.08 41.2 43.93 41.33 43.93 41.45 44.01 41.96 44.01 42.34 44.43 42.46 44.44 42.59 44.44 42.71 44.52 42.84 44.6 42.97 44.6 43.09 44.63 43.22 44.63 43.35 44.63 43.6 44.47 43.72 44.47 43.85 44.4 43.98 44.48 44.1 44.4 44.23 44.25 44.36 44.33 44.61 44.4 44.73 44.48 44.86 44.48 44.99 44.41 45.11 44.4 45.24 44.42 45.37 44.49 45.49 44.5 45.87 44.5 46 44.5 46.12 44.51 46.25 44.59 46.38 44.59 46.5 44.59 46.63 44.59 46.75 44.59 46.88 44.45 47.01 44.38 47.13 44.38 47.26 44.23 47.39 44.38 47.51 44.38 47.64 44.39 47.76 44.39 47.89 44.39 48.02 44.31 48.14 44.39 48.27 44.32 48.4 44.39 48.52 44.32 48.65 44.4 48.77 44.4 48.9 44.4 49.03 44.48 49.15 44.48 49.28 44.55 49.41 44.55 49.53 44.34 49.91 44.63 50.54 44.57 50.67 44.57 50.79 44.57 50.92 44.65 51.05 44.72 51.17 44.58 51.3 44.58 51.8 44.53 51.93 44.6 52.56 44.6 52.81 44.6 52.94 44.18 53.07 44.4 53.19 44.6 53.32 44.6 53.44 44.61 53.57 44.54 53.95 44.48 54.08 44.48 54.33 44.42 54.45 44.49 54.58 44.49 54.96 44.49 55.21 44.56 55.59 44.57 56.1 44.57 56.35 44.58 56.73 44.59 57.61 44.54 58.12 44.43 58.24 44.56 58.37 44.56 58.49 44.32 58.62 44.32 58.75 44.38 59 44.38 59.13 44.33 59.25 44.33 59.38 44.27 59.5 44.34 59.63 44.34 59.76 44.34 60.01 44.35 60.14 44.35 60.26 44.35 60.77 44.19 60.89 44.19 61.02 44.19 61.27 44.14 61.52 44.08 61.65 44.08 62.03 44.09 62.66 44.09 63.29 44.17 63.92 42.48 64.05 43.06 64.18 43.47 64.3 44.19 64.43 44.19 64.68 44.19 64.93 44.19 65.44 44.19 65.56 44.14 65.69 44.14 65.82 44.14 65.94 44.15 66.07 44.14 66.2 44.09 67.71 44.04 67.96 44.1 68.09 44.22 68.34 44.22 68.85 44.11 69.1 44.22 69.35 44.17 69.86 44.17 70.11 44.18 70.24 44.13 70.49 44.03 70.61 44.03 70.74 44.03 70.87 44.1 70.99 43.98 71.12 43.99 71.37 43.99 71.5 44.05 71.75 43.99 72 44 72.13 43.9 72.26 43.9 72.51 43.96 72.63 43.91 73.26 43.87 73.77 43.77 73.9 43.77 74.91 43.57 75.03 43.57 75.16 43.57 75.54 43.59 75.66 43.59 75.79 43.65 76.04 43.71 76.29 43.65 76.55 43.66 77.68 43.78"/>
      </g>
      <g stroke-width="0.3" fill="#000000" fill-opacity="0.000" class="geometry color_newno_tests" stroke-dasharray="none" stroke="#0000FF" id="fig-a2b6c043b4c44d339ff8c98f2f4663eb-element-16">
        <path fill="none" d="M21.63,40.04 L 21.76 40.04 21.88 40.05 22.01 40.05 22.14 40.05 22.26 40.16 22.39 40.16 22.52 40.07 22.77 39.97 22.89 39.99 23.15 40.01 23.4 39.84 23.53 39.84 23.78 39.84 23.9 39.86 24.79 39.93 25.17 39.93 25.42 39.93 26.3 39.85 26.43 39.89 26.56 39.91 26.68 39.91 26.81 39.91 26.93 39.91 27.06 39.91 27.19 39.91 27.31 39.91 27.44 40.11 27.57 40.11 27.69 40.16 27.94 40.28 28.07 40.28 28.2 40.28 28.32 40.21 28.45 40.21 28.58 40.41 28.7 40.53 28.83 40.53 28.95 40.53 29.08 40.53 29.21 40.53 29.33 40.54 29.46 40.54 29.58 39.36 29.71 40.27 29.84 40.28 29.96 40.3 30.72 40.4 30.85 40.42 30.97 40.43 31.1 40.54 31.23 40.57 31.35 40.57 31.48 40.6 31.6 40.7 31.73 40.71 31.86 41 32.11 40.91 32.24 40.75 32.36 40.75 32.49 40.75 32.61 40.75 32.74 40.75 32.87 40.8 32.99 40.8 33.25 40.9 33.37 40.84 33.5 40.86 33.62 40.87 33.75 41.05 33.88 41.08 34.13 41.09 34.26 41.13 34.38 41.13 34.51 41.13 34.76 41.02 35.01 41.32 35.14 41.23 35.27 41.16 35.39 41.16 35.77 41.17 35.9 41.17 36.02 41.18 36.15 41.18 36.28 41.27 36.4 41.28 36.53 41.29 36.65 41.39 36.91 41.39 37.03 41.39 37.29 41.39 37.41 41.4 37.54 41.43 37.66 41.43 37.92 41.28 38.04 41.36 38.17 41.38 38.3 41.31 38.42 41.33 38.55 41.34 38.67 41.35 38.8 41.37 38.93 41.37 39.05 41.38 39.18 41.88 39.31 41.88 39.43 41.88 39.68 41.35 39.81 41.35 39.94 41.44 40.06 41.44 40.19 41.52 40.32 41.47 40.44 41.48 40.57 41.57 40.82 41.93 40.95 42.05 41.2 42.06 41.33 42.06 41.45 42.06 41.96 42.06 42.34 42.04 42.46 42.05 42.59 41.98 42.71 42 42.84 42 42.97 42.08 43.09 42.15 43.22 42.23 43.35 42.23 43.6 42.23 43.72 42.16 43.85 42.17 43.98 42.17 44.1 42.17 44.23 42.25 44.36 42.25 44.61 42.17 44.73 42.18 44.86 42.18 44.99 42.19 45.11 42.07 45.24 42.21 45.37 42.21 45.49 42.23 45.87 42.32 46 42.32 46.12 42.26 46.25 42.27 46.38 42.27 46.5 42.27 46.63 42.29 46.75 42.29 46.88 42.29 47.01 42.3 47.13 42.3 47.26 42.38 47.39 42.3 47.51 42.31 47.64 42.33 47.76 42.33 47.89 42.33 48.02 42.41 48.14 42.33 48.27 42.42 48.4 42.34 48.52 42.36 48.65 42.37 48.77 42.37 48.9 42.37 49.03 42.37 49.15 42.37 49.28 42.38 49.41 42.38 49.53 42.39 49.91 42.39 50.54 42.43 50.67 42.44 50.79 42.44 50.92 42.45 51.05 42.45 51.17 42.47 51.3 42.47 51.8 42.58 51.93 42.51 52.56 42.52 52.81 42.52 52.94 42.52 53.07 42.6 53.19 42.53 53.32 42.53 53.44 42.54 53.57 42.62 53.95 42.56 54.08 42.57 54.33 42.59 54.45 42.53 54.58 42.53 54.96 42.6 55.21 42.54 55.59 42.56 56.1 42.64 56.35 42.59 56.73 42.62 57.61 42.66 58.12 42.7 58.24 42.71 58.37 42.71 58.49 42.81 58.62 42.74 58.75 42.74 59 42.74 59.13 42.82 59.25 42.82 59.38 42.84 59.5 42.78 59.63 42.78 59.76 42.78 60.01 42.8 60.14 42.81 60.26 42.81 60.77 42.86 60.89 42.85 61.02 42.85 61.27 42.86 61.52 42.88 61.65 42.88 62.03 42.89 62.66 42.89 63.29 42.92 63.92 43.12 64.05 43.06 64.18 43.06 64.3 43.07 64.43 43.01 64.68 43.01 64.93 43.01 65.44 43.02 65.56 43.03 65.69 43.1 65.82 43.1 65.94 43.11 66.07 43.1 66.2 43.11 67.71 43.17 67.96 43.17 68.09 43.19 68.34 43.25 68.85 43.25 69.1 43.25 69.35 43.26 69.86 43.26 70.11 43.27 70.24 43.28 70.49 43.3 70.61 43.3 70.74 43.3 70.87 43.32 70.99 43.32 71.12 43.32 71.37 43.32 71.5 43.33 71.75 43.38 72 43.34 72.13 43.35 72.26 43.35 72.51 43.42 72.63 43.37 73.26 43.44 73.77 43.44 73.9 43.45 74.91 43.47 75.03 43.47 75.16 43.47 75.54 43.53 75.66 43.54 75.79 43.49 76.04 43.49 76.29 43.49 76.55 43.55 77.68 43.52"/>
      </g>
      <g stroke-width="0.3" fill="#000000" fill-opacity="0.000" class="geometry color_oldfull_fail" stroke-dasharray="none" stroke="#FFA500" id="fig-a2b6c043b4c44d339ff8c98f2f4663eb-element-17">
        <path fill="none" d="M21.63,41.4 L 21.76 41.4 21.88 42.15 22.01 41 22.14 41.1 22.26 41.94 22.39 41.73 22.52 41.95 22.77 40.49 22.89 40.51 23.15 40.42 23.4 40.87 23.53 40.66 23.78 40.97 23.9 40.88 24.79 41.15 25.17 41.15 25.42 41.15 26.3 41.06 26.43 40.89 26.56 39.91 26.68 39.91 26.81 40.41 26.93 40.41 27.06 40.71 27.19 40.71 27.31 40.71 27.44 41.11 27.57 41.11 27.69 41.65 27.94 41.66 28.07 41.56 28.2 41.36 28.32 41.49 28.45 41.49 28.58 41.69 28.7 41.7 28.83 41.7 28.95 41.5 29.08 41.89 29.21 41.8 29.33 41.71 29.46 41.52 29.58 45.71 29.71 41.92 29.84 41.45 29.96 41.65 30.72 41.54 30.85 41.93 30.97 42.32 31.1 42.33 31.23 42.25 31.35 42.63 31.48 42.55 31.6 42.55 31.73 42.65 31.86 42.94 32.11 42.48 32.24 42.59 32.36 42.77 32.49 42.59 32.61 42.77 32.74 42.77 32.87 42.44 32.99 42.53 33.25 42.9 33.37 42.91 33.5 42.92 33.62 42.84 33.75 42.75 33.88 42.95 34.13 42.95 34.26 43.07 34.38 43.15 34.51 43.15 34.76 43.02 35.01 42.44 35.14 42.87 35.27 42.79 35.39 42.79 35.77 42.8 35.9 42.8 36.02 42.55 36.15 42.72 36.28 42.63 36.4 42.64 36.53 42.82 36.65 42.74 36.91 42.83 37.03 42.91 37.29 42.91 37.41 42.92 37.54 42.94 37.66 42.94 37.92 42.95 38.04 42.95 38.17 42.96 38.3 42.89 38.42 42.9 38.55 42.82 38.67 42.99 38.8 42.84 38.93 42.76 39.05 42.77 39.18 42.61 39.31 42.53 39.43 42.61 39.68 42.48 39.81 42.56 39.94 42.81 40.06 42.57 40.19 42.57 40.32 42.67 40.44 42.44 40.57 42.53 40.82 42.84 40.95 42.78 41.2 42.79 41.33 42.79 41.45 42.79 41.96 42.79 42.34 42.76 42.46 42.69 42.59 42.77 42.71 42.63 42.84 42.63 42.97 42.87 43.09 42.54 43.22 42.46 43.35 42.46 43.6 42.54 43.72 42.7 43.85 42.63 43.98 42.71 44.1 42.71 44.23 42.56 44.36 42.71 44.61 42.86 44.73 42.87 44.86 42.87 44.99 42.88 45.11 42.8 45.24 42.97 45.37 42.97 45.49 42.98 45.87 42.55 46 42.77 46.12 42.79 46.25 42.94 46.38 42.79 46.5 42.94 46.63 42.96 46.75 42.88 46.88 42.89 47.01 42.82 47.13 43.04 47.26 42.97 47.39 42.89 47.51 42.98 47.64 42.99 47.76 42.91 47.89 43.06 48.02 42.85 48.14 42.85 48.27 43 48.4 42.93 48.52 42.87 48.65 42.87 48.77 42.87 48.9 42.81 49.03 42.88 49.15 43.03 49.28 42.82 49.41 42.89 49.53 42.89 49.91 42.75 50.54 42.78 50.67 42.66 50.79 42.66 50.92 42.52 51.05 42.59 51.17 42.82 51.3 42.82 51.8 42.79 51.93 42.79 52.56 42.65 52.81 42.65 52.94 42.38 53.07 42.53 53.19 42.6 53.32 42.74 53.44 42.75 53.57 42.62 53.95 42.5 54.08 42.5 54.33 42.46 54.45 42.26 54.58 42.6 54.96 42.53 55.21 42.68 55.59 42.63 56.1 42.51 56.35 42.66 56.73 42.42 57.61 42.33 58.12 42.45 58.24 42.46 58.37 42.46 58.49 42.18 58.62 42.05 58.75 41.99 59 42.11 59.13 42.13 59.25 42.13 59.38 42.09 59.5 41.91 59.63 42.22 59.76 42.22 60.01 42.24 60.14 42.25 60.26 42.32 60.77 42.19 60.89 42.3 61.02 42.12 61.27 42.56 61.52 42.58 61.65 42.52 62.03 42.41 62.66 42.41 63.29 42.51 63.92 42.06 64.05 41.83 64.18 41.89 64.3 41.84 64.43 42.14 64.68 42.08 64.93 42.14 65.44 41.92 65.56 41.99 65.69 42.17 65.82 42.05 65.94 42.12 66.07 42 66.2 42.19 67.71 42.14 67.96 42.2 68.09 42.04 68.34 42.21 68.85 42.34 69.1 42.28 69.35 42.01 69.86 42.18 70.11 42.08 70.24 42.54 70.49 42.68 70.61 42.51 70.74 42.58 70.87 42.48 70.99 42.54 71.12 42.77 71.37 42.6 71.5 42.55 71.75 42.72 72 42.68 72.13 42.58 72.26 42.7 72.51 42.6 72.63 42.55 73.26 42.41 73.77 42.58 73.9 42.59 74.91 42.67 75.03 42.72 75.16 42.67 75.54 42.9 75.66 42.9 75.79 42.85 76.04 42.6 76.29 42.7 76.55 42.66 77.68 42.79"/>
      </g>
      <g stroke-width="0.3" fill="#000000" fill-opacity="0.000" class="geometry color_newtests_pass" stroke-dasharray="none" stroke="#008000" id="fig-a2b6c043b4c44d339ff8c98f2f4663eb-element-18">
        <path fill="none" d="M21.63,32.16 L 21.76 32.16 21.88 32.93 22.01 32.41 22.14 32.41 22.26 33.14 22.39 33.35 22.52 33.19 22.77 33.08 22.89 33.02 23.15 32.96 23.4 32.63 23.53 32.84 23.78 32.43 23.9 32.47 24.79 31.93 25.17 31.93 25.42 31.93 26.3 32.08 26.43 32.07 26.56 33.21 26.68 33.21 26.81 32.61 26.93 32.61 27.06 32.41 27.19 32.41 27.31 32.41 27.44 31.91 27.57 31.91 27.69 31.45 27.94 31.3 28.07 30.9 28.2 30.9 28.32 30.6 28.45 30.6 28.58 30.11 28.7 29.96 28.83 30.06 28.95 30.16 29.08 29.77 29.21 29.87 29.33 29.82 29.46 30.01 29.58 26.98 29.71 29.48 29.84 29.92 29.96 29.68 30.72 29.5 30.85 29.07 30.97 28.65 31.1 28.52 31.23 28.62 31.35 28.25 31.48 28.44 31.6 28.35 31.73 28.31 31.86 29.47 32.11 28.27 32.24 28.19 32.36 28 32.49 28.19 32.61 28 32.74 28 32.87 28.25 32.99 28.16 33.25 27.67 33.37 27.68 33.5 27.73 33.62 27.79 33.75 27.7 33.88 27.44 34.13 27.41 34.26 27.39 34.38 27.3 34.51 27.3 34.76 27.64 35.01 29.6 35.14 29.34 35.27 27.67 35.39 27.75 35.77 27.55 35.9 27.55 36.02 27.77 36.15 27.6 36.28 27.51 36.4 27.39 36.53 27.27 36.65 27.24 36.91 27.15 37.03 26.98 37.29 27.07 37.41 26.95 37.54 26.85 37.66 26.85 37.92 26.98 38.04 26.9 38.17 27 38.3 27.05 38.42 27.02 38.55 27.15 38.67 26.95 38.8 27.21 38.93 27.3 39.05 27.18 39.18 29.1 39.31 28.69 39.43 28.61 39.68 27.37 39.81 27.21 39.94 26.94 40.06 27.1 40.19 27.1 40.32 27 40.44 27.05 40.57 27.1 40.82 26.26 40.95 26.17 41.2 26.27 41.33 26.27 41.45 26.27 41.96 26.27 42.34 25.85 42.46 25.91 42.59 25.88 42.71 25.9 42.84 25.82 42.97 25.5 43.09 25.67 43.22 25.67 43.35 25.67 43.6 25.83 43.72 25.72 43.85 25.85 43.98 25.7 44.1 25.77 44.23 25.98 44.36 25.82 44.61 25.7 44.73 25.59 44.86 25.59 44.99 25.61 45.11 25.9 45.24 25.56 45.37 25.48 45.49 25.43 45.87 25.76 46 25.6 46.12 25.63 46.25 25.38 46.38 25.53 46.5 25.38 46.63 25.32 46.75 25.4 46.88 25.52 47.01 25.64 47.13 25.5 47.26 25.64 47.39 25.64 47.51 25.54 47.64 25.49 47.76 25.57 47.89 25.42 48.02 25.61 48.14 25.61 48.27 25.44 48.4 25.51 48.52 25.61 48.65 25.51 48.77 25.51 48.9 25.56 49.03 25.41 49.15 25.27 49.28 25.39 49.41 25.31 49.53 25.51 49.91 25.36 50.54 25.31 50.67 25.4 50.79 25.4 50.92 25.45 51.05 25.31 51.17 25.16 51.3 25.16 51.8 25.12 51.93 25.12 52.56 25.23 52.81 25.23 52.94 25.83 53.07 25.39 53.19 25.18 53.32 25.05 53.44 25 53.57 25.11 53.95 25.34 54.08 25.32 54.33 25.38 54.45 25.56 54.58 25.23 54.96 25.23 55.21 25.04 55.59 25.07 56.1 25.09 56.35 24.96 56.73 25.13 57.61 25.19 58.12 25.11 58.24 25.06 58.37 25.06 58.49 25.52 58.62 25.71 58.75 25.71 59 25.59 59.13 25.54 59.25 25.54 59.38 25.6 59.5 25.77 59.63 25.45 59.76 25.45 60.01 25.45 60.14 25.41 60.26 25.33 60.77 25.52 60.89 25.44 61.02 25.63 61.27 25.2 61.52 25.2 61.65 25.26 62.03 25.34 62.66 25.34 63.29 25.1 63.92 27.02 64.05 26.72 64.18 26.25 64.3 25.97 64.43 25.68 64.68 25.8 64.93 25.74 65.44 25.93 65.56 25.89 65.69 25.63 65.82 25.75 65.94 25.65 66.07 25.73 66.2 25.63 67.71 25.73 67.96 25.67 68.09 25.66 68.34 25.44 68.85 25.42 69.1 25.36 69.35 25.64 69.86 25.47 70.11 25.54 70.24 25.13 70.49 25.03 70.61 25.2 70.74 25.13 70.87 25.13 70.99 25.18 71.12 24.94 71.37 25.09 71.5 25.07 71.75 24.9 72 24.98 72.13 25.14 72.26 25.01 72.51 24.98 72.63 25.12 73.26 25.21 73.77 25.07 73.9 25.08 74.91 25.17 75.03 25.23 75.16 25.28 75.54 24.96 75.66 24.94 75.79 24.92 76.04 25.1 76.29 25.05 76.55 25.03 77.68 24.79"/>
      </g>
    </g>
  </g>
  <g class="guide ylabels" font-size="2.82" font-family="'PT Sans Caption','Helvetica Neue','Helvetica',sans-serif" fill="#6C606B" id="fig-a2b6c043b4c44d339ff8c98f2f4663eb-element-19">
    <text x="18.63" y="45.71" text-anchor="end" dy="0.35em">0</text>
    <text x="18.63" y="30.16" text-anchor="end" dy="0.35em">50</text>
    <text x="18.63" y="14.61" text-anchor="end" dy="0.35em">100</text>
  </g>
  <g font-size="3.88" font-family="'PT Sans','Helvetica Neue','Helvetica',sans-serif" fill="#564A55" stroke="#000000" stroke-opacity="0.000" id="fig-a2b6c043b4c44d339ff8c98f2f4663eb-element-20">
    <text x="8.81" y="28.16" text-anchor="middle" dy="0.35em" transform="rotate(-90, 8.81, 30.16)">Percentage of Packages</text>
  </g>
  <g font-size="3.88" font-family="'PT Sans','Helvetica Neue','Helvetica',sans-serif" fill="#564A55" stroke="#000000" stroke-opacity="0.000" id="fig-a2b6c043b4c44d339ff8c98f2f4663eb-element-21">
    <text x="58.12" y="10.61" text-anchor="middle">Julia v0.3 (relative)</text>
  </g>
</g>
<defs>
<clipPath id="fig-a2b6c043b4c44d339ff8c98f2f4663eb-element-5">
  <path d="M19.63,12.61 L 96.6 12.61 96.6 47.71 19.63 47.71" />
</clipPath
></defs>
</svg>
