<?xml version="1.0" encoding="UTF-8"?>
<svg xmlns="http://www.w3.org/2000/svg"
     xmlns:xlink="http://www.w3.org/1999/xlink"
     xmlns:gadfly="http://www.gadflyjl.org/ns"
     version="1.2"
     width="101.6mm" height="76.2mm" viewBox="0 0 101.6 76.2"
     stroke="none"
     fill="#000000"
     stroke-width="0.3"
     font-size="3.88"
>
<g class="plotroot xscalable yscalable" id="img-1ec5bb65-1">
  <g font-size="3.88" font-family="'PT Sans','Helvetica Neue','Helvetica',sans-serif" fill="#564A55" stroke="#000000" stroke-opacity="0.000" id="img-1ec5bb65-2">
    <text x="58.12" y="64.59" text-anchor="middle" dy="0.6em">Date</text>
  </g>
  <g class="guide xlabels" font-size="2.82" font-family="'PT Sans Caption','Helvetica Neue','Helvetica',sans-serif" fill="#6C606B" id="img-1ec5bb65-3">
    <text x="21.87" y="48.71" text-anchor="end" dy="0.35em" transform="rotate(-90, 21.87, 48.71)">Apr</text>
    <text x="25.43" y="48.71" text-anchor="end" dy="0.35em" transform="rotate(-90, 25.43, 48.71)">May</text>
    <text x="29.12" y="48.71" text-anchor="end" dy="0.35em" transform="rotate(-90, 29.12, 48.71)">Jun</text>
    <text x="32.68" y="48.71" text-anchor="end" dy="0.35em" transform="rotate(-90, 32.68, 48.71)">Jul</text>
    <text x="36.37" y="48.71" text-anchor="end" dy="0.35em" transform="rotate(-90, 36.37, 48.71)">Aug</text>
    <text x="40.05" y="48.71" text-anchor="end" dy="0.35em" transform="rotate(-90, 40.05, 48.71)">Sep</text>
    <text x="43.62" y="48.71" text-anchor="end" dy="0.35em" transform="rotate(-90, 43.62, 48.71)">Oct</text>
    <text x="47.3" y="48.71" text-anchor="end" dy="0.35em" transform="rotate(-90, 47.3, 48.71)">Nov</text>
    <text x="50.87" y="48.71" text-anchor="end" dy="0.35em" transform="rotate(-90, 50.87, 48.71)">Dec</text>
    <text x="54.55" y="48.71" text-anchor="end" dy="0.35em" transform="rotate(-90, 54.55, 48.71)">Jan 2015</text>
    <text x="58.23" y="48.71" text-anchor="end" dy="0.35em" transform="rotate(-90, 58.23, 48.71)">Feb</text>
    <text x="61.56" y="48.71" text-anchor="end" dy="0.35em" transform="rotate(-90, 61.56, 48.71)">Mar</text>
    <text x="65.25" y="48.71" text-anchor="end" dy="0.35em" transform="rotate(-90, 65.25, 48.71)">Apr</text>
    <text x="68.81" y="48.71" text-anchor="end" dy="0.35em" transform="rotate(-90, 68.81, 48.71)">May</text>
    <text x="72.5" y="48.71" text-anchor="end" dy="0.35em" transform="rotate(-90, 72.5, 48.71)">Jun</text>
    <text x="76.06" y="48.71" text-anchor="end" dy="0.35em" transform="rotate(-90, 76.06, 48.71)">Jul</text>
    <text x="79.74" y="48.71" text-anchor="end" dy="0.35em" transform="rotate(-90, 79.74, 48.71)">Aug</text>
    <text x="83.43" y="48.71" text-anchor="end" dy="0.35em" transform="rotate(-90, 83.43, 48.71)">Sep</text>
    <text x="86.99" y="48.71" text-anchor="end" dy="0.35em" transform="rotate(-90, 86.99, 48.71)">Oct</text>
    <text x="90.68" y="48.71" text-anchor="end" dy="0.35em" transform="rotate(-90, 90.68, 48.71)">Nov</text>
    <text x="94.24" y="48.71" text-anchor="end" dy="0.35em" transform="rotate(-90, 94.24, 48.71)">Dec</text>
  </g>
<g clip-path="url(#img-1ec5bb65-4)">
  <g id="img-1ec5bb65-5">
    <g pointer-events="visible" opacity="1" fill="#000000" fill-opacity="0.000" stroke="#000000" stroke-opacity="0.000" class="guide background" id="img-1ec5bb65-6">
      <rect x="19.63" y="12.61" width="76.97" height="35.1"/>
    </g>
    <g class="guide ygridlines xfixed" stroke-dasharray="0.5,0.5" stroke-width="0.2" stroke="#D0D0E0" id="img-1ec5bb65-7">
      <path fill="none" d="M19.63,45.71 L 96.6 45.71"/>
      <path fill="none" d="M19.63,30.16 L 96.6 30.16"/>
      <path fill="none" d="M19.63,14.61 L 96.6 14.61"/>
    </g>
    <g class="guide xgridlines yfixed" stroke-dasharray="0.5,0.5" stroke-width="0.2" stroke="#D0D0E0" id="img-1ec5bb65-8">
      <path fill="none" d="M21.87,12.61 L 21.87 47.71"/>
      <path fill="none" d="M25.43,12.61 L 25.43 47.71"/>
      <path fill="none" d="M29.12,12.61 L 29.12 47.71"/>
      <path fill="none" d="M32.68,12.61 L 32.68 47.71"/>
      <path fill="none" d="M36.37,12.61 L 36.37 47.71"/>
      <path fill="none" d="M40.05,12.61 L 40.05 47.71"/>
      <path fill="none" d="M43.62,12.61 L 43.62 47.71"/>
      <path fill="none" d="M47.3,12.61 L 47.3 47.71"/>
      <path fill="none" d="M50.87,12.61 L 50.87 47.71"/>
      <path fill="none" d="M54.55,12.61 L 54.55 47.71"/>
      <path fill="none" d="M58.23,12.61 L 58.23 47.71"/>
      <path fill="none" d="M61.56,12.61 L 61.56 47.71"/>
      <path fill="none" d="M65.25,12.61 L 65.25 47.71"/>
      <path fill="none" d="M68.81,12.61 L 68.81 47.71"/>
      <path fill="none" d="M72.5,12.61 L 72.5 47.71"/>
      <path fill="none" d="M76.06,12.61 L 76.06 47.71"/>
      <path fill="none" d="M79.74,12.61 L 79.74 47.71"/>
      <path fill="none" d="M83.43,12.61 L 83.43 47.71"/>
      <path fill="none" d="M86.99,12.61 L 86.99 47.71"/>
      <path fill="none" d="M90.68,12.61 L 90.68 47.71"/>
      <path fill="none" d="M94.24,12.61 L 94.24 47.71"/>
    </g>
    <g class="plotpanel" id="img-1ec5bb65-9">
      <g stroke-width="0.3" fill="#000000" fill-opacity="0.000" class="geometry color_newnot_possible" stroke-dasharray="none" stroke="#808080" id="img-1ec5bb65-10">
        <path fill="none" d="M74.75,42.94 L 74.87 42.94 74.99 42.95 75.11 42.95 75.23 42.96 75.35 42.96 75.47 42.96 75.59 42.96 75.94 42.96 76.18 42.97 76.42 43.02 76.54 42.98 76.66 42.99 76.77 43 76.89 43.01 77.01 43.01 79.03 43.02 79.98 43.04 81.05 43.06 83.07 43.12 83.43 43.12 84.02 42.99 84.62 42.85 86.52 42.89 86.99 42.92 87.59 42.93 88.06 42.94 88.54 42.94 88.9 42.91 90.32 42.91 91.75 42.87 92.22 42.86 92.46 42.82 93.53 42.82 93.65 42.82 94.48 42.83 94.6 42.84"/>
      </g>
      <g stroke-width="0.3" fill="#000000" fill-opacity="0.000" class="geometry color_newno_tests" stroke-dasharray="none" stroke="#0000FF" id="img-1ec5bb65-11">
        <path fill="none" d="M74.75,40.12 L 74.87 40.12 74.99 40.13 75.11 40.13 75.23 40.15 75.35 40.15 75.47 40.15 75.59 40.16 75.94 40.16 76.18 40.18 76.42 40.17 76.54 40.19 76.66 40.28 76.77 40.3 76.89 40.3 77.01 40.36 79.03 40.43 79.98 40.47 81.05 40.51 83.07 40.62 83.43 40.69 84.02 40.69 84.62 40.76 86.52 40.97 86.99 41.15 87.59 41.27 88.06 41.27 88.54 41.29 88.9 41.34 90.32 41.4 91.75 41.49 92.22 41.48 92.46 41.49 93.53 41.49 93.65 41.49 94.48 41.51 94.6 41.51"/>
      </g>
      <g stroke-width="0.3" fill="#000000" fill-opacity="0.000" class="geometry color_newtests_fail" stroke-dasharray="none" stroke="#FF0000" id="img-1ec5bb65-12">
        <path fill="none" d="M74.75,42.78 L 74.87 42.62 74.99 42.58 75.11 42.53 75.23 42.44 75.35 42.59 75.47 42.39 75.59 42.55 75.94 42.44 76.18 42.4 76.42 42.35 76.54 42.51 76.66 40.89 76.77 42.44 76.89 42.14 77.01 42.19 79.03 42.47 79.98 42.54 81.05 42.18 83.07 41.44 83.43 41.69 84.02 41.98 84.62 42.23 86.52 42.24 86.99 42.03 87.59 42.24 88.06 42.29 88.54 42.16 88.9 42.17 90.32 42.08 91.75 42 92.22 42.31 92.46 42.32 93.53 42.37 93.65 42.32 94.48 42.47 94.6 42.43"/>
      </g>
      <g stroke-width="0.3" fill="#000000" fill-opacity="0.000" class="geometry color_newtests_pass" stroke-dasharray="none" stroke="#008000" id="img-1ec5bb65-13">
        <path fill="none" d="M74.75,25.9 L 74.87 26.06 74.99 26.07 75.11 26.12 75.23 26.19 75.35 26.03 75.47 26.24 75.59 26.07 75.94 26.17 76.18 26.18 76.42 26.2 76.54 26.06 76.66 27.57 76.77 26 76.89 26.29 77.01 26.18 79.03 25.82 79.98 25.69 81.05 25.99 83.07 26.56 83.43 26.24 84.02 26.08 84.62 25.9 86.52 25.63 86.99 25.64 87.59 25.3 88.06 25.24 88.54 25.35 88.9 25.31 90.32 25.34 91.75 25.37 92.22 25.08 92.46 25.1 93.53 25.05 93.65 25.1 94.48 24.93 94.6 24.96"/>
      </g>
      <g stroke-width="0.3" fill="#000000" fill-opacity="0.000" class="geometry color_newnot_possible" stroke-dasharray="none" stroke="#808080" id="img-1ec5bb65-14">
        <path fill="none" d="M21.63,42.35 L 21.75 42.35 21.87 42.36 21.99 42.36 22.11 42.36 22.23 42.36 22.34 42.36 22.46 42.37 22.7 42.37 22.82 42.38 23.06 42.39 23.3 42.41 23.41 42.41 23.65 42.41 23.77 42.42 24.6 42.47 24.96 42.47 25.2 42.47 26.03 42.58 26.15 42.6 26.27 42.61 26.39 42.61 26.5 42.61 26.62 42.51 26.74 42.51 26.86 42.51 26.98 42.51 27.1 42.31 27.22 42.31 27.34 42.34 27.57 42.25 27.69 42.94 27.81 42.94 27.93 42.96 28.05 42.96 28.17 42.96 28.29 42.97 28.41 42.97 28.52 42.97 28.64 42.97 28.76 42.97 28.88 42.98 29 42.98 29.12 42.59 29.24 42.99 29.36 43 29.48 43 30.19 42.58 30.31 42.49 30.43 42.5 30.54 42.51 30.66 42.53 30.78 42.44 30.9 42.27 31.02 42.27 31.14 42.28 31.26 42.29 31.5 42.29 31.61 42.31 31.73 42.31 31.85 42.31 31.97 42.31 32.09 42.31 32.21 42.34 32.33 42.34 32.57 42.35 32.68 42.37 32.8 42.38 32.92 42.39 33.04 42.39 33.16 42.41 33.4 42.42 33.52 42.45 33.63 42.45 33.75 42.45 33.99 42.49 34.23 42.52 34.35 42.52 34.47 42.53 34.59 42.53 34.94 42.54 35.06 42.54 35.18 42.55 35.3 42.55 35.42 42.55 35.54 42.56 35.65 42.48 35.77 42.49 36.01 42.49 36.13 42.49 36.37 42.49 36.49 42.5 36.61 42.52 36.72 42.52 36.96 42.53 37.08 42.53 37.2 42.55 37.32 42.56 37.44 42.57 37.56 42.57 37.68 42.58 37.79 42.6 37.91 42.52 38.03 42.44 38.15 42.45 38.27 42.45 38.39 42.45 38.63 42.48 38.74 42.48 38.86 42.49 38.98 42.49 39.1 42.49 39.22 42.51 39.34 42.52 39.46 42.53 39.7 42.43 39.81 42.37 40.05 42.39 40.17 42.39 40.29 42.31 40.77 42.31 41.12 42.36 41.24 42.37 41.36 42.38 41.48 42.39 41.6 42.39 41.72 42.39 41.83 42.46 41.95 42.46 42.07 42.46 42.31 42.38 42.43 42.39 42.55 42.4 42.67 42.4 42.79 42.4 42.9 42.41 43.02 42.33 43.26 42.32 43.38 42.33 43.5 42.33 43.62 42.35 43.74 42.29 43.85 42.29 43.97 42.29 44.09 42.3 44.45 42.32 44.57 42.24 44.69 42.26 44.81 42.27 44.92 42.27 45.04 42.27 45.16 42.29 45.28 42.29 45.4 42.29 45.52 42.3 45.64 42.23 45.76 42.23 45.88 42.23 45.99 42.24 46.11 42.25 46.23 42.25 46.35 42.25 46.47 42.26 46.59 42.26 46.71 42.27 46.83 42.27 46.94 42.29 47.06 42.29 47.18 42.29 47.3 42.3 47.42 42.3 47.54 42.3 47.66 42.31 47.78 42.31 47.9 42.32 48.25 42.32 48.85 42.36 48.97 42.37 49.08 42.37 49.2 42.38 49.32 42.38 49.44 42.4 49.56 42.4 50.03 42.44 50.15 42.44 50.75 42.45 50.99 42.45 51.1 42.52 51.22 42.53 51.34 42.53 51.46 42.53 51.58 42.54 51.7 42.55 52.05 42.56 52.17 42.57 52.41 42.59 52.53 42.6 52.65 42.6 53.01 42.6 53.24 42.61 53.6 42.63 54.08 42.64 54.31 42.66 54.67 42.68 55.5 42.72 55.98 42.77 56.1 42.65 56.21 42.65 56.33 42.62 56.45 42.62 56.57 42.62 56.81 42.62 56.93 42.63 57.05 42.63 57.17 42.65 57.28 42.65 57.4 42.65 57.52 42.65 57.76 42.61 57.88 42.62 58 42.63 58.47 42.68 58.59 42.67 58.71 42.67 58.95 42.68 59.19 42.7 59.3 42.7 59.66 42.71 60.25 42.71 60.85 42.75 61.44 42.77 61.56 42.77 61.68 42.77 61.8 42.37 61.92 42.43 62.16 42.37 62.39 42.37 62.87 42.38 62.99 42.4 63.11 42.4 63.23 42.4 63.34 42.41 63.46 42.47 63.58 42.42 65.01 42.37 65.25 42.31 65.37 42.33 65.6 42.33 66.08 42.34 66.32 42.34 66.55 42.35 67.03 42.35 67.27 42.37 67.39 42.37 67.62 42.4 67.74 42.4 67.86 42.41 67.98 42.43 68.1 42.43 68.22 42.43 68.45 42.44 68.57 42.44 68.81 42.44 69.05 42.46 69.17 42.47 69.29 42.48 69.52 42.49 69.64 42.5 70.24 42.52 70.71 42.58 70.83 42.54 71.78 42.56 71.9 42.45 72.02 42.45 72.38 42.47 72.5 42.48 72.61 42.54 72.85 42.55 73.09 42.55 73.33 42.55 74.4 42.58"/>
      </g>
      <g stroke-width="0.3" fill="#000000" fill-opacity="0.000" class="geometry color_newtests_fail" stroke-dasharray="none" stroke="#FF0000" id="img-1ec5bb65-15">
        <path fill="none" d="M21.63,41.51 L 21.75 41.51 21.87 39.95 21.99 41.62 22.11 41.52 22.23 39.84 22.34 39.84 22.46 39.86 22.7 41.53 22.82 41.55 23.06 41.67 23.3 41.69 23.41 41.69 23.65 41.8 23.77 41.81 24.6 41.96 24.96 41.96 25.2 41.96 26.03 41.87 26.15 42 26.27 41.81 26.39 41.81 26.5 41.91 26.62 42.01 26.74 41.91 26.86 41.91 26.98 41.91 27.1 42.01 27.22 42.01 27.34 41.85 27.57 41.96 27.69 41.76 27.81 41.96 27.93 42.18 28.05 42.18 28.17 42.27 28.29 42.29 28.41 42.19 28.52 42.29 28.64 42.29 28.76 42.29 28.88 42.39 29 42.39 29.12 42.81 29.24 42.79 29.36 42.8 29.48 42.81 30.19 43.43 30.31 43.53 30.43 43.54 30.54 43.55 30.66 43.47 30.78 43.56 30.9 43.57 31.02 43.57 31.14 43.49 31.26 41.74 31.5 43.49 31.61 43.6 31.73 43.6 31.85 43.6 31.97 43.6 32.09 43.6 32.21 43.62 32.33 43.62 32.57 43.62 32.68 43.64 32.8 43.55 32.92 43.56 33.04 43.56 33.16 43.57 33.4 43.58 33.52 43.42 33.63 43.42 33.75 43.42 33.99 43.28 34.23 41.57 34.35 41.49 34.47 43.3 34.59 43.22 34.94 43.4 35.06 43.4 35.18 43.4 35.3 43.4 35.42 43.49 35.54 43.58 35.65 43.58 35.77 43.59 36.01 43.59 36.13 43.67 36.37 43.59 36.49 43.68 36.61 43.7 36.72 43.7 36.96 43.7 37.08 43.7 37.2 43.55 37.32 43.64 37.44 43.64 37.56 43.56 37.68 43.57 37.79 43.42 37.91 43.5 38.03 43.67 38.15 41.39 38.27 41.88 38.39 41.88 38.63 43.77 38.74 43.85 38.86 43.77 38.98 43.86 39.1 43.77 39.22 43.79 39.34 43.95 39.46 43.72 39.7 43.99 39.81 44.08 40.05 43.93 40.17 43.93 40.29 44.01 40.77 44.01 41.12 44.43 41.24 44.44 41.36 44.44 41.48 44.52 41.6 44.6 41.72 44.6 41.83 44.63 41.95 44.63 42.07 44.63 42.31 44.47 42.43 44.47 42.55 44.4 42.67 44.48 42.79 44.4 42.9 44.25 43.02 44.33 43.26 44.4 43.38 44.48 43.5 44.48 43.62 44.41 43.74 44.4 43.85 44.42 43.97 44.49 44.09 44.5 44.45 44.5 44.57 44.5 44.69 44.51 44.81 44.59 44.92 44.59 45.04 44.59 45.16 44.59 45.28 44.59 45.4 44.45 45.52 44.38 45.64 44.38 45.76 44.23 45.88 44.38 45.99 44.38 46.11 44.39 46.23 44.39 46.35 44.39 46.47 44.31 46.59 44.39 46.71 44.32 46.83 44.39 46.94 44.32 47.06 44.4 47.18 44.4 47.3 44.4 47.42 44.48 47.54 44.48 47.66 44.55 47.78 44.55 47.9 44.34 48.25 44.63 48.85 44.57 48.97 44.57 49.08 44.57 49.2 44.65 49.32 44.72 49.44 44.58 49.56 44.58 50.03 44.53 50.15 44.6 50.75 44.6 50.99 44.6 51.1 44.18 51.22 44.4 51.34 44.6 51.46 44.6 51.58 44.61 51.7 44.54 52.05 44.48 52.17 44.48 52.41 44.42 52.53 44.49 52.65 44.49 53.01 44.49 53.24 44.56 53.6 44.57 54.08 44.57 54.31 44.58 54.67 44.59 55.5 44.54 55.98 44.43 56.1 44.56 56.21 44.56 56.33 44.32 56.45 44.32 56.57 44.38 56.81 44.38 56.93 44.33 57.05 44.33 57.17 44.27 57.28 44.34 57.4 44.34 57.52 44.34 57.76 44.35 57.88 44.35 58 44.35 58.47 44.19 58.59 44.19 58.71 44.19 58.95 44.14 59.19 44.08 59.3 44.08 59.66 44.09 60.25 44.09 60.85 44.17 61.44 42.48 61.56 43.06 61.68 43.47 61.8 44.19 61.92 44.19 62.16 44.19 62.39 44.19 62.87 44.19 62.99 44.14 63.11 44.14 63.23 44.14 63.34 44.15 63.46 44.14 63.58 44.09 65.01 44.04 65.25 44.1 65.37 44.22 65.6 44.22 66.08 44.11 66.32 44.22 66.55 44.17 67.03 44.17 67.27 44.18 67.39 44.13 67.62 44.03 67.74 44.03 67.86 44.03 67.98 44.1 68.1 43.98 68.22 43.99 68.45 43.99 68.57 44.05 68.81 43.99 69.05 44 69.17 43.9 69.29 43.9 69.52 43.96 69.64 43.91 70.24 43.87 70.71 43.77 70.83 43.77 71.78 43.57 71.9 43.57 72.02 43.57 72.38 43.59 72.5 43.59 72.61 43.65 72.85 43.71 73.09 43.65 73.33 43.66 74.4 43.78"/>
      </g>
      <g stroke-width="0.3" fill="#000000" fill-opacity="0.000" class="geometry color_newno_tests" stroke-dasharray="none" stroke="#0000FF" id="img-1ec5bb65-16">
        <path fill="none" d="M21.63,40.04 L 21.75 40.04 21.87 40.05 21.99 40.05 22.11 40.05 22.23 40.16 22.34 40.16 22.46 40.07 22.7 39.97 22.82 39.99 23.06 40.01 23.3 39.84 23.41 39.84 23.65 39.84 23.77 39.86 24.6 39.93 24.96 39.93 25.2 39.93 26.03 39.85 26.15 39.89 26.27 39.91 26.39 39.91 26.5 39.91 26.62 39.91 26.74 39.91 26.86 39.91 26.98 39.91 27.1 40.11 27.22 40.11 27.34 40.16 27.57 40.28 27.69 40.28 27.81 40.28 27.93 40.21 28.05 40.21 28.17 40.41 28.29 40.53 28.41 40.53 28.52 40.53 28.64 40.53 28.76 40.53 28.88 40.54 29 40.54 29.12 39.36 29.24 40.27 29.36 40.28 29.48 40.3 30.19 40.4 30.31 40.42 30.43 40.43 30.54 40.54 30.66 40.57 30.78 40.57 30.9 40.6 31.02 40.7 31.14 40.71 31.26 41 31.5 40.91 31.61 40.75 31.73 40.75 31.85 40.75 31.97 40.75 32.09 40.75 32.21 40.8 32.33 40.8 32.57 40.9 32.68 40.84 32.8 40.86 32.92 40.87 33.04 41.05 33.16 41.08 33.4 41.09 33.52 41.13 33.63 41.13 33.75 41.13 33.99 41.02 34.23 41.32 34.35 41.23 34.47 41.16 34.59 41.16 34.94 41.17 35.06 41.17 35.18 41.18 35.3 41.18 35.42 41.27 35.54 41.28 35.65 41.29 35.77 41.39 36.01 41.39 36.13 41.39 36.37 41.39 36.49 41.4 36.61 41.43 36.72 41.43 36.96 41.28 37.08 41.36 37.2 41.38 37.32 41.31 37.44 41.33 37.56 41.34 37.68 41.35 37.79 41.37 37.91 41.37 38.03 41.38 38.15 41.88 38.27 41.88 38.39 41.88 38.63 41.35 38.74 41.35 38.86 41.44 38.98 41.44 39.1 41.52 39.22 41.47 39.34 41.48 39.46 41.57 39.7 41.93 39.81 42.05 40.05 42.06 40.17 42.06 40.29 42.06 40.77 42.06 41.12 42.04 41.24 42.05 41.36 41.98 41.48 42 41.6 42 41.72 42.08 41.83 42.15 41.95 42.23 42.07 42.23 42.31 42.23 42.43 42.16 42.55 42.17 42.67 42.17 42.79 42.17 42.9 42.25 43.02 42.25 43.26 42.17 43.38 42.18 43.5 42.18 43.62 42.19 43.74 42.07 43.85 42.21 43.97 42.21 44.09 42.23 44.45 42.32 44.57 42.32 44.69 42.26 44.81 42.27 44.92 42.27 45.04 42.27 45.16 42.29 45.28 42.29 45.4 42.29 45.52 42.3 45.64 42.3 45.76 42.38 45.88 42.3 45.99 42.31 46.11 42.33 46.23 42.33 46.35 42.33 46.47 42.41 46.59 42.33 46.71 42.42 46.83 42.34 46.94 42.36 47.06 42.37 47.18 42.37 47.3 42.37 47.42 42.37 47.54 42.37 47.66 42.38 47.78 42.38 47.9 42.39 48.25 42.39 48.85 42.43 48.97 42.44 49.08 42.44 49.2 42.45 49.32 42.45 49.44 42.47 49.56 42.47 50.03 42.58 50.15 42.51 50.75 42.52 50.99 42.52 51.1 42.52 51.22 42.6 51.34 42.53 51.46 42.53 51.58 42.54 51.7 42.62 52.05 42.56 52.17 42.57 52.41 42.59 52.53 42.53 52.65 42.53 53.01 42.6 53.24 42.54 53.6 42.56 54.08 42.64 54.31 42.59 54.67 42.62 55.5 42.66 55.98 42.7 56.1 42.71 56.21 42.71 56.33 42.81 56.45 42.74 56.57 42.74 56.81 42.74 56.93 42.82 57.05 42.82 57.17 42.84 57.28 42.78 57.4 42.78 57.52 42.78 57.76 42.8 57.88 42.81 58 42.81 58.47 42.86 58.59 42.85 58.71 42.85 58.95 42.86 59.19 42.88 59.3 42.88 59.66 42.89 60.25 42.89 60.85 42.92 61.44 43.12 61.56 43.06 61.68 43.06 61.8 43.07 61.92 43.01 62.16 43.01 62.39 43.01 62.87 43.02 62.99 43.03 63.11 43.1 63.23 43.1 63.34 43.11 63.46 43.1 63.58 43.11 65.01 43.17 65.25 43.17 65.37 43.19 65.6 43.25 66.08 43.25 66.32 43.25 66.55 43.26 67.03 43.26 67.27 43.27 67.39 43.28 67.62 43.3 67.74 43.3 67.86 43.3 67.98 43.32 68.1 43.32 68.22 43.32 68.45 43.32 68.57 43.33 68.81 43.38 69.05 43.34 69.17 43.35 69.29 43.35 69.52 43.42 69.64 43.37 70.24 43.44 70.71 43.44 70.83 43.45 71.78 43.47 71.9 43.47 72.02 43.47 72.38 43.53 72.5 43.54 72.61 43.49 72.85 43.49 73.09 43.49 73.33 43.55 74.4 43.52"/>
      </g>
      <g stroke-width="0.3" fill="#000000" fill-opacity="0.000" class="geometry color_oldfull_fail" stroke-dasharray="none" stroke="#FFA500" id="img-1ec5bb65-17">
        <path fill="none" d="M21.63,41.4 L 21.75 41.4 21.87 42.15 21.99 41 22.11 41.1 22.23 41.94 22.34 41.73 22.46 41.95 22.7 40.49 22.82 40.51 23.06 40.42 23.3 40.87 23.41 40.66 23.65 40.97 23.77 40.88 24.6 41.15 24.96 41.15 25.2 41.15 26.03 41.06 26.15 40.89 26.27 39.91 26.39 39.91 26.5 40.41 26.62 40.41 26.74 40.71 26.86 40.71 26.98 40.71 27.1 41.11 27.22 41.11 27.34 41.65 27.57 41.66 27.69 41.56 27.81 41.36 27.93 41.49 28.05 41.49 28.17 41.69 28.29 41.7 28.41 41.7 28.52 41.5 28.64 41.89 28.76 41.8 28.88 41.71 29 41.52 29.12 45.71 29.24 41.92 29.36 41.45 29.48 41.65 30.19 41.54 30.31 41.93 30.43 42.32 30.54 42.33 30.66 42.25 30.78 42.63 30.9 42.55 31.02 42.55 31.14 42.65 31.26 42.94 31.5 42.48 31.61 42.59 31.73 42.77 31.85 42.59 31.97 42.77 32.09 42.77 32.21 42.44 32.33 42.53 32.57 42.9 32.68 42.91 32.8 42.92 32.92 42.84 33.04 42.75 33.16 42.95 33.4 42.95 33.52 43.07 33.63 43.15 33.75 43.15 33.99 43.02 34.23 42.44 34.35 42.87 34.47 42.79 34.59 42.79 34.94 42.8 35.06 42.8 35.18 42.55 35.3 42.72 35.42 42.63 35.54 42.64 35.65 42.82 35.77 42.74 36.01 42.83 36.13 42.91 36.37 42.91 36.49 42.92 36.61 42.94 36.72 42.94 36.96 42.95 37.08 42.95 37.2 42.96 37.32 42.89 37.44 42.9 37.56 42.82 37.68 42.99 37.79 42.84 37.91 42.76 38.03 42.77 38.15 42.61 38.27 42.53 38.39 42.61 38.63 42.48 38.74 42.56 38.86 42.81 38.98 42.57 39.1 42.57 39.22 42.67 39.34 42.44 39.46 42.53 39.7 42.84 39.81 42.78 40.05 42.79 40.17 42.79 40.29 42.79 40.77 42.79 41.12 42.76 41.24 42.69 41.36 42.77 41.48 42.63 41.6 42.63 41.72 42.87 41.83 42.54 41.95 42.46 42.07 42.46 42.31 42.54 42.43 42.7 42.55 42.63 42.67 42.71 42.79 42.71 42.9 42.56 43.02 42.71 43.26 42.86 43.38 42.87 43.5 42.87 43.62 42.88 43.74 42.8 43.85 42.97 43.97 42.97 44.09 42.98 44.45 42.55 44.57 42.77 44.69 42.79 44.81 42.94 44.92 42.79 45.04 42.94 45.16 42.96 45.28 42.88 45.4 42.89 45.52 42.82 45.64 43.04 45.76 42.97 45.88 42.89 45.99 42.98 46.11 42.99 46.23 42.91 46.35 43.06 46.47 42.85 46.59 42.85 46.71 43 46.83 42.93 46.94 42.87 47.06 42.87 47.18 42.87 47.3 42.81 47.42 42.88 47.54 43.03 47.66 42.82 47.78 42.89 47.9 42.89 48.25 42.75 48.85 42.78 48.97 42.66 49.08 42.66 49.2 42.52 49.32 42.59 49.44 42.82 49.56 42.82 50.03 42.79 50.15 42.79 50.75 42.65 50.99 42.65 51.1 42.38 51.22 42.53 51.34 42.6 51.46 42.74 51.58 42.75 51.7 42.62 52.05 42.5 52.17 42.5 52.41 42.46 52.53 42.26 52.65 42.6 53.01 42.53 53.24 42.68 53.6 42.63 54.08 42.51 54.31 42.66 54.67 42.42 55.5 42.33 55.98 42.45 56.1 42.46 56.21 42.46 56.33 42.18 56.45 42.05 56.57 41.99 56.81 42.11 56.93 42.13 57.05 42.13 57.17 42.09 57.28 41.91 57.4 42.22 57.52 42.22 57.76 42.24 57.88 42.25 58 42.32 58.47 42.19 58.59 42.3 58.71 42.12 58.95 42.56 59.19 42.58 59.3 42.52 59.66 42.41 60.25 42.41 60.85 42.51 61.44 42.06 61.56 41.83 61.68 41.89 61.8 41.84 61.92 42.14 62.16 42.08 62.39 42.14 62.87 41.92 62.99 41.99 63.11 42.17 63.23 42.05 63.34 42.12 63.46 42 63.58 42.19 65.01 42.14 65.25 42.2 65.37 42.04 65.6 42.21 66.08 42.34 66.32 42.28 66.55 42.01 67.03 42.18 67.27 42.08 67.39 42.54 67.62 42.68 67.74 42.51 67.86 42.58 67.98 42.48 68.1 42.54 68.22 42.77 68.45 42.6 68.57 42.55 68.81 42.72 69.05 42.68 69.17 42.58 69.29 42.7 69.52 42.6 69.64 42.55 70.24 42.41 70.71 42.58 70.83 42.59 71.78 42.67 71.9 42.72 72.02 42.67 72.38 42.9 72.5 42.9 72.61 42.85 72.85 42.6 73.09 42.7 73.33 42.66 74.4 42.79"/>
      </g>
      <g stroke-width="0.3" fill="#000000" fill-opacity="0.000" class="geometry color_newtests_pass" stroke-dasharray="none" stroke="#008000" id="img-1ec5bb65-18">
        <path fill="none" d="M21.63,32.16 L 21.75 32.16 21.87 32.93 21.99 32.41 22.11 32.41 22.23 33.14 22.34 33.35 22.46 33.19 22.7 33.08 22.82 33.02 23.06 32.96 23.3 32.63 23.41 32.84 23.65 32.43 23.77 32.47 24.6 31.93 24.96 31.93 25.2 31.93 26.03 32.08 26.15 32.07 26.27 33.21 26.39 33.21 26.5 32.61 26.62 32.61 26.74 32.41 26.86 32.41 26.98 32.41 27.1 31.91 27.22 31.91 27.34 31.45 27.57 31.3 27.69 30.9 27.81 30.9 27.93 30.6 28.05 30.6 28.17 30.11 28.29 29.96 28.41 30.06 28.52 30.16 28.64 29.77 28.76 29.87 28.88 29.82 29 30.01 29.12 26.98 29.24 29.48 29.36 29.92 29.48 29.68 30.19 29.5 30.31 29.07 30.43 28.65 30.54 28.52 30.66 28.62 30.78 28.25 30.9 28.44 31.02 28.35 31.14 28.31 31.26 29.47 31.5 28.27 31.61 28.19 31.73 28 31.85 28.19 31.97 28 32.09 28 32.21 28.25 32.33 28.16 32.57 27.67 32.68 27.68 32.8 27.73 32.92 27.79 33.04 27.7 33.16 27.44 33.4 27.41 33.52 27.39 33.63 27.3 33.75 27.3 33.99 27.64 34.23 29.6 34.35 29.34 34.47 27.67 34.59 27.75 34.94 27.55 35.06 27.55 35.18 27.77 35.3 27.6 35.42 27.51 35.54 27.39 35.65 27.27 35.77 27.24 36.01 27.15 36.13 26.98 36.37 27.07 36.49 26.95 36.61 26.85 36.72 26.85 36.96 26.98 37.08 26.9 37.2 27 37.32 27.05 37.44 27.02 37.56 27.15 37.68 26.95 37.79 27.21 37.91 27.3 38.03 27.18 38.15 29.1 38.27 28.69 38.39 28.61 38.63 27.37 38.74 27.21 38.86 26.94 38.98 27.1 39.1 27.1 39.22 27 39.34 27.05 39.46 27.1 39.7 26.26 39.81 26.17 40.05 26.27 40.17 26.27 40.29 26.27 40.77 26.27 41.12 25.85 41.24 25.91 41.36 25.88 41.48 25.9 41.6 25.82 41.72 25.5 41.83 25.67 41.95 25.67 42.07 25.67 42.31 25.83 42.43 25.72 42.55 25.85 42.67 25.7 42.79 25.77 42.9 25.98 43.02 25.82 43.26 25.7 43.38 25.59 43.5 25.59 43.62 25.61 43.74 25.9 43.85 25.56 43.97 25.48 44.09 25.43 44.45 25.76 44.57 25.6 44.69 25.63 44.81 25.38 44.92 25.53 45.04 25.38 45.16 25.32 45.28 25.4 45.4 25.52 45.52 25.64 45.64 25.5 45.76 25.64 45.88 25.64 45.99 25.54 46.11 25.49 46.23 25.57 46.35 25.42 46.47 25.61 46.59 25.61 46.71 25.44 46.83 25.51 46.94 25.61 47.06 25.51 47.18 25.51 47.3 25.56 47.42 25.41 47.54 25.27 47.66 25.39 47.78 25.31 47.9 25.51 48.25 25.36 48.85 25.31 48.97 25.4 49.08 25.4 49.2 25.45 49.32 25.31 49.44 25.16 49.56 25.16 50.03 25.12 50.15 25.12 50.75 25.23 50.99 25.23 51.1 25.83 51.22 25.39 51.34 25.18 51.46 25.05 51.58 25 51.7 25.11 52.05 25.34 52.17 25.32 52.41 25.38 52.53 25.56 52.65 25.23 53.01 25.23 53.24 25.04 53.6 25.07 54.08 25.09 54.31 24.96 54.67 25.13 55.5 25.19 55.98 25.11 56.1 25.06 56.21 25.06 56.33 25.52 56.45 25.71 56.57 25.71 56.81 25.59 56.93 25.54 57.05 25.54 57.17 25.6 57.28 25.77 57.4 25.45 57.52 25.45 57.76 25.45 57.88 25.41 58 25.33 58.47 25.52 58.59 25.44 58.71 25.63 58.95 25.2 59.19 25.2 59.3 25.26 59.66 25.34 60.25 25.34 60.85 25.1 61.44 27.02 61.56 26.72 61.68 26.25 61.8 25.97 61.92 25.68 62.16 25.8 62.39 25.74 62.87 25.93 62.99 25.89 63.11 25.63 63.23 25.75 63.34 25.65 63.46 25.73 63.58 25.63 65.01 25.73 65.25 25.67 65.37 25.66 65.6 25.44 66.08 25.42 66.32 25.36 66.55 25.64 67.03 25.47 67.27 25.54 67.39 25.13 67.62 25.03 67.74 25.2 67.86 25.13 67.98 25.13 68.1 25.18 68.22 24.94 68.45 25.09 68.57 25.07 68.81 24.9 69.05 24.98 69.17 25.14 69.29 25.01 69.52 24.98 69.64 25.12 70.24 25.21 70.71 25.07 70.83 25.08 71.78 25.17 71.9 25.23 72.02 25.28 72.38 24.96 72.5 24.94 72.61 24.92 72.85 25.1 73.09 25.05 73.33 25.03 74.4 24.79"/>
      </g>
    </g>
  </g>
</g>
  <g class="guide ylabels" font-size="2.82" font-family="'PT Sans Caption','Helvetica Neue','Helvetica',sans-serif" fill="#6C606B" id="img-1ec5bb65-19">
    <text x="18.63" y="45.71" text-anchor="end" dy="0.35em">0</text>
    <text x="18.63" y="30.16" text-anchor="end" dy="0.35em">50</text>
    <text x="18.63" y="14.61" text-anchor="end" dy="0.35em">100</text>
  </g>
  <g font-size="3.88" font-family="'PT Sans','Helvetica Neue','Helvetica',sans-serif" fill="#564A55" stroke="#000000" stroke-opacity="0.000" id="img-1ec5bb65-20">
    <text x="8.81" y="28.16" text-anchor="middle" dy="0.35em" transform="rotate(-90, 8.81, 30.16)">Percentage of Packages</text>
  </g>
  <g font-size="3.88" font-family="'PT Sans','Helvetica Neue','Helvetica',sans-serif" fill="#564A55" stroke="#000000" stroke-opacity="0.000" id="img-1ec5bb65-21">
    <text x="58.12" y="10.61" text-anchor="middle">Julia v0.3 (relative)</text>
  </g>
</g>
<defs>
  <clipPath id="img-1ec5bb65-4">
  <path d="M19.63,12.61 L 96.6 12.61 96.6 47.71 19.63 47.71" />
</clipPath>
</defs>
</svg>
