<?xml version="1.0" encoding="UTF-8"?>
<svg xmlns="http://www.w3.org/2000/svg"
     xmlns:xlink="http://www.w3.org/1999/xlink"
     xmlns:gadfly="http://www.gadflyjl.org/ns"
     version="1.2"
     width="101.6mm" height="76.2mm" viewBox="0 0 101.6 76.2"
     stroke="none"
     fill="#000000"
     stroke-width="0.3"
     font-size="3.88"
>
<g class="plotroot xscalable yscalable" id="fig-77a31da116ed4e628460b715ec17cc50-element-1">
  <g font-size="3.88" font-family="'PT Sans','Helvetica Neue','Helvetica',sans-serif" fill="#564A55" stroke="#000000" stroke-opacity="0.000" id="fig-77a31da116ed4e628460b715ec17cc50-element-2">
    <text x="58.12" y="64.59" text-anchor="middle" dy="0.6em">Date</text>
  </g>
  <g class="guide xlabels" font-size="2.82" font-family="'PT Sans Caption','Helvetica Neue','Helvetica',sans-serif" fill="#6C606B" id="fig-77a31da116ed4e628460b715ec17cc50-element-3">
    <text x="21.88" y="48.71" text-anchor="end" dy="0.35em" transform="rotate(-90, 21.88, 48.71)">Apr</text>
    <text x="25.55" y="48.71" text-anchor="end" dy="0.35em" transform="rotate(-90, 25.55, 48.71)">May</text>
    <text x="29.34" y="48.71" text-anchor="end" dy="0.35em" transform="rotate(-90, 29.34, 48.71)">Jun</text>
    <text x="33.02" y="48.71" text-anchor="end" dy="0.35em" transform="rotate(-90, 33.02, 48.71)">Jul</text>
    <text x="36.81" y="48.71" text-anchor="end" dy="0.35em" transform="rotate(-90, 36.81, 48.71)">Aug</text>
    <text x="40.61" y="48.71" text-anchor="end" dy="0.35em" transform="rotate(-90, 40.61, 48.71)">Sep</text>
    <text x="44.28" y="48.71" text-anchor="end" dy="0.35em" transform="rotate(-90, 44.28, 48.71)">Oct</text>
    <text x="48.08" y="48.71" text-anchor="end" dy="0.35em" transform="rotate(-90, 48.08, 48.71)">Nov</text>
    <text x="51.75" y="48.71" text-anchor="end" dy="0.35em" transform="rotate(-90, 51.75, 48.71)">Dec</text>
    <text x="55.54" y="48.71" text-anchor="end" dy="0.35em" transform="rotate(-90, 55.54, 48.71)">Jan 2015</text>
    <text x="59.34" y="48.71" text-anchor="end" dy="0.35em" transform="rotate(-90, 59.34, 48.71)">Feb</text>
    <text x="62.77" y="48.71" text-anchor="end" dy="0.35em" transform="rotate(-90, 62.77, 48.71)">Mar</text>
    <text x="66.56" y="48.71" text-anchor="end" dy="0.35em" transform="rotate(-90, 66.56, 48.71)">Apr</text>
    <text x="70.24" y="48.71" text-anchor="end" dy="0.35em" transform="rotate(-90, 70.24, 48.71)">May</text>
    <text x="74.03" y="48.71" text-anchor="end" dy="0.35em" transform="rotate(-90, 74.03, 48.71)">Jun</text>
    <text x="77.7" y="48.71" text-anchor="end" dy="0.35em" transform="rotate(-90, 77.7, 48.71)">Jul</text>
    <text x="81.5" y="48.71" text-anchor="end" dy="0.35em" transform="rotate(-90, 81.5, 48.71)">Aug</text>
    <text x="85.3" y="48.71" text-anchor="end" dy="0.35em" transform="rotate(-90, 85.3, 48.71)">Sep</text>
    <text x="88.97" y="48.71" text-anchor="end" dy="0.35em" transform="rotate(-90, 88.97, 48.71)">Oct</text>
    <text x="92.76" y="48.71" text-anchor="end" dy="0.35em" transform="rotate(-90, 92.76, 48.71)">Nov</text>
  </g>
  <g clip-path="url(#fig-77a31da116ed4e628460b715ec17cc50-element-5)" id="fig-77a31da116ed4e628460b715ec17cc50-element-4">
    <g pointer-events="visible" opacity="1" fill="#000000" fill-opacity="0.000" stroke="#000000" stroke-opacity="0.000" class="guide background" id="fig-77a31da116ed4e628460b715ec17cc50-element-6">
      <rect x="19.63" y="12.61" width="76.97" height="35.1"/>
    </g>
    <g class="guide ygridlines xfixed" stroke-dasharray="0.5,0.5" stroke-width="0.2" stroke="#D0D0E0" id="fig-77a31da116ed4e628460b715ec17cc50-element-7">
      <path fill="none" d="M19.63,45.71 L 96.6 45.71"/>
      <path fill="none" d="M19.63,39.49 L 96.6 39.49"/>
      <path fill="none" d="M19.63,33.27 L 96.6 33.27"/>
      <path fill="none" d="M19.63,27.05 L 96.6 27.05"/>
      <path fill="none" d="M19.63,20.83 L 96.6 20.83"/>
      <path fill="none" d="M19.63,14.61 L 96.6 14.61"/>
    </g>
    <g class="guide xgridlines yfixed" stroke-dasharray="0.5,0.5" stroke-width="0.2" stroke="#D0D0E0" id="fig-77a31da116ed4e628460b715ec17cc50-element-8">
      <path fill="none" d="M21.88,12.61 L 21.88 47.71"/>
      <path fill="none" d="M25.55,12.61 L 25.55 47.71"/>
      <path fill="none" d="M29.34,12.61 L 29.34 47.71"/>
      <path fill="none" d="M33.02,12.61 L 33.02 47.71"/>
      <path fill="none" d="M36.81,12.61 L 36.81 47.71"/>
      <path fill="none" d="M40.61,12.61 L 40.61 47.71"/>
      <path fill="none" d="M44.28,12.61 L 44.28 47.71"/>
      <path fill="none" d="M48.08,12.61 L 48.08 47.71"/>
      <path fill="none" d="M51.75,12.61 L 51.75 47.71"/>
      <path fill="none" d="M55.54,12.61 L 55.54 47.71"/>
      <path fill="none" d="M59.34,12.61 L 59.34 47.71"/>
      <path fill="none" d="M62.77,12.61 L 62.77 47.71"/>
      <path fill="none" d="M66.56,12.61 L 66.56 47.71"/>
      <path fill="none" d="M70.24,12.61 L 70.24 47.71"/>
      <path fill="none" d="M74.03,12.61 L 74.03 47.71"/>
      <path fill="none" d="M77.7,12.61 L 77.7 47.71"/>
      <path fill="none" d="M81.5,12.61 L 81.5 47.71"/>
      <path fill="none" d="M85.3,12.61 L 85.3 47.71"/>
      <path fill="none" d="M88.97,12.61 L 88.97 47.71"/>
      <path fill="none" d="M92.76,12.61 L 92.76 47.71"/>
    </g>
    <g class="plotpanel" id="fig-77a31da116ed4e628460b715ec17cc50-element-9">
      <g stroke-width="0.3" fill="#000000" fill-opacity="0.000" class="geometry color_newnot_possible" stroke-dasharray="none" stroke="#808080" id="fig-77a31da116ed4e628460b715ec17cc50-element-10">
        <path fill="none" d="M76.36,42.41 L 76.48 42.41 76.6 42.41 76.73 42.41 76.85 42.41 76.97 42.41 77.09 42.41 77.21 42.41 77.58 42.41 77.83 42.41 78.07 42.47 78.19 42.41 78.32 42.41 78.44 42.41 78.56 42.41 78.68 42.41 80.77 42.35 81.74 42.35 82.85 42.35 84.93 42.35 85.3 42.35 85.91 42.16 86.52 41.98 88.48 41.98 88.97 41.98 89.58 41.98 90.07 41.98 90.56 41.98 90.93 41.91 92.4 41.91 93.87 41.85 94.36 41.85 94.6 41.79"/>
      </g>
      <g stroke-width="0.3" fill="#000000" fill-opacity="0.000" class="geometry color_newno_tests" stroke-dasharray="none" stroke="#0000FF" id="fig-77a31da116ed4e628460b715ec17cc50-element-11">
        <path fill="none" d="M76.36,39.05 L 76.48 39.05 76.6 39.05 76.73 39.05 76.85 39.05 76.97 39.05 77.09 39.05 77.21 39.05 77.58 39.05 77.83 39.05 78.07 39.05 78.19 39.05 78.32 39.12 78.44 39.12 78.56 39.12 78.68 39.18 80.77 39.12 81.74 39.12 82.85 39.12 84.93 39.12 85.3 39.18 85.91 39.18 86.52 39.24 88.48 39.43 88.97 39.61 89.58 39.74 90.07 39.74 90.56 39.74 90.93 39.8 92.4 39.86 93.87 39.99 94.36 39.99 94.6 39.99"/>
      </g>
      <g stroke-width="0.3" fill="#000000" fill-opacity="0.000" class="geometry color_newtests_fail" stroke-dasharray="none" stroke="#FF0000" id="fig-77a31da116ed4e628460b715ec17cc50-element-12">
        <path fill="none" d="M76.36,42.23 L 76.48 42.04 76.6 41.98 76.73 41.91 76.85 41.79 76.97 41.98 77.09 41.73 77.21 41.91 77.58 41.79 77.83 41.73 78.07 41.67 78.19 41.85 78.32 39.86 78.44 41.73 78.56 41.35 78.68 41.42 80.77 41.67 81.74 41.73 82.85 41.23 84.93 40.17 85.3 40.48 85.91 40.86 86.52 41.17 88.48 41.11 88.97 40.8 89.58 41.04 90.07 41.11 90.56 40.92 90.93 40.92 92.4 40.8 93.87 40.67 94.36 41.11 94.6 41.11"/>
      </g>
      <g stroke-width="0.3" fill="#000000" fill-opacity="0.000" class="geometry color_newtests_pass" stroke-dasharray="none" stroke="#008000" id="fig-77a31da116ed4e628460b715ec17cc50-element-13">
        <path fill="none" d="M76.36,22.14 L 76.48 22.32 76.6 22.26 76.73 22.32 76.85 22.32 76.97 22.14 77.09 22.39 77.21 22.14 77.58 22.26 77.83 22.2 78.07 22.26 78.19 22.01 78.32 23.69 78.44 21.7 78.56 22.01 78.68 21.89 80.77 20.89 81.74 20.52 82.85 20.71 84.93 20.89 85.3 20.4 85.91 20.15 86.52 19.84 88.48 19.09 88.97 18.9 89.58 18.28 90.07 18.16 90.56 18.22 90.93 18.09 92.4 18.09 93.87 18.09 94.36 17.78 94.6 17.72"/>
      </g>
      <g stroke-width="0.3" fill="#000000" fill-opacity="0.000" class="geometry color_newnot_possible" stroke-dasharray="none" stroke="#808080" id="fig-77a31da116ed4e628460b715ec17cc50-element-14">
        <path fill="none" d="M21.63,43.72 L 21.75 43.72 21.88 43.72 22 43.72 22.12 43.72 22.24 43.72 22.37 43.72 22.49 43.72 22.73 43.72 22.86 43.72 23.1 43.72 23.35 43.72 23.47 43.72 23.71 43.72 23.84 43.72 24.69 43.72 25.06 43.72 25.3 43.72 26.16 43.78 26.28 43.78 26.41 43.78 26.53 43.78 26.65 43.78 26.77 43.72 26.9 43.72 27.02 43.72 27.14 43.72 27.26 43.59 27.39 43.59 27.51 43.59 27.75 43.53 27.88 43.97 28 43.97 28.12 43.97 28.24 43.97 28.37 43.97 28.49 43.97 28.61 43.97 28.73 43.97 28.86 43.97 28.98 43.97 29.1 43.97 29.22 43.97 29.34 43.97 29.47 43.97 29.59 43.97 29.71 43.97 30.45 43.66 30.57 43.59 30.69 43.59 30.81 43.59 30.94 43.59 31.06 43.53 31.18 43.41 31.3 43.41 31.43 43.41 31.55 43.41 31.79 43.41 31.92 43.41 32.04 43.41 32.16 43.41 32.28 43.41 32.41 43.41 32.53 43.41 32.65 43.41 32.9 43.41 33.02 43.41 33.14 43.41 33.26 43.41 33.38 43.41 33.51 43.41 33.75 43.41 33.87 43.41 34 43.41 34.12 43.41 34.36 43.41 34.61 43.41 34.73 43.41 34.85 43.41 34.98 43.41 35.34 43.41 35.47 43.41 35.59 43.41 35.71 43.41 35.83 43.41 35.96 43.41 36.08 43.34 36.2 43.34 36.45 43.34 36.57 43.34 36.81 43.34 36.94 43.34 37.06 43.34 37.18 43.34 37.43 43.34 37.55 43.34 37.67 43.34 37.79 43.34 37.91 43.34 38.04 43.34 38.16 43.34 38.28 43.34 38.4 43.28 38.53 43.22 38.65 43.22 38.77 43.22 38.89 43.22 39.14 43.22 39.26 43.22 39.38 43.22 39.51 43.22 39.63 43.22 39.75 43.22 39.87 43.22 40 43.22 40.24 43.22 40.36 43.16 40.61 43.16 40.73 43.16 40.85 43.1 41.34 43.1 41.71 43.1 41.83 43.1 41.96 43.1 42.08 43.1 42.2 43.1 42.32 43.1 42.44 43.1 42.57 43.1 42.69 43.1 42.93 43.03 43.06 43.03 43.18 43.03 43.3 43.03 43.42 43.03 43.55 43.03 43.67 42.97 43.91 42.97 44.04 42.97 44.16 42.97 44.28 42.97 44.4 42.79 44.53 42.91 44.65 42.91 44.77 42.91 45.14 42.91 45.26 42.85 45.38 42.85 45.51 42.85 45.63 42.85 45.75 42.85 45.87 42.85 46 42.85 46.12 42.85 46.24 42.85 46.36 42.79 46.48 42.79 46.61 42.79 46.73 42.79 46.85 42.79 46.97 42.79 47.1 42.79 47.22 42.79 47.34 42.79 47.46 42.79 47.59 42.79 47.71 42.79 47.83 42.79 47.95 42.79 48.08 42.79 48.2 42.79 48.32 42.79 48.44 42.79 48.57 42.79 48.69 42.79 49.06 42.79 49.67 42.79 49.79 42.79 49.91 42.79 50.04 42.79 50.16 42.79 50.28 42.79 50.4 42.79 50.89 42.79 51.01 42.79 51.63 42.79 51.87 42.79 51.99 42.85 52.12 42.85 52.24 42.85 52.36 42.85 52.48 42.85 52.61 42.85 52.97 42.85 53.1 42.85 53.34 42.85 53.46 42.85 53.59 42.85 53.95 42.85 54.2 42.85 54.57 42.85 55.06 42.85 55.3 42.85 55.67 42.85 56.52 42.85 57.01 42.85 57.14 42.72 57.26 42.72 57.38 42.66 57.5 42.66 57.63 42.66 57.87 42.66 57.99 42.66 58.12 42.66 58.24 42.66 58.36 42.66 58.48 42.66 58.61 42.66 58.85 42.6 58.97 42.6 59.1 42.6 59.58 42.6 59.71 42.6 59.83 42.6 60.07 42.6 60.32 42.6 60.44 42.6 60.81 42.6 61.42 42.6 62.03 42.6 62.65 42.6 62.77 42.6 62.89 42.6 63.01 42.16 63.14 42.23 63.38 42.16 63.63 42.16 64.11 42.16 64.24 42.16 64.36 42.16 64.48 42.16 64.6 42.16 64.73 42.23 64.85 42.16 66.32 42.1 66.56 42.04 66.69 42.04 66.93 42.04 67.42 42.04 67.67 42.04 67.91 42.04 68.4 42.04 68.64 42.04 68.77 42.04 69.01 42.04 69.13 42.04 69.26 42.04 69.38 42.04 69.5 42.04 69.62 42.04 69.87 42.04 69.99 42.04 70.24 42.04 70.48 42.04 70.6 42.04 70.73 42.04 70.97 42.04 71.09 42.04 71.71 42.04 72.2 42.1 72.32 42.04 73.3 42.04 73.42 41.91 73.54 41.91 73.91 41.91 74.03 41.91 74.15 41.98 74.4 41.98 74.64 41.98 74.89 41.98 75.99 41.98"/>
      </g>
      <g stroke-width="0.3" fill="#000000" fill-opacity="0.000" class="geometry color_newtests_fail" stroke-dasharray="none" stroke="#FF0000" id="fig-77a31da116ed4e628460b715ec17cc50-element-15">
        <path fill="none" d="M21.63,43.22 L 21.75 43.22 21.88 42.29 22 43.28 22.12 43.22 22.24 42.23 22.37 42.23 22.49 42.23 22.73 43.22 22.86 43.22 23.1 43.28 23.35 43.28 23.47 43.28 23.71 43.34 23.84 43.34 24.69 43.41 25.06 43.41 25.3 43.41 26.16 43.34 26.28 43.41 26.41 43.28 26.53 43.28 26.65 43.34 26.77 43.41 26.9 43.34 27.02 43.34 27.14 43.34 27.26 43.41 27.39 43.41 27.51 43.28 27.75 43.34 27.88 43.22 28 43.34 28.12 43.47 28.24 43.47 28.37 43.53 28.49 43.53 28.61 43.47 28.73 43.53 28.86 43.53 28.98 43.53 29.1 43.59 29.22 43.59 29.34 44.09 29.47 43.84 29.59 43.84 29.71 43.84 30.45 44.22 30.57 44.28 30.69 44.28 30.81 44.28 30.94 44.22 31.06 44.28 31.18 44.28 31.3 44.28 31.43 44.22 31.55 43.03 31.79 44.22 31.92 44.28 32.04 44.28 32.16 44.28 32.28 44.28 32.41 44.28 32.53 44.28 32.65 44.28 32.9 44.28 33.02 44.28 33.14 44.22 33.26 44.22 33.38 44.22 33.51 44.22 33.75 44.22 33.87 44.09 34 44.09 34.12 44.09 34.36 43.97 34.61 42.72 34.73 42.66 34.85 43.97 34.98 43.9 35.34 44.03 35.47 44.03 35.59 44.03 35.71 44.03 35.83 44.09 35.96 44.15 36.08 44.15 36.2 44.15 36.45 44.15 36.57 44.22 36.81 44.15 36.94 44.22 37.06 44.22 37.18 44.22 37.43 44.22 37.55 44.22 37.67 44.09 37.79 44.15 37.91 44.15 38.04 44.09 38.16 44.09 38.28 43.97 38.4 44.03 38.53 44.15 38.65 42.41 38.77 42.79 38.89 42.79 39.14 44.22 39.26 44.28 39.38 44.22 39.51 44.28 39.63 44.22 39.75 44.22 39.87 44.34 40 44.15 40.24 44.4 40.36 44.46 40.61 44.34 40.73 44.34 40.85 44.4 41.34 44.4 41.71 44.71 41.83 44.71 41.96 44.71 42.08 44.78 42.2 44.84 42.32 44.84 42.44 44.84 42.57 44.84 42.69 44.84 42.93 44.71 43.06 44.71 43.18 44.65 43.3 44.71 43.42 44.65 43.55 44.53 43.67 44.59 43.91 44.65 44.04 44.71 44.16 44.71 44.28 44.65 44.4 44.59 44.53 44.65 44.65 44.71 44.77 44.71 45.14 44.71 45.26 44.71 45.38 44.71 45.51 44.78 45.63 44.78 45.75 44.78 45.87 44.78 46 44.78 46.12 44.65 46.24 44.59 46.36 44.59 46.48 44.46 46.61 44.59 46.73 44.59 46.85 44.59 46.97 44.59 47.1 44.59 47.22 44.53 47.34 44.59 47.46 44.53 47.59 44.59 47.71 44.53 47.83 44.59 47.95 44.59 48.08 44.59 48.2 44.65 48.32 44.65 48.44 44.71 48.57 44.71 48.69 44.53 49.06 44.78 49.67 44.71 49.79 44.71 49.91 44.71 50.04 44.78 50.16 44.84 50.28 44.71 50.4 44.71 50.89 44.65 51.01 44.71 51.63 44.71 51.87 44.71 51.99 44.34 52.12 44.53 52.24 44.71 52.36 44.71 52.48 44.71 52.61 44.65 52.97 44.59 53.1 44.59 53.34 44.53 53.46 44.59 53.59 44.59 53.95 44.59 54.2 44.65 54.57 44.65 55.06 44.65 55.3 44.65 55.67 44.65 56.52 44.59 57.01 44.46 57.14 44.59 57.26 44.59 57.38 44.34 57.5 44.34 57.63 44.4 57.87 44.4 57.99 44.34 58.12 44.34 58.24 44.28 58.36 44.34 58.48 44.34 58.61 44.34 58.85 44.34 58.97 44.34 59.1 44.34 59.58 44.15 59.71 44.15 59.83 44.15 60.07 44.09 60.32 44.03 60.44 44.03 60.81 44.03 61.42 44.03 62.03 44.09 62.65 42.29 62.77 42.91 62.89 43.34 63.01 44.09 63.14 44.09 63.38 44.09 63.63 44.09 64.11 44.09 64.24 44.03 64.36 44.03 64.48 44.03 64.6 44.03 64.73 44.03 64.85 43.97 66.32 43.9 66.56 43.97 66.69 44.09 66.93 44.09 67.42 43.97 67.67 44.09 67.91 44.03 68.4 44.03 68.64 44.03 68.77 43.97 69.01 43.84 69.13 43.84 69.26 43.84 69.38 43.9 69.5 43.78 69.62 43.78 69.87 43.78 69.99 43.84 70.24 43.78 70.48 43.78 70.6 43.66 70.73 43.66 70.97 43.72 71.09 43.66 71.71 43.59 72.2 43.47 72.32 43.47 73.3 43.22 73.42 43.22 73.54 43.22 73.91 43.22 74.03 43.22 74.15 43.28 74.4 43.34 74.64 43.28 74.89 43.28 75.99 43.41"/>
      </g>
      <g stroke-width="0.3" fill="#000000" fill-opacity="0.000" class="geometry color_newno_tests" stroke-dasharray="none" stroke="#0000FF" id="fig-77a31da116ed4e628460b715ec17cc50-element-16">
        <path fill="none" d="M21.63,42.35 L 21.75 42.35 21.88 42.35 22 42.35 22.12 42.35 22.24 42.41 22.37 42.41 22.49 42.35 22.73 42.29 22.86 42.29 23.1 42.29 23.35 42.16 23.47 42.16 23.71 42.16 23.84 42.16 24.69 42.16 25.06 42.16 25.3 42.16 26.16 42.1 26.28 42.1 26.41 42.1 26.53 42.1 26.65 42.1 26.77 42.1 26.9 42.1 27.02 42.1 27.14 42.1 27.26 42.23 27.39 42.23 27.51 42.23 27.75 42.29 27.88 42.29 28 42.29 28.12 42.23 28.24 42.23 28.37 42.35 28.49 42.41 28.61 42.41 28.73 42.41 28.86 42.41 28.98 42.41 29.1 42.41 29.22 42.41 29.34 42.16 29.47 42.23 29.59 42.23 29.71 42.23 30.45 42.23 30.57 42.23 30.69 42.23 30.81 42.29 30.94 42.29 31.06 42.29 31.18 42.29 31.3 42.35 31.43 42.35 31.55 42.54 31.79 42.47 31.92 42.35 32.04 42.35 32.16 42.35 32.28 42.35 32.41 42.35 32.53 42.35 32.65 42.35 32.9 42.41 33.02 42.35 33.14 42.35 33.26 42.35 33.38 42.47 33.51 42.47 33.75 42.47 33.87 42.47 34 42.47 34.12 42.47 34.36 42.35 34.61 42.54 34.73 42.47 34.85 42.41 34.98 42.41 35.34 42.41 35.47 42.41 35.59 42.41 35.71 42.41 35.83 42.47 35.96 42.47 36.08 42.47 36.2 42.54 36.45 42.54 36.57 42.54 36.81 42.54 36.94 42.54 37.06 42.54 37.18 42.54 37.43 42.41 37.55 42.47 37.67 42.47 37.79 42.41 37.91 42.41 38.04 42.41 38.16 42.41 38.28 42.41 38.4 42.41 38.53 42.41 38.65 42.79 38.77 42.79 38.89 42.79 39.14 42.35 39.26 42.35 39.38 42.41 39.51 42.41 39.63 42.47 39.75 42.41 39.87 42.41 40 42.47 40.24 42.85 40.36 42.91 40.61 42.91 40.73 42.91 40.85 42.91 41.34 42.91 41.71 42.85 41.83 42.85 41.96 42.79 42.08 42.79 42.2 42.79 42.32 42.85 42.44 42.85 42.57 42.91 42.69 42.91 42.93 42.91 43.06 42.85 43.18 42.85 43.3 42.85 43.42 42.85 43.55 42.91 43.67 42.91 43.91 42.85 44.04 42.85 44.16 42.85 44.28 42.85 44.4 42.6 44.53 42.85 44.65 42.85 44.77 42.85 45.14 42.91 45.26 42.91 45.38 42.85 45.51 42.85 45.63 42.85 45.75 42.85 45.87 42.85 46 42.85 46.12 42.85 46.24 42.85 46.36 42.85 46.48 42.91 46.61 42.85 46.73 42.85 46.85 42.85 46.97 42.85 47.1 42.85 47.22 42.91 47.34 42.85 47.46 42.91 47.59 42.85 47.71 42.85 47.83 42.85 47.95 42.85 48.08 42.85 48.2 42.85 48.32 42.85 48.44 42.85 48.57 42.85 48.69 42.85 49.06 42.85 49.67 42.85 49.79 42.85 49.91 42.85 50.04 42.85 50.16 42.85 50.28 42.85 50.4 42.85 50.89 42.91 51.01 42.85 51.63 42.85 51.87 42.85 51.99 42.85 52.12 42.91 52.24 42.85 52.36 42.85 52.48 42.85 52.61 42.91 52.97 42.85 53.1 42.85 53.34 42.85 53.46 42.79 53.59 42.79 53.95 42.85 54.2 42.79 54.57 42.79 55.06 42.85 55.3 42.79 55.67 42.79 56.52 42.79 57.01 42.79 57.14 42.79 57.26 42.79 57.38 42.85 57.5 42.79 57.63 42.79 57.87 42.79 57.99 42.85 58.12 42.85 58.24 42.85 58.36 42.79 58.48 42.79 58.61 42.79 58.85 42.79 58.97 42.79 59.1 42.79 59.58 42.79 59.71 42.79 59.83 42.79 60.07 42.79 60.32 42.79 60.44 42.79 60.81 42.79 61.42 42.79 62.03 42.79 62.65 42.97 62.77 42.91 62.89 42.91 63.01 42.91 63.14 42.85 63.38 42.85 63.63 42.85 64.11 42.85 64.24 42.85 64.36 42.91 64.48 42.91 64.6 42.91 64.73 42.91 64.85 42.91 66.32 42.97 66.56 42.97 66.69 42.97 66.93 43.03 67.42 43.03 67.67 43.03 67.91 43.03 68.4 43.03 68.64 43.03 68.77 43.03 69.01 43.03 69.13 43.03 69.26 43.03 69.38 43.03 69.5 43.03 69.62 43.03 69.87 43.03 69.99 43.03 70.24 43.1 70.48 43.03 70.6 43.03 70.73 43.03 70.97 43.1 71.09 43.03 71.71 43.1 72.2 43.1 72.32 43.1 73.3 43.1 73.42 43.1 73.54 43.1 73.91 43.16 74.03 43.16 74.15 43.1 74.4 43.1 74.64 43.1 74.89 43.16 75.99 43.1"/>
      </g>
      <g stroke-width="0.3" fill="#000000" fill-opacity="0.000" class="geometry color_oldfull_fail" stroke-dasharray="none" stroke="#FFA500" id="fig-77a31da116ed4e628460b715ec17cc50-element-17">
        <path fill="none" d="M21.63,43.16 L 21.75 43.16 21.88 43.59 22 42.91 22.12 42.97 22.24 43.47 22.37 43.34 22.49 43.47 22.73 42.6 22.86 42.6 23.1 42.54 23.35 42.79 23.47 42.66 23.71 42.85 23.84 42.79 24.69 42.91 25.06 42.91 25.3 42.91 26.16 42.85 26.28 42.72 26.41 42.1 26.53 42.1 26.65 42.41 26.77 42.41 26.9 42.6 27.02 42.6 27.14 42.6 27.26 42.85 27.39 42.85 27.51 43.16 27.75 43.16 27.88 43.1 28 42.97 28.12 43.03 28.24 43.03 28.37 43.16 28.49 43.16 28.61 43.16 28.73 43.03 28.86 43.28 28.98 43.22 29.1 43.16 29.22 43.03 29.34 45.71 29.47 43.28 29.59 42.97 29.71 43.1 30.45 42.97 30.57 43.22 30.69 43.47 30.81 43.47 30.94 43.41 31.06 43.66 31.18 43.59 31.3 43.59 31.43 43.66 31.55 43.84 31.79 43.53 31.92 43.59 32.04 43.72 32.16 43.59 32.28 43.72 32.41 43.72 32.53 43.47 32.65 43.53 32.9 43.78 33.02 43.78 33.14 43.78 33.26 43.72 33.38 43.66 33.51 43.78 33.75 43.78 33.87 43.84 34 43.9 34.12 43.9 34.36 43.78 34.61 43.34 34.73 43.66 34.85 43.59 34.98 43.59 35.34 43.59 35.47 43.59 35.59 43.41 35.71 43.53 35.83 43.47 35.96 43.47 36.08 43.59 36.2 43.53 36.45 43.59 36.57 43.66 36.81 43.66 36.94 43.66 37.06 43.66 37.18 43.66 37.43 43.66 37.55 43.66 37.67 43.66 37.79 43.59 37.91 43.59 38.04 43.53 38.16 43.66 38.28 43.53 38.4 43.47 38.53 43.47 38.65 43.34 38.77 43.28 38.89 43.34 39.14 43.22 39.26 43.28 39.38 43.47 39.51 43.28 39.63 43.28 39.75 43.34 39.87 43.16 40 43.22 40.24 43.53 40.36 43.47 40.61 43.47 40.73 43.47 40.85 43.47 41.34 43.47 41.71 43.41 41.83 43.34 41.96 43.41 42.08 43.28 42.2 43.28 42.32 43.47 42.44 43.16 42.57 43.1 42.69 43.1 42.93 43.16 43.06 43.28 43.18 43.22 43.3 43.28 43.42 43.28 43.55 43.16 43.67 43.28 43.91 43.41 44.04 43.41 44.16 43.41 44.28 43.41 44.4 43.22 44.53 43.47 44.65 43.47 44.77 43.47 45.14 43.1 45.26 43.28 45.38 43.28 45.51 43.41 45.63 43.28 45.75 43.41 45.87 43.41 46 43.34 46.12 43.34 46.24 43.28 46.36 43.47 46.48 43.41 46.61 43.34 46.73 43.41 46.85 43.41 46.97 43.34 47.1 43.47 47.22 43.28 47.34 43.28 47.46 43.41 47.59 43.34 47.71 43.28 47.83 43.28 47.95 43.28 48.08 43.22 48.2 43.28 48.32 43.41 48.44 43.22 48.57 43.28 48.69 43.28 49.06 43.16 49.67 43.16 49.79 43.03 49.91 43.03 50.04 42.91 50.16 42.97 50.28 43.16 50.4 43.16 50.89 43.1 51.01 43.1 51.63 42.97 51.87 42.97 51.99 42.72 52.12 42.85 52.24 42.91 52.36 43.03 52.48 43.03 52.61 42.91 52.97 42.79 53.1 42.79 53.34 42.72 53.46 42.54 53.59 42.85 53.95 42.79 54.2 42.91 54.57 42.85 55.06 42.72 55.3 42.85 55.67 42.6 56.52 42.47 57.01 42.54 57.14 42.54 57.26 42.54 57.38 42.23 57.5 42.1 57.63 42.04 57.87 42.16 57.99 42.16 58.12 42.16 58.24 42.1 58.36 41.91 58.48 42.23 58.61 42.23 58.85 42.23 58.97 42.23 59.1 42.29 59.58 42.1 59.71 42.23 59.83 42.04 60.07 42.47 60.32 42.47 60.44 42.41 60.81 42.29 61.42 42.29 62.03 42.35 62.65 41.85 62.77 41.6 62.89 41.67 63.01 41.6 63.14 41.91 63.38 41.85 63.63 41.91 64.11 41.67 64.24 41.73 64.36 41.91 64.48 41.79 64.6 41.85 64.73 41.73 64.85 41.91 66.32 41.85 66.56 41.91 66.69 41.73 66.93 41.91 67.42 42.04 67.67 41.98 67.91 41.67 68.4 41.85 68.64 41.73 68.77 42.23 69.01 42.35 69.13 42.16 69.26 42.23 69.38 42.1 69.5 42.16 69.62 42.41 69.87 42.23 69.99 42.16 70.24 42.35 70.48 42.29 70.6 42.16 70.73 42.29 70.97 42.16 71.09 42.1 71.71 41.91 72.2 42.1 72.32 42.1 73.3 42.16 73.42 42.23 73.54 42.16 73.91 42.41 74.03 42.41 74.15 42.35 74.4 42.04 74.64 42.16 74.89 42.1 75.99 42.23"/>
      </g>
      <g stroke-width="0.3" fill="#000000" fill-opacity="0.000" class="geometry color_newtests_pass" stroke-dasharray="none" stroke="#008000" id="fig-77a31da116ed4e628460b715ec17cc50-element-18">
        <path fill="none" d="M21.63,37.69 L 21.75 37.69 21.88 38.12 22 37.81 22.12 37.81 22.24 38.25 22.37 38.37 22.49 38.25 22.73 38.18 22.86 38.12 23.1 38.06 23.35 37.81 23.47 37.93 23.71 37.69 23.84 37.69 24.69 37.25 25.06 37.25 25.3 37.25 26.16 37.31 26.28 37.25 26.41 37.93 26.53 37.93 26.65 37.56 26.77 37.56 26.9 37.44 27.02 37.44 27.14 37.44 27.26 37.13 27.39 37.13 27.51 36.75 27.75 36.63 27.88 36.38 28 36.38 28.12 36.13 28.24 36.13 28.37 35.82 28.49 35.7 28.61 35.76 28.73 35.82 28.86 35.57 28.98 35.63 29.1 35.57 29.22 35.7 29.34 35.26 29.47 35.32 29.59 35.57 29.71 35.38 30.45 35.07 30.57 34.76 30.69 34.45 30.81 34.33 30.94 34.33 31.06 34.08 31.18 34.14 31.3 34.08 31.43 34.02 31.55 34.76 31.79 33.95 31.92 33.83 32.04 33.71 32.16 33.83 32.28 33.71 32.41 33.71 32.53 33.77 32.65 33.71 32.9 33.33 33.02 33.27 33.14 33.27 33.26 33.27 33.38 33.21 33.51 32.96 33.75 32.9 33.87 32.77 34 32.71 34.12 32.71 34.36 32.77 34.61 34.08 34.73 33.89 34.85 32.65 34.98 32.71 35.34 32.52 35.47 32.52 35.59 32.65 35.71 32.52 35.83 32.46 35.96 32.34 36.08 32.21 36.2 32.15 36.45 32.09 36.57 31.96 36.81 32.03 36.94 31.9 37.06 31.71 37.18 31.71 37.43 31.78 37.55 31.71 37.67 31.71 37.79 31.71 37.91 31.65 38.04 31.71 38.16 31.53 38.28 31.65 38.4 31.71 38.53 31.59 38.65 33.02 38.77 32.71 38.89 32.65 39.14 31.59 39.26 31.47 39.38 31.22 39.51 31.34 39.63 31.34 39.75 31.16 39.87 31.16 40 31.16 40.24 30.97 40.36 30.78 40.61 30.78 40.73 30.78 40.85 30.78 41.34 30.78 41.71 30.22 41.83 30.22 41.96 30.16 42.08 30.1 42.2 30.04 42.32 29.79 42.44 29.6 42.57 29.6 42.69 29.6 42.93 29.72 43.06 29.6 43.18 29.66 43.3 29.54 43.42 29.6 43.55 29.72 43.67 29.6 43.91 29.54 44.04 29.41 44.16 29.41 44.28 29.35 44.4 28.79 44.53 29.23 44.65 29.16 44.77 29.04 45.14 29.23 45.26 29.1 45.38 29.04 45.51 28.79 45.63 28.92 45.75 28.79 45.87 28.67 46 28.73 46.12 28.79 46.24 28.85 46.36 28.73 46.48 28.85 46.61 28.85 46.73 28.73 46.85 28.61 46.97 28.67 47.1 28.54 47.22 28.67 47.34 28.67 47.46 28.48 47.59 28.54 47.71 28.54 47.83 28.42 47.95 28.42 48.08 28.42 48.2 28.29 48.32 28.17 48.44 28.23 48.57 28.17 48.69 28.29 49.06 28.17 49.67 27.92 49.79 27.92 49.91 27.92 50.04 27.92 50.16 27.8 50.28 27.55 50.4 27.55 50.89 27.3 51.01 27.3 51.63 27.36 51.87 27.36 51.99 27.86 52.12 27.42 52.24 27.24 52.36 27.11 52.48 26.99 52.61 27.05 52.97 27.17 53.1 27.11 53.34 27.05 53.46 27.17 53.59 26.86 53.95 26.86 54.2 26.61 54.57 26.55 55.06 26.49 55.3 26.24 55.67 26.24 56.52 26.06 57.01 25.68 57.14 25.56 57.26 25.56 57.38 25.81 57.5 25.99 57.63 25.99 57.87 25.87 57.99 25.74 58.12 25.74 58.24 25.68 58.36 25.81 58.48 25.5 58.61 25.5 58.85 25.37 58.97 25.25 59.1 25.12 59.58 25 59.71 25 59.83 25.18 60.07 24.62 60.32 24.5 60.44 24.56 60.81 24.56 61.42 24.56 62.03 24.07 62.65 25.93 62.77 25.62 62.89 25.12 63.01 24.75 63.14 24.44 63.38 24.56 63.63 24.5 64.11 24.62 64.24 24.5 64.36 24.19 64.48 24.31 64.6 24.13 64.73 24.25 64.85 24.07 66.32 24.13 66.56 24.07 66.69 23.94 66.93 23.69 67.42 23.63 67.67 23.57 67.91 23.75 68.4 23.57 68.64 23.57 68.77 23.07 69.01 22.76 69.13 22.95 69.26 22.82 69.38 22.7 69.5 22.76 69.62 22.45 69.87 22.57 69.99 22.51 70.24 22.32 70.48 22.32 70.6 22.39 70.73 22.2 70.97 22.07 71.09 22.2 71.71 22.14 72.2 21.89 72.32 21.83 73.3 21.76 73.42 21.83 73.54 21.89 73.91 21.39 74.03 21.33 74.15 21.27 74.4 21.39 74.64 21.33 74.89 21.27 75.99 20.77"/>
      </g>
    </g>
  </g>
  <g class="guide ylabels" font-size="2.82" font-family="'PT Sans Caption','Helvetica Neue','Helvetica',sans-serif" fill="#6C606B" id="fig-77a31da116ed4e628460b715ec17cc50-element-19">
    <text x="18.63" y="45.71" text-anchor="end" dy="0.35em">0</text>
    <text x="18.63" y="39.49" text-anchor="end" dy="0.35em">100</text>
    <text x="18.63" y="33.27" text-anchor="end" dy="0.35em">200</text>
    <text x="18.63" y="27.05" text-anchor="end" dy="0.35em">300</text>
    <text x="18.63" y="20.83" text-anchor="end" dy="0.35em">400</text>
    <text x="18.63" y="14.61" text-anchor="end" dy="0.35em">500</text>
  </g>
  <g font-size="3.88" font-family="'PT Sans','Helvetica Neue','Helvetica',sans-serif" fill="#564A55" stroke="#000000" stroke-opacity="0.000" id="fig-77a31da116ed4e628460b715ec17cc50-element-20">
    <text x="8.81" y="28.16" text-anchor="middle" dy="0.35em" transform="rotate(-90, 8.81, 30.16)">Number of Packages</text>
  </g>
  <g font-size="3.88" font-family="'PT Sans','Helvetica Neue','Helvetica',sans-serif" fill="#564A55" stroke="#000000" stroke-opacity="0.000" id="fig-77a31da116ed4e628460b715ec17cc50-element-21">
    <text x="58.12" y="10.61" text-anchor="middle">Julia v0.3</text>
  </g>
</g>
<defs>
<clipPath id="fig-77a31da116ed4e628460b715ec17cc50-element-5">
  <path d="M19.63,12.61 L 96.6 12.61 96.6 47.71 19.63 47.71" />
</clipPath
></defs>
</svg>
