<?xml version="1.0" encoding="UTF-8"?>
<svg xmlns="http://www.w3.org/2000/svg"
     xmlns:xlink="http://www.w3.org/1999/xlink"
     xmlns:gadfly="http://www.gadflyjl.org/ns"
     version="1.2"
     width="101.6mm" height="76.2mm" viewBox="0 0 101.6 76.2"
     stroke="none"
     fill="#000000"
     stroke-width="0.3"
     font-size="3.88"
>
<g class="plotroot xscalable yscalable" id="img-6016c8d4-1">
  <g font-size="3.88" font-family="'PT Sans','Helvetica Neue','Helvetica',sans-serif" fill="#564A55" stroke="#000000" stroke-opacity="0.000" id="img-6016c8d4-2">
    <text x="58.12" y="64.59" text-anchor="middle" dy="0.6em">Date</text>
  </g>
  <g class="guide xlabels" font-size="2.82" font-family="'PT Sans Caption','Helvetica Neue','Helvetica',sans-serif" fill="#6C606B" id="img-6016c8d4-3">
    <text x="21.86" y="48.71" text-anchor="end" dy="0.35em" transform="rotate(-90, 21.86, 48.71)">Apr</text>
    <text x="25.36" y="48.71" text-anchor="end" dy="0.35em" transform="rotate(-90, 25.36, 48.71)">May</text>
    <text x="28.98" y="48.71" text-anchor="end" dy="0.35em" transform="rotate(-90, 28.98, 48.71)">Jun</text>
    <text x="32.47" y="48.71" text-anchor="end" dy="0.35em" transform="rotate(-90, 32.47, 48.71)">Jul</text>
    <text x="36.09" y="48.71" text-anchor="end" dy="0.35em" transform="rotate(-90, 36.09, 48.71)">Aug</text>
    <text x="39.7" y="48.71" text-anchor="end" dy="0.35em" transform="rotate(-90, 39.7, 48.71)">Sep</text>
    <text x="43.2" y="48.71" text-anchor="end" dy="0.35em" transform="rotate(-90, 43.2, 48.71)">Oct</text>
    <text x="46.81" y="48.71" text-anchor="end" dy="0.35em" transform="rotate(-90, 46.81, 48.71)">Nov</text>
    <text x="50.31" y="48.71" text-anchor="end" dy="0.35em" transform="rotate(-90, 50.31, 48.71)">Dec</text>
    <text x="53.92" y="48.71" text-anchor="end" dy="0.35em" transform="rotate(-90, 53.92, 48.71)">Jan 2015</text>
    <text x="57.53" y="48.71" text-anchor="end" dy="0.35em" transform="rotate(-90, 57.53, 48.71)">Feb</text>
    <text x="60.8" y="48.71" text-anchor="end" dy="0.35em" transform="rotate(-90, 60.8, 48.71)">Mar</text>
    <text x="64.41" y="48.71" text-anchor="end" dy="0.35em" transform="rotate(-90, 64.41, 48.71)">Apr</text>
    <text x="67.91" y="48.71" text-anchor="end" dy="0.35em" transform="rotate(-90, 67.91, 48.71)">May</text>
    <text x="71.52" y="48.71" text-anchor="end" dy="0.35em" transform="rotate(-90, 71.52, 48.71)">Jun</text>
    <text x="75.02" y="48.71" text-anchor="end" dy="0.35em" transform="rotate(-90, 75.02, 48.71)">Jul</text>
    <text x="78.63" y="48.71" text-anchor="end" dy="0.35em" transform="rotate(-90, 78.63, 48.71)">Aug</text>
    <text x="82.24" y="48.71" text-anchor="end" dy="0.35em" transform="rotate(-90, 82.24, 48.71)">Sep</text>
    <text x="85.74" y="48.71" text-anchor="end" dy="0.35em" transform="rotate(-90, 85.74, 48.71)">Oct</text>
    <text x="89.35" y="48.71" text-anchor="end" dy="0.35em" transform="rotate(-90, 89.35, 48.71)">Nov</text>
    <text x="92.85" y="48.71" text-anchor="end" dy="0.35em" transform="rotate(-90, 92.85, 48.71)">Dec</text>
  </g>
<g clip-path="url(#img-6016c8d4-4)">
  <g id="img-6016c8d4-5">
    <g pointer-events="visible" opacity="1" fill="#000000" fill-opacity="0.000" stroke="#000000" stroke-opacity="0.000" class="guide background" id="img-6016c8d4-6">
      <rect x="19.63" y="12.61" width="76.97" height="35.1"/>
    </g>
    <g class="guide ygridlines xfixed" stroke-dasharray="0.5,0.5" stroke-width="0.2" stroke="#D0D0E0" id="img-6016c8d4-7">
      <path fill="none" d="M19.63,45.71 L 96.6 45.71"/>
      <path fill="none" d="M19.63,30.16 L 96.6 30.16"/>
      <path fill="none" d="M19.63,14.61 L 96.6 14.61"/>
    </g>
    <g class="guide xgridlines yfixed" stroke-dasharray="0.5,0.5" stroke-width="0.2" stroke="#D0D0E0" id="img-6016c8d4-8">
      <path fill="none" d="M21.86,12.61 L 21.86 47.71"/>
      <path fill="none" d="M25.36,12.61 L 25.36 47.71"/>
      <path fill="none" d="M28.98,12.61 L 28.98 47.71"/>
      <path fill="none" d="M32.47,12.61 L 32.47 47.71"/>
      <path fill="none" d="M36.09,12.61 L 36.09 47.71"/>
      <path fill="none" d="M39.7,12.61 L 39.7 47.71"/>
      <path fill="none" d="M43.2,12.61 L 43.2 47.71"/>
      <path fill="none" d="M46.81,12.61 L 46.81 47.71"/>
      <path fill="none" d="M50.31,12.61 L 50.31 47.71"/>
      <path fill="none" d="M53.92,12.61 L 53.92 47.71"/>
      <path fill="none" d="M57.53,12.61 L 57.53 47.71"/>
      <path fill="none" d="M60.8,12.61 L 60.8 47.71"/>
      <path fill="none" d="M64.41,12.61 L 64.41 47.71"/>
      <path fill="none" d="M67.91,12.61 L 67.91 47.71"/>
      <path fill="none" d="M71.52,12.61 L 71.52 47.71"/>
      <path fill="none" d="M75.02,12.61 L 75.02 47.71"/>
      <path fill="none" d="M78.63,12.61 L 78.63 47.71"/>
      <path fill="none" d="M82.24,12.61 L 82.24 47.71"/>
      <path fill="none" d="M85.74,12.61 L 85.74 47.71"/>
      <path fill="none" d="M89.35,12.61 L 89.35 47.71"/>
      <path fill="none" d="M92.85,12.61 L 92.85 47.71"/>
    </g>
    <g class="plotpanel" id="img-6016c8d4-9">
      <g stroke-width="0.3" fill="#000000" fill-opacity="0.000" class="geometry color_newnot_possible" stroke-dasharray="none" stroke="#808080" id="img-6016c8d4-10">
        <path fill="none" d="M73.74,42.94 L 73.85 42.94 73.97 42.95 74.08 42.95 74.2 42.96 74.32 42.96 74.43 42.96 74.55 42.96 74.9 42.96 75.13 42.97 75.37 43.02 75.48 42.98 75.6 42.99 75.72 43 75.83 43.01 75.95 43.01 77.93 43.02 78.86 43.04 79.91 43.06 81.89 43.12 82.24 43.12 82.83 42.99 83.41 42.85 85.27 42.89 85.74 42.92 86.32 42.93 86.79 42.94 87.26 42.94 87.61 42.91 89 42.91 90.4 42.87 90.87 42.86 91.1 42.82 92.15 42.82 92.27 42.82 93.08 42.83 93.2 42.84 94.02 42.84 94.6 42.84"/>
      </g>
      <g stroke-width="0.3" fill="#000000" fill-opacity="0.000" class="geometry color_newno_tests" stroke-dasharray="none" stroke="#0000FF" id="img-6016c8d4-11">
        <path fill="none" d="M73.74,40.12 L 73.85 40.12 73.97 40.13 74.08 40.13 74.2 40.15 74.32 40.15 74.43 40.15 74.55 40.16 74.9 40.16 75.13 40.18 75.37 40.17 75.48 40.19 75.6 40.28 75.72 40.3 75.83 40.3 75.95 40.36 77.93 40.43 78.86 40.47 79.91 40.51 81.89 40.62 82.24 40.69 82.83 40.69 83.41 40.76 85.27 40.97 85.74 41.15 86.32 41.27 86.79 41.27 87.26 41.29 87.61 41.34 89 41.4 90.4 41.49 90.87 41.48 91.1 41.49 92.15 41.49 92.27 41.49 93.08 41.51 93.2 41.51 94.02 41.52 94.6 41.53"/>
      </g>
      <g stroke-width="0.3" fill="#000000" fill-opacity="0.000" class="geometry color_newtests_fail" stroke-dasharray="none" stroke="#FF0000" id="img-6016c8d4-12">
        <path fill="none" d="M73.74,42.78 L 73.85 42.62 73.97 42.58 74.08 42.53 74.2 42.44 74.32 42.59 74.43 42.39 74.55 42.55 74.9 42.44 75.13 42.4 75.37 42.35 75.48 42.51 75.6 40.89 75.72 42.44 75.83 42.14 75.95 42.19 77.93 42.47 78.86 42.54 79.91 42.18 81.89 41.44 82.24 41.69 82.83 41.98 83.41 42.23 85.27 42.24 85.74 42.03 86.32 42.24 86.79 42.29 87.26 42.16 87.61 42.17 89 42.08 90.4 42 90.87 42.31 91.1 42.32 92.15 42.37 92.27 42.32 93.08 42.47 93.2 42.43 94.02 42.48 94.6 42.39"/>
      </g>
      <g stroke-width="0.3" fill="#000000" fill-opacity="0.000" class="geometry color_newtests_pass" stroke-dasharray="none" stroke="#008000" id="img-6016c8d4-13">
        <path fill="none" d="M73.74,25.9 L 73.85 26.06 73.97 26.07 74.08 26.12 74.2 26.19 74.32 26.03 74.43 26.24 74.55 26.07 74.9 26.17 75.13 26.18 75.37 26.2 75.48 26.06 75.6 27.57 75.72 26 75.83 26.29 75.95 26.18 77.93 25.82 78.86 25.69 79.91 25.99 81.89 26.56 82.24 26.24 82.83 26.08 83.41 25.9 85.27 25.63 85.74 25.64 86.32 25.3 86.79 25.24 87.26 25.35 87.61 25.31 89 25.34 90.4 25.37 90.87 25.08 91.1 25.1 92.15 25.05 92.27 25.1 93.08 24.93 93.2 24.96 94.02 24.9 94.6 24.98"/>
      </g>
      <g stroke-width="0.3" fill="#000000" fill-opacity="0.000" class="geometry color_newnot_possible" stroke-dasharray="none" stroke="#808080" id="img-6016c8d4-14">
        <path fill="none" d="M21.63,42.35 L 21.75 42.35 21.86 42.36 21.98 42.36 22.1 42.36 22.21 42.36 22.33 42.36 22.45 42.37 22.68 42.37 22.8 42.38 23.03 42.39 23.26 42.41 23.38 42.41 23.61 42.41 23.73 42.42 24.55 42.47 24.9 42.47 25.13 42.47 25.94 42.58 26.06 42.6 26.18 42.61 26.29 42.61 26.41 42.61 26.53 42.51 26.64 42.51 26.76 42.51 26.88 42.51 26.99 42.31 27.11 42.31 27.23 42.34 27.46 42.25 27.58 42.94 27.69 42.94 27.81 42.96 27.93 42.96 28.04 42.96 28.16 42.97 28.28 42.97 28.39 42.97 28.51 42.97 28.63 42.97 28.74 42.98 28.86 42.98 28.98 42.59 29.09 42.99 29.21 43 29.32 43 30.02 42.58 30.14 42.49 30.26 42.5 30.37 42.51 30.49 42.53 30.61 42.44 30.72 42.27 30.84 42.27 30.96 42.28 31.07 42.29 31.31 42.29 31.42 42.31 31.54 42.31 31.66 42.31 31.77 42.31 31.89 42.31 32.01 42.34 32.12 42.34 32.36 42.35 32.47 42.37 32.59 42.38 32.71 42.39 32.82 42.39 32.94 42.41 33.17 42.42 33.29 42.45 33.4 42.45 33.52 42.45 33.75 42.49 33.99 42.52 34.1 42.52 34.22 42.53 34.34 42.53 34.69 42.54 34.8 42.54 34.92 42.55 35.04 42.55 35.15 42.55 35.27 42.56 35.39 42.48 35.5 42.49 35.74 42.49 35.85 42.49 36.09 42.49 36.2 42.5 36.32 42.52 36.44 42.52 36.67 42.53 36.78 42.53 36.9 42.55 37.02 42.56 37.13 42.57 37.25 42.57 37.37 42.58 37.48 42.6 37.6 42.52 37.72 42.44 37.83 42.45 37.95 42.45 38.07 42.45 38.3 42.48 38.42 42.48 38.53 42.49 38.65 42.49 38.77 42.49 38.88 42.51 39 42.52 39.12 42.53 39.35 42.43 39.47 42.37 39.7 42.39 39.82 42.39 39.93 42.31 40.4 42.31 40.75 42.36 40.86 42.37 40.98 42.38 41.1 42.39 41.21 42.39 41.33 42.39 41.45 42.46 41.56 42.46 41.68 42.46 41.91 42.38 42.03 42.39 42.15 42.4 42.26 42.4 42.38 42.4 42.5 42.41 42.61 42.33 42.85 42.32 42.96 42.33 43.08 42.33 43.2 42.35 43.31 42.29 43.43 42.29 43.55 42.29 43.66 42.3 44.01 42.32 44.13 42.24 44.24 42.26 44.36 42.27 44.48 42.27 44.59 42.27 44.71 42.29 44.83 42.29 44.94 42.29 45.06 42.3 45.18 42.23 45.29 42.23 45.41 42.23 45.53 42.24 45.64 42.25 45.76 42.25 45.88 42.25 45.99 42.26 46.11 42.26 46.23 42.27 46.34 42.27 46.46 42.29 46.58 42.29 46.69 42.29 46.81 42.3 46.93 42.3 47.04 42.3 47.16 42.31 47.28 42.31 47.39 42.32 47.74 42.32 48.32 42.36 48.44 42.37 48.56 42.37 48.67 42.38 48.79 42.38 48.91 42.4 49.02 42.4 49.49 42.44 49.61 42.44 50.19 42.45 50.42 42.45 50.54 42.52 50.66 42.53 50.77 42.53 50.89 42.53 51.01 42.54 51.12 42.55 51.47 42.56 51.59 42.57 51.82 42.59 51.94 42.6 52.05 42.6 52.4 42.6 52.64 42.61 52.99 42.63 53.45 42.64 53.69 42.66 54.04 42.68 54.85 42.72 55.32 42.77 55.43 42.65 55.55 42.65 55.67 42.62 55.78 42.62 55.9 42.62 56.13 42.62 56.25 42.63 56.37 42.63 56.48 42.65 56.6 42.65 56.72 42.65 56.83 42.65 57.07 42.61 57.18 42.62 57.3 42.63 57.77 42.68 57.88 42.67 58 42.67 58.23 42.68 58.47 42.7 58.58 42.7 58.93 42.71 59.51 42.71 60.1 42.75 60.68 42.77 60.8 42.77 60.91 42.77 61.03 42.37 61.15 42.43 61.38 42.37 61.61 42.37 62.08 42.38 62.2 42.4 62.31 42.4 62.43 42.4 62.55 42.41 62.66 42.47 62.78 42.42 64.18 42.37 64.41 42.31 64.53 42.33 64.76 42.33 65.23 42.34 65.46 42.34 65.69 42.35 66.16 42.35 66.39 42.37 66.51 42.37 66.74 42.4 66.86 42.4 66.97 42.41 67.09 42.43 67.21 42.43 67.32 42.43 67.56 42.44 67.67 42.44 67.91 42.44 68.14 42.46 68.26 42.47 68.37 42.48 68.61 42.49 68.72 42.5 69.31 42.52 69.77 42.58 69.89 42.54 70.82 42.56 70.94 42.45 71.05 42.45 71.4 42.47 71.52 42.48 71.64 42.54 71.87 42.55 72.1 42.55 72.34 42.55 73.39 42.58"/>
      </g>
      <g stroke-width="0.3" fill="#000000" fill-opacity="0.000" class="geometry color_newtests_fail" stroke-dasharray="none" stroke="#FF0000" id="img-6016c8d4-15">
        <path fill="none" d="M21.63,41.51 L 21.75 41.51 21.86 39.95 21.98 41.62 22.1 41.52 22.21 39.84 22.33 39.84 22.45 39.86 22.68 41.53 22.8 41.55 23.03 41.67 23.26 41.69 23.38 41.69 23.61 41.8 23.73 41.81 24.55 41.96 24.9 41.96 25.13 41.96 25.94 41.87 26.06 42 26.18 41.81 26.29 41.81 26.41 41.91 26.53 42.01 26.64 41.91 26.76 41.91 26.88 41.91 26.99 42.01 27.11 42.01 27.23 41.85 27.46 41.96 27.58 41.76 27.69 41.96 27.81 42.18 27.93 42.18 28.04 42.27 28.16 42.29 28.28 42.19 28.39 42.29 28.51 42.29 28.63 42.29 28.74 42.39 28.86 42.39 28.98 42.81 29.09 42.79 29.21 42.8 29.32 42.81 30.02 43.43 30.14 43.53 30.26 43.54 30.37 43.55 30.49 43.47 30.61 43.56 30.72 43.57 30.84 43.57 30.96 43.49 31.07 41.74 31.31 43.49 31.42 43.6 31.54 43.6 31.66 43.6 31.77 43.6 31.89 43.6 32.01 43.62 32.12 43.62 32.36 43.62 32.47 43.64 32.59 43.55 32.71 43.56 32.82 43.56 32.94 43.57 33.17 43.58 33.29 43.42 33.4 43.42 33.52 43.42 33.75 43.28 33.99 41.57 34.1 41.49 34.22 43.3 34.34 43.22 34.69 43.4 34.8 43.4 34.92 43.4 35.04 43.4 35.15 43.49 35.27 43.58 35.39 43.58 35.5 43.59 35.74 43.59 35.85 43.67 36.09 43.59 36.2 43.68 36.32 43.7 36.44 43.7 36.67 43.7 36.78 43.7 36.9 43.55 37.02 43.64 37.13 43.64 37.25 43.56 37.37 43.57 37.48 43.42 37.6 43.5 37.72 43.67 37.83 41.39 37.95 41.88 38.07 41.88 38.3 43.77 38.42 43.85 38.53 43.77 38.65 43.86 38.77 43.77 38.88 43.79 39 43.95 39.12 43.72 39.35 43.99 39.47 44.08 39.7 43.93 39.82 43.93 39.93 44.01 40.4 44.01 40.75 44.43 40.86 44.44 40.98 44.44 41.1 44.52 41.21 44.6 41.33 44.6 41.45 44.63 41.56 44.63 41.68 44.63 41.91 44.47 42.03 44.47 42.15 44.4 42.26 44.48 42.38 44.4 42.5 44.25 42.61 44.33 42.85 44.4 42.96 44.48 43.08 44.48 43.2 44.41 43.31 44.4 43.43 44.42 43.55 44.49 43.66 44.5 44.01 44.5 44.13 44.5 44.24 44.51 44.36 44.59 44.48 44.59 44.59 44.59 44.71 44.59 44.83 44.59 44.94 44.45 45.06 44.38 45.18 44.38 45.29 44.23 45.41 44.38 45.53 44.38 45.64 44.39 45.76 44.39 45.88 44.39 45.99 44.31 46.11 44.39 46.23 44.32 46.34 44.39 46.46 44.32 46.58 44.4 46.69 44.4 46.81 44.4 46.93 44.48 47.04 44.48 47.16 44.55 47.28 44.55 47.39 44.34 47.74 44.63 48.32 44.57 48.44 44.57 48.56 44.57 48.67 44.65 48.79 44.72 48.91 44.58 49.02 44.58 49.49 44.53 49.61 44.6 50.19 44.6 50.42 44.6 50.54 44.18 50.66 44.4 50.77 44.6 50.89 44.6 51.01 44.61 51.12 44.54 51.47 44.48 51.59 44.48 51.82 44.42 51.94 44.49 52.05 44.49 52.4 44.49 52.64 44.56 52.99 44.57 53.45 44.57 53.69 44.58 54.04 44.59 54.85 44.54 55.32 44.43 55.43 44.56 55.55 44.56 55.67 44.32 55.78 44.32 55.9 44.38 56.13 44.38 56.25 44.33 56.37 44.33 56.48 44.27 56.6 44.34 56.72 44.34 56.83 44.34 57.07 44.35 57.18 44.35 57.3 44.35 57.77 44.19 57.88 44.19 58 44.19 58.23 44.14 58.47 44.08 58.58 44.08 58.93 44.09 59.51 44.09 60.1 44.17 60.68 42.48 60.8 43.06 60.91 43.47 61.03 44.19 61.15 44.19 61.38 44.19 61.61 44.19 62.08 44.19 62.2 44.14 62.31 44.14 62.43 44.14 62.55 44.15 62.66 44.14 62.78 44.09 64.18 44.04 64.41 44.1 64.53 44.22 64.76 44.22 65.23 44.11 65.46 44.22 65.69 44.17 66.16 44.17 66.39 44.18 66.51 44.13 66.74 44.03 66.86 44.03 66.97 44.03 67.09 44.1 67.21 43.98 67.32 43.99 67.56 43.99 67.67 44.05 67.91 43.99 68.14 44 68.26 43.9 68.37 43.9 68.61 43.96 68.72 43.91 69.31 43.87 69.77 43.77 69.89 43.77 70.82 43.57 70.94 43.57 71.05 43.57 71.4 43.59 71.52 43.59 71.64 43.65 71.87 43.71 72.1 43.65 72.34 43.66 73.39 43.78"/>
      </g>
      <g stroke-width="0.3" fill="#000000" fill-opacity="0.000" class="geometry color_newno_tests" stroke-dasharray="none" stroke="#0000FF" id="img-6016c8d4-16">
        <path fill="none" d="M21.63,40.04 L 21.75 40.04 21.86 40.05 21.98 40.05 22.1 40.05 22.21 40.16 22.33 40.16 22.45 40.07 22.68 39.97 22.8 39.99 23.03 40.01 23.26 39.84 23.38 39.84 23.61 39.84 23.73 39.86 24.55 39.93 24.9 39.93 25.13 39.93 25.94 39.85 26.06 39.89 26.18 39.91 26.29 39.91 26.41 39.91 26.53 39.91 26.64 39.91 26.76 39.91 26.88 39.91 26.99 40.11 27.11 40.11 27.23 40.16 27.46 40.28 27.58 40.28 27.69 40.28 27.81 40.21 27.93 40.21 28.04 40.41 28.16 40.53 28.28 40.53 28.39 40.53 28.51 40.53 28.63 40.53 28.74 40.54 28.86 40.54 28.98 39.36 29.09 40.27 29.21 40.28 29.32 40.3 30.02 40.4 30.14 40.42 30.26 40.43 30.37 40.54 30.49 40.57 30.61 40.57 30.72 40.6 30.84 40.7 30.96 40.71 31.07 41 31.31 40.91 31.42 40.75 31.54 40.75 31.66 40.75 31.77 40.75 31.89 40.75 32.01 40.8 32.12 40.8 32.36 40.9 32.47 40.84 32.59 40.86 32.71 40.87 32.82 41.05 32.94 41.08 33.17 41.09 33.29 41.13 33.4 41.13 33.52 41.13 33.75 41.02 33.99 41.32 34.1 41.23 34.22 41.16 34.34 41.16 34.69 41.17 34.8 41.17 34.92 41.18 35.04 41.18 35.15 41.27 35.27 41.28 35.39 41.29 35.5 41.39 35.74 41.39 35.85 41.39 36.09 41.39 36.2 41.4 36.32 41.43 36.44 41.43 36.67 41.28 36.78 41.36 36.9 41.38 37.02 41.31 37.13 41.33 37.25 41.34 37.37 41.35 37.48 41.37 37.6 41.37 37.72 41.38 37.83 41.88 37.95 41.88 38.07 41.88 38.3 41.35 38.42 41.35 38.53 41.44 38.65 41.44 38.77 41.52 38.88 41.47 39 41.48 39.12 41.57 39.35 41.93 39.47 42.05 39.7 42.06 39.82 42.06 39.93 42.06 40.4 42.06 40.75 42.04 40.86 42.05 40.98 41.98 41.1 42 41.21 42 41.33 42.08 41.45 42.15 41.56 42.23 41.68 42.23 41.91 42.23 42.03 42.16 42.15 42.17 42.26 42.17 42.38 42.17 42.5 42.25 42.61 42.25 42.85 42.17 42.96 42.18 43.08 42.18 43.2 42.19 43.31 42.07 43.43 42.21 43.55 42.21 43.66 42.23 44.01 42.32 44.13 42.32 44.24 42.26 44.36 42.27 44.48 42.27 44.59 42.27 44.71 42.29 44.83 42.29 44.94 42.29 45.06 42.3 45.18 42.3 45.29 42.38 45.41 42.3 45.53 42.31 45.64 42.33 45.76 42.33 45.88 42.33 45.99 42.41 46.11 42.33 46.23 42.42 46.34 42.34 46.46 42.36 46.58 42.37 46.69 42.37 46.81 42.37 46.93 42.37 47.04 42.37 47.16 42.38 47.28 42.38 47.39 42.39 47.74 42.39 48.32 42.43 48.44 42.44 48.56 42.44 48.67 42.45 48.79 42.45 48.91 42.47 49.02 42.47 49.49 42.58 49.61 42.51 50.19 42.52 50.42 42.52 50.54 42.52 50.66 42.6 50.77 42.53 50.89 42.53 51.01 42.54 51.12 42.62 51.47 42.56 51.59 42.57 51.82 42.59 51.94 42.53 52.05 42.53 52.4 42.6 52.64 42.54 52.99 42.56 53.45 42.64 53.69 42.59 54.04 42.62 54.85 42.66 55.32 42.7 55.43 42.71 55.55 42.71 55.67 42.81 55.78 42.74 55.9 42.74 56.13 42.74 56.25 42.82 56.37 42.82 56.48 42.84 56.6 42.78 56.72 42.78 56.83 42.78 57.07 42.8 57.18 42.81 57.3 42.81 57.77 42.86 57.88 42.85 58 42.85 58.23 42.86 58.47 42.88 58.58 42.88 58.93 42.89 59.51 42.89 60.1 42.92 60.68 43.12 60.8 43.06 60.91 43.06 61.03 43.07 61.15 43.01 61.38 43.01 61.61 43.01 62.08 43.02 62.2 43.03 62.31 43.1 62.43 43.1 62.55 43.11 62.66 43.1 62.78 43.11 64.18 43.17 64.41 43.17 64.53 43.19 64.76 43.25 65.23 43.25 65.46 43.25 65.69 43.26 66.16 43.26 66.39 43.27 66.51 43.28 66.74 43.3 66.86 43.3 66.97 43.3 67.09 43.32 67.21 43.32 67.32 43.32 67.56 43.32 67.67 43.33 67.91 43.38 68.14 43.34 68.26 43.35 68.37 43.35 68.61 43.42 68.72 43.37 69.31 43.44 69.77 43.44 69.89 43.45 70.82 43.47 70.94 43.47 71.05 43.47 71.4 43.53 71.52 43.54 71.64 43.49 71.87 43.49 72.1 43.49 72.34 43.55 73.39 43.52"/>
      </g>
      <g stroke-width="0.3" fill="#000000" fill-opacity="0.000" class="geometry color_oldfull_fail" stroke-dasharray="none" stroke="#FFA500" id="img-6016c8d4-17">
        <path fill="none" d="M21.63,41.4 L 21.75 41.4 21.86 42.15 21.98 41 22.1 41.1 22.21 41.94 22.33 41.73 22.45 41.95 22.68 40.49 22.8 40.51 23.03 40.42 23.26 40.87 23.38 40.66 23.61 40.97 23.73 40.88 24.55 41.15 24.9 41.15 25.13 41.15 25.94 41.06 26.06 40.89 26.18 39.91 26.29 39.91 26.41 40.41 26.53 40.41 26.64 40.71 26.76 40.71 26.88 40.71 26.99 41.11 27.11 41.11 27.23 41.65 27.46 41.66 27.58 41.56 27.69 41.36 27.81 41.49 27.93 41.49 28.04 41.69 28.16 41.7 28.28 41.7 28.39 41.5 28.51 41.89 28.63 41.8 28.74 41.71 28.86 41.52 28.98 45.71 29.09 41.92 29.21 41.45 29.32 41.65 30.02 41.54 30.14 41.93 30.26 42.32 30.37 42.33 30.49 42.25 30.61 42.63 30.72 42.55 30.84 42.55 30.96 42.65 31.07 42.94 31.31 42.48 31.42 42.59 31.54 42.77 31.66 42.59 31.77 42.77 31.89 42.77 32.01 42.44 32.12 42.53 32.36 42.9 32.47 42.91 32.59 42.92 32.71 42.84 32.82 42.75 32.94 42.95 33.17 42.95 33.29 43.07 33.4 43.15 33.52 43.15 33.75 43.02 33.99 42.44 34.1 42.87 34.22 42.79 34.34 42.79 34.69 42.8 34.8 42.8 34.92 42.55 35.04 42.72 35.15 42.63 35.27 42.64 35.39 42.82 35.5 42.74 35.74 42.83 35.85 42.91 36.09 42.91 36.2 42.92 36.32 42.94 36.44 42.94 36.67 42.95 36.78 42.95 36.9 42.96 37.02 42.89 37.13 42.9 37.25 42.82 37.37 42.99 37.48 42.84 37.6 42.76 37.72 42.77 37.83 42.61 37.95 42.53 38.07 42.61 38.3 42.48 38.42 42.56 38.53 42.81 38.65 42.57 38.77 42.57 38.88 42.67 39 42.44 39.12 42.53 39.35 42.84 39.47 42.78 39.7 42.79 39.82 42.79 39.93 42.79 40.4 42.79 40.75 42.76 40.86 42.69 40.98 42.77 41.1 42.63 41.21 42.63 41.33 42.87 41.45 42.54 41.56 42.46 41.68 42.46 41.91 42.54 42.03 42.7 42.15 42.63 42.26 42.71 42.38 42.71 42.5 42.56 42.61 42.71 42.85 42.86 42.96 42.87 43.08 42.87 43.2 42.88 43.31 42.8 43.43 42.97 43.55 42.97 43.66 42.98 44.01 42.55 44.13 42.77 44.24 42.79 44.36 42.94 44.48 42.79 44.59 42.94 44.71 42.96 44.83 42.88 44.94 42.89 45.06 42.82 45.18 43.04 45.29 42.97 45.41 42.89 45.53 42.98 45.64 42.99 45.76 42.91 45.88 43.06 45.99 42.85 46.11 42.85 46.23 43 46.34 42.93 46.46 42.87 46.58 42.87 46.69 42.87 46.81 42.81 46.93 42.88 47.04 43.03 47.16 42.82 47.28 42.89 47.39 42.89 47.74 42.75 48.32 42.78 48.44 42.66 48.56 42.66 48.67 42.52 48.79 42.59 48.91 42.82 49.02 42.82 49.49 42.79 49.61 42.79 50.19 42.65 50.42 42.65 50.54 42.38 50.66 42.53 50.77 42.6 50.89 42.74 51.01 42.75 51.12 42.62 51.47 42.5 51.59 42.5 51.82 42.46 51.94 42.26 52.05 42.6 52.4 42.53 52.64 42.68 52.99 42.63 53.45 42.51 53.69 42.66 54.04 42.42 54.85 42.33 55.32 42.45 55.43 42.46 55.55 42.46 55.67 42.18 55.78 42.05 55.9 41.99 56.13 42.11 56.25 42.13 56.37 42.13 56.48 42.09 56.6 41.91 56.72 42.22 56.83 42.22 57.07 42.24 57.18 42.25 57.3 42.32 57.77 42.19 57.88 42.3 58 42.12 58.23 42.56 58.47 42.58 58.58 42.52 58.93 42.41 59.51 42.41 60.1 42.51 60.68 42.06 60.8 41.83 60.91 41.89 61.03 41.84 61.15 42.14 61.38 42.08 61.61 42.14 62.08 41.92 62.2 41.99 62.31 42.17 62.43 42.05 62.55 42.12 62.66 42 62.78 42.19 64.18 42.14 64.41 42.2 64.53 42.04 64.76 42.21 65.23 42.34 65.46 42.28 65.69 42.01 66.16 42.18 66.39 42.08 66.51 42.54 66.74 42.68 66.86 42.51 66.97 42.58 67.09 42.48 67.21 42.54 67.32 42.77 67.56 42.6 67.67 42.55 67.91 42.72 68.14 42.68 68.26 42.58 68.37 42.7 68.61 42.6 68.72 42.55 69.31 42.41 69.77 42.58 69.89 42.59 70.82 42.67 70.94 42.72 71.05 42.67 71.4 42.9 71.52 42.9 71.64 42.85 71.87 42.6 72.1 42.7 72.34 42.66 73.39 42.79"/>
      </g>
      <g stroke-width="0.3" fill="#000000" fill-opacity="0.000" class="geometry color_newtests_pass" stroke-dasharray="none" stroke="#008000" id="img-6016c8d4-18">
        <path fill="none" d="M21.63,32.16 L 21.75 32.16 21.86 32.93 21.98 32.41 22.1 32.41 22.21 33.14 22.33 33.35 22.45 33.19 22.68 33.08 22.8 33.02 23.03 32.96 23.26 32.63 23.38 32.84 23.61 32.43 23.73 32.47 24.55 31.93 24.9 31.93 25.13 31.93 25.94 32.08 26.06 32.07 26.18 33.21 26.29 33.21 26.41 32.61 26.53 32.61 26.64 32.41 26.76 32.41 26.88 32.41 26.99 31.91 27.11 31.91 27.23 31.45 27.46 31.3 27.58 30.9 27.69 30.9 27.81 30.6 27.93 30.6 28.04 30.11 28.16 29.96 28.28 30.06 28.39 30.16 28.51 29.77 28.63 29.87 28.74 29.82 28.86 30.01 28.98 26.98 29.09 29.48 29.21 29.92 29.32 29.68 30.02 29.5 30.14 29.07 30.26 28.65 30.37 28.52 30.49 28.62 30.61 28.25 30.72 28.44 30.84 28.35 30.96 28.31 31.07 29.47 31.31 28.27 31.42 28.19 31.54 28 31.66 28.19 31.77 28 31.89 28 32.01 28.25 32.12 28.16 32.36 27.67 32.47 27.68 32.59 27.73 32.71 27.79 32.82 27.7 32.94 27.44 33.17 27.41 33.29 27.39 33.4 27.3 33.52 27.3 33.75 27.64 33.99 29.6 34.1 29.34 34.22 27.67 34.34 27.75 34.69 27.55 34.8 27.55 34.92 27.77 35.04 27.6 35.15 27.51 35.27 27.39 35.39 27.27 35.5 27.24 35.74 27.15 35.85 26.98 36.09 27.07 36.2 26.95 36.32 26.85 36.44 26.85 36.67 26.98 36.78 26.9 36.9 27 37.02 27.05 37.13 27.02 37.25 27.15 37.37 26.95 37.48 27.21 37.6 27.3 37.72 27.18 37.83 29.1 37.95 28.69 38.07 28.61 38.3 27.37 38.42 27.21 38.53 26.94 38.65 27.1 38.77 27.1 38.88 27 39 27.05 39.12 27.1 39.35 26.26 39.47 26.17 39.7 26.27 39.82 26.27 39.93 26.27 40.4 26.27 40.75 25.85 40.86 25.91 40.98 25.88 41.1 25.9 41.21 25.82 41.33 25.5 41.45 25.67 41.56 25.67 41.68 25.67 41.91 25.83 42.03 25.72 42.15 25.85 42.26 25.7 42.38 25.77 42.5 25.98 42.61 25.82 42.85 25.7 42.96 25.59 43.08 25.59 43.2 25.61 43.31 25.9 43.43 25.56 43.55 25.48 43.66 25.43 44.01 25.76 44.13 25.6 44.24 25.63 44.36 25.38 44.48 25.53 44.59 25.38 44.71 25.32 44.83 25.4 44.94 25.52 45.06 25.64 45.18 25.5 45.29 25.64 45.41 25.64 45.53 25.54 45.64 25.49 45.76 25.57 45.88 25.42 45.99 25.61 46.11 25.61 46.23 25.44 46.34 25.51 46.46 25.61 46.58 25.51 46.69 25.51 46.81 25.56 46.93 25.41 47.04 25.27 47.16 25.39 47.28 25.31 47.39 25.51 47.74 25.36 48.32 25.31 48.44 25.4 48.56 25.4 48.67 25.45 48.79 25.31 48.91 25.16 49.02 25.16 49.49 25.12 49.61 25.12 50.19 25.23 50.42 25.23 50.54 25.83 50.66 25.39 50.77 25.18 50.89 25.05 51.01 25 51.12 25.11 51.47 25.34 51.59 25.32 51.82 25.38 51.94 25.56 52.05 25.23 52.4 25.23 52.64 25.04 52.99 25.07 53.45 25.09 53.69 24.96 54.04 25.13 54.85 25.19 55.32 25.11 55.43 25.06 55.55 25.06 55.67 25.52 55.78 25.71 55.9 25.71 56.13 25.59 56.25 25.54 56.37 25.54 56.48 25.6 56.6 25.77 56.72 25.45 56.83 25.45 57.07 25.45 57.18 25.41 57.3 25.33 57.77 25.52 57.88 25.44 58 25.63 58.23 25.2 58.47 25.2 58.58 25.26 58.93 25.34 59.51 25.34 60.1 25.1 60.68 27.02 60.8 26.72 60.91 26.25 61.03 25.97 61.15 25.68 61.38 25.8 61.61 25.74 62.08 25.93 62.2 25.89 62.31 25.63 62.43 25.75 62.55 25.65 62.66 25.73 62.78 25.63 64.18 25.73 64.41 25.67 64.53 25.66 64.76 25.44 65.23 25.42 65.46 25.36 65.69 25.64 66.16 25.47 66.39 25.54 66.51 25.13 66.74 25.03 66.86 25.2 66.97 25.13 67.09 25.13 67.21 25.18 67.32 24.94 67.56 25.09 67.67 25.07 67.91 24.9 68.14 24.98 68.26 25.14 68.37 25.01 68.61 24.98 68.72 25.12 69.31 25.21 69.77 25.07 69.89 25.08 70.82 25.17 70.94 25.23 71.05 25.28 71.4 24.96 71.52 24.94 71.64 24.92 71.87 25.1 72.1 25.05 72.34 25.03 73.39 24.79"/>
      </g>
    </g>
  </g>
</g>
  <g class="guide ylabels" font-size="2.82" font-family="'PT Sans Caption','Helvetica Neue','Helvetica',sans-serif" fill="#6C606B" id="img-6016c8d4-19">
    <text x="18.63" y="45.71" text-anchor="end" dy="0.35em">0</text>
    <text x="18.63" y="30.16" text-anchor="end" dy="0.35em">50</text>
    <text x="18.63" y="14.61" text-anchor="end" dy="0.35em">100</text>
  </g>
  <g font-size="3.88" font-family="'PT Sans','Helvetica Neue','Helvetica',sans-serif" fill="#564A55" stroke="#000000" stroke-opacity="0.000" id="img-6016c8d4-20">
    <text x="8.81" y="28.16" text-anchor="middle" dy="0.35em" transform="rotate(-90, 8.81, 30.16)">Percentage of Packages</text>
  </g>
  <g font-size="3.88" font-family="'PT Sans','Helvetica Neue','Helvetica',sans-serif" fill="#564A55" stroke="#000000" stroke-opacity="0.000" id="img-6016c8d4-21">
    <text x="58.12" y="10.61" text-anchor="middle">Julia v0.3 (relative)</text>
  </g>
</g>
<defs>
  <clipPath id="img-6016c8d4-4">
  <path d="M19.63,12.61 L 96.6 12.61 96.6 47.71 19.63 47.71" />
</clipPath>
</defs>
</svg>
