<?xml version="1.0" encoding="UTF-8"?>
<svg xmlns="http://www.w3.org/2000/svg"
     xmlns:xlink="http://www.w3.org/1999/xlink"
     xmlns:gadfly="http://www.gadflyjl.org/ns"
     version="1.2"
     width="101.6mm" height="76.2mm" viewBox="0 0 101.6 76.2"
     stroke="none"
     fill="#000000"
     stroke-width="0.3"
     font-size="3.88"
>
<g class="plotroot xscalable yscalable" id="fig-1991e908ee36456190a9c7dc63c5028c-element-1">
  <g font-size="3.88" font-family="'PT Sans','Helvetica Neue','Helvetica',sans-serif" fill="#564A55" stroke="#000000" stroke-opacity="0.000" id="fig-1991e908ee36456190a9c7dc63c5028c-element-2">
    <text x="58.12" y="64.59" text-anchor="middle" dy="0.6em">Date</text>
  </g>
  <g class="guide xlabels" font-size="2.82" font-family="'PT Sans Caption','Helvetica Neue','Helvetica',sans-serif" fill="#6C606B" id="fig-1991e908ee36456190a9c7dc63c5028c-element-3">
    <text x="21.9" y="48.71" text-anchor="end" dy="0.35em" transform="rotate(-90, 21.9, 48.71)">Apr</text>
    <text x="25.88" y="48.71" text-anchor="end" dy="0.35em" transform="rotate(-90, 25.88, 48.71)">May</text>
    <text x="29.99" y="48.71" text-anchor="end" dy="0.35em" transform="rotate(-90, 29.99, 48.71)">Jun</text>
    <text x="33.97" y="48.71" text-anchor="end" dy="0.35em" transform="rotate(-90, 33.97, 48.71)">Jul</text>
    <text x="38.08" y="48.71" text-anchor="end" dy="0.35em" transform="rotate(-90, 38.08, 48.71)">Aug</text>
    <text x="42.2" y="48.71" text-anchor="end" dy="0.35em" transform="rotate(-90, 42.2, 48.71)">Sep</text>
    <text x="46.18" y="48.71" text-anchor="end" dy="0.35em" transform="rotate(-90, 46.18, 48.71)">Oct</text>
    <text x="50.29" y="48.71" text-anchor="end" dy="0.35em" transform="rotate(-90, 50.29, 48.71)">Nov</text>
    <text x="54.27" y="48.71" text-anchor="end" dy="0.35em" transform="rotate(-90, 54.27, 48.71)">Dec</text>
    <text x="58.38" y="48.71" text-anchor="end" dy="0.35em" transform="rotate(-90, 58.38, 48.71)">Jan 2015</text>
    <text x="62.49" y="48.71" text-anchor="end" dy="0.35em" transform="rotate(-90, 62.49, 48.71)">Feb</text>
    <text x="66.21" y="48.71" text-anchor="end" dy="0.35em" transform="rotate(-90, 66.21, 48.71)">Mar</text>
    <text x="70.32" y="48.71" text-anchor="end" dy="0.35em" transform="rotate(-90, 70.32, 48.71)">Apr</text>
    <text x="74.3" y="48.71" text-anchor="end" dy="0.35em" transform="rotate(-90, 74.3, 48.71)">May</text>
    <text x="78.41" y="48.71" text-anchor="end" dy="0.35em" transform="rotate(-90, 78.41, 48.71)">Jun</text>
    <text x="82.39" y="48.71" text-anchor="end" dy="0.35em" transform="rotate(-90, 82.39, 48.71)">Jul</text>
    <text x="86.51" y="48.71" text-anchor="end" dy="0.35em" transform="rotate(-90, 86.51, 48.71)">Aug</text>
    <text x="90.62" y="48.71" text-anchor="end" dy="0.35em" transform="rotate(-90, 90.62, 48.71)">Sep</text>
    <text x="94.6" y="48.71" text-anchor="end" dy="0.35em" transform="rotate(-90, 94.6, 48.71)">Oct</text>
  </g>
  <g clip-path="url(#fig-1991e908ee36456190a9c7dc63c5028c-element-5)" id="fig-1991e908ee36456190a9c7dc63c5028c-element-4">
    <g pointer-events="visible" opacity="1" fill="#000000" fill-opacity="0.000" stroke="#000000" stroke-opacity="0.000" class="guide background" id="fig-1991e908ee36456190a9c7dc63c5028c-element-6">
      <rect x="19.63" y="12.61" width="76.97" height="35.1"/>
    </g>
    <g class="guide ygridlines xfixed" stroke-dasharray="0.5,0.5" stroke-width="0.2" stroke="#D0D0E0" id="fig-1991e908ee36456190a9c7dc63c5028c-element-7">
      <path fill="none" d="M19.63,45.71 L 96.6 45.71"/>
      <path fill="none" d="M19.63,30.16 L 96.6 30.16"/>
      <path fill="none" d="M19.63,14.61 L 96.6 14.61"/>
    </g>
    <g class="guide xgridlines yfixed" stroke-dasharray="0.5,0.5" stroke-width="0.2" stroke="#D0D0E0" id="fig-1991e908ee36456190a9c7dc63c5028c-element-8">
      <path fill="none" d="M21.9,12.61 L 21.9 47.71"/>
      <path fill="none" d="M25.88,12.61 L 25.88 47.71"/>
      <path fill="none" d="M29.99,12.61 L 29.99 47.71"/>
      <path fill="none" d="M33.97,12.61 L 33.97 47.71"/>
      <path fill="none" d="M38.08,12.61 L 38.08 47.71"/>
      <path fill="none" d="M42.2,12.61 L 42.2 47.71"/>
      <path fill="none" d="M46.18,12.61 L 46.18 47.71"/>
      <path fill="none" d="M50.29,12.61 L 50.29 47.71"/>
      <path fill="none" d="M54.27,12.61 L 54.27 47.71"/>
      <path fill="none" d="M58.38,12.61 L 58.38 47.71"/>
      <path fill="none" d="M62.49,12.61 L 62.49 47.71"/>
      <path fill="none" d="M66.21,12.61 L 66.21 47.71"/>
      <path fill="none" d="M70.32,12.61 L 70.32 47.71"/>
      <path fill="none" d="M74.3,12.61 L 74.3 47.71"/>
      <path fill="none" d="M78.41,12.61 L 78.41 47.71"/>
      <path fill="none" d="M82.39,12.61 L 82.39 47.71"/>
      <path fill="none" d="M86.51,12.61 L 86.51 47.71"/>
      <path fill="none" d="M90.62,12.61 L 90.62 47.71"/>
      <path fill="none" d="M94.6,12.61 L 94.6 47.71"/>
    </g>
    <g class="plotpanel" id="fig-1991e908ee36456190a9c7dc63c5028c-element-9">
      <g stroke-width="0.3" fill="#000000" fill-opacity="0.000" class="geometry color_newnot_possible" stroke="#808080" id="fig-1991e908ee36456190a9c7dc63c5028c-element-10">
        <path fill="none" d="M80.94,42.94 L 81.07 42.94 81.2 42.95 81.33 42.95 81.47 42.96 81.6 42.96 81.73 42.96 81.86 42.96 82.26 42.96 82.53 42.97 82.79 43.02 82.93 42.98 83.06 42.99 83.19 43 83.32 43.01 83.46 43.01 85.71 43.02 86.77 43.04 87.97 43.06 90.22 43.12 90.62 43.12 91.28 42.99 91.95 42.85 94.07 42.89 94.6 42.92"/>
      </g>
      <g stroke-width="0.3" fill="#000000" fill-opacity="0.000" class="geometry color_newno_tests" stroke="#0000FF" id="fig-1991e908ee36456190a9c7dc63c5028c-element-11">
        <path fill="none" d="M80.94,40.12 L 81.07 40.12 81.2 40.13 81.33 40.13 81.47 40.15 81.6 40.15 81.73 40.15 81.86 40.16 82.26 40.16 82.53 40.18 82.79 40.17 82.93 40.19 83.06 40.28 83.19 40.3 83.32 40.3 83.46 40.36 85.71 40.43 86.77 40.47 87.97 40.51 90.22 40.62 90.62 40.69 91.28 40.69 91.95 40.76 94.07 40.97 94.6 41.15"/>
      </g>
      <g stroke-width="0.3" fill="#000000" fill-opacity="0.000" class="geometry color_newtests_fail" stroke="#FF0000" id="fig-1991e908ee36456190a9c7dc63c5028c-element-12">
        <path fill="none" d="M80.94,42.78 L 81.07 42.62 81.2 42.58 81.33 42.53 81.47 42.44 81.6 42.59 81.73 42.39 81.86 42.55 82.26 42.44 82.53 42.4 82.79 42.35 82.93 42.51 83.06 40.89 83.19 42.44 83.32 42.14 83.46 42.19 85.71 42.47 86.77 42.54 87.97 42.18 90.22 41.44 90.62 41.69 91.28 41.98 91.95 42.23 94.07 42.24 94.6 42.03"/>
      </g>
      <g stroke-width="0.3" fill="#000000" fill-opacity="0.000" class="geometry color_newtests_pass" stroke="#008000" id="fig-1991e908ee36456190a9c7dc63c5028c-element-13">
        <path fill="none" d="M80.94,25.9 L 81.07 26.06 81.2 26.07 81.33 26.12 81.47 26.19 81.6 26.03 81.73 26.24 81.86 26.07 82.26 26.17 82.53 26.18 82.79 26.2 82.93 26.06 83.06 27.57 83.19 26 83.32 26.29 83.46 26.18 85.71 25.82 86.77 25.69 87.97 25.99 90.22 26.56 90.62 26.24 91.28 26.08 91.95 25.9 94.07 25.63 94.6 25.64"/>
      </g>
      <g stroke-width="0.3" fill="#000000" fill-opacity="0.000" class="geometry color_newnot_possible" stroke="#808080" id="fig-1991e908ee36456190a9c7dc63c5028c-element-14">
        <path fill="none" d="M21.63,42.35 L 21.76 42.35 21.9 42.36 22.03 42.36 22.16 42.36 22.3 42.36 22.43 42.36 22.56 42.37 22.83 42.37 22.96 42.38 23.22 42.39 23.49 42.41 23.62 42.41 23.89 42.41 24.02 42.42 24.95 42.47 25.35 42.47 25.61 42.47 26.54 42.58 26.67 42.6 26.81 42.61 26.94 42.61 27.07 42.61 27.2 42.51 27.34 42.51 27.47 42.51 27.6 42.51 27.73 42.31 27.87 42.31 28 42.34 28.27 42.25 28.4 42.94 28.53 42.94 28.66 42.96 28.8 42.96 28.93 42.96 29.06 42.97 29.19 42.97 29.33 42.97 29.46 42.97 29.59 42.97 29.72 42.98 29.86 42.98 29.99 42.59 30.12 42.99 30.26 43 30.39 43 31.18 42.58 31.32 42.49 31.45 42.5 31.58 42.51 31.71 42.53 31.85 42.44 31.98 42.27 32.11 42.27 32.25 42.28 32.38 42.29 32.64 42.29 32.78 42.31 32.91 42.31 33.04 42.31 33.17 42.31 33.31 42.31 33.44 42.34 33.57 42.34 33.84 42.35 33.97 42.37 34.1 42.38 34.24 42.39 34.37 42.39 34.5 42.41 34.77 42.42 34.9 42.45 35.03 42.45 35.16 42.45 35.43 42.49 35.69 42.52 35.83 42.52 35.96 42.53 36.09 42.53 36.49 42.54 36.62 42.54 36.76 42.55 36.89 42.55 37.02 42.55 37.15 42.56 37.29 42.48 37.42 42.49 37.68 42.49 37.82 42.49 38.08 42.49 38.22 42.5 38.35 42.52 38.48 42.52 38.75 42.53 38.88 42.53 39.01 42.55 39.14 42.56 39.28 42.57 39.41 42.57 39.54 42.58 39.67 42.6 39.81 42.52 39.94 42.44 40.07 42.45 40.21 42.45 40.34 42.45 40.6 42.48 40.74 42.48 40.87 42.49 41 42.49 41.13 42.49 41.27 42.51 41.4 42.52 41.53 42.53 41.8 42.43 41.93 42.37 42.2 42.39 42.33 42.39 42.46 42.31 42.99 42.31 43.39 42.36 43.52 42.37 43.65 42.38 43.79 42.39 43.92 42.39 44.05 42.39 44.19 42.46 44.32 42.46 44.45 42.46 44.72 42.38 44.85 42.39 44.98 42.4 45.11 42.4 45.25 42.4 45.38 42.41 45.51 42.33 45.78 42.32 45.91 42.33 46.04 42.33 46.18 42.35 46.31 42.29 46.44 42.29 46.57 42.29 46.71 42.3 47.1 42.32 47.24 42.24 47.37 42.26 47.5 42.27 47.63 42.27 47.77 42.27 47.9 42.29 48.03 42.29 48.17 42.29 48.3 42.3 48.43 42.23 48.56 42.23 48.7 42.23 48.83 42.24 48.96 42.25 49.09 42.25 49.23 42.25 49.36 42.26 49.49 42.26 49.62 42.27 49.76 42.27 49.89 42.29 50.02 42.29 50.16 42.29 50.29 42.3 50.42 42.3 50.55 42.3 50.69 42.31 50.82 42.31 50.95 42.32 51.35 42.32 52.01 42.36 52.15 42.37 52.28 42.37 52.41 42.38 52.54 42.38 52.68 42.4 52.81 42.4 53.34 42.44 53.47 42.44 54.14 42.45 54.4 42.45 54.53 42.52 54.67 42.53 54.8 42.53 54.93 42.53 55.06 42.54 55.2 42.55 55.6 42.56 55.73 42.57 55.99 42.59 56.13 42.6 56.26 42.6 56.66 42.6 56.92 42.61 57.32 42.63 57.85 42.64 58.12 42.66 58.51 42.68 59.44 42.72 59.97 42.77 60.11 42.65 60.24 42.65 60.37 42.62 60.5 42.62 60.64 42.62 60.9 42.62 61.03 42.63 61.17 42.63 61.3 42.65 61.43 42.65 61.57 42.65 61.7 42.65 61.96 42.61 62.1 42.62 62.23 42.63 62.76 42.68 62.89 42.67 63.02 42.67 63.29 42.68 63.56 42.7 63.69 42.7 64.09 42.71 64.75 42.71 65.41 42.75 66.08 42.77 66.21 42.77 66.34 42.77 66.47 42.37 66.61 42.43 66.87 42.37 67.14 42.37 67.67 42.38 67.8 42.4 67.93 42.4 68.07 42.4 68.2 42.41 68.33 42.47 68.46 42.42 70.06 42.37 70.32 42.31 70.45 42.33 70.72 42.33 71.25 42.34 71.52 42.34 71.78 42.35 72.31 42.35 72.58 42.37 72.71 42.37 72.97 42.4 73.11 42.4 73.24 42.41 73.37 42.43 73.51 42.43 73.64 42.43 73.9 42.44 74.04 42.44 74.3 42.44 74.57 42.46 74.7 42.47 74.83 42.48 75.1 42.49 75.23 42.5 75.89 42.52 76.42 42.58 76.56 42.54 77.62 42.56 77.75 42.45 77.88 42.45 78.28 42.47 78.41 42.48 78.55 42.54 78.81 42.55 79.08 42.55 79.34 42.55 80.54 42.58"/>
      </g>
      <g stroke-width="0.3" fill="#000000" fill-opacity="0.000" class="geometry color_newtests_fail" stroke="#FF0000" id="fig-1991e908ee36456190a9c7dc63c5028c-element-15">
        <path fill="none" d="M21.63,41.51 L 21.76 41.51 21.9 39.95 22.03 41.62 22.16 41.52 22.3 39.84 22.43 39.84 22.56 39.86 22.83 41.53 22.96 41.55 23.22 41.67 23.49 41.69 23.62 41.69 23.89 41.8 24.02 41.81 24.95 41.96 25.35 41.96 25.61 41.96 26.54 41.87 26.67 42 26.81 41.81 26.94 41.81 27.07 41.91 27.2 42.01 27.34 41.91 27.47 41.91 27.6 41.91 27.73 42.01 27.87 42.01 28 41.85 28.27 41.96 28.4 41.76 28.53 41.96 28.66 42.18 28.8 42.18 28.93 42.27 29.06 42.29 29.19 42.19 29.33 42.29 29.46 42.29 29.59 42.29 29.72 42.39 29.86 42.39 29.99 42.81 30.12 42.79 30.26 42.8 30.39 42.81 31.18 43.43 31.32 43.53 31.45 43.54 31.58 43.55 31.71 43.47 31.85 43.56 31.98 43.57 32.11 43.57 32.25 43.49 32.38 41.74 32.64 43.49 32.78 43.6 32.91 43.6 33.04 43.6 33.17 43.6 33.31 43.6 33.44 43.62 33.57 43.62 33.84 43.62 33.97 43.64 34.1 43.55 34.24 43.56 34.37 43.56 34.5 43.57 34.77 43.58 34.9 43.42 35.03 43.42 35.16 43.42 35.43 43.28 35.69 41.57 35.83 41.49 35.96 43.3 36.09 43.22 36.49 43.4 36.62 43.4 36.76 43.4 36.89 43.4 37.02 43.49 37.15 43.58 37.29 43.58 37.42 43.59 37.68 43.59 37.82 43.67 38.08 43.59 38.22 43.68 38.35 43.7 38.48 43.7 38.75 43.7 38.88 43.7 39.01 43.55 39.14 43.64 39.28 43.64 39.41 43.56 39.54 43.57 39.67 43.42 39.81 43.5 39.94 43.67 40.07 41.39 40.21 41.88 40.34 41.88 40.6 43.77 40.74 43.85 40.87 43.77 41 43.86 41.13 43.77 41.27 43.79 41.4 43.95 41.53 43.72 41.8 43.99 41.93 44.08 42.2 43.93 42.33 43.93 42.46 44.01 42.99 44.01 43.39 44.43 43.52 44.44 43.65 44.44 43.79 44.52 43.92 44.6 44.05 44.6 44.19 44.63 44.32 44.63 44.45 44.63 44.72 44.47 44.85 44.47 44.98 44.4 45.11 44.48 45.25 44.4 45.38 44.25 45.51 44.33 45.78 44.4 45.91 44.48 46.04 44.48 46.18 44.41 46.31 44.4 46.44 44.42 46.57 44.49 46.71 44.5 47.1 44.5 47.24 44.5 47.37 44.51 47.5 44.59 47.63 44.59 47.77 44.59 47.9 44.59 48.03 44.59 48.17 44.45 48.3 44.38 48.43 44.38 48.56 44.23 48.7 44.38 48.83 44.38 48.96 44.39 49.09 44.39 49.23 44.39 49.36 44.31 49.49 44.39 49.62 44.32 49.76 44.39 49.89 44.32 50.02 44.4 50.16 44.4 50.29 44.4 50.42 44.48 50.55 44.48 50.69 44.55 50.82 44.55 50.95 44.34 51.35 44.63 52.01 44.57 52.15 44.57 52.28 44.57 52.41 44.65 52.54 44.72 52.68 44.58 52.81 44.58 53.34 44.53 53.47 44.6 54.14 44.6 54.4 44.6 54.53 44.18 54.67 44.4 54.8 44.6 54.93 44.6 55.06 44.61 55.2 44.54 55.6 44.48 55.73 44.48 55.99 44.42 56.13 44.49 56.26 44.49 56.66 44.49 56.92 44.56 57.32 44.57 57.85 44.57 58.12 44.58 58.51 44.59 59.44 44.54 59.97 44.43 60.11 44.56 60.24 44.56 60.37 44.32 60.5 44.32 60.64 44.38 60.9 44.38 61.03 44.33 61.17 44.33 61.3 44.27 61.43 44.34 61.57 44.34 61.7 44.34 61.96 44.35 62.1 44.35 62.23 44.35 62.76 44.19 62.89 44.19 63.02 44.19 63.29 44.14 63.56 44.08 63.69 44.08 64.09 44.09 64.75 44.09 65.41 44.17 66.08 42.48 66.21 43.06 66.34 43.47 66.47 44.19 66.61 44.19 66.87 44.19 67.14 44.19 67.67 44.19 67.8 44.14 67.93 44.14 68.07 44.14 68.2 44.15 68.33 44.14 68.46 44.09 70.06 44.04 70.32 44.1 70.45 44.22 70.72 44.22 71.25 44.11 71.52 44.22 71.78 44.17 72.31 44.17 72.58 44.18 72.71 44.13 72.97 44.03 73.11 44.03 73.24 44.03 73.37 44.1 73.51 43.98 73.64 43.99 73.9 43.99 74.04 44.05 74.3 43.99 74.57 44 74.7 43.9 74.83 43.9 75.1 43.96 75.23 43.91 75.89 43.87 76.42 43.77 76.56 43.77 77.62 43.57 77.75 43.57 77.88 43.57 78.28 43.59 78.41 43.59 78.55 43.65 78.81 43.71 79.08 43.65 79.34 43.66 80.54 43.78"/>
      </g>
      <g stroke-width="0.3" fill="#000000" fill-opacity="0.000" class="geometry color_newno_tests" stroke="#0000FF" id="fig-1991e908ee36456190a9c7dc63c5028c-element-16">
        <path fill="none" d="M21.63,40.04 L 21.76 40.04 21.9 40.05 22.03 40.05 22.16 40.05 22.3 40.16 22.43 40.16 22.56 40.07 22.83 39.97 22.96 39.99 23.22 40.01 23.49 39.84 23.62 39.84 23.89 39.84 24.02 39.86 24.95 39.93 25.35 39.93 25.61 39.93 26.54 39.85 26.67 39.89 26.81 39.91 26.94 39.91 27.07 39.91 27.2 39.91 27.34 39.91 27.47 39.91 27.6 39.91 27.73 40.11 27.87 40.11 28 40.16 28.27 40.28 28.4 40.28 28.53 40.28 28.66 40.21 28.8 40.21 28.93 40.41 29.06 40.53 29.19 40.53 29.33 40.53 29.46 40.53 29.59 40.53 29.72 40.54 29.86 40.54 29.99 39.36 30.12 40.27 30.26 40.28 30.39 40.3 31.18 40.4 31.32 40.42 31.45 40.43 31.58 40.54 31.71 40.57 31.85 40.57 31.98 40.6 32.11 40.7 32.25 40.71 32.38 41 32.64 40.91 32.78 40.75 32.91 40.75 33.04 40.75 33.17 40.75 33.31 40.75 33.44 40.8 33.57 40.8 33.84 40.9 33.97 40.84 34.1 40.86 34.24 40.87 34.37 41.05 34.5 41.08 34.77 41.09 34.9 41.13 35.03 41.13 35.16 41.13 35.43 41.02 35.69 41.32 35.83 41.23 35.96 41.16 36.09 41.16 36.49 41.17 36.62 41.17 36.76 41.18 36.89 41.18 37.02 41.27 37.15 41.28 37.29 41.29 37.42 41.39 37.68 41.39 37.82 41.39 38.08 41.39 38.22 41.4 38.35 41.43 38.48 41.43 38.75 41.28 38.88 41.36 39.01 41.38 39.14 41.31 39.28 41.33 39.41 41.34 39.54 41.35 39.67 41.37 39.81 41.37 39.94 41.38 40.07 41.88 40.21 41.88 40.34 41.88 40.6 41.35 40.74 41.35 40.87 41.44 41 41.44 41.13 41.52 41.27 41.47 41.4 41.48 41.53 41.57 41.8 41.93 41.93 42.05 42.2 42.06 42.33 42.06 42.46 42.06 42.99 42.06 43.39 42.04 43.52 42.05 43.65 41.98 43.79 42 43.92 42 44.05 42.08 44.19 42.15 44.32 42.23 44.45 42.23 44.72 42.23 44.85 42.16 44.98 42.17 45.11 42.17 45.25 42.17 45.38 42.25 45.51 42.25 45.78 42.17 45.91 42.18 46.04 42.18 46.18 42.19 46.31 42.07 46.44 42.21 46.57 42.21 46.71 42.23 47.1 42.32 47.24 42.32 47.37 42.26 47.5 42.27 47.63 42.27 47.77 42.27 47.9 42.29 48.03 42.29 48.17 42.29 48.3 42.3 48.43 42.3 48.56 42.38 48.7 42.3 48.83 42.31 48.96 42.33 49.09 42.33 49.23 42.33 49.36 42.41 49.49 42.33 49.62 42.42 49.76 42.34 49.89 42.36 50.02 42.37 50.16 42.37 50.29 42.37 50.42 42.37 50.55 42.37 50.69 42.38 50.82 42.38 50.95 42.39 51.35 42.39 52.01 42.43 52.15 42.44 52.28 42.44 52.41 42.45 52.54 42.45 52.68 42.47 52.81 42.47 53.34 42.58 53.47 42.51 54.14 42.52 54.4 42.52 54.53 42.52 54.67 42.6 54.8 42.53 54.93 42.53 55.06 42.54 55.2 42.62 55.6 42.56 55.73 42.57 55.99 42.59 56.13 42.53 56.26 42.53 56.66 42.6 56.92 42.54 57.32 42.56 57.85 42.64 58.12 42.59 58.51 42.62 59.44 42.66 59.97 42.7 60.11 42.71 60.24 42.71 60.37 42.81 60.5 42.74 60.64 42.74 60.9 42.74 61.03 42.82 61.17 42.82 61.3 42.84 61.43 42.78 61.57 42.78 61.7 42.78 61.96 42.8 62.1 42.81 62.23 42.81 62.76 42.86 62.89 42.85 63.02 42.85 63.29 42.86 63.56 42.88 63.69 42.88 64.09 42.89 64.75 42.89 65.41 42.92 66.08 43.12 66.21 43.06 66.34 43.06 66.47 43.07 66.61 43.01 66.87 43.01 67.14 43.01 67.67 43.02 67.8 43.03 67.93 43.1 68.07 43.1 68.2 43.11 68.33 43.1 68.46 43.11 70.06 43.17 70.32 43.17 70.45 43.19 70.72 43.25 71.25 43.25 71.52 43.25 71.78 43.26 72.31 43.26 72.58 43.27 72.71 43.28 72.97 43.3 73.11 43.3 73.24 43.3 73.37 43.32 73.51 43.32 73.64 43.32 73.9 43.32 74.04 43.33 74.3 43.38 74.57 43.34 74.7 43.35 74.83 43.35 75.1 43.42 75.23 43.37 75.89 43.44 76.42 43.44 76.56 43.45 77.62 43.47 77.75 43.47 77.88 43.47 78.28 43.53 78.41 43.54 78.55 43.49 78.81 43.49 79.08 43.49 79.34 43.55 80.54 43.52"/>
      </g>
      <g stroke-width="0.3" fill="#000000" fill-opacity="0.000" class="geometry color_oldfull_fail" stroke="#FFA500" id="fig-1991e908ee36456190a9c7dc63c5028c-element-17">
        <path fill="none" d="M21.63,41.4 L 21.76 41.4 21.9 42.15 22.03 41 22.16 41.1 22.3 41.94 22.43 41.73 22.56 41.95 22.83 40.49 22.96 40.51 23.22 40.42 23.49 40.87 23.62 40.66 23.89 40.97 24.02 40.88 24.95 41.15 25.35 41.15 25.61 41.15 26.54 41.06 26.67 40.89 26.81 39.91 26.94 39.91 27.07 40.41 27.2 40.41 27.34 40.71 27.47 40.71 27.6 40.71 27.73 41.11 27.87 41.11 28 41.65 28.27 41.66 28.4 41.56 28.53 41.36 28.66 41.49 28.8 41.49 28.93 41.69 29.06 41.7 29.19 41.7 29.33 41.5 29.46 41.89 29.59 41.8 29.72 41.71 29.86 41.52 29.99 45.71 30.12 41.92 30.26 41.45 30.39 41.65 31.18 41.54 31.32 41.93 31.45 42.32 31.58 42.33 31.71 42.25 31.85 42.63 31.98 42.55 32.11 42.55 32.25 42.65 32.38 42.94 32.64 42.48 32.78 42.59 32.91 42.77 33.04 42.59 33.17 42.77 33.31 42.77 33.44 42.44 33.57 42.53 33.84 42.9 33.97 42.91 34.1 42.92 34.24 42.84 34.37 42.75 34.5 42.95 34.77 42.95 34.9 43.07 35.03 43.15 35.16 43.15 35.43 43.02 35.69 42.44 35.83 42.87 35.96 42.79 36.09 42.79 36.49 42.8 36.62 42.8 36.76 42.55 36.89 42.72 37.02 42.63 37.15 42.64 37.29 42.82 37.42 42.74 37.68 42.83 37.82 42.91 38.08 42.91 38.22 42.92 38.35 42.94 38.48 42.94 38.75 42.95 38.88 42.95 39.01 42.96 39.14 42.89 39.28 42.9 39.41 42.82 39.54 42.99 39.67 42.84 39.81 42.76 39.94 42.77 40.07 42.61 40.21 42.53 40.34 42.61 40.6 42.48 40.74 42.56 40.87 42.81 41 42.57 41.13 42.57 41.27 42.67 41.4 42.44 41.53 42.53 41.8 42.84 41.93 42.78 42.2 42.79 42.33 42.79 42.46 42.79 42.99 42.79 43.39 42.76 43.52 42.69 43.65 42.77 43.79 42.63 43.92 42.63 44.05 42.87 44.19 42.54 44.32 42.46 44.45 42.46 44.72 42.54 44.85 42.7 44.98 42.63 45.11 42.71 45.25 42.71 45.38 42.56 45.51 42.71 45.78 42.86 45.91 42.87 46.04 42.87 46.18 42.88 46.31 42.8 46.44 42.97 46.57 42.97 46.71 42.98 47.1 42.55 47.24 42.77 47.37 42.79 47.5 42.94 47.63 42.79 47.77 42.94 47.9 42.96 48.03 42.88 48.17 42.89 48.3 42.82 48.43 43.04 48.56 42.97 48.7 42.89 48.83 42.98 48.96 42.99 49.09 42.91 49.23 43.06 49.36 42.85 49.49 42.85 49.62 43 49.76 42.93 49.89 42.87 50.02 42.87 50.16 42.87 50.29 42.81 50.42 42.88 50.55 43.03 50.69 42.82 50.82 42.89 50.95 42.89 51.35 42.75 52.01 42.78 52.15 42.66 52.28 42.66 52.41 42.52 52.54 42.59 52.68 42.82 52.81 42.82 53.34 42.79 53.47 42.79 54.14 42.65 54.4 42.65 54.53 42.38 54.67 42.53 54.8 42.6 54.93 42.74 55.06 42.75 55.2 42.62 55.6 42.5 55.73 42.5 55.99 42.46 56.13 42.26 56.26 42.6 56.66 42.53 56.92 42.68 57.32 42.63 57.85 42.51 58.12 42.66 58.51 42.42 59.44 42.33 59.97 42.45 60.11 42.46 60.24 42.46 60.37 42.18 60.5 42.05 60.64 41.99 60.9 42.11 61.03 42.13 61.17 42.13 61.3 42.09 61.43 41.91 61.57 42.22 61.7 42.22 61.96 42.24 62.1 42.25 62.23 42.32 62.76 42.19 62.89 42.3 63.02 42.12 63.29 42.56 63.56 42.58 63.69 42.52 64.09 42.41 64.75 42.41 65.41 42.51 66.08 42.06 66.21 41.83 66.34 41.89 66.47 41.84 66.61 42.14 66.87 42.08 67.14 42.14 67.67 41.92 67.8 41.99 67.93 42.17 68.07 42.05 68.2 42.12 68.33 42 68.46 42.19 70.06 42.14 70.32 42.2 70.45 42.04 70.72 42.21 71.25 42.34 71.52 42.28 71.78 42.01 72.31 42.18 72.58 42.08 72.71 42.54 72.97 42.68 73.11 42.51 73.24 42.58 73.37 42.48 73.51 42.54 73.64 42.77 73.9 42.6 74.04 42.55 74.3 42.72 74.57 42.68 74.7 42.58 74.83 42.7 75.1 42.6 75.23 42.55 75.89 42.41 76.42 42.58 76.56 42.59 77.62 42.67 77.75 42.72 77.88 42.67 78.28 42.9 78.41 42.9 78.55 42.85 78.81 42.6 79.08 42.7 79.34 42.66 80.54 42.79"/>
      </g>
      <g stroke-width="0.3" fill="#000000" fill-opacity="0.000" class="geometry color_newtests_pass" stroke="#008000" id="fig-1991e908ee36456190a9c7dc63c5028c-element-18">
        <path fill="none" d="M21.63,32.16 L 21.76 32.16 21.9 32.93 22.03 32.41 22.16 32.41 22.3 33.14 22.43 33.35 22.56 33.19 22.83 33.08 22.96 33.02 23.22 32.96 23.49 32.63 23.62 32.84 23.89 32.43 24.02 32.47 24.95 31.93 25.35 31.93 25.61 31.93 26.54 32.08 26.67 32.07 26.81 33.21 26.94 33.21 27.07 32.61 27.2 32.61 27.34 32.41 27.47 32.41 27.6 32.41 27.73 31.91 27.87 31.91 28 31.45 28.27 31.3 28.4 30.9 28.53 30.9 28.66 30.6 28.8 30.6 28.93 30.11 29.06 29.96 29.19 30.06 29.33 30.16 29.46 29.77 29.59 29.87 29.72 29.82 29.86 30.01 29.99 26.98 30.12 29.48 30.26 29.92 30.39 29.68 31.18 29.5 31.32 29.07 31.45 28.65 31.58 28.52 31.71 28.62 31.85 28.25 31.98 28.44 32.11 28.35 32.25 28.31 32.38 29.47 32.64 28.27 32.78 28.19 32.91 28 33.04 28.19 33.17 28 33.31 28 33.44 28.25 33.57 28.16 33.84 27.67 33.97 27.68 34.1 27.73 34.24 27.79 34.37 27.7 34.5 27.44 34.77 27.41 34.9 27.39 35.03 27.3 35.16 27.3 35.43 27.64 35.69 29.6 35.83 29.34 35.96 27.67 36.09 27.75 36.49 27.55 36.62 27.55 36.76 27.77 36.89 27.6 37.02 27.51 37.15 27.39 37.29 27.27 37.42 27.24 37.68 27.15 37.82 26.98 38.08 27.07 38.22 26.95 38.35 26.85 38.48 26.85 38.75 26.98 38.88 26.9 39.01 27 39.14 27.05 39.28 27.02 39.41 27.15 39.54 26.95 39.67 27.21 39.81 27.3 39.94 27.18 40.07 29.1 40.21 28.69 40.34 28.61 40.6 27.37 40.74 27.21 40.87 26.94 41 27.1 41.13 27.1 41.27 27 41.4 27.05 41.53 27.1 41.8 26.26 41.93 26.17 42.2 26.27 42.33 26.27 42.46 26.27 42.99 26.27 43.39 25.85 43.52 25.91 43.65 25.88 43.79 25.9 43.92 25.82 44.05 25.5 44.19 25.67 44.32 25.67 44.45 25.67 44.72 25.83 44.85 25.72 44.98 25.85 45.11 25.7 45.25 25.77 45.38 25.98 45.51 25.82 45.78 25.7 45.91 25.59 46.04 25.59 46.18 25.61 46.31 25.9 46.44 25.56 46.57 25.48 46.71 25.43 47.1 25.76 47.24 25.6 47.37 25.63 47.5 25.38 47.63 25.53 47.77 25.38 47.9 25.32 48.03 25.4 48.17 25.52 48.3 25.64 48.43 25.5 48.56 25.64 48.7 25.64 48.83 25.54 48.96 25.49 49.09 25.57 49.23 25.42 49.36 25.61 49.49 25.61 49.62 25.44 49.76 25.51 49.89 25.61 50.02 25.51 50.16 25.51 50.29 25.56 50.42 25.41 50.55 25.27 50.69 25.39 50.82 25.31 50.95 25.51 51.35 25.36 52.01 25.31 52.15 25.4 52.28 25.4 52.41 25.45 52.54 25.31 52.68 25.16 52.81 25.16 53.34 25.12 53.47 25.12 54.14 25.23 54.4 25.23 54.53 25.83 54.67 25.39 54.8 25.18 54.93 25.05 55.06 25 55.2 25.11 55.6 25.34 55.73 25.32 55.99 25.38 56.13 25.56 56.26 25.23 56.66 25.23 56.92 25.04 57.32 25.07 57.85 25.09 58.12 24.96 58.51 25.13 59.44 25.19 59.97 25.11 60.11 25.06 60.24 25.06 60.37 25.52 60.5 25.71 60.64 25.71 60.9 25.59 61.03 25.54 61.17 25.54 61.3 25.6 61.43 25.77 61.57 25.45 61.7 25.45 61.96 25.45 62.1 25.41 62.23 25.33 62.76 25.52 62.89 25.44 63.02 25.63 63.29 25.2 63.56 25.2 63.69 25.26 64.09 25.34 64.75 25.34 65.41 25.1 66.08 27.02 66.21 26.72 66.34 26.25 66.47 25.97 66.61 25.68 66.87 25.8 67.14 25.74 67.67 25.93 67.8 25.89 67.93 25.63 68.07 25.75 68.2 25.65 68.33 25.73 68.46 25.63 70.06 25.73 70.32 25.67 70.45 25.66 70.72 25.44 71.25 25.42 71.52 25.36 71.78 25.64 72.31 25.47 72.58 25.54 72.71 25.13 72.97 25.03 73.11 25.2 73.24 25.13 73.37 25.13 73.51 25.18 73.64 24.94 73.9 25.09 74.04 25.07 74.3 24.9 74.57 24.98 74.7 25.14 74.83 25.01 75.1 24.98 75.23 25.12 75.89 25.21 76.42 25.07 76.56 25.08 77.62 25.17 77.75 25.23 77.88 25.28 78.28 24.96 78.41 24.94 78.55 24.92 78.81 25.1 79.08 25.05 79.34 25.03 80.54 24.79"/>
      </g>
    </g>
  </g>
  <g class="guide ylabels" font-size="2.82" font-family="'PT Sans Caption','Helvetica Neue','Helvetica',sans-serif" fill="#6C606B" id="fig-1991e908ee36456190a9c7dc63c5028c-element-19">
    <text x="18.63" y="45.71" text-anchor="end" dy="0.35em">0</text>
    <text x="18.63" y="30.16" text-anchor="end" dy="0.35em">50</text>
    <text x="18.63" y="14.61" text-anchor="end" dy="0.35em">100</text>
  </g>
  <g font-size="3.88" font-family="'PT Sans','Helvetica Neue','Helvetica',sans-serif" fill="#564A55" stroke="#000000" stroke-opacity="0.000" id="fig-1991e908ee36456190a9c7dc63c5028c-element-20">
    <text x="8.81" y="28.16" text-anchor="middle" dy="0.35em" transform="rotate(-90, 8.81, 30.16)">Percentage of Packages</text>
  </g>
  <g font-size="3.88" font-family="'PT Sans','Helvetica Neue','Helvetica',sans-serif" fill="#564A55" stroke="#000000" stroke-opacity="0.000" id="fig-1991e908ee36456190a9c7dc63c5028c-element-21">
    <text x="58.12" y="10.61" text-anchor="middle">Julia v0.3 (relative)</text>
  </g>
</g>
<defs>
<clipPath id="fig-1991e908ee36456190a9c7dc63c5028c-element-5">
  <path d="M19.63,12.61 L 96.6 12.61 96.6 47.71 19.63 47.71" />
</clipPath
></defs>
</svg>
