<?xml version="1.0" encoding="UTF-8"?>
<svg xmlns="http://www.w3.org/2000/svg"
     xmlns:xlink="http://www.w3.org/1999/xlink"
     xmlns:gadfly="http://www.gadflyjl.org/ns"
     version="1.2"
     width="101.6mm" height="76.2mm" viewBox="0 0 101.6 76.2"
     stroke="none"
     fill="#000000"
     stroke-width="0.3"
     font-size="3.88"
>
<g class="plotroot xscalable yscalable" id="fig-f97b81f86f564c21a16d2bf618405c98-element-1">
  <g font-size="3.88" font-family="'PT Sans','Helvetica Neue','Helvetica',sans-serif" fill="#564A55" stroke="#000000" stroke-opacity="0.000" id="fig-f97b81f86f564c21a16d2bf618405c98-element-2">
    <text x="58.12" y="64.59" text-anchor="middle" dy="0.6em">Date</text>
  </g>
  <g class="guide xlabels" font-size="2.82" font-family="'PT Sans Caption','Helvetica Neue','Helvetica',sans-serif" fill="#6C606B" id="fig-f97b81f86f564c21a16d2bf618405c98-element-3">
    <text x="21.89" y="48.71" text-anchor="end" dy="0.35em" transform="rotate(-90, 21.89, 48.71)">Apr</text>
    <text x="25.81" y="48.71" text-anchor="end" dy="0.35em" transform="rotate(-90, 25.81, 48.71)">May</text>
    <text x="29.86" y="48.71" text-anchor="end" dy="0.35em" transform="rotate(-90, 29.86, 48.71)">Jun</text>
    <text x="33.77" y="48.71" text-anchor="end" dy="0.35em" transform="rotate(-90, 33.77, 48.71)">Jul</text>
    <text x="37.82" y="48.71" text-anchor="end" dy="0.35em" transform="rotate(-90, 37.82, 48.71)">Aug</text>
    <text x="41.86" y="48.71" text-anchor="end" dy="0.35em" transform="rotate(-90, 41.86, 48.71)">Sep</text>
    <text x="45.78" y="48.71" text-anchor="end" dy="0.35em" transform="rotate(-90, 45.78, 48.71)">Oct</text>
    <text x="49.83" y="48.71" text-anchor="end" dy="0.35em" transform="rotate(-90, 49.83, 48.71)">Nov</text>
    <text x="53.74" y="48.71" text-anchor="end" dy="0.35em" transform="rotate(-90, 53.74, 48.71)">Dec</text>
    <text x="57.79" y="48.71" text-anchor="end" dy="0.35em" transform="rotate(-90, 57.79, 48.71)">Jan 2015</text>
    <text x="61.84" y="48.71" text-anchor="end" dy="0.35em" transform="rotate(-90, 61.84, 48.71)">Feb</text>
    <text x="65.49" y="48.71" text-anchor="end" dy="0.35em" transform="rotate(-90, 65.49, 48.71)">Mar</text>
    <text x="69.54" y="48.71" text-anchor="end" dy="0.35em" transform="rotate(-90, 69.54, 48.71)">Apr</text>
    <text x="73.45" y="48.71" text-anchor="end" dy="0.35em" transform="rotate(-90, 73.45, 48.71)">May</text>
    <text x="77.5" y="48.71" text-anchor="end" dy="0.35em" transform="rotate(-90, 77.5, 48.71)">Jun</text>
    <text x="81.42" y="48.71" text-anchor="end" dy="0.35em" transform="rotate(-90, 81.42, 48.71)">Jul</text>
    <text x="85.46" y="48.71" text-anchor="end" dy="0.35em" transform="rotate(-90, 85.46, 48.71)">Aug</text>
    <text x="89.51" y="48.71" text-anchor="end" dy="0.35em" transform="rotate(-90, 89.51, 48.71)">Sep</text>
    <text x="93.43" y="48.71" text-anchor="end" dy="0.35em" transform="rotate(-90, 93.43, 48.71)">Oct</text>
  </g>
  <g clip-path="url(#fig-f97b81f86f564c21a16d2bf618405c98-element-5)" id="fig-f97b81f86f564c21a16d2bf618405c98-element-4">
    <g pointer-events="visible" opacity="1" fill="#000000" fill-opacity="0.000" stroke="#000000" stroke-opacity="0.000" class="guide background" id="fig-f97b81f86f564c21a16d2bf618405c98-element-6">
      <rect x="19.63" y="12.61" width="76.97" height="35.1"/>
    </g>
    <g class="guide ygridlines xfixed" stroke-dasharray="0.5,0.5" stroke-width="0.2" stroke="#D0D0E0" id="fig-f97b81f86f564c21a16d2bf618405c98-element-7">
      <path fill="none" d="M19.63,45.71 L 96.6 45.71"/>
      <path fill="none" d="M19.63,39.49 L 96.6 39.49"/>
      <path fill="none" d="M19.63,33.27 L 96.6 33.27"/>
      <path fill="none" d="M19.63,27.05 L 96.6 27.05"/>
      <path fill="none" d="M19.63,20.83 L 96.6 20.83"/>
      <path fill="none" d="M19.63,14.61 L 96.6 14.61"/>
    </g>
    <g class="guide xgridlines yfixed" stroke-dasharray="0.5,0.5" stroke-width="0.2" stroke="#D0D0E0" id="fig-f97b81f86f564c21a16d2bf618405c98-element-8">
      <path fill="none" d="M21.89,12.61 L 21.89 47.71"/>
      <path fill="none" d="M25.81,12.61 L 25.81 47.71"/>
      <path fill="none" d="M29.86,12.61 L 29.86 47.71"/>
      <path fill="none" d="M33.77,12.61 L 33.77 47.71"/>
      <path fill="none" d="M37.82,12.61 L 37.82 47.71"/>
      <path fill="none" d="M41.86,12.61 L 41.86 47.71"/>
      <path fill="none" d="M45.78,12.61 L 45.78 47.71"/>
      <path fill="none" d="M49.83,12.61 L 49.83 47.71"/>
      <path fill="none" d="M53.74,12.61 L 53.74 47.71"/>
      <path fill="none" d="M57.79,12.61 L 57.79 47.71"/>
      <path fill="none" d="M61.84,12.61 L 61.84 47.71"/>
      <path fill="none" d="M65.49,12.61 L 65.49 47.71"/>
      <path fill="none" d="M69.54,12.61 L 69.54 47.71"/>
      <path fill="none" d="M73.45,12.61 L 73.45 47.71"/>
      <path fill="none" d="M77.5,12.61 L 77.5 47.71"/>
      <path fill="none" d="M81.42,12.61 L 81.42 47.71"/>
      <path fill="none" d="M85.46,12.61 L 85.46 47.71"/>
      <path fill="none" d="M89.51,12.61 L 89.51 47.71"/>
      <path fill="none" d="M93.43,12.61 L 93.43 47.71"/>
    </g>
    <g class="plotpanel" id="fig-f97b81f86f564c21a16d2bf618405c98-element-9">
      <g stroke-width="0.3" fill="#000000" fill-opacity="0.000" class="geometry color_newnot_possible" stroke-dasharray="none" stroke="#808080" id="fig-f97b81f86f564c21a16d2bf618405c98-element-10">
        <path fill="none" d="M79.98,42.41 L 80.11 42.41 80.24 42.41 80.37 42.41 80.5 42.41 80.63 42.41 80.76 42.41 80.89 42.41 81.29 42.41 81.55 42.41 81.81 42.47 81.94 42.41 82.07 42.41 82.2 42.41 82.33 42.41 82.46 42.41 84.68 42.35 85.72 42.35 86.9 42.35 89.12 42.35 89.51 42.35 90.16 42.16 90.81 41.98 92.9 41.98 93.43 41.98 94.08 41.98 94.6 41.98"/>
      </g>
      <g stroke-width="0.3" fill="#000000" fill-opacity="0.000" class="geometry color_newno_tests" stroke-dasharray="none" stroke="#0000FF" id="fig-f97b81f86f564c21a16d2bf618405c98-element-11">
        <path fill="none" d="M79.98,39.05 L 80.11 39.05 80.24 39.05 80.37 39.05 80.5 39.05 80.63 39.05 80.76 39.05 80.89 39.05 81.29 39.05 81.55 39.05 81.81 39.05 81.94 39.05 82.07 39.12 82.2 39.12 82.33 39.12 82.46 39.18 84.68 39.12 85.72 39.12 86.9 39.12 89.12 39.12 89.51 39.18 90.16 39.18 90.81 39.24 92.9 39.43 93.43 39.61 94.08 39.74 94.6 39.74"/>
      </g>
      <g stroke-width="0.3" fill="#000000" fill-opacity="0.000" class="geometry color_newtests_fail" stroke-dasharray="none" stroke="#FF0000" id="fig-f97b81f86f564c21a16d2bf618405c98-element-12">
        <path fill="none" d="M79.98,42.23 L 80.11 42.04 80.24 41.98 80.37 41.91 80.5 41.79 80.63 41.98 80.76 41.73 80.89 41.91 81.29 41.79 81.55 41.73 81.81 41.67 81.94 41.85 82.07 39.86 82.2 41.73 82.33 41.35 82.46 41.42 84.68 41.67 85.72 41.73 86.9 41.23 89.12 40.17 89.51 40.48 90.16 40.86 90.81 41.17 92.9 41.11 93.43 40.8 94.08 41.04 94.6 41.11"/>
      </g>
      <g stroke-width="0.3" fill="#000000" fill-opacity="0.000" class="geometry color_newtests_pass" stroke-dasharray="none" stroke="#008000" id="fig-f97b81f86f564c21a16d2bf618405c98-element-13">
        <path fill="none" d="M79.98,22.14 L 80.11 22.32 80.24 22.26 80.37 22.32 80.5 22.32 80.63 22.14 80.76 22.39 80.89 22.14 81.29 22.26 81.55 22.2 81.81 22.26 81.94 22.01 82.07 23.69 82.2 21.7 82.33 22.01 82.46 21.89 84.68 20.89 85.72 20.52 86.9 20.71 89.12 20.89 89.51 20.4 90.16 20.15 90.81 19.84 92.9 19.09 93.43 18.9 94.08 18.28 94.6 18.16"/>
      </g>
      <g stroke-width="0.3" fill="#000000" fill-opacity="0.000" class="geometry color_newnot_possible" stroke-dasharray="none" stroke="#808080" id="fig-f97b81f86f564c21a16d2bf618405c98-element-14">
        <path fill="none" d="M21.63,43.72 L 21.76 43.72 21.89 43.72 22.02 43.72 22.15 43.72 22.28 43.72 22.41 43.72 22.55 43.72 22.81 43.72 22.94 43.72 23.2 43.72 23.46 43.72 23.59 43.72 23.85 43.72 23.98 43.72 24.9 43.72 25.29 43.72 25.55 43.72 26.46 43.78 26.59 43.78 26.72 43.78 26.85 43.78 26.98 43.78 27.11 43.72 27.24 43.72 27.38 43.72 27.51 43.72 27.64 43.59 27.77 43.59 27.9 43.59 28.16 43.53 28.29 43.97 28.42 43.97 28.55 43.97 28.68 43.97 28.81 43.97 28.94 43.97 29.07 43.97 29.2 43.97 29.33 43.97 29.46 43.97 29.59 43.97 29.72 43.97 29.86 43.97 29.99 43.97 30.12 43.97 30.25 43.97 31.03 43.66 31.16 43.59 31.29 43.59 31.42 43.59 31.55 43.59 31.68 43.53 31.81 43.41 31.94 43.41 32.07 43.41 32.2 43.41 32.47 43.41 32.6 43.41 32.73 43.41 32.86 43.41 32.99 43.41 33.12 43.41 33.25 43.41 33.38 43.41 33.64 43.41 33.77 43.41 33.9 43.41 34.03 43.41 34.16 43.41 34.29 43.41 34.55 43.41 34.69 43.41 34.82 43.41 34.95 43.41 35.21 43.41 35.47 43.41 35.6 43.41 35.73 43.41 35.86 43.41 36.25 43.41 36.38 43.41 36.51 43.41 36.64 43.41 36.77 43.41 36.9 43.41 37.03 43.34 37.17 43.34 37.43 43.34 37.56 43.34 37.82 43.34 37.95 43.34 38.08 43.34 38.21 43.34 38.47 43.34 38.6 43.34 38.73 43.34 38.86 43.34 38.99 43.34 39.12 43.34 39.25 43.34 39.38 43.34 39.51 43.28 39.65 43.22 39.78 43.22 39.91 43.22 40.04 43.22 40.3 43.22 40.43 43.22 40.56 43.22 40.69 43.22 40.82 43.22 40.95 43.22 41.08 43.22 41.21 43.22 41.47 43.22 41.6 43.16 41.86 43.16 41.99 43.16 42.13 43.1 42.65 43.1 43.04 43.1 43.17 43.1 43.3 43.1 43.43 43.1 43.56 43.1 43.69 43.1 43.82 43.1 43.95 43.1 44.08 43.1 44.34 43.03 44.48 43.03 44.61 43.03 44.74 43.03 44.87 43.03 45 43.03 45.13 42.97 45.39 42.97 45.52 42.97 45.65 42.97 45.78 42.97 45.91 42.79 46.04 42.91 46.17 42.91 46.3 42.91 46.69 42.91 46.82 42.85 46.96 42.85 47.09 42.85 47.22 42.85 47.35 42.85 47.48 42.85 47.61 42.85 47.74 42.85 47.87 42.85 48 42.79 48.13 42.79 48.26 42.79 48.39 42.79 48.52 42.79 48.65 42.79 48.78 42.79 48.91 42.79 49.04 42.79 49.17 42.79 49.3 42.79 49.44 42.79 49.57 42.79 49.7 42.79 49.83 42.79 49.96 42.79 50.09 42.79 50.22 42.79 50.35 42.79 50.48 42.79 50.87 42.79 51.52 42.79 51.65 42.79 51.78 42.79 51.92 42.79 52.05 42.79 52.18 42.79 52.31 42.79 52.83 42.79 52.96 42.79 53.61 42.79 53.87 42.79 54 42.85 54.13 42.85 54.27 42.85 54.4 42.85 54.53 42.85 54.66 42.85 55.05 42.85 55.18 42.85 55.44 42.85 55.57 42.85 55.7 42.85 56.09 42.85 56.35 42.85 56.75 42.85 57.27 42.85 57.53 42.85 57.92 42.85 58.83 42.85 59.36 42.85 59.49 42.72 59.62 42.72 59.75 42.66 59.88 42.66 60.01 42.66 60.27 42.66 60.4 42.66 60.53 42.66 60.66 42.66 60.79 42.66 60.92 42.66 61.05 42.66 61.31 42.6 61.44 42.6 61.57 42.6 62.1 42.6 62.23 42.6 62.36 42.6 62.62 42.6 62.88 42.6 63.01 42.6 63.4 42.6 64.06 42.6 64.71 42.6 65.36 42.6 65.49 42.6 65.62 42.6 65.75 42.16 65.88 42.23 66.14 42.16 66.4 42.16 66.93 42.16 67.06 42.16 67.19 42.16 67.32 42.16 67.45 42.16 67.58 42.23 67.71 42.16 69.28 42.1 69.54 42.04 69.67 42.04 69.93 42.04 70.45 42.04 70.71 42.04 70.97 42.04 71.5 42.04 71.76 42.04 71.89 42.04 72.15 42.04 72.28 42.04 72.41 42.04 72.54 42.04 72.67 42.04 72.8 42.04 73.06 42.04 73.19 42.04 73.45 42.04 73.71 42.04 73.85 42.04 73.98 42.04 74.24 42.04 74.37 42.04 75.02 42.04 75.54 42.1 75.67 42.04 76.72 42.04 76.85 41.91 76.98 41.91 77.37 41.91 77.5 41.91 77.63 41.98 77.89 41.98 78.15 41.98 78.41 41.98 79.59 41.98"/>
      </g>
      <g stroke-width="0.3" fill="#000000" fill-opacity="0.000" class="geometry color_newtests_fail" stroke-dasharray="none" stroke="#FF0000" id="fig-f97b81f86f564c21a16d2bf618405c98-element-15">
        <path fill="none" d="M21.63,43.22 L 21.76 43.22 21.89 42.29 22.02 43.28 22.15 43.22 22.28 42.23 22.41 42.23 22.55 42.23 22.81 43.22 22.94 43.22 23.2 43.28 23.46 43.28 23.59 43.28 23.85 43.34 23.98 43.34 24.9 43.41 25.29 43.41 25.55 43.41 26.46 43.34 26.59 43.41 26.72 43.28 26.85 43.28 26.98 43.34 27.11 43.41 27.24 43.34 27.38 43.34 27.51 43.34 27.64 43.41 27.77 43.41 27.9 43.28 28.16 43.34 28.29 43.22 28.42 43.34 28.55 43.47 28.68 43.47 28.81 43.53 28.94 43.53 29.07 43.47 29.2 43.53 29.33 43.53 29.46 43.53 29.59 43.59 29.72 43.59 29.86 44.09 29.99 43.84 30.12 43.84 30.25 43.84 31.03 44.22 31.16 44.28 31.29 44.28 31.42 44.28 31.55 44.22 31.68 44.28 31.81 44.28 31.94 44.28 32.07 44.22 32.2 43.03 32.47 44.22 32.6 44.28 32.73 44.28 32.86 44.28 32.99 44.28 33.12 44.28 33.25 44.28 33.38 44.28 33.64 44.28 33.77 44.28 33.9 44.22 34.03 44.22 34.16 44.22 34.29 44.22 34.55 44.22 34.69 44.09 34.82 44.09 34.95 44.09 35.21 43.97 35.47 42.72 35.6 42.66 35.73 43.97 35.86 43.9 36.25 44.03 36.38 44.03 36.51 44.03 36.64 44.03 36.77 44.09 36.9 44.15 37.03 44.15 37.17 44.15 37.43 44.15 37.56 44.22 37.82 44.15 37.95 44.22 38.08 44.22 38.21 44.22 38.47 44.22 38.6 44.22 38.73 44.09 38.86 44.15 38.99 44.15 39.12 44.09 39.25 44.09 39.38 43.97 39.51 44.03 39.65 44.15 39.78 42.41 39.91 42.79 40.04 42.79 40.3 44.22 40.43 44.28 40.56 44.22 40.69 44.28 40.82 44.22 40.95 44.22 41.08 44.34 41.21 44.15 41.47 44.4 41.6 44.46 41.86 44.34 41.99 44.34 42.13 44.4 42.65 44.4 43.04 44.71 43.17 44.71 43.3 44.71 43.43 44.78 43.56 44.84 43.69 44.84 43.82 44.84 43.95 44.84 44.08 44.84 44.34 44.71 44.48 44.71 44.61 44.65 44.74 44.71 44.87 44.65 45 44.53 45.13 44.59 45.39 44.65 45.52 44.71 45.65 44.71 45.78 44.65 45.91 44.59 46.04 44.65 46.17 44.71 46.3 44.71 46.69 44.71 46.82 44.71 46.96 44.71 47.09 44.78 47.22 44.78 47.35 44.78 47.48 44.78 47.61 44.78 47.74 44.65 47.87 44.59 48 44.59 48.13 44.46 48.26 44.59 48.39 44.59 48.52 44.59 48.65 44.59 48.78 44.59 48.91 44.53 49.04 44.59 49.17 44.53 49.3 44.59 49.44 44.53 49.57 44.59 49.7 44.59 49.83 44.59 49.96 44.65 50.09 44.65 50.22 44.71 50.35 44.71 50.48 44.53 50.87 44.78 51.52 44.71 51.65 44.71 51.78 44.71 51.92 44.78 52.05 44.84 52.18 44.71 52.31 44.71 52.83 44.65 52.96 44.71 53.61 44.71 53.87 44.71 54 44.34 54.13 44.53 54.27 44.71 54.4 44.71 54.53 44.71 54.66 44.65 55.05 44.59 55.18 44.59 55.44 44.53 55.57 44.59 55.7 44.59 56.09 44.59 56.35 44.65 56.75 44.65 57.27 44.65 57.53 44.65 57.92 44.65 58.83 44.59 59.36 44.46 59.49 44.59 59.62 44.59 59.75 44.34 59.88 44.34 60.01 44.4 60.27 44.4 60.4 44.34 60.53 44.34 60.66 44.28 60.79 44.34 60.92 44.34 61.05 44.34 61.31 44.34 61.44 44.34 61.57 44.34 62.1 44.15 62.23 44.15 62.36 44.15 62.62 44.09 62.88 44.03 63.01 44.03 63.4 44.03 64.06 44.03 64.71 44.09 65.36 42.29 65.49 42.91 65.62 43.34 65.75 44.09 65.88 44.09 66.14 44.09 66.4 44.09 66.93 44.09 67.06 44.03 67.19 44.03 67.32 44.03 67.45 44.03 67.58 44.03 67.71 43.97 69.28 43.9 69.54 43.97 69.67 44.09 69.93 44.09 70.45 43.97 70.71 44.09 70.97 44.03 71.5 44.03 71.76 44.03 71.89 43.97 72.15 43.84 72.28 43.84 72.41 43.84 72.54 43.9 72.67 43.78 72.8 43.78 73.06 43.78 73.19 43.84 73.45 43.78 73.71 43.78 73.85 43.66 73.98 43.66 74.24 43.72 74.37 43.66 75.02 43.59 75.54 43.47 75.67 43.47 76.72 43.22 76.85 43.22 76.98 43.22 77.37 43.22 77.5 43.22 77.63 43.28 77.89 43.34 78.15 43.28 78.41 43.28 79.59 43.41"/>
      </g>
      <g stroke-width="0.3" fill="#000000" fill-opacity="0.000" class="geometry color_newno_tests" stroke-dasharray="none" stroke="#0000FF" id="fig-f97b81f86f564c21a16d2bf618405c98-element-16">
        <path fill="none" d="M21.63,42.35 L 21.76 42.35 21.89 42.35 22.02 42.35 22.15 42.35 22.28 42.41 22.41 42.41 22.55 42.35 22.81 42.29 22.94 42.29 23.2 42.29 23.46 42.16 23.59 42.16 23.85 42.16 23.98 42.16 24.9 42.16 25.29 42.16 25.55 42.16 26.46 42.1 26.59 42.1 26.72 42.1 26.85 42.1 26.98 42.1 27.11 42.1 27.24 42.1 27.38 42.1 27.51 42.1 27.64 42.23 27.77 42.23 27.9 42.23 28.16 42.29 28.29 42.29 28.42 42.29 28.55 42.23 28.68 42.23 28.81 42.35 28.94 42.41 29.07 42.41 29.2 42.41 29.33 42.41 29.46 42.41 29.59 42.41 29.72 42.41 29.86 42.16 29.99 42.23 30.12 42.23 30.25 42.23 31.03 42.23 31.16 42.23 31.29 42.23 31.42 42.29 31.55 42.29 31.68 42.29 31.81 42.29 31.94 42.35 32.07 42.35 32.2 42.54 32.47 42.47 32.6 42.35 32.73 42.35 32.86 42.35 32.99 42.35 33.12 42.35 33.25 42.35 33.38 42.35 33.64 42.41 33.77 42.35 33.9 42.35 34.03 42.35 34.16 42.47 34.29 42.47 34.55 42.47 34.69 42.47 34.82 42.47 34.95 42.47 35.21 42.35 35.47 42.54 35.6 42.47 35.73 42.41 35.86 42.41 36.25 42.41 36.38 42.41 36.51 42.41 36.64 42.41 36.77 42.47 36.9 42.47 37.03 42.47 37.17 42.54 37.43 42.54 37.56 42.54 37.82 42.54 37.95 42.54 38.08 42.54 38.21 42.54 38.47 42.41 38.6 42.47 38.73 42.47 38.86 42.41 38.99 42.41 39.12 42.41 39.25 42.41 39.38 42.41 39.51 42.41 39.65 42.41 39.78 42.79 39.91 42.79 40.04 42.79 40.3 42.35 40.43 42.35 40.56 42.41 40.69 42.41 40.82 42.47 40.95 42.41 41.08 42.41 41.21 42.47 41.47 42.85 41.6 42.91 41.86 42.91 41.99 42.91 42.13 42.91 42.65 42.91 43.04 42.85 43.17 42.85 43.3 42.79 43.43 42.79 43.56 42.79 43.69 42.85 43.82 42.85 43.95 42.91 44.08 42.91 44.34 42.91 44.48 42.85 44.61 42.85 44.74 42.85 44.87 42.85 45 42.91 45.13 42.91 45.39 42.85 45.52 42.85 45.65 42.85 45.78 42.85 45.91 42.6 46.04 42.85 46.17 42.85 46.3 42.85 46.69 42.91 46.82 42.91 46.96 42.85 47.09 42.85 47.22 42.85 47.35 42.85 47.48 42.85 47.61 42.85 47.74 42.85 47.87 42.85 48 42.85 48.13 42.91 48.26 42.85 48.39 42.85 48.52 42.85 48.65 42.85 48.78 42.85 48.91 42.91 49.04 42.85 49.17 42.91 49.3 42.85 49.44 42.85 49.57 42.85 49.7 42.85 49.83 42.85 49.96 42.85 50.09 42.85 50.22 42.85 50.35 42.85 50.48 42.85 50.87 42.85 51.52 42.85 51.65 42.85 51.78 42.85 51.92 42.85 52.05 42.85 52.18 42.85 52.31 42.85 52.83 42.91 52.96 42.85 53.61 42.85 53.87 42.85 54 42.85 54.13 42.91 54.27 42.85 54.4 42.85 54.53 42.85 54.66 42.91 55.05 42.85 55.18 42.85 55.44 42.85 55.57 42.79 55.7 42.79 56.09 42.85 56.35 42.79 56.75 42.79 57.27 42.85 57.53 42.79 57.92 42.79 58.83 42.79 59.36 42.79 59.49 42.79 59.62 42.79 59.75 42.85 59.88 42.79 60.01 42.79 60.27 42.79 60.4 42.85 60.53 42.85 60.66 42.85 60.79 42.79 60.92 42.79 61.05 42.79 61.31 42.79 61.44 42.79 61.57 42.79 62.1 42.79 62.23 42.79 62.36 42.79 62.62 42.79 62.88 42.79 63.01 42.79 63.4 42.79 64.06 42.79 64.71 42.79 65.36 42.97 65.49 42.91 65.62 42.91 65.75 42.91 65.88 42.85 66.14 42.85 66.4 42.85 66.93 42.85 67.06 42.85 67.19 42.91 67.32 42.91 67.45 42.91 67.58 42.91 67.71 42.91 69.28 42.97 69.54 42.97 69.67 42.97 69.93 43.03 70.45 43.03 70.71 43.03 70.97 43.03 71.5 43.03 71.76 43.03 71.89 43.03 72.15 43.03 72.28 43.03 72.41 43.03 72.54 43.03 72.67 43.03 72.8 43.03 73.06 43.03 73.19 43.03 73.45 43.1 73.71 43.03 73.85 43.03 73.98 43.03 74.24 43.1 74.37 43.03 75.02 43.1 75.54 43.1 75.67 43.1 76.72 43.1 76.85 43.1 76.98 43.1 77.37 43.16 77.5 43.16 77.63 43.1 77.89 43.1 78.15 43.1 78.41 43.16 79.59 43.1"/>
      </g>
      <g stroke-width="0.3" fill="#000000" fill-opacity="0.000" class="geometry color_oldfull_fail" stroke-dasharray="none" stroke="#FFA500" id="fig-f97b81f86f564c21a16d2bf618405c98-element-17">
        <path fill="none" d="M21.63,43.16 L 21.76 43.16 21.89 43.59 22.02 42.91 22.15 42.97 22.28 43.47 22.41 43.34 22.55 43.47 22.81 42.6 22.94 42.6 23.2 42.54 23.46 42.79 23.59 42.66 23.85 42.85 23.98 42.79 24.9 42.91 25.29 42.91 25.55 42.91 26.46 42.85 26.59 42.72 26.72 42.1 26.85 42.1 26.98 42.41 27.11 42.41 27.24 42.6 27.38 42.6 27.51 42.6 27.64 42.85 27.77 42.85 27.9 43.16 28.16 43.16 28.29 43.1 28.42 42.97 28.55 43.03 28.68 43.03 28.81 43.16 28.94 43.16 29.07 43.16 29.2 43.03 29.33 43.28 29.46 43.22 29.59 43.16 29.72 43.03 29.86 45.71 29.99 43.28 30.12 42.97 30.25 43.1 31.03 42.97 31.16 43.22 31.29 43.47 31.42 43.47 31.55 43.41 31.68 43.66 31.81 43.59 31.94 43.59 32.07 43.66 32.2 43.84 32.47 43.53 32.6 43.59 32.73 43.72 32.86 43.59 32.99 43.72 33.12 43.72 33.25 43.47 33.38 43.53 33.64 43.78 33.77 43.78 33.9 43.78 34.03 43.72 34.16 43.66 34.29 43.78 34.55 43.78 34.69 43.84 34.82 43.9 34.95 43.9 35.21 43.78 35.47 43.34 35.6 43.66 35.73 43.59 35.86 43.59 36.25 43.59 36.38 43.59 36.51 43.41 36.64 43.53 36.77 43.47 36.9 43.47 37.03 43.59 37.17 43.53 37.43 43.59 37.56 43.66 37.82 43.66 37.95 43.66 38.08 43.66 38.21 43.66 38.47 43.66 38.6 43.66 38.73 43.66 38.86 43.59 38.99 43.59 39.12 43.53 39.25 43.66 39.38 43.53 39.51 43.47 39.65 43.47 39.78 43.34 39.91 43.28 40.04 43.34 40.3 43.22 40.43 43.28 40.56 43.47 40.69 43.28 40.82 43.28 40.95 43.34 41.08 43.16 41.21 43.22 41.47 43.53 41.6 43.47 41.86 43.47 41.99 43.47 42.13 43.47 42.65 43.47 43.04 43.41 43.17 43.34 43.3 43.41 43.43 43.28 43.56 43.28 43.69 43.47 43.82 43.16 43.95 43.1 44.08 43.1 44.34 43.16 44.48 43.28 44.61 43.22 44.74 43.28 44.87 43.28 45 43.16 45.13 43.28 45.39 43.41 45.52 43.41 45.65 43.41 45.78 43.41 45.91 43.22 46.04 43.47 46.17 43.47 46.3 43.47 46.69 43.1 46.82 43.28 46.96 43.28 47.09 43.41 47.22 43.28 47.35 43.41 47.48 43.41 47.61 43.34 47.74 43.34 47.87 43.28 48 43.47 48.13 43.41 48.26 43.34 48.39 43.41 48.52 43.41 48.65 43.34 48.78 43.47 48.91 43.28 49.04 43.28 49.17 43.41 49.3 43.34 49.44 43.28 49.57 43.28 49.7 43.28 49.83 43.22 49.96 43.28 50.09 43.41 50.22 43.22 50.35 43.28 50.48 43.28 50.87 43.16 51.52 43.16 51.65 43.03 51.78 43.03 51.92 42.91 52.05 42.97 52.18 43.16 52.31 43.16 52.83 43.1 52.96 43.1 53.61 42.97 53.87 42.97 54 42.72 54.13 42.85 54.27 42.91 54.4 43.03 54.53 43.03 54.66 42.91 55.05 42.79 55.18 42.79 55.44 42.72 55.57 42.54 55.7 42.85 56.09 42.79 56.35 42.91 56.75 42.85 57.27 42.72 57.53 42.85 57.92 42.6 58.83 42.47 59.36 42.54 59.49 42.54 59.62 42.54 59.75 42.23 59.88 42.1 60.01 42.04 60.27 42.16 60.4 42.16 60.53 42.16 60.66 42.1 60.79 41.91 60.92 42.23 61.05 42.23 61.31 42.23 61.44 42.23 61.57 42.29 62.1 42.1 62.23 42.23 62.36 42.04 62.62 42.47 62.88 42.47 63.01 42.41 63.4 42.29 64.06 42.29 64.71 42.35 65.36 41.85 65.49 41.6 65.62 41.67 65.75 41.6 65.88 41.91 66.14 41.85 66.4 41.91 66.93 41.67 67.06 41.73 67.19 41.91 67.32 41.79 67.45 41.85 67.58 41.73 67.71 41.91 69.28 41.85 69.54 41.91 69.67 41.73 69.93 41.91 70.45 42.04 70.71 41.98 70.97 41.67 71.5 41.85 71.76 41.73 71.89 42.23 72.15 42.35 72.28 42.16 72.41 42.23 72.54 42.1 72.67 42.16 72.8 42.41 73.06 42.23 73.19 42.16 73.45 42.35 73.71 42.29 73.85 42.16 73.98 42.29 74.24 42.16 74.37 42.1 75.02 41.91 75.54 42.1 75.67 42.1 76.72 42.16 76.85 42.23 76.98 42.16 77.37 42.41 77.5 42.41 77.63 42.35 77.89 42.04 78.15 42.16 78.41 42.1 79.59 42.23"/>
      </g>
      <g stroke-width="0.3" fill="#000000" fill-opacity="0.000" class="geometry color_newtests_pass" stroke-dasharray="none" stroke="#008000" id="fig-f97b81f86f564c21a16d2bf618405c98-element-18">
        <path fill="none" d="M21.63,37.69 L 21.76 37.69 21.89 38.12 22.02 37.81 22.15 37.81 22.28 38.25 22.41 38.37 22.55 38.25 22.81 38.18 22.94 38.12 23.2 38.06 23.46 37.81 23.59 37.93 23.85 37.69 23.98 37.69 24.9 37.25 25.29 37.25 25.55 37.25 26.46 37.31 26.59 37.25 26.72 37.93 26.85 37.93 26.98 37.56 27.11 37.56 27.24 37.44 27.38 37.44 27.51 37.44 27.64 37.13 27.77 37.13 27.9 36.75 28.16 36.63 28.29 36.38 28.42 36.38 28.55 36.13 28.68 36.13 28.81 35.82 28.94 35.7 29.07 35.76 29.2 35.82 29.33 35.57 29.46 35.63 29.59 35.57 29.72 35.7 29.86 35.26 29.99 35.32 30.12 35.57 30.25 35.38 31.03 35.07 31.16 34.76 31.29 34.45 31.42 34.33 31.55 34.33 31.68 34.08 31.81 34.14 31.94 34.08 32.07 34.02 32.2 34.76 32.47 33.95 32.6 33.83 32.73 33.71 32.86 33.83 32.99 33.71 33.12 33.71 33.25 33.77 33.38 33.71 33.64 33.33 33.77 33.27 33.9 33.27 34.03 33.27 34.16 33.21 34.29 32.96 34.55 32.9 34.69 32.77 34.82 32.71 34.95 32.71 35.21 32.77 35.47 34.08 35.6 33.89 35.73 32.65 35.86 32.71 36.25 32.52 36.38 32.52 36.51 32.65 36.64 32.52 36.77 32.46 36.9 32.34 37.03 32.21 37.17 32.15 37.43 32.09 37.56 31.96 37.82 32.03 37.95 31.9 38.08 31.71 38.21 31.71 38.47 31.78 38.6 31.71 38.73 31.71 38.86 31.71 38.99 31.65 39.12 31.71 39.25 31.53 39.38 31.65 39.51 31.71 39.65 31.59 39.78 33.02 39.91 32.71 40.04 32.65 40.3 31.59 40.43 31.47 40.56 31.22 40.69 31.34 40.82 31.34 40.95 31.16 41.08 31.16 41.21 31.16 41.47 30.97 41.6 30.78 41.86 30.78 41.99 30.78 42.13 30.78 42.65 30.78 43.04 30.22 43.17 30.22 43.3 30.16 43.43 30.1 43.56 30.04 43.69 29.79 43.82 29.6 43.95 29.6 44.08 29.6 44.34 29.72 44.48 29.6 44.61 29.66 44.74 29.54 44.87 29.6 45 29.72 45.13 29.6 45.39 29.54 45.52 29.41 45.65 29.41 45.78 29.35 45.91 28.79 46.04 29.23 46.17 29.16 46.3 29.04 46.69 29.23 46.82 29.1 46.96 29.04 47.09 28.79 47.22 28.92 47.35 28.79 47.48 28.67 47.61 28.73 47.74 28.79 47.87 28.85 48 28.73 48.13 28.85 48.26 28.85 48.39 28.73 48.52 28.61 48.65 28.67 48.78 28.54 48.91 28.67 49.04 28.67 49.17 28.48 49.3 28.54 49.44 28.54 49.57 28.42 49.7 28.42 49.83 28.42 49.96 28.29 50.09 28.17 50.22 28.23 50.35 28.17 50.48 28.29 50.87 28.17 51.52 27.92 51.65 27.92 51.78 27.92 51.92 27.92 52.05 27.8 52.18 27.55 52.31 27.55 52.83 27.3 52.96 27.3 53.61 27.36 53.87 27.36 54 27.86 54.13 27.42 54.27 27.24 54.4 27.11 54.53 26.99 54.66 27.05 55.05 27.17 55.18 27.11 55.44 27.05 55.57 27.17 55.7 26.86 56.09 26.86 56.35 26.61 56.75 26.55 57.27 26.49 57.53 26.24 57.92 26.24 58.83 26.06 59.36 25.68 59.49 25.56 59.62 25.56 59.75 25.81 59.88 25.99 60.01 25.99 60.27 25.87 60.4 25.74 60.53 25.74 60.66 25.68 60.79 25.81 60.92 25.5 61.05 25.5 61.31 25.37 61.44 25.25 61.57 25.12 62.1 25 62.23 25 62.36 25.18 62.62 24.62 62.88 24.5 63.01 24.56 63.4 24.56 64.06 24.56 64.71 24.07 65.36 25.93 65.49 25.62 65.62 25.12 65.75 24.75 65.88 24.44 66.14 24.56 66.4 24.5 66.93 24.62 67.06 24.5 67.19 24.19 67.32 24.31 67.45 24.13 67.58 24.25 67.71 24.07 69.28 24.13 69.54 24.07 69.67 23.94 69.93 23.69 70.45 23.63 70.71 23.57 70.97 23.75 71.5 23.57 71.76 23.57 71.89 23.07 72.15 22.76 72.28 22.95 72.41 22.82 72.54 22.7 72.67 22.76 72.8 22.45 73.06 22.57 73.19 22.51 73.45 22.32 73.71 22.32 73.85 22.39 73.98 22.2 74.24 22.07 74.37 22.2 75.02 22.14 75.54 21.89 75.67 21.83 76.72 21.76 76.85 21.83 76.98 21.89 77.37 21.39 77.5 21.33 77.63 21.27 77.89 21.39 78.15 21.33 78.41 21.27 79.59 20.77"/>
      </g>
    </g>
  </g>
  <g class="guide ylabels" font-size="2.82" font-family="'PT Sans Caption','Helvetica Neue','Helvetica',sans-serif" fill="#6C606B" id="fig-f97b81f86f564c21a16d2bf618405c98-element-19">
    <text x="18.63" y="45.71" text-anchor="end" dy="0.35em">0</text>
    <text x="18.63" y="39.49" text-anchor="end" dy="0.35em">100</text>
    <text x="18.63" y="33.27" text-anchor="end" dy="0.35em">200</text>
    <text x="18.63" y="27.05" text-anchor="end" dy="0.35em">300</text>
    <text x="18.63" y="20.83" text-anchor="end" dy="0.35em">400</text>
    <text x="18.63" y="14.61" text-anchor="end" dy="0.35em">500</text>
  </g>
  <g font-size="3.88" font-family="'PT Sans','Helvetica Neue','Helvetica',sans-serif" fill="#564A55" stroke="#000000" stroke-opacity="0.000" id="fig-f97b81f86f564c21a16d2bf618405c98-element-20">
    <text x="8.81" y="28.16" text-anchor="middle" dy="0.35em" transform="rotate(-90, 8.81, 30.16)">Number of Packages</text>
  </g>
  <g font-size="3.88" font-family="'PT Sans','Helvetica Neue','Helvetica',sans-serif" fill="#564A55" stroke="#000000" stroke-opacity="0.000" id="fig-f97b81f86f564c21a16d2bf618405c98-element-21">
    <text x="58.12" y="10.61" text-anchor="middle">Julia v0.3</text>
  </g>
</g>
<defs>
<clipPath id="fig-f97b81f86f564c21a16d2bf618405c98-element-5">
  <path d="M19.63,12.61 L 96.6 12.61 96.6 47.71 19.63 47.71" />
</clipPath
></defs>
</svg>
