<?xml version="1.0" encoding="UTF-8"?>
<svg xmlns="http://www.w3.org/2000/svg"
     xmlns:xlink="http://www.w3.org/1999/xlink"
     xmlns:gadfly="http://www.gadflyjl.org/ns"
     version="1.2"
     width="101.6mm" height="76.2mm" viewBox="0 0 101.6 76.2"
     stroke="none"
     fill="#000000"
     stroke-width="0.3"
     font-size="3.88"
>
<g class="plotroot xscalable yscalable" id="fig-81bb3df5626346cbb1433e971809e396-element-1">
  <g font-size="3.88" font-family="'PT Sans','Helvetica Neue','Helvetica',sans-serif" fill="#564A55" stroke="#000000" stroke-opacity="0.000" id="fig-81bb3df5626346cbb1433e971809e396-element-2">
    <text x="58.12" y="64.59" text-anchor="middle" dy="0.6em">Date</text>
  </g>
  <g class="guide xlabels" font-size="2.82" font-family="'PT Sans Caption','Helvetica Neue','Helvetica',sans-serif" fill="#6C606B" id="fig-81bb3df5626346cbb1433e971809e396-element-3">
    <text x="21.88" y="48.71" text-anchor="end" dy="0.35em" transform="rotate(-90, 21.88, 48.71)">Apr</text>
    <text x="25.56" y="48.71" text-anchor="end" dy="0.35em" transform="rotate(-90, 25.56, 48.71)">May</text>
    <text x="29.37" y="48.71" text-anchor="end" dy="0.35em" transform="rotate(-90, 29.37, 48.71)">Jun</text>
    <text x="33.06" y="48.71" text-anchor="end" dy="0.35em" transform="rotate(-90, 33.06, 48.71)">Jul</text>
    <text x="36.86" y="48.71" text-anchor="end" dy="0.35em" transform="rotate(-90, 36.86, 48.71)">Aug</text>
    <text x="40.67" y="48.71" text-anchor="end" dy="0.35em" transform="rotate(-90, 40.67, 48.71)">Sep</text>
    <text x="44.36" y="48.71" text-anchor="end" dy="0.35em" transform="rotate(-90, 44.36, 48.71)">Oct</text>
    <text x="48.17" y="48.71" text-anchor="end" dy="0.35em" transform="rotate(-90, 48.17, 48.71)">Nov</text>
    <text x="51.85" y="48.71" text-anchor="end" dy="0.35em" transform="rotate(-90, 51.85, 48.71)">Dec</text>
    <text x="55.66" y="48.71" text-anchor="end" dy="0.35em" transform="rotate(-90, 55.66, 48.71)">Jan 2015</text>
    <text x="59.47" y="48.71" text-anchor="end" dy="0.35em" transform="rotate(-90, 59.47, 48.71)">Feb</text>
    <text x="62.91" y="48.71" text-anchor="end" dy="0.35em" transform="rotate(-90, 62.91, 48.71)">Mar</text>
    <text x="66.71" y="48.71" text-anchor="end" dy="0.35em" transform="rotate(-90, 66.71, 48.71)">Apr</text>
    <text x="70.4" y="48.71" text-anchor="end" dy="0.35em" transform="rotate(-90, 70.4, 48.71)">May</text>
    <text x="74.21" y="48.71" text-anchor="end" dy="0.35em" transform="rotate(-90, 74.21, 48.71)">Jun</text>
    <text x="77.89" y="48.71" text-anchor="end" dy="0.35em" transform="rotate(-90, 77.89, 48.71)">Jul</text>
    <text x="81.7" y="48.71" text-anchor="end" dy="0.35em" transform="rotate(-90, 81.7, 48.71)">Aug</text>
    <text x="85.51" y="48.71" text-anchor="end" dy="0.35em" transform="rotate(-90, 85.51, 48.71)">Sep</text>
    <text x="89.19" y="48.71" text-anchor="end" dy="0.35em" transform="rotate(-90, 89.19, 48.71)">Oct</text>
    <text x="93" y="48.71" text-anchor="end" dy="0.35em" transform="rotate(-90, 93, 48.71)">Nov</text>
  </g>
  <g clip-path="url(#fig-81bb3df5626346cbb1433e971809e396-element-5)" id="fig-81bb3df5626346cbb1433e971809e396-element-4">
    <g pointer-events="visible" opacity="1" fill="#000000" fill-opacity="0.000" stroke="#000000" stroke-opacity="0.000" class="guide background" id="fig-81bb3df5626346cbb1433e971809e396-element-6">
      <rect x="19.63" y="12.61" width="76.97" height="35.1"/>
    </g>
    <g class="guide ygridlines xfixed" stroke-dasharray="0.5,0.5" stroke-width="0.2" stroke="#D0D0E0" id="fig-81bb3df5626346cbb1433e971809e396-element-7">
      <path fill="none" d="M19.63,45.71 L 96.6 45.71"/>
      <path fill="none" d="M19.63,30.16 L 96.6 30.16"/>
      <path fill="none" d="M19.63,14.61 L 96.6 14.61"/>
    </g>
    <g class="guide xgridlines yfixed" stroke-dasharray="0.5,0.5" stroke-width="0.2" stroke="#D0D0E0" id="fig-81bb3df5626346cbb1433e971809e396-element-8">
      <path fill="none" d="M21.88,12.61 L 21.88 47.71"/>
      <path fill="none" d="M25.56,12.61 L 25.56 47.71"/>
      <path fill="none" d="M29.37,12.61 L 29.37 47.71"/>
      <path fill="none" d="M33.06,12.61 L 33.06 47.71"/>
      <path fill="none" d="M36.86,12.61 L 36.86 47.71"/>
      <path fill="none" d="M40.67,12.61 L 40.67 47.71"/>
      <path fill="none" d="M44.36,12.61 L 44.36 47.71"/>
      <path fill="none" d="M48.17,12.61 L 48.17 47.71"/>
      <path fill="none" d="M51.85,12.61 L 51.85 47.71"/>
      <path fill="none" d="M55.66,12.61 L 55.66 47.71"/>
      <path fill="none" d="M59.47,12.61 L 59.47 47.71"/>
      <path fill="none" d="M62.91,12.61 L 62.91 47.71"/>
      <path fill="none" d="M66.71,12.61 L 66.71 47.71"/>
      <path fill="none" d="M70.4,12.61 L 70.4 47.71"/>
      <path fill="none" d="M74.21,12.61 L 74.21 47.71"/>
      <path fill="none" d="M77.89,12.61 L 77.89 47.71"/>
      <path fill="none" d="M81.7,12.61 L 81.7 47.71"/>
      <path fill="none" d="M85.51,12.61 L 85.51 47.71"/>
      <path fill="none" d="M89.19,12.61 L 89.19 47.71"/>
      <path fill="none" d="M93,12.61 L 93 47.71"/>
    </g>
    <g class="plotpanel" id="fig-81bb3df5626346cbb1433e971809e396-element-9">
      <g stroke-width="0.3" fill="#000000" fill-opacity="0.000" class="geometry color_newnot_possible" stroke-dasharray="none" stroke="#808080" id="fig-81bb3df5626346cbb1433e971809e396-element-10">
        <path fill="none" d="M76.54,42.94 L 76.67 42.94 76.79 42.95 76.91 42.95 77.03 42.96 77.16 42.96 77.28 42.96 77.4 42.96 77.77 42.96 78.02 42.97 78.26 43.02 78.38 42.98 78.51 42.99 78.63 43 78.75 43.01 78.88 43.01 80.96 43.02 81.95 43.04 83.05 43.06 85.14 43.12 85.51 43.12 86.12 42.99 86.74 42.85 88.7 42.89 89.19 42.92 89.81 42.93 90.3 42.94 90.79 42.94 91.16 42.91 92.63 42.91 94.11 42.87 94.6 42.86"/>
      </g>
      <g stroke-width="0.3" fill="#000000" fill-opacity="0.000" class="geometry color_newno_tests" stroke-dasharray="none" stroke="#0000FF" id="fig-81bb3df5626346cbb1433e971809e396-element-11">
        <path fill="none" d="M76.54,40.12 L 76.67 40.12 76.79 40.13 76.91 40.13 77.03 40.15 77.16 40.15 77.28 40.15 77.4 40.16 77.77 40.16 78.02 40.18 78.26 40.17 78.38 40.19 78.51 40.28 78.63 40.3 78.75 40.3 78.88 40.36 80.96 40.43 81.95 40.47 83.05 40.51 85.14 40.62 85.51 40.69 86.12 40.69 86.74 40.76 88.7 40.97 89.19 41.15 89.81 41.27 90.3 41.27 90.79 41.29 91.16 41.34 92.63 41.4 94.11 41.49 94.6 41.48"/>
      </g>
      <g stroke-width="0.3" fill="#000000" fill-opacity="0.000" class="geometry color_newtests_fail" stroke-dasharray="none" stroke="#FF0000" id="fig-81bb3df5626346cbb1433e971809e396-element-12">
        <path fill="none" d="M76.54,42.78 L 76.67 42.62 76.79 42.58 76.91 42.53 77.03 42.44 77.16 42.59 77.28 42.39 77.4 42.55 77.77 42.44 78.02 42.4 78.26 42.35 78.38 42.51 78.51 40.89 78.63 42.44 78.75 42.14 78.88 42.19 80.96 42.47 81.95 42.54 83.05 42.18 85.14 41.44 85.51 41.69 86.12 41.98 86.74 42.23 88.7 42.24 89.19 42.03 89.81 42.24 90.3 42.29 90.79 42.16 91.16 42.17 92.63 42.08 94.11 42 94.6 42.31"/>
      </g>
      <g stroke-width="0.3" fill="#000000" fill-opacity="0.000" class="geometry color_newtests_pass" stroke-dasharray="none" stroke="#008000" id="fig-81bb3df5626346cbb1433e971809e396-element-13">
        <path fill="none" d="M76.54,25.9 L 76.67 26.06 76.79 26.07 76.91 26.12 77.03 26.19 77.16 26.03 77.28 26.24 77.4 26.07 77.77 26.17 78.02 26.18 78.26 26.2 78.38 26.06 78.51 27.57 78.63 26 78.75 26.29 78.88 26.18 80.96 25.82 81.95 25.69 83.05 25.99 85.14 26.56 85.51 26.24 86.12 26.08 86.74 25.9 88.7 25.63 89.19 25.64 89.81 25.3 90.3 25.24 90.79 25.35 91.16 25.31 92.63 25.34 94.11 25.37 94.6 25.08"/>
      </g>
      <g stroke-width="0.3" fill="#000000" fill-opacity="0.000" class="geometry color_newnot_possible" stroke-dasharray="none" stroke="#808080" id="fig-81bb3df5626346cbb1433e971809e396-element-14">
        <path fill="none" d="M21.63,42.35 L 21.75 42.35 21.88 42.36 22 42.36 22.12 42.36 22.25 42.36 22.37 42.36 22.49 42.37 22.74 42.37 22.86 42.38 23.11 42.39 23.35 42.41 23.47 42.41 23.72 42.41 23.84 42.42 24.7 42.47 25.07 42.47 25.32 42.47 26.18 42.58 26.3 42.6 26.42 42.61 26.55 42.61 26.67 42.61 26.79 42.51 26.91 42.51 27.04 42.51 27.16 42.51 27.28 42.31 27.41 42.31 27.53 42.34 27.77 42.25 27.9 42.94 28.02 42.94 28.14 42.96 28.27 42.96 28.39 42.96 28.51 42.97 28.63 42.97 28.76 42.97 28.88 42.97 29 42.97 29.13 42.98 29.25 42.98 29.37 42.59 29.49 42.99 29.62 43 29.74 43 30.48 42.58 30.6 42.49 30.72 42.5 30.84 42.51 30.97 42.53 31.09 42.44 31.21 42.27 31.34 42.27 31.46 42.28 31.58 42.29 31.83 42.29 31.95 42.31 32.07 42.31 32.2 42.31 32.32 42.31 32.44 42.31 32.56 42.34 32.69 42.34 32.93 42.35 33.06 42.37 33.18 42.38 33.3 42.39 33.42 42.39 33.55 42.41 33.79 42.42 33.92 42.45 34.04 42.45 34.16 42.45 34.41 42.49 34.65 42.52 34.78 42.52 34.9 42.53 35.02 42.53 35.39 42.54 35.51 42.54 35.64 42.55 35.76 42.55 35.88 42.55 36 42.56 36.13 42.48 36.25 42.49 36.5 42.49 36.62 42.49 36.86 42.49 36.99 42.5 37.11 42.52 37.23 42.52 37.48 42.53 37.6 42.53 37.72 42.55 37.85 42.56 37.97 42.57 38.09 42.57 38.22 42.58 38.34 42.6 38.46 42.52 38.58 42.44 38.71 42.45 38.83 42.45 38.95 42.45 39.2 42.48 39.32 42.48 39.44 42.49 39.57 42.49 39.69 42.49 39.81 42.51 39.94 42.52 40.06 42.53 40.3 42.43 40.43 42.37 40.67 42.39 40.8 42.39 40.92 42.31 41.41 42.31 41.78 42.36 41.9 42.37 42.02 42.38 42.15 42.39 42.27 42.39 42.39 42.39 42.51 42.46 42.64 42.46 42.76 42.46 43.01 42.38 43.13 42.39 43.25 42.4 43.37 42.4 43.5 42.4 43.62 42.41 43.74 42.33 43.99 42.32 44.11 42.33 44.23 42.33 44.36 42.35 44.48 42.29 44.6 42.29 44.73 42.29 44.85 42.3 45.22 42.32 45.34 42.24 45.46 42.26 45.59 42.27 45.71 42.27 45.83 42.27 45.95 42.29 46.08 42.29 46.2 42.29 46.32 42.3 46.45 42.23 46.57 42.23 46.69 42.23 46.81 42.24 46.94 42.25 47.06 42.25 47.18 42.25 47.31 42.26 47.43 42.26 47.55 42.27 47.67 42.27 47.8 42.29 47.92 42.29 48.04 42.29 48.17 42.3 48.29 42.3 48.41 42.3 48.53 42.31 48.66 42.31 48.78 42.32 49.15 42.32 49.76 42.36 49.89 42.37 50.01 42.37 50.13 42.38 50.25 42.38 50.38 42.4 50.5 42.4 50.99 42.44 51.11 42.44 51.73 42.45 51.97 42.45 52.1 42.52 52.22 42.53 52.34 42.53 52.47 42.53 52.59 42.54 52.71 42.55 53.08 42.56 53.2 42.57 53.45 42.59 53.57 42.6 53.69 42.6 54.06 42.6 54.31 42.61 54.68 42.63 55.17 42.64 55.41 42.66 55.78 42.68 56.64 42.72 57.13 42.77 57.26 42.65 57.38 42.65 57.5 42.62 57.62 42.62 57.75 42.62 57.99 42.62 58.12 42.63 58.24 42.63 58.36 42.65 58.48 42.65 58.61 42.65 58.73 42.65 58.98 42.61 59.1 42.62 59.22 42.63 59.71 42.68 59.84 42.67 59.96 42.67 60.2 42.68 60.45 42.7 60.57 42.7 60.94 42.71 61.56 42.71 62.17 42.75 62.78 42.77 62.91 42.77 63.03 42.77 63.15 42.37 63.28 42.43 63.52 42.37 63.77 42.37 64.26 42.38 64.38 42.4 64.5 42.4 64.63 42.4 64.75 42.41 64.87 42.47 65 42.42 66.47 42.37 66.71 42.31 66.84 42.33 67.08 42.33 67.57 42.34 67.82 42.34 68.07 42.35 68.56 42.35 68.8 42.37 68.93 42.37 69.17 42.4 69.29 42.4 69.42 42.41 69.54 42.43 69.66 42.43 69.79 42.43 70.03 42.44 70.15 42.44 70.4 42.44 70.65 42.46 70.77 42.47 70.89 42.48 71.14 42.49 71.26 42.5 71.87 42.52 72.37 42.58 72.49 42.54 73.47 42.56 73.59 42.45 73.72 42.45 74.09 42.47 74.21 42.48 74.33 42.54 74.58 42.55 74.82 42.55 75.07 42.55 76.17 42.58"/>
      </g>
      <g stroke-width="0.3" fill="#000000" fill-opacity="0.000" class="geometry color_newtests_fail" stroke-dasharray="none" stroke="#FF0000" id="fig-81bb3df5626346cbb1433e971809e396-element-15">
        <path fill="none" d="M21.63,41.51 L 21.75 41.51 21.88 39.95 22 41.62 22.12 41.52 22.25 39.84 22.37 39.84 22.49 39.86 22.74 41.53 22.86 41.55 23.11 41.67 23.35 41.69 23.47 41.69 23.72 41.8 23.84 41.81 24.7 41.96 25.07 41.96 25.32 41.96 26.18 41.87 26.3 42 26.42 41.81 26.55 41.81 26.67 41.91 26.79 42.01 26.91 41.91 27.04 41.91 27.16 41.91 27.28 42.01 27.41 42.01 27.53 41.85 27.77 41.96 27.9 41.76 28.02 41.96 28.14 42.18 28.27 42.18 28.39 42.27 28.51 42.29 28.63 42.19 28.76 42.29 28.88 42.29 29 42.29 29.13 42.39 29.25 42.39 29.37 42.81 29.49 42.79 29.62 42.8 29.74 42.81 30.48 43.43 30.6 43.53 30.72 43.54 30.84 43.55 30.97 43.47 31.09 43.56 31.21 43.57 31.34 43.57 31.46 43.49 31.58 41.74 31.83 43.49 31.95 43.6 32.07 43.6 32.2 43.6 32.32 43.6 32.44 43.6 32.56 43.62 32.69 43.62 32.93 43.62 33.06 43.64 33.18 43.55 33.3 43.56 33.42 43.56 33.55 43.57 33.79 43.58 33.92 43.42 34.04 43.42 34.16 43.42 34.41 43.28 34.65 41.57 34.78 41.49 34.9 43.3 35.02 43.22 35.39 43.4 35.51 43.4 35.64 43.4 35.76 43.4 35.88 43.49 36 43.58 36.13 43.58 36.25 43.59 36.5 43.59 36.62 43.67 36.86 43.59 36.99 43.68 37.11 43.7 37.23 43.7 37.48 43.7 37.6 43.7 37.72 43.55 37.85 43.64 37.97 43.64 38.09 43.56 38.22 43.57 38.34 43.42 38.46 43.5 38.58 43.67 38.71 41.39 38.83 41.88 38.95 41.88 39.2 43.77 39.32 43.85 39.44 43.77 39.57 43.86 39.69 43.77 39.81 43.79 39.94 43.95 40.06 43.72 40.3 43.99 40.43 44.08 40.67 43.93 40.8 43.93 40.92 44.01 41.41 44.01 41.78 44.43 41.9 44.44 42.02 44.44 42.15 44.52 42.27 44.6 42.39 44.6 42.51 44.63 42.64 44.63 42.76 44.63 43.01 44.47 43.13 44.47 43.25 44.4 43.37 44.48 43.5 44.4 43.62 44.25 43.74 44.33 43.99 44.4 44.11 44.48 44.23 44.48 44.36 44.41 44.48 44.4 44.6 44.42 44.73 44.49 44.85 44.5 45.22 44.5 45.34 44.5 45.46 44.51 45.59 44.59 45.71 44.59 45.83 44.59 45.95 44.59 46.08 44.59 46.2 44.45 46.32 44.38 46.45 44.38 46.57 44.23 46.69 44.38 46.81 44.38 46.94 44.39 47.06 44.39 47.18 44.39 47.31 44.31 47.43 44.39 47.55 44.32 47.67 44.39 47.8 44.32 47.92 44.4 48.04 44.4 48.17 44.4 48.29 44.48 48.41 44.48 48.53 44.55 48.66 44.55 48.78 44.34 49.15 44.63 49.76 44.57 49.89 44.57 50.01 44.57 50.13 44.65 50.25 44.72 50.38 44.58 50.5 44.58 50.99 44.53 51.11 44.6 51.73 44.6 51.97 44.6 52.1 44.18 52.22 44.4 52.34 44.6 52.47 44.6 52.59 44.61 52.71 44.54 53.08 44.48 53.2 44.48 53.45 44.42 53.57 44.49 53.69 44.49 54.06 44.49 54.31 44.56 54.68 44.57 55.17 44.57 55.41 44.58 55.78 44.59 56.64 44.54 57.13 44.43 57.26 44.56 57.38 44.56 57.5 44.32 57.62 44.32 57.75 44.38 57.99 44.38 58.12 44.33 58.24 44.33 58.36 44.27 58.48 44.34 58.61 44.34 58.73 44.34 58.98 44.35 59.1 44.35 59.22 44.35 59.71 44.19 59.84 44.19 59.96 44.19 60.2 44.14 60.45 44.08 60.57 44.08 60.94 44.09 61.56 44.09 62.17 44.17 62.78 42.48 62.91 43.06 63.03 43.47 63.15 44.19 63.28 44.19 63.52 44.19 63.77 44.19 64.26 44.19 64.38 44.14 64.5 44.14 64.63 44.14 64.75 44.15 64.87 44.14 65 44.09 66.47 44.04 66.71 44.1 66.84 44.22 67.08 44.22 67.57 44.11 67.82 44.22 68.07 44.17 68.56 44.17 68.8 44.18 68.93 44.13 69.17 44.03 69.29 44.03 69.42 44.03 69.54 44.1 69.66 43.98 69.79 43.99 70.03 43.99 70.15 44.05 70.4 43.99 70.65 44 70.77 43.9 70.89 43.9 71.14 43.96 71.26 43.91 71.87 43.87 72.37 43.77 72.49 43.77 73.47 43.57 73.59 43.57 73.72 43.57 74.09 43.59 74.21 43.59 74.33 43.65 74.58 43.71 74.82 43.65 75.07 43.66 76.17 43.78"/>
      </g>
      <g stroke-width="0.3" fill="#000000" fill-opacity="0.000" class="geometry color_newno_tests" stroke-dasharray="none" stroke="#0000FF" id="fig-81bb3df5626346cbb1433e971809e396-element-16">
        <path fill="none" d="M21.63,40.04 L 21.75 40.04 21.88 40.05 22 40.05 22.12 40.05 22.25 40.16 22.37 40.16 22.49 40.07 22.74 39.97 22.86 39.99 23.11 40.01 23.35 39.84 23.47 39.84 23.72 39.84 23.84 39.86 24.7 39.93 25.07 39.93 25.32 39.93 26.18 39.85 26.3 39.89 26.42 39.91 26.55 39.91 26.67 39.91 26.79 39.91 26.91 39.91 27.04 39.91 27.16 39.91 27.28 40.11 27.41 40.11 27.53 40.16 27.77 40.28 27.9 40.28 28.02 40.28 28.14 40.21 28.27 40.21 28.39 40.41 28.51 40.53 28.63 40.53 28.76 40.53 28.88 40.53 29 40.53 29.13 40.54 29.25 40.54 29.37 39.36 29.49 40.27 29.62 40.28 29.74 40.3 30.48 40.4 30.6 40.42 30.72 40.43 30.84 40.54 30.97 40.57 31.09 40.57 31.21 40.6 31.34 40.7 31.46 40.71 31.58 41 31.83 40.91 31.95 40.75 32.07 40.75 32.2 40.75 32.32 40.75 32.44 40.75 32.56 40.8 32.69 40.8 32.93 40.9 33.06 40.84 33.18 40.86 33.3 40.87 33.42 41.05 33.55 41.08 33.79 41.09 33.92 41.13 34.04 41.13 34.16 41.13 34.41 41.02 34.65 41.32 34.78 41.23 34.9 41.16 35.02 41.16 35.39 41.17 35.51 41.17 35.64 41.18 35.76 41.18 35.88 41.27 36 41.28 36.13 41.29 36.25 41.39 36.5 41.39 36.62 41.39 36.86 41.39 36.99 41.4 37.11 41.43 37.23 41.43 37.48 41.28 37.6 41.36 37.72 41.38 37.85 41.31 37.97 41.33 38.09 41.34 38.22 41.35 38.34 41.37 38.46 41.37 38.58 41.38 38.71 41.88 38.83 41.88 38.95 41.88 39.2 41.35 39.32 41.35 39.44 41.44 39.57 41.44 39.69 41.52 39.81 41.47 39.94 41.48 40.06 41.57 40.3 41.93 40.43 42.05 40.67 42.06 40.8 42.06 40.92 42.06 41.41 42.06 41.78 42.04 41.9 42.05 42.02 41.98 42.15 42 42.27 42 42.39 42.08 42.51 42.15 42.64 42.23 42.76 42.23 43.01 42.23 43.13 42.16 43.25 42.17 43.37 42.17 43.5 42.17 43.62 42.25 43.74 42.25 43.99 42.17 44.11 42.18 44.23 42.18 44.36 42.19 44.48 42.07 44.6 42.21 44.73 42.21 44.85 42.23 45.22 42.32 45.34 42.32 45.46 42.26 45.59 42.27 45.71 42.27 45.83 42.27 45.95 42.29 46.08 42.29 46.2 42.29 46.32 42.3 46.45 42.3 46.57 42.38 46.69 42.3 46.81 42.31 46.94 42.33 47.06 42.33 47.18 42.33 47.31 42.41 47.43 42.33 47.55 42.42 47.67 42.34 47.8 42.36 47.92 42.37 48.04 42.37 48.17 42.37 48.29 42.37 48.41 42.37 48.53 42.38 48.66 42.38 48.78 42.39 49.15 42.39 49.76 42.43 49.89 42.44 50.01 42.44 50.13 42.45 50.25 42.45 50.38 42.47 50.5 42.47 50.99 42.58 51.11 42.51 51.73 42.52 51.97 42.52 52.1 42.52 52.22 42.6 52.34 42.53 52.47 42.53 52.59 42.54 52.71 42.62 53.08 42.56 53.2 42.57 53.45 42.59 53.57 42.53 53.69 42.53 54.06 42.6 54.31 42.54 54.68 42.56 55.17 42.64 55.41 42.59 55.78 42.62 56.64 42.66 57.13 42.7 57.26 42.71 57.38 42.71 57.5 42.81 57.62 42.74 57.75 42.74 57.99 42.74 58.12 42.82 58.24 42.82 58.36 42.84 58.48 42.78 58.61 42.78 58.73 42.78 58.98 42.8 59.1 42.81 59.22 42.81 59.71 42.86 59.84 42.85 59.96 42.85 60.2 42.86 60.45 42.88 60.57 42.88 60.94 42.89 61.56 42.89 62.17 42.92 62.78 43.12 62.91 43.06 63.03 43.06 63.15 43.07 63.28 43.01 63.52 43.01 63.77 43.01 64.26 43.02 64.38 43.03 64.5 43.1 64.63 43.1 64.75 43.11 64.87 43.1 65 43.11 66.47 43.17 66.71 43.17 66.84 43.19 67.08 43.25 67.57 43.25 67.82 43.25 68.07 43.26 68.56 43.26 68.8 43.27 68.93 43.28 69.17 43.3 69.29 43.3 69.42 43.3 69.54 43.32 69.66 43.32 69.79 43.32 70.03 43.32 70.15 43.33 70.4 43.38 70.65 43.34 70.77 43.35 70.89 43.35 71.14 43.42 71.26 43.37 71.87 43.44 72.37 43.44 72.49 43.45 73.47 43.47 73.59 43.47 73.72 43.47 74.09 43.53 74.21 43.54 74.33 43.49 74.58 43.49 74.82 43.49 75.07 43.55 76.17 43.52"/>
      </g>
      <g stroke-width="0.3" fill="#000000" fill-opacity="0.000" class="geometry color_oldfull_fail" stroke-dasharray="none" stroke="#FFA500" id="fig-81bb3df5626346cbb1433e971809e396-element-17">
        <path fill="none" d="M21.63,41.4 L 21.75 41.4 21.88 42.15 22 41 22.12 41.1 22.25 41.94 22.37 41.73 22.49 41.95 22.74 40.49 22.86 40.51 23.11 40.42 23.35 40.87 23.47 40.66 23.72 40.97 23.84 40.88 24.7 41.15 25.07 41.15 25.32 41.15 26.18 41.06 26.3 40.89 26.42 39.91 26.55 39.91 26.67 40.41 26.79 40.41 26.91 40.71 27.04 40.71 27.16 40.71 27.28 41.11 27.41 41.11 27.53 41.65 27.77 41.66 27.9 41.56 28.02 41.36 28.14 41.49 28.27 41.49 28.39 41.69 28.51 41.7 28.63 41.7 28.76 41.5 28.88 41.89 29 41.8 29.13 41.71 29.25 41.52 29.37 45.71 29.49 41.92 29.62 41.45 29.74 41.65 30.48 41.54 30.6 41.93 30.72 42.32 30.84 42.33 30.97 42.25 31.09 42.63 31.21 42.55 31.34 42.55 31.46 42.65 31.58 42.94 31.83 42.48 31.95 42.59 32.07 42.77 32.2 42.59 32.32 42.77 32.44 42.77 32.56 42.44 32.69 42.53 32.93 42.9 33.06 42.91 33.18 42.92 33.3 42.84 33.42 42.75 33.55 42.95 33.79 42.95 33.92 43.07 34.04 43.15 34.16 43.15 34.41 43.02 34.65 42.44 34.78 42.87 34.9 42.79 35.02 42.79 35.39 42.8 35.51 42.8 35.64 42.55 35.76 42.72 35.88 42.63 36 42.64 36.13 42.82 36.25 42.74 36.5 42.83 36.62 42.91 36.86 42.91 36.99 42.92 37.11 42.94 37.23 42.94 37.48 42.95 37.6 42.95 37.72 42.96 37.85 42.89 37.97 42.9 38.09 42.82 38.22 42.99 38.34 42.84 38.46 42.76 38.58 42.77 38.71 42.61 38.83 42.53 38.95 42.61 39.2 42.48 39.32 42.56 39.44 42.81 39.57 42.57 39.69 42.57 39.81 42.67 39.94 42.44 40.06 42.53 40.3 42.84 40.43 42.78 40.67 42.79 40.8 42.79 40.92 42.79 41.41 42.79 41.78 42.76 41.9 42.69 42.02 42.77 42.15 42.63 42.27 42.63 42.39 42.87 42.51 42.54 42.64 42.46 42.76 42.46 43.01 42.54 43.13 42.7 43.25 42.63 43.37 42.71 43.5 42.71 43.62 42.56 43.74 42.71 43.99 42.86 44.11 42.87 44.23 42.87 44.36 42.88 44.48 42.8 44.6 42.97 44.73 42.97 44.85 42.98 45.22 42.55 45.34 42.77 45.46 42.79 45.59 42.94 45.71 42.79 45.83 42.94 45.95 42.96 46.08 42.88 46.2 42.89 46.32 42.82 46.45 43.04 46.57 42.97 46.69 42.89 46.81 42.98 46.94 42.99 47.06 42.91 47.18 43.06 47.31 42.85 47.43 42.85 47.55 43 47.67 42.93 47.8 42.87 47.92 42.87 48.04 42.87 48.17 42.81 48.29 42.88 48.41 43.03 48.53 42.82 48.66 42.89 48.78 42.89 49.15 42.75 49.76 42.78 49.89 42.66 50.01 42.66 50.13 42.52 50.25 42.59 50.38 42.82 50.5 42.82 50.99 42.79 51.11 42.79 51.73 42.65 51.97 42.65 52.1 42.38 52.22 42.53 52.34 42.6 52.47 42.74 52.59 42.75 52.71 42.62 53.08 42.5 53.2 42.5 53.45 42.46 53.57 42.26 53.69 42.6 54.06 42.53 54.31 42.68 54.68 42.63 55.17 42.51 55.41 42.66 55.78 42.42 56.64 42.33 57.13 42.45 57.26 42.46 57.38 42.46 57.5 42.18 57.62 42.05 57.75 41.99 57.99 42.11 58.12 42.13 58.24 42.13 58.36 42.09 58.48 41.91 58.61 42.22 58.73 42.22 58.98 42.24 59.1 42.25 59.22 42.32 59.71 42.19 59.84 42.3 59.96 42.12 60.2 42.56 60.45 42.58 60.57 42.52 60.94 42.41 61.56 42.41 62.17 42.51 62.78 42.06 62.91 41.83 63.03 41.89 63.15 41.84 63.28 42.14 63.52 42.08 63.77 42.14 64.26 41.92 64.38 41.99 64.5 42.17 64.63 42.05 64.75 42.12 64.87 42 65 42.19 66.47 42.14 66.71 42.2 66.84 42.04 67.08 42.21 67.57 42.34 67.82 42.28 68.07 42.01 68.56 42.18 68.8 42.08 68.93 42.54 69.17 42.68 69.29 42.51 69.42 42.58 69.54 42.48 69.66 42.54 69.79 42.77 70.03 42.6 70.15 42.55 70.4 42.72 70.65 42.68 70.77 42.58 70.89 42.7 71.14 42.6 71.26 42.55 71.87 42.41 72.37 42.58 72.49 42.59 73.47 42.67 73.59 42.72 73.72 42.67 74.09 42.9 74.21 42.9 74.33 42.85 74.58 42.6 74.82 42.7 75.07 42.66 76.17 42.79"/>
      </g>
      <g stroke-width="0.3" fill="#000000" fill-opacity="0.000" class="geometry color_newtests_pass" stroke-dasharray="none" stroke="#008000" id="fig-81bb3df5626346cbb1433e971809e396-element-18">
        <path fill="none" d="M21.63,32.16 L 21.75 32.16 21.88 32.93 22 32.41 22.12 32.41 22.25 33.14 22.37 33.35 22.49 33.19 22.74 33.08 22.86 33.02 23.11 32.96 23.35 32.63 23.47 32.84 23.72 32.43 23.84 32.47 24.7 31.93 25.07 31.93 25.32 31.93 26.18 32.08 26.3 32.07 26.42 33.21 26.55 33.21 26.67 32.61 26.79 32.61 26.91 32.41 27.04 32.41 27.16 32.41 27.28 31.91 27.41 31.91 27.53 31.45 27.77 31.3 27.9 30.9 28.02 30.9 28.14 30.6 28.27 30.6 28.39 30.11 28.51 29.96 28.63 30.06 28.76 30.16 28.88 29.77 29 29.87 29.13 29.82 29.25 30.01 29.37 26.98 29.49 29.48 29.62 29.92 29.74 29.68 30.48 29.5 30.6 29.07 30.72 28.65 30.84 28.52 30.97 28.62 31.09 28.25 31.21 28.44 31.34 28.35 31.46 28.31 31.58 29.47 31.83 28.27 31.95 28.19 32.07 28 32.2 28.19 32.32 28 32.44 28 32.56 28.25 32.69 28.16 32.93 27.67 33.06 27.68 33.18 27.73 33.3 27.79 33.42 27.7 33.55 27.44 33.79 27.41 33.92 27.39 34.04 27.3 34.16 27.3 34.41 27.64 34.65 29.6 34.78 29.34 34.9 27.67 35.02 27.75 35.39 27.55 35.51 27.55 35.64 27.77 35.76 27.6 35.88 27.51 36 27.39 36.13 27.27 36.25 27.24 36.5 27.15 36.62 26.98 36.86 27.07 36.99 26.95 37.11 26.85 37.23 26.85 37.48 26.98 37.6 26.9 37.72 27 37.85 27.05 37.97 27.02 38.09 27.15 38.22 26.95 38.34 27.21 38.46 27.3 38.58 27.18 38.71 29.1 38.83 28.69 38.95 28.61 39.2 27.37 39.32 27.21 39.44 26.94 39.57 27.1 39.69 27.1 39.81 27 39.94 27.05 40.06 27.1 40.3 26.26 40.43 26.17 40.67 26.27 40.8 26.27 40.92 26.27 41.41 26.27 41.78 25.85 41.9 25.91 42.02 25.88 42.15 25.9 42.27 25.82 42.39 25.5 42.51 25.67 42.64 25.67 42.76 25.67 43.01 25.83 43.13 25.72 43.25 25.85 43.37 25.7 43.5 25.77 43.62 25.98 43.74 25.82 43.99 25.7 44.11 25.59 44.23 25.59 44.36 25.61 44.48 25.9 44.6 25.56 44.73 25.48 44.85 25.43 45.22 25.76 45.34 25.6 45.46 25.63 45.59 25.38 45.71 25.53 45.83 25.38 45.95 25.32 46.08 25.4 46.2 25.52 46.32 25.64 46.45 25.5 46.57 25.64 46.69 25.64 46.81 25.54 46.94 25.49 47.06 25.57 47.18 25.42 47.31 25.61 47.43 25.61 47.55 25.44 47.67 25.51 47.8 25.61 47.92 25.51 48.04 25.51 48.17 25.56 48.29 25.41 48.41 25.27 48.53 25.39 48.66 25.31 48.78 25.51 49.15 25.36 49.76 25.31 49.89 25.4 50.01 25.4 50.13 25.45 50.25 25.31 50.38 25.16 50.5 25.16 50.99 25.12 51.11 25.12 51.73 25.23 51.97 25.23 52.1 25.83 52.22 25.39 52.34 25.18 52.47 25.05 52.59 25 52.71 25.11 53.08 25.34 53.2 25.32 53.45 25.38 53.57 25.56 53.69 25.23 54.06 25.23 54.31 25.04 54.68 25.07 55.17 25.09 55.41 24.96 55.78 25.13 56.64 25.19 57.13 25.11 57.26 25.06 57.38 25.06 57.5 25.52 57.62 25.71 57.75 25.71 57.99 25.59 58.12 25.54 58.24 25.54 58.36 25.6 58.48 25.77 58.61 25.45 58.73 25.45 58.98 25.45 59.1 25.41 59.22 25.33 59.71 25.52 59.84 25.44 59.96 25.63 60.2 25.2 60.45 25.2 60.57 25.26 60.94 25.34 61.56 25.34 62.17 25.1 62.78 27.02 62.91 26.72 63.03 26.25 63.15 25.97 63.28 25.68 63.52 25.8 63.77 25.74 64.26 25.93 64.38 25.89 64.5 25.63 64.63 25.75 64.75 25.65 64.87 25.73 65 25.63 66.47 25.73 66.71 25.67 66.84 25.66 67.08 25.44 67.57 25.42 67.82 25.36 68.07 25.64 68.56 25.47 68.8 25.54 68.93 25.13 69.17 25.03 69.29 25.2 69.42 25.13 69.54 25.13 69.66 25.18 69.79 24.94 70.03 25.09 70.15 25.07 70.4 24.9 70.65 24.98 70.77 25.14 70.89 25.01 71.14 24.98 71.26 25.12 71.87 25.21 72.37 25.07 72.49 25.08 73.47 25.17 73.59 25.23 73.72 25.28 74.09 24.96 74.21 24.94 74.33 24.92 74.58 25.1 74.82 25.05 75.07 25.03 76.17 24.79"/>
      </g>
    </g>
  </g>
  <g class="guide ylabels" font-size="2.82" font-family="'PT Sans Caption','Helvetica Neue','Helvetica',sans-serif" fill="#6C606B" id="fig-81bb3df5626346cbb1433e971809e396-element-19">
    <text x="18.63" y="45.71" text-anchor="end" dy="0.35em">0</text>
    <text x="18.63" y="30.16" text-anchor="end" dy="0.35em">50</text>
    <text x="18.63" y="14.61" text-anchor="end" dy="0.35em">100</text>
  </g>
  <g font-size="3.88" font-family="'PT Sans','Helvetica Neue','Helvetica',sans-serif" fill="#564A55" stroke="#000000" stroke-opacity="0.000" id="fig-81bb3df5626346cbb1433e971809e396-element-20">
    <text x="8.81" y="28.16" text-anchor="middle" dy="0.35em" transform="rotate(-90, 8.81, 30.16)">Percentage of Packages</text>
  </g>
  <g font-size="3.88" font-family="'PT Sans','Helvetica Neue','Helvetica',sans-serif" fill="#564A55" stroke="#000000" stroke-opacity="0.000" id="fig-81bb3df5626346cbb1433e971809e396-element-21">
    <text x="58.12" y="10.61" text-anchor="middle">Julia v0.3 (relative)</text>
  </g>
</g>
<defs>
<clipPath id="fig-81bb3df5626346cbb1433e971809e396-element-5">
  <path d="M19.63,12.61 L 96.6 12.61 96.6 47.71 19.63 47.71" />
</clipPath
></defs>
</svg>
