<?xml version="1.0" encoding="UTF-8"?>
<svg xmlns="http://www.w3.org/2000/svg"
     xmlns:xlink="http://www.w3.org/1999/xlink"
     xmlns:gadfly="http://www.gadflyjl.org/ns"
     version="1.2"
     width="101.6mm" height="76.2mm" viewBox="0 0 101.6 76.2"
     stroke="none"
     fill="#000000"
     stroke-width="0.3"
     font-size="3.88"
>
<g class="plotroot xscalable yscalable" id="img-c5f73a8a-1">
  <g font-size="3.88" font-family="'PT Sans','Helvetica Neue','Helvetica',sans-serif" fill="#564A55" stroke="#000000" stroke-opacity="0.000" id="img-c5f73a8a-2">
    <text x="58.12" y="64.59" text-anchor="middle" dy="0.6em">Date</text>
  </g>
  <g class="guide xlabels" font-size="2.82" font-family="'PT Sans Caption','Helvetica Neue','Helvetica',sans-serif" fill="#6C606B" id="img-c5f73a8a-3">
    <text x="21.87" y="48.71" text-anchor="end" dy="0.35em" transform="rotate(-90, 21.87, 48.71)">Apr</text>
    <text x="25.49" y="48.71" text-anchor="end" dy="0.35em" transform="rotate(-90, 25.49, 48.71)">May</text>
    <text x="29.23" y="48.71" text-anchor="end" dy="0.35em" transform="rotate(-90, 29.23, 48.71)">Jun</text>
    <text x="32.85" y="48.71" text-anchor="end" dy="0.35em" transform="rotate(-90, 32.85, 48.71)">Jul</text>
    <text x="36.59" y="48.71" text-anchor="end" dy="0.35em" transform="rotate(-90, 36.59, 48.71)">Aug</text>
    <text x="40.33" y="48.71" text-anchor="end" dy="0.35em" transform="rotate(-90, 40.33, 48.71)">Sep</text>
    <text x="43.94" y="48.71" text-anchor="end" dy="0.35em" transform="rotate(-90, 43.94, 48.71)">Oct</text>
    <text x="47.68" y="48.71" text-anchor="end" dy="0.35em" transform="rotate(-90, 47.68, 48.71)">Nov</text>
    <text x="51.3" y="48.71" text-anchor="end" dy="0.35em" transform="rotate(-90, 51.3, 48.71)">Dec</text>
    <text x="55.04" y="48.71" text-anchor="end" dy="0.35em" transform="rotate(-90, 55.04, 48.71)">Jan 2015</text>
    <text x="58.78" y="48.71" text-anchor="end" dy="0.35em" transform="rotate(-90, 58.78, 48.71)">Feb</text>
    <text x="62.16" y="48.71" text-anchor="end" dy="0.35em" transform="rotate(-90, 62.16, 48.71)">Mar</text>
    <text x="65.9" y="48.71" text-anchor="end" dy="0.35em" transform="rotate(-90, 65.9, 48.71)">Apr</text>
    <text x="69.51" y="48.71" text-anchor="end" dy="0.35em" transform="rotate(-90, 69.51, 48.71)">May</text>
    <text x="73.25" y="48.71" text-anchor="end" dy="0.35em" transform="rotate(-90, 73.25, 48.71)">Jun</text>
    <text x="76.87" y="48.71" text-anchor="end" dy="0.35em" transform="rotate(-90, 76.87, 48.71)">Jul</text>
    <text x="80.61" y="48.71" text-anchor="end" dy="0.35em" transform="rotate(-90, 80.61, 48.71)">Aug</text>
    <text x="84.35" y="48.71" text-anchor="end" dy="0.35em" transform="rotate(-90, 84.35, 48.71)">Sep</text>
    <text x="87.97" y="48.71" text-anchor="end" dy="0.35em" transform="rotate(-90, 87.97, 48.71)">Oct</text>
    <text x="91.71" y="48.71" text-anchor="end" dy="0.35em" transform="rotate(-90, 91.71, 48.71)">Nov</text>
  </g>
<g clip-path="url(#img-c5f73a8a-4)">
  <g id="img-c5f73a8a-5">
    <g pointer-events="visible" opacity="1" fill="#000000" fill-opacity="0.000" stroke="#000000" stroke-opacity="0.000" class="guide background" id="img-c5f73a8a-6">
      <rect x="19.63" y="12.61" width="76.97" height="35.1"/>
    </g>
    <g class="guide ygridlines xfixed" stroke-dasharray="0.5,0.5" stroke-width="0.2" stroke="#D0D0E0" id="img-c5f73a8a-7">
      <path fill="none" d="M19.63,45.71 L 96.6 45.71"/>
      <path fill="none" d="M19.63,30.16 L 96.6 30.16"/>
      <path fill="none" d="M19.63,14.61 L 96.6 14.61"/>
    </g>
    <g class="guide xgridlines yfixed" stroke-dasharray="0.5,0.5" stroke-width="0.2" stroke="#D0D0E0" id="img-c5f73a8a-8">
      <path fill="none" d="M21.87,12.61 L 21.87 47.71"/>
      <path fill="none" d="M25.49,12.61 L 25.49 47.71"/>
      <path fill="none" d="M29.23,12.61 L 29.23 47.71"/>
      <path fill="none" d="M32.85,12.61 L 32.85 47.71"/>
      <path fill="none" d="M36.59,12.61 L 36.59 47.71"/>
      <path fill="none" d="M40.33,12.61 L 40.33 47.71"/>
      <path fill="none" d="M43.94,12.61 L 43.94 47.71"/>
      <path fill="none" d="M47.68,12.61 L 47.68 47.71"/>
      <path fill="none" d="M51.3,12.61 L 51.3 47.71"/>
      <path fill="none" d="M55.04,12.61 L 55.04 47.71"/>
      <path fill="none" d="M58.78,12.61 L 58.78 47.71"/>
      <path fill="none" d="M62.16,12.61 L 62.16 47.71"/>
      <path fill="none" d="M65.9,12.61 L 65.9 47.71"/>
      <path fill="none" d="M69.51,12.61 L 69.51 47.71"/>
      <path fill="none" d="M73.25,12.61 L 73.25 47.71"/>
      <path fill="none" d="M76.87,12.61 L 76.87 47.71"/>
      <path fill="none" d="M80.61,12.61 L 80.61 47.71"/>
      <path fill="none" d="M84.35,12.61 L 84.35 47.71"/>
      <path fill="none" d="M87.97,12.61 L 87.97 47.71"/>
      <path fill="none" d="M91.71,12.61 L 91.71 47.71"/>
    </g>
    <g class="plotpanel" id="img-c5f73a8a-9">
      <g stroke-width="0.3" fill="#000000" fill-opacity="0.000" class="geometry color_newnot_possible" stroke-dasharray="none" stroke="#808080" id="img-c5f73a8a-10">
        <path fill="none" d="M75.54,42.94 L 75.66 42.94 75.79 42.95 75.91 42.95 76.03 42.96 76.15 42.96 76.27 42.96 76.39 42.96 76.75 42.96 76.99 42.97 77.23 43.02 77.35 42.98 77.47 42.99 77.59 43 77.71 43.01 77.84 43.01 79.89 43.02 80.85 43.04 81.94 43.06 83.99 43.12 84.35 43.12 84.95 42.99 85.55 42.85 87.48 42.89 87.97 42.92 88.57 42.93 89.05 42.94 89.53 42.94 89.9 42.91 91.34 42.91 92.79 42.87 93.27 42.86 93.51 42.82 94.6 42.82"/>
      </g>
      <g stroke-width="0.3" fill="#000000" fill-opacity="0.000" class="geometry color_newno_tests" stroke-dasharray="none" stroke="#0000FF" id="img-c5f73a8a-11">
        <path fill="none" d="M75.54,40.12 L 75.66 40.12 75.79 40.13 75.91 40.13 76.03 40.15 76.15 40.15 76.27 40.15 76.39 40.16 76.75 40.16 76.99 40.18 77.23 40.17 77.35 40.19 77.47 40.28 77.59 40.3 77.71 40.3 77.84 40.36 79.89 40.43 80.85 40.47 81.94 40.51 83.99 40.62 84.35 40.69 84.95 40.69 85.55 40.76 87.48 40.97 87.97 41.15 88.57 41.27 89.05 41.27 89.53 41.29 89.9 41.34 91.34 41.4 92.79 41.49 93.27 41.48 93.51 41.49 94.6 41.49"/>
      </g>
      <g stroke-width="0.3" fill="#000000" fill-opacity="0.000" class="geometry color_newtests_fail" stroke-dasharray="none" stroke="#FF0000" id="img-c5f73a8a-12">
        <path fill="none" d="M75.54,42.78 L 75.66 42.62 75.79 42.58 75.91 42.53 76.03 42.44 76.15 42.59 76.27 42.39 76.39 42.55 76.75 42.44 76.99 42.4 77.23 42.35 77.35 42.51 77.47 40.89 77.59 42.44 77.71 42.14 77.84 42.19 79.89 42.47 80.85 42.54 81.94 42.18 83.99 41.44 84.35 41.69 84.95 41.98 85.55 42.23 87.48 42.24 87.97 42.03 88.57 42.24 89.05 42.29 89.53 42.16 89.9 42.17 91.34 42.08 92.79 42 93.27 42.31 93.51 42.32 94.6 42.37"/>
      </g>
      <g stroke-width="0.3" fill="#000000" fill-opacity="0.000" class="geometry color_newtests_pass" stroke-dasharray="none" stroke="#008000" id="img-c5f73a8a-13">
        <path fill="none" d="M75.54,25.9 L 75.66 26.06 75.79 26.07 75.91 26.12 76.03 26.19 76.15 26.03 76.27 26.24 76.39 26.07 76.75 26.17 76.99 26.18 77.23 26.2 77.35 26.06 77.47 27.57 77.59 26 77.71 26.29 77.84 26.18 79.89 25.82 80.85 25.69 81.94 25.99 83.99 26.56 84.35 26.24 84.95 26.08 85.55 25.9 87.48 25.63 87.97 25.64 88.57 25.3 89.05 25.24 89.53 25.35 89.9 25.31 91.34 25.34 92.79 25.37 93.27 25.08 93.51 25.1 94.6 25.05"/>
      </g>
      <g stroke-width="0.3" fill="#000000" fill-opacity="0.000" class="geometry color_newnot_possible" stroke-dasharray="none" stroke="#808080" id="img-c5f73a8a-14">
        <path fill="none" d="M21.63,42.35 L 21.75 42.35 21.87 42.36 21.99 42.36 22.11 42.36 22.23 42.36 22.36 42.36 22.48 42.37 22.72 42.37 22.84 42.38 23.08 42.39 23.32 42.41 23.44 42.41 23.68 42.41 23.8 42.42 24.65 42.47 25.01 42.47 25.25 42.47 26.09 42.58 26.21 42.6 26.34 42.61 26.46 42.61 26.58 42.61 26.7 42.51 26.82 42.51 26.94 42.51 27.06 42.51 27.18 42.31 27.3 42.31 27.42 42.34 27.66 42.25 27.78 42.94 27.9 42.94 28.02 42.96 28.14 42.96 28.27 42.96 28.39 42.97 28.51 42.97 28.63 42.97 28.75 42.97 28.87 42.97 28.99 42.98 29.11 42.98 29.23 42.59 29.35 42.99 29.47 43 29.59 43 30.32 42.58 30.44 42.49 30.56 42.5 30.68 42.51 30.8 42.53 30.92 42.44 31.04 42.27 31.16 42.27 31.28 42.28 31.4 42.29 31.64 42.29 31.76 42.31 31.88 42.31 32 42.31 32.12 42.31 32.25 42.31 32.37 42.34 32.49 42.34 32.73 42.35 32.85 42.37 32.97 42.38 33.09 42.39 33.21 42.39 33.33 42.41 33.57 42.42 33.69 42.45 33.81 42.45 33.93 42.45 34.17 42.49 34.42 42.52 34.54 42.52 34.66 42.53 34.78 42.53 35.14 42.54 35.26 42.54 35.38 42.55 35.5 42.55 35.62 42.55 35.74 42.56 35.86 42.48 35.98 42.49 36.23 42.49 36.35 42.49 36.59 42.49 36.71 42.5 36.83 42.52 36.95 42.52 37.19 42.53 37.31 42.53 37.43 42.55 37.55 42.56 37.67 42.57 37.79 42.57 37.91 42.58 38.03 42.6 38.16 42.52 38.28 42.44 38.4 42.45 38.52 42.45 38.64 42.45 38.88 42.48 39 42.48 39.12 42.49 39.24 42.49 39.36 42.49 39.48 42.51 39.6 42.52 39.72 42.53 39.96 42.43 40.08 42.37 40.33 42.39 40.45 42.39 40.57 42.31 41.05 42.31 41.41 42.36 41.53 42.37 41.65 42.38 41.77 42.39 41.89 42.39 42.01 42.39 42.14 42.46 42.26 42.46 42.38 42.46 42.62 42.38 42.74 42.39 42.86 42.4 42.98 42.4 43.1 42.4 43.22 42.41 43.34 42.33 43.58 42.32 43.7 42.33 43.82 42.33 43.94 42.35 44.06 42.29 44.19 42.29 44.31 42.29 44.43 42.3 44.79 42.32 44.91 42.24 45.03 42.26 45.15 42.27 45.27 42.27 45.39 42.27 45.51 42.29 45.63 42.29 45.75 42.29 45.87 42.3 45.99 42.23 46.12 42.23 46.24 42.23 46.36 42.24 46.48 42.25 46.6 42.25 46.72 42.25 46.84 42.26 46.96 42.26 47.08 42.27 47.2 42.27 47.32 42.29 47.44 42.29 47.56 42.29 47.68 42.3 47.8 42.3 47.92 42.3 48.04 42.31 48.17 42.31 48.29 42.32 48.65 42.32 49.25 42.36 49.37 42.37 49.49 42.37 49.61 42.38 49.73 42.38 49.85 42.4 49.97 42.4 50.46 42.44 50.58 42.44 51.18 42.45 51.42 42.45 51.54 42.52 51.66 42.53 51.78 42.53 51.9 42.53 52.03 42.54 52.15 42.55 52.51 42.56 52.63 42.57 52.87 42.59 52.99 42.6 53.11 42.6 53.47 42.6 53.71 42.61 54.08 42.63 54.56 42.64 54.8 42.66 55.16 42.68 56.01 42.72 56.49 42.77 56.61 42.65 56.73 42.65 56.85 42.62 56.97 42.62 57.09 42.62 57.33 42.62 57.45 42.63 57.57 42.63 57.69 42.65 57.81 42.65 57.93 42.65 58.06 42.65 58.3 42.61 58.42 42.62 58.54 42.63 59.02 42.68 59.14 42.67 59.26 42.67 59.5 42.68 59.74 42.7 59.86 42.7 60.23 42.71 60.83 42.71 61.43 42.75 62.04 42.77 62.16 42.77 62.28 42.77 62.4 42.37 62.52 42.43 62.76 42.37 63 42.37 63.48 42.38 63.6 42.4 63.72 42.4 63.84 42.4 63.97 42.41 64.09 42.47 64.21 42.42 65.65 42.37 65.9 42.31 66.02 42.33 66.26 42.33 66.74 42.34 66.98 42.34 67.22 42.35 67.7 42.35 67.95 42.37 68.07 42.37 68.31 42.4 68.43 42.4 68.55 42.41 68.67 42.43 68.79 42.43 68.91 42.43 69.15 42.44 69.27 42.44 69.51 42.44 69.75 42.46 69.88 42.47 70 42.48 70.24 42.49 70.36 42.5 70.96 42.52 71.44 42.58 71.56 42.54 72.53 42.56 72.65 42.45 72.77 42.45 73.13 42.47 73.25 42.48 73.37 42.54 73.61 42.55 73.86 42.55 74.1 42.55 75.18 42.58"/>
      </g>
      <g stroke-width="0.3" fill="#000000" fill-opacity="0.000" class="geometry color_newtests_fail" stroke-dasharray="none" stroke="#FF0000" id="img-c5f73a8a-15">
        <path fill="none" d="M21.63,41.51 L 21.75 41.51 21.87 39.95 21.99 41.62 22.11 41.52 22.23 39.84 22.36 39.84 22.48 39.86 22.72 41.53 22.84 41.55 23.08 41.67 23.32 41.69 23.44 41.69 23.68 41.8 23.8 41.81 24.65 41.96 25.01 41.96 25.25 41.96 26.09 41.87 26.21 42 26.34 41.81 26.46 41.81 26.58 41.91 26.7 42.01 26.82 41.91 26.94 41.91 27.06 41.91 27.18 42.01 27.3 42.01 27.42 41.85 27.66 41.96 27.78 41.76 27.9 41.96 28.02 42.18 28.14 42.18 28.27 42.27 28.39 42.29 28.51 42.19 28.63 42.29 28.75 42.29 28.87 42.29 28.99 42.39 29.11 42.39 29.23 42.81 29.35 42.79 29.47 42.8 29.59 42.81 30.32 43.43 30.44 43.53 30.56 43.54 30.68 43.55 30.8 43.47 30.92 43.56 31.04 43.57 31.16 43.57 31.28 43.49 31.4 41.74 31.64 43.49 31.76 43.6 31.88 43.6 32 43.6 32.12 43.6 32.25 43.6 32.37 43.62 32.49 43.62 32.73 43.62 32.85 43.64 32.97 43.55 33.09 43.56 33.21 43.56 33.33 43.57 33.57 43.58 33.69 43.42 33.81 43.42 33.93 43.42 34.17 43.28 34.42 41.57 34.54 41.49 34.66 43.3 34.78 43.22 35.14 43.4 35.26 43.4 35.38 43.4 35.5 43.4 35.62 43.49 35.74 43.58 35.86 43.58 35.98 43.59 36.23 43.59 36.35 43.67 36.59 43.59 36.71 43.68 36.83 43.7 36.95 43.7 37.19 43.7 37.31 43.7 37.43 43.55 37.55 43.64 37.67 43.64 37.79 43.56 37.91 43.57 38.03 43.42 38.16 43.5 38.28 43.67 38.4 41.39 38.52 41.88 38.64 41.88 38.88 43.77 39 43.85 39.12 43.77 39.24 43.86 39.36 43.77 39.48 43.79 39.6 43.95 39.72 43.72 39.96 43.99 40.08 44.08 40.33 43.93 40.45 43.93 40.57 44.01 41.05 44.01 41.41 44.43 41.53 44.44 41.65 44.44 41.77 44.52 41.89 44.6 42.01 44.6 42.14 44.63 42.26 44.63 42.38 44.63 42.62 44.47 42.74 44.47 42.86 44.4 42.98 44.48 43.1 44.4 43.22 44.25 43.34 44.33 43.58 44.4 43.7 44.48 43.82 44.48 43.94 44.41 44.06 44.4 44.19 44.42 44.31 44.49 44.43 44.5 44.79 44.5 44.91 44.5 45.03 44.51 45.15 44.59 45.27 44.59 45.39 44.59 45.51 44.59 45.63 44.59 45.75 44.45 45.87 44.38 45.99 44.38 46.12 44.23 46.24 44.38 46.36 44.38 46.48 44.39 46.6 44.39 46.72 44.39 46.84 44.31 46.96 44.39 47.08 44.32 47.2 44.39 47.32 44.32 47.44 44.4 47.56 44.4 47.68 44.4 47.8 44.48 47.92 44.48 48.04 44.55 48.17 44.55 48.29 44.34 48.65 44.63 49.25 44.57 49.37 44.57 49.49 44.57 49.61 44.65 49.73 44.72 49.85 44.58 49.97 44.58 50.46 44.53 50.58 44.6 51.18 44.6 51.42 44.6 51.54 44.18 51.66 44.4 51.78 44.6 51.9 44.6 52.03 44.61 52.15 44.54 52.51 44.48 52.63 44.48 52.87 44.42 52.99 44.49 53.11 44.49 53.47 44.49 53.71 44.56 54.08 44.57 54.56 44.57 54.8 44.58 55.16 44.59 56.01 44.54 56.49 44.43 56.61 44.56 56.73 44.56 56.85 44.32 56.97 44.32 57.09 44.38 57.33 44.38 57.45 44.33 57.57 44.33 57.69 44.27 57.81 44.34 57.93 44.34 58.06 44.34 58.3 44.35 58.42 44.35 58.54 44.35 59.02 44.19 59.14 44.19 59.26 44.19 59.5 44.14 59.74 44.08 59.86 44.08 60.23 44.09 60.83 44.09 61.43 44.17 62.04 42.48 62.16 43.06 62.28 43.47 62.4 44.19 62.52 44.19 62.76 44.19 63 44.19 63.48 44.19 63.6 44.14 63.72 44.14 63.84 44.14 63.97 44.15 64.09 44.14 64.21 44.09 65.65 44.04 65.9 44.1 66.02 44.22 66.26 44.22 66.74 44.11 66.98 44.22 67.22 44.17 67.7 44.17 67.95 44.18 68.07 44.13 68.31 44.03 68.43 44.03 68.55 44.03 68.67 44.1 68.79 43.98 68.91 43.99 69.15 43.99 69.27 44.05 69.51 43.99 69.75 44 69.88 43.9 70 43.9 70.24 43.96 70.36 43.91 70.96 43.87 71.44 43.77 71.56 43.77 72.53 43.57 72.65 43.57 72.77 43.57 73.13 43.59 73.25 43.59 73.37 43.65 73.61 43.71 73.86 43.65 74.1 43.66 75.18 43.78"/>
      </g>
      <g stroke-width="0.3" fill="#000000" fill-opacity="0.000" class="geometry color_newno_tests" stroke-dasharray="none" stroke="#0000FF" id="img-c5f73a8a-16">
        <path fill="none" d="M21.63,40.04 L 21.75 40.04 21.87 40.05 21.99 40.05 22.11 40.05 22.23 40.16 22.36 40.16 22.48 40.07 22.72 39.97 22.84 39.99 23.08 40.01 23.32 39.84 23.44 39.84 23.68 39.84 23.8 39.86 24.65 39.93 25.01 39.93 25.25 39.93 26.09 39.85 26.21 39.89 26.34 39.91 26.46 39.91 26.58 39.91 26.7 39.91 26.82 39.91 26.94 39.91 27.06 39.91 27.18 40.11 27.3 40.11 27.42 40.16 27.66 40.28 27.78 40.28 27.9 40.28 28.02 40.21 28.14 40.21 28.27 40.41 28.39 40.53 28.51 40.53 28.63 40.53 28.75 40.53 28.87 40.53 28.99 40.54 29.11 40.54 29.23 39.36 29.35 40.27 29.47 40.28 29.59 40.3 30.32 40.4 30.44 40.42 30.56 40.43 30.68 40.54 30.8 40.57 30.92 40.57 31.04 40.6 31.16 40.7 31.28 40.71 31.4 41 31.64 40.91 31.76 40.75 31.88 40.75 32 40.75 32.12 40.75 32.25 40.75 32.37 40.8 32.49 40.8 32.73 40.9 32.85 40.84 32.97 40.86 33.09 40.87 33.21 41.05 33.33 41.08 33.57 41.09 33.69 41.13 33.81 41.13 33.93 41.13 34.17 41.02 34.42 41.32 34.54 41.23 34.66 41.16 34.78 41.16 35.14 41.17 35.26 41.17 35.38 41.18 35.5 41.18 35.62 41.27 35.74 41.28 35.86 41.29 35.98 41.39 36.23 41.39 36.35 41.39 36.59 41.39 36.71 41.4 36.83 41.43 36.95 41.43 37.19 41.28 37.31 41.36 37.43 41.38 37.55 41.31 37.67 41.33 37.79 41.34 37.91 41.35 38.03 41.37 38.16 41.37 38.28 41.38 38.4 41.88 38.52 41.88 38.64 41.88 38.88 41.35 39 41.35 39.12 41.44 39.24 41.44 39.36 41.52 39.48 41.47 39.6 41.48 39.72 41.57 39.96 41.93 40.08 42.05 40.33 42.06 40.45 42.06 40.57 42.06 41.05 42.06 41.41 42.04 41.53 42.05 41.65 41.98 41.77 42 41.89 42 42.01 42.08 42.14 42.15 42.26 42.23 42.38 42.23 42.62 42.23 42.74 42.16 42.86 42.17 42.98 42.17 43.1 42.17 43.22 42.25 43.34 42.25 43.58 42.17 43.7 42.18 43.82 42.18 43.94 42.19 44.06 42.07 44.19 42.21 44.31 42.21 44.43 42.23 44.79 42.32 44.91 42.32 45.03 42.26 45.15 42.27 45.27 42.27 45.39 42.27 45.51 42.29 45.63 42.29 45.75 42.29 45.87 42.3 45.99 42.3 46.12 42.38 46.24 42.3 46.36 42.31 46.48 42.33 46.6 42.33 46.72 42.33 46.84 42.41 46.96 42.33 47.08 42.42 47.2 42.34 47.32 42.36 47.44 42.37 47.56 42.37 47.68 42.37 47.8 42.37 47.92 42.37 48.04 42.38 48.17 42.38 48.29 42.39 48.65 42.39 49.25 42.43 49.37 42.44 49.49 42.44 49.61 42.45 49.73 42.45 49.85 42.47 49.97 42.47 50.46 42.58 50.58 42.51 51.18 42.52 51.42 42.52 51.54 42.52 51.66 42.6 51.78 42.53 51.9 42.53 52.03 42.54 52.15 42.62 52.51 42.56 52.63 42.57 52.87 42.59 52.99 42.53 53.11 42.53 53.47 42.6 53.71 42.54 54.08 42.56 54.56 42.64 54.8 42.59 55.16 42.62 56.01 42.66 56.49 42.7 56.61 42.71 56.73 42.71 56.85 42.81 56.97 42.74 57.09 42.74 57.33 42.74 57.45 42.82 57.57 42.82 57.69 42.84 57.81 42.78 57.93 42.78 58.06 42.78 58.3 42.8 58.42 42.81 58.54 42.81 59.02 42.86 59.14 42.85 59.26 42.85 59.5 42.86 59.74 42.88 59.86 42.88 60.23 42.89 60.83 42.89 61.43 42.92 62.04 43.12 62.16 43.06 62.28 43.06 62.4 43.07 62.52 43.01 62.76 43.01 63 43.01 63.48 43.02 63.6 43.03 63.72 43.1 63.84 43.1 63.97 43.11 64.09 43.1 64.21 43.11 65.65 43.17 65.9 43.17 66.02 43.19 66.26 43.25 66.74 43.25 66.98 43.25 67.22 43.26 67.7 43.26 67.95 43.27 68.07 43.28 68.31 43.3 68.43 43.3 68.55 43.3 68.67 43.32 68.79 43.32 68.91 43.32 69.15 43.32 69.27 43.33 69.51 43.38 69.75 43.34 69.88 43.35 70 43.35 70.24 43.42 70.36 43.37 70.96 43.44 71.44 43.44 71.56 43.45 72.53 43.47 72.65 43.47 72.77 43.47 73.13 43.53 73.25 43.54 73.37 43.49 73.61 43.49 73.86 43.49 74.1 43.55 75.18 43.52"/>
      </g>
      <g stroke-width="0.3" fill="#000000" fill-opacity="0.000" class="geometry color_oldfull_fail" stroke-dasharray="none" stroke="#FFA500" id="img-c5f73a8a-17">
        <path fill="none" d="M21.63,41.4 L 21.75 41.4 21.87 42.15 21.99 41 22.11 41.1 22.23 41.94 22.36 41.73 22.48 41.95 22.72 40.49 22.84 40.51 23.08 40.42 23.32 40.87 23.44 40.66 23.68 40.97 23.8 40.88 24.65 41.15 25.01 41.15 25.25 41.15 26.09 41.06 26.21 40.89 26.34 39.91 26.46 39.91 26.58 40.41 26.7 40.41 26.82 40.71 26.94 40.71 27.06 40.71 27.18 41.11 27.3 41.11 27.42 41.65 27.66 41.66 27.78 41.56 27.9 41.36 28.02 41.49 28.14 41.49 28.27 41.69 28.39 41.7 28.51 41.7 28.63 41.5 28.75 41.89 28.87 41.8 28.99 41.71 29.11 41.52 29.23 45.71 29.35 41.92 29.47 41.45 29.59 41.65 30.32 41.54 30.44 41.93 30.56 42.32 30.68 42.33 30.8 42.25 30.92 42.63 31.04 42.55 31.16 42.55 31.28 42.65 31.4 42.94 31.64 42.48 31.76 42.59 31.88 42.77 32 42.59 32.12 42.77 32.25 42.77 32.37 42.44 32.49 42.53 32.73 42.9 32.85 42.91 32.97 42.92 33.09 42.84 33.21 42.75 33.33 42.95 33.57 42.95 33.69 43.07 33.81 43.15 33.93 43.15 34.17 43.02 34.42 42.44 34.54 42.87 34.66 42.79 34.78 42.79 35.14 42.8 35.26 42.8 35.38 42.55 35.5 42.72 35.62 42.63 35.74 42.64 35.86 42.82 35.98 42.74 36.23 42.83 36.35 42.91 36.59 42.91 36.71 42.92 36.83 42.94 36.95 42.94 37.19 42.95 37.31 42.95 37.43 42.96 37.55 42.89 37.67 42.9 37.79 42.82 37.91 42.99 38.03 42.84 38.16 42.76 38.28 42.77 38.4 42.61 38.52 42.53 38.64 42.61 38.88 42.48 39 42.56 39.12 42.81 39.24 42.57 39.36 42.57 39.48 42.67 39.6 42.44 39.72 42.53 39.96 42.84 40.08 42.78 40.33 42.79 40.45 42.79 40.57 42.79 41.05 42.79 41.41 42.76 41.53 42.69 41.65 42.77 41.77 42.63 41.89 42.63 42.01 42.87 42.14 42.54 42.26 42.46 42.38 42.46 42.62 42.54 42.74 42.7 42.86 42.63 42.98 42.71 43.1 42.71 43.22 42.56 43.34 42.71 43.58 42.86 43.7 42.87 43.82 42.87 43.94 42.88 44.06 42.8 44.19 42.97 44.31 42.97 44.43 42.98 44.79 42.55 44.91 42.77 45.03 42.79 45.15 42.94 45.27 42.79 45.39 42.94 45.51 42.96 45.63 42.88 45.75 42.89 45.87 42.82 45.99 43.04 46.12 42.97 46.24 42.89 46.36 42.98 46.48 42.99 46.6 42.91 46.72 43.06 46.84 42.85 46.96 42.85 47.08 43 47.2 42.93 47.32 42.87 47.44 42.87 47.56 42.87 47.68 42.81 47.8 42.88 47.92 43.03 48.04 42.82 48.17 42.89 48.29 42.89 48.65 42.75 49.25 42.78 49.37 42.66 49.49 42.66 49.61 42.52 49.73 42.59 49.85 42.82 49.97 42.82 50.46 42.79 50.58 42.79 51.18 42.65 51.42 42.65 51.54 42.38 51.66 42.53 51.78 42.6 51.9 42.74 52.03 42.75 52.15 42.62 52.51 42.5 52.63 42.5 52.87 42.46 52.99 42.26 53.11 42.6 53.47 42.53 53.71 42.68 54.08 42.63 54.56 42.51 54.8 42.66 55.16 42.42 56.01 42.33 56.49 42.45 56.61 42.46 56.73 42.46 56.85 42.18 56.97 42.05 57.09 41.99 57.33 42.11 57.45 42.13 57.57 42.13 57.69 42.09 57.81 41.91 57.93 42.22 58.06 42.22 58.3 42.24 58.42 42.25 58.54 42.32 59.02 42.19 59.14 42.3 59.26 42.12 59.5 42.56 59.74 42.58 59.86 42.52 60.23 42.41 60.83 42.41 61.43 42.51 62.04 42.06 62.16 41.83 62.28 41.89 62.4 41.84 62.52 42.14 62.76 42.08 63 42.14 63.48 41.92 63.6 41.99 63.72 42.17 63.84 42.05 63.97 42.12 64.09 42 64.21 42.19 65.65 42.14 65.9 42.2 66.02 42.04 66.26 42.21 66.74 42.34 66.98 42.28 67.22 42.01 67.7 42.18 67.95 42.08 68.07 42.54 68.31 42.68 68.43 42.51 68.55 42.58 68.67 42.48 68.79 42.54 68.91 42.77 69.15 42.6 69.27 42.55 69.51 42.72 69.75 42.68 69.88 42.58 70 42.7 70.24 42.6 70.36 42.55 70.96 42.41 71.44 42.58 71.56 42.59 72.53 42.67 72.65 42.72 72.77 42.67 73.13 42.9 73.25 42.9 73.37 42.85 73.61 42.6 73.86 42.7 74.1 42.66 75.18 42.79"/>
      </g>
      <g stroke-width="0.3" fill="#000000" fill-opacity="0.000" class="geometry color_newtests_pass" stroke-dasharray="none" stroke="#008000" id="img-c5f73a8a-18">
        <path fill="none" d="M21.63,32.16 L 21.75 32.16 21.87 32.93 21.99 32.41 22.11 32.41 22.23 33.14 22.36 33.35 22.48 33.19 22.72 33.08 22.84 33.02 23.08 32.96 23.32 32.63 23.44 32.84 23.68 32.43 23.8 32.47 24.65 31.93 25.01 31.93 25.25 31.93 26.09 32.08 26.21 32.07 26.34 33.21 26.46 33.21 26.58 32.61 26.7 32.61 26.82 32.41 26.94 32.41 27.06 32.41 27.18 31.91 27.3 31.91 27.42 31.45 27.66 31.3 27.78 30.9 27.9 30.9 28.02 30.6 28.14 30.6 28.27 30.11 28.39 29.96 28.51 30.06 28.63 30.16 28.75 29.77 28.87 29.87 28.99 29.82 29.11 30.01 29.23 26.98 29.35 29.48 29.47 29.92 29.59 29.68 30.32 29.5 30.44 29.07 30.56 28.65 30.68 28.52 30.8 28.62 30.92 28.25 31.04 28.44 31.16 28.35 31.28 28.31 31.4 29.47 31.64 28.27 31.76 28.19 31.88 28 32 28.19 32.12 28 32.25 28 32.37 28.25 32.49 28.16 32.73 27.67 32.85 27.68 32.97 27.73 33.09 27.79 33.21 27.7 33.33 27.44 33.57 27.41 33.69 27.39 33.81 27.3 33.93 27.3 34.17 27.64 34.42 29.6 34.54 29.34 34.66 27.67 34.78 27.75 35.14 27.55 35.26 27.55 35.38 27.77 35.5 27.6 35.62 27.51 35.74 27.39 35.86 27.27 35.98 27.24 36.23 27.15 36.35 26.98 36.59 27.07 36.71 26.95 36.83 26.85 36.95 26.85 37.19 26.98 37.31 26.9 37.43 27 37.55 27.05 37.67 27.02 37.79 27.15 37.91 26.95 38.03 27.21 38.16 27.3 38.28 27.18 38.4 29.1 38.52 28.69 38.64 28.61 38.88 27.37 39 27.21 39.12 26.94 39.24 27.1 39.36 27.1 39.48 27 39.6 27.05 39.72 27.1 39.96 26.26 40.08 26.17 40.33 26.27 40.45 26.27 40.57 26.27 41.05 26.27 41.41 25.85 41.53 25.91 41.65 25.88 41.77 25.9 41.89 25.82 42.01 25.5 42.14 25.67 42.26 25.67 42.38 25.67 42.62 25.83 42.74 25.72 42.86 25.85 42.98 25.7 43.1 25.77 43.22 25.98 43.34 25.82 43.58 25.7 43.7 25.59 43.82 25.59 43.94 25.61 44.06 25.9 44.19 25.56 44.31 25.48 44.43 25.43 44.79 25.76 44.91 25.6 45.03 25.63 45.15 25.38 45.27 25.53 45.39 25.38 45.51 25.32 45.63 25.4 45.75 25.52 45.87 25.64 45.99 25.5 46.12 25.64 46.24 25.64 46.36 25.54 46.48 25.49 46.6 25.57 46.72 25.42 46.84 25.61 46.96 25.61 47.08 25.44 47.2 25.51 47.32 25.61 47.44 25.51 47.56 25.51 47.68 25.56 47.8 25.41 47.92 25.27 48.04 25.39 48.17 25.31 48.29 25.51 48.65 25.36 49.25 25.31 49.37 25.4 49.49 25.4 49.61 25.45 49.73 25.31 49.85 25.16 49.97 25.16 50.46 25.12 50.58 25.12 51.18 25.23 51.42 25.23 51.54 25.83 51.66 25.39 51.78 25.18 51.9 25.05 52.03 25 52.15 25.11 52.51 25.34 52.63 25.32 52.87 25.38 52.99 25.56 53.11 25.23 53.47 25.23 53.71 25.04 54.08 25.07 54.56 25.09 54.8 24.96 55.16 25.13 56.01 25.19 56.49 25.11 56.61 25.06 56.73 25.06 56.85 25.52 56.97 25.71 57.09 25.71 57.33 25.59 57.45 25.54 57.57 25.54 57.69 25.6 57.81 25.77 57.93 25.45 58.06 25.45 58.3 25.45 58.42 25.41 58.54 25.33 59.02 25.52 59.14 25.44 59.26 25.63 59.5 25.2 59.74 25.2 59.86 25.26 60.23 25.34 60.83 25.34 61.43 25.1 62.04 27.02 62.16 26.72 62.28 26.25 62.4 25.97 62.52 25.68 62.76 25.8 63 25.74 63.48 25.93 63.6 25.89 63.72 25.63 63.84 25.75 63.97 25.65 64.09 25.73 64.21 25.63 65.65 25.73 65.9 25.67 66.02 25.66 66.26 25.44 66.74 25.42 66.98 25.36 67.22 25.64 67.7 25.47 67.95 25.54 68.07 25.13 68.31 25.03 68.43 25.2 68.55 25.13 68.67 25.13 68.79 25.18 68.91 24.94 69.15 25.09 69.27 25.07 69.51 24.9 69.75 24.98 69.88 25.14 70 25.01 70.24 24.98 70.36 25.12 70.96 25.21 71.44 25.07 71.56 25.08 72.53 25.17 72.65 25.23 72.77 25.28 73.13 24.96 73.25 24.94 73.37 24.92 73.61 25.1 73.86 25.05 74.1 25.03 75.18 24.79"/>
      </g>
    </g>
  </g>
</g>
  <g class="guide ylabels" font-size="2.82" font-family="'PT Sans Caption','Helvetica Neue','Helvetica',sans-serif" fill="#6C606B" id="img-c5f73a8a-19">
    <text x="18.63" y="45.71" text-anchor="end" dy="0.35em">0</text>
    <text x="18.63" y="30.16" text-anchor="end" dy="0.35em">50</text>
    <text x="18.63" y="14.61" text-anchor="end" dy="0.35em">100</text>
  </g>
  <g font-size="3.88" font-family="'PT Sans','Helvetica Neue','Helvetica',sans-serif" fill="#564A55" stroke="#000000" stroke-opacity="0.000" id="img-c5f73a8a-20">
    <text x="8.81" y="28.16" text-anchor="middle" dy="0.35em" transform="rotate(-90, 8.81, 30.16)">Percentage of Packages</text>
  </g>
  <g font-size="3.88" font-family="'PT Sans','Helvetica Neue','Helvetica',sans-serif" fill="#564A55" stroke="#000000" stroke-opacity="0.000" id="img-c5f73a8a-21">
    <text x="58.12" y="10.61" text-anchor="middle">Julia v0.3 (relative)</text>
  </g>
</g>
<defs>
  <clipPath id="img-c5f73a8a-4">
  <path d="M19.63,12.61 L 96.6 12.61 96.6 47.71 19.63 47.71" />
</clipPath>
</defs>
</svg>
