<?xml version="1.0" encoding="UTF-8"?>
<svg xmlns="http://www.w3.org/2000/svg"
     xmlns:xlink="http://www.w3.org/1999/xlink"
     xmlns:gadfly="http://www.gadflyjl.org/ns"
     version="1.2"
     width="101.6mm" height="76.2mm" viewBox="0 0 101.6 76.2"
     stroke="none"
     fill="#000000"
     stroke-width="0.3"
     font-size="3.88"
>
<g class="plotroot xscalable yscalable" id="fig-52d117407b0d4170a9c7d7beaf212c8b-element-1">
  <g font-size="3.88" font-family="'PT Sans','Helvetica Neue','Helvetica',sans-serif" fill="#564A55" stroke="#000000" stroke-opacity="0.000" id="fig-52d117407b0d4170a9c7d7beaf212c8b-element-2">
    <text x="58.12" y="64.59" text-anchor="middle" dy="0.6em">Date</text>
  </g>
  <g class="guide xlabels" font-size="2.82" font-family="'PT Sans Caption','Helvetica Neue','Helvetica',sans-serif" fill="#6C606B" id="fig-52d117407b0d4170a9c7d7beaf212c8b-element-3">
    <text x="21.89" y="48.71" text-anchor="end" dy="0.35em" transform="rotate(-90, 21.89, 48.71)">Apr</text>
    <text x="25.76" y="48.71" text-anchor="end" dy="0.35em" transform="rotate(-90, 25.76, 48.71)">May</text>
    <text x="29.75" y="48.71" text-anchor="end" dy="0.35em" transform="rotate(-90, 29.75, 48.71)">Jun</text>
    <text x="33.62" y="48.71" text-anchor="end" dy="0.35em" transform="rotate(-90, 33.62, 48.71)">Jul</text>
    <text x="37.62" y="48.71" text-anchor="end" dy="0.35em" transform="rotate(-90, 37.62, 48.71)">Aug</text>
    <text x="41.61" y="48.71" text-anchor="end" dy="0.35em" transform="rotate(-90, 41.61, 48.71)">Sep</text>
    <text x="45.48" y="48.71" text-anchor="end" dy="0.35em" transform="rotate(-90, 45.48, 48.71)">Oct</text>
    <text x="49.48" y="48.71" text-anchor="end" dy="0.35em" transform="rotate(-90, 49.48, 48.71)">Nov</text>
    <text x="53.35" y="48.71" text-anchor="end" dy="0.35em" transform="rotate(-90, 53.35, 48.71)">Dec</text>
    <text x="57.34" y="48.71" text-anchor="end" dy="0.35em" transform="rotate(-90, 57.34, 48.71)">Jan 2015</text>
    <text x="61.34" y="48.71" text-anchor="end" dy="0.35em" transform="rotate(-90, 61.34, 48.71)">Feb</text>
    <text x="64.95" y="48.71" text-anchor="end" dy="0.35em" transform="rotate(-90, 64.95, 48.71)">Mar</text>
    <text x="68.95" y="48.71" text-anchor="end" dy="0.35em" transform="rotate(-90, 68.95, 48.71)">Apr</text>
    <text x="72.81" y="48.71" text-anchor="end" dy="0.35em" transform="rotate(-90, 72.81, 48.71)">May</text>
    <text x="76.81" y="48.71" text-anchor="end" dy="0.35em" transform="rotate(-90, 76.81, 48.71)">Jun</text>
    <text x="80.68" y="48.71" text-anchor="end" dy="0.35em" transform="rotate(-90, 80.68, 48.71)">Jul</text>
    <text x="84.67" y="48.71" text-anchor="end" dy="0.35em" transform="rotate(-90, 84.67, 48.71)">Aug</text>
    <text x="88.67" y="48.71" text-anchor="end" dy="0.35em" transform="rotate(-90, 88.67, 48.71)">Sep</text>
    <text x="92.54" y="48.71" text-anchor="end" dy="0.35em" transform="rotate(-90, 92.54, 48.71)">Oct</text>
  </g>
  <g clip-path="url(#fig-52d117407b0d4170a9c7d7beaf212c8b-element-5)" id="fig-52d117407b0d4170a9c7d7beaf212c8b-element-4">
    <g pointer-events="visible" opacity="1" fill="#000000" fill-opacity="0.000" stroke="#000000" stroke-opacity="0.000" class="guide background" id="fig-52d117407b0d4170a9c7d7beaf212c8b-element-6">
      <rect x="19.63" y="12.61" width="76.97" height="35.1"/>
    </g>
    <g class="guide ygridlines xfixed" stroke-dasharray="0.5,0.5" stroke-width="0.2" stroke="#D0D0E0" id="fig-52d117407b0d4170a9c7d7beaf212c8b-element-7">
      <path fill="none" d="M19.63,45.71 L 96.6 45.71"/>
      <path fill="none" d="M19.63,39.49 L 96.6 39.49"/>
      <path fill="none" d="M19.63,33.27 L 96.6 33.27"/>
      <path fill="none" d="M19.63,27.05 L 96.6 27.05"/>
      <path fill="none" d="M19.63,20.83 L 96.6 20.83"/>
      <path fill="none" d="M19.63,14.61 L 96.6 14.61"/>
    </g>
    <g class="guide xgridlines yfixed" stroke-dasharray="0.5,0.5" stroke-width="0.2" stroke="#D0D0E0" id="fig-52d117407b0d4170a9c7d7beaf212c8b-element-8">
      <path fill="none" d="M21.89,12.61 L 21.89 47.71"/>
      <path fill="none" d="M25.76,12.61 L 25.76 47.71"/>
      <path fill="none" d="M29.75,12.61 L 29.75 47.71"/>
      <path fill="none" d="M33.62,12.61 L 33.62 47.71"/>
      <path fill="none" d="M37.62,12.61 L 37.62 47.71"/>
      <path fill="none" d="M41.61,12.61 L 41.61 47.71"/>
      <path fill="none" d="M45.48,12.61 L 45.48 47.71"/>
      <path fill="none" d="M49.48,12.61 L 49.48 47.71"/>
      <path fill="none" d="M53.35,12.61 L 53.35 47.71"/>
      <path fill="none" d="M57.34,12.61 L 57.34 47.71"/>
      <path fill="none" d="M61.34,12.61 L 61.34 47.71"/>
      <path fill="none" d="M64.95,12.61 L 64.95 47.71"/>
      <path fill="none" d="M68.95,12.61 L 68.95 47.71"/>
      <path fill="none" d="M72.81,12.61 L 72.81 47.71"/>
      <path fill="none" d="M76.81,12.61 L 76.81 47.71"/>
      <path fill="none" d="M80.68,12.61 L 80.68 47.71"/>
      <path fill="none" d="M84.67,12.61 L 84.67 47.71"/>
      <path fill="none" d="M88.67,12.61 L 88.67 47.71"/>
      <path fill="none" d="M92.54,12.61 L 92.54 47.71"/>
    </g>
    <g class="plotpanel" id="fig-52d117407b0d4170a9c7d7beaf212c8b-element-9">
      <g stroke-width="0.3" fill="#000000" fill-opacity="0.000" class="geometry color_newnot_possible" stroke-dasharray="none" stroke="#808080" id="fig-52d117407b0d4170a9c7d7beaf212c8b-element-10">
        <path fill="none" d="M79.26,42.41 L 79.39 42.41 79.52 42.41 79.65 42.41 79.77 42.41 79.9 42.41 80.03 42.41 80.16 42.41 80.55 42.41 80.81 42.41 81.06 42.47 81.19 42.41 81.32 42.41 81.45 42.41 81.58 42.41 81.71 42.41 83.9 42.35 84.93 42.35 86.09 42.35 88.28 42.35 88.67 42.35 89.31 42.16 89.96 41.98 92.02 41.98 92.54 41.98 93.18 41.98 93.7 41.98 94.21 41.98 94.6 41.91"/>
      </g>
      <g stroke-width="0.3" fill="#000000" fill-opacity="0.000" class="geometry color_newno_tests" stroke-dasharray="none" stroke="#0000FF" id="fig-52d117407b0d4170a9c7d7beaf212c8b-element-11">
        <path fill="none" d="M79.26,39.05 L 79.39 39.05 79.52 39.05 79.65 39.05 79.77 39.05 79.9 39.05 80.03 39.05 80.16 39.05 80.55 39.05 80.81 39.05 81.06 39.05 81.19 39.05 81.32 39.12 81.45 39.12 81.58 39.12 81.71 39.18 83.9 39.12 84.93 39.12 86.09 39.12 88.28 39.12 88.67 39.18 89.31 39.18 89.96 39.24 92.02 39.43 92.54 39.61 93.18 39.74 93.7 39.74 94.21 39.74 94.6 39.8"/>
      </g>
      <g stroke-width="0.3" fill="#000000" fill-opacity="0.000" class="geometry color_newtests_fail" stroke-dasharray="none" stroke="#FF0000" id="fig-52d117407b0d4170a9c7d7beaf212c8b-element-12">
        <path fill="none" d="M79.26,42.23 L 79.39 42.04 79.52 41.98 79.65 41.91 79.77 41.79 79.9 41.98 80.03 41.73 80.16 41.91 80.55 41.79 80.81 41.73 81.06 41.67 81.19 41.85 81.32 39.86 81.45 41.73 81.58 41.35 81.71 41.42 83.9 41.67 84.93 41.73 86.09 41.23 88.28 40.17 88.67 40.48 89.31 40.86 89.96 41.17 92.02 41.11 92.54 40.8 93.18 41.04 93.7 41.11 94.21 40.92 94.6 40.92"/>
      </g>
      <g stroke-width="0.3" fill="#000000" fill-opacity="0.000" class="geometry color_newtests_pass" stroke-dasharray="none" stroke="#008000" id="fig-52d117407b0d4170a9c7d7beaf212c8b-element-13">
        <path fill="none" d="M79.26,22.14 L 79.39 22.32 79.52 22.26 79.65 22.32 79.77 22.32 79.9 22.14 80.03 22.39 80.16 22.14 80.55 22.26 80.81 22.2 81.06 22.26 81.19 22.01 81.32 23.69 81.45 21.7 81.58 22.01 81.71 21.89 83.9 20.89 84.93 20.52 86.09 20.71 88.28 20.89 88.67 20.4 89.31 20.15 89.96 19.84 92.02 19.09 92.54 18.9 93.18 18.28 93.7 18.16 94.21 18.22 94.6 18.09"/>
      </g>
      <g stroke-width="0.3" fill="#000000" fill-opacity="0.000" class="geometry color_newnot_possible" stroke-dasharray="none" stroke="#808080" id="fig-52d117407b0d4170a9c7d7beaf212c8b-element-14">
        <path fill="none" d="M21.63,43.72 L 21.76 43.72 21.89 43.72 22.02 43.72 22.15 43.72 22.28 43.72 22.41 43.72 22.53 43.72 22.79 43.72 22.92 43.72 23.18 43.72 23.44 43.72 23.57 43.72 23.82 43.72 23.95 43.72 24.85 43.72 25.24 43.72 25.5 43.72 26.4 43.78 26.53 43.78 26.66 43.78 26.79 43.78 26.92 43.78 27.05 43.72 27.18 43.72 27.3 43.72 27.43 43.72 27.56 43.59 27.69 43.59 27.82 43.59 28.08 43.53 28.21 43.97 28.34 43.97 28.46 43.97 28.59 43.97 28.72 43.97 28.85 43.97 28.98 43.97 29.11 43.97 29.24 43.97 29.37 43.97 29.5 43.97 29.62 43.97 29.75 43.97 29.88 43.97 30.01 43.97 30.14 43.97 30.91 43.66 31.04 43.59 31.17 43.59 31.3 43.59 31.43 43.59 31.56 43.53 31.69 43.41 31.82 43.41 31.95 43.41 32.07 43.41 32.33 43.41 32.46 43.41 32.59 43.41 32.72 43.41 32.85 43.41 32.98 43.41 33.11 43.41 33.23 43.41 33.49 43.41 33.62 43.41 33.75 43.41 33.88 43.41 34.01 43.41 34.14 43.41 34.39 43.41 34.52 43.41 34.65 43.41 34.78 43.41 35.04 43.41 35.3 43.41 35.43 43.41 35.55 43.41 35.68 43.41 36.07 43.41 36.2 43.41 36.33 43.41 36.46 43.41 36.59 43.41 36.72 43.41 36.84 43.34 36.97 43.34 37.23 43.34 37.36 43.34 37.62 43.34 37.75 43.34 37.88 43.34 38 43.34 38.26 43.34 38.39 43.34 38.52 43.34 38.65 43.34 38.78 43.34 38.91 43.34 39.04 43.34 39.16 43.34 39.29 43.28 39.42 43.22 39.55 43.22 39.68 43.22 39.81 43.22 40.07 43.22 40.2 43.22 40.32 43.22 40.45 43.22 40.58 43.22 40.71 43.22 40.84 43.22 40.97 43.22 41.23 43.22 41.36 43.16 41.61 43.16 41.74 43.16 41.87 43.1 42.39 43.1 42.77 43.1 42.9 43.1 43.03 43.1 43.16 43.1 43.29 43.1 43.42 43.1 43.55 43.1 43.68 43.1 43.81 43.1 44.06 43.03 44.19 43.03 44.32 43.03 44.45 43.03 44.58 43.03 44.71 43.03 44.84 42.97 45.09 42.97 45.22 42.97 45.35 42.97 45.48 42.97 45.61 42.79 45.74 42.91 45.87 42.91 46 42.91 46.38 42.91 46.51 42.85 46.64 42.85 46.77 42.85 46.9 42.85 47.03 42.85 47.16 42.85 47.29 42.85 47.42 42.85 47.54 42.85 47.67 42.79 47.8 42.79 47.93 42.79 48.06 42.79 48.19 42.79 48.32 42.79 48.45 42.79 48.58 42.79 48.7 42.79 48.83 42.79 48.96 42.79 49.09 42.79 49.22 42.79 49.35 42.79 49.48 42.79 49.61 42.79 49.74 42.79 49.86 42.79 49.99 42.79 50.12 42.79 50.51 42.79 51.15 42.79 51.28 42.79 51.41 42.79 51.54 42.79 51.67 42.79 51.8 42.79 51.93 42.79 52.44 42.79 52.57 42.79 53.22 42.79 53.47 42.79 53.6 42.85 53.73 42.85 53.86 42.85 53.99 42.85 54.12 42.85 54.25 42.85 54.64 42.85 54.76 42.85 55.02 42.85 55.15 42.85 55.28 42.85 55.67 42.85 55.92 42.85 56.31 42.85 56.83 42.85 57.08 42.85 57.47 42.85 58.37 42.85 58.89 42.85 59.02 42.72 59.15 42.72 59.28 42.66 59.41 42.66 59.53 42.66 59.79 42.66 59.92 42.66 60.05 42.66 60.18 42.66 60.31 42.66 60.44 42.66 60.57 42.66 60.82 42.6 60.95 42.6 61.08 42.6 61.6 42.6 61.73 42.6 61.85 42.6 62.11 42.6 62.37 42.6 62.5 42.6 62.89 42.6 63.53 42.6 64.18 42.6 64.82 42.6 64.95 42.6 65.08 42.6 65.21 42.16 65.34 42.23 65.59 42.16 65.85 42.16 66.37 42.16 66.5 42.16 66.62 42.16 66.75 42.16 66.88 42.16 67.01 42.23 67.14 42.16 68.69 42.1 68.95 42.04 69.07 42.04 69.33 42.04 69.85 42.04 70.11 42.04 70.36 42.04 70.88 42.04 71.14 42.04 71.27 42.04 71.52 42.04 71.65 42.04 71.78 42.04 71.91 42.04 72.04 42.04 72.17 42.04 72.43 42.04 72.55 42.04 72.81 42.04 73.07 42.04 73.2 42.04 73.33 42.04 73.59 42.04 73.72 42.04 74.36 42.04 74.88 42.1 75 42.04 76.04 42.04 76.16 41.91 76.29 41.91 76.68 41.91 76.81 41.91 76.94 41.98 77.2 41.98 77.45 41.98 77.71 41.98 78.87 41.98"/>
      </g>
      <g stroke-width="0.3" fill="#000000" fill-opacity="0.000" class="geometry color_newtests_fail" stroke-dasharray="none" stroke="#FF0000" id="fig-52d117407b0d4170a9c7d7beaf212c8b-element-15">
        <path fill="none" d="M21.63,43.22 L 21.76 43.22 21.89 42.29 22.02 43.28 22.15 43.22 22.28 42.23 22.41 42.23 22.53 42.23 22.79 43.22 22.92 43.22 23.18 43.28 23.44 43.28 23.57 43.28 23.82 43.34 23.95 43.34 24.85 43.41 25.24 43.41 25.5 43.41 26.4 43.34 26.53 43.41 26.66 43.28 26.79 43.28 26.92 43.34 27.05 43.41 27.18 43.34 27.3 43.34 27.43 43.34 27.56 43.41 27.69 43.41 27.82 43.28 28.08 43.34 28.21 43.22 28.34 43.34 28.46 43.47 28.59 43.47 28.72 43.53 28.85 43.53 28.98 43.47 29.11 43.53 29.24 43.53 29.37 43.53 29.5 43.59 29.62 43.59 29.75 44.09 29.88 43.84 30.01 43.84 30.14 43.84 30.91 44.22 31.04 44.28 31.17 44.28 31.3 44.28 31.43 44.22 31.56 44.28 31.69 44.28 31.82 44.28 31.95 44.22 32.07 43.03 32.33 44.22 32.46 44.28 32.59 44.28 32.72 44.28 32.85 44.28 32.98 44.28 33.11 44.28 33.23 44.28 33.49 44.28 33.62 44.28 33.75 44.22 33.88 44.22 34.01 44.22 34.14 44.22 34.39 44.22 34.52 44.09 34.65 44.09 34.78 44.09 35.04 43.97 35.3 42.72 35.43 42.66 35.55 43.97 35.68 43.9 36.07 44.03 36.2 44.03 36.33 44.03 36.46 44.03 36.59 44.09 36.72 44.15 36.84 44.15 36.97 44.15 37.23 44.15 37.36 44.22 37.62 44.15 37.75 44.22 37.88 44.22 38 44.22 38.26 44.22 38.39 44.22 38.52 44.09 38.65 44.15 38.78 44.15 38.91 44.09 39.04 44.09 39.16 43.97 39.29 44.03 39.42 44.15 39.55 42.41 39.68 42.79 39.81 42.79 40.07 44.22 40.2 44.28 40.32 44.22 40.45 44.28 40.58 44.22 40.71 44.22 40.84 44.34 40.97 44.15 41.23 44.4 41.36 44.46 41.61 44.34 41.74 44.34 41.87 44.4 42.39 44.4 42.77 44.71 42.9 44.71 43.03 44.71 43.16 44.78 43.29 44.84 43.42 44.84 43.55 44.84 43.68 44.84 43.81 44.84 44.06 44.71 44.19 44.71 44.32 44.65 44.45 44.71 44.58 44.65 44.71 44.53 44.84 44.59 45.09 44.65 45.22 44.71 45.35 44.71 45.48 44.65 45.61 44.59 45.74 44.65 45.87 44.71 46 44.71 46.38 44.71 46.51 44.71 46.64 44.71 46.77 44.78 46.9 44.78 47.03 44.78 47.16 44.78 47.29 44.78 47.42 44.65 47.54 44.59 47.67 44.59 47.8 44.46 47.93 44.59 48.06 44.59 48.19 44.59 48.32 44.59 48.45 44.59 48.58 44.53 48.7 44.59 48.83 44.53 48.96 44.59 49.09 44.53 49.22 44.59 49.35 44.59 49.48 44.59 49.61 44.65 49.74 44.65 49.86 44.71 49.99 44.71 50.12 44.53 50.51 44.78 51.15 44.71 51.28 44.71 51.41 44.71 51.54 44.78 51.67 44.84 51.8 44.71 51.93 44.71 52.44 44.65 52.57 44.71 53.22 44.71 53.47 44.71 53.6 44.34 53.73 44.53 53.86 44.71 53.99 44.71 54.12 44.71 54.25 44.65 54.64 44.59 54.76 44.59 55.02 44.53 55.15 44.59 55.28 44.59 55.67 44.59 55.92 44.65 56.31 44.65 56.83 44.65 57.08 44.65 57.47 44.65 58.37 44.59 58.89 44.46 59.02 44.59 59.15 44.59 59.28 44.34 59.41 44.34 59.53 44.4 59.79 44.4 59.92 44.34 60.05 44.34 60.18 44.28 60.31 44.34 60.44 44.34 60.57 44.34 60.82 44.34 60.95 44.34 61.08 44.34 61.6 44.15 61.73 44.15 61.85 44.15 62.11 44.09 62.37 44.03 62.5 44.03 62.89 44.03 63.53 44.03 64.18 44.09 64.82 42.29 64.95 42.91 65.08 43.34 65.21 44.09 65.34 44.09 65.59 44.09 65.85 44.09 66.37 44.09 66.5 44.03 66.62 44.03 66.75 44.03 66.88 44.03 67.01 44.03 67.14 43.97 68.69 43.9 68.95 43.97 69.07 44.09 69.33 44.09 69.85 43.97 70.11 44.09 70.36 44.03 70.88 44.03 71.14 44.03 71.27 43.97 71.52 43.84 71.65 43.84 71.78 43.84 71.91 43.9 72.04 43.78 72.17 43.78 72.43 43.78 72.55 43.84 72.81 43.78 73.07 43.78 73.2 43.66 73.33 43.66 73.59 43.72 73.72 43.66 74.36 43.59 74.88 43.47 75 43.47 76.04 43.22 76.16 43.22 76.29 43.22 76.68 43.22 76.81 43.22 76.94 43.28 77.2 43.34 77.45 43.28 77.71 43.28 78.87 43.41"/>
      </g>
      <g stroke-width="0.3" fill="#000000" fill-opacity="0.000" class="geometry color_newno_tests" stroke-dasharray="none" stroke="#0000FF" id="fig-52d117407b0d4170a9c7d7beaf212c8b-element-16">
        <path fill="none" d="M21.63,42.35 L 21.76 42.35 21.89 42.35 22.02 42.35 22.15 42.35 22.28 42.41 22.41 42.41 22.53 42.35 22.79 42.29 22.92 42.29 23.18 42.29 23.44 42.16 23.57 42.16 23.82 42.16 23.95 42.16 24.85 42.16 25.24 42.16 25.5 42.16 26.4 42.1 26.53 42.1 26.66 42.1 26.79 42.1 26.92 42.1 27.05 42.1 27.18 42.1 27.3 42.1 27.43 42.1 27.56 42.23 27.69 42.23 27.82 42.23 28.08 42.29 28.21 42.29 28.34 42.29 28.46 42.23 28.59 42.23 28.72 42.35 28.85 42.41 28.98 42.41 29.11 42.41 29.24 42.41 29.37 42.41 29.5 42.41 29.62 42.41 29.75 42.16 29.88 42.23 30.01 42.23 30.14 42.23 30.91 42.23 31.04 42.23 31.17 42.23 31.3 42.29 31.43 42.29 31.56 42.29 31.69 42.29 31.82 42.35 31.95 42.35 32.07 42.54 32.33 42.47 32.46 42.35 32.59 42.35 32.72 42.35 32.85 42.35 32.98 42.35 33.11 42.35 33.23 42.35 33.49 42.41 33.62 42.35 33.75 42.35 33.88 42.35 34.01 42.47 34.14 42.47 34.39 42.47 34.52 42.47 34.65 42.47 34.78 42.47 35.04 42.35 35.3 42.54 35.43 42.47 35.55 42.41 35.68 42.41 36.07 42.41 36.2 42.41 36.33 42.41 36.46 42.41 36.59 42.47 36.72 42.47 36.84 42.47 36.97 42.54 37.23 42.54 37.36 42.54 37.62 42.54 37.75 42.54 37.88 42.54 38 42.54 38.26 42.41 38.39 42.47 38.52 42.47 38.65 42.41 38.78 42.41 38.91 42.41 39.04 42.41 39.16 42.41 39.29 42.41 39.42 42.41 39.55 42.79 39.68 42.79 39.81 42.79 40.07 42.35 40.2 42.35 40.32 42.41 40.45 42.41 40.58 42.47 40.71 42.41 40.84 42.41 40.97 42.47 41.23 42.85 41.36 42.91 41.61 42.91 41.74 42.91 41.87 42.91 42.39 42.91 42.77 42.85 42.9 42.85 43.03 42.79 43.16 42.79 43.29 42.79 43.42 42.85 43.55 42.85 43.68 42.91 43.81 42.91 44.06 42.91 44.19 42.85 44.32 42.85 44.45 42.85 44.58 42.85 44.71 42.91 44.84 42.91 45.09 42.85 45.22 42.85 45.35 42.85 45.48 42.85 45.61 42.6 45.74 42.85 45.87 42.85 46 42.85 46.38 42.91 46.51 42.91 46.64 42.85 46.77 42.85 46.9 42.85 47.03 42.85 47.16 42.85 47.29 42.85 47.42 42.85 47.54 42.85 47.67 42.85 47.8 42.91 47.93 42.85 48.06 42.85 48.19 42.85 48.32 42.85 48.45 42.85 48.58 42.91 48.7 42.85 48.83 42.91 48.96 42.85 49.09 42.85 49.22 42.85 49.35 42.85 49.48 42.85 49.61 42.85 49.74 42.85 49.86 42.85 49.99 42.85 50.12 42.85 50.51 42.85 51.15 42.85 51.28 42.85 51.41 42.85 51.54 42.85 51.67 42.85 51.8 42.85 51.93 42.85 52.44 42.91 52.57 42.85 53.22 42.85 53.47 42.85 53.6 42.85 53.73 42.91 53.86 42.85 53.99 42.85 54.12 42.85 54.25 42.91 54.64 42.85 54.76 42.85 55.02 42.85 55.15 42.79 55.28 42.79 55.67 42.85 55.92 42.79 56.31 42.79 56.83 42.85 57.08 42.79 57.47 42.79 58.37 42.79 58.89 42.79 59.02 42.79 59.15 42.79 59.28 42.85 59.41 42.79 59.53 42.79 59.79 42.79 59.92 42.85 60.05 42.85 60.18 42.85 60.31 42.79 60.44 42.79 60.57 42.79 60.82 42.79 60.95 42.79 61.08 42.79 61.6 42.79 61.73 42.79 61.85 42.79 62.11 42.79 62.37 42.79 62.5 42.79 62.89 42.79 63.53 42.79 64.18 42.79 64.82 42.97 64.95 42.91 65.08 42.91 65.21 42.91 65.34 42.85 65.59 42.85 65.85 42.85 66.37 42.85 66.5 42.85 66.62 42.91 66.75 42.91 66.88 42.91 67.01 42.91 67.14 42.91 68.69 42.97 68.95 42.97 69.07 42.97 69.33 43.03 69.85 43.03 70.11 43.03 70.36 43.03 70.88 43.03 71.14 43.03 71.27 43.03 71.52 43.03 71.65 43.03 71.78 43.03 71.91 43.03 72.04 43.03 72.17 43.03 72.43 43.03 72.55 43.03 72.81 43.1 73.07 43.03 73.2 43.03 73.33 43.03 73.59 43.1 73.72 43.03 74.36 43.1 74.88 43.1 75 43.1 76.04 43.1 76.16 43.1 76.29 43.1 76.68 43.16 76.81 43.16 76.94 43.1 77.2 43.1 77.45 43.1 77.71 43.16 78.87 43.1"/>
      </g>
      <g stroke-width="0.3" fill="#000000" fill-opacity="0.000" class="geometry color_oldfull_fail" stroke-dasharray="none" stroke="#FFA500" id="fig-52d117407b0d4170a9c7d7beaf212c8b-element-17">
        <path fill="none" d="M21.63,43.16 L 21.76 43.16 21.89 43.59 22.02 42.91 22.15 42.97 22.28 43.47 22.41 43.34 22.53 43.47 22.79 42.6 22.92 42.6 23.18 42.54 23.44 42.79 23.57 42.66 23.82 42.85 23.95 42.79 24.85 42.91 25.24 42.91 25.5 42.91 26.4 42.85 26.53 42.72 26.66 42.1 26.79 42.1 26.92 42.41 27.05 42.41 27.18 42.6 27.3 42.6 27.43 42.6 27.56 42.85 27.69 42.85 27.82 43.16 28.08 43.16 28.21 43.1 28.34 42.97 28.46 43.03 28.59 43.03 28.72 43.16 28.85 43.16 28.98 43.16 29.11 43.03 29.24 43.28 29.37 43.22 29.5 43.16 29.62 43.03 29.75 45.71 29.88 43.28 30.01 42.97 30.14 43.1 30.91 42.97 31.04 43.22 31.17 43.47 31.3 43.47 31.43 43.41 31.56 43.66 31.69 43.59 31.82 43.59 31.95 43.66 32.07 43.84 32.33 43.53 32.46 43.59 32.59 43.72 32.72 43.59 32.85 43.72 32.98 43.72 33.11 43.47 33.23 43.53 33.49 43.78 33.62 43.78 33.75 43.78 33.88 43.72 34.01 43.66 34.14 43.78 34.39 43.78 34.52 43.84 34.65 43.9 34.78 43.9 35.04 43.78 35.3 43.34 35.43 43.66 35.55 43.59 35.68 43.59 36.07 43.59 36.2 43.59 36.33 43.41 36.46 43.53 36.59 43.47 36.72 43.47 36.84 43.59 36.97 43.53 37.23 43.59 37.36 43.66 37.62 43.66 37.75 43.66 37.88 43.66 38 43.66 38.26 43.66 38.39 43.66 38.52 43.66 38.65 43.59 38.78 43.59 38.91 43.53 39.04 43.66 39.16 43.53 39.29 43.47 39.42 43.47 39.55 43.34 39.68 43.28 39.81 43.34 40.07 43.22 40.2 43.28 40.32 43.47 40.45 43.28 40.58 43.28 40.71 43.34 40.84 43.16 40.97 43.22 41.23 43.53 41.36 43.47 41.61 43.47 41.74 43.47 41.87 43.47 42.39 43.47 42.77 43.41 42.9 43.34 43.03 43.41 43.16 43.28 43.29 43.28 43.42 43.47 43.55 43.16 43.68 43.1 43.81 43.1 44.06 43.16 44.19 43.28 44.32 43.22 44.45 43.28 44.58 43.28 44.71 43.16 44.84 43.28 45.09 43.41 45.22 43.41 45.35 43.41 45.48 43.41 45.61 43.22 45.74 43.47 45.87 43.47 46 43.47 46.38 43.1 46.51 43.28 46.64 43.28 46.77 43.41 46.9 43.28 47.03 43.41 47.16 43.41 47.29 43.34 47.42 43.34 47.54 43.28 47.67 43.47 47.8 43.41 47.93 43.34 48.06 43.41 48.19 43.41 48.32 43.34 48.45 43.47 48.58 43.28 48.7 43.28 48.83 43.41 48.96 43.34 49.09 43.28 49.22 43.28 49.35 43.28 49.48 43.22 49.61 43.28 49.74 43.41 49.86 43.22 49.99 43.28 50.12 43.28 50.51 43.16 51.15 43.16 51.28 43.03 51.41 43.03 51.54 42.91 51.67 42.97 51.8 43.16 51.93 43.16 52.44 43.1 52.57 43.1 53.22 42.97 53.47 42.97 53.6 42.72 53.73 42.85 53.86 42.91 53.99 43.03 54.12 43.03 54.25 42.91 54.64 42.79 54.76 42.79 55.02 42.72 55.15 42.54 55.28 42.85 55.67 42.79 55.92 42.91 56.31 42.85 56.83 42.72 57.08 42.85 57.47 42.6 58.37 42.47 58.89 42.54 59.02 42.54 59.15 42.54 59.28 42.23 59.41 42.1 59.53 42.04 59.79 42.16 59.92 42.16 60.05 42.16 60.18 42.1 60.31 41.91 60.44 42.23 60.57 42.23 60.82 42.23 60.95 42.23 61.08 42.29 61.6 42.1 61.73 42.23 61.85 42.04 62.11 42.47 62.37 42.47 62.5 42.41 62.89 42.29 63.53 42.29 64.18 42.35 64.82 41.85 64.95 41.6 65.08 41.67 65.21 41.6 65.34 41.91 65.59 41.85 65.85 41.91 66.37 41.67 66.5 41.73 66.62 41.91 66.75 41.79 66.88 41.85 67.01 41.73 67.14 41.91 68.69 41.85 68.95 41.91 69.07 41.73 69.33 41.91 69.85 42.04 70.11 41.98 70.36 41.67 70.88 41.85 71.14 41.73 71.27 42.23 71.52 42.35 71.65 42.16 71.78 42.23 71.91 42.1 72.04 42.16 72.17 42.41 72.43 42.23 72.55 42.16 72.81 42.35 73.07 42.29 73.2 42.16 73.33 42.29 73.59 42.16 73.72 42.1 74.36 41.91 74.88 42.1 75 42.1 76.04 42.16 76.16 42.23 76.29 42.16 76.68 42.41 76.81 42.41 76.94 42.35 77.2 42.04 77.45 42.16 77.71 42.1 78.87 42.23"/>
      </g>
      <g stroke-width="0.3" fill="#000000" fill-opacity="0.000" class="geometry color_newtests_pass" stroke-dasharray="none" stroke="#008000" id="fig-52d117407b0d4170a9c7d7beaf212c8b-element-18">
        <path fill="none" d="M21.63,37.69 L 21.76 37.69 21.89 38.12 22.02 37.81 22.15 37.81 22.28 38.25 22.41 38.37 22.53 38.25 22.79 38.18 22.92 38.12 23.18 38.06 23.44 37.81 23.57 37.93 23.82 37.69 23.95 37.69 24.85 37.25 25.24 37.25 25.5 37.25 26.4 37.31 26.53 37.25 26.66 37.93 26.79 37.93 26.92 37.56 27.05 37.56 27.18 37.44 27.3 37.44 27.43 37.44 27.56 37.13 27.69 37.13 27.82 36.75 28.08 36.63 28.21 36.38 28.34 36.38 28.46 36.13 28.59 36.13 28.72 35.82 28.85 35.7 28.98 35.76 29.11 35.82 29.24 35.57 29.37 35.63 29.5 35.57 29.62 35.7 29.75 35.26 29.88 35.32 30.01 35.57 30.14 35.38 30.91 35.07 31.04 34.76 31.17 34.45 31.3 34.33 31.43 34.33 31.56 34.08 31.69 34.14 31.82 34.08 31.95 34.02 32.07 34.76 32.33 33.95 32.46 33.83 32.59 33.71 32.72 33.83 32.85 33.71 32.98 33.71 33.11 33.77 33.23 33.71 33.49 33.33 33.62 33.27 33.75 33.27 33.88 33.27 34.01 33.21 34.14 32.96 34.39 32.9 34.52 32.77 34.65 32.71 34.78 32.71 35.04 32.77 35.3 34.08 35.43 33.89 35.55 32.65 35.68 32.71 36.07 32.52 36.2 32.52 36.33 32.65 36.46 32.52 36.59 32.46 36.72 32.34 36.84 32.21 36.97 32.15 37.23 32.09 37.36 31.96 37.62 32.03 37.75 31.9 37.88 31.71 38 31.71 38.26 31.78 38.39 31.71 38.52 31.71 38.65 31.71 38.78 31.65 38.91 31.71 39.04 31.53 39.16 31.65 39.29 31.71 39.42 31.59 39.55 33.02 39.68 32.71 39.81 32.65 40.07 31.59 40.2 31.47 40.32 31.22 40.45 31.34 40.58 31.34 40.71 31.16 40.84 31.16 40.97 31.16 41.23 30.97 41.36 30.78 41.61 30.78 41.74 30.78 41.87 30.78 42.39 30.78 42.77 30.22 42.9 30.22 43.03 30.16 43.16 30.1 43.29 30.04 43.42 29.79 43.55 29.6 43.68 29.6 43.81 29.6 44.06 29.72 44.19 29.6 44.32 29.66 44.45 29.54 44.58 29.6 44.71 29.72 44.84 29.6 45.09 29.54 45.22 29.41 45.35 29.41 45.48 29.35 45.61 28.79 45.74 29.23 45.87 29.16 46 29.04 46.38 29.23 46.51 29.1 46.64 29.04 46.77 28.79 46.9 28.92 47.03 28.79 47.16 28.67 47.29 28.73 47.42 28.79 47.54 28.85 47.67 28.73 47.8 28.85 47.93 28.85 48.06 28.73 48.19 28.61 48.32 28.67 48.45 28.54 48.58 28.67 48.7 28.67 48.83 28.48 48.96 28.54 49.09 28.54 49.22 28.42 49.35 28.42 49.48 28.42 49.61 28.29 49.74 28.17 49.86 28.23 49.99 28.17 50.12 28.29 50.51 28.17 51.15 27.92 51.28 27.92 51.41 27.92 51.54 27.92 51.67 27.8 51.8 27.55 51.93 27.55 52.44 27.3 52.57 27.3 53.22 27.36 53.47 27.36 53.6 27.86 53.73 27.42 53.86 27.24 53.99 27.11 54.12 26.99 54.25 27.05 54.64 27.17 54.76 27.11 55.02 27.05 55.15 27.17 55.28 26.86 55.67 26.86 55.92 26.61 56.31 26.55 56.83 26.49 57.08 26.24 57.47 26.24 58.37 26.06 58.89 25.68 59.02 25.56 59.15 25.56 59.28 25.81 59.41 25.99 59.53 25.99 59.79 25.87 59.92 25.74 60.05 25.74 60.18 25.68 60.31 25.81 60.44 25.5 60.57 25.5 60.82 25.37 60.95 25.25 61.08 25.12 61.6 25 61.73 25 61.85 25.18 62.11 24.62 62.37 24.5 62.5 24.56 62.89 24.56 63.53 24.56 64.18 24.07 64.82 25.93 64.95 25.62 65.08 25.12 65.21 24.75 65.34 24.44 65.59 24.56 65.85 24.5 66.37 24.62 66.5 24.5 66.62 24.19 66.75 24.31 66.88 24.13 67.01 24.25 67.14 24.07 68.69 24.13 68.95 24.07 69.07 23.94 69.33 23.69 69.85 23.63 70.11 23.57 70.36 23.75 70.88 23.57 71.14 23.57 71.27 23.07 71.52 22.76 71.65 22.95 71.78 22.82 71.91 22.7 72.04 22.76 72.17 22.45 72.43 22.57 72.55 22.51 72.81 22.32 73.07 22.32 73.2 22.39 73.33 22.2 73.59 22.07 73.72 22.2 74.36 22.14 74.88 21.89 75 21.83 76.04 21.76 76.16 21.83 76.29 21.89 76.68 21.39 76.81 21.33 76.94 21.27 77.2 21.39 77.45 21.33 77.71 21.27 78.87 20.77"/>
      </g>
    </g>
  </g>
  <g class="guide ylabels" font-size="2.82" font-family="'PT Sans Caption','Helvetica Neue','Helvetica',sans-serif" fill="#6C606B" id="fig-52d117407b0d4170a9c7d7beaf212c8b-element-19">
    <text x="18.63" y="45.71" text-anchor="end" dy="0.35em">0</text>
    <text x="18.63" y="39.49" text-anchor="end" dy="0.35em">100</text>
    <text x="18.63" y="33.27" text-anchor="end" dy="0.35em">200</text>
    <text x="18.63" y="27.05" text-anchor="end" dy="0.35em">300</text>
    <text x="18.63" y="20.83" text-anchor="end" dy="0.35em">400</text>
    <text x="18.63" y="14.61" text-anchor="end" dy="0.35em">500</text>
  </g>
  <g font-size="3.88" font-family="'PT Sans','Helvetica Neue','Helvetica',sans-serif" fill="#564A55" stroke="#000000" stroke-opacity="0.000" id="fig-52d117407b0d4170a9c7d7beaf212c8b-element-20">
    <text x="8.81" y="28.16" text-anchor="middle" dy="0.35em" transform="rotate(-90, 8.81, 30.16)">Number of Packages</text>
  </g>
  <g font-size="3.88" font-family="'PT Sans','Helvetica Neue','Helvetica',sans-serif" fill="#564A55" stroke="#000000" stroke-opacity="0.000" id="fig-52d117407b0d4170a9c7d7beaf212c8b-element-21">
    <text x="58.12" y="10.61" text-anchor="middle">Julia v0.3</text>
  </g>
</g>
<defs>
<clipPath id="fig-52d117407b0d4170a9c7d7beaf212c8b-element-5">
  <path d="M19.63,12.61 L 96.6 12.61 96.6 47.71 19.63 47.71" />
</clipPath
></defs>
</svg>
