<?xml version="1.0" encoding="UTF-8"?>
<svg xmlns="http://www.w3.org/2000/svg"
     xmlns:xlink="http://www.w3.org/1999/xlink"
     xmlns:gadfly="http://www.gadflyjl.org/ns"
     version="1.2"
     width="101.6mm" height="76.2mm" viewBox="0 0 101.6 76.2"
     stroke="none"
     fill="#000000"
     stroke-width="0.3"
     font-size="3.88"
>
<g class="plotroot xscalable yscalable" id="fig-d378f94b8cc94626a42c159652f082ae-element-1">
  <g font-size="3.88" font-family="'PT Sans','Helvetica Neue','Helvetica',sans-serif" fill="#564A55" stroke="#000000" stroke-opacity="0.000" id="fig-d378f94b8cc94626a42c159652f082ae-element-2">
    <text x="58.12" y="64.59" text-anchor="middle" dy="0.6em">Date</text>
  </g>
  <g class="guide xlabels" font-size="2.82" font-family="'PT Sans Caption','Helvetica Neue','Helvetica',sans-serif" fill="#6C606B" id="fig-d378f94b8cc94626a42c159652f082ae-element-3">
    <text x="21.88" y="48.71" text-anchor="end" dy="0.35em" transform="rotate(-90, 21.88, 48.71)">Apr</text>
    <text x="25.59" y="48.71" text-anchor="end" dy="0.35em" transform="rotate(-90, 25.59, 48.71)">May</text>
    <text x="29.42" y="48.71" text-anchor="end" dy="0.35em" transform="rotate(-90, 29.42, 48.71)">Jun</text>
    <text x="33.13" y="48.71" text-anchor="end" dy="0.35em" transform="rotate(-90, 33.13, 48.71)">Jul</text>
    <text x="36.97" y="48.71" text-anchor="end" dy="0.35em" transform="rotate(-90, 36.97, 48.71)">Aug</text>
    <text x="40.8" y="48.71" text-anchor="end" dy="0.35em" transform="rotate(-90, 40.8, 48.71)">Sep</text>
    <text x="44.51" y="48.71" text-anchor="end" dy="0.35em" transform="rotate(-90, 44.51, 48.71)">Oct</text>
    <text x="48.35" y="48.71" text-anchor="end" dy="0.35em" transform="rotate(-90, 48.35, 48.71)">Nov</text>
    <text x="52.06" y="48.71" text-anchor="end" dy="0.35em" transform="rotate(-90, 52.06, 48.71)">Dec</text>
    <text x="55.89" y="48.71" text-anchor="end" dy="0.35em" transform="rotate(-90, 55.89, 48.71)">Jan 2015</text>
    <text x="59.72" y="48.71" text-anchor="end" dy="0.35em" transform="rotate(-90, 59.72, 48.71)">Feb</text>
    <text x="63.19" y="48.71" text-anchor="end" dy="0.35em" transform="rotate(-90, 63.19, 48.71)">Mar</text>
    <text x="67.02" y="48.71" text-anchor="end" dy="0.35em" transform="rotate(-90, 67.02, 48.71)">Apr</text>
    <text x="70.73" y="48.71" text-anchor="end" dy="0.35em" transform="rotate(-90, 70.73, 48.71)">May</text>
    <text x="74.56" y="48.71" text-anchor="end" dy="0.35em" transform="rotate(-90, 74.56, 48.71)">Jun</text>
    <text x="78.27" y="48.71" text-anchor="end" dy="0.35em" transform="rotate(-90, 78.27, 48.71)">Jul</text>
    <text x="82.11" y="48.71" text-anchor="end" dy="0.35em" transform="rotate(-90, 82.11, 48.71)">Aug</text>
    <text x="85.94" y="48.71" text-anchor="end" dy="0.35em" transform="rotate(-90, 85.94, 48.71)">Sep</text>
    <text x="89.65" y="48.71" text-anchor="end" dy="0.35em" transform="rotate(-90, 89.65, 48.71)">Oct</text>
    <text x="93.49" y="48.71" text-anchor="end" dy="0.35em" transform="rotate(-90, 93.49, 48.71)">Nov</text>
  </g>
  <g clip-path="url(#fig-d378f94b8cc94626a42c159652f082ae-element-5)" id="fig-d378f94b8cc94626a42c159652f082ae-element-4">
    <g pointer-events="visible" opacity="1" fill="#000000" fill-opacity="0.000" stroke="#000000" stroke-opacity="0.000" class="guide background" id="fig-d378f94b8cc94626a42c159652f082ae-element-6">
      <rect x="19.63" y="12.61" width="76.97" height="35.1"/>
    </g>
    <g class="guide ygridlines xfixed" stroke-dasharray="0.5,0.5" stroke-width="0.2" stroke="#D0D0E0" id="fig-d378f94b8cc94626a42c159652f082ae-element-7">
      <path fill="none" d="M19.63,45.71 L 96.6 45.71"/>
      <path fill="none" d="M19.63,30.16 L 96.6 30.16"/>
      <path fill="none" d="M19.63,14.61 L 96.6 14.61"/>
    </g>
    <g class="guide xgridlines yfixed" stroke-dasharray="0.5,0.5" stroke-width="0.2" stroke="#D0D0E0" id="fig-d378f94b8cc94626a42c159652f082ae-element-8">
      <path fill="none" d="M21.88,12.61 L 21.88 47.71"/>
      <path fill="none" d="M25.59,12.61 L 25.59 47.71"/>
      <path fill="none" d="M29.42,12.61 L 29.42 47.71"/>
      <path fill="none" d="M33.13,12.61 L 33.13 47.71"/>
      <path fill="none" d="M36.97,12.61 L 36.97 47.71"/>
      <path fill="none" d="M40.8,12.61 L 40.8 47.71"/>
      <path fill="none" d="M44.51,12.61 L 44.51 47.71"/>
      <path fill="none" d="M48.35,12.61 L 48.35 47.71"/>
      <path fill="none" d="M52.06,12.61 L 52.06 47.71"/>
      <path fill="none" d="M55.89,12.61 L 55.89 47.71"/>
      <path fill="none" d="M59.72,12.61 L 59.72 47.71"/>
      <path fill="none" d="M63.19,12.61 L 63.19 47.71"/>
      <path fill="none" d="M67.02,12.61 L 67.02 47.71"/>
      <path fill="none" d="M70.73,12.61 L 70.73 47.71"/>
      <path fill="none" d="M74.56,12.61 L 74.56 47.71"/>
      <path fill="none" d="M78.27,12.61 L 78.27 47.71"/>
      <path fill="none" d="M82.11,12.61 L 82.11 47.71"/>
      <path fill="none" d="M85.94,12.61 L 85.94 47.71"/>
      <path fill="none" d="M89.65,12.61 L 89.65 47.71"/>
      <path fill="none" d="M93.49,12.61 L 93.49 47.71"/>
    </g>
    <g class="plotpanel" id="fig-d378f94b8cc94626a42c159652f082ae-element-9">
      <g stroke-width="0.3" fill="#000000" fill-opacity="0.000" class="geometry color_newnot_possible" stroke-dasharray="none" stroke="#808080" id="fig-d378f94b8cc94626a42c159652f082ae-element-10">
        <path fill="none" d="M76.91,42.94 L 77.04 42.94 77.16 42.95 77.29 42.95 77.41 42.96 77.53 42.96 77.66 42.96 77.78 42.96 78.15 42.96 78.4 42.97 78.65 43.02 78.77 42.98 78.89 42.99 79.02 43 79.14 43.01 79.26 43.01 81.37 43.02 82.36 43.04 83.47 43.06 85.57 43.12 85.94 43.12 86.56 42.99 87.18 42.85 89.16 42.89 89.65 42.92 90.27 42.93 90.77 42.94 91.26 42.94 91.63 42.91 93.12 42.91 94.6 42.87"/>
      </g>
      <g stroke-width="0.3" fill="#000000" fill-opacity="0.000" class="geometry color_newno_tests" stroke-dasharray="none" stroke="#0000FF" id="fig-d378f94b8cc94626a42c159652f082ae-element-11">
        <path fill="none" d="M76.91,40.12 L 77.04 40.12 77.16 40.13 77.29 40.13 77.41 40.15 77.53 40.15 77.66 40.15 77.78 40.16 78.15 40.16 78.4 40.18 78.65 40.17 78.77 40.19 78.89 40.28 79.02 40.3 79.14 40.3 79.26 40.36 81.37 40.43 82.36 40.47 83.47 40.51 85.57 40.62 85.94 40.69 86.56 40.69 87.18 40.76 89.16 40.97 89.65 41.15 90.27 41.27 90.77 41.27 91.26 41.29 91.63 41.34 93.12 41.4 94.6 41.49"/>
      </g>
      <g stroke-width="0.3" fill="#000000" fill-opacity="0.000" class="geometry color_newtests_fail" stroke-dasharray="none" stroke="#FF0000" id="fig-d378f94b8cc94626a42c159652f082ae-element-12">
        <path fill="none" d="M76.91,42.78 L 77.04 42.62 77.16 42.58 77.29 42.53 77.41 42.44 77.53 42.59 77.66 42.39 77.78 42.55 78.15 42.44 78.4 42.4 78.65 42.35 78.77 42.51 78.89 40.89 79.02 42.44 79.14 42.14 79.26 42.19 81.37 42.47 82.36 42.54 83.47 42.18 85.57 41.44 85.94 41.69 86.56 41.98 87.18 42.23 89.16 42.24 89.65 42.03 90.27 42.24 90.77 42.29 91.26 42.16 91.63 42.17 93.12 42.08 94.6 42"/>
      </g>
      <g stroke-width="0.3" fill="#000000" fill-opacity="0.000" class="geometry color_newtests_pass" stroke-dasharray="none" stroke="#008000" id="fig-d378f94b8cc94626a42c159652f082ae-element-13">
        <path fill="none" d="M76.91,25.9 L 77.04 26.06 77.16 26.07 77.29 26.12 77.41 26.19 77.53 26.03 77.66 26.24 77.78 26.07 78.15 26.17 78.4 26.18 78.65 26.2 78.77 26.06 78.89 27.57 79.02 26 79.14 26.29 79.26 26.18 81.37 25.82 82.36 25.69 83.47 25.99 85.57 26.56 85.94 26.24 86.56 26.08 87.18 25.9 89.16 25.63 89.65 25.64 90.27 25.3 90.77 25.24 91.26 25.35 91.63 25.31 93.12 25.34 94.6 25.37"/>
      </g>
      <g stroke-width="0.3" fill="#000000" fill-opacity="0.000" class="geometry color_newnot_possible" stroke-dasharray="none" stroke="#808080" id="fig-d378f94b8cc94626a42c159652f082ae-element-14">
        <path fill="none" d="M21.63,42.35 L 21.76 42.35 21.88 42.36 22 42.36 22.13 42.36 22.25 42.36 22.37 42.36 22.5 42.37 22.74 42.37 22.87 42.38 23.12 42.39 23.36 42.41 23.49 42.41 23.73 42.41 23.86 42.42 24.72 42.47 25.09 42.47 25.34 42.47 26.21 42.58 26.33 42.6 26.45 42.61 26.58 42.61 26.7 42.61 26.83 42.51 26.95 42.51 27.07 42.51 27.2 42.51 27.32 42.31 27.44 42.31 27.57 42.34 27.82 42.25 27.94 42.94 28.06 42.94 28.19 42.96 28.31 42.96 28.43 42.96 28.56 42.97 28.68 42.97 28.8 42.97 28.93 42.97 29.05 42.97 29.18 42.98 29.3 42.98 29.42 42.59 29.55 42.99 29.67 43 29.79 43 30.54 42.58 30.66 42.49 30.78 42.5 30.91 42.51 31.03 42.53 31.15 42.44 31.28 42.27 31.4 42.27 31.53 42.28 31.65 42.29 31.9 42.29 32.02 42.31 32.14 42.31 32.27 42.31 32.39 42.31 32.52 42.31 32.64 42.34 32.76 42.34 33.01 42.35 33.13 42.37 33.26 42.38 33.38 42.39 33.5 42.39 33.63 42.41 33.88 42.42 34 42.45 34.12 42.45 34.25 42.45 34.49 42.49 34.74 42.52 34.86 42.52 34.99 42.53 35.11 42.53 35.48 42.54 35.61 42.54 35.73 42.55 35.85 42.55 35.98 42.55 36.1 42.56 36.23 42.48 36.35 42.49 36.6 42.49 36.72 42.49 36.97 42.49 37.09 42.5 37.21 42.52 37.34 42.52 37.59 42.53 37.71 42.53 37.83 42.55 37.96 42.56 38.08 42.57 38.2 42.57 38.33 42.58 38.45 42.6 38.58 42.52 38.7 42.44 38.82 42.45 38.95 42.45 39.07 42.45 39.32 42.48 39.44 42.48 39.56 42.49 39.69 42.49 39.81 42.49 39.94 42.51 40.06 42.52 40.18 42.53 40.43 42.43 40.55 42.37 40.8 42.39 40.92 42.39 41.05 42.31 41.54 42.31 41.91 42.36 42.04 42.37 42.16 42.38 42.29 42.39 42.41 42.39 42.53 42.39 42.66 42.46 42.78 42.46 42.9 42.46 43.15 42.38 43.27 42.39 43.4 42.4 43.52 42.4 43.65 42.4 43.77 42.41 43.89 42.33 44.14 42.32 44.26 42.33 44.39 42.33 44.51 42.35 44.64 42.29 44.76 42.29 44.88 42.29 45.01 42.3 45.38 42.32 45.5 42.24 45.62 42.26 45.75 42.27 45.87 42.27 46 42.27 46.12 42.29 46.24 42.29 46.37 42.29 46.49 42.3 46.61 42.23 46.74 42.23 46.86 42.23 46.99 42.24 47.11 42.25 47.23 42.25 47.36 42.25 47.48 42.26 47.6 42.26 47.73 42.27 47.85 42.27 47.97 42.29 48.1 42.29 48.22 42.29 48.35 42.3 48.47 42.3 48.59 42.3 48.72 42.31 48.84 42.31 48.96 42.32 49.33 42.32 49.95 42.36 50.08 42.37 50.2 42.37 50.32 42.38 50.45 42.38 50.57 42.4 50.7 42.4 51.19 42.44 51.31 42.44 51.93 42.45 52.18 42.45 52.3 42.52 52.43 42.53 52.55 42.53 52.67 42.53 52.8 42.54 52.92 42.55 53.29 42.56 53.42 42.57 53.66 42.59 53.79 42.6 53.91 42.6 54.28 42.6 54.53 42.61 54.9 42.63 55.39 42.64 55.64 42.66 56.01 42.68 56.88 42.72 57.37 42.77 57.5 42.65 57.62 42.65 57.74 42.62 57.87 42.62 57.99 42.62 58.24 42.62 58.36 42.63 58.49 42.63 58.61 42.65 58.73 42.65 58.86 42.65 58.98 42.65 59.23 42.61 59.35 42.62 59.48 42.63 59.97 42.68 60.09 42.67 60.22 42.67 60.47 42.68 60.71 42.7 60.84 42.7 61.21 42.71 61.83 42.71 62.44 42.75 63.06 42.77 63.19 42.77 63.31 42.77 63.43 42.37 63.56 42.43 63.8 42.37 64.05 42.37 64.55 42.38 64.67 42.4 64.79 42.4 64.92 42.4 65.04 42.41 65.17 42.47 65.29 42.42 66.77 42.37 67.02 42.31 67.14 42.33 67.39 42.33 67.89 42.34 68.13 42.34 68.38 42.35 68.88 42.35 69.12 42.37 69.25 42.37 69.49 42.4 69.62 42.4 69.74 42.41 69.86 42.43 69.99 42.43 70.11 42.43 70.36 42.44 70.48 42.44 70.73 42.44 70.98 42.46 71.1 42.47 71.23 42.48 71.47 42.49 71.6 42.5 72.21 42.52 72.71 42.58 72.83 42.54 73.82 42.56 73.95 42.45 74.07 42.45 74.44 42.47 74.56 42.48 74.69 42.54 74.94 42.55 75.18 42.55 75.43 42.55 76.54 42.58"/>
      </g>
      <g stroke-width="0.3" fill="#000000" fill-opacity="0.000" class="geometry color_newtests_fail" stroke-dasharray="none" stroke="#FF0000" id="fig-d378f94b8cc94626a42c159652f082ae-element-15">
        <path fill="none" d="M21.63,41.51 L 21.76 41.51 21.88 39.95 22 41.62 22.13 41.52 22.25 39.84 22.37 39.84 22.5 39.86 22.74 41.53 22.87 41.55 23.12 41.67 23.36 41.69 23.49 41.69 23.73 41.8 23.86 41.81 24.72 41.96 25.09 41.96 25.34 41.96 26.21 41.87 26.33 42 26.45 41.81 26.58 41.81 26.7 41.91 26.83 42.01 26.95 41.91 27.07 41.91 27.2 41.91 27.32 42.01 27.44 42.01 27.57 41.85 27.82 41.96 27.94 41.76 28.06 41.96 28.19 42.18 28.31 42.18 28.43 42.27 28.56 42.29 28.68 42.19 28.8 42.29 28.93 42.29 29.05 42.29 29.18 42.39 29.3 42.39 29.42 42.81 29.55 42.79 29.67 42.8 29.79 42.81 30.54 43.43 30.66 43.53 30.78 43.54 30.91 43.55 31.03 43.47 31.15 43.56 31.28 43.57 31.4 43.57 31.53 43.49 31.65 41.74 31.9 43.49 32.02 43.6 32.14 43.6 32.27 43.6 32.39 43.6 32.52 43.6 32.64 43.62 32.76 43.62 33.01 43.62 33.13 43.64 33.26 43.55 33.38 43.56 33.5 43.56 33.63 43.57 33.88 43.58 34 43.42 34.12 43.42 34.25 43.42 34.49 43.28 34.74 41.57 34.86 41.49 34.99 43.3 35.11 43.22 35.48 43.4 35.61 43.4 35.73 43.4 35.85 43.4 35.98 43.49 36.1 43.58 36.23 43.58 36.35 43.59 36.6 43.59 36.72 43.67 36.97 43.59 37.09 43.68 37.21 43.7 37.34 43.7 37.59 43.7 37.71 43.7 37.83 43.55 37.96 43.64 38.08 43.64 38.2 43.56 38.33 43.57 38.45 43.42 38.58 43.5 38.7 43.67 38.82 41.39 38.95 41.88 39.07 41.88 39.32 43.77 39.44 43.85 39.56 43.77 39.69 43.86 39.81 43.77 39.94 43.79 40.06 43.95 40.18 43.72 40.43 43.99 40.55 44.08 40.8 43.93 40.92 43.93 41.05 44.01 41.54 44.01 41.91 44.43 42.04 44.44 42.16 44.44 42.29 44.52 42.41 44.6 42.53 44.6 42.66 44.63 42.78 44.63 42.9 44.63 43.15 44.47 43.27 44.47 43.4 44.4 43.52 44.48 43.65 44.4 43.77 44.25 43.89 44.33 44.14 44.4 44.26 44.48 44.39 44.48 44.51 44.41 44.64 44.4 44.76 44.42 44.88 44.49 45.01 44.5 45.38 44.5 45.5 44.5 45.62 44.51 45.75 44.59 45.87 44.59 46 44.59 46.12 44.59 46.24 44.59 46.37 44.45 46.49 44.38 46.61 44.38 46.74 44.23 46.86 44.38 46.99 44.38 47.11 44.39 47.23 44.39 47.36 44.39 47.48 44.31 47.6 44.39 47.73 44.32 47.85 44.39 47.97 44.32 48.1 44.4 48.22 44.4 48.35 44.4 48.47 44.48 48.59 44.48 48.72 44.55 48.84 44.55 48.96 44.34 49.33 44.63 49.95 44.57 50.08 44.57 50.2 44.57 50.32 44.65 50.45 44.72 50.57 44.58 50.7 44.58 51.19 44.53 51.31 44.6 51.93 44.6 52.18 44.6 52.3 44.18 52.43 44.4 52.55 44.6 52.67 44.6 52.8 44.61 52.92 44.54 53.29 44.48 53.42 44.48 53.66 44.42 53.79 44.49 53.91 44.49 54.28 44.49 54.53 44.56 54.9 44.57 55.39 44.57 55.64 44.58 56.01 44.59 56.88 44.54 57.37 44.43 57.5 44.56 57.62 44.56 57.74 44.32 57.87 44.32 57.99 44.38 58.24 44.38 58.36 44.33 58.49 44.33 58.61 44.27 58.73 44.34 58.86 44.34 58.98 44.34 59.23 44.35 59.35 44.35 59.48 44.35 59.97 44.19 60.09 44.19 60.22 44.19 60.47 44.14 60.71 44.08 60.84 44.08 61.21 44.09 61.83 44.09 62.44 44.17 63.06 42.48 63.19 43.06 63.31 43.47 63.43 44.19 63.56 44.19 63.8 44.19 64.05 44.19 64.55 44.19 64.67 44.14 64.79 44.14 64.92 44.14 65.04 44.15 65.17 44.14 65.29 44.09 66.77 44.04 67.02 44.1 67.14 44.22 67.39 44.22 67.89 44.11 68.13 44.22 68.38 44.17 68.88 44.17 69.12 44.18 69.25 44.13 69.49 44.03 69.62 44.03 69.74 44.03 69.86 44.1 69.99 43.98 70.11 43.99 70.36 43.99 70.48 44.05 70.73 43.99 70.98 44 71.1 43.9 71.23 43.9 71.47 43.96 71.6 43.91 72.21 43.87 72.71 43.77 72.83 43.77 73.82 43.57 73.95 43.57 74.07 43.57 74.44 43.59 74.56 43.59 74.69 43.65 74.94 43.71 75.18 43.65 75.43 43.66 76.54 43.78"/>
      </g>
      <g stroke-width="0.3" fill="#000000" fill-opacity="0.000" class="geometry color_newno_tests" stroke-dasharray="none" stroke="#0000FF" id="fig-d378f94b8cc94626a42c159652f082ae-element-16">
        <path fill="none" d="M21.63,40.04 L 21.76 40.04 21.88 40.05 22 40.05 22.13 40.05 22.25 40.16 22.37 40.16 22.5 40.07 22.74 39.97 22.87 39.99 23.12 40.01 23.36 39.84 23.49 39.84 23.73 39.84 23.86 39.86 24.72 39.93 25.09 39.93 25.34 39.93 26.21 39.85 26.33 39.89 26.45 39.91 26.58 39.91 26.7 39.91 26.83 39.91 26.95 39.91 27.07 39.91 27.2 39.91 27.32 40.11 27.44 40.11 27.57 40.16 27.82 40.28 27.94 40.28 28.06 40.28 28.19 40.21 28.31 40.21 28.43 40.41 28.56 40.53 28.68 40.53 28.8 40.53 28.93 40.53 29.05 40.53 29.18 40.54 29.3 40.54 29.42 39.36 29.55 40.27 29.67 40.28 29.79 40.3 30.54 40.4 30.66 40.42 30.78 40.43 30.91 40.54 31.03 40.57 31.15 40.57 31.28 40.6 31.4 40.7 31.53 40.71 31.65 41 31.9 40.91 32.02 40.75 32.14 40.75 32.27 40.75 32.39 40.75 32.52 40.75 32.64 40.8 32.76 40.8 33.01 40.9 33.13 40.84 33.26 40.86 33.38 40.87 33.5 41.05 33.63 41.08 33.88 41.09 34 41.13 34.12 41.13 34.25 41.13 34.49 41.02 34.74 41.32 34.86 41.23 34.99 41.16 35.11 41.16 35.48 41.17 35.61 41.17 35.73 41.18 35.85 41.18 35.98 41.27 36.1 41.28 36.23 41.29 36.35 41.39 36.6 41.39 36.72 41.39 36.97 41.39 37.09 41.4 37.21 41.43 37.34 41.43 37.59 41.28 37.71 41.36 37.83 41.38 37.96 41.31 38.08 41.33 38.2 41.34 38.33 41.35 38.45 41.37 38.58 41.37 38.7 41.38 38.82 41.88 38.95 41.88 39.07 41.88 39.32 41.35 39.44 41.35 39.56 41.44 39.69 41.44 39.81 41.52 39.94 41.47 40.06 41.48 40.18 41.57 40.43 41.93 40.55 42.05 40.8 42.06 40.92 42.06 41.05 42.06 41.54 42.06 41.91 42.04 42.04 42.05 42.16 41.98 42.29 42 42.41 42 42.53 42.08 42.66 42.15 42.78 42.23 42.9 42.23 43.15 42.23 43.27 42.16 43.4 42.17 43.52 42.17 43.65 42.17 43.77 42.25 43.89 42.25 44.14 42.17 44.26 42.18 44.39 42.18 44.51 42.19 44.64 42.07 44.76 42.21 44.88 42.21 45.01 42.23 45.38 42.32 45.5 42.32 45.62 42.26 45.75 42.27 45.87 42.27 46 42.27 46.12 42.29 46.24 42.29 46.37 42.29 46.49 42.3 46.61 42.3 46.74 42.38 46.86 42.3 46.99 42.31 47.11 42.33 47.23 42.33 47.36 42.33 47.48 42.41 47.6 42.33 47.73 42.42 47.85 42.34 47.97 42.36 48.1 42.37 48.22 42.37 48.35 42.37 48.47 42.37 48.59 42.37 48.72 42.38 48.84 42.38 48.96 42.39 49.33 42.39 49.95 42.43 50.08 42.44 50.2 42.44 50.32 42.45 50.45 42.45 50.57 42.47 50.7 42.47 51.19 42.58 51.31 42.51 51.93 42.52 52.18 42.52 52.3 42.52 52.43 42.6 52.55 42.53 52.67 42.53 52.8 42.54 52.92 42.62 53.29 42.56 53.42 42.57 53.66 42.59 53.79 42.53 53.91 42.53 54.28 42.6 54.53 42.54 54.9 42.56 55.39 42.64 55.64 42.59 56.01 42.62 56.88 42.66 57.37 42.7 57.5 42.71 57.62 42.71 57.74 42.81 57.87 42.74 57.99 42.74 58.24 42.74 58.36 42.82 58.49 42.82 58.61 42.84 58.73 42.78 58.86 42.78 58.98 42.78 59.23 42.8 59.35 42.81 59.48 42.81 59.97 42.86 60.09 42.85 60.22 42.85 60.47 42.86 60.71 42.88 60.84 42.88 61.21 42.89 61.83 42.89 62.44 42.92 63.06 43.12 63.19 43.06 63.31 43.06 63.43 43.07 63.56 43.01 63.8 43.01 64.05 43.01 64.55 43.02 64.67 43.03 64.79 43.1 64.92 43.1 65.04 43.11 65.17 43.1 65.29 43.11 66.77 43.17 67.02 43.17 67.14 43.19 67.39 43.25 67.89 43.25 68.13 43.25 68.38 43.26 68.88 43.26 69.12 43.27 69.25 43.28 69.49 43.3 69.62 43.3 69.74 43.3 69.86 43.32 69.99 43.32 70.11 43.32 70.36 43.32 70.48 43.33 70.73 43.38 70.98 43.34 71.1 43.35 71.23 43.35 71.47 43.42 71.6 43.37 72.21 43.44 72.71 43.44 72.83 43.45 73.82 43.47 73.95 43.47 74.07 43.47 74.44 43.53 74.56 43.54 74.69 43.49 74.94 43.49 75.18 43.49 75.43 43.55 76.54 43.52"/>
      </g>
      <g stroke-width="0.3" fill="#000000" fill-opacity="0.000" class="geometry color_oldfull_fail" stroke-dasharray="none" stroke="#FFA500" id="fig-d378f94b8cc94626a42c159652f082ae-element-17">
        <path fill="none" d="M21.63,41.4 L 21.76 41.4 21.88 42.15 22 41 22.13 41.1 22.25 41.94 22.37 41.73 22.5 41.95 22.74 40.49 22.87 40.51 23.12 40.42 23.36 40.87 23.49 40.66 23.73 40.97 23.86 40.88 24.72 41.15 25.09 41.15 25.34 41.15 26.21 41.06 26.33 40.89 26.45 39.91 26.58 39.91 26.7 40.41 26.83 40.41 26.95 40.71 27.07 40.71 27.2 40.71 27.32 41.11 27.44 41.11 27.57 41.65 27.82 41.66 27.94 41.56 28.06 41.36 28.19 41.49 28.31 41.49 28.43 41.69 28.56 41.7 28.68 41.7 28.8 41.5 28.93 41.89 29.05 41.8 29.18 41.71 29.3 41.52 29.42 45.71 29.55 41.92 29.67 41.45 29.79 41.65 30.54 41.54 30.66 41.93 30.78 42.32 30.91 42.33 31.03 42.25 31.15 42.63 31.28 42.55 31.4 42.55 31.53 42.65 31.65 42.94 31.9 42.48 32.02 42.59 32.14 42.77 32.27 42.59 32.39 42.77 32.52 42.77 32.64 42.44 32.76 42.53 33.01 42.9 33.13 42.91 33.26 42.92 33.38 42.84 33.5 42.75 33.63 42.95 33.88 42.95 34 43.07 34.12 43.15 34.25 43.15 34.49 43.02 34.74 42.44 34.86 42.87 34.99 42.79 35.11 42.79 35.48 42.8 35.61 42.8 35.73 42.55 35.85 42.72 35.98 42.63 36.1 42.64 36.23 42.82 36.35 42.74 36.6 42.83 36.72 42.91 36.97 42.91 37.09 42.92 37.21 42.94 37.34 42.94 37.59 42.95 37.71 42.95 37.83 42.96 37.96 42.89 38.08 42.9 38.2 42.82 38.33 42.99 38.45 42.84 38.58 42.76 38.7 42.77 38.82 42.61 38.95 42.53 39.07 42.61 39.32 42.48 39.44 42.56 39.56 42.81 39.69 42.57 39.81 42.57 39.94 42.67 40.06 42.44 40.18 42.53 40.43 42.84 40.55 42.78 40.8 42.79 40.92 42.79 41.05 42.79 41.54 42.79 41.91 42.76 42.04 42.69 42.16 42.77 42.29 42.63 42.41 42.63 42.53 42.87 42.66 42.54 42.78 42.46 42.9 42.46 43.15 42.54 43.27 42.7 43.4 42.63 43.52 42.71 43.65 42.71 43.77 42.56 43.89 42.71 44.14 42.86 44.26 42.87 44.39 42.87 44.51 42.88 44.64 42.8 44.76 42.97 44.88 42.97 45.01 42.98 45.38 42.55 45.5 42.77 45.62 42.79 45.75 42.94 45.87 42.79 46 42.94 46.12 42.96 46.24 42.88 46.37 42.89 46.49 42.82 46.61 43.04 46.74 42.97 46.86 42.89 46.99 42.98 47.11 42.99 47.23 42.91 47.36 43.06 47.48 42.85 47.6 42.85 47.73 43 47.85 42.93 47.97 42.87 48.1 42.87 48.22 42.87 48.35 42.81 48.47 42.88 48.59 43.03 48.72 42.82 48.84 42.89 48.96 42.89 49.33 42.75 49.95 42.78 50.08 42.66 50.2 42.66 50.32 42.52 50.45 42.59 50.57 42.82 50.7 42.82 51.19 42.79 51.31 42.79 51.93 42.65 52.18 42.65 52.3 42.38 52.43 42.53 52.55 42.6 52.67 42.74 52.8 42.75 52.92 42.62 53.29 42.5 53.42 42.5 53.66 42.46 53.79 42.26 53.91 42.6 54.28 42.53 54.53 42.68 54.9 42.63 55.39 42.51 55.64 42.66 56.01 42.42 56.88 42.33 57.37 42.45 57.5 42.46 57.62 42.46 57.74 42.18 57.87 42.05 57.99 41.99 58.24 42.11 58.36 42.13 58.49 42.13 58.61 42.09 58.73 41.91 58.86 42.22 58.98 42.22 59.23 42.24 59.35 42.25 59.48 42.32 59.97 42.19 60.09 42.3 60.22 42.12 60.47 42.56 60.71 42.58 60.84 42.52 61.21 42.41 61.83 42.41 62.44 42.51 63.06 42.06 63.19 41.83 63.31 41.89 63.43 41.84 63.56 42.14 63.8 42.08 64.05 42.14 64.55 41.92 64.67 41.99 64.79 42.17 64.92 42.05 65.04 42.12 65.17 42 65.29 42.19 66.77 42.14 67.02 42.2 67.14 42.04 67.39 42.21 67.89 42.34 68.13 42.28 68.38 42.01 68.88 42.18 69.12 42.08 69.25 42.54 69.49 42.68 69.62 42.51 69.74 42.58 69.86 42.48 69.99 42.54 70.11 42.77 70.36 42.6 70.48 42.55 70.73 42.72 70.98 42.68 71.1 42.58 71.23 42.7 71.47 42.6 71.6 42.55 72.21 42.41 72.71 42.58 72.83 42.59 73.82 42.67 73.95 42.72 74.07 42.67 74.44 42.9 74.56 42.9 74.69 42.85 74.94 42.6 75.18 42.7 75.43 42.66 76.54 42.79"/>
      </g>
      <g stroke-width="0.3" fill="#000000" fill-opacity="0.000" class="geometry color_newtests_pass" stroke-dasharray="none" stroke="#008000" id="fig-d378f94b8cc94626a42c159652f082ae-element-18">
        <path fill="none" d="M21.63,32.16 L 21.76 32.16 21.88 32.93 22 32.41 22.13 32.41 22.25 33.14 22.37 33.35 22.5 33.19 22.74 33.08 22.87 33.02 23.12 32.96 23.36 32.63 23.49 32.84 23.73 32.43 23.86 32.47 24.72 31.93 25.09 31.93 25.34 31.93 26.21 32.08 26.33 32.07 26.45 33.21 26.58 33.21 26.7 32.61 26.83 32.61 26.95 32.41 27.07 32.41 27.2 32.41 27.32 31.91 27.44 31.91 27.57 31.45 27.82 31.3 27.94 30.9 28.06 30.9 28.19 30.6 28.31 30.6 28.43 30.11 28.56 29.96 28.68 30.06 28.8 30.16 28.93 29.77 29.05 29.87 29.18 29.82 29.3 30.01 29.42 26.98 29.55 29.48 29.67 29.92 29.79 29.68 30.54 29.5 30.66 29.07 30.78 28.65 30.91 28.52 31.03 28.62 31.15 28.25 31.28 28.44 31.4 28.35 31.53 28.31 31.65 29.47 31.9 28.27 32.02 28.19 32.14 28 32.27 28.19 32.39 28 32.52 28 32.64 28.25 32.76 28.16 33.01 27.67 33.13 27.68 33.26 27.73 33.38 27.79 33.5 27.7 33.63 27.44 33.88 27.41 34 27.39 34.12 27.3 34.25 27.3 34.49 27.64 34.74 29.6 34.86 29.34 34.99 27.67 35.11 27.75 35.48 27.55 35.61 27.55 35.73 27.77 35.85 27.6 35.98 27.51 36.1 27.39 36.23 27.27 36.35 27.24 36.6 27.15 36.72 26.98 36.97 27.07 37.09 26.95 37.21 26.85 37.34 26.85 37.59 26.98 37.71 26.9 37.83 27 37.96 27.05 38.08 27.02 38.2 27.15 38.33 26.95 38.45 27.21 38.58 27.3 38.7 27.18 38.82 29.1 38.95 28.69 39.07 28.61 39.32 27.37 39.44 27.21 39.56 26.94 39.69 27.1 39.81 27.1 39.94 27 40.06 27.05 40.18 27.1 40.43 26.26 40.55 26.17 40.8 26.27 40.92 26.27 41.05 26.27 41.54 26.27 41.91 25.85 42.04 25.91 42.16 25.88 42.29 25.9 42.41 25.82 42.53 25.5 42.66 25.67 42.78 25.67 42.9 25.67 43.15 25.83 43.27 25.72 43.4 25.85 43.52 25.7 43.65 25.77 43.77 25.98 43.89 25.82 44.14 25.7 44.26 25.59 44.39 25.59 44.51 25.61 44.64 25.9 44.76 25.56 44.88 25.48 45.01 25.43 45.38 25.76 45.5 25.6 45.62 25.63 45.75 25.38 45.87 25.53 46 25.38 46.12 25.32 46.24 25.4 46.37 25.52 46.49 25.64 46.61 25.5 46.74 25.64 46.86 25.64 46.99 25.54 47.11 25.49 47.23 25.57 47.36 25.42 47.48 25.61 47.6 25.61 47.73 25.44 47.85 25.51 47.97 25.61 48.1 25.51 48.22 25.51 48.35 25.56 48.47 25.41 48.59 25.27 48.72 25.39 48.84 25.31 48.96 25.51 49.33 25.36 49.95 25.31 50.08 25.4 50.2 25.4 50.32 25.45 50.45 25.31 50.57 25.16 50.7 25.16 51.19 25.12 51.31 25.12 51.93 25.23 52.18 25.23 52.3 25.83 52.43 25.39 52.55 25.18 52.67 25.05 52.8 25 52.92 25.11 53.29 25.34 53.42 25.32 53.66 25.38 53.79 25.56 53.91 25.23 54.28 25.23 54.53 25.04 54.9 25.07 55.39 25.09 55.64 24.96 56.01 25.13 56.88 25.19 57.37 25.11 57.5 25.06 57.62 25.06 57.74 25.52 57.87 25.71 57.99 25.71 58.24 25.59 58.36 25.54 58.49 25.54 58.61 25.6 58.73 25.77 58.86 25.45 58.98 25.45 59.23 25.45 59.35 25.41 59.48 25.33 59.97 25.52 60.09 25.44 60.22 25.63 60.47 25.2 60.71 25.2 60.84 25.26 61.21 25.34 61.83 25.34 62.44 25.1 63.06 27.02 63.19 26.72 63.31 26.25 63.43 25.97 63.56 25.68 63.8 25.8 64.05 25.74 64.55 25.93 64.67 25.89 64.79 25.63 64.92 25.75 65.04 25.65 65.17 25.73 65.29 25.63 66.77 25.73 67.02 25.67 67.14 25.66 67.39 25.44 67.89 25.42 68.13 25.36 68.38 25.64 68.88 25.47 69.12 25.54 69.25 25.13 69.49 25.03 69.62 25.2 69.74 25.13 69.86 25.13 69.99 25.18 70.11 24.94 70.36 25.09 70.48 25.07 70.73 24.9 70.98 24.98 71.1 25.14 71.23 25.01 71.47 24.98 71.6 25.12 72.21 25.21 72.71 25.07 72.83 25.08 73.82 25.17 73.95 25.23 74.07 25.28 74.44 24.96 74.56 24.94 74.69 24.92 74.94 25.1 75.18 25.05 75.43 25.03 76.54 24.79"/>
      </g>
    </g>
  </g>
  <g class="guide ylabels" font-size="2.82" font-family="'PT Sans Caption','Helvetica Neue','Helvetica',sans-serif" fill="#6C606B" id="fig-d378f94b8cc94626a42c159652f082ae-element-19">
    <text x="18.63" y="45.71" text-anchor="end" dy="0.35em">0</text>
    <text x="18.63" y="30.16" text-anchor="end" dy="0.35em">50</text>
    <text x="18.63" y="14.61" text-anchor="end" dy="0.35em">100</text>
  </g>
  <g font-size="3.88" font-family="'PT Sans','Helvetica Neue','Helvetica',sans-serif" fill="#564A55" stroke="#000000" stroke-opacity="0.000" id="fig-d378f94b8cc94626a42c159652f082ae-element-20">
    <text x="8.81" y="28.16" text-anchor="middle" dy="0.35em" transform="rotate(-90, 8.81, 30.16)">Percentage of Packages</text>
  </g>
  <g font-size="3.88" font-family="'PT Sans','Helvetica Neue','Helvetica',sans-serif" fill="#564A55" stroke="#000000" stroke-opacity="0.000" id="fig-d378f94b8cc94626a42c159652f082ae-element-21">
    <text x="58.12" y="10.61" text-anchor="middle">Julia v0.3 (relative)</text>
  </g>
</g>
<defs>
<clipPath id="fig-d378f94b8cc94626a42c159652f082ae-element-5">
  <path d="M19.63,12.61 L 96.6 12.61 96.6 47.71 19.63 47.71" />
</clipPath
></defs>
</svg>
