<?xml version="1.0" encoding="UTF-8"?>
<svg xmlns="http://www.w3.org/2000/svg"
     xmlns:xlink="http://www.w3.org/1999/xlink"
     xmlns:gadfly="http://www.gadflyjl.org/ns"
     version="1.2"
     width="101.6mm" height="76.2mm" viewBox="0 0 101.6 76.2"
     stroke="none"
     fill="#000000"
     stroke-width="0.3"
     font-size="3.88"
>
<g class="plotroot xscalable yscalable" id="img-b2bd85c0-1">
  <g font-size="3.88" font-family="'PT Sans','Helvetica Neue','Helvetica',sans-serif" fill="#564A55" stroke="#000000" stroke-opacity="0.000" id="img-b2bd85c0-2">
    <text x="58.12" y="64.59" text-anchor="middle" dy="0.6em">Date</text>
  </g>
  <g class="guide xlabels" font-size="2.82" font-family="'PT Sans Caption','Helvetica Neue','Helvetica',sans-serif" fill="#6C606B" id="img-b2bd85c0-3">
    <text x="21.87" y="48.71" text-anchor="end" dy="0.35em" transform="rotate(-90, 21.87, 48.71)">Apr</text>
    <text x="25.48" y="48.71" text-anchor="end" dy="0.35em" transform="rotate(-90, 25.48, 48.71)">May</text>
    <text x="29.22" y="48.71" text-anchor="end" dy="0.35em" transform="rotate(-90, 29.22, 48.71)">Jun</text>
    <text x="32.83" y="48.71" text-anchor="end" dy="0.35em" transform="rotate(-90, 32.83, 48.71)">Jul</text>
    <text x="36.56" y="48.71" text-anchor="end" dy="0.35em" transform="rotate(-90, 36.56, 48.71)">Aug</text>
    <text x="40.3" y="48.71" text-anchor="end" dy="0.35em" transform="rotate(-90, 40.3, 48.71)">Sep</text>
    <text x="43.91" y="48.71" text-anchor="end" dy="0.35em" transform="rotate(-90, 43.91, 48.71)">Oct</text>
    <text x="47.64" y="48.71" text-anchor="end" dy="0.35em" transform="rotate(-90, 47.64, 48.71)">Nov</text>
    <text x="51.25" y="48.71" text-anchor="end" dy="0.35em" transform="rotate(-90, 51.25, 48.71)">Dec</text>
    <text x="54.99" y="48.71" text-anchor="end" dy="0.35em" transform="rotate(-90, 54.99, 48.71)">Jan 2015</text>
    <text x="58.72" y="48.71" text-anchor="end" dy="0.35em" transform="rotate(-90, 58.72, 48.71)">Feb</text>
    <text x="62.09" y="48.71" text-anchor="end" dy="0.35em" transform="rotate(-90, 62.09, 48.71)">Mar</text>
    <text x="65.82" y="48.71" text-anchor="end" dy="0.35em" transform="rotate(-90, 65.82, 48.71)">Apr</text>
    <text x="69.43" y="48.71" text-anchor="end" dy="0.35em" transform="rotate(-90, 69.43, 48.71)">May</text>
    <text x="73.17" y="48.71" text-anchor="end" dy="0.35em" transform="rotate(-90, 73.17, 48.71)">Jun</text>
    <text x="76.78" y="48.71" text-anchor="end" dy="0.35em" transform="rotate(-90, 76.78, 48.71)">Jul</text>
    <text x="80.51" y="48.71" text-anchor="end" dy="0.35em" transform="rotate(-90, 80.51, 48.71)">Aug</text>
    <text x="84.24" y="48.71" text-anchor="end" dy="0.35em" transform="rotate(-90, 84.24, 48.71)">Sep</text>
    <text x="87.86" y="48.71" text-anchor="end" dy="0.35em" transform="rotate(-90, 87.86, 48.71)">Oct</text>
    <text x="91.59" y="48.71" text-anchor="end" dy="0.35em" transform="rotate(-90, 91.59, 48.71)">Nov</text>
  </g>
<g clip-path="url(#img-b2bd85c0-4)">
  <g id="img-b2bd85c0-5">
    <g pointer-events="visible" opacity="1" fill="#000000" fill-opacity="0.000" stroke="#000000" stroke-opacity="0.000" class="guide background" id="img-b2bd85c0-6">
      <rect x="19.63" y="12.61" width="76.97" height="35.1"/>
    </g>
    <g class="guide ygridlines xfixed" stroke-dasharray="0.5,0.5" stroke-width="0.2" stroke="#D0D0E0" id="img-b2bd85c0-7">
      <path fill="none" d="M19.63,45.71 L 96.6 45.71"/>
      <path fill="none" d="M19.63,39.49 L 96.6 39.49"/>
      <path fill="none" d="M19.63,33.27 L 96.6 33.27"/>
      <path fill="none" d="M19.63,27.05 L 96.6 27.05"/>
      <path fill="none" d="M19.63,20.83 L 96.6 20.83"/>
      <path fill="none" d="M19.63,14.61 L 96.6 14.61"/>
    </g>
    <g class="guide xgridlines yfixed" stroke-dasharray="0.5,0.5" stroke-width="0.2" stroke="#D0D0E0" id="img-b2bd85c0-8">
      <path fill="none" d="M21.87,12.61 L 21.87 47.71"/>
      <path fill="none" d="M25.48,12.61 L 25.48 47.71"/>
      <path fill="none" d="M29.22,12.61 L 29.22 47.71"/>
      <path fill="none" d="M32.83,12.61 L 32.83 47.71"/>
      <path fill="none" d="M36.56,12.61 L 36.56 47.71"/>
      <path fill="none" d="M40.3,12.61 L 40.3 47.71"/>
      <path fill="none" d="M43.91,12.61 L 43.91 47.71"/>
      <path fill="none" d="M47.64,12.61 L 47.64 47.71"/>
      <path fill="none" d="M51.25,12.61 L 51.25 47.71"/>
      <path fill="none" d="M54.99,12.61 L 54.99 47.71"/>
      <path fill="none" d="M58.72,12.61 L 58.72 47.71"/>
      <path fill="none" d="M62.09,12.61 L 62.09 47.71"/>
      <path fill="none" d="M65.82,12.61 L 65.82 47.71"/>
      <path fill="none" d="M69.43,12.61 L 69.43 47.71"/>
      <path fill="none" d="M73.17,12.61 L 73.17 47.71"/>
      <path fill="none" d="M76.78,12.61 L 76.78 47.71"/>
      <path fill="none" d="M80.51,12.61 L 80.51 47.71"/>
      <path fill="none" d="M84.24,12.61 L 84.24 47.71"/>
      <path fill="none" d="M87.86,12.61 L 87.86 47.71"/>
      <path fill="none" d="M91.59,12.61 L 91.59 47.71"/>
    </g>
    <g class="plotpanel" id="img-b2bd85c0-9">
      <g stroke-width="0.3" fill="#000000" fill-opacity="0.000" class="geometry color_newnot_possible" stroke-dasharray="none" stroke="#808080" id="img-b2bd85c0-10">
        <path fill="none" d="M75.45,42.41 L 75.58 42.41 75.7 42.41 75.82 42.41 75.94 42.41 76.06 42.41 76.18 42.41 76.3 42.41 76.66 42.41 76.9 42.41 77.14 42.47 77.26 42.41 77.38 42.41 77.5 42.41 77.62 42.41 77.74 42.41 79.79 42.35 80.75 42.35 81.84 42.35 83.88 42.35 84.24 42.35 84.85 42.16 85.45 41.98 87.38 41.98 87.86 41.98 88.46 41.98 88.94 41.98 89.42 41.98 89.78 41.91 91.23 41.91 92.67 41.85 93.16 41.85 93.4 41.79 94.48 41.79 94.6 41.79"/>
      </g>
      <g stroke-width="0.3" fill="#000000" fill-opacity="0.000" class="geometry color_newno_tests" stroke-dasharray="none" stroke="#0000FF" id="img-b2bd85c0-11">
        <path fill="none" d="M75.45,39.05 L 75.58 39.05 75.7 39.05 75.82 39.05 75.94 39.05 76.06 39.05 76.18 39.05 76.3 39.05 76.66 39.05 76.9 39.05 77.14 39.05 77.26 39.05 77.38 39.12 77.5 39.12 77.62 39.12 77.74 39.18 79.79 39.12 80.75 39.12 81.84 39.12 83.88 39.12 84.24 39.18 84.85 39.18 85.45 39.24 87.38 39.43 87.86 39.61 88.46 39.74 88.94 39.74 89.42 39.74 89.78 39.8 91.23 39.86 92.67 39.99 93.16 39.99 93.4 39.99 94.48 39.99 94.6 39.99"/>
      </g>
      <g stroke-width="0.3" fill="#000000" fill-opacity="0.000" class="geometry color_newtests_fail" stroke-dasharray="none" stroke="#FF0000" id="img-b2bd85c0-12">
        <path fill="none" d="M75.45,42.23 L 75.58 42.04 75.7 41.98 75.82 41.91 75.94 41.79 76.06 41.98 76.18 41.73 76.3 41.91 76.66 41.79 76.9 41.73 77.14 41.67 77.26 41.85 77.38 39.86 77.5 41.73 77.62 41.35 77.74 41.42 79.79 41.67 80.75 41.73 81.84 41.23 83.88 40.17 84.24 40.48 84.85 40.86 85.45 41.17 87.38 41.11 87.86 40.8 88.46 41.04 88.94 41.11 89.42 40.92 89.78 40.92 91.23 40.8 92.67 40.67 93.16 41.11 93.4 41.11 94.48 41.17 94.6 41.11"/>
      </g>
      <g stroke-width="0.3" fill="#000000" fill-opacity="0.000" class="geometry color_newtests_pass" stroke-dasharray="none" stroke="#008000" id="img-b2bd85c0-13">
        <path fill="none" d="M75.45,22.14 L 75.58 22.32 75.7 22.26 75.82 22.32 75.94 22.32 76.06 22.14 76.18 22.39 76.3 22.14 76.66 22.26 76.9 22.2 77.14 22.26 77.26 22.01 77.38 23.69 77.5 21.7 77.62 22.01 77.74 21.89 79.79 20.89 80.75 20.52 81.84 20.71 83.88 20.89 84.24 20.4 84.85 20.15 85.45 19.84 87.38 19.09 87.86 18.9 88.46 18.28 88.94 18.16 89.42 18.22 89.78 18.09 91.23 18.09 92.67 18.09 93.16 17.78 93.4 17.72 94.48 17.66 94.6 17.72"/>
      </g>
      <g stroke-width="0.3" fill="#000000" fill-opacity="0.000" class="geometry color_newnot_possible" stroke-dasharray="none" stroke="#808080" id="img-b2bd85c0-14">
        <path fill="none" d="M21.63,43.72 L 21.75 43.72 21.87 43.72 21.99 43.72 22.11 43.72 22.23 43.72 22.35 43.72 22.47 43.72 22.72 43.72 22.84 43.72 23.08 43.72 23.32 43.72 23.44 43.72 23.68 43.72 23.8 43.72 24.64 43.72 25 43.72 25.24 43.72 26.09 43.78 26.21 43.78 26.33 43.78 26.45 43.78 26.57 43.78 26.69 43.72 26.81 43.72 26.93 43.72 27.05 43.72 27.17 43.59 27.29 43.59 27.41 43.59 27.65 43.53 27.77 43.97 27.89 43.97 28.01 43.97 28.13 43.97 28.25 43.97 28.37 43.97 28.5 43.97 28.62 43.97 28.74 43.97 28.86 43.97 28.98 43.97 29.1 43.97 29.22 43.97 29.34 43.97 29.46 43.97 29.58 43.97 30.3 43.66 30.42 43.59 30.54 43.59 30.66 43.59 30.78 43.59 30.9 43.53 31.02 43.41 31.14 43.41 31.26 43.41 31.38 43.41 31.63 43.41 31.75 43.41 31.87 43.41 31.99 43.41 32.11 43.41 32.23 43.41 32.35 43.41 32.47 43.41 32.71 43.41 32.83 43.41 32.95 43.41 33.07 43.41 33.19 43.41 33.31 43.41 33.55 43.41 33.67 43.41 33.79 43.41 33.91 43.41 34.15 43.41 34.4 43.41 34.52 43.41 34.64 43.41 34.76 43.41 35.12 43.41 35.24 43.41 35.36 43.41 35.48 43.41 35.6 43.41 35.72 43.41 35.84 43.34 35.96 43.34 36.2 43.34 36.32 43.34 36.56 43.34 36.68 43.34 36.8 43.34 36.92 43.34 37.16 43.34 37.28 43.34 37.41 43.34 37.53 43.34 37.65 43.34 37.77 43.34 37.89 43.34 38.01 43.34 38.13 43.28 38.25 43.22 38.37 43.22 38.49 43.22 38.61 43.22 38.85 43.22 38.97 43.22 39.09 43.22 39.21 43.22 39.33 43.22 39.45 43.22 39.57 43.22 39.69 43.22 39.93 43.22 40.05 43.16 40.3 43.16 40.42 43.16 40.54 43.1 41.02 43.1 41.38 43.1 41.5 43.1 41.62 43.1 41.74 43.1 41.86 43.1 41.98 43.1 42.1 43.1 42.22 43.1 42.34 43.1 42.58 43.03 42.7 43.03 42.82 43.03 42.94 43.03 43.06 43.03 43.19 43.03 43.31 42.97 43.55 42.97 43.67 42.97 43.79 42.97 43.91 42.97 44.03 42.79 44.15 42.91 44.27 42.91 44.39 42.91 44.75 42.91 44.87 42.85 44.99 42.85 45.11 42.85 45.23 42.85 45.35 42.85 45.47 42.85 45.59 42.85 45.71 42.85 45.83 42.85 45.95 42.79 46.07 42.79 46.2 42.79 46.32 42.79 46.44 42.79 46.56 42.79 46.68 42.79 46.8 42.79 46.92 42.79 47.04 42.79 47.16 42.79 47.28 42.79 47.4 42.79 47.52 42.79 47.64 42.79 47.76 42.79 47.88 42.79 48 42.79 48.12 42.79 48.24 42.79 48.6 42.79 49.21 42.79 49.33 42.79 49.45 42.79 49.57 42.79 49.69 42.79 49.81 42.79 49.93 42.79 50.41 42.79 50.53 42.79 51.13 42.79 51.37 42.79 51.49 42.85 51.61 42.85 51.73 42.85 51.85 42.85 51.97 42.85 52.1 42.85 52.46 42.85 52.58 42.85 52.82 42.85 52.94 42.85 53.06 42.85 53.42 42.85 53.66 42.85 54.02 42.85 54.5 42.85 54.74 42.85 55.11 42.85 55.95 42.85 56.43 42.85 56.55 42.72 56.67 42.72 56.79 42.66 56.91 42.66 57.03 42.66 57.27 42.66 57.39 42.66 57.51 42.66 57.63 42.66 57.75 42.66 57.88 42.66 58 42.66 58.24 42.6 58.36 42.6 58.48 42.6 58.96 42.6 59.08 42.6 59.2 42.6 59.44 42.6 59.68 42.6 59.8 42.6 60.16 42.6 60.76 42.6 61.37 42.6 61.97 42.6 62.09 42.6 62.21 42.6 62.33 42.16 62.45 42.23 62.69 42.16 62.93 42.16 63.41 42.16 63.53 42.16 63.65 42.16 63.78 42.16 63.9 42.16 64.02 42.23 64.14 42.16 65.58 42.1 65.82 42.04 65.94 42.04 66.18 42.04 66.66 42.04 66.91 42.04 67.15 42.04 67.63 42.04 67.87 42.04 67.99 42.04 68.23 42.04 68.35 42.04 68.47 42.04 68.59 42.04 68.71 42.04 68.83 42.04 69.07 42.04 69.19 42.04 69.43 42.04 69.68 42.04 69.8 42.04 69.92 42.04 70.16 42.04 70.28 42.04 70.88 42.04 71.36 42.1 71.48 42.04 72.44 42.04 72.57 41.91 72.69 41.91 73.05 41.91 73.17 41.91 73.29 41.98 73.53 41.98 73.77 41.98 74.01 41.98 75.09 41.98"/>
      </g>
      <g stroke-width="0.3" fill="#000000" fill-opacity="0.000" class="geometry color_newtests_fail" stroke-dasharray="none" stroke="#FF0000" id="img-b2bd85c0-15">
        <path fill="none" d="M21.63,43.22 L 21.75 43.22 21.87 42.29 21.99 43.28 22.11 43.22 22.23 42.23 22.35 42.23 22.47 42.23 22.72 43.22 22.84 43.22 23.08 43.28 23.32 43.28 23.44 43.28 23.68 43.34 23.8 43.34 24.64 43.41 25 43.41 25.24 43.41 26.09 43.34 26.21 43.41 26.33 43.28 26.45 43.28 26.57 43.34 26.69 43.41 26.81 43.34 26.93 43.34 27.05 43.34 27.17 43.41 27.29 43.41 27.41 43.28 27.65 43.34 27.77 43.22 27.89 43.34 28.01 43.47 28.13 43.47 28.25 43.53 28.37 43.53 28.5 43.47 28.62 43.53 28.74 43.53 28.86 43.53 28.98 43.59 29.1 43.59 29.22 44.09 29.34 43.84 29.46 43.84 29.58 43.84 30.3 44.22 30.42 44.28 30.54 44.28 30.66 44.28 30.78 44.22 30.9 44.28 31.02 44.28 31.14 44.28 31.26 44.22 31.38 43.03 31.63 44.22 31.75 44.28 31.87 44.28 31.99 44.28 32.11 44.28 32.23 44.28 32.35 44.28 32.47 44.28 32.71 44.28 32.83 44.28 32.95 44.22 33.07 44.22 33.19 44.22 33.31 44.22 33.55 44.22 33.67 44.09 33.79 44.09 33.91 44.09 34.15 43.97 34.4 42.72 34.52 42.66 34.64 43.97 34.76 43.9 35.12 44.03 35.24 44.03 35.36 44.03 35.48 44.03 35.6 44.09 35.72 44.15 35.84 44.15 35.96 44.15 36.2 44.15 36.32 44.22 36.56 44.15 36.68 44.22 36.8 44.22 36.92 44.22 37.16 44.22 37.28 44.22 37.41 44.09 37.53 44.15 37.65 44.15 37.77 44.09 37.89 44.09 38.01 43.97 38.13 44.03 38.25 44.15 38.37 42.41 38.49 42.79 38.61 42.79 38.85 44.22 38.97 44.28 39.09 44.22 39.21 44.28 39.33 44.22 39.45 44.22 39.57 44.34 39.69 44.15 39.93 44.4 40.05 44.46 40.3 44.34 40.42 44.34 40.54 44.4 41.02 44.4 41.38 44.71 41.5 44.71 41.62 44.71 41.74 44.78 41.86 44.84 41.98 44.84 42.1 44.84 42.22 44.84 42.34 44.84 42.58 44.71 42.7 44.71 42.82 44.65 42.94 44.71 43.06 44.65 43.19 44.53 43.31 44.59 43.55 44.65 43.67 44.71 43.79 44.71 43.91 44.65 44.03 44.59 44.15 44.65 44.27 44.71 44.39 44.71 44.75 44.71 44.87 44.71 44.99 44.71 45.11 44.78 45.23 44.78 45.35 44.78 45.47 44.78 45.59 44.78 45.71 44.65 45.83 44.59 45.95 44.59 46.07 44.46 46.2 44.59 46.32 44.59 46.44 44.59 46.56 44.59 46.68 44.59 46.8 44.53 46.92 44.59 47.04 44.53 47.16 44.59 47.28 44.53 47.4 44.59 47.52 44.59 47.64 44.59 47.76 44.65 47.88 44.65 48 44.71 48.12 44.71 48.24 44.53 48.6 44.78 49.21 44.71 49.33 44.71 49.45 44.71 49.57 44.78 49.69 44.84 49.81 44.71 49.93 44.71 50.41 44.65 50.53 44.71 51.13 44.71 51.37 44.71 51.49 44.34 51.61 44.53 51.73 44.71 51.85 44.71 51.97 44.71 52.1 44.65 52.46 44.59 52.58 44.59 52.82 44.53 52.94 44.59 53.06 44.59 53.42 44.59 53.66 44.65 54.02 44.65 54.5 44.65 54.74 44.65 55.11 44.65 55.95 44.59 56.43 44.46 56.55 44.59 56.67 44.59 56.79 44.34 56.91 44.34 57.03 44.4 57.27 44.4 57.39 44.34 57.51 44.34 57.63 44.28 57.75 44.34 57.88 44.34 58 44.34 58.24 44.34 58.36 44.34 58.48 44.34 58.96 44.15 59.08 44.15 59.2 44.15 59.44 44.09 59.68 44.03 59.8 44.03 60.16 44.03 60.76 44.03 61.37 44.09 61.97 42.29 62.09 42.91 62.21 43.34 62.33 44.09 62.45 44.09 62.69 44.09 62.93 44.09 63.41 44.09 63.53 44.03 63.65 44.03 63.78 44.03 63.9 44.03 64.02 44.03 64.14 43.97 65.58 43.9 65.82 43.97 65.94 44.09 66.18 44.09 66.66 43.97 66.91 44.09 67.15 44.03 67.63 44.03 67.87 44.03 67.99 43.97 68.23 43.84 68.35 43.84 68.47 43.84 68.59 43.9 68.71 43.78 68.83 43.78 69.07 43.78 69.19 43.84 69.43 43.78 69.68 43.78 69.8 43.66 69.92 43.66 70.16 43.72 70.28 43.66 70.88 43.59 71.36 43.47 71.48 43.47 72.44 43.22 72.57 43.22 72.69 43.22 73.05 43.22 73.17 43.22 73.29 43.28 73.53 43.34 73.77 43.28 74.01 43.28 75.09 43.41"/>
      </g>
      <g stroke-width="0.3" fill="#000000" fill-opacity="0.000" class="geometry color_newno_tests" stroke-dasharray="none" stroke="#0000FF" id="img-b2bd85c0-16">
        <path fill="none" d="M21.63,42.35 L 21.75 42.35 21.87 42.35 21.99 42.35 22.11 42.35 22.23 42.41 22.35 42.41 22.47 42.35 22.72 42.29 22.84 42.29 23.08 42.29 23.32 42.16 23.44 42.16 23.68 42.16 23.8 42.16 24.64 42.16 25 42.16 25.24 42.16 26.09 42.1 26.21 42.1 26.33 42.1 26.45 42.1 26.57 42.1 26.69 42.1 26.81 42.1 26.93 42.1 27.05 42.1 27.17 42.23 27.29 42.23 27.41 42.23 27.65 42.29 27.77 42.29 27.89 42.29 28.01 42.23 28.13 42.23 28.25 42.35 28.37 42.41 28.5 42.41 28.62 42.41 28.74 42.41 28.86 42.41 28.98 42.41 29.1 42.41 29.22 42.16 29.34 42.23 29.46 42.23 29.58 42.23 30.3 42.23 30.42 42.23 30.54 42.23 30.66 42.29 30.78 42.29 30.9 42.29 31.02 42.29 31.14 42.35 31.26 42.35 31.38 42.54 31.63 42.47 31.75 42.35 31.87 42.35 31.99 42.35 32.11 42.35 32.23 42.35 32.35 42.35 32.47 42.35 32.71 42.41 32.83 42.35 32.95 42.35 33.07 42.35 33.19 42.47 33.31 42.47 33.55 42.47 33.67 42.47 33.79 42.47 33.91 42.47 34.15 42.35 34.4 42.54 34.52 42.47 34.64 42.41 34.76 42.41 35.12 42.41 35.24 42.41 35.36 42.41 35.48 42.41 35.6 42.47 35.72 42.47 35.84 42.47 35.96 42.54 36.2 42.54 36.32 42.54 36.56 42.54 36.68 42.54 36.8 42.54 36.92 42.54 37.16 42.41 37.28 42.47 37.41 42.47 37.53 42.41 37.65 42.41 37.77 42.41 37.89 42.41 38.01 42.41 38.13 42.41 38.25 42.41 38.37 42.79 38.49 42.79 38.61 42.79 38.85 42.35 38.97 42.35 39.09 42.41 39.21 42.41 39.33 42.47 39.45 42.41 39.57 42.41 39.69 42.47 39.93 42.85 40.05 42.91 40.3 42.91 40.42 42.91 40.54 42.91 41.02 42.91 41.38 42.85 41.5 42.85 41.62 42.79 41.74 42.79 41.86 42.79 41.98 42.85 42.1 42.85 42.22 42.91 42.34 42.91 42.58 42.91 42.7 42.85 42.82 42.85 42.94 42.85 43.06 42.85 43.19 42.91 43.31 42.91 43.55 42.85 43.67 42.85 43.79 42.85 43.91 42.85 44.03 42.6 44.15 42.85 44.27 42.85 44.39 42.85 44.75 42.91 44.87 42.91 44.99 42.85 45.11 42.85 45.23 42.85 45.35 42.85 45.47 42.85 45.59 42.85 45.71 42.85 45.83 42.85 45.95 42.85 46.07 42.91 46.2 42.85 46.32 42.85 46.44 42.85 46.56 42.85 46.68 42.85 46.8 42.91 46.92 42.85 47.04 42.91 47.16 42.85 47.28 42.85 47.4 42.85 47.52 42.85 47.64 42.85 47.76 42.85 47.88 42.85 48 42.85 48.12 42.85 48.24 42.85 48.6 42.85 49.21 42.85 49.33 42.85 49.45 42.85 49.57 42.85 49.69 42.85 49.81 42.85 49.93 42.85 50.41 42.91 50.53 42.85 51.13 42.85 51.37 42.85 51.49 42.85 51.61 42.91 51.73 42.85 51.85 42.85 51.97 42.85 52.1 42.91 52.46 42.85 52.58 42.85 52.82 42.85 52.94 42.79 53.06 42.79 53.42 42.85 53.66 42.79 54.02 42.79 54.5 42.85 54.74 42.79 55.11 42.79 55.95 42.79 56.43 42.79 56.55 42.79 56.67 42.79 56.79 42.85 56.91 42.79 57.03 42.79 57.27 42.79 57.39 42.85 57.51 42.85 57.63 42.85 57.75 42.79 57.88 42.79 58 42.79 58.24 42.79 58.36 42.79 58.48 42.79 58.96 42.79 59.08 42.79 59.2 42.79 59.44 42.79 59.68 42.79 59.8 42.79 60.16 42.79 60.76 42.79 61.37 42.79 61.97 42.97 62.09 42.91 62.21 42.91 62.33 42.91 62.45 42.85 62.69 42.85 62.93 42.85 63.41 42.85 63.53 42.85 63.65 42.91 63.78 42.91 63.9 42.91 64.02 42.91 64.14 42.91 65.58 42.97 65.82 42.97 65.94 42.97 66.18 43.03 66.66 43.03 66.91 43.03 67.15 43.03 67.63 43.03 67.87 43.03 67.99 43.03 68.23 43.03 68.35 43.03 68.47 43.03 68.59 43.03 68.71 43.03 68.83 43.03 69.07 43.03 69.19 43.03 69.43 43.1 69.68 43.03 69.8 43.03 69.92 43.03 70.16 43.1 70.28 43.03 70.88 43.1 71.36 43.1 71.48 43.1 72.44 43.1 72.57 43.1 72.69 43.1 73.05 43.16 73.17 43.16 73.29 43.1 73.53 43.1 73.77 43.1 74.01 43.16 75.09 43.1"/>
      </g>
      <g stroke-width="0.3" fill="#000000" fill-opacity="0.000" class="geometry color_oldfull_fail" stroke-dasharray="none" stroke="#FFA500" id="img-b2bd85c0-17">
        <path fill="none" d="M21.63,43.16 L 21.75 43.16 21.87 43.59 21.99 42.91 22.11 42.97 22.23 43.47 22.35 43.34 22.47 43.47 22.72 42.6 22.84 42.6 23.08 42.54 23.32 42.79 23.44 42.66 23.68 42.85 23.8 42.79 24.64 42.91 25 42.91 25.24 42.91 26.09 42.85 26.21 42.72 26.33 42.1 26.45 42.1 26.57 42.41 26.69 42.41 26.81 42.6 26.93 42.6 27.05 42.6 27.17 42.85 27.29 42.85 27.41 43.16 27.65 43.16 27.77 43.1 27.89 42.97 28.01 43.03 28.13 43.03 28.25 43.16 28.37 43.16 28.5 43.16 28.62 43.03 28.74 43.28 28.86 43.22 28.98 43.16 29.1 43.03 29.22 45.71 29.34 43.28 29.46 42.97 29.58 43.1 30.3 42.97 30.42 43.22 30.54 43.47 30.66 43.47 30.78 43.41 30.9 43.66 31.02 43.59 31.14 43.59 31.26 43.66 31.38 43.84 31.63 43.53 31.75 43.59 31.87 43.72 31.99 43.59 32.11 43.72 32.23 43.72 32.35 43.47 32.47 43.53 32.71 43.78 32.83 43.78 32.95 43.78 33.07 43.72 33.19 43.66 33.31 43.78 33.55 43.78 33.67 43.84 33.79 43.9 33.91 43.9 34.15 43.78 34.4 43.34 34.52 43.66 34.64 43.59 34.76 43.59 35.12 43.59 35.24 43.59 35.36 43.41 35.48 43.53 35.6 43.47 35.72 43.47 35.84 43.59 35.96 43.53 36.2 43.59 36.32 43.66 36.56 43.66 36.68 43.66 36.8 43.66 36.92 43.66 37.16 43.66 37.28 43.66 37.41 43.66 37.53 43.59 37.65 43.59 37.77 43.53 37.89 43.66 38.01 43.53 38.13 43.47 38.25 43.47 38.37 43.34 38.49 43.28 38.61 43.34 38.85 43.22 38.97 43.28 39.09 43.47 39.21 43.28 39.33 43.28 39.45 43.34 39.57 43.16 39.69 43.22 39.93 43.53 40.05 43.47 40.3 43.47 40.42 43.47 40.54 43.47 41.02 43.47 41.38 43.41 41.5 43.34 41.62 43.41 41.74 43.28 41.86 43.28 41.98 43.47 42.1 43.16 42.22 43.1 42.34 43.1 42.58 43.16 42.7 43.28 42.82 43.22 42.94 43.28 43.06 43.28 43.19 43.16 43.31 43.28 43.55 43.41 43.67 43.41 43.79 43.41 43.91 43.41 44.03 43.22 44.15 43.47 44.27 43.47 44.39 43.47 44.75 43.1 44.87 43.28 44.99 43.28 45.11 43.41 45.23 43.28 45.35 43.41 45.47 43.41 45.59 43.34 45.71 43.34 45.83 43.28 45.95 43.47 46.07 43.41 46.2 43.34 46.32 43.41 46.44 43.41 46.56 43.34 46.68 43.47 46.8 43.28 46.92 43.28 47.04 43.41 47.16 43.34 47.28 43.28 47.4 43.28 47.52 43.28 47.64 43.22 47.76 43.28 47.88 43.41 48 43.22 48.12 43.28 48.24 43.28 48.6 43.16 49.21 43.16 49.33 43.03 49.45 43.03 49.57 42.91 49.69 42.97 49.81 43.16 49.93 43.16 50.41 43.1 50.53 43.1 51.13 42.97 51.37 42.97 51.49 42.72 51.61 42.85 51.73 42.91 51.85 43.03 51.97 43.03 52.1 42.91 52.46 42.79 52.58 42.79 52.82 42.72 52.94 42.54 53.06 42.85 53.42 42.79 53.66 42.91 54.02 42.85 54.5 42.72 54.74 42.85 55.11 42.6 55.95 42.47 56.43 42.54 56.55 42.54 56.67 42.54 56.79 42.23 56.91 42.1 57.03 42.04 57.27 42.16 57.39 42.16 57.51 42.16 57.63 42.1 57.75 41.91 57.88 42.23 58 42.23 58.24 42.23 58.36 42.23 58.48 42.29 58.96 42.1 59.08 42.23 59.2 42.04 59.44 42.47 59.68 42.47 59.8 42.41 60.16 42.29 60.76 42.29 61.37 42.35 61.97 41.85 62.09 41.6 62.21 41.67 62.33 41.6 62.45 41.91 62.69 41.85 62.93 41.91 63.41 41.67 63.53 41.73 63.65 41.91 63.78 41.79 63.9 41.85 64.02 41.73 64.14 41.91 65.58 41.85 65.82 41.91 65.94 41.73 66.18 41.91 66.66 42.04 66.91 41.98 67.15 41.67 67.63 41.85 67.87 41.73 67.99 42.23 68.23 42.35 68.35 42.16 68.47 42.23 68.59 42.1 68.71 42.16 68.83 42.41 69.07 42.23 69.19 42.16 69.43 42.35 69.68 42.29 69.8 42.16 69.92 42.29 70.16 42.16 70.28 42.1 70.88 41.91 71.36 42.1 71.48 42.1 72.44 42.16 72.57 42.23 72.69 42.16 73.05 42.41 73.17 42.41 73.29 42.35 73.53 42.04 73.77 42.16 74.01 42.1 75.09 42.23"/>
      </g>
      <g stroke-width="0.3" fill="#000000" fill-opacity="0.000" class="geometry color_newtests_pass" stroke-dasharray="none" stroke="#008000" id="img-b2bd85c0-18">
        <path fill="none" d="M21.63,37.69 L 21.75 37.69 21.87 38.12 21.99 37.81 22.11 37.81 22.23 38.25 22.35 38.37 22.47 38.25 22.72 38.18 22.84 38.12 23.08 38.06 23.32 37.81 23.44 37.93 23.68 37.69 23.8 37.69 24.64 37.25 25 37.25 25.24 37.25 26.09 37.31 26.21 37.25 26.33 37.93 26.45 37.93 26.57 37.56 26.69 37.56 26.81 37.44 26.93 37.44 27.05 37.44 27.17 37.13 27.29 37.13 27.41 36.75 27.65 36.63 27.77 36.38 27.89 36.38 28.01 36.13 28.13 36.13 28.25 35.82 28.37 35.7 28.5 35.76 28.62 35.82 28.74 35.57 28.86 35.63 28.98 35.57 29.1 35.7 29.22 35.26 29.34 35.32 29.46 35.57 29.58 35.38 30.3 35.07 30.42 34.76 30.54 34.45 30.66 34.33 30.78 34.33 30.9 34.08 31.02 34.14 31.14 34.08 31.26 34.02 31.38 34.76 31.63 33.95 31.75 33.83 31.87 33.71 31.99 33.83 32.11 33.71 32.23 33.71 32.35 33.77 32.47 33.71 32.71 33.33 32.83 33.27 32.95 33.27 33.07 33.27 33.19 33.21 33.31 32.96 33.55 32.9 33.67 32.77 33.79 32.71 33.91 32.71 34.15 32.77 34.4 34.08 34.52 33.89 34.64 32.65 34.76 32.71 35.12 32.52 35.24 32.52 35.36 32.65 35.48 32.52 35.6 32.46 35.72 32.34 35.84 32.21 35.96 32.15 36.2 32.09 36.32 31.96 36.56 32.03 36.68 31.9 36.8 31.71 36.92 31.71 37.16 31.78 37.28 31.71 37.41 31.71 37.53 31.71 37.65 31.65 37.77 31.71 37.89 31.53 38.01 31.65 38.13 31.71 38.25 31.59 38.37 33.02 38.49 32.71 38.61 32.65 38.85 31.59 38.97 31.47 39.09 31.22 39.21 31.34 39.33 31.34 39.45 31.16 39.57 31.16 39.69 31.16 39.93 30.97 40.05 30.78 40.3 30.78 40.42 30.78 40.54 30.78 41.02 30.78 41.38 30.22 41.5 30.22 41.62 30.16 41.74 30.1 41.86 30.04 41.98 29.79 42.1 29.6 42.22 29.6 42.34 29.6 42.58 29.72 42.7 29.6 42.82 29.66 42.94 29.54 43.06 29.6 43.19 29.72 43.31 29.6 43.55 29.54 43.67 29.41 43.79 29.41 43.91 29.35 44.03 28.79 44.15 29.23 44.27 29.16 44.39 29.04 44.75 29.23 44.87 29.1 44.99 29.04 45.11 28.79 45.23 28.92 45.35 28.79 45.47 28.67 45.59 28.73 45.71 28.79 45.83 28.85 45.95 28.73 46.07 28.85 46.2 28.85 46.32 28.73 46.44 28.61 46.56 28.67 46.68 28.54 46.8 28.67 46.92 28.67 47.04 28.48 47.16 28.54 47.28 28.54 47.4 28.42 47.52 28.42 47.64 28.42 47.76 28.29 47.88 28.17 48 28.23 48.12 28.17 48.24 28.29 48.6 28.17 49.21 27.92 49.33 27.92 49.45 27.92 49.57 27.92 49.69 27.8 49.81 27.55 49.93 27.55 50.41 27.3 50.53 27.3 51.13 27.36 51.37 27.36 51.49 27.86 51.61 27.42 51.73 27.24 51.85 27.11 51.97 26.99 52.1 27.05 52.46 27.17 52.58 27.11 52.82 27.05 52.94 27.17 53.06 26.86 53.42 26.86 53.66 26.61 54.02 26.55 54.5 26.49 54.74 26.24 55.11 26.24 55.95 26.06 56.43 25.68 56.55 25.56 56.67 25.56 56.79 25.81 56.91 25.99 57.03 25.99 57.27 25.87 57.39 25.74 57.51 25.74 57.63 25.68 57.75 25.81 57.88 25.5 58 25.5 58.24 25.37 58.36 25.25 58.48 25.12 58.96 25 59.08 25 59.2 25.18 59.44 24.62 59.68 24.5 59.8 24.56 60.16 24.56 60.76 24.56 61.37 24.07 61.97 25.93 62.09 25.62 62.21 25.12 62.33 24.75 62.45 24.44 62.69 24.56 62.93 24.5 63.41 24.62 63.53 24.5 63.65 24.19 63.78 24.31 63.9 24.13 64.02 24.25 64.14 24.07 65.58 24.13 65.82 24.07 65.94 23.94 66.18 23.69 66.66 23.63 66.91 23.57 67.15 23.75 67.63 23.57 67.87 23.57 67.99 23.07 68.23 22.76 68.35 22.95 68.47 22.82 68.59 22.7 68.71 22.76 68.83 22.45 69.07 22.57 69.19 22.51 69.43 22.32 69.68 22.32 69.8 22.39 69.92 22.2 70.16 22.07 70.28 22.2 70.88 22.14 71.36 21.89 71.48 21.83 72.44 21.76 72.57 21.83 72.69 21.89 73.05 21.39 73.17 21.33 73.29 21.27 73.53 21.39 73.77 21.33 74.01 21.27 75.09 20.77"/>
      </g>
    </g>
  </g>
</g>
  <g class="guide ylabels" font-size="2.82" font-family="'PT Sans Caption','Helvetica Neue','Helvetica',sans-serif" fill="#6C606B" id="img-b2bd85c0-19">
    <text x="18.63" y="45.71" text-anchor="end" dy="0.35em">0</text>
    <text x="18.63" y="39.49" text-anchor="end" dy="0.35em">100</text>
    <text x="18.63" y="33.27" text-anchor="end" dy="0.35em">200</text>
    <text x="18.63" y="27.05" text-anchor="end" dy="0.35em">300</text>
    <text x="18.63" y="20.83" text-anchor="end" dy="0.35em">400</text>
    <text x="18.63" y="14.61" text-anchor="end" dy="0.35em">500</text>
  </g>
  <g font-size="3.88" font-family="'PT Sans','Helvetica Neue','Helvetica',sans-serif" fill="#564A55" stroke="#000000" stroke-opacity="0.000" id="img-b2bd85c0-20">
    <text x="8.81" y="28.16" text-anchor="middle" dy="0.35em" transform="rotate(-90, 8.81, 30.16)">Number of Packages</text>
  </g>
  <g font-size="3.88" font-family="'PT Sans','Helvetica Neue','Helvetica',sans-serif" fill="#564A55" stroke="#000000" stroke-opacity="0.000" id="img-b2bd85c0-21">
    <text x="58.12" y="10.61" text-anchor="middle">Julia v0.3</text>
  </g>
</g>
<defs>
  <clipPath id="img-b2bd85c0-4">
  <path d="M19.63,12.61 L 96.6 12.61 96.6 47.71 19.63 47.71" />
</clipPath>
</defs>
</svg>
