<?xml version="1.0" encoding="UTF-8"?>
<svg xmlns="http://www.w3.org/2000/svg"
     xmlns:xlink="http://www.w3.org/1999/xlink"
     xmlns:gadfly="http://www.gadflyjl.org/ns"
     version="1.2"
     width="101.6mm" height="76.2mm" viewBox="0 0 101.6 76.2"
     stroke="none"
     fill="#000000"
     stroke-width="0.3"
     font-size="3.88"
>
<g class="plotroot xscalable yscalable" id="fig-e442867c36804498b974610fef8f8aa8-element-1">
  <g font-size="3.88" font-family="'PT Sans','Helvetica Neue','Helvetica',sans-serif" fill="#564A55" stroke="#000000" stroke-opacity="0.000" id="fig-e442867c36804498b974610fef8f8aa8-element-2">
    <text x="58.12" y="64.59" text-anchor="middle" dy="0.6em">Date</text>
  </g>
  <g class="guide xlabels" font-size="2.82" font-family="'PT Sans Caption','Helvetica Neue','Helvetica',sans-serif" fill="#6C606B" id="fig-e442867c36804498b974610fef8f8aa8-element-3">
    <text x="21.9" y="48.71" text-anchor="end" dy="0.35em" transform="rotate(-90, 21.9, 48.71)">Apr</text>
    <text x="25.88" y="48.71" text-anchor="end" dy="0.35em" transform="rotate(-90, 25.88, 48.71)">May</text>
    <text x="29.99" y="48.71" text-anchor="end" dy="0.35em" transform="rotate(-90, 29.99, 48.71)">Jun</text>
    <text x="33.97" y="48.71" text-anchor="end" dy="0.35em" transform="rotate(-90, 33.97, 48.71)">Jul</text>
    <text x="38.08" y="48.71" text-anchor="end" dy="0.35em" transform="rotate(-90, 38.08, 48.71)">Aug</text>
    <text x="42.2" y="48.71" text-anchor="end" dy="0.35em" transform="rotate(-90, 42.2, 48.71)">Sep</text>
    <text x="46.18" y="48.71" text-anchor="end" dy="0.35em" transform="rotate(-90, 46.18, 48.71)">Oct</text>
    <text x="50.29" y="48.71" text-anchor="end" dy="0.35em" transform="rotate(-90, 50.29, 48.71)">Nov</text>
    <text x="54.27" y="48.71" text-anchor="end" dy="0.35em" transform="rotate(-90, 54.27, 48.71)">Dec</text>
    <text x="58.38" y="48.71" text-anchor="end" dy="0.35em" transform="rotate(-90, 58.38, 48.71)">Jan 2015</text>
    <text x="62.49" y="48.71" text-anchor="end" dy="0.35em" transform="rotate(-90, 62.49, 48.71)">Feb</text>
    <text x="66.21" y="48.71" text-anchor="end" dy="0.35em" transform="rotate(-90, 66.21, 48.71)">Mar</text>
    <text x="70.32" y="48.71" text-anchor="end" dy="0.35em" transform="rotate(-90, 70.32, 48.71)">Apr</text>
    <text x="74.3" y="48.71" text-anchor="end" dy="0.35em" transform="rotate(-90, 74.3, 48.71)">May</text>
    <text x="78.41" y="48.71" text-anchor="end" dy="0.35em" transform="rotate(-90, 78.41, 48.71)">Jun</text>
    <text x="82.39" y="48.71" text-anchor="end" dy="0.35em" transform="rotate(-90, 82.39, 48.71)">Jul</text>
    <text x="86.51" y="48.71" text-anchor="end" dy="0.35em" transform="rotate(-90, 86.51, 48.71)">Aug</text>
    <text x="90.62" y="48.71" text-anchor="end" dy="0.35em" transform="rotate(-90, 90.62, 48.71)">Sep</text>
    <text x="94.6" y="48.71" text-anchor="end" dy="0.35em" transform="rotate(-90, 94.6, 48.71)">Oct</text>
  </g>
  <g clip-path="url(#fig-e442867c36804498b974610fef8f8aa8-element-5)" id="fig-e442867c36804498b974610fef8f8aa8-element-4">
    <g pointer-events="visible" opacity="1" fill="#000000" fill-opacity="0.000" stroke="#000000" stroke-opacity="0.000" class="guide background" id="fig-e442867c36804498b974610fef8f8aa8-element-6">
      <rect x="19.63" y="12.61" width="76.97" height="35.1"/>
    </g>
    <g class="guide ygridlines xfixed" stroke-dasharray="0.5,0.5" stroke-width="0.2" stroke="#D0D0E0" id="fig-e442867c36804498b974610fef8f8aa8-element-7">
      <path fill="none" d="M19.63,45.71 L 96.6 45.71"/>
      <path fill="none" d="M19.63,39.49 L 96.6 39.49"/>
      <path fill="none" d="M19.63,33.27 L 96.6 33.27"/>
      <path fill="none" d="M19.63,27.05 L 96.6 27.05"/>
      <path fill="none" d="M19.63,20.83 L 96.6 20.83"/>
      <path fill="none" d="M19.63,14.61 L 96.6 14.61"/>
    </g>
    <g class="guide xgridlines yfixed" stroke-dasharray="0.5,0.5" stroke-width="0.2" stroke="#D0D0E0" id="fig-e442867c36804498b974610fef8f8aa8-element-8">
      <path fill="none" d="M21.9,12.61 L 21.9 47.71"/>
      <path fill="none" d="M25.88,12.61 L 25.88 47.71"/>
      <path fill="none" d="M29.99,12.61 L 29.99 47.71"/>
      <path fill="none" d="M33.97,12.61 L 33.97 47.71"/>
      <path fill="none" d="M38.08,12.61 L 38.08 47.71"/>
      <path fill="none" d="M42.2,12.61 L 42.2 47.71"/>
      <path fill="none" d="M46.18,12.61 L 46.18 47.71"/>
      <path fill="none" d="M50.29,12.61 L 50.29 47.71"/>
      <path fill="none" d="M54.27,12.61 L 54.27 47.71"/>
      <path fill="none" d="M58.38,12.61 L 58.38 47.71"/>
      <path fill="none" d="M62.49,12.61 L 62.49 47.71"/>
      <path fill="none" d="M66.21,12.61 L 66.21 47.71"/>
      <path fill="none" d="M70.32,12.61 L 70.32 47.71"/>
      <path fill="none" d="M74.3,12.61 L 74.3 47.71"/>
      <path fill="none" d="M78.41,12.61 L 78.41 47.71"/>
      <path fill="none" d="M82.39,12.61 L 82.39 47.71"/>
      <path fill="none" d="M86.51,12.61 L 86.51 47.71"/>
      <path fill="none" d="M90.62,12.61 L 90.62 47.71"/>
      <path fill="none" d="M94.6,12.61 L 94.6 47.71"/>
    </g>
    <g class="plotpanel" id="fig-e442867c36804498b974610fef8f8aa8-element-9">
      <g stroke-width="0.3" fill="#000000" fill-opacity="0.000" class="geometry color_newnot_possible" stroke="#808080" id="fig-e442867c36804498b974610fef8f8aa8-element-10">
        <path fill="none" d="M80.94,42.41 L 81.07 42.41 81.2 42.41 81.33 42.41 81.47 42.41 81.6 42.41 81.73 42.41 81.86 42.41 82.26 42.41 82.53 42.41 82.79 42.47 82.93 42.41 83.06 42.41 83.19 42.41 83.32 42.41 83.46 42.41 85.71 42.35 86.77 42.35 87.97 42.35 90.22 42.35 90.62 42.35 91.28 42.16 91.95 41.98 94.07 41.98 94.6 41.98"/>
      </g>
      <g stroke-width="0.3" fill="#000000" fill-opacity="0.000" class="geometry color_newno_tests" stroke="#0000FF" id="fig-e442867c36804498b974610fef8f8aa8-element-11">
        <path fill="none" d="M80.94,39.05 L 81.07 39.05 81.2 39.05 81.33 39.05 81.47 39.05 81.6 39.05 81.73 39.05 81.86 39.05 82.26 39.05 82.53 39.05 82.79 39.05 82.93 39.05 83.06 39.12 83.19 39.12 83.32 39.12 83.46 39.18 85.71 39.12 86.77 39.12 87.97 39.12 90.22 39.12 90.62 39.18 91.28 39.18 91.95 39.24 94.07 39.43 94.6 39.61"/>
      </g>
      <g stroke-width="0.3" fill="#000000" fill-opacity="0.000" class="geometry color_newtests_fail" stroke="#FF0000" id="fig-e442867c36804498b974610fef8f8aa8-element-12">
        <path fill="none" d="M80.94,42.23 L 81.07 42.04 81.2 41.98 81.33 41.91 81.47 41.79 81.6 41.98 81.73 41.73 81.86 41.91 82.26 41.79 82.53 41.73 82.79 41.67 82.93 41.85 83.06 39.86 83.19 41.73 83.32 41.35 83.46 41.42 85.71 41.67 86.77 41.73 87.97 41.23 90.22 40.17 90.62 40.48 91.28 40.86 91.95 41.17 94.07 41.11 94.6 40.8"/>
      </g>
      <g stroke-width="0.3" fill="#000000" fill-opacity="0.000" class="geometry color_newtests_pass" stroke="#008000" id="fig-e442867c36804498b974610fef8f8aa8-element-13">
        <path fill="none" d="M80.94,22.14 L 81.07 22.32 81.2 22.26 81.33 22.32 81.47 22.32 81.6 22.14 81.73 22.39 81.86 22.14 82.26 22.26 82.53 22.2 82.79 22.26 82.93 22.01 83.06 23.69 83.19 21.7 83.32 22.01 83.46 21.89 85.71 20.89 86.77 20.52 87.97 20.71 90.22 20.89 90.62 20.4 91.28 20.15 91.95 19.84 94.07 19.09 94.6 18.9"/>
      </g>
      <g stroke-width="0.3" fill="#000000" fill-opacity="0.000" class="geometry color_newnot_possible" stroke="#808080" id="fig-e442867c36804498b974610fef8f8aa8-element-14">
        <path fill="none" d="M21.63,43.72 L 21.76 43.72 21.9 43.72 22.03 43.72 22.16 43.72 22.3 43.72 22.43 43.72 22.56 43.72 22.83 43.72 22.96 43.72 23.22 43.72 23.49 43.72 23.62 43.72 23.89 43.72 24.02 43.72 24.95 43.72 25.35 43.72 25.61 43.72 26.54 43.78 26.67 43.78 26.81 43.78 26.94 43.78 27.07 43.78 27.2 43.72 27.34 43.72 27.47 43.72 27.6 43.72 27.73 43.59 27.87 43.59 28 43.59 28.27 43.53 28.4 43.97 28.53 43.97 28.66 43.97 28.8 43.97 28.93 43.97 29.06 43.97 29.19 43.97 29.33 43.97 29.46 43.97 29.59 43.97 29.72 43.97 29.86 43.97 29.99 43.97 30.12 43.97 30.26 43.97 30.39 43.97 31.18 43.66 31.32 43.59 31.45 43.59 31.58 43.59 31.71 43.59 31.85 43.53 31.98 43.41 32.11 43.41 32.25 43.41 32.38 43.41 32.64 43.41 32.78 43.41 32.91 43.41 33.04 43.41 33.17 43.41 33.31 43.41 33.44 43.41 33.57 43.41 33.84 43.41 33.97 43.41 34.1 43.41 34.24 43.41 34.37 43.41 34.5 43.41 34.77 43.41 34.9 43.41 35.03 43.41 35.16 43.41 35.43 43.41 35.69 43.41 35.83 43.41 35.96 43.41 36.09 43.41 36.49 43.41 36.62 43.41 36.76 43.41 36.89 43.41 37.02 43.41 37.15 43.41 37.29 43.34 37.42 43.34 37.68 43.34 37.82 43.34 38.08 43.34 38.22 43.34 38.35 43.34 38.48 43.34 38.75 43.34 38.88 43.34 39.01 43.34 39.14 43.34 39.28 43.34 39.41 43.34 39.54 43.34 39.67 43.34 39.81 43.28 39.94 43.22 40.07 43.22 40.21 43.22 40.34 43.22 40.6 43.22 40.74 43.22 40.87 43.22 41 43.22 41.13 43.22 41.27 43.22 41.4 43.22 41.53 43.22 41.8 43.22 41.93 43.16 42.2 43.16 42.33 43.16 42.46 43.1 42.99 43.1 43.39 43.1 43.52 43.1 43.65 43.1 43.79 43.1 43.92 43.1 44.05 43.1 44.19 43.1 44.32 43.1 44.45 43.1 44.72 43.03 44.85 43.03 44.98 43.03 45.11 43.03 45.25 43.03 45.38 43.03 45.51 42.97 45.78 42.97 45.91 42.97 46.04 42.97 46.18 42.97 46.31 42.79 46.44 42.91 46.57 42.91 46.71 42.91 47.1 42.91 47.24 42.85 47.37 42.85 47.5 42.85 47.63 42.85 47.77 42.85 47.9 42.85 48.03 42.85 48.17 42.85 48.3 42.85 48.43 42.79 48.56 42.79 48.7 42.79 48.83 42.79 48.96 42.79 49.09 42.79 49.23 42.79 49.36 42.79 49.49 42.79 49.62 42.79 49.76 42.79 49.89 42.79 50.02 42.79 50.16 42.79 50.29 42.79 50.42 42.79 50.55 42.79 50.69 42.79 50.82 42.79 50.95 42.79 51.35 42.79 52.01 42.79 52.15 42.79 52.28 42.79 52.41 42.79 52.54 42.79 52.68 42.79 52.81 42.79 53.34 42.79 53.47 42.79 54.14 42.79 54.4 42.79 54.53 42.85 54.67 42.85 54.8 42.85 54.93 42.85 55.06 42.85 55.2 42.85 55.6 42.85 55.73 42.85 55.99 42.85 56.13 42.85 56.26 42.85 56.66 42.85 56.92 42.85 57.32 42.85 57.85 42.85 58.12 42.85 58.51 42.85 59.44 42.85 59.97 42.85 60.11 42.72 60.24 42.72 60.37 42.66 60.5 42.66 60.64 42.66 60.9 42.66 61.03 42.66 61.17 42.66 61.3 42.66 61.43 42.66 61.57 42.66 61.7 42.66 61.96 42.6 62.1 42.6 62.23 42.6 62.76 42.6 62.89 42.6 63.02 42.6 63.29 42.6 63.56 42.6 63.69 42.6 64.09 42.6 64.75 42.6 65.41 42.6 66.08 42.6 66.21 42.6 66.34 42.6 66.47 42.16 66.61 42.23 66.87 42.16 67.14 42.16 67.67 42.16 67.8 42.16 67.93 42.16 68.07 42.16 68.2 42.16 68.33 42.23 68.46 42.16 70.06 42.1 70.32 42.04 70.45 42.04 70.72 42.04 71.25 42.04 71.52 42.04 71.78 42.04 72.31 42.04 72.58 42.04 72.71 42.04 72.97 42.04 73.11 42.04 73.24 42.04 73.37 42.04 73.51 42.04 73.64 42.04 73.9 42.04 74.04 42.04 74.3 42.04 74.57 42.04 74.7 42.04 74.83 42.04 75.1 42.04 75.23 42.04 75.89 42.04 76.42 42.1 76.56 42.04 77.62 42.04 77.75 41.91 77.88 41.91 78.28 41.91 78.41 41.91 78.55 41.98 78.81 41.98 79.08 41.98 79.34 41.98 80.54 41.98"/>
      </g>
      <g stroke-width="0.3" fill="#000000" fill-opacity="0.000" class="geometry color_newtests_fail" stroke="#FF0000" id="fig-e442867c36804498b974610fef8f8aa8-element-15">
        <path fill="none" d="M21.63,43.22 L 21.76 43.22 21.9 42.29 22.03 43.28 22.16 43.22 22.3 42.23 22.43 42.23 22.56 42.23 22.83 43.22 22.96 43.22 23.22 43.28 23.49 43.28 23.62 43.28 23.89 43.34 24.02 43.34 24.95 43.41 25.35 43.41 25.61 43.41 26.54 43.34 26.67 43.41 26.81 43.28 26.94 43.28 27.07 43.34 27.2 43.41 27.34 43.34 27.47 43.34 27.6 43.34 27.73 43.41 27.87 43.41 28 43.28 28.27 43.34 28.4 43.22 28.53 43.34 28.66 43.47 28.8 43.47 28.93 43.53 29.06 43.53 29.19 43.47 29.33 43.53 29.46 43.53 29.59 43.53 29.72 43.59 29.86 43.59 29.99 44.09 30.12 43.84 30.26 43.84 30.39 43.84 31.18 44.22 31.32 44.28 31.45 44.28 31.58 44.28 31.71 44.22 31.85 44.28 31.98 44.28 32.11 44.28 32.25 44.22 32.38 43.03 32.64 44.22 32.78 44.28 32.91 44.28 33.04 44.28 33.17 44.28 33.31 44.28 33.44 44.28 33.57 44.28 33.84 44.28 33.97 44.28 34.1 44.22 34.24 44.22 34.37 44.22 34.5 44.22 34.77 44.22 34.9 44.09 35.03 44.09 35.16 44.09 35.43 43.97 35.69 42.72 35.83 42.66 35.96 43.97 36.09 43.9 36.49 44.03 36.62 44.03 36.76 44.03 36.89 44.03 37.02 44.09 37.15 44.15 37.29 44.15 37.42 44.15 37.68 44.15 37.82 44.22 38.08 44.15 38.22 44.22 38.35 44.22 38.48 44.22 38.75 44.22 38.88 44.22 39.01 44.09 39.14 44.15 39.28 44.15 39.41 44.09 39.54 44.09 39.67 43.97 39.81 44.03 39.94 44.15 40.07 42.41 40.21 42.79 40.34 42.79 40.6 44.22 40.74 44.28 40.87 44.22 41 44.28 41.13 44.22 41.27 44.22 41.4 44.34 41.53 44.15 41.8 44.4 41.93 44.46 42.2 44.34 42.33 44.34 42.46 44.4 42.99 44.4 43.39 44.71 43.52 44.71 43.65 44.71 43.79 44.78 43.92 44.84 44.05 44.84 44.19 44.84 44.32 44.84 44.45 44.84 44.72 44.71 44.85 44.71 44.98 44.65 45.11 44.71 45.25 44.65 45.38 44.53 45.51 44.59 45.78 44.65 45.91 44.71 46.04 44.71 46.18 44.65 46.31 44.59 46.44 44.65 46.57 44.71 46.71 44.71 47.1 44.71 47.24 44.71 47.37 44.71 47.5 44.78 47.63 44.78 47.77 44.78 47.9 44.78 48.03 44.78 48.17 44.65 48.3 44.59 48.43 44.59 48.56 44.46 48.7 44.59 48.83 44.59 48.96 44.59 49.09 44.59 49.23 44.59 49.36 44.53 49.49 44.59 49.62 44.53 49.76 44.59 49.89 44.53 50.02 44.59 50.16 44.59 50.29 44.59 50.42 44.65 50.55 44.65 50.69 44.71 50.82 44.71 50.95 44.53 51.35 44.78 52.01 44.71 52.15 44.71 52.28 44.71 52.41 44.78 52.54 44.84 52.68 44.71 52.81 44.71 53.34 44.65 53.47 44.71 54.14 44.71 54.4 44.71 54.53 44.34 54.67 44.53 54.8 44.71 54.93 44.71 55.06 44.71 55.2 44.65 55.6 44.59 55.73 44.59 55.99 44.53 56.13 44.59 56.26 44.59 56.66 44.59 56.92 44.65 57.32 44.65 57.85 44.65 58.12 44.65 58.51 44.65 59.44 44.59 59.97 44.46 60.11 44.59 60.24 44.59 60.37 44.34 60.5 44.34 60.64 44.4 60.9 44.4 61.03 44.34 61.17 44.34 61.3 44.28 61.43 44.34 61.57 44.34 61.7 44.34 61.96 44.34 62.1 44.34 62.23 44.34 62.76 44.15 62.89 44.15 63.02 44.15 63.29 44.09 63.56 44.03 63.69 44.03 64.09 44.03 64.75 44.03 65.41 44.09 66.08 42.29 66.21 42.91 66.34 43.34 66.47 44.09 66.61 44.09 66.87 44.09 67.14 44.09 67.67 44.09 67.8 44.03 67.93 44.03 68.07 44.03 68.2 44.03 68.33 44.03 68.46 43.97 70.06 43.9 70.32 43.97 70.45 44.09 70.72 44.09 71.25 43.97 71.52 44.09 71.78 44.03 72.31 44.03 72.58 44.03 72.71 43.97 72.97 43.84 73.11 43.84 73.24 43.84 73.37 43.9 73.51 43.78 73.64 43.78 73.9 43.78 74.04 43.84 74.3 43.78 74.57 43.78 74.7 43.66 74.83 43.66 75.1 43.72 75.23 43.66 75.89 43.59 76.42 43.47 76.56 43.47 77.62 43.22 77.75 43.22 77.88 43.22 78.28 43.22 78.41 43.22 78.55 43.28 78.81 43.34 79.08 43.28 79.34 43.28 80.54 43.41"/>
      </g>
      <g stroke-width="0.3" fill="#000000" fill-opacity="0.000" class="geometry color_newno_tests" stroke="#0000FF" id="fig-e442867c36804498b974610fef8f8aa8-element-16">
        <path fill="none" d="M21.63,42.35 L 21.76 42.35 21.9 42.35 22.03 42.35 22.16 42.35 22.3 42.41 22.43 42.41 22.56 42.35 22.83 42.29 22.96 42.29 23.22 42.29 23.49 42.16 23.62 42.16 23.89 42.16 24.02 42.16 24.95 42.16 25.35 42.16 25.61 42.16 26.54 42.1 26.67 42.1 26.81 42.1 26.94 42.1 27.07 42.1 27.2 42.1 27.34 42.1 27.47 42.1 27.6 42.1 27.73 42.23 27.87 42.23 28 42.23 28.27 42.29 28.4 42.29 28.53 42.29 28.66 42.23 28.8 42.23 28.93 42.35 29.06 42.41 29.19 42.41 29.33 42.41 29.46 42.41 29.59 42.41 29.72 42.41 29.86 42.41 29.99 42.16 30.12 42.23 30.26 42.23 30.39 42.23 31.18 42.23 31.32 42.23 31.45 42.23 31.58 42.29 31.71 42.29 31.85 42.29 31.98 42.29 32.11 42.35 32.25 42.35 32.38 42.54 32.64 42.47 32.78 42.35 32.91 42.35 33.04 42.35 33.17 42.35 33.31 42.35 33.44 42.35 33.57 42.35 33.84 42.41 33.97 42.35 34.1 42.35 34.24 42.35 34.37 42.47 34.5 42.47 34.77 42.47 34.9 42.47 35.03 42.47 35.16 42.47 35.43 42.35 35.69 42.54 35.83 42.47 35.96 42.41 36.09 42.41 36.49 42.41 36.62 42.41 36.76 42.41 36.89 42.41 37.02 42.47 37.15 42.47 37.29 42.47 37.42 42.54 37.68 42.54 37.82 42.54 38.08 42.54 38.22 42.54 38.35 42.54 38.48 42.54 38.75 42.41 38.88 42.47 39.01 42.47 39.14 42.41 39.28 42.41 39.41 42.41 39.54 42.41 39.67 42.41 39.81 42.41 39.94 42.41 40.07 42.79 40.21 42.79 40.34 42.79 40.6 42.35 40.74 42.35 40.87 42.41 41 42.41 41.13 42.47 41.27 42.41 41.4 42.41 41.53 42.47 41.8 42.85 41.93 42.91 42.2 42.91 42.33 42.91 42.46 42.91 42.99 42.91 43.39 42.85 43.52 42.85 43.65 42.79 43.79 42.79 43.92 42.79 44.05 42.85 44.19 42.85 44.32 42.91 44.45 42.91 44.72 42.91 44.85 42.85 44.98 42.85 45.11 42.85 45.25 42.85 45.38 42.91 45.51 42.91 45.78 42.85 45.91 42.85 46.04 42.85 46.18 42.85 46.31 42.6 46.44 42.85 46.57 42.85 46.71 42.85 47.1 42.91 47.24 42.91 47.37 42.85 47.5 42.85 47.63 42.85 47.77 42.85 47.9 42.85 48.03 42.85 48.17 42.85 48.3 42.85 48.43 42.85 48.56 42.91 48.7 42.85 48.83 42.85 48.96 42.85 49.09 42.85 49.23 42.85 49.36 42.91 49.49 42.85 49.62 42.91 49.76 42.85 49.89 42.85 50.02 42.85 50.16 42.85 50.29 42.85 50.42 42.85 50.55 42.85 50.69 42.85 50.82 42.85 50.95 42.85 51.35 42.85 52.01 42.85 52.15 42.85 52.28 42.85 52.41 42.85 52.54 42.85 52.68 42.85 52.81 42.85 53.34 42.91 53.47 42.85 54.14 42.85 54.4 42.85 54.53 42.85 54.67 42.91 54.8 42.85 54.93 42.85 55.06 42.85 55.2 42.91 55.6 42.85 55.73 42.85 55.99 42.85 56.13 42.79 56.26 42.79 56.66 42.85 56.92 42.79 57.32 42.79 57.85 42.85 58.12 42.79 58.51 42.79 59.44 42.79 59.97 42.79 60.11 42.79 60.24 42.79 60.37 42.85 60.5 42.79 60.64 42.79 60.9 42.79 61.03 42.85 61.17 42.85 61.3 42.85 61.43 42.79 61.57 42.79 61.7 42.79 61.96 42.79 62.1 42.79 62.23 42.79 62.76 42.79 62.89 42.79 63.02 42.79 63.29 42.79 63.56 42.79 63.69 42.79 64.09 42.79 64.75 42.79 65.41 42.79 66.08 42.97 66.21 42.91 66.34 42.91 66.47 42.91 66.61 42.85 66.87 42.85 67.14 42.85 67.67 42.85 67.8 42.85 67.93 42.91 68.07 42.91 68.2 42.91 68.33 42.91 68.46 42.91 70.06 42.97 70.32 42.97 70.45 42.97 70.72 43.03 71.25 43.03 71.52 43.03 71.78 43.03 72.31 43.03 72.58 43.03 72.71 43.03 72.97 43.03 73.11 43.03 73.24 43.03 73.37 43.03 73.51 43.03 73.64 43.03 73.9 43.03 74.04 43.03 74.3 43.1 74.57 43.03 74.7 43.03 74.83 43.03 75.1 43.1 75.23 43.03 75.89 43.1 76.42 43.1 76.56 43.1 77.62 43.1 77.75 43.1 77.88 43.1 78.28 43.16 78.41 43.16 78.55 43.1 78.81 43.1 79.08 43.1 79.34 43.16 80.54 43.1"/>
      </g>
      <g stroke-width="0.3" fill="#000000" fill-opacity="0.000" class="geometry color_oldfull_fail" stroke="#FFA500" id="fig-e442867c36804498b974610fef8f8aa8-element-17">
        <path fill="none" d="M21.63,43.16 L 21.76 43.16 21.9 43.59 22.03 42.91 22.16 42.97 22.3 43.47 22.43 43.34 22.56 43.47 22.83 42.6 22.96 42.6 23.22 42.54 23.49 42.79 23.62 42.66 23.89 42.85 24.02 42.79 24.95 42.91 25.35 42.91 25.61 42.91 26.54 42.85 26.67 42.72 26.81 42.1 26.94 42.1 27.07 42.41 27.2 42.41 27.34 42.6 27.47 42.6 27.6 42.6 27.73 42.85 27.87 42.85 28 43.16 28.27 43.16 28.4 43.1 28.53 42.97 28.66 43.03 28.8 43.03 28.93 43.16 29.06 43.16 29.19 43.16 29.33 43.03 29.46 43.28 29.59 43.22 29.72 43.16 29.86 43.03 29.99 45.71 30.12 43.28 30.26 42.97 30.39 43.1 31.18 42.97 31.32 43.22 31.45 43.47 31.58 43.47 31.71 43.41 31.85 43.66 31.98 43.59 32.11 43.59 32.25 43.66 32.38 43.84 32.64 43.53 32.78 43.59 32.91 43.72 33.04 43.59 33.17 43.72 33.31 43.72 33.44 43.47 33.57 43.53 33.84 43.78 33.97 43.78 34.1 43.78 34.24 43.72 34.37 43.66 34.5 43.78 34.77 43.78 34.9 43.84 35.03 43.9 35.16 43.9 35.43 43.78 35.69 43.34 35.83 43.66 35.96 43.59 36.09 43.59 36.49 43.59 36.62 43.59 36.76 43.41 36.89 43.53 37.02 43.47 37.15 43.47 37.29 43.59 37.42 43.53 37.68 43.59 37.82 43.66 38.08 43.66 38.22 43.66 38.35 43.66 38.48 43.66 38.75 43.66 38.88 43.66 39.01 43.66 39.14 43.59 39.28 43.59 39.41 43.53 39.54 43.66 39.67 43.53 39.81 43.47 39.94 43.47 40.07 43.34 40.21 43.28 40.34 43.34 40.6 43.22 40.74 43.28 40.87 43.47 41 43.28 41.13 43.28 41.27 43.34 41.4 43.16 41.53 43.22 41.8 43.53 41.93 43.47 42.2 43.47 42.33 43.47 42.46 43.47 42.99 43.47 43.39 43.41 43.52 43.34 43.65 43.41 43.79 43.28 43.92 43.28 44.05 43.47 44.19 43.16 44.32 43.1 44.45 43.1 44.72 43.16 44.85 43.28 44.98 43.22 45.11 43.28 45.25 43.28 45.38 43.16 45.51 43.28 45.78 43.41 45.91 43.41 46.04 43.41 46.18 43.41 46.31 43.22 46.44 43.47 46.57 43.47 46.71 43.47 47.1 43.1 47.24 43.28 47.37 43.28 47.5 43.41 47.63 43.28 47.77 43.41 47.9 43.41 48.03 43.34 48.17 43.34 48.3 43.28 48.43 43.47 48.56 43.41 48.7 43.34 48.83 43.41 48.96 43.41 49.09 43.34 49.23 43.47 49.36 43.28 49.49 43.28 49.62 43.41 49.76 43.34 49.89 43.28 50.02 43.28 50.16 43.28 50.29 43.22 50.42 43.28 50.55 43.41 50.69 43.22 50.82 43.28 50.95 43.28 51.35 43.16 52.01 43.16 52.15 43.03 52.28 43.03 52.41 42.91 52.54 42.97 52.68 43.16 52.81 43.16 53.34 43.1 53.47 43.1 54.14 42.97 54.4 42.97 54.53 42.72 54.67 42.85 54.8 42.91 54.93 43.03 55.06 43.03 55.2 42.91 55.6 42.79 55.73 42.79 55.99 42.72 56.13 42.54 56.26 42.85 56.66 42.79 56.92 42.91 57.32 42.85 57.85 42.72 58.12 42.85 58.51 42.6 59.44 42.47 59.97 42.54 60.11 42.54 60.24 42.54 60.37 42.23 60.5 42.1 60.64 42.04 60.9 42.16 61.03 42.16 61.17 42.16 61.3 42.1 61.43 41.91 61.57 42.23 61.7 42.23 61.96 42.23 62.1 42.23 62.23 42.29 62.76 42.1 62.89 42.23 63.02 42.04 63.29 42.47 63.56 42.47 63.69 42.41 64.09 42.29 64.75 42.29 65.41 42.35 66.08 41.85 66.21 41.6 66.34 41.67 66.47 41.6 66.61 41.91 66.87 41.85 67.14 41.91 67.67 41.67 67.8 41.73 67.93 41.91 68.07 41.79 68.2 41.85 68.33 41.73 68.46 41.91 70.06 41.85 70.32 41.91 70.45 41.73 70.72 41.91 71.25 42.04 71.52 41.98 71.78 41.67 72.31 41.85 72.58 41.73 72.71 42.23 72.97 42.35 73.11 42.16 73.24 42.23 73.37 42.1 73.51 42.16 73.64 42.41 73.9 42.23 74.04 42.16 74.3 42.35 74.57 42.29 74.7 42.16 74.83 42.29 75.1 42.16 75.23 42.1 75.89 41.91 76.42 42.1 76.56 42.1 77.62 42.16 77.75 42.23 77.88 42.16 78.28 42.41 78.41 42.41 78.55 42.35 78.81 42.04 79.08 42.16 79.34 42.1 80.54 42.23"/>
      </g>
      <g stroke-width="0.3" fill="#000000" fill-opacity="0.000" class="geometry color_newtests_pass" stroke="#008000" id="fig-e442867c36804498b974610fef8f8aa8-element-18">
        <path fill="none" d="M21.63,37.69 L 21.76 37.69 21.9 38.12 22.03 37.81 22.16 37.81 22.3 38.25 22.43 38.37 22.56 38.25 22.83 38.18 22.96 38.12 23.22 38.06 23.49 37.81 23.62 37.93 23.89 37.69 24.02 37.69 24.95 37.25 25.35 37.25 25.61 37.25 26.54 37.31 26.67 37.25 26.81 37.93 26.94 37.93 27.07 37.56 27.2 37.56 27.34 37.44 27.47 37.44 27.6 37.44 27.73 37.13 27.87 37.13 28 36.75 28.27 36.63 28.4 36.38 28.53 36.38 28.66 36.13 28.8 36.13 28.93 35.82 29.06 35.7 29.19 35.76 29.33 35.82 29.46 35.57 29.59 35.63 29.72 35.57 29.86 35.7 29.99 35.26 30.12 35.32 30.26 35.57 30.39 35.38 31.18 35.07 31.32 34.76 31.45 34.45 31.58 34.33 31.71 34.33 31.85 34.08 31.98 34.14 32.11 34.08 32.25 34.02 32.38 34.76 32.64 33.95 32.78 33.83 32.91 33.71 33.04 33.83 33.17 33.71 33.31 33.71 33.44 33.77 33.57 33.71 33.84 33.33 33.97 33.27 34.1 33.27 34.24 33.27 34.37 33.21 34.5 32.96 34.77 32.9 34.9 32.77 35.03 32.71 35.16 32.71 35.43 32.77 35.69 34.08 35.83 33.89 35.96 32.65 36.09 32.71 36.49 32.52 36.62 32.52 36.76 32.65 36.89 32.52 37.02 32.46 37.15 32.34 37.29 32.21 37.42 32.15 37.68 32.09 37.82 31.96 38.08 32.03 38.22 31.9 38.35 31.71 38.48 31.71 38.75 31.78 38.88 31.71 39.01 31.71 39.14 31.71 39.28 31.65 39.41 31.71 39.54 31.53 39.67 31.65 39.81 31.71 39.94 31.59 40.07 33.02 40.21 32.71 40.34 32.65 40.6 31.59 40.74 31.47 40.87 31.22 41 31.34 41.13 31.34 41.27 31.16 41.4 31.16 41.53 31.16 41.8 30.97 41.93 30.78 42.2 30.78 42.33 30.78 42.46 30.78 42.99 30.78 43.39 30.22 43.52 30.22 43.65 30.16 43.79 30.1 43.92 30.04 44.05 29.79 44.19 29.6 44.32 29.6 44.45 29.6 44.72 29.72 44.85 29.6 44.98 29.66 45.11 29.54 45.25 29.6 45.38 29.72 45.51 29.6 45.78 29.54 45.91 29.41 46.04 29.41 46.18 29.35 46.31 28.79 46.44 29.23 46.57 29.16 46.71 29.04 47.1 29.23 47.24 29.1 47.37 29.04 47.5 28.79 47.63 28.92 47.77 28.79 47.9 28.67 48.03 28.73 48.17 28.79 48.3 28.85 48.43 28.73 48.56 28.85 48.7 28.85 48.83 28.73 48.96 28.61 49.09 28.67 49.23 28.54 49.36 28.67 49.49 28.67 49.62 28.48 49.76 28.54 49.89 28.54 50.02 28.42 50.16 28.42 50.29 28.42 50.42 28.29 50.55 28.17 50.69 28.23 50.82 28.17 50.95 28.29 51.35 28.17 52.01 27.92 52.15 27.92 52.28 27.92 52.41 27.92 52.54 27.8 52.68 27.55 52.81 27.55 53.34 27.3 53.47 27.3 54.14 27.36 54.4 27.36 54.53 27.86 54.67 27.42 54.8 27.24 54.93 27.11 55.06 26.99 55.2 27.05 55.6 27.17 55.73 27.11 55.99 27.05 56.13 27.17 56.26 26.86 56.66 26.86 56.92 26.61 57.32 26.55 57.85 26.49 58.12 26.24 58.51 26.24 59.44 26.06 59.97 25.68 60.11 25.56 60.24 25.56 60.37 25.81 60.5 25.99 60.64 25.99 60.9 25.87 61.03 25.74 61.17 25.74 61.3 25.68 61.43 25.81 61.57 25.5 61.7 25.5 61.96 25.37 62.1 25.25 62.23 25.12 62.76 25 62.89 25 63.02 25.18 63.29 24.62 63.56 24.5 63.69 24.56 64.09 24.56 64.75 24.56 65.41 24.07 66.08 25.93 66.21 25.62 66.34 25.12 66.47 24.75 66.61 24.44 66.87 24.56 67.14 24.5 67.67 24.62 67.8 24.5 67.93 24.19 68.07 24.31 68.2 24.13 68.33 24.25 68.46 24.07 70.06 24.13 70.32 24.07 70.45 23.94 70.72 23.69 71.25 23.63 71.52 23.57 71.78 23.75 72.31 23.57 72.58 23.57 72.71 23.07 72.97 22.76 73.11 22.95 73.24 22.82 73.37 22.7 73.51 22.76 73.64 22.45 73.9 22.57 74.04 22.51 74.3 22.32 74.57 22.32 74.7 22.39 74.83 22.2 75.1 22.07 75.23 22.2 75.89 22.14 76.42 21.89 76.56 21.83 77.62 21.76 77.75 21.83 77.88 21.89 78.28 21.39 78.41 21.33 78.55 21.27 78.81 21.39 79.08 21.33 79.34 21.27 80.54 20.77"/>
      </g>
    </g>
  </g>
  <g class="guide ylabels" font-size="2.82" font-family="'PT Sans Caption','Helvetica Neue','Helvetica',sans-serif" fill="#6C606B" id="fig-e442867c36804498b974610fef8f8aa8-element-19">
    <text x="18.63" y="45.71" text-anchor="end" dy="0.35em">0</text>
    <text x="18.63" y="39.49" text-anchor="end" dy="0.35em">100</text>
    <text x="18.63" y="33.27" text-anchor="end" dy="0.35em">200</text>
    <text x="18.63" y="27.05" text-anchor="end" dy="0.35em">300</text>
    <text x="18.63" y="20.83" text-anchor="end" dy="0.35em">400</text>
    <text x="18.63" y="14.61" text-anchor="end" dy="0.35em">500</text>
  </g>
  <g font-size="3.88" font-family="'PT Sans','Helvetica Neue','Helvetica',sans-serif" fill="#564A55" stroke="#000000" stroke-opacity="0.000" id="fig-e442867c36804498b974610fef8f8aa8-element-20">
    <text x="8.81" y="28.16" text-anchor="middle" dy="0.35em" transform="rotate(-90, 8.81, 30.16)">Number of Packages</text>
  </g>
  <g font-size="3.88" font-family="'PT Sans','Helvetica Neue','Helvetica',sans-serif" fill="#564A55" stroke="#000000" stroke-opacity="0.000" id="fig-e442867c36804498b974610fef8f8aa8-element-21">
    <text x="58.12" y="10.61" text-anchor="middle">Julia v0.3</text>
  </g>
</g>
<defs>
<clipPath id="fig-e442867c36804498b974610fef8f8aa8-element-5">
  <path d="M19.63,12.61 L 96.6 12.61 96.6 47.71 19.63 47.71" />
</clipPath
></defs>
</svg>
