<?xml version="1.0" encoding="UTF-8"?>
<svg xmlns="http://www.w3.org/2000/svg"
     xmlns:xlink="http://www.w3.org/1999/xlink"
     xmlns:gadfly="http://www.gadflyjl.org/ns"
     version="1.2"
     width="101.6mm" height="76.2mm" viewBox="0 0 101.6 76.2"
     stroke="none"
     fill="#000000"
     stroke-width="0.3"
     font-size="3.88"
>
<g class="plotroot xscalable yscalable" id="img-9cbf326d-1">
  <g font-size="3.88" font-family="'PT Sans','Helvetica Neue','Helvetica',sans-serif" fill="#564A55" stroke="#000000" stroke-opacity="0.000" id="img-9cbf326d-2">
    <text x="58.12" y="64.59" text-anchor="middle" dy="0.6em">Date</text>
  </g>
  <g class="guide xlabels" font-size="2.82" font-family="'PT Sans Caption','Helvetica Neue','Helvetica',sans-serif" fill="#6C606B" id="img-9cbf326d-3">
    <text x="21.63" y="57.91" text-anchor="middle" dy="0.6em">2014</text>
    <text x="45.93" y="57.91" text-anchor="middle" dy="0.6em">2015</text>
    <text x="70.23" y="57.91" text-anchor="middle" dy="0.6em">2016</text>
    <text x="94.6" y="57.91" text-anchor="middle" dy="0.6em">2017</text>
  </g>
<g clip-path="url(#img-9cbf326d-4)">
  <g id="img-9cbf326d-5">
    <g pointer-events="visible" opacity="1" fill="#000000" fill-opacity="0.000" stroke="#000000" stroke-opacity="0.000" class="guide background" id="img-9cbf326d-6">
      <rect x="19.63" y="12.61" width="76.97" height="44.3"/>
    </g>
    <g class="guide ygridlines xfixed" stroke-dasharray="0.5,0.5" stroke-width="0.2" stroke="#D0D0E0" id="img-9cbf326d-7">
      <path fill="none" d="M19.63,54.91 L 96.6 54.91"/>
      <path fill="none" d="M19.63,46.85 L 96.6 46.85"/>
      <path fill="none" d="M19.63,38.79 L 96.6 38.79"/>
      <path fill="none" d="M19.63,30.73 L 96.6 30.73"/>
      <path fill="none" d="M19.63,22.67 L 96.6 22.67"/>
      <path fill="none" d="M19.63,14.61 L 96.6 14.61"/>
    </g>
    <g class="guide xgridlines yfixed" stroke-dasharray="0.5,0.5" stroke-width="0.2" stroke="#D0D0E0" id="img-9cbf326d-8">
      <path fill="none" d="M21.63,12.61 L 21.63 56.91"/>
      <path fill="none" d="M45.93,12.61 L 45.93 56.91"/>
      <path fill="none" d="M70.23,12.61 L 70.23 56.91"/>
      <path fill="none" d="M94.6,12.61 L 94.6 56.91"/>
    </g>
    <g class="plotpanel" id="img-9cbf326d-9">
      <g stroke-width="0.3" fill="#000000" fill-opacity="0.000" class="geometry color_newnot_possible" stroke-dasharray="none" stroke="#808080" id="img-9cbf326d-10">
        <path fill="none" d="M57.25,50.64 L 57.32 50.64 57.38 50.64 57.45 50.64 57.52 50.64 57.58 50.64 57.65 50.64 57.72 50.64 57.92 50.64 58.05 50.64 58.18 50.72 58.25 50.64 58.32 50.64 58.38 50.64 58.45 50.64 58.52 50.64 59.65 50.56 60.18 50.56 60.78 50.56 61.91 50.56 62.11 50.56 62.44 50.32 62.78 50.08 63.84 50.08 64.11 50.08 64.44 50.08 64.71 50.08 64.97 50.08 65.17 50 65.97 50 66.77 49.92 67.04 49.92 67.17 49.84 67.77 49.84 67.84 49.84 68.3 49.84 68.37 49.84 68.83 49.84 69.17 49.84 70.63 49.84 72.03 49.84"/>
      </g>
      <g stroke-width="0.3" fill="#000000" fill-opacity="0.000" class="geometry color_newno_tests" stroke-dasharray="none" stroke="#0000FF" id="img-9cbf326d-11">
        <path fill="none" d="M57.25,46.29 L 57.32 46.29 57.38 46.29 57.45 46.29 57.52 46.29 57.58 46.29 57.65 46.29 57.72 46.29 57.92 46.29 58.05 46.29 58.18 46.29 58.25 46.29 58.32 46.37 58.38 46.37 58.45 46.37 58.52 46.45 59.65 46.37 60.18 46.37 60.78 46.37 61.91 46.37 62.11 46.45 62.44 46.45 62.78 46.53 63.84 46.77 64.11 47.02 64.44 47.18 64.71 47.18 64.97 47.18 65.17 47.26 65.97 47.34 66.77 47.5 67.04 47.5 67.17 47.5 67.77 47.5 67.84 47.5 68.3 47.5 68.37 47.5 68.83 47.5 69.17 47.5 70.63 47.58 72.03 47.66"/>
      </g>
      <g stroke-width="0.3" fill="#000000" fill-opacity="0.000" class="geometry color_newtests_fail" stroke-dasharray="none" stroke="#FF0000" id="img-9cbf326d-12">
        <path fill="none" d="M57.25,50.4 L 57.32 50.16 57.38 50.08 57.45 50 57.52 49.84 57.58 50.08 57.65 49.76 57.72 50 57.92 49.84 58.05 49.76 58.18 49.68 58.25 49.92 58.32 47.34 58.38 49.76 58.45 49.27 58.52 49.35 59.65 49.68 60.18 49.76 60.78 49.11 61.91 47.74 62.11 48.14 62.44 48.63 62.78 49.03 63.84 48.95 64.11 48.55 64.44 48.87 64.71 48.95 64.97 48.71 65.17 48.71 65.97 48.55 66.77 48.39 67.04 48.95 67.17 48.95 67.77 49.03 67.84 48.95 68.3 49.19 68.37 49.11 68.83 49.19 69.17 49.03 70.63 48.87 72.03 48.87"/>
      </g>
      <g stroke-width="0.3" fill="#000000" fill-opacity="0.000" class="geometry color_newtests_pass" stroke-dasharray="none" stroke="#008000" id="img-9cbf326d-13">
        <path fill="none" d="M57.25,24.37 L 57.32 24.61 57.38 24.53 57.45 24.61 57.52 24.61 57.58 24.37 57.65 24.69 57.72 24.37 57.92 24.53 58.05 24.45 58.18 24.53 58.25 24.2 58.32 26.38 58.38 23.8 58.45 24.2 58.52 24.04 59.65 22.75 60.18 22.27 60.78 22.51 61.91 22.75 62.11 22.11 62.44 21.79 62.78 21.38 63.84 20.42 64.11 20.17 64.44 19.37 64.71 19.21 64.97 19.29 65.17 19.13 65.97 19.13 66.77 19.13 67.04 18.72 67.17 18.64 67.77 18.56 67.84 18.64 68.3 18.24 68.37 18.24 68.83 18.08 69.17 18.16 70.63 18.24 72.03 18.08"/>
      </g>
      <g stroke-width="0.3" fill="#000000" fill-opacity="0.000" class="geometry color_newnot_possible" stroke-dasharray="none" stroke="#808080" id="img-9cbf326d-14">
        <path fill="none" d="M27.49,52.34 L 27.56 52.34 27.62 52.34 27.69 52.34 27.76 52.34 27.82 52.34 27.89 52.34 27.96 52.34 28.09 52.34 28.16 52.34 28.29 52.34 28.42 52.34 28.49 52.34 28.62 52.34 28.69 52.34 29.15 52.34 29.35 52.34 29.49 52.34 29.95 52.42 30.02 52.42 30.09 52.42 30.15 52.42 30.22 52.42 30.29 52.34 30.35 52.34 30.42 52.34 30.49 52.34 30.55 52.17 30.62 52.17 30.69 52.17 30.82 52.09 30.89 52.66 30.95 52.66 31.02 52.66 31.09 52.66 31.15 52.66 31.22 52.66 31.29 52.66 31.35 52.66 31.42 52.66 31.49 52.66 31.55 52.66 31.62 52.66 31.68 52.66 31.75 52.66 31.82 52.66 31.88 52.66 32.28 52.25 32.35 52.17 32.42 52.17 32.48 52.17 32.55 52.17 32.62 52.09 32.68 51.93 32.75 51.93 32.82 51.93 32.88 51.93 33.02 51.93 33.08 51.93 33.15 51.93 33.22 51.93 33.28 51.93 33.35 51.93 33.42 51.93 33.48 51.93 33.62 51.93 33.68 51.93 33.75 51.93 33.82 51.93 33.88 51.93 33.95 51.93 34.08 51.93 34.15 51.93 34.21 51.93 34.28 51.93 34.41 51.93 34.55 51.93 34.61 51.93 34.68 51.93 34.75 51.93 34.95 51.93 35.01 51.93 35.08 51.93 35.15 51.93 35.21 51.93 35.28 51.93 35.35 51.85 35.41 51.85 35.55 51.85 35.61 51.85 35.75 51.85 35.81 51.85 35.88 51.85 35.95 51.85 36.08 51.85 36.15 51.85 36.21 51.85 36.28 51.85 36.35 51.85 36.41 51.85 36.48 51.85 36.54 51.85 36.61 51.77 36.68 51.69 36.74 51.69 36.81 51.69 36.88 51.69 37.01 51.69 37.08 51.69 37.14 51.69 37.21 51.69 37.28 51.69 37.34 51.69 37.41 51.69 37.48 51.69 37.61 51.69 37.68 51.61 37.81 51.61 37.88 51.61 37.94 51.53 38.21 51.53 38.41 51.53 38.48 51.53 38.54 51.53 38.61 51.53 38.68 51.53 38.74 51.53 38.81 51.53 38.88 51.53 38.94 51.53 39.07 51.45 39.14 51.45 39.21 51.45 39.27 51.45 39.34 51.45 39.41 51.45 39.47 51.37 39.61 51.37 39.67 51.37 39.74 51.37 39.81 51.37 39.87 51.13 39.94 51.29 40.01 51.29 40.07 51.29 40.27 51.29 40.34 51.21 40.41 51.21 40.47 51.21 40.54 51.21 40.61 51.21 40.67 51.21 40.74 51.21 40.81 51.21 40.87 51.21 40.94 51.13 41.01 51.13 41.07 51.13 41.14 51.13 41.21 51.13 41.27 51.13 41.34 51.13 41.41 51.13 41.47 51.13 41.54 51.13 41.6 51.13 41.67 51.13 41.74 51.13 41.8 51.13 41.87 51.13 41.94 51.13 42 51.13 42.07 51.13 42.14 51.13 42.2 51.13 42.4 51.13 42.74 51.13 42.8 51.13 42.87 51.13 42.94 51.13 43 51.13 43.07 51.13 43.14 51.13 43.4 51.13 43.47 51.13 43.8 51.13 43.93 51.13 44 51.21 44.07 51.21 44.13 51.21 44.2 51.21 44.27 51.21 44.33 51.21 44.53 51.21 44.6 51.21 44.73 51.21 44.8 51.21 44.87 51.21 45.07 51.21 45.2 51.21 45.4 51.21 45.67 51.21 45.8 51.21 46 51.21 46.46 51.21 46.73 51.21 46.8 51.05 46.86 51.05 46.93 50.97 47 50.97 47.06 50.97 47.2 50.97 47.26 50.97 47.33 50.97 47.4 50.97 47.46 50.97 47.53 50.97 47.6 50.97 47.73 50.88 47.8 50.88 47.86 50.88 48.13 50.88 48.2 50.88 48.26 50.88 48.4 50.88 48.53 50.88 48.6 50.88 48.8 50.88 49.13 50.88 49.46 50.88 49.79 50.88 49.86 50.88 49.93 50.88 49.99 50.32 50.06 50.4 50.19 50.32 50.33 50.32 50.59 50.32 50.66 50.32 50.73 50.32 50.79 50.32 50.86 50.32 50.93 50.4 50.99 50.32 51.79 50.24 51.92 50.16 51.99 50.16 52.12 50.16 52.39 50.16 52.52 50.16 52.66 50.16 52.92 50.16 53.06 50.16 53.12 50.16 53.26 50.16 53.32 50.16 53.39 50.16 53.46 50.16 53.52 50.16 53.59 50.16 53.72 50.16 53.79 50.16 53.92 50.16 54.05 50.16 54.12 50.16 54.19 50.16 54.32 50.16 54.39 50.16 54.72 50.16 54.99 50.24 55.05 50.16 55.59 50.16 55.65 50 55.72 50 55.92 50 55.99 50 56.05 50.08 56.19 50.08 56.32 50.08 56.45 50.08 57.05 50.08"/>
      </g>
      <g stroke-width="0.3" fill="#000000" fill-opacity="0.000" class="geometry color_newtests_fail" stroke-dasharray="none" stroke="#FF0000" id="img-9cbf326d-15">
        <path fill="none" d="M27.49,51.69 L 27.56 51.69 27.62 50.48 27.69 51.77 27.76 51.69 27.82 50.4 27.89 50.4 27.96 50.4 28.09 51.69 28.16 51.69 28.29 51.77 28.42 51.77 28.49 51.77 28.62 51.85 28.69 51.85 29.15 51.93 29.35 51.93 29.49 51.93 29.95 51.85 30.02 51.93 30.09 51.77 30.15 51.77 30.22 51.85 30.29 51.93 30.35 51.85 30.42 51.85 30.49 51.85 30.55 51.93 30.62 51.93 30.69 51.77 30.82 51.85 30.89 51.69 30.95 51.85 31.02 52.01 31.09 52.01 31.15 52.09 31.22 52.09 31.29 52.01 31.35 52.09 31.42 52.09 31.49 52.09 31.55 52.17 31.62 52.17 31.68 52.82 31.75 52.5 31.82 52.5 31.88 52.5 32.28 52.98 32.35 53.06 32.42 53.06 32.48 53.06 32.55 52.98 32.62 53.06 32.68 53.06 32.75 53.06 32.82 52.98 32.88 51.45 33.02 52.98 33.08 53.06 33.15 53.06 33.22 53.06 33.28 53.06 33.35 53.06 33.42 53.06 33.48 53.06 33.62 53.06 33.68 53.06 33.75 52.98 33.82 52.98 33.88 52.98 33.95 52.98 34.08 52.98 34.15 52.82 34.21 52.82 34.28 52.82 34.41 52.66 34.55 51.05 34.61 50.97 34.68 52.66 34.75 52.58 34.95 52.74 35.01 52.74 35.08 52.74 35.15 52.74 35.21 52.82 35.28 52.9 35.35 52.9 35.41 52.9 35.55 52.9 35.61 52.98 35.75 52.9 35.81 52.98 35.88 52.98 35.95 52.98 36.08 52.98 36.15 52.98 36.21 52.82 36.28 52.9 36.35 52.9 36.41 52.82 36.48 52.82 36.54 52.66 36.61 52.74 36.68 52.9 36.74 50.64 36.81 51.13 36.88 51.13 37.01 52.98 37.08 53.06 37.14 52.98 37.21 53.06 37.28 52.98 37.34 52.98 37.41 53.14 37.48 52.9 37.61 53.22 37.68 53.3 37.81 53.14 37.88 53.14 37.94 53.22 38.21 53.22 38.41 53.63 38.48 53.63 38.54 53.63 38.61 53.71 38.68 53.79 38.74 53.79 38.81 53.79 38.88 53.79 38.94 53.79 39.07 53.63 39.14 53.63 39.21 53.54 39.27 53.63 39.34 53.54 39.41 53.38 39.47 53.46 39.61 53.54 39.67 53.63 39.74 53.63 39.81 53.54 39.87 53.46 39.94 53.54 40.01 53.63 40.07 53.63 40.27 53.63 40.34 53.63 40.41 53.63 40.47 53.71 40.54 53.71 40.61 53.71 40.67 53.71 40.74 53.71 40.81 53.54 40.87 53.46 40.94 53.46 41.01 53.3 41.07 53.46 41.14 53.46 41.21 53.46 41.27 53.46 41.34 53.46 41.41 53.38 41.47 53.46 41.54 53.38 41.6 53.46 41.67 53.38 41.74 53.46 41.8 53.46 41.87 53.46 41.94 53.54 42 53.54 42.07 53.63 42.14 53.63 42.2 53.38 42.4 53.71 42.74 53.63 42.8 53.63 42.87 53.63 42.94 53.71 43 53.79 43.07 53.63 43.14 53.63 43.4 53.54 43.47 53.63 43.8 53.63 43.93 53.63 44 53.14 44.07 53.38 44.13 53.63 44.2 53.63 44.27 53.63 44.33 53.54 44.53 53.46 44.6 53.46 44.73 53.38 44.8 53.46 44.87 53.46 45.07 53.46 45.2 53.54 45.4 53.54 45.67 53.54 45.8 53.54 46 53.54 46.46 53.46 46.73 53.3 46.8 53.46 46.86 53.46 46.93 53.14 47 53.14 47.06 53.22 47.2 53.22 47.26 53.14 47.33 53.14 47.4 53.06 47.46 53.14 47.53 53.14 47.6 53.14 47.73 53.14 47.8 53.14 47.86 53.14 48.13 52.9 48.2 52.9 48.26 52.9 48.4 52.82 48.53 52.74 48.6 52.74 48.8 52.74 49.13 52.74 49.46 52.82 49.79 50.48 49.86 51.29 49.93 51.85 49.99 52.82 50.06 52.82 50.19 52.82 50.33 52.82 50.59 52.82 50.66 52.74 50.73 52.74 50.79 52.74 50.86 52.74 50.93 52.74 50.99 52.66 51.79 52.58 51.92 52.66 51.99 52.82 52.12 52.82 52.39 52.66 52.52 52.82 52.66 52.74 52.92 52.74 53.06 52.74 53.12 52.66 53.26 52.5 53.32 52.5 53.39 52.5 53.46 52.58 53.52 52.42 53.59 52.42 53.72 52.42 53.79 52.5 53.92 52.42 54.05 52.42 54.12 52.25 54.19 52.25 54.32 52.34 54.39 52.25 54.72 52.17 54.99 52.01 55.05 52.01 55.59 51.69 55.65 51.69 55.72 51.69 55.92 51.69 55.99 51.69 56.05 51.77 56.19 51.85 56.32 51.77 56.45 51.77 57.05 51.93"/>
      </g>
      <g stroke-width="0.3" fill="#000000" fill-opacity="0.000" class="geometry color_newno_tests" stroke-dasharray="none" stroke="#0000FF" id="img-9cbf326d-16">
        <path fill="none" d="M27.49,50.56 L 27.56 50.56 27.62 50.56 27.69 50.56 27.76 50.56 27.82 50.64 27.89 50.64 27.96 50.56 28.09 50.48 28.16 50.48 28.29 50.48 28.42 50.32 28.49 50.32 28.62 50.32 28.69 50.32 29.15 50.32 29.35 50.32 29.49 50.32 29.95 50.24 30.02 50.24 30.09 50.24 30.15 50.24 30.22 50.24 30.29 50.24 30.35 50.24 30.42 50.24 30.49 50.24 30.55 50.4 30.62 50.4 30.69 50.4 30.82 50.48 30.89 50.48 30.95 50.48 31.02 50.4 31.09 50.4 31.15 50.56 31.22 50.64 31.29 50.64 31.35 50.64 31.42 50.64 31.49 50.64 31.55 50.64 31.62 50.64 31.68 50.32 31.75 50.4 31.82 50.4 31.88 50.4 32.28 50.4 32.35 50.4 32.42 50.4 32.48 50.48 32.55 50.48 32.62 50.48 32.68 50.48 32.75 50.56 32.82 50.56 32.88 50.8 33.02 50.72 33.08 50.56 33.15 50.56 33.22 50.56 33.28 50.56 33.35 50.56 33.42 50.56 33.48 50.56 33.62 50.64 33.68 50.56 33.75 50.56 33.82 50.56 33.88 50.72 33.95 50.72 34.08 50.72 34.15 50.72 34.21 50.72 34.28 50.72 34.41 50.56 34.55 50.8 34.61 50.72 34.68 50.64 34.75 50.64 34.95 50.64 35.01 50.64 35.08 50.64 35.15 50.64 35.21 50.72 35.28 50.72 35.35 50.72 35.41 50.8 35.55 50.8 35.61 50.8 35.75 50.8 35.81 50.8 35.88 50.8 35.95 50.8 36.08 50.64 36.15 50.72 36.21 50.72 36.28 50.64 36.35 50.64 36.41 50.64 36.48 50.64 36.54 50.64 36.61 50.64 36.68 50.64 36.74 51.13 36.81 51.13 36.88 51.13 37.01 50.56 37.08 50.56 37.14 50.64 37.21 50.64 37.28 50.72 37.34 50.64 37.41 50.64 37.48 50.72 37.61 51.21 37.68 51.29 37.81 51.29 37.88 51.29 37.94 51.29 38.21 51.29 38.41 51.21 38.48 51.21 38.54 51.13 38.61 51.13 38.68 51.13 38.74 51.21 38.81 51.21 38.88 51.29 38.94 51.29 39.07 51.29 39.14 51.21 39.21 51.21 39.27 51.21 39.34 51.21 39.41 51.29 39.47 51.29 39.61 51.21 39.67 51.21 39.74 51.21 39.81 51.21 39.87 50.88 39.94 51.21 40.01 51.21 40.07 51.21 40.27 51.29 40.34 51.29 40.41 51.21 40.47 51.21 40.54 51.21 40.61 51.21 40.67 51.21 40.74 51.21 40.81 51.21 40.87 51.21 40.94 51.21 41.01 51.29 41.07 51.21 41.14 51.21 41.21 51.21 41.27 51.21 41.34 51.21 41.41 51.29 41.47 51.21 41.54 51.29 41.6 51.21 41.67 51.21 41.74 51.21 41.8 51.21 41.87 51.21 41.94 51.21 42 51.21 42.07 51.21 42.14 51.21 42.2 51.21 42.4 51.21 42.74 51.21 42.8 51.21 42.87 51.21 42.94 51.21 43 51.21 43.07 51.21 43.14 51.21 43.4 51.29 43.47 51.21 43.8 51.21 43.93 51.21 44 51.21 44.07 51.29 44.13 51.21 44.2 51.21 44.27 51.21 44.33 51.29 44.53 51.21 44.6 51.21 44.73 51.21 44.8 51.13 44.87 51.13 45.07 51.21 45.2 51.13 45.4 51.13 45.67 51.21 45.8 51.13 46 51.13 46.46 51.13 46.73 51.13 46.8 51.13 46.86 51.13 46.93 51.21 47 51.13 47.06 51.13 47.2 51.13 47.26 51.21 47.33 51.21 47.4 51.21 47.46 51.13 47.53 51.13 47.6 51.13 47.73 51.13 47.8 51.13 47.86 51.13 48.13 51.13 48.2 51.13 48.26 51.13 48.4 51.13 48.53 51.13 48.6 51.13 48.8 51.13 49.13 51.13 49.46 51.13 49.79 51.37 49.86 51.29 49.93 51.29 49.99 51.29 50.06 51.21 50.19 51.21 50.33 51.21 50.59 51.21 50.66 51.21 50.73 51.29 50.79 51.29 50.86 51.29 50.93 51.29 50.99 51.29 51.79 51.37 51.92 51.37 51.99 51.37 52.12 51.45 52.39 51.45 52.52 51.45 52.66 51.45 52.92 51.45 53.06 51.45 53.12 51.45 53.26 51.45 53.32 51.45 53.39 51.45 53.46 51.45 53.52 51.45 53.59 51.45 53.72 51.45 53.79 51.45 53.92 51.53 54.05 51.45 54.12 51.45 54.19 51.45 54.32 51.53 54.39 51.45 54.72 51.53 54.99 51.53 55.05 51.53 55.59 51.53 55.65 51.53 55.72 51.53 55.92 51.61 55.99 51.61 56.05 51.53 56.19 51.53 56.32 51.53 56.45 51.61 57.05 51.53"/>
      </g>
      <g stroke-width="0.3" fill="#000000" fill-opacity="0.000" class="geometry color_oldfull_fail" stroke-dasharray="none" stroke="#FFA500" id="img-9cbf326d-17">
        <path fill="none" d="M27.49,51.61 L 27.56 51.61 27.62 52.17 27.69 51.29 27.76 51.37 27.82 52.01 27.89 51.85 27.96 52.01 28.09 50.88 28.16 50.88 28.29 50.8 28.42 51.13 28.49 50.97 28.62 51.21 28.69 51.13 29.15 51.29 29.35 51.29 29.49 51.29 29.95 51.21 30.02 51.05 30.09 50.24 30.15 50.24 30.22 50.64 30.29 50.64 30.35 50.88 30.42 50.88 30.49 50.88 30.55 51.21 30.62 51.21 30.69 51.61 30.82 51.61 30.89 51.53 30.95 51.37 31.02 51.45 31.09 51.45 31.15 51.61 31.22 51.61 31.29 51.61 31.35 51.45 31.42 51.77 31.49 51.69 31.55 51.61 31.62 51.45 31.68 54.91 31.75 51.77 31.82 51.37 31.88 51.53 32.28 51.37 32.35 51.69 32.42 52.01 32.48 52.01 32.55 51.93 32.62 52.25 32.68 52.17 32.75 52.17 32.82 52.25 32.88 52.5 33.02 52.09 33.08 52.17 33.15 52.34 33.22 52.17 33.28 52.34 33.35 52.34 33.42 52.01 33.48 52.09 33.62 52.42 33.68 52.42 33.75 52.42 33.82 52.34 33.88 52.25 33.95 52.42 34.08 52.42 34.15 52.5 34.21 52.58 34.28 52.58 34.41 52.42 34.55 51.85 34.61 52.25 34.68 52.17 34.75 52.17 34.95 52.17 35.01 52.17 35.08 51.93 35.15 52.09 35.21 52.01 35.28 52.01 35.35 52.17 35.41 52.09 35.55 52.17 35.61 52.25 35.75 52.25 35.81 52.25 35.88 52.25 35.95 52.25 36.08 52.25 36.15 52.25 36.21 52.25 36.28 52.17 36.35 52.17 36.41 52.09 36.48 52.25 36.54 52.09 36.61 52.01 36.68 52.01 36.74 51.85 36.81 51.77 36.88 51.85 37.01 51.69 37.08 51.77 37.14 52.01 37.21 51.77 37.28 51.77 37.34 51.85 37.41 51.61 37.48 51.69 37.61 52.09 37.68 52.01 37.81 52.01 37.88 52.01 37.94 52.01 38.21 52.01 38.41 51.93 38.48 51.85 38.54 51.93 38.61 51.77 38.68 51.77 38.74 52.01 38.81 51.61 38.88 51.53 38.94 51.53 39.07 51.61 39.14 51.77 39.21 51.69 39.27 51.77 39.34 51.77 39.41 51.61 39.47 51.77 39.61 51.93 39.67 51.93 39.74 51.93 39.81 51.93 39.87 51.69 39.94 52.01 40.01 52.01 40.07 52.01 40.27 51.53 40.34 51.77 40.41 51.77 40.47 51.93 40.54 51.77 40.61 51.93 40.67 51.93 40.74 51.85 40.81 51.85 40.87 51.77 40.94 52.01 41.01 51.93 41.07 51.85 41.14 51.93 41.21 51.93 41.27 51.85 41.34 52.01 41.41 51.77 41.47 51.77 41.54 51.93 41.6 51.85 41.67 51.77 41.74 51.77 41.8 51.77 41.87 51.69 41.94 51.77 42 51.93 42.07 51.69 42.14 51.77 42.2 51.77 42.4 51.61 42.74 51.61 42.8 51.45 42.87 51.45 42.94 51.29 43 51.37 43.07 51.61 43.14 51.61 43.4 51.53 43.47 51.53 43.8 51.37 43.93 51.37 44 51.05 44.07 51.21 44.13 51.29 44.2 51.45 44.27 51.45 44.33 51.29 44.53 51.13 44.6 51.13 44.73 51.05 44.8 50.8 44.87 51.21 45.07 51.13 45.2 51.29 45.4 51.21 45.67 51.05 45.8 51.21 46 50.88 46.46 50.72 46.73 50.8 46.8 50.8 46.86 50.8 46.93 50.4 47 50.24 47.06 50.16 47.2 50.32 47.26 50.32 47.33 50.32 47.4 50.24 47.46 50 47.53 50.4 47.6 50.4 47.73 50.4 47.8 50.4 47.86 50.48 48.13 50.24 48.2 50.4 48.26 50.16 48.4 50.72 48.53 50.72 48.6 50.64 48.8 50.48 49.13 50.48 49.46 50.56 49.79 49.92 49.86 49.59 49.93 49.68 49.99 49.59 50.06 50 50.19 49.92 50.33 50 50.59 49.68 50.66 49.76 50.73 50 50.79 49.84 50.86 49.92 50.93 49.76 50.99 50 51.79 49.92 51.92 50 51.99 49.76 52.12 50 52.39 50.16 52.52 50.08 52.66 49.68 52.92 49.92 53.06 49.76 53.12 50.4 53.26 50.56 53.32 50.32 53.39 50.4 53.46 50.24 53.52 50.32 53.59 50.64 53.72 50.4 53.79 50.32 53.92 50.56 54.05 50.48 54.12 50.32 54.19 50.48 54.32 50.32 54.39 50.24 54.72 50 54.99 50.24 55.05 50.24 55.59 50.32 55.65 50.4 55.72 50.32 55.92 50.64 55.99 50.64 56.05 50.56 56.19 50.16 56.32 50.32 56.45 50.24 57.05 50.4"/>
      </g>
      <g stroke-width="0.3" fill="#000000" fill-opacity="0.000" class="geometry color_newtests_pass" stroke-dasharray="none" stroke="#008000" id="img-9cbf326d-18">
        <path fill="none" d="M27.49,44.52 L 27.56 44.52 27.62 45.08 27.69 44.68 27.76 44.68 27.82 45.24 27.89 45.4 27.96 45.24 28.09 45.16 28.16 45.08 28.29 45 28.42 44.68 28.49 44.84 28.62 44.52 28.69 44.52 29.15 43.95 29.35 43.95 29.49 43.95 29.95 44.03 30.02 43.95 30.09 44.84 30.15 44.84 30.22 44.36 30.29 44.36 30.35 44.19 30.42 44.19 30.49 44.19 30.55 43.79 30.62 43.79 30.69 43.31 30.82 43.15 30.89 42.82 30.95 42.82 31.02 42.5 31.09 42.5 31.15 42.1 31.22 41.94 31.29 42.02 31.35 42.1 31.42 41.78 31.49 41.86 31.55 41.78 31.62 41.94 31.68 41.37 31.75 41.45 31.82 41.78 31.88 41.53 32.28 41.13 32.35 40.73 32.42 40.33 32.48 40.16 32.55 40.16 32.62 39.84 32.68 39.92 32.75 39.84 32.82 39.76 32.88 40.73 33.02 39.68 33.08 39.52 33.15 39.36 33.22 39.52 33.28 39.36 33.35 39.36 33.42 39.44 33.48 39.36 33.62 38.87 33.68 38.79 33.75 38.79 33.82 38.79 33.88 38.71 33.95 38.39 34.08 38.31 34.15 38.15 34.21 38.07 34.28 38.07 34.41 38.15 34.55 39.84 34.61 39.6 34.68 37.99 34.75 38.07 34.95 37.83 35.01 37.83 35.08 37.99 35.15 37.83 35.21 37.75 35.28 37.58 35.35 37.42 35.41 37.34 35.55 37.26 35.61 37.1 35.75 37.18 35.81 37.02 35.88 36.78 35.95 36.78 36.08 36.86 36.15 36.78 36.21 36.78 36.28 36.78 36.35 36.7 36.41 36.78 36.48 36.54 36.54 36.7 36.61 36.78 36.68 36.62 36.74 38.47 36.81 38.07 36.88 37.99 37.01 36.62 37.08 36.46 37.14 36.13 37.21 36.29 37.28 36.29 37.34 36.05 37.41 36.05 37.48 36.05 37.61 35.81 37.68 35.57 37.81 35.57 37.88 35.57 37.94 35.57 38.21 35.57 38.41 34.84 38.48 34.84 38.54 34.76 38.61 34.68 38.68 34.6 38.74 34.28 38.81 34.04 38.88 34.04 38.94 34.04 39.07 34.2 39.14 34.04 39.21 34.12 39.27 33.96 39.34 34.04 39.41 34.2 39.47 34.04 39.61 33.96 39.67 33.8 39.74 33.8 39.81 33.72 39.87 32.99 39.94 33.55 40.01 33.47 40.07 33.31 40.27 33.55 40.34 33.39 40.41 33.31 40.47 32.99 40.54 33.15 40.61 32.99 40.67 32.83 40.74 32.91 40.81 32.99 40.87 33.07 40.94 32.91 41.01 33.07 41.07 33.07 41.14 32.91 41.21 32.75 41.27 32.83 41.34 32.67 41.41 32.83 41.47 32.83 41.54 32.59 41.6 32.67 41.67 32.67 41.74 32.51 41.8 32.51 41.87 32.51 41.94 32.35 42 32.18 42.07 32.26 42.14 32.18 42.2 32.35 42.4 32.18 42.74 31.86 42.8 31.86 42.87 31.86 42.94 31.86 43 31.7 43.07 31.38 43.14 31.38 43.4 31.06 43.47 31.06 43.8 31.14 43.93 31.14 44 31.78 44.07 31.22 44.13 30.97 44.2 30.81 44.27 30.65 44.33 30.73 44.53 30.89 44.6 30.81 44.73 30.73 44.8 30.89 44.87 30.49 45.07 30.49 45.2 30.17 45.4 30.09 45.67 30.01 45.8 29.69 46 29.69 46.46 29.44 46.73 28.96 46.8 28.8 46.86 28.8 46.93 29.12 47 29.36 47.06 29.36 47.2 29.2 47.26 29.04 47.33 29.04 47.4 28.96 47.46 29.12 47.53 28.72 47.6 28.72 47.73 28.56 47.8 28.4 47.86 28.23 48.13 28.07 48.2 28.07 48.26 28.31 48.4 27.59 48.53 27.43 48.6 27.51 48.8 27.51 49.13 27.51 49.46 26.86 49.79 29.28 49.86 28.88 49.93 28.23 49.99 27.75 50.06 27.35 50.19 27.51 50.33 27.43 50.59 27.59 50.66 27.43 50.73 27.03 50.79 27.19 50.86 26.94 50.93 27.11 50.99 26.86 51.79 26.94 51.92 26.86 51.99 26.7 52.12 26.38 52.39 26.3 52.52 26.22 52.66 26.46 52.92 26.22 53.06 26.22 53.12 25.57 53.26 25.17 53.32 25.41 53.39 25.25 53.46 25.09 53.52 25.17 53.59 24.77 53.72 24.93 53.79 24.85 53.92 24.61 54.05 24.61 54.12 24.69 54.19 24.45 54.32 24.28 54.39 24.45 54.72 24.37 54.99 24.04 55.05 23.96 55.59 23.88 55.65 23.96 55.72 24.04 55.92 23.4 55.99 23.32 56.05 23.24 56.19 23.4 56.32 23.32 56.45 23.24 57.05 22.59"/>
      </g>
    </g>
  </g>
</g>
  <g class="guide ylabels" font-size="2.82" font-family="'PT Sans Caption','Helvetica Neue','Helvetica',sans-serif" fill="#6C606B" id="img-9cbf326d-19">
    <text x="18.63" y="54.91" text-anchor="end" dy="0.35em">0</text>
    <text x="18.63" y="46.85" text-anchor="end" dy="0.35em">100</text>
    <text x="18.63" y="38.79" text-anchor="end" dy="0.35em">200</text>
    <text x="18.63" y="30.73" text-anchor="end" dy="0.35em">300</text>
    <text x="18.63" y="22.67" text-anchor="end" dy="0.35em">400</text>
    <text x="18.63" y="14.61" text-anchor="end" dy="0.35em">500</text>
  </g>
  <g font-size="3.88" font-family="'PT Sans','Helvetica Neue','Helvetica',sans-serif" fill="#564A55" stroke="#000000" stroke-opacity="0.000" id="img-9cbf326d-20">
    <text x="8.81" y="32.76" text-anchor="middle" dy="0.35em" transform="rotate(-90, 8.81, 34.76)">Number of Packages</text>
  </g>
  <g font-size="3.88" font-family="'PT Sans','Helvetica Neue','Helvetica',sans-serif" fill="#564A55" stroke="#000000" stroke-opacity="0.000" id="img-9cbf326d-21">
    <text x="58.12" y="10.61" text-anchor="middle">Julia v0.3</text>
  </g>
</g>
<defs>
  <clipPath id="img-9cbf326d-4">
  <path d="M19.63,12.61 L 96.6 12.61 96.6 56.91 19.63 56.91" />
</clipPath>
</defs>
</svg>
