<?xml version="1.0" encoding="UTF-8"?>
<svg xmlns="http://www.w3.org/2000/svg"
     xmlns:xlink="http://www.w3.org/1999/xlink"
     xmlns:gadfly="http://www.gadflyjl.org/ns"
     version="1.2"
     width="101.6mm" height="76.2mm" viewBox="0 0 101.6 76.2"
     stroke="none"
     fill="#000000"
     stroke-width="0.3"
     font-size="3.88"
>
<g class="plotroot xscalable yscalable" id="img-efeb1736-1">
  <g font-size="3.88" font-family="'PT Sans','Helvetica Neue','Helvetica',sans-serif" fill="#564A55" stroke="#000000" stroke-opacity="0.000" id="img-efeb1736-2">
    <text x="58.12" y="64.59" text-anchor="middle" dy="0.6em">Date</text>
  </g>
  <g class="guide xlabels" font-size="2.82" font-family="'PT Sans Caption','Helvetica Neue','Helvetica',sans-serif" fill="#6C606B" id="img-efeb1736-3">
    <text x="21.87" y="48.71" text-anchor="end" dy="0.35em" transform="rotate(-90, 21.87, 48.71)">Apr</text>
    <text x="25.39" y="48.71" text-anchor="end" dy="0.35em" transform="rotate(-90, 25.39, 48.71)">May</text>
    <text x="29.03" y="48.71" text-anchor="end" dy="0.35em" transform="rotate(-90, 29.03, 48.71)">Jun</text>
    <text x="32.56" y="48.71" text-anchor="end" dy="0.35em" transform="rotate(-90, 32.56, 48.71)">Jul</text>
    <text x="36.2" y="48.71" text-anchor="end" dy="0.35em" transform="rotate(-90, 36.2, 48.71)">Aug</text>
    <text x="39.84" y="48.71" text-anchor="end" dy="0.35em" transform="rotate(-90, 39.84, 48.71)">Sep</text>
    <text x="43.37" y="48.71" text-anchor="end" dy="0.35em" transform="rotate(-90, 43.37, 48.71)">Oct</text>
    <text x="47.01" y="48.71" text-anchor="end" dy="0.35em" transform="rotate(-90, 47.01, 48.71)">Nov</text>
    <text x="50.54" y="48.71" text-anchor="end" dy="0.35em" transform="rotate(-90, 50.54, 48.71)">Dec</text>
    <text x="54.18" y="48.71" text-anchor="end" dy="0.35em" transform="rotate(-90, 54.18, 48.71)">Jan 2015</text>
    <text x="57.82" y="48.71" text-anchor="end" dy="0.35em" transform="rotate(-90, 57.82, 48.71)">Feb</text>
    <text x="61.11" y="48.71" text-anchor="end" dy="0.35em" transform="rotate(-90, 61.11, 48.71)">Mar</text>
    <text x="64.75" y="48.71" text-anchor="end" dy="0.35em" transform="rotate(-90, 64.75, 48.71)">Apr</text>
    <text x="68.28" y="48.71" text-anchor="end" dy="0.35em" transform="rotate(-90, 68.28, 48.71)">May</text>
    <text x="71.92" y="48.71" text-anchor="end" dy="0.35em" transform="rotate(-90, 71.92, 48.71)">Jun</text>
    <text x="75.45" y="48.71" text-anchor="end" dy="0.35em" transform="rotate(-90, 75.45, 48.71)">Jul</text>
    <text x="79.09" y="48.71" text-anchor="end" dy="0.35em" transform="rotate(-90, 79.09, 48.71)">Aug</text>
    <text x="82.73" y="48.71" text-anchor="end" dy="0.35em" transform="rotate(-90, 82.73, 48.71)">Sep</text>
    <text x="86.26" y="48.71" text-anchor="end" dy="0.35em" transform="rotate(-90, 86.26, 48.71)">Oct</text>
    <text x="89.9" y="48.71" text-anchor="end" dy="0.35em" transform="rotate(-90, 89.9, 48.71)">Nov</text>
    <text x="93.42" y="48.71" text-anchor="end" dy="0.35em" transform="rotate(-90, 93.42, 48.71)">Dec</text>
  </g>
<g clip-path="url(#img-efeb1736-4)">
  <g id="img-efeb1736-5">
    <g pointer-events="visible" opacity="1" fill="#000000" fill-opacity="0.000" stroke="#000000" stroke-opacity="0.000" class="guide background" id="img-efeb1736-6">
      <rect x="19.63" y="12.61" width="76.97" height="35.1"/>
    </g>
    <g class="guide ygridlines xfixed" stroke-dasharray="0.5,0.5" stroke-width="0.2" stroke="#D0D0E0" id="img-efeb1736-7">
      <path fill="none" d="M19.63,45.71 L 96.6 45.71"/>
      <path fill="none" d="M19.63,39.49 L 96.6 39.49"/>
      <path fill="none" d="M19.63,33.27 L 96.6 33.27"/>
      <path fill="none" d="M19.63,27.05 L 96.6 27.05"/>
      <path fill="none" d="M19.63,20.83 L 96.6 20.83"/>
      <path fill="none" d="M19.63,14.61 L 96.6 14.61"/>
    </g>
    <g class="guide xgridlines yfixed" stroke-dasharray="0.5,0.5" stroke-width="0.2" stroke="#D0D0E0" id="img-efeb1736-8">
      <path fill="none" d="M21.87,12.61 L 21.87 47.71"/>
      <path fill="none" d="M25.39,12.61 L 25.39 47.71"/>
      <path fill="none" d="M29.03,12.61 L 29.03 47.71"/>
      <path fill="none" d="M32.56,12.61 L 32.56 47.71"/>
      <path fill="none" d="M36.2,12.61 L 36.2 47.71"/>
      <path fill="none" d="M39.84,12.61 L 39.84 47.71"/>
      <path fill="none" d="M43.37,12.61 L 43.37 47.71"/>
      <path fill="none" d="M47.01,12.61 L 47.01 47.71"/>
      <path fill="none" d="M50.54,12.61 L 50.54 47.71"/>
      <path fill="none" d="M54.18,12.61 L 54.18 47.71"/>
      <path fill="none" d="M57.82,12.61 L 57.82 47.71"/>
      <path fill="none" d="M61.11,12.61 L 61.11 47.71"/>
      <path fill="none" d="M64.75,12.61 L 64.75 47.71"/>
      <path fill="none" d="M68.28,12.61 L 68.28 47.71"/>
      <path fill="none" d="M71.92,12.61 L 71.92 47.71"/>
      <path fill="none" d="M75.45,12.61 L 75.45 47.71"/>
      <path fill="none" d="M79.09,12.61 L 79.09 47.71"/>
      <path fill="none" d="M82.73,12.61 L 82.73 47.71"/>
      <path fill="none" d="M86.26,12.61 L 86.26 47.71"/>
      <path fill="none" d="M89.9,12.61 L 89.9 47.71"/>
      <path fill="none" d="M93.42,12.61 L 93.42 47.71"/>
    </g>
    <g class="plotpanel" id="img-efeb1736-9">
      <g stroke-width="0.3" fill="#000000" fill-opacity="0.000" class="geometry color_newnot_possible" stroke-dasharray="none" stroke="#808080" id="img-efeb1736-10">
        <path fill="none" d="M74.15,42.41 L 74.27 42.41 74.39 42.41 74.51 42.41 74.62 42.41 74.74 42.41 74.86 42.41 74.98 42.41 75.33 42.41 75.56 42.41 75.8 42.47 75.92 42.41 76.03 42.41 76.15 42.41 76.27 42.41 76.39 42.41 78.38 42.35 79.32 42.35 80.38 42.35 82.38 42.35 82.73 42.35 83.32 42.16 83.91 41.98 85.79 41.98 86.26 41.98 86.84 41.98 87.31 41.98 87.78 41.98 88.14 41.91 89.55 41.91 90.96 41.85 91.43 41.85 91.66 41.79 92.72 41.79 92.84 41.79 93.66 41.79 93.78 41.79 94.6 41.79"/>
      </g>
      <g stroke-width="0.3" fill="#000000" fill-opacity="0.000" class="geometry color_newno_tests" stroke-dasharray="none" stroke="#0000FF" id="img-efeb1736-11">
        <path fill="none" d="M74.15,39.05 L 74.27 39.05 74.39 39.05 74.51 39.05 74.62 39.05 74.74 39.05 74.86 39.05 74.98 39.05 75.33 39.05 75.56 39.05 75.8 39.05 75.92 39.05 76.03 39.12 76.15 39.12 76.27 39.12 76.39 39.18 78.38 39.12 79.32 39.12 80.38 39.12 82.38 39.12 82.73 39.18 83.32 39.18 83.91 39.24 85.79 39.43 86.26 39.61 86.84 39.74 87.31 39.74 87.78 39.74 88.14 39.8 89.55 39.86 90.96 39.99 91.43 39.99 91.66 39.99 92.72 39.99 92.84 39.99 93.66 39.99 93.78 39.99 94.6 39.99"/>
      </g>
      <g stroke-width="0.3" fill="#000000" fill-opacity="0.000" class="geometry color_newtests_fail" stroke-dasharray="none" stroke="#FF0000" id="img-efeb1736-12">
        <path fill="none" d="M74.15,42.23 L 74.27 42.04 74.39 41.98 74.51 41.91 74.62 41.79 74.74 41.98 74.86 41.73 74.98 41.91 75.33 41.79 75.56 41.73 75.8 41.67 75.92 41.85 76.03 39.86 76.15 41.73 76.27 41.35 76.39 41.42 78.38 41.67 79.32 41.73 80.38 41.23 82.38 40.17 82.73 40.48 83.32 40.86 83.91 41.17 85.79 41.11 86.26 40.8 86.84 41.04 87.31 41.11 87.78 40.92 88.14 40.92 89.55 40.8 90.96 40.67 91.43 41.11 91.66 41.11 92.72 41.17 92.84 41.11 93.66 41.29 93.78 41.23 94.6 41.29"/>
      </g>
      <g stroke-width="0.3" fill="#000000" fill-opacity="0.000" class="geometry color_newtests_pass" stroke-dasharray="none" stroke="#008000" id="img-efeb1736-13">
        <path fill="none" d="M74.15,22.14 L 74.27 22.32 74.39 22.26 74.51 22.32 74.62 22.32 74.74 22.14 74.86 22.39 74.98 22.14 75.33 22.26 75.56 22.2 75.8 22.26 75.92 22.01 76.03 23.69 76.15 21.7 76.27 22.01 76.39 21.89 78.38 20.89 79.32 20.52 80.38 20.71 82.38 20.89 82.73 20.4 83.32 20.15 83.91 19.84 85.79 19.09 86.26 18.9 86.84 18.28 87.31 18.16 87.78 18.22 88.14 18.09 89.55 18.09 90.96 18.09 91.43 17.78 91.66 17.72 92.72 17.66 92.84 17.72 93.66 17.41 93.78 17.41 94.6 17.29"/>
      </g>
      <g stroke-width="0.3" fill="#000000" fill-opacity="0.000" class="geometry color_newnot_possible" stroke-dasharray="none" stroke="#808080" id="img-efeb1736-14">
        <path fill="none" d="M21.63,43.72 L 21.75 43.72 21.87 43.72 21.98 43.72 22.1 43.72 22.22 43.72 22.34 43.72 22.45 43.72 22.69 43.72 22.81 43.72 23.04 43.72 23.28 43.72 23.39 43.72 23.63 43.72 23.75 43.72 24.57 43.72 24.92 43.72 25.16 43.72 25.98 43.78 26.1 43.78 26.21 43.78 26.33 43.78 26.45 43.78 26.57 43.72 26.68 43.72 26.8 43.72 26.92 43.72 27.04 43.59 27.15 43.59 27.27 43.59 27.51 43.53 27.62 43.97 27.74 43.97 27.86 43.97 27.98 43.97 28.09 43.97 28.21 43.97 28.33 43.97 28.45 43.97 28.56 43.97 28.68 43.97 28.8 43.97 28.92 43.97 29.03 43.97 29.15 43.97 29.27 43.97 29.39 43.97 30.09 43.66 30.21 43.59 30.33 43.59 30.44 43.59 30.56 43.59 30.68 43.53 30.8 43.41 30.91 43.41 31.03 43.41 31.15 43.41 31.38 43.41 31.5 43.41 31.62 43.41 31.74 43.41 31.85 43.41 31.97 43.41 32.09 43.41 32.21 43.41 32.44 43.41 32.56 43.41 32.68 43.41 32.79 43.41 32.91 43.41 33.03 43.41 33.26 43.41 33.38 43.41 33.5 43.41 33.62 43.41 33.85 43.41 34.09 43.41 34.2 43.41 34.32 43.41 34.44 43.41 34.79 43.41 34.91 43.41 35.03 43.41 35.14 43.41 35.26 43.41 35.38 43.41 35.5 43.34 35.61 43.34 35.85 43.34 35.97 43.34 36.2 43.34 36.32 43.34 36.44 43.34 36.55 43.34 36.79 43.34 36.91 43.34 37.02 43.34 37.14 43.34 37.26 43.34 37.38 43.34 37.49 43.34 37.61 43.34 37.73 43.28 37.85 43.22 37.96 43.22 38.08 43.22 38.2 43.22 38.43 43.22 38.55 43.22 38.67 43.22 38.79 43.22 38.9 43.22 39.02 43.22 39.14 43.22 39.26 43.22 39.49 43.22 39.61 43.16 39.84 43.16 39.96 43.16 40.08 43.1 40.55 43.1 40.9 43.1 41.02 43.1 41.14 43.1 41.25 43.1 41.37 43.1 41.49 43.1 41.61 43.1 41.72 43.1 41.84 43.1 42.08 43.03 42.19 43.03 42.31 43.03 42.43 43.03 42.55 43.03 42.66 43.03 42.78 42.97 43.02 42.97 43.13 42.97 43.25 42.97 43.37 42.97 43.49 42.79 43.6 42.91 43.72 42.91 43.84 42.91 44.19 42.91 44.31 42.85 44.43 42.85 44.54 42.85 44.66 42.85 44.78 42.85 44.9 42.85 45.01 42.85 45.13 42.85 45.25 42.85 45.37 42.79 45.48 42.79 45.6 42.79 45.72 42.79 45.84 42.79 45.95 42.79 46.07 42.79 46.19 42.79 46.31 42.79 46.42 42.79 46.54 42.79 46.66 42.79 46.78 42.79 46.89 42.79 47.01 42.79 47.13 42.79 47.25 42.79 47.36 42.79 47.48 42.79 47.6 42.79 47.95 42.79 48.54 42.79 48.66 42.79 48.77 42.79 48.89 42.79 49.01 42.79 49.13 42.79 49.24 42.79 49.71 42.79 49.83 42.79 50.42 42.79 50.65 42.79 50.77 42.85 50.89 42.85 51.01 42.85 51.12 42.85 51.24 42.85 51.36 42.85 51.71 42.85 51.83 42.85 52.06 42.85 52.18 42.85 52.3 42.85 52.65 42.85 52.89 42.85 53.24 42.85 53.71 42.85 53.94 42.85 54.3 42.85 55.12 42.85 55.59 42.85 55.71 42.72 55.82 42.72 55.94 42.66 56.06 42.66 56.18 42.66 56.41 42.66 56.53 42.66 56.65 42.66 56.76 42.66 56.88 42.66 57 42.66 57.12 42.66 57.35 42.6 57.47 42.6 57.59 42.6 58.06 42.6 58.17 42.6 58.29 42.6 58.53 42.6 58.76 42.6 58.88 42.6 59.23 42.6 59.82 42.6 60.41 42.6 60.99 42.6 61.11 42.6 61.23 42.6 61.35 42.16 61.46 42.23 61.7 42.16 61.93 42.16 62.4 42.16 62.52 42.16 62.64 42.16 62.76 42.16 62.87 42.16 62.99 42.23 63.11 42.16 64.52 42.1 64.75 42.04 64.87 42.04 65.11 42.04 65.58 42.04 65.81 42.04 66.05 42.04 66.52 42.04 66.75 42.04 66.87 42.04 67.1 42.04 67.22 42.04 67.34 42.04 67.46 42.04 67.57 42.04 67.69 42.04 67.93 42.04 68.04 42.04 68.28 42.04 68.51 42.04 68.63 42.04 68.75 42.04 68.98 42.04 69.1 42.04 69.69 42.04 70.16 42.1 70.28 42.04 71.22 42.04 71.33 41.91 71.45 41.91 71.8 41.91 71.92 41.91 72.04 41.98 72.27 41.98 72.51 41.98 72.74 41.98 73.8 41.98"/>
      </g>
      <g stroke-width="0.3" fill="#000000" fill-opacity="0.000" class="geometry color_newtests_fail" stroke-dasharray="none" stroke="#FF0000" id="img-efeb1736-15">
        <path fill="none" d="M21.63,43.22 L 21.75 43.22 21.87 42.29 21.98 43.28 22.1 43.22 22.22 42.23 22.34 42.23 22.45 42.23 22.69 43.22 22.81 43.22 23.04 43.28 23.28 43.28 23.39 43.28 23.63 43.34 23.75 43.34 24.57 43.41 24.92 43.41 25.16 43.41 25.98 43.34 26.1 43.41 26.21 43.28 26.33 43.28 26.45 43.34 26.57 43.41 26.68 43.34 26.8 43.34 26.92 43.34 27.04 43.41 27.15 43.41 27.27 43.28 27.51 43.34 27.62 43.22 27.74 43.34 27.86 43.47 27.98 43.47 28.09 43.53 28.21 43.53 28.33 43.47 28.45 43.53 28.56 43.53 28.68 43.53 28.8 43.59 28.92 43.59 29.03 44.09 29.15 43.84 29.27 43.84 29.39 43.84 30.09 44.22 30.21 44.28 30.33 44.28 30.44 44.28 30.56 44.22 30.68 44.28 30.8 44.28 30.91 44.28 31.03 44.22 31.15 43.03 31.38 44.22 31.5 44.28 31.62 44.28 31.74 44.28 31.85 44.28 31.97 44.28 32.09 44.28 32.21 44.28 32.44 44.28 32.56 44.28 32.68 44.22 32.79 44.22 32.91 44.22 33.03 44.22 33.26 44.22 33.38 44.09 33.5 44.09 33.62 44.09 33.85 43.97 34.09 42.72 34.2 42.66 34.32 43.97 34.44 43.9 34.79 44.03 34.91 44.03 35.03 44.03 35.14 44.03 35.26 44.09 35.38 44.15 35.5 44.15 35.61 44.15 35.85 44.15 35.97 44.22 36.2 44.15 36.32 44.22 36.44 44.22 36.55 44.22 36.79 44.22 36.91 44.22 37.02 44.09 37.14 44.15 37.26 44.15 37.38 44.09 37.49 44.09 37.61 43.97 37.73 44.03 37.85 44.15 37.96 42.41 38.08 42.79 38.2 42.79 38.43 44.22 38.55 44.28 38.67 44.22 38.79 44.28 38.9 44.22 39.02 44.22 39.14 44.34 39.26 44.15 39.49 44.4 39.61 44.46 39.84 44.34 39.96 44.34 40.08 44.4 40.55 44.4 40.9 44.71 41.02 44.71 41.14 44.71 41.25 44.78 41.37 44.84 41.49 44.84 41.61 44.84 41.72 44.84 41.84 44.84 42.08 44.71 42.19 44.71 42.31 44.65 42.43 44.71 42.55 44.65 42.66 44.53 42.78 44.59 43.02 44.65 43.13 44.71 43.25 44.71 43.37 44.65 43.49 44.59 43.6 44.65 43.72 44.71 43.84 44.71 44.19 44.71 44.31 44.71 44.43 44.71 44.54 44.78 44.66 44.78 44.78 44.78 44.9 44.78 45.01 44.78 45.13 44.65 45.25 44.59 45.37 44.59 45.48 44.46 45.6 44.59 45.72 44.59 45.84 44.59 45.95 44.59 46.07 44.59 46.19 44.53 46.31 44.59 46.42 44.53 46.54 44.59 46.66 44.53 46.78 44.59 46.89 44.59 47.01 44.59 47.13 44.65 47.25 44.65 47.36 44.71 47.48 44.71 47.6 44.53 47.95 44.78 48.54 44.71 48.66 44.71 48.77 44.71 48.89 44.78 49.01 44.84 49.13 44.71 49.24 44.71 49.71 44.65 49.83 44.71 50.42 44.71 50.65 44.71 50.77 44.34 50.89 44.53 51.01 44.71 51.12 44.71 51.24 44.71 51.36 44.65 51.71 44.59 51.83 44.59 52.06 44.53 52.18 44.59 52.3 44.59 52.65 44.59 52.89 44.65 53.24 44.65 53.71 44.65 53.94 44.65 54.3 44.65 55.12 44.59 55.59 44.46 55.71 44.59 55.82 44.59 55.94 44.34 56.06 44.34 56.18 44.4 56.41 44.4 56.53 44.34 56.65 44.34 56.76 44.28 56.88 44.34 57 44.34 57.12 44.34 57.35 44.34 57.47 44.34 57.59 44.34 58.06 44.15 58.17 44.15 58.29 44.15 58.53 44.09 58.76 44.03 58.88 44.03 59.23 44.03 59.82 44.03 60.41 44.09 60.99 42.29 61.11 42.91 61.23 43.34 61.35 44.09 61.46 44.09 61.7 44.09 61.93 44.09 62.4 44.09 62.52 44.03 62.64 44.03 62.76 44.03 62.87 44.03 62.99 44.03 63.11 43.97 64.52 43.9 64.75 43.97 64.87 44.09 65.11 44.09 65.58 43.97 65.81 44.09 66.05 44.03 66.52 44.03 66.75 44.03 66.87 43.97 67.1 43.84 67.22 43.84 67.34 43.84 67.46 43.9 67.57 43.78 67.69 43.78 67.93 43.78 68.04 43.84 68.28 43.78 68.51 43.78 68.63 43.66 68.75 43.66 68.98 43.72 69.1 43.66 69.69 43.59 70.16 43.47 70.28 43.47 71.22 43.22 71.33 43.22 71.45 43.22 71.8 43.22 71.92 43.22 72.04 43.28 72.27 43.34 72.51 43.28 72.74 43.28 73.8 43.41"/>
      </g>
      <g stroke-width="0.3" fill="#000000" fill-opacity="0.000" class="geometry color_newno_tests" stroke-dasharray="none" stroke="#0000FF" id="img-efeb1736-16">
        <path fill="none" d="M21.63,42.35 L 21.75 42.35 21.87 42.35 21.98 42.35 22.1 42.35 22.22 42.41 22.34 42.41 22.45 42.35 22.69 42.29 22.81 42.29 23.04 42.29 23.28 42.16 23.39 42.16 23.63 42.16 23.75 42.16 24.57 42.16 24.92 42.16 25.16 42.16 25.98 42.1 26.1 42.1 26.21 42.1 26.33 42.1 26.45 42.1 26.57 42.1 26.68 42.1 26.8 42.1 26.92 42.1 27.04 42.23 27.15 42.23 27.27 42.23 27.51 42.29 27.62 42.29 27.74 42.29 27.86 42.23 27.98 42.23 28.09 42.35 28.21 42.41 28.33 42.41 28.45 42.41 28.56 42.41 28.68 42.41 28.8 42.41 28.92 42.41 29.03 42.16 29.15 42.23 29.27 42.23 29.39 42.23 30.09 42.23 30.21 42.23 30.33 42.23 30.44 42.29 30.56 42.29 30.68 42.29 30.8 42.29 30.91 42.35 31.03 42.35 31.15 42.54 31.38 42.47 31.5 42.35 31.62 42.35 31.74 42.35 31.85 42.35 31.97 42.35 32.09 42.35 32.21 42.35 32.44 42.41 32.56 42.35 32.68 42.35 32.79 42.35 32.91 42.47 33.03 42.47 33.26 42.47 33.38 42.47 33.5 42.47 33.62 42.47 33.85 42.35 34.09 42.54 34.2 42.47 34.32 42.41 34.44 42.41 34.79 42.41 34.91 42.41 35.03 42.41 35.14 42.41 35.26 42.47 35.38 42.47 35.5 42.47 35.61 42.54 35.85 42.54 35.97 42.54 36.2 42.54 36.32 42.54 36.44 42.54 36.55 42.54 36.79 42.41 36.91 42.47 37.02 42.47 37.14 42.41 37.26 42.41 37.38 42.41 37.49 42.41 37.61 42.41 37.73 42.41 37.85 42.41 37.96 42.79 38.08 42.79 38.2 42.79 38.43 42.35 38.55 42.35 38.67 42.41 38.79 42.41 38.9 42.47 39.02 42.41 39.14 42.41 39.26 42.47 39.49 42.85 39.61 42.91 39.84 42.91 39.96 42.91 40.08 42.91 40.55 42.91 40.9 42.85 41.02 42.85 41.14 42.79 41.25 42.79 41.37 42.79 41.49 42.85 41.61 42.85 41.72 42.91 41.84 42.91 42.08 42.91 42.19 42.85 42.31 42.85 42.43 42.85 42.55 42.85 42.66 42.91 42.78 42.91 43.02 42.85 43.13 42.85 43.25 42.85 43.37 42.85 43.49 42.6 43.6 42.85 43.72 42.85 43.84 42.85 44.19 42.91 44.31 42.91 44.43 42.85 44.54 42.85 44.66 42.85 44.78 42.85 44.9 42.85 45.01 42.85 45.13 42.85 45.25 42.85 45.37 42.85 45.48 42.91 45.6 42.85 45.72 42.85 45.84 42.85 45.95 42.85 46.07 42.85 46.19 42.91 46.31 42.85 46.42 42.91 46.54 42.85 46.66 42.85 46.78 42.85 46.89 42.85 47.01 42.85 47.13 42.85 47.25 42.85 47.36 42.85 47.48 42.85 47.6 42.85 47.95 42.85 48.54 42.85 48.66 42.85 48.77 42.85 48.89 42.85 49.01 42.85 49.13 42.85 49.24 42.85 49.71 42.91 49.83 42.85 50.42 42.85 50.65 42.85 50.77 42.85 50.89 42.91 51.01 42.85 51.12 42.85 51.24 42.85 51.36 42.91 51.71 42.85 51.83 42.85 52.06 42.85 52.18 42.79 52.3 42.79 52.65 42.85 52.89 42.79 53.24 42.79 53.71 42.85 53.94 42.79 54.3 42.79 55.12 42.79 55.59 42.79 55.71 42.79 55.82 42.79 55.94 42.85 56.06 42.79 56.18 42.79 56.41 42.79 56.53 42.85 56.65 42.85 56.76 42.85 56.88 42.79 57 42.79 57.12 42.79 57.35 42.79 57.47 42.79 57.59 42.79 58.06 42.79 58.17 42.79 58.29 42.79 58.53 42.79 58.76 42.79 58.88 42.79 59.23 42.79 59.82 42.79 60.41 42.79 60.99 42.97 61.11 42.91 61.23 42.91 61.35 42.91 61.46 42.85 61.7 42.85 61.93 42.85 62.4 42.85 62.52 42.85 62.64 42.91 62.76 42.91 62.87 42.91 62.99 42.91 63.11 42.91 64.52 42.97 64.75 42.97 64.87 42.97 65.11 43.03 65.58 43.03 65.81 43.03 66.05 43.03 66.52 43.03 66.75 43.03 66.87 43.03 67.1 43.03 67.22 43.03 67.34 43.03 67.46 43.03 67.57 43.03 67.69 43.03 67.93 43.03 68.04 43.03 68.28 43.1 68.51 43.03 68.63 43.03 68.75 43.03 68.98 43.1 69.1 43.03 69.69 43.1 70.16 43.1 70.28 43.1 71.22 43.1 71.33 43.1 71.45 43.1 71.8 43.16 71.92 43.16 72.04 43.1 72.27 43.1 72.51 43.1 72.74 43.16 73.8 43.1"/>
      </g>
      <g stroke-width="0.3" fill="#000000" fill-opacity="0.000" class="geometry color_oldfull_fail" stroke-dasharray="none" stroke="#FFA500" id="img-efeb1736-17">
        <path fill="none" d="M21.63,43.16 L 21.75 43.16 21.87 43.59 21.98 42.91 22.1 42.97 22.22 43.47 22.34 43.34 22.45 43.47 22.69 42.6 22.81 42.6 23.04 42.54 23.28 42.79 23.39 42.66 23.63 42.85 23.75 42.79 24.57 42.91 24.92 42.91 25.16 42.91 25.98 42.85 26.1 42.72 26.21 42.1 26.33 42.1 26.45 42.41 26.57 42.41 26.68 42.6 26.8 42.6 26.92 42.6 27.04 42.85 27.15 42.85 27.27 43.16 27.51 43.16 27.62 43.1 27.74 42.97 27.86 43.03 27.98 43.03 28.09 43.16 28.21 43.16 28.33 43.16 28.45 43.03 28.56 43.28 28.68 43.22 28.8 43.16 28.92 43.03 29.03 45.71 29.15 43.28 29.27 42.97 29.39 43.1 30.09 42.97 30.21 43.22 30.33 43.47 30.44 43.47 30.56 43.41 30.68 43.66 30.8 43.59 30.91 43.59 31.03 43.66 31.15 43.84 31.38 43.53 31.5 43.59 31.62 43.72 31.74 43.59 31.85 43.72 31.97 43.72 32.09 43.47 32.21 43.53 32.44 43.78 32.56 43.78 32.68 43.78 32.79 43.72 32.91 43.66 33.03 43.78 33.26 43.78 33.38 43.84 33.5 43.9 33.62 43.9 33.85 43.78 34.09 43.34 34.2 43.66 34.32 43.59 34.44 43.59 34.79 43.59 34.91 43.59 35.03 43.41 35.14 43.53 35.26 43.47 35.38 43.47 35.5 43.59 35.61 43.53 35.85 43.59 35.97 43.66 36.2 43.66 36.32 43.66 36.44 43.66 36.55 43.66 36.79 43.66 36.91 43.66 37.02 43.66 37.14 43.59 37.26 43.59 37.38 43.53 37.49 43.66 37.61 43.53 37.73 43.47 37.85 43.47 37.96 43.34 38.08 43.28 38.2 43.34 38.43 43.22 38.55 43.28 38.67 43.47 38.79 43.28 38.9 43.28 39.02 43.34 39.14 43.16 39.26 43.22 39.49 43.53 39.61 43.47 39.84 43.47 39.96 43.47 40.08 43.47 40.55 43.47 40.9 43.41 41.02 43.34 41.14 43.41 41.25 43.28 41.37 43.28 41.49 43.47 41.61 43.16 41.72 43.1 41.84 43.1 42.08 43.16 42.19 43.28 42.31 43.22 42.43 43.28 42.55 43.28 42.66 43.16 42.78 43.28 43.02 43.41 43.13 43.41 43.25 43.41 43.37 43.41 43.49 43.22 43.6 43.47 43.72 43.47 43.84 43.47 44.19 43.1 44.31 43.28 44.43 43.28 44.54 43.41 44.66 43.28 44.78 43.41 44.9 43.41 45.01 43.34 45.13 43.34 45.25 43.28 45.37 43.47 45.48 43.41 45.6 43.34 45.72 43.41 45.84 43.41 45.95 43.34 46.07 43.47 46.19 43.28 46.31 43.28 46.42 43.41 46.54 43.34 46.66 43.28 46.78 43.28 46.89 43.28 47.01 43.22 47.13 43.28 47.25 43.41 47.36 43.22 47.48 43.28 47.6 43.28 47.95 43.16 48.54 43.16 48.66 43.03 48.77 43.03 48.89 42.91 49.01 42.97 49.13 43.16 49.24 43.16 49.71 43.1 49.83 43.1 50.42 42.97 50.65 42.97 50.77 42.72 50.89 42.85 51.01 42.91 51.12 43.03 51.24 43.03 51.36 42.91 51.71 42.79 51.83 42.79 52.06 42.72 52.18 42.54 52.3 42.85 52.65 42.79 52.89 42.91 53.24 42.85 53.71 42.72 53.94 42.85 54.3 42.6 55.12 42.47 55.59 42.54 55.71 42.54 55.82 42.54 55.94 42.23 56.06 42.1 56.18 42.04 56.41 42.16 56.53 42.16 56.65 42.16 56.76 42.1 56.88 41.91 57 42.23 57.12 42.23 57.35 42.23 57.47 42.23 57.59 42.29 58.06 42.1 58.17 42.23 58.29 42.04 58.53 42.47 58.76 42.47 58.88 42.41 59.23 42.29 59.82 42.29 60.41 42.35 60.99 41.85 61.11 41.6 61.23 41.67 61.35 41.6 61.46 41.91 61.7 41.85 61.93 41.91 62.4 41.67 62.52 41.73 62.64 41.91 62.76 41.79 62.87 41.85 62.99 41.73 63.11 41.91 64.52 41.85 64.75 41.91 64.87 41.73 65.11 41.91 65.58 42.04 65.81 41.98 66.05 41.67 66.52 41.85 66.75 41.73 66.87 42.23 67.1 42.35 67.22 42.16 67.34 42.23 67.46 42.1 67.57 42.16 67.69 42.41 67.93 42.23 68.04 42.16 68.28 42.35 68.51 42.29 68.63 42.16 68.75 42.29 68.98 42.16 69.1 42.1 69.69 41.91 70.16 42.1 70.28 42.1 71.22 42.16 71.33 42.23 71.45 42.16 71.8 42.41 71.92 42.41 72.04 42.35 72.27 42.04 72.51 42.16 72.74 42.1 73.8 42.23"/>
      </g>
      <g stroke-width="0.3" fill="#000000" fill-opacity="0.000" class="geometry color_newtests_pass" stroke-dasharray="none" stroke="#008000" id="img-efeb1736-18">
        <path fill="none" d="M21.63,37.69 L 21.75 37.69 21.87 38.12 21.98 37.81 22.1 37.81 22.22 38.25 22.34 38.37 22.45 38.25 22.69 38.18 22.81 38.12 23.04 38.06 23.28 37.81 23.39 37.93 23.63 37.69 23.75 37.69 24.57 37.25 24.92 37.25 25.16 37.25 25.98 37.31 26.1 37.25 26.21 37.93 26.33 37.93 26.45 37.56 26.57 37.56 26.68 37.44 26.8 37.44 26.92 37.44 27.04 37.13 27.15 37.13 27.27 36.75 27.51 36.63 27.62 36.38 27.74 36.38 27.86 36.13 27.98 36.13 28.09 35.82 28.21 35.7 28.33 35.76 28.45 35.82 28.56 35.57 28.68 35.63 28.8 35.57 28.92 35.7 29.03 35.26 29.15 35.32 29.27 35.57 29.39 35.38 30.09 35.07 30.21 34.76 30.33 34.45 30.44 34.33 30.56 34.33 30.68 34.08 30.8 34.14 30.91 34.08 31.03 34.02 31.15 34.76 31.38 33.95 31.5 33.83 31.62 33.71 31.74 33.83 31.85 33.71 31.97 33.71 32.09 33.77 32.21 33.71 32.44 33.33 32.56 33.27 32.68 33.27 32.79 33.27 32.91 33.21 33.03 32.96 33.26 32.9 33.38 32.77 33.5 32.71 33.62 32.71 33.85 32.77 34.09 34.08 34.2 33.89 34.32 32.65 34.44 32.71 34.79 32.52 34.91 32.52 35.03 32.65 35.14 32.52 35.26 32.46 35.38 32.34 35.5 32.21 35.61 32.15 35.85 32.09 35.97 31.96 36.2 32.03 36.32 31.9 36.44 31.71 36.55 31.71 36.79 31.78 36.91 31.71 37.02 31.71 37.14 31.71 37.26 31.65 37.38 31.71 37.49 31.53 37.61 31.65 37.73 31.71 37.85 31.59 37.96 33.02 38.08 32.71 38.2 32.65 38.43 31.59 38.55 31.47 38.67 31.22 38.79 31.34 38.9 31.34 39.02 31.16 39.14 31.16 39.26 31.16 39.49 30.97 39.61 30.78 39.84 30.78 39.96 30.78 40.08 30.78 40.55 30.78 40.9 30.22 41.02 30.22 41.14 30.16 41.25 30.1 41.37 30.04 41.49 29.79 41.61 29.6 41.72 29.6 41.84 29.6 42.08 29.72 42.19 29.6 42.31 29.66 42.43 29.54 42.55 29.6 42.66 29.72 42.78 29.6 43.02 29.54 43.13 29.41 43.25 29.41 43.37 29.35 43.49 28.79 43.6 29.23 43.72 29.16 43.84 29.04 44.19 29.23 44.31 29.1 44.43 29.04 44.54 28.79 44.66 28.92 44.78 28.79 44.9 28.67 45.01 28.73 45.13 28.79 45.25 28.85 45.37 28.73 45.48 28.85 45.6 28.85 45.72 28.73 45.84 28.61 45.95 28.67 46.07 28.54 46.19 28.67 46.31 28.67 46.42 28.48 46.54 28.54 46.66 28.54 46.78 28.42 46.89 28.42 47.01 28.42 47.13 28.29 47.25 28.17 47.36 28.23 47.48 28.17 47.6 28.29 47.95 28.17 48.54 27.92 48.66 27.92 48.77 27.92 48.89 27.92 49.01 27.8 49.13 27.55 49.24 27.55 49.71 27.3 49.83 27.3 50.42 27.36 50.65 27.36 50.77 27.86 50.89 27.42 51.01 27.24 51.12 27.11 51.24 26.99 51.36 27.05 51.71 27.17 51.83 27.11 52.06 27.05 52.18 27.17 52.3 26.86 52.65 26.86 52.89 26.61 53.24 26.55 53.71 26.49 53.94 26.24 54.3 26.24 55.12 26.06 55.59 25.68 55.71 25.56 55.82 25.56 55.94 25.81 56.06 25.99 56.18 25.99 56.41 25.87 56.53 25.74 56.65 25.74 56.76 25.68 56.88 25.81 57 25.5 57.12 25.5 57.35 25.37 57.47 25.25 57.59 25.12 58.06 25 58.17 25 58.29 25.18 58.53 24.62 58.76 24.5 58.88 24.56 59.23 24.56 59.82 24.56 60.41 24.07 60.99 25.93 61.11 25.62 61.23 25.12 61.35 24.75 61.46 24.44 61.7 24.56 61.93 24.5 62.4 24.62 62.52 24.5 62.64 24.19 62.76 24.31 62.87 24.13 62.99 24.25 63.11 24.07 64.52 24.13 64.75 24.07 64.87 23.94 65.11 23.69 65.58 23.63 65.81 23.57 66.05 23.75 66.52 23.57 66.75 23.57 66.87 23.07 67.1 22.76 67.22 22.95 67.34 22.82 67.46 22.7 67.57 22.76 67.69 22.45 67.93 22.57 68.04 22.51 68.28 22.32 68.51 22.32 68.63 22.39 68.75 22.2 68.98 22.07 69.1 22.2 69.69 22.14 70.16 21.89 70.28 21.83 71.22 21.76 71.33 21.83 71.45 21.89 71.8 21.39 71.92 21.33 72.04 21.27 72.27 21.39 72.51 21.33 72.74 21.27 73.8 20.77"/>
      </g>
    </g>
  </g>
</g>
  <g class="guide ylabels" font-size="2.82" font-family="'PT Sans Caption','Helvetica Neue','Helvetica',sans-serif" fill="#6C606B" id="img-efeb1736-19">
    <text x="18.63" y="45.71" text-anchor="end" dy="0.35em">0</text>
    <text x="18.63" y="39.49" text-anchor="end" dy="0.35em">100</text>
    <text x="18.63" y="33.27" text-anchor="end" dy="0.35em">200</text>
    <text x="18.63" y="27.05" text-anchor="end" dy="0.35em">300</text>
    <text x="18.63" y="20.83" text-anchor="end" dy="0.35em">400</text>
    <text x="18.63" y="14.61" text-anchor="end" dy="0.35em">500</text>
  </g>
  <g font-size="3.88" font-family="'PT Sans','Helvetica Neue','Helvetica',sans-serif" fill="#564A55" stroke="#000000" stroke-opacity="0.000" id="img-efeb1736-20">
    <text x="8.81" y="28.16" text-anchor="middle" dy="0.35em" transform="rotate(-90, 8.81, 30.16)">Number of Packages</text>
  </g>
  <g font-size="3.88" font-family="'PT Sans','Helvetica Neue','Helvetica',sans-serif" fill="#564A55" stroke="#000000" stroke-opacity="0.000" id="img-efeb1736-21">
    <text x="58.12" y="10.61" text-anchor="middle">Julia v0.3</text>
  </g>
</g>
<defs>
  <clipPath id="img-efeb1736-4">
  <path d="M19.63,12.61 L 96.6 12.61 96.6 47.71 19.63 47.71" />
</clipPath>
</defs>
</svg>
