<?xml version="1.0" encoding="UTF-8"?>
<svg xmlns="http://www.w3.org/2000/svg"
     xmlns:xlink="http://www.w3.org/1999/xlink"
     xmlns:gadfly="http://www.gadflyjl.org/ns"
     version="1.2"
     width="101.6mm" height="76.2mm" viewBox="0 0 101.6 76.2"
     stroke="none"
     fill="#000000"
     stroke-width="0.3"
     font-size="3.88"
>
<g class="plotroot xscalable yscalable" id="fig-f12a4648ce2e460b8cc0692c0408b73c-element-1">
  <g font-size="3.88" font-family="'PT Sans','Helvetica Neue','Helvetica',sans-serif" fill="#564A55" stroke="#000000" stroke-opacity="0.000" id="fig-f12a4648ce2e460b8cc0692c0408b73c-element-2">
    <text x="58.12" y="64.59" text-anchor="middle" dy="0.6em">Date</text>
  </g>
  <g class="guide xlabels" font-size="2.82" font-family="'PT Sans Caption','Helvetica Neue','Helvetica',sans-serif" fill="#6C606B" id="fig-f12a4648ce2e460b8cc0692c0408b73c-element-3">
    <text x="21.89" y="48.71" text-anchor="end" dy="0.35em" transform="rotate(-90, 21.89, 48.71)">Apr</text>
    <text x="25.76" y="48.71" text-anchor="end" dy="0.35em" transform="rotate(-90, 25.76, 48.71)">May</text>
    <text x="29.75" y="48.71" text-anchor="end" dy="0.35em" transform="rotate(-90, 29.75, 48.71)">Jun</text>
    <text x="33.62" y="48.71" text-anchor="end" dy="0.35em" transform="rotate(-90, 33.62, 48.71)">Jul</text>
    <text x="37.62" y="48.71" text-anchor="end" dy="0.35em" transform="rotate(-90, 37.62, 48.71)">Aug</text>
    <text x="41.61" y="48.71" text-anchor="end" dy="0.35em" transform="rotate(-90, 41.61, 48.71)">Sep</text>
    <text x="45.48" y="48.71" text-anchor="end" dy="0.35em" transform="rotate(-90, 45.48, 48.71)">Oct</text>
    <text x="49.48" y="48.71" text-anchor="end" dy="0.35em" transform="rotate(-90, 49.48, 48.71)">Nov</text>
    <text x="53.35" y="48.71" text-anchor="end" dy="0.35em" transform="rotate(-90, 53.35, 48.71)">Dec</text>
    <text x="57.34" y="48.71" text-anchor="end" dy="0.35em" transform="rotate(-90, 57.34, 48.71)">Jan 2015</text>
    <text x="61.34" y="48.71" text-anchor="end" dy="0.35em" transform="rotate(-90, 61.34, 48.71)">Feb</text>
    <text x="64.95" y="48.71" text-anchor="end" dy="0.35em" transform="rotate(-90, 64.95, 48.71)">Mar</text>
    <text x="68.95" y="48.71" text-anchor="end" dy="0.35em" transform="rotate(-90, 68.95, 48.71)">Apr</text>
    <text x="72.81" y="48.71" text-anchor="end" dy="0.35em" transform="rotate(-90, 72.81, 48.71)">May</text>
    <text x="76.81" y="48.71" text-anchor="end" dy="0.35em" transform="rotate(-90, 76.81, 48.71)">Jun</text>
    <text x="80.68" y="48.71" text-anchor="end" dy="0.35em" transform="rotate(-90, 80.68, 48.71)">Jul</text>
    <text x="84.67" y="48.71" text-anchor="end" dy="0.35em" transform="rotate(-90, 84.67, 48.71)">Aug</text>
    <text x="88.67" y="48.71" text-anchor="end" dy="0.35em" transform="rotate(-90, 88.67, 48.71)">Sep</text>
    <text x="92.54" y="48.71" text-anchor="end" dy="0.35em" transform="rotate(-90, 92.54, 48.71)">Oct</text>
  </g>
  <g clip-path="url(#fig-f12a4648ce2e460b8cc0692c0408b73c-element-5)" id="fig-f12a4648ce2e460b8cc0692c0408b73c-element-4">
    <g pointer-events="visible" opacity="1" fill="#000000" fill-opacity="0.000" stroke="#000000" stroke-opacity="0.000" class="guide background" id="fig-f12a4648ce2e460b8cc0692c0408b73c-element-6">
      <rect x="19.63" y="12.61" width="76.97" height="35.1"/>
    </g>
    <g class="guide ygridlines xfixed" stroke-dasharray="0.5,0.5" stroke-width="0.2" stroke="#D0D0E0" id="fig-f12a4648ce2e460b8cc0692c0408b73c-element-7">
      <path fill="none" d="M19.63,45.71 L 96.6 45.71"/>
      <path fill="none" d="M19.63,30.16 L 96.6 30.16"/>
      <path fill="none" d="M19.63,14.61 L 96.6 14.61"/>
    </g>
    <g class="guide xgridlines yfixed" stroke-dasharray="0.5,0.5" stroke-width="0.2" stroke="#D0D0E0" id="fig-f12a4648ce2e460b8cc0692c0408b73c-element-8">
      <path fill="none" d="M21.89,12.61 L 21.89 47.71"/>
      <path fill="none" d="M25.76,12.61 L 25.76 47.71"/>
      <path fill="none" d="M29.75,12.61 L 29.75 47.71"/>
      <path fill="none" d="M33.62,12.61 L 33.62 47.71"/>
      <path fill="none" d="M37.62,12.61 L 37.62 47.71"/>
      <path fill="none" d="M41.61,12.61 L 41.61 47.71"/>
      <path fill="none" d="M45.48,12.61 L 45.48 47.71"/>
      <path fill="none" d="M49.48,12.61 L 49.48 47.71"/>
      <path fill="none" d="M53.35,12.61 L 53.35 47.71"/>
      <path fill="none" d="M57.34,12.61 L 57.34 47.71"/>
      <path fill="none" d="M61.34,12.61 L 61.34 47.71"/>
      <path fill="none" d="M64.95,12.61 L 64.95 47.71"/>
      <path fill="none" d="M68.95,12.61 L 68.95 47.71"/>
      <path fill="none" d="M72.81,12.61 L 72.81 47.71"/>
      <path fill="none" d="M76.81,12.61 L 76.81 47.71"/>
      <path fill="none" d="M80.68,12.61 L 80.68 47.71"/>
      <path fill="none" d="M84.67,12.61 L 84.67 47.71"/>
      <path fill="none" d="M88.67,12.61 L 88.67 47.71"/>
      <path fill="none" d="M92.54,12.61 L 92.54 47.71"/>
    </g>
    <g class="plotpanel" id="fig-f12a4648ce2e460b8cc0692c0408b73c-element-9">
      <g stroke-width="0.3" fill="#000000" fill-opacity="0.000" class="geometry color_newnot_possible" stroke-dasharray="none" stroke="#808080" id="fig-f12a4648ce2e460b8cc0692c0408b73c-element-10">
        <path fill="none" d="M79.26,42.94 L 79.39 42.94 79.52 42.95 79.65 42.95 79.77 42.96 79.9 42.96 80.03 42.96 80.16 42.96 80.55 42.96 80.81 42.97 81.06 43.02 81.19 42.98 81.32 42.99 81.45 43 81.58 43.01 81.71 43.01 83.9 43.02 84.93 43.04 86.09 43.06 88.28 43.12 88.67 43.12 89.31 42.99 89.96 42.85 92.02 42.89 92.54 42.92 93.18 42.93 93.7 42.94 94.21 42.94 94.6 42.91"/>
      </g>
      <g stroke-width="0.3" fill="#000000" fill-opacity="0.000" class="geometry color_newno_tests" stroke-dasharray="none" stroke="#0000FF" id="fig-f12a4648ce2e460b8cc0692c0408b73c-element-11">
        <path fill="none" d="M79.26,40.12 L 79.39 40.12 79.52 40.13 79.65 40.13 79.77 40.15 79.9 40.15 80.03 40.15 80.16 40.16 80.55 40.16 80.81 40.18 81.06 40.17 81.19 40.19 81.32 40.28 81.45 40.3 81.58 40.3 81.71 40.36 83.9 40.43 84.93 40.47 86.09 40.51 88.28 40.62 88.67 40.69 89.31 40.69 89.96 40.76 92.02 40.97 92.54 41.15 93.18 41.27 93.7 41.27 94.21 41.29 94.6 41.34"/>
      </g>
      <g stroke-width="0.3" fill="#000000" fill-opacity="0.000" class="geometry color_newtests_fail" stroke-dasharray="none" stroke="#FF0000" id="fig-f12a4648ce2e460b8cc0692c0408b73c-element-12">
        <path fill="none" d="M79.26,42.78 L 79.39 42.62 79.52 42.58 79.65 42.53 79.77 42.44 79.9 42.59 80.03 42.39 80.16 42.55 80.55 42.44 80.81 42.4 81.06 42.35 81.19 42.51 81.32 40.89 81.45 42.44 81.58 42.14 81.71 42.19 83.9 42.47 84.93 42.54 86.09 42.18 88.28 41.44 88.67 41.69 89.31 41.98 89.96 42.23 92.02 42.24 92.54 42.03 93.18 42.24 93.7 42.29 94.21 42.16 94.6 42.17"/>
      </g>
      <g stroke-width="0.3" fill="#000000" fill-opacity="0.000" class="geometry color_newtests_pass" stroke-dasharray="none" stroke="#008000" id="fig-f12a4648ce2e460b8cc0692c0408b73c-element-13">
        <path fill="none" d="M79.26,25.9 L 79.39 26.06 79.52 26.07 79.65 26.12 79.77 26.19 79.9 26.03 80.03 26.24 80.16 26.07 80.55 26.17 80.81 26.18 81.06 26.2 81.19 26.06 81.32 27.57 81.45 26 81.58 26.29 81.71 26.18 83.9 25.82 84.93 25.69 86.09 25.99 88.28 26.56 88.67 26.24 89.31 26.08 89.96 25.9 92.02 25.63 92.54 25.64 93.18 25.3 93.7 25.24 94.21 25.35 94.6 25.31"/>
      </g>
      <g stroke-width="0.3" fill="#000000" fill-opacity="0.000" class="geometry color_newnot_possible" stroke-dasharray="none" stroke="#808080" id="fig-f12a4648ce2e460b8cc0692c0408b73c-element-14">
        <path fill="none" d="M21.63,42.35 L 21.76 42.35 21.89 42.36 22.02 42.36 22.15 42.36 22.28 42.36 22.41 42.36 22.53 42.37 22.79 42.37 22.92 42.38 23.18 42.39 23.44 42.41 23.57 42.41 23.82 42.41 23.95 42.42 24.85 42.47 25.24 42.47 25.5 42.47 26.4 42.58 26.53 42.6 26.66 42.61 26.79 42.61 26.92 42.61 27.05 42.51 27.18 42.51 27.3 42.51 27.43 42.51 27.56 42.31 27.69 42.31 27.82 42.34 28.08 42.25 28.21 42.94 28.34 42.94 28.46 42.96 28.59 42.96 28.72 42.96 28.85 42.97 28.98 42.97 29.11 42.97 29.24 42.97 29.37 42.97 29.5 42.98 29.62 42.98 29.75 42.59 29.88 42.99 30.01 43 30.14 43 30.91 42.58 31.04 42.49 31.17 42.5 31.3 42.51 31.43 42.53 31.56 42.44 31.69 42.27 31.82 42.27 31.95 42.28 32.07 42.29 32.33 42.29 32.46 42.31 32.59 42.31 32.72 42.31 32.85 42.31 32.98 42.31 33.11 42.34 33.23 42.34 33.49 42.35 33.62 42.37 33.75 42.38 33.88 42.39 34.01 42.39 34.14 42.41 34.39 42.42 34.52 42.45 34.65 42.45 34.78 42.45 35.04 42.49 35.3 42.52 35.43 42.52 35.55 42.53 35.68 42.53 36.07 42.54 36.2 42.54 36.33 42.55 36.46 42.55 36.59 42.55 36.72 42.56 36.84 42.48 36.97 42.49 37.23 42.49 37.36 42.49 37.62 42.49 37.75 42.5 37.88 42.52 38 42.52 38.26 42.53 38.39 42.53 38.52 42.55 38.65 42.56 38.78 42.57 38.91 42.57 39.04 42.58 39.16 42.6 39.29 42.52 39.42 42.44 39.55 42.45 39.68 42.45 39.81 42.45 40.07 42.48 40.2 42.48 40.32 42.49 40.45 42.49 40.58 42.49 40.71 42.51 40.84 42.52 40.97 42.53 41.23 42.43 41.36 42.37 41.61 42.39 41.74 42.39 41.87 42.31 42.39 42.31 42.77 42.36 42.9 42.37 43.03 42.38 43.16 42.39 43.29 42.39 43.42 42.39 43.55 42.46 43.68 42.46 43.81 42.46 44.06 42.38 44.19 42.39 44.32 42.4 44.45 42.4 44.58 42.4 44.71 42.41 44.84 42.33 45.09 42.32 45.22 42.33 45.35 42.33 45.48 42.35 45.61 42.29 45.74 42.29 45.87 42.29 46 42.3 46.38 42.32 46.51 42.24 46.64 42.26 46.77 42.27 46.9 42.27 47.03 42.27 47.16 42.29 47.29 42.29 47.42 42.29 47.54 42.3 47.67 42.23 47.8 42.23 47.93 42.23 48.06 42.24 48.19 42.25 48.32 42.25 48.45 42.25 48.58 42.26 48.7 42.26 48.83 42.27 48.96 42.27 49.09 42.29 49.22 42.29 49.35 42.29 49.48 42.3 49.61 42.3 49.74 42.3 49.86 42.31 49.99 42.31 50.12 42.32 50.51 42.32 51.15 42.36 51.28 42.37 51.41 42.37 51.54 42.38 51.67 42.38 51.8 42.4 51.93 42.4 52.44 42.44 52.57 42.44 53.22 42.45 53.47 42.45 53.6 42.52 53.73 42.53 53.86 42.53 53.99 42.53 54.12 42.54 54.25 42.55 54.64 42.56 54.76 42.57 55.02 42.59 55.15 42.6 55.28 42.6 55.67 42.6 55.92 42.61 56.31 42.63 56.83 42.64 57.08 42.66 57.47 42.68 58.37 42.72 58.89 42.77 59.02 42.65 59.15 42.65 59.28 42.62 59.41 42.62 59.53 42.62 59.79 42.62 59.92 42.63 60.05 42.63 60.18 42.65 60.31 42.65 60.44 42.65 60.57 42.65 60.82 42.61 60.95 42.62 61.08 42.63 61.6 42.68 61.73 42.67 61.85 42.67 62.11 42.68 62.37 42.7 62.5 42.7 62.89 42.71 63.53 42.71 64.18 42.75 64.82 42.77 64.95 42.77 65.08 42.77 65.21 42.37 65.34 42.43 65.59 42.37 65.85 42.37 66.37 42.38 66.5 42.4 66.62 42.4 66.75 42.4 66.88 42.41 67.01 42.47 67.14 42.42 68.69 42.37 68.95 42.31 69.07 42.33 69.33 42.33 69.85 42.34 70.11 42.34 70.36 42.35 70.88 42.35 71.14 42.37 71.27 42.37 71.52 42.4 71.65 42.4 71.78 42.41 71.91 42.43 72.04 42.43 72.17 42.43 72.43 42.44 72.55 42.44 72.81 42.44 73.07 42.46 73.2 42.47 73.33 42.48 73.59 42.49 73.72 42.5 74.36 42.52 74.88 42.58 75 42.54 76.04 42.56 76.16 42.45 76.29 42.45 76.68 42.47 76.81 42.48 76.94 42.54 77.2 42.55 77.45 42.55 77.71 42.55 78.87 42.58"/>
      </g>
      <g stroke-width="0.3" fill="#000000" fill-opacity="0.000" class="geometry color_newtests_fail" stroke-dasharray="none" stroke="#FF0000" id="fig-f12a4648ce2e460b8cc0692c0408b73c-element-15">
        <path fill="none" d="M21.63,41.51 L 21.76 41.51 21.89 39.95 22.02 41.62 22.15 41.52 22.28 39.84 22.41 39.84 22.53 39.86 22.79 41.53 22.92 41.55 23.18 41.67 23.44 41.69 23.57 41.69 23.82 41.8 23.95 41.81 24.85 41.96 25.24 41.96 25.5 41.96 26.4 41.87 26.53 42 26.66 41.81 26.79 41.81 26.92 41.91 27.05 42.01 27.18 41.91 27.3 41.91 27.43 41.91 27.56 42.01 27.69 42.01 27.82 41.85 28.08 41.96 28.21 41.76 28.34 41.96 28.46 42.18 28.59 42.18 28.72 42.27 28.85 42.29 28.98 42.19 29.11 42.29 29.24 42.29 29.37 42.29 29.5 42.39 29.62 42.39 29.75 42.81 29.88 42.79 30.01 42.8 30.14 42.81 30.91 43.43 31.04 43.53 31.17 43.54 31.3 43.55 31.43 43.47 31.56 43.56 31.69 43.57 31.82 43.57 31.95 43.49 32.07 41.74 32.33 43.49 32.46 43.6 32.59 43.6 32.72 43.6 32.85 43.6 32.98 43.6 33.11 43.62 33.23 43.62 33.49 43.62 33.62 43.64 33.75 43.55 33.88 43.56 34.01 43.56 34.14 43.57 34.39 43.58 34.52 43.42 34.65 43.42 34.78 43.42 35.04 43.28 35.3 41.57 35.43 41.49 35.55 43.3 35.68 43.22 36.07 43.4 36.2 43.4 36.33 43.4 36.46 43.4 36.59 43.49 36.72 43.58 36.84 43.58 36.97 43.59 37.23 43.59 37.36 43.67 37.62 43.59 37.75 43.68 37.88 43.7 38 43.7 38.26 43.7 38.39 43.7 38.52 43.55 38.65 43.64 38.78 43.64 38.91 43.56 39.04 43.57 39.16 43.42 39.29 43.5 39.42 43.67 39.55 41.39 39.68 41.88 39.81 41.88 40.07 43.77 40.2 43.85 40.32 43.77 40.45 43.86 40.58 43.77 40.71 43.79 40.84 43.95 40.97 43.72 41.23 43.99 41.36 44.08 41.61 43.93 41.74 43.93 41.87 44.01 42.39 44.01 42.77 44.43 42.9 44.44 43.03 44.44 43.16 44.52 43.29 44.6 43.42 44.6 43.55 44.63 43.68 44.63 43.81 44.63 44.06 44.47 44.19 44.47 44.32 44.4 44.45 44.48 44.58 44.4 44.71 44.25 44.84 44.33 45.09 44.4 45.22 44.48 45.35 44.48 45.48 44.41 45.61 44.4 45.74 44.42 45.87 44.49 46 44.5 46.38 44.5 46.51 44.5 46.64 44.51 46.77 44.59 46.9 44.59 47.03 44.59 47.16 44.59 47.29 44.59 47.42 44.45 47.54 44.38 47.67 44.38 47.8 44.23 47.93 44.38 48.06 44.38 48.19 44.39 48.32 44.39 48.45 44.39 48.58 44.31 48.7 44.39 48.83 44.32 48.96 44.39 49.09 44.32 49.22 44.4 49.35 44.4 49.48 44.4 49.61 44.48 49.74 44.48 49.86 44.55 49.99 44.55 50.12 44.34 50.51 44.63 51.15 44.57 51.28 44.57 51.41 44.57 51.54 44.65 51.67 44.72 51.8 44.58 51.93 44.58 52.44 44.53 52.57 44.6 53.22 44.6 53.47 44.6 53.6 44.18 53.73 44.4 53.86 44.6 53.99 44.6 54.12 44.61 54.25 44.54 54.64 44.48 54.76 44.48 55.02 44.42 55.15 44.49 55.28 44.49 55.67 44.49 55.92 44.56 56.31 44.57 56.83 44.57 57.08 44.58 57.47 44.59 58.37 44.54 58.89 44.43 59.02 44.56 59.15 44.56 59.28 44.32 59.41 44.32 59.53 44.38 59.79 44.38 59.92 44.33 60.05 44.33 60.18 44.27 60.31 44.34 60.44 44.34 60.57 44.34 60.82 44.35 60.95 44.35 61.08 44.35 61.6 44.19 61.73 44.19 61.85 44.19 62.11 44.14 62.37 44.08 62.5 44.08 62.89 44.09 63.53 44.09 64.18 44.17 64.82 42.48 64.95 43.06 65.08 43.47 65.21 44.19 65.34 44.19 65.59 44.19 65.85 44.19 66.37 44.19 66.5 44.14 66.62 44.14 66.75 44.14 66.88 44.15 67.01 44.14 67.14 44.09 68.69 44.04 68.95 44.1 69.07 44.22 69.33 44.22 69.85 44.11 70.11 44.22 70.36 44.17 70.88 44.17 71.14 44.18 71.27 44.13 71.52 44.03 71.65 44.03 71.78 44.03 71.91 44.1 72.04 43.98 72.17 43.99 72.43 43.99 72.55 44.05 72.81 43.99 73.07 44 73.2 43.9 73.33 43.9 73.59 43.96 73.72 43.91 74.36 43.87 74.88 43.77 75 43.77 76.04 43.57 76.16 43.57 76.29 43.57 76.68 43.59 76.81 43.59 76.94 43.65 77.2 43.71 77.45 43.65 77.71 43.66 78.87 43.78"/>
      </g>
      <g stroke-width="0.3" fill="#000000" fill-opacity="0.000" class="geometry color_newno_tests" stroke-dasharray="none" stroke="#0000FF" id="fig-f12a4648ce2e460b8cc0692c0408b73c-element-16">
        <path fill="none" d="M21.63,40.04 L 21.76 40.04 21.89 40.05 22.02 40.05 22.15 40.05 22.28 40.16 22.41 40.16 22.53 40.07 22.79 39.97 22.92 39.99 23.18 40.01 23.44 39.84 23.57 39.84 23.82 39.84 23.95 39.86 24.85 39.93 25.24 39.93 25.5 39.93 26.4 39.85 26.53 39.89 26.66 39.91 26.79 39.91 26.92 39.91 27.05 39.91 27.18 39.91 27.3 39.91 27.43 39.91 27.56 40.11 27.69 40.11 27.82 40.16 28.08 40.28 28.21 40.28 28.34 40.28 28.46 40.21 28.59 40.21 28.72 40.41 28.85 40.53 28.98 40.53 29.11 40.53 29.24 40.53 29.37 40.53 29.5 40.54 29.62 40.54 29.75 39.36 29.88 40.27 30.01 40.28 30.14 40.3 30.91 40.4 31.04 40.42 31.17 40.43 31.3 40.54 31.43 40.57 31.56 40.57 31.69 40.6 31.82 40.7 31.95 40.71 32.07 41 32.33 40.91 32.46 40.75 32.59 40.75 32.72 40.75 32.85 40.75 32.98 40.75 33.11 40.8 33.23 40.8 33.49 40.9 33.62 40.84 33.75 40.86 33.88 40.87 34.01 41.05 34.14 41.08 34.39 41.09 34.52 41.13 34.65 41.13 34.78 41.13 35.04 41.02 35.3 41.32 35.43 41.23 35.55 41.16 35.68 41.16 36.07 41.17 36.2 41.17 36.33 41.18 36.46 41.18 36.59 41.27 36.72 41.28 36.84 41.29 36.97 41.39 37.23 41.39 37.36 41.39 37.62 41.39 37.75 41.4 37.88 41.43 38 41.43 38.26 41.28 38.39 41.36 38.52 41.38 38.65 41.31 38.78 41.33 38.91 41.34 39.04 41.35 39.16 41.37 39.29 41.37 39.42 41.38 39.55 41.88 39.68 41.88 39.81 41.88 40.07 41.35 40.2 41.35 40.32 41.44 40.45 41.44 40.58 41.52 40.71 41.47 40.84 41.48 40.97 41.57 41.23 41.93 41.36 42.05 41.61 42.06 41.74 42.06 41.87 42.06 42.39 42.06 42.77 42.04 42.9 42.05 43.03 41.98 43.16 42 43.29 42 43.42 42.08 43.55 42.15 43.68 42.23 43.81 42.23 44.06 42.23 44.19 42.16 44.32 42.17 44.45 42.17 44.58 42.17 44.71 42.25 44.84 42.25 45.09 42.17 45.22 42.18 45.35 42.18 45.48 42.19 45.61 42.07 45.74 42.21 45.87 42.21 46 42.23 46.38 42.32 46.51 42.32 46.64 42.26 46.77 42.27 46.9 42.27 47.03 42.27 47.16 42.29 47.29 42.29 47.42 42.29 47.54 42.3 47.67 42.3 47.8 42.38 47.93 42.3 48.06 42.31 48.19 42.33 48.32 42.33 48.45 42.33 48.58 42.41 48.7 42.33 48.83 42.42 48.96 42.34 49.09 42.36 49.22 42.37 49.35 42.37 49.48 42.37 49.61 42.37 49.74 42.37 49.86 42.38 49.99 42.38 50.12 42.39 50.51 42.39 51.15 42.43 51.28 42.44 51.41 42.44 51.54 42.45 51.67 42.45 51.8 42.47 51.93 42.47 52.44 42.58 52.57 42.51 53.22 42.52 53.47 42.52 53.6 42.52 53.73 42.6 53.86 42.53 53.99 42.53 54.12 42.54 54.25 42.62 54.64 42.56 54.76 42.57 55.02 42.59 55.15 42.53 55.28 42.53 55.67 42.6 55.92 42.54 56.31 42.56 56.83 42.64 57.08 42.59 57.47 42.62 58.37 42.66 58.89 42.7 59.02 42.71 59.15 42.71 59.28 42.81 59.41 42.74 59.53 42.74 59.79 42.74 59.92 42.82 60.05 42.82 60.18 42.84 60.31 42.78 60.44 42.78 60.57 42.78 60.82 42.8 60.95 42.81 61.08 42.81 61.6 42.86 61.73 42.85 61.85 42.85 62.11 42.86 62.37 42.88 62.5 42.88 62.89 42.89 63.53 42.89 64.18 42.92 64.82 43.12 64.95 43.06 65.08 43.06 65.21 43.07 65.34 43.01 65.59 43.01 65.85 43.01 66.37 43.02 66.5 43.03 66.62 43.1 66.75 43.1 66.88 43.11 67.01 43.1 67.14 43.11 68.69 43.17 68.95 43.17 69.07 43.19 69.33 43.25 69.85 43.25 70.11 43.25 70.36 43.26 70.88 43.26 71.14 43.27 71.27 43.28 71.52 43.3 71.65 43.3 71.78 43.3 71.91 43.32 72.04 43.32 72.17 43.32 72.43 43.32 72.55 43.33 72.81 43.38 73.07 43.34 73.2 43.35 73.33 43.35 73.59 43.42 73.72 43.37 74.36 43.44 74.88 43.44 75 43.45 76.04 43.47 76.16 43.47 76.29 43.47 76.68 43.53 76.81 43.54 76.94 43.49 77.2 43.49 77.45 43.49 77.71 43.55 78.87 43.52"/>
      </g>
      <g stroke-width="0.3" fill="#000000" fill-opacity="0.000" class="geometry color_oldfull_fail" stroke-dasharray="none" stroke="#FFA500" id="fig-f12a4648ce2e460b8cc0692c0408b73c-element-17">
        <path fill="none" d="M21.63,41.4 L 21.76 41.4 21.89 42.15 22.02 41 22.15 41.1 22.28 41.94 22.41 41.73 22.53 41.95 22.79 40.49 22.92 40.51 23.18 40.42 23.44 40.87 23.57 40.66 23.82 40.97 23.95 40.88 24.85 41.15 25.24 41.15 25.5 41.15 26.4 41.06 26.53 40.89 26.66 39.91 26.79 39.91 26.92 40.41 27.05 40.41 27.18 40.71 27.3 40.71 27.43 40.71 27.56 41.11 27.69 41.11 27.82 41.65 28.08 41.66 28.21 41.56 28.34 41.36 28.46 41.49 28.59 41.49 28.72 41.69 28.85 41.7 28.98 41.7 29.11 41.5 29.24 41.89 29.37 41.8 29.5 41.71 29.62 41.52 29.75 45.71 29.88 41.92 30.01 41.45 30.14 41.65 30.91 41.54 31.04 41.93 31.17 42.32 31.3 42.33 31.43 42.25 31.56 42.63 31.69 42.55 31.82 42.55 31.95 42.65 32.07 42.94 32.33 42.48 32.46 42.59 32.59 42.77 32.72 42.59 32.85 42.77 32.98 42.77 33.11 42.44 33.23 42.53 33.49 42.9 33.62 42.91 33.75 42.92 33.88 42.84 34.01 42.75 34.14 42.95 34.39 42.95 34.52 43.07 34.65 43.15 34.78 43.15 35.04 43.02 35.3 42.44 35.43 42.87 35.55 42.79 35.68 42.79 36.07 42.8 36.2 42.8 36.33 42.55 36.46 42.72 36.59 42.63 36.72 42.64 36.84 42.82 36.97 42.74 37.23 42.83 37.36 42.91 37.62 42.91 37.75 42.92 37.88 42.94 38 42.94 38.26 42.95 38.39 42.95 38.52 42.96 38.65 42.89 38.78 42.9 38.91 42.82 39.04 42.99 39.16 42.84 39.29 42.76 39.42 42.77 39.55 42.61 39.68 42.53 39.81 42.61 40.07 42.48 40.2 42.56 40.32 42.81 40.45 42.57 40.58 42.57 40.71 42.67 40.84 42.44 40.97 42.53 41.23 42.84 41.36 42.78 41.61 42.79 41.74 42.79 41.87 42.79 42.39 42.79 42.77 42.76 42.9 42.69 43.03 42.77 43.16 42.63 43.29 42.63 43.42 42.87 43.55 42.54 43.68 42.46 43.81 42.46 44.06 42.54 44.19 42.7 44.32 42.63 44.45 42.71 44.58 42.71 44.71 42.56 44.84 42.71 45.09 42.86 45.22 42.87 45.35 42.87 45.48 42.88 45.61 42.8 45.74 42.97 45.87 42.97 46 42.98 46.38 42.55 46.51 42.77 46.64 42.79 46.77 42.94 46.9 42.79 47.03 42.94 47.16 42.96 47.29 42.88 47.42 42.89 47.54 42.82 47.67 43.04 47.8 42.97 47.93 42.89 48.06 42.98 48.19 42.99 48.32 42.91 48.45 43.06 48.58 42.85 48.7 42.85 48.83 43 48.96 42.93 49.09 42.87 49.22 42.87 49.35 42.87 49.48 42.81 49.61 42.88 49.74 43.03 49.86 42.82 49.99 42.89 50.12 42.89 50.51 42.75 51.15 42.78 51.28 42.66 51.41 42.66 51.54 42.52 51.67 42.59 51.8 42.82 51.93 42.82 52.44 42.79 52.57 42.79 53.22 42.65 53.47 42.65 53.6 42.38 53.73 42.53 53.86 42.6 53.99 42.74 54.12 42.75 54.25 42.62 54.64 42.5 54.76 42.5 55.02 42.46 55.15 42.26 55.28 42.6 55.67 42.53 55.92 42.68 56.31 42.63 56.83 42.51 57.08 42.66 57.47 42.42 58.37 42.33 58.89 42.45 59.02 42.46 59.15 42.46 59.28 42.18 59.41 42.05 59.53 41.99 59.79 42.11 59.92 42.13 60.05 42.13 60.18 42.09 60.31 41.91 60.44 42.22 60.57 42.22 60.82 42.24 60.95 42.25 61.08 42.32 61.6 42.19 61.73 42.3 61.85 42.12 62.11 42.56 62.37 42.58 62.5 42.52 62.89 42.41 63.53 42.41 64.18 42.51 64.82 42.06 64.95 41.83 65.08 41.89 65.21 41.84 65.34 42.14 65.59 42.08 65.85 42.14 66.37 41.92 66.5 41.99 66.62 42.17 66.75 42.05 66.88 42.12 67.01 42 67.14 42.19 68.69 42.14 68.95 42.2 69.07 42.04 69.33 42.21 69.85 42.34 70.11 42.28 70.36 42.01 70.88 42.18 71.14 42.08 71.27 42.54 71.52 42.68 71.65 42.51 71.78 42.58 71.91 42.48 72.04 42.54 72.17 42.77 72.43 42.6 72.55 42.55 72.81 42.72 73.07 42.68 73.2 42.58 73.33 42.7 73.59 42.6 73.72 42.55 74.36 42.41 74.88 42.58 75 42.59 76.04 42.67 76.16 42.72 76.29 42.67 76.68 42.9 76.81 42.9 76.94 42.85 77.2 42.6 77.45 42.7 77.71 42.66 78.87 42.79"/>
      </g>
      <g stroke-width="0.3" fill="#000000" fill-opacity="0.000" class="geometry color_newtests_pass" stroke-dasharray="none" stroke="#008000" id="fig-f12a4648ce2e460b8cc0692c0408b73c-element-18">
        <path fill="none" d="M21.63,32.16 L 21.76 32.16 21.89 32.93 22.02 32.41 22.15 32.41 22.28 33.14 22.41 33.35 22.53 33.19 22.79 33.08 22.92 33.02 23.18 32.96 23.44 32.63 23.57 32.84 23.82 32.43 23.95 32.47 24.85 31.93 25.24 31.93 25.5 31.93 26.4 32.08 26.53 32.07 26.66 33.21 26.79 33.21 26.92 32.61 27.05 32.61 27.18 32.41 27.3 32.41 27.43 32.41 27.56 31.91 27.69 31.91 27.82 31.45 28.08 31.3 28.21 30.9 28.34 30.9 28.46 30.6 28.59 30.6 28.72 30.11 28.85 29.96 28.98 30.06 29.11 30.16 29.24 29.77 29.37 29.87 29.5 29.82 29.62 30.01 29.75 26.98 29.88 29.48 30.01 29.92 30.14 29.68 30.91 29.5 31.04 29.07 31.17 28.65 31.3 28.52 31.43 28.62 31.56 28.25 31.69 28.44 31.82 28.35 31.95 28.31 32.07 29.47 32.33 28.27 32.46 28.19 32.59 28 32.72 28.19 32.85 28 32.98 28 33.11 28.25 33.23 28.16 33.49 27.67 33.62 27.68 33.75 27.73 33.88 27.79 34.01 27.7 34.14 27.44 34.39 27.41 34.52 27.39 34.65 27.3 34.78 27.3 35.04 27.64 35.3 29.6 35.43 29.34 35.55 27.67 35.68 27.75 36.07 27.55 36.2 27.55 36.33 27.77 36.46 27.6 36.59 27.51 36.72 27.39 36.84 27.27 36.97 27.24 37.23 27.15 37.36 26.98 37.62 27.07 37.75 26.95 37.88 26.85 38 26.85 38.26 26.98 38.39 26.9 38.52 27 38.65 27.05 38.78 27.02 38.91 27.15 39.04 26.95 39.16 27.21 39.29 27.3 39.42 27.18 39.55 29.1 39.68 28.69 39.81 28.61 40.07 27.37 40.2 27.21 40.32 26.94 40.45 27.1 40.58 27.1 40.71 27 40.84 27.05 40.97 27.1 41.23 26.26 41.36 26.17 41.61 26.27 41.74 26.27 41.87 26.27 42.39 26.27 42.77 25.85 42.9 25.91 43.03 25.88 43.16 25.9 43.29 25.82 43.42 25.5 43.55 25.67 43.68 25.67 43.81 25.67 44.06 25.83 44.19 25.72 44.32 25.85 44.45 25.7 44.58 25.77 44.71 25.98 44.84 25.82 45.09 25.7 45.22 25.59 45.35 25.59 45.48 25.61 45.61 25.9 45.74 25.56 45.87 25.48 46 25.43 46.38 25.76 46.51 25.6 46.64 25.63 46.77 25.38 46.9 25.53 47.03 25.38 47.16 25.32 47.29 25.4 47.42 25.52 47.54 25.64 47.67 25.5 47.8 25.64 47.93 25.64 48.06 25.54 48.19 25.49 48.32 25.57 48.45 25.42 48.58 25.61 48.7 25.61 48.83 25.44 48.96 25.51 49.09 25.61 49.22 25.51 49.35 25.51 49.48 25.56 49.61 25.41 49.74 25.27 49.86 25.39 49.99 25.31 50.12 25.51 50.51 25.36 51.15 25.31 51.28 25.4 51.41 25.4 51.54 25.45 51.67 25.31 51.8 25.16 51.93 25.16 52.44 25.12 52.57 25.12 53.22 25.23 53.47 25.23 53.6 25.83 53.73 25.39 53.86 25.18 53.99 25.05 54.12 25 54.25 25.11 54.64 25.34 54.76 25.32 55.02 25.38 55.15 25.56 55.28 25.23 55.67 25.23 55.92 25.04 56.31 25.07 56.83 25.09 57.08 24.96 57.47 25.13 58.37 25.19 58.89 25.11 59.02 25.06 59.15 25.06 59.28 25.52 59.41 25.71 59.53 25.71 59.79 25.59 59.92 25.54 60.05 25.54 60.18 25.6 60.31 25.77 60.44 25.45 60.57 25.45 60.82 25.45 60.95 25.41 61.08 25.33 61.6 25.52 61.73 25.44 61.85 25.63 62.11 25.2 62.37 25.2 62.5 25.26 62.89 25.34 63.53 25.34 64.18 25.1 64.82 27.02 64.95 26.72 65.08 26.25 65.21 25.97 65.34 25.68 65.59 25.8 65.85 25.74 66.37 25.93 66.5 25.89 66.62 25.63 66.75 25.75 66.88 25.65 67.01 25.73 67.14 25.63 68.69 25.73 68.95 25.67 69.07 25.66 69.33 25.44 69.85 25.42 70.11 25.36 70.36 25.64 70.88 25.47 71.14 25.54 71.27 25.13 71.52 25.03 71.65 25.2 71.78 25.13 71.91 25.13 72.04 25.18 72.17 24.94 72.43 25.09 72.55 25.07 72.81 24.9 73.07 24.98 73.2 25.14 73.33 25.01 73.59 24.98 73.72 25.12 74.36 25.21 74.88 25.07 75 25.08 76.04 25.17 76.16 25.23 76.29 25.28 76.68 24.96 76.81 24.94 76.94 24.92 77.2 25.1 77.45 25.05 77.71 25.03 78.87 24.79"/>
      </g>
    </g>
  </g>
  <g class="guide ylabels" font-size="2.82" font-family="'PT Sans Caption','Helvetica Neue','Helvetica',sans-serif" fill="#6C606B" id="fig-f12a4648ce2e460b8cc0692c0408b73c-element-19">
    <text x="18.63" y="45.71" text-anchor="end" dy="0.35em">0</text>
    <text x="18.63" y="30.16" text-anchor="end" dy="0.35em">50</text>
    <text x="18.63" y="14.61" text-anchor="end" dy="0.35em">100</text>
  </g>
  <g font-size="3.88" font-family="'PT Sans','Helvetica Neue','Helvetica',sans-serif" fill="#564A55" stroke="#000000" stroke-opacity="0.000" id="fig-f12a4648ce2e460b8cc0692c0408b73c-element-20">
    <text x="8.81" y="28.16" text-anchor="middle" dy="0.35em" transform="rotate(-90, 8.81, 30.16)">Percentage of Packages</text>
  </g>
  <g font-size="3.88" font-family="'PT Sans','Helvetica Neue','Helvetica',sans-serif" fill="#564A55" stroke="#000000" stroke-opacity="0.000" id="fig-f12a4648ce2e460b8cc0692c0408b73c-element-21">
    <text x="58.12" y="10.61" text-anchor="middle">Julia v0.3 (relative)</text>
  </g>
</g>
<defs>
<clipPath id="fig-f12a4648ce2e460b8cc0692c0408b73c-element-5">
  <path d="M19.63,12.61 L 96.6 12.61 96.6 47.71 19.63 47.71" />
</clipPath
></defs>
</svg>
