<?xml version="1.0" encoding="UTF-8"?>
<svg xmlns="http://www.w3.org/2000/svg"
     xmlns:xlink="http://www.w3.org/1999/xlink"
     xmlns:gadfly="http://www.gadflyjl.org/ns"
     version="1.2"
     width="101.6mm" height="76.2mm" viewBox="0 0 101.6 76.2"
     stroke="none"
     fill="#000000"
     stroke-width="0.3"
     font-size="3.88"
>
<g class="plotroot xscalable yscalable" id="fig-0f17df2d84d24b29a9ce5785686eda60-element-1">
  <g font-size="3.88" font-family="'PT Sans','Helvetica Neue','Helvetica',sans-serif" fill="#564A55" stroke="#000000" stroke-opacity="0.000" id="fig-0f17df2d84d24b29a9ce5785686eda60-element-2">
    <text x="58.12" y="64.59" text-anchor="middle" dy="0.6em">Date</text>
  </g>
  <g class="guide xlabels" font-size="2.82" font-family="'PT Sans Caption','Helvetica Neue','Helvetica',sans-serif" fill="#6C606B" id="fig-0f17df2d84d24b29a9ce5785686eda60-element-3">
    <text x="21.89" y="48.71" text-anchor="end" dy="0.35em" transform="rotate(-90, 21.89, 48.71)">Apr</text>
    <text x="25.84" y="48.71" text-anchor="end" dy="0.35em" transform="rotate(-90, 25.84, 48.71)">May</text>
    <text x="29.91" y="48.71" text-anchor="end" dy="0.35em" transform="rotate(-90, 29.91, 48.71)">Jun</text>
    <text x="33.86" y="48.71" text-anchor="end" dy="0.35em" transform="rotate(-90, 33.86, 48.71)">Jul</text>
    <text x="37.93" y="48.71" text-anchor="end" dy="0.35em" transform="rotate(-90, 37.93, 48.71)">Aug</text>
    <text x="42.01" y="48.71" text-anchor="end" dy="0.35em" transform="rotate(-90, 42.01, 48.71)">Sep</text>
    <text x="45.95" y="48.71" text-anchor="end" dy="0.35em" transform="rotate(-90, 45.95, 48.71)">Oct</text>
    <text x="50.03" y="48.71" text-anchor="end" dy="0.35em" transform="rotate(-90, 50.03, 48.71)">Nov</text>
    <text x="53.97" y="48.71" text-anchor="end" dy="0.35em" transform="rotate(-90, 53.97, 48.71)">Dec</text>
    <text x="58.05" y="48.71" text-anchor="end" dy="0.35em" transform="rotate(-90, 58.05, 48.71)">Jan 2015</text>
    <text x="62.13" y="48.71" text-anchor="end" dy="0.35em" transform="rotate(-90, 62.13, 48.71)">Feb</text>
    <text x="65.81" y="48.71" text-anchor="end" dy="0.35em" transform="rotate(-90, 65.81, 48.71)">Mar</text>
    <text x="69.88" y="48.71" text-anchor="end" dy="0.35em" transform="rotate(-90, 69.88, 48.71)">Apr</text>
    <text x="73.83" y="48.71" text-anchor="end" dy="0.35em" transform="rotate(-90, 73.83, 48.71)">May</text>
    <text x="77.9" y="48.71" text-anchor="end" dy="0.35em" transform="rotate(-90, 77.9, 48.71)">Jun</text>
    <text x="81.85" y="48.71" text-anchor="end" dy="0.35em" transform="rotate(-90, 81.85, 48.71)">Jul</text>
    <text x="85.92" y="48.71" text-anchor="end" dy="0.35em" transform="rotate(-90, 85.92, 48.71)">Aug</text>
    <text x="90" y="48.71" text-anchor="end" dy="0.35em" transform="rotate(-90, 90, 48.71)">Sep</text>
    <text x="93.94" y="48.71" text-anchor="end" dy="0.35em" transform="rotate(-90, 93.94, 48.71)">Oct</text>
  </g>
  <g clip-path="url(#fig-0f17df2d84d24b29a9ce5785686eda60-element-5)" id="fig-0f17df2d84d24b29a9ce5785686eda60-element-4">
    <g pointer-events="visible" opacity="1" fill="#000000" fill-opacity="0.000" stroke="#000000" stroke-opacity="0.000" class="guide background" id="fig-0f17df2d84d24b29a9ce5785686eda60-element-6">
      <rect x="19.63" y="12.61" width="76.97" height="35.1"/>
    </g>
    <g class="guide ygridlines xfixed" stroke-dasharray="0.5,0.5" stroke-width="0.2" stroke="#D0D0E0" id="fig-0f17df2d84d24b29a9ce5785686eda60-element-7">
      <path fill="none" d="M19.63,45.71 L 96.6 45.71"/>
      <path fill="none" d="M19.63,39.49 L 96.6 39.49"/>
      <path fill="none" d="M19.63,33.27 L 96.6 33.27"/>
      <path fill="none" d="M19.63,27.05 L 96.6 27.05"/>
      <path fill="none" d="M19.63,20.83 L 96.6 20.83"/>
      <path fill="none" d="M19.63,14.61 L 96.6 14.61"/>
    </g>
    <g class="guide xgridlines yfixed" stroke-dasharray="0.5,0.5" stroke-width="0.2" stroke="#D0D0E0" id="fig-0f17df2d84d24b29a9ce5785686eda60-element-8">
      <path fill="none" d="M21.89,12.61 L 21.89 47.71"/>
      <path fill="none" d="M25.84,12.61 L 25.84 47.71"/>
      <path fill="none" d="M29.91,12.61 L 29.91 47.71"/>
      <path fill="none" d="M33.86,12.61 L 33.86 47.71"/>
      <path fill="none" d="M37.93,12.61 L 37.93 47.71"/>
      <path fill="none" d="M42.01,12.61 L 42.01 47.71"/>
      <path fill="none" d="M45.95,12.61 L 45.95 47.71"/>
      <path fill="none" d="M50.03,12.61 L 50.03 47.71"/>
      <path fill="none" d="M53.97,12.61 L 53.97 47.71"/>
      <path fill="none" d="M58.05,12.61 L 58.05 47.71"/>
      <path fill="none" d="M62.13,12.61 L 62.13 47.71"/>
      <path fill="none" d="M65.81,12.61 L 65.81 47.71"/>
      <path fill="none" d="M69.88,12.61 L 69.88 47.71"/>
      <path fill="none" d="M73.83,12.61 L 73.83 47.71"/>
      <path fill="none" d="M77.9,12.61 L 77.9 47.71"/>
      <path fill="none" d="M81.85,12.61 L 81.85 47.71"/>
      <path fill="none" d="M85.92,12.61 L 85.92 47.71"/>
      <path fill="none" d="M90,12.61 L 90 47.71"/>
      <path fill="none" d="M93.94,12.61 L 93.94 47.71"/>
    </g>
    <g class="plotpanel" id="fig-0f17df2d84d24b29a9ce5785686eda60-element-9">
      <g stroke-width="0.3" fill="#000000" fill-opacity="0.000" class="geometry color_newnot_possible" stroke-dasharray="none" stroke="#808080" id="fig-0f17df2d84d24b29a9ce5785686eda60-element-10">
        <path fill="none" d="M80.4,42.41 L 80.53 42.41 80.66 42.41 80.8 42.41 80.93 42.41 81.06 42.41 81.19 42.41 81.32 42.41 81.72 42.41 81.98 42.41 82.24 42.47 82.37 42.41 82.5 42.41 82.64 42.41 82.77 42.41 82.9 42.41 85.13 42.35 86.19 42.35 87.37 42.35 89.6 42.35 90 42.35 90.66 42.16 91.31 41.98 93.42 41.98 93.94 41.98 94.6 41.98"/>
      </g>
      <g stroke-width="0.3" fill="#000000" fill-opacity="0.000" class="geometry color_newno_tests" stroke-dasharray="none" stroke="#0000FF" id="fig-0f17df2d84d24b29a9ce5785686eda60-element-11">
        <path fill="none" d="M80.4,39.05 L 80.53 39.05 80.66 39.05 80.8 39.05 80.93 39.05 81.06 39.05 81.19 39.05 81.32 39.05 81.72 39.05 81.98 39.05 82.24 39.05 82.37 39.05 82.5 39.12 82.64 39.12 82.77 39.12 82.9 39.18 85.13 39.12 86.19 39.12 87.37 39.12 89.6 39.12 90 39.18 90.66 39.18 91.31 39.24 93.42 39.43 93.94 39.61 94.6 39.74"/>
      </g>
      <g stroke-width="0.3" fill="#000000" fill-opacity="0.000" class="geometry color_newtests_fail" stroke-dasharray="none" stroke="#FF0000" id="fig-0f17df2d84d24b29a9ce5785686eda60-element-12">
        <path fill="none" d="M80.4,42.23 L 80.53 42.04 80.66 41.98 80.8 41.91 80.93 41.79 81.06 41.98 81.19 41.73 81.32 41.91 81.72 41.79 81.98 41.73 82.24 41.67 82.37 41.85 82.5 39.86 82.64 41.73 82.77 41.35 82.9 41.42 85.13 41.67 86.19 41.73 87.37 41.23 89.6 40.17 90 40.48 90.66 40.86 91.31 41.17 93.42 41.11 93.94 40.8 94.6 41.04"/>
      </g>
      <g stroke-width="0.3" fill="#000000" fill-opacity="0.000" class="geometry color_newtests_pass" stroke-dasharray="none" stroke="#008000" id="fig-0f17df2d84d24b29a9ce5785686eda60-element-13">
        <path fill="none" d="M80.4,22.14 L 80.53 22.32 80.66 22.26 80.8 22.32 80.93 22.32 81.06 22.14 81.19 22.39 81.32 22.14 81.72 22.26 81.98 22.2 82.24 22.26 82.37 22.01 82.5 23.69 82.64 21.7 82.77 22.01 82.9 21.89 85.13 20.89 86.19 20.52 87.37 20.71 89.6 20.89 90 20.4 90.66 20.15 91.31 19.84 93.42 19.09 93.94 18.9 94.6 18.28"/>
      </g>
      <g stroke-width="0.3" fill="#000000" fill-opacity="0.000" class="geometry color_newnot_possible" stroke-dasharray="none" stroke="#808080" id="fig-0f17df2d84d24b29a9ce5785686eda60-element-14">
        <path fill="none" d="M21.63,43.72 L 21.76 43.72 21.89 43.72 22.03 43.72 22.16 43.72 22.29 43.72 22.42 43.72 22.55 43.72 22.81 43.72 22.95 43.72 23.21 43.72 23.47 43.72 23.6 43.72 23.87 43.72 24 43.72 24.92 43.72 25.31 43.72 25.58 43.72 26.5 43.78 26.63 43.78 26.76 43.78 26.89 43.78 27.02 43.78 27.15 43.72 27.29 43.72 27.42 43.72 27.55 43.72 27.68 43.59 27.81 43.59 27.94 43.59 28.21 43.53 28.34 43.97 28.47 43.97 28.6 43.97 28.73 43.97 28.86 43.97 28.99 43.97 29.13 43.97 29.26 43.97 29.39 43.97 29.52 43.97 29.65 43.97 29.78 43.97 29.91 43.97 30.05 43.97 30.18 43.97 30.31 43.97 31.1 43.66 31.23 43.59 31.36 43.59 31.49 43.59 31.62 43.59 31.76 43.53 31.89 43.41 32.02 43.41 32.15 43.41 32.28 43.41 32.54 43.41 32.68 43.41 32.81 43.41 32.94 43.41 33.07 43.41 33.2 43.41 33.33 43.41 33.46 43.41 33.73 43.41 33.86 43.41 33.99 43.41 34.12 43.41 34.25 43.41 34.38 43.41 34.65 43.41 34.78 43.41 34.91 43.41 35.04 43.41 35.31 43.41 35.57 43.41 35.7 43.41 35.83 43.41 35.96 43.41 36.36 43.41 36.49 43.41 36.62 43.41 36.75 43.41 36.88 43.41 37.01 43.41 37.15 43.34 37.28 43.34 37.54 43.34 37.67 43.34 37.93 43.34 38.07 43.34 38.2 43.34 38.33 43.34 38.59 43.34 38.72 43.34 38.85 43.34 38.99 43.34 39.12 43.34 39.25 43.34 39.38 43.34 39.51 43.34 39.64 43.28 39.78 43.22 39.91 43.22 40.04 43.22 40.17 43.22 40.43 43.22 40.56 43.22 40.7 43.22 40.83 43.22 40.96 43.22 41.09 43.22 41.22 43.22 41.35 43.22 41.62 43.22 41.75 43.16 42.01 43.16 42.14 43.16 42.27 43.1 42.8 43.1 43.19 43.1 43.32 43.1 43.46 43.1 43.59 43.1 43.72 43.1 43.85 43.1 43.98 43.1 44.11 43.1 44.25 43.1 44.51 43.03 44.64 43.03 44.77 43.03 44.9 43.03 45.03 43.03 45.17 43.03 45.3 42.97 45.56 42.97 45.69 42.97 45.82 42.97 45.95 42.97 46.09 42.79 46.22 42.91 46.35 42.91 46.48 42.91 46.87 42.91 47.01 42.85 47.14 42.85 47.27 42.85 47.4 42.85 47.53 42.85 47.66 42.85 47.8 42.85 47.93 42.85 48.06 42.85 48.19 42.79 48.32 42.79 48.45 42.79 48.58 42.79 48.72 42.79 48.85 42.79 48.98 42.79 49.11 42.79 49.24 42.79 49.37 42.79 49.5 42.79 49.64 42.79 49.77 42.79 49.9 42.79 50.03 42.79 50.16 42.79 50.29 42.79 50.42 42.79 50.56 42.79 50.69 42.79 51.08 42.79 51.74 42.79 51.87 42.79 52 42.79 52.13 42.79 52.27 42.79 52.4 42.79 52.53 42.79 53.05 42.79 53.19 42.79 53.84 42.79 54.11 42.79 54.24 42.85 54.37 42.85 54.5 42.85 54.63 42.85 54.76 42.85 54.89 42.85 55.29 42.85 55.42 42.85 55.68 42.85 55.82 42.85 55.95 42.85 56.34 42.85 56.6 42.85 57 42.85 57.52 42.85 57.79 42.85 58.18 42.85 59.1 42.85 59.63 42.85 59.76 42.72 59.89 42.72 60.02 42.66 60.15 42.66 60.29 42.66 60.55 42.66 60.68 42.66 60.81 42.66 60.94 42.66 61.07 42.66 61.21 42.66 61.34 42.66 61.6 42.6 61.73 42.6 61.86 42.6 62.39 42.6 62.52 42.6 62.65 42.6 62.91 42.6 63.18 42.6 63.31 42.6 63.7 42.6 64.36 42.6 65.02 42.6 65.68 42.6 65.81 42.6 65.94 42.6 66.07 42.16 66.2 42.23 66.46 42.16 66.73 42.16 67.25 42.16 67.38 42.16 67.52 42.16 67.65 42.16 67.78 42.16 67.91 42.23 68.04 42.16 69.62 42.1 69.88 42.04 70.01 42.04 70.28 42.04 70.8 42.04 71.07 42.04 71.33 42.04 71.85 42.04 72.12 42.04 72.25 42.04 72.51 42.04 72.64 42.04 72.78 42.04 72.91 42.04 73.04 42.04 73.17 42.04 73.43 42.04 73.56 42.04 73.83 42.04 74.09 42.04 74.22 42.04 74.35 42.04 74.62 42.04 74.75 42.04 75.4 42.04 75.93 42.1 76.06 42.04 77.11 42.04 77.25 41.91 77.38 41.91 77.77 41.91 77.9 41.91 78.03 41.98 78.3 41.98 78.56 41.98 78.82 41.98 80.01 41.98"/>
      </g>
      <g stroke-width="0.3" fill="#000000" fill-opacity="0.000" class="geometry color_newtests_fail" stroke-dasharray="none" stroke="#FF0000" id="fig-0f17df2d84d24b29a9ce5785686eda60-element-15">
        <path fill="none" d="M21.63,43.22 L 21.76 43.22 21.89 42.29 22.03 43.28 22.16 43.22 22.29 42.23 22.42 42.23 22.55 42.23 22.81 43.22 22.95 43.22 23.21 43.28 23.47 43.28 23.6 43.28 23.87 43.34 24 43.34 24.92 43.41 25.31 43.41 25.58 43.41 26.5 43.34 26.63 43.41 26.76 43.28 26.89 43.28 27.02 43.34 27.15 43.41 27.29 43.34 27.42 43.34 27.55 43.34 27.68 43.41 27.81 43.41 27.94 43.28 28.21 43.34 28.34 43.22 28.47 43.34 28.6 43.47 28.73 43.47 28.86 43.53 28.99 43.53 29.13 43.47 29.26 43.53 29.39 43.53 29.52 43.53 29.65 43.59 29.78 43.59 29.91 44.09 30.05 43.84 30.18 43.84 30.31 43.84 31.1 44.22 31.23 44.28 31.36 44.28 31.49 44.28 31.62 44.22 31.76 44.28 31.89 44.28 32.02 44.28 32.15 44.22 32.28 43.03 32.54 44.22 32.68 44.28 32.81 44.28 32.94 44.28 33.07 44.28 33.2 44.28 33.33 44.28 33.46 44.28 33.73 44.28 33.86 44.28 33.99 44.22 34.12 44.22 34.25 44.22 34.38 44.22 34.65 44.22 34.78 44.09 34.91 44.09 35.04 44.09 35.31 43.97 35.57 42.72 35.7 42.66 35.83 43.97 35.96 43.9 36.36 44.03 36.49 44.03 36.62 44.03 36.75 44.03 36.88 44.09 37.01 44.15 37.15 44.15 37.28 44.15 37.54 44.15 37.67 44.22 37.93 44.15 38.07 44.22 38.2 44.22 38.33 44.22 38.59 44.22 38.72 44.22 38.85 44.09 38.99 44.15 39.12 44.15 39.25 44.09 39.38 44.09 39.51 43.97 39.64 44.03 39.78 44.15 39.91 42.41 40.04 42.79 40.17 42.79 40.43 44.22 40.56 44.28 40.7 44.22 40.83 44.28 40.96 44.22 41.09 44.22 41.22 44.34 41.35 44.15 41.62 44.4 41.75 44.46 42.01 44.34 42.14 44.34 42.27 44.4 42.8 44.4 43.19 44.71 43.32 44.71 43.46 44.71 43.59 44.78 43.72 44.84 43.85 44.84 43.98 44.84 44.11 44.84 44.25 44.84 44.51 44.71 44.64 44.71 44.77 44.65 44.9 44.71 45.03 44.65 45.17 44.53 45.3 44.59 45.56 44.65 45.69 44.71 45.82 44.71 45.95 44.65 46.09 44.59 46.22 44.65 46.35 44.71 46.48 44.71 46.87 44.71 47.01 44.71 47.14 44.71 47.27 44.78 47.4 44.78 47.53 44.78 47.66 44.78 47.8 44.78 47.93 44.65 48.06 44.59 48.19 44.59 48.32 44.46 48.45 44.59 48.58 44.59 48.72 44.59 48.85 44.59 48.98 44.59 49.11 44.53 49.24 44.59 49.37 44.53 49.5 44.59 49.64 44.53 49.77 44.59 49.9 44.59 50.03 44.59 50.16 44.65 50.29 44.65 50.42 44.71 50.56 44.71 50.69 44.53 51.08 44.78 51.74 44.71 51.87 44.71 52 44.71 52.13 44.78 52.27 44.84 52.4 44.71 52.53 44.71 53.05 44.65 53.19 44.71 53.84 44.71 54.11 44.71 54.24 44.34 54.37 44.53 54.5 44.71 54.63 44.71 54.76 44.71 54.89 44.65 55.29 44.59 55.42 44.59 55.68 44.53 55.82 44.59 55.95 44.59 56.34 44.59 56.6 44.65 57 44.65 57.52 44.65 57.79 44.65 58.18 44.65 59.1 44.59 59.63 44.46 59.76 44.59 59.89 44.59 60.02 44.34 60.15 44.34 60.29 44.4 60.55 44.4 60.68 44.34 60.81 44.34 60.94 44.28 61.07 44.34 61.21 44.34 61.34 44.34 61.6 44.34 61.73 44.34 61.86 44.34 62.39 44.15 62.52 44.15 62.65 44.15 62.91 44.09 63.18 44.03 63.31 44.03 63.7 44.03 64.36 44.03 65.02 44.09 65.68 42.29 65.81 42.91 65.94 43.34 66.07 44.09 66.2 44.09 66.46 44.09 66.73 44.09 67.25 44.09 67.38 44.03 67.52 44.03 67.65 44.03 67.78 44.03 67.91 44.03 68.04 43.97 69.62 43.9 69.88 43.97 70.01 44.09 70.28 44.09 70.8 43.97 71.07 44.09 71.33 44.03 71.85 44.03 72.12 44.03 72.25 43.97 72.51 43.84 72.64 43.84 72.78 43.84 72.91 43.9 73.04 43.78 73.17 43.78 73.43 43.78 73.56 43.84 73.83 43.78 74.09 43.78 74.22 43.66 74.35 43.66 74.62 43.72 74.75 43.66 75.4 43.59 75.93 43.47 76.06 43.47 77.11 43.22 77.25 43.22 77.38 43.22 77.77 43.22 77.9 43.22 78.03 43.28 78.3 43.34 78.56 43.28 78.82 43.28 80.01 43.41"/>
      </g>
      <g stroke-width="0.3" fill="#000000" fill-opacity="0.000" class="geometry color_newno_tests" stroke-dasharray="none" stroke="#0000FF" id="fig-0f17df2d84d24b29a9ce5785686eda60-element-16">
        <path fill="none" d="M21.63,42.35 L 21.76 42.35 21.89 42.35 22.03 42.35 22.16 42.35 22.29 42.41 22.42 42.41 22.55 42.35 22.81 42.29 22.95 42.29 23.21 42.29 23.47 42.16 23.6 42.16 23.87 42.16 24 42.16 24.92 42.16 25.31 42.16 25.58 42.16 26.5 42.1 26.63 42.1 26.76 42.1 26.89 42.1 27.02 42.1 27.15 42.1 27.29 42.1 27.42 42.1 27.55 42.1 27.68 42.23 27.81 42.23 27.94 42.23 28.21 42.29 28.34 42.29 28.47 42.29 28.6 42.23 28.73 42.23 28.86 42.35 28.99 42.41 29.13 42.41 29.26 42.41 29.39 42.41 29.52 42.41 29.65 42.41 29.78 42.41 29.91 42.16 30.05 42.23 30.18 42.23 30.31 42.23 31.1 42.23 31.23 42.23 31.36 42.23 31.49 42.29 31.62 42.29 31.76 42.29 31.89 42.29 32.02 42.35 32.15 42.35 32.28 42.54 32.54 42.47 32.68 42.35 32.81 42.35 32.94 42.35 33.07 42.35 33.2 42.35 33.33 42.35 33.46 42.35 33.73 42.41 33.86 42.35 33.99 42.35 34.12 42.35 34.25 42.47 34.38 42.47 34.65 42.47 34.78 42.47 34.91 42.47 35.04 42.47 35.31 42.35 35.57 42.54 35.7 42.47 35.83 42.41 35.96 42.41 36.36 42.41 36.49 42.41 36.62 42.41 36.75 42.41 36.88 42.47 37.01 42.47 37.15 42.47 37.28 42.54 37.54 42.54 37.67 42.54 37.93 42.54 38.07 42.54 38.2 42.54 38.33 42.54 38.59 42.41 38.72 42.47 38.85 42.47 38.99 42.41 39.12 42.41 39.25 42.41 39.38 42.41 39.51 42.41 39.64 42.41 39.78 42.41 39.91 42.79 40.04 42.79 40.17 42.79 40.43 42.35 40.56 42.35 40.7 42.41 40.83 42.41 40.96 42.47 41.09 42.41 41.22 42.41 41.35 42.47 41.62 42.85 41.75 42.91 42.01 42.91 42.14 42.91 42.27 42.91 42.8 42.91 43.19 42.85 43.32 42.85 43.46 42.79 43.59 42.79 43.72 42.79 43.85 42.85 43.98 42.85 44.11 42.91 44.25 42.91 44.51 42.91 44.64 42.85 44.77 42.85 44.9 42.85 45.03 42.85 45.17 42.91 45.3 42.91 45.56 42.85 45.69 42.85 45.82 42.85 45.95 42.85 46.09 42.6 46.22 42.85 46.35 42.85 46.48 42.85 46.87 42.91 47.01 42.91 47.14 42.85 47.27 42.85 47.4 42.85 47.53 42.85 47.66 42.85 47.8 42.85 47.93 42.85 48.06 42.85 48.19 42.85 48.32 42.91 48.45 42.85 48.58 42.85 48.72 42.85 48.85 42.85 48.98 42.85 49.11 42.91 49.24 42.85 49.37 42.91 49.5 42.85 49.64 42.85 49.77 42.85 49.9 42.85 50.03 42.85 50.16 42.85 50.29 42.85 50.42 42.85 50.56 42.85 50.69 42.85 51.08 42.85 51.74 42.85 51.87 42.85 52 42.85 52.13 42.85 52.27 42.85 52.4 42.85 52.53 42.85 53.05 42.91 53.19 42.85 53.84 42.85 54.11 42.85 54.24 42.85 54.37 42.91 54.5 42.85 54.63 42.85 54.76 42.85 54.89 42.91 55.29 42.85 55.42 42.85 55.68 42.85 55.82 42.79 55.95 42.79 56.34 42.85 56.6 42.79 57 42.79 57.52 42.85 57.79 42.79 58.18 42.79 59.1 42.79 59.63 42.79 59.76 42.79 59.89 42.79 60.02 42.85 60.15 42.79 60.29 42.79 60.55 42.79 60.68 42.85 60.81 42.85 60.94 42.85 61.07 42.79 61.21 42.79 61.34 42.79 61.6 42.79 61.73 42.79 61.86 42.79 62.39 42.79 62.52 42.79 62.65 42.79 62.91 42.79 63.18 42.79 63.31 42.79 63.7 42.79 64.36 42.79 65.02 42.79 65.68 42.97 65.81 42.91 65.94 42.91 66.07 42.91 66.2 42.85 66.46 42.85 66.73 42.85 67.25 42.85 67.38 42.85 67.52 42.91 67.65 42.91 67.78 42.91 67.91 42.91 68.04 42.91 69.62 42.97 69.88 42.97 70.01 42.97 70.28 43.03 70.8 43.03 71.07 43.03 71.33 43.03 71.85 43.03 72.12 43.03 72.25 43.03 72.51 43.03 72.64 43.03 72.78 43.03 72.91 43.03 73.04 43.03 73.17 43.03 73.43 43.03 73.56 43.03 73.83 43.1 74.09 43.03 74.22 43.03 74.35 43.03 74.62 43.1 74.75 43.03 75.4 43.1 75.93 43.1 76.06 43.1 77.11 43.1 77.25 43.1 77.38 43.1 77.77 43.16 77.9 43.16 78.03 43.1 78.3 43.1 78.56 43.1 78.82 43.16 80.01 43.1"/>
      </g>
      <g stroke-width="0.3" fill="#000000" fill-opacity="0.000" class="geometry color_oldfull_fail" stroke-dasharray="none" stroke="#FFA500" id="fig-0f17df2d84d24b29a9ce5785686eda60-element-17">
        <path fill="none" d="M21.63,43.16 L 21.76 43.16 21.89 43.59 22.03 42.91 22.16 42.97 22.29 43.47 22.42 43.34 22.55 43.47 22.81 42.6 22.95 42.6 23.21 42.54 23.47 42.79 23.6 42.66 23.87 42.85 24 42.79 24.92 42.91 25.31 42.91 25.58 42.91 26.5 42.85 26.63 42.72 26.76 42.1 26.89 42.1 27.02 42.41 27.15 42.41 27.29 42.6 27.42 42.6 27.55 42.6 27.68 42.85 27.81 42.85 27.94 43.16 28.21 43.16 28.34 43.1 28.47 42.97 28.6 43.03 28.73 43.03 28.86 43.16 28.99 43.16 29.13 43.16 29.26 43.03 29.39 43.28 29.52 43.22 29.65 43.16 29.78 43.03 29.91 45.71 30.05 43.28 30.18 42.97 30.31 43.1 31.1 42.97 31.23 43.22 31.36 43.47 31.49 43.47 31.62 43.41 31.76 43.66 31.89 43.59 32.02 43.59 32.15 43.66 32.28 43.84 32.54 43.53 32.68 43.59 32.81 43.72 32.94 43.59 33.07 43.72 33.2 43.72 33.33 43.47 33.46 43.53 33.73 43.78 33.86 43.78 33.99 43.78 34.12 43.72 34.25 43.66 34.38 43.78 34.65 43.78 34.78 43.84 34.91 43.9 35.04 43.9 35.31 43.78 35.57 43.34 35.7 43.66 35.83 43.59 35.96 43.59 36.36 43.59 36.49 43.59 36.62 43.41 36.75 43.53 36.88 43.47 37.01 43.47 37.15 43.59 37.28 43.53 37.54 43.59 37.67 43.66 37.93 43.66 38.07 43.66 38.2 43.66 38.33 43.66 38.59 43.66 38.72 43.66 38.85 43.66 38.99 43.59 39.12 43.59 39.25 43.53 39.38 43.66 39.51 43.53 39.64 43.47 39.78 43.47 39.91 43.34 40.04 43.28 40.17 43.34 40.43 43.22 40.56 43.28 40.7 43.47 40.83 43.28 40.96 43.28 41.09 43.34 41.22 43.16 41.35 43.22 41.62 43.53 41.75 43.47 42.01 43.47 42.14 43.47 42.27 43.47 42.8 43.47 43.19 43.41 43.32 43.34 43.46 43.41 43.59 43.28 43.72 43.28 43.85 43.47 43.98 43.16 44.11 43.1 44.25 43.1 44.51 43.16 44.64 43.28 44.77 43.22 44.9 43.28 45.03 43.28 45.17 43.16 45.3 43.28 45.56 43.41 45.69 43.41 45.82 43.41 45.95 43.41 46.09 43.22 46.22 43.47 46.35 43.47 46.48 43.47 46.87 43.1 47.01 43.28 47.14 43.28 47.27 43.41 47.4 43.28 47.53 43.41 47.66 43.41 47.8 43.34 47.93 43.34 48.06 43.28 48.19 43.47 48.32 43.41 48.45 43.34 48.58 43.41 48.72 43.41 48.85 43.34 48.98 43.47 49.11 43.28 49.24 43.28 49.37 43.41 49.5 43.34 49.64 43.28 49.77 43.28 49.9 43.28 50.03 43.22 50.16 43.28 50.29 43.41 50.42 43.22 50.56 43.28 50.69 43.28 51.08 43.16 51.74 43.16 51.87 43.03 52 43.03 52.13 42.91 52.27 42.97 52.4 43.16 52.53 43.16 53.05 43.1 53.19 43.1 53.84 42.97 54.11 42.97 54.24 42.72 54.37 42.85 54.5 42.91 54.63 43.03 54.76 43.03 54.89 42.91 55.29 42.79 55.42 42.79 55.68 42.72 55.82 42.54 55.95 42.85 56.34 42.79 56.6 42.91 57 42.85 57.52 42.72 57.79 42.85 58.18 42.6 59.1 42.47 59.63 42.54 59.76 42.54 59.89 42.54 60.02 42.23 60.15 42.1 60.29 42.04 60.55 42.16 60.68 42.16 60.81 42.16 60.94 42.1 61.07 41.91 61.21 42.23 61.34 42.23 61.6 42.23 61.73 42.23 61.86 42.29 62.39 42.1 62.52 42.23 62.65 42.04 62.91 42.47 63.18 42.47 63.31 42.41 63.7 42.29 64.36 42.29 65.02 42.35 65.68 41.85 65.81 41.6 65.94 41.67 66.07 41.6 66.2 41.91 66.46 41.85 66.73 41.91 67.25 41.67 67.38 41.73 67.52 41.91 67.65 41.79 67.78 41.85 67.91 41.73 68.04 41.91 69.62 41.85 69.88 41.91 70.01 41.73 70.28 41.91 70.8 42.04 71.07 41.98 71.33 41.67 71.85 41.85 72.12 41.73 72.25 42.23 72.51 42.35 72.64 42.16 72.78 42.23 72.91 42.1 73.04 42.16 73.17 42.41 73.43 42.23 73.56 42.16 73.83 42.35 74.09 42.29 74.22 42.16 74.35 42.29 74.62 42.16 74.75 42.1 75.4 41.91 75.93 42.1 76.06 42.1 77.11 42.16 77.25 42.23 77.38 42.16 77.77 42.41 77.9 42.41 78.03 42.35 78.3 42.04 78.56 42.16 78.82 42.1 80.01 42.23"/>
      </g>
      <g stroke-width="0.3" fill="#000000" fill-opacity="0.000" class="geometry color_newtests_pass" stroke-dasharray="none" stroke="#008000" id="fig-0f17df2d84d24b29a9ce5785686eda60-element-18">
        <path fill="none" d="M21.63,37.69 L 21.76 37.69 21.89 38.12 22.03 37.81 22.16 37.81 22.29 38.25 22.42 38.37 22.55 38.25 22.81 38.18 22.95 38.12 23.21 38.06 23.47 37.81 23.6 37.93 23.87 37.69 24 37.69 24.92 37.25 25.31 37.25 25.58 37.25 26.5 37.31 26.63 37.25 26.76 37.93 26.89 37.93 27.02 37.56 27.15 37.56 27.29 37.44 27.42 37.44 27.55 37.44 27.68 37.13 27.81 37.13 27.94 36.75 28.21 36.63 28.34 36.38 28.47 36.38 28.6 36.13 28.73 36.13 28.86 35.82 28.99 35.7 29.13 35.76 29.26 35.82 29.39 35.57 29.52 35.63 29.65 35.57 29.78 35.7 29.91 35.26 30.05 35.32 30.18 35.57 30.31 35.38 31.1 35.07 31.23 34.76 31.36 34.45 31.49 34.33 31.62 34.33 31.76 34.08 31.89 34.14 32.02 34.08 32.15 34.02 32.28 34.76 32.54 33.95 32.68 33.83 32.81 33.71 32.94 33.83 33.07 33.71 33.2 33.71 33.33 33.77 33.46 33.71 33.73 33.33 33.86 33.27 33.99 33.27 34.12 33.27 34.25 33.21 34.38 32.96 34.65 32.9 34.78 32.77 34.91 32.71 35.04 32.71 35.31 32.77 35.57 34.08 35.7 33.89 35.83 32.65 35.96 32.71 36.36 32.52 36.49 32.52 36.62 32.65 36.75 32.52 36.88 32.46 37.01 32.34 37.15 32.21 37.28 32.15 37.54 32.09 37.67 31.96 37.93 32.03 38.07 31.9 38.2 31.71 38.33 31.71 38.59 31.78 38.72 31.71 38.85 31.71 38.99 31.71 39.12 31.65 39.25 31.71 39.38 31.53 39.51 31.65 39.64 31.71 39.78 31.59 39.91 33.02 40.04 32.71 40.17 32.65 40.43 31.59 40.56 31.47 40.7 31.22 40.83 31.34 40.96 31.34 41.09 31.16 41.22 31.16 41.35 31.16 41.62 30.97 41.75 30.78 42.01 30.78 42.14 30.78 42.27 30.78 42.8 30.78 43.19 30.22 43.32 30.22 43.46 30.16 43.59 30.1 43.72 30.04 43.85 29.79 43.98 29.6 44.11 29.6 44.25 29.6 44.51 29.72 44.64 29.6 44.77 29.66 44.9 29.54 45.03 29.6 45.17 29.72 45.3 29.6 45.56 29.54 45.69 29.41 45.82 29.41 45.95 29.35 46.09 28.79 46.22 29.23 46.35 29.16 46.48 29.04 46.87 29.23 47.01 29.1 47.14 29.04 47.27 28.79 47.4 28.92 47.53 28.79 47.66 28.67 47.8 28.73 47.93 28.79 48.06 28.85 48.19 28.73 48.32 28.85 48.45 28.85 48.58 28.73 48.72 28.61 48.85 28.67 48.98 28.54 49.11 28.67 49.24 28.67 49.37 28.48 49.5 28.54 49.64 28.54 49.77 28.42 49.9 28.42 50.03 28.42 50.16 28.29 50.29 28.17 50.42 28.23 50.56 28.17 50.69 28.29 51.08 28.17 51.74 27.92 51.87 27.92 52 27.92 52.13 27.92 52.27 27.8 52.4 27.55 52.53 27.55 53.05 27.3 53.19 27.3 53.84 27.36 54.11 27.36 54.24 27.86 54.37 27.42 54.5 27.24 54.63 27.11 54.76 26.99 54.89 27.05 55.29 27.17 55.42 27.11 55.68 27.05 55.82 27.17 55.95 26.86 56.34 26.86 56.6 26.61 57 26.55 57.52 26.49 57.79 26.24 58.18 26.24 59.1 26.06 59.63 25.68 59.76 25.56 59.89 25.56 60.02 25.81 60.15 25.99 60.29 25.99 60.55 25.87 60.68 25.74 60.81 25.74 60.94 25.68 61.07 25.81 61.21 25.5 61.34 25.5 61.6 25.37 61.73 25.25 61.86 25.12 62.39 25 62.52 25 62.65 25.18 62.91 24.62 63.18 24.5 63.31 24.56 63.7 24.56 64.36 24.56 65.02 24.07 65.68 25.93 65.81 25.62 65.94 25.12 66.07 24.75 66.2 24.44 66.46 24.56 66.73 24.5 67.25 24.62 67.38 24.5 67.52 24.19 67.65 24.31 67.78 24.13 67.91 24.25 68.04 24.07 69.62 24.13 69.88 24.07 70.01 23.94 70.28 23.69 70.8 23.63 71.07 23.57 71.33 23.75 71.85 23.57 72.12 23.57 72.25 23.07 72.51 22.76 72.64 22.95 72.78 22.82 72.91 22.7 73.04 22.76 73.17 22.45 73.43 22.57 73.56 22.51 73.83 22.32 74.09 22.32 74.22 22.39 74.35 22.2 74.62 22.07 74.75 22.2 75.4 22.14 75.93 21.89 76.06 21.83 77.11 21.76 77.25 21.83 77.38 21.89 77.77 21.39 77.9 21.33 78.03 21.27 78.3 21.39 78.56 21.33 78.82 21.27 80.01 20.77"/>
      </g>
    </g>
  </g>
  <g class="guide ylabels" font-size="2.82" font-family="'PT Sans Caption','Helvetica Neue','Helvetica',sans-serif" fill="#6C606B" id="fig-0f17df2d84d24b29a9ce5785686eda60-element-19">
    <text x="18.63" y="45.71" text-anchor="end" dy="0.35em">0</text>
    <text x="18.63" y="39.49" text-anchor="end" dy="0.35em">100</text>
    <text x="18.63" y="33.27" text-anchor="end" dy="0.35em">200</text>
    <text x="18.63" y="27.05" text-anchor="end" dy="0.35em">300</text>
    <text x="18.63" y="20.83" text-anchor="end" dy="0.35em">400</text>
    <text x="18.63" y="14.61" text-anchor="end" dy="0.35em">500</text>
  </g>
  <g font-size="3.88" font-family="'PT Sans','Helvetica Neue','Helvetica',sans-serif" fill="#564A55" stroke="#000000" stroke-opacity="0.000" id="fig-0f17df2d84d24b29a9ce5785686eda60-element-20">
    <text x="8.81" y="28.16" text-anchor="middle" dy="0.35em" transform="rotate(-90, 8.81, 30.16)">Number of Packages</text>
  </g>
  <g font-size="3.88" font-family="'PT Sans','Helvetica Neue','Helvetica',sans-serif" fill="#564A55" stroke="#000000" stroke-opacity="0.000" id="fig-0f17df2d84d24b29a9ce5785686eda60-element-21">
    <text x="58.12" y="10.61" text-anchor="middle">Julia v0.3</text>
  </g>
</g>
<defs>
<clipPath id="fig-0f17df2d84d24b29a9ce5785686eda60-element-5">
  <path d="M19.63,12.61 L 96.6 12.61 96.6 47.71 19.63 47.71" />
</clipPath
></defs>
</svg>
