<?xml version="1.0" encoding="UTF-8"?>
<svg xmlns="http://www.w3.org/2000/svg"
     xmlns:xlink="http://www.w3.org/1999/xlink"
     xmlns:gadfly="http://www.gadflyjl.org/ns"
     version="1.2"
     width="101.6mm" height="76.2mm" viewBox="0 0 101.6 76.2"
     stroke="none"
     fill="#000000"
     stroke-width="0.3"
     font-size="3.88"
>
<g class="plotroot xscalable yscalable" id="fig-0dd738bd68ec4a3990fc968d95b01835-element-1">
  <g font-size="3.88" font-family="'PT Sans','Helvetica Neue','Helvetica',sans-serif" fill="#564A55" stroke="#000000" stroke-opacity="0.000" id="fig-0dd738bd68ec4a3990fc968d95b01835-element-2">
    <text x="58.12" y="64.59" text-anchor="middle" dy="0.6em">Date</text>
  </g>
  <g class="guide xlabels" font-size="2.82" font-family="'PT Sans Caption','Helvetica Neue','Helvetica',sans-serif" fill="#6C606B" id="fig-0dd738bd68ec4a3990fc968d95b01835-element-3">
    <text x="21.88" y="48.71" text-anchor="end" dy="0.35em" transform="rotate(-90, 21.88, 48.71)">Apr</text>
    <text x="25.67" y="48.71" text-anchor="end" dy="0.35em" transform="rotate(-90, 25.67, 48.71)">May</text>
    <text x="29.58" y="48.71" text-anchor="end" dy="0.35em" transform="rotate(-90, 29.58, 48.71)">Jun</text>
    <text x="33.37" y="48.71" text-anchor="end" dy="0.35em" transform="rotate(-90, 33.37, 48.71)">Jul</text>
    <text x="37.29" y="48.71" text-anchor="end" dy="0.35em" transform="rotate(-90, 37.29, 48.71)">Aug</text>
    <text x="41.2" y="48.71" text-anchor="end" dy="0.35em" transform="rotate(-90, 41.2, 48.71)">Sep</text>
    <text x="44.99" y="48.71" text-anchor="end" dy="0.35em" transform="rotate(-90, 44.99, 48.71)">Oct</text>
    <text x="48.9" y="48.71" text-anchor="end" dy="0.35em" transform="rotate(-90, 48.9, 48.71)">Nov</text>
    <text x="52.69" y="48.71" text-anchor="end" dy="0.35em" transform="rotate(-90, 52.69, 48.71)">Dec</text>
    <text x="56.6" y="48.71" text-anchor="end" dy="0.35em" transform="rotate(-90, 56.6, 48.71)">Jan 2015</text>
    <text x="60.51" y="48.71" text-anchor="end" dy="0.35em" transform="rotate(-90, 60.51, 48.71)">Feb</text>
    <text x="64.05" y="48.71" text-anchor="end" dy="0.35em" transform="rotate(-90, 64.05, 48.71)">Mar</text>
    <text x="67.96" y="48.71" text-anchor="end" dy="0.35em" transform="rotate(-90, 67.96, 48.71)">Apr</text>
    <text x="71.75" y="48.71" text-anchor="end" dy="0.35em" transform="rotate(-90, 71.75, 48.71)">May</text>
    <text x="75.66" y="48.71" text-anchor="end" dy="0.35em" transform="rotate(-90, 75.66, 48.71)">Jun</text>
    <text x="79.45" y="48.71" text-anchor="end" dy="0.35em" transform="rotate(-90, 79.45, 48.71)">Jul</text>
    <text x="83.36" y="48.71" text-anchor="end" dy="0.35em" transform="rotate(-90, 83.36, 48.71)">Aug</text>
    <text x="87.28" y="48.71" text-anchor="end" dy="0.35em" transform="rotate(-90, 87.28, 48.71)">Sep</text>
    <text x="91.07" y="48.71" text-anchor="end" dy="0.35em" transform="rotate(-90, 91.07, 48.71)">Oct</text>
  </g>
  <g clip-path="url(#fig-0dd738bd68ec4a3990fc968d95b01835-element-5)" id="fig-0dd738bd68ec4a3990fc968d95b01835-element-4">
    <g pointer-events="visible" opacity="1" fill="#000000" fill-opacity="0.000" stroke="#000000" stroke-opacity="0.000" class="guide background" id="fig-0dd738bd68ec4a3990fc968d95b01835-element-6">
      <rect x="19.63" y="12.61" width="76.97" height="35.1"/>
    </g>
    <g class="guide ygridlines xfixed" stroke-dasharray="0.5,0.5" stroke-width="0.2" stroke="#D0D0E0" id="fig-0dd738bd68ec4a3990fc968d95b01835-element-7">
      <path fill="none" d="M19.63,45.71 L 96.6 45.71"/>
      <path fill="none" d="M19.63,39.49 L 96.6 39.49"/>
      <path fill="none" d="M19.63,33.27 L 96.6 33.27"/>
      <path fill="none" d="M19.63,27.05 L 96.6 27.05"/>
      <path fill="none" d="M19.63,20.83 L 96.6 20.83"/>
      <path fill="none" d="M19.63,14.61 L 96.6 14.61"/>
    </g>
    <g class="guide xgridlines yfixed" stroke-dasharray="0.5,0.5" stroke-width="0.2" stroke="#D0D0E0" id="fig-0dd738bd68ec4a3990fc968d95b01835-element-8">
      <path fill="none" d="M21.88,12.61 L 21.88 47.71"/>
      <path fill="none" d="M25.67,12.61 L 25.67 47.71"/>
      <path fill="none" d="M29.58,12.61 L 29.58 47.71"/>
      <path fill="none" d="M33.37,12.61 L 33.37 47.71"/>
      <path fill="none" d="M37.29,12.61 L 37.29 47.71"/>
      <path fill="none" d="M41.2,12.61 L 41.2 47.71"/>
      <path fill="none" d="M44.99,12.61 L 44.99 47.71"/>
      <path fill="none" d="M48.9,12.61 L 48.9 47.71"/>
      <path fill="none" d="M52.69,12.61 L 52.69 47.71"/>
      <path fill="none" d="M56.6,12.61 L 56.6 47.71"/>
      <path fill="none" d="M60.51,12.61 L 60.51 47.71"/>
      <path fill="none" d="M64.05,12.61 L 64.05 47.71"/>
      <path fill="none" d="M67.96,12.61 L 67.96 47.71"/>
      <path fill="none" d="M71.75,12.61 L 71.75 47.71"/>
      <path fill="none" d="M75.66,12.61 L 75.66 47.71"/>
      <path fill="none" d="M79.45,12.61 L 79.45 47.71"/>
      <path fill="none" d="M83.36,12.61 L 83.36 47.71"/>
      <path fill="none" d="M87.28,12.61 L 87.28 47.71"/>
      <path fill="none" d="M91.07,12.61 L 91.07 47.71"/>
    </g>
    <g class="plotpanel" id="fig-0dd738bd68ec4a3990fc968d95b01835-element-9">
      <g stroke-width="0.3" fill="#000000" fill-opacity="0.000" class="geometry color_newnot_possible" stroke-dasharray="none" stroke="#808080" id="fig-0dd738bd68ec4a3990fc968d95b01835-element-10">
        <path fill="none" d="M78.06,42.41 L 78.19 42.41 78.31 42.41 78.44 42.41 78.57 42.41 78.69 42.41 78.82 42.41 78.95 42.41 79.32 42.41 79.58 42.41 79.83 42.47 79.96 42.41 80.08 42.41 80.21 42.41 80.33 42.41 80.46 42.41 82.61 42.35 83.62 42.35 84.75 42.35 86.9 42.35 87.28 42.35 87.91 42.16 88.54 41.98 90.56 41.98 91.07 41.98 91.7 41.98 92.2 41.98 92.71 41.98 93.09 41.91 94.6 41.91"/>
      </g>
      <g stroke-width="0.3" fill="#000000" fill-opacity="0.000" class="geometry color_newno_tests" stroke-dasharray="none" stroke="#0000FF" id="fig-0dd738bd68ec4a3990fc968d95b01835-element-11">
        <path fill="none" d="M78.06,39.05 L 78.19 39.05 78.31 39.05 78.44 39.05 78.57 39.05 78.69 39.05 78.82 39.05 78.95 39.05 79.32 39.05 79.58 39.05 79.83 39.05 79.96 39.05 80.08 39.12 80.21 39.12 80.33 39.12 80.46 39.18 82.61 39.12 83.62 39.12 84.75 39.12 86.9 39.12 87.28 39.18 87.91 39.18 88.54 39.24 90.56 39.43 91.07 39.61 91.7 39.74 92.2 39.74 92.71 39.74 93.09 39.8 94.6 39.86"/>
      </g>
      <g stroke-width="0.3" fill="#000000" fill-opacity="0.000" class="geometry color_newtests_fail" stroke-dasharray="none" stroke="#FF0000" id="fig-0dd738bd68ec4a3990fc968d95b01835-element-12">
        <path fill="none" d="M78.06,42.23 L 78.19 42.04 78.31 41.98 78.44 41.91 78.57 41.79 78.69 41.98 78.82 41.73 78.95 41.91 79.32 41.79 79.58 41.73 79.83 41.67 79.96 41.85 80.08 39.86 80.21 41.73 80.33 41.35 80.46 41.42 82.61 41.67 83.62 41.73 84.75 41.23 86.9 40.17 87.28 40.48 87.91 40.86 88.54 41.17 90.56 41.11 91.07 40.8 91.7 41.04 92.2 41.11 92.71 40.92 93.09 40.92 94.6 40.8"/>
      </g>
      <g stroke-width="0.3" fill="#000000" fill-opacity="0.000" class="geometry color_newtests_pass" stroke-dasharray="none" stroke="#008000" id="fig-0dd738bd68ec4a3990fc968d95b01835-element-13">
        <path fill="none" d="M78.06,22.14 L 78.19 22.32 78.31 22.26 78.44 22.32 78.57 22.32 78.69 22.14 78.82 22.39 78.95 22.14 79.32 22.26 79.58 22.2 79.83 22.26 79.96 22.01 80.08 23.69 80.21 21.7 80.33 22.01 80.46 21.89 82.61 20.89 83.62 20.52 84.75 20.71 86.9 20.89 87.28 20.4 87.91 20.15 88.54 19.84 90.56 19.09 91.07 18.9 91.7 18.28 92.2 18.16 92.71 18.22 93.09 18.09 94.6 18.09"/>
      </g>
      <g stroke-width="0.3" fill="#000000" fill-opacity="0.000" class="geometry color_newnot_possible" stroke-dasharray="none" stroke="#808080" id="fig-0dd738bd68ec4a3990fc968d95b01835-element-14">
        <path fill="none" d="M21.63,43.72 L 21.76 43.72 21.88 43.72 22.01 43.72 22.14 43.72 22.26 43.72 22.39 43.72 22.52 43.72 22.77 43.72 22.89 43.72 23.15 43.72 23.4 43.72 23.53 43.72 23.78 43.72 23.9 43.72 24.79 43.72 25.17 43.72 25.42 43.72 26.3 43.78 26.43 43.78 26.56 43.78 26.68 43.78 26.81 43.78 26.93 43.72 27.06 43.72 27.19 43.72 27.31 43.72 27.44 43.59 27.57 43.59 27.69 43.59 27.94 43.53 28.07 43.97 28.2 43.97 28.32 43.97 28.45 43.97 28.58 43.97 28.7 43.97 28.83 43.97 28.95 43.97 29.08 43.97 29.21 43.97 29.33 43.97 29.46 43.97 29.58 43.97 29.71 43.97 29.84 43.97 29.96 43.97 30.72 43.66 30.85 43.59 30.97 43.59 31.1 43.59 31.23 43.59 31.35 43.53 31.48 43.41 31.6 43.41 31.73 43.41 31.86 43.41 32.11 43.41 32.24 43.41 32.36 43.41 32.49 43.41 32.61 43.41 32.74 43.41 32.87 43.41 32.99 43.41 33.25 43.41 33.37 43.41 33.5 43.41 33.62 43.41 33.75 43.41 33.88 43.41 34.13 43.41 34.26 43.41 34.38 43.41 34.51 43.41 34.76 43.41 35.01 43.41 35.14 43.41 35.27 43.41 35.39 43.41 35.77 43.41 35.9 43.41 36.02 43.41 36.15 43.41 36.28 43.41 36.4 43.41 36.53 43.34 36.65 43.34 36.91 43.34 37.03 43.34 37.29 43.34 37.41 43.34 37.54 43.34 37.66 43.34 37.92 43.34 38.04 43.34 38.17 43.34 38.3 43.34 38.42 43.34 38.55 43.34 38.67 43.34 38.8 43.34 38.93 43.28 39.05 43.22 39.18 43.22 39.31 43.22 39.43 43.22 39.68 43.22 39.81 43.22 39.94 43.22 40.06 43.22 40.19 43.22 40.32 43.22 40.44 43.22 40.57 43.22 40.82 43.22 40.95 43.16 41.2 43.16 41.33 43.16 41.45 43.1 41.96 43.1 42.34 43.1 42.46 43.1 42.59 43.1 42.71 43.1 42.84 43.1 42.97 43.1 43.09 43.1 43.22 43.1 43.35 43.1 43.6 43.03 43.72 43.03 43.85 43.03 43.98 43.03 44.1 43.03 44.23 43.03 44.36 42.97 44.61 42.97 44.73 42.97 44.86 42.97 44.99 42.97 45.11 42.79 45.24 42.91 45.37 42.91 45.49 42.91 45.87 42.91 46 42.85 46.12 42.85 46.25 42.85 46.38 42.85 46.5 42.85 46.63 42.85 46.75 42.85 46.88 42.85 47.01 42.85 47.13 42.79 47.26 42.79 47.39 42.79 47.51 42.79 47.64 42.79 47.76 42.79 47.89 42.79 48.02 42.79 48.14 42.79 48.27 42.79 48.4 42.79 48.52 42.79 48.65 42.79 48.77 42.79 48.9 42.79 49.03 42.79 49.15 42.79 49.28 42.79 49.41 42.79 49.53 42.79 49.91 42.79 50.54 42.79 50.67 42.79 50.79 42.79 50.92 42.79 51.05 42.79 51.17 42.79 51.3 42.79 51.8 42.79 51.93 42.79 52.56 42.79 52.81 42.79 52.94 42.85 53.07 42.85 53.19 42.85 53.32 42.85 53.44 42.85 53.57 42.85 53.95 42.85 54.08 42.85 54.33 42.85 54.45 42.85 54.58 42.85 54.96 42.85 55.21 42.85 55.59 42.85 56.1 42.85 56.35 42.85 56.73 42.85 57.61 42.85 58.12 42.85 58.24 42.72 58.37 42.72 58.49 42.66 58.62 42.66 58.75 42.66 59 42.66 59.13 42.66 59.25 42.66 59.38 42.66 59.5 42.66 59.63 42.66 59.76 42.66 60.01 42.6 60.14 42.6 60.26 42.6 60.77 42.6 60.89 42.6 61.02 42.6 61.27 42.6 61.52 42.6 61.65 42.6 62.03 42.6 62.66 42.6 63.29 42.6 63.92 42.6 64.05 42.6 64.18 42.6 64.3 42.16 64.43 42.23 64.68 42.16 64.93 42.16 65.44 42.16 65.56 42.16 65.69 42.16 65.82 42.16 65.94 42.16 66.07 42.23 66.2 42.16 67.71 42.1 67.96 42.04 68.09 42.04 68.34 42.04 68.85 42.04 69.1 42.04 69.35 42.04 69.86 42.04 70.11 42.04 70.24 42.04 70.49 42.04 70.61 42.04 70.74 42.04 70.87 42.04 70.99 42.04 71.12 42.04 71.37 42.04 71.5 42.04 71.75 42.04 72 42.04 72.13 42.04 72.26 42.04 72.51 42.04 72.63 42.04 73.26 42.04 73.77 42.1 73.9 42.04 74.91 42.04 75.03 41.91 75.16 41.91 75.54 41.91 75.66 41.91 75.79 41.98 76.04 41.98 76.29 41.98 76.55 41.98 77.68 41.98"/>
      </g>
      <g stroke-width="0.3" fill="#000000" fill-opacity="0.000" class="geometry color_newtests_fail" stroke-dasharray="none" stroke="#FF0000" id="fig-0dd738bd68ec4a3990fc968d95b01835-element-15">
        <path fill="none" d="M21.63,43.22 L 21.76 43.22 21.88 42.29 22.01 43.28 22.14 43.22 22.26 42.23 22.39 42.23 22.52 42.23 22.77 43.22 22.89 43.22 23.15 43.28 23.4 43.28 23.53 43.28 23.78 43.34 23.9 43.34 24.79 43.41 25.17 43.41 25.42 43.41 26.3 43.34 26.43 43.41 26.56 43.28 26.68 43.28 26.81 43.34 26.93 43.41 27.06 43.34 27.19 43.34 27.31 43.34 27.44 43.41 27.57 43.41 27.69 43.28 27.94 43.34 28.07 43.22 28.2 43.34 28.32 43.47 28.45 43.47 28.58 43.53 28.7 43.53 28.83 43.47 28.95 43.53 29.08 43.53 29.21 43.53 29.33 43.59 29.46 43.59 29.58 44.09 29.71 43.84 29.84 43.84 29.96 43.84 30.72 44.22 30.85 44.28 30.97 44.28 31.1 44.28 31.23 44.22 31.35 44.28 31.48 44.28 31.6 44.28 31.73 44.22 31.86 43.03 32.11 44.22 32.24 44.28 32.36 44.28 32.49 44.28 32.61 44.28 32.74 44.28 32.87 44.28 32.99 44.28 33.25 44.28 33.37 44.28 33.5 44.22 33.62 44.22 33.75 44.22 33.88 44.22 34.13 44.22 34.26 44.09 34.38 44.09 34.51 44.09 34.76 43.97 35.01 42.72 35.14 42.66 35.27 43.97 35.39 43.9 35.77 44.03 35.9 44.03 36.02 44.03 36.15 44.03 36.28 44.09 36.4 44.15 36.53 44.15 36.65 44.15 36.91 44.15 37.03 44.22 37.29 44.15 37.41 44.22 37.54 44.22 37.66 44.22 37.92 44.22 38.04 44.22 38.17 44.09 38.3 44.15 38.42 44.15 38.55 44.09 38.67 44.09 38.8 43.97 38.93 44.03 39.05 44.15 39.18 42.41 39.31 42.79 39.43 42.79 39.68 44.22 39.81 44.28 39.94 44.22 40.06 44.28 40.19 44.22 40.32 44.22 40.44 44.34 40.57 44.15 40.82 44.4 40.95 44.46 41.2 44.34 41.33 44.34 41.45 44.4 41.96 44.4 42.34 44.71 42.46 44.71 42.59 44.71 42.71 44.78 42.84 44.84 42.97 44.84 43.09 44.84 43.22 44.84 43.35 44.84 43.6 44.71 43.72 44.71 43.85 44.65 43.98 44.71 44.1 44.65 44.23 44.53 44.36 44.59 44.61 44.65 44.73 44.71 44.86 44.71 44.99 44.65 45.11 44.59 45.24 44.65 45.37 44.71 45.49 44.71 45.87 44.71 46 44.71 46.12 44.71 46.25 44.78 46.38 44.78 46.5 44.78 46.63 44.78 46.75 44.78 46.88 44.65 47.01 44.59 47.13 44.59 47.26 44.46 47.39 44.59 47.51 44.59 47.64 44.59 47.76 44.59 47.89 44.59 48.02 44.53 48.14 44.59 48.27 44.53 48.4 44.59 48.52 44.53 48.65 44.59 48.77 44.59 48.9 44.59 49.03 44.65 49.15 44.65 49.28 44.71 49.41 44.71 49.53 44.53 49.91 44.78 50.54 44.71 50.67 44.71 50.79 44.71 50.92 44.78 51.05 44.84 51.17 44.71 51.3 44.71 51.8 44.65 51.93 44.71 52.56 44.71 52.81 44.71 52.94 44.34 53.07 44.53 53.19 44.71 53.32 44.71 53.44 44.71 53.57 44.65 53.95 44.59 54.08 44.59 54.33 44.53 54.45 44.59 54.58 44.59 54.96 44.59 55.21 44.65 55.59 44.65 56.1 44.65 56.35 44.65 56.73 44.65 57.61 44.59 58.12 44.46 58.24 44.59 58.37 44.59 58.49 44.34 58.62 44.34 58.75 44.4 59 44.4 59.13 44.34 59.25 44.34 59.38 44.28 59.5 44.34 59.63 44.34 59.76 44.34 60.01 44.34 60.14 44.34 60.26 44.34 60.77 44.15 60.89 44.15 61.02 44.15 61.27 44.09 61.52 44.03 61.65 44.03 62.03 44.03 62.66 44.03 63.29 44.09 63.92 42.29 64.05 42.91 64.18 43.34 64.3 44.09 64.43 44.09 64.68 44.09 64.93 44.09 65.44 44.09 65.56 44.03 65.69 44.03 65.82 44.03 65.94 44.03 66.07 44.03 66.2 43.97 67.71 43.9 67.96 43.97 68.09 44.09 68.34 44.09 68.85 43.97 69.1 44.09 69.35 44.03 69.86 44.03 70.11 44.03 70.24 43.97 70.49 43.84 70.61 43.84 70.74 43.84 70.87 43.9 70.99 43.78 71.12 43.78 71.37 43.78 71.5 43.84 71.75 43.78 72 43.78 72.13 43.66 72.26 43.66 72.51 43.72 72.63 43.66 73.26 43.59 73.77 43.47 73.9 43.47 74.91 43.22 75.03 43.22 75.16 43.22 75.54 43.22 75.66 43.22 75.79 43.28 76.04 43.34 76.29 43.28 76.55 43.28 77.68 43.41"/>
      </g>
      <g stroke-width="0.3" fill="#000000" fill-opacity="0.000" class="geometry color_newno_tests" stroke-dasharray="none" stroke="#0000FF" id="fig-0dd738bd68ec4a3990fc968d95b01835-element-16">
        <path fill="none" d="M21.63,42.35 L 21.76 42.35 21.88 42.35 22.01 42.35 22.14 42.35 22.26 42.41 22.39 42.41 22.52 42.35 22.77 42.29 22.89 42.29 23.15 42.29 23.4 42.16 23.53 42.16 23.78 42.16 23.9 42.16 24.79 42.16 25.17 42.16 25.42 42.16 26.3 42.1 26.43 42.1 26.56 42.1 26.68 42.1 26.81 42.1 26.93 42.1 27.06 42.1 27.19 42.1 27.31 42.1 27.44 42.23 27.57 42.23 27.69 42.23 27.94 42.29 28.07 42.29 28.2 42.29 28.32 42.23 28.45 42.23 28.58 42.35 28.7 42.41 28.83 42.41 28.95 42.41 29.08 42.41 29.21 42.41 29.33 42.41 29.46 42.41 29.58 42.16 29.71 42.23 29.84 42.23 29.96 42.23 30.72 42.23 30.85 42.23 30.97 42.23 31.1 42.29 31.23 42.29 31.35 42.29 31.48 42.29 31.6 42.35 31.73 42.35 31.86 42.54 32.11 42.47 32.24 42.35 32.36 42.35 32.49 42.35 32.61 42.35 32.74 42.35 32.87 42.35 32.99 42.35 33.25 42.41 33.37 42.35 33.5 42.35 33.62 42.35 33.75 42.47 33.88 42.47 34.13 42.47 34.26 42.47 34.38 42.47 34.51 42.47 34.76 42.35 35.01 42.54 35.14 42.47 35.27 42.41 35.39 42.41 35.77 42.41 35.9 42.41 36.02 42.41 36.15 42.41 36.28 42.47 36.4 42.47 36.53 42.47 36.65 42.54 36.91 42.54 37.03 42.54 37.29 42.54 37.41 42.54 37.54 42.54 37.66 42.54 37.92 42.41 38.04 42.47 38.17 42.47 38.3 42.41 38.42 42.41 38.55 42.41 38.67 42.41 38.8 42.41 38.93 42.41 39.05 42.41 39.18 42.79 39.31 42.79 39.43 42.79 39.68 42.35 39.81 42.35 39.94 42.41 40.06 42.41 40.19 42.47 40.32 42.41 40.44 42.41 40.57 42.47 40.82 42.85 40.95 42.91 41.2 42.91 41.33 42.91 41.45 42.91 41.96 42.91 42.34 42.85 42.46 42.85 42.59 42.79 42.71 42.79 42.84 42.79 42.97 42.85 43.09 42.85 43.22 42.91 43.35 42.91 43.6 42.91 43.72 42.85 43.85 42.85 43.98 42.85 44.1 42.85 44.23 42.91 44.36 42.91 44.61 42.85 44.73 42.85 44.86 42.85 44.99 42.85 45.11 42.6 45.24 42.85 45.37 42.85 45.49 42.85 45.87 42.91 46 42.91 46.12 42.85 46.25 42.85 46.38 42.85 46.5 42.85 46.63 42.85 46.75 42.85 46.88 42.85 47.01 42.85 47.13 42.85 47.26 42.91 47.39 42.85 47.51 42.85 47.64 42.85 47.76 42.85 47.89 42.85 48.02 42.91 48.14 42.85 48.27 42.91 48.4 42.85 48.52 42.85 48.65 42.85 48.77 42.85 48.9 42.85 49.03 42.85 49.15 42.85 49.28 42.85 49.41 42.85 49.53 42.85 49.91 42.85 50.54 42.85 50.67 42.85 50.79 42.85 50.92 42.85 51.05 42.85 51.17 42.85 51.3 42.85 51.8 42.91 51.93 42.85 52.56 42.85 52.81 42.85 52.94 42.85 53.07 42.91 53.19 42.85 53.32 42.85 53.44 42.85 53.57 42.91 53.95 42.85 54.08 42.85 54.33 42.85 54.45 42.79 54.58 42.79 54.96 42.85 55.21 42.79 55.59 42.79 56.1 42.85 56.35 42.79 56.73 42.79 57.61 42.79 58.12 42.79 58.24 42.79 58.37 42.79 58.49 42.85 58.62 42.79 58.75 42.79 59 42.79 59.13 42.85 59.25 42.85 59.38 42.85 59.5 42.79 59.63 42.79 59.76 42.79 60.01 42.79 60.14 42.79 60.26 42.79 60.77 42.79 60.89 42.79 61.02 42.79 61.27 42.79 61.52 42.79 61.65 42.79 62.03 42.79 62.66 42.79 63.29 42.79 63.92 42.97 64.05 42.91 64.18 42.91 64.3 42.91 64.43 42.85 64.68 42.85 64.93 42.85 65.44 42.85 65.56 42.85 65.69 42.91 65.82 42.91 65.94 42.91 66.07 42.91 66.2 42.91 67.71 42.97 67.96 42.97 68.09 42.97 68.34 43.03 68.85 43.03 69.1 43.03 69.35 43.03 69.86 43.03 70.11 43.03 70.24 43.03 70.49 43.03 70.61 43.03 70.74 43.03 70.87 43.03 70.99 43.03 71.12 43.03 71.37 43.03 71.5 43.03 71.75 43.1 72 43.03 72.13 43.03 72.26 43.03 72.51 43.1 72.63 43.03 73.26 43.1 73.77 43.1 73.9 43.1 74.91 43.1 75.03 43.1 75.16 43.1 75.54 43.16 75.66 43.16 75.79 43.1 76.04 43.1 76.29 43.1 76.55 43.16 77.68 43.1"/>
      </g>
      <g stroke-width="0.3" fill="#000000" fill-opacity="0.000" class="geometry color_oldfull_fail" stroke-dasharray="none" stroke="#FFA500" id="fig-0dd738bd68ec4a3990fc968d95b01835-element-17">
        <path fill="none" d="M21.63,43.16 L 21.76 43.16 21.88 43.59 22.01 42.91 22.14 42.97 22.26 43.47 22.39 43.34 22.52 43.47 22.77 42.6 22.89 42.6 23.15 42.54 23.4 42.79 23.53 42.66 23.78 42.85 23.9 42.79 24.79 42.91 25.17 42.91 25.42 42.91 26.3 42.85 26.43 42.72 26.56 42.1 26.68 42.1 26.81 42.41 26.93 42.41 27.06 42.6 27.19 42.6 27.31 42.6 27.44 42.85 27.57 42.85 27.69 43.16 27.94 43.16 28.07 43.1 28.2 42.97 28.32 43.03 28.45 43.03 28.58 43.16 28.7 43.16 28.83 43.16 28.95 43.03 29.08 43.28 29.21 43.22 29.33 43.16 29.46 43.03 29.58 45.71 29.71 43.28 29.84 42.97 29.96 43.1 30.72 42.97 30.85 43.22 30.97 43.47 31.1 43.47 31.23 43.41 31.35 43.66 31.48 43.59 31.6 43.59 31.73 43.66 31.86 43.84 32.11 43.53 32.24 43.59 32.36 43.72 32.49 43.59 32.61 43.72 32.74 43.72 32.87 43.47 32.99 43.53 33.25 43.78 33.37 43.78 33.5 43.78 33.62 43.72 33.75 43.66 33.88 43.78 34.13 43.78 34.26 43.84 34.38 43.9 34.51 43.9 34.76 43.78 35.01 43.34 35.14 43.66 35.27 43.59 35.39 43.59 35.77 43.59 35.9 43.59 36.02 43.41 36.15 43.53 36.28 43.47 36.4 43.47 36.53 43.59 36.65 43.53 36.91 43.59 37.03 43.66 37.29 43.66 37.41 43.66 37.54 43.66 37.66 43.66 37.92 43.66 38.04 43.66 38.17 43.66 38.3 43.59 38.42 43.59 38.55 43.53 38.67 43.66 38.8 43.53 38.93 43.47 39.05 43.47 39.18 43.34 39.31 43.28 39.43 43.34 39.68 43.22 39.81 43.28 39.94 43.47 40.06 43.28 40.19 43.28 40.32 43.34 40.44 43.16 40.57 43.22 40.82 43.53 40.95 43.47 41.2 43.47 41.33 43.47 41.45 43.47 41.96 43.47 42.34 43.41 42.46 43.34 42.59 43.41 42.71 43.28 42.84 43.28 42.97 43.47 43.09 43.16 43.22 43.1 43.35 43.1 43.6 43.16 43.72 43.28 43.85 43.22 43.98 43.28 44.1 43.28 44.23 43.16 44.36 43.28 44.61 43.41 44.73 43.41 44.86 43.41 44.99 43.41 45.11 43.22 45.24 43.47 45.37 43.47 45.49 43.47 45.87 43.1 46 43.28 46.12 43.28 46.25 43.41 46.38 43.28 46.5 43.41 46.63 43.41 46.75 43.34 46.88 43.34 47.01 43.28 47.13 43.47 47.26 43.41 47.39 43.34 47.51 43.41 47.64 43.41 47.76 43.34 47.89 43.47 48.02 43.28 48.14 43.28 48.27 43.41 48.4 43.34 48.52 43.28 48.65 43.28 48.77 43.28 48.9 43.22 49.03 43.28 49.15 43.41 49.28 43.22 49.41 43.28 49.53 43.28 49.91 43.16 50.54 43.16 50.67 43.03 50.79 43.03 50.92 42.91 51.05 42.97 51.17 43.16 51.3 43.16 51.8 43.1 51.93 43.1 52.56 42.97 52.81 42.97 52.94 42.72 53.07 42.85 53.19 42.91 53.32 43.03 53.44 43.03 53.57 42.91 53.95 42.79 54.08 42.79 54.33 42.72 54.45 42.54 54.58 42.85 54.96 42.79 55.21 42.91 55.59 42.85 56.1 42.72 56.35 42.85 56.73 42.6 57.61 42.47 58.12 42.54 58.24 42.54 58.37 42.54 58.49 42.23 58.62 42.1 58.75 42.04 59 42.16 59.13 42.16 59.25 42.16 59.38 42.1 59.5 41.91 59.63 42.23 59.76 42.23 60.01 42.23 60.14 42.23 60.26 42.29 60.77 42.1 60.89 42.23 61.02 42.04 61.27 42.47 61.52 42.47 61.65 42.41 62.03 42.29 62.66 42.29 63.29 42.35 63.92 41.85 64.05 41.6 64.18 41.67 64.3 41.6 64.43 41.91 64.68 41.85 64.93 41.91 65.44 41.67 65.56 41.73 65.69 41.91 65.82 41.79 65.94 41.85 66.07 41.73 66.2 41.91 67.71 41.85 67.96 41.91 68.09 41.73 68.34 41.91 68.85 42.04 69.1 41.98 69.35 41.67 69.86 41.85 70.11 41.73 70.24 42.23 70.49 42.35 70.61 42.16 70.74 42.23 70.87 42.1 70.99 42.16 71.12 42.41 71.37 42.23 71.5 42.16 71.75 42.35 72 42.29 72.13 42.16 72.26 42.29 72.51 42.16 72.63 42.1 73.26 41.91 73.77 42.1 73.9 42.1 74.91 42.16 75.03 42.23 75.16 42.16 75.54 42.41 75.66 42.41 75.79 42.35 76.04 42.04 76.29 42.16 76.55 42.1 77.68 42.23"/>
      </g>
      <g stroke-width="0.3" fill="#000000" fill-opacity="0.000" class="geometry color_newtests_pass" stroke-dasharray="none" stroke="#008000" id="fig-0dd738bd68ec4a3990fc968d95b01835-element-18">
        <path fill="none" d="M21.63,37.69 L 21.76 37.69 21.88 38.12 22.01 37.81 22.14 37.81 22.26 38.25 22.39 38.37 22.52 38.25 22.77 38.18 22.89 38.12 23.15 38.06 23.4 37.81 23.53 37.93 23.78 37.69 23.9 37.69 24.79 37.25 25.17 37.25 25.42 37.25 26.3 37.31 26.43 37.25 26.56 37.93 26.68 37.93 26.81 37.56 26.93 37.56 27.06 37.44 27.19 37.44 27.31 37.44 27.44 37.13 27.57 37.13 27.69 36.75 27.94 36.63 28.07 36.38 28.2 36.38 28.32 36.13 28.45 36.13 28.58 35.82 28.7 35.7 28.83 35.76 28.95 35.82 29.08 35.57 29.21 35.63 29.33 35.57 29.46 35.7 29.58 35.26 29.71 35.32 29.84 35.57 29.96 35.38 30.72 35.07 30.85 34.76 30.97 34.45 31.1 34.33 31.23 34.33 31.35 34.08 31.48 34.14 31.6 34.08 31.73 34.02 31.86 34.76 32.11 33.95 32.24 33.83 32.36 33.71 32.49 33.83 32.61 33.71 32.74 33.71 32.87 33.77 32.99 33.71 33.25 33.33 33.37 33.27 33.5 33.27 33.62 33.27 33.75 33.21 33.88 32.96 34.13 32.9 34.26 32.77 34.38 32.71 34.51 32.71 34.76 32.77 35.01 34.08 35.14 33.89 35.27 32.65 35.39 32.71 35.77 32.52 35.9 32.52 36.02 32.65 36.15 32.52 36.28 32.46 36.4 32.34 36.53 32.21 36.65 32.15 36.91 32.09 37.03 31.96 37.29 32.03 37.41 31.9 37.54 31.71 37.66 31.71 37.92 31.78 38.04 31.71 38.17 31.71 38.3 31.71 38.42 31.65 38.55 31.71 38.67 31.53 38.8 31.65 38.93 31.71 39.05 31.59 39.18 33.02 39.31 32.71 39.43 32.65 39.68 31.59 39.81 31.47 39.94 31.22 40.06 31.34 40.19 31.34 40.32 31.16 40.44 31.16 40.57 31.16 40.82 30.97 40.95 30.78 41.2 30.78 41.33 30.78 41.45 30.78 41.96 30.78 42.34 30.22 42.46 30.22 42.59 30.16 42.71 30.1 42.84 30.04 42.97 29.79 43.09 29.6 43.22 29.6 43.35 29.6 43.6 29.72 43.72 29.6 43.85 29.66 43.98 29.54 44.1 29.6 44.23 29.72 44.36 29.6 44.61 29.54 44.73 29.41 44.86 29.41 44.99 29.35 45.11 28.79 45.24 29.23 45.37 29.16 45.49 29.04 45.87 29.23 46 29.1 46.12 29.04 46.25 28.79 46.38 28.92 46.5 28.79 46.63 28.67 46.75 28.73 46.88 28.79 47.01 28.85 47.13 28.73 47.26 28.85 47.39 28.85 47.51 28.73 47.64 28.61 47.76 28.67 47.89 28.54 48.02 28.67 48.14 28.67 48.27 28.48 48.4 28.54 48.52 28.54 48.65 28.42 48.77 28.42 48.9 28.42 49.03 28.29 49.15 28.17 49.28 28.23 49.41 28.17 49.53 28.29 49.91 28.17 50.54 27.92 50.67 27.92 50.79 27.92 50.92 27.92 51.05 27.8 51.17 27.55 51.3 27.55 51.8 27.3 51.93 27.3 52.56 27.36 52.81 27.36 52.94 27.86 53.07 27.42 53.19 27.24 53.32 27.11 53.44 26.99 53.57 27.05 53.95 27.17 54.08 27.11 54.33 27.05 54.45 27.17 54.58 26.86 54.96 26.86 55.21 26.61 55.59 26.55 56.1 26.49 56.35 26.24 56.73 26.24 57.61 26.06 58.12 25.68 58.24 25.56 58.37 25.56 58.49 25.81 58.62 25.99 58.75 25.99 59 25.87 59.13 25.74 59.25 25.74 59.38 25.68 59.5 25.81 59.63 25.5 59.76 25.5 60.01 25.37 60.14 25.25 60.26 25.12 60.77 25 60.89 25 61.02 25.18 61.27 24.62 61.52 24.5 61.65 24.56 62.03 24.56 62.66 24.56 63.29 24.07 63.92 25.93 64.05 25.62 64.18 25.12 64.3 24.75 64.43 24.44 64.68 24.56 64.93 24.5 65.44 24.62 65.56 24.5 65.69 24.19 65.82 24.31 65.94 24.13 66.07 24.25 66.2 24.07 67.71 24.13 67.96 24.07 68.09 23.94 68.34 23.69 68.85 23.63 69.1 23.57 69.35 23.75 69.86 23.57 70.11 23.57 70.24 23.07 70.49 22.76 70.61 22.95 70.74 22.82 70.87 22.7 70.99 22.76 71.12 22.45 71.37 22.57 71.5 22.51 71.75 22.32 72 22.32 72.13 22.39 72.26 22.2 72.51 22.07 72.63 22.2 73.26 22.14 73.77 21.89 73.9 21.83 74.91 21.76 75.03 21.83 75.16 21.89 75.54 21.39 75.66 21.33 75.79 21.27 76.04 21.39 76.29 21.33 76.55 21.27 77.68 20.77"/>
      </g>
    </g>
  </g>
  <g class="guide ylabels" font-size="2.82" font-family="'PT Sans Caption','Helvetica Neue','Helvetica',sans-serif" fill="#6C606B" id="fig-0dd738bd68ec4a3990fc968d95b01835-element-19">
    <text x="18.63" y="45.71" text-anchor="end" dy="0.35em">0</text>
    <text x="18.63" y="39.49" text-anchor="end" dy="0.35em">100</text>
    <text x="18.63" y="33.27" text-anchor="end" dy="0.35em">200</text>
    <text x="18.63" y="27.05" text-anchor="end" dy="0.35em">300</text>
    <text x="18.63" y="20.83" text-anchor="end" dy="0.35em">400</text>
    <text x="18.63" y="14.61" text-anchor="end" dy="0.35em">500</text>
  </g>
  <g font-size="3.88" font-family="'PT Sans','Helvetica Neue','Helvetica',sans-serif" fill="#564A55" stroke="#000000" stroke-opacity="0.000" id="fig-0dd738bd68ec4a3990fc968d95b01835-element-20">
    <text x="8.81" y="28.16" text-anchor="middle" dy="0.35em" transform="rotate(-90, 8.81, 30.16)">Number of Packages</text>
  </g>
  <g font-size="3.88" font-family="'PT Sans','Helvetica Neue','Helvetica',sans-serif" fill="#564A55" stroke="#000000" stroke-opacity="0.000" id="fig-0dd738bd68ec4a3990fc968d95b01835-element-21">
    <text x="58.12" y="10.61" text-anchor="middle">Julia v0.3</text>
  </g>
</g>
<defs>
<clipPath id="fig-0dd738bd68ec4a3990fc968d95b01835-element-5">
  <path d="M19.63,12.61 L 96.6 12.61 96.6 47.71 19.63 47.71" />
</clipPath
></defs>
</svg>
