<?xml version="1.0" encoding="UTF-8"?>
<svg xmlns="http://www.w3.org/2000/svg"
     xmlns:xlink="http://www.w3.org/1999/xlink"
     xmlns:gadfly="http://www.gadflyjl.org/ns"
     version="1.2"
     width="101.6mm" height="76.2mm" viewBox="0 0 101.6 76.2"
     stroke="none"
     fill="#000000"
     stroke-width="0.3"
     font-size="3.88"
>
<g class="plotroot xscalable yscalable" id="img-82b13398-1">
  <g font-size="3.88" font-family="'PT Sans','Helvetica Neue','Helvetica',sans-serif" fill="#564A55" stroke="#000000" stroke-opacity="0.000" id="img-82b13398-2">
    <text x="58.12" y="64.59" text-anchor="middle" dy="0.6em">Date</text>
  </g>
  <g class="guide xlabels" font-size="2.82" font-family="'PT Sans Caption','Helvetica Neue','Helvetica',sans-serif" fill="#6C606B" id="img-82b13398-3">
    <text x="21.87" y="48.71" text-anchor="end" dy="0.35em" transform="rotate(-90, 21.87, 48.71)">Apr</text>
    <text x="25.44" y="48.71" text-anchor="end" dy="0.35em" transform="rotate(-90, 25.44, 48.71)">May</text>
    <text x="29.13" y="48.71" text-anchor="end" dy="0.35em" transform="rotate(-90, 29.13, 48.71)">Jun</text>
    <text x="32.7" y="48.71" text-anchor="end" dy="0.35em" transform="rotate(-90, 32.7, 48.71)">Jul</text>
    <text x="36.39" y="48.71" text-anchor="end" dy="0.35em" transform="rotate(-90, 36.39, 48.71)">Aug</text>
    <text x="40.08" y="48.71" text-anchor="end" dy="0.35em" transform="rotate(-90, 40.08, 48.71)">Sep</text>
    <text x="43.65" y="48.71" text-anchor="end" dy="0.35em" transform="rotate(-90, 43.65, 48.71)">Oct</text>
    <text x="47.34" y="48.71" text-anchor="end" dy="0.35em" transform="rotate(-90, 47.34, 48.71)">Nov</text>
    <text x="50.91" y="48.71" text-anchor="end" dy="0.35em" transform="rotate(-90, 50.91, 48.71)">Dec</text>
    <text x="54.6" y="48.71" text-anchor="end" dy="0.35em" transform="rotate(-90, 54.6, 48.71)">Jan 2015</text>
    <text x="58.29" y="48.71" text-anchor="end" dy="0.35em" transform="rotate(-90, 58.29, 48.71)">Feb</text>
    <text x="61.63" y="48.71" text-anchor="end" dy="0.35em" transform="rotate(-90, 61.63, 48.71)">Mar</text>
    <text x="65.32" y="48.71" text-anchor="end" dy="0.35em" transform="rotate(-90, 65.32, 48.71)">Apr</text>
    <text x="68.89" y="48.71" text-anchor="end" dy="0.35em" transform="rotate(-90, 68.89, 48.71)">May</text>
    <text x="72.58" y="48.71" text-anchor="end" dy="0.35em" transform="rotate(-90, 72.58, 48.71)">Jun</text>
    <text x="76.15" y="48.71" text-anchor="end" dy="0.35em" transform="rotate(-90, 76.15, 48.71)">Jul</text>
    <text x="79.84" y="48.71" text-anchor="end" dy="0.35em" transform="rotate(-90, 79.84, 48.71)">Aug</text>
    <text x="83.53" y="48.71" text-anchor="end" dy="0.35em" transform="rotate(-90, 83.53, 48.71)">Sep</text>
    <text x="87.1" y="48.71" text-anchor="end" dy="0.35em" transform="rotate(-90, 87.1, 48.71)">Oct</text>
    <text x="90.79" y="48.71" text-anchor="end" dy="0.35em" transform="rotate(-90, 90.79, 48.71)">Nov</text>
    <text x="94.36" y="48.71" text-anchor="end" dy="0.35em" transform="rotate(-90, 94.36, 48.71)">Dec</text>
  </g>
<g clip-path="url(#img-82b13398-4)">
  <g id="img-82b13398-5">
    <g pointer-events="visible" opacity="1" fill="#000000" fill-opacity="0.000" stroke="#000000" stroke-opacity="0.000" class="guide background" id="img-82b13398-6">
      <rect x="19.63" y="12.61" width="76.97" height="35.1"/>
    </g>
    <g class="guide ygridlines xfixed" stroke-dasharray="0.5,0.5" stroke-width="0.2" stroke="#D0D0E0" id="img-82b13398-7">
      <path fill="none" d="M19.63,45.71 L 96.6 45.71"/>
      <path fill="none" d="M19.63,30.16 L 96.6 30.16"/>
      <path fill="none" d="M19.63,14.61 L 96.6 14.61"/>
    </g>
    <g class="guide xgridlines yfixed" stroke-dasharray="0.5,0.5" stroke-width="0.2" stroke="#D0D0E0" id="img-82b13398-8">
      <path fill="none" d="M21.87,12.61 L 21.87 47.71"/>
      <path fill="none" d="M25.44,12.61 L 25.44 47.71"/>
      <path fill="none" d="M29.13,12.61 L 29.13 47.71"/>
      <path fill="none" d="M32.7,12.61 L 32.7 47.71"/>
      <path fill="none" d="M36.39,12.61 L 36.39 47.71"/>
      <path fill="none" d="M40.08,12.61 L 40.08 47.71"/>
      <path fill="none" d="M43.65,12.61 L 43.65 47.71"/>
      <path fill="none" d="M47.34,12.61 L 47.34 47.71"/>
      <path fill="none" d="M50.91,12.61 L 50.91 47.71"/>
      <path fill="none" d="M54.6,12.61 L 54.6 47.71"/>
      <path fill="none" d="M58.29,12.61 L 58.29 47.71"/>
      <path fill="none" d="M61.63,12.61 L 61.63 47.71"/>
      <path fill="none" d="M65.32,12.61 L 65.32 47.71"/>
      <path fill="none" d="M68.89,12.61 L 68.89 47.71"/>
      <path fill="none" d="M72.58,12.61 L 72.58 47.71"/>
      <path fill="none" d="M76.15,12.61 L 76.15 47.71"/>
      <path fill="none" d="M79.84,12.61 L 79.84 47.71"/>
      <path fill="none" d="M83.53,12.61 L 83.53 47.71"/>
      <path fill="none" d="M87.1,12.61 L 87.1 47.71"/>
      <path fill="none" d="M90.79,12.61 L 90.79 47.71"/>
      <path fill="none" d="M94.36,12.61 L 94.36 47.71"/>
    </g>
    <g class="plotpanel" id="img-82b13398-9">
      <g stroke-width="0.3" fill="#000000" fill-opacity="0.000" class="geometry color_newnot_possible" stroke-dasharray="none" stroke="#808080" id="img-82b13398-10">
        <path fill="none" d="M74.84,42.94 L 74.96 42.94 75.08 42.95 75.2 42.95 75.32 42.96 75.44 42.96 75.55 42.96 75.67 42.96 76.03 42.96 76.27 42.97 76.51 43.02 76.63 42.98 76.74 42.99 76.86 43 76.98 43.01 77.1 43.01 79.13 43.02 80.08 43.04 81.15 43.06 83.17 43.12 83.53 43.12 84.12 42.99 84.72 42.85 86.62 42.89 87.1 42.92 87.7 42.93 88.17 42.94 88.65 42.94 89.01 42.91 90.43 42.91 91.86 42.87 92.34 42.86 92.58 42.82 93.65 42.82 93.77 42.82 94.6 42.83"/>
      </g>
      <g stroke-width="0.3" fill="#000000" fill-opacity="0.000" class="geometry color_newno_tests" stroke-dasharray="none" stroke="#0000FF" id="img-82b13398-11">
        <path fill="none" d="M74.84,40.12 L 74.96 40.12 75.08 40.13 75.2 40.13 75.32 40.15 75.44 40.15 75.55 40.15 75.67 40.16 76.03 40.16 76.27 40.18 76.51 40.17 76.63 40.19 76.74 40.28 76.86 40.3 76.98 40.3 77.1 40.36 79.13 40.43 80.08 40.47 81.15 40.51 83.17 40.62 83.53 40.69 84.12 40.69 84.72 40.76 86.62 40.97 87.1 41.15 87.7 41.27 88.17 41.27 88.65 41.29 89.01 41.34 90.43 41.4 91.86 41.49 92.34 41.48 92.58 41.49 93.65 41.49 93.77 41.49 94.6 41.51"/>
      </g>
      <g stroke-width="0.3" fill="#000000" fill-opacity="0.000" class="geometry color_newtests_fail" stroke-dasharray="none" stroke="#FF0000" id="img-82b13398-12">
        <path fill="none" d="M74.84,42.78 L 74.96 42.62 75.08 42.58 75.2 42.53 75.32 42.44 75.44 42.59 75.55 42.39 75.67 42.55 76.03 42.44 76.27 42.4 76.51 42.35 76.63 42.51 76.74 40.89 76.86 42.44 76.98 42.14 77.1 42.19 79.13 42.47 80.08 42.54 81.15 42.18 83.17 41.44 83.53 41.69 84.12 41.98 84.72 42.23 86.62 42.24 87.1 42.03 87.7 42.24 88.17 42.29 88.65 42.16 89.01 42.17 90.43 42.08 91.86 42 92.34 42.31 92.58 42.32 93.65 42.37 93.77 42.32 94.6 42.47"/>
      </g>
      <g stroke-width="0.3" fill="#000000" fill-opacity="0.000" class="geometry color_newtests_pass" stroke-dasharray="none" stroke="#008000" id="img-82b13398-13">
        <path fill="none" d="M74.84,25.9 L 74.96 26.06 75.08 26.07 75.2 26.12 75.32 26.19 75.44 26.03 75.55 26.24 75.67 26.07 76.03 26.17 76.27 26.18 76.51 26.2 76.63 26.06 76.74 27.57 76.86 26 76.98 26.29 77.1 26.18 79.13 25.82 80.08 25.69 81.15 25.99 83.17 26.56 83.53 26.24 84.12 26.08 84.72 25.9 86.62 25.63 87.1 25.64 87.7 25.3 88.17 25.24 88.65 25.35 89.01 25.31 90.43 25.34 91.86 25.37 92.34 25.08 92.58 25.1 93.65 25.05 93.77 25.1 94.6 24.93"/>
      </g>
      <g stroke-width="0.3" fill="#000000" fill-opacity="0.000" class="geometry color_newnot_possible" stroke-dasharray="none" stroke="#808080" id="img-82b13398-14">
        <path fill="none" d="M21.63,42.35 L 21.75 42.35 21.87 42.36 21.99 42.36 22.11 42.36 22.23 42.36 22.35 42.36 22.46 42.37 22.7 42.37 22.82 42.38 23.06 42.39 23.3 42.41 23.42 42.41 23.66 42.41 23.77 42.42 24.61 42.47 24.96 42.47 25.2 42.47 26.04 42.58 26.15 42.6 26.27 42.61 26.39 42.61 26.51 42.61 26.63 42.51 26.75 42.51 26.87 42.51 26.99 42.51 27.11 42.31 27.23 42.31 27.35 42.34 27.58 42.25 27.7 42.94 27.82 42.94 27.94 42.96 28.06 42.96 28.18 42.96 28.3 42.97 28.42 42.97 28.54 42.97 28.65 42.97 28.77 42.97 28.89 42.98 29.01 42.98 29.13 42.59 29.25 42.99 29.37 43 29.49 43 30.2 42.58 30.32 42.49 30.44 42.5 30.56 42.51 30.68 42.53 30.8 42.44 30.92 42.27 31.04 42.27 31.15 42.28 31.27 42.29 31.51 42.29 31.63 42.31 31.75 42.31 31.87 42.31 31.99 42.31 32.11 42.31 32.23 42.34 32.34 42.34 32.58 42.35 32.7 42.37 32.82 42.38 32.94 42.39 33.06 42.39 33.18 42.41 33.42 42.42 33.54 42.45 33.65 42.45 33.77 42.45 34.01 42.49 34.25 42.52 34.37 42.52 34.49 42.53 34.61 42.53 34.96 42.54 35.08 42.54 35.2 42.55 35.32 42.55 35.44 42.55 35.56 42.56 35.68 42.48 35.8 42.49 36.03 42.49 36.15 42.49 36.39 42.49 36.51 42.5 36.63 42.52 36.75 42.52 36.99 42.53 37.11 42.53 37.23 42.55 37.34 42.56 37.46 42.57 37.58 42.57 37.7 42.58 37.82 42.6 37.94 42.52 38.06 42.44 38.18 42.45 38.3 42.45 38.42 42.45 38.65 42.48 38.77 42.48 38.89 42.49 39.01 42.49 39.13 42.49 39.25 42.51 39.37 42.52 39.49 42.53 39.72 42.43 39.84 42.37 40.08 42.39 40.2 42.39 40.32 42.31 40.8 42.31 41.15 42.36 41.27 42.37 41.39 42.38 41.51 42.39 41.63 42.39 41.75 42.39 41.87 42.46 41.99 42.46 42.11 42.46 42.34 42.38 42.46 42.39 42.58 42.4 42.7 42.4 42.82 42.4 42.94 42.41 43.06 42.33 43.3 42.32 43.42 42.33 43.53 42.33 43.65 42.35 43.77 42.29 43.89 42.29 44.01 42.29 44.13 42.3 44.49 42.32 44.61 42.24 44.72 42.26 44.84 42.27 44.96 42.27 45.08 42.27 45.2 42.29 45.32 42.29 45.44 42.29 45.56 42.3 45.68 42.23 45.8 42.23 45.91 42.23 46.03 42.24 46.15 42.25 46.27 42.25 46.39 42.25 46.51 42.26 46.63 42.26 46.75 42.27 46.87 42.27 46.99 42.29 47.11 42.29 47.22 42.29 47.34 42.3 47.46 42.3 47.58 42.3 47.7 42.31 47.82 42.31 47.94 42.32 48.3 42.32 48.89 42.36 49.01 42.37 49.13 42.37 49.25 42.38 49.37 42.38 49.49 42.4 49.6 42.4 50.08 42.44 50.2 42.44 50.8 42.45 51.03 42.45 51.15 42.52 51.27 42.53 51.39 42.53 51.51 42.53 51.63 42.54 51.75 42.55 52.1 42.56 52.22 42.57 52.46 42.59 52.58 42.6 52.7 42.6 53.06 42.6 53.29 42.61 53.65 42.63 54.13 42.64 54.37 42.66 54.72 42.68 55.56 42.72 56.03 42.77 56.15 42.65 56.27 42.65 56.39 42.62 56.51 42.62 56.63 42.62 56.87 42.62 56.99 42.63 57.1 42.63 57.22 42.65 57.34 42.65 57.46 42.65 57.58 42.65 57.82 42.61 57.94 42.62 58.06 42.63 58.53 42.68 58.65 42.67 58.77 42.67 59.01 42.68 59.25 42.7 59.37 42.7 59.72 42.71 60.32 42.71 60.91 42.75 61.51 42.77 61.63 42.77 61.75 42.77 61.87 42.37 61.98 42.43 62.22 42.37 62.46 42.37 62.94 42.38 63.06 42.4 63.17 42.4 63.29 42.4 63.41 42.41 63.53 42.47 63.65 42.42 65.08 42.37 65.32 42.31 65.44 42.33 65.67 42.33 66.15 42.34 66.39 42.34 66.63 42.35 67.1 42.35 67.34 42.37 67.46 42.37 67.7 42.4 67.82 42.4 67.94 42.41 68.06 42.43 68.17 42.43 68.29 42.43 68.53 42.44 68.65 42.44 68.89 42.44 69.13 42.46 69.25 42.47 69.36 42.48 69.6 42.49 69.72 42.5 70.32 42.52 70.79 42.58 70.91 42.54 71.86 42.56 71.98 42.45 72.1 42.45 72.46 42.47 72.58 42.48 72.7 42.54 72.94 42.55 73.17 42.55 73.41 42.55 74.48 42.58"/>
      </g>
      <g stroke-width="0.3" fill="#000000" fill-opacity="0.000" class="geometry color_newtests_fail" stroke-dasharray="none" stroke="#FF0000" id="img-82b13398-15">
        <path fill="none" d="M21.63,41.51 L 21.75 41.51 21.87 39.95 21.99 41.62 22.11 41.52 22.23 39.84 22.35 39.84 22.46 39.86 22.7 41.53 22.82 41.55 23.06 41.67 23.3 41.69 23.42 41.69 23.66 41.8 23.77 41.81 24.61 41.96 24.96 41.96 25.2 41.96 26.04 41.87 26.15 42 26.27 41.81 26.39 41.81 26.51 41.91 26.63 42.01 26.75 41.91 26.87 41.91 26.99 41.91 27.11 42.01 27.23 42.01 27.35 41.85 27.58 41.96 27.7 41.76 27.82 41.96 27.94 42.18 28.06 42.18 28.18 42.27 28.3 42.29 28.42 42.19 28.54 42.29 28.65 42.29 28.77 42.29 28.89 42.39 29.01 42.39 29.13 42.81 29.25 42.79 29.37 42.8 29.49 42.81 30.2 43.43 30.32 43.53 30.44 43.54 30.56 43.55 30.68 43.47 30.8 43.56 30.92 43.57 31.04 43.57 31.15 43.49 31.27 41.74 31.51 43.49 31.63 43.6 31.75 43.6 31.87 43.6 31.99 43.6 32.11 43.6 32.23 43.62 32.34 43.62 32.58 43.62 32.7 43.64 32.82 43.55 32.94 43.56 33.06 43.56 33.18 43.57 33.42 43.58 33.54 43.42 33.65 43.42 33.77 43.42 34.01 43.28 34.25 41.57 34.37 41.49 34.49 43.3 34.61 43.22 34.96 43.4 35.08 43.4 35.2 43.4 35.32 43.4 35.44 43.49 35.56 43.58 35.68 43.58 35.8 43.59 36.03 43.59 36.15 43.67 36.39 43.59 36.51 43.68 36.63 43.7 36.75 43.7 36.99 43.7 37.11 43.7 37.23 43.55 37.34 43.64 37.46 43.64 37.58 43.56 37.7 43.57 37.82 43.42 37.94 43.5 38.06 43.67 38.18 41.39 38.3 41.88 38.42 41.88 38.65 43.77 38.77 43.85 38.89 43.77 39.01 43.86 39.13 43.77 39.25 43.79 39.37 43.95 39.49 43.72 39.72 43.99 39.84 44.08 40.08 43.93 40.2 43.93 40.32 44.01 40.8 44.01 41.15 44.43 41.27 44.44 41.39 44.44 41.51 44.52 41.63 44.6 41.75 44.6 41.87 44.63 41.99 44.63 42.11 44.63 42.34 44.47 42.46 44.47 42.58 44.4 42.7 44.48 42.82 44.4 42.94 44.25 43.06 44.33 43.3 44.4 43.42 44.48 43.53 44.48 43.65 44.41 43.77 44.4 43.89 44.42 44.01 44.49 44.13 44.5 44.49 44.5 44.61 44.5 44.72 44.51 44.84 44.59 44.96 44.59 45.08 44.59 45.2 44.59 45.32 44.59 45.44 44.45 45.56 44.38 45.68 44.38 45.8 44.23 45.91 44.38 46.03 44.38 46.15 44.39 46.27 44.39 46.39 44.39 46.51 44.31 46.63 44.39 46.75 44.32 46.87 44.39 46.99 44.32 47.11 44.4 47.22 44.4 47.34 44.4 47.46 44.48 47.58 44.48 47.7 44.55 47.82 44.55 47.94 44.34 48.3 44.63 48.89 44.57 49.01 44.57 49.13 44.57 49.25 44.65 49.37 44.72 49.49 44.58 49.6 44.58 50.08 44.53 50.2 44.6 50.8 44.6 51.03 44.6 51.15 44.18 51.27 44.4 51.39 44.6 51.51 44.6 51.63 44.61 51.75 44.54 52.1 44.48 52.22 44.48 52.46 44.42 52.58 44.49 52.7 44.49 53.06 44.49 53.29 44.56 53.65 44.57 54.13 44.57 54.37 44.58 54.72 44.59 55.56 44.54 56.03 44.43 56.15 44.56 56.27 44.56 56.39 44.32 56.51 44.32 56.63 44.38 56.87 44.38 56.99 44.33 57.1 44.33 57.22 44.27 57.34 44.34 57.46 44.34 57.58 44.34 57.82 44.35 57.94 44.35 58.06 44.35 58.53 44.19 58.65 44.19 58.77 44.19 59.01 44.14 59.25 44.08 59.37 44.08 59.72 44.09 60.32 44.09 60.91 44.17 61.51 42.48 61.63 43.06 61.75 43.47 61.87 44.19 61.98 44.19 62.22 44.19 62.46 44.19 62.94 44.19 63.06 44.14 63.17 44.14 63.29 44.14 63.41 44.15 63.53 44.14 63.65 44.09 65.08 44.04 65.32 44.1 65.44 44.22 65.67 44.22 66.15 44.11 66.39 44.22 66.63 44.17 67.1 44.17 67.34 44.18 67.46 44.13 67.7 44.03 67.82 44.03 67.94 44.03 68.06 44.1 68.17 43.98 68.29 43.99 68.53 43.99 68.65 44.05 68.89 43.99 69.13 44 69.25 43.9 69.36 43.9 69.6 43.96 69.72 43.91 70.32 43.87 70.79 43.77 70.91 43.77 71.86 43.57 71.98 43.57 72.1 43.57 72.46 43.59 72.58 43.59 72.7 43.65 72.94 43.71 73.17 43.65 73.41 43.66 74.48 43.78"/>
      </g>
      <g stroke-width="0.3" fill="#000000" fill-opacity="0.000" class="geometry color_newno_tests" stroke-dasharray="none" stroke="#0000FF" id="img-82b13398-16">
        <path fill="none" d="M21.63,40.04 L 21.75 40.04 21.87 40.05 21.99 40.05 22.11 40.05 22.23 40.16 22.35 40.16 22.46 40.07 22.7 39.97 22.82 39.99 23.06 40.01 23.3 39.84 23.42 39.84 23.66 39.84 23.77 39.86 24.61 39.93 24.96 39.93 25.2 39.93 26.04 39.85 26.15 39.89 26.27 39.91 26.39 39.91 26.51 39.91 26.63 39.91 26.75 39.91 26.87 39.91 26.99 39.91 27.11 40.11 27.23 40.11 27.35 40.16 27.58 40.28 27.7 40.28 27.82 40.28 27.94 40.21 28.06 40.21 28.18 40.41 28.3 40.53 28.42 40.53 28.54 40.53 28.65 40.53 28.77 40.53 28.89 40.54 29.01 40.54 29.13 39.36 29.25 40.27 29.37 40.28 29.49 40.3 30.2 40.4 30.32 40.42 30.44 40.43 30.56 40.54 30.68 40.57 30.8 40.57 30.92 40.6 31.04 40.7 31.15 40.71 31.27 41 31.51 40.91 31.63 40.75 31.75 40.75 31.87 40.75 31.99 40.75 32.11 40.75 32.23 40.8 32.34 40.8 32.58 40.9 32.7 40.84 32.82 40.86 32.94 40.87 33.06 41.05 33.18 41.08 33.42 41.09 33.54 41.13 33.65 41.13 33.77 41.13 34.01 41.02 34.25 41.32 34.37 41.23 34.49 41.16 34.61 41.16 34.96 41.17 35.08 41.17 35.2 41.18 35.32 41.18 35.44 41.27 35.56 41.28 35.68 41.29 35.8 41.39 36.03 41.39 36.15 41.39 36.39 41.39 36.51 41.4 36.63 41.43 36.75 41.43 36.99 41.28 37.11 41.36 37.23 41.38 37.34 41.31 37.46 41.33 37.58 41.34 37.7 41.35 37.82 41.37 37.94 41.37 38.06 41.38 38.18 41.88 38.3 41.88 38.42 41.88 38.65 41.35 38.77 41.35 38.89 41.44 39.01 41.44 39.13 41.52 39.25 41.47 39.37 41.48 39.49 41.57 39.72 41.93 39.84 42.05 40.08 42.06 40.2 42.06 40.32 42.06 40.8 42.06 41.15 42.04 41.27 42.05 41.39 41.98 41.51 42 41.63 42 41.75 42.08 41.87 42.15 41.99 42.23 42.11 42.23 42.34 42.23 42.46 42.16 42.58 42.17 42.7 42.17 42.82 42.17 42.94 42.25 43.06 42.25 43.3 42.17 43.42 42.18 43.53 42.18 43.65 42.19 43.77 42.07 43.89 42.21 44.01 42.21 44.13 42.23 44.49 42.32 44.61 42.32 44.72 42.26 44.84 42.27 44.96 42.27 45.08 42.27 45.2 42.29 45.32 42.29 45.44 42.29 45.56 42.3 45.68 42.3 45.8 42.38 45.91 42.3 46.03 42.31 46.15 42.33 46.27 42.33 46.39 42.33 46.51 42.41 46.63 42.33 46.75 42.42 46.87 42.34 46.99 42.36 47.11 42.37 47.22 42.37 47.34 42.37 47.46 42.37 47.58 42.37 47.7 42.38 47.82 42.38 47.94 42.39 48.3 42.39 48.89 42.43 49.01 42.44 49.13 42.44 49.25 42.45 49.37 42.45 49.49 42.47 49.6 42.47 50.08 42.58 50.2 42.51 50.8 42.52 51.03 42.52 51.15 42.52 51.27 42.6 51.39 42.53 51.51 42.53 51.63 42.54 51.75 42.62 52.1 42.56 52.22 42.57 52.46 42.59 52.58 42.53 52.7 42.53 53.06 42.6 53.29 42.54 53.65 42.56 54.13 42.64 54.37 42.59 54.72 42.62 55.56 42.66 56.03 42.7 56.15 42.71 56.27 42.71 56.39 42.81 56.51 42.74 56.63 42.74 56.87 42.74 56.99 42.82 57.1 42.82 57.22 42.84 57.34 42.78 57.46 42.78 57.58 42.78 57.82 42.8 57.94 42.81 58.06 42.81 58.53 42.86 58.65 42.85 58.77 42.85 59.01 42.86 59.25 42.88 59.37 42.88 59.72 42.89 60.32 42.89 60.91 42.92 61.51 43.12 61.63 43.06 61.75 43.06 61.87 43.07 61.98 43.01 62.22 43.01 62.46 43.01 62.94 43.02 63.06 43.03 63.17 43.1 63.29 43.1 63.41 43.11 63.53 43.1 63.65 43.11 65.08 43.17 65.32 43.17 65.44 43.19 65.67 43.25 66.15 43.25 66.39 43.25 66.63 43.26 67.1 43.26 67.34 43.27 67.46 43.28 67.7 43.3 67.82 43.3 67.94 43.3 68.06 43.32 68.17 43.32 68.29 43.32 68.53 43.32 68.65 43.33 68.89 43.38 69.13 43.34 69.25 43.35 69.36 43.35 69.6 43.42 69.72 43.37 70.32 43.44 70.79 43.44 70.91 43.45 71.86 43.47 71.98 43.47 72.1 43.47 72.46 43.53 72.58 43.54 72.7 43.49 72.94 43.49 73.17 43.49 73.41 43.55 74.48 43.52"/>
      </g>
      <g stroke-width="0.3" fill="#000000" fill-opacity="0.000" class="geometry color_oldfull_fail" stroke-dasharray="none" stroke="#FFA500" id="img-82b13398-17">
        <path fill="none" d="M21.63,41.4 L 21.75 41.4 21.87 42.15 21.99 41 22.11 41.1 22.23 41.94 22.35 41.73 22.46 41.95 22.7 40.49 22.82 40.51 23.06 40.42 23.3 40.87 23.42 40.66 23.66 40.97 23.77 40.88 24.61 41.15 24.96 41.15 25.2 41.15 26.04 41.06 26.15 40.89 26.27 39.91 26.39 39.91 26.51 40.41 26.63 40.41 26.75 40.71 26.87 40.71 26.99 40.71 27.11 41.11 27.23 41.11 27.35 41.65 27.58 41.66 27.7 41.56 27.82 41.36 27.94 41.49 28.06 41.49 28.18 41.69 28.3 41.7 28.42 41.7 28.54 41.5 28.65 41.89 28.77 41.8 28.89 41.71 29.01 41.52 29.13 45.71 29.25 41.92 29.37 41.45 29.49 41.65 30.2 41.54 30.32 41.93 30.44 42.32 30.56 42.33 30.68 42.25 30.8 42.63 30.92 42.55 31.04 42.55 31.15 42.65 31.27 42.94 31.51 42.48 31.63 42.59 31.75 42.77 31.87 42.59 31.99 42.77 32.11 42.77 32.23 42.44 32.34 42.53 32.58 42.9 32.7 42.91 32.82 42.92 32.94 42.84 33.06 42.75 33.18 42.95 33.42 42.95 33.54 43.07 33.65 43.15 33.77 43.15 34.01 43.02 34.25 42.44 34.37 42.87 34.49 42.79 34.61 42.79 34.96 42.8 35.08 42.8 35.2 42.55 35.32 42.72 35.44 42.63 35.56 42.64 35.68 42.82 35.8 42.74 36.03 42.83 36.15 42.91 36.39 42.91 36.51 42.92 36.63 42.94 36.75 42.94 36.99 42.95 37.11 42.95 37.23 42.96 37.34 42.89 37.46 42.9 37.58 42.82 37.7 42.99 37.82 42.84 37.94 42.76 38.06 42.77 38.18 42.61 38.3 42.53 38.42 42.61 38.65 42.48 38.77 42.56 38.89 42.81 39.01 42.57 39.13 42.57 39.25 42.67 39.37 42.44 39.49 42.53 39.72 42.84 39.84 42.78 40.08 42.79 40.2 42.79 40.32 42.79 40.8 42.79 41.15 42.76 41.27 42.69 41.39 42.77 41.51 42.63 41.63 42.63 41.75 42.87 41.87 42.54 41.99 42.46 42.11 42.46 42.34 42.54 42.46 42.7 42.58 42.63 42.7 42.71 42.82 42.71 42.94 42.56 43.06 42.71 43.3 42.86 43.42 42.87 43.53 42.87 43.65 42.88 43.77 42.8 43.89 42.97 44.01 42.97 44.13 42.98 44.49 42.55 44.61 42.77 44.72 42.79 44.84 42.94 44.96 42.79 45.08 42.94 45.2 42.96 45.32 42.88 45.44 42.89 45.56 42.82 45.68 43.04 45.8 42.97 45.91 42.89 46.03 42.98 46.15 42.99 46.27 42.91 46.39 43.06 46.51 42.85 46.63 42.85 46.75 43 46.87 42.93 46.99 42.87 47.11 42.87 47.22 42.87 47.34 42.81 47.46 42.88 47.58 43.03 47.7 42.82 47.82 42.89 47.94 42.89 48.3 42.75 48.89 42.78 49.01 42.66 49.13 42.66 49.25 42.52 49.37 42.59 49.49 42.82 49.6 42.82 50.08 42.79 50.2 42.79 50.8 42.65 51.03 42.65 51.15 42.38 51.27 42.53 51.39 42.6 51.51 42.74 51.63 42.75 51.75 42.62 52.1 42.5 52.22 42.5 52.46 42.46 52.58 42.26 52.7 42.6 53.06 42.53 53.29 42.68 53.65 42.63 54.13 42.51 54.37 42.66 54.72 42.42 55.56 42.33 56.03 42.45 56.15 42.46 56.27 42.46 56.39 42.18 56.51 42.05 56.63 41.99 56.87 42.11 56.99 42.13 57.1 42.13 57.22 42.09 57.34 41.91 57.46 42.22 57.58 42.22 57.82 42.24 57.94 42.25 58.06 42.32 58.53 42.19 58.65 42.3 58.77 42.12 59.01 42.56 59.25 42.58 59.37 42.52 59.72 42.41 60.32 42.41 60.91 42.51 61.51 42.06 61.63 41.83 61.75 41.89 61.87 41.84 61.98 42.14 62.22 42.08 62.46 42.14 62.94 41.92 63.06 41.99 63.17 42.17 63.29 42.05 63.41 42.12 63.53 42 63.65 42.19 65.08 42.14 65.32 42.2 65.44 42.04 65.67 42.21 66.15 42.34 66.39 42.28 66.63 42.01 67.1 42.18 67.34 42.08 67.46 42.54 67.7 42.68 67.82 42.51 67.94 42.58 68.06 42.48 68.17 42.54 68.29 42.77 68.53 42.6 68.65 42.55 68.89 42.72 69.13 42.68 69.25 42.58 69.36 42.7 69.6 42.6 69.72 42.55 70.32 42.41 70.79 42.58 70.91 42.59 71.86 42.67 71.98 42.72 72.1 42.67 72.46 42.9 72.58 42.9 72.7 42.85 72.94 42.6 73.17 42.7 73.41 42.66 74.48 42.79"/>
      </g>
      <g stroke-width="0.3" fill="#000000" fill-opacity="0.000" class="geometry color_newtests_pass" stroke-dasharray="none" stroke="#008000" id="img-82b13398-18">
        <path fill="none" d="M21.63,32.16 L 21.75 32.16 21.87 32.93 21.99 32.41 22.11 32.41 22.23 33.14 22.35 33.35 22.46 33.19 22.7 33.08 22.82 33.02 23.06 32.96 23.3 32.63 23.42 32.84 23.66 32.43 23.77 32.47 24.61 31.93 24.96 31.93 25.2 31.93 26.04 32.08 26.15 32.07 26.27 33.21 26.39 33.21 26.51 32.61 26.63 32.61 26.75 32.41 26.87 32.41 26.99 32.41 27.11 31.91 27.23 31.91 27.35 31.45 27.58 31.3 27.7 30.9 27.82 30.9 27.94 30.6 28.06 30.6 28.18 30.11 28.3 29.96 28.42 30.06 28.54 30.16 28.65 29.77 28.77 29.87 28.89 29.82 29.01 30.01 29.13 26.98 29.25 29.48 29.37 29.92 29.49 29.68 30.2 29.5 30.32 29.07 30.44 28.65 30.56 28.52 30.68 28.62 30.8 28.25 30.92 28.44 31.04 28.35 31.15 28.31 31.27 29.47 31.51 28.27 31.63 28.19 31.75 28 31.87 28.19 31.99 28 32.11 28 32.23 28.25 32.34 28.16 32.58 27.67 32.7 27.68 32.82 27.73 32.94 27.79 33.06 27.7 33.18 27.44 33.42 27.41 33.54 27.39 33.65 27.3 33.77 27.3 34.01 27.64 34.25 29.6 34.37 29.34 34.49 27.67 34.61 27.75 34.96 27.55 35.08 27.55 35.2 27.77 35.32 27.6 35.44 27.51 35.56 27.39 35.68 27.27 35.8 27.24 36.03 27.15 36.15 26.98 36.39 27.07 36.51 26.95 36.63 26.85 36.75 26.85 36.99 26.98 37.11 26.9 37.23 27 37.34 27.05 37.46 27.02 37.58 27.15 37.7 26.95 37.82 27.21 37.94 27.3 38.06 27.18 38.18 29.1 38.3 28.69 38.42 28.61 38.65 27.37 38.77 27.21 38.89 26.94 39.01 27.1 39.13 27.1 39.25 27 39.37 27.05 39.49 27.1 39.72 26.26 39.84 26.17 40.08 26.27 40.2 26.27 40.32 26.27 40.8 26.27 41.15 25.85 41.27 25.91 41.39 25.88 41.51 25.9 41.63 25.82 41.75 25.5 41.87 25.67 41.99 25.67 42.11 25.67 42.34 25.83 42.46 25.72 42.58 25.85 42.7 25.7 42.82 25.77 42.94 25.98 43.06 25.82 43.3 25.7 43.42 25.59 43.53 25.59 43.65 25.61 43.77 25.9 43.89 25.56 44.01 25.48 44.13 25.43 44.49 25.76 44.61 25.6 44.72 25.63 44.84 25.38 44.96 25.53 45.08 25.38 45.2 25.32 45.32 25.4 45.44 25.52 45.56 25.64 45.68 25.5 45.8 25.64 45.91 25.64 46.03 25.54 46.15 25.49 46.27 25.57 46.39 25.42 46.51 25.61 46.63 25.61 46.75 25.44 46.87 25.51 46.99 25.61 47.11 25.51 47.22 25.51 47.34 25.56 47.46 25.41 47.58 25.27 47.7 25.39 47.82 25.31 47.94 25.51 48.3 25.36 48.89 25.31 49.01 25.4 49.13 25.4 49.25 25.45 49.37 25.31 49.49 25.16 49.6 25.16 50.08 25.12 50.2 25.12 50.8 25.23 51.03 25.23 51.15 25.83 51.27 25.39 51.39 25.18 51.51 25.05 51.63 25 51.75 25.11 52.1 25.34 52.22 25.32 52.46 25.38 52.58 25.56 52.7 25.23 53.06 25.23 53.29 25.04 53.65 25.07 54.13 25.09 54.37 24.96 54.72 25.13 55.56 25.19 56.03 25.11 56.15 25.06 56.27 25.06 56.39 25.52 56.51 25.71 56.63 25.71 56.87 25.59 56.99 25.54 57.1 25.54 57.22 25.6 57.34 25.77 57.46 25.45 57.58 25.45 57.82 25.45 57.94 25.41 58.06 25.33 58.53 25.52 58.65 25.44 58.77 25.63 59.01 25.2 59.25 25.2 59.37 25.26 59.72 25.34 60.32 25.34 60.91 25.1 61.51 27.02 61.63 26.72 61.75 26.25 61.87 25.97 61.98 25.68 62.22 25.8 62.46 25.74 62.94 25.93 63.06 25.89 63.17 25.63 63.29 25.75 63.41 25.65 63.53 25.73 63.65 25.63 65.08 25.73 65.32 25.67 65.44 25.66 65.67 25.44 66.15 25.42 66.39 25.36 66.63 25.64 67.1 25.47 67.34 25.54 67.46 25.13 67.7 25.03 67.82 25.2 67.94 25.13 68.06 25.13 68.17 25.18 68.29 24.94 68.53 25.09 68.65 25.07 68.89 24.9 69.13 24.98 69.25 25.14 69.36 25.01 69.6 24.98 69.72 25.12 70.32 25.21 70.79 25.07 70.91 25.08 71.86 25.17 71.98 25.23 72.1 25.28 72.46 24.96 72.58 24.94 72.7 24.92 72.94 25.1 73.17 25.05 73.41 25.03 74.48 24.79"/>
      </g>
    </g>
  </g>
</g>
  <g class="guide ylabels" font-size="2.82" font-family="'PT Sans Caption','Helvetica Neue','Helvetica',sans-serif" fill="#6C606B" id="img-82b13398-19">
    <text x="18.63" y="45.71" text-anchor="end" dy="0.35em">0</text>
    <text x="18.63" y="30.16" text-anchor="end" dy="0.35em">50</text>
    <text x="18.63" y="14.61" text-anchor="end" dy="0.35em">100</text>
  </g>
  <g font-size="3.88" font-family="'PT Sans','Helvetica Neue','Helvetica',sans-serif" fill="#564A55" stroke="#000000" stroke-opacity="0.000" id="img-82b13398-20">
    <text x="8.81" y="28.16" text-anchor="middle" dy="0.35em" transform="rotate(-90, 8.81, 30.16)">Percentage of Packages</text>
  </g>
  <g font-size="3.88" font-family="'PT Sans','Helvetica Neue','Helvetica',sans-serif" fill="#564A55" stroke="#000000" stroke-opacity="0.000" id="img-82b13398-21">
    <text x="58.12" y="10.61" text-anchor="middle">Julia v0.3 (relative)</text>
  </g>
</g>
<defs>
  <clipPath id="img-82b13398-4">
  <path d="M19.63,12.61 L 96.6 12.61 96.6 47.71 19.63 47.71" />
</clipPath>
</defs>
</svg>
