<?xml version="1.0" encoding="UTF-8"?>
<svg xmlns="http://www.w3.org/2000/svg"
     xmlns:xlink="http://www.w3.org/1999/xlink"
     xmlns:gadfly="http://www.gadflyjl.org/ns"
     version="1.2"
     width="101.6mm" height="76.2mm" viewBox="0 0 101.6 76.2"
     stroke="none"
     fill="#000000"
     stroke-width="0.3"
     font-size="3.88"
>
<g class="plotroot xscalable yscalable" id="img-9242d7ac-1">
  <g font-size="3.88" font-family="'PT Sans','Helvetica Neue','Helvetica',sans-serif" fill="#564A55" stroke="#000000" stroke-opacity="0.000" id="img-9242d7ac-2">
    <text x="58.12" y="64.59" text-anchor="middle" dy="0.6em">Date</text>
  </g>
  <g class="guide xlabels" font-size="2.82" font-family="'PT Sans Caption','Helvetica Neue','Helvetica',sans-serif" fill="#6C606B" id="img-9242d7ac-3">
    <text x="21.86" y="48.71" text-anchor="end" dy="0.35em" transform="rotate(-90, 21.86, 48.71)">Apr</text>
    <text x="25.36" y="48.71" text-anchor="end" dy="0.35em" transform="rotate(-90, 25.36, 48.71)">May</text>
    <text x="28.98" y="48.71" text-anchor="end" dy="0.35em" transform="rotate(-90, 28.98, 48.71)">Jun</text>
    <text x="32.47" y="48.71" text-anchor="end" dy="0.35em" transform="rotate(-90, 32.47, 48.71)">Jul</text>
    <text x="36.09" y="48.71" text-anchor="end" dy="0.35em" transform="rotate(-90, 36.09, 48.71)">Aug</text>
    <text x="39.7" y="48.71" text-anchor="end" dy="0.35em" transform="rotate(-90, 39.7, 48.71)">Sep</text>
    <text x="43.2" y="48.71" text-anchor="end" dy="0.35em" transform="rotate(-90, 43.2, 48.71)">Oct</text>
    <text x="46.81" y="48.71" text-anchor="end" dy="0.35em" transform="rotate(-90, 46.81, 48.71)">Nov</text>
    <text x="50.31" y="48.71" text-anchor="end" dy="0.35em" transform="rotate(-90, 50.31, 48.71)">Dec</text>
    <text x="53.92" y="48.71" text-anchor="end" dy="0.35em" transform="rotate(-90, 53.92, 48.71)">Jan 2015</text>
    <text x="57.53" y="48.71" text-anchor="end" dy="0.35em" transform="rotate(-90, 57.53, 48.71)">Feb</text>
    <text x="60.8" y="48.71" text-anchor="end" dy="0.35em" transform="rotate(-90, 60.8, 48.71)">Mar</text>
    <text x="64.41" y="48.71" text-anchor="end" dy="0.35em" transform="rotate(-90, 64.41, 48.71)">Apr</text>
    <text x="67.91" y="48.71" text-anchor="end" dy="0.35em" transform="rotate(-90, 67.91, 48.71)">May</text>
    <text x="71.52" y="48.71" text-anchor="end" dy="0.35em" transform="rotate(-90, 71.52, 48.71)">Jun</text>
    <text x="75.02" y="48.71" text-anchor="end" dy="0.35em" transform="rotate(-90, 75.02, 48.71)">Jul</text>
    <text x="78.63" y="48.71" text-anchor="end" dy="0.35em" transform="rotate(-90, 78.63, 48.71)">Aug</text>
    <text x="82.24" y="48.71" text-anchor="end" dy="0.35em" transform="rotate(-90, 82.24, 48.71)">Sep</text>
    <text x="85.74" y="48.71" text-anchor="end" dy="0.35em" transform="rotate(-90, 85.74, 48.71)">Oct</text>
    <text x="89.35" y="48.71" text-anchor="end" dy="0.35em" transform="rotate(-90, 89.35, 48.71)">Nov</text>
    <text x="92.85" y="48.71" text-anchor="end" dy="0.35em" transform="rotate(-90, 92.85, 48.71)">Dec</text>
  </g>
<g clip-path="url(#img-9242d7ac-4)">
  <g id="img-9242d7ac-5">
    <g pointer-events="visible" opacity="1" fill="#000000" fill-opacity="0.000" stroke="#000000" stroke-opacity="0.000" class="guide background" id="img-9242d7ac-6">
      <rect x="19.63" y="12.61" width="76.97" height="35.1"/>
    </g>
    <g class="guide ygridlines xfixed" stroke-dasharray="0.5,0.5" stroke-width="0.2" stroke="#D0D0E0" id="img-9242d7ac-7">
      <path fill="none" d="M19.63,45.71 L 96.6 45.71"/>
      <path fill="none" d="M19.63,39.49 L 96.6 39.49"/>
      <path fill="none" d="M19.63,33.27 L 96.6 33.27"/>
      <path fill="none" d="M19.63,27.05 L 96.6 27.05"/>
      <path fill="none" d="M19.63,20.83 L 96.6 20.83"/>
      <path fill="none" d="M19.63,14.61 L 96.6 14.61"/>
    </g>
    <g class="guide xgridlines yfixed" stroke-dasharray="0.5,0.5" stroke-width="0.2" stroke="#D0D0E0" id="img-9242d7ac-8">
      <path fill="none" d="M21.86,12.61 L 21.86 47.71"/>
      <path fill="none" d="M25.36,12.61 L 25.36 47.71"/>
      <path fill="none" d="M28.98,12.61 L 28.98 47.71"/>
      <path fill="none" d="M32.47,12.61 L 32.47 47.71"/>
      <path fill="none" d="M36.09,12.61 L 36.09 47.71"/>
      <path fill="none" d="M39.7,12.61 L 39.7 47.71"/>
      <path fill="none" d="M43.2,12.61 L 43.2 47.71"/>
      <path fill="none" d="M46.81,12.61 L 46.81 47.71"/>
      <path fill="none" d="M50.31,12.61 L 50.31 47.71"/>
      <path fill="none" d="M53.92,12.61 L 53.92 47.71"/>
      <path fill="none" d="M57.53,12.61 L 57.53 47.71"/>
      <path fill="none" d="M60.8,12.61 L 60.8 47.71"/>
      <path fill="none" d="M64.41,12.61 L 64.41 47.71"/>
      <path fill="none" d="M67.91,12.61 L 67.91 47.71"/>
      <path fill="none" d="M71.52,12.61 L 71.52 47.71"/>
      <path fill="none" d="M75.02,12.61 L 75.02 47.71"/>
      <path fill="none" d="M78.63,12.61 L 78.63 47.71"/>
      <path fill="none" d="M82.24,12.61 L 82.24 47.71"/>
      <path fill="none" d="M85.74,12.61 L 85.74 47.71"/>
      <path fill="none" d="M89.35,12.61 L 89.35 47.71"/>
      <path fill="none" d="M92.85,12.61 L 92.85 47.71"/>
    </g>
    <g class="plotpanel" id="img-9242d7ac-9">
      <g stroke-width="0.3" fill="#000000" fill-opacity="0.000" class="geometry color_newnot_possible" stroke-dasharray="none" stroke="#808080" id="img-9242d7ac-10">
        <path fill="none" d="M73.74,42.41 L 73.85 42.41 73.97 42.41 74.08 42.41 74.2 42.41 74.32 42.41 74.43 42.41 74.55 42.41 74.9 42.41 75.13 42.41 75.37 42.47 75.48 42.41 75.6 42.41 75.72 42.41 75.83 42.41 75.95 42.41 77.93 42.35 78.86 42.35 79.91 42.35 81.89 42.35 82.24 42.35 82.83 42.16 83.41 41.98 85.27 41.98 85.74 41.98 86.32 41.98 86.79 41.98 87.26 41.98 87.61 41.91 89 41.91 90.4 41.85 90.87 41.85 91.1 41.79 92.15 41.79 92.27 41.79 93.08 41.79 93.2 41.79 94.02 41.79 94.6 41.79"/>
      </g>
      <g stroke-width="0.3" fill="#000000" fill-opacity="0.000" class="geometry color_newno_tests" stroke-dasharray="none" stroke="#0000FF" id="img-9242d7ac-11">
        <path fill="none" d="M73.74,39.05 L 73.85 39.05 73.97 39.05 74.08 39.05 74.2 39.05 74.32 39.05 74.43 39.05 74.55 39.05 74.9 39.05 75.13 39.05 75.37 39.05 75.48 39.05 75.6 39.12 75.72 39.12 75.83 39.12 75.95 39.18 77.93 39.12 78.86 39.12 79.91 39.12 81.89 39.12 82.24 39.18 82.83 39.18 83.41 39.24 85.27 39.43 85.74 39.61 86.32 39.74 86.79 39.74 87.26 39.74 87.61 39.8 89 39.86 90.4 39.99 90.87 39.99 91.1 39.99 92.15 39.99 92.27 39.99 93.08 39.99 93.2 39.99 94.02 39.99 94.6 39.99"/>
      </g>
      <g stroke-width="0.3" fill="#000000" fill-opacity="0.000" class="geometry color_newtests_fail" stroke-dasharray="none" stroke="#FF0000" id="img-9242d7ac-12">
        <path fill="none" d="M73.74,42.23 L 73.85 42.04 73.97 41.98 74.08 41.91 74.2 41.79 74.32 41.98 74.43 41.73 74.55 41.91 74.9 41.79 75.13 41.73 75.37 41.67 75.48 41.85 75.6 39.86 75.72 41.73 75.83 41.35 75.95 41.42 77.93 41.67 78.86 41.73 79.91 41.23 81.89 40.17 82.24 40.48 82.83 40.86 83.41 41.17 85.27 41.11 85.74 40.8 86.32 41.04 86.79 41.11 87.26 40.92 87.61 40.92 89 40.8 90.4 40.67 90.87 41.11 91.1 41.11 92.15 41.17 92.27 41.11 93.08 41.29 93.2 41.23 94.02 41.29 94.6 41.17"/>
      </g>
      <g stroke-width="0.3" fill="#000000" fill-opacity="0.000" class="geometry color_newtests_pass" stroke-dasharray="none" stroke="#008000" id="img-9242d7ac-13">
        <path fill="none" d="M73.74,22.14 L 73.85 22.32 73.97 22.26 74.08 22.32 74.2 22.32 74.32 22.14 74.43 22.39 74.55 22.14 74.9 22.26 75.13 22.2 75.37 22.26 75.48 22.01 75.6 23.69 75.72 21.7 75.83 22.01 75.95 21.89 77.93 20.89 78.86 20.52 79.91 20.71 81.89 20.89 82.24 20.4 82.83 20.15 83.41 19.84 85.27 19.09 85.74 18.9 86.32 18.28 86.79 18.16 87.26 18.22 87.61 18.09 89 18.09 90.4 18.09 90.87 17.78 91.1 17.72 92.15 17.66 92.27 17.72 93.08 17.41 93.2 17.41 94.02 17.29 94.6 17.35"/>
      </g>
      <g stroke-width="0.3" fill="#000000" fill-opacity="0.000" class="geometry color_newnot_possible" stroke-dasharray="none" stroke="#808080" id="img-9242d7ac-14">
        <path fill="none" d="M21.63,43.72 L 21.75 43.72 21.86 43.72 21.98 43.72 22.1 43.72 22.21 43.72 22.33 43.72 22.45 43.72 22.68 43.72 22.8 43.72 23.03 43.72 23.26 43.72 23.38 43.72 23.61 43.72 23.73 43.72 24.55 43.72 24.9 43.72 25.13 43.72 25.94 43.78 26.06 43.78 26.18 43.78 26.29 43.78 26.41 43.78 26.53 43.72 26.64 43.72 26.76 43.72 26.88 43.72 26.99 43.59 27.11 43.59 27.23 43.59 27.46 43.53 27.58 43.97 27.69 43.97 27.81 43.97 27.93 43.97 28.04 43.97 28.16 43.97 28.28 43.97 28.39 43.97 28.51 43.97 28.63 43.97 28.74 43.97 28.86 43.97 28.98 43.97 29.09 43.97 29.21 43.97 29.32 43.97 30.02 43.66 30.14 43.59 30.26 43.59 30.37 43.59 30.49 43.59 30.61 43.53 30.72 43.41 30.84 43.41 30.96 43.41 31.07 43.41 31.31 43.41 31.42 43.41 31.54 43.41 31.66 43.41 31.77 43.41 31.89 43.41 32.01 43.41 32.12 43.41 32.36 43.41 32.47 43.41 32.59 43.41 32.71 43.41 32.82 43.41 32.94 43.41 33.17 43.41 33.29 43.41 33.4 43.41 33.52 43.41 33.75 43.41 33.99 43.41 34.1 43.41 34.22 43.41 34.34 43.41 34.69 43.41 34.8 43.41 34.92 43.41 35.04 43.41 35.15 43.41 35.27 43.41 35.39 43.34 35.5 43.34 35.74 43.34 35.85 43.34 36.09 43.34 36.2 43.34 36.32 43.34 36.44 43.34 36.67 43.34 36.78 43.34 36.9 43.34 37.02 43.34 37.13 43.34 37.25 43.34 37.37 43.34 37.48 43.34 37.6 43.28 37.72 43.22 37.83 43.22 37.95 43.22 38.07 43.22 38.3 43.22 38.42 43.22 38.53 43.22 38.65 43.22 38.77 43.22 38.88 43.22 39 43.22 39.12 43.22 39.35 43.22 39.47 43.16 39.7 43.16 39.82 43.16 39.93 43.1 40.4 43.1 40.75 43.1 40.86 43.1 40.98 43.1 41.1 43.1 41.21 43.1 41.33 43.1 41.45 43.1 41.56 43.1 41.68 43.1 41.91 43.03 42.03 43.03 42.15 43.03 42.26 43.03 42.38 43.03 42.5 43.03 42.61 42.97 42.85 42.97 42.96 42.97 43.08 42.97 43.2 42.97 43.31 42.79 43.43 42.91 43.55 42.91 43.66 42.91 44.01 42.91 44.13 42.85 44.24 42.85 44.36 42.85 44.48 42.85 44.59 42.85 44.71 42.85 44.83 42.85 44.94 42.85 45.06 42.85 45.18 42.79 45.29 42.79 45.41 42.79 45.53 42.79 45.64 42.79 45.76 42.79 45.88 42.79 45.99 42.79 46.11 42.79 46.23 42.79 46.34 42.79 46.46 42.79 46.58 42.79 46.69 42.79 46.81 42.79 46.93 42.79 47.04 42.79 47.16 42.79 47.28 42.79 47.39 42.79 47.74 42.79 48.32 42.79 48.44 42.79 48.56 42.79 48.67 42.79 48.79 42.79 48.91 42.79 49.02 42.79 49.49 42.79 49.61 42.79 50.19 42.79 50.42 42.79 50.54 42.85 50.66 42.85 50.77 42.85 50.89 42.85 51.01 42.85 51.12 42.85 51.47 42.85 51.59 42.85 51.82 42.85 51.94 42.85 52.05 42.85 52.4 42.85 52.64 42.85 52.99 42.85 53.45 42.85 53.69 42.85 54.04 42.85 54.85 42.85 55.32 42.85 55.43 42.72 55.55 42.72 55.67 42.66 55.78 42.66 55.9 42.66 56.13 42.66 56.25 42.66 56.37 42.66 56.48 42.66 56.6 42.66 56.72 42.66 56.83 42.66 57.07 42.6 57.18 42.6 57.3 42.6 57.77 42.6 57.88 42.6 58 42.6 58.23 42.6 58.47 42.6 58.58 42.6 58.93 42.6 59.51 42.6 60.1 42.6 60.68 42.6 60.8 42.6 60.91 42.6 61.03 42.16 61.15 42.23 61.38 42.16 61.61 42.16 62.08 42.16 62.2 42.16 62.31 42.16 62.43 42.16 62.55 42.16 62.66 42.23 62.78 42.16 64.18 42.1 64.41 42.04 64.53 42.04 64.76 42.04 65.23 42.04 65.46 42.04 65.69 42.04 66.16 42.04 66.39 42.04 66.51 42.04 66.74 42.04 66.86 42.04 66.97 42.04 67.09 42.04 67.21 42.04 67.32 42.04 67.56 42.04 67.67 42.04 67.91 42.04 68.14 42.04 68.26 42.04 68.37 42.04 68.61 42.04 68.72 42.04 69.31 42.04 69.77 42.1 69.89 42.04 70.82 42.04 70.94 41.91 71.05 41.91 71.4 41.91 71.52 41.91 71.64 41.98 71.87 41.98 72.1 41.98 72.34 41.98 73.39 41.98"/>
      </g>
      <g stroke-width="0.3" fill="#000000" fill-opacity="0.000" class="geometry color_newtests_fail" stroke-dasharray="none" stroke="#FF0000" id="img-9242d7ac-15">
        <path fill="none" d="M21.63,43.22 L 21.75 43.22 21.86 42.29 21.98 43.28 22.1 43.22 22.21 42.23 22.33 42.23 22.45 42.23 22.68 43.22 22.8 43.22 23.03 43.28 23.26 43.28 23.38 43.28 23.61 43.34 23.73 43.34 24.55 43.41 24.9 43.41 25.13 43.41 25.94 43.34 26.06 43.41 26.18 43.28 26.29 43.28 26.41 43.34 26.53 43.41 26.64 43.34 26.76 43.34 26.88 43.34 26.99 43.41 27.11 43.41 27.23 43.28 27.46 43.34 27.58 43.22 27.69 43.34 27.81 43.47 27.93 43.47 28.04 43.53 28.16 43.53 28.28 43.47 28.39 43.53 28.51 43.53 28.63 43.53 28.74 43.59 28.86 43.59 28.98 44.09 29.09 43.84 29.21 43.84 29.32 43.84 30.02 44.22 30.14 44.28 30.26 44.28 30.37 44.28 30.49 44.22 30.61 44.28 30.72 44.28 30.84 44.28 30.96 44.22 31.07 43.03 31.31 44.22 31.42 44.28 31.54 44.28 31.66 44.28 31.77 44.28 31.89 44.28 32.01 44.28 32.12 44.28 32.36 44.28 32.47 44.28 32.59 44.22 32.71 44.22 32.82 44.22 32.94 44.22 33.17 44.22 33.29 44.09 33.4 44.09 33.52 44.09 33.75 43.97 33.99 42.72 34.1 42.66 34.22 43.97 34.34 43.9 34.69 44.03 34.8 44.03 34.92 44.03 35.04 44.03 35.15 44.09 35.27 44.15 35.39 44.15 35.5 44.15 35.74 44.15 35.85 44.22 36.09 44.15 36.2 44.22 36.32 44.22 36.44 44.22 36.67 44.22 36.78 44.22 36.9 44.09 37.02 44.15 37.13 44.15 37.25 44.09 37.37 44.09 37.48 43.97 37.6 44.03 37.72 44.15 37.83 42.41 37.95 42.79 38.07 42.79 38.3 44.22 38.42 44.28 38.53 44.22 38.65 44.28 38.77 44.22 38.88 44.22 39 44.34 39.12 44.15 39.35 44.4 39.47 44.46 39.7 44.34 39.82 44.34 39.93 44.4 40.4 44.4 40.75 44.71 40.86 44.71 40.98 44.71 41.1 44.78 41.21 44.84 41.33 44.84 41.45 44.84 41.56 44.84 41.68 44.84 41.91 44.71 42.03 44.71 42.15 44.65 42.26 44.71 42.38 44.65 42.5 44.53 42.61 44.59 42.85 44.65 42.96 44.71 43.08 44.71 43.2 44.65 43.31 44.59 43.43 44.65 43.55 44.71 43.66 44.71 44.01 44.71 44.13 44.71 44.24 44.71 44.36 44.78 44.48 44.78 44.59 44.78 44.71 44.78 44.83 44.78 44.94 44.65 45.06 44.59 45.18 44.59 45.29 44.46 45.41 44.59 45.53 44.59 45.64 44.59 45.76 44.59 45.88 44.59 45.99 44.53 46.11 44.59 46.23 44.53 46.34 44.59 46.46 44.53 46.58 44.59 46.69 44.59 46.81 44.59 46.93 44.65 47.04 44.65 47.16 44.71 47.28 44.71 47.39 44.53 47.74 44.78 48.32 44.71 48.44 44.71 48.56 44.71 48.67 44.78 48.79 44.84 48.91 44.71 49.02 44.71 49.49 44.65 49.61 44.71 50.19 44.71 50.42 44.71 50.54 44.34 50.66 44.53 50.77 44.71 50.89 44.71 51.01 44.71 51.12 44.65 51.47 44.59 51.59 44.59 51.82 44.53 51.94 44.59 52.05 44.59 52.4 44.59 52.64 44.65 52.99 44.65 53.45 44.65 53.69 44.65 54.04 44.65 54.85 44.59 55.32 44.46 55.43 44.59 55.55 44.59 55.67 44.34 55.78 44.34 55.9 44.4 56.13 44.4 56.25 44.34 56.37 44.34 56.48 44.28 56.6 44.34 56.72 44.34 56.83 44.34 57.07 44.34 57.18 44.34 57.3 44.34 57.77 44.15 57.88 44.15 58 44.15 58.23 44.09 58.47 44.03 58.58 44.03 58.93 44.03 59.51 44.03 60.1 44.09 60.68 42.29 60.8 42.91 60.91 43.34 61.03 44.09 61.15 44.09 61.38 44.09 61.61 44.09 62.08 44.09 62.2 44.03 62.31 44.03 62.43 44.03 62.55 44.03 62.66 44.03 62.78 43.97 64.18 43.9 64.41 43.97 64.53 44.09 64.76 44.09 65.23 43.97 65.46 44.09 65.69 44.03 66.16 44.03 66.39 44.03 66.51 43.97 66.74 43.84 66.86 43.84 66.97 43.84 67.09 43.9 67.21 43.78 67.32 43.78 67.56 43.78 67.67 43.84 67.91 43.78 68.14 43.78 68.26 43.66 68.37 43.66 68.61 43.72 68.72 43.66 69.31 43.59 69.77 43.47 69.89 43.47 70.82 43.22 70.94 43.22 71.05 43.22 71.4 43.22 71.52 43.22 71.64 43.28 71.87 43.34 72.1 43.28 72.34 43.28 73.39 43.41"/>
      </g>
      <g stroke-width="0.3" fill="#000000" fill-opacity="0.000" class="geometry color_newno_tests" stroke-dasharray="none" stroke="#0000FF" id="img-9242d7ac-16">
        <path fill="none" d="M21.63,42.35 L 21.75 42.35 21.86 42.35 21.98 42.35 22.1 42.35 22.21 42.41 22.33 42.41 22.45 42.35 22.68 42.29 22.8 42.29 23.03 42.29 23.26 42.16 23.38 42.16 23.61 42.16 23.73 42.16 24.55 42.16 24.9 42.16 25.13 42.16 25.94 42.1 26.06 42.1 26.18 42.1 26.29 42.1 26.41 42.1 26.53 42.1 26.64 42.1 26.76 42.1 26.88 42.1 26.99 42.23 27.11 42.23 27.23 42.23 27.46 42.29 27.58 42.29 27.69 42.29 27.81 42.23 27.93 42.23 28.04 42.35 28.16 42.41 28.28 42.41 28.39 42.41 28.51 42.41 28.63 42.41 28.74 42.41 28.86 42.41 28.98 42.16 29.09 42.23 29.21 42.23 29.32 42.23 30.02 42.23 30.14 42.23 30.26 42.23 30.37 42.29 30.49 42.29 30.61 42.29 30.72 42.29 30.84 42.35 30.96 42.35 31.07 42.54 31.31 42.47 31.42 42.35 31.54 42.35 31.66 42.35 31.77 42.35 31.89 42.35 32.01 42.35 32.12 42.35 32.36 42.41 32.47 42.35 32.59 42.35 32.71 42.35 32.82 42.47 32.94 42.47 33.17 42.47 33.29 42.47 33.4 42.47 33.52 42.47 33.75 42.35 33.99 42.54 34.1 42.47 34.22 42.41 34.34 42.41 34.69 42.41 34.8 42.41 34.92 42.41 35.04 42.41 35.15 42.47 35.27 42.47 35.39 42.47 35.5 42.54 35.74 42.54 35.85 42.54 36.09 42.54 36.2 42.54 36.32 42.54 36.44 42.54 36.67 42.41 36.78 42.47 36.9 42.47 37.02 42.41 37.13 42.41 37.25 42.41 37.37 42.41 37.48 42.41 37.6 42.41 37.72 42.41 37.83 42.79 37.95 42.79 38.07 42.79 38.3 42.35 38.42 42.35 38.53 42.41 38.65 42.41 38.77 42.47 38.88 42.41 39 42.41 39.12 42.47 39.35 42.85 39.47 42.91 39.7 42.91 39.82 42.91 39.93 42.91 40.4 42.91 40.75 42.85 40.86 42.85 40.98 42.79 41.1 42.79 41.21 42.79 41.33 42.85 41.45 42.85 41.56 42.91 41.68 42.91 41.91 42.91 42.03 42.85 42.15 42.85 42.26 42.85 42.38 42.85 42.5 42.91 42.61 42.91 42.85 42.85 42.96 42.85 43.08 42.85 43.2 42.85 43.31 42.6 43.43 42.85 43.55 42.85 43.66 42.85 44.01 42.91 44.13 42.91 44.24 42.85 44.36 42.85 44.48 42.85 44.59 42.85 44.71 42.85 44.83 42.85 44.94 42.85 45.06 42.85 45.18 42.85 45.29 42.91 45.41 42.85 45.53 42.85 45.64 42.85 45.76 42.85 45.88 42.85 45.99 42.91 46.11 42.85 46.23 42.91 46.34 42.85 46.46 42.85 46.58 42.85 46.69 42.85 46.81 42.85 46.93 42.85 47.04 42.85 47.16 42.85 47.28 42.85 47.39 42.85 47.74 42.85 48.32 42.85 48.44 42.85 48.56 42.85 48.67 42.85 48.79 42.85 48.91 42.85 49.02 42.85 49.49 42.91 49.61 42.85 50.19 42.85 50.42 42.85 50.54 42.85 50.66 42.91 50.77 42.85 50.89 42.85 51.01 42.85 51.12 42.91 51.47 42.85 51.59 42.85 51.82 42.85 51.94 42.79 52.05 42.79 52.4 42.85 52.64 42.79 52.99 42.79 53.45 42.85 53.69 42.79 54.04 42.79 54.85 42.79 55.32 42.79 55.43 42.79 55.55 42.79 55.67 42.85 55.78 42.79 55.9 42.79 56.13 42.79 56.25 42.85 56.37 42.85 56.48 42.85 56.6 42.79 56.72 42.79 56.83 42.79 57.07 42.79 57.18 42.79 57.3 42.79 57.77 42.79 57.88 42.79 58 42.79 58.23 42.79 58.47 42.79 58.58 42.79 58.93 42.79 59.51 42.79 60.1 42.79 60.68 42.97 60.8 42.91 60.91 42.91 61.03 42.91 61.15 42.85 61.38 42.85 61.61 42.85 62.08 42.85 62.2 42.85 62.31 42.91 62.43 42.91 62.55 42.91 62.66 42.91 62.78 42.91 64.18 42.97 64.41 42.97 64.53 42.97 64.76 43.03 65.23 43.03 65.46 43.03 65.69 43.03 66.16 43.03 66.39 43.03 66.51 43.03 66.74 43.03 66.86 43.03 66.97 43.03 67.09 43.03 67.21 43.03 67.32 43.03 67.56 43.03 67.67 43.03 67.91 43.1 68.14 43.03 68.26 43.03 68.37 43.03 68.61 43.1 68.72 43.03 69.31 43.1 69.77 43.1 69.89 43.1 70.82 43.1 70.94 43.1 71.05 43.1 71.4 43.16 71.52 43.16 71.64 43.1 71.87 43.1 72.1 43.1 72.34 43.16 73.39 43.1"/>
      </g>
      <g stroke-width="0.3" fill="#000000" fill-opacity="0.000" class="geometry color_oldfull_fail" stroke-dasharray="none" stroke="#FFA500" id="img-9242d7ac-17">
        <path fill="none" d="M21.63,43.16 L 21.75 43.16 21.86 43.59 21.98 42.91 22.1 42.97 22.21 43.47 22.33 43.34 22.45 43.47 22.68 42.6 22.8 42.6 23.03 42.54 23.26 42.79 23.38 42.66 23.61 42.85 23.73 42.79 24.55 42.91 24.9 42.91 25.13 42.91 25.94 42.85 26.06 42.72 26.18 42.1 26.29 42.1 26.41 42.41 26.53 42.41 26.64 42.6 26.76 42.6 26.88 42.6 26.99 42.85 27.11 42.85 27.23 43.16 27.46 43.16 27.58 43.1 27.69 42.97 27.81 43.03 27.93 43.03 28.04 43.16 28.16 43.16 28.28 43.16 28.39 43.03 28.51 43.28 28.63 43.22 28.74 43.16 28.86 43.03 28.98 45.71 29.09 43.28 29.21 42.97 29.32 43.1 30.02 42.97 30.14 43.22 30.26 43.47 30.37 43.47 30.49 43.41 30.61 43.66 30.72 43.59 30.84 43.59 30.96 43.66 31.07 43.84 31.31 43.53 31.42 43.59 31.54 43.72 31.66 43.59 31.77 43.72 31.89 43.72 32.01 43.47 32.12 43.53 32.36 43.78 32.47 43.78 32.59 43.78 32.71 43.72 32.82 43.66 32.94 43.78 33.17 43.78 33.29 43.84 33.4 43.9 33.52 43.9 33.75 43.78 33.99 43.34 34.1 43.66 34.22 43.59 34.34 43.59 34.69 43.59 34.8 43.59 34.92 43.41 35.04 43.53 35.15 43.47 35.27 43.47 35.39 43.59 35.5 43.53 35.74 43.59 35.85 43.66 36.09 43.66 36.2 43.66 36.32 43.66 36.44 43.66 36.67 43.66 36.78 43.66 36.9 43.66 37.02 43.59 37.13 43.59 37.25 43.53 37.37 43.66 37.48 43.53 37.6 43.47 37.72 43.47 37.83 43.34 37.95 43.28 38.07 43.34 38.3 43.22 38.42 43.28 38.53 43.47 38.65 43.28 38.77 43.28 38.88 43.34 39 43.16 39.12 43.22 39.35 43.53 39.47 43.47 39.7 43.47 39.82 43.47 39.93 43.47 40.4 43.47 40.75 43.41 40.86 43.34 40.98 43.41 41.1 43.28 41.21 43.28 41.33 43.47 41.45 43.16 41.56 43.1 41.68 43.1 41.91 43.16 42.03 43.28 42.15 43.22 42.26 43.28 42.38 43.28 42.5 43.16 42.61 43.28 42.85 43.41 42.96 43.41 43.08 43.41 43.2 43.41 43.31 43.22 43.43 43.47 43.55 43.47 43.66 43.47 44.01 43.1 44.13 43.28 44.24 43.28 44.36 43.41 44.48 43.28 44.59 43.41 44.71 43.41 44.83 43.34 44.94 43.34 45.06 43.28 45.18 43.47 45.29 43.41 45.41 43.34 45.53 43.41 45.64 43.41 45.76 43.34 45.88 43.47 45.99 43.28 46.11 43.28 46.23 43.41 46.34 43.34 46.46 43.28 46.58 43.28 46.69 43.28 46.81 43.22 46.93 43.28 47.04 43.41 47.16 43.22 47.28 43.28 47.39 43.28 47.74 43.16 48.32 43.16 48.44 43.03 48.56 43.03 48.67 42.91 48.79 42.97 48.91 43.16 49.02 43.16 49.49 43.1 49.61 43.1 50.19 42.97 50.42 42.97 50.54 42.72 50.66 42.85 50.77 42.91 50.89 43.03 51.01 43.03 51.12 42.91 51.47 42.79 51.59 42.79 51.82 42.72 51.94 42.54 52.05 42.85 52.4 42.79 52.64 42.91 52.99 42.85 53.45 42.72 53.69 42.85 54.04 42.6 54.85 42.47 55.32 42.54 55.43 42.54 55.55 42.54 55.67 42.23 55.78 42.1 55.9 42.04 56.13 42.16 56.25 42.16 56.37 42.16 56.48 42.1 56.6 41.91 56.72 42.23 56.83 42.23 57.07 42.23 57.18 42.23 57.3 42.29 57.77 42.1 57.88 42.23 58 42.04 58.23 42.47 58.47 42.47 58.58 42.41 58.93 42.29 59.51 42.29 60.1 42.35 60.68 41.85 60.8 41.6 60.91 41.67 61.03 41.6 61.15 41.91 61.38 41.85 61.61 41.91 62.08 41.67 62.2 41.73 62.31 41.91 62.43 41.79 62.55 41.85 62.66 41.73 62.78 41.91 64.18 41.85 64.41 41.91 64.53 41.73 64.76 41.91 65.23 42.04 65.46 41.98 65.69 41.67 66.16 41.85 66.39 41.73 66.51 42.23 66.74 42.35 66.86 42.16 66.97 42.23 67.09 42.1 67.21 42.16 67.32 42.41 67.56 42.23 67.67 42.16 67.91 42.35 68.14 42.29 68.26 42.16 68.37 42.29 68.61 42.16 68.72 42.1 69.31 41.91 69.77 42.1 69.89 42.1 70.82 42.16 70.94 42.23 71.05 42.16 71.4 42.41 71.52 42.41 71.64 42.35 71.87 42.04 72.1 42.16 72.34 42.1 73.39 42.23"/>
      </g>
      <g stroke-width="0.3" fill="#000000" fill-opacity="0.000" class="geometry color_newtests_pass" stroke-dasharray="none" stroke="#008000" id="img-9242d7ac-18">
        <path fill="none" d="M21.63,37.69 L 21.75 37.69 21.86 38.12 21.98 37.81 22.1 37.81 22.21 38.25 22.33 38.37 22.45 38.25 22.68 38.18 22.8 38.12 23.03 38.06 23.26 37.81 23.38 37.93 23.61 37.69 23.73 37.69 24.55 37.25 24.9 37.25 25.13 37.25 25.94 37.31 26.06 37.25 26.18 37.93 26.29 37.93 26.41 37.56 26.53 37.56 26.64 37.44 26.76 37.44 26.88 37.44 26.99 37.13 27.11 37.13 27.23 36.75 27.46 36.63 27.58 36.38 27.69 36.38 27.81 36.13 27.93 36.13 28.04 35.82 28.16 35.7 28.28 35.76 28.39 35.82 28.51 35.57 28.63 35.63 28.74 35.57 28.86 35.7 28.98 35.26 29.09 35.32 29.21 35.57 29.32 35.38 30.02 35.07 30.14 34.76 30.26 34.45 30.37 34.33 30.49 34.33 30.61 34.08 30.72 34.14 30.84 34.08 30.96 34.02 31.07 34.76 31.31 33.95 31.42 33.83 31.54 33.71 31.66 33.83 31.77 33.71 31.89 33.71 32.01 33.77 32.12 33.71 32.36 33.33 32.47 33.27 32.59 33.27 32.71 33.27 32.82 33.21 32.94 32.96 33.17 32.9 33.29 32.77 33.4 32.71 33.52 32.71 33.75 32.77 33.99 34.08 34.1 33.89 34.22 32.65 34.34 32.71 34.69 32.52 34.8 32.52 34.92 32.65 35.04 32.52 35.15 32.46 35.27 32.34 35.39 32.21 35.5 32.15 35.74 32.09 35.85 31.96 36.09 32.03 36.2 31.9 36.32 31.71 36.44 31.71 36.67 31.78 36.78 31.71 36.9 31.71 37.02 31.71 37.13 31.65 37.25 31.71 37.37 31.53 37.48 31.65 37.6 31.71 37.72 31.59 37.83 33.02 37.95 32.71 38.07 32.65 38.3 31.59 38.42 31.47 38.53 31.22 38.65 31.34 38.77 31.34 38.88 31.16 39 31.16 39.12 31.16 39.35 30.97 39.47 30.78 39.7 30.78 39.82 30.78 39.93 30.78 40.4 30.78 40.75 30.22 40.86 30.22 40.98 30.16 41.1 30.1 41.21 30.04 41.33 29.79 41.45 29.6 41.56 29.6 41.68 29.6 41.91 29.72 42.03 29.6 42.15 29.66 42.26 29.54 42.38 29.6 42.5 29.72 42.61 29.6 42.85 29.54 42.96 29.41 43.08 29.41 43.2 29.35 43.31 28.79 43.43 29.23 43.55 29.16 43.66 29.04 44.01 29.23 44.13 29.1 44.24 29.04 44.36 28.79 44.48 28.92 44.59 28.79 44.71 28.67 44.83 28.73 44.94 28.79 45.06 28.85 45.18 28.73 45.29 28.85 45.41 28.85 45.53 28.73 45.64 28.61 45.76 28.67 45.88 28.54 45.99 28.67 46.11 28.67 46.23 28.48 46.34 28.54 46.46 28.54 46.58 28.42 46.69 28.42 46.81 28.42 46.93 28.29 47.04 28.17 47.16 28.23 47.28 28.17 47.39 28.29 47.74 28.17 48.32 27.92 48.44 27.92 48.56 27.92 48.67 27.92 48.79 27.8 48.91 27.55 49.02 27.55 49.49 27.3 49.61 27.3 50.19 27.36 50.42 27.36 50.54 27.86 50.66 27.42 50.77 27.24 50.89 27.11 51.01 26.99 51.12 27.05 51.47 27.17 51.59 27.11 51.82 27.05 51.94 27.17 52.05 26.86 52.4 26.86 52.64 26.61 52.99 26.55 53.45 26.49 53.69 26.24 54.04 26.24 54.85 26.06 55.32 25.68 55.43 25.56 55.55 25.56 55.67 25.81 55.78 25.99 55.9 25.99 56.13 25.87 56.25 25.74 56.37 25.74 56.48 25.68 56.6 25.81 56.72 25.5 56.83 25.5 57.07 25.37 57.18 25.25 57.3 25.12 57.77 25 57.88 25 58 25.18 58.23 24.62 58.47 24.5 58.58 24.56 58.93 24.56 59.51 24.56 60.1 24.07 60.68 25.93 60.8 25.62 60.91 25.12 61.03 24.75 61.15 24.44 61.38 24.56 61.61 24.5 62.08 24.62 62.2 24.5 62.31 24.19 62.43 24.31 62.55 24.13 62.66 24.25 62.78 24.07 64.18 24.13 64.41 24.07 64.53 23.94 64.76 23.69 65.23 23.63 65.46 23.57 65.69 23.75 66.16 23.57 66.39 23.57 66.51 23.07 66.74 22.76 66.86 22.95 66.97 22.82 67.09 22.7 67.21 22.76 67.32 22.45 67.56 22.57 67.67 22.51 67.91 22.32 68.14 22.32 68.26 22.39 68.37 22.2 68.61 22.07 68.72 22.2 69.31 22.14 69.77 21.89 69.89 21.83 70.82 21.76 70.94 21.83 71.05 21.89 71.4 21.39 71.52 21.33 71.64 21.27 71.87 21.39 72.1 21.33 72.34 21.27 73.39 20.77"/>
      </g>
    </g>
  </g>
</g>
  <g class="guide ylabels" font-size="2.82" font-family="'PT Sans Caption','Helvetica Neue','Helvetica',sans-serif" fill="#6C606B" id="img-9242d7ac-19">
    <text x="18.63" y="45.71" text-anchor="end" dy="0.35em">0</text>
    <text x="18.63" y="39.49" text-anchor="end" dy="0.35em">100</text>
    <text x="18.63" y="33.27" text-anchor="end" dy="0.35em">200</text>
    <text x="18.63" y="27.05" text-anchor="end" dy="0.35em">300</text>
    <text x="18.63" y="20.83" text-anchor="end" dy="0.35em">400</text>
    <text x="18.63" y="14.61" text-anchor="end" dy="0.35em">500</text>
  </g>
  <g font-size="3.88" font-family="'PT Sans','Helvetica Neue','Helvetica',sans-serif" fill="#564A55" stroke="#000000" stroke-opacity="0.000" id="img-9242d7ac-20">
    <text x="8.81" y="28.16" text-anchor="middle" dy="0.35em" transform="rotate(-90, 8.81, 30.16)">Number of Packages</text>
  </g>
  <g font-size="3.88" font-family="'PT Sans','Helvetica Neue','Helvetica',sans-serif" fill="#564A55" stroke="#000000" stroke-opacity="0.000" id="img-9242d7ac-21">
    <text x="58.12" y="10.61" text-anchor="middle">Julia v0.3</text>
  </g>
</g>
<defs>
  <clipPath id="img-9242d7ac-4">
  <path d="M19.63,12.61 L 96.6 12.61 96.6 47.71 19.63 47.71" />
</clipPath>
</defs>
</svg>
