<?xml version="1.0" encoding="UTF-8"?>
<svg xmlns="http://www.w3.org/2000/svg"
     xmlns:xlink="http://www.w3.org/1999/xlink"
     xmlns:gadfly="http://www.gadflyjl.org/ns"
     version="1.2"
     width="101.6mm" height="76.2mm" viewBox="0 0 101.6 76.2"
     stroke="none"
     fill="#000000"
     stroke-width="0.3"
     font-size="3.88"
>
<g class="plotroot xscalable yscalable" id="img-2312fbe8-1">
  <g font-size="3.88" font-family="'PT Sans','Helvetica Neue','Helvetica',sans-serif" fill="#564A55" stroke="#000000" stroke-opacity="0.000" id="img-2312fbe8-2">
    <text x="58.12" y="64.59" text-anchor="middle" dy="0.6em">Date</text>
  </g>
  <g class="guide xlabels" font-size="2.82" font-family="'PT Sans Caption','Helvetica Neue','Helvetica',sans-serif" fill="#6C606B" id="img-2312fbe8-3">
    <text x="21.63" y="57.91" text-anchor="middle" dy="0.6em">2014</text>
    <text x="45.93" y="57.91" text-anchor="middle" dy="0.6em">2015</text>
    <text x="70.23" y="57.91" text-anchor="middle" dy="0.6em">2016</text>
    <text x="94.6" y="57.91" text-anchor="middle" dy="0.6em">2017</text>
  </g>
<g clip-path="url(#img-2312fbe8-4)">
  <g id="img-2312fbe8-5">
    <g pointer-events="visible" opacity="1" fill="#000000" fill-opacity="0.000" stroke="#000000" stroke-opacity="0.000" class="guide background" id="img-2312fbe8-6">
      <rect x="19.63" y="12.61" width="76.97" height="44.3"/>
    </g>
    <g class="guide ygridlines xfixed" stroke-dasharray="0.5,0.5" stroke-width="0.2" stroke="#D0D0E0" id="img-2312fbe8-7">
      <path fill="none" d="M19.63,54.91 L 96.6 54.91"/>
      <path fill="none" d="M19.63,48.2 L 96.6 48.2"/>
      <path fill="none" d="M19.63,41.48 L 96.6 41.48"/>
      <path fill="none" d="M19.63,34.76 L 96.6 34.76"/>
      <path fill="none" d="M19.63,28.05 L 96.6 28.05"/>
      <path fill="none" d="M19.63,21.33 L 96.6 21.33"/>
      <path fill="none" d="M19.63,14.61 L 96.6 14.61"/>
    </g>
    <g class="guide xgridlines yfixed" stroke-dasharray="0.5,0.5" stroke-width="0.2" stroke="#D0D0E0" id="img-2312fbe8-8">
      <path fill="none" d="M21.63,12.61 L 21.63 56.91"/>
      <path fill="none" d="M45.93,12.61 L 45.93 56.91"/>
      <path fill="none" d="M70.23,12.61 L 70.23 56.91"/>
      <path fill="none" d="M94.6,12.61 L 94.6 56.91"/>
    </g>
    <g class="plotpanel" id="img-2312fbe8-9">
      <g stroke-width="0.3" fill="#000000" fill-opacity="0.000" class="geometry color_newnot_possible" stroke-dasharray="none" stroke="#808080" id="img-2312fbe8-10">
        <path fill="none" d="M57.25,51.29 L 57.32 51.29 57.38 51.29 57.45 51.29 57.52 51.29 57.58 51.29 57.65 51.29 57.72 51.29 57.92 51.29 58.05 51.29 58.18 51.29 58.25 51.29 58.32 51.29 58.38 51.29 58.45 51.29 58.52 51.29 59.65 51.22 60.18 51.22 60.78 51.22 61.91 51.22 62.11 51.22 62.44 51.22 62.78 50.82 63.84 50.82 64.11 50.82 64.44 50.75 64.71 50.68 64.97 50.68 65.17 50.62 65.97 50.62 66.77 50.55 67.04 50.55 67.17 50.48 67.77 50.48 67.84 50.48 68.3 50.48 68.37 50.41 68.83 50.41 69.17 50.41 70.63 50.41 72.03 50.41"/>
      </g>
      <g stroke-width="0.3" fill="#000000" fill-opacity="0.000" class="geometry color_newno_tests" stroke-dasharray="none" stroke="#0000FF" id="img-2312fbe8-11">
        <path fill="none" d="M57.25,47.66 L 57.32 47.66 57.38 47.66 57.45 47.66 57.52 47.66 57.58 47.66 57.65 47.66 57.72 47.66 57.92 47.66 58.05 47.66 58.18 47.66 58.25 47.66 58.32 47.73 58.38 47.73 58.45 47.73 58.52 47.79 59.65 47.73 60.18 47.73 60.78 47.73 61.91 47.73 62.11 47.79 62.44 47.79 62.78 47.86 63.84 48.13 64.11 48.33 64.44 48.47 64.71 49.61 64.97 49.68 65.17 49.81 65.97 49.88 66.77 49.94 67.04 49.94 67.17 49.94 67.77 49.94 67.84 49.94 68.3 49.94 68.37 49.94 68.83 49.94 69.17 49.94 70.63 50.01 72.03 50.08"/>
      </g>
      <g stroke-width="0.3" fill="#000000" fill-opacity="0.000" class="geometry color_newtests_fail" stroke-dasharray="none" stroke="#FF0000" id="img-2312fbe8-12">
        <path fill="none" d="M57.25,41.21 L 57.32 41.68 57.38 41.55 57.45 40.2 57.52 40.14 57.58 40.34 57.65 40.34 57.72 41.41 57.92 40.81 58.05 40.81 58.18 41.55 58.25 41.68 58.32 40.14 58.38 41.48 58.45 40.47 58.52 40.94 59.65 41.48 60.18 41.08 60.78 41.68 61.91 41.41 62.11 41.75 62.44 42.09 62.78 43.03 63.84 42.82 64.11 43.23 64.44 43.43 64.71 44.1 64.97 44.37 65.17 44.84 65.97 44.57 66.77 44.7 67.04 44.91 67.17 45.11 67.77 45.11 67.84 45.31 68.3 45.04 68.37 45.38 68.83 44.91 69.17 44.84 70.63 45.38 72.03 44.77"/>
      </g>
      <g stroke-width="0.3" fill="#000000" fill-opacity="0.000" class="geometry color_newtests_pass" stroke-dasharray="none" stroke="#008000" id="img-2312fbe8-13">
        <path fill="none" d="M57.25,38.32 L 57.32 37.85 57.38 37.85 57.45 39.2 57.52 39.06 57.58 38.86 57.65 38.86 57.72 37.72 57.92 38.26 58.05 38.12 58.18 37.38 58.25 37.11 58.32 38.32 58.38 36.85 58.45 37.79 58.52 37.25 59.65 35.84 60.18 35.84 60.78 34.9 61.91 33.49 62.11 32.95 62.44 32.35 62.78 31.27 63.84 29.93 64.11 28.92 64.44 28.05 64.71 27.98 64.97 27.31 65.17 26.57 65.97 25.29 66.77 24.42 67.04 24.15 67.17 23.75 67.77 23.48 67.84 23.28 68.3 23.21 68.37 22.87 68.83 22.81 69.17 22.67 70.63 20.93 72.03 20.19"/>
      </g>
      <g stroke-width="0.3" fill="#000000" fill-opacity="0.000" class="geometry color_newnot_possible" stroke-dasharray="none" stroke="#808080" id="img-2312fbe8-14">
        <path fill="none" d="M36.54,52.36 L 36.61 52.3 36.68 52.23 36.74 52.23 36.81 52.23 36.88 52.23 37.01 52.23 37.08 52.23 37.14 52.23 37.21 52.23 37.28 52.23 37.34 52.23 37.41 52.23 37.48 52.23 37.61 52.23 37.68 52.16 37.81 52.16 37.88 52.16 37.94 52.09 38.21 52.09 38.41 52.09 38.48 52.09 38.54 52.09 38.61 52.09 38.68 52.09 38.74 52.09 38.81 52.09 38.88 52.09 38.94 52.09 39.07 52.03 39.14 52.03 39.21 52.03 39.27 52.03 39.34 52.03 39.41 52.03 39.47 51.96 39.61 51.96 39.67 51.96 39.74 51.96 39.81 51.96 39.87 51.89 39.94 51.89 40.01 51.89 40.07 51.89 40.27 51.89 40.34 51.83 40.41 51.83 40.47 51.83 40.54 51.83 40.61 51.83 40.67 51.83 40.74 51.83 40.81 51.83 40.87 51.83 40.94 51.76 41.01 51.76 41.07 51.76 41.14 51.76 41.21 51.76 41.27 51.76 41.34 51.76 41.41 51.76 41.47 51.76 41.54 51.76 41.6 51.76 41.67 51.76 41.74 51.76 41.8 51.76 41.87 51.76 41.94 51.76 42 51.76 42.07 51.76 42.14 51.76 42.2 51.76 42.4 51.76 42.74 51.76 42.8 51.76 42.87 51.76 42.94 51.76 43 51.76 43.07 51.76 43.14 51.76 43.4 51.76 43.47 51.76 43.8 51.76 43.93 51.76 44 51.83 44.07 51.83 44.13 51.83 44.2 51.83 44.27 51.83 44.33 51.83 44.53 51.83 44.6 51.83 44.73 51.83 44.8 51.83 44.87 51.83 45.07 51.83 45.2 51.83 45.4 51.83 45.67 51.83 45.8 51.83 46 51.83 46.46 51.83 46.73 51.83 46.8 51.69 46.86 51.69 46.93 51.62 47 51.62 47.06 51.62 47.2 51.62 47.26 51.62 47.33 51.62 47.4 51.56 47.46 51.56 47.53 51.56 47.6 51.56 47.73 51.49 47.8 51.49 47.86 51.49 48.13 51.49 48.2 51.49 48.26 51.49 48.4 51.49 48.53 51.49 48.6 51.49 48.8 51.49 49.13 51.49 49.46 51.49 49.79 51.49 49.86 51.49 49.93 51.49 49.99 51.02 50.06 51.09 50.19 51.02 50.33 51.02 50.59 51.02 50.66 51.02 50.73 51.02 50.79 51.02 50.86 51.02 50.93 51.09 50.99 51.02 51.79 50.95 51.92 50.88 51.99 50.88 52.12 50.88 52.39 50.88 52.52 50.88 52.66 50.88 52.92 50.88 53.06 50.88 53.12 50.88 53.26 50.88 53.32 50.88 53.39 50.88 53.46 50.88 53.52 50.88 53.59 50.88 53.72 50.88 53.79 50.88 53.92 50.88 54.05 50.88 54.12 50.88 54.19 50.88 54.32 50.88 54.39 50.88 54.72 50.88 54.99 50.95 55.05 50.88 55.59 50.88 55.65 50.75 55.72 50.75 55.92 50.75 55.99 50.75 56.05 50.82 56.19 50.82 56.32 50.82 56.45 50.82 57.05 50.82"/>
      </g>
      <g stroke-width="0.3" fill="#000000" fill-opacity="0.000" class="geometry color_newtests_fail" stroke-dasharray="none" stroke="#FF0000" id="img-2312fbe8-15">
        <path fill="none" d="M36.54,53.44 L 36.61 53.37 36.68 53.57 36.74 52.09 36.81 52.09 36.88 52.09 37.01 53.5 37.08 53.57 37.14 53.5 37.21 53.64 37.28 53.71 37.34 53.64 37.41 53.64 37.48 53.71 37.61 53.24 37.68 53.1 37.81 53.03 37.88 53.03 37.94 53.1 38.21 53.1 38.41 53.24 38.48 53.24 38.54 53.24 38.61 53.3 38.68 53.37 38.74 53.57 38.81 53.57 38.88 53.57 38.94 53.57 39.07 53.44 39.14 53.37 39.21 53.44 39.27 53.44 39.34 53.5 39.41 53.37 39.47 53.24 39.61 53.71 39.67 51.62 39.74 51.56 39.81 52.83 39.87 52.83 39.94 52.9 40.01 52.9 40.07 52.9 40.27 51.62 40.34 52.63 40.41 52.83 40.47 52.9 40.54 52.97 40.61 52.83 40.67 52.97 40.74 52.97 40.81 52.83 40.87 52.77 40.94 52.56 41.01 52.7 41.07 52.9 41.14 52.9 41.21 52.9 41.27 47.59 41.34 47.59 41.41 47.59 41.47 48.33 41.54 48.33 41.6 52.7 41.67 52.77 41.74 52.83 41.8 52.83 41.87 52.83 41.94 52.83 42 52.83 42.07 52.83 42.14 52.9 42.2 52.83 42.4 53.03 42.74 52.97 42.8 52.97 42.87 52.97 42.94 52.97 43 52.97 43.07 52.9 43.14 52.9 43.4 52.9 43.47 52.83 43.8 52.97 43.93 53.03 44 52.63 44.07 52.97 44.13 52.9 44.2 52.97 44.27 52.97 44.33 52.97 44.53 53.17 44.6 53.17 44.73 52.43 44.8 52.43 44.87 52.43 45.07 52.43 45.2 52.43 45.4 53.24 45.67 53.24 45.8 53.17 46 53.24 46.46 53.1 46.73 52.97 46.8 53.1 46.86 53.1 46.93 52.9 47 52.5 47.06 52.5 47.2 52.5 47.26 52.5 47.33 52.5 47.4 52.5 47.46 52.5 47.53 52.5 47.6 52.5 47.73 52.5 47.8 52.43 47.86 52.43 48.13 52.09 48.2 52.09 48.26 52.09 48.4 52.03 48.53 47.66 48.6 52.03 48.8 51.83 49.13 51.83 49.46 51.76 49.79 50.08 49.86 50.68 49.93 51.22 49.99 51.96 50.06 52.16 50.19 52.16 50.33 51.76 50.59 51.83 50.66 51.83 50.73 51.76 50.79 51.76 50.86 44.84 50.93 43.03 50.99 44.03 51.79 50.28 51.92 50.48 51.99 51.69 52.12 51.76 52.39 51.76 52.52 51.76 52.66 51.83 52.92 51.76 53.06 40.88 53.12 44.1 53.26 46.25 53.32 46.25 53.39 46.25 53.46 45.91 53.52 45.98 53.59 46.32 53.72 46.45 53.79 46.32 53.92 41.82 54.05 42.02 54.12 43.29 54.19 43.29 54.32 43.83 54.39 44.57 54.72 44.84 54.99 45.18 55.05 45.11 55.59 45.98 55.65 46.05 55.72 46.12 55.92 45.98 55.99 45.98 56.05 45.98 56.19 46.18 56.32 46.05 56.45 46.12 57.05 45.85"/>
      </g>
      <g stroke-width="0.3" fill="#000000" fill-opacity="0.000" class="geometry color_newno_tests" stroke-dasharray="none" stroke="#0000FF" id="img-2312fbe8-16">
        <path fill="none" d="M36.54,51.69 L 36.61 51.62 36.68 51.62 36.74 52.03 36.81 52.03 36.88 52.03 37.01 51.69 37.08 51.69 37.14 51.76 37.21 51.76 37.28 51.76 37.34 51.76 37.41 51.76 37.48 51.83 37.61 52.03 37.68 52.09 37.81 52.09 37.88 52.09 37.94 52.09 38.21 52.09 38.41 52.03 38.48 52.03 38.54 51.96 38.61 51.96 38.68 51.96 38.74 51.96 38.81 51.96 38.88 52.03 38.94 52.03 39.07 51.96 39.14 52.03 39.21 51.96 39.27 51.96 39.34 51.96 39.41 51.96 39.47 52.09 39.61 51.96 39.67 52.16 39.74 52.16 39.81 51.96 39.87 51.96 39.94 51.96 40.01 51.96 40.07 51.96 40.27 52.23 40.34 52.03 40.41 51.96 40.47 51.96 40.54 51.96 40.61 51.96 40.67 51.96 40.74 51.96 40.81 51.96 40.87 51.96 40.94 51.96 41.01 51.96 41.07 51.96 41.14 51.96 41.21 51.96 41.27 52.36 41.34 52.36 41.41 52.36 41.47 52.23 41.54 52.23 41.6 51.96 41.67 51.96 41.74 51.96 41.8 51.96 41.87 51.96 41.94 51.96 42 51.96 42.07 51.96 42.14 51.96 42.2 51.96 42.4 51.96 42.74 51.96 42.8 51.96 42.87 51.96 42.94 51.96 43 51.96 43.07 51.96 43.14 51.96 43.4 51.96 43.47 51.96 43.8 51.96 43.93 51.96 44 51.96 44.07 51.96 44.13 52.03 44.2 51.96 44.27 51.96 44.33 51.96 44.53 51.96 44.6 51.96 44.73 51.96 44.8 51.96 44.87 51.96 45.07 51.96 45.2 51.96 45.4 51.89 45.67 51.96 45.8 51.89 46 51.89 46.46 51.89 46.73 51.89 46.8 51.89 46.86 51.89 46.93 51.89 47 51.89 47.06 51.89 47.2 51.89 47.26 51.89 47.33 51.89 47.4 51.89 47.46 51.89 47.53 51.89 47.6 51.89 47.73 51.89 47.8 51.89 47.86 51.89 48.13 51.96 48.2 51.96 48.26 51.96 48.4 51.96 48.53 52.09 48.6 51.89 48.8 51.89 49.13 51.89 49.46 51.89 49.79 52.09 49.86 52.03 49.93 52.03 49.99 52.03 50.06 51.96 50.19 51.96 50.33 52.03 50.59 52.03 50.66 52.03 50.73 52.09 50.79 52.09 50.86 52.83 50.93 52.9 50.99 52.9 51.79 52.09 51.92 52.09 51.99 52.09 52.12 52.09 52.39 52.09 52.52 52.09 52.66 52.09 52.92 52.16 53.06 52.7 53.12 52.56 53.26 52.5 53.32 52.43 53.39 52.5 53.46 52.5 53.52 52.5 53.59 52.5 53.72 52.5 53.79 52.56 53.92 52.77 54.05 52.63 54.12 52.56 54.19 52.56 54.32 52.56 54.39 52.5 54.72 52.5 54.99 52.43 55.05 52.43 55.59 52.36 55.65 52.36 55.72 52.36 55.92 52.36 55.99 52.36 56.05 52.36 56.19 52.36 56.32 52.36 56.45 52.36 57.05 52.36"/>
      </g>
      <g stroke-width="0.3" fill="#000000" fill-opacity="0.000" class="geometry color_oldfull_fail" stroke-dasharray="none" stroke="#FFA500" id="img-2312fbe8-17">
        <path fill="none" d="M36.54,52.77 L 36.61 52.77 36.68 52.16 36.74 52.09 36.81 52.03 36.88 52.03 37.01 52.03 37.08 52.09 37.14 52.23 37.21 52.03 37.28 51.96 37.34 52.09 37.41 52.16 37.48 51.96 37.61 51.69 37.68 52.09 37.81 52.03 37.88 52.03 37.94 52.03 38.21 52.03 38.41 51.83 38.48 51.89 38.54 51.96 38.61 51.83 38.68 51.89 38.74 52.03 38.81 51.76 38.88 51.62 38.94 51.62 39.07 51.89 39.14 51.83 39.21 51.83 39.27 51.96 39.34 51.89 39.41 51.62 39.47 51.69 39.61 52.03 39.67 51.29 39.74 51.09 39.81 51.42 39.87 51.49 39.94 51.49 40.01 51.49 40.07 51.42 40.27 50.15 40.34 50.88 40.41 51.62 40.47 51.56 40.54 51.35 40.61 51.56 40.67 51.62 40.74 51.62 40.81 51.49 40.87 51.42 40.94 51.69 41.01 51.69 41.07 51.62 41.14 51.56 41.21 51.56 41.27 52.3 41.34 52.23 41.41 52.23 41.47 52.16 41.54 52.03 41.6 50.28 41.67 50.75 41.74 51.02 41.8 50.68 41.87 50.68 41.94 50.62 42 50.62 42.07 50.62 42.14 50.75 42.2 50.95 42.4 50.95 42.74 50.82 42.8 50.68 42.87 50.68 42.94 50.75 43 50.82 43.07 50.88 43.14 50.75 43.4 50.15 43.47 50.21 43.8 49.81 43.93 50.01 44 50.15 44.07 50.21 44.13 50.21 44.2 50.35 44.27 50.28 44.33 50.21 44.53 49.81 44.6 49.88 44.73 49.81 44.8 49.54 44.87 49.74 45.07 49.88 45.2 50.01 45.4 49.81 45.67 49.88 45.8 50.21 46 49.94 46.46 49.68 46.73 49.88 46.8 49.88 46.86 49.88 46.93 49.68 47 49.47 47.06 49.54 47.2 49.68 47.26 49.61 47.33 49.61 47.4 49.34 47.46 49.41 47.53 49.34 47.6 49.34 47.73 49.41 47.8 49.27 47.86 49.07 48.13 48.87 48.2 48.74 48.26 48.87 48.4 48.94 48.53 50.41 48.6 48.26 48.8 47.93 49.13 47.93 49.46 48 49.79 48.33 49.86 48.2 49.93 48.06 49.99 48.06 50.06 48.26 50.19 48.06 50.33 47.06 50.59 46.45 50.66 46.52 50.73 46.32 50.79 46.45 50.86 48.74 50.93 49.47 50.99 48.87 51.79 47.26 51.92 47.19 51.99 46.59 52.12 46.99 52.39 47.46 52.52 47.53 52.66 47.39 52.92 47.66 53.06 49.61 53.12 49.07 53.26 48 53.32 47.93 53.39 47.66 53.46 46.38 53.52 46.79 53.59 47.06 53.72 47.12 53.79 47.19 53.92 48.8 54.05 48.8 54.12 48.4 54.19 48.33 54.32 48.53 54.39 48 54.72 48.06 54.99 48.26 55.05 48.26 55.59 48.47 55.65 48.47 55.72 48.67 55.92 48.33 55.99 48.26 56.05 48.33 56.19 48.13 56.32 47.86 56.45 47.59 57.05 47.39"/>
      </g>
      <g stroke-width="0.3" fill="#000000" fill-opacity="0.000" class="geometry color_newtests_pass" stroke-dasharray="none" stroke="#008000" id="img-2312fbe8-18">
        <path fill="none" d="M36.54,39.87 L 36.61 39.87 36.68 40.27 36.74 41.35 36.81 41.41 36.88 41.41 37.01 40.14 37.08 40 37.14 39.8 37.21 39.87 37.28 39.87 37.34 39.6 37.41 39.4 37.48 39.47 37.61 39.87 37.68 39.4 37.81 39.4 37.88 39.4 37.94 39.4 38.21 39.4 38.41 39.13 38.48 39 38.54 38.93 38.61 38.86 38.68 38.73 38.74 38.39 38.81 38.12 38.88 38.19 38.94 38.19 39.07 38.12 39.14 38.19 39.21 38.12 39.27 37.99 39.34 37.99 39.41 38.32 39.47 38.32 39.61 37.72 39.67 40.27 39.74 40.54 39.81 39 39.87 38.86 39.94 38.79 40.01 38.79 40.07 38.73 40.27 40.88 40.34 39.4 40.41 38.39 40.47 38.32 40.54 38.46 40.61 38.39 40.67 38.05 40.74 38.05 40.81 38.26 40.87 38.32 40.94 38.32 41.01 38.19 41.07 38.05 41.14 37.99 41.21 37.85 41.27 42.02 41.34 42.09 41.41 42.02 41.47 41.48 41.54 41.55 41.6 39.2 41.67 38.52 41.74 38.12 41.8 38.46 41.87 38.39 41.94 38.46 42 38.46 42.07 38.46 42.14 38.19 42.2 37.99 42.4 37.79 42.74 37.58 42.8 37.58 42.87 37.58 42.94 37.45 43 37.38 43.07 37.18 43.14 37.32 43.4 37.58 43.47 37.58 43.8 37.79 43.93 37.52 44 37.58 44.07 37.11 44.13 37.11 44.2 36.98 44.27 36.91 44.33 36.85 44.53 36.98 44.6 36.85 44.73 37.38 44.8 37.65 44.87 37.45 45.07 37.32 45.2 37.05 45.4 36.38 45.67 36.11 45.8 35.64 46 35.7 46.46 35.64 46.73 35.1 46.8 34.96 46.86 34.96 46.93 35.03 47 35.64 47.06 35.57 47.2 35.37 47.26 35.37 47.33 35.37 47.4 35.5 47.46 35.37 47.53 35.44 47.6 35.44 47.73 35.23 47.8 35.23 47.86 35.37 48.13 35.3 48.2 35.44 48.26 35.5 48.4 35.3 48.53 37.85 48.6 35.84 48.8 36.24 49.13 36.24 49.46 36.17 49.79 36.71 49.86 36.31 49.93 35.91 49.99 35.5 50.06 35.1 50.19 35.23 50.33 36.58 50.59 37.05 50.66 36.85 50.73 37.05 50.79 36.91 50.86 40.67 50.93 41.68 50.99 41.21 51.79 37.18 51.92 37.11 51.99 36.31 52.12 35.84 52.39 35.3 52.52 35.17 52.66 35.03 52.92 34.63 53.06 42.89 53.12 40.14 53.26 38.79 53.32 38.93 53.39 39.06 53.46 40.54 53.52 40.07 53.59 39.4 53.72 39.13 53.79 39 53.92 41.68 54.05 41.48 54.12 40.47 54.19 40.47 54.32 39.6 54.39 39.4 54.72 38.79 54.99 38.12 55.05 38.12 55.59 36.91 55.65 36.98 55.72 36.71 55.92 36.91 55.99 36.91 56.05 36.64 56.19 36.51 56.32 36.91 56.45 36.98 57.05 36.98"/>
      </g>
    </g>
  </g>
</g>
  <g class="guide ylabels" font-size="2.82" font-family="'PT Sans Caption','Helvetica Neue','Helvetica',sans-serif" fill="#6C606B" id="img-2312fbe8-19">
    <text x="18.63" y="54.91" text-anchor="end" dy="0.35em">0</text>
    <text x="18.63" y="48.2" text-anchor="end" dy="0.35em">100</text>
    <text x="18.63" y="41.48" text-anchor="end" dy="0.35em">200</text>
    <text x="18.63" y="34.76" text-anchor="end" dy="0.35em">300</text>
    <text x="18.63" y="28.05" text-anchor="end" dy="0.35em">400</text>
    <text x="18.63" y="21.33" text-anchor="end" dy="0.35em">500</text>
    <text x="18.63" y="14.61" text-anchor="end" dy="0.35em">600</text>
  </g>
  <g font-size="3.88" font-family="'PT Sans','Helvetica Neue','Helvetica',sans-serif" fill="#564A55" stroke="#000000" stroke-opacity="0.000" id="img-2312fbe8-20">
    <text x="8.81" y="32.76" text-anchor="middle" dy="0.35em" transform="rotate(-90, 8.81, 34.76)">Number of Packages</text>
  </g>
  <g font-size="3.88" font-family="'PT Sans','Helvetica Neue','Helvetica',sans-serif" fill="#564A55" stroke="#000000" stroke-opacity="0.000" id="img-2312fbe8-21">
    <text x="58.12" y="10.61" text-anchor="middle">Julia v0.4</text>
  </g>
</g>
<defs>
  <clipPath id="img-2312fbe8-4">
  <path d="M19.63,12.61 L 96.6 12.61 96.6 56.91 19.63 56.91" />
</clipPath>
</defs>
</svg>
