<?xml version="1.0" encoding="UTF-8"?>
<svg xmlns="http://www.w3.org/2000/svg"
     xmlns:xlink="http://www.w3.org/1999/xlink"
     xmlns:gadfly="http://www.gadflyjl.org/ns"
     version="1.2"
     width="101.6mm" height="76.2mm" viewBox="0 0 101.6 76.2"
     stroke="none"
     fill="#000000"
     stroke-width="0.3"
     font-size="3.88"
>
<g class="plotroot xscalable yscalable" id="img-1b722520-1">
  <g font-size="3.88" font-family="'PT Sans','Helvetica Neue','Helvetica',sans-serif" fill="#564A55" stroke="#000000" stroke-opacity="0.000" id="img-1b722520-2">
    <text x="58.12" y="64.59" text-anchor="middle" dy="0.6em">Date</text>
  </g>
  <g class="guide xlabels" font-size="2.82" font-family="'PT Sans Caption','Helvetica Neue','Helvetica',sans-serif" fill="#6C606B" id="img-1b722520-3">
    <text x="24.54" y="48.71" text-anchor="end" dy="0.35em" transform="rotate(-90, 24.54, 48.71)">Sep</text>
    <text x="29.13" y="48.71" text-anchor="end" dy="0.35em" transform="rotate(-90, 29.13, 48.71)">Oct</text>
    <text x="33.87" y="48.71" text-anchor="end" dy="0.35em" transform="rotate(-90, 33.87, 48.71)">Nov</text>
    <text x="38.46" y="48.71" text-anchor="end" dy="0.35em" transform="rotate(-90, 38.46, 48.71)">Dec</text>
    <text x="43.2" y="48.71" text-anchor="end" dy="0.35em" transform="rotate(-90, 43.2, 48.71)">Jan 2015</text>
    <text x="47.94" y="48.71" text-anchor="end" dy="0.35em" transform="rotate(-90, 47.94, 48.71)">Feb</text>
    <text x="52.23" y="48.71" text-anchor="end" dy="0.35em" transform="rotate(-90, 52.23, 48.71)">Mar</text>
    <text x="56.97" y="48.71" text-anchor="end" dy="0.35em" transform="rotate(-90, 56.97, 48.71)">Apr</text>
    <text x="61.56" y="48.71" text-anchor="end" dy="0.35em" transform="rotate(-90, 61.56, 48.71)">May</text>
    <text x="66.3" y="48.71" text-anchor="end" dy="0.35em" transform="rotate(-90, 66.3, 48.71)">Jun</text>
    <text x="70.89" y="48.71" text-anchor="end" dy="0.35em" transform="rotate(-90, 70.89, 48.71)">Jul</text>
    <text x="75.63" y="48.71" text-anchor="end" dy="0.35em" transform="rotate(-90, 75.63, 48.71)">Aug</text>
    <text x="80.37" y="48.71" text-anchor="end" dy="0.35em" transform="rotate(-90, 80.37, 48.71)">Sep</text>
    <text x="84.96" y="48.71" text-anchor="end" dy="0.35em" transform="rotate(-90, 84.96, 48.71)">Oct</text>
    <text x="89.7" y="48.71" text-anchor="end" dy="0.35em" transform="rotate(-90, 89.7, 48.71)">Nov</text>
    <text x="94.29" y="48.71" text-anchor="end" dy="0.35em" transform="rotate(-90, 94.29, 48.71)">Dec</text>
  </g>
<g clip-path="url(#img-1b722520-4)">
  <g id="img-1b722520-5">
    <g pointer-events="visible" opacity="1" fill="#000000" fill-opacity="0.000" stroke="#000000" stroke-opacity="0.000" class="guide background" id="img-1b722520-6">
      <rect x="19.63" y="12.61" width="76.97" height="35.1"/>
    </g>
    <g class="guide ygridlines xfixed" stroke-dasharray="0.5,0.5" stroke-width="0.2" stroke="#D0D0E0" id="img-1b722520-7">
      <path fill="none" d="M19.63,45.71 L 96.6 45.71"/>
      <path fill="none" d="M19.63,39.49 L 96.6 39.49"/>
      <path fill="none" d="M19.63,33.27 L 96.6 33.27"/>
      <path fill="none" d="M19.63,27.05 L 96.6 27.05"/>
      <path fill="none" d="M19.63,20.83 L 96.6 20.83"/>
      <path fill="none" d="M19.63,14.61 L 96.6 14.61"/>
    </g>
    <g class="guide xgridlines yfixed" stroke-dasharray="0.5,0.5" stroke-width="0.2" stroke="#D0D0E0" id="img-1b722520-8">
      <path fill="none" d="M24.54,12.61 L 24.54 47.71"/>
      <path fill="none" d="M29.13,12.61 L 29.13 47.71"/>
      <path fill="none" d="M33.87,12.61 L 33.87 47.71"/>
      <path fill="none" d="M38.46,12.61 L 38.46 47.71"/>
      <path fill="none" d="M43.2,12.61 L 43.2 47.71"/>
      <path fill="none" d="M47.94,12.61 L 47.94 47.71"/>
      <path fill="none" d="M52.23,12.61 L 52.23 47.71"/>
      <path fill="none" d="M56.97,12.61 L 56.97 47.71"/>
      <path fill="none" d="M61.56,12.61 L 61.56 47.71"/>
      <path fill="none" d="M66.3,12.61 L 66.3 47.71"/>
      <path fill="none" d="M70.89,12.61 L 70.89 47.71"/>
      <path fill="none" d="M75.63,12.61 L 75.63 47.71"/>
      <path fill="none" d="M80.37,12.61 L 80.37 47.71"/>
      <path fill="none" d="M84.96,12.61 L 84.96 47.71"/>
      <path fill="none" d="M89.7,12.61 L 89.7 47.71"/>
      <path fill="none" d="M94.29,12.61 L 94.29 47.71"/>
    </g>
    <g class="plotpanel" id="img-1b722520-9">
      <g stroke-width="0.3" fill="#000000" fill-opacity="0.000" class="geometry color_newnot_possible" stroke-dasharray="none" stroke="#808080" id="img-1b722520-10">
        <path fill="none" d="M69.21,42.35 L 69.36 42.35 69.51 42.35 69.67 42.35 69.82 42.35 69.97 42.35 70.12 42.35 70.28 42.35 70.74 42.35 71.04 42.35 71.35 42.35 71.5 42.35 71.65 42.35 71.81 42.35 71.96 42.35 72.11 42.35 74.71 42.29 75.94 42.29 77.31 42.29 79.91 42.29 80.37 42.29 81.14 42.29 81.9 41.91 84.35 41.91 84.96 41.91 85.73 41.85 86.34 41.79 86.95 41.79 87.41 41.73 89.25 41.73 91.08 41.67 91.69 41.67 92 41.6 93.38 41.6 93.53 41.6 94.6 41.6"/>
      </g>
      <g stroke-width="0.3" fill="#000000" fill-opacity="0.000" class="geometry color_newno_tests" stroke-dasharray="none" stroke="#0000FF" id="img-1b722520-11">
        <path fill="none" d="M69.21,38.99 L 69.36 38.99 69.51 38.99 69.67 38.99 69.82 38.99 69.97 38.99 70.12 38.99 70.28 38.99 70.74 38.99 71.04 38.99 71.35 38.99 71.5 38.99 71.65 39.05 71.81 39.05 71.96 39.05 72.11 39.12 74.71 39.05 75.94 39.05 77.31 39.05 79.91 39.05 80.37 39.12 81.14 39.12 81.9 39.18 84.35 39.43 84.96 39.61 85.73 39.74 86.34 40.8 86.95 40.86 87.41 40.98 89.25 41.04 91.08 41.11 91.69 41.11 92 41.11 93.38 41.11 93.53 41.11 94.6 41.11"/>
      </g>
      <g stroke-width="0.3" fill="#000000" fill-opacity="0.000" class="geometry color_newtests_fail" stroke-dasharray="none" stroke="#FF0000" id="img-1b722520-12">
        <path fill="none" d="M69.21,33.02 L 69.36 33.46 69.51 33.33 69.67 32.09 69.82 32.03 69.97 32.21 70.12 32.21 70.28 33.21 70.74 32.65 71.04 32.65 71.35 33.33 71.5 33.46 71.65 32.03 71.81 33.27 71.96 32.34 72.11 32.77 74.71 33.27 75.94 32.9 77.31 33.46 79.91 33.21 80.37 33.52 81.14 33.83 81.9 34.7 84.35 34.51 84.96 34.89 85.73 35.07 86.34 35.7 86.95 35.94 87.41 36.38 89.25 36.13 91.08 36.25 91.69 36.44 92 36.63 93.38 36.63 93.53 36.81 94.6 36.57"/>
      </g>
      <g stroke-width="0.3" fill="#000000" fill-opacity="0.000" class="geometry color_newtests_pass" stroke-dasharray="none" stroke="#008000" id="img-1b722520-13">
        <path fill="none" d="M69.21,30.35 L 69.36 29.91 69.51 29.91 69.67 31.16 69.82 31.03 69.97 30.84 70.12 30.84 70.28 29.79 70.74 30.28 71.04 30.16 71.35 29.48 71.5 29.23 71.65 30.35 71.81 28.98 71.96 29.85 72.11 29.35 74.71 28.05 75.94 28.05 77.31 27.17 79.91 25.87 80.37 25.37 81.14 24.81 81.9 23.82 84.35 22.57 84.96 21.64 85.73 20.83 86.34 20.77 86.95 20.15 87.41 19.46 89.25 18.28 91.08 17.47 91.69 17.22 92 16.85 93.38 16.6 93.53 16.42 94.6 16.35"/>
      </g>
      <g stroke-width="0.3" fill="#000000" fill-opacity="0.000" class="geometry color_newnot_possible" stroke-dasharray="none" stroke="#808080" id="img-1b722520-14">
        <path fill="none" d="M21.63,43.34 L 21.78 43.28 21.94 43.22 22.09 43.22 22.24 43.22 22.4 43.22 22.7 43.22 22.86 43.22 23.01 43.22 23.16 43.22 23.31 43.22 23.47 43.22 23.62 43.22 23.77 43.22 24.08 43.22 24.23 43.16 24.54 43.16 24.69 43.16 24.84 43.1 25.46 43.1 25.91 43.1 26.07 43.1 26.22 43.1 26.37 43.1 26.53 43.1 26.68 43.1 26.83 43.1 26.99 43.1 27.14 43.1 27.44 43.03 27.6 43.03 27.75 43.03 27.9 43.03 28.06 43.03 28.21 43.03 28.36 42.97 28.67 42.97 28.82 42.97 28.97 42.97 29.13 42.97 29.28 42.91 29.43 42.91 29.59 42.91 29.74 42.91 30.2 42.91 30.35 42.85 30.5 42.85 30.66 42.85 30.81 42.85 30.96 42.85 31.12 42.85 31.27 42.85 31.42 42.85 31.57 42.85 31.73 42.79 31.88 42.79 32.03 42.79 32.19 42.79 32.34 42.79 32.49 42.79 32.65 42.79 32.8 42.79 32.95 42.79 33.1 42.79 33.26 42.79 33.41 42.79 33.56 42.79 33.72 42.79 33.87 42.79 34.02 42.79 34.18 42.79 34.33 42.79 34.48 42.79 34.63 42.79 35.09 42.79 35.86 42.79 36.01 42.79 36.16 42.79 36.32 42.79 36.47 42.79 36.62 42.79 36.78 42.79 37.39 42.79 37.54 42.79 38.31 42.79 38.61 42.79 38.76 42.85 38.92 42.85 39.07 42.85 39.22 42.85 39.38 42.85 39.53 42.85 39.99 42.85 40.14 42.85 40.45 42.85 40.6 42.85 40.75 42.85 41.21 42.85 41.52 42.85 41.98 42.85 42.59 42.85 42.89 42.85 43.35 42.85 44.42 42.85 45.04 42.85 45.19 42.72 45.34 42.72 45.5 42.66 45.65 42.66 45.8 42.66 46.11 42.66 46.26 42.66 46.41 42.66 46.57 42.6 46.72 42.6 46.87 42.6 47.03 42.6 47.33 42.54 47.48 42.54 47.64 42.54 48.25 42.54 48.4 42.54 48.55 42.54 48.86 42.54 49.17 42.54 49.32 42.54 49.78 42.54 50.54 42.54 51.31 42.54 52.07 42.54 52.23 42.54 52.38 42.54 52.53 42.1 52.69 42.16 52.99 42.1 53.3 42.1 53.91 42.1 54.06 42.1 54.22 42.1 54.37 42.1 54.52 42.1 54.67 42.16 54.83 42.1 56.66 42.04 56.97 41.98 57.12 41.98 57.43 41.98 58.04 41.98 58.35 41.98 58.65 41.98 59.26 41.98 59.57 41.98 59.72 41.98 60.03 41.98 60.18 41.98 60.33 41.98 60.49 41.98 60.64 41.98 60.79 41.98 61.1 41.98 61.25 41.98 61.56 41.98 61.86 41.98 62.02 41.98 62.17 41.98 62.48 41.98 62.63 41.98 63.39 41.98 64.01 42.04 64.16 41.98 65.38 41.98 65.54 41.85 65.69 41.85 66.15 41.85 66.3 41.85 66.45 41.91 66.76 41.91 67.06 41.91 67.37 41.91 68.75 41.91"/>
      </g>
      <g stroke-width="0.3" fill="#000000" fill-opacity="0.000" class="geometry color_newtests_fail" stroke-dasharray="none" stroke="#FF0000" id="img-1b722520-15">
        <path fill="none" d="M21.63,44.34 L 21.78 44.28 21.94 44.46 22.09 43.1 22.24 43.1 22.4 43.1 22.7 44.4 22.86 44.46 23.01 44.4 23.16 44.53 23.31 44.59 23.47 44.53 23.62 44.53 23.77 44.59 24.08 44.15 24.23 44.03 24.54 43.97 24.69 43.97 24.84 44.03 25.46 44.03 25.91 44.15 26.07 44.15 26.22 44.15 26.37 44.22 26.53 44.28 26.68 44.46 26.83 44.46 26.99 44.46 27.14 44.46 27.44 44.34 27.6 44.28 27.75 44.34 27.9 44.34 28.06 44.4 28.21 44.28 28.36 44.15 28.67 44.59 28.82 42.66 28.97 42.6 29.13 43.78 29.28 43.78 29.43 43.84 29.59 43.84 29.74 43.84 30.2 42.66 30.35 43.59 30.5 43.78 30.66 43.84 30.81 43.9 30.96 43.78 31.12 43.9 31.27 43.9 31.42 43.78 31.57 43.72 31.73 43.53 31.88 43.66 32.03 43.84 32.19 43.84 32.34 43.84 32.49 38.93 32.65 38.93 32.8 38.93 32.95 39.61 33.1 39.61 33.26 43.66 33.41 43.72 33.56 43.78 33.72 43.78 33.87 43.78 34.02 43.78 34.18 43.78 34.33 43.78 34.48 43.84 34.63 43.78 35.09 43.97 35.86 43.9 36.01 43.9 36.16 43.9 36.32 43.9 36.47 43.9 36.62 43.84 36.78 43.84 37.39 43.84 37.54 43.78 38.31 43.9 38.61 43.97 38.76 43.59 38.92 43.9 39.07 43.84 39.22 43.9 39.38 43.9 39.53 43.9 39.99 44.09 40.14 44.09 40.45 43.41 40.6 43.41 40.75 43.41 41.21 43.41 41.52 43.41 41.98 44.15 42.59 44.15 42.89 44.09 43.35 44.15 44.42 44.03 45.04 43.9 45.19 44.03 45.34 44.03 45.5 43.84 45.65 43.47 45.8 43.47 46.11 43.47 46.26 43.47 46.41 43.47 46.57 43.47 46.72 43.47 46.87 43.47 47.03 43.47 47.33 43.47 47.48 43.41 47.64 43.41 48.25 43.1 48.4 43.1 48.55 43.1 48.86 43.03 49.17 38.99 49.32 43.03 49.78 42.85 50.54 42.85 51.31 42.79 52.07 41.23 52.23 41.79 52.38 42.29 52.53 42.97 52.69 43.16 52.99 43.16 53.3 42.79 53.91 42.85 54.06 42.85 54.22 42.79 54.37 42.79 54.52 36.38 54.67 34.7 54.83 35.63 56.66 41.42 56.97 41.6 57.12 42.72 57.43 42.79 58.04 42.79 58.35 42.79 58.65 42.85 59.26 42.79 59.57 32.71 59.72 35.7 60.03 37.69 60.18 37.69 60.33 37.69 60.49 37.37 60.64 37.44 60.79 37.75 61.1 37.87 61.25 37.75 61.56 33.58 61.86 33.77 62.02 34.95 62.17 34.95 62.48 35.45 62.63 36.13 63.39 36.38 64.01 36.69 64.16 36.63 65.38 37.44 65.54 37.5 65.69 37.56 66.15 37.44 66.3 37.44 66.45 37.44 66.76 37.62 67.06 37.5 67.37 37.56 68.75 37.31"/>
      </g>
      <g stroke-width="0.3" fill="#000000" fill-opacity="0.000" class="geometry color_newno_tests" stroke-dasharray="none" stroke="#0000FF" id="img-1b722520-16">
        <path fill="none" d="M21.63,42.72 L 21.78 42.66 21.94 42.66 22.09 43.03 22.24 43.03 22.4 43.03 22.7 42.72 22.86 42.72 23.01 42.79 23.16 42.79 23.31 42.79 23.47 42.79 23.62 42.79 23.77 42.85 24.08 43.03 24.23 43.1 24.54 43.1 24.69 43.1 24.84 43.1 25.46 43.1 25.91 43.03 26.07 43.03 26.22 42.97 26.37 42.97 26.53 42.97 26.68 42.97 26.83 42.97 26.99 43.03 27.14 43.03 27.44 42.97 27.6 43.03 27.75 42.97 27.9 42.97 28.06 42.97 28.21 42.97 28.36 43.1 28.67 42.97 28.82 43.16 28.97 43.16 29.13 42.97 29.28 42.97 29.43 42.97 29.59 42.97 29.74 42.97 30.2 43.22 30.35 43.03 30.5 42.97 30.66 42.97 30.81 42.97 30.96 42.97 31.12 42.97 31.27 42.97 31.42 42.97 31.57 42.97 31.73 42.97 31.88 42.97 32.03 42.97 32.19 42.97 32.34 42.97 32.49 43.34 32.65 43.34 32.8 43.34 32.95 43.22 33.1 43.22 33.26 42.97 33.41 42.97 33.56 42.97 33.72 42.97 33.87 42.97 34.02 42.97 34.18 42.97 34.33 42.97 34.48 42.97 34.63 42.97 35.09 42.97 35.86 42.97 36.01 42.97 36.16 42.97 36.32 42.97 36.47 42.97 36.62 42.97 36.78 42.97 37.39 42.97 37.54 42.97 38.31 42.97 38.61 42.97 38.76 42.97 38.92 42.97 39.07 43.03 39.22 42.97 39.38 42.97 39.53 42.97 39.99 42.97 40.14 42.97 40.45 42.97 40.6 42.97 40.75 42.97 41.21 42.97 41.52 42.97 41.98 42.91 42.59 42.97 42.89 42.91 43.35 42.91 44.42 42.91 45.04 42.91 45.19 42.91 45.34 42.91 45.5 42.91 45.65 42.91 45.8 42.91 46.11 42.91 46.26 42.91 46.41 42.91 46.57 42.91 46.72 42.91 46.87 42.91 47.03 42.91 47.33 42.91 47.48 42.91 47.64 42.91 48.25 42.97 48.4 42.97 48.55 42.97 48.86 42.97 49.17 43.1 49.32 42.91 49.78 42.91 50.54 42.91 51.31 42.91 52.07 43.1 52.23 43.03 52.38 43.03 52.53 43.03 52.69 42.97 52.99 42.97 53.3 43.03 53.91 43.03 54.06 43.03 54.22 43.1 54.37 43.1 54.52 43.78 54.67 43.84 54.83 43.84 56.66 43.1 56.97 43.1 57.12 43.1 57.43 43.1 58.04 43.1 58.35 43.1 58.65 43.1 59.26 43.16 59.57 43.66 59.72 43.53 60.03 43.47 60.18 43.41 60.33 43.47 60.49 43.47 60.64 43.47 60.79 43.47 61.1 43.47 61.25 43.53 61.56 43.72 61.86 43.59 62.02 43.53 62.17 43.53 62.48 43.53 62.63 43.47 63.39 43.47 64.01 43.41 64.16 43.41 65.38 43.34 65.54 43.34 65.69 43.34 66.15 43.34 66.3 43.34 66.45 43.34 66.76 43.34 67.06 43.34 67.37 43.34 68.75 43.34"/>
      </g>
      <g stroke-width="0.3" fill="#000000" fill-opacity="0.000" class="geometry color_oldfull_fail" stroke-dasharray="none" stroke="#FFA500" id="img-1b722520-17">
        <path fill="none" d="M21.63,43.72 L 21.78 43.72 21.94 43.16 22.09 43.1 22.24 43.03 22.4 43.03 22.7 43.03 22.86 43.1 23.01 43.22 23.16 43.03 23.31 42.97 23.47 43.1 23.62 43.16 23.77 42.97 24.08 42.72 24.23 43.1 24.54 43.03 24.69 43.03 24.84 43.03 25.46 43.03 25.91 42.85 26.07 42.91 26.22 42.97 26.37 42.85 26.53 42.91 26.68 43.03 26.83 42.79 26.99 42.66 27.14 42.66 27.44 42.91 27.6 42.85 27.75 42.85 27.9 42.97 28.06 42.91 28.21 42.66 28.36 42.72 28.67 43.03 28.82 42.35 28.97 42.16 29.13 42.47 29.28 42.54 29.43 42.54 29.59 42.54 29.74 42.47 30.2 41.29 30.35 41.98 30.5 42.66 30.66 42.6 30.81 42.41 30.96 42.6 31.12 42.66 31.27 42.66 31.42 42.54 31.57 42.47 31.73 42.72 31.88 42.72 32.03 42.66 32.19 42.6 32.34 42.6 32.49 43.28 32.65 43.22 32.8 43.22 32.95 43.16 33.1 43.03 33.26 41.42 33.41 41.85 33.56 42.1 33.72 41.79 33.87 41.79 34.02 41.73 34.18 41.73 34.33 41.73 34.48 41.85 34.63 42.04 35.09 42.04 35.86 41.91 36.01 41.79 36.16 41.79 36.32 41.85 36.47 41.91 36.62 41.98 36.78 41.85 37.39 41.29 37.54 41.35 38.31 40.98 38.61 41.17 38.76 41.29 38.92 41.35 39.07 41.35 39.22 41.48 39.38 41.42 39.53 41.35 39.99 40.98 40.14 41.04 40.45 40.98 40.6 40.73 40.75 40.92 41.21 41.04 41.52 41.17 41.98 40.98 42.59 41.04 42.89 41.35 43.35 41.11 44.42 40.86 45.04 41.04 45.19 41.04 45.34 41.04 45.5 40.86 45.65 40.67 45.8 40.73 46.11 40.86 46.26 40.8 46.41 40.8 46.57 40.55 46.72 40.61 46.87 40.55 47.03 40.55 47.33 40.61 47.48 40.48 47.64 40.3 48.25 40.11 48.4 39.99 48.55 40.11 48.86 40.17 49.17 41.54 49.32 39.55 49.78 39.24 50.54 39.24 51.31 39.3 52.07 39.61 52.23 39.49 52.38 39.36 52.53 39.36 52.69 39.55 52.99 39.36 53.3 38.43 53.91 37.87 54.06 37.93 54.22 37.75 54.37 37.87 54.52 39.99 54.67 40.67 54.83 40.11 56.66 38.62 56.97 38.56 57.12 38 57.43 38.37 58.04 38.8 58.35 38.87 58.65 38.74 59.26 38.99 59.57 40.8 59.72 40.3 60.03 39.3 60.18 39.24 60.33 38.99 60.49 37.81 60.64 38.18 60.79 38.43 61.1 38.49 61.25 38.56 61.56 40.05 61.86 40.05 62.02 39.68 62.17 39.61 62.48 39.8 62.63 39.3 63.39 39.36 64.01 39.55 64.16 39.55 65.38 39.74 65.54 39.74 65.69 39.92 66.15 39.61 66.3 39.55 66.45 39.61 66.76 39.43 67.06 39.18 67.37 38.93 68.75 38.74"/>
      </g>
      <g stroke-width="0.3" fill="#000000" fill-opacity="0.000" class="geometry color_newtests_pass" stroke-dasharray="none" stroke="#008000" id="img-1b722520-18">
        <path fill="none" d="M21.63,31.78 L 21.78 31.78 21.94 32.15 22.09 33.15 22.24 33.21 22.4 33.21 22.7 32.03 22.86 31.9 23.01 31.71 23.16 31.78 23.31 31.78 23.47 31.53 23.62 31.34 23.77 31.4 24.08 31.78 24.23 31.34 24.54 31.34 24.69 31.34 24.84 31.34 25.46 31.34 25.91 31.09 26.07 30.97 26.22 30.91 26.37 30.84 26.53 30.72 26.68 30.41 26.83 30.16 26.99 30.22 27.14 30.22 27.44 30.16 27.6 30.22 27.75 30.16 27.9 30.04 28.06 30.04 28.21 30.35 28.36 30.35 28.67 29.79 28.82 32.15 28.97 32.4 29.13 30.97 29.28 30.84 29.43 30.78 29.59 30.78 29.74 30.72 30.2 32.71 30.35 31.34 30.5 30.41 30.66 30.35 30.81 30.47 30.96 30.41 31.12 30.1 31.27 30.1 31.42 30.28 31.57 30.35 31.73 30.35 31.88 30.22 32.03 30.1 32.19 30.04 32.34 29.91 32.49 33.77 32.65 33.83 32.8 33.77 32.95 33.27 33.1 33.33 33.26 31.16 33.41 30.53 33.56 30.16 33.72 30.47 33.87 30.41 34.02 30.47 34.18 30.47 34.33 30.47 34.48 30.22 34.63 30.04 35.09 29.85 35.86 29.66 36.01 29.66 36.16 29.66 36.32 29.54 36.47 29.48 36.62 29.29 36.78 29.41 37.39 29.66 37.54 29.66 38.31 29.85 38.61 29.6 38.76 29.66 38.92 29.23 39.07 29.23 39.22 29.1 39.38 29.04 39.53 28.98 39.99 29.1 40.14 28.98 40.45 29.48 40.6 29.72 40.75 29.54 41.21 29.41 41.52 29.16 41.98 28.54 42.59 28.29 42.89 27.86 43.35 27.92 44.42 27.86 45.04 27.36 45.19 27.24 45.34 27.24 45.5 27.3 45.65 27.86 45.8 27.8 46.11 27.61 46.26 27.61 46.41 27.61 46.57 27.73 46.72 27.61 46.87 27.67 47.03 27.67 47.33 27.49 47.48 27.49 47.64 27.61 48.25 27.55 48.4 27.67 48.55 27.73 48.86 27.55 49.17 29.91 49.32 28.05 49.78 28.42 50.54 28.42 51.31 28.36 52.07 28.85 52.23 28.48 52.38 28.11 52.53 27.73 52.69 27.36 52.99 27.49 53.3 28.73 53.91 29.16 54.06 28.98 54.22 29.16 54.37 29.04 54.52 32.52 54.67 33.46 54.83 33.02 56.66 29.29 56.97 29.23 57.12 28.48 57.43 28.05 58.04 27.55 58.35 27.42 58.65 27.3 59.26 26.93 59.57 34.58 59.72 32.03 60.03 30.78 60.18 30.91 60.33 31.03 60.49 32.4 60.64 31.96 60.79 31.34 61.1 31.09 61.25 30.97 61.56 33.46 61.86 33.27 62.02 32.34 62.17 32.34 62.48 31.53 62.63 31.34 63.39 30.78 64.01 30.16 64.16 30.16 65.38 29.04 65.54 29.1 65.69 28.85 66.15 29.04 66.3 29.04 66.45 28.79 66.76 28.67 67.06 29.04 67.37 29.1 68.75 29.1"/>
      </g>
    </g>
  </g>
</g>
  <g class="guide ylabels" font-size="2.82" font-family="'PT Sans Caption','Helvetica Neue','Helvetica',sans-serif" fill="#6C606B" id="img-1b722520-19">
    <text x="18.63" y="45.71" text-anchor="end" dy="0.35em">0</text>
    <text x="18.63" y="39.49" text-anchor="end" dy="0.35em">100</text>
    <text x="18.63" y="33.27" text-anchor="end" dy="0.35em">200</text>
    <text x="18.63" y="27.05" text-anchor="end" dy="0.35em">300</text>
    <text x="18.63" y="20.83" text-anchor="end" dy="0.35em">400</text>
    <text x="18.63" y="14.61" text-anchor="end" dy="0.35em">500</text>
  </g>
  <g font-size="3.88" font-family="'PT Sans','Helvetica Neue','Helvetica',sans-serif" fill="#564A55" stroke="#000000" stroke-opacity="0.000" id="img-1b722520-20">
    <text x="8.81" y="28.16" text-anchor="middle" dy="0.35em" transform="rotate(-90, 8.81, 30.16)">Number of Packages</text>
  </g>
  <g font-size="3.88" font-family="'PT Sans','Helvetica Neue','Helvetica',sans-serif" fill="#564A55" stroke="#000000" stroke-opacity="0.000" id="img-1b722520-21">
    <text x="58.12" y="10.61" text-anchor="middle">Julia v0.4</text>
  </g>
</g>
<defs>
  <clipPath id="img-1b722520-4">
  <path d="M19.63,12.61 L 96.6 12.61 96.6 47.71 19.63 47.71" />
</clipPath>
</defs>
</svg>
