<?xml version="1.0" encoding="UTF-8"?>
<svg xmlns="http://www.w3.org/2000/svg"
     xmlns:xlink="http://www.w3.org/1999/xlink"
     xmlns:gadfly="http://www.gadflyjl.org/ns"
     version="1.2"
     width="101.6mm" height="76.2mm" viewBox="0 0 101.6 76.2"
     stroke="none"
     fill="#000000"
     stroke-width="0.3"
     font-size="3.88"
>
<g class="plotroot xscalable yscalable" id="img-c48be528-1">
  <g font-size="3.88" font-family="'PT Sans','Helvetica Neue','Helvetica',sans-serif" fill="#564A55" stroke="#000000" stroke-opacity="0.000" id="img-c48be528-2">
    <text x="58.12" y="64.59" text-anchor="middle" dy="0.6em">Date</text>
  </g>
  <g class="guide xlabels" font-size="2.82" font-family="'PT Sans Caption','Helvetica Neue','Helvetica',sans-serif" fill="#6C606B" id="img-c48be528-3">
    <text x="24.58" y="48.71" text-anchor="end" dy="0.35em" transform="rotate(-90, 24.58, 48.71)">Sep</text>
    <text x="29.24" y="48.71" text-anchor="end" dy="0.35em" transform="rotate(-90, 29.24, 48.71)">Oct</text>
    <text x="34.05" y="48.71" text-anchor="end" dy="0.35em" transform="rotate(-90, 34.05, 48.71)">Nov</text>
    <text x="38.71" y="48.71" text-anchor="end" dy="0.35em" transform="rotate(-90, 38.71, 48.71)">Dec</text>
    <text x="43.52" y="48.71" text-anchor="end" dy="0.35em" transform="rotate(-90, 43.52, 48.71)">Jan 2015</text>
    <text x="48.33" y="48.71" text-anchor="end" dy="0.35em" transform="rotate(-90, 48.33, 48.71)">Feb</text>
    <text x="52.68" y="48.71" text-anchor="end" dy="0.35em" transform="rotate(-90, 52.68, 48.71)">Mar</text>
    <text x="57.49" y="48.71" text-anchor="end" dy="0.35em" transform="rotate(-90, 57.49, 48.71)">Apr</text>
    <text x="62.15" y="48.71" text-anchor="end" dy="0.35em" transform="rotate(-90, 62.15, 48.71)">May</text>
    <text x="66.97" y="48.71" text-anchor="end" dy="0.35em" transform="rotate(-90, 66.97, 48.71)">Jun</text>
    <text x="71.62" y="48.71" text-anchor="end" dy="0.35em" transform="rotate(-90, 71.62, 48.71)">Jul</text>
    <text x="76.44" y="48.71" text-anchor="end" dy="0.35em" transform="rotate(-90, 76.44, 48.71)">Aug</text>
    <text x="81.25" y="48.71" text-anchor="end" dy="0.35em" transform="rotate(-90, 81.25, 48.71)">Sep</text>
    <text x="85.91" y="48.71" text-anchor="end" dy="0.35em" transform="rotate(-90, 85.91, 48.71)">Oct</text>
    <text x="90.72" y="48.71" text-anchor="end" dy="0.35em" transform="rotate(-90, 90.72, 48.71)">Nov</text>
  </g>
<g clip-path="url(#img-c48be528-4)">
  <g id="img-c48be528-5">
    <g pointer-events="visible" opacity="1" fill="#000000" fill-opacity="0.000" stroke="#000000" stroke-opacity="0.000" class="guide background" id="img-c48be528-6">
      <rect x="19.63" y="12.61" width="76.97" height="35.1"/>
    </g>
    <g class="guide ygridlines xfixed" stroke-dasharray="0.5,0.5" stroke-width="0.2" stroke="#D0D0E0" id="img-c48be528-7">
      <path fill="none" d="M19.63,45.71 L 96.6 45.71"/>
      <path fill="none" d="M19.63,39.49 L 96.6 39.49"/>
      <path fill="none" d="M19.63,33.27 L 96.6 33.27"/>
      <path fill="none" d="M19.63,27.05 L 96.6 27.05"/>
      <path fill="none" d="M19.63,20.83 L 96.6 20.83"/>
      <path fill="none" d="M19.63,14.61 L 96.6 14.61"/>
    </g>
    <g class="guide xgridlines yfixed" stroke-dasharray="0.5,0.5" stroke-width="0.2" stroke="#D0D0E0" id="img-c48be528-8">
      <path fill="none" d="M24.58,12.61 L 24.58 47.71"/>
      <path fill="none" d="M29.24,12.61 L 29.24 47.71"/>
      <path fill="none" d="M34.05,12.61 L 34.05 47.71"/>
      <path fill="none" d="M38.71,12.61 L 38.71 47.71"/>
      <path fill="none" d="M43.52,12.61 L 43.52 47.71"/>
      <path fill="none" d="M48.33,12.61 L 48.33 47.71"/>
      <path fill="none" d="M52.68,12.61 L 52.68 47.71"/>
      <path fill="none" d="M57.49,12.61 L 57.49 47.71"/>
      <path fill="none" d="M62.15,12.61 L 62.15 47.71"/>
      <path fill="none" d="M66.97,12.61 L 66.97 47.71"/>
      <path fill="none" d="M71.62,12.61 L 71.62 47.71"/>
      <path fill="none" d="M76.44,12.61 L 76.44 47.71"/>
      <path fill="none" d="M81.25,12.61 L 81.25 47.71"/>
      <path fill="none" d="M85.91,12.61 L 85.91 47.71"/>
      <path fill="none" d="M90.72,12.61 L 90.72 47.71"/>
    </g>
    <g class="plotpanel" id="img-c48be528-9">
      <g stroke-width="0.3" fill="#000000" fill-opacity="0.000" class="geometry color_newnot_possible" stroke-dasharray="none" stroke="#808080" id="img-c48be528-10">
        <path fill="none" d="M69.91,42.35 L 70.07 42.35 70.23 42.35 70.38 42.35 70.54 42.35 70.69 42.35 70.85 42.35 71 42.35 71.47 42.35 71.78 42.35 72.09 42.35 72.24 42.35 72.4 42.35 72.55 42.35 72.71 42.35 72.86 42.35 75.5 42.29 76.75 42.29 78.14 42.29 80.78 42.29 81.25 42.29 82.02 42.29 82.8 41.91 85.28 41.91 85.91 41.91 86.68 41.85 87.3 41.79 87.92 41.79 88.39 41.73 90.25 41.73 92.12 41.67 92.74 41.67 93.05 41.6 94.44 41.6 94.6 41.6"/>
      </g>
      <g stroke-width="0.3" fill="#000000" fill-opacity="0.000" class="geometry color_newno_tests" stroke-dasharray="none" stroke="#0000FF" id="img-c48be528-11">
        <path fill="none" d="M69.91,38.99 L 70.07 38.99 70.23 38.99 70.38 38.99 70.54 38.99 70.69 38.99 70.85 38.99 71 38.99 71.47 38.99 71.78 38.99 72.09 38.99 72.24 38.99 72.4 39.05 72.55 39.05 72.71 39.05 72.86 39.12 75.5 39.05 76.75 39.05 78.14 39.05 80.78 39.05 81.25 39.12 82.02 39.12 82.8 39.18 85.28 39.43 85.91 39.61 86.68 39.74 87.3 40.8 87.92 40.86 88.39 40.98 90.25 41.04 92.12 41.11 92.74 41.11 93.05 41.11 94.44 41.11 94.6 41.11"/>
      </g>
      <g stroke-width="0.3" fill="#000000" fill-opacity="0.000" class="geometry color_newtests_fail" stroke-dasharray="none" stroke="#FF0000" id="img-c48be528-12">
        <path fill="none" d="M69.91,33.02 L 70.07 33.46 70.23 33.33 70.38 32.09 70.54 32.03 70.69 32.21 70.85 32.21 71 33.21 71.47 32.65 71.78 32.65 72.09 33.33 72.24 33.46 72.4 32.03 72.55 33.27 72.71 32.34 72.86 32.77 75.5 33.27 76.75 32.9 78.14 33.46 80.78 33.21 81.25 33.52 82.02 33.83 82.8 34.7 85.28 34.51 85.91 34.89 86.68 35.07 87.3 35.7 87.92 35.94 88.39 36.38 90.25 36.13 92.12 36.25 92.74 36.44 93.05 36.63 94.44 36.63 94.6 36.81"/>
      </g>
      <g stroke-width="0.3" fill="#000000" fill-opacity="0.000" class="geometry color_newtests_pass" stroke-dasharray="none" stroke="#008000" id="img-c48be528-13">
        <path fill="none" d="M69.91,30.35 L 70.07 29.91 70.23 29.91 70.38 31.16 70.54 31.03 70.69 30.84 70.85 30.84 71 29.79 71.47 30.28 71.78 30.16 72.09 29.48 72.24 29.23 72.4 30.35 72.55 28.98 72.71 29.85 72.86 29.35 75.5 28.05 76.75 28.05 78.14 27.17 80.78 25.87 81.25 25.37 82.02 24.81 82.8 23.82 85.28 22.57 85.91 21.64 86.68 20.83 87.3 20.77 87.92 20.15 88.39 19.46 90.25 18.28 92.12 17.47 92.74 17.22 93.05 16.85 94.44 16.6 94.6 16.42"/>
      </g>
      <g stroke-width="0.3" fill="#000000" fill-opacity="0.000" class="geometry color_newnot_possible" stroke-dasharray="none" stroke="#808080" id="img-c48be528-14">
        <path fill="none" d="M21.63,43.34 L 21.79 43.28 21.94 43.22 22.1 43.22 22.25 43.22 22.41 43.22 22.72 43.22 22.87 43.22 23.03 43.22 23.18 43.22 23.34 43.22 23.49 43.22 23.65 43.22 23.81 43.22 24.12 43.22 24.27 43.16 24.58 43.16 24.74 43.16 24.89 43.1 25.51 43.1 25.98 43.1 26.13 43.1 26.29 43.1 26.44 43.1 26.6 43.1 26.75 43.1 26.91 43.1 27.07 43.1 27.22 43.1 27.53 43.03 27.69 43.03 27.84 43.03 28 43.03 28.15 43.03 28.31 43.03 28.46 42.97 28.77 42.97 28.93 42.97 29.08 42.97 29.24 42.97 29.39 42.91 29.55 42.91 29.7 42.91 29.86 42.91 30.33 42.91 30.48 42.85 30.64 42.85 30.79 42.85 30.95 42.85 31.1 42.85 31.26 42.85 31.41 42.85 31.57 42.85 31.72 42.85 31.88 42.79 32.03 42.79 32.19 42.79 32.34 42.79 32.5 42.79 32.65 42.79 32.81 42.79 32.97 42.79 33.12 42.79 33.28 42.79 33.43 42.79 33.59 42.79 33.74 42.79 33.9 42.79 34.05 42.79 34.21 42.79 34.36 42.79 34.52 42.79 34.67 42.79 34.83 42.79 35.29 42.79 36.07 42.79 36.23 42.79 36.38 42.79 36.54 42.79 36.69 42.79 36.85 42.79 37 42.79 37.62 42.79 37.78 42.79 38.55 42.79 38.86 42.79 39.02 42.85 39.18 42.85 39.33 42.85 39.49 42.85 39.64 42.85 39.8 42.85 40.26 42.85 40.42 42.85 40.73 42.85 40.88 42.85 41.04 42.85 41.5 42.85 41.81 42.85 42.28 42.85 42.9 42.85 43.21 42.85 43.68 42.85 44.76 42.85 45.39 42.85 45.54 42.72 45.7 42.72 45.85 42.66 46.01 42.66 46.16 42.66 46.47 42.66 46.63 42.66 46.78 42.66 46.94 42.6 47.09 42.6 47.25 42.6 47.4 42.6 47.71 42.54 47.87 42.54 48.02 42.54 48.65 42.54 48.8 42.54 48.96 42.54 49.27 42.54 49.58 42.54 49.73 42.54 50.2 42.54 50.97 42.54 51.75 42.54 52.53 42.54 52.68 42.54 52.84 42.54 52.99 42.1 53.15 42.16 53.46 42.1 53.77 42.1 54.39 42.1 54.55 42.1 54.7 42.1 54.86 42.1 55.01 42.1 55.17 42.16 55.32 42.1 57.18 42.04 57.49 41.98 57.65 41.98 57.96 41.98 58.58 41.98 58.89 41.98 59.2 41.98 59.82 41.98 60.13 41.98 60.29 41.98 60.6 41.98 60.76 41.98 60.91 41.98 61.07 41.98 61.22 41.98 61.38 41.98 61.69 41.98 61.84 41.98 62.15 41.98 62.46 41.98 62.62 41.98 62.77 41.98 63.08 41.98 63.24 41.98 64.02 41.98 64.64 42.04 64.79 41.98 66.03 41.98 66.19 41.85 66.34 41.85 66.81 41.85 66.97 41.85 67.12 41.91 67.43 41.91 67.74 41.91 68.05 41.91 69.45 41.91"/>
      </g>
      <g stroke-width="0.3" fill="#000000" fill-opacity="0.000" class="geometry color_newtests_fail" stroke-dasharray="none" stroke="#FF0000" id="img-c48be528-15">
        <path fill="none" d="M21.63,44.34 L 21.79 44.28 21.94 44.46 22.1 43.1 22.25 43.1 22.41 43.1 22.72 44.4 22.87 44.46 23.03 44.4 23.18 44.53 23.34 44.59 23.49 44.53 23.65 44.53 23.81 44.59 24.12 44.15 24.27 44.03 24.58 43.97 24.74 43.97 24.89 44.03 25.51 44.03 25.98 44.15 26.13 44.15 26.29 44.15 26.44 44.22 26.6 44.28 26.75 44.46 26.91 44.46 27.07 44.46 27.22 44.46 27.53 44.34 27.69 44.28 27.84 44.34 28 44.34 28.15 44.4 28.31 44.28 28.46 44.15 28.77 44.59 28.93 42.66 29.08 42.6 29.24 43.78 29.39 43.78 29.55 43.84 29.7 43.84 29.86 43.84 30.33 42.66 30.48 43.59 30.64 43.78 30.79 43.84 30.95 43.9 31.1 43.78 31.26 43.9 31.41 43.9 31.57 43.78 31.72 43.72 31.88 43.53 32.03 43.66 32.19 43.84 32.34 43.84 32.5 43.84 32.65 38.93 32.81 38.93 32.97 38.93 33.12 39.61 33.28 39.61 33.43 43.66 33.59 43.72 33.74 43.78 33.9 43.78 34.05 43.78 34.21 43.78 34.36 43.78 34.52 43.78 34.67 43.84 34.83 43.78 35.29 43.97 36.07 43.9 36.23 43.9 36.38 43.9 36.54 43.9 36.69 43.9 36.85 43.84 37 43.84 37.62 43.84 37.78 43.78 38.55 43.9 38.86 43.97 39.02 43.59 39.18 43.9 39.33 43.84 39.49 43.9 39.64 43.9 39.8 43.9 40.26 44.09 40.42 44.09 40.73 43.41 40.88 43.41 41.04 43.41 41.5 43.41 41.81 43.41 42.28 44.15 42.9 44.15 43.21 44.09 43.68 44.15 44.76 44.03 45.39 43.9 45.54 44.03 45.7 44.03 45.85 43.84 46.01 43.47 46.16 43.47 46.47 43.47 46.63 43.47 46.78 43.47 46.94 43.47 47.09 43.47 47.25 43.47 47.4 43.47 47.71 43.47 47.87 43.41 48.02 43.41 48.65 43.1 48.8 43.1 48.96 43.1 49.27 43.03 49.58 38.99 49.73 43.03 50.2 42.85 50.97 42.85 51.75 42.79 52.53 41.23 52.68 41.79 52.84 42.29 52.99 42.97 53.15 43.16 53.46 43.16 53.77 42.79 54.39 42.85 54.55 42.85 54.7 42.79 54.86 42.79 55.01 36.38 55.17 34.7 55.32 35.63 57.18 41.42 57.49 41.6 57.65 42.72 57.96 42.79 58.58 42.79 58.89 42.79 59.2 42.85 59.82 42.79 60.13 32.71 60.29 35.7 60.6 37.69 60.76 37.69 60.91 37.69 61.07 37.37 61.22 37.44 61.38 37.75 61.69 37.87 61.84 37.75 62.15 33.58 62.46 33.77 62.62 34.95 62.77 34.95 63.08 35.45 63.24 36.13 64.02 36.38 64.64 36.69 64.79 36.63 66.03 37.44 66.19 37.5 66.34 37.56 66.81 37.44 66.97 37.44 67.12 37.44 67.43 37.62 67.74 37.5 68.05 37.56 69.45 37.31"/>
      </g>
      <g stroke-width="0.3" fill="#000000" fill-opacity="0.000" class="geometry color_newno_tests" stroke-dasharray="none" stroke="#0000FF" id="img-c48be528-16">
        <path fill="none" d="M21.63,42.72 L 21.79 42.66 21.94 42.66 22.1 43.03 22.25 43.03 22.41 43.03 22.72 42.72 22.87 42.72 23.03 42.79 23.18 42.79 23.34 42.79 23.49 42.79 23.65 42.79 23.81 42.85 24.12 43.03 24.27 43.1 24.58 43.1 24.74 43.1 24.89 43.1 25.51 43.1 25.98 43.03 26.13 43.03 26.29 42.97 26.44 42.97 26.6 42.97 26.75 42.97 26.91 42.97 27.07 43.03 27.22 43.03 27.53 42.97 27.69 43.03 27.84 42.97 28 42.97 28.15 42.97 28.31 42.97 28.46 43.1 28.77 42.97 28.93 43.16 29.08 43.16 29.24 42.97 29.39 42.97 29.55 42.97 29.7 42.97 29.86 42.97 30.33 43.22 30.48 43.03 30.64 42.97 30.79 42.97 30.95 42.97 31.1 42.97 31.26 42.97 31.41 42.97 31.57 42.97 31.72 42.97 31.88 42.97 32.03 42.97 32.19 42.97 32.34 42.97 32.5 42.97 32.65 43.34 32.81 43.34 32.97 43.34 33.12 43.22 33.28 43.22 33.43 42.97 33.59 42.97 33.74 42.97 33.9 42.97 34.05 42.97 34.21 42.97 34.36 42.97 34.52 42.97 34.67 42.97 34.83 42.97 35.29 42.97 36.07 42.97 36.23 42.97 36.38 42.97 36.54 42.97 36.69 42.97 36.85 42.97 37 42.97 37.62 42.97 37.78 42.97 38.55 42.97 38.86 42.97 39.02 42.97 39.18 42.97 39.33 43.03 39.49 42.97 39.64 42.97 39.8 42.97 40.26 42.97 40.42 42.97 40.73 42.97 40.88 42.97 41.04 42.97 41.5 42.97 41.81 42.97 42.28 42.91 42.9 42.97 43.21 42.91 43.68 42.91 44.76 42.91 45.39 42.91 45.54 42.91 45.7 42.91 45.85 42.91 46.01 42.91 46.16 42.91 46.47 42.91 46.63 42.91 46.78 42.91 46.94 42.91 47.09 42.91 47.25 42.91 47.4 42.91 47.71 42.91 47.87 42.91 48.02 42.91 48.65 42.97 48.8 42.97 48.96 42.97 49.27 42.97 49.58 43.1 49.73 42.91 50.2 42.91 50.97 42.91 51.75 42.91 52.53 43.1 52.68 43.03 52.84 43.03 52.99 43.03 53.15 42.97 53.46 42.97 53.77 43.03 54.39 43.03 54.55 43.03 54.7 43.1 54.86 43.1 55.01 43.78 55.17 43.84 55.32 43.84 57.18 43.1 57.49 43.1 57.65 43.1 57.96 43.1 58.58 43.1 58.89 43.1 59.2 43.1 59.82 43.16 60.13 43.66 60.29 43.53 60.6 43.47 60.76 43.41 60.91 43.47 61.07 43.47 61.22 43.47 61.38 43.47 61.69 43.47 61.84 43.53 62.15 43.72 62.46 43.59 62.62 43.53 62.77 43.53 63.08 43.53 63.24 43.47 64.02 43.47 64.64 43.41 64.79 43.41 66.03 43.34 66.19 43.34 66.34 43.34 66.81 43.34 66.97 43.34 67.12 43.34 67.43 43.34 67.74 43.34 68.05 43.34 69.45 43.34"/>
      </g>
      <g stroke-width="0.3" fill="#000000" fill-opacity="0.000" class="geometry color_oldfull_fail" stroke-dasharray="none" stroke="#FFA500" id="img-c48be528-17">
        <path fill="none" d="M21.63,43.72 L 21.79 43.72 21.94 43.16 22.1 43.1 22.25 43.03 22.41 43.03 22.72 43.03 22.87 43.1 23.03 43.22 23.18 43.03 23.34 42.97 23.49 43.1 23.65 43.16 23.81 42.97 24.12 42.72 24.27 43.1 24.58 43.03 24.74 43.03 24.89 43.03 25.51 43.03 25.98 42.85 26.13 42.91 26.29 42.97 26.44 42.85 26.6 42.91 26.75 43.03 26.91 42.79 27.07 42.66 27.22 42.66 27.53 42.91 27.69 42.85 27.84 42.85 28 42.97 28.15 42.91 28.31 42.66 28.46 42.72 28.77 43.03 28.93 42.35 29.08 42.16 29.24 42.47 29.39 42.54 29.55 42.54 29.7 42.54 29.86 42.47 30.33 41.29 30.48 41.98 30.64 42.66 30.79 42.6 30.95 42.41 31.1 42.6 31.26 42.66 31.41 42.66 31.57 42.54 31.72 42.47 31.88 42.72 32.03 42.72 32.19 42.66 32.34 42.6 32.5 42.6 32.65 43.28 32.81 43.22 32.97 43.22 33.12 43.16 33.28 43.03 33.43 41.42 33.59 41.85 33.74 42.1 33.9 41.79 34.05 41.79 34.21 41.73 34.36 41.73 34.52 41.73 34.67 41.85 34.83 42.04 35.29 42.04 36.07 41.91 36.23 41.79 36.38 41.79 36.54 41.85 36.69 41.91 36.85 41.98 37 41.85 37.62 41.29 37.78 41.35 38.55 40.98 38.86 41.17 39.02 41.29 39.18 41.35 39.33 41.35 39.49 41.48 39.64 41.42 39.8 41.35 40.26 40.98 40.42 41.04 40.73 40.98 40.88 40.73 41.04 40.92 41.5 41.04 41.81 41.17 42.28 40.98 42.9 41.04 43.21 41.35 43.68 41.11 44.76 40.86 45.39 41.04 45.54 41.04 45.7 41.04 45.85 40.86 46.01 40.67 46.16 40.73 46.47 40.86 46.63 40.8 46.78 40.8 46.94 40.55 47.09 40.61 47.25 40.55 47.4 40.55 47.71 40.61 47.87 40.48 48.02 40.3 48.65 40.11 48.8 39.99 48.96 40.11 49.27 40.17 49.58 41.54 49.73 39.55 50.2 39.24 50.97 39.24 51.75 39.3 52.53 39.61 52.68 39.49 52.84 39.36 52.99 39.36 53.15 39.55 53.46 39.36 53.77 38.43 54.39 37.87 54.55 37.93 54.7 37.75 54.86 37.87 55.01 39.99 55.17 40.67 55.32 40.11 57.18 38.62 57.49 38.56 57.65 38 57.96 38.37 58.58 38.8 58.89 38.87 59.2 38.74 59.82 38.99 60.13 40.8 60.29 40.3 60.6 39.3 60.76 39.24 60.91 38.99 61.07 37.81 61.22 38.18 61.38 38.43 61.69 38.49 61.84 38.56 62.15 40.05 62.46 40.05 62.62 39.68 62.77 39.61 63.08 39.8 63.24 39.3 64.02 39.36 64.64 39.55 64.79 39.55 66.03 39.74 66.19 39.74 66.34 39.92 66.81 39.61 66.97 39.55 67.12 39.61 67.43 39.43 67.74 39.18 68.05 38.93 69.45 38.74"/>
      </g>
      <g stroke-width="0.3" fill="#000000" fill-opacity="0.000" class="geometry color_newtests_pass" stroke-dasharray="none" stroke="#008000" id="img-c48be528-18">
        <path fill="none" d="M21.63,31.78 L 21.79 31.78 21.94 32.15 22.1 33.15 22.25 33.21 22.41 33.21 22.72 32.03 22.87 31.9 23.03 31.71 23.18 31.78 23.34 31.78 23.49 31.53 23.65 31.34 23.81 31.4 24.12 31.78 24.27 31.34 24.58 31.34 24.74 31.34 24.89 31.34 25.51 31.34 25.98 31.09 26.13 30.97 26.29 30.91 26.44 30.84 26.6 30.72 26.75 30.41 26.91 30.16 27.07 30.22 27.22 30.22 27.53 30.16 27.69 30.22 27.84 30.16 28 30.04 28.15 30.04 28.31 30.35 28.46 30.35 28.77 29.79 28.93 32.15 29.08 32.4 29.24 30.97 29.39 30.84 29.55 30.78 29.7 30.78 29.86 30.72 30.33 32.71 30.48 31.34 30.64 30.41 30.79 30.35 30.95 30.47 31.1 30.41 31.26 30.1 31.41 30.1 31.57 30.28 31.72 30.35 31.88 30.35 32.03 30.22 32.19 30.1 32.34 30.04 32.5 29.91 32.65 33.77 32.81 33.83 32.97 33.77 33.12 33.27 33.28 33.33 33.43 31.16 33.59 30.53 33.74 30.16 33.9 30.47 34.05 30.41 34.21 30.47 34.36 30.47 34.52 30.47 34.67 30.22 34.83 30.04 35.29 29.85 36.07 29.66 36.23 29.66 36.38 29.66 36.54 29.54 36.69 29.48 36.85 29.29 37 29.41 37.62 29.66 37.78 29.66 38.55 29.85 38.86 29.6 39.02 29.66 39.18 29.23 39.33 29.23 39.49 29.1 39.64 29.04 39.8 28.98 40.26 29.1 40.42 28.98 40.73 29.48 40.88 29.72 41.04 29.54 41.5 29.41 41.81 29.16 42.28 28.54 42.9 28.29 43.21 27.86 43.68 27.92 44.76 27.86 45.39 27.36 45.54 27.24 45.7 27.24 45.85 27.3 46.01 27.86 46.16 27.8 46.47 27.61 46.63 27.61 46.78 27.61 46.94 27.73 47.09 27.61 47.25 27.67 47.4 27.67 47.71 27.49 47.87 27.49 48.02 27.61 48.65 27.55 48.8 27.67 48.96 27.73 49.27 27.55 49.58 29.91 49.73 28.05 50.2 28.42 50.97 28.42 51.75 28.36 52.53 28.85 52.68 28.48 52.84 28.11 52.99 27.73 53.15 27.36 53.46 27.49 53.77 28.73 54.39 29.16 54.55 28.98 54.7 29.16 54.86 29.04 55.01 32.52 55.17 33.46 55.32 33.02 57.18 29.29 57.49 29.23 57.65 28.48 57.96 28.05 58.58 27.55 58.89 27.42 59.2 27.3 59.82 26.93 60.13 34.58 60.29 32.03 60.6 30.78 60.76 30.91 60.91 31.03 61.07 32.4 61.22 31.96 61.38 31.34 61.69 31.09 61.84 30.97 62.15 33.46 62.46 33.27 62.62 32.34 62.77 32.34 63.08 31.53 63.24 31.34 64.02 30.78 64.64 30.16 64.79 30.16 66.03 29.04 66.19 29.1 66.34 28.85 66.81 29.04 66.97 29.04 67.12 28.79 67.43 28.67 67.74 29.04 68.05 29.1 69.45 29.1"/>
      </g>
    </g>
  </g>
</g>
  <g class="guide ylabels" font-size="2.82" font-family="'PT Sans Caption','Helvetica Neue','Helvetica',sans-serif" fill="#6C606B" id="img-c48be528-19">
    <text x="18.63" y="45.71" text-anchor="end" dy="0.35em">0</text>
    <text x="18.63" y="39.49" text-anchor="end" dy="0.35em">100</text>
    <text x="18.63" y="33.27" text-anchor="end" dy="0.35em">200</text>
    <text x="18.63" y="27.05" text-anchor="end" dy="0.35em">300</text>
    <text x="18.63" y="20.83" text-anchor="end" dy="0.35em">400</text>
    <text x="18.63" y="14.61" text-anchor="end" dy="0.35em">500</text>
  </g>
  <g font-size="3.88" font-family="'PT Sans','Helvetica Neue','Helvetica',sans-serif" fill="#564A55" stroke="#000000" stroke-opacity="0.000" id="img-c48be528-20">
    <text x="8.81" y="28.16" text-anchor="middle" dy="0.35em" transform="rotate(-90, 8.81, 30.16)">Number of Packages</text>
  </g>
  <g font-size="3.88" font-family="'PT Sans','Helvetica Neue','Helvetica',sans-serif" fill="#564A55" stroke="#000000" stroke-opacity="0.000" id="img-c48be528-21">
    <text x="58.12" y="10.61" text-anchor="middle">Julia v0.4</text>
  </g>
</g>
<defs>
  <clipPath id="img-c48be528-4">
  <path d="M19.63,12.61 L 96.6 12.61 96.6 47.71 19.63 47.71" />
</clipPath>
</defs>
</svg>
