<?xml version="1.0" encoding="UTF-8"?>
<svg xmlns="http://www.w3.org/2000/svg"
     xmlns:xlink="http://www.w3.org/1999/xlink"
     xmlns:gadfly="http://www.gadflyjl.org/ns"
     version="1.2"
     width="101.6mm" height="76.2mm" viewBox="0 0 101.6 76.2"
     stroke="none"
     fill="#000000"
     stroke-width="0.3"
     font-size="3.88"
>
<g class="plotroot xscalable yscalable" id="img-f7561e71-1">
  <g font-size="3.88" font-family="'PT Sans','Helvetica Neue','Helvetica',sans-serif" fill="#564A55" stroke="#000000" stroke-opacity="0.000" id="img-f7561e71-2">
    <text x="58.12" y="64.59" text-anchor="middle" dy="0.6em">Date</text>
  </g>
  <g class="guide xlabels" font-size="2.82" font-family="'PT Sans Caption','Helvetica Neue','Helvetica',sans-serif" fill="#6C606B" id="img-f7561e71-3">
    <text x="24.54" y="48.71" text-anchor="end" dy="0.35em" transform="rotate(-90, 24.54, 48.71)">Sep</text>
    <text x="29.13" y="48.71" text-anchor="end" dy="0.35em" transform="rotate(-90, 29.13, 48.71)">Oct</text>
    <text x="33.87" y="48.71" text-anchor="end" dy="0.35em" transform="rotate(-90, 33.87, 48.71)">Nov</text>
    <text x="38.46" y="48.71" text-anchor="end" dy="0.35em" transform="rotate(-90, 38.46, 48.71)">Dec</text>
    <text x="43.2" y="48.71" text-anchor="end" dy="0.35em" transform="rotate(-90, 43.2, 48.71)">Jan 2015</text>
    <text x="47.94" y="48.71" text-anchor="end" dy="0.35em" transform="rotate(-90, 47.94, 48.71)">Feb</text>
    <text x="52.23" y="48.71" text-anchor="end" dy="0.35em" transform="rotate(-90, 52.23, 48.71)">Mar</text>
    <text x="56.97" y="48.71" text-anchor="end" dy="0.35em" transform="rotate(-90, 56.97, 48.71)">Apr</text>
    <text x="61.56" y="48.71" text-anchor="end" dy="0.35em" transform="rotate(-90, 61.56, 48.71)">May</text>
    <text x="66.3" y="48.71" text-anchor="end" dy="0.35em" transform="rotate(-90, 66.3, 48.71)">Jun</text>
    <text x="70.89" y="48.71" text-anchor="end" dy="0.35em" transform="rotate(-90, 70.89, 48.71)">Jul</text>
    <text x="75.63" y="48.71" text-anchor="end" dy="0.35em" transform="rotate(-90, 75.63, 48.71)">Aug</text>
    <text x="80.37" y="48.71" text-anchor="end" dy="0.35em" transform="rotate(-90, 80.37, 48.71)">Sep</text>
    <text x="84.96" y="48.71" text-anchor="end" dy="0.35em" transform="rotate(-90, 84.96, 48.71)">Oct</text>
    <text x="89.7" y="48.71" text-anchor="end" dy="0.35em" transform="rotate(-90, 89.7, 48.71)">Nov</text>
    <text x="94.29" y="48.71" text-anchor="end" dy="0.35em" transform="rotate(-90, 94.29, 48.71)">Dec</text>
  </g>
<g clip-path="url(#img-f7561e71-4)">
  <g id="img-f7561e71-5">
    <g pointer-events="visible" opacity="1" fill="#000000" fill-opacity="0.000" stroke="#000000" stroke-opacity="0.000" class="guide background" id="img-f7561e71-6">
      <rect x="19.63" y="12.61" width="76.97" height="35.1"/>
    </g>
    <g class="guide ygridlines xfixed" stroke-dasharray="0.5,0.5" stroke-width="0.2" stroke="#D0D0E0" id="img-f7561e71-7">
      <path fill="none" d="M19.63,45.71 L 96.6 45.71"/>
      <path fill="none" d="M19.63,30.16 L 96.6 30.16"/>
      <path fill="none" d="M19.63,14.61 L 96.6 14.61"/>
    </g>
    <g class="guide xgridlines yfixed" stroke-dasharray="0.5,0.5" stroke-width="0.2" stroke="#D0D0E0" id="img-f7561e71-8">
      <path fill="none" d="M24.54,12.61 L 24.54 47.71"/>
      <path fill="none" d="M29.13,12.61 L 29.13 47.71"/>
      <path fill="none" d="M33.87,12.61 L 33.87 47.71"/>
      <path fill="none" d="M38.46,12.61 L 38.46 47.71"/>
      <path fill="none" d="M43.2,12.61 L 43.2 47.71"/>
      <path fill="none" d="M47.94,12.61 L 47.94 47.71"/>
      <path fill="none" d="M52.23,12.61 L 52.23 47.71"/>
      <path fill="none" d="M56.97,12.61 L 56.97 47.71"/>
      <path fill="none" d="M61.56,12.61 L 61.56 47.71"/>
      <path fill="none" d="M66.3,12.61 L 66.3 47.71"/>
      <path fill="none" d="M70.89,12.61 L 70.89 47.71"/>
      <path fill="none" d="M75.63,12.61 L 75.63 47.71"/>
      <path fill="none" d="M80.37,12.61 L 80.37 47.71"/>
      <path fill="none" d="M84.96,12.61 L 84.96 47.71"/>
      <path fill="none" d="M89.7,12.61 L 89.7 47.71"/>
      <path fill="none" d="M94.29,12.61 L 94.29 47.71"/>
    </g>
    <g class="plotpanel" id="img-f7561e71-9">
      <g stroke-width="0.3" fill="#000000" fill-opacity="0.000" class="geometry color_newnot_possible" stroke-dasharray="none" stroke="#808080" id="img-f7561e71-10">
        <path fill="none" d="M69.21,42.97 L 69.36 42.97 69.51 42.98 69.67 42.98 69.82 42.99 69.97 42.99 70.12 42.99 70.28 43 70.74 43 71.04 43.01 71.35 43.01 71.5 43.02 71.65 43.03 71.81 43.04 71.96 43.05 72.11 43.05 74.71 43.06 75.94 43.09 77.31 43.11 79.91 43.2 80.37 43.21 81.14 43.22 81.9 42.98 84.35 43.05 84.96 43.07 85.73 43.06 86.34 42.93 86.95 42.95 87.41 42.91 89.25 43 91.08 43 91.69 43 92 42.97 93.38 42.99 93.53 42.99 94.6 43"/>
      </g>
      <g stroke-width="0.3" fill="#000000" fill-opacity="0.000" class="geometry color_newno_tests" stroke-dasharray="none" stroke="#0000FF" id="img-f7561e71-11">
        <path fill="none" d="M69.21,40.23 L 69.36 40.23 69.51 40.25 69.67 40.25 69.82 40.27 69.97 40.27 70.12 40.27 70.28 40.28 70.74 40.29 71.04 40.31 71.35 40.31 71.5 40.33 71.65 40.41 71.81 40.43 71.96 40.44 72.11 40.48 74.71 40.56 75.94 40.61 77.31 40.64 79.91 40.83 80.37 40.89 81.14 40.92 81.9 41.01 84.35 41.31 84.96 41.48 85.73 41.61 86.34 42.22 86.95 42.29 87.41 42.39 89.25 42.53 91.08 42.62 91.69 42.62 92 42.64 93.38 42.66 93.53 42.66 94.6 42.68"/>
      </g>
      <g stroke-width="0.3" fill="#000000" fill-opacity="0.000" class="geometry color_newtests_fail" stroke-dasharray="none" stroke="#FF0000" id="img-f7561e71-12">
        <path fill="none" d="M69.21,35.36 L 69.36 35.71 69.51 35.65 69.67 34.63 69.82 34.64 69.97 34.79 70.12 34.79 70.28 35.61 70.74 35.18 71.04 35.21 71.35 35.76 71.5 35.89 71.65 34.81 71.81 35.84 71.96 35.11 72.11 35.46 74.71 36.08 75.94 35.88 77.31 36.38 79.91 36.54 80.37 36.8 81.14 37.08 81.9 37.79 84.35 37.87 84.96 38.19 85.73 38.41 86.34 38.6 86.95 38.82 87.41 39.16 89.25 39.18 91.08 39.36 91.69 39.5 92 39.65 93.38 39.69 93.53 39.81 94.6 39.69"/>
      </g>
      <g stroke-width="0.3" fill="#000000" fill-opacity="0.000" class="geometry color_newtests_pass" stroke-dasharray="none" stroke="#008000" id="img-f7561e71-13">
        <path fill="none" d="M69.21,33.18 L 69.36 32.82 69.51 32.87 69.67 33.88 69.82 33.83 69.97 33.68 70.12 33.68 70.28 32.85 70.74 33.27 71.04 33.21 71.35 32.66 71.5 32.5 71.65 33.48 71.81 32.43 71.96 33.14 72.11 32.75 74.71 32.04 75.94 32.16 77.31 31.6 79.91 31.16 80.37 30.84 81.14 30.52 81.9 29.96 84.35 29.51 84.96 28.99 85.73 28.65 86.34 28 86.95 27.68 87.41 27.28 89.25 27.02 91.08 26.76 91.69 26.62 92 26.47 93.38 26.41 93.53 26.28 94.6 26.37"/>
      </g>
      <g stroke-width="0.3" fill="#000000" fill-opacity="0.000" class="geometry color_newnot_possible" stroke-dasharray="none" stroke="#808080" id="img-f7561e71-14">
        <path fill="none" d="M21.63,42.46 L 21.78 42.4 21.94 42.33 22.09 42.34 22.24 42.34 22.4 42.34 22.7 42.36 22.86 42.36 23.01 42.37 23.16 42.37 23.31 42.37 23.47 42.4 23.62 42.42 23.77 42.42 24.08 42.44 24.23 42.38 24.54 42.4 24.69 42.4 24.84 42.32 25.46 42.32 25.91 42.37 26.07 42.38 26.22 42.39 26.37 42.4 26.53 42.4 26.68 42.4 26.83 42.47 26.99 42.47 27.14 42.47 27.44 42.4 27.6 42.4 27.75 42.41 27.9 42.41 28.06 42.41 28.21 42.41 28.36 42.34 28.67 42.33 28.82 42.34 28.97 42.34 29.13 42.35 29.28 42.3 29.43 42.3 29.59 42.3 29.74 42.31 30.2 42.33 30.35 42.25 30.5 42.27 30.66 42.28 30.81 42.28 30.96 42.28 31.12 42.29 31.27 42.29 31.42 42.3 31.57 42.31 31.73 42.24 31.88 42.24 32.03 42.24 32.19 42.25 32.34 42.27 32.49 42.27 32.65 42.27 32.8 42.28 32.95 42.28 33.1 42.29 33.26 42.29 33.41 42.3 33.56 42.31 33.72 42.31 33.87 42.32 34.02 42.32 34.18 42.32 34.33 42.32 34.48 42.33 34.63 42.33 35.09 42.33 35.86 42.38 36.01 42.39 36.16 42.39 36.32 42.4 36.47 42.4 36.62 42.42 36.78 42.42 37.39 42.46 37.54 42.46 38.31 42.47 38.61 42.47 38.76 42.55 38.92 42.56 39.07 42.56 39.22 42.56 39.38 42.57 39.53 42.59 39.99 42.59 40.14 42.6 40.45 42.63 40.6 42.63 40.75 42.63 41.21 42.63 41.52 42.64 41.98 42.65 42.59 42.66 42.89 42.69 43.35 42.7 44.42 42.75 45.04 42.79 45.19 42.67 45.34 42.67 45.5 42.65 45.65 42.65 45.8 42.65 46.11 42.65 46.26 42.66 46.41 42.66 46.57 42.62 46.72 42.62 46.87 42.62 47.03 42.62 47.33 42.58 47.48 42.6 47.64 42.6 48.25 42.65 48.4 42.65 48.55 42.63 48.86 42.65 49.17 42.67 49.32 42.67 49.78 42.68 50.54 42.68 51.31 42.69 52.07 42.74 52.23 42.74 52.38 42.74 52.53 42.34 52.69 42.4 52.99 42.36 53.3 42.36 53.91 42.36 54.06 42.37 54.22 42.37 54.37 42.37 54.52 42.39 54.67 42.44 54.83 42.39 56.66 42.36 56.97 42.3 57.12 42.32 57.43 42.32 58.04 42.33 58.35 42.33 58.65 42.35 59.26 42.36 59.57 42.38 59.72 42.39 60.03 42.42 60.18 42.42 60.33 42.43 60.49 42.44 60.64 42.44 60.79 42.45 61.1 42.45 61.25 42.46 61.56 42.46 61.86 42.47 62.02 42.49 62.17 42.5 62.48 42.51 62.63 42.51 63.39 42.54 64.01 42.6 64.16 42.56 65.38 42.57 65.54 42.47 65.69 42.47 66.15 42.49 66.3 42.5 66.45 42.56 66.76 42.57 67.06 42.57 67.37 42.58 68.75 42.61"/>
      </g>
      <g stroke-width="0.3" fill="#000000" fill-opacity="0.000" class="geometry color_newtests_fail" stroke-dasharray="none" stroke="#FF0000" id="img-f7561e71-15">
        <path fill="none" d="M21.63,43.83 L 21.78 43.76 21.94 44.02 22.09 42.17 22.24 42.17 22.4 42.17 22.7 43.95 22.86 44.04 23.01 43.96 23.16 44.12 23.31 44.21 23.47 44.14 23.62 44.15 23.77 44.23 24.08 43.66 24.23 43.52 24.54 43.45 24.69 43.45 24.84 43.53 25.46 43.53 25.91 43.72 26.07 43.73 26.22 43.73 26.37 43.82 26.53 43.9 26.68 44.13 26.83 44.17 26.99 44.17 27.14 44.17 27.44 44.01 27.6 43.94 27.75 44.02 27.9 44.02 28.06 44.1 28.21 43.95 28.36 43.79 28.67 44.33 28.82 41.96 28.97 41.88 29.13 43.35 29.28 43.36 29.43 43.43 29.59 43.43 29.74 43.44 30.2 42.03 30.35 43.15 30.5 43.39 30.66 43.47 30.81 43.55 30.96 43.4 31.12 43.56 31.27 43.56 31.42 43.41 31.57 43.34 31.73 43.12 31.88 43.27 32.03 43.49 32.19 43.5 32.34 43.51 32.49 37.73 32.65 37.73 32.8 37.75 32.95 38.55 33.1 38.57 33.26 43.31 33.41 43.39 33.56 43.47 33.72 43.47 33.87 43.47 34.02 43.47 34.18 43.47 34.33 43.47 34.48 43.55 34.63 43.48 35.09 43.7 35.86 43.65 36.01 43.66 36.16 43.66 36.32 43.67 36.47 43.67 36.62 43.61 36.78 43.61 37.39 43.64 37.54 43.57 38.31 43.71 38.61 43.78 38.76 43.37 38.92 43.72 39.07 43.65 39.22 43.72 39.38 43.73 39.53 43.74 39.99 43.95 40.14 43.95 40.45 43.23 40.6 43.23 40.75 43.23 41.21 43.23 41.52 43.24 41.98 44.05 42.59 44.05 42.89 44 43.35 44.08 44.42 43.97 45.04 43.87 45.19 44 45.34 44 45.5 43.84 45.65 43.46 45.8 43.46 46.11 43.46 46.26 43.47 46.41 43.47 46.57 43.48 46.72 43.49 46.87 43.49 47.03 43.49 47.33 43.5 47.48 43.45 47.64 43.46 48.25 43.19 48.4 43.19 48.55 43.18 48.86 43.13 49.17 39.27 49.32 43.15 49.78 42.98 50.54 42.98 51.31 42.92 52.07 41.52 52.23 42.04 52.38 42.51 52.53 43.16 52.69 43.33 52.99 43.34 53.3 42.99 53.91 43.05 54.06 43.06 54.22 43.01 54.37 43.01 54.52 37.12 54.67 35.55 54.83 36.45 56.66 41.79 56.97 41.96 57.12 43 57.43 43.06 58.04 43.06 58.35 43.07 58.65 43.14 59.26 43.09 59.57 34.1 59.72 36.82 60.03 38.65 60.18 38.65 60.33 38.66 60.49 38.41 60.64 38.47 60.79 38.75 61.1 38.87 61.25 38.79 61.56 35.16 61.86 35.36 62.02 36.43 62.17 36.45 62.48 36.91 62.63 37.51 63.39 37.78 64.01 38.07 64.16 38.04 65.38 38.76 65.54 38.81 65.69 38.86 66.15 38.8 66.3 38.82 66.45 38.84 66.76 39.02 67.06 38.91 67.37 38.99 68.75 38.86"/>
      </g>
      <g stroke-width="0.3" fill="#000000" fill-opacity="0.000" class="geometry color_newno_tests" stroke-dasharray="none" stroke="#0000FF" id="img-f7561e71-16">
        <path fill="none" d="M21.63,41.61 L 21.78 41.56 21.94 41.57 22.09 42.08 22.24 42.08 22.4 42.08 22.7 41.7 22.86 41.7 23.01 41.79 23.16 41.79 23.31 41.79 23.47 41.82 23.62 41.84 23.77 41.92 24.08 42.19 24.23 42.3 24.54 42.32 24.69 42.32 24.84 42.32 25.46 42.32 25.91 42.29 26.07 42.3 26.22 42.23 26.37 42.24 26.53 42.24 26.68 42.24 26.83 42.31 26.99 42.39 27.14 42.39 27.44 42.32 27.6 42.4 27.75 42.33 27.9 42.33 28.06 42.33 28.21 42.34 28.36 42.49 28.67 42.33 28.82 42.57 28.97 42.57 29.13 42.35 29.28 42.37 29.43 42.37 29.59 42.37 29.74 42.39 30.2 42.7 30.35 42.48 30.5 42.42 30.66 42.43 30.81 42.43 30.96 42.43 31.12 42.44 31.27 42.44 31.42 42.45 31.57 42.46 31.73 42.46 31.88 42.46 32.03 42.46 32.19 42.47 32.34 42.49 32.49 42.93 32.65 42.93 32.8 42.93 32.95 42.79 33.1 42.8 33.26 42.5 33.41 42.52 33.56 42.53 33.72 42.53 33.87 42.53 34.02 42.53 34.18 42.53 34.33 42.53 34.48 42.54 34.63 42.55 35.09 42.55 35.86 42.59 36.01 42.61 36.16 42.61 36.32 42.61 36.47 42.61 36.62 42.63 36.78 42.63 37.39 42.67 37.54 42.67 38.31 42.67 38.61 42.67 38.76 42.69 38.92 42.69 39.07 42.76 39.22 42.69 39.38 42.71 39.53 42.72 39.99 42.73 40.14 42.73 40.45 42.76 40.6 42.76 40.75 42.76 41.21 42.76 41.52 42.77 41.98 42.72 42.59 42.8 42.89 42.76 43.35 42.77 44.42 42.81 45.04 42.85 45.19 42.86 45.34 42.86 45.5 42.9 45.65 42.9 45.8 42.9 46.11 42.9 46.26 42.91 46.41 42.91 46.57 42.93 46.72 42.93 46.87 42.93 47.03 42.93 47.33 42.95 47.48 42.96 47.64 42.97 48.25 43.07 48.4 43.07 48.55 43.06 48.86 43.07 49.17 43.21 49.32 43.03 49.78 43.04 50.54 43.04 51.31 43.04 52.07 43.26 52.23 43.2 52.38 43.2 52.53 43.21 52.69 43.16 52.99 43.17 53.3 43.22 53.91 43.23 54.06 43.24 54.22 43.29 54.37 43.29 54.52 43.93 54.67 43.99 54.83 43.99 56.66 43.33 56.97 43.33 57.12 43.34 57.43 43.34 58.04 43.34 58.35 43.35 58.65 43.36 59.26 43.42 59.57 43.88 59.72 43.78 60.03 43.74 60.18 43.68 60.33 43.74 60.49 43.75 60.64 43.75 60.79 43.75 61.1 43.75 61.25 43.82 61.56 43.98 61.86 43.88 62.02 43.83 62.17 43.84 62.48 43.84 62.63 43.79 63.39 43.8 64.01 43.76 64.16 43.76 65.38 43.72 65.54 43.72 65.69 43.72 66.15 43.74 66.3 43.74 66.45 43.75 66.76 43.75 67.06 43.75 67.37 43.76 68.75 43.78"/>
      </g>
      <g stroke-width="0.3" fill="#000000" fill-opacity="0.000" class="geometry color_oldfull_fail" stroke-dasharray="none" stroke="#FFA500" id="img-f7561e71-17">
        <path fill="none" d="M21.63,42.97 L 21.78 43 21.94 42.24 22.09 42.17 22.24 42.08 22.4 42.08 22.7 42.11 22.86 42.2 23.01 42.37 23.16 42.12 23.31 42.04 23.47 42.23 23.62 42.34 23.77 42.09 24.08 41.78 24.23 42.3 24.54 42.24 24.69 42.24 24.84 42.24 25.46 42.24 25.91 42.05 26.07 42.14 26.22 42.23 26.37 42.09 26.53 42.17 26.68 42.32 26.83 42.08 26.99 41.93 27.14 41.93 27.44 42.24 27.6 42.17 27.75 42.18 27.9 42.33 28.06 42.25 28.21 41.96 28.36 42.03 28.67 42.41 28.82 41.57 28.97 41.34 29.13 41.75 29.28 41.84 29.43 41.84 29.59 41.84 29.74 41.78 30.2 40.38 30.35 41.2 30.5 42.05 30.66 41.98 30.81 41.76 30.96 41.98 31.12 42.07 31.27 42.07 31.42 41.93 31.57 41.87 31.73 42.16 31.88 42.16 32.03 42.09 32.19 42.03 32.34 42.05 32.49 42.85 32.65 42.78 32.8 42.79 32.95 42.72 33.1 42.58 33.26 40.68 33.41 41.21 33.56 41.51 33.72 41.15 33.87 41.16 34.02 41.09 34.18 41.09 34.33 41.09 34.48 41.25 34.63 41.47 35.09 41.47 35.86 41.39 36.01 41.27 36.16 41.27 36.32 41.35 36.47 41.42 36.62 41.52 36.78 41.38 37.39 40.8 37.54 40.87 38.31 40.47 38.61 40.67 38.76 40.83 38.92 40.91 39.07 40.91 39.22 41.05 39.38 41 39.53 40.96 39.99 40.56 40.14 40.64 40.45 40.61 40.6 40.35 40.75 40.55 41.21 40.68 41.52 40.84 41.98 40.66 42.59 40.75 42.89 41.12 43.35 40.87 44.42 40.69 45.04 40.95 45.19 40.97 45.34 40.97 45.5 40.84 45.65 40.65 45.8 40.71 46.11 40.85 46.26 40.8 46.41 40.8 46.57 40.58 46.72 40.65 46.87 40.59 47.03 40.59 47.33 40.68 47.48 40.59 47.64 40.41 48.25 40.32 48.4 40.2 48.55 40.28 48.86 40.38 49.17 41.72 49.32 39.81 49.78 39.54 50.54 39.54 51.31 39.61 52.07 40 52.23 39.88 52.38 39.77 52.53 39.79 52.69 39.96 52.99 39.81 53.3 38.95 53.91 38.44 54.06 38.52 54.22 38.35 54.37 38.47 54.52 40.44 54.67 41.06 54.83 40.56 56.66 39.24 56.97 39.18 57.12 38.71 57.43 39.05 58.04 39.46 58.35 39.52 58.65 39.44 59.26 39.69 59.57 41.32 59.72 40.9 60.03 40.07 60.18 40.01 60.33 39.81 60.49 38.79 60.64 39.12 60.79 39.35 61.1 39.41 61.25 39.49 61.56 40.79 61.86 40.8 62.02 40.51 62.17 40.46 62.48 40.64 62.63 40.22 63.39 40.31 64.01 40.49 64.16 40.51 65.38 40.69 65.54 40.69 65.69 40.85 66.15 40.62 66.3 40.58 66.45 40.65 66.76 40.51 67.06 40.3 67.37 40.12 68.75 40.03"/>
      </g>
      <g stroke-width="0.3" fill="#000000" fill-opacity="0.000" class="geometry color_newtests_pass" stroke-dasharray="none" stroke="#008000" id="img-f7561e71-18">
        <path fill="none" d="M21.63,26.57 L 21.78 26.73 21.94 27.29 22.09 28.69 22.24 28.77 22.4 28.77 22.7 27.32 22.86 27.15 23.01 26.95 23.16 27.03 23.31 27.03 23.47 26.85 23.62 26.7 23.77 26.79 24.08 27.38 24.23 26.95 24.54 27.05 24.69 27.05 24.84 27.05 25.46 27.05 25.91 27.02 26.07 26.91 26.22 26.88 26.37 26.89 26.53 26.74 26.68 26.34 26.83 26.42 26.99 26.49 27.14 26.49 27.44 26.47 27.6 26.54 27.75 26.51 27.9 26.36 28.06 26.36 28.21 26.79 28.36 26.79 28.67 26.05 28.82 29.01 28.97 29.32 29.13 27.64 29.28 27.58 29.43 27.51 29.59 27.51 29.74 27.52 30.2 30.01 30.35 28.36 30.5 27.32 30.66 27.29 30.81 27.44 30.96 27.36 31.12 27.08 31.27 27.08 31.42 27.35 31.57 27.46 31.73 27.46 31.88 27.32 32.03 27.17 32.19 27.18 32.34 27.12 32.49 31.66 32.65 31.73 32.8 31.69 32.95 31.11 33.1 31.22 33.26 28.67 33.41 28.02 33.56 27.63 33.72 27.99 33.87 27.96 34.02 28.03 34.18 28.03 34.33 28.03 34.48 27.78 34.63 27.61 35.09 27.4 35.86 27.43 36.01 27.52 36.16 27.52 36.32 27.42 36.47 27.35 36.62 27.26 36.78 27.4 37.39 27.88 37.54 27.88 38.31 28.13 38.61 27.85 38.76 28 38.92 27.56 39.07 27.56 39.22 27.42 39.38 27.43 39.53 27.44 39.99 27.62 40.14 27.52 40.45 28.22 40.6 28.48 40.75 28.28 41.21 28.15 41.52 27.96 41.98 27.37 42.59 27.18 42.89 26.88 43.35 27.02 44.42 27.23 45.04 26.99 45.19 26.94 45.34 26.94 45.5 27.23 45.65 27.79 45.8 27.72 46.11 27.57 46.26 27.61 46.41 27.61 46.57 27.84 46.72 27.75 46.87 27.82 47.03 27.82 47.33 27.74 47.48 27.84 47.64 28 48.25 28.21 48.4 28.33 48.55 28.29 48.86 28.21 49.17 30.58 49.32 28.79 49.78 29.21 50.54 29.21 51.31 29.18 52.07 29.93 52.23 29.58 52.38 29.23 52.53 28.94 52.69 28.59 52.99 28.77 53.3 29.93 53.91 30.36 54.06 30.25 54.22 30.42 54.37 30.3 54.52 33.57 54.67 34.41 54.83 34.05 56.66 30.73 56.97 30.67 57.12 30.08 57.43 29.68 58.04 29.26 58.35 29.18 58.65 29.15 59.26 28.88 59.57 35.77 59.72 33.56 60.03 32.57 60.18 32.68 60.33 32.81 60.49 34.05 60.64 33.67 60.79 33.15 61.1 32.95 61.25 32.89 61.56 35.05 61.86 34.93 62.02 34.18 62.17 34.2 62.48 33.55 62.63 33.41 63.39 33.02 64.01 32.53 64.16 32.58 65.38 31.7 65.54 31.75 65.69 31.54 66.15 31.8 66.3 31.82 66.45 31.66 66.76 31.6 67.06 31.91 67.37 32.01 68.75 32.16"/>
      </g>
    </g>
  </g>
</g>
  <g class="guide ylabels" font-size="2.82" font-family="'PT Sans Caption','Helvetica Neue','Helvetica',sans-serif" fill="#6C606B" id="img-f7561e71-19">
    <text x="18.63" y="45.71" text-anchor="end" dy="0.35em">0</text>
    <text x="18.63" y="30.16" text-anchor="end" dy="0.35em">50</text>
    <text x="18.63" y="14.61" text-anchor="end" dy="0.35em">100</text>
  </g>
  <g font-size="3.88" font-family="'PT Sans','Helvetica Neue','Helvetica',sans-serif" fill="#564A55" stroke="#000000" stroke-opacity="0.000" id="img-f7561e71-20">
    <text x="8.81" y="28.16" text-anchor="middle" dy="0.35em" transform="rotate(-90, 8.81, 30.16)">Percentage of Packages</text>
  </g>
  <g font-size="3.88" font-family="'PT Sans','Helvetica Neue','Helvetica',sans-serif" fill="#564A55" stroke="#000000" stroke-opacity="0.000" id="img-f7561e71-21">
    <text x="58.12" y="10.61" text-anchor="middle">Julia v0.4 (relative)</text>
  </g>
</g>
<defs>
  <clipPath id="img-f7561e71-4">
  <path d="M19.63,12.61 L 96.6 12.61 96.6 47.71 19.63 47.71" />
</clipPath>
</defs>
</svg>
