<?xml version="1.0" encoding="UTF-8"?>
<svg xmlns="http://www.w3.org/2000/svg"
     xmlns:xlink="http://www.w3.org/1999/xlink"
     xmlns:gadfly="http://www.gadflyjl.org/ns"
     version="1.2"
     width="101.6mm" height="76.2mm" viewBox="0 0 101.6 76.2"
     stroke="none"
     fill="#000000"
     stroke-width="0.3"
     font-size="3.88"
>
<g class="plotroot xscalable yscalable" id="img-0c8b5ee5-1">
  <g font-size="3.88" font-family="'PT Sans','Helvetica Neue','Helvetica',sans-serif" fill="#564A55" stroke="#000000" stroke-opacity="0.000" id="img-0c8b5ee5-2">
    <text x="58.12" y="64.59" text-anchor="middle" dy="0.6em">Date</text>
  </g>
  <g class="guide xlabels" font-size="2.82" font-family="'PT Sans Caption','Helvetica Neue','Helvetica',sans-serif" fill="#6C606B" id="img-0c8b5ee5-3">
    <text x="24.46" y="48.71" text-anchor="end" dy="0.35em" transform="rotate(-90, 24.46, 48.71)">Sep</text>
    <text x="28.93" y="48.71" text-anchor="end" dy="0.35em" transform="rotate(-90, 28.93, 48.71)">Oct</text>
    <text x="33.54" y="48.71" text-anchor="end" dy="0.35em" transform="rotate(-90, 33.54, 48.71)">Nov</text>
    <text x="38.01" y="48.71" text-anchor="end" dy="0.35em" transform="rotate(-90, 38.01, 48.71)">Dec</text>
    <text x="42.63" y="48.71" text-anchor="end" dy="0.35em" transform="rotate(-90, 42.63, 48.71)">Jan 2015</text>
    <text x="47.25" y="48.71" text-anchor="end" dy="0.35em" transform="rotate(-90, 47.25, 48.71)">Feb</text>
    <text x="51.41" y="48.71" text-anchor="end" dy="0.35em" transform="rotate(-90, 51.41, 48.71)">Mar</text>
    <text x="56.03" y="48.71" text-anchor="end" dy="0.35em" transform="rotate(-90, 56.03, 48.71)">Apr</text>
    <text x="60.5" y="48.71" text-anchor="end" dy="0.35em" transform="rotate(-90, 60.5, 48.71)">May</text>
    <text x="65.11" y="48.71" text-anchor="end" dy="0.35em" transform="rotate(-90, 65.11, 48.71)">Jun</text>
    <text x="69.58" y="48.71" text-anchor="end" dy="0.35em" transform="rotate(-90, 69.58, 48.71)">Jul</text>
    <text x="74.2" y="48.71" text-anchor="end" dy="0.35em" transform="rotate(-90, 74.2, 48.71)">Aug</text>
    <text x="78.82" y="48.71" text-anchor="end" dy="0.35em" transform="rotate(-90, 78.82, 48.71)">Sep</text>
    <text x="83.28" y="48.71" text-anchor="end" dy="0.35em" transform="rotate(-90, 83.28, 48.71)">Oct</text>
    <text x="87.9" y="48.71" text-anchor="end" dy="0.35em" transform="rotate(-90, 87.9, 48.71)">Nov</text>
    <text x="92.37" y="48.71" text-anchor="end" dy="0.35em" transform="rotate(-90, 92.37, 48.71)">Dec</text>
  </g>
<g clip-path="url(#img-0c8b5ee5-4)">
  <g id="img-0c8b5ee5-5">
    <g pointer-events="visible" opacity="1" fill="#000000" fill-opacity="0.000" stroke="#000000" stroke-opacity="0.000" class="guide background" id="img-0c8b5ee5-6">
      <rect x="19.63" y="12.61" width="76.97" height="35.1"/>
    </g>
    <g class="guide ygridlines xfixed" stroke-dasharray="0.5,0.5" stroke-width="0.2" stroke="#D0D0E0" id="img-0c8b5ee5-7">
      <path fill="none" d="M19.63,45.71 L 96.6 45.71"/>
      <path fill="none" d="M19.63,39.49 L 96.6 39.49"/>
      <path fill="none" d="M19.63,33.27 L 96.6 33.27"/>
      <path fill="none" d="M19.63,27.05 L 96.6 27.05"/>
      <path fill="none" d="M19.63,20.83 L 96.6 20.83"/>
      <path fill="none" d="M19.63,14.61 L 96.6 14.61"/>
    </g>
    <g class="guide xgridlines yfixed" stroke-dasharray="0.5,0.5" stroke-width="0.2" stroke="#D0D0E0" id="img-0c8b5ee5-8">
      <path fill="none" d="M24.46,12.61 L 24.46 47.71"/>
      <path fill="none" d="M28.93,12.61 L 28.93 47.71"/>
      <path fill="none" d="M33.54,12.61 L 33.54 47.71"/>
      <path fill="none" d="M38.01,12.61 L 38.01 47.71"/>
      <path fill="none" d="M42.63,12.61 L 42.63 47.71"/>
      <path fill="none" d="M47.25,12.61 L 47.25 47.71"/>
      <path fill="none" d="M51.41,12.61 L 51.41 47.71"/>
      <path fill="none" d="M56.03,12.61 L 56.03 47.71"/>
      <path fill="none" d="M60.5,12.61 L 60.5 47.71"/>
      <path fill="none" d="M65.11,12.61 L 65.11 47.71"/>
      <path fill="none" d="M69.58,12.61 L 69.58 47.71"/>
      <path fill="none" d="M74.2,12.61 L 74.2 47.71"/>
      <path fill="none" d="M78.82,12.61 L 78.82 47.71"/>
      <path fill="none" d="M83.28,12.61 L 83.28 47.71"/>
      <path fill="none" d="M87.9,12.61 L 87.9 47.71"/>
      <path fill="none" d="M92.37,12.61 L 92.37 47.71"/>
    </g>
    <g class="plotpanel" id="img-0c8b5ee5-9">
      <g stroke-width="0.3" fill="#000000" fill-opacity="0.000" class="geometry color_newnot_possible" stroke-dasharray="none" stroke="#808080" id="img-0c8b5ee5-10">
        <path fill="none" d="M67.94,42.35 L 68.09 42.35 68.24 42.35 68.39 42.35 68.54 42.35 68.69 42.35 68.84 42.35 68.99 42.35 69.43 42.35 69.73 42.35 70.03 42.35 70.18 42.35 70.33 42.35 70.48 42.35 70.62 42.35 70.77 42.35 73.31 42.29 74.5 42.29 75.84 42.29 78.37 42.29 78.82 42.29 79.56 42.29 80.3 41.91 82.69 41.91 83.28 41.91 84.03 41.85 84.62 41.79 85.22 41.79 85.67 41.73 87.45 41.73 89.24 41.67 89.83 41.67 90.13 41.6 91.47 41.6 91.62 41.6 92.66 41.6 92.81 41.54 93.86 41.54 94.6 41.54"/>
      </g>
      <g stroke-width="0.3" fill="#000000" fill-opacity="0.000" class="geometry color_newno_tests" stroke-dasharray="none" stroke="#0000FF" id="img-0c8b5ee5-11">
        <path fill="none" d="M67.94,38.99 L 68.09 38.99 68.24 38.99 68.39 38.99 68.54 38.99 68.69 38.99 68.84 38.99 68.99 38.99 69.43 38.99 69.73 38.99 70.03 38.99 70.18 38.99 70.33 39.05 70.48 39.05 70.62 39.05 70.77 39.12 73.31 39.05 74.5 39.05 75.84 39.05 78.37 39.05 78.82 39.12 79.56 39.12 80.3 39.18 82.69 39.43 83.28 39.61 84.03 39.74 84.62 40.8 85.22 40.86 85.67 40.98 87.45 41.04 89.24 41.11 89.83 41.11 90.13 41.11 91.47 41.11 91.62 41.11 92.66 41.11 92.81 41.11 93.86 41.11 94.6 41.11"/>
      </g>
      <g stroke-width="0.3" fill="#000000" fill-opacity="0.000" class="geometry color_newtests_fail" stroke-dasharray="none" stroke="#FF0000" id="img-0c8b5ee5-12">
        <path fill="none" d="M67.94,33.02 L 68.09 33.46 68.24 33.33 68.39 32.09 68.54 32.03 68.69 32.21 68.84 32.21 68.99 33.21 69.43 32.65 69.73 32.65 70.03 33.33 70.18 33.46 70.33 32.03 70.48 33.27 70.62 32.34 70.77 32.77 73.31 33.27 74.5 32.9 75.84 33.46 78.37 33.21 78.82 33.52 79.56 33.83 80.3 34.7 82.69 34.51 83.28 34.89 84.03 35.07 84.62 35.7 85.22 35.94 85.67 36.38 87.45 36.13 89.24 36.25 89.83 36.44 90.13 36.63 91.47 36.63 91.62 36.81 92.66 36.57 92.81 36.88 93.86 36.44 94.6 36.38"/>
      </g>
      <g stroke-width="0.3" fill="#000000" fill-opacity="0.000" class="geometry color_newtests_pass" stroke-dasharray="none" stroke="#008000" id="img-0c8b5ee5-13">
        <path fill="none" d="M67.94,30.35 L 68.09 29.91 68.24 29.91 68.39 31.16 68.54 31.03 68.69 30.84 68.84 30.84 68.99 29.79 69.43 30.28 69.73 30.16 70.03 29.48 70.18 29.23 70.33 30.35 70.48 28.98 70.62 29.85 70.77 29.35 73.31 28.05 74.5 28.05 75.84 27.17 78.37 25.87 78.82 25.37 79.56 24.81 80.3 23.82 82.69 22.57 83.28 21.64 84.03 20.83 84.62 20.77 85.22 20.15 85.67 19.46 87.45 18.28 89.24 17.47 89.83 17.22 90.13 16.85 91.47 16.6 91.62 16.42 92.66 16.35 92.81 16.04 93.86 15.98 94.6 15.86"/>
      </g>
      <g stroke-width="0.3" fill="#000000" fill-opacity="0.000" class="geometry color_newnot_possible" stroke-dasharray="none" stroke="#808080" id="img-0c8b5ee5-14">
        <path fill="none" d="M21.63,43.34 L 21.78 43.28 21.93 43.22 22.08 43.22 22.23 43.22 22.38 43.22 22.67 43.22 22.82 43.22 22.97 43.22 23.12 43.22 23.27 43.22 23.42 43.22 23.57 43.22 23.72 43.22 24.01 43.22 24.16 43.16 24.46 43.16 24.61 43.16 24.76 43.1 25.35 43.1 25.8 43.1 25.95 43.1 26.1 43.1 26.25 43.1 26.4 43.1 26.55 43.1 26.69 43.1 26.84 43.1 26.99 43.1 27.29 43.03 27.44 43.03 27.59 43.03 27.74 43.03 27.89 43.03 28.04 43.03 28.18 42.97 28.48 42.97 28.63 42.97 28.78 42.97 28.93 42.97 29.08 42.91 29.23 42.91 29.38 42.91 29.52 42.91 29.97 42.91 30.12 42.85 30.27 42.85 30.42 42.85 30.57 42.85 30.72 42.85 30.86 42.85 31.01 42.85 31.16 42.85 31.31 42.85 31.46 42.79 31.61 42.79 31.76 42.79 31.91 42.79 32.06 42.79 32.2 42.79 32.35 42.79 32.5 42.79 32.65 42.79 32.8 42.79 32.95 42.79 33.1 42.79 33.25 42.79 33.4 42.79 33.54 42.79 33.69 42.79 33.84 42.79 33.99 42.79 34.14 42.79 34.29 42.79 34.74 42.79 35.48 42.79 35.63 42.79 35.78 42.79 35.93 42.79 36.08 42.79 36.23 42.79 36.37 42.79 36.97 42.79 37.12 42.79 37.86 42.79 38.16 42.79 38.31 42.85 38.46 42.85 38.61 42.85 38.76 42.85 38.91 42.85 39.05 42.85 39.5 42.85 39.65 42.85 39.95 42.85 40.1 42.85 40.25 42.85 40.69 42.85 40.99 42.85 41.44 42.85 42.03 42.85 42.33 42.85 42.78 42.85 43.82 42.85 44.42 42.85 44.56 42.72 44.71 42.72 44.86 42.66 45.01 42.66 45.16 42.66 45.46 42.66 45.61 42.66 45.76 42.66 45.9 42.6 46.05 42.6 46.2 42.6 46.35 42.6 46.65 42.54 46.8 42.54 46.95 42.54 47.54 42.54 47.69 42.54 47.84 42.54 48.14 42.54 48.44 42.54 48.59 42.54 49.03 42.54 49.78 42.54 50.52 42.54 51.27 42.54 51.41 42.54 51.56 42.54 51.71 42.1 51.86 42.16 52.16 42.1 52.46 42.1 53.05 42.1 53.2 42.1 53.35 42.1 53.5 42.1 53.65 42.1 53.8 42.16 53.95 42.1 55.73 42.04 56.03 41.98 56.18 41.98 56.48 41.98 57.07 41.98 57.37 41.98 57.67 41.98 58.26 41.98 58.56 41.98 58.71 41.98 59.01 41.98 59.16 41.98 59.31 41.98 59.46 41.98 59.6 41.98 59.75 41.98 60.05 41.98 60.2 41.98 60.5 41.98 60.8 41.98 60.95 41.98 61.09 41.98 61.39 41.98 61.54 41.98 62.29 41.98 62.88 42.04 63.03 41.98 64.22 41.98 64.37 41.85 64.52 41.85 64.97 41.85 65.11 41.85 65.26 41.91 65.56 41.91 65.86 41.91 66.16 41.91 67.5 41.91"/>
      </g>
      <g stroke-width="0.3" fill="#000000" fill-opacity="0.000" class="geometry color_newtests_fail" stroke-dasharray="none" stroke="#FF0000" id="img-0c8b5ee5-15">
        <path fill="none" d="M21.63,44.34 L 21.78 44.28 21.93 44.46 22.08 43.1 22.23 43.1 22.38 43.1 22.67 44.4 22.82 44.46 22.97 44.4 23.12 44.53 23.27 44.59 23.42 44.53 23.57 44.53 23.72 44.59 24.01 44.15 24.16 44.03 24.46 43.97 24.61 43.97 24.76 44.03 25.35 44.03 25.8 44.15 25.95 44.15 26.1 44.15 26.25 44.22 26.4 44.28 26.55 44.46 26.69 44.46 26.84 44.46 26.99 44.46 27.29 44.34 27.44 44.28 27.59 44.34 27.74 44.34 27.89 44.4 28.04 44.28 28.18 44.15 28.48 44.59 28.63 42.66 28.78 42.6 28.93 43.78 29.08 43.78 29.23 43.84 29.38 43.84 29.52 43.84 29.97 42.66 30.12 43.59 30.27 43.78 30.42 43.84 30.57 43.9 30.72 43.78 30.86 43.9 31.01 43.9 31.16 43.78 31.31 43.72 31.46 43.53 31.61 43.66 31.76 43.84 31.91 43.84 32.06 43.84 32.2 38.93 32.35 38.93 32.5 38.93 32.65 39.61 32.8 39.61 32.95 43.66 33.1 43.72 33.25 43.78 33.4 43.78 33.54 43.78 33.69 43.78 33.84 43.78 33.99 43.78 34.14 43.84 34.29 43.78 34.74 43.97 35.48 43.9 35.63 43.9 35.78 43.9 35.93 43.9 36.08 43.9 36.23 43.84 36.37 43.84 36.97 43.84 37.12 43.78 37.86 43.9 38.16 43.97 38.31 43.59 38.46 43.9 38.61 43.84 38.76 43.9 38.91 43.9 39.05 43.9 39.5 44.09 39.65 44.09 39.95 43.41 40.1 43.41 40.25 43.41 40.69 43.41 40.99 43.41 41.44 44.15 42.03 44.15 42.33 44.09 42.78 44.15 43.82 44.03 44.42 43.9 44.56 44.03 44.71 44.03 44.86 43.84 45.01 43.47 45.16 43.47 45.46 43.47 45.61 43.47 45.76 43.47 45.9 43.47 46.05 43.47 46.2 43.47 46.35 43.47 46.65 43.47 46.8 43.41 46.95 43.41 47.54 43.1 47.69 43.1 47.84 43.1 48.14 43.03 48.44 38.99 48.59 43.03 49.03 42.85 49.78 42.85 50.52 42.79 51.27 41.23 51.41 41.79 51.56 42.29 51.71 42.97 51.86 43.16 52.16 43.16 52.46 42.79 53.05 42.85 53.2 42.85 53.35 42.79 53.5 42.79 53.65 36.38 53.8 34.7 53.95 35.63 55.73 41.42 56.03 41.6 56.18 42.72 56.48 42.79 57.07 42.79 57.37 42.79 57.67 42.85 58.26 42.79 58.56 32.71 58.71 35.7 59.01 37.69 59.16 37.69 59.31 37.69 59.46 37.37 59.6 37.44 59.75 37.75 60.05 37.87 60.2 37.75 60.5 33.58 60.8 33.77 60.95 34.95 61.09 34.95 61.39 35.45 61.54 36.13 62.29 36.38 62.88 36.69 63.03 36.63 64.22 37.44 64.37 37.5 64.52 37.56 64.97 37.44 65.11 37.44 65.26 37.44 65.56 37.62 65.86 37.5 66.16 37.56 67.5 37.31"/>
      </g>
      <g stroke-width="0.3" fill="#000000" fill-opacity="0.000" class="geometry color_newno_tests" stroke-dasharray="none" stroke="#0000FF" id="img-0c8b5ee5-16">
        <path fill="none" d="M21.63,42.72 L 21.78 42.66 21.93 42.66 22.08 43.03 22.23 43.03 22.38 43.03 22.67 42.72 22.82 42.72 22.97 42.79 23.12 42.79 23.27 42.79 23.42 42.79 23.57 42.79 23.72 42.85 24.01 43.03 24.16 43.1 24.46 43.1 24.61 43.1 24.76 43.1 25.35 43.1 25.8 43.03 25.95 43.03 26.1 42.97 26.25 42.97 26.4 42.97 26.55 42.97 26.69 42.97 26.84 43.03 26.99 43.03 27.29 42.97 27.44 43.03 27.59 42.97 27.74 42.97 27.89 42.97 28.04 42.97 28.18 43.1 28.48 42.97 28.63 43.16 28.78 43.16 28.93 42.97 29.08 42.97 29.23 42.97 29.38 42.97 29.52 42.97 29.97 43.22 30.12 43.03 30.27 42.97 30.42 42.97 30.57 42.97 30.72 42.97 30.86 42.97 31.01 42.97 31.16 42.97 31.31 42.97 31.46 42.97 31.61 42.97 31.76 42.97 31.91 42.97 32.06 42.97 32.2 43.34 32.35 43.34 32.5 43.34 32.65 43.22 32.8 43.22 32.95 42.97 33.1 42.97 33.25 42.97 33.4 42.97 33.54 42.97 33.69 42.97 33.84 42.97 33.99 42.97 34.14 42.97 34.29 42.97 34.74 42.97 35.48 42.97 35.63 42.97 35.78 42.97 35.93 42.97 36.08 42.97 36.23 42.97 36.37 42.97 36.97 42.97 37.12 42.97 37.86 42.97 38.16 42.97 38.31 42.97 38.46 42.97 38.61 43.03 38.76 42.97 38.91 42.97 39.05 42.97 39.5 42.97 39.65 42.97 39.95 42.97 40.1 42.97 40.25 42.97 40.69 42.97 40.99 42.97 41.44 42.91 42.03 42.97 42.33 42.91 42.78 42.91 43.82 42.91 44.42 42.91 44.56 42.91 44.71 42.91 44.86 42.91 45.01 42.91 45.16 42.91 45.46 42.91 45.61 42.91 45.76 42.91 45.9 42.91 46.05 42.91 46.2 42.91 46.35 42.91 46.65 42.91 46.8 42.91 46.95 42.91 47.54 42.97 47.69 42.97 47.84 42.97 48.14 42.97 48.44 43.1 48.59 42.91 49.03 42.91 49.78 42.91 50.52 42.91 51.27 43.1 51.41 43.03 51.56 43.03 51.71 43.03 51.86 42.97 52.16 42.97 52.46 43.03 53.05 43.03 53.2 43.03 53.35 43.1 53.5 43.1 53.65 43.78 53.8 43.84 53.95 43.84 55.73 43.1 56.03 43.1 56.18 43.1 56.48 43.1 57.07 43.1 57.37 43.1 57.67 43.1 58.26 43.16 58.56 43.66 58.71 43.53 59.01 43.47 59.16 43.41 59.31 43.47 59.46 43.47 59.6 43.47 59.75 43.47 60.05 43.47 60.2 43.53 60.5 43.72 60.8 43.59 60.95 43.53 61.09 43.53 61.39 43.53 61.54 43.47 62.29 43.47 62.88 43.41 63.03 43.41 64.22 43.34 64.37 43.34 64.52 43.34 64.97 43.34 65.11 43.34 65.26 43.34 65.56 43.34 65.86 43.34 66.16 43.34 67.5 43.34"/>
      </g>
      <g stroke-width="0.3" fill="#000000" fill-opacity="0.000" class="geometry color_oldfull_fail" stroke-dasharray="none" stroke="#FFA500" id="img-0c8b5ee5-17">
        <path fill="none" d="M21.63,43.72 L 21.78 43.72 21.93 43.16 22.08 43.1 22.23 43.03 22.38 43.03 22.67 43.03 22.82 43.1 22.97 43.22 23.12 43.03 23.27 42.97 23.42 43.1 23.57 43.16 23.72 42.97 24.01 42.72 24.16 43.1 24.46 43.03 24.61 43.03 24.76 43.03 25.35 43.03 25.8 42.85 25.95 42.91 26.1 42.97 26.25 42.85 26.4 42.91 26.55 43.03 26.69 42.79 26.84 42.66 26.99 42.66 27.29 42.91 27.44 42.85 27.59 42.85 27.74 42.97 27.89 42.91 28.04 42.66 28.18 42.72 28.48 43.03 28.63 42.35 28.78 42.16 28.93 42.47 29.08 42.54 29.23 42.54 29.38 42.54 29.52 42.47 29.97 41.29 30.12 41.98 30.27 42.66 30.42 42.6 30.57 42.41 30.72 42.6 30.86 42.66 31.01 42.66 31.16 42.54 31.31 42.47 31.46 42.72 31.61 42.72 31.76 42.66 31.91 42.6 32.06 42.6 32.2 43.28 32.35 43.22 32.5 43.22 32.65 43.16 32.8 43.03 32.95 41.42 33.1 41.85 33.25 42.1 33.4 41.79 33.54 41.79 33.69 41.73 33.84 41.73 33.99 41.73 34.14 41.85 34.29 42.04 34.74 42.04 35.48 41.91 35.63 41.79 35.78 41.79 35.93 41.85 36.08 41.91 36.23 41.98 36.37 41.85 36.97 41.29 37.12 41.35 37.86 40.98 38.16 41.17 38.31 41.29 38.46 41.35 38.61 41.35 38.76 41.48 38.91 41.42 39.05 41.35 39.5 40.98 39.65 41.04 39.95 40.98 40.1 40.73 40.25 40.92 40.69 41.04 40.99 41.17 41.44 40.98 42.03 41.04 42.33 41.35 42.78 41.11 43.82 40.86 44.42 41.04 44.56 41.04 44.71 41.04 44.86 40.86 45.01 40.67 45.16 40.73 45.46 40.86 45.61 40.8 45.76 40.8 45.9 40.55 46.05 40.61 46.2 40.55 46.35 40.55 46.65 40.61 46.8 40.48 46.95 40.3 47.54 40.11 47.69 39.99 47.84 40.11 48.14 40.17 48.44 41.54 48.59 39.55 49.03 39.24 49.78 39.24 50.52 39.3 51.27 39.61 51.41 39.49 51.56 39.36 51.71 39.36 51.86 39.55 52.16 39.36 52.46 38.43 53.05 37.87 53.2 37.93 53.35 37.75 53.5 37.87 53.65 39.99 53.8 40.67 53.95 40.11 55.73 38.62 56.03 38.56 56.18 38 56.48 38.37 57.07 38.8 57.37 38.87 57.67 38.74 58.26 38.99 58.56 40.8 58.71 40.3 59.01 39.3 59.16 39.24 59.31 38.99 59.46 37.81 59.6 38.18 59.75 38.43 60.05 38.49 60.2 38.56 60.5 40.05 60.8 40.05 60.95 39.68 61.09 39.61 61.39 39.8 61.54 39.3 62.29 39.36 62.88 39.55 63.03 39.55 64.22 39.74 64.37 39.74 64.52 39.92 64.97 39.61 65.11 39.55 65.26 39.61 65.56 39.43 65.86 39.18 66.16 38.93 67.5 38.74"/>
      </g>
      <g stroke-width="0.3" fill="#000000" fill-opacity="0.000" class="geometry color_newtests_pass" stroke-dasharray="none" stroke="#008000" id="img-0c8b5ee5-18">
        <path fill="none" d="M21.63,31.78 L 21.78 31.78 21.93 32.15 22.08 33.15 22.23 33.21 22.38 33.21 22.67 32.03 22.82 31.9 22.97 31.71 23.12 31.78 23.27 31.78 23.42 31.53 23.57 31.34 23.72 31.4 24.01 31.78 24.16 31.34 24.46 31.34 24.61 31.34 24.76 31.34 25.35 31.34 25.8 31.09 25.95 30.97 26.1 30.91 26.25 30.84 26.4 30.72 26.55 30.41 26.69 30.16 26.84 30.22 26.99 30.22 27.29 30.16 27.44 30.22 27.59 30.16 27.74 30.04 27.89 30.04 28.04 30.35 28.18 30.35 28.48 29.79 28.63 32.15 28.78 32.4 28.93 30.97 29.08 30.84 29.23 30.78 29.38 30.78 29.52 30.72 29.97 32.71 30.12 31.34 30.27 30.41 30.42 30.35 30.57 30.47 30.72 30.41 30.86 30.1 31.01 30.1 31.16 30.28 31.31 30.35 31.46 30.35 31.61 30.22 31.76 30.1 31.91 30.04 32.06 29.91 32.2 33.77 32.35 33.83 32.5 33.77 32.65 33.27 32.8 33.33 32.95 31.16 33.1 30.53 33.25 30.16 33.4 30.47 33.54 30.41 33.69 30.47 33.84 30.47 33.99 30.47 34.14 30.22 34.29 30.04 34.74 29.85 35.48 29.66 35.63 29.66 35.78 29.66 35.93 29.54 36.08 29.48 36.23 29.29 36.37 29.41 36.97 29.66 37.12 29.66 37.86 29.85 38.16 29.6 38.31 29.66 38.46 29.23 38.61 29.23 38.76 29.1 38.91 29.04 39.05 28.98 39.5 29.1 39.65 28.98 39.95 29.48 40.1 29.72 40.25 29.54 40.69 29.41 40.99 29.16 41.44 28.54 42.03 28.29 42.33 27.86 42.78 27.92 43.82 27.86 44.42 27.36 44.56 27.24 44.71 27.24 44.86 27.3 45.01 27.86 45.16 27.8 45.46 27.61 45.61 27.61 45.76 27.61 45.9 27.73 46.05 27.61 46.2 27.67 46.35 27.67 46.65 27.49 46.8 27.49 46.95 27.61 47.54 27.55 47.69 27.67 47.84 27.73 48.14 27.55 48.44 29.91 48.59 28.05 49.03 28.42 49.78 28.42 50.52 28.36 51.27 28.85 51.41 28.48 51.56 28.11 51.71 27.73 51.86 27.36 52.16 27.49 52.46 28.73 53.05 29.16 53.2 28.98 53.35 29.16 53.5 29.04 53.65 32.52 53.8 33.46 53.95 33.02 55.73 29.29 56.03 29.23 56.18 28.48 56.48 28.05 57.07 27.55 57.37 27.42 57.67 27.3 58.26 26.93 58.56 34.58 58.71 32.03 59.01 30.78 59.16 30.91 59.31 31.03 59.46 32.4 59.6 31.96 59.75 31.34 60.05 31.09 60.2 30.97 60.5 33.46 60.8 33.27 60.95 32.34 61.09 32.34 61.39 31.53 61.54 31.34 62.29 30.78 62.88 30.16 63.03 30.16 64.22 29.04 64.37 29.1 64.52 28.85 64.97 29.04 65.11 29.04 65.26 28.79 65.56 28.67 65.86 29.04 66.16 29.1 67.5 29.1"/>
      </g>
    </g>
  </g>
</g>
  <g class="guide ylabels" font-size="2.82" font-family="'PT Sans Caption','Helvetica Neue','Helvetica',sans-serif" fill="#6C606B" id="img-0c8b5ee5-19">
    <text x="18.63" y="45.71" text-anchor="end" dy="0.35em">0</text>
    <text x="18.63" y="39.49" text-anchor="end" dy="0.35em">100</text>
    <text x="18.63" y="33.27" text-anchor="end" dy="0.35em">200</text>
    <text x="18.63" y="27.05" text-anchor="end" dy="0.35em">300</text>
    <text x="18.63" y="20.83" text-anchor="end" dy="0.35em">400</text>
    <text x="18.63" y="14.61" text-anchor="end" dy="0.35em">500</text>
  </g>
  <g font-size="3.88" font-family="'PT Sans','Helvetica Neue','Helvetica',sans-serif" fill="#564A55" stroke="#000000" stroke-opacity="0.000" id="img-0c8b5ee5-20">
    <text x="8.81" y="28.16" text-anchor="middle" dy="0.35em" transform="rotate(-90, 8.81, 30.16)">Number of Packages</text>
  </g>
  <g font-size="3.88" font-family="'PT Sans','Helvetica Neue','Helvetica',sans-serif" fill="#564A55" stroke="#000000" stroke-opacity="0.000" id="img-0c8b5ee5-21">
    <text x="58.12" y="10.61" text-anchor="middle">Julia v0.4</text>
  </g>
</g>
<defs>
  <clipPath id="img-0c8b5ee5-4">
  <path d="M19.63,12.61 L 96.6 12.61 96.6 47.71 19.63 47.71" />
</clipPath>
</defs>
</svg>
