<?xml version="1.0" encoding="UTF-8"?>
<svg xmlns="http://www.w3.org/2000/svg"
     xmlns:xlink="http://www.w3.org/1999/xlink"
     xmlns:gadfly="http://www.gadflyjl.org/ns"
     version="1.2"
     width="101.6mm" height="76.2mm" viewBox="0 0 101.6 76.2"
     stroke="none"
     fill="#000000"
     stroke-width="0.3"
     font-size="3.88"
>
<g class="plotroot xscalable yscalable" id="fig-9f87ad27d04540ac9befa9dc97e3c9f3-element-1">
  <g font-size="3.88" font-family="'PT Sans','Helvetica Neue','Helvetica',sans-serif" fill="#564A55" stroke="#000000" stroke-opacity="0.000" id="fig-9f87ad27d04540ac9befa9dc97e3c9f3-element-2">
    <text x="58.12" y="64.59" text-anchor="middle" dy="0.6em">Date</text>
  </g>
  <g class="guide xlabels" font-size="2.82" font-family="'PT Sans Caption','Helvetica Neue','Helvetica',sans-serif" fill="#6C606B" id="fig-9f87ad27d04540ac9befa9dc97e3c9f3-element-3">
    <text x="24.94" y="57.91" text-anchor="middle" dy="0.6em">Sep</text>
    <text x="30.16" y="57.91" text-anchor="middle" dy="0.6em">Oct</text>
    <text x="35.56" y="57.91" text-anchor="middle" dy="0.6em">Nov</text>
    <text x="40.79" y="57.91" text-anchor="middle" dy="0.6em">Dec</text>
    <text x="46.19" y="57.91" text-anchor="middle" dy="0.6em">Jan 2015</text>
    <text x="51.59" y="57.91" text-anchor="middle" dy="0.6em">Feb</text>
    <text x="56.46" y="57.91" text-anchor="middle" dy="0.6em">Mar</text>
    <text x="61.86" y="57.91" text-anchor="middle" dy="0.6em">Apr</text>
    <text x="67.08" y="57.91" text-anchor="middle" dy="0.6em">May</text>
    <text x="72.48" y="57.91" text-anchor="middle" dy="0.6em">Jun</text>
    <text x="77.71" y="57.91" text-anchor="middle" dy="0.6em">Jul</text>
    <text x="83.11" y="57.91" text-anchor="middle" dy="0.6em">Aug</text>
    <text x="88.5" y="57.91" text-anchor="middle" dy="0.6em">Sep</text>
    <text x="93.73" y="57.91" text-anchor="middle" dy="0.6em">Oct</text>
  </g>
  <g clip-path="url(#fig-9f87ad27d04540ac9befa9dc97e3c9f3-element-5)" id="fig-9f87ad27d04540ac9befa9dc97e3c9f3-element-4">
    <g pointer-events="visible" opacity="1" fill="#000000" fill-opacity="0.000" stroke="#000000" stroke-opacity="0.000" class="guide background" id="fig-9f87ad27d04540ac9befa9dc97e3c9f3-element-6">
      <rect x="19.63" y="12.61" width="76.97" height="44.3"/>
    </g>
    <g class="guide ygridlines xfixed" stroke-dasharray="0.5,0.5" stroke-width="0.2" stroke="#D0D0E0" id="fig-9f87ad27d04540ac9befa9dc97e3c9f3-element-7">
      <path fill="none" d="M19.63,54.91 L 96.6 54.91"/>
      <path fill="none" d="M19.63,34.76 L 96.6 34.76"/>
      <path fill="none" d="M19.63,14.61 L 96.6 14.61"/>
    </g>
    <g class="guide xgridlines yfixed" stroke-dasharray="0.5,0.5" stroke-width="0.2" stroke="#D0D0E0" id="fig-9f87ad27d04540ac9befa9dc97e3c9f3-element-8">
      <path fill="none" d="M24.94,12.61 L 24.94 56.91"/>
      <path fill="none" d="M30.16,12.61 L 30.16 56.91"/>
      <path fill="none" d="M35.56,12.61 L 35.56 56.91"/>
      <path fill="none" d="M40.79,12.61 L 40.79 56.91"/>
      <path fill="none" d="M46.19,12.61 L 46.19 56.91"/>
      <path fill="none" d="M51.59,12.61 L 51.59 56.91"/>
      <path fill="none" d="M56.46,12.61 L 56.46 56.91"/>
      <path fill="none" d="M61.86,12.61 L 61.86 56.91"/>
      <path fill="none" d="M67.08,12.61 L 67.08 56.91"/>
      <path fill="none" d="M72.48,12.61 L 72.48 56.91"/>
      <path fill="none" d="M77.71,12.61 L 77.71 56.91"/>
      <path fill="none" d="M83.11,12.61 L 83.11 56.91"/>
      <path fill="none" d="M88.5,12.61 L 88.5 56.91"/>
      <path fill="none" d="M93.73,12.61 L 93.73 56.91"/>
    </g>
    <g class="plotpanel" id="fig-9f87ad27d04540ac9befa9dc97e3c9f3-element-9">
      <g stroke-width="0.3" fill="#000000" fill-opacity="0.000" class="geometry color_newnot_possible" stroke-dasharray="none" stroke="#808080" id="fig-9f87ad27d04540ac9befa9dc97e3c9f3-element-10">
        <path fill="none" d="M75.79,51.36 L 75.97 51.36 76.14 51.38 76.31 51.38 76.49 51.39 76.66 51.39 76.84 51.39 77.01 51.4 77.53 51.4 77.88 51.42 78.23 51.42 78.4 51.43 78.58 51.45 78.75 51.46 78.93 51.47 79.1 51.47 82.06 51.48 83.45 51.52 85.02 51.54 87.98 51.66 88.5 51.67 89.38 51.69 90.25 51.38 93.03 51.47 93.73 51.5 94.6 51.49"/>
      </g>
      <g stroke-width="0.3" fill="#000000" fill-opacity="0.000" class="geometry color_newno_tests" stroke-dasharray="none" stroke="#0000FF" id="fig-9f87ad27d04540ac9befa9dc97e3c9f3-element-11">
        <path fill="none" d="M75.79,47.81 L 75.97 47.81 76.14 47.84 76.31 47.84 76.49 47.87 76.66 47.87 76.84 47.87 77.01 47.88 77.53 47.89 77.88 47.92 78.23 47.92 78.4 47.94 78.58 48.05 78.75 48.07 78.93 48.08 79.1 48.14 82.06 48.24 83.45 48.3 85.02 48.35 87.98 48.59 88.5 48.67 89.38 48.71 90.25 48.83 93.03 49.21 93.73 49.43 94.6 49.61"/>
      </g>
      <g stroke-width="0.3" fill="#000000" fill-opacity="0.000" class="geometry color_newtests_fail" stroke-dasharray="none" stroke="#FF0000" id="fig-9f87ad27d04540ac9befa9dc97e3c9f3-element-12">
        <path fill="none" d="M75.79,41.5 L 75.97 41.96 76.14 41.87 76.31 40.56 76.49 40.57 76.66 40.76 76.84 40.76 77.01 41.83 77.53 41.26 77.88 41.31 78.23 42.02 78.4 42.19 78.58 40.8 78.75 42.12 78.93 41.18 79.1 41.63 82.06 42.44 83.45 42.18 85.02 42.83 87.98 43.04 88.5 43.37 89.38 43.73 90.25 44.65 93.03 44.75 93.73 45.18 94.6 45.46"/>
      </g>
      <g stroke-width="0.3" fill="#000000" fill-opacity="0.000" class="geometry color_newtests_pass" stroke-dasharray="none" stroke="#008000" id="fig-9f87ad27d04540ac9befa9dc97e3c9f3-element-13">
        <path fill="none" d="M75.79,38.68 L 75.97 38.22 76.14 38.27 76.31 39.58 76.49 39.52 76.66 39.33 76.84 39.33 77.01 38.25 77.53 38.79 77.88 38.72 78.23 38 78.4 37.8 78.58 39.06 78.75 37.71 78.93 38.63 79.1 38.12 82.06 37.2 83.45 37.36 85.02 36.63 87.98 36.06 88.5 35.65 89.38 35.23 90.25 34.5 93.03 33.92 93.73 33.25 94.6 32.8"/>
      </g>
      <g stroke-width="0.3" fill="#000000" fill-opacity="0.000" class="geometry color_newnot_possible" stroke-dasharray="none" stroke="#808080" id="fig-9f87ad27d04540ac9befa9dc97e3c9f3-element-14">
        <path fill="none" d="M21.63,50.71 L 21.81 50.63 21.98 50.53 22.15 50.55 22.33 50.55 22.5 50.55 22.85 50.58 23.02 50.58 23.2 50.59 23.37 50.59 23.55 50.59 23.72 50.63 23.9 50.65 24.07 50.65 24.42 50.67 24.59 50.6 24.94 50.62 25.11 50.62 25.29 50.52 25.99 50.52 26.51 50.59 26.68 50.6 26.86 50.61 27.03 50.63 27.2 50.63 27.38 50.63 27.55 50.71 27.73 50.71 27.9 50.71 28.25 50.63 28.42 50.63 28.6 50.64 28.77 50.64 28.95 50.64 29.12 50.65 29.29 50.55 29.64 50.54 29.82 50.55 29.99 50.55 30.16 50.57 30.34 50.49 30.51 50.49 30.69 50.49 30.86 50.51 31.38 50.53 31.56 50.44 31.73 50.46 31.91 50.47 32.08 50.47 32.25 50.47 32.43 50.49 32.6 50.49 32.78 50.5 32.95 50.51 33.13 50.42 33.3 50.42 33.47 50.42 33.65 50.44 33.82 50.46 34 50.46 34.17 50.46 34.34 50.47 34.52 50.47 34.69 50.48 34.87 50.48 35.04 50.5 35.22 50.51 35.39 50.51 35.56 50.52 35.74 50.52 35.91 50.52 36.09 50.52 36.26 50.53 36.43 50.54 36.96 50.54 37.83 50.6 38 50.62 38.18 50.62 38.35 50.63 38.52 50.63 38.7 50.66 38.87 50.66 39.57 50.71 39.74 50.71 40.61 50.71 40.96 50.71 41.14 50.82 41.31 50.83 41.48 50.83 41.66 50.83 41.83 50.85 42.01 50.87 42.53 50.88 42.7 50.88 43.05 50.92 43.23 50.92 43.4 50.92 43.92 50.92 44.27 50.94 44.79 50.95 45.49 50.97 45.84 51 46.36 51.02 47.58 51.08 48.28 51.13 48.45 50.98 48.62 50.98 48.8 50.95 48.97 50.95 49.15 50.95 49.5 50.96 49.67 50.97 49.84 50.97 50.02 50.91 50.19 50.92 50.37 50.92 50.54 50.92 50.89 50.86 51.06 50.88 51.24 50.89 51.93 50.95 52.11 50.95 52.28 50.93 52.63 50.95 52.98 50.98 53.15 50.98 53.68 50.99 54.55 50.99 55.42 51 56.29 51.07 56.46 51.07 56.64 51.07 56.81 50.55 56.98 50.63 57.33 50.57 57.68 50.57 58.38 50.58 58.55 50.59 58.73 50.59 58.9 50.59 59.07 50.61 59.25 50.68 59.42 50.62 61.51 50.58 61.86 50.5 62.03 50.53 62.38 50.53 63.08 50.53 63.43 50.54 63.78 50.57 64.47 50.58 64.82 50.6 64.99 50.62 65.34 50.66 65.52 50.66 65.69 50.67 65.87 50.68 66.04 50.68 66.21 50.69 66.56 50.69 66.74 50.71 67.08 50.71 67.43 50.72 67.61 50.75 67.78 50.75 68.13 50.77 68.3 50.77 69.17 50.8 69.87 50.88 70.05 50.83 71.44 50.85 71.61 50.72 71.79 50.72 72.31 50.74 72.48 50.75 72.66 50.83 73.01 50.84 73.35 50.84 73.7 50.86 75.27 50.9"/>
      </g>
      <g stroke-width="0.3" fill="#000000" fill-opacity="0.000" class="geometry color_newtests_fail" stroke-dasharray="none" stroke="#FF0000" id="fig-9f87ad27d04540ac9befa9dc97e3c9f3-element-15">
        <path fill="none" d="M21.63,52.48 L 21.81 52.39 21.98 52.72 22.15 50.33 22.33 50.33 22.5 50.33 22.85 52.64 23.02 52.75 23.2 52.65 23.37 52.86 23.55 52.97 23.72 52.88 23.9 52.89 24.07 53 24.42 52.26 24.59 52.07 24.94 51.98 25.11 51.98 25.29 52.09 25.99 52.09 26.51 52.34 26.68 52.34 26.86 52.35 27.03 52.47 27.2 52.57 27.38 52.87 27.55 52.91 27.73 52.91 27.9 52.91 28.25 52.72 28.42 52.62 28.6 52.73 28.77 52.73 28.95 52.83 29.12 52.63 29.29 52.43 29.64 53.12 29.82 50.05 29.99 49.95 30.16 51.85 30.34 51.87 30.51 51.97 30.69 51.97 30.86 51.98 31.38 50.14 31.56 51.61 31.73 51.91 31.91 52.02 32.08 52.11 32.25 51.92 32.43 52.13 32.6 52.13 32.78 51.94 32.95 51.85 33.13 51.56 33.3 51.76 33.47 52.04 33.65 52.06 33.82 52.07 34 44.58 34.17 44.58 34.34 44.6 34.52 45.64 34.69 45.67 34.87 51.8 35.04 51.91 35.22 52.01 35.39 52.01 35.56 52.02 35.74 52.02 35.91 52.02 36.09 52.02 36.26 52.12 36.43 52.03 36.96 52.31 37.83 52.25 38 52.26 38.18 52.26 38.35 52.27 38.52 52.27 38.7 52.2 38.87 52.2 39.57 52.23 39.74 52.14 40.61 52.32 40.96 52.41 41.14 51.89 41.31 52.34 41.48 52.25 41.66 52.34 41.83 52.35 42.01 52.36 42.53 52.63 42.7 52.64 43.05 51.7 43.23 51.7 43.4 51.7 43.92 51.7 44.27 51.71 44.79 52.76 45.49 52.77 45.84 52.7 46.36 52.8 47.58 52.66 48.28 52.53 48.45 52.7 48.62 52.7 48.8 52.49 48.97 52 49.15 52 49.5 52.01 49.67 52.01 49.84 52.01 50.02 52.03 50.19 52.04 50.37 52.04 50.54 52.04 50.89 52.05 51.06 51.99 51.24 52 51.93 51.65 52.11 51.65 52.28 51.63 52.63 51.58 52.98 46.58 53.15 51.59 53.68 51.38 54.55 51.38 55.42 51.31 56.29 49.48 56.46 50.16 56.64 50.76 56.81 51.61 56.98 51.83 57.33 51.84 57.68 51.39 58.38 51.48 58.55 51.49 58.73 51.41 58.9 51.41 59.07 43.78 59.25 41.75 59.42 42.91 61.51 49.84 61.86 50.06 62.03 51.4 62.38 51.48 63.08 51.48 63.43 51.49 63.78 51.58 64.47 51.52 64.82 39.87 64.99 43.39 65.34 45.76 65.52 45.76 65.69 45.78 65.87 45.46 66.04 45.53 66.21 45.9 66.56 46.05 66.74 45.94 67.08 41.25 67.43 41.5 67.61 42.89 67.78 42.91 68.13 43.51 68.3 44.29 69.17 44.63 69.87 45.01 70.05 44.98 71.44 45.91 71.61 45.97 71.79 46.04 72.31 45.97 72.48 45.98 72.66 46.01 73.01 46.24 73.35 46.11 73.7 46.2 75.27 46.04"/>
      </g>
      <g stroke-width="0.3" fill="#000000" fill-opacity="0.000" class="geometry color_newno_tests" stroke-dasharray="none" stroke="#0000FF" id="fig-9f87ad27d04540ac9befa9dc97e3c9f3-element-16">
        <path fill="none" d="M21.63,49.6 L 21.81 49.53 21.98 49.55 22.15 50.22 22.33 50.22 22.5 50.22 22.85 49.71 23.02 49.71 23.2 49.84 23.37 49.84 23.55 49.84 23.72 49.88 23.9 49.9 24.07 50.01 24.42 50.35 24.59 50.5 24.94 50.52 25.11 50.52 25.29 50.52 25.99 50.52 26.51 50.48 26.68 50.49 26.86 50.4 27.03 50.43 27.2 50.43 27.38 50.43 27.55 50.51 27.73 50.61 27.9 50.61 28.25 50.53 28.42 50.63 28.6 50.54 28.77 50.54 28.95 50.54 29.12 50.55 29.29 50.75 29.64 50.54 29.82 50.84 29.99 50.84 30.16 50.57 30.34 50.59 30.51 50.59 30.69 50.59 30.86 50.61 31.38 51.02 31.56 50.73 31.73 50.65 31.91 50.66 32.08 50.66 32.25 50.66 32.43 50.68 32.6 50.68 32.78 50.69 32.95 50.7 33.13 50.7 33.3 50.7 33.47 50.7 33.65 50.72 33.82 50.74 34 51.31 34.17 51.31 34.34 51.32 34.52 51.13 34.69 51.14 34.87 50.76 35.04 50.78 35.22 50.79 35.39 50.79 35.56 50.8 35.74 50.8 35.91 50.8 36.09 50.8 36.26 50.81 36.43 50.82 36.96 50.82 37.83 50.88 38 50.89 38.18 50.89 38.35 50.9 38.52 50.9 38.7 50.93 38.87 50.93 39.57 50.97 39.74 50.97 40.61 50.98 40.96 50.98 41.14 51 41.31 51.01 41.48 51.1 41.66 51.01 41.83 51.03 42.01 51.04 42.53 51.05 42.7 51.06 43.05 51.09 43.23 51.09 43.4 51.09 43.92 51.09 44.27 51.11 44.79 51.04 45.49 51.14 45.84 51.09 46.36 51.1 47.58 51.16 48.28 51.21 48.45 51.23 48.62 51.23 48.8 51.27 48.97 51.27 49.15 51.27 49.5 51.28 49.67 51.29 49.84 51.29 50.02 51.31 50.19 51.32 50.37 51.32 50.54 51.32 50.89 51.34 51.06 51.36 51.24 51.37 51.93 51.5 52.11 51.5 52.28 51.48 52.63 51.5 52.98 51.67 53.15 51.44 53.68 51.45 54.55 51.45 55.42 51.46 56.29 51.75 56.46 51.67 56.64 51.67 56.81 51.68 56.98 51.61 57.33 51.62 57.68 51.69 58.38 51.7 58.55 51.71 58.73 51.79 58.9 51.79 59.07 52.61 59.25 52.68 59.42 52.69 61.51 51.83 61.86 51.83 62.03 51.84 62.38 51.84 63.08 51.85 63.43 51.85 63.78 51.87 64.47 51.95 64.82 52.54 64.99 52.41 65.34 52.36 65.52 52.29 65.69 52.37 65.87 52.37 66.04 52.37 66.21 52.38 66.56 52.38 66.74 52.46 67.08 52.67 67.43 52.54 67.61 52.48 67.78 52.49 68.13 52.5 68.3 52.43 69.17 52.45 69.87 52.39 70.05 52.4 71.44 52.34 71.61 52.34 71.79 52.34 72.31 52.36 72.48 52.36 72.66 52.37 73.01 52.38 73.35 52.38 73.7 52.39 75.27 52.42"/>
      </g>
      <g stroke-width="0.3" fill="#000000" fill-opacity="0.000" class="geometry color_oldfull_fail" stroke-dasharray="none" stroke="#FFA500" id="fig-9f87ad27d04540ac9befa9dc97e3c9f3-element-17">
        <path fill="none" d="M21.63,51.37 L 21.81 51.4 21.98 50.42 22.15 50.33 22.33 50.22 22.5 50.22 22.85 50.26 23.02 50.36 23.2 50.59 23.37 50.27 23.55 50.16 23.72 50.41 23.9 50.54 24.07 50.22 24.42 49.82 24.59 50.5 24.94 50.41 25.11 50.41 25.29 50.41 25.99 50.41 26.51 50.17 26.68 50.29 26.86 50.4 27.03 50.22 27.2 50.32 27.38 50.53 27.55 50.21 27.73 50.01 27.9 50.01 28.25 50.43 28.42 50.33 28.6 50.34 28.77 50.54 28.95 50.44 29.12 50.05 29.29 50.15 29.64 50.64 29.82 49.55 29.99 49.26 30.16 49.78 30.34 49.9 30.51 49.9 30.69 49.9 30.86 49.83 31.38 48 31.56 49.07 31.73 50.17 31.91 50.08 32.08 49.79 32.25 50.08 32.43 50.2 32.6 50.2 32.78 50.02 32.95 49.94 33.13 50.32 33.3 50.32 33.47 50.22 33.65 50.15 33.82 50.17 34 51.22 34.17 51.12 34.34 51.13 34.52 51.04 34.69 50.86 34.87 48.4 35.04 49.09 35.22 49.48 35.39 49.01 35.56 49.02 35.74 48.93 35.91 48.93 36.09 48.93 36.26 49.13 36.43 49.42 36.96 49.42 37.83 49.31 38 49.16 38.18 49.16 38.35 49.26 38.52 49.35 38.7 49.48 38.87 49.3 39.57 48.56 39.74 48.65 40.61 48.12 40.96 48.39 41.14 48.6 41.31 48.7 41.48 48.7 41.66 48.88 41.83 48.82 42.01 48.76 42.53 48.24 42.7 48.34 43.05 48.31 43.23 47.97 43.4 48.23 43.92 48.4 44.27 48.6 44.79 48.37 45.49 48.48 45.84 48.96 46.36 48.65 47.58 48.41 48.28 48.75 48.45 48.77 48.62 48.77 48.8 48.6 48.97 48.36 49.15 48.44 49.5 48.62 49.67 48.55 49.84 48.55 50.02 48.26 50.19 48.36 50.37 48.28 50.54 48.28 50.89 48.4 51.06 48.28 51.24 48.05 51.93 47.93 52.11 47.77 52.28 47.89 52.63 48 52.98 49.74 53.15 47.27 53.68 46.92 54.55 46.92 55.42 47.01 56.29 47.52 56.46 47.37 56.64 47.22 56.81 47.25 56.98 47.47 57.33 47.27 57.68 46.15 58.38 45.49 58.55 45.6 58.73 45.38 58.9 45.53 59.07 48.09 59.25 48.89 59.42 48.25 61.51 46.53 61.86 46.46 62.03 45.84 62.38 46.28 63.08 46.81 63.43 46.9 63.78 46.8 64.47 47.11 64.82 49.23 64.99 48.69 65.34 47.61 65.52 47.54 65.69 47.27 65.87 45.95 66.04 46.37 66.21 46.67 66.56 46.76 66.74 46.85 67.08 48.54 67.43 48.56 67.61 48.17 67.78 48.12 68.13 48.35 68.3 47.81 69.17 47.92 69.87 48.15 70.05 48.18 71.44 48.41 71.61 48.41 71.79 48.62 72.31 48.32 72.48 48.26 72.66 48.35 73.01 48.18 73.35 47.91 73.7 47.67 75.27 47.55"/>
      </g>
      <g stroke-width="0.3" fill="#000000" fill-opacity="0.000" class="geometry color_newtests_pass" stroke-dasharray="none" stroke="#008000" id="fig-9f87ad27d04540ac9befa9dc97e3c9f3-element-18">
        <path fill="none" d="M21.63,30.11 L 21.81 30.32 21.98 31.04 22.15 32.85 22.33 32.96 22.5 32.96 22.85 31.08 23.02 30.86 23.2 30.6 23.37 30.71 23.55 30.71 23.72 30.48 23.9 30.29 24.07 30.39 24.42 31.16 24.59 30.61 24.94 30.73 25.11 30.73 25.29 30.73 25.99 30.73 26.51 30.69 26.68 30.55 26.86 30.51 27.03 30.53 27.2 30.32 27.38 29.81 27.55 29.91 27.73 30.01 27.9 30.01 28.25 29.97 28.42 30.07 28.6 30.04 28.77 29.84 28.95 29.84 29.12 30.4 29.29 30.4 29.64 29.44 29.82 33.27 29.99 33.67 30.16 31.5 30.34 31.42 30.51 31.32 30.69 31.32 30.86 31.34 31.38 34.57 31.56 32.43 31.73 31.08 31.91 31.04 32.08 31.24 32.25 31.14 32.43 30.77 32.6 30.77 32.78 31.12 32.95 31.27 33.13 31.27 33.3 31.08 33.47 30.89 33.65 30.9 33.82 30.83 34 36.71 34.17 36.8 34.34 36.75 34.52 35.99 34.69 36.13 34.87 32.83 35.04 31.99 35.22 31.48 35.39 31.95 35.56 31.91 35.74 32 35.91 32 36.09 32 36.26 31.68 36.43 31.46 36.96 31.18 37.83 31.23 38 31.34 38.18 31.34 38.35 31.21 38.52 31.12 38.7 31 38.87 31.19 39.57 31.81 39.74 31.81 40.61 32.13 40.96 31.77 41.14 31.96 41.31 31.39 41.48 31.39 41.66 31.21 41.83 31.23 42.01 31.24 42.53 31.47 42.7 31.35 43.05 32.24 43.23 32.59 43.4 32.33 43.92 32.16 44.27 31.91 44.79 31.15 45.49 30.9 45.84 30.51 46.36 30.7 47.58 30.97 48.28 30.65 48.45 30.59 48.62 30.59 48.8 30.96 48.97 31.69 49.15 31.61 49.5 31.41 49.67 31.46 49.84 31.46 50.02 31.76 50.19 31.64 50.37 31.72 50.54 31.72 50.89 31.62 51.06 31.76 51.24 31.96 51.93 32.24 52.11 32.39 52.28 32.34 52.63 32.24 52.98 35.3 53.15 32.99 53.68 33.53 54.55 33.53 55.42 33.5 56.29 34.46 56.46 34.01 56.64 33.56 56.81 33.18 56.98 32.73 57.33 32.97 57.68 34.46 58.38 35.03 58.55 34.88 58.73 35.1 58.9 34.95 59.07 39.18 59.25 40.27 59.42 39.8 61.51 35.5 61.86 35.43 62.03 34.65 62.38 34.14 63.08 33.6 63.43 33.49 63.78 33.46 64.47 33.1 64.82 42.03 64.99 39.17 65.34 37.89 65.52 38.03 65.69 38.2 65.87 39.81 66.04 39.32 66.21 38.64 66.56 38.39 66.74 38.3 67.08 41.11 67.43 40.95 67.61 39.97 67.78 40 68.13 39.15 68.3 38.97 69.17 38.46 69.87 37.84 70.05 37.9 71.44 36.76 71.61 36.83 71.79 36.56 72.31 36.88 72.48 36.91 72.66 36.7 73.01 36.63 73.35 37.03 73.7 37.16 75.27 37.36"/>
      </g>
    </g>
  </g>
  <g class="guide ylabels" font-size="2.82" font-family="'PT Sans Caption','Helvetica Neue','Helvetica',sans-serif" fill="#6C606B" id="fig-9f87ad27d04540ac9befa9dc97e3c9f3-element-19">
    <text x="18.63" y="54.91" text-anchor="end" dy="0.35em">0</text>
    <text x="18.63" y="34.76" text-anchor="end" dy="0.35em">50</text>
    <text x="18.63" y="14.61" text-anchor="end" dy="0.35em">100</text>
  </g>
  <g font-size="3.88" font-family="'PT Sans','Helvetica Neue','Helvetica',sans-serif" fill="#564A55" stroke="#000000" stroke-opacity="0.000" id="fig-9f87ad27d04540ac9befa9dc97e3c9f3-element-20">
    <text x="8.81" y="32.76" text-anchor="middle" dy="0.35em" transform="rotate(-90, 8.81, 34.76)">Percentage of Packages</text>
  </g>
  <g font-size="3.88" font-family="'PT Sans','Helvetica Neue','Helvetica',sans-serif" fill="#564A55" stroke="#000000" stroke-opacity="0.000" id="fig-9f87ad27d04540ac9befa9dc97e3c9f3-element-21">
    <text x="58.12" y="10.61" text-anchor="middle">Julia v0.4 (relative)</text>
  </g>
</g>
<defs>
<clipPath id="fig-9f87ad27d04540ac9befa9dc97e3c9f3-element-5">
  <path d="M19.63,12.61 L 96.6 12.61 96.6 56.91 19.63 56.91" />
</clipPath
></defs>
</svg>
