<?xml version="1.0" encoding="UTF-8"?>
<svg xmlns="http://www.w3.org/2000/svg"
     xmlns:xlink="http://www.w3.org/1999/xlink"
     xmlns:gadfly="http://www.gadflyjl.org/ns"
     version="1.2"
     width="101.6mm" height="76.2mm" viewBox="0 0 101.6 76.2"
     stroke="none"
     fill="#000000"
     stroke-width="0.3"
     font-size="3.88"
>
<g class="plotroot xscalable yscalable" id="fig-0217c307b0244b2fabfaf95edd95351a-element-1">
  <g font-size="3.88" font-family="'PT Sans','Helvetica Neue','Helvetica',sans-serif" fill="#564A55" stroke="#000000" stroke-opacity="0.000" id="fig-0217c307b0244b2fabfaf95edd95351a-element-2">
    <text x="58.12" y="64.59" text-anchor="middle" dy="0.6em">Date</text>
  </g>
  <g class="guide xlabels" font-size="2.82" font-family="'PT Sans Caption','Helvetica Neue','Helvetica',sans-serif" fill="#6C606B" id="fig-0217c307b0244b2fabfaf95edd95351a-element-3">
    <text x="24.94" y="57.91" text-anchor="middle" dy="0.6em">Sep</text>
    <text x="30.16" y="57.91" text-anchor="middle" dy="0.6em">Oct</text>
    <text x="35.56" y="57.91" text-anchor="middle" dy="0.6em">Nov</text>
    <text x="40.79" y="57.91" text-anchor="middle" dy="0.6em">Dec</text>
    <text x="46.19" y="57.91" text-anchor="middle" dy="0.6em">Jan 2015</text>
    <text x="51.59" y="57.91" text-anchor="middle" dy="0.6em">Feb</text>
    <text x="56.46" y="57.91" text-anchor="middle" dy="0.6em">Mar</text>
    <text x="61.86" y="57.91" text-anchor="middle" dy="0.6em">Apr</text>
    <text x="67.08" y="57.91" text-anchor="middle" dy="0.6em">May</text>
    <text x="72.48" y="57.91" text-anchor="middle" dy="0.6em">Jun</text>
    <text x="77.71" y="57.91" text-anchor="middle" dy="0.6em">Jul</text>
    <text x="83.11" y="57.91" text-anchor="middle" dy="0.6em">Aug</text>
    <text x="88.5" y="57.91" text-anchor="middle" dy="0.6em">Sep</text>
    <text x="93.73" y="57.91" text-anchor="middle" dy="0.6em">Oct</text>
  </g>
  <g clip-path="url(#fig-0217c307b0244b2fabfaf95edd95351a-element-5)" id="fig-0217c307b0244b2fabfaf95edd95351a-element-4">
    <g pointer-events="visible" opacity="1" fill="#000000" fill-opacity="0.000" stroke="#000000" stroke-opacity="0.000" class="guide background" id="fig-0217c307b0244b2fabfaf95edd95351a-element-6">
      <rect x="19.63" y="12.61" width="76.97" height="44.3"/>
    </g>
    <g class="guide ygridlines xfixed" stroke-dasharray="0.5,0.5" stroke-width="0.2" stroke="#D0D0E0" id="fig-0217c307b0244b2fabfaf95edd95351a-element-7">
      <path fill="none" d="M19.63,54.91 L 96.6 54.91"/>
      <path fill="none" d="M19.63,46.85 L 96.6 46.85"/>
      <path fill="none" d="M19.63,38.79 L 96.6 38.79"/>
      <path fill="none" d="M19.63,30.73 L 96.6 30.73"/>
      <path fill="none" d="M19.63,22.67 L 96.6 22.67"/>
      <path fill="none" d="M19.63,14.61 L 96.6 14.61"/>
    </g>
    <g class="guide xgridlines yfixed" stroke-dasharray="0.5,0.5" stroke-width="0.2" stroke="#D0D0E0" id="fig-0217c307b0244b2fabfaf95edd95351a-element-8">
      <path fill="none" d="M24.94,12.61 L 24.94 56.91"/>
      <path fill="none" d="M30.16,12.61 L 30.16 56.91"/>
      <path fill="none" d="M35.56,12.61 L 35.56 56.91"/>
      <path fill="none" d="M40.79,12.61 L 40.79 56.91"/>
      <path fill="none" d="M46.19,12.61 L 46.19 56.91"/>
      <path fill="none" d="M51.59,12.61 L 51.59 56.91"/>
      <path fill="none" d="M56.46,12.61 L 56.46 56.91"/>
      <path fill="none" d="M61.86,12.61 L 61.86 56.91"/>
      <path fill="none" d="M67.08,12.61 L 67.08 56.91"/>
      <path fill="none" d="M72.48,12.61 L 72.48 56.91"/>
      <path fill="none" d="M77.71,12.61 L 77.71 56.91"/>
      <path fill="none" d="M83.11,12.61 L 83.11 56.91"/>
      <path fill="none" d="M88.5,12.61 L 88.5 56.91"/>
      <path fill="none" d="M93.73,12.61 L 93.73 56.91"/>
    </g>
    <g class="plotpanel" id="fig-0217c307b0244b2fabfaf95edd95351a-element-9">
      <g stroke-width="0.3" fill="#000000" fill-opacity="0.000" class="geometry color_newnot_possible" stroke-dasharray="none" stroke="#808080" id="fig-0217c307b0244b2fabfaf95edd95351a-element-10">
        <path fill="none" d="M75.79,50.56 L 75.97 50.56 76.14 50.56 76.31 50.56 76.49 50.56 76.66 50.56 76.84 50.56 77.01 50.56 77.53 50.56 77.88 50.56 78.23 50.56 78.4 50.56 78.58 50.56 78.75 50.56 78.93 50.56 79.1 50.56 82.06 50.48 83.45 50.48 85.02 50.48 87.98 50.48 88.5 50.48 89.38 50.48 90.25 50 93.03 50 93.73 50 94.6 49.92"/>
      </g>
      <g stroke-width="0.3" fill="#000000" fill-opacity="0.000" class="geometry color_newno_tests" stroke-dasharray="none" stroke="#0000FF" id="fig-0217c307b0244b2fabfaf95edd95351a-element-11">
        <path fill="none" d="M75.79,46.21 L 75.97 46.21 76.14 46.21 76.31 46.21 76.49 46.21 76.66 46.21 76.84 46.21 77.01 46.21 77.53 46.21 77.88 46.21 78.23 46.21 78.4 46.21 78.58 46.29 78.75 46.29 78.93 46.29 79.1 46.37 82.06 46.29 83.45 46.29 85.02 46.29 87.98 46.29 88.5 46.37 89.38 46.37 90.25 46.45 93.03 46.77 93.73 47.02 94.6 47.18"/>
      </g>
      <g stroke-width="0.3" fill="#000000" fill-opacity="0.000" class="geometry color_newtests_fail" stroke-dasharray="none" stroke="#FF0000" id="fig-0217c307b0244b2fabfaf95edd95351a-element-12">
        <path fill="none" d="M75.79,38.47 L 75.97 39.04 76.14 38.87 76.31 37.26 76.49 37.18 76.66 37.42 76.84 37.42 77.01 38.71 77.53 37.99 77.88 37.99 78.23 38.87 78.4 39.04 78.58 37.18 78.75 38.79 78.93 37.58 79.1 38.15 82.06 38.79 83.45 38.31 85.02 39.04 87.98 38.71 88.5 39.12 89.38 39.52 90.25 40.65 93.03 40.41 93.73 40.89 94.6 41.13"/>
      </g>
      <g stroke-width="0.3" fill="#000000" fill-opacity="0.000" class="geometry color_newtests_pass" stroke-dasharray="none" stroke="#008000" id="fig-0217c307b0244b2fabfaf95edd95351a-element-13">
        <path fill="none" d="M75.79,35.01 L 75.97 34.44 76.14 34.44 76.31 36.05 76.49 35.89 76.66 35.65 76.84 35.65 77.01 34.28 77.53 34.92 77.88 34.76 78.23 33.88 78.4 33.55 78.58 35.01 78.75 33.23 78.93 34.36 79.1 33.72 82.06 32.02 83.45 32.02 85.02 30.89 87.98 29.2 88.5 28.56 89.38 27.83 90.25 26.54 93.03 24.93 93.73 23.72 94.6 22.67"/>
      </g>
      <g stroke-width="0.3" fill="#000000" fill-opacity="0.000" class="geometry color_newnot_possible" stroke-dasharray="none" stroke="#808080" id="fig-0217c307b0244b2fabfaf95edd95351a-element-14">
        <path fill="none" d="M21.63,51.85 L 21.81 51.77 21.98 51.69 22.15 51.69 22.33 51.69 22.5 51.69 22.85 51.69 23.02 51.69 23.2 51.69 23.37 51.69 23.55 51.69 23.72 51.69 23.9 51.69 24.07 51.69 24.42 51.69 24.59 51.61 24.94 51.61 25.11 51.61 25.29 51.53 25.99 51.53 26.51 51.53 26.68 51.53 26.86 51.53 27.03 51.53 27.2 51.53 27.38 51.53 27.55 51.53 27.73 51.53 27.9 51.53 28.25 51.45 28.42 51.45 28.6 51.45 28.77 51.45 28.95 51.45 29.12 51.45 29.29 51.37 29.64 51.37 29.82 51.37 29.99 51.37 30.16 51.37 30.34 51.29 30.51 51.29 30.69 51.29 30.86 51.29 31.38 51.29 31.56 51.21 31.73 51.21 31.91 51.21 32.08 51.21 32.25 51.21 32.43 51.21 32.6 51.21 32.78 51.21 32.95 51.21 33.13 51.13 33.3 51.13 33.47 51.13 33.65 51.13 33.82 51.13 34 51.13 34.17 51.13 34.34 51.13 34.52 51.13 34.69 51.13 34.87 51.13 35.04 51.13 35.22 51.13 35.39 51.13 35.56 51.13 35.74 51.13 35.91 51.13 36.09 51.13 36.26 51.13 36.43 51.13 36.96 51.13 37.83 51.13 38 51.13 38.18 51.13 38.35 51.13 38.52 51.13 38.7 51.13 38.87 51.13 39.57 51.13 39.74 51.13 40.61 51.13 40.96 51.13 41.14 51.21 41.31 51.21 41.48 51.21 41.66 51.21 41.83 51.21 42.01 51.21 42.53 51.21 42.7 51.21 43.05 51.21 43.23 51.21 43.4 51.21 43.92 51.21 44.27 51.21 44.79 51.21 45.49 51.21 45.84 51.21 46.36 51.21 47.58 51.21 48.28 51.21 48.45 51.05 48.62 51.05 48.8 50.97 48.97 50.97 49.15 50.97 49.5 50.97 49.67 50.97 49.84 50.97 50.02 50.88 50.19 50.88 50.37 50.88 50.54 50.88 50.89 50.8 51.06 50.8 51.24 50.8 51.93 50.8 52.11 50.8 52.28 50.8 52.63 50.8 52.98 50.8 53.15 50.8 53.68 50.8 54.55 50.8 55.42 50.8 56.29 50.8 56.46 50.8 56.64 50.8 56.81 50.24 56.98 50.32 57.33 50.24 57.68 50.24 58.38 50.24 58.55 50.24 58.73 50.24 58.9 50.24 59.07 50.24 59.25 50.32 59.42 50.24 61.51 50.16 61.86 50.08 62.03 50.08 62.38 50.08 63.08 50.08 63.43 50.08 63.78 50.08 64.47 50.08 64.82 50.08 64.99 50.08 65.34 50.08 65.52 50.08 65.69 50.08 65.87 50.08 66.04 50.08 66.21 50.08 66.56 50.08 66.74 50.08 67.08 50.08 67.43 50.08 67.61 50.08 67.78 50.08 68.13 50.08 68.3 50.08 69.17 50.08 69.87 50.16 70.05 50.08 71.44 50.08 71.61 49.92 71.79 49.92 72.31 49.92 72.48 49.92 72.66 50 73.01 50 73.35 50 73.7 50 75.27 50"/>
      </g>
      <g stroke-width="0.3" fill="#000000" fill-opacity="0.000" class="geometry color_newtests_fail" stroke-dasharray="none" stroke="#FF0000" id="fig-0217c307b0244b2fabfaf95edd95351a-element-15">
        <path fill="none" d="M21.63,53.14 L 21.81 53.06 21.98 53.3 22.15 51.53 22.33 51.53 22.5 51.53 22.85 53.22 23.02 53.3 23.2 53.22 23.37 53.38 23.55 53.46 23.72 53.38 23.9 53.38 24.07 53.46 24.42 52.9 24.59 52.74 24.94 52.66 25.11 52.66 25.29 52.74 25.99 52.74 26.51 52.9 26.68 52.9 26.86 52.9 27.03 52.98 27.2 53.06 27.38 53.3 27.55 53.3 27.73 53.3 27.9 53.3 28.25 53.14 28.42 53.06 28.6 53.14 28.77 53.14 28.95 53.22 29.12 53.06 29.29 52.9 29.64 53.46 29.82 50.97 29.99 50.88 30.16 52.42 30.34 52.42 30.51 52.5 30.69 52.5 30.86 52.5 31.38 50.97 31.56 52.17 31.73 52.42 31.91 52.5 32.08 52.58 32.25 52.42 32.43 52.58 32.6 52.58 32.78 52.42 32.95 52.34 33.13 52.09 33.3 52.25 33.47 52.5 33.65 52.5 33.82 52.5 34 46.13 34.17 46.13 34.34 46.13 34.52 47.02 34.69 47.02 34.87 52.25 35.04 52.34 35.22 52.42 35.39 52.42 35.56 52.42 35.74 52.42 35.91 52.42 36.09 52.42 36.26 52.5 36.43 52.42 36.96 52.66 37.83 52.58 38 52.58 38.18 52.58 38.35 52.58 38.52 52.58 38.7 52.5 38.87 52.5 39.57 52.5 39.74 52.42 40.61 52.58 40.96 52.66 41.14 52.17 41.31 52.58 41.48 52.5 41.66 52.58 41.83 52.58 42.01 52.58 42.53 52.82 42.7 52.82 43.05 51.93 43.23 51.93 43.4 51.93 43.92 51.93 44.27 51.93 44.79 52.9 45.49 52.9 45.84 52.82 46.36 52.9 47.58 52.74 48.28 52.58 48.45 52.74 48.62 52.74 48.8 52.5 48.97 52.01 49.15 52.01 49.5 52.01 49.67 52.01 49.84 52.01 50.02 52.01 50.19 52.01 50.37 52.01 50.54 52.01 50.89 52.01 51.06 51.93 51.24 51.93 51.93 51.53 52.11 51.53 52.28 51.53 52.63 51.45 52.98 46.21 53.15 51.45 53.68 51.21 54.55 51.21 55.42 51.13 56.29 49.11 56.46 49.84 56.64 50.48 56.81 51.37 56.98 51.61 57.33 51.61 57.68 51.13 58.38 51.21 58.55 51.21 58.73 51.13 58.9 51.13 59.07 42.82 59.25 40.65 59.42 41.86 61.51 49.35 61.86 49.59 62.03 51.05 62.38 51.13 63.08 51.13 63.43 51.13 63.78 51.21 64.47 51.13 64.82 38.07 64.99 41.94 65.34 44.52 65.52 44.52 65.69 44.52 65.87 44.11 66.04 44.19 66.21 44.6 66.56 44.76 66.74 44.6 67.08 39.2 67.43 39.44 67.61 40.97 67.78 40.97 68.13 41.61 68.3 42.5 69.17 42.82 69.87 43.23 70.05 43.15 71.44 44.19 71.61 44.27 71.79 44.36 72.31 44.19 72.48 44.19 72.66 44.19 73.01 44.44 73.35 44.27 73.7 44.36 75.27 44.03"/>
      </g>
      <g stroke-width="0.3" fill="#000000" fill-opacity="0.000" class="geometry color_newno_tests" stroke-dasharray="none" stroke="#0000FF" id="fig-0217c307b0244b2fabfaf95edd95351a-element-16">
        <path fill="none" d="M21.63,51.05 L 21.81 50.97 21.98 50.97 22.15 51.45 22.33 51.45 22.5 51.45 22.85 51.05 23.02 51.05 23.2 51.13 23.37 51.13 23.55 51.13 23.72 51.13 23.9 51.13 24.07 51.21 24.42 51.45 24.59 51.53 24.94 51.53 25.11 51.53 25.29 51.53 25.99 51.53 26.51 51.45 26.68 51.45 26.86 51.37 27.03 51.37 27.2 51.37 27.38 51.37 27.55 51.37 27.73 51.45 27.9 51.45 28.25 51.37 28.42 51.45 28.6 51.37 28.77 51.37 28.95 51.37 29.12 51.37 29.29 51.53 29.64 51.37 29.82 51.61 29.99 51.61 30.16 51.37 30.34 51.37 30.51 51.37 30.69 51.37 30.86 51.37 31.38 51.69 31.56 51.45 31.73 51.37 31.91 51.37 32.08 51.37 32.25 51.37 32.43 51.37 32.6 51.37 32.78 51.37 32.95 51.37 33.13 51.37 33.3 51.37 33.47 51.37 33.65 51.37 33.82 51.37 34 51.85 34.17 51.85 34.34 51.85 34.52 51.69 34.69 51.69 34.87 51.37 35.04 51.37 35.22 51.37 35.39 51.37 35.56 51.37 35.74 51.37 35.91 51.37 36.09 51.37 36.26 51.37 36.43 51.37 36.96 51.37 37.83 51.37 38 51.37 38.18 51.37 38.35 51.37 38.52 51.37 38.7 51.37 38.87 51.37 39.57 51.37 39.74 51.37 40.61 51.37 40.96 51.37 41.14 51.37 41.31 51.37 41.48 51.45 41.66 51.37 41.83 51.37 42.01 51.37 42.53 51.37 42.7 51.37 43.05 51.37 43.23 51.37 43.4 51.37 43.92 51.37 44.27 51.37 44.79 51.29 45.49 51.37 45.84 51.29 46.36 51.29 47.58 51.29 48.28 51.29 48.45 51.29 48.62 51.29 48.8 51.29 48.97 51.29 49.15 51.29 49.5 51.29 49.67 51.29 49.84 51.29 50.02 51.29 50.19 51.29 50.37 51.29 50.54 51.29 50.89 51.29 51.06 51.29 51.24 51.29 51.93 51.37 52.11 51.37 52.28 51.37 52.63 51.37 52.98 51.53 53.15 51.29 53.68 51.29 54.55 51.29 55.42 51.29 56.29 51.53 56.46 51.45 56.64 51.45 56.81 51.45 56.98 51.37 57.33 51.37 57.68 51.45 58.38 51.45 58.55 51.45 58.73 51.53 58.9 51.53 59.07 52.42 59.25 52.5 59.42 52.5 61.51 51.53 61.86 51.53 62.03 51.53 62.38 51.53 63.08 51.53 63.43 51.53 63.78 51.53 64.47 51.61 64.82 52.25 64.99 52.09 65.34 52.01 65.52 51.93 65.69 52.01 65.87 52.01 66.04 52.01 66.21 52.01 66.56 52.01 66.74 52.09 67.08 52.34 67.43 52.17 67.61 52.09 67.78 52.09 68.13 52.09 68.3 52.01 69.17 52.01 69.87 51.93 70.05 51.93 71.44 51.85 71.61 51.85 71.79 51.85 72.31 51.85 72.48 51.85 72.66 51.85 73.01 51.85 73.35 51.85 73.7 51.85 75.27 51.85"/>
      </g>
      <g stroke-width="0.3" fill="#000000" fill-opacity="0.000" class="geometry color_oldfull_fail" stroke-dasharray="none" stroke="#FFA500" id="fig-0217c307b0244b2fabfaf95edd95351a-element-17">
        <path fill="none" d="M21.63,52.34 L 21.81 52.34 21.98 51.61 22.15 51.53 22.33 51.45 22.5 51.45 22.85 51.45 23.02 51.53 23.2 51.69 23.37 51.45 23.55 51.37 23.72 51.53 23.9 51.61 24.07 51.37 24.42 51.05 24.59 51.53 24.94 51.45 25.11 51.45 25.29 51.45 25.99 51.45 26.51 51.21 26.68 51.29 26.86 51.37 27.03 51.21 27.2 51.29 27.38 51.45 27.55 51.13 27.73 50.97 27.9 50.97 28.25 51.29 28.42 51.21 28.6 51.21 28.77 51.37 28.95 51.29 29.12 50.97 29.29 51.05 29.64 51.45 29.82 50.56 29.99 50.32 30.16 50.72 30.34 50.8 30.51 50.8 30.69 50.8 30.86 50.72 31.38 49.19 31.56 50.08 31.73 50.97 31.91 50.88 32.08 50.64 32.25 50.88 32.43 50.97 32.6 50.97 32.78 50.8 32.95 50.72 33.13 51.05 33.3 51.05 33.47 50.97 33.65 50.88 33.82 50.88 34 51.77 34.17 51.69 34.34 51.69 34.52 51.61 34.69 51.45 34.87 49.35 35.04 49.92 35.22 50.24 35.39 49.84 35.56 49.84 35.74 49.76 35.91 49.76 36.09 49.76 36.26 49.92 36.43 50.16 36.96 50.16 37.83 50 38 49.84 38.18 49.84 38.35 49.92 38.52 50 38.7 50.08 38.87 49.92 39.57 49.19 39.74 49.27 40.61 48.79 40.96 49.03 41.14 49.19 41.31 49.27 41.48 49.27 41.66 49.43 41.83 49.35 42.01 49.27 42.53 48.79 42.7 48.87 43.05 48.79 43.23 48.47 43.4 48.71 43.92 48.87 44.27 49.03 44.79 48.79 45.49 48.87 45.84 49.27 46.36 48.95 47.58 48.63 48.28 48.87 48.45 48.87 48.62 48.87 48.8 48.63 48.97 48.39 49.15 48.47 49.5 48.63 49.67 48.55 49.84 48.55 50.02 48.22 50.19 48.31 50.37 48.22 50.54 48.22 50.89 48.31 51.06 48.14 51.24 47.9 51.93 47.66 52.11 47.5 52.28 47.66 52.63 47.74 52.98 49.51 53.15 46.93 53.68 46.53 54.55 46.53 55.42 46.61 56.29 47.02 56.46 46.85 56.64 46.69 56.81 46.69 56.98 46.93 57.33 46.69 57.68 45.48 58.38 44.76 58.55 44.84 58.73 44.6 58.9 44.76 59.07 47.5 59.25 48.39 59.42 47.66 61.51 45.73 61.86 45.65 62.03 44.92 62.38 45.4 63.08 45.97 63.43 46.05 63.78 45.89 64.47 46.21 64.82 48.55 64.99 47.9 65.34 46.61 65.52 46.53 65.69 46.21 65.87 44.68 66.04 45.16 66.21 45.48 66.56 45.56 66.74 45.65 67.08 47.58 67.43 47.58 67.61 47.1 67.78 47.02 68.13 47.26 68.3 46.61 69.17 46.69 69.87 46.93 70.05 46.93 71.44 47.18 71.61 47.18 71.79 47.42 72.31 47.02 72.48 46.93 72.66 47.02 73.01 46.77 73.35 46.45 73.7 46.13 75.27 45.89"/>
      </g>
      <g stroke-width="0.3" fill="#000000" fill-opacity="0.000" class="geometry color_newtests_pass" stroke-dasharray="none" stroke="#008000" id="fig-0217c307b0244b2fabfaf95edd95351a-element-18">
        <path fill="none" d="M21.63,36.86 L 21.81 36.86 21.98 37.34 22.15 38.63 22.33 38.71 22.5 38.71 22.85 37.18 23.02 37.02 23.2 36.78 23.37 36.86 23.55 36.86 23.72 36.54 23.9 36.29 24.07 36.38 24.42 36.86 24.59 36.29 24.94 36.29 25.11 36.29 25.29 36.29 25.99 36.29 26.51 35.97 26.68 35.81 26.86 35.73 27.03 35.65 27.2 35.49 27.38 35.09 27.55 34.76 27.73 34.84 27.9 34.84 28.25 34.76 28.42 34.84 28.6 34.76 28.77 34.6 28.95 34.6 29.12 35.01 29.29 35.01 29.64 34.28 29.82 37.34 29.99 37.67 30.16 35.81 30.34 35.65 30.51 35.57 30.69 35.57 30.86 35.49 31.38 38.07 31.56 36.29 31.73 35.09 31.91 35.01 32.08 35.17 32.25 35.09 32.43 34.68 32.6 34.68 32.78 34.92 32.95 35.01 33.13 35.01 33.3 34.84 33.47 34.68 33.65 34.6 33.82 34.44 34 39.44 34.17 39.52 34.34 39.44 34.52 38.79 34.69 38.87 34.87 36.05 35.04 35.25 35.22 34.76 35.39 35.17 35.56 35.09 35.74 35.17 35.91 35.17 36.09 35.17 36.26 34.84 36.43 34.6 36.96 34.36 37.83 34.12 38 34.12 38.18 34.12 38.35 33.96 38.52 33.88 38.7 33.63 38.87 33.8 39.57 34.12 39.74 34.12 40.61 34.36 40.96 34.04 41.14 34.12 41.31 33.55 41.48 33.55 41.66 33.39 41.83 33.31 42.01 33.23 42.53 33.39 42.7 33.23 43.05 33.88 43.23 34.2 43.4 33.96 43.92 33.8 44.27 33.47 44.79 32.67 45.49 32.35 45.84 31.78 46.36 31.86 47.58 31.78 48.28 31.14 48.45 30.97 48.62 30.97 48.8 31.06 48.97 31.78 49.15 31.7 49.5 31.46 49.67 31.46 49.84 31.46 50.02 31.62 50.19 31.46 50.37 31.54 50.54 31.54 50.89 31.3 51.06 31.3 51.24 31.46 51.93 31.38 52.11 31.54 52.28 31.62 52.63 31.38 52.98 34.44 53.15 32.02 53.68 32.51 54.55 32.51 55.42 32.43 56.29 33.07 56.46 32.59 56.64 32.1 56.81 31.62 56.98 31.14 57.33 31.3 57.68 32.91 58.38 33.47 58.55 33.23 58.73 33.47 58.9 33.31 59.07 37.83 59.25 39.04 59.42 38.47 61.51 33.63 61.86 33.55 62.03 32.59 62.38 32.02 63.08 31.38 63.43 31.22 63.78 31.06 64.47 30.57 64.82 40.49 64.99 37.18 65.34 35.57 65.52 35.73 65.69 35.89 65.87 37.67 66.04 37.1 66.21 36.29 66.56 35.97 66.74 35.81 67.08 39.04 67.43 38.79 67.61 37.58 67.78 37.58 68.13 36.54 68.3 36.29 69.17 35.57 69.87 34.76 70.05 34.76 71.44 33.31 71.61 33.39 71.79 33.07 72.31 33.31 72.48 33.31 72.66 32.99 73.01 32.83 73.35 33.31 73.7 33.39 75.27 33.39"/>
      </g>
    </g>
  </g>
  <g class="guide ylabels" font-size="2.82" font-family="'PT Sans Caption','Helvetica Neue','Helvetica',sans-serif" fill="#6C606B" id="fig-0217c307b0244b2fabfaf95edd95351a-element-19">
    <text x="18.63" y="54.91" text-anchor="end" dy="0.35em">0</text>
    <text x="18.63" y="46.85" text-anchor="end" dy="0.35em">100</text>
    <text x="18.63" y="38.79" text-anchor="end" dy="0.35em">200</text>
    <text x="18.63" y="30.73" text-anchor="end" dy="0.35em">300</text>
    <text x="18.63" y="22.67" text-anchor="end" dy="0.35em">400</text>
    <text x="18.63" y="14.61" text-anchor="end" dy="0.35em">500</text>
  </g>
  <g font-size="3.88" font-family="'PT Sans','Helvetica Neue','Helvetica',sans-serif" fill="#564A55" stroke="#000000" stroke-opacity="0.000" id="fig-0217c307b0244b2fabfaf95edd95351a-element-20">
    <text x="8.81" y="32.76" text-anchor="middle" dy="0.35em" transform="rotate(-90, 8.81, 34.76)">Number of Packages</text>
  </g>
  <g font-size="3.88" font-family="'PT Sans','Helvetica Neue','Helvetica',sans-serif" fill="#564A55" stroke="#000000" stroke-opacity="0.000" id="fig-0217c307b0244b2fabfaf95edd95351a-element-21">
    <text x="58.12" y="10.61" text-anchor="middle">Julia v0.4</text>
  </g>
</g>
<defs>
<clipPath id="fig-0217c307b0244b2fabfaf95edd95351a-element-5">
  <path d="M19.63,12.61 L 96.6 12.61 96.6 56.91 19.63 56.91" />
</clipPath
></defs>
</svg>
