<?xml version="1.0" encoding="UTF-8"?>
<svg xmlns="http://www.w3.org/2000/svg"
     xmlns:xlink="http://www.w3.org/1999/xlink"
     xmlns:gadfly="http://www.gadflyjl.org/ns"
     version="1.2"
     width="101.6mm" height="76.2mm" viewBox="0 0 101.6 76.2"
     stroke="none"
     fill="#000000"
     stroke-width="0.3"
     font-size="3.88"
>
<g class="plotroot xscalable yscalable" id="fig-134cc70d3cb04e69b25f53c6dbd2d79d-element-1">
  <g font-size="3.88" font-family="'PT Sans','Helvetica Neue','Helvetica',sans-serif" fill="#564A55" stroke="#000000" stroke-opacity="0.000" id="fig-134cc70d3cb04e69b25f53c6dbd2d79d-element-2">
    <text x="58.12" y="64.59" text-anchor="middle" dy="0.6em">Date</text>
  </g>
  <g class="guide xlabels" font-size="2.82" font-family="'PT Sans Caption','Helvetica Neue','Helvetica',sans-serif" fill="#6C606B" id="fig-134cc70d3cb04e69b25f53c6dbd2d79d-element-3">
    <text x="24.77" y="57.91" text-anchor="middle" dy="0.6em">Sep</text>
    <text x="29.72" y="57.91" text-anchor="middle" dy="0.6em">Oct</text>
    <text x="34.84" y="57.91" text-anchor="middle" dy="0.6em">Nov</text>
    <text x="39.79" y="57.91" text-anchor="middle" dy="0.6em">Dec</text>
    <text x="44.91" y="57.91" text-anchor="middle" dy="0.6em">Jan 2015</text>
    <text x="50.03" y="57.91" text-anchor="middle" dy="0.6em">Feb</text>
    <text x="54.65" y="57.91" text-anchor="middle" dy="0.6em">Mar</text>
    <text x="59.77" y="57.91" text-anchor="middle" dy="0.6em">Apr</text>
    <text x="64.72" y="57.91" text-anchor="middle" dy="0.6em">May</text>
    <text x="69.84" y="57.91" text-anchor="middle" dy="0.6em">Jun</text>
    <text x="74.79" y="57.91" text-anchor="middle" dy="0.6em">Jul</text>
    <text x="79.91" y="57.91" text-anchor="middle" dy="0.6em">Aug</text>
    <text x="85.02" y="57.91" text-anchor="middle" dy="0.6em">Sep</text>
    <text x="89.98" y="57.91" text-anchor="middle" dy="0.6em">Oct</text>
  </g>
  <g clip-path="url(#fig-134cc70d3cb04e69b25f53c6dbd2d79d-element-5)" id="fig-134cc70d3cb04e69b25f53c6dbd2d79d-element-4">
    <g pointer-events="visible" opacity="1" fill="#000000" fill-opacity="0.000" stroke="#000000" stroke-opacity="0.000" class="guide background" id="fig-134cc70d3cb04e69b25f53c6dbd2d79d-element-6">
      <rect x="19.63" y="12.61" width="76.97" height="44.3"/>
    </g>
    <g class="guide ygridlines xfixed" stroke-dasharray="0.5,0.5" stroke-width="0.2" stroke="#D0D0E0" id="fig-134cc70d3cb04e69b25f53c6dbd2d79d-element-7">
      <path fill="none" d="M19.63,54.91 L 96.6 54.91"/>
      <path fill="none" d="M19.63,34.76 L 96.6 34.76"/>
      <path fill="none" d="M19.63,14.61 L 96.6 14.61"/>
    </g>
    <g class="guide xgridlines yfixed" stroke-dasharray="0.5,0.5" stroke-width="0.2" stroke="#D0D0E0" id="fig-134cc70d3cb04e69b25f53c6dbd2d79d-element-8">
      <path fill="none" d="M24.77,12.61 L 24.77 56.91"/>
      <path fill="none" d="M29.72,12.61 L 29.72 56.91"/>
      <path fill="none" d="M34.84,12.61 L 34.84 56.91"/>
      <path fill="none" d="M39.79,12.61 L 39.79 56.91"/>
      <path fill="none" d="M44.91,12.61 L 44.91 56.91"/>
      <path fill="none" d="M50.03,12.61 L 50.03 56.91"/>
      <path fill="none" d="M54.65,12.61 L 54.65 56.91"/>
      <path fill="none" d="M59.77,12.61 L 59.77 56.91"/>
      <path fill="none" d="M64.72,12.61 L 64.72 56.91"/>
      <path fill="none" d="M69.84,12.61 L 69.84 56.91"/>
      <path fill="none" d="M74.79,12.61 L 74.79 56.91"/>
      <path fill="none" d="M79.91,12.61 L 79.91 56.91"/>
      <path fill="none" d="M85.02,12.61 L 85.02 56.91"/>
      <path fill="none" d="M89.98,12.61 L 89.98 56.91"/>
    </g>
    <g class="plotpanel" id="fig-134cc70d3cb04e69b25f53c6dbd2d79d-element-9">
      <g stroke-width="0.3" fill="#000000" fill-opacity="0.000" class="geometry color_newnot_possible" stroke-dasharray="none" stroke="#808080" id="fig-134cc70d3cb04e69b25f53c6dbd2d79d-element-10">
        <path fill="none" d="M72.97,51.36 L 73.14 51.36 73.3 51.38 73.47 51.38 73.63 51.39 73.8 51.39 73.96 51.39 74.13 51.4 74.62 51.4 74.95 51.42 75.28 51.42 75.45 51.43 75.62 51.45 75.78 51.46 75.95 51.47 76.11 51.47 78.92 51.48 80.24 51.52 81.72 51.54 84.53 51.66 85.02 51.67 85.85 51.69 86.68 51.38 89.32 51.47 89.98 51.5 90.8 51.49 91.46 51.31 92.12 51.33 92.62 51.29 94.6 51.4"/>
      </g>
      <g stroke-width="0.3" fill="#000000" fill-opacity="0.000" class="geometry color_newno_tests" stroke-dasharray="none" stroke="#0000FF" id="fig-134cc70d3cb04e69b25f53c6dbd2d79d-element-11">
        <path fill="none" d="M72.97,47.81 L 73.14 47.81 73.3 47.84 73.47 47.84 73.63 47.87 73.8 47.87 73.96 47.87 74.13 47.88 74.62 47.89 74.95 47.92 75.28 47.92 75.45 47.94 75.62 48.05 75.78 48.07 75.95 48.08 76.11 48.14 78.92 48.24 80.24 48.3 81.72 48.35 84.53 48.59 85.02 48.67 85.85 48.71 86.68 48.83 89.32 49.21 89.98 49.43 90.8 49.61 91.46 50.39 92.12 50.48 92.62 50.61 94.6 50.8"/>
      </g>
      <g stroke-width="0.3" fill="#000000" fill-opacity="0.000" class="geometry color_newtests_fail" stroke-dasharray="none" stroke="#FF0000" id="fig-134cc70d3cb04e69b25f53c6dbd2d79d-element-12">
        <path fill="none" d="M72.97,41.5 L 73.14 41.96 73.3 41.87 73.47 40.56 73.63 40.57 73.8 40.76 73.96 40.76 74.13 41.83 74.62 41.26 74.95 41.31 75.28 42.02 75.45 42.19 75.62 40.8 75.78 42.12 75.95 41.18 76.11 41.63 78.92 42.44 80.24 42.18 81.72 42.83 84.53 43.04 85.02 43.37 85.85 43.73 86.68 44.65 89.32 44.75 89.98 45.18 90.8 45.46 91.46 45.7 92.12 45.99 92.62 46.42 94.6 46.46"/>
      </g>
      <g stroke-width="0.3" fill="#000000" fill-opacity="0.000" class="geometry color_newtests_pass" stroke-dasharray="none" stroke="#008000" id="fig-134cc70d3cb04e69b25f53c6dbd2d79d-element-13">
        <path fill="none" d="M72.97,38.68 L 73.14 38.22 73.3 38.27 73.47 39.58 73.63 39.52 73.8 39.33 73.96 39.33 74.13 38.25 74.62 38.79 74.95 38.72 75.28 38 75.45 37.8 75.62 39.06 75.78 37.71 75.95 38.63 76.11 38.12 78.92 37.2 80.24 37.36 81.72 36.63 84.53 36.06 85.02 35.65 85.85 35.23 86.68 34.5 89.32 33.92 89.98 33.25 90.8 32.8 91.46 31.96 92.12 31.55 92.62 31.03 94.6 30.7"/>
      </g>
      <g stroke-width="0.3" fill="#000000" fill-opacity="0.000" class="geometry color_newnot_possible" stroke-dasharray="none" stroke="#808080" id="fig-134cc70d3cb04e69b25f53c6dbd2d79d-element-14">
        <path fill="none" d="M21.63,50.71 L 21.8 50.63 21.96 50.53 22.13 50.55 22.29 50.55 22.46 50.55 22.79 50.58 22.95 50.58 23.12 50.59 23.28 50.59 23.45 50.59 23.61 50.63 23.78 50.65 23.94 50.65 24.27 50.67 24.44 50.6 24.77 50.62 24.93 50.62 25.1 50.52 25.76 50.52 26.25 50.59 26.42 50.6 26.58 50.61 26.75 50.63 26.91 50.63 27.08 50.63 27.24 50.71 27.41 50.71 27.57 50.71 27.9 50.63 28.07 50.63 28.24 50.64 28.4 50.64 28.57 50.64 28.73 50.65 28.9 50.55 29.23 50.54 29.39 50.55 29.56 50.55 29.72 50.57 29.89 50.49 30.05 50.49 30.22 50.49 30.38 50.51 30.88 50.53 31.04 50.44 31.21 50.46 31.37 50.47 31.54 50.47 31.7 50.47 31.87 50.49 32.03 50.49 32.2 50.5 32.36 50.51 32.53 50.42 32.69 50.42 32.86 50.42 33.02 50.44 33.19 50.46 33.35 50.46 33.52 50.46 33.68 50.47 33.85 50.47 34.01 50.48 34.18 50.48 34.34 50.5 34.51 50.51 34.67 50.51 34.84 50.52 35 50.52 35.17 50.52 35.33 50.52 35.5 50.53 35.66 50.54 36.16 50.54 36.98 50.6 37.15 50.62 37.31 50.62 37.48 50.63 37.65 50.63 37.81 50.66 37.98 50.66 38.64 50.71 38.8 50.71 39.63 50.71 39.96 50.71 40.12 50.82 40.29 50.83 40.45 50.83 40.62 50.83 40.78 50.85 40.95 50.87 41.44 50.88 41.61 50.88 41.94 50.92 42.1 50.92 42.27 50.92 42.76 50.92 43.09 50.94 43.59 50.95 44.25 50.97 44.58 51 45.07 51.02 46.23 51.08 46.89 51.13 47.06 50.98 47.22 50.98 47.39 50.95 47.55 50.95 47.72 50.95 48.05 50.96 48.21 50.97 48.38 50.97 48.54 50.91 48.71 50.92 48.87 50.92 49.04 50.92 49.37 50.86 49.53 50.88 49.7 50.89 50.36 50.95 50.52 50.95 50.69 50.93 51.02 50.95 51.35 50.98 51.51 50.98 52.01 50.99 52.83 50.99 53.66 51 54.48 51.07 54.65 51.07 54.81 51.07 54.98 50.55 55.14 50.63 55.47 50.57 55.8 50.57 56.46 50.58 56.63 50.59 56.8 50.59 56.96 50.59 57.13 50.61 57.29 50.68 57.46 50.62 59.44 50.58 59.77 50.5 59.93 50.53 60.26 50.53 60.92 50.53 61.25 50.54 61.58 50.57 62.24 50.58 62.57 50.6 62.74 50.62 63.07 50.66 63.23 50.66 63.4 50.67 63.56 50.68 63.73 50.68 63.89 50.69 64.22 50.69 64.39 50.71 64.72 50.71 65.05 50.72 65.21 50.75 65.38 50.75 65.71 50.77 65.87 50.77 66.7 50.8 67.36 50.88 67.53 50.83 68.85 50.85 69.01 50.72 69.18 50.72 69.67 50.74 69.84 50.75 70 50.83 70.33 50.84 70.66 50.84 70.99 50.86 72.48 50.9"/>
      </g>
      <g stroke-width="0.3" fill="#000000" fill-opacity="0.000" class="geometry color_newtests_fail" stroke-dasharray="none" stroke="#FF0000" id="fig-134cc70d3cb04e69b25f53c6dbd2d79d-element-15">
        <path fill="none" d="M21.63,52.48 L 21.8 52.39 21.96 52.72 22.13 50.33 22.29 50.33 22.46 50.33 22.79 52.64 22.95 52.75 23.12 52.65 23.28 52.86 23.45 52.97 23.61 52.88 23.78 52.89 23.94 53 24.27 52.26 24.44 52.07 24.77 51.98 24.93 51.98 25.1 52.09 25.76 52.09 26.25 52.34 26.42 52.34 26.58 52.35 26.75 52.47 26.91 52.57 27.08 52.87 27.24 52.91 27.41 52.91 27.57 52.91 27.9 52.72 28.07 52.62 28.24 52.73 28.4 52.73 28.57 52.83 28.73 52.63 28.9 52.43 29.23 53.12 29.39 50.05 29.56 49.95 29.72 51.85 29.89 51.87 30.05 51.97 30.22 51.97 30.38 51.98 30.88 50.14 31.04 51.61 31.21 51.91 31.37 52.02 31.54 52.11 31.7 51.92 31.87 52.13 32.03 52.13 32.2 51.94 32.36 51.85 32.53 51.56 32.69 51.76 32.86 52.04 33.02 52.06 33.19 52.07 33.35 44.58 33.52 44.58 33.68 44.6 33.85 45.64 34.01 45.67 34.18 51.8 34.34 51.91 34.51 52.01 34.67 52.01 34.84 52.02 35 52.02 35.17 52.02 35.33 52.02 35.5 52.12 35.66 52.03 36.16 52.31 36.98 52.25 37.15 52.26 37.31 52.26 37.48 52.27 37.65 52.27 37.81 52.2 37.98 52.2 38.64 52.23 38.8 52.14 39.63 52.32 39.96 52.41 40.12 51.89 40.29 52.34 40.45 52.25 40.62 52.34 40.78 52.35 40.95 52.36 41.44 52.63 41.61 52.64 41.94 51.7 42.1 51.7 42.27 51.7 42.76 51.7 43.09 51.71 43.59 52.76 44.25 52.77 44.58 52.7 45.07 52.8 46.23 52.66 46.89 52.53 47.06 52.7 47.22 52.7 47.39 52.49 47.55 52 47.72 52 48.05 52.01 48.21 52.01 48.38 52.01 48.54 52.03 48.71 52.04 48.87 52.04 49.04 52.04 49.37 52.05 49.53 51.99 49.7 52 50.36 51.65 50.52 51.65 50.69 51.63 51.02 51.58 51.35 46.58 51.51 51.59 52.01 51.38 52.83 51.38 53.66 51.31 54.48 49.48 54.65 50.16 54.81 50.76 54.98 51.61 55.14 51.83 55.47 51.84 55.8 51.39 56.46 51.48 56.63 51.49 56.8 51.41 56.96 51.41 57.13 43.78 57.29 41.75 57.46 42.91 59.44 49.84 59.77 50.06 59.93 51.4 60.26 51.48 60.92 51.48 61.25 51.49 61.58 51.58 62.24 51.52 62.57 39.87 62.74 43.39 63.07 45.76 63.23 45.76 63.4 45.78 63.56 45.46 63.73 45.53 63.89 45.9 64.22 46.05 64.39 45.94 64.72 41.25 65.05 41.5 65.21 42.89 65.38 42.91 65.71 43.51 65.87 44.29 66.7 44.63 67.36 45.01 67.53 44.98 68.85 45.91 69.01 45.97 69.18 46.04 69.67 45.97 69.84 45.98 70 46.01 70.33 46.24 70.66 46.11 70.99 46.2 72.48 46.04"/>
      </g>
      <g stroke-width="0.3" fill="#000000" fill-opacity="0.000" class="geometry color_newno_tests" stroke-dasharray="none" stroke="#0000FF" id="fig-134cc70d3cb04e69b25f53c6dbd2d79d-element-16">
        <path fill="none" d="M21.63,49.6 L 21.8 49.53 21.96 49.55 22.13 50.22 22.29 50.22 22.46 50.22 22.79 49.71 22.95 49.71 23.12 49.84 23.28 49.84 23.45 49.84 23.61 49.88 23.78 49.9 23.94 50.01 24.27 50.35 24.44 50.5 24.77 50.52 24.93 50.52 25.1 50.52 25.76 50.52 26.25 50.48 26.42 50.49 26.58 50.4 26.75 50.43 26.91 50.43 27.08 50.43 27.24 50.51 27.41 50.61 27.57 50.61 27.9 50.53 28.07 50.63 28.24 50.54 28.4 50.54 28.57 50.54 28.73 50.55 28.9 50.75 29.23 50.54 29.39 50.84 29.56 50.84 29.72 50.57 29.89 50.59 30.05 50.59 30.22 50.59 30.38 50.61 30.88 51.02 31.04 50.73 31.21 50.65 31.37 50.66 31.54 50.66 31.7 50.66 31.87 50.68 32.03 50.68 32.2 50.69 32.36 50.7 32.53 50.7 32.69 50.7 32.86 50.7 33.02 50.72 33.19 50.74 33.35 51.31 33.52 51.31 33.68 51.32 33.85 51.13 34.01 51.14 34.18 50.76 34.34 50.78 34.51 50.79 34.67 50.79 34.84 50.8 35 50.8 35.17 50.8 35.33 50.8 35.5 50.81 35.66 50.82 36.16 50.82 36.98 50.88 37.15 50.89 37.31 50.89 37.48 50.9 37.65 50.9 37.81 50.93 37.98 50.93 38.64 50.97 38.8 50.97 39.63 50.98 39.96 50.98 40.12 51 40.29 51.01 40.45 51.1 40.62 51.01 40.78 51.03 40.95 51.04 41.44 51.05 41.61 51.06 41.94 51.09 42.1 51.09 42.27 51.09 42.76 51.09 43.09 51.11 43.59 51.04 44.25 51.14 44.58 51.09 45.07 51.1 46.23 51.16 46.89 51.21 47.06 51.23 47.22 51.23 47.39 51.27 47.55 51.27 47.72 51.27 48.05 51.28 48.21 51.29 48.38 51.29 48.54 51.31 48.71 51.32 48.87 51.32 49.04 51.32 49.37 51.34 49.53 51.36 49.7 51.37 50.36 51.5 50.52 51.5 50.69 51.48 51.02 51.5 51.35 51.67 51.51 51.44 52.01 51.45 52.83 51.45 53.66 51.46 54.48 51.75 54.65 51.67 54.81 51.67 54.98 51.68 55.14 51.61 55.47 51.62 55.8 51.69 56.46 51.7 56.63 51.71 56.8 51.79 56.96 51.79 57.13 52.61 57.29 52.68 57.46 52.69 59.44 51.83 59.77 51.83 59.93 51.84 60.26 51.84 60.92 51.85 61.25 51.85 61.58 51.87 62.24 51.95 62.57 52.54 62.74 52.41 63.07 52.36 63.23 52.29 63.4 52.37 63.56 52.37 63.73 52.37 63.89 52.38 64.22 52.38 64.39 52.46 64.72 52.67 65.05 52.54 65.21 52.48 65.38 52.49 65.71 52.5 65.87 52.43 66.7 52.45 67.36 52.39 67.53 52.4 68.85 52.34 69.01 52.34 69.18 52.34 69.67 52.36 69.84 52.36 70 52.37 70.33 52.38 70.66 52.38 70.99 52.39 72.48 52.42"/>
      </g>
      <g stroke-width="0.3" fill="#000000" fill-opacity="0.000" class="geometry color_oldfull_fail" stroke-dasharray="none" stroke="#FFA500" id="fig-134cc70d3cb04e69b25f53c6dbd2d79d-element-17">
        <path fill="none" d="M21.63,51.37 L 21.8 51.4 21.96 50.42 22.13 50.33 22.29 50.22 22.46 50.22 22.79 50.26 22.95 50.36 23.12 50.59 23.28 50.27 23.45 50.16 23.61 50.41 23.78 50.54 23.94 50.22 24.27 49.82 24.44 50.5 24.77 50.41 24.93 50.41 25.1 50.41 25.76 50.41 26.25 50.17 26.42 50.29 26.58 50.4 26.75 50.22 26.91 50.32 27.08 50.53 27.24 50.21 27.41 50.01 27.57 50.01 27.9 50.43 28.07 50.33 28.24 50.34 28.4 50.54 28.57 50.44 28.73 50.05 28.9 50.15 29.23 50.64 29.39 49.55 29.56 49.26 29.72 49.78 29.89 49.9 30.05 49.9 30.22 49.9 30.38 49.83 30.88 48 31.04 49.07 31.21 50.17 31.37 50.08 31.54 49.79 31.7 50.08 31.87 50.2 32.03 50.2 32.2 50.02 32.36 49.94 32.53 50.32 32.69 50.32 32.86 50.22 33.02 50.15 33.19 50.17 33.35 51.22 33.52 51.12 33.68 51.13 33.85 51.04 34.01 50.86 34.18 48.4 34.34 49.09 34.51 49.48 34.67 49.01 34.84 49.02 35 48.93 35.17 48.93 35.33 48.93 35.5 49.13 35.66 49.42 36.16 49.42 36.98 49.31 37.15 49.16 37.31 49.16 37.48 49.26 37.65 49.35 37.81 49.48 37.98 49.3 38.64 48.56 38.8 48.65 39.63 48.12 39.96 48.39 40.12 48.6 40.29 48.7 40.45 48.7 40.62 48.88 40.78 48.82 40.95 48.76 41.44 48.24 41.61 48.34 41.94 48.31 42.1 47.97 42.27 48.23 42.76 48.4 43.09 48.6 43.59 48.37 44.25 48.48 44.58 48.96 45.07 48.65 46.23 48.41 46.89 48.75 47.06 48.77 47.22 48.77 47.39 48.6 47.55 48.36 47.72 48.44 48.05 48.62 48.21 48.55 48.38 48.55 48.54 48.26 48.71 48.36 48.87 48.28 49.04 48.28 49.37 48.4 49.53 48.28 49.7 48.05 50.36 47.93 50.52 47.77 50.69 47.89 51.02 48 51.35 49.74 51.51 47.27 52.01 46.92 52.83 46.92 53.66 47.01 54.48 47.52 54.65 47.37 54.81 47.22 54.98 47.25 55.14 47.47 55.47 47.27 55.8 46.15 56.46 45.49 56.63 45.6 56.8 45.38 56.96 45.53 57.13 48.09 57.29 48.89 57.46 48.25 59.44 46.53 59.77 46.46 59.93 45.84 60.26 46.28 60.92 46.81 61.25 46.9 61.58 46.8 62.24 47.11 62.57 49.23 62.74 48.69 63.07 47.61 63.23 47.54 63.4 47.27 63.56 45.95 63.73 46.37 63.89 46.67 64.22 46.76 64.39 46.85 64.72 48.54 65.05 48.56 65.21 48.17 65.38 48.12 65.71 48.35 65.87 47.81 66.7 47.92 67.36 48.15 67.53 48.18 68.85 48.41 69.01 48.41 69.18 48.62 69.67 48.32 69.84 48.26 70 48.35 70.33 48.18 70.66 47.91 70.99 47.67 72.48 47.55"/>
      </g>
      <g stroke-width="0.3" fill="#000000" fill-opacity="0.000" class="geometry color_newtests_pass" stroke-dasharray="none" stroke="#008000" id="fig-134cc70d3cb04e69b25f53c6dbd2d79d-element-18">
        <path fill="none" d="M21.63,30.11 L 21.8 30.32 21.96 31.04 22.13 32.85 22.29 32.96 22.46 32.96 22.79 31.08 22.95 30.86 23.12 30.6 23.28 30.71 23.45 30.71 23.61 30.48 23.78 30.29 23.94 30.39 24.27 31.16 24.44 30.61 24.77 30.73 24.93 30.73 25.1 30.73 25.76 30.73 26.25 30.69 26.42 30.55 26.58 30.51 26.75 30.53 26.91 30.32 27.08 29.81 27.24 29.91 27.41 30.01 27.57 30.01 27.9 29.97 28.07 30.07 28.24 30.04 28.4 29.84 28.57 29.84 28.73 30.4 28.9 30.4 29.23 29.44 29.39 33.27 29.56 33.67 29.72 31.5 29.89 31.42 30.05 31.32 30.22 31.32 30.38 31.34 30.88 34.57 31.04 32.43 31.21 31.08 31.37 31.04 31.54 31.24 31.7 31.14 31.87 30.77 32.03 30.77 32.2 31.12 32.36 31.27 32.53 31.27 32.69 31.08 32.86 30.89 33.02 30.9 33.19 30.83 33.35 36.71 33.52 36.8 33.68 36.75 33.85 35.99 34.01 36.13 34.18 32.83 34.34 31.99 34.51 31.48 34.67 31.95 34.84 31.91 35 32 35.17 32 35.33 32 35.5 31.68 35.66 31.46 36.16 31.18 36.98 31.23 37.15 31.34 37.31 31.34 37.48 31.21 37.65 31.12 37.81 31 37.98 31.19 38.64 31.81 38.8 31.81 39.63 32.13 39.96 31.77 40.12 31.96 40.29 31.39 40.45 31.39 40.62 31.21 40.78 31.23 40.95 31.24 41.44 31.47 41.61 31.35 41.94 32.24 42.1 32.59 42.27 32.33 42.76 32.16 43.09 31.91 43.59 31.15 44.25 30.9 44.58 30.51 45.07 30.7 46.23 30.97 46.89 30.65 47.06 30.59 47.22 30.59 47.39 30.96 47.55 31.69 47.72 31.61 48.05 31.41 48.21 31.46 48.38 31.46 48.54 31.76 48.71 31.64 48.87 31.72 49.04 31.72 49.37 31.62 49.53 31.76 49.7 31.96 50.36 32.24 50.52 32.39 50.69 32.34 51.02 32.24 51.35 35.3 51.51 32.99 52.01 33.53 52.83 33.53 53.66 33.5 54.48 34.46 54.65 34.01 54.81 33.56 54.98 33.18 55.14 32.73 55.47 32.97 55.8 34.46 56.46 35.03 56.63 34.88 56.8 35.1 56.96 34.95 57.13 39.18 57.29 40.27 57.46 39.8 59.44 35.5 59.77 35.43 59.93 34.65 60.26 34.14 60.92 33.6 61.25 33.49 61.58 33.46 62.24 33.1 62.57 42.03 62.74 39.17 63.07 37.89 63.23 38.03 63.4 38.2 63.56 39.81 63.73 39.32 63.89 38.64 64.22 38.39 64.39 38.3 64.72 41.11 65.05 40.95 65.21 39.97 65.38 40 65.71 39.15 65.87 38.97 66.7 38.46 67.36 37.84 67.53 37.9 68.85 36.76 69.01 36.83 69.18 36.56 69.67 36.88 69.84 36.91 70 36.7 70.33 36.63 70.66 37.03 70.99 37.16 72.48 37.36"/>
      </g>
    </g>
  </g>
  <g class="guide ylabels" font-size="2.82" font-family="'PT Sans Caption','Helvetica Neue','Helvetica',sans-serif" fill="#6C606B" id="fig-134cc70d3cb04e69b25f53c6dbd2d79d-element-19">
    <text x="18.63" y="54.91" text-anchor="end" dy="0.35em">0</text>
    <text x="18.63" y="34.76" text-anchor="end" dy="0.35em">50</text>
    <text x="18.63" y="14.61" text-anchor="end" dy="0.35em">100</text>
  </g>
  <g font-size="3.88" font-family="'PT Sans','Helvetica Neue','Helvetica',sans-serif" fill="#564A55" stroke="#000000" stroke-opacity="0.000" id="fig-134cc70d3cb04e69b25f53c6dbd2d79d-element-20">
    <text x="8.81" y="32.76" text-anchor="middle" dy="0.35em" transform="rotate(-90, 8.81, 34.76)">Percentage of Packages</text>
  </g>
  <g font-size="3.88" font-family="'PT Sans','Helvetica Neue','Helvetica',sans-serif" fill="#564A55" stroke="#000000" stroke-opacity="0.000" id="fig-134cc70d3cb04e69b25f53c6dbd2d79d-element-21">
    <text x="58.12" y="10.61" text-anchor="middle">Julia v0.4 (relative)</text>
  </g>
</g>
<defs>
<clipPath id="fig-134cc70d3cb04e69b25f53c6dbd2d79d-element-5">
  <path d="M19.63,12.61 L 96.6 12.61 96.6 56.91 19.63 56.91" />
</clipPath
></defs>
</svg>
