<?xml version="1.0" encoding="UTF-8"?>
<svg xmlns="http://www.w3.org/2000/svg"
     xmlns:xlink="http://www.w3.org/1999/xlink"
     xmlns:gadfly="http://www.gadflyjl.org/ns"
     version="1.2"
     width="101.6mm" height="76.2mm" viewBox="0 0 101.6 76.2"
     stroke="none"
     fill="#000000"
     stroke-width="0.3"
     font-size="3.88"
>
<g class="plotroot xscalable yscalable" id="fig-55906ddad705429c9babce0cc0156cb5-element-1">
  <g font-size="3.88" font-family="'PT Sans','Helvetica Neue','Helvetica',sans-serif" fill="#564A55" stroke="#000000" stroke-opacity="0.000" id="fig-55906ddad705429c9babce0cc0156cb5-element-2">
    <text x="58.12" y="64.59" text-anchor="middle" dy="0.6em">Date</text>
  </g>
  <g class="guide xlabels" font-size="2.82" font-family="'PT Sans Caption','Helvetica Neue','Helvetica',sans-serif" fill="#6C606B" id="fig-55906ddad705429c9babce0cc0156cb5-element-3">
    <text x="24.91" y="57.91" text-anchor="middle" dy="0.6em">Sep</text>
    <text x="30.08" y="57.91" text-anchor="middle" dy="0.6em">Oct</text>
    <text x="35.43" y="57.91" text-anchor="middle" dy="0.6em">Nov</text>
    <text x="40.61" y="57.91" text-anchor="middle" dy="0.6em">Dec</text>
    <text x="45.95" y="57.91" text-anchor="middle" dy="0.6em">Jan 2015</text>
    <text x="51.3" y="57.91" text-anchor="middle" dy="0.6em">Feb</text>
    <text x="56.13" y="57.91" text-anchor="middle" dy="0.6em">Mar</text>
    <text x="61.48" y="57.91" text-anchor="middle" dy="0.6em">Apr</text>
    <text x="66.65" y="57.91" text-anchor="middle" dy="0.6em">May</text>
    <text x="72" y="57.91" text-anchor="middle" dy="0.6em">Jun</text>
    <text x="77.18" y="57.91" text-anchor="middle" dy="0.6em">Jul</text>
    <text x="82.52" y="57.91" text-anchor="middle" dy="0.6em">Aug</text>
    <text x="87.87" y="57.91" text-anchor="middle" dy="0.6em">Sep</text>
    <text x="93.05" y="57.91" text-anchor="middle" dy="0.6em">Oct</text>
  </g>
  <g clip-path="url(#fig-55906ddad705429c9babce0cc0156cb5-element-5)" id="fig-55906ddad705429c9babce0cc0156cb5-element-4">
    <g pointer-events="visible" opacity="1" fill="#000000" fill-opacity="0.000" stroke="#000000" stroke-opacity="0.000" class="guide background" id="fig-55906ddad705429c9babce0cc0156cb5-element-6">
      <rect x="19.63" y="12.61" width="76.97" height="44.3"/>
    </g>
    <g class="guide ygridlines xfixed" stroke-dasharray="0.5,0.5" stroke-width="0.2" stroke="#D0D0E0" id="fig-55906ddad705429c9babce0cc0156cb5-element-7">
      <path fill="none" d="M19.63,54.91 L 96.6 54.91"/>
      <path fill="none" d="M19.63,34.76 L 96.6 34.76"/>
      <path fill="none" d="M19.63,14.61 L 96.6 14.61"/>
    </g>
    <g class="guide xgridlines yfixed" stroke-dasharray="0.5,0.5" stroke-width="0.2" stroke="#D0D0E0" id="fig-55906ddad705429c9babce0cc0156cb5-element-8">
      <path fill="none" d="M24.91,12.61 L 24.91 56.91"/>
      <path fill="none" d="M30.08,12.61 L 30.08 56.91"/>
      <path fill="none" d="M35.43,12.61 L 35.43 56.91"/>
      <path fill="none" d="M40.61,12.61 L 40.61 56.91"/>
      <path fill="none" d="M45.95,12.61 L 45.95 56.91"/>
      <path fill="none" d="M51.3,12.61 L 51.3 56.91"/>
      <path fill="none" d="M56.13,12.61 L 56.13 56.91"/>
      <path fill="none" d="M61.48,12.61 L 61.48 56.91"/>
      <path fill="none" d="M66.65,12.61 L 66.65 56.91"/>
      <path fill="none" d="M72,12.61 L 72 56.91"/>
      <path fill="none" d="M77.18,12.61 L 77.18 56.91"/>
      <path fill="none" d="M82.52,12.61 L 82.52 56.91"/>
      <path fill="none" d="M87.87,12.61 L 87.87 56.91"/>
      <path fill="none" d="M93.05,12.61 L 93.05 56.91"/>
    </g>
    <g class="plotpanel" id="fig-55906ddad705429c9babce0cc0156cb5-element-9">
      <g stroke-width="0.3" fill="#000000" fill-opacity="0.000" class="geometry color_newnot_possible" stroke-dasharray="none" stroke="#808080" id="fig-55906ddad705429c9babce0cc0156cb5-element-10">
        <path fill="none" d="M75.28,51.36 L 75.45 51.36 75.62 51.38 75.8 51.38 75.97 51.39 76.14 51.39 76.31 51.39 76.49 51.4 77 51.4 77.35 51.42 77.69 51.42 77.87 51.43 78.04 51.45 78.21 51.46 78.38 51.47 78.56 51.47 81.49 51.48 82.87 51.52 84.42 51.54 87.35 51.66 87.87 51.67 88.73 51.69 89.6 51.38 92.36 51.47 93.05 51.5 93.91 51.49 94.6 51.31"/>
      </g>
      <g stroke-width="0.3" fill="#000000" fill-opacity="0.000" class="geometry color_newno_tests" stroke-dasharray="none" stroke="#0000FF" id="fig-55906ddad705429c9babce0cc0156cb5-element-11">
        <path fill="none" d="M75.28,47.81 L 75.45 47.81 75.62 47.84 75.8 47.84 75.97 47.87 76.14 47.87 76.31 47.87 76.49 47.88 77 47.89 77.35 47.92 77.69 47.92 77.87 47.94 78.04 48.05 78.21 48.07 78.38 48.08 78.56 48.14 81.49 48.24 82.87 48.3 84.42 48.35 87.35 48.59 87.87 48.67 88.73 48.71 89.6 48.83 92.36 49.21 93.05 49.43 93.91 49.61 94.6 50.39"/>
      </g>
      <g stroke-width="0.3" fill="#000000" fill-opacity="0.000" class="geometry color_newtests_fail" stroke-dasharray="none" stroke="#FF0000" id="fig-55906ddad705429c9babce0cc0156cb5-element-12">
        <path fill="none" d="M75.28,41.5 L 75.45 41.96 75.62 41.87 75.8 40.56 75.97 40.57 76.14 40.76 76.31 40.76 76.49 41.83 77 41.26 77.35 41.31 77.69 42.02 77.87 42.19 78.04 40.8 78.21 42.12 78.38 41.18 78.56 41.63 81.49 42.44 82.87 42.18 84.42 42.83 87.35 43.04 87.87 43.37 88.73 43.73 89.6 44.65 92.36 44.75 93.05 45.18 93.91 45.46 94.6 45.7"/>
      </g>
      <g stroke-width="0.3" fill="#000000" fill-opacity="0.000" class="geometry color_newtests_pass" stroke-dasharray="none" stroke="#008000" id="fig-55906ddad705429c9babce0cc0156cb5-element-13">
        <path fill="none" d="M75.28,38.68 L 75.45 38.22 75.62 38.27 75.8 39.58 75.97 39.52 76.14 39.33 76.31 39.33 76.49 38.25 77 38.79 77.35 38.72 77.69 38 77.87 37.8 78.04 39.06 78.21 37.71 78.38 38.63 78.56 38.12 81.49 37.2 82.87 37.36 84.42 36.63 87.35 36.06 87.87 35.65 88.73 35.23 89.6 34.5 92.36 33.92 93.05 33.25 93.91 32.8 94.6 31.96"/>
      </g>
      <g stroke-width="0.3" fill="#000000" fill-opacity="0.000" class="geometry color_newnot_possible" stroke-dasharray="none" stroke="#808080" id="fig-55906ddad705429c9babce0cc0156cb5-element-14">
        <path fill="none" d="M21.63,50.71 L 21.8 50.63 21.98 50.53 22.15 50.55 22.32 50.55 22.49 50.55 22.84 50.58 23.01 50.58 23.18 50.59 23.36 50.59 23.53 50.59 23.7 50.63 23.87 50.65 24.05 50.65 24.39 50.67 24.56 50.6 24.91 50.62 25.08 50.62 25.25 50.52 25.94 50.52 26.46 50.59 26.63 50.6 26.81 50.61 26.98 50.63 27.15 50.63 27.32 50.63 27.5 50.71 27.67 50.71 27.84 50.71 28.19 50.63 28.36 50.63 28.53 50.64 28.7 50.64 28.88 50.64 29.05 50.65 29.22 50.55 29.57 50.54 29.74 50.55 29.91 50.55 30.08 50.57 30.26 50.49 30.43 50.49 30.6 50.49 30.77 50.51 31.29 50.53 31.46 50.44 31.64 50.46 31.81 50.47 31.98 50.47 32.15 50.47 32.33 50.49 32.5 50.49 32.67 50.5 32.84 50.51 33.02 50.42 33.19 50.42 33.36 50.42 33.53 50.44 33.71 50.46 33.88 50.46 34.05 50.46 34.22 50.47 34.4 50.47 34.57 50.48 34.74 50.48 34.91 50.5 35.09 50.51 35.26 50.51 35.43 50.52 35.6 50.52 35.78 50.52 35.95 50.52 36.12 50.53 36.29 50.54 36.81 50.54 37.67 50.6 37.85 50.62 38.02 50.62 38.19 50.63 38.36 50.63 38.54 50.66 38.71 50.66 39.4 50.71 39.57 50.71 40.43 50.71 40.78 50.71 40.95 50.82 41.12 50.83 41.3 50.83 41.47 50.83 41.64 50.85 41.81 50.87 42.33 50.88 42.5 50.88 42.85 50.92 43.02 50.92 43.19 50.92 43.71 50.92 44.06 50.94 44.57 50.95 45.26 50.97 45.61 51 46.13 51.02 47.33 51.08 48.02 51.13 48.2 50.98 48.37 50.98 48.54 50.95 48.71 50.95 48.89 50.95 49.23 50.96 49.4 50.97 49.58 50.97 49.75 50.91 49.92 50.92 50.09 50.92 50.27 50.92 50.61 50.86 50.78 50.88 50.96 50.89 51.65 50.95 51.82 50.95 51.99 50.93 52.34 50.95 52.68 50.98 52.85 50.98 53.37 50.99 54.23 50.99 55.1 51 55.96 51.07 56.13 51.07 56.3 51.07 56.48 50.55 56.65 50.63 56.99 50.57 57.34 50.57 58.03 50.58 58.2 50.59 58.37 50.59 58.55 50.59 58.72 50.61 58.89 50.68 59.06 50.62 61.13 50.58 61.48 50.5 61.65 50.53 62 50.53 62.69 50.53 63.03 50.54 63.38 50.57 64.07 50.58 64.41 50.6 64.58 50.62 64.93 50.66 65.1 50.66 65.27 50.67 65.45 50.68 65.62 50.68 65.79 50.69 66.14 50.69 66.31 50.71 66.65 50.71 67 50.72 67.17 50.75 67.34 50.75 67.69 50.77 67.86 50.77 68.72 50.8 69.41 50.88 69.59 50.83 70.97 50.85 71.14 50.72 71.31 50.72 71.83 50.74 72 50.75 72.17 50.83 72.52 50.84 72.86 50.84 73.21 50.86 74.76 50.9"/>
      </g>
      <g stroke-width="0.3" fill="#000000" fill-opacity="0.000" class="geometry color_newtests_fail" stroke-dasharray="none" stroke="#FF0000" id="fig-55906ddad705429c9babce0cc0156cb5-element-15">
        <path fill="none" d="M21.63,52.48 L 21.8 52.39 21.98 52.72 22.15 50.33 22.32 50.33 22.49 50.33 22.84 52.64 23.01 52.75 23.18 52.65 23.36 52.86 23.53 52.97 23.7 52.88 23.87 52.89 24.05 53 24.39 52.26 24.56 52.07 24.91 51.98 25.08 51.98 25.25 52.09 25.94 52.09 26.46 52.34 26.63 52.34 26.81 52.35 26.98 52.47 27.15 52.57 27.32 52.87 27.5 52.91 27.67 52.91 27.84 52.91 28.19 52.72 28.36 52.62 28.53 52.73 28.7 52.73 28.88 52.83 29.05 52.63 29.22 52.43 29.57 53.12 29.74 50.05 29.91 49.95 30.08 51.85 30.26 51.87 30.43 51.97 30.6 51.97 30.77 51.98 31.29 50.14 31.46 51.61 31.64 51.91 31.81 52.02 31.98 52.11 32.15 51.92 32.33 52.13 32.5 52.13 32.67 51.94 32.84 51.85 33.02 51.56 33.19 51.76 33.36 52.04 33.53 52.06 33.71 52.07 33.88 44.58 34.05 44.58 34.22 44.6 34.4 45.64 34.57 45.67 34.74 51.8 34.91 51.91 35.09 52.01 35.26 52.01 35.43 52.02 35.6 52.02 35.78 52.02 35.95 52.02 36.12 52.12 36.29 52.03 36.81 52.31 37.67 52.25 37.85 52.26 38.02 52.26 38.19 52.27 38.36 52.27 38.54 52.2 38.71 52.2 39.4 52.23 39.57 52.14 40.43 52.32 40.78 52.41 40.95 51.89 41.12 52.34 41.3 52.25 41.47 52.34 41.64 52.35 41.81 52.36 42.33 52.63 42.5 52.64 42.85 51.7 43.02 51.7 43.19 51.7 43.71 51.7 44.06 51.71 44.57 52.76 45.26 52.77 45.61 52.7 46.13 52.8 47.33 52.66 48.02 52.53 48.2 52.7 48.37 52.7 48.54 52.49 48.71 52 48.89 52 49.23 52.01 49.4 52.01 49.58 52.01 49.75 52.03 49.92 52.04 50.09 52.04 50.27 52.04 50.61 52.05 50.78 51.99 50.96 52 51.65 51.65 51.82 51.65 51.99 51.63 52.34 51.58 52.68 46.58 52.85 51.59 53.37 51.38 54.23 51.38 55.1 51.31 55.96 49.48 56.13 50.16 56.3 50.76 56.48 51.61 56.65 51.83 56.99 51.84 57.34 51.39 58.03 51.48 58.2 51.49 58.37 51.41 58.55 51.41 58.72 43.78 58.89 41.75 59.06 42.91 61.13 49.84 61.48 50.06 61.65 51.4 62 51.48 62.69 51.48 63.03 51.49 63.38 51.58 64.07 51.52 64.41 39.87 64.58 43.39 64.93 45.76 65.1 45.76 65.27 45.78 65.45 45.46 65.62 45.53 65.79 45.9 66.14 46.05 66.31 45.94 66.65 41.25 67 41.5 67.17 42.89 67.34 42.91 67.69 43.51 67.86 44.29 68.72 44.63 69.41 45.01 69.59 44.98 70.97 45.91 71.14 45.97 71.31 46.04 71.83 45.97 72 45.98 72.17 46.01 72.52 46.24 72.86 46.11 73.21 46.2 74.76 46.04"/>
      </g>
      <g stroke-width="0.3" fill="#000000" fill-opacity="0.000" class="geometry color_newno_tests" stroke-dasharray="none" stroke="#0000FF" id="fig-55906ddad705429c9babce0cc0156cb5-element-16">
        <path fill="none" d="M21.63,49.6 L 21.8 49.53 21.98 49.55 22.15 50.22 22.32 50.22 22.49 50.22 22.84 49.71 23.01 49.71 23.18 49.84 23.36 49.84 23.53 49.84 23.7 49.88 23.87 49.9 24.05 50.01 24.39 50.35 24.56 50.5 24.91 50.52 25.08 50.52 25.25 50.52 25.94 50.52 26.46 50.48 26.63 50.49 26.81 50.4 26.98 50.43 27.15 50.43 27.32 50.43 27.5 50.51 27.67 50.61 27.84 50.61 28.19 50.53 28.36 50.63 28.53 50.54 28.7 50.54 28.88 50.54 29.05 50.55 29.22 50.75 29.57 50.54 29.74 50.84 29.91 50.84 30.08 50.57 30.26 50.59 30.43 50.59 30.6 50.59 30.77 50.61 31.29 51.02 31.46 50.73 31.64 50.65 31.81 50.66 31.98 50.66 32.15 50.66 32.33 50.68 32.5 50.68 32.67 50.69 32.84 50.7 33.02 50.7 33.19 50.7 33.36 50.7 33.53 50.72 33.71 50.74 33.88 51.31 34.05 51.31 34.22 51.32 34.4 51.13 34.57 51.14 34.74 50.76 34.91 50.78 35.09 50.79 35.26 50.79 35.43 50.8 35.6 50.8 35.78 50.8 35.95 50.8 36.12 50.81 36.29 50.82 36.81 50.82 37.67 50.88 37.85 50.89 38.02 50.89 38.19 50.9 38.36 50.9 38.54 50.93 38.71 50.93 39.4 50.97 39.57 50.97 40.43 50.98 40.78 50.98 40.95 51 41.12 51.01 41.3 51.1 41.47 51.01 41.64 51.03 41.81 51.04 42.33 51.05 42.5 51.06 42.85 51.09 43.02 51.09 43.19 51.09 43.71 51.09 44.06 51.11 44.57 51.04 45.26 51.14 45.61 51.09 46.13 51.1 47.33 51.16 48.02 51.21 48.2 51.23 48.37 51.23 48.54 51.27 48.71 51.27 48.89 51.27 49.23 51.28 49.4 51.29 49.58 51.29 49.75 51.31 49.92 51.32 50.09 51.32 50.27 51.32 50.61 51.34 50.78 51.36 50.96 51.37 51.65 51.5 51.82 51.5 51.99 51.48 52.34 51.5 52.68 51.67 52.85 51.44 53.37 51.45 54.23 51.45 55.1 51.46 55.96 51.75 56.13 51.67 56.3 51.67 56.48 51.68 56.65 51.61 56.99 51.62 57.34 51.69 58.03 51.7 58.2 51.71 58.37 51.79 58.55 51.79 58.72 52.61 58.89 52.68 59.06 52.69 61.13 51.83 61.48 51.83 61.65 51.84 62 51.84 62.69 51.85 63.03 51.85 63.38 51.87 64.07 51.95 64.41 52.54 64.58 52.41 64.93 52.36 65.1 52.29 65.27 52.37 65.45 52.37 65.62 52.37 65.79 52.38 66.14 52.38 66.31 52.46 66.65 52.67 67 52.54 67.17 52.48 67.34 52.49 67.69 52.5 67.86 52.43 68.72 52.45 69.41 52.39 69.59 52.4 70.97 52.34 71.14 52.34 71.31 52.34 71.83 52.36 72 52.36 72.17 52.37 72.52 52.38 72.86 52.38 73.21 52.39 74.76 52.42"/>
      </g>
      <g stroke-width="0.3" fill="#000000" fill-opacity="0.000" class="geometry color_oldfull_fail" stroke-dasharray="none" stroke="#FFA500" id="fig-55906ddad705429c9babce0cc0156cb5-element-17">
        <path fill="none" d="M21.63,51.37 L 21.8 51.4 21.98 50.42 22.15 50.33 22.32 50.22 22.49 50.22 22.84 50.26 23.01 50.36 23.18 50.59 23.36 50.27 23.53 50.16 23.7 50.41 23.87 50.54 24.05 50.22 24.39 49.82 24.56 50.5 24.91 50.41 25.08 50.41 25.25 50.41 25.94 50.41 26.46 50.17 26.63 50.29 26.81 50.4 26.98 50.22 27.15 50.32 27.32 50.53 27.5 50.21 27.67 50.01 27.84 50.01 28.19 50.43 28.36 50.33 28.53 50.34 28.7 50.54 28.88 50.44 29.05 50.05 29.22 50.15 29.57 50.64 29.74 49.55 29.91 49.26 30.08 49.78 30.26 49.9 30.43 49.9 30.6 49.9 30.77 49.83 31.29 48 31.46 49.07 31.64 50.17 31.81 50.08 31.98 49.79 32.15 50.08 32.33 50.2 32.5 50.2 32.67 50.02 32.84 49.94 33.02 50.32 33.19 50.32 33.36 50.22 33.53 50.15 33.71 50.17 33.88 51.22 34.05 51.12 34.22 51.13 34.4 51.04 34.57 50.86 34.74 48.4 34.91 49.09 35.09 49.48 35.26 49.01 35.43 49.02 35.6 48.93 35.78 48.93 35.95 48.93 36.12 49.13 36.29 49.42 36.81 49.42 37.67 49.31 37.85 49.16 38.02 49.16 38.19 49.26 38.36 49.35 38.54 49.48 38.71 49.3 39.4 48.56 39.57 48.65 40.43 48.12 40.78 48.39 40.95 48.6 41.12 48.7 41.3 48.7 41.47 48.88 41.64 48.82 41.81 48.76 42.33 48.24 42.5 48.34 42.85 48.31 43.02 47.97 43.19 48.23 43.71 48.4 44.06 48.6 44.57 48.37 45.26 48.48 45.61 48.96 46.13 48.65 47.33 48.41 48.02 48.75 48.2 48.77 48.37 48.77 48.54 48.6 48.71 48.36 48.89 48.44 49.23 48.62 49.4 48.55 49.58 48.55 49.75 48.26 49.92 48.36 50.09 48.28 50.27 48.28 50.61 48.4 50.78 48.28 50.96 48.05 51.65 47.93 51.82 47.77 51.99 47.89 52.34 48 52.68 49.74 52.85 47.27 53.37 46.92 54.23 46.92 55.1 47.01 55.96 47.52 56.13 47.37 56.3 47.22 56.48 47.25 56.65 47.47 56.99 47.27 57.34 46.15 58.03 45.49 58.2 45.6 58.37 45.38 58.55 45.53 58.72 48.09 58.89 48.89 59.06 48.25 61.13 46.53 61.48 46.46 61.65 45.84 62 46.28 62.69 46.81 63.03 46.9 63.38 46.8 64.07 47.11 64.41 49.23 64.58 48.69 64.93 47.61 65.1 47.54 65.27 47.27 65.45 45.95 65.62 46.37 65.79 46.67 66.14 46.76 66.31 46.85 66.65 48.54 67 48.56 67.17 48.17 67.34 48.12 67.69 48.35 67.86 47.81 68.72 47.92 69.41 48.15 69.59 48.18 70.97 48.41 71.14 48.41 71.31 48.62 71.83 48.32 72 48.26 72.17 48.35 72.52 48.18 72.86 47.91 73.21 47.67 74.76 47.55"/>
      </g>
      <g stroke-width="0.3" fill="#000000" fill-opacity="0.000" class="geometry color_newtests_pass" stroke-dasharray="none" stroke="#008000" id="fig-55906ddad705429c9babce0cc0156cb5-element-18">
        <path fill="none" d="M21.63,30.11 L 21.8 30.32 21.98 31.04 22.15 32.85 22.32 32.96 22.49 32.96 22.84 31.08 23.01 30.86 23.18 30.6 23.36 30.71 23.53 30.71 23.7 30.48 23.87 30.29 24.05 30.39 24.39 31.16 24.56 30.61 24.91 30.73 25.08 30.73 25.25 30.73 25.94 30.73 26.46 30.69 26.63 30.55 26.81 30.51 26.98 30.53 27.15 30.32 27.32 29.81 27.5 29.91 27.67 30.01 27.84 30.01 28.19 29.97 28.36 30.07 28.53 30.04 28.7 29.84 28.88 29.84 29.05 30.4 29.22 30.4 29.57 29.44 29.74 33.27 29.91 33.67 30.08 31.5 30.26 31.42 30.43 31.32 30.6 31.32 30.77 31.34 31.29 34.57 31.46 32.43 31.64 31.08 31.81 31.04 31.98 31.24 32.15 31.14 32.33 30.77 32.5 30.77 32.67 31.12 32.84 31.27 33.02 31.27 33.19 31.08 33.36 30.89 33.53 30.9 33.71 30.83 33.88 36.71 34.05 36.8 34.22 36.75 34.4 35.99 34.57 36.13 34.74 32.83 34.91 31.99 35.09 31.48 35.26 31.95 35.43 31.91 35.6 32 35.78 32 35.95 32 36.12 31.68 36.29 31.46 36.81 31.18 37.67 31.23 37.85 31.34 38.02 31.34 38.19 31.21 38.36 31.12 38.54 31 38.71 31.19 39.4 31.81 39.57 31.81 40.43 32.13 40.78 31.77 40.95 31.96 41.12 31.39 41.3 31.39 41.47 31.21 41.64 31.23 41.81 31.24 42.33 31.47 42.5 31.35 42.85 32.24 43.02 32.59 43.19 32.33 43.71 32.16 44.06 31.91 44.57 31.15 45.26 30.9 45.61 30.51 46.13 30.7 47.33 30.97 48.02 30.65 48.2 30.59 48.37 30.59 48.54 30.96 48.71 31.69 48.89 31.61 49.23 31.41 49.4 31.46 49.58 31.46 49.75 31.76 49.92 31.64 50.09 31.72 50.27 31.72 50.61 31.62 50.78 31.76 50.96 31.96 51.65 32.24 51.82 32.39 51.99 32.34 52.34 32.24 52.68 35.3 52.85 32.99 53.37 33.53 54.23 33.53 55.1 33.5 55.96 34.46 56.13 34.01 56.3 33.56 56.48 33.18 56.65 32.73 56.99 32.97 57.34 34.46 58.03 35.03 58.2 34.88 58.37 35.1 58.55 34.95 58.72 39.18 58.89 40.27 59.06 39.8 61.13 35.5 61.48 35.43 61.65 34.65 62 34.14 62.69 33.6 63.03 33.49 63.38 33.46 64.07 33.1 64.41 42.03 64.58 39.17 64.93 37.89 65.1 38.03 65.27 38.2 65.45 39.81 65.62 39.32 65.79 38.64 66.14 38.39 66.31 38.3 66.65 41.11 67 40.95 67.17 39.97 67.34 40 67.69 39.15 67.86 38.97 68.72 38.46 69.41 37.84 69.59 37.9 70.97 36.76 71.14 36.83 71.31 36.56 71.83 36.88 72 36.91 72.17 36.7 72.52 36.63 72.86 37.03 73.21 37.16 74.76 37.36"/>
      </g>
    </g>
  </g>
  <g class="guide ylabels" font-size="2.82" font-family="'PT Sans Caption','Helvetica Neue','Helvetica',sans-serif" fill="#6C606B" id="fig-55906ddad705429c9babce0cc0156cb5-element-19">
    <text x="18.63" y="54.91" text-anchor="end" dy="0.35em">0</text>
    <text x="18.63" y="34.76" text-anchor="end" dy="0.35em">50</text>
    <text x="18.63" y="14.61" text-anchor="end" dy="0.35em">100</text>
  </g>
  <g font-size="3.88" font-family="'PT Sans','Helvetica Neue','Helvetica',sans-serif" fill="#564A55" stroke="#000000" stroke-opacity="0.000" id="fig-55906ddad705429c9babce0cc0156cb5-element-20">
    <text x="8.81" y="32.76" text-anchor="middle" dy="0.35em" transform="rotate(-90, 8.81, 34.76)">Percentage of Packages</text>
  </g>
  <g font-size="3.88" font-family="'PT Sans','Helvetica Neue','Helvetica',sans-serif" fill="#564A55" stroke="#000000" stroke-opacity="0.000" id="fig-55906ddad705429c9babce0cc0156cb5-element-21">
    <text x="58.12" y="10.61" text-anchor="middle">Julia v0.4 (relative)</text>
  </g>
</g>
<defs>
<clipPath id="fig-55906ddad705429c9babce0cc0156cb5-element-5">
  <path d="M19.63,12.61 L 96.6 12.61 96.6 56.91 19.63 56.91" />
</clipPath
></defs>
</svg>
