<?xml version="1.0" encoding="UTF-8"?>
<svg xmlns="http://www.w3.org/2000/svg"
     xmlns:xlink="http://www.w3.org/1999/xlink"
     xmlns:gadfly="http://www.gadflyjl.org/ns"
     version="1.2"
     width="101.6mm" height="76.2mm" viewBox="0 0 101.6 76.2"
     stroke="none"
     fill="#000000"
     stroke-width="0.3"
     font-size="3.88"
>
<g class="plotroot xscalable yscalable" id="img-1c2e99ce-1">
  <g font-size="3.88" font-family="'PT Sans','Helvetica Neue','Helvetica',sans-serif" fill="#564A55" stroke="#000000" stroke-opacity="0.000" id="img-1c2e99ce-2">
    <text x="58.12" y="64.59" text-anchor="middle" dy="0.6em">Date</text>
  </g>
  <g class="guide xlabels" font-size="2.82" font-family="'PT Sans Caption','Helvetica Neue','Helvetica',sans-serif" fill="#6C606B" id="img-1c2e99ce-3">
    <text x="21.63" y="57.91" text-anchor="middle" dy="0.6em">2014</text>
    <text x="45.93" y="57.91" text-anchor="middle" dy="0.6em">2015</text>
    <text x="70.23" y="57.91" text-anchor="middle" dy="0.6em">2016</text>
    <text x="94.6" y="57.91" text-anchor="middle" dy="0.6em">2017</text>
  </g>
<g clip-path="url(#img-1c2e99ce-4)">
  <g id="img-1c2e99ce-5">
    <g pointer-events="visible" opacity="1" fill="#000000" fill-opacity="0.000" stroke="#000000" stroke-opacity="0.000" class="guide background" id="img-1c2e99ce-6">
      <rect x="19.63" y="12.61" width="76.97" height="44.3"/>
    </g>
    <g class="guide ygridlines xfixed" stroke-dasharray="0.5,0.5" stroke-width="0.2" stroke="#D0D0E0" id="img-1c2e99ce-7">
      <path fill="none" d="M19.63,54.91 L 96.6 54.91"/>
      <path fill="none" d="M19.63,34.76 L 96.6 34.76"/>
      <path fill="none" d="M19.63,14.61 L 96.6 14.61"/>
    </g>
    <g class="guide xgridlines yfixed" stroke-dasharray="0.5,0.5" stroke-width="0.2" stroke="#D0D0E0" id="img-1c2e99ce-8">
      <path fill="none" d="M21.63,12.61 L 21.63 56.91"/>
      <path fill="none" d="M45.93,12.61 L 45.93 56.91"/>
      <path fill="none" d="M70.23,12.61 L 70.23 56.91"/>
      <path fill="none" d="M94.6,12.61 L 94.6 56.91"/>
    </g>
    <g class="plotpanel" id="img-1c2e99ce-9">
      <g stroke-width="0.3" fill="#000000" fill-opacity="0.000" class="geometry color_newnot_possible" stroke-dasharray="none" stroke="#808080" id="img-1c2e99ce-10">
        <path fill="none" d="M57.25,51.36 L 57.32 51.36 57.38 51.38 57.45 51.38 57.52 51.39 57.58 51.39 57.65 51.39 57.72 51.4 57.92 51.4 58.05 51.42 58.18 51.42 58.25 51.43 58.32 51.45 58.38 51.46 58.45 51.47 58.52 51.47 59.65 51.48 60.18 51.52 60.78 51.54 61.91 51.66 62.11 51.67 62.44 51.69 62.78 51.38 63.84 51.47 64.11 51.5 64.44 51.49 64.71 51.31 64.97 51.33 65.17 51.29 65.97 51.4 66.77 51.4 67.04 51.4 67.17 51.37 67.77 51.39 67.84 51.39 68.3 51.41 68.37 51.36 68.83 51.4 69.17 51.41 70.63 51.49 72.03 51.57"/>
      </g>
      <g stroke-width="0.3" fill="#000000" fill-opacity="0.000" class="geometry color_newno_tests" stroke-dasharray="none" stroke="#0000FF" id="img-1c2e99ce-11">
        <path fill="none" d="M57.25,47.81 L 57.32 47.81 57.38 47.84 57.45 47.84 57.52 47.87 57.58 47.87 57.65 47.87 57.72 47.88 57.92 47.89 58.05 47.92 58.18 47.92 58.25 47.94 58.32 48.05 58.38 48.07 58.45 48.08 58.52 48.14 59.65 48.24 60.18 48.3 60.78 48.35 61.91 48.59 62.11 48.67 62.44 48.71 62.78 48.83 63.84 49.21 64.11 49.43 64.44 49.61 64.71 50.39 64.97 50.48 65.17 50.61 65.97 50.8 66.77 50.91 67.04 50.92 67.17 50.94 67.77 50.96 67.84 50.96 68.3 50.99 68.37 50.99 68.83 51.03 69.17 51.05 70.63 51.18 72.03 51.32"/>
      </g>
      <g stroke-width="0.3" fill="#000000" fill-opacity="0.000" class="geometry color_newtests_fail" stroke-dasharray="none" stroke="#FF0000" id="img-1c2e99ce-12">
        <path fill="none" d="M57.25,41.5 L 57.32 41.96 57.38 41.87 57.45 40.56 57.52 40.57 57.58 40.76 57.65 40.76 57.72 41.83 57.92 41.26 58.05 41.31 58.18 42.02 58.25 42.19 58.32 40.8 58.38 42.12 58.45 41.18 58.52 41.63 59.65 42.44 60.18 42.18 60.78 42.83 61.91 43.04 62.11 43.37 62.44 43.73 62.78 44.65 63.84 44.75 64.11 45.18 64.44 45.46 64.71 45.7 64.97 45.99 65.17 46.42 65.97 46.46 66.77 46.69 67.04 46.87 67.17 47.07 67.77 47.11 67.84 47.27 68.3 47.11 68.37 47.38 68.83 47.1 69.17 47.07 70.63 47.65 72.03 47.37"/>
      </g>
      <g stroke-width="0.3" fill="#000000" fill-opacity="0.000" class="geometry color_newtests_pass" stroke-dasharray="none" stroke="#008000" id="img-1c2e99ce-13">
        <path fill="none" d="M57.25,38.68 L 57.32 38.22 57.38 38.27 57.45 39.58 57.52 39.52 57.58 39.33 57.65 39.33 57.72 38.25 57.92 38.79 58.05 38.72 58.18 38 58.25 37.8 58.32 39.06 58.38 37.71 58.45 38.63 58.52 38.12 59.65 37.2 60.18 37.36 60.78 36.63 61.91 36.06 62.11 35.65 62.44 35.23 62.78 34.5 63.84 33.92 64.11 33.25 64.44 32.8 64.71 31.96 64.97 31.55 65.17 31.03 65.97 30.7 66.77 30.35 67.04 30.17 67.17 29.98 67.77 29.9 67.84 29.74 68.3 29.85 68.37 29.62 68.83 29.83 69.17 29.82 70.63 29.03 72.03 29.09"/>
      </g>
      <g stroke-width="0.3" fill="#000000" fill-opacity="0.000" class="geometry color_newnot_possible" stroke-dasharray="none" stroke="#808080" id="img-1c2e99ce-14">
        <path fill="none" d="M36.54,50.71 L 36.61 50.63 36.68 50.53 36.74 50.55 36.81 50.55 36.88 50.55 37.01 50.58 37.08 50.58 37.14 50.59 37.21 50.59 37.28 50.59 37.34 50.63 37.41 50.65 37.48 50.65 37.61 50.67 37.68 50.6 37.81 50.62 37.88 50.62 37.94 50.52 38.21 50.52 38.41 50.59 38.48 50.6 38.54 50.61 38.61 50.63 38.68 50.63 38.74 50.63 38.81 50.71 38.88 50.71 38.94 50.71 39.07 50.63 39.14 50.63 39.21 50.64 39.27 50.64 39.34 50.64 39.41 50.65 39.47 50.55 39.61 50.54 39.67 50.55 39.74 50.55 39.81 50.57 39.87 50.49 39.94 50.49 40.01 50.49 40.07 50.51 40.27 50.53 40.34 50.44 40.41 50.46 40.47 50.47 40.54 50.47 40.61 50.47 40.67 50.49 40.74 50.49 40.81 50.5 40.87 50.51 40.94 50.42 41.01 50.42 41.07 50.42 41.14 50.44 41.21 50.46 41.27 50.46 41.34 50.46 41.41 50.47 41.47 50.47 41.54 50.48 41.6 50.48 41.67 50.5 41.74 50.51 41.8 50.51 41.87 50.52 41.94 50.52 42 50.52 42.07 50.52 42.14 50.53 42.2 50.54 42.4 50.54 42.74 50.6 42.8 50.62 42.87 50.62 42.94 50.63 43 50.63 43.07 50.66 43.14 50.66 43.4 50.71 43.47 50.71 43.8 50.71 43.93 50.71 44 50.82 44.07 50.83 44.13 50.83 44.2 50.83 44.27 50.85 44.33 50.87 44.53 50.88 44.6 50.88 44.73 50.92 44.8 50.92 44.87 50.92 45.07 50.92 45.2 50.94 45.4 50.95 45.67 50.97 45.8 51 46 51.02 46.46 51.08 46.73 51.13 46.8 50.98 46.86 50.98 46.93 50.95 47 50.95 47.06 50.95 47.2 50.96 47.26 50.97 47.33 50.97 47.4 50.91 47.46 50.92 47.53 50.92 47.6 50.92 47.73 50.86 47.8 50.88 47.86 50.89 48.13 50.95 48.2 50.95 48.26 50.93 48.4 50.95 48.53 50.98 48.6 50.98 48.8 50.99 49.13 50.99 49.46 51 49.79 51.07 49.86 51.07 49.93 51.07 49.99 50.55 50.06 50.63 50.19 50.57 50.33 50.57 50.59 50.58 50.66 50.59 50.73 50.59 50.79 50.59 50.86 50.61 50.93 50.68 50.99 50.62 51.79 50.58 51.92 50.5 51.99 50.53 52.12 50.53 52.39 50.53 52.52 50.54 52.66 50.57 52.92 50.58 53.06 50.6 53.12 50.62 53.26 50.66 53.32 50.66 53.39 50.67 53.46 50.68 53.52 50.68 53.59 50.69 53.72 50.69 53.79 50.71 53.92 50.71 54.05 50.72 54.12 50.75 54.19 50.75 54.32 50.77 54.39 50.77 54.72 50.8 54.99 50.88 55.05 50.83 55.59 50.85 55.65 50.72 55.72 50.72 55.92 50.74 55.99 50.75 56.05 50.83 56.19 50.84 56.32 50.84 56.45 50.86 57.05 50.9"/>
      </g>
      <g stroke-width="0.3" fill="#000000" fill-opacity="0.000" class="geometry color_newtests_fail" stroke-dasharray="none" stroke="#FF0000" id="img-1c2e99ce-15">
        <path fill="none" d="M36.54,52.48 L 36.61 52.39 36.68 52.72 36.74 50.33 36.81 50.33 36.88 50.33 37.01 52.64 37.08 52.75 37.14 52.65 37.21 52.86 37.28 52.97 37.34 52.88 37.41 52.89 37.48 53 37.61 52.26 37.68 52.07 37.81 51.98 37.88 51.98 37.94 52.09 38.21 52.09 38.41 52.34 38.48 52.34 38.54 52.35 38.61 52.47 38.68 52.57 38.74 52.87 38.81 52.91 38.88 52.91 38.94 52.91 39.07 52.72 39.14 52.62 39.21 52.73 39.27 52.73 39.34 52.83 39.41 52.63 39.47 52.43 39.61 53.12 39.67 50.05 39.74 49.95 39.81 51.85 39.87 51.87 39.94 51.97 40.01 51.97 40.07 51.98 40.27 50.14 40.34 51.61 40.41 51.91 40.47 52.02 40.54 52.11 40.61 51.92 40.67 52.13 40.74 52.13 40.81 51.94 40.87 51.85 40.94 51.56 41.01 51.76 41.07 52.04 41.14 52.06 41.21 52.07 41.27 44.58 41.34 44.58 41.41 44.6 41.47 45.64 41.54 45.67 41.6 51.8 41.67 51.91 41.74 52.01 41.8 52.01 41.87 52.02 41.94 52.02 42 52.02 42.07 52.02 42.14 52.12 42.2 52.03 42.4 52.31 42.74 52.25 42.8 52.26 42.87 52.26 42.94 52.27 43 52.27 43.07 52.2 43.14 52.2 43.4 52.23 43.47 52.14 43.8 52.32 43.93 52.41 44 51.89 44.07 52.34 44.13 52.25 44.2 52.34 44.27 52.35 44.33 52.36 44.53 52.63 44.6 52.64 44.73 51.7 44.8 51.7 44.87 51.7 45.07 51.7 45.2 51.71 45.4 52.76 45.67 52.77 45.8 52.7 46 52.8 46.46 52.66 46.73 52.53 46.8 52.7 46.86 52.7 46.93 52.49 47 52 47.06 52 47.2 52.01 47.26 52.01 47.33 52.01 47.4 52.03 47.46 52.04 47.53 52.04 47.6 52.04 47.73 52.05 47.8 51.99 47.86 52 48.13 51.65 48.2 51.65 48.26 51.63 48.4 51.58 48.53 46.58 48.6 51.59 48.8 51.38 49.13 51.38 49.46 51.31 49.79 49.48 49.86 50.16 49.93 50.76 49.99 51.61 50.06 51.83 50.19 51.84 50.33 51.39 50.59 51.48 50.66 51.49 50.73 51.41 50.79 51.41 50.86 43.78 50.93 41.75 50.99 42.91 51.79 49.84 51.92 50.06 51.99 51.4 52.12 51.48 52.39 51.48 52.52 51.49 52.66 51.58 52.92 51.52 53.06 39.87 53.12 43.39 53.26 45.76 53.32 45.76 53.39 45.78 53.46 45.46 53.52 45.53 53.59 45.9 53.72 46.05 53.79 45.94 53.92 41.25 54.05 41.5 54.12 42.89 54.19 42.91 54.32 43.51 54.39 44.29 54.72 44.63 54.99 45.01 55.05 44.98 55.59 45.91 55.65 45.97 55.72 46.04 55.92 45.97 55.99 45.98 56.05 46.01 56.19 46.24 56.32 46.11 56.45 46.2 57.05 46.04"/>
      </g>
      <g stroke-width="0.3" fill="#000000" fill-opacity="0.000" class="geometry color_newno_tests" stroke-dasharray="none" stroke="#0000FF" id="img-1c2e99ce-16">
        <path fill="none" d="M36.54,49.6 L 36.61 49.53 36.68 49.55 36.74 50.22 36.81 50.22 36.88 50.22 37.01 49.71 37.08 49.71 37.14 49.84 37.21 49.84 37.28 49.84 37.34 49.88 37.41 49.9 37.48 50.01 37.61 50.35 37.68 50.5 37.81 50.52 37.88 50.52 37.94 50.52 38.21 50.52 38.41 50.48 38.48 50.49 38.54 50.4 38.61 50.43 38.68 50.43 38.74 50.43 38.81 50.51 38.88 50.61 38.94 50.61 39.07 50.53 39.14 50.63 39.21 50.54 39.27 50.54 39.34 50.54 39.41 50.55 39.47 50.75 39.61 50.54 39.67 50.84 39.74 50.84 39.81 50.57 39.87 50.59 39.94 50.59 40.01 50.59 40.07 50.61 40.27 51.02 40.34 50.73 40.41 50.65 40.47 50.66 40.54 50.66 40.61 50.66 40.67 50.68 40.74 50.68 40.81 50.69 40.87 50.7 40.94 50.7 41.01 50.7 41.07 50.7 41.14 50.72 41.21 50.74 41.27 51.31 41.34 51.31 41.41 51.32 41.47 51.13 41.54 51.14 41.6 50.76 41.67 50.78 41.74 50.79 41.8 50.79 41.87 50.8 41.94 50.8 42 50.8 42.07 50.8 42.14 50.81 42.2 50.82 42.4 50.82 42.74 50.88 42.8 50.89 42.87 50.89 42.94 50.9 43 50.9 43.07 50.93 43.14 50.93 43.4 50.97 43.47 50.97 43.8 50.98 43.93 50.98 44 51 44.07 51.01 44.13 51.1 44.2 51.01 44.27 51.03 44.33 51.04 44.53 51.05 44.6 51.06 44.73 51.09 44.8 51.09 44.87 51.09 45.07 51.09 45.2 51.11 45.4 51.04 45.67 51.14 45.8 51.09 46 51.1 46.46 51.16 46.73 51.21 46.8 51.23 46.86 51.23 46.93 51.27 47 51.27 47.06 51.27 47.2 51.28 47.26 51.29 47.33 51.29 47.4 51.31 47.46 51.32 47.53 51.32 47.6 51.32 47.73 51.34 47.8 51.36 47.86 51.37 48.13 51.5 48.2 51.5 48.26 51.48 48.4 51.5 48.53 51.67 48.6 51.44 48.8 51.45 49.13 51.45 49.46 51.46 49.79 51.75 49.86 51.67 49.93 51.67 49.99 51.68 50.06 51.61 50.19 51.62 50.33 51.69 50.59 51.7 50.66 51.71 50.73 51.79 50.79 51.79 50.86 52.61 50.93 52.68 50.99 52.69 51.79 51.83 51.92 51.83 51.99 51.84 52.12 51.84 52.39 51.85 52.52 51.85 52.66 51.87 52.92 51.95 53.06 52.54 53.12 52.41 53.26 52.36 53.32 52.29 53.39 52.37 53.46 52.37 53.52 52.37 53.59 52.38 53.72 52.38 53.79 52.46 53.92 52.67 54.05 52.54 54.12 52.48 54.19 52.49 54.32 52.5 54.39 52.43 54.72 52.45 54.99 52.39 55.05 52.4 55.59 52.34 55.65 52.34 55.72 52.34 55.92 52.36 55.99 52.36 56.05 52.37 56.19 52.38 56.32 52.38 56.45 52.39 57.05 52.42"/>
      </g>
      <g stroke-width="0.3" fill="#000000" fill-opacity="0.000" class="geometry color_oldfull_fail" stroke-dasharray="none" stroke="#FFA500" id="img-1c2e99ce-17">
        <path fill="none" d="M36.54,51.37 L 36.61 51.4 36.68 50.42 36.74 50.33 36.81 50.22 36.88 50.22 37.01 50.26 37.08 50.36 37.14 50.59 37.21 50.27 37.28 50.16 37.34 50.41 37.41 50.54 37.48 50.22 37.61 49.82 37.68 50.5 37.81 50.41 37.88 50.41 37.94 50.41 38.21 50.41 38.41 50.17 38.48 50.29 38.54 50.4 38.61 50.22 38.68 50.32 38.74 50.53 38.81 50.21 38.88 50.01 38.94 50.01 39.07 50.43 39.14 50.33 39.21 50.34 39.27 50.54 39.34 50.44 39.41 50.05 39.47 50.15 39.61 50.64 39.67 49.55 39.74 49.26 39.81 49.78 39.87 49.9 39.94 49.9 40.01 49.9 40.07 49.83 40.27 48 40.34 49.07 40.41 50.17 40.47 50.08 40.54 49.79 40.61 50.08 40.67 50.2 40.74 50.2 40.81 50.02 40.87 49.94 40.94 50.32 41.01 50.32 41.07 50.22 41.14 50.15 41.21 50.17 41.27 51.22 41.34 51.12 41.41 51.13 41.47 51.04 41.54 50.86 41.6 48.4 41.67 49.09 41.74 49.48 41.8 49.01 41.87 49.02 41.94 48.93 42 48.93 42.07 48.93 42.14 49.13 42.2 49.42 42.4 49.42 42.74 49.31 42.8 49.16 42.87 49.16 42.94 49.26 43 49.35 43.07 49.48 43.14 49.3 43.4 48.56 43.47 48.65 43.8 48.12 43.93 48.39 44 48.6 44.07 48.7 44.13 48.7 44.2 48.88 44.27 48.82 44.33 48.76 44.53 48.24 44.6 48.34 44.73 48.31 44.8 47.97 44.87 48.23 45.07 48.4 45.2 48.6 45.4 48.37 45.67 48.48 45.8 48.96 46 48.65 46.46 48.41 46.73 48.75 46.8 48.77 46.86 48.77 46.93 48.6 47 48.36 47.06 48.44 47.2 48.62 47.26 48.55 47.33 48.55 47.4 48.26 47.46 48.36 47.53 48.28 47.6 48.28 47.73 48.4 47.8 48.28 47.86 48.05 48.13 47.93 48.2 47.77 48.26 47.89 48.4 48 48.53 49.74 48.6 47.27 48.8 46.92 49.13 46.92 49.46 47.01 49.79 47.52 49.86 47.37 49.93 47.22 49.99 47.25 50.06 47.47 50.19 47.27 50.33 46.15 50.59 45.49 50.66 45.6 50.73 45.38 50.79 45.53 50.86 48.09 50.93 48.89 50.99 48.25 51.79 46.53 51.92 46.46 51.99 45.84 52.12 46.28 52.39 46.81 52.52 46.9 52.66 46.8 52.92 47.11 53.06 49.23 53.12 48.69 53.26 47.61 53.32 47.54 53.39 47.27 53.46 45.95 53.52 46.37 53.59 46.67 53.72 46.76 53.79 46.85 53.92 48.54 54.05 48.56 54.12 48.17 54.19 48.12 54.32 48.35 54.39 47.81 54.72 47.92 54.99 48.15 55.05 48.18 55.59 48.41 55.65 48.41 55.72 48.62 55.92 48.32 55.99 48.26 56.05 48.35 56.19 48.18 56.32 47.91 56.45 47.67 57.05 47.55"/>
      </g>
      <g stroke-width="0.3" fill="#000000" fill-opacity="0.000" class="geometry color_newtests_pass" stroke-dasharray="none" stroke="#008000" id="img-1c2e99ce-18">
        <path fill="none" d="M36.54,30.11 L 36.61 30.32 36.68 31.04 36.74 32.85 36.81 32.96 36.88 32.96 37.01 31.08 37.08 30.86 37.14 30.6 37.21 30.71 37.28 30.71 37.34 30.48 37.41 30.29 37.48 30.39 37.61 31.16 37.68 30.61 37.81 30.73 37.88 30.73 37.94 30.73 38.21 30.73 38.41 30.69 38.48 30.55 38.54 30.51 38.61 30.53 38.68 30.32 38.74 29.81 38.81 29.91 38.88 30.01 38.94 30.01 39.07 29.97 39.14 30.07 39.21 30.04 39.27 29.84 39.34 29.84 39.41 30.4 39.47 30.4 39.61 29.44 39.67 33.27 39.74 33.67 39.81 31.5 39.87 31.42 39.94 31.32 40.01 31.32 40.07 31.34 40.27 34.57 40.34 32.43 40.41 31.08 40.47 31.04 40.54 31.24 40.61 31.14 40.67 30.77 40.74 30.77 40.81 31.12 40.87 31.27 40.94 31.27 41.01 31.08 41.07 30.89 41.14 30.9 41.21 30.83 41.27 36.71 41.34 36.8 41.41 36.75 41.47 35.99 41.54 36.13 41.6 32.83 41.67 31.99 41.74 31.48 41.8 31.95 41.87 31.91 41.94 32 42 32 42.07 32 42.14 31.68 42.2 31.46 42.4 31.18 42.74 31.23 42.8 31.34 42.87 31.34 42.94 31.21 43 31.12 43.07 31 43.14 31.19 43.4 31.81 43.47 31.81 43.8 32.13 43.93 31.77 44 31.96 44.07 31.39 44.13 31.39 44.2 31.21 44.27 31.23 44.33 31.24 44.53 31.47 44.6 31.35 44.73 32.24 44.8 32.59 44.87 32.33 45.07 32.16 45.2 31.91 45.4 31.15 45.67 30.9 45.8 30.51 46 30.7 46.46 30.97 46.73 30.65 46.8 30.59 46.86 30.59 46.93 30.96 47 31.69 47.06 31.61 47.2 31.41 47.26 31.46 47.33 31.46 47.4 31.76 47.46 31.64 47.53 31.72 47.6 31.72 47.73 31.62 47.8 31.76 47.86 31.96 48.13 32.24 48.2 32.39 48.26 32.34 48.4 32.24 48.53 35.3 48.6 32.99 48.8 33.53 49.13 33.53 49.46 33.5 49.79 34.46 49.86 34.01 49.93 33.56 49.99 33.18 50.06 32.73 50.19 32.97 50.33 34.46 50.59 35.03 50.66 34.88 50.73 35.1 50.79 34.95 50.86 39.18 50.93 40.27 50.99 39.8 51.79 35.5 51.92 35.43 51.99 34.65 52.12 34.14 52.39 33.6 52.52 33.49 52.66 33.46 52.92 33.1 53.06 42.03 53.12 39.17 53.26 37.89 53.32 38.03 53.39 38.2 53.46 39.81 53.52 39.32 53.59 38.64 53.72 38.39 53.79 38.3 53.92 41.11 54.05 40.95 54.12 39.97 54.19 40 54.32 39.15 54.39 38.97 54.72 38.46 54.99 37.84 55.05 37.9 55.59 36.76 55.65 36.83 55.72 36.56 55.92 36.88 55.99 36.91 56.05 36.7 56.19 36.63 56.32 37.03 56.45 37.16 57.05 37.36"/>
      </g>
    </g>
  </g>
</g>
  <g class="guide ylabels" font-size="2.82" font-family="'PT Sans Caption','Helvetica Neue','Helvetica',sans-serif" fill="#6C606B" id="img-1c2e99ce-19">
    <text x="18.63" y="54.91" text-anchor="end" dy="0.35em">0</text>
    <text x="18.63" y="34.76" text-anchor="end" dy="0.35em">50</text>
    <text x="18.63" y="14.61" text-anchor="end" dy="0.35em">100</text>
  </g>
  <g font-size="3.88" font-family="'PT Sans','Helvetica Neue','Helvetica',sans-serif" fill="#564A55" stroke="#000000" stroke-opacity="0.000" id="img-1c2e99ce-20">
    <text x="8.81" y="32.76" text-anchor="middle" dy="0.35em" transform="rotate(-90, 8.81, 34.76)">Percentage of Packages</text>
  </g>
  <g font-size="3.88" font-family="'PT Sans','Helvetica Neue','Helvetica',sans-serif" fill="#564A55" stroke="#000000" stroke-opacity="0.000" id="img-1c2e99ce-21">
    <text x="58.12" y="10.61" text-anchor="middle">Julia v0.4 (relative)</text>
  </g>
</g>
<defs>
  <clipPath id="img-1c2e99ce-4">
  <path d="M19.63,12.61 L 96.6 12.61 96.6 56.91 19.63 56.91" />
</clipPath>
</defs>
</svg>
