<?xml version="1.0" encoding="UTF-8"?>
<svg xmlns="http://www.w3.org/2000/svg"
     xmlns:xlink="http://www.w3.org/1999/xlink"
     xmlns:gadfly="http://www.gadflyjl.org/ns"
     version="1.2"
     width="101.6mm" height="76.2mm" viewBox="0 0 101.6 76.2"
     stroke="none"
     fill="#000000"
     stroke-width="0.3"
     font-size="3.88"
>
<g class="plotroot xscalable yscalable" id="fig-6a17337039dd46f8b8ae27268f9e2bd1-element-1">
  <g font-size="3.88" font-family="'PT Sans','Helvetica Neue','Helvetica',sans-serif" fill="#564A55" stroke="#000000" stroke-opacity="0.000" id="fig-6a17337039dd46f8b8ae27268f9e2bd1-element-2">
    <text x="58.12" y="64.59" text-anchor="middle" dy="0.6em">Date</text>
  </g>
  <g class="guide xlabels" font-size="2.82" font-family="'PT Sans Caption','Helvetica Neue','Helvetica',sans-serif" fill="#6C606B" id="fig-6a17337039dd46f8b8ae27268f9e2bd1-element-3">
    <text x="24.91" y="57.91" text-anchor="middle" dy="0.6em">Sep</text>
    <text x="30.08" y="57.91" text-anchor="middle" dy="0.6em">Oct</text>
    <text x="35.43" y="57.91" text-anchor="middle" dy="0.6em">Nov</text>
    <text x="40.61" y="57.91" text-anchor="middle" dy="0.6em">Dec</text>
    <text x="45.95" y="57.91" text-anchor="middle" dy="0.6em">Jan 2015</text>
    <text x="51.3" y="57.91" text-anchor="middle" dy="0.6em">Feb</text>
    <text x="56.13" y="57.91" text-anchor="middle" dy="0.6em">Mar</text>
    <text x="61.48" y="57.91" text-anchor="middle" dy="0.6em">Apr</text>
    <text x="66.65" y="57.91" text-anchor="middle" dy="0.6em">May</text>
    <text x="72" y="57.91" text-anchor="middle" dy="0.6em">Jun</text>
    <text x="77.18" y="57.91" text-anchor="middle" dy="0.6em">Jul</text>
    <text x="82.52" y="57.91" text-anchor="middle" dy="0.6em">Aug</text>
    <text x="87.87" y="57.91" text-anchor="middle" dy="0.6em">Sep</text>
    <text x="93.05" y="57.91" text-anchor="middle" dy="0.6em">Oct</text>
  </g>
  <g clip-path="url(#fig-6a17337039dd46f8b8ae27268f9e2bd1-element-5)" id="fig-6a17337039dd46f8b8ae27268f9e2bd1-element-4">
    <g pointer-events="visible" opacity="1" fill="#000000" fill-opacity="0.000" stroke="#000000" stroke-opacity="0.000" class="guide background" id="fig-6a17337039dd46f8b8ae27268f9e2bd1-element-6">
      <rect x="19.63" y="12.61" width="76.97" height="44.3"/>
    </g>
    <g class="guide ygridlines xfixed" stroke-dasharray="0.5,0.5" stroke-width="0.2" stroke="#D0D0E0" id="fig-6a17337039dd46f8b8ae27268f9e2bd1-element-7">
      <path fill="none" d="M19.63,54.91 L 96.6 54.91"/>
      <path fill="none" d="M19.63,46.85 L 96.6 46.85"/>
      <path fill="none" d="M19.63,38.79 L 96.6 38.79"/>
      <path fill="none" d="M19.63,30.73 L 96.6 30.73"/>
      <path fill="none" d="M19.63,22.67 L 96.6 22.67"/>
      <path fill="none" d="M19.63,14.61 L 96.6 14.61"/>
    </g>
    <g class="guide xgridlines yfixed" stroke-dasharray="0.5,0.5" stroke-width="0.2" stroke="#D0D0E0" id="fig-6a17337039dd46f8b8ae27268f9e2bd1-element-8">
      <path fill="none" d="M24.91,12.61 L 24.91 56.91"/>
      <path fill="none" d="M30.08,12.61 L 30.08 56.91"/>
      <path fill="none" d="M35.43,12.61 L 35.43 56.91"/>
      <path fill="none" d="M40.61,12.61 L 40.61 56.91"/>
      <path fill="none" d="M45.95,12.61 L 45.95 56.91"/>
      <path fill="none" d="M51.3,12.61 L 51.3 56.91"/>
      <path fill="none" d="M56.13,12.61 L 56.13 56.91"/>
      <path fill="none" d="M61.48,12.61 L 61.48 56.91"/>
      <path fill="none" d="M66.65,12.61 L 66.65 56.91"/>
      <path fill="none" d="M72,12.61 L 72 56.91"/>
      <path fill="none" d="M77.18,12.61 L 77.18 56.91"/>
      <path fill="none" d="M82.52,12.61 L 82.52 56.91"/>
      <path fill="none" d="M87.87,12.61 L 87.87 56.91"/>
      <path fill="none" d="M93.05,12.61 L 93.05 56.91"/>
    </g>
    <g class="plotpanel" id="fig-6a17337039dd46f8b8ae27268f9e2bd1-element-9">
      <g stroke-width="0.3" fill="#000000" fill-opacity="0.000" class="geometry color_newnot_possible" stroke-dasharray="none" stroke="#808080" id="fig-6a17337039dd46f8b8ae27268f9e2bd1-element-10">
        <path fill="none" d="M75.28,50.56 L 75.45 50.56 75.62 50.56 75.8 50.56 75.97 50.56 76.14 50.56 76.31 50.56 76.49 50.56 77 50.56 77.35 50.56 77.69 50.56 77.87 50.56 78.04 50.56 78.21 50.56 78.38 50.56 78.56 50.56 81.49 50.48 82.87 50.48 84.42 50.48 87.35 50.48 87.87 50.48 88.73 50.48 89.6 50 92.36 50 93.05 50 93.91 49.92 94.6 49.84"/>
      </g>
      <g stroke-width="0.3" fill="#000000" fill-opacity="0.000" class="geometry color_newno_tests" stroke-dasharray="none" stroke="#0000FF" id="fig-6a17337039dd46f8b8ae27268f9e2bd1-element-11">
        <path fill="none" d="M75.28,46.21 L 75.45 46.21 75.62 46.21 75.8 46.21 75.97 46.21 76.14 46.21 76.31 46.21 76.49 46.21 77 46.21 77.35 46.21 77.69 46.21 77.87 46.21 78.04 46.29 78.21 46.29 78.38 46.29 78.56 46.37 81.49 46.29 82.87 46.29 84.42 46.29 87.35 46.29 87.87 46.37 88.73 46.37 89.6 46.45 92.36 46.77 93.05 47.02 93.91 47.18 94.6 48.55"/>
      </g>
      <g stroke-width="0.3" fill="#000000" fill-opacity="0.000" class="geometry color_newtests_fail" stroke-dasharray="none" stroke="#FF0000" id="fig-6a17337039dd46f8b8ae27268f9e2bd1-element-12">
        <path fill="none" d="M75.28,38.47 L 75.45 39.04 75.62 38.87 75.8 37.26 75.97 37.18 76.14 37.42 76.31 37.42 76.49 38.71 77 37.99 77.35 37.99 77.69 38.87 77.87 39.04 78.04 37.18 78.21 38.79 78.38 37.58 78.56 38.15 81.49 38.79 82.87 38.31 84.42 39.04 87.35 38.71 87.87 39.12 88.73 39.52 89.6 40.65 92.36 40.41 93.05 40.89 93.91 41.13 94.6 41.94"/>
      </g>
      <g stroke-width="0.3" fill="#000000" fill-opacity="0.000" class="geometry color_newtests_pass" stroke-dasharray="none" stroke="#008000" id="fig-6a17337039dd46f8b8ae27268f9e2bd1-element-13">
        <path fill="none" d="M75.28,35.01 L 75.45 34.44 75.62 34.44 75.8 36.05 75.97 35.89 76.14 35.65 76.31 35.65 76.49 34.28 77 34.92 77.35 34.76 77.69 33.88 77.87 33.55 78.04 35.01 78.21 33.23 78.38 34.36 78.56 33.72 81.49 32.02 82.87 32.02 84.42 30.89 87.35 29.2 87.87 28.56 88.73 27.83 89.6 26.54 92.36 24.93 93.05 23.72 93.91 22.67 94.6 22.59"/>
      </g>
      <g stroke-width="0.3" fill="#000000" fill-opacity="0.000" class="geometry color_newnot_possible" stroke-dasharray="none" stroke="#808080" id="fig-6a17337039dd46f8b8ae27268f9e2bd1-element-14">
        <path fill="none" d="M21.63,51.85 L 21.8 51.77 21.98 51.69 22.15 51.69 22.32 51.69 22.49 51.69 22.84 51.69 23.01 51.69 23.18 51.69 23.36 51.69 23.53 51.69 23.7 51.69 23.87 51.69 24.05 51.69 24.39 51.69 24.56 51.61 24.91 51.61 25.08 51.61 25.25 51.53 25.94 51.53 26.46 51.53 26.63 51.53 26.81 51.53 26.98 51.53 27.15 51.53 27.32 51.53 27.5 51.53 27.67 51.53 27.84 51.53 28.19 51.45 28.36 51.45 28.53 51.45 28.7 51.45 28.88 51.45 29.05 51.45 29.22 51.37 29.57 51.37 29.74 51.37 29.91 51.37 30.08 51.37 30.26 51.29 30.43 51.29 30.6 51.29 30.77 51.29 31.29 51.29 31.46 51.21 31.64 51.21 31.81 51.21 31.98 51.21 32.15 51.21 32.33 51.21 32.5 51.21 32.67 51.21 32.84 51.21 33.02 51.13 33.19 51.13 33.36 51.13 33.53 51.13 33.71 51.13 33.88 51.13 34.05 51.13 34.22 51.13 34.4 51.13 34.57 51.13 34.74 51.13 34.91 51.13 35.09 51.13 35.26 51.13 35.43 51.13 35.6 51.13 35.78 51.13 35.95 51.13 36.12 51.13 36.29 51.13 36.81 51.13 37.67 51.13 37.85 51.13 38.02 51.13 38.19 51.13 38.36 51.13 38.54 51.13 38.71 51.13 39.4 51.13 39.57 51.13 40.43 51.13 40.78 51.13 40.95 51.21 41.12 51.21 41.3 51.21 41.47 51.21 41.64 51.21 41.81 51.21 42.33 51.21 42.5 51.21 42.85 51.21 43.02 51.21 43.19 51.21 43.71 51.21 44.06 51.21 44.57 51.21 45.26 51.21 45.61 51.21 46.13 51.21 47.33 51.21 48.02 51.21 48.2 51.05 48.37 51.05 48.54 50.97 48.71 50.97 48.89 50.97 49.23 50.97 49.4 50.97 49.58 50.97 49.75 50.88 49.92 50.88 50.09 50.88 50.27 50.88 50.61 50.8 50.78 50.8 50.96 50.8 51.65 50.8 51.82 50.8 51.99 50.8 52.34 50.8 52.68 50.8 52.85 50.8 53.37 50.8 54.23 50.8 55.1 50.8 55.96 50.8 56.13 50.8 56.3 50.8 56.48 50.24 56.65 50.32 56.99 50.24 57.34 50.24 58.03 50.24 58.2 50.24 58.37 50.24 58.55 50.24 58.72 50.24 58.89 50.32 59.06 50.24 61.13 50.16 61.48 50.08 61.65 50.08 62 50.08 62.69 50.08 63.03 50.08 63.38 50.08 64.07 50.08 64.41 50.08 64.58 50.08 64.93 50.08 65.1 50.08 65.27 50.08 65.45 50.08 65.62 50.08 65.79 50.08 66.14 50.08 66.31 50.08 66.65 50.08 67 50.08 67.17 50.08 67.34 50.08 67.69 50.08 67.86 50.08 68.72 50.08 69.41 50.16 69.59 50.08 70.97 50.08 71.14 49.92 71.31 49.92 71.83 49.92 72 49.92 72.17 50 72.52 50 72.86 50 73.21 50 74.76 50"/>
      </g>
      <g stroke-width="0.3" fill="#000000" fill-opacity="0.000" class="geometry color_newtests_fail" stroke-dasharray="none" stroke="#FF0000" id="fig-6a17337039dd46f8b8ae27268f9e2bd1-element-15">
        <path fill="none" d="M21.63,53.14 L 21.8 53.06 21.98 53.3 22.15 51.53 22.32 51.53 22.49 51.53 22.84 53.22 23.01 53.3 23.18 53.22 23.36 53.38 23.53 53.46 23.7 53.38 23.87 53.38 24.05 53.46 24.39 52.9 24.56 52.74 24.91 52.66 25.08 52.66 25.25 52.74 25.94 52.74 26.46 52.9 26.63 52.9 26.81 52.9 26.98 52.98 27.15 53.06 27.32 53.3 27.5 53.3 27.67 53.3 27.84 53.3 28.19 53.14 28.36 53.06 28.53 53.14 28.7 53.14 28.88 53.22 29.05 53.06 29.22 52.9 29.57 53.46 29.74 50.97 29.91 50.88 30.08 52.42 30.26 52.42 30.43 52.5 30.6 52.5 30.77 52.5 31.29 50.97 31.46 52.17 31.64 52.42 31.81 52.5 31.98 52.58 32.15 52.42 32.33 52.58 32.5 52.58 32.67 52.42 32.84 52.34 33.02 52.09 33.19 52.25 33.36 52.5 33.53 52.5 33.71 52.5 33.88 46.13 34.05 46.13 34.22 46.13 34.4 47.02 34.57 47.02 34.74 52.25 34.91 52.34 35.09 52.42 35.26 52.42 35.43 52.42 35.6 52.42 35.78 52.42 35.95 52.42 36.12 52.5 36.29 52.42 36.81 52.66 37.67 52.58 37.85 52.58 38.02 52.58 38.19 52.58 38.36 52.58 38.54 52.5 38.71 52.5 39.4 52.5 39.57 52.42 40.43 52.58 40.78 52.66 40.95 52.17 41.12 52.58 41.3 52.5 41.47 52.58 41.64 52.58 41.81 52.58 42.33 52.82 42.5 52.82 42.85 51.93 43.02 51.93 43.19 51.93 43.71 51.93 44.06 51.93 44.57 52.9 45.26 52.9 45.61 52.82 46.13 52.9 47.33 52.74 48.02 52.58 48.2 52.74 48.37 52.74 48.54 52.5 48.71 52.01 48.89 52.01 49.23 52.01 49.4 52.01 49.58 52.01 49.75 52.01 49.92 52.01 50.09 52.01 50.27 52.01 50.61 52.01 50.78 51.93 50.96 51.93 51.65 51.53 51.82 51.53 51.99 51.53 52.34 51.45 52.68 46.21 52.85 51.45 53.37 51.21 54.23 51.21 55.1 51.13 55.96 49.11 56.13 49.84 56.3 50.48 56.48 51.37 56.65 51.61 56.99 51.61 57.34 51.13 58.03 51.21 58.2 51.21 58.37 51.13 58.55 51.13 58.72 42.82 58.89 40.65 59.06 41.86 61.13 49.35 61.48 49.59 61.65 51.05 62 51.13 62.69 51.13 63.03 51.13 63.38 51.21 64.07 51.13 64.41 38.07 64.58 41.94 64.93 44.52 65.1 44.52 65.27 44.52 65.45 44.11 65.62 44.19 65.79 44.6 66.14 44.76 66.31 44.6 66.65 39.2 67 39.44 67.17 40.97 67.34 40.97 67.69 41.61 67.86 42.5 68.72 42.82 69.41 43.23 69.59 43.15 70.97 44.19 71.14 44.27 71.31 44.36 71.83 44.19 72 44.19 72.17 44.19 72.52 44.44 72.86 44.27 73.21 44.36 74.76 44.03"/>
      </g>
      <g stroke-width="0.3" fill="#000000" fill-opacity="0.000" class="geometry color_newno_tests" stroke-dasharray="none" stroke="#0000FF" id="fig-6a17337039dd46f8b8ae27268f9e2bd1-element-16">
        <path fill="none" d="M21.63,51.05 L 21.8 50.97 21.98 50.97 22.15 51.45 22.32 51.45 22.49 51.45 22.84 51.05 23.01 51.05 23.18 51.13 23.36 51.13 23.53 51.13 23.7 51.13 23.87 51.13 24.05 51.21 24.39 51.45 24.56 51.53 24.91 51.53 25.08 51.53 25.25 51.53 25.94 51.53 26.46 51.45 26.63 51.45 26.81 51.37 26.98 51.37 27.15 51.37 27.32 51.37 27.5 51.37 27.67 51.45 27.84 51.45 28.19 51.37 28.36 51.45 28.53 51.37 28.7 51.37 28.88 51.37 29.05 51.37 29.22 51.53 29.57 51.37 29.74 51.61 29.91 51.61 30.08 51.37 30.26 51.37 30.43 51.37 30.6 51.37 30.77 51.37 31.29 51.69 31.46 51.45 31.64 51.37 31.81 51.37 31.98 51.37 32.15 51.37 32.33 51.37 32.5 51.37 32.67 51.37 32.84 51.37 33.02 51.37 33.19 51.37 33.36 51.37 33.53 51.37 33.71 51.37 33.88 51.85 34.05 51.85 34.22 51.85 34.4 51.69 34.57 51.69 34.74 51.37 34.91 51.37 35.09 51.37 35.26 51.37 35.43 51.37 35.6 51.37 35.78 51.37 35.95 51.37 36.12 51.37 36.29 51.37 36.81 51.37 37.67 51.37 37.85 51.37 38.02 51.37 38.19 51.37 38.36 51.37 38.54 51.37 38.71 51.37 39.4 51.37 39.57 51.37 40.43 51.37 40.78 51.37 40.95 51.37 41.12 51.37 41.3 51.45 41.47 51.37 41.64 51.37 41.81 51.37 42.33 51.37 42.5 51.37 42.85 51.37 43.02 51.37 43.19 51.37 43.71 51.37 44.06 51.37 44.57 51.29 45.26 51.37 45.61 51.29 46.13 51.29 47.33 51.29 48.02 51.29 48.2 51.29 48.37 51.29 48.54 51.29 48.71 51.29 48.89 51.29 49.23 51.29 49.4 51.29 49.58 51.29 49.75 51.29 49.92 51.29 50.09 51.29 50.27 51.29 50.61 51.29 50.78 51.29 50.96 51.29 51.65 51.37 51.82 51.37 51.99 51.37 52.34 51.37 52.68 51.53 52.85 51.29 53.37 51.29 54.23 51.29 55.1 51.29 55.96 51.53 56.13 51.45 56.3 51.45 56.48 51.45 56.65 51.37 56.99 51.37 57.34 51.45 58.03 51.45 58.2 51.45 58.37 51.53 58.55 51.53 58.72 52.42 58.89 52.5 59.06 52.5 61.13 51.53 61.48 51.53 61.65 51.53 62 51.53 62.69 51.53 63.03 51.53 63.38 51.53 64.07 51.61 64.41 52.25 64.58 52.09 64.93 52.01 65.1 51.93 65.27 52.01 65.45 52.01 65.62 52.01 65.79 52.01 66.14 52.01 66.31 52.09 66.65 52.34 67 52.17 67.17 52.09 67.34 52.09 67.69 52.09 67.86 52.01 68.72 52.01 69.41 51.93 69.59 51.93 70.97 51.85 71.14 51.85 71.31 51.85 71.83 51.85 72 51.85 72.17 51.85 72.52 51.85 72.86 51.85 73.21 51.85 74.76 51.85"/>
      </g>
      <g stroke-width="0.3" fill="#000000" fill-opacity="0.000" class="geometry color_oldfull_fail" stroke-dasharray="none" stroke="#FFA500" id="fig-6a17337039dd46f8b8ae27268f9e2bd1-element-17">
        <path fill="none" d="M21.63,52.34 L 21.8 52.34 21.98 51.61 22.15 51.53 22.32 51.45 22.49 51.45 22.84 51.45 23.01 51.53 23.18 51.69 23.36 51.45 23.53 51.37 23.7 51.53 23.87 51.61 24.05 51.37 24.39 51.05 24.56 51.53 24.91 51.45 25.08 51.45 25.25 51.45 25.94 51.45 26.46 51.21 26.63 51.29 26.81 51.37 26.98 51.21 27.15 51.29 27.32 51.45 27.5 51.13 27.67 50.97 27.84 50.97 28.19 51.29 28.36 51.21 28.53 51.21 28.7 51.37 28.88 51.29 29.05 50.97 29.22 51.05 29.57 51.45 29.74 50.56 29.91 50.32 30.08 50.72 30.26 50.8 30.43 50.8 30.6 50.8 30.77 50.72 31.29 49.19 31.46 50.08 31.64 50.97 31.81 50.88 31.98 50.64 32.15 50.88 32.33 50.97 32.5 50.97 32.67 50.8 32.84 50.72 33.02 51.05 33.19 51.05 33.36 50.97 33.53 50.88 33.71 50.88 33.88 51.77 34.05 51.69 34.22 51.69 34.4 51.61 34.57 51.45 34.74 49.35 34.91 49.92 35.09 50.24 35.26 49.84 35.43 49.84 35.6 49.76 35.78 49.76 35.95 49.76 36.12 49.92 36.29 50.16 36.81 50.16 37.67 50 37.85 49.84 38.02 49.84 38.19 49.92 38.36 50 38.54 50.08 38.71 49.92 39.4 49.19 39.57 49.27 40.43 48.79 40.78 49.03 40.95 49.19 41.12 49.27 41.3 49.27 41.47 49.43 41.64 49.35 41.81 49.27 42.33 48.79 42.5 48.87 42.85 48.79 43.02 48.47 43.19 48.71 43.71 48.87 44.06 49.03 44.57 48.79 45.26 48.87 45.61 49.27 46.13 48.95 47.33 48.63 48.02 48.87 48.2 48.87 48.37 48.87 48.54 48.63 48.71 48.39 48.89 48.47 49.23 48.63 49.4 48.55 49.58 48.55 49.75 48.22 49.92 48.31 50.09 48.22 50.27 48.22 50.61 48.31 50.78 48.14 50.96 47.9 51.65 47.66 51.82 47.5 51.99 47.66 52.34 47.74 52.68 49.51 52.85 46.93 53.37 46.53 54.23 46.53 55.1 46.61 55.96 47.02 56.13 46.85 56.3 46.69 56.48 46.69 56.65 46.93 56.99 46.69 57.34 45.48 58.03 44.76 58.2 44.84 58.37 44.6 58.55 44.76 58.72 47.5 58.89 48.39 59.06 47.66 61.13 45.73 61.48 45.65 61.65 44.92 62 45.4 62.69 45.97 63.03 46.05 63.38 45.89 64.07 46.21 64.41 48.55 64.58 47.9 64.93 46.61 65.1 46.53 65.27 46.21 65.45 44.68 65.62 45.16 65.79 45.48 66.14 45.56 66.31 45.65 66.65 47.58 67 47.58 67.17 47.1 67.34 47.02 67.69 47.26 67.86 46.61 68.72 46.69 69.41 46.93 69.59 46.93 70.97 47.18 71.14 47.18 71.31 47.42 71.83 47.02 72 46.93 72.17 47.02 72.52 46.77 72.86 46.45 73.21 46.13 74.76 45.89"/>
      </g>
      <g stroke-width="0.3" fill="#000000" fill-opacity="0.000" class="geometry color_newtests_pass" stroke-dasharray="none" stroke="#008000" id="fig-6a17337039dd46f8b8ae27268f9e2bd1-element-18">
        <path fill="none" d="M21.63,36.86 L 21.8 36.86 21.98 37.34 22.15 38.63 22.32 38.71 22.49 38.71 22.84 37.18 23.01 37.02 23.18 36.78 23.36 36.86 23.53 36.86 23.7 36.54 23.87 36.29 24.05 36.38 24.39 36.86 24.56 36.29 24.91 36.29 25.08 36.29 25.25 36.29 25.94 36.29 26.46 35.97 26.63 35.81 26.81 35.73 26.98 35.65 27.15 35.49 27.32 35.09 27.5 34.76 27.67 34.84 27.84 34.84 28.19 34.76 28.36 34.84 28.53 34.76 28.7 34.6 28.88 34.6 29.05 35.01 29.22 35.01 29.57 34.28 29.74 37.34 29.91 37.67 30.08 35.81 30.26 35.65 30.43 35.57 30.6 35.57 30.77 35.49 31.29 38.07 31.46 36.29 31.64 35.09 31.81 35.01 31.98 35.17 32.15 35.09 32.33 34.68 32.5 34.68 32.67 34.92 32.84 35.01 33.02 35.01 33.19 34.84 33.36 34.68 33.53 34.6 33.71 34.44 33.88 39.44 34.05 39.52 34.22 39.44 34.4 38.79 34.57 38.87 34.74 36.05 34.91 35.25 35.09 34.76 35.26 35.17 35.43 35.09 35.6 35.17 35.78 35.17 35.95 35.17 36.12 34.84 36.29 34.6 36.81 34.36 37.67 34.12 37.85 34.12 38.02 34.12 38.19 33.96 38.36 33.88 38.54 33.63 38.71 33.8 39.4 34.12 39.57 34.12 40.43 34.36 40.78 34.04 40.95 34.12 41.12 33.55 41.3 33.55 41.47 33.39 41.64 33.31 41.81 33.23 42.33 33.39 42.5 33.23 42.85 33.88 43.02 34.2 43.19 33.96 43.71 33.8 44.06 33.47 44.57 32.67 45.26 32.35 45.61 31.78 46.13 31.86 47.33 31.78 48.02 31.14 48.2 30.97 48.37 30.97 48.54 31.06 48.71 31.78 48.89 31.7 49.23 31.46 49.4 31.46 49.58 31.46 49.75 31.62 49.92 31.46 50.09 31.54 50.27 31.54 50.61 31.3 50.78 31.3 50.96 31.46 51.65 31.38 51.82 31.54 51.99 31.62 52.34 31.38 52.68 34.44 52.85 32.02 53.37 32.51 54.23 32.51 55.1 32.43 55.96 33.07 56.13 32.59 56.3 32.1 56.48 31.62 56.65 31.14 56.99 31.3 57.34 32.91 58.03 33.47 58.2 33.23 58.37 33.47 58.55 33.31 58.72 37.83 58.89 39.04 59.06 38.47 61.13 33.63 61.48 33.55 61.65 32.59 62 32.02 62.69 31.38 63.03 31.22 63.38 31.06 64.07 30.57 64.41 40.49 64.58 37.18 64.93 35.57 65.1 35.73 65.27 35.89 65.45 37.67 65.62 37.1 65.79 36.29 66.14 35.97 66.31 35.81 66.65 39.04 67 38.79 67.17 37.58 67.34 37.58 67.69 36.54 67.86 36.29 68.72 35.57 69.41 34.76 69.59 34.76 70.97 33.31 71.14 33.39 71.31 33.07 71.83 33.31 72 33.31 72.17 32.99 72.52 32.83 72.86 33.31 73.21 33.39 74.76 33.39"/>
      </g>
    </g>
  </g>
  <g class="guide ylabels" font-size="2.82" font-family="'PT Sans Caption','Helvetica Neue','Helvetica',sans-serif" fill="#6C606B" id="fig-6a17337039dd46f8b8ae27268f9e2bd1-element-19">
    <text x="18.63" y="54.91" text-anchor="end" dy="0.35em">0</text>
    <text x="18.63" y="46.85" text-anchor="end" dy="0.35em">100</text>
    <text x="18.63" y="38.79" text-anchor="end" dy="0.35em">200</text>
    <text x="18.63" y="30.73" text-anchor="end" dy="0.35em">300</text>
    <text x="18.63" y="22.67" text-anchor="end" dy="0.35em">400</text>
    <text x="18.63" y="14.61" text-anchor="end" dy="0.35em">500</text>
  </g>
  <g font-size="3.88" font-family="'PT Sans','Helvetica Neue','Helvetica',sans-serif" fill="#564A55" stroke="#000000" stroke-opacity="0.000" id="fig-6a17337039dd46f8b8ae27268f9e2bd1-element-20">
    <text x="8.81" y="32.76" text-anchor="middle" dy="0.35em" transform="rotate(-90, 8.81, 34.76)">Number of Packages</text>
  </g>
  <g font-size="3.88" font-family="'PT Sans','Helvetica Neue','Helvetica',sans-serif" fill="#564A55" stroke="#000000" stroke-opacity="0.000" id="fig-6a17337039dd46f8b8ae27268f9e2bd1-element-21">
    <text x="58.12" y="10.61" text-anchor="middle">Julia v0.4</text>
  </g>
</g>
<defs>
<clipPath id="fig-6a17337039dd46f8b8ae27268f9e2bd1-element-5">
  <path d="M19.63,12.61 L 96.6 12.61 96.6 56.91 19.63 56.91" />
</clipPath
></defs>
</svg>
