<?xml version="1.0" encoding="UTF-8"?>
<svg xmlns="http://www.w3.org/2000/svg"
     xmlns:xlink="http://www.w3.org/1999/xlink"
     xmlns:gadfly="http://www.gadflyjl.org/ns"
     version="1.2"
     width="101.6mm" height="76.2mm" viewBox="0 0 101.6 76.2"
     stroke="none"
     fill="#000000"
     stroke-width="0.3"
     font-size="3.88"
>
<g class="plotroot xscalable yscalable" id="img-4038b4a9-1">
  <g font-size="3.88" font-family="'PT Sans','Helvetica Neue','Helvetica',sans-serif" fill="#564A55" stroke="#000000" stroke-opacity="0.000" id="img-4038b4a9-2">
    <text x="58.12" y="64.59" text-anchor="middle" dy="0.6em">Date</text>
  </g>
  <g class="guide xlabels" font-size="2.82" font-family="'PT Sans Caption','Helvetica Neue','Helvetica',sans-serif" fill="#6C606B" id="img-4038b4a9-3">
    <text x="24.53" y="48.71" text-anchor="end" dy="0.35em" transform="rotate(-90, 24.53, 48.71)">Sep</text>
    <text x="29.11" y="48.71" text-anchor="end" dy="0.35em" transform="rotate(-90, 29.11, 48.71)">Oct</text>
    <text x="33.84" y="48.71" text-anchor="end" dy="0.35em" transform="rotate(-90, 33.84, 48.71)">Nov</text>
    <text x="38.42" y="48.71" text-anchor="end" dy="0.35em" transform="rotate(-90, 38.42, 48.71)">Dec</text>
    <text x="43.16" y="48.71" text-anchor="end" dy="0.35em" transform="rotate(-90, 43.16, 48.71)">Jan 2015</text>
    <text x="47.89" y="48.71" text-anchor="end" dy="0.35em" transform="rotate(-90, 47.89, 48.71)">Feb</text>
    <text x="52.16" y="48.71" text-anchor="end" dy="0.35em" transform="rotate(-90, 52.16, 48.71)">Mar</text>
    <text x="56.89" y="48.71" text-anchor="end" dy="0.35em" transform="rotate(-90, 56.89, 48.71)">Apr</text>
    <text x="61.47" y="48.71" text-anchor="end" dy="0.35em" transform="rotate(-90, 61.47, 48.71)">May</text>
    <text x="66.21" y="48.71" text-anchor="end" dy="0.35em" transform="rotate(-90, 66.21, 48.71)">Jun</text>
    <text x="70.79" y="48.71" text-anchor="end" dy="0.35em" transform="rotate(-90, 70.79, 48.71)">Jul</text>
    <text x="75.52" y="48.71" text-anchor="end" dy="0.35em" transform="rotate(-90, 75.52, 48.71)">Aug</text>
    <text x="80.25" y="48.71" text-anchor="end" dy="0.35em" transform="rotate(-90, 80.25, 48.71)">Sep</text>
    <text x="84.83" y="48.71" text-anchor="end" dy="0.35em" transform="rotate(-90, 84.83, 48.71)">Oct</text>
    <text x="89.56" y="48.71" text-anchor="end" dy="0.35em" transform="rotate(-90, 89.56, 48.71)">Nov</text>
    <text x="94.14" y="48.71" text-anchor="end" dy="0.35em" transform="rotate(-90, 94.14, 48.71)">Dec</text>
  </g>
<g clip-path="url(#img-4038b4a9-4)">
  <g id="img-4038b4a9-5">
    <g pointer-events="visible" opacity="1" fill="#000000" fill-opacity="0.000" stroke="#000000" stroke-opacity="0.000" class="guide background" id="img-4038b4a9-6">
      <rect x="19.63" y="12.61" width="76.97" height="35.1"/>
    </g>
    <g class="guide ygridlines xfixed" stroke-dasharray="0.5,0.5" stroke-width="0.2" stroke="#D0D0E0" id="img-4038b4a9-7">
      <path fill="none" d="M19.63,45.71 L 96.6 45.71"/>
      <path fill="none" d="M19.63,39.49 L 96.6 39.49"/>
      <path fill="none" d="M19.63,33.27 L 96.6 33.27"/>
      <path fill="none" d="M19.63,27.05 L 96.6 27.05"/>
      <path fill="none" d="M19.63,20.83 L 96.6 20.83"/>
      <path fill="none" d="M19.63,14.61 L 96.6 14.61"/>
    </g>
    <g class="guide xgridlines yfixed" stroke-dasharray="0.5,0.5" stroke-width="0.2" stroke="#D0D0E0" id="img-4038b4a9-8">
      <path fill="none" d="M24.53,12.61 L 24.53 47.71"/>
      <path fill="none" d="M29.11,12.61 L 29.11 47.71"/>
      <path fill="none" d="M33.84,12.61 L 33.84 47.71"/>
      <path fill="none" d="M38.42,12.61 L 38.42 47.71"/>
      <path fill="none" d="M43.16,12.61 L 43.16 47.71"/>
      <path fill="none" d="M47.89,12.61 L 47.89 47.71"/>
      <path fill="none" d="M52.16,12.61 L 52.16 47.71"/>
      <path fill="none" d="M56.89,12.61 L 56.89 47.71"/>
      <path fill="none" d="M61.47,12.61 L 61.47 47.71"/>
      <path fill="none" d="M66.21,12.61 L 66.21 47.71"/>
      <path fill="none" d="M70.79,12.61 L 70.79 47.71"/>
      <path fill="none" d="M75.52,12.61 L 75.52 47.71"/>
      <path fill="none" d="M80.25,12.61 L 80.25 47.71"/>
      <path fill="none" d="M84.83,12.61 L 84.83 47.71"/>
      <path fill="none" d="M89.56,12.61 L 89.56 47.71"/>
      <path fill="none" d="M94.14,12.61 L 94.14 47.71"/>
    </g>
    <g class="plotpanel" id="img-4038b4a9-9">
      <g stroke-width="0.3" fill="#000000" fill-opacity="0.000" class="geometry color_newnot_possible" stroke-dasharray="none" stroke="#808080" id="img-4038b4a9-10">
        <path fill="none" d="M69.11,42.35 L 69.26 42.35 69.41 42.35 69.56 42.35 69.72 42.35 69.87 42.35 70.02 42.35 70.18 42.35 70.63 42.35 70.94 42.35 71.24 42.35 71.4 42.35 71.55 42.35 71.7 42.35 71.85 42.35 72.01 42.35 74.6 42.29 75.82 42.29 77.2 42.29 79.79 42.29 80.25 42.29 81.01 42.29 81.78 41.91 84.22 41.91 84.83 41.91 85.59 41.85 86.2 41.79 86.81 41.79 87.27 41.73 89.1 41.73 90.94 41.67 91.55 41.67 91.85 41.6 93.23 41.6 93.38 41.6 94.45 41.6 94.6 41.54"/>
      </g>
      <g stroke-width="0.3" fill="#000000" fill-opacity="0.000" class="geometry color_newno_tests" stroke-dasharray="none" stroke="#0000FF" id="img-4038b4a9-11">
        <path fill="none" d="M69.11,38.99 L 69.26 38.99 69.41 38.99 69.56 38.99 69.72 38.99 69.87 38.99 70.02 38.99 70.18 38.99 70.63 38.99 70.94 38.99 71.24 38.99 71.4 38.99 71.55 39.05 71.7 39.05 71.85 39.05 72.01 39.12 74.6 39.05 75.82 39.05 77.2 39.05 79.79 39.05 80.25 39.12 81.01 39.12 81.78 39.18 84.22 39.43 84.83 39.61 85.59 39.74 86.2 40.8 86.81 40.86 87.27 40.98 89.1 41.04 90.94 41.11 91.55 41.11 91.85 41.11 93.23 41.11 93.38 41.11 94.45 41.11 94.6 41.11"/>
      </g>
      <g stroke-width="0.3" fill="#000000" fill-opacity="0.000" class="geometry color_newtests_fail" stroke-dasharray="none" stroke="#FF0000" id="img-4038b4a9-12">
        <path fill="none" d="M69.11,33.02 L 69.26 33.46 69.41 33.33 69.56 32.09 69.72 32.03 69.87 32.21 70.02 32.21 70.18 33.21 70.63 32.65 70.94 32.65 71.24 33.33 71.4 33.46 71.55 32.03 71.7 33.27 71.85 32.34 72.01 32.77 74.6 33.27 75.82 32.9 77.2 33.46 79.79 33.21 80.25 33.52 81.01 33.83 81.78 34.7 84.22 34.51 84.83 34.89 85.59 35.07 86.2 35.7 86.81 35.94 87.27 36.38 89.1 36.13 90.94 36.25 91.55 36.44 91.85 36.63 93.23 36.63 93.38 36.81 94.45 36.57 94.6 36.88"/>
      </g>
      <g stroke-width="0.3" fill="#000000" fill-opacity="0.000" class="geometry color_newtests_pass" stroke-dasharray="none" stroke="#008000" id="img-4038b4a9-13">
        <path fill="none" d="M69.11,30.35 L 69.26 29.91 69.41 29.91 69.56 31.16 69.72 31.03 69.87 30.84 70.02 30.84 70.18 29.79 70.63 30.28 70.94 30.16 71.24 29.48 71.4 29.23 71.55 30.35 71.7 28.98 71.85 29.85 72.01 29.35 74.6 28.05 75.82 28.05 77.2 27.17 79.79 25.87 80.25 25.37 81.01 24.81 81.78 23.82 84.22 22.57 84.83 21.64 85.59 20.83 86.2 20.77 86.81 20.15 87.27 19.46 89.1 18.28 90.94 17.47 91.55 17.22 91.85 16.85 93.23 16.6 93.38 16.42 94.45 16.35 94.6 16.04"/>
      </g>
      <g stroke-width="0.3" fill="#000000" fill-opacity="0.000" class="geometry color_newnot_possible" stroke-dasharray="none" stroke="#808080" id="img-4038b4a9-14">
        <path fill="none" d="M21.63,43.34 L 21.78 43.28 21.94 43.22 22.09 43.22 22.24 43.22 22.39 43.22 22.7 43.22 22.85 43.22 23.01 43.22 23.16 43.22 23.31 43.22 23.46 43.22 23.62 43.22 23.77 43.22 24.07 43.22 24.23 43.16 24.53 43.16 24.68 43.16 24.84 43.1 25.45 43.1 25.91 43.1 26.06 43.1 26.21 43.1 26.36 43.1 26.52 43.1 26.67 43.1 26.82 43.1 26.97 43.1 27.13 43.1 27.43 43.03 27.59 43.03 27.74 43.03 27.89 43.03 28.04 43.03 28.2 43.03 28.35 42.97 28.65 42.97 28.81 42.97 28.96 42.97 29.11 42.97 29.26 42.91 29.42 42.91 29.57 42.91 29.72 42.91 30.18 42.91 30.33 42.85 30.49 42.85 30.64 42.85 30.79 42.85 30.94 42.85 31.1 42.85 31.25 42.85 31.4 42.85 31.55 42.85 31.71 42.79 31.86 42.79 32.01 42.79 32.16 42.79 32.32 42.79 32.47 42.79 32.62 42.79 32.78 42.79 32.93 42.79 33.08 42.79 33.23 42.79 33.39 42.79 33.54 42.79 33.69 42.79 33.84 42.79 34 42.79 34.15 42.79 34.3 42.79 34.45 42.79 34.61 42.79 35.07 42.79 35.83 42.79 35.98 42.79 36.13 42.79 36.29 42.79 36.44 42.79 36.59 42.79 36.74 42.79 37.35 42.79 37.51 42.79 38.27 42.79 38.58 42.79 38.73 42.85 38.88 42.85 39.03 42.85 39.19 42.85 39.34 42.85 39.49 42.85 39.95 42.85 40.1 42.85 40.41 42.85 40.56 42.85 40.71 42.85 41.17 42.85 41.48 42.85 41.93 42.85 42.55 42.85 42.85 42.85 43.31 42.85 44.38 42.85 44.99 42.85 45.14 42.72 45.29 42.72 45.45 42.66 45.6 42.66 45.75 42.66 46.06 42.66 46.21 42.66 46.36 42.66 46.51 42.6 46.67 42.6 46.82 42.6 46.97 42.6 47.28 42.54 47.43 42.54 47.58 42.54 48.19 42.54 48.35 42.54 48.5 42.54 48.8 42.54 49.11 42.54 49.26 42.54 49.72 42.54 50.48 42.54 51.25 42.54 52.01 42.54 52.16 42.54 52.32 42.54 52.47 42.1 52.62 42.16 52.93 42.1 53.23 42.1 53.84 42.1 53.99 42.1 54.15 42.1 54.3 42.1 54.45 42.1 54.6 42.16 54.76 42.1 56.59 42.04 56.89 41.98 57.05 41.98 57.35 41.98 57.96 41.98 58.27 41.98 58.57 41.98 59.18 41.98 59.49 41.98 59.64 41.98 59.95 41.98 60.1 41.98 60.25 41.98 60.41 41.98 60.56 41.98 60.71 41.98 61.02 41.98 61.17 41.98 61.47 41.98 61.78 41.98 61.93 41.98 62.08 41.98 62.39 41.98 62.54 41.98 63.31 41.98 63.92 42.04 64.07 41.98 65.29 41.98 65.44 41.85 65.6 41.85 66.05 41.85 66.21 41.85 66.36 41.91 66.66 41.91 66.97 41.91 67.28 41.91 68.65 41.91"/>
      </g>
      <g stroke-width="0.3" fill="#000000" fill-opacity="0.000" class="geometry color_newtests_fail" stroke-dasharray="none" stroke="#FF0000" id="img-4038b4a9-15">
        <path fill="none" d="M21.63,44.34 L 21.78 44.28 21.94 44.46 22.09 43.1 22.24 43.1 22.39 43.1 22.7 44.4 22.85 44.46 23.01 44.4 23.16 44.53 23.31 44.59 23.46 44.53 23.62 44.53 23.77 44.59 24.07 44.15 24.23 44.03 24.53 43.97 24.68 43.97 24.84 44.03 25.45 44.03 25.91 44.15 26.06 44.15 26.21 44.15 26.36 44.22 26.52 44.28 26.67 44.46 26.82 44.46 26.97 44.46 27.13 44.46 27.43 44.34 27.59 44.28 27.74 44.34 27.89 44.34 28.04 44.4 28.2 44.28 28.35 44.15 28.65 44.59 28.81 42.66 28.96 42.6 29.11 43.78 29.26 43.78 29.42 43.84 29.57 43.84 29.72 43.84 30.18 42.66 30.33 43.59 30.49 43.78 30.64 43.84 30.79 43.9 30.94 43.78 31.1 43.9 31.25 43.9 31.4 43.78 31.55 43.72 31.71 43.53 31.86 43.66 32.01 43.84 32.16 43.84 32.32 43.84 32.47 38.93 32.62 38.93 32.78 38.93 32.93 39.61 33.08 39.61 33.23 43.66 33.39 43.72 33.54 43.78 33.69 43.78 33.84 43.78 34 43.78 34.15 43.78 34.3 43.78 34.45 43.84 34.61 43.78 35.07 43.97 35.83 43.9 35.98 43.9 36.13 43.9 36.29 43.9 36.44 43.9 36.59 43.84 36.74 43.84 37.35 43.84 37.51 43.78 38.27 43.9 38.58 43.97 38.73 43.59 38.88 43.9 39.03 43.84 39.19 43.9 39.34 43.9 39.49 43.9 39.95 44.09 40.1 44.09 40.41 43.41 40.56 43.41 40.71 43.41 41.17 43.41 41.48 43.41 41.93 44.15 42.55 44.15 42.85 44.09 43.31 44.15 44.38 44.03 44.99 43.9 45.14 44.03 45.29 44.03 45.45 43.84 45.6 43.47 45.75 43.47 46.06 43.47 46.21 43.47 46.36 43.47 46.51 43.47 46.67 43.47 46.82 43.47 46.97 43.47 47.28 43.47 47.43 43.41 47.58 43.41 48.19 43.1 48.35 43.1 48.5 43.1 48.8 43.03 49.11 38.99 49.26 43.03 49.72 42.85 50.48 42.85 51.25 42.79 52.01 41.23 52.16 41.79 52.32 42.29 52.47 42.97 52.62 43.16 52.93 43.16 53.23 42.79 53.84 42.85 53.99 42.85 54.15 42.79 54.3 42.79 54.45 36.38 54.6 34.7 54.76 35.63 56.59 41.42 56.89 41.6 57.05 42.72 57.35 42.79 57.96 42.79 58.27 42.79 58.57 42.85 59.18 42.79 59.49 32.71 59.64 35.7 59.95 37.69 60.1 37.69 60.25 37.69 60.41 37.37 60.56 37.44 60.71 37.75 61.02 37.87 61.17 37.75 61.47 33.58 61.78 33.77 61.93 34.95 62.08 34.95 62.39 35.45 62.54 36.13 63.31 36.38 63.92 36.69 64.07 36.63 65.29 37.44 65.44 37.5 65.6 37.56 66.05 37.44 66.21 37.44 66.36 37.44 66.66 37.62 66.97 37.5 67.28 37.56 68.65 37.31"/>
      </g>
      <g stroke-width="0.3" fill="#000000" fill-opacity="0.000" class="geometry color_newno_tests" stroke-dasharray="none" stroke="#0000FF" id="img-4038b4a9-16">
        <path fill="none" d="M21.63,42.72 L 21.78 42.66 21.94 42.66 22.09 43.03 22.24 43.03 22.39 43.03 22.7 42.72 22.85 42.72 23.01 42.79 23.16 42.79 23.31 42.79 23.46 42.79 23.62 42.79 23.77 42.85 24.07 43.03 24.23 43.1 24.53 43.1 24.68 43.1 24.84 43.1 25.45 43.1 25.91 43.03 26.06 43.03 26.21 42.97 26.36 42.97 26.52 42.97 26.67 42.97 26.82 42.97 26.97 43.03 27.13 43.03 27.43 42.97 27.59 43.03 27.74 42.97 27.89 42.97 28.04 42.97 28.2 42.97 28.35 43.1 28.65 42.97 28.81 43.16 28.96 43.16 29.11 42.97 29.26 42.97 29.42 42.97 29.57 42.97 29.72 42.97 30.18 43.22 30.33 43.03 30.49 42.97 30.64 42.97 30.79 42.97 30.94 42.97 31.1 42.97 31.25 42.97 31.4 42.97 31.55 42.97 31.71 42.97 31.86 42.97 32.01 42.97 32.16 42.97 32.32 42.97 32.47 43.34 32.62 43.34 32.78 43.34 32.93 43.22 33.08 43.22 33.23 42.97 33.39 42.97 33.54 42.97 33.69 42.97 33.84 42.97 34 42.97 34.15 42.97 34.3 42.97 34.45 42.97 34.61 42.97 35.07 42.97 35.83 42.97 35.98 42.97 36.13 42.97 36.29 42.97 36.44 42.97 36.59 42.97 36.74 42.97 37.35 42.97 37.51 42.97 38.27 42.97 38.58 42.97 38.73 42.97 38.88 42.97 39.03 43.03 39.19 42.97 39.34 42.97 39.49 42.97 39.95 42.97 40.1 42.97 40.41 42.97 40.56 42.97 40.71 42.97 41.17 42.97 41.48 42.97 41.93 42.91 42.55 42.97 42.85 42.91 43.31 42.91 44.38 42.91 44.99 42.91 45.14 42.91 45.29 42.91 45.45 42.91 45.6 42.91 45.75 42.91 46.06 42.91 46.21 42.91 46.36 42.91 46.51 42.91 46.67 42.91 46.82 42.91 46.97 42.91 47.28 42.91 47.43 42.91 47.58 42.91 48.19 42.97 48.35 42.97 48.5 42.97 48.8 42.97 49.11 43.1 49.26 42.91 49.72 42.91 50.48 42.91 51.25 42.91 52.01 43.1 52.16 43.03 52.32 43.03 52.47 43.03 52.62 42.97 52.93 42.97 53.23 43.03 53.84 43.03 53.99 43.03 54.15 43.1 54.3 43.1 54.45 43.78 54.6 43.84 54.76 43.84 56.59 43.1 56.89 43.1 57.05 43.1 57.35 43.1 57.96 43.1 58.27 43.1 58.57 43.1 59.18 43.16 59.49 43.66 59.64 43.53 59.95 43.47 60.1 43.41 60.25 43.47 60.41 43.47 60.56 43.47 60.71 43.47 61.02 43.47 61.17 43.53 61.47 43.72 61.78 43.59 61.93 43.53 62.08 43.53 62.39 43.53 62.54 43.47 63.31 43.47 63.92 43.41 64.07 43.41 65.29 43.34 65.44 43.34 65.6 43.34 66.05 43.34 66.21 43.34 66.36 43.34 66.66 43.34 66.97 43.34 67.28 43.34 68.65 43.34"/>
      </g>
      <g stroke-width="0.3" fill="#000000" fill-opacity="0.000" class="geometry color_oldfull_fail" stroke-dasharray="none" stroke="#FFA500" id="img-4038b4a9-17">
        <path fill="none" d="M21.63,43.72 L 21.78 43.72 21.94 43.16 22.09 43.1 22.24 43.03 22.39 43.03 22.7 43.03 22.85 43.1 23.01 43.22 23.16 43.03 23.31 42.97 23.46 43.1 23.62 43.16 23.77 42.97 24.07 42.72 24.23 43.1 24.53 43.03 24.68 43.03 24.84 43.03 25.45 43.03 25.91 42.85 26.06 42.91 26.21 42.97 26.36 42.85 26.52 42.91 26.67 43.03 26.82 42.79 26.97 42.66 27.13 42.66 27.43 42.91 27.59 42.85 27.74 42.85 27.89 42.97 28.04 42.91 28.2 42.66 28.35 42.72 28.65 43.03 28.81 42.35 28.96 42.16 29.11 42.47 29.26 42.54 29.42 42.54 29.57 42.54 29.72 42.47 30.18 41.29 30.33 41.98 30.49 42.66 30.64 42.6 30.79 42.41 30.94 42.6 31.1 42.66 31.25 42.66 31.4 42.54 31.55 42.47 31.71 42.72 31.86 42.72 32.01 42.66 32.16 42.6 32.32 42.6 32.47 43.28 32.62 43.22 32.78 43.22 32.93 43.16 33.08 43.03 33.23 41.42 33.39 41.85 33.54 42.1 33.69 41.79 33.84 41.79 34 41.73 34.15 41.73 34.3 41.73 34.45 41.85 34.61 42.04 35.07 42.04 35.83 41.91 35.98 41.79 36.13 41.79 36.29 41.85 36.44 41.91 36.59 41.98 36.74 41.85 37.35 41.29 37.51 41.35 38.27 40.98 38.58 41.17 38.73 41.29 38.88 41.35 39.03 41.35 39.19 41.48 39.34 41.42 39.49 41.35 39.95 40.98 40.1 41.04 40.41 40.98 40.56 40.73 40.71 40.92 41.17 41.04 41.48 41.17 41.93 40.98 42.55 41.04 42.85 41.35 43.31 41.11 44.38 40.86 44.99 41.04 45.14 41.04 45.29 41.04 45.45 40.86 45.6 40.67 45.75 40.73 46.06 40.86 46.21 40.8 46.36 40.8 46.51 40.55 46.67 40.61 46.82 40.55 46.97 40.55 47.28 40.61 47.43 40.48 47.58 40.3 48.19 40.11 48.35 39.99 48.5 40.11 48.8 40.17 49.11 41.54 49.26 39.55 49.72 39.24 50.48 39.24 51.25 39.3 52.01 39.61 52.16 39.49 52.32 39.36 52.47 39.36 52.62 39.55 52.93 39.36 53.23 38.43 53.84 37.87 53.99 37.93 54.15 37.75 54.3 37.87 54.45 39.99 54.6 40.67 54.76 40.11 56.59 38.62 56.89 38.56 57.05 38 57.35 38.37 57.96 38.8 58.27 38.87 58.57 38.74 59.18 38.99 59.49 40.8 59.64 40.3 59.95 39.3 60.1 39.24 60.25 38.99 60.41 37.81 60.56 38.18 60.71 38.43 61.02 38.49 61.17 38.56 61.47 40.05 61.78 40.05 61.93 39.68 62.08 39.61 62.39 39.8 62.54 39.3 63.31 39.36 63.92 39.55 64.07 39.55 65.29 39.74 65.44 39.74 65.6 39.92 66.05 39.61 66.21 39.55 66.36 39.61 66.66 39.43 66.97 39.18 67.28 38.93 68.65 38.74"/>
      </g>
      <g stroke-width="0.3" fill="#000000" fill-opacity="0.000" class="geometry color_newtests_pass" stroke-dasharray="none" stroke="#008000" id="img-4038b4a9-18">
        <path fill="none" d="M21.63,31.78 L 21.78 31.78 21.94 32.15 22.09 33.15 22.24 33.21 22.39 33.21 22.7 32.03 22.85 31.9 23.01 31.71 23.16 31.78 23.31 31.78 23.46 31.53 23.62 31.34 23.77 31.4 24.07 31.78 24.23 31.34 24.53 31.34 24.68 31.34 24.84 31.34 25.45 31.34 25.91 31.09 26.06 30.97 26.21 30.91 26.36 30.84 26.52 30.72 26.67 30.41 26.82 30.16 26.97 30.22 27.13 30.22 27.43 30.16 27.59 30.22 27.74 30.16 27.89 30.04 28.04 30.04 28.2 30.35 28.35 30.35 28.65 29.79 28.81 32.15 28.96 32.4 29.11 30.97 29.26 30.84 29.42 30.78 29.57 30.78 29.72 30.72 30.18 32.71 30.33 31.34 30.49 30.41 30.64 30.35 30.79 30.47 30.94 30.41 31.1 30.1 31.25 30.1 31.4 30.28 31.55 30.35 31.71 30.35 31.86 30.22 32.01 30.1 32.16 30.04 32.32 29.91 32.47 33.77 32.62 33.83 32.78 33.77 32.93 33.27 33.08 33.33 33.23 31.16 33.39 30.53 33.54 30.16 33.69 30.47 33.84 30.41 34 30.47 34.15 30.47 34.3 30.47 34.45 30.22 34.61 30.04 35.07 29.85 35.83 29.66 35.98 29.66 36.13 29.66 36.29 29.54 36.44 29.48 36.59 29.29 36.74 29.41 37.35 29.66 37.51 29.66 38.27 29.85 38.58 29.6 38.73 29.66 38.88 29.23 39.03 29.23 39.19 29.1 39.34 29.04 39.49 28.98 39.95 29.1 40.1 28.98 40.41 29.48 40.56 29.72 40.71 29.54 41.17 29.41 41.48 29.16 41.93 28.54 42.55 28.29 42.85 27.86 43.31 27.92 44.38 27.86 44.99 27.36 45.14 27.24 45.29 27.24 45.45 27.3 45.6 27.86 45.75 27.8 46.06 27.61 46.21 27.61 46.36 27.61 46.51 27.73 46.67 27.61 46.82 27.67 46.97 27.67 47.28 27.49 47.43 27.49 47.58 27.61 48.19 27.55 48.35 27.67 48.5 27.73 48.8 27.55 49.11 29.91 49.26 28.05 49.72 28.42 50.48 28.42 51.25 28.36 52.01 28.85 52.16 28.48 52.32 28.11 52.47 27.73 52.62 27.36 52.93 27.49 53.23 28.73 53.84 29.16 53.99 28.98 54.15 29.16 54.3 29.04 54.45 32.52 54.6 33.46 54.76 33.02 56.59 29.29 56.89 29.23 57.05 28.48 57.35 28.05 57.96 27.55 58.27 27.42 58.57 27.3 59.18 26.93 59.49 34.58 59.64 32.03 59.95 30.78 60.1 30.91 60.25 31.03 60.41 32.4 60.56 31.96 60.71 31.34 61.02 31.09 61.17 30.97 61.47 33.46 61.78 33.27 61.93 32.34 62.08 32.34 62.39 31.53 62.54 31.34 63.31 30.78 63.92 30.16 64.07 30.16 65.29 29.04 65.44 29.1 65.6 28.85 66.05 29.04 66.21 29.04 66.36 28.79 66.66 28.67 66.97 29.04 67.28 29.1 68.65 29.1"/>
      </g>
    </g>
  </g>
</g>
  <g class="guide ylabels" font-size="2.82" font-family="'PT Sans Caption','Helvetica Neue','Helvetica',sans-serif" fill="#6C606B" id="img-4038b4a9-19">
    <text x="18.63" y="45.71" text-anchor="end" dy="0.35em">0</text>
    <text x="18.63" y="39.49" text-anchor="end" dy="0.35em">100</text>
    <text x="18.63" y="33.27" text-anchor="end" dy="0.35em">200</text>
    <text x="18.63" y="27.05" text-anchor="end" dy="0.35em">300</text>
    <text x="18.63" y="20.83" text-anchor="end" dy="0.35em">400</text>
    <text x="18.63" y="14.61" text-anchor="end" dy="0.35em">500</text>
  </g>
  <g font-size="3.88" font-family="'PT Sans','Helvetica Neue','Helvetica',sans-serif" fill="#564A55" stroke="#000000" stroke-opacity="0.000" id="img-4038b4a9-20">
    <text x="8.81" y="28.16" text-anchor="middle" dy="0.35em" transform="rotate(-90, 8.81, 30.16)">Number of Packages</text>
  </g>
  <g font-size="3.88" font-family="'PT Sans','Helvetica Neue','Helvetica',sans-serif" fill="#564A55" stroke="#000000" stroke-opacity="0.000" id="img-4038b4a9-21">
    <text x="58.12" y="10.61" text-anchor="middle">Julia v0.4</text>
  </g>
</g>
<defs>
  <clipPath id="img-4038b4a9-4">
  <path d="M19.63,12.61 L 96.6 12.61 96.6 47.71 19.63 47.71" />
</clipPath>
</defs>
</svg>
