<?xml version="1.0" encoding="UTF-8"?>
<svg xmlns="http://www.w3.org/2000/svg"
     xmlns:xlink="http://www.w3.org/1999/xlink"
     xmlns:gadfly="http://www.gadflyjl.org/ns"
     version="1.2"
     width="101.6mm" height="76.2mm" viewBox="0 0 101.6 76.2"
     stroke="none"
     fill="#000000"
     stroke-width="0.3"
     font-size="3.88"
>
<g class="plotroot xscalable yscalable" id="img-4ea48858-1">
  <g font-size="3.88" font-family="'PT Sans','Helvetica Neue','Helvetica',sans-serif" fill="#564A55" stroke="#000000" stroke-opacity="0.000" id="img-4ea48858-2">
    <text x="58.12" y="64.59" text-anchor="middle" dy="0.6em">Date</text>
  </g>
  <g class="guide xlabels" font-size="2.82" font-family="'PT Sans Caption','Helvetica Neue','Helvetica',sans-serif" fill="#6C606B" id="img-4ea48858-3">
    <text x="24.53" y="48.71" text-anchor="end" dy="0.35em" transform="rotate(-90, 24.53, 48.71)">Sep</text>
    <text x="29.11" y="48.71" text-anchor="end" dy="0.35em" transform="rotate(-90, 29.11, 48.71)">Oct</text>
    <text x="33.84" y="48.71" text-anchor="end" dy="0.35em" transform="rotate(-90, 33.84, 48.71)">Nov</text>
    <text x="38.42" y="48.71" text-anchor="end" dy="0.35em" transform="rotate(-90, 38.42, 48.71)">Dec</text>
    <text x="43.16" y="48.71" text-anchor="end" dy="0.35em" transform="rotate(-90, 43.16, 48.71)">Jan 2015</text>
    <text x="47.89" y="48.71" text-anchor="end" dy="0.35em" transform="rotate(-90, 47.89, 48.71)">Feb</text>
    <text x="52.16" y="48.71" text-anchor="end" dy="0.35em" transform="rotate(-90, 52.16, 48.71)">Mar</text>
    <text x="56.89" y="48.71" text-anchor="end" dy="0.35em" transform="rotate(-90, 56.89, 48.71)">Apr</text>
    <text x="61.47" y="48.71" text-anchor="end" dy="0.35em" transform="rotate(-90, 61.47, 48.71)">May</text>
    <text x="66.21" y="48.71" text-anchor="end" dy="0.35em" transform="rotate(-90, 66.21, 48.71)">Jun</text>
    <text x="70.79" y="48.71" text-anchor="end" dy="0.35em" transform="rotate(-90, 70.79, 48.71)">Jul</text>
    <text x="75.52" y="48.71" text-anchor="end" dy="0.35em" transform="rotate(-90, 75.52, 48.71)">Aug</text>
    <text x="80.25" y="48.71" text-anchor="end" dy="0.35em" transform="rotate(-90, 80.25, 48.71)">Sep</text>
    <text x="84.83" y="48.71" text-anchor="end" dy="0.35em" transform="rotate(-90, 84.83, 48.71)">Oct</text>
    <text x="89.56" y="48.71" text-anchor="end" dy="0.35em" transform="rotate(-90, 89.56, 48.71)">Nov</text>
    <text x="94.14" y="48.71" text-anchor="end" dy="0.35em" transform="rotate(-90, 94.14, 48.71)">Dec</text>
  </g>
<g clip-path="url(#img-4ea48858-4)">
  <g id="img-4ea48858-5">
    <g pointer-events="visible" opacity="1" fill="#000000" fill-opacity="0.000" stroke="#000000" stroke-opacity="0.000" class="guide background" id="img-4ea48858-6">
      <rect x="19.63" y="12.61" width="76.97" height="35.1"/>
    </g>
    <g class="guide ygridlines xfixed" stroke-dasharray="0.5,0.5" stroke-width="0.2" stroke="#D0D0E0" id="img-4ea48858-7">
      <path fill="none" d="M19.63,45.71 L 96.6 45.71"/>
      <path fill="none" d="M19.63,30.16 L 96.6 30.16"/>
      <path fill="none" d="M19.63,14.61 L 96.6 14.61"/>
    </g>
    <g class="guide xgridlines yfixed" stroke-dasharray="0.5,0.5" stroke-width="0.2" stroke="#D0D0E0" id="img-4ea48858-8">
      <path fill="none" d="M24.53,12.61 L 24.53 47.71"/>
      <path fill="none" d="M29.11,12.61 L 29.11 47.71"/>
      <path fill="none" d="M33.84,12.61 L 33.84 47.71"/>
      <path fill="none" d="M38.42,12.61 L 38.42 47.71"/>
      <path fill="none" d="M43.16,12.61 L 43.16 47.71"/>
      <path fill="none" d="M47.89,12.61 L 47.89 47.71"/>
      <path fill="none" d="M52.16,12.61 L 52.16 47.71"/>
      <path fill="none" d="M56.89,12.61 L 56.89 47.71"/>
      <path fill="none" d="M61.47,12.61 L 61.47 47.71"/>
      <path fill="none" d="M66.21,12.61 L 66.21 47.71"/>
      <path fill="none" d="M70.79,12.61 L 70.79 47.71"/>
      <path fill="none" d="M75.52,12.61 L 75.52 47.71"/>
      <path fill="none" d="M80.25,12.61 L 80.25 47.71"/>
      <path fill="none" d="M84.83,12.61 L 84.83 47.71"/>
      <path fill="none" d="M89.56,12.61 L 89.56 47.71"/>
      <path fill="none" d="M94.14,12.61 L 94.14 47.71"/>
    </g>
    <g class="plotpanel" id="img-4ea48858-9">
      <g stroke-width="0.3" fill="#000000" fill-opacity="0.000" class="geometry color_newnot_possible" stroke-dasharray="none" stroke="#808080" id="img-4ea48858-10">
        <path fill="none" d="M69.11,42.97 L 69.26 42.97 69.41 42.98 69.56 42.98 69.72 42.99 69.87 42.99 70.02 42.99 70.18 43 70.63 43 70.94 43.01 71.24 43.01 71.4 43.02 71.55 43.03 71.7 43.04 71.85 43.05 72.01 43.05 74.6 43.06 75.82 43.09 77.2 43.11 79.79 43.2 80.25 43.21 81.01 43.22 81.78 42.98 84.22 43.05 84.83 43.07 85.59 43.06 86.2 42.93 86.81 42.95 87.27 42.91 89.1 43 90.94 43 91.55 43 91.85 42.97 93.23 42.99 93.38 42.99 94.45 43 94.6 42.97"/>
      </g>
      <g stroke-width="0.3" fill="#000000" fill-opacity="0.000" class="geometry color_newno_tests" stroke-dasharray="none" stroke="#0000FF" id="img-4ea48858-11">
        <path fill="none" d="M69.11,40.23 L 69.26 40.23 69.41 40.25 69.56 40.25 69.72 40.27 69.87 40.27 70.02 40.27 70.18 40.28 70.63 40.29 70.94 40.31 71.24 40.31 71.4 40.33 71.55 40.41 71.7 40.43 71.85 40.44 72.01 40.48 74.6 40.56 75.82 40.61 77.2 40.64 79.79 40.83 80.25 40.89 81.01 40.92 81.78 41.01 84.22 41.31 84.83 41.48 85.59 41.61 86.2 42.22 86.81 42.29 87.27 42.39 89.1 42.53 90.94 42.62 91.55 42.62 91.85 42.64 93.23 42.66 93.38 42.66 94.45 42.68 94.6 42.68"/>
      </g>
      <g stroke-width="0.3" fill="#000000" fill-opacity="0.000" class="geometry color_newtests_fail" stroke-dasharray="none" stroke="#FF0000" id="img-4ea48858-12">
        <path fill="none" d="M69.11,35.36 L 69.26 35.71 69.41 35.65 69.56 34.63 69.72 34.64 69.87 34.79 70.02 34.79 70.18 35.61 70.63 35.18 70.94 35.21 71.24 35.76 71.4 35.89 71.55 34.81 71.7 35.84 71.85 35.11 72.01 35.46 74.6 36.08 75.82 35.88 77.2 36.38 79.79 36.54 80.25 36.8 81.01 37.08 81.78 37.79 84.22 37.87 84.83 38.19 85.59 38.41 86.2 38.6 86.81 38.82 87.27 39.16 89.1 39.18 90.94 39.36 91.55 39.5 91.85 39.65 93.23 39.69 93.38 39.81 94.45 39.69 94.6 39.9"/>
      </g>
      <g stroke-width="0.3" fill="#000000" fill-opacity="0.000" class="geometry color_newtests_pass" stroke-dasharray="none" stroke="#008000" id="img-4ea48858-13">
        <path fill="none" d="M69.11,33.18 L 69.26 32.82 69.41 32.87 69.56 33.88 69.72 33.83 69.87 33.68 70.02 33.68 70.18 32.85 70.63 33.27 70.94 33.21 71.24 32.66 71.4 32.5 71.55 33.48 71.7 32.43 71.85 33.14 72.01 32.75 74.6 32.04 75.82 32.16 77.2 31.6 79.79 31.16 80.25 30.84 81.01 30.52 81.78 29.96 84.22 29.51 84.83 28.99 85.59 28.65 86.2 28 86.81 27.68 87.27 27.28 89.1 27.02 90.94 26.76 91.55 26.62 91.85 26.47 93.23 26.41 93.38 26.28 94.45 26.37 94.6 26.19"/>
      </g>
      <g stroke-width="0.3" fill="#000000" fill-opacity="0.000" class="geometry color_newnot_possible" stroke-dasharray="none" stroke="#808080" id="img-4ea48858-14">
        <path fill="none" d="M21.63,42.46 L 21.78 42.4 21.94 42.33 22.09 42.34 22.24 42.34 22.39 42.34 22.7 42.36 22.85 42.36 23.01 42.37 23.16 42.37 23.31 42.37 23.46 42.4 23.62 42.42 23.77 42.42 24.07 42.44 24.23 42.38 24.53 42.4 24.68 42.4 24.84 42.32 25.45 42.32 25.91 42.37 26.06 42.38 26.21 42.39 26.36 42.4 26.52 42.4 26.67 42.4 26.82 42.47 26.97 42.47 27.13 42.47 27.43 42.4 27.59 42.4 27.74 42.41 27.89 42.41 28.04 42.41 28.2 42.41 28.35 42.34 28.65 42.33 28.81 42.34 28.96 42.34 29.11 42.35 29.26 42.3 29.42 42.3 29.57 42.3 29.72 42.31 30.18 42.33 30.33 42.25 30.49 42.27 30.64 42.28 30.79 42.28 30.94 42.28 31.1 42.29 31.25 42.29 31.4 42.3 31.55 42.31 31.71 42.24 31.86 42.24 32.01 42.24 32.16 42.25 32.32 42.27 32.47 42.27 32.62 42.27 32.78 42.28 32.93 42.28 33.08 42.29 33.23 42.29 33.39 42.3 33.54 42.31 33.69 42.31 33.84 42.32 34 42.32 34.15 42.32 34.3 42.32 34.45 42.33 34.61 42.33 35.07 42.33 35.83 42.38 35.98 42.39 36.13 42.39 36.29 42.4 36.44 42.4 36.59 42.42 36.74 42.42 37.35 42.46 37.51 42.46 38.27 42.47 38.58 42.47 38.73 42.55 38.88 42.56 39.03 42.56 39.19 42.56 39.34 42.57 39.49 42.59 39.95 42.59 40.1 42.6 40.41 42.63 40.56 42.63 40.71 42.63 41.17 42.63 41.48 42.64 41.93 42.65 42.55 42.66 42.85 42.69 43.31 42.7 44.38 42.75 44.99 42.79 45.14 42.67 45.29 42.67 45.45 42.65 45.6 42.65 45.75 42.65 46.06 42.65 46.21 42.66 46.36 42.66 46.51 42.62 46.67 42.62 46.82 42.62 46.97 42.62 47.28 42.58 47.43 42.6 47.58 42.6 48.19 42.65 48.35 42.65 48.5 42.63 48.8 42.65 49.11 42.67 49.26 42.67 49.72 42.68 50.48 42.68 51.25 42.69 52.01 42.74 52.16 42.74 52.32 42.74 52.47 42.34 52.62 42.4 52.93 42.36 53.23 42.36 53.84 42.36 53.99 42.37 54.15 42.37 54.3 42.37 54.45 42.39 54.6 42.44 54.76 42.39 56.59 42.36 56.89 42.3 57.05 42.32 57.35 42.32 57.96 42.33 58.27 42.33 58.57 42.35 59.18 42.36 59.49 42.38 59.64 42.39 59.95 42.42 60.1 42.42 60.25 42.43 60.41 42.44 60.56 42.44 60.71 42.45 61.02 42.45 61.17 42.46 61.47 42.46 61.78 42.47 61.93 42.49 62.08 42.5 62.39 42.51 62.54 42.51 63.31 42.54 63.92 42.6 64.07 42.56 65.29 42.57 65.44 42.47 65.6 42.47 66.05 42.49 66.21 42.5 66.36 42.56 66.66 42.57 66.97 42.57 67.28 42.58 68.65 42.61"/>
      </g>
      <g stroke-width="0.3" fill="#000000" fill-opacity="0.000" class="geometry color_newtests_fail" stroke-dasharray="none" stroke="#FF0000" id="img-4ea48858-15">
        <path fill="none" d="M21.63,43.83 L 21.78 43.76 21.94 44.02 22.09 42.17 22.24 42.17 22.39 42.17 22.7 43.95 22.85 44.04 23.01 43.96 23.16 44.12 23.31 44.21 23.46 44.14 23.62 44.15 23.77 44.23 24.07 43.66 24.23 43.52 24.53 43.45 24.68 43.45 24.84 43.53 25.45 43.53 25.91 43.72 26.06 43.73 26.21 43.73 26.36 43.82 26.52 43.9 26.67 44.13 26.82 44.17 26.97 44.17 27.13 44.17 27.43 44.01 27.59 43.94 27.74 44.02 27.89 44.02 28.04 44.1 28.2 43.95 28.35 43.79 28.65 44.33 28.81 41.96 28.96 41.88 29.11 43.35 29.26 43.36 29.42 43.43 29.57 43.43 29.72 43.44 30.18 42.03 30.33 43.15 30.49 43.39 30.64 43.47 30.79 43.55 30.94 43.4 31.1 43.56 31.25 43.56 31.4 43.41 31.55 43.34 31.71 43.12 31.86 43.27 32.01 43.49 32.16 43.5 32.32 43.51 32.47 37.73 32.62 37.73 32.78 37.75 32.93 38.55 33.08 38.57 33.23 43.31 33.39 43.39 33.54 43.47 33.69 43.47 33.84 43.47 34 43.47 34.15 43.47 34.3 43.47 34.45 43.55 34.61 43.48 35.07 43.7 35.83 43.65 35.98 43.66 36.13 43.66 36.29 43.67 36.44 43.67 36.59 43.61 36.74 43.61 37.35 43.64 37.51 43.57 38.27 43.71 38.58 43.78 38.73 43.37 38.88 43.72 39.03 43.65 39.19 43.72 39.34 43.73 39.49 43.74 39.95 43.95 40.1 43.95 40.41 43.23 40.56 43.23 40.71 43.23 41.17 43.23 41.48 43.24 41.93 44.05 42.55 44.05 42.85 44 43.31 44.08 44.38 43.97 44.99 43.87 45.14 44 45.29 44 45.45 43.84 45.6 43.46 45.75 43.46 46.06 43.46 46.21 43.47 46.36 43.47 46.51 43.48 46.67 43.49 46.82 43.49 46.97 43.49 47.28 43.5 47.43 43.45 47.58 43.46 48.19 43.19 48.35 43.19 48.5 43.18 48.8 43.13 49.11 39.27 49.26 43.15 49.72 42.98 50.48 42.98 51.25 42.92 52.01 41.52 52.16 42.04 52.32 42.51 52.47 43.16 52.62 43.33 52.93 43.34 53.23 42.99 53.84 43.05 53.99 43.06 54.15 43.01 54.3 43.01 54.45 37.12 54.6 35.55 54.76 36.45 56.59 41.79 56.89 41.96 57.05 43 57.35 43.06 57.96 43.06 58.27 43.07 58.57 43.14 59.18 43.09 59.49 34.1 59.64 36.82 59.95 38.65 60.1 38.65 60.25 38.66 60.41 38.41 60.56 38.47 60.71 38.75 61.02 38.87 61.17 38.79 61.47 35.16 61.78 35.36 61.93 36.43 62.08 36.45 62.39 36.91 62.54 37.51 63.31 37.78 63.92 38.07 64.07 38.04 65.29 38.76 65.44 38.81 65.6 38.86 66.05 38.8 66.21 38.82 66.36 38.84 66.66 39.02 66.97 38.91 67.28 38.99 68.65 38.86"/>
      </g>
      <g stroke-width="0.3" fill="#000000" fill-opacity="0.000" class="geometry color_newno_tests" stroke-dasharray="none" stroke="#0000FF" id="img-4ea48858-16">
        <path fill="none" d="M21.63,41.61 L 21.78 41.56 21.94 41.57 22.09 42.08 22.24 42.08 22.39 42.08 22.7 41.7 22.85 41.7 23.01 41.79 23.16 41.79 23.31 41.79 23.46 41.82 23.62 41.84 23.77 41.92 24.07 42.19 24.23 42.3 24.53 42.32 24.68 42.32 24.84 42.32 25.45 42.32 25.91 42.29 26.06 42.3 26.21 42.23 26.36 42.24 26.52 42.24 26.67 42.24 26.82 42.31 26.97 42.39 27.13 42.39 27.43 42.32 27.59 42.4 27.74 42.33 27.89 42.33 28.04 42.33 28.2 42.34 28.35 42.49 28.65 42.33 28.81 42.57 28.96 42.57 29.11 42.35 29.26 42.37 29.42 42.37 29.57 42.37 29.72 42.39 30.18 42.7 30.33 42.48 30.49 42.42 30.64 42.43 30.79 42.43 30.94 42.43 31.1 42.44 31.25 42.44 31.4 42.45 31.55 42.46 31.71 42.46 31.86 42.46 32.01 42.46 32.16 42.47 32.32 42.49 32.47 42.93 32.62 42.93 32.78 42.93 32.93 42.79 33.08 42.8 33.23 42.5 33.39 42.52 33.54 42.53 33.69 42.53 33.84 42.53 34 42.53 34.15 42.53 34.3 42.53 34.45 42.54 34.61 42.55 35.07 42.55 35.83 42.59 35.98 42.61 36.13 42.61 36.29 42.61 36.44 42.61 36.59 42.63 36.74 42.63 37.35 42.67 37.51 42.67 38.27 42.67 38.58 42.67 38.73 42.69 38.88 42.69 39.03 42.76 39.19 42.69 39.34 42.71 39.49 42.72 39.95 42.73 40.1 42.73 40.41 42.76 40.56 42.76 40.71 42.76 41.17 42.76 41.48 42.77 41.93 42.72 42.55 42.8 42.85 42.76 43.31 42.77 44.38 42.81 44.99 42.85 45.14 42.86 45.29 42.86 45.45 42.9 45.6 42.9 45.75 42.9 46.06 42.9 46.21 42.91 46.36 42.91 46.51 42.93 46.67 42.93 46.82 42.93 46.97 42.93 47.28 42.95 47.43 42.96 47.58 42.97 48.19 43.07 48.35 43.07 48.5 43.06 48.8 43.07 49.11 43.21 49.26 43.03 49.72 43.04 50.48 43.04 51.25 43.04 52.01 43.26 52.16 43.2 52.32 43.2 52.47 43.21 52.62 43.16 52.93 43.17 53.23 43.22 53.84 43.23 53.99 43.24 54.15 43.29 54.3 43.29 54.45 43.93 54.6 43.99 54.76 43.99 56.59 43.33 56.89 43.33 57.05 43.34 57.35 43.34 57.96 43.34 58.27 43.35 58.57 43.36 59.18 43.42 59.49 43.88 59.64 43.78 59.95 43.74 60.1 43.68 60.25 43.74 60.41 43.75 60.56 43.75 60.71 43.75 61.02 43.75 61.17 43.82 61.47 43.98 61.78 43.88 61.93 43.83 62.08 43.84 62.39 43.84 62.54 43.79 63.31 43.8 63.92 43.76 64.07 43.76 65.29 43.72 65.44 43.72 65.6 43.72 66.05 43.74 66.21 43.74 66.36 43.75 66.66 43.75 66.97 43.75 67.28 43.76 68.65 43.78"/>
      </g>
      <g stroke-width="0.3" fill="#000000" fill-opacity="0.000" class="geometry color_oldfull_fail" stroke-dasharray="none" stroke="#FFA500" id="img-4ea48858-17">
        <path fill="none" d="M21.63,42.97 L 21.78 43 21.94 42.24 22.09 42.17 22.24 42.08 22.39 42.08 22.7 42.11 22.85 42.2 23.01 42.37 23.16 42.12 23.31 42.04 23.46 42.23 23.62 42.34 23.77 42.09 24.07 41.78 24.23 42.3 24.53 42.24 24.68 42.24 24.84 42.24 25.45 42.24 25.91 42.05 26.06 42.14 26.21 42.23 26.36 42.09 26.52 42.17 26.67 42.32 26.82 42.08 26.97 41.93 27.13 41.93 27.43 42.24 27.59 42.17 27.74 42.18 27.89 42.33 28.04 42.25 28.2 41.96 28.35 42.03 28.65 42.41 28.81 41.57 28.96 41.34 29.11 41.75 29.26 41.84 29.42 41.84 29.57 41.84 29.72 41.78 30.18 40.38 30.33 41.2 30.49 42.05 30.64 41.98 30.79 41.76 30.94 41.98 31.1 42.07 31.25 42.07 31.4 41.93 31.55 41.87 31.71 42.16 31.86 42.16 32.01 42.09 32.16 42.03 32.32 42.05 32.47 42.85 32.62 42.78 32.78 42.79 32.93 42.72 33.08 42.58 33.23 40.68 33.39 41.21 33.54 41.51 33.69 41.15 33.84 41.16 34 41.09 34.15 41.09 34.3 41.09 34.45 41.25 34.61 41.47 35.07 41.47 35.83 41.39 35.98 41.27 36.13 41.27 36.29 41.35 36.44 41.42 36.59 41.52 36.74 41.38 37.35 40.8 37.51 40.87 38.27 40.47 38.58 40.67 38.73 40.83 38.88 40.91 39.03 40.91 39.19 41.05 39.34 41 39.49 40.96 39.95 40.56 40.1 40.64 40.41 40.61 40.56 40.35 40.71 40.55 41.17 40.68 41.48 40.84 41.93 40.66 42.55 40.75 42.85 41.12 43.31 40.87 44.38 40.69 44.99 40.95 45.14 40.97 45.29 40.97 45.45 40.84 45.6 40.65 45.75 40.71 46.06 40.85 46.21 40.8 46.36 40.8 46.51 40.58 46.67 40.65 46.82 40.59 46.97 40.59 47.28 40.68 47.43 40.59 47.58 40.41 48.19 40.32 48.35 40.2 48.5 40.28 48.8 40.38 49.11 41.72 49.26 39.81 49.72 39.54 50.48 39.54 51.25 39.61 52.01 40 52.16 39.88 52.32 39.77 52.47 39.79 52.62 39.96 52.93 39.81 53.23 38.95 53.84 38.44 53.99 38.52 54.15 38.35 54.3 38.47 54.45 40.44 54.6 41.06 54.76 40.56 56.59 39.24 56.89 39.18 57.05 38.71 57.35 39.05 57.96 39.46 58.27 39.52 58.57 39.44 59.18 39.69 59.49 41.32 59.64 40.9 59.95 40.07 60.1 40.01 60.25 39.81 60.41 38.79 60.56 39.12 60.71 39.35 61.02 39.41 61.17 39.49 61.47 40.79 61.78 40.8 61.93 40.51 62.08 40.46 62.39 40.64 62.54 40.22 63.31 40.31 63.92 40.49 64.07 40.51 65.29 40.69 65.44 40.69 65.6 40.85 66.05 40.62 66.21 40.58 66.36 40.65 66.66 40.51 66.97 40.3 67.28 40.12 68.65 40.03"/>
      </g>
      <g stroke-width="0.3" fill="#000000" fill-opacity="0.000" class="geometry color_newtests_pass" stroke-dasharray="none" stroke="#008000" id="img-4ea48858-18">
        <path fill="none" d="M21.63,26.57 L 21.78 26.73 21.94 27.29 22.09 28.69 22.24 28.77 22.39 28.77 22.7 27.32 22.85 27.15 23.01 26.95 23.16 27.03 23.31 27.03 23.46 26.85 23.62 26.7 23.77 26.79 24.07 27.38 24.23 26.95 24.53 27.05 24.68 27.05 24.84 27.05 25.45 27.05 25.91 27.02 26.06 26.91 26.21 26.88 26.36 26.89 26.52 26.74 26.67 26.34 26.82 26.42 26.97 26.49 27.13 26.49 27.43 26.47 27.59 26.54 27.74 26.51 27.89 26.36 28.04 26.36 28.2 26.79 28.35 26.79 28.65 26.05 28.81 29.01 28.96 29.32 29.11 27.64 29.26 27.58 29.42 27.51 29.57 27.51 29.72 27.52 30.18 30.01 30.33 28.36 30.49 27.32 30.64 27.29 30.79 27.44 30.94 27.36 31.1 27.08 31.25 27.08 31.4 27.35 31.55 27.46 31.71 27.46 31.86 27.32 32.01 27.17 32.16 27.18 32.32 27.12 32.47 31.66 32.62 31.73 32.78 31.69 32.93 31.11 33.08 31.22 33.23 28.67 33.39 28.02 33.54 27.63 33.69 27.99 33.84 27.96 34 28.03 34.15 28.03 34.3 28.03 34.45 27.78 34.61 27.61 35.07 27.4 35.83 27.43 35.98 27.52 36.13 27.52 36.29 27.42 36.44 27.35 36.59 27.26 36.74 27.4 37.35 27.88 37.51 27.88 38.27 28.13 38.58 27.85 38.73 28 38.88 27.56 39.03 27.56 39.19 27.42 39.34 27.43 39.49 27.44 39.95 27.62 40.1 27.52 40.41 28.22 40.56 28.48 40.71 28.28 41.17 28.15 41.48 27.96 41.93 27.37 42.55 27.18 42.85 26.88 43.31 27.02 44.38 27.23 44.99 26.99 45.14 26.94 45.29 26.94 45.45 27.23 45.6 27.79 45.75 27.72 46.06 27.57 46.21 27.61 46.36 27.61 46.51 27.84 46.67 27.75 46.82 27.82 46.97 27.82 47.28 27.74 47.43 27.84 47.58 28 48.19 28.21 48.35 28.33 48.5 28.29 48.8 28.21 49.11 30.58 49.26 28.79 49.72 29.21 50.48 29.21 51.25 29.18 52.01 29.93 52.16 29.58 52.32 29.23 52.47 28.94 52.62 28.59 52.93 28.77 53.23 29.93 53.84 30.36 53.99 30.25 54.15 30.42 54.3 30.3 54.45 33.57 54.6 34.41 54.76 34.05 56.59 30.73 56.89 30.67 57.05 30.08 57.35 29.68 57.96 29.26 58.27 29.18 58.57 29.15 59.18 28.88 59.49 35.77 59.64 33.56 59.95 32.57 60.1 32.68 60.25 32.81 60.41 34.05 60.56 33.67 60.71 33.15 61.02 32.95 61.17 32.89 61.47 35.05 61.78 34.93 61.93 34.18 62.08 34.2 62.39 33.55 62.54 33.41 63.31 33.02 63.92 32.53 64.07 32.58 65.29 31.7 65.44 31.75 65.6 31.54 66.05 31.8 66.21 31.82 66.36 31.66 66.66 31.6 66.97 31.91 67.28 32.01 68.65 32.16"/>
      </g>
    </g>
  </g>
</g>
  <g class="guide ylabels" font-size="2.82" font-family="'PT Sans Caption','Helvetica Neue','Helvetica',sans-serif" fill="#6C606B" id="img-4ea48858-19">
    <text x="18.63" y="45.71" text-anchor="end" dy="0.35em">0</text>
    <text x="18.63" y="30.16" text-anchor="end" dy="0.35em">50</text>
    <text x="18.63" y="14.61" text-anchor="end" dy="0.35em">100</text>
  </g>
  <g font-size="3.88" font-family="'PT Sans','Helvetica Neue','Helvetica',sans-serif" fill="#564A55" stroke="#000000" stroke-opacity="0.000" id="img-4ea48858-20">
    <text x="8.81" y="28.16" text-anchor="middle" dy="0.35em" transform="rotate(-90, 8.81, 30.16)">Percentage of Packages</text>
  </g>
  <g font-size="3.88" font-family="'PT Sans','Helvetica Neue','Helvetica',sans-serif" fill="#564A55" stroke="#000000" stroke-opacity="0.000" id="img-4ea48858-21">
    <text x="58.12" y="10.61" text-anchor="middle">Julia v0.4 (relative)</text>
  </g>
</g>
<defs>
  <clipPath id="img-4ea48858-4">
  <path d="M19.63,12.61 L 96.6 12.61 96.6 47.71 19.63 47.71" />
</clipPath>
</defs>
</svg>
