<?xml version="1.0" encoding="UTF-8"?>
<svg xmlns="http://www.w3.org/2000/svg"
     xmlns:xlink="http://www.w3.org/1999/xlink"
     xmlns:gadfly="http://www.gadflyjl.org/ns"
     version="1.2"
     width="101.6mm" height="76.2mm" viewBox="0 0 101.6 76.2"
     stroke="none"
     fill="#000000"
     stroke-width="0.3"
     font-size="3.88"
>
<g class="plotroot xscalable yscalable" id="fig-893ba3eabece4668bfb38c08576adf94-element-1">
  <g font-size="3.88" font-family="'PT Sans','Helvetica Neue','Helvetica',sans-serif" fill="#564A55" stroke="#000000" stroke-opacity="0.000" id="fig-893ba3eabece4668bfb38c08576adf94-element-2">
    <text x="58.12" y="64.59" text-anchor="middle" dy="0.6em">Date</text>
  </g>
  <g class="guide xlabels" font-size="2.82" font-family="'PT Sans Caption','Helvetica Neue','Helvetica',sans-serif" fill="#6C606B" id="fig-893ba3eabece4668bfb38c08576adf94-element-3">
    <text x="24.86" y="57.91" text-anchor="middle" dy="0.6em">Sep</text>
    <text x="29.95" y="57.91" text-anchor="middle" dy="0.6em">Oct</text>
    <text x="35.21" y="57.91" text-anchor="middle" dy="0.6em">Nov</text>
    <text x="40.3" y="57.91" text-anchor="middle" dy="0.6em">Dec</text>
    <text x="45.56" y="57.91" text-anchor="middle" dy="0.6em">Jan 2015</text>
    <text x="50.82" y="57.91" text-anchor="middle" dy="0.6em">Feb</text>
    <text x="55.57" y="57.91" text-anchor="middle" dy="0.6em">Mar</text>
    <text x="60.83" y="57.91" text-anchor="middle" dy="0.6em">Apr</text>
    <text x="65.92" y="57.91" text-anchor="middle" dy="0.6em">May</text>
    <text x="71.18" y="57.91" text-anchor="middle" dy="0.6em">Jun</text>
    <text x="76.27" y="57.91" text-anchor="middle" dy="0.6em">Jul</text>
    <text x="81.53" y="57.91" text-anchor="middle" dy="0.6em">Aug</text>
    <text x="86.79" y="57.91" text-anchor="middle" dy="0.6em">Sep</text>
    <text x="91.88" y="57.91" text-anchor="middle" dy="0.6em">Oct</text>
  </g>
  <g clip-path="url(#fig-893ba3eabece4668bfb38c08576adf94-element-5)" id="fig-893ba3eabece4668bfb38c08576adf94-element-4">
    <g pointer-events="visible" opacity="1" fill="#000000" fill-opacity="0.000" stroke="#000000" stroke-opacity="0.000" class="guide background" id="fig-893ba3eabece4668bfb38c08576adf94-element-6">
      <rect x="19.63" y="12.61" width="76.97" height="44.3"/>
    </g>
    <g class="guide ygridlines xfixed" stroke-dasharray="0.5,0.5" stroke-width="0.2" stroke="#D0D0E0" id="fig-893ba3eabece4668bfb38c08576adf94-element-7">
      <path fill="none" d="M19.63,54.91 L 96.6 54.91"/>
      <path fill="none" d="M19.63,34.76 L 96.6 34.76"/>
      <path fill="none" d="M19.63,14.61 L 96.6 14.61"/>
    </g>
    <g class="guide xgridlines yfixed" stroke-dasharray="0.5,0.5" stroke-width="0.2" stroke="#D0D0E0" id="fig-893ba3eabece4668bfb38c08576adf94-element-8">
      <path fill="none" d="M24.86,12.61 L 24.86 56.91"/>
      <path fill="none" d="M29.95,12.61 L 29.95 56.91"/>
      <path fill="none" d="M35.21,12.61 L 35.21 56.91"/>
      <path fill="none" d="M40.3,12.61 L 40.3 56.91"/>
      <path fill="none" d="M45.56,12.61 L 45.56 56.91"/>
      <path fill="none" d="M50.82,12.61 L 50.82 56.91"/>
      <path fill="none" d="M55.57,12.61 L 55.57 56.91"/>
      <path fill="none" d="M60.83,12.61 L 60.83 56.91"/>
      <path fill="none" d="M65.92,12.61 L 65.92 56.91"/>
      <path fill="none" d="M71.18,12.61 L 71.18 56.91"/>
      <path fill="none" d="M76.27,12.61 L 76.27 56.91"/>
      <path fill="none" d="M81.53,12.61 L 81.53 56.91"/>
      <path fill="none" d="M86.79,12.61 L 86.79 56.91"/>
      <path fill="none" d="M91.88,12.61 L 91.88 56.91"/>
    </g>
    <g class="plotpanel" id="fig-893ba3eabece4668bfb38c08576adf94-element-9">
      <g stroke-width="0.3" fill="#000000" fill-opacity="0.000" class="geometry color_newnot_possible" stroke-dasharray="none" stroke="#808080" id="fig-893ba3eabece4668bfb38c08576adf94-element-10">
        <path fill="none" d="M74.41,51.36 L 74.58 51.36 74.75 51.38 74.92 51.38 75.09 51.39 75.25 51.39 75.42 51.39 75.59 51.4 76.1 51.4 76.44 51.42 76.78 51.42 76.95 51.43 77.12 51.45 77.29 51.46 77.46 51.47 77.63 51.47 80.52 51.48 81.87 51.52 83.4 51.54 86.29 51.66 86.79 51.67 87.64 51.69 88.49 51.38 91.21 51.47 91.88 51.5 92.73 51.49 93.41 51.31 94.09 51.33 94.6 51.29"/>
      </g>
      <g stroke-width="0.3" fill="#000000" fill-opacity="0.000" class="geometry color_newno_tests" stroke-dasharray="none" stroke="#0000FF" id="fig-893ba3eabece4668bfb38c08576adf94-element-11">
        <path fill="none" d="M74.41,47.81 L 74.58 47.81 74.75 47.84 74.92 47.84 75.09 47.87 75.25 47.87 75.42 47.87 75.59 47.88 76.1 47.89 76.44 47.92 76.78 47.92 76.95 47.94 77.12 48.05 77.29 48.07 77.46 48.08 77.63 48.14 80.52 48.24 81.87 48.3 83.4 48.35 86.29 48.59 86.79 48.67 87.64 48.71 88.49 48.83 91.21 49.21 91.88 49.43 92.73 49.61 93.41 50.39 94.09 50.48 94.6 50.61"/>
      </g>
      <g stroke-width="0.3" fill="#000000" fill-opacity="0.000" class="geometry color_newtests_fail" stroke-dasharray="none" stroke="#FF0000" id="fig-893ba3eabece4668bfb38c08576adf94-element-12">
        <path fill="none" d="M74.41,41.5 L 74.58 41.96 74.75 41.87 74.92 40.56 75.09 40.57 75.25 40.76 75.42 40.76 75.59 41.83 76.1 41.26 76.44 41.31 76.78 42.02 76.95 42.19 77.12 40.8 77.29 42.12 77.46 41.18 77.63 41.63 80.52 42.44 81.87 42.18 83.4 42.83 86.29 43.04 86.79 43.37 87.64 43.73 88.49 44.65 91.21 44.75 91.88 45.18 92.73 45.46 93.41 45.7 94.09 45.99 94.6 46.42"/>
      </g>
      <g stroke-width="0.3" fill="#000000" fill-opacity="0.000" class="geometry color_newtests_pass" stroke-dasharray="none" stroke="#008000" id="fig-893ba3eabece4668bfb38c08576adf94-element-13">
        <path fill="none" d="M74.41,38.68 L 74.58 38.22 74.75 38.27 74.92 39.58 75.09 39.52 75.25 39.33 75.42 39.33 75.59 38.25 76.1 38.79 76.44 38.72 76.78 38 76.95 37.8 77.12 39.06 77.29 37.71 77.46 38.63 77.63 38.12 80.52 37.2 81.87 37.36 83.4 36.63 86.29 36.06 86.79 35.65 87.64 35.23 88.49 34.5 91.21 33.92 91.88 33.25 92.73 32.8 93.41 31.96 94.09 31.55 94.6 31.03"/>
      </g>
      <g stroke-width="0.3" fill="#000000" fill-opacity="0.000" class="geometry color_newnot_possible" stroke-dasharray="none" stroke="#808080" id="fig-893ba3eabece4668bfb38c08576adf94-element-14">
        <path fill="none" d="M21.63,50.71 L 21.8 50.63 21.97 50.53 22.14 50.55 22.31 50.55 22.48 50.55 22.82 50.58 22.99 50.58 23.16 50.59 23.33 50.59 23.5 50.59 23.67 50.63 23.84 50.65 24.01 50.65 24.35 50.67 24.52 50.6 24.86 50.62 25.03 50.62 25.2 50.52 25.87 50.52 26.38 50.59 26.55 50.6 26.72 50.61 26.89 50.63 27.06 50.63 27.23 50.63 27.4 50.71 27.57 50.71 27.74 50.71 28.08 50.63 28.25 50.63 28.42 50.64 28.59 50.64 28.76 50.64 28.93 50.65 29.1 50.55 29.44 50.54 29.61 50.55 29.78 50.55 29.95 50.57 30.12 50.49 30.29 50.49 30.46 50.49 30.63 50.51 31.13 50.53 31.3 50.44 31.47 50.46 31.64 50.47 31.81 50.47 31.98 50.47 32.15 50.49 32.32 50.49 32.49 50.5 32.66 50.51 32.83 50.42 33 50.42 33.17 50.42 33.34 50.44 33.51 50.46 33.68 50.46 33.85 50.46 34.02 50.47 34.19 50.47 34.36 50.48 34.53 50.48 34.7 50.5 34.87 50.51 35.04 50.51 35.21 50.52 35.38 50.52 35.55 50.52 35.72 50.52 35.89 50.53 36.06 50.54 36.56 50.54 37.41 50.6 37.58 50.62 37.75 50.62 37.92 50.63 38.09 50.63 38.26 50.66 38.43 50.66 39.11 50.71 39.28 50.71 40.13 50.71 40.47 50.71 40.64 50.82 40.81 50.83 40.98 50.83 41.15 50.83 41.32 50.85 41.49 50.87 41.99 50.88 42.16 50.88 42.5 50.92 42.67 50.92 42.84 50.92 43.35 50.92 43.69 50.94 44.2 50.95 44.88 50.97 45.22 51 45.73 51.02 46.92 51.08 47.59 51.13 47.76 50.98 47.93 50.98 48.1 50.95 48.27 50.95 48.44 50.95 48.78 50.96 48.95 50.97 49.12 50.97 49.29 50.91 49.46 50.92 49.63 50.92 49.8 50.92 50.14 50.86 50.31 50.88 50.48 50.89 51.16 50.95 51.33 50.95 51.5 50.93 51.84 50.95 52.18 50.98 52.35 50.98 52.86 50.99 53.7 50.99 54.55 51 55.4 51.07 55.57 51.07 55.74 51.07 55.91 50.55 56.08 50.63 56.42 50.57 56.76 50.57 57.44 50.58 57.61 50.59 57.78 50.59 57.95 50.59 58.12 50.61 58.29 50.68 58.46 50.62 60.49 50.58 60.83 50.5 61 50.53 61.34 50.53 62.02 50.53 62.36 50.54 62.7 50.57 63.38 50.58 63.72 50.6 63.89 50.62 64.22 50.66 64.39 50.66 64.56 50.67 64.73 50.68 64.9 50.68 65.07 50.69 65.41 50.69 65.58 50.71 65.92 50.71 66.26 50.72 66.43 50.75 66.6 50.75 66.94 50.77 67.11 50.77 67.96 50.8 68.64 50.88 68.81 50.83 70.16 50.85 70.33 50.72 70.5 50.72 71.01 50.74 71.18 50.75 71.35 50.83 71.69 50.84 72.03 50.84 72.37 50.86 73.9 50.9"/>
      </g>
      <g stroke-width="0.3" fill="#000000" fill-opacity="0.000" class="geometry color_newtests_fail" stroke-dasharray="none" stroke="#FF0000" id="fig-893ba3eabece4668bfb38c08576adf94-element-15">
        <path fill="none" d="M21.63,52.48 L 21.8 52.39 21.97 52.72 22.14 50.33 22.31 50.33 22.48 50.33 22.82 52.64 22.99 52.75 23.16 52.65 23.33 52.86 23.5 52.97 23.67 52.88 23.84 52.89 24.01 53 24.35 52.26 24.52 52.07 24.86 51.98 25.03 51.98 25.2 52.09 25.87 52.09 26.38 52.34 26.55 52.34 26.72 52.35 26.89 52.47 27.06 52.57 27.23 52.87 27.4 52.91 27.57 52.91 27.74 52.91 28.08 52.72 28.25 52.62 28.42 52.73 28.59 52.73 28.76 52.83 28.93 52.63 29.1 52.43 29.44 53.12 29.61 50.05 29.78 49.95 29.95 51.85 30.12 51.87 30.29 51.97 30.46 51.97 30.63 51.98 31.13 50.14 31.3 51.61 31.47 51.91 31.64 52.02 31.81 52.11 31.98 51.92 32.15 52.13 32.32 52.13 32.49 51.94 32.66 51.85 32.83 51.56 33 51.76 33.17 52.04 33.34 52.06 33.51 52.07 33.68 44.58 33.85 44.58 34.02 44.6 34.19 45.64 34.36 45.67 34.53 51.8 34.7 51.91 34.87 52.01 35.04 52.01 35.21 52.02 35.38 52.02 35.55 52.02 35.72 52.02 35.89 52.12 36.06 52.03 36.56 52.31 37.41 52.25 37.58 52.26 37.75 52.26 37.92 52.27 38.09 52.27 38.26 52.2 38.43 52.2 39.11 52.23 39.28 52.14 40.13 52.32 40.47 52.41 40.64 51.89 40.81 52.34 40.98 52.25 41.15 52.34 41.32 52.35 41.49 52.36 41.99 52.63 42.16 52.64 42.5 51.7 42.67 51.7 42.84 51.7 43.35 51.7 43.69 51.71 44.2 52.76 44.88 52.77 45.22 52.7 45.73 52.8 46.92 52.66 47.59 52.53 47.76 52.7 47.93 52.7 48.1 52.49 48.27 52 48.44 52 48.78 52.01 48.95 52.01 49.12 52.01 49.29 52.03 49.46 52.04 49.63 52.04 49.8 52.04 50.14 52.05 50.31 51.99 50.48 52 51.16 51.65 51.33 51.65 51.5 51.63 51.84 51.58 52.18 46.58 52.35 51.59 52.86 51.38 53.7 51.38 54.55 51.31 55.4 49.48 55.57 50.16 55.74 50.76 55.91 51.61 56.08 51.83 56.42 51.84 56.76 51.39 57.44 51.48 57.61 51.49 57.78 51.41 57.95 51.41 58.12 43.78 58.29 41.75 58.46 42.91 60.49 49.84 60.83 50.06 61 51.4 61.34 51.48 62.02 51.48 62.36 51.49 62.7 51.58 63.38 51.52 63.72 39.87 63.89 43.39 64.22 45.76 64.39 45.76 64.56 45.78 64.73 45.46 64.9 45.53 65.07 45.9 65.41 46.05 65.58 45.94 65.92 41.25 66.26 41.5 66.43 42.89 66.6 42.91 66.94 43.51 67.11 44.29 67.96 44.63 68.64 45.01 68.81 44.98 70.16 45.91 70.33 45.97 70.5 46.04 71.01 45.97 71.18 45.98 71.35 46.01 71.69 46.24 72.03 46.11 72.37 46.2 73.9 46.04"/>
      </g>
      <g stroke-width="0.3" fill="#000000" fill-opacity="0.000" class="geometry color_newno_tests" stroke-dasharray="none" stroke="#0000FF" id="fig-893ba3eabece4668bfb38c08576adf94-element-16">
        <path fill="none" d="M21.63,49.6 L 21.8 49.53 21.97 49.55 22.14 50.22 22.31 50.22 22.48 50.22 22.82 49.71 22.99 49.71 23.16 49.84 23.33 49.84 23.5 49.84 23.67 49.88 23.84 49.9 24.01 50.01 24.35 50.35 24.52 50.5 24.86 50.52 25.03 50.52 25.2 50.52 25.87 50.52 26.38 50.48 26.55 50.49 26.72 50.4 26.89 50.43 27.06 50.43 27.23 50.43 27.4 50.51 27.57 50.61 27.74 50.61 28.08 50.53 28.25 50.63 28.42 50.54 28.59 50.54 28.76 50.54 28.93 50.55 29.1 50.75 29.44 50.54 29.61 50.84 29.78 50.84 29.95 50.57 30.12 50.59 30.29 50.59 30.46 50.59 30.63 50.61 31.13 51.02 31.3 50.73 31.47 50.65 31.64 50.66 31.81 50.66 31.98 50.66 32.15 50.68 32.32 50.68 32.49 50.69 32.66 50.7 32.83 50.7 33 50.7 33.17 50.7 33.34 50.72 33.51 50.74 33.68 51.31 33.85 51.31 34.02 51.32 34.19 51.13 34.36 51.14 34.53 50.76 34.7 50.78 34.87 50.79 35.04 50.79 35.21 50.8 35.38 50.8 35.55 50.8 35.72 50.8 35.89 50.81 36.06 50.82 36.56 50.82 37.41 50.88 37.58 50.89 37.75 50.89 37.92 50.9 38.09 50.9 38.26 50.93 38.43 50.93 39.11 50.97 39.28 50.97 40.13 50.98 40.47 50.98 40.64 51 40.81 51.01 40.98 51.1 41.15 51.01 41.32 51.03 41.49 51.04 41.99 51.05 42.16 51.06 42.5 51.09 42.67 51.09 42.84 51.09 43.35 51.09 43.69 51.11 44.2 51.04 44.88 51.14 45.22 51.09 45.73 51.1 46.92 51.16 47.59 51.21 47.76 51.23 47.93 51.23 48.1 51.27 48.27 51.27 48.44 51.27 48.78 51.28 48.95 51.29 49.12 51.29 49.29 51.31 49.46 51.32 49.63 51.32 49.8 51.32 50.14 51.34 50.31 51.36 50.48 51.37 51.16 51.5 51.33 51.5 51.5 51.48 51.84 51.5 52.18 51.67 52.35 51.44 52.86 51.45 53.7 51.45 54.55 51.46 55.4 51.75 55.57 51.67 55.74 51.67 55.91 51.68 56.08 51.61 56.42 51.62 56.76 51.69 57.44 51.7 57.61 51.71 57.78 51.79 57.95 51.79 58.12 52.61 58.29 52.68 58.46 52.69 60.49 51.83 60.83 51.83 61 51.84 61.34 51.84 62.02 51.85 62.36 51.85 62.7 51.87 63.38 51.95 63.72 52.54 63.89 52.41 64.22 52.36 64.39 52.29 64.56 52.37 64.73 52.37 64.9 52.37 65.07 52.38 65.41 52.38 65.58 52.46 65.92 52.67 66.26 52.54 66.43 52.48 66.6 52.49 66.94 52.5 67.11 52.43 67.96 52.45 68.64 52.39 68.81 52.4 70.16 52.34 70.33 52.34 70.5 52.34 71.01 52.36 71.18 52.36 71.35 52.37 71.69 52.38 72.03 52.38 72.37 52.39 73.9 52.42"/>
      </g>
      <g stroke-width="0.3" fill="#000000" fill-opacity="0.000" class="geometry color_oldfull_fail" stroke-dasharray="none" stroke="#FFA500" id="fig-893ba3eabece4668bfb38c08576adf94-element-17">
        <path fill="none" d="M21.63,51.37 L 21.8 51.4 21.97 50.42 22.14 50.33 22.31 50.22 22.48 50.22 22.82 50.26 22.99 50.36 23.16 50.59 23.33 50.27 23.5 50.16 23.67 50.41 23.84 50.54 24.01 50.22 24.35 49.82 24.52 50.5 24.86 50.41 25.03 50.41 25.2 50.41 25.87 50.41 26.38 50.17 26.55 50.29 26.72 50.4 26.89 50.22 27.06 50.32 27.23 50.53 27.4 50.21 27.57 50.01 27.74 50.01 28.08 50.43 28.25 50.33 28.42 50.34 28.59 50.54 28.76 50.44 28.93 50.05 29.1 50.15 29.44 50.64 29.61 49.55 29.78 49.26 29.95 49.78 30.12 49.9 30.29 49.9 30.46 49.9 30.63 49.83 31.13 48 31.3 49.07 31.47 50.17 31.64 50.08 31.81 49.79 31.98 50.08 32.15 50.2 32.32 50.2 32.49 50.02 32.66 49.94 32.83 50.32 33 50.32 33.17 50.22 33.34 50.15 33.51 50.17 33.68 51.22 33.85 51.12 34.02 51.13 34.19 51.04 34.36 50.86 34.53 48.4 34.7 49.09 34.87 49.48 35.04 49.01 35.21 49.02 35.38 48.93 35.55 48.93 35.72 48.93 35.89 49.13 36.06 49.42 36.56 49.42 37.41 49.31 37.58 49.16 37.75 49.16 37.92 49.26 38.09 49.35 38.26 49.48 38.43 49.3 39.11 48.56 39.28 48.65 40.13 48.12 40.47 48.39 40.64 48.6 40.81 48.7 40.98 48.7 41.15 48.88 41.32 48.82 41.49 48.76 41.99 48.24 42.16 48.34 42.5 48.31 42.67 47.97 42.84 48.23 43.35 48.4 43.69 48.6 44.2 48.37 44.88 48.48 45.22 48.96 45.73 48.65 46.92 48.41 47.59 48.75 47.76 48.77 47.93 48.77 48.1 48.6 48.27 48.36 48.44 48.44 48.78 48.62 48.95 48.55 49.12 48.55 49.29 48.26 49.46 48.36 49.63 48.28 49.8 48.28 50.14 48.4 50.31 48.28 50.48 48.05 51.16 47.93 51.33 47.77 51.5 47.89 51.84 48 52.18 49.74 52.35 47.27 52.86 46.92 53.7 46.92 54.55 47.01 55.4 47.52 55.57 47.37 55.74 47.22 55.91 47.25 56.08 47.47 56.42 47.27 56.76 46.15 57.44 45.49 57.61 45.6 57.78 45.38 57.95 45.53 58.12 48.09 58.29 48.89 58.46 48.25 60.49 46.53 60.83 46.46 61 45.84 61.34 46.28 62.02 46.81 62.36 46.9 62.7 46.8 63.38 47.11 63.72 49.23 63.89 48.69 64.22 47.61 64.39 47.54 64.56 47.27 64.73 45.95 64.9 46.37 65.07 46.67 65.41 46.76 65.58 46.85 65.92 48.54 66.26 48.56 66.43 48.17 66.6 48.12 66.94 48.35 67.11 47.81 67.96 47.92 68.64 48.15 68.81 48.18 70.16 48.41 70.33 48.41 70.5 48.62 71.01 48.32 71.18 48.26 71.35 48.35 71.69 48.18 72.03 47.91 72.37 47.67 73.9 47.55"/>
      </g>
      <g stroke-width="0.3" fill="#000000" fill-opacity="0.000" class="geometry color_newtests_pass" stroke-dasharray="none" stroke="#008000" id="fig-893ba3eabece4668bfb38c08576adf94-element-18">
        <path fill="none" d="M21.63,30.11 L 21.8 30.32 21.97 31.04 22.14 32.85 22.31 32.96 22.48 32.96 22.82 31.08 22.99 30.86 23.16 30.6 23.33 30.71 23.5 30.71 23.67 30.48 23.84 30.29 24.01 30.39 24.35 31.16 24.52 30.61 24.86 30.73 25.03 30.73 25.2 30.73 25.87 30.73 26.38 30.69 26.55 30.55 26.72 30.51 26.89 30.53 27.06 30.32 27.23 29.81 27.4 29.91 27.57 30.01 27.74 30.01 28.08 29.97 28.25 30.07 28.42 30.04 28.59 29.84 28.76 29.84 28.93 30.4 29.1 30.4 29.44 29.44 29.61 33.27 29.78 33.67 29.95 31.5 30.12 31.42 30.29 31.32 30.46 31.32 30.63 31.34 31.13 34.57 31.3 32.43 31.47 31.08 31.64 31.04 31.81 31.24 31.98 31.14 32.15 30.77 32.32 30.77 32.49 31.12 32.66 31.27 32.83 31.27 33 31.08 33.17 30.89 33.34 30.9 33.51 30.83 33.68 36.71 33.85 36.8 34.02 36.75 34.19 35.99 34.36 36.13 34.53 32.83 34.7 31.99 34.87 31.48 35.04 31.95 35.21 31.91 35.38 32 35.55 32 35.72 32 35.89 31.68 36.06 31.46 36.56 31.18 37.41 31.23 37.58 31.34 37.75 31.34 37.92 31.21 38.09 31.12 38.26 31 38.43 31.19 39.11 31.81 39.28 31.81 40.13 32.13 40.47 31.77 40.64 31.96 40.81 31.39 40.98 31.39 41.15 31.21 41.32 31.23 41.49 31.24 41.99 31.47 42.16 31.35 42.5 32.24 42.67 32.59 42.84 32.33 43.35 32.16 43.69 31.91 44.2 31.15 44.88 30.9 45.22 30.51 45.73 30.7 46.92 30.97 47.59 30.65 47.76 30.59 47.93 30.59 48.1 30.96 48.27 31.69 48.44 31.61 48.78 31.41 48.95 31.46 49.12 31.46 49.29 31.76 49.46 31.64 49.63 31.72 49.8 31.72 50.14 31.62 50.31 31.76 50.48 31.96 51.16 32.24 51.33 32.39 51.5 32.34 51.84 32.24 52.18 35.3 52.35 32.99 52.86 33.53 53.7 33.53 54.55 33.5 55.4 34.46 55.57 34.01 55.74 33.56 55.91 33.18 56.08 32.73 56.42 32.97 56.76 34.46 57.44 35.03 57.61 34.88 57.78 35.1 57.95 34.95 58.12 39.18 58.29 40.27 58.46 39.8 60.49 35.5 60.83 35.43 61 34.65 61.34 34.14 62.02 33.6 62.36 33.49 62.7 33.46 63.38 33.1 63.72 42.03 63.89 39.17 64.22 37.89 64.39 38.03 64.56 38.2 64.73 39.81 64.9 39.32 65.07 38.64 65.41 38.39 65.58 38.3 65.92 41.11 66.26 40.95 66.43 39.97 66.6 40 66.94 39.15 67.11 38.97 67.96 38.46 68.64 37.84 68.81 37.9 70.16 36.76 70.33 36.83 70.5 36.56 71.01 36.88 71.18 36.91 71.35 36.7 71.69 36.63 72.03 37.03 72.37 37.16 73.9 37.36"/>
      </g>
    </g>
  </g>
  <g class="guide ylabels" font-size="2.82" font-family="'PT Sans Caption','Helvetica Neue','Helvetica',sans-serif" fill="#6C606B" id="fig-893ba3eabece4668bfb38c08576adf94-element-19">
    <text x="18.63" y="54.91" text-anchor="end" dy="0.35em">0</text>
    <text x="18.63" y="34.76" text-anchor="end" dy="0.35em">50</text>
    <text x="18.63" y="14.61" text-anchor="end" dy="0.35em">100</text>
  </g>
  <g font-size="3.88" font-family="'PT Sans','Helvetica Neue','Helvetica',sans-serif" fill="#564A55" stroke="#000000" stroke-opacity="0.000" id="fig-893ba3eabece4668bfb38c08576adf94-element-20">
    <text x="8.81" y="32.76" text-anchor="middle" dy="0.35em" transform="rotate(-90, 8.81, 34.76)">Percentage of Packages</text>
  </g>
  <g font-size="3.88" font-family="'PT Sans','Helvetica Neue','Helvetica',sans-serif" fill="#564A55" stroke="#000000" stroke-opacity="0.000" id="fig-893ba3eabece4668bfb38c08576adf94-element-21">
    <text x="58.12" y="10.61" text-anchor="middle">Julia v0.4 (relative)</text>
  </g>
</g>
<defs>
<clipPath id="fig-893ba3eabece4668bfb38c08576adf94-element-5">
  <path d="M19.63,12.61 L 96.6 12.61 96.6 56.91 19.63 56.91" />
</clipPath
></defs>
</svg>
