<?xml version="1.0" encoding="UTF-8"?>
<svg xmlns="http://www.w3.org/2000/svg"
     xmlns:xlink="http://www.w3.org/1999/xlink"
     xmlns:gadfly="http://www.gadflyjl.org/ns"
     version="1.2"
     width="101.6mm" height="76.2mm" viewBox="0 0 101.6 76.2"
     stroke="none"
     fill="#000000"
     stroke-width="0.3"
     font-size="3.88"
>
<g class="plotroot xscalable yscalable" id="img-f595a4a8-1">
  <g font-size="3.88" font-family="'PT Sans','Helvetica Neue','Helvetica',sans-serif" fill="#564A55" stroke="#000000" stroke-opacity="0.000" id="img-f595a4a8-2">
    <text x="58.12" y="64.59" text-anchor="middle" dy="0.6em">Date</text>
  </g>
  <g class="guide xlabels" font-size="2.82" font-family="'PT Sans Caption','Helvetica Neue','Helvetica',sans-serif" fill="#6C606B" id="img-f595a4a8-3">
    <text x="24.49" y="48.71" text-anchor="end" dy="0.35em" transform="rotate(-90, 24.49, 48.71)">Sep</text>
    <text x="29" y="48.71" text-anchor="end" dy="0.35em" transform="rotate(-90, 29, 48.71)">Oct</text>
    <text x="33.67" y="48.71" text-anchor="end" dy="0.35em" transform="rotate(-90, 33.67, 48.71)">Nov</text>
    <text x="38.18" y="48.71" text-anchor="end" dy="0.35em" transform="rotate(-90, 38.18, 48.71)">Dec</text>
    <text x="42.85" y="48.71" text-anchor="end" dy="0.35em" transform="rotate(-90, 42.85, 48.71)">Jan 2015</text>
    <text x="47.51" y="48.71" text-anchor="end" dy="0.35em" transform="rotate(-90, 47.51, 48.71)">Feb</text>
    <text x="51.72" y="48.71" text-anchor="end" dy="0.35em" transform="rotate(-90, 51.72, 48.71)">Mar</text>
    <text x="56.39" y="48.71" text-anchor="end" dy="0.35em" transform="rotate(-90, 56.39, 48.71)">Apr</text>
    <text x="60.9" y="48.71" text-anchor="end" dy="0.35em" transform="rotate(-90, 60.9, 48.71)">May</text>
    <text x="65.56" y="48.71" text-anchor="end" dy="0.35em" transform="rotate(-90, 65.56, 48.71)">Jun</text>
    <text x="70.08" y="48.71" text-anchor="end" dy="0.35em" transform="rotate(-90, 70.08, 48.71)">Jul</text>
    <text x="74.74" y="48.71" text-anchor="end" dy="0.35em" transform="rotate(-90, 74.74, 48.71)">Aug</text>
    <text x="79.4" y="48.71" text-anchor="end" dy="0.35em" transform="rotate(-90, 79.4, 48.71)">Sep</text>
    <text x="83.92" y="48.71" text-anchor="end" dy="0.35em" transform="rotate(-90, 83.92, 48.71)">Oct</text>
    <text x="88.58" y="48.71" text-anchor="end" dy="0.35em" transform="rotate(-90, 88.58, 48.71)">Nov</text>
    <text x="93.1" y="48.71" text-anchor="end" dy="0.35em" transform="rotate(-90, 93.1, 48.71)">Dec</text>
  </g>
<g clip-path="url(#img-f595a4a8-4)">
  <g id="img-f595a4a8-5">
    <g pointer-events="visible" opacity="1" fill="#000000" fill-opacity="0.000" stroke="#000000" stroke-opacity="0.000" class="guide background" id="img-f595a4a8-6">
      <rect x="19.63" y="12.61" width="76.97" height="35.1"/>
    </g>
    <g class="guide ygridlines xfixed" stroke-dasharray="0.5,0.5" stroke-width="0.2" stroke="#D0D0E0" id="img-f595a4a8-7">
      <path fill="none" d="M19.63,45.71 L 96.6 45.71"/>
      <path fill="none" d="M19.63,30.16 L 96.6 30.16"/>
      <path fill="none" d="M19.63,14.61 L 96.6 14.61"/>
    </g>
    <g class="guide xgridlines yfixed" stroke-dasharray="0.5,0.5" stroke-width="0.2" stroke="#D0D0E0" id="img-f595a4a8-8">
      <path fill="none" d="M24.49,12.61 L 24.49 47.71"/>
      <path fill="none" d="M29,12.61 L 29 47.71"/>
      <path fill="none" d="M33.67,12.61 L 33.67 47.71"/>
      <path fill="none" d="M38.18,12.61 L 38.18 47.71"/>
      <path fill="none" d="M42.85,12.61 L 42.85 47.71"/>
      <path fill="none" d="M47.51,12.61 L 47.51 47.71"/>
      <path fill="none" d="M51.72,12.61 L 51.72 47.71"/>
      <path fill="none" d="M56.39,12.61 L 56.39 47.71"/>
      <path fill="none" d="M60.9,12.61 L 60.9 47.71"/>
      <path fill="none" d="M65.56,12.61 L 65.56 47.71"/>
      <path fill="none" d="M70.08,12.61 L 70.08 47.71"/>
      <path fill="none" d="M74.74,12.61 L 74.74 47.71"/>
      <path fill="none" d="M79.4,12.61 L 79.4 47.71"/>
      <path fill="none" d="M83.92,12.61 L 83.92 47.71"/>
      <path fill="none" d="M88.58,12.61 L 88.58 47.71"/>
      <path fill="none" d="M93.1,12.61 L 93.1 47.71"/>
    </g>
    <g class="plotpanel" id="img-f595a4a8-9">
      <g stroke-width="0.3" fill="#000000" fill-opacity="0.000" class="geometry color_newnot_possible" stroke-dasharray="none" stroke="#808080" id="img-f595a4a8-10">
        <path fill="none" d="M68.42,42.97 L 68.57 42.97 68.72 42.98 68.87 42.98 69.02 42.99 69.17 42.99 69.32 42.99 69.47 43 69.93 43 70.23 43.01 70.53 43.01 70.68 43.02 70.83 43.03 70.98 43.04 71.13 43.05 71.28 43.05 73.84 43.06 75.04 43.09 76.4 43.11 78.95 43.2 79.4 43.21 80.16 43.22 80.91 42.98 83.32 43.05 83.92 43.07 84.67 43.06 85.27 42.93 85.87 42.95 86.33 42.91 88.13 43 89.94 43 90.54 43 90.84 42.97 92.19 42.99 92.34 42.99 93.4 43 93.55 42.97 94.6 43"/>
      </g>
      <g stroke-width="0.3" fill="#000000" fill-opacity="0.000" class="geometry color_newno_tests" stroke-dasharray="none" stroke="#0000FF" id="img-f595a4a8-11">
        <path fill="none" d="M68.42,40.23 L 68.57 40.23 68.72 40.25 68.87 40.25 69.02 40.27 69.17 40.27 69.32 40.27 69.47 40.28 69.93 40.29 70.23 40.31 70.53 40.31 70.68 40.33 70.83 40.41 70.98 40.43 71.13 40.44 71.28 40.48 73.84 40.56 75.04 40.61 76.4 40.64 78.95 40.83 79.4 40.89 80.16 40.92 80.91 41.01 83.32 41.31 83.92 41.48 84.67 41.61 85.27 42.22 85.87 42.29 86.33 42.39 88.13 42.53 89.94 42.62 90.54 42.62 90.84 42.64 92.19 42.66 92.34 42.66 93.4 42.68 93.55 42.68 94.6 42.71"/>
      </g>
      <g stroke-width="0.3" fill="#000000" fill-opacity="0.000" class="geometry color_newtests_fail" stroke-dasharray="none" stroke="#FF0000" id="img-f595a4a8-12">
        <path fill="none" d="M68.42,35.36 L 68.57 35.71 68.72 35.65 68.87 34.63 69.02 34.64 69.17 34.79 69.32 34.79 69.47 35.61 69.93 35.18 70.23 35.21 70.53 35.76 70.68 35.89 70.83 34.81 70.98 35.84 71.13 35.11 71.28 35.46 73.84 36.08 75.04 35.88 76.4 36.38 78.95 36.54 79.4 36.8 80.16 37.08 80.91 37.79 83.32 37.87 83.92 38.19 84.67 38.41 85.27 38.6 85.87 38.82 86.33 39.16 88.13 39.18 89.94 39.36 90.54 39.5 90.84 39.65 92.19 39.69 92.34 39.81 93.4 39.69 93.55 39.9 94.6 39.68"/>
      </g>
      <g stroke-width="0.3" fill="#000000" fill-opacity="0.000" class="geometry color_newtests_pass" stroke-dasharray="none" stroke="#008000" id="img-f595a4a8-13">
        <path fill="none" d="M68.42,33.18 L 68.57 32.82 68.72 32.87 68.87 33.88 69.02 33.83 69.17 33.68 69.32 33.68 69.47 32.85 69.93 33.27 70.23 33.21 70.53 32.66 70.68 32.5 70.83 33.48 70.98 32.43 71.13 33.14 71.28 32.75 73.84 32.04 75.04 32.16 76.4 31.6 78.95 31.16 79.4 30.84 80.16 30.52 80.91 29.96 83.32 29.51 83.92 28.99 84.67 28.65 85.27 28 85.87 27.68 86.33 27.28 88.13 27.02 89.94 26.76 90.54 26.62 90.84 26.47 92.19 26.41 92.34 26.28 93.4 26.37 93.55 26.19 94.6 26.35"/>
      </g>
      <g stroke-width="0.3" fill="#000000" fill-opacity="0.000" class="geometry color_newnot_possible" stroke-dasharray="none" stroke="#808080" id="img-f595a4a8-14">
        <path fill="none" d="M21.63,42.46 L 21.78 42.4 21.93 42.33 22.08 42.34 22.23 42.34 22.38 42.34 22.68 42.36 22.84 42.36 22.99 42.37 23.14 42.37 23.29 42.37 23.44 42.4 23.59 42.42 23.74 42.42 24.04 42.44 24.19 42.38 24.49 42.4 24.64 42.4 24.79 42.32 25.39 42.32 25.84 42.37 25.99 42.38 26.15 42.39 26.3 42.4 26.45 42.4 26.6 42.4 26.75 42.47 26.9 42.47 27.05 42.47 27.35 42.4 27.5 42.4 27.65 42.41 27.8 42.41 27.95 42.41 28.1 42.41 28.25 42.34 28.55 42.33 28.7 42.34 28.85 42.34 29 42.35 29.15 42.3 29.3 42.3 29.46 42.3 29.61 42.31 30.06 42.33 30.21 42.25 30.36 42.27 30.51 42.28 30.66 42.28 30.81 42.28 30.96 42.29 31.11 42.29 31.26 42.3 31.41 42.31 31.56 42.24 31.71 42.24 31.86 42.24 32.01 42.25 32.16 42.27 32.31 42.27 32.46 42.27 32.61 42.28 32.76 42.28 32.92 42.29 33.07 42.29 33.22 42.3 33.37 42.31 33.52 42.31 33.67 42.32 33.82 42.32 33.97 42.32 34.12 42.32 34.27 42.33 34.42 42.33 34.87 42.33 35.62 42.38 35.77 42.39 35.92 42.39 36.07 42.4 36.23 42.4 36.38 42.42 36.53 42.42 37.13 42.46 37.28 42.46 38.03 42.47 38.33 42.47 38.48 42.55 38.63 42.56 38.78 42.56 38.93 42.56 39.08 42.57 39.23 42.59 39.69 42.59 39.84 42.6 40.14 42.63 40.29 42.63 40.44 42.63 40.89 42.63 41.19 42.64 41.64 42.65 42.24 42.66 42.54 42.69 43 42.7 44.05 42.75 44.65 42.79 44.8 42.67 44.95 42.67 45.1 42.65 45.25 42.65 45.4 42.65 45.7 42.65 45.85 42.66 46 42.66 46.16 42.62 46.31 42.62 46.46 42.62 46.61 42.62 46.91 42.58 47.06 42.6 47.21 42.6 47.81 42.65 47.96 42.65 48.11 42.63 48.41 42.65 48.71 42.67 48.86 42.67 49.31 42.68 50.07 42.68 50.82 42.69 51.57 42.74 51.72 42.74 51.87 42.74 52.02 42.34 52.17 42.4 52.47 42.36 52.77 42.36 53.38 42.36 53.53 42.37 53.68 42.37 53.83 42.37 53.98 42.39 54.13 42.44 54.28 42.39 56.08 42.36 56.39 42.3 56.54 42.32 56.84 42.32 57.44 42.33 57.74 42.33 58.04 42.35 58.64 42.36 58.94 42.38 59.09 42.39 59.39 42.42 59.55 42.42 59.7 42.43 59.85 42.44 60 42.44 60.15 42.45 60.45 42.45 60.6 42.46 60.9 42.46 61.2 42.47 61.35 42.49 61.5 42.5 61.8 42.51 61.95 42.51 62.7 42.54 63.31 42.6 63.46 42.56 64.66 42.57 64.81 42.47 64.96 42.47 65.41 42.49 65.56 42.5 65.71 42.56 66.01 42.57 66.32 42.57 66.62 42.58 67.97 42.61"/>
      </g>
      <g stroke-width="0.3" fill="#000000" fill-opacity="0.000" class="geometry color_newtests_fail" stroke-dasharray="none" stroke="#FF0000" id="img-f595a4a8-15">
        <path fill="none" d="M21.63,43.83 L 21.78 43.76 21.93 44.02 22.08 42.17 22.23 42.17 22.38 42.17 22.68 43.95 22.84 44.04 22.99 43.96 23.14 44.12 23.29 44.21 23.44 44.14 23.59 44.15 23.74 44.23 24.04 43.66 24.19 43.52 24.49 43.45 24.64 43.45 24.79 43.53 25.39 43.53 25.84 43.72 25.99 43.73 26.15 43.73 26.3 43.82 26.45 43.9 26.6 44.13 26.75 44.17 26.9 44.17 27.05 44.17 27.35 44.01 27.5 43.94 27.65 44.02 27.8 44.02 27.95 44.1 28.1 43.95 28.25 43.79 28.55 44.33 28.7 41.96 28.85 41.88 29 43.35 29.15 43.36 29.3 43.43 29.46 43.43 29.61 43.44 30.06 42.03 30.21 43.15 30.36 43.39 30.51 43.47 30.66 43.55 30.81 43.4 30.96 43.56 31.11 43.56 31.26 43.41 31.41 43.34 31.56 43.12 31.71 43.27 31.86 43.49 32.01 43.5 32.16 43.51 32.31 37.73 32.46 37.73 32.61 37.75 32.76 38.55 32.92 38.57 33.07 43.31 33.22 43.39 33.37 43.47 33.52 43.47 33.67 43.47 33.82 43.47 33.97 43.47 34.12 43.47 34.27 43.55 34.42 43.48 34.87 43.7 35.62 43.65 35.77 43.66 35.92 43.66 36.07 43.67 36.23 43.67 36.38 43.61 36.53 43.61 37.13 43.64 37.28 43.57 38.03 43.71 38.33 43.78 38.48 43.37 38.63 43.72 38.78 43.65 38.93 43.72 39.08 43.73 39.23 43.74 39.69 43.95 39.84 43.95 40.14 43.23 40.29 43.23 40.44 43.23 40.89 43.23 41.19 43.24 41.64 44.05 42.24 44.05 42.54 44 43 44.08 44.05 43.97 44.65 43.87 44.8 44 44.95 44 45.1 43.84 45.25 43.46 45.4 43.46 45.7 43.46 45.85 43.47 46 43.47 46.16 43.48 46.31 43.49 46.46 43.49 46.61 43.49 46.91 43.5 47.06 43.45 47.21 43.46 47.81 43.19 47.96 43.19 48.11 43.18 48.41 43.13 48.71 39.27 48.86 43.15 49.31 42.98 50.07 42.98 50.82 42.92 51.57 41.52 51.72 42.04 51.87 42.51 52.02 43.16 52.17 43.33 52.47 43.34 52.77 42.99 53.38 43.05 53.53 43.06 53.68 43.01 53.83 43.01 53.98 37.12 54.13 35.55 54.28 36.45 56.08 41.79 56.39 41.96 56.54 43 56.84 43.06 57.44 43.06 57.74 43.07 58.04 43.14 58.64 43.09 58.94 34.1 59.09 36.82 59.39 38.65 59.55 38.65 59.7 38.66 59.85 38.41 60 38.47 60.15 38.75 60.45 38.87 60.6 38.79 60.9 35.16 61.2 35.36 61.35 36.43 61.5 36.45 61.8 36.91 61.95 37.51 62.7 37.78 63.31 38.07 63.46 38.04 64.66 38.76 64.81 38.81 64.96 38.86 65.41 38.8 65.56 38.82 65.71 38.84 66.01 39.02 66.32 38.91 66.62 38.99 67.97 38.86"/>
      </g>
      <g stroke-width="0.3" fill="#000000" fill-opacity="0.000" class="geometry color_newno_tests" stroke-dasharray="none" stroke="#0000FF" id="img-f595a4a8-16">
        <path fill="none" d="M21.63,41.61 L 21.78 41.56 21.93 41.57 22.08 42.08 22.23 42.08 22.38 42.08 22.68 41.7 22.84 41.7 22.99 41.79 23.14 41.79 23.29 41.79 23.44 41.82 23.59 41.84 23.74 41.92 24.04 42.19 24.19 42.3 24.49 42.32 24.64 42.32 24.79 42.32 25.39 42.32 25.84 42.29 25.99 42.3 26.15 42.23 26.3 42.24 26.45 42.24 26.6 42.24 26.75 42.31 26.9 42.39 27.05 42.39 27.35 42.32 27.5 42.4 27.65 42.33 27.8 42.33 27.95 42.33 28.1 42.34 28.25 42.49 28.55 42.33 28.7 42.57 28.85 42.57 29 42.35 29.15 42.37 29.3 42.37 29.46 42.37 29.61 42.39 30.06 42.7 30.21 42.48 30.36 42.42 30.51 42.43 30.66 42.43 30.81 42.43 30.96 42.44 31.11 42.44 31.26 42.45 31.41 42.46 31.56 42.46 31.71 42.46 31.86 42.46 32.01 42.47 32.16 42.49 32.31 42.93 32.46 42.93 32.61 42.93 32.76 42.79 32.92 42.8 33.07 42.5 33.22 42.52 33.37 42.53 33.52 42.53 33.67 42.53 33.82 42.53 33.97 42.53 34.12 42.53 34.27 42.54 34.42 42.55 34.87 42.55 35.62 42.59 35.77 42.61 35.92 42.61 36.07 42.61 36.23 42.61 36.38 42.63 36.53 42.63 37.13 42.67 37.28 42.67 38.03 42.67 38.33 42.67 38.48 42.69 38.63 42.69 38.78 42.76 38.93 42.69 39.08 42.71 39.23 42.72 39.69 42.73 39.84 42.73 40.14 42.76 40.29 42.76 40.44 42.76 40.89 42.76 41.19 42.77 41.64 42.72 42.24 42.8 42.54 42.76 43 42.77 44.05 42.81 44.65 42.85 44.8 42.86 44.95 42.86 45.1 42.9 45.25 42.9 45.4 42.9 45.7 42.9 45.85 42.91 46 42.91 46.16 42.93 46.31 42.93 46.46 42.93 46.61 42.93 46.91 42.95 47.06 42.96 47.21 42.97 47.81 43.07 47.96 43.07 48.11 43.06 48.41 43.07 48.71 43.21 48.86 43.03 49.31 43.04 50.07 43.04 50.82 43.04 51.57 43.26 51.72 43.2 51.87 43.2 52.02 43.21 52.17 43.16 52.47 43.17 52.77 43.22 53.38 43.23 53.53 43.24 53.68 43.29 53.83 43.29 53.98 43.93 54.13 43.99 54.28 43.99 56.08 43.33 56.39 43.33 56.54 43.34 56.84 43.34 57.44 43.34 57.74 43.35 58.04 43.36 58.64 43.42 58.94 43.88 59.09 43.78 59.39 43.74 59.55 43.68 59.7 43.74 59.85 43.75 60 43.75 60.15 43.75 60.45 43.75 60.6 43.82 60.9 43.98 61.2 43.88 61.35 43.83 61.5 43.84 61.8 43.84 61.95 43.79 62.7 43.8 63.31 43.76 63.46 43.76 64.66 43.72 64.81 43.72 64.96 43.72 65.41 43.74 65.56 43.74 65.71 43.75 66.01 43.75 66.32 43.75 66.62 43.76 67.97 43.78"/>
      </g>
      <g stroke-width="0.3" fill="#000000" fill-opacity="0.000" class="geometry color_oldfull_fail" stroke-dasharray="none" stroke="#FFA500" id="img-f595a4a8-17">
        <path fill="none" d="M21.63,42.97 L 21.78 43 21.93 42.24 22.08 42.17 22.23 42.08 22.38 42.08 22.68 42.11 22.84 42.2 22.99 42.37 23.14 42.12 23.29 42.04 23.44 42.23 23.59 42.34 23.74 42.09 24.04 41.78 24.19 42.3 24.49 42.24 24.64 42.24 24.79 42.24 25.39 42.24 25.84 42.05 25.99 42.14 26.15 42.23 26.3 42.09 26.45 42.17 26.6 42.32 26.75 42.08 26.9 41.93 27.05 41.93 27.35 42.24 27.5 42.17 27.65 42.18 27.8 42.33 27.95 42.25 28.1 41.96 28.25 42.03 28.55 42.41 28.7 41.57 28.85 41.34 29 41.75 29.15 41.84 29.3 41.84 29.46 41.84 29.61 41.78 30.06 40.38 30.21 41.2 30.36 42.05 30.51 41.98 30.66 41.76 30.81 41.98 30.96 42.07 31.11 42.07 31.26 41.93 31.41 41.87 31.56 42.16 31.71 42.16 31.86 42.09 32.01 42.03 32.16 42.05 32.31 42.85 32.46 42.78 32.61 42.79 32.76 42.72 32.92 42.58 33.07 40.68 33.22 41.21 33.37 41.51 33.52 41.15 33.67 41.16 33.82 41.09 33.97 41.09 34.12 41.09 34.27 41.25 34.42 41.47 34.87 41.47 35.62 41.39 35.77 41.27 35.92 41.27 36.07 41.35 36.23 41.42 36.38 41.52 36.53 41.38 37.13 40.8 37.28 40.87 38.03 40.47 38.33 40.67 38.48 40.83 38.63 40.91 38.78 40.91 38.93 41.05 39.08 41 39.23 40.96 39.69 40.56 39.84 40.64 40.14 40.61 40.29 40.35 40.44 40.55 40.89 40.68 41.19 40.84 41.64 40.66 42.24 40.75 42.54 41.12 43 40.87 44.05 40.69 44.65 40.95 44.8 40.97 44.95 40.97 45.1 40.84 45.25 40.65 45.4 40.71 45.7 40.85 45.85 40.8 46 40.8 46.16 40.58 46.31 40.65 46.46 40.59 46.61 40.59 46.91 40.68 47.06 40.59 47.21 40.41 47.81 40.32 47.96 40.2 48.11 40.28 48.41 40.38 48.71 41.72 48.86 39.81 49.31 39.54 50.07 39.54 50.82 39.61 51.57 40 51.72 39.88 51.87 39.77 52.02 39.79 52.17 39.96 52.47 39.81 52.77 38.95 53.38 38.44 53.53 38.52 53.68 38.35 53.83 38.47 53.98 40.44 54.13 41.06 54.28 40.56 56.08 39.24 56.39 39.18 56.54 38.71 56.84 39.05 57.44 39.46 57.74 39.52 58.04 39.44 58.64 39.69 58.94 41.32 59.09 40.9 59.39 40.07 59.55 40.01 59.7 39.81 59.85 38.79 60 39.12 60.15 39.35 60.45 39.41 60.6 39.49 60.9 40.79 61.2 40.8 61.35 40.51 61.5 40.46 61.8 40.64 61.95 40.22 62.7 40.31 63.31 40.49 63.46 40.51 64.66 40.69 64.81 40.69 64.96 40.85 65.41 40.62 65.56 40.58 65.71 40.65 66.01 40.51 66.32 40.3 66.62 40.12 67.97 40.03"/>
      </g>
      <g stroke-width="0.3" fill="#000000" fill-opacity="0.000" class="geometry color_newtests_pass" stroke-dasharray="none" stroke="#008000" id="img-f595a4a8-18">
        <path fill="none" d="M21.63,26.57 L 21.78 26.73 21.93 27.29 22.08 28.69 22.23 28.77 22.38 28.77 22.68 27.32 22.84 27.15 22.99 26.95 23.14 27.03 23.29 27.03 23.44 26.85 23.59 26.7 23.74 26.79 24.04 27.38 24.19 26.95 24.49 27.05 24.64 27.05 24.79 27.05 25.39 27.05 25.84 27.02 25.99 26.91 26.15 26.88 26.3 26.89 26.45 26.74 26.6 26.34 26.75 26.42 26.9 26.49 27.05 26.49 27.35 26.47 27.5 26.54 27.65 26.51 27.8 26.36 27.95 26.36 28.1 26.79 28.25 26.79 28.55 26.05 28.7 29.01 28.85 29.32 29 27.64 29.15 27.58 29.3 27.51 29.46 27.51 29.61 27.52 30.06 30.01 30.21 28.36 30.36 27.32 30.51 27.29 30.66 27.44 30.81 27.36 30.96 27.08 31.11 27.08 31.26 27.35 31.41 27.46 31.56 27.46 31.71 27.32 31.86 27.17 32.01 27.18 32.16 27.12 32.31 31.66 32.46 31.73 32.61 31.69 32.76 31.11 32.92 31.22 33.07 28.67 33.22 28.02 33.37 27.63 33.52 27.99 33.67 27.96 33.82 28.03 33.97 28.03 34.12 28.03 34.27 27.78 34.42 27.61 34.87 27.4 35.62 27.43 35.77 27.52 35.92 27.52 36.07 27.42 36.23 27.35 36.38 27.26 36.53 27.4 37.13 27.88 37.28 27.88 38.03 28.13 38.33 27.85 38.48 28 38.63 27.56 38.78 27.56 38.93 27.42 39.08 27.43 39.23 27.44 39.69 27.62 39.84 27.52 40.14 28.22 40.29 28.48 40.44 28.28 40.89 28.15 41.19 27.96 41.64 27.37 42.24 27.18 42.54 26.88 43 27.02 44.05 27.23 44.65 26.99 44.8 26.94 44.95 26.94 45.1 27.23 45.25 27.79 45.4 27.72 45.7 27.57 45.85 27.61 46 27.61 46.16 27.84 46.31 27.75 46.46 27.82 46.61 27.82 46.91 27.74 47.06 27.84 47.21 28 47.81 28.21 47.96 28.33 48.11 28.29 48.41 28.21 48.71 30.58 48.86 28.79 49.31 29.21 50.07 29.21 50.82 29.18 51.57 29.93 51.72 29.58 51.87 29.23 52.02 28.94 52.17 28.59 52.47 28.77 52.77 29.93 53.38 30.36 53.53 30.25 53.68 30.42 53.83 30.3 53.98 33.57 54.13 34.41 54.28 34.05 56.08 30.73 56.39 30.67 56.54 30.08 56.84 29.68 57.44 29.26 57.74 29.18 58.04 29.15 58.64 28.88 58.94 35.77 59.09 33.56 59.39 32.57 59.55 32.68 59.7 32.81 59.85 34.05 60 33.67 60.15 33.15 60.45 32.95 60.6 32.89 60.9 35.05 61.2 34.93 61.35 34.18 61.5 34.2 61.8 33.55 61.95 33.41 62.7 33.02 63.31 32.53 63.46 32.58 64.66 31.7 64.81 31.75 64.96 31.54 65.41 31.8 65.56 31.82 65.71 31.66 66.01 31.6 66.32 31.91 66.62 32.01 67.97 32.16"/>
      </g>
    </g>
  </g>
</g>
  <g class="guide ylabels" font-size="2.82" font-family="'PT Sans Caption','Helvetica Neue','Helvetica',sans-serif" fill="#6C606B" id="img-f595a4a8-19">
    <text x="18.63" y="45.71" text-anchor="end" dy="0.35em">0</text>
    <text x="18.63" y="30.16" text-anchor="end" dy="0.35em">50</text>
    <text x="18.63" y="14.61" text-anchor="end" dy="0.35em">100</text>
  </g>
  <g font-size="3.88" font-family="'PT Sans','Helvetica Neue','Helvetica',sans-serif" fill="#564A55" stroke="#000000" stroke-opacity="0.000" id="img-f595a4a8-20">
    <text x="8.81" y="28.16" text-anchor="middle" dy="0.35em" transform="rotate(-90, 8.81, 30.16)">Percentage of Packages</text>
  </g>
  <g font-size="3.88" font-family="'PT Sans','Helvetica Neue','Helvetica',sans-serif" fill="#564A55" stroke="#000000" stroke-opacity="0.000" id="img-f595a4a8-21">
    <text x="58.12" y="10.61" text-anchor="middle">Julia v0.4 (relative)</text>
  </g>
</g>
<defs>
  <clipPath id="img-f595a4a8-4">
  <path d="M19.63,12.61 L 96.6 12.61 96.6 47.71 19.63 47.71" />
</clipPath>
</defs>
</svg>
