<?xml version="1.0" encoding="UTF-8"?>
<svg xmlns="http://www.w3.org/2000/svg"
     xmlns:xlink="http://www.w3.org/1999/xlink"
     xmlns:gadfly="http://www.gadflyjl.org/ns"
     version="1.2"
     width="101.6mm" height="76.2mm" viewBox="0 0 101.6 76.2"
     stroke="none"
     fill="#000000"
     stroke-width="0.3"
     font-size="3.88"
>
<g class="plotroot xscalable yscalable" id="fig-6fc797f5249a422baf77a6483d1f91d2-element-1">
  <g font-size="3.88" font-family="'PT Sans','Helvetica Neue','Helvetica',sans-serif" fill="#564A55" stroke="#000000" stroke-opacity="0.000" id="fig-6fc797f5249a422baf77a6483d1f91d2-element-2">
    <text x="58.12" y="64.59" text-anchor="middle" dy="0.6em">Date</text>
  </g>
  <g class="guide xlabels" font-size="2.82" font-family="'PT Sans Caption','Helvetica Neue','Helvetica',sans-serif" fill="#6C606B" id="fig-6fc797f5249a422baf77a6483d1f91d2-element-3">
    <text x="24.88" y="57.91" text-anchor="middle" dy="0.6em">Sep</text>
    <text x="30.01" y="57.91" text-anchor="middle" dy="0.6em">Oct</text>
    <text x="35.3" y="57.91" text-anchor="middle" dy="0.6em">Nov</text>
    <text x="40.43" y="57.91" text-anchor="middle" dy="0.6em">Dec</text>
    <text x="45.73" y="57.91" text-anchor="middle" dy="0.6em">Jan 2015</text>
    <text x="51.02" y="57.91" text-anchor="middle" dy="0.6em">Feb</text>
    <text x="55.81" y="57.91" text-anchor="middle" dy="0.6em">Mar</text>
    <text x="61.11" y="57.91" text-anchor="middle" dy="0.6em">Apr</text>
    <text x="66.23" y="57.91" text-anchor="middle" dy="0.6em">May</text>
    <text x="71.53" y="57.91" text-anchor="middle" dy="0.6em">Jun</text>
    <text x="76.66" y="57.91" text-anchor="middle" dy="0.6em">Jul</text>
    <text x="81.95" y="57.91" text-anchor="middle" dy="0.6em">Aug</text>
    <text x="87.25" y="57.91" text-anchor="middle" dy="0.6em">Sep</text>
    <text x="92.38" y="57.91" text-anchor="middle" dy="0.6em">Oct</text>
  </g>
  <g clip-path="url(#fig-6fc797f5249a422baf77a6483d1f91d2-element-5)" id="fig-6fc797f5249a422baf77a6483d1f91d2-element-4">
    <g pointer-events="visible" opacity="1" fill="#000000" fill-opacity="0.000" stroke="#000000" stroke-opacity="0.000" class="guide background" id="fig-6fc797f5249a422baf77a6483d1f91d2-element-6">
      <rect x="19.63" y="12.61" width="76.97" height="44.3"/>
    </g>
    <g class="guide ygridlines xfixed" stroke-dasharray="0.5,0.5" stroke-width="0.2" stroke="#D0D0E0" id="fig-6fc797f5249a422baf77a6483d1f91d2-element-7">
      <path fill="none" d="M19.63,54.91 L 96.6 54.91"/>
      <path fill="none" d="M19.63,46.85 L 96.6 46.85"/>
      <path fill="none" d="M19.63,38.79 L 96.6 38.79"/>
      <path fill="none" d="M19.63,30.73 L 96.6 30.73"/>
      <path fill="none" d="M19.63,22.67 L 96.6 22.67"/>
      <path fill="none" d="M19.63,14.61 L 96.6 14.61"/>
    </g>
    <g class="guide xgridlines yfixed" stroke-dasharray="0.5,0.5" stroke-width="0.2" stroke="#D0D0E0" id="fig-6fc797f5249a422baf77a6483d1f91d2-element-8">
      <path fill="none" d="M24.88,12.61 L 24.88 56.91"/>
      <path fill="none" d="M30.01,12.61 L 30.01 56.91"/>
      <path fill="none" d="M35.3,12.61 L 35.3 56.91"/>
      <path fill="none" d="M40.43,12.61 L 40.43 56.91"/>
      <path fill="none" d="M45.73,12.61 L 45.73 56.91"/>
      <path fill="none" d="M51.02,12.61 L 51.02 56.91"/>
      <path fill="none" d="M55.81,12.61 L 55.81 56.91"/>
      <path fill="none" d="M61.11,12.61 L 61.11 56.91"/>
      <path fill="none" d="M66.23,12.61 L 66.23 56.91"/>
      <path fill="none" d="M71.53,12.61 L 71.53 56.91"/>
      <path fill="none" d="M76.66,12.61 L 76.66 56.91"/>
      <path fill="none" d="M81.95,12.61 L 81.95 56.91"/>
      <path fill="none" d="M87.25,12.61 L 87.25 56.91"/>
      <path fill="none" d="M92.38,12.61 L 92.38 56.91"/>
    </g>
    <g class="plotpanel" id="fig-6fc797f5249a422baf77a6483d1f91d2-element-9">
      <g stroke-width="0.3" fill="#000000" fill-opacity="0.000" class="geometry color_newnot_possible" stroke-dasharray="none" stroke="#808080" id="fig-6fc797f5249a422baf77a6483d1f91d2-element-10">
        <path fill="none" d="M74.78,50.56 L 74.95 50.56 75.12 50.56 75.29 50.56 75.46 50.56 75.63 50.56 75.8 50.56 75.97 50.56 76.49 50.56 76.83 50.56 77.17 50.56 77.34 50.56 77.51 50.56 77.68 50.56 77.85 50.56 78.02 50.56 80.93 50.48 82.3 50.48 83.83 50.48 86.74 50.48 87.25 50.48 88.11 50.48 88.96 50 91.69 50 92.38 50 93.23 49.92 93.92 49.84 94.6 49.84"/>
      </g>
      <g stroke-width="0.3" fill="#000000" fill-opacity="0.000" class="geometry color_newno_tests" stroke-dasharray="none" stroke="#0000FF" id="fig-6fc797f5249a422baf77a6483d1f91d2-element-11">
        <path fill="none" d="M74.78,46.21 L 74.95 46.21 75.12 46.21 75.29 46.21 75.46 46.21 75.63 46.21 75.8 46.21 75.97 46.21 76.49 46.21 76.83 46.21 77.17 46.21 77.34 46.21 77.51 46.29 77.68 46.29 77.85 46.29 78.02 46.37 80.93 46.29 82.3 46.29 83.83 46.29 86.74 46.29 87.25 46.37 88.11 46.37 88.96 46.45 91.69 46.77 92.38 47.02 93.23 47.18 93.92 48.55 94.6 48.63"/>
      </g>
      <g stroke-width="0.3" fill="#000000" fill-opacity="0.000" class="geometry color_newtests_fail" stroke-dasharray="none" stroke="#FF0000" id="fig-6fc797f5249a422baf77a6483d1f91d2-element-12">
        <path fill="none" d="M74.78,38.47 L 74.95 39.04 75.12 38.87 75.29 37.26 75.46 37.18 75.63 37.42 75.8 37.42 75.97 38.71 76.49 37.99 76.83 37.99 77.17 38.87 77.34 39.04 77.51 37.18 77.68 38.79 77.85 37.58 78.02 38.15 80.93 38.79 82.3 38.31 83.83 39.04 86.74 38.71 87.25 39.12 88.11 39.52 88.96 40.65 91.69 40.41 92.38 40.89 93.23 41.13 93.92 41.94 94.6 42.26"/>
      </g>
      <g stroke-width="0.3" fill="#000000" fill-opacity="0.000" class="geometry color_newtests_pass" stroke-dasharray="none" stroke="#008000" id="fig-6fc797f5249a422baf77a6483d1f91d2-element-13">
        <path fill="none" d="M74.78,35.01 L 74.95 34.44 75.12 34.44 75.29 36.05 75.46 35.89 75.63 35.65 75.8 35.65 75.97 34.28 76.49 34.92 76.83 34.76 77.17 33.88 77.34 33.55 77.51 35.01 77.68 33.23 77.85 34.36 78.02 33.72 80.93 32.02 82.3 32.02 83.83 30.89 86.74 29.2 87.25 28.56 88.11 27.83 88.96 26.54 91.69 24.93 92.38 23.72 93.23 22.67 93.92 22.59 94.6 21.79"/>
      </g>
      <g stroke-width="0.3" fill="#000000" fill-opacity="0.000" class="geometry color_newnot_possible" stroke-dasharray="none" stroke="#808080" id="fig-6fc797f5249a422baf77a6483d1f91d2-element-14">
        <path fill="none" d="M21.63,51.85 L 21.8 51.77 21.97 51.69 22.14 51.69 22.32 51.69 22.49 51.69 22.83 51.69 23 51.69 23.17 51.69 23.34 51.69 23.51 51.69 23.68 51.69 23.85 51.69 24.02 51.69 24.37 51.69 24.54 51.61 24.88 51.61 25.05 51.61 25.22 51.53 25.9 51.53 26.42 51.53 26.59 51.53 26.76 51.53 26.93 51.53 27.1 51.53 27.27 51.53 27.44 51.53 27.61 51.53 27.78 51.53 28.13 51.45 28.3 51.45 28.47 51.45 28.64 51.45 28.81 51.45 28.98 51.45 29.15 51.37 29.49 51.37 29.66 51.37 29.83 51.37 30.01 51.37 30.18 51.29 30.35 51.29 30.52 51.29 30.69 51.29 31.2 51.29 31.37 51.21 31.54 51.21 31.71 51.21 31.88 51.21 32.06 51.21 32.23 51.21 32.4 51.21 32.57 51.21 32.74 51.21 32.91 51.13 33.08 51.13 33.25 51.13 33.42 51.13 33.59 51.13 33.76 51.13 33.94 51.13 34.11 51.13 34.28 51.13 34.45 51.13 34.62 51.13 34.79 51.13 34.96 51.13 35.13 51.13 35.3 51.13 35.47 51.13 35.64 51.13 35.82 51.13 35.99 51.13 36.16 51.13 36.67 51.13 37.52 51.13 37.69 51.13 37.87 51.13 38.04 51.13 38.21 51.13 38.38 51.13 38.55 51.13 39.23 51.13 39.4 51.13 40.26 51.13 40.6 51.13 40.77 51.21 40.94 51.21 41.11 51.21 41.28 51.21 41.45 51.21 41.63 51.21 42.14 51.21 42.31 51.21 42.65 51.21 42.82 51.21 42.99 51.21 43.51 51.21 43.85 51.21 44.36 51.21 45.04 51.21 45.38 51.21 45.9 51.21 47.09 51.21 47.78 51.21 47.95 51.05 48.12 51.05 48.29 50.97 48.46 50.97 48.63 50.97 48.97 50.97 49.14 50.97 49.32 50.97 49.49 50.88 49.66 50.88 49.83 50.88 50 50.88 50.34 50.8 50.51 50.8 50.68 50.8 51.37 50.8 51.54 50.8 51.71 50.8 52.05 50.8 52.39 50.8 52.56 50.8 53.07 50.8 53.93 50.8 54.78 50.8 55.64 50.8 55.81 50.8 55.98 50.8 56.15 50.24 56.32 50.32 56.66 50.24 57.01 50.24 57.69 50.24 57.86 50.24 58.03 50.24 58.2 50.24 58.37 50.24 58.54 50.32 58.71 50.24 60.76 50.16 61.11 50.08 61.28 50.08 61.62 50.08 62.3 50.08 62.64 50.08 62.99 50.08 63.67 50.08 64.01 50.08 64.18 50.08 64.52 50.08 64.69 50.08 64.87 50.08 65.04 50.08 65.21 50.08 65.38 50.08 65.72 50.08 65.89 50.08 66.23 50.08 66.57 50.08 66.75 50.08 66.92 50.08 67.26 50.08 67.43 50.08 68.28 50.08 68.97 50.16 69.14 50.08 70.51 50.08 70.68 49.92 70.85 49.92 71.36 49.92 71.53 49.92 71.7 50 72.04 50 72.38 50 72.73 50 74.26 50"/>
      </g>
      <g stroke-width="0.3" fill="#000000" fill-opacity="0.000" class="geometry color_newtests_fail" stroke-dasharray="none" stroke="#FF0000" id="fig-6fc797f5249a422baf77a6483d1f91d2-element-15">
        <path fill="none" d="M21.63,53.14 L 21.8 53.06 21.97 53.3 22.14 51.53 22.32 51.53 22.49 51.53 22.83 53.22 23 53.3 23.17 53.22 23.34 53.38 23.51 53.46 23.68 53.38 23.85 53.38 24.02 53.46 24.37 52.9 24.54 52.74 24.88 52.66 25.05 52.66 25.22 52.74 25.9 52.74 26.42 52.9 26.59 52.9 26.76 52.9 26.93 52.98 27.1 53.06 27.27 53.3 27.44 53.3 27.61 53.3 27.78 53.3 28.13 53.14 28.3 53.06 28.47 53.14 28.64 53.14 28.81 53.22 28.98 53.06 29.15 52.9 29.49 53.46 29.66 50.97 29.83 50.88 30.01 52.42 30.18 52.42 30.35 52.5 30.52 52.5 30.69 52.5 31.2 50.97 31.37 52.17 31.54 52.42 31.71 52.5 31.88 52.58 32.06 52.42 32.23 52.58 32.4 52.58 32.57 52.42 32.74 52.34 32.91 52.09 33.08 52.25 33.25 52.5 33.42 52.5 33.59 52.5 33.76 46.13 33.94 46.13 34.11 46.13 34.28 47.02 34.45 47.02 34.62 52.25 34.79 52.34 34.96 52.42 35.13 52.42 35.3 52.42 35.47 52.42 35.64 52.42 35.82 52.42 35.99 52.5 36.16 52.42 36.67 52.66 37.52 52.58 37.69 52.58 37.87 52.58 38.04 52.58 38.21 52.58 38.38 52.5 38.55 52.5 39.23 52.5 39.4 52.42 40.26 52.58 40.6 52.66 40.77 52.17 40.94 52.58 41.11 52.5 41.28 52.58 41.45 52.58 41.63 52.58 42.14 52.82 42.31 52.82 42.65 51.93 42.82 51.93 42.99 51.93 43.51 51.93 43.85 51.93 44.36 52.9 45.04 52.9 45.38 52.82 45.9 52.9 47.09 52.74 47.78 52.58 47.95 52.74 48.12 52.74 48.29 52.5 48.46 52.01 48.63 52.01 48.97 52.01 49.14 52.01 49.32 52.01 49.49 52.01 49.66 52.01 49.83 52.01 50 52.01 50.34 52.01 50.51 51.93 50.68 51.93 51.37 51.53 51.54 51.53 51.71 51.53 52.05 51.45 52.39 46.21 52.56 51.45 53.07 51.21 53.93 51.21 54.78 51.13 55.64 49.11 55.81 49.84 55.98 50.48 56.15 51.37 56.32 51.61 56.66 51.61 57.01 51.13 57.69 51.21 57.86 51.21 58.03 51.13 58.2 51.13 58.37 42.82 58.54 40.65 58.71 41.86 60.76 49.35 61.11 49.59 61.28 51.05 61.62 51.13 62.3 51.13 62.64 51.13 62.99 51.21 63.67 51.13 64.01 38.07 64.18 41.94 64.52 44.52 64.69 44.52 64.87 44.52 65.04 44.11 65.21 44.19 65.38 44.6 65.72 44.76 65.89 44.6 66.23 39.2 66.57 39.44 66.75 40.97 66.92 40.97 67.26 41.61 67.43 42.5 68.28 42.82 68.97 43.23 69.14 43.15 70.51 44.19 70.68 44.27 70.85 44.36 71.36 44.19 71.53 44.19 71.7 44.19 72.04 44.44 72.38 44.27 72.73 44.36 74.26 44.03"/>
      </g>
      <g stroke-width="0.3" fill="#000000" fill-opacity="0.000" class="geometry color_newno_tests" stroke-dasharray="none" stroke="#0000FF" id="fig-6fc797f5249a422baf77a6483d1f91d2-element-16">
        <path fill="none" d="M21.63,51.05 L 21.8 50.97 21.97 50.97 22.14 51.45 22.32 51.45 22.49 51.45 22.83 51.05 23 51.05 23.17 51.13 23.34 51.13 23.51 51.13 23.68 51.13 23.85 51.13 24.02 51.21 24.37 51.45 24.54 51.53 24.88 51.53 25.05 51.53 25.22 51.53 25.9 51.53 26.42 51.45 26.59 51.45 26.76 51.37 26.93 51.37 27.1 51.37 27.27 51.37 27.44 51.37 27.61 51.45 27.78 51.45 28.13 51.37 28.3 51.45 28.47 51.37 28.64 51.37 28.81 51.37 28.98 51.37 29.15 51.53 29.49 51.37 29.66 51.61 29.83 51.61 30.01 51.37 30.18 51.37 30.35 51.37 30.52 51.37 30.69 51.37 31.2 51.69 31.37 51.45 31.54 51.37 31.71 51.37 31.88 51.37 32.06 51.37 32.23 51.37 32.4 51.37 32.57 51.37 32.74 51.37 32.91 51.37 33.08 51.37 33.25 51.37 33.42 51.37 33.59 51.37 33.76 51.85 33.94 51.85 34.11 51.85 34.28 51.69 34.45 51.69 34.62 51.37 34.79 51.37 34.96 51.37 35.13 51.37 35.3 51.37 35.47 51.37 35.64 51.37 35.82 51.37 35.99 51.37 36.16 51.37 36.67 51.37 37.52 51.37 37.69 51.37 37.87 51.37 38.04 51.37 38.21 51.37 38.38 51.37 38.55 51.37 39.23 51.37 39.4 51.37 40.26 51.37 40.6 51.37 40.77 51.37 40.94 51.37 41.11 51.45 41.28 51.37 41.45 51.37 41.63 51.37 42.14 51.37 42.31 51.37 42.65 51.37 42.82 51.37 42.99 51.37 43.51 51.37 43.85 51.37 44.36 51.29 45.04 51.37 45.38 51.29 45.9 51.29 47.09 51.29 47.78 51.29 47.95 51.29 48.12 51.29 48.29 51.29 48.46 51.29 48.63 51.29 48.97 51.29 49.14 51.29 49.32 51.29 49.49 51.29 49.66 51.29 49.83 51.29 50 51.29 50.34 51.29 50.51 51.29 50.68 51.29 51.37 51.37 51.54 51.37 51.71 51.37 52.05 51.37 52.39 51.53 52.56 51.29 53.07 51.29 53.93 51.29 54.78 51.29 55.64 51.53 55.81 51.45 55.98 51.45 56.15 51.45 56.32 51.37 56.66 51.37 57.01 51.45 57.69 51.45 57.86 51.45 58.03 51.53 58.2 51.53 58.37 52.42 58.54 52.5 58.71 52.5 60.76 51.53 61.11 51.53 61.28 51.53 61.62 51.53 62.3 51.53 62.64 51.53 62.99 51.53 63.67 51.61 64.01 52.25 64.18 52.09 64.52 52.01 64.69 51.93 64.87 52.01 65.04 52.01 65.21 52.01 65.38 52.01 65.72 52.01 65.89 52.09 66.23 52.34 66.57 52.17 66.75 52.09 66.92 52.09 67.26 52.09 67.43 52.01 68.28 52.01 68.97 51.93 69.14 51.93 70.51 51.85 70.68 51.85 70.85 51.85 71.36 51.85 71.53 51.85 71.7 51.85 72.04 51.85 72.38 51.85 72.73 51.85 74.26 51.85"/>
      </g>
      <g stroke-width="0.3" fill="#000000" fill-opacity="0.000" class="geometry color_oldfull_fail" stroke-dasharray="none" stroke="#FFA500" id="fig-6fc797f5249a422baf77a6483d1f91d2-element-17">
        <path fill="none" d="M21.63,52.34 L 21.8 52.34 21.97 51.61 22.14 51.53 22.32 51.45 22.49 51.45 22.83 51.45 23 51.53 23.17 51.69 23.34 51.45 23.51 51.37 23.68 51.53 23.85 51.61 24.02 51.37 24.37 51.05 24.54 51.53 24.88 51.45 25.05 51.45 25.22 51.45 25.9 51.45 26.42 51.21 26.59 51.29 26.76 51.37 26.93 51.21 27.1 51.29 27.27 51.45 27.44 51.13 27.61 50.97 27.78 50.97 28.13 51.29 28.3 51.21 28.47 51.21 28.64 51.37 28.81 51.29 28.98 50.97 29.15 51.05 29.49 51.45 29.66 50.56 29.83 50.32 30.01 50.72 30.18 50.8 30.35 50.8 30.52 50.8 30.69 50.72 31.2 49.19 31.37 50.08 31.54 50.97 31.71 50.88 31.88 50.64 32.06 50.88 32.23 50.97 32.4 50.97 32.57 50.8 32.74 50.72 32.91 51.05 33.08 51.05 33.25 50.97 33.42 50.88 33.59 50.88 33.76 51.77 33.94 51.69 34.11 51.69 34.28 51.61 34.45 51.45 34.62 49.35 34.79 49.92 34.96 50.24 35.13 49.84 35.3 49.84 35.47 49.76 35.64 49.76 35.82 49.76 35.99 49.92 36.16 50.16 36.67 50.16 37.52 50 37.69 49.84 37.87 49.84 38.04 49.92 38.21 50 38.38 50.08 38.55 49.92 39.23 49.19 39.4 49.27 40.26 48.79 40.6 49.03 40.77 49.19 40.94 49.27 41.11 49.27 41.28 49.43 41.45 49.35 41.63 49.27 42.14 48.79 42.31 48.87 42.65 48.79 42.82 48.47 42.99 48.71 43.51 48.87 43.85 49.03 44.36 48.79 45.04 48.87 45.38 49.27 45.9 48.95 47.09 48.63 47.78 48.87 47.95 48.87 48.12 48.87 48.29 48.63 48.46 48.39 48.63 48.47 48.97 48.63 49.14 48.55 49.32 48.55 49.49 48.22 49.66 48.31 49.83 48.22 50 48.22 50.34 48.31 50.51 48.14 50.68 47.9 51.37 47.66 51.54 47.5 51.71 47.66 52.05 47.74 52.39 49.51 52.56 46.93 53.07 46.53 53.93 46.53 54.78 46.61 55.64 47.02 55.81 46.85 55.98 46.69 56.15 46.69 56.32 46.93 56.66 46.69 57.01 45.48 57.69 44.76 57.86 44.84 58.03 44.6 58.2 44.76 58.37 47.5 58.54 48.39 58.71 47.66 60.76 45.73 61.11 45.65 61.28 44.92 61.62 45.4 62.3 45.97 62.64 46.05 62.99 45.89 63.67 46.21 64.01 48.55 64.18 47.9 64.52 46.61 64.69 46.53 64.87 46.21 65.04 44.68 65.21 45.16 65.38 45.48 65.72 45.56 65.89 45.65 66.23 47.58 66.57 47.58 66.75 47.1 66.92 47.02 67.26 47.26 67.43 46.61 68.28 46.69 68.97 46.93 69.14 46.93 70.51 47.18 70.68 47.18 70.85 47.42 71.36 47.02 71.53 46.93 71.7 47.02 72.04 46.77 72.38 46.45 72.73 46.13 74.26 45.89"/>
      </g>
      <g stroke-width="0.3" fill="#000000" fill-opacity="0.000" class="geometry color_newtests_pass" stroke-dasharray="none" stroke="#008000" id="fig-6fc797f5249a422baf77a6483d1f91d2-element-18">
        <path fill="none" d="M21.63,36.86 L 21.8 36.86 21.97 37.34 22.14 38.63 22.32 38.71 22.49 38.71 22.83 37.18 23 37.02 23.17 36.78 23.34 36.86 23.51 36.86 23.68 36.54 23.85 36.29 24.02 36.38 24.37 36.86 24.54 36.29 24.88 36.29 25.05 36.29 25.22 36.29 25.9 36.29 26.42 35.97 26.59 35.81 26.76 35.73 26.93 35.65 27.1 35.49 27.27 35.09 27.44 34.76 27.61 34.84 27.78 34.84 28.13 34.76 28.3 34.84 28.47 34.76 28.64 34.6 28.81 34.6 28.98 35.01 29.15 35.01 29.49 34.28 29.66 37.34 29.83 37.67 30.01 35.81 30.18 35.65 30.35 35.57 30.52 35.57 30.69 35.49 31.2 38.07 31.37 36.29 31.54 35.09 31.71 35.01 31.88 35.17 32.06 35.09 32.23 34.68 32.4 34.68 32.57 34.92 32.74 35.01 32.91 35.01 33.08 34.84 33.25 34.68 33.42 34.6 33.59 34.44 33.76 39.44 33.94 39.52 34.11 39.44 34.28 38.79 34.45 38.87 34.62 36.05 34.79 35.25 34.96 34.76 35.13 35.17 35.3 35.09 35.47 35.17 35.64 35.17 35.82 35.17 35.99 34.84 36.16 34.6 36.67 34.36 37.52 34.12 37.69 34.12 37.87 34.12 38.04 33.96 38.21 33.88 38.38 33.63 38.55 33.8 39.23 34.12 39.4 34.12 40.26 34.36 40.6 34.04 40.77 34.12 40.94 33.55 41.11 33.55 41.28 33.39 41.45 33.31 41.63 33.23 42.14 33.39 42.31 33.23 42.65 33.88 42.82 34.2 42.99 33.96 43.51 33.8 43.85 33.47 44.36 32.67 45.04 32.35 45.38 31.78 45.9 31.86 47.09 31.78 47.78 31.14 47.95 30.97 48.12 30.97 48.29 31.06 48.46 31.78 48.63 31.7 48.97 31.46 49.14 31.46 49.32 31.46 49.49 31.62 49.66 31.46 49.83 31.54 50 31.54 50.34 31.3 50.51 31.3 50.68 31.46 51.37 31.38 51.54 31.54 51.71 31.62 52.05 31.38 52.39 34.44 52.56 32.02 53.07 32.51 53.93 32.51 54.78 32.43 55.64 33.07 55.81 32.59 55.98 32.1 56.15 31.62 56.32 31.14 56.66 31.3 57.01 32.91 57.69 33.47 57.86 33.23 58.03 33.47 58.2 33.31 58.37 37.83 58.54 39.04 58.71 38.47 60.76 33.63 61.11 33.55 61.28 32.59 61.62 32.02 62.3 31.38 62.64 31.22 62.99 31.06 63.67 30.57 64.01 40.49 64.18 37.18 64.52 35.57 64.69 35.73 64.87 35.89 65.04 37.67 65.21 37.1 65.38 36.29 65.72 35.97 65.89 35.81 66.23 39.04 66.57 38.79 66.75 37.58 66.92 37.58 67.26 36.54 67.43 36.29 68.28 35.57 68.97 34.76 69.14 34.76 70.51 33.31 70.68 33.39 70.85 33.07 71.36 33.31 71.53 33.31 71.7 32.99 72.04 32.83 72.38 33.31 72.73 33.39 74.26 33.39"/>
      </g>
    </g>
  </g>
  <g class="guide ylabels" font-size="2.82" font-family="'PT Sans Caption','Helvetica Neue','Helvetica',sans-serif" fill="#6C606B" id="fig-6fc797f5249a422baf77a6483d1f91d2-element-19">
    <text x="18.63" y="54.91" text-anchor="end" dy="0.35em">0</text>
    <text x="18.63" y="46.85" text-anchor="end" dy="0.35em">100</text>
    <text x="18.63" y="38.79" text-anchor="end" dy="0.35em">200</text>
    <text x="18.63" y="30.73" text-anchor="end" dy="0.35em">300</text>
    <text x="18.63" y="22.67" text-anchor="end" dy="0.35em">400</text>
    <text x="18.63" y="14.61" text-anchor="end" dy="0.35em">500</text>
  </g>
  <g font-size="3.88" font-family="'PT Sans','Helvetica Neue','Helvetica',sans-serif" fill="#564A55" stroke="#000000" stroke-opacity="0.000" id="fig-6fc797f5249a422baf77a6483d1f91d2-element-20">
    <text x="8.81" y="32.76" text-anchor="middle" dy="0.35em" transform="rotate(-90, 8.81, 34.76)">Number of Packages</text>
  </g>
  <g font-size="3.88" font-family="'PT Sans','Helvetica Neue','Helvetica',sans-serif" fill="#564A55" stroke="#000000" stroke-opacity="0.000" id="fig-6fc797f5249a422baf77a6483d1f91d2-element-21">
    <text x="58.12" y="10.61" text-anchor="middle">Julia v0.4</text>
  </g>
</g>
<defs>
<clipPath id="fig-6fc797f5249a422baf77a6483d1f91d2-element-5">
  <path d="M19.63,12.61 L 96.6 12.61 96.6 56.91 19.63 56.91" />
</clipPath
></defs>
</svg>
