<?xml version="1.0" encoding="UTF-8"?>
<svg xmlns="http://www.w3.org/2000/svg"
     xmlns:xlink="http://www.w3.org/1999/xlink"
     xmlns:gadfly="http://www.gadflyjl.org/ns"
     version="1.2"
     width="101.6mm" height="76.2mm" viewBox="0 0 101.6 76.2"
     stroke="none"
     fill="#000000"
     stroke-width="0.3"
     font-size="3.88"
>
<g class="plotroot xscalable yscalable" id="fig-90f965fcc564487db919f534164d087e-element-1">
  <g font-size="3.88" font-family="'PT Sans','Helvetica Neue','Helvetica',sans-serif" fill="#564A55" stroke="#000000" stroke-opacity="0.000" id="fig-90f965fcc564487db919f534164d087e-element-2">
    <text x="58.12" y="64.59" text-anchor="middle" dy="0.6em">Date</text>
  </g>
  <g class="guide xlabels" font-size="2.82" font-family="'PT Sans Caption','Helvetica Neue','Helvetica',sans-serif" fill="#6C606B" id="fig-90f965fcc564487db919f534164d087e-element-3">
    <text x="24.65" y="48.71" text-anchor="end" dy="0.35em" transform="rotate(-90, 24.65, 48.71)">Sep</text>
    <text x="29.4" y="48.71" text-anchor="end" dy="0.35em" transform="rotate(-90, 29.4, 48.71)">Oct</text>
    <text x="34.32" y="48.71" text-anchor="end" dy="0.35em" transform="rotate(-90, 34.32, 48.71)">Nov</text>
    <text x="39.08" y="48.71" text-anchor="end" dy="0.35em" transform="rotate(-90, 39.08, 48.71)">Dec</text>
    <text x="44" y="48.71" text-anchor="end" dy="0.35em" transform="rotate(-90, 44, 48.71)">Jan 2015</text>
    <text x="48.92" y="48.71" text-anchor="end" dy="0.35em" transform="rotate(-90, 48.92, 48.71)">Feb</text>
    <text x="53.36" y="48.71" text-anchor="end" dy="0.35em" transform="rotate(-90, 53.36, 48.71)">Mar</text>
    <text x="58.27" y="48.71" text-anchor="end" dy="0.35em" transform="rotate(-90, 58.27, 48.71)">Apr</text>
    <text x="63.03" y="48.71" text-anchor="end" dy="0.35em" transform="rotate(-90, 63.03, 48.71)">May</text>
    <text x="67.95" y="48.71" text-anchor="end" dy="0.35em" transform="rotate(-90, 67.95, 48.71)">Jun</text>
    <text x="72.71" y="48.71" text-anchor="end" dy="0.35em" transform="rotate(-90, 72.71, 48.71)">Jul</text>
    <text x="77.63" y="48.71" text-anchor="end" dy="0.35em" transform="rotate(-90, 77.63, 48.71)">Aug</text>
    <text x="82.54" y="48.71" text-anchor="end" dy="0.35em" transform="rotate(-90, 82.54, 48.71)">Sep</text>
    <text x="87.3" y="48.71" text-anchor="end" dy="0.35em" transform="rotate(-90, 87.3, 48.71)">Oct</text>
    <text x="92.22" y="48.71" text-anchor="end" dy="0.35em" transform="rotate(-90, 92.22, 48.71)">Nov</text>
  </g>
  <g clip-path="url(#fig-90f965fcc564487db919f534164d087e-element-5)" id="fig-90f965fcc564487db919f534164d087e-element-4">
    <g pointer-events="visible" opacity="1" fill="#000000" fill-opacity="0.000" stroke="#000000" stroke-opacity="0.000" class="guide background" id="fig-90f965fcc564487db919f534164d087e-element-6">
      <rect x="19.63" y="12.61" width="76.97" height="35.1"/>
    </g>
    <g class="guide ygridlines xfixed" stroke-dasharray="0.5,0.5" stroke-width="0.2" stroke="#D0D0E0" id="fig-90f965fcc564487db919f534164d087e-element-7">
      <path fill="none" d="M19.63,45.71 L 96.6 45.71"/>
      <path fill="none" d="M19.63,39.49 L 96.6 39.49"/>
      <path fill="none" d="M19.63,33.27 L 96.6 33.27"/>
      <path fill="none" d="M19.63,27.05 L 96.6 27.05"/>
      <path fill="none" d="M19.63,20.83 L 96.6 20.83"/>
      <path fill="none" d="M19.63,14.61 L 96.6 14.61"/>
    </g>
    <g class="guide xgridlines yfixed" stroke-dasharray="0.5,0.5" stroke-width="0.2" stroke="#D0D0E0" id="fig-90f965fcc564487db919f534164d087e-element-8">
      <path fill="none" d="M24.65,12.61 L 24.65 47.71"/>
      <path fill="none" d="M29.4,12.61 L 29.4 47.71"/>
      <path fill="none" d="M34.32,12.61 L 34.32 47.71"/>
      <path fill="none" d="M39.08,12.61 L 39.08 47.71"/>
      <path fill="none" d="M44,12.61 L 44 47.71"/>
      <path fill="none" d="M48.92,12.61 L 48.92 47.71"/>
      <path fill="none" d="M53.36,12.61 L 53.36 47.71"/>
      <path fill="none" d="M58.27,12.61 L 58.27 47.71"/>
      <path fill="none" d="M63.03,12.61 L 63.03 47.71"/>
      <path fill="none" d="M67.95,12.61 L 67.95 47.71"/>
      <path fill="none" d="M72.71,12.61 L 72.71 47.71"/>
      <path fill="none" d="M77.63,12.61 L 77.63 47.71"/>
      <path fill="none" d="M82.54,12.61 L 82.54 47.71"/>
      <path fill="none" d="M87.3,12.61 L 87.3 47.71"/>
      <path fill="none" d="M92.22,12.61 L 92.22 47.71"/>
    </g>
    <g class="plotpanel" id="fig-90f965fcc564487db919f534164d087e-element-9">
      <g stroke-width="0.3" fill="#000000" fill-opacity="0.000" class="geometry color_newnot_possible" stroke-dasharray="none" stroke="#808080" id="fig-90f965fcc564487db919f534164d087e-element-10">
        <path fill="none" d="M70.96,42.35 L 71.12 42.35 71.28 42.35 71.44 42.35 71.6 42.35 71.76 42.35 71.92 42.35 72.07 42.35 72.55 42.35 72.87 42.35 73.19 42.35 73.34 42.35 73.5 42.35 73.66 42.35 73.82 42.35 73.98 42.35 76.68 42.29 77.94 42.29 79.37 42.29 82.07 42.29 82.54 42.29 83.34 42.29 84.13 41.91 86.67 41.91 87.3 41.91 88.1 41.85 88.73 41.79 89.37 41.79 89.84 41.73 91.74 41.73 93.65 41.67 94.28 41.67 94.6 41.6"/>
      </g>
      <g stroke-width="0.3" fill="#000000" fill-opacity="0.000" class="geometry color_newno_tests" stroke-dasharray="none" stroke="#0000FF" id="fig-90f965fcc564487db919f534164d087e-element-11">
        <path fill="none" d="M70.96,38.99 L 71.12 38.99 71.28 38.99 71.44 38.99 71.6 38.99 71.76 38.99 71.92 38.99 72.07 38.99 72.55 38.99 72.87 38.99 73.19 38.99 73.34 38.99 73.5 39.05 73.66 39.05 73.82 39.05 73.98 39.12 76.68 39.05 77.94 39.05 79.37 39.05 82.07 39.05 82.54 39.12 83.34 39.12 84.13 39.18 86.67 39.43 87.3 39.61 88.1 39.74 88.73 40.8 89.37 40.86 89.84 40.98 91.74 41.04 93.65 41.11 94.28 41.11 94.6 41.11"/>
      </g>
      <g stroke-width="0.3" fill="#000000" fill-opacity="0.000" class="geometry color_newtests_fail" stroke-dasharray="none" stroke="#FF0000" id="fig-90f965fcc564487db919f534164d087e-element-12">
        <path fill="none" d="M70.96,33.02 L 71.12 33.46 71.28 33.33 71.44 32.09 71.6 32.03 71.76 32.21 71.92 32.21 72.07 33.21 72.55 32.65 72.87 32.65 73.19 33.33 73.34 33.46 73.5 32.03 73.66 33.27 73.82 32.34 73.98 32.77 76.68 33.27 77.94 32.9 79.37 33.46 82.07 33.21 82.54 33.52 83.34 33.83 84.13 34.7 86.67 34.51 87.3 34.89 88.1 35.07 88.73 35.7 89.37 35.94 89.84 36.38 91.74 36.13 93.65 36.25 94.28 36.44 94.6 36.63"/>
      </g>
      <g stroke-width="0.3" fill="#000000" fill-opacity="0.000" class="geometry color_newtests_pass" stroke-dasharray="none" stroke="#008000" id="fig-90f965fcc564487db919f534164d087e-element-13">
        <path fill="none" d="M70.96,30.35 L 71.12 29.91 71.28 29.91 71.44 31.16 71.6 31.03 71.76 30.84 71.92 30.84 72.07 29.79 72.55 30.28 72.87 30.16 73.19 29.48 73.34 29.23 73.5 30.35 73.66 28.98 73.82 29.85 73.98 29.35 76.68 28.05 77.94 28.05 79.37 27.17 82.07 25.87 82.54 25.37 83.34 24.81 84.13 23.82 86.67 22.57 87.3 21.64 88.1 20.83 88.73 20.77 89.37 20.15 89.84 19.46 91.74 18.28 93.65 17.47 94.28 17.22 94.6 16.85"/>
      </g>
      <g stroke-width="0.3" fill="#000000" fill-opacity="0.000" class="geometry color_newnot_possible" stroke-dasharray="none" stroke="#808080" id="fig-90f965fcc564487db919f534164d087e-element-14">
        <path fill="none" d="M21.63,43.34 L 21.79 43.28 21.95 43.22 22.11 43.22 22.27 43.22 22.42 43.22 22.74 43.22 22.9 43.22 23.06 43.22 23.22 43.22 23.38 43.22 23.54 43.22 23.69 43.22 23.85 43.22 24.17 43.22 24.33 43.16 24.65 43.16 24.8 43.16 24.96 43.1 25.6 43.1 26.07 43.1 26.23 43.1 26.39 43.1 26.55 43.1 26.71 43.1 26.87 43.1 27.02 43.1 27.18 43.1 27.34 43.1 27.66 43.03 27.82 43.03 27.98 43.03 28.14 43.03 28.29 43.03 28.45 43.03 28.61 42.97 28.93 42.97 29.09 42.97 29.25 42.97 29.4 42.97 29.56 42.91 29.72 42.91 29.88 42.91 30.04 42.91 30.51 42.91 30.67 42.85 30.83 42.85 30.99 42.85 31.15 42.85 31.31 42.85 31.47 42.85 31.63 42.85 31.78 42.85 31.94 42.85 32.1 42.79 32.26 42.79 32.42 42.79 32.58 42.79 32.74 42.79 32.89 42.79 33.05 42.79 33.21 42.79 33.37 42.79 33.53 42.79 33.69 42.79 33.85 42.79 34 42.79 34.16 42.79 34.32 42.79 34.48 42.79 34.64 42.79 34.8 42.79 34.96 42.79 35.11 42.79 35.59 42.79 36.38 42.79 36.54 42.79 36.7 42.79 36.86 42.79 37.02 42.79 37.18 42.79 37.34 42.79 37.97 42.79 38.13 42.79 38.92 42.79 39.24 42.79 39.4 42.85 39.56 42.85 39.72 42.85 39.87 42.85 40.03 42.85 40.19 42.85 40.67 42.85 40.83 42.85 41.14 42.85 41.3 42.85 41.46 42.85 41.94 42.85 42.25 42.85 42.73 42.85 43.36 42.85 43.68 42.85 44.16 42.85 45.27 42.85 45.9 42.85 46.06 42.72 46.22 42.72 46.38 42.66 46.54 42.66 46.69 42.66 47.01 42.66 47.17 42.66 47.33 42.66 47.49 42.6 47.65 42.6 47.81 42.6 47.96 42.6 48.28 42.54 48.44 42.54 48.6 42.54 49.23 42.54 49.39 42.54 49.55 42.54 49.87 42.54 50.18 42.54 50.34 42.54 50.82 42.54 51.61 42.54 52.41 42.54 53.2 42.54 53.36 42.54 53.52 42.54 53.67 42.1 53.83 42.16 54.15 42.1 54.47 42.1 55.1 42.1 55.26 42.1 55.42 42.1 55.58 42.1 55.74 42.1 55.9 42.16 56.05 42.1 57.96 42.04 58.27 41.98 58.43 41.98 58.75 41.98 59.38 41.98 59.7 41.98 60.02 41.98 60.65 41.98 60.97 41.98 61.13 41.98 61.45 41.98 61.61 41.98 61.76 41.98 61.92 41.98 62.08 41.98 62.24 41.98 62.56 41.98 62.72 41.98 63.03 41.98 63.35 41.98 63.51 41.98 63.67 41.98 63.99 41.98 64.14 41.98 64.94 41.98 65.57 42.04 65.73 41.98 67 41.98 67.16 41.85 67.32 41.85 67.79 41.85 67.95 41.85 68.11 41.91 68.43 41.91 68.74 41.91 69.06 41.91 70.49 41.91"/>
      </g>
      <g stroke-width="0.3" fill="#000000" fill-opacity="0.000" class="geometry color_newtests_fail" stroke-dasharray="none" stroke="#FF0000" id="fig-90f965fcc564487db919f534164d087e-element-15">
        <path fill="none" d="M21.63,44.34 L 21.79 44.28 21.95 44.46 22.11 43.1 22.27 43.1 22.42 43.1 22.74 44.4 22.9 44.46 23.06 44.4 23.22 44.53 23.38 44.59 23.54 44.53 23.69 44.53 23.85 44.59 24.17 44.15 24.33 44.03 24.65 43.97 24.8 43.97 24.96 44.03 25.6 44.03 26.07 44.15 26.23 44.15 26.39 44.15 26.55 44.22 26.71 44.28 26.87 44.46 27.02 44.46 27.18 44.46 27.34 44.46 27.66 44.34 27.82 44.28 27.98 44.34 28.14 44.34 28.29 44.4 28.45 44.28 28.61 44.15 28.93 44.59 29.09 42.66 29.25 42.6 29.4 43.78 29.56 43.78 29.72 43.84 29.88 43.84 30.04 43.84 30.51 42.66 30.67 43.59 30.83 43.78 30.99 43.84 31.15 43.9 31.31 43.78 31.47 43.9 31.63 43.9 31.78 43.78 31.94 43.72 32.1 43.53 32.26 43.66 32.42 43.84 32.58 43.84 32.74 43.84 32.89 38.93 33.05 38.93 33.21 38.93 33.37 39.61 33.53 39.61 33.69 43.66 33.85 43.72 34 43.78 34.16 43.78 34.32 43.78 34.48 43.78 34.64 43.78 34.8 43.78 34.96 43.84 35.11 43.78 35.59 43.97 36.38 43.9 36.54 43.9 36.7 43.9 36.86 43.9 37.02 43.9 37.18 43.84 37.34 43.84 37.97 43.84 38.13 43.78 38.92 43.9 39.24 43.97 39.4 43.59 39.56 43.9 39.72 43.84 39.87 43.9 40.03 43.9 40.19 43.9 40.67 44.09 40.83 44.09 41.14 43.41 41.3 43.41 41.46 43.41 41.94 43.41 42.25 43.41 42.73 44.15 43.36 44.15 43.68 44.09 44.16 44.15 45.27 44.03 45.9 43.9 46.06 44.03 46.22 44.03 46.38 43.84 46.54 43.47 46.69 43.47 47.01 43.47 47.17 43.47 47.33 43.47 47.49 43.47 47.65 43.47 47.81 43.47 47.96 43.47 48.28 43.47 48.44 43.41 48.6 43.41 49.23 43.1 49.39 43.1 49.55 43.1 49.87 43.03 50.18 38.99 50.34 43.03 50.82 42.85 51.61 42.85 52.41 42.79 53.2 41.23 53.36 41.79 53.52 42.29 53.67 42.97 53.83 43.16 54.15 43.16 54.47 42.79 55.1 42.85 55.26 42.85 55.42 42.79 55.58 42.79 55.74 36.38 55.9 34.7 56.05 35.63 57.96 41.42 58.27 41.6 58.43 42.72 58.75 42.79 59.38 42.79 59.7 42.79 60.02 42.85 60.65 42.79 60.97 32.71 61.13 35.7 61.45 37.69 61.61 37.69 61.76 37.69 61.92 37.37 62.08 37.44 62.24 37.75 62.56 37.87 62.72 37.75 63.03 33.58 63.35 33.77 63.51 34.95 63.67 34.95 63.99 35.45 64.14 36.13 64.94 36.38 65.57 36.69 65.73 36.63 67 37.44 67.16 37.5 67.32 37.56 67.79 37.44 67.95 37.44 68.11 37.44 68.43 37.62 68.74 37.5 69.06 37.56 70.49 37.31"/>
      </g>
      <g stroke-width="0.3" fill="#000000" fill-opacity="0.000" class="geometry color_newno_tests" stroke-dasharray="none" stroke="#0000FF" id="fig-90f965fcc564487db919f534164d087e-element-16">
        <path fill="none" d="M21.63,42.72 L 21.79 42.66 21.95 42.66 22.11 43.03 22.27 43.03 22.42 43.03 22.74 42.72 22.9 42.72 23.06 42.79 23.22 42.79 23.38 42.79 23.54 42.79 23.69 42.79 23.85 42.85 24.17 43.03 24.33 43.1 24.65 43.1 24.8 43.1 24.96 43.1 25.6 43.1 26.07 43.03 26.23 43.03 26.39 42.97 26.55 42.97 26.71 42.97 26.87 42.97 27.02 42.97 27.18 43.03 27.34 43.03 27.66 42.97 27.82 43.03 27.98 42.97 28.14 42.97 28.29 42.97 28.45 42.97 28.61 43.1 28.93 42.97 29.09 43.16 29.25 43.16 29.4 42.97 29.56 42.97 29.72 42.97 29.88 42.97 30.04 42.97 30.51 43.22 30.67 43.03 30.83 42.97 30.99 42.97 31.15 42.97 31.31 42.97 31.47 42.97 31.63 42.97 31.78 42.97 31.94 42.97 32.1 42.97 32.26 42.97 32.42 42.97 32.58 42.97 32.74 42.97 32.89 43.34 33.05 43.34 33.21 43.34 33.37 43.22 33.53 43.22 33.69 42.97 33.85 42.97 34 42.97 34.16 42.97 34.32 42.97 34.48 42.97 34.64 42.97 34.8 42.97 34.96 42.97 35.11 42.97 35.59 42.97 36.38 42.97 36.54 42.97 36.7 42.97 36.86 42.97 37.02 42.97 37.18 42.97 37.34 42.97 37.97 42.97 38.13 42.97 38.92 42.97 39.24 42.97 39.4 42.97 39.56 42.97 39.72 43.03 39.87 42.97 40.03 42.97 40.19 42.97 40.67 42.97 40.83 42.97 41.14 42.97 41.3 42.97 41.46 42.97 41.94 42.97 42.25 42.97 42.73 42.91 43.36 42.97 43.68 42.91 44.16 42.91 45.27 42.91 45.9 42.91 46.06 42.91 46.22 42.91 46.38 42.91 46.54 42.91 46.69 42.91 47.01 42.91 47.17 42.91 47.33 42.91 47.49 42.91 47.65 42.91 47.81 42.91 47.96 42.91 48.28 42.91 48.44 42.91 48.6 42.91 49.23 42.97 49.39 42.97 49.55 42.97 49.87 42.97 50.18 43.1 50.34 42.91 50.82 42.91 51.61 42.91 52.41 42.91 53.2 43.1 53.36 43.03 53.52 43.03 53.67 43.03 53.83 42.97 54.15 42.97 54.47 43.03 55.1 43.03 55.26 43.03 55.42 43.1 55.58 43.1 55.74 43.78 55.9 43.84 56.05 43.84 57.96 43.1 58.27 43.1 58.43 43.1 58.75 43.1 59.38 43.1 59.7 43.1 60.02 43.1 60.65 43.16 60.97 43.66 61.13 43.53 61.45 43.47 61.61 43.41 61.76 43.47 61.92 43.47 62.08 43.47 62.24 43.47 62.56 43.47 62.72 43.53 63.03 43.72 63.35 43.59 63.51 43.53 63.67 43.53 63.99 43.53 64.14 43.47 64.94 43.47 65.57 43.41 65.73 43.41 67 43.34 67.16 43.34 67.32 43.34 67.79 43.34 67.95 43.34 68.11 43.34 68.43 43.34 68.74 43.34 69.06 43.34 70.49 43.34"/>
      </g>
      <g stroke-width="0.3" fill="#000000" fill-opacity="0.000" class="geometry color_oldfull_fail" stroke-dasharray="none" stroke="#FFA500" id="fig-90f965fcc564487db919f534164d087e-element-17">
        <path fill="none" d="M21.63,43.72 L 21.79 43.72 21.95 43.16 22.11 43.1 22.27 43.03 22.42 43.03 22.74 43.03 22.9 43.1 23.06 43.22 23.22 43.03 23.38 42.97 23.54 43.1 23.69 43.16 23.85 42.97 24.17 42.72 24.33 43.1 24.65 43.03 24.8 43.03 24.96 43.03 25.6 43.03 26.07 42.85 26.23 42.91 26.39 42.97 26.55 42.85 26.71 42.91 26.87 43.03 27.02 42.79 27.18 42.66 27.34 42.66 27.66 42.91 27.82 42.85 27.98 42.85 28.14 42.97 28.29 42.91 28.45 42.66 28.61 42.72 28.93 43.03 29.09 42.35 29.25 42.16 29.4 42.47 29.56 42.54 29.72 42.54 29.88 42.54 30.04 42.47 30.51 41.29 30.67 41.98 30.83 42.66 30.99 42.6 31.15 42.41 31.31 42.6 31.47 42.66 31.63 42.66 31.78 42.54 31.94 42.47 32.1 42.72 32.26 42.72 32.42 42.66 32.58 42.6 32.74 42.6 32.89 43.28 33.05 43.22 33.21 43.22 33.37 43.16 33.53 43.03 33.69 41.42 33.85 41.85 34 42.1 34.16 41.79 34.32 41.79 34.48 41.73 34.64 41.73 34.8 41.73 34.96 41.85 35.11 42.04 35.59 42.04 36.38 41.91 36.54 41.79 36.7 41.79 36.86 41.85 37.02 41.91 37.18 41.98 37.34 41.85 37.97 41.29 38.13 41.35 38.92 40.98 39.24 41.17 39.4 41.29 39.56 41.35 39.72 41.35 39.87 41.48 40.03 41.42 40.19 41.35 40.67 40.98 40.83 41.04 41.14 40.98 41.3 40.73 41.46 40.92 41.94 41.04 42.25 41.17 42.73 40.98 43.36 41.04 43.68 41.35 44.16 41.11 45.27 40.86 45.9 41.04 46.06 41.04 46.22 41.04 46.38 40.86 46.54 40.67 46.69 40.73 47.01 40.86 47.17 40.8 47.33 40.8 47.49 40.55 47.65 40.61 47.81 40.55 47.96 40.55 48.28 40.61 48.44 40.48 48.6 40.3 49.23 40.11 49.39 39.99 49.55 40.11 49.87 40.17 50.18 41.54 50.34 39.55 50.82 39.24 51.61 39.24 52.41 39.3 53.2 39.61 53.36 39.49 53.52 39.36 53.67 39.36 53.83 39.55 54.15 39.36 54.47 38.43 55.1 37.87 55.26 37.93 55.42 37.75 55.58 37.87 55.74 39.99 55.9 40.67 56.05 40.11 57.96 38.62 58.27 38.56 58.43 38 58.75 38.37 59.38 38.8 59.7 38.87 60.02 38.74 60.65 38.99 60.97 40.8 61.13 40.3 61.45 39.3 61.61 39.24 61.76 38.99 61.92 37.81 62.08 38.18 62.24 38.43 62.56 38.49 62.72 38.56 63.03 40.05 63.35 40.05 63.51 39.68 63.67 39.61 63.99 39.8 64.14 39.3 64.94 39.36 65.57 39.55 65.73 39.55 67 39.74 67.16 39.74 67.32 39.92 67.79 39.61 67.95 39.55 68.11 39.61 68.43 39.43 68.74 39.18 69.06 38.93 70.49 38.74"/>
      </g>
      <g stroke-width="0.3" fill="#000000" fill-opacity="0.000" class="geometry color_newtests_pass" stroke-dasharray="none" stroke="#008000" id="fig-90f965fcc564487db919f534164d087e-element-18">
        <path fill="none" d="M21.63,31.78 L 21.79 31.78 21.95 32.15 22.11 33.15 22.27 33.21 22.42 33.21 22.74 32.03 22.9 31.9 23.06 31.71 23.22 31.78 23.38 31.78 23.54 31.53 23.69 31.34 23.85 31.4 24.17 31.78 24.33 31.34 24.65 31.34 24.8 31.34 24.96 31.34 25.6 31.34 26.07 31.09 26.23 30.97 26.39 30.91 26.55 30.84 26.71 30.72 26.87 30.41 27.02 30.16 27.18 30.22 27.34 30.22 27.66 30.16 27.82 30.22 27.98 30.16 28.14 30.04 28.29 30.04 28.45 30.35 28.61 30.35 28.93 29.79 29.09 32.15 29.25 32.4 29.4 30.97 29.56 30.84 29.72 30.78 29.88 30.78 30.04 30.72 30.51 32.71 30.67 31.34 30.83 30.41 30.99 30.35 31.15 30.47 31.31 30.41 31.47 30.1 31.63 30.1 31.78 30.28 31.94 30.35 32.1 30.35 32.26 30.22 32.42 30.1 32.58 30.04 32.74 29.91 32.89 33.77 33.05 33.83 33.21 33.77 33.37 33.27 33.53 33.33 33.69 31.16 33.85 30.53 34 30.16 34.16 30.47 34.32 30.41 34.48 30.47 34.64 30.47 34.8 30.47 34.96 30.22 35.11 30.04 35.59 29.85 36.38 29.66 36.54 29.66 36.7 29.66 36.86 29.54 37.02 29.48 37.18 29.29 37.34 29.41 37.97 29.66 38.13 29.66 38.92 29.85 39.24 29.6 39.4 29.66 39.56 29.23 39.72 29.23 39.87 29.1 40.03 29.04 40.19 28.98 40.67 29.1 40.83 28.98 41.14 29.48 41.3 29.72 41.46 29.54 41.94 29.41 42.25 29.16 42.73 28.54 43.36 28.29 43.68 27.86 44.16 27.92 45.27 27.86 45.9 27.36 46.06 27.24 46.22 27.24 46.38 27.3 46.54 27.86 46.69 27.8 47.01 27.61 47.17 27.61 47.33 27.61 47.49 27.73 47.65 27.61 47.81 27.67 47.96 27.67 48.28 27.49 48.44 27.49 48.6 27.61 49.23 27.55 49.39 27.67 49.55 27.73 49.87 27.55 50.18 29.91 50.34 28.05 50.82 28.42 51.61 28.42 52.41 28.36 53.2 28.85 53.36 28.48 53.52 28.11 53.67 27.73 53.83 27.36 54.15 27.49 54.47 28.73 55.1 29.16 55.26 28.98 55.42 29.16 55.58 29.04 55.74 32.52 55.9 33.46 56.05 33.02 57.96 29.29 58.27 29.23 58.43 28.48 58.75 28.05 59.38 27.55 59.7 27.42 60.02 27.3 60.65 26.93 60.97 34.58 61.13 32.03 61.45 30.78 61.61 30.91 61.76 31.03 61.92 32.4 62.08 31.96 62.24 31.34 62.56 31.09 62.72 30.97 63.03 33.46 63.35 33.27 63.51 32.34 63.67 32.34 63.99 31.53 64.14 31.34 64.94 30.78 65.57 30.16 65.73 30.16 67 29.04 67.16 29.1 67.32 28.85 67.79 29.04 67.95 29.04 68.11 28.79 68.43 28.67 68.74 29.04 69.06 29.1 70.49 29.1"/>
      </g>
    </g>
  </g>
  <g class="guide ylabels" font-size="2.82" font-family="'PT Sans Caption','Helvetica Neue','Helvetica',sans-serif" fill="#6C606B" id="fig-90f965fcc564487db919f534164d087e-element-19">
    <text x="18.63" y="45.71" text-anchor="end" dy="0.35em">0</text>
    <text x="18.63" y="39.49" text-anchor="end" dy="0.35em">100</text>
    <text x="18.63" y="33.27" text-anchor="end" dy="0.35em">200</text>
    <text x="18.63" y="27.05" text-anchor="end" dy="0.35em">300</text>
    <text x="18.63" y="20.83" text-anchor="end" dy="0.35em">400</text>
    <text x="18.63" y="14.61" text-anchor="end" dy="0.35em">500</text>
  </g>
  <g font-size="3.88" font-family="'PT Sans','Helvetica Neue','Helvetica',sans-serif" fill="#564A55" stroke="#000000" stroke-opacity="0.000" id="fig-90f965fcc564487db919f534164d087e-element-20">
    <text x="8.81" y="28.16" text-anchor="middle" dy="0.35em" transform="rotate(-90, 8.81, 30.16)">Number of Packages</text>
  </g>
  <g font-size="3.88" font-family="'PT Sans','Helvetica Neue','Helvetica',sans-serif" fill="#564A55" stroke="#000000" stroke-opacity="0.000" id="fig-90f965fcc564487db919f534164d087e-element-21">
    <text x="58.12" y="10.61" text-anchor="middle">Julia v0.4</text>
  </g>
</g>
<defs>
<clipPath id="fig-90f965fcc564487db919f534164d087e-element-5">
  <path d="M19.63,12.61 L 96.6 12.61 96.6 47.71 19.63 47.71" />
</clipPath
></defs>
</svg>
