<?xml version="1.0" encoding="UTF-8"?>
<svg xmlns="http://www.w3.org/2000/svg"
     xmlns:xlink="http://www.w3.org/1999/xlink"
     xmlns:gadfly="http://www.gadflyjl.org/ns"
     version="1.2"
     width="101.6mm" height="76.2mm" viewBox="0 0 101.6 76.2"
     stroke="none"
     fill="#000000"
     stroke-width="0.3"
     font-size="3.88"
>
<g class="plotroot xscalable yscalable" id="fig-beede4d99ac042fea352ea1cf225fb72-element-1">
  <g font-size="3.88" font-family="'PT Sans','Helvetica Neue','Helvetica',sans-serif" fill="#564A55" stroke="#000000" stroke-opacity="0.000" id="fig-beede4d99ac042fea352ea1cf225fb72-element-2">
    <text x="58.12" y="64.59" text-anchor="middle" dy="0.6em">Date</text>
  </g>
  <g class="guide xlabels" font-size="2.82" font-family="'PT Sans Caption','Helvetica Neue','Helvetica',sans-serif" fill="#6C606B" id="fig-beede4d99ac042fea352ea1cf225fb72-element-3">
    <text x="24.69" y="57.91" text-anchor="middle" dy="0.6em">Sep</text>
    <text x="29.51" y="57.91" text-anchor="middle" dy="0.6em">Oct</text>
    <text x="34.49" y="57.91" text-anchor="middle" dy="0.6em">Nov</text>
    <text x="39.31" y="57.91" text-anchor="middle" dy="0.6em">Dec</text>
    <text x="44.29" y="57.91" text-anchor="middle" dy="0.6em">Jan 2015</text>
    <text x="49.28" y="57.91" text-anchor="middle" dy="0.6em">Feb</text>
    <text x="53.78" y="57.91" text-anchor="middle" dy="0.6em">Mar</text>
    <text x="58.76" y="57.91" text-anchor="middle" dy="0.6em">Apr</text>
    <text x="63.58" y="57.91" text-anchor="middle" dy="0.6em">May</text>
    <text x="68.56" y="57.91" text-anchor="middle" dy="0.6em">Jun</text>
    <text x="73.38" y="57.91" text-anchor="middle" dy="0.6em">Jul</text>
    <text x="78.37" y="57.91" text-anchor="middle" dy="0.6em">Aug</text>
    <text x="83.35" y="57.91" text-anchor="middle" dy="0.6em">Sep</text>
    <text x="88.17" y="57.91" text-anchor="middle" dy="0.6em">Oct</text>
    <text x="93.15" y="57.91" text-anchor="middle" dy="0.6em">Nov</text>
  </g>
  <g clip-path="url(#fig-beede4d99ac042fea352ea1cf225fb72-element-5)" id="fig-beede4d99ac042fea352ea1cf225fb72-element-4">
    <g pointer-events="visible" opacity="1" fill="#000000" fill-opacity="0.000" stroke="#000000" stroke-opacity="0.000" class="guide background" id="fig-beede4d99ac042fea352ea1cf225fb72-element-6">
      <rect x="19.63" y="12.61" width="76.97" height="44.3"/>
    </g>
    <g class="guide ygridlines xfixed" stroke-dasharray="0.5,0.5" stroke-width="0.2" stroke="#D0D0E0" id="fig-beede4d99ac042fea352ea1cf225fb72-element-7">
      <path fill="none" d="M19.63,54.91 L 96.6 54.91"/>
      <path fill="none" d="M19.63,34.76 L 96.6 34.76"/>
      <path fill="none" d="M19.63,14.61 L 96.6 14.61"/>
    </g>
    <g class="guide xgridlines yfixed" stroke-dasharray="0.5,0.5" stroke-width="0.2" stroke="#D0D0E0" id="fig-beede4d99ac042fea352ea1cf225fb72-element-8">
      <path fill="none" d="M24.69,12.61 L 24.69 56.91"/>
      <path fill="none" d="M29.51,12.61 L 29.51 56.91"/>
      <path fill="none" d="M34.49,12.61 L 34.49 56.91"/>
      <path fill="none" d="M39.31,12.61 L 39.31 56.91"/>
      <path fill="none" d="M44.29,12.61 L 44.29 56.91"/>
      <path fill="none" d="M49.28,12.61 L 49.28 56.91"/>
      <path fill="none" d="M53.78,12.61 L 53.78 56.91"/>
      <path fill="none" d="M58.76,12.61 L 58.76 56.91"/>
      <path fill="none" d="M63.58,12.61 L 63.58 56.91"/>
      <path fill="none" d="M68.56,12.61 L 68.56 56.91"/>
      <path fill="none" d="M73.38,12.61 L 73.38 56.91"/>
      <path fill="none" d="M78.37,12.61 L 78.37 56.91"/>
      <path fill="none" d="M83.35,12.61 L 83.35 56.91"/>
      <path fill="none" d="M88.17,12.61 L 88.17 56.91"/>
      <path fill="none" d="M93.15,12.61 L 93.15 56.91"/>
    </g>
    <g class="plotpanel" id="fig-beede4d99ac042fea352ea1cf225fb72-element-9">
      <g stroke-width="0.3" fill="#000000" fill-opacity="0.000" class="geometry color_newnot_possible" stroke-dasharray="none" stroke="#808080" id="fig-beede4d99ac042fea352ea1cf225fb72-element-10">
        <path fill="none" d="M71.62,51.36 L 71.78 51.36 71.94 51.38 72.1 51.38 72.26 51.39 72.42 51.39 72.58 51.39 72.74 51.4 73.22 51.4 73.55 51.42 73.87 51.42 74.03 51.43 74.19 51.45 74.35 51.46 74.51 51.47 74.67 51.47 77.4 51.48 78.69 51.52 80.13 51.54 82.87 51.66 83.35 51.67 84.15 51.69 84.96 51.38 87.53 51.47 88.17 51.5 88.97 51.49 89.62 51.31 90.26 51.33 90.74 51.29 92.67 51.4 94.6 51.4"/>
      </g>
      <g stroke-width="0.3" fill="#000000" fill-opacity="0.000" class="geometry color_newno_tests" stroke-dasharray="none" stroke="#0000FF" id="fig-beede4d99ac042fea352ea1cf225fb72-element-11">
        <path fill="none" d="M71.62,47.81 L 71.78 47.81 71.94 47.84 72.1 47.84 72.26 47.87 72.42 47.87 72.58 47.87 72.74 47.88 73.22 47.89 73.55 47.92 73.87 47.92 74.03 47.94 74.19 48.05 74.35 48.07 74.51 48.08 74.67 48.14 77.4 48.24 78.69 48.3 80.13 48.35 82.87 48.59 83.35 48.67 84.15 48.71 84.96 48.83 87.53 49.21 88.17 49.43 88.97 49.61 89.62 50.39 90.26 50.48 90.74 50.61 92.67 50.8 94.6 50.91"/>
      </g>
      <g stroke-width="0.3" fill="#000000" fill-opacity="0.000" class="geometry color_newtests_fail" stroke-dasharray="none" stroke="#FF0000" id="fig-beede4d99ac042fea352ea1cf225fb72-element-12">
        <path fill="none" d="M71.62,41.5 L 71.78 41.96 71.94 41.87 72.1 40.56 72.26 40.57 72.42 40.76 72.58 40.76 72.74 41.83 73.22 41.26 73.55 41.31 73.87 42.02 74.03 42.19 74.19 40.8 74.35 42.12 74.51 41.18 74.67 41.63 77.4 42.44 78.69 42.18 80.13 42.83 82.87 43.04 83.35 43.37 84.15 43.73 84.96 44.65 87.53 44.75 88.17 45.18 88.97 45.46 89.62 45.7 90.26 45.99 90.74 46.42 92.67 46.46 94.6 46.69"/>
      </g>
      <g stroke-width="0.3" fill="#000000" fill-opacity="0.000" class="geometry color_newtests_pass" stroke-dasharray="none" stroke="#008000" id="fig-beede4d99ac042fea352ea1cf225fb72-element-13">
        <path fill="none" d="M71.62,38.68 L 71.78 38.22 71.94 38.27 72.1 39.58 72.26 39.52 72.42 39.33 72.58 39.33 72.74 38.25 73.22 38.79 73.55 38.72 73.87 38 74.03 37.8 74.19 39.06 74.35 37.71 74.51 38.63 74.67 38.12 77.4 37.2 78.69 37.36 80.13 36.63 82.87 36.06 83.35 35.65 84.15 35.23 84.96 34.5 87.53 33.92 88.17 33.25 88.97 32.8 89.62 31.96 90.26 31.55 90.74 31.03 92.67 30.7 94.6 30.35"/>
      </g>
      <g stroke-width="0.3" fill="#000000" fill-opacity="0.000" class="geometry color_newnot_possible" stroke-dasharray="none" stroke="#808080" id="fig-beede4d99ac042fea352ea1cf225fb72-element-14">
        <path fill="none" d="M21.63,50.71 L 21.79 50.63 21.95 50.53 22.11 50.55 22.27 50.55 22.44 50.55 22.76 50.58 22.92 50.58 23.08 50.59 23.24 50.59 23.4 50.59 23.56 50.63 23.72 50.65 23.88 50.65 24.2 50.67 24.36 50.6 24.69 50.62 24.85 50.62 25.01 50.52 25.65 50.52 26.13 50.59 26.29 50.6 26.45 50.61 26.61 50.63 26.77 50.63 26.94 50.63 27.1 50.71 27.26 50.71 27.42 50.71 27.74 50.63 27.9 50.63 28.06 50.64 28.22 50.64 28.38 50.64 28.54 50.65 28.7 50.55 29.02 50.54 29.19 50.55 29.35 50.55 29.51 50.57 29.67 50.49 29.83 50.49 29.99 50.49 30.15 50.51 30.63 50.53 30.79 50.44 30.95 50.46 31.11 50.47 31.28 50.47 31.44 50.47 31.6 50.49 31.76 50.49 31.92 50.5 32.08 50.51 32.24 50.42 32.4 50.42 32.56 50.42 32.72 50.44 32.88 50.46 33.04 50.46 33.2 50.46 33.36 50.47 33.53 50.47 33.69 50.48 33.85 50.48 34.01 50.5 34.17 50.51 34.33 50.51 34.49 50.52 34.65 50.52 34.81 50.52 34.97 50.52 35.13 50.53 35.29 50.54 35.78 50.54 36.58 50.6 36.74 50.62 36.9 50.62 37.06 50.63 37.22 50.63 37.38 50.66 37.54 50.66 38.19 50.71 38.35 50.71 39.15 50.71 39.47 50.71 39.63 50.82 39.79 50.83 39.95 50.83 40.11 50.83 40.28 50.85 40.44 50.87 40.92 50.88 41.08 50.88 41.4 50.92 41.56 50.92 41.72 50.92 42.2 50.92 42.53 50.94 43.01 50.95 43.65 50.97 43.97 51 44.45 51.02 45.58 51.08 46.22 51.13 46.38 50.98 46.54 50.98 46.7 50.95 46.87 50.95 47.03 50.95 47.35 50.96 47.51 50.97 47.67 50.97 47.83 50.91 47.99 50.92 48.15 50.92 48.31 50.92 48.63 50.86 48.79 50.88 48.95 50.89 49.6 50.95 49.76 50.95 49.92 50.93 50.24 50.95 50.56 50.98 50.72 50.98 51.2 50.99 52.01 50.99 52.81 51 53.62 51.07 53.78 51.07 53.94 51.07 54.1 50.55 54.26 50.63 54.58 50.57 54.9 50.57 55.54 50.58 55.7 50.59 55.87 50.59 56.03 50.59 56.19 50.61 56.35 50.68 56.51 50.62 58.44 50.58 58.76 50.5 58.92 50.53 59.24 50.53 59.88 50.53 60.21 50.54 60.53 50.57 61.17 50.58 61.49 50.6 61.65 50.62 61.97 50.66 62.13 50.66 62.29 50.67 62.46 50.68 62.62 50.68 62.78 50.69 63.1 50.69 63.26 50.71 63.58 50.71 63.9 50.72 64.06 50.75 64.22 50.75 64.54 50.77 64.71 50.77 65.51 50.8 66.15 50.88 66.31 50.83 67.6 50.85 67.76 50.72 67.92 50.72 68.4 50.74 68.56 50.75 68.72 50.83 69.05 50.84 69.37 50.84 69.69 50.86 71.13 50.9"/>
      </g>
      <g stroke-width="0.3" fill="#000000" fill-opacity="0.000" class="geometry color_newtests_fail" stroke-dasharray="none" stroke="#FF0000" id="fig-beede4d99ac042fea352ea1cf225fb72-element-15">
        <path fill="none" d="M21.63,52.48 L 21.79 52.39 21.95 52.72 22.11 50.33 22.27 50.33 22.44 50.33 22.76 52.64 22.92 52.75 23.08 52.65 23.24 52.86 23.4 52.97 23.56 52.88 23.72 52.89 23.88 53 24.2 52.26 24.36 52.07 24.69 51.98 24.85 51.98 25.01 52.09 25.65 52.09 26.13 52.34 26.29 52.34 26.45 52.35 26.61 52.47 26.77 52.57 26.94 52.87 27.1 52.91 27.26 52.91 27.42 52.91 27.74 52.72 27.9 52.62 28.06 52.73 28.22 52.73 28.38 52.83 28.54 52.63 28.7 52.43 29.02 53.12 29.19 50.05 29.35 49.95 29.51 51.85 29.67 51.87 29.83 51.97 29.99 51.97 30.15 51.98 30.63 50.14 30.79 51.61 30.95 51.91 31.11 52.02 31.28 52.11 31.44 51.92 31.6 52.13 31.76 52.13 31.92 51.94 32.08 51.85 32.24 51.56 32.4 51.76 32.56 52.04 32.72 52.06 32.88 52.07 33.04 44.58 33.2 44.58 33.36 44.6 33.53 45.64 33.69 45.67 33.85 51.8 34.01 51.91 34.17 52.01 34.33 52.01 34.49 52.02 34.65 52.02 34.81 52.02 34.97 52.02 35.13 52.12 35.29 52.03 35.78 52.31 36.58 52.25 36.74 52.26 36.9 52.26 37.06 52.27 37.22 52.27 37.38 52.2 37.54 52.2 38.19 52.23 38.35 52.14 39.15 52.32 39.47 52.41 39.63 51.89 39.79 52.34 39.95 52.25 40.11 52.34 40.28 52.35 40.44 52.36 40.92 52.63 41.08 52.64 41.4 51.7 41.56 51.7 41.72 51.7 42.2 51.7 42.53 51.71 43.01 52.76 43.65 52.77 43.97 52.7 44.45 52.8 45.58 52.66 46.22 52.53 46.38 52.7 46.54 52.7 46.7 52.49 46.87 52 47.03 52 47.35 52.01 47.51 52.01 47.67 52.01 47.83 52.03 47.99 52.04 48.15 52.04 48.31 52.04 48.63 52.05 48.79 51.99 48.95 52 49.6 51.65 49.76 51.65 49.92 51.63 50.24 51.58 50.56 46.58 50.72 51.59 51.2 51.38 52.01 51.38 52.81 51.31 53.62 49.48 53.78 50.16 53.94 50.76 54.1 51.61 54.26 51.83 54.58 51.84 54.9 51.39 55.54 51.48 55.7 51.49 55.87 51.41 56.03 51.41 56.19 43.78 56.35 41.75 56.51 42.91 58.44 49.84 58.76 50.06 58.92 51.4 59.24 51.48 59.88 51.48 60.21 51.49 60.53 51.58 61.17 51.52 61.49 39.87 61.65 43.39 61.97 45.76 62.13 45.76 62.29 45.78 62.46 45.46 62.62 45.53 62.78 45.9 63.1 46.05 63.26 45.94 63.58 41.25 63.9 41.5 64.06 42.89 64.22 42.91 64.54 43.51 64.71 44.29 65.51 44.63 66.15 45.01 66.31 44.98 67.6 45.91 67.76 45.97 67.92 46.04 68.4 45.97 68.56 45.98 68.72 46.01 69.05 46.24 69.37 46.11 69.69 46.2 71.13 46.04"/>
      </g>
      <g stroke-width="0.3" fill="#000000" fill-opacity="0.000" class="geometry color_newno_tests" stroke-dasharray="none" stroke="#0000FF" id="fig-beede4d99ac042fea352ea1cf225fb72-element-16">
        <path fill="none" d="M21.63,49.6 L 21.79 49.53 21.95 49.55 22.11 50.22 22.27 50.22 22.44 50.22 22.76 49.71 22.92 49.71 23.08 49.84 23.24 49.84 23.4 49.84 23.56 49.88 23.72 49.9 23.88 50.01 24.2 50.35 24.36 50.5 24.69 50.52 24.85 50.52 25.01 50.52 25.65 50.52 26.13 50.48 26.29 50.49 26.45 50.4 26.61 50.43 26.77 50.43 26.94 50.43 27.1 50.51 27.26 50.61 27.42 50.61 27.74 50.53 27.9 50.63 28.06 50.54 28.22 50.54 28.38 50.54 28.54 50.55 28.7 50.75 29.02 50.54 29.19 50.84 29.35 50.84 29.51 50.57 29.67 50.59 29.83 50.59 29.99 50.59 30.15 50.61 30.63 51.02 30.79 50.73 30.95 50.65 31.11 50.66 31.28 50.66 31.44 50.66 31.6 50.68 31.76 50.68 31.92 50.69 32.08 50.7 32.24 50.7 32.4 50.7 32.56 50.7 32.72 50.72 32.88 50.74 33.04 51.31 33.2 51.31 33.36 51.32 33.53 51.13 33.69 51.14 33.85 50.76 34.01 50.78 34.17 50.79 34.33 50.79 34.49 50.8 34.65 50.8 34.81 50.8 34.97 50.8 35.13 50.81 35.29 50.82 35.78 50.82 36.58 50.88 36.74 50.89 36.9 50.89 37.06 50.9 37.22 50.9 37.38 50.93 37.54 50.93 38.19 50.97 38.35 50.97 39.15 50.98 39.47 50.98 39.63 51 39.79 51.01 39.95 51.1 40.11 51.01 40.28 51.03 40.44 51.04 40.92 51.05 41.08 51.06 41.4 51.09 41.56 51.09 41.72 51.09 42.2 51.09 42.53 51.11 43.01 51.04 43.65 51.14 43.97 51.09 44.45 51.1 45.58 51.16 46.22 51.21 46.38 51.23 46.54 51.23 46.7 51.27 46.87 51.27 47.03 51.27 47.35 51.28 47.51 51.29 47.67 51.29 47.83 51.31 47.99 51.32 48.15 51.32 48.31 51.32 48.63 51.34 48.79 51.36 48.95 51.37 49.6 51.5 49.76 51.5 49.92 51.48 50.24 51.5 50.56 51.67 50.72 51.44 51.2 51.45 52.01 51.45 52.81 51.46 53.62 51.75 53.78 51.67 53.94 51.67 54.1 51.68 54.26 51.61 54.58 51.62 54.9 51.69 55.54 51.7 55.7 51.71 55.87 51.79 56.03 51.79 56.19 52.61 56.35 52.68 56.51 52.69 58.44 51.83 58.76 51.83 58.92 51.84 59.24 51.84 59.88 51.85 60.21 51.85 60.53 51.87 61.17 51.95 61.49 52.54 61.65 52.41 61.97 52.36 62.13 52.29 62.29 52.37 62.46 52.37 62.62 52.37 62.78 52.38 63.1 52.38 63.26 52.46 63.58 52.67 63.9 52.54 64.06 52.48 64.22 52.49 64.54 52.5 64.71 52.43 65.51 52.45 66.15 52.39 66.31 52.4 67.6 52.34 67.76 52.34 67.92 52.34 68.4 52.36 68.56 52.36 68.72 52.37 69.05 52.38 69.37 52.38 69.69 52.39 71.13 52.42"/>
      </g>
      <g stroke-width="0.3" fill="#000000" fill-opacity="0.000" class="geometry color_oldfull_fail" stroke-dasharray="none" stroke="#FFA500" id="fig-beede4d99ac042fea352ea1cf225fb72-element-17">
        <path fill="none" d="M21.63,51.37 L 21.79 51.4 21.95 50.42 22.11 50.33 22.27 50.22 22.44 50.22 22.76 50.26 22.92 50.36 23.08 50.59 23.24 50.27 23.4 50.16 23.56 50.41 23.72 50.54 23.88 50.22 24.2 49.82 24.36 50.5 24.69 50.41 24.85 50.41 25.01 50.41 25.65 50.41 26.13 50.17 26.29 50.29 26.45 50.4 26.61 50.22 26.77 50.32 26.94 50.53 27.1 50.21 27.26 50.01 27.42 50.01 27.74 50.43 27.9 50.33 28.06 50.34 28.22 50.54 28.38 50.44 28.54 50.05 28.7 50.15 29.02 50.64 29.19 49.55 29.35 49.26 29.51 49.78 29.67 49.9 29.83 49.9 29.99 49.9 30.15 49.83 30.63 48 30.79 49.07 30.95 50.17 31.11 50.08 31.28 49.79 31.44 50.08 31.6 50.2 31.76 50.2 31.92 50.02 32.08 49.94 32.24 50.32 32.4 50.32 32.56 50.22 32.72 50.15 32.88 50.17 33.04 51.22 33.2 51.12 33.36 51.13 33.53 51.04 33.69 50.86 33.85 48.4 34.01 49.09 34.17 49.48 34.33 49.01 34.49 49.02 34.65 48.93 34.81 48.93 34.97 48.93 35.13 49.13 35.29 49.42 35.78 49.42 36.58 49.31 36.74 49.16 36.9 49.16 37.06 49.26 37.22 49.35 37.38 49.48 37.54 49.3 38.19 48.56 38.35 48.65 39.15 48.12 39.47 48.39 39.63 48.6 39.79 48.7 39.95 48.7 40.11 48.88 40.28 48.82 40.44 48.76 40.92 48.24 41.08 48.34 41.4 48.31 41.56 47.97 41.72 48.23 42.2 48.4 42.53 48.6 43.01 48.37 43.65 48.48 43.97 48.96 44.45 48.65 45.58 48.41 46.22 48.75 46.38 48.77 46.54 48.77 46.7 48.6 46.87 48.36 47.03 48.44 47.35 48.62 47.51 48.55 47.67 48.55 47.83 48.26 47.99 48.36 48.15 48.28 48.31 48.28 48.63 48.4 48.79 48.28 48.95 48.05 49.6 47.93 49.76 47.77 49.92 47.89 50.24 48 50.56 49.74 50.72 47.27 51.2 46.92 52.01 46.92 52.81 47.01 53.62 47.52 53.78 47.37 53.94 47.22 54.1 47.25 54.26 47.47 54.58 47.27 54.9 46.15 55.54 45.49 55.7 45.6 55.87 45.38 56.03 45.53 56.19 48.09 56.35 48.89 56.51 48.25 58.44 46.53 58.76 46.46 58.92 45.84 59.24 46.28 59.88 46.81 60.21 46.9 60.53 46.8 61.17 47.11 61.49 49.23 61.65 48.69 61.97 47.61 62.13 47.54 62.29 47.27 62.46 45.95 62.62 46.37 62.78 46.67 63.1 46.76 63.26 46.85 63.58 48.54 63.9 48.56 64.06 48.17 64.22 48.12 64.54 48.35 64.71 47.81 65.51 47.92 66.15 48.15 66.31 48.18 67.6 48.41 67.76 48.41 67.92 48.62 68.4 48.32 68.56 48.26 68.72 48.35 69.05 48.18 69.37 47.91 69.69 47.67 71.13 47.55"/>
      </g>
      <g stroke-width="0.3" fill="#000000" fill-opacity="0.000" class="geometry color_newtests_pass" stroke-dasharray="none" stroke="#008000" id="fig-beede4d99ac042fea352ea1cf225fb72-element-18">
        <path fill="none" d="M21.63,30.11 L 21.79 30.32 21.95 31.04 22.11 32.85 22.27 32.96 22.44 32.96 22.76 31.08 22.92 30.86 23.08 30.6 23.24 30.71 23.4 30.71 23.56 30.48 23.72 30.29 23.88 30.39 24.2 31.16 24.36 30.61 24.69 30.73 24.85 30.73 25.01 30.73 25.65 30.73 26.13 30.69 26.29 30.55 26.45 30.51 26.61 30.53 26.77 30.32 26.94 29.81 27.1 29.91 27.26 30.01 27.42 30.01 27.74 29.97 27.9 30.07 28.06 30.04 28.22 29.84 28.38 29.84 28.54 30.4 28.7 30.4 29.02 29.44 29.19 33.27 29.35 33.67 29.51 31.5 29.67 31.42 29.83 31.32 29.99 31.32 30.15 31.34 30.63 34.57 30.79 32.43 30.95 31.08 31.11 31.04 31.28 31.24 31.44 31.14 31.6 30.77 31.76 30.77 31.92 31.12 32.08 31.27 32.24 31.27 32.4 31.08 32.56 30.89 32.72 30.9 32.88 30.83 33.04 36.71 33.2 36.8 33.36 36.75 33.53 35.99 33.69 36.13 33.85 32.83 34.01 31.99 34.17 31.48 34.33 31.95 34.49 31.91 34.65 32 34.81 32 34.97 32 35.13 31.68 35.29 31.46 35.78 31.18 36.58 31.23 36.74 31.34 36.9 31.34 37.06 31.21 37.22 31.12 37.38 31 37.54 31.19 38.19 31.81 38.35 31.81 39.15 32.13 39.47 31.77 39.63 31.96 39.79 31.39 39.95 31.39 40.11 31.21 40.28 31.23 40.44 31.24 40.92 31.47 41.08 31.35 41.4 32.24 41.56 32.59 41.72 32.33 42.2 32.16 42.53 31.91 43.01 31.15 43.65 30.9 43.97 30.51 44.45 30.7 45.58 30.97 46.22 30.65 46.38 30.59 46.54 30.59 46.7 30.96 46.87 31.69 47.03 31.61 47.35 31.41 47.51 31.46 47.67 31.46 47.83 31.76 47.99 31.64 48.15 31.72 48.31 31.72 48.63 31.62 48.79 31.76 48.95 31.96 49.6 32.24 49.76 32.39 49.92 32.34 50.24 32.24 50.56 35.3 50.72 32.99 51.2 33.53 52.01 33.53 52.81 33.5 53.62 34.46 53.78 34.01 53.94 33.56 54.1 33.18 54.26 32.73 54.58 32.97 54.9 34.46 55.54 35.03 55.7 34.88 55.87 35.1 56.03 34.95 56.19 39.18 56.35 40.27 56.51 39.8 58.44 35.5 58.76 35.43 58.92 34.65 59.24 34.14 59.88 33.6 60.21 33.49 60.53 33.46 61.17 33.1 61.49 42.03 61.65 39.17 61.97 37.89 62.13 38.03 62.29 38.2 62.46 39.81 62.62 39.32 62.78 38.64 63.1 38.39 63.26 38.3 63.58 41.11 63.9 40.95 64.06 39.97 64.22 40 64.54 39.15 64.71 38.97 65.51 38.46 66.15 37.84 66.31 37.9 67.6 36.76 67.76 36.83 67.92 36.56 68.4 36.88 68.56 36.91 68.72 36.7 69.05 36.63 69.37 37.03 69.69 37.16 71.13 37.36"/>
      </g>
    </g>
  </g>
  <g class="guide ylabels" font-size="2.82" font-family="'PT Sans Caption','Helvetica Neue','Helvetica',sans-serif" fill="#6C606B" id="fig-beede4d99ac042fea352ea1cf225fb72-element-19">
    <text x="18.63" y="54.91" text-anchor="end" dy="0.35em">0</text>
    <text x="18.63" y="34.76" text-anchor="end" dy="0.35em">50</text>
    <text x="18.63" y="14.61" text-anchor="end" dy="0.35em">100</text>
  </g>
  <g font-size="3.88" font-family="'PT Sans','Helvetica Neue','Helvetica',sans-serif" fill="#564A55" stroke="#000000" stroke-opacity="0.000" id="fig-beede4d99ac042fea352ea1cf225fb72-element-20">
    <text x="8.81" y="32.76" text-anchor="middle" dy="0.35em" transform="rotate(-90, 8.81, 34.76)">Percentage of Packages</text>
  </g>
  <g font-size="3.88" font-family="'PT Sans','Helvetica Neue','Helvetica',sans-serif" fill="#564A55" stroke="#000000" stroke-opacity="0.000" id="fig-beede4d99ac042fea352ea1cf225fb72-element-21">
    <text x="58.12" y="10.61" text-anchor="middle">Julia v0.4 (relative)</text>
  </g>
</g>
<defs>
<clipPath id="fig-beede4d99ac042fea352ea1cf225fb72-element-5">
  <path d="M19.63,12.61 L 96.6 12.61 96.6 56.91 19.63 56.91" />
</clipPath
></defs>
</svg>
