<?xml version="1.0" encoding="UTF-8"?>
<svg xmlns="http://www.w3.org/2000/svg"
     xmlns:xlink="http://www.w3.org/1999/xlink"
     xmlns:gadfly="http://www.gadflyjl.org/ns"
     version="1.2"
     width="101.6mm" height="76.2mm" viewBox="0 0 101.6 76.2"
     stroke="none"
     fill="#000000"
     stroke-width="0.3"
     font-size="3.88"
>
<g class="plotroot xscalable yscalable" id="fig-d64dd9a768fb4f75bc46a67cf9af4db2-element-1">
  <g font-size="3.88" font-family="'PT Sans','Helvetica Neue','Helvetica',sans-serif" fill="#564A55" stroke="#000000" stroke-opacity="0.000" id="fig-d64dd9a768fb4f75bc46a67cf9af4db2-element-2">
    <text x="58.12" y="64.59" text-anchor="middle" dy="0.6em">Date</text>
  </g>
  <g class="guide xlabels" font-size="2.82" font-family="'PT Sans Caption','Helvetica Neue','Helvetica',sans-serif" fill="#6C606B" id="fig-d64dd9a768fb4f75bc46a67cf9af4db2-element-3">
    <text x="24.98" y="57.91" text-anchor="middle" dy="0.6em">Sep</text>
    <text x="30.27" y="57.91" text-anchor="middle" dy="0.6em">Oct</text>
    <text x="35.73" y="57.91" text-anchor="middle" dy="0.6em">Nov</text>
    <text x="41.02" y="57.91" text-anchor="middle" dy="0.6em">Dec</text>
    <text x="46.48" y="57.91" text-anchor="middle" dy="0.6em">Jan 2015</text>
    <text x="51.95" y="57.91" text-anchor="middle" dy="0.6em">Feb</text>
    <text x="56.88" y="57.91" text-anchor="middle" dy="0.6em">Mar</text>
    <text x="62.35" y="57.91" text-anchor="middle" dy="0.6em">Apr</text>
    <text x="67.63" y="57.91" text-anchor="middle" dy="0.6em">May</text>
    <text x="73.1" y="57.91" text-anchor="middle" dy="0.6em">Jun</text>
    <text x="78.38" y="57.91" text-anchor="middle" dy="0.6em">Jul</text>
    <text x="83.85" y="57.91" text-anchor="middle" dy="0.6em">Aug</text>
    <text x="89.31" y="57.91" text-anchor="middle" dy="0.6em">Sep</text>
    <text x="94.6" y="57.91" text-anchor="middle" dy="0.6em">Oct</text>
  </g>
  <g clip-path="url(#fig-d64dd9a768fb4f75bc46a67cf9af4db2-element-5)" id="fig-d64dd9a768fb4f75bc46a67cf9af4db2-element-4">
    <g pointer-events="visible" opacity="1" fill="#000000" fill-opacity="0.000" stroke="#000000" stroke-opacity="0.000" class="guide background" id="fig-d64dd9a768fb4f75bc46a67cf9af4db2-element-6">
      <rect x="19.63" y="12.61" width="76.97" height="44.3"/>
    </g>
    <g class="guide ygridlines xfixed" stroke-dasharray="0.5,0.5" stroke-width="0.2" stroke="#D0D0E0" id="fig-d64dd9a768fb4f75bc46a67cf9af4db2-element-7">
      <path fill="none" d="M19.63,54.91 L 96.6 54.91"/>
      <path fill="none" d="M19.63,34.76 L 96.6 34.76"/>
      <path fill="none" d="M19.63,14.61 L 96.6 14.61"/>
    </g>
    <g class="guide xgridlines yfixed" stroke-dasharray="0.5,0.5" stroke-width="0.2" stroke="#D0D0E0" id="fig-d64dd9a768fb4f75bc46a67cf9af4db2-element-8">
      <path fill="none" d="M24.98,12.61 L 24.98 56.91"/>
      <path fill="none" d="M30.27,12.61 L 30.27 56.91"/>
      <path fill="none" d="M35.73,12.61 L 35.73 56.91"/>
      <path fill="none" d="M41.02,12.61 L 41.02 56.91"/>
      <path fill="none" d="M46.48,12.61 L 46.48 56.91"/>
      <path fill="none" d="M51.95,12.61 L 51.95 56.91"/>
      <path fill="none" d="M56.88,12.61 L 56.88 56.91"/>
      <path fill="none" d="M62.35,12.61 L 62.35 56.91"/>
      <path fill="none" d="M67.63,12.61 L 67.63 56.91"/>
      <path fill="none" d="M73.1,12.61 L 73.1 56.91"/>
      <path fill="none" d="M78.38,12.61 L 78.38 56.91"/>
      <path fill="none" d="M83.85,12.61 L 83.85 56.91"/>
      <path fill="none" d="M89.31,12.61 L 89.31 56.91"/>
      <path fill="none" d="M94.6,12.61 L 94.6 56.91"/>
    </g>
    <g class="plotpanel" id="fig-d64dd9a768fb4f75bc46a67cf9af4db2-element-9">
      <g stroke-width="0.3" fill="#000000" fill-opacity="0.000" class="geometry color_newnot_possible" stroke="#808080" id="fig-d64dd9a768fb4f75bc46a67cf9af4db2-element-10">
        <path fill="none" d="M76.45,51.36 L 76.62 51.36 76.8 51.38 76.97 51.38 77.15 51.39 77.33 51.39 77.5 51.39 77.68 51.4 78.21 51.4 78.56 51.42 78.91 51.42 79.09 51.43 79.27 51.45 79.44 51.46 79.62 51.47 79.79 51.47 82.79 51.48 84.2 51.52 85.79 51.54 88.78 51.66 89.31 51.67 90.19 51.69 91.07 51.38 93.89 51.47 94.6 51.5"/>
      </g>
      <g stroke-width="0.3" fill="#000000" fill-opacity="0.000" class="geometry color_newno_tests" stroke="#0000FF" id="fig-d64dd9a768fb4f75bc46a67cf9af4db2-element-11">
        <path fill="none" d="M76.45,47.81 L 76.62 47.81 76.8 47.84 76.97 47.84 77.15 47.87 77.33 47.87 77.5 47.87 77.68 47.88 78.21 47.89 78.56 47.92 78.91 47.92 79.09 47.94 79.27 48.05 79.44 48.07 79.62 48.08 79.79 48.14 82.79 48.24 84.2 48.3 85.79 48.35 88.78 48.59 89.31 48.67 90.19 48.71 91.07 48.83 93.89 49.21 94.6 49.43"/>
      </g>
      <g stroke-width="0.3" fill="#000000" fill-opacity="0.000" class="geometry color_newtests_fail" stroke="#FF0000" id="fig-d64dd9a768fb4f75bc46a67cf9af4db2-element-12">
        <path fill="none" d="M76.45,41.5 L 76.62 41.96 76.8 41.87 76.97 40.56 77.15 40.57 77.33 40.76 77.5 40.76 77.68 41.83 78.21 41.26 78.56 41.31 78.91 42.02 79.09 42.19 79.27 40.8 79.44 42.12 79.62 41.18 79.79 41.63 82.79 42.44 84.2 42.18 85.79 42.83 88.78 43.04 89.31 43.37 90.19 43.73 91.07 44.65 93.89 44.75 94.6 45.18"/>
      </g>
      <g stroke-width="0.3" fill="#000000" fill-opacity="0.000" class="geometry color_newtests_pass" stroke="#008000" id="fig-d64dd9a768fb4f75bc46a67cf9af4db2-element-13">
        <path fill="none" d="M76.45,38.68 L 76.62 38.22 76.8 38.27 76.97 39.58 77.15 39.52 77.33 39.33 77.5 39.33 77.68 38.25 78.21 38.79 78.56 38.72 78.91 38 79.09 37.8 79.27 39.06 79.44 37.71 79.62 38.63 79.79 38.12 82.79 37.2 84.2 37.36 85.79 36.63 88.78 36.06 89.31 35.65 90.19 35.23 91.07 34.5 93.89 33.92 94.6 33.25"/>
      </g>
      <g stroke-width="0.3" fill="#000000" fill-opacity="0.000" class="geometry color_newnot_possible" stroke="#808080" id="fig-d64dd9a768fb4f75bc46a67cf9af4db2-element-14">
        <path fill="none" d="M21.63,50.71 L 21.81 50.63 21.98 50.53 22.16 50.55 22.34 50.55 22.51 50.55 22.87 50.58 23.04 50.58 23.22 50.59 23.39 50.59 23.57 50.59 23.75 50.63 23.92 50.65 24.1 50.65 24.45 50.67 24.63 50.6 24.98 50.62 25.16 50.62 25.33 50.52 26.04 50.52 26.57 50.59 26.74 50.6 26.92 50.61 27.1 50.63 27.27 50.63 27.45 50.63 27.62 50.71 27.8 50.71 27.98 50.71 28.33 50.63 28.51 50.63 28.68 50.64 28.86 50.64 29.03 50.64 29.21 50.65 29.39 50.55 29.74 50.54 29.92 50.55 30.09 50.55 30.27 50.57 30.44 50.49 30.62 50.49 30.8 50.49 30.97 50.51 31.5 50.53 31.68 50.44 31.85 50.46 32.03 50.47 32.21 50.47 32.38 50.47 32.56 50.49 32.74 50.49 32.91 50.5 33.09 50.51 33.26 50.42 33.44 50.42 33.62 50.42 33.79 50.44 33.97 50.46 34.15 50.46 34.32 50.46 34.5 50.47 34.67 50.47 34.85 50.48 35.03 50.48 35.2 50.5 35.38 50.51 35.56 50.51 35.73 50.52 35.91 50.52 36.08 50.52 36.26 50.52 36.44 50.53 36.61 50.54 37.14 50.54 38.02 50.6 38.2 50.62 38.38 50.62 38.55 50.63 38.73 50.63 38.9 50.66 39.08 50.66 39.79 50.71 39.96 50.71 40.84 50.71 41.2 50.71 41.37 50.82 41.55 50.83 41.72 50.83 41.9 50.83 42.08 50.85 42.25 50.87 42.78 50.88 42.96 50.88 43.31 50.92 43.49 50.92 43.66 50.92 44.19 50.92 44.54 50.94 45.07 50.95 45.78 50.97 46.13 51 46.66 51.02 47.89 51.08 48.6 51.13 48.77 50.98 48.95 50.98 49.13 50.95 49.3 50.95 49.48 50.95 49.83 50.96 50.01 50.97 50.18 50.97 50.36 50.91 50.54 50.92 50.71 50.92 50.89 50.92 51.24 50.86 51.42 50.88 51.59 50.89 52.3 50.95 52.48 50.95 52.65 50.93 53 50.95 53.36 50.98 53.53 50.98 54.06 50.99 54.94 50.99 55.82 51 56.71 51.07 56.88 51.07 57.06 51.07 57.23 50.55 57.41 50.63 57.76 50.57 58.12 50.57 58.82 50.58 59 50.59 59.17 50.59 59.35 50.59 59.53 50.61 59.7 50.68 59.88 50.62 61.99 50.58 62.35 50.5 62.52 50.53 62.87 50.53 63.58 50.53 63.93 50.54 64.28 50.57 64.99 50.58 65.34 50.6 65.52 50.62 65.87 50.66 66.05 50.66 66.22 50.67 66.4 50.68 66.58 50.68 66.75 50.69 67.1 50.69 67.28 50.71 67.63 50.71 67.99 50.72 68.16 50.75 68.34 50.75 68.69 50.77 68.87 50.77 69.75 50.8 70.45 50.88 70.63 50.83 72.04 50.85 72.22 50.72 72.39 50.72 72.92 50.74 73.1 50.75 73.27 50.83 73.63 50.84 73.98 50.84 74.33 50.86 75.92 50.9"/>
      </g>
      <g stroke-width="0.3" fill="#000000" fill-opacity="0.000" class="geometry color_newtests_fail" stroke="#FF0000" id="fig-d64dd9a768fb4f75bc46a67cf9af4db2-element-15">
        <path fill="none" d="M21.63,52.48 L 21.81 52.39 21.98 52.72 22.16 50.33 22.34 50.33 22.51 50.33 22.87 52.64 23.04 52.75 23.22 52.65 23.39 52.86 23.57 52.97 23.75 52.88 23.92 52.89 24.1 53 24.45 52.26 24.63 52.07 24.98 51.98 25.16 51.98 25.33 52.09 26.04 52.09 26.57 52.34 26.74 52.34 26.92 52.35 27.1 52.47 27.27 52.57 27.45 52.87 27.62 52.91 27.8 52.91 27.98 52.91 28.33 52.72 28.51 52.62 28.68 52.73 28.86 52.73 29.03 52.83 29.21 52.63 29.39 52.43 29.74 53.12 29.92 50.05 30.09 49.95 30.27 51.85 30.44 51.87 30.62 51.97 30.8 51.97 30.97 51.98 31.5 50.14 31.68 51.61 31.85 51.91 32.03 52.02 32.21 52.11 32.38 51.92 32.56 52.13 32.74 52.13 32.91 51.94 33.09 51.85 33.26 51.56 33.44 51.76 33.62 52.04 33.79 52.06 33.97 52.07 34.15 44.58 34.32 44.58 34.5 44.6 34.67 45.64 34.85 45.67 35.03 51.8 35.2 51.91 35.38 52.01 35.56 52.01 35.73 52.02 35.91 52.02 36.08 52.02 36.26 52.02 36.44 52.12 36.61 52.03 37.14 52.31 38.02 52.25 38.2 52.26 38.38 52.26 38.55 52.27 38.73 52.27 38.9 52.2 39.08 52.2 39.79 52.23 39.96 52.14 40.84 52.32 41.2 52.41 41.37 51.89 41.55 52.34 41.72 52.25 41.9 52.34 42.08 52.35 42.25 52.36 42.78 52.63 42.96 52.64 43.31 51.7 43.49 51.7 43.66 51.7 44.19 51.7 44.54 51.71 45.07 52.76 45.78 52.77 46.13 52.7 46.66 52.8 47.89 52.66 48.6 52.53 48.77 52.7 48.95 52.7 49.13 52.49 49.3 52 49.48 52 49.83 52.01 50.01 52.01 50.18 52.01 50.36 52.03 50.54 52.04 50.71 52.04 50.89 52.04 51.24 52.05 51.42 51.99 51.59 52 52.3 51.65 52.48 51.65 52.65 51.63 53 51.58 53.36 46.58 53.53 51.59 54.06 51.38 54.94 51.38 55.82 51.31 56.71 49.48 56.88 50.16 57.06 50.76 57.23 51.61 57.41 51.83 57.76 51.84 58.12 51.39 58.82 51.48 59 51.49 59.17 51.41 59.35 51.41 59.53 43.78 59.7 41.75 59.88 42.91 61.99 49.84 62.35 50.06 62.52 51.4 62.87 51.48 63.58 51.48 63.93 51.49 64.28 51.58 64.99 51.52 65.34 39.87 65.52 43.39 65.87 45.76 66.05 45.76 66.22 45.78 66.4 45.46 66.58 45.53 66.75 45.9 67.1 46.05 67.28 45.94 67.63 41.25 67.99 41.5 68.16 42.89 68.34 42.91 68.69 43.51 68.87 44.29 69.75 44.63 70.45 45.01 70.63 44.98 72.04 45.91 72.22 45.97 72.39 46.04 72.92 45.97 73.1 45.98 73.27 46.01 73.63 46.24 73.98 46.11 74.33 46.2 75.92 46.04"/>
      </g>
      <g stroke-width="0.3" fill="#000000" fill-opacity="0.000" class="geometry color_newno_tests" stroke="#0000FF" id="fig-d64dd9a768fb4f75bc46a67cf9af4db2-element-16">
        <path fill="none" d="M21.63,49.6 L 21.81 49.53 21.98 49.55 22.16 50.22 22.34 50.22 22.51 50.22 22.87 49.71 23.04 49.71 23.22 49.84 23.39 49.84 23.57 49.84 23.75 49.88 23.92 49.9 24.1 50.01 24.45 50.35 24.63 50.5 24.98 50.52 25.16 50.52 25.33 50.52 26.04 50.52 26.57 50.48 26.74 50.49 26.92 50.4 27.1 50.43 27.27 50.43 27.45 50.43 27.62 50.51 27.8 50.61 27.98 50.61 28.33 50.53 28.51 50.63 28.68 50.54 28.86 50.54 29.03 50.54 29.21 50.55 29.39 50.75 29.74 50.54 29.92 50.84 30.09 50.84 30.27 50.57 30.44 50.59 30.62 50.59 30.8 50.59 30.97 50.61 31.5 51.02 31.68 50.73 31.85 50.65 32.03 50.66 32.21 50.66 32.38 50.66 32.56 50.68 32.74 50.68 32.91 50.69 33.09 50.7 33.26 50.7 33.44 50.7 33.62 50.7 33.79 50.72 33.97 50.74 34.15 51.31 34.32 51.31 34.5 51.32 34.67 51.13 34.85 51.14 35.03 50.76 35.2 50.78 35.38 50.79 35.56 50.79 35.73 50.8 35.91 50.8 36.08 50.8 36.26 50.8 36.44 50.81 36.61 50.82 37.14 50.82 38.02 50.88 38.2 50.89 38.38 50.89 38.55 50.9 38.73 50.9 38.9 50.93 39.08 50.93 39.79 50.97 39.96 50.97 40.84 50.98 41.2 50.98 41.37 51 41.55 51.01 41.72 51.1 41.9 51.01 42.08 51.03 42.25 51.04 42.78 51.05 42.96 51.06 43.31 51.09 43.49 51.09 43.66 51.09 44.19 51.09 44.54 51.11 45.07 51.04 45.78 51.14 46.13 51.09 46.66 51.1 47.89 51.16 48.6 51.21 48.77 51.23 48.95 51.23 49.13 51.27 49.3 51.27 49.48 51.27 49.83 51.28 50.01 51.29 50.18 51.29 50.36 51.31 50.54 51.32 50.71 51.32 50.89 51.32 51.24 51.34 51.42 51.36 51.59 51.37 52.3 51.5 52.48 51.5 52.65 51.48 53 51.5 53.36 51.67 53.53 51.44 54.06 51.45 54.94 51.45 55.82 51.46 56.71 51.75 56.88 51.67 57.06 51.67 57.23 51.68 57.41 51.61 57.76 51.62 58.12 51.69 58.82 51.7 59 51.71 59.17 51.79 59.35 51.79 59.53 52.61 59.7 52.68 59.88 52.69 61.99 51.83 62.35 51.83 62.52 51.84 62.87 51.84 63.58 51.85 63.93 51.85 64.28 51.87 64.99 51.95 65.34 52.54 65.52 52.41 65.87 52.36 66.05 52.29 66.22 52.37 66.4 52.37 66.58 52.37 66.75 52.38 67.1 52.38 67.28 52.46 67.63 52.67 67.99 52.54 68.16 52.48 68.34 52.49 68.69 52.5 68.87 52.43 69.75 52.45 70.45 52.39 70.63 52.4 72.04 52.34 72.22 52.34 72.39 52.34 72.92 52.36 73.1 52.36 73.27 52.37 73.63 52.38 73.98 52.38 74.33 52.39 75.92 52.42"/>
      </g>
      <g stroke-width="0.3" fill="#000000" fill-opacity="0.000" class="geometry color_oldfull_fail" stroke="#FFA500" id="fig-d64dd9a768fb4f75bc46a67cf9af4db2-element-17">
        <path fill="none" d="M21.63,51.37 L 21.81 51.4 21.98 50.42 22.16 50.33 22.34 50.22 22.51 50.22 22.87 50.26 23.04 50.36 23.22 50.59 23.39 50.27 23.57 50.16 23.75 50.41 23.92 50.54 24.1 50.22 24.45 49.82 24.63 50.5 24.98 50.41 25.16 50.41 25.33 50.41 26.04 50.41 26.57 50.17 26.74 50.29 26.92 50.4 27.1 50.22 27.27 50.32 27.45 50.53 27.62 50.21 27.8 50.01 27.98 50.01 28.33 50.43 28.51 50.33 28.68 50.34 28.86 50.54 29.03 50.44 29.21 50.05 29.39 50.15 29.74 50.64 29.92 49.55 30.09 49.26 30.27 49.78 30.44 49.9 30.62 49.9 30.8 49.9 30.97 49.83 31.5 48 31.68 49.07 31.85 50.17 32.03 50.08 32.21 49.79 32.38 50.08 32.56 50.2 32.74 50.2 32.91 50.02 33.09 49.94 33.26 50.32 33.44 50.32 33.62 50.22 33.79 50.15 33.97 50.17 34.15 51.22 34.32 51.12 34.5 51.13 34.67 51.04 34.85 50.86 35.03 48.4 35.2 49.09 35.38 49.48 35.56 49.01 35.73 49.02 35.91 48.93 36.08 48.93 36.26 48.93 36.44 49.13 36.61 49.42 37.14 49.42 38.02 49.31 38.2 49.16 38.38 49.16 38.55 49.26 38.73 49.35 38.9 49.48 39.08 49.3 39.79 48.56 39.96 48.65 40.84 48.12 41.2 48.39 41.37 48.6 41.55 48.7 41.72 48.7 41.9 48.88 42.08 48.82 42.25 48.76 42.78 48.24 42.96 48.34 43.31 48.31 43.49 47.97 43.66 48.23 44.19 48.4 44.54 48.6 45.07 48.37 45.78 48.48 46.13 48.96 46.66 48.65 47.89 48.41 48.6 48.75 48.77 48.77 48.95 48.77 49.13 48.6 49.3 48.36 49.48 48.44 49.83 48.62 50.01 48.55 50.18 48.55 50.36 48.26 50.54 48.36 50.71 48.28 50.89 48.28 51.24 48.4 51.42 48.28 51.59 48.05 52.3 47.93 52.48 47.77 52.65 47.89 53 48 53.36 49.74 53.53 47.27 54.06 46.92 54.94 46.92 55.82 47.01 56.71 47.52 56.88 47.37 57.06 47.22 57.23 47.25 57.41 47.47 57.76 47.27 58.12 46.15 58.82 45.49 59 45.6 59.17 45.38 59.35 45.53 59.53 48.09 59.7 48.89 59.88 48.25 61.99 46.53 62.35 46.46 62.52 45.84 62.87 46.28 63.58 46.81 63.93 46.9 64.28 46.8 64.99 47.11 65.34 49.23 65.52 48.69 65.87 47.61 66.05 47.54 66.22 47.27 66.4 45.95 66.58 46.37 66.75 46.67 67.1 46.76 67.28 46.85 67.63 48.54 67.99 48.56 68.16 48.17 68.34 48.12 68.69 48.35 68.87 47.81 69.75 47.92 70.45 48.15 70.63 48.18 72.04 48.41 72.22 48.41 72.39 48.62 72.92 48.32 73.1 48.26 73.27 48.35 73.63 48.18 73.98 47.91 74.33 47.67 75.92 47.55"/>
      </g>
      <g stroke-width="0.3" fill="#000000" fill-opacity="0.000" class="geometry color_newtests_pass" stroke="#008000" id="fig-d64dd9a768fb4f75bc46a67cf9af4db2-element-18">
        <path fill="none" d="M21.63,30.11 L 21.81 30.32 21.98 31.04 22.16 32.85 22.34 32.96 22.51 32.96 22.87 31.08 23.04 30.86 23.22 30.6 23.39 30.71 23.57 30.71 23.75 30.48 23.92 30.29 24.1 30.39 24.45 31.16 24.63 30.61 24.98 30.73 25.16 30.73 25.33 30.73 26.04 30.73 26.57 30.69 26.74 30.55 26.92 30.51 27.1 30.53 27.27 30.32 27.45 29.81 27.62 29.91 27.8 30.01 27.98 30.01 28.33 29.97 28.51 30.07 28.68 30.04 28.86 29.84 29.03 29.84 29.21 30.4 29.39 30.4 29.74 29.44 29.92 33.27 30.09 33.67 30.27 31.5 30.44 31.42 30.62 31.32 30.8 31.32 30.97 31.34 31.5 34.57 31.68 32.43 31.85 31.08 32.03 31.04 32.21 31.24 32.38 31.14 32.56 30.77 32.74 30.77 32.91 31.12 33.09 31.27 33.26 31.27 33.44 31.08 33.62 30.89 33.79 30.9 33.97 30.83 34.15 36.71 34.32 36.8 34.5 36.75 34.67 35.99 34.85 36.13 35.03 32.83 35.2 31.99 35.38 31.48 35.56 31.95 35.73 31.91 35.91 32 36.08 32 36.26 32 36.44 31.68 36.61 31.46 37.14 31.18 38.02 31.23 38.2 31.34 38.38 31.34 38.55 31.21 38.73 31.12 38.9 31 39.08 31.19 39.79 31.81 39.96 31.81 40.84 32.13 41.2 31.77 41.37 31.96 41.55 31.39 41.72 31.39 41.9 31.21 42.08 31.23 42.25 31.24 42.78 31.47 42.96 31.35 43.31 32.24 43.49 32.59 43.66 32.33 44.19 32.16 44.54 31.91 45.07 31.15 45.78 30.9 46.13 30.51 46.66 30.7 47.89 30.97 48.6 30.65 48.77 30.59 48.95 30.59 49.13 30.96 49.3 31.69 49.48 31.61 49.83 31.41 50.01 31.46 50.18 31.46 50.36 31.76 50.54 31.64 50.71 31.72 50.89 31.72 51.24 31.62 51.42 31.76 51.59 31.96 52.3 32.24 52.48 32.39 52.65 32.34 53 32.24 53.36 35.3 53.53 32.99 54.06 33.53 54.94 33.53 55.82 33.5 56.71 34.46 56.88 34.01 57.06 33.56 57.23 33.18 57.41 32.73 57.76 32.97 58.12 34.46 58.82 35.03 59 34.88 59.17 35.1 59.35 34.95 59.53 39.18 59.7 40.27 59.88 39.8 61.99 35.5 62.35 35.43 62.52 34.65 62.87 34.14 63.58 33.6 63.93 33.49 64.28 33.46 64.99 33.1 65.34 42.03 65.52 39.17 65.87 37.89 66.05 38.03 66.22 38.2 66.4 39.81 66.58 39.32 66.75 38.64 67.1 38.39 67.28 38.3 67.63 41.11 67.99 40.95 68.16 39.97 68.34 40 68.69 39.15 68.87 38.97 69.75 38.46 70.45 37.84 70.63 37.9 72.04 36.76 72.22 36.83 72.39 36.56 72.92 36.88 73.1 36.91 73.27 36.7 73.63 36.63 73.98 37.03 74.33 37.16 75.92 37.36"/>
      </g>
    </g>
  </g>
  <g class="guide ylabels" font-size="2.82" font-family="'PT Sans Caption','Helvetica Neue','Helvetica',sans-serif" fill="#6C606B" id="fig-d64dd9a768fb4f75bc46a67cf9af4db2-element-19">
    <text x="18.63" y="54.91" text-anchor="end" dy="0.35em">0</text>
    <text x="18.63" y="34.76" text-anchor="end" dy="0.35em">50</text>
    <text x="18.63" y="14.61" text-anchor="end" dy="0.35em">100</text>
  </g>
  <g font-size="3.88" font-family="'PT Sans','Helvetica Neue','Helvetica',sans-serif" fill="#564A55" stroke="#000000" stroke-opacity="0.000" id="fig-d64dd9a768fb4f75bc46a67cf9af4db2-element-20">
    <text x="8.81" y="32.76" text-anchor="middle" dy="0.35em" transform="rotate(-90, 8.81, 34.76)">Percentage of Packages</text>
  </g>
  <g font-size="3.88" font-family="'PT Sans','Helvetica Neue','Helvetica',sans-serif" fill="#564A55" stroke="#000000" stroke-opacity="0.000" id="fig-d64dd9a768fb4f75bc46a67cf9af4db2-element-21">
    <text x="58.12" y="10.61" text-anchor="middle">Julia v0.4 (relative)</text>
  </g>
</g>
<defs>
<clipPath id="fig-d64dd9a768fb4f75bc46a67cf9af4db2-element-5">
  <path d="M19.63,12.61 L 96.6 12.61 96.6 56.91 19.63 56.91" />
</clipPath
></defs>
</svg>
