<?xml version="1.0" encoding="UTF-8"?>
<svg xmlns="http://www.w3.org/2000/svg"
     xmlns:xlink="http://www.w3.org/1999/xlink"
     xmlns:gadfly="http://www.gadflyjl.org/ns"
     version="1.2"
     width="101.6mm" height="76.2mm" viewBox="0 0 101.6 76.2"
     stroke="none"
     fill="#000000"
     stroke-width="0.3"
     font-size="3.88"
>
<g class="plotroot xscalable yscalable" id="img-fd61d93b-1">
  <g font-size="3.88" font-family="'PT Sans','Helvetica Neue','Helvetica',sans-serif" fill="#564A55" stroke="#000000" stroke-opacity="0.000" id="img-fd61d93b-2">
    <text x="58.12" y="64.59" text-anchor="middle" dy="0.6em">Date</text>
  </g>
  <g class="guide xlabels" font-size="2.82" font-family="'PT Sans Caption','Helvetica Neue','Helvetica',sans-serif" fill="#6C606B" id="img-fd61d93b-3">
    <text x="24.49" y="48.71" text-anchor="end" dy="0.35em" transform="rotate(-90, 24.49, 48.71)">Sep</text>
    <text x="29" y="48.71" text-anchor="end" dy="0.35em" transform="rotate(-90, 29, 48.71)">Oct</text>
    <text x="33.67" y="48.71" text-anchor="end" dy="0.35em" transform="rotate(-90, 33.67, 48.71)">Nov</text>
    <text x="38.18" y="48.71" text-anchor="end" dy="0.35em" transform="rotate(-90, 38.18, 48.71)">Dec</text>
    <text x="42.85" y="48.71" text-anchor="end" dy="0.35em" transform="rotate(-90, 42.85, 48.71)">Jan 2015</text>
    <text x="47.51" y="48.71" text-anchor="end" dy="0.35em" transform="rotate(-90, 47.51, 48.71)">Feb</text>
    <text x="51.72" y="48.71" text-anchor="end" dy="0.35em" transform="rotate(-90, 51.72, 48.71)">Mar</text>
    <text x="56.39" y="48.71" text-anchor="end" dy="0.35em" transform="rotate(-90, 56.39, 48.71)">Apr</text>
    <text x="60.9" y="48.71" text-anchor="end" dy="0.35em" transform="rotate(-90, 60.9, 48.71)">May</text>
    <text x="65.56" y="48.71" text-anchor="end" dy="0.35em" transform="rotate(-90, 65.56, 48.71)">Jun</text>
    <text x="70.08" y="48.71" text-anchor="end" dy="0.35em" transform="rotate(-90, 70.08, 48.71)">Jul</text>
    <text x="74.74" y="48.71" text-anchor="end" dy="0.35em" transform="rotate(-90, 74.74, 48.71)">Aug</text>
    <text x="79.4" y="48.71" text-anchor="end" dy="0.35em" transform="rotate(-90, 79.4, 48.71)">Sep</text>
    <text x="83.92" y="48.71" text-anchor="end" dy="0.35em" transform="rotate(-90, 83.92, 48.71)">Oct</text>
    <text x="88.58" y="48.71" text-anchor="end" dy="0.35em" transform="rotate(-90, 88.58, 48.71)">Nov</text>
    <text x="93.1" y="48.71" text-anchor="end" dy="0.35em" transform="rotate(-90, 93.1, 48.71)">Dec</text>
  </g>
<g clip-path="url(#img-fd61d93b-4)">
  <g id="img-fd61d93b-5">
    <g pointer-events="visible" opacity="1" fill="#000000" fill-opacity="0.000" stroke="#000000" stroke-opacity="0.000" class="guide background" id="img-fd61d93b-6">
      <rect x="19.63" y="12.61" width="76.97" height="35.1"/>
    </g>
    <g class="guide ygridlines xfixed" stroke-dasharray="0.5,0.5" stroke-width="0.2" stroke="#D0D0E0" id="img-fd61d93b-7">
      <path fill="none" d="M19.63,45.71 L 96.6 45.71"/>
      <path fill="none" d="M19.63,39.49 L 96.6 39.49"/>
      <path fill="none" d="M19.63,33.27 L 96.6 33.27"/>
      <path fill="none" d="M19.63,27.05 L 96.6 27.05"/>
      <path fill="none" d="M19.63,20.83 L 96.6 20.83"/>
      <path fill="none" d="M19.63,14.61 L 96.6 14.61"/>
    </g>
    <g class="guide xgridlines yfixed" stroke-dasharray="0.5,0.5" stroke-width="0.2" stroke="#D0D0E0" id="img-fd61d93b-8">
      <path fill="none" d="M24.49,12.61 L 24.49 47.71"/>
      <path fill="none" d="M29,12.61 L 29 47.71"/>
      <path fill="none" d="M33.67,12.61 L 33.67 47.71"/>
      <path fill="none" d="M38.18,12.61 L 38.18 47.71"/>
      <path fill="none" d="M42.85,12.61 L 42.85 47.71"/>
      <path fill="none" d="M47.51,12.61 L 47.51 47.71"/>
      <path fill="none" d="M51.72,12.61 L 51.72 47.71"/>
      <path fill="none" d="M56.39,12.61 L 56.39 47.71"/>
      <path fill="none" d="M60.9,12.61 L 60.9 47.71"/>
      <path fill="none" d="M65.56,12.61 L 65.56 47.71"/>
      <path fill="none" d="M70.08,12.61 L 70.08 47.71"/>
      <path fill="none" d="M74.74,12.61 L 74.74 47.71"/>
      <path fill="none" d="M79.4,12.61 L 79.4 47.71"/>
      <path fill="none" d="M83.92,12.61 L 83.92 47.71"/>
      <path fill="none" d="M88.58,12.61 L 88.58 47.71"/>
      <path fill="none" d="M93.1,12.61 L 93.1 47.71"/>
    </g>
    <g class="plotpanel" id="img-fd61d93b-9">
      <g stroke-width="0.3" fill="#000000" fill-opacity="0.000" class="geometry color_newnot_possible" stroke-dasharray="none" stroke="#808080" id="img-fd61d93b-10">
        <path fill="none" d="M68.42,42.35 L 68.57 42.35 68.72 42.35 68.87 42.35 69.02 42.35 69.17 42.35 69.32 42.35 69.47 42.35 69.93 42.35 70.23 42.35 70.53 42.35 70.68 42.35 70.83 42.35 70.98 42.35 71.13 42.35 71.28 42.35 73.84 42.29 75.04 42.29 76.4 42.29 78.95 42.29 79.4 42.29 80.16 42.29 80.91 41.91 83.32 41.91 83.92 41.91 84.67 41.85 85.27 41.79 85.87 41.79 86.33 41.73 88.13 41.73 89.94 41.67 90.54 41.67 90.84 41.6 92.19 41.6 92.34 41.6 93.4 41.6 93.55 41.54 94.6 41.54"/>
      </g>
      <g stroke-width="0.3" fill="#000000" fill-opacity="0.000" class="geometry color_newno_tests" stroke-dasharray="none" stroke="#0000FF" id="img-fd61d93b-11">
        <path fill="none" d="M68.42,38.99 L 68.57 38.99 68.72 38.99 68.87 38.99 69.02 38.99 69.17 38.99 69.32 38.99 69.47 38.99 69.93 38.99 70.23 38.99 70.53 38.99 70.68 38.99 70.83 39.05 70.98 39.05 71.13 39.05 71.28 39.12 73.84 39.05 75.04 39.05 76.4 39.05 78.95 39.05 79.4 39.12 80.16 39.12 80.91 39.18 83.32 39.43 83.92 39.61 84.67 39.74 85.27 40.8 85.87 40.86 86.33 40.98 88.13 41.04 89.94 41.11 90.54 41.11 90.84 41.11 92.19 41.11 92.34 41.11 93.4 41.11 93.55 41.11 94.6 41.11"/>
      </g>
      <g stroke-width="0.3" fill="#000000" fill-opacity="0.000" class="geometry color_newtests_fail" stroke-dasharray="none" stroke="#FF0000" id="img-fd61d93b-12">
        <path fill="none" d="M68.42,33.02 L 68.57 33.46 68.72 33.33 68.87 32.09 69.02 32.03 69.17 32.21 69.32 32.21 69.47 33.21 69.93 32.65 70.23 32.65 70.53 33.33 70.68 33.46 70.83 32.03 70.98 33.27 71.13 32.34 71.28 32.77 73.84 33.27 75.04 32.9 76.4 33.46 78.95 33.21 79.4 33.52 80.16 33.83 80.91 34.7 83.32 34.51 83.92 34.89 84.67 35.07 85.27 35.7 85.87 35.94 86.33 36.38 88.13 36.13 89.94 36.25 90.54 36.44 90.84 36.63 92.19 36.63 92.34 36.81 93.4 36.57 93.55 36.88 94.6 36.44"/>
      </g>
      <g stroke-width="0.3" fill="#000000" fill-opacity="0.000" class="geometry color_newtests_pass" stroke-dasharray="none" stroke="#008000" id="img-fd61d93b-13">
        <path fill="none" d="M68.42,30.35 L 68.57 29.91 68.72 29.91 68.87 31.16 69.02 31.03 69.17 30.84 69.32 30.84 69.47 29.79 69.93 30.28 70.23 30.16 70.53 29.48 70.68 29.23 70.83 30.35 70.98 28.98 71.13 29.85 71.28 29.35 73.84 28.05 75.04 28.05 76.4 27.17 78.95 25.87 79.4 25.37 80.16 24.81 80.91 23.82 83.32 22.57 83.92 21.64 84.67 20.83 85.27 20.77 85.87 20.15 86.33 19.46 88.13 18.28 89.94 17.47 90.54 17.22 90.84 16.85 92.19 16.6 92.34 16.42 93.4 16.35 93.55 16.04 94.6 15.98"/>
      </g>
      <g stroke-width="0.3" fill="#000000" fill-opacity="0.000" class="geometry color_newnot_possible" stroke-dasharray="none" stroke="#808080" id="img-fd61d93b-14">
        <path fill="none" d="M21.63,43.34 L 21.78 43.28 21.93 43.22 22.08 43.22 22.23 43.22 22.38 43.22 22.68 43.22 22.84 43.22 22.99 43.22 23.14 43.22 23.29 43.22 23.44 43.22 23.59 43.22 23.74 43.22 24.04 43.22 24.19 43.16 24.49 43.16 24.64 43.16 24.79 43.1 25.39 43.1 25.84 43.1 25.99 43.1 26.15 43.1 26.3 43.1 26.45 43.1 26.6 43.1 26.75 43.1 26.9 43.1 27.05 43.1 27.35 43.03 27.5 43.03 27.65 43.03 27.8 43.03 27.95 43.03 28.1 43.03 28.25 42.97 28.55 42.97 28.7 42.97 28.85 42.97 29 42.97 29.15 42.91 29.3 42.91 29.46 42.91 29.61 42.91 30.06 42.91 30.21 42.85 30.36 42.85 30.51 42.85 30.66 42.85 30.81 42.85 30.96 42.85 31.11 42.85 31.26 42.85 31.41 42.85 31.56 42.79 31.71 42.79 31.86 42.79 32.01 42.79 32.16 42.79 32.31 42.79 32.46 42.79 32.61 42.79 32.76 42.79 32.92 42.79 33.07 42.79 33.22 42.79 33.37 42.79 33.52 42.79 33.67 42.79 33.82 42.79 33.97 42.79 34.12 42.79 34.27 42.79 34.42 42.79 34.87 42.79 35.62 42.79 35.77 42.79 35.92 42.79 36.07 42.79 36.23 42.79 36.38 42.79 36.53 42.79 37.13 42.79 37.28 42.79 38.03 42.79 38.33 42.79 38.48 42.85 38.63 42.85 38.78 42.85 38.93 42.85 39.08 42.85 39.23 42.85 39.69 42.85 39.84 42.85 40.14 42.85 40.29 42.85 40.44 42.85 40.89 42.85 41.19 42.85 41.64 42.85 42.24 42.85 42.54 42.85 43 42.85 44.05 42.85 44.65 42.85 44.8 42.72 44.95 42.72 45.1 42.66 45.25 42.66 45.4 42.66 45.7 42.66 45.85 42.66 46 42.66 46.16 42.6 46.31 42.6 46.46 42.6 46.61 42.6 46.91 42.54 47.06 42.54 47.21 42.54 47.81 42.54 47.96 42.54 48.11 42.54 48.41 42.54 48.71 42.54 48.86 42.54 49.31 42.54 50.07 42.54 50.82 42.54 51.57 42.54 51.72 42.54 51.87 42.54 52.02 42.1 52.17 42.16 52.47 42.1 52.77 42.1 53.38 42.1 53.53 42.1 53.68 42.1 53.83 42.1 53.98 42.1 54.13 42.16 54.28 42.1 56.08 42.04 56.39 41.98 56.54 41.98 56.84 41.98 57.44 41.98 57.74 41.98 58.04 41.98 58.64 41.98 58.94 41.98 59.09 41.98 59.39 41.98 59.55 41.98 59.7 41.98 59.85 41.98 60 41.98 60.15 41.98 60.45 41.98 60.6 41.98 60.9 41.98 61.2 41.98 61.35 41.98 61.5 41.98 61.8 41.98 61.95 41.98 62.7 41.98 63.31 42.04 63.46 41.98 64.66 41.98 64.81 41.85 64.96 41.85 65.41 41.85 65.56 41.85 65.71 41.91 66.01 41.91 66.32 41.91 66.62 41.91 67.97 41.91"/>
      </g>
      <g stroke-width="0.3" fill="#000000" fill-opacity="0.000" class="geometry color_newtests_fail" stroke-dasharray="none" stroke="#FF0000" id="img-fd61d93b-15">
        <path fill="none" d="M21.63,44.34 L 21.78 44.28 21.93 44.46 22.08 43.1 22.23 43.1 22.38 43.1 22.68 44.4 22.84 44.46 22.99 44.4 23.14 44.53 23.29 44.59 23.44 44.53 23.59 44.53 23.74 44.59 24.04 44.15 24.19 44.03 24.49 43.97 24.64 43.97 24.79 44.03 25.39 44.03 25.84 44.15 25.99 44.15 26.15 44.15 26.3 44.22 26.45 44.28 26.6 44.46 26.75 44.46 26.9 44.46 27.05 44.46 27.35 44.34 27.5 44.28 27.65 44.34 27.8 44.34 27.95 44.4 28.1 44.28 28.25 44.15 28.55 44.59 28.7 42.66 28.85 42.6 29 43.78 29.15 43.78 29.3 43.84 29.46 43.84 29.61 43.84 30.06 42.66 30.21 43.59 30.36 43.78 30.51 43.84 30.66 43.9 30.81 43.78 30.96 43.9 31.11 43.9 31.26 43.78 31.41 43.72 31.56 43.53 31.71 43.66 31.86 43.84 32.01 43.84 32.16 43.84 32.31 38.93 32.46 38.93 32.61 38.93 32.76 39.61 32.92 39.61 33.07 43.66 33.22 43.72 33.37 43.78 33.52 43.78 33.67 43.78 33.82 43.78 33.97 43.78 34.12 43.78 34.27 43.84 34.42 43.78 34.87 43.97 35.62 43.9 35.77 43.9 35.92 43.9 36.07 43.9 36.23 43.9 36.38 43.84 36.53 43.84 37.13 43.84 37.28 43.78 38.03 43.9 38.33 43.97 38.48 43.59 38.63 43.9 38.78 43.84 38.93 43.9 39.08 43.9 39.23 43.9 39.69 44.09 39.84 44.09 40.14 43.41 40.29 43.41 40.44 43.41 40.89 43.41 41.19 43.41 41.64 44.15 42.24 44.15 42.54 44.09 43 44.15 44.05 44.03 44.65 43.9 44.8 44.03 44.95 44.03 45.1 43.84 45.25 43.47 45.4 43.47 45.7 43.47 45.85 43.47 46 43.47 46.16 43.47 46.31 43.47 46.46 43.47 46.61 43.47 46.91 43.47 47.06 43.41 47.21 43.41 47.81 43.1 47.96 43.1 48.11 43.1 48.41 43.03 48.71 38.99 48.86 43.03 49.31 42.85 50.07 42.85 50.82 42.79 51.57 41.23 51.72 41.79 51.87 42.29 52.02 42.97 52.17 43.16 52.47 43.16 52.77 42.79 53.38 42.85 53.53 42.85 53.68 42.79 53.83 42.79 53.98 36.38 54.13 34.7 54.28 35.63 56.08 41.42 56.39 41.6 56.54 42.72 56.84 42.79 57.44 42.79 57.74 42.79 58.04 42.85 58.64 42.79 58.94 32.71 59.09 35.7 59.39 37.69 59.55 37.69 59.7 37.69 59.85 37.37 60 37.44 60.15 37.75 60.45 37.87 60.6 37.75 60.9 33.58 61.2 33.77 61.35 34.95 61.5 34.95 61.8 35.45 61.95 36.13 62.7 36.38 63.31 36.69 63.46 36.63 64.66 37.44 64.81 37.5 64.96 37.56 65.41 37.44 65.56 37.44 65.71 37.44 66.01 37.62 66.32 37.5 66.62 37.56 67.97 37.31"/>
      </g>
      <g stroke-width="0.3" fill="#000000" fill-opacity="0.000" class="geometry color_newno_tests" stroke-dasharray="none" stroke="#0000FF" id="img-fd61d93b-16">
        <path fill="none" d="M21.63,42.72 L 21.78 42.66 21.93 42.66 22.08 43.03 22.23 43.03 22.38 43.03 22.68 42.72 22.84 42.72 22.99 42.79 23.14 42.79 23.29 42.79 23.44 42.79 23.59 42.79 23.74 42.85 24.04 43.03 24.19 43.1 24.49 43.1 24.64 43.1 24.79 43.1 25.39 43.1 25.84 43.03 25.99 43.03 26.15 42.97 26.3 42.97 26.45 42.97 26.6 42.97 26.75 42.97 26.9 43.03 27.05 43.03 27.35 42.97 27.5 43.03 27.65 42.97 27.8 42.97 27.95 42.97 28.1 42.97 28.25 43.1 28.55 42.97 28.7 43.16 28.85 43.16 29 42.97 29.15 42.97 29.3 42.97 29.46 42.97 29.61 42.97 30.06 43.22 30.21 43.03 30.36 42.97 30.51 42.97 30.66 42.97 30.81 42.97 30.96 42.97 31.11 42.97 31.26 42.97 31.41 42.97 31.56 42.97 31.71 42.97 31.86 42.97 32.01 42.97 32.16 42.97 32.31 43.34 32.46 43.34 32.61 43.34 32.76 43.22 32.92 43.22 33.07 42.97 33.22 42.97 33.37 42.97 33.52 42.97 33.67 42.97 33.82 42.97 33.97 42.97 34.12 42.97 34.27 42.97 34.42 42.97 34.87 42.97 35.62 42.97 35.77 42.97 35.92 42.97 36.07 42.97 36.23 42.97 36.38 42.97 36.53 42.97 37.13 42.97 37.28 42.97 38.03 42.97 38.33 42.97 38.48 42.97 38.63 42.97 38.78 43.03 38.93 42.97 39.08 42.97 39.23 42.97 39.69 42.97 39.84 42.97 40.14 42.97 40.29 42.97 40.44 42.97 40.89 42.97 41.19 42.97 41.64 42.91 42.24 42.97 42.54 42.91 43 42.91 44.05 42.91 44.65 42.91 44.8 42.91 44.95 42.91 45.1 42.91 45.25 42.91 45.4 42.91 45.7 42.91 45.85 42.91 46 42.91 46.16 42.91 46.31 42.91 46.46 42.91 46.61 42.91 46.91 42.91 47.06 42.91 47.21 42.91 47.81 42.97 47.96 42.97 48.11 42.97 48.41 42.97 48.71 43.1 48.86 42.91 49.31 42.91 50.07 42.91 50.82 42.91 51.57 43.1 51.72 43.03 51.87 43.03 52.02 43.03 52.17 42.97 52.47 42.97 52.77 43.03 53.38 43.03 53.53 43.03 53.68 43.1 53.83 43.1 53.98 43.78 54.13 43.84 54.28 43.84 56.08 43.1 56.39 43.1 56.54 43.1 56.84 43.1 57.44 43.1 57.74 43.1 58.04 43.1 58.64 43.16 58.94 43.66 59.09 43.53 59.39 43.47 59.55 43.41 59.7 43.47 59.85 43.47 60 43.47 60.15 43.47 60.45 43.47 60.6 43.53 60.9 43.72 61.2 43.59 61.35 43.53 61.5 43.53 61.8 43.53 61.95 43.47 62.7 43.47 63.31 43.41 63.46 43.41 64.66 43.34 64.81 43.34 64.96 43.34 65.41 43.34 65.56 43.34 65.71 43.34 66.01 43.34 66.32 43.34 66.62 43.34 67.97 43.34"/>
      </g>
      <g stroke-width="0.3" fill="#000000" fill-opacity="0.000" class="geometry color_oldfull_fail" stroke-dasharray="none" stroke="#FFA500" id="img-fd61d93b-17">
        <path fill="none" d="M21.63,43.72 L 21.78 43.72 21.93 43.16 22.08 43.1 22.23 43.03 22.38 43.03 22.68 43.03 22.84 43.1 22.99 43.22 23.14 43.03 23.29 42.97 23.44 43.1 23.59 43.16 23.74 42.97 24.04 42.72 24.19 43.1 24.49 43.03 24.64 43.03 24.79 43.03 25.39 43.03 25.84 42.85 25.99 42.91 26.15 42.97 26.3 42.85 26.45 42.91 26.6 43.03 26.75 42.79 26.9 42.66 27.05 42.66 27.35 42.91 27.5 42.85 27.65 42.85 27.8 42.97 27.95 42.91 28.1 42.66 28.25 42.72 28.55 43.03 28.7 42.35 28.85 42.16 29 42.47 29.15 42.54 29.3 42.54 29.46 42.54 29.61 42.47 30.06 41.29 30.21 41.98 30.36 42.66 30.51 42.6 30.66 42.41 30.81 42.6 30.96 42.66 31.11 42.66 31.26 42.54 31.41 42.47 31.56 42.72 31.71 42.72 31.86 42.66 32.01 42.6 32.16 42.6 32.31 43.28 32.46 43.22 32.61 43.22 32.76 43.16 32.92 43.03 33.07 41.42 33.22 41.85 33.37 42.1 33.52 41.79 33.67 41.79 33.82 41.73 33.97 41.73 34.12 41.73 34.27 41.85 34.42 42.04 34.87 42.04 35.62 41.91 35.77 41.79 35.92 41.79 36.07 41.85 36.23 41.91 36.38 41.98 36.53 41.85 37.13 41.29 37.28 41.35 38.03 40.98 38.33 41.17 38.48 41.29 38.63 41.35 38.78 41.35 38.93 41.48 39.08 41.42 39.23 41.35 39.69 40.98 39.84 41.04 40.14 40.98 40.29 40.73 40.44 40.92 40.89 41.04 41.19 41.17 41.64 40.98 42.24 41.04 42.54 41.35 43 41.11 44.05 40.86 44.65 41.04 44.8 41.04 44.95 41.04 45.1 40.86 45.25 40.67 45.4 40.73 45.7 40.86 45.85 40.8 46 40.8 46.16 40.55 46.31 40.61 46.46 40.55 46.61 40.55 46.91 40.61 47.06 40.48 47.21 40.3 47.81 40.11 47.96 39.99 48.11 40.11 48.41 40.17 48.71 41.54 48.86 39.55 49.31 39.24 50.07 39.24 50.82 39.3 51.57 39.61 51.72 39.49 51.87 39.36 52.02 39.36 52.17 39.55 52.47 39.36 52.77 38.43 53.38 37.87 53.53 37.93 53.68 37.75 53.83 37.87 53.98 39.99 54.13 40.67 54.28 40.11 56.08 38.62 56.39 38.56 56.54 38 56.84 38.37 57.44 38.8 57.74 38.87 58.04 38.74 58.64 38.99 58.94 40.8 59.09 40.3 59.39 39.3 59.55 39.24 59.7 38.99 59.85 37.81 60 38.18 60.15 38.43 60.45 38.49 60.6 38.56 60.9 40.05 61.2 40.05 61.35 39.68 61.5 39.61 61.8 39.8 61.95 39.3 62.7 39.36 63.31 39.55 63.46 39.55 64.66 39.74 64.81 39.74 64.96 39.92 65.41 39.61 65.56 39.55 65.71 39.61 66.01 39.43 66.32 39.18 66.62 38.93 67.97 38.74"/>
      </g>
      <g stroke-width="0.3" fill="#000000" fill-opacity="0.000" class="geometry color_newtests_pass" stroke-dasharray="none" stroke="#008000" id="img-fd61d93b-18">
        <path fill="none" d="M21.63,31.78 L 21.78 31.78 21.93 32.15 22.08 33.15 22.23 33.21 22.38 33.21 22.68 32.03 22.84 31.9 22.99 31.71 23.14 31.78 23.29 31.78 23.44 31.53 23.59 31.34 23.74 31.4 24.04 31.78 24.19 31.34 24.49 31.34 24.64 31.34 24.79 31.34 25.39 31.34 25.84 31.09 25.99 30.97 26.15 30.91 26.3 30.84 26.45 30.72 26.6 30.41 26.75 30.16 26.9 30.22 27.05 30.22 27.35 30.16 27.5 30.22 27.65 30.16 27.8 30.04 27.95 30.04 28.1 30.35 28.25 30.35 28.55 29.79 28.7 32.15 28.85 32.4 29 30.97 29.15 30.84 29.3 30.78 29.46 30.78 29.61 30.72 30.06 32.71 30.21 31.34 30.36 30.41 30.51 30.35 30.66 30.47 30.81 30.41 30.96 30.1 31.11 30.1 31.26 30.28 31.41 30.35 31.56 30.35 31.71 30.22 31.86 30.1 32.01 30.04 32.16 29.91 32.31 33.77 32.46 33.83 32.61 33.77 32.76 33.27 32.92 33.33 33.07 31.16 33.22 30.53 33.37 30.16 33.52 30.47 33.67 30.41 33.82 30.47 33.97 30.47 34.12 30.47 34.27 30.22 34.42 30.04 34.87 29.85 35.62 29.66 35.77 29.66 35.92 29.66 36.07 29.54 36.23 29.48 36.38 29.29 36.53 29.41 37.13 29.66 37.28 29.66 38.03 29.85 38.33 29.6 38.48 29.66 38.63 29.23 38.78 29.23 38.93 29.1 39.08 29.04 39.23 28.98 39.69 29.1 39.84 28.98 40.14 29.48 40.29 29.72 40.44 29.54 40.89 29.41 41.19 29.16 41.64 28.54 42.24 28.29 42.54 27.86 43 27.92 44.05 27.86 44.65 27.36 44.8 27.24 44.95 27.24 45.1 27.3 45.25 27.86 45.4 27.8 45.7 27.61 45.85 27.61 46 27.61 46.16 27.73 46.31 27.61 46.46 27.67 46.61 27.67 46.91 27.49 47.06 27.49 47.21 27.61 47.81 27.55 47.96 27.67 48.11 27.73 48.41 27.55 48.71 29.91 48.86 28.05 49.31 28.42 50.07 28.42 50.82 28.36 51.57 28.85 51.72 28.48 51.87 28.11 52.02 27.73 52.17 27.36 52.47 27.49 52.77 28.73 53.38 29.16 53.53 28.98 53.68 29.16 53.83 29.04 53.98 32.52 54.13 33.46 54.28 33.02 56.08 29.29 56.39 29.23 56.54 28.48 56.84 28.05 57.44 27.55 57.74 27.42 58.04 27.3 58.64 26.93 58.94 34.58 59.09 32.03 59.39 30.78 59.55 30.91 59.7 31.03 59.85 32.4 60 31.96 60.15 31.34 60.45 31.09 60.6 30.97 60.9 33.46 61.2 33.27 61.35 32.34 61.5 32.34 61.8 31.53 61.95 31.34 62.7 30.78 63.31 30.16 63.46 30.16 64.66 29.04 64.81 29.1 64.96 28.85 65.41 29.04 65.56 29.04 65.71 28.79 66.01 28.67 66.32 29.04 66.62 29.1 67.97 29.1"/>
      </g>
    </g>
  </g>
</g>
  <g class="guide ylabels" font-size="2.82" font-family="'PT Sans Caption','Helvetica Neue','Helvetica',sans-serif" fill="#6C606B" id="img-fd61d93b-19">
    <text x="18.63" y="45.71" text-anchor="end" dy="0.35em">0</text>
    <text x="18.63" y="39.49" text-anchor="end" dy="0.35em">100</text>
    <text x="18.63" y="33.27" text-anchor="end" dy="0.35em">200</text>
    <text x="18.63" y="27.05" text-anchor="end" dy="0.35em">300</text>
    <text x="18.63" y="20.83" text-anchor="end" dy="0.35em">400</text>
    <text x="18.63" y="14.61" text-anchor="end" dy="0.35em">500</text>
  </g>
  <g font-size="3.88" font-family="'PT Sans','Helvetica Neue','Helvetica',sans-serif" fill="#564A55" stroke="#000000" stroke-opacity="0.000" id="img-fd61d93b-20">
    <text x="8.81" y="28.16" text-anchor="middle" dy="0.35em" transform="rotate(-90, 8.81, 30.16)">Number of Packages</text>
  </g>
  <g font-size="3.88" font-family="'PT Sans','Helvetica Neue','Helvetica',sans-serif" fill="#564A55" stroke="#000000" stroke-opacity="0.000" id="img-fd61d93b-21">
    <text x="58.12" y="10.61" text-anchor="middle">Julia v0.4</text>
  </g>
</g>
<defs>
  <clipPath id="img-fd61d93b-4">
  <path d="M19.63,12.61 L 96.6 12.61 96.6 47.71 19.63 47.71" />
</clipPath>
</defs>
</svg>
