<?xml version="1.0" encoding="UTF-8"?>
<svg xmlns="http://www.w3.org/2000/svg"
     xmlns:xlink="http://www.w3.org/1999/xlink"
     xmlns:gadfly="http://www.gadflyjl.org/ns"
     version="1.2"
     width="101.6mm" height="76.2mm" viewBox="0 0 101.6 76.2"
     stroke="none"
     fill="#000000"
     stroke-width="0.3"
     font-size="3.88"
>
<g class="plotroot xscalable yscalable" id="fig-77fbec4268674ad89775ba5eaa85c269-element-1">
  <g font-size="3.88" font-family="'PT Sans','Helvetica Neue','Helvetica',sans-serif" fill="#564A55" stroke="#000000" stroke-opacity="0.000" id="fig-77fbec4268674ad89775ba5eaa85c269-element-2">
    <text x="58.12" y="64.59" text-anchor="middle" dy="0.6em">Date</text>
  </g>
  <g class="guide xlabels" font-size="2.82" font-family="'PT Sans Caption','Helvetica Neue','Helvetica',sans-serif" fill="#6C606B" id="fig-77fbec4268674ad89775ba5eaa85c269-element-3">
    <text x="24.77" y="57.91" text-anchor="middle" dy="0.6em">Sep</text>
    <text x="29.72" y="57.91" text-anchor="middle" dy="0.6em">Oct</text>
    <text x="34.84" y="57.91" text-anchor="middle" dy="0.6em">Nov</text>
    <text x="39.79" y="57.91" text-anchor="middle" dy="0.6em">Dec</text>
    <text x="44.91" y="57.91" text-anchor="middle" dy="0.6em">Jan 2015</text>
    <text x="50.03" y="57.91" text-anchor="middle" dy="0.6em">Feb</text>
    <text x="54.65" y="57.91" text-anchor="middle" dy="0.6em">Mar</text>
    <text x="59.77" y="57.91" text-anchor="middle" dy="0.6em">Apr</text>
    <text x="64.72" y="57.91" text-anchor="middle" dy="0.6em">May</text>
    <text x="69.84" y="57.91" text-anchor="middle" dy="0.6em">Jun</text>
    <text x="74.79" y="57.91" text-anchor="middle" dy="0.6em">Jul</text>
    <text x="79.91" y="57.91" text-anchor="middle" dy="0.6em">Aug</text>
    <text x="85.02" y="57.91" text-anchor="middle" dy="0.6em">Sep</text>
    <text x="89.98" y="57.91" text-anchor="middle" dy="0.6em">Oct</text>
  </g>
  <g clip-path="url(#fig-77fbec4268674ad89775ba5eaa85c269-element-5)" id="fig-77fbec4268674ad89775ba5eaa85c269-element-4">
    <g pointer-events="visible" opacity="1" fill="#000000" fill-opacity="0.000" stroke="#000000" stroke-opacity="0.000" class="guide background" id="fig-77fbec4268674ad89775ba5eaa85c269-element-6">
      <rect x="19.63" y="12.61" width="76.97" height="44.3"/>
    </g>
    <g class="guide ygridlines xfixed" stroke-dasharray="0.5,0.5" stroke-width="0.2" stroke="#D0D0E0" id="fig-77fbec4268674ad89775ba5eaa85c269-element-7">
      <path fill="none" d="M19.63,54.91 L 96.6 54.91"/>
      <path fill="none" d="M19.63,46.85 L 96.6 46.85"/>
      <path fill="none" d="M19.63,38.79 L 96.6 38.79"/>
      <path fill="none" d="M19.63,30.73 L 96.6 30.73"/>
      <path fill="none" d="M19.63,22.67 L 96.6 22.67"/>
      <path fill="none" d="M19.63,14.61 L 96.6 14.61"/>
    </g>
    <g class="guide xgridlines yfixed" stroke-dasharray="0.5,0.5" stroke-width="0.2" stroke="#D0D0E0" id="fig-77fbec4268674ad89775ba5eaa85c269-element-8">
      <path fill="none" d="M24.77,12.61 L 24.77 56.91"/>
      <path fill="none" d="M29.72,12.61 L 29.72 56.91"/>
      <path fill="none" d="M34.84,12.61 L 34.84 56.91"/>
      <path fill="none" d="M39.79,12.61 L 39.79 56.91"/>
      <path fill="none" d="M44.91,12.61 L 44.91 56.91"/>
      <path fill="none" d="M50.03,12.61 L 50.03 56.91"/>
      <path fill="none" d="M54.65,12.61 L 54.65 56.91"/>
      <path fill="none" d="M59.77,12.61 L 59.77 56.91"/>
      <path fill="none" d="M64.72,12.61 L 64.72 56.91"/>
      <path fill="none" d="M69.84,12.61 L 69.84 56.91"/>
      <path fill="none" d="M74.79,12.61 L 74.79 56.91"/>
      <path fill="none" d="M79.91,12.61 L 79.91 56.91"/>
      <path fill="none" d="M85.02,12.61 L 85.02 56.91"/>
      <path fill="none" d="M89.98,12.61 L 89.98 56.91"/>
    </g>
    <g class="plotpanel" id="fig-77fbec4268674ad89775ba5eaa85c269-element-9">
      <g stroke-width="0.3" fill="#000000" fill-opacity="0.000" class="geometry color_newnot_possible" stroke-dasharray="none" stroke="#808080" id="fig-77fbec4268674ad89775ba5eaa85c269-element-10">
        <path fill="none" d="M72.97,50.56 L 73.14 50.56 73.3 50.56 73.47 50.56 73.63 50.56 73.8 50.56 73.96 50.56 74.13 50.56 74.62 50.56 74.95 50.56 75.28 50.56 75.45 50.56 75.62 50.56 75.78 50.56 75.95 50.56 76.11 50.56 78.92 50.48 80.24 50.48 81.72 50.48 84.53 50.48 85.02 50.48 85.85 50.48 86.68 50 89.32 50 89.98 50 90.8 49.92 91.46 49.84 92.12 49.84 92.62 49.76 94.6 49.76"/>
      </g>
      <g stroke-width="0.3" fill="#000000" fill-opacity="0.000" class="geometry color_newno_tests" stroke-dasharray="none" stroke="#0000FF" id="fig-77fbec4268674ad89775ba5eaa85c269-element-11">
        <path fill="none" d="M72.97,46.21 L 73.14 46.21 73.3 46.21 73.47 46.21 73.63 46.21 73.8 46.21 73.96 46.21 74.13 46.21 74.62 46.21 74.95 46.21 75.28 46.21 75.45 46.21 75.62 46.29 75.78 46.29 75.95 46.29 76.11 46.37 78.92 46.29 80.24 46.29 81.72 46.29 84.53 46.29 85.02 46.37 85.85 46.37 86.68 46.45 89.32 46.77 89.98 47.02 90.8 47.18 91.46 48.55 92.12 48.63 92.62 48.79 94.6 48.87"/>
      </g>
      <g stroke-width="0.3" fill="#000000" fill-opacity="0.000" class="geometry color_newtests_fail" stroke-dasharray="none" stroke="#FF0000" id="fig-77fbec4268674ad89775ba5eaa85c269-element-12">
        <path fill="none" d="M72.97,38.47 L 73.14 39.04 73.3 38.87 73.47 37.26 73.63 37.18 73.8 37.42 73.96 37.42 74.13 38.71 74.62 37.99 74.95 37.99 75.28 38.87 75.45 39.04 75.62 37.18 75.78 38.79 75.95 37.58 76.11 38.15 78.92 38.79 80.24 38.31 81.72 39.04 84.53 38.71 85.02 39.12 85.85 39.52 86.68 40.65 89.32 40.41 89.98 40.89 90.8 41.13 91.46 41.94 92.12 42.26 92.62 42.82 94.6 42.5"/>
      </g>
      <g stroke-width="0.3" fill="#000000" fill-opacity="0.000" class="geometry color_newtests_pass" stroke-dasharray="none" stroke="#008000" id="fig-77fbec4268674ad89775ba5eaa85c269-element-13">
        <path fill="none" d="M72.97,35.01 L 73.14 34.44 73.3 34.44 73.47 36.05 73.63 35.89 73.8 35.65 73.96 35.65 74.13 34.28 74.62 34.92 74.95 34.76 75.28 33.88 75.45 33.55 75.62 35.01 75.78 33.23 75.95 34.36 76.11 33.72 78.92 32.02 80.24 32.02 81.72 30.89 84.53 29.2 85.02 28.56 85.85 27.83 86.68 26.54 89.32 24.93 89.98 23.72 90.8 22.67 91.46 22.59 92.12 21.79 92.62 20.9 94.6 19.37"/>
      </g>
      <g stroke-width="0.3" fill="#000000" fill-opacity="0.000" class="geometry color_newnot_possible" stroke-dasharray="none" stroke="#808080" id="fig-77fbec4268674ad89775ba5eaa85c269-element-14">
        <path fill="none" d="M21.63,51.85 L 21.8 51.77 21.96 51.69 22.13 51.69 22.29 51.69 22.46 51.69 22.79 51.69 22.95 51.69 23.12 51.69 23.28 51.69 23.45 51.69 23.61 51.69 23.78 51.69 23.94 51.69 24.27 51.69 24.44 51.61 24.77 51.61 24.93 51.61 25.1 51.53 25.76 51.53 26.25 51.53 26.42 51.53 26.58 51.53 26.75 51.53 26.91 51.53 27.08 51.53 27.24 51.53 27.41 51.53 27.57 51.53 27.9 51.45 28.07 51.45 28.24 51.45 28.4 51.45 28.57 51.45 28.73 51.45 28.9 51.37 29.23 51.37 29.39 51.37 29.56 51.37 29.72 51.37 29.89 51.29 30.05 51.29 30.22 51.29 30.38 51.29 30.88 51.29 31.04 51.21 31.21 51.21 31.37 51.21 31.54 51.21 31.7 51.21 31.87 51.21 32.03 51.21 32.2 51.21 32.36 51.21 32.53 51.13 32.69 51.13 32.86 51.13 33.02 51.13 33.19 51.13 33.35 51.13 33.52 51.13 33.68 51.13 33.85 51.13 34.01 51.13 34.18 51.13 34.34 51.13 34.51 51.13 34.67 51.13 34.84 51.13 35 51.13 35.17 51.13 35.33 51.13 35.5 51.13 35.66 51.13 36.16 51.13 36.98 51.13 37.15 51.13 37.31 51.13 37.48 51.13 37.65 51.13 37.81 51.13 37.98 51.13 38.64 51.13 38.8 51.13 39.63 51.13 39.96 51.13 40.12 51.21 40.29 51.21 40.45 51.21 40.62 51.21 40.78 51.21 40.95 51.21 41.44 51.21 41.61 51.21 41.94 51.21 42.1 51.21 42.27 51.21 42.76 51.21 43.09 51.21 43.59 51.21 44.25 51.21 44.58 51.21 45.07 51.21 46.23 51.21 46.89 51.21 47.06 51.05 47.22 51.05 47.39 50.97 47.55 50.97 47.72 50.97 48.05 50.97 48.21 50.97 48.38 50.97 48.54 50.88 48.71 50.88 48.87 50.88 49.04 50.88 49.37 50.8 49.53 50.8 49.7 50.8 50.36 50.8 50.52 50.8 50.69 50.8 51.02 50.8 51.35 50.8 51.51 50.8 52.01 50.8 52.83 50.8 53.66 50.8 54.48 50.8 54.65 50.8 54.81 50.8 54.98 50.24 55.14 50.32 55.47 50.24 55.8 50.24 56.46 50.24 56.63 50.24 56.8 50.24 56.96 50.24 57.13 50.24 57.29 50.32 57.46 50.24 59.44 50.16 59.77 50.08 59.93 50.08 60.26 50.08 60.92 50.08 61.25 50.08 61.58 50.08 62.24 50.08 62.57 50.08 62.74 50.08 63.07 50.08 63.23 50.08 63.4 50.08 63.56 50.08 63.73 50.08 63.89 50.08 64.22 50.08 64.39 50.08 64.72 50.08 65.05 50.08 65.21 50.08 65.38 50.08 65.71 50.08 65.87 50.08 66.7 50.08 67.36 50.16 67.53 50.08 68.85 50.08 69.01 49.92 69.18 49.92 69.67 49.92 69.84 49.92 70 50 70.33 50 70.66 50 70.99 50 72.48 50"/>
      </g>
      <g stroke-width="0.3" fill="#000000" fill-opacity="0.000" class="geometry color_newtests_fail" stroke-dasharray="none" stroke="#FF0000" id="fig-77fbec4268674ad89775ba5eaa85c269-element-15">
        <path fill="none" d="M21.63,53.14 L 21.8 53.06 21.96 53.3 22.13 51.53 22.29 51.53 22.46 51.53 22.79 53.22 22.95 53.3 23.12 53.22 23.28 53.38 23.45 53.46 23.61 53.38 23.78 53.38 23.94 53.46 24.27 52.9 24.44 52.74 24.77 52.66 24.93 52.66 25.1 52.74 25.76 52.74 26.25 52.9 26.42 52.9 26.58 52.9 26.75 52.98 26.91 53.06 27.08 53.3 27.24 53.3 27.41 53.3 27.57 53.3 27.9 53.14 28.07 53.06 28.24 53.14 28.4 53.14 28.57 53.22 28.73 53.06 28.9 52.9 29.23 53.46 29.39 50.97 29.56 50.88 29.72 52.42 29.89 52.42 30.05 52.5 30.22 52.5 30.38 52.5 30.88 50.97 31.04 52.17 31.21 52.42 31.37 52.5 31.54 52.58 31.7 52.42 31.87 52.58 32.03 52.58 32.2 52.42 32.36 52.34 32.53 52.09 32.69 52.25 32.86 52.5 33.02 52.5 33.19 52.5 33.35 46.13 33.52 46.13 33.68 46.13 33.85 47.02 34.01 47.02 34.18 52.25 34.34 52.34 34.51 52.42 34.67 52.42 34.84 52.42 35 52.42 35.17 52.42 35.33 52.42 35.5 52.5 35.66 52.42 36.16 52.66 36.98 52.58 37.15 52.58 37.31 52.58 37.48 52.58 37.65 52.58 37.81 52.5 37.98 52.5 38.64 52.5 38.8 52.42 39.63 52.58 39.96 52.66 40.12 52.17 40.29 52.58 40.45 52.5 40.62 52.58 40.78 52.58 40.95 52.58 41.44 52.82 41.61 52.82 41.94 51.93 42.1 51.93 42.27 51.93 42.76 51.93 43.09 51.93 43.59 52.9 44.25 52.9 44.58 52.82 45.07 52.9 46.23 52.74 46.89 52.58 47.06 52.74 47.22 52.74 47.39 52.5 47.55 52.01 47.72 52.01 48.05 52.01 48.21 52.01 48.38 52.01 48.54 52.01 48.71 52.01 48.87 52.01 49.04 52.01 49.37 52.01 49.53 51.93 49.7 51.93 50.36 51.53 50.52 51.53 50.69 51.53 51.02 51.45 51.35 46.21 51.51 51.45 52.01 51.21 52.83 51.21 53.66 51.13 54.48 49.11 54.65 49.84 54.81 50.48 54.98 51.37 55.14 51.61 55.47 51.61 55.8 51.13 56.46 51.21 56.63 51.21 56.8 51.13 56.96 51.13 57.13 42.82 57.29 40.65 57.46 41.86 59.44 49.35 59.77 49.59 59.93 51.05 60.26 51.13 60.92 51.13 61.25 51.13 61.58 51.21 62.24 51.13 62.57 38.07 62.74 41.94 63.07 44.52 63.23 44.52 63.4 44.52 63.56 44.11 63.73 44.19 63.89 44.6 64.22 44.76 64.39 44.6 64.72 39.2 65.05 39.44 65.21 40.97 65.38 40.97 65.71 41.61 65.87 42.5 66.7 42.82 67.36 43.23 67.53 43.15 68.85 44.19 69.01 44.27 69.18 44.36 69.67 44.19 69.84 44.19 70 44.19 70.33 44.44 70.66 44.27 70.99 44.36 72.48 44.03"/>
      </g>
      <g stroke-width="0.3" fill="#000000" fill-opacity="0.000" class="geometry color_newno_tests" stroke-dasharray="none" stroke="#0000FF" id="fig-77fbec4268674ad89775ba5eaa85c269-element-16">
        <path fill="none" d="M21.63,51.05 L 21.8 50.97 21.96 50.97 22.13 51.45 22.29 51.45 22.46 51.45 22.79 51.05 22.95 51.05 23.12 51.13 23.28 51.13 23.45 51.13 23.61 51.13 23.78 51.13 23.94 51.21 24.27 51.45 24.44 51.53 24.77 51.53 24.93 51.53 25.1 51.53 25.76 51.53 26.25 51.45 26.42 51.45 26.58 51.37 26.75 51.37 26.91 51.37 27.08 51.37 27.24 51.37 27.41 51.45 27.57 51.45 27.9 51.37 28.07 51.45 28.24 51.37 28.4 51.37 28.57 51.37 28.73 51.37 28.9 51.53 29.23 51.37 29.39 51.61 29.56 51.61 29.72 51.37 29.89 51.37 30.05 51.37 30.22 51.37 30.38 51.37 30.88 51.69 31.04 51.45 31.21 51.37 31.37 51.37 31.54 51.37 31.7 51.37 31.87 51.37 32.03 51.37 32.2 51.37 32.36 51.37 32.53 51.37 32.69 51.37 32.86 51.37 33.02 51.37 33.19 51.37 33.35 51.85 33.52 51.85 33.68 51.85 33.85 51.69 34.01 51.69 34.18 51.37 34.34 51.37 34.51 51.37 34.67 51.37 34.84 51.37 35 51.37 35.17 51.37 35.33 51.37 35.5 51.37 35.66 51.37 36.16 51.37 36.98 51.37 37.15 51.37 37.31 51.37 37.48 51.37 37.65 51.37 37.81 51.37 37.98 51.37 38.64 51.37 38.8 51.37 39.63 51.37 39.96 51.37 40.12 51.37 40.29 51.37 40.45 51.45 40.62 51.37 40.78 51.37 40.95 51.37 41.44 51.37 41.61 51.37 41.94 51.37 42.1 51.37 42.27 51.37 42.76 51.37 43.09 51.37 43.59 51.29 44.25 51.37 44.58 51.29 45.07 51.29 46.23 51.29 46.89 51.29 47.06 51.29 47.22 51.29 47.39 51.29 47.55 51.29 47.72 51.29 48.05 51.29 48.21 51.29 48.38 51.29 48.54 51.29 48.71 51.29 48.87 51.29 49.04 51.29 49.37 51.29 49.53 51.29 49.7 51.29 50.36 51.37 50.52 51.37 50.69 51.37 51.02 51.37 51.35 51.53 51.51 51.29 52.01 51.29 52.83 51.29 53.66 51.29 54.48 51.53 54.65 51.45 54.81 51.45 54.98 51.45 55.14 51.37 55.47 51.37 55.8 51.45 56.46 51.45 56.63 51.45 56.8 51.53 56.96 51.53 57.13 52.42 57.29 52.5 57.46 52.5 59.44 51.53 59.77 51.53 59.93 51.53 60.26 51.53 60.92 51.53 61.25 51.53 61.58 51.53 62.24 51.61 62.57 52.25 62.74 52.09 63.07 52.01 63.23 51.93 63.4 52.01 63.56 52.01 63.73 52.01 63.89 52.01 64.22 52.01 64.39 52.09 64.72 52.34 65.05 52.17 65.21 52.09 65.38 52.09 65.71 52.09 65.87 52.01 66.7 52.01 67.36 51.93 67.53 51.93 68.85 51.85 69.01 51.85 69.18 51.85 69.67 51.85 69.84 51.85 70 51.85 70.33 51.85 70.66 51.85 70.99 51.85 72.48 51.85"/>
      </g>
      <g stroke-width="0.3" fill="#000000" fill-opacity="0.000" class="geometry color_oldfull_fail" stroke-dasharray="none" stroke="#FFA500" id="fig-77fbec4268674ad89775ba5eaa85c269-element-17">
        <path fill="none" d="M21.63,52.34 L 21.8 52.34 21.96 51.61 22.13 51.53 22.29 51.45 22.46 51.45 22.79 51.45 22.95 51.53 23.12 51.69 23.28 51.45 23.45 51.37 23.61 51.53 23.78 51.61 23.94 51.37 24.27 51.05 24.44 51.53 24.77 51.45 24.93 51.45 25.1 51.45 25.76 51.45 26.25 51.21 26.42 51.29 26.58 51.37 26.75 51.21 26.91 51.29 27.08 51.45 27.24 51.13 27.41 50.97 27.57 50.97 27.9 51.29 28.07 51.21 28.24 51.21 28.4 51.37 28.57 51.29 28.73 50.97 28.9 51.05 29.23 51.45 29.39 50.56 29.56 50.32 29.72 50.72 29.89 50.8 30.05 50.8 30.22 50.8 30.38 50.72 30.88 49.19 31.04 50.08 31.21 50.97 31.37 50.88 31.54 50.64 31.7 50.88 31.87 50.97 32.03 50.97 32.2 50.8 32.36 50.72 32.53 51.05 32.69 51.05 32.86 50.97 33.02 50.88 33.19 50.88 33.35 51.77 33.52 51.69 33.68 51.69 33.85 51.61 34.01 51.45 34.18 49.35 34.34 49.92 34.51 50.24 34.67 49.84 34.84 49.84 35 49.76 35.17 49.76 35.33 49.76 35.5 49.92 35.66 50.16 36.16 50.16 36.98 50 37.15 49.84 37.31 49.84 37.48 49.92 37.65 50 37.81 50.08 37.98 49.92 38.64 49.19 38.8 49.27 39.63 48.79 39.96 49.03 40.12 49.19 40.29 49.27 40.45 49.27 40.62 49.43 40.78 49.35 40.95 49.27 41.44 48.79 41.61 48.87 41.94 48.79 42.1 48.47 42.27 48.71 42.76 48.87 43.09 49.03 43.59 48.79 44.25 48.87 44.58 49.27 45.07 48.95 46.23 48.63 46.89 48.87 47.06 48.87 47.22 48.87 47.39 48.63 47.55 48.39 47.72 48.47 48.05 48.63 48.21 48.55 48.38 48.55 48.54 48.22 48.71 48.31 48.87 48.22 49.04 48.22 49.37 48.31 49.53 48.14 49.7 47.9 50.36 47.66 50.52 47.5 50.69 47.66 51.02 47.74 51.35 49.51 51.51 46.93 52.01 46.53 52.83 46.53 53.66 46.61 54.48 47.02 54.65 46.85 54.81 46.69 54.98 46.69 55.14 46.93 55.47 46.69 55.8 45.48 56.46 44.76 56.63 44.84 56.8 44.6 56.96 44.76 57.13 47.5 57.29 48.39 57.46 47.66 59.44 45.73 59.77 45.65 59.93 44.92 60.26 45.4 60.92 45.97 61.25 46.05 61.58 45.89 62.24 46.21 62.57 48.55 62.74 47.9 63.07 46.61 63.23 46.53 63.4 46.21 63.56 44.68 63.73 45.16 63.89 45.48 64.22 45.56 64.39 45.65 64.72 47.58 65.05 47.58 65.21 47.1 65.38 47.02 65.71 47.26 65.87 46.61 66.7 46.69 67.36 46.93 67.53 46.93 68.85 47.18 69.01 47.18 69.18 47.42 69.67 47.02 69.84 46.93 70 47.02 70.33 46.77 70.66 46.45 70.99 46.13 72.48 45.89"/>
      </g>
      <g stroke-width="0.3" fill="#000000" fill-opacity="0.000" class="geometry color_newtests_pass" stroke-dasharray="none" stroke="#008000" id="fig-77fbec4268674ad89775ba5eaa85c269-element-18">
        <path fill="none" d="M21.63,36.86 L 21.8 36.86 21.96 37.34 22.13 38.63 22.29 38.71 22.46 38.71 22.79 37.18 22.95 37.02 23.12 36.78 23.28 36.86 23.45 36.86 23.61 36.54 23.78 36.29 23.94 36.38 24.27 36.86 24.44 36.29 24.77 36.29 24.93 36.29 25.1 36.29 25.76 36.29 26.25 35.97 26.42 35.81 26.58 35.73 26.75 35.65 26.91 35.49 27.08 35.09 27.24 34.76 27.41 34.84 27.57 34.84 27.9 34.76 28.07 34.84 28.24 34.76 28.4 34.6 28.57 34.6 28.73 35.01 28.9 35.01 29.23 34.28 29.39 37.34 29.56 37.67 29.72 35.81 29.89 35.65 30.05 35.57 30.22 35.57 30.38 35.49 30.88 38.07 31.04 36.29 31.21 35.09 31.37 35.01 31.54 35.17 31.7 35.09 31.87 34.68 32.03 34.68 32.2 34.92 32.36 35.01 32.53 35.01 32.69 34.84 32.86 34.68 33.02 34.6 33.19 34.44 33.35 39.44 33.52 39.52 33.68 39.44 33.85 38.79 34.01 38.87 34.18 36.05 34.34 35.25 34.51 34.76 34.67 35.17 34.84 35.09 35 35.17 35.17 35.17 35.33 35.17 35.5 34.84 35.66 34.6 36.16 34.36 36.98 34.12 37.15 34.12 37.31 34.12 37.48 33.96 37.65 33.88 37.81 33.63 37.98 33.8 38.64 34.12 38.8 34.12 39.63 34.36 39.96 34.04 40.12 34.12 40.29 33.55 40.45 33.55 40.62 33.39 40.78 33.31 40.95 33.23 41.44 33.39 41.61 33.23 41.94 33.88 42.1 34.2 42.27 33.96 42.76 33.8 43.09 33.47 43.59 32.67 44.25 32.35 44.58 31.78 45.07 31.86 46.23 31.78 46.89 31.14 47.06 30.97 47.22 30.97 47.39 31.06 47.55 31.78 47.72 31.7 48.05 31.46 48.21 31.46 48.38 31.46 48.54 31.62 48.71 31.46 48.87 31.54 49.04 31.54 49.37 31.3 49.53 31.3 49.7 31.46 50.36 31.38 50.52 31.54 50.69 31.62 51.02 31.38 51.35 34.44 51.51 32.02 52.01 32.51 52.83 32.51 53.66 32.43 54.48 33.07 54.65 32.59 54.81 32.1 54.98 31.62 55.14 31.14 55.47 31.3 55.8 32.91 56.46 33.47 56.63 33.23 56.8 33.47 56.96 33.31 57.13 37.83 57.29 39.04 57.46 38.47 59.44 33.63 59.77 33.55 59.93 32.59 60.26 32.02 60.92 31.38 61.25 31.22 61.58 31.06 62.24 30.57 62.57 40.49 62.74 37.18 63.07 35.57 63.23 35.73 63.4 35.89 63.56 37.67 63.73 37.1 63.89 36.29 64.22 35.97 64.39 35.81 64.72 39.04 65.05 38.79 65.21 37.58 65.38 37.58 65.71 36.54 65.87 36.29 66.7 35.57 67.36 34.76 67.53 34.76 68.85 33.31 69.01 33.39 69.18 33.07 69.67 33.31 69.84 33.31 70 32.99 70.33 32.83 70.66 33.31 70.99 33.39 72.48 33.39"/>
      </g>
    </g>
  </g>
  <g class="guide ylabels" font-size="2.82" font-family="'PT Sans Caption','Helvetica Neue','Helvetica',sans-serif" fill="#6C606B" id="fig-77fbec4268674ad89775ba5eaa85c269-element-19">
    <text x="18.63" y="54.91" text-anchor="end" dy="0.35em">0</text>
    <text x="18.63" y="46.85" text-anchor="end" dy="0.35em">100</text>
    <text x="18.63" y="38.79" text-anchor="end" dy="0.35em">200</text>
    <text x="18.63" y="30.73" text-anchor="end" dy="0.35em">300</text>
    <text x="18.63" y="22.67" text-anchor="end" dy="0.35em">400</text>
    <text x="18.63" y="14.61" text-anchor="end" dy="0.35em">500</text>
  </g>
  <g font-size="3.88" font-family="'PT Sans','Helvetica Neue','Helvetica',sans-serif" fill="#564A55" stroke="#000000" stroke-opacity="0.000" id="fig-77fbec4268674ad89775ba5eaa85c269-element-20">
    <text x="8.81" y="32.76" text-anchor="middle" dy="0.35em" transform="rotate(-90, 8.81, 34.76)">Number of Packages</text>
  </g>
  <g font-size="3.88" font-family="'PT Sans','Helvetica Neue','Helvetica',sans-serif" fill="#564A55" stroke="#000000" stroke-opacity="0.000" id="fig-77fbec4268674ad89775ba5eaa85c269-element-21">
    <text x="58.12" y="10.61" text-anchor="middle">Julia v0.4</text>
  </g>
</g>
<defs>
<clipPath id="fig-77fbec4268674ad89775ba5eaa85c269-element-5">
  <path d="M19.63,12.61 L 96.6 12.61 96.6 56.91 19.63 56.91" />
</clipPath
></defs>
</svg>
