<?xml version="1.0" encoding="UTF-8"?>
<svg xmlns="http://www.w3.org/2000/svg"
     xmlns:xlink="http://www.w3.org/1999/xlink"
     xmlns:gadfly="http://www.gadflyjl.org/ns"
     version="1.2"
     width="101.6mm" height="76.2mm" viewBox="0 0 101.6 76.2"
     stroke="none"
     fill="#000000"
     stroke-width="0.3"
     font-size="3.88"
>
<g class="plotroot xscalable yscalable" id="img-7875e618-1">
  <g font-size="3.88" font-family="'PT Sans','Helvetica Neue','Helvetica',sans-serif" fill="#564A55" stroke="#000000" stroke-opacity="0.000" id="img-7875e618-2">
    <text x="58.12" y="64.59" text-anchor="middle" dy="0.6em">Date</text>
  </g>
  <g class="guide xlabels" font-size="2.82" font-family="'PT Sans Caption','Helvetica Neue','Helvetica',sans-serif" fill="#6C606B" id="img-7875e618-3">
    <text x="24.59" y="57.91" text-anchor="middle" dy="0.6em">Sep</text>
    <text x="29.26" y="57.91" text-anchor="middle" dy="0.6em">Oct</text>
    <text x="34.08" y="57.91" text-anchor="middle" dy="0.6em">Nov</text>
    <text x="38.75" y="57.91" text-anchor="middle" dy="0.6em">Dec</text>
    <text x="43.57" y="57.91" text-anchor="middle" dy="0.6em">Jan 2015</text>
    <text x="48.39" y="57.91" text-anchor="middle" dy="0.6em">Feb</text>
    <text x="52.75" y="57.91" text-anchor="middle" dy="0.6em">Mar</text>
    <text x="57.57" y="57.91" text-anchor="middle" dy="0.6em">Apr</text>
    <text x="62.24" y="57.91" text-anchor="middle" dy="0.6em">May</text>
    <text x="67.06" y="57.91" text-anchor="middle" dy="0.6em">Jun</text>
    <text x="71.73" y="57.91" text-anchor="middle" dy="0.6em">Jul</text>
    <text x="76.55" y="57.91" text-anchor="middle" dy="0.6em">Aug</text>
    <text x="81.38" y="57.91" text-anchor="middle" dy="0.6em">Sep</text>
    <text x="86.04" y="57.91" text-anchor="middle" dy="0.6em">Oct</text>
    <text x="90.87" y="57.91" text-anchor="middle" dy="0.6em">Nov</text>
  </g>
<g clip-path="url(#img-7875e618-4)">
  <g id="img-7875e618-5">
    <g pointer-events="visible" opacity="1" fill="#000000" fill-opacity="0.000" stroke="#000000" stroke-opacity="0.000" class="guide background" id="img-7875e618-6">
      <rect x="19.63" y="12.61" width="76.97" height="44.3"/>
    </g>
    <g class="guide ygridlines xfixed" stroke-dasharray="0.5,0.5" stroke-width="0.2" stroke="#D0D0E0" id="img-7875e618-7">
      <path fill="none" d="M19.63,54.91 L 96.6 54.91"/>
      <path fill="none" d="M19.63,34.76 L 96.6 34.76"/>
      <path fill="none" d="M19.63,14.61 L 96.6 14.61"/>
    </g>
    <g class="guide xgridlines yfixed" stroke-dasharray="0.5,0.5" stroke-width="0.2" stroke="#D0D0E0" id="img-7875e618-8">
      <path fill="none" d="M24.59,12.61 L 24.59 56.91"/>
      <path fill="none" d="M29.26,12.61 L 29.26 56.91"/>
      <path fill="none" d="M34.08,12.61 L 34.08 56.91"/>
      <path fill="none" d="M38.75,12.61 L 38.75 56.91"/>
      <path fill="none" d="M43.57,12.61 L 43.57 56.91"/>
      <path fill="none" d="M48.39,12.61 L 48.39 56.91"/>
      <path fill="none" d="M52.75,12.61 L 52.75 56.91"/>
      <path fill="none" d="M57.57,12.61 L 57.57 56.91"/>
      <path fill="none" d="M62.24,12.61 L 62.24 56.91"/>
      <path fill="none" d="M67.06,12.61 L 67.06 56.91"/>
      <path fill="none" d="M71.73,12.61 L 71.73 56.91"/>
      <path fill="none" d="M76.55,12.61 L 76.55 56.91"/>
      <path fill="none" d="M81.38,12.61 L 81.38 56.91"/>
      <path fill="none" d="M86.04,12.61 L 86.04 56.91"/>
      <path fill="none" d="M90.87,12.61 L 90.87 56.91"/>
    </g>
    <g class="plotpanel" id="img-7875e618-9">
      <g stroke-width="0.3" fill="#000000" fill-opacity="0.000" class="geometry color_newnot_possible" stroke-dasharray="none" stroke="#808080" id="img-7875e618-10">
        <path fill="none" d="M70.02,51.36 L 70.17 51.36 70.33 51.38 70.48 51.38 70.64 51.39 70.8 51.39 70.95 51.39 71.11 51.4 71.57 51.4 71.88 51.42 72.2 51.42 72.35 51.43 72.51 51.45 72.66 51.46 72.82 51.47 72.97 51.47 75.62 51.48 76.86 51.52 78.26 51.54 80.91 51.66 81.38 51.67 82.15 51.69 82.93 51.38 85.42 51.47 86.04 51.5 86.82 51.49 87.44 51.31 88.07 51.33 88.53 51.29 90.4 51.4 92.27 51.4 92.89 51.4 93.2 51.37 94.6 51.39"/>
      </g>
      <g stroke-width="0.3" fill="#000000" fill-opacity="0.000" class="geometry color_newno_tests" stroke-dasharray="none" stroke="#0000FF" id="img-7875e618-11">
        <path fill="none" d="M70.02,47.81 L 70.17 47.81 70.33 47.84 70.48 47.84 70.64 47.87 70.8 47.87 70.95 47.87 71.11 47.88 71.57 47.89 71.88 47.92 72.2 47.92 72.35 47.94 72.51 48.05 72.66 48.07 72.82 48.08 72.97 48.14 75.62 48.24 76.86 48.3 78.26 48.35 80.91 48.59 81.38 48.67 82.15 48.71 82.93 48.83 85.42 49.21 86.04 49.43 86.82 49.61 87.44 50.39 88.07 50.48 88.53 50.61 90.4 50.8 92.27 50.91 92.89 50.92 93.2 50.94 94.6 50.96"/>
      </g>
      <g stroke-width="0.3" fill="#000000" fill-opacity="0.000" class="geometry color_newtests_fail" stroke-dasharray="none" stroke="#FF0000" id="img-7875e618-12">
        <path fill="none" d="M70.02,41.5 L 70.17 41.96 70.33 41.87 70.48 40.56 70.64 40.57 70.8 40.76 70.95 40.76 71.11 41.83 71.57 41.26 71.88 41.31 72.2 42.02 72.35 42.19 72.51 40.8 72.66 42.12 72.82 41.18 72.97 41.63 75.62 42.44 76.86 42.18 78.26 42.83 80.91 43.04 81.38 43.37 82.15 43.73 82.93 44.65 85.42 44.75 86.04 45.18 86.82 45.46 87.44 45.7 88.07 45.99 88.53 46.42 90.4 46.46 92.27 46.69 92.89 46.87 93.2 47.07 94.6 47.11"/>
      </g>
      <g stroke-width="0.3" fill="#000000" fill-opacity="0.000" class="geometry color_newtests_pass" stroke-dasharray="none" stroke="#008000" id="img-7875e618-13">
        <path fill="none" d="M70.02,38.68 L 70.17 38.22 70.33 38.27 70.48 39.58 70.64 39.52 70.8 39.33 70.95 39.33 71.11 38.25 71.57 38.79 71.88 38.72 72.2 38 72.35 37.8 72.51 39.06 72.66 37.71 72.82 38.63 72.97 38.12 75.62 37.2 76.86 37.36 78.26 36.63 80.91 36.06 81.38 35.65 82.15 35.23 82.93 34.5 85.42 33.92 86.04 33.25 86.82 32.8 87.44 31.96 88.07 31.55 88.53 31.03 90.4 30.7 92.27 30.35 92.89 30.17 93.2 29.98 94.6 29.9"/>
      </g>
      <g stroke-width="0.3" fill="#000000" fill-opacity="0.000" class="geometry color_newnot_possible" stroke-dasharray="none" stroke="#808080" id="img-7875e618-14">
        <path fill="none" d="M21.63,50.71 L 21.79 50.63 21.94 50.53 22.1 50.55 22.25 50.55 22.41 50.55 22.72 50.58 22.88 50.58 23.03 50.59 23.19 50.59 23.34 50.59 23.5 50.63 23.65 50.65 23.81 50.65 24.12 50.67 24.28 50.6 24.59 50.62 24.74 50.62 24.9 50.52 25.52 50.52 25.99 50.59 26.14 50.6 26.3 50.61 26.45 50.63 26.61 50.63 26.77 50.63 26.92 50.71 27.08 50.71 27.23 50.71 27.54 50.63 27.7 50.63 27.85 50.64 28.01 50.64 28.17 50.64 28.32 50.65 28.48 50.55 28.79 50.54 28.94 50.55 29.1 50.55 29.26 50.57 29.41 50.49 29.57 50.49 29.72 50.49 29.88 50.51 30.34 50.53 30.5 50.44 30.66 50.46 30.81 50.47 30.97 50.47 31.12 50.47 31.28 50.49 31.43 50.49 31.59 50.5 31.74 50.51 31.9 50.42 32.06 50.42 32.21 50.42 32.37 50.44 32.52 50.46 32.68 50.46 32.83 50.46 32.99 50.47 33.14 50.47 33.3 50.48 33.46 50.48 33.61 50.5 33.77 50.51 33.92 50.51 34.08 50.52 34.23 50.52 34.39 50.52 34.55 50.52 34.7 50.53 34.86 50.54 35.32 50.54 36.1 50.6 36.26 50.62 36.41 50.62 36.57 50.63 36.72 50.63 36.88 50.66 37.03 50.66 37.66 50.71 37.81 50.71 38.59 50.71 38.9 50.71 39.06 50.82 39.21 50.83 39.37 50.83 39.52 50.83 39.68 50.85 39.83 50.87 40.3 50.88 40.46 50.88 40.77 50.92 40.92 50.92 41.08 50.92 41.55 50.92 41.86 50.94 42.32 50.95 42.95 50.97 43.26 51 43.72 51.02 44.81 51.08 45.44 51.13 45.59 50.98 45.75 50.98 45.9 50.95 46.06 50.95 46.21 50.95 46.52 50.96 46.68 50.97 46.84 50.97 46.99 50.91 47.15 50.92 47.3 50.92 47.46 50.92 47.77 50.86 47.93 50.88 48.08 50.89 48.7 50.95 48.86 50.95 49.01 50.93 49.33 50.95 49.64 50.98 49.79 50.98 50.26 50.99 51.04 50.99 51.81 51 52.59 51.07 52.75 51.07 52.9 51.07 53.06 50.55 53.21 50.63 53.53 50.57 53.84 50.57 54.46 50.58 54.62 50.59 54.77 50.59 54.93 50.59 55.08 50.61 55.24 50.68 55.39 50.62 57.26 50.58 57.57 50.5 57.73 50.53 58.04 50.53 58.66 50.53 58.97 50.54 59.28 50.57 59.91 50.58 60.22 50.6 60.37 50.62 60.68 50.66 60.84 50.66 60.99 50.67 61.15 50.68 61.31 50.68 61.46 50.69 61.77 50.69 61.93 50.71 62.24 50.71 62.55 50.72 62.71 50.75 62.86 50.75 63.17 50.77 63.33 50.77 64.11 50.8 64.73 50.88 64.88 50.83 66.13 50.85 66.28 50.72 66.44 50.72 66.91 50.74 67.06 50.75 67.22 50.83 67.53 50.84 67.84 50.84 68.15 50.86 69.55 50.9"/>
      </g>
      <g stroke-width="0.3" fill="#000000" fill-opacity="0.000" class="geometry color_newtests_fail" stroke-dasharray="none" stroke="#FF0000" id="img-7875e618-15">
        <path fill="none" d="M21.63,52.48 L 21.79 52.39 21.94 52.72 22.1 50.33 22.25 50.33 22.41 50.33 22.72 52.64 22.88 52.75 23.03 52.65 23.19 52.86 23.34 52.97 23.5 52.88 23.65 52.89 23.81 53 24.12 52.26 24.28 52.07 24.59 51.98 24.74 51.98 24.9 52.09 25.52 52.09 25.99 52.34 26.14 52.34 26.3 52.35 26.45 52.47 26.61 52.57 26.77 52.87 26.92 52.91 27.08 52.91 27.23 52.91 27.54 52.72 27.7 52.62 27.85 52.73 28.01 52.73 28.17 52.83 28.32 52.63 28.48 52.43 28.79 53.12 28.94 50.05 29.1 49.95 29.26 51.85 29.41 51.87 29.57 51.97 29.72 51.97 29.88 51.98 30.34 50.14 30.5 51.61 30.66 51.91 30.81 52.02 30.97 52.11 31.12 51.92 31.28 52.13 31.43 52.13 31.59 51.94 31.74 51.85 31.9 51.56 32.06 51.76 32.21 52.04 32.37 52.06 32.52 52.07 32.68 44.58 32.83 44.58 32.99 44.6 33.14 45.64 33.3 45.67 33.46 51.8 33.61 51.91 33.77 52.01 33.92 52.01 34.08 52.02 34.23 52.02 34.39 52.02 34.55 52.02 34.7 52.12 34.86 52.03 35.32 52.31 36.1 52.25 36.26 52.26 36.41 52.26 36.57 52.27 36.72 52.27 36.88 52.2 37.03 52.2 37.66 52.23 37.81 52.14 38.59 52.32 38.9 52.41 39.06 51.89 39.21 52.34 39.37 52.25 39.52 52.34 39.68 52.35 39.83 52.36 40.3 52.63 40.46 52.64 40.77 51.7 40.92 51.7 41.08 51.7 41.55 51.7 41.86 51.71 42.32 52.76 42.95 52.77 43.26 52.7 43.72 52.8 44.81 52.66 45.44 52.53 45.59 52.7 45.75 52.7 45.9 52.49 46.06 52 46.21 52 46.52 52.01 46.68 52.01 46.84 52.01 46.99 52.03 47.15 52.04 47.3 52.04 47.46 52.04 47.77 52.05 47.93 51.99 48.08 52 48.7 51.65 48.86 51.65 49.01 51.63 49.33 51.58 49.64 46.58 49.79 51.59 50.26 51.38 51.04 51.38 51.81 51.31 52.59 49.48 52.75 50.16 52.9 50.76 53.06 51.61 53.21 51.83 53.53 51.84 53.84 51.39 54.46 51.48 54.62 51.49 54.77 51.41 54.93 51.41 55.08 43.78 55.24 41.75 55.39 42.91 57.26 49.84 57.57 50.06 57.73 51.4 58.04 51.48 58.66 51.48 58.97 51.49 59.28 51.58 59.91 51.52 60.22 39.87 60.37 43.39 60.68 45.76 60.84 45.76 60.99 45.78 61.15 45.46 61.31 45.53 61.46 45.9 61.77 46.05 61.93 45.94 62.24 41.25 62.55 41.5 62.71 42.89 62.86 42.91 63.17 43.51 63.33 44.29 64.11 44.63 64.73 45.01 64.88 44.98 66.13 45.91 66.28 45.97 66.44 46.04 66.91 45.97 67.06 45.98 67.22 46.01 67.53 46.24 67.84 46.11 68.15 46.2 69.55 46.04"/>
      </g>
      <g stroke-width="0.3" fill="#000000" fill-opacity="0.000" class="geometry color_newno_tests" stroke-dasharray="none" stroke="#0000FF" id="img-7875e618-16">
        <path fill="none" d="M21.63,49.6 L 21.79 49.53 21.94 49.55 22.1 50.22 22.25 50.22 22.41 50.22 22.72 49.71 22.88 49.71 23.03 49.84 23.19 49.84 23.34 49.84 23.5 49.88 23.65 49.9 23.81 50.01 24.12 50.35 24.28 50.5 24.59 50.52 24.74 50.52 24.9 50.52 25.52 50.52 25.99 50.48 26.14 50.49 26.3 50.4 26.45 50.43 26.61 50.43 26.77 50.43 26.92 50.51 27.08 50.61 27.23 50.61 27.54 50.53 27.7 50.63 27.85 50.54 28.01 50.54 28.17 50.54 28.32 50.55 28.48 50.75 28.79 50.54 28.94 50.84 29.1 50.84 29.26 50.57 29.41 50.59 29.57 50.59 29.72 50.59 29.88 50.61 30.34 51.02 30.5 50.73 30.66 50.65 30.81 50.66 30.97 50.66 31.12 50.66 31.28 50.68 31.43 50.68 31.59 50.69 31.74 50.7 31.9 50.7 32.06 50.7 32.21 50.7 32.37 50.72 32.52 50.74 32.68 51.31 32.83 51.31 32.99 51.32 33.14 51.13 33.3 51.14 33.46 50.76 33.61 50.78 33.77 50.79 33.92 50.79 34.08 50.8 34.23 50.8 34.39 50.8 34.55 50.8 34.7 50.81 34.86 50.82 35.32 50.82 36.1 50.88 36.26 50.89 36.41 50.89 36.57 50.9 36.72 50.9 36.88 50.93 37.03 50.93 37.66 50.97 37.81 50.97 38.59 50.98 38.9 50.98 39.06 51 39.21 51.01 39.37 51.1 39.52 51.01 39.68 51.03 39.83 51.04 40.3 51.05 40.46 51.06 40.77 51.09 40.92 51.09 41.08 51.09 41.55 51.09 41.86 51.11 42.32 51.04 42.95 51.14 43.26 51.09 43.72 51.1 44.81 51.16 45.44 51.21 45.59 51.23 45.75 51.23 45.9 51.27 46.06 51.27 46.21 51.27 46.52 51.28 46.68 51.29 46.84 51.29 46.99 51.31 47.15 51.32 47.3 51.32 47.46 51.32 47.77 51.34 47.93 51.36 48.08 51.37 48.7 51.5 48.86 51.5 49.01 51.48 49.33 51.5 49.64 51.67 49.79 51.44 50.26 51.45 51.04 51.45 51.81 51.46 52.59 51.75 52.75 51.67 52.9 51.67 53.06 51.68 53.21 51.61 53.53 51.62 53.84 51.69 54.46 51.7 54.62 51.71 54.77 51.79 54.93 51.79 55.08 52.61 55.24 52.68 55.39 52.69 57.26 51.83 57.57 51.83 57.73 51.84 58.04 51.84 58.66 51.85 58.97 51.85 59.28 51.87 59.91 51.95 60.22 52.54 60.37 52.41 60.68 52.36 60.84 52.29 60.99 52.37 61.15 52.37 61.31 52.37 61.46 52.38 61.77 52.38 61.93 52.46 62.24 52.67 62.55 52.54 62.71 52.48 62.86 52.49 63.17 52.5 63.33 52.43 64.11 52.45 64.73 52.39 64.88 52.4 66.13 52.34 66.28 52.34 66.44 52.34 66.91 52.36 67.06 52.36 67.22 52.37 67.53 52.38 67.84 52.38 68.15 52.39 69.55 52.42"/>
      </g>
      <g stroke-width="0.3" fill="#000000" fill-opacity="0.000" class="geometry color_oldfull_fail" stroke-dasharray="none" stroke="#FFA500" id="img-7875e618-17">
        <path fill="none" d="M21.63,51.37 L 21.79 51.4 21.94 50.42 22.1 50.33 22.25 50.22 22.41 50.22 22.72 50.26 22.88 50.36 23.03 50.59 23.19 50.27 23.34 50.16 23.5 50.41 23.65 50.54 23.81 50.22 24.12 49.82 24.28 50.5 24.59 50.41 24.74 50.41 24.9 50.41 25.52 50.41 25.99 50.17 26.14 50.29 26.3 50.4 26.45 50.22 26.61 50.32 26.77 50.53 26.92 50.21 27.08 50.01 27.23 50.01 27.54 50.43 27.7 50.33 27.85 50.34 28.01 50.54 28.17 50.44 28.32 50.05 28.48 50.15 28.79 50.64 28.94 49.55 29.1 49.26 29.26 49.78 29.41 49.9 29.57 49.9 29.72 49.9 29.88 49.83 30.34 48 30.5 49.07 30.66 50.17 30.81 50.08 30.97 49.79 31.12 50.08 31.28 50.2 31.43 50.2 31.59 50.02 31.74 49.94 31.9 50.32 32.06 50.32 32.21 50.22 32.37 50.15 32.52 50.17 32.68 51.22 32.83 51.12 32.99 51.13 33.14 51.04 33.3 50.86 33.46 48.4 33.61 49.09 33.77 49.48 33.92 49.01 34.08 49.02 34.23 48.93 34.39 48.93 34.55 48.93 34.7 49.13 34.86 49.42 35.32 49.42 36.1 49.31 36.26 49.16 36.41 49.16 36.57 49.26 36.72 49.35 36.88 49.48 37.03 49.3 37.66 48.56 37.81 48.65 38.59 48.12 38.9 48.39 39.06 48.6 39.21 48.7 39.37 48.7 39.52 48.88 39.68 48.82 39.83 48.76 40.3 48.24 40.46 48.34 40.77 48.31 40.92 47.97 41.08 48.23 41.55 48.4 41.86 48.6 42.32 48.37 42.95 48.48 43.26 48.96 43.72 48.65 44.81 48.41 45.44 48.75 45.59 48.77 45.75 48.77 45.9 48.6 46.06 48.36 46.21 48.44 46.52 48.62 46.68 48.55 46.84 48.55 46.99 48.26 47.15 48.36 47.3 48.28 47.46 48.28 47.77 48.4 47.93 48.28 48.08 48.05 48.7 47.93 48.86 47.77 49.01 47.89 49.33 48 49.64 49.74 49.79 47.27 50.26 46.92 51.04 46.92 51.81 47.01 52.59 47.52 52.75 47.37 52.9 47.22 53.06 47.25 53.21 47.47 53.53 47.27 53.84 46.15 54.46 45.49 54.62 45.6 54.77 45.38 54.93 45.53 55.08 48.09 55.24 48.89 55.39 48.25 57.26 46.53 57.57 46.46 57.73 45.84 58.04 46.28 58.66 46.81 58.97 46.9 59.28 46.8 59.91 47.11 60.22 49.23 60.37 48.69 60.68 47.61 60.84 47.54 60.99 47.27 61.15 45.95 61.31 46.37 61.46 46.67 61.77 46.76 61.93 46.85 62.24 48.54 62.55 48.56 62.71 48.17 62.86 48.12 63.17 48.35 63.33 47.81 64.11 47.92 64.73 48.15 64.88 48.18 66.13 48.41 66.28 48.41 66.44 48.62 66.91 48.32 67.06 48.26 67.22 48.35 67.53 48.18 67.84 47.91 68.15 47.67 69.55 47.55"/>
      </g>
      <g stroke-width="0.3" fill="#000000" fill-opacity="0.000" class="geometry color_newtests_pass" stroke-dasharray="none" stroke="#008000" id="img-7875e618-18">
        <path fill="none" d="M21.63,30.11 L 21.79 30.32 21.94 31.04 22.1 32.85 22.25 32.96 22.41 32.96 22.72 31.08 22.88 30.86 23.03 30.6 23.19 30.71 23.34 30.71 23.5 30.48 23.65 30.29 23.81 30.39 24.12 31.16 24.28 30.61 24.59 30.73 24.74 30.73 24.9 30.73 25.52 30.73 25.99 30.69 26.14 30.55 26.3 30.51 26.45 30.53 26.61 30.32 26.77 29.81 26.92 29.91 27.08 30.01 27.23 30.01 27.54 29.97 27.7 30.07 27.85 30.04 28.01 29.84 28.17 29.84 28.32 30.4 28.48 30.4 28.79 29.44 28.94 33.27 29.1 33.67 29.26 31.5 29.41 31.42 29.57 31.32 29.72 31.32 29.88 31.34 30.34 34.57 30.5 32.43 30.66 31.08 30.81 31.04 30.97 31.24 31.12 31.14 31.28 30.77 31.43 30.77 31.59 31.12 31.74 31.27 31.9 31.27 32.06 31.08 32.21 30.89 32.37 30.9 32.52 30.83 32.68 36.71 32.83 36.8 32.99 36.75 33.14 35.99 33.3 36.13 33.46 32.83 33.61 31.99 33.77 31.48 33.92 31.95 34.08 31.91 34.23 32 34.39 32 34.55 32 34.7 31.68 34.86 31.46 35.32 31.18 36.1 31.23 36.26 31.34 36.41 31.34 36.57 31.21 36.72 31.12 36.88 31 37.03 31.19 37.66 31.81 37.81 31.81 38.59 32.13 38.9 31.77 39.06 31.96 39.21 31.39 39.37 31.39 39.52 31.21 39.68 31.23 39.83 31.24 40.3 31.47 40.46 31.35 40.77 32.24 40.92 32.59 41.08 32.33 41.55 32.16 41.86 31.91 42.32 31.15 42.95 30.9 43.26 30.51 43.72 30.7 44.81 30.97 45.44 30.65 45.59 30.59 45.75 30.59 45.9 30.96 46.06 31.69 46.21 31.61 46.52 31.41 46.68 31.46 46.84 31.46 46.99 31.76 47.15 31.64 47.3 31.72 47.46 31.72 47.77 31.62 47.93 31.76 48.08 31.96 48.7 32.24 48.86 32.39 49.01 32.34 49.33 32.24 49.64 35.3 49.79 32.99 50.26 33.53 51.04 33.53 51.81 33.5 52.59 34.46 52.75 34.01 52.9 33.56 53.06 33.18 53.21 32.73 53.53 32.97 53.84 34.46 54.46 35.03 54.62 34.88 54.77 35.1 54.93 34.95 55.08 39.18 55.24 40.27 55.39 39.8 57.26 35.5 57.57 35.43 57.73 34.65 58.04 34.14 58.66 33.6 58.97 33.49 59.28 33.46 59.91 33.1 60.22 42.03 60.37 39.17 60.68 37.89 60.84 38.03 60.99 38.2 61.15 39.81 61.31 39.32 61.46 38.64 61.77 38.39 61.93 38.3 62.24 41.11 62.55 40.95 62.71 39.97 62.86 40 63.17 39.15 63.33 38.97 64.11 38.46 64.73 37.84 64.88 37.9 66.13 36.76 66.28 36.83 66.44 36.56 66.91 36.88 67.06 36.91 67.22 36.7 67.53 36.63 67.84 37.03 68.15 37.16 69.55 37.36"/>
      </g>
    </g>
  </g>
</g>
  <g class="guide ylabels" font-size="2.82" font-family="'PT Sans Caption','Helvetica Neue','Helvetica',sans-serif" fill="#6C606B" id="img-7875e618-19">
    <text x="18.63" y="54.91" text-anchor="end" dy="0.35em">0</text>
    <text x="18.63" y="34.76" text-anchor="end" dy="0.35em">50</text>
    <text x="18.63" y="14.61" text-anchor="end" dy="0.35em">100</text>
  </g>
  <g font-size="3.88" font-family="'PT Sans','Helvetica Neue','Helvetica',sans-serif" fill="#564A55" stroke="#000000" stroke-opacity="0.000" id="img-7875e618-20">
    <text x="8.81" y="32.76" text-anchor="middle" dy="0.35em" transform="rotate(-90, 8.81, 34.76)">Percentage of Packages</text>
  </g>
  <g font-size="3.88" font-family="'PT Sans','Helvetica Neue','Helvetica',sans-serif" fill="#564A55" stroke="#000000" stroke-opacity="0.000" id="img-7875e618-21">
    <text x="58.12" y="10.61" text-anchor="middle">Julia v0.4 (relative)</text>
  </g>
</g>
<defs>
  <clipPath id="img-7875e618-4">
  <path d="M19.63,12.61 L 96.6 12.61 96.6 56.91 19.63 56.91" />
</clipPath>
</defs>
</svg>
