<?xml version="1.0" encoding="UTF-8"?>
<svg xmlns="http://www.w3.org/2000/svg"
     xmlns:xlink="http://www.w3.org/1999/xlink"
     xmlns:gadfly="http://www.gadflyjl.org/ns"
     version="1.2"
     width="101.6mm" height="76.2mm" viewBox="0 0 101.6 76.2"
     stroke="none"
     fill="#000000"
     stroke-width="0.3"
     font-size="3.88"
>
<g class="plotroot xscalable yscalable" id="img-e5d8f127-1">
  <g font-size="3.88" font-family="'PT Sans','Helvetica Neue','Helvetica',sans-serif" fill="#564A55" stroke="#000000" stroke-opacity="0.000" id="img-e5d8f127-2">
    <text x="58.12" y="64.59" text-anchor="middle" dy="0.6em">Date</text>
  </g>
  <g class="guide xlabels" font-size="2.82" font-family="'PT Sans Caption','Helvetica Neue','Helvetica',sans-serif" fill="#6C606B" id="img-e5d8f127-3">
    <text x="24.58" y="57.91" text-anchor="middle" dy="0.6em">Sep</text>
    <text x="29.24" y="57.91" text-anchor="middle" dy="0.6em">Oct</text>
    <text x="34.05" y="57.91" text-anchor="middle" dy="0.6em">Nov</text>
    <text x="38.71" y="57.91" text-anchor="middle" dy="0.6em">Dec</text>
    <text x="43.52" y="57.91" text-anchor="middle" dy="0.6em">Jan 2015</text>
    <text x="48.33" y="57.91" text-anchor="middle" dy="0.6em">Feb</text>
    <text x="52.68" y="57.91" text-anchor="middle" dy="0.6em">Mar</text>
    <text x="57.49" y="57.91" text-anchor="middle" dy="0.6em">Apr</text>
    <text x="62.15" y="57.91" text-anchor="middle" dy="0.6em">May</text>
    <text x="66.97" y="57.91" text-anchor="middle" dy="0.6em">Jun</text>
    <text x="71.62" y="57.91" text-anchor="middle" dy="0.6em">Jul</text>
    <text x="76.44" y="57.91" text-anchor="middle" dy="0.6em">Aug</text>
    <text x="81.25" y="57.91" text-anchor="middle" dy="0.6em">Sep</text>
    <text x="85.91" y="57.91" text-anchor="middle" dy="0.6em">Oct</text>
    <text x="90.72" y="57.91" text-anchor="middle" dy="0.6em">Nov</text>
  </g>
<g clip-path="url(#img-e5d8f127-4)">
  <g id="img-e5d8f127-5">
    <g pointer-events="visible" opacity="1" fill="#000000" fill-opacity="0.000" stroke="#000000" stroke-opacity="0.000" class="guide background" id="img-e5d8f127-6">
      <rect x="19.63" y="12.61" width="76.97" height="44.3"/>
    </g>
    <g class="guide ygridlines xfixed" stroke-dasharray="0.5,0.5" stroke-width="0.2" stroke="#D0D0E0" id="img-e5d8f127-7">
      <path fill="none" d="M19.63,54.91 L 96.6 54.91"/>
      <path fill="none" d="M19.63,34.76 L 96.6 34.76"/>
      <path fill="none" d="M19.63,14.61 L 96.6 14.61"/>
    </g>
    <g class="guide xgridlines yfixed" stroke-dasharray="0.5,0.5" stroke-width="0.2" stroke="#D0D0E0" id="img-e5d8f127-8">
      <path fill="none" d="M24.58,12.61 L 24.58 56.91"/>
      <path fill="none" d="M29.24,12.61 L 29.24 56.91"/>
      <path fill="none" d="M34.05,12.61 L 34.05 56.91"/>
      <path fill="none" d="M38.71,12.61 L 38.71 56.91"/>
      <path fill="none" d="M43.52,12.61 L 43.52 56.91"/>
      <path fill="none" d="M48.33,12.61 L 48.33 56.91"/>
      <path fill="none" d="M52.68,12.61 L 52.68 56.91"/>
      <path fill="none" d="M57.49,12.61 L 57.49 56.91"/>
      <path fill="none" d="M62.15,12.61 L 62.15 56.91"/>
      <path fill="none" d="M66.97,12.61 L 66.97 56.91"/>
      <path fill="none" d="M71.62,12.61 L 71.62 56.91"/>
      <path fill="none" d="M76.44,12.61 L 76.44 56.91"/>
      <path fill="none" d="M81.25,12.61 L 81.25 56.91"/>
      <path fill="none" d="M85.91,12.61 L 85.91 56.91"/>
      <path fill="none" d="M90.72,12.61 L 90.72 56.91"/>
    </g>
    <g class="plotpanel" id="img-e5d8f127-9">
      <g stroke-width="0.3" fill="#000000" fill-opacity="0.000" class="geometry color_newnot_possible" stroke-dasharray="none" stroke="#808080" id="img-e5d8f127-10">
        <path fill="none" d="M69.91,51.36 L 70.07 51.36 70.23 51.38 70.38 51.38 70.54 51.39 70.69 51.39 70.85 51.39 71 51.4 71.47 51.4 71.78 51.42 72.09 51.42 72.24 51.43 72.4 51.45 72.55 51.46 72.71 51.47 72.86 51.47 75.5 51.48 76.75 51.52 78.14 51.54 80.78 51.66 81.25 51.67 82.02 51.69 82.8 51.38 85.28 51.47 85.91 51.5 86.68 51.49 87.3 51.31 87.92 51.33 88.39 51.29 90.25 51.4 92.12 51.4 92.74 51.4 93.05 51.37 94.44 51.39 94.6 51.39"/>
      </g>
      <g stroke-width="0.3" fill="#000000" fill-opacity="0.000" class="geometry color_newno_tests" stroke-dasharray="none" stroke="#0000FF" id="img-e5d8f127-11">
        <path fill="none" d="M69.91,47.81 L 70.07 47.81 70.23 47.84 70.38 47.84 70.54 47.87 70.69 47.87 70.85 47.87 71 47.88 71.47 47.89 71.78 47.92 72.09 47.92 72.24 47.94 72.4 48.05 72.55 48.07 72.71 48.08 72.86 48.14 75.5 48.24 76.75 48.3 78.14 48.35 80.78 48.59 81.25 48.67 82.02 48.71 82.8 48.83 85.28 49.21 85.91 49.43 86.68 49.61 87.3 50.39 87.92 50.48 88.39 50.61 90.25 50.8 92.12 50.91 92.74 50.92 93.05 50.94 94.44 50.96 94.6 50.96"/>
      </g>
      <g stroke-width="0.3" fill="#000000" fill-opacity="0.000" class="geometry color_newtests_fail" stroke-dasharray="none" stroke="#FF0000" id="img-e5d8f127-12">
        <path fill="none" d="M69.91,41.5 L 70.07 41.96 70.23 41.87 70.38 40.56 70.54 40.57 70.69 40.76 70.85 40.76 71 41.83 71.47 41.26 71.78 41.31 72.09 42.02 72.24 42.19 72.4 40.8 72.55 42.12 72.71 41.18 72.86 41.63 75.5 42.44 76.75 42.18 78.14 42.83 80.78 43.04 81.25 43.37 82.02 43.73 82.8 44.65 85.28 44.75 85.91 45.18 86.68 45.46 87.3 45.7 87.92 45.99 88.39 46.42 90.25 46.46 92.12 46.69 92.74 46.87 93.05 47.07 94.44 47.11 94.6 47.27"/>
      </g>
      <g stroke-width="0.3" fill="#000000" fill-opacity="0.000" class="geometry color_newtests_pass" stroke-dasharray="none" stroke="#008000" id="img-e5d8f127-13">
        <path fill="none" d="M69.91,38.68 L 70.07 38.22 70.23 38.27 70.38 39.58 70.54 39.52 70.69 39.33 70.85 39.33 71 38.25 71.47 38.79 71.78 38.72 72.09 38 72.24 37.8 72.4 39.06 72.55 37.71 72.71 38.63 72.86 38.12 75.5 37.2 76.75 37.36 78.14 36.63 80.78 36.06 81.25 35.65 82.02 35.23 82.8 34.5 85.28 33.92 85.91 33.25 86.68 32.8 87.3 31.96 87.92 31.55 88.39 31.03 90.25 30.7 92.12 30.35 92.74 30.17 93.05 29.98 94.44 29.9 94.6 29.74"/>
      </g>
      <g stroke-width="0.3" fill="#000000" fill-opacity="0.000" class="geometry color_newnot_possible" stroke-dasharray="none" stroke="#808080" id="img-e5d8f127-14">
        <path fill="none" d="M21.63,50.71 L 21.79 50.63 21.94 50.53 22.1 50.55 22.25 50.55 22.41 50.55 22.72 50.58 22.87 50.58 23.03 50.59 23.18 50.59 23.34 50.59 23.49 50.63 23.65 50.65 23.81 50.65 24.12 50.67 24.27 50.6 24.58 50.62 24.74 50.62 24.89 50.52 25.51 50.52 25.98 50.59 26.13 50.6 26.29 50.61 26.44 50.63 26.6 50.63 26.75 50.63 26.91 50.71 27.07 50.71 27.22 50.71 27.53 50.63 27.69 50.63 27.84 50.64 28 50.64 28.15 50.64 28.31 50.65 28.46 50.55 28.77 50.54 28.93 50.55 29.08 50.55 29.24 50.57 29.39 50.49 29.55 50.49 29.7 50.49 29.86 50.51 30.33 50.53 30.48 50.44 30.64 50.46 30.79 50.47 30.95 50.47 31.1 50.47 31.26 50.49 31.41 50.49 31.57 50.5 31.72 50.51 31.88 50.42 32.03 50.42 32.19 50.42 32.34 50.44 32.5 50.46 32.65 50.46 32.81 50.46 32.97 50.47 33.12 50.47 33.28 50.48 33.43 50.48 33.59 50.5 33.74 50.51 33.9 50.51 34.05 50.52 34.21 50.52 34.36 50.52 34.52 50.52 34.67 50.53 34.83 50.54 35.29 50.54 36.07 50.6 36.23 50.62 36.38 50.62 36.54 50.63 36.69 50.63 36.85 50.66 37 50.66 37.62 50.71 37.78 50.71 38.55 50.71 38.86 50.71 39.02 50.82 39.18 50.83 39.33 50.83 39.49 50.83 39.64 50.85 39.8 50.87 40.26 50.88 40.42 50.88 40.73 50.92 40.88 50.92 41.04 50.92 41.5 50.92 41.81 50.94 42.28 50.95 42.9 50.97 43.21 51 43.68 51.02 44.76 51.08 45.39 51.13 45.54 50.98 45.7 50.98 45.85 50.95 46.01 50.95 46.16 50.95 46.47 50.96 46.63 50.97 46.78 50.97 46.94 50.91 47.09 50.92 47.25 50.92 47.4 50.92 47.71 50.86 47.87 50.88 48.02 50.89 48.65 50.95 48.8 50.95 48.96 50.93 49.27 50.95 49.58 50.98 49.73 50.98 50.2 50.99 50.97 50.99 51.75 51 52.53 51.07 52.68 51.07 52.84 51.07 52.99 50.55 53.15 50.63 53.46 50.57 53.77 50.57 54.39 50.58 54.55 50.59 54.7 50.59 54.86 50.59 55.01 50.61 55.17 50.68 55.32 50.62 57.18 50.58 57.49 50.5 57.65 50.53 57.96 50.53 58.58 50.53 58.89 50.54 59.2 50.57 59.82 50.58 60.13 50.6 60.29 50.62 60.6 50.66 60.76 50.66 60.91 50.67 61.07 50.68 61.22 50.68 61.38 50.69 61.69 50.69 61.84 50.71 62.15 50.71 62.46 50.72 62.62 50.75 62.77 50.75 63.08 50.77 63.24 50.77 64.02 50.8 64.64 50.88 64.79 50.83 66.03 50.85 66.19 50.72 66.34 50.72 66.81 50.74 66.97 50.75 67.12 50.83 67.43 50.84 67.74 50.84 68.05 50.86 69.45 50.9"/>
      </g>
      <g stroke-width="0.3" fill="#000000" fill-opacity="0.000" class="geometry color_newtests_fail" stroke-dasharray="none" stroke="#FF0000" id="img-e5d8f127-15">
        <path fill="none" d="M21.63,52.48 L 21.79 52.39 21.94 52.72 22.1 50.33 22.25 50.33 22.41 50.33 22.72 52.64 22.87 52.75 23.03 52.65 23.18 52.86 23.34 52.97 23.49 52.88 23.65 52.89 23.81 53 24.12 52.26 24.27 52.07 24.58 51.98 24.74 51.98 24.89 52.09 25.51 52.09 25.98 52.34 26.13 52.34 26.29 52.35 26.44 52.47 26.6 52.57 26.75 52.87 26.91 52.91 27.07 52.91 27.22 52.91 27.53 52.72 27.69 52.62 27.84 52.73 28 52.73 28.15 52.83 28.31 52.63 28.46 52.43 28.77 53.12 28.93 50.05 29.08 49.95 29.24 51.85 29.39 51.87 29.55 51.97 29.7 51.97 29.86 51.98 30.33 50.14 30.48 51.61 30.64 51.91 30.79 52.02 30.95 52.11 31.1 51.92 31.26 52.13 31.41 52.13 31.57 51.94 31.72 51.85 31.88 51.56 32.03 51.76 32.19 52.04 32.34 52.06 32.5 52.07 32.65 44.58 32.81 44.58 32.97 44.6 33.12 45.64 33.28 45.67 33.43 51.8 33.59 51.91 33.74 52.01 33.9 52.01 34.05 52.02 34.21 52.02 34.36 52.02 34.52 52.02 34.67 52.12 34.83 52.03 35.29 52.31 36.07 52.25 36.23 52.26 36.38 52.26 36.54 52.27 36.69 52.27 36.85 52.2 37 52.2 37.62 52.23 37.78 52.14 38.55 52.32 38.86 52.41 39.02 51.89 39.18 52.34 39.33 52.25 39.49 52.34 39.64 52.35 39.8 52.36 40.26 52.63 40.42 52.64 40.73 51.7 40.88 51.7 41.04 51.7 41.5 51.7 41.81 51.71 42.28 52.76 42.9 52.77 43.21 52.7 43.68 52.8 44.76 52.66 45.39 52.53 45.54 52.7 45.7 52.7 45.85 52.49 46.01 52 46.16 52 46.47 52.01 46.63 52.01 46.78 52.01 46.94 52.03 47.09 52.04 47.25 52.04 47.4 52.04 47.71 52.05 47.87 51.99 48.02 52 48.65 51.65 48.8 51.65 48.96 51.63 49.27 51.58 49.58 46.58 49.73 51.59 50.2 51.38 50.97 51.38 51.75 51.31 52.53 49.48 52.68 50.16 52.84 50.76 52.99 51.61 53.15 51.83 53.46 51.84 53.77 51.39 54.39 51.48 54.55 51.49 54.7 51.41 54.86 51.41 55.01 43.78 55.17 41.75 55.32 42.91 57.18 49.84 57.49 50.06 57.65 51.4 57.96 51.48 58.58 51.48 58.89 51.49 59.2 51.58 59.82 51.52 60.13 39.87 60.29 43.39 60.6 45.76 60.76 45.76 60.91 45.78 61.07 45.46 61.22 45.53 61.38 45.9 61.69 46.05 61.84 45.94 62.15 41.25 62.46 41.5 62.62 42.89 62.77 42.91 63.08 43.51 63.24 44.29 64.02 44.63 64.64 45.01 64.79 44.98 66.03 45.91 66.19 45.97 66.34 46.04 66.81 45.97 66.97 45.98 67.12 46.01 67.43 46.24 67.74 46.11 68.05 46.2 69.45 46.04"/>
      </g>
      <g stroke-width="0.3" fill="#000000" fill-opacity="0.000" class="geometry color_newno_tests" stroke-dasharray="none" stroke="#0000FF" id="img-e5d8f127-16">
        <path fill="none" d="M21.63,49.6 L 21.79 49.53 21.94 49.55 22.1 50.22 22.25 50.22 22.41 50.22 22.72 49.71 22.87 49.71 23.03 49.84 23.18 49.84 23.34 49.84 23.49 49.88 23.65 49.9 23.81 50.01 24.12 50.35 24.27 50.5 24.58 50.52 24.74 50.52 24.89 50.52 25.51 50.52 25.98 50.48 26.13 50.49 26.29 50.4 26.44 50.43 26.6 50.43 26.75 50.43 26.91 50.51 27.07 50.61 27.22 50.61 27.53 50.53 27.69 50.63 27.84 50.54 28 50.54 28.15 50.54 28.31 50.55 28.46 50.75 28.77 50.54 28.93 50.84 29.08 50.84 29.24 50.57 29.39 50.59 29.55 50.59 29.7 50.59 29.86 50.61 30.33 51.02 30.48 50.73 30.64 50.65 30.79 50.66 30.95 50.66 31.1 50.66 31.26 50.68 31.41 50.68 31.57 50.69 31.72 50.7 31.88 50.7 32.03 50.7 32.19 50.7 32.34 50.72 32.5 50.74 32.65 51.31 32.81 51.31 32.97 51.32 33.12 51.13 33.28 51.14 33.43 50.76 33.59 50.78 33.74 50.79 33.9 50.79 34.05 50.8 34.21 50.8 34.36 50.8 34.52 50.8 34.67 50.81 34.83 50.82 35.29 50.82 36.07 50.88 36.23 50.89 36.38 50.89 36.54 50.9 36.69 50.9 36.85 50.93 37 50.93 37.62 50.97 37.78 50.97 38.55 50.98 38.86 50.98 39.02 51 39.18 51.01 39.33 51.1 39.49 51.01 39.64 51.03 39.8 51.04 40.26 51.05 40.42 51.06 40.73 51.09 40.88 51.09 41.04 51.09 41.5 51.09 41.81 51.11 42.28 51.04 42.9 51.14 43.21 51.09 43.68 51.1 44.76 51.16 45.39 51.21 45.54 51.23 45.7 51.23 45.85 51.27 46.01 51.27 46.16 51.27 46.47 51.28 46.63 51.29 46.78 51.29 46.94 51.31 47.09 51.32 47.25 51.32 47.4 51.32 47.71 51.34 47.87 51.36 48.02 51.37 48.65 51.5 48.8 51.5 48.96 51.48 49.27 51.5 49.58 51.67 49.73 51.44 50.2 51.45 50.97 51.45 51.75 51.46 52.53 51.75 52.68 51.67 52.84 51.67 52.99 51.68 53.15 51.61 53.46 51.62 53.77 51.69 54.39 51.7 54.55 51.71 54.7 51.79 54.86 51.79 55.01 52.61 55.17 52.68 55.32 52.69 57.18 51.83 57.49 51.83 57.65 51.84 57.96 51.84 58.58 51.85 58.89 51.85 59.2 51.87 59.82 51.95 60.13 52.54 60.29 52.41 60.6 52.36 60.76 52.29 60.91 52.37 61.07 52.37 61.22 52.37 61.38 52.38 61.69 52.38 61.84 52.46 62.15 52.67 62.46 52.54 62.62 52.48 62.77 52.49 63.08 52.5 63.24 52.43 64.02 52.45 64.64 52.39 64.79 52.4 66.03 52.34 66.19 52.34 66.34 52.34 66.81 52.36 66.97 52.36 67.12 52.37 67.43 52.38 67.74 52.38 68.05 52.39 69.45 52.42"/>
      </g>
      <g stroke-width="0.3" fill="#000000" fill-opacity="0.000" class="geometry color_oldfull_fail" stroke-dasharray="none" stroke="#FFA500" id="img-e5d8f127-17">
        <path fill="none" d="M21.63,51.37 L 21.79 51.4 21.94 50.42 22.1 50.33 22.25 50.22 22.41 50.22 22.72 50.26 22.87 50.36 23.03 50.59 23.18 50.27 23.34 50.16 23.49 50.41 23.65 50.54 23.81 50.22 24.12 49.82 24.27 50.5 24.58 50.41 24.74 50.41 24.89 50.41 25.51 50.41 25.98 50.17 26.13 50.29 26.29 50.4 26.44 50.22 26.6 50.32 26.75 50.53 26.91 50.21 27.07 50.01 27.22 50.01 27.53 50.43 27.69 50.33 27.84 50.34 28 50.54 28.15 50.44 28.31 50.05 28.46 50.15 28.77 50.64 28.93 49.55 29.08 49.26 29.24 49.78 29.39 49.9 29.55 49.9 29.7 49.9 29.86 49.83 30.33 48 30.48 49.07 30.64 50.17 30.79 50.08 30.95 49.79 31.1 50.08 31.26 50.2 31.41 50.2 31.57 50.02 31.72 49.94 31.88 50.32 32.03 50.32 32.19 50.22 32.34 50.15 32.5 50.17 32.65 51.22 32.81 51.12 32.97 51.13 33.12 51.04 33.28 50.86 33.43 48.4 33.59 49.09 33.74 49.48 33.9 49.01 34.05 49.02 34.21 48.93 34.36 48.93 34.52 48.93 34.67 49.13 34.83 49.42 35.29 49.42 36.07 49.31 36.23 49.16 36.38 49.16 36.54 49.26 36.69 49.35 36.85 49.48 37 49.3 37.62 48.56 37.78 48.65 38.55 48.12 38.86 48.39 39.02 48.6 39.18 48.7 39.33 48.7 39.49 48.88 39.64 48.82 39.8 48.76 40.26 48.24 40.42 48.34 40.73 48.31 40.88 47.97 41.04 48.23 41.5 48.4 41.81 48.6 42.28 48.37 42.9 48.48 43.21 48.96 43.68 48.65 44.76 48.41 45.39 48.75 45.54 48.77 45.7 48.77 45.85 48.6 46.01 48.36 46.16 48.44 46.47 48.62 46.63 48.55 46.78 48.55 46.94 48.26 47.09 48.36 47.25 48.28 47.4 48.28 47.71 48.4 47.87 48.28 48.02 48.05 48.65 47.93 48.8 47.77 48.96 47.89 49.27 48 49.58 49.74 49.73 47.27 50.2 46.92 50.97 46.92 51.75 47.01 52.53 47.52 52.68 47.37 52.84 47.22 52.99 47.25 53.15 47.47 53.46 47.27 53.77 46.15 54.39 45.49 54.55 45.6 54.7 45.38 54.86 45.53 55.01 48.09 55.17 48.89 55.32 48.25 57.18 46.53 57.49 46.46 57.65 45.84 57.96 46.28 58.58 46.81 58.89 46.9 59.2 46.8 59.82 47.11 60.13 49.23 60.29 48.69 60.6 47.61 60.76 47.54 60.91 47.27 61.07 45.95 61.22 46.37 61.38 46.67 61.69 46.76 61.84 46.85 62.15 48.54 62.46 48.56 62.62 48.17 62.77 48.12 63.08 48.35 63.24 47.81 64.02 47.92 64.64 48.15 64.79 48.18 66.03 48.41 66.19 48.41 66.34 48.62 66.81 48.32 66.97 48.26 67.12 48.35 67.43 48.18 67.74 47.91 68.05 47.67 69.45 47.55"/>
      </g>
      <g stroke-width="0.3" fill="#000000" fill-opacity="0.000" class="geometry color_newtests_pass" stroke-dasharray="none" stroke="#008000" id="img-e5d8f127-18">
        <path fill="none" d="M21.63,30.11 L 21.79 30.32 21.94 31.04 22.1 32.85 22.25 32.96 22.41 32.96 22.72 31.08 22.87 30.86 23.03 30.6 23.18 30.71 23.34 30.71 23.49 30.48 23.65 30.29 23.81 30.39 24.12 31.16 24.27 30.61 24.58 30.73 24.74 30.73 24.89 30.73 25.51 30.73 25.98 30.69 26.13 30.55 26.29 30.51 26.44 30.53 26.6 30.32 26.75 29.81 26.91 29.91 27.07 30.01 27.22 30.01 27.53 29.97 27.69 30.07 27.84 30.04 28 29.84 28.15 29.84 28.31 30.4 28.46 30.4 28.77 29.44 28.93 33.27 29.08 33.67 29.24 31.5 29.39 31.42 29.55 31.32 29.7 31.32 29.86 31.34 30.33 34.57 30.48 32.43 30.64 31.08 30.79 31.04 30.95 31.24 31.1 31.14 31.26 30.77 31.41 30.77 31.57 31.12 31.72 31.27 31.88 31.27 32.03 31.08 32.19 30.89 32.34 30.9 32.5 30.83 32.65 36.71 32.81 36.8 32.97 36.75 33.12 35.99 33.28 36.13 33.43 32.83 33.59 31.99 33.74 31.48 33.9 31.95 34.05 31.91 34.21 32 34.36 32 34.52 32 34.67 31.68 34.83 31.46 35.29 31.18 36.07 31.23 36.23 31.34 36.38 31.34 36.54 31.21 36.69 31.12 36.85 31 37 31.19 37.62 31.81 37.78 31.81 38.55 32.13 38.86 31.77 39.02 31.96 39.18 31.39 39.33 31.39 39.49 31.21 39.64 31.23 39.8 31.24 40.26 31.47 40.42 31.35 40.73 32.24 40.88 32.59 41.04 32.33 41.5 32.16 41.81 31.91 42.28 31.15 42.9 30.9 43.21 30.51 43.68 30.7 44.76 30.97 45.39 30.65 45.54 30.59 45.7 30.59 45.85 30.96 46.01 31.69 46.16 31.61 46.47 31.41 46.63 31.46 46.78 31.46 46.94 31.76 47.09 31.64 47.25 31.72 47.4 31.72 47.71 31.62 47.87 31.76 48.02 31.96 48.65 32.24 48.8 32.39 48.96 32.34 49.27 32.24 49.58 35.3 49.73 32.99 50.2 33.53 50.97 33.53 51.75 33.5 52.53 34.46 52.68 34.01 52.84 33.56 52.99 33.18 53.15 32.73 53.46 32.97 53.77 34.46 54.39 35.03 54.55 34.88 54.7 35.1 54.86 34.95 55.01 39.18 55.17 40.27 55.32 39.8 57.18 35.5 57.49 35.43 57.65 34.65 57.96 34.14 58.58 33.6 58.89 33.49 59.2 33.46 59.82 33.1 60.13 42.03 60.29 39.17 60.6 37.89 60.76 38.03 60.91 38.2 61.07 39.81 61.22 39.32 61.38 38.64 61.69 38.39 61.84 38.3 62.15 41.11 62.46 40.95 62.62 39.97 62.77 40 63.08 39.15 63.24 38.97 64.02 38.46 64.64 37.84 64.79 37.9 66.03 36.76 66.19 36.83 66.34 36.56 66.81 36.88 66.97 36.91 67.12 36.7 67.43 36.63 67.74 37.03 68.05 37.16 69.45 37.36"/>
      </g>
    </g>
  </g>
</g>
  <g class="guide ylabels" font-size="2.82" font-family="'PT Sans Caption','Helvetica Neue','Helvetica',sans-serif" fill="#6C606B" id="img-e5d8f127-19">
    <text x="18.63" y="54.91" text-anchor="end" dy="0.35em">0</text>
    <text x="18.63" y="34.76" text-anchor="end" dy="0.35em">50</text>
    <text x="18.63" y="14.61" text-anchor="end" dy="0.35em">100</text>
  </g>
  <g font-size="3.88" font-family="'PT Sans','Helvetica Neue','Helvetica',sans-serif" fill="#564A55" stroke="#000000" stroke-opacity="0.000" id="img-e5d8f127-20">
    <text x="8.81" y="32.76" text-anchor="middle" dy="0.35em" transform="rotate(-90, 8.81, 34.76)">Percentage of Packages</text>
  </g>
  <g font-size="3.88" font-family="'PT Sans','Helvetica Neue','Helvetica',sans-serif" fill="#564A55" stroke="#000000" stroke-opacity="0.000" id="img-e5d8f127-21">
    <text x="58.12" y="10.61" text-anchor="middle">Julia v0.4 (relative)</text>
  </g>
</g>
<defs>
  <clipPath id="img-e5d8f127-4">
  <path d="M19.63,12.61 L 96.6 12.61 96.6 56.91 19.63 56.91" />
</clipPath>
</defs>
</svg>
