<?xml version="1.0" encoding="UTF-8"?>
<svg xmlns="http://www.w3.org/2000/svg"
     xmlns:xlink="http://www.w3.org/1999/xlink"
     xmlns:gadfly="http://www.gadflyjl.org/ns"
     version="1.2"
     width="101.6mm" height="76.2mm" viewBox="0 0 101.6 76.2"
     stroke="none"
     fill="#000000"
     stroke-width="0.3"
     font-size="3.88"
>
<g class="plotroot xscalable yscalable" id="img-c62ecca1-1">
  <g font-size="3.88" font-family="'PT Sans','Helvetica Neue','Helvetica',sans-serif" fill="#564A55" stroke="#000000" stroke-opacity="0.000" id="img-c62ecca1-2">
    <text x="58.12" y="64.59" text-anchor="middle" dy="0.6em">Date</text>
  </g>
  <g class="guide xlabels" font-size="2.82" font-family="'PT Sans Caption','Helvetica Neue','Helvetica',sans-serif" fill="#6C606B" id="img-c62ecca1-3">
    <text x="24.46" y="48.71" text-anchor="end" dy="0.35em" transform="rotate(-90, 24.46, 48.71)">Sep</text>
    <text x="28.93" y="48.71" text-anchor="end" dy="0.35em" transform="rotate(-90, 28.93, 48.71)">Oct</text>
    <text x="33.54" y="48.71" text-anchor="end" dy="0.35em" transform="rotate(-90, 33.54, 48.71)">Nov</text>
    <text x="38.01" y="48.71" text-anchor="end" dy="0.35em" transform="rotate(-90, 38.01, 48.71)">Dec</text>
    <text x="42.63" y="48.71" text-anchor="end" dy="0.35em" transform="rotate(-90, 42.63, 48.71)">Jan 2015</text>
    <text x="47.25" y="48.71" text-anchor="end" dy="0.35em" transform="rotate(-90, 47.25, 48.71)">Feb</text>
    <text x="51.41" y="48.71" text-anchor="end" dy="0.35em" transform="rotate(-90, 51.41, 48.71)">Mar</text>
    <text x="56.03" y="48.71" text-anchor="end" dy="0.35em" transform="rotate(-90, 56.03, 48.71)">Apr</text>
    <text x="60.5" y="48.71" text-anchor="end" dy="0.35em" transform="rotate(-90, 60.5, 48.71)">May</text>
    <text x="65.11" y="48.71" text-anchor="end" dy="0.35em" transform="rotate(-90, 65.11, 48.71)">Jun</text>
    <text x="69.58" y="48.71" text-anchor="end" dy="0.35em" transform="rotate(-90, 69.58, 48.71)">Jul</text>
    <text x="74.2" y="48.71" text-anchor="end" dy="0.35em" transform="rotate(-90, 74.2, 48.71)">Aug</text>
    <text x="78.82" y="48.71" text-anchor="end" dy="0.35em" transform="rotate(-90, 78.82, 48.71)">Sep</text>
    <text x="83.28" y="48.71" text-anchor="end" dy="0.35em" transform="rotate(-90, 83.28, 48.71)">Oct</text>
    <text x="87.9" y="48.71" text-anchor="end" dy="0.35em" transform="rotate(-90, 87.9, 48.71)">Nov</text>
    <text x="92.37" y="48.71" text-anchor="end" dy="0.35em" transform="rotate(-90, 92.37, 48.71)">Dec</text>
  </g>
<g clip-path="url(#img-c62ecca1-4)">
  <g id="img-c62ecca1-5">
    <g pointer-events="visible" opacity="1" fill="#000000" fill-opacity="0.000" stroke="#000000" stroke-opacity="0.000" class="guide background" id="img-c62ecca1-6">
      <rect x="19.63" y="12.61" width="76.97" height="35.1"/>
    </g>
    <g class="guide ygridlines xfixed" stroke-dasharray="0.5,0.5" stroke-width="0.2" stroke="#D0D0E0" id="img-c62ecca1-7">
      <path fill="none" d="M19.63,45.71 L 96.6 45.71"/>
      <path fill="none" d="M19.63,30.16 L 96.6 30.16"/>
      <path fill="none" d="M19.63,14.61 L 96.6 14.61"/>
    </g>
    <g class="guide xgridlines yfixed" stroke-dasharray="0.5,0.5" stroke-width="0.2" stroke="#D0D0E0" id="img-c62ecca1-8">
      <path fill="none" d="M24.46,12.61 L 24.46 47.71"/>
      <path fill="none" d="M28.93,12.61 L 28.93 47.71"/>
      <path fill="none" d="M33.54,12.61 L 33.54 47.71"/>
      <path fill="none" d="M38.01,12.61 L 38.01 47.71"/>
      <path fill="none" d="M42.63,12.61 L 42.63 47.71"/>
      <path fill="none" d="M47.25,12.61 L 47.25 47.71"/>
      <path fill="none" d="M51.41,12.61 L 51.41 47.71"/>
      <path fill="none" d="M56.03,12.61 L 56.03 47.71"/>
      <path fill="none" d="M60.5,12.61 L 60.5 47.71"/>
      <path fill="none" d="M65.11,12.61 L 65.11 47.71"/>
      <path fill="none" d="M69.58,12.61 L 69.58 47.71"/>
      <path fill="none" d="M74.2,12.61 L 74.2 47.71"/>
      <path fill="none" d="M78.82,12.61 L 78.82 47.71"/>
      <path fill="none" d="M83.28,12.61 L 83.28 47.71"/>
      <path fill="none" d="M87.9,12.61 L 87.9 47.71"/>
      <path fill="none" d="M92.37,12.61 L 92.37 47.71"/>
    </g>
    <g class="plotpanel" id="img-c62ecca1-9">
      <g stroke-width="0.3" fill="#000000" fill-opacity="0.000" class="geometry color_newnot_possible" stroke-dasharray="none" stroke="#808080" id="img-c62ecca1-10">
        <path fill="none" d="M67.94,42.97 L 68.09 42.97 68.24 42.98 68.39 42.98 68.54 42.99 68.69 42.99 68.84 42.99 68.99 43 69.43 43 69.73 43.01 70.03 43.01 70.18 43.02 70.33 43.03 70.48 43.04 70.62 43.05 70.77 43.05 73.31 43.06 74.5 43.09 75.84 43.11 78.37 43.2 78.82 43.21 79.56 43.22 80.3 42.98 82.69 43.05 83.28 43.07 84.03 43.06 84.62 42.93 85.22 42.95 85.67 42.91 87.45 43 89.24 43 89.83 43 90.13 42.97 91.47 42.99 91.62 42.99 92.66 43 92.81 42.97 93.86 43 94.6 43.01"/>
      </g>
      <g stroke-width="0.3" fill="#000000" fill-opacity="0.000" class="geometry color_newno_tests" stroke-dasharray="none" stroke="#0000FF" id="img-c62ecca1-11">
        <path fill="none" d="M67.94,40.23 L 68.09 40.23 68.24 40.25 68.39 40.25 68.54 40.27 68.69 40.27 68.84 40.27 68.99 40.28 69.43 40.29 69.73 40.31 70.03 40.31 70.18 40.33 70.33 40.41 70.48 40.43 70.62 40.44 70.77 40.48 73.31 40.56 74.5 40.61 75.84 40.64 78.37 40.83 78.82 40.89 79.56 40.92 80.3 41.01 82.69 41.31 83.28 41.48 84.03 41.61 84.62 42.22 85.22 42.29 85.67 42.39 87.45 42.53 89.24 42.62 89.83 42.62 90.13 42.64 91.47 42.66 91.62 42.66 92.66 42.68 92.81 42.68 93.86 42.71 94.6 42.72"/>
      </g>
      <g stroke-width="0.3" fill="#000000" fill-opacity="0.000" class="geometry color_newtests_fail" stroke-dasharray="none" stroke="#FF0000" id="img-c62ecca1-12">
        <path fill="none" d="M67.94,35.36 L 68.09 35.71 68.24 35.65 68.39 34.63 68.54 34.64 68.69 34.79 68.84 34.79 68.99 35.61 69.43 35.18 69.73 35.21 70.03 35.76 70.18 35.89 70.33 34.81 70.48 35.84 70.62 35.11 70.77 35.46 73.31 36.08 74.5 35.88 75.84 36.38 78.37 36.54 78.82 36.8 79.56 37.08 80.3 37.79 82.69 37.87 83.28 38.19 84.03 38.41 84.62 38.6 85.22 38.82 85.67 39.16 87.45 39.18 89.24 39.36 89.83 39.5 90.13 39.65 91.47 39.69 91.62 39.81 92.66 39.69 92.81 39.9 93.86 39.68 94.6 39.66"/>
      </g>
      <g stroke-width="0.3" fill="#000000" fill-opacity="0.000" class="geometry color_newtests_pass" stroke-dasharray="none" stroke="#008000" id="img-c62ecca1-13">
        <path fill="none" d="M67.94,33.18 L 68.09 32.82 68.24 32.87 68.39 33.88 68.54 33.83 68.69 33.68 68.84 33.68 68.99 32.85 69.43 33.27 69.73 33.21 70.03 32.66 70.18 32.5 70.33 33.48 70.48 32.43 70.62 33.14 70.77 32.75 73.31 32.04 74.5 32.16 75.84 31.6 78.37 31.16 78.82 30.84 79.56 30.52 80.3 29.96 82.69 29.51 83.28 28.99 84.03 28.65 84.62 28 85.22 27.68 85.67 27.28 87.45 27.02 89.24 26.76 89.83 26.62 90.13 26.47 91.47 26.41 91.62 26.28 92.66 26.37 92.81 26.19 93.86 26.35 94.6 26.35"/>
      </g>
      <g stroke-width="0.3" fill="#000000" fill-opacity="0.000" class="geometry color_newnot_possible" stroke-dasharray="none" stroke="#808080" id="img-c62ecca1-14">
        <path fill="none" d="M21.63,42.46 L 21.78 42.4 21.93 42.33 22.08 42.34 22.23 42.34 22.38 42.34 22.67 42.36 22.82 42.36 22.97 42.37 23.12 42.37 23.27 42.37 23.42 42.4 23.57 42.42 23.72 42.42 24.01 42.44 24.16 42.38 24.46 42.4 24.61 42.4 24.76 42.32 25.35 42.32 25.8 42.37 25.95 42.38 26.1 42.39 26.25 42.4 26.4 42.4 26.55 42.4 26.69 42.47 26.84 42.47 26.99 42.47 27.29 42.4 27.44 42.4 27.59 42.41 27.74 42.41 27.89 42.41 28.04 42.41 28.18 42.34 28.48 42.33 28.63 42.34 28.78 42.34 28.93 42.35 29.08 42.3 29.23 42.3 29.38 42.3 29.52 42.31 29.97 42.33 30.12 42.25 30.27 42.27 30.42 42.28 30.57 42.28 30.72 42.28 30.86 42.29 31.01 42.29 31.16 42.3 31.31 42.31 31.46 42.24 31.61 42.24 31.76 42.24 31.91 42.25 32.06 42.27 32.2 42.27 32.35 42.27 32.5 42.28 32.65 42.28 32.8 42.29 32.95 42.29 33.1 42.3 33.25 42.31 33.4 42.31 33.54 42.32 33.69 42.32 33.84 42.32 33.99 42.32 34.14 42.33 34.29 42.33 34.74 42.33 35.48 42.38 35.63 42.39 35.78 42.39 35.93 42.4 36.08 42.4 36.23 42.42 36.37 42.42 36.97 42.46 37.12 42.46 37.86 42.47 38.16 42.47 38.31 42.55 38.46 42.56 38.61 42.56 38.76 42.56 38.91 42.57 39.05 42.59 39.5 42.59 39.65 42.6 39.95 42.63 40.1 42.63 40.25 42.63 40.69 42.63 40.99 42.64 41.44 42.65 42.03 42.66 42.33 42.69 42.78 42.7 43.82 42.75 44.42 42.79 44.56 42.67 44.71 42.67 44.86 42.65 45.01 42.65 45.16 42.65 45.46 42.65 45.61 42.66 45.76 42.66 45.9 42.62 46.05 42.62 46.2 42.62 46.35 42.62 46.65 42.58 46.8 42.6 46.95 42.6 47.54 42.65 47.69 42.65 47.84 42.63 48.14 42.65 48.44 42.67 48.59 42.67 49.03 42.68 49.78 42.68 50.52 42.69 51.27 42.74 51.41 42.74 51.56 42.74 51.71 42.34 51.86 42.4 52.16 42.36 52.46 42.36 53.05 42.36 53.2 42.37 53.35 42.37 53.5 42.37 53.65 42.39 53.8 42.44 53.95 42.39 55.73 42.36 56.03 42.3 56.18 42.32 56.48 42.32 57.07 42.33 57.37 42.33 57.67 42.35 58.26 42.36 58.56 42.38 58.71 42.39 59.01 42.42 59.16 42.42 59.31 42.43 59.46 42.44 59.6 42.44 59.75 42.45 60.05 42.45 60.2 42.46 60.5 42.46 60.8 42.47 60.95 42.49 61.09 42.5 61.39 42.51 61.54 42.51 62.29 42.54 62.88 42.6 63.03 42.56 64.22 42.57 64.37 42.47 64.52 42.47 64.97 42.49 65.11 42.5 65.26 42.56 65.56 42.57 65.86 42.57 66.16 42.58 67.5 42.61"/>
      </g>
      <g stroke-width="0.3" fill="#000000" fill-opacity="0.000" class="geometry color_newtests_fail" stroke-dasharray="none" stroke="#FF0000" id="img-c62ecca1-15">
        <path fill="none" d="M21.63,43.83 L 21.78 43.76 21.93 44.02 22.08 42.17 22.23 42.17 22.38 42.17 22.67 43.95 22.82 44.04 22.97 43.96 23.12 44.12 23.27 44.21 23.42 44.14 23.57 44.15 23.72 44.23 24.01 43.66 24.16 43.52 24.46 43.45 24.61 43.45 24.76 43.53 25.35 43.53 25.8 43.72 25.95 43.73 26.1 43.73 26.25 43.82 26.4 43.9 26.55 44.13 26.69 44.17 26.84 44.17 26.99 44.17 27.29 44.01 27.44 43.94 27.59 44.02 27.74 44.02 27.89 44.1 28.04 43.95 28.18 43.79 28.48 44.33 28.63 41.96 28.78 41.88 28.93 43.35 29.08 43.36 29.23 43.43 29.38 43.43 29.52 43.44 29.97 42.03 30.12 43.15 30.27 43.39 30.42 43.47 30.57 43.55 30.72 43.4 30.86 43.56 31.01 43.56 31.16 43.41 31.31 43.34 31.46 43.12 31.61 43.27 31.76 43.49 31.91 43.5 32.06 43.51 32.2 37.73 32.35 37.73 32.5 37.75 32.65 38.55 32.8 38.57 32.95 43.31 33.1 43.39 33.25 43.47 33.4 43.47 33.54 43.47 33.69 43.47 33.84 43.47 33.99 43.47 34.14 43.55 34.29 43.48 34.74 43.7 35.48 43.65 35.63 43.66 35.78 43.66 35.93 43.67 36.08 43.67 36.23 43.61 36.37 43.61 36.97 43.64 37.12 43.57 37.86 43.71 38.16 43.78 38.31 43.37 38.46 43.72 38.61 43.65 38.76 43.72 38.91 43.73 39.05 43.74 39.5 43.95 39.65 43.95 39.95 43.23 40.1 43.23 40.25 43.23 40.69 43.23 40.99 43.24 41.44 44.05 42.03 44.05 42.33 44 42.78 44.08 43.82 43.97 44.42 43.87 44.56 44 44.71 44 44.86 43.84 45.01 43.46 45.16 43.46 45.46 43.46 45.61 43.47 45.76 43.47 45.9 43.48 46.05 43.49 46.2 43.49 46.35 43.49 46.65 43.5 46.8 43.45 46.95 43.46 47.54 43.19 47.69 43.19 47.84 43.18 48.14 43.13 48.44 39.27 48.59 43.15 49.03 42.98 49.78 42.98 50.52 42.92 51.27 41.52 51.41 42.04 51.56 42.51 51.71 43.16 51.86 43.33 52.16 43.34 52.46 42.99 53.05 43.05 53.2 43.06 53.35 43.01 53.5 43.01 53.65 37.12 53.8 35.55 53.95 36.45 55.73 41.79 56.03 41.96 56.18 43 56.48 43.06 57.07 43.06 57.37 43.07 57.67 43.14 58.26 43.09 58.56 34.1 58.71 36.82 59.01 38.65 59.16 38.65 59.31 38.66 59.46 38.41 59.6 38.47 59.75 38.75 60.05 38.87 60.2 38.79 60.5 35.16 60.8 35.36 60.95 36.43 61.09 36.45 61.39 36.91 61.54 37.51 62.29 37.78 62.88 38.07 63.03 38.04 64.22 38.76 64.37 38.81 64.52 38.86 64.97 38.8 65.11 38.82 65.26 38.84 65.56 39.02 65.86 38.91 66.16 38.99 67.5 38.86"/>
      </g>
      <g stroke-width="0.3" fill="#000000" fill-opacity="0.000" class="geometry color_newno_tests" stroke-dasharray="none" stroke="#0000FF" id="img-c62ecca1-16">
        <path fill="none" d="M21.63,41.61 L 21.78 41.56 21.93 41.57 22.08 42.08 22.23 42.08 22.38 42.08 22.67 41.7 22.82 41.7 22.97 41.79 23.12 41.79 23.27 41.79 23.42 41.82 23.57 41.84 23.72 41.92 24.01 42.19 24.16 42.3 24.46 42.32 24.61 42.32 24.76 42.32 25.35 42.32 25.8 42.29 25.95 42.3 26.1 42.23 26.25 42.24 26.4 42.24 26.55 42.24 26.69 42.31 26.84 42.39 26.99 42.39 27.29 42.32 27.44 42.4 27.59 42.33 27.74 42.33 27.89 42.33 28.04 42.34 28.18 42.49 28.48 42.33 28.63 42.57 28.78 42.57 28.93 42.35 29.08 42.37 29.23 42.37 29.38 42.37 29.52 42.39 29.97 42.7 30.12 42.48 30.27 42.42 30.42 42.43 30.57 42.43 30.72 42.43 30.86 42.44 31.01 42.44 31.16 42.45 31.31 42.46 31.46 42.46 31.61 42.46 31.76 42.46 31.91 42.47 32.06 42.49 32.2 42.93 32.35 42.93 32.5 42.93 32.65 42.79 32.8 42.8 32.95 42.5 33.1 42.52 33.25 42.53 33.4 42.53 33.54 42.53 33.69 42.53 33.84 42.53 33.99 42.53 34.14 42.54 34.29 42.55 34.74 42.55 35.48 42.59 35.63 42.61 35.78 42.61 35.93 42.61 36.08 42.61 36.23 42.63 36.37 42.63 36.97 42.67 37.12 42.67 37.86 42.67 38.16 42.67 38.31 42.69 38.46 42.69 38.61 42.76 38.76 42.69 38.91 42.71 39.05 42.72 39.5 42.73 39.65 42.73 39.95 42.76 40.1 42.76 40.25 42.76 40.69 42.76 40.99 42.77 41.44 42.72 42.03 42.8 42.33 42.76 42.78 42.77 43.82 42.81 44.42 42.85 44.56 42.86 44.71 42.86 44.86 42.9 45.01 42.9 45.16 42.9 45.46 42.9 45.61 42.91 45.76 42.91 45.9 42.93 46.05 42.93 46.2 42.93 46.35 42.93 46.65 42.95 46.8 42.96 46.95 42.97 47.54 43.07 47.69 43.07 47.84 43.06 48.14 43.07 48.44 43.21 48.59 43.03 49.03 43.04 49.78 43.04 50.52 43.04 51.27 43.26 51.41 43.2 51.56 43.2 51.71 43.21 51.86 43.16 52.16 43.17 52.46 43.22 53.05 43.23 53.2 43.24 53.35 43.29 53.5 43.29 53.65 43.93 53.8 43.99 53.95 43.99 55.73 43.33 56.03 43.33 56.18 43.34 56.48 43.34 57.07 43.34 57.37 43.35 57.67 43.36 58.26 43.42 58.56 43.88 58.71 43.78 59.01 43.74 59.16 43.68 59.31 43.74 59.46 43.75 59.6 43.75 59.75 43.75 60.05 43.75 60.2 43.82 60.5 43.98 60.8 43.88 60.95 43.83 61.09 43.84 61.39 43.84 61.54 43.79 62.29 43.8 62.88 43.76 63.03 43.76 64.22 43.72 64.37 43.72 64.52 43.72 64.97 43.74 65.11 43.74 65.26 43.75 65.56 43.75 65.86 43.75 66.16 43.76 67.5 43.78"/>
      </g>
      <g stroke-width="0.3" fill="#000000" fill-opacity="0.000" class="geometry color_oldfull_fail" stroke-dasharray="none" stroke="#FFA500" id="img-c62ecca1-17">
        <path fill="none" d="M21.63,42.97 L 21.78 43 21.93 42.24 22.08 42.17 22.23 42.08 22.38 42.08 22.67 42.11 22.82 42.2 22.97 42.37 23.12 42.12 23.27 42.04 23.42 42.23 23.57 42.34 23.72 42.09 24.01 41.78 24.16 42.3 24.46 42.24 24.61 42.24 24.76 42.24 25.35 42.24 25.8 42.05 25.95 42.14 26.1 42.23 26.25 42.09 26.4 42.17 26.55 42.32 26.69 42.08 26.84 41.93 26.99 41.93 27.29 42.24 27.44 42.17 27.59 42.18 27.74 42.33 27.89 42.25 28.04 41.96 28.18 42.03 28.48 42.41 28.63 41.57 28.78 41.34 28.93 41.75 29.08 41.84 29.23 41.84 29.38 41.84 29.52 41.78 29.97 40.38 30.12 41.2 30.27 42.05 30.42 41.98 30.57 41.76 30.72 41.98 30.86 42.07 31.01 42.07 31.16 41.93 31.31 41.87 31.46 42.16 31.61 42.16 31.76 42.09 31.91 42.03 32.06 42.05 32.2 42.85 32.35 42.78 32.5 42.79 32.65 42.72 32.8 42.58 32.95 40.68 33.1 41.21 33.25 41.51 33.4 41.15 33.54 41.16 33.69 41.09 33.84 41.09 33.99 41.09 34.14 41.25 34.29 41.47 34.74 41.47 35.48 41.39 35.63 41.27 35.78 41.27 35.93 41.35 36.08 41.42 36.23 41.52 36.37 41.38 36.97 40.8 37.12 40.87 37.86 40.47 38.16 40.67 38.31 40.83 38.46 40.91 38.61 40.91 38.76 41.05 38.91 41 39.05 40.96 39.5 40.56 39.65 40.64 39.95 40.61 40.1 40.35 40.25 40.55 40.69 40.68 40.99 40.84 41.44 40.66 42.03 40.75 42.33 41.12 42.78 40.87 43.82 40.69 44.42 40.95 44.56 40.97 44.71 40.97 44.86 40.84 45.01 40.65 45.16 40.71 45.46 40.85 45.61 40.8 45.76 40.8 45.9 40.58 46.05 40.65 46.2 40.59 46.35 40.59 46.65 40.68 46.8 40.59 46.95 40.41 47.54 40.32 47.69 40.2 47.84 40.28 48.14 40.38 48.44 41.72 48.59 39.81 49.03 39.54 49.78 39.54 50.52 39.61 51.27 40 51.41 39.88 51.56 39.77 51.71 39.79 51.86 39.96 52.16 39.81 52.46 38.95 53.05 38.44 53.2 38.52 53.35 38.35 53.5 38.47 53.65 40.44 53.8 41.06 53.95 40.56 55.73 39.24 56.03 39.18 56.18 38.71 56.48 39.05 57.07 39.46 57.37 39.52 57.67 39.44 58.26 39.69 58.56 41.32 58.71 40.9 59.01 40.07 59.16 40.01 59.31 39.81 59.46 38.79 59.6 39.12 59.75 39.35 60.05 39.41 60.2 39.49 60.5 40.79 60.8 40.8 60.95 40.51 61.09 40.46 61.39 40.64 61.54 40.22 62.29 40.31 62.88 40.49 63.03 40.51 64.22 40.69 64.37 40.69 64.52 40.85 64.97 40.62 65.11 40.58 65.26 40.65 65.56 40.51 65.86 40.3 66.16 40.12 67.5 40.03"/>
      </g>
      <g stroke-width="0.3" fill="#000000" fill-opacity="0.000" class="geometry color_newtests_pass" stroke-dasharray="none" stroke="#008000" id="img-c62ecca1-18">
        <path fill="none" d="M21.63,26.57 L 21.78 26.73 21.93 27.29 22.08 28.69 22.23 28.77 22.38 28.77 22.67 27.32 22.82 27.15 22.97 26.95 23.12 27.03 23.27 27.03 23.42 26.85 23.57 26.7 23.72 26.79 24.01 27.38 24.16 26.95 24.46 27.05 24.61 27.05 24.76 27.05 25.35 27.05 25.8 27.02 25.95 26.91 26.1 26.88 26.25 26.89 26.4 26.74 26.55 26.34 26.69 26.42 26.84 26.49 26.99 26.49 27.29 26.47 27.44 26.54 27.59 26.51 27.74 26.36 27.89 26.36 28.04 26.79 28.18 26.79 28.48 26.05 28.63 29.01 28.78 29.32 28.93 27.64 29.08 27.58 29.23 27.51 29.38 27.51 29.52 27.52 29.97 30.01 30.12 28.36 30.27 27.32 30.42 27.29 30.57 27.44 30.72 27.36 30.86 27.08 31.01 27.08 31.16 27.35 31.31 27.46 31.46 27.46 31.61 27.32 31.76 27.17 31.91 27.18 32.06 27.12 32.2 31.66 32.35 31.73 32.5 31.69 32.65 31.11 32.8 31.22 32.95 28.67 33.1 28.02 33.25 27.63 33.4 27.99 33.54 27.96 33.69 28.03 33.84 28.03 33.99 28.03 34.14 27.78 34.29 27.61 34.74 27.4 35.48 27.43 35.63 27.52 35.78 27.52 35.93 27.42 36.08 27.35 36.23 27.26 36.37 27.4 36.97 27.88 37.12 27.88 37.86 28.13 38.16 27.85 38.31 28 38.46 27.56 38.61 27.56 38.76 27.42 38.91 27.43 39.05 27.44 39.5 27.62 39.65 27.52 39.95 28.22 40.1 28.48 40.25 28.28 40.69 28.15 40.99 27.96 41.44 27.37 42.03 27.18 42.33 26.88 42.78 27.02 43.82 27.23 44.42 26.99 44.56 26.94 44.71 26.94 44.86 27.23 45.01 27.79 45.16 27.72 45.46 27.57 45.61 27.61 45.76 27.61 45.9 27.84 46.05 27.75 46.2 27.82 46.35 27.82 46.65 27.74 46.8 27.84 46.95 28 47.54 28.21 47.69 28.33 47.84 28.29 48.14 28.21 48.44 30.58 48.59 28.79 49.03 29.21 49.78 29.21 50.52 29.18 51.27 29.93 51.41 29.58 51.56 29.23 51.71 28.94 51.86 28.59 52.16 28.77 52.46 29.93 53.05 30.36 53.2 30.25 53.35 30.42 53.5 30.3 53.65 33.57 53.8 34.41 53.95 34.05 55.73 30.73 56.03 30.67 56.18 30.08 56.48 29.68 57.07 29.26 57.37 29.18 57.67 29.15 58.26 28.88 58.56 35.77 58.71 33.56 59.01 32.57 59.16 32.68 59.31 32.81 59.46 34.05 59.6 33.67 59.75 33.15 60.05 32.95 60.2 32.89 60.5 35.05 60.8 34.93 60.95 34.18 61.09 34.2 61.39 33.55 61.54 33.41 62.29 33.02 62.88 32.53 63.03 32.58 64.22 31.7 64.37 31.75 64.52 31.54 64.97 31.8 65.11 31.82 65.26 31.66 65.56 31.6 65.86 31.91 66.16 32.01 67.5 32.16"/>
      </g>
    </g>
  </g>
</g>
  <g class="guide ylabels" font-size="2.82" font-family="'PT Sans Caption','Helvetica Neue','Helvetica',sans-serif" fill="#6C606B" id="img-c62ecca1-19">
    <text x="18.63" y="45.71" text-anchor="end" dy="0.35em">0</text>
    <text x="18.63" y="30.16" text-anchor="end" dy="0.35em">50</text>
    <text x="18.63" y="14.61" text-anchor="end" dy="0.35em">100</text>
  </g>
  <g font-size="3.88" font-family="'PT Sans','Helvetica Neue','Helvetica',sans-serif" fill="#564A55" stroke="#000000" stroke-opacity="0.000" id="img-c62ecca1-20">
    <text x="8.81" y="28.16" text-anchor="middle" dy="0.35em" transform="rotate(-90, 8.81, 30.16)">Percentage of Packages</text>
  </g>
  <g font-size="3.88" font-family="'PT Sans','Helvetica Neue','Helvetica',sans-serif" fill="#564A55" stroke="#000000" stroke-opacity="0.000" id="img-c62ecca1-21">
    <text x="58.12" y="10.61" text-anchor="middle">Julia v0.4 (relative)</text>
  </g>
</g>
<defs>
  <clipPath id="img-c62ecca1-4">
  <path d="M19.63,12.61 L 96.6 12.61 96.6 47.71 19.63 47.71" />
</clipPath>
</defs>
</svg>
