<?xml version="1.0" encoding="UTF-8"?>
<svg xmlns="http://www.w3.org/2000/svg"
     xmlns:xlink="http://www.w3.org/1999/xlink"
     xmlns:gadfly="http://www.gadflyjl.org/ns"
     version="1.2"
     width="101.6mm" height="76.2mm" viewBox="0 0 101.6 76.2"
     stroke="none"
     fill="#000000"
     stroke-width="0.3"
     font-size="3.88"
>
<g class="plotroot xscalable yscalable" id="fig-2e724ddead534dbda1afbf8367af8f2a-element-1">
  <g font-size="3.88" font-family="'PT Sans','Helvetica Neue','Helvetica',sans-serif" fill="#564A55" stroke="#000000" stroke-opacity="0.000" id="fig-2e724ddead534dbda1afbf8367af8f2a-element-2">
    <text x="58.12" y="64.59" text-anchor="middle" dy="0.6em">Date</text>
  </g>
  <g class="guide xlabels" font-size="2.82" font-family="'PT Sans Caption','Helvetica Neue','Helvetica',sans-serif" fill="#6C606B" id="fig-2e724ddead534dbda1afbf8367af8f2a-element-3">
    <text x="24.66" y="57.91" text-anchor="middle" dy="0.6em">Sep</text>
    <text x="29.44" y="57.91" text-anchor="middle" dy="0.6em">Oct</text>
    <text x="34.38" y="57.91" text-anchor="middle" dy="0.6em">Nov</text>
    <text x="39.16" y="57.91" text-anchor="middle" dy="0.6em">Dec</text>
    <text x="44.1" y="57.91" text-anchor="middle" dy="0.6em">Jan 2015</text>
    <text x="49.03" y="57.91" text-anchor="middle" dy="0.6em">Feb</text>
    <text x="53.5" y="57.91" text-anchor="middle" dy="0.6em">Mar</text>
    <text x="58.43" y="57.91" text-anchor="middle" dy="0.6em">Apr</text>
    <text x="63.21" y="57.91" text-anchor="middle" dy="0.6em">May</text>
    <text x="68.15" y="57.91" text-anchor="middle" dy="0.6em">Jun</text>
    <text x="72.93" y="57.91" text-anchor="middle" dy="0.6em">Jul</text>
    <text x="77.87" y="57.91" text-anchor="middle" dy="0.6em">Aug</text>
    <text x="82.81" y="57.91" text-anchor="middle" dy="0.6em">Sep</text>
    <text x="87.59" y="57.91" text-anchor="middle" dy="0.6em">Oct</text>
    <text x="92.53" y="57.91" text-anchor="middle" dy="0.6em">Nov</text>
  </g>
  <g clip-path="url(#fig-2e724ddead534dbda1afbf8367af8f2a-element-5)" id="fig-2e724ddead534dbda1afbf8367af8f2a-element-4">
    <g pointer-events="visible" opacity="1" fill="#000000" fill-opacity="0.000" stroke="#000000" stroke-opacity="0.000" class="guide background" id="fig-2e724ddead534dbda1afbf8367af8f2a-element-6">
      <rect x="19.63" y="12.61" width="76.97" height="44.3"/>
    </g>
    <g class="guide ygridlines xfixed" stroke-dasharray="0.5,0.5" stroke-width="0.2" stroke="#D0D0E0" id="fig-2e724ddead534dbda1afbf8367af8f2a-element-7">
      <path fill="none" d="M19.63,54.91 L 96.6 54.91"/>
      <path fill="none" d="M19.63,34.76 L 96.6 34.76"/>
      <path fill="none" d="M19.63,14.61 L 96.6 14.61"/>
    </g>
    <g class="guide xgridlines yfixed" stroke-dasharray="0.5,0.5" stroke-width="0.2" stroke="#D0D0E0" id="fig-2e724ddead534dbda1afbf8367af8f2a-element-8">
      <path fill="none" d="M24.66,12.61 L 24.66 56.91"/>
      <path fill="none" d="M29.44,12.61 L 29.44 56.91"/>
      <path fill="none" d="M34.38,12.61 L 34.38 56.91"/>
      <path fill="none" d="M39.16,12.61 L 39.16 56.91"/>
      <path fill="none" d="M44.1,12.61 L 44.1 56.91"/>
      <path fill="none" d="M49.03,12.61 L 49.03 56.91"/>
      <path fill="none" d="M53.5,12.61 L 53.5 56.91"/>
      <path fill="none" d="M58.43,12.61 L 58.43 56.91"/>
      <path fill="none" d="M63.21,12.61 L 63.21 56.91"/>
      <path fill="none" d="M68.15,12.61 L 68.15 56.91"/>
      <path fill="none" d="M72.93,12.61 L 72.93 56.91"/>
      <path fill="none" d="M77.87,12.61 L 77.87 56.91"/>
      <path fill="none" d="M82.81,12.61 L 82.81 56.91"/>
      <path fill="none" d="M87.59,12.61 L 87.59 56.91"/>
      <path fill="none" d="M92.53,12.61 L 92.53 56.91"/>
    </g>
    <g class="plotpanel" id="fig-2e724ddead534dbda1afbf8367af8f2a-element-9">
      <g stroke-width="0.3" fill="#000000" fill-opacity="0.000" class="geometry color_newnot_possible" stroke-dasharray="none" stroke="#808080" id="fig-2e724ddead534dbda1afbf8367af8f2a-element-10">
        <path fill="none" d="M71.18,51.36 L 71.34 51.36 71.5 51.38 71.66 51.38 71.82 51.39 71.98 51.39 72.14 51.39 72.3 51.4 72.77 51.4 73.09 51.42 73.41 51.42 73.57 51.43 73.73 51.45 73.89 51.46 74.05 51.47 74.21 51.47 76.92 51.48 78.19 51.52 79.62 51.54 82.33 51.66 82.81 51.67 83.61 51.69 84.4 51.38 86.95 51.47 87.59 51.5 88.39 51.49 89.02 51.31 89.66 51.33 90.14 51.29 92.05 51.4 93.96 51.4 94.6 51.4"/>
      </g>
      <g stroke-width="0.3" fill="#000000" fill-opacity="0.000" class="geometry color_newno_tests" stroke-dasharray="none" stroke="#0000FF" id="fig-2e724ddead534dbda1afbf8367af8f2a-element-11">
        <path fill="none" d="M71.18,47.81 L 71.34 47.81 71.5 47.84 71.66 47.84 71.82 47.87 71.98 47.87 72.14 47.87 72.3 47.88 72.77 47.89 73.09 47.92 73.41 47.92 73.57 47.94 73.73 48.05 73.89 48.07 74.05 48.08 74.21 48.14 76.92 48.24 78.19 48.3 79.62 48.35 82.33 48.59 82.81 48.67 83.61 48.71 84.4 48.83 86.95 49.21 87.59 49.43 88.39 49.61 89.02 50.39 89.66 50.48 90.14 50.61 92.05 50.8 93.96 50.91 94.6 50.92"/>
      </g>
      <g stroke-width="0.3" fill="#000000" fill-opacity="0.000" class="geometry color_newtests_fail" stroke-dasharray="none" stroke="#FF0000" id="fig-2e724ddead534dbda1afbf8367af8f2a-element-12">
        <path fill="none" d="M71.18,41.5 L 71.34 41.96 71.5 41.87 71.66 40.56 71.82 40.57 71.98 40.76 72.14 40.76 72.3 41.83 72.77 41.26 73.09 41.31 73.41 42.02 73.57 42.19 73.73 40.8 73.89 42.12 74.05 41.18 74.21 41.63 76.92 42.44 78.19 42.18 79.62 42.83 82.33 43.04 82.81 43.37 83.61 43.73 84.4 44.65 86.95 44.75 87.59 45.18 88.39 45.46 89.02 45.7 89.66 45.99 90.14 46.42 92.05 46.46 93.96 46.69 94.6 46.87"/>
      </g>
      <g stroke-width="0.3" fill="#000000" fill-opacity="0.000" class="geometry color_newtests_pass" stroke-dasharray="none" stroke="#008000" id="fig-2e724ddead534dbda1afbf8367af8f2a-element-13">
        <path fill="none" d="M71.18,38.68 L 71.34 38.22 71.5 38.27 71.66 39.58 71.82 39.52 71.98 39.33 72.14 39.33 72.3 38.25 72.77 38.79 73.09 38.72 73.41 38 73.57 37.8 73.73 39.06 73.89 37.71 74.05 38.63 74.21 38.12 76.92 37.2 78.19 37.36 79.62 36.63 82.33 36.06 82.81 35.65 83.61 35.23 84.4 34.5 86.95 33.92 87.59 33.25 88.39 32.8 89.02 31.96 89.66 31.55 90.14 31.03 92.05 30.7 93.96 30.35 94.6 30.17"/>
      </g>
      <g stroke-width="0.3" fill="#000000" fill-opacity="0.000" class="geometry color_newnot_possible" stroke-dasharray="none" stroke="#808080" id="fig-2e724ddead534dbda1afbf8367af8f2a-element-14">
        <path fill="none" d="M21.63,50.71 L 21.79 50.63 21.95 50.53 22.11 50.55 22.27 50.55 22.43 50.55 22.75 50.58 22.91 50.58 23.07 50.59 23.22 50.59 23.38 50.59 23.54 50.63 23.7 50.65 23.86 50.65 24.18 50.67 24.34 50.6 24.66 50.62 24.82 50.62 24.98 50.52 25.61 50.52 26.09 50.59 26.25 50.6 26.41 50.61 26.57 50.63 26.73 50.63 26.89 50.63 27.05 50.71 27.21 50.71 27.37 50.71 27.69 50.63 27.85 50.63 28 50.64 28.16 50.64 28.32 50.64 28.48 50.65 28.64 50.55 28.96 50.54 29.12 50.55 29.28 50.55 29.44 50.57 29.6 50.49 29.76 50.49 29.92 50.49 30.08 50.51 30.55 50.53 30.71 50.44 30.87 50.46 31.03 50.47 31.19 50.47 31.35 50.47 31.51 50.49 31.67 50.49 31.83 50.5 31.99 50.51 32.15 50.42 32.31 50.42 32.47 50.42 32.62 50.44 32.78 50.46 32.94 50.46 33.1 50.46 33.26 50.47 33.42 50.47 33.58 50.48 33.74 50.48 33.9 50.5 34.06 50.51 34.22 50.51 34.38 50.52 34.54 50.52 34.7 50.52 34.86 50.52 35.01 50.53 35.17 50.54 35.65 50.54 36.45 50.6 36.61 50.62 36.77 50.62 36.93 50.63 37.09 50.63 37.24 50.66 37.4 50.66 38.04 50.71 38.2 50.71 39 50.71 39.32 50.71 39.48 50.82 39.63 50.83 39.79 50.83 39.95 50.83 40.11 50.85 40.27 50.87 40.75 50.88 40.91 50.88 41.23 50.92 41.39 50.92 41.55 50.92 42.02 50.92 42.34 50.94 42.82 50.95 43.46 50.97 43.78 51 44.26 51.02 45.37 51.08 46.01 51.13 46.17 50.98 46.33 50.98 46.49 50.95 46.64 50.95 46.8 50.95 47.12 50.96 47.28 50.97 47.44 50.97 47.6 50.91 47.76 50.92 47.92 50.92 48.08 50.92 48.4 50.86 48.56 50.88 48.72 50.89 49.35 50.95 49.51 50.95 49.67 50.93 49.99 50.95 50.31 50.98 50.47 50.98 50.95 50.99 51.74 50.99 52.54 51 53.34 51.07 53.5 51.07 53.65 51.07 53.81 50.55 53.97 50.63 54.29 50.57 54.61 50.57 55.25 50.58 55.41 50.59 55.57 50.59 55.73 50.59 55.89 50.61 56.04 50.68 56.2 50.62 58.12 50.58 58.43 50.5 58.59 50.53 58.91 50.53 59.55 50.53 59.87 50.54 60.19 50.57 60.82 50.58 61.14 50.6 61.3 50.62 61.62 50.66 61.78 50.66 61.94 50.67 62.1 50.68 62.26 50.68 62.42 50.69 62.74 50.69 62.9 50.71 63.21 50.71 63.53 50.72 63.69 50.75 63.85 50.75 64.17 50.77 64.33 50.77 65.13 50.8 65.76 50.88 65.92 50.83 67.2 50.85 67.36 50.72 67.52 50.72 67.99 50.74 68.15 50.75 68.31 50.83 68.63 50.84 68.95 50.84 69.27 50.86 70.7 50.9"/>
      </g>
      <g stroke-width="0.3" fill="#000000" fill-opacity="0.000" class="geometry color_newtests_fail" stroke-dasharray="none" stroke="#FF0000" id="fig-2e724ddead534dbda1afbf8367af8f2a-element-15">
        <path fill="none" d="M21.63,52.48 L 21.79 52.39 21.95 52.72 22.11 50.33 22.27 50.33 22.43 50.33 22.75 52.64 22.91 52.75 23.07 52.65 23.22 52.86 23.38 52.97 23.54 52.88 23.7 52.89 23.86 53 24.18 52.26 24.34 52.07 24.66 51.98 24.82 51.98 24.98 52.09 25.61 52.09 26.09 52.34 26.25 52.34 26.41 52.35 26.57 52.47 26.73 52.57 26.89 52.87 27.05 52.91 27.21 52.91 27.37 52.91 27.69 52.72 27.85 52.62 28 52.73 28.16 52.73 28.32 52.83 28.48 52.63 28.64 52.43 28.96 53.12 29.12 50.05 29.28 49.95 29.44 51.85 29.6 51.87 29.76 51.97 29.92 51.97 30.08 51.98 30.55 50.14 30.71 51.61 30.87 51.91 31.03 52.02 31.19 52.11 31.35 51.92 31.51 52.13 31.67 52.13 31.83 51.94 31.99 51.85 32.15 51.56 32.31 51.76 32.47 52.04 32.62 52.06 32.78 52.07 32.94 44.58 33.1 44.58 33.26 44.6 33.42 45.64 33.58 45.67 33.74 51.8 33.9 51.91 34.06 52.01 34.22 52.01 34.38 52.02 34.54 52.02 34.7 52.02 34.86 52.02 35.01 52.12 35.17 52.03 35.65 52.31 36.45 52.25 36.61 52.26 36.77 52.26 36.93 52.27 37.09 52.27 37.24 52.2 37.4 52.2 38.04 52.23 38.2 52.14 39 52.32 39.32 52.41 39.48 51.89 39.63 52.34 39.79 52.25 39.95 52.34 40.11 52.35 40.27 52.36 40.75 52.63 40.91 52.64 41.23 51.7 41.39 51.7 41.55 51.7 42.02 51.7 42.34 51.71 42.82 52.76 43.46 52.77 43.78 52.7 44.26 52.8 45.37 52.66 46.01 52.53 46.17 52.7 46.33 52.7 46.49 52.49 46.64 52 46.8 52 47.12 52.01 47.28 52.01 47.44 52.01 47.6 52.03 47.76 52.04 47.92 52.04 48.08 52.04 48.4 52.05 48.56 51.99 48.72 52 49.35 51.65 49.51 51.65 49.67 51.63 49.99 51.58 50.31 46.58 50.47 51.59 50.95 51.38 51.74 51.38 52.54 51.31 53.34 49.48 53.5 50.16 53.65 50.76 53.81 51.61 53.97 51.83 54.29 51.84 54.61 51.39 55.25 51.48 55.41 51.49 55.57 51.41 55.73 51.41 55.89 43.78 56.04 41.75 56.2 42.91 58.12 49.84 58.43 50.06 58.59 51.4 58.91 51.48 59.55 51.48 59.87 51.49 60.19 51.58 60.82 51.52 61.14 39.87 61.3 43.39 61.62 45.76 61.78 45.76 61.94 45.78 62.1 45.46 62.26 45.53 62.42 45.9 62.74 46.05 62.9 45.94 63.21 41.25 63.53 41.5 63.69 42.89 63.85 42.91 64.17 43.51 64.33 44.29 65.13 44.63 65.76 45.01 65.92 44.98 67.2 45.91 67.36 45.97 67.52 46.04 67.99 45.97 68.15 45.98 68.31 46.01 68.63 46.24 68.95 46.11 69.27 46.2 70.7 46.04"/>
      </g>
      <g stroke-width="0.3" fill="#000000" fill-opacity="0.000" class="geometry color_newno_tests" stroke-dasharray="none" stroke="#0000FF" id="fig-2e724ddead534dbda1afbf8367af8f2a-element-16">
        <path fill="none" d="M21.63,49.6 L 21.79 49.53 21.95 49.55 22.11 50.22 22.27 50.22 22.43 50.22 22.75 49.71 22.91 49.71 23.07 49.84 23.22 49.84 23.38 49.84 23.54 49.88 23.7 49.9 23.86 50.01 24.18 50.35 24.34 50.5 24.66 50.52 24.82 50.52 24.98 50.52 25.61 50.52 26.09 50.48 26.25 50.49 26.41 50.4 26.57 50.43 26.73 50.43 26.89 50.43 27.05 50.51 27.21 50.61 27.37 50.61 27.69 50.53 27.85 50.63 28 50.54 28.16 50.54 28.32 50.54 28.48 50.55 28.64 50.75 28.96 50.54 29.12 50.84 29.28 50.84 29.44 50.57 29.6 50.59 29.76 50.59 29.92 50.59 30.08 50.61 30.55 51.02 30.71 50.73 30.87 50.65 31.03 50.66 31.19 50.66 31.35 50.66 31.51 50.68 31.67 50.68 31.83 50.69 31.99 50.7 32.15 50.7 32.31 50.7 32.47 50.7 32.62 50.72 32.78 50.74 32.94 51.31 33.1 51.31 33.26 51.32 33.42 51.13 33.58 51.14 33.74 50.76 33.9 50.78 34.06 50.79 34.22 50.79 34.38 50.8 34.54 50.8 34.7 50.8 34.86 50.8 35.01 50.81 35.17 50.82 35.65 50.82 36.45 50.88 36.61 50.89 36.77 50.89 36.93 50.9 37.09 50.9 37.24 50.93 37.4 50.93 38.04 50.97 38.2 50.97 39 50.98 39.32 50.98 39.48 51 39.63 51.01 39.79 51.1 39.95 51.01 40.11 51.03 40.27 51.04 40.75 51.05 40.91 51.06 41.23 51.09 41.39 51.09 41.55 51.09 42.02 51.09 42.34 51.11 42.82 51.04 43.46 51.14 43.78 51.09 44.26 51.1 45.37 51.16 46.01 51.21 46.17 51.23 46.33 51.23 46.49 51.27 46.64 51.27 46.8 51.27 47.12 51.28 47.28 51.29 47.44 51.29 47.6 51.31 47.76 51.32 47.92 51.32 48.08 51.32 48.4 51.34 48.56 51.36 48.72 51.37 49.35 51.5 49.51 51.5 49.67 51.48 49.99 51.5 50.31 51.67 50.47 51.44 50.95 51.45 51.74 51.45 52.54 51.46 53.34 51.75 53.5 51.67 53.65 51.67 53.81 51.68 53.97 51.61 54.29 51.62 54.61 51.69 55.25 51.7 55.41 51.71 55.57 51.79 55.73 51.79 55.89 52.61 56.04 52.68 56.2 52.69 58.12 51.83 58.43 51.83 58.59 51.84 58.91 51.84 59.55 51.85 59.87 51.85 60.19 51.87 60.82 51.95 61.14 52.54 61.3 52.41 61.62 52.36 61.78 52.29 61.94 52.37 62.1 52.37 62.26 52.37 62.42 52.38 62.74 52.38 62.9 52.46 63.21 52.67 63.53 52.54 63.69 52.48 63.85 52.49 64.17 52.5 64.33 52.43 65.13 52.45 65.76 52.39 65.92 52.4 67.2 52.34 67.36 52.34 67.52 52.34 67.99 52.36 68.15 52.36 68.31 52.37 68.63 52.38 68.95 52.38 69.27 52.39 70.7 52.42"/>
      </g>
      <g stroke-width="0.3" fill="#000000" fill-opacity="0.000" class="geometry color_oldfull_fail" stroke-dasharray="none" stroke="#FFA500" id="fig-2e724ddead534dbda1afbf8367af8f2a-element-17">
        <path fill="none" d="M21.63,51.37 L 21.79 51.4 21.95 50.42 22.11 50.33 22.27 50.22 22.43 50.22 22.75 50.26 22.91 50.36 23.07 50.59 23.22 50.27 23.38 50.16 23.54 50.41 23.7 50.54 23.86 50.22 24.18 49.82 24.34 50.5 24.66 50.41 24.82 50.41 24.98 50.41 25.61 50.41 26.09 50.17 26.25 50.29 26.41 50.4 26.57 50.22 26.73 50.32 26.89 50.53 27.05 50.21 27.21 50.01 27.37 50.01 27.69 50.43 27.85 50.33 28 50.34 28.16 50.54 28.32 50.44 28.48 50.05 28.64 50.15 28.96 50.64 29.12 49.55 29.28 49.26 29.44 49.78 29.6 49.9 29.76 49.9 29.92 49.9 30.08 49.83 30.55 48 30.71 49.07 30.87 50.17 31.03 50.08 31.19 49.79 31.35 50.08 31.51 50.2 31.67 50.2 31.83 50.02 31.99 49.94 32.15 50.32 32.31 50.32 32.47 50.22 32.62 50.15 32.78 50.17 32.94 51.22 33.1 51.12 33.26 51.13 33.42 51.04 33.58 50.86 33.74 48.4 33.9 49.09 34.06 49.48 34.22 49.01 34.38 49.02 34.54 48.93 34.7 48.93 34.86 48.93 35.01 49.13 35.17 49.42 35.65 49.42 36.45 49.31 36.61 49.16 36.77 49.16 36.93 49.26 37.09 49.35 37.24 49.48 37.4 49.3 38.04 48.56 38.2 48.65 39 48.12 39.32 48.39 39.48 48.6 39.63 48.7 39.79 48.7 39.95 48.88 40.11 48.82 40.27 48.76 40.75 48.24 40.91 48.34 41.23 48.31 41.39 47.97 41.55 48.23 42.02 48.4 42.34 48.6 42.82 48.37 43.46 48.48 43.78 48.96 44.26 48.65 45.37 48.41 46.01 48.75 46.17 48.77 46.33 48.77 46.49 48.6 46.64 48.36 46.8 48.44 47.12 48.62 47.28 48.55 47.44 48.55 47.6 48.26 47.76 48.36 47.92 48.28 48.08 48.28 48.4 48.4 48.56 48.28 48.72 48.05 49.35 47.93 49.51 47.77 49.67 47.89 49.99 48 50.31 49.74 50.47 47.27 50.95 46.92 51.74 46.92 52.54 47.01 53.34 47.52 53.5 47.37 53.65 47.22 53.81 47.25 53.97 47.47 54.29 47.27 54.61 46.15 55.25 45.49 55.41 45.6 55.57 45.38 55.73 45.53 55.89 48.09 56.04 48.89 56.2 48.25 58.12 46.53 58.43 46.46 58.59 45.84 58.91 46.28 59.55 46.81 59.87 46.9 60.19 46.8 60.82 47.11 61.14 49.23 61.3 48.69 61.62 47.61 61.78 47.54 61.94 47.27 62.1 45.95 62.26 46.37 62.42 46.67 62.74 46.76 62.9 46.85 63.21 48.54 63.53 48.56 63.69 48.17 63.85 48.12 64.17 48.35 64.33 47.81 65.13 47.92 65.76 48.15 65.92 48.18 67.2 48.41 67.36 48.41 67.52 48.62 67.99 48.32 68.15 48.26 68.31 48.35 68.63 48.18 68.95 47.91 69.27 47.67 70.7 47.55"/>
      </g>
      <g stroke-width="0.3" fill="#000000" fill-opacity="0.000" class="geometry color_newtests_pass" stroke-dasharray="none" stroke="#008000" id="fig-2e724ddead534dbda1afbf8367af8f2a-element-18">
        <path fill="none" d="M21.63,30.11 L 21.79 30.32 21.95 31.04 22.11 32.85 22.27 32.96 22.43 32.96 22.75 31.08 22.91 30.86 23.07 30.6 23.22 30.71 23.38 30.71 23.54 30.48 23.7 30.29 23.86 30.39 24.18 31.16 24.34 30.61 24.66 30.73 24.82 30.73 24.98 30.73 25.61 30.73 26.09 30.69 26.25 30.55 26.41 30.51 26.57 30.53 26.73 30.32 26.89 29.81 27.05 29.91 27.21 30.01 27.37 30.01 27.69 29.97 27.85 30.07 28 30.04 28.16 29.84 28.32 29.84 28.48 30.4 28.64 30.4 28.96 29.44 29.12 33.27 29.28 33.67 29.44 31.5 29.6 31.42 29.76 31.32 29.92 31.32 30.08 31.34 30.55 34.57 30.71 32.43 30.87 31.08 31.03 31.04 31.19 31.24 31.35 31.14 31.51 30.77 31.67 30.77 31.83 31.12 31.99 31.27 32.15 31.27 32.31 31.08 32.47 30.89 32.62 30.9 32.78 30.83 32.94 36.71 33.1 36.8 33.26 36.75 33.42 35.99 33.58 36.13 33.74 32.83 33.9 31.99 34.06 31.48 34.22 31.95 34.38 31.91 34.54 32 34.7 32 34.86 32 35.01 31.68 35.17 31.46 35.65 31.18 36.45 31.23 36.61 31.34 36.77 31.34 36.93 31.21 37.09 31.12 37.24 31 37.4 31.19 38.04 31.81 38.2 31.81 39 32.13 39.32 31.77 39.48 31.96 39.63 31.39 39.79 31.39 39.95 31.21 40.11 31.23 40.27 31.24 40.75 31.47 40.91 31.35 41.23 32.24 41.39 32.59 41.55 32.33 42.02 32.16 42.34 31.91 42.82 31.15 43.46 30.9 43.78 30.51 44.26 30.7 45.37 30.97 46.01 30.65 46.17 30.59 46.33 30.59 46.49 30.96 46.64 31.69 46.8 31.61 47.12 31.41 47.28 31.46 47.44 31.46 47.6 31.76 47.76 31.64 47.92 31.72 48.08 31.72 48.4 31.62 48.56 31.76 48.72 31.96 49.35 32.24 49.51 32.39 49.67 32.34 49.99 32.24 50.31 35.3 50.47 32.99 50.95 33.53 51.74 33.53 52.54 33.5 53.34 34.46 53.5 34.01 53.65 33.56 53.81 33.18 53.97 32.73 54.29 32.97 54.61 34.46 55.25 35.03 55.41 34.88 55.57 35.1 55.73 34.95 55.89 39.18 56.04 40.27 56.2 39.8 58.12 35.5 58.43 35.43 58.59 34.65 58.91 34.14 59.55 33.6 59.87 33.49 60.19 33.46 60.82 33.1 61.14 42.03 61.3 39.17 61.62 37.89 61.78 38.03 61.94 38.2 62.1 39.81 62.26 39.32 62.42 38.64 62.74 38.39 62.9 38.3 63.21 41.11 63.53 40.95 63.69 39.97 63.85 40 64.17 39.15 64.33 38.97 65.13 38.46 65.76 37.84 65.92 37.9 67.2 36.76 67.36 36.83 67.52 36.56 67.99 36.88 68.15 36.91 68.31 36.7 68.63 36.63 68.95 37.03 69.27 37.16 70.7 37.36"/>
      </g>
    </g>
  </g>
  <g class="guide ylabels" font-size="2.82" font-family="'PT Sans Caption','Helvetica Neue','Helvetica',sans-serif" fill="#6C606B" id="fig-2e724ddead534dbda1afbf8367af8f2a-element-19">
    <text x="18.63" y="54.91" text-anchor="end" dy="0.35em">0</text>
    <text x="18.63" y="34.76" text-anchor="end" dy="0.35em">50</text>
    <text x="18.63" y="14.61" text-anchor="end" dy="0.35em">100</text>
  </g>
  <g font-size="3.88" font-family="'PT Sans','Helvetica Neue','Helvetica',sans-serif" fill="#564A55" stroke="#000000" stroke-opacity="0.000" id="fig-2e724ddead534dbda1afbf8367af8f2a-element-20">
    <text x="8.81" y="32.76" text-anchor="middle" dy="0.35em" transform="rotate(-90, 8.81, 34.76)">Percentage of Packages</text>
  </g>
  <g font-size="3.88" font-family="'PT Sans','Helvetica Neue','Helvetica',sans-serif" fill="#564A55" stroke="#000000" stroke-opacity="0.000" id="fig-2e724ddead534dbda1afbf8367af8f2a-element-21">
    <text x="58.12" y="10.61" text-anchor="middle">Julia v0.4 (relative)</text>
  </g>
</g>
<defs>
<clipPath id="fig-2e724ddead534dbda1afbf8367af8f2a-element-5">
  <path d="M19.63,12.61 L 96.6 12.61 96.6 56.91 19.63 56.91" />
</clipPath
></defs>
</svg>
