<?xml version="1.0" encoding="UTF-8"?>
<svg xmlns="http://www.w3.org/2000/svg"
     xmlns:xlink="http://www.w3.org/1999/xlink"
     xmlns:gadfly="http://www.gadflyjl.org/ns"
     version="1.2"
     width="101.6mm" height="76.2mm" viewBox="0 0 101.6 76.2"
     stroke="none"
     fill="#000000"
     stroke-width="0.3"
     font-size="3.88"
>
<g class="plotroot xscalable yscalable" id="img-c7d14296-1">
  <g font-size="3.88" font-family="'PT Sans','Helvetica Neue','Helvetica',sans-serif" fill="#564A55" stroke="#000000" stroke-opacity="0.000" id="img-c7d14296-2">
    <text x="58.12" y="64.59" text-anchor="middle" dy="0.6em">Date</text>
  </g>
  <g class="guide xlabels" font-size="2.82" font-family="'PT Sans Caption','Helvetica Neue','Helvetica',sans-serif" fill="#6C606B" id="img-c7d14296-3">
    <text x="24.59" y="48.71" text-anchor="end" dy="0.35em" transform="rotate(-90, 24.59, 48.71)">Sep</text>
    <text x="29.26" y="48.71" text-anchor="end" dy="0.35em" transform="rotate(-90, 29.26, 48.71)">Oct</text>
    <text x="34.08" y="48.71" text-anchor="end" dy="0.35em" transform="rotate(-90, 34.08, 48.71)">Nov</text>
    <text x="38.75" y="48.71" text-anchor="end" dy="0.35em" transform="rotate(-90, 38.75, 48.71)">Dec</text>
    <text x="43.57" y="48.71" text-anchor="end" dy="0.35em" transform="rotate(-90, 43.57, 48.71)">Jan 2015</text>
    <text x="48.39" y="48.71" text-anchor="end" dy="0.35em" transform="rotate(-90, 48.39, 48.71)">Feb</text>
    <text x="52.75" y="48.71" text-anchor="end" dy="0.35em" transform="rotate(-90, 52.75, 48.71)">Mar</text>
    <text x="57.57" y="48.71" text-anchor="end" dy="0.35em" transform="rotate(-90, 57.57, 48.71)">Apr</text>
    <text x="62.24" y="48.71" text-anchor="end" dy="0.35em" transform="rotate(-90, 62.24, 48.71)">May</text>
    <text x="67.06" y="48.71" text-anchor="end" dy="0.35em" transform="rotate(-90, 67.06, 48.71)">Jun</text>
    <text x="71.73" y="48.71" text-anchor="end" dy="0.35em" transform="rotate(-90, 71.73, 48.71)">Jul</text>
    <text x="76.55" y="48.71" text-anchor="end" dy="0.35em" transform="rotate(-90, 76.55, 48.71)">Aug</text>
    <text x="81.38" y="48.71" text-anchor="end" dy="0.35em" transform="rotate(-90, 81.38, 48.71)">Sep</text>
    <text x="86.04" y="48.71" text-anchor="end" dy="0.35em" transform="rotate(-90, 86.04, 48.71)">Oct</text>
    <text x="90.87" y="48.71" text-anchor="end" dy="0.35em" transform="rotate(-90, 90.87, 48.71)">Nov</text>
  </g>
<g clip-path="url(#img-c7d14296-4)">
  <g id="img-c7d14296-5">
    <g pointer-events="visible" opacity="1" fill="#000000" fill-opacity="0.000" stroke="#000000" stroke-opacity="0.000" class="guide background" id="img-c7d14296-6">
      <rect x="19.63" y="12.61" width="76.97" height="35.1"/>
    </g>
    <g class="guide ygridlines xfixed" stroke-dasharray="0.5,0.5" stroke-width="0.2" stroke="#D0D0E0" id="img-c7d14296-7">
      <path fill="none" d="M19.63,45.71 L 96.6 45.71"/>
      <path fill="none" d="M19.63,39.49 L 96.6 39.49"/>
      <path fill="none" d="M19.63,33.27 L 96.6 33.27"/>
      <path fill="none" d="M19.63,27.05 L 96.6 27.05"/>
      <path fill="none" d="M19.63,20.83 L 96.6 20.83"/>
      <path fill="none" d="M19.63,14.61 L 96.6 14.61"/>
    </g>
    <g class="guide xgridlines yfixed" stroke-dasharray="0.5,0.5" stroke-width="0.2" stroke="#D0D0E0" id="img-c7d14296-8">
      <path fill="none" d="M24.59,12.61 L 24.59 47.71"/>
      <path fill="none" d="M29.26,12.61 L 29.26 47.71"/>
      <path fill="none" d="M34.08,12.61 L 34.08 47.71"/>
      <path fill="none" d="M38.75,12.61 L 38.75 47.71"/>
      <path fill="none" d="M43.57,12.61 L 43.57 47.71"/>
      <path fill="none" d="M48.39,12.61 L 48.39 47.71"/>
      <path fill="none" d="M52.75,12.61 L 52.75 47.71"/>
      <path fill="none" d="M57.57,12.61 L 57.57 47.71"/>
      <path fill="none" d="M62.24,12.61 L 62.24 47.71"/>
      <path fill="none" d="M67.06,12.61 L 67.06 47.71"/>
      <path fill="none" d="M71.73,12.61 L 71.73 47.71"/>
      <path fill="none" d="M76.55,12.61 L 76.55 47.71"/>
      <path fill="none" d="M81.38,12.61 L 81.38 47.71"/>
      <path fill="none" d="M86.04,12.61 L 86.04 47.71"/>
      <path fill="none" d="M90.87,12.61 L 90.87 47.71"/>
    </g>
    <g class="plotpanel" id="img-c7d14296-9">
      <g stroke-width="0.3" fill="#000000" fill-opacity="0.000" class="geometry color_newnot_possible" stroke-dasharray="none" stroke="#808080" id="img-c7d14296-10">
        <path fill="none" d="M70.02,42.35 L 70.17 42.35 70.33 42.35 70.48 42.35 70.64 42.35 70.8 42.35 70.95 42.35 71.11 42.35 71.57 42.35 71.88 42.35 72.2 42.35 72.35 42.35 72.51 42.35 72.66 42.35 72.82 42.35 72.97 42.35 75.62 42.29 76.86 42.29 78.26 42.29 80.91 42.29 81.38 42.29 82.15 42.29 82.93 41.91 85.42 41.91 86.04 41.91 86.82 41.85 87.44 41.79 88.07 41.79 88.53 41.73 90.4 41.73 92.27 41.67 92.89 41.67 93.2 41.6 94.6 41.6"/>
      </g>
      <g stroke-width="0.3" fill="#000000" fill-opacity="0.000" class="geometry color_newno_tests" stroke-dasharray="none" stroke="#0000FF" id="img-c7d14296-11">
        <path fill="none" d="M70.02,38.99 L 70.17 38.99 70.33 38.99 70.48 38.99 70.64 38.99 70.8 38.99 70.95 38.99 71.11 38.99 71.57 38.99 71.88 38.99 72.2 38.99 72.35 38.99 72.51 39.05 72.66 39.05 72.82 39.05 72.97 39.12 75.62 39.05 76.86 39.05 78.26 39.05 80.91 39.05 81.38 39.12 82.15 39.12 82.93 39.18 85.42 39.43 86.04 39.61 86.82 39.74 87.44 40.8 88.07 40.86 88.53 40.98 90.4 41.04 92.27 41.11 92.89 41.11 93.2 41.11 94.6 41.11"/>
      </g>
      <g stroke-width="0.3" fill="#000000" fill-opacity="0.000" class="geometry color_newtests_fail" stroke-dasharray="none" stroke="#FF0000" id="img-c7d14296-12">
        <path fill="none" d="M70.02,33.02 L 70.17 33.46 70.33 33.33 70.48 32.09 70.64 32.03 70.8 32.21 70.95 32.21 71.11 33.21 71.57 32.65 71.88 32.65 72.2 33.33 72.35 33.46 72.51 32.03 72.66 33.27 72.82 32.34 72.97 32.77 75.62 33.27 76.86 32.9 78.26 33.46 80.91 33.21 81.38 33.52 82.15 33.83 82.93 34.7 85.42 34.51 86.04 34.89 86.82 35.07 87.44 35.7 88.07 35.94 88.53 36.38 90.4 36.13 92.27 36.25 92.89 36.44 93.2 36.63 94.6 36.63"/>
      </g>
      <g stroke-width="0.3" fill="#000000" fill-opacity="0.000" class="geometry color_newtests_pass" stroke-dasharray="none" stroke="#008000" id="img-c7d14296-13">
        <path fill="none" d="M70.02,30.35 L 70.17 29.91 70.33 29.91 70.48 31.16 70.64 31.03 70.8 30.84 70.95 30.84 71.11 29.79 71.57 30.28 71.88 30.16 72.2 29.48 72.35 29.23 72.51 30.35 72.66 28.98 72.82 29.85 72.97 29.35 75.62 28.05 76.86 28.05 78.26 27.17 80.91 25.87 81.38 25.37 82.15 24.81 82.93 23.82 85.42 22.57 86.04 21.64 86.82 20.83 87.44 20.77 88.07 20.15 88.53 19.46 90.4 18.28 92.27 17.47 92.89 17.22 93.2 16.85 94.6 16.6"/>
      </g>
      <g stroke-width="0.3" fill="#000000" fill-opacity="0.000" class="geometry color_newnot_possible" stroke-dasharray="none" stroke="#808080" id="img-c7d14296-14">
        <path fill="none" d="M21.63,43.34 L 21.79 43.28 21.94 43.22 22.1 43.22 22.25 43.22 22.41 43.22 22.72 43.22 22.88 43.22 23.03 43.22 23.19 43.22 23.34 43.22 23.5 43.22 23.65 43.22 23.81 43.22 24.12 43.22 24.28 43.16 24.59 43.16 24.74 43.16 24.9 43.1 25.52 43.1 25.99 43.1 26.14 43.1 26.3 43.1 26.45 43.1 26.61 43.1 26.77 43.1 26.92 43.1 27.08 43.1 27.23 43.1 27.54 43.03 27.7 43.03 27.85 43.03 28.01 43.03 28.17 43.03 28.32 43.03 28.48 42.97 28.79 42.97 28.94 42.97 29.1 42.97 29.26 42.97 29.41 42.91 29.57 42.91 29.72 42.91 29.88 42.91 30.34 42.91 30.5 42.85 30.66 42.85 30.81 42.85 30.97 42.85 31.12 42.85 31.28 42.85 31.43 42.85 31.59 42.85 31.74 42.85 31.9 42.79 32.06 42.79 32.21 42.79 32.37 42.79 32.52 42.79 32.68 42.79 32.83 42.79 32.99 42.79 33.14 42.79 33.3 42.79 33.46 42.79 33.61 42.79 33.77 42.79 33.92 42.79 34.08 42.79 34.23 42.79 34.39 42.79 34.55 42.79 34.7 42.79 34.86 42.79 35.32 42.79 36.1 42.79 36.26 42.79 36.41 42.79 36.57 42.79 36.72 42.79 36.88 42.79 37.03 42.79 37.66 42.79 37.81 42.79 38.59 42.79 38.9 42.79 39.06 42.85 39.21 42.85 39.37 42.85 39.52 42.85 39.68 42.85 39.83 42.85 40.3 42.85 40.46 42.85 40.77 42.85 40.92 42.85 41.08 42.85 41.55 42.85 41.86 42.85 42.32 42.85 42.95 42.85 43.26 42.85 43.72 42.85 44.81 42.85 45.44 42.85 45.59 42.72 45.75 42.72 45.9 42.66 46.06 42.66 46.21 42.66 46.52 42.66 46.68 42.66 46.84 42.66 46.99 42.6 47.15 42.6 47.3 42.6 47.46 42.6 47.77 42.54 47.93 42.54 48.08 42.54 48.7 42.54 48.86 42.54 49.01 42.54 49.33 42.54 49.64 42.54 49.79 42.54 50.26 42.54 51.04 42.54 51.81 42.54 52.59 42.54 52.75 42.54 52.9 42.54 53.06 42.1 53.21 42.16 53.53 42.1 53.84 42.1 54.46 42.1 54.62 42.1 54.77 42.1 54.93 42.1 55.08 42.1 55.24 42.16 55.39 42.1 57.26 42.04 57.57 41.98 57.73 41.98 58.04 41.98 58.66 41.98 58.97 41.98 59.28 41.98 59.91 41.98 60.22 41.98 60.37 41.98 60.68 41.98 60.84 41.98 60.99 41.98 61.15 41.98 61.31 41.98 61.46 41.98 61.77 41.98 61.93 41.98 62.24 41.98 62.55 41.98 62.71 41.98 62.86 41.98 63.17 41.98 63.33 41.98 64.11 41.98 64.73 42.04 64.88 41.98 66.13 41.98 66.28 41.85 66.44 41.85 66.91 41.85 67.06 41.85 67.22 41.91 67.53 41.91 67.84 41.91 68.15 41.91 69.55 41.91"/>
      </g>
      <g stroke-width="0.3" fill="#000000" fill-opacity="0.000" class="geometry color_newtests_fail" stroke-dasharray="none" stroke="#FF0000" id="img-c7d14296-15">
        <path fill="none" d="M21.63,44.34 L 21.79 44.28 21.94 44.46 22.1 43.1 22.25 43.1 22.41 43.1 22.72 44.4 22.88 44.46 23.03 44.4 23.19 44.53 23.34 44.59 23.5 44.53 23.65 44.53 23.81 44.59 24.12 44.15 24.28 44.03 24.59 43.97 24.74 43.97 24.9 44.03 25.52 44.03 25.99 44.15 26.14 44.15 26.3 44.15 26.45 44.22 26.61 44.28 26.77 44.46 26.92 44.46 27.08 44.46 27.23 44.46 27.54 44.34 27.7 44.28 27.85 44.34 28.01 44.34 28.17 44.4 28.32 44.28 28.48 44.15 28.79 44.59 28.94 42.66 29.1 42.6 29.26 43.78 29.41 43.78 29.57 43.84 29.72 43.84 29.88 43.84 30.34 42.66 30.5 43.59 30.66 43.78 30.81 43.84 30.97 43.9 31.12 43.78 31.28 43.9 31.43 43.9 31.59 43.78 31.74 43.72 31.9 43.53 32.06 43.66 32.21 43.84 32.37 43.84 32.52 43.84 32.68 38.93 32.83 38.93 32.99 38.93 33.14 39.61 33.3 39.61 33.46 43.66 33.61 43.72 33.77 43.78 33.92 43.78 34.08 43.78 34.23 43.78 34.39 43.78 34.55 43.78 34.7 43.84 34.86 43.78 35.32 43.97 36.1 43.9 36.26 43.9 36.41 43.9 36.57 43.9 36.72 43.9 36.88 43.84 37.03 43.84 37.66 43.84 37.81 43.78 38.59 43.9 38.9 43.97 39.06 43.59 39.21 43.9 39.37 43.84 39.52 43.9 39.68 43.9 39.83 43.9 40.3 44.09 40.46 44.09 40.77 43.41 40.92 43.41 41.08 43.41 41.55 43.41 41.86 43.41 42.32 44.15 42.95 44.15 43.26 44.09 43.72 44.15 44.81 44.03 45.44 43.9 45.59 44.03 45.75 44.03 45.9 43.84 46.06 43.47 46.21 43.47 46.52 43.47 46.68 43.47 46.84 43.47 46.99 43.47 47.15 43.47 47.3 43.47 47.46 43.47 47.77 43.47 47.93 43.41 48.08 43.41 48.7 43.1 48.86 43.1 49.01 43.1 49.33 43.03 49.64 38.99 49.79 43.03 50.26 42.85 51.04 42.85 51.81 42.79 52.59 41.23 52.75 41.79 52.9 42.29 53.06 42.97 53.21 43.16 53.53 43.16 53.84 42.79 54.46 42.85 54.62 42.85 54.77 42.79 54.93 42.79 55.08 36.38 55.24 34.7 55.39 35.63 57.26 41.42 57.57 41.6 57.73 42.72 58.04 42.79 58.66 42.79 58.97 42.79 59.28 42.85 59.91 42.79 60.22 32.71 60.37 35.7 60.68 37.69 60.84 37.69 60.99 37.69 61.15 37.37 61.31 37.44 61.46 37.75 61.77 37.87 61.93 37.75 62.24 33.58 62.55 33.77 62.71 34.95 62.86 34.95 63.17 35.45 63.33 36.13 64.11 36.38 64.73 36.69 64.88 36.63 66.13 37.44 66.28 37.5 66.44 37.56 66.91 37.44 67.06 37.44 67.22 37.44 67.53 37.62 67.84 37.5 68.15 37.56 69.55 37.31"/>
      </g>
      <g stroke-width="0.3" fill="#000000" fill-opacity="0.000" class="geometry color_newno_tests" stroke-dasharray="none" stroke="#0000FF" id="img-c7d14296-16">
        <path fill="none" d="M21.63,42.72 L 21.79 42.66 21.94 42.66 22.1 43.03 22.25 43.03 22.41 43.03 22.72 42.72 22.88 42.72 23.03 42.79 23.19 42.79 23.34 42.79 23.5 42.79 23.65 42.79 23.81 42.85 24.12 43.03 24.28 43.1 24.59 43.1 24.74 43.1 24.9 43.1 25.52 43.1 25.99 43.03 26.14 43.03 26.3 42.97 26.45 42.97 26.61 42.97 26.77 42.97 26.92 42.97 27.08 43.03 27.23 43.03 27.54 42.97 27.7 43.03 27.85 42.97 28.01 42.97 28.17 42.97 28.32 42.97 28.48 43.1 28.79 42.97 28.94 43.16 29.1 43.16 29.26 42.97 29.41 42.97 29.57 42.97 29.72 42.97 29.88 42.97 30.34 43.22 30.5 43.03 30.66 42.97 30.81 42.97 30.97 42.97 31.12 42.97 31.28 42.97 31.43 42.97 31.59 42.97 31.74 42.97 31.9 42.97 32.06 42.97 32.21 42.97 32.37 42.97 32.52 42.97 32.68 43.34 32.83 43.34 32.99 43.34 33.14 43.22 33.3 43.22 33.46 42.97 33.61 42.97 33.77 42.97 33.92 42.97 34.08 42.97 34.23 42.97 34.39 42.97 34.55 42.97 34.7 42.97 34.86 42.97 35.32 42.97 36.1 42.97 36.26 42.97 36.41 42.97 36.57 42.97 36.72 42.97 36.88 42.97 37.03 42.97 37.66 42.97 37.81 42.97 38.59 42.97 38.9 42.97 39.06 42.97 39.21 42.97 39.37 43.03 39.52 42.97 39.68 42.97 39.83 42.97 40.3 42.97 40.46 42.97 40.77 42.97 40.92 42.97 41.08 42.97 41.55 42.97 41.86 42.97 42.32 42.91 42.95 42.97 43.26 42.91 43.72 42.91 44.81 42.91 45.44 42.91 45.59 42.91 45.75 42.91 45.9 42.91 46.06 42.91 46.21 42.91 46.52 42.91 46.68 42.91 46.84 42.91 46.99 42.91 47.15 42.91 47.3 42.91 47.46 42.91 47.77 42.91 47.93 42.91 48.08 42.91 48.7 42.97 48.86 42.97 49.01 42.97 49.33 42.97 49.64 43.1 49.79 42.91 50.26 42.91 51.04 42.91 51.81 42.91 52.59 43.1 52.75 43.03 52.9 43.03 53.06 43.03 53.21 42.97 53.53 42.97 53.84 43.03 54.46 43.03 54.62 43.03 54.77 43.1 54.93 43.1 55.08 43.78 55.24 43.84 55.39 43.84 57.26 43.1 57.57 43.1 57.73 43.1 58.04 43.1 58.66 43.1 58.97 43.1 59.28 43.1 59.91 43.16 60.22 43.66 60.37 43.53 60.68 43.47 60.84 43.41 60.99 43.47 61.15 43.47 61.31 43.47 61.46 43.47 61.77 43.47 61.93 43.53 62.24 43.72 62.55 43.59 62.71 43.53 62.86 43.53 63.17 43.53 63.33 43.47 64.11 43.47 64.73 43.41 64.88 43.41 66.13 43.34 66.28 43.34 66.44 43.34 66.91 43.34 67.06 43.34 67.22 43.34 67.53 43.34 67.84 43.34 68.15 43.34 69.55 43.34"/>
      </g>
      <g stroke-width="0.3" fill="#000000" fill-opacity="0.000" class="geometry color_oldfull_fail" stroke-dasharray="none" stroke="#FFA500" id="img-c7d14296-17">
        <path fill="none" d="M21.63,43.72 L 21.79 43.72 21.94 43.16 22.1 43.1 22.25 43.03 22.41 43.03 22.72 43.03 22.88 43.1 23.03 43.22 23.19 43.03 23.34 42.97 23.5 43.1 23.65 43.16 23.81 42.97 24.12 42.72 24.28 43.1 24.59 43.03 24.74 43.03 24.9 43.03 25.52 43.03 25.99 42.85 26.14 42.91 26.3 42.97 26.45 42.85 26.61 42.91 26.77 43.03 26.92 42.79 27.08 42.66 27.23 42.66 27.54 42.91 27.7 42.85 27.85 42.85 28.01 42.97 28.17 42.91 28.32 42.66 28.48 42.72 28.79 43.03 28.94 42.35 29.1 42.16 29.26 42.47 29.41 42.54 29.57 42.54 29.72 42.54 29.88 42.47 30.34 41.29 30.5 41.98 30.66 42.66 30.81 42.6 30.97 42.41 31.12 42.6 31.28 42.66 31.43 42.66 31.59 42.54 31.74 42.47 31.9 42.72 32.06 42.72 32.21 42.66 32.37 42.6 32.52 42.6 32.68 43.28 32.83 43.22 32.99 43.22 33.14 43.16 33.3 43.03 33.46 41.42 33.61 41.85 33.77 42.1 33.92 41.79 34.08 41.79 34.23 41.73 34.39 41.73 34.55 41.73 34.7 41.85 34.86 42.04 35.32 42.04 36.1 41.91 36.26 41.79 36.41 41.79 36.57 41.85 36.72 41.91 36.88 41.98 37.03 41.85 37.66 41.29 37.81 41.35 38.59 40.98 38.9 41.17 39.06 41.29 39.21 41.35 39.37 41.35 39.52 41.48 39.68 41.42 39.83 41.35 40.3 40.98 40.46 41.04 40.77 40.98 40.92 40.73 41.08 40.92 41.55 41.04 41.86 41.17 42.32 40.98 42.95 41.04 43.26 41.35 43.72 41.11 44.81 40.86 45.44 41.04 45.59 41.04 45.75 41.04 45.9 40.86 46.06 40.67 46.21 40.73 46.52 40.86 46.68 40.8 46.84 40.8 46.99 40.55 47.15 40.61 47.3 40.55 47.46 40.55 47.77 40.61 47.93 40.48 48.08 40.3 48.7 40.11 48.86 39.99 49.01 40.11 49.33 40.17 49.64 41.54 49.79 39.55 50.26 39.24 51.04 39.24 51.81 39.3 52.59 39.61 52.75 39.49 52.9 39.36 53.06 39.36 53.21 39.55 53.53 39.36 53.84 38.43 54.46 37.87 54.62 37.93 54.77 37.75 54.93 37.87 55.08 39.99 55.24 40.67 55.39 40.11 57.26 38.62 57.57 38.56 57.73 38 58.04 38.37 58.66 38.8 58.97 38.87 59.28 38.74 59.91 38.99 60.22 40.8 60.37 40.3 60.68 39.3 60.84 39.24 60.99 38.99 61.15 37.81 61.31 38.18 61.46 38.43 61.77 38.49 61.93 38.56 62.24 40.05 62.55 40.05 62.71 39.68 62.86 39.61 63.17 39.8 63.33 39.3 64.11 39.36 64.73 39.55 64.88 39.55 66.13 39.74 66.28 39.74 66.44 39.92 66.91 39.61 67.06 39.55 67.22 39.61 67.53 39.43 67.84 39.18 68.15 38.93 69.55 38.74"/>
      </g>
      <g stroke-width="0.3" fill="#000000" fill-opacity="0.000" class="geometry color_newtests_pass" stroke-dasharray="none" stroke="#008000" id="img-c7d14296-18">
        <path fill="none" d="M21.63,31.78 L 21.79 31.78 21.94 32.15 22.1 33.15 22.25 33.21 22.41 33.21 22.72 32.03 22.88 31.9 23.03 31.71 23.19 31.78 23.34 31.78 23.5 31.53 23.65 31.34 23.81 31.4 24.12 31.78 24.28 31.34 24.59 31.34 24.74 31.34 24.9 31.34 25.52 31.34 25.99 31.09 26.14 30.97 26.3 30.91 26.45 30.84 26.61 30.72 26.77 30.41 26.92 30.16 27.08 30.22 27.23 30.22 27.54 30.16 27.7 30.22 27.85 30.16 28.01 30.04 28.17 30.04 28.32 30.35 28.48 30.35 28.79 29.79 28.94 32.15 29.1 32.4 29.26 30.97 29.41 30.84 29.57 30.78 29.72 30.78 29.88 30.72 30.34 32.71 30.5 31.34 30.66 30.41 30.81 30.35 30.97 30.47 31.12 30.41 31.28 30.1 31.43 30.1 31.59 30.28 31.74 30.35 31.9 30.35 32.06 30.22 32.21 30.1 32.37 30.04 32.52 29.91 32.68 33.77 32.83 33.83 32.99 33.77 33.14 33.27 33.3 33.33 33.46 31.16 33.61 30.53 33.77 30.16 33.92 30.47 34.08 30.41 34.23 30.47 34.39 30.47 34.55 30.47 34.7 30.22 34.86 30.04 35.32 29.85 36.1 29.66 36.26 29.66 36.41 29.66 36.57 29.54 36.72 29.48 36.88 29.29 37.03 29.41 37.66 29.66 37.81 29.66 38.59 29.85 38.9 29.6 39.06 29.66 39.21 29.23 39.37 29.23 39.52 29.1 39.68 29.04 39.83 28.98 40.3 29.1 40.46 28.98 40.77 29.48 40.92 29.72 41.08 29.54 41.55 29.41 41.86 29.16 42.32 28.54 42.95 28.29 43.26 27.86 43.72 27.92 44.81 27.86 45.44 27.36 45.59 27.24 45.75 27.24 45.9 27.3 46.06 27.86 46.21 27.8 46.52 27.61 46.68 27.61 46.84 27.61 46.99 27.73 47.15 27.61 47.3 27.67 47.46 27.67 47.77 27.49 47.93 27.49 48.08 27.61 48.7 27.55 48.86 27.67 49.01 27.73 49.33 27.55 49.64 29.91 49.79 28.05 50.26 28.42 51.04 28.42 51.81 28.36 52.59 28.85 52.75 28.48 52.9 28.11 53.06 27.73 53.21 27.36 53.53 27.49 53.84 28.73 54.46 29.16 54.62 28.98 54.77 29.16 54.93 29.04 55.08 32.52 55.24 33.46 55.39 33.02 57.26 29.29 57.57 29.23 57.73 28.48 58.04 28.05 58.66 27.55 58.97 27.42 59.28 27.3 59.91 26.93 60.22 34.58 60.37 32.03 60.68 30.78 60.84 30.91 60.99 31.03 61.15 32.4 61.31 31.96 61.46 31.34 61.77 31.09 61.93 30.97 62.24 33.46 62.55 33.27 62.71 32.34 62.86 32.34 63.17 31.53 63.33 31.34 64.11 30.78 64.73 30.16 64.88 30.16 66.13 29.04 66.28 29.1 66.44 28.85 66.91 29.04 67.06 29.04 67.22 28.79 67.53 28.67 67.84 29.04 68.15 29.1 69.55 29.1"/>
      </g>
    </g>
  </g>
</g>
  <g class="guide ylabels" font-size="2.82" font-family="'PT Sans Caption','Helvetica Neue','Helvetica',sans-serif" fill="#6C606B" id="img-c7d14296-19">
    <text x="18.63" y="45.71" text-anchor="end" dy="0.35em">0</text>
    <text x="18.63" y="39.49" text-anchor="end" dy="0.35em">100</text>
    <text x="18.63" y="33.27" text-anchor="end" dy="0.35em">200</text>
    <text x="18.63" y="27.05" text-anchor="end" dy="0.35em">300</text>
    <text x="18.63" y="20.83" text-anchor="end" dy="0.35em">400</text>
    <text x="18.63" y="14.61" text-anchor="end" dy="0.35em">500</text>
  </g>
  <g font-size="3.88" font-family="'PT Sans','Helvetica Neue','Helvetica',sans-serif" fill="#564A55" stroke="#000000" stroke-opacity="0.000" id="img-c7d14296-20">
    <text x="8.81" y="28.16" text-anchor="middle" dy="0.35em" transform="rotate(-90, 8.81, 30.16)">Number of Packages</text>
  </g>
  <g font-size="3.88" font-family="'PT Sans','Helvetica Neue','Helvetica',sans-serif" fill="#564A55" stroke="#000000" stroke-opacity="0.000" id="img-c7d14296-21">
    <text x="58.12" y="10.61" text-anchor="middle">Julia v0.4</text>
  </g>
</g>
<defs>
  <clipPath id="img-c7d14296-4">
  <path d="M19.63,12.61 L 96.6 12.61 96.6 47.71 19.63 47.71" />
</clipPath>
</defs>
</svg>
