<?xml version="1.0" encoding="UTF-8"?>
<svg xmlns="http://www.w3.org/2000/svg"
     xmlns:xlink="http://www.w3.org/1999/xlink"
     xmlns:gadfly="http://www.gadflyjl.org/ns"
     version="1.2"
     width="101.6mm" height="76.2mm" viewBox="0 0 101.6 76.2"
     stroke="none"
     fill="#000000"
     stroke-width="0.3"
     font-size="3.88"
>
<g class="plotroot xscalable yscalable" id="fig-b46a9a3f66fb43d1bccb99929ba82e40-element-1">
  <g font-size="3.88" font-family="'PT Sans','Helvetica Neue','Helvetica',sans-serif" fill="#564A55" stroke="#000000" stroke-opacity="0.000" id="fig-b46a9a3f66fb43d1bccb99929ba82e40-element-2">
    <text x="58.12" y="64.59" text-anchor="middle" dy="0.6em">Date</text>
  </g>
  <g class="guide xlabels" font-size="2.82" font-family="'PT Sans Caption','Helvetica Neue','Helvetica',sans-serif" fill="#6C606B" id="fig-b46a9a3f66fb43d1bccb99929ba82e40-element-3">
    <text x="24.65" y="57.91" text-anchor="middle" dy="0.6em">Sep</text>
    <text x="29.4" y="57.91" text-anchor="middle" dy="0.6em">Oct</text>
    <text x="34.32" y="57.91" text-anchor="middle" dy="0.6em">Nov</text>
    <text x="39.08" y="57.91" text-anchor="middle" dy="0.6em">Dec</text>
    <text x="44" y="57.91" text-anchor="middle" dy="0.6em">Jan 2015</text>
    <text x="48.92" y="57.91" text-anchor="middle" dy="0.6em">Feb</text>
    <text x="53.36" y="57.91" text-anchor="middle" dy="0.6em">Mar</text>
    <text x="58.27" y="57.91" text-anchor="middle" dy="0.6em">Apr</text>
    <text x="63.03" y="57.91" text-anchor="middle" dy="0.6em">May</text>
    <text x="67.95" y="57.91" text-anchor="middle" dy="0.6em">Jun</text>
    <text x="72.71" y="57.91" text-anchor="middle" dy="0.6em">Jul</text>
    <text x="77.63" y="57.91" text-anchor="middle" dy="0.6em">Aug</text>
    <text x="82.54" y="57.91" text-anchor="middle" dy="0.6em">Sep</text>
    <text x="87.3" y="57.91" text-anchor="middle" dy="0.6em">Oct</text>
    <text x="92.22" y="57.91" text-anchor="middle" dy="0.6em">Nov</text>
  </g>
  <g clip-path="url(#fig-b46a9a3f66fb43d1bccb99929ba82e40-element-5)" id="fig-b46a9a3f66fb43d1bccb99929ba82e40-element-4">
    <g pointer-events="visible" opacity="1" fill="#000000" fill-opacity="0.000" stroke="#000000" stroke-opacity="0.000" class="guide background" id="fig-b46a9a3f66fb43d1bccb99929ba82e40-element-6">
      <rect x="19.63" y="12.61" width="76.97" height="44.3"/>
    </g>
    <g class="guide ygridlines xfixed" stroke-dasharray="0.5,0.5" stroke-width="0.2" stroke="#D0D0E0" id="fig-b46a9a3f66fb43d1bccb99929ba82e40-element-7">
      <path fill="none" d="M19.63,54.91 L 96.6 54.91"/>
      <path fill="none" d="M19.63,34.76 L 96.6 34.76"/>
      <path fill="none" d="M19.63,14.61 L 96.6 14.61"/>
    </g>
    <g class="guide xgridlines yfixed" stroke-dasharray="0.5,0.5" stroke-width="0.2" stroke="#D0D0E0" id="fig-b46a9a3f66fb43d1bccb99929ba82e40-element-8">
      <path fill="none" d="M24.65,12.61 L 24.65 56.91"/>
      <path fill="none" d="M29.4,12.61 L 29.4 56.91"/>
      <path fill="none" d="M34.32,12.61 L 34.32 56.91"/>
      <path fill="none" d="M39.08,12.61 L 39.08 56.91"/>
      <path fill="none" d="M44,12.61 L 44 56.91"/>
      <path fill="none" d="M48.92,12.61 L 48.92 56.91"/>
      <path fill="none" d="M53.36,12.61 L 53.36 56.91"/>
      <path fill="none" d="M58.27,12.61 L 58.27 56.91"/>
      <path fill="none" d="M63.03,12.61 L 63.03 56.91"/>
      <path fill="none" d="M67.95,12.61 L 67.95 56.91"/>
      <path fill="none" d="M72.71,12.61 L 72.71 56.91"/>
      <path fill="none" d="M77.63,12.61 L 77.63 56.91"/>
      <path fill="none" d="M82.54,12.61 L 82.54 56.91"/>
      <path fill="none" d="M87.3,12.61 L 87.3 56.91"/>
      <path fill="none" d="M92.22,12.61 L 92.22 56.91"/>
    </g>
    <g class="plotpanel" id="fig-b46a9a3f66fb43d1bccb99929ba82e40-element-9">
      <g stroke-width="0.3" fill="#000000" fill-opacity="0.000" class="geometry color_newnot_possible" stroke-dasharray="none" stroke="#808080" id="fig-b46a9a3f66fb43d1bccb99929ba82e40-element-10">
        <path fill="none" d="M70.96,51.36 L 71.12 51.36 71.28 51.38 71.44 51.38 71.6 51.39 71.76 51.39 71.92 51.39 72.07 51.4 72.55 51.4 72.87 51.42 73.19 51.42 73.34 51.43 73.5 51.45 73.66 51.46 73.82 51.47 73.98 51.47 76.68 51.48 77.94 51.52 79.37 51.54 82.07 51.66 82.54 51.67 83.34 51.69 84.13 51.38 86.67 51.47 87.3 51.5 88.1 51.49 88.73 51.31 89.37 51.33 89.84 51.29 91.74 51.4 93.65 51.4 94.28 51.4 94.6 51.37"/>
      </g>
      <g stroke-width="0.3" fill="#000000" fill-opacity="0.000" class="geometry color_newno_tests" stroke-dasharray="none" stroke="#0000FF" id="fig-b46a9a3f66fb43d1bccb99929ba82e40-element-11">
        <path fill="none" d="M70.96,47.81 L 71.12 47.81 71.28 47.84 71.44 47.84 71.6 47.87 71.76 47.87 71.92 47.87 72.07 47.88 72.55 47.89 72.87 47.92 73.19 47.92 73.34 47.94 73.5 48.05 73.66 48.07 73.82 48.08 73.98 48.14 76.68 48.24 77.94 48.3 79.37 48.35 82.07 48.59 82.54 48.67 83.34 48.71 84.13 48.83 86.67 49.21 87.3 49.43 88.1 49.61 88.73 50.39 89.37 50.48 89.84 50.61 91.74 50.8 93.65 50.91 94.28 50.92 94.6 50.94"/>
      </g>
      <g stroke-width="0.3" fill="#000000" fill-opacity="0.000" class="geometry color_newtests_fail" stroke-dasharray="none" stroke="#FF0000" id="fig-b46a9a3f66fb43d1bccb99929ba82e40-element-12">
        <path fill="none" d="M70.96,41.5 L 71.12 41.96 71.28 41.87 71.44 40.56 71.6 40.57 71.76 40.76 71.92 40.76 72.07 41.83 72.55 41.26 72.87 41.31 73.19 42.02 73.34 42.19 73.5 40.8 73.66 42.12 73.82 41.18 73.98 41.63 76.68 42.44 77.94 42.18 79.37 42.83 82.07 43.04 82.54 43.37 83.34 43.73 84.13 44.65 86.67 44.75 87.3 45.18 88.1 45.46 88.73 45.7 89.37 45.99 89.84 46.42 91.74 46.46 93.65 46.69 94.28 46.87 94.6 47.07"/>
      </g>
      <g stroke-width="0.3" fill="#000000" fill-opacity="0.000" class="geometry color_newtests_pass" stroke-dasharray="none" stroke="#008000" id="fig-b46a9a3f66fb43d1bccb99929ba82e40-element-13">
        <path fill="none" d="M70.96,38.68 L 71.12 38.22 71.28 38.27 71.44 39.58 71.6 39.52 71.76 39.33 71.92 39.33 72.07 38.25 72.55 38.79 72.87 38.72 73.19 38 73.34 37.8 73.5 39.06 73.66 37.71 73.82 38.63 73.98 38.12 76.68 37.2 77.94 37.36 79.37 36.63 82.07 36.06 82.54 35.65 83.34 35.23 84.13 34.5 86.67 33.92 87.3 33.25 88.1 32.8 88.73 31.96 89.37 31.55 89.84 31.03 91.74 30.7 93.65 30.35 94.28 30.17 94.6 29.98"/>
      </g>
      <g stroke-width="0.3" fill="#000000" fill-opacity="0.000" class="geometry color_newnot_possible" stroke-dasharray="none" stroke="#808080" id="fig-b46a9a3f66fb43d1bccb99929ba82e40-element-14">
        <path fill="none" d="M21.63,50.71 L 21.79 50.63 21.95 50.53 22.11 50.55 22.27 50.55 22.42 50.55 22.74 50.58 22.9 50.58 23.06 50.59 23.22 50.59 23.38 50.59 23.54 50.63 23.69 50.65 23.85 50.65 24.17 50.67 24.33 50.6 24.65 50.62 24.8 50.62 24.96 50.52 25.6 50.52 26.07 50.59 26.23 50.6 26.39 50.61 26.55 50.63 26.71 50.63 26.87 50.63 27.02 50.71 27.18 50.71 27.34 50.71 27.66 50.63 27.82 50.63 27.98 50.64 28.14 50.64 28.29 50.64 28.45 50.65 28.61 50.55 28.93 50.54 29.09 50.55 29.25 50.55 29.4 50.57 29.56 50.49 29.72 50.49 29.88 50.49 30.04 50.51 30.51 50.53 30.67 50.44 30.83 50.46 30.99 50.47 31.15 50.47 31.31 50.47 31.47 50.49 31.63 50.49 31.78 50.5 31.94 50.51 32.1 50.42 32.26 50.42 32.42 50.42 32.58 50.44 32.74 50.46 32.89 50.46 33.05 50.46 33.21 50.47 33.37 50.47 33.53 50.48 33.69 50.48 33.85 50.5 34 50.51 34.16 50.51 34.32 50.52 34.48 50.52 34.64 50.52 34.8 50.52 34.96 50.53 35.11 50.54 35.59 50.54 36.38 50.6 36.54 50.62 36.7 50.62 36.86 50.63 37.02 50.63 37.18 50.66 37.34 50.66 37.97 50.71 38.13 50.71 38.92 50.71 39.24 50.71 39.4 50.82 39.56 50.83 39.72 50.83 39.87 50.83 40.03 50.85 40.19 50.87 40.67 50.88 40.83 50.88 41.14 50.92 41.3 50.92 41.46 50.92 41.94 50.92 42.25 50.94 42.73 50.95 43.36 50.97 43.68 51 44.16 51.02 45.27 51.08 45.9 51.13 46.06 50.98 46.22 50.98 46.38 50.95 46.54 50.95 46.69 50.95 47.01 50.96 47.17 50.97 47.33 50.97 47.49 50.91 47.65 50.92 47.81 50.92 47.96 50.92 48.28 50.86 48.44 50.88 48.6 50.89 49.23 50.95 49.39 50.95 49.55 50.93 49.87 50.95 50.18 50.98 50.34 50.98 50.82 50.99 51.61 50.99 52.41 51 53.2 51.07 53.36 51.07 53.52 51.07 53.67 50.55 53.83 50.63 54.15 50.57 54.47 50.57 55.1 50.58 55.26 50.59 55.42 50.59 55.58 50.59 55.74 50.61 55.9 50.68 56.05 50.62 57.96 50.58 58.27 50.5 58.43 50.53 58.75 50.53 59.38 50.53 59.7 50.54 60.02 50.57 60.65 50.58 60.97 50.6 61.13 50.62 61.45 50.66 61.61 50.66 61.76 50.67 61.92 50.68 62.08 50.68 62.24 50.69 62.56 50.69 62.72 50.71 63.03 50.71 63.35 50.72 63.51 50.75 63.67 50.75 63.99 50.77 64.14 50.77 64.94 50.8 65.57 50.88 65.73 50.83 67 50.85 67.16 50.72 67.32 50.72 67.79 50.74 67.95 50.75 68.11 50.83 68.43 50.84 68.74 50.84 69.06 50.86 70.49 50.9"/>
      </g>
      <g stroke-width="0.3" fill="#000000" fill-opacity="0.000" class="geometry color_newtests_fail" stroke-dasharray="none" stroke="#FF0000" id="fig-b46a9a3f66fb43d1bccb99929ba82e40-element-15">
        <path fill="none" d="M21.63,52.48 L 21.79 52.39 21.95 52.72 22.11 50.33 22.27 50.33 22.42 50.33 22.74 52.64 22.9 52.75 23.06 52.65 23.22 52.86 23.38 52.97 23.54 52.88 23.69 52.89 23.85 53 24.17 52.26 24.33 52.07 24.65 51.98 24.8 51.98 24.96 52.09 25.6 52.09 26.07 52.34 26.23 52.34 26.39 52.35 26.55 52.47 26.71 52.57 26.87 52.87 27.02 52.91 27.18 52.91 27.34 52.91 27.66 52.72 27.82 52.62 27.98 52.73 28.14 52.73 28.29 52.83 28.45 52.63 28.61 52.43 28.93 53.12 29.09 50.05 29.25 49.95 29.4 51.85 29.56 51.87 29.72 51.97 29.88 51.97 30.04 51.98 30.51 50.14 30.67 51.61 30.83 51.91 30.99 52.02 31.15 52.11 31.31 51.92 31.47 52.13 31.63 52.13 31.78 51.94 31.94 51.85 32.1 51.56 32.26 51.76 32.42 52.04 32.58 52.06 32.74 52.07 32.89 44.58 33.05 44.58 33.21 44.6 33.37 45.64 33.53 45.67 33.69 51.8 33.85 51.91 34 52.01 34.16 52.01 34.32 52.02 34.48 52.02 34.64 52.02 34.8 52.02 34.96 52.12 35.11 52.03 35.59 52.31 36.38 52.25 36.54 52.26 36.7 52.26 36.86 52.27 37.02 52.27 37.18 52.2 37.34 52.2 37.97 52.23 38.13 52.14 38.92 52.32 39.24 52.41 39.4 51.89 39.56 52.34 39.72 52.25 39.87 52.34 40.03 52.35 40.19 52.36 40.67 52.63 40.83 52.64 41.14 51.7 41.3 51.7 41.46 51.7 41.94 51.7 42.25 51.71 42.73 52.76 43.36 52.77 43.68 52.7 44.16 52.8 45.27 52.66 45.9 52.53 46.06 52.7 46.22 52.7 46.38 52.49 46.54 52 46.69 52 47.01 52.01 47.17 52.01 47.33 52.01 47.49 52.03 47.65 52.04 47.81 52.04 47.96 52.04 48.28 52.05 48.44 51.99 48.6 52 49.23 51.65 49.39 51.65 49.55 51.63 49.87 51.58 50.18 46.58 50.34 51.59 50.82 51.38 51.61 51.38 52.41 51.31 53.2 49.48 53.36 50.16 53.52 50.76 53.67 51.61 53.83 51.83 54.15 51.84 54.47 51.39 55.1 51.48 55.26 51.49 55.42 51.41 55.58 51.41 55.74 43.78 55.9 41.75 56.05 42.91 57.96 49.84 58.27 50.06 58.43 51.4 58.75 51.48 59.38 51.48 59.7 51.49 60.02 51.58 60.65 51.52 60.97 39.87 61.13 43.39 61.45 45.76 61.61 45.76 61.76 45.78 61.92 45.46 62.08 45.53 62.24 45.9 62.56 46.05 62.72 45.94 63.03 41.25 63.35 41.5 63.51 42.89 63.67 42.91 63.99 43.51 64.14 44.29 64.94 44.63 65.57 45.01 65.73 44.98 67 45.91 67.16 45.97 67.32 46.04 67.79 45.97 67.95 45.98 68.11 46.01 68.43 46.24 68.74 46.11 69.06 46.2 70.49 46.04"/>
      </g>
      <g stroke-width="0.3" fill="#000000" fill-opacity="0.000" class="geometry color_newno_tests" stroke-dasharray="none" stroke="#0000FF" id="fig-b46a9a3f66fb43d1bccb99929ba82e40-element-16">
        <path fill="none" d="M21.63,49.6 L 21.79 49.53 21.95 49.55 22.11 50.22 22.27 50.22 22.42 50.22 22.74 49.71 22.9 49.71 23.06 49.84 23.22 49.84 23.38 49.84 23.54 49.88 23.69 49.9 23.85 50.01 24.17 50.35 24.33 50.5 24.65 50.52 24.8 50.52 24.96 50.52 25.6 50.52 26.07 50.48 26.23 50.49 26.39 50.4 26.55 50.43 26.71 50.43 26.87 50.43 27.02 50.51 27.18 50.61 27.34 50.61 27.66 50.53 27.82 50.63 27.98 50.54 28.14 50.54 28.29 50.54 28.45 50.55 28.61 50.75 28.93 50.54 29.09 50.84 29.25 50.84 29.4 50.57 29.56 50.59 29.72 50.59 29.88 50.59 30.04 50.61 30.51 51.02 30.67 50.73 30.83 50.65 30.99 50.66 31.15 50.66 31.31 50.66 31.47 50.68 31.63 50.68 31.78 50.69 31.94 50.7 32.1 50.7 32.26 50.7 32.42 50.7 32.58 50.72 32.74 50.74 32.89 51.31 33.05 51.31 33.21 51.32 33.37 51.13 33.53 51.14 33.69 50.76 33.85 50.78 34 50.79 34.16 50.79 34.32 50.8 34.48 50.8 34.64 50.8 34.8 50.8 34.96 50.81 35.11 50.82 35.59 50.82 36.38 50.88 36.54 50.89 36.7 50.89 36.86 50.9 37.02 50.9 37.18 50.93 37.34 50.93 37.97 50.97 38.13 50.97 38.92 50.98 39.24 50.98 39.4 51 39.56 51.01 39.72 51.1 39.87 51.01 40.03 51.03 40.19 51.04 40.67 51.05 40.83 51.06 41.14 51.09 41.3 51.09 41.46 51.09 41.94 51.09 42.25 51.11 42.73 51.04 43.36 51.14 43.68 51.09 44.16 51.1 45.27 51.16 45.9 51.21 46.06 51.23 46.22 51.23 46.38 51.27 46.54 51.27 46.69 51.27 47.01 51.28 47.17 51.29 47.33 51.29 47.49 51.31 47.65 51.32 47.81 51.32 47.96 51.32 48.28 51.34 48.44 51.36 48.6 51.37 49.23 51.5 49.39 51.5 49.55 51.48 49.87 51.5 50.18 51.67 50.34 51.44 50.82 51.45 51.61 51.45 52.41 51.46 53.2 51.75 53.36 51.67 53.52 51.67 53.67 51.68 53.83 51.61 54.15 51.62 54.47 51.69 55.1 51.7 55.26 51.71 55.42 51.79 55.58 51.79 55.74 52.61 55.9 52.68 56.05 52.69 57.96 51.83 58.27 51.83 58.43 51.84 58.75 51.84 59.38 51.85 59.7 51.85 60.02 51.87 60.65 51.95 60.97 52.54 61.13 52.41 61.45 52.36 61.61 52.29 61.76 52.37 61.92 52.37 62.08 52.37 62.24 52.38 62.56 52.38 62.72 52.46 63.03 52.67 63.35 52.54 63.51 52.48 63.67 52.49 63.99 52.5 64.14 52.43 64.94 52.45 65.57 52.39 65.73 52.4 67 52.34 67.16 52.34 67.32 52.34 67.79 52.36 67.95 52.36 68.11 52.37 68.43 52.38 68.74 52.38 69.06 52.39 70.49 52.42"/>
      </g>
      <g stroke-width="0.3" fill="#000000" fill-opacity="0.000" class="geometry color_oldfull_fail" stroke-dasharray="none" stroke="#FFA500" id="fig-b46a9a3f66fb43d1bccb99929ba82e40-element-17">
        <path fill="none" d="M21.63,51.37 L 21.79 51.4 21.95 50.42 22.11 50.33 22.27 50.22 22.42 50.22 22.74 50.26 22.9 50.36 23.06 50.59 23.22 50.27 23.38 50.16 23.54 50.41 23.69 50.54 23.85 50.22 24.17 49.82 24.33 50.5 24.65 50.41 24.8 50.41 24.96 50.41 25.6 50.41 26.07 50.17 26.23 50.29 26.39 50.4 26.55 50.22 26.71 50.32 26.87 50.53 27.02 50.21 27.18 50.01 27.34 50.01 27.66 50.43 27.82 50.33 27.98 50.34 28.14 50.54 28.29 50.44 28.45 50.05 28.61 50.15 28.93 50.64 29.09 49.55 29.25 49.26 29.4 49.78 29.56 49.9 29.72 49.9 29.88 49.9 30.04 49.83 30.51 48 30.67 49.07 30.83 50.17 30.99 50.08 31.15 49.79 31.31 50.08 31.47 50.2 31.63 50.2 31.78 50.02 31.94 49.94 32.1 50.32 32.26 50.32 32.42 50.22 32.58 50.15 32.74 50.17 32.89 51.22 33.05 51.12 33.21 51.13 33.37 51.04 33.53 50.86 33.69 48.4 33.85 49.09 34 49.48 34.16 49.01 34.32 49.02 34.48 48.93 34.64 48.93 34.8 48.93 34.96 49.13 35.11 49.42 35.59 49.42 36.38 49.31 36.54 49.16 36.7 49.16 36.86 49.26 37.02 49.35 37.18 49.48 37.34 49.3 37.97 48.56 38.13 48.65 38.92 48.12 39.24 48.39 39.4 48.6 39.56 48.7 39.72 48.7 39.87 48.88 40.03 48.82 40.19 48.76 40.67 48.24 40.83 48.34 41.14 48.31 41.3 47.97 41.46 48.23 41.94 48.4 42.25 48.6 42.73 48.37 43.36 48.48 43.68 48.96 44.16 48.65 45.27 48.41 45.9 48.75 46.06 48.77 46.22 48.77 46.38 48.6 46.54 48.36 46.69 48.44 47.01 48.62 47.17 48.55 47.33 48.55 47.49 48.26 47.65 48.36 47.81 48.28 47.96 48.28 48.28 48.4 48.44 48.28 48.6 48.05 49.23 47.93 49.39 47.77 49.55 47.89 49.87 48 50.18 49.74 50.34 47.27 50.82 46.92 51.61 46.92 52.41 47.01 53.2 47.52 53.36 47.37 53.52 47.22 53.67 47.25 53.83 47.47 54.15 47.27 54.47 46.15 55.1 45.49 55.26 45.6 55.42 45.38 55.58 45.53 55.74 48.09 55.9 48.89 56.05 48.25 57.96 46.53 58.27 46.46 58.43 45.84 58.75 46.28 59.38 46.81 59.7 46.9 60.02 46.8 60.65 47.11 60.97 49.23 61.13 48.69 61.45 47.61 61.61 47.54 61.76 47.27 61.92 45.95 62.08 46.37 62.24 46.67 62.56 46.76 62.72 46.85 63.03 48.54 63.35 48.56 63.51 48.17 63.67 48.12 63.99 48.35 64.14 47.81 64.94 47.92 65.57 48.15 65.73 48.18 67 48.41 67.16 48.41 67.32 48.62 67.79 48.32 67.95 48.26 68.11 48.35 68.43 48.18 68.74 47.91 69.06 47.67 70.49 47.55"/>
      </g>
      <g stroke-width="0.3" fill="#000000" fill-opacity="0.000" class="geometry color_newtests_pass" stroke-dasharray="none" stroke="#008000" id="fig-b46a9a3f66fb43d1bccb99929ba82e40-element-18">
        <path fill="none" d="M21.63,30.11 L 21.79 30.32 21.95 31.04 22.11 32.85 22.27 32.96 22.42 32.96 22.74 31.08 22.9 30.86 23.06 30.6 23.22 30.71 23.38 30.71 23.54 30.48 23.69 30.29 23.85 30.39 24.17 31.16 24.33 30.61 24.65 30.73 24.8 30.73 24.96 30.73 25.6 30.73 26.07 30.69 26.23 30.55 26.39 30.51 26.55 30.53 26.71 30.32 26.87 29.81 27.02 29.91 27.18 30.01 27.34 30.01 27.66 29.97 27.82 30.07 27.98 30.04 28.14 29.84 28.29 29.84 28.45 30.4 28.61 30.4 28.93 29.44 29.09 33.27 29.25 33.67 29.4 31.5 29.56 31.42 29.72 31.32 29.88 31.32 30.04 31.34 30.51 34.57 30.67 32.43 30.83 31.08 30.99 31.04 31.15 31.24 31.31 31.14 31.47 30.77 31.63 30.77 31.78 31.12 31.94 31.27 32.1 31.27 32.26 31.08 32.42 30.89 32.58 30.9 32.74 30.83 32.89 36.71 33.05 36.8 33.21 36.75 33.37 35.99 33.53 36.13 33.69 32.83 33.85 31.99 34 31.48 34.16 31.95 34.32 31.91 34.48 32 34.64 32 34.8 32 34.96 31.68 35.11 31.46 35.59 31.18 36.38 31.23 36.54 31.34 36.7 31.34 36.86 31.21 37.02 31.12 37.18 31 37.34 31.19 37.97 31.81 38.13 31.81 38.92 32.13 39.24 31.77 39.4 31.96 39.56 31.39 39.72 31.39 39.87 31.21 40.03 31.23 40.19 31.24 40.67 31.47 40.83 31.35 41.14 32.24 41.3 32.59 41.46 32.33 41.94 32.16 42.25 31.91 42.73 31.15 43.36 30.9 43.68 30.51 44.16 30.7 45.27 30.97 45.9 30.65 46.06 30.59 46.22 30.59 46.38 30.96 46.54 31.69 46.69 31.61 47.01 31.41 47.17 31.46 47.33 31.46 47.49 31.76 47.65 31.64 47.81 31.72 47.96 31.72 48.28 31.62 48.44 31.76 48.6 31.96 49.23 32.24 49.39 32.39 49.55 32.34 49.87 32.24 50.18 35.3 50.34 32.99 50.82 33.53 51.61 33.53 52.41 33.5 53.2 34.46 53.36 34.01 53.52 33.56 53.67 33.18 53.83 32.73 54.15 32.97 54.47 34.46 55.1 35.03 55.26 34.88 55.42 35.1 55.58 34.95 55.74 39.18 55.9 40.27 56.05 39.8 57.96 35.5 58.27 35.43 58.43 34.65 58.75 34.14 59.38 33.6 59.7 33.49 60.02 33.46 60.65 33.1 60.97 42.03 61.13 39.17 61.45 37.89 61.61 38.03 61.76 38.2 61.92 39.81 62.08 39.32 62.24 38.64 62.56 38.39 62.72 38.3 63.03 41.11 63.35 40.95 63.51 39.97 63.67 40 63.99 39.15 64.14 38.97 64.94 38.46 65.57 37.84 65.73 37.9 67 36.76 67.16 36.83 67.32 36.56 67.79 36.88 67.95 36.91 68.11 36.7 68.43 36.63 68.74 37.03 69.06 37.16 70.49 37.36"/>
      </g>
    </g>
  </g>
  <g class="guide ylabels" font-size="2.82" font-family="'PT Sans Caption','Helvetica Neue','Helvetica',sans-serif" fill="#6C606B" id="fig-b46a9a3f66fb43d1bccb99929ba82e40-element-19">
    <text x="18.63" y="54.91" text-anchor="end" dy="0.35em">0</text>
    <text x="18.63" y="34.76" text-anchor="end" dy="0.35em">50</text>
    <text x="18.63" y="14.61" text-anchor="end" dy="0.35em">100</text>
  </g>
  <g font-size="3.88" font-family="'PT Sans','Helvetica Neue','Helvetica',sans-serif" fill="#564A55" stroke="#000000" stroke-opacity="0.000" id="fig-b46a9a3f66fb43d1bccb99929ba82e40-element-20">
    <text x="8.81" y="32.76" text-anchor="middle" dy="0.35em" transform="rotate(-90, 8.81, 34.76)">Percentage of Packages</text>
  </g>
  <g font-size="3.88" font-family="'PT Sans','Helvetica Neue','Helvetica',sans-serif" fill="#564A55" stroke="#000000" stroke-opacity="0.000" id="fig-b46a9a3f66fb43d1bccb99929ba82e40-element-21">
    <text x="58.12" y="10.61" text-anchor="middle">Julia v0.4 (relative)</text>
  </g>
</g>
<defs>
<clipPath id="fig-b46a9a3f66fb43d1bccb99929ba82e40-element-5">
  <path d="M19.63,12.61 L 96.6 12.61 96.6 56.91 19.63 56.91" />
</clipPath
></defs>
</svg>
