<?xml version="1.0" encoding="UTF-8"?>
<svg xmlns="http://www.w3.org/2000/svg"
     xmlns:xlink="http://www.w3.org/1999/xlink"
     xmlns:gadfly="http://www.gadflyjl.org/ns"
     version="1.2"
     width="101.6mm" height="76.2mm" viewBox="0 0 101.6 76.2"
     stroke="none"
     fill="#000000"
     stroke-width="0.3"
     font-size="3.88"
>
<g class="plotroot xscalable yscalable" id="fig-f6b8ca5f39fd4ceb8a3b29916d1725f1-element-1">
  <g font-size="3.88" font-family="'PT Sans','Helvetica Neue','Helvetica',sans-serif" fill="#564A55" stroke="#000000" stroke-opacity="0.000" id="fig-f6b8ca5f39fd4ceb8a3b29916d1725f1-element-2">
    <text x="58.12" y="64.59" text-anchor="middle" dy="0.6em">Date</text>
  </g>
  <g class="guide xlabels" font-size="2.82" font-family="'PT Sans Caption','Helvetica Neue','Helvetica',sans-serif" fill="#6C606B" id="fig-f6b8ca5f39fd4ceb8a3b29916d1725f1-element-3">
    <text x="24.69" y="48.71" text-anchor="end" dy="0.35em" transform="rotate(-90, 24.69, 48.71)">Sep</text>
    <text x="29.51" y="48.71" text-anchor="end" dy="0.35em" transform="rotate(-90, 29.51, 48.71)">Oct</text>
    <text x="34.49" y="48.71" text-anchor="end" dy="0.35em" transform="rotate(-90, 34.49, 48.71)">Nov</text>
    <text x="39.31" y="48.71" text-anchor="end" dy="0.35em" transform="rotate(-90, 39.31, 48.71)">Dec</text>
    <text x="44.29" y="48.71" text-anchor="end" dy="0.35em" transform="rotate(-90, 44.29, 48.71)">Jan 2015</text>
    <text x="49.28" y="48.71" text-anchor="end" dy="0.35em" transform="rotate(-90, 49.28, 48.71)">Feb</text>
    <text x="53.78" y="48.71" text-anchor="end" dy="0.35em" transform="rotate(-90, 53.78, 48.71)">Mar</text>
    <text x="58.76" y="48.71" text-anchor="end" dy="0.35em" transform="rotate(-90, 58.76, 48.71)">Apr</text>
    <text x="63.58" y="48.71" text-anchor="end" dy="0.35em" transform="rotate(-90, 63.58, 48.71)">May</text>
    <text x="68.56" y="48.71" text-anchor="end" dy="0.35em" transform="rotate(-90, 68.56, 48.71)">Jun</text>
    <text x="73.38" y="48.71" text-anchor="end" dy="0.35em" transform="rotate(-90, 73.38, 48.71)">Jul</text>
    <text x="78.37" y="48.71" text-anchor="end" dy="0.35em" transform="rotate(-90, 78.37, 48.71)">Aug</text>
    <text x="83.35" y="48.71" text-anchor="end" dy="0.35em" transform="rotate(-90, 83.35, 48.71)">Sep</text>
    <text x="88.17" y="48.71" text-anchor="end" dy="0.35em" transform="rotate(-90, 88.17, 48.71)">Oct</text>
    <text x="93.15" y="48.71" text-anchor="end" dy="0.35em" transform="rotate(-90, 93.15, 48.71)">Nov</text>
  </g>
  <g clip-path="url(#fig-f6b8ca5f39fd4ceb8a3b29916d1725f1-element-5)" id="fig-f6b8ca5f39fd4ceb8a3b29916d1725f1-element-4">
    <g pointer-events="visible" opacity="1" fill="#000000" fill-opacity="0.000" stroke="#000000" stroke-opacity="0.000" class="guide background" id="fig-f6b8ca5f39fd4ceb8a3b29916d1725f1-element-6">
      <rect x="19.63" y="12.61" width="76.97" height="35.1"/>
    </g>
    <g class="guide ygridlines xfixed" stroke-dasharray="0.5,0.5" stroke-width="0.2" stroke="#D0D0E0" id="fig-f6b8ca5f39fd4ceb8a3b29916d1725f1-element-7">
      <path fill="none" d="M19.63,45.71 L 96.6 45.71"/>
      <path fill="none" d="M19.63,39.49 L 96.6 39.49"/>
      <path fill="none" d="M19.63,33.27 L 96.6 33.27"/>
      <path fill="none" d="M19.63,27.05 L 96.6 27.05"/>
      <path fill="none" d="M19.63,20.83 L 96.6 20.83"/>
      <path fill="none" d="M19.63,14.61 L 96.6 14.61"/>
    </g>
    <g class="guide xgridlines yfixed" stroke-dasharray="0.5,0.5" stroke-width="0.2" stroke="#D0D0E0" id="fig-f6b8ca5f39fd4ceb8a3b29916d1725f1-element-8">
      <path fill="none" d="M24.69,12.61 L 24.69 47.71"/>
      <path fill="none" d="M29.51,12.61 L 29.51 47.71"/>
      <path fill="none" d="M34.49,12.61 L 34.49 47.71"/>
      <path fill="none" d="M39.31,12.61 L 39.31 47.71"/>
      <path fill="none" d="M44.29,12.61 L 44.29 47.71"/>
      <path fill="none" d="M49.28,12.61 L 49.28 47.71"/>
      <path fill="none" d="M53.78,12.61 L 53.78 47.71"/>
      <path fill="none" d="M58.76,12.61 L 58.76 47.71"/>
      <path fill="none" d="M63.58,12.61 L 63.58 47.71"/>
      <path fill="none" d="M68.56,12.61 L 68.56 47.71"/>
      <path fill="none" d="M73.38,12.61 L 73.38 47.71"/>
      <path fill="none" d="M78.37,12.61 L 78.37 47.71"/>
      <path fill="none" d="M83.35,12.61 L 83.35 47.71"/>
      <path fill="none" d="M88.17,12.61 L 88.17 47.71"/>
      <path fill="none" d="M93.15,12.61 L 93.15 47.71"/>
    </g>
    <g class="plotpanel" id="fig-f6b8ca5f39fd4ceb8a3b29916d1725f1-element-9">
      <g stroke-width="0.3" fill="#000000" fill-opacity="0.000" class="geometry color_newnot_possible" stroke-dasharray="none" stroke="#808080" id="fig-f6b8ca5f39fd4ceb8a3b29916d1725f1-element-10">
        <path fill="none" d="M71.62,42.35 L 71.78 42.35 71.94 42.35 72.1 42.35 72.26 42.35 72.42 42.35 72.58 42.35 72.74 42.35 73.22 42.35 73.55 42.35 73.87 42.35 74.03 42.35 74.19 42.35 74.35 42.35 74.51 42.35 74.67 42.35 77.4 42.29 78.69 42.29 80.13 42.29 82.87 42.29 83.35 42.29 84.15 42.29 84.96 41.91 87.53 41.91 88.17 41.91 88.97 41.85 89.62 41.79 90.26 41.79 90.74 41.73 92.67 41.73 94.6 41.67"/>
      </g>
      <g stroke-width="0.3" fill="#000000" fill-opacity="0.000" class="geometry color_newno_tests" stroke-dasharray="none" stroke="#0000FF" id="fig-f6b8ca5f39fd4ceb8a3b29916d1725f1-element-11">
        <path fill="none" d="M71.62,38.99 L 71.78 38.99 71.94 38.99 72.1 38.99 72.26 38.99 72.42 38.99 72.58 38.99 72.74 38.99 73.22 38.99 73.55 38.99 73.87 38.99 74.03 38.99 74.19 39.05 74.35 39.05 74.51 39.05 74.67 39.12 77.4 39.05 78.69 39.05 80.13 39.05 82.87 39.05 83.35 39.12 84.15 39.12 84.96 39.18 87.53 39.43 88.17 39.61 88.97 39.74 89.62 40.8 90.26 40.86 90.74 40.98 92.67 41.04 94.6 41.11"/>
      </g>
      <g stroke-width="0.3" fill="#000000" fill-opacity="0.000" class="geometry color_newtests_fail" stroke-dasharray="none" stroke="#FF0000" id="fig-f6b8ca5f39fd4ceb8a3b29916d1725f1-element-12">
        <path fill="none" d="M71.62,33.02 L 71.78 33.46 71.94 33.33 72.1 32.09 72.26 32.03 72.42 32.21 72.58 32.21 72.74 33.21 73.22 32.65 73.55 32.65 73.87 33.33 74.03 33.46 74.19 32.03 74.35 33.27 74.51 32.34 74.67 32.77 77.4 33.27 78.69 32.9 80.13 33.46 82.87 33.21 83.35 33.52 84.15 33.83 84.96 34.7 87.53 34.51 88.17 34.89 88.97 35.07 89.62 35.7 90.26 35.94 90.74 36.38 92.67 36.13 94.6 36.25"/>
      </g>
      <g stroke-width="0.3" fill="#000000" fill-opacity="0.000" class="geometry color_newtests_pass" stroke-dasharray="none" stroke="#008000" id="fig-f6b8ca5f39fd4ceb8a3b29916d1725f1-element-13">
        <path fill="none" d="M71.62,30.35 L 71.78 29.91 71.94 29.91 72.1 31.16 72.26 31.03 72.42 30.84 72.58 30.84 72.74 29.79 73.22 30.28 73.55 30.16 73.87 29.48 74.03 29.23 74.19 30.35 74.35 28.98 74.51 29.85 74.67 29.35 77.4 28.05 78.69 28.05 80.13 27.17 82.87 25.87 83.35 25.37 84.15 24.81 84.96 23.82 87.53 22.57 88.17 21.64 88.97 20.83 89.62 20.77 90.26 20.15 90.74 19.46 92.67 18.28 94.6 17.47"/>
      </g>
      <g stroke-width="0.3" fill="#000000" fill-opacity="0.000" class="geometry color_newnot_possible" stroke-dasharray="none" stroke="#808080" id="fig-f6b8ca5f39fd4ceb8a3b29916d1725f1-element-14">
        <path fill="none" d="M21.63,43.34 L 21.79 43.28 21.95 43.22 22.11 43.22 22.27 43.22 22.44 43.22 22.76 43.22 22.92 43.22 23.08 43.22 23.24 43.22 23.4 43.22 23.56 43.22 23.72 43.22 23.88 43.22 24.2 43.22 24.36 43.16 24.69 43.16 24.85 43.16 25.01 43.1 25.65 43.1 26.13 43.1 26.29 43.1 26.45 43.1 26.61 43.1 26.77 43.1 26.94 43.1 27.1 43.1 27.26 43.1 27.42 43.1 27.74 43.03 27.9 43.03 28.06 43.03 28.22 43.03 28.38 43.03 28.54 43.03 28.7 42.97 29.02 42.97 29.19 42.97 29.35 42.97 29.51 42.97 29.67 42.91 29.83 42.91 29.99 42.91 30.15 42.91 30.63 42.91 30.79 42.85 30.95 42.85 31.11 42.85 31.28 42.85 31.44 42.85 31.6 42.85 31.76 42.85 31.92 42.85 32.08 42.85 32.24 42.79 32.4 42.79 32.56 42.79 32.72 42.79 32.88 42.79 33.04 42.79 33.2 42.79 33.36 42.79 33.53 42.79 33.69 42.79 33.85 42.79 34.01 42.79 34.17 42.79 34.33 42.79 34.49 42.79 34.65 42.79 34.81 42.79 34.97 42.79 35.13 42.79 35.29 42.79 35.78 42.79 36.58 42.79 36.74 42.79 36.9 42.79 37.06 42.79 37.22 42.79 37.38 42.79 37.54 42.79 38.19 42.79 38.35 42.79 39.15 42.79 39.47 42.79 39.63 42.85 39.79 42.85 39.95 42.85 40.11 42.85 40.28 42.85 40.44 42.85 40.92 42.85 41.08 42.85 41.4 42.85 41.56 42.85 41.72 42.85 42.2 42.85 42.53 42.85 43.01 42.85 43.65 42.85 43.97 42.85 44.45 42.85 45.58 42.85 46.22 42.85 46.38 42.72 46.54 42.72 46.7 42.66 46.87 42.66 47.03 42.66 47.35 42.66 47.51 42.66 47.67 42.66 47.83 42.6 47.99 42.6 48.15 42.6 48.31 42.6 48.63 42.54 48.79 42.54 48.95 42.54 49.6 42.54 49.76 42.54 49.92 42.54 50.24 42.54 50.56 42.54 50.72 42.54 51.2 42.54 52.01 42.54 52.81 42.54 53.62 42.54 53.78 42.54 53.94 42.54 54.1 42.1 54.26 42.16 54.58 42.1 54.9 42.1 55.54 42.1 55.7 42.1 55.87 42.1 56.03 42.1 56.19 42.1 56.35 42.16 56.51 42.1 58.44 42.04 58.76 41.98 58.92 41.98 59.24 41.98 59.88 41.98 60.21 41.98 60.53 41.98 61.17 41.98 61.49 41.98 61.65 41.98 61.97 41.98 62.13 41.98 62.29 41.98 62.46 41.98 62.62 41.98 62.78 41.98 63.1 41.98 63.26 41.98 63.58 41.98 63.9 41.98 64.06 41.98 64.22 41.98 64.54 41.98 64.71 41.98 65.51 41.98 66.15 42.04 66.31 41.98 67.6 41.98 67.76 41.85 67.92 41.85 68.4 41.85 68.56 41.85 68.72 41.91 69.05 41.91 69.37 41.91 69.69 41.91 71.13 41.91"/>
      </g>
      <g stroke-width="0.3" fill="#000000" fill-opacity="0.000" class="geometry color_newtests_fail" stroke-dasharray="none" stroke="#FF0000" id="fig-f6b8ca5f39fd4ceb8a3b29916d1725f1-element-15">
        <path fill="none" d="M21.63,44.34 L 21.79 44.28 21.95 44.46 22.11 43.1 22.27 43.1 22.44 43.1 22.76 44.4 22.92 44.46 23.08 44.4 23.24 44.53 23.4 44.59 23.56 44.53 23.72 44.53 23.88 44.59 24.2 44.15 24.36 44.03 24.69 43.97 24.85 43.97 25.01 44.03 25.65 44.03 26.13 44.15 26.29 44.15 26.45 44.15 26.61 44.22 26.77 44.28 26.94 44.46 27.1 44.46 27.26 44.46 27.42 44.46 27.74 44.34 27.9 44.28 28.06 44.34 28.22 44.34 28.38 44.4 28.54 44.28 28.7 44.15 29.02 44.59 29.19 42.66 29.35 42.6 29.51 43.78 29.67 43.78 29.83 43.84 29.99 43.84 30.15 43.84 30.63 42.66 30.79 43.59 30.95 43.78 31.11 43.84 31.28 43.9 31.44 43.78 31.6 43.9 31.76 43.9 31.92 43.78 32.08 43.72 32.24 43.53 32.4 43.66 32.56 43.84 32.72 43.84 32.88 43.84 33.04 38.93 33.2 38.93 33.36 38.93 33.53 39.61 33.69 39.61 33.85 43.66 34.01 43.72 34.17 43.78 34.33 43.78 34.49 43.78 34.65 43.78 34.81 43.78 34.97 43.78 35.13 43.84 35.29 43.78 35.78 43.97 36.58 43.9 36.74 43.9 36.9 43.9 37.06 43.9 37.22 43.9 37.38 43.84 37.54 43.84 38.19 43.84 38.35 43.78 39.15 43.9 39.47 43.97 39.63 43.59 39.79 43.9 39.95 43.84 40.11 43.9 40.28 43.9 40.44 43.9 40.92 44.09 41.08 44.09 41.4 43.41 41.56 43.41 41.72 43.41 42.2 43.41 42.53 43.41 43.01 44.15 43.65 44.15 43.97 44.09 44.45 44.15 45.58 44.03 46.22 43.9 46.38 44.03 46.54 44.03 46.7 43.84 46.87 43.47 47.03 43.47 47.35 43.47 47.51 43.47 47.67 43.47 47.83 43.47 47.99 43.47 48.15 43.47 48.31 43.47 48.63 43.47 48.79 43.41 48.95 43.41 49.6 43.1 49.76 43.1 49.92 43.1 50.24 43.03 50.56 38.99 50.72 43.03 51.2 42.85 52.01 42.85 52.81 42.79 53.62 41.23 53.78 41.79 53.94 42.29 54.1 42.97 54.26 43.16 54.58 43.16 54.9 42.79 55.54 42.85 55.7 42.85 55.87 42.79 56.03 42.79 56.19 36.38 56.35 34.7 56.51 35.63 58.44 41.42 58.76 41.6 58.92 42.72 59.24 42.79 59.88 42.79 60.21 42.79 60.53 42.85 61.17 42.79 61.49 32.71 61.65 35.7 61.97 37.69 62.13 37.69 62.29 37.69 62.46 37.37 62.62 37.44 62.78 37.75 63.1 37.87 63.26 37.75 63.58 33.58 63.9 33.77 64.06 34.95 64.22 34.95 64.54 35.45 64.71 36.13 65.51 36.38 66.15 36.69 66.31 36.63 67.6 37.44 67.76 37.5 67.92 37.56 68.4 37.44 68.56 37.44 68.72 37.44 69.05 37.62 69.37 37.5 69.69 37.56 71.13 37.31"/>
      </g>
      <g stroke-width="0.3" fill="#000000" fill-opacity="0.000" class="geometry color_newno_tests" stroke-dasharray="none" stroke="#0000FF" id="fig-f6b8ca5f39fd4ceb8a3b29916d1725f1-element-16">
        <path fill="none" d="M21.63,42.72 L 21.79 42.66 21.95 42.66 22.11 43.03 22.27 43.03 22.44 43.03 22.76 42.72 22.92 42.72 23.08 42.79 23.24 42.79 23.4 42.79 23.56 42.79 23.72 42.79 23.88 42.85 24.2 43.03 24.36 43.1 24.69 43.1 24.85 43.1 25.01 43.1 25.65 43.1 26.13 43.03 26.29 43.03 26.45 42.97 26.61 42.97 26.77 42.97 26.94 42.97 27.1 42.97 27.26 43.03 27.42 43.03 27.74 42.97 27.9 43.03 28.06 42.97 28.22 42.97 28.38 42.97 28.54 42.97 28.7 43.1 29.02 42.97 29.19 43.16 29.35 43.16 29.51 42.97 29.67 42.97 29.83 42.97 29.99 42.97 30.15 42.97 30.63 43.22 30.79 43.03 30.95 42.97 31.11 42.97 31.28 42.97 31.44 42.97 31.6 42.97 31.76 42.97 31.92 42.97 32.08 42.97 32.24 42.97 32.4 42.97 32.56 42.97 32.72 42.97 32.88 42.97 33.04 43.34 33.2 43.34 33.36 43.34 33.53 43.22 33.69 43.22 33.85 42.97 34.01 42.97 34.17 42.97 34.33 42.97 34.49 42.97 34.65 42.97 34.81 42.97 34.97 42.97 35.13 42.97 35.29 42.97 35.78 42.97 36.58 42.97 36.74 42.97 36.9 42.97 37.06 42.97 37.22 42.97 37.38 42.97 37.54 42.97 38.19 42.97 38.35 42.97 39.15 42.97 39.47 42.97 39.63 42.97 39.79 42.97 39.95 43.03 40.11 42.97 40.28 42.97 40.44 42.97 40.92 42.97 41.08 42.97 41.4 42.97 41.56 42.97 41.72 42.97 42.2 42.97 42.53 42.97 43.01 42.91 43.65 42.97 43.97 42.91 44.45 42.91 45.58 42.91 46.22 42.91 46.38 42.91 46.54 42.91 46.7 42.91 46.87 42.91 47.03 42.91 47.35 42.91 47.51 42.91 47.67 42.91 47.83 42.91 47.99 42.91 48.15 42.91 48.31 42.91 48.63 42.91 48.79 42.91 48.95 42.91 49.6 42.97 49.76 42.97 49.92 42.97 50.24 42.97 50.56 43.1 50.72 42.91 51.2 42.91 52.01 42.91 52.81 42.91 53.62 43.1 53.78 43.03 53.94 43.03 54.1 43.03 54.26 42.97 54.58 42.97 54.9 43.03 55.54 43.03 55.7 43.03 55.87 43.1 56.03 43.1 56.19 43.78 56.35 43.84 56.51 43.84 58.44 43.1 58.76 43.1 58.92 43.1 59.24 43.1 59.88 43.1 60.21 43.1 60.53 43.1 61.17 43.16 61.49 43.66 61.65 43.53 61.97 43.47 62.13 43.41 62.29 43.47 62.46 43.47 62.62 43.47 62.78 43.47 63.1 43.47 63.26 43.53 63.58 43.72 63.9 43.59 64.06 43.53 64.22 43.53 64.54 43.53 64.71 43.47 65.51 43.47 66.15 43.41 66.31 43.41 67.6 43.34 67.76 43.34 67.92 43.34 68.4 43.34 68.56 43.34 68.72 43.34 69.05 43.34 69.37 43.34 69.69 43.34 71.13 43.34"/>
      </g>
      <g stroke-width="0.3" fill="#000000" fill-opacity="0.000" class="geometry color_oldfull_fail" stroke-dasharray="none" stroke="#FFA500" id="fig-f6b8ca5f39fd4ceb8a3b29916d1725f1-element-17">
        <path fill="none" d="M21.63,43.72 L 21.79 43.72 21.95 43.16 22.11 43.1 22.27 43.03 22.44 43.03 22.76 43.03 22.92 43.1 23.08 43.22 23.24 43.03 23.4 42.97 23.56 43.1 23.72 43.16 23.88 42.97 24.2 42.72 24.36 43.1 24.69 43.03 24.85 43.03 25.01 43.03 25.65 43.03 26.13 42.85 26.29 42.91 26.45 42.97 26.61 42.85 26.77 42.91 26.94 43.03 27.1 42.79 27.26 42.66 27.42 42.66 27.74 42.91 27.9 42.85 28.06 42.85 28.22 42.97 28.38 42.91 28.54 42.66 28.7 42.72 29.02 43.03 29.19 42.35 29.35 42.16 29.51 42.47 29.67 42.54 29.83 42.54 29.99 42.54 30.15 42.47 30.63 41.29 30.79 41.98 30.95 42.66 31.11 42.6 31.28 42.41 31.44 42.6 31.6 42.66 31.76 42.66 31.92 42.54 32.08 42.47 32.24 42.72 32.4 42.72 32.56 42.66 32.72 42.6 32.88 42.6 33.04 43.28 33.2 43.22 33.36 43.22 33.53 43.16 33.69 43.03 33.85 41.42 34.01 41.85 34.17 42.1 34.33 41.79 34.49 41.79 34.65 41.73 34.81 41.73 34.97 41.73 35.13 41.85 35.29 42.04 35.78 42.04 36.58 41.91 36.74 41.79 36.9 41.79 37.06 41.85 37.22 41.91 37.38 41.98 37.54 41.85 38.19 41.29 38.35 41.35 39.15 40.98 39.47 41.17 39.63 41.29 39.79 41.35 39.95 41.35 40.11 41.48 40.28 41.42 40.44 41.35 40.92 40.98 41.08 41.04 41.4 40.98 41.56 40.73 41.72 40.92 42.2 41.04 42.53 41.17 43.01 40.98 43.65 41.04 43.97 41.35 44.45 41.11 45.58 40.86 46.22 41.04 46.38 41.04 46.54 41.04 46.7 40.86 46.87 40.67 47.03 40.73 47.35 40.86 47.51 40.8 47.67 40.8 47.83 40.55 47.99 40.61 48.15 40.55 48.31 40.55 48.63 40.61 48.79 40.48 48.95 40.3 49.6 40.11 49.76 39.99 49.92 40.11 50.24 40.17 50.56 41.54 50.72 39.55 51.2 39.24 52.01 39.24 52.81 39.3 53.62 39.61 53.78 39.49 53.94 39.36 54.1 39.36 54.26 39.55 54.58 39.36 54.9 38.43 55.54 37.87 55.7 37.93 55.87 37.75 56.03 37.87 56.19 39.99 56.35 40.67 56.51 40.11 58.44 38.62 58.76 38.56 58.92 38 59.24 38.37 59.88 38.8 60.21 38.87 60.53 38.74 61.17 38.99 61.49 40.8 61.65 40.3 61.97 39.3 62.13 39.24 62.29 38.99 62.46 37.81 62.62 38.18 62.78 38.43 63.1 38.49 63.26 38.56 63.58 40.05 63.9 40.05 64.06 39.68 64.22 39.61 64.54 39.8 64.71 39.3 65.51 39.36 66.15 39.55 66.31 39.55 67.6 39.74 67.76 39.74 67.92 39.92 68.4 39.61 68.56 39.55 68.72 39.61 69.05 39.43 69.37 39.18 69.69 38.93 71.13 38.74"/>
      </g>
      <g stroke-width="0.3" fill="#000000" fill-opacity="0.000" class="geometry color_newtests_pass" stroke-dasharray="none" stroke="#008000" id="fig-f6b8ca5f39fd4ceb8a3b29916d1725f1-element-18">
        <path fill="none" d="M21.63,31.78 L 21.79 31.78 21.95 32.15 22.11 33.15 22.27 33.21 22.44 33.21 22.76 32.03 22.92 31.9 23.08 31.71 23.24 31.78 23.4 31.78 23.56 31.53 23.72 31.34 23.88 31.4 24.2 31.78 24.36 31.34 24.69 31.34 24.85 31.34 25.01 31.34 25.65 31.34 26.13 31.09 26.29 30.97 26.45 30.91 26.61 30.84 26.77 30.72 26.94 30.41 27.1 30.16 27.26 30.22 27.42 30.22 27.74 30.16 27.9 30.22 28.06 30.16 28.22 30.04 28.38 30.04 28.54 30.35 28.7 30.35 29.02 29.79 29.19 32.15 29.35 32.4 29.51 30.97 29.67 30.84 29.83 30.78 29.99 30.78 30.15 30.72 30.63 32.71 30.79 31.34 30.95 30.41 31.11 30.35 31.28 30.47 31.44 30.41 31.6 30.1 31.76 30.1 31.92 30.28 32.08 30.35 32.24 30.35 32.4 30.22 32.56 30.1 32.72 30.04 32.88 29.91 33.04 33.77 33.2 33.83 33.36 33.77 33.53 33.27 33.69 33.33 33.85 31.16 34.01 30.53 34.17 30.16 34.33 30.47 34.49 30.41 34.65 30.47 34.81 30.47 34.97 30.47 35.13 30.22 35.29 30.04 35.78 29.85 36.58 29.66 36.74 29.66 36.9 29.66 37.06 29.54 37.22 29.48 37.38 29.29 37.54 29.41 38.19 29.66 38.35 29.66 39.15 29.85 39.47 29.6 39.63 29.66 39.79 29.23 39.95 29.23 40.11 29.1 40.28 29.04 40.44 28.98 40.92 29.1 41.08 28.98 41.4 29.48 41.56 29.72 41.72 29.54 42.2 29.41 42.53 29.16 43.01 28.54 43.65 28.29 43.97 27.86 44.45 27.92 45.58 27.86 46.22 27.36 46.38 27.24 46.54 27.24 46.7 27.3 46.87 27.86 47.03 27.8 47.35 27.61 47.51 27.61 47.67 27.61 47.83 27.73 47.99 27.61 48.15 27.67 48.31 27.67 48.63 27.49 48.79 27.49 48.95 27.61 49.6 27.55 49.76 27.67 49.92 27.73 50.24 27.55 50.56 29.91 50.72 28.05 51.2 28.42 52.01 28.42 52.81 28.36 53.62 28.85 53.78 28.48 53.94 28.11 54.1 27.73 54.26 27.36 54.58 27.49 54.9 28.73 55.54 29.16 55.7 28.98 55.87 29.16 56.03 29.04 56.19 32.52 56.35 33.46 56.51 33.02 58.44 29.29 58.76 29.23 58.92 28.48 59.24 28.05 59.88 27.55 60.21 27.42 60.53 27.3 61.17 26.93 61.49 34.58 61.65 32.03 61.97 30.78 62.13 30.91 62.29 31.03 62.46 32.4 62.62 31.96 62.78 31.34 63.1 31.09 63.26 30.97 63.58 33.46 63.9 33.27 64.06 32.34 64.22 32.34 64.54 31.53 64.71 31.34 65.51 30.78 66.15 30.16 66.31 30.16 67.6 29.04 67.76 29.1 67.92 28.85 68.4 29.04 68.56 29.04 68.72 28.79 69.05 28.67 69.37 29.04 69.69 29.1 71.13 29.1"/>
      </g>
    </g>
  </g>
  <g class="guide ylabels" font-size="2.82" font-family="'PT Sans Caption','Helvetica Neue','Helvetica',sans-serif" fill="#6C606B" id="fig-f6b8ca5f39fd4ceb8a3b29916d1725f1-element-19">
    <text x="18.63" y="45.71" text-anchor="end" dy="0.35em">0</text>
    <text x="18.63" y="39.49" text-anchor="end" dy="0.35em">100</text>
    <text x="18.63" y="33.27" text-anchor="end" dy="0.35em">200</text>
    <text x="18.63" y="27.05" text-anchor="end" dy="0.35em">300</text>
    <text x="18.63" y="20.83" text-anchor="end" dy="0.35em">400</text>
    <text x="18.63" y="14.61" text-anchor="end" dy="0.35em">500</text>
  </g>
  <g font-size="3.88" font-family="'PT Sans','Helvetica Neue','Helvetica',sans-serif" fill="#564A55" stroke="#000000" stroke-opacity="0.000" id="fig-f6b8ca5f39fd4ceb8a3b29916d1725f1-element-20">
    <text x="8.81" y="28.16" text-anchor="middle" dy="0.35em" transform="rotate(-90, 8.81, 30.16)">Number of Packages</text>
  </g>
  <g font-size="3.88" font-family="'PT Sans','Helvetica Neue','Helvetica',sans-serif" fill="#564A55" stroke="#000000" stroke-opacity="0.000" id="fig-f6b8ca5f39fd4ceb8a3b29916d1725f1-element-21">
    <text x="58.12" y="10.61" text-anchor="middle">Julia v0.4</text>
  </g>
</g>
<defs>
<clipPath id="fig-f6b8ca5f39fd4ceb8a3b29916d1725f1-element-5">
  <path d="M19.63,12.61 L 96.6 12.61 96.6 47.71 19.63 47.71" />
</clipPath
></defs>
</svg>
