<?xml version="1.0" encoding="UTF-8"?>
<svg xmlns="http://www.w3.org/2000/svg"
     xmlns:xlink="http://www.w3.org/1999/xlink"
     xmlns:gadfly="http://www.gadflyjl.org/ns"
     version="1.2"
     width="101.6mm" height="76.2mm" viewBox="0 0 101.6 76.2"
     stroke="none"
     fill="#000000"
     stroke-width="0.3"
     font-size="3.88"
>
<g class="plotroot xscalable yscalable" id="fig-cfcb18df25ae411eac651abf11b8fd95-element-1">
  <g font-size="3.88" font-family="'PT Sans','Helvetica Neue','Helvetica',sans-serif" fill="#564A55" stroke="#000000" stroke-opacity="0.000" id="fig-cfcb18df25ae411eac651abf11b8fd95-element-2">
    <text x="58.12" y="64.59" text-anchor="middle" dy="0.6em">Date</text>
  </g>
  <g class="guide xlabels" font-size="2.82" font-family="'PT Sans Caption','Helvetica Neue','Helvetica',sans-serif" fill="#6C606B" id="fig-cfcb18df25ae411eac651abf11b8fd95-element-3">
    <text x="24.98" y="57.91" text-anchor="middle" dy="0.6em">Sep</text>
    <text x="30.27" y="57.91" text-anchor="middle" dy="0.6em">Oct</text>
    <text x="35.73" y="57.91" text-anchor="middle" dy="0.6em">Nov</text>
    <text x="41.02" y="57.91" text-anchor="middle" dy="0.6em">Dec</text>
    <text x="46.48" y="57.91" text-anchor="middle" dy="0.6em">Jan 2015</text>
    <text x="51.95" y="57.91" text-anchor="middle" dy="0.6em">Feb</text>
    <text x="56.88" y="57.91" text-anchor="middle" dy="0.6em">Mar</text>
    <text x="62.35" y="57.91" text-anchor="middle" dy="0.6em">Apr</text>
    <text x="67.63" y="57.91" text-anchor="middle" dy="0.6em">May</text>
    <text x="73.1" y="57.91" text-anchor="middle" dy="0.6em">Jun</text>
    <text x="78.38" y="57.91" text-anchor="middle" dy="0.6em">Jul</text>
    <text x="83.85" y="57.91" text-anchor="middle" dy="0.6em">Aug</text>
    <text x="89.31" y="57.91" text-anchor="middle" dy="0.6em">Sep</text>
    <text x="94.6" y="57.91" text-anchor="middle" dy="0.6em">Oct</text>
  </g>
  <g clip-path="url(#fig-cfcb18df25ae411eac651abf11b8fd95-element-5)" id="fig-cfcb18df25ae411eac651abf11b8fd95-element-4">
    <g pointer-events="visible" opacity="1" fill="#000000" fill-opacity="0.000" stroke="#000000" stroke-opacity="0.000" class="guide background" id="fig-cfcb18df25ae411eac651abf11b8fd95-element-6">
      <rect x="19.63" y="12.61" width="76.97" height="44.3"/>
    </g>
    <g class="guide ygridlines xfixed" stroke-dasharray="0.5,0.5" stroke-width="0.2" stroke="#D0D0E0" id="fig-cfcb18df25ae411eac651abf11b8fd95-element-7">
      <path fill="none" d="M19.63,54.91 L 96.6 54.91"/>
      <path fill="none" d="M19.63,46.85 L 96.6 46.85"/>
      <path fill="none" d="M19.63,38.79 L 96.6 38.79"/>
      <path fill="none" d="M19.63,30.73 L 96.6 30.73"/>
      <path fill="none" d="M19.63,22.67 L 96.6 22.67"/>
      <path fill="none" d="M19.63,14.61 L 96.6 14.61"/>
    </g>
    <g class="guide xgridlines yfixed" stroke-dasharray="0.5,0.5" stroke-width="0.2" stroke="#D0D0E0" id="fig-cfcb18df25ae411eac651abf11b8fd95-element-8">
      <path fill="none" d="M24.98,12.61 L 24.98 56.91"/>
      <path fill="none" d="M30.27,12.61 L 30.27 56.91"/>
      <path fill="none" d="M35.73,12.61 L 35.73 56.91"/>
      <path fill="none" d="M41.02,12.61 L 41.02 56.91"/>
      <path fill="none" d="M46.48,12.61 L 46.48 56.91"/>
      <path fill="none" d="M51.95,12.61 L 51.95 56.91"/>
      <path fill="none" d="M56.88,12.61 L 56.88 56.91"/>
      <path fill="none" d="M62.35,12.61 L 62.35 56.91"/>
      <path fill="none" d="M67.63,12.61 L 67.63 56.91"/>
      <path fill="none" d="M73.1,12.61 L 73.1 56.91"/>
      <path fill="none" d="M78.38,12.61 L 78.38 56.91"/>
      <path fill="none" d="M83.85,12.61 L 83.85 56.91"/>
      <path fill="none" d="M89.31,12.61 L 89.31 56.91"/>
      <path fill="none" d="M94.6,12.61 L 94.6 56.91"/>
    </g>
    <g class="plotpanel" id="fig-cfcb18df25ae411eac651abf11b8fd95-element-9">
      <g stroke-width="0.3" fill="#000000" fill-opacity="0.000" class="geometry color_newnot_possible" stroke="#808080" id="fig-cfcb18df25ae411eac651abf11b8fd95-element-10">
        <path fill="none" d="M76.45,50.56 L 76.62 50.56 76.8 50.56 76.97 50.56 77.15 50.56 77.33 50.56 77.5 50.56 77.68 50.56 78.21 50.56 78.56 50.56 78.91 50.56 79.09 50.56 79.27 50.56 79.44 50.56 79.62 50.56 79.79 50.56 82.79 50.48 84.2 50.48 85.79 50.48 88.78 50.48 89.31 50.48 90.19 50.48 91.07 50 93.89 50 94.6 50"/>
      </g>
      <g stroke-width="0.3" fill="#000000" fill-opacity="0.000" class="geometry color_newno_tests" stroke="#0000FF" id="fig-cfcb18df25ae411eac651abf11b8fd95-element-11">
        <path fill="none" d="M76.45,46.21 L 76.62 46.21 76.8 46.21 76.97 46.21 77.15 46.21 77.33 46.21 77.5 46.21 77.68 46.21 78.21 46.21 78.56 46.21 78.91 46.21 79.09 46.21 79.27 46.29 79.44 46.29 79.62 46.29 79.79 46.37 82.79 46.29 84.2 46.29 85.79 46.29 88.78 46.29 89.31 46.37 90.19 46.37 91.07 46.45 93.89 46.77 94.6 47.02"/>
      </g>
      <g stroke-width="0.3" fill="#000000" fill-opacity="0.000" class="geometry color_newtests_fail" stroke="#FF0000" id="fig-cfcb18df25ae411eac651abf11b8fd95-element-12">
        <path fill="none" d="M76.45,38.47 L 76.62 39.04 76.8 38.87 76.97 37.26 77.15 37.18 77.33 37.42 77.5 37.42 77.68 38.71 78.21 37.99 78.56 37.99 78.91 38.87 79.09 39.04 79.27 37.18 79.44 38.79 79.62 37.58 79.79 38.15 82.79 38.79 84.2 38.31 85.79 39.04 88.78 38.71 89.31 39.12 90.19 39.52 91.07 40.65 93.89 40.41 94.6 40.89"/>
      </g>
      <g stroke-width="0.3" fill="#000000" fill-opacity="0.000" class="geometry color_newtests_pass" stroke="#008000" id="fig-cfcb18df25ae411eac651abf11b8fd95-element-13">
        <path fill="none" d="M76.45,35.01 L 76.62 34.44 76.8 34.44 76.97 36.05 77.15 35.89 77.33 35.65 77.5 35.65 77.68 34.28 78.21 34.92 78.56 34.76 78.91 33.88 79.09 33.55 79.27 35.01 79.44 33.23 79.62 34.36 79.79 33.72 82.79 32.02 84.2 32.02 85.79 30.89 88.78 29.2 89.31 28.56 90.19 27.83 91.07 26.54 93.89 24.93 94.6 23.72"/>
      </g>
      <g stroke-width="0.3" fill="#000000" fill-opacity="0.000" class="geometry color_newnot_possible" stroke="#808080" id="fig-cfcb18df25ae411eac651abf11b8fd95-element-14">
        <path fill="none" d="M21.63,51.85 L 21.81 51.77 21.98 51.69 22.16 51.69 22.34 51.69 22.51 51.69 22.87 51.69 23.04 51.69 23.22 51.69 23.39 51.69 23.57 51.69 23.75 51.69 23.92 51.69 24.1 51.69 24.45 51.69 24.63 51.61 24.98 51.61 25.16 51.61 25.33 51.53 26.04 51.53 26.57 51.53 26.74 51.53 26.92 51.53 27.1 51.53 27.27 51.53 27.45 51.53 27.62 51.53 27.8 51.53 27.98 51.53 28.33 51.45 28.51 51.45 28.68 51.45 28.86 51.45 29.03 51.45 29.21 51.45 29.39 51.37 29.74 51.37 29.92 51.37 30.09 51.37 30.27 51.37 30.44 51.29 30.62 51.29 30.8 51.29 30.97 51.29 31.5 51.29 31.68 51.21 31.85 51.21 32.03 51.21 32.21 51.21 32.38 51.21 32.56 51.21 32.74 51.21 32.91 51.21 33.09 51.21 33.26 51.13 33.44 51.13 33.62 51.13 33.79 51.13 33.97 51.13 34.15 51.13 34.32 51.13 34.5 51.13 34.67 51.13 34.85 51.13 35.03 51.13 35.2 51.13 35.38 51.13 35.56 51.13 35.73 51.13 35.91 51.13 36.08 51.13 36.26 51.13 36.44 51.13 36.61 51.13 37.14 51.13 38.02 51.13 38.2 51.13 38.38 51.13 38.55 51.13 38.73 51.13 38.9 51.13 39.08 51.13 39.79 51.13 39.96 51.13 40.84 51.13 41.2 51.13 41.37 51.21 41.55 51.21 41.72 51.21 41.9 51.21 42.08 51.21 42.25 51.21 42.78 51.21 42.96 51.21 43.31 51.21 43.49 51.21 43.66 51.21 44.19 51.21 44.54 51.21 45.07 51.21 45.78 51.21 46.13 51.21 46.66 51.21 47.89 51.21 48.6 51.21 48.77 51.05 48.95 51.05 49.13 50.97 49.3 50.97 49.48 50.97 49.83 50.97 50.01 50.97 50.18 50.97 50.36 50.88 50.54 50.88 50.71 50.88 50.89 50.88 51.24 50.8 51.42 50.8 51.59 50.8 52.3 50.8 52.48 50.8 52.65 50.8 53 50.8 53.36 50.8 53.53 50.8 54.06 50.8 54.94 50.8 55.82 50.8 56.71 50.8 56.88 50.8 57.06 50.8 57.23 50.24 57.41 50.32 57.76 50.24 58.12 50.24 58.82 50.24 59 50.24 59.17 50.24 59.35 50.24 59.53 50.24 59.7 50.32 59.88 50.24 61.99 50.16 62.35 50.08 62.52 50.08 62.87 50.08 63.58 50.08 63.93 50.08 64.28 50.08 64.99 50.08 65.34 50.08 65.52 50.08 65.87 50.08 66.05 50.08 66.22 50.08 66.4 50.08 66.58 50.08 66.75 50.08 67.1 50.08 67.28 50.08 67.63 50.08 67.99 50.08 68.16 50.08 68.34 50.08 68.69 50.08 68.87 50.08 69.75 50.08 70.45 50.16 70.63 50.08 72.04 50.08 72.22 49.92 72.39 49.92 72.92 49.92 73.1 49.92 73.27 50 73.63 50 73.98 50 74.33 50 75.92 50"/>
      </g>
      <g stroke-width="0.3" fill="#000000" fill-opacity="0.000" class="geometry color_newtests_fail" stroke="#FF0000" id="fig-cfcb18df25ae411eac651abf11b8fd95-element-15">
        <path fill="none" d="M21.63,53.14 L 21.81 53.06 21.98 53.3 22.16 51.53 22.34 51.53 22.51 51.53 22.87 53.22 23.04 53.3 23.22 53.22 23.39 53.38 23.57 53.46 23.75 53.38 23.92 53.38 24.1 53.46 24.45 52.9 24.63 52.74 24.98 52.66 25.16 52.66 25.33 52.74 26.04 52.74 26.57 52.9 26.74 52.9 26.92 52.9 27.1 52.98 27.27 53.06 27.45 53.3 27.62 53.3 27.8 53.3 27.98 53.3 28.33 53.14 28.51 53.06 28.68 53.14 28.86 53.14 29.03 53.22 29.21 53.06 29.39 52.9 29.74 53.46 29.92 50.97 30.09 50.88 30.27 52.42 30.44 52.42 30.62 52.5 30.8 52.5 30.97 52.5 31.5 50.97 31.68 52.17 31.85 52.42 32.03 52.5 32.21 52.58 32.38 52.42 32.56 52.58 32.74 52.58 32.91 52.42 33.09 52.34 33.26 52.09 33.44 52.25 33.62 52.5 33.79 52.5 33.97 52.5 34.15 46.13 34.32 46.13 34.5 46.13 34.67 47.02 34.85 47.02 35.03 52.25 35.2 52.34 35.38 52.42 35.56 52.42 35.73 52.42 35.91 52.42 36.08 52.42 36.26 52.42 36.44 52.5 36.61 52.42 37.14 52.66 38.02 52.58 38.2 52.58 38.38 52.58 38.55 52.58 38.73 52.58 38.9 52.5 39.08 52.5 39.79 52.5 39.96 52.42 40.84 52.58 41.2 52.66 41.37 52.17 41.55 52.58 41.72 52.5 41.9 52.58 42.08 52.58 42.25 52.58 42.78 52.82 42.96 52.82 43.31 51.93 43.49 51.93 43.66 51.93 44.19 51.93 44.54 51.93 45.07 52.9 45.78 52.9 46.13 52.82 46.66 52.9 47.89 52.74 48.6 52.58 48.77 52.74 48.95 52.74 49.13 52.5 49.3 52.01 49.48 52.01 49.83 52.01 50.01 52.01 50.18 52.01 50.36 52.01 50.54 52.01 50.71 52.01 50.89 52.01 51.24 52.01 51.42 51.93 51.59 51.93 52.3 51.53 52.48 51.53 52.65 51.53 53 51.45 53.36 46.21 53.53 51.45 54.06 51.21 54.94 51.21 55.82 51.13 56.71 49.11 56.88 49.84 57.06 50.48 57.23 51.37 57.41 51.61 57.76 51.61 58.12 51.13 58.82 51.21 59 51.21 59.17 51.13 59.35 51.13 59.53 42.82 59.7 40.65 59.88 41.86 61.99 49.35 62.35 49.59 62.52 51.05 62.87 51.13 63.58 51.13 63.93 51.13 64.28 51.21 64.99 51.13 65.34 38.07 65.52 41.94 65.87 44.52 66.05 44.52 66.22 44.52 66.4 44.11 66.58 44.19 66.75 44.6 67.1 44.76 67.28 44.6 67.63 39.2 67.99 39.44 68.16 40.97 68.34 40.97 68.69 41.61 68.87 42.5 69.75 42.82 70.45 43.23 70.63 43.15 72.04 44.19 72.22 44.27 72.39 44.36 72.92 44.19 73.1 44.19 73.27 44.19 73.63 44.44 73.98 44.27 74.33 44.36 75.92 44.03"/>
      </g>
      <g stroke-width="0.3" fill="#000000" fill-opacity="0.000" class="geometry color_newno_tests" stroke="#0000FF" id="fig-cfcb18df25ae411eac651abf11b8fd95-element-16">
        <path fill="none" d="M21.63,51.05 L 21.81 50.97 21.98 50.97 22.16 51.45 22.34 51.45 22.51 51.45 22.87 51.05 23.04 51.05 23.22 51.13 23.39 51.13 23.57 51.13 23.75 51.13 23.92 51.13 24.1 51.21 24.45 51.45 24.63 51.53 24.98 51.53 25.16 51.53 25.33 51.53 26.04 51.53 26.57 51.45 26.74 51.45 26.92 51.37 27.1 51.37 27.27 51.37 27.45 51.37 27.62 51.37 27.8 51.45 27.98 51.45 28.33 51.37 28.51 51.45 28.68 51.37 28.86 51.37 29.03 51.37 29.21 51.37 29.39 51.53 29.74 51.37 29.92 51.61 30.09 51.61 30.27 51.37 30.44 51.37 30.62 51.37 30.8 51.37 30.97 51.37 31.5 51.69 31.68 51.45 31.85 51.37 32.03 51.37 32.21 51.37 32.38 51.37 32.56 51.37 32.74 51.37 32.91 51.37 33.09 51.37 33.26 51.37 33.44 51.37 33.62 51.37 33.79 51.37 33.97 51.37 34.15 51.85 34.32 51.85 34.5 51.85 34.67 51.69 34.85 51.69 35.03 51.37 35.2 51.37 35.38 51.37 35.56 51.37 35.73 51.37 35.91 51.37 36.08 51.37 36.26 51.37 36.44 51.37 36.61 51.37 37.14 51.37 38.02 51.37 38.2 51.37 38.38 51.37 38.55 51.37 38.73 51.37 38.9 51.37 39.08 51.37 39.79 51.37 39.96 51.37 40.84 51.37 41.2 51.37 41.37 51.37 41.55 51.37 41.72 51.45 41.9 51.37 42.08 51.37 42.25 51.37 42.78 51.37 42.96 51.37 43.31 51.37 43.49 51.37 43.66 51.37 44.19 51.37 44.54 51.37 45.07 51.29 45.78 51.37 46.13 51.29 46.66 51.29 47.89 51.29 48.6 51.29 48.77 51.29 48.95 51.29 49.13 51.29 49.3 51.29 49.48 51.29 49.83 51.29 50.01 51.29 50.18 51.29 50.36 51.29 50.54 51.29 50.71 51.29 50.89 51.29 51.24 51.29 51.42 51.29 51.59 51.29 52.3 51.37 52.48 51.37 52.65 51.37 53 51.37 53.36 51.53 53.53 51.29 54.06 51.29 54.94 51.29 55.82 51.29 56.71 51.53 56.88 51.45 57.06 51.45 57.23 51.45 57.41 51.37 57.76 51.37 58.12 51.45 58.82 51.45 59 51.45 59.17 51.53 59.35 51.53 59.53 52.42 59.7 52.5 59.88 52.5 61.99 51.53 62.35 51.53 62.52 51.53 62.87 51.53 63.58 51.53 63.93 51.53 64.28 51.53 64.99 51.61 65.34 52.25 65.52 52.09 65.87 52.01 66.05 51.93 66.22 52.01 66.4 52.01 66.58 52.01 66.75 52.01 67.1 52.01 67.28 52.09 67.63 52.34 67.99 52.17 68.16 52.09 68.34 52.09 68.69 52.09 68.87 52.01 69.75 52.01 70.45 51.93 70.63 51.93 72.04 51.85 72.22 51.85 72.39 51.85 72.92 51.85 73.1 51.85 73.27 51.85 73.63 51.85 73.98 51.85 74.33 51.85 75.92 51.85"/>
      </g>
      <g stroke-width="0.3" fill="#000000" fill-opacity="0.000" class="geometry color_oldfull_fail" stroke="#FFA500" id="fig-cfcb18df25ae411eac651abf11b8fd95-element-17">
        <path fill="none" d="M21.63,52.34 L 21.81 52.34 21.98 51.61 22.16 51.53 22.34 51.45 22.51 51.45 22.87 51.45 23.04 51.53 23.22 51.69 23.39 51.45 23.57 51.37 23.75 51.53 23.92 51.61 24.1 51.37 24.45 51.05 24.63 51.53 24.98 51.45 25.16 51.45 25.33 51.45 26.04 51.45 26.57 51.21 26.74 51.29 26.92 51.37 27.1 51.21 27.27 51.29 27.45 51.45 27.62 51.13 27.8 50.97 27.98 50.97 28.33 51.29 28.51 51.21 28.68 51.21 28.86 51.37 29.03 51.29 29.21 50.97 29.39 51.05 29.74 51.45 29.92 50.56 30.09 50.32 30.27 50.72 30.44 50.8 30.62 50.8 30.8 50.8 30.97 50.72 31.5 49.19 31.68 50.08 31.85 50.97 32.03 50.88 32.21 50.64 32.38 50.88 32.56 50.97 32.74 50.97 32.91 50.8 33.09 50.72 33.26 51.05 33.44 51.05 33.62 50.97 33.79 50.88 33.97 50.88 34.15 51.77 34.32 51.69 34.5 51.69 34.67 51.61 34.85 51.45 35.03 49.35 35.2 49.92 35.38 50.24 35.56 49.84 35.73 49.84 35.91 49.76 36.08 49.76 36.26 49.76 36.44 49.92 36.61 50.16 37.14 50.16 38.02 50 38.2 49.84 38.38 49.84 38.55 49.92 38.73 50 38.9 50.08 39.08 49.92 39.79 49.19 39.96 49.27 40.84 48.79 41.2 49.03 41.37 49.19 41.55 49.27 41.72 49.27 41.9 49.43 42.08 49.35 42.25 49.27 42.78 48.79 42.96 48.87 43.31 48.79 43.49 48.47 43.66 48.71 44.19 48.87 44.54 49.03 45.07 48.79 45.78 48.87 46.13 49.27 46.66 48.95 47.89 48.63 48.6 48.87 48.77 48.87 48.95 48.87 49.13 48.63 49.3 48.39 49.48 48.47 49.83 48.63 50.01 48.55 50.18 48.55 50.36 48.22 50.54 48.31 50.71 48.22 50.89 48.22 51.24 48.31 51.42 48.14 51.59 47.9 52.3 47.66 52.48 47.5 52.65 47.66 53 47.74 53.36 49.51 53.53 46.93 54.06 46.53 54.94 46.53 55.82 46.61 56.71 47.02 56.88 46.85 57.06 46.69 57.23 46.69 57.41 46.93 57.76 46.69 58.12 45.48 58.82 44.76 59 44.84 59.17 44.6 59.35 44.76 59.53 47.5 59.7 48.39 59.88 47.66 61.99 45.73 62.35 45.65 62.52 44.92 62.87 45.4 63.58 45.97 63.93 46.05 64.28 45.89 64.99 46.21 65.34 48.55 65.52 47.9 65.87 46.61 66.05 46.53 66.22 46.21 66.4 44.68 66.58 45.16 66.75 45.48 67.1 45.56 67.28 45.65 67.63 47.58 67.99 47.58 68.16 47.1 68.34 47.02 68.69 47.26 68.87 46.61 69.75 46.69 70.45 46.93 70.63 46.93 72.04 47.18 72.22 47.18 72.39 47.42 72.92 47.02 73.1 46.93 73.27 47.02 73.63 46.77 73.98 46.45 74.33 46.13 75.92 45.89"/>
      </g>
      <g stroke-width="0.3" fill="#000000" fill-opacity="0.000" class="geometry color_newtests_pass" stroke="#008000" id="fig-cfcb18df25ae411eac651abf11b8fd95-element-18">
        <path fill="none" d="M21.63,36.86 L 21.81 36.86 21.98 37.34 22.16 38.63 22.34 38.71 22.51 38.71 22.87 37.18 23.04 37.02 23.22 36.78 23.39 36.86 23.57 36.86 23.75 36.54 23.92 36.29 24.1 36.38 24.45 36.86 24.63 36.29 24.98 36.29 25.16 36.29 25.33 36.29 26.04 36.29 26.57 35.97 26.74 35.81 26.92 35.73 27.1 35.65 27.27 35.49 27.45 35.09 27.62 34.76 27.8 34.84 27.98 34.84 28.33 34.76 28.51 34.84 28.68 34.76 28.86 34.6 29.03 34.6 29.21 35.01 29.39 35.01 29.74 34.28 29.92 37.34 30.09 37.67 30.27 35.81 30.44 35.65 30.62 35.57 30.8 35.57 30.97 35.49 31.5 38.07 31.68 36.29 31.85 35.09 32.03 35.01 32.21 35.17 32.38 35.09 32.56 34.68 32.74 34.68 32.91 34.92 33.09 35.01 33.26 35.01 33.44 34.84 33.62 34.68 33.79 34.6 33.97 34.44 34.15 39.44 34.32 39.52 34.5 39.44 34.67 38.79 34.85 38.87 35.03 36.05 35.2 35.25 35.38 34.76 35.56 35.17 35.73 35.09 35.91 35.17 36.08 35.17 36.26 35.17 36.44 34.84 36.61 34.6 37.14 34.36 38.02 34.12 38.2 34.12 38.38 34.12 38.55 33.96 38.73 33.88 38.9 33.63 39.08 33.8 39.79 34.12 39.96 34.12 40.84 34.36 41.2 34.04 41.37 34.12 41.55 33.55 41.72 33.55 41.9 33.39 42.08 33.31 42.25 33.23 42.78 33.39 42.96 33.23 43.31 33.88 43.49 34.2 43.66 33.96 44.19 33.8 44.54 33.47 45.07 32.67 45.78 32.35 46.13 31.78 46.66 31.86 47.89 31.78 48.6 31.14 48.77 30.97 48.95 30.97 49.13 31.06 49.3 31.78 49.48 31.7 49.83 31.46 50.01 31.46 50.18 31.46 50.36 31.62 50.54 31.46 50.71 31.54 50.89 31.54 51.24 31.3 51.42 31.3 51.59 31.46 52.3 31.38 52.48 31.54 52.65 31.62 53 31.38 53.36 34.44 53.53 32.02 54.06 32.51 54.94 32.51 55.82 32.43 56.71 33.07 56.88 32.59 57.06 32.1 57.23 31.62 57.41 31.14 57.76 31.3 58.12 32.91 58.82 33.47 59 33.23 59.17 33.47 59.35 33.31 59.53 37.83 59.7 39.04 59.88 38.47 61.99 33.63 62.35 33.55 62.52 32.59 62.87 32.02 63.58 31.38 63.93 31.22 64.28 31.06 64.99 30.57 65.34 40.49 65.52 37.18 65.87 35.57 66.05 35.73 66.22 35.89 66.4 37.67 66.58 37.1 66.75 36.29 67.1 35.97 67.28 35.81 67.63 39.04 67.99 38.79 68.16 37.58 68.34 37.58 68.69 36.54 68.87 36.29 69.75 35.57 70.45 34.76 70.63 34.76 72.04 33.31 72.22 33.39 72.39 33.07 72.92 33.31 73.1 33.31 73.27 32.99 73.63 32.83 73.98 33.31 74.33 33.39 75.92 33.39"/>
      </g>
    </g>
  </g>
  <g class="guide ylabels" font-size="2.82" font-family="'PT Sans Caption','Helvetica Neue','Helvetica',sans-serif" fill="#6C606B" id="fig-cfcb18df25ae411eac651abf11b8fd95-element-19">
    <text x="18.63" y="54.91" text-anchor="end" dy="0.35em">0</text>
    <text x="18.63" y="46.85" text-anchor="end" dy="0.35em">100</text>
    <text x="18.63" y="38.79" text-anchor="end" dy="0.35em">200</text>
    <text x="18.63" y="30.73" text-anchor="end" dy="0.35em">300</text>
    <text x="18.63" y="22.67" text-anchor="end" dy="0.35em">400</text>
    <text x="18.63" y="14.61" text-anchor="end" dy="0.35em">500</text>
  </g>
  <g font-size="3.88" font-family="'PT Sans','Helvetica Neue','Helvetica',sans-serif" fill="#564A55" stroke="#000000" stroke-opacity="0.000" id="fig-cfcb18df25ae411eac651abf11b8fd95-element-20">
    <text x="8.81" y="32.76" text-anchor="middle" dy="0.35em" transform="rotate(-90, 8.81, 34.76)">Number of Packages</text>
  </g>
  <g font-size="3.88" font-family="'PT Sans','Helvetica Neue','Helvetica',sans-serif" fill="#564A55" stroke="#000000" stroke-opacity="0.000" id="fig-cfcb18df25ae411eac651abf11b8fd95-element-21">
    <text x="58.12" y="10.61" text-anchor="middle">Julia v0.4</text>
  </g>
</g>
<defs>
<clipPath id="fig-cfcb18df25ae411eac651abf11b8fd95-element-5">
  <path d="M19.63,12.61 L 96.6 12.61 96.6 56.91 19.63 56.91" />
</clipPath
></defs>
</svg>
