<?xml version="1.0" encoding="UTF-8"?>
<svg xmlns="http://www.w3.org/2000/svg"
     xmlns:xlink="http://www.w3.org/1999/xlink"
     xmlns:gadfly="http://www.gadflyjl.org/ns"
     version="1.2"
     width="101.6mm" height="76.2mm" viewBox="0 0 101.6 76.2"
     stroke="none"
     fill="#000000"
     stroke-width="0.3"
     font-size="3.88"
>
<g class="plotroot xscalable yscalable" id="fig-af4fd8cc3ad8412ba8a6e588ab1d71a5-element-1">
  <g font-size="3.88" font-family="'PT Sans','Helvetica Neue','Helvetica',sans-serif" fill="#564A55" stroke="#000000" stroke-opacity="0.000" id="fig-af4fd8cc3ad8412ba8a6e588ab1d71a5-element-2">
    <text x="58.12" y="64.59" text-anchor="middle" dy="0.6em">Date</text>
  </g>
  <g class="guide xlabels" font-size="2.82" font-family="'PT Sans Caption','Helvetica Neue','Helvetica',sans-serif" fill="#6C606B" id="fig-af4fd8cc3ad8412ba8a6e588ab1d71a5-element-3">
    <text x="24.86" y="57.91" text-anchor="middle" dy="0.6em">Sep</text>
    <text x="29.95" y="57.91" text-anchor="middle" dy="0.6em">Oct</text>
    <text x="35.21" y="57.91" text-anchor="middle" dy="0.6em">Nov</text>
    <text x="40.3" y="57.91" text-anchor="middle" dy="0.6em">Dec</text>
    <text x="45.56" y="57.91" text-anchor="middle" dy="0.6em">Jan 2015</text>
    <text x="50.82" y="57.91" text-anchor="middle" dy="0.6em">Feb</text>
    <text x="55.57" y="57.91" text-anchor="middle" dy="0.6em">Mar</text>
    <text x="60.83" y="57.91" text-anchor="middle" dy="0.6em">Apr</text>
    <text x="65.92" y="57.91" text-anchor="middle" dy="0.6em">May</text>
    <text x="71.18" y="57.91" text-anchor="middle" dy="0.6em">Jun</text>
    <text x="76.27" y="57.91" text-anchor="middle" dy="0.6em">Jul</text>
    <text x="81.53" y="57.91" text-anchor="middle" dy="0.6em">Aug</text>
    <text x="86.79" y="57.91" text-anchor="middle" dy="0.6em">Sep</text>
    <text x="91.88" y="57.91" text-anchor="middle" dy="0.6em">Oct</text>
  </g>
  <g clip-path="url(#fig-af4fd8cc3ad8412ba8a6e588ab1d71a5-element-5)" id="fig-af4fd8cc3ad8412ba8a6e588ab1d71a5-element-4">
    <g pointer-events="visible" opacity="1" fill="#000000" fill-opacity="0.000" stroke="#000000" stroke-opacity="0.000" class="guide background" id="fig-af4fd8cc3ad8412ba8a6e588ab1d71a5-element-6">
      <rect x="19.63" y="12.61" width="76.97" height="44.3"/>
    </g>
    <g class="guide ygridlines xfixed" stroke-dasharray="0.5,0.5" stroke-width="0.2" stroke="#D0D0E0" id="fig-af4fd8cc3ad8412ba8a6e588ab1d71a5-element-7">
      <path fill="none" d="M19.63,54.91 L 96.6 54.91"/>
      <path fill="none" d="M19.63,46.85 L 96.6 46.85"/>
      <path fill="none" d="M19.63,38.79 L 96.6 38.79"/>
      <path fill="none" d="M19.63,30.73 L 96.6 30.73"/>
      <path fill="none" d="M19.63,22.67 L 96.6 22.67"/>
      <path fill="none" d="M19.63,14.61 L 96.6 14.61"/>
    </g>
    <g class="guide xgridlines yfixed" stroke-dasharray="0.5,0.5" stroke-width="0.2" stroke="#D0D0E0" id="fig-af4fd8cc3ad8412ba8a6e588ab1d71a5-element-8">
      <path fill="none" d="M24.86,12.61 L 24.86 56.91"/>
      <path fill="none" d="M29.95,12.61 L 29.95 56.91"/>
      <path fill="none" d="M35.21,12.61 L 35.21 56.91"/>
      <path fill="none" d="M40.3,12.61 L 40.3 56.91"/>
      <path fill="none" d="M45.56,12.61 L 45.56 56.91"/>
      <path fill="none" d="M50.82,12.61 L 50.82 56.91"/>
      <path fill="none" d="M55.57,12.61 L 55.57 56.91"/>
      <path fill="none" d="M60.83,12.61 L 60.83 56.91"/>
      <path fill="none" d="M65.92,12.61 L 65.92 56.91"/>
      <path fill="none" d="M71.18,12.61 L 71.18 56.91"/>
      <path fill="none" d="M76.27,12.61 L 76.27 56.91"/>
      <path fill="none" d="M81.53,12.61 L 81.53 56.91"/>
      <path fill="none" d="M86.79,12.61 L 86.79 56.91"/>
      <path fill="none" d="M91.88,12.61 L 91.88 56.91"/>
    </g>
    <g class="plotpanel" id="fig-af4fd8cc3ad8412ba8a6e588ab1d71a5-element-9">
      <g stroke-width="0.3" fill="#000000" fill-opacity="0.000" class="geometry color_newnot_possible" stroke-dasharray="none" stroke="#808080" id="fig-af4fd8cc3ad8412ba8a6e588ab1d71a5-element-10">
        <path fill="none" d="M74.41,50.56 L 74.58 50.56 74.75 50.56 74.92 50.56 75.09 50.56 75.25 50.56 75.42 50.56 75.59 50.56 76.1 50.56 76.44 50.56 76.78 50.56 76.95 50.56 77.12 50.56 77.29 50.56 77.46 50.56 77.63 50.56 80.52 50.48 81.87 50.48 83.4 50.48 86.29 50.48 86.79 50.48 87.64 50.48 88.49 50 91.21 50 91.88 50 92.73 49.92 93.41 49.84 94.09 49.84 94.6 49.76"/>
      </g>
      <g stroke-width="0.3" fill="#000000" fill-opacity="0.000" class="geometry color_newno_tests" stroke-dasharray="none" stroke="#0000FF" id="fig-af4fd8cc3ad8412ba8a6e588ab1d71a5-element-11">
        <path fill="none" d="M74.41,46.21 L 74.58 46.21 74.75 46.21 74.92 46.21 75.09 46.21 75.25 46.21 75.42 46.21 75.59 46.21 76.1 46.21 76.44 46.21 76.78 46.21 76.95 46.21 77.12 46.29 77.29 46.29 77.46 46.29 77.63 46.37 80.52 46.29 81.87 46.29 83.4 46.29 86.29 46.29 86.79 46.37 87.64 46.37 88.49 46.45 91.21 46.77 91.88 47.02 92.73 47.18 93.41 48.55 94.09 48.63 94.6 48.79"/>
      </g>
      <g stroke-width="0.3" fill="#000000" fill-opacity="0.000" class="geometry color_newtests_fail" stroke-dasharray="none" stroke="#FF0000" id="fig-af4fd8cc3ad8412ba8a6e588ab1d71a5-element-12">
        <path fill="none" d="M74.41,38.47 L 74.58 39.04 74.75 38.87 74.92 37.26 75.09 37.18 75.25 37.42 75.42 37.42 75.59 38.71 76.1 37.99 76.44 37.99 76.78 38.87 76.95 39.04 77.12 37.18 77.29 38.79 77.46 37.58 77.63 38.15 80.52 38.79 81.87 38.31 83.4 39.04 86.29 38.71 86.79 39.12 87.64 39.52 88.49 40.65 91.21 40.41 91.88 40.89 92.73 41.13 93.41 41.94 94.09 42.26 94.6 42.82"/>
      </g>
      <g stroke-width="0.3" fill="#000000" fill-opacity="0.000" class="geometry color_newtests_pass" stroke-dasharray="none" stroke="#008000" id="fig-af4fd8cc3ad8412ba8a6e588ab1d71a5-element-13">
        <path fill="none" d="M74.41,35.01 L 74.58 34.44 74.75 34.44 74.92 36.05 75.09 35.89 75.25 35.65 75.42 35.65 75.59 34.28 76.1 34.92 76.44 34.76 76.78 33.88 76.95 33.55 77.12 35.01 77.29 33.23 77.46 34.36 77.63 33.72 80.52 32.02 81.87 32.02 83.4 30.89 86.29 29.2 86.79 28.56 87.64 27.83 88.49 26.54 91.21 24.93 91.88 23.72 92.73 22.67 93.41 22.59 94.09 21.79 94.6 20.9"/>
      </g>
      <g stroke-width="0.3" fill="#000000" fill-opacity="0.000" class="geometry color_newnot_possible" stroke-dasharray="none" stroke="#808080" id="fig-af4fd8cc3ad8412ba8a6e588ab1d71a5-element-14">
        <path fill="none" d="M21.63,51.85 L 21.8 51.77 21.97 51.69 22.14 51.69 22.31 51.69 22.48 51.69 22.82 51.69 22.99 51.69 23.16 51.69 23.33 51.69 23.5 51.69 23.67 51.69 23.84 51.69 24.01 51.69 24.35 51.69 24.52 51.61 24.86 51.61 25.03 51.61 25.2 51.53 25.87 51.53 26.38 51.53 26.55 51.53 26.72 51.53 26.89 51.53 27.06 51.53 27.23 51.53 27.4 51.53 27.57 51.53 27.74 51.53 28.08 51.45 28.25 51.45 28.42 51.45 28.59 51.45 28.76 51.45 28.93 51.45 29.1 51.37 29.44 51.37 29.61 51.37 29.78 51.37 29.95 51.37 30.12 51.29 30.29 51.29 30.46 51.29 30.63 51.29 31.13 51.29 31.3 51.21 31.47 51.21 31.64 51.21 31.81 51.21 31.98 51.21 32.15 51.21 32.32 51.21 32.49 51.21 32.66 51.21 32.83 51.13 33 51.13 33.17 51.13 33.34 51.13 33.51 51.13 33.68 51.13 33.85 51.13 34.02 51.13 34.19 51.13 34.36 51.13 34.53 51.13 34.7 51.13 34.87 51.13 35.04 51.13 35.21 51.13 35.38 51.13 35.55 51.13 35.72 51.13 35.89 51.13 36.06 51.13 36.56 51.13 37.41 51.13 37.58 51.13 37.75 51.13 37.92 51.13 38.09 51.13 38.26 51.13 38.43 51.13 39.11 51.13 39.28 51.13 40.13 51.13 40.47 51.13 40.64 51.21 40.81 51.21 40.98 51.21 41.15 51.21 41.32 51.21 41.49 51.21 41.99 51.21 42.16 51.21 42.5 51.21 42.67 51.21 42.84 51.21 43.35 51.21 43.69 51.21 44.2 51.21 44.88 51.21 45.22 51.21 45.73 51.21 46.92 51.21 47.59 51.21 47.76 51.05 47.93 51.05 48.1 50.97 48.27 50.97 48.44 50.97 48.78 50.97 48.95 50.97 49.12 50.97 49.29 50.88 49.46 50.88 49.63 50.88 49.8 50.88 50.14 50.8 50.31 50.8 50.48 50.8 51.16 50.8 51.33 50.8 51.5 50.8 51.84 50.8 52.18 50.8 52.35 50.8 52.86 50.8 53.7 50.8 54.55 50.8 55.4 50.8 55.57 50.8 55.74 50.8 55.91 50.24 56.08 50.32 56.42 50.24 56.76 50.24 57.44 50.24 57.61 50.24 57.78 50.24 57.95 50.24 58.12 50.24 58.29 50.32 58.46 50.24 60.49 50.16 60.83 50.08 61 50.08 61.34 50.08 62.02 50.08 62.36 50.08 62.7 50.08 63.38 50.08 63.72 50.08 63.89 50.08 64.22 50.08 64.39 50.08 64.56 50.08 64.73 50.08 64.9 50.08 65.07 50.08 65.41 50.08 65.58 50.08 65.92 50.08 66.26 50.08 66.43 50.08 66.6 50.08 66.94 50.08 67.11 50.08 67.96 50.08 68.64 50.16 68.81 50.08 70.16 50.08 70.33 49.92 70.5 49.92 71.01 49.92 71.18 49.92 71.35 50 71.69 50 72.03 50 72.37 50 73.9 50"/>
      </g>
      <g stroke-width="0.3" fill="#000000" fill-opacity="0.000" class="geometry color_newtests_fail" stroke-dasharray="none" stroke="#FF0000" id="fig-af4fd8cc3ad8412ba8a6e588ab1d71a5-element-15">
        <path fill="none" d="M21.63,53.14 L 21.8 53.06 21.97 53.3 22.14 51.53 22.31 51.53 22.48 51.53 22.82 53.22 22.99 53.3 23.16 53.22 23.33 53.38 23.5 53.46 23.67 53.38 23.84 53.38 24.01 53.46 24.35 52.9 24.52 52.74 24.86 52.66 25.03 52.66 25.2 52.74 25.87 52.74 26.38 52.9 26.55 52.9 26.72 52.9 26.89 52.98 27.06 53.06 27.23 53.3 27.4 53.3 27.57 53.3 27.74 53.3 28.08 53.14 28.25 53.06 28.42 53.14 28.59 53.14 28.76 53.22 28.93 53.06 29.1 52.9 29.44 53.46 29.61 50.97 29.78 50.88 29.95 52.42 30.12 52.42 30.29 52.5 30.46 52.5 30.63 52.5 31.13 50.97 31.3 52.17 31.47 52.42 31.64 52.5 31.81 52.58 31.98 52.42 32.15 52.58 32.32 52.58 32.49 52.42 32.66 52.34 32.83 52.09 33 52.25 33.17 52.5 33.34 52.5 33.51 52.5 33.68 46.13 33.85 46.13 34.02 46.13 34.19 47.02 34.36 47.02 34.53 52.25 34.7 52.34 34.87 52.42 35.04 52.42 35.21 52.42 35.38 52.42 35.55 52.42 35.72 52.42 35.89 52.5 36.06 52.42 36.56 52.66 37.41 52.58 37.58 52.58 37.75 52.58 37.92 52.58 38.09 52.58 38.26 52.5 38.43 52.5 39.11 52.5 39.28 52.42 40.13 52.58 40.47 52.66 40.64 52.17 40.81 52.58 40.98 52.5 41.15 52.58 41.32 52.58 41.49 52.58 41.99 52.82 42.16 52.82 42.5 51.93 42.67 51.93 42.84 51.93 43.35 51.93 43.69 51.93 44.2 52.9 44.88 52.9 45.22 52.82 45.73 52.9 46.92 52.74 47.59 52.58 47.76 52.74 47.93 52.74 48.1 52.5 48.27 52.01 48.44 52.01 48.78 52.01 48.95 52.01 49.12 52.01 49.29 52.01 49.46 52.01 49.63 52.01 49.8 52.01 50.14 52.01 50.31 51.93 50.48 51.93 51.16 51.53 51.33 51.53 51.5 51.53 51.84 51.45 52.18 46.21 52.35 51.45 52.86 51.21 53.7 51.21 54.55 51.13 55.4 49.11 55.57 49.84 55.74 50.48 55.91 51.37 56.08 51.61 56.42 51.61 56.76 51.13 57.44 51.21 57.61 51.21 57.78 51.13 57.95 51.13 58.12 42.82 58.29 40.65 58.46 41.86 60.49 49.35 60.83 49.59 61 51.05 61.34 51.13 62.02 51.13 62.36 51.13 62.7 51.21 63.38 51.13 63.72 38.07 63.89 41.94 64.22 44.52 64.39 44.52 64.56 44.52 64.73 44.11 64.9 44.19 65.07 44.6 65.41 44.76 65.58 44.6 65.92 39.2 66.26 39.44 66.43 40.97 66.6 40.97 66.94 41.61 67.11 42.5 67.96 42.82 68.64 43.23 68.81 43.15 70.16 44.19 70.33 44.27 70.5 44.36 71.01 44.19 71.18 44.19 71.35 44.19 71.69 44.44 72.03 44.27 72.37 44.36 73.9 44.03"/>
      </g>
      <g stroke-width="0.3" fill="#000000" fill-opacity="0.000" class="geometry color_newno_tests" stroke-dasharray="none" stroke="#0000FF" id="fig-af4fd8cc3ad8412ba8a6e588ab1d71a5-element-16">
        <path fill="none" d="M21.63,51.05 L 21.8 50.97 21.97 50.97 22.14 51.45 22.31 51.45 22.48 51.45 22.82 51.05 22.99 51.05 23.16 51.13 23.33 51.13 23.5 51.13 23.67 51.13 23.84 51.13 24.01 51.21 24.35 51.45 24.52 51.53 24.86 51.53 25.03 51.53 25.2 51.53 25.87 51.53 26.38 51.45 26.55 51.45 26.72 51.37 26.89 51.37 27.06 51.37 27.23 51.37 27.4 51.37 27.57 51.45 27.74 51.45 28.08 51.37 28.25 51.45 28.42 51.37 28.59 51.37 28.76 51.37 28.93 51.37 29.1 51.53 29.44 51.37 29.61 51.61 29.78 51.61 29.95 51.37 30.12 51.37 30.29 51.37 30.46 51.37 30.63 51.37 31.13 51.69 31.3 51.45 31.47 51.37 31.64 51.37 31.81 51.37 31.98 51.37 32.15 51.37 32.32 51.37 32.49 51.37 32.66 51.37 32.83 51.37 33 51.37 33.17 51.37 33.34 51.37 33.51 51.37 33.68 51.85 33.85 51.85 34.02 51.85 34.19 51.69 34.36 51.69 34.53 51.37 34.7 51.37 34.87 51.37 35.04 51.37 35.21 51.37 35.38 51.37 35.55 51.37 35.72 51.37 35.89 51.37 36.06 51.37 36.56 51.37 37.41 51.37 37.58 51.37 37.75 51.37 37.92 51.37 38.09 51.37 38.26 51.37 38.43 51.37 39.11 51.37 39.28 51.37 40.13 51.37 40.47 51.37 40.64 51.37 40.81 51.37 40.98 51.45 41.15 51.37 41.32 51.37 41.49 51.37 41.99 51.37 42.16 51.37 42.5 51.37 42.67 51.37 42.84 51.37 43.35 51.37 43.69 51.37 44.2 51.29 44.88 51.37 45.22 51.29 45.73 51.29 46.92 51.29 47.59 51.29 47.76 51.29 47.93 51.29 48.1 51.29 48.27 51.29 48.44 51.29 48.78 51.29 48.95 51.29 49.12 51.29 49.29 51.29 49.46 51.29 49.63 51.29 49.8 51.29 50.14 51.29 50.31 51.29 50.48 51.29 51.16 51.37 51.33 51.37 51.5 51.37 51.84 51.37 52.18 51.53 52.35 51.29 52.86 51.29 53.7 51.29 54.55 51.29 55.4 51.53 55.57 51.45 55.74 51.45 55.91 51.45 56.08 51.37 56.42 51.37 56.76 51.45 57.44 51.45 57.61 51.45 57.78 51.53 57.95 51.53 58.12 52.42 58.29 52.5 58.46 52.5 60.49 51.53 60.83 51.53 61 51.53 61.34 51.53 62.02 51.53 62.36 51.53 62.7 51.53 63.38 51.61 63.72 52.25 63.89 52.09 64.22 52.01 64.39 51.93 64.56 52.01 64.73 52.01 64.9 52.01 65.07 52.01 65.41 52.01 65.58 52.09 65.92 52.34 66.26 52.17 66.43 52.09 66.6 52.09 66.94 52.09 67.11 52.01 67.96 52.01 68.64 51.93 68.81 51.93 70.16 51.85 70.33 51.85 70.5 51.85 71.01 51.85 71.18 51.85 71.35 51.85 71.69 51.85 72.03 51.85 72.37 51.85 73.9 51.85"/>
      </g>
      <g stroke-width="0.3" fill="#000000" fill-opacity="0.000" class="geometry color_oldfull_fail" stroke-dasharray="none" stroke="#FFA500" id="fig-af4fd8cc3ad8412ba8a6e588ab1d71a5-element-17">
        <path fill="none" d="M21.63,52.34 L 21.8 52.34 21.97 51.61 22.14 51.53 22.31 51.45 22.48 51.45 22.82 51.45 22.99 51.53 23.16 51.69 23.33 51.45 23.5 51.37 23.67 51.53 23.84 51.61 24.01 51.37 24.35 51.05 24.52 51.53 24.86 51.45 25.03 51.45 25.2 51.45 25.87 51.45 26.38 51.21 26.55 51.29 26.72 51.37 26.89 51.21 27.06 51.29 27.23 51.45 27.4 51.13 27.57 50.97 27.74 50.97 28.08 51.29 28.25 51.21 28.42 51.21 28.59 51.37 28.76 51.29 28.93 50.97 29.1 51.05 29.44 51.45 29.61 50.56 29.78 50.32 29.95 50.72 30.12 50.8 30.29 50.8 30.46 50.8 30.63 50.72 31.13 49.19 31.3 50.08 31.47 50.97 31.64 50.88 31.81 50.64 31.98 50.88 32.15 50.97 32.32 50.97 32.49 50.8 32.66 50.72 32.83 51.05 33 51.05 33.17 50.97 33.34 50.88 33.51 50.88 33.68 51.77 33.85 51.69 34.02 51.69 34.19 51.61 34.36 51.45 34.53 49.35 34.7 49.92 34.87 50.24 35.04 49.84 35.21 49.84 35.38 49.76 35.55 49.76 35.72 49.76 35.89 49.92 36.06 50.16 36.56 50.16 37.41 50 37.58 49.84 37.75 49.84 37.92 49.92 38.09 50 38.26 50.08 38.43 49.92 39.11 49.19 39.28 49.27 40.13 48.79 40.47 49.03 40.64 49.19 40.81 49.27 40.98 49.27 41.15 49.43 41.32 49.35 41.49 49.27 41.99 48.79 42.16 48.87 42.5 48.79 42.67 48.47 42.84 48.71 43.35 48.87 43.69 49.03 44.2 48.79 44.88 48.87 45.22 49.27 45.73 48.95 46.92 48.63 47.59 48.87 47.76 48.87 47.93 48.87 48.1 48.63 48.27 48.39 48.44 48.47 48.78 48.63 48.95 48.55 49.12 48.55 49.29 48.22 49.46 48.31 49.63 48.22 49.8 48.22 50.14 48.31 50.31 48.14 50.48 47.9 51.16 47.66 51.33 47.5 51.5 47.66 51.84 47.74 52.18 49.51 52.35 46.93 52.86 46.53 53.7 46.53 54.55 46.61 55.4 47.02 55.57 46.85 55.74 46.69 55.91 46.69 56.08 46.93 56.42 46.69 56.76 45.48 57.44 44.76 57.61 44.84 57.78 44.6 57.95 44.76 58.12 47.5 58.29 48.39 58.46 47.66 60.49 45.73 60.83 45.65 61 44.92 61.34 45.4 62.02 45.97 62.36 46.05 62.7 45.89 63.38 46.21 63.72 48.55 63.89 47.9 64.22 46.61 64.39 46.53 64.56 46.21 64.73 44.68 64.9 45.16 65.07 45.48 65.41 45.56 65.58 45.65 65.92 47.58 66.26 47.58 66.43 47.1 66.6 47.02 66.94 47.26 67.11 46.61 67.96 46.69 68.64 46.93 68.81 46.93 70.16 47.18 70.33 47.18 70.5 47.42 71.01 47.02 71.18 46.93 71.35 47.02 71.69 46.77 72.03 46.45 72.37 46.13 73.9 45.89"/>
      </g>
      <g stroke-width="0.3" fill="#000000" fill-opacity="0.000" class="geometry color_newtests_pass" stroke-dasharray="none" stroke="#008000" id="fig-af4fd8cc3ad8412ba8a6e588ab1d71a5-element-18">
        <path fill="none" d="M21.63,36.86 L 21.8 36.86 21.97 37.34 22.14 38.63 22.31 38.71 22.48 38.71 22.82 37.18 22.99 37.02 23.16 36.78 23.33 36.86 23.5 36.86 23.67 36.54 23.84 36.29 24.01 36.38 24.35 36.86 24.52 36.29 24.86 36.29 25.03 36.29 25.2 36.29 25.87 36.29 26.38 35.97 26.55 35.81 26.72 35.73 26.89 35.65 27.06 35.49 27.23 35.09 27.4 34.76 27.57 34.84 27.74 34.84 28.08 34.76 28.25 34.84 28.42 34.76 28.59 34.6 28.76 34.6 28.93 35.01 29.1 35.01 29.44 34.28 29.61 37.34 29.78 37.67 29.95 35.81 30.12 35.65 30.29 35.57 30.46 35.57 30.63 35.49 31.13 38.07 31.3 36.29 31.47 35.09 31.64 35.01 31.81 35.17 31.98 35.09 32.15 34.68 32.32 34.68 32.49 34.92 32.66 35.01 32.83 35.01 33 34.84 33.17 34.68 33.34 34.6 33.51 34.44 33.68 39.44 33.85 39.52 34.02 39.44 34.19 38.79 34.36 38.87 34.53 36.05 34.7 35.25 34.87 34.76 35.04 35.17 35.21 35.09 35.38 35.17 35.55 35.17 35.72 35.17 35.89 34.84 36.06 34.6 36.56 34.36 37.41 34.12 37.58 34.12 37.75 34.12 37.92 33.96 38.09 33.88 38.26 33.63 38.43 33.8 39.11 34.12 39.28 34.12 40.13 34.36 40.47 34.04 40.64 34.12 40.81 33.55 40.98 33.55 41.15 33.39 41.32 33.31 41.49 33.23 41.99 33.39 42.16 33.23 42.5 33.88 42.67 34.2 42.84 33.96 43.35 33.8 43.69 33.47 44.2 32.67 44.88 32.35 45.22 31.78 45.73 31.86 46.92 31.78 47.59 31.14 47.76 30.97 47.93 30.97 48.1 31.06 48.27 31.78 48.44 31.7 48.78 31.46 48.95 31.46 49.12 31.46 49.29 31.62 49.46 31.46 49.63 31.54 49.8 31.54 50.14 31.3 50.31 31.3 50.48 31.46 51.16 31.38 51.33 31.54 51.5 31.62 51.84 31.38 52.18 34.44 52.35 32.02 52.86 32.51 53.7 32.51 54.55 32.43 55.4 33.07 55.57 32.59 55.74 32.1 55.91 31.62 56.08 31.14 56.42 31.3 56.76 32.91 57.44 33.47 57.61 33.23 57.78 33.47 57.95 33.31 58.12 37.83 58.29 39.04 58.46 38.47 60.49 33.63 60.83 33.55 61 32.59 61.34 32.02 62.02 31.38 62.36 31.22 62.7 31.06 63.38 30.57 63.72 40.49 63.89 37.18 64.22 35.57 64.39 35.73 64.56 35.89 64.73 37.67 64.9 37.1 65.07 36.29 65.41 35.97 65.58 35.81 65.92 39.04 66.26 38.79 66.43 37.58 66.6 37.58 66.94 36.54 67.11 36.29 67.96 35.57 68.64 34.76 68.81 34.76 70.16 33.31 70.33 33.39 70.5 33.07 71.01 33.31 71.18 33.31 71.35 32.99 71.69 32.83 72.03 33.31 72.37 33.39 73.9 33.39"/>
      </g>
    </g>
  </g>
  <g class="guide ylabels" font-size="2.82" font-family="'PT Sans Caption','Helvetica Neue','Helvetica',sans-serif" fill="#6C606B" id="fig-af4fd8cc3ad8412ba8a6e588ab1d71a5-element-19">
    <text x="18.63" y="54.91" text-anchor="end" dy="0.35em">0</text>
    <text x="18.63" y="46.85" text-anchor="end" dy="0.35em">100</text>
    <text x="18.63" y="38.79" text-anchor="end" dy="0.35em">200</text>
    <text x="18.63" y="30.73" text-anchor="end" dy="0.35em">300</text>
    <text x="18.63" y="22.67" text-anchor="end" dy="0.35em">400</text>
    <text x="18.63" y="14.61" text-anchor="end" dy="0.35em">500</text>
  </g>
  <g font-size="3.88" font-family="'PT Sans','Helvetica Neue','Helvetica',sans-serif" fill="#564A55" stroke="#000000" stroke-opacity="0.000" id="fig-af4fd8cc3ad8412ba8a6e588ab1d71a5-element-20">
    <text x="8.81" y="32.76" text-anchor="middle" dy="0.35em" transform="rotate(-90, 8.81, 34.76)">Number of Packages</text>
  </g>
  <g font-size="3.88" font-family="'PT Sans','Helvetica Neue','Helvetica',sans-serif" fill="#564A55" stroke="#000000" stroke-opacity="0.000" id="fig-af4fd8cc3ad8412ba8a6e588ab1d71a5-element-21">
    <text x="58.12" y="10.61" text-anchor="middle">Julia v0.4</text>
  </g>
</g>
<defs>
<clipPath id="fig-af4fd8cc3ad8412ba8a6e588ab1d71a5-element-5">
  <path d="M19.63,12.61 L 96.6 12.61 96.6 56.91 19.63 56.91" />
</clipPath
></defs>
</svg>
