<?xml version="1.0" encoding="UTF-8"?>
<svg xmlns="http://www.w3.org/2000/svg"
     xmlns:xlink="http://www.w3.org/1999/xlink"
     xmlns:gadfly="http://www.gadflyjl.org/ns"
     version="1.2"
     width="101.6mm" height="76.2mm" viewBox="0 0 101.6 76.2"
     stroke="none"
     fill="#000000"
     stroke-width="0.3"
     font-size="3.88"
>
<g class="plotroot xscalable yscalable" id="fig-0118a92c09ee4182841ed9a772d34886-element-1">
  <g font-size="3.88" font-family="'PT Sans','Helvetica Neue','Helvetica',sans-serif" fill="#564A55" stroke="#000000" stroke-opacity="0.000" id="fig-0118a92c09ee4182841ed9a772d34886-element-2">
    <text x="58.12" y="64.59" text-anchor="middle" dy="0.6em">Date</text>
  </g>
  <g class="guide xlabels" font-size="2.82" font-family="'PT Sans Caption','Helvetica Neue','Helvetica',sans-serif" fill="#6C606B" id="fig-0118a92c09ee4182841ed9a772d34886-element-3">
    <text x="24.88" y="57.91" text-anchor="middle" dy="0.6em">Sep</text>
    <text x="30.01" y="57.91" text-anchor="middle" dy="0.6em">Oct</text>
    <text x="35.3" y="57.91" text-anchor="middle" dy="0.6em">Nov</text>
    <text x="40.43" y="57.91" text-anchor="middle" dy="0.6em">Dec</text>
    <text x="45.73" y="57.91" text-anchor="middle" dy="0.6em">Jan 2015</text>
    <text x="51.02" y="57.91" text-anchor="middle" dy="0.6em">Feb</text>
    <text x="55.81" y="57.91" text-anchor="middle" dy="0.6em">Mar</text>
    <text x="61.11" y="57.91" text-anchor="middle" dy="0.6em">Apr</text>
    <text x="66.23" y="57.91" text-anchor="middle" dy="0.6em">May</text>
    <text x="71.53" y="57.91" text-anchor="middle" dy="0.6em">Jun</text>
    <text x="76.66" y="57.91" text-anchor="middle" dy="0.6em">Jul</text>
    <text x="81.95" y="57.91" text-anchor="middle" dy="0.6em">Aug</text>
    <text x="87.25" y="57.91" text-anchor="middle" dy="0.6em">Sep</text>
    <text x="92.38" y="57.91" text-anchor="middle" dy="0.6em">Oct</text>
  </g>
  <g clip-path="url(#fig-0118a92c09ee4182841ed9a772d34886-element-5)" id="fig-0118a92c09ee4182841ed9a772d34886-element-4">
    <g pointer-events="visible" opacity="1" fill="#000000" fill-opacity="0.000" stroke="#000000" stroke-opacity="0.000" class="guide background" id="fig-0118a92c09ee4182841ed9a772d34886-element-6">
      <rect x="19.63" y="12.61" width="76.97" height="44.3"/>
    </g>
    <g class="guide ygridlines xfixed" stroke-dasharray="0.5,0.5" stroke-width="0.2" stroke="#D0D0E0" id="fig-0118a92c09ee4182841ed9a772d34886-element-7">
      <path fill="none" d="M19.63,54.91 L 96.6 54.91"/>
      <path fill="none" d="M19.63,34.76 L 96.6 34.76"/>
      <path fill="none" d="M19.63,14.61 L 96.6 14.61"/>
    </g>
    <g class="guide xgridlines yfixed" stroke-dasharray="0.5,0.5" stroke-width="0.2" stroke="#D0D0E0" id="fig-0118a92c09ee4182841ed9a772d34886-element-8">
      <path fill="none" d="M24.88,12.61 L 24.88 56.91"/>
      <path fill="none" d="M30.01,12.61 L 30.01 56.91"/>
      <path fill="none" d="M35.3,12.61 L 35.3 56.91"/>
      <path fill="none" d="M40.43,12.61 L 40.43 56.91"/>
      <path fill="none" d="M45.73,12.61 L 45.73 56.91"/>
      <path fill="none" d="M51.02,12.61 L 51.02 56.91"/>
      <path fill="none" d="M55.81,12.61 L 55.81 56.91"/>
      <path fill="none" d="M61.11,12.61 L 61.11 56.91"/>
      <path fill="none" d="M66.23,12.61 L 66.23 56.91"/>
      <path fill="none" d="M71.53,12.61 L 71.53 56.91"/>
      <path fill="none" d="M76.66,12.61 L 76.66 56.91"/>
      <path fill="none" d="M81.95,12.61 L 81.95 56.91"/>
      <path fill="none" d="M87.25,12.61 L 87.25 56.91"/>
      <path fill="none" d="M92.38,12.61 L 92.38 56.91"/>
    </g>
    <g class="plotpanel" id="fig-0118a92c09ee4182841ed9a772d34886-element-9">
      <g stroke-width="0.3" fill="#000000" fill-opacity="0.000" class="geometry color_newnot_possible" stroke-dasharray="none" stroke="#808080" id="fig-0118a92c09ee4182841ed9a772d34886-element-10">
        <path fill="none" d="M74.78,51.36 L 74.95 51.36 75.12 51.38 75.29 51.38 75.46 51.39 75.63 51.39 75.8 51.39 75.97 51.4 76.49 51.4 76.83 51.42 77.17 51.42 77.34 51.43 77.51 51.45 77.68 51.46 77.85 51.47 78.02 51.47 80.93 51.48 82.3 51.52 83.83 51.54 86.74 51.66 87.25 51.67 88.11 51.69 88.96 51.38 91.69 51.47 92.38 51.5 93.23 51.49 93.92 51.31 94.6 51.33"/>
      </g>
      <g stroke-width="0.3" fill="#000000" fill-opacity="0.000" class="geometry color_newno_tests" stroke-dasharray="none" stroke="#0000FF" id="fig-0118a92c09ee4182841ed9a772d34886-element-11">
        <path fill="none" d="M74.78,47.81 L 74.95 47.81 75.12 47.84 75.29 47.84 75.46 47.87 75.63 47.87 75.8 47.87 75.97 47.88 76.49 47.89 76.83 47.92 77.17 47.92 77.34 47.94 77.51 48.05 77.68 48.07 77.85 48.08 78.02 48.14 80.93 48.24 82.3 48.3 83.83 48.35 86.74 48.59 87.25 48.67 88.11 48.71 88.96 48.83 91.69 49.21 92.38 49.43 93.23 49.61 93.92 50.39 94.6 50.48"/>
      </g>
      <g stroke-width="0.3" fill="#000000" fill-opacity="0.000" class="geometry color_newtests_fail" stroke-dasharray="none" stroke="#FF0000" id="fig-0118a92c09ee4182841ed9a772d34886-element-12">
        <path fill="none" d="M74.78,41.5 L 74.95 41.96 75.12 41.87 75.29 40.56 75.46 40.57 75.63 40.76 75.8 40.76 75.97 41.83 76.49 41.26 76.83 41.31 77.17 42.02 77.34 42.19 77.51 40.8 77.68 42.12 77.85 41.18 78.02 41.63 80.93 42.44 82.3 42.18 83.83 42.83 86.74 43.04 87.25 43.37 88.11 43.73 88.96 44.65 91.69 44.75 92.38 45.18 93.23 45.46 93.92 45.7 94.6 45.99"/>
      </g>
      <g stroke-width="0.3" fill="#000000" fill-opacity="0.000" class="geometry color_newtests_pass" stroke-dasharray="none" stroke="#008000" id="fig-0118a92c09ee4182841ed9a772d34886-element-13">
        <path fill="none" d="M74.78,38.68 L 74.95 38.22 75.12 38.27 75.29 39.58 75.46 39.52 75.63 39.33 75.8 39.33 75.97 38.25 76.49 38.79 76.83 38.72 77.17 38 77.34 37.8 77.51 39.06 77.68 37.71 77.85 38.63 78.02 38.12 80.93 37.2 82.3 37.36 83.83 36.63 86.74 36.06 87.25 35.65 88.11 35.23 88.96 34.5 91.69 33.92 92.38 33.25 93.23 32.8 93.92 31.96 94.6 31.55"/>
      </g>
      <g stroke-width="0.3" fill="#000000" fill-opacity="0.000" class="geometry color_newnot_possible" stroke-dasharray="none" stroke="#808080" id="fig-0118a92c09ee4182841ed9a772d34886-element-14">
        <path fill="none" d="M21.63,50.71 L 21.8 50.63 21.97 50.53 22.14 50.55 22.32 50.55 22.49 50.55 22.83 50.58 23 50.58 23.17 50.59 23.34 50.59 23.51 50.59 23.68 50.63 23.85 50.65 24.02 50.65 24.37 50.67 24.54 50.6 24.88 50.62 25.05 50.62 25.22 50.52 25.9 50.52 26.42 50.59 26.59 50.6 26.76 50.61 26.93 50.63 27.1 50.63 27.27 50.63 27.44 50.71 27.61 50.71 27.78 50.71 28.13 50.63 28.3 50.63 28.47 50.64 28.64 50.64 28.81 50.64 28.98 50.65 29.15 50.55 29.49 50.54 29.66 50.55 29.83 50.55 30.01 50.57 30.18 50.49 30.35 50.49 30.52 50.49 30.69 50.51 31.2 50.53 31.37 50.44 31.54 50.46 31.71 50.47 31.88 50.47 32.06 50.47 32.23 50.49 32.4 50.49 32.57 50.5 32.74 50.51 32.91 50.42 33.08 50.42 33.25 50.42 33.42 50.44 33.59 50.46 33.76 50.46 33.94 50.46 34.11 50.47 34.28 50.47 34.45 50.48 34.62 50.48 34.79 50.5 34.96 50.51 35.13 50.51 35.3 50.52 35.47 50.52 35.64 50.52 35.82 50.52 35.99 50.53 36.16 50.54 36.67 50.54 37.52 50.6 37.69 50.62 37.87 50.62 38.04 50.63 38.21 50.63 38.38 50.66 38.55 50.66 39.23 50.71 39.4 50.71 40.26 50.71 40.6 50.71 40.77 50.82 40.94 50.83 41.11 50.83 41.28 50.83 41.45 50.85 41.63 50.87 42.14 50.88 42.31 50.88 42.65 50.92 42.82 50.92 42.99 50.92 43.51 50.92 43.85 50.94 44.36 50.95 45.04 50.97 45.38 51 45.9 51.02 47.09 51.08 47.78 51.13 47.95 50.98 48.12 50.98 48.29 50.95 48.46 50.95 48.63 50.95 48.97 50.96 49.14 50.97 49.32 50.97 49.49 50.91 49.66 50.92 49.83 50.92 50 50.92 50.34 50.86 50.51 50.88 50.68 50.89 51.37 50.95 51.54 50.95 51.71 50.93 52.05 50.95 52.39 50.98 52.56 50.98 53.07 50.99 53.93 50.99 54.78 51 55.64 51.07 55.81 51.07 55.98 51.07 56.15 50.55 56.32 50.63 56.66 50.57 57.01 50.57 57.69 50.58 57.86 50.59 58.03 50.59 58.2 50.59 58.37 50.61 58.54 50.68 58.71 50.62 60.76 50.58 61.11 50.5 61.28 50.53 61.62 50.53 62.3 50.53 62.64 50.54 62.99 50.57 63.67 50.58 64.01 50.6 64.18 50.62 64.52 50.66 64.69 50.66 64.87 50.67 65.04 50.68 65.21 50.68 65.38 50.69 65.72 50.69 65.89 50.71 66.23 50.71 66.57 50.72 66.75 50.75 66.92 50.75 67.26 50.77 67.43 50.77 68.28 50.8 68.97 50.88 69.14 50.83 70.51 50.85 70.68 50.72 70.85 50.72 71.36 50.74 71.53 50.75 71.7 50.83 72.04 50.84 72.38 50.84 72.73 50.86 74.26 50.9"/>
      </g>
      <g stroke-width="0.3" fill="#000000" fill-opacity="0.000" class="geometry color_newtests_fail" stroke-dasharray="none" stroke="#FF0000" id="fig-0118a92c09ee4182841ed9a772d34886-element-15">
        <path fill="none" d="M21.63,52.48 L 21.8 52.39 21.97 52.72 22.14 50.33 22.32 50.33 22.49 50.33 22.83 52.64 23 52.75 23.17 52.65 23.34 52.86 23.51 52.97 23.68 52.88 23.85 52.89 24.02 53 24.37 52.26 24.54 52.07 24.88 51.98 25.05 51.98 25.22 52.09 25.9 52.09 26.42 52.34 26.59 52.34 26.76 52.35 26.93 52.47 27.1 52.57 27.27 52.87 27.44 52.91 27.61 52.91 27.78 52.91 28.13 52.72 28.3 52.62 28.47 52.73 28.64 52.73 28.81 52.83 28.98 52.63 29.15 52.43 29.49 53.12 29.66 50.05 29.83 49.95 30.01 51.85 30.18 51.87 30.35 51.97 30.52 51.97 30.69 51.98 31.2 50.14 31.37 51.61 31.54 51.91 31.71 52.02 31.88 52.11 32.06 51.92 32.23 52.13 32.4 52.13 32.57 51.94 32.74 51.85 32.91 51.56 33.08 51.76 33.25 52.04 33.42 52.06 33.59 52.07 33.76 44.58 33.94 44.58 34.11 44.6 34.28 45.64 34.45 45.67 34.62 51.8 34.79 51.91 34.96 52.01 35.13 52.01 35.3 52.02 35.47 52.02 35.64 52.02 35.82 52.02 35.99 52.12 36.16 52.03 36.67 52.31 37.52 52.25 37.69 52.26 37.87 52.26 38.04 52.27 38.21 52.27 38.38 52.2 38.55 52.2 39.23 52.23 39.4 52.14 40.26 52.32 40.6 52.41 40.77 51.89 40.94 52.34 41.11 52.25 41.28 52.34 41.45 52.35 41.63 52.36 42.14 52.63 42.31 52.64 42.65 51.7 42.82 51.7 42.99 51.7 43.51 51.7 43.85 51.71 44.36 52.76 45.04 52.77 45.38 52.7 45.9 52.8 47.09 52.66 47.78 52.53 47.95 52.7 48.12 52.7 48.29 52.49 48.46 52 48.63 52 48.97 52.01 49.14 52.01 49.32 52.01 49.49 52.03 49.66 52.04 49.83 52.04 50 52.04 50.34 52.05 50.51 51.99 50.68 52 51.37 51.65 51.54 51.65 51.71 51.63 52.05 51.58 52.39 46.58 52.56 51.59 53.07 51.38 53.93 51.38 54.78 51.31 55.64 49.48 55.81 50.16 55.98 50.76 56.15 51.61 56.32 51.83 56.66 51.84 57.01 51.39 57.69 51.48 57.86 51.49 58.03 51.41 58.2 51.41 58.37 43.78 58.54 41.75 58.71 42.91 60.76 49.84 61.11 50.06 61.28 51.4 61.62 51.48 62.3 51.48 62.64 51.49 62.99 51.58 63.67 51.52 64.01 39.87 64.18 43.39 64.52 45.76 64.69 45.76 64.87 45.78 65.04 45.46 65.21 45.53 65.38 45.9 65.72 46.05 65.89 45.94 66.23 41.25 66.57 41.5 66.75 42.89 66.92 42.91 67.26 43.51 67.43 44.29 68.28 44.63 68.97 45.01 69.14 44.98 70.51 45.91 70.68 45.97 70.85 46.04 71.36 45.97 71.53 45.98 71.7 46.01 72.04 46.24 72.38 46.11 72.73 46.2 74.26 46.04"/>
      </g>
      <g stroke-width="0.3" fill="#000000" fill-opacity="0.000" class="geometry color_newno_tests" stroke-dasharray="none" stroke="#0000FF" id="fig-0118a92c09ee4182841ed9a772d34886-element-16">
        <path fill="none" d="M21.63,49.6 L 21.8 49.53 21.97 49.55 22.14 50.22 22.32 50.22 22.49 50.22 22.83 49.71 23 49.71 23.17 49.84 23.34 49.84 23.51 49.84 23.68 49.88 23.85 49.9 24.02 50.01 24.37 50.35 24.54 50.5 24.88 50.52 25.05 50.52 25.22 50.52 25.9 50.52 26.42 50.48 26.59 50.49 26.76 50.4 26.93 50.43 27.1 50.43 27.27 50.43 27.44 50.51 27.61 50.61 27.78 50.61 28.13 50.53 28.3 50.63 28.47 50.54 28.64 50.54 28.81 50.54 28.98 50.55 29.15 50.75 29.49 50.54 29.66 50.84 29.83 50.84 30.01 50.57 30.18 50.59 30.35 50.59 30.52 50.59 30.69 50.61 31.2 51.02 31.37 50.73 31.54 50.65 31.71 50.66 31.88 50.66 32.06 50.66 32.23 50.68 32.4 50.68 32.57 50.69 32.74 50.7 32.91 50.7 33.08 50.7 33.25 50.7 33.42 50.72 33.59 50.74 33.76 51.31 33.94 51.31 34.11 51.32 34.28 51.13 34.45 51.14 34.62 50.76 34.79 50.78 34.96 50.79 35.13 50.79 35.3 50.8 35.47 50.8 35.64 50.8 35.82 50.8 35.99 50.81 36.16 50.82 36.67 50.82 37.52 50.88 37.69 50.89 37.87 50.89 38.04 50.9 38.21 50.9 38.38 50.93 38.55 50.93 39.23 50.97 39.4 50.97 40.26 50.98 40.6 50.98 40.77 51 40.94 51.01 41.11 51.1 41.28 51.01 41.45 51.03 41.63 51.04 42.14 51.05 42.31 51.06 42.65 51.09 42.82 51.09 42.99 51.09 43.51 51.09 43.85 51.11 44.36 51.04 45.04 51.14 45.38 51.09 45.9 51.1 47.09 51.16 47.78 51.21 47.95 51.23 48.12 51.23 48.29 51.27 48.46 51.27 48.63 51.27 48.97 51.28 49.14 51.29 49.32 51.29 49.49 51.31 49.66 51.32 49.83 51.32 50 51.32 50.34 51.34 50.51 51.36 50.68 51.37 51.37 51.5 51.54 51.5 51.71 51.48 52.05 51.5 52.39 51.67 52.56 51.44 53.07 51.45 53.93 51.45 54.78 51.46 55.64 51.75 55.81 51.67 55.98 51.67 56.15 51.68 56.32 51.61 56.66 51.62 57.01 51.69 57.69 51.7 57.86 51.71 58.03 51.79 58.2 51.79 58.37 52.61 58.54 52.68 58.71 52.69 60.76 51.83 61.11 51.83 61.28 51.84 61.62 51.84 62.3 51.85 62.64 51.85 62.99 51.87 63.67 51.95 64.01 52.54 64.18 52.41 64.52 52.36 64.69 52.29 64.87 52.37 65.04 52.37 65.21 52.37 65.38 52.38 65.72 52.38 65.89 52.46 66.23 52.67 66.57 52.54 66.75 52.48 66.92 52.49 67.26 52.5 67.43 52.43 68.28 52.45 68.97 52.39 69.14 52.4 70.51 52.34 70.68 52.34 70.85 52.34 71.36 52.36 71.53 52.36 71.7 52.37 72.04 52.38 72.38 52.38 72.73 52.39 74.26 52.42"/>
      </g>
      <g stroke-width="0.3" fill="#000000" fill-opacity="0.000" class="geometry color_oldfull_fail" stroke-dasharray="none" stroke="#FFA500" id="fig-0118a92c09ee4182841ed9a772d34886-element-17">
        <path fill="none" d="M21.63,51.37 L 21.8 51.4 21.97 50.42 22.14 50.33 22.32 50.22 22.49 50.22 22.83 50.26 23 50.36 23.17 50.59 23.34 50.27 23.51 50.16 23.68 50.41 23.85 50.54 24.02 50.22 24.37 49.82 24.54 50.5 24.88 50.41 25.05 50.41 25.22 50.41 25.9 50.41 26.42 50.17 26.59 50.29 26.76 50.4 26.93 50.22 27.1 50.32 27.27 50.53 27.44 50.21 27.61 50.01 27.78 50.01 28.13 50.43 28.3 50.33 28.47 50.34 28.64 50.54 28.81 50.44 28.98 50.05 29.15 50.15 29.49 50.64 29.66 49.55 29.83 49.26 30.01 49.78 30.18 49.9 30.35 49.9 30.52 49.9 30.69 49.83 31.2 48 31.37 49.07 31.54 50.17 31.71 50.08 31.88 49.79 32.06 50.08 32.23 50.2 32.4 50.2 32.57 50.02 32.74 49.94 32.91 50.32 33.08 50.32 33.25 50.22 33.42 50.15 33.59 50.17 33.76 51.22 33.94 51.12 34.11 51.13 34.28 51.04 34.45 50.86 34.62 48.4 34.79 49.09 34.96 49.48 35.13 49.01 35.3 49.02 35.47 48.93 35.64 48.93 35.82 48.93 35.99 49.13 36.16 49.42 36.67 49.42 37.52 49.31 37.69 49.16 37.87 49.16 38.04 49.26 38.21 49.35 38.38 49.48 38.55 49.3 39.23 48.56 39.4 48.65 40.26 48.12 40.6 48.39 40.77 48.6 40.94 48.7 41.11 48.7 41.28 48.88 41.45 48.82 41.63 48.76 42.14 48.24 42.31 48.34 42.65 48.31 42.82 47.97 42.99 48.23 43.51 48.4 43.85 48.6 44.36 48.37 45.04 48.48 45.38 48.96 45.9 48.65 47.09 48.41 47.78 48.75 47.95 48.77 48.12 48.77 48.29 48.6 48.46 48.36 48.63 48.44 48.97 48.62 49.14 48.55 49.32 48.55 49.49 48.26 49.66 48.36 49.83 48.28 50 48.28 50.34 48.4 50.51 48.28 50.68 48.05 51.37 47.93 51.54 47.77 51.71 47.89 52.05 48 52.39 49.74 52.56 47.27 53.07 46.92 53.93 46.92 54.78 47.01 55.64 47.52 55.81 47.37 55.98 47.22 56.15 47.25 56.32 47.47 56.66 47.27 57.01 46.15 57.69 45.49 57.86 45.6 58.03 45.38 58.2 45.53 58.37 48.09 58.54 48.89 58.71 48.25 60.76 46.53 61.11 46.46 61.28 45.84 61.62 46.28 62.3 46.81 62.64 46.9 62.99 46.8 63.67 47.11 64.01 49.23 64.18 48.69 64.52 47.61 64.69 47.54 64.87 47.27 65.04 45.95 65.21 46.37 65.38 46.67 65.72 46.76 65.89 46.85 66.23 48.54 66.57 48.56 66.75 48.17 66.92 48.12 67.26 48.35 67.43 47.81 68.28 47.92 68.97 48.15 69.14 48.18 70.51 48.41 70.68 48.41 70.85 48.62 71.36 48.32 71.53 48.26 71.7 48.35 72.04 48.18 72.38 47.91 72.73 47.67 74.26 47.55"/>
      </g>
      <g stroke-width="0.3" fill="#000000" fill-opacity="0.000" class="geometry color_newtests_pass" stroke-dasharray="none" stroke="#008000" id="fig-0118a92c09ee4182841ed9a772d34886-element-18">
        <path fill="none" d="M21.63,30.11 L 21.8 30.32 21.97 31.04 22.14 32.85 22.32 32.96 22.49 32.96 22.83 31.08 23 30.86 23.17 30.6 23.34 30.71 23.51 30.71 23.68 30.48 23.85 30.29 24.02 30.39 24.37 31.16 24.54 30.61 24.88 30.73 25.05 30.73 25.22 30.73 25.9 30.73 26.42 30.69 26.59 30.55 26.76 30.51 26.93 30.53 27.1 30.32 27.27 29.81 27.44 29.91 27.61 30.01 27.78 30.01 28.13 29.97 28.3 30.07 28.47 30.04 28.64 29.84 28.81 29.84 28.98 30.4 29.15 30.4 29.49 29.44 29.66 33.27 29.83 33.67 30.01 31.5 30.18 31.42 30.35 31.32 30.52 31.32 30.69 31.34 31.2 34.57 31.37 32.43 31.54 31.08 31.71 31.04 31.88 31.24 32.06 31.14 32.23 30.77 32.4 30.77 32.57 31.12 32.74 31.27 32.91 31.27 33.08 31.08 33.25 30.89 33.42 30.9 33.59 30.83 33.76 36.71 33.94 36.8 34.11 36.75 34.28 35.99 34.45 36.13 34.62 32.83 34.79 31.99 34.96 31.48 35.13 31.95 35.3 31.91 35.47 32 35.64 32 35.82 32 35.99 31.68 36.16 31.46 36.67 31.18 37.52 31.23 37.69 31.34 37.87 31.34 38.04 31.21 38.21 31.12 38.38 31 38.55 31.19 39.23 31.81 39.4 31.81 40.26 32.13 40.6 31.77 40.77 31.96 40.94 31.39 41.11 31.39 41.28 31.21 41.45 31.23 41.63 31.24 42.14 31.47 42.31 31.35 42.65 32.24 42.82 32.59 42.99 32.33 43.51 32.16 43.85 31.91 44.36 31.15 45.04 30.9 45.38 30.51 45.9 30.7 47.09 30.97 47.78 30.65 47.95 30.59 48.12 30.59 48.29 30.96 48.46 31.69 48.63 31.61 48.97 31.41 49.14 31.46 49.32 31.46 49.49 31.76 49.66 31.64 49.83 31.72 50 31.72 50.34 31.62 50.51 31.76 50.68 31.96 51.37 32.24 51.54 32.39 51.71 32.34 52.05 32.24 52.39 35.3 52.56 32.99 53.07 33.53 53.93 33.53 54.78 33.5 55.64 34.46 55.81 34.01 55.98 33.56 56.15 33.18 56.32 32.73 56.66 32.97 57.01 34.46 57.69 35.03 57.86 34.88 58.03 35.1 58.2 34.95 58.37 39.18 58.54 40.27 58.71 39.8 60.76 35.5 61.11 35.43 61.28 34.65 61.62 34.14 62.3 33.6 62.64 33.49 62.99 33.46 63.67 33.1 64.01 42.03 64.18 39.17 64.52 37.89 64.69 38.03 64.87 38.2 65.04 39.81 65.21 39.32 65.38 38.64 65.72 38.39 65.89 38.3 66.23 41.11 66.57 40.95 66.75 39.97 66.92 40 67.26 39.15 67.43 38.97 68.28 38.46 68.97 37.84 69.14 37.9 70.51 36.76 70.68 36.83 70.85 36.56 71.36 36.88 71.53 36.91 71.7 36.7 72.04 36.63 72.38 37.03 72.73 37.16 74.26 37.36"/>
      </g>
    </g>
  </g>
  <g class="guide ylabels" font-size="2.82" font-family="'PT Sans Caption','Helvetica Neue','Helvetica',sans-serif" fill="#6C606B" id="fig-0118a92c09ee4182841ed9a772d34886-element-19">
    <text x="18.63" y="54.91" text-anchor="end" dy="0.35em">0</text>
    <text x="18.63" y="34.76" text-anchor="end" dy="0.35em">50</text>
    <text x="18.63" y="14.61" text-anchor="end" dy="0.35em">100</text>
  </g>
  <g font-size="3.88" font-family="'PT Sans','Helvetica Neue','Helvetica',sans-serif" fill="#564A55" stroke="#000000" stroke-opacity="0.000" id="fig-0118a92c09ee4182841ed9a772d34886-element-20">
    <text x="8.81" y="32.76" text-anchor="middle" dy="0.35em" transform="rotate(-90, 8.81, 34.76)">Percentage of Packages</text>
  </g>
  <g font-size="3.88" font-family="'PT Sans','Helvetica Neue','Helvetica',sans-serif" fill="#564A55" stroke="#000000" stroke-opacity="0.000" id="fig-0118a92c09ee4182841ed9a772d34886-element-21">
    <text x="58.12" y="10.61" text-anchor="middle">Julia v0.4 (relative)</text>
  </g>
</g>
<defs>
<clipPath id="fig-0118a92c09ee4182841ed9a772d34886-element-5">
  <path d="M19.63,12.61 L 96.6 12.61 96.6 56.91 19.63 56.91" />
</clipPath
></defs>
</svg>
