<?xml version="1.0" encoding="UTF-8"?>
<svg xmlns="http://www.w3.org/2000/svg"
     xmlns:xlink="http://www.w3.org/1999/xlink"
     xmlns:gadfly="http://www.gadflyjl.org/ns"
     version="1.2"
     width="101.6mm" height="76.2mm" viewBox="0 0 101.6 76.2"
     stroke="none"
     fill="#000000"
     stroke-width="0.3"
     font-size="3.88"
>
<g class="plotroot xscalable yscalable" id="fig-65f07ff96030423d99b4535c22155b44-element-1">
  <g font-size="3.88" font-family="'PT Sans','Helvetica Neue','Helvetica',sans-serif" fill="#564A55" stroke="#000000" stroke-opacity="0.000" id="fig-65f07ff96030423d99b4535c22155b44-element-2">
    <text x="58.12" y="64.59" text-anchor="middle" dy="0.6em">Date</text>
  </g>
  <g class="guide xlabels" font-size="2.82" font-family="'PT Sans Caption','Helvetica Neue','Helvetica',sans-serif" fill="#6C606B" id="fig-65f07ff96030423d99b4535c22155b44-element-3">
    <text x="24.66" y="48.71" text-anchor="end" dy="0.35em" transform="rotate(-90, 24.66, 48.71)">Sep</text>
    <text x="29.44" y="48.71" text-anchor="end" dy="0.35em" transform="rotate(-90, 29.44, 48.71)">Oct</text>
    <text x="34.38" y="48.71" text-anchor="end" dy="0.35em" transform="rotate(-90, 34.38, 48.71)">Nov</text>
    <text x="39.16" y="48.71" text-anchor="end" dy="0.35em" transform="rotate(-90, 39.16, 48.71)">Dec</text>
    <text x="44.1" y="48.71" text-anchor="end" dy="0.35em" transform="rotate(-90, 44.1, 48.71)">Jan 2015</text>
    <text x="49.03" y="48.71" text-anchor="end" dy="0.35em" transform="rotate(-90, 49.03, 48.71)">Feb</text>
    <text x="53.5" y="48.71" text-anchor="end" dy="0.35em" transform="rotate(-90, 53.5, 48.71)">Mar</text>
    <text x="58.43" y="48.71" text-anchor="end" dy="0.35em" transform="rotate(-90, 58.43, 48.71)">Apr</text>
    <text x="63.21" y="48.71" text-anchor="end" dy="0.35em" transform="rotate(-90, 63.21, 48.71)">May</text>
    <text x="68.15" y="48.71" text-anchor="end" dy="0.35em" transform="rotate(-90, 68.15, 48.71)">Jun</text>
    <text x="72.93" y="48.71" text-anchor="end" dy="0.35em" transform="rotate(-90, 72.93, 48.71)">Jul</text>
    <text x="77.87" y="48.71" text-anchor="end" dy="0.35em" transform="rotate(-90, 77.87, 48.71)">Aug</text>
    <text x="82.81" y="48.71" text-anchor="end" dy="0.35em" transform="rotate(-90, 82.81, 48.71)">Sep</text>
    <text x="87.59" y="48.71" text-anchor="end" dy="0.35em" transform="rotate(-90, 87.59, 48.71)">Oct</text>
    <text x="92.53" y="48.71" text-anchor="end" dy="0.35em" transform="rotate(-90, 92.53, 48.71)">Nov</text>
  </g>
  <g clip-path="url(#fig-65f07ff96030423d99b4535c22155b44-element-5)" id="fig-65f07ff96030423d99b4535c22155b44-element-4">
    <g pointer-events="visible" opacity="1" fill="#000000" fill-opacity="0.000" stroke="#000000" stroke-opacity="0.000" class="guide background" id="fig-65f07ff96030423d99b4535c22155b44-element-6">
      <rect x="19.63" y="12.61" width="76.97" height="35.1"/>
    </g>
    <g class="guide ygridlines xfixed" stroke-dasharray="0.5,0.5" stroke-width="0.2" stroke="#D0D0E0" id="fig-65f07ff96030423d99b4535c22155b44-element-7">
      <path fill="none" d="M19.63,45.71 L 96.6 45.71"/>
      <path fill="none" d="M19.63,39.49 L 96.6 39.49"/>
      <path fill="none" d="M19.63,33.27 L 96.6 33.27"/>
      <path fill="none" d="M19.63,27.05 L 96.6 27.05"/>
      <path fill="none" d="M19.63,20.83 L 96.6 20.83"/>
      <path fill="none" d="M19.63,14.61 L 96.6 14.61"/>
    </g>
    <g class="guide xgridlines yfixed" stroke-dasharray="0.5,0.5" stroke-width="0.2" stroke="#D0D0E0" id="fig-65f07ff96030423d99b4535c22155b44-element-8">
      <path fill="none" d="M24.66,12.61 L 24.66 47.71"/>
      <path fill="none" d="M29.44,12.61 L 29.44 47.71"/>
      <path fill="none" d="M34.38,12.61 L 34.38 47.71"/>
      <path fill="none" d="M39.16,12.61 L 39.16 47.71"/>
      <path fill="none" d="M44.1,12.61 L 44.1 47.71"/>
      <path fill="none" d="M49.03,12.61 L 49.03 47.71"/>
      <path fill="none" d="M53.5,12.61 L 53.5 47.71"/>
      <path fill="none" d="M58.43,12.61 L 58.43 47.71"/>
      <path fill="none" d="M63.21,12.61 L 63.21 47.71"/>
      <path fill="none" d="M68.15,12.61 L 68.15 47.71"/>
      <path fill="none" d="M72.93,12.61 L 72.93 47.71"/>
      <path fill="none" d="M77.87,12.61 L 77.87 47.71"/>
      <path fill="none" d="M82.81,12.61 L 82.81 47.71"/>
      <path fill="none" d="M87.59,12.61 L 87.59 47.71"/>
      <path fill="none" d="M92.53,12.61 L 92.53 47.71"/>
    </g>
    <g class="plotpanel" id="fig-65f07ff96030423d99b4535c22155b44-element-9">
      <g stroke-width="0.3" fill="#000000" fill-opacity="0.000" class="geometry color_newnot_possible" stroke-dasharray="none" stroke="#808080" id="fig-65f07ff96030423d99b4535c22155b44-element-10">
        <path fill="none" d="M71.18,42.35 L 71.34 42.35 71.5 42.35 71.66 42.35 71.82 42.35 71.98 42.35 72.14 42.35 72.3 42.35 72.77 42.35 73.09 42.35 73.41 42.35 73.57 42.35 73.73 42.35 73.89 42.35 74.05 42.35 74.21 42.35 76.92 42.29 78.19 42.29 79.62 42.29 82.33 42.29 82.81 42.29 83.61 42.29 84.4 41.91 86.95 41.91 87.59 41.91 88.39 41.85 89.02 41.79 89.66 41.79 90.14 41.73 92.05 41.73 93.96 41.67 94.6 41.67"/>
      </g>
      <g stroke-width="0.3" fill="#000000" fill-opacity="0.000" class="geometry color_newno_tests" stroke-dasharray="none" stroke="#0000FF" id="fig-65f07ff96030423d99b4535c22155b44-element-11">
        <path fill="none" d="M71.18,38.99 L 71.34 38.99 71.5 38.99 71.66 38.99 71.82 38.99 71.98 38.99 72.14 38.99 72.3 38.99 72.77 38.99 73.09 38.99 73.41 38.99 73.57 38.99 73.73 39.05 73.89 39.05 74.05 39.05 74.21 39.12 76.92 39.05 78.19 39.05 79.62 39.05 82.33 39.05 82.81 39.12 83.61 39.12 84.4 39.18 86.95 39.43 87.59 39.61 88.39 39.74 89.02 40.8 89.66 40.86 90.14 40.98 92.05 41.04 93.96 41.11 94.6 41.11"/>
      </g>
      <g stroke-width="0.3" fill="#000000" fill-opacity="0.000" class="geometry color_newtests_fail" stroke-dasharray="none" stroke="#FF0000" id="fig-65f07ff96030423d99b4535c22155b44-element-12">
        <path fill="none" d="M71.18,33.02 L 71.34 33.46 71.5 33.33 71.66 32.09 71.82 32.03 71.98 32.21 72.14 32.21 72.3 33.21 72.77 32.65 73.09 32.65 73.41 33.33 73.57 33.46 73.73 32.03 73.89 33.27 74.05 32.34 74.21 32.77 76.92 33.27 78.19 32.9 79.62 33.46 82.33 33.21 82.81 33.52 83.61 33.83 84.4 34.7 86.95 34.51 87.59 34.89 88.39 35.07 89.02 35.7 89.66 35.94 90.14 36.38 92.05 36.13 93.96 36.25 94.6 36.44"/>
      </g>
      <g stroke-width="0.3" fill="#000000" fill-opacity="0.000" class="geometry color_newtests_pass" stroke-dasharray="none" stroke="#008000" id="fig-65f07ff96030423d99b4535c22155b44-element-13">
        <path fill="none" d="M71.18,30.35 L 71.34 29.91 71.5 29.91 71.66 31.16 71.82 31.03 71.98 30.84 72.14 30.84 72.3 29.79 72.77 30.28 73.09 30.16 73.41 29.48 73.57 29.23 73.73 30.35 73.89 28.98 74.05 29.85 74.21 29.35 76.92 28.05 78.19 28.05 79.62 27.17 82.33 25.87 82.81 25.37 83.61 24.81 84.4 23.82 86.95 22.57 87.59 21.64 88.39 20.83 89.02 20.77 89.66 20.15 90.14 19.46 92.05 18.28 93.96 17.47 94.6 17.22"/>
      </g>
      <g stroke-width="0.3" fill="#000000" fill-opacity="0.000" class="geometry color_newnot_possible" stroke-dasharray="none" stroke="#808080" id="fig-65f07ff96030423d99b4535c22155b44-element-14">
        <path fill="none" d="M21.63,43.34 L 21.79 43.28 21.95 43.22 22.11 43.22 22.27 43.22 22.43 43.22 22.75 43.22 22.91 43.22 23.07 43.22 23.22 43.22 23.38 43.22 23.54 43.22 23.7 43.22 23.86 43.22 24.18 43.22 24.34 43.16 24.66 43.16 24.82 43.16 24.98 43.1 25.61 43.1 26.09 43.1 26.25 43.1 26.41 43.1 26.57 43.1 26.73 43.1 26.89 43.1 27.05 43.1 27.21 43.1 27.37 43.1 27.69 43.03 27.85 43.03 28 43.03 28.16 43.03 28.32 43.03 28.48 43.03 28.64 42.97 28.96 42.97 29.12 42.97 29.28 42.97 29.44 42.97 29.6 42.91 29.76 42.91 29.92 42.91 30.08 42.91 30.55 42.91 30.71 42.85 30.87 42.85 31.03 42.85 31.19 42.85 31.35 42.85 31.51 42.85 31.67 42.85 31.83 42.85 31.99 42.85 32.15 42.79 32.31 42.79 32.47 42.79 32.62 42.79 32.78 42.79 32.94 42.79 33.1 42.79 33.26 42.79 33.42 42.79 33.58 42.79 33.74 42.79 33.9 42.79 34.06 42.79 34.22 42.79 34.38 42.79 34.54 42.79 34.7 42.79 34.86 42.79 35.01 42.79 35.17 42.79 35.65 42.79 36.45 42.79 36.61 42.79 36.77 42.79 36.93 42.79 37.09 42.79 37.24 42.79 37.4 42.79 38.04 42.79 38.2 42.79 39 42.79 39.32 42.79 39.48 42.85 39.63 42.85 39.79 42.85 39.95 42.85 40.11 42.85 40.27 42.85 40.75 42.85 40.91 42.85 41.23 42.85 41.39 42.85 41.55 42.85 42.02 42.85 42.34 42.85 42.82 42.85 43.46 42.85 43.78 42.85 44.26 42.85 45.37 42.85 46.01 42.85 46.17 42.72 46.33 42.72 46.49 42.66 46.64 42.66 46.8 42.66 47.12 42.66 47.28 42.66 47.44 42.66 47.6 42.6 47.76 42.6 47.92 42.6 48.08 42.6 48.4 42.54 48.56 42.54 48.72 42.54 49.35 42.54 49.51 42.54 49.67 42.54 49.99 42.54 50.31 42.54 50.47 42.54 50.95 42.54 51.74 42.54 52.54 42.54 53.34 42.54 53.5 42.54 53.65 42.54 53.81 42.1 53.97 42.16 54.29 42.1 54.61 42.1 55.25 42.1 55.41 42.1 55.57 42.1 55.73 42.1 55.89 42.1 56.04 42.16 56.2 42.1 58.12 42.04 58.43 41.98 58.59 41.98 58.91 41.98 59.55 41.98 59.87 41.98 60.19 41.98 60.82 41.98 61.14 41.98 61.3 41.98 61.62 41.98 61.78 41.98 61.94 41.98 62.1 41.98 62.26 41.98 62.42 41.98 62.74 41.98 62.9 41.98 63.21 41.98 63.53 41.98 63.69 41.98 63.85 41.98 64.17 41.98 64.33 41.98 65.13 41.98 65.76 42.04 65.92 41.98 67.2 41.98 67.36 41.85 67.52 41.85 67.99 41.85 68.15 41.85 68.31 41.91 68.63 41.91 68.95 41.91 69.27 41.91 70.7 41.91"/>
      </g>
      <g stroke-width="0.3" fill="#000000" fill-opacity="0.000" class="geometry color_newtests_fail" stroke-dasharray="none" stroke="#FF0000" id="fig-65f07ff96030423d99b4535c22155b44-element-15">
        <path fill="none" d="M21.63,44.34 L 21.79 44.28 21.95 44.46 22.11 43.1 22.27 43.1 22.43 43.1 22.75 44.4 22.91 44.46 23.07 44.4 23.22 44.53 23.38 44.59 23.54 44.53 23.7 44.53 23.86 44.59 24.18 44.15 24.34 44.03 24.66 43.97 24.82 43.97 24.98 44.03 25.61 44.03 26.09 44.15 26.25 44.15 26.41 44.15 26.57 44.22 26.73 44.28 26.89 44.46 27.05 44.46 27.21 44.46 27.37 44.46 27.69 44.34 27.85 44.28 28 44.34 28.16 44.34 28.32 44.4 28.48 44.28 28.64 44.15 28.96 44.59 29.12 42.66 29.28 42.6 29.44 43.78 29.6 43.78 29.76 43.84 29.92 43.84 30.08 43.84 30.55 42.66 30.71 43.59 30.87 43.78 31.03 43.84 31.19 43.9 31.35 43.78 31.51 43.9 31.67 43.9 31.83 43.78 31.99 43.72 32.15 43.53 32.31 43.66 32.47 43.84 32.62 43.84 32.78 43.84 32.94 38.93 33.1 38.93 33.26 38.93 33.42 39.61 33.58 39.61 33.74 43.66 33.9 43.72 34.06 43.78 34.22 43.78 34.38 43.78 34.54 43.78 34.7 43.78 34.86 43.78 35.01 43.84 35.17 43.78 35.65 43.97 36.45 43.9 36.61 43.9 36.77 43.9 36.93 43.9 37.09 43.9 37.24 43.84 37.4 43.84 38.04 43.84 38.2 43.78 39 43.9 39.32 43.97 39.48 43.59 39.63 43.9 39.79 43.84 39.95 43.9 40.11 43.9 40.27 43.9 40.75 44.09 40.91 44.09 41.23 43.41 41.39 43.41 41.55 43.41 42.02 43.41 42.34 43.41 42.82 44.15 43.46 44.15 43.78 44.09 44.26 44.15 45.37 44.03 46.01 43.9 46.17 44.03 46.33 44.03 46.49 43.84 46.64 43.47 46.8 43.47 47.12 43.47 47.28 43.47 47.44 43.47 47.6 43.47 47.76 43.47 47.92 43.47 48.08 43.47 48.4 43.47 48.56 43.41 48.72 43.41 49.35 43.1 49.51 43.1 49.67 43.1 49.99 43.03 50.31 38.99 50.47 43.03 50.95 42.85 51.74 42.85 52.54 42.79 53.34 41.23 53.5 41.79 53.65 42.29 53.81 42.97 53.97 43.16 54.29 43.16 54.61 42.79 55.25 42.85 55.41 42.85 55.57 42.79 55.73 42.79 55.89 36.38 56.04 34.7 56.2 35.63 58.12 41.42 58.43 41.6 58.59 42.72 58.91 42.79 59.55 42.79 59.87 42.79 60.19 42.85 60.82 42.79 61.14 32.71 61.3 35.7 61.62 37.69 61.78 37.69 61.94 37.69 62.1 37.37 62.26 37.44 62.42 37.75 62.74 37.87 62.9 37.75 63.21 33.58 63.53 33.77 63.69 34.95 63.85 34.95 64.17 35.45 64.33 36.13 65.13 36.38 65.76 36.69 65.92 36.63 67.2 37.44 67.36 37.5 67.52 37.56 67.99 37.44 68.15 37.44 68.31 37.44 68.63 37.62 68.95 37.5 69.27 37.56 70.7 37.31"/>
      </g>
      <g stroke-width="0.3" fill="#000000" fill-opacity="0.000" class="geometry color_newno_tests" stroke-dasharray="none" stroke="#0000FF" id="fig-65f07ff96030423d99b4535c22155b44-element-16">
        <path fill="none" d="M21.63,42.72 L 21.79 42.66 21.95 42.66 22.11 43.03 22.27 43.03 22.43 43.03 22.75 42.72 22.91 42.72 23.07 42.79 23.22 42.79 23.38 42.79 23.54 42.79 23.7 42.79 23.86 42.85 24.18 43.03 24.34 43.1 24.66 43.1 24.82 43.1 24.98 43.1 25.61 43.1 26.09 43.03 26.25 43.03 26.41 42.97 26.57 42.97 26.73 42.97 26.89 42.97 27.05 42.97 27.21 43.03 27.37 43.03 27.69 42.97 27.85 43.03 28 42.97 28.16 42.97 28.32 42.97 28.48 42.97 28.64 43.1 28.96 42.97 29.12 43.16 29.28 43.16 29.44 42.97 29.6 42.97 29.76 42.97 29.92 42.97 30.08 42.97 30.55 43.22 30.71 43.03 30.87 42.97 31.03 42.97 31.19 42.97 31.35 42.97 31.51 42.97 31.67 42.97 31.83 42.97 31.99 42.97 32.15 42.97 32.31 42.97 32.47 42.97 32.62 42.97 32.78 42.97 32.94 43.34 33.1 43.34 33.26 43.34 33.42 43.22 33.58 43.22 33.74 42.97 33.9 42.97 34.06 42.97 34.22 42.97 34.38 42.97 34.54 42.97 34.7 42.97 34.86 42.97 35.01 42.97 35.17 42.97 35.65 42.97 36.45 42.97 36.61 42.97 36.77 42.97 36.93 42.97 37.09 42.97 37.24 42.97 37.4 42.97 38.04 42.97 38.2 42.97 39 42.97 39.32 42.97 39.48 42.97 39.63 42.97 39.79 43.03 39.95 42.97 40.11 42.97 40.27 42.97 40.75 42.97 40.91 42.97 41.23 42.97 41.39 42.97 41.55 42.97 42.02 42.97 42.34 42.97 42.82 42.91 43.46 42.97 43.78 42.91 44.26 42.91 45.37 42.91 46.01 42.91 46.17 42.91 46.33 42.91 46.49 42.91 46.64 42.91 46.8 42.91 47.12 42.91 47.28 42.91 47.44 42.91 47.6 42.91 47.76 42.91 47.92 42.91 48.08 42.91 48.4 42.91 48.56 42.91 48.72 42.91 49.35 42.97 49.51 42.97 49.67 42.97 49.99 42.97 50.31 43.1 50.47 42.91 50.95 42.91 51.74 42.91 52.54 42.91 53.34 43.1 53.5 43.03 53.65 43.03 53.81 43.03 53.97 42.97 54.29 42.97 54.61 43.03 55.25 43.03 55.41 43.03 55.57 43.1 55.73 43.1 55.89 43.78 56.04 43.84 56.2 43.84 58.12 43.1 58.43 43.1 58.59 43.1 58.91 43.1 59.55 43.1 59.87 43.1 60.19 43.1 60.82 43.16 61.14 43.66 61.3 43.53 61.62 43.47 61.78 43.41 61.94 43.47 62.1 43.47 62.26 43.47 62.42 43.47 62.74 43.47 62.9 43.53 63.21 43.72 63.53 43.59 63.69 43.53 63.85 43.53 64.17 43.53 64.33 43.47 65.13 43.47 65.76 43.41 65.92 43.41 67.2 43.34 67.36 43.34 67.52 43.34 67.99 43.34 68.15 43.34 68.31 43.34 68.63 43.34 68.95 43.34 69.27 43.34 70.7 43.34"/>
      </g>
      <g stroke-width="0.3" fill="#000000" fill-opacity="0.000" class="geometry color_oldfull_fail" stroke-dasharray="none" stroke="#FFA500" id="fig-65f07ff96030423d99b4535c22155b44-element-17">
        <path fill="none" d="M21.63,43.72 L 21.79 43.72 21.95 43.16 22.11 43.1 22.27 43.03 22.43 43.03 22.75 43.03 22.91 43.1 23.07 43.22 23.22 43.03 23.38 42.97 23.54 43.1 23.7 43.16 23.86 42.97 24.18 42.72 24.34 43.1 24.66 43.03 24.82 43.03 24.98 43.03 25.61 43.03 26.09 42.85 26.25 42.91 26.41 42.97 26.57 42.85 26.73 42.91 26.89 43.03 27.05 42.79 27.21 42.66 27.37 42.66 27.69 42.91 27.85 42.85 28 42.85 28.16 42.97 28.32 42.91 28.48 42.66 28.64 42.72 28.96 43.03 29.12 42.35 29.28 42.16 29.44 42.47 29.6 42.54 29.76 42.54 29.92 42.54 30.08 42.47 30.55 41.29 30.71 41.98 30.87 42.66 31.03 42.6 31.19 42.41 31.35 42.6 31.51 42.66 31.67 42.66 31.83 42.54 31.99 42.47 32.15 42.72 32.31 42.72 32.47 42.66 32.62 42.6 32.78 42.6 32.94 43.28 33.1 43.22 33.26 43.22 33.42 43.16 33.58 43.03 33.74 41.42 33.9 41.85 34.06 42.1 34.22 41.79 34.38 41.79 34.54 41.73 34.7 41.73 34.86 41.73 35.01 41.85 35.17 42.04 35.65 42.04 36.45 41.91 36.61 41.79 36.77 41.79 36.93 41.85 37.09 41.91 37.24 41.98 37.4 41.85 38.04 41.29 38.2 41.35 39 40.98 39.32 41.17 39.48 41.29 39.63 41.35 39.79 41.35 39.95 41.48 40.11 41.42 40.27 41.35 40.75 40.98 40.91 41.04 41.23 40.98 41.39 40.73 41.55 40.92 42.02 41.04 42.34 41.17 42.82 40.98 43.46 41.04 43.78 41.35 44.26 41.11 45.37 40.86 46.01 41.04 46.17 41.04 46.33 41.04 46.49 40.86 46.64 40.67 46.8 40.73 47.12 40.86 47.28 40.8 47.44 40.8 47.6 40.55 47.76 40.61 47.92 40.55 48.08 40.55 48.4 40.61 48.56 40.48 48.72 40.3 49.35 40.11 49.51 39.99 49.67 40.11 49.99 40.17 50.31 41.54 50.47 39.55 50.95 39.24 51.74 39.24 52.54 39.3 53.34 39.61 53.5 39.49 53.65 39.36 53.81 39.36 53.97 39.55 54.29 39.36 54.61 38.43 55.25 37.87 55.41 37.93 55.57 37.75 55.73 37.87 55.89 39.99 56.04 40.67 56.2 40.11 58.12 38.62 58.43 38.56 58.59 38 58.91 38.37 59.55 38.8 59.87 38.87 60.19 38.74 60.82 38.99 61.14 40.8 61.3 40.3 61.62 39.3 61.78 39.24 61.94 38.99 62.1 37.81 62.26 38.18 62.42 38.43 62.74 38.49 62.9 38.56 63.21 40.05 63.53 40.05 63.69 39.68 63.85 39.61 64.17 39.8 64.33 39.3 65.13 39.36 65.76 39.55 65.92 39.55 67.2 39.74 67.36 39.74 67.52 39.92 67.99 39.61 68.15 39.55 68.31 39.61 68.63 39.43 68.95 39.18 69.27 38.93 70.7 38.74"/>
      </g>
      <g stroke-width="0.3" fill="#000000" fill-opacity="0.000" class="geometry color_newtests_pass" stroke-dasharray="none" stroke="#008000" id="fig-65f07ff96030423d99b4535c22155b44-element-18">
        <path fill="none" d="M21.63,31.78 L 21.79 31.78 21.95 32.15 22.11 33.15 22.27 33.21 22.43 33.21 22.75 32.03 22.91 31.9 23.07 31.71 23.22 31.78 23.38 31.78 23.54 31.53 23.7 31.34 23.86 31.4 24.18 31.78 24.34 31.34 24.66 31.34 24.82 31.34 24.98 31.34 25.61 31.34 26.09 31.09 26.25 30.97 26.41 30.91 26.57 30.84 26.73 30.72 26.89 30.41 27.05 30.16 27.21 30.22 27.37 30.22 27.69 30.16 27.85 30.22 28 30.16 28.16 30.04 28.32 30.04 28.48 30.35 28.64 30.35 28.96 29.79 29.12 32.15 29.28 32.4 29.44 30.97 29.6 30.84 29.76 30.78 29.92 30.78 30.08 30.72 30.55 32.71 30.71 31.34 30.87 30.41 31.03 30.35 31.19 30.47 31.35 30.41 31.51 30.1 31.67 30.1 31.83 30.28 31.99 30.35 32.15 30.35 32.31 30.22 32.47 30.1 32.62 30.04 32.78 29.91 32.94 33.77 33.1 33.83 33.26 33.77 33.42 33.27 33.58 33.33 33.74 31.16 33.9 30.53 34.06 30.16 34.22 30.47 34.38 30.41 34.54 30.47 34.7 30.47 34.86 30.47 35.01 30.22 35.17 30.04 35.65 29.85 36.45 29.66 36.61 29.66 36.77 29.66 36.93 29.54 37.09 29.48 37.24 29.29 37.4 29.41 38.04 29.66 38.2 29.66 39 29.85 39.32 29.6 39.48 29.66 39.63 29.23 39.79 29.23 39.95 29.1 40.11 29.04 40.27 28.98 40.75 29.1 40.91 28.98 41.23 29.48 41.39 29.72 41.55 29.54 42.02 29.41 42.34 29.16 42.82 28.54 43.46 28.29 43.78 27.86 44.26 27.92 45.37 27.86 46.01 27.36 46.17 27.24 46.33 27.24 46.49 27.3 46.64 27.86 46.8 27.8 47.12 27.61 47.28 27.61 47.44 27.61 47.6 27.73 47.76 27.61 47.92 27.67 48.08 27.67 48.4 27.49 48.56 27.49 48.72 27.61 49.35 27.55 49.51 27.67 49.67 27.73 49.99 27.55 50.31 29.91 50.47 28.05 50.95 28.42 51.74 28.42 52.54 28.36 53.34 28.85 53.5 28.48 53.65 28.11 53.81 27.73 53.97 27.36 54.29 27.49 54.61 28.73 55.25 29.16 55.41 28.98 55.57 29.16 55.73 29.04 55.89 32.52 56.04 33.46 56.2 33.02 58.12 29.29 58.43 29.23 58.59 28.48 58.91 28.05 59.55 27.55 59.87 27.42 60.19 27.3 60.82 26.93 61.14 34.58 61.3 32.03 61.62 30.78 61.78 30.91 61.94 31.03 62.1 32.4 62.26 31.96 62.42 31.34 62.74 31.09 62.9 30.97 63.21 33.46 63.53 33.27 63.69 32.34 63.85 32.34 64.17 31.53 64.33 31.34 65.13 30.78 65.76 30.16 65.92 30.16 67.2 29.04 67.36 29.1 67.52 28.85 67.99 29.04 68.15 29.04 68.31 28.79 68.63 28.67 68.95 29.04 69.27 29.1 70.7 29.1"/>
      </g>
    </g>
  </g>
  <g class="guide ylabels" font-size="2.82" font-family="'PT Sans Caption','Helvetica Neue','Helvetica',sans-serif" fill="#6C606B" id="fig-65f07ff96030423d99b4535c22155b44-element-19">
    <text x="18.63" y="45.71" text-anchor="end" dy="0.35em">0</text>
    <text x="18.63" y="39.49" text-anchor="end" dy="0.35em">100</text>
    <text x="18.63" y="33.27" text-anchor="end" dy="0.35em">200</text>
    <text x="18.63" y="27.05" text-anchor="end" dy="0.35em">300</text>
    <text x="18.63" y="20.83" text-anchor="end" dy="0.35em">400</text>
    <text x="18.63" y="14.61" text-anchor="end" dy="0.35em">500</text>
  </g>
  <g font-size="3.88" font-family="'PT Sans','Helvetica Neue','Helvetica',sans-serif" fill="#564A55" stroke="#000000" stroke-opacity="0.000" id="fig-65f07ff96030423d99b4535c22155b44-element-20">
    <text x="8.81" y="28.16" text-anchor="middle" dy="0.35em" transform="rotate(-90, 8.81, 30.16)">Number of Packages</text>
  </g>
  <g font-size="3.88" font-family="'PT Sans','Helvetica Neue','Helvetica',sans-serif" fill="#564A55" stroke="#000000" stroke-opacity="0.000" id="fig-65f07ff96030423d99b4535c22155b44-element-21">
    <text x="58.12" y="10.61" text-anchor="middle">Julia v0.4</text>
  </g>
</g>
<defs>
<clipPath id="fig-65f07ff96030423d99b4535c22155b44-element-5">
  <path d="M19.63,12.61 L 96.6 12.61 96.6 47.71 19.63 47.71" />
</clipPath
></defs>
</svg>
