<?xml version="1.0" encoding="UTF-8"?>
<svg xmlns="http://www.w3.org/2000/svg"
     xmlns:xlink="http://www.w3.org/1999/xlink"
     xmlns:gadfly="http://www.gadflyjl.org/ns"
     version="1.2"
     width="101.6mm" height="76.2mm" viewBox="0 0 101.6 76.2"
     stroke="none"
     fill="#000000"
     stroke-width="0.3"
     font-size="3.88"
>
<g class="plotroot xscalable yscalable" id="img-5541f2d8-1">
  <g font-size="3.88" font-family="'PT Sans','Helvetica Neue','Helvetica',sans-serif" fill="#564A55" stroke="#000000" stroke-opacity="0.000" id="img-5541f2d8-2">
    <text x="58.12" y="64.59" text-anchor="middle" dy="0.6em">Date</text>
  </g>
  <g class="guide xlabels" font-size="2.82" font-family="'PT Sans Caption','Helvetica Neue','Helvetica',sans-serif" fill="#6C606B" id="img-5541f2d8-3">
    <text x="31.81" y="57.91" text-anchor="middle" dy="0.6em">Dec</text>
    <text x="84.42" y="57.91" text-anchor="middle" dy="0.6em">Jan 2016</text>
  </g>
<g clip-path="url(#img-5541f2d8-4)">
  <g id="img-5541f2d8-5">
    <g pointer-events="visible" opacity="1" fill="#000000" fill-opacity="0.000" stroke="#000000" stroke-opacity="0.000" class="guide background" id="img-5541f2d8-6">
      <rect x="19.63" y="12.61" width="76.97" height="44.3"/>
    </g>
    <g class="guide ygridlines xfixed" stroke-dasharray="0.5,0.5" stroke-width="0.2" stroke="#D0D0E0" id="img-5541f2d8-7">
      <path fill="none" d="M19.63,54.91 L 96.6 54.91"/>
      <path fill="none" d="M19.63,46.85 L 96.6 46.85"/>
      <path fill="none" d="M19.63,38.79 L 96.6 38.79"/>
      <path fill="none" d="M19.63,30.73 L 96.6 30.73"/>
      <path fill="none" d="M19.63,22.67 L 96.6 22.67"/>
      <path fill="none" d="M19.63,14.61 L 96.6 14.61"/>
    </g>
    <g class="guide xgridlines yfixed" stroke-dasharray="0.5,0.5" stroke-width="0.2" stroke="#D0D0E0" id="img-5541f2d8-8">
      <path fill="none" d="M31.81,12.61 L 31.81 56.91"/>
      <path fill="none" d="M84.42,12.61 L 84.42 56.91"/>
    </g>
    <g class="plotpanel" id="img-5541f2d8-9">
      <g stroke-width="0.3" fill="#000000" fill-opacity="0.000" class="geometry color_newnot_possible" stroke-dasharray="none" stroke="#FF0000" id="img-5541f2d8-10">
        <path fill="none" d="M21.63,49.59 L 23.33 49.59 35.21 49.59 36.9 49.51 48.78 49.51 57.27 49.51 94.6 49.51"/>
      </g>
      <g stroke-width="0.3" fill="#000000" fill-opacity="0.000" class="geometry color_newno_tests" stroke-dasharray="none" stroke="#0000FF" id="img-5541f2d8-11">
        <path fill="none" d="M21.63,48.95 L 23.33 48.95 35.21 48.95 36.9 48.95 48.78 48.95 57.27 48.95 94.6 49.03"/>
      </g>
      <g stroke-width="0.3" fill="#000000" fill-opacity="0.000" class="geometry color_newtests_fail" stroke-dasharray="none" stroke="#FFA500" id="img-5541f2d8-12">
        <path fill="none" d="M21.63,37.1 L 23.33 36.78 35.21 37.5 36.9 37.91 48.78 37.67 57.27 37.67 94.6 37.5"/>
      </g>
      <g stroke-width="0.3" fill="#000000" fill-opacity="0.000" class="geometry color_newtests_pass" stroke-dasharray="none" stroke="#008000" id="img-5541f2d8-13">
        <path fill="none" d="M21.63,23.16 L 23.33 23.48 35.21 22.35 36.9 21.87 48.78 21.62 57.27 21.38 94.6 20.17"/>
      </g>
      <g stroke-width="0.3" fill="#000000" fill-opacity="0.000" stroke-dasharray="none" id="img-5541f2d8-14">
      </g>
      <g stroke-width="0.3" fill="#000000" fill-opacity="0.000" stroke-dasharray="none" id="img-5541f2d8-15">
      </g>
      <g stroke-width="0.3" fill="#000000" fill-opacity="0.000" stroke-dasharray="none" id="img-5541f2d8-16">
      </g>
      <g stroke-width="0.3" fill="#000000" fill-opacity="0.000" stroke-dasharray="none" id="img-5541f2d8-17">
      </g>
      <g stroke-width="0.3" fill="#000000" fill-opacity="0.000" stroke-dasharray="none" id="img-5541f2d8-18">
      </g>
    </g>
  </g>
</g>
  <g class="guide ylabels" font-size="2.82" font-family="'PT Sans Caption','Helvetica Neue','Helvetica',sans-serif" fill="#6C606B" id="img-5541f2d8-19">
    <text x="18.63" y="54.91" text-anchor="end" dy="0.35em">0</text>
    <text x="18.63" y="46.85" text-anchor="end" dy="0.35em">100</text>
    <text x="18.63" y="38.79" text-anchor="end" dy="0.35em">200</text>
    <text x="18.63" y="30.73" text-anchor="end" dy="0.35em">300</text>
    <text x="18.63" y="22.67" text-anchor="end" dy="0.35em">400</text>
    <text x="18.63" y="14.61" text-anchor="end" dy="0.35em">500</text>
  </g>
  <g font-size="3.88" font-family="'PT Sans','Helvetica Neue','Helvetica',sans-serif" fill="#564A55" stroke="#000000" stroke-opacity="0.000" id="img-5541f2d8-20">
    <text x="8.81" y="32.76" text-anchor="middle" dy="0.35em" transform="rotate(-90, 8.81, 34.76)">Number of Packages</text>
  </g>
  <g font-size="3.88" font-family="'PT Sans','Helvetica Neue','Helvetica',sans-serif" fill="#564A55" stroke="#000000" stroke-opacity="0.000" id="img-5541f2d8-21">
    <text x="58.12" y="10.61" text-anchor="middle">Julia v0.5</text>
  </g>
</g>
<defs>
  <clipPath id="img-5541f2d8-4">
  <path d="M19.63,12.61 L 96.6 12.61 96.6 56.91 19.63 56.91" />
</clipPath>
</defs>
</svg>
