<?xml version="1.0" encoding="utf-8" standalone="no"?>
<!DOCTYPE svg PUBLIC "-//W3C//DTD SVG 1.1//EN"
  "http://www.w3.org/Graphics/SVG/1.1/DTD/svg11.dtd">
<!-- Created with matplotlib (http://matplotlib.org/) -->
<svg height="265pt" version="1.1" viewBox="0 0 272 265" width="272pt" xmlns="http://www.w3.org/2000/svg" xmlns:xlink="http://www.w3.org/1999/xlink">
 <defs>
  <style type="text/css">
*{stroke-linecap:butt;stroke-linejoin:round;}
  </style>
 </defs>
 <g id="figure_1">
  <g id="patch_1">
   <path d="
M0 265.55
L272.1 265.55
L272.1 0
L0 0
z
" style="fill:#ffffff;"/>
  </g>
  <g id="axes_1">
   <g id="patch_2">
    <path d="
M41.7 195.942
L264.9 195.942
L264.9 23.1417
L41.7 23.1417
z
" style="fill:#ffffff;"/>
   </g>
   <g id="line2d_1"/>
   <g id="line2d_2"/>
   <g id="line2d_3"/>
   <g id="line2d_4"/>
   <g id="line2d_5"/>
   <g id="line2d_6">
    <path clip-path="url(#p26c33cc5a4)" d="
M264.9 101.598
L263.921 99.8464
L262.942 98.1304
L261.963 99.8464
L260.984 100.432
L260.005 100.827
L259.026 99.5055
L258.047 100.242
L257.068 99.2601
L256.089 96.7076
L255.111 96.7076
L254.132 97.5923
L253.153 97.1005
L252.174 97.9865
L251.195 98.6278
L250.216 99.2704
L249.237 99.4206
L248.258 100.408
L247.279 100.217
L246.3 99.7765
L245.321 99.5287
L244.342 100.135
L243.363 99.3888
L242.384 99.7895
L241.405 102.59
L239.447 100.9
L238.468 101.305
L237.489 102.462
L236.511 101.865
L235.532 113.907
L234.553 113.907
L233.574 103.778
L232.595 105.787
L231.616 104.187
L230.637 107.365
L229.658 106.862
L228.679 101.985
L227.7 101.829
L226.721 98.9622
L225.742 99.4224
L224.763 106.475
L223.784 110.277
L222.805 93.0424
L221.826 94.8165
L220.847 93.1903
L219.868 93.2329
L218.889 91.8546
L152.321 79.4094
L136.658 83.8931
L114.142 80.4425
L108.268 81.5888
L104.353 69.6072
L83.7947 60.7506
L62.2579 62.7478
L57.3632 63.1917
L50.5105 63.1184
L49.5316 64.7177
L42.6789 68.4261
L41.7 67.1183" style="fill:none;stroke:#008000;stroke-linecap:square;"/>
    <defs>
     <path d="
M0 1.5
C0.397805 1.5 0.77937 1.34195 1.06066 1.06066
C1.34195 0.77937 1.5 0.397805 1.5 0
C1.5 -0.397805 1.34195 -0.77937 1.06066 -1.06066
C0.77937 -1.34195 0.397805 -1.5 0 -1.5
C-0.397805 -1.5 -0.77937 -1.34195 -1.06066 -1.06066
C-1.34195 -0.77937 -1.5 -0.397805 -1.5 0
C-1.5 0.397805 -1.34195 0.77937 -1.06066 1.06066
C-0.77937 1.34195 -0.397805 1.5 0 1.5
z
" id="mb0b177905e" style="stroke:#008000;stroke-width:0.5;"/>
    </defs>
    <g clip-path="url(#p26c33cc5a4)">
     <use style="fill:#008000;stroke:#008000;stroke-width:0.5;" x="264.9" xlink:href="#mb0b177905e" y="101.598327086"/>
     <use style="fill:#008000;stroke:#008000;stroke-width:0.5;" x="263.921052632" xlink:href="#mb0b177905e" y="99.8464173287"/>
     <use style="fill:#008000;stroke:#008000;stroke-width:0.5;" x="262.942105263" xlink:href="#mb0b177905e" y="98.1304292453"/>
     <use style="fill:#008000;stroke:#008000;stroke-width:0.5;" x="261.963157895" xlink:href="#mb0b177905e" y="99.8464173287"/>
     <use style="fill:#008000;stroke:#008000;stroke-width:0.5;" x="260.984210526" xlink:href="#mb0b177905e" y="100.431545918"/>
     <use style="fill:#008000;stroke:#008000;stroke-width:0.5;" x="260.005263158" xlink:href="#mb0b177905e" y="100.826981948"/>
     <use style="fill:#008000;stroke:#008000;stroke-width:0.5;" x="259.026315789" xlink:href="#mb0b177905e" y="99.5055102954"/>
     <use style="fill:#008000;stroke:#008000;stroke-width:0.5;" x="258.047368421" xlink:href="#mb0b177905e" y="100.241664797"/>
     <use style="fill:#008000;stroke:#008000;stroke-width:0.5;" x="257.068421053" xlink:href="#mb0b177905e" y="99.2601254615"/>
     <use style="fill:#008000;stroke:#008000;stroke-width:0.5;" x="256.089473684" xlink:href="#mb0b177905e" y="96.7076348614"/>
     <use style="fill:#008000;stroke:#008000;stroke-width:0.5;" x="255.110526316" xlink:href="#mb0b177905e" y="96.7076348614"/>
     <use style="fill:#008000;stroke:#008000;stroke-width:0.5;" x="254.131578947" xlink:href="#mb0b177905e" y="97.5922906944"/>
     <use style="fill:#008000;stroke:#008000;stroke-width:0.5;" x="253.152631579" xlink:href="#mb0b177905e" y="97.1005433978"/>
     <use style="fill:#008000;stroke:#008000;stroke-width:0.5;" x="252.173684211" xlink:href="#mb0b177905e" y="97.9864729739"/>
     <use style="fill:#008000;stroke:#008000;stroke-width:0.5;" x="251.194736842" xlink:href="#mb0b177905e" y="98.6278064585"/>
     <use style="fill:#008000;stroke:#008000;stroke-width:0.5;" x="250.215789474" xlink:href="#mb0b177905e" y="99.2704213287"/>
     <use style="fill:#008000;stroke:#008000;stroke-width:0.5;" x="249.236842105" xlink:href="#mb0b177905e" y="99.4206071429"/>
     <use style="fill:#008000;stroke:#008000;stroke-width:0.5;" x="248.257894737" xlink:href="#mb0b177905e" y="100.408035714"/>
     <use style="fill:#008000;stroke:#008000;stroke-width:0.5;" x="247.278947368" xlink:href="#mb0b177905e" y="100.216585385"/>
     <use style="fill:#008000;stroke:#008000;stroke-width:0.5;" x="246.3" xlink:href="#mb0b177905e" y="99.776517642"/>
     <use style="fill:#008000;stroke:#008000;stroke-width:0.5;" x="245.321052632" xlink:href="#mb0b177905e" y="99.528669105"/>
     <use style="fill:#008000;stroke:#008000;stroke-width:0.5;" x="244.342105263" xlink:href="#mb0b177905e" y="100.135298387"/>
     <use style="fill:#008000;stroke:#008000;stroke-width:0.5;" x="243.363157895" xlink:href="#mb0b177905e" y="99.3887546083"/>
     <use style="fill:#008000;stroke:#008000;stroke-width:0.5;" x="242.384210526" xlink:href="#mb0b177905e" y="99.7895228125"/>
     <use style="fill:#008000;stroke:#008000;stroke-width:0.5;" x="241.405263158" xlink:href="#mb0b177905e" y="102.590312762"/>
     <use style="fill:#008000;stroke:#008000;stroke-width:0.5;" x="239.447368421" xlink:href="#mb0b177905e" y="100.900499457"/>
     <use style="fill:#008000;stroke:#008000;stroke-width:0.5;" x="238.468421053" xlink:href="#mb0b177905e" y="101.304833164"/>
     <use style="fill:#008000;stroke:#008000;stroke-width:0.5;" x="237.489473684" xlink:href="#mb0b177905e" y="102.46183702"/>
     <use style="fill:#008000;stroke:#008000;stroke-width:0.5;" x="236.510526316" xlink:href="#mb0b177905e" y="101.865094948"/>
     <use style="fill:#008000;stroke:#008000;stroke-width:0.5;" x="235.531578947" xlink:href="#mb0b177905e" y="113.906906794"/>
     <use style="fill:#008000;stroke:#008000;stroke-width:0.5;" x="234.552631579" xlink:href="#mb0b177905e" y="113.906906794"/>
     <use style="fill:#008000;stroke:#008000;stroke-width:0.5;" x="233.573684211" xlink:href="#mb0b177905e" y="103.778401649"/>
     <use style="fill:#008000;stroke:#008000;stroke-width:0.5;" x="232.594736842" xlink:href="#mb0b177905e" y="105.787411968"/>
     <use style="fill:#008000;stroke:#008000;stroke-width:0.5;" x="231.615789474" xlink:href="#mb0b177905e" y="104.187312991"/>
     <use style="fill:#008000;stroke:#008000;stroke-width:0.5;" x="230.636842105" xlink:href="#mb0b177905e" y="107.365078965"/>
     <use style="fill:#008000;stroke:#008000;stroke-width:0.5;" x="229.657894737" xlink:href="#mb0b177905e" y="106.861802425"/>
     <use style="fill:#008000;stroke:#008000;stroke-width:0.5;" x="228.678947368" xlink:href="#mb0b177905e" y="101.984898688"/>
     <use style="fill:#008000;stroke:#008000;stroke-width:0.5;" x="227.7" xlink:href="#mb0b177905e" y="101.829037025"/>
     <use style="fill:#008000;stroke:#008000;stroke-width:0.5;" x="226.721052632" xlink:href="#mb0b177905e" y="98.9621581633"/>
     <use style="fill:#008000;stroke:#008000;stroke-width:0.5;" x="225.742105263" xlink:href="#mb0b177905e" y="99.4223758225"/>
     <use style="fill:#008000;stroke:#008000;stroke-width:0.5;" x="224.763157895" xlink:href="#mb0b177905e" y="106.475044221"/>
     <use style="fill:#008000;stroke:#008000;stroke-width:0.5;" x="223.784210526" xlink:href="#mb0b177905e" y="110.2767456"/>
     <use style="fill:#008000;stroke:#008000;stroke-width:0.5;" x="222.805263158" xlink:href="#mb0b177905e" y="93.0423660164"/>
     <use style="fill:#008000;stroke:#008000;stroke-width:0.5;" x="221.826315789" xlink:href="#mb0b177905e" y="94.8164933265"/>
     <use style="fill:#008000;stroke:#008000;stroke-width:0.5;" x="220.847368421" xlink:href="#mb0b177905e" y="93.1903184921"/>
     <use style="fill:#008000;stroke:#008000;stroke-width:0.5;" x="219.868421053" xlink:href="#mb0b177905e" y="93.2329078638"/>
     <use style="fill:#008000;stroke:#008000;stroke-width:0.5;" x="218.889473684" xlink:href="#mb0b177905e" y="91.8545629602"/>
     <use style="fill:#008000;stroke:#008000;stroke-width:0.5;" x="152.321052632" xlink:href="#mb0b177905e" y="79.4094157436"/>
     <use style="fill:#008000;stroke:#008000;stroke-width:0.5;" x="136.657894737" xlink:href="#mb0b177905e" y="83.8931177812"/>
     <use style="fill:#008000;stroke:#008000;stroke-width:0.5;" x="114.142105263" xlink:href="#mb0b177905e" y="80.4425292208"/>
     <use style="fill:#008000;stroke:#008000;stroke-width:0.5;" x="108.268421053" xlink:href="#mb0b177905e" y="81.5888088235"/>
     <use style="fill:#008000;stroke:#008000;stroke-width:0.5;" x="104.352631579" xlink:href="#mb0b177905e" y="69.6071775093"/>
     <use style="fill:#008000;stroke:#008000;stroke-width:0.5;" x="83.794736842" xlink:href="#mb0b177905e" y="60.750608232"/>
     <use style="fill:#008000;stroke:#008000;stroke-width:0.5;" x="62.2578947368" xlink:href="#mb0b177905e" y="62.7477533352"/>
     <use style="fill:#008000;stroke:#008000;stroke-width:0.5;" x="57.3631578947" xlink:href="#mb0b177905e" y="63.19175"/>
     <use style="fill:#008000;stroke:#008000;stroke-width:0.5;" x="50.5105263158" xlink:href="#mb0b177905e" y="63.1183529246"/>
     <use style="fill:#008000;stroke:#008000;stroke-width:0.5;" x="49.5315789473" xlink:href="#mb0b177905e" y="64.7176898496"/>
     <use style="fill:#008000;stroke:#008000;stroke-width:0.5;" x="42.6789473684" xlink:href="#mb0b177905e" y="68.4261397824"/>
     <use style="fill:#008000;stroke:#008000;stroke-width:0.5;" x="41.7" xlink:href="#mb0b177905e" y="67.1182873699"/>
    </g>
   </g>
   <g id="line2d_7">
    <path clip-path="url(#p26c33cc5a4)" d="
M264.9 79.6012
L263.921 81.4608
L262.942 83.1768
L261.963 81.4608
L260.984 80.8397
L260.005 80.4803
L259.026 81.8378
L258.047 81.1016
L257.068 82.0832
L256.089 84.6718
L255.111 84.6718
L254.132 83.8234
L253.153 84.3151
L252.174 83.4655
L251.195 82.8605
L250.216 82.5009
L249.237 82.3875
L248.258 81.4
L247.279 81.6652
L246.3 82.1793
L245.321 82.4271
L244.342 81.9694
L243.363 82.7159
L242.384 82.3526
L241.405 79.6269
L239.447 81.1419
L238.468 80.7751
L237.489 79.6557
L236.511 80.2902
L235.532 68.2484
L234.553 68.2484
L233.574 78.4146
L232.595 76.4056
L231.616 78.0436
L230.637 74.9037
L229.658 75.407
L228.679 80.3219
L227.7 80.4398
L226.721 83.3447
L225.742 82.9989
L224.763 76.0614
L223.784 72.2597
L222.805 89.4941
L221.826 87.72
L220.847 89.3847
L219.868 89.4195
L218.889 90.8366
L152.321 106.713
L136.658 103.443
L114.142 106.475
L108.268 105.79
L104.353 118.244
L83.7947 128.189
L62.2579 127.424
L57.3632 127.156
L50.5105 127.586
L49.5316 125.782
L42.6789 122.375
L41.7 123.683" style="fill:none;stroke:#ff0000;stroke-linecap:square;"/>
    <defs>
     <path d="
M0 1.5
C0.397805 1.5 0.77937 1.34195 1.06066 1.06066
C1.34195 0.77937 1.5 0.397805 1.5 0
C1.5 -0.397805 1.34195 -0.77937 1.06066 -1.06066
C0.77937 -1.34195 0.397805 -1.5 0 -1.5
C-0.397805 -1.5 -0.77937 -1.34195 -1.06066 -1.06066
C-1.34195 -0.77937 -1.5 -0.397805 -1.5 0
C-1.5 0.397805 -1.34195 0.77937 -1.06066 1.06066
C-0.77937 1.34195 -0.397805 1.5 0 1.5
z
" id="ma07bdd5909" style="stroke:#ff0000;stroke-width:0.5;"/>
    </defs>
    <g clip-path="url(#p26c33cc5a4)">
     <use style="fill:#ff0000;stroke:#ff0000;stroke-width:0.5;" x="264.9" xlink:href="#ma07bdd5909" y="79.6011559406"/>
     <use style="fill:#ff0000;stroke:#ff0000;stroke-width:0.5;" x="263.921052632" xlink:href="#ma07bdd5909" y="81.4608307207"/>
     <use style="fill:#ff0000;stroke:#ff0000;stroke-width:0.5;" x="262.942105263" xlink:href="#ma07bdd5909" y="83.1768188041"/>
     <use style="fill:#ff0000;stroke:#ff0000;stroke-width:0.5;" x="261.963157895" xlink:href="#ma07bdd5909" y="81.4608307207"/>
     <use style="fill:#ff0000;stroke:#ff0000;stroke-width:0.5;" x="260.984210526" xlink:href="#ma07bdd5909" y="80.8397091837"/>
     <use style="fill:#ff0000;stroke:#ff0000;stroke-width:0.5;" x="260.005263158" xlink:href="#ma07bdd5909" y="80.4802661016"/>
     <use style="fill:#ff0000;stroke:#ff0000;stroke-width:0.5;" x="259.026315789" xlink:href="#ma07bdd5909" y="81.8378022579"/>
     <use style="fill:#ff0000;stroke:#ff0000;stroke-width:0.5;" x="258.047368421" xlink:href="#ma07bdd5909" y="81.1016477563"/>
     <use style="fill:#ff0000;stroke:#ff0000;stroke-width:0.5;" x="257.068421053" xlink:href="#ma07bdd5909" y="82.0831870917"/>
     <use style="fill:#ff0000;stroke:#ff0000;stroke-width:0.5;" x="256.089473684" xlink:href="#ma07bdd5909" y="84.6718139659"/>
     <use style="fill:#ff0000;stroke:#ff0000;stroke-width:0.5;" x="255.110526316" xlink:href="#ma07bdd5909" y="84.6718139659"/>
     <use style="fill:#ff0000;stroke:#ff0000;stroke-width:0.5;" x="254.131578947" xlink:href="#ma07bdd5909" y="83.8233663916"/>
     <use style="fill:#ff0000;stroke:#ff0000;stroke-width:0.5;" x="253.152631579" xlink:href="#ma07bdd5909" y="84.3151136881"/>
     <use style="fill:#ff0000;stroke:#ff0000;stroke-width:0.5;" x="252.173684211" xlink:href="#ma07bdd5909" y="83.4654645706"/>
     <use style="fill:#ff0000;stroke:#ff0000;stroke-width:0.5;" x="251.194736842" xlink:href="#ma07bdd5909" y="82.8604839607"/>
     <use style="fill:#ff0000;stroke:#ff0000;stroke-width:0.5;" x="250.215789474" xlink:href="#ma07bdd5909" y="82.5009051306"/>
     <use style="fill:#ff0000;stroke:#ff0000;stroke-width:0.5;" x="249.236842105" xlink:href="#ma07bdd5909" y="82.3874642857"/>
     <use style="fill:#ff0000;stroke:#ff0000;stroke-width:0.5;" x="248.257894737" xlink:href="#ma07bdd5909" y="81.4000357143"/>
     <use style="fill:#ff0000;stroke:#ff0000;stroke-width:0.5;" x="247.278947368" xlink:href="#ma07bdd5909" y="81.6651968938"/>
     <use style="fill:#ff0000;stroke:#ff0000;stroke-width:0.5;" x="246.3" xlink:href="#ma07bdd5909" y="82.1792715146"/>
     <use style="fill:#ff0000;stroke:#ff0000;stroke-width:0.5;" x="245.321052632" xlink:href="#ma07bdd5909" y="82.4271200516"/>
     <use style="fill:#ff0000;stroke:#ff0000;stroke-width:0.5;" x="244.342105263" xlink:href="#ma07bdd5909" y="81.9693997696"/>
     <use style="fill:#ff0000;stroke:#ff0000;stroke-width:0.5;" x="243.363157895" xlink:href="#ma07bdd5909" y="82.7159435484"/>
     <use style="fill:#ff0000;stroke:#ff0000;stroke-width:0.5;" x="242.384210526" xlink:href="#ma07bdd5909" y="82.3525904209"/>
     <use style="fill:#ff0000;stroke:#ff0000;stroke-width:0.5;" x="241.405263158" xlink:href="#ma07bdd5909" y="79.6268576123"/>
     <use style="fill:#ff0000;stroke:#ff0000;stroke-width:0.5;" x="239.447368421" xlink:href="#ma07bdd5909" y="81.1419236865"/>
     <use style="fill:#ff0000;stroke:#ff0000;stroke-width:0.5;" x="238.468421053" xlink:href="#ma07bdd5909" y="80.7751316285"/>
     <use style="fill:#ff0000;stroke:#ff0000;stroke-width:0.5;" x="237.489473684" xlink:href="#ma07bdd5909" y="79.655745649"/>
     <use style="fill:#ff0000;stroke:#ff0000;stroke-width:0.5;" x="236.510526316" xlink:href="#ma07bdd5909" y="80.2901820557"/>
     <use style="fill:#ff0000;stroke:#ff0000;stroke-width:0.5;" x="235.531578947" xlink:href="#ma07bdd5909" y="68.2483702091"/>
     <use style="fill:#ff0000;stroke:#ff0000;stroke-width:0.5;" x="234.552631579" xlink:href="#ma07bdd5909" y="68.2483702091"/>
     <use style="fill:#ff0000;stroke:#ff0000;stroke-width:0.5;" x="233.573684211" xlink:href="#ma07bdd5909" y="78.4146463813"/>
     <use style="fill:#ff0000;stroke:#ff0000;stroke-width:0.5;" x="232.594736842" xlink:href="#ma07bdd5909" y="76.4056360631"/>
     <use style="fill:#ff0000;stroke:#ff0000;stroke-width:0.5;" x="231.615789474" xlink:href="#ma07bdd5909" y="78.0435829939"/>
     <use style="fill:#ff0000;stroke:#ff0000;stroke-width:0.5;" x="230.636842105" xlink:href="#ma07bdd5909" y="74.9037421363"/>
     <use style="fill:#ff0000;stroke:#ff0000;stroke-width:0.5;" x="229.657894737" xlink:href="#ma07bdd5909" y="75.4070186763"/>
     <use style="fill:#ff0000;stroke:#ff0000;stroke-width:0.5;" x="228.678947368" xlink:href="#ma07bdd5909" y="80.3219249271"/>
     <use style="fill:#ff0000;stroke:#ff0000;stroke-width:0.5;" x="227.7" xlink:href="#ma07bdd5909" y="80.439784076"/>
     <use style="fill:#ff0000;stroke:#ff0000;stroke-width:0.5;" x="226.721052632" xlink:href="#ma07bdd5909" y="83.3446654519"/>
     <use style="fill:#ff0000;stroke:#ff0000;stroke-width:0.5;" x="225.742105263" xlink:href="#ma07bdd5909" y="82.9989221012"/>
     <use style="fill:#ff0000;stroke:#ff0000;stroke-width:0.5;" x="224.763157895" xlink:href="#ma07bdd5909" y="76.0614331916"/>
     <use style="fill:#ff0000;stroke:#ff0000;stroke-width:0.5;" x="223.784210526" xlink:href="#ma07bdd5909" y="72.2597318128"/>
     <use style="fill:#ff0000;stroke:#ff0000;stroke-width:0.5;" x="222.805263158" xlink:href="#ma07bdd5909" y="89.4941113963"/>
     <use style="fill:#ff0000;stroke:#ff0000;stroke-width:0.5;" x="221.826315789" xlink:href="#ma07bdd5909" y="87.7199840862"/>
     <use style="fill:#ff0000;stroke:#ff0000;stroke-width:0.5;" x="220.847368421" xlink:href="#ma07bdd5909" y="89.3847099178"/>
     <use style="fill:#ff0000;stroke:#ff0000;stroke-width:0.5;" x="219.868421053" xlink:href="#ma07bdd5909" y="89.4194607547"/>
     <use style="fill:#ff0000;stroke:#ff0000;stroke-width:0.5;" x="218.889473684" xlink:href="#ma07bdd5909" y="90.8365953608"/>
     <use style="fill:#ff0000;stroke:#ff0000;stroke-width:0.5;" x="152.321052632" xlink:href="#ma07bdd5909" y="106.712885364"/>
     <use style="fill:#ff0000;stroke:#ff0000;stroke-width:0.5;" x="136.657894737" xlink:href="#ma07bdd5909" y="103.443269757"/>
     <use style="fill:#ff0000;stroke:#ff0000;stroke-width:0.5;" x="114.142105263" xlink:href="#ma07bdd5909" y="106.474737013"/>
     <use style="fill:#ff0000;stroke:#ff0000;stroke-width:0.5;" x="108.268421053" xlink:href="#ma07bdd5909" y="105.790489496"/>
     <use style="fill:#ff0000;stroke:#ff0000;stroke-width:0.5;" x="104.352631579" xlink:href="#ma07bdd5909" y="118.244458444"/>
     <use style="fill:#ff0000;stroke:#ff0000;stroke-width:0.5;" x="83.794736842" xlink:href="#ma07bdd5909" y="128.189344845"/>
     <use style="fill:#ff0000;stroke:#ff0000;stroke-width:0.5;" x="62.2578947368" xlink:href="#ma07bdd5909" y="127.423684408"/>
     <use style="fill:#ff0000;stroke:#ff0000;stroke-width:0.5;" x="57.3631578947" xlink:href="#ma07bdd5909" y="127.156035714"/>
     <use style="fill:#ff0000;stroke:#ff0000;stroke-width:0.5;" x="50.5105263158" xlink:href="#ma07bdd5909" y="127.586294432"/>
     <use style="fill:#ff0000;stroke:#ff0000;stroke-width:0.5;" x="49.5315789473" xlink:href="#ma07bdd5909" y="125.782351504"/>
     <use style="fill:#ff0000;stroke:#ff0000;stroke-width:0.5;" x="42.6789473684" xlink:href="#ma07bdd5909" y="122.375051798"/>
     <use style="fill:#ff0000;stroke:#ff0000;stroke-width:0.5;" x="41.7" xlink:href="#ma07bdd5909" y="123.68290421"/>
    </g>
   </g>
   <g id="line2d_8">
    <path clip-path="url(#p26c33cc5a4)" d="
M264.9 178.588
L263.921 178.537
L262.942 178.537
L261.963 178.537
L260.984 178.554
L260.005 178.537
L259.026 178.519
L258.047 178.519
L257.068 178.519
L256.089 178.502
L255.111 178.502
L254.132 178.485
L253.153 178.485
L252.174 178.467
L251.195 178.45
L250.216 178.186
L249.237 178.168
L248.258 178.168
L247.279 178.132
L246.3 178.097
L245.321 178.097
L244.342 178.025
L243.363 178.025
L242.384 178.007
L241.405 177.97
L239.447 177.934
L238.468 177.916
L237.489 177.897
L236.511 177.879
L235.532 177.879
L234.553 177.879
L233.574 177.861
L232.595 177.861
L231.616 177.842
L230.637 177.824
L229.658 177.824
L228.679 177.805
L227.7 177.824
L226.721 177.805
L225.742 177.75
L224.763 177.694
L223.784 177.694
L222.805 177.694
L221.826 177.694
L220.847 177.675
L219.868 177.637
L218.889 177.618
L152.321 175.675
L136.658 175.224
L114.142 174.099
L108.268 173.858
L104.353 173.611
L83.7947 173.044
L62.2579 172.249
L57.3632 172.156
L50.5105 171.969
L49.5316 171.906
L42.6789 171.746
L41.7 171.746" style="fill:none;stroke:#0000ff;stroke-linecap:square;"/>
    <defs>
     <path d="
M0 1.5
C0.397805 1.5 0.77937 1.34195 1.06066 1.06066
C1.34195 0.77937 1.5 0.397805 1.5 0
C1.5 -0.397805 1.34195 -0.77937 1.06066 -1.06066
C0.77937 -1.34195 0.397805 -1.5 0 -1.5
C-0.397805 -1.5 -0.77937 -1.34195 -1.06066 -1.06066
C-1.34195 -0.77937 -1.5 -0.397805 -1.5 0
C-1.5 0.397805 -1.34195 0.77937 -1.06066 1.06066
C-0.77937 1.34195 -0.397805 1.5 0 1.5
z
" id="m76a7ce5b4a" style="stroke:#0000ff;stroke-width:0.5;"/>
    </defs>
    <g clip-path="url(#p26c33cc5a4)">
     <use style="fill:#0000ff;stroke:#0000ff;stroke-width:0.5;" x="264.9" xlink:href="#m76a7ce5b4a" y="178.588426096"/>
     <use style="fill:#0000ff;stroke:#0000ff;stroke-width:0.5;" x="263.921052632" xlink:href="#m76a7ce5b4a" y="178.536728011"/>
     <use style="fill:#0000ff;stroke:#0000ff;stroke-width:0.5;" x="262.942105263" xlink:href="#m76a7ce5b4a" y="178.536728011"/>
     <use style="fill:#0000ff;stroke:#0000ff;stroke-width:0.5;" x="261.963157895" xlink:href="#m76a7ce5b4a" y="178.536728011"/>
     <use style="fill:#0000ff;stroke:#0000ff;stroke-width:0.5;" x="260.984210526" xlink:href="#m76a7ce5b4a" y="178.553994898"/>
     <use style="fill:#0000ff;stroke:#0000ff;stroke-width:0.5;" x="260.005263158" xlink:href="#m76a7ce5b4a" y="178.536728011"/>
     <use style="fill:#0000ff;stroke:#0000ff;stroke-width:0.5;" x="259.026315789" xlink:href="#m76a7ce5b4a" y="178.519426796"/>
     <use style="fill:#0000ff;stroke:#0000ff;stroke-width:0.5;" x="258.047368421" xlink:href="#m76a7ce5b4a" y="178.519426796"/>
     <use style="fill:#0000ff;stroke:#0000ff;stroke-width:0.5;" x="257.068421053" xlink:href="#m76a7ce5b4a" y="178.519426796"/>
     <use style="fill:#0000ff;stroke:#0000ff;stroke-width:0.5;" x="256.089473684" xlink:href="#m76a7ce5b4a" y="178.502091151"/>
     <use style="fill:#0000ff;stroke:#0000ff;stroke-width:0.5;" x="255.110526316" xlink:href="#m76a7ce5b4a" y="178.502091151"/>
     <use style="fill:#0000ff;stroke:#0000ff;stroke-width:0.5;" x="254.131578947" xlink:href="#m76a7ce5b4a" y="178.484720973"/>
     <use style="fill:#0000ff;stroke:#0000ff;stroke-width:0.5;" x="253.152631579" xlink:href="#m76a7ce5b4a" y="178.484720973"/>
     <use style="fill:#0000ff;stroke:#0000ff;stroke-width:0.5;" x="252.173684211" xlink:href="#m76a7ce5b4a" y="178.467316159"/>
     <use style="fill:#0000ff;stroke:#0000ff;stroke-width:0.5;" x="251.194736842" xlink:href="#m76a7ce5b4a" y="178.449876604"/>
     <use style="fill:#0000ff;stroke:#0000ff;stroke-width:0.5;" x="250.215789474" xlink:href="#m76a7ce5b4a" y="178.185791673"/>
     <use style="fill:#0000ff;stroke:#0000ff;stroke-width:0.5;" x="249.236842105" xlink:href="#m76a7ce5b4a" y="178.168035714"/>
     <use style="fill:#0000ff;stroke:#0000ff;stroke-width:0.5;" x="248.257894737" xlink:href="#m76a7ce5b4a" y="178.168035714"/>
     <use style="fill:#0000ff;stroke:#0000ff;stroke-width:0.5;" x="247.278947368" xlink:href="#m76a7ce5b4a" y="178.132417048"/>
     <use style="fill:#0000ff;stroke:#0000ff;stroke-width:0.5;" x="246.3" xlink:href="#m76a7ce5b4a" y="178.096655336"/>
     <use style="fill:#0000ff;stroke:#0000ff;stroke-width:0.5;" x="245.321052632" xlink:href="#m76a7ce5b4a" y="178.096655336"/>
     <use style="fill:#0000ff;stroke:#0000ff;stroke-width:0.5;" x="244.342105263" xlink:href="#m76a7ce5b4a" y="178.024699309"/>
     <use style="fill:#0000ff;stroke:#0000ff;stroke-width:0.5;" x="243.363157895" xlink:href="#m76a7ce5b4a" y="178.024699309"/>
     <use style="fill:#0000ff;stroke:#0000ff;stroke-width:0.5;" x="242.384210526" xlink:href="#m76a7ce5b4a" y="178.00661954"/>
     <use style="fill:#0000ff;stroke:#0000ff;stroke-width:0.5;" x="241.405263158" xlink:href="#m76a7ce5b4a" y="177.970350318"/>
     <use style="fill:#0000ff;stroke:#0000ff;stroke-width:0.5;" x="239.447368421" xlink:href="#m76a7ce5b4a" y="177.933934108"/>
     <use style="fill:#0000ff;stroke:#0000ff;stroke-width:0.5;" x="238.468421053" xlink:href="#m76a7ce5b4a" y="177.915670603"/>
     <use style="fill:#0000ff;stroke:#0000ff;stroke-width:0.5;" x="237.489473684" xlink:href="#m76a7ce5b4a" y="177.897370015"/>
     <use style="fill:#0000ff;stroke:#0000ff;stroke-width:0.5;" x="236.510526316" xlink:href="#m76a7ce5b4a" y="177.87903223"/>
     <use style="fill:#0000ff;stroke:#0000ff;stroke-width:0.5;" x="235.531578947" xlink:href="#m76a7ce5b4a" y="177.87903223"/>
     <use style="fill:#0000ff;stroke:#0000ff;stroke-width:0.5;" x="234.552631579" xlink:href="#m76a7ce5b4a" y="177.87903223"/>
     <use style="fill:#0000ff;stroke:#0000ff;stroke-width:0.5;" x="233.573684211" xlink:href="#m76a7ce5b4a" y="177.860657136"/>
     <use style="fill:#0000ff;stroke:#0000ff;stroke-width:0.5;" x="232.594736842" xlink:href="#m76a7ce5b4a" y="177.860657136"/>
     <use style="fill:#0000ff;stroke:#0000ff;stroke-width:0.5;" x="231.615789474" xlink:href="#m76a7ce5b4a" y="177.842244617"/>
     <use style="fill:#0000ff;stroke:#0000ff;stroke-width:0.5;" x="230.636842105" xlink:href="#m76a7ce5b4a" y="177.823794561"/>
     <use style="fill:#0000ff;stroke:#0000ff;stroke-width:0.5;" x="229.657894737" xlink:href="#m76a7ce5b4a" y="177.823794561"/>
     <use style="fill:#0000ff;stroke:#0000ff;stroke-width:0.5;" x="228.678947368" xlink:href="#m76a7ce5b4a" y="177.805306851"/>
     <use style="fill:#0000ff;stroke:#0000ff;stroke-width:0.5;" x="227.7" xlink:href="#m76a7ce5b4a" y="177.823794561"/>
     <use style="fill:#0000ff;stroke:#0000ff;stroke-width:0.5;" x="226.721052632" xlink:href="#m76a7ce5b4a" y="177.805306851"/>
     <use style="fill:#0000ff;stroke:#0000ff;stroke-width:0.5;" x="225.742105263" xlink:href="#m76a7ce5b4a" y="177.749616647"/>
     <use style="fill:#0000ff;stroke:#0000ff;stroke-width:0.5;" x="224.763157895" xlink:href="#m76a7ce5b4a" y="177.693583382"/>
     <use style="fill:#0000ff;stroke:#0000ff;stroke-width:0.5;" x="223.784210526" xlink:href="#m76a7ce5b4a" y="177.693583382"/>
     <use style="fill:#0000ff;stroke:#0000ff;stroke-width:0.5;" x="222.805263158" xlink:href="#m76a7ce5b4a" y="177.693583382"/>
     <use style="fill:#0000ff;stroke:#0000ff;stroke-width:0.5;" x="221.826315789" xlink:href="#m76a7ce5b4a" y="177.693583382"/>
     <use style="fill:#0000ff;stroke:#0000ff;stroke-width:0.5;" x="220.847368421" xlink:href="#m76a7ce5b4a" y="177.674828843"/>
     <use style="fill:#0000ff;stroke:#0000ff;stroke-width:0.5;" x="219.868421053" xlink:href="#m76a7ce5b4a" y="177.637203877"/>
     <use style="fill:#0000ff;stroke:#0000ff;stroke-width:0.5;" x="218.889473684" xlink:href="#m76a7ce5b4a" y="177.618333211"/>
     <use style="fill:#0000ff;stroke:#0000ff;stroke-width:0.5;" x="152.321052632" xlink:href="#m76a7ce5b4a" y="175.675257086"/>
     <use style="fill:#0000ff;stroke:#0000ff;stroke-width:0.5;" x="136.657894737" xlink:href="#m76a7ce5b4a" y="175.224424772"/>
     <use style="fill:#0000ff;stroke:#0000ff;stroke-width:0.5;" x="114.142105263" xlink:href="#m76a7ce5b4a" y="174.098633117"/>
     <use style="fill:#0000ff;stroke:#0000ff;stroke-width:0.5;" x="108.268421053" xlink:href="#m76a7ce5b4a" y="173.857716387"/>
     <use style="fill:#0000ff;stroke:#0000ff;stroke-width:0.5;" x="104.352631579" xlink:href="#m76a7ce5b4a" y="173.611426049"/>
     <use style="fill:#0000ff;stroke:#0000ff;stroke-width:0.5;" x="83.794736842" xlink:href="#m76a7ce5b4a" y="173.043946406"/>
     <use style="fill:#0000ff;stroke:#0000ff;stroke-width:0.5;" x="62.2578947368" xlink:href="#m76a7ce5b4a" y="172.248587132"/>
     <use style="fill:#0000ff;stroke:#0000ff;stroke-width:0.5;" x="57.3631578947" xlink:href="#m76a7ce5b4a" y="172.156035714"/>
     <use style="fill:#0000ff;stroke:#0000ff;stroke-width:0.5;" x="50.5105263158" xlink:href="#m76a7ce5b4a" y="171.968746625"/>
     <use style="fill:#0000ff;stroke:#0000ff;stroke-width:0.5;" x="49.5315789473" xlink:href="#m76a7ce5b4a" y="171.905659774"/>
     <use style="fill:#0000ff;stroke:#0000ff;stroke-width:0.5;" x="42.6789473684" xlink:href="#m76a7ce5b4a" y="171.746480369"/>
     <use style="fill:#0000ff;stroke:#0000ff;stroke-width:0.5;" x="41.7" xlink:href="#m76a7ce5b4a" y="171.746480369"/>
    </g>
   </g>
   <g id="line2d_9">
    <path clip-path="url(#p26c33cc5a4)" d="
M264.9 177.122
L263.921 177.066
L262.942 177.066
L261.963 177.066
L260.984 177.085
L260.005 177.066
L259.026 177.047
L258.047 177.047
L257.068 177.047
L256.089 177.028
L255.111 177.028
L254.132 177.009
L253.153 177.009
L252.174 176.991
L251.195 176.972
L250.216 176.953
L249.237 176.934
L248.258 176.934
L247.279 176.896
L246.3 176.857
L245.321 176.857
L244.342 176.78
L243.363 176.78
L242.384 176.761
L241.405 176.722
L239.447 176.933
L238.468 176.914
L237.489 176.895
L236.511 176.876
L235.532 176.876
L234.553 176.876
L233.574 176.856
L232.595 176.856
L231.616 176.837
L230.637 176.817
L229.658 176.817
L228.679 176.798
L227.7 176.817
L226.721 176.798
L225.742 176.739
L224.763 176.68
L223.784 176.68
L222.805 176.68
L221.826 176.68
L220.847 176.66
L219.868 176.62
L218.889 176.6
L152.321 175.112
L136.658 174.349
L114.142 175.894
L108.268 175.673
L104.353 175.447
L83.7947 174.926
L62.2579 174.49
L57.3632 174.406
L50.5105 174.236
L49.5316 174.504
L42.6789 174.362
L41.7 174.362" style="fill:none;stroke:#808080;stroke-linecap:square;"/>
    <defs>
     <path d="
M0 1.5
C0.397805 1.5 0.77937 1.34195 1.06066 1.06066
C1.34195 0.77937 1.5 0.397805 1.5 0
C1.5 -0.397805 1.34195 -0.77937 1.06066 -1.06066
C0.77937 -1.34195 0.397805 -1.5 0 -1.5
C-0.397805 -1.5 -0.77937 -1.34195 -1.06066 -1.06066
C-1.34195 -0.77937 -1.5 -0.397805 -1.5 0
C-1.5 0.397805 -1.34195 0.77937 -1.06066 1.06066
C-0.77937 1.34195 -0.397805 1.5 0 1.5
z
" id="m008e8825d0" style="stroke:#808080;stroke-width:0.5;"/>
    </defs>
    <g clip-path="url(#p26c33cc5a4)">
     <use style="fill:#808080;stroke:#808080;stroke-width:0.5;" x="264.9" xlink:href="#m008e8825d0" y="177.12194802"/>
     <use style="fill:#808080;stroke:#808080;stroke-width:0.5;" x="263.921052632" xlink:href="#m008e8825d0" y="177.065881082"/>
     <use style="fill:#808080;stroke:#808080;stroke-width:0.5;" x="262.942105263" xlink:href="#m008e8825d0" y="177.065881082"/>
     <use style="fill:#808080;stroke:#808080;stroke-width:0.5;" x="261.963157895" xlink:href="#m008e8825d0" y="177.065881082"/>
     <use style="fill:#808080;stroke:#808080;stroke-width:0.5;" x="260.984210526" xlink:href="#m008e8825d0" y="177.084607143"/>
     <use style="fill:#808080;stroke:#808080;stroke-width:0.5;" x="260.005263158" xlink:href="#m008e8825d0" y="177.065881082"/>
     <use style="fill:#808080;stroke:#808080;stroke-width:0.5;" x="259.026315789" xlink:href="#m008e8825d0" y="177.047117793"/>
     <use style="fill:#808080;stroke:#808080;stroke-width:0.5;" x="258.047368421" xlink:href="#m008e8825d0" y="177.047117793"/>
     <use style="fill:#808080;stroke:#808080;stroke-width:0.5;" x="257.068421053" xlink:href="#m008e8825d0" y="177.047117793"/>
     <use style="fill:#808080;stroke:#808080;stroke-width:0.5;" x="256.089473684" xlink:href="#m008e8825d0" y="177.028317164"/>
     <use style="fill:#808080;stroke:#808080;stroke-width:0.5;" x="255.110526316" xlink:href="#m008e8825d0" y="177.028317164"/>
     <use style="fill:#808080;stroke:#808080;stroke-width:0.5;" x="254.131578947" xlink:href="#m008e8825d0" y="177.009479084"/>
     <use style="fill:#808080;stroke:#808080;stroke-width:0.5;" x="253.152631579" xlink:href="#m008e8825d0" y="177.009479084"/>
     <use style="fill:#808080;stroke:#808080;stroke-width:0.5;" x="252.173684211" xlink:href="#m008e8825d0" y="176.99060344"/>
     <use style="fill:#808080;stroke:#808080;stroke-width:0.5;" x="251.194736842" xlink:href="#m008e8825d0" y="176.97169012"/>
     <use style="fill:#808080;stroke:#808080;stroke-width:0.5;" x="250.215789474" xlink:href="#m008e8825d0" y="176.952739011"/>
     <use style="fill:#808080;stroke:#808080;stroke-width:0.5;" x="249.236842105" xlink:href="#m008e8825d0" y="176.93375"/>
     <use style="fill:#808080;stroke:#808080;stroke-width:0.5;" x="248.257894737" xlink:href="#m008e8825d0" y="176.93375"/>
     <use style="fill:#808080;stroke:#808080;stroke-width:0.5;" x="247.278947368" xlink:href="#m008e8825d0" y="176.895657816"/>
     <use style="fill:#808080;stroke:#808080;stroke-width:0.5;" x="246.3" xlink:href="#m008e8825d0" y="176.857412651"/>
     <use style="fill:#808080;stroke:#808080;stroke-width:0.5;" x="245.321052632" xlink:href="#m008e8825d0" y="176.857412651"/>
     <use style="fill:#808080;stroke:#808080;stroke-width:0.5;" x="244.342105263" xlink:href="#m008e8825d0" y="176.780459677"/>
     <use style="fill:#808080;stroke:#808080;stroke-width:0.5;" x="243.363157895" xlink:href="#m008e8825d0" y="176.780459677"/>
     <use style="fill:#808080;stroke:#808080;stroke-width:0.5;" x="242.384210526" xlink:href="#m008e8825d0" y="176.761124369"/>
     <use style="fill:#808080;stroke:#808080;stroke-width:0.5;" x="241.405263158" xlink:href="#m008e8825d0" y="176.722336451"/>
     <use style="fill:#808080;stroke:#808080;stroke-width:0.5;" x="239.447368421" xlink:href="#m008e8825d0" y="176.933499891"/>
     <use style="fill:#808080;stroke:#808080;stroke-width:0.5;" x="238.468421053" xlink:href="#m008e8825d0" y="176.914221747"/>
     <use style="fill:#808080;stroke:#808080;stroke-width:0.5;" x="237.489473684" xlink:href="#m008e8825d0" y="176.89490446"/>
     <use style="fill:#808080;stroke:#808080;stroke-width:0.5;" x="236.510526316" xlink:href="#m008e8825d0" y="176.875547909"/>
     <use style="fill:#808080;stroke:#808080;stroke-width:0.5;" x="235.531578947" xlink:href="#m008e8825d0" y="176.875547909"/>
     <use style="fill:#808080;stroke:#808080;stroke-width:0.5;" x="234.552631579" xlink:href="#m008e8825d0" y="176.875547909"/>
     <use style="fill:#808080;stroke:#808080;stroke-width:0.5;" x="233.573684211" xlink:href="#m008e8825d0" y="176.856151976"/>
     <use style="fill:#808080;stroke:#808080;stroke-width:0.5;" x="232.594736842" xlink:href="#m008e8825d0" y="176.856151976"/>
     <use style="fill:#808080;stroke:#808080;stroke-width:0.5;" x="231.615789474" xlink:href="#m008e8825d0" y="176.836716541"/>
     <use style="fill:#808080;stroke:#808080;stroke-width:0.5;" x="230.636842105" xlink:href="#m008e8825d0" y="176.817241481"/>
     <use style="fill:#808080;stroke:#808080;stroke-width:0.5;" x="229.657894737" xlink:href="#m008e8825d0" y="176.817241481"/>
     <use style="fill:#808080;stroke:#808080;stroke-width:0.5;" x="228.678947368" xlink:href="#m008e8825d0" y="176.797726676"/>
     <use style="fill:#808080;stroke:#808080;stroke-width:0.5;" x="227.7" xlink:href="#m008e8825d0" y="176.817241481"/>
     <use style="fill:#808080;stroke:#808080;stroke-width:0.5;" x="226.721052632" xlink:href="#m008e8825d0" y="176.797726676"/>
     <use style="fill:#808080;stroke:#808080;stroke-width:0.5;" x="225.742105263" xlink:href="#m008e8825d0" y="176.738942572"/>
     <use style="fill:#808080;stroke:#808080;stroke-width:0.5;" x="224.763157895" xlink:href="#m008e8825d0" y="176.679796348"/>
     <use style="fill:#808080;stroke:#808080;stroke-width:0.5;" x="223.784210526" xlink:href="#m008e8825d0" y="176.679796348"/>
     <use style="fill:#808080;stroke:#808080;stroke-width:0.5;" x="222.805263158" xlink:href="#m008e8825d0" y="176.679796348"/>
     <use style="fill:#808080;stroke:#808080;stroke-width:0.5;" x="221.826315789" xlink:href="#m008e8825d0" y="176.679796348"/>
     <use style="fill:#808080;stroke:#808080;stroke-width:0.5;" x="220.847368421" xlink:href="#m008e8825d0" y="176.65999989"/>
     <use style="fill:#808080;stroke:#808080;stroke-width:0.5;" x="219.868421053" xlink:href="#m008e8825d0" y="176.620284648"/>
     <use style="fill:#808080;stroke:#808080;stroke-width:0.5;" x="218.889473684" xlink:href="#m008e8825d0" y="176.600365611"/>
     <use style="fill:#808080;stroke:#808080;stroke-width:0.5;" x="152.321052632" xlink:href="#m008e8825d0" y="175.112298949"/>
     <use style="fill:#808080;stroke:#808080;stroke-width:0.5;" x="136.657894737" xlink:href="#m008e8825d0" y="174.349044833"/>
     <use style="fill:#808080;stroke:#808080;stroke-width:0.5;" x="114.142105263" xlink:href="#m008e8825d0" y="175.893957792"/>
     <use style="fill:#808080;stroke:#808080;stroke-width:0.5;" x="108.268421053" xlink:href="#m008e8825d0" y="175.672842437"/>
     <use style="fill:#808080;stroke:#808080;stroke-width:0.5;" x="104.352631579" xlink:href="#m008e8825d0" y="175.446795141"/>
     <use style="fill:#808080;stroke:#808080;stroke-width:0.5;" x="83.794736842" xlink:href="#m008e8825d0" y="174.92595766"/>
     <use style="fill:#808080;stroke:#808080;stroke-width:0.5;" x="62.2578947368" xlink:href="#m008e8825d0" y="174.489832268"/>
     <use style="fill:#808080;stroke:#808080;stroke-width:0.5;" x="57.3631578947" xlink:href="#m008e8825d0" y="174.406035714"/>
     <use style="fill:#808080;stroke:#808080;stroke-width:0.5;" x="50.5105263158" xlink:href="#m008e8825d0" y="174.236463161"/>
     <use style="fill:#808080;stroke:#808080;stroke-width:0.5;" x="49.5315789473" xlink:href="#m008e8825d0" y="174.504156015"/>
     <use style="fill:#808080;stroke:#808080;stroke-width:0.5;" x="42.6789473684" xlink:href="#m008e8825d0" y="174.362185194"/>
     <use style="fill:#808080;stroke:#808080;stroke-width:0.5;" x="41.7" xlink:href="#m008e8825d0" y="174.362185194"/>
    </g>
   </g>
   <g id="matplotlib.axis_1">
    <g id="xtick_1">
     <g id="line2d_10">
      <defs>
       <path d="
M0 0
L0 -4" id="m93b0483c22" style="stroke:#000000;stroke-width:0.5;"/>
      </defs>
      <g>
       <use style="stroke:#000000;stroke-width:0.5;" x="47.5736842105" xlink:href="#m93b0483c22" y="195.94175"/>
      </g>
     </g>
     <g id="line2d_11">
      <defs>
       <path d="
M0 0
L0 4" id="m741efc42ff" style="stroke:#000000;stroke-width:0.5;"/>
      </defs>
      <g>
       <use style="stroke:#000000;stroke-width:0.5;" x="47.5736842105" xlink:href="#m741efc42ff" y="23.14175"/>
      </g>
     </g>
     <g id="text_1">
      <!-- Dec 2015 -->
      <defs>
       <path d="
M12.4062 8.29688
L28.5156 8.29688
L28.5156 63.9219
L10.9844 60.4062
L10.9844 69.3906
L28.4219 72.9062
L38.2812 72.9062
L38.2812 8.29688
L54.3906 8.29688
L54.3906 0
L12.4062 0
z
" id="DejaVuSans-31"/>
       <path d="
M19.6719 64.7969
L19.6719 8.10938
L31.5938 8.10938
Q46.6875 8.10938 53.6875 14.9375
Q60.6875 21.7812 60.6875 36.5312
Q60.6875 51.1719 53.6875 57.9844
Q46.6875 64.7969 31.5938 64.7969
z

M9.8125 72.9062
L30.0781 72.9062
Q51.2656 72.9062 61.1719 64.0938
Q71.0938 55.2812 71.0938 36.5312
Q71.0938 17.6719 61.125 8.82812
Q51.1719 0 30.0781 0
L9.8125 0
z
" id="DejaVuSans-44"/>
       <path d="
M31.7812 66.4062
Q24.1719 66.4062 20.3281 58.9062
Q16.5 51.4219 16.5 36.375
Q16.5 21.3906 20.3281 13.8906
Q24.1719 6.39062 31.7812 6.39062
Q39.4531 6.39062 43.2812 13.8906
Q47.125 21.3906 47.125 36.375
Q47.125 51.4219 43.2812 58.9062
Q39.4531 66.4062 31.7812 66.4062
M31.7812 74.2188
Q44.0469 74.2188 50.5156 64.5156
Q56.9844 54.8281 56.9844 36.375
Q56.9844 17.9688 50.5156 8.26562
Q44.0469 -1.42188 31.7812 -1.42188
Q19.5312 -1.42188 13.0625 8.26562
Q6.59375 17.9688 6.59375 36.375
Q6.59375 54.8281 13.0625 64.5156
Q19.5312 74.2188 31.7812 74.2188" id="DejaVuSans-30"/>
       <path id="DejaVuSans-20"/>
       <path d="
M19.1875 8.29688
L53.6094 8.29688
L53.6094 0
L7.32812 0
L7.32812 8.29688
Q12.9375 14.1094 22.625 23.8906
Q32.3281 33.6875 34.8125 36.5312
Q39.5469 41.8438 41.4219 45.5312
Q43.3125 49.2188 43.3125 52.7812
Q43.3125 58.5938 39.2344 62.25
Q35.1562 65.9219 28.6094 65.9219
Q23.9688 65.9219 18.8125 64.3125
Q13.6719 62.7031 7.8125 59.4219
L7.8125 69.3906
Q13.7656 71.7812 18.9375 73
Q24.125 74.2188 28.4219 74.2188
Q39.75 74.2188 46.4844 68.5469
Q53.2188 62.8906 53.2188 53.4219
Q53.2188 48.9219 51.5312 44.8906
Q49.8594 40.875 45.4062 35.4062
Q44.1875 33.9844 37.6406 27.2188
Q31.1094 20.4531 19.1875 8.29688" id="DejaVuSans-32"/>
       <path d="
M10.7969 72.9062
L49.5156 72.9062
L49.5156 64.5938
L19.8281 64.5938
L19.8281 46.7344
Q21.9688 47.4688 24.1094 47.8281
Q26.2656 48.1875 28.4219 48.1875
Q40.625 48.1875 47.75 41.5
Q54.8906 34.8125 54.8906 23.3906
Q54.8906 11.625 47.5625 5.09375
Q40.2344 -1.42188 26.9062 -1.42188
Q22.3125 -1.42188 17.5469 -0.640625
Q12.7969 0.140625 7.71875 1.70312
L7.71875 11.625
Q12.1094 9.23438 16.7969 8.0625
Q21.4844 6.89062 26.7031 6.89062
Q35.1562 6.89062 40.0781 11.3281
Q45.0156 15.7656 45.0156 23.3906
Q45.0156 31 40.0781 35.4375
Q35.1562 39.8906 26.7031 39.8906
Q22.75 39.8906 18.8125 39.0156
Q14.8906 38.1406 10.7969 36.2812
z
" id="DejaVuSans-35"/>
       <path d="
M56.2031 29.5938
L56.2031 25.2031
L14.8906 25.2031
Q15.4844 15.9219 20.4844 11.0625
Q25.4844 6.20312 34.4219 6.20312
Q39.5938 6.20312 44.4531 7.46875
Q49.3125 8.73438 54.1094 11.2812
L54.1094 2.78125
Q49.2656 0.734375 44.1875 -0.34375
Q39.1094 -1.42188 33.8906 -1.42188
Q20.7969 -1.42188 13.1562 6.1875
Q5.51562 13.8125 5.51562 26.8125
Q5.51562 40.2344 12.7656 48.1094
Q20.0156 56 32.3281 56
Q43.3594 56 49.7812 48.8906
Q56.2031 41.7969 56.2031 29.5938
M47.2188 32.2344
Q47.125 39.5938 43.0938 43.9844
Q39.0625 48.3906 32.4219 48.3906
Q24.9062 48.3906 20.3906 44.1406
Q15.875 39.8906 15.1875 32.1719
z
" id="DejaVuSans-65"/>
       <path d="
M48.7812 52.5938
L48.7812 44.1875
Q44.9688 46.2969 41.1406 47.3438
Q37.3125 48.3906 33.4062 48.3906
Q24.6562 48.3906 19.8125 42.8438
Q14.9844 37.3125 14.9844 27.2969
Q14.9844 17.2812 19.8125 11.7344
Q24.6562 6.20312 33.4062 6.20312
Q37.3125 6.20312 41.1406 7.25
Q44.9688 8.29688 48.7812 10.4062
L48.7812 2.09375
Q45.0156 0.34375 40.9844 -0.53125
Q36.9688 -1.42188 32.4219 -1.42188
Q20.0625 -1.42188 12.7812 6.34375
Q5.51562 14.1094 5.51562 27.2969
Q5.51562 40.6719 12.8594 48.3281
Q20.2188 56 33.0156 56
Q37.1562 56 41.1094 55.1406
Q45.0625 54.2969 48.7812 52.5938" id="DejaVuSans-63"/>
      </defs>
      <g transform="translate(50.8849342105 256.46925)rotate(-90.0)scale(0.12 -0.12)">
       <use xlink:href="#DejaVuSans-44"/>
       <use x="77.001953125" xlink:href="#DejaVuSans-65"/>
       <use x="138.525390625" xlink:href="#DejaVuSans-63"/>
       <use x="193.505859375" xlink:href="#DejaVuSans-20"/>
       <use x="225.29296875" xlink:href="#DejaVuSans-32"/>
       <use x="288.916015625" xlink:href="#DejaVuSans-30"/>
       <use x="352.5390625" xlink:href="#DejaVuSans-31"/>
       <use x="416.162109375" xlink:href="#DejaVuSans-35"/>
      </g>
     </g>
    </g>
    <g id="xtick_2">
     <g id="line2d_12">
      <g>
       <use style="stroke:#000000;stroke-width:0.5;" x="77.9210526316" xlink:href="#m93b0483c22" y="195.94175"/>
      </g>
     </g>
     <g id="line2d_13">
      <g>
       <use style="stroke:#000000;stroke-width:0.5;" x="77.9210526316" xlink:href="#m741efc42ff" y="23.14175"/>
      </g>
     </g>
     <g id="text_2">
      <!-- Jan 2016 -->
      <defs>
       <path d="
M54.8906 33.0156
L54.8906 0
L45.9062 0
L45.9062 32.7188
Q45.9062 40.4844 42.875 44.3281
Q39.8438 48.1875 33.7969 48.1875
Q26.5156 48.1875 22.3125 43.5469
Q18.1094 38.9219 18.1094 30.9062
L18.1094 0
L9.07812 0
L9.07812 54.6875
L18.1094 54.6875
L18.1094 46.1875
Q21.3438 51.125 25.7031 53.5625
Q30.0781 56 35.7969 56
Q45.2188 56 50.0469 50.1719
Q54.8906 44.3438 54.8906 33.0156" id="DejaVuSans-6e"/>
       <path d="
M33.0156 40.375
Q26.375 40.375 22.4844 35.8281
Q18.6094 31.2969 18.6094 23.3906
Q18.6094 15.5312 22.4844 10.9531
Q26.375 6.39062 33.0156 6.39062
Q39.6562 6.39062 43.5312 10.9531
Q47.4062 15.5312 47.4062 23.3906
Q47.4062 31.2969 43.5312 35.8281
Q39.6562 40.375 33.0156 40.375
M52.5938 71.2969
L52.5938 62.3125
Q48.875 64.0625 45.0938 64.9844
Q41.3125 65.9219 37.5938 65.9219
Q27.8281 65.9219 22.6719 59.3281
Q17.5312 52.7344 16.7969 39.4062
Q19.6719 43.6562 24.0156 45.9219
Q28.375 48.1875 33.5938 48.1875
Q44.5781 48.1875 50.9531 41.5156
Q57.3281 34.8594 57.3281 23.3906
Q57.3281 12.1562 50.6875 5.35938
Q44.0469 -1.42188 33.0156 -1.42188
Q20.3594 -1.42188 13.6719 8.26562
Q6.98438 17.9688 6.98438 36.375
Q6.98438 53.6562 15.1875 63.9375
Q23.3906 74.2188 37.2031 74.2188
Q40.9219 74.2188 44.7031 73.4844
Q48.4844 72.75 52.5938 71.2969" id="DejaVuSans-36"/>
       <path d="
M9.8125 72.9062
L19.6719 72.9062
L19.6719 5.07812
Q19.6719 -8.10938 14.6719 -14.0625
Q9.67188 -20.0156 -1.42188 -20.0156
L-5.17188 -20.0156
L-5.17188 -11.7188
L-2.09375 -11.7188
Q4.4375 -11.7188 7.125 -8.04688
Q9.8125 -4.39062 9.8125 5.07812
z
" id="DejaVuSans-4a"/>
       <path d="
M34.2812 27.4844
Q23.3906 27.4844 19.1875 25
Q14.9844 22.5156 14.9844 16.5
Q14.9844 11.7188 18.1406 8.90625
Q21.2969 6.10938 26.7031 6.10938
Q34.1875 6.10938 38.7031 11.4062
Q43.2188 16.7031 43.2188 25.4844
L43.2188 27.4844
z

M52.2031 31.2031
L52.2031 0
L43.2188 0
L43.2188 8.29688
Q40.1406 3.32812 35.5469 0.953125
Q30.9531 -1.42188 24.3125 -1.42188
Q15.9219 -1.42188 10.9531 3.29688
Q6 8.01562 6 15.9219
Q6 25.1406 12.1719 29.8281
Q18.3594 34.5156 30.6094 34.5156
L43.2188 34.5156
L43.2188 35.4062
Q43.2188 41.6094 39.1406 45
Q35.0625 48.3906 27.6875 48.3906
Q23 48.3906 18.5469 47.2656
Q14.1094 46.1406 10.0156 43.8906
L10.0156 52.2031
Q14.9375 54.1094 19.5781 55.0469
Q24.2188 56 28.6094 56
Q40.4844 56 46.3438 49.8438
Q52.2031 43.7031 52.2031 31.2031" id="DejaVuSans-61"/>
      </defs>
      <g transform="translate(81.2323026316 252.65925)rotate(-90.0)scale(0.12 -0.12)">
       <use xlink:href="#DejaVuSans-4a"/>
       <use x="29.4921875" xlink:href="#DejaVuSans-61"/>
       <use x="90.771484375" xlink:href="#DejaVuSans-6e"/>
       <use x="154.150390625" xlink:href="#DejaVuSans-20"/>
       <use x="185.9375" xlink:href="#DejaVuSans-32"/>
       <use x="249.560546875" xlink:href="#DejaVuSans-30"/>
       <use x="313.18359375" xlink:href="#DejaVuSans-31"/>
       <use x="376.806640625" xlink:href="#DejaVuSans-36"/>
      </g>
     </g>
    </g>
    <g id="xtick_3">
     <g id="line2d_14">
      <g>
       <use style="stroke:#000000;stroke-width:0.5;" x="108.268421053" xlink:href="#m93b0483c22" y="195.94175"/>
      </g>
     </g>
     <g id="line2d_15">
      <g>
       <use style="stroke:#000000;stroke-width:0.5;" x="108.268421053" xlink:href="#m741efc42ff" y="23.14175"/>
      </g>
     </g>
     <g id="text_3">
      <!-- Feb 2016 -->
      <defs>
       <path d="
M9.8125 72.9062
L51.7031 72.9062
L51.7031 64.5938
L19.6719 64.5938
L19.6719 43.1094
L48.5781 43.1094
L48.5781 34.8125
L19.6719 34.8125
L19.6719 0
L9.8125 0
z
" id="DejaVuSans-46"/>
       <path d="
M48.6875 27.2969
Q48.6875 37.2031 44.6094 42.8438
Q40.5312 48.4844 33.4062 48.4844
Q26.2656 48.4844 22.1875 42.8438
Q18.1094 37.2031 18.1094 27.2969
Q18.1094 17.3906 22.1875 11.75
Q26.2656 6.10938 33.4062 6.10938
Q40.5312 6.10938 44.6094 11.75
Q48.6875 17.3906 48.6875 27.2969
M18.1094 46.3906
Q20.9531 51.2656 25.2656 53.625
Q29.5938 56 35.5938 56
Q45.5625 56 51.7812 48.0938
Q58.0156 40.1875 58.0156 27.2969
Q58.0156 14.4062 51.7812 6.48438
Q45.5625 -1.42188 35.5938 -1.42188
Q29.5938 -1.42188 25.2656 0.953125
Q20.9531 3.32812 18.1094 8.20312
L18.1094 0
L9.07812 0
L9.07812 75.9844
L18.1094 75.9844
z
" id="DejaVuSans-62"/>
      </defs>
      <g transform="translate(111.579671053 254.783625)rotate(-90.0)scale(0.12 -0.12)">
       <use xlink:href="#DejaVuSans-46"/>
       <use x="52.01953125" xlink:href="#DejaVuSans-65"/>
       <use x="113.54296875" xlink:href="#DejaVuSans-62"/>
       <use x="177.01953125" xlink:href="#DejaVuSans-20"/>
       <use x="208.806640625" xlink:href="#DejaVuSans-32"/>
       <use x="272.4296875" xlink:href="#DejaVuSans-30"/>
       <use x="336.052734375" xlink:href="#DejaVuSans-31"/>
       <use x="399.67578125" xlink:href="#DejaVuSans-36"/>
      </g>
     </g>
    </g>
    <g id="xtick_4">
     <g id="line2d_16">
      <g>
       <use style="stroke:#000000;stroke-width:0.5;" x="136.657894737" xlink:href="#m93b0483c22" y="195.94175"/>
      </g>
     </g>
     <g id="line2d_17">
      <g>
       <use style="stroke:#000000;stroke-width:0.5;" x="136.657894737" xlink:href="#m741efc42ff" y="23.14175"/>
      </g>
     </g>
     <g id="text_4">
      <!-- Mar 2016 -->
      <defs>
       <path d="
M9.8125 72.9062
L24.5156 72.9062
L43.1094 23.2969
L61.8125 72.9062
L76.5156 72.9062
L76.5156 0
L66.8906 0
L66.8906 64.0156
L48.0938 14.0156
L38.1875 14.0156
L19.3906 64.0156
L19.3906 0
L9.8125 0
z
" id="DejaVuSans-4d"/>
       <path d="
M41.1094 46.2969
Q39.5938 47.1719 37.8125 47.5781
Q36.0312 48 33.8906 48
Q26.2656 48 22.1875 43.0469
Q18.1094 38.0938 18.1094 28.8125
L18.1094 0
L9.07812 0
L9.07812 54.6875
L18.1094 54.6875
L18.1094 46.1875
Q20.9531 51.1719 25.4844 53.5781
Q30.0312 56 36.5312 56
Q37.4531 56 38.5781 55.875
Q39.7031 55.7656 41.0625 55.5156
z
" id="DejaVuSans-72"/>
      </defs>
      <g transform="translate(139.969144737 256.1805)rotate(-90.0)scale(0.12 -0.12)">
       <use xlink:href="#DejaVuSans-4d"/>
       <use x="86.279296875" xlink:href="#DejaVuSans-61"/>
       <use x="147.55859375" xlink:href="#DejaVuSans-72"/>
       <use x="188.671875" xlink:href="#DejaVuSans-20"/>
       <use x="220.458984375" xlink:href="#DejaVuSans-32"/>
       <use x="284.08203125" xlink:href="#DejaVuSans-30"/>
       <use x="347.705078125" xlink:href="#DejaVuSans-31"/>
       <use x="411.328125" xlink:href="#DejaVuSans-36"/>
      </g>
     </g>
    </g>
    <g id="xtick_5">
     <g id="line2d_18">
      <g>
       <use style="stroke:#000000;stroke-width:0.5;" x="167.005263158" xlink:href="#m93b0483c22" y="195.94175"/>
      </g>
     </g>
     <g id="line2d_19">
      <g>
       <use style="stroke:#000000;stroke-width:0.5;" x="167.005263158" xlink:href="#m741efc42ff" y="23.14175"/>
      </g>
     </g>
     <g id="text_5">
      <!-- Apr 2016 -->
      <defs>
       <path d="
M34.1875 63.1875
L20.7969 26.9062
L47.6094 26.9062
z

M28.6094 72.9062
L39.7969 72.9062
L67.5781 0
L57.3281 0
L50.6875 18.7031
L17.8281 18.7031
L11.1875 0
L0.78125 0
z
" id="DejaVuSans-41"/>
       <path d="
M18.1094 8.20312
L18.1094 -20.7969
L9.07812 -20.7969
L9.07812 54.6875
L18.1094 54.6875
L18.1094 46.3906
Q20.9531 51.2656 25.2656 53.625
Q29.5938 56 35.5938 56
Q45.5625 56 51.7812 48.0938
Q58.0156 40.1875 58.0156 27.2969
Q58.0156 14.4062 51.7812 6.48438
Q45.5625 -1.42188 35.5938 -1.42188
Q29.5938 -1.42188 25.2656 0.953125
Q20.9531 3.32812 18.1094 8.20312
M48.6875 27.2969
Q48.6875 37.2031 44.6094 42.8438
Q40.5312 48.4844 33.4062 48.4844
Q26.2656 48.4844 22.1875 42.8438
Q18.1094 37.2031 18.1094 27.2969
Q18.1094 17.3906 22.1875 11.75
Q26.2656 6.10938 33.4062 6.10938
Q40.5312 6.10938 44.6094 11.75
Q48.6875 17.3906 48.6875 27.2969" id="DejaVuSans-70"/>
      </defs>
      <g transform="translate(170.316513158 254.299875)rotate(-90.0)scale(0.12 -0.12)">
       <use xlink:href="#DejaVuSans-41"/>
       <use x="68.408203125" xlink:href="#DejaVuSans-70"/>
       <use x="131.884765625" xlink:href="#DejaVuSans-72"/>
       <use x="172.998046875" xlink:href="#DejaVuSans-20"/>
       <use x="204.78515625" xlink:href="#DejaVuSans-32"/>
       <use x="268.408203125" xlink:href="#DejaVuSans-30"/>
       <use x="332.03125" xlink:href="#DejaVuSans-31"/>
       <use x="395.654296875" xlink:href="#DejaVuSans-36"/>
      </g>
     </g>
    </g>
    <g id="xtick_6">
     <g id="line2d_20">
      <g>
       <use style="stroke:#000000;stroke-width:0.5;" x="196.37368421" xlink:href="#m93b0483c22" y="195.94175"/>
      </g>
     </g>
     <g id="line2d_21">
      <g>
       <use style="stroke:#000000;stroke-width:0.5;" x="196.37368421" xlink:href="#m741efc42ff" y="23.14175"/>
      </g>
     </g>
     <g id="text_6">
      <!-- May 2016 -->
      <defs>
       <path d="
M32.1719 -5.07812
Q28.375 -14.8438 24.75 -17.8125
Q21.1406 -20.7969 15.0938 -20.7969
L7.90625 -20.7969
L7.90625 -13.2812
L13.1875 -13.2812
Q16.8906 -13.2812 18.9375 -11.5156
Q21 -9.76562 23.4844 -3.21875
L25.0938 0.875
L2.98438 54.6875
L12.5 54.6875
L29.5938 11.9219
L46.6875 54.6875
L56.2031 54.6875
z
" id="DejaVuSans-79"/>
      </defs>
      <g transform="translate(199.68493421 258.349875)rotate(-90.0)scale(0.12 -0.12)">
       <use xlink:href="#DejaVuSans-4d"/>
       <use x="86.279296875" xlink:href="#DejaVuSans-61"/>
       <use x="147.55859375" xlink:href="#DejaVuSans-79"/>
       <use x="206.73828125" xlink:href="#DejaVuSans-20"/>
       <use x="238.525390625" xlink:href="#DejaVuSans-32"/>
       <use x="302.1484375" xlink:href="#DejaVuSans-30"/>
       <use x="365.771484375" xlink:href="#DejaVuSans-31"/>
       <use x="429.39453125" xlink:href="#DejaVuSans-36"/>
      </g>
     </g>
    </g>
    <g id="xtick_7">
     <g id="line2d_22">
      <g>
       <use style="stroke:#000000;stroke-width:0.5;" x="226.721052632" xlink:href="#m93b0483c22" y="195.94175"/>
      </g>
     </g>
     <g id="line2d_23">
      <g>
       <use style="stroke:#000000;stroke-width:0.5;" x="226.721052632" xlink:href="#m741efc42ff" y="23.14175"/>
      </g>
     </g>
     <g id="text_7">
      <!-- Jun 2016 -->
      <defs>
       <path d="
M8.5 21.5781
L8.5 54.6875
L17.4844 54.6875
L17.4844 21.9219
Q17.4844 14.1562 20.5 10.2656
Q23.5312 6.39062 29.5938 6.39062
Q36.8594 6.39062 41.0781 11.0312
Q45.3125 15.6719 45.3125 23.6875
L45.3125 54.6875
L54.2969 54.6875
L54.2969 0
L45.3125 0
L45.3125 8.40625
Q42.0469 3.42188 37.7188 1
Q33.4062 -1.42188 27.6875 -1.42188
Q18.2656 -1.42188 13.375 4.4375
Q8.5 10.2969 8.5 21.5781
M31.1094 56
z
" id="DejaVuSans-75"/>
      </defs>
      <g transform="translate(230.032302632 252.9105)rotate(-90.0)scale(0.12 -0.12)">
       <use xlink:href="#DejaVuSans-4a"/>
       <use x="29.4921875" xlink:href="#DejaVuSans-75"/>
       <use x="92.87109375" xlink:href="#DejaVuSans-6e"/>
       <use x="156.25" xlink:href="#DejaVuSans-20"/>
       <use x="188.037109375" xlink:href="#DejaVuSans-32"/>
       <use x="251.66015625" xlink:href="#DejaVuSans-30"/>
       <use x="315.283203125" xlink:href="#DejaVuSans-31"/>
       <use x="378.90625" xlink:href="#DejaVuSans-36"/>
      </g>
     </g>
    </g>
    <g id="xtick_8">
     <g id="line2d_24">
      <g>
       <use style="stroke:#000000;stroke-width:0.5;" x="256.089473684" xlink:href="#m93b0483c22" y="195.94175"/>
      </g>
     </g>
     <g id="line2d_25">
      <g>
       <use style="stroke:#000000;stroke-width:0.5;" x="256.089473684" xlink:href="#m741efc42ff" y="23.14175"/>
      </g>
     </g>
     <g id="text_8">
      <!-- Jul 2016 -->
      <defs>
       <path d="
M9.42188 75.9844
L18.4062 75.9844
L18.4062 0
L9.42188 0
z
" id="DejaVuSans-6c"/>
      </defs>
      <g transform="translate(259.400723684 248.63925)rotate(-90.0)scale(0.12 -0.12)">
       <use xlink:href="#DejaVuSans-4a"/>
       <use x="29.4921875" xlink:href="#DejaVuSans-75"/>
       <use x="92.87109375" xlink:href="#DejaVuSans-6c"/>
       <use x="120.654296875" xlink:href="#DejaVuSans-20"/>
       <use x="152.44140625" xlink:href="#DejaVuSans-32"/>
       <use x="216.064453125" xlink:href="#DejaVuSans-30"/>
       <use x="279.6875" xlink:href="#DejaVuSans-31"/>
       <use x="343.310546875" xlink:href="#DejaVuSans-36"/>
      </g>
     </g>
    </g>
   </g>
   <g id="matplotlib.axis_2">
    <g id="ytick_1">
     <g id="line2d_26">
      <defs>
       <path d="
M0 0
L4 0" id="m728421d6d4" style="stroke:#000000;stroke-width:0.5;"/>
      </defs>
      <g>
       <use style="stroke:#000000;stroke-width:0.5;" x="41.7" xlink:href="#m728421d6d4" y="195.94175"/>
      </g>
     </g>
     <g id="line2d_27">
      <defs>
       <path d="
M0 0
L-4 0" id="mcb0005524f" style="stroke:#000000;stroke-width:0.5;"/>
      </defs>
      <g>
       <use style="stroke:#000000;stroke-width:0.5;" x="264.9" xlink:href="#mcb0005524f" y="195.94175"/>
      </g>
     </g>
     <g id="text_9">
      <!-- 0 -->
      <g transform="translate(31.653125 199.253)scale(0.12 -0.12)">
       <use xlink:href="#DejaVuSans-30"/>
      </g>
     </g>
    </g>
    <g id="ytick_2">
     <g id="line2d_28">
      <g>
       <use style="stroke:#000000;stroke-width:0.5;" x="41.7" xlink:href="#m728421d6d4" y="171.256035714"/>
      </g>
     </g>
     <g id="line2d_29">
      <g>
       <use style="stroke:#000000;stroke-width:0.5;" x="264.9" xlink:href="#mcb0005524f" y="171.256035714"/>
      </g>
     </g>
     <g id="text_10">
      <!-- 10 -->
      <g transform="translate(24.545 174.567285714)scale(0.12 -0.12)">
       <use xlink:href="#DejaVuSans-31"/>
       <use x="63.623046875" xlink:href="#DejaVuSans-30"/>
      </g>
     </g>
    </g>
    <g id="ytick_3">
     <g id="line2d_30">
      <g>
       <use style="stroke:#000000;stroke-width:0.5;" x="41.7" xlink:href="#m728421d6d4" y="146.570321429"/>
      </g>
     </g>
     <g id="line2d_31">
      <g>
       <use style="stroke:#000000;stroke-width:0.5;" x="264.9" xlink:href="#mcb0005524f" y="146.570321429"/>
      </g>
     </g>
     <g id="text_11">
      <!-- 20 -->
      <g transform="translate(24.10625 149.881571429)scale(0.12 -0.12)">
       <use xlink:href="#DejaVuSans-32"/>
       <use x="63.623046875" xlink:href="#DejaVuSans-30"/>
      </g>
     </g>
    </g>
    <g id="ytick_4">
     <g id="line2d_32">
      <g>
       <use style="stroke:#000000;stroke-width:0.5;" x="41.7" xlink:href="#m728421d6d4" y="121.884607143"/>
      </g>
     </g>
     <g id="line2d_33">
      <g>
       <use style="stroke:#000000;stroke-width:0.5;" x="264.9" xlink:href="#mcb0005524f" y="121.884607143"/>
      </g>
     </g>
     <g id="text_12">
      <!-- 30 -->
      <defs>
       <path d="
M40.5781 39.3125
Q47.6562 37.7969 51.625 33
Q55.6094 28.2188 55.6094 21.1875
Q55.6094 10.4062 48.1875 4.48438
Q40.7656 -1.42188 27.0938 -1.42188
Q22.5156 -1.42188 17.6562 -0.515625
Q12.7969 0.390625 7.625 2.20312
L7.625 11.7188
Q11.7188 9.32812 16.5938 8.10938
Q21.4844 6.89062 26.8125 6.89062
Q36.0781 6.89062 40.9375 10.5469
Q45.7969 14.2031 45.7969 21.1875
Q45.7969 27.6406 41.2812 31.2656
Q36.7656 34.9062 28.7188 34.9062
L20.2188 34.9062
L20.2188 43.0156
L29.1094 43.0156
Q36.375 43.0156 40.2344 45.9219
Q44.0938 48.8281 44.0938 54.2969
Q44.0938 59.9062 40.1094 62.9062
Q36.1406 65.9219 28.7188 65.9219
Q24.6562 65.9219 20.0156 65.0312
Q15.375 64.1562 9.8125 62.3125
L9.8125 71.0938
Q15.4375 72.6562 20.3438 73.4375
Q25.25 74.2188 29.5938 74.2188
Q40.8281 74.2188 47.3594 69.1094
Q53.9062 64.0156 53.9062 55.3281
Q53.9062 49.2656 50.4375 45.0938
Q46.9688 40.9219 40.5781 39.3125" id="DejaVuSans-33"/>
      </defs>
      <g transform="translate(24.141875 125.195857143)scale(0.12 -0.12)">
       <use xlink:href="#DejaVuSans-33"/>
       <use x="63.623046875" xlink:href="#DejaVuSans-30"/>
      </g>
     </g>
    </g>
    <g id="ytick_5">
     <g id="line2d_34">
      <g>
       <use style="stroke:#000000;stroke-width:0.5;" x="41.7" xlink:href="#m728421d6d4" y="97.1988928571"/>
      </g>
     </g>
     <g id="line2d_35">
      <g>
       <use style="stroke:#000000;stroke-width:0.5;" x="264.9" xlink:href="#mcb0005524f" y="97.1988928571"/>
      </g>
     </g>
     <g id="text_13">
      <!-- 40 -->
      <defs>
       <path d="
M37.7969 64.3125
L12.8906 25.3906
L37.7969 25.3906
z

M35.2031 72.9062
L47.6094 72.9062
L47.6094 25.3906
L58.0156 25.3906
L58.0156 17.1875
L47.6094 17.1875
L47.6094 0
L37.7969 0
L37.7969 17.1875
L4.89062 17.1875
L4.89062 26.7031
z
" id="DejaVuSans-34"/>
      </defs>
      <g transform="translate(23.81375 100.510142857)scale(0.12 -0.12)">
       <use xlink:href="#DejaVuSans-34"/>
       <use x="63.623046875" xlink:href="#DejaVuSans-30"/>
      </g>
     </g>
    </g>
    <g id="ytick_6">
     <g id="line2d_36">
      <g>
       <use style="stroke:#000000;stroke-width:0.5;" x="41.7" xlink:href="#m728421d6d4" y="72.5131785714"/>
      </g>
     </g>
     <g id="line2d_37">
      <g>
       <use style="stroke:#000000;stroke-width:0.5;" x="264.9" xlink:href="#mcb0005524f" y="72.5131785714"/>
      </g>
     </g>
     <g id="text_14">
      <!-- 50 -->
      <g transform="translate(24.153125 75.8244285714)scale(0.12 -0.12)">
       <use xlink:href="#DejaVuSans-35"/>
       <use x="63.623046875" xlink:href="#DejaVuSans-30"/>
      </g>
     </g>
    </g>
    <g id="ytick_7">
     <g id="line2d_38">
      <g>
       <use style="stroke:#000000;stroke-width:0.5;" x="41.7" xlink:href="#m728421d6d4" y="47.8274642857"/>
      </g>
     </g>
     <g id="line2d_39">
      <g>
       <use style="stroke:#000000;stroke-width:0.5;" x="264.9" xlink:href="#mcb0005524f" y="47.8274642857"/>
      </g>
     </g>
     <g id="text_15">
      <!-- 60 -->
      <g transform="translate(24.065 51.1387142857)scale(0.12 -0.12)">
       <use xlink:href="#DejaVuSans-36"/>
       <use x="63.623046875" xlink:href="#DejaVuSans-30"/>
      </g>
     </g>
    </g>
    <g id="ytick_8">
     <g id="line2d_40">
      <g>
       <use style="stroke:#000000;stroke-width:0.5;" x="41.7" xlink:href="#m728421d6d4" y="23.14175"/>
      </g>
     </g>
     <g id="line2d_41">
      <g>
       <use style="stroke:#000000;stroke-width:0.5;" x="264.9" xlink:href="#mcb0005524f" y="23.14175"/>
      </g>
     </g>
     <g id="text_16">
      <!-- 70 -->
      <defs>
       <path d="
M8.20312 72.9062
L55.0781 72.9062
L55.0781 68.7031
L28.6094 0
L18.3125 0
L43.2188 64.5938
L8.20312 64.5938
z
" id="DejaVuSans-37"/>
      </defs>
      <g transform="translate(24.21125 26.453)scale(0.12 -0.12)">
       <use xlink:href="#DejaVuSans-37"/>
       <use x="63.623046875" xlink:href="#DejaVuSans-30"/>
      </g>
     </g>
    </g>
    <g id="text_17">
     <!-- Percentage of Packages -->
     <defs>
      <path d="
M30.6094 48.3906
Q23.3906 48.3906 19.1875 42.75
Q14.9844 37.1094 14.9844 27.2969
Q14.9844 17.4844 19.1562 11.8438
Q23.3438 6.20312 30.6094 6.20312
Q37.7969 6.20312 41.9844 11.8594
Q46.1875 17.5312 46.1875 27.2969
Q46.1875 37.0156 41.9844 42.7031
Q37.7969 48.3906 30.6094 48.3906
M30.6094 56
Q42.3281 56 49.0156 48.375
Q55.7188 40.7656 55.7188 27.2969
Q55.7188 13.875 49.0156 6.21875
Q42.3281 -1.42188 30.6094 -1.42188
Q18.8438 -1.42188 12.1719 6.21875
Q5.51562 13.875 5.51562 27.2969
Q5.51562 40.7656 12.1719 48.375
Q18.8438 56 30.6094 56" id="DejaVuSans-6f"/>
      <path d="
M9.07812 75.9844
L18.1094 75.9844
L18.1094 31.1094
L44.9219 54.6875
L56.3906 54.6875
L27.3906 29.1094
L57.625 0
L45.9062 0
L18.1094 26.7031
L18.1094 0
L9.07812 0
z
" id="DejaVuSans-6b"/>
      <path d="
M45.4062 27.9844
Q45.4062 37.75 41.375 43.1094
Q37.3594 48.4844 30.0781 48.4844
Q22.8594 48.4844 18.8281 43.1094
Q14.7969 37.75 14.7969 27.9844
Q14.7969 18.2656 18.8281 12.8906
Q22.8594 7.51562 30.0781 7.51562
Q37.3594 7.51562 41.375 12.8906
Q45.4062 18.2656 45.4062 27.9844
M54.3906 6.78125
Q54.3906 -7.17188 48.1875 -13.9844
Q42 -20.7969 29.2031 -20.7969
Q24.4688 -20.7969 20.2656 -20.0938
Q16.0625 -19.3906 12.1094 -17.9219
L12.1094 -9.1875
Q16.0625 -11.3281 19.9219 -12.3438
Q23.7812 -13.375 27.7812 -13.375
Q36.625 -13.375 41.0156 -8.76562
Q45.4062 -4.15625 45.4062 5.17188
L45.4062 9.625
Q42.625 4.78125 38.2812 2.39062
Q33.9375 0 27.875 0
Q17.8281 0 11.6719 7.65625
Q5.51562 15.3281 5.51562 27.9844
Q5.51562 40.6719 11.6719 48.3281
Q17.8281 56 27.875 56
Q33.9375 56 38.2812 53.6094
Q42.625 51.2188 45.4062 46.3906
L45.4062 54.6875
L54.3906 54.6875
z
" id="DejaVuSans-67"/>
      <path d="
M37.1094 75.9844
L37.1094 68.5
L28.5156 68.5
Q23.6875 68.5 21.7969 66.5469
Q19.9219 64.5938 19.9219 59.5156
L19.9219 54.6875
L34.7188 54.6875
L34.7188 47.7031
L19.9219 47.7031
L19.9219 0
L10.8906 0
L10.8906 47.7031
L2.29688 47.7031
L2.29688 54.6875
L10.8906 54.6875
L10.8906 58.5
Q10.8906 67.625 15.1406 71.7969
Q19.3906 75.9844 28.6094 75.9844
z
" id="DejaVuSans-66"/>
      <path d="
M18.3125 70.2188
L18.3125 54.6875
L36.8125 54.6875
L36.8125 47.7031
L18.3125 47.7031
L18.3125 18.0156
Q18.3125 11.3281 20.1406 9.42188
Q21.9688 7.51562 27.5938 7.51562
L36.8125 7.51562
L36.8125 0
L27.5938 0
Q17.1875 0 13.2344 3.875
Q9.28125 7.76562 9.28125 18.0156
L9.28125 47.7031
L2.6875 47.7031
L2.6875 54.6875
L9.28125 54.6875
L9.28125 70.2188
z
" id="DejaVuSans-74"/>
      <path d="
M19.6719 64.7969
L19.6719 37.4062
L32.0781 37.4062
Q38.9688 37.4062 42.7188 40.9688
Q46.4844 44.5312 46.4844 51.125
Q46.4844 57.6719 42.7188 61.2344
Q38.9688 64.7969 32.0781 64.7969
z

M9.8125 72.9062
L32.0781 72.9062
Q44.3438 72.9062 50.6094 67.3594
Q56.8906 61.8125 56.8906 51.125
Q56.8906 40.3281 50.6094 34.8125
Q44.3438 29.2969 32.0781 29.2969
L19.6719 29.2969
L19.6719 0
L9.8125 0
z
" id="DejaVuSans-50"/>
      <path d="
M44.2812 53.0781
L44.2812 44.5781
Q40.4844 46.5312 36.375 47.5
Q32.2812 48.4844 27.875 48.4844
Q21.1875 48.4844 17.8438 46.4375
Q14.5 44.3906 14.5 40.2812
Q14.5 37.1562 16.8906 35.375
Q19.2812 33.5938 26.5156 31.9844
L29.5938 31.2969
Q39.1562 29.25 43.1875 25.5156
Q47.2188 21.7812 47.2188 15.0938
Q47.2188 7.46875 41.1875 3.01562
Q35.1562 -1.42188 24.6094 -1.42188
Q20.2188 -1.42188 15.4531 -0.5625
Q10.6875 0.296875 5.42188 2
L5.42188 11.2812
Q10.4062 8.6875 15.2344 7.39062
Q20.0625 6.10938 24.8125 6.10938
Q31.1562 6.10938 34.5625 8.28125
Q37.9844 10.4531 37.9844 14.4062
Q37.9844 18.0625 35.5156 20.0156
Q33.0625 21.9688 24.7031 23.7812
L21.5781 24.5156
Q13.2344 26.2656 9.51562 29.9062
Q5.8125 33.5469 5.8125 39.8906
Q5.8125 47.6094 11.2812 51.7969
Q16.75 56 26.8125 56
Q31.7812 56 36.1719 55.2656
Q40.5781 54.5469 44.2812 53.0781" id="DejaVuSans-73"/>
     </defs>
     <g transform="translate(16.318125 180.5901875)rotate(-90.0)scale(0.12 -0.12)">
      <use xlink:href="#DejaVuSans-50"/>
      <use x="56.677734375" xlink:href="#DejaVuSans-65"/>
      <use x="118.201171875" xlink:href="#DejaVuSans-72"/>
      <use x="157.064453125" xlink:href="#DejaVuSans-63"/>
      <use x="212.044921875" xlink:href="#DejaVuSans-65"/>
      <use x="273.568359375" xlink:href="#DejaVuSans-6e"/>
      <use x="336.947265625" xlink:href="#DejaVuSans-74"/>
      <use x="376.15625" xlink:href="#DejaVuSans-61"/>
      <use x="437.435546875" xlink:href="#DejaVuSans-67"/>
      <use x="500.912109375" xlink:href="#DejaVuSans-65"/>
      <use x="562.435546875" xlink:href="#DejaVuSans-20"/>
      <use x="594.22265625" xlink:href="#DejaVuSans-6f"/>
      <use x="655.404296875" xlink:href="#DejaVuSans-66"/>
      <use x="690.609375" xlink:href="#DejaVuSans-20"/>
      <use x="722.396484375" xlink:href="#DejaVuSans-50"/>
      <use x="778.19921875" xlink:href="#DejaVuSans-61"/>
      <use x="839.478515625" xlink:href="#DejaVuSans-63"/>
      <use x="894.458984375" xlink:href="#DejaVuSans-6b"/>
      <use x="950.619140625" xlink:href="#DejaVuSans-61"/>
      <use x="1011.8984375" xlink:href="#DejaVuSans-67"/>
      <use x="1075.375" xlink:href="#DejaVuSans-65"/>
      <use x="1136.8984375" xlink:href="#DejaVuSans-73"/>
     </g>
    </g>
   </g>
   <g id="patch_3">
    <path d="
M41.7 23.1417
L264.9 23.1417" style="fill:none;stroke:#000000;"/>
   </g>
   <g id="patch_4">
    <path d="
M264.9 195.942
L264.9 23.1417" style="fill:none;stroke:#000000;"/>
   </g>
   <g id="patch_5">
    <path d="
M41.7 195.942
L264.9 195.942" style="fill:none;stroke:#000000;"/>
   </g>
   <g id="patch_6">
    <path d="
M41.7 195.942
L41.7 23.1417" style="fill:none;stroke:#000000;"/>
   </g>
   <g id="text_18">
    <!-- Julia v0.5 (relative) -->
    <defs>
     <path d="
M8.01562 75.875
L15.8281 75.875
Q23.1406 64.3594 26.7812 53.3125
Q30.4219 42.2812 30.4219 31.3906
Q30.4219 20.4531 26.7812 9.375
Q23.1406 -1.70312 15.8281 -13.1875
L8.01562 -13.1875
Q14.5 -2 17.7031 9.0625
Q20.9062 20.125 20.9062 31.3906
Q20.9062 42.6719 17.7031 53.6562
Q14.5 64.6562 8.01562 75.875" id="DejaVuSans-29"/>
     <path d="
M10.6875 12.4062
L21 12.4062
L21 0
L10.6875 0
z
" id="DejaVuSans-2e"/>
     <path d="
M2.98438 54.6875
L12.5 54.6875
L29.5938 8.79688
L46.6875 54.6875
L56.2031 54.6875
L35.6875 0
L23.4844 0
z
" id="DejaVuSans-76"/>
     <path d="
M31 75.875
Q24.4688 64.6562 21.2812 53.6562
Q18.1094 42.6719 18.1094 31.3906
Q18.1094 20.125 21.3125 9.0625
Q24.5156 -2 31 -13.1875
L23.1875 -13.1875
Q15.875 -1.70312 12.2344 9.375
Q8.59375 20.4531 8.59375 31.3906
Q8.59375 42.2812 12.2031 53.3125
Q15.8281 64.3594 23.1875 75.875
z
" id="DejaVuSans-28"/>
     <path d="
M9.42188 54.6875
L18.4062 54.6875
L18.4062 0
L9.42188 0
z

M9.42188 75.9844
L18.4062 75.9844
L18.4062 64.5938
L9.42188 64.5938
z
" id="DejaVuSans-69"/>
    </defs>
    <g transform="translate(85.384875 18.14175)scale(0.144 -0.144)">
     <use xlink:href="#DejaVuSans-4a"/>
     <use x="29.4921875" xlink:href="#DejaVuSans-75"/>
     <use x="92.87109375" xlink:href="#DejaVuSans-6c"/>
     <use x="120.654296875" xlink:href="#DejaVuSans-69"/>
     <use x="148.4375" xlink:href="#DejaVuSans-61"/>
     <use x="209.716796875" xlink:href="#DejaVuSans-20"/>
     <use x="241.50390625" xlink:href="#DejaVuSans-76"/>
     <use x="300.68359375" xlink:href="#DejaVuSans-30"/>
     <use x="364.306640625" xlink:href="#DejaVuSans-2e"/>
     <use x="396.09375" xlink:href="#DejaVuSans-35"/>
     <use x="459.716796875" xlink:href="#DejaVuSans-20"/>
     <use x="491.50390625" xlink:href="#DejaVuSans-28"/>
     <use x="530.517578125" xlink:href="#DejaVuSans-72"/>
     <use x="569.380859375" xlink:href="#DejaVuSans-65"/>
     <use x="630.904296875" xlink:href="#DejaVuSans-6c"/>
     <use x="658.6875" xlink:href="#DejaVuSans-61"/>
     <use x="719.966796875" xlink:href="#DejaVuSans-74"/>
     <use x="759.17578125" xlink:href="#DejaVuSans-69"/>
     <use x="786.958984375" xlink:href="#DejaVuSans-76"/>
     <use x="846.138671875" xlink:href="#DejaVuSans-65"/>
     <use x="907.662109375" xlink:href="#DejaVuSans-29"/>
    </g>
   </g>
  </g>
 </g>
 <defs>
  <clipPath id="p26c33cc5a4">
   <rect height="172.8" width="223.2" x="41.7" y="23.14175"/>
  </clipPath>
 </defs>
</svg>
