<?xml version="1.0" encoding="utf-8" standalone="no"?>
<!DOCTYPE svg PUBLIC "-//W3C//DTD SVG 1.1//EN"
  "http://www.w3.org/Graphics/SVG/1.1/DTD/svg11.dtd">
<!-- Created with matplotlib (http://matplotlib.org/) -->
<svg height="282pt" version="1.1" viewBox="0 0 279 282" width="279pt" xmlns="http://www.w3.org/2000/svg" xmlns:xlink="http://www.w3.org/1999/xlink">
 <defs>
  <style type="text/css">
*{stroke-linecap:butt;stroke-linejoin:round;}
  </style>
 </defs>
 <g id="figure_1">
  <g id="patch_1">
   <path d="
M0 282.444
L279.735 282.444
L279.735 5.68434e-14
L0 5.68434e-14
z
" style="fill:#ffffff;"/>
  </g>
  <g id="axes_1">
   <g id="patch_2">
    <path d="
M49.335 195.942
L272.535 195.942
L272.535 23.1418
L49.335 23.1418
z
" style="fill:#ffffff;"/>
   </g>
   <g id="line2d_1"/>
   <g id="line2d_2"/>
   <g id="line2d_3"/>
   <g id="line2d_4"/>
   <g id="line2d_5"/>
   <g id="line2d_6">
    <path clip-path="url(#pa554cd70c2)" d="
M272.535 54.2457
L267.091 51.6538
L261.647 53.1658
L256.203 54.6778
L250.759 55.7577
L245.315 123.366
L239.872 55.5418
L234.428 58.7817
L228.984 66.9897
L201.764 104.79
L196.32 90.1017
L190.876 89.4537
L185.433 98.7417
L179.989 99.6058
L174.545 58.9977
L163.657 60.5097
L158.213 59.4297
L152.769 60.7258
L147.325 62.6697
L141.881 61.5898
L136.437 62.0217
L130.994 63.9657
L125.55 64.8297
L114.662 65.2618
L109.218 65.2618
L103.774 65.9098
L98.3301 66.1258
L92.8862 68.7177
L87.4423 67.6378
L81.9984 66.9897
L76.5545 67.6378
L71.1106 68.2857
L65.6667 68.7177
L60.2228 70.2297
L54.7789 70.4458
L49.335 72.1737" style="fill:none;stroke:#008000;stroke-linecap:square;"/>
    <defs>
     <path d="
M0 1.5
C0.397805 1.5 0.77937 1.34195 1.06066 1.06066
C1.34195 0.77937 1.5 0.397805 1.5 0
C1.5 -0.397805 1.34195 -0.77937 1.06066 -1.06066
C0.77937 -1.34195 0.397805 -1.5 0 -1.5
C-0.397805 -1.5 -0.77937 -1.34195 -1.06066 -1.06066
C-1.34195 -0.77937 -1.5 -0.397805 -1.5 0
C-1.5 0.397805 -1.34195 0.77937 -1.06066 1.06066
C-0.77937 1.34195 -0.397805 1.5 0 1.5
z
" id="mb0b177905e" style="stroke:#008000;stroke-width:0.5;"/>
    </defs>
    <g clip-path="url(#pa554cd70c2)">
     <use style="fill:#008000;stroke:#008000;stroke-width:0.5;" x="272.535" xlink:href="#mb0b177905e" y="54.24575"/>
     <use style="fill:#008000;stroke:#008000;stroke-width:0.5;" x="267.091097561" xlink:href="#mb0b177905e" y="51.65375"/>
     <use style="fill:#008000;stroke:#008000;stroke-width:0.5;" x="261.647195122" xlink:href="#mb0b177905e" y="53.16575"/>
     <use style="fill:#008000;stroke:#008000;stroke-width:0.5;" x="256.203292683" xlink:href="#mb0b177905e" y="54.67775"/>
     <use style="fill:#008000;stroke:#008000;stroke-width:0.5;" x="250.759390244" xlink:href="#mb0b177905e" y="55.75775"/>
     <use style="fill:#008000;stroke:#008000;stroke-width:0.5;" x="245.315487805" xlink:href="#mb0b177905e" y="123.36575"/>
     <use style="fill:#008000;stroke:#008000;stroke-width:0.5;" x="239.871585366" xlink:href="#mb0b177905e" y="55.54175"/>
     <use style="fill:#008000;stroke:#008000;stroke-width:0.5;" x="234.427682927" xlink:href="#mb0b177905e" y="58.78175"/>
     <use style="fill:#008000;stroke:#008000;stroke-width:0.5;" x="228.983780488" xlink:href="#mb0b177905e" y="66.98975"/>
     <use style="fill:#008000;stroke:#008000;stroke-width:0.5;" x="201.764268293" xlink:href="#mb0b177905e" y="104.78975"/>
     <use style="fill:#008000;stroke:#008000;stroke-width:0.5;" x="196.320365854" xlink:href="#mb0b177905e" y="90.10175"/>
     <use style="fill:#008000;stroke:#008000;stroke-width:0.5;" x="190.876463415" xlink:href="#mb0b177905e" y="89.45375"/>
     <use style="fill:#008000;stroke:#008000;stroke-width:0.5;" x="185.432560976" xlink:href="#mb0b177905e" y="98.74175"/>
     <use style="fill:#008000;stroke:#008000;stroke-width:0.5;" x="179.988658537" xlink:href="#mb0b177905e" y="99.60575"/>
     <use style="fill:#008000;stroke:#008000;stroke-width:0.5;" x="174.544756098" xlink:href="#mb0b177905e" y="58.99775"/>
     <use style="fill:#008000;stroke:#008000;stroke-width:0.5;" x="163.65695122" xlink:href="#mb0b177905e" y="60.50975"/>
     <use style="fill:#008000;stroke:#008000;stroke-width:0.5;" x="158.213048781" xlink:href="#mb0b177905e" y="59.42975"/>
     <use style="fill:#008000;stroke:#008000;stroke-width:0.5;" x="152.769146342" xlink:href="#mb0b177905e" y="60.72575"/>
     <use style="fill:#008000;stroke:#008000;stroke-width:0.5;" x="147.325243903" xlink:href="#mb0b177905e" y="62.66975"/>
     <use style="fill:#008000;stroke:#008000;stroke-width:0.5;" x="141.881341464" xlink:href="#mb0b177905e" y="61.58975"/>
     <use style="fill:#008000;stroke:#008000;stroke-width:0.5;" x="136.437439024" xlink:href="#mb0b177905e" y="62.02175"/>
     <use style="fill:#008000;stroke:#008000;stroke-width:0.5;" x="130.993536585" xlink:href="#mb0b177905e" y="63.96575"/>
     <use style="fill:#008000;stroke:#008000;stroke-width:0.5;" x="125.549634147" xlink:href="#mb0b177905e" y="64.82975"/>
     <use style="fill:#008000;stroke:#008000;stroke-width:0.5;" x="114.661829269" xlink:href="#mb0b177905e" y="65.26175"/>
     <use style="fill:#008000;stroke:#008000;stroke-width:0.5;" x="109.21792683" xlink:href="#mb0b177905e" y="65.26175"/>
     <use style="fill:#008000;stroke:#008000;stroke-width:0.5;" x="103.774024391" xlink:href="#mb0b177905e" y="65.90975"/>
     <use style="fill:#008000;stroke:#008000;stroke-width:0.5;" x="98.3301219516" xlink:href="#mb0b177905e" y="66.12575"/>
     <use style="fill:#008000;stroke:#008000;stroke-width:0.5;" x="92.8862195127" xlink:href="#mb0b177905e" y="68.71775"/>
     <use style="fill:#008000;stroke:#008000;stroke-width:0.5;" x="87.4423170732" xlink:href="#mb0b177905e" y="67.63775"/>
     <use style="fill:#008000;stroke:#008000;stroke-width:0.5;" x="81.9984146343" xlink:href="#mb0b177905e" y="66.98975"/>
     <use style="fill:#008000;stroke:#008000;stroke-width:0.5;" x="76.5545121953" xlink:href="#mb0b177905e" y="67.63775"/>
     <use style="fill:#008000;stroke:#008000;stroke-width:0.5;" x="71.1106097563" xlink:href="#mb0b177905e" y="68.28575"/>
     <use style="fill:#008000;stroke:#008000;stroke-width:0.5;" x="65.6667073173" xlink:href="#mb0b177905e" y="68.71775"/>
     <use style="fill:#008000;stroke:#008000;stroke-width:0.5;" x="60.2228048784" xlink:href="#mb0b177905e" y="70.22975"/>
     <use style="fill:#008000;stroke:#008000;stroke-width:0.5;" x="54.7789024394" xlink:href="#mb0b177905e" y="70.44575"/>
     <use style="fill:#008000;stroke:#008000;stroke-width:0.5;" x="49.3350000004" xlink:href="#mb0b177905e" y="72.17375"/>
    </g>
   </g>
   <g id="line2d_7">
    <path clip-path="url(#pa554cd70c2)" d="
M272.535 119.694
L267.091 122.286
L261.647 121.638
L256.203 121.206
L250.759 120.774
L245.315 156.198
L239.872 120.99
L234.428 117.75
L228.984 111.486
L201.764 141.942
L196.32 131.79
L190.876 132.006
L185.433 122.934
L179.989 122.286
L174.545 122.07
L163.657 120.774
L158.213 121.854
L152.769 120.99
L147.325 119.478
L141.881 120.558
L136.437 120.126
L130.994 119.046
L125.55 118.83
L114.662 118.398
L109.218 118.398
L103.774 118.398
L98.3301 118.398
L92.8862 116.022
L87.4423 117.966
L81.9984 119.046
L76.5545 118.614
L71.1106 118.182
L65.6667 118.182
L60.2228 116.886
L54.7789 117.318
L49.335 116.238" style="fill:none;stroke:#ff0000;stroke-linecap:square;"/>
    <defs>
     <path d="
M0 1.5
C0.397805 1.5 0.77937 1.34195 1.06066 1.06066
C1.34195 0.77937 1.5 0.397805 1.5 0
C1.5 -0.397805 1.34195 -0.77937 1.06066 -1.06066
C0.77937 -1.34195 0.397805 -1.5 0 -1.5
C-0.397805 -1.5 -0.77937 -1.34195 -1.06066 -1.06066
C-1.34195 -0.77937 -1.5 -0.397805 -1.5 0
C-1.5 0.397805 -1.34195 0.77937 -1.06066 1.06066
C-0.77937 1.34195 -0.397805 1.5 0 1.5
z
" id="ma07bdd5909" style="stroke:#ff0000;stroke-width:0.5;"/>
    </defs>
    <g clip-path="url(#pa554cd70c2)">
     <use style="fill:#ff0000;stroke:#ff0000;stroke-width:0.5;" x="272.535" xlink:href="#ma07bdd5909" y="119.69375"/>
     <use style="fill:#ff0000;stroke:#ff0000;stroke-width:0.5;" x="267.091097561" xlink:href="#ma07bdd5909" y="122.28575"/>
     <use style="fill:#ff0000;stroke:#ff0000;stroke-width:0.5;" x="261.647195122" xlink:href="#ma07bdd5909" y="121.63775"/>
     <use style="fill:#ff0000;stroke:#ff0000;stroke-width:0.5;" x="256.203292683" xlink:href="#ma07bdd5909" y="121.20575"/>
     <use style="fill:#ff0000;stroke:#ff0000;stroke-width:0.5;" x="250.759390244" xlink:href="#ma07bdd5909" y="120.77375"/>
     <use style="fill:#ff0000;stroke:#ff0000;stroke-width:0.5;" x="245.315487805" xlink:href="#ma07bdd5909" y="156.19775"/>
     <use style="fill:#ff0000;stroke:#ff0000;stroke-width:0.5;" x="239.871585366" xlink:href="#ma07bdd5909" y="120.98975"/>
     <use style="fill:#ff0000;stroke:#ff0000;stroke-width:0.5;" x="234.427682927" xlink:href="#ma07bdd5909" y="117.74975"/>
     <use style="fill:#ff0000;stroke:#ff0000;stroke-width:0.5;" x="228.983780488" xlink:href="#ma07bdd5909" y="111.48575"/>
     <use style="fill:#ff0000;stroke:#ff0000;stroke-width:0.5;" x="201.764268293" xlink:href="#ma07bdd5909" y="141.94175"/>
     <use style="fill:#ff0000;stroke:#ff0000;stroke-width:0.5;" x="196.320365854" xlink:href="#ma07bdd5909" y="131.78975"/>
     <use style="fill:#ff0000;stroke:#ff0000;stroke-width:0.5;" x="190.876463415" xlink:href="#ma07bdd5909" y="132.00575"/>
     <use style="fill:#ff0000;stroke:#ff0000;stroke-width:0.5;" x="185.432560976" xlink:href="#ma07bdd5909" y="122.93375"/>
     <use style="fill:#ff0000;stroke:#ff0000;stroke-width:0.5;" x="179.988658537" xlink:href="#ma07bdd5909" y="122.28575"/>
     <use style="fill:#ff0000;stroke:#ff0000;stroke-width:0.5;" x="174.544756098" xlink:href="#ma07bdd5909" y="122.06975"/>
     <use style="fill:#ff0000;stroke:#ff0000;stroke-width:0.5;" x="163.65695122" xlink:href="#ma07bdd5909" y="120.77375"/>
     <use style="fill:#ff0000;stroke:#ff0000;stroke-width:0.5;" x="158.213048781" xlink:href="#ma07bdd5909" y="121.85375"/>
     <use style="fill:#ff0000;stroke:#ff0000;stroke-width:0.5;" x="152.769146342" xlink:href="#ma07bdd5909" y="120.98975"/>
     <use style="fill:#ff0000;stroke:#ff0000;stroke-width:0.5;" x="147.325243903" xlink:href="#ma07bdd5909" y="119.47775"/>
     <use style="fill:#ff0000;stroke:#ff0000;stroke-width:0.5;" x="141.881341464" xlink:href="#ma07bdd5909" y="120.55775"/>
     <use style="fill:#ff0000;stroke:#ff0000;stroke-width:0.5;" x="136.437439024" xlink:href="#ma07bdd5909" y="120.12575"/>
     <use style="fill:#ff0000;stroke:#ff0000;stroke-width:0.5;" x="130.993536585" xlink:href="#ma07bdd5909" y="119.04575"/>
     <use style="fill:#ff0000;stroke:#ff0000;stroke-width:0.5;" x="125.549634147" xlink:href="#ma07bdd5909" y="118.82975"/>
     <use style="fill:#ff0000;stroke:#ff0000;stroke-width:0.5;" x="114.661829269" xlink:href="#ma07bdd5909" y="118.39775"/>
     <use style="fill:#ff0000;stroke:#ff0000;stroke-width:0.5;" x="109.21792683" xlink:href="#ma07bdd5909" y="118.39775"/>
     <use style="fill:#ff0000;stroke:#ff0000;stroke-width:0.5;" x="103.774024391" xlink:href="#ma07bdd5909" y="118.39775"/>
     <use style="fill:#ff0000;stroke:#ff0000;stroke-width:0.5;" x="98.3301219516" xlink:href="#ma07bdd5909" y="118.39775"/>
     <use style="fill:#ff0000;stroke:#ff0000;stroke-width:0.5;" x="92.8862195127" xlink:href="#ma07bdd5909" y="116.02175"/>
     <use style="fill:#ff0000;stroke:#ff0000;stroke-width:0.5;" x="87.4423170732" xlink:href="#ma07bdd5909" y="117.96575"/>
     <use style="fill:#ff0000;stroke:#ff0000;stroke-width:0.5;" x="81.9984146343" xlink:href="#ma07bdd5909" y="119.04575"/>
     <use style="fill:#ff0000;stroke:#ff0000;stroke-width:0.5;" x="76.5545121953" xlink:href="#ma07bdd5909" y="118.61375"/>
     <use style="fill:#ff0000;stroke:#ff0000;stroke-width:0.5;" x="71.1106097563" xlink:href="#ma07bdd5909" y="118.18175"/>
     <use style="fill:#ff0000;stroke:#ff0000;stroke-width:0.5;" x="65.6667073173" xlink:href="#ma07bdd5909" y="118.18175"/>
     <use style="fill:#ff0000;stroke:#ff0000;stroke-width:0.5;" x="60.2228048784" xlink:href="#ma07bdd5909" y="116.88575"/>
     <use style="fill:#ff0000;stroke:#ff0000;stroke-width:0.5;" x="54.7789024394" xlink:href="#ma07bdd5909" y="117.31775"/>
     <use style="fill:#ff0000;stroke:#ff0000;stroke-width:0.5;" x="49.3350000004" xlink:href="#ma07bdd5909" y="116.23775"/>
    </g>
   </g>
   <g id="line2d_8">
    <path clip-path="url(#pa554cd70c2)" d="
M272.535 182.766
L267.091 182.766
L261.647 182.766
L256.203 182.766
L250.759 182.766
L245.315 188.814
L239.872 182.766
L234.428 182.766
L228.984 182.766
L201.764 186.654
L196.32 185.142
L190.876 185.142
L185.433 185.142
L179.989 185.142
L174.545 182.766
L163.657 182.766
L158.213 182.766
L152.769 182.766
L147.325 182.766
L141.881 182.766
L136.437 182.766
L130.994 182.766
L125.55 182.766
L114.662 182.766
L109.218 182.766
L103.774 182.766
L98.3301 182.766
L92.8862 182.766
L87.4423 182.766
L81.9984 182.55
L76.5545 182.55
L71.1106 182.55
L65.6667 182.334
L60.2228 182.334
L54.7789 182.334
L49.335 182.334" style="fill:none;stroke:#0000ff;stroke-linecap:square;"/>
    <defs>
     <path d="
M0 1.5
C0.397805 1.5 0.77937 1.34195 1.06066 1.06066
C1.34195 0.77937 1.5 0.397805 1.5 0
C1.5 -0.397805 1.34195 -0.77937 1.06066 -1.06066
C0.77937 -1.34195 0.397805 -1.5 0 -1.5
C-0.397805 -1.5 -0.77937 -1.34195 -1.06066 -1.06066
C-1.34195 -0.77937 -1.5 -0.397805 -1.5 0
C-1.5 0.397805 -1.34195 0.77937 -1.06066 1.06066
C-0.77937 1.34195 -0.397805 1.5 0 1.5
z
" id="m76a7ce5b4a" style="stroke:#0000ff;stroke-width:0.5;"/>
    </defs>
    <g clip-path="url(#pa554cd70c2)">
     <use style="fill:#0000ff;stroke:#0000ff;stroke-width:0.5;" x="272.535" xlink:href="#m76a7ce5b4a" y="182.76575"/>
     <use style="fill:#0000ff;stroke:#0000ff;stroke-width:0.5;" x="267.091097561" xlink:href="#m76a7ce5b4a" y="182.76575"/>
     <use style="fill:#0000ff;stroke:#0000ff;stroke-width:0.5;" x="261.647195122" xlink:href="#m76a7ce5b4a" y="182.76575"/>
     <use style="fill:#0000ff;stroke:#0000ff;stroke-width:0.5;" x="256.203292683" xlink:href="#m76a7ce5b4a" y="182.76575"/>
     <use style="fill:#0000ff;stroke:#0000ff;stroke-width:0.5;" x="250.759390244" xlink:href="#m76a7ce5b4a" y="182.76575"/>
     <use style="fill:#0000ff;stroke:#0000ff;stroke-width:0.5;" x="245.315487805" xlink:href="#m76a7ce5b4a" y="188.81375"/>
     <use style="fill:#0000ff;stroke:#0000ff;stroke-width:0.5;" x="239.871585366" xlink:href="#m76a7ce5b4a" y="182.76575"/>
     <use style="fill:#0000ff;stroke:#0000ff;stroke-width:0.5;" x="234.427682927" xlink:href="#m76a7ce5b4a" y="182.76575"/>
     <use style="fill:#0000ff;stroke:#0000ff;stroke-width:0.5;" x="228.983780488" xlink:href="#m76a7ce5b4a" y="182.76575"/>
     <use style="fill:#0000ff;stroke:#0000ff;stroke-width:0.5;" x="201.764268293" xlink:href="#m76a7ce5b4a" y="186.65375"/>
     <use style="fill:#0000ff;stroke:#0000ff;stroke-width:0.5;" x="196.320365854" xlink:href="#m76a7ce5b4a" y="185.14175"/>
     <use style="fill:#0000ff;stroke:#0000ff;stroke-width:0.5;" x="190.876463415" xlink:href="#m76a7ce5b4a" y="185.14175"/>
     <use style="fill:#0000ff;stroke:#0000ff;stroke-width:0.5;" x="185.432560976" xlink:href="#m76a7ce5b4a" y="185.14175"/>
     <use style="fill:#0000ff;stroke:#0000ff;stroke-width:0.5;" x="179.988658537" xlink:href="#m76a7ce5b4a" y="185.14175"/>
     <use style="fill:#0000ff;stroke:#0000ff;stroke-width:0.5;" x="174.544756098" xlink:href="#m76a7ce5b4a" y="182.76575"/>
     <use style="fill:#0000ff;stroke:#0000ff;stroke-width:0.5;" x="163.65695122" xlink:href="#m76a7ce5b4a" y="182.76575"/>
     <use style="fill:#0000ff;stroke:#0000ff;stroke-width:0.5;" x="158.213048781" xlink:href="#m76a7ce5b4a" y="182.76575"/>
     <use style="fill:#0000ff;stroke:#0000ff;stroke-width:0.5;" x="152.769146342" xlink:href="#m76a7ce5b4a" y="182.76575"/>
     <use style="fill:#0000ff;stroke:#0000ff;stroke-width:0.5;" x="147.325243903" xlink:href="#m76a7ce5b4a" y="182.76575"/>
     <use style="fill:#0000ff;stroke:#0000ff;stroke-width:0.5;" x="141.881341464" xlink:href="#m76a7ce5b4a" y="182.76575"/>
     <use style="fill:#0000ff;stroke:#0000ff;stroke-width:0.5;" x="136.437439024" xlink:href="#m76a7ce5b4a" y="182.76575"/>
     <use style="fill:#0000ff;stroke:#0000ff;stroke-width:0.5;" x="130.993536585" xlink:href="#m76a7ce5b4a" y="182.76575"/>
     <use style="fill:#0000ff;stroke:#0000ff;stroke-width:0.5;" x="125.549634147" xlink:href="#m76a7ce5b4a" y="182.76575"/>
     <use style="fill:#0000ff;stroke:#0000ff;stroke-width:0.5;" x="114.661829269" xlink:href="#m76a7ce5b4a" y="182.76575"/>
     <use style="fill:#0000ff;stroke:#0000ff;stroke-width:0.5;" x="109.21792683" xlink:href="#m76a7ce5b4a" y="182.76575"/>
     <use style="fill:#0000ff;stroke:#0000ff;stroke-width:0.5;" x="103.774024391" xlink:href="#m76a7ce5b4a" y="182.76575"/>
     <use style="fill:#0000ff;stroke:#0000ff;stroke-width:0.5;" x="98.3301219516" xlink:href="#m76a7ce5b4a" y="182.76575"/>
     <use style="fill:#0000ff;stroke:#0000ff;stroke-width:0.5;" x="92.8862195127" xlink:href="#m76a7ce5b4a" y="182.76575"/>
     <use style="fill:#0000ff;stroke:#0000ff;stroke-width:0.5;" x="87.4423170732" xlink:href="#m76a7ce5b4a" y="182.76575"/>
     <use style="fill:#0000ff;stroke:#0000ff;stroke-width:0.5;" x="81.9984146343" xlink:href="#m76a7ce5b4a" y="182.54975"/>
     <use style="fill:#0000ff;stroke:#0000ff;stroke-width:0.5;" x="76.5545121953" xlink:href="#m76a7ce5b4a" y="182.54975"/>
     <use style="fill:#0000ff;stroke:#0000ff;stroke-width:0.5;" x="71.1106097563" xlink:href="#m76a7ce5b4a" y="182.54975"/>
     <use style="fill:#0000ff;stroke:#0000ff;stroke-width:0.5;" x="65.6667073173" xlink:href="#m76a7ce5b4a" y="182.33375"/>
     <use style="fill:#0000ff;stroke:#0000ff;stroke-width:0.5;" x="60.2228048784" xlink:href="#m76a7ce5b4a" y="182.33375"/>
     <use style="fill:#0000ff;stroke:#0000ff;stroke-width:0.5;" x="54.7789024394" xlink:href="#m76a7ce5b4a" y="182.33375"/>
     <use style="fill:#0000ff;stroke:#0000ff;stroke-width:0.5;" x="49.3350000004" xlink:href="#m76a7ce5b4a" y="182.33375"/>
    </g>
   </g>
   <g id="line2d_9">
    <path clip-path="url(#pa554cd70c2)" d="
M272.535 180.39
L267.091 180.39
L261.647 180.39
L256.203 180.39
L250.759 180.39
L245.315 187.734
L239.872 180.39
L234.428 180.39
L228.984 180.39
L201.764 182.982
L196.32 181.902
L190.876 181.902
L185.433 181.902
L179.989 181.902
L174.545 180.39
L163.657 180.39
L158.213 180.39
L152.769 180.39
L147.325 180.39
L141.881 180.39
L136.437 180.39
L130.994 180.39
L125.55 180.39
L114.662 180.39
L109.218 180.39
L103.774 180.39
L98.3301 180.39
L92.8862 180.39
L87.4423 180.39
L81.9984 180.39
L76.5545 180.39
L71.1106 180.39
L65.6667 180.39
L60.2228 180.39
L54.7789 180.39
L49.335 180.39" style="fill:none;stroke:#808080;stroke-linecap:square;"/>
    <defs>
     <path d="
M0 1.5
C0.397805 1.5 0.77937 1.34195 1.06066 1.06066
C1.34195 0.77937 1.5 0.397805 1.5 0
C1.5 -0.397805 1.34195 -0.77937 1.06066 -1.06066
C0.77937 -1.34195 0.397805 -1.5 0 -1.5
C-0.397805 -1.5 -0.77937 -1.34195 -1.06066 -1.06066
C-1.34195 -0.77937 -1.5 -0.397805 -1.5 0
C-1.5 0.397805 -1.34195 0.77937 -1.06066 1.06066
C-0.77937 1.34195 -0.397805 1.5 0 1.5
z
" id="m008e8825d0" style="stroke:#808080;stroke-width:0.5;"/>
    </defs>
    <g clip-path="url(#pa554cd70c2)">
     <use style="fill:#808080;stroke:#808080;stroke-width:0.5;" x="272.535" xlink:href="#m008e8825d0" y="180.38975"/>
     <use style="fill:#808080;stroke:#808080;stroke-width:0.5;" x="267.091097561" xlink:href="#m008e8825d0" y="180.38975"/>
     <use style="fill:#808080;stroke:#808080;stroke-width:0.5;" x="261.647195122" xlink:href="#m008e8825d0" y="180.38975"/>
     <use style="fill:#808080;stroke:#808080;stroke-width:0.5;" x="256.203292683" xlink:href="#m008e8825d0" y="180.38975"/>
     <use style="fill:#808080;stroke:#808080;stroke-width:0.5;" x="250.759390244" xlink:href="#m008e8825d0" y="180.38975"/>
     <use style="fill:#808080;stroke:#808080;stroke-width:0.5;" x="245.315487805" xlink:href="#m008e8825d0" y="187.73375"/>
     <use style="fill:#808080;stroke:#808080;stroke-width:0.5;" x="239.871585366" xlink:href="#m008e8825d0" y="180.38975"/>
     <use style="fill:#808080;stroke:#808080;stroke-width:0.5;" x="234.427682927" xlink:href="#m008e8825d0" y="180.38975"/>
     <use style="fill:#808080;stroke:#808080;stroke-width:0.5;" x="228.983780488" xlink:href="#m008e8825d0" y="180.38975"/>
     <use style="fill:#808080;stroke:#808080;stroke-width:0.5;" x="201.764268293" xlink:href="#m008e8825d0" y="182.98175"/>
     <use style="fill:#808080;stroke:#808080;stroke-width:0.5;" x="196.320365854" xlink:href="#m008e8825d0" y="181.90175"/>
     <use style="fill:#808080;stroke:#808080;stroke-width:0.5;" x="190.876463415" xlink:href="#m008e8825d0" y="181.90175"/>
     <use style="fill:#808080;stroke:#808080;stroke-width:0.5;" x="185.432560976" xlink:href="#m008e8825d0" y="181.90175"/>
     <use style="fill:#808080;stroke:#808080;stroke-width:0.5;" x="179.988658537" xlink:href="#m008e8825d0" y="181.90175"/>
     <use style="fill:#808080;stroke:#808080;stroke-width:0.5;" x="174.544756098" xlink:href="#m008e8825d0" y="180.38975"/>
     <use style="fill:#808080;stroke:#808080;stroke-width:0.5;" x="163.65695122" xlink:href="#m008e8825d0" y="180.38975"/>
     <use style="fill:#808080;stroke:#808080;stroke-width:0.5;" x="158.213048781" xlink:href="#m008e8825d0" y="180.38975"/>
     <use style="fill:#808080;stroke:#808080;stroke-width:0.5;" x="152.769146342" xlink:href="#m008e8825d0" y="180.38975"/>
     <use style="fill:#808080;stroke:#808080;stroke-width:0.5;" x="147.325243903" xlink:href="#m008e8825d0" y="180.38975"/>
     <use style="fill:#808080;stroke:#808080;stroke-width:0.5;" x="141.881341464" xlink:href="#m008e8825d0" y="180.38975"/>
     <use style="fill:#808080;stroke:#808080;stroke-width:0.5;" x="136.437439024" xlink:href="#m008e8825d0" y="180.38975"/>
     <use style="fill:#808080;stroke:#808080;stroke-width:0.5;" x="130.993536585" xlink:href="#m008e8825d0" y="180.38975"/>
     <use style="fill:#808080;stroke:#808080;stroke-width:0.5;" x="125.549634147" xlink:href="#m008e8825d0" y="180.38975"/>
     <use style="fill:#808080;stroke:#808080;stroke-width:0.5;" x="114.661829269" xlink:href="#m008e8825d0" y="180.38975"/>
     <use style="fill:#808080;stroke:#808080;stroke-width:0.5;" x="109.21792683" xlink:href="#m008e8825d0" y="180.38975"/>
     <use style="fill:#808080;stroke:#808080;stroke-width:0.5;" x="103.774024391" xlink:href="#m008e8825d0" y="180.38975"/>
     <use style="fill:#808080;stroke:#808080;stroke-width:0.5;" x="98.3301219516" xlink:href="#m008e8825d0" y="180.38975"/>
     <use style="fill:#808080;stroke:#808080;stroke-width:0.5;" x="92.8862195127" xlink:href="#m008e8825d0" y="180.38975"/>
     <use style="fill:#808080;stroke:#808080;stroke-width:0.5;" x="87.4423170732" xlink:href="#m008e8825d0" y="180.38975"/>
     <use style="fill:#808080;stroke:#808080;stroke-width:0.5;" x="81.9984146343" xlink:href="#m008e8825d0" y="180.38975"/>
     <use style="fill:#808080;stroke:#808080;stroke-width:0.5;" x="76.5545121953" xlink:href="#m008e8825d0" y="180.38975"/>
     <use style="fill:#808080;stroke:#808080;stroke-width:0.5;" x="71.1106097563" xlink:href="#m008e8825d0" y="180.38975"/>
     <use style="fill:#808080;stroke:#808080;stroke-width:0.5;" x="65.6667073173" xlink:href="#m008e8825d0" y="180.38975"/>
     <use style="fill:#808080;stroke:#808080;stroke-width:0.5;" x="60.2228048784" xlink:href="#m008e8825d0" y="180.38975"/>
     <use style="fill:#808080;stroke:#808080;stroke-width:0.5;" x="54.7789024394" xlink:href="#m008e8825d0" y="180.38975"/>
     <use style="fill:#808080;stroke:#808080;stroke-width:0.5;" x="49.3350000004" xlink:href="#m008e8825d0" y="180.38975"/>
    </g>
   </g>
   <g id="matplotlib.axis_1">
    <g id="xtick_1">
     <g id="line2d_10">
      <defs>
       <path d="
M0 0
L0 -4" id="m93b0483c22" style="stroke:#000000;stroke-width:0.5;"/>
      </defs>
      <g>
       <use style="stroke:#000000;stroke-width:0.5;" x="49.3350000004" xlink:href="#m93b0483c22" y="195.94175"/>
      </g>
     </g>
     <g id="line2d_11">
      <defs>
       <path d="
M0 0
L0 4" id="m741efc42ff" style="stroke:#000000;stroke-width:0.5;"/>
      </defs>
      <g>
       <use style="stroke:#000000;stroke-width:0.5;" x="49.3350000004" xlink:href="#m741efc42ff" y="23.14175"/>
      </g>
     </g>
     <g id="text_1">
      <!-- Sep 23 2016 -->
      <defs>
       <path d="
M40.5781 39.3125
Q47.6562 37.7969 51.625 33
Q55.6094 28.2188 55.6094 21.1875
Q55.6094 10.4062 48.1875 4.48438
Q40.7656 -1.42188 27.0938 -1.42188
Q22.5156 -1.42188 17.6562 -0.515625
Q12.7969 0.390625 7.625 2.20312
L7.625 11.7188
Q11.7188 9.32812 16.5938 8.10938
Q21.4844 6.89062 26.8125 6.89062
Q36.0781 6.89062 40.9375 10.5469
Q45.7969 14.2031 45.7969 21.1875
Q45.7969 27.6406 41.2812 31.2656
Q36.7656 34.9062 28.7188 34.9062
L20.2188 34.9062
L20.2188 43.0156
L29.1094 43.0156
Q36.375 43.0156 40.2344 45.9219
Q44.0938 48.8281 44.0938 54.2969
Q44.0938 59.9062 40.1094 62.9062
Q36.1406 65.9219 28.7188 65.9219
Q24.6562 65.9219 20.0156 65.0312
Q15.375 64.1562 9.8125 62.3125
L9.8125 71.0938
Q15.4375 72.6562 20.3438 73.4375
Q25.25 74.2188 29.5938 74.2188
Q40.8281 74.2188 47.3594 69.1094
Q53.9062 64.0156 53.9062 55.3281
Q53.9062 49.2656 50.4375 45.0938
Q46.9688 40.9219 40.5781 39.3125" id="DejaVuSans-33"/>
       <path d="
M12.4062 8.29688
L28.5156 8.29688
L28.5156 63.9219
L10.9844 60.4062
L10.9844 69.3906
L28.4219 72.9062
L38.2812 72.9062
L38.2812 8.29688
L54.3906 8.29688
L54.3906 0
L12.4062 0
z
" id="DejaVuSans-31"/>
       <path d="
M31.7812 66.4062
Q24.1719 66.4062 20.3281 58.9062
Q16.5 51.4219 16.5 36.375
Q16.5 21.3906 20.3281 13.8906
Q24.1719 6.39062 31.7812 6.39062
Q39.4531 6.39062 43.2812 13.8906
Q47.125 21.3906 47.125 36.375
Q47.125 51.4219 43.2812 58.9062
Q39.4531 66.4062 31.7812 66.4062
M31.7812 74.2188
Q44.0469 74.2188 50.5156 64.5156
Q56.9844 54.8281 56.9844 36.375
Q56.9844 17.9688 50.5156 8.26562
Q44.0469 -1.42188 31.7812 -1.42188
Q19.5312 -1.42188 13.0625 8.26562
Q6.59375 17.9688 6.59375 36.375
Q6.59375 54.8281 13.0625 64.5156
Q19.5312 74.2188 31.7812 74.2188" id="DejaVuSans-30"/>
       <path id="DejaVuSans-20"/>
       <path d="
M19.1875 8.29688
L53.6094 8.29688
L53.6094 0
L7.32812 0
L7.32812 8.29688
Q12.9375 14.1094 22.625 23.8906
Q32.3281 33.6875 34.8125 36.5312
Q39.5469 41.8438 41.4219 45.5312
Q43.3125 49.2188 43.3125 52.7812
Q43.3125 58.5938 39.2344 62.25
Q35.1562 65.9219 28.6094 65.9219
Q23.9688 65.9219 18.8125 64.3125
Q13.6719 62.7031 7.8125 59.4219
L7.8125 69.3906
Q13.7656 71.7812 18.9375 73
Q24.125 74.2188 28.4219 74.2188
Q39.75 74.2188 46.4844 68.5469
Q53.2188 62.8906 53.2188 53.4219
Q53.2188 48.9219 51.5312 44.8906
Q49.8594 40.875 45.4062 35.4062
Q44.1875 33.9844 37.6406 27.2188
Q31.1094 20.4531 19.1875 8.29688" id="DejaVuSans-32"/>
       <path d="
M33.0156 40.375
Q26.375 40.375 22.4844 35.8281
Q18.6094 31.2969 18.6094 23.3906
Q18.6094 15.5312 22.4844 10.9531
Q26.375 6.39062 33.0156 6.39062
Q39.6562 6.39062 43.5312 10.9531
Q47.4062 15.5312 47.4062 23.3906
Q47.4062 31.2969 43.5312 35.8281
Q39.6562 40.375 33.0156 40.375
M52.5938 71.2969
L52.5938 62.3125
Q48.875 64.0625 45.0938 64.9844
Q41.3125 65.9219 37.5938 65.9219
Q27.8281 65.9219 22.6719 59.3281
Q17.5312 52.7344 16.7969 39.4062
Q19.6719 43.6562 24.0156 45.9219
Q28.375 48.1875 33.5938 48.1875
Q44.5781 48.1875 50.9531 41.5156
Q57.3281 34.8594 57.3281 23.3906
Q57.3281 12.1562 50.6875 5.35938
Q44.0469 -1.42188 33.0156 -1.42188
Q20.3594 -1.42188 13.6719 8.26562
Q6.98438 17.9688 6.98438 36.375
Q6.98438 53.6562 15.1875 63.9375
Q23.3906 74.2188 37.2031 74.2188
Q40.9219 74.2188 44.7031 73.4844
Q48.4844 72.75 52.5938 71.2969" id="DejaVuSans-36"/>
       <path d="
M53.5156 70.5156
L53.5156 60.8906
Q47.9062 63.5781 42.9219 64.8906
Q37.9375 66.2188 33.2969 66.2188
Q25.25 66.2188 20.875 63.0938
Q16.5 59.9688 16.5 54.2031
Q16.5 49.3594 19.4062 46.8906
Q22.3125 44.4375 30.4219 42.9219
L36.375 41.7031
Q47.4062 39.5938 52.6562 34.2969
Q57.9062 29 57.9062 20.125
Q57.9062 9.51562 50.7969 4.04688
Q43.7031 -1.42188 29.9844 -1.42188
Q24.8125 -1.42188 18.9688 -0.25
Q13.1406 0.921875 6.89062 3.21875
L6.89062 13.375
Q12.8906 10.0156 18.6562 8.29688
Q24.4219 6.59375 29.9844 6.59375
Q38.4219 6.59375 43.0156 9.90625
Q47.6094 13.2344 47.6094 19.3906
Q47.6094 24.75 44.3125 27.7812
Q41.0156 30.8125 33.5 32.3281
L27.4844 33.5
Q16.4531 35.6875 11.5156 40.375
Q6.59375 45.0625 6.59375 53.4219
Q6.59375 63.0938 13.4062 68.6562
Q20.2188 74.2188 32.1719 74.2188
Q37.3125 74.2188 42.625 73.2812
Q47.9531 72.3594 53.5156 70.5156" id="DejaVuSans-53"/>
       <path d="
M56.2031 29.5938
L56.2031 25.2031
L14.8906 25.2031
Q15.4844 15.9219 20.4844 11.0625
Q25.4844 6.20312 34.4219 6.20312
Q39.5938 6.20312 44.4531 7.46875
Q49.3125 8.73438 54.1094 11.2812
L54.1094 2.78125
Q49.2656 0.734375 44.1875 -0.34375
Q39.1094 -1.42188 33.8906 -1.42188
Q20.7969 -1.42188 13.1562 6.1875
Q5.51562 13.8125 5.51562 26.8125
Q5.51562 40.2344 12.7656 48.1094
Q20.0156 56 32.3281 56
Q43.3594 56 49.7812 48.8906
Q56.2031 41.7969 56.2031 29.5938
M47.2188 32.2344
Q47.125 39.5938 43.0938 43.9844
Q39.0625 48.3906 32.4219 48.3906
Q24.9062 48.3906 20.3906 44.1406
Q15.875 39.8906 15.1875 32.1719
z
" id="DejaVuSans-65"/>
       <path d="
M18.1094 8.20312
L18.1094 -20.7969
L9.07812 -20.7969
L9.07812 54.6875
L18.1094 54.6875
L18.1094 46.3906
Q20.9531 51.2656 25.2656 53.625
Q29.5938 56 35.5938 56
Q45.5625 56 51.7812 48.0938
Q58.0156 40.1875 58.0156 27.2969
Q58.0156 14.4062 51.7812 6.48438
Q45.5625 -1.42188 35.5938 -1.42188
Q29.5938 -1.42188 25.2656 0.953125
Q20.9531 3.32812 18.1094 8.20312
M48.6875 27.2969
Q48.6875 37.2031 44.6094 42.8438
Q40.5312 48.4844 33.4062 48.4844
Q26.2656 48.4844 22.1875 42.8438
Q18.1094 37.2031 18.1094 27.2969
Q18.1094 17.3906 22.1875 11.75
Q26.2656 6.10938 33.4062 6.10938
Q40.5312 6.10938 44.6094 11.75
Q48.6875 17.3906 48.6875 27.2969" id="DejaVuSans-70"/>
      </defs>
      <g transform="translate(52.6462500004 275.243625)rotate(-90.0)scale(0.12 -0.12)">
       <use xlink:href="#DejaVuSans-53"/>
       <use x="63.4765625" xlink:href="#DejaVuSans-65"/>
       <use x="125.0" xlink:href="#DejaVuSans-70"/>
       <use x="188.4765625" xlink:href="#DejaVuSans-20"/>
       <use x="220.263671875" xlink:href="#DejaVuSans-32"/>
       <use x="283.88671875" xlink:href="#DejaVuSans-33"/>
       <use x="347.509765625" xlink:href="#DejaVuSans-20"/>
       <use x="379.296875" xlink:href="#DejaVuSans-32"/>
       <use x="442.919921875" xlink:href="#DejaVuSans-30"/>
       <use x="506.54296875" xlink:href="#DejaVuSans-31"/>
       <use x="570.166015625" xlink:href="#DejaVuSans-36"/>
      </g>
     </g>
    </g>
    <g id="xtick_2">
     <g id="line2d_12">
      <g>
       <use style="stroke:#000000;stroke-width:0.5;" x="87.4423170732" xlink:href="#m93b0483c22" y="195.94175"/>
      </g>
     </g>
     <g id="line2d_13">
      <g>
       <use style="stroke:#000000;stroke-width:0.5;" x="87.4423170732" xlink:href="#m741efc42ff" y="23.14175"/>
      </g>
     </g>
     <g id="text_2">
      <!-- Sep 30 2016 -->
      <g transform="translate(90.7535670732 275.243625)rotate(-90.0)scale(0.12 -0.12)">
       <use xlink:href="#DejaVuSans-53"/>
       <use x="63.4765625" xlink:href="#DejaVuSans-65"/>
       <use x="125.0" xlink:href="#DejaVuSans-70"/>
       <use x="188.4765625" xlink:href="#DejaVuSans-20"/>
       <use x="220.263671875" xlink:href="#DejaVuSans-33"/>
       <use x="283.88671875" xlink:href="#DejaVuSans-30"/>
       <use x="347.509765625" xlink:href="#DejaVuSans-20"/>
       <use x="379.296875" xlink:href="#DejaVuSans-32"/>
       <use x="442.919921875" xlink:href="#DejaVuSans-30"/>
       <use x="506.54296875" xlink:href="#DejaVuSans-31"/>
       <use x="570.166015625" xlink:href="#DejaVuSans-36"/>
      </g>
     </g>
    </g>
    <g id="xtick_3">
     <g id="line2d_14">
      <g>
       <use style="stroke:#000000;stroke-width:0.5;" x="125.549634147" xlink:href="#m93b0483c22" y="195.94175"/>
      </g>
     </g>
     <g id="line2d_15">
      <g>
       <use style="stroke:#000000;stroke-width:0.5;" x="125.549634147" xlink:href="#m741efc42ff" y="23.14175"/>
      </g>
     </g>
     <g id="text_3">
      <!-- Oct 07 2016 -->
      <defs>
       <path d="
M18.3125 70.2188
L18.3125 54.6875
L36.8125 54.6875
L36.8125 47.7031
L18.3125 47.7031
L18.3125 18.0156
Q18.3125 11.3281 20.1406 9.42188
Q21.9688 7.51562 27.5938 7.51562
L36.8125 7.51562
L36.8125 0
L27.5938 0
Q17.1875 0 13.2344 3.875
Q9.28125 7.76562 9.28125 18.0156
L9.28125 47.7031
L2.6875 47.7031
L2.6875 54.6875
L9.28125 54.6875
L9.28125 70.2188
z
" id="DejaVuSans-74"/>
       <path d="
M39.4062 66.2188
Q28.6562 66.2188 22.3281 58.2031
Q16.0156 50.2031 16.0156 36.375
Q16.0156 22.6094 22.3281 14.5938
Q28.6562 6.59375 39.4062 6.59375
Q50.1406 6.59375 56.4219 14.5938
Q62.7031 22.6094 62.7031 36.375
Q62.7031 50.2031 56.4219 58.2031
Q50.1406 66.2188 39.4062 66.2188
M39.4062 74.2188
Q54.7344 74.2188 63.9062 63.9375
Q73.0938 53.6562 73.0938 36.375
Q73.0938 19.1406 63.9062 8.85938
Q54.7344 -1.42188 39.4062 -1.42188
Q24.0312 -1.42188 14.8125 8.82812
Q5.60938 19.0938 5.60938 36.375
Q5.60938 53.6562 14.8125 63.9375
Q24.0312 74.2188 39.4062 74.2188" id="DejaVuSans-4f"/>
       <path d="
M48.7812 52.5938
L48.7812 44.1875
Q44.9688 46.2969 41.1406 47.3438
Q37.3125 48.3906 33.4062 48.3906
Q24.6562 48.3906 19.8125 42.8438
Q14.9844 37.3125 14.9844 27.2969
Q14.9844 17.2812 19.8125 11.7344
Q24.6562 6.20312 33.4062 6.20312
Q37.3125 6.20312 41.1406 7.25
Q44.9688 8.29688 48.7812 10.4062
L48.7812 2.09375
Q45.0156 0.34375 40.9844 -0.53125
Q36.9688 -1.42188 32.4219 -1.42188
Q20.0625 -1.42188 12.7812 6.34375
Q5.51562 14.1094 5.51562 27.2969
Q5.51562 40.6719 12.8594 48.3281
Q20.2188 56 33.0156 56
Q37.1562 56 41.1094 55.1406
Q45.0625 54.2969 48.7812 52.5938" id="DejaVuSans-63"/>
       <path d="
M8.20312 72.9062
L55.0781 72.9062
L55.0781 68.7031
L28.6094 0
L18.3125 0
L43.2188 64.5938
L8.20312 64.5938
z
" id="DejaVuSans-37"/>
      </defs>
      <g transform="translate(128.860884147 273.372375)rotate(-90.0)scale(0.12 -0.12)">
       <use xlink:href="#DejaVuSans-4f"/>
       <use x="78.7109375" xlink:href="#DejaVuSans-63"/>
       <use x="133.69140625" xlink:href="#DejaVuSans-74"/>
       <use x="172.900390625" xlink:href="#DejaVuSans-20"/>
       <use x="204.6875" xlink:href="#DejaVuSans-30"/>
       <use x="268.310546875" xlink:href="#DejaVuSans-37"/>
       <use x="331.93359375" xlink:href="#DejaVuSans-20"/>
       <use x="363.720703125" xlink:href="#DejaVuSans-32"/>
       <use x="427.34375" xlink:href="#DejaVuSans-30"/>
       <use x="490.966796875" xlink:href="#DejaVuSans-31"/>
       <use x="554.58984375" xlink:href="#DejaVuSans-36"/>
      </g>
     </g>
    </g>
    <g id="xtick_4">
     <g id="line2d_16">
      <g>
       <use style="stroke:#000000;stroke-width:0.5;" x="163.65695122" xlink:href="#m93b0483c22" y="195.94175"/>
      </g>
     </g>
     <g id="line2d_17">
      <g>
       <use style="stroke:#000000;stroke-width:0.5;" x="163.65695122" xlink:href="#m741efc42ff" y="23.14175"/>
      </g>
     </g>
     <g id="text_4">
      <!-- Oct 14 2016 -->
      <defs>
       <path d="
M37.7969 64.3125
L12.8906 25.3906
L37.7969 25.3906
z

M35.2031 72.9062
L47.6094 72.9062
L47.6094 25.3906
L58.0156 25.3906
L58.0156 17.1875
L47.6094 17.1875
L47.6094 0
L37.7969 0
L37.7969 17.1875
L4.89062 17.1875
L4.89062 26.7031
z
" id="DejaVuSans-34"/>
      </defs>
      <g transform="translate(166.96820122 273.372375)rotate(-90.0)scale(0.12 -0.12)">
       <use xlink:href="#DejaVuSans-4f"/>
       <use x="78.7109375" xlink:href="#DejaVuSans-63"/>
       <use x="133.69140625" xlink:href="#DejaVuSans-74"/>
       <use x="172.900390625" xlink:href="#DejaVuSans-20"/>
       <use x="204.6875" xlink:href="#DejaVuSans-31"/>
       <use x="268.310546875" xlink:href="#DejaVuSans-34"/>
       <use x="331.93359375" xlink:href="#DejaVuSans-20"/>
       <use x="363.720703125" xlink:href="#DejaVuSans-32"/>
       <use x="427.34375" xlink:href="#DejaVuSans-30"/>
       <use x="490.966796875" xlink:href="#DejaVuSans-31"/>
       <use x="554.58984375" xlink:href="#DejaVuSans-36"/>
      </g>
     </g>
    </g>
    <g id="xtick_5">
     <g id="line2d_18">
      <g>
       <use style="stroke:#000000;stroke-width:0.5;" x="201.764268293" xlink:href="#m93b0483c22" y="195.94175"/>
      </g>
     </g>
     <g id="line2d_19">
      <g>
       <use style="stroke:#000000;stroke-width:0.5;" x="201.764268293" xlink:href="#m741efc42ff" y="23.14175"/>
      </g>
     </g>
     <g id="text_5">
      <!-- Oct 21 2016 -->
      <g transform="translate(205.075518293 273.372375)rotate(-90.0)scale(0.12 -0.12)">
       <use xlink:href="#DejaVuSans-4f"/>
       <use x="78.7109375" xlink:href="#DejaVuSans-63"/>
       <use x="133.69140625" xlink:href="#DejaVuSans-74"/>
       <use x="172.900390625" xlink:href="#DejaVuSans-20"/>
       <use x="204.6875" xlink:href="#DejaVuSans-32"/>
       <use x="268.310546875" xlink:href="#DejaVuSans-31"/>
       <use x="331.93359375" xlink:href="#DejaVuSans-20"/>
       <use x="363.720703125" xlink:href="#DejaVuSans-32"/>
       <use x="427.34375" xlink:href="#DejaVuSans-30"/>
       <use x="490.966796875" xlink:href="#DejaVuSans-31"/>
       <use x="554.58984375" xlink:href="#DejaVuSans-36"/>
      </g>
     </g>
    </g>
    <g id="xtick_6">
     <g id="line2d_20">
      <g>
       <use style="stroke:#000000;stroke-width:0.5;" x="239.871585366" xlink:href="#m93b0483c22" y="195.94175"/>
      </g>
     </g>
     <g id="line2d_21">
      <g>
       <use style="stroke:#000000;stroke-width:0.5;" x="239.871585366" xlink:href="#m741efc42ff" y="23.14175"/>
      </g>
     </g>
     <g id="text_6">
      <!-- Oct 28 2016 -->
      <defs>
       <path d="
M31.7812 34.625
Q24.75 34.625 20.7188 30.8594
Q16.7031 27.0938 16.7031 20.5156
Q16.7031 13.9219 20.7188 10.1562
Q24.75 6.39062 31.7812 6.39062
Q38.8125 6.39062 42.8594 10.1719
Q46.9219 13.9688 46.9219 20.5156
Q46.9219 27.0938 42.8906 30.8594
Q38.875 34.625 31.7812 34.625
M21.9219 38.8125
Q15.5781 40.375 12.0312 44.7188
Q8.5 49.0781 8.5 55.3281
Q8.5 64.0625 14.7188 69.1406
Q20.9531 74.2188 31.7812 74.2188
Q42.6719 74.2188 48.875 69.1406
Q55.0781 64.0625 55.0781 55.3281
Q55.0781 49.0781 51.5312 44.7188
Q48 40.375 41.7031 38.8125
Q48.8281 37.1562 52.7969 32.3125
Q56.7812 27.4844 56.7812 20.5156
Q56.7812 9.90625 50.3125 4.23438
Q43.8438 -1.42188 31.7812 -1.42188
Q19.7344 -1.42188 13.25 4.23438
Q6.78125 9.90625 6.78125 20.5156
Q6.78125 27.4844 10.7812 32.3125
Q14.7969 37.1562 21.9219 38.8125
M18.3125 54.3906
Q18.3125 48.7344 21.8438 45.5625
Q25.3906 42.3906 31.7812 42.3906
Q38.1406 42.3906 41.7188 45.5625
Q45.3125 48.7344 45.3125 54.3906
Q45.3125 60.0625 41.7188 63.2344
Q38.1406 66.4062 31.7812 66.4062
Q25.3906 66.4062 21.8438 63.2344
Q18.3125 60.0625 18.3125 54.3906" id="DejaVuSans-38"/>
      </defs>
      <g transform="translate(243.182835366 273.372375)rotate(-90.0)scale(0.12 -0.12)">
       <use xlink:href="#DejaVuSans-4f"/>
       <use x="78.7109375" xlink:href="#DejaVuSans-63"/>
       <use x="133.69140625" xlink:href="#DejaVuSans-74"/>
       <use x="172.900390625" xlink:href="#DejaVuSans-20"/>
       <use x="204.6875" xlink:href="#DejaVuSans-32"/>
       <use x="268.310546875" xlink:href="#DejaVuSans-38"/>
       <use x="331.93359375" xlink:href="#DejaVuSans-20"/>
       <use x="363.720703125" xlink:href="#DejaVuSans-32"/>
       <use x="427.34375" xlink:href="#DejaVuSans-30"/>
       <use x="490.966796875" xlink:href="#DejaVuSans-31"/>
       <use x="554.58984375" xlink:href="#DejaVuSans-36"/>
      </g>
     </g>
    </g>
   </g>
   <g id="matplotlib.axis_2">
    <g id="ytick_1">
     <g id="line2d_22">
      <defs>
       <path d="
M0 0
L4 0" id="m728421d6d4" style="stroke:#000000;stroke-width:0.5;"/>
      </defs>
      <g>
       <use style="stroke:#000000;stroke-width:0.5;" x="49.335" xlink:href="#m728421d6d4" y="195.94175"/>
      </g>
     </g>
     <g id="line2d_23">
      <defs>
       <path d="
M0 0
L-4 0" id="mcb0005524f" style="stroke:#000000;stroke-width:0.5;"/>
      </defs>
      <g>
       <use style="stroke:#000000;stroke-width:0.5;" x="272.535" xlink:href="#mcb0005524f" y="195.94175"/>
      </g>
     </g>
     <g id="text_7">
      <!-- 0 -->
      <g transform="translate(39.288125 199.253)scale(0.12 -0.12)">
       <use xlink:href="#DejaVuSans-30"/>
      </g>
     </g>
    </g>
    <g id="ytick_2">
     <g id="line2d_24">
      <g>
       <use style="stroke:#000000;stroke-width:0.5;" x="49.335" xlink:href="#m728421d6d4" y="174.34175"/>
      </g>
     </g>
     <g id="line2d_25">
      <g>
       <use style="stroke:#000000;stroke-width:0.5;" x="272.535" xlink:href="#mcb0005524f" y="174.34175"/>
      </g>
     </g>
     <g id="text_8">
      <!-- 100 -->
      <g transform="translate(24.545 177.653)scale(0.12 -0.12)">
       <use xlink:href="#DejaVuSans-31"/>
       <use x="63.623046875" xlink:href="#DejaVuSans-30"/>
       <use x="127.24609375" xlink:href="#DejaVuSans-30"/>
      </g>
     </g>
    </g>
    <g id="ytick_3">
     <g id="line2d_26">
      <g>
       <use style="stroke:#000000;stroke-width:0.5;" x="49.335" xlink:href="#m728421d6d4" y="152.74175"/>
      </g>
     </g>
     <g id="line2d_27">
      <g>
       <use style="stroke:#000000;stroke-width:0.5;" x="272.535" xlink:href="#mcb0005524f" y="152.74175"/>
      </g>
     </g>
     <g id="text_9">
      <!-- 200 -->
      <g transform="translate(24.10625 156.053)scale(0.12 -0.12)">
       <use xlink:href="#DejaVuSans-32"/>
       <use x="63.623046875" xlink:href="#DejaVuSans-30"/>
       <use x="127.24609375" xlink:href="#DejaVuSans-30"/>
      </g>
     </g>
    </g>
    <g id="ytick_4">
     <g id="line2d_28">
      <g>
       <use style="stroke:#000000;stroke-width:0.5;" x="49.335" xlink:href="#m728421d6d4" y="131.14175"/>
      </g>
     </g>
     <g id="line2d_29">
      <g>
       <use style="stroke:#000000;stroke-width:0.5;" x="272.535" xlink:href="#mcb0005524f" y="131.14175"/>
      </g>
     </g>
     <g id="text_10">
      <!-- 300 -->
      <g transform="translate(24.141875 134.453)scale(0.12 -0.12)">
       <use xlink:href="#DejaVuSans-33"/>
       <use x="63.623046875" xlink:href="#DejaVuSans-30"/>
       <use x="127.24609375" xlink:href="#DejaVuSans-30"/>
      </g>
     </g>
    </g>
    <g id="ytick_5">
     <g id="line2d_30">
      <g>
       <use style="stroke:#000000;stroke-width:0.5;" x="49.335" xlink:href="#m728421d6d4" y="109.54175"/>
      </g>
     </g>
     <g id="line2d_31">
      <g>
       <use style="stroke:#000000;stroke-width:0.5;" x="272.535" xlink:href="#mcb0005524f" y="109.54175"/>
      </g>
     </g>
     <g id="text_11">
      <!-- 400 -->
      <g transform="translate(23.81375 112.853)scale(0.12 -0.12)">
       <use xlink:href="#DejaVuSans-34"/>
       <use x="63.623046875" xlink:href="#DejaVuSans-30"/>
       <use x="127.24609375" xlink:href="#DejaVuSans-30"/>
      </g>
     </g>
    </g>
    <g id="ytick_6">
     <g id="line2d_32">
      <g>
       <use style="stroke:#000000;stroke-width:0.5;" x="49.335" xlink:href="#m728421d6d4" y="87.94175"/>
      </g>
     </g>
     <g id="line2d_33">
      <g>
       <use style="stroke:#000000;stroke-width:0.5;" x="272.535" xlink:href="#mcb0005524f" y="87.94175"/>
      </g>
     </g>
     <g id="text_12">
      <!-- 500 -->
      <defs>
       <path d="
M10.7969 72.9062
L49.5156 72.9062
L49.5156 64.5938
L19.8281 64.5938
L19.8281 46.7344
Q21.9688 47.4688 24.1094 47.8281
Q26.2656 48.1875 28.4219 48.1875
Q40.625 48.1875 47.75 41.5
Q54.8906 34.8125 54.8906 23.3906
Q54.8906 11.625 47.5625 5.09375
Q40.2344 -1.42188 26.9062 -1.42188
Q22.3125 -1.42188 17.5469 -0.640625
Q12.7969 0.140625 7.71875 1.70312
L7.71875 11.625
Q12.1094 9.23438 16.7969 8.0625
Q21.4844 6.89062 26.7031 6.89062
Q35.1562 6.89062 40.0781 11.3281
Q45.0156 15.7656 45.0156 23.3906
Q45.0156 31 40.0781 35.4375
Q35.1562 39.8906 26.7031 39.8906
Q22.75 39.8906 18.8125 39.0156
Q14.8906 38.1406 10.7969 36.2812
z
" id="DejaVuSans-35"/>
      </defs>
      <g transform="translate(24.153125 91.253)scale(0.12 -0.12)">
       <use xlink:href="#DejaVuSans-35"/>
       <use x="63.623046875" xlink:href="#DejaVuSans-30"/>
       <use x="127.24609375" xlink:href="#DejaVuSans-30"/>
      </g>
     </g>
    </g>
    <g id="ytick_7">
     <g id="line2d_34">
      <g>
       <use style="stroke:#000000;stroke-width:0.5;" x="49.335" xlink:href="#m728421d6d4" y="66.34175"/>
      </g>
     </g>
     <g id="line2d_35">
      <g>
       <use style="stroke:#000000;stroke-width:0.5;" x="272.535" xlink:href="#mcb0005524f" y="66.34175"/>
      </g>
     </g>
     <g id="text_13">
      <!-- 600 -->
      <g transform="translate(24.065 69.653)scale(0.12 -0.12)">
       <use xlink:href="#DejaVuSans-36"/>
       <use x="63.623046875" xlink:href="#DejaVuSans-30"/>
       <use x="127.24609375" xlink:href="#DejaVuSans-30"/>
      </g>
     </g>
    </g>
    <g id="ytick_8">
     <g id="line2d_36">
      <g>
       <use style="stroke:#000000;stroke-width:0.5;" x="49.335" xlink:href="#m728421d6d4" y="44.74175"/>
      </g>
     </g>
     <g id="line2d_37">
      <g>
       <use style="stroke:#000000;stroke-width:0.5;" x="272.535" xlink:href="#mcb0005524f" y="44.74175"/>
      </g>
     </g>
     <g id="text_14">
      <!-- 700 -->
      <g transform="translate(24.21125 48.053)scale(0.12 -0.12)">
       <use xlink:href="#DejaVuSans-37"/>
       <use x="63.623046875" xlink:href="#DejaVuSans-30"/>
       <use x="127.24609375" xlink:href="#DejaVuSans-30"/>
      </g>
     </g>
    </g>
    <g id="ytick_9">
     <g id="line2d_38">
      <g>
       <use style="stroke:#000000;stroke-width:0.5;" x="49.335" xlink:href="#m728421d6d4" y="23.14175"/>
      </g>
     </g>
     <g id="line2d_39">
      <g>
       <use style="stroke:#000000;stroke-width:0.5;" x="272.535" xlink:href="#mcb0005524f" y="23.14175"/>
      </g>
     </g>
     <g id="text_15">
      <!-- 800 -->
      <g transform="translate(24.040625 26.453)scale(0.12 -0.12)">
       <use xlink:href="#DejaVuSans-38"/>
       <use x="63.623046875" xlink:href="#DejaVuSans-30"/>
       <use x="127.24609375" xlink:href="#DejaVuSans-30"/>
      </g>
     </g>
    </g>
    <g id="text_16">
     <!-- Number of Packages -->
     <defs>
      <path d="
M9.8125 72.9062
L23.0938 72.9062
L55.4219 11.9219
L55.4219 72.9062
L64.9844 72.9062
L64.9844 0
L51.7031 0
L19.3906 60.9844
L19.3906 0
L9.8125 0
z
" id="DejaVuSans-4e"/>
      <path d="
M30.6094 48.3906
Q23.3906 48.3906 19.1875 42.75
Q14.9844 37.1094 14.9844 27.2969
Q14.9844 17.4844 19.1562 11.8438
Q23.3438 6.20312 30.6094 6.20312
Q37.7969 6.20312 41.9844 11.8594
Q46.1875 17.5312 46.1875 27.2969
Q46.1875 37.0156 41.9844 42.7031
Q37.7969 48.3906 30.6094 48.3906
M30.6094 56
Q42.3281 56 49.0156 48.375
Q55.7188 40.7656 55.7188 27.2969
Q55.7188 13.875 49.0156 6.21875
Q42.3281 -1.42188 30.6094 -1.42188
Q18.8438 -1.42188 12.1719 6.21875
Q5.51562 13.875 5.51562 27.2969
Q5.51562 40.7656 12.1719 48.375
Q18.8438 56 30.6094 56" id="DejaVuSans-6f"/>
      <path d="
M52 44.1875
Q55.375 50.25 60.0625 53.125
Q64.75 56 71.0938 56
Q79.6406 56 84.2812 50.0156
Q88.9219 44.0469 88.9219 33.0156
L88.9219 0
L79.8906 0
L79.8906 32.7188
Q79.8906 40.5781 77.0938 44.375
Q74.3125 48.1875 68.6094 48.1875
Q61.625 48.1875 57.5625 43.5469
Q53.5156 38.9219 53.5156 30.9062
L53.5156 0
L44.4844 0
L44.4844 32.7188
Q44.4844 40.625 41.7031 44.4062
Q38.9219 48.1875 33.1094 48.1875
Q26.2188 48.1875 22.1562 43.5312
Q18.1094 38.875 18.1094 30.9062
L18.1094 0
L9.07812 0
L9.07812 54.6875
L18.1094 54.6875
L18.1094 46.1875
Q21.1875 51.2188 25.4844 53.6094
Q29.7812 56 35.6875 56
Q41.6562 56 45.8281 52.9688
Q50 49.9531 52 44.1875" id="DejaVuSans-6d"/>
      <path d="
M9.07812 75.9844
L18.1094 75.9844
L18.1094 31.1094
L44.9219 54.6875
L56.3906 54.6875
L27.3906 29.1094
L57.625 0
L45.9062 0
L18.1094 26.7031
L18.1094 0
L9.07812 0
z
" id="DejaVuSans-6b"/>
      <path d="
M34.2812 27.4844
Q23.3906 27.4844 19.1875 25
Q14.9844 22.5156 14.9844 16.5
Q14.9844 11.7188 18.1406 8.90625
Q21.2969 6.10938 26.7031 6.10938
Q34.1875 6.10938 38.7031 11.4062
Q43.2188 16.7031 43.2188 25.4844
L43.2188 27.4844
z

M52.2031 31.2031
L52.2031 0
L43.2188 0
L43.2188 8.29688
Q40.1406 3.32812 35.5469 0.953125
Q30.9531 -1.42188 24.3125 -1.42188
Q15.9219 -1.42188 10.9531 3.29688
Q6 8.01562 6 15.9219
Q6 25.1406 12.1719 29.8281
Q18.3594 34.5156 30.6094 34.5156
L43.2188 34.5156
L43.2188 35.4062
Q43.2188 41.6094 39.1406 45
Q35.0625 48.3906 27.6875 48.3906
Q23 48.3906 18.5469 47.2656
Q14.1094 46.1406 10.0156 43.8906
L10.0156 52.2031
Q14.9375 54.1094 19.5781 55.0469
Q24.2188 56 28.6094 56
Q40.4844 56 46.3438 49.8438
Q52.2031 43.7031 52.2031 31.2031" id="DejaVuSans-61"/>
      <path d="
M37.1094 75.9844
L37.1094 68.5
L28.5156 68.5
Q23.6875 68.5 21.7969 66.5469
Q19.9219 64.5938 19.9219 59.5156
L19.9219 54.6875
L34.7188 54.6875
L34.7188 47.7031
L19.9219 47.7031
L19.9219 0
L10.8906 0
L10.8906 47.7031
L2.29688 47.7031
L2.29688 54.6875
L10.8906 54.6875
L10.8906 58.5
Q10.8906 67.625 15.1406 71.7969
Q19.3906 75.9844 28.6094 75.9844
z
" id="DejaVuSans-66"/>
      <path d="
M8.5 21.5781
L8.5 54.6875
L17.4844 54.6875
L17.4844 21.9219
Q17.4844 14.1562 20.5 10.2656
Q23.5312 6.39062 29.5938 6.39062
Q36.8594 6.39062 41.0781 11.0312
Q45.3125 15.6719 45.3125 23.6875
L45.3125 54.6875
L54.2969 54.6875
L54.2969 0
L45.3125 0
L45.3125 8.40625
Q42.0469 3.42188 37.7188 1
Q33.4062 -1.42188 27.6875 -1.42188
Q18.2656 -1.42188 13.375 4.4375
Q8.5 10.2969 8.5 21.5781
M31.1094 56
z
" id="DejaVuSans-75"/>
      <path d="
M45.4062 27.9844
Q45.4062 37.75 41.375 43.1094
Q37.3594 48.4844 30.0781 48.4844
Q22.8594 48.4844 18.8281 43.1094
Q14.7969 37.75 14.7969 27.9844
Q14.7969 18.2656 18.8281 12.8906
Q22.8594 7.51562 30.0781 7.51562
Q37.3594 7.51562 41.375 12.8906
Q45.4062 18.2656 45.4062 27.9844
M54.3906 6.78125
Q54.3906 -7.17188 48.1875 -13.9844
Q42 -20.7969 29.2031 -20.7969
Q24.4688 -20.7969 20.2656 -20.0938
Q16.0625 -19.3906 12.1094 -17.9219
L12.1094 -9.1875
Q16.0625 -11.3281 19.9219 -12.3438
Q23.7812 -13.375 27.7812 -13.375
Q36.625 -13.375 41.0156 -8.76562
Q45.4062 -4.15625 45.4062 5.17188
L45.4062 9.625
Q42.625 4.78125 38.2812 2.39062
Q33.9375 0 27.875 0
Q17.8281 0 11.6719 7.65625
Q5.51562 15.3281 5.51562 27.9844
Q5.51562 40.6719 11.6719 48.3281
Q17.8281 56 27.875 56
Q33.9375 56 38.2812 53.6094
Q42.625 51.2188 45.4062 46.3906
L45.4062 54.6875
L54.3906 54.6875
z
" id="DejaVuSans-67"/>
      <path d="
M19.6719 64.7969
L19.6719 37.4062
L32.0781 37.4062
Q38.9688 37.4062 42.7188 40.9688
Q46.4844 44.5312 46.4844 51.125
Q46.4844 57.6719 42.7188 61.2344
Q38.9688 64.7969 32.0781 64.7969
z

M9.8125 72.9062
L32.0781 72.9062
Q44.3438 72.9062 50.6094 67.3594
Q56.8906 61.8125 56.8906 51.125
Q56.8906 40.3281 50.6094 34.8125
Q44.3438 29.2969 32.0781 29.2969
L19.6719 29.2969
L19.6719 0
L9.8125 0
z
" id="DejaVuSans-50"/>
      <path d="
M48.6875 27.2969
Q48.6875 37.2031 44.6094 42.8438
Q40.5312 48.4844 33.4062 48.4844
Q26.2656 48.4844 22.1875 42.8438
Q18.1094 37.2031 18.1094 27.2969
Q18.1094 17.3906 22.1875 11.75
Q26.2656 6.10938 33.4062 6.10938
Q40.5312 6.10938 44.6094 11.75
Q48.6875 17.3906 48.6875 27.2969
M18.1094 46.3906
Q20.9531 51.2656 25.2656 53.625
Q29.5938 56 35.5938 56
Q45.5625 56 51.7812 48.0938
Q58.0156 40.1875 58.0156 27.2969
Q58.0156 14.4062 51.7812 6.48438
Q45.5625 -1.42188 35.5938 -1.42188
Q29.5938 -1.42188 25.2656 0.953125
Q20.9531 3.32812 18.1094 8.20312
L18.1094 0
L9.07812 0
L9.07812 75.9844
L18.1094 75.9844
z
" id="DejaVuSans-62"/>
      <path d="
M44.2812 53.0781
L44.2812 44.5781
Q40.4844 46.5312 36.375 47.5
Q32.2812 48.4844 27.875 48.4844
Q21.1875 48.4844 17.8438 46.4375
Q14.5 44.3906 14.5 40.2812
Q14.5 37.1562 16.8906 35.375
Q19.2812 33.5938 26.5156 31.9844
L29.5938 31.2969
Q39.1562 29.25 43.1875 25.5156
Q47.2188 21.7812 47.2188 15.0938
Q47.2188 7.46875 41.1875 3.01562
Q35.1562 -1.42188 24.6094 -1.42188
Q20.2188 -1.42188 15.4531 -0.5625
Q10.6875 0.296875 5.42188 2
L5.42188 11.2812
Q10.4062 8.6875 15.2344 7.39062
Q20.0625 6.10938 24.8125 6.10938
Q31.1562 6.10938 34.5625 8.28125
Q37.9844 10.4531 37.9844 14.4062
Q37.9844 18.0625 35.5156 20.0156
Q33.0625 21.9688 24.7031 23.7812
L21.5781 24.5156
Q13.2344 26.2656 9.51562 29.9062
Q5.8125 33.5469 5.8125 39.8906
Q5.8125 47.6094 11.2812 51.7969
Q16.75 56 26.8125 56
Q31.7812 56 36.1719 55.2656
Q40.5781 54.5469 44.2812 53.0781" id="DejaVuSans-73"/>
      <path d="
M41.1094 46.2969
Q39.5938 47.1719 37.8125 47.5781
Q36.0312 48 33.8906 48
Q26.2656 48 22.1875 43.0469
Q18.1094 38.0938 18.1094 28.8125
L18.1094 0
L9.07812 0
L9.07812 54.6875
L18.1094 54.6875
L18.1094 46.1875
Q20.9531 51.1719 25.4844 53.5781
Q30.0312 56 36.5312 56
Q37.4531 56 38.5781 55.875
Q39.7031 55.7656 41.0625 55.5156
z
" id="DejaVuSans-72"/>
     </defs>
     <g transform="translate(16.318125 170.946125)rotate(-90.0)scale(0.12 -0.12)">
      <use xlink:href="#DejaVuSans-4e"/>
      <use x="74.8046875" xlink:href="#DejaVuSans-75"/>
      <use x="138.18359375" xlink:href="#DejaVuSans-6d"/>
      <use x="235.595703125" xlink:href="#DejaVuSans-62"/>
      <use x="299.072265625" xlink:href="#DejaVuSans-65"/>
      <use x="360.595703125" xlink:href="#DejaVuSans-72"/>
      <use x="401.708984375" xlink:href="#DejaVuSans-20"/>
      <use x="433.49609375" xlink:href="#DejaVuSans-6f"/>
      <use x="494.677734375" xlink:href="#DejaVuSans-66"/>
      <use x="529.8828125" xlink:href="#DejaVuSans-20"/>
      <use x="561.669921875" xlink:href="#DejaVuSans-50"/>
      <use x="617.47265625" xlink:href="#DejaVuSans-61"/>
      <use x="678.751953125" xlink:href="#DejaVuSans-63"/>
      <use x="733.732421875" xlink:href="#DejaVuSans-6b"/>
      <use x="789.892578125" xlink:href="#DejaVuSans-61"/>
      <use x="851.171875" xlink:href="#DejaVuSans-67"/>
      <use x="914.6484375" xlink:href="#DejaVuSans-65"/>
      <use x="976.171875" xlink:href="#DejaVuSans-73"/>
     </g>
    </g>
   </g>
   <g id="patch_3">
    <path d="
M49.335 23.1418
L272.535 23.1418" style="fill:none;stroke:#000000;"/>
   </g>
   <g id="patch_4">
    <path d="
M272.535 195.942
L272.535 23.1418" style="fill:none;stroke:#000000;"/>
   </g>
   <g id="patch_5">
    <path d="
M49.335 195.942
L272.535 195.942" style="fill:none;stroke:#000000;"/>
   </g>
   <g id="patch_6">
    <path d="
M49.335 195.942
L49.335 23.1418" style="fill:none;stroke:#000000;"/>
   </g>
   <g id="text_17">
    <!-- Julia v0.6 -->
    <defs>
     <path d="
M10.6875 12.4062
L21 12.4062
L21 0
L10.6875 0
z
" id="DejaVuSans-2e"/>
     <path d="
M9.42188 54.6875
L18.4062 54.6875
L18.4062 0
L9.42188 0
z

M9.42188 75.9844
L18.4062 75.9844
L18.4062 64.5938
L9.42188 64.5938
z
" id="DejaVuSans-69"/>
     <path d="
M2.98438 54.6875
L12.5 54.6875
L29.5938 8.79688
L46.6875 54.6875
L56.2031 54.6875
L35.6875 0
L23.4844 0
z
" id="DejaVuSans-76"/>
     <path d="
M9.8125 72.9062
L19.6719 72.9062
L19.6719 5.07812
Q19.6719 -8.10938 14.6719 -14.0625
Q9.67188 -20.0156 -1.42188 -20.0156
L-5.17188 -20.0156
L-5.17188 -11.7188
L-2.09375 -11.7188
Q4.4375 -11.7188 7.125 -8.04688
Q9.8125 -4.39062 9.8125 5.07812
z
" id="DejaVuSans-4a"/>
     <path d="
M9.42188 75.9844
L18.4062 75.9844
L18.4062 0
L9.42188 0
z
" id="DejaVuSans-6c"/>
    </defs>
    <g transform="translate(127.91625 18.14175)scale(0.144 -0.144)">
     <use xlink:href="#DejaVuSans-4a"/>
     <use x="29.4921875" xlink:href="#DejaVuSans-75"/>
     <use x="92.87109375" xlink:href="#DejaVuSans-6c"/>
     <use x="120.654296875" xlink:href="#DejaVuSans-69"/>
     <use x="148.4375" xlink:href="#DejaVuSans-61"/>
     <use x="209.716796875" xlink:href="#DejaVuSans-20"/>
     <use x="241.50390625" xlink:href="#DejaVuSans-76"/>
     <use x="300.68359375" xlink:href="#DejaVuSans-30"/>
     <use x="364.306640625" xlink:href="#DejaVuSans-2e"/>
     <use x="396.09375" xlink:href="#DejaVuSans-36"/>
    </g>
   </g>
  </g>
 </g>
 <defs>
  <clipPath id="pa554cd70c2">
   <rect height="172.8" width="223.2" x="49.335" y="23.14175"/>
  </clipPath>
 </defs>
</svg>
