<?xml version="1.0" encoding="UTF-8"?>
<svg xmlns="http://www.w3.org/2000/svg"
     xmlns:xlink="http://www.w3.org/1999/xlink"
     xmlns:gadfly="http://www.gadflyjl.org/ns"
     version="1.2"
     width="254mm" height="101.6mm" viewBox="0 0 254 101.6"
     stroke="none"
     fill="#000000"
     stroke-width="0.3"
     font-size="3.88"
>
<g class="plotroot xscalable yscalable" id="fig-d0f57e0d422c4ab3b64adf23ecafd045-element-1">
  <g font-size="3.88" font-family="'PT Sans','Helvetica Neue','Helvetica',sans-serif" fill="#564A55" stroke="#000000" stroke-opacity="0.000" id="fig-d0f57e0d422c4ab3b64adf23ecafd045-element-2">
    <text x="127.14" y="89.99" text-anchor="middle" dy="0.6em">Date</text>
  </g>
  <g class="guide xlabels" font-size="2.82" font-family="'PT Sans Caption','Helvetica Neue','Helvetica',sans-serif" fill="#6C606B" id="fig-d0f57e0d422c4ab3b64adf23ecafd045-element-3">
    <text x="22.34" y="83.32" text-anchor="middle" dy="0.6em">Apr</text>
    <text x="33" y="83.32" text-anchor="middle" dy="0.6em">May</text>
    <text x="44.01" y="83.32" text-anchor="middle" dy="0.6em">Jun</text>
    <text x="54.67" y="83.32" text-anchor="middle" dy="0.6em">Jul</text>
    <text x="65.68" y="83.32" text-anchor="middle" dy="0.6em">Aug</text>
    <text x="76.7" y="83.32" text-anchor="middle" dy="0.6em">Sep</text>
    <text x="87.35" y="83.32" text-anchor="middle" dy="0.6em">Oct</text>
    <text x="98.37" y="83.32" text-anchor="middle" dy="0.6em">Nov</text>
    <text x="109.02" y="83.32" text-anchor="middle" dy="0.6em">Dec</text>
    <text x="120.04" y="83.32" text-anchor="middle" dy="0.6em">Jan 2015</text>
    <text x="131.05" y="83.32" text-anchor="middle" dy="0.6em">Feb</text>
    <text x="141" y="83.32" text-anchor="middle" dy="0.6em">Mar</text>
    <text x="152.01" y="83.32" text-anchor="middle" dy="0.6em">Apr</text>
    <text x="162.67" y="83.32" text-anchor="middle" dy="0.6em">May</text>
    <text x="173.68" y="83.32" text-anchor="middle" dy="0.6em">Jun</text>
    <text x="184.34" y="83.32" text-anchor="middle" dy="0.6em">Jul</text>
    <text x="195.35" y="83.32" text-anchor="middle" dy="0.6em">Aug</text>
    <text x="206.37" y="83.32" text-anchor="middle" dy="0.6em">Sep</text>
    <text x="217.02" y="83.32" text-anchor="middle" dy="0.6em">Oct</text>
    <text x="228.04" y="83.32" text-anchor="middle" dy="0.6em">Nov</text>
  </g>
  <g class="guide colorkey" id="fig-d0f57e0d422c4ab3b64adf23ecafd045-element-4">
    <g fill="#4C404B" font-size="2.82" font-family="'PT Sans','Helvetica Neue','Helvetica',sans-serif" id="fig-d0f57e0d422c4ab3b64adf23ecafd045-element-5">
      <text x="238.47" y="41.84" dy="0.35em" id="fig-d0f57e0d422c4ab3b64adf23ecafd045-element-6" class="color_0.2">0.2</text>
      <text x="238.47" y="45.47" dy="0.35em" id="fig-d0f57e0d422c4ab3b64adf23ecafd045-element-7" class="color_0.3">0.3</text>
      <text x="238.47" y="49.1" dy="0.35em" id="fig-d0f57e0d422c4ab3b64adf23ecafd045-element-8" class="color_0.4">0.4</text>
    </g>
    <g stroke="#000000" stroke-opacity="0.000" id="fig-d0f57e0d422c4ab3b64adf23ecafd045-element-9">
      <rect x="235.65" y="40.94" width="1.81" height="1.81" id="fig-d0f57e0d422c4ab3b64adf23ecafd045-element-10" fill="#00BFFF" class="color_0.2"/>
      <rect x="235.65" y="44.56" width="1.81" height="1.81" id="fig-d0f57e0d422c4ab3b64adf23ecafd045-element-11" fill="#D4CA3A" class="color_0.3"/>
      <rect x="235.65" y="48.19" width="1.81" height="1.81" id="fig-d0f57e0d422c4ab3b64adf23ecafd045-element-12" fill="#FF5EA0" class="color_0.4"/>
    </g>
    <g fill="#362A35" font-size="3.88" font-family="'PT Sans','Helvetica Neue','Helvetica',sans-serif" stroke="#000000" stroke-opacity="0.000" id="fig-d0f57e0d422c4ab3b64adf23ecafd045-element-13">
      <text x="235.65" y="38.02" id="fig-d0f57e0d422c4ab3b64adf23ecafd045-element-14">Julia ver.</text>
    </g>
  </g>
  <g clip-path="url(#fig-d0f57e0d422c4ab3b64adf23ecafd045-element-16)" id="fig-d0f57e0d422c4ab3b64adf23ecafd045-element-15">
    <g pointer-events="visible" opacity="1" fill="#000000" fill-opacity="0.000" stroke="#000000" stroke-opacity="0.000" class="guide background" id="fig-d0f57e0d422c4ab3b64adf23ecafd045-element-17">
      <rect x="19.63" y="5" width="215.02" height="77.32" id="fig-d0f57e0d422c4ab3b64adf23ecafd045-element-18"/>
    </g>
    <g class="guide ygridlines xfixed" stroke-dasharray="0.5,0.5" stroke-width="0.2" stroke="#D0D0E0" id="fig-d0f57e0d422c4ab3b64adf23ecafd045-element-19">
      <path fill="none" d="M19.63,80.32 L 234.65 80.32" id="fig-d0f57e0d422c4ab3b64adf23ecafd045-element-20"/>
      <path fill="none" d="M19.63,61.99 L 234.65 61.99" id="fig-d0f57e0d422c4ab3b64adf23ecafd045-element-21"/>
      <path fill="none" d="M19.63,43.66 L 234.65 43.66" id="fig-d0f57e0d422c4ab3b64adf23ecafd045-element-22"/>
      <path fill="none" d="M19.63,25.33 L 234.65 25.33" id="fig-d0f57e0d422c4ab3b64adf23ecafd045-element-23"/>
      <path fill="none" d="M19.63,7 L 234.65 7" id="fig-d0f57e0d422c4ab3b64adf23ecafd045-element-24"/>
    </g>
    <g class="guide xgridlines yfixed" stroke-dasharray="0.5,0.5" stroke-width="0.2" stroke="#D0D0E0" id="fig-d0f57e0d422c4ab3b64adf23ecafd045-element-25">
      <path fill="none" d="M22.34,5 L 22.34 82.32" id="fig-d0f57e0d422c4ab3b64adf23ecafd045-element-26"/>
      <path fill="none" d="M33,5 L 33 82.32" id="fig-d0f57e0d422c4ab3b64adf23ecafd045-element-27"/>
      <path fill="none" d="M44.01,5 L 44.01 82.32" id="fig-d0f57e0d422c4ab3b64adf23ecafd045-element-28"/>
      <path fill="none" d="M54.67,5 L 54.67 82.32" id="fig-d0f57e0d422c4ab3b64adf23ecafd045-element-29"/>
      <path fill="none" d="M65.68,5 L 65.68 82.32" id="fig-d0f57e0d422c4ab3b64adf23ecafd045-element-30"/>
      <path fill="none" d="M76.7,5 L 76.7 82.32" id="fig-d0f57e0d422c4ab3b64adf23ecafd045-element-31"/>
      <path fill="none" d="M87.35,5 L 87.35 82.32" id="fig-d0f57e0d422c4ab3b64adf23ecafd045-element-32"/>
      <path fill="none" d="M98.37,5 L 98.37 82.32" id="fig-d0f57e0d422c4ab3b64adf23ecafd045-element-33"/>
      <path fill="none" d="M109.02,5 L 109.02 82.32" id="fig-d0f57e0d422c4ab3b64adf23ecafd045-element-34"/>
      <path fill="none" d="M120.04,5 L 120.04 82.32" id="fig-d0f57e0d422c4ab3b64adf23ecafd045-element-35"/>
      <path fill="none" d="M131.05,5 L 131.05 82.32" id="fig-d0f57e0d422c4ab3b64adf23ecafd045-element-36"/>
      <path fill="none" d="M141,5 L 141 82.32" id="fig-d0f57e0d422c4ab3b64adf23ecafd045-element-37"/>
      <path fill="none" d="M152.01,5 L 152.01 82.32" id="fig-d0f57e0d422c4ab3b64adf23ecafd045-element-38"/>
      <path fill="none" d="M162.67,5 L 162.67 82.32" id="fig-d0f57e0d422c4ab3b64adf23ecafd045-element-39"/>
      <path fill="none" d="M173.68,5 L 173.68 82.32" id="fig-d0f57e0d422c4ab3b64adf23ecafd045-element-40"/>
      <path fill="none" d="M184.34,5 L 184.34 82.32" id="fig-d0f57e0d422c4ab3b64adf23ecafd045-element-41"/>
      <path fill="none" d="M195.35,5 L 195.35 82.32" id="fig-d0f57e0d422c4ab3b64adf23ecafd045-element-42"/>
      <path fill="none" d="M206.37,5 L 206.37 82.32" id="fig-d0f57e0d422c4ab3b64adf23ecafd045-element-43"/>
      <path fill="none" d="M217.02,5 L 217.02 82.32" id="fig-d0f57e0d422c4ab3b64adf23ecafd045-element-44"/>
      <path fill="none" d="M228.04,5 L 228.04 82.32" id="fig-d0f57e0d422c4ab3b64adf23ecafd045-element-45"/>
    </g>
    <g class="plotpanel" id="fig-d0f57e0d422c4ab3b64adf23ecafd045-element-46">
      <g class="yfixed" stroke-dasharray="none" stroke-width="0.26" stroke="#7F7F7F" id="fig-d0f57e0d422c4ab3b64adf23ecafd045-element-47">
        <path fill="none" d="M72.43,5 L 72.43 82.32" id="fig-d0f57e0d422c4ab3b64adf23ecafd045-element-48"/>
        <path fill="none" d="M83.8,5 L 83.8 82.32" id="fig-d0f57e0d422c4ab3b64adf23ecafd045-element-49"/>
        <path fill="none" d="M94.46,5 L 94.46 82.32" id="fig-d0f57e0d422c4ab3b64adf23ecafd045-element-50"/>
        <path fill="none" d="M106.18,5 L 106.18 82.32" id="fig-d0f57e0d422c4ab3b64adf23ecafd045-element-51"/>
        <path fill="none" d="M117.91,5 L 117.91 82.32" id="fig-d0f57e0d422c4ab3b64adf23ecafd045-element-52"/>
        <path fill="none" d="M122.52,5 L 122.52 82.32" id="fig-d0f57e0d422c4ab3b64adf23ecafd045-element-53"/>
        <path fill="none" d="M136.73,5 L 136.73 82.32" id="fig-d0f57e0d422c4ab3b64adf23ecafd045-element-54"/>
        <path fill="none" d="M148.81,5 L 148.81 82.32" id="fig-d0f57e0d422c4ab3b64adf23ecafd045-element-55"/>
        <path fill="none" d="M162.31,5 L 162.31 82.32" id="fig-d0f57e0d422c4ab3b64adf23ecafd045-element-56"/>
        <path fill="none" d="M172.97,5 L 172.97 82.32" id="fig-d0f57e0d422c4ab3b64adf23ecafd045-element-57"/>
        <path fill="none" d="M172.97,5 L 172.97 82.32" id="fig-d0f57e0d422c4ab3b64adf23ecafd045-element-58"/>
        <path fill="none" d="M181.85,5 L 181.85 82.32" id="fig-d0f57e0d422c4ab3b64adf23ecafd045-element-59"/>
        <path fill="none" d="M193.58,5 L 193.58 82.32" id="fig-d0f57e0d422c4ab3b64adf23ecafd045-element-60"/>
        <path fill="none" d="M219.51,5 L 219.51 82.32" id="fig-d0f57e0d422c4ab3b64adf23ecafd045-element-61"/>
      </g>
      <g class="geometry" stroke="#000000" stroke-opacity="0.000" fill="#4C404B" font-size="2.82" font-family="'PT Sans Caption','Helvetica Neue','Helvetica',sans-serif" id="fig-d0f57e0d422c4ab3b64adf23ecafd045-element-62">
        <text x="71.85" y="71.15" text-anchor="end" dy="0.35em" id="fig-d0f57e0d422c4ab3b64adf23ecafd045-element-63">v0.3.0→</text>
        <text x="83.22" y="71.15" text-anchor="end" dy="0.35em" id="fig-d0f57e0d422c4ab3b64adf23ecafd045-element-64">v0.3.1→</text>
        <text x="93.88" y="71.15" text-anchor="end" dy="0.35em" id="fig-d0f57e0d422c4ab3b64adf23ecafd045-element-65">v0.3.2→</text>
        <text x="105.6" y="71.15" text-anchor="end" dy="0.35em" id="fig-d0f57e0d422c4ab3b64adf23ecafd045-element-66">v0.3.3→</text>
        <text x="117.33" y="71.15" text-anchor="end" dy="0.35em" id="fig-d0f57e0d422c4ab3b64adf23ecafd045-element-67">v0.3.4→</text>
        <text x="121.95" y="71.15" text-anchor="end" dy="0.35em" id="fig-d0f57e0d422c4ab3b64adf23ecafd045-element-68"></text>
        <text x="136.16" y="71.15" text-anchor="end" dy="0.35em" id="fig-d0f57e0d422c4ab3b64adf23ecafd045-element-69">v0.3.6→</text>
        <text x="148.23" y="71.15" text-anchor="end" dy="0.35em" id="fig-d0f57e0d422c4ab3b64adf23ecafd045-element-70">v0.3.7→</text>
        <text x="161.73" y="71.15" text-anchor="end" dy="0.35em" id="fig-d0f57e0d422c4ab3b64adf23ecafd045-element-71">v0.3.8→</text>
        <text x="172.39" y="71.15" text-anchor="end" dy="0.35em" id="fig-d0f57e0d422c4ab3b64adf23ecafd045-element-72">v0.3.9→</text>
        <text x="172.39" y="71.15" text-anchor="end" dy="0.35em" id="fig-d0f57e0d422c4ab3b64adf23ecafd045-element-73">v0.3.9→</text>
        <text x="181.27" y="71.15" text-anchor="end" dy="0.35em" id="fig-d0f57e0d422c4ab3b64adf23ecafd045-element-74"></text>
        <text x="193" y="71.15" text-anchor="end" dy="0.35em" id="fig-d0f57e0d422c4ab3b64adf23ecafd045-element-75">v0.3.11→</text>
        <text x="218.93" y="61.99" text-anchor="end" dy="0.35em" id="fig-d0f57e0d422c4ab3b64adf23ecafd045-element-76">v0.4.0→</text>
      </g>
      <g stroke-width="0.79" fill="#000000" fill-opacity="0.000" class="geometry color_0.4" stroke-dasharray="none" stroke="#FF5EA0" id="fig-d0f57e0d422c4ab3b64adf23ecafd045-element-77">
        <path fill="none" d="M69.95,46.96 L 70.3 46.68 70.66 46.59 71.01 46.5 71.37 46.5 71.72 46.5 72.43 46.22 72.79 46.22 73.14 46.13 73.5 46.13 73.85 46.13 74.21 45.86 74.56 45.67 74.92 45.67 75.63 45.49 75.99 45.22 76.7 45.03 77.05 45.03 77.41 45.03 78.83 45.03 79.89 44.48 80.25 44.39 80.6 44.3 80.96 44.12 81.31 44.12 81.67 44.12 82.03 43.38 82.38 43.38 82.74 43.38 83.45 43.29 83.8 43.29 84.16 43.2 84.51 43.2 84.87 43.2 85.22 43.11 85.58 43.11 86.29 43.2 86.64 43.11 87 43.11 87.35 42.92 87.71 42.74 88.06 42.74 88.42 42.74 88.78 42.56 89.84 42.37 90.2 42.37 90.55 42.19 90.91 42.1 91.26 42.1 91.62 42.1 91.97 41.92 92.33 41.92 92.68 41.82 93.04 41.73 93.39 41.73 93.75 41.73 94.1 41.73 94.46 41.55 94.81 41.37 95.17 41.37 95.53 41.37 95.88 41.27 96.24 41.27 96.59 41.18 96.95 41.18 97.3 41 97.66 40.91 98.01 40.91 98.37 40.82 98.72 40.82 99.08 40.82 99.43 40.82 99.79 40.72 100.14 40.63 101.21 40.63 102.99 40.08 103.34 39.9 103.7 39.9 104.05 39.81 104.41 39.81 104.76 39.53 105.12 39.53 106.54 39.08 106.89 39.08 108.67 38.98 109.38 38.98 109.74 38.8 110.09 38.71 110.45 38.71 110.8 38.71 111.16 38.53 111.51 38.34 112.58 38.25 112.93 38.16 113.64 37.79 114 37.79 114.35 37.79 115.42 37.79 116.13 37.61 117.2 37.43 118.62 37.24 119.33 36.88 120.39 36.69 122.88 36.05 124.3 35.41 124.66 35.23 125.01 35.23 125.37 34.68 125.72 34.68 126.08 34.68 126.79 34.58 127.14 34.49 127.5 34.49 127.85 34.22 128.21 34.13 128.56 34.13 128.92 34.13 129.63 33.85 129.98 33.58 130.34 33.49 131.76 32.75 132.12 32.75 132.47 33.03 133.18 32.75 133.89 32.48 134.25 32.48 135.31 32.29 137.09 32.29 138.87 32.2 140.64 31.38 141 31.38 141.35 31.38 141.71 31.19 142.06 31.19 142.77 31.01 143.48 31.01 144.91 30.92 145.26 30.74 145.62 30.74 145.97 30.74 146.33 30.55 146.68 30.64 147.04 30.46 151.3 30.09 152.01 30.09 152.37 29.82 153.08 29.82 154.5 29.73 155.21 29.64 155.92 29.36 157.34 29.18 158.05 28.99 158.41 28.72 159.12 28.26 159.47 28.26 159.83 28.17 160.18 27.99 160.54 27.99 160.89 27.89 161.6 27.8 161.96 27.62 162.67 27.62 163.38 27.44 163.73 27.16 164.09 27.07 164.8 26.89 165.16 26.8 166.93 26.43 168.35 26.25 168.71 26.06 171.55 25.79 171.91 25.79 172.26 25.79 173.33 25.42 173.68 25.33 174.04 25.15 174.75 24.96 175.46 24.96 176.17 24.78 179.37 24.14 180.43 24.14 180.79 24.14 181.14 23.95 181.5 23.95 181.85 23.68 182.21 23.68 182.56 23.68 182.92 23.59 183.98 23.5 184.69 23.31 185.41 23.31 185.76 23.13 186.12 22.76 186.47 22.58 186.83 22.49 187.18 22.49 193.22 21.11 196.06 20.56 199.26 20.11 205.3 17.81 206.37 17.63 208.14 17.26 209.92 16.62 215.6 14.88 217.02 14.33 218.8 13.51 220.22 15.8 221.64 15.34 222.71 15.06 226.97 13.05 231.23 12.04 232.65 11.95" id="fig-d0f57e0d422c4ab3b64adf23ecafd045-element-78"/>
      </g>
      <g stroke-width="0.79" fill="#000000" fill-opacity="0.000" class="geometry color_0.3" stroke-dasharray="none" stroke="#D4CA3A" id="fig-d0f57e0d422c4ab3b64adf23ecafd045-element-79">
        <path fill="none" d="M21.63,53.19 L 21.99 53.19 22.34 53.1 22.7 53.1 23.05 53.1 23.41 53.1 23.76 53.1 24.12 53.01 24.83 53.01 25.18 52.91 25.89 52.82 26.61 52.64 26.96 52.64 27.67 52.64 28.03 52.55 30.51 52.18 31.58 52.18 32.29 52.18 34.78 52.09 35.13 51.91 35.49 51.81 35.84 51.81 36.2 51.81 36.55 51.81 36.91 51.81 37.26 51.81 37.62 51.81 37.97 51.81 38.33 51.81 38.68 51.54 39.39 51.45 39.75 51.45 40.11 51.45 40.46 51.26 40.82 51.26 41.17 51.26 41.53 51.17 41.88 51.17 42.24 51.17 42.59 51.17 42.95 51.17 43.3 51.08 43.66 51.08 44.01 54.75 44.37 50.99 44.72 50.9 45.08 50.81 47.21 50.26 47.57 50.16 47.92 50.07 48.28 49.98 48.63 49.8 48.99 49.8 49.34 49.61 49.7 49.61 50.05 49.52 50.41 49.43 51.12 49.43 51.47 49.25 51.83 49.25 52.18 49.25 52.54 49.25 52.89 49.25 53.25 48.97 53.6 48.97 54.32 48.88 54.67 48.7 55.03 48.61 55.38 48.51 55.74 48.51 56.09 48.33 56.8 48.24 57.16 47.96 57.51 47.96 57.87 47.96 58.58 47.51 59.29 47.23 59.64 47.23 60 47.14 60.35 47.14 61.42 47.05 61.78 47.05 62.13 46.96 62.49 46.96 62.84 46.96 63.2 46.87 63.55 46.77 63.91 46.68 64.62 46.68 64.97 46.68 65.68 46.68 66.04 46.59 66.39 46.32 66.75 46.32 67.46 46.22 67.82 46.22 68.17 46.04 68.53 45.95 68.88 45.86 69.24 45.77 69.59 45.67 69.95 45.49 70.3 45.49 70.66 45.4 71.01 45.31 71.37 45.31 71.72 45.31 72.43 45.03 72.79 45.03 73.14 44.94 73.5 44.94 73.85 44.94 74.21 44.67 74.56 44.57 74.92 44.48 75.63 45.58 75.99 45.31 76.7 45.12 77.05 45.12 77.41 45.12 78.83 45.12 79.89 44.57 80.25 44.48 80.6 44.39 80.96 44.21 81.31 44.21 81.67 44.21 82.03 43.47 82.38 43.47 82.74 43.47 83.45 43.47 83.8 43.38 84.16 43.29 84.51 43.29 84.87 43.29 85.22 43.2 85.58 43.2 86.29 43.29 86.64 43.2 87 43.2 87.35 43.02 87.71 41.18 88.06 42.83 88.42 42.83 88.78 42.65 89.84 42.47 90.2 42.47 90.55 42.28 90.91 42.19 91.26 42.19 91.62 42.19 91.97 42.01 92.33 42.01 92.68 41.92 93.04 41.82 93.39 41.82 93.75 41.82 94.1 41.82 94.46 41.73 94.81 41.55 95.17 41.55 95.53 41.55 95.88 41.46 96.24 41.46 96.59 41.37 96.95 41.37 97.3 41.18 97.66 41.09 98.01 41.09 98.37 41 98.72 41 99.08 41 99.43 40.91 99.79 40.91 100.14 40.82 101.21 40.82 102.99 40.36 103.34 40.18 103.7 40.18 104.05 40.08 104.41 40.08 104.76 39.81 105.12 39.81 106.54 39.35 106.89 39.35 108.67 39.26 109.38 39.26 109.74 39.17 110.09 39.08 110.45 39.08 110.8 39.08 111.16 38.89 111.51 38.8 112.58 38.62 112.93 38.53 113.64 38.25 114 38.16 114.35 38.16 115.42 38.16 116.13 37.98 117.2 37.79 118.62 37.61 119.33 37.33 120.39 36.97 122.88 36.42 124.3 35.78 124.66 35.59 125.01 35.59 125.37 35.13 125.72 35.13 126.08 35.13 126.79 35.13 127.14 34.95 127.5 34.95 127.85 34.68 128.21 34.58 128.56 34.58 128.92 34.58 129.63 34.31 129.98 34.13 130.34 34.03 131.76 33.3 132.12 33.49 132.47 33.49 133.18 33.21 133.89 32.94 134.25 32.94 135.31 32.75 137.09 32.75 138.87 32.2 140.64 31.84 141 31.84 141.35 31.84 141.71 31.65 142.06 31.65 142.77 31.65 143.48 31.65 144.91 31.47 145.26 31.29 145.62 31.19 145.97 31.19 146.33 31.01 146.68 31.1 147.04 30.92 151.3 30.83 152.01 30.83 152.37 30.55 153.08 30.55 154.5 30.46 155.21 30.46 155.92 30.19 157.34 30.19 158.05 30 158.41 29.91 159.12 29.45 159.47 29.45 159.83 29.36 160.18 29.09 160.54 29.09 160.89 28.99 161.6 28.9 161.96 28.81 162.67 28.81 163.38 28.63 163.73 28.35 164.09 28.26 164.8 28.08 165.16 27.99 166.93 27.62 168.35 27.44 168.71 27.25 171.55 26.89 171.91 26.89 172.26 26.89 173.33 26.61 173.68 26.52 174.04 26.43 174.75 26.25 175.46 26.25 176.17 26.15 179.37 25.7 180.43 25.79 180.79 25.79 181.14 25.6 181.5 25.6 181.85 25.42 182.21 25.42 182.56 25.42 182.92 25.33 183.98 25.33 184.69 25.15 185.41 25.24 185.76 25.05 186.12 24.69 186.47 24.5 186.83 24.41 187.18 24.41 193.22 23.13 196.06 22.67 199.26 22.21 205.3 20.93 206.37 20.75 208.14 20.65 209.92 20.47 215.6 19.56 217.02 19.1 218.8 18.73 220.22 18.64 221.64 18.46 222.71 18.27 226.97 18.18 231.23 18.09 232.65 18.27" id="fig-d0f57e0d422c4ab3b64adf23ecafd045-element-80"/>
      </g>
      <g stroke-width="0.79" fill="#000000" fill-opacity="0.000" class="geometry color_0.2" stroke-dasharray="none" stroke="#00BFFF" id="fig-d0f57e0d422c4ab3b64adf23ecafd045-element-81">
        <path fill="none" d="M21.63,54.2 L 21.99 54.2 22.34 54.1 22.7 54.1 23.05 54.1 23.41 54.1 23.76 54.1 24.12 54.1 24.83 54.1 25.18 54.1 25.89 54.01 26.61 53.92 26.96 53.92 27.67 53.83 28.03 53.74 30.51 53.56 31.58 53.56 32.29 53.56 34.78 53.46 35.13 53.37 35.49 53.37 35.84 53.37 36.2 53.37 36.55 53.37 36.91 53.37 37.26 53.37 37.62 53.37 37.97 53.37 38.33 53.1 38.68 53.1 39.39 53.01 39.75 53.01 40.11 53.01 40.46 52.91 40.82 53.65 41.17 53.19 41.53 53.19 41.88 53.19 42.24 53.19 42.59 53.19 42.95 53.19 43.3 53.19 43.66 53.19 44.01 53.1 44.37 53.1 44.72 53.01 45.08 53.01 47.21 52.55 47.57 52.55 47.92 52.46 48.28 52.36 48.63 52.18 48.99 52.18 49.34 52.18 49.7 52.18 50.05 52.18 50.41 52.09 51.12 52.09 51.47 51.91 51.83 51.91 52.18 51.91 52.54 51.91 52.89 51.91 53.25 51.63 53.6 51.63 54.32 51.54 54.67 51.36 55.03 51.26 55.38 51.17 55.74 51.17 56.09 51.17 56.8 50.99 57.16 50.9 57.51 50.81 57.87 50.81 58.58 50.62 59.29 50.44 59.64 50.44 60 50.44 60.35 50.44 61.42 50.44 61.78 50.44 62.13 50.35 62.49 50.35 62.84 50.35 63.2 50.26 63.55 50.26 63.91 50.26 64.62 50.16 64.97 50.16 65.68 50.16 66.04 50.16 66.39 49.89 66.75 49.89 67.46 50.07 67.82 50.07 68.17 49.89 68.53 49.8 68.88 49.8 69.24 49.61 69.59 49.61" id="fig-d0f57e0d422c4ab3b64adf23ecafd045-element-82"/>
      </g>
    </g>
  </g>
  <g class="guide ylabels" font-size="2.82" font-family="'PT Sans Caption','Helvetica Neue','Helvetica',sans-serif" fill="#6C606B" id="fig-d0f57e0d422c4ab3b64adf23ecafd045-element-83">
    <text x="18.63" y="80.32" text-anchor="end" dy="0.35em" id="fig-d0f57e0d422c4ab3b64adf23ecafd045-element-84">0</text>
    <text x="18.63" y="61.99" text-anchor="end" dy="0.35em" id="fig-d0f57e0d422c4ab3b64adf23ecafd045-element-85">200</text>
    <text x="18.63" y="43.66" text-anchor="end" dy="0.35em" id="fig-d0f57e0d422c4ab3b64adf23ecafd045-element-86">400</text>
    <text x="18.63" y="25.33" text-anchor="end" dy="0.35em" id="fig-d0f57e0d422c4ab3b64adf23ecafd045-element-87">600</text>
    <text x="18.63" y="7" text-anchor="end" dy="0.35em" id="fig-d0f57e0d422c4ab3b64adf23ecafd045-element-88">800</text>
  </g>
  <g font-size="3.88" font-family="'PT Sans','Helvetica Neue','Helvetica',sans-serif" fill="#564A55" stroke="#000000" stroke-opacity="0.000" id="fig-d0f57e0d422c4ab3b64adf23ecafd045-element-89">
    <text x="8.81" y="41.66" text-anchor="middle" dy="0.35em" transform="rotate(-90, 8.81, 43.66)" id="fig-d0f57e0d422c4ab3b64adf23ecafd045-element-90">Number of Tagged Packages</text>
  </g>
</g>
<defs>
<clipPath id="fig-d0f57e0d422c4ab3b64adf23ecafd045-element-16">
  <path d="M19.63,5 L 234.65 5 234.65 82.32 19.63 82.32" />
</clipPath
></defs>
</svg>
