<?xml version="1.0" encoding="utf-8" standalone="no"?>
<!DOCTYPE svg PUBLIC "-//W3C//DTD SVG 1.1//EN"
  "http://www.w3.org/Graphics/SVG/1.1/DTD/svg11.dtd">
<!-- Created with matplotlib (http://matplotlib.org/) -->
<svg height="313pt" version="1.1" viewBox="0 0 623 313" width="623pt" xmlns="http://www.w3.org/2000/svg" xmlns:xlink="http://www.w3.org/1999/xlink">
 <defs>
  <style type="text/css">
*{stroke-linecap:butt;stroke-linejoin:round;}
  </style>
 </defs>
 <g id="figure_1">
  <g id="patch_1">
   <path d="
M0 313.097
L623.915 313.097
L623.915 0
L0 0
z
" style="fill:#ffffff;"/>
  </g>
  <g id="axes_1">
   <g id="patch_2">
    <path d="
M56.2388 243.407
L614.239 243.407
L614.239 13.0069
L56.2388 13.0069
z
" style="fill:#ffffff;"/>
   </g>
   <g id="line2d_1">
    <path clip-path="url(#p472e73a826)" d="
M119.97 221.19
L119.498 221.19
L119.026 221.519
L118.553 221.519
L118.081 221.683
L117.609 222.013
L117.137 222.013
L116.193 221.683
L115.721 221.683
L115.249 222.177
L114.777 222.177
L113.833 222.177
L113.361 222.177
L112.416 222.342
L111.944 222.342
L111.472 222.342
L111 222.506
L110.528 222.506
L110.056 222.506
L109.584 222.671
L109.112 222.671
L107.696 222.671
L107.224 222.671
L106.751 222.671
L106.279 222.671
L105.335 223
L104.391 223.329
L103.919 223.329
L103.447 223.494
L102.975 223.658
L102.031 223.987
L101.559 223.987
L101.086 223.987
L100.614 224.152
L100.142 224.317
L99.6702 224.646
L98.7261 224.81
L98.254 224.81
L97.7819 225.304
L97.3098 225.304
L96.8377 225.304
L96.3657 225.304
L95.8936 225.304
L95.4215 225.633
L94.4773 225.633
L94.0052 225.798
L93.5332 225.798
L93.0611 225.798
L92.589 225.798
L92.1169 225.798
L91.6448 226.127
L91.1728 226.291
L90.7007 226.456
L90.2286 226.456
L87.3961 227.279
L86.924 227.279
L86.4519 227.443
L85.9799 227.443
L85.5078 227.608
L85.0357 227.608
L84.5636 227.608
L84.0915 227.608
L83.6195 227.608
L83.1474 227.608
L82.6753 227.608
L82.2032 227.608
L81.7311 228.431
L81.2591 227.114
L80.787 227.279
L80.3149 227.279
L79.8428 227.279
L78.8986 227.443
L78.4266 227.443
L77.9545 227.937
L77.4824 227.937
L77.0103 227.937
L76.5382 227.937
L76.0662 227.937
L75.5941 227.937
L75.122 227.937
L74.6499 227.937
L74.1778 227.937
L73.7058 228.102
L70.4012 228.266
L69.457 228.266
L68.0408 228.266
L64.7362 228.595
L64.2641 228.76
L63.32 228.925
L62.8479 228.925
L61.9037 229.089
L60.9596 229.254
L60.4875 229.254
L59.5433 229.254
L59.0712 229.254
L58.5992 229.254
L58.1271 229.254
L57.655 229.254
L57.1829 229.254
L56.7108 229.418
L56.2388 229.418" style="fill:none;stroke:#ff0000;stroke-linecap:square;stroke-width:2;"/>
   </g>
   <g id="line2d_2">
    <path clip-path="url(#p472e73a826)" d="
M484.416 161.944
L471.67 161.944
L471.198 162.109
L469.782 161.944
L464.589 161.944
L464.117 162.109
L463.645 161.944
L463.173 161.944
L462.701 162.109
L462.229 161.944
L460.812 161.944
L460.34 162.109
L457.98 162.109
L457.508 161.944
L451.843 161.944
L451.371 162.109
L450.899 161.944
L447.594 161.944
L447.122 162.109
L446.65 161.944
L446.178 162.109
L445.706 161.944
L440.041 161.944
L439.569 162.109
L438.625 162.109
L438.152 162.273
L437.208 162.109
L436.736 162.273
L436.264 162.109
L434.848 162.109
L434.376 162.273
L433.904 162.109
L431.071 162.109
L430.599 162.273
L430.127 162.109
L427.767 162.109
L427.295 162.273
L395.193 162.931
L387.64 163.261
L376.782 163.261
L373.949 163.59
L372.061 163.59
L362.147 163.754
L351.762 163.754
L345.625 164.248
L341.848 164.577
L337.599 164.577
L336.655 164.906
L334.767 164.577
L323.437 164.906
L320.132 165.565
L318.244 165.729
L315.883 166.387
L313.995 167.21
L306.442 168.856
L304.081 169.185
L301.721 169.35
L300.305 169.679
L292.279 171.983
L284.254 173.629
L276.229 175.933
L275.757 175.933
L275.284 176.097
L274.812 176.426
L274.34 177.085
L273.868 177.414
L272.924 177.249
L271.98 177.578
L270.564 177.578
L270.092 177.743
L269.147 177.743
L268.675 178.072
L268.203 178.072
L267.731 178.401
L267.259 178.401
L265.843 178.237
L260.65 179.224
L259.706 179.224
L256.401 180.376
L255.457 180.376
L251.68 181.034
L251.208 181.363
L249.32 181.693
L245.543 182.845
L245.071 183.009
L244.599 183.503
L243.655 183.832
L242.711 183.832
L242.239 183.997
L240.35 184.326
L239.878 184.819
L239.406 184.984
L238.934 184.984
L237.99 185.807
L236.574 186.301
L234.685 186.301
L233.741 186.794
L232.797 186.794
L229.965 186.959
L229.493 187.453
L228.548 187.453
L222.883 187.617
L222.411 187.946
L221.939 187.782
L221.467 188.111
L220.995 188.111
L220.523 188.275
L220.051 188.605
L218.163 188.934
L215.802 188.934
L215.33 189.263
L214.386 189.263
L212.026 189.921
L209.665 190.909
L207.305 190.909
L205.416 191.238
L203.528 192.225
L203.056 192.225
L202.584 191.896
L200.696 193.213
L200.224 193.377
L199.751 193.706
L198.807 194.2
L197.863 194.2
L197.391 194.365
L196.919 194.858
L196.447 194.858
L195.975 195.187
L194.086 195.187
L193.614 196.01
L193.142 196.01
L192.67 196.339
L190.782 197.491
L187.477 198.479
L185.117 199.631
L181.812 200.289
L180.868 200.618
L178.98 200.618
L178.508 200.783
L177.092 201.441
L175.203 201.935
L174.731 202.264
L173.787 202.264
L172.843 202.593
L171.899 202.593
L169.066 202.758
L167.178 203.581
L166.706 203.581
L166.234 204.074
L165.762 204.074
L165.29 204.239
L164.817 204.239
L164.345 204.568
L161.985 205.391
L160.569 205.391
L160.097 205.555
L159.625 205.555
L159.152 205.72
L158.208 205.72
L157.736 205.885
L157.264 205.885
L156.792 206.049
L156.32 206.378
L155.848 206.378
L155.376 206.543
L154.904 206.543
L154.432 206.707
L153.487 206.707
L153.015 207.037
L152.543 207.201
L151.127 207.201
L150.183 207.53
L149.711 207.53
L149.239 207.859
L148.295 207.859
L147.823 208.024
L147.35 208.353
L146.878 208.353
L145.462 208.682
L144.99 209.011
L144.518 209.011
L144.046 206.049
L143.574 209.341
L143.102 209.67
L142.63 209.67
L142.158 209.834
L140.741 209.67
L140.269 209.834
L139.325 209.834
L138.381 210.163
L136.493 210.163
L136.02 211.48
L135.076 211.48
L134.604 211.809
L133.66 212.138
L132.244 213.126
L129.411 213.126
L128.467 213.455
L127.995 213.949
L127.051 211.974
L126.107 212.303
L125.635 212.797
L124.691 212.797
L124.218 212.961
L123.746 212.961
L122.802 213.455
L121.858 213.455
L120.914 213.784
L120.442 213.784
L119.97 214.113
L118.081 214.771
L117.609 215.101
L117.137 215.101
L115.721 215.265
L115.249 215.759
L114.777 215.923
L112.416 215.923
L111 216.417
L110.056 216.417
L109.584 216.582
L109.112 216.582
L106.279 216.911
L105.335 217.405
L104.391 218.227
L103.447 218.227
L102.975 218.721
L102.031 218.886
L101.559 219.215
L101.086 219.215
L100.142 219.544
L99.6702 219.873
L98.254 220.038
L97.7819 220.531
L95.8936 220.531
L95.4215 220.861
L94.4773 220.861
L93.5332 221.19
L93.0611 221.19
L92.589 221.519
L92.1169 221.519
L91.6448 221.848
L86.4519 223.658
L85.9799 230.406
L85.5078 223.823
L85.0357 223.823
L84.5636 223.987
L82.6753 223.987
L82.2032 224.152
L81.2591 224.152
L80.787 224.481
L79.8428 224.481
L78.8986 224.646
L78.4266 225.139
L74.6499 225.139
L74.1778 225.304
L73.7058 225.633
L69.457 225.798
L68.0408 225.798
L64.2641 226.621
L62.8479 226.621
L61.9037 226.95
L58.5992 227.443
L57.1829 227.443
L56.7108 227.608
L56.2388 227.608
L56.2388 227.608" style="fill:none;stroke:#008000;stroke-linecap:square;stroke-width:2;"/>
   </g>
   <g id="line2d_3">
    <path clip-path="url(#p472e73a826)" d="
M614.239 94.4697
L611.406 94.4697
L610.934 94.6343
L603.853 94.6343
L603.381 94.7989
L602.909 95.6217
L602.437 94.7989
L599.604 94.7989
L599.132 94.6343
L598.66 94.7989
L594.411 94.7989
L591.579 95.128
L591.107 94.9634
L589.218 94.9634
L588.746 95.128
L588.274 94.9634
L587.33 94.9634
L586.858 95.128
L580.249 95.128
L576.944 95.4572
L576.472 95.6217
L576 95.4572
L575.056 95.4572
L574.584 95.6217
L573.168 95.6217
L572.696 95.7863
L572.224 95.6217
L569.391 95.6217
L568.919 95.7863
L564.67 95.7863
L564.198 95.9509
L563.726 95.9509
L562.782 96.1154
L560.421 95.7863
L558.061 95.7863
L557.589 95.9509
L552.396 95.9509
L531.152 96.28
L529.264 96.6092
L527.848 96.6092
L527.376 96.7737
L525.015 96.4446
L524.543 96.6092
L521.711 96.6092
L519.823 97.2674
L518.878 97.2674
L518.406 98.0903
L516.046 97.2674
L513.685 97.2674
L510.381 97.5966
L508.965 97.5966
L508.02 97.7612
L503.772 97.7612
L503.3 98.2549
L502.828 98.584
L502.356 98.7486
L500.939 98.584
L500.467 98.9132
L495.746 99.2423
L494.802 99.5714
L492.442 99.5714
L491.498 99.9006
L490.553 99.9006
L489.609 100.23
L485.833 100.23
L485.361 100.394
L484.888 100.888
L483.472 101.382
L483 102.04
L482.056 102.04
L481.584 102.205
L481.112 102.205
L480.168 102.534
L479.696 103.027
L478.751 103.357
L478.279 103.357
L477.807 103.686
L476.863 103.686
L476.391 103.85
L475.919 103.85
L475.447 104.179
L474.503 104.509
L474.031 104.838
L473.086 104.838
L472.142 105.167
L471.198 105.167
L470.254 105.496
L469.782 105.99
L469.31 106.154
L468.838 106.483
L468.366 106.483
L467.894 106.648
L467.421 106.648
L466.949 106.813
L466.477 106.813
L465.061 107.306
L462.701 107.306
L462.229 107.635
L461.757 107.635
L461.284 107.965
L460.812 107.965
L460.34 108.294
L459.868 108.294
L459.396 108.129
L458.924 108.129
L457.98 108.787
L457.508 108.952
L457.036 109.446
L456.564 109.775
L455.147 109.61
L454.675 109.939
L453.731 110.269
L453.259 110.269
L452.787 110.433
L452.315 110.433
L450.427 111.091
L449.482 111.256
L449.01 111.585
L448.538 111.585
L448.066 111.75
L447.594 111.585
L447.122 111.585
L446.178 111.914
L445.706 111.914
L444.762 112.243
L444.29 112.079
L443.817 112.079
L442.873 112.408
L442.401 112.408
L441.929 112.573
L441.457 112.573
L440.041 113.066
L439.569 113.725
L439.097 113.725
L438.625 113.889
L438.152 114.383
L436.736 114.712
L435.792 115.041
L434.848 115.041
L434.376 115.206
L433.904 115.206
L432.487 115.699
L432.015 115.535
L431.543 115.699
L431.071 115.699
L430.127 116.687
L429.655 116.687
L429.183 116.851
L428.711 116.687
L428.239 116.851
L427.767 117.181
L427.295 117.345
L419.741 121.13
L395.193 131.827
L387.64 137.094
L376.782 140.385
L373.949 142.031
L372.061 143.512
L362.147 146.639
L351.762 149.437
L349.401 149.93
L345.625 151.411
L342.32 152.234
L341.848 152.234
L337.599 152.893
L336.655 153.551
L334.767 153.715
L329.102 155.526
L323.437 159.146
L322.02 159.64
L320.132 160.463
L318.244 156.349
L315.883 157.83
L313.995 158.817
L306.442 161.944
L304.081 163.096
L300.305 164.083
L292.279 168.198
L288.031 169.021
L284.254 170.008
L276.229 172.477
L275.757 172.477
L275.284 172.641
L274.812 172.97
L274.34 173.629
L273.868 173.958
L272.924 173.958
L271.98 174.287
L269.147 174.616
L268.675 175.11
L268.203 175.11
L267.731 175.439
L265.843 175.439
L260.65 176.92
L259.706 176.92
L258.762 177.249
L258.29 177.578
L257.817 177.743
L256.401 178.401
L255.457 178.401
L251.68 178.895
L251.208 179.224
L249.32 179.553
L245.543 180.705
L245.071 180.87
L244.599 181.363
L243.655 181.693
L242.711 181.693
L242.239 182.022
L240.35 182.351
L239.878 182.68
L239.406 182.845
L238.934 182.845
L237.518 184.161
L236.574 184.49
L234.685 184.819
L233.741 185.313
L232.797 185.478
L229.965 185.642
L229.493 186.136
L228.548 186.136
L222.883 186.794
L222.411 187.123
L221.939 186.959
L221.467 187.288
L220.523 187.288
L220.051 187.617
L217.218 187.782
L216.274 188.111
L215.802 188.111
L215.33 188.44
L214.386 188.44
L212.026 189.921
L209.665 190.086
L207.305 190.086
L205.416 190.415
L203.528 191.402
L203.056 190.909
L202.584 190.909
L200.696 192.225
L200.224 192.39
L199.751 192.883
L198.807 193.377
L197.863 193.377
L197.391 193.542
L196.919 194.035
L196.447 194.035
L195.975 194.2
L194.559 194.365
L194.086 194.365
L193.614 195.352
L193.142 195.352
L192.67 195.681
L190.782 196.833
L187.477 197.985
L186.061 198.314
L185.117 198.973
L181.812 199.631
L180.868 199.96
L178.508 199.96
L177.564 200.618
L177.092 200.783
L175.675 200.947
L174.731 201.606
L173.787 201.606
L173.315 201.77
L172.843 202.099
L171.899 202.099
L169.066 202.264
L167.178 203.087
L166.706 203.087
L166.234 203.581
L165.762 203.581
L165.29 203.745
L164.817 203.745
L164.345 204.074
L161.985 205.062
L160.569 205.062
L159.625 205.391
L158.208 205.391
L157.736 205.555
L157.264 205.555
L156.792 205.72
L156.32 206.049
L155.848 206.049
L155.376 206.214
L154.904 206.214
L154.432 206.378
L153.487 206.378
L152.543 207.037
L151.127 207.037
L150.183 207.366
L149.711 207.366
L149.239 207.695
L148.295 207.695
L147.823 207.859
L147.35 208.189
L146.878 208.189
L145.462 208.518
L144.99 208.847
L144.046 208.847
L143.102 209.505
L142.63 209.505
L142.158 209.67
L140.741 209.505
L140.269 209.67
L139.325 209.67
L138.853 209.834
L138.381 209.834
L136.965 209.999
L136.493 209.999
L136.02 211.315
L135.076 211.315
L134.604 211.645
L133.66 211.974
L132.244 212.961
L129.411 212.961
L128.467 213.29
L127.995 213.784
L127.051 214.113
L126.579 214.113
L126.107 214.442
L125.635 214.936
L124.691 214.936
L124.218 215.101
L123.746 215.101
L122.802 215.594
L121.858 215.594
L120.914 215.923
L120.442 216.417
L120.442 216.417" style="fill:none;stroke:#0000ff;stroke-linecap:square;stroke-width:2;"/>
   </g>
   <g id="line2d_4">
    <path clip-path="url(#p472e73a826)" d="
M614.239 48.8834
L613.767 48.5543
L612.35 49.048
L611.878 48.8834
L611.406 49.048
L610.934 49.5417
L610.462 49.7063
L609.99 49.5417
L609.046 49.7063
L608.574 50.3646
L608.102 50.2
L607.63 50.3646
L607.158 50.6937
L606.685 50.6937
L606.213 51.1874
L605.741 50.8583
L605.269 50.8583
L604.797 51.352
L604.325 51.1874
L603.853 51.1874
L602.909 52.6686
L602.437 52.3394
L601.965 52.3394
L601.493 52.6686
L600.548 52.9977
L599.604 53.656
L599.132 54.1497
L598.66 53.9852
L598.188 54.1497
L597.716 54.4789
L597.244 54.1497
L596.772 54.4789
L594.411 54.4789
L592.995 55.7954
L591.107 56.4537
L590.635 56.2892
L589.691 57.6057
L589.218 57.4412
L588.746 57.7703
L588.274 57.6057
L587.802 57.6057
L587.33 57.7703
L586.858 57.7703
L586.386 58.5932
L585.914 59.0869
L585.442 59.416
L584.498 59.7452
L584.026 59.7452
L583.553 60.0743
L583.081 60.568
L582.609 60.568
L581.665 60.8972
L581.193 60.8972
L580.721 61.3909
L580.249 61.3909
L576.944 63.2012
L576.472 63.6949
L576 63.5303
L575.528 63.5303
L575.056 63.6949
L574.584 64.1886
L574.112 64.5177
L573.64 64.3532
L573.168 64.6823
L572.696 65.5052
L572.224 65.5052
L571.279 65.8343
L570.335 65.8343
L569.863 66.1634
L569.391 66.1634
L568.919 66.4926
L568.447 66.9863
L567.975 66.6572
L567.503 66.6572
L567.031 66.9863
L566.559 67.9737
L566.086 68.1383
L565.614 67.9737
L565.142 68.1383
L564.67 67.9737
L564.198 68.4674
L563.726 68.632
L562.782 68.4674
L560.421 68.3029
L559.949 68.9612
L559.005 69.784
L558.533 70.6069
L558.061 70.7714
L557.589 71.1006
L556.645 71.2652
L556.173 71.5943
L552.396 71.9234
L534.929 78.3417
L532.569 78.3417
L532.097 79.1646
L531.152 79.1646
L529.264 79.8229
L527.848 79.8229
L527.376 80.4812
L525.015 80.8103
L524.543 81.7977
L523.599 82.1269
L523.127 83.1143
L521.711 83.1143
L521.239 83.2789
L519.823 84.4309
L518.878 84.4309
L518.406 85.4183
L516.046 84.4309
L515.574 84.4309
L515.102 84.5954
L514.63 84.5954
L514.158 84.4309
L513.685 84.5954
L512.269 85.2537
L510.853 85.4183
L510.381 85.4183
L509.437 85.5829
L508.965 85.4183
L508.02 85.7474
L507.076 86.4057
L506.604 87.2286
L505.66 86.8994
L504.716 87.2286
L504.244 87.8869
L503.772 88.0514
L503.3 88.5452
L502.828 89.368
L502.356 89.6972
L500.939 89.8617
L500.467 91.1783
L494.802 93.1532
L494.33 93.1532
L493.386 93.8114
L492.442 93.8114
L491.498 94.9634
L490.553 94.9634
L490.081 95.128
L489.609 95.4572
L488.665 95.7863
L488.193 96.4446
L487.721 96.4446
L487.249 96.6092
L486.777 96.9383
L485.833 97.2674
L485.361 97.7612
L484.888 98.4194
L484.416 98.4194
L483.944 98.7486
L483.472 98.9132
L483 96.7737
L482.056 96.6092
L481.584 96.7737
L480.64 97.432
L480.168 97.5966
L479.696 99.4069
L479.224 100.065
L477.807 100.559
L477.335 101.053
L476.863 100.888
L476.391 100.888
L475.919 99.736
L475.447 100.065
L474.975 100.723
L474.503 100.723
L474.031 101.217
L473.559 101.382
L473.086 101.217
L471.198 101.875
L470.254 102.369
L469.782 103.027
L469.31 103.027
L468.838 103.357
L468.366 103.357
L466.949 103.85
L466.477 103.85
L465.533 104.673
L465.061 104.673
L464.589 104.838
L464.117 104.673
L462.701 104.673
L462.229 105.002
L461.757 106.154
L461.284 105.331
L460.812 105.496
L460.34 105.825
L459.396 106.154
L458.924 106.154
L457.98 107.471
L457.508 107.471
L457.036 107.965
L456.564 108.294
L455.147 108.129
L454.675 108.458
L454.203 108.952
L453.731 109.117
L453.259 109.117
L452.787 109.281
L452.315 109.281
L451.843 109.446
L451.371 109.775
L450.899 109.775
L450.427 109.939
L449.482 110.104
L449.01 110.598
L448.066 110.598
L447.594 110.433
L446.65 110.762
L445.706 110.762
L445.234 110.927
L444.762 110.927
L444.29 111.091
L443.817 111.091
L441.929 111.75
L441.457 111.75
L440.513 112.408
L440.041 112.408
L439.569 113.066
L439.097 113.066
L438.625 113.231
L438.152 113.56
L435.792 114.383
L434.848 114.383
L434.376 114.547
L433.904 114.547
L432.96 114.877
L432.487 114.877
L432.015 115.041
L431.543 114.877
L431.071 115.041
L430.127 116.029
L428.711 116.029
L428.239 116.193
L427.767 116.522
L427.295 116.687
L395.193 131.992
L387.64 137.094
L376.782 140.55
L373.949 142.031
L372.061 143.512
L362.147 146.803
L346.097 150.918
L345.625 151.247
L342.32 152.07
L341.848 152.07
L341.848 152.07" style="fill:none;stroke:#000000;stroke-linecap:square;stroke-width:2;"/>
   </g>
   <g id="line2d_5">
    <path clip-path="url(#p472e73a826)" d="
M614.239 50.6937
L613.767 50.8583
L613.295 51.0229
L612.823 51.5166
L612.35 51.8457
L611.878 45.2629
L611.406 45.4274
L610.934 46.0857
L609.99 46.4149
L609.046 46.5794
L608.574 47.0732
L608.102 47.4023
L607.63 47.5669
L607.158 48.7189
L606.685 48.8834
L606.213 49.5417
L605.741 52.0103
L605.269 49.7063
L604.797 50.2
L604.325 50.0354
L603.853 50.2
L603.381 51.0229
L602.909 51.352
L601.965 51.352
L601.493 52.0103
L601.02 52.0103
L600.548 52.3394
L600.076 52.8332
L598.188 54.1497
L597.716 53.9852
L596.772 54.3143
L596.3 54.3143
L595.828 54.4789
L595.356 54.4789
L594.411 54.808
L592.995 55.96
L591.579 56.9474
L591.107 57.112
L590.635 57.112
L590.163 57.9349
L589.691 58.0994
L589.218 58.4286
L588.746 58.264
L587.802 58.5932
L587.33 58.4286
L586.858 58.5932
L586.386 59.416
L585.914 59.7452
L585.442 59.9097
L584.498 60.568
L584.026 60.4034
L583.553 61.0617
L583.081 60.8972
L582.609 61.0617
L581.665 61.72
L580.721 61.72
L580.249 62.2137
L576.944 64.024
L576.472 64.024
L576 64.5177
L575.056 64.1886
L574.584 64.8469
L574.112 64.8469
L573.64 65.0114
L573.168 65.5052
L572.696 66.1634
L572.224 66.328
L571.751 66.9863
L571.279 66.4926
L570.335 66.4926
L569.863 66.8217
L569.391 66.8217
L568.919 67.3154
L568.447 67.48
L567.975 67.48
L567.031 67.8092
L566.559 69.2903
L566.086 68.7966
L565.142 69.1257
L564.67 68.4674
L564.198 68.7966
L562.782 69.2903
L560.894 68.9612
L560.421 69.1257
L559.949 69.6194
L559.005 70.2777
L558.533 71.5943
L558.061 71.5943
L557.589 71.9234
L552.396 72.7463
L534.929 79.1646
L532.569 79.1646
L532.097 79.9874
L527.848 80.6457
L527.376 81.304
L525.015 81.304
L524.543 82.456
L523.599 82.7852
L523.127 83.7726
L521.711 83.7726
L521.239 84.1017
L519.823 84.9246
L519.35 84.9246
L518.878 85.0892
L518.406 85.7474
L516.046 85.0892
L515.574 85.2537
L515.102 85.0892
L513.685 85.0892
L512.269 85.912
L510.853 86.0766
L508.965 86.0766
L508.02 86.4057
L507.076 87.064
L506.604 87.5577
L505.66 87.5577
L504.716 87.8869
L504.244 88.3806
L503.772 88.3806
L502.356 90.3554
L500.939 90.3554
L500.467 91.8366
L495.746 93.8114
L494.33 93.976
L493.386 94.6343
L492.442 94.6343
L491.498 95.7863
L490.081 95.7863
L489.609 96.28
L488.665 96.6092
L488.193 97.2674
L485.833 98.0903
L484.888 99.0777
L484.888 99.0777" style="fill:none;stroke:#bfbf00;stroke-linecap:square;stroke-width:2;"/>
   </g>
   <g id="line2d_6">
    <path clip-path="url(#p472e73a826)" d="
M123.746 243.407
L123.746 13.0069" style="fill:none;stroke:#333333;stroke-linecap:square;"/>
   </g>
   <g id="line2d_7">
    <path clip-path="url(#p472e73a826)" d="
M138.853 243.407
L138.853 13.0069" style="fill:none;stroke:#cccccc;stroke-linecap:square;"/>
   </g>
   <g id="line2d_8">
    <path clip-path="url(#p472e73a826)" d="
M153.015 243.407
L153.015 13.0069" style="fill:none;stroke:#cccccc;stroke-linecap:square;"/>
   </g>
   <g id="line2d_9">
    <path clip-path="url(#p472e73a826)" d="
M168.594 243.407
L168.594 13.0069" style="fill:none;stroke:#cccccc;stroke-linecap:square;"/>
   </g>
   <g id="line2d_10">
    <path clip-path="url(#p472e73a826)" d="
M184.173 243.407
L184.173 13.0069" style="fill:none;stroke:#cccccc;stroke-linecap:square;"/>
   </g>
   <g id="line2d_11">
    <path clip-path="url(#p472e73a826)" d="
M190.31 243.407
L190.31 13.0069" style="fill:none;stroke:#cccccc;stroke-linecap:square;"/>
   </g>
   <g id="line2d_12">
    <path clip-path="url(#p472e73a826)" d="
M209.193 243.407
L209.193 13.0069" style="fill:none;stroke:#cccccc;stroke-linecap:square;"/>
   </g>
   <g id="line2d_13">
    <path clip-path="url(#p472e73a826)" d="
M225.244 243.407
L225.244 13.0069" style="fill:none;stroke:#cccccc;stroke-linecap:square;"/>
   </g>
   <g id="line2d_14">
    <path clip-path="url(#p472e73a826)" d="
M243.183 243.407
L243.183 13.0069" style="fill:none;stroke:#cccccc;stroke-linecap:square;"/>
   </g>
   <g id="line2d_15">
    <path clip-path="url(#p472e73a826)" d="
M257.345 243.407
L257.345 13.0069" style="fill:none;stroke:#cccccc;stroke-linecap:square;"/>
   </g>
   <g id="line2d_16">
    <path clip-path="url(#p472e73a826)" d="
M269.147 243.407
L269.147 13.0069" style="fill:none;stroke:#cccccc;stroke-linecap:square;"/>
   </g>
   <g id="line2d_17">
    <path clip-path="url(#p472e73a826)" d="
M284.726 243.407
L284.726 13.0069" style="fill:none;stroke:#cccccc;stroke-linecap:square;"/>
   </g>
   <g id="line2d_18">
    <path clip-path="url(#p472e73a826)" d="
M327.685 243.407
L327.685 13.0069" style="fill:none;stroke:#cccccc;stroke-linecap:square;"/>
   </g>
   <g id="line2d_19">
    <path clip-path="url(#p472e73a826)" d="
M319.188 243.407
L319.188 13.0069" style="fill:none;stroke:#333333;stroke-linecap:square;"/>
   </g>
   <g id="line2d_20">
    <path clip-path="url(#p472e73a826)" d="
M333.823 243.407
L333.823 13.0069" style="fill:none;stroke:#cccccc;stroke-linecap:square;"/>
   </g>
   <g id="line2d_21">
    <path clip-path="url(#p472e73a826)" d="
M347.041 243.407
L347.041 13.0069" style="fill:none;stroke:#cccccc;stroke-linecap:square;"/>
   </g>
   <g id="line2d_22">
    <path clip-path="url(#p472e73a826)" d="
M364.508 243.407
L364.508 13.0069" style="fill:none;stroke:#cccccc;stroke-linecap:square;"/>
   </g>
   <g id="line2d_23">
    <path clip-path="url(#p472e73a826)" d="
M395.193 243.407
L395.193 13.0069" style="fill:none;stroke:#cccccc;stroke-linecap:square;"/>
   </g>
   <g id="line2d_24">
    <path clip-path="url(#p472e73a826)" d="
M439.569 243.407
L439.569 13.0069" style="fill:none;stroke:#cccccc;stroke-linecap:square;"/>
   </g>
   <g id="line2d_25">
    <path clip-path="url(#p472e73a826)" d="
M482.528 243.407
L482.528 13.0069" style="fill:none;stroke:#cccccc;stroke-linecap:square;"/>
   </g>
   <g id="line2d_26">
    <path clip-path="url(#p472e73a826)" d="
M483 243.407
L483 13.0069" style="fill:none;stroke:#333333;stroke-linecap:square;"/>
   </g>
   <g id="line2d_27">
    <path clip-path="url(#p472e73a826)" d="
M561.838 243.407
L561.838 13.0069" style="fill:none;stroke:#cccccc;stroke-linecap:square;"/>
   </g>
   <g id="line2d_28">
    <path clip-path="url(#p472e73a826)" d="
M591.107 243.407
L591.107 13.0069" style="fill:none;stroke:#cccccc;stroke-linecap:square;"/>
   </g>
   <g id="line2d_29">
    <path clip-path="url(#p472e73a826)" d="
M611.878 243.407
L611.878 13.0069" style="fill:none;stroke:#333333;stroke-linecap:square;"/>
   </g>
   <g id="matplotlib.axis_1">
    <g id="xtick_1">
     <g id="line2d_30">
      <defs>
       <path d="
M0 0
L0 -4" id="m93b0483c22" style="stroke:#000000;stroke-width:0.5;"/>
      </defs>
      <g>
       <use style="stroke:#000000;stroke-width:0.5;" x="71.3453489848" xlink:href="#m93b0483c22" y="243.406875"/>
      </g>
     </g>
     <g id="line2d_31">
      <defs>
       <path d="
M0 0
L0 4" id="m741efc42ff" style="stroke:#000000;stroke-width:0.5;"/>
      </defs>
      <g>
       <use style="stroke:#000000;stroke-width:0.5;" x="71.3453489848" xlink:href="#m741efc42ff" y="13.006875"/>
      </g>
     </g>
     <g id="text_1">
      <!-- May 2014 -->
      <defs>
       <path d="
M9.8125 72.9062
L24.5156 72.9062
L43.1094 23.2969
L61.8125 72.9062
L76.5156 72.9062
L76.5156 0
L66.8906 0
L66.8906 64.0156
L48.0938 14.0156
L38.1875 14.0156
L19.3906 64.0156
L19.3906 0
L9.8125 0
z
" id="DejaVuSans-4d"/>
       <path d="
M12.4062 8.29688
L28.5156 8.29688
L28.5156 63.9219
L10.9844 60.4062
L10.9844 69.3906
L28.4219 72.9062
L38.2812 72.9062
L38.2812 8.29688
L54.3906 8.29688
L54.3906 0
L12.4062 0
z
" id="DejaVuSans-31"/>
       <path d="
M31.7812 66.4062
Q24.1719 66.4062 20.3281 58.9062
Q16.5 51.4219 16.5 36.375
Q16.5 21.3906 20.3281 13.8906
Q24.1719 6.39062 31.7812 6.39062
Q39.4531 6.39062 43.2812 13.8906
Q47.125 21.3906 47.125 36.375
Q47.125 51.4219 43.2812 58.9062
Q39.4531 66.4062 31.7812 66.4062
M31.7812 74.2188
Q44.0469 74.2188 50.5156 64.5156
Q56.9844 54.8281 56.9844 36.375
Q56.9844 17.9688 50.5156 8.26562
Q44.0469 -1.42188 31.7812 -1.42188
Q19.5312 -1.42188 13.0625 8.26562
Q6.59375 17.9688 6.59375 36.375
Q6.59375 54.8281 13.0625 64.5156
Q19.5312 74.2188 31.7812 74.2188" id="DejaVuSans-30"/>
       <path id="DejaVuSans-20"/>
       <path d="
M19.1875 8.29688
L53.6094 8.29688
L53.6094 0
L7.32812 0
L7.32812 8.29688
Q12.9375 14.1094 22.625 23.8906
Q32.3281 33.6875 34.8125 36.5312
Q39.5469 41.8438 41.4219 45.5312
Q43.3125 49.2188 43.3125 52.7812
Q43.3125 58.5938 39.2344 62.25
Q35.1562 65.9219 28.6094 65.9219
Q23.9688 65.9219 18.8125 64.3125
Q13.6719 62.7031 7.8125 59.4219
L7.8125 69.3906
Q13.7656 71.7812 18.9375 73
Q24.125 74.2188 28.4219 74.2188
Q39.75 74.2188 46.4844 68.5469
Q53.2188 62.8906 53.2188 53.4219
Q53.2188 48.9219 51.5312 44.8906
Q49.8594 40.875 45.4062 35.4062
Q44.1875 33.9844 37.6406 27.2188
Q31.1094 20.4531 19.1875 8.29688" id="DejaVuSans-32"/>
       <path d="
M32.1719 -5.07812
Q28.375 -14.8438 24.75 -17.8125
Q21.1406 -20.7969 15.0938 -20.7969
L7.90625 -20.7969
L7.90625 -13.2812
L13.1875 -13.2812
Q16.8906 -13.2812 18.9375 -11.5156
Q21 -9.76562 23.4844 -3.21875
L25.0938 0.875
L2.98438 54.6875
L12.5 54.6875
L29.5938 11.9219
L46.6875 54.6875
L56.2031 54.6875
z
" id="DejaVuSans-79"/>
       <path d="
M37.7969 64.3125
L12.8906 25.3906
L37.7969 25.3906
z

M35.2031 72.9062
L47.6094 72.9062
L47.6094 25.3906
L58.0156 25.3906
L58.0156 17.1875
L47.6094 17.1875
L47.6094 0
L37.7969 0
L37.7969 17.1875
L4.89062 17.1875
L4.89062 26.7031
z
" id="DejaVuSans-34"/>
       <path d="
M34.2812 27.4844
Q23.3906 27.4844 19.1875 25
Q14.9844 22.5156 14.9844 16.5
Q14.9844 11.7188 18.1406 8.90625
Q21.2969 6.10938 26.7031 6.10938
Q34.1875 6.10938 38.7031 11.4062
Q43.2188 16.7031 43.2188 25.4844
L43.2188 27.4844
z

M52.2031 31.2031
L52.2031 0
L43.2188 0
L43.2188 8.29688
Q40.1406 3.32812 35.5469 0.953125
Q30.9531 -1.42188 24.3125 -1.42188
Q15.9219 -1.42188 10.9531 3.29688
Q6 8.01562 6 15.9219
Q6 25.1406 12.1719 29.8281
Q18.3594 34.5156 30.6094 34.5156
L43.2188 34.5156
L43.2188 35.4062
Q43.2188 41.6094 39.1406 45
Q35.0625 48.3906 27.6875 48.3906
Q23 48.3906 18.5469 47.2656
Q14.1094 46.1406 10.0156 43.8906
L10.0156 52.2031
Q14.9375 54.1094 19.5781 55.0469
Q24.2188 56 28.6094 56
Q40.4844 56 46.3438 49.8438
Q52.2031 43.7031 52.2031 31.2031" id="DejaVuSans-61"/>
      </defs>
      <g transform="translate(74.6565989848 305.8975)rotate(-90.0)scale(0.12 -0.12)">
       <use xlink:href="#DejaVuSans-4d"/>
       <use x="86.279296875" xlink:href="#DejaVuSans-61"/>
       <use x="147.55859375" xlink:href="#DejaVuSans-79"/>
       <use x="206.73828125" xlink:href="#DejaVuSans-20"/>
       <use x="238.525390625" xlink:href="#DejaVuSans-32"/>
       <use x="302.1484375" xlink:href="#DejaVuSans-30"/>
       <use x="365.771484375" xlink:href="#DejaVuSans-31"/>
       <use x="429.39453125" xlink:href="#DejaVuSans-34"/>
      </g>
     </g>
    </g>
    <g id="xtick_2">
     <g id="line2d_32">
      <g>
       <use style="stroke:#000000;stroke-width:0.5;" x="129.411338833" xlink:href="#m93b0483c22" y="243.406875"/>
      </g>
     </g>
     <g id="line2d_33">
      <g>
       <use style="stroke:#000000;stroke-width:0.5;" x="129.411338833" xlink:href="#m741efc42ff" y="13.006875"/>
      </g>
     </g>
     <g id="text_2">
      <!-- Sep 2014 -->
      <defs>
       <path d="
M53.5156 70.5156
L53.5156 60.8906
Q47.9062 63.5781 42.9219 64.8906
Q37.9375 66.2188 33.2969 66.2188
Q25.25 66.2188 20.875 63.0938
Q16.5 59.9688 16.5 54.2031
Q16.5 49.3594 19.4062 46.8906
Q22.3125 44.4375 30.4219 42.9219
L36.375 41.7031
Q47.4062 39.5938 52.6562 34.2969
Q57.9062 29 57.9062 20.125
Q57.9062 9.51562 50.7969 4.04688
Q43.7031 -1.42188 29.9844 -1.42188
Q24.8125 -1.42188 18.9688 -0.25
Q13.1406 0.921875 6.89062 3.21875
L6.89062 13.375
Q12.8906 10.0156 18.6562 8.29688
Q24.4219 6.59375 29.9844 6.59375
Q38.4219 6.59375 43.0156 9.90625
Q47.6094 13.2344 47.6094 19.3906
Q47.6094 24.75 44.3125 27.7812
Q41.0156 30.8125 33.5 32.3281
L27.4844 33.5
Q16.4531 35.6875 11.5156 40.375
Q6.59375 45.0625 6.59375 53.4219
Q6.59375 63.0938 13.4062 68.6562
Q20.2188 74.2188 32.1719 74.2188
Q37.3125 74.2188 42.625 73.2812
Q47.9531 72.3594 53.5156 70.5156" id="DejaVuSans-53"/>
       <path d="
M56.2031 29.5938
L56.2031 25.2031
L14.8906 25.2031
Q15.4844 15.9219 20.4844 11.0625
Q25.4844 6.20312 34.4219 6.20312
Q39.5938 6.20312 44.4531 7.46875
Q49.3125 8.73438 54.1094 11.2812
L54.1094 2.78125
Q49.2656 0.734375 44.1875 -0.34375
Q39.1094 -1.42188 33.8906 -1.42188
Q20.7969 -1.42188 13.1562 6.1875
Q5.51562 13.8125 5.51562 26.8125
Q5.51562 40.2344 12.7656 48.1094
Q20.0156 56 32.3281 56
Q43.3594 56 49.7812 48.8906
Q56.2031 41.7969 56.2031 29.5938
M47.2188 32.2344
Q47.125 39.5938 43.0938 43.9844
Q39.0625 48.3906 32.4219 48.3906
Q24.9062 48.3906 20.3906 44.1406
Q15.875 39.8906 15.1875 32.1719
z
" id="DejaVuSans-65"/>
       <path d="
M18.1094 8.20312
L18.1094 -20.7969
L9.07812 -20.7969
L9.07812 54.6875
L18.1094 54.6875
L18.1094 46.3906
Q20.9531 51.2656 25.2656 53.625
Q29.5938 56 35.5938 56
Q45.5625 56 51.7812 48.0938
Q58.0156 40.1875 58.0156 27.2969
Q58.0156 14.4062 51.7812 6.48438
Q45.5625 -1.42188 35.5938 -1.42188
Q29.5938 -1.42188 25.2656 0.953125
Q20.9531 3.32812 18.1094 8.20312
M48.6875 27.2969
Q48.6875 37.2031 44.6094 42.8438
Q40.5312 48.4844 33.4062 48.4844
Q26.2656 48.4844 22.1875 42.8438
Q18.1094 37.2031 18.1094 27.2969
Q18.1094 17.3906 22.1875 11.75
Q26.2656 6.10938 33.4062 6.10938
Q40.5312 6.10938 44.6094 11.75
Q48.6875 17.3906 48.6875 27.2969" id="DejaVuSans-70"/>
      </defs>
      <g transform="translate(132.722588833 303.7075)rotate(-90.0)scale(0.12 -0.12)">
       <use xlink:href="#DejaVuSans-53"/>
       <use x="63.4765625" xlink:href="#DejaVuSans-65"/>
       <use x="125.0" xlink:href="#DejaVuSans-70"/>
       <use x="188.4765625" xlink:href="#DejaVuSans-20"/>
       <use x="220.263671875" xlink:href="#DejaVuSans-32"/>
       <use x="283.88671875" xlink:href="#DejaVuSans-30"/>
       <use x="347.509765625" xlink:href="#DejaVuSans-31"/>
       <use x="411.1328125" xlink:href="#DejaVuSans-34"/>
      </g>
     </g>
    </g>
    <g id="xtick_3">
     <g id="line2d_34">
      <g>
       <use style="stroke:#000000;stroke-width:0.5;" x="187.005247462" xlink:href="#m93b0483c22" y="243.406875"/>
      </g>
     </g>
     <g id="line2d_35">
      <g>
       <use style="stroke:#000000;stroke-width:0.5;" x="187.005247462" xlink:href="#m741efc42ff" y="13.006875"/>
      </g>
     </g>
     <g id="text_3">
      <!-- Jan 2015 -->
      <defs>
       <path d="
M54.8906 33.0156
L54.8906 0
L45.9062 0
L45.9062 32.7188
Q45.9062 40.4844 42.875 44.3281
Q39.8438 48.1875 33.7969 48.1875
Q26.5156 48.1875 22.3125 43.5469
Q18.1094 38.9219 18.1094 30.9062
L18.1094 0
L9.07812 0
L9.07812 54.6875
L18.1094 54.6875
L18.1094 46.1875
Q21.3438 51.125 25.7031 53.5625
Q30.0781 56 35.7969 56
Q45.2188 56 50.0469 50.1719
Q54.8906 44.3438 54.8906 33.0156" id="DejaVuSans-6e"/>
       <path d="
M10.7969 72.9062
L49.5156 72.9062
L49.5156 64.5938
L19.8281 64.5938
L19.8281 46.7344
Q21.9688 47.4688 24.1094 47.8281
Q26.2656 48.1875 28.4219 48.1875
Q40.625 48.1875 47.75 41.5
Q54.8906 34.8125 54.8906 23.3906
Q54.8906 11.625 47.5625 5.09375
Q40.2344 -1.42188 26.9062 -1.42188
Q22.3125 -1.42188 17.5469 -0.640625
Q12.7969 0.140625 7.71875 1.70312
L7.71875 11.625
Q12.1094 9.23438 16.7969 8.0625
Q21.4844 6.89062 26.7031 6.89062
Q35.1562 6.89062 40.0781 11.3281
Q45.0156 15.7656 45.0156 23.3906
Q45.0156 31 40.0781 35.4375
Q35.1562 39.8906 26.7031 39.8906
Q22.75 39.8906 18.8125 39.0156
Q14.8906 38.1406 10.7969 36.2812
z
" id="DejaVuSans-35"/>
       <path d="
M9.8125 72.9062
L19.6719 72.9062
L19.6719 5.07812
Q19.6719 -8.10938 14.6719 -14.0625
Q9.67188 -20.0156 -1.42188 -20.0156
L-5.17188 -20.0156
L-5.17188 -11.7188
L-2.09375 -11.7188
Q4.4375 -11.7188 7.125 -8.04688
Q9.8125 -4.39062 9.8125 5.07812
z
" id="DejaVuSans-4a"/>
      </defs>
      <g transform="translate(190.316497462 299.831875)rotate(-90.0)scale(0.12 -0.12)">
       <use xlink:href="#DejaVuSans-4a"/>
       <use x="29.4921875" xlink:href="#DejaVuSans-61"/>
       <use x="90.771484375" xlink:href="#DejaVuSans-6e"/>
       <use x="154.150390625" xlink:href="#DejaVuSans-20"/>
       <use x="185.9375" xlink:href="#DejaVuSans-32"/>
       <use x="249.560546875" xlink:href="#DejaVuSans-30"/>
       <use x="313.18359375" xlink:href="#DejaVuSans-31"/>
       <use x="376.806640625" xlink:href="#DejaVuSans-35"/>
      </g>
     </g>
    </g>
    <g id="xtick_4">
     <g id="line2d_36">
      <g>
       <use style="stroke:#000000;stroke-width:0.5;" x="243.654993655" xlink:href="#m93b0483c22" y="243.406875"/>
      </g>
     </g>
     <g id="line2d_37">
      <g>
       <use style="stroke:#000000;stroke-width:0.5;" x="243.654993655" xlink:href="#m741efc42ff" y="13.006875"/>
      </g>
     </g>
     <g id="text_4">
      <!-- May 2015 -->
      <g transform="translate(246.966243655 305.5225)rotate(-90.0)scale(0.12 -0.12)">
       <use xlink:href="#DejaVuSans-4d"/>
       <use x="86.279296875" xlink:href="#DejaVuSans-61"/>
       <use x="147.55859375" xlink:href="#DejaVuSans-79"/>
       <use x="206.73828125" xlink:href="#DejaVuSans-20"/>
       <use x="238.525390625" xlink:href="#DejaVuSans-32"/>
       <use x="302.1484375" xlink:href="#DejaVuSans-30"/>
       <use x="365.771484375" xlink:href="#DejaVuSans-31"/>
       <use x="429.39453125" xlink:href="#DejaVuSans-35"/>
      </g>
     </g>
    </g>
    <g id="xtick_5">
     <g id="line2d_38">
      <g>
       <use style="stroke:#000000;stroke-width:0.5;" x="301.720983503" xlink:href="#m93b0483c22" y="243.406875"/>
      </g>
     </g>
     <g id="line2d_39">
      <g>
       <use style="stroke:#000000;stroke-width:0.5;" x="301.720983503" xlink:href="#m741efc42ff" y="13.006875"/>
      </g>
     </g>
     <g id="text_5">
      <!-- Sep 2015 -->
      <g transform="translate(305.032233503 303.3325)rotate(-90.0)scale(0.12 -0.12)">
       <use xlink:href="#DejaVuSans-53"/>
       <use x="63.4765625" xlink:href="#DejaVuSans-65"/>
       <use x="125.0" xlink:href="#DejaVuSans-70"/>
       <use x="188.4765625" xlink:href="#DejaVuSans-20"/>
       <use x="220.263671875" xlink:href="#DejaVuSans-32"/>
       <use x="283.88671875" xlink:href="#DejaVuSans-30"/>
       <use x="347.509765625" xlink:href="#DejaVuSans-31"/>
       <use x="411.1328125" xlink:href="#DejaVuSans-35"/>
      </g>
     </g>
    </g>
    <g id="xtick_6">
     <g id="line2d_40">
      <g>
       <use style="stroke:#000000;stroke-width:0.5;" x="359.314892132" xlink:href="#m93b0483c22" y="243.406875"/>
      </g>
     </g>
     <g id="line2d_41">
      <g>
       <use style="stroke:#000000;stroke-width:0.5;" x="359.314892132" xlink:href="#m741efc42ff" y="13.006875"/>
      </g>
     </g>
     <g id="text_6">
      <!-- Jan 2016 -->
      <defs>
       <path d="
M33.0156 40.375
Q26.375 40.375 22.4844 35.8281
Q18.6094 31.2969 18.6094 23.3906
Q18.6094 15.5312 22.4844 10.9531
Q26.375 6.39062 33.0156 6.39062
Q39.6562 6.39062 43.5312 10.9531
Q47.4062 15.5312 47.4062 23.3906
Q47.4062 31.2969 43.5312 35.8281
Q39.6562 40.375 33.0156 40.375
M52.5938 71.2969
L52.5938 62.3125
Q48.875 64.0625 45.0938 64.9844
Q41.3125 65.9219 37.5938 65.9219
Q27.8281 65.9219 22.6719 59.3281
Q17.5312 52.7344 16.7969 39.4062
Q19.6719 43.6562 24.0156 45.9219
Q28.375 48.1875 33.5938 48.1875
Q44.5781 48.1875 50.9531 41.5156
Q57.3281 34.8594 57.3281 23.3906
Q57.3281 12.1562 50.6875 5.35938
Q44.0469 -1.42188 33.0156 -1.42188
Q20.3594 -1.42188 13.6719 8.26562
Q6.98438 17.9688 6.98438 36.375
Q6.98438 53.6562 15.1875 63.9375
Q23.3906 74.2188 37.2031 74.2188
Q40.9219 74.2188 44.7031 73.4844
Q48.4844 72.75 52.5938 71.2969" id="DejaVuSans-36"/>
      </defs>
      <g transform="translate(362.626142132 300.124375)rotate(-90.0)scale(0.12 -0.12)">
       <use xlink:href="#DejaVuSans-4a"/>
       <use x="29.4921875" xlink:href="#DejaVuSans-61"/>
       <use x="90.771484375" xlink:href="#DejaVuSans-6e"/>
       <use x="154.150390625" xlink:href="#DejaVuSans-20"/>
       <use x="185.9375" xlink:href="#DejaVuSans-32"/>
       <use x="249.560546875" xlink:href="#DejaVuSans-30"/>
       <use x="313.18359375" xlink:href="#DejaVuSans-31"/>
       <use x="376.806640625" xlink:href="#DejaVuSans-36"/>
      </g>
     </g>
    </g>
    <g id="xtick_7">
     <g id="line2d_42">
      <g>
       <use style="stroke:#000000;stroke-width:0.5;" x="416.436719543" xlink:href="#m93b0483c22" y="243.406875"/>
      </g>
     </g>
     <g id="line2d_43">
      <g>
       <use style="stroke:#000000;stroke-width:0.5;" x="416.436719543" xlink:href="#m741efc42ff" y="13.006875"/>
      </g>
     </g>
     <g id="text_7">
      <!-- May 2016 -->
      <g transform="translate(419.747969543 305.815)rotate(-90.0)scale(0.12 -0.12)">
       <use xlink:href="#DejaVuSans-4d"/>
       <use x="86.279296875" xlink:href="#DejaVuSans-61"/>
       <use x="147.55859375" xlink:href="#DejaVuSans-79"/>
       <use x="206.73828125" xlink:href="#DejaVuSans-20"/>
       <use x="238.525390625" xlink:href="#DejaVuSans-32"/>
       <use x="302.1484375" xlink:href="#DejaVuSans-30"/>
       <use x="365.771484375" xlink:href="#DejaVuSans-31"/>
       <use x="429.39453125" xlink:href="#DejaVuSans-36"/>
      </g>
     </g>
    </g>
    <g id="xtick_8">
     <g id="line2d_44">
      <g>
       <use style="stroke:#000000;stroke-width:0.5;" x="474.502709391" xlink:href="#m93b0483c22" y="243.406875"/>
      </g>
     </g>
     <g id="line2d_45">
      <g>
       <use style="stroke:#000000;stroke-width:0.5;" x="474.502709391" xlink:href="#m741efc42ff" y="13.006875"/>
      </g>
     </g>
     <g id="text_8">
      <!-- Sep 2016 -->
      <g transform="translate(477.813959391 303.625)rotate(-90.0)scale(0.12 -0.12)">
       <use xlink:href="#DejaVuSans-53"/>
       <use x="63.4765625" xlink:href="#DejaVuSans-65"/>
       <use x="125.0" xlink:href="#DejaVuSans-70"/>
       <use x="188.4765625" xlink:href="#DejaVuSans-20"/>
       <use x="220.263671875" xlink:href="#DejaVuSans-32"/>
       <use x="283.88671875" xlink:href="#DejaVuSans-30"/>
       <use x="347.509765625" xlink:href="#DejaVuSans-31"/>
       <use x="411.1328125" xlink:href="#DejaVuSans-36"/>
      </g>
     </g>
    </g>
    <g id="xtick_9">
     <g id="line2d_46">
      <g>
       <use style="stroke:#000000;stroke-width:0.5;" x="532.09661802" xlink:href="#m93b0483c22" y="243.406875"/>
      </g>
     </g>
     <g id="line2d_47">
      <g>
       <use style="stroke:#000000;stroke-width:0.5;" x="532.09661802" xlink:href="#m741efc42ff" y="13.006875"/>
      </g>
     </g>
     <g id="text_9">
      <!-- Jan 2017 -->
      <defs>
       <path d="
M8.20312 72.9062
L55.0781 72.9062
L55.0781 68.7031
L28.6094 0
L18.3125 0
L43.2188 64.5938
L8.20312 64.5938
z
" id="DejaVuSans-37"/>
      </defs>
      <g transform="translate(535.40786802 299.854375)rotate(-90.0)scale(0.12 -0.12)">
       <use xlink:href="#DejaVuSans-4a"/>
       <use x="29.4921875" xlink:href="#DejaVuSans-61"/>
       <use x="90.771484375" xlink:href="#DejaVuSans-6e"/>
       <use x="154.150390625" xlink:href="#DejaVuSans-20"/>
       <use x="185.9375" xlink:href="#DejaVuSans-32"/>
       <use x="249.560546875" xlink:href="#DejaVuSans-30"/>
       <use x="313.18359375" xlink:href="#DejaVuSans-31"/>
       <use x="376.806640625" xlink:href="#DejaVuSans-37"/>
      </g>
     </g>
    </g>
    <g id="xtick_10">
     <g id="line2d_48">
      <g>
       <use style="stroke:#000000;stroke-width:0.5;" x="588.746364213" xlink:href="#m93b0483c22" y="243.406875"/>
      </g>
     </g>
     <g id="line2d_49">
      <g>
       <use style="stroke:#000000;stroke-width:0.5;" x="588.746364213" xlink:href="#m741efc42ff" y="13.006875"/>
      </g>
     </g>
     <g id="text_10">
      <!-- May 2017 -->
      <g transform="translate(592.057614213 305.545)rotate(-90.0)scale(0.12 -0.12)">
       <use xlink:href="#DejaVuSans-4d"/>
       <use x="86.279296875" xlink:href="#DejaVuSans-61"/>
       <use x="147.55859375" xlink:href="#DejaVuSans-79"/>
       <use x="206.73828125" xlink:href="#DejaVuSans-20"/>
       <use x="238.525390625" xlink:href="#DejaVuSans-32"/>
       <use x="302.1484375" xlink:href="#DejaVuSans-30"/>
       <use x="365.771484375" xlink:href="#DejaVuSans-31"/>
       <use x="429.39453125" xlink:href="#DejaVuSans-37"/>
      </g>
     </g>
    </g>
   </g>
   <g id="matplotlib.axis_2">
    <g id="ytick_1">
     <g id="line2d_50">
      <defs>
       <path d="
M0 0
L4 0" id="m728421d6d4" style="stroke:#000000;stroke-width:0.5;"/>
      </defs>
      <g>
       <use style="stroke:#000000;stroke-width:0.5;" x="56.23875" xlink:href="#m728421d6d4" y="243.406875"/>
      </g>
     </g>
     <g id="line2d_51">
      <defs>
       <path d="
M0 0
L-4 0" id="mcb0005524f" style="stroke:#000000;stroke-width:0.5;"/>
      </defs>
      <g>
       <use style="stroke:#000000;stroke-width:0.5;" x="614.23875" xlink:href="#mcb0005524f" y="243.406875"/>
      </g>
     </g>
     <g id="text_11">
      <!-- 200 -->
      <g transform="translate(31.01 246.718125)scale(0.12 -0.12)">
       <use xlink:href="#DejaVuSans-32"/>
       <use x="63.623046875" xlink:href="#DejaVuSans-30"/>
       <use x="127.24609375" xlink:href="#DejaVuSans-30"/>
      </g>
     </g>
    </g>
    <g id="ytick_2">
     <g id="line2d_52">
      <g>
       <use style="stroke:#000000;stroke-width:0.5;" x="56.23875" xlink:href="#m728421d6d4" y="210.492589286"/>
      </g>
     </g>
     <g id="line2d_53">
      <g>
       <use style="stroke:#000000;stroke-width:0.5;" x="614.23875" xlink:href="#mcb0005524f" y="210.492589286"/>
      </g>
     </g>
     <g id="text_12">
      <!-- 400 -->
      <g transform="translate(30.7175 213.803839286)scale(0.12 -0.12)">
       <use xlink:href="#DejaVuSans-34"/>
       <use x="63.623046875" xlink:href="#DejaVuSans-30"/>
       <use x="127.24609375" xlink:href="#DejaVuSans-30"/>
      </g>
     </g>
    </g>
    <g id="ytick_3">
     <g id="line2d_54">
      <g>
       <use style="stroke:#000000;stroke-width:0.5;" x="56.23875" xlink:href="#m728421d6d4" y="177.578303571"/>
      </g>
     </g>
     <g id="line2d_55">
      <g>
       <use style="stroke:#000000;stroke-width:0.5;" x="614.23875" xlink:href="#mcb0005524f" y="177.578303571"/>
      </g>
     </g>
     <g id="text_13">
      <!-- 600 -->
      <g transform="translate(30.96875 180.889553571)scale(0.12 -0.12)">
       <use xlink:href="#DejaVuSans-36"/>
       <use x="63.623046875" xlink:href="#DejaVuSans-30"/>
       <use x="127.24609375" xlink:href="#DejaVuSans-30"/>
      </g>
     </g>
    </g>
    <g id="ytick_4">
     <g id="line2d_56">
      <g>
       <use style="stroke:#000000;stroke-width:0.5;" x="56.23875" xlink:href="#m728421d6d4" y="144.664017857"/>
      </g>
     </g>
     <g id="line2d_57">
      <g>
       <use style="stroke:#000000;stroke-width:0.5;" x="614.23875" xlink:href="#mcb0005524f" y="144.664017857"/>
      </g>
     </g>
     <g id="text_14">
      <!-- 800 -->
      <defs>
       <path d="
M31.7812 34.625
Q24.75 34.625 20.7188 30.8594
Q16.7031 27.0938 16.7031 20.5156
Q16.7031 13.9219 20.7188 10.1562
Q24.75 6.39062 31.7812 6.39062
Q38.8125 6.39062 42.8594 10.1719
Q46.9219 13.9688 46.9219 20.5156
Q46.9219 27.0938 42.8906 30.8594
Q38.875 34.625 31.7812 34.625
M21.9219 38.8125
Q15.5781 40.375 12.0312 44.7188
Q8.5 49.0781 8.5 55.3281
Q8.5 64.0625 14.7188 69.1406
Q20.9531 74.2188 31.7812 74.2188
Q42.6719 74.2188 48.875 69.1406
Q55.0781 64.0625 55.0781 55.3281
Q55.0781 49.0781 51.5312 44.7188
Q48 40.375 41.7031 38.8125
Q48.8281 37.1562 52.7969 32.3125
Q56.7812 27.4844 56.7812 20.5156
Q56.7812 9.90625 50.3125 4.23438
Q43.8438 -1.42188 31.7812 -1.42188
Q19.7344 -1.42188 13.25 4.23438
Q6.78125 9.90625 6.78125 20.5156
Q6.78125 27.4844 10.7812 32.3125
Q14.7969 37.1562 21.9219 38.8125
M18.3125 54.3906
Q18.3125 48.7344 21.8438 45.5625
Q25.3906 42.3906 31.7812 42.3906
Q38.1406 42.3906 41.7188 45.5625
Q45.3125 48.7344 45.3125 54.3906
Q45.3125 60.0625 41.7188 63.2344
Q38.1406 66.4062 31.7812 66.4062
Q25.3906 66.4062 21.8438 63.2344
Q18.3125 60.0625 18.3125 54.3906" id="DejaVuSans-38"/>
      </defs>
      <g transform="translate(30.944375 147.975267857)scale(0.12 -0.12)">
       <use xlink:href="#DejaVuSans-38"/>
       <use x="63.623046875" xlink:href="#DejaVuSans-30"/>
       <use x="127.24609375" xlink:href="#DejaVuSans-30"/>
      </g>
     </g>
    </g>
    <g id="ytick_5">
     <g id="line2d_58">
      <g>
       <use style="stroke:#000000;stroke-width:0.5;" x="56.23875" xlink:href="#m728421d6d4" y="111.749732143"/>
      </g>
     </g>
     <g id="line2d_59">
      <g>
       <use style="stroke:#000000;stroke-width:0.5;" x="614.23875" xlink:href="#mcb0005524f" y="111.749732143"/>
      </g>
     </g>
     <g id="text_15">
      <!-- 1000 -->
      <g transform="translate(23.81375 115.060982143)scale(0.12 -0.12)">
       <use xlink:href="#DejaVuSans-31"/>
       <use x="63.623046875" xlink:href="#DejaVuSans-30"/>
       <use x="127.24609375" xlink:href="#DejaVuSans-30"/>
       <use x="190.869140625" xlink:href="#DejaVuSans-30"/>
      </g>
     </g>
    </g>
    <g id="ytick_6">
     <g id="line2d_60">
      <g>
       <use style="stroke:#000000;stroke-width:0.5;" x="56.23875" xlink:href="#m728421d6d4" y="78.8354464286"/>
      </g>
     </g>
     <g id="line2d_61">
      <g>
       <use style="stroke:#000000;stroke-width:0.5;" x="614.23875" xlink:href="#mcb0005524f" y="78.8354464286"/>
      </g>
     </g>
     <g id="text_16">
      <!-- 1200 -->
      <g transform="translate(23.81375 82.1466964286)scale(0.12 -0.12)">
       <use xlink:href="#DejaVuSans-31"/>
       <use x="63.623046875" xlink:href="#DejaVuSans-32"/>
       <use x="127.24609375" xlink:href="#DejaVuSans-30"/>
       <use x="190.869140625" xlink:href="#DejaVuSans-30"/>
      </g>
     </g>
    </g>
    <g id="ytick_7">
     <g id="line2d_62">
      <g>
       <use style="stroke:#000000;stroke-width:0.5;" x="56.23875" xlink:href="#m728421d6d4" y="45.9211607143"/>
      </g>
     </g>
     <g id="line2d_63">
      <g>
       <use style="stroke:#000000;stroke-width:0.5;" x="614.23875" xlink:href="#mcb0005524f" y="45.9211607143"/>
      </g>
     </g>
     <g id="text_17">
      <!-- 1400 -->
      <g transform="translate(23.81375 49.2324107143)scale(0.12 -0.12)">
       <use xlink:href="#DejaVuSans-31"/>
       <use x="63.623046875" xlink:href="#DejaVuSans-34"/>
       <use x="127.24609375" xlink:href="#DejaVuSans-30"/>
       <use x="190.869140625" xlink:href="#DejaVuSans-30"/>
      </g>
     </g>
    </g>
    <g id="ytick_8">
     <g id="line2d_64">
      <g>
       <use style="stroke:#000000;stroke-width:0.5;" x="56.23875" xlink:href="#m728421d6d4" y="13.006875"/>
      </g>
     </g>
     <g id="line2d_65">
      <g>
       <use style="stroke:#000000;stroke-width:0.5;" x="614.23875" xlink:href="#mcb0005524f" y="13.006875"/>
      </g>
     </g>
     <g id="text_18">
      <!-- 1600 -->
      <g transform="translate(23.81375 16.318125)scale(0.12 -0.12)">
       <use xlink:href="#DejaVuSans-31"/>
       <use x="63.623046875" xlink:href="#DejaVuSans-36"/>
       <use x="127.24609375" xlink:href="#DejaVuSans-30"/>
       <use x="190.869140625" xlink:href="#DejaVuSans-30"/>
      </g>
     </g>
    </g>
    <g id="text_19">
     <!-- Number of Tagged Packages -->
     <defs>
      <path d="
M9.8125 72.9062
L23.0938 72.9062
L55.4219 11.9219
L55.4219 72.9062
L64.9844 72.9062
L64.9844 0
L51.7031 0
L19.3906 60.9844
L19.3906 0
L9.8125 0
z
" id="DejaVuSans-4e"/>
      <path d="
M19.6719 64.7969
L19.6719 37.4062
L32.0781 37.4062
Q38.9688 37.4062 42.7188 40.9688
Q46.4844 44.5312 46.4844 51.125
Q46.4844 57.6719 42.7188 61.2344
Q38.9688 64.7969 32.0781 64.7969
z

M9.8125 72.9062
L32.0781 72.9062
Q44.3438 72.9062 50.6094 67.3594
Q56.8906 61.8125 56.8906 51.125
Q56.8906 40.3281 50.6094 34.8125
Q44.3438 29.2969 32.0781 29.2969
L19.6719 29.2969
L19.6719 0
L9.8125 0
z
" id="DejaVuSans-50"/>
      <path d="
M30.6094 48.3906
Q23.3906 48.3906 19.1875 42.75
Q14.9844 37.1094 14.9844 27.2969
Q14.9844 17.4844 19.1562 11.8438
Q23.3438 6.20312 30.6094 6.20312
Q37.7969 6.20312 41.9844 11.8594
Q46.1875 17.5312 46.1875 27.2969
Q46.1875 37.0156 41.9844 42.7031
Q37.7969 48.3906 30.6094 48.3906
M30.6094 56
Q42.3281 56 49.0156 48.375
Q55.7188 40.7656 55.7188 27.2969
Q55.7188 13.875 49.0156 6.21875
Q42.3281 -1.42188 30.6094 -1.42188
Q18.8438 -1.42188 12.1719 6.21875
Q5.51562 13.875 5.51562 27.2969
Q5.51562 40.7656 12.1719 48.375
Q18.8438 56 30.6094 56" id="DejaVuSans-6f"/>
      <path d="
M52 44.1875
Q55.375 50.25 60.0625 53.125
Q64.75 56 71.0938 56
Q79.6406 56 84.2812 50.0156
Q88.9219 44.0469 88.9219 33.0156
L88.9219 0
L79.8906 0
L79.8906 32.7188
Q79.8906 40.5781 77.0938 44.375
Q74.3125 48.1875 68.6094 48.1875
Q61.625 48.1875 57.5625 43.5469
Q53.5156 38.9219 53.5156 30.9062
L53.5156 0
L44.4844 0
L44.4844 32.7188
Q44.4844 40.625 41.7031 44.4062
Q38.9219 48.1875 33.1094 48.1875
Q26.2188 48.1875 22.1562 43.5312
Q18.1094 38.875 18.1094 30.9062
L18.1094 0
L9.07812 0
L9.07812 54.6875
L18.1094 54.6875
L18.1094 46.1875
Q21.1875 51.2188 25.4844 53.6094
Q29.7812 56 35.6875 56
Q41.6562 56 45.8281 52.9688
Q50 49.9531 52 44.1875" id="DejaVuSans-6d"/>
      <path d="
M9.07812 75.9844
L18.1094 75.9844
L18.1094 31.1094
L44.9219 54.6875
L56.3906 54.6875
L27.3906 29.1094
L57.625 0
L45.9062 0
L18.1094 26.7031
L18.1094 0
L9.07812 0
z
" id="DejaVuSans-6b"/>
      <path d="
M37.1094 75.9844
L37.1094 68.5
L28.5156 68.5
Q23.6875 68.5 21.7969 66.5469
Q19.9219 64.5938 19.9219 59.5156
L19.9219 54.6875
L34.7188 54.6875
L34.7188 47.7031
L19.9219 47.7031
L19.9219 0
L10.8906 0
L10.8906 47.7031
L2.29688 47.7031
L2.29688 54.6875
L10.8906 54.6875
L10.8906 58.5
Q10.8906 67.625 15.1406 71.7969
Q19.3906 75.9844 28.6094 75.9844
z
" id="DejaVuSans-66"/>
      <path d="
M8.5 21.5781
L8.5 54.6875
L17.4844 54.6875
L17.4844 21.9219
Q17.4844 14.1562 20.5 10.2656
Q23.5312 6.39062 29.5938 6.39062
Q36.8594 6.39062 41.0781 11.0312
Q45.3125 15.6719 45.3125 23.6875
L45.3125 54.6875
L54.2969 54.6875
L54.2969 0
L45.3125 0
L45.3125 8.40625
Q42.0469 3.42188 37.7188 1
Q33.4062 -1.42188 27.6875 -1.42188
Q18.2656 -1.42188 13.375 4.4375
Q8.5 10.2969 8.5 21.5781
M31.1094 56
z
" id="DejaVuSans-75"/>
      <path d="
M45.4062 27.9844
Q45.4062 37.75 41.375 43.1094
Q37.3594 48.4844 30.0781 48.4844
Q22.8594 48.4844 18.8281 43.1094
Q14.7969 37.75 14.7969 27.9844
Q14.7969 18.2656 18.8281 12.8906
Q22.8594 7.51562 30.0781 7.51562
Q37.3594 7.51562 41.375 12.8906
Q45.4062 18.2656 45.4062 27.9844
M54.3906 6.78125
Q54.3906 -7.17188 48.1875 -13.9844
Q42 -20.7969 29.2031 -20.7969
Q24.4688 -20.7969 20.2656 -20.0938
Q16.0625 -19.3906 12.1094 -17.9219
L12.1094 -9.1875
Q16.0625 -11.3281 19.9219 -12.3438
Q23.7812 -13.375 27.7812 -13.375
Q36.625 -13.375 41.0156 -8.76562
Q45.4062 -4.15625 45.4062 5.17188
L45.4062 9.625
Q42.625 4.78125 38.2812 2.39062
Q33.9375 0 27.875 0
Q17.8281 0 11.6719 7.65625
Q5.51562 15.3281 5.51562 27.9844
Q5.51562 40.6719 11.6719 48.3281
Q17.8281 56 27.875 56
Q33.9375 56 38.2812 53.6094
Q42.625 51.2188 45.4062 46.3906
L45.4062 54.6875
L54.3906 54.6875
z
" id="DejaVuSans-67"/>
      <path d="
M45.4062 46.3906
L45.4062 75.9844
L54.3906 75.9844
L54.3906 0
L45.4062 0
L45.4062 8.20312
Q42.5781 3.32812 38.25 0.953125
Q33.9375 -1.42188 27.875 -1.42188
Q17.9688 -1.42188 11.7344 6.48438
Q5.51562 14.4062 5.51562 27.2969
Q5.51562 40.1875 11.7344 48.0938
Q17.9688 56 27.875 56
Q33.9375 56 38.25 53.625
Q42.5781 51.2656 45.4062 46.3906
M14.7969 27.2969
Q14.7969 17.3906 18.875 11.75
Q22.9531 6.10938 30.0781 6.10938
Q37.2031 6.10938 41.2969 11.75
Q45.4062 17.3906 45.4062 27.2969
Q45.4062 37.2031 41.2969 42.8438
Q37.2031 48.4844 30.0781 48.4844
Q22.9531 48.4844 18.875 42.8438
Q14.7969 37.2031 14.7969 27.2969" id="DejaVuSans-64"/>
      <path d="
M-0.296875 72.9062
L61.375 72.9062
L61.375 64.5938
L35.5 64.5938
L35.5 0
L25.5938 0
L25.5938 64.5938
L-0.296875 64.5938
z
" id="DejaVuSans-54"/>
      <path d="
M48.6875 27.2969
Q48.6875 37.2031 44.6094 42.8438
Q40.5312 48.4844 33.4062 48.4844
Q26.2656 48.4844 22.1875 42.8438
Q18.1094 37.2031 18.1094 27.2969
Q18.1094 17.3906 22.1875 11.75
Q26.2656 6.10938 33.4062 6.10938
Q40.5312 6.10938 44.6094 11.75
Q48.6875 17.3906 48.6875 27.2969
M18.1094 46.3906
Q20.9531 51.2656 25.2656 53.625
Q29.5938 56 35.5938 56
Q45.5625 56 51.7812 48.0938
Q58.0156 40.1875 58.0156 27.2969
Q58.0156 14.4062 51.7812 6.48438
Q45.5625 -1.42188 35.5938 -1.42188
Q29.5938 -1.42188 25.2656 0.953125
Q20.9531 3.32812 18.1094 8.20312
L18.1094 0
L9.07812 0
L9.07812 75.9844
L18.1094 75.9844
z
" id="DejaVuSans-62"/>
      <path d="
M48.7812 52.5938
L48.7812 44.1875
Q44.9688 46.2969 41.1406 47.3438
Q37.3125 48.3906 33.4062 48.3906
Q24.6562 48.3906 19.8125 42.8438
Q14.9844 37.3125 14.9844 27.2969
Q14.9844 17.2812 19.8125 11.7344
Q24.6562 6.20312 33.4062 6.20312
Q37.3125 6.20312 41.1406 7.25
Q44.9688 8.29688 48.7812 10.4062
L48.7812 2.09375
Q45.0156 0.34375 40.9844 -0.53125
Q36.9688 -1.42188 32.4219 -1.42188
Q20.0625 -1.42188 12.7812 6.34375
Q5.51562 14.1094 5.51562 27.2969
Q5.51562 40.6719 12.8594 48.3281
Q20.2188 56 33.0156 56
Q37.1562 56 41.1094 55.1406
Q45.0625 54.2969 48.7812 52.5938" id="DejaVuSans-63"/>
      <path d="
M44.2812 53.0781
L44.2812 44.5781
Q40.4844 46.5312 36.375 47.5
Q32.2812 48.4844 27.875 48.4844
Q21.1875 48.4844 17.8438 46.4375
Q14.5 44.3906 14.5 40.2812
Q14.5 37.1562 16.8906 35.375
Q19.2812 33.5938 26.5156 31.9844
L29.5938 31.2969
Q39.1562 29.25 43.1875 25.5156
Q47.2188 21.7812 47.2188 15.0938
Q47.2188 7.46875 41.1875 3.01562
Q35.1562 -1.42188 24.6094 -1.42188
Q20.2188 -1.42188 15.4531 -0.5625
Q10.6875 0.296875 5.42188 2
L5.42188 11.2812
Q10.4062 8.6875 15.2344 7.39062
Q20.0625 6.10938 24.8125 6.10938
Q31.1562 6.10938 34.5625 8.28125
Q37.9844 10.4531 37.9844 14.4062
Q37.9844 18.0625 35.5156 20.0156
Q33.0625 21.9688 24.7031 23.7812
L21.5781 24.5156
Q13.2344 26.2656 9.51562 29.9062
Q5.8125 33.5469 5.8125 39.8906
Q5.8125 47.6094 11.2812 51.7969
Q16.75 56 26.8125 56
Q31.7812 56 36.1719 55.2656
Q40.5781 54.5469 44.2812 53.0781" id="DejaVuSans-73"/>
      <path d="
M41.1094 46.2969
Q39.5938 47.1719 37.8125 47.5781
Q36.0312 48 33.8906 48
Q26.2656 48 22.1875 43.0469
Q18.1094 38.0938 18.1094 28.8125
L18.1094 0
L9.07812 0
L9.07812 54.6875
L18.1094 54.6875
L18.1094 46.1875
Q20.9531 51.1719 25.4844 53.5781
Q30.0312 56 36.5312 56
Q37.4531 56 38.5781 55.875
Q39.7031 55.7656 41.0625 55.5156
z
" id="DejaVuSans-72"/>
     </defs>
     <g transform="translate(16.318125 212.98875)rotate(-90.0)scale(0.12 -0.12)">
      <use xlink:href="#DejaVuSans-4e"/>
      <use x="74.8046875" xlink:href="#DejaVuSans-75"/>
      <use x="138.18359375" xlink:href="#DejaVuSans-6d"/>
      <use x="235.595703125" xlink:href="#DejaVuSans-62"/>
      <use x="299.072265625" xlink:href="#DejaVuSans-65"/>
      <use x="360.595703125" xlink:href="#DejaVuSans-72"/>
      <use x="401.708984375" xlink:href="#DejaVuSans-20"/>
      <use x="433.49609375" xlink:href="#DejaVuSans-6f"/>
      <use x="494.677734375" xlink:href="#DejaVuSans-66"/>
      <use x="529.8828125" xlink:href="#DejaVuSans-20"/>
      <use x="561.669921875" xlink:href="#DejaVuSans-54"/>
      <use x="606.25390625" xlink:href="#DejaVuSans-61"/>
      <use x="667.533203125" xlink:href="#DejaVuSans-67"/>
      <use x="731.009765625" xlink:href="#DejaVuSans-67"/>
      <use x="794.486328125" xlink:href="#DejaVuSans-65"/>
      <use x="856.009765625" xlink:href="#DejaVuSans-64"/>
      <use x="919.486328125" xlink:href="#DejaVuSans-20"/>
      <use x="951.2734375" xlink:href="#DejaVuSans-50"/>
      <use x="1007.07617188" xlink:href="#DejaVuSans-61"/>
      <use x="1068.35546875" xlink:href="#DejaVuSans-63"/>
      <use x="1123.3359375" xlink:href="#DejaVuSans-6b"/>
      <use x="1179.49609375" xlink:href="#DejaVuSans-61"/>
      <use x="1240.77539062" xlink:href="#DejaVuSans-67"/>
      <use x="1304.25195312" xlink:href="#DejaVuSans-65"/>
      <use x="1365.77539062" xlink:href="#DejaVuSans-73"/>
     </g>
    </g>
   </g>
   <g id="patch_3">
    <path d="
M56.2388 13.0069
L614.239 13.0069" style="fill:none;stroke:#000000;"/>
   </g>
   <g id="patch_4">
    <path d="
M614.239 243.407
L614.239 13.0069" style="fill:none;stroke:#000000;"/>
   </g>
   <g id="patch_5">
    <path d="
M56.2388 243.407
L614.239 243.407" style="fill:none;stroke:#000000;"/>
   </g>
   <g id="patch_6">
    <path d="
M56.2388 243.407
L56.2388 13.0069" style="fill:none;stroke:#000000;"/>
   </g>
   <g id="text_20">
    <g id="patch_7">
     <path d="
M116.909 144.771
L130.583 144.771
L130.583 110.383
L116.909 110.383
z
" style="fill:#ffffff;stroke:#ffffff;"/>
    </g>
    <!-- v0.3.0 -->
    <defs>
     <path d="
M40.5781 39.3125
Q47.6562 37.7969 51.625 33
Q55.6094 28.2188 55.6094 21.1875
Q55.6094 10.4062 48.1875 4.48438
Q40.7656 -1.42188 27.0938 -1.42188
Q22.5156 -1.42188 17.6562 -0.515625
Q12.7969 0.390625 7.625 2.20312
L7.625 11.7188
Q11.7188 9.32812 16.5938 8.10938
Q21.4844 6.89062 26.8125 6.89062
Q36.0781 6.89062 40.9375 10.5469
Q45.7969 14.2031 45.7969 21.1875
Q45.7969 27.6406 41.2812 31.2656
Q36.7656 34.9062 28.7188 34.9062
L20.2188 34.9062
L20.2188 43.0156
L29.1094 43.0156
Q36.375 43.0156 40.2344 45.9219
Q44.0938 48.8281 44.0938 54.2969
Q44.0938 59.9062 40.1094 62.9062
Q36.1406 65.9219 28.7188 65.9219
Q24.6562 65.9219 20.0156 65.0312
Q15.375 64.1562 9.8125 62.3125
L9.8125 71.0938
Q15.4375 72.6562 20.3438 73.4375
Q25.25 74.2188 29.5938 74.2188
Q40.8281 74.2188 47.3594 69.1094
Q53.9062 64.0156 53.9062 55.3281
Q53.9062 49.2656 50.4375 45.0938
Q46.9688 40.9219 40.5781 39.3125" id="DejaVuSans-33"/>
     <path d="
M2.98438 54.6875
L12.5 54.6875
L29.5938 8.79688
L46.6875 54.6875
L56.2031 54.6875
L35.6875 0
L23.4844 0
z
" id="DejaVuSans-76"/>
     <path d="
M10.6875 12.4062
L21 12.4062
L21 0
L10.6875 0
z
" id="DejaVuSans-2e"/>
    </defs>
    <g transform="translate(126.504635463 142.770745446)rotate(-90.0)scale(0.09996 -0.09996)">
     <use xlink:href="#DejaVuSans-76"/>
     <use x="59.1796875" xlink:href="#DejaVuSans-30"/>
     <use x="122.802734375" xlink:href="#DejaVuSans-2e"/>
     <use x="154.58984375" xlink:href="#DejaVuSans-33"/>
     <use x="218.212890625" xlink:href="#DejaVuSans-2e"/>
     <use x="250.0" xlink:href="#DejaVuSans-30"/>
    </g>
   </g>
   <g id="text_21">
    <g id="patch_8">
     <path d="
M132.016 111.597
L145.69 111.597
L145.69 77.4686
L132.016 77.4686
z
" style="fill:#ffffff;stroke:#ffffff;"/>
    </g>
    <!-- v0.3.1 -->
    <g transform="translate(141.611234448 109.597188482)rotate(-90.0)scale(0.09996 -0.09996)">
     <use xlink:href="#DejaVuSans-76"/>
     <use x="59.1796875" xlink:href="#DejaVuSans-30"/>
     <use x="122.802734375" xlink:href="#DejaVuSans-2e"/>
     <use x="154.58984375" xlink:href="#DejaVuSans-33"/>
     <use x="218.212890625" xlink:href="#DejaVuSans-2e"/>
     <use x="250.0" xlink:href="#DejaVuSans-31"/>
    </g>
   </g>
   <g id="text_22">
    <g id="patch_9">
     <path d="
M146.178 144.433
L159.853 144.433
L159.853 110.383
L146.178 110.383
z
" style="fill:#ffffff;stroke:#ffffff;"/>
    </g>
    <!-- v0.3.2 -->
    <g transform="translate(155.773670996 142.433380446)rotate(-90.0)scale(0.09996 -0.09996)">
     <use xlink:href="#DejaVuSans-76"/>
     <use x="59.1796875" xlink:href="#DejaVuSans-30"/>
     <use x="122.802734375" xlink:href="#DejaVuSans-2e"/>
     <use x="154.58984375" xlink:href="#DejaVuSans-33"/>
     <use x="218.212890625" xlink:href="#DejaVuSans-2e"/>
     <use x="250.0" xlink:href="#DejaVuSans-32"/>
    </g>
   </g>
   <g id="text_23">
    <g id="patch_10">
     <path d="
M161.757 111.719
L175.431 111.719
L175.431 77.4686
L161.757 77.4686
z
" style="fill:#ffffff;stroke:#ffffff;"/>
    </g>
    <!-- v0.3.3 -->
    <g transform="translate(171.352351199 109.719014732)rotate(-90.0)scale(0.09996 -0.09996)">
     <use xlink:href="#DejaVuSans-76"/>
     <use x="59.1796875" xlink:href="#DejaVuSans-30"/>
     <use x="122.802734375" xlink:href="#DejaVuSans-2e"/>
     <use x="154.58984375" xlink:href="#DejaVuSans-33"/>
     <use x="218.212890625" xlink:href="#DejaVuSans-2e"/>
     <use x="250.0" xlink:href="#DejaVuSans-33"/>
    </g>
   </g>
   <g id="text_24">
    <g id="patch_11">
     <path d="
M177.336 144.874
L191.01 144.874
L191.01 110.383
L177.336 110.383
z
" style="fill:#ffffff;stroke:#ffffff;"/>
    </g>
    <!-- v0.3.4 -->
    <g transform="translate(186.931031402 142.873829196)rotate(-90.0)scale(0.09996 -0.09996)">
     <use xlink:href="#DejaVuSans-76"/>
     <use x="59.1796875" xlink:href="#DejaVuSans-30"/>
     <use x="122.802734375" xlink:href="#DejaVuSans-2e"/>
     <use x="154.58984375" xlink:href="#DejaVuSans-33"/>
     <use x="218.212890625" xlink:href="#DejaVuSans-2e"/>
     <use x="250.0" xlink:href="#DejaVuSans-34"/>
    </g>
   </g>
   <g id="text_25">
    <g id="patch_12">
     <path d="
M183.473 111.647
L197.147 111.647
L197.147 77.4686
L183.473 77.4686
z
" style="fill:#ffffff;stroke:#ffffff;"/>
    </g>
    <!-- v0.3.5 -->
    <g transform="translate(193.06808724 109.647168482)rotate(-90.0)scale(0.09996 -0.09996)">
     <use xlink:href="#DejaVuSans-76"/>
     <use x="59.1796875" xlink:href="#DejaVuSans-30"/>
     <use x="122.802734375" xlink:href="#DejaVuSans-2e"/>
     <use x="154.58984375" xlink:href="#DejaVuSans-33"/>
     <use x="218.212890625" xlink:href="#DejaVuSans-2e"/>
     <use x="250.0" xlink:href="#DejaVuSans-35"/>
    </g>
   </g>
   <g id="text_26">
    <g id="patch_13">
     <path d="
M202.356 144.805
L216.03 144.805
L216.03 110.383
L202.356 110.383
z
" style="fill:#ffffff;stroke:#ffffff;"/>
    </g>
    <!-- v0.3.6 -->
    <g transform="translate(211.951335971 142.805106696)rotate(-90.0)scale(0.09996 -0.09996)">
     <use xlink:href="#DejaVuSans-76"/>
     <use x="59.1796875" xlink:href="#DejaVuSans-30"/>
     <use x="122.802734375" xlink:href="#DejaVuSans-2e"/>
     <use x="154.58984375" xlink:href="#DejaVuSans-33"/>
     <use x="218.212890625" xlink:href="#DejaVuSans-2e"/>
     <use x="250.0" xlink:href="#DejaVuSans-36"/>
    </g>
   </g>
   <g id="text_27">
    <g id="patch_14">
     <path d="
M218.407 111.666
L232.081 111.666
L232.081 77.4686
L218.407 77.4686
z
" style="fill:#ffffff;stroke:#ffffff;"/>
    </g>
    <!-- v0.3.7 -->
    <g transform="translate(228.002097392 109.665910982)rotate(-90.0)scale(0.09996 -0.09996)">
     <use xlink:href="#DejaVuSans-76"/>
     <use x="59.1796875" xlink:href="#DejaVuSans-30"/>
     <use x="122.802734375" xlink:href="#DejaVuSans-2e"/>
     <use x="154.58984375" xlink:href="#DejaVuSans-33"/>
     <use x="218.212890625" xlink:href="#DejaVuSans-2e"/>
     <use x="250.0" xlink:href="#DejaVuSans-37"/>
    </g>
   </g>
   <g id="text_28">
    <g id="patch_15">
     <path d="
M236.346 144.75
L250.02 144.75
L250.02 110.383
L236.346 110.383
z
" style="fill:#ffffff;stroke:#ffffff;"/>
    </g>
    <!-- v0.3.8 -->
    <g transform="translate(245.941183687 142.750441071)rotate(-90.0)scale(0.09996 -0.09996)">
     <use xlink:href="#DejaVuSans-76"/>
     <use x="59.1796875" xlink:href="#DejaVuSans-30"/>
     <use x="122.802734375" xlink:href="#DejaVuSans-2e"/>
     <use x="154.58984375" xlink:href="#DejaVuSans-33"/>
     <use x="218.212890625" xlink:href="#DejaVuSans-2e"/>
     <use x="250.0" xlink:href="#DejaVuSans-38"/>
    </g>
   </g>
   <g id="text_29">
    <g id="patch_16">
     <path d="
M250.508 111.817
L264.182 111.817
L264.182 77.4686
L250.508 77.4686
z
" style="fill:#ffffff;stroke:#ffffff;"/>
    </g>
    <!-- v0.3.9 -->
    <defs>
     <path d="
M10.9844 1.51562
L10.9844 10.5
Q14.7031 8.73438 18.5 7.8125
Q22.3125 6.89062 25.9844 6.89062
Q35.75 6.89062 40.8906 13.4531
Q46.0469 20.0156 46.7812 33.4062
Q43.9531 29.2031 39.5938 26.9531
Q35.25 24.7031 29.9844 24.7031
Q19.0469 24.7031 12.6719 31.3125
Q6.29688 37.9375 6.29688 49.4219
Q6.29688 60.6406 12.9375 67.4219
Q19.5781 74.2188 30.6094 74.2188
Q43.2656 74.2188 49.9219 64.5156
Q56.5938 54.8281 56.5938 36.375
Q56.5938 19.1406 48.4062 8.85938
Q40.2344 -1.42188 26.4219 -1.42188
Q22.7031 -1.42188 18.8906 -0.6875
Q15.0938 0.046875 10.9844 1.51562
M30.6094 32.4219
Q37.25 32.4219 41.125 36.9531
Q45.0156 41.5 45.0156 49.4219
Q45.0156 57.2812 41.125 61.8438
Q37.25 66.4062 30.6094 66.4062
Q23.9688 66.4062 20.0938 61.8438
Q16.2188 57.2812 16.2188 49.4219
Q16.2188 41.5 20.0938 36.9531
Q23.9688 32.4219 30.6094 32.4219" id="DejaVuSans-39"/>
    </defs>
    <g transform="translate(260.103620235 109.817412857)rotate(-90.0)scale(0.09996 -0.09996)">
     <use xlink:href="#DejaVuSans-76"/>
     <use x="59.1796875" xlink:href="#DejaVuSans-30"/>
     <use x="122.802734375" xlink:href="#DejaVuSans-2e"/>
     <use x="154.58984375" xlink:href="#DejaVuSans-33"/>
     <use x="218.212890625" xlink:href="#DejaVuSans-2e"/>
     <use x="250.0" xlink:href="#DejaVuSans-39"/>
    </g>
   </g>
   <g id="text_30">
    <g id="patch_17">
     <path d="
M262.31 151.131
L275.985 151.131
L275.985 110.383
L262.31 110.383
z
" style="fill:#ffffff;stroke:#ffffff;"/>
    </g>
    <!-- v0.3.10 -->
    <g transform="translate(271.905650692 149.130700446)rotate(-90.0)scale(0.09996 -0.09996)">
     <use xlink:href="#DejaVuSans-76"/>
     <use x="59.1796875" xlink:href="#DejaVuSans-30"/>
     <use x="122.802734375" xlink:href="#DejaVuSans-2e"/>
     <use x="154.58984375" xlink:href="#DejaVuSans-33"/>
     <use x="218.212890625" xlink:href="#DejaVuSans-2e"/>
     <use x="250.0" xlink:href="#DejaVuSans-31"/>
     <use x="313.623046875" xlink:href="#DejaVuSans-30"/>
    </g>
   </g>
   <g id="text_31">
    <g id="patch_18">
     <path d="
M277.889 117.957
L291.563 117.957
L291.563 77.4686
L277.889 77.4686
z
" style="fill:#ffffff;stroke:#ffffff;"/>
    </g>
    <!-- v0.3.11 -->
    <g transform="translate(287.484330895 115.957143482)rotate(-90.0)scale(0.09996 -0.09996)">
     <use xlink:href="#DejaVuSans-76"/>
     <use x="59.1796875" xlink:href="#DejaVuSans-30"/>
     <use x="122.802734375" xlink:href="#DejaVuSans-2e"/>
     <use x="154.58984375" xlink:href="#DejaVuSans-33"/>
     <use x="218.212890625" xlink:href="#DejaVuSans-2e"/>
     <use x="250.0" xlink:href="#DejaVuSans-31"/>
     <use x="313.623046875" xlink:href="#DejaVuSans-31"/>
    </g>
   </g>
   <g id="text_32">
    <g id="patch_19">
     <path d="
M320.848 150.793
L334.523 150.793
L334.523 110.383
L320.848 110.383
z
" style="fill:#ffffff;stroke:#ffffff;"/>
    </g>
    <!-- v0.3.12 -->
    <g transform="translate(330.443721758 148.793335446)rotate(-90.0)scale(0.09996 -0.09996)">
     <use xlink:href="#DejaVuSans-76"/>
     <use x="59.1796875" xlink:href="#DejaVuSans-30"/>
     <use x="122.802734375" xlink:href="#DejaVuSans-2e"/>
     <use x="154.58984375" xlink:href="#DejaVuSans-33"/>
     <use x="218.212890625" xlink:href="#DejaVuSans-2e"/>
     <use x="250.0" xlink:href="#DejaVuSans-31"/>
     <use x="313.623046875" xlink:href="#DejaVuSans-32"/>
    </g>
   </g>
   <g id="text_33">
    <g id="patch_20">
     <path d="
M312.351 235.285
L326.025 235.285
L326.025 200.897
L312.351 200.897
z
" style="fill:#ffffff;stroke:#ffffff;"/>
    </g>
    <!-- v0.4.0 -->
    <g transform="translate(321.946259829 233.285031161)rotate(-90.0)scale(0.09996 -0.09996)">
     <use xlink:href="#DejaVuSans-76"/>
     <use x="59.1796875" xlink:href="#DejaVuSans-30"/>
     <use x="122.802734375" xlink:href="#DejaVuSans-2e"/>
     <use x="154.58984375" xlink:href="#DejaVuSans-34"/>
     <use x="218.212890625" xlink:href="#DejaVuSans-2e"/>
     <use x="250.0" xlink:href="#DejaVuSans-30"/>
    </g>
   </g>
   <g id="text_34">
    <g id="patch_21">
     <path d="
M326.985 210.34
L340.66 210.34
L340.66 176.211
L326.985 176.211
z
" style="fill:#ffffff;stroke:#ffffff;"/>
    </g>
    <!-- v0.4.1 -->
    <g transform="translate(336.580777595 208.340045625)rotate(-90.0)scale(0.09996 -0.09996)">
     <use xlink:href="#DejaVuSans-76"/>
     <use x="59.1796875" xlink:href="#DejaVuSans-30"/>
     <use x="122.802734375" xlink:href="#DejaVuSans-2e"/>
     <use x="154.58984375" xlink:href="#DejaVuSans-34"/>
     <use x="218.212890625" xlink:href="#DejaVuSans-2e"/>
     <use x="250.0" xlink:href="#DejaVuSans-31"/>
    </g>
   </g>
   <g id="text_35">
    <g id="patch_22">
     <path d="
M340.204 234.948
L353.878 234.948
L353.878 200.897
L340.204 200.897
z
" style="fill:#ffffff;stroke:#ffffff;"/>
    </g>
    <!-- v0.4.2 -->
    <g transform="translate(349.799051707 232.947666161)rotate(-90.0)scale(0.09996 -0.09996)">
     <use xlink:href="#DejaVuSans-76"/>
     <use x="59.1796875" xlink:href="#DejaVuSans-30"/>
     <use x="122.802734375" xlink:href="#DejaVuSans-2e"/>
     <use x="154.58984375" xlink:href="#DejaVuSans-34"/>
     <use x="218.212890625" xlink:href="#DejaVuSans-2e"/>
     <use x="250.0" xlink:href="#DejaVuSans-32"/>
    </g>
   </g>
   <g id="text_36">
    <g id="patch_23">
     <path d="
M357.671 210.462
L371.345 210.462
L371.345 176.211
L357.671 176.211
z
" style="fill:#ffffff;stroke:#ffffff;"/>
    </g>
    <!-- v0.4.3 -->
    <g transform="translate(367.266056783 208.461871875)rotate(-90.0)scale(0.09996 -0.09996)">
     <use xlink:href="#DejaVuSans-76"/>
     <use x="59.1796875" xlink:href="#DejaVuSans-30"/>
     <use x="122.802734375" xlink:href="#DejaVuSans-2e"/>
     <use x="154.58984375" xlink:href="#DejaVuSans-34"/>
     <use x="218.212890625" xlink:href="#DejaVuSans-2e"/>
     <use x="250.0" xlink:href="#DejaVuSans-33"/>
    </g>
   </g>
   <g id="text_37">
    <g id="patch_24">
     <path d="
M388.356 235.076
L402.03 235.076
L402.03 200.897
L388.356 200.897
z
" style="fill:#ffffff;stroke:#ffffff;"/>
    </g>
    <!-- v0.4.5 -->
    <g transform="translate(397.951335971 233.075739911)rotate(-90.0)scale(0.09996 -0.09996)">
     <use xlink:href="#DejaVuSans-76"/>
     <use x="59.1796875" xlink:href="#DejaVuSans-30"/>
     <use x="122.802734375" xlink:href="#DejaVuSans-2e"/>
     <use x="154.58984375" xlink:href="#DejaVuSans-34"/>
     <use x="218.212890625" xlink:href="#DejaVuSans-2e"/>
     <use x="250.0" xlink:href="#DejaVuSans-35"/>
    </g>
   </g>
   <g id="text_38">
    <g id="patch_25">
     <path d="
M432.732 210.634
L446.406 210.634
L446.406 176.211
L432.732 176.211
z
" style="fill:#ffffff;stroke:#ffffff;"/>
    </g>
    <!-- v0.4.6 -->
    <g transform="translate(442.326970489 208.633678125)rotate(-90.0)scale(0.09996 -0.09996)">
     <use xlink:href="#DejaVuSans-76"/>
     <use x="59.1796875" xlink:href="#DejaVuSans-30"/>
     <use x="122.802734375" xlink:href="#DejaVuSans-2e"/>
     <use x="154.58984375" xlink:href="#DejaVuSans-34"/>
     <use x="218.212890625" xlink:href="#DejaVuSans-2e"/>
     <use x="250.0" xlink:href="#DejaVuSans-36"/>
    </g>
   </g>
   <g id="text_39">
    <g id="patch_26">
     <path d="
M475.691 235.094
L489.365 235.094
L489.365 200.897
L475.691 200.897
z
" style="fill:#ffffff;stroke:#ffffff;"/>
    </g>
    <!-- v0.4.7 -->
    <g transform="translate(485.286361352 233.094482411)rotate(-90.0)scale(0.09996 -0.09996)">
     <use xlink:href="#DejaVuSans-76"/>
     <use x="59.1796875" xlink:href="#DejaVuSans-30"/>
     <use x="122.802734375" xlink:href="#DejaVuSans-2e"/>
     <use x="154.58984375" xlink:href="#DejaVuSans-34"/>
     <use x="218.212890625" xlink:href="#DejaVuSans-2e"/>
     <use x="250.0" xlink:href="#DejaVuSans-37"/>
    </g>
   </g>
   <g id="text_40">
    <g id="patch_27">
     <path d="
M476.163 152.999
L489.837 152.999
L489.837 118.611
L476.163 118.611
z
" style="fill:#ffffff;stroke:#ffffff;"/>
    </g>
    <!-- v0.5.0 -->
    <g transform="translate(485.75844257 150.999316875)rotate(-90.0)scale(0.09996 -0.09996)">
     <use xlink:href="#DejaVuSans-76"/>
     <use x="59.1796875" xlink:href="#DejaVuSans-30"/>
     <use x="122.802734375" xlink:href="#DejaVuSans-2e"/>
     <use x="154.58984375" xlink:href="#DejaVuSans-35"/>
     <use x="218.212890625" xlink:href="#DejaVuSans-2e"/>
     <use x="250.0" xlink:href="#DejaVuSans-30"/>
    </g>
   </g>
   <g id="text_41">
    <g id="patch_28">
     <path d="
M555.001 136.283
L568.675 136.283
L568.675 102.154
L555.001 102.154
z
" style="fill:#ffffff;stroke:#ffffff;"/>
    </g>
    <!-- v0.5.1 -->
    <g transform="translate(564.596006022 134.282902768)rotate(-90.0)scale(0.09996 -0.09996)">
     <use xlink:href="#DejaVuSans-76"/>
     <use x="59.1796875" xlink:href="#DejaVuSans-30"/>
     <use x="122.802734375" xlink:href="#DejaVuSans-2e"/>
     <use x="154.58984375" xlink:href="#DejaVuSans-35"/>
     <use x="218.212890625" xlink:href="#DejaVuSans-2e"/>
     <use x="250.0" xlink:href="#DejaVuSans-31"/>
    </g>
   </g>
   <g id="text_42">
    <g id="patch_29">
     <path d="
M584.27 152.662
L597.944 152.662
L597.944 118.611
L584.27 118.611
z
" style="fill:#ffffff;stroke:#ffffff;"/>
    </g>
    <!-- v0.5.2 -->
    <g transform="translate(593.865041555 150.661951875)rotate(-90.0)scale(0.09996 -0.09996)">
     <use xlink:href="#DejaVuSans-76"/>
     <use x="59.1796875" xlink:href="#DejaVuSans-30"/>
     <use x="122.802734375" xlink:href="#DejaVuSans-2e"/>
     <use x="154.58984375" xlink:href="#DejaVuSans-35"/>
     <use x="218.212890625" xlink:href="#DejaVuSans-2e"/>
     <use x="250.0" xlink:href="#DejaVuSans-32"/>
    </g>
   </g>
   <g id="text_43">
    <g id="patch_30">
     <path d="
M605.041 235.285
L618.715 235.285
L618.715 200.897
L605.041 200.897
z
" style="fill:#ffffff;stroke:#ffffff;"/>
    </g>
    <!-- v0.6.0 -->
    <g transform="translate(614.636615159 233.285031161)rotate(-90.0)scale(0.09996 -0.09996)">
     <use xlink:href="#DejaVuSans-76"/>
     <use x="59.1796875" xlink:href="#DejaVuSans-30"/>
     <use x="122.802734375" xlink:href="#DejaVuSans-2e"/>
     <use x="154.58984375" xlink:href="#DejaVuSans-36"/>
     <use x="218.212890625" xlink:href="#DejaVuSans-2e"/>
     <use x="250.0" xlink:href="#DejaVuSans-30"/>
    </g>
   </g>
   <g id="legend_1">
    <g id="patch_31">
     <path d="
M61.2368 94.3649
L111.899 94.3649
L111.899 18.0049
L61.2368 18.0049
L61.2368 94.3649
z
" style="fill:#ffffff;stroke:#000000;"/>
    </g>
    <g id="line2d_66">
     <path d="
M68.234 26.1001
L82.2284 26.1001" style="fill:none;stroke:#ff0000;stroke-linecap:square;stroke-width:2;"/>
    </g>
    <g id="line2d_67"/>
    <g id="text_44">
     <!-- 0.2 -->
     <g transform="translate(93.22395 29.598673125)scale(0.09996 -0.09996)">
      <use xlink:href="#DejaVuSans-30"/>
      <use x="63.623046875" xlink:href="#DejaVuSans-2e"/>
      <use x="95.41015625" xlink:href="#DejaVuSans-32"/>
     </g>
    </g>
    <g id="line2d_68">
     <path d="
M68.234 40.7723
L82.2284 40.7723" style="fill:none;stroke:#008000;stroke-linecap:square;stroke-width:2;"/>
    </g>
    <g id="line2d_69"/>
    <g id="text_45">
     <!-- 0.3 -->
     <g transform="translate(93.22395 44.270926875)scale(0.09996 -0.09996)">
      <use xlink:href="#DejaVuSans-30"/>
      <use x="63.623046875" xlink:href="#DejaVuSans-2e"/>
      <use x="95.41015625" xlink:href="#DejaVuSans-33"/>
     </g>
    </g>
    <g id="line2d_70">
     <path d="
M68.234 55.4446
L82.2284 55.4446" style="fill:none;stroke:#0000ff;stroke-linecap:square;stroke-width:2;"/>
    </g>
    <g id="line2d_71"/>
    <g id="text_46">
     <!-- 0.4 -->
     <g transform="translate(93.22395 58.943180625)scale(0.09996 -0.09996)">
      <use xlink:href="#DejaVuSans-30"/>
      <use x="63.623046875" xlink:href="#DejaVuSans-2e"/>
      <use x="95.41015625" xlink:href="#DejaVuSans-34"/>
     </g>
    </g>
    <g id="line2d_72">
     <path d="
M68.234 70.1168
L82.2284 70.1168" style="fill:none;stroke:#000000;stroke-linecap:square;stroke-width:2;"/>
    </g>
    <g id="line2d_73"/>
    <g id="text_47">
     <!-- 0.5 -->
     <g transform="translate(93.22395 73.615434375)scale(0.09996 -0.09996)">
      <use xlink:href="#DejaVuSans-30"/>
      <use x="63.623046875" xlink:href="#DejaVuSans-2e"/>
      <use x="95.41015625" xlink:href="#DejaVuSans-35"/>
     </g>
    </g>
    <g id="line2d_74">
     <path d="
M68.234 84.7891
L82.2284 84.7891" style="fill:none;stroke:#bfbf00;stroke-linecap:square;stroke-width:2;"/>
    </g>
    <g id="line2d_75"/>
    <g id="text_48">
     <!-- 0.6 -->
     <g transform="translate(93.22395 88.287688125)scale(0.09996 -0.09996)">
      <use xlink:href="#DejaVuSans-30"/>
      <use x="63.623046875" xlink:href="#DejaVuSans-2e"/>
      <use x="95.41015625" xlink:href="#DejaVuSans-36"/>
     </g>
    </g>
   </g>
  </g>
 </g>
 <defs>
  <clipPath id="p472e73a826">
   <rect height="230.4" width="558.0" x="56.23875" y="13.006875"/>
  </clipPath>
 </defs>
</svg>
