<?xml version="1.0" encoding="utf-8" standalone="no"?>
<!DOCTYPE svg PUBLIC "-//W3C//DTD SVG 1.1//EN"
  "http://www.w3.org/Graphics/SVG/1.1/DTD/svg11.dtd">
<!-- Created with matplotlib (http://matplotlib.org/) -->
<svg height="311pt" version="1.1" viewBox="0 0 621 311" width="621pt" xmlns="http://www.w3.org/2000/svg" xmlns:xlink="http://www.w3.org/1999/xlink">
 <defs>
  <style type="text/css">
*{stroke-linecap:butt;stroke-linejoin:round;}
  </style>
 </defs>
 <g id="figure_1">
  <g id="patch_1">
   <path d="
M0 311.509
L621.439 311.509
L621.439 0
L0 0
z
" style="fill:#ffffff;"/>
  </g>
  <g id="axes_1">
   <g id="patch_2">
    <path d="
M56.2388 243.407
L614.239 243.407
L614.239 13.0069
L56.2388 13.0069
z
" style="fill:#ffffff;"/>
   </g>
   <g id="line2d_1">
    <path clip-path="url(#p6fd7a61c41)" d="
M110.433 223.967
L110.032 223.967
L109.63 224.255
L109.229 224.255
L108.827 224.399
L108.426 224.687
L108.024 224.687
L107.221 224.399
L106.82 224.399
L106.419 224.831
L106.017 224.831
L105.214 224.831
L104.813 224.831
L104.01 224.975
L103.609 224.975
L103.207 224.975
L102.806 225.119
L102.404 225.119
L102.003 225.119
L101.601 225.263
L101.2 225.263
L99.9956 225.263
L99.5941 225.263
L99.1927 225.263
L98.7913 225.263
L97.9884 225.551
L97.1855 225.839
L96.7841 225.839
L96.3826 225.983
L95.9812 226.127
L95.1783 226.415
L94.7769 226.415
L94.3754 226.415
L93.974 226.559
L93.5726 226.703
L93.1711 226.991
L92.3682 227.135
L91.9668 227.135
L91.5654 227.567
L91.1639 227.567
L90.7625 227.567
L90.3611 227.567
L89.9596 227.567
L89.5582 227.855
L88.7553 227.855
L88.3539 227.999
L87.9524 227.999
L87.551 227.999
L87.1495 227.999
L86.7481 227.999
L86.3467 228.287
L85.9452 228.431
L85.5438 228.575
L85.1423 228.575
L82.7337 229.295
L82.3323 229.295
L81.9308 229.439
L81.5294 229.439
L81.128 229.583
L80.7265 229.583
L80.3251 229.583
L79.9236 229.583
L79.5222 229.583
L79.1208 229.583
L78.7193 229.583
L78.3179 229.583
L77.9164 230.303
L77.515 229.151
L77.1136 229.295
L76.7121 229.295
L76.3107 229.295
L75.5078 229.439
L75.1064 229.439
L74.7049 229.871
L74.3035 229.871
L73.9021 229.871
L73.5006 229.871
L73.0992 229.871
L72.6977 229.871
L72.2963 229.871
L71.8949 229.871
L71.4934 229.871
L71.092 230.015
L68.2819 230.159
L67.479 230.159
L66.2747 230.159
L63.4646 230.447
L63.0632 230.591
L62.2603 230.735
L61.8589 230.735
L61.056 230.879
L60.2531 231.023
L59.8517 231.023
L59.0488 231.023
L58.6474 231.023
L58.2459 231.023
L57.8445 231.023
L57.4431 231.023
L57.0416 231.023
L56.6402 231.167
L56.2388 231.167" style="fill:none;stroke:#ff0000;stroke-linecap:square;stroke-width:2;"/>
   </g>
   <g id="line2d_2">
    <path clip-path="url(#p6fd7a61c41)" d="
M420.344 172.127
L409.505 172.127
L409.103 172.271
L407.899 172.127
L403.483 172.127
L403.082 172.271
L402.68 172.127
L402.279 172.127
L401.878 172.271
L401.476 172.127
L400.272 172.127
L399.87 172.271
L397.863 172.271
L397.462 172.127
L392.645 172.127
L392.243 172.271
L391.842 172.127
L389.032 172.127
L388.63 172.271
L388.229 172.127
L387.827 172.271
L387.426 172.127
L382.609 172.127
L382.207 172.271
L381.404 172.271
L381.003 172.415
L380.2 172.271
L379.798 172.415
L379.397 172.271
L378.193 172.271
L377.791 172.415
L377.39 172.271
L374.981 172.271
L374.58 172.415
L374.178 172.271
L372.171 172.271
L371.77 172.415
L328.816 173.279
L326.407 173.567
L324.801 173.567
L316.371 173.711
L307.539 173.711
L302.321 174.143
L299.109 174.431
L295.496 174.431
L294.693 174.719
L293.088 174.431
L283.453 174.719
L280.643 175.295
L279.037 175.439
L277.03 176.015
L275.424 176.735
L269.001 178.175
L266.994 178.463
L264.987 178.607
L263.783 178.895
L256.958 180.911
L250.134 182.351
L243.309 184.367
L242.908 184.367
L242.506 184.511
L242.105 184.799
L241.703 185.375
L241.302 185.663
L240.499 185.519
L239.696 185.807
L238.492 185.807
L238.091 185.951
L237.288 185.951
L236.886 186.239
L236.485 186.239
L236.083 186.527
L235.682 186.527
L234.478 186.383
L230.062 187.247
L229.259 187.247
L226.449 188.255
L225.646 188.255
L222.434 188.831
L222.033 189.119
L220.427 189.407
L216.814 190.559
L216.413 190.991
L215.61 191.279
L214.807 191.279
L214.406 191.423
L212.8 191.711
L212.398 192.143
L211.997 192.287
L211.596 192.287
L210.793 193.007
L209.588 193.439
L207.983 193.439
L207.18 193.871
L206.377 193.871
L203.968 194.015
L203.567 194.447
L202.764 194.447
L197.947 194.591
L197.545 194.879
L197.144 194.735
L196.742 195.023
L196.341 195.023
L195.939 195.167
L195.538 195.455
L193.932 195.743
L191.925 195.743
L191.524 196.031
L190.721 196.031
L188.714 196.607
L186.706 197.471
L184.699 197.471
L183.093 197.759
L181.488 198.623
L181.086 198.623
L180.685 198.335
L179.079 199.487
L178.678 199.631
L178.276 199.919
L177.473 200.351
L176.67 200.351
L176.269 200.495
L175.868 200.927
L175.466 200.927
L175.065 201.215
L173.459 201.215
L173.057 201.935
L172.656 201.935
L172.255 202.223
L170.649 203.231
L167.839 204.095
L165.832 205.103
L163.021 205.679
L162.219 205.967
L160.613 205.967
L160.211 206.111
L159.007 206.687
L157.401 207.119
L157 207.407
L156.197 207.407
L155.394 207.695
L154.591 207.695
L152.183 207.839
L150.577 208.559
L150.175 208.559
L149.774 208.991
L149.373 208.991
L148.971 209.135
L148.57 209.135
L148.168 209.423
L146.161 210.143
L144.957 210.143
L144.555 210.287
L144.154 210.287
L143.752 210.431
L142.95 210.431
L142.548 210.575
L142.147 210.575
L141.745 210.719
L141.344 211.007
L140.942 211.007
L140.541 211.151
L140.139 211.151
L139.738 211.295
L138.935 211.295
L138.534 211.583
L138.132 211.727
L136.928 211.727
L136.125 212.015
L135.724 212.015
L135.322 212.303
L134.519 212.303
L134.118 212.447
L133.716 212.735
L133.315 212.735
L132.111 213.023
L131.709 213.311
L131.308 213.311
L130.906 210.719
L130.505 213.599
L130.103 213.887
L129.702 213.887
L129.301 214.031
L128.096 213.887
L127.695 214.031
L126.892 214.031
L126.089 214.319
L124.483 214.319
L124.082 215.471
L123.279 215.471
L122.878 215.759
L122.075 216.047
L120.87 216.911
L118.462 216.911
L117.659 217.199
L117.257 217.631
L116.455 215.903
L115.652 216.191
L115.25 216.623
L114.447 216.623
L114.046 216.767
L113.645 216.767
L112.842 217.199
L112.039 217.199
L111.236 217.487
L110.834 217.487
L110.433 217.775
L108.827 218.351
L108.426 218.639
L108.024 218.639
L106.82 218.783
L106.419 219.215
L106.017 219.359
L104.01 219.359
L102.806 219.791
L102.003 219.791
L101.601 219.935
L101.2 219.935
L98.7913 220.223
L97.9884 220.655
L97.1855 221.375
L96.3826 221.375
L95.9812 221.807
L95.1783 221.951
L94.7769 222.239
L94.3754 222.239
L93.5726 222.527
L93.1711 222.815
L91.9668 222.959
L91.5654 223.391
L89.9596 223.391
L89.5582 223.679
L88.7553 223.679
L87.9524 223.967
L87.551 223.967
L87.1495 224.255
L86.7481 224.255
L86.3467 224.543
L81.9308 226.127
L81.5294 232.031
L81.128 226.271
L80.7265 226.271
L80.3251 226.415
L78.7193 226.415
L78.3179 226.559
L77.515 226.559
L77.1136 226.847
L76.3107 226.847
L75.5078 226.991
L75.1064 227.423
L71.8949 227.423
L71.4934 227.567
L71.092 227.855
L66.2747 227.999
L62.2603 228.719
L61.8589 228.719
L61.056 229.007
L58.2459 229.439
L57.0416 229.439
L56.6402 229.583
L56.2388 229.583
L56.2388 229.583" style="fill:none;stroke:#008000;stroke-linecap:square;stroke-width:2;"/>
   </g>
   <g id="line2d_3">
    <path clip-path="url(#p6fd7a61c41)" d="
M595.371 112.655
L594.568 112.655
L561.249 112.943
L558.84 112.799
L558.439 112.943
L554.826 112.943
L554.424 113.231
L554.023 113.375
L553.621 112.943
L552.819 113.231
L552.417 113.087
L539.571 113.087
L539.17 113.231
L538.768 113.087
L528.331 113.087
L527.929 113.231
L521.908 113.231
L521.506 113.375
L521.105 114.095
L520.703 113.375
L518.295 113.375
L517.893 113.231
L517.492 113.375
L513.879 113.375
L511.47 113.663
L511.069 113.519
L509.463 113.519
L509.062 113.663
L508.66 113.519
L507.857 113.519
L507.456 113.663
L501.836 113.663
L498.223 113.951
L497.42 113.951
L497.019 114.095
L495.814 114.095
L495.413 114.239
L495.011 114.095
L492.603 114.095
L492.201 114.239
L488.588 114.239
L488.187 114.383
L487.786 114.383
L486.983 114.527
L484.975 114.239
L482.968 114.239
L482.567 114.383
L478.151 114.383
L460.086 114.671
L458.48 114.959
L457.276 114.959
L456.875 115.103
L454.868 114.815
L454.466 114.959
L452.057 114.959
L450.452 115.535
L449.649 115.535
L449.247 116.255
L447.24 115.535
L445.233 115.535
L442.423 115.823
L441.219 115.823
L440.416 115.967
L436.803 115.967
L436 116.687
L435.598 116.831
L434.394 116.687
L433.993 116.975
L429.978 117.263
L429.175 117.551
L427.168 117.551
L426.365 117.839
L425.562 117.839
L424.76 118.127
L421.548 118.127
L421.147 118.271
L420.745 118.703
L419.541 119.135
L419.139 119.711
L418.337 119.711
L417.935 119.855
L417.534 119.855
L416.731 120.143
L416.329 120.575
L415.527 120.863
L415.125 120.863
L414.724 121.151
L413.921 121.151
L413.519 121.295
L413.118 121.295
L412.716 121.583
L411.914 121.871
L411.512 122.159
L410.709 122.159
L409.906 122.447
L409.103 122.447
L408.301 122.735
L407.899 123.167
L407.498 123.311
L407.096 123.599
L406.695 123.599
L406.293 123.743
L405.892 123.743
L405.491 123.887
L405.089 123.887
L403.885 124.319
L401.878 124.319
L401.476 124.607
L401.075 124.607
L400.673 124.895
L400.272 124.895
L399.87 125.183
L399.469 125.183
L399.068 125.039
L398.666 125.039
L397.863 125.615
L397.462 125.759
L396.659 126.479
L395.455 126.335
L395.053 126.623
L394.25 126.911
L393.849 126.911
L393.447 127.055
L393.046 127.055
L391.44 127.631
L390.637 127.775
L390.236 128.063
L389.834 128.063
L389.433 128.207
L389.032 128.063
L388.63 128.063
L387.827 128.351
L387.426 128.351
L386.623 128.639
L386.221 128.495
L385.82 128.495
L385.017 128.783
L384.616 128.783
L384.214 128.927
L383.813 128.927
L382.609 129.359
L382.207 129.935
L381.806 129.935
L381.404 130.079
L381.003 130.511
L379.798 130.799
L378.996 131.087
L378.193 131.087
L377.791 131.231
L377.39 131.231
L376.186 131.663
L375.784 131.519
L375.383 131.663
L374.981 131.663
L374.178 132.527
L373.777 132.527
L373.375 132.671
L372.974 132.527
L372.573 132.671
L372.171 132.959
L371.77 133.103
L365.347 136.415
L344.472 145.775
L338.049 150.383
L328.816 153.263
L326.407 154.703
L324.801 155.999
L316.371 158.735
L307.539 161.183
L305.532 161.615
L302.321 162.911
L299.109 163.631
L295.496 164.207
L294.693 164.783
L293.088 164.927
L288.27 166.511
L283.453 169.679
L282.249 170.111
L280.643 170.831
L279.037 167.231
L277.03 168.527
L275.424 169.391
L269.001 172.127
L266.994 173.135
L263.783 173.999
L256.958 177.599
L253.345 178.319
L250.134 179.183
L243.309 181.343
L242.908 181.343
L242.506 181.487
L242.105 181.775
L241.703 182.351
L241.302 182.639
L240.499 182.639
L239.696 182.927
L237.288 183.215
L236.886 183.647
L236.485 183.647
L236.083 183.935
L234.478 183.935
L230.062 185.231
L229.259 185.231
L228.456 185.519
L228.055 185.807
L227.653 185.951
L226.449 186.527
L225.646 186.527
L222.434 186.959
L222.033 187.247
L220.427 187.535
L216.814 188.687
L216.413 189.119
L215.61 189.407
L214.807 189.407
L214.406 189.695
L212.8 189.983
L212.398 190.271
L211.997 190.415
L211.596 190.415
L210.391 191.567
L209.588 191.855
L207.983 192.143
L207.18 192.575
L206.377 192.719
L203.968 192.863
L203.567 193.295
L202.764 193.295
L197.947 193.871
L197.545 194.159
L197.144 194.015
L196.742 194.303
L195.939 194.303
L195.538 194.591
L193.129 194.735
L192.327 195.023
L191.925 195.023
L191.524 195.311
L190.721 195.311
L188.714 196.607
L186.706 196.751
L184.699 196.751
L183.093 197.039
L181.488 197.903
L181.086 197.471
L180.685 197.471
L179.079 198.623
L178.678 198.767
L178.276 199.199
L177.473 199.631
L176.67 199.631
L176.269 199.775
L175.868 200.207
L175.466 200.207
L175.065 200.351
L173.86 200.495
L173.459 200.495
L173.057 201.359
L172.656 201.359
L172.255 201.647
L170.649 202.655
L167.839 203.663
L166.634 203.951
L165.832 204.527
L163.021 205.103
L162.219 205.391
L160.211 205.391
L159.409 205.967
L159.007 206.111
L157.803 206.255
L157 206.831
L156.197 206.831
L155.796 206.975
L155.394 207.263
L154.591 207.263
L152.183 207.407
L150.577 208.127
L150.175 208.127
L149.774 208.559
L149.373 208.559
L148.971 208.703
L148.57 208.703
L148.168 208.991
L146.161 209.855
L144.957 209.855
L144.154 210.143
L142.95 210.143
L142.548 210.287
L142.147 210.287
L141.745 210.431
L141.344 210.719
L140.942 210.719
L140.541 210.863
L140.139 210.863
L139.738 211.007
L138.935 211.007
L138.132 211.583
L136.928 211.583
L136.125 211.871
L135.724 211.871
L135.322 212.159
L134.519 212.159
L134.118 212.303
L133.716 212.591
L133.315 212.591
L132.111 212.879
L131.709 213.167
L130.906 213.167
L130.103 213.743
L129.702 213.743
L129.301 213.887
L128.096 213.743
L127.695 213.887
L126.892 213.887
L126.491 214.031
L126.089 214.031
L124.885 214.175
L124.483 214.175
L124.082 215.327
L123.279 215.327
L122.878 215.615
L122.075 215.903
L120.87 216.767
L118.462 216.767
L117.659 217.055
L117.257 217.487
L116.455 217.775
L116.053 217.775
L115.652 218.063
L115.25 218.495
L114.447 218.495
L114.046 218.639
L113.645 218.639
L112.842 219.071
L112.039 219.071
L111.236 219.359
L110.834 219.791
L110.834 219.791" style="fill:none;stroke:#0000ff;stroke-linecap:square;stroke-width:2;"/>
   </g>
   <g id="line2d_4">
    <path clip-path="url(#p6fd7a61c41)" d="
M609.02 67.7269
L604.203 68.3029
L595.371 68.4469
L594.568 68.3029
L561.249 70.6069
L558.84 70.4629
L558.439 70.7509
L556.833 70.8949
L555.629 70.7509
L555.227 70.7509
L554.826 71.0389
L554.424 71.0389
L554.023 72.9109
L553.621 71.3269
L552.819 71.6149
L552.417 71.6149
L551.614 71.7589
L551.213 71.3269
L550.811 71.9029
L549.607 71.1829
L548.804 71.0389
L548.403 71.4709
L547.198 71.4709
L546.797 71.3269
L546.396 71.4709
L545.994 71.3269
L545.191 71.3269
L544.79 71.4709
L544.388 71.7589
L543.184 71.7589
L542.783 71.6149
L541.98 71.9029
L541.578 71.9029
L541.177 71.7589
L540.374 72.0469
L539.571 71.9029
L539.17 72.0469
L538.768 71.9029
L538.367 72.0469
L536.761 72.3349
L536.36 72.1909
L535.958 72.1909
L535.557 72.0469
L535.155 72.1909
L534.352 72.1909
L533.951 72.3349
L533.148 72.1909
L532.345 72.6229
L531.944 72.6229
L531.542 72.7669
L531.141 73.0549
L530.739 73.1989
L530.338 72.9109
L529.134 73.3429
L528.732 73.1989
L528.331 73.3429
L527.929 73.7749
L527.528 73.9189
L527.127 73.7749
L526.324 73.9189
L525.922 74.4949
L525.521 74.3509
L525.119 74.4949
L524.718 74.7829
L524.316 74.7829
L523.915 75.2149
L523.514 74.9269
L523.112 74.9269
L522.711 75.3589
L522.309 75.2149
L521.908 75.2149
L521.105 76.5109
L520.703 76.2229
L520.302 76.2229
L519.901 76.5109
L519.098 76.7989
L518.295 77.3749
L517.893 77.8069
L517.492 77.6629
L517.091 77.8069
L516.689 78.0949
L516.288 77.8069
L515.886 78.0949
L513.879 78.0949
L512.675 79.2469
L511.069 79.8229
L510.668 79.6789
L509.865 80.8309
L509.463 80.6869
L509.062 80.9749
L508.66 80.8309
L508.259 80.8309
L507.857 80.9749
L507.456 80.9749
L507.055 81.6949
L506.252 82.4149
L505.449 82.7029
L505.047 82.7029
L504.646 82.9909
L504.245 83.4229
L503.843 83.4229
L503.04 83.7109
L502.639 83.7109
L502.237 84.1429
L501.836 84.1429
L499.026 85.7269
L498.624 86.1589
L498.223 86.0149
L497.821 86.0149
L497.42 86.1589
L496.617 86.8789
L496.216 86.7349
L495.814 87.0229
L495.413 87.7429
L495.011 87.7429
L494.209 88.0309
L493.406 88.0309
L493.004 88.3189
L492.603 88.3189
L492.201 88.6069
L491.8 89.0389
L491.398 88.7509
L490.997 88.7509
L490.596 89.0389
L490.194 89.9029
L489.793 90.0469
L489.391 89.9029
L488.99 90.0469
L488.588 89.9029
L488.187 90.3349
L487.786 90.4789
L486.983 90.3349
L484.975 90.1909
L484.574 90.7669
L483.771 91.4869
L483.37 92.2069
L482.968 92.3509
L482.567 92.6389
L481.764 92.7829
L481.362 93.0709
L478.151 93.3589
L463.298 98.9749
L461.291 98.9749
L460.889 99.6949
L460.086 99.6949
L458.48 100.271
L457.276 100.271
L456.875 100.847
L454.868 101.135
L454.466 101.999
L453.663 102.287
L453.262 103.151
L452.057 103.151
L451.656 103.295
L450.452 104.303
L449.649 104.303
L449.247 105.167
L447.24 104.303
L446.839 104.303
L446.437 104.447
L446.036 104.447
L445.634 104.303
L445.233 104.447
L444.029 105.023
L442.824 105.167
L442.423 105.167
L441.62 105.311
L441.219 105.167
L440.416 105.455
L439.613 106.031
L439.211 106.751
L438.409 106.463
L437.606 106.751
L437.204 107.327
L436.803 107.471
L436.401 107.903
L436 108.623
L435.598 108.911
L434.394 109.055
L433.993 110.207
L429.175 111.935
L428.774 111.935
L427.971 112.511
L427.168 112.511
L426.365 113.519
L425.562 113.519
L425.161 113.663
L424.76 113.951
L423.957 114.239
L423.555 114.815
L423.154 114.815
L422.752 114.959
L422.351 115.247
L421.548 115.535
L420.745 116.543
L420.344 116.543
L419.942 116.831
L419.541 116.975
L419.139 115.103
L418.337 114.959
L417.935 115.103
L417.132 115.679
L416.731 115.823
L416.329 117.407
L415.928 117.983
L414.724 118.415
L414.322 118.847
L413.921 118.703
L413.519 118.703
L413.118 117.695
L412.716 117.983
L412.315 118.559
L411.914 118.559
L411.512 118.991
L411.111 119.135
L410.709 118.991
L409.103 119.567
L408.301 119.999
L407.899 120.575
L407.498 120.575
L407.096 120.863
L406.695 120.863
L405.491 121.295
L405.089 121.295
L404.286 122.015
L403.885 122.015
L403.483 122.159
L403.082 122.015
L401.878 122.015
L401.476 122.303
L401.075 123.311
L400.673 122.591
L400.272 122.735
L399.87 123.023
L399.068 123.311
L398.666 123.311
L397.863 124.463
L397.462 124.463
L396.659 125.183
L395.455 125.039
L395.053 125.327
L394.652 125.759
L394.25 125.903
L393.849 125.903
L393.447 126.047
L393.046 126.047
L392.645 126.191
L392.243 126.479
L391.842 126.479
L391.44 126.623
L390.637 126.767
L390.236 127.199
L389.433 127.199
L389.032 127.055
L388.229 127.343
L387.426 127.343
L387.024 127.487
L386.623 127.487
L386.221 127.631
L385.82 127.631
L384.214 128.207
L383.813 128.207
L383.01 128.783
L382.609 128.783
L382.207 129.359
L381.806 129.359
L381.404 129.503
L381.003 129.791
L378.996 130.511
L378.193 130.511
L377.791 130.655
L377.39 130.655
L376.587 130.943
L376.186 130.943
L375.784 131.087
L375.383 130.943
L374.981 131.087
L374.178 131.951
L372.974 131.951
L372.573 132.095
L372.171 132.383
L371.77 132.527
L344.472 145.919
L338.049 150.383
L328.816 153.407
L326.407 154.703
L324.801 155.999
L316.371 158.879
L302.722 162.479
L302.321 162.767
L299.109 163.487
L299.109 163.487" style="fill:none;stroke:#000000;stroke-linecap:square;stroke-width:2;"/>
   </g>
   <g id="line2d_5">
    <path clip-path="url(#p6fd7a61c41)" d="
M614.239 33.3109
L613.436 33.7429
L612.633 33.8869
L611.83 34.6069
L611.027 117.551
L609.823 36.0469
L609.02 35.3269
L604.203 36.6229
L594.568 40.7989
L561.249 60.5269
L558.84 61.3909
L558.439 62.1109
L557.234 62.9749
L556.833 62.9749
L555.629 63.4069
L555.227 63.8389
L554.424 64.1269
L554.023 66.7189
L553.621 64.7029
L553.22 66.2869
L552.819 66.1429
L552.417 66.1429
L551.614 66.5749
L551.213 67.0069
L550.811 67.1509
L548.001 67.8709
L546.396 69.3109
L545.994 69.8869
L543.987 70.3189
L543.586 70.6069
L543.184 70.7509
L542.783 70.6069
L542.381 70.8949
L541.98 70.8949
L541.177 71.1829
L540.775 71.4709
L540.374 71.6149
L539.571 71.7589
L539.17 72.0469
L538.768 71.7589
L538.367 72.0469
L537.564 72.7669
L537.162 72.6229
L536.761 72.9109
L536.36 72.7669
L535.557 72.7669
L535.155 73.0549
L533.951 73.1989
L533.148 73.1989
L532.345 74.2069
L531.944 74.2069
L531.542 74.4949
L529.937 75.0709
L529.134 75.7909
L528.732 70.0309
L528.331 70.1749
L527.929 70.7509
L527.127 71.0389
L526.324 71.1829
L525.521 71.9029
L525.119 72.0469
L524.718 73.0549
L524.316 73.1989
L523.915 73.7749
L523.514 75.9349
L523.112 73.9189
L522.711 74.3509
L522.309 74.2069
L521.908 74.3509
L521.506 75.0709
L521.105 75.3589
L520.302 75.3589
L519.901 75.9349
L519.499 75.9349
L519.098 76.2229
L518.295 76.9429
L517.091 77.8069
L516.689 77.6629
L515.886 77.9509
L515.485 77.9509
L515.083 78.0949
L514.682 78.0949
L513.879 78.3829
L511.47 80.2549
L511.069 80.3989
L510.668 80.3989
L510.266 81.1189
L509.865 81.2629
L509.463 81.5509
L509.062 81.4069
L508.259 81.6949
L507.857 81.5509
L507.456 81.6949
L507.055 82.4149
L506.653 82.7029
L506.252 82.8469
L505.449 83.4229
L505.047 83.2789
L504.646 83.8549
L504.245 83.7109
L503.843 83.8549
L503.04 84.4309
L502.237 84.4309
L501.836 84.8629
L499.026 86.4469
L498.624 86.4469
L498.223 86.8789
L497.42 86.5909
L497.019 87.1669
L496.617 87.1669
L496.216 87.3109
L494.61 89.0389
L494.209 88.6069
L493.406 88.6069
L493.004 88.8949
L492.603 88.8949
L492.201 89.3269
L491.8 89.4709
L491.398 89.4709
L490.596 89.7589
L490.194 91.0549
L489.793 90.6229
L488.99 90.9109
L488.588 90.3349
L488.187 90.6229
L486.983 91.0549
L485.377 90.7669
L484.975 90.9109
L484.574 91.3429
L483.771 91.9189
L483.37 93.0709
L482.968 93.0709
L482.567 93.3589
L478.151 94.0789
L463.298 99.6949
L461.291 99.6949
L460.889 100.415
L457.276 100.991
L456.875 101.567
L454.868 101.567
L454.466 102.575
L453.663 102.863
L453.262 103.727
L452.057 103.727
L451.656 104.015
L450.452 104.735
L450.05 104.735
L449.649 104.879
L449.247 105.455
L447.24 104.879
L446.839 105.023
L446.437 104.879
L445.233 104.879
L444.029 105.599
L442.824 105.743
L441.219 105.743
L440.416 106.031
L439.613 106.607
L439.211 107.039
L438.409 107.039
L437.606 107.327
L437.204 107.759
L436.803 107.759
L435.598 109.487
L434.394 109.487
L433.993 110.783
L429.978 112.511
L428.774 112.655
L427.971 113.231
L427.168 113.231
L426.365 114.239
L425.161 114.239
L424.76 114.671
L423.957 114.959
L423.555 115.535
L421.548 116.255
L420.745 117.119
L420.745 117.119" style="fill:none;stroke:#bfbf00;stroke-linecap:square;stroke-width:2;"/>
   </g>
   <g id="line2d_6">
    <path clip-path="url(#p6fd7a61c41)" d="
M614.239 33.1669
L613.436 33.7429
L612.633 35.0389
L611.83 35.6149
L611.027 39.9349
L609.823 41.2309
L609.02 41.3749" style="fill:none;stroke:#bf00bf;stroke-linecap:square;stroke-width:2;"/>
   </g>
   <g id="line2d_7">
    <path clip-path="url(#p6fd7a61c41)" d="
M113.645 243.407
L113.645 13.0069" style="fill:none;stroke:#333333;stroke-linecap:square;"/>
   </g>
   <g id="line2d_8">
    <path clip-path="url(#p6fd7a61c41)" d="
M126.491 243.407
L126.491 13.0069" style="fill:none;stroke:#cccccc;stroke-linecap:square;"/>
   </g>
   <g id="line2d_9">
    <path clip-path="url(#p6fd7a61c41)" d="
M138.534 243.407
L138.534 13.0069" style="fill:none;stroke:#cccccc;stroke-linecap:square;"/>
   </g>
   <g id="line2d_10">
    <path clip-path="url(#p6fd7a61c41)" d="
M151.781 243.407
L151.781 13.0069" style="fill:none;stroke:#cccccc;stroke-linecap:square;"/>
   </g>
   <g id="line2d_11">
    <path clip-path="url(#p6fd7a61c41)" d="
M165.029 243.407
L165.029 13.0069" style="fill:none;stroke:#cccccc;stroke-linecap:square;"/>
   </g>
   <g id="line2d_12">
    <path clip-path="url(#p6fd7a61c41)" d="
M170.247 243.407
L170.247 13.0069" style="fill:none;stroke:#cccccc;stroke-linecap:square;"/>
   </g>
   <g id="line2d_13">
    <path clip-path="url(#p6fd7a61c41)" d="
M186.305 243.407
L186.305 13.0069" style="fill:none;stroke:#cccccc;stroke-linecap:square;"/>
   </g>
   <g id="line2d_14">
    <path clip-path="url(#p6fd7a61c41)" d="
M199.954 243.407
L199.954 13.0069" style="fill:none;stroke:#cccccc;stroke-linecap:square;"/>
   </g>
   <g id="line2d_15">
    <path clip-path="url(#p6fd7a61c41)" d="
M215.209 243.407
L215.209 13.0069" style="fill:none;stroke:#cccccc;stroke-linecap:square;"/>
   </g>
   <g id="line2d_16">
    <path clip-path="url(#p6fd7a61c41)" d="
M227.252 243.407
L227.252 13.0069" style="fill:none;stroke:#cccccc;stroke-linecap:square;"/>
   </g>
   <g id="line2d_17">
    <path clip-path="url(#p6fd7a61c41)" d="
M237.288 243.407
L237.288 13.0069" style="fill:none;stroke:#cccccc;stroke-linecap:square;"/>
   </g>
   <g id="line2d_18">
    <path clip-path="url(#p6fd7a61c41)" d="
M250.535 243.407
L250.535 13.0069" style="fill:none;stroke:#cccccc;stroke-linecap:square;"/>
   </g>
   <g id="line2d_19">
    <path clip-path="url(#p6fd7a61c41)" d="
M287.066 243.407
L287.066 13.0069" style="fill:none;stroke:#cccccc;stroke-linecap:square;"/>
   </g>
   <g id="line2d_20">
    <path clip-path="url(#p6fd7a61c41)" d="
M279.84 243.407
L279.84 13.0069" style="fill:none;stroke:#333333;stroke-linecap:square;"/>
   </g>
   <g id="line2d_21">
    <path clip-path="url(#p6fd7a61c41)" d="
M292.285 243.407
L292.285 13.0069" style="fill:none;stroke:#cccccc;stroke-linecap:square;"/>
   </g>
   <g id="line2d_22">
    <path clip-path="url(#p6fd7a61c41)" d="
M303.525 243.407
L303.525 13.0069" style="fill:none;stroke:#cccccc;stroke-linecap:square;"/>
   </g>
   <g id="line2d_23">
    <path clip-path="url(#p6fd7a61c41)" d="
M318.378 243.407
L318.378 13.0069" style="fill:none;stroke:#cccccc;stroke-linecap:square;"/>
   </g>
   <g id="line2d_24">
    <path clip-path="url(#p6fd7a61c41)" d="
M344.472 243.407
L344.472 13.0069" style="fill:none;stroke:#cccccc;stroke-linecap:square;"/>
   </g>
   <g id="line2d_25">
    <path clip-path="url(#p6fd7a61c41)" d="
M382.207 243.407
L382.207 13.0069" style="fill:none;stroke:#cccccc;stroke-linecap:square;"/>
   </g>
   <g id="line2d_26">
    <path clip-path="url(#p6fd7a61c41)" d="
M418.738 243.407
L418.738 13.0069" style="fill:none;stroke:#cccccc;stroke-linecap:square;"/>
   </g>
   <g id="line2d_27">
    <path clip-path="url(#p6fd7a61c41)" d="
M419.139 243.407
L419.139 13.0069" style="fill:none;stroke:#333333;stroke-linecap:square;"/>
   </g>
   <g id="line2d_28">
    <path clip-path="url(#p6fd7a61c41)" d="
M486.18 243.407
L486.18 13.0069" style="fill:none;stroke:#cccccc;stroke-linecap:square;"/>
   </g>
   <g id="line2d_29">
    <path clip-path="url(#p6fd7a61c41)" d="
M511.069 243.407
L511.069 13.0069" style="fill:none;stroke:#cccccc;stroke-linecap:square;"/>
   </g>
   <g id="line2d_30">
    <path clip-path="url(#p6fd7a61c41)" d="
M528.732 243.407
L528.732 13.0069" style="fill:none;stroke:#333333;stroke-linecap:square;"/>
   </g>
   <g id="line2d_31">
    <path clip-path="url(#p6fd7a61c41)" d="
M579.715 243.407
L579.715 13.0069" style="fill:none;stroke:#cccccc;stroke-linecap:square;"/>
   </g>
   <g id="line2d_32">
    <path clip-path="url(#p6fd7a61c41)" d="
M599.787 243.407
L599.787 13.0069" style="fill:none;stroke:#cccccc;stroke-linecap:square;"/>
   </g>
   <g id="matplotlib.axis_1">
    <g id="xtick_1">
     <g id="line2d_33">
      <defs>
       <path d="
M0 0
L0 -4" id="m93b0483c22" style="stroke:#000000;stroke-width:0.5;"/>
      </defs>
      <g>
       <use style="stroke:#000000;stroke-width:0.5;" x="81.5293974821" xlink:href="#m93b0483c22" y="243.406875"/>
      </g>
     </g>
     <g id="line2d_34">
      <defs>
       <path d="
M0 0
L0 4" id="m741efc42ff" style="stroke:#000000;stroke-width:0.5;"/>
      </defs>
      <g>
       <use style="stroke:#000000;stroke-width:0.5;" x="81.5293974821" xlink:href="#m741efc42ff" y="13.006875"/>
      </g>
     </g>
     <g id="text_1">
      <!-- Jun 2014 -->
      <defs>
       <path d="
M9.8125 72.9062
L19.6719 72.9062
L19.6719 5.07812
Q19.6719 -8.10938 14.6719 -14.0625
Q9.67188 -20.0156 -1.42188 -20.0156
L-5.17188 -20.0156
L-5.17188 -11.7188
L-2.09375 -11.7188
Q4.4375 -11.7188 7.125 -8.04688
Q9.8125 -4.39062 9.8125 5.07812
z
" id="DejaVuSans-4a"/>
       <path d="
M54.8906 33.0156
L54.8906 0
L45.9062 0
L45.9062 32.7188
Q45.9062 40.4844 42.875 44.3281
Q39.8438 48.1875 33.7969 48.1875
Q26.5156 48.1875 22.3125 43.5469
Q18.1094 38.9219 18.1094 30.9062
L18.1094 0
L9.07812 0
L9.07812 54.6875
L18.1094 54.6875
L18.1094 46.1875
Q21.3438 51.125 25.7031 53.5625
Q30.0781 56 35.7969 56
Q45.2188 56 50.0469 50.1719
Q54.8906 44.3438 54.8906 33.0156" id="DejaVuSans-6e"/>
       <path d="
M12.4062 8.29688
L28.5156 8.29688
L28.5156 63.9219
L10.9844 60.4062
L10.9844 69.3906
L28.4219 72.9062
L38.2812 72.9062
L38.2812 8.29688
L54.3906 8.29688
L54.3906 0
L12.4062 0
z
" id="DejaVuSans-31"/>
       <path d="
M31.7812 66.4062
Q24.1719 66.4062 20.3281 58.9062
Q16.5 51.4219 16.5 36.375
Q16.5 21.3906 20.3281 13.8906
Q24.1719 6.39062 31.7812 6.39062
Q39.4531 6.39062 43.2812 13.8906
Q47.125 21.3906 47.125 36.375
Q47.125 51.4219 43.2812 58.9062
Q39.4531 66.4062 31.7812 66.4062
M31.7812 74.2188
Q44.0469 74.2188 50.5156 64.5156
Q56.9844 54.8281 56.9844 36.375
Q56.9844 17.9688 50.5156 8.26562
Q44.0469 -1.42188 31.7812 -1.42188
Q19.5312 -1.42188 13.0625 8.26562
Q6.59375 17.9688 6.59375 36.375
Q6.59375 54.8281 13.0625 64.5156
Q19.5312 74.2188 31.7812 74.2188" id="DejaVuSans-30"/>
       <path id="DejaVuSans-20"/>
       <path d="
M19.1875 8.29688
L53.6094 8.29688
L53.6094 0
L7.32812 0
L7.32812 8.29688
Q12.9375 14.1094 22.625 23.8906
Q32.3281 33.6875 34.8125 36.5312
Q39.5469 41.8438 41.4219 45.5312
Q43.3125 49.2188 43.3125 52.7812
Q43.3125 58.5938 39.2344 62.25
Q35.1562 65.9219 28.6094 65.9219
Q23.9688 65.9219 18.8125 64.3125
Q13.6719 62.7031 7.8125 59.4219
L7.8125 69.3906
Q13.7656 71.7812 18.9375 73
Q24.125 74.2188 28.4219 74.2188
Q39.75 74.2188 46.4844 68.5469
Q53.2188 62.8906 53.2188 53.4219
Q53.2188 48.9219 51.5312 44.8906
Q49.8594 40.875 45.4062 35.4062
Q44.1875 33.9844 37.6406 27.2188
Q31.1094 20.4531 19.1875 8.29688" id="DejaVuSans-32"/>
       <path d="
M37.7969 64.3125
L12.8906 25.3906
L37.7969 25.3906
z

M35.2031 72.9062
L47.6094 72.9062
L47.6094 25.3906
L58.0156 25.3906
L58.0156 17.1875
L47.6094 17.1875
L47.6094 0
L37.7969 0
L37.7969 17.1875
L4.89062 17.1875
L4.89062 26.7031
z
" id="DejaVuSans-34"/>
       <path d="
M8.5 21.5781
L8.5 54.6875
L17.4844 54.6875
L17.4844 21.9219
Q17.4844 14.1562 20.5 10.2656
Q23.5312 6.39062 29.5938 6.39062
Q36.8594 6.39062 41.0781 11.0312
Q45.3125 15.6719 45.3125 23.6875
L45.3125 54.6875
L54.2969 54.6875
L54.2969 0
L45.3125 0
L45.3125 8.40625
Q42.0469 3.42188 37.7188 1
Q33.4062 -1.42188 27.6875 -1.42188
Q18.2656 -1.42188 13.375 4.4375
Q8.5 10.2969 8.5 21.5781
M31.1094 56
z
" id="DejaVuSans-75"/>
      </defs>
      <g transform="translate(84.8406474821 300.458125)rotate(-90.0)scale(0.12 -0.12)">
       <use xlink:href="#DejaVuSans-4a"/>
       <use x="29.4921875" xlink:href="#DejaVuSans-75"/>
       <use x="92.87109375" xlink:href="#DejaVuSans-6e"/>
       <use x="156.25" xlink:href="#DejaVuSans-20"/>
       <use x="188.037109375" xlink:href="#DejaVuSans-32"/>
       <use x="251.66015625" xlink:href="#DejaVuSans-30"/>
       <use x="315.283203125" xlink:href="#DejaVuSans-31"/>
       <use x="378.90625" xlink:href="#DejaVuSans-34"/>
      </g>
     </g>
    </g>
    <g id="xtick_2">
     <g id="line2d_35">
      <g>
       <use style="stroke:#000000;stroke-width:0.5;" x="154.992706835" xlink:href="#m93b0483c22" y="243.406875"/>
      </g>
     </g>
     <g id="line2d_36">
      <g>
       <use style="stroke:#000000;stroke-width:0.5;" x="154.992706835" xlink:href="#m741efc42ff" y="13.006875"/>
      </g>
     </g>
     <g id="text_2">
      <!-- Dec 2014 -->
      <defs>
       <path d="
M19.6719 64.7969
L19.6719 8.10938
L31.5938 8.10938
Q46.6875 8.10938 53.6875 14.9375
Q60.6875 21.7812 60.6875 36.5312
Q60.6875 51.1719 53.6875 57.9844
Q46.6875 64.7969 31.5938 64.7969
z

M9.8125 72.9062
L30.0781 72.9062
Q51.2656 72.9062 61.1719 64.0938
Q71.0938 55.2812 71.0938 36.5312
Q71.0938 17.6719 61.125 8.82812
Q51.1719 0 30.0781 0
L9.8125 0
z
" id="DejaVuSans-44"/>
       <path d="
M56.2031 29.5938
L56.2031 25.2031
L14.8906 25.2031
Q15.4844 15.9219 20.4844 11.0625
Q25.4844 6.20312 34.4219 6.20312
Q39.5938 6.20312 44.4531 7.46875
Q49.3125 8.73438 54.1094 11.2812
L54.1094 2.78125
Q49.2656 0.734375 44.1875 -0.34375
Q39.1094 -1.42188 33.8906 -1.42188
Q20.7969 -1.42188 13.1562 6.1875
Q5.51562 13.8125 5.51562 26.8125
Q5.51562 40.2344 12.7656 48.1094
Q20.0156 56 32.3281 56
Q43.3594 56 49.7812 48.8906
Q56.2031 41.7969 56.2031 29.5938
M47.2188 32.2344
Q47.125 39.5938 43.0938 43.9844
Q39.0625 48.3906 32.4219 48.3906
Q24.9062 48.3906 20.3906 44.1406
Q15.875 39.8906 15.1875 32.1719
z
" id="DejaVuSans-65"/>
       <path d="
M48.7812 52.5938
L48.7812 44.1875
Q44.9688 46.2969 41.1406 47.3438
Q37.3125 48.3906 33.4062 48.3906
Q24.6562 48.3906 19.8125 42.8438
Q14.9844 37.3125 14.9844 27.2969
Q14.9844 17.2812 19.8125 11.7344
Q24.6562 6.20312 33.4062 6.20312
Q37.3125 6.20312 41.1406 7.25
Q44.9688 8.29688 48.7812 10.4062
L48.7812 2.09375
Q45.0156 0.34375 40.9844 -0.53125
Q36.9688 -1.42188 32.4219 -1.42188
Q20.0625 -1.42188 12.7812 6.34375
Q5.51562 14.1094 5.51562 27.2969
Q5.51562 40.6719 12.8594 48.3281
Q20.2188 56 33.0156 56
Q37.1562 56 41.1094 55.1406
Q45.0625 54.2969 48.7812 52.5938" id="DejaVuSans-63"/>
      </defs>
      <g transform="translate(158.303956835 304.309375)rotate(-90.0)scale(0.12 -0.12)">
       <use xlink:href="#DejaVuSans-44"/>
       <use x="77.001953125" xlink:href="#DejaVuSans-65"/>
       <use x="138.525390625" xlink:href="#DejaVuSans-63"/>
       <use x="193.505859375" xlink:href="#DejaVuSans-20"/>
       <use x="225.29296875" xlink:href="#DejaVuSans-32"/>
       <use x="288.916015625" xlink:href="#DejaVuSans-30"/>
       <use x="352.5390625" xlink:href="#DejaVuSans-31"/>
       <use x="416.162109375" xlink:href="#DejaVuSans-34"/>
      </g>
     </g>
    </g>
    <g id="xtick_3">
     <g id="line2d_37">
      <g>
       <use style="stroke:#000000;stroke-width:0.5;" x="228.054577338" xlink:href="#m93b0483c22" y="243.406875"/>
      </g>
     </g>
     <g id="line2d_38">
      <g>
       <use style="stroke:#000000;stroke-width:0.5;" x="228.054577338" xlink:href="#m741efc42ff" y="13.006875"/>
      </g>
     </g>
     <g id="text_3">
      <!-- Jun 2015 -->
      <defs>
       <path d="
M10.7969 72.9062
L49.5156 72.9062
L49.5156 64.5938
L19.8281 64.5938
L19.8281 46.7344
Q21.9688 47.4688 24.1094 47.8281
Q26.2656 48.1875 28.4219 48.1875
Q40.625 48.1875 47.75 41.5
Q54.8906 34.8125 54.8906 23.3906
Q54.8906 11.625 47.5625 5.09375
Q40.2344 -1.42188 26.9062 -1.42188
Q22.3125 -1.42188 17.5469 -0.640625
Q12.7969 0.140625 7.71875 1.70312
L7.71875 11.625
Q12.1094 9.23438 16.7969 8.0625
Q21.4844 6.89062 26.7031 6.89062
Q35.1562 6.89062 40.0781 11.3281
Q45.0156 15.7656 45.0156 23.3906
Q45.0156 31 40.0781 35.4375
Q35.1562 39.8906 26.7031 39.8906
Q22.75 39.8906 18.8125 39.0156
Q14.8906 38.1406 10.7969 36.2812
z
" id="DejaVuSans-35"/>
      </defs>
      <g transform="translate(231.365827338 300.083125)rotate(-90.0)scale(0.12 -0.12)">
       <use xlink:href="#DejaVuSans-4a"/>
       <use x="29.4921875" xlink:href="#DejaVuSans-75"/>
       <use x="92.87109375" xlink:href="#DejaVuSans-6e"/>
       <use x="156.25" xlink:href="#DejaVuSans-20"/>
       <use x="188.037109375" xlink:href="#DejaVuSans-32"/>
       <use x="251.66015625" xlink:href="#DejaVuSans-30"/>
       <use x="315.283203125" xlink:href="#DejaVuSans-31"/>
       <use x="378.90625" xlink:href="#DejaVuSans-35"/>
      </g>
     </g>
    </g>
    <g id="xtick_4">
     <g id="line2d_39">
      <g>
       <use style="stroke:#000000;stroke-width:0.5;" x="301.517886691" xlink:href="#m93b0483c22" y="243.406875"/>
      </g>
     </g>
     <g id="line2d_40">
      <g>
       <use style="stroke:#000000;stroke-width:0.5;" x="301.517886691" xlink:href="#m741efc42ff" y="13.006875"/>
      </g>
     </g>
     <g id="text_4">
      <!-- Dec 2015 -->
      <g transform="translate(304.829136691 303.934375)rotate(-90.0)scale(0.12 -0.12)">
       <use xlink:href="#DejaVuSans-44"/>
       <use x="77.001953125" xlink:href="#DejaVuSans-65"/>
       <use x="138.525390625" xlink:href="#DejaVuSans-63"/>
       <use x="193.505859375" xlink:href="#DejaVuSans-20"/>
       <use x="225.29296875" xlink:href="#DejaVuSans-32"/>
       <use x="288.916015625" xlink:href="#DejaVuSans-30"/>
       <use x="352.5390625" xlink:href="#DejaVuSans-31"/>
       <use x="416.162109375" xlink:href="#DejaVuSans-35"/>
      </g>
     </g>
    </g>
    <g id="xtick_5">
     <g id="line2d_41">
      <g>
       <use style="stroke:#000000;stroke-width:0.5;" x="374.981196043" xlink:href="#m93b0483c22" y="243.406875"/>
      </g>
     </g>
     <g id="line2d_42">
      <g>
       <use style="stroke:#000000;stroke-width:0.5;" x="374.981196043" xlink:href="#m741efc42ff" y="13.006875"/>
      </g>
     </g>
     <g id="text_5">
      <!-- Jun 2016 -->
      <defs>
       <path d="
M33.0156 40.375
Q26.375 40.375 22.4844 35.8281
Q18.6094 31.2969 18.6094 23.3906
Q18.6094 15.5312 22.4844 10.9531
Q26.375 6.39062 33.0156 6.39062
Q39.6562 6.39062 43.5312 10.9531
Q47.4062 15.5312 47.4062 23.3906
Q47.4062 31.2969 43.5312 35.8281
Q39.6562 40.375 33.0156 40.375
M52.5938 71.2969
L52.5938 62.3125
Q48.875 64.0625 45.0938 64.9844
Q41.3125 65.9219 37.5938 65.9219
Q27.8281 65.9219 22.6719 59.3281
Q17.5312 52.7344 16.7969 39.4062
Q19.6719 43.6562 24.0156 45.9219
Q28.375 48.1875 33.5938 48.1875
Q44.5781 48.1875 50.9531 41.5156
Q57.3281 34.8594 57.3281 23.3906
Q57.3281 12.1562 50.6875 5.35938
Q44.0469 -1.42188 33.0156 -1.42188
Q20.3594 -1.42188 13.6719 8.26562
Q6.98438 17.9688 6.98438 36.375
Q6.98438 53.6562 15.1875 63.9375
Q23.3906 74.2188 37.2031 74.2188
Q40.9219 74.2188 44.7031 73.4844
Q48.4844 72.75 52.5938 71.2969" id="DejaVuSans-36"/>
      </defs>
      <g transform="translate(378.292446043 300.375625)rotate(-90.0)scale(0.12 -0.12)">
       <use xlink:href="#DejaVuSans-4a"/>
       <use x="29.4921875" xlink:href="#DejaVuSans-75"/>
       <use x="92.87109375" xlink:href="#DejaVuSans-6e"/>
       <use x="156.25" xlink:href="#DejaVuSans-20"/>
       <use x="188.037109375" xlink:href="#DejaVuSans-32"/>
       <use x="251.66015625" xlink:href="#DejaVuSans-30"/>
       <use x="315.283203125" xlink:href="#DejaVuSans-31"/>
       <use x="378.90625" xlink:href="#DejaVuSans-36"/>
      </g>
     </g>
    </g>
    <g id="xtick_6">
     <g id="line2d_43">
      <g>
       <use style="stroke:#000000;stroke-width:0.5;" x="448.444505396" xlink:href="#m93b0483c22" y="243.406875"/>
      </g>
     </g>
     <g id="line2d_44">
      <g>
       <use style="stroke:#000000;stroke-width:0.5;" x="448.444505396" xlink:href="#m741efc42ff" y="13.006875"/>
      </g>
     </g>
     <g id="text_6">
      <!-- Dec 2016 -->
      <g transform="translate(451.755755396 304.226875)rotate(-90.0)scale(0.12 -0.12)">
       <use xlink:href="#DejaVuSans-44"/>
       <use x="77.001953125" xlink:href="#DejaVuSans-65"/>
       <use x="138.525390625" xlink:href="#DejaVuSans-63"/>
       <use x="193.505859375" xlink:href="#DejaVuSans-20"/>
       <use x="225.29296875" xlink:href="#DejaVuSans-32"/>
       <use x="288.916015625" xlink:href="#DejaVuSans-30"/>
       <use x="352.5390625" xlink:href="#DejaVuSans-31"/>
       <use x="416.162109375" xlink:href="#DejaVuSans-36"/>
      </g>
     </g>
    </g>
    <g id="xtick_7">
     <g id="line2d_45">
      <g>
       <use style="stroke:#000000;stroke-width:0.5;" x="521.506375899" xlink:href="#m93b0483c22" y="243.406875"/>
      </g>
     </g>
     <g id="line2d_46">
      <g>
       <use style="stroke:#000000;stroke-width:0.5;" x="521.506375899" xlink:href="#m741efc42ff" y="13.006875"/>
      </g>
     </g>
     <g id="text_7">
      <!-- Jun 2017 -->
      <defs>
       <path d="
M8.20312 72.9062
L55.0781 72.9062
L55.0781 68.7031
L28.6094 0
L18.3125 0
L43.2188 64.5938
L8.20312 64.5938
z
" id="DejaVuSans-37"/>
      </defs>
      <g transform="translate(524.817625899 300.105625)rotate(-90.0)scale(0.12 -0.12)">
       <use xlink:href="#DejaVuSans-4a"/>
       <use x="29.4921875" xlink:href="#DejaVuSans-75"/>
       <use x="92.87109375" xlink:href="#DejaVuSans-6e"/>
       <use x="156.25" xlink:href="#DejaVuSans-20"/>
       <use x="188.037109375" xlink:href="#DejaVuSans-32"/>
       <use x="251.66015625" xlink:href="#DejaVuSans-30"/>
       <use x="315.283203125" xlink:href="#DejaVuSans-31"/>
       <use x="378.90625" xlink:href="#DejaVuSans-37"/>
      </g>
     </g>
    </g>
    <g id="xtick_8">
     <g id="line2d_47">
      <g>
       <use style="stroke:#000000;stroke-width:0.5;" x="594.969685252" xlink:href="#m93b0483c22" y="243.406875"/>
      </g>
     </g>
     <g id="line2d_48">
      <g>
       <use style="stroke:#000000;stroke-width:0.5;" x="594.969685252" xlink:href="#m741efc42ff" y="13.006875"/>
      </g>
     </g>
     <g id="text_8">
      <!-- Dec 2017 -->
      <g transform="translate(598.280935252 303.956875)rotate(-90.0)scale(0.12 -0.12)">
       <use xlink:href="#DejaVuSans-44"/>
       <use x="77.001953125" xlink:href="#DejaVuSans-65"/>
       <use x="138.525390625" xlink:href="#DejaVuSans-63"/>
       <use x="193.505859375" xlink:href="#DejaVuSans-20"/>
       <use x="225.29296875" xlink:href="#DejaVuSans-32"/>
       <use x="288.916015625" xlink:href="#DejaVuSans-30"/>
       <use x="352.5390625" xlink:href="#DejaVuSans-31"/>
       <use x="416.162109375" xlink:href="#DejaVuSans-37"/>
      </g>
     </g>
    </g>
   </g>
   <g id="matplotlib.axis_2">
    <g id="ytick_1">
     <g id="line2d_49">
      <defs>
       <path d="
M0 0
L4 0" id="m728421d6d4" style="stroke:#000000;stroke-width:0.5;"/>
      </defs>
      <g>
       <use style="stroke:#000000;stroke-width:0.5;" x="56.23875" xlink:href="#m728421d6d4" y="243.406875"/>
      </g>
     </g>
     <g id="line2d_50">
      <defs>
       <path d="
M0 0
L-4 0" id="mcb0005524f" style="stroke:#000000;stroke-width:0.5;"/>
      </defs>
      <g>
       <use style="stroke:#000000;stroke-width:0.5;" x="614.23875" xlink:href="#mcb0005524f" y="243.406875"/>
      </g>
     </g>
     <g id="text_9">
      <!-- 200 -->
      <g transform="translate(31.01 246.718125)scale(0.12 -0.12)">
       <use xlink:href="#DejaVuSans-32"/>
       <use x="63.623046875" xlink:href="#DejaVuSans-30"/>
       <use x="127.24609375" xlink:href="#DejaVuSans-30"/>
      </g>
     </g>
    </g>
    <g id="ytick_2">
     <g id="line2d_51">
      <g>
       <use style="stroke:#000000;stroke-width:0.5;" x="56.23875" xlink:href="#m728421d6d4" y="214.606875"/>
      </g>
     </g>
     <g id="line2d_52">
      <g>
       <use style="stroke:#000000;stroke-width:0.5;" x="614.23875" xlink:href="#mcb0005524f" y="214.606875"/>
      </g>
     </g>
     <g id="text_10">
      <!-- 400 -->
      <g transform="translate(30.7175 217.918125)scale(0.12 -0.12)">
       <use xlink:href="#DejaVuSans-34"/>
       <use x="63.623046875" xlink:href="#DejaVuSans-30"/>
       <use x="127.24609375" xlink:href="#DejaVuSans-30"/>
      </g>
     </g>
    </g>
    <g id="ytick_3">
     <g id="line2d_53">
      <g>
       <use style="stroke:#000000;stroke-width:0.5;" x="56.23875" xlink:href="#m728421d6d4" y="185.806875"/>
      </g>
     </g>
     <g id="line2d_54">
      <g>
       <use style="stroke:#000000;stroke-width:0.5;" x="614.23875" xlink:href="#mcb0005524f" y="185.806875"/>
      </g>
     </g>
     <g id="text_11">
      <!-- 600 -->
      <g transform="translate(30.96875 189.118125)scale(0.12 -0.12)">
       <use xlink:href="#DejaVuSans-36"/>
       <use x="63.623046875" xlink:href="#DejaVuSans-30"/>
       <use x="127.24609375" xlink:href="#DejaVuSans-30"/>
      </g>
     </g>
    </g>
    <g id="ytick_4">
     <g id="line2d_55">
      <g>
       <use style="stroke:#000000;stroke-width:0.5;" x="56.23875" xlink:href="#m728421d6d4" y="157.006875"/>
      </g>
     </g>
     <g id="line2d_56">
      <g>
       <use style="stroke:#000000;stroke-width:0.5;" x="614.23875" xlink:href="#mcb0005524f" y="157.006875"/>
      </g>
     </g>
     <g id="text_12">
      <!-- 800 -->
      <defs>
       <path d="
M31.7812 34.625
Q24.75 34.625 20.7188 30.8594
Q16.7031 27.0938 16.7031 20.5156
Q16.7031 13.9219 20.7188 10.1562
Q24.75 6.39062 31.7812 6.39062
Q38.8125 6.39062 42.8594 10.1719
Q46.9219 13.9688 46.9219 20.5156
Q46.9219 27.0938 42.8906 30.8594
Q38.875 34.625 31.7812 34.625
M21.9219 38.8125
Q15.5781 40.375 12.0312 44.7188
Q8.5 49.0781 8.5 55.3281
Q8.5 64.0625 14.7188 69.1406
Q20.9531 74.2188 31.7812 74.2188
Q42.6719 74.2188 48.875 69.1406
Q55.0781 64.0625 55.0781 55.3281
Q55.0781 49.0781 51.5312 44.7188
Q48 40.375 41.7031 38.8125
Q48.8281 37.1562 52.7969 32.3125
Q56.7812 27.4844 56.7812 20.5156
Q56.7812 9.90625 50.3125 4.23438
Q43.8438 -1.42188 31.7812 -1.42188
Q19.7344 -1.42188 13.25 4.23438
Q6.78125 9.90625 6.78125 20.5156
Q6.78125 27.4844 10.7812 32.3125
Q14.7969 37.1562 21.9219 38.8125
M18.3125 54.3906
Q18.3125 48.7344 21.8438 45.5625
Q25.3906 42.3906 31.7812 42.3906
Q38.1406 42.3906 41.7188 45.5625
Q45.3125 48.7344 45.3125 54.3906
Q45.3125 60.0625 41.7188 63.2344
Q38.1406 66.4062 31.7812 66.4062
Q25.3906 66.4062 21.8438 63.2344
Q18.3125 60.0625 18.3125 54.3906" id="DejaVuSans-38"/>
      </defs>
      <g transform="translate(30.944375 160.318125)scale(0.12 -0.12)">
       <use xlink:href="#DejaVuSans-38"/>
       <use x="63.623046875" xlink:href="#DejaVuSans-30"/>
       <use x="127.24609375" xlink:href="#DejaVuSans-30"/>
      </g>
     </g>
    </g>
    <g id="ytick_5">
     <g id="line2d_57">
      <g>
       <use style="stroke:#000000;stroke-width:0.5;" x="56.23875" xlink:href="#m728421d6d4" y="128.206875"/>
      </g>
     </g>
     <g id="line2d_58">
      <g>
       <use style="stroke:#000000;stroke-width:0.5;" x="614.23875" xlink:href="#mcb0005524f" y="128.206875"/>
      </g>
     </g>
     <g id="text_13">
      <!-- 1000 -->
      <g transform="translate(23.81375 131.518125)scale(0.12 -0.12)">
       <use xlink:href="#DejaVuSans-31"/>
       <use x="63.623046875" xlink:href="#DejaVuSans-30"/>
       <use x="127.24609375" xlink:href="#DejaVuSans-30"/>
       <use x="190.869140625" xlink:href="#DejaVuSans-30"/>
      </g>
     </g>
    </g>
    <g id="ytick_6">
     <g id="line2d_59">
      <g>
       <use style="stroke:#000000;stroke-width:0.5;" x="56.23875" xlink:href="#m728421d6d4" y="99.406875"/>
      </g>
     </g>
     <g id="line2d_60">
      <g>
       <use style="stroke:#000000;stroke-width:0.5;" x="614.23875" xlink:href="#mcb0005524f" y="99.406875"/>
      </g>
     </g>
     <g id="text_14">
      <!-- 1200 -->
      <g transform="translate(23.81375 102.718125)scale(0.12 -0.12)">
       <use xlink:href="#DejaVuSans-31"/>
       <use x="63.623046875" xlink:href="#DejaVuSans-32"/>
       <use x="127.24609375" xlink:href="#DejaVuSans-30"/>
       <use x="190.869140625" xlink:href="#DejaVuSans-30"/>
      </g>
     </g>
    </g>
    <g id="ytick_7">
     <g id="line2d_61">
      <g>
       <use style="stroke:#000000;stroke-width:0.5;" x="56.23875" xlink:href="#m728421d6d4" y="70.606875"/>
      </g>
     </g>
     <g id="line2d_62">
      <g>
       <use style="stroke:#000000;stroke-width:0.5;" x="614.23875" xlink:href="#mcb0005524f" y="70.606875"/>
      </g>
     </g>
     <g id="text_15">
      <!-- 1400 -->
      <g transform="translate(23.81375 73.918125)scale(0.12 -0.12)">
       <use xlink:href="#DejaVuSans-31"/>
       <use x="63.623046875" xlink:href="#DejaVuSans-34"/>
       <use x="127.24609375" xlink:href="#DejaVuSans-30"/>
       <use x="190.869140625" xlink:href="#DejaVuSans-30"/>
      </g>
     </g>
    </g>
    <g id="ytick_8">
     <g id="line2d_63">
      <g>
       <use style="stroke:#000000;stroke-width:0.5;" x="56.23875" xlink:href="#m728421d6d4" y="41.806875"/>
      </g>
     </g>
     <g id="line2d_64">
      <g>
       <use style="stroke:#000000;stroke-width:0.5;" x="614.23875" xlink:href="#mcb0005524f" y="41.806875"/>
      </g>
     </g>
     <g id="text_16">
      <!-- 1600 -->
      <g transform="translate(23.81375 45.118125)scale(0.12 -0.12)">
       <use xlink:href="#DejaVuSans-31"/>
       <use x="63.623046875" xlink:href="#DejaVuSans-36"/>
       <use x="127.24609375" xlink:href="#DejaVuSans-30"/>
       <use x="190.869140625" xlink:href="#DejaVuSans-30"/>
      </g>
     </g>
    </g>
    <g id="ytick_9">
     <g id="line2d_65">
      <g>
       <use style="stroke:#000000;stroke-width:0.5;" x="56.23875" xlink:href="#m728421d6d4" y="13.006875"/>
      </g>
     </g>
     <g id="line2d_66">
      <g>
       <use style="stroke:#000000;stroke-width:0.5;" x="614.23875" xlink:href="#mcb0005524f" y="13.006875"/>
      </g>
     </g>
     <g id="text_17">
      <!-- 1800 -->
      <g transform="translate(23.81375 16.318125)scale(0.12 -0.12)">
       <use xlink:href="#DejaVuSans-31"/>
       <use x="63.623046875" xlink:href="#DejaVuSans-38"/>
       <use x="127.24609375" xlink:href="#DejaVuSans-30"/>
       <use x="190.869140625" xlink:href="#DejaVuSans-30"/>
      </g>
     </g>
    </g>
    <g id="text_18">
     <!-- Number of Tagged Packages -->
     <defs>
      <path d="
M9.8125 72.9062
L23.0938 72.9062
L55.4219 11.9219
L55.4219 72.9062
L64.9844 72.9062
L64.9844 0
L51.7031 0
L19.3906 60.9844
L19.3906 0
L9.8125 0
z
" id="DejaVuSans-4e"/>
      <path d="
M19.6719 64.7969
L19.6719 37.4062
L32.0781 37.4062
Q38.9688 37.4062 42.7188 40.9688
Q46.4844 44.5312 46.4844 51.125
Q46.4844 57.6719 42.7188 61.2344
Q38.9688 64.7969 32.0781 64.7969
z

M9.8125 72.9062
L32.0781 72.9062
Q44.3438 72.9062 50.6094 67.3594
Q56.8906 61.8125 56.8906 51.125
Q56.8906 40.3281 50.6094 34.8125
Q44.3438 29.2969 32.0781 29.2969
L19.6719 29.2969
L19.6719 0
L9.8125 0
z
" id="DejaVuSans-50"/>
      <path d="
M30.6094 48.3906
Q23.3906 48.3906 19.1875 42.75
Q14.9844 37.1094 14.9844 27.2969
Q14.9844 17.4844 19.1562 11.8438
Q23.3438 6.20312 30.6094 6.20312
Q37.7969 6.20312 41.9844 11.8594
Q46.1875 17.5312 46.1875 27.2969
Q46.1875 37.0156 41.9844 42.7031
Q37.7969 48.3906 30.6094 48.3906
M30.6094 56
Q42.3281 56 49.0156 48.375
Q55.7188 40.7656 55.7188 27.2969
Q55.7188 13.875 49.0156 6.21875
Q42.3281 -1.42188 30.6094 -1.42188
Q18.8438 -1.42188 12.1719 6.21875
Q5.51562 13.875 5.51562 27.2969
Q5.51562 40.7656 12.1719 48.375
Q18.8438 56 30.6094 56" id="DejaVuSans-6f"/>
      <path d="
M52 44.1875
Q55.375 50.25 60.0625 53.125
Q64.75 56 71.0938 56
Q79.6406 56 84.2812 50.0156
Q88.9219 44.0469 88.9219 33.0156
L88.9219 0
L79.8906 0
L79.8906 32.7188
Q79.8906 40.5781 77.0938 44.375
Q74.3125 48.1875 68.6094 48.1875
Q61.625 48.1875 57.5625 43.5469
Q53.5156 38.9219 53.5156 30.9062
L53.5156 0
L44.4844 0
L44.4844 32.7188
Q44.4844 40.625 41.7031 44.4062
Q38.9219 48.1875 33.1094 48.1875
Q26.2188 48.1875 22.1562 43.5312
Q18.1094 38.875 18.1094 30.9062
L18.1094 0
L9.07812 0
L9.07812 54.6875
L18.1094 54.6875
L18.1094 46.1875
Q21.1875 51.2188 25.4844 53.6094
Q29.7812 56 35.6875 56
Q41.6562 56 45.8281 52.9688
Q50 49.9531 52 44.1875" id="DejaVuSans-6d"/>
      <path d="
M9.07812 75.9844
L18.1094 75.9844
L18.1094 31.1094
L44.9219 54.6875
L56.3906 54.6875
L27.3906 29.1094
L57.625 0
L45.9062 0
L18.1094 26.7031
L18.1094 0
L9.07812 0
z
" id="DejaVuSans-6b"/>
      <path d="
M34.2812 27.4844
Q23.3906 27.4844 19.1875 25
Q14.9844 22.5156 14.9844 16.5
Q14.9844 11.7188 18.1406 8.90625
Q21.2969 6.10938 26.7031 6.10938
Q34.1875 6.10938 38.7031 11.4062
Q43.2188 16.7031 43.2188 25.4844
L43.2188 27.4844
z

M52.2031 31.2031
L52.2031 0
L43.2188 0
L43.2188 8.29688
Q40.1406 3.32812 35.5469 0.953125
Q30.9531 -1.42188 24.3125 -1.42188
Q15.9219 -1.42188 10.9531 3.29688
Q6 8.01562 6 15.9219
Q6 25.1406 12.1719 29.8281
Q18.3594 34.5156 30.6094 34.5156
L43.2188 34.5156
L43.2188 35.4062
Q43.2188 41.6094 39.1406 45
Q35.0625 48.3906 27.6875 48.3906
Q23 48.3906 18.5469 47.2656
Q14.1094 46.1406 10.0156 43.8906
L10.0156 52.2031
Q14.9375 54.1094 19.5781 55.0469
Q24.2188 56 28.6094 56
Q40.4844 56 46.3438 49.8438
Q52.2031 43.7031 52.2031 31.2031" id="DejaVuSans-61"/>
      <path d="
M37.1094 75.9844
L37.1094 68.5
L28.5156 68.5
Q23.6875 68.5 21.7969 66.5469
Q19.9219 64.5938 19.9219 59.5156
L19.9219 54.6875
L34.7188 54.6875
L34.7188 47.7031
L19.9219 47.7031
L19.9219 0
L10.8906 0
L10.8906 47.7031
L2.29688 47.7031
L2.29688 54.6875
L10.8906 54.6875
L10.8906 58.5
Q10.8906 67.625 15.1406 71.7969
Q19.3906 75.9844 28.6094 75.9844
z
" id="DejaVuSans-66"/>
      <path d="
M45.4062 27.9844
Q45.4062 37.75 41.375 43.1094
Q37.3594 48.4844 30.0781 48.4844
Q22.8594 48.4844 18.8281 43.1094
Q14.7969 37.75 14.7969 27.9844
Q14.7969 18.2656 18.8281 12.8906
Q22.8594 7.51562 30.0781 7.51562
Q37.3594 7.51562 41.375 12.8906
Q45.4062 18.2656 45.4062 27.9844
M54.3906 6.78125
Q54.3906 -7.17188 48.1875 -13.9844
Q42 -20.7969 29.2031 -20.7969
Q24.4688 -20.7969 20.2656 -20.0938
Q16.0625 -19.3906 12.1094 -17.9219
L12.1094 -9.1875
Q16.0625 -11.3281 19.9219 -12.3438
Q23.7812 -13.375 27.7812 -13.375
Q36.625 -13.375 41.0156 -8.76562
Q45.4062 -4.15625 45.4062 5.17188
L45.4062 9.625
Q42.625 4.78125 38.2812 2.39062
Q33.9375 0 27.875 0
Q17.8281 0 11.6719 7.65625
Q5.51562 15.3281 5.51562 27.9844
Q5.51562 40.6719 11.6719 48.3281
Q17.8281 56 27.875 56
Q33.9375 56 38.2812 53.6094
Q42.625 51.2188 45.4062 46.3906
L45.4062 54.6875
L54.3906 54.6875
z
" id="DejaVuSans-67"/>
      <path d="
M45.4062 46.3906
L45.4062 75.9844
L54.3906 75.9844
L54.3906 0
L45.4062 0
L45.4062 8.20312
Q42.5781 3.32812 38.25 0.953125
Q33.9375 -1.42188 27.875 -1.42188
Q17.9688 -1.42188 11.7344 6.48438
Q5.51562 14.4062 5.51562 27.2969
Q5.51562 40.1875 11.7344 48.0938
Q17.9688 56 27.875 56
Q33.9375 56 38.25 53.625
Q42.5781 51.2656 45.4062 46.3906
M14.7969 27.2969
Q14.7969 17.3906 18.875 11.75
Q22.9531 6.10938 30.0781 6.10938
Q37.2031 6.10938 41.2969 11.75
Q45.4062 17.3906 45.4062 27.2969
Q45.4062 37.2031 41.2969 42.8438
Q37.2031 48.4844 30.0781 48.4844
Q22.9531 48.4844 18.875 42.8438
Q14.7969 37.2031 14.7969 27.2969" id="DejaVuSans-64"/>
      <path d="
M-0.296875 72.9062
L61.375 72.9062
L61.375 64.5938
L35.5 64.5938
L35.5 0
L25.5938 0
L25.5938 64.5938
L-0.296875 64.5938
z
" id="DejaVuSans-54"/>
      <path d="
M48.6875 27.2969
Q48.6875 37.2031 44.6094 42.8438
Q40.5312 48.4844 33.4062 48.4844
Q26.2656 48.4844 22.1875 42.8438
Q18.1094 37.2031 18.1094 27.2969
Q18.1094 17.3906 22.1875 11.75
Q26.2656 6.10938 33.4062 6.10938
Q40.5312 6.10938 44.6094 11.75
Q48.6875 17.3906 48.6875 27.2969
M18.1094 46.3906
Q20.9531 51.2656 25.2656 53.625
Q29.5938 56 35.5938 56
Q45.5625 56 51.7812 48.0938
Q58.0156 40.1875 58.0156 27.2969
Q58.0156 14.4062 51.7812 6.48438
Q45.5625 -1.42188 35.5938 -1.42188
Q29.5938 -1.42188 25.2656 0.953125
Q20.9531 3.32812 18.1094 8.20312
L18.1094 0
L9.07812 0
L9.07812 75.9844
L18.1094 75.9844
z
" id="DejaVuSans-62"/>
      <path d="
M44.2812 53.0781
L44.2812 44.5781
Q40.4844 46.5312 36.375 47.5
Q32.2812 48.4844 27.875 48.4844
Q21.1875 48.4844 17.8438 46.4375
Q14.5 44.3906 14.5 40.2812
Q14.5 37.1562 16.8906 35.375
Q19.2812 33.5938 26.5156 31.9844
L29.5938 31.2969
Q39.1562 29.25 43.1875 25.5156
Q47.2188 21.7812 47.2188 15.0938
Q47.2188 7.46875 41.1875 3.01562
Q35.1562 -1.42188 24.6094 -1.42188
Q20.2188 -1.42188 15.4531 -0.5625
Q10.6875 0.296875 5.42188 2
L5.42188 11.2812
Q10.4062 8.6875 15.2344 7.39062
Q20.0625 6.10938 24.8125 6.10938
Q31.1562 6.10938 34.5625 8.28125
Q37.9844 10.4531 37.9844 14.4062
Q37.9844 18.0625 35.5156 20.0156
Q33.0625 21.9688 24.7031 23.7812
L21.5781 24.5156
Q13.2344 26.2656 9.51562 29.9062
Q5.8125 33.5469 5.8125 39.8906
Q5.8125 47.6094 11.2812 51.7969
Q16.75 56 26.8125 56
Q31.7812 56 36.1719 55.2656
Q40.5781 54.5469 44.2812 53.0781" id="DejaVuSans-73"/>
      <path d="
M41.1094 46.2969
Q39.5938 47.1719 37.8125 47.5781
Q36.0312 48 33.8906 48
Q26.2656 48 22.1875 43.0469
Q18.1094 38.0938 18.1094 28.8125
L18.1094 0
L9.07812 0
L9.07812 54.6875
L18.1094 54.6875
L18.1094 46.1875
Q20.9531 51.1719 25.4844 53.5781
Q30.0312 56 36.5312 56
Q37.4531 56 38.5781 55.875
Q39.7031 55.7656 41.0625 55.5156
z
" id="DejaVuSans-72"/>
     </defs>
     <g transform="translate(16.318125 212.98875)rotate(-90.0)scale(0.12 -0.12)">
      <use xlink:href="#DejaVuSans-4e"/>
      <use x="74.8046875" xlink:href="#DejaVuSans-75"/>
      <use x="138.18359375" xlink:href="#DejaVuSans-6d"/>
      <use x="235.595703125" xlink:href="#DejaVuSans-62"/>
      <use x="299.072265625" xlink:href="#DejaVuSans-65"/>
      <use x="360.595703125" xlink:href="#DejaVuSans-72"/>
      <use x="401.708984375" xlink:href="#DejaVuSans-20"/>
      <use x="433.49609375" xlink:href="#DejaVuSans-6f"/>
      <use x="494.677734375" xlink:href="#DejaVuSans-66"/>
      <use x="529.8828125" xlink:href="#DejaVuSans-20"/>
      <use x="561.669921875" xlink:href="#DejaVuSans-54"/>
      <use x="606.25390625" xlink:href="#DejaVuSans-61"/>
      <use x="667.533203125" xlink:href="#DejaVuSans-67"/>
      <use x="731.009765625" xlink:href="#DejaVuSans-67"/>
      <use x="794.486328125" xlink:href="#DejaVuSans-65"/>
      <use x="856.009765625" xlink:href="#DejaVuSans-64"/>
      <use x="919.486328125" xlink:href="#DejaVuSans-20"/>
      <use x="951.2734375" xlink:href="#DejaVuSans-50"/>
      <use x="1007.07617188" xlink:href="#DejaVuSans-61"/>
      <use x="1068.35546875" xlink:href="#DejaVuSans-63"/>
      <use x="1123.3359375" xlink:href="#DejaVuSans-6b"/>
      <use x="1179.49609375" xlink:href="#DejaVuSans-61"/>
      <use x="1240.77539062" xlink:href="#DejaVuSans-67"/>
      <use x="1304.25195312" xlink:href="#DejaVuSans-65"/>
      <use x="1365.77539062" xlink:href="#DejaVuSans-73"/>
     </g>
    </g>
   </g>
   <g id="patch_3">
    <path d="
M56.2388 13.0069
L614.239 13.0069" style="fill:none;stroke:#000000;"/>
   </g>
   <g id="patch_4">
    <path d="
M614.239 243.407
L614.239 13.0069" style="fill:none;stroke:#000000;"/>
   </g>
   <g id="patch_5">
    <path d="
M56.2388 243.407
L614.239 243.407" style="fill:none;stroke:#000000;"/>
   </g>
   <g id="patch_6">
    <path d="
M56.2388 243.407
L56.2388 13.0069" style="fill:none;stroke:#000000;"/>
   </g>
   <g id="text_19">
    <g id="patch_7">
     <path d="
M106.807 160.199
L120.482 160.199
L120.482 125.811
L106.807 125.811
z
" style="fill:#ffffff;stroke:#ffffff;"/>
    </g>
    <!-- v0.3.0 -->
    <defs>
     <path d="
M40.5781 39.3125
Q47.6562 37.7969 51.625 33
Q55.6094 28.2188 55.6094 21.1875
Q55.6094 10.4062 48.1875 4.48438
Q40.7656 -1.42188 27.0938 -1.42188
Q22.5156 -1.42188 17.6562 -0.515625
Q12.7969 0.390625 7.625 2.20312
L7.625 11.7188
Q11.7188 9.32812 16.5938 8.10938
Q21.4844 6.89062 26.8125 6.89062
Q36.0781 6.89062 40.9375 10.5469
Q45.7969 14.2031 45.7969 21.1875
Q45.7969 27.6406 41.2812 31.2656
Q36.7656 34.9062 28.7188 34.9062
L20.2188 34.9062
L20.2188 43.0156
L29.1094 43.0156
Q36.375 43.0156 40.2344 45.9219
Q44.0938 48.8281 44.0938 54.2969
Q44.0938 59.9062 40.1094 62.9062
Q36.1406 65.9219 28.7188 65.9219
Q24.6562 65.9219 20.0156 65.0312
Q15.375 64.1562 9.8125 62.3125
L9.8125 71.0938
Q15.4375 72.6562 20.3438 73.4375
Q25.25 74.2188 29.5938 74.2188
Q40.8281 74.2188 47.3594 69.1094
Q53.9062 64.0156 53.9062 55.3281
Q53.9062 49.2656 50.4375 45.0938
Q46.9688 40.9219 40.5781 39.3125" id="DejaVuSans-33"/>
     <path d="
M2.98438 54.6875
L12.5 54.6875
L29.5938 8.79688
L46.6875 54.6875
L56.2031 54.6875
L35.6875 0
L23.4844 0
z
" id="DejaVuSans-76"/>
     <path d="
M10.6875 12.4062
L21 12.4062
L21 0
L10.6875 0
z
" id="DejaVuSans-2e"/>
    </defs>
    <g transform="translate(116.402776646 158.199316875)rotate(-90.0)scale(0.09996 -0.09996)">
     <use xlink:href="#DejaVuSans-76"/>
     <use x="59.1796875" xlink:href="#DejaVuSans-30"/>
     <use x="122.802734375" xlink:href="#DejaVuSans-2e"/>
     <use x="154.58984375" xlink:href="#DejaVuSans-33"/>
     <use x="218.212890625" xlink:href="#DejaVuSans-2e"/>
     <use x="250.0" xlink:href="#DejaVuSans-30"/>
    </g>
   </g>
   <g id="text_20">
    <g id="patch_8">
     <path d="
M119.653 131.14
L133.328 131.14
L133.328 97.0115
L119.653 97.0115
z
" style="fill:#ffffff;stroke:#ffffff;"/>
    </g>
    <!-- v0.3.1 -->
    <g transform="translate(129.248819811 129.140045625)rotate(-90.0)scale(0.09996 -0.09996)">
     <use xlink:href="#DejaVuSans-76"/>
     <use x="59.1796875" xlink:href="#DejaVuSans-30"/>
     <use x="122.802734375" xlink:href="#DejaVuSans-2e"/>
     <use x="154.58984375" xlink:href="#DejaVuSans-33"/>
     <use x="218.212890625" xlink:href="#DejaVuSans-2e"/>
     <use x="250.0" xlink:href="#DejaVuSans-31"/>
    </g>
   </g>
   <g id="text_21">
    <g id="patch_9">
     <path d="
M131.697 159.862
L145.371 159.862
L145.371 125.811
L131.697 125.811
z
" style="fill:#ffffff;stroke:#ffffff;"/>
    </g>
    <!-- v0.3.2 -->
    <g transform="translate(141.291985279 157.861951875)rotate(-90.0)scale(0.09996 -0.09996)">
     <use xlink:href="#DejaVuSans-76"/>
     <use x="59.1796875" xlink:href="#DejaVuSans-30"/>
     <use x="122.802734375" xlink:href="#DejaVuSans-2e"/>
     <use x="154.58984375" xlink:href="#DejaVuSans-33"/>
     <use x="218.212890625" xlink:href="#DejaVuSans-2e"/>
     <use x="250.0" xlink:href="#DejaVuSans-32"/>
    </g>
   </g>
   <g id="text_22">
    <g id="patch_10">
     <path d="
M144.944 131.262
L158.618 131.262
L158.618 97.0115
L144.944 97.0115
z
" style="fill:#ffffff;stroke:#ffffff;"/>
    </g>
    <!-- v0.3.3 -->
    <g transform="translate(154.539467293 129.261871875)rotate(-90.0)scale(0.09996 -0.09996)">
     <use xlink:href="#DejaVuSans-76"/>
     <use x="59.1796875" xlink:href="#DejaVuSans-30"/>
     <use x="122.802734375" xlink:href="#DejaVuSans-2e"/>
     <use x="154.58984375" xlink:href="#DejaVuSans-33"/>
     <use x="218.212890625" xlink:href="#DejaVuSans-2e"/>
     <use x="250.0" xlink:href="#DejaVuSans-33"/>
    </g>
   </g>
   <g id="text_23">
    <g id="patch_11">
     <path d="
M158.192 160.302
L171.866 160.302
L171.866 125.811
L158.192 125.811
z
" style="fill:#ffffff;stroke:#ffffff;"/>
    </g>
    <!-- v0.3.4 -->
    <g transform="translate(167.786949308 158.302400625)rotate(-90.0)scale(0.09996 -0.09996)">
     <use xlink:href="#DejaVuSans-76"/>
     <use x="59.1796875" xlink:href="#DejaVuSans-30"/>
     <use x="122.802734375" xlink:href="#DejaVuSans-2e"/>
     <use x="154.58984375" xlink:href="#DejaVuSans-33"/>
     <use x="218.212890625" xlink:href="#DejaVuSans-2e"/>
     <use x="250.0" xlink:href="#DejaVuSans-34"/>
    </g>
   </g>
   <g id="text_24">
    <g id="patch_12">
     <path d="
M163.41 131.19
L177.085 131.19
L177.085 97.0115
L163.41 97.0115
z
" style="fill:#ffffff;stroke:#ffffff;"/>
    </g>
    <!-- v0.3.5 -->
    <g transform="translate(173.005654344 129.190025625)rotate(-90.0)scale(0.09996 -0.09996)">
     <use xlink:href="#DejaVuSans-76"/>
     <use x="59.1796875" xlink:href="#DejaVuSans-30"/>
     <use x="122.802734375" xlink:href="#DejaVuSans-2e"/>
     <use x="154.58984375" xlink:href="#DejaVuSans-33"/>
     <use x="218.212890625" xlink:href="#DejaVuSans-2e"/>
     <use x="250.0" xlink:href="#DejaVuSans-35"/>
    </g>
   </g>
   <g id="text_25">
    <g id="patch_13">
     <path d="
M179.468 160.234
L193.142 160.234
L193.142 125.811
L179.468 125.811
z
" style="fill:#ffffff;stroke:#ffffff;"/>
    </g>
    <!-- v0.3.6 -->
    <g transform="translate(189.0632083 158.233678125)rotate(-90.0)scale(0.09996 -0.09996)">
     <use xlink:href="#DejaVuSans-76"/>
     <use x="59.1796875" xlink:href="#DejaVuSans-30"/>
     <use x="122.802734375" xlink:href="#DejaVuSans-2e"/>
     <use x="154.58984375" xlink:href="#DejaVuSans-33"/>
     <use x="218.212890625" xlink:href="#DejaVuSans-2e"/>
     <use x="250.0" xlink:href="#DejaVuSans-36"/>
    </g>
   </g>
   <g id="text_26">
    <g id="patch_14">
     <path d="
M193.117 131.209
L206.791 131.209
L206.791 97.0115
L193.117 97.0115
z
" style="fill:#ffffff;stroke:#ffffff;"/>
    </g>
    <!-- v0.3.7 -->
    <g transform="translate(202.712129164 129.208768125)rotate(-90.0)scale(0.09996 -0.09996)">
     <use xlink:href="#DejaVuSans-76"/>
     <use x="59.1796875" xlink:href="#DejaVuSans-30"/>
     <use x="122.802734375" xlink:href="#DejaVuSans-2e"/>
     <use x="154.58984375" xlink:href="#DejaVuSans-33"/>
     <use x="218.212890625" xlink:href="#DejaVuSans-2e"/>
     <use x="250.0" xlink:href="#DejaVuSans-37"/>
    </g>
   </g>
   <g id="text_27">
    <g id="patch_15">
     <path d="
M208.371 160.179
L222.046 160.179
L222.046 125.811
L208.371 125.811
z
" style="fill:#ffffff;stroke:#ffffff;"/>
    </g>
    <!-- v0.3.8 -->
    <g transform="translate(217.966805423 158.1790125)rotate(-90.0)scale(0.09996 -0.09996)">
     <use xlink:href="#DejaVuSans-76"/>
     <use x="59.1796875" xlink:href="#DejaVuSans-30"/>
     <use x="122.802734375" xlink:href="#DejaVuSans-2e"/>
     <use x="154.58984375" xlink:href="#DejaVuSans-33"/>
     <use x="218.212890625" xlink:href="#DejaVuSans-2e"/>
     <use x="250.0" xlink:href="#DejaVuSans-38"/>
    </g>
   </g>
   <g id="text_28">
    <g id="patch_16">
     <path d="
M220.415 131.36
L234.089 131.36
L234.089 97.0115
L220.415 97.0115
z
" style="fill:#ffffff;stroke:#ffffff;"/>
    </g>
    <!-- v0.3.9 -->
    <defs>
     <path d="
M10.9844 1.51562
L10.9844 10.5
Q14.7031 8.73438 18.5 7.8125
Q22.3125 6.89062 25.9844 6.89062
Q35.75 6.89062 40.8906 13.4531
Q46.0469 20.0156 46.7812 33.4062
Q43.9531 29.2031 39.5938 26.9531
Q35.25 24.7031 29.9844 24.7031
Q19.0469 24.7031 12.6719 31.3125
Q6.29688 37.9375 6.29688 49.4219
Q6.29688 60.6406 12.9375 67.4219
Q19.5781 74.2188 30.6094 74.2188
Q43.2656 74.2188 49.9219 64.5156
Q56.5938 54.8281 56.5938 36.375
Q56.5938 19.1406 48.4062 8.85938
Q40.2344 -1.42188 26.4219 -1.42188
Q22.7031 -1.42188 18.8906 -0.6875
Q15.0938 0.046875 10.9844 1.51562
M30.6094 32.4219
Q37.25 32.4219 41.125 36.9531
Q45.0156 41.5 45.0156 49.4219
Q45.0156 57.2812 41.125 61.8438
Q37.25 66.4062 30.6094 66.4062
Q23.9688 66.4062 20.0938 61.8438
Q16.2188 57.2812 16.2188 49.4219
Q16.2188 41.5 20.0938 36.9531
Q23.9688 32.4219 30.6094 32.4219" id="DejaVuSans-39"/>
    </defs>
    <g transform="translate(230.00997089 129.36027)rotate(-90.0)scale(0.09996 -0.09996)">
     <use xlink:href="#DejaVuSans-76"/>
     <use x="59.1796875" xlink:href="#DejaVuSans-30"/>
     <use x="122.802734375" xlink:href="#DejaVuSans-2e"/>
     <use x="154.58984375" xlink:href="#DejaVuSans-33"/>
     <use x="218.212890625" xlink:href="#DejaVuSans-2e"/>
     <use x="250.0" xlink:href="#DejaVuSans-39"/>
    </g>
   </g>
   <g id="text_29">
    <g id="patch_17">
     <path d="
M230.451 166.559
L244.125 166.559
L244.125 125.811
L230.451 125.811
z
" style="fill:#ffffff;stroke:#ffffff;"/>
    </g>
    <!-- v0.3.10 -->
    <g transform="translate(240.045942113 164.559271875)rotate(-90.0)scale(0.09996 -0.09996)">
     <use xlink:href="#DejaVuSans-76"/>
     <use x="59.1796875" xlink:href="#DejaVuSans-30"/>
     <use x="122.802734375" xlink:href="#DejaVuSans-2e"/>
     <use x="154.58984375" xlink:href="#DejaVuSans-33"/>
     <use x="218.212890625" xlink:href="#DejaVuSans-2e"/>
     <use x="250.0" xlink:href="#DejaVuSans-31"/>
     <use x="313.623046875" xlink:href="#DejaVuSans-30"/>
    </g>
   </g>
   <g id="text_30">
    <g id="patch_18">
     <path d="
M243.698 137.5
L257.372 137.5
L257.372 97.0115
L243.698 97.0115
z
" style="fill:#ffffff;stroke:#ffffff;"/>
    </g>
    <!-- v0.3.11 -->
    <g transform="translate(253.293424128 135.500000625)rotate(-90.0)scale(0.09996 -0.09996)">
     <use xlink:href="#DejaVuSans-76"/>
     <use x="59.1796875" xlink:href="#DejaVuSans-30"/>
     <use x="122.802734375" xlink:href="#DejaVuSans-2e"/>
     <use x="154.58984375" xlink:href="#DejaVuSans-33"/>
     <use x="218.212890625" xlink:href="#DejaVuSans-2e"/>
     <use x="250.0" xlink:href="#DejaVuSans-31"/>
     <use x="313.623046875" xlink:href="#DejaVuSans-31"/>
    </g>
   </g>
   <g id="text_31">
    <g id="patch_19">
     <path d="
M280.229 166.222
L293.903 166.222
L293.903 125.811
L280.229 125.811
z
" style="fill:#ffffff;stroke:#ffffff;"/>
    </g>
    <!-- v0.3.12 -->
    <g transform="translate(289.82435938 164.221906875)rotate(-90.0)scale(0.09996 -0.09996)">
     <use xlink:href="#DejaVuSans-76"/>
     <use x="59.1796875" xlink:href="#DejaVuSans-30"/>
     <use x="122.802734375" xlink:href="#DejaVuSans-2e"/>
     <use x="154.58984375" xlink:href="#DejaVuSans-33"/>
     <use x="218.212890625" xlink:href="#DejaVuSans-2e"/>
     <use x="250.0" xlink:href="#DejaVuSans-31"/>
     <use x="313.623046875" xlink:href="#DejaVuSans-32"/>
    </g>
   </g>
   <g id="text_32">
    <g id="patch_20">
     <path d="
M273.003 239.399
L286.677 239.399
L286.677 205.011
L273.003 205.011
z
" style="fill:#ffffff;stroke:#ffffff;"/>
    </g>
    <!-- v0.4.0 -->
    <g transform="translate(282.598460099 237.399316875)rotate(-90.0)scale(0.09996 -0.09996)">
     <use xlink:href="#DejaVuSans-76"/>
     <use x="59.1796875" xlink:href="#DejaVuSans-30"/>
     <use x="122.802734375" xlink:href="#DejaVuSans-2e"/>
     <use x="154.58984375" xlink:href="#DejaVuSans-34"/>
     <use x="218.212890625" xlink:href="#DejaVuSans-2e"/>
     <use x="250.0" xlink:href="#DejaVuSans-30"/>
    </g>
   </g>
   <g id="text_33">
    <g id="patch_21">
     <path d="
M285.448 217.54
L299.122 217.54
L299.122 183.411
L285.448 183.411
z
" style="fill:#ffffff;stroke:#ffffff;"/>
    </g>
    <!-- v0.4.1 -->
    <g transform="translate(295.043064416 215.540045625)rotate(-90.0)scale(0.09996 -0.09996)">
     <use xlink:href="#DejaVuSans-76"/>
     <use x="59.1796875" xlink:href="#DejaVuSans-30"/>
     <use x="122.802734375" xlink:href="#DejaVuSans-2e"/>
     <use x="154.58984375" xlink:href="#DejaVuSans-34"/>
     <use x="218.212890625" xlink:href="#DejaVuSans-2e"/>
     <use x="250.0" xlink:href="#DejaVuSans-31"/>
    </g>
   </g>
   <g id="text_34">
    <g id="patch_22">
     <path d="
M296.688 239.062
L310.362 239.062
L310.362 205.011
L296.688 205.011
z
" style="fill:#ffffff;stroke:#ffffff;"/>
    </g>
    <!-- v0.4.2 -->
    <g transform="translate(306.283352185 237.061951875)rotate(-90.0)scale(0.09996 -0.09996)">
     <use xlink:href="#DejaVuSans-76"/>
     <use x="59.1796875" xlink:href="#DejaVuSans-30"/>
     <use x="122.802734375" xlink:href="#DejaVuSans-2e"/>
     <use x="154.58984375" xlink:href="#DejaVuSans-34"/>
     <use x="218.212890625" xlink:href="#DejaVuSans-2e"/>
     <use x="250.0" xlink:href="#DejaVuSans-32"/>
    </g>
   </g>
   <g id="text_35">
    <g id="patch_23">
     <path d="
M311.541 217.662
L325.215 217.662
L325.215 183.411
L311.541 183.411
z
" style="fill:#ffffff;stroke:#ffffff;"/>
    </g>
    <!-- v0.4.3 -->
    <g transform="translate(321.136589595 215.661871875)rotate(-90.0)scale(0.09996 -0.09996)">
     <use xlink:href="#DejaVuSans-76"/>
     <use x="59.1796875" xlink:href="#DejaVuSans-30"/>
     <use x="122.802734375" xlink:href="#DejaVuSans-2e"/>
     <use x="154.58984375" xlink:href="#DejaVuSans-34"/>
     <use x="218.212890625" xlink:href="#DejaVuSans-2e"/>
     <use x="250.0" xlink:href="#DejaVuSans-33"/>
    </g>
   </g>
   <g id="text_36">
    <g id="patch_24">
     <path d="
M337.635 239.19
L351.309 239.19
L351.309 205.011
L337.635 205.011
z
" style="fill:#ffffff;stroke:#ffffff;"/>
    </g>
    <!-- v0.4.5 -->
    <g transform="translate(347.230114775 237.190025625)rotate(-90.0)scale(0.09996 -0.09996)">
     <use xlink:href="#DejaVuSans-76"/>
     <use x="59.1796875" xlink:href="#DejaVuSans-30"/>
     <use x="122.802734375" xlink:href="#DejaVuSans-2e"/>
     <use x="154.58984375" xlink:href="#DejaVuSans-34"/>
     <use x="218.212890625" xlink:href="#DejaVuSans-2e"/>
     <use x="250.0" xlink:href="#DejaVuSans-35"/>
    </g>
   </g>
   <g id="text_37">
    <g id="patch_25">
     <path d="
M375.37 217.834
L389.044 217.834
L389.044 183.411
L375.37 183.411
z
" style="fill:#ffffff;stroke:#ffffff;"/>
    </g>
    <!-- v0.4.6 -->
    <g transform="translate(384.965366574 215.833678125)rotate(-90.0)scale(0.09996 -0.09996)">
     <use xlink:href="#DejaVuSans-76"/>
     <use x="59.1796875" xlink:href="#DejaVuSans-30"/>
     <use x="122.802734375" xlink:href="#DejaVuSans-2e"/>
     <use x="154.58984375" xlink:href="#DejaVuSans-34"/>
     <use x="218.212890625" xlink:href="#DejaVuSans-2e"/>
     <use x="250.0" xlink:href="#DejaVuSans-36"/>
    </g>
   </g>
   <g id="text_38">
    <g id="patch_26">
     <path d="
M411.901 239.209
L425.575 239.209
L425.575 205.011
L411.901 205.011
z
" style="fill:#ffffff;stroke:#ffffff;"/>
    </g>
    <!-- v0.4.7 -->
    <g transform="translate(421.496301826 237.208768125)rotate(-90.0)scale(0.09996 -0.09996)">
     <use xlink:href="#DejaVuSans-76"/>
     <use x="59.1796875" xlink:href="#DejaVuSans-30"/>
     <use x="122.802734375" xlink:href="#DejaVuSans-2e"/>
     <use x="154.58984375" xlink:href="#DejaVuSans-34"/>
     <use x="218.212890625" xlink:href="#DejaVuSans-2e"/>
     <use x="250.0" xlink:href="#DejaVuSans-37"/>
    </g>
   </g>
   <g id="text_39">
    <g id="patch_27">
     <path d="
M412.302 167.399
L425.977 167.399
L425.977 133.011
L412.302 133.011
z
" style="fill:#ffffff;stroke:#ffffff;"/>
    </g>
    <!-- v0.5.0 -->
    <g transform="translate(421.897740674 165.399316875)rotate(-90.0)scale(0.09996 -0.09996)">
     <use xlink:href="#DejaVuSans-76"/>
     <use x="59.1796875" xlink:href="#DejaVuSans-30"/>
     <use x="122.802734375" xlink:href="#DejaVuSans-2e"/>
     <use x="154.58984375" xlink:href="#DejaVuSans-35"/>
     <use x="218.212890625" xlink:href="#DejaVuSans-2e"/>
     <use x="250.0" xlink:href="#DejaVuSans-30"/>
    </g>
   </g>
   <g id="text_40">
    <g id="patch_28">
     <path d="
M479.343 152.74
L493.017 152.74
L493.017 118.611
L479.343 118.611
z
" style="fill:#ffffff;stroke:#ffffff;"/>
    </g>
    <!-- v0.5.1 -->
    <g transform="translate(488.938028444 150.740045625)rotate(-90.0)scale(0.09996 -0.09996)">
     <use xlink:href="#DejaVuSans-76"/>
     <use x="59.1796875" xlink:href="#DejaVuSans-30"/>
     <use x="122.802734375" xlink:href="#DejaVuSans-2e"/>
     <use x="154.58984375" xlink:href="#DejaVuSans-35"/>
     <use x="218.212890625" xlink:href="#DejaVuSans-2e"/>
     <use x="250.0" xlink:href="#DejaVuSans-31"/>
    </g>
   </g>
   <g id="text_41">
    <g id="patch_29">
     <path d="
M504.232 167.062
L517.906 167.062
L517.906 133.011
L504.232 133.011
z
" style="fill:#ffffff;stroke:#ffffff;"/>
    </g>
    <!-- v0.5.2 -->
    <g transform="translate(513.827237077 165.061951875)rotate(-90.0)scale(0.09996 -0.09996)">
     <use xlink:href="#DejaVuSans-76"/>
     <use x="59.1796875" xlink:href="#DejaVuSans-30"/>
     <use x="122.802734375" xlink:href="#DejaVuSans-2e"/>
     <use x="154.58984375" xlink:href="#DejaVuSans-35"/>
     <use x="218.212890625" xlink:href="#DejaVuSans-2e"/>
     <use x="250.0" xlink:href="#DejaVuSans-32"/>
    </g>
   </g>
   <g id="text_42">
    <g id="patch_30">
     <path d="
M521.895 239.399
L535.569 239.399
L535.569 205.011
L521.895 205.011
z
" style="fill:#ffffff;stroke:#ffffff;"/>
    </g>
    <!-- v0.6.0 -->
    <g transform="translate(531.49054643 237.399316875)rotate(-90.0)scale(0.09996 -0.09996)">
     <use xlink:href="#DejaVuSans-76"/>
     <use x="59.1796875" xlink:href="#DejaVuSans-30"/>
     <use x="122.802734375" xlink:href="#DejaVuSans-2e"/>
     <use x="154.58984375" xlink:href="#DejaVuSans-36"/>
     <use x="218.212890625" xlink:href="#DejaVuSans-2e"/>
     <use x="250.0" xlink:href="#DejaVuSans-30"/>
    </g>
   </g>
   <g id="text_43">
    <g id="patch_31">
     <path d="
M572.878 195.94
L586.552 195.94
L586.552 161.811
L572.878 161.811
z
" style="fill:#ffffff;stroke:#ffffff;"/>
    </g>
    <!-- v0.6.1 -->
    <g transform="translate(582.473280243 193.940045625)rotate(-90.0)scale(0.09996 -0.09996)">
     <use xlink:href="#DejaVuSans-76"/>
     <use x="59.1796875" xlink:href="#DejaVuSans-30"/>
     <use x="122.802734375" xlink:href="#DejaVuSans-2e"/>
     <use x="154.58984375" xlink:href="#DejaVuSans-36"/>
     <use x="218.212890625" xlink:href="#DejaVuSans-2e"/>
     <use x="250.0" xlink:href="#DejaVuSans-31"/>
    </g>
   </g>
   <g id="text_44">
    <g id="patch_32">
     <path d="
M592.95 174.262
L606.624 174.262
L606.624 140.211
L592.95 140.211
z
" style="fill:#ffffff;stroke:#ffffff;"/>
    </g>
    <!-- v0.6.2 -->
    <g transform="translate(602.545222689 172.261951875)rotate(-90.0)scale(0.09996 -0.09996)">
     <use xlink:href="#DejaVuSans-76"/>
     <use x="59.1796875" xlink:href="#DejaVuSans-30"/>
     <use x="122.802734375" xlink:href="#DejaVuSans-2e"/>
     <use x="154.58984375" xlink:href="#DejaVuSans-36"/>
     <use x="218.212890625" xlink:href="#DejaVuSans-2e"/>
     <use x="250.0" xlink:href="#DejaVuSans-32"/>
    </g>
   </g>
   <g id="legend_1">
    <g id="patch_33">
     <path d="
M61.2368 109.037
L111.899 109.037
L111.899 18.0049
L61.2368 18.0049
L61.2368 109.037
z
" style="fill:#ffffff;stroke:#000000;"/>
    </g>
    <g id="line2d_67">
     <path d="
M68.234 26.1001
L82.2284 26.1001" style="fill:none;stroke:#ff0000;stroke-linecap:square;stroke-width:2;"/>
    </g>
    <g id="line2d_68"/>
    <g id="text_45">
     <!-- 0.2 -->
     <g transform="translate(93.22395 29.598673125)scale(0.09996 -0.09996)">
      <use xlink:href="#DejaVuSans-30"/>
      <use x="63.623046875" xlink:href="#DejaVuSans-2e"/>
      <use x="95.41015625" xlink:href="#DejaVuSans-32"/>
     </g>
    </g>
    <g id="line2d_69">
     <path d="
M68.234 40.7723
L82.2284 40.7723" style="fill:none;stroke:#008000;stroke-linecap:square;stroke-width:2;"/>
    </g>
    <g id="line2d_70"/>
    <g id="text_46">
     <!-- 0.3 -->
     <g transform="translate(93.22395 44.270926875)scale(0.09996 -0.09996)">
      <use xlink:href="#DejaVuSans-30"/>
      <use x="63.623046875" xlink:href="#DejaVuSans-2e"/>
      <use x="95.41015625" xlink:href="#DejaVuSans-33"/>
     </g>
    </g>
    <g id="line2d_71">
     <path d="
M68.234 55.4446
L82.2284 55.4446" style="fill:none;stroke:#0000ff;stroke-linecap:square;stroke-width:2;"/>
    </g>
    <g id="line2d_72"/>
    <g id="text_47">
     <!-- 0.4 -->
     <g transform="translate(93.22395 58.943180625)scale(0.09996 -0.09996)">
      <use xlink:href="#DejaVuSans-30"/>
      <use x="63.623046875" xlink:href="#DejaVuSans-2e"/>
      <use x="95.41015625" xlink:href="#DejaVuSans-34"/>
     </g>
    </g>
    <g id="line2d_73">
     <path d="
M68.234 70.1168
L82.2284 70.1168" style="fill:none;stroke:#000000;stroke-linecap:square;stroke-width:2;"/>
    </g>
    <g id="line2d_74"/>
    <g id="text_48">
     <!-- 0.5 -->
     <g transform="translate(93.22395 73.615434375)scale(0.09996 -0.09996)">
      <use xlink:href="#DejaVuSans-30"/>
      <use x="63.623046875" xlink:href="#DejaVuSans-2e"/>
      <use x="95.41015625" xlink:href="#DejaVuSans-35"/>
     </g>
    </g>
    <g id="line2d_75">
     <path d="
M68.234 84.7891
L82.2284 84.7891" style="fill:none;stroke:#bfbf00;stroke-linecap:square;stroke-width:2;"/>
    </g>
    <g id="line2d_76"/>
    <g id="text_49">
     <!-- 0.6 -->
     <g transform="translate(93.22395 88.287688125)scale(0.09996 -0.09996)">
      <use xlink:href="#DejaVuSans-30"/>
      <use x="63.623046875" xlink:href="#DejaVuSans-2e"/>
      <use x="95.41015625" xlink:href="#DejaVuSans-36"/>
     </g>
    </g>
    <g id="line2d_77">
     <path d="
M68.234 99.4613
L82.2284 99.4613" style="fill:none;stroke:#bf00bf;stroke-linecap:square;stroke-width:2;"/>
    </g>
    <g id="line2d_78"/>
    <g id="text_50">
     <!-- 0.7 -->
     <g transform="translate(93.22395 102.959941875)scale(0.09996 -0.09996)">
      <use xlink:href="#DejaVuSans-30"/>
      <use x="63.623046875" xlink:href="#DejaVuSans-2e"/>
      <use x="95.41015625" xlink:href="#DejaVuSans-37"/>
     </g>
    </g>
   </g>
  </g>
 </g>
 <defs>
  <clipPath id="p6fd7a61c41">
   <rect height="230.4" width="558.0" x="56.23875" y="13.006875"/>
  </clipPath>
 </defs>
</svg>
