<?xml version="1.0" encoding="UTF-8"?>
<svg xmlns="http://www.w3.org/2000/svg"
     xmlns:xlink="http://www.w3.org/1999/xlink"
     xmlns:gadfly="http://www.gadflyjl.org/ns"
     version="1.2"
     width="254mm" height="101.6mm" viewBox="0 0 254 101.6"
     stroke="none"
     fill="#000000"
     stroke-width="0.3"
     font-size="3.88"
>
<g class="plotroot xscalable yscalable" id="fig-6c80455d84a6406682577a57ab8f8956-element-1">
  <g font-size="3.88" font-family="'PT Sans','Helvetica Neue','Helvetica',sans-serif" fill="#564A55" stroke="#000000" stroke-opacity="0.000" id="fig-6c80455d84a6406682577a57ab8f8956-element-2">
    <text x="127.14" y="89.99" text-anchor="middle" dy="0.6em">Date</text>
  </g>
  <g class="guide xlabels" font-size="2.82" font-family="'PT Sans Caption','Helvetica Neue','Helvetica',sans-serif" fill="#6C606B" id="fig-6c80455d84a6406682577a57ab8f8956-element-3">
    <text x="22.36" y="83.32" text-anchor="middle" dy="0.6em">Apr</text>
    <text x="33.31" y="83.32" text-anchor="middle" dy="0.6em">May</text>
    <text x="44.63" y="83.32" text-anchor="middle" dy="0.6em">Jun</text>
    <text x="55.59" y="83.32" text-anchor="middle" dy="0.6em">Jul</text>
    <text x="66.9" y="83.32" text-anchor="middle" dy="0.6em">Aug</text>
    <text x="78.22" y="83.32" text-anchor="middle" dy="0.6em">Sep</text>
    <text x="89.17" y="83.32" text-anchor="middle" dy="0.6em">Oct</text>
    <text x="100.49" y="83.32" text-anchor="middle" dy="0.6em">Nov</text>
    <text x="111.44" y="83.32" text-anchor="middle" dy="0.6em">Dec</text>
    <text x="122.76" y="83.32" text-anchor="middle" dy="0.6em">Jan 2015</text>
    <text x="134.08" y="83.32" text-anchor="middle" dy="0.6em">Feb</text>
    <text x="144.3" y="83.32" text-anchor="middle" dy="0.6em">Mar</text>
    <text x="155.62" y="83.32" text-anchor="middle" dy="0.6em">Apr</text>
    <text x="166.57" y="83.32" text-anchor="middle" dy="0.6em">May</text>
    <text x="177.89" y="83.32" text-anchor="middle" dy="0.6em">Jun</text>
    <text x="188.84" y="83.32" text-anchor="middle" dy="0.6em">Jul</text>
    <text x="200.16" y="83.32" text-anchor="middle" dy="0.6em">Aug</text>
    <text x="211.48" y="83.32" text-anchor="middle" dy="0.6em">Sep</text>
    <text x="222.43" y="83.32" text-anchor="middle" dy="0.6em">Oct</text>
  </g>
  <g class="guide colorkey" id="fig-6c80455d84a6406682577a57ab8f8956-element-4">
    <g fill="#4C404B" font-size="2.82" font-family="'PT Sans','Helvetica Neue','Helvetica',sans-serif" id="fig-6c80455d84a6406682577a57ab8f8956-element-5">
      <text x="238.47" y="41.84" dy="0.35em" id="fig-6c80455d84a6406682577a57ab8f8956-element-6" class="color_0.2">0.2</text>
      <text x="238.47" y="45.47" dy="0.35em" id="fig-6c80455d84a6406682577a57ab8f8956-element-7" class="color_0.3">0.3</text>
      <text x="238.47" y="49.1" dy="0.35em" id="fig-6c80455d84a6406682577a57ab8f8956-element-8" class="color_0.4">0.4</text>
    </g>
    <g stroke="#000000" stroke-opacity="0.000" id="fig-6c80455d84a6406682577a57ab8f8956-element-9">
      <rect x="235.65" y="40.94" width="1.81" height="1.81" id="fig-6c80455d84a6406682577a57ab8f8956-element-10" fill="#00BFFF" class="color_0.2"/>
      <rect x="235.65" y="44.56" width="1.81" height="1.81" id="fig-6c80455d84a6406682577a57ab8f8956-element-11" fill="#D4CA3A" class="color_0.3"/>
      <rect x="235.65" y="48.19" width="1.81" height="1.81" id="fig-6c80455d84a6406682577a57ab8f8956-element-12" fill="#FF5EA0" class="color_0.4"/>
    </g>
    <g fill="#362A35" font-size="3.88" font-family="'PT Sans','Helvetica Neue','Helvetica',sans-serif" stroke="#000000" stroke-opacity="0.000" id="fig-6c80455d84a6406682577a57ab8f8956-element-13">
      <text x="235.65" y="38.02" id="fig-6c80455d84a6406682577a57ab8f8956-element-14">Julia ver.</text>
    </g>
  </g>
  <g clip-path="url(#fig-6c80455d84a6406682577a57ab8f8956-element-16)" id="fig-6c80455d84a6406682577a57ab8f8956-element-15">
    <g pointer-events="visible" opacity="1" fill="#000000" fill-opacity="0.000" stroke="#000000" stroke-opacity="0.000" class="guide background" id="fig-6c80455d84a6406682577a57ab8f8956-element-17">
      <rect x="19.63" y="5" width="215.02" height="77.32" id="fig-6c80455d84a6406682577a57ab8f8956-element-18"/>
    </g>
    <g class="guide ygridlines xfixed" stroke-dasharray="0.5,0.5" stroke-width="0.2" stroke="#D0D0E0" id="fig-6c80455d84a6406682577a57ab8f8956-element-19">
      <path fill="none" d="M19.63,80.32 L 234.65 80.32" id="fig-6c80455d84a6406682577a57ab8f8956-element-20"/>
      <path fill="none" d="M19.63,61.99 L 234.65 61.99" id="fig-6c80455d84a6406682577a57ab8f8956-element-21"/>
      <path fill="none" d="M19.63,43.66 L 234.65 43.66" id="fig-6c80455d84a6406682577a57ab8f8956-element-22"/>
      <path fill="none" d="M19.63,25.33 L 234.65 25.33" id="fig-6c80455d84a6406682577a57ab8f8956-element-23"/>
      <path fill="none" d="M19.63,7 L 234.65 7" id="fig-6c80455d84a6406682577a57ab8f8956-element-24"/>
    </g>
    <g class="guide xgridlines yfixed" stroke-dasharray="0.5,0.5" stroke-width="0.2" stroke="#D0D0E0" id="fig-6c80455d84a6406682577a57ab8f8956-element-25">
      <path fill="none" d="M22.36,5 L 22.36 82.32" id="fig-6c80455d84a6406682577a57ab8f8956-element-26"/>
      <path fill="none" d="M33.31,5 L 33.31 82.32" id="fig-6c80455d84a6406682577a57ab8f8956-element-27"/>
      <path fill="none" d="M44.63,5 L 44.63 82.32" id="fig-6c80455d84a6406682577a57ab8f8956-element-28"/>
      <path fill="none" d="M55.59,5 L 55.59 82.32" id="fig-6c80455d84a6406682577a57ab8f8956-element-29"/>
      <path fill="none" d="M66.9,5 L 66.9 82.32" id="fig-6c80455d84a6406682577a57ab8f8956-element-30"/>
      <path fill="none" d="M78.22,5 L 78.22 82.32" id="fig-6c80455d84a6406682577a57ab8f8956-element-31"/>
      <path fill="none" d="M89.17,5 L 89.17 82.32" id="fig-6c80455d84a6406682577a57ab8f8956-element-32"/>
      <path fill="none" d="M100.49,5 L 100.49 82.32" id="fig-6c80455d84a6406682577a57ab8f8956-element-33"/>
      <path fill="none" d="M111.44,5 L 111.44 82.32" id="fig-6c80455d84a6406682577a57ab8f8956-element-34"/>
      <path fill="none" d="M122.76,5 L 122.76 82.32" id="fig-6c80455d84a6406682577a57ab8f8956-element-35"/>
      <path fill="none" d="M134.08,5 L 134.08 82.32" id="fig-6c80455d84a6406682577a57ab8f8956-element-36"/>
      <path fill="none" d="M144.3,5 L 144.3 82.32" id="fig-6c80455d84a6406682577a57ab8f8956-element-37"/>
      <path fill="none" d="M155.62,5 L 155.62 82.32" id="fig-6c80455d84a6406682577a57ab8f8956-element-38"/>
      <path fill="none" d="M166.57,5 L 166.57 82.32" id="fig-6c80455d84a6406682577a57ab8f8956-element-39"/>
      <path fill="none" d="M177.89,5 L 177.89 82.32" id="fig-6c80455d84a6406682577a57ab8f8956-element-40"/>
      <path fill="none" d="M188.84,5 L 188.84 82.32" id="fig-6c80455d84a6406682577a57ab8f8956-element-41"/>
      <path fill="none" d="M200.16,5 L 200.16 82.32" id="fig-6c80455d84a6406682577a57ab8f8956-element-42"/>
      <path fill="none" d="M211.48,5 L 211.48 82.32" id="fig-6c80455d84a6406682577a57ab8f8956-element-43"/>
      <path fill="none" d="M222.43,5 L 222.43 82.32" id="fig-6c80455d84a6406682577a57ab8f8956-element-44"/>
    </g>
    <g class="plotpanel" id="fig-6c80455d84a6406682577a57ab8f8956-element-45">
      <g class="yfixed" stroke-dasharray="none" stroke-width="0.26" stroke="#7F7F7F" id="fig-6c80455d84a6406682577a57ab8f8956-element-46">
        <path fill="none" d="M73.84,5 L 73.84 82.32" id="fig-6c80455d84a6406682577a57ab8f8956-element-47"/>
        <path fill="none" d="M85.52,5 L 85.52 82.32" id="fig-6c80455d84a6406682577a57ab8f8956-element-48"/>
        <path fill="none" d="M96.48,5 L 96.48 82.32" id="fig-6c80455d84a6406682577a57ab8f8956-element-49"/>
        <path fill="none" d="M108.52,5 L 108.52 82.32" id="fig-6c80455d84a6406682577a57ab8f8956-element-50"/>
        <path fill="none" d="M120.57,5 L 120.57 82.32" id="fig-6c80455d84a6406682577a57ab8f8956-element-51"/>
        <path fill="none" d="M125.32,5 L 125.32 82.32" id="fig-6c80455d84a6406682577a57ab8f8956-element-52"/>
        <path fill="none" d="M139.92,5 L 139.92 82.32" id="fig-6c80455d84a6406682577a57ab8f8956-element-53"/>
        <path fill="none" d="M152.33,5 L 152.33 82.32" id="fig-6c80455d84a6406682577a57ab8f8956-element-54"/>
        <path fill="none" d="M166.21,5 L 166.21 82.32" id="fig-6c80455d84a6406682577a57ab8f8956-element-55"/>
        <path fill="none" d="M177.16,5 L 177.16 82.32" id="fig-6c80455d84a6406682577a57ab8f8956-element-56"/>
        <path fill="none" d="M177.16,5 L 177.16 82.32" id="fig-6c80455d84a6406682577a57ab8f8956-element-57"/>
        <path fill="none" d="M186.29,5 L 186.29 82.32" id="fig-6c80455d84a6406682577a57ab8f8956-element-58"/>
        <path fill="none" d="M198.34,5 L 198.34 82.32" id="fig-6c80455d84a6406682577a57ab8f8956-element-59"/>
        <path fill="none" d="M224.99,5 L 224.99 82.32" id="fig-6c80455d84a6406682577a57ab8f8956-element-60"/>
      </g>
      <g class="geometry" stroke="#000000" stroke-opacity="0.000" fill="#4C404B" font-size="2.82" font-family="'PT Sans Caption','Helvetica Neue','Helvetica',sans-serif" id="fig-6c80455d84a6406682577a57ab8f8956-element-61">
        <text x="73.3" y="71.15" text-anchor="end" dy="0.35em" id="fig-6c80455d84a6406682577a57ab8f8956-element-62">v0.3.0→</text>
        <text x="84.98" y="71.15" text-anchor="end" dy="0.35em" id="fig-6c80455d84a6406682577a57ab8f8956-element-63">v0.3.1→</text>
        <text x="95.94" y="71.15" text-anchor="end" dy="0.35em" id="fig-6c80455d84a6406682577a57ab8f8956-element-64">v0.3.2→</text>
        <text x="107.98" y="71.15" text-anchor="end" dy="0.35em" id="fig-6c80455d84a6406682577a57ab8f8956-element-65">v0.3.3→</text>
        <text x="120.03" y="71.15" text-anchor="end" dy="0.35em" id="fig-6c80455d84a6406682577a57ab8f8956-element-66">v0.3.4→</text>
        <text x="124.78" y="71.15" text-anchor="end" dy="0.35em" id="fig-6c80455d84a6406682577a57ab8f8956-element-67"></text>
        <text x="139.38" y="71.15" text-anchor="end" dy="0.35em" id="fig-6c80455d84a6406682577a57ab8f8956-element-68">v0.3.6→</text>
        <text x="151.79" y="71.15" text-anchor="end" dy="0.35em" id="fig-6c80455d84a6406682577a57ab8f8956-element-69">v0.3.7→</text>
        <text x="165.67" y="71.15" text-anchor="end" dy="0.35em" id="fig-6c80455d84a6406682577a57ab8f8956-element-70">v0.3.8→</text>
        <text x="176.62" y="71.15" text-anchor="end" dy="0.35em" id="fig-6c80455d84a6406682577a57ab8f8956-element-71">v0.3.9→</text>
        <text x="176.62" y="71.15" text-anchor="end" dy="0.35em" id="fig-6c80455d84a6406682577a57ab8f8956-element-72">v0.3.9→</text>
        <text x="185.75" y="71.15" text-anchor="end" dy="0.35em" id="fig-6c80455d84a6406682577a57ab8f8956-element-73"></text>
        <text x="197.8" y="71.15" text-anchor="end" dy="0.35em" id="fig-6c80455d84a6406682577a57ab8f8956-element-74">v0.3.11→</text>
        <text x="224.45" y="61.99" text-anchor="end" dy="0.35em" id="fig-6c80455d84a6406682577a57ab8f8956-element-75">v0.4.0→</text>
      </g>
      <g stroke-width="0.79" fill="#000000" fill-opacity="0.000" class="geometry color_0.4" stroke-dasharray="none" stroke="#FF5EA0" id="fig-6c80455d84a6406682577a57ab8f8956-element-76">
        <path fill="none" d="M71.28,46.96 L 71.65 46.68 72.01 46.59 72.38 46.5 72.74 46.5 73.11 46.5 73.84 46.22 74.2 46.22 74.57 46.13 74.93 46.13 75.3 46.13 75.67 45.86 76.03 45.67 76.4 45.67 77.13 45.49 77.49 45.22 78.22 45.03 78.59 45.03 78.95 45.03 80.41 45.03 81.51 44.48 81.87 44.39 82.24 44.3 82.6 44.12 82.97 44.12 83.33 44.12 83.7 43.38 84.06 43.38 84.43 43.38 85.16 43.29 85.52 43.29 85.89 43.2 86.25 43.2 86.62 43.2 86.98 43.11 87.35 43.11 88.08 43.2 88.44 43.11 88.81 43.11 89.17 42.92 89.54 42.74 89.9 42.74 90.27 42.74 90.63 42.56 91.73 42.37 92.09 42.37 92.46 42.19 92.82 42.1 93.19 42.1 93.55 42.1 93.92 41.92 94.28 41.92 94.65 41.82 95.01 41.73 95.38 41.73 95.75 41.73 96.11 41.73 96.48 41.55 96.84 41.37 97.21 41.37 97.57 41.37 97.94 41.27 98.3 41.27 98.67 41.18 99.03 41.18 99.4 41 99.76 40.91 100.13 40.91 100.49 40.82 100.86 40.82 101.22 40.82 101.59 40.82 101.95 40.72 102.32 40.63 103.41 40.63 105.24 40.08 105.6 39.9 105.97 39.9 106.33 39.81 106.7 39.81 107.06 39.53 107.43 39.53 108.89 39.08 109.25 39.08 111.08 38.98 111.81 38.98 112.17 38.8 112.54 38.71 112.9 38.71 113.27 38.71 113.63 38.53 114 38.34 115.09 38.25 115.46 38.16 116.19 37.79 116.56 37.79 116.92 37.79 118.02 37.79 118.75 37.61 119.84 37.43 121.3 37.24 122.03 36.88 123.13 36.69 125.68 36.05 127.14 35.41 127.51 35.23 127.87 35.23 128.24 34.68 128.6 34.68 128.97 34.68 129.7 34.58 130.06 34.49 130.43 34.49 130.79 34.22 131.16 34.13 131.52 34.13 131.89 34.13 132.62 33.85 132.98 33.58 133.35 33.49 134.81 32.75 135.17 32.75 135.54 33.03 136.27 32.75 137 32.48 137.37 32.48 138.46 32.29 140.29 32.29 142.11 32.2 143.94 31.38 144.3 31.38 144.67 31.38 145.03 31.19 145.4 31.19 146.13 31.01 146.86 31.01 148.32 30.92 148.68 30.74 149.05 30.74 149.41 30.74 149.78 30.55 150.14 30.64 150.51 30.46 154.89 30.09 155.62 30.09 155.99 29.82 156.72 29.82 158.18 29.73 158.91 29.64 159.64 29.36 161.1 29.18 161.83 28.99 162.19 28.72 162.92 28.26 163.29 28.26 163.65 28.17 164.02 27.99 164.38 27.99 164.75 27.89 165.48 27.8 165.84 27.62 166.57 27.62 167.3 27.44 167.67 27.16 168.03 27.07 168.76 26.89 169.13 26.8 170.95 26.43 172.41 26.25 172.78 26.06 175.7 25.79 176.07 25.79 176.43 25.79 177.53 25.42 177.89 25.33 178.26 25.15 178.99 24.96 179.72 24.96 180.45 24.78 183.73 24.14 184.83 24.14 185.19 24.14 185.56 23.95 185.92 23.95 186.29 23.68 186.65 23.68 187.02 23.68 187.38 23.59 188.48 23.5 189.21 23.31 189.94 23.31 190.3 23.13 190.67 22.76 191.03 22.58 191.4 22.49 191.76 22.49 197.97 21.11 200.89 20.56 204.18 20.11 210.38 17.81 211.48 17.63 213.3 17.26 215.13 16.62 220.97 14.88 222.43 14.33 224.26 13.51 225.72 15.8 227.18 15.34 228.27 15.06 232.65 13.05" id="fig-6c80455d84a6406682577a57ab8f8956-element-77"/>
      </g>
      <g stroke-width="0.79" fill="#000000" fill-opacity="0.000" class="geometry color_0.3" stroke-dasharray="none" stroke="#D4CA3A" id="fig-6c80455d84a6406682577a57ab8f8956-element-78">
        <path fill="none" d="M21.63,53.19 L 22 53.19 22.36 53.1 22.73 53.1 23.09 53.1 23.46 53.1 23.82 53.1 24.19 53.01 24.92 53.01 25.28 52.91 26.01 52.82 26.74 52.64 27.11 52.64 27.84 52.64 28.2 52.55 30.76 52.18 31.85 52.18 32.58 52.18 35.14 52.09 35.51 51.91 35.87 51.81 36.24 51.81 36.6 51.81 36.97 51.81 37.33 51.81 37.7 51.81 38.06 51.81 38.43 51.81 38.79 51.81 39.16 51.54 39.89 51.45 40.25 51.45 40.62 51.45 40.98 51.26 41.35 51.26 41.71 51.26 42.08 51.17 42.44 51.17 42.81 51.17 43.17 51.17 43.54 51.17 43.9 51.08 44.27 51.08 44.63 54.75 45 50.99 45.36 50.9 45.73 50.81 47.92 50.26 48.28 50.16 48.65 50.07 49.01 49.98 49.38 49.8 49.74 49.8 50.11 49.61 50.47 49.61 50.84 49.52 51.2 49.43 51.93 49.43 52.3 49.25 52.66 49.25 53.03 49.25 53.39 49.25 53.76 49.25 54.12 48.97 54.49 48.97 55.22 48.88 55.59 48.7 55.95 48.61 56.32 48.51 56.68 48.51 57.05 48.33 57.78 48.24 58.14 47.96 58.51 47.96 58.87 47.96 59.6 47.51 60.33 47.23 60.7 47.23 61.06 47.14 61.43 47.14 62.52 47.05 62.89 47.05 63.25 46.96 63.62 46.96 63.98 46.96 64.35 46.87 64.71 46.77 65.08 46.68 65.81 46.68 66.17 46.68 66.9 46.68 67.27 46.59 67.63 46.32 68 46.32 68.73 46.22 69.09 46.22 69.46 46.04 69.82 45.95 70.19 45.86 70.55 45.77 70.92 45.67 71.28 45.49 71.65 45.49 72.01 45.4 72.38 45.31 72.74 45.31 73.11 45.31 73.84 45.03 74.2 45.03 74.57 44.94 74.93 44.94 75.3 44.94 75.67 44.67 76.03 44.57 76.4 44.48 77.13 45.58 77.49 45.31 78.22 45.12 78.59 45.12 78.95 45.12 80.41 45.12 81.51 44.57 81.87 44.48 82.24 44.39 82.6 44.21 82.97 44.21 83.33 44.21 83.7 43.47 84.06 43.47 84.43 43.47 85.16 43.47 85.52 43.38 85.89 43.29 86.25 43.29 86.62 43.29 86.98 43.2 87.35 43.2 88.08 43.29 88.44 43.2 88.81 43.2 89.17 43.02 89.54 41.18 89.9 42.83 90.27 42.83 90.63 42.65 91.73 42.47 92.09 42.47 92.46 42.28 92.82 42.19 93.19 42.19 93.55 42.19 93.92 42.01 94.28 42.01 94.65 41.92 95.01 41.82 95.38 41.82 95.75 41.82 96.11 41.82 96.48 41.73 96.84 41.55 97.21 41.55 97.57 41.55 97.94 41.46 98.3 41.46 98.67 41.37 99.03 41.37 99.4 41.18 99.76 41.09 100.13 41.09 100.49 41 100.86 41 101.22 41 101.59 40.91 101.95 40.91 102.32 40.82 103.41 40.82 105.24 40.36 105.6 40.18 105.97 40.18 106.33 40.08 106.7 40.08 107.06 39.81 107.43 39.81 108.89 39.35 109.25 39.35 111.08 39.26 111.81 39.26 112.17 39.17 112.54 39.08 112.9 39.08 113.27 39.08 113.63 38.89 114 38.8 115.09 38.62 115.46 38.53 116.19 38.25 116.56 38.16 116.92 38.16 118.02 38.16 118.75 37.98 119.84 37.79 121.3 37.61 122.03 37.33 123.13 36.97 125.68 36.42 127.14 35.78 127.51 35.59 127.87 35.59 128.24 35.13 128.6 35.13 128.97 35.13 129.7 35.13 130.06 34.95 130.43 34.95 130.79 34.68 131.16 34.58 131.52 34.58 131.89 34.58 132.62 34.31 132.98 34.13 133.35 34.03 134.81 33.3 135.17 33.49 135.54 33.49 136.27 33.21 137 32.94 137.37 32.94 138.46 32.75 140.29 32.75 142.11 32.2 143.94 31.84 144.3 31.84 144.67 31.84 145.03 31.65 145.4 31.65 146.13 31.65 146.86 31.65 148.32 31.47 148.68 31.29 149.05 31.19 149.41 31.19 149.78 31.01 150.14 31.1 150.51 30.92 154.89 30.83 155.62 30.83 155.99 30.55 156.72 30.55 158.18 30.46 158.91 30.46 159.64 30.19 161.1 30.19 161.83 30 162.19 29.91 162.92 29.45 163.29 29.45 163.65 29.36 164.02 29.09 164.38 29.09 164.75 28.99 165.48 28.9 165.84 28.81 166.57 28.81 167.3 28.63 167.67 28.35 168.03 28.26 168.76 28.08 169.13 27.99 170.95 27.62 172.41 27.44 172.78 27.25 175.7 26.89 176.07 26.89 176.43 26.89 177.53 26.61 177.89 26.52 178.26 26.43 178.99 26.25 179.72 26.25 180.45 26.15 183.73 25.7 184.83 25.79 185.19 25.79 185.56 25.6 185.92 25.6 186.29 25.42 186.65 25.42 187.02 25.42 187.38 25.33 188.48 25.33 189.21 25.15 189.94 25.24 190.3 25.05 190.67 24.69 191.03 24.5 191.4 24.41 191.76 24.41 197.97 23.13 200.89 22.67 204.18 22.21 210.38 20.93 211.48 20.75 213.3 20.65 215.13 20.47 220.97 19.56 222.43 19.1 224.26 18.73 225.72 18.64 227.18 18.46 228.27 18.27 232.65 18.18" id="fig-6c80455d84a6406682577a57ab8f8956-element-79"/>
      </g>
      <g stroke-width="0.79" fill="#000000" fill-opacity="0.000" class="geometry color_0.2" stroke-dasharray="none" stroke="#00BFFF" id="fig-6c80455d84a6406682577a57ab8f8956-element-80">
        <path fill="none" d="M21.63,54.2 L 22 54.2 22.36 54.1 22.73 54.1 23.09 54.1 23.46 54.1 23.82 54.1 24.19 54.1 24.92 54.1 25.28 54.1 26.01 54.01 26.74 53.92 27.11 53.92 27.84 53.83 28.2 53.74 30.76 53.56 31.85 53.56 32.58 53.56 35.14 53.46 35.51 53.37 35.87 53.37 36.24 53.37 36.6 53.37 36.97 53.37 37.33 53.37 37.7 53.37 38.06 53.37 38.43 53.37 38.79 53.1 39.16 53.1 39.89 53.01 40.25 53.01 40.62 53.01 40.98 52.91 41.35 53.65 41.71 53.19 42.08 53.19 42.44 53.19 42.81 53.19 43.17 53.19 43.54 53.19 43.9 53.19 44.27 53.19 44.63 53.1 45 53.1 45.36 53.01 45.73 53.01 47.92 52.55 48.28 52.55 48.65 52.46 49.01 52.36 49.38 52.18 49.74 52.18 50.11 52.18 50.47 52.18 50.84 52.18 51.2 52.09 51.93 52.09 52.3 51.91 52.66 51.91 53.03 51.91 53.39 51.91 53.76 51.91 54.12 51.63 54.49 51.63 55.22 51.54 55.59 51.36 55.95 51.26 56.32 51.17 56.68 51.17 57.05 51.17 57.78 50.99 58.14 50.9 58.51 50.81 58.87 50.81 59.6 50.62 60.33 50.44 60.7 50.44 61.06 50.44 61.43 50.44 62.52 50.44 62.89 50.44 63.25 50.35 63.62 50.35 63.98 50.35 64.35 50.26 64.71 50.26 65.08 50.26 65.81 50.16 66.17 50.16 66.9 50.16 67.27 50.16 67.63 49.89 68 49.89 68.73 50.07 69.09 50.07 69.46 49.89 69.82 49.8 70.19 49.8 70.55 49.61 70.92 49.61" id="fig-6c80455d84a6406682577a57ab8f8956-element-81"/>
      </g>
    </g>
  </g>
  <g class="guide ylabels" font-size="2.82" font-family="'PT Sans Caption','Helvetica Neue','Helvetica',sans-serif" fill="#6C606B" id="fig-6c80455d84a6406682577a57ab8f8956-element-82">
    <text x="18.63" y="80.32" text-anchor="end" dy="0.35em" id="fig-6c80455d84a6406682577a57ab8f8956-element-83">0</text>
    <text x="18.63" y="61.99" text-anchor="end" dy="0.35em" id="fig-6c80455d84a6406682577a57ab8f8956-element-84">200</text>
    <text x="18.63" y="43.66" text-anchor="end" dy="0.35em" id="fig-6c80455d84a6406682577a57ab8f8956-element-85">400</text>
    <text x="18.63" y="25.33" text-anchor="end" dy="0.35em" id="fig-6c80455d84a6406682577a57ab8f8956-element-86">600</text>
    <text x="18.63" y="7" text-anchor="end" dy="0.35em" id="fig-6c80455d84a6406682577a57ab8f8956-element-87">800</text>
  </g>
  <g font-size="3.88" font-family="'PT Sans','Helvetica Neue','Helvetica',sans-serif" fill="#564A55" stroke="#000000" stroke-opacity="0.000" id="fig-6c80455d84a6406682577a57ab8f8956-element-88">
    <text x="8.81" y="41.66" text-anchor="middle" dy="0.35em" transform="rotate(-90, 8.81, 43.66)" id="fig-6c80455d84a6406682577a57ab8f8956-element-89">Number of Tagged Packages</text>
  </g>
</g>
<defs>
<clipPath id="fig-6c80455d84a6406682577a57ab8f8956-element-16">
  <path d="M19.63,5 L 234.65 5 234.65 82.32 19.63 82.32" />
</clipPath
></defs>
</svg>
