<?xml version="1.0" encoding="UTF-8"?>
<svg xmlns="http://www.w3.org/2000/svg"
     xmlns:xlink="http://www.w3.org/1999/xlink"
     xmlns:gadfly="http://www.gadflyjl.org/ns"
     version="1.2"
     width="203.2mm" height="76.2mm" viewBox="0 0 203.2 76.2"
     stroke="none"
     fill="#000000"
     stroke-width="0.3"
     font-size="3.88"
>
<g class="plotroot xscalable yscalable" id="fig-da68137017d6422bbea47f9431bdf8af-element-1">
  <g font-size="3.88" font-family="'PT Sans','Helvetica Neue','Helvetica',sans-serif" fill="#564A55" stroke="#000000" stroke-opacity="0.000" id="fig-da68137017d6422bbea47f9431bdf8af-element-2">
    <text x="101.74" y="64.59" text-anchor="middle" dy="0.6em">Date</text>
  </g>
  <g class="guide xlabels" font-size="2.82" font-family="'PT Sans Caption','Helvetica Neue','Helvetica',sans-serif" fill="#6C606B" id="fig-da68137017d6422bbea47f9431bdf8af-element-3">
    <text x="22.21" y="57.91" text-anchor="middle" dy="0.6em">Apr</text>
    <text x="30.87" y="57.91" text-anchor="middle" dy="0.6em">May</text>
    <text x="39.82" y="57.91" text-anchor="middle" dy="0.6em">Jun</text>
    <text x="48.48" y="57.91" text-anchor="middle" dy="0.6em">Jul</text>
    <text x="57.43" y="57.91" text-anchor="middle" dy="0.6em">Aug</text>
    <text x="66.38" y="57.91" text-anchor="middle" dy="0.6em">Sep</text>
    <text x="75.04" y="57.91" text-anchor="middle" dy="0.6em">Oct</text>
    <text x="83.99" y="57.91" text-anchor="middle" dy="0.6em">Nov</text>
    <text x="92.65" y="57.91" text-anchor="middle" dy="0.6em">Dec</text>
    <text x="101.6" y="57.91" text-anchor="middle" dy="0.6em">Jan 2015</text>
    <text x="110.55" y="57.91" text-anchor="middle" dy="0.6em">Feb</text>
    <text x="118.63" y="57.91" text-anchor="middle" dy="0.6em">Mar</text>
    <text x="127.58" y="57.91" text-anchor="middle" dy="0.6em">Apr</text>
    <text x="136.24" y="57.91" text-anchor="middle" dy="0.6em">May</text>
    <text x="145.19" y="57.91" text-anchor="middle" dy="0.6em">Jun</text>
    <text x="153.85" y="57.91" text-anchor="middle" dy="0.6em">Jul</text>
    <text x="162.8" y="57.91" text-anchor="middle" dy="0.6em">Aug</text>
    <text x="171.75" y="57.91" text-anchor="middle" dy="0.6em">Sep</text>
    <text x="180.41" y="57.91" text-anchor="middle" dy="0.6em">Oct</text>
  </g>
  <g class="guide colorkey" id="fig-da68137017d6422bbea47f9431bdf8af-element-4">
    <g fill="#4C404B" font-size="2.82" font-family="'PT Sans','Helvetica Neue','Helvetica',sans-serif" id="fig-da68137017d6422bbea47f9431bdf8af-element-5">
      <text x="187.67" y="29.14" dy="0.35em" id="fig-da68137017d6422bbea47f9431bdf8af-element-6" class="color_0.2">0.2</text>
      <text x="187.67" y="32.77" dy="0.35em" id="fig-da68137017d6422bbea47f9431bdf8af-element-7" class="color_0.3">0.3</text>
      <text x="187.67" y="36.4" dy="0.35em" id="fig-da68137017d6422bbea47f9431bdf8af-element-8" class="color_0.4">0.4</text>
    </g>
    <g stroke="#000000" stroke-opacity="0.000" id="fig-da68137017d6422bbea47f9431bdf8af-element-9">
      <rect x="184.85" y="28.24" width="1.81" height="1.81" id="fig-da68137017d6422bbea47f9431bdf8af-element-10" class="color_0.2" fill="#00BFFF"/>
      <rect x="184.85" y="31.86" width="1.81" height="1.81" id="fig-da68137017d6422bbea47f9431bdf8af-element-11" class="color_0.3" fill="#D4CA3A"/>
      <rect x="184.85" y="35.49" width="1.81" height="1.81" id="fig-da68137017d6422bbea47f9431bdf8af-element-12" class="color_0.4" fill="#FF5EA0"/>
    </g>
    <g fill="#362A35" font-size="3.88" font-family="'PT Sans','Helvetica Neue','Helvetica',sans-serif" stroke="#000000" stroke-opacity="0.000" id="fig-da68137017d6422bbea47f9431bdf8af-element-13">
      <text x="184.85" y="25.32" id="fig-da68137017d6422bbea47f9431bdf8af-element-14">Julia ver.</text>
    </g>
  </g>
  <g clip-path="url(#fig-da68137017d6422bbea47f9431bdf8af-element-16)" id="fig-da68137017d6422bbea47f9431bdf8af-element-15">
    <g pointer-events="visible" opacity="1" fill="#000000" fill-opacity="0.000" stroke="#000000" stroke-opacity="0.000" class="guide background" id="fig-da68137017d6422bbea47f9431bdf8af-element-17">
      <rect x="19.63" y="5" width="164.22" height="51.91" id="fig-da68137017d6422bbea47f9431bdf8af-element-18"/>
    </g>
    <g class="guide ygridlines xfixed" stroke-dasharray="0.5,0.5" stroke-width="0.2" stroke="#D0D0E0" id="fig-da68137017d6422bbea47f9431bdf8af-element-19">
      <path fill="none" d="M19.63,54.91 L 183.85 54.91" id="fig-da68137017d6422bbea47f9431bdf8af-element-20"/>
      <path fill="none" d="M19.63,42.94 L 183.85 42.94" id="fig-da68137017d6422bbea47f9431bdf8af-element-21"/>
      <path fill="none" d="M19.63,30.96 L 183.85 30.96" id="fig-da68137017d6422bbea47f9431bdf8af-element-22"/>
      <path fill="none" d="M19.63,18.98 L 183.85 18.98" id="fig-da68137017d6422bbea47f9431bdf8af-element-23"/>
      <path fill="none" d="M19.63,7 L 183.85 7" id="fig-da68137017d6422bbea47f9431bdf8af-element-24"/>
    </g>
    <g class="guide xgridlines yfixed" stroke-dasharray="0.5,0.5" stroke-width="0.2" stroke="#D0D0E0" id="fig-da68137017d6422bbea47f9431bdf8af-element-25">
      <path fill="none" d="M22.21,5 L 22.21 56.91" id="fig-da68137017d6422bbea47f9431bdf8af-element-26"/>
      <path fill="none" d="M30.87,5 L 30.87 56.91" id="fig-da68137017d6422bbea47f9431bdf8af-element-27"/>
      <path fill="none" d="M39.82,5 L 39.82 56.91" id="fig-da68137017d6422bbea47f9431bdf8af-element-28"/>
      <path fill="none" d="M48.48,5 L 48.48 56.91" id="fig-da68137017d6422bbea47f9431bdf8af-element-29"/>
      <path fill="none" d="M57.43,5 L 57.43 56.91" id="fig-da68137017d6422bbea47f9431bdf8af-element-30"/>
      <path fill="none" d="M66.38,5 L 66.38 56.91" id="fig-da68137017d6422bbea47f9431bdf8af-element-31"/>
      <path fill="none" d="M75.04,5 L 75.04 56.91" id="fig-da68137017d6422bbea47f9431bdf8af-element-32"/>
      <path fill="none" d="M83.99,5 L 83.99 56.91" id="fig-da68137017d6422bbea47f9431bdf8af-element-33"/>
      <path fill="none" d="M92.65,5 L 92.65 56.91" id="fig-da68137017d6422bbea47f9431bdf8af-element-34"/>
      <path fill="none" d="M101.6,5 L 101.6 56.91" id="fig-da68137017d6422bbea47f9431bdf8af-element-35"/>
      <path fill="none" d="M110.55,5 L 110.55 56.91" id="fig-da68137017d6422bbea47f9431bdf8af-element-36"/>
      <path fill="none" d="M118.63,5 L 118.63 56.91" id="fig-da68137017d6422bbea47f9431bdf8af-element-37"/>
      <path fill="none" d="M127.58,5 L 127.58 56.91" id="fig-da68137017d6422bbea47f9431bdf8af-element-38"/>
      <path fill="none" d="M136.24,5 L 136.24 56.91" id="fig-da68137017d6422bbea47f9431bdf8af-element-39"/>
      <path fill="none" d="M145.19,5 L 145.19 56.91" id="fig-da68137017d6422bbea47f9431bdf8af-element-40"/>
      <path fill="none" d="M153.85,5 L 153.85 56.91" id="fig-da68137017d6422bbea47f9431bdf8af-element-41"/>
      <path fill="none" d="M162.8,5 L 162.8 56.91" id="fig-da68137017d6422bbea47f9431bdf8af-element-42"/>
      <path fill="none" d="M171.75,5 L 171.75 56.91" id="fig-da68137017d6422bbea47f9431bdf8af-element-43"/>
      <path fill="none" d="M180.41,5 L 180.41 56.91" id="fig-da68137017d6422bbea47f9431bdf8af-element-44"/>
    </g>
    <g class="plotpanel" id="fig-da68137017d6422bbea47f9431bdf8af-element-45">
      <g class="geometry" stroke="#000000" stroke-opacity="0.000" fill="#4C404B" font-size="2.82" font-family="'PT Sans Caption','Helvetica Neue','Helvetica',sans-serif" id="fig-da68137017d6422bbea47f9431bdf8af-element-46">
        <text x="67.85" y="42.28" text-anchor="middle" dy="0.35em" id="fig-da68137017d6422bbea47f9431bdf8af-element-47" visibility="visible">v0.3.0</text>
        <text x="77.09" y="42.28" text-anchor="middle" dy="0.35em" id="fig-da68137017d6422bbea47f9431bdf8af-element-48" visibility="visible">v0.3.1</text>
        <text x="85.75" y="42.28" text-anchor="middle" dy="0.35em" id="fig-da68137017d6422bbea47f9431bdf8af-element-49" visibility="visible">v0.3.2</text>
        <text x="95.28" y="42.28" text-anchor="middle" dy="0.35em" id="fig-da68137017d6422bbea47f9431bdf8af-element-50" visibility="visible">v0.3.3</text>
        <text x="100.87" y="42.28" text-anchor="middle" dy="0.35em" id="fig-da68137017d6422bbea47f9431bdf8af-element-51" visibility="visible"></text>
        <text x="108.56" y="42.28" text-anchor="middle" dy="0.35em" id="fig-da68137017d6422bbea47f9431bdf8af-element-52" visibility="visible">v0.3.5</text>
        <text x="120.11" y="42.28" text-anchor="middle" dy="0.35em" id="fig-da68137017d6422bbea47f9431bdf8af-element-53" visibility="visible">v0.3.6</text>
        <text x="129.92" y="42.28" text-anchor="middle" dy="0.35em" id="fig-da68137017d6422bbea47f9431bdf8af-element-54" visibility="visible">v0.3.7</text>
        <text x="140.89" y="42.28" text-anchor="middle" dy="0.35em" id="fig-da68137017d6422bbea47f9431bdf8af-element-55" visibility="visible">v0.3.8</text>
        <text x="149.55" y="42.28" text-anchor="middle" dy="0.35em" id="fig-da68137017d6422bbea47f9431bdf8af-element-56" visibility="visible">v0.3.9</text>
        <text x="149.55" y="42.28" text-anchor="middle" dy="0.35em" id="fig-da68137017d6422bbea47f9431bdf8af-element-57" visibility="visible">v0.3.9</text>
        <text x="157.61" y="42.28" text-anchor="middle" dy="0.35em" id="fig-da68137017d6422bbea47f9431bdf8af-element-58" visibility="visible">v0.3.10</text>
        <text x="167.13" y="42.28" text-anchor="middle" dy="0.35em" id="fig-da68137017d6422bbea47f9431bdf8af-element-59" visibility="visible">v0.3.11</text>
      </g>
      <g class="yfixed" stroke-dasharray="none" stroke-width="0.26" stroke="#333333" id="fig-da68137017d6422bbea47f9431bdf8af-element-60">
        <path fill="none" d="M62.91,5 L 62.91 56.91" id="fig-da68137017d6422bbea47f9431bdf8af-element-61"/>
        <path fill="none" d="M72.15,5 L 72.15 56.91" id="fig-da68137017d6422bbea47f9431bdf8af-element-62"/>
        <path fill="none" d="M80.81,5 L 80.81 56.91" id="fig-da68137017d6422bbea47f9431bdf8af-element-63"/>
        <path fill="none" d="M90.34,5 L 90.34 56.91" id="fig-da68137017d6422bbea47f9431bdf8af-element-64"/>
        <path fill="none" d="M99.87,5 L 99.87 56.91" id="fig-da68137017d6422bbea47f9431bdf8af-element-65"/>
        <path fill="none" d="M103.62,5 L 103.62 56.91" id="fig-da68137017d6422bbea47f9431bdf8af-element-66"/>
        <path fill="none" d="M115.17,5 L 115.17 56.91" id="fig-da68137017d6422bbea47f9431bdf8af-element-67"/>
        <path fill="none" d="M124.98,5 L 124.98 56.91" id="fig-da68137017d6422bbea47f9431bdf8af-element-68"/>
        <path fill="none" d="M135.95,5 L 135.95 56.91" id="fig-da68137017d6422bbea47f9431bdf8af-element-69"/>
        <path fill="none" d="M144.61,5 L 144.61 56.91" id="fig-da68137017d6422bbea47f9431bdf8af-element-70"/>
        <path fill="none" d="M144.61,5 L 144.61 56.91" id="fig-da68137017d6422bbea47f9431bdf8af-element-71"/>
        <path fill="none" d="M151.83,5 L 151.83 56.91" id="fig-da68137017d6422bbea47f9431bdf8af-element-72"/>
        <path fill="none" d="M161.36,5 L 161.36 56.91" id="fig-da68137017d6422bbea47f9431bdf8af-element-73"/>
      </g>
      <g stroke-width="0.79" fill="#000000" fill-opacity="0.000" class="geometry color_0.4" stroke-dasharray="none" stroke="#FF5EA0" id="fig-da68137017d6422bbea47f9431bdf8af-element-74">
        <path fill="none" d="M60.89,33.11 L 61.18 32.93 61.47 32.87 61.76 32.81 62.05 32.81 62.34 32.81 62.91 32.63 63.2 32.63 63.49 32.57 63.78 32.57 64.07 32.57 64.36 32.39 64.65 32.28 64.94 32.28 65.51 32.16 65.8 31.98 66.38 31.86 66.67 31.86 66.96 31.86 68.11 31.86 68.98 31.5 69.27 31.44 69.55 31.38 69.84 31.26 70.13 31.26 70.42 31.26 70.71 30.78 71 30.78 71.29 30.78 71.86 30.72 72.15 30.72 72.44 30.66 72.73 30.66 73.02 30.66 73.31 30.6 73.6 30.6 74.17 30.66 74.46 30.6 74.75 30.6 75.04 30.48 75.33 30.36 75.62 30.36 75.91 30.36 76.19 30.24 77.06 30.12 77.35 30.12 77.64 30 77.93 29.94 78.21 29.94 78.5 29.94 78.79 29.82 79.08 29.82 79.37 29.76 79.66 29.7 79.95 29.7 80.24 29.7 80.52 29.7 80.81 29.58 81.1 29.46 81.39 29.46 81.68 29.46 81.97 29.4 82.26 29.4 82.55 29.34 82.83 29.34 83.12 29.22 83.41 29.16 83.7 29.16 83.99 29.1 84.28 29.1 84.57 29.1 84.85 29.1 85.14 29.04 85.43 28.98 86.3 28.98 87.74 28.62 88.03 28.5 88.32 28.5 88.61 28.44 88.9 28.44 89.18 28.26 89.47 28.26 90.63 27.96 90.92 27.96 92.36 27.9 92.94 27.9 93.23 27.78 93.52 27.72 93.8 27.72 94.09 27.72 94.38 27.6 94.67 27.48 95.54 27.42 95.82 27.36 96.4 27.12 96.69 27.12 96.98 27.12 97.85 27.12 98.42 27 99.29 26.88 100.44 26.76 101.02 26.53 101.89 26.41 103.91 25.99 105.06 25.57 105.35 25.45 105.64 25.45 105.93 25.09 106.22 25.09 106.51 25.09 107.08 25.03 107.37 24.97 107.66 24.97 107.95 24.79 108.24 24.73 108.53 24.73 108.82 24.73 109.39 24.55 109.68 24.37 109.97 24.31 111.13 23.83 111.41 23.83 111.7 24.01 112.28 23.83 112.86 23.65 113.15 23.65 114.01 23.53 115.46 23.53 116.9 23.47 118.34 22.93 118.63 22.93 118.92 22.93 119.21 22.81 119.5 22.81 120.07 22.69 120.65 22.69 121.81 22.63 122.1 22.51 122.38 22.51 122.67 22.51 122.96 22.39 123.25 22.45 123.54 22.33 127 22.09 127.58 22.09 127.87 21.91 128.45 21.91 129.6 21.85 130.18 21.79 130.76 21.61 131.91 21.49 132.49 21.37 132.78 21.19 133.35 20.9 133.64 20.9 133.93 20.84 134.22 20.72 134.51 20.72 134.8 20.66 135.38 20.6 135.66 20.48 136.24 20.48 136.82 20.36 137.11 20.18 137.4 20.12 137.97 20 138.26 19.94 139.71 19.7 140.86 19.58 141.15 19.46 143.46 19.28 143.75 19.28 144.04 19.28 144.9 19.04 145.19 18.98 145.48 18.86 146.06 18.74 146.63 18.74 147.21 18.62 149.81 18.2 150.68 18.2 150.96 18.2 151.25 18.08 151.54 18.08 151.83 17.9 152.12 17.9 152.41 17.9 152.7 17.84 153.56 17.78 154.14 17.66 154.72 17.66 155.01 17.54 155.29 17.3 155.58 17.18 155.87 17.12 156.16 17.12 161.07 16.22 163.38 15.86 165.98 15.56 170.88 14.07 171.75 13.95 173.19 13.71 174.64 13.29 179.26 12.15 180.41 11.79 181.85 11.25" id="fig-da68137017d6422bbea47f9431bdf8af-element-75"/>
      </g>
      <g stroke-width="0.79" fill="#000000" fill-opacity="0.000" class="geometry color_0.3" stroke-dasharray="none" stroke="#D4CA3A" id="fig-da68137017d6422bbea47f9431bdf8af-element-76">
        <path fill="none" d="M21.63,37.19 L 21.92 37.19 22.21 37.13 22.5 37.13 22.79 37.13 23.08 37.13 23.36 37.13 23.65 37.07 24.23 37.07 24.52 37.01 25.1 36.95 25.67 36.83 25.96 36.83 26.54 36.83 26.83 36.77 28.85 36.53 29.71 36.53 30.29 36.53 32.31 36.47 32.6 36.35 32.89 36.29 33.18 36.29 33.47 36.29 33.76 36.29 34.05 36.29 34.33 36.29 34.62 36.29 34.91 36.29 35.2 36.29 35.49 36.11 36.07 36.05 36.35 36.05 36.64 36.05 36.93 35.93 37.22 35.93 37.51 35.93 37.8 35.87 38.09 35.87 38.38 35.87 38.66 35.87 38.95 35.87 39.24 35.81 39.53 35.81 39.82 38.2 40.11 35.75 40.4 35.69 40.69 35.63 42.42 35.27 42.71 35.21 42.99 35.15 43.28 35.09 43.57 34.97 43.86 34.97 44.15 34.85 44.44 34.85 44.73 34.79 45.02 34.73 45.59 34.73 45.88 34.61 46.17 34.61 46.46 34.61 46.75 34.61 47.04 34.61 47.33 34.43 47.61 34.43 48.19 34.37 48.48 34.25 48.77 34.19 49.06 34.13 49.35 34.13 49.63 34.01 50.21 33.95 50.5 33.77 50.79 33.77 51.08 33.77 51.66 33.47 52.23 33.29 52.52 33.29 52.81 33.23 53.1 33.23 53.96 33.17 54.25 33.17 54.54 33.11 54.83 33.11 55.12 33.11 55.41 33.05 55.7 32.99 55.99 32.93 56.56 32.93 56.85 32.93 57.43 32.93 57.72 32.87 58.01 32.69 58.3 32.69 58.87 32.63 59.16 32.63 59.45 32.51 59.74 32.45 60.03 32.39 60.32 32.34 60.6 32.28 60.89 32.16 61.18 32.16 61.47 32.1 61.76 32.04 62.05 32.04 62.34 32.04 62.91 31.86 63.2 31.86 63.49 31.8 63.78 31.8 64.07 31.8 64.36 31.62 64.65 31.56 64.94 31.5 65.51 32.22 65.8 32.04 66.38 31.92 66.67 31.92 66.96 31.92 68.11 31.92 68.98 31.56 69.27 31.5 69.55 31.44 69.84 31.32 70.13 31.32 70.42 31.32 70.71 30.84 71 30.84 71.29 30.84 71.86 30.84 72.15 30.78 72.44 30.72 72.73 30.72 73.02 30.72 73.31 30.66 73.6 30.66 74.17 30.72 74.46 30.66 74.75 30.66 75.04 30.54 75.33 29.34 75.62 30.42 75.91 30.42 76.19 30.3 77.06 30.18 77.35 30.18 77.64 30.06 77.93 30 78.21 30 78.5 30 78.79 29.88 79.08 29.88 79.37 29.82 79.66 29.76 79.95 29.76 80.24 29.76 80.52 29.76 80.81 29.7 81.1 29.58 81.39 29.58 81.68 29.58 81.97 29.52 82.26 29.52 82.55 29.46 82.83 29.46 83.12 29.34 83.41 29.28 83.7 29.28 83.99 29.22 84.28 29.22 84.57 29.22 84.85 29.16 85.14 29.16 85.43 29.1 86.3 29.1 87.74 28.8 88.03 28.68 88.32 28.68 88.61 28.62 88.9 28.62 89.18 28.44 89.47 28.44 90.63 28.14 90.92 28.14 92.36 28.08 92.94 28.08 93.23 28.02 93.52 27.96 93.8 27.96 94.09 27.96 94.38 27.84 94.67 27.78 95.54 27.66 95.82 27.6 96.4 27.42 96.69 27.36 96.98 27.36 97.85 27.36 98.42 27.24 99.29 27.12 100.44 27 101.02 26.82 101.89 26.59 103.91 26.23 105.06 25.81 105.35 25.69 105.64 25.69 105.93 25.39 106.22 25.39 106.51 25.39 107.08 25.39 107.37 25.27 107.66 25.27 107.95 25.09 108.24 25.03 108.53 25.03 108.82 25.03 109.39 24.85 109.68 24.73 109.97 24.67 111.13 24.19 111.41 24.31 111.7 24.31 112.28 24.13 112.86 23.95 113.15 23.95 114.01 23.83 115.46 23.83 116.9 23.47 118.34 23.23 118.63 23.23 118.92 23.23 119.21 23.11 119.5 23.11 120.07 23.11 120.65 23.11 121.81 22.99 122.1 22.87 122.38 22.81 122.67 22.81 122.96 22.69 123.25 22.75 123.54 22.63 127 22.57 127.58 22.57 127.87 22.39 128.45 22.39 129.6 22.33 130.18 22.33 130.76 22.15 131.91 22.15 132.49 22.03 132.78 21.97 133.35 21.67 133.64 21.67 133.93 21.61 134.22 21.43 134.51 21.43 134.8 21.37 135.38 21.31 135.66 21.25 136.24 21.25 136.82 21.13 137.11 20.96 137.4 20.9 137.97 20.78 138.26 20.72 139.71 20.48 140.86 20.36 141.15 20.24 143.46 20 143.75 20 144.04 20 144.9 19.82 145.19 19.76 145.48 19.7 146.06 19.58 146.63 19.58 147.21 19.52 149.81 19.22 150.68 19.28 150.96 19.28 151.25 19.16 151.54 19.16 151.83 19.04 152.12 19.04 152.41 19.04 152.7 18.98 153.56 18.98 154.14 18.86 154.72 18.92 155.01 18.8 155.29 18.56 155.58 18.44 155.87 18.38 156.16 18.38 161.07 17.54 163.38 17.24 165.98 16.94 170.88 16.1 171.75 15.98 173.19 15.92 174.64 15.8 179.26 15.21 180.41 14.91 181.85 14.67" id="fig-da68137017d6422bbea47f9431bdf8af-element-77"/>
      </g>
      <g stroke-width="0.79" fill="#000000" fill-opacity="0.000" class="geometry color_0.2" stroke-dasharray="none" stroke="#00BFFF" id="fig-da68137017d6422bbea47f9431bdf8af-element-78">
        <path fill="none" d="M21.63,37.85 L 21.92 37.85 22.21 37.79 22.5 37.79 22.79 37.79 23.08 37.79 23.36 37.79 23.65 37.79 24.23 37.79 24.52 37.79 25.1 37.73 25.67 37.67 25.96 37.67 26.54 37.61 26.83 37.55 28.85 37.43 29.71 37.43 30.29 37.43 32.31 37.37 32.6 37.31 32.89 37.31 33.18 37.31 33.47 37.31 33.76 37.31 34.05 37.31 34.33 37.31 34.62 37.31 34.91 37.31 35.2 37.13 35.49 37.13 36.07 37.07 36.35 37.07 36.64 37.07 36.93 37.01 37.22 37.49 37.51 37.19 37.8 37.19 38.09 37.19 38.38 37.19 38.66 37.19 38.95 37.19 39.24 37.19 39.53 37.19 39.82 37.13 40.11 37.13 40.4 37.07 40.69 37.07 42.42 36.77 42.71 36.77 42.99 36.71 43.28 36.65 43.57 36.53 43.86 36.53 44.15 36.53 44.44 36.53 44.73 36.53 45.02 36.47 45.59 36.47 45.88 36.35 46.17 36.35 46.46 36.35 46.75 36.35 47.04 36.35 47.33 36.17 47.61 36.17 48.19 36.11 48.48 35.99 48.77 35.93 49.06 35.87 49.35 35.87 49.63 35.87 50.21 35.75 50.5 35.69 50.79 35.63 51.08 35.63 51.66 35.51 52.23 35.39 52.52 35.39 52.81 35.39 53.1 35.39 53.96 35.39 54.25 35.39 54.54 35.33 54.83 35.33 55.12 35.33 55.41 35.27 55.7 35.27 55.99 35.27 56.56 35.21 56.85 35.21 57.43 35.21 57.72 35.21 58.01 35.03 58.3 35.03 58.87 35.15 59.16 35.15 59.45 35.03 59.74 34.97 60.03 34.97 60.32 34.85 60.6 34.85" id="fig-da68137017d6422bbea47f9431bdf8af-element-79"/>
      </g>
    </g>
  </g>
  <g class="guide ylabels" font-size="2.82" font-family="'PT Sans Caption','Helvetica Neue','Helvetica',sans-serif" fill="#6C606B" id="fig-da68137017d6422bbea47f9431bdf8af-element-80">
    <text x="18.63" y="54.91" text-anchor="end" dy="0.35em" id="fig-da68137017d6422bbea47f9431bdf8af-element-81">0</text>
    <text x="18.63" y="42.94" text-anchor="end" dy="0.35em" id="fig-da68137017d6422bbea47f9431bdf8af-element-82">200</text>
    <text x="18.63" y="30.96" text-anchor="end" dy="0.35em" id="fig-da68137017d6422bbea47f9431bdf8af-element-83">400</text>
    <text x="18.63" y="18.98" text-anchor="end" dy="0.35em" id="fig-da68137017d6422bbea47f9431bdf8af-element-84">600</text>
    <text x="18.63" y="7" text-anchor="end" dy="0.35em" id="fig-da68137017d6422bbea47f9431bdf8af-element-85">800</text>
  </g>
  <g font-size="3.88" font-family="'PT Sans','Helvetica Neue','Helvetica',sans-serif" fill="#564A55" stroke="#000000" stroke-opacity="0.000" id="fig-da68137017d6422bbea47f9431bdf8af-element-86">
    <text x="8.81" y="28.96" text-anchor="middle" dy="0.35em" transform="rotate(-90, 8.81, 30.96)" id="fig-da68137017d6422bbea47f9431bdf8af-element-87">Number of Tagged Packages</text>
  </g>
</g>
<defs>
<clipPath id="fig-da68137017d6422bbea47f9431bdf8af-element-16">
  <path d="M19.63,5 L 183.85 5 183.85 56.91 19.63 56.91" />
</clipPath
></defs>
</svg>
