<?xml version="1.0" encoding="utf-8" standalone="no"?>
<!DOCTYPE svg PUBLIC "-//W3C//DTD SVG 1.1//EN"
  "http://www.w3.org/Graphics/SVG/1.1/DTD/svg11.dtd">
<!-- Created with matplotlib (http://matplotlib.org/) -->
<svg height="313pt" version="1.1" viewBox="0 0 623 313" width="623pt" xmlns="http://www.w3.org/2000/svg" xmlns:xlink="http://www.w3.org/1999/xlink">
 <defs>
  <style type="text/css">
*{stroke-linecap:butt;stroke-linejoin:round;stroke-miterlimit:100000;}
  </style>
 </defs>
 <g id="figure_1">
  <g id="patch_1">
   <path d="M 0 313.770625 
L 623.55375 313.770625 
L 623.55375 0 
L 0 0 
z
" style="fill:#ffffff;"/>
  </g>
  <g id="axes_1">
   <g id="patch_2">
    <path d="M 58.35375 243.406875 
L 616.35375 243.406875 
L 616.35375 13.006875 
L 58.35375 13.006875 
z
" style="fill:#ffffff;"/>
   </g>
   <g id="line2d_1">
    <path clip-path="url(#p1d3b04a151)" d="M 153.950197 204.526875 
L 153.242075 204.526875 
L 152.533953 205.102875 
L 151.825831 205.102875 
L 151.117709 205.390875 
L 150.409588 205.966875 
L 149.701466 205.966875 
L 148.285222 205.390875 
L 147.5771 205.390875 
L 146.868978 206.254875 
L 146.160857 206.254875 
L 144.744613 206.254875 
L 144.036491 206.254875 
L 142.620247 206.542875 
L 141.912126 206.542875 
L 141.204004 206.542875 
L 140.495882 206.830875 
L 139.78776 206.830875 
L 139.079638 206.830875 
L 138.371516 207.118875 
L 137.663395 207.118875 
L 135.539029 207.118875 
L 134.830907 207.118875 
L 134.122786 207.118875 
L 133.414664 207.118875 
L 131.99842 207.694875 
L 130.582176 208.270875 
L 129.874055 208.270875 
L 129.165933 208.558875 
L 128.457811 208.846875 
L 127.041567 209.422875 
L 126.333445 209.422875 
L 125.625324 209.422875 
L 124.917202 209.710875 
L 124.20908 209.998875 
L 123.500958 210.574875 
L 122.084714 210.862875 
L 121.376593 210.862875 
L 120.668471 211.726875 
L 119.960349 211.726875 
L 119.252227 211.726875 
L 118.544105 211.726875 
L 117.835984 211.726875 
L 117.127862 212.302875 
L 115.711618 212.302875 
L 115.003496 212.590875 
L 114.295374 212.590875 
L 113.587253 212.590875 
L 112.879131 212.590875 
L 112.171009 212.590875 
L 111.462887 213.166875 
L 110.754765 213.454875 
L 110.046643 213.742875 
L 109.338522 213.742875 
L 105.089791 215.182875 
L 104.381669 215.182875 
L 103.673547 215.470875 
L 102.965425 215.470875 
L 102.257303 215.758875 
L 101.549181 215.758875 
L 100.84106 215.758875 
L 100.132938 215.758875 
L 99.424816 215.758875 
L 98.716694 215.758875 
L 98.008572 215.758875 
L 97.300451 215.758875 
L 96.592329 217.198875 
L 95.884207 214.894875 
L 95.176085 215.182875 
L 94.467963 215.182875 
L 93.759841 215.182875 
L 92.343598 215.470875 
L 91.635476 215.470875 
L 90.927354 216.334875 
L 90.219232 216.334875 
L 89.51111 216.334875 
L 88.802989 216.334875 
L 88.094867 216.334875 
L 87.386745 216.334875 
L 86.678623 216.334875 
L 85.970501 216.334875 
L 85.262379 216.334875 
L 84.554258 216.622875 
L 79.597405 216.910875 
L 78.181161 216.910875 
L 76.056796 216.910875 
L 71.099943 217.486875 
L 70.391821 217.774875 
L 68.975577 218.062875 
L 68.267456 218.062875 
L 66.851212 218.350875 
L 65.434968 218.638875 
L 64.726846 218.638875 
L 63.310603 218.638875 
L 62.602481 218.638875 
L 61.894359 218.638875 
L 61.186237 218.638875 
L 60.478115 218.638875 
L 59.769994 218.638875 
L 59.061872 218.926875 
L 58.35375 218.926875 
" style="fill:none;stroke:#ff0000;stroke-linecap:square;stroke-width:2.0;"/>
   </g>
   <g id="line2d_2">
    <path clip-path="url(#p1d3b04a151)" d="M 616.35375 101.134875 
L 615.645628 101.134875 
L 614.937506 101.422875 
L 566.785222 102.574875 
L 555.455273 103.150875 
L 539.168471 103.150875 
L 534.91974 103.726875 
L 532.087253 103.726875 
L 517.216694 104.014875 
L 501.638014 104.014875 
L 498.097405 104.302875 
L 493.140552 104.590875 
L 492.43243 104.878875 
L 486.767456 105.454875 
L 480.394359 105.454875 
L 478.978115 106.030875 
L 476.145628 105.454875 
L 459.150704 106.030875 
L 457.026339 106.606875 
L 454.193852 107.182875 
L 451.361364 107.470875 
L 447.820755 108.622875 
L 444.988268 110.062875 
L 433.658319 112.942875 
L 430.117709 113.518875 
L 426.5771 113.806875 
L 424.452735 114.382875 
L 412.414664 118.414875 
L 406.041567 119.854875 
L 400.376593 121.294875 
L 388.338522 125.326875 
L 387.6304 125.326875 
L 386.922278 125.614875 
L 386.214156 126.190875 
L 385.506034 127.342875 
L 384.797912 127.918875 
L 383.381669 127.630875 
L 381.965425 128.206875 
L 379.84106 128.206875 
L 379.132938 128.494875 
L 377.716694 128.494875 
L 377.008572 129.070875 
L 376.300451 129.070875 
L 375.592329 129.646875 
L 374.884207 129.646875 
L 372.759841 129.358875 
L 364.970501 131.086875 
L 363.554258 131.086875 
L 358.597405 133.102875 
L 357.181161 133.102875 
L 351.516187 134.254875 
L 350.808065 134.830875 
L 347.975577 135.406875 
L 343.726846 136.846875 
L 341.602481 137.710875 
L 340.894359 138.574875 
L 339.478115 139.150875 
L 338.061872 139.150875 
L 337.35375 139.438875 
L 335.937506 139.726875 
L 335.229385 140.014875 
L 334.521263 140.014875 
L 333.813141 140.878875 
L 333.105019 141.166875 
L 332.396897 141.166875 
L 330.980654 142.606875 
L 328.856288 143.470875 
L 326.023801 143.470875 
L 324.607557 144.334875 
L 323.191313 144.334875 
L 320.358826 144.622875 
L 318.942582 144.622875 
L 318.234461 145.486875 
L 316.818217 145.486875 
L 308.320755 145.774875 
L 307.612633 146.350875 
L 306.904511 146.062875 
L 306.19639 146.638875 
L 305.488268 146.638875 
L 304.780146 146.926875 
L 304.072024 147.502875 
L 301.239537 148.078875 
L 297.698928 148.078875 
L 296.990806 148.654875 
L 295.574562 148.654875 
L 292.033953 149.806875 
L 288.493344 151.534875 
L 284.952735 151.534875 
L 282.828369 152.110875 
L 282.120247 152.110875 
L 279.28776 153.838875 
L 278.579638 153.838875 
L 277.871516 153.262875 
L 275.039029 155.566875 
L 274.330907 155.854875 
L 273.622786 156.430875 
L 272.206542 157.294875 
L 270.790298 157.294875 
L 270.082176 157.582875 
L 269.374055 158.446875 
L 268.665933 158.446875 
L 267.957811 159.022875 
L 265.125324 159.022875 
L 264.417202 160.462875 
L 263.70908 160.462875 
L 263.000958 161.038875 
L 260.168471 163.054875 
L 255.211618 164.782875 
L 251.671009 166.798875 
L 248.838522 167.374875 
L 246.714156 167.950875 
L 245.297912 168.526875 
L 242.465425 168.526875 
L 241.757303 168.814875 
L 240.34106 169.678875 
L 239.632938 169.966875 
L 236.800451 170.830875 
L 236.092329 171.406875 
L 234.676085 171.406875 
L 233.259841 171.982875 
L 231.843598 171.982875 
L 227.594867 172.270875 
L 224.762379 173.710875 
L 224.054258 173.710875 
L 223.346136 174.574875 
L 222.638014 174.574875 
L 221.929892 174.862875 
L 221.22177 174.862875 
L 220.513648 175.438875 
L 216.973039 176.878875 
L 214.848674 176.878875 
L 214.140552 177.166875 
L 213.43243 177.166875 
L 212.724308 177.454875 
L 211.308065 177.454875 
L 210.599943 177.742875 
L 209.891821 177.742875 
L 209.183699 178.030875 
L 208.475577 178.606875 
L 207.767456 178.606875 
L 207.059334 178.894875 
L 206.351212 178.894875 
L 205.64309 179.182875 
L 204.226846 179.182875 
L 203.518725 179.758875 
L 202.810603 180.046875 
L 200.686237 180.046875 
L 199.269994 180.622875 
L 198.561872 180.622875 
L 197.85375 181.198875 
L 196.437506 181.198875 
L 195.729385 181.486875 
L 195.021263 182.062875 
L 194.313141 182.062875 
L 192.188775 182.638875 
L 191.480654 183.214875 
L 190.772532 183.214875 
L 190.06441 178.030875 
L 189.356288 183.790875 
L 188.648166 184.366875 
L 187.940044 184.366875 
L 187.231923 184.654875 
L 185.815679 184.366875 
L 185.107557 184.366875 
L 184.399435 184.654875 
L 182.983192 184.654875 
L 181.566948 185.230875 
L 178.734461 185.230875 
L 178.026339 187.534875 
L 176.610095 187.534875 
L 175.901973 188.110875 
L 174.48573 188.686875 
L 172.361364 190.414875 
L 168.112633 190.414875 
L 166.69639 190.990875 
L 165.988268 191.854875 
L 164.572024 188.398875 
L 163.15578 188.974875 
L 162.447659 189.838875 
L 161.031415 189.838875 
L 160.323293 190.126875 
L 159.615171 190.126875 
L 158.198928 190.990875 
L 156.782684 190.990875 
L 155.36644 191.566875 
L 154.658319 191.566875 
L 153.950197 192.142875 
L 151.117709 193.294875 
L 150.409588 193.870875 
L 149.701466 193.870875 
L 148.285222 194.158875 
L 147.5771 194.158875 
L 146.868978 195.022875 
L 146.160857 195.310875 
L 142.620247 195.310875 
L 140.495882 196.174875 
L 139.079638 196.174875 
L 138.371516 196.462875 
L 137.663395 196.462875 
L 133.414664 197.038875 
L 131.99842 197.902875 
L 130.582176 199.342875 
L 129.165933 199.342875 
L 128.457811 200.206875 
L 127.041567 200.494875 
L 126.333445 201.070875 
L 125.625324 201.070875 
L 124.20908 201.646875 
L 123.500958 202.222875 
L 122.084714 202.510875 
L 121.376593 202.510875 
L 120.668471 203.374875 
L 117.835984 203.374875 
L 117.127862 203.950875 
L 115.711618 203.950875 
L 114.295374 204.526875 
L 113.587253 204.526875 
L 112.879131 205.102875 
L 112.171009 205.102875 
L 111.462887 205.678875 
L 103.673547 208.846875 
L 102.965425 220.654875 
L 102.257303 209.134875 
L 101.549181 209.134875 
L 100.84106 209.422875 
L 98.008572 209.422875 
L 97.300451 209.710875 
L 95.884207 209.710875 
L 95.176085 210.286875 
L 93.759841 210.286875 
L 92.343598 210.574875 
L 91.635476 211.438875 
L 85.970501 211.438875 
L 85.262379 211.726875 
L 84.554258 212.302875 
L 78.181161 212.590875 
L 76.056796 212.590875 
L 71.099943 213.742875 
L 70.391821 214.030875 
L 68.267456 214.030875 
L 66.851212 214.606875 
L 65.434968 214.894875 
L 64.726846 215.182875 
L 63.310603 215.182875 
L 62.602481 215.470875 
L 59.769994 215.470875 
L 59.061872 215.758875 
L 58.35375 215.758875 
L 58.35375 215.758875 
" style="fill:none;stroke:#008000;stroke-linecap:square;stroke-width:2.0;"/>
   </g>
   <g id="line2d_3">
    <path clip-path="url(#p1d3b04a151)" d="M 616.35375 21.934875 
L 615.645628 22.510875 
L 614.937506 22.798875 
L 603.607557 29.422875 
L 566.785222 48.142875 
L 555.455273 57.358875 
L 539.168471 63.118875 
L 534.91974 65.998875 
L 532.087253 68.590875 
L 517.216694 74.062875 
L 501.638014 78.958875 
L 498.097405 79.822875 
L 492.43243 82.414875 
L 487.475577 83.854875 
L 486.767456 83.854875 
L 480.394359 85.006875 
L 478.978115 86.158875 
L 476.145628 86.446875 
L 467.648166 89.614875 
L 459.150704 95.950875 
L 457.026339 96.814875 
L 454.193852 98.254875 
L 451.361364 91.054875 
L 447.820755 93.646875 
L 444.988268 95.374875 
L 433.658319 100.846875 
L 430.117709 102.862875 
L 424.452735 104.590875 
L 412.414664 111.790875 
L 406.041567 113.230875 
L 400.376593 114.958875 
L 388.338522 119.278875 
L 387.6304 119.278875 
L 386.922278 119.566875 
L 386.214156 120.142875 
L 385.506034 121.294875 
L 384.797912 121.870875 
L 383.381669 121.870875 
L 381.965425 122.446875 
L 379.84106 122.734875 
L 379.132938 123.022875 
L 377.716694 123.022875 
L 377.008572 123.886875 
L 376.300451 123.886875 
L 375.592329 124.462875 
L 372.759841 124.462875 
L 366.386745 126.478875 
L 364.970501 127.054875 
L 363.554258 127.054875 
L 362.138014 127.630875 
L 361.429892 128.206875 
L 360.72177 128.494875 
L 358.597405 129.646875 
L 357.181161 129.646875 
L 351.516187 130.510875 
L 350.808065 131.086875 
L 347.975577 131.662875 
L 343.726846 133.102875 
L 341.602481 133.966875 
L 340.894359 134.830875 
L 339.478115 135.406875 
L 338.061872 135.406875 
L 337.35375 135.982875 
L 335.937506 136.270875 
L 335.229385 136.558875 
L 334.521263 136.558875 
L 333.813141 137.134875 
L 333.105019 137.422875 
L 332.396897 137.422875 
L 330.272532 139.726875 
L 328.856288 140.302875 
L 326.023801 140.878875 
L 324.607557 141.742875 
L 323.191313 142.030875 
L 320.358826 142.318875 
L 318.942582 142.318875 
L 318.234461 143.182875 
L 316.818217 143.182875 
L 308.320755 144.334875 
L 307.612633 144.910875 
L 306.904511 144.622875 
L 306.19639 145.198875 
L 304.780146 145.198875 
L 304.072024 145.774875 
L 301.239537 146.062875 
L 299.823293 146.062875 
L 298.407049 146.638875 
L 297.698928 146.638875 
L 296.990806 147.214875 
L 295.574562 147.214875 
L 292.033953 149.806875 
L 288.493344 150.094875 
L 284.952735 150.094875 
L 282.828369 150.670875 
L 282.120247 150.670875 
L 279.28776 152.398875 
L 278.579638 151.534875 
L 277.871516 151.534875 
L 275.039029 153.838875 
L 274.330907 154.126875 
L 273.622786 154.990875 
L 272.206542 155.854875 
L 270.790298 155.854875 
L 270.082176 156.142875 
L 269.374055 157.006875 
L 268.665933 157.006875 
L 267.957811 157.294875 
L 266.541567 157.582875 
L 265.125324 157.582875 
L 264.417202 159.310875 
L 263.70908 159.310875 
L 263.000958 159.886875 
L 260.168471 161.902875 
L 255.211618 163.918875 
L 253.087253 164.494875 
L 251.671009 165.646875 
L 248.838522 166.222875 
L 246.714156 166.798875 
L 245.297912 167.374875 
L 241.757303 167.374875 
L 240.34106 168.526875 
L 239.632938 168.814875 
L 237.508572 169.102875 
L 236.092329 170.254875 
L 234.676085 170.254875 
L 233.967963 170.542875 
L 233.259841 171.118875 
L 231.843598 171.118875 
L 227.594867 171.406875 
L 224.762379 172.846875 
L 224.054258 172.846875 
L 223.346136 173.710875 
L 222.638014 173.710875 
L 221.929892 173.998875 
L 221.22177 173.998875 
L 220.513648 174.574875 
L 216.973039 176.302875 
L 214.848674 176.302875 
L 213.43243 176.878875 
L 211.308065 176.878875 
L 210.599943 177.166875 
L 209.891821 177.166875 
L 209.183699 177.454875 
L 208.475577 178.030875 
L 207.767456 178.030875 
L 207.059334 178.318875 
L 206.351212 178.318875 
L 205.64309 178.606875 
L 204.226846 178.606875 
L 202.810603 179.758875 
L 200.686237 179.758875 
L 199.269994 180.334875 
L 198.561872 180.334875 
L 197.85375 180.910875 
L 196.437506 180.910875 
L 195.729385 181.198875 
L 195.021263 181.774875 
L 194.313141 181.774875 
L 192.188775 182.350875 
L 191.480654 182.926875 
L 190.06441 182.926875 
L 188.648166 184.078875 
L 187.940044 184.078875 
L 187.231923 184.366875 
L 185.815679 184.078875 
L 185.107557 184.078875 
L 184.399435 184.366875 
L 182.983192 184.366875 
L 182.27507 184.654875 
L 181.566948 184.654875 
L 180.150704 184.942875 
L 178.734461 184.942875 
L 178.026339 187.246875 
L 176.610095 187.246875 
L 175.901973 187.822875 
L 174.48573 188.398875 
L 172.361364 190.126875 
L 168.112633 190.126875 
L 166.69639 190.702875 
L 165.988268 191.566875 
L 164.572024 192.142875 
L 163.863902 192.142875 
L 163.15578 192.718875 
L 162.447659 193.582875 
L 161.031415 193.582875 
L 160.323293 193.870875 
L 159.615171 193.870875 
L 158.198928 194.734875 
L 156.782684 194.734875 
L 155.36644 195.310875 
L 154.658319 196.174875 
L 154.658319 196.174875 
" style="fill:none;stroke:#0000ff;stroke-linecap:square;stroke-width:2.0;"/>
   </g>
   <g id="line2d_4">
    <path clip-path="url(#p1d3b04a151)" d="M 616.35375 20.782875 
L 615.645628 21.358875 
L 614.937506 21.646875 
L 566.785222 48.430875 
L 555.455273 57.358875 
L 539.168471 63.406875 
L 534.91974 65.998875 
L 532.087253 68.590875 
L 517.216694 74.350875 
L 501.638014 78.958875 
L 498.097405 79.822875 
L 493.140552 81.550875 
L 492.43243 82.126875 
L 487.475577 83.566875 
L 486.767456 83.566875 
" style="fill:none;stroke:#000000;stroke-linecap:square;stroke-width:2.0;"/>
   </g>
   <g id="line2d_5">
    <path clip-path="url(#p1d3b04a151)" d="M 159.615171 243.406875 
L 159.615171 13.006875 
" style="fill:none;stroke:#333333;stroke-linecap:square;"/>
   </g>
   <g id="line2d_6">
    <path clip-path="url(#p1d3b04a151)" d="M 182.27507 243.406875 
L 182.27507 13.006875 
" style="fill:none;stroke:#cccccc;stroke-linecap:square;"/>
   </g>
   <g id="line2d_7">
    <path clip-path="url(#p1d3b04a151)" d="M 203.518725 243.406875 
L 203.518725 13.006875 
" style="fill:none;stroke:#cccccc;stroke-linecap:square;"/>
   </g>
   <g id="line2d_8">
    <path clip-path="url(#p1d3b04a151)" d="M 226.886745 243.406875 
L 226.886745 13.006875 
" style="fill:none;stroke:#cccccc;stroke-linecap:square;"/>
   </g>
   <g id="line2d_9">
    <path clip-path="url(#p1d3b04a151)" d="M 250.254765 243.406875 
L 250.254765 13.006875 
" style="fill:none;stroke:#cccccc;stroke-linecap:square;"/>
   </g>
   <g id="line2d_10">
    <path clip-path="url(#p1d3b04a151)" d="M 259.460349 243.406875 
L 259.460349 13.006875 
" style="fill:none;stroke:#cccccc;stroke-linecap:square;"/>
   </g>
   <g id="line2d_11">
    <path clip-path="url(#p1d3b04a151)" d="M 287.785222 243.406875 
L 287.785222 13.006875 
" style="fill:none;stroke:#cccccc;stroke-linecap:square;"/>
   </g>
   <g id="line2d_12">
    <path clip-path="url(#p1d3b04a151)" d="M 311.861364 243.406875 
L 311.861364 13.006875 
" style="fill:none;stroke:#cccccc;stroke-linecap:square;"/>
   </g>
   <g id="line2d_13">
    <path clip-path="url(#p1d3b04a151)" d="M 338.769994 243.406875 
L 338.769994 13.006875 
" style="fill:none;stroke:#cccccc;stroke-linecap:square;"/>
   </g>
   <g id="line2d_14">
    <path clip-path="url(#p1d3b04a151)" d="M 360.013648 243.406875 
L 360.013648 13.006875 
" style="fill:none;stroke:#cccccc;stroke-linecap:square;"/>
   </g>
   <g id="line2d_15">
    <path clip-path="url(#p1d3b04a151)" d="M 377.716694 243.406875 
L 377.716694 13.006875 
" style="fill:none;stroke:#cccccc;stroke-linecap:square;"/>
   </g>
   <g id="line2d_16">
    <path clip-path="url(#p1d3b04a151)" d="M 401.084714 243.406875 
L 401.084714 13.006875 
" style="fill:none;stroke:#cccccc;stroke-linecap:square;"/>
   </g>
   <g id="line2d_17">
    <path clip-path="url(#p1d3b04a151)" d="M 465.523801 243.406875 
L 465.523801 13.006875 
" style="fill:none;stroke:#cccccc;stroke-linecap:square;"/>
   </g>
   <g id="line2d_18">
    <path clip-path="url(#p1d3b04a151)" d="M 452.777608 243.406875 
L 452.777608 13.006875 
" style="fill:none;stroke:#333333;stroke-linecap:square;"/>
   </g>
   <g id="line2d_19">
    <path clip-path="url(#p1d3b04a151)" d="M 474.729385 243.406875 
L 474.729385 13.006875 
" style="fill:none;stroke:#cccccc;stroke-linecap:square;"/>
   </g>
   <g id="line2d_20">
    <path clip-path="url(#p1d3b04a151)" d="M 494.556796 243.406875 
L 494.556796 13.006875 
" style="fill:none;stroke:#cccccc;stroke-linecap:square;"/>
   </g>
   <g id="line2d_21">
    <path clip-path="url(#p1d3b04a151)" d="M 520.757303 243.406875 
L 520.757303 13.006875 
" style="fill:none;stroke:#cccccc;stroke-linecap:square;"/>
   </g>
   <g id="line2d_22">
    <path clip-path="url(#p1d3b04a151)" d="M 566.785222 243.406875 
L 566.785222 13.006875 
" style="fill:none;stroke:#cccccc;stroke-linecap:square;"/>
   </g>
   <g id="patch_3">
    <path d="M 58.35375 13.006875 
L 616.35375 13.006875 
" style="fill:none;stroke:#000000;stroke-linecap:square;stroke-linejoin:miter;"/>
   </g>
   <g id="patch_4">
    <path d="M 616.35375 243.406875 
L 616.35375 13.006875 
" style="fill:none;stroke:#000000;stroke-linecap:square;stroke-linejoin:miter;"/>
   </g>
   <g id="patch_5">
    <path d="M 58.35375 243.406875 
L 616.35375 243.406875 
" style="fill:none;stroke:#000000;stroke-linecap:square;stroke-linejoin:miter;"/>
   </g>
   <g id="patch_6">
    <path d="M 58.35375 243.406875 
L 58.35375 13.006875 
" style="fill:none;stroke:#000000;stroke-linecap:square;stroke-linejoin:miter;"/>
   </g>
   <g id="matplotlib.axis_1">
    <g id="xtick_1">
     <g id="line2d_23">
      <defs>
       <path d="M 0 0 
L 0 -4 
" id="m248312446a" style="stroke:#000000;stroke-width:0.5;"/>
      </defs>
      <g>
       <use style="stroke:#000000;stroke-width:0.5;" x="81.0136484772" xlink:href="#m248312446a" y="243.406875"/>
      </g>
     </g>
     <g id="line2d_24">
      <defs>
       <path d="M 0 0 
L 0 4 
" id="m99f18cc58a" style="stroke:#000000;stroke-width:0.5;"/>
      </defs>
      <g>
       <use style="stroke:#000000;stroke-width:0.5;" x="81.0136484772" xlink:href="#m99f18cc58a" y="13.006875"/>
      </g>
     </g>
     <g id="text_1">
      <!-- May 2014 -->
      <defs>
       <path d="M 9.8125 72.90625 
L 24.515625 72.90625 
L 43.109375 23.296875 
L 61.8125 72.90625 
L 76.515625 72.90625 
L 76.515625 0 
L 66.890625 0 
L 66.890625 64.015625 
L 48.09375 14.015625 
L 38.1875 14.015625 
L 19.390625 64.015625 
L 19.390625 0 
L 9.8125 0 
z
" id="DejaVuSans-4d"/>
       <path d="M 12.40625 8.296875 
L 28.515625 8.296875 
L 28.515625 63.921875 
L 10.984375 60.40625 
L 10.984375 69.390625 
L 28.421875 72.90625 
L 38.28125 72.90625 
L 38.28125 8.296875 
L 54.390625 8.296875 
L 54.390625 0 
L 12.40625 0 
z
" id="DejaVuSans-31"/>
       <path d="M 31.78125 66.40625 
Q 24.171875 66.40625 20.328125 58.90625 
Q 16.5 51.421875 16.5 36.375 
Q 16.5 21.390625 20.328125 13.890625 
Q 24.171875 6.390625 31.78125 6.390625 
Q 39.453125 6.390625 43.28125 13.890625 
Q 47.125 21.390625 47.125 36.375 
Q 47.125 51.421875 43.28125 58.90625 
Q 39.453125 66.40625 31.78125 66.40625 
M 31.78125 74.21875 
Q 44.046875 74.21875 50.515625 64.515625 
Q 56.984375 54.828125 56.984375 36.375 
Q 56.984375 17.96875 50.515625 8.265625 
Q 44.046875 -1.421875 31.78125 -1.421875 
Q 19.53125 -1.421875 13.0625 8.265625 
Q 6.59375 17.96875 6.59375 36.375 
Q 6.59375 54.828125 13.0625 64.515625 
Q 19.53125 74.21875 31.78125 74.21875 
" id="DejaVuSans-30"/>
       <path id="DejaVuSans-20"/>
       <path d="M 19.1875 8.296875 
L 53.609375 8.296875 
L 53.609375 0 
L 7.328125 0 
L 7.328125 8.296875 
Q 12.9375 14.109375 22.625 23.890625 
Q 32.328125 33.6875 34.8125 36.53125 
Q 39.546875 41.84375 41.421875 45.53125 
Q 43.3125 49.21875 43.3125 52.78125 
Q 43.3125 58.59375 39.234375 62.25 
Q 35.15625 65.921875 28.609375 65.921875 
Q 23.96875 65.921875 18.8125 64.3125 
Q 13.671875 62.703125 7.8125 59.421875 
L 7.8125 69.390625 
Q 13.765625 71.78125 18.9375 73 
Q 24.125 74.21875 28.421875 74.21875 
Q 39.75 74.21875 46.484375 68.546875 
Q 53.21875 62.890625 53.21875 53.421875 
Q 53.21875 48.921875 51.53125 44.890625 
Q 49.859375 40.875 45.40625 35.40625 
Q 44.1875 33.984375 37.640625 27.21875 
Q 31.109375 20.453125 19.1875 8.296875 
" id="DejaVuSans-32"/>
       <path d="M 32.171875 -5.078125 
Q 28.375 -14.84375 24.75 -17.8125 
Q 21.140625 -20.796875 15.09375 -20.796875 
L 7.90625 -20.796875 
L 7.90625 -13.28125 
L 13.1875 -13.28125 
Q 16.890625 -13.28125 18.9375 -11.515625 
Q 21 -9.765625 23.484375 -3.21875 
L 25.09375 0.875 
L 2.984375 54.6875 
L 12.5 54.6875 
L 29.59375 11.921875 
L 46.6875 54.6875 
L 56.203125 54.6875 
z
" id="DejaVuSans-79"/>
       <path d="M 37.796875 64.3125 
L 12.890625 25.390625 
L 37.796875 25.390625 
z
M 35.203125 72.90625 
L 47.609375 72.90625 
L 47.609375 25.390625 
L 58.015625 25.390625 
L 58.015625 17.1875 
L 47.609375 17.1875 
L 47.609375 0 
L 37.796875 0 
L 37.796875 17.1875 
L 4.890625 17.1875 
L 4.890625 26.703125 
z
" id="DejaVuSans-34"/>
       <path d="M 34.28125 27.484375 
Q 23.390625 27.484375 19.1875 25 
Q 14.984375 22.515625 14.984375 16.5 
Q 14.984375 11.71875 18.140625 8.90625 
Q 21.296875 6.109375 26.703125 6.109375 
Q 34.1875 6.109375 38.703125 11.40625 
Q 43.21875 16.703125 43.21875 25.484375 
L 43.21875 27.484375 
z
M 52.203125 31.203125 
L 52.203125 0 
L 43.21875 0 
L 43.21875 8.296875 
Q 40.140625 3.328125 35.546875 0.953125 
Q 30.953125 -1.421875 24.3125 -1.421875 
Q 15.921875 -1.421875 10.953125 3.296875 
Q 6 8.015625 6 15.921875 
Q 6 25.140625 12.171875 29.828125 
Q 18.359375 34.515625 30.609375 34.515625 
L 43.21875 34.515625 
L 43.21875 35.40625 
Q 43.21875 41.609375 39.140625 45 
Q 35.0625 48.390625 27.6875 48.390625 
Q 23 48.390625 18.546875 47.265625 
Q 14.109375 46.140625 10.015625 43.890625 
L 10.015625 52.203125 
Q 14.9375 54.109375 19.578125 55.046875 
Q 24.21875 56 28.609375 56 
Q 40.484375 56 46.34375 49.84375 
Q 52.203125 43.703125 52.203125 31.203125 
" id="DejaVuSans-61"/>
      </defs>
      <g transform="translate(84.3248984772 306.570625)rotate(-90.0)scale(0.12 -0.12)">
       <use xlink:href="#DejaVuSans-4d"/>
       <use x="86.279296875" xlink:href="#DejaVuSans-61"/>
       <use x="147.55859375" xlink:href="#DejaVuSans-79"/>
       <use x="206.73828125" xlink:href="#DejaVuSans-20"/>
       <use x="238.525390625" xlink:href="#DejaVuSans-32"/>
       <use x="302.1484375" xlink:href="#DejaVuSans-30"/>
       <use x="365.771484375" xlink:href="#DejaVuSans-31"/>
       <use x="429.39453125" xlink:href="#DejaVuSans-34"/>
      </g>
     </g>
    </g>
    <g id="xtick_2">
     <g id="line2d_25">
      <g>
       <use style="stroke:#000000;stroke-width:0.5;" x="146.160856599" xlink:href="#m248312446a" y="243.406875"/>
      </g>
     </g>
     <g id="line2d_26">
      <g>
       <use style="stroke:#000000;stroke-width:0.5;" x="146.160856599" xlink:href="#m99f18cc58a" y="13.006875"/>
      </g>
     </g>
     <g id="text_2">
      <!-- Aug 2014 -->
      <defs>
       <path d="M 8.5 21.578125 
L 8.5 54.6875 
L 17.484375 54.6875 
L 17.484375 21.921875 
Q 17.484375 14.15625 20.5 10.265625 
Q 23.53125 6.390625 29.59375 6.390625 
Q 36.859375 6.390625 41.078125 11.03125 
Q 45.3125 15.671875 45.3125 23.6875 
L 45.3125 54.6875 
L 54.296875 54.6875 
L 54.296875 0 
L 45.3125 0 
L 45.3125 8.40625 
Q 42.046875 3.421875 37.71875 1 
Q 33.40625 -1.421875 27.6875 -1.421875 
Q 18.265625 -1.421875 13.375 4.4375 
Q 8.5 10.296875 8.5 21.578125 
M 31.109375 56 
z
" id="DejaVuSans-75"/>
       <path d="M 45.40625 27.984375 
Q 45.40625 37.75 41.375 43.109375 
Q 37.359375 48.484375 30.078125 48.484375 
Q 22.859375 48.484375 18.828125 43.109375 
Q 14.796875 37.75 14.796875 27.984375 
Q 14.796875 18.265625 18.828125 12.890625 
Q 22.859375 7.515625 30.078125 7.515625 
Q 37.359375 7.515625 41.375 12.890625 
Q 45.40625 18.265625 45.40625 27.984375 
M 54.390625 6.78125 
Q 54.390625 -7.171875 48.1875 -13.984375 
Q 42 -20.796875 29.203125 -20.796875 
Q 24.46875 -20.796875 20.265625 -20.09375 
Q 16.0625 -19.390625 12.109375 -17.921875 
L 12.109375 -9.1875 
Q 16.0625 -11.328125 19.921875 -12.34375 
Q 23.78125 -13.375 27.78125 -13.375 
Q 36.625 -13.375 41.015625 -8.765625 
Q 45.40625 -4.15625 45.40625 5.171875 
L 45.40625 9.625 
Q 42.625 4.78125 38.28125 2.390625 
Q 33.9375 0 27.875 0 
Q 17.828125 0 11.671875 7.65625 
Q 5.515625 15.328125 5.515625 27.984375 
Q 5.515625 40.671875 11.671875 48.328125 
Q 17.828125 56 27.875 56 
Q 33.9375 56 38.28125 53.609375 
Q 42.625 51.21875 45.40625 46.390625 
L 45.40625 54.6875 
L 54.390625 54.6875 
z
" id="DejaVuSans-67"/>
       <path d="M 34.1875 63.1875 
L 20.796875 26.90625 
L 47.609375 26.90625 
z
M 28.609375 72.90625 
L 39.796875 72.90625 
L 67.578125 0 
L 57.328125 0 
L 50.6875 18.703125 
L 17.828125 18.703125 
L 11.1875 0 
L 0.78125 0 
z
" id="DejaVuSans-41"/>
      </defs>
      <g transform="translate(149.472106599 305.1925)rotate(-90.0)scale(0.12 -0.12)">
       <use xlink:href="#DejaVuSans-41"/>
       <use x="68.408203125" xlink:href="#DejaVuSans-75"/>
       <use x="131.787109375" xlink:href="#DejaVuSans-67"/>
       <use x="195.263671875" xlink:href="#DejaVuSans-20"/>
       <use x="227.05078125" xlink:href="#DejaVuSans-32"/>
       <use x="290.673828125" xlink:href="#DejaVuSans-30"/>
       <use x="354.296875" xlink:href="#DejaVuSans-31"/>
       <use x="417.919921875" xlink:href="#DejaVuSans-34"/>
      </g>
     </g>
    </g>
    <g id="xtick_3">
     <g id="line2d_27">
      <g>
       <use style="stroke:#000000;stroke-width:0.5;" x="211.308064721" xlink:href="#m248312446a" y="243.406875"/>
      </g>
     </g>
     <g id="line2d_28">
      <g>
       <use style="stroke:#000000;stroke-width:0.5;" x="211.308064721" xlink:href="#m99f18cc58a" y="13.006875"/>
      </g>
     </g>
     <g id="text_3">
      <!-- Nov 2014 -->
      <defs>
       <path d="M 30.609375 48.390625 
Q 23.390625 48.390625 19.1875 42.75 
Q 14.984375 37.109375 14.984375 27.296875 
Q 14.984375 17.484375 19.15625 11.84375 
Q 23.34375 6.203125 30.609375 6.203125 
Q 37.796875 6.203125 41.984375 11.859375 
Q 46.1875 17.53125 46.1875 27.296875 
Q 46.1875 37.015625 41.984375 42.703125 
Q 37.796875 48.390625 30.609375 48.390625 
M 30.609375 56 
Q 42.328125 56 49.015625 48.375 
Q 55.71875 40.765625 55.71875 27.296875 
Q 55.71875 13.875 49.015625 6.21875 
Q 42.328125 -1.421875 30.609375 -1.421875 
Q 18.84375 -1.421875 12.171875 6.21875 
Q 5.515625 13.875 5.515625 27.296875 
Q 5.515625 40.765625 12.171875 48.375 
Q 18.84375 56 30.609375 56 
" id="DejaVuSans-6f"/>
       <path d="M 9.8125 72.90625 
L 23.09375 72.90625 
L 55.421875 11.921875 
L 55.421875 72.90625 
L 64.984375 72.90625 
L 64.984375 0 
L 51.703125 0 
L 19.390625 60.984375 
L 19.390625 0 
L 9.8125 0 
z
" id="DejaVuSans-4e"/>
       <path d="M 2.984375 54.6875 
L 12.5 54.6875 
L 29.59375 8.796875 
L 46.6875 54.6875 
L 56.203125 54.6875 
L 35.6875 0 
L 23.484375 0 
z
" id="DejaVuSans-76"/>
      </defs>
      <g transform="translate(214.619314721 305.183125)rotate(-90.0)scale(0.12 -0.12)">
       <use xlink:href="#DejaVuSans-4e"/>
       <use x="74.8046875" xlink:href="#DejaVuSans-6f"/>
       <use x="135.986328125" xlink:href="#DejaVuSans-76"/>
       <use x="195.166015625" xlink:href="#DejaVuSans-20"/>
       <use x="226.953125" xlink:href="#DejaVuSans-32"/>
       <use x="290.576171875" xlink:href="#DejaVuSans-30"/>
       <use x="354.19921875" xlink:href="#DejaVuSans-31"/>
       <use x="417.822265625" xlink:href="#DejaVuSans-34"/>
      </g>
     </g>
    </g>
    <g id="xtick_4">
     <g id="line2d_29">
      <g>
       <use style="stroke:#000000;stroke-width:0.5;" x="276.455272843" xlink:href="#m248312446a" y="243.406875"/>
      </g>
     </g>
     <g id="line2d_30">
      <g>
       <use style="stroke:#000000;stroke-width:0.5;" x="276.455272843" xlink:href="#m99f18cc58a" y="13.006875"/>
      </g>
     </g>
     <g id="text_4">
      <!-- Feb 2015 -->
      <defs>
       <path d="M 10.796875 72.90625 
L 49.515625 72.90625 
L 49.515625 64.59375 
L 19.828125 64.59375 
L 19.828125 46.734375 
Q 21.96875 47.46875 24.109375 47.828125 
Q 26.265625 48.1875 28.421875 48.1875 
Q 40.625 48.1875 47.75 41.5 
Q 54.890625 34.8125 54.890625 23.390625 
Q 54.890625 11.625 47.5625 5.09375 
Q 40.234375 -1.421875 26.90625 -1.421875 
Q 22.3125 -1.421875 17.546875 -0.640625 
Q 12.796875 0.140625 7.71875 1.703125 
L 7.71875 11.625 
Q 12.109375 9.234375 16.796875 8.0625 
Q 21.484375 6.890625 26.703125 6.890625 
Q 35.15625 6.890625 40.078125 11.328125 
Q 45.015625 15.765625 45.015625 23.390625 
Q 45.015625 31 40.078125 35.4375 
Q 35.15625 39.890625 26.703125 39.890625 
Q 22.75 39.890625 18.8125 39.015625 
Q 14.890625 38.140625 10.796875 36.28125 
z
" id="DejaVuSans-35"/>
       <path d="M 9.8125 72.90625 
L 51.703125 72.90625 
L 51.703125 64.59375 
L 19.671875 64.59375 
L 19.671875 43.109375 
L 48.578125 43.109375 
L 48.578125 34.8125 
L 19.671875 34.8125 
L 19.671875 0 
L 9.8125 0 
z
" id="DejaVuSans-46"/>
       <path d="M 56.203125 29.59375 
L 56.203125 25.203125 
L 14.890625 25.203125 
Q 15.484375 15.921875 20.484375 11.0625 
Q 25.484375 6.203125 34.421875 6.203125 
Q 39.59375 6.203125 44.453125 7.46875 
Q 49.3125 8.734375 54.109375 11.28125 
L 54.109375 2.78125 
Q 49.265625 0.734375 44.1875 -0.34375 
Q 39.109375 -1.421875 33.890625 -1.421875 
Q 20.796875 -1.421875 13.15625 6.1875 
Q 5.515625 13.8125 5.515625 26.8125 
Q 5.515625 40.234375 12.765625 48.109375 
Q 20.015625 56 32.328125 56 
Q 43.359375 56 49.78125 48.890625 
Q 56.203125 41.796875 56.203125 29.59375 
M 47.21875 32.234375 
Q 47.125 39.59375 43.09375 43.984375 
Q 39.0625 48.390625 32.421875 48.390625 
Q 24.90625 48.390625 20.390625 44.140625 
Q 15.875 39.890625 15.1875 32.171875 
z
" id="DejaVuSans-65"/>
       <path d="M 48.6875 27.296875 
Q 48.6875 37.203125 44.609375 42.84375 
Q 40.53125 48.484375 33.40625 48.484375 
Q 26.265625 48.484375 22.1875 42.84375 
Q 18.109375 37.203125 18.109375 27.296875 
Q 18.109375 17.390625 22.1875 11.75 
Q 26.265625 6.109375 33.40625 6.109375 
Q 40.53125 6.109375 44.609375 11.75 
Q 48.6875 17.390625 48.6875 27.296875 
M 18.109375 46.390625 
Q 20.953125 51.265625 25.265625 53.625 
Q 29.59375 56 35.59375 56 
Q 45.5625 56 51.78125 48.09375 
Q 58.015625 40.1875 58.015625 27.296875 
Q 58.015625 14.40625 51.78125 6.484375 
Q 45.5625 -1.421875 35.59375 -1.421875 
Q 29.59375 -1.421875 25.265625 0.953125 
Q 20.953125 3.328125 18.109375 8.203125 
L 18.109375 0 
L 9.078125 0 
L 9.078125 75.984375 
L 18.109375 75.984375 
z
" id="DejaVuSans-62"/>
      </defs>
      <g transform="translate(279.766522843 303.655)rotate(-90.0)scale(0.12 -0.12)">
       <use xlink:href="#DejaVuSans-46"/>
       <use x="57.44140625" xlink:href="#DejaVuSans-65"/>
       <use x="118.96484375" xlink:href="#DejaVuSans-62"/>
       <use x="182.44140625" xlink:href="#DejaVuSans-20"/>
       <use x="214.228515625" xlink:href="#DejaVuSans-32"/>
       <use x="277.8515625" xlink:href="#DejaVuSans-30"/>
       <use x="341.474609375" xlink:href="#DejaVuSans-31"/>
       <use x="405.09765625" xlink:href="#DejaVuSans-35"/>
      </g>
     </g>
    </g>
    <g id="xtick_5">
     <g id="line2d_31">
      <g>
       <use style="stroke:#000000;stroke-width:0.5;" x="339.478115482" xlink:href="#m248312446a" y="243.406875"/>
      </g>
     </g>
     <g id="line2d_32">
      <g>
       <use style="stroke:#000000;stroke-width:0.5;" x="339.478115482" xlink:href="#m99f18cc58a" y="13.006875"/>
      </g>
     </g>
     <g id="text_5">
      <!-- May 2015 -->
      <g transform="translate(342.789365482 306.570625)rotate(-90.0)scale(0.12 -0.12)">
       <use xlink:href="#DejaVuSans-4d"/>
       <use x="86.279296875" xlink:href="#DejaVuSans-61"/>
       <use x="147.55859375" xlink:href="#DejaVuSans-79"/>
       <use x="206.73828125" xlink:href="#DejaVuSans-20"/>
       <use x="238.525390625" xlink:href="#DejaVuSans-32"/>
       <use x="302.1484375" xlink:href="#DejaVuSans-30"/>
       <use x="365.771484375" xlink:href="#DejaVuSans-31"/>
       <use x="429.39453125" xlink:href="#DejaVuSans-35"/>
      </g>
     </g>
    </g>
    <g id="xtick_6">
     <g id="line2d_33">
      <g>
       <use style="stroke:#000000;stroke-width:0.5;" x="404.625323604" xlink:href="#m248312446a" y="243.406875"/>
      </g>
     </g>
     <g id="line2d_34">
      <g>
       <use style="stroke:#000000;stroke-width:0.5;" x="404.625323604" xlink:href="#m99f18cc58a" y="13.006875"/>
      </g>
     </g>
     <g id="text_6">
      <!-- Aug 2015 -->
      <g transform="translate(407.936573604 305.1925)rotate(-90.0)scale(0.12 -0.12)">
       <use xlink:href="#DejaVuSans-41"/>
       <use x="68.408203125" xlink:href="#DejaVuSans-75"/>
       <use x="131.787109375" xlink:href="#DejaVuSans-67"/>
       <use x="195.263671875" xlink:href="#DejaVuSans-20"/>
       <use x="227.05078125" xlink:href="#DejaVuSans-32"/>
       <use x="290.673828125" xlink:href="#DejaVuSans-30"/>
       <use x="354.296875" xlink:href="#DejaVuSans-31"/>
       <use x="417.919921875" xlink:href="#DejaVuSans-35"/>
      </g>
     </g>
    </g>
    <g id="xtick_7">
     <g id="line2d_35">
      <g>
       <use style="stroke:#000000;stroke-width:0.5;" x="469.772531726" xlink:href="#m248312446a" y="243.406875"/>
      </g>
     </g>
     <g id="line2d_36">
      <g>
       <use style="stroke:#000000;stroke-width:0.5;" x="469.772531726" xlink:href="#m99f18cc58a" y="13.006875"/>
      </g>
     </g>
     <g id="text_7">
      <!-- Nov 2015 -->
      <g transform="translate(473.083781726 305.183125)rotate(-90.0)scale(0.12 -0.12)">
       <use xlink:href="#DejaVuSans-4e"/>
       <use x="74.8046875" xlink:href="#DejaVuSans-6f"/>
       <use x="135.986328125" xlink:href="#DejaVuSans-76"/>
       <use x="195.166015625" xlink:href="#DejaVuSans-20"/>
       <use x="226.953125" xlink:href="#DejaVuSans-32"/>
       <use x="290.576171875" xlink:href="#DejaVuSans-30"/>
       <use x="354.19921875" xlink:href="#DejaVuSans-31"/>
       <use x="417.822265625" xlink:href="#DejaVuSans-35"/>
      </g>
     </g>
    </g>
    <g id="xtick_8">
     <g id="line2d_37">
      <g>
       <use style="stroke:#000000;stroke-width:0.5;" x="534.919739848" xlink:href="#m248312446a" y="243.406875"/>
      </g>
     </g>
     <g id="line2d_38">
      <g>
       <use style="stroke:#000000;stroke-width:0.5;" x="534.919739848" xlink:href="#m99f18cc58a" y="13.006875"/>
      </g>
     </g>
     <g id="text_8">
      <!-- Feb 2016 -->
      <defs>
       <path d="M 33.015625 40.375 
Q 26.375 40.375 22.484375 35.828125 
Q 18.609375 31.296875 18.609375 23.390625 
Q 18.609375 15.53125 22.484375 10.953125 
Q 26.375 6.390625 33.015625 6.390625 
Q 39.65625 6.390625 43.53125 10.953125 
Q 47.40625 15.53125 47.40625 23.390625 
Q 47.40625 31.296875 43.53125 35.828125 
Q 39.65625 40.375 33.015625 40.375 
M 52.59375 71.296875 
L 52.59375 62.3125 
Q 48.875 64.0625 45.09375 64.984375 
Q 41.3125 65.921875 37.59375 65.921875 
Q 27.828125 65.921875 22.671875 59.328125 
Q 17.53125 52.734375 16.796875 39.40625 
Q 19.671875 43.65625 24.015625 45.921875 
Q 28.375 48.1875 33.59375 48.1875 
Q 44.578125 48.1875 50.953125 41.515625 
Q 57.328125 34.859375 57.328125 23.390625 
Q 57.328125 12.15625 50.6875 5.359375 
Q 44.046875 -1.421875 33.015625 -1.421875 
Q 20.359375 -1.421875 13.671875 8.265625 
Q 6.984375 17.96875 6.984375 36.375 
Q 6.984375 53.65625 15.1875 63.9375 
Q 23.390625 74.21875 37.203125 74.21875 
Q 40.921875 74.21875 44.703125 73.484375 
Q 48.484375 72.75 52.59375 71.296875 
" id="DejaVuSans-36"/>
      </defs>
      <g transform="translate(538.230989848 303.655)rotate(-90.0)scale(0.12 -0.12)">
       <use xlink:href="#DejaVuSans-46"/>
       <use x="57.44140625" xlink:href="#DejaVuSans-65"/>
       <use x="118.96484375" xlink:href="#DejaVuSans-62"/>
       <use x="182.44140625" xlink:href="#DejaVuSans-20"/>
       <use x="214.228515625" xlink:href="#DejaVuSans-32"/>
       <use x="277.8515625" xlink:href="#DejaVuSans-30"/>
       <use x="341.474609375" xlink:href="#DejaVuSans-31"/>
       <use x="405.09765625" xlink:href="#DejaVuSans-36"/>
      </g>
     </g>
    </g>
    <g id="xtick_9">
     <g id="line2d_39">
      <g>
       <use style="stroke:#000000;stroke-width:0.5;" x="598.650704315" xlink:href="#m248312446a" y="243.406875"/>
      </g>
     </g>
     <g id="line2d_40">
      <g>
       <use style="stroke:#000000;stroke-width:0.5;" x="598.650704315" xlink:href="#m99f18cc58a" y="13.006875"/>
      </g>
     </g>
     <g id="text_9">
      <!-- May 2016 -->
      <g transform="translate(601.961954315 306.570625)rotate(-90.0)scale(0.12 -0.12)">
       <use xlink:href="#DejaVuSans-4d"/>
       <use x="86.279296875" xlink:href="#DejaVuSans-61"/>
       <use x="147.55859375" xlink:href="#DejaVuSans-79"/>
       <use x="206.73828125" xlink:href="#DejaVuSans-20"/>
       <use x="238.525390625" xlink:href="#DejaVuSans-32"/>
       <use x="302.1484375" xlink:href="#DejaVuSans-30"/>
       <use x="365.771484375" xlink:href="#DejaVuSans-31"/>
       <use x="429.39453125" xlink:href="#DejaVuSans-36"/>
      </g>
     </g>
    </g>
   </g>
   <g id="matplotlib.axis_2">
    <g id="ytick_1">
     <g id="line2d_41">
      <defs>
       <path d="M 0 0 
L 4 0 
" id="m6490d96a0c" style="stroke:#000000;stroke-width:0.5;"/>
      </defs>
      <g>
       <use style="stroke:#000000;stroke-width:0.5;" x="58.35375" xlink:href="#m6490d96a0c" y="243.406875"/>
      </g>
     </g>
     <g id="line2d_42">
      <defs>
       <path d="M 0 0 
L -4 0 
" id="m69884b642d" style="stroke:#000000;stroke-width:0.5;"/>
      </defs>
      <g>
       <use style="stroke:#000000;stroke-width:0.5;" x="616.35375" xlink:href="#m69884b642d" y="243.406875"/>
      </g>
     </g>
     <g id="text_10">
      <!-- 200 -->
      <g transform="translate(31.44875 246.718125)scale(0.12 -0.12)">
       <use xlink:href="#DejaVuSans-32"/>
       <use x="63.623046875" xlink:href="#DejaVuSans-30"/>
       <use x="127.24609375" xlink:href="#DejaVuSans-30"/>
      </g>
     </g>
    </g>
    <g id="ytick_2">
     <g id="line2d_43">
      <g>
       <use style="stroke:#000000;stroke-width:0.5;" x="58.35375" xlink:href="#m6490d96a0c" y="214.606875"/>
      </g>
     </g>
     <g id="line2d_44">
      <g>
       <use style="stroke:#000000;stroke-width:0.5;" x="616.35375" xlink:href="#m69884b642d" y="214.606875"/>
      </g>
     </g>
     <g id="text_11">
      <!-- 300 -->
      <defs>
       <path d="M 40.578125 39.3125 
Q 47.65625 37.796875 51.625 33 
Q 55.609375 28.21875 55.609375 21.1875 
Q 55.609375 10.40625 48.1875 4.484375 
Q 40.765625 -1.421875 27.09375 -1.421875 
Q 22.515625 -1.421875 17.65625 -0.515625 
Q 12.796875 0.390625 7.625 2.203125 
L 7.625 11.71875 
Q 11.71875 9.328125 16.59375 8.109375 
Q 21.484375 6.890625 26.8125 6.890625 
Q 36.078125 6.890625 40.9375 10.546875 
Q 45.796875 14.203125 45.796875 21.1875 
Q 45.796875 27.640625 41.28125 31.265625 
Q 36.765625 34.90625 28.71875 34.90625 
L 20.21875 34.90625 
L 20.21875 43.015625 
L 29.109375 43.015625 
Q 36.375 43.015625 40.234375 45.921875 
Q 44.09375 48.828125 44.09375 54.296875 
Q 44.09375 59.90625 40.109375 62.90625 
Q 36.140625 65.921875 28.71875 65.921875 
Q 24.65625 65.921875 20.015625 65.03125 
Q 15.375 64.15625 9.8125 62.3125 
L 9.8125 71.09375 
Q 15.4375 72.65625 20.34375 73.4375 
Q 25.25 74.21875 29.59375 74.21875 
Q 40.828125 74.21875 47.359375 69.109375 
Q 53.90625 64.015625 53.90625 55.328125 
Q 53.90625 49.265625 50.4375 45.09375 
Q 46.96875 40.921875 40.578125 39.3125 
" id="DejaVuSans-33"/>
      </defs>
      <g transform="translate(31.44875 217.918125)scale(0.12 -0.12)">
       <use xlink:href="#DejaVuSans-33"/>
       <use x="63.623046875" xlink:href="#DejaVuSans-30"/>
       <use x="127.24609375" xlink:href="#DejaVuSans-30"/>
      </g>
     </g>
    </g>
    <g id="ytick_3">
     <g id="line2d_45">
      <g>
       <use style="stroke:#000000;stroke-width:0.5;" x="58.35375" xlink:href="#m6490d96a0c" y="185.806875"/>
      </g>
     </g>
     <g id="line2d_46">
      <g>
       <use style="stroke:#000000;stroke-width:0.5;" x="616.35375" xlink:href="#m69884b642d" y="185.806875"/>
      </g>
     </g>
     <g id="text_12">
      <!-- 400 -->
      <g transform="translate(31.44875 189.118125)scale(0.12 -0.12)">
       <use xlink:href="#DejaVuSans-34"/>
       <use x="63.623046875" xlink:href="#DejaVuSans-30"/>
       <use x="127.24609375" xlink:href="#DejaVuSans-30"/>
      </g>
     </g>
    </g>
    <g id="ytick_4">
     <g id="line2d_47">
      <g>
       <use style="stroke:#000000;stroke-width:0.5;" x="58.35375" xlink:href="#m6490d96a0c" y="157.006875"/>
      </g>
     </g>
     <g id="line2d_48">
      <g>
       <use style="stroke:#000000;stroke-width:0.5;" x="616.35375" xlink:href="#m69884b642d" y="157.006875"/>
      </g>
     </g>
     <g id="text_13">
      <!-- 500 -->
      <g transform="translate(31.44875 160.318125)scale(0.12 -0.12)">
       <use xlink:href="#DejaVuSans-35"/>
       <use x="63.623046875" xlink:href="#DejaVuSans-30"/>
       <use x="127.24609375" xlink:href="#DejaVuSans-30"/>
      </g>
     </g>
    </g>
    <g id="ytick_5">
     <g id="line2d_49">
      <g>
       <use style="stroke:#000000;stroke-width:0.5;" x="58.35375" xlink:href="#m6490d96a0c" y="128.206875"/>
      </g>
     </g>
     <g id="line2d_50">
      <g>
       <use style="stroke:#000000;stroke-width:0.5;" x="616.35375" xlink:href="#m69884b642d" y="128.206875"/>
      </g>
     </g>
     <g id="text_14">
      <!-- 600 -->
      <g transform="translate(31.44875 131.518125)scale(0.12 -0.12)">
       <use xlink:href="#DejaVuSans-36"/>
       <use x="63.623046875" xlink:href="#DejaVuSans-30"/>
       <use x="127.24609375" xlink:href="#DejaVuSans-30"/>
      </g>
     </g>
    </g>
    <g id="ytick_6">
     <g id="line2d_51">
      <g>
       <use style="stroke:#000000;stroke-width:0.5;" x="58.35375" xlink:href="#m6490d96a0c" y="99.406875"/>
      </g>
     </g>
     <g id="line2d_52">
      <g>
       <use style="stroke:#000000;stroke-width:0.5;" x="616.35375" xlink:href="#m69884b642d" y="99.406875"/>
      </g>
     </g>
     <g id="text_15">
      <!-- 700 -->
      <defs>
       <path d="M 8.203125 72.90625 
L 55.078125 72.90625 
L 55.078125 68.703125 
L 28.609375 0 
L 18.3125 0 
L 43.21875 64.59375 
L 8.203125 64.59375 
z
" id="DejaVuSans-37"/>
      </defs>
      <g transform="translate(31.44875 102.718125)scale(0.12 -0.12)">
       <use xlink:href="#DejaVuSans-37"/>
       <use x="63.623046875" xlink:href="#DejaVuSans-30"/>
       <use x="127.24609375" xlink:href="#DejaVuSans-30"/>
      </g>
     </g>
    </g>
    <g id="ytick_7">
     <g id="line2d_53">
      <g>
       <use style="stroke:#000000;stroke-width:0.5;" x="58.35375" xlink:href="#m6490d96a0c" y="70.606875"/>
      </g>
     </g>
     <g id="line2d_54">
      <g>
       <use style="stroke:#000000;stroke-width:0.5;" x="616.35375" xlink:href="#m69884b642d" y="70.606875"/>
      </g>
     </g>
     <g id="text_16">
      <!-- 800 -->
      <defs>
       <path d="M 31.78125 34.625 
Q 24.75 34.625 20.71875 30.859375 
Q 16.703125 27.09375 16.703125 20.515625 
Q 16.703125 13.921875 20.71875 10.15625 
Q 24.75 6.390625 31.78125 6.390625 
Q 38.8125 6.390625 42.859375 10.171875 
Q 46.921875 13.96875 46.921875 20.515625 
Q 46.921875 27.09375 42.890625 30.859375 
Q 38.875 34.625 31.78125 34.625 
M 21.921875 38.8125 
Q 15.578125 40.375 12.03125 44.71875 
Q 8.5 49.078125 8.5 55.328125 
Q 8.5 64.0625 14.71875 69.140625 
Q 20.953125 74.21875 31.78125 74.21875 
Q 42.671875 74.21875 48.875 69.140625 
Q 55.078125 64.0625 55.078125 55.328125 
Q 55.078125 49.078125 51.53125 44.71875 
Q 48 40.375 41.703125 38.8125 
Q 48.828125 37.15625 52.796875 32.3125 
Q 56.78125 27.484375 56.78125 20.515625 
Q 56.78125 9.90625 50.3125 4.234375 
Q 43.84375 -1.421875 31.78125 -1.421875 
Q 19.734375 -1.421875 13.25 4.234375 
Q 6.78125 9.90625 6.78125 20.515625 
Q 6.78125 27.484375 10.78125 32.3125 
Q 14.796875 37.15625 21.921875 38.8125 
M 18.3125 54.390625 
Q 18.3125 48.734375 21.84375 45.5625 
Q 25.390625 42.390625 31.78125 42.390625 
Q 38.140625 42.390625 41.71875 45.5625 
Q 45.3125 48.734375 45.3125 54.390625 
Q 45.3125 60.0625 41.71875 63.234375 
Q 38.140625 66.40625 31.78125 66.40625 
Q 25.390625 66.40625 21.84375 63.234375 
Q 18.3125 60.0625 18.3125 54.390625 
" id="DejaVuSans-38"/>
      </defs>
      <g transform="translate(31.44875 73.918125)scale(0.12 -0.12)">
       <use xlink:href="#DejaVuSans-38"/>
       <use x="63.623046875" xlink:href="#DejaVuSans-30"/>
       <use x="127.24609375" xlink:href="#DejaVuSans-30"/>
      </g>
     </g>
    </g>
    <g id="ytick_8">
     <g id="line2d_55">
      <g>
       <use style="stroke:#000000;stroke-width:0.5;" x="58.35375" xlink:href="#m6490d96a0c" y="41.806875"/>
      </g>
     </g>
     <g id="line2d_56">
      <g>
       <use style="stroke:#000000;stroke-width:0.5;" x="616.35375" xlink:href="#m69884b642d" y="41.806875"/>
      </g>
     </g>
     <g id="text_17">
      <!-- 900 -->
      <defs>
       <path d="M 10.984375 1.515625 
L 10.984375 10.5 
Q 14.703125 8.734375 18.5 7.8125 
Q 22.3125 6.890625 25.984375 6.890625 
Q 35.75 6.890625 40.890625 13.453125 
Q 46.046875 20.015625 46.78125 33.40625 
Q 43.953125 29.203125 39.59375 26.953125 
Q 35.25 24.703125 29.984375 24.703125 
Q 19.046875 24.703125 12.671875 31.3125 
Q 6.296875 37.9375 6.296875 49.421875 
Q 6.296875 60.640625 12.9375 67.421875 
Q 19.578125 74.21875 30.609375 74.21875 
Q 43.265625 74.21875 49.921875 64.515625 
Q 56.59375 54.828125 56.59375 36.375 
Q 56.59375 19.140625 48.40625 8.859375 
Q 40.234375 -1.421875 26.421875 -1.421875 
Q 22.703125 -1.421875 18.890625 -0.6875 
Q 15.09375 0.046875 10.984375 1.515625 
M 30.609375 32.421875 
Q 37.25 32.421875 41.125 36.953125 
Q 45.015625 41.5 45.015625 49.421875 
Q 45.015625 57.28125 41.125 61.84375 
Q 37.25 66.40625 30.609375 66.40625 
Q 23.96875 66.40625 20.09375 61.84375 
Q 16.21875 57.28125 16.21875 49.421875 
Q 16.21875 41.5 20.09375 36.953125 
Q 23.96875 32.421875 30.609375 32.421875 
" id="DejaVuSans-39"/>
      </defs>
      <g transform="translate(31.44875 45.118125)scale(0.12 -0.12)">
       <use xlink:href="#DejaVuSans-39"/>
       <use x="63.623046875" xlink:href="#DejaVuSans-30"/>
       <use x="127.24609375" xlink:href="#DejaVuSans-30"/>
      </g>
     </g>
    </g>
    <g id="ytick_9">
     <g id="line2d_57">
      <g>
       <use style="stroke:#000000;stroke-width:0.5;" x="58.35375" xlink:href="#m6490d96a0c" y="13.006875"/>
      </g>
     </g>
     <g id="line2d_58">
      <g>
       <use style="stroke:#000000;stroke-width:0.5;" x="616.35375" xlink:href="#m69884b642d" y="13.006875"/>
      </g>
     </g>
     <g id="text_18">
      <!-- 1000 -->
      <g transform="translate(23.81375 16.318125)scale(0.12 -0.12)">
       <use xlink:href="#DejaVuSans-31"/>
       <use x="63.623046875" xlink:href="#DejaVuSans-30"/>
       <use x="127.24609375" xlink:href="#DejaVuSans-30"/>
       <use x="190.869140625" xlink:href="#DejaVuSans-30"/>
      </g>
     </g>
    </g>
    <g id="text_19">
     <!-- Number of Tagged Packages -->
     <defs>
      <path d="M 52 44.1875 
Q 55.375 50.25 60.0625 53.125 
Q 64.75 56 71.09375 56 
Q 79.640625 56 84.28125 50.015625 
Q 88.921875 44.046875 88.921875 33.015625 
L 88.921875 0 
L 79.890625 0 
L 79.890625 32.71875 
Q 79.890625 40.578125 77.09375 44.375 
Q 74.3125 48.1875 68.609375 48.1875 
Q 61.625 48.1875 57.5625 43.546875 
Q 53.515625 38.921875 53.515625 30.90625 
L 53.515625 0 
L 44.484375 0 
L 44.484375 32.71875 
Q 44.484375 40.625 41.703125 44.40625 
Q 38.921875 48.1875 33.109375 48.1875 
Q 26.21875 48.1875 22.15625 43.53125 
Q 18.109375 38.875 18.109375 30.90625 
L 18.109375 0 
L 9.078125 0 
L 9.078125 54.6875 
L 18.109375 54.6875 
L 18.109375 46.1875 
Q 21.1875 51.21875 25.484375 53.609375 
Q 29.78125 56 35.6875 56 
Q 41.65625 56 45.828125 52.96875 
Q 50 49.953125 52 44.1875 
" id="DejaVuSans-6d"/>
      <path d="M 41.109375 46.296875 
Q 39.59375 47.171875 37.8125 47.578125 
Q 36.03125 48 33.890625 48 
Q 26.265625 48 22.1875 43.046875 
Q 18.109375 38.09375 18.109375 28.8125 
L 18.109375 0 
L 9.078125 0 
L 9.078125 54.6875 
L 18.109375 54.6875 
L 18.109375 46.1875 
Q 20.953125 51.171875 25.484375 53.578125 
Q 30.03125 56 36.53125 56 
Q 37.453125 56 38.578125 55.875 
Q 39.703125 55.765625 41.0625 55.515625 
z
" id="DejaVuSans-72"/>
      <path d="M 9.078125 75.984375 
L 18.109375 75.984375 
L 18.109375 31.109375 
L 44.921875 54.6875 
L 56.390625 54.6875 
L 27.390625 29.109375 
L 57.625 0 
L 45.90625 0 
L 18.109375 26.703125 
L 18.109375 0 
L 9.078125 0 
z
" id="DejaVuSans-6b"/>
      <path d="M 37.109375 75.984375 
L 37.109375 68.5 
L 28.515625 68.5 
Q 23.6875 68.5 21.796875 66.546875 
Q 19.921875 64.59375 19.921875 59.515625 
L 19.921875 54.6875 
L 34.71875 54.6875 
L 34.71875 47.703125 
L 19.921875 47.703125 
L 19.921875 0 
L 10.890625 0 
L 10.890625 47.703125 
L 2.296875 47.703125 
L 2.296875 54.6875 
L 10.890625 54.6875 
L 10.890625 58.5 
Q 10.890625 67.625 15.140625 71.796875 
Q 19.390625 75.984375 28.609375 75.984375 
z
" id="DejaVuSans-66"/>
      <path d="M 45.40625 46.390625 
L 45.40625 75.984375 
L 54.390625 75.984375 
L 54.390625 0 
L 45.40625 0 
L 45.40625 8.203125 
Q 42.578125 3.328125 38.25 0.953125 
Q 33.9375 -1.421875 27.875 -1.421875 
Q 17.96875 -1.421875 11.734375 6.484375 
Q 5.515625 14.40625 5.515625 27.296875 
Q 5.515625 40.1875 11.734375 48.09375 
Q 17.96875 56 27.875 56 
Q 33.9375 56 38.25 53.625 
Q 42.578125 51.265625 45.40625 46.390625 
M 14.796875 27.296875 
Q 14.796875 17.390625 18.875 11.75 
Q 22.953125 6.109375 30.078125 6.109375 
Q 37.203125 6.109375 41.296875 11.75 
Q 45.40625 17.390625 45.40625 27.296875 
Q 45.40625 37.203125 41.296875 42.84375 
Q 37.203125 48.484375 30.078125 48.484375 
Q 22.953125 48.484375 18.875 42.84375 
Q 14.796875 37.203125 14.796875 27.296875 
" id="DejaVuSans-64"/>
      <path d="M 19.671875 64.796875 
L 19.671875 37.40625 
L 32.078125 37.40625 
Q 38.96875 37.40625 42.71875 40.96875 
Q 46.484375 44.53125 46.484375 51.125 
Q 46.484375 57.671875 42.71875 61.234375 
Q 38.96875 64.796875 32.078125 64.796875 
z
M 9.8125 72.90625 
L 32.078125 72.90625 
Q 44.34375 72.90625 50.609375 67.359375 
Q 56.890625 61.8125 56.890625 51.125 
Q 56.890625 40.328125 50.609375 34.8125 
Q 44.34375 29.296875 32.078125 29.296875 
L 19.671875 29.296875 
L 19.671875 0 
L 9.8125 0 
z
" id="DejaVuSans-50"/>
      <path d="M 48.78125 52.59375 
L 48.78125 44.1875 
Q 44.96875 46.296875 41.140625 47.34375 
Q 37.3125 48.390625 33.40625 48.390625 
Q 24.65625 48.390625 19.8125 42.84375 
Q 14.984375 37.3125 14.984375 27.296875 
Q 14.984375 17.28125 19.8125 11.734375 
Q 24.65625 6.203125 33.40625 6.203125 
Q 37.3125 6.203125 41.140625 7.25 
Q 44.96875 8.296875 48.78125 10.40625 
L 48.78125 2.09375 
Q 45.015625 0.34375 40.984375 -0.53125 
Q 36.96875 -1.421875 32.421875 -1.421875 
Q 20.0625 -1.421875 12.78125 6.34375 
Q 5.515625 14.109375 5.515625 27.296875 
Q 5.515625 40.671875 12.859375 48.328125 
Q 20.21875 56 33.015625 56 
Q 37.15625 56 41.109375 55.140625 
Q 45.0625 54.296875 48.78125 52.59375 
" id="DejaVuSans-63"/>
      <path d="M 44.28125 53.078125 
L 44.28125 44.578125 
Q 40.484375 46.53125 36.375 47.5 
Q 32.28125 48.484375 27.875 48.484375 
Q 21.1875 48.484375 17.84375 46.4375 
Q 14.5 44.390625 14.5 40.28125 
Q 14.5 37.15625 16.890625 35.375 
Q 19.28125 33.59375 26.515625 31.984375 
L 29.59375 31.296875 
Q 39.15625 29.25 43.1875 25.515625 
Q 47.21875 21.78125 47.21875 15.09375 
Q 47.21875 7.46875 41.1875 3.015625 
Q 35.15625 -1.421875 24.609375 -1.421875 
Q 20.21875 -1.421875 15.453125 -0.5625 
Q 10.6875 0.296875 5.421875 2 
L 5.421875 11.28125 
Q 10.40625 8.6875 15.234375 7.390625 
Q 20.0625 6.109375 24.8125 6.109375 
Q 31.15625 6.109375 34.5625 8.28125 
Q 37.984375 10.453125 37.984375 14.40625 
Q 37.984375 18.0625 35.515625 20.015625 
Q 33.0625 21.96875 24.703125 23.78125 
L 21.578125 24.515625 
Q 13.234375 26.265625 9.515625 29.90625 
Q 5.8125 33.546875 5.8125 39.890625 
Q 5.8125 47.609375 11.28125 51.796875 
Q 16.75 56 26.8125 56 
Q 31.78125 56 36.171875 55.265625 
Q 40.578125 54.546875 44.28125 53.078125 
" id="DejaVuSans-73"/>
      <path d="M -0.296875 72.90625 
L 61.375 72.90625 
L 61.375 64.59375 
L 35.5 64.59375 
L 35.5 0 
L 25.59375 0 
L 25.59375 64.59375 
L -0.296875 64.59375 
z
" id="DejaVuSans-54"/>
     </defs>
     <g transform="translate(16.318125 214.6265625)rotate(-90.0)scale(0.12 -0.12)">
      <use xlink:href="#DejaVuSans-4e"/>
      <use x="74.8046875" xlink:href="#DejaVuSans-75"/>
      <use x="138.18359375" xlink:href="#DejaVuSans-6d"/>
      <use x="235.595703125" xlink:href="#DejaVuSans-62"/>
      <use x="299.072265625" xlink:href="#DejaVuSans-65"/>
      <use x="360.595703125" xlink:href="#DejaVuSans-72"/>
      <use x="401.708984375" xlink:href="#DejaVuSans-20"/>
      <use x="433.49609375" xlink:href="#DejaVuSans-6f"/>
      <use x="494.677734375" xlink:href="#DejaVuSans-66"/>
      <use x="529.8828125" xlink:href="#DejaVuSans-20"/>
      <use x="561.669921875" xlink:href="#DejaVuSans-54"/>
      <use x="622.50390625" xlink:href="#DejaVuSans-61"/>
      <use x="683.783203125" xlink:href="#DejaVuSans-67"/>
      <use x="747.259765625" xlink:href="#DejaVuSans-67"/>
      <use x="810.736328125" xlink:href="#DejaVuSans-65"/>
      <use x="872.259765625" xlink:href="#DejaVuSans-64"/>
      <use x="935.736328125" xlink:href="#DejaVuSans-20"/>
      <use x="967.5234375" xlink:href="#DejaVuSans-50"/>
      <use x="1027.76367188" xlink:href="#DejaVuSans-61"/>
      <use x="1089.04296875" xlink:href="#DejaVuSans-63"/>
      <use x="1144.0234375" xlink:href="#DejaVuSans-6b"/>
      <use x="1201.91796875" xlink:href="#DejaVuSans-61"/>
      <use x="1263.19726562" xlink:href="#DejaVuSans-67"/>
      <use x="1326.67382812" xlink:href="#DejaVuSans-65"/>
      <use x="1388.19726562" xlink:href="#DejaVuSans-73"/>
     </g>
    </g>
   </g>
   <g id="text_20">
    <g id="patch_7">
     <path d="M 140.641514 234.384411 
L 178.588829 234.384411 
L 178.588829 218.112797 
L 140.641514 218.112797 
z
" style="fill:#ffffff;stroke:#ffffff;stroke-linejoin:miter;"/>
    </g>
    <!-- v0.3.0 -->
    <defs>
     <path d="M 10.6875 12.40625 
L 21 12.40625 
L 21 0 
L 10.6875 0 
z
" id="DejaVuSans-2e"/>
    </defs>
    <g transform="translate(143.94019382 229.006875)scale(0.09996 -0.09996)">
     <use xlink:href="#DejaVuSans-76"/>
     <use x="59.1796875" xlink:href="#DejaVuSans-30"/>
     <use x="122.802734375" xlink:href="#DejaVuSans-2e"/>
     <use x="154.58984375" xlink:href="#DejaVuSans-33"/>
     <use x="218.212890625" xlink:href="#DejaVuSans-2e"/>
     <use x="250.0" xlink:href="#DejaVuSans-30"/>
    </g>
   </g>
   <g id="text_21">
    <g id="patch_8">
     <path d="M 163.301412 219.984411 
L 201.248727 219.984411 
L 201.248727 203.712797 
L 163.301412 203.712797 
z
" style="fill:#ffffff;stroke:#ffffff;stroke-linejoin:miter;"/>
    </g>
    <!-- v0.3.1 -->
    <g transform="translate(166.600092297 214.606875)scale(0.09996 -0.09996)">
     <use xlink:href="#DejaVuSans-76"/>
     <use x="59.1796875" xlink:href="#DejaVuSans-30"/>
     <use x="122.802734375" xlink:href="#DejaVuSans-2e"/>
     <use x="154.58984375" xlink:href="#DejaVuSans-33"/>
     <use x="218.212890625" xlink:href="#DejaVuSans-2e"/>
     <use x="250.0" xlink:href="#DejaVuSans-31"/>
    </g>
   </g>
   <g id="text_22">
    <g id="patch_9">
     <path d="M 184.545067 234.384411 
L 222.492382 234.384411 
L 222.492382 218.112797 
L 184.545067 218.112797 
z
" style="fill:#ffffff;stroke:#ffffff;stroke-linejoin:miter;"/>
    </g>
    <!-- v0.3.2 -->
    <g transform="translate(187.843747119 229.006875)scale(0.09996 -0.09996)">
     <use xlink:href="#DejaVuSans-76"/>
     <use x="59.1796875" xlink:href="#DejaVuSans-30"/>
     <use x="122.802734375" xlink:href="#DejaVuSans-2e"/>
     <use x="154.58984375" xlink:href="#DejaVuSans-33"/>
     <use x="218.212890625" xlink:href="#DejaVuSans-2e"/>
     <use x="250.0" xlink:href="#DejaVuSans-32"/>
    </g>
   </g>
   <g id="text_23">
    <g id="patch_10">
     <path d="M 207.913087 219.984411 
L 245.860402 219.984411 
L 245.860402 203.712797 
L 207.913087 203.712797 
z
" style="fill:#ffffff;stroke:#ffffff;stroke-linejoin:miter;"/>
    </g>
    <!-- v0.3.3 -->
    <g transform="translate(211.211767424 214.606875)scale(0.09996 -0.09996)">
     <use xlink:href="#DejaVuSans-76"/>
     <use x="59.1796875" xlink:href="#DejaVuSans-30"/>
     <use x="122.802734375" xlink:href="#DejaVuSans-2e"/>
     <use x="154.58984375" xlink:href="#DejaVuSans-33"/>
     <use x="218.212890625" xlink:href="#DejaVuSans-2e"/>
     <use x="250.0" xlink:href="#DejaVuSans-33"/>
    </g>
   </g>
   <g id="text_24">
    <g id="patch_11">
     <path d="M 231.281108 234.384411 
L 269.228423 234.384411 
L 269.228423 218.112797 
L 231.281108 218.112797 
z
" style="fill:#ffffff;stroke:#ffffff;stroke-linejoin:miter;"/>
    </g>
    <!-- v0.3.4 -->
    <g transform="translate(234.579787728 229.006875)scale(0.09996 -0.09996)">
     <use xlink:href="#DejaVuSans-76"/>
     <use x="59.1796875" xlink:href="#DejaVuSans-30"/>
     <use x="122.802734375" xlink:href="#DejaVuSans-2e"/>
     <use x="154.58984375" xlink:href="#DejaVuSans-33"/>
     <use x="218.212890625" xlink:href="#DejaVuSans-2e"/>
     <use x="250.0" xlink:href="#DejaVuSans-34"/>
    </g>
   </g>
   <g id="text_25">
    <g id="patch_12">
     <path d="M 240.486691 219.984411 
L 278.434006 219.984411 
L 278.434006 203.712797 
L 240.486691 203.712797 
z
" style="fill:#ffffff;stroke:#ffffff;stroke-linejoin:miter;"/>
    </g>
    <!-- v0.3.5 -->
    <g transform="translate(243.785371485 214.606875)scale(0.09996 -0.09996)">
     <use xlink:href="#DejaVuSans-76"/>
     <use x="59.1796875" xlink:href="#DejaVuSans-30"/>
     <use x="122.802734375" xlink:href="#DejaVuSans-2e"/>
     <use x="154.58984375" xlink:href="#DejaVuSans-33"/>
     <use x="218.212890625" xlink:href="#DejaVuSans-2e"/>
     <use x="250.0" xlink:href="#DejaVuSans-35"/>
    </g>
   </g>
   <g id="text_26">
    <g id="patch_13">
     <path d="M 268.811565 234.384411 
L 306.75888 234.384411 
L 306.75888 218.112797 
L 268.811565 218.112797 
z
" style="fill:#ffffff;stroke:#ffffff;stroke-linejoin:miter;"/>
    </g>
    <!-- v0.3.6 -->
    <g transform="translate(272.110244581 229.006875)scale(0.09996 -0.09996)">
     <use xlink:href="#DejaVuSans-76"/>
     <use x="59.1796875" xlink:href="#DejaVuSans-30"/>
     <use x="122.802734375" xlink:href="#DejaVuSans-2e"/>
     <use x="154.58984375" xlink:href="#DejaVuSans-33"/>
     <use x="218.212890625" xlink:href="#DejaVuSans-2e"/>
     <use x="250.0" xlink:href="#DejaVuSans-36"/>
    </g>
   </g>
   <g id="text_27">
    <g id="patch_14">
     <path d="M 292.887707 219.984411 
L 330.835022 219.984411 
L 330.835022 203.712797 
L 292.887707 203.712797 
z
" style="fill:#ffffff;stroke:#ffffff;stroke-linejoin:miter;"/>
    </g>
    <!-- v0.3.7 -->
    <g transform="translate(296.186386713 214.606875)scale(0.09996 -0.09996)">
     <use xlink:href="#DejaVuSans-76"/>
     <use x="59.1796875" xlink:href="#DejaVuSans-30"/>
     <use x="122.802734375" xlink:href="#DejaVuSans-2e"/>
     <use x="154.58984375" xlink:href="#DejaVuSans-33"/>
     <use x="218.212890625" xlink:href="#DejaVuSans-2e"/>
     <use x="250.0" xlink:href="#DejaVuSans-37"/>
    </g>
   </g>
   <g id="text_28">
    <g id="patch_15">
     <path d="M 319.796336 234.384411 
L 357.743651 234.384411 
L 357.743651 218.112797 
L 319.796336 218.112797 
z
" style="fill:#ffffff;stroke:#ffffff;stroke-linejoin:miter;"/>
    </g>
    <!-- v0.3.8 -->
    <g transform="translate(323.095016155 229.006875)scale(0.09996 -0.09996)">
     <use xlink:href="#DejaVuSans-76"/>
     <use x="59.1796875" xlink:href="#DejaVuSans-30"/>
     <use x="122.802734375" xlink:href="#DejaVuSans-2e"/>
     <use x="154.58984375" xlink:href="#DejaVuSans-33"/>
     <use x="218.212890625" xlink:href="#DejaVuSans-2e"/>
     <use x="250.0" xlink:href="#DejaVuSans-38"/>
    </g>
   </g>
   <g id="text_29">
    <g id="patch_16">
     <path d="M 341.039991 219.984411 
L 378.987306 219.984411 
L 378.987306 203.712797 
L 341.039991 203.712797 
z
" style="fill:#ffffff;stroke:#ffffff;stroke-linejoin:miter;"/>
    </g>
    <!-- v0.3.9 -->
    <g transform="translate(344.338670977 214.606875)scale(0.09996 -0.09996)">
     <use xlink:href="#DejaVuSans-76"/>
     <use x="59.1796875" xlink:href="#DejaVuSans-30"/>
     <use x="122.802734375" xlink:href="#DejaVuSans-2e"/>
     <use x="154.58984375" xlink:href="#DejaVuSans-33"/>
     <use x="218.212890625" xlink:href="#DejaVuSans-2e"/>
     <use x="250.0" xlink:href="#DejaVuSans-39"/>
    </g>
   </g>
   <g id="text_30">
    <g id="patch_17">
     <path d="M 355.563059 234.384411 
L 399.870329 234.384411 
L 399.870329 218.112797 
L 355.563059 218.112797 
z
" style="fill:#ffffff;stroke:#ffffff;stroke-linejoin:miter;"/>
    </g>
    <!-- v0.3.10 -->
    <g transform="translate(358.861739162 229.006875)scale(0.09996 -0.09996)">
     <use xlink:href="#DejaVuSans-76"/>
     <use x="59.1796875" xlink:href="#DejaVuSans-30"/>
     <use x="122.802734375" xlink:href="#DejaVuSans-2e"/>
     <use x="154.58984375" xlink:href="#DejaVuSans-33"/>
     <use x="218.212890625" xlink:href="#DejaVuSans-2e"/>
     <use x="250.0" xlink:href="#DejaVuSans-31"/>
     <use x="313.623046875" xlink:href="#DejaVuSans-30"/>
    </g>
   </g>
   <g id="text_31">
    <g id="patch_18">
     <path d="M 378.931079 219.984411 
L 423.238349 219.984411 
L 423.238349 203.712797 
L 378.931079 203.712797 
z
" style="fill:#ffffff;stroke:#ffffff;stroke-linejoin:miter;"/>
    </g>
    <!-- v0.3.11 -->
    <g transform="translate(382.229759467 214.606875)scale(0.09996 -0.09996)">
     <use xlink:href="#DejaVuSans-76"/>
     <use x="59.1796875" xlink:href="#DejaVuSans-30"/>
     <use x="122.802734375" xlink:href="#DejaVuSans-2e"/>
     <use x="154.58984375" xlink:href="#DejaVuSans-33"/>
     <use x="218.212890625" xlink:href="#DejaVuSans-2e"/>
     <use x="250.0" xlink:href="#DejaVuSans-31"/>
     <use x="313.623046875" xlink:href="#DejaVuSans-31"/>
    </g>
   </g>
   <g id="text_32">
    <g id="patch_19">
     <path d="M 443.370166 234.384411 
L 487.677436 234.384411 
L 487.677436 218.112797 
L 443.370166 218.112797 
z
" style="fill:#ffffff;stroke:#ffffff;stroke-linejoin:miter;"/>
    </g>
    <!-- v0.3.12 -->
    <g transform="translate(446.668845761 229.006875)scale(0.09996 -0.09996)">
     <use xlink:href="#DejaVuSans-76"/>
     <use x="59.1796875" xlink:href="#DejaVuSans-30"/>
     <use x="122.802734375" xlink:href="#DejaVuSans-2e"/>
     <use x="154.58984375" xlink:href="#DejaVuSans-33"/>
     <use x="218.212890625" xlink:href="#DejaVuSans-2e"/>
     <use x="250.0" xlink:href="#DejaVuSans-31"/>
     <use x="313.623046875" xlink:href="#DejaVuSans-32"/>
    </g>
   </g>
   <g id="text_33">
    <g id="patch_20">
     <path d="M 433.80395 191.184411 
L 471.751265 191.184411 
L 471.751265 174.912797 
L 433.80395 174.912797 
z
" style="fill:#ffffff;stroke:#ffffff;stroke-linejoin:miter;"/>
    </g>
    <!-- v0.4.0 -->
    <g transform="translate(437.102630368 185.806875)scale(0.09996 -0.09996)">
     <use xlink:href="#DejaVuSans-76"/>
     <use x="59.1796875" xlink:href="#DejaVuSans-30"/>
     <use x="122.802734375" xlink:href="#DejaVuSans-2e"/>
     <use x="154.58984375" xlink:href="#DejaVuSans-34"/>
     <use x="218.212890625" xlink:href="#DejaVuSans-2e"/>
     <use x="250.0" xlink:href="#DejaVuSans-30"/>
    </g>
   </g>
   <g id="text_34">
    <g id="patch_21">
     <path d="M 455.755727 176.784411 
L 493.703042 176.784411 
L 493.703042 160.512797 
L 455.755727 160.512797 
z
" style="fill:#ffffff;stroke:#ffffff;stroke-linejoin:miter;"/>
    </g>
    <!-- v0.4.1 -->
    <g transform="translate(459.054407018 171.406875)scale(0.09996 -0.09996)">
     <use xlink:href="#DejaVuSans-76"/>
     <use x="59.1796875" xlink:href="#DejaVuSans-30"/>
     <use x="122.802734375" xlink:href="#DejaVuSans-2e"/>
     <use x="154.58984375" xlink:href="#DejaVuSans-34"/>
     <use x="218.212890625" xlink:href="#DejaVuSans-2e"/>
     <use x="250.0" xlink:href="#DejaVuSans-31"/>
    </g>
   </g>
   <g id="text_35">
    <g id="patch_22">
     <path d="M 475.583138 191.184411 
L 513.530453 191.184411 
L 513.530453 174.912797 
L 475.583138 174.912797 
z
" style="fill:#ffffff;stroke:#ffffff;stroke-linejoin:miter;"/>
    </g>
    <!-- v0.4.2 -->
    <g transform="translate(478.881818185 185.806875)scale(0.09996 -0.09996)">
     <use xlink:href="#DejaVuSans-76"/>
     <use x="59.1796875" xlink:href="#DejaVuSans-30"/>
     <use x="122.802734375" xlink:href="#DejaVuSans-2e"/>
     <use x="154.58984375" xlink:href="#DejaVuSans-34"/>
     <use x="218.212890625" xlink:href="#DejaVuSans-2e"/>
     <use x="250.0" xlink:href="#DejaVuSans-32"/>
    </g>
   </g>
   <g id="text_36">
    <g id="patch_23">
     <path d="M 501.783646 176.784411 
L 539.730961 176.784411 
L 539.730961 160.512797 
L 501.783646 160.512797 
z
" style="fill:#ffffff;stroke:#ffffff;stroke-linejoin:miter;"/>
    </g>
    <!-- v0.4.3 -->
    <g transform="translate(505.082325799 171.406875)scale(0.09996 -0.09996)">
     <use xlink:href="#DejaVuSans-76"/>
     <use x="59.1796875" xlink:href="#DejaVuSans-30"/>
     <use x="122.802734375" xlink:href="#DejaVuSans-2e"/>
     <use x="154.58984375" xlink:href="#DejaVuSans-34"/>
     <use x="218.212890625" xlink:href="#DejaVuSans-2e"/>
     <use x="250.0" xlink:href="#DejaVuSans-33"/>
    </g>
   </g>
   <g id="text_37">
    <g id="patch_24">
     <path d="M 547.811565 191.184411 
L 585.75888 191.184411 
L 585.75888 174.912797 
L 547.811565 174.912797 
z
" style="fill:#ffffff;stroke:#ffffff;stroke-linejoin:miter;"/>
    </g>
    <!-- v0.4.5 -->
    <g transform="translate(551.110244581 185.806875)scale(0.09996 -0.09996)">
     <use xlink:href="#DejaVuSans-76"/>
     <use x="59.1796875" xlink:href="#DejaVuSans-30"/>
     <use x="122.802734375" xlink:href="#DejaVuSans-2e"/>
     <use x="154.58984375" xlink:href="#DejaVuSans-34"/>
     <use x="218.212890625" xlink:href="#DejaVuSans-2e"/>
     <use x="250.0" xlink:href="#DejaVuSans-35"/>
    </g>
   </g>
   <g id="legend_1">
    <g id="patch_25">
     <path d="M 63.35175 79.69269 
L 115.234114 79.69269 
L 115.234114 18.004875 
L 63.35175 18.004875 
z
" style="fill:#ffffff;stroke:#000000;stroke-linejoin:miter;"/>
    </g>
    <g id="line2d_59">
     <path d="M 70.34895 26.100073 
L 84.34335 26.100073 
" style="fill:none;stroke:#ff0000;stroke-linecap:square;stroke-width:2.0;"/>
    </g>
    <g id="line2d_60"/>
    <g id="text_38">
     <!-- 0.2 -->
     <g transform="translate(95.33895 29.598673125)scale(0.09996 -0.09996)">
      <use xlink:href="#DejaVuSans-30"/>
      <use x="63.623046875" xlink:href="#DejaVuSans-2e"/>
      <use x="95.41015625" xlink:href="#DejaVuSans-32"/>
     </g>
    </g>
    <g id="line2d_61">
     <path d="M 70.34895 40.772327 
L 84.34335 40.772327 
" style="fill:none;stroke:#008000;stroke-linecap:square;stroke-width:2.0;"/>
    </g>
    <g id="line2d_62"/>
    <g id="text_39">
     <!-- 0.3 -->
     <g transform="translate(95.33895 44.270926875)scale(0.09996 -0.09996)">
      <use xlink:href="#DejaVuSans-30"/>
      <use x="63.623046875" xlink:href="#DejaVuSans-2e"/>
      <use x="95.41015625" xlink:href="#DejaVuSans-33"/>
     </g>
    </g>
    <g id="line2d_63">
     <path d="M 70.34895 55.444581 
L 84.34335 55.444581 
" style="fill:none;stroke:#0000ff;stroke-linecap:square;stroke-width:2.0;"/>
    </g>
    <g id="line2d_64"/>
    <g id="text_40">
     <!-- 0.4 -->
     <g transform="translate(95.33895 58.943180625)scale(0.09996 -0.09996)">
      <use xlink:href="#DejaVuSans-30"/>
      <use x="63.623046875" xlink:href="#DejaVuSans-2e"/>
      <use x="95.41015625" xlink:href="#DejaVuSans-34"/>
     </g>
    </g>
    <g id="line2d_65">
     <path d="M 70.34895 70.116834 
L 84.34335 70.116834 
" style="fill:none;stroke:#000000;stroke-linecap:square;stroke-width:2.0;"/>
    </g>
    <g id="line2d_66"/>
    <g id="text_41">
     <!-- 0.5 -->
     <g transform="translate(95.33895 73.615434375)scale(0.09996 -0.09996)">
      <use xlink:href="#DejaVuSans-30"/>
      <use x="63.623046875" xlink:href="#DejaVuSans-2e"/>
      <use x="95.41015625" xlink:href="#DejaVuSans-35"/>
     </g>
    </g>
   </g>
  </g>
 </g>
 <defs>
  <clipPath id="p1d3b04a151">
   <rect height="230.4" width="558.0" x="58.35375" y="13.006875"/>
  </clipPath>
 </defs>
</svg>
