<?xml version="1.0" encoding="utf-8" standalone="no"?>
<!DOCTYPE svg PUBLIC "-//W3C//DTD SVG 1.1//EN"
  "http://www.w3.org/Graphics/SVG/1.1/DTD/svg11.dtd">
<!-- Created with matplotlib (http://matplotlib.org/) -->
<svg height="311pt" version="1.1" viewBox="0 0 621 311" width="621pt" xmlns="http://www.w3.org/2000/svg" xmlns:xlink="http://www.w3.org/1999/xlink">
 <defs>
  <style type="text/css">
*{stroke-linecap:butt;stroke-linejoin:round;}
  </style>
 </defs>
 <g id="figure_1">
  <g id="patch_1">
   <path d="
M0 311.71
L621.439 311.71
L621.439 0
L0 0
z
" style="fill:#ffffff;"/>
  </g>
  <g id="axes_1">
   <g id="patch_2">
    <path d="
M56.2388 243.407
L614.239 243.407
L614.239 13.0069
L56.2388 13.0069
z
" style="fill:#ffffff;"/>
   </g>
   <g id="line2d_1">
    <path clip-path="url(#pd39b4832ff)" d="
M123.318 217.487
L122.821 217.487
L122.324 217.871
L121.827 217.871
L121.33 218.063
L120.834 218.447
L120.337 218.447
L119.343 218.063
L118.846 218.063
L118.349 218.639
L117.852 218.639
L116.859 218.639
L116.362 218.639
L115.368 218.831
L114.871 218.831
L114.374 218.831
L113.877 219.023
L113.38 219.023
L112.883 219.023
L112.387 219.215
L111.89 219.215
L110.399 219.215
L109.902 219.215
L109.405 219.215
L108.908 219.215
L107.915 219.599
L106.921 219.983
L106.424 219.983
L105.927 220.175
L105.43 220.367
L104.436 220.751
L103.94 220.751
L103.443 220.751
L102.946 220.943
L102.449 221.135
L101.952 221.519
L100.958 221.711
L100.461 221.711
L99.9645 222.287
L99.4676 222.287
L98.9707 222.287
L98.4738 222.287
L97.977 222.287
L97.4801 222.671
L96.4863 222.671
L95.9894 222.863
L95.4925 222.863
L94.9957 222.863
L94.4988 222.863
L94.0019 222.863
L93.505 223.247
L93.0081 223.439
L92.5112 223.631
L92.0144 223.631
L89.0331 224.591
L88.5362 224.591
L88.0393 224.783
L87.5424 224.783
L87.0455 224.975
L86.5486 224.975
L86.0518 224.975
L85.5549 224.975
L85.058 224.975
L84.5611 224.975
L84.0642 224.975
L83.5673 224.975
L83.0705 225.935
L82.5736 224.399
L82.0767 224.591
L81.5798 224.591
L81.0829 224.591
L80.0892 224.783
L79.5923 224.783
L79.0954 225.359
L78.5985 225.359
L78.1016 225.359
L77.6047 225.359
L77.1079 225.359
L76.611 225.359
L76.1141 225.359
L75.6172 225.359
L75.1203 225.359
L74.6234 225.551
L71.1453 225.743
L70.1515 225.743
L68.6608 225.743
L65.1827 226.127
L64.6858 226.319
L63.692 226.511
L63.1951 226.511
L62.2014 226.703
L61.2076 226.895
L60.7107 226.895
L59.7169 226.895
L59.2201 226.895
L58.7232 226.895
L58.2263 226.895
L57.7294 226.895
L57.2325 226.895
L56.7356 227.087
L56.2388 227.087" style="fill:none;stroke:#ff0000;stroke-linecap:square;stroke-width:2;"/>
   </g>
   <g id="line2d_2">
    <path clip-path="url(#pd39b4832ff)" d="
M506.912 148.367
L493.496 148.367
L492.999 148.559
L491.509 148.367
L486.043 148.367
L485.546 148.559
L485.049 148.367
L484.552 148.367
L484.055 148.559
L483.558 148.367
L482.068 148.367
L481.571 148.559
L479.086 148.559
L478.59 148.367
L472.627 148.367
L472.13 148.559
L471.633 148.367
L468.155 148.367
L467.658 148.559
L467.161 148.367
L466.664 148.559
L466.168 148.367
L460.205 148.367
L459.708 148.559
L458.714 148.559
L458.217 148.751
L457.224 148.559
L456.727 148.751
L456.23 148.559
L454.739 148.559
L454.242 148.751
L453.745 148.559
L450.764 148.559
L450.267 148.751
L449.77 148.559
L447.286 148.559
L446.789 148.751
L413.001 149.519
L405.051 149.903
L393.623 149.903
L390.641 150.287
L388.654 150.287
L378.219 150.479
L367.288 150.479
L360.828 151.055
L356.853 151.439
L352.381 151.439
L351.387 151.823
L349.4 151.439
L337.475 151.823
L335.984 152.207
L333.997 152.591
L332.009 152.783
L329.525 153.551
L327.537 154.511
L319.587 156.431
L317.103 156.815
L314.618 157.007
L313.127 157.391
L304.68 160.079
L296.233 161.999
L287.786 164.687
L287.29 164.687
L286.793 164.879
L286.296 165.263
L285.799 166.031
L285.302 166.415
L284.308 166.223
L283.314 166.607
L281.824 166.607
L281.327 166.799
L280.333 166.799
L279.836 167.183
L279.339 167.183
L278.842 167.567
L278.346 167.567
L276.855 167.375
L271.389 168.527
L270.395 168.527
L266.917 169.871
L265.924 169.871
L261.948 170.639
L261.452 171.023
L259.464 171.407
L255.489 172.751
L254.992 172.943
L254.495 173.519
L253.501 173.903
L252.508 173.903
L252.011 174.095
L250.023 174.479
L249.526 175.055
L249.029 175.247
L248.533 175.247
L247.539 176.207
L246.048 176.783
L244.061 176.783
L243.067 177.359
L242.073 177.359
L239.092 177.551
L238.595 178.127
L237.601 178.127
L231.639 178.319
L231.142 178.703
L230.645 178.511
L230.148 178.895
L229.651 178.895
L229.154 179.087
L228.657 179.471
L226.67 179.855
L224.185 179.855
L223.688 180.239
L222.695 180.239
L220.21 181.007
L217.726 182.159
L215.241 182.159
L213.751 182.543
L213.254 182.543
L211.266 183.695
L210.769 183.695
L210.273 183.311
L208.285 184.847
L207.788 185.039
L207.291 185.423
L206.298 185.999
L205.304 185.999
L204.807 186.191
L204.31 186.767
L203.813 186.767
L203.316 187.151
L201.329 187.151
L200.832 188.111
L200.335 188.111
L199.838 188.495
L197.851 189.839
L194.372 190.991
L191.888 192.335
L188.41 193.103
L187.416 193.487
L185.428 193.487
L184.932 193.679
L183.441 194.447
L181.453 195.023
L180.956 195.407
L179.963 195.407
L178.969 195.791
L177.975 195.791
L174.994 195.983
L173.006 196.943
L172.509 196.943
L172.013 197.519
L171.516 197.519
L171.019 197.711
L170.522 197.711
L170.025 198.095
L167.541 199.055
L166.05 199.055
L165.553 199.247
L165.056 199.247
L164.559 199.439
L163.566 199.439
L163.069 199.631
L162.572 199.631
L162.075 199.823
L161.578 200.207
L161.081 200.207
L160.584 200.399
L160.087 200.399
L159.59 200.591
L158.597 200.591
L158.1 200.975
L157.603 201.167
L156.112 201.167
L155.119 201.551
L154.622 201.551
L154.125 201.935
L153.131 201.935
L152.634 202.127
L152.137 202.511
L151.64 202.511
L150.15 202.895
L149.653 203.279
L149.156 203.279
L148.659 199.823
L148.162 203.663
L147.665 204.047
L147.168 204.047
L146.672 204.239
L145.181 204.047
L144.684 204.239
L143.69 204.239
L142.696 204.623
L140.709 204.623
L140.212 206.159
L139.218 206.159
L138.721 206.543
L137.728 206.927
L136.237 208.079
L133.256 208.079
L132.262 208.463
L131.765 209.039
L130.771 206.735
L129.777 207.119
L129.281 207.695
L128.287 207.695
L127.79 207.887
L127.293 207.887
L126.299 208.463
L125.306 208.463
L124.312 208.847
L123.815 208.847
L123.318 209.231
L121.33 209.999
L120.834 210.383
L120.337 210.383
L118.846 210.575
L118.349 211.151
L117.852 211.343
L115.368 211.343
L113.877 211.919
L112.883 211.919
L112.387 212.111
L111.89 212.111
L108.908 212.495
L107.915 213.071
L106.921 214.031
L105.927 214.031
L105.43 214.607
L104.436 214.799
L103.94 215.183
L103.443 215.183
L102.449 215.567
L101.952 215.951
L100.461 216.143
L99.9645 216.719
L97.977 216.719
L97.4801 217.103
L96.4863 217.103
L95.4925 217.487
L94.9957 217.487
L94.4988 217.871
L94.0019 217.871
L93.505 218.255
L88.0393 220.367
L87.5424 228.239
L87.0455 220.559
L86.5486 220.559
L86.0518 220.751
L84.0642 220.751
L83.5673 220.943
L82.5736 220.943
L82.0767 221.327
L81.0829 221.327
L80.0892 221.519
L79.5923 222.095
L75.6172 222.095
L75.1203 222.287
L74.6234 222.671
L70.1515 222.863
L68.6608 222.863
L64.6858 223.823
L63.1951 223.823
L62.2014 224.207
L58.7232 224.783
L57.2325 224.783
L56.7356 224.975
L56.2388 224.975
L56.2388 224.975" style="fill:none;stroke:#008000;stroke-linecap:square;stroke-width:2;"/>
   </g>
   <g id="line2d_3">
    <path clip-path="url(#pd39b4832ff)" d="
M614.239 70.4149
L607.779 70.4149
L604.301 70.7989
L603.804 70.9909
L603.307 70.7989
L602.314 70.7989
L601.817 70.9909
L600.326 70.9909
L599.829 71.1829
L599.332 70.9909
L596.351 70.9909
L595.854 71.1829
L591.382 71.1829
L590.885 71.3749
L590.388 71.3749
L589.395 71.5669
L586.91 71.1829
L584.426 71.1829
L583.929 71.3749
L578.463 71.3749
L556.103 71.7589
L554.116 72.1429
L552.625 72.1429
L552.128 72.3349
L549.644 71.9509
L549.147 72.1429
L546.166 72.1429
L544.178 72.9109
L543.184 72.9109
L542.688 73.8709
L540.203 72.9109
L537.719 72.9109
L534.241 73.2949
L532.75 73.2949
L531.756 73.4869
L527.284 73.4869
L526.787 74.0629
L526.29 74.4469
L525.794 74.6389
L524.303 74.4469
L523.806 74.8309
L518.837 75.2149
L517.843 75.5989
L515.359 75.5989
L514.365 75.9829
L513.371 75.9829
L512.378 76.3669
L508.403 76.3669
L507.906 76.5589
L507.409 77.1349
L505.918 77.7109
L505.421 78.4789
L504.428 78.4789
L503.931 78.6709
L503.434 78.6709
L502.44 79.0549
L501.943 79.6309
L500.949 80.0149
L500.452 80.0149
L499.956 80.3989
L498.962 80.3989
L498.465 80.5909
L497.968 80.5909
L497.471 80.9749
L496.477 81.3589
L495.981 81.7429
L494.987 81.7429
L493.993 82.1269
L492.999 82.1269
L492.005 82.5109
L491.509 83.0869
L491.012 83.2789
L490.515 83.6629
L490.018 83.6629
L489.521 83.8549
L489.024 83.8549
L488.527 84.0469
L488.03 84.0469
L486.54 84.6229
L484.055 84.6229
L483.558 85.0069
L483.062 85.0069
L482.565 85.3909
L482.068 85.3909
L481.571 85.7749
L481.074 85.7749
L480.577 85.5829
L480.08 85.5829
L479.086 86.3509
L478.59 86.5429
L478.093 87.1189
L477.596 87.5029
L476.105 87.3109
L475.608 87.6949
L474.615 88.0789
L474.118 88.0789
L473.621 88.2709
L473.124 88.2709
L471.136 89.0389
L470.143 89.2309
L469.646 89.6149
L469.149 89.6149
L468.652 89.8069
L468.155 89.6149
L467.658 89.6149
L466.664 89.9989
L466.168 89.9989
L465.174 90.3829
L464.677 90.1909
L464.18 90.1909
L463.186 90.5749
L462.689 90.5749
L462.192 90.7669
L461.696 90.7669
L460.205 91.3429
L459.708 92.1109
L459.211 92.1109
L458.714 92.3029
L458.217 92.8789
L456.727 93.2629
L455.733 93.6469
L454.739 93.6469
L454.242 93.8389
L453.745 93.8389
L452.255 94.4149
L451.758 94.2229
L451.261 94.4149
L450.764 94.4149
L449.77 95.5669
L449.273 95.5669
L448.777 95.7589
L448.28 95.5669
L447.783 95.7589
L447.286 96.1429
L446.789 96.3349
L438.839 100.751
L413.001 113.231
L405.051 119.375
L393.623 123.215
L390.641 125.135
L388.654 126.863
L378.219 130.511
L367.288 133.775
L364.803 134.351
L360.828 136.079
L357.35 137.039
L356.853 137.039
L352.381 137.807
L351.387 138.575
L349.4 138.767
L343.437 140.879
L337.475 145.103
L335.984 145.679
L333.997 146.639
L332.009 141.839
L329.525 143.567
L327.537 144.719
L319.587 148.367
L317.103 149.711
L313.127 150.863
L304.68 155.663
L300.208 156.623
L296.233 157.775
L287.786 160.655
L287.29 160.655
L286.793 160.847
L286.296 161.231
L285.799 161.999
L285.302 162.383
L284.308 162.383
L283.314 162.767
L281.824 162.959
L281.327 163.151
L280.333 163.151
L279.836 163.727
L279.339 163.727
L278.842 164.111
L276.855 164.111
L271.389 165.839
L270.395 165.839
L269.402 166.223
L268.905 166.607
L268.408 166.799
L266.917 167.567
L265.924 167.567
L261.948 168.143
L261.452 168.527
L259.464 168.911
L255.489 170.255
L254.992 170.447
L254.495 171.023
L253.501 171.407
L252.508 171.407
L252.011 171.791
L250.023 172.175
L249.526 172.559
L249.029 172.751
L248.533 172.751
L247.042 174.287
L246.048 174.671
L244.061 175.055
L243.067 175.631
L242.073 175.823
L239.092 176.015
L238.595 176.591
L237.601 176.591
L231.639 177.359
L231.142 177.743
L230.645 177.551
L230.148 177.935
L229.154 177.935
L228.657 178.319
L225.676 178.511
L224.682 178.895
L224.185 178.895
L223.688 179.279
L222.695 179.279
L220.21 181.007
L217.726 181.199
L215.241 181.199
L213.751 181.583
L213.254 181.583
L211.266 182.735
L210.769 182.159
L210.273 182.159
L208.285 183.695
L207.788 183.887
L207.291 184.463
L206.298 185.039
L205.304 185.039
L204.807 185.231
L204.31 185.807
L203.813 185.807
L203.316 185.999
L201.826 186.191
L201.329 186.191
L200.832 187.343
L200.335 187.343
L199.838 187.727
L197.851 189.071
L194.372 190.415
L192.882 190.799
L191.888 191.567
L188.41 192.335
L187.416 192.719
L184.932 192.719
L183.938 193.487
L183.441 193.679
L181.95 193.871
L180.956 194.639
L179.963 194.639
L179.466 194.831
L178.969 195.215
L177.975 195.215
L174.994 195.407
L173.006 196.367
L172.509 196.367
L172.013 196.943
L171.516 196.943
L171.019 197.135
L170.522 197.135
L170.025 197.519
L167.541 198.671
L166.05 198.671
L165.056 199.055
L163.566 199.055
L163.069 199.247
L162.572 199.247
L162.075 199.439
L161.578 199.823
L161.081 199.823
L160.584 200.015
L160.087 200.015
L159.59 200.207
L158.597 200.207
L157.603 200.975
L156.112 200.975
L155.119 201.359
L154.622 201.359
L154.125 201.743
L153.131 201.743
L152.634 201.935
L152.137 202.319
L151.64 202.319
L150.15 202.703
L149.653 203.087
L148.659 203.087
L147.665 203.855
L147.168 203.855
L146.672 204.047
L145.181 203.855
L144.684 204.047
L143.69 204.047
L143.193 204.239
L142.696 204.239
L141.206 204.431
L140.709 204.431
L140.212 205.967
L139.218 205.967
L138.721 206.351
L137.728 206.735
L136.237 207.887
L133.256 207.887
L132.262 208.271
L131.765 208.847
L130.771 209.231
L130.274 209.231
L129.777 209.615
L129.281 210.191
L128.287 210.191
L127.79 210.383
L127.293 210.383
L126.299 210.959
L125.306 210.959
L124.312 211.343
L123.815 211.919
L123.815 211.919" style="fill:none;stroke:#0000ff;stroke-linecap:square;stroke-width:2;"/>
   </g>
   <g id="line2d_4">
    <path clip-path="url(#pd39b4832ff)" d="
M614.239 27.7909
L613.742 28.3669
L613.245 28.7509
L612.251 29.1349
L611.754 29.1349
L611.257 29.5189
L610.761 30.0949
L610.264 30.0949
L609.27 30.4789
L608.773 30.4789
L608.276 31.0549
L607.779 31.0549
L604.301 33.1669
L603.804 33.7429
L603.307 33.5509
L602.81 33.5509
L602.314 33.7429
L601.817 34.3189
L601.32 34.7029
L600.823 34.5109
L600.326 34.8949
L599.829 35.8549
L599.332 35.8549
L598.338 36.2389
L597.345 36.2389
L596.848 36.6229
L596.351 36.6229
L595.854 37.0069
L595.357 37.5829
L594.86 37.1989
L594.363 37.1989
L593.867 37.5829
L593.37 38.7349
L592.873 38.9269
L592.376 38.7349
L591.879 38.9269
L591.382 38.7349
L590.885 39.3109
L590.388 39.5029
L589.395 39.3109
L586.91 39.1189
L586.413 39.8869
L585.42 40.8469
L584.923 41.8069
L584.426 41.9989
L583.929 42.3829
L582.935 42.5749
L582.438 42.9589
L578.463 43.3429
L560.078 50.8309
L557.594 50.8309
L557.097 51.7909
L556.103 51.7909
L554.116 52.5589
L552.625 52.5589
L552.128 53.3269
L549.644 53.7109
L549.147 54.8629
L548.153 55.2469
L547.656 56.3989
L546.166 56.3989
L545.669 56.5909
L544.178 57.9349
L543.184 57.9349
L542.688 59.0869
L540.203 57.9349
L539.706 57.9349
L539.209 58.1269
L538.712 58.1269
L538.216 57.9349
L537.719 58.1269
L536.228 58.8949
L534.737 59.0869
L534.241 59.0869
L533.247 59.2789
L532.75 59.0869
L531.756 59.4709
L530.762 60.2389
L530.265 61.1989
L529.272 60.8149
L528.278 61.1989
L527.781 61.9669
L527.284 62.1589
L526.787 62.7349
L526.29 63.6949
L525.794 64.0789
L524.303 64.2709
L523.806 65.8069
L517.843 68.1109
L517.346 68.1109
L516.353 68.8789
L515.359 68.8789
L514.365 70.2229
L513.371 70.2229
L512.875 70.4149
L512.378 70.7989
L511.384 71.1829
L510.887 71.9509
L510.39 71.9509
L509.893 72.1429
L509.396 72.5269
L508.403 72.9109
L507.906 73.4869
L507.409 74.2549
L506.912 74.2549
L506.415 74.6389
L505.918 74.8309
L505.421 72.3349
L504.428 72.1429
L503.931 72.3349
L502.937 73.1029
L502.44 73.2949
L501.943 75.4069
L501.446 76.1749
L499.956 76.7509
L499.459 77.3269
L498.962 77.1349
L498.465 77.1349
L497.968 75.7909
L497.471 76.1749
L496.974 76.9429
L496.477 76.9429
L495.981 77.5189
L495.484 77.7109
L494.987 77.5189
L492.999 78.2869
L492.005 78.8629
L491.509 79.6309
L491.012 79.6309
L490.515 80.0149
L490.018 80.0149
L488.527 80.5909
L488.03 80.5909
L487.037 81.5509
L486.54 81.5509
L486.043 81.7429
L485.546 81.5509
L484.055 81.5509
L483.558 81.9349
L483.062 83.2789
L482.565 82.3189
L482.068 82.5109
L481.571 82.8949
L480.577 83.2789
L480.08 83.2789
L479.086 84.8149
L478.59 84.8149
L478.093 85.3909
L477.596 85.7749
L476.105 85.5829
L475.608 85.9669
L475.111 86.5429
L474.615 86.7349
L474.118 86.7349
L473.621 86.9269
L473.124 86.9269
L472.627 87.1189
L472.13 87.5029
L471.633 87.5029
L471.136 87.6949
L470.143 87.8869
L469.646 88.4629
L468.652 88.4629
L468.155 88.2709
L467.161 88.6549
L466.168 88.6549
L465.671 88.8469
L465.174 88.8469
L464.677 89.0389
L464.18 89.0389
L462.192 89.8069
L461.696 89.8069
L460.702 90.5749
L460.205 90.5749
L459.708 91.3429
L459.211 91.3429
L458.714 91.5349
L458.217 91.9189
L455.733 92.8789
L454.739 92.8789
L454.242 93.0709
L453.745 93.0709
L452.752 93.4549
L452.255 93.4549
L451.758 93.6469
L451.261 93.4549
L450.764 93.6469
L449.77 94.7989
L448.28 94.7989
L447.783 94.9909
L447.286 95.3749
L446.789 95.5669
L413.001 113.423
L405.051 119.375
L393.623 123.407
L390.641 125.135
L388.654 126.863
L378.219 130.703
L367.288 133.775
L364.803 134.351
L361.325 135.503
L360.828 135.887
L357.35 136.847
L356.853 136.847
L356.853 136.847" style="fill:none;stroke:#000000;stroke-linecap:square;stroke-width:2;"/>
   </g>
   <g id="line2d_5">
    <path clip-path="url(#pd39b4832ff)" d="
M614.239 28.7509
L613.742 29.1349
L613.245 29.3269
L612.251 30.0949
L611.754 29.9029
L611.257 30.6709
L610.761 30.4789
L610.264 30.6709
L609.767 31.0549
L609.27 31.4389
L608.773 31.4389
L608.276 31.4389
L607.779 32.0149
L604.301 34.1269
L603.804 34.1269
L603.307 34.7029
L602.81 34.5109
L602.314 34.3189
L601.817 35.0869
L601.32 35.0869
L600.823 35.2789
L600.326 35.8549
L599.829 36.6229
L599.332 36.8149
L598.835 37.5829
L598.338 37.0069
L597.842 37.0069
L597.345 37.0069
L596.848 37.3909
L596.351 37.3909
L595.854 37.9669
L595.357 38.1589
L594.86 38.1589
L594.363 38.3509
L593.867 38.5429
L593.37 40.2709
L592.873 39.6949
L592.376 39.8869
L591.879 40.0789
L591.382 39.3109
L590.885 39.6949
L590.388 39.8869
L589.395 40.2709
L587.407 39.8869
L586.91 40.0789
L586.413 40.6549
L585.42 41.4229
L584.923 42.9589
L584.426 42.9589
L583.929 43.3429
L582.935 43.5349
L582.438 43.7269
L578.463 44.3029
L560.078 51.7909
L559.582 51.7909
L559.085 51.7909
L558.588 51.7909
L558.091 51.7909
L557.594 51.7909
L557.097 52.7509
L556.103 52.9429
L554.116 53.3269
L552.625 53.5189
L552.128 54.2869
L549.644 54.2869
L549.147 55.6309
L548.65 55.8229
L548.153 56.0149
L547.656 57.1669
L547.159 57.1669
L546.166 57.1669
L545.669 57.5509
L544.178 58.5109
L543.681 58.5109
L543.184 58.7029
L542.688 59.4709
L540.203 58.7029
L539.706 58.8949
L539.209 58.7029
L538.712 58.7029
L538.216 58.7029
L537.719 58.7029
L536.228 59.6629
L535.234 59.8549
L534.737 59.8549
L534.241 59.8549
L533.247 59.8549
L532.75 59.8549
L531.756 60.2389
L530.762 61.0069
L530.265 61.5829
L529.272 61.5829
L528.278 61.9669
L527.781 62.5429
L527.284 62.5429
L526.787 63.3109
L526.29 64.2709
L525.794 64.8469
L524.8 64.8469
L524.303 64.8469
L523.806 66.5749
L518.837 68.8789
L517.843 69.0709
L517.346 69.0709
L516.85 69.4549
L516.353 69.8389
L515.856 69.8389
L515.359 69.8389
L514.862 70.6069
L514.365 71.1829
L513.371 71.1829
L512.875 71.1829
L512.378 71.7589
L511.881 71.9509
L511.384 72.1429
L510.887 72.9109
L510.39 73.1029
L509.893 73.2949
L509.396 73.4869
L508.899 73.6789
L508.403 73.8709
L507.906 74.4469
L507.409 75.0229" style="fill:none;stroke:#bfbf00;stroke-linecap:square;stroke-width:2;"/>
   </g>
   <g id="line2d_6">
    <path clip-path="url(#pd39b4832ff)" d="
M127.293 243.407
L127.293 13.0069" style="fill:none;stroke:#333333;stroke-linecap:square;"/>
   </g>
   <g id="line2d_7">
    <path clip-path="url(#pd39b4832ff)" d="
M143.193 243.407
L143.193 13.0069" style="fill:none;stroke:#cccccc;stroke-linecap:square;"/>
   </g>
   <g id="line2d_8">
    <path clip-path="url(#pd39b4832ff)" d="
M158.1 243.407
L158.1 13.0069" style="fill:none;stroke:#cccccc;stroke-linecap:square;"/>
   </g>
   <g id="line2d_9">
    <path clip-path="url(#pd39b4832ff)" d="
M174.497 243.407
L174.497 13.0069" style="fill:none;stroke:#cccccc;stroke-linecap:square;"/>
   </g>
   <g id="line2d_10">
    <path clip-path="url(#pd39b4832ff)" d="
M190.894 243.407
L190.894 13.0069" style="fill:none;stroke:#cccccc;stroke-linecap:square;"/>
   </g>
   <g id="line2d_11">
    <path clip-path="url(#pd39b4832ff)" d="
M197.354 243.407
L197.354 13.0069" style="fill:none;stroke:#cccccc;stroke-linecap:square;"/>
   </g>
   <g id="line2d_12">
    <path clip-path="url(#pd39b4832ff)" d="
M217.229 243.407
L217.229 13.0069" style="fill:none;stroke:#cccccc;stroke-linecap:square;"/>
   </g>
   <g id="line2d_13">
    <path clip-path="url(#pd39b4832ff)" d="
M234.123 243.407
L234.123 13.0069" style="fill:none;stroke:#cccccc;stroke-linecap:square;"/>
   </g>
   <g id="line2d_14">
    <path clip-path="url(#pd39b4832ff)" d="
M253.005 243.407
L253.005 13.0069" style="fill:none;stroke:#cccccc;stroke-linecap:square;"/>
   </g>
   <g id="line2d_15">
    <path clip-path="url(#pd39b4832ff)" d="
M267.911 243.407
L267.911 13.0069" style="fill:none;stroke:#cccccc;stroke-linecap:square;"/>
   </g>
   <g id="line2d_16">
    <path clip-path="url(#pd39b4832ff)" d="
M280.333 243.407
L280.333 13.0069" style="fill:none;stroke:#cccccc;stroke-linecap:square;"/>
   </g>
   <g id="line2d_17">
    <path clip-path="url(#pd39b4832ff)" d="
M296.73 243.407
L296.73 13.0069" style="fill:none;stroke:#cccccc;stroke-linecap:square;"/>
   </g>
   <g id="line2d_18">
    <path clip-path="url(#pd39b4832ff)" d="
M341.947 243.407
L341.947 13.0069" style="fill:none;stroke:#cccccc;stroke-linecap:square;"/>
   </g>
   <g id="line2d_19">
    <path clip-path="url(#pd39b4832ff)" d="
M333.003 243.407
L333.003 13.0069" style="fill:none;stroke:#333333;stroke-linecap:square;"/>
   </g>
   <g id="line2d_20">
    <path clip-path="url(#pd39b4832ff)" d="
M348.406 243.407
L348.406 13.0069" style="fill:none;stroke:#cccccc;stroke-linecap:square;"/>
   </g>
   <g id="line2d_21">
    <path clip-path="url(#pd39b4832ff)" d="
M362.319 243.407
L362.319 13.0069" style="fill:none;stroke:#cccccc;stroke-linecap:square;"/>
   </g>
   <g id="line2d_22">
    <path clip-path="url(#pd39b4832ff)" d="
M380.704 243.407
L380.704 13.0069" style="fill:none;stroke:#cccccc;stroke-linecap:square;"/>
   </g>
   <g id="line2d_23">
    <path clip-path="url(#pd39b4832ff)" d="
M413.001 243.407
L413.001 13.0069" style="fill:none;stroke:#cccccc;stroke-linecap:square;"/>
   </g>
   <g id="line2d_24">
    <path clip-path="url(#pd39b4832ff)" d="
M459.708 243.407
L459.708 13.0069" style="fill:none;stroke:#cccccc;stroke-linecap:square;"/>
   </g>
   <g id="line2d_25">
    <path clip-path="url(#pd39b4832ff)" d="
M504.924 243.407
L504.924 13.0069" style="fill:none;stroke:#cccccc;stroke-linecap:square;"/>
   </g>
   <g id="line2d_26">
    <path clip-path="url(#pd39b4832ff)" d="
M505.421 243.407
L505.421 13.0069" style="fill:none;stroke:#333333;stroke-linecap:square;"/>
   </g>
   <g id="line2d_27">
    <path clip-path="url(#pd39b4832ff)" d="
M588.401 243.407
L588.401 13.0069" style="fill:none;stroke:#cccccc;stroke-linecap:square;"/>
   </g>
   <g id="matplotlib.axis_1">
    <g id="xtick_1">
     <g id="line2d_28">
      <defs>
       <path d="
M0 0
L0 -4" id="m93b0483c22" style="stroke:#000000;stroke-width:0.5;"/>
      </defs>
      <g>
       <use style="stroke:#000000;stroke-width:0.5;" x="102.44890138" xlink:href="#m93b0483c22" y="243.406875"/>
      </g>
     </g>
     <g id="line2d_29">
      <defs>
       <path d="
M0 0
L0 4" id="m741efc42ff" style="stroke:#000000;stroke-width:0.5;"/>
      </defs>
      <g>
       <use style="stroke:#000000;stroke-width:0.5;" x="102.44890138" xlink:href="#m741efc42ff" y="13.006875"/>
      </g>
     </g>
     <g id="text_1">
      <!-- Jul 2014 -->
      <defs>
       <path d="
M9.8125 72.9062
L19.6719 72.9062
L19.6719 5.07812
Q19.6719 -8.10938 14.6719 -14.0625
Q9.67188 -20.0156 -1.42188 -20.0156
L-5.17188 -20.0156
L-5.17188 -11.7188
L-2.09375 -11.7188
Q4.4375 -11.7188 7.125 -8.04688
Q9.8125 -4.39062 9.8125 5.07812
z
" id="DejaVuSans-4a"/>
       <path d="
M9.42188 75.9844
L18.4062 75.9844
L18.4062 0
L9.42188 0
z
" id="DejaVuSans-6c"/>
       <path d="
M12.4062 8.29688
L28.5156 8.29688
L28.5156 63.9219
L10.9844 60.4062
L10.9844 69.3906
L28.4219 72.9062
L38.2812 72.9062
L38.2812 8.29688
L54.3906 8.29688
L54.3906 0
L12.4062 0
z
" id="DejaVuSans-31"/>
       <path d="
M31.7812 66.4062
Q24.1719 66.4062 20.3281 58.9062
Q16.5 51.4219 16.5 36.375
Q16.5 21.3906 20.3281 13.8906
Q24.1719 6.39062 31.7812 6.39062
Q39.4531 6.39062 43.2812 13.8906
Q47.125 21.3906 47.125 36.375
Q47.125 51.4219 43.2812 58.9062
Q39.4531 66.4062 31.7812 66.4062
M31.7812 74.2188
Q44.0469 74.2188 50.5156 64.5156
Q56.9844 54.8281 56.9844 36.375
Q56.9844 17.9688 50.5156 8.26562
Q44.0469 -1.42188 31.7812 -1.42188
Q19.5312 -1.42188 13.0625 8.26562
Q6.59375 17.9688 6.59375 36.375
Q6.59375 54.8281 13.0625 64.5156
Q19.5312 74.2188 31.7812 74.2188" id="DejaVuSans-30"/>
       <path id="DejaVuSans-20"/>
       <path d="
M19.1875 8.29688
L53.6094 8.29688
L53.6094 0
L7.32812 0
L7.32812 8.29688
Q12.9375 14.1094 22.625 23.8906
Q32.3281 33.6875 34.8125 36.5312
Q39.5469 41.8438 41.4219 45.5312
Q43.3125 49.2188 43.3125 52.7812
Q43.3125 58.5938 39.2344 62.25
Q35.1562 65.9219 28.6094 65.9219
Q23.9688 65.9219 18.8125 64.3125
Q13.6719 62.7031 7.8125 59.4219
L7.8125 69.3906
Q13.7656 71.7812 18.9375 73
Q24.125 74.2188 28.4219 74.2188
Q39.75 74.2188 46.4844 68.5469
Q53.2188 62.8906 53.2188 53.4219
Q53.2188 48.9219 51.5312 44.8906
Q49.8594 40.875 45.4062 35.4062
Q44.1875 33.9844 37.6406 27.2188
Q31.1094 20.4531 19.1875 8.29688" id="DejaVuSans-32"/>
       <path d="
M37.7969 64.3125
L12.8906 25.3906
L37.7969 25.3906
z

M35.2031 72.9062
L47.6094 72.9062
L47.6094 25.3906
L58.0156 25.3906
L58.0156 17.1875
L47.6094 17.1875
L47.6094 0
L37.7969 0
L37.7969 17.1875
L4.89062 17.1875
L4.89062 26.7031
z
" id="DejaVuSans-34"/>
       <path d="
M8.5 21.5781
L8.5 54.6875
L17.4844 54.6875
L17.4844 21.9219
Q17.4844 14.1562 20.5 10.2656
Q23.5312 6.39062 29.5938 6.39062
Q36.8594 6.39062 41.0781 11.0312
Q45.3125 15.6719 45.3125 23.6875
L45.3125 54.6875
L54.2969 54.6875
L54.2969 0
L45.3125 0
L45.3125 8.40625
Q42.0469 3.42188 37.7188 1
Q33.4062 -1.42188 27.6875 -1.42188
Q18.2656 -1.42188 13.375 4.4375
Q8.5 10.2969 8.5 21.5781
M31.1094 56
z
" id="DejaVuSans-75"/>
      </defs>
      <g transform="translate(105.76015138 296.186875)rotate(-90.0)scale(0.12 -0.12)">
       <use xlink:href="#DejaVuSans-4a"/>
       <use x="29.4921875" xlink:href="#DejaVuSans-75"/>
       <use x="92.87109375" xlink:href="#DejaVuSans-6c"/>
       <use x="120.654296875" xlink:href="#DejaVuSans-20"/>
       <use x="152.44140625" xlink:href="#DejaVuSans-32"/>
       <use x="216.064453125" xlink:href="#DejaVuSans-30"/>
       <use x="279.6875" xlink:href="#DejaVuSans-31"/>
       <use x="343.310546875" xlink:href="#DejaVuSans-34"/>
      </g>
     </g>
    </g>
    <g id="xtick_2">
     <g id="line2d_30">
      <g>
       <use style="stroke:#000000;stroke-width:0.5;" x="163.565553206" xlink:href="#m93b0483c22" y="243.406875"/>
      </g>
     </g>
     <g id="line2d_31">
      <g>
       <use style="stroke:#000000;stroke-width:0.5;" x="163.565553206" xlink:href="#m741efc42ff" y="13.006875"/>
      </g>
     </g>
     <g id="text_2">
      <!-- Nov 2014 -->
      <defs>
       <path d="
M30.6094 48.3906
Q23.3906 48.3906 19.1875 42.75
Q14.9844 37.1094 14.9844 27.2969
Q14.9844 17.4844 19.1562 11.8438
Q23.3438 6.20312 30.6094 6.20312
Q37.7969 6.20312 41.9844 11.8594
Q46.1875 17.5312 46.1875 27.2969
Q46.1875 37.0156 41.9844 42.7031
Q37.7969 48.3906 30.6094 48.3906
M30.6094 56
Q42.3281 56 49.0156 48.375
Q55.7188 40.7656 55.7188 27.2969
Q55.7188 13.875 49.0156 6.21875
Q42.3281 -1.42188 30.6094 -1.42188
Q18.8438 -1.42188 12.1719 6.21875
Q5.51562 13.875 5.51562 27.2969
Q5.51562 40.7656 12.1719 48.375
Q18.8438 56 30.6094 56" id="DejaVuSans-6f"/>
       <path d="
M9.8125 72.9062
L23.0938 72.9062
L55.4219 11.9219
L55.4219 72.9062
L64.9844 72.9062
L64.9844 0
L51.7031 0
L19.3906 60.9844
L19.3906 0
L9.8125 0
z
" id="DejaVuSans-4e"/>
       <path d="
M2.98438 54.6875
L12.5 54.6875
L29.5938 8.79688
L46.6875 54.6875
L56.2031 54.6875
L35.6875 0
L23.4844 0
z
" id="DejaVuSans-76"/>
      </defs>
      <g transform="translate(166.876803206 304.51)rotate(-90.0)scale(0.12 -0.12)">
       <use xlink:href="#DejaVuSans-4e"/>
       <use x="74.8046875" xlink:href="#DejaVuSans-6f"/>
       <use x="135.986328125" xlink:href="#DejaVuSans-76"/>
       <use x="195.166015625" xlink:href="#DejaVuSans-20"/>
       <use x="226.953125" xlink:href="#DejaVuSans-32"/>
       <use x="290.576171875" xlink:href="#DejaVuSans-30"/>
       <use x="354.19921875" xlink:href="#DejaVuSans-31"/>
       <use x="417.822265625" xlink:href="#DejaVuSans-34"/>
      </g>
     </g>
    </g>
    <g id="xtick_3">
     <g id="line2d_32">
      <g>
       <use style="stroke:#000000;stroke-width:0.5;" x="223.191554987" xlink:href="#m93b0483c22" y="243.406875"/>
      </g>
     </g>
     <g id="line2d_33">
      <g>
       <use style="stroke:#000000;stroke-width:0.5;" x="223.191554987" xlink:href="#m741efc42ff" y="13.006875"/>
      </g>
     </g>
     <g id="text_3">
      <!-- Mar 2015 -->
      <defs>
       <path d="
M9.8125 72.9062
L24.5156 72.9062
L43.1094 23.2969
L61.8125 72.9062
L76.5156 72.9062
L76.5156 0
L66.8906 0
L66.8906 64.0156
L48.0938 14.0156
L38.1875 14.0156
L19.3906 64.0156
L19.3906 0
L9.8125 0
z
" id="DejaVuSans-4d"/>
       <path d="
M41.1094 46.2969
Q39.5938 47.1719 37.8125 47.5781
Q36.0312 48 33.8906 48
Q26.2656 48 22.1875 43.0469
Q18.1094 38.0938 18.1094 28.8125
L18.1094 0
L9.07812 0
L9.07812 54.6875
L18.1094 54.6875
L18.1094 46.1875
Q20.9531 51.1719 25.4844 53.5781
Q30.0312 56 36.5312 56
Q37.4531 56 38.5781 55.875
Q39.7031 55.7656 41.0625 55.5156
z
" id="DejaVuSans-72"/>
       <path d="
M10.7969 72.9062
L49.5156 72.9062
L49.5156 64.5938
L19.8281 64.5938
L19.8281 46.7344
Q21.9688 47.4688 24.1094 47.8281
Q26.2656 48.1875 28.4219 48.1875
Q40.625 48.1875 47.75 41.5
Q54.8906 34.8125 54.8906 23.3906
Q54.8906 11.625 47.5625 5.09375
Q40.2344 -1.42188 26.9062 -1.42188
Q22.3125 -1.42188 17.5469 -0.640625
Q12.7969 0.140625 7.71875 1.70312
L7.71875 11.625
Q12.1094 9.23438 16.7969 8.0625
Q21.4844 6.89062 26.7031 6.89062
Q35.1562 6.89062 40.0781 11.3281
Q45.0156 15.7656 45.0156 23.3906
Q45.0156 31 40.0781 35.4375
Q35.1562 39.8906 26.7031 39.8906
Q22.75 39.8906 18.8125 39.0156
Q14.8906 38.1406 10.7969 36.2812
z
" id="DejaVuSans-35"/>
       <path d="
M34.2812 27.4844
Q23.3906 27.4844 19.1875 25
Q14.9844 22.5156 14.9844 16.5
Q14.9844 11.7188 18.1406 8.90625
Q21.2969 6.10938 26.7031 6.10938
Q34.1875 6.10938 38.7031 11.4062
Q43.2188 16.7031 43.2188 25.4844
L43.2188 27.4844
z

M52.2031 31.2031
L52.2031 0
L43.2188 0
L43.2188 8.29688
Q40.1406 3.32812 35.5469 0.953125
Q30.9531 -1.42188 24.3125 -1.42188
Q15.9219 -1.42188 10.9531 3.29688
Q6 8.01562 6 15.9219
Q6 25.1406 12.1719 29.8281
Q18.3594 34.5156 30.6094 34.5156
L43.2188 34.5156
L43.2188 35.4062
Q43.2188 41.6094 39.1406 45
Q35.0625 48.3906 27.6875 48.3906
Q23 48.3906 18.5469 47.2656
Q14.1094 46.1406 10.0156 43.8906
L10.0156 52.2031
Q14.9375 54.1094 19.5781 55.0469
Q24.2188 56 28.6094 56
Q40.4844 56 46.3438 49.8438
Q52.2031 43.7031 52.2031 31.2031" id="DejaVuSans-61"/>
      </defs>
      <g transform="translate(226.502804987 303.353125)rotate(-90.0)scale(0.12 -0.12)">
       <use xlink:href="#DejaVuSans-4d"/>
       <use x="86.279296875" xlink:href="#DejaVuSans-61"/>
       <use x="147.55859375" xlink:href="#DejaVuSans-72"/>
       <use x="188.671875" xlink:href="#DejaVuSans-20"/>
       <use x="220.458984375" xlink:href="#DejaVuSans-32"/>
       <use x="284.08203125" xlink:href="#DejaVuSans-30"/>
       <use x="347.705078125" xlink:href="#DejaVuSans-31"/>
       <use x="411.328125" xlink:href="#DejaVuSans-35"/>
      </g>
     </g>
    </g>
    <g id="xtick_4">
     <g id="line2d_34">
      <g>
       <use style="stroke:#000000;stroke-width:0.5;" x="283.811323464" xlink:href="#m93b0483c22" y="243.406875"/>
      </g>
     </g>
     <g id="line2d_35">
      <g>
       <use style="stroke:#000000;stroke-width:0.5;" x="283.811323464" xlink:href="#m741efc42ff" y="13.006875"/>
      </g>
     </g>
     <g id="text_4">
      <!-- Jul 2015 -->
      <g transform="translate(287.122573464 295.811875)rotate(-90.0)scale(0.12 -0.12)">
       <use xlink:href="#DejaVuSans-4a"/>
       <use x="29.4921875" xlink:href="#DejaVuSans-75"/>
       <use x="92.87109375" xlink:href="#DejaVuSans-6c"/>
       <use x="120.654296875" xlink:href="#DejaVuSans-20"/>
       <use x="152.44140625" xlink:href="#DejaVuSans-32"/>
       <use x="216.064453125" xlink:href="#DejaVuSans-30"/>
       <use x="279.6875" xlink:href="#DejaVuSans-31"/>
       <use x="343.310546875" xlink:href="#DejaVuSans-35"/>
      </g>
     </g>
    </g>
    <g id="xtick_5">
     <g id="line2d_36">
      <g>
       <use style="stroke:#000000;stroke-width:0.5;" x="344.927975289" xlink:href="#m93b0483c22" y="243.406875"/>
      </g>
     </g>
     <g id="line2d_37">
      <g>
       <use style="stroke:#000000;stroke-width:0.5;" x="344.927975289" xlink:href="#m741efc42ff" y="13.006875"/>
      </g>
     </g>
     <g id="text_5">
      <!-- Nov 2015 -->
      <g transform="translate(348.239225289 304.135)rotate(-90.0)scale(0.12 -0.12)">
       <use xlink:href="#DejaVuSans-4e"/>
       <use x="74.8046875" xlink:href="#DejaVuSans-6f"/>
       <use x="135.986328125" xlink:href="#DejaVuSans-76"/>
       <use x="195.166015625" xlink:href="#DejaVuSans-20"/>
       <use x="226.953125" xlink:href="#DejaVuSans-32"/>
       <use x="290.576171875" xlink:href="#DejaVuSans-30"/>
       <use x="354.19921875" xlink:href="#DejaVuSans-31"/>
       <use x="417.822265625" xlink:href="#DejaVuSans-35"/>
      </g>
     </g>
    </g>
    <g id="xtick_6">
     <g id="line2d_38">
      <g>
       <use style="stroke:#000000;stroke-width:0.5;" x="405.050860419" xlink:href="#m93b0483c22" y="243.406875"/>
      </g>
     </g>
     <g id="line2d_39">
      <g>
       <use style="stroke:#000000;stroke-width:0.5;" x="405.050860419" xlink:href="#m741efc42ff" y="13.006875"/>
      </g>
     </g>
     <g id="text_6">
      <!-- Mar 2016 -->
      <defs>
       <path d="
M33.0156 40.375
Q26.375 40.375 22.4844 35.8281
Q18.6094 31.2969 18.6094 23.3906
Q18.6094 15.5312 22.4844 10.9531
Q26.375 6.39062 33.0156 6.39062
Q39.6562 6.39062 43.5312 10.9531
Q47.4062 15.5312 47.4062 23.3906
Q47.4062 31.2969 43.5312 35.8281
Q39.6562 40.375 33.0156 40.375
M52.5938 71.2969
L52.5938 62.3125
Q48.875 64.0625 45.0938 64.9844
Q41.3125 65.9219 37.5938 65.9219
Q27.8281 65.9219 22.6719 59.3281
Q17.5312 52.7344 16.7969 39.4062
Q19.6719 43.6562 24.0156 45.9219
Q28.375 48.1875 33.5938 48.1875
Q44.5781 48.1875 50.9531 41.5156
Q57.3281 34.8594 57.3281 23.3906
Q57.3281 12.1562 50.6875 5.35938
Q44.0469 -1.42188 33.0156 -1.42188
Q20.3594 -1.42188 13.6719 8.26562
Q6.98438 17.9688 6.98438 36.375
Q6.98438 53.6562 15.1875 63.9375
Q23.3906 74.2188 37.2031 74.2188
Q40.9219 74.2188 44.7031 73.4844
Q48.4844 72.75 52.5938 71.2969" id="DejaVuSans-36"/>
      </defs>
      <g transform="translate(408.362110419 303.645625)rotate(-90.0)scale(0.12 -0.12)">
       <use xlink:href="#DejaVuSans-4d"/>
       <use x="86.279296875" xlink:href="#DejaVuSans-61"/>
       <use x="147.55859375" xlink:href="#DejaVuSans-72"/>
       <use x="188.671875" xlink:href="#DejaVuSans-20"/>
       <use x="220.458984375" xlink:href="#DejaVuSans-32"/>
       <use x="284.08203125" xlink:href="#DejaVuSans-30"/>
       <use x="347.705078125" xlink:href="#DejaVuSans-31"/>
       <use x="411.328125" xlink:href="#DejaVuSans-36"/>
      </g>
     </g>
    </g>
    <g id="xtick_7">
     <g id="line2d_40">
      <g>
       <use style="stroke:#000000;stroke-width:0.5;" x="465.670628896" xlink:href="#m93b0483c22" y="243.406875"/>
      </g>
     </g>
     <g id="line2d_41">
      <g>
       <use style="stroke:#000000;stroke-width:0.5;" x="465.670628896" xlink:href="#m741efc42ff" y="13.006875"/>
      </g>
     </g>
     <g id="text_7">
      <!-- Jul 2016 -->
      <g transform="translate(468.981878896 296.104375)rotate(-90.0)scale(0.12 -0.12)">
       <use xlink:href="#DejaVuSans-4a"/>
       <use x="29.4921875" xlink:href="#DejaVuSans-75"/>
       <use x="92.87109375" xlink:href="#DejaVuSans-6c"/>
       <use x="120.654296875" xlink:href="#DejaVuSans-20"/>
       <use x="152.44140625" xlink:href="#DejaVuSans-32"/>
       <use x="216.064453125" xlink:href="#DejaVuSans-30"/>
       <use x="279.6875" xlink:href="#DejaVuSans-31"/>
       <use x="343.310546875" xlink:href="#DejaVuSans-36"/>
      </g>
     </g>
    </g>
    <g id="xtick_8">
     <g id="line2d_42">
      <g>
       <use style="stroke:#000000;stroke-width:0.5;" x="526.787280721" xlink:href="#m93b0483c22" y="243.406875"/>
      </g>
     </g>
     <g id="line2d_43">
      <g>
       <use style="stroke:#000000;stroke-width:0.5;" x="526.787280721" xlink:href="#m741efc42ff" y="13.006875"/>
      </g>
     </g>
     <g id="text_8">
      <!-- Nov 2016 -->
      <g transform="translate(530.098530721 304.4275)rotate(-90.0)scale(0.12 -0.12)">
       <use xlink:href="#DejaVuSans-4e"/>
       <use x="74.8046875" xlink:href="#DejaVuSans-6f"/>
       <use x="135.986328125" xlink:href="#DejaVuSans-76"/>
       <use x="195.166015625" xlink:href="#DejaVuSans-20"/>
       <use x="226.953125" xlink:href="#DejaVuSans-32"/>
       <use x="290.576171875" xlink:href="#DejaVuSans-30"/>
       <use x="354.19921875" xlink:href="#DejaVuSans-31"/>
       <use x="417.822265625" xlink:href="#DejaVuSans-36"/>
      </g>
     </g>
    </g>
    <g id="xtick_9">
     <g id="line2d_44">
      <g>
       <use style="stroke:#000000;stroke-width:0.5;" x="586.413282502" xlink:href="#m93b0483c22" y="243.406875"/>
      </g>
     </g>
     <g id="line2d_45">
      <g>
       <use style="stroke:#000000;stroke-width:0.5;" x="586.413282502" xlink:href="#m741efc42ff" y="13.006875"/>
      </g>
     </g>
     <g id="text_9">
      <!-- Mar 2017 -->
      <defs>
       <path d="
M8.20312 72.9062
L55.0781 72.9062
L55.0781 68.7031
L28.6094 0
L18.3125 0
L43.2188 64.5938
L8.20312 64.5938
z
" id="DejaVuSans-37"/>
      </defs>
      <g transform="translate(589.724532502 303.375625)rotate(-90.0)scale(0.12 -0.12)">
       <use xlink:href="#DejaVuSans-4d"/>
       <use x="86.279296875" xlink:href="#DejaVuSans-61"/>
       <use x="147.55859375" xlink:href="#DejaVuSans-72"/>
       <use x="188.671875" xlink:href="#DejaVuSans-20"/>
       <use x="220.458984375" xlink:href="#DejaVuSans-32"/>
       <use x="284.08203125" xlink:href="#DejaVuSans-30"/>
       <use x="347.705078125" xlink:href="#DejaVuSans-31"/>
       <use x="411.328125" xlink:href="#DejaVuSans-37"/>
      </g>
     </g>
    </g>
   </g>
   <g id="matplotlib.axis_2">
    <g id="ytick_1">
     <g id="line2d_46">
      <defs>
       <path d="
M0 0
L4 0" id="m728421d6d4" style="stroke:#000000;stroke-width:0.5;"/>
      </defs>
      <g>
       <use style="stroke:#000000;stroke-width:0.5;" x="56.23875" xlink:href="#m728421d6d4" y="243.406875"/>
      </g>
     </g>
     <g id="line2d_47">
      <defs>
       <path d="
M0 0
L-4 0" id="mcb0005524f" style="stroke:#000000;stroke-width:0.5;"/>
      </defs>
      <g>
       <use style="stroke:#000000;stroke-width:0.5;" x="614.23875" xlink:href="#mcb0005524f" y="243.406875"/>
      </g>
     </g>
     <g id="text_10">
      <!-- 200 -->
      <g transform="translate(31.01 246.718125)scale(0.12 -0.12)">
       <use xlink:href="#DejaVuSans-32"/>
       <use x="63.623046875" xlink:href="#DejaVuSans-30"/>
       <use x="127.24609375" xlink:href="#DejaVuSans-30"/>
      </g>
     </g>
    </g>
    <g id="ytick_2">
     <g id="line2d_48">
      <g>
       <use style="stroke:#000000;stroke-width:0.5;" x="56.23875" xlink:href="#m728421d6d4" y="205.006875"/>
      </g>
     </g>
     <g id="line2d_49">
      <g>
       <use style="stroke:#000000;stroke-width:0.5;" x="614.23875" xlink:href="#mcb0005524f" y="205.006875"/>
      </g>
     </g>
     <g id="text_11">
      <!-- 400 -->
      <g transform="translate(30.7175 208.318125)scale(0.12 -0.12)">
       <use xlink:href="#DejaVuSans-34"/>
       <use x="63.623046875" xlink:href="#DejaVuSans-30"/>
       <use x="127.24609375" xlink:href="#DejaVuSans-30"/>
      </g>
     </g>
    </g>
    <g id="ytick_3">
     <g id="line2d_50">
      <g>
       <use style="stroke:#000000;stroke-width:0.5;" x="56.23875" xlink:href="#m728421d6d4" y="166.606875"/>
      </g>
     </g>
     <g id="line2d_51">
      <g>
       <use style="stroke:#000000;stroke-width:0.5;" x="614.23875" xlink:href="#mcb0005524f" y="166.606875"/>
      </g>
     </g>
     <g id="text_12">
      <!-- 600 -->
      <g transform="translate(30.96875 169.918125)scale(0.12 -0.12)">
       <use xlink:href="#DejaVuSans-36"/>
       <use x="63.623046875" xlink:href="#DejaVuSans-30"/>
       <use x="127.24609375" xlink:href="#DejaVuSans-30"/>
      </g>
     </g>
    </g>
    <g id="ytick_4">
     <g id="line2d_52">
      <g>
       <use style="stroke:#000000;stroke-width:0.5;" x="56.23875" xlink:href="#m728421d6d4" y="128.206875"/>
      </g>
     </g>
     <g id="line2d_53">
      <g>
       <use style="stroke:#000000;stroke-width:0.5;" x="614.23875" xlink:href="#mcb0005524f" y="128.206875"/>
      </g>
     </g>
     <g id="text_13">
      <!-- 800 -->
      <defs>
       <path d="
M31.7812 34.625
Q24.75 34.625 20.7188 30.8594
Q16.7031 27.0938 16.7031 20.5156
Q16.7031 13.9219 20.7188 10.1562
Q24.75 6.39062 31.7812 6.39062
Q38.8125 6.39062 42.8594 10.1719
Q46.9219 13.9688 46.9219 20.5156
Q46.9219 27.0938 42.8906 30.8594
Q38.875 34.625 31.7812 34.625
M21.9219 38.8125
Q15.5781 40.375 12.0312 44.7188
Q8.5 49.0781 8.5 55.3281
Q8.5 64.0625 14.7188 69.1406
Q20.9531 74.2188 31.7812 74.2188
Q42.6719 74.2188 48.875 69.1406
Q55.0781 64.0625 55.0781 55.3281
Q55.0781 49.0781 51.5312 44.7188
Q48 40.375 41.7031 38.8125
Q48.8281 37.1562 52.7969 32.3125
Q56.7812 27.4844 56.7812 20.5156
Q56.7812 9.90625 50.3125 4.23438
Q43.8438 -1.42188 31.7812 -1.42188
Q19.7344 -1.42188 13.25 4.23438
Q6.78125 9.90625 6.78125 20.5156
Q6.78125 27.4844 10.7812 32.3125
Q14.7969 37.1562 21.9219 38.8125
M18.3125 54.3906
Q18.3125 48.7344 21.8438 45.5625
Q25.3906 42.3906 31.7812 42.3906
Q38.1406 42.3906 41.7188 45.5625
Q45.3125 48.7344 45.3125 54.3906
Q45.3125 60.0625 41.7188 63.2344
Q38.1406 66.4062 31.7812 66.4062
Q25.3906 66.4062 21.8438 63.2344
Q18.3125 60.0625 18.3125 54.3906" id="DejaVuSans-38"/>
      </defs>
      <g transform="translate(30.944375 131.518125)scale(0.12 -0.12)">
       <use xlink:href="#DejaVuSans-38"/>
       <use x="63.623046875" xlink:href="#DejaVuSans-30"/>
       <use x="127.24609375" xlink:href="#DejaVuSans-30"/>
      </g>
     </g>
    </g>
    <g id="ytick_5">
     <g id="line2d_54">
      <g>
       <use style="stroke:#000000;stroke-width:0.5;" x="56.23875" xlink:href="#m728421d6d4" y="89.806875"/>
      </g>
     </g>
     <g id="line2d_55">
      <g>
       <use style="stroke:#000000;stroke-width:0.5;" x="614.23875" xlink:href="#mcb0005524f" y="89.806875"/>
      </g>
     </g>
     <g id="text_14">
      <!-- 1000 -->
      <g transform="translate(23.81375 93.118125)scale(0.12 -0.12)">
       <use xlink:href="#DejaVuSans-31"/>
       <use x="63.623046875" xlink:href="#DejaVuSans-30"/>
       <use x="127.24609375" xlink:href="#DejaVuSans-30"/>
       <use x="190.869140625" xlink:href="#DejaVuSans-30"/>
      </g>
     </g>
    </g>
    <g id="ytick_6">
     <g id="line2d_56">
      <g>
       <use style="stroke:#000000;stroke-width:0.5;" x="56.23875" xlink:href="#m728421d6d4" y="51.406875"/>
      </g>
     </g>
     <g id="line2d_57">
      <g>
       <use style="stroke:#000000;stroke-width:0.5;" x="614.23875" xlink:href="#mcb0005524f" y="51.406875"/>
      </g>
     </g>
     <g id="text_15">
      <!-- 1200 -->
      <g transform="translate(23.81375 54.718125)scale(0.12 -0.12)">
       <use xlink:href="#DejaVuSans-31"/>
       <use x="63.623046875" xlink:href="#DejaVuSans-32"/>
       <use x="127.24609375" xlink:href="#DejaVuSans-30"/>
       <use x="190.869140625" xlink:href="#DejaVuSans-30"/>
      </g>
     </g>
    </g>
    <g id="ytick_7">
     <g id="line2d_58">
      <g>
       <use style="stroke:#000000;stroke-width:0.5;" x="56.23875" xlink:href="#m728421d6d4" y="13.006875"/>
      </g>
     </g>
     <g id="line2d_59">
      <g>
       <use style="stroke:#000000;stroke-width:0.5;" x="614.23875" xlink:href="#mcb0005524f" y="13.006875"/>
      </g>
     </g>
     <g id="text_16">
      <!-- 1400 -->
      <g transform="translate(23.81375 16.318125)scale(0.12 -0.12)">
       <use xlink:href="#DejaVuSans-31"/>
       <use x="63.623046875" xlink:href="#DejaVuSans-34"/>
       <use x="127.24609375" xlink:href="#DejaVuSans-30"/>
       <use x="190.869140625" xlink:href="#DejaVuSans-30"/>
      </g>
     </g>
    </g>
    <g id="text_17">
     <!-- Number of Tagged Packages -->
     <defs>
      <path d="
M19.6719 64.7969
L19.6719 37.4062
L32.0781 37.4062
Q38.9688 37.4062 42.7188 40.9688
Q46.4844 44.5312 46.4844 51.125
Q46.4844 57.6719 42.7188 61.2344
Q38.9688 64.7969 32.0781 64.7969
z

M9.8125 72.9062
L32.0781 72.9062
Q44.3438 72.9062 50.6094 67.3594
Q56.8906 61.8125 56.8906 51.125
Q56.8906 40.3281 50.6094 34.8125
Q44.3438 29.2969 32.0781 29.2969
L19.6719 29.2969
L19.6719 0
L9.8125 0
z
" id="DejaVuSans-50"/>
      <path d="
M52 44.1875
Q55.375 50.25 60.0625 53.125
Q64.75 56 71.0938 56
Q79.6406 56 84.2812 50.0156
Q88.9219 44.0469 88.9219 33.0156
L88.9219 0
L79.8906 0
L79.8906 32.7188
Q79.8906 40.5781 77.0938 44.375
Q74.3125 48.1875 68.6094 48.1875
Q61.625 48.1875 57.5625 43.5469
Q53.5156 38.9219 53.5156 30.9062
L53.5156 0
L44.4844 0
L44.4844 32.7188
Q44.4844 40.625 41.7031 44.4062
Q38.9219 48.1875 33.1094 48.1875
Q26.2188 48.1875 22.1562 43.5312
Q18.1094 38.875 18.1094 30.9062
L18.1094 0
L9.07812 0
L9.07812 54.6875
L18.1094 54.6875
L18.1094 46.1875
Q21.1875 51.2188 25.4844 53.6094
Q29.7812 56 35.6875 56
Q41.6562 56 45.8281 52.9688
Q50 49.9531 52 44.1875" id="DejaVuSans-6d"/>
      <path d="
M9.07812 75.9844
L18.1094 75.9844
L18.1094 31.1094
L44.9219 54.6875
L56.3906 54.6875
L27.3906 29.1094
L57.625 0
L45.9062 0
L18.1094 26.7031
L18.1094 0
L9.07812 0
z
" id="DejaVuSans-6b"/>
      <path d="
M37.1094 75.9844
L37.1094 68.5
L28.5156 68.5
Q23.6875 68.5 21.7969 66.5469
Q19.9219 64.5938 19.9219 59.5156
L19.9219 54.6875
L34.7188 54.6875
L34.7188 47.7031
L19.9219 47.7031
L19.9219 0
L10.8906 0
L10.8906 47.7031
L2.29688 47.7031
L2.29688 54.6875
L10.8906 54.6875
L10.8906 58.5
Q10.8906 67.625 15.1406 71.7969
Q19.3906 75.9844 28.6094 75.9844
z
" id="DejaVuSans-66"/>
      <path d="
M45.4062 27.9844
Q45.4062 37.75 41.375 43.1094
Q37.3594 48.4844 30.0781 48.4844
Q22.8594 48.4844 18.8281 43.1094
Q14.7969 37.75 14.7969 27.9844
Q14.7969 18.2656 18.8281 12.8906
Q22.8594 7.51562 30.0781 7.51562
Q37.3594 7.51562 41.375 12.8906
Q45.4062 18.2656 45.4062 27.9844
M54.3906 6.78125
Q54.3906 -7.17188 48.1875 -13.9844
Q42 -20.7969 29.2031 -20.7969
Q24.4688 -20.7969 20.2656 -20.0938
Q16.0625 -19.3906 12.1094 -17.9219
L12.1094 -9.1875
Q16.0625 -11.3281 19.9219 -12.3438
Q23.7812 -13.375 27.7812 -13.375
Q36.625 -13.375 41.0156 -8.76562
Q45.4062 -4.15625 45.4062 5.17188
L45.4062 9.625
Q42.625 4.78125 38.2812 2.39062
Q33.9375 0 27.875 0
Q17.8281 0 11.6719 7.65625
Q5.51562 15.3281 5.51562 27.9844
Q5.51562 40.6719 11.6719 48.3281
Q17.8281 56 27.875 56
Q33.9375 56 38.2812 53.6094
Q42.625 51.2188 45.4062 46.3906
L45.4062 54.6875
L54.3906 54.6875
z
" id="DejaVuSans-67"/>
      <path d="
M45.4062 46.3906
L45.4062 75.9844
L54.3906 75.9844
L54.3906 0
L45.4062 0
L45.4062 8.20312
Q42.5781 3.32812 38.25 0.953125
Q33.9375 -1.42188 27.875 -1.42188
Q17.9688 -1.42188 11.7344 6.48438
Q5.51562 14.4062 5.51562 27.2969
Q5.51562 40.1875 11.7344 48.0938
Q17.9688 56 27.875 56
Q33.9375 56 38.25 53.625
Q42.5781 51.2656 45.4062 46.3906
M14.7969 27.2969
Q14.7969 17.3906 18.875 11.75
Q22.9531 6.10938 30.0781 6.10938
Q37.2031 6.10938 41.2969 11.75
Q45.4062 17.3906 45.4062 27.2969
Q45.4062 37.2031 41.2969 42.8438
Q37.2031 48.4844 30.0781 48.4844
Q22.9531 48.4844 18.875 42.8438
Q14.7969 37.2031 14.7969 27.2969" id="DejaVuSans-64"/>
      <path d="
M56.2031 29.5938
L56.2031 25.2031
L14.8906 25.2031
Q15.4844 15.9219 20.4844 11.0625
Q25.4844 6.20312 34.4219 6.20312
Q39.5938 6.20312 44.4531 7.46875
Q49.3125 8.73438 54.1094 11.2812
L54.1094 2.78125
Q49.2656 0.734375 44.1875 -0.34375
Q39.1094 -1.42188 33.8906 -1.42188
Q20.7969 -1.42188 13.1562 6.1875
Q5.51562 13.8125 5.51562 26.8125
Q5.51562 40.2344 12.7656 48.1094
Q20.0156 56 32.3281 56
Q43.3594 56 49.7812 48.8906
Q56.2031 41.7969 56.2031 29.5938
M47.2188 32.2344
Q47.125 39.5938 43.0938 43.9844
Q39.0625 48.3906 32.4219 48.3906
Q24.9062 48.3906 20.3906 44.1406
Q15.875 39.8906 15.1875 32.1719
z
" id="DejaVuSans-65"/>
      <path d="
M48.6875 27.2969
Q48.6875 37.2031 44.6094 42.8438
Q40.5312 48.4844 33.4062 48.4844
Q26.2656 48.4844 22.1875 42.8438
Q18.1094 37.2031 18.1094 27.2969
Q18.1094 17.3906 22.1875 11.75
Q26.2656 6.10938 33.4062 6.10938
Q40.5312 6.10938 44.6094 11.75
Q48.6875 17.3906 48.6875 27.2969
M18.1094 46.3906
Q20.9531 51.2656 25.2656 53.625
Q29.5938 56 35.5938 56
Q45.5625 56 51.7812 48.0938
Q58.0156 40.1875 58.0156 27.2969
Q58.0156 14.4062 51.7812 6.48438
Q45.5625 -1.42188 35.5938 -1.42188
Q29.5938 -1.42188 25.2656 0.953125
Q20.9531 3.32812 18.1094 8.20312
L18.1094 0
L9.07812 0
L9.07812 75.9844
L18.1094 75.9844
z
" id="DejaVuSans-62"/>
      <path d="
M48.7812 52.5938
L48.7812 44.1875
Q44.9688 46.2969 41.1406 47.3438
Q37.3125 48.3906 33.4062 48.3906
Q24.6562 48.3906 19.8125 42.8438
Q14.9844 37.3125 14.9844 27.2969
Q14.9844 17.2812 19.8125 11.7344
Q24.6562 6.20312 33.4062 6.20312
Q37.3125 6.20312 41.1406 7.25
Q44.9688 8.29688 48.7812 10.4062
L48.7812 2.09375
Q45.0156 0.34375 40.9844 -0.53125
Q36.9688 -1.42188 32.4219 -1.42188
Q20.0625 -1.42188 12.7812 6.34375
Q5.51562 14.1094 5.51562 27.2969
Q5.51562 40.6719 12.8594 48.3281
Q20.2188 56 33.0156 56
Q37.1562 56 41.1094 55.1406
Q45.0625 54.2969 48.7812 52.5938" id="DejaVuSans-63"/>
      <path d="
M44.2812 53.0781
L44.2812 44.5781
Q40.4844 46.5312 36.375 47.5
Q32.2812 48.4844 27.875 48.4844
Q21.1875 48.4844 17.8438 46.4375
Q14.5 44.3906 14.5 40.2812
Q14.5 37.1562 16.8906 35.375
Q19.2812 33.5938 26.5156 31.9844
L29.5938 31.2969
Q39.1562 29.25 43.1875 25.5156
Q47.2188 21.7812 47.2188 15.0938
Q47.2188 7.46875 41.1875 3.01562
Q35.1562 -1.42188 24.6094 -1.42188
Q20.2188 -1.42188 15.4531 -0.5625
Q10.6875 0.296875 5.42188 2
L5.42188 11.2812
Q10.4062 8.6875 15.2344 7.39062
Q20.0625 6.10938 24.8125 6.10938
Q31.1562 6.10938 34.5625 8.28125
Q37.9844 10.4531 37.9844 14.4062
Q37.9844 18.0625 35.5156 20.0156
Q33.0625 21.9688 24.7031 23.7812
L21.5781 24.5156
Q13.2344 26.2656 9.51562 29.9062
Q5.8125 33.5469 5.8125 39.8906
Q5.8125 47.6094 11.2812 51.7969
Q16.75 56 26.8125 56
Q31.7812 56 36.1719 55.2656
Q40.5781 54.5469 44.2812 53.0781" id="DejaVuSans-73"/>
      <path d="
M-0.296875 72.9062
L61.375 72.9062
L61.375 64.5938
L35.5 64.5938
L35.5 0
L25.5938 0
L25.5938 64.5938
L-0.296875 64.5938
z
" id="DejaVuSans-54"/>
     </defs>
     <g transform="translate(16.318125 212.98875)rotate(-90.0)scale(0.12 -0.12)">
      <use xlink:href="#DejaVuSans-4e"/>
      <use x="74.8046875" xlink:href="#DejaVuSans-75"/>
      <use x="138.18359375" xlink:href="#DejaVuSans-6d"/>
      <use x="235.595703125" xlink:href="#DejaVuSans-62"/>
      <use x="299.072265625" xlink:href="#DejaVuSans-65"/>
      <use x="360.595703125" xlink:href="#DejaVuSans-72"/>
      <use x="401.708984375" xlink:href="#DejaVuSans-20"/>
      <use x="433.49609375" xlink:href="#DejaVuSans-6f"/>
      <use x="494.677734375" xlink:href="#DejaVuSans-66"/>
      <use x="529.8828125" xlink:href="#DejaVuSans-20"/>
      <use x="561.669921875" xlink:href="#DejaVuSans-54"/>
      <use x="606.25390625" xlink:href="#DejaVuSans-61"/>
      <use x="667.533203125" xlink:href="#DejaVuSans-67"/>
      <use x="731.009765625" xlink:href="#DejaVuSans-67"/>
      <use x="794.486328125" xlink:href="#DejaVuSans-65"/>
      <use x="856.009765625" xlink:href="#DejaVuSans-64"/>
      <use x="919.486328125" xlink:href="#DejaVuSans-20"/>
      <use x="951.2734375" xlink:href="#DejaVuSans-50"/>
      <use x="1007.07617188" xlink:href="#DejaVuSans-61"/>
      <use x="1068.35546875" xlink:href="#DejaVuSans-63"/>
      <use x="1123.3359375" xlink:href="#DejaVuSans-6b"/>
      <use x="1179.49609375" xlink:href="#DejaVuSans-61"/>
      <use x="1240.77539062" xlink:href="#DejaVuSans-67"/>
      <use x="1304.25195312" xlink:href="#DejaVuSans-65"/>
      <use x="1365.77539062" xlink:href="#DejaVuSans-73"/>
     </g>
    </g>
   </g>
   <g id="patch_3">
    <path d="
M56.2388 13.0069
L614.239 13.0069" style="fill:none;stroke:#000000;"/>
   </g>
   <g id="patch_4">
    <path d="
M614.239 243.407
L614.239 13.0069" style="fill:none;stroke:#000000;"/>
   </g>
   <g id="patch_5">
    <path d="
M56.2388 243.407
L614.239 243.407" style="fill:none;stroke:#000000;"/>
   </g>
   <g id="patch_6">
    <path d="
M56.2388 243.407
L56.2388 13.0069" style="fill:none;stroke:#000000;"/>
   </g>
   <g id="text_18">
    <g id="patch_7">
     <path d="
M120.456 124.199
L134.13 124.199
L134.13 89.8115
L120.456 89.8115
z
" style="fill:#ffffff;stroke:#ffffff;"/>
    </g>
    <!-- v0.3.0 -->
    <defs>
     <path d="
M40.5781 39.3125
Q47.6562 37.7969 51.625 33
Q55.6094 28.2188 55.6094 21.1875
Q55.6094 10.4062 48.1875 4.48438
Q40.7656 -1.42188 27.0938 -1.42188
Q22.5156 -1.42188 17.6562 -0.515625
Q12.7969 0.390625 7.625 2.20312
L7.625 11.7188
Q11.7188 9.32812 16.5938 8.10938
Q21.4844 6.89062 26.8125 6.89062
Q36.0781 6.89062 40.9375 10.5469
Q45.7969 14.2031 45.7969 21.1875
Q45.7969 27.6406 41.2812 31.2656
Q36.7656 34.9062 28.7188 34.9062
L20.2188 34.9062
L20.2188 43.0156
L29.1094 43.0156
Q36.375 43.0156 40.2344 45.9219
Q44.0938 48.8281 44.0938 54.2969
Q44.0938 59.9062 40.1094 62.9062
Q36.1406 65.9219 28.7188 65.9219
Q24.6562 65.9219 20.0156 65.0312
Q15.375 64.1562 9.8125 62.3125
L9.8125 71.0938
Q15.4375 72.6562 20.3438 73.4375
Q25.25 74.2188 29.5938 74.2188
Q40.8281 74.2188 47.3594 69.1094
Q53.9062 64.0156 53.9062 55.3281
Q53.9062 49.2656 50.4375 45.0938
Q46.9688 40.9219 40.5781 39.3125" id="DejaVuSans-33"/>
     <path d="
M10.6875 12.4062
L21 12.4062
L21 0
L10.6875 0
z
" id="DejaVuSans-2e"/>
    </defs>
    <g transform="translate(130.051340039 122.199316875)rotate(-90.0)scale(0.09996 -0.09996)">
     <use xlink:href="#DejaVuSans-76"/>
     <use x="59.1796875" xlink:href="#DejaVuSans-30"/>
     <use x="122.802734375" xlink:href="#DejaVuSans-2e"/>
     <use x="154.58984375" xlink:href="#DejaVuSans-33"/>
     <use x="218.212890625" xlink:href="#DejaVuSans-2e"/>
     <use x="250.0" xlink:href="#DejaVuSans-30"/>
    </g>
   </g>
   <g id="text_19">
    <g id="patch_8">
     <path d="
M136.356 85.54
L150.03 85.54
L150.03 51.4115
L136.356 51.4115
z
" style="fill:#ffffff;stroke:#ffffff;"/>
    </g>
    <!-- v0.3.1 -->
    <g transform="translate(145.951607181 83.540045625)rotate(-90.0)scale(0.09996 -0.09996)">
     <use xlink:href="#DejaVuSans-76"/>
     <use x="59.1796875" xlink:href="#DejaVuSans-30"/>
     <use x="122.802734375" xlink:href="#DejaVuSans-2e"/>
     <use x="154.58984375" xlink:href="#DejaVuSans-33"/>
     <use x="218.212890625" xlink:href="#DejaVuSans-2e"/>
     <use x="250.0" xlink:href="#DejaVuSans-31"/>
    </g>
   </g>
   <g id="text_20">
    <g id="patch_9">
     <path d="
M151.263 123.862
L164.937 123.862
L164.937 89.8115
L151.263 89.8115
z
" style="fill:#ffffff;stroke:#ffffff;"/>
    </g>
    <!-- v0.3.2 -->
    <g transform="translate(160.858107626 121.861951875)rotate(-90.0)scale(0.09996 -0.09996)">
     <use xlink:href="#DejaVuSans-76"/>
     <use x="59.1796875" xlink:href="#DejaVuSans-30"/>
     <use x="122.802734375" xlink:href="#DejaVuSans-2e"/>
     <use x="154.58984375" xlink:href="#DejaVuSans-33"/>
     <use x="218.212890625" xlink:href="#DejaVuSans-2e"/>
     <use x="250.0" xlink:href="#DejaVuSans-32"/>
    </g>
   </g>
   <g id="text_21">
    <g id="patch_10">
     <path d="
M167.66 85.6619
L181.334 85.6619
L181.334 51.4115
L167.66 51.4115
z
" style="fill:#ffffff;stroke:#ffffff;"/>
    </g>
    <!-- v0.3.3 -->
    <g transform="translate(177.255258116 83.661871875)rotate(-90.0)scale(0.09996 -0.09996)">
     <use xlink:href="#DejaVuSans-76"/>
     <use x="59.1796875" xlink:href="#DejaVuSans-30"/>
     <use x="122.802734375" xlink:href="#DejaVuSans-2e"/>
     <use x="154.58984375" xlink:href="#DejaVuSans-33"/>
     <use x="218.212890625" xlink:href="#DejaVuSans-2e"/>
     <use x="250.0" xlink:href="#DejaVuSans-33"/>
    </g>
   </g>
   <g id="text_22">
    <g id="patch_11">
     <path d="
M184.057 124.302
L197.731 124.302
L197.731 89.8115
L184.057 89.8115
z
" style="fill:#ffffff;stroke:#ffffff;"/>
    </g>
    <!-- v0.3.4 -->
    <g transform="translate(193.652408605 122.302400625)rotate(-90.0)scale(0.09996 -0.09996)">
     <use xlink:href="#DejaVuSans-76"/>
     <use x="59.1796875" xlink:href="#DejaVuSans-30"/>
     <use x="122.802734375" xlink:href="#DejaVuSans-2e"/>
     <use x="154.58984375" xlink:href="#DejaVuSans-33"/>
     <use x="218.212890625" xlink:href="#DejaVuSans-2e"/>
     <use x="250.0" xlink:href="#DejaVuSans-34"/>
    </g>
   </g>
   <g id="text_23">
    <g id="patch_12">
     <path d="
M190.516 85.59
L204.191 85.59
L204.191 51.4115
L190.516 51.4115
z
" style="fill:#ffffff;stroke:#ffffff;"/>
    </g>
    <!-- v0.3.5 -->
    <g transform="translate(200.111892132 83.590025625)rotate(-90.0)scale(0.09996 -0.09996)">
     <use xlink:href="#DejaVuSans-76"/>
     <use x="59.1796875" xlink:href="#DejaVuSans-30"/>
     <use x="122.802734375" xlink:href="#DejaVuSans-2e"/>
     <use x="154.58984375" xlink:href="#DejaVuSans-33"/>
     <use x="218.212890625" xlink:href="#DejaVuSans-2e"/>
     <use x="250.0" xlink:href="#DejaVuSans-35"/>
    </g>
   </g>
   <g id="text_24">
    <g id="patch_13">
     <path d="
M210.392 124.234
L224.066 124.234
L224.066 89.8115
L210.392 89.8115
z
" style="fill:#ffffff;stroke:#ffffff;"/>
    </g>
    <!-- v0.3.6 -->
    <g transform="translate(219.987226059 122.233678125)rotate(-90.0)scale(0.09996 -0.09996)">
     <use xlink:href="#DejaVuSans-76"/>
     <use x="59.1796875" xlink:href="#DejaVuSans-30"/>
     <use x="122.802734375" xlink:href="#DejaVuSans-2e"/>
     <use x="154.58984375" xlink:href="#DejaVuSans-33"/>
     <use x="218.212890625" xlink:href="#DejaVuSans-2e"/>
     <use x="250.0" xlink:href="#DejaVuSans-36"/>
    </g>
   </g>
   <g id="text_25">
    <g id="patch_14">
     <path d="
M227.286 85.6088
L240.96 85.6088
L240.96 51.4115
L227.286 51.4115
z
" style="fill:#ffffff;stroke:#ffffff;"/>
    </g>
    <!-- v0.3.7 -->
    <g transform="translate(236.881259897 83.608768125)rotate(-90.0)scale(0.09996 -0.09996)">
     <use xlink:href="#DejaVuSans-76"/>
     <use x="59.1796875" xlink:href="#DejaVuSans-30"/>
     <use x="122.802734375" xlink:href="#DejaVuSans-2e"/>
     <use x="154.58984375" xlink:href="#DejaVuSans-33"/>
     <use x="218.212890625" xlink:href="#DejaVuSans-2e"/>
     <use x="250.0" xlink:href="#DejaVuSans-37"/>
    </g>
   </g>
   <g id="text_26">
    <g id="patch_15">
     <path d="
M246.167 124.179
L259.842 124.179
L259.842 89.8115
L246.167 89.8115
z
" style="fill:#ffffff;stroke:#ffffff;"/>
    </g>
    <!-- v0.3.8 -->
    <g transform="translate(255.762827127 122.1790125)rotate(-90.0)scale(0.09996 -0.09996)">
     <use xlink:href="#DejaVuSans-76"/>
     <use x="59.1796875" xlink:href="#DejaVuSans-30"/>
     <use x="122.802734375" xlink:href="#DejaVuSans-2e"/>
     <use x="154.58984375" xlink:href="#DejaVuSans-33"/>
     <use x="218.212890625" xlink:href="#DejaVuSans-2e"/>
     <use x="250.0" xlink:href="#DejaVuSans-38"/>
    </g>
   </g>
   <g id="text_27">
    <g id="patch_16">
     <path d="
M261.074 85.7603
L274.748 85.7603
L274.748 51.4115
L261.074 51.4115
z
" style="fill:#ffffff;stroke:#ffffff;"/>
    </g>
    <!-- v0.3.9 -->
    <defs>
     <path d="
M10.9844 1.51562
L10.9844 10.5
Q14.7031 8.73438 18.5 7.8125
Q22.3125 6.89062 25.9844 6.89062
Q35.75 6.89062 40.8906 13.4531
Q46.0469 20.0156 46.7812 33.4062
Q43.9531 29.2031 39.5938 26.9531
Q35.25 24.7031 29.9844 24.7031
Q19.0469 24.7031 12.6719 31.3125
Q6.29688 37.9375 6.29688 49.4219
Q6.29688 60.6406 12.9375 67.4219
Q19.5781 74.2188 30.6094 74.2188
Q43.2656 74.2188 49.9219 64.5156
Q56.5938 54.8281 56.5938 36.375
Q56.5938 19.1406 48.4062 8.85938
Q40.2344 -1.42188 26.4219 -1.42188
Q22.7031 -1.42188 18.8906 -0.6875
Q15.0938 0.046875 10.9844 1.51562
M30.6094 32.4219
Q37.25 32.4219 41.125 36.9531
Q45.0156 41.5 45.0156 49.4219
Q45.0156 57.2812 41.125 61.8438
Q37.25 66.4062 30.6094 66.4062
Q23.9688 66.4062 20.0938 61.8438
Q16.2188 57.2812 16.2188 49.4219
Q16.2188 41.5 20.0938 36.9531
Q23.9688 32.4219 30.6094 32.4219" id="DejaVuSans-39"/>
    </defs>
    <g transform="translate(270.669327572 83.76027)rotate(-90.0)scale(0.09996 -0.09996)">
     <use xlink:href="#DejaVuSans-76"/>
     <use x="59.1796875" xlink:href="#DejaVuSans-30"/>
     <use x="122.802734375" xlink:href="#DejaVuSans-2e"/>
     <use x="154.58984375" xlink:href="#DejaVuSans-33"/>
     <use x="218.212890625" xlink:href="#DejaVuSans-2e"/>
     <use x="250.0" xlink:href="#DejaVuSans-39"/>
    </g>
   </g>
   <g id="text_28">
    <g id="patch_17">
     <path d="
M273.496 130.559
L287.17 130.559
L287.17 89.8115
L273.496 89.8115
z
" style="fill:#ffffff;stroke:#ffffff;"/>
    </g>
    <!-- v0.3.10 -->
    <g transform="translate(283.091411277 128.559271875)rotate(-90.0)scale(0.09996 -0.09996)">
     <use xlink:href="#DejaVuSans-76"/>
     <use x="59.1796875" xlink:href="#DejaVuSans-30"/>
     <use x="122.802734375" xlink:href="#DejaVuSans-2e"/>
     <use x="154.58984375" xlink:href="#DejaVuSans-33"/>
     <use x="218.212890625" xlink:href="#DejaVuSans-2e"/>
     <use x="250.0" xlink:href="#DejaVuSans-31"/>
     <use x="313.623046875" xlink:href="#DejaVuSans-30"/>
    </g>
   </g>
   <g id="text_29">
    <g id="patch_18">
     <path d="
M289.893 91.9
L303.567 91.9
L303.567 51.4115
L289.893 51.4115
z
" style="fill:#ffffff;stroke:#ffffff;"/>
    </g>
    <!-- v0.3.11 -->
    <g transform="translate(299.488561766 89.900000625)rotate(-90.0)scale(0.09996 -0.09996)">
     <use xlink:href="#DejaVuSans-76"/>
     <use x="59.1796875" xlink:href="#DejaVuSans-30"/>
     <use x="122.802734375" xlink:href="#DejaVuSans-2e"/>
     <use x="154.58984375" xlink:href="#DejaVuSans-33"/>
     <use x="218.212890625" xlink:href="#DejaVuSans-2e"/>
     <use x="250.0" xlink:href="#DejaVuSans-31"/>
     <use x="313.623046875" xlink:href="#DejaVuSans-31"/>
    </g>
   </g>
   <g id="text_30">
    <g id="patch_19">
     <path d="
M335.11 130.222
L348.784 130.222
L348.784 89.8115
L335.11 89.8115
z
" style="fill:#ffffff;stroke:#ffffff;"/>
    </g>
    <!-- v0.3.12 -->
    <g transform="translate(344.70494645 128.221906875)rotate(-90.0)scale(0.09996 -0.09996)">
     <use xlink:href="#DejaVuSans-76"/>
     <use x="59.1796875" xlink:href="#DejaVuSans-30"/>
     <use x="122.802734375" xlink:href="#DejaVuSans-2e"/>
     <use x="154.58984375" xlink:href="#DejaVuSans-33"/>
     <use x="218.212890625" xlink:href="#DejaVuSans-2e"/>
     <use x="250.0" xlink:href="#DejaVuSans-31"/>
     <use x="313.623046875" xlink:href="#DejaVuSans-32"/>
    </g>
   </g>
   <g id="text_31">
    <g id="patch_20">
     <path d="
M326.166 229.799
L339.84 229.799
L339.84 195.411
L326.166 195.411
z
" style="fill:#ffffff;stroke:#ffffff;"/>
    </g>
    <!-- v0.4.0 -->
    <g transform="translate(335.761046183 227.799316875)rotate(-90.0)scale(0.09996 -0.09996)">
     <use xlink:href="#DejaVuSans-76"/>
     <use x="59.1796875" xlink:href="#DejaVuSans-30"/>
     <use x="122.802734375" xlink:href="#DejaVuSans-2e"/>
     <use x="154.58984375" xlink:href="#DejaVuSans-34"/>
     <use x="218.212890625" xlink:href="#DejaVuSans-2e"/>
     <use x="250.0" xlink:href="#DejaVuSans-30"/>
    </g>
   </g>
   <g id="text_32">
    <g id="patch_21">
     <path d="
M341.569 200.74
L355.243 200.74
L355.243 166.611
L341.569 166.611
z
" style="fill:#ffffff;stroke:#ffffff;"/>
    </g>
    <!-- v0.4.1 -->
    <g transform="translate(351.164429977 198.740045625)rotate(-90.0)scale(0.09996 -0.09996)">
     <use xlink:href="#DejaVuSans-76"/>
     <use x="59.1796875" xlink:href="#DejaVuSans-30"/>
     <use x="122.802734375" xlink:href="#DejaVuSans-2e"/>
     <use x="154.58984375" xlink:href="#DejaVuSans-34"/>
     <use x="218.212890625" xlink:href="#DejaVuSans-2e"/>
     <use x="250.0" xlink:href="#DejaVuSans-31"/>
    </g>
   </g>
   <g id="text_33">
    <g id="patch_22">
     <path d="
M355.482 229.462
L369.156 229.462
L369.156 195.411
L355.482 195.411
z
" style="fill:#ffffff;stroke:#ffffff;"/>
    </g>
    <!-- v0.4.2 -->
    <g transform="translate(365.077163726 227.461951875)rotate(-90.0)scale(0.09996 -0.09996)">
     <use xlink:href="#DejaVuSans-76"/>
     <use x="59.1796875" xlink:href="#DejaVuSans-30"/>
     <use x="122.802734375" xlink:href="#DejaVuSans-2e"/>
     <use x="154.58984375" xlink:href="#DejaVuSans-34"/>
     <use x="218.212890625" xlink:href="#DejaVuSans-2e"/>
     <use x="250.0" xlink:href="#DejaVuSans-32"/>
    </g>
   </g>
   <g id="text_34">
    <g id="patch_23">
     <path d="
M373.866 200.862
L387.541 200.862
L387.541 166.611
L373.866 166.611
z
" style="fill:#ffffff;stroke:#ffffff;"/>
    </g>
    <!-- v0.4.3 -->
    <g transform="translate(383.461847608 198.861871875)rotate(-90.0)scale(0.09996 -0.09996)">
     <use xlink:href="#DejaVuSans-76"/>
     <use x="59.1796875" xlink:href="#DejaVuSans-30"/>
     <use x="122.802734375" xlink:href="#DejaVuSans-2e"/>
     <use x="154.58984375" xlink:href="#DejaVuSans-34"/>
     <use x="218.212890625" xlink:href="#DejaVuSans-2e"/>
     <use x="250.0" xlink:href="#DejaVuSans-33"/>
    </g>
   </g>
   <g id="text_35">
    <g id="patch_24">
     <path d="
M406.164 229.59
L419.838 229.59
L419.838 195.411
L406.164 195.411
z
" style="fill:#ffffff;stroke:#ffffff;"/>
    </g>
    <!-- v0.4.5 -->
    <g transform="translate(415.759265239 227.590025625)rotate(-90.0)scale(0.09996 -0.09996)">
     <use xlink:href="#DejaVuSans-76"/>
     <use x="59.1796875" xlink:href="#DejaVuSans-30"/>
     <use x="122.802734375" xlink:href="#DejaVuSans-2e"/>
     <use x="154.58984375" xlink:href="#DejaVuSans-34"/>
     <use x="218.212890625" xlink:href="#DejaVuSans-2e"/>
     <use x="250.0" xlink:href="#DejaVuSans-35"/>
    </g>
   </g>
   <g id="text_36">
    <g id="patch_25">
     <path d="
M452.871 201.034
L466.545 201.034
L466.545 166.611
L452.871 166.611
z
" style="fill:#ffffff;stroke:#ffffff;"/>
    </g>
    <!-- v0.4.6 -->
    <g transform="translate(462.466299968 199.033678125)rotate(-90.0)scale(0.09996 -0.09996)">
     <use xlink:href="#DejaVuSans-76"/>
     <use x="59.1796875" xlink:href="#DejaVuSans-30"/>
     <use x="122.802734375" xlink:href="#DejaVuSans-2e"/>
     <use x="154.58984375" xlink:href="#DejaVuSans-34"/>
     <use x="218.212890625" xlink:href="#DejaVuSans-2e"/>
     <use x="250.0" xlink:href="#DejaVuSans-36"/>
    </g>
   </g>
   <g id="text_37">
    <g id="patch_26">
     <path d="
M498.087 229.609
L511.762 229.609
L511.762 195.411
L498.087 195.411
z
" style="fill:#ffffff;stroke:#ffffff;"/>
    </g>
    <!-- v0.4.7 -->
    <g transform="translate(507.682684652 227.608768125)rotate(-90.0)scale(0.09996 -0.09996)">
     <use xlink:href="#DejaVuSans-76"/>
     <use x="59.1796875" xlink:href="#DejaVuSans-30"/>
     <use x="122.802734375" xlink:href="#DejaVuSans-2e"/>
     <use x="154.58984375" xlink:href="#DejaVuSans-34"/>
     <use x="218.212890625" xlink:href="#DejaVuSans-2e"/>
     <use x="250.0" xlink:href="#DejaVuSans-37"/>
    </g>
   </g>
   <g id="text_38">
    <g id="patch_27">
     <path d="
M498.584 133.799
L512.258 133.799
L512.258 99.4115
L498.584 99.4115
z
" style="fill:#ffffff;stroke:#ffffff;"/>
    </g>
    <!-- v0.5.0 -->
    <g transform="translate(508.179568 131.799316875)rotate(-90.0)scale(0.09996 -0.09996)">
     <use xlink:href="#DejaVuSans-76"/>
     <use x="59.1796875" xlink:href="#DejaVuSans-30"/>
     <use x="122.802734375" xlink:href="#DejaVuSans-2e"/>
     <use x="154.58984375" xlink:href="#DejaVuSans-35"/>
     <use x="218.212890625" xlink:href="#DejaVuSans-2e"/>
     <use x="250.0" xlink:href="#DejaVuSans-30"/>
    </g>
   </g>
   <g id="text_39">
    <g id="patch_28">
     <path d="
M581.564 114.34
L595.238 114.34
L595.238 80.2115
L581.564 80.2115
z
" style="fill:#ffffff;stroke:#ffffff;"/>
    </g>
    <!-- v0.5.1 -->
    <g transform="translate(591.159087145 112.340045625)rotate(-90.0)scale(0.09996 -0.09996)">
     <use xlink:href="#DejaVuSans-76"/>
     <use x="59.1796875" xlink:href="#DejaVuSans-30"/>
     <use x="122.802734375" xlink:href="#DejaVuSans-2e"/>
     <use x="154.58984375" xlink:href="#DejaVuSans-35"/>
     <use x="218.212890625" xlink:href="#DejaVuSans-2e"/>
     <use x="250.0" xlink:href="#DejaVuSans-31"/>
    </g>
   </g>
   <g id="legend_1">
    <g id="patch_29">
     <path d="
M61.2368 94.3649
L111.899 94.3649
L111.899 18.0049
L61.2368 18.0049
L61.2368 94.3649
z
" style="fill:#ffffff;stroke:#000000;"/>
    </g>
    <g id="line2d_60">
     <path d="
M68.234 26.1001
L82.2284 26.1001" style="fill:none;stroke:#ff0000;stroke-linecap:square;stroke-width:2;"/>
    </g>
    <g id="line2d_61"/>
    <g id="text_40">
     <!-- 0.2 -->
     <g transform="translate(93.22395 29.598673125)scale(0.09996 -0.09996)">
      <use xlink:href="#DejaVuSans-30"/>
      <use x="63.623046875" xlink:href="#DejaVuSans-2e"/>
      <use x="95.41015625" xlink:href="#DejaVuSans-32"/>
     </g>
    </g>
    <g id="line2d_62">
     <path d="
M68.234 40.7723
L82.2284 40.7723" style="fill:none;stroke:#008000;stroke-linecap:square;stroke-width:2;"/>
    </g>
    <g id="line2d_63"/>
    <g id="text_41">
     <!-- 0.3 -->
     <g transform="translate(93.22395 44.270926875)scale(0.09996 -0.09996)">
      <use xlink:href="#DejaVuSans-30"/>
      <use x="63.623046875" xlink:href="#DejaVuSans-2e"/>
      <use x="95.41015625" xlink:href="#DejaVuSans-33"/>
     </g>
    </g>
    <g id="line2d_64">
     <path d="
M68.234 55.4446
L82.2284 55.4446" style="fill:none;stroke:#0000ff;stroke-linecap:square;stroke-width:2;"/>
    </g>
    <g id="line2d_65"/>
    <g id="text_42">
     <!-- 0.4 -->
     <g transform="translate(93.22395 58.943180625)scale(0.09996 -0.09996)">
      <use xlink:href="#DejaVuSans-30"/>
      <use x="63.623046875" xlink:href="#DejaVuSans-2e"/>
      <use x="95.41015625" xlink:href="#DejaVuSans-34"/>
     </g>
    </g>
    <g id="line2d_66">
     <path d="
M68.234 70.1168
L82.2284 70.1168" style="fill:none;stroke:#000000;stroke-linecap:square;stroke-width:2;"/>
    </g>
    <g id="line2d_67"/>
    <g id="text_43">
     <!-- 0.5 -->
     <g transform="translate(93.22395 73.615434375)scale(0.09996 -0.09996)">
      <use xlink:href="#DejaVuSans-30"/>
      <use x="63.623046875" xlink:href="#DejaVuSans-2e"/>
      <use x="95.41015625" xlink:href="#DejaVuSans-35"/>
     </g>
    </g>
    <g id="line2d_68">
     <path d="
M68.234 84.7891
L82.2284 84.7891" style="fill:none;stroke:#bfbf00;stroke-linecap:square;stroke-width:2;"/>
    </g>
    <g id="line2d_69"/>
    <g id="text_44">
     <!-- 0.6 -->
     <g transform="translate(93.22395 88.287688125)scale(0.09996 -0.09996)">
      <use xlink:href="#DejaVuSans-30"/>
      <use x="63.623046875" xlink:href="#DejaVuSans-2e"/>
      <use x="95.41015625" xlink:href="#DejaVuSans-36"/>
     </g>
    </g>
   </g>
  </g>
 </g>
 <defs>
  <clipPath id="pd39b4832ff">
   <rect height="230.4" width="558.0" x="56.23875" y="13.006875"/>
  </clipPath>
 </defs>
</svg>
