<?xml version="1.0" encoding="utf-8" standalone="no"?>
<!DOCTYPE svg PUBLIC "-//W3C//DTD SVG 1.1//EN"
  "http://www.w3.org/Graphics/SVG/1.1/DTD/svg11.dtd">
<!-- Created with matplotlib (http://matplotlib.org/) -->
<svg height="311pt" version="1.1" viewBox="0 0 621 311" width="621pt" xmlns="http://www.w3.org/2000/svg" xmlns:xlink="http://www.w3.org/1999/xlink">
 <defs>
  <style type="text/css">
*{stroke-linecap:butt;stroke-linejoin:round;}
  </style>
 </defs>
 <g id="figure_1">
  <g id="patch_1">
   <path d="
M0 311.71
L621.439 311.71
L621.439 0
L0 0
z
" style="fill:#ffffff;"/>
  </g>
  <g id="axes_1">
   <g id="patch_2">
    <path d="
M56.2388 243.407
L614.239 243.407
L614.239 13.0069
L56.2388 13.0069
z
" style="fill:#ffffff;"/>
   </g>
   <g id="line2d_1">
    <path clip-path="url(#p6fd7a61c41)" d="
M112.413 223.967
L111.997 223.967
L111.581 224.255
L111.165 224.255
L110.749 224.399
L110.333 224.687
L109.917 224.687
L109.084 224.399
L108.668 224.399
L108.252 224.831
L107.836 224.831
L107.004 224.831
L106.588 224.831
L105.756 224.975
L105.339 224.975
L104.923 224.975
L104.507 225.119
L104.091 225.119
L103.675 225.119
L103.259 225.263
L102.843 225.263
L101.594 225.263
L101.178 225.263
L100.762 225.263
L100.346 225.263
L99.5139 225.551
L98.6817 225.839
L98.2656 225.839
L97.8495 225.983
L97.4334 226.127
L96.6012 226.415
L96.1851 226.415
L95.769 226.415
L95.3528 226.559
L94.9367 226.703
L94.5206 226.991
L93.6884 227.135
L93.2723 227.135
L92.8562 227.567
L92.4401 227.567
L92.024 227.567
L91.6079 227.567
L91.1918 227.567
L90.7757 227.855
L89.9434 227.855
L89.5273 227.999
L89.1112 227.999
L88.6951 227.999
L88.279 227.999
L87.8629 227.999
L87.4468 228.287
L87.0307 228.431
L86.6146 228.575
L86.1985 228.575
L83.7018 229.295
L83.2857 229.295
L82.8696 229.439
L82.4535 229.439
L82.0374 229.583
L81.6213 229.583
L81.2052 229.583
L80.7891 229.583
L80.373 229.583
L79.9569 229.583
L79.5408 229.583
L79.1247 229.583
L78.7085 230.303
L78.2924 229.151
L77.8763 229.295
L77.4602 229.295
L77.0441 229.295
L76.2119 229.439
L75.7958 229.439
L75.3797 229.871
L74.9636 229.871
L74.5475 229.871
L74.1314 229.871
L73.7153 229.871
L73.2992 229.871
L72.883 229.871
L72.4669 229.871
L72.0508 229.871
L71.6347 230.015
L68.722 230.159
L67.8898 230.159
L66.6414 230.159
L63.7287 230.447
L63.3126 230.591
L62.4804 230.735
L62.0643 230.735
L61.232 230.879
L60.3998 231.023
L59.9837 231.023
L59.1515 231.023
L58.7354 231.023
L58.3193 231.023
L57.9032 231.023
L57.4871 231.023
L57.071 231.023
L56.6549 231.167
L56.2388 231.167" style="fill:none;stroke:#ff0000;stroke-linecap:square;stroke-width:2;"/>
   </g>
   <g id="line2d_2">
    <path clip-path="url(#p6fd7a61c41)" d="
M433.648 172.127
L422.413 172.127
L421.997 172.271
L420.749 172.127
L416.172 172.127
L415.756 172.271
L415.339 172.127
L414.923 172.127
L414.507 172.271
L414.091 172.127
L412.843 172.127
L412.427 172.271
L410.346 172.271
L409.93 172.127
L404.937 172.127
L404.521 172.271
L404.105 172.127
L401.192 172.127
L400.776 172.271
L400.36 172.127
L399.943 172.271
L399.527 172.127
L394.534 172.127
L394.118 172.271
L393.286 172.271
L392.87 172.415
L392.037 172.271
L391.621 172.415
L391.205 172.271
L389.957 172.271
L389.541 172.415
L389.125 172.271
L386.628 172.271
L386.212 172.415
L385.796 172.271
L383.715 172.271
L383.299 172.415
L338.776 173.279
L336.279 173.567
L334.615 173.567
L325.876 173.711
L316.722 173.711
L311.313 174.143
L307.984 174.431
L304.239 174.431
L303.407 174.719
L301.742 174.431
L291.756 174.719
L288.843 175.295
L287.178 175.439
L285.098 176.015
L283.433 176.735
L276.776 178.175
L274.695 178.463
L272.615 178.607
L271.366 178.895
L264.292 180.911
L257.219 182.351
L250.145 184.367
L249.729 184.367
L249.313 184.511
L248.896 184.799
L248.48 185.375
L248.064 185.663
L247.232 185.519
L246.4 185.807
L245.152 185.807
L244.735 185.951
L243.903 185.951
L243.487 186.239
L243.071 186.239
L242.655 186.527
L242.239 186.527
L240.99 186.383
L236.413 187.247
L235.581 187.247
L232.668 188.255
L231.836 188.255
L228.507 188.831
L228.091 189.119
L226.427 189.407
L222.682 190.559
L222.266 190.991
L221.433 191.279
L220.601 191.279
L220.185 191.423
L218.521 191.711
L218.105 192.143
L217.688 192.287
L217.272 192.287
L216.44 193.007
L215.192 193.439
L213.527 193.439
L212.695 193.871
L211.863 193.871
L209.366 194.015
L208.95 194.447
L208.118 194.447
L203.125 194.591
L202.709 194.879
L202.292 194.735
L201.876 195.023
L201.46 195.023
L201.044 195.167
L200.628 195.455
L198.964 195.743
L196.883 195.743
L196.467 196.031
L195.635 196.031
L193.554 196.607
L191.474 197.471
L189.393 197.471
L187.729 197.759
L186.064 198.623
L185.648 198.623
L185.232 198.335
L183.568 199.487
L183.152 199.631
L182.735 199.919
L181.903 200.351
L181.071 200.351
L180.655 200.495
L180.239 200.927
L179.823 200.927
L179.407 201.215
L177.742 201.215
L177.326 201.935
L176.91 201.935
L176.494 202.223
L174.829 203.231
L171.917 204.095
L169.836 205.103
L166.923 205.679
L166.091 205.967
L164.427 205.967
L164.011 206.111
L162.762 206.687
L161.098 207.119
L160.682 207.407
L159.849 207.407
L159.017 207.695
L158.185 207.695
L155.688 207.839
L154.024 208.559
L153.608 208.559
L153.192 208.991
L152.776 208.991
L152.36 209.135
L151.943 209.135
L151.527 209.423
L149.447 210.143
L148.198 210.143
L147.782 210.287
L147.366 210.287
L146.95 210.431
L146.118 210.431
L145.702 210.575
L145.286 210.575
L144.87 210.719
L144.454 211.007
L144.037 211.007
L143.621 211.151
L143.205 211.151
L142.789 211.295
L141.957 211.295
L141.541 211.583
L141.125 211.727
L139.876 211.727
L139.044 212.015
L138.628 212.015
L138.212 212.303
L137.38 212.303
L136.964 212.447
L136.547 212.735
L136.131 212.735
L134.883 213.023
L134.467 213.311
L134.051 213.311
L133.635 210.719
L133.219 213.599
L132.803 213.887
L132.386 213.887
L131.97 214.031
L130.722 213.887
L130.306 214.031
L129.474 214.031
L128.641 214.319
L126.977 214.319
L126.561 215.471
L125.729 215.471
L125.313 215.759
L124.48 216.047
L123.232 216.911
L120.735 216.911
L119.903 217.199
L119.487 217.631
L118.655 215.903
L117.823 216.191
L117.407 216.623
L116.574 216.623
L116.158 216.767
L115.742 216.767
L114.91 217.199
L114.078 217.199
L113.245 217.487
L112.829 217.487
L112.413 217.775
L110.749 218.351
L110.333 218.639
L109.917 218.639
L108.668 218.783
L108.252 219.215
L107.836 219.359
L105.756 219.359
L104.507 219.791
L103.675 219.791
L103.259 219.935
L102.843 219.935
L100.346 220.223
L99.5139 220.655
L98.6817 221.375
L97.8495 221.375
L97.4334 221.807
L96.6012 221.951
L96.1851 222.239
L95.769 222.239
L94.9367 222.527
L94.5206 222.815
L93.2723 222.959
L92.8562 223.391
L91.1918 223.391
L90.7757 223.679
L89.9434 223.679
L89.1112 223.967
L88.6951 223.967
L88.279 224.255
L87.8629 224.255
L87.4468 224.543
L82.8696 226.127
L82.4535 232.031
L82.0374 226.271
L81.6213 226.271
L81.2052 226.415
L79.5408 226.415
L79.1247 226.559
L78.2924 226.559
L77.8763 226.847
L77.0441 226.847
L76.2119 226.991
L75.7958 227.423
L72.4669 227.423
L72.0508 227.567
L71.6347 227.855
L66.6414 227.999
L62.4804 228.719
L62.0643 228.719
L61.232 229.007
L58.3193 229.439
L57.071 229.439
L56.6549 229.583
L56.2388 229.583
L56.2388 229.583" style="fill:none;stroke:#008000;stroke-linecap:square;stroke-width:2;"/>
   </g>
   <g id="line2d_3">
    <path clip-path="url(#p6fd7a61c41)" d="
M614.239 112.655
L589.272 112.655
L586.36 112.799
L579.702 112.943
L577.205 112.799
L576.789 112.943
L573.044 112.943
L572.628 113.231
L572.212 113.375
L571.796 112.943
L570.964 113.231
L570.547 113.087
L557.232 113.087
L556.816 113.231
L556.4 113.087
L545.581 113.087
L545.165 113.231
L538.923 113.231
L538.507 113.375
L538.091 114.095
L537.675 113.375
L535.178 113.375
L534.762 113.231
L534.346 113.375
L530.601 113.375
L528.105 113.663
L527.688 113.519
L526.024 113.519
L525.608 113.663
L525.192 113.519
L524.36 113.519
L523.943 113.663
L518.118 113.663
L514.373 113.951
L513.541 113.951
L513.125 114.095
L511.876 114.095
L511.46 114.239
L511.044 114.095
L508.547 114.095
L508.131 114.239
L504.386 114.239
L503.97 114.383
L503.554 114.383
L502.722 114.527
L500.641 114.239
L498.561 114.239
L498.145 114.383
L493.568 114.383
L474.843 114.671
L473.178 114.959
L471.93 114.959
L471.514 115.103
L469.433 114.815
L469.017 114.959
L466.521 114.959
L464.856 115.535
L464.024 115.535
L463.608 116.255
L461.527 115.535
L459.447 115.535
L456.534 115.823
L455.286 115.823
L454.454 115.967
L450.709 115.967
L449.876 116.687
L449.46 116.831
L448.212 116.687
L447.796 116.975
L443.635 117.263
L442.803 117.551
L440.722 117.551
L439.89 117.839
L439.058 117.839
L438.225 118.127
L434.896 118.127
L434.48 118.271
L434.064 118.703
L432.816 119.135
L432.4 119.711
L431.568 119.711
L431.152 119.855
L430.735 119.855
L429.903 120.143
L429.487 120.575
L428.655 120.863
L428.239 120.863
L427.823 121.151
L426.99 121.151
L426.574 121.295
L426.158 121.295
L425.742 121.583
L424.91 121.871
L424.494 122.159
L423.662 122.159
L422.829 122.447
L421.997 122.447
L421.165 122.735
L420.749 123.167
L420.333 123.311
L419.917 123.599
L419.5 123.599
L419.084 123.743
L418.668 123.743
L418.252 123.887
L417.836 123.887
L416.588 124.319
L414.507 124.319
L414.091 124.607
L413.675 124.607
L413.259 124.895
L412.843 124.895
L412.427 125.183
L412.011 125.183
L411.594 125.039
L411.178 125.039
L410.346 125.615
L409.93 125.759
L409.098 126.479
L407.849 126.335
L407.433 126.623
L406.601 126.911
L406.185 126.911
L405.769 127.055
L405.353 127.055
L403.688 127.631
L402.856 127.775
L402.44 128.063
L402.024 128.063
L401.608 128.207
L401.192 128.063
L400.776 128.063
L399.943 128.351
L399.527 128.351
L398.695 128.639
L398.279 128.495
L397.863 128.495
L397.031 128.783
L396.615 128.783
L396.198 128.927
L395.782 128.927
L394.534 129.359
L394.118 129.935
L393.702 129.935
L393.286 130.079
L392.87 130.511
L391.621 130.799
L390.789 131.087
L389.957 131.087
L389.541 131.231
L389.125 131.231
L387.876 131.663
L387.46 131.519
L387.044 131.663
L386.628 131.663
L385.796 132.527
L385.38 132.527
L384.964 132.671
L384.547 132.527
L384.131 132.671
L383.715 132.959
L383.299 133.103
L376.641 136.415
L355.004 145.775
L348.346 150.383
L338.776 153.263
L336.279 154.703
L334.615 155.999
L325.876 158.735
L316.722 161.183
L314.641 161.615
L311.313 162.911
L307.984 163.631
L304.239 164.207
L303.407 164.783
L301.742 164.927
L296.749 166.511
L291.756 169.679
L290.507 170.111
L288.843 170.831
L287.178 167.231
L285.098 168.527
L283.433 169.391
L276.776 172.127
L274.695 173.135
L271.366 173.999
L264.292 177.599
L260.547 178.319
L257.219 179.183
L250.145 181.343
L249.729 181.343
L249.313 181.487
L248.896 181.775
L248.48 182.351
L248.064 182.639
L247.232 182.639
L246.4 182.927
L243.903 183.215
L243.487 183.647
L243.071 183.647
L242.655 183.935
L240.99 183.935
L236.413 185.231
L235.581 185.231
L234.749 185.519
L234.333 185.807
L233.917 185.951
L232.668 186.527
L231.836 186.527
L228.507 186.959
L228.091 187.247
L226.427 187.535
L222.682 188.687
L222.266 189.119
L221.433 189.407
L220.601 189.407
L220.185 189.695
L218.521 189.983
L218.105 190.271
L217.688 190.415
L217.272 190.415
L216.024 191.567
L215.192 191.855
L213.527 192.143
L212.695 192.575
L211.863 192.719
L209.366 192.863
L208.95 193.295
L208.118 193.295
L203.125 193.871
L202.709 194.159
L202.292 194.015
L201.876 194.303
L201.044 194.303
L200.628 194.591
L198.131 194.735
L197.299 195.023
L196.883 195.023
L196.467 195.311
L195.635 195.311
L193.554 196.607
L191.474 196.751
L189.393 196.751
L187.729 197.039
L186.064 197.903
L185.648 197.471
L185.232 197.471
L183.568 198.623
L183.152 198.767
L182.735 199.199
L181.903 199.631
L181.071 199.631
L180.655 199.775
L180.239 200.207
L179.823 200.207
L179.407 200.351
L178.158 200.495
L177.742 200.495
L177.326 201.359
L176.91 201.359
L176.494 201.647
L174.829 202.655
L171.917 203.663
L170.668 203.951
L169.836 204.527
L166.923 205.103
L166.091 205.391
L164.011 205.391
L163.178 205.967
L162.762 206.111
L161.514 206.255
L160.682 206.831
L159.849 206.831
L159.433 206.975
L159.017 207.263
L158.185 207.263
L155.688 207.407
L154.024 208.127
L153.608 208.127
L153.192 208.559
L152.776 208.559
L152.36 208.703
L151.943 208.703
L151.527 208.991
L149.447 209.855
L148.198 209.855
L147.366 210.143
L146.118 210.143
L145.702 210.287
L145.286 210.287
L144.87 210.431
L144.454 210.719
L144.037 210.719
L143.621 210.863
L143.205 210.863
L142.789 211.007
L141.957 211.007
L141.125 211.583
L139.876 211.583
L139.044 211.871
L138.628 211.871
L138.212 212.159
L137.38 212.159
L136.964 212.303
L136.547 212.591
L136.131 212.591
L134.883 212.879
L134.467 213.167
L133.635 213.167
L132.803 213.743
L132.386 213.743
L131.97 213.887
L130.722 213.743
L130.306 213.887
L129.474 213.887
L129.058 214.031
L128.641 214.031
L127.393 214.175
L126.977 214.175
L126.561 215.327
L125.729 215.327
L125.313 215.615
L124.48 215.903
L123.232 216.767
L120.735 216.767
L119.903 217.055
L119.487 217.487
L118.655 217.775
L118.239 217.775
L117.823 218.063
L117.407 218.495
L116.574 218.495
L116.158 218.639
L115.742 218.639
L114.91 219.071
L114.078 219.071
L113.245 219.359
L112.829 219.791
L112.829 219.791" style="fill:none;stroke:#0000ff;stroke-linecap:square;stroke-width:2;"/>
   </g>
   <g id="line2d_4">
    <path clip-path="url(#p6fd7a61c41)" d="
M614.239 68.3029
L589.272 68.8789
L586.36 177.023
L579.702 70.6069
L577.205 70.4629
L576.789 70.7509
L575.125 70.8949
L573.876 70.7509
L573.46 70.7509
L573.044 71.0389
L572.628 71.0389
L572.212 72.9109
L571.796 71.3269
L570.964 71.6149
L570.547 71.6149
L569.715 71.7589
L569.299 71.3269
L568.883 71.9029
L567.635 71.1829
L566.803 71.0389
L566.386 71.4709
L565.138 71.4709
L564.722 71.3269
L564.306 71.4709
L563.89 71.3269
L563.058 71.3269
L562.641 71.4709
L562.225 71.7589
L560.977 71.7589
L560.561 71.6149
L559.729 71.9029
L559.313 71.9029
L558.896 71.7589
L558.064 72.0469
L557.232 71.9029
L556.816 72.0469
L556.4 71.9029
L555.984 72.0469
L554.319 72.3349
L553.903 72.1909
L553.487 72.1909
L553.071 72.0469
L552.655 72.1909
L551.823 72.1909
L551.407 72.3349
L550.574 72.1909
L549.742 72.6229
L549.326 72.6229
L548.91 72.7669
L548.494 73.0549
L548.078 73.1989
L547.662 72.9109
L546.413 73.3429
L545.997 73.1989
L545.581 73.3429
L545.165 73.7749
L544.749 73.9189
L544.333 73.7749
L543.5 73.9189
L543.084 74.4949
L542.668 74.3509
L542.252 74.4949
L541.836 74.7829
L541.42 74.7829
L541.004 75.2149
L540.588 74.9269
L540.172 74.9269
L539.756 75.3589
L539.339 75.2149
L538.923 75.2149
L538.091 76.5109
L537.675 76.2229
L537.259 76.2229
L536.843 76.5109
L536.011 76.7989
L535.178 77.3749
L534.762 77.8069
L534.346 77.6629
L533.93 77.8069
L533.514 78.0949
L533.098 77.8069
L532.682 78.0949
L530.601 78.0949
L529.353 79.2469
L527.688 79.8229
L527.272 79.6789
L526.44 80.8309
L526.024 80.6869
L525.608 80.9749
L525.192 80.8309
L524.776 80.8309
L524.36 80.9749
L523.943 80.9749
L523.527 81.6949
L522.695 82.4149
L521.863 82.7029
L521.447 82.7029
L521.031 82.9909
L520.615 83.4229
L520.198 83.4229
L519.366 83.7109
L518.95 83.7109
L518.534 84.1429
L518.118 84.1429
L515.205 85.7269
L514.789 86.1589
L514.373 86.0149
L513.957 86.0149
L513.541 86.1589
L512.709 86.8789
L512.292 86.7349
L511.876 87.0229
L511.46 87.7429
L511.044 87.7429
L510.212 88.0309
L509.38 88.0309
L508.964 88.3189
L508.547 88.3189
L508.131 88.6069
L507.715 89.0389
L507.299 88.7509
L506.883 88.7509
L506.467 89.0389
L506.051 89.9029
L505.635 90.0469
L505.219 89.9029
L504.803 90.0469
L504.386 89.9029
L503.97 90.3349
L503.554 90.4789
L502.722 90.3349
L500.641 90.1909
L500.225 90.7669
L499.393 91.4869
L498.977 92.2069
L498.561 92.3509
L498.145 92.6389
L497.313 92.7829
L496.896 93.0709
L493.568 93.3589
L478.172 98.9749
L476.091 98.9749
L475.675 99.6949
L474.843 99.6949
L473.178 100.271
L471.93 100.271
L471.514 100.847
L469.433 101.135
L469.017 101.999
L468.185 102.287
L467.769 103.151
L466.521 103.151
L466.105 103.295
L464.856 104.303
L464.024 104.303
L463.608 105.167
L461.527 104.303
L461.111 104.303
L460.695 104.447
L460.279 104.447
L459.863 104.303
L459.447 104.447
L458.198 105.023
L456.95 105.167
L456.534 105.167
L455.702 105.311
L455.286 105.167
L454.454 105.455
L453.621 106.031
L453.205 106.751
L452.373 106.463
L451.541 106.751
L451.125 107.327
L450.709 107.471
L450.292 107.903
L449.876 108.623
L449.46 108.911
L448.212 109.055
L447.796 110.207
L442.803 111.935
L442.386 111.935
L441.554 112.511
L440.722 112.511
L439.89 113.519
L439.058 113.519
L438.641 113.663
L438.225 113.951
L437.393 114.239
L436.977 114.815
L436.561 114.815
L436.145 114.959
L435.729 115.247
L434.896 115.535
L434.064 116.543
L433.648 116.543
L433.232 116.831
L432.816 116.975
L432.4 115.103
L431.568 114.959
L431.152 115.103
L430.319 115.679
L429.903 115.823
L429.487 117.407
L429.071 117.983
L427.823 118.415
L427.407 118.847
L426.99 118.703
L426.574 118.703
L426.158 117.695
L425.742 117.983
L425.326 118.559
L424.91 118.559
L424.494 118.991
L424.078 119.135
L423.662 118.991
L421.997 119.567
L421.165 119.999
L420.749 120.575
L420.333 120.575
L419.917 120.863
L419.5 120.863
L418.252 121.295
L417.836 121.295
L417.004 122.015
L416.588 122.015
L416.172 122.159
L415.756 122.015
L414.507 122.015
L414.091 122.303
L413.675 123.311
L413.259 122.591
L412.843 122.735
L412.427 123.023
L411.594 123.311
L411.178 123.311
L410.346 124.463
L409.93 124.463
L409.098 125.183
L407.849 125.039
L407.433 125.327
L407.017 125.759
L406.601 125.903
L406.185 125.903
L405.769 126.047
L405.353 126.047
L404.937 126.191
L404.521 126.479
L404.105 126.479
L403.688 126.623
L402.856 126.767
L402.44 127.199
L401.608 127.199
L401.192 127.055
L400.36 127.343
L399.527 127.343
L399.111 127.487
L398.695 127.487
L398.279 127.631
L397.863 127.631
L396.198 128.207
L395.782 128.207
L394.95 128.783
L394.534 128.783
L394.118 129.359
L393.702 129.359
L393.286 129.503
L392.87 129.791
L390.789 130.511
L389.957 130.511
L389.541 130.655
L389.125 130.655
L388.292 130.943
L387.876 130.943
L387.46 131.087
L387.044 130.943
L386.628 131.087
L385.796 131.951
L384.547 131.951
L384.131 132.095
L383.715 132.383
L383.299 132.527
L355.004 145.919
L348.346 150.383
L338.776 153.407
L336.279 154.703
L334.615 155.999
L325.876 158.879
L311.729 162.479
L311.313 162.767
L307.984 163.487
L307.984 163.487" style="fill:none;stroke:#000000;stroke-linecap:square;stroke-width:2;"/>
   </g>
   <g id="line2d_5">
    <path clip-path="url(#p6fd7a61c41)" d="
M614.239 40.7989
L589.272 168.671
L586.36 55.1989
L579.702 60.5269
L577.205 61.3909
L576.789 62.1109
L575.541 62.9749
L575.125 62.9749
L573.876 63.4069
L573.46 63.8389
L572.628 64.1269
L572.212 66.7189
L571.796 64.7029
L571.38 66.2869
L570.964 66.1429
L570.547 66.1429
L569.715 66.5749
L569.299 67.0069
L568.883 67.1509
L565.97 67.8709
L564.306 69.3109
L563.89 69.8869
L561.809 70.3189
L561.393 70.6069
L560.977 70.7509
L560.561 70.6069
L560.145 70.8949
L559.729 70.8949
L558.896 71.1829
L558.48 71.4709
L558.064 71.6149
L557.232 71.7589
L556.816 72.0469
L556.4 71.7589
L555.984 72.0469
L555.152 72.7669
L554.735 72.6229
L554.319 72.9109
L553.903 72.7669
L553.071 72.7669
L552.655 73.0549
L551.407 73.1989
L550.574 73.1989
L549.742 74.2069
L549.326 74.2069
L548.91 74.4949
L547.245 75.0709
L546.413 75.7909
L545.997 70.0309
L545.581 70.1749
L545.165 70.7509
L544.333 71.0389
L543.5 71.1829
L542.668 71.9029
L542.252 72.0469
L541.836 73.0549
L541.42 73.1989
L541.004 73.7749
L540.588 75.9349
L540.172 73.9189
L539.756 74.3509
L539.339 74.2069
L538.923 74.3509
L538.507 75.0709
L538.091 75.3589
L537.259 75.3589
L536.843 75.9349
L536.427 75.9349
L536.011 76.2229
L535.178 76.9429
L533.93 77.8069
L533.514 77.6629
L532.682 77.9509
L532.266 77.9509
L531.849 78.0949
L531.433 78.0949
L530.601 78.3829
L529.353 79.3909
L528.105 80.2549
L527.688 80.3989
L527.272 80.3989
L526.856 81.1189
L526.44 81.2629
L526.024 81.5509
L525.608 81.4069
L524.776 81.6949
L524.36 81.5509
L523.943 81.6949
L523.527 82.4149
L523.111 82.7029
L522.695 82.8469
L521.863 83.4229
L521.447 83.2789
L521.031 83.8549
L520.615 83.7109
L520.198 83.8549
L519.366 84.4309
L518.534 84.4309
L518.118 84.8629
L515.205 86.4469
L514.789 86.4469
L514.373 86.8789
L513.541 86.5909
L513.125 87.1669
L512.709 87.1669
L512.292 87.3109
L510.628 89.0389
L510.212 88.6069
L509.38 88.6069
L508.964 88.8949
L508.547 88.8949
L508.131 89.3269
L507.715 89.4709
L507.299 89.4709
L506.467 89.7589
L506.051 91.0549
L505.635 90.6229
L504.803 90.9109
L504.386 90.3349
L503.97 90.6229
L502.722 91.0549
L501.058 90.7669
L500.641 90.9109
L500.225 91.3429
L499.393 91.9189
L498.977 93.0709
L498.561 93.0709
L498.145 93.3589
L493.568 94.0789
L478.172 99.6949
L476.091 99.6949
L475.675 100.415
L471.93 100.991
L471.514 101.567
L469.433 101.567
L469.017 102.575
L468.185 102.863
L467.769 103.727
L466.521 103.727
L466.105 104.015
L464.856 104.735
L464.44 104.735
L464.024 104.879
L463.608 105.455
L461.527 104.879
L461.111 105.023
L460.695 104.879
L459.447 104.879
L458.198 105.599
L456.95 105.743
L455.286 105.743
L454.454 106.031
L453.621 106.607
L453.205 107.039
L452.373 107.039
L451.541 107.327
L451.125 107.759
L450.709 107.759
L449.46 109.487
L448.212 109.487
L447.796 110.783
L443.635 112.511
L442.386 112.655
L441.554 113.231
L440.722 113.231
L439.89 114.239
L438.641 114.239
L438.225 114.671
L437.393 114.959
L436.977 115.535
L434.896 116.255
L434.064 117.119
L434.064 117.119" style="fill:none;stroke:#bfbf00;stroke-linecap:square;stroke-width:2;"/>
   </g>
   <g id="line2d_6">
    <path clip-path="url(#p6fd7a61c41)" d="
M115.742 243.407
L115.742 13.0069" style="fill:none;stroke:#333333;stroke-linecap:square;"/>
   </g>
   <g id="line2d_7">
    <path clip-path="url(#p6fd7a61c41)" d="
M129.058 243.407
L129.058 13.0069" style="fill:none;stroke:#cccccc;stroke-linecap:square;"/>
   </g>
   <g id="line2d_8">
    <path clip-path="url(#p6fd7a61c41)" d="
M141.541 243.407
L141.541 13.0069" style="fill:none;stroke:#cccccc;stroke-linecap:square;"/>
   </g>
   <g id="line2d_9">
    <path clip-path="url(#p6fd7a61c41)" d="
M155.272 243.407
L155.272 13.0069" style="fill:none;stroke:#cccccc;stroke-linecap:square;"/>
   </g>
   <g id="line2d_10">
    <path clip-path="url(#p6fd7a61c41)" d="
M169.004 243.407
L169.004 13.0069" style="fill:none;stroke:#cccccc;stroke-linecap:square;"/>
   </g>
   <g id="line2d_11">
    <path clip-path="url(#p6fd7a61c41)" d="
M174.413 243.407
L174.413 13.0069" style="fill:none;stroke:#cccccc;stroke-linecap:square;"/>
   </g>
   <g id="line2d_12">
    <path clip-path="url(#p6fd7a61c41)" d="
M191.058 243.407
L191.058 13.0069" style="fill:none;stroke:#cccccc;stroke-linecap:square;"/>
   </g>
   <g id="line2d_13">
    <path clip-path="url(#p6fd7a61c41)" d="
M205.205 243.407
L205.205 13.0069" style="fill:none;stroke:#cccccc;stroke-linecap:square;"/>
   </g>
   <g id="line2d_14">
    <path clip-path="url(#p6fd7a61c41)" d="
M221.017 243.407
L221.017 13.0069" style="fill:none;stroke:#cccccc;stroke-linecap:square;"/>
   </g>
   <g id="line2d_15">
    <path clip-path="url(#p6fd7a61c41)" d="
M233.5 243.407
L233.5 13.0069" style="fill:none;stroke:#cccccc;stroke-linecap:square;"/>
   </g>
   <g id="line2d_16">
    <path clip-path="url(#p6fd7a61c41)" d="
M243.903 243.407
L243.903 13.0069" style="fill:none;stroke:#cccccc;stroke-linecap:square;"/>
   </g>
   <g id="line2d_17">
    <path clip-path="url(#p6fd7a61c41)" d="
M257.635 243.407
L257.635 13.0069" style="fill:none;stroke:#cccccc;stroke-linecap:square;"/>
   </g>
   <g id="line2d_18">
    <path clip-path="url(#p6fd7a61c41)" d="
M295.5 243.407
L295.5 13.0069" style="fill:none;stroke:#cccccc;stroke-linecap:square;"/>
   </g>
   <g id="line2d_19">
    <path clip-path="url(#p6fd7a61c41)" d="
M288.011 243.407
L288.011 13.0069" style="fill:none;stroke:#333333;stroke-linecap:square;"/>
   </g>
   <g id="line2d_20">
    <path clip-path="url(#p6fd7a61c41)" d="
M300.91 243.407
L300.91 13.0069" style="fill:none;stroke:#cccccc;stroke-linecap:square;"/>
   </g>
   <g id="line2d_21">
    <path clip-path="url(#p6fd7a61c41)" d="
M312.561 243.407
L312.561 13.0069" style="fill:none;stroke:#cccccc;stroke-linecap:square;"/>
   </g>
   <g id="line2d_22">
    <path clip-path="url(#p6fd7a61c41)" d="
M327.957 243.407
L327.957 13.0069" style="fill:none;stroke:#cccccc;stroke-linecap:square;"/>
   </g>
   <g id="line2d_23">
    <path clip-path="url(#p6fd7a61c41)" d="
M355.004 243.407
L355.004 13.0069" style="fill:none;stroke:#cccccc;stroke-linecap:square;"/>
   </g>
   <g id="line2d_24">
    <path clip-path="url(#p6fd7a61c41)" d="
M394.118 243.407
L394.118 13.0069" style="fill:none;stroke:#cccccc;stroke-linecap:square;"/>
   </g>
   <g id="line2d_25">
    <path clip-path="url(#p6fd7a61c41)" d="
M431.984 243.407
L431.984 13.0069" style="fill:none;stroke:#cccccc;stroke-linecap:square;"/>
   </g>
   <g id="line2d_26">
    <path clip-path="url(#p6fd7a61c41)" d="
M432.4 243.407
L432.4 13.0069" style="fill:none;stroke:#333333;stroke-linecap:square;"/>
   </g>
   <g id="line2d_27">
    <path clip-path="url(#p6fd7a61c41)" d="
M501.89 243.407
L501.89 13.0069" style="fill:none;stroke:#cccccc;stroke-linecap:square;"/>
   </g>
   <g id="line2d_28">
    <path clip-path="url(#p6fd7a61c41)" d="
M527.688 243.407
L527.688 13.0069" style="fill:none;stroke:#cccccc;stroke-linecap:square;"/>
   </g>
   <g id="line2d_29">
    <path clip-path="url(#p6fd7a61c41)" d="
M545.997 243.407
L545.997 13.0069" style="fill:none;stroke:#333333;stroke-linecap:square;"/>
   </g>
   <g id="matplotlib.axis_1">
    <g id="xtick_1">
     <g id="line2d_30">
      <defs>
       <path d="
M0 0
L0 -4" id="m93b0483c22" style="stroke:#000000;stroke-width:0.5;"/>
      </defs>
      <g>
       <use style="stroke:#000000;stroke-width:0.5;" x="94.9367365772" xlink:href="#m93b0483c22" y="243.406875"/>
      </g>
     </g>
     <g id="line2d_31">
      <defs>
       <path d="
M0 0
L0 4" id="m741efc42ff" style="stroke:#000000;stroke-width:0.5;"/>
      </defs>
      <g>
       <use style="stroke:#000000;stroke-width:0.5;" x="94.9367365772" xlink:href="#m741efc42ff" y="13.006875"/>
      </g>
     </g>
     <g id="text_1">
      <!-- Jul 2014 -->
      <defs>
       <path d="
M9.8125 72.9062
L19.6719 72.9062
L19.6719 5.07812
Q19.6719 -8.10938 14.6719 -14.0625
Q9.67188 -20.0156 -1.42188 -20.0156
L-5.17188 -20.0156
L-5.17188 -11.7188
L-2.09375 -11.7188
Q4.4375 -11.7188 7.125 -8.04688
Q9.8125 -4.39062 9.8125 5.07812
z
" id="DejaVuSans-4a"/>
       <path d="
M9.42188 75.9844
L18.4062 75.9844
L18.4062 0
L9.42188 0
z
" id="DejaVuSans-6c"/>
       <path d="
M12.4062 8.29688
L28.5156 8.29688
L28.5156 63.9219
L10.9844 60.4062
L10.9844 69.3906
L28.4219 72.9062
L38.2812 72.9062
L38.2812 8.29688
L54.3906 8.29688
L54.3906 0
L12.4062 0
z
" id="DejaVuSans-31"/>
       <path d="
M31.7812 66.4062
Q24.1719 66.4062 20.3281 58.9062
Q16.5 51.4219 16.5 36.375
Q16.5 21.3906 20.3281 13.8906
Q24.1719 6.39062 31.7812 6.39062
Q39.4531 6.39062 43.2812 13.8906
Q47.125 21.3906 47.125 36.375
Q47.125 51.4219 43.2812 58.9062
Q39.4531 66.4062 31.7812 66.4062
M31.7812 74.2188
Q44.0469 74.2188 50.5156 64.5156
Q56.9844 54.8281 56.9844 36.375
Q56.9844 17.9688 50.5156 8.26562
Q44.0469 -1.42188 31.7812 -1.42188
Q19.5312 -1.42188 13.0625 8.26562
Q6.59375 17.9688 6.59375 36.375
Q6.59375 54.8281 13.0625 64.5156
Q19.5312 74.2188 31.7812 74.2188" id="DejaVuSans-30"/>
       <path id="DejaVuSans-20"/>
       <path d="
M19.1875 8.29688
L53.6094 8.29688
L53.6094 0
L7.32812 0
L7.32812 8.29688
Q12.9375 14.1094 22.625 23.8906
Q32.3281 33.6875 34.8125 36.5312
Q39.5469 41.8438 41.4219 45.5312
Q43.3125 49.2188 43.3125 52.7812
Q43.3125 58.5938 39.2344 62.25
Q35.1562 65.9219 28.6094 65.9219
Q23.9688 65.9219 18.8125 64.3125
Q13.6719 62.7031 7.8125 59.4219
L7.8125 69.3906
Q13.7656 71.7812 18.9375 73
Q24.125 74.2188 28.4219 74.2188
Q39.75 74.2188 46.4844 68.5469
Q53.2188 62.8906 53.2188 53.4219
Q53.2188 48.9219 51.5312 44.8906
Q49.8594 40.875 45.4062 35.4062
Q44.1875 33.9844 37.6406 27.2188
Q31.1094 20.4531 19.1875 8.29688" id="DejaVuSans-32"/>
       <path d="
M37.7969 64.3125
L12.8906 25.3906
L37.7969 25.3906
z

M35.2031 72.9062
L47.6094 72.9062
L47.6094 25.3906
L58.0156 25.3906
L58.0156 17.1875
L47.6094 17.1875
L47.6094 0
L37.7969 0
L37.7969 17.1875
L4.89062 17.1875
L4.89062 26.7031
z
" id="DejaVuSans-34"/>
       <path d="
M8.5 21.5781
L8.5 54.6875
L17.4844 54.6875
L17.4844 21.9219
Q17.4844 14.1562 20.5 10.2656
Q23.5312 6.39062 29.5938 6.39062
Q36.8594 6.39062 41.0781 11.0312
Q45.3125 15.6719 45.3125 23.6875
L45.3125 54.6875
L54.2969 54.6875
L54.2969 0
L45.3125 0
L45.3125 8.40625
Q42.0469 3.42188 37.7188 1
Q33.4062 -1.42188 27.6875 -1.42188
Q18.2656 -1.42188 13.375 4.4375
Q8.5 10.2969 8.5 21.5781
M31.1094 56
z
" id="DejaVuSans-75"/>
      </defs>
      <g transform="translate(98.2479865772 296.186875)rotate(-90.0)scale(0.12 -0.12)">
       <use xlink:href="#DejaVuSans-4a"/>
       <use x="29.4921875" xlink:href="#DejaVuSans-75"/>
       <use x="92.87109375" xlink:href="#DejaVuSans-6c"/>
       <use x="120.654296875" xlink:href="#DejaVuSans-20"/>
       <use x="152.44140625" xlink:href="#DejaVuSans-32"/>
       <use x="216.064453125" xlink:href="#DejaVuSans-30"/>
       <use x="279.6875" xlink:href="#DejaVuSans-31"/>
       <use x="343.310546875" xlink:href="#DejaVuSans-34"/>
      </g>
     </g>
    </g>
    <g id="xtick_2">
     <g id="line2d_32">
      <g>
       <use style="stroke:#000000;stroke-width:0.5;" x="146.117944631" xlink:href="#m93b0483c22" y="243.406875"/>
      </g>
     </g>
     <g id="line2d_33">
      <g>
       <use style="stroke:#000000;stroke-width:0.5;" x="146.117944631" xlink:href="#m741efc42ff" y="13.006875"/>
      </g>
     </g>
     <g id="text_2">
      <!-- Nov 2014 -->
      <defs>
       <path d="
M30.6094 48.3906
Q23.3906 48.3906 19.1875 42.75
Q14.9844 37.1094 14.9844 27.2969
Q14.9844 17.4844 19.1562 11.8438
Q23.3438 6.20312 30.6094 6.20312
Q37.7969 6.20312 41.9844 11.8594
Q46.1875 17.5312 46.1875 27.2969
Q46.1875 37.0156 41.9844 42.7031
Q37.7969 48.3906 30.6094 48.3906
M30.6094 56
Q42.3281 56 49.0156 48.375
Q55.7188 40.7656 55.7188 27.2969
Q55.7188 13.875 49.0156 6.21875
Q42.3281 -1.42188 30.6094 -1.42188
Q18.8438 -1.42188 12.1719 6.21875
Q5.51562 13.875 5.51562 27.2969
Q5.51562 40.7656 12.1719 48.375
Q18.8438 56 30.6094 56" id="DejaVuSans-6f"/>
       <path d="
M9.8125 72.9062
L23.0938 72.9062
L55.4219 11.9219
L55.4219 72.9062
L64.9844 72.9062
L64.9844 0
L51.7031 0
L19.3906 60.9844
L19.3906 0
L9.8125 0
z
" id="DejaVuSans-4e"/>
       <path d="
M2.98438 54.6875
L12.5 54.6875
L29.5938 8.79688
L46.6875 54.6875
L56.2031 54.6875
L35.6875 0
L23.4844 0
z
" id="DejaVuSans-76"/>
      </defs>
      <g transform="translate(149.429194631 304.51)rotate(-90.0)scale(0.12 -0.12)">
       <use xlink:href="#DejaVuSans-4e"/>
       <use x="74.8046875" xlink:href="#DejaVuSans-6f"/>
       <use x="135.986328125" xlink:href="#DejaVuSans-76"/>
       <use x="195.166015625" xlink:href="#DejaVuSans-20"/>
       <use x="226.953125" xlink:href="#DejaVuSans-32"/>
       <use x="290.576171875" xlink:href="#DejaVuSans-30"/>
       <use x="354.19921875" xlink:href="#DejaVuSans-31"/>
       <use x="417.822265625" xlink:href="#DejaVuSans-34"/>
      </g>
     </g>
    </g>
    <g id="xtick_3">
     <g id="line2d_34">
      <g>
       <use style="stroke:#000000;stroke-width:0.5;" x="196.050830537" xlink:href="#m93b0483c22" y="243.406875"/>
      </g>
     </g>
     <g id="line2d_35">
      <g>
       <use style="stroke:#000000;stroke-width:0.5;" x="196.050830537" xlink:href="#m741efc42ff" y="13.006875"/>
      </g>
     </g>
     <g id="text_3">
      <!-- Mar 2015 -->
      <defs>
       <path d="
M9.8125 72.9062
L24.5156 72.9062
L43.1094 23.2969
L61.8125 72.9062
L76.5156 72.9062
L76.5156 0
L66.8906 0
L66.8906 64.0156
L48.0938 14.0156
L38.1875 14.0156
L19.3906 64.0156
L19.3906 0
L9.8125 0
z
" id="DejaVuSans-4d"/>
       <path d="
M41.1094 46.2969
Q39.5938 47.1719 37.8125 47.5781
Q36.0312 48 33.8906 48
Q26.2656 48 22.1875 43.0469
Q18.1094 38.0938 18.1094 28.8125
L18.1094 0
L9.07812 0
L9.07812 54.6875
L18.1094 54.6875
L18.1094 46.1875
Q20.9531 51.1719 25.4844 53.5781
Q30.0312 56 36.5312 56
Q37.4531 56 38.5781 55.875
Q39.7031 55.7656 41.0625 55.5156
z
" id="DejaVuSans-72"/>
       <path d="
M10.7969 72.9062
L49.5156 72.9062
L49.5156 64.5938
L19.8281 64.5938
L19.8281 46.7344
Q21.9688 47.4688 24.1094 47.8281
Q26.2656 48.1875 28.4219 48.1875
Q40.625 48.1875 47.75 41.5
Q54.8906 34.8125 54.8906 23.3906
Q54.8906 11.625 47.5625 5.09375
Q40.2344 -1.42188 26.9062 -1.42188
Q22.3125 -1.42188 17.5469 -0.640625
Q12.7969 0.140625 7.71875 1.70312
L7.71875 11.625
Q12.1094 9.23438 16.7969 8.0625
Q21.4844 6.89062 26.7031 6.89062
Q35.1562 6.89062 40.0781 11.3281
Q45.0156 15.7656 45.0156 23.3906
Q45.0156 31 40.0781 35.4375
Q35.1562 39.8906 26.7031 39.8906
Q22.75 39.8906 18.8125 39.0156
Q14.8906 38.1406 10.7969 36.2812
z
" id="DejaVuSans-35"/>
       <path d="
M34.2812 27.4844
Q23.3906 27.4844 19.1875 25
Q14.9844 22.5156 14.9844 16.5
Q14.9844 11.7188 18.1406 8.90625
Q21.2969 6.10938 26.7031 6.10938
Q34.1875 6.10938 38.7031 11.4062
Q43.2188 16.7031 43.2188 25.4844
L43.2188 27.4844
z

M52.2031 31.2031
L52.2031 0
L43.2188 0
L43.2188 8.29688
Q40.1406 3.32812 35.5469 0.953125
Q30.9531 -1.42188 24.3125 -1.42188
Q15.9219 -1.42188 10.9531 3.29688
Q6 8.01562 6 15.9219
Q6 25.1406 12.1719 29.8281
Q18.3594 34.5156 30.6094 34.5156
L43.2188 34.5156
L43.2188 35.4062
Q43.2188 41.6094 39.1406 45
Q35.0625 48.3906 27.6875 48.3906
Q23 48.3906 18.5469 47.2656
Q14.1094 46.1406 10.0156 43.8906
L10.0156 52.2031
Q14.9375 54.1094 19.5781 55.0469
Q24.2188 56 28.6094 56
Q40.4844 56 46.3438 49.8438
Q52.2031 43.7031 52.2031 31.2031" id="DejaVuSans-61"/>
      </defs>
      <g transform="translate(199.362080537 303.353125)rotate(-90.0)scale(0.12 -0.12)">
       <use xlink:href="#DejaVuSans-4d"/>
       <use x="86.279296875" xlink:href="#DejaVuSans-61"/>
       <use x="147.55859375" xlink:href="#DejaVuSans-72"/>
       <use x="188.671875" xlink:href="#DejaVuSans-20"/>
       <use x="220.458984375" xlink:href="#DejaVuSans-32"/>
       <use x="284.08203125" xlink:href="#DejaVuSans-30"/>
       <use x="347.705078125" xlink:href="#DejaVuSans-31"/>
       <use x="411.328125" xlink:href="#DejaVuSans-35"/>
      </g>
     </g>
    </g>
    <g id="xtick_4">
     <g id="line2d_36">
      <g>
       <use style="stroke:#000000;stroke-width:0.5;" x="246.815931208" xlink:href="#m93b0483c22" y="243.406875"/>
      </g>
     </g>
     <g id="line2d_37">
      <g>
       <use style="stroke:#000000;stroke-width:0.5;" x="246.815931208" xlink:href="#m741efc42ff" y="13.006875"/>
      </g>
     </g>
     <g id="text_4">
      <!-- Jul 2015 -->
      <g transform="translate(250.127181208 295.811875)rotate(-90.0)scale(0.12 -0.12)">
       <use xlink:href="#DejaVuSans-4a"/>
       <use x="29.4921875" xlink:href="#DejaVuSans-75"/>
       <use x="92.87109375" xlink:href="#DejaVuSans-6c"/>
       <use x="120.654296875" xlink:href="#DejaVuSans-20"/>
       <use x="152.44140625" xlink:href="#DejaVuSans-32"/>
       <use x="216.064453125" xlink:href="#DejaVuSans-30"/>
       <use x="279.6875" xlink:href="#DejaVuSans-31"/>
       <use x="343.310546875" xlink:href="#DejaVuSans-35"/>
      </g>
     </g>
    </g>
    <g id="xtick_5">
     <g id="line2d_38">
      <g>
       <use style="stroke:#000000;stroke-width:0.5;" x="297.997139262" xlink:href="#m93b0483c22" y="243.406875"/>
      </g>
     </g>
     <g id="line2d_39">
      <g>
       <use style="stroke:#000000;stroke-width:0.5;" x="297.997139262" xlink:href="#m741efc42ff" y="13.006875"/>
      </g>
     </g>
     <g id="text_5">
      <!-- Nov 2015 -->
      <g transform="translate(301.308389262 304.135)rotate(-90.0)scale(0.12 -0.12)">
       <use xlink:href="#DejaVuSans-4e"/>
       <use x="74.8046875" xlink:href="#DejaVuSans-6f"/>
       <use x="135.986328125" xlink:href="#DejaVuSans-76"/>
       <use x="195.166015625" xlink:href="#DejaVuSans-20"/>
       <use x="226.953125" xlink:href="#DejaVuSans-32"/>
       <use x="290.576171875" xlink:href="#DejaVuSans-30"/>
       <use x="354.19921875" xlink:href="#DejaVuSans-31"/>
       <use x="417.822265625" xlink:href="#DejaVuSans-35"/>
      </g>
     </g>
    </g>
    <g id="xtick_6">
     <g id="line2d_40">
      <g>
       <use style="stroke:#000000;stroke-width:0.5;" x="348.34613255" xlink:href="#m93b0483c22" y="243.406875"/>
      </g>
     </g>
     <g id="line2d_41">
      <g>
       <use style="stroke:#000000;stroke-width:0.5;" x="348.34613255" xlink:href="#m741efc42ff" y="13.006875"/>
      </g>
     </g>
     <g id="text_6">
      <!-- Mar 2016 -->
      <defs>
       <path d="
M33.0156 40.375
Q26.375 40.375 22.4844 35.8281
Q18.6094 31.2969 18.6094 23.3906
Q18.6094 15.5312 22.4844 10.9531
Q26.375 6.39062 33.0156 6.39062
Q39.6562 6.39062 43.5312 10.9531
Q47.4062 15.5312 47.4062 23.3906
Q47.4062 31.2969 43.5312 35.8281
Q39.6562 40.375 33.0156 40.375
M52.5938 71.2969
L52.5938 62.3125
Q48.875 64.0625 45.0938 64.9844
Q41.3125 65.9219 37.5938 65.9219
Q27.8281 65.9219 22.6719 59.3281
Q17.5312 52.7344 16.7969 39.4062
Q19.6719 43.6562 24.0156 45.9219
Q28.375 48.1875 33.5938 48.1875
Q44.5781 48.1875 50.9531 41.5156
Q57.3281 34.8594 57.3281 23.3906
Q57.3281 12.1562 50.6875 5.35938
Q44.0469 -1.42188 33.0156 -1.42188
Q20.3594 -1.42188 13.6719 8.26562
Q6.98438 17.9688 6.98438 36.375
Q6.98438 53.6562 15.1875 63.9375
Q23.3906 74.2188 37.2031 74.2188
Q40.9219 74.2188 44.7031 73.4844
Q48.4844 72.75 52.5938 71.2969" id="DejaVuSans-36"/>
      </defs>
      <g transform="translate(351.65738255 303.645625)rotate(-90.0)scale(0.12 -0.12)">
       <use xlink:href="#DejaVuSans-4d"/>
       <use x="86.279296875" xlink:href="#DejaVuSans-61"/>
       <use x="147.55859375" xlink:href="#DejaVuSans-72"/>
       <use x="188.671875" xlink:href="#DejaVuSans-20"/>
       <use x="220.458984375" xlink:href="#DejaVuSans-32"/>
       <use x="284.08203125" xlink:href="#DejaVuSans-30"/>
       <use x="347.705078125" xlink:href="#DejaVuSans-31"/>
       <use x="411.328125" xlink:href="#DejaVuSans-36"/>
      </g>
     </g>
    </g>
    <g id="xtick_7">
     <g id="line2d_42">
      <g>
       <use style="stroke:#000000;stroke-width:0.5;" x="399.111233222" xlink:href="#m93b0483c22" y="243.406875"/>
      </g>
     </g>
     <g id="line2d_43">
      <g>
       <use style="stroke:#000000;stroke-width:0.5;" x="399.111233222" xlink:href="#m741efc42ff" y="13.006875"/>
      </g>
     </g>
     <g id="text_7">
      <!-- Jul 2016 -->
      <g transform="translate(402.422483222 296.104375)rotate(-90.0)scale(0.12 -0.12)">
       <use xlink:href="#DejaVuSans-4a"/>
       <use x="29.4921875" xlink:href="#DejaVuSans-75"/>
       <use x="92.87109375" xlink:href="#DejaVuSans-6c"/>
       <use x="120.654296875" xlink:href="#DejaVuSans-20"/>
       <use x="152.44140625" xlink:href="#DejaVuSans-32"/>
       <use x="216.064453125" xlink:href="#DejaVuSans-30"/>
       <use x="279.6875" xlink:href="#DejaVuSans-31"/>
       <use x="343.310546875" xlink:href="#DejaVuSans-36"/>
      </g>
     </g>
    </g>
    <g id="xtick_8">
     <g id="line2d_44">
      <g>
       <use style="stroke:#000000;stroke-width:0.5;" x="450.292441275" xlink:href="#m93b0483c22" y="243.406875"/>
      </g>
     </g>
     <g id="line2d_45">
      <g>
       <use style="stroke:#000000;stroke-width:0.5;" x="450.292441275" xlink:href="#m741efc42ff" y="13.006875"/>
      </g>
     </g>
     <g id="text_8">
      <!-- Nov 2016 -->
      <g transform="translate(453.603691275 304.4275)rotate(-90.0)scale(0.12 -0.12)">
       <use xlink:href="#DejaVuSans-4e"/>
       <use x="74.8046875" xlink:href="#DejaVuSans-6f"/>
       <use x="135.986328125" xlink:href="#DejaVuSans-76"/>
       <use x="195.166015625" xlink:href="#DejaVuSans-20"/>
       <use x="226.953125" xlink:href="#DejaVuSans-32"/>
       <use x="290.576171875" xlink:href="#DejaVuSans-30"/>
       <use x="354.19921875" xlink:href="#DejaVuSans-31"/>
       <use x="417.822265625" xlink:href="#DejaVuSans-36"/>
      </g>
     </g>
    </g>
    <g id="xtick_9">
     <g id="line2d_46">
      <g>
       <use style="stroke:#000000;stroke-width:0.5;" x="500.225327181" xlink:href="#m93b0483c22" y="243.406875"/>
      </g>
     </g>
     <g id="line2d_47">
      <g>
       <use style="stroke:#000000;stroke-width:0.5;" x="500.225327181" xlink:href="#m741efc42ff" y="13.006875"/>
      </g>
     </g>
     <g id="text_9">
      <!-- Mar 2017 -->
      <defs>
       <path d="
M8.20312 72.9062
L55.0781 72.9062
L55.0781 68.7031
L28.6094 0
L18.3125 0
L43.2188 64.5938
L8.20312 64.5938
z
" id="DejaVuSans-37"/>
      </defs>
      <g transform="translate(503.536577181 303.375625)rotate(-90.0)scale(0.12 -0.12)">
       <use xlink:href="#DejaVuSans-4d"/>
       <use x="86.279296875" xlink:href="#DejaVuSans-61"/>
       <use x="147.55859375" xlink:href="#DejaVuSans-72"/>
       <use x="188.671875" xlink:href="#DejaVuSans-20"/>
       <use x="220.458984375" xlink:href="#DejaVuSans-32"/>
       <use x="284.08203125" xlink:href="#DejaVuSans-30"/>
       <use x="347.705078125" xlink:href="#DejaVuSans-31"/>
       <use x="411.328125" xlink:href="#DejaVuSans-37"/>
      </g>
     </g>
    </g>
    <g id="xtick_10">
     <g id="line2d_48">
      <g>
       <use style="stroke:#000000;stroke-width:0.5;" x="550.990427852" xlink:href="#m93b0483c22" y="243.406875"/>
      </g>
     </g>
     <g id="line2d_49">
      <g>
       <use style="stroke:#000000;stroke-width:0.5;" x="550.990427852" xlink:href="#m741efc42ff" y="13.006875"/>
      </g>
     </g>
     <g id="text_10">
      <!-- Jul 2017 -->
      <g transform="translate(554.301677852 295.834375)rotate(-90.0)scale(0.12 -0.12)">
       <use xlink:href="#DejaVuSans-4a"/>
       <use x="29.4921875" xlink:href="#DejaVuSans-75"/>
       <use x="92.87109375" xlink:href="#DejaVuSans-6c"/>
       <use x="120.654296875" xlink:href="#DejaVuSans-20"/>
       <use x="152.44140625" xlink:href="#DejaVuSans-32"/>
       <use x="216.064453125" xlink:href="#DejaVuSans-30"/>
       <use x="279.6875" xlink:href="#DejaVuSans-31"/>
       <use x="343.310546875" xlink:href="#DejaVuSans-37"/>
      </g>
     </g>
    </g>
    <g id="xtick_11">
     <g id="line2d_50">
      <g>
       <use style="stroke:#000000;stroke-width:0.5;" x="602.171635906" xlink:href="#m93b0483c22" y="243.406875"/>
      </g>
     </g>
     <g id="line2d_51">
      <g>
       <use style="stroke:#000000;stroke-width:0.5;" x="602.171635906" xlink:href="#m741efc42ff" y="13.006875"/>
      </g>
     </g>
     <g id="text_11">
      <!-- Nov 2017 -->
      <g transform="translate(605.482885906 304.1575)rotate(-90.0)scale(0.12 -0.12)">
       <use xlink:href="#DejaVuSans-4e"/>
       <use x="74.8046875" xlink:href="#DejaVuSans-6f"/>
       <use x="135.986328125" xlink:href="#DejaVuSans-76"/>
       <use x="195.166015625" xlink:href="#DejaVuSans-20"/>
       <use x="226.953125" xlink:href="#DejaVuSans-32"/>
       <use x="290.576171875" xlink:href="#DejaVuSans-30"/>
       <use x="354.19921875" xlink:href="#DejaVuSans-31"/>
       <use x="417.822265625" xlink:href="#DejaVuSans-37"/>
      </g>
     </g>
    </g>
   </g>
   <g id="matplotlib.axis_2">
    <g id="ytick_1">
     <g id="line2d_52">
      <defs>
       <path d="
M0 0
L4 0" id="m728421d6d4" style="stroke:#000000;stroke-width:0.5;"/>
      </defs>
      <g>
       <use style="stroke:#000000;stroke-width:0.5;" x="56.23875" xlink:href="#m728421d6d4" y="243.406875"/>
      </g>
     </g>
     <g id="line2d_53">
      <defs>
       <path d="
M0 0
L-4 0" id="mcb0005524f" style="stroke:#000000;stroke-width:0.5;"/>
      </defs>
      <g>
       <use style="stroke:#000000;stroke-width:0.5;" x="614.23875" xlink:href="#mcb0005524f" y="243.406875"/>
      </g>
     </g>
     <g id="text_12">
      <!-- 200 -->
      <g transform="translate(31.01 246.718125)scale(0.12 -0.12)">
       <use xlink:href="#DejaVuSans-32"/>
       <use x="63.623046875" xlink:href="#DejaVuSans-30"/>
       <use x="127.24609375" xlink:href="#DejaVuSans-30"/>
      </g>
     </g>
    </g>
    <g id="ytick_2">
     <g id="line2d_54">
      <g>
       <use style="stroke:#000000;stroke-width:0.5;" x="56.23875" xlink:href="#m728421d6d4" y="214.606875"/>
      </g>
     </g>
     <g id="line2d_55">
      <g>
       <use style="stroke:#000000;stroke-width:0.5;" x="614.23875" xlink:href="#mcb0005524f" y="214.606875"/>
      </g>
     </g>
     <g id="text_13">
      <!-- 400 -->
      <g transform="translate(30.7175 217.918125)scale(0.12 -0.12)">
       <use xlink:href="#DejaVuSans-34"/>
       <use x="63.623046875" xlink:href="#DejaVuSans-30"/>
       <use x="127.24609375" xlink:href="#DejaVuSans-30"/>
      </g>
     </g>
    </g>
    <g id="ytick_3">
     <g id="line2d_56">
      <g>
       <use style="stroke:#000000;stroke-width:0.5;" x="56.23875" xlink:href="#m728421d6d4" y="185.806875"/>
      </g>
     </g>
     <g id="line2d_57">
      <g>
       <use style="stroke:#000000;stroke-width:0.5;" x="614.23875" xlink:href="#mcb0005524f" y="185.806875"/>
      </g>
     </g>
     <g id="text_14">
      <!-- 600 -->
      <g transform="translate(30.96875 189.118125)scale(0.12 -0.12)">
       <use xlink:href="#DejaVuSans-36"/>
       <use x="63.623046875" xlink:href="#DejaVuSans-30"/>
       <use x="127.24609375" xlink:href="#DejaVuSans-30"/>
      </g>
     </g>
    </g>
    <g id="ytick_4">
     <g id="line2d_58">
      <g>
       <use style="stroke:#000000;stroke-width:0.5;" x="56.23875" xlink:href="#m728421d6d4" y="157.006875"/>
      </g>
     </g>
     <g id="line2d_59">
      <g>
       <use style="stroke:#000000;stroke-width:0.5;" x="614.23875" xlink:href="#mcb0005524f" y="157.006875"/>
      </g>
     </g>
     <g id="text_15">
      <!-- 800 -->
      <defs>
       <path d="
M31.7812 34.625
Q24.75 34.625 20.7188 30.8594
Q16.7031 27.0938 16.7031 20.5156
Q16.7031 13.9219 20.7188 10.1562
Q24.75 6.39062 31.7812 6.39062
Q38.8125 6.39062 42.8594 10.1719
Q46.9219 13.9688 46.9219 20.5156
Q46.9219 27.0938 42.8906 30.8594
Q38.875 34.625 31.7812 34.625
M21.9219 38.8125
Q15.5781 40.375 12.0312 44.7188
Q8.5 49.0781 8.5 55.3281
Q8.5 64.0625 14.7188 69.1406
Q20.9531 74.2188 31.7812 74.2188
Q42.6719 74.2188 48.875 69.1406
Q55.0781 64.0625 55.0781 55.3281
Q55.0781 49.0781 51.5312 44.7188
Q48 40.375 41.7031 38.8125
Q48.8281 37.1562 52.7969 32.3125
Q56.7812 27.4844 56.7812 20.5156
Q56.7812 9.90625 50.3125 4.23438
Q43.8438 -1.42188 31.7812 -1.42188
Q19.7344 -1.42188 13.25 4.23438
Q6.78125 9.90625 6.78125 20.5156
Q6.78125 27.4844 10.7812 32.3125
Q14.7969 37.1562 21.9219 38.8125
M18.3125 54.3906
Q18.3125 48.7344 21.8438 45.5625
Q25.3906 42.3906 31.7812 42.3906
Q38.1406 42.3906 41.7188 45.5625
Q45.3125 48.7344 45.3125 54.3906
Q45.3125 60.0625 41.7188 63.2344
Q38.1406 66.4062 31.7812 66.4062
Q25.3906 66.4062 21.8438 63.2344
Q18.3125 60.0625 18.3125 54.3906" id="DejaVuSans-38"/>
      </defs>
      <g transform="translate(30.944375 160.318125)scale(0.12 -0.12)">
       <use xlink:href="#DejaVuSans-38"/>
       <use x="63.623046875" xlink:href="#DejaVuSans-30"/>
       <use x="127.24609375" xlink:href="#DejaVuSans-30"/>
      </g>
     </g>
    </g>
    <g id="ytick_5">
     <g id="line2d_60">
      <g>
       <use style="stroke:#000000;stroke-width:0.5;" x="56.23875" xlink:href="#m728421d6d4" y="128.206875"/>
      </g>
     </g>
     <g id="line2d_61">
      <g>
       <use style="stroke:#000000;stroke-width:0.5;" x="614.23875" xlink:href="#mcb0005524f" y="128.206875"/>
      </g>
     </g>
     <g id="text_16">
      <!-- 1000 -->
      <g transform="translate(23.81375 131.518125)scale(0.12 -0.12)">
       <use xlink:href="#DejaVuSans-31"/>
       <use x="63.623046875" xlink:href="#DejaVuSans-30"/>
       <use x="127.24609375" xlink:href="#DejaVuSans-30"/>
       <use x="190.869140625" xlink:href="#DejaVuSans-30"/>
      </g>
     </g>
    </g>
    <g id="ytick_6">
     <g id="line2d_62">
      <g>
       <use style="stroke:#000000;stroke-width:0.5;" x="56.23875" xlink:href="#m728421d6d4" y="99.406875"/>
      </g>
     </g>
     <g id="line2d_63">
      <g>
       <use style="stroke:#000000;stroke-width:0.5;" x="614.23875" xlink:href="#mcb0005524f" y="99.406875"/>
      </g>
     </g>
     <g id="text_17">
      <!-- 1200 -->
      <g transform="translate(23.81375 102.718125)scale(0.12 -0.12)">
       <use xlink:href="#DejaVuSans-31"/>
       <use x="63.623046875" xlink:href="#DejaVuSans-32"/>
       <use x="127.24609375" xlink:href="#DejaVuSans-30"/>
       <use x="190.869140625" xlink:href="#DejaVuSans-30"/>
      </g>
     </g>
    </g>
    <g id="ytick_7">
     <g id="line2d_64">
      <g>
       <use style="stroke:#000000;stroke-width:0.5;" x="56.23875" xlink:href="#m728421d6d4" y="70.606875"/>
      </g>
     </g>
     <g id="line2d_65">
      <g>
       <use style="stroke:#000000;stroke-width:0.5;" x="614.23875" xlink:href="#mcb0005524f" y="70.606875"/>
      </g>
     </g>
     <g id="text_18">
      <!-- 1400 -->
      <g transform="translate(23.81375 73.918125)scale(0.12 -0.12)">
       <use xlink:href="#DejaVuSans-31"/>
       <use x="63.623046875" xlink:href="#DejaVuSans-34"/>
       <use x="127.24609375" xlink:href="#DejaVuSans-30"/>
       <use x="190.869140625" xlink:href="#DejaVuSans-30"/>
      </g>
     </g>
    </g>
    <g id="ytick_8">
     <g id="line2d_66">
      <g>
       <use style="stroke:#000000;stroke-width:0.5;" x="56.23875" xlink:href="#m728421d6d4" y="41.806875"/>
      </g>
     </g>
     <g id="line2d_67">
      <g>
       <use style="stroke:#000000;stroke-width:0.5;" x="614.23875" xlink:href="#mcb0005524f" y="41.806875"/>
      </g>
     </g>
     <g id="text_19">
      <!-- 1600 -->
      <g transform="translate(23.81375 45.118125)scale(0.12 -0.12)">
       <use xlink:href="#DejaVuSans-31"/>
       <use x="63.623046875" xlink:href="#DejaVuSans-36"/>
       <use x="127.24609375" xlink:href="#DejaVuSans-30"/>
       <use x="190.869140625" xlink:href="#DejaVuSans-30"/>
      </g>
     </g>
    </g>
    <g id="ytick_9">
     <g id="line2d_68">
      <g>
       <use style="stroke:#000000;stroke-width:0.5;" x="56.23875" xlink:href="#m728421d6d4" y="13.006875"/>
      </g>
     </g>
     <g id="line2d_69">
      <g>
       <use style="stroke:#000000;stroke-width:0.5;" x="614.23875" xlink:href="#mcb0005524f" y="13.006875"/>
      </g>
     </g>
     <g id="text_20">
      <!-- 1800 -->
      <g transform="translate(23.81375 16.318125)scale(0.12 -0.12)">
       <use xlink:href="#DejaVuSans-31"/>
       <use x="63.623046875" xlink:href="#DejaVuSans-38"/>
       <use x="127.24609375" xlink:href="#DejaVuSans-30"/>
       <use x="190.869140625" xlink:href="#DejaVuSans-30"/>
      </g>
     </g>
    </g>
    <g id="text_21">
     <!-- Number of Tagged Packages -->
     <defs>
      <path d="
M19.6719 64.7969
L19.6719 37.4062
L32.0781 37.4062
Q38.9688 37.4062 42.7188 40.9688
Q46.4844 44.5312 46.4844 51.125
Q46.4844 57.6719 42.7188 61.2344
Q38.9688 64.7969 32.0781 64.7969
z

M9.8125 72.9062
L32.0781 72.9062
Q44.3438 72.9062 50.6094 67.3594
Q56.8906 61.8125 56.8906 51.125
Q56.8906 40.3281 50.6094 34.8125
Q44.3438 29.2969 32.0781 29.2969
L19.6719 29.2969
L19.6719 0
L9.8125 0
z
" id="DejaVuSans-50"/>
      <path d="
M52 44.1875
Q55.375 50.25 60.0625 53.125
Q64.75 56 71.0938 56
Q79.6406 56 84.2812 50.0156
Q88.9219 44.0469 88.9219 33.0156
L88.9219 0
L79.8906 0
L79.8906 32.7188
Q79.8906 40.5781 77.0938 44.375
Q74.3125 48.1875 68.6094 48.1875
Q61.625 48.1875 57.5625 43.5469
Q53.5156 38.9219 53.5156 30.9062
L53.5156 0
L44.4844 0
L44.4844 32.7188
Q44.4844 40.625 41.7031 44.4062
Q38.9219 48.1875 33.1094 48.1875
Q26.2188 48.1875 22.1562 43.5312
Q18.1094 38.875 18.1094 30.9062
L18.1094 0
L9.07812 0
L9.07812 54.6875
L18.1094 54.6875
L18.1094 46.1875
Q21.1875 51.2188 25.4844 53.6094
Q29.7812 56 35.6875 56
Q41.6562 56 45.8281 52.9688
Q50 49.9531 52 44.1875" id="DejaVuSans-6d"/>
      <path d="
M9.07812 75.9844
L18.1094 75.9844
L18.1094 31.1094
L44.9219 54.6875
L56.3906 54.6875
L27.3906 29.1094
L57.625 0
L45.9062 0
L18.1094 26.7031
L18.1094 0
L9.07812 0
z
" id="DejaVuSans-6b"/>
      <path d="
M37.1094 75.9844
L37.1094 68.5
L28.5156 68.5
Q23.6875 68.5 21.7969 66.5469
Q19.9219 64.5938 19.9219 59.5156
L19.9219 54.6875
L34.7188 54.6875
L34.7188 47.7031
L19.9219 47.7031
L19.9219 0
L10.8906 0
L10.8906 47.7031
L2.29688 47.7031
L2.29688 54.6875
L10.8906 54.6875
L10.8906 58.5
Q10.8906 67.625 15.1406 71.7969
Q19.3906 75.9844 28.6094 75.9844
z
" id="DejaVuSans-66"/>
      <path d="
M45.4062 27.9844
Q45.4062 37.75 41.375 43.1094
Q37.3594 48.4844 30.0781 48.4844
Q22.8594 48.4844 18.8281 43.1094
Q14.7969 37.75 14.7969 27.9844
Q14.7969 18.2656 18.8281 12.8906
Q22.8594 7.51562 30.0781 7.51562
Q37.3594 7.51562 41.375 12.8906
Q45.4062 18.2656 45.4062 27.9844
M54.3906 6.78125
Q54.3906 -7.17188 48.1875 -13.9844
Q42 -20.7969 29.2031 -20.7969
Q24.4688 -20.7969 20.2656 -20.0938
Q16.0625 -19.3906 12.1094 -17.9219
L12.1094 -9.1875
Q16.0625 -11.3281 19.9219 -12.3438
Q23.7812 -13.375 27.7812 -13.375
Q36.625 -13.375 41.0156 -8.76562
Q45.4062 -4.15625 45.4062 5.17188
L45.4062 9.625
Q42.625 4.78125 38.2812 2.39062
Q33.9375 0 27.875 0
Q17.8281 0 11.6719 7.65625
Q5.51562 15.3281 5.51562 27.9844
Q5.51562 40.6719 11.6719 48.3281
Q17.8281 56 27.875 56
Q33.9375 56 38.2812 53.6094
Q42.625 51.2188 45.4062 46.3906
L45.4062 54.6875
L54.3906 54.6875
z
" id="DejaVuSans-67"/>
      <path d="
M45.4062 46.3906
L45.4062 75.9844
L54.3906 75.9844
L54.3906 0
L45.4062 0
L45.4062 8.20312
Q42.5781 3.32812 38.25 0.953125
Q33.9375 -1.42188 27.875 -1.42188
Q17.9688 -1.42188 11.7344 6.48438
Q5.51562 14.4062 5.51562 27.2969
Q5.51562 40.1875 11.7344 48.0938
Q17.9688 56 27.875 56
Q33.9375 56 38.25 53.625
Q42.5781 51.2656 45.4062 46.3906
M14.7969 27.2969
Q14.7969 17.3906 18.875 11.75
Q22.9531 6.10938 30.0781 6.10938
Q37.2031 6.10938 41.2969 11.75
Q45.4062 17.3906 45.4062 27.2969
Q45.4062 37.2031 41.2969 42.8438
Q37.2031 48.4844 30.0781 48.4844
Q22.9531 48.4844 18.875 42.8438
Q14.7969 37.2031 14.7969 27.2969" id="DejaVuSans-64"/>
      <path d="
M56.2031 29.5938
L56.2031 25.2031
L14.8906 25.2031
Q15.4844 15.9219 20.4844 11.0625
Q25.4844 6.20312 34.4219 6.20312
Q39.5938 6.20312 44.4531 7.46875
Q49.3125 8.73438 54.1094 11.2812
L54.1094 2.78125
Q49.2656 0.734375 44.1875 -0.34375
Q39.1094 -1.42188 33.8906 -1.42188
Q20.7969 -1.42188 13.1562 6.1875
Q5.51562 13.8125 5.51562 26.8125
Q5.51562 40.2344 12.7656 48.1094
Q20.0156 56 32.3281 56
Q43.3594 56 49.7812 48.8906
Q56.2031 41.7969 56.2031 29.5938
M47.2188 32.2344
Q47.125 39.5938 43.0938 43.9844
Q39.0625 48.3906 32.4219 48.3906
Q24.9062 48.3906 20.3906 44.1406
Q15.875 39.8906 15.1875 32.1719
z
" id="DejaVuSans-65"/>
      <path d="
M48.6875 27.2969
Q48.6875 37.2031 44.6094 42.8438
Q40.5312 48.4844 33.4062 48.4844
Q26.2656 48.4844 22.1875 42.8438
Q18.1094 37.2031 18.1094 27.2969
Q18.1094 17.3906 22.1875 11.75
Q26.2656 6.10938 33.4062 6.10938
Q40.5312 6.10938 44.6094 11.75
Q48.6875 17.3906 48.6875 27.2969
M18.1094 46.3906
Q20.9531 51.2656 25.2656 53.625
Q29.5938 56 35.5938 56
Q45.5625 56 51.7812 48.0938
Q58.0156 40.1875 58.0156 27.2969
Q58.0156 14.4062 51.7812 6.48438
Q45.5625 -1.42188 35.5938 -1.42188
Q29.5938 -1.42188 25.2656 0.953125
Q20.9531 3.32812 18.1094 8.20312
L18.1094 0
L9.07812 0
L9.07812 75.9844
L18.1094 75.9844
z
" id="DejaVuSans-62"/>
      <path d="
M48.7812 52.5938
L48.7812 44.1875
Q44.9688 46.2969 41.1406 47.3438
Q37.3125 48.3906 33.4062 48.3906
Q24.6562 48.3906 19.8125 42.8438
Q14.9844 37.3125 14.9844 27.2969
Q14.9844 17.2812 19.8125 11.7344
Q24.6562 6.20312 33.4062 6.20312
Q37.3125 6.20312 41.1406 7.25
Q44.9688 8.29688 48.7812 10.4062
L48.7812 2.09375
Q45.0156 0.34375 40.9844 -0.53125
Q36.9688 -1.42188 32.4219 -1.42188
Q20.0625 -1.42188 12.7812 6.34375
Q5.51562 14.1094 5.51562 27.2969
Q5.51562 40.6719 12.8594 48.3281
Q20.2188 56 33.0156 56
Q37.1562 56 41.1094 55.1406
Q45.0625 54.2969 48.7812 52.5938" id="DejaVuSans-63"/>
      <path d="
M44.2812 53.0781
L44.2812 44.5781
Q40.4844 46.5312 36.375 47.5
Q32.2812 48.4844 27.875 48.4844
Q21.1875 48.4844 17.8438 46.4375
Q14.5 44.3906 14.5 40.2812
Q14.5 37.1562 16.8906 35.375
Q19.2812 33.5938 26.5156 31.9844
L29.5938 31.2969
Q39.1562 29.25 43.1875 25.5156
Q47.2188 21.7812 47.2188 15.0938
Q47.2188 7.46875 41.1875 3.01562
Q35.1562 -1.42188 24.6094 -1.42188
Q20.2188 -1.42188 15.4531 -0.5625
Q10.6875 0.296875 5.42188 2
L5.42188 11.2812
Q10.4062 8.6875 15.2344 7.39062
Q20.0625 6.10938 24.8125 6.10938
Q31.1562 6.10938 34.5625 8.28125
Q37.9844 10.4531 37.9844 14.4062
Q37.9844 18.0625 35.5156 20.0156
Q33.0625 21.9688 24.7031 23.7812
L21.5781 24.5156
Q13.2344 26.2656 9.51562 29.9062
Q5.8125 33.5469 5.8125 39.8906
Q5.8125 47.6094 11.2812 51.7969
Q16.75 56 26.8125 56
Q31.7812 56 36.1719 55.2656
Q40.5781 54.5469 44.2812 53.0781" id="DejaVuSans-73"/>
      <path d="
M-0.296875 72.9062
L61.375 72.9062
L61.375 64.5938
L35.5 64.5938
L35.5 0
L25.5938 0
L25.5938 64.5938
L-0.296875 64.5938
z
" id="DejaVuSans-54"/>
     </defs>
     <g transform="translate(16.318125 212.98875)rotate(-90.0)scale(0.12 -0.12)">
      <use xlink:href="#DejaVuSans-4e"/>
      <use x="74.8046875" xlink:href="#DejaVuSans-75"/>
      <use x="138.18359375" xlink:href="#DejaVuSans-6d"/>
      <use x="235.595703125" xlink:href="#DejaVuSans-62"/>
      <use x="299.072265625" xlink:href="#DejaVuSans-65"/>
      <use x="360.595703125" xlink:href="#DejaVuSans-72"/>
      <use x="401.708984375" xlink:href="#DejaVuSans-20"/>
      <use x="433.49609375" xlink:href="#DejaVuSans-6f"/>
      <use x="494.677734375" xlink:href="#DejaVuSans-66"/>
      <use x="529.8828125" xlink:href="#DejaVuSans-20"/>
      <use x="561.669921875" xlink:href="#DejaVuSans-54"/>
      <use x="606.25390625" xlink:href="#DejaVuSans-61"/>
      <use x="667.533203125" xlink:href="#DejaVuSans-67"/>
      <use x="731.009765625" xlink:href="#DejaVuSans-67"/>
      <use x="794.486328125" xlink:href="#DejaVuSans-65"/>
      <use x="856.009765625" xlink:href="#DejaVuSans-64"/>
      <use x="919.486328125" xlink:href="#DejaVuSans-20"/>
      <use x="951.2734375" xlink:href="#DejaVuSans-50"/>
      <use x="1007.07617188" xlink:href="#DejaVuSans-61"/>
      <use x="1068.35546875" xlink:href="#DejaVuSans-63"/>
      <use x="1123.3359375" xlink:href="#DejaVuSans-6b"/>
      <use x="1179.49609375" xlink:href="#DejaVuSans-61"/>
      <use x="1240.77539062" xlink:href="#DejaVuSans-67"/>
      <use x="1304.25195312" xlink:href="#DejaVuSans-65"/>
      <use x="1365.77539062" xlink:href="#DejaVuSans-73"/>
     </g>
    </g>
   </g>
   <g id="patch_3">
    <path d="
M56.2388 13.0069
L614.239 13.0069" style="fill:none;stroke:#000000;"/>
   </g>
   <g id="patch_4">
    <path d="
M614.239 243.407
L614.239 13.0069" style="fill:none;stroke:#000000;"/>
   </g>
   <g id="patch_5">
    <path d="
M56.2388 243.407
L614.239 243.407" style="fill:none;stroke:#000000;"/>
   </g>
   <g id="patch_6">
    <path d="
M56.2388 243.407
L56.2388 13.0069" style="fill:none;stroke:#000000;"/>
   </g>
   <g id="text_22">
    <g id="patch_7">
     <path d="
M108.905 160.199
L122.579 160.199
L122.579 125.811
L108.905 125.811
z
" style="fill:#ffffff;stroke:#ffffff;"/>
    </g>
    <!-- v0.3.0 -->
    <defs>
     <path d="
M40.5781 39.3125
Q47.6562 37.7969 51.625 33
Q55.6094 28.2188 55.6094 21.1875
Q55.6094 10.4062 48.1875 4.48438
Q40.7656 -1.42188 27.0938 -1.42188
Q22.5156 -1.42188 17.6562 -0.515625
Q12.7969 0.390625 7.625 2.20312
L7.625 11.7188
Q11.7188 9.32812 16.5938 8.10938
Q21.4844 6.89062 26.8125 6.89062
Q36.0781 6.89062 40.9375 10.5469
Q45.7969 14.2031 45.7969 21.1875
Q45.7969 27.6406 41.2812 31.2656
Q36.7656 34.9062 28.7188 34.9062
L20.2188 34.9062
L20.2188 43.0156
L29.1094 43.0156
Q36.375 43.0156 40.2344 45.9219
Q44.0938 48.8281 44.0938 54.2969
Q44.0938 59.9062 40.1094 62.9062
Q36.1406 65.9219 28.7188 65.9219
Q24.6562 65.9219 20.0156 65.0312
Q15.375 64.1562 9.8125 62.3125
L9.8125 71.0938
Q15.4375 72.6562 20.3438 73.4375
Q25.25 74.2188 29.5938 74.2188
Q40.8281 74.2188 47.3594 69.1094
Q53.9062 64.0156 53.9062 55.3281
Q53.9062 49.2656 50.4375 45.0938
Q46.9688 40.9219 40.5781 39.3125" id="DejaVuSans-33"/>
     <path d="
M10.6875 12.4062
L21 12.4062
L21 0
L10.6875 0
z
" id="DejaVuSans-2e"/>
    </defs>
    <g transform="translate(118.500376955 158.199316875)rotate(-90.0)scale(0.09996 -0.09996)">
     <use xlink:href="#DejaVuSans-76"/>
     <use x="59.1796875" xlink:href="#DejaVuSans-30"/>
     <use x="122.802734375" xlink:href="#DejaVuSans-2e"/>
     <use x="154.58984375" xlink:href="#DejaVuSans-33"/>
     <use x="218.212890625" xlink:href="#DejaVuSans-2e"/>
     <use x="250.0" xlink:href="#DejaVuSans-30"/>
    </g>
   </g>
   <g id="text_23">
    <g id="patch_8">
     <path d="
M122.22 131.14
L135.895 131.14
L135.895 97.0115
L122.22 97.0115
z
" style="fill:#ffffff;stroke:#ffffff;"/>
    </g>
    <!-- v0.3.1 -->
    <g transform="translate(131.815813196 129.140045625)rotate(-90.0)scale(0.09996 -0.09996)">
     <use xlink:href="#DejaVuSans-76"/>
     <use x="59.1796875" xlink:href="#DejaVuSans-30"/>
     <use x="122.802734375" xlink:href="#DejaVuSans-2e"/>
     <use x="154.58984375" xlink:href="#DejaVuSans-33"/>
     <use x="218.212890625" xlink:href="#DejaVuSans-2e"/>
     <use x="250.0" xlink:href="#DejaVuSans-31"/>
    </g>
   </g>
   <g id="text_24">
    <g id="patch_9">
     <path d="
M134.704 159.862
L148.378 159.862
L148.378 125.811
L134.704 125.811
z
" style="fill:#ffffff;stroke:#ffffff;"/>
    </g>
    <!-- v0.3.2 -->
    <g transform="translate(144.299034673 157.861951875)rotate(-90.0)scale(0.09996 -0.09996)">
     <use xlink:href="#DejaVuSans-76"/>
     <use x="59.1796875" xlink:href="#DejaVuSans-30"/>
     <use x="122.802734375" xlink:href="#DejaVuSans-2e"/>
     <use x="154.58984375" xlink:href="#DejaVuSans-33"/>
     <use x="218.212890625" xlink:href="#DejaVuSans-2e"/>
     <use x="250.0" xlink:href="#DejaVuSans-32"/>
    </g>
   </g>
   <g id="text_25">
    <g id="patch_10">
     <path d="
M148.435 131.262
L162.109 131.262
L162.109 97.0115
L148.435 97.0115
z
" style="fill:#ffffff;stroke:#ffffff;"/>
    </g>
    <!-- v0.3.3 -->
    <g transform="translate(158.030578297 129.261871875)rotate(-90.0)scale(0.09996 -0.09996)">
     <use xlink:href="#DejaVuSans-76"/>
     <use x="59.1796875" xlink:href="#DejaVuSans-30"/>
     <use x="122.802734375" xlink:href="#DejaVuSans-2e"/>
     <use x="154.58984375" xlink:href="#DejaVuSans-33"/>
     <use x="218.212890625" xlink:href="#DejaVuSans-2e"/>
     <use x="250.0" xlink:href="#DejaVuSans-33"/>
    </g>
   </g>
   <g id="text_26">
    <g id="patch_11">
     <path d="
M162.167 160.302
L175.841 160.302
L175.841 125.811
L162.167 125.811
z
" style="fill:#ffffff;stroke:#ffffff;"/>
    </g>
    <!-- v0.3.4 -->
    <g transform="translate(171.762121921 158.302400625)rotate(-90.0)scale(0.09996 -0.09996)">
     <use xlink:href="#DejaVuSans-76"/>
     <use x="59.1796875" xlink:href="#DejaVuSans-30"/>
     <use x="122.802734375" xlink:href="#DejaVuSans-2e"/>
     <use x="154.58984375" xlink:href="#DejaVuSans-33"/>
     <use x="218.212890625" xlink:href="#DejaVuSans-2e"/>
     <use x="250.0" xlink:href="#DejaVuSans-34"/>
    </g>
   </g>
   <g id="text_27">
    <g id="patch_12">
     <path d="
M167.576 131.19
L181.25 131.19
L181.25 97.0115
L167.576 97.0115
z
" style="fill:#ffffff;stroke:#ffffff;"/>
    </g>
    <!-- v0.3.5 -->
    <g transform="translate(177.171517894 129.190025625)rotate(-90.0)scale(0.09996 -0.09996)">
     <use xlink:href="#DejaVuSans-76"/>
     <use x="59.1796875" xlink:href="#DejaVuSans-30"/>
     <use x="122.802734375" xlink:href="#DejaVuSans-2e"/>
     <use x="154.58984375" xlink:href="#DejaVuSans-33"/>
     <use x="218.212890625" xlink:href="#DejaVuSans-2e"/>
     <use x="250.0" xlink:href="#DejaVuSans-35"/>
    </g>
   </g>
   <g id="text_28">
    <g id="patch_13">
     <path d="
M184.22 160.234
L197.895 160.234
L197.895 125.811
L184.22 125.811
z
" style="fill:#ffffff;stroke:#ffffff;"/>
    </g>
    <!-- v0.3.6 -->
    <g transform="translate(193.815813196 158.233678125)rotate(-90.0)scale(0.09996 -0.09996)">
     <use xlink:href="#DejaVuSans-76"/>
     <use x="59.1796875" xlink:href="#DejaVuSans-30"/>
     <use x="122.802734375" xlink:href="#DejaVuSans-2e"/>
     <use x="154.58984375" xlink:href="#DejaVuSans-33"/>
     <use x="218.212890625" xlink:href="#DejaVuSans-2e"/>
     <use x="250.0" xlink:href="#DejaVuSans-36"/>
    </g>
   </g>
   <g id="text_29">
    <g id="patch_14">
     <path d="
M198.368 131.209
L212.042 131.209
L212.042 97.0115
L198.368 97.0115
z
" style="fill:#ffffff;stroke:#ffffff;"/>
    </g>
    <!-- v0.3.7 -->
    <g transform="translate(207.963464203 129.208768125)rotate(-90.0)scale(0.09996 -0.09996)">
     <use xlink:href="#DejaVuSans-76"/>
     <use x="59.1796875" xlink:href="#DejaVuSans-30"/>
     <use x="122.802734375" xlink:href="#DejaVuSans-2e"/>
     <use x="154.58984375" xlink:href="#DejaVuSans-33"/>
     <use x="218.212890625" xlink:href="#DejaVuSans-2e"/>
     <use x="250.0" xlink:href="#DejaVuSans-37"/>
    </g>
   </g>
   <g id="text_30">
    <g id="patch_15">
     <path d="
M214.18 160.179
L227.854 160.179
L227.854 125.811
L214.18 125.811
z
" style="fill:#ffffff;stroke:#ffffff;"/>
    </g>
    <!-- v0.3.8 -->
    <g transform="translate(223.77554474 158.1790125)rotate(-90.0)scale(0.09996 -0.09996)">
     <use xlink:href="#DejaVuSans-76"/>
     <use x="59.1796875" xlink:href="#DejaVuSans-30"/>
     <use x="122.802734375" xlink:href="#DejaVuSans-2e"/>
     <use x="154.58984375" xlink:href="#DejaVuSans-33"/>
     <use x="218.212890625" xlink:href="#DejaVuSans-2e"/>
     <use x="250.0" xlink:href="#DejaVuSans-38"/>
    </g>
   </g>
   <g id="text_31">
    <g id="patch_16">
     <path d="
M226.663 131.36
L240.338 131.36
L240.338 97.0115
L226.663 97.0115
z
" style="fill:#ffffff;stroke:#ffffff;"/>
    </g>
    <!-- v0.3.9 -->
    <defs>
     <path d="
M10.9844 1.51562
L10.9844 10.5
Q14.7031 8.73438 18.5 7.8125
Q22.3125 6.89062 25.9844 6.89062
Q35.75 6.89062 40.8906 13.4531
Q46.0469 20.0156 46.7812 33.4062
Q43.9531 29.2031 39.5938 26.9531
Q35.25 24.7031 29.9844 24.7031
Q19.0469 24.7031 12.6719 31.3125
Q6.29688 37.9375 6.29688 49.4219
Q6.29688 60.6406 12.9375 67.4219
Q19.5781 74.2188 30.6094 74.2188
Q43.2656 74.2188 49.9219 64.5156
Q56.5938 54.8281 56.5938 36.375
Q56.5938 19.1406 48.4062 8.85938
Q40.2344 -1.42188 26.4219 -1.42188
Q22.7031 -1.42188 18.8906 -0.6875
Q15.0938 0.046875 10.9844 1.51562
M30.6094 32.4219
Q37.25 32.4219 41.125 36.9531
Q45.0156 41.5 45.0156 49.4219
Q45.0156 57.2812 41.125 61.8438
Q37.25 66.4062 30.6094 66.4062
Q23.9688 66.4062 20.0938 61.8438
Q16.2188 57.2812 16.2188 49.4219
Q16.2188 41.5 20.0938 36.9531
Q23.9688 32.4219 30.6094 32.4219" id="DejaVuSans-39"/>
    </defs>
    <g transform="translate(236.258766216 129.36027)rotate(-90.0)scale(0.09996 -0.09996)">
     <use xlink:href="#DejaVuSans-76"/>
     <use x="59.1796875" xlink:href="#DejaVuSans-30"/>
     <use x="122.802734375" xlink:href="#DejaVuSans-2e"/>
     <use x="154.58984375" xlink:href="#DejaVuSans-33"/>
     <use x="218.212890625" xlink:href="#DejaVuSans-2e"/>
     <use x="250.0" xlink:href="#DejaVuSans-39"/>
    </g>
   </g>
   <g id="text_32">
    <g id="patch_17">
     <path d="
M237.066 166.559
L250.74 166.559
L250.74 125.811
L237.066 125.811
z
" style="fill:#ffffff;stroke:#ffffff;"/>
    </g>
    <!-- v0.3.10 -->
    <g transform="translate(246.66145078 164.559271875)rotate(-90.0)scale(0.09996 -0.09996)">
     <use xlink:href="#DejaVuSans-76"/>
     <use x="59.1796875" xlink:href="#DejaVuSans-30"/>
     <use x="122.802734375" xlink:href="#DejaVuSans-2e"/>
     <use x="154.58984375" xlink:href="#DejaVuSans-33"/>
     <use x="218.212890625" xlink:href="#DejaVuSans-2e"/>
     <use x="250.0" xlink:href="#DejaVuSans-31"/>
     <use x="313.623046875" xlink:href="#DejaVuSans-30"/>
    </g>
   </g>
   <g id="text_33">
    <g id="patch_18">
     <path d="
M250.798 137.5
L264.472 137.5
L264.472 97.0115
L250.798 97.0115
z
" style="fill:#ffffff;stroke:#ffffff;"/>
    </g>
    <!-- v0.3.11 -->
    <g transform="translate(260.392994404 135.500000625)rotate(-90.0)scale(0.09996 -0.09996)">
     <use xlink:href="#DejaVuSans-76"/>
     <use x="59.1796875" xlink:href="#DejaVuSans-30"/>
     <use x="122.802734375" xlink:href="#DejaVuSans-2e"/>
     <use x="154.58984375" xlink:href="#DejaVuSans-33"/>
     <use x="218.212890625" xlink:href="#DejaVuSans-2e"/>
     <use x="250.0" xlink:href="#DejaVuSans-31"/>
     <use x="313.623046875" xlink:href="#DejaVuSans-31"/>
    </g>
   </g>
   <g id="text_34">
    <g id="patch_19">
     <path d="
M288.663 166.222
L302.338 166.222
L302.338 125.811
L288.663 125.811
z
" style="fill:#ffffff;stroke:#ffffff;"/>
    </g>
    <!-- v0.3.12 -->
    <g transform="translate(298.258766216 164.221906875)rotate(-90.0)scale(0.09996 -0.09996)">
     <use xlink:href="#DejaVuSans-76"/>
     <use x="59.1796875" xlink:href="#DejaVuSans-30"/>
     <use x="122.802734375" xlink:href="#DejaVuSans-2e"/>
     <use x="154.58984375" xlink:href="#DejaVuSans-33"/>
     <use x="218.212890625" xlink:href="#DejaVuSans-2e"/>
     <use x="250.0" xlink:href="#DejaVuSans-31"/>
     <use x="313.623046875" xlink:href="#DejaVuSans-32"/>
    </g>
   </g>
   <g id="text_35">
    <g id="patch_20">
     <path d="
M281.173 239.399
L294.848 239.399
L294.848 205.011
L281.173 205.011
z
" style="fill:#ffffff;stroke:#ffffff;"/>
    </g>
    <!-- v0.4.0 -->
    <g transform="translate(290.768833331 237.399316875)rotate(-90.0)scale(0.09996 -0.09996)">
     <use xlink:href="#DejaVuSans-76"/>
     <use x="59.1796875" xlink:href="#DejaVuSans-30"/>
     <use x="122.802734375" xlink:href="#DejaVuSans-2e"/>
     <use x="154.58984375" xlink:href="#DejaVuSans-34"/>
     <use x="218.212890625" xlink:href="#DejaVuSans-2e"/>
     <use x="250.0" xlink:href="#DejaVuSans-30"/>
    </g>
   </g>
   <g id="text_36">
    <g id="patch_21">
     <path d="
M294.073 217.54
L307.747 217.54
L307.747 183.411
L294.073 183.411
z
" style="fill:#ffffff;stroke:#ffffff;"/>
    </g>
    <!-- v0.4.1 -->
    <g transform="translate(303.66816219 215.540045625)rotate(-90.0)scale(0.09996 -0.09996)">
     <use xlink:href="#DejaVuSans-76"/>
     <use x="59.1796875" xlink:href="#DejaVuSans-30"/>
     <use x="122.802734375" xlink:href="#DejaVuSans-2e"/>
     <use x="154.58984375" xlink:href="#DejaVuSans-34"/>
     <use x="218.212890625" xlink:href="#DejaVuSans-2e"/>
     <use x="250.0" xlink:href="#DejaVuSans-31"/>
    </g>
   </g>
   <g id="text_37">
    <g id="patch_22">
     <path d="
M305.724 239.062
L319.398 239.062
L319.398 205.011
L305.724 205.011
z
" style="fill:#ffffff;stroke:#ffffff;"/>
    </g>
    <!-- v0.4.2 -->
    <g transform="translate(315.319168901 237.061951875)rotate(-90.0)scale(0.09996 -0.09996)">
     <use xlink:href="#DejaVuSans-76"/>
     <use x="59.1796875" xlink:href="#DejaVuSans-30"/>
     <use x="122.802734375" xlink:href="#DejaVuSans-2e"/>
     <use x="154.58984375" xlink:href="#DejaVuSans-34"/>
     <use x="218.212890625" xlink:href="#DejaVuSans-2e"/>
     <use x="250.0" xlink:href="#DejaVuSans-32"/>
    </g>
   </g>
   <g id="text_38">
    <g id="patch_23">
     <path d="
M321.12 217.662
L334.794 217.662
L334.794 183.411
L321.12 183.411
z
" style="fill:#ffffff;stroke:#ffffff;"/>
    </g>
    <!-- v0.4.3 -->
    <g transform="translate(330.715142055 215.661871875)rotate(-90.0)scale(0.09996 -0.09996)">
     <use xlink:href="#DejaVuSans-76"/>
     <use x="59.1796875" xlink:href="#DejaVuSans-30"/>
     <use x="122.802734375" xlink:href="#DejaVuSans-2e"/>
     <use x="154.58984375" xlink:href="#DejaVuSans-34"/>
     <use x="218.212890625" xlink:href="#DejaVuSans-2e"/>
     <use x="250.0" xlink:href="#DejaVuSans-33"/>
    </g>
   </g>
   <g id="text_39">
    <g id="patch_24">
     <path d="
M348.167 239.19
L361.841 239.19
L361.841 205.011
L348.167 205.011
z
" style="fill:#ffffff;stroke:#ffffff;"/>
    </g>
    <!-- v0.4.5 -->
    <g transform="translate(357.762121921 237.190025625)rotate(-90.0)scale(0.09996 -0.09996)">
     <use xlink:href="#DejaVuSans-76"/>
     <use x="59.1796875" xlink:href="#DejaVuSans-30"/>
     <use x="122.802734375" xlink:href="#DejaVuSans-2e"/>
     <use x="154.58984375" xlink:href="#DejaVuSans-34"/>
     <use x="218.212890625" xlink:href="#DejaVuSans-2e"/>
     <use x="250.0" xlink:href="#DejaVuSans-35"/>
    </g>
   </g>
   <g id="text_40">
    <g id="patch_25">
     <path d="
M387.281 217.834
L400.955 217.834
L400.955 183.411
L387.281 183.411
z
" style="fill:#ffffff;stroke:#ffffff;"/>
    </g>
    <!-- v0.4.6 -->
    <g transform="translate(396.876215881 215.833678125)rotate(-90.0)scale(0.09996 -0.09996)">
     <use xlink:href="#DejaVuSans-76"/>
     <use x="59.1796875" xlink:href="#DejaVuSans-30"/>
     <use x="122.802734375" xlink:href="#DejaVuSans-2e"/>
     <use x="154.58984375" xlink:href="#DejaVuSans-34"/>
     <use x="218.212890625" xlink:href="#DejaVuSans-2e"/>
     <use x="250.0" xlink:href="#DejaVuSans-36"/>
    </g>
   </g>
   <g id="text_41">
    <g id="patch_26">
     <path d="
M425.147 239.209
L438.821 239.209
L438.821 205.011
L425.147 205.011
z
" style="fill:#ffffff;stroke:#ffffff;"/>
    </g>
    <!-- v0.4.7 -->
    <g transform="translate(434.741987693 237.208768125)rotate(-90.0)scale(0.09996 -0.09996)">
     <use xlink:href="#DejaVuSans-76"/>
     <use x="59.1796875" xlink:href="#DejaVuSans-30"/>
     <use x="122.802734375" xlink:href="#DejaVuSans-2e"/>
     <use x="154.58984375" xlink:href="#DejaVuSans-34"/>
     <use x="218.212890625" xlink:href="#DejaVuSans-2e"/>
     <use x="250.0" xlink:href="#DejaVuSans-37"/>
    </g>
   </g>
   <g id="text_42">
    <g id="patch_27">
     <path d="
M425.563 167.399
L439.237 167.399
L439.237 133.011
L425.563 133.011
z
" style="fill:#ffffff;stroke:#ffffff;"/>
    </g>
    <!-- v0.5.0 -->
    <g transform="translate(435.158095076 165.399316875)rotate(-90.0)scale(0.09996 -0.09996)">
     <use xlink:href="#DejaVuSans-76"/>
     <use x="59.1796875" xlink:href="#DejaVuSans-30"/>
     <use x="122.802734375" xlink:href="#DejaVuSans-2e"/>
     <use x="154.58984375" xlink:href="#DejaVuSans-35"/>
     <use x="218.212890625" xlink:href="#DejaVuSans-2e"/>
     <use x="250.0" xlink:href="#DejaVuSans-30"/>
    </g>
   </g>
   <g id="text_43">
    <g id="patch_28">
     <path d="
M495.053 152.74
L508.727 152.74
L508.727 118.611
L495.053 118.611
z
" style="fill:#ffffff;stroke:#ffffff;"/>
    </g>
    <!-- v0.5.1 -->
    <g transform="translate(504.648027961 150.740045625)rotate(-90.0)scale(0.09996 -0.09996)">
     <use xlink:href="#DejaVuSans-76"/>
     <use x="59.1796875" xlink:href="#DejaVuSans-30"/>
     <use x="122.802734375" xlink:href="#DejaVuSans-2e"/>
     <use x="154.58984375" xlink:href="#DejaVuSans-35"/>
     <use x="218.212890625" xlink:href="#DejaVuSans-2e"/>
     <use x="250.0" xlink:href="#DejaVuSans-31"/>
    </g>
   </g>
   <g id="text_44">
    <g id="patch_29">
     <path d="
M520.851 167.062
L534.526 167.062
L534.526 133.011
L520.851 133.011
z
" style="fill:#ffffff;stroke:#ffffff;"/>
    </g>
    <!-- v0.5.2 -->
    <g transform="translate(530.44668568 165.061951875)rotate(-90.0)scale(0.09996 -0.09996)">
     <use xlink:href="#DejaVuSans-76"/>
     <use x="59.1796875" xlink:href="#DejaVuSans-30"/>
     <use x="122.802734375" xlink:href="#DejaVuSans-2e"/>
     <use x="154.58984375" xlink:href="#DejaVuSans-35"/>
     <use x="218.212890625" xlink:href="#DejaVuSans-2e"/>
     <use x="250.0" xlink:href="#DejaVuSans-32"/>
    </g>
   </g>
   <g id="text_45">
    <g id="patch_30">
     <path d="
M539.16 239.399
L552.834 239.399
L552.834 205.011
L539.16 205.011
z
" style="fill:#ffffff;stroke:#ffffff;"/>
    </g>
    <!-- v0.6.0 -->
    <g transform="translate(548.755410512 237.399316875)rotate(-90.0)scale(0.09996 -0.09996)">
     <use xlink:href="#DejaVuSans-76"/>
     <use x="59.1796875" xlink:href="#DejaVuSans-30"/>
     <use x="122.802734375" xlink:href="#DejaVuSans-2e"/>
     <use x="154.58984375" xlink:href="#DejaVuSans-36"/>
     <use x="218.212890625" xlink:href="#DejaVuSans-2e"/>
     <use x="250.0" xlink:href="#DejaVuSans-30"/>
    </g>
   </g>
   <g id="legend_1">
    <g id="patch_31">
     <path d="
M61.2368 94.3649
L111.899 94.3649
L111.899 18.0049
L61.2368 18.0049
L61.2368 94.3649
z
" style="fill:#ffffff;stroke:#000000;"/>
    </g>
    <g id="line2d_70">
     <path d="
M68.234 26.1001
L82.2284 26.1001" style="fill:none;stroke:#ff0000;stroke-linecap:square;stroke-width:2;"/>
    </g>
    <g id="line2d_71"/>
    <g id="text_46">
     <!-- 0.2 -->
     <g transform="translate(93.22395 29.598673125)scale(0.09996 -0.09996)">
      <use xlink:href="#DejaVuSans-30"/>
      <use x="63.623046875" xlink:href="#DejaVuSans-2e"/>
      <use x="95.41015625" xlink:href="#DejaVuSans-32"/>
     </g>
    </g>
    <g id="line2d_72">
     <path d="
M68.234 40.7723
L82.2284 40.7723" style="fill:none;stroke:#008000;stroke-linecap:square;stroke-width:2;"/>
    </g>
    <g id="line2d_73"/>
    <g id="text_47">
     <!-- 0.3 -->
     <g transform="translate(93.22395 44.270926875)scale(0.09996 -0.09996)">
      <use xlink:href="#DejaVuSans-30"/>
      <use x="63.623046875" xlink:href="#DejaVuSans-2e"/>
      <use x="95.41015625" xlink:href="#DejaVuSans-33"/>
     </g>
    </g>
    <g id="line2d_74">
     <path d="
M68.234 55.4446
L82.2284 55.4446" style="fill:none;stroke:#0000ff;stroke-linecap:square;stroke-width:2;"/>
    </g>
    <g id="line2d_75"/>
    <g id="text_48">
     <!-- 0.4 -->
     <g transform="translate(93.22395 58.943180625)scale(0.09996 -0.09996)">
      <use xlink:href="#DejaVuSans-30"/>
      <use x="63.623046875" xlink:href="#DejaVuSans-2e"/>
      <use x="95.41015625" xlink:href="#DejaVuSans-34"/>
     </g>
    </g>
    <g id="line2d_76">
     <path d="
M68.234 70.1168
L82.2284 70.1168" style="fill:none;stroke:#000000;stroke-linecap:square;stroke-width:2;"/>
    </g>
    <g id="line2d_77"/>
    <g id="text_49">
     <!-- 0.5 -->
     <g transform="translate(93.22395 73.615434375)scale(0.09996 -0.09996)">
      <use xlink:href="#DejaVuSans-30"/>
      <use x="63.623046875" xlink:href="#DejaVuSans-2e"/>
      <use x="95.41015625" xlink:href="#DejaVuSans-35"/>
     </g>
    </g>
    <g id="line2d_78">
     <path d="
M68.234 84.7891
L82.2284 84.7891" style="fill:none;stroke:#bfbf00;stroke-linecap:square;stroke-width:2;"/>
    </g>
    <g id="line2d_79"/>
    <g id="text_50">
     <!-- 0.6 -->
     <g transform="translate(93.22395 88.287688125)scale(0.09996 -0.09996)">
      <use xlink:href="#DejaVuSans-30"/>
      <use x="63.623046875" xlink:href="#DejaVuSans-2e"/>
      <use x="95.41015625" xlink:href="#DejaVuSans-36"/>
     </g>
    </g>
   </g>
  </g>
 </g>
 <defs>
  <clipPath id="p6fd7a61c41">
   <rect height="230.4" width="558.0" x="56.23875" y="13.006875"/>
  </clipPath>
 </defs>
</svg>
