<?xml version="1.0" encoding="utf-8" standalone="no"?>
<!DOCTYPE svg PUBLIC "-//W3C//DTD SVG 1.1//EN"
  "http://www.w3.org/Graphics/SVG/1.1/DTD/svg11.dtd">
<!-- Created with matplotlib (http://matplotlib.org/) -->
<svg height="311pt" version="1.1" viewBox="0 0 621 311" width="621pt" xmlns="http://www.w3.org/2000/svg" xmlns:xlink="http://www.w3.org/1999/xlink">
 <defs>
  <style type="text/css">
*{stroke-linecap:butt;stroke-linejoin:round;}
  </style>
 </defs>
 <g id="figure_1">
  <g id="patch_1">
   <path d="
M0 311.719
L621.877 311.719
L621.877 0
L0 0
z
" style="fill:#ffffff;"/>
  </g>
  <g id="axes_1">
   <g id="patch_2">
    <path d="
M56.6775 243.407
L614.678 243.407
L614.678 13.0069
L56.6775 13.0069
z
" style="fill:#ffffff;"/>
   </g>
   <g id="line2d_1">
    <path clip-path="url(#pe067ca5dee)" d="
M106.965 226.127
L106.592 226.127
L106.22 226.383
L105.847 226.383
L105.475 226.511
L105.102 226.767
L104.73 226.767
L103.985 226.511
L103.612 226.511
L103.24 226.895
L102.867 226.895
L102.122 226.895
L101.75 226.895
L101.005 227.023
L100.632 227.023
L100.26 227.023
L99.8871 227.151
L99.5146 227.151
L99.1421 227.151
L98.7696 227.279
L98.3971 227.279
L97.2796 227.279
L96.9071 227.279
L96.5346 227.279
L96.1621 227.279
L95.4172 227.535
L94.6722 227.791
L94.2997 227.791
L93.9272 227.919
L93.5547 228.047
L92.8097 228.303
L92.4372 228.303
L92.0647 228.303
L91.6922 228.431
L91.3197 228.559
L90.9472 228.815
L90.2022 228.943
L89.8297 228.943
L89.4572 229.327
L89.0847 229.327
L88.7122 229.327
L88.3397 229.327
L87.9672 229.327
L87.5947 229.583
L86.8497 229.583
L86.4772 229.711
L86.1047 229.711
L85.7322 229.711
L85.3597 229.711
L84.9872 229.711
L84.6147 229.967
L84.2423 230.095
L83.8698 230.223
L83.4973 230.223
L81.2623 230.863
L80.8898 230.863
L80.5173 230.991
L80.1448 230.991
L79.7723 231.119
L79.3998 231.119
L79.0273 231.119
L78.6548 231.119
L78.2823 231.119
L77.9098 231.119
L77.5373 231.119
L77.1648 231.119
L76.7923 231.759
L76.4198 230.735
L76.0473 230.863
L75.6748 230.863
L75.3023 230.863
L74.5573 230.991
L74.1848 230.991
L73.8123 231.375
L73.4398 231.375
L73.0674 231.375
L72.6949 231.375
L72.3224 231.375
L71.9499 231.375
L71.5774 231.375
L71.2049 231.375
L70.8324 231.375
L70.4599 231.503
L67.8524 231.631
L67.1074 231.631
L65.9899 231.631
L63.3824 231.887
L63.0099 232.015
L62.2649 232.143
L61.8925 232.143
L61.1475 232.271
L60.4025 232.399
L60.03 232.399
L59.285 232.399
L58.9125 232.399
L58.54 232.399
L58.1675 232.399
L57.795 232.399
L57.4225 232.399
L57.05 232.527
L56.6775 232.527" style="fill:none;stroke:#ff0000;stroke-linecap:square;stroke-width:2;"/>
   </g>
   <g id="line2d_2">
    <path clip-path="url(#pe067ca5dee)" d="
M394.532 180.047
L384.475 180.047
L384.102 180.175
L382.985 180.047
L378.887 180.047
L378.515 180.175
L378.142 180.047
L377.77 180.047
L377.397 180.175
L377.025 180.047
L375.907 180.047
L375.535 180.175
L373.672 180.175
L373.3 180.047
L368.83 180.047
L368.457 180.175
L368.085 180.047
L365.477 180.047
L365.105 180.175
L364.732 180.047
L364.36 180.175
L363.987 180.047
L359.517 180.047
L359.145 180.175
L358.4 180.175
L358.027 180.303
L357.282 180.175
L356.91 180.303
L356.537 180.175
L355.42 180.175
L355.047 180.303
L354.675 180.175
L352.44 180.175
L352.067 180.303
L351.695 180.175
L349.832 180.175
L349.46 180.303
L309.603 181.071
L307.368 181.327
L305.878 181.327
L298.055 181.455
L289.86 181.455
L285.018 181.839
L282.038 182.095
L278.686 182.095
L277.941 182.351
L276.451 182.095
L267.511 182.351
L264.903 182.863
L263.413 182.991
L261.551 183.503
L260.061 184.143
L254.101 185.423
L252.238 185.679
L250.376 185.807
L249.258 186.063
L242.926 187.855
L236.593 189.135
L229.143 191.311
L228.771 191.823
L228.398 192.079
L227.653 191.951
L226.908 192.207
L225.791 192.207
L225.418 192.335
L224.673 192.335
L224.301 192.591
L223.929 192.591
L223.556 192.847
L223.184 192.847
L222.066 192.719
L217.969 193.487
L217.224 193.487
L214.616 194.383
L213.871 194.383
L210.891 194.895
L210.519 195.151
L209.029 195.407
L205.676 196.431
L205.304 196.815
L204.559 197.071
L203.814 197.071
L203.441 197.199
L201.951 197.455
L201.579 197.839
L201.206 197.967
L200.834 197.967
L200.089 198.607
L198.971 198.991
L197.481 198.991
L196.736 199.375
L195.991 199.375
L193.756 199.503
L193.384 199.887
L192.639 199.887
L188.169 200.015
L187.796 200.271
L187.424 200.143
L187.051 200.399
L186.679 200.399
L186.306 200.527
L185.934 200.783
L184.444 201.039
L182.581 201.039
L182.209 201.295
L181.464 201.295
L179.601 201.807
L177.739 202.575
L175.876 202.575
L174.386 202.831
L172.896 203.599
L172.524 203.599
L172.151 203.343
L169.916 204.751
L169.171 205.135
L168.426 205.135
L168.054 205.263
L167.682 205.647
L167.309 205.647
L166.937 205.903
L165.447 205.903
L165.074 206.543
L164.702 206.543
L162.839 207.695
L160.232 208.463
L158.369 209.359
L155.762 209.871
L155.017 210.127
L153.527 210.127
L153.154 210.255
L152.037 210.767
L150.547 211.151
L150.174 211.407
L149.429 211.407
L148.684 211.663
L147.939 211.663
L145.704 211.791
L144.214 212.431
L143.842 212.431
L143.469 212.815
L143.097 212.815
L142.724 212.943
L142.352 212.943
L141.979 213.199
L140.117 213.839
L138.999 213.839
L138.627 213.967
L138.254 213.967
L137.882 214.095
L137.137 214.095
L136.764 214.223
L136.392 214.223
L136.019 214.351
L135.647 214.607
L135.274 214.607
L134.902 214.735
L134.529 214.735
L134.157 214.863
L133.412 214.863
L132.667 215.247
L131.549 215.247
L130.804 215.503
L130.432 215.503
L130.059 215.759
L129.314 215.759
L128.942 215.887
L128.569 216.143
L128.197 216.143
L127.079 216.399
L126.707 216.655
L126.334 216.655
L125.962 214.351
L125.589 216.911
L125.217 217.167
L124.844 217.167
L124.472 217.295
L123.354 217.167
L122.982 217.295
L122.237 217.295
L121.492 217.551
L120.002 217.551
L119.629 218.575
L118.884 218.575
L118.139 218.959
L117.767 219.087
L116.649 219.855
L114.414 219.855
L113.669 220.111
L113.297 220.495
L112.552 218.959
L111.807 219.215
L111.435 219.599
L110.69 219.599
L110.317 219.727
L109.945 219.727
L109.2 220.111
L108.455 220.111
L107.71 220.367
L107.337 220.367
L106.592 220.751
L105.475 221.135
L105.102 221.391
L104.73 221.391
L103.612 221.519
L103.24 221.903
L102.867 222.031
L101.005 222.031
L99.8871 222.415
L99.1421 222.415
L98.7696 222.543
L98.3971 222.543
L96.1621 222.799
L95.4172 223.183
L94.6722 223.823
L93.9272 223.823
L93.5547 224.207
L92.8097 224.335
L92.4372 224.591
L92.0647 224.591
L91.3197 224.847
L90.9472 225.103
L89.8297 225.231
L89.4572 225.615
L87.9672 225.615
L87.5947 225.871
L86.8497 225.871
L86.1047 226.127
L85.7322 226.127
L85.3597 226.383
L84.9872 226.383
L84.2423 226.767
L80.5173 228.047
L80.1448 233.295
L79.7723 228.175
L79.3998 228.175
L79.0273 228.303
L77.5373 228.303
L77.1648 228.431
L76.4198 228.431
L76.0473 228.687
L75.3023 228.687
L74.5573 228.815
L74.1848 229.199
L71.2049 229.199
L70.8324 229.327
L70.4599 229.583
L65.9899 229.711
L62.2649 230.351
L61.8925 230.351
L61.1475 230.607
L58.54 230.991
L57.4225 230.991
L57.05 231.119
L56.6775 231.119
L56.6775 231.119" style="fill:none;stroke:#008000;stroke-linecap:square;stroke-width:2;"/>
   </g>
   <g id="line2d_3">
    <path clip-path="url(#pe067ca5dee)" d="
M556.941 127.183
L556.196 127.183
L525.278 127.439
L523.043 127.311
L522.671 127.439
L519.318 127.439
L518.573 127.823
L518.201 127.439
L517.456 127.695
L517.083 127.567
L505.163 127.567
L504.791 127.695
L504.418 127.567
L494.734 127.567
L494.361 127.695
L488.774 127.695
L488.401 127.823
L488.029 128.463
L487.656 127.823
L485.421 127.823
L485.049 127.695
L484.676 127.823
L481.324 127.823
L479.089 128.079
L478.716 127.951
L477.226 127.951
L476.854 128.079
L476.481 127.951
L475.736 127.951
L475.364 128.079
L470.149 128.079
L466.424 128.335
L466.051 128.335
L465.679 128.463
L464.561 128.463
L464.189 128.591
L463.816 128.463
L461.581 128.463
L461.209 128.591
L457.856 128.591
L457.484 128.719
L457.111 128.719
L456.366 128.847
L454.504 128.591
L452.641 128.591
L452.269 128.719
L448.171 128.719
L431.409 128.975
L429.919 129.231
L428.802 129.231
L428.429 129.359
L426.567 129.103
L426.194 129.231
L423.959 129.231
L422.469 129.743
L421.724 129.743
L421.352 130.383
L419.489 129.743
L417.627 129.743
L415.019 129.999
L413.902 129.999
L413.157 130.127
L409.804 130.127
L409.059 130.767
L408.687 130.895
L407.569 130.767
L407.197 131.023
L403.472 131.279
L402.727 131.535
L400.864 131.535
L400.119 131.791
L399.374 131.791
L398.629 132.047
L395.649 132.047
L395.277 132.175
L394.904 132.559
L393.787 132.943
L393.414 133.455
L392.669 133.455
L392.297 133.583
L391.924 133.583
L391.18 133.839
L390.807 134.223
L390.062 134.479
L389.69 134.479
L389.317 134.735
L388.572 134.735
L388.2 134.863
L387.827 134.863
L387.082 135.247
L386.71 135.375
L386.337 135.631
L385.592 135.631
L384.847 135.887
L384.102 135.887
L383.357 136.143
L382.985 136.527
L382.612 136.655
L382.24 136.911
L381.867 136.911
L381.495 137.039
L381.122 137.039
L380.75 137.167
L380.377 137.167
L379.26 137.551
L377.397 137.551
L377.025 137.807
L376.652 137.807
L376.28 138.063
L375.907 138.063
L375.535 138.319
L375.162 138.319
L374.79 138.191
L374.417 138.191
L372.555 139.471
L371.437 139.343
L370.692 139.727
L370.32 139.855
L369.947 139.855
L369.575 139.983
L369.202 139.983
L367.712 140.495
L366.967 140.623
L366.595 140.879
L366.222 140.879
L365.85 141.007
L365.477 140.879
L365.105 140.879
L364.36 141.135
L363.987 141.135
L363.242 141.391
L362.87 141.263
L362.497 141.263
L361.752 141.519
L361.38 141.519
L361.007 141.647
L360.635 141.647
L359.517 142.031
L359.145 142.543
L358.772 142.543
L358.4 142.671
L358.027 143.055
L356.91 143.311
L356.165 143.567
L355.42 143.567
L355.047 143.695
L354.675 143.695
L353.557 144.079
L353.185 143.951
L352.812 144.079
L352.44 144.079
L351.695 144.847
L351.322 144.847
L350.95 144.975
L350.577 144.847
L350.205 144.975
L349.46 145.359
L343.5 148.303
L324.13 156.623
L318.17 160.719
L309.603 163.279
L307.368 164.559
L305.878 165.711
L298.055 168.143
L287.998 170.703
L285.018 171.855
L282.038 172.495
L278.686 173.007
L277.941 173.519
L276.451 173.647
L271.981 175.055
L267.511 177.871
L266.393 178.255
L264.903 178.895
L263.413 175.695
L261.551 176.847
L260.061 177.615
L254.101 180.047
L252.238 180.943
L249.258 181.711
L242.926 184.911
L239.573 185.551
L236.593 186.319
L229.143 188.623
L228.771 189.135
L228.398 189.391
L227.653 189.391
L226.908 189.647
L224.673 189.903
L224.301 190.287
L223.929 190.287
L223.556 190.543
L222.066 190.543
L217.969 191.695
L217.224 191.695
L216.479 191.951
L215.734 192.335
L214.616 192.847
L213.871 192.847
L210.891 193.231
L210.519 193.487
L209.029 193.743
L205.676 194.767
L205.304 195.151
L204.559 195.407
L203.814 195.407
L203.441 195.663
L201.951 195.919
L201.206 196.303
L200.834 196.303
L199.716 197.327
L198.971 197.583
L197.481 197.839
L196.736 198.223
L195.991 198.351
L193.756 198.479
L193.384 198.863
L192.639 198.863
L188.169 199.375
L187.796 199.631
L187.424 199.503
L187.051 199.759
L186.306 199.759
L185.934 200.015
L183.699 200.143
L182.954 200.399
L182.581 200.399
L182.209 200.655
L181.464 200.655
L179.601 201.807
L177.739 201.935
L175.876 201.935
L174.386 202.191
L172.896 202.959
L172.524 202.575
L172.151 202.575
L169.171 204.495
L168.426 204.495
L168.054 204.623
L167.682 205.007
L167.309 205.007
L166.937 205.135
L165.819 205.263
L165.447 205.263
L165.074 206.031
L164.702 206.031
L162.839 207.183
L160.232 208.079
L159.114 208.335
L158.369 208.847
L155.762 209.359
L155.017 209.615
L153.154 209.615
L152.037 210.255
L150.919 210.383
L150.174 210.895
L149.429 210.895
L149.057 211.023
L148.684 211.279
L147.939 211.279
L145.704 211.407
L144.214 212.047
L143.842 212.047
L143.469 212.431
L143.097 212.431
L142.724 212.559
L142.352 212.559
L141.979 212.815
L140.117 213.583
L138.999 213.583
L138.254 213.839
L137.137 213.839
L136.764 213.967
L136.392 213.967
L136.019 214.095
L135.647 214.351
L135.274 214.351
L134.902 214.479
L134.529 214.479
L134.157 214.607
L133.412 214.607
L132.667 215.119
L131.549 215.119
L130.804 215.375
L130.432 215.375
L130.059 215.631
L129.314 215.631
L128.942 215.759
L128.569 216.015
L128.197 216.015
L127.079 216.271
L126.707 216.527
L125.962 216.527
L125.217 217.039
L124.844 217.039
L124.472 217.167
L123.354 217.039
L122.982 217.167
L122.237 217.167
L121.864 217.295
L121.492 217.295
L120.374 217.423
L120.002 217.423
L119.629 218.447
L118.884 218.447
L118.139 218.831
L117.767 218.959
L116.649 219.727
L114.414 219.727
L113.669 219.983
L113.297 220.367
L112.552 220.623
L112.18 220.623
L111.062 221.263
L110.69 221.263
L110.317 221.391
L109.945 221.391
L109.2 221.775
L108.455 221.775
L107.71 222.031
L107.337 222.415
L107.337 222.415" style="fill:none;stroke:#0000ff;stroke-linecap:square;stroke-width:2;"/>
   </g>
   <g id="line2d_4">
    <path clip-path="url(#pe067ca5dee)" d="
M569.605 87.2469
L565.135 87.7589
L556.941 87.8869
L556.196 87.7589
L525.278 89.8069
L523.043 89.6789
L522.671 89.9349
L521.181 90.0629
L520.063 89.9349
L519.691 89.9349
L519.318 90.1909
L518.946 90.1909
L518.573 91.8549
L518.201 90.4469
L517.456 90.7029
L517.083 90.7029
L516.338 90.8309
L515.966 90.4469
L515.593 90.9589
L514.476 90.3189
L513.731 90.1909
L513.358 90.5749
L512.241 90.5749
L511.868 90.4469
L511.496 90.5749
L511.123 90.4469
L510.378 90.4469
L510.006 90.5749
L509.633 90.8309
L508.516 90.8309
L508.143 90.7029
L507.398 90.9589
L507.026 90.9589
L506.653 90.8309
L505.908 91.0869
L505.163 90.9589
L504.791 91.0869
L504.418 90.9589
L504.046 91.0869
L502.556 91.3429
L502.184 91.2149
L501.811 91.2149
L501.439 91.0869
L501.066 91.2149
L500.321 91.2149
L499.949 91.3429
L499.204 91.2149
L498.459 91.5989
L498.086 91.5989
L497.714 91.7269
L496.969 92.1109
L496.596 91.8549
L495.479 92.2389
L495.106 92.1109
L494.734 92.2389
L494.361 92.6229
L493.989 92.7509
L493.616 92.6229
L492.871 92.7509
L492.499 93.2629
L492.126 93.1349
L491.754 93.2629
L491.381 93.5189
L491.009 93.5189
L490.636 93.9029
L490.264 93.6469
L489.891 93.6469
L489.519 94.0309
L489.146 93.9029
L488.774 93.9029
L488.029 95.0549
L487.656 94.7989
L487.284 94.7989
L486.539 95.1829
L486.166 95.3109
L485.049 96.2069
L484.676 96.0789
L484.304 96.2069
L483.931 96.4629
L483.559 96.2069
L483.186 96.4629
L481.324 96.4629
L480.206 97.4869
L478.716 97.9989
L478.344 97.8709
L477.599 98.8949
L477.226 98.7669
L476.854 99.0229
L476.481 98.8949
L476.109 98.8949
L475.736 99.0229
L475.364 99.0229
L474.991 99.6629
L474.246 100.303
L473.501 100.559
L473.129 100.559
L472.011 101.199
L471.266 101.455
L470.894 101.455
L470.521 101.839
L470.149 101.839
L467.541 103.247
L467.169 103.631
L466.796 103.503
L466.424 103.503
L466.051 103.631
L465.306 104.271
L464.934 104.143
L464.561 104.399
L464.189 105.039
L463.816 105.039
L463.071 105.295
L462.326 105.295
L461.954 105.551
L461.581 105.551
L460.836 106.191
L460.464 105.935
L460.091 105.935
L459.719 106.191
L459.346 106.959
L458.974 107.087
L458.601 106.959
L458.229 107.087
L457.856 106.959
L457.484 107.343
L457.111 107.471
L456.366 107.343
L454.504 107.215
L454.131 107.727
L453.386 108.367
L453.014 109.007
L452.641 109.135
L452.269 109.391
L451.524 109.519
L451.151 109.775
L448.171 110.031
L434.389 115.023
L432.527 115.023
L432.154 115.663
L431.409 115.663
L429.919 116.175
L428.802 116.175
L428.429 116.687
L426.567 116.943
L426.194 117.711
L425.449 117.967
L425.077 118.735
L423.959 118.735
L423.587 118.863
L422.469 119.759
L421.724 119.759
L421.352 120.527
L419.489 119.759
L419.117 119.759
L418.744 119.887
L418.372 119.887
L417.999 119.759
L417.627 119.887
L416.509 120.399
L415.392 120.527
L415.019 120.527
L414.274 120.655
L413.902 120.527
L413.157 120.783
L412.412 121.295
L412.039 121.935
L411.294 121.679
L410.549 121.935
L410.177 122.447
L409.804 122.575
L409.432 122.959
L409.059 123.599
L408.687 123.855
L407.569 123.983
L407.197 125.007
L402.727 126.543
L402.354 126.543
L401.609 127.055
L400.864 127.055
L400.119 127.951
L399.374 127.951
L399.002 128.079
L398.257 128.463
L397.884 128.591
L397.512 129.103
L397.139 129.103
L396.767 129.231
L396.022 129.615
L395.649 129.743
L394.904 130.639
L394.532 130.639
L393.787 131.023
L393.414 129.359
L392.669 129.231
L392.297 129.359
L391.18 129.999
L390.807 131.407
L390.435 131.919
L389.317 132.303
L388.945 132.687
L388.572 132.559
L388.2 132.559
L387.827 131.663
L387.455 131.919
L387.082 132.431
L386.71 132.431
L386.337 132.815
L385.965 132.943
L385.592 132.815
L384.102 133.327
L383.357 133.711
L382.985 134.223
L382.612 134.223
L382.24 134.479
L381.867 134.479
L380.75 134.863
L380.377 134.863
L379.632 135.503
L379.26 135.503
L378.887 135.631
L378.515 135.503
L377.397 135.503
L377.025 135.759
L376.652 136.655
L376.28 136.015
L375.907 136.143
L375.162 136.527
L374.79 136.655
L374.417 136.655
L373.672 137.679
L373.3 137.679
L372.555 138.319
L371.437 138.191
L370.32 138.959
L369.947 138.959
L369.575 139.087
L369.202 139.087
L368.83 139.215
L368.457 139.471
L368.085 139.471
L367.712 139.599
L366.967 139.727
L366.595 140.111
L365.85 140.111
L365.477 139.983
L364.732 140.239
L363.987 140.239
L363.615 140.367
L363.242 140.367
L362.87 140.495
L362.497 140.495
L361.007 141.007
L360.635 141.007
L359.89 141.519
L359.517 141.519
L359.145 142.031
L358.772 142.031
L358.4 142.159
L358.027 142.415
L356.165 143.055
L355.42 143.055
L355.047 143.183
L354.675 143.183
L353.93 143.439
L353.557 143.439
L353.185 143.567
L352.812 143.439
L352.44 143.567
L351.695 144.335
L350.577 144.335
L350.205 144.463
L349.46 144.847
L324.13 156.751
L318.17 160.719
L309.603 163.407
L307.368 164.559
L305.878 165.711
L298.055 168.271
L285.39 171.471
L285.018 171.727
L282.038 172.367
L282.038 172.367" style="fill:none;stroke:#000000;stroke-linecap:square;stroke-width:2;"/>
   </g>
   <g id="line2d_5">
    <path clip-path="url(#pe067ca5dee)" d="
M614.677 37.4549
L613.933 37.3269
L613.188 38.2229
L612.443 37.7109
L611.698 38.6069
L610.953 38.3509
L610.208 38.2229
L609.463 38.3509
L608.718 39.1189
L607.973 39.5029
L606.483 39.7589
L604.993 40.6549
L604.248 40.9109
L603.503 40.9109
L602.758 41.8069
L602.013 42.1909
L600.895 42.4469
L591.955 47.5669
L591.21 48.3349
L590.465 48.3349
L589.72 49.3589
L588.975 49.2309
L588.23 50.5109
L587.485 49.9989
L586.74 50.6389
L585.995 52.1749
L584.505 52.0469
L583.76 52.6869
L583.015 53.0709
L582.27 52.6869
L581.525 52.6869
L580.78 52.4309
L580.035 52.6869
L578.918 53.4549
L577.428 55.2469
L576.683 55.7589
L575.938 55.8869
L575.193 56.3989
L574.448 56.6549
L573.703 57.0389
L572.958 57.1669
L572.213 57.8069
L570.35 59.0869
L569.605 58.4469
L565.135 59.5989
L556.196 63.3109
L525.278 80.8469
L523.043 81.6149
L522.671 82.2549
L521.553 83.0229
L521.181 83.0229
L520.063 83.4069
L519.691 83.7909
L518.946 84.0469
L518.573 86.3509
L518.201 84.5589
L517.828 85.9669
L517.456 85.8389
L517.083 85.8389
L516.338 86.2229
L515.966 86.6069
L515.593 86.7349
L512.986 87.3749
L511.496 88.6549
L511.123 89.1669
L509.261 89.5509
L508.516 89.9349
L508.143 89.8069
L507.771 90.0629
L507.398 90.0629
L506.653 90.3189
L505.908 90.7029
L505.163 90.8309
L504.791 91.0869
L504.418 90.8309
L503.301 91.7269
L502.929 91.5989
L502.556 91.8549
L502.184 91.7269
L501.439 91.7269
L501.066 91.9829
L499.949 92.1109
L499.204 92.1109
L498.459 93.0069
L498.086 93.0069
L497.341 93.3909
L496.224 93.7749
L495.479 94.4149
L495.106 89.2949
L494.734 89.4229
L494.361 89.9349
L493.616 90.1909
L492.871 90.3189
L492.126 90.9589
L491.754 91.0869
L491.381 91.9829
L491.009 92.1109
L490.636 92.6229
L490.264 94.5429
L489.891 92.7509
L489.519 93.1349
L489.146 93.0069
L488.774 93.1349
L488.401 93.7749
L488.029 94.0309
L487.284 94.0309
L486.911 94.5429
L486.539 94.5429
L484.304 96.2069
L483.931 96.0789
L483.186 96.3349
L482.814 96.3349
L482.441 96.4629
L482.069 96.4629
L481.324 96.7189
L479.089 98.3829
L478.716 98.5109
L478.344 98.5109
L477.971 99.1509
L477.599 99.2789
L477.226 99.5349
L476.854 99.4069
L476.109 99.6629
L475.736 99.5349
L475.364 99.6629
L474.991 100.303
L473.501 101.199
L473.129 101.071
L472.756 101.583
L472.384 101.455
L472.011 101.583
L471.266 102.095
L470.521 102.095
L470.149 102.479
L467.541 103.887
L467.169 103.887
L466.796 104.271
L466.051 104.015
L465.679 104.527
L465.306 104.527
L464.934 104.655
L463.444 106.191
L463.071 105.807
L462.326 105.807
L461.954 106.063
L461.581 106.063
L461.209 106.447
L460.836 106.575
L460.464 106.575
L459.719 106.831
L459.346 107.983
L458.974 107.599
L458.229 107.855
L457.856 107.343
L457.111 107.727
L456.366 107.983
L454.876 107.727
L454.504 107.855
L454.131 108.239
L453.386 108.751
L453.014 109.775
L452.641 109.775
L452.269 110.031
L448.171 110.671
L434.389 115.663
L432.527 115.663
L432.154 116.303
L428.802 116.815
L428.429 117.327
L426.567 117.327
L426.194 118.223
L425.449 118.479
L425.077 119.247
L423.959 119.247
L422.469 120.143
L422.097 120.143
L421.724 120.271
L421.352 120.783
L419.489 120.271
L419.117 120.399
L418.744 120.271
L417.627 120.271
L416.509 120.911
L415.392 121.039
L413.902 121.039
L413.157 121.295
L412.039 122.191
L411.294 122.191
L410.549 122.447
L410.177 122.831
L409.804 122.831
L408.687 124.367
L407.569 124.367
L407.197 125.519
L403.472 127.055
L402.354 127.183
L401.609 127.695
L400.864 127.695
L400.119 128.591
L399.002 128.591
L398.629 128.975
L397.884 129.231
L397.512 129.743
L395.649 130.383
L394.904 131.151
L394.904 131.151" style="fill:none;stroke:#bfbf00;stroke-linecap:square;stroke-width:2;"/>
   </g>
   <g id="line2d_6">
    <path clip-path="url(#pe067ca5dee)" d="
M614.677 36.9429
L613.933 36.5589
L613.188 37.7109
L612.443 37.8389
L611.698 37.8389
L610.953 37.5829
L610.208 37.7109
L609.463 37.9669
L608.718 38.2229
L607.973 39.1189
L606.483 39.7589
L605.738 40.3989
L604.993 40.6549
L604.248 40.6549
L603.503 40.9109
L602.758 42.0629
L602.013 42.8309
L600.895 43.4709
L591.955 49.4869
L591.21 50.6389
L590.465 50.5109
L589.72 51.9189
L588.975 51.2789
L588.23 52.4309
L587.485 52.1749
L586.74 52.6869
L585.995 53.7109
L584.505 56.5269
L583.76 56.0149
L583.015 56.1429
L582.27 55.8869
L581.525 54.4789
L580.78 54.6069
L580.035 54.3509
L578.918 55.3749
L577.428 56.5269
L576.683 56.0149
L575.938 56.0149
L575.193 56.1429
L574.448 56.5269
L573.703 57.0389
L572.958 58.1909
L572.213 58.7029
L570.35 63.6949
L569.605 63.8229" style="fill:none;stroke:#bf00bf;stroke-linecap:square;stroke-width:2;"/>
   </g>
   <g id="line2d_7">
    <path clip-path="url(#pe067ca5dee)" d="
M109.945 243.407
L109.945 13.0069" style="fill:none;stroke:#333333;stroke-linecap:square;"/>
   </g>
   <g id="line2d_8">
    <path clip-path="url(#pe067ca5dee)" d="
M121.864 243.407
L121.864 13.0069" style="fill:none;stroke:#cccccc;stroke-linecap:square;"/>
   </g>
   <g id="line2d_9">
    <path clip-path="url(#pe067ca5dee)" d="
M133.039 243.407
L133.039 13.0069" style="fill:none;stroke:#cccccc;stroke-linecap:square;"/>
   </g>
   <g id="line2d_10">
    <path clip-path="url(#pe067ca5dee)" d="
M145.332 243.407
L145.332 13.0069" style="fill:none;stroke:#cccccc;stroke-linecap:square;"/>
   </g>
   <g id="line2d_11">
    <path clip-path="url(#pe067ca5dee)" d="
M157.624 243.407
L157.624 13.0069" style="fill:none;stroke:#cccccc;stroke-linecap:square;"/>
   </g>
   <g id="line2d_12">
    <path clip-path="url(#pe067ca5dee)" d="
M162.467 243.407
L162.467 13.0069" style="fill:none;stroke:#cccccc;stroke-linecap:square;"/>
   </g>
   <g id="line2d_13">
    <path clip-path="url(#pe067ca5dee)" d="
M177.366 243.407
L177.366 13.0069" style="fill:none;stroke:#cccccc;stroke-linecap:square;"/>
   </g>
   <g id="line2d_14">
    <path clip-path="url(#pe067ca5dee)" d="
M190.031 243.407
L190.031 13.0069" style="fill:none;stroke:#cccccc;stroke-linecap:square;"/>
   </g>
   <g id="line2d_15">
    <path clip-path="url(#pe067ca5dee)" d="
M204.186 243.407
L204.186 13.0069" style="fill:none;stroke:#cccccc;stroke-linecap:square;"/>
   </g>
   <g id="line2d_16">
    <path clip-path="url(#pe067ca5dee)" d="
M215.361 243.407
L215.361 13.0069" style="fill:none;stroke:#cccccc;stroke-linecap:square;"/>
   </g>
   <g id="line2d_17">
    <path clip-path="url(#pe067ca5dee)" d="
M224.673 243.407
L224.673 13.0069" style="fill:none;stroke:#cccccc;stroke-linecap:square;"/>
   </g>
   <g id="line2d_18">
    <path clip-path="url(#pe067ca5dee)" d="
M236.966 243.407
L236.966 13.0069" style="fill:none;stroke:#cccccc;stroke-linecap:square;"/>
   </g>
   <g id="line2d_19">
    <path clip-path="url(#pe067ca5dee)" d="
M270.863 243.407
L270.863 13.0069" style="fill:none;stroke:#cccccc;stroke-linecap:square;"/>
   </g>
   <g id="line2d_20">
    <path clip-path="url(#pe067ca5dee)" d="
M264.158 243.407
L264.158 13.0069" style="fill:none;stroke:#333333;stroke-linecap:square;"/>
   </g>
   <g id="line2d_21">
    <path clip-path="url(#pe067ca5dee)" d="
M275.706 243.407
L275.706 13.0069" style="fill:none;stroke:#cccccc;stroke-linecap:square;"/>
   </g>
   <g id="line2d_22">
    <path clip-path="url(#pe067ca5dee)" d="
M286.135 243.407
L286.135 13.0069" style="fill:none;stroke:#cccccc;stroke-linecap:square;"/>
   </g>
   <g id="line2d_23">
    <path clip-path="url(#pe067ca5dee)" d="
M299.918 243.407
L299.918 13.0069" style="fill:none;stroke:#cccccc;stroke-linecap:square;"/>
   </g>
   <g id="line2d_24">
    <path clip-path="url(#pe067ca5dee)" d="
M324.13 243.407
L324.13 13.0069" style="fill:none;stroke:#cccccc;stroke-linecap:square;"/>
   </g>
   <g id="line2d_25">
    <path clip-path="url(#pe067ca5dee)" d="
M359.145 243.407
L359.145 13.0069" style="fill:none;stroke:#cccccc;stroke-linecap:square;"/>
   </g>
   <g id="line2d_26">
    <path clip-path="url(#pe067ca5dee)" d="
M393.042 243.407
L393.042 13.0069" style="fill:none;stroke:#cccccc;stroke-linecap:square;"/>
   </g>
   <g id="line2d_27">
    <path clip-path="url(#pe067ca5dee)" d="
M393.414 243.407
L393.414 13.0069" style="fill:none;stroke:#333333;stroke-linecap:square;"/>
   </g>
   <g id="line2d_28">
    <path clip-path="url(#pe067ca5dee)" d="
M455.621 243.407
L455.621 13.0069" style="fill:none;stroke:#cccccc;stroke-linecap:square;"/>
   </g>
   <g id="line2d_29">
    <path clip-path="url(#pe067ca5dee)" d="
M478.716 243.407
L478.716 13.0069" style="fill:none;stroke:#cccccc;stroke-linecap:square;"/>
   </g>
   <g id="line2d_30">
    <path clip-path="url(#pe067ca5dee)" d="
M495.106 243.407
L495.106 13.0069" style="fill:none;stroke:#333333;stroke-linecap:square;"/>
   </g>
   <g id="line2d_31">
    <path clip-path="url(#pe067ca5dee)" d="
M542.413 243.407
L542.413 13.0069" style="fill:none;stroke:#cccccc;stroke-linecap:square;"/>
   </g>
   <g id="line2d_32">
    <path clip-path="url(#pe067ca5dee)" d="
M561.038 243.407
L561.038 13.0069" style="fill:none;stroke:#cccccc;stroke-linecap:square;"/>
   </g>
   <g id="matplotlib.axis_1">
    <g id="xtick_1">
     <g id="line2d_33">
      <defs>
       <path d="
M0 0
L0 -4" id="m93b0483c22" style="stroke:#000000;stroke-width:0.5;"/>
      </defs>
      <g>
       <use style="stroke:#000000;stroke-width:0.5;" x="102.867086115" xlink:href="#m93b0483c22" y="243.406875"/>
      </g>
     </g>
     <g id="line2d_34">
      <defs>
       <path d="
M0 0
L0 4" id="m741efc42ff" style="stroke:#000000;stroke-width:0.5;"/>
      </defs>
      <g>
       <use style="stroke:#000000;stroke-width:0.5;" x="102.867086115" xlink:href="#m741efc42ff" y="13.006875"/>
      </g>
     </g>
     <g id="text_1">
      <!-- Aug 2014 -->
      <defs>
       <path d="
M12.4062 8.29688
L28.5156 8.29688
L28.5156 63.9219
L10.9844 60.4062
L10.9844 69.3906
L28.4219 72.9062
L38.2812 72.9062
L38.2812 8.29688
L54.3906 8.29688
L54.3906 0
L12.4062 0
z
" id="DejaVuSans-31"/>
       <path d="
M31.7812 66.4062
Q24.1719 66.4062 20.3281 58.9062
Q16.5 51.4219 16.5 36.375
Q16.5 21.3906 20.3281 13.8906
Q24.1719 6.39062 31.7812 6.39062
Q39.4531 6.39062 43.2812 13.8906
Q47.125 21.3906 47.125 36.375
Q47.125 51.4219 43.2812 58.9062
Q39.4531 66.4062 31.7812 66.4062
M31.7812 74.2188
Q44.0469 74.2188 50.5156 64.5156
Q56.9844 54.8281 56.9844 36.375
Q56.9844 17.9688 50.5156 8.26562
Q44.0469 -1.42188 31.7812 -1.42188
Q19.5312 -1.42188 13.0625 8.26562
Q6.59375 17.9688 6.59375 36.375
Q6.59375 54.8281 13.0625 64.5156
Q19.5312 74.2188 31.7812 74.2188" id="DejaVuSans-30"/>
       <path id="DejaVuSans-20"/>
       <path d="
M19.1875 8.29688
L53.6094 8.29688
L53.6094 0
L7.32812 0
L7.32812 8.29688
Q12.9375 14.1094 22.625 23.8906
Q32.3281 33.6875 34.8125 36.5312
Q39.5469 41.8438 41.4219 45.5312
Q43.3125 49.2188 43.3125 52.7812
Q43.3125 58.5938 39.2344 62.25
Q35.1562 65.9219 28.6094 65.9219
Q23.9688 65.9219 18.8125 64.3125
Q13.6719 62.7031 7.8125 59.4219
L7.8125 69.3906
Q13.7656 71.7812 18.9375 73
Q24.125 74.2188 28.4219 74.2188
Q39.75 74.2188 46.4844 68.5469
Q53.2188 62.8906 53.2188 53.4219
Q53.2188 48.9219 51.5312 44.8906
Q49.8594 40.875 45.4062 35.4062
Q44.1875 33.9844 37.6406 27.2188
Q31.1094 20.4531 19.1875 8.29688" id="DejaVuSans-32"/>
       <path d="
M34.1875 63.1875
L20.7969 26.9062
L47.6094 26.9062
z

M28.6094 72.9062
L39.7969 72.9062
L67.5781 0
L57.3281 0
L50.6875 18.7031
L17.8281 18.7031
L11.1875 0
L0.78125 0
z
" id="DejaVuSans-41"/>
       <path d="
M8.5 21.5781
L8.5 54.6875
L17.4844 54.6875
L17.4844 21.9219
Q17.4844 14.1562 20.5 10.2656
Q23.5312 6.39062 29.5938 6.39062
Q36.8594 6.39062 41.0781 11.0312
Q45.3125 15.6719 45.3125 23.6875
L45.3125 54.6875
L54.2969 54.6875
L54.2969 0
L45.3125 0
L45.3125 8.40625
Q42.0469 3.42188 37.7188 1
Q33.4062 -1.42188 27.6875 -1.42188
Q18.2656 -1.42188 13.375 4.4375
Q8.5 10.2969 8.5 21.5781
M31.1094 56
z
" id="DejaVuSans-75"/>
       <path d="
M45.4062 27.9844
Q45.4062 37.75 41.375 43.1094
Q37.3594 48.4844 30.0781 48.4844
Q22.8594 48.4844 18.8281 43.1094
Q14.7969 37.75 14.7969 27.9844
Q14.7969 18.2656 18.8281 12.8906
Q22.8594 7.51562 30.0781 7.51562
Q37.3594 7.51562 41.375 12.8906
Q45.4062 18.2656 45.4062 27.9844
M54.3906 6.78125
Q54.3906 -7.17188 48.1875 -13.9844
Q42 -20.7969 29.2031 -20.7969
Q24.4688 -20.7969 20.2656 -20.0938
Q16.0625 -19.3906 12.1094 -17.9219
L12.1094 -9.1875
Q16.0625 -11.3281 19.9219 -12.3438
Q23.7812 -13.375 27.7812 -13.375
Q36.625 -13.375 41.0156 -8.76562
Q45.4062 -4.15625 45.4062 5.17188
L45.4062 9.625
Q42.625 4.78125 38.2812 2.39062
Q33.9375 0 27.875 0
Q17.8281 0 11.6719 7.65625
Q5.51562 15.3281 5.51562 27.9844
Q5.51562 40.6719 11.6719 48.3281
Q17.8281 56 27.875 56
Q33.9375 56 38.2812 53.6094
Q42.625 51.2188 45.4062 46.3906
L45.4062 54.6875
L54.3906 54.6875
z
" id="DejaVuSans-67"/>
       <path d="
M37.7969 64.3125
L12.8906 25.3906
L37.7969 25.3906
z

M35.2031 72.9062
L47.6094 72.9062
L47.6094 25.3906
L58.0156 25.3906
L58.0156 17.1875
L47.6094 17.1875
L47.6094 0
L37.7969 0
L37.7969 17.1875
L4.89062 17.1875
L4.89062 26.7031
z
" id="DejaVuSans-34"/>
      </defs>
      <g transform="translate(106.178336115 304.519375)rotate(-90.0)scale(0.12 -0.12)">
       <use xlink:href="#DejaVuSans-41"/>
       <use x="68.408203125" xlink:href="#DejaVuSans-75"/>
       <use x="131.787109375" xlink:href="#DejaVuSans-67"/>
       <use x="195.263671875" xlink:href="#DejaVuSans-20"/>
       <use x="227.05078125" xlink:href="#DejaVuSans-32"/>
       <use x="290.673828125" xlink:href="#DejaVuSans-30"/>
       <use x="354.296875" xlink:href="#DejaVuSans-31"/>
       <use x="417.919921875" xlink:href="#DejaVuSans-34"/>
      </g>
     </g>
    </g>
    <g id="xtick_2">
     <g id="line2d_35">
      <g>
       <use style="stroke:#000000;stroke-width:0.5;" x="171.406471963" xlink:href="#m93b0483c22" y="243.406875"/>
      </g>
     </g>
     <g id="line2d_36">
      <g>
       <use style="stroke:#000000;stroke-width:0.5;" x="171.406471963" xlink:href="#m741efc42ff" y="13.006875"/>
      </g>
     </g>
     <g id="text_2">
      <!-- Feb 2015 -->
      <defs>
       <path d="
M10.7969 72.9062
L49.5156 72.9062
L49.5156 64.5938
L19.8281 64.5938
L19.8281 46.7344
Q21.9688 47.4688 24.1094 47.8281
Q26.2656 48.1875 28.4219 48.1875
Q40.625 48.1875 47.75 41.5
Q54.8906 34.8125 54.8906 23.3906
Q54.8906 11.625 47.5625 5.09375
Q40.2344 -1.42188 26.9062 -1.42188
Q22.3125 -1.42188 17.5469 -0.640625
Q12.7969 0.140625 7.71875 1.70312
L7.71875 11.625
Q12.1094 9.23438 16.7969 8.0625
Q21.4844 6.89062 26.7031 6.89062
Q35.1562 6.89062 40.0781 11.3281
Q45.0156 15.7656 45.0156 23.3906
Q45.0156 31 40.0781 35.4375
Q35.1562 39.8906 26.7031 39.8906
Q22.75 39.8906 18.8125 39.0156
Q14.8906 38.1406 10.7969 36.2812
z
" id="DejaVuSans-35"/>
       <path d="
M9.8125 72.9062
L51.7031 72.9062
L51.7031 64.5938
L19.6719 64.5938
L19.6719 43.1094
L48.5781 43.1094
L48.5781 34.8125
L19.6719 34.8125
L19.6719 0
L9.8125 0
z
" id="DejaVuSans-46"/>
       <path d="
M56.2031 29.5938
L56.2031 25.2031
L14.8906 25.2031
Q15.4844 15.9219 20.4844 11.0625
Q25.4844 6.20312 34.4219 6.20312
Q39.5938 6.20312 44.4531 7.46875
Q49.3125 8.73438 54.1094 11.2812
L54.1094 2.78125
Q49.2656 0.734375 44.1875 -0.34375
Q39.1094 -1.42188 33.8906 -1.42188
Q20.7969 -1.42188 13.1562 6.1875
Q5.51562 13.8125 5.51562 26.8125
Q5.51562 40.2344 12.7656 48.1094
Q20.0156 56 32.3281 56
Q43.3594 56 49.7812 48.8906
Q56.2031 41.7969 56.2031 29.5938
M47.2188 32.2344
Q47.125 39.5938 43.0938 43.9844
Q39.0625 48.3906 32.4219 48.3906
Q24.9062 48.3906 20.3906 44.1406
Q15.875 39.8906 15.1875 32.1719
z
" id="DejaVuSans-65"/>
       <path d="
M48.6875 27.2969
Q48.6875 37.2031 44.6094 42.8438
Q40.5312 48.4844 33.4062 48.4844
Q26.2656 48.4844 22.1875 42.8438
Q18.1094 37.2031 18.1094 27.2969
Q18.1094 17.3906 22.1875 11.75
Q26.2656 6.10938 33.4062 6.10938
Q40.5312 6.10938 44.6094 11.75
Q48.6875 17.3906 48.6875 27.2969
M18.1094 46.3906
Q20.9531 51.2656 25.2656 53.625
Q29.5938 56 35.5938 56
Q45.5625 56 51.7812 48.0938
Q58.0156 40.1875 58.0156 27.2969
Q58.0156 14.4062 51.7812 6.48438
Q45.5625 -1.42188 35.5938 -1.42188
Q29.5938 -1.42188 25.2656 0.953125
Q20.9531 3.32812 18.1094 8.20312
L18.1094 0
L9.07812 0
L9.07812 75.9844
L18.1094 75.9844
z
" id="DejaVuSans-62"/>
      </defs>
      <g transform="translate(174.717721963 301.95625)rotate(-90.0)scale(0.12 -0.12)">
       <use xlink:href="#DejaVuSans-46"/>
       <use x="52.01953125" xlink:href="#DejaVuSans-65"/>
       <use x="113.54296875" xlink:href="#DejaVuSans-62"/>
       <use x="177.01953125" xlink:href="#DejaVuSans-20"/>
       <use x="208.806640625" xlink:href="#DejaVuSans-32"/>
       <use x="272.4296875" xlink:href="#DejaVuSans-30"/>
       <use x="336.052734375" xlink:href="#DejaVuSans-31"/>
       <use x="399.67578125" xlink:href="#DejaVuSans-35"/>
      </g>
     </g>
    </g>
    <g id="xtick_3">
     <g id="line2d_37">
      <g>
       <use style="stroke:#000000;stroke-width:0.5;" x="238.828367824" xlink:href="#m93b0483c22" y="243.406875"/>
      </g>
     </g>
     <g id="line2d_38">
      <g>
       <use style="stroke:#000000;stroke-width:0.5;" x="238.828367824" xlink:href="#m741efc42ff" y="13.006875"/>
      </g>
     </g>
     <g id="text_3">
      <!-- Aug 2015 -->
      <g transform="translate(242.139617824 304.144375)rotate(-90.0)scale(0.12 -0.12)">
       <use xlink:href="#DejaVuSans-41"/>
       <use x="68.408203125" xlink:href="#DejaVuSans-75"/>
       <use x="131.787109375" xlink:href="#DejaVuSans-67"/>
       <use x="195.263671875" xlink:href="#DejaVuSans-20"/>
       <use x="227.05078125" xlink:href="#DejaVuSans-32"/>
       <use x="290.673828125" xlink:href="#DejaVuSans-30"/>
       <use x="354.296875" xlink:href="#DejaVuSans-31"/>
       <use x="417.919921875" xlink:href="#DejaVuSans-35"/>
      </g>
     </g>
    </g>
    <g id="xtick_4">
     <g id="line2d_39">
      <g>
       <use style="stroke:#000000;stroke-width:0.5;" x="307.367753672" xlink:href="#m93b0483c22" y="243.406875"/>
      </g>
     </g>
     <g id="line2d_40">
      <g>
       <use style="stroke:#000000;stroke-width:0.5;" x="307.367753672" xlink:href="#m741efc42ff" y="13.006875"/>
      </g>
     </g>
     <g id="text_4">
      <!-- Feb 2016 -->
      <defs>
       <path d="
M33.0156 40.375
Q26.375 40.375 22.4844 35.8281
Q18.6094 31.2969 18.6094 23.3906
Q18.6094 15.5312 22.4844 10.9531
Q26.375 6.39062 33.0156 6.39062
Q39.6562 6.39062 43.5312 10.9531
Q47.4062 15.5312 47.4062 23.3906
Q47.4062 31.2969 43.5312 35.8281
Q39.6562 40.375 33.0156 40.375
M52.5938 71.2969
L52.5938 62.3125
Q48.875 64.0625 45.0938 64.9844
Q41.3125 65.9219 37.5938 65.9219
Q27.8281 65.9219 22.6719 59.3281
Q17.5312 52.7344 16.7969 39.4062
Q19.6719 43.6562 24.0156 45.9219
Q28.375 48.1875 33.5938 48.1875
Q44.5781 48.1875 50.9531 41.5156
Q57.3281 34.8594 57.3281 23.3906
Q57.3281 12.1562 50.6875 5.35938
Q44.0469 -1.42188 33.0156 -1.42188
Q20.3594 -1.42188 13.6719 8.26562
Q6.98438 17.9688 6.98438 36.375
Q6.98438 53.6562 15.1875 63.9375
Q23.3906 74.2188 37.2031 74.2188
Q40.9219 74.2188 44.7031 73.4844
Q48.4844 72.75 52.5938 71.2969" id="DejaVuSans-36"/>
      </defs>
      <g transform="translate(310.679003672 302.24875)rotate(-90.0)scale(0.12 -0.12)">
       <use xlink:href="#DejaVuSans-46"/>
       <use x="52.01953125" xlink:href="#DejaVuSans-65"/>
       <use x="113.54296875" xlink:href="#DejaVuSans-62"/>
       <use x="177.01953125" xlink:href="#DejaVuSans-20"/>
       <use x="208.806640625" xlink:href="#DejaVuSans-32"/>
       <use x="272.4296875" xlink:href="#DejaVuSans-30"/>
       <use x="336.052734375" xlink:href="#DejaVuSans-31"/>
       <use x="399.67578125" xlink:href="#DejaVuSans-36"/>
      </g>
     </g>
    </g>
    <g id="xtick_5">
     <g id="line2d_41">
      <g>
       <use style="stroke:#000000;stroke-width:0.5;" x="375.162146195" xlink:href="#m93b0483c22" y="243.406875"/>
      </g>
     </g>
     <g id="line2d_42">
      <g>
       <use style="stroke:#000000;stroke-width:0.5;" x="375.162146195" xlink:href="#m741efc42ff" y="13.006875"/>
      </g>
     </g>
     <g id="text_5">
      <!-- Aug 2016 -->
      <g transform="translate(378.473396195 304.436875)rotate(-90.0)scale(0.12 -0.12)">
       <use xlink:href="#DejaVuSans-41"/>
       <use x="68.408203125" xlink:href="#DejaVuSans-75"/>
       <use x="131.787109375" xlink:href="#DejaVuSans-67"/>
       <use x="195.263671875" xlink:href="#DejaVuSans-20"/>
       <use x="227.05078125" xlink:href="#DejaVuSans-32"/>
       <use x="290.673828125" xlink:href="#DejaVuSans-30"/>
       <use x="354.296875" xlink:href="#DejaVuSans-31"/>
       <use x="417.919921875" xlink:href="#DejaVuSans-36"/>
      </g>
     </g>
    </g>
    <g id="xtick_6">
     <g id="line2d_43">
      <g>
       <use style="stroke:#000000;stroke-width:0.5;" x="443.701532043" xlink:href="#m93b0483c22" y="243.406875"/>
      </g>
     </g>
     <g id="line2d_44">
      <g>
       <use style="stroke:#000000;stroke-width:0.5;" x="443.701532043" xlink:href="#m741efc42ff" y="13.006875"/>
      </g>
     </g>
     <g id="text_6">
      <!-- Feb 2017 -->
      <defs>
       <path d="
M8.20312 72.9062
L55.0781 72.9062
L55.0781 68.7031
L28.6094 0
L18.3125 0
L43.2188 64.5938
L8.20312 64.5938
z
" id="DejaVuSans-37"/>
      </defs>
      <g transform="translate(447.012782043 301.97875)rotate(-90.0)scale(0.12 -0.12)">
       <use xlink:href="#DejaVuSans-46"/>
       <use x="52.01953125" xlink:href="#DejaVuSans-65"/>
       <use x="113.54296875" xlink:href="#DejaVuSans-62"/>
       <use x="177.01953125" xlink:href="#DejaVuSans-20"/>
       <use x="208.806640625" xlink:href="#DejaVuSans-32"/>
       <use x="272.4296875" xlink:href="#DejaVuSans-30"/>
       <use x="336.052734375" xlink:href="#DejaVuSans-31"/>
       <use x="399.67578125" xlink:href="#DejaVuSans-37"/>
      </g>
     </g>
    </g>
    <g id="xtick_7">
     <g id="line2d_45">
      <g>
       <use style="stroke:#000000;stroke-width:0.5;" x="511.123427904" xlink:href="#m93b0483c22" y="243.406875"/>
      </g>
     </g>
     <g id="line2d_46">
      <g>
       <use style="stroke:#000000;stroke-width:0.5;" x="511.123427904" xlink:href="#m741efc42ff" y="13.006875"/>
      </g>
     </g>
     <g id="text_7">
      <!-- Aug 2017 -->
      <g transform="translate(514.434677904 304.166875)rotate(-90.0)scale(0.12 -0.12)">
       <use xlink:href="#DejaVuSans-41"/>
       <use x="68.408203125" xlink:href="#DejaVuSans-75"/>
       <use x="131.787109375" xlink:href="#DejaVuSans-67"/>
       <use x="195.263671875" xlink:href="#DejaVuSans-20"/>
       <use x="227.05078125" xlink:href="#DejaVuSans-32"/>
       <use x="290.673828125" xlink:href="#DejaVuSans-30"/>
       <use x="354.296875" xlink:href="#DejaVuSans-31"/>
       <use x="417.919921875" xlink:href="#DejaVuSans-37"/>
      </g>
     </g>
    </g>
    <g id="xtick_8">
     <g id="line2d_47">
      <g>
       <use style="stroke:#000000;stroke-width:0.5;" x="579.662813752" xlink:href="#m93b0483c22" y="243.406875"/>
      </g>
     </g>
     <g id="line2d_48">
      <g>
       <use style="stroke:#000000;stroke-width:0.5;" x="579.662813752" xlink:href="#m741efc42ff" y="13.006875"/>
      </g>
     </g>
     <g id="text_8">
      <!-- Feb 2018 -->
      <defs>
       <path d="
M31.7812 34.625
Q24.75 34.625 20.7188 30.8594
Q16.7031 27.0938 16.7031 20.5156
Q16.7031 13.9219 20.7188 10.1562
Q24.75 6.39062 31.7812 6.39062
Q38.8125 6.39062 42.8594 10.1719
Q46.9219 13.9688 46.9219 20.5156
Q46.9219 27.0938 42.8906 30.8594
Q38.875 34.625 31.7812 34.625
M21.9219 38.8125
Q15.5781 40.375 12.0312 44.7188
Q8.5 49.0781 8.5 55.3281
Q8.5 64.0625 14.7188 69.1406
Q20.9531 74.2188 31.7812 74.2188
Q42.6719 74.2188 48.875 69.1406
Q55.0781 64.0625 55.0781 55.3281
Q55.0781 49.0781 51.5312 44.7188
Q48 40.375 41.7031 38.8125
Q48.8281 37.1562 52.7969 32.3125
Q56.7812 27.4844 56.7812 20.5156
Q56.7812 9.90625 50.3125 4.23438
Q43.8438 -1.42188 31.7812 -1.42188
Q19.7344 -1.42188 13.25 4.23438
Q6.78125 9.90625 6.78125 20.5156
Q6.78125 27.4844 10.7812 32.3125
Q14.7969 37.1562 21.9219 38.8125
M18.3125 54.3906
Q18.3125 48.7344 21.8438 45.5625
Q25.3906 42.3906 31.7812 42.3906
Q38.1406 42.3906 41.7188 45.5625
Q45.3125 48.7344 45.3125 54.3906
Q45.3125 60.0625 41.7188 63.2344
Q38.1406 66.4062 31.7812 66.4062
Q25.3906 66.4062 21.8438 63.2344
Q18.3125 60.0625 18.3125 54.3906" id="DejaVuSans-38"/>
      </defs>
      <g transform="translate(582.974063752 302.183125)rotate(-90.0)scale(0.12 -0.12)">
       <use xlink:href="#DejaVuSans-46"/>
       <use x="52.01953125" xlink:href="#DejaVuSans-65"/>
       <use x="113.54296875" xlink:href="#DejaVuSans-62"/>
       <use x="177.01953125" xlink:href="#DejaVuSans-20"/>
       <use x="208.806640625" xlink:href="#DejaVuSans-32"/>
       <use x="272.4296875" xlink:href="#DejaVuSans-30"/>
       <use x="336.052734375" xlink:href="#DejaVuSans-31"/>
       <use x="399.67578125" xlink:href="#DejaVuSans-38"/>
      </g>
     </g>
    </g>
   </g>
   <g id="matplotlib.axis_2">
    <g id="ytick_1">
     <g id="line2d_49">
      <defs>
       <path d="
M0 0
L4 0" id="m728421d6d4" style="stroke:#000000;stroke-width:0.5;"/>
      </defs>
      <g>
       <use style="stroke:#000000;stroke-width:0.5;" x="56.6775" xlink:href="#m728421d6d4" y="243.406875"/>
      </g>
     </g>
     <g id="line2d_50">
      <defs>
       <path d="
M0 0
L-4 0" id="mcb0005524f" style="stroke:#000000;stroke-width:0.5;"/>
      </defs>
      <g>
       <use style="stroke:#000000;stroke-width:0.5;" x="614.6775" xlink:href="#mcb0005524f" y="243.406875"/>
      </g>
     </g>
     <g id="text_9">
      <!-- 200 -->
      <g transform="translate(31.44875 246.718125)scale(0.12 -0.12)">
       <use xlink:href="#DejaVuSans-32"/>
       <use x="63.623046875" xlink:href="#DejaVuSans-30"/>
       <use x="127.24609375" xlink:href="#DejaVuSans-30"/>
      </g>
     </g>
    </g>
    <g id="ytick_2">
     <g id="line2d_51">
      <g>
       <use style="stroke:#000000;stroke-width:0.5;" x="56.6775" xlink:href="#m728421d6d4" y="217.806875"/>
      </g>
     </g>
     <g id="line2d_52">
      <g>
       <use style="stroke:#000000;stroke-width:0.5;" x="614.6775" xlink:href="#mcb0005524f" y="217.806875"/>
      </g>
     </g>
     <g id="text_10">
      <!-- 400 -->
      <g transform="translate(31.15625 221.118125)scale(0.12 -0.12)">
       <use xlink:href="#DejaVuSans-34"/>
       <use x="63.623046875" xlink:href="#DejaVuSans-30"/>
       <use x="127.24609375" xlink:href="#DejaVuSans-30"/>
      </g>
     </g>
    </g>
    <g id="ytick_3">
     <g id="line2d_53">
      <g>
       <use style="stroke:#000000;stroke-width:0.5;" x="56.6775" xlink:href="#m728421d6d4" y="192.206875"/>
      </g>
     </g>
     <g id="line2d_54">
      <g>
       <use style="stroke:#000000;stroke-width:0.5;" x="614.6775" xlink:href="#mcb0005524f" y="192.206875"/>
      </g>
     </g>
     <g id="text_11">
      <!-- 600 -->
      <g transform="translate(31.4075 195.518125)scale(0.12 -0.12)">
       <use xlink:href="#DejaVuSans-36"/>
       <use x="63.623046875" xlink:href="#DejaVuSans-30"/>
       <use x="127.24609375" xlink:href="#DejaVuSans-30"/>
      </g>
     </g>
    </g>
    <g id="ytick_4">
     <g id="line2d_55">
      <g>
       <use style="stroke:#000000;stroke-width:0.5;" x="56.6775" xlink:href="#m728421d6d4" y="166.606875"/>
      </g>
     </g>
     <g id="line2d_56">
      <g>
       <use style="stroke:#000000;stroke-width:0.5;" x="614.6775" xlink:href="#mcb0005524f" y="166.606875"/>
      </g>
     </g>
     <g id="text_12">
      <!-- 800 -->
      <g transform="translate(31.383125 169.918125)scale(0.12 -0.12)">
       <use xlink:href="#DejaVuSans-38"/>
       <use x="63.623046875" xlink:href="#DejaVuSans-30"/>
       <use x="127.24609375" xlink:href="#DejaVuSans-30"/>
      </g>
     </g>
    </g>
    <g id="ytick_5">
     <g id="line2d_57">
      <g>
       <use style="stroke:#000000;stroke-width:0.5;" x="56.6775" xlink:href="#m728421d6d4" y="141.006875"/>
      </g>
     </g>
     <g id="line2d_58">
      <g>
       <use style="stroke:#000000;stroke-width:0.5;" x="614.6775" xlink:href="#mcb0005524f" y="141.006875"/>
      </g>
     </g>
     <g id="text_13">
      <!-- 1000 -->
      <g transform="translate(24.2525 144.318125)scale(0.12 -0.12)">
       <use xlink:href="#DejaVuSans-31"/>
       <use x="63.623046875" xlink:href="#DejaVuSans-30"/>
       <use x="127.24609375" xlink:href="#DejaVuSans-30"/>
       <use x="190.869140625" xlink:href="#DejaVuSans-30"/>
      </g>
     </g>
    </g>
    <g id="ytick_6">
     <g id="line2d_59">
      <g>
       <use style="stroke:#000000;stroke-width:0.5;" x="56.6775" xlink:href="#m728421d6d4" y="115.406875"/>
      </g>
     </g>
     <g id="line2d_60">
      <g>
       <use style="stroke:#000000;stroke-width:0.5;" x="614.6775" xlink:href="#mcb0005524f" y="115.406875"/>
      </g>
     </g>
     <g id="text_14">
      <!-- 1200 -->
      <g transform="translate(24.2525 118.718125)scale(0.12 -0.12)">
       <use xlink:href="#DejaVuSans-31"/>
       <use x="63.623046875" xlink:href="#DejaVuSans-32"/>
       <use x="127.24609375" xlink:href="#DejaVuSans-30"/>
       <use x="190.869140625" xlink:href="#DejaVuSans-30"/>
      </g>
     </g>
    </g>
    <g id="ytick_7">
     <g id="line2d_61">
      <g>
       <use style="stroke:#000000;stroke-width:0.5;" x="56.6775" xlink:href="#m728421d6d4" y="89.806875"/>
      </g>
     </g>
     <g id="line2d_62">
      <g>
       <use style="stroke:#000000;stroke-width:0.5;" x="614.6775" xlink:href="#mcb0005524f" y="89.806875"/>
      </g>
     </g>
     <g id="text_15">
      <!-- 1400 -->
      <g transform="translate(24.2525 93.118125)scale(0.12 -0.12)">
       <use xlink:href="#DejaVuSans-31"/>
       <use x="63.623046875" xlink:href="#DejaVuSans-34"/>
       <use x="127.24609375" xlink:href="#DejaVuSans-30"/>
       <use x="190.869140625" xlink:href="#DejaVuSans-30"/>
      </g>
     </g>
    </g>
    <g id="ytick_8">
     <g id="line2d_63">
      <g>
       <use style="stroke:#000000;stroke-width:0.5;" x="56.6775" xlink:href="#m728421d6d4" y="64.206875"/>
      </g>
     </g>
     <g id="line2d_64">
      <g>
       <use style="stroke:#000000;stroke-width:0.5;" x="614.6775" xlink:href="#mcb0005524f" y="64.206875"/>
      </g>
     </g>
     <g id="text_16">
      <!-- 1600 -->
      <g transform="translate(24.2525 67.518125)scale(0.12 -0.12)">
       <use xlink:href="#DejaVuSans-31"/>
       <use x="63.623046875" xlink:href="#DejaVuSans-36"/>
       <use x="127.24609375" xlink:href="#DejaVuSans-30"/>
       <use x="190.869140625" xlink:href="#DejaVuSans-30"/>
      </g>
     </g>
    </g>
    <g id="ytick_9">
     <g id="line2d_65">
      <g>
       <use style="stroke:#000000;stroke-width:0.5;" x="56.6775" xlink:href="#m728421d6d4" y="38.606875"/>
      </g>
     </g>
     <g id="line2d_66">
      <g>
       <use style="stroke:#000000;stroke-width:0.5;" x="614.6775" xlink:href="#mcb0005524f" y="38.606875"/>
      </g>
     </g>
     <g id="text_17">
      <!-- 1800 -->
      <g transform="translate(24.2525 41.918125)scale(0.12 -0.12)">
       <use xlink:href="#DejaVuSans-31"/>
       <use x="63.623046875" xlink:href="#DejaVuSans-38"/>
       <use x="127.24609375" xlink:href="#DejaVuSans-30"/>
       <use x="190.869140625" xlink:href="#DejaVuSans-30"/>
      </g>
     </g>
    </g>
    <g id="ytick_10">
     <g id="line2d_67">
      <g>
       <use style="stroke:#000000;stroke-width:0.5;" x="56.6775" xlink:href="#m728421d6d4" y="13.006875"/>
      </g>
     </g>
     <g id="line2d_68">
      <g>
       <use style="stroke:#000000;stroke-width:0.5;" x="614.6775" xlink:href="#mcb0005524f" y="13.006875"/>
      </g>
     </g>
     <g id="text_18">
      <!-- 2000 -->
      <g transform="translate(23.81375 16.318125)scale(0.12 -0.12)">
       <use xlink:href="#DejaVuSans-32"/>
       <use x="63.623046875" xlink:href="#DejaVuSans-30"/>
       <use x="127.24609375" xlink:href="#DejaVuSans-30"/>
       <use x="190.869140625" xlink:href="#DejaVuSans-30"/>
      </g>
     </g>
    </g>
    <g id="text_19">
     <!-- Number of Tagged Packages -->
     <defs>
      <path d="
M9.8125 72.9062
L23.0938 72.9062
L55.4219 11.9219
L55.4219 72.9062
L64.9844 72.9062
L64.9844 0
L51.7031 0
L19.3906 60.9844
L19.3906 0
L9.8125 0
z
" id="DejaVuSans-4e"/>
      <path d="
M19.6719 64.7969
L19.6719 37.4062
L32.0781 37.4062
Q38.9688 37.4062 42.7188 40.9688
Q46.4844 44.5312 46.4844 51.125
Q46.4844 57.6719 42.7188 61.2344
Q38.9688 64.7969 32.0781 64.7969
z

M9.8125 72.9062
L32.0781 72.9062
Q44.3438 72.9062 50.6094 67.3594
Q56.8906 61.8125 56.8906 51.125
Q56.8906 40.3281 50.6094 34.8125
Q44.3438 29.2969 32.0781 29.2969
L19.6719 29.2969
L19.6719 0
L9.8125 0
z
" id="DejaVuSans-50"/>
      <path d="
M30.6094 48.3906
Q23.3906 48.3906 19.1875 42.75
Q14.9844 37.1094 14.9844 27.2969
Q14.9844 17.4844 19.1562 11.8438
Q23.3438 6.20312 30.6094 6.20312
Q37.7969 6.20312 41.9844 11.8594
Q46.1875 17.5312 46.1875 27.2969
Q46.1875 37.0156 41.9844 42.7031
Q37.7969 48.3906 30.6094 48.3906
M30.6094 56
Q42.3281 56 49.0156 48.375
Q55.7188 40.7656 55.7188 27.2969
Q55.7188 13.875 49.0156 6.21875
Q42.3281 -1.42188 30.6094 -1.42188
Q18.8438 -1.42188 12.1719 6.21875
Q5.51562 13.875 5.51562 27.2969
Q5.51562 40.7656 12.1719 48.375
Q18.8438 56 30.6094 56" id="DejaVuSans-6f"/>
      <path d="
M52 44.1875
Q55.375 50.25 60.0625 53.125
Q64.75 56 71.0938 56
Q79.6406 56 84.2812 50.0156
Q88.9219 44.0469 88.9219 33.0156
L88.9219 0
L79.8906 0
L79.8906 32.7188
Q79.8906 40.5781 77.0938 44.375
Q74.3125 48.1875 68.6094 48.1875
Q61.625 48.1875 57.5625 43.5469
Q53.5156 38.9219 53.5156 30.9062
L53.5156 0
L44.4844 0
L44.4844 32.7188
Q44.4844 40.625 41.7031 44.4062
Q38.9219 48.1875 33.1094 48.1875
Q26.2188 48.1875 22.1562 43.5312
Q18.1094 38.875 18.1094 30.9062
L18.1094 0
L9.07812 0
L9.07812 54.6875
L18.1094 54.6875
L18.1094 46.1875
Q21.1875 51.2188 25.4844 53.6094
Q29.7812 56 35.6875 56
Q41.6562 56 45.8281 52.9688
Q50 49.9531 52 44.1875" id="DejaVuSans-6d"/>
      <path d="
M9.07812 75.9844
L18.1094 75.9844
L18.1094 31.1094
L44.9219 54.6875
L56.3906 54.6875
L27.3906 29.1094
L57.625 0
L45.9062 0
L18.1094 26.7031
L18.1094 0
L9.07812 0
z
" id="DejaVuSans-6b"/>
      <path d="
M34.2812 27.4844
Q23.3906 27.4844 19.1875 25
Q14.9844 22.5156 14.9844 16.5
Q14.9844 11.7188 18.1406 8.90625
Q21.2969 6.10938 26.7031 6.10938
Q34.1875 6.10938 38.7031 11.4062
Q43.2188 16.7031 43.2188 25.4844
L43.2188 27.4844
z

M52.2031 31.2031
L52.2031 0
L43.2188 0
L43.2188 8.29688
Q40.1406 3.32812 35.5469 0.953125
Q30.9531 -1.42188 24.3125 -1.42188
Q15.9219 -1.42188 10.9531 3.29688
Q6 8.01562 6 15.9219
Q6 25.1406 12.1719 29.8281
Q18.3594 34.5156 30.6094 34.5156
L43.2188 34.5156
L43.2188 35.4062
Q43.2188 41.6094 39.1406 45
Q35.0625 48.3906 27.6875 48.3906
Q23 48.3906 18.5469 47.2656
Q14.1094 46.1406 10.0156 43.8906
L10.0156 52.2031
Q14.9375 54.1094 19.5781 55.0469
Q24.2188 56 28.6094 56
Q40.4844 56 46.3438 49.8438
Q52.2031 43.7031 52.2031 31.2031" id="DejaVuSans-61"/>
      <path d="
M37.1094 75.9844
L37.1094 68.5
L28.5156 68.5
Q23.6875 68.5 21.7969 66.5469
Q19.9219 64.5938 19.9219 59.5156
L19.9219 54.6875
L34.7188 54.6875
L34.7188 47.7031
L19.9219 47.7031
L19.9219 0
L10.8906 0
L10.8906 47.7031
L2.29688 47.7031
L2.29688 54.6875
L10.8906 54.6875
L10.8906 58.5
Q10.8906 67.625 15.1406 71.7969
Q19.3906 75.9844 28.6094 75.9844
z
" id="DejaVuSans-66"/>
      <path d="
M45.4062 46.3906
L45.4062 75.9844
L54.3906 75.9844
L54.3906 0
L45.4062 0
L45.4062 8.20312
Q42.5781 3.32812 38.25 0.953125
Q33.9375 -1.42188 27.875 -1.42188
Q17.9688 -1.42188 11.7344 6.48438
Q5.51562 14.4062 5.51562 27.2969
Q5.51562 40.1875 11.7344 48.0938
Q17.9688 56 27.875 56
Q33.9375 56 38.25 53.625
Q42.5781 51.2656 45.4062 46.3906
M14.7969 27.2969
Q14.7969 17.3906 18.875 11.75
Q22.9531 6.10938 30.0781 6.10938
Q37.2031 6.10938 41.2969 11.75
Q45.4062 17.3906 45.4062 27.2969
Q45.4062 37.2031 41.2969 42.8438
Q37.2031 48.4844 30.0781 48.4844
Q22.9531 48.4844 18.875 42.8438
Q14.7969 37.2031 14.7969 27.2969" id="DejaVuSans-64"/>
      <path d="
M41.1094 46.2969
Q39.5938 47.1719 37.8125 47.5781
Q36.0312 48 33.8906 48
Q26.2656 48 22.1875 43.0469
Q18.1094 38.0938 18.1094 28.8125
L18.1094 0
L9.07812 0
L9.07812 54.6875
L18.1094 54.6875
L18.1094 46.1875
Q20.9531 51.1719 25.4844 53.5781
Q30.0312 56 36.5312 56
Q37.4531 56 38.5781 55.875
Q39.7031 55.7656 41.0625 55.5156
z
" id="DejaVuSans-72"/>
      <path d="
M48.7812 52.5938
L48.7812 44.1875
Q44.9688 46.2969 41.1406 47.3438
Q37.3125 48.3906 33.4062 48.3906
Q24.6562 48.3906 19.8125 42.8438
Q14.9844 37.3125 14.9844 27.2969
Q14.9844 17.2812 19.8125 11.7344
Q24.6562 6.20312 33.4062 6.20312
Q37.3125 6.20312 41.1406 7.25
Q44.9688 8.29688 48.7812 10.4062
L48.7812 2.09375
Q45.0156 0.34375 40.9844 -0.53125
Q36.9688 -1.42188 32.4219 -1.42188
Q20.0625 -1.42188 12.7812 6.34375
Q5.51562 14.1094 5.51562 27.2969
Q5.51562 40.6719 12.8594 48.3281
Q20.2188 56 33.0156 56
Q37.1562 56 41.1094 55.1406
Q45.0625 54.2969 48.7812 52.5938" id="DejaVuSans-63"/>
      <path d="
M44.2812 53.0781
L44.2812 44.5781
Q40.4844 46.5312 36.375 47.5
Q32.2812 48.4844 27.875 48.4844
Q21.1875 48.4844 17.8438 46.4375
Q14.5 44.3906 14.5 40.2812
Q14.5 37.1562 16.8906 35.375
Q19.2812 33.5938 26.5156 31.9844
L29.5938 31.2969
Q39.1562 29.25 43.1875 25.5156
Q47.2188 21.7812 47.2188 15.0938
Q47.2188 7.46875 41.1875 3.01562
Q35.1562 -1.42188 24.6094 -1.42188
Q20.2188 -1.42188 15.4531 -0.5625
Q10.6875 0.296875 5.42188 2
L5.42188 11.2812
Q10.4062 8.6875 15.2344 7.39062
Q20.0625 6.10938 24.8125 6.10938
Q31.1562 6.10938 34.5625 8.28125
Q37.9844 10.4531 37.9844 14.4062
Q37.9844 18.0625 35.5156 20.0156
Q33.0625 21.9688 24.7031 23.7812
L21.5781 24.5156
Q13.2344 26.2656 9.51562 29.9062
Q5.8125 33.5469 5.8125 39.8906
Q5.8125 47.6094 11.2812 51.7969
Q16.75 56 26.8125 56
Q31.7812 56 36.1719 55.2656
Q40.5781 54.5469 44.2812 53.0781" id="DejaVuSans-73"/>
      <path d="
M-0.296875 72.9062
L61.375 72.9062
L61.375 64.5938
L35.5 64.5938
L35.5 0
L25.5938 0
L25.5938 64.5938
L-0.296875 64.5938
z
" id="DejaVuSans-54"/>
     </defs>
     <g transform="translate(16.318125 212.98875)rotate(-90.0)scale(0.12 -0.12)">
      <use xlink:href="#DejaVuSans-4e"/>
      <use x="74.8046875" xlink:href="#DejaVuSans-75"/>
      <use x="138.18359375" xlink:href="#DejaVuSans-6d"/>
      <use x="235.595703125" xlink:href="#DejaVuSans-62"/>
      <use x="299.072265625" xlink:href="#DejaVuSans-65"/>
      <use x="360.595703125" xlink:href="#DejaVuSans-72"/>
      <use x="401.708984375" xlink:href="#DejaVuSans-20"/>
      <use x="433.49609375" xlink:href="#DejaVuSans-6f"/>
      <use x="494.677734375" xlink:href="#DejaVuSans-66"/>
      <use x="529.8828125" xlink:href="#DejaVuSans-20"/>
      <use x="561.669921875" xlink:href="#DejaVuSans-54"/>
      <use x="606.25390625" xlink:href="#DejaVuSans-61"/>
      <use x="667.533203125" xlink:href="#DejaVuSans-67"/>
      <use x="731.009765625" xlink:href="#DejaVuSans-67"/>
      <use x="794.486328125" xlink:href="#DejaVuSans-65"/>
      <use x="856.009765625" xlink:href="#DejaVuSans-64"/>
      <use x="919.486328125" xlink:href="#DejaVuSans-20"/>
      <use x="951.2734375" xlink:href="#DejaVuSans-50"/>
      <use x="1007.07617188" xlink:href="#DejaVuSans-61"/>
      <use x="1068.35546875" xlink:href="#DejaVuSans-63"/>
      <use x="1123.3359375" xlink:href="#DejaVuSans-6b"/>
      <use x="1179.49609375" xlink:href="#DejaVuSans-61"/>
      <use x="1240.77539062" xlink:href="#DejaVuSans-67"/>
      <use x="1304.25195312" xlink:href="#DejaVuSans-65"/>
      <use x="1365.77539062" xlink:href="#DejaVuSans-73"/>
     </g>
    </g>
   </g>
   <g id="patch_3">
    <path d="
M56.6775 13.0069
L614.677 13.0069" style="fill:none;stroke:#000000;"/>
   </g>
   <g id="patch_4">
    <path d="
M614.678 243.407
L614.678 13.0069" style="fill:none;stroke:#000000;"/>
   </g>
   <g id="patch_5">
    <path d="
M56.6775 243.407
L614.677 243.407" style="fill:none;stroke:#000000;"/>
   </g>
   <g id="patch_6">
    <path d="
M56.6775 243.407
L56.6775 13.0069" style="fill:none;stroke:#000000;"/>
   </g>
   <g id="text_20">
    <g id="patch_7">
     <path d="
M103.107 172.199
L116.782 172.199
L116.782 137.811
L103.107 137.811
z
" style="fill:#ffffff;stroke:#ffffff;"/>
    </g>
    <!-- v0.3.0 -->
    <defs>
     <path d="
M40.5781 39.3125
Q47.6562 37.7969 51.625 33
Q55.6094 28.2188 55.6094 21.1875
Q55.6094 10.4062 48.1875 4.48438
Q40.7656 -1.42188 27.0938 -1.42188
Q22.5156 -1.42188 17.6562 -0.515625
Q12.7969 0.390625 7.625 2.20312
L7.625 11.7188
Q11.7188 9.32812 16.5938 8.10938
Q21.4844 6.89062 26.8125 6.89062
Q36.0781 6.89062 40.9375 10.5469
Q45.7969 14.2031 45.7969 21.1875
Q45.7969 27.6406 41.2812 31.2656
Q36.7656 34.9062 28.7188 34.9062
L20.2188 34.9062
L20.2188 43.0156
L29.1094 43.0156
Q36.375 43.0156 40.2344 45.9219
Q44.0938 48.8281 44.0938 54.2969
Q44.0938 59.9062 40.1094 62.9062
Q36.1406 65.9219 28.7188 65.9219
Q24.6562 65.9219 20.0156 65.0312
Q15.375 64.1562 9.8125 62.3125
L9.8125 71.0938
Q15.4375 72.6562 20.3438 73.4375
Q25.25 74.2188 29.5938 74.2188
Q40.8281 74.2188 47.3594 69.1094
Q53.9062 64.0156 53.9062 55.3281
Q53.9062 49.2656 50.4375 45.0938
Q46.9688 40.9219 40.5781 39.3125" id="DejaVuSans-33"/>
     <path d="
M2.98438 54.6875
L12.5 54.6875
L29.5938 8.79688
L46.6875 54.6875
L56.2031 54.6875
L35.6875 0
L23.4844 0
z
" id="DejaVuSans-76"/>
     <path d="
M10.6875 12.4062
L21 12.4062
L21 0
L10.6875 0
z
" id="DejaVuSans-2e"/>
    </defs>
    <g transform="translate(112.702793947 170.199316875)rotate(-90.0)scale(0.09996 -0.09996)">
     <use xlink:href="#DejaVuSans-76"/>
     <use x="59.1796875" xlink:href="#DejaVuSans-30"/>
     <use x="122.802734375" xlink:href="#DejaVuSans-2e"/>
     <use x="154.58984375" xlink:href="#DejaVuSans-33"/>
     <use x="218.212890625" xlink:href="#DejaVuSans-2e"/>
     <use x="250.0" xlink:href="#DejaVuSans-30"/>
    </g>
   </g>
   <g id="text_21">
    <g id="patch_8">
     <path d="
M115.027 146.34
L128.702 146.34
L128.702 112.211
L115.027 112.211
z
" style="fill:#ffffff;stroke:#ffffff;"/>
    </g>
    <!-- v0.3.1 -->
    <g transform="translate(124.622687138 144.340045625)rotate(-90.0)scale(0.09996 -0.09996)">
     <use xlink:href="#DejaVuSans-76"/>
     <use x="59.1796875" xlink:href="#DejaVuSans-30"/>
     <use x="122.802734375" xlink:href="#DejaVuSans-2e"/>
     <use x="154.58984375" xlink:href="#DejaVuSans-33"/>
     <use x="218.212890625" xlink:href="#DejaVuSans-2e"/>
     <use x="250.0" xlink:href="#DejaVuSans-31"/>
    </g>
   </g>
   <g id="text_22">
    <g id="patch_9">
     <path d="
M126.202 171.862
L139.876 171.862
L139.876 137.811
L126.202 137.811
z
" style="fill:#ffffff;stroke:#ffffff;"/>
    </g>
    <!-- v0.3.2 -->
    <g transform="translate(135.797587004 169.861951875)rotate(-90.0)scale(0.09996 -0.09996)">
     <use xlink:href="#DejaVuSans-76"/>
     <use x="59.1796875" xlink:href="#DejaVuSans-30"/>
     <use x="122.802734375" xlink:href="#DejaVuSans-2e"/>
     <use x="154.58984375" xlink:href="#DejaVuSans-33"/>
     <use x="218.212890625" xlink:href="#DejaVuSans-2e"/>
     <use x="250.0" xlink:href="#DejaVuSans-32"/>
    </g>
   </g>
   <g id="text_23">
    <g id="patch_10">
     <path d="
M138.495 146.462
L152.169 146.462
L152.169 112.211
L138.495 112.211
z
" style="fill:#ffffff;stroke:#ffffff;"/>
    </g>
    <!-- v0.3.3 -->
    <g transform="translate(148.089976857 144.461871875)rotate(-90.0)scale(0.09996 -0.09996)">
     <use xlink:href="#DejaVuSans-76"/>
     <use x="59.1796875" xlink:href="#DejaVuSans-30"/>
     <use x="122.802734375" xlink:href="#DejaVuSans-2e"/>
     <use x="154.58984375" xlink:href="#DejaVuSans-33"/>
     <use x="218.212890625" xlink:href="#DejaVuSans-2e"/>
     <use x="250.0" xlink:href="#DejaVuSans-33"/>
    </g>
   </g>
   <g id="text_24">
    <g id="patch_11">
     <path d="
M150.787 172.302
L164.461 172.302
L164.461 137.811
L150.787 137.811
z
" style="fill:#ffffff;stroke:#ffffff;"/>
    </g>
    <!-- v0.3.4 -->
    <g transform="translate(160.382366711 170.302400625)rotate(-90.0)scale(0.09996 -0.09996)">
     <use xlink:href="#DejaVuSans-76"/>
     <use x="59.1796875" xlink:href="#DejaVuSans-30"/>
     <use x="122.802734375" xlink:href="#DejaVuSans-2e"/>
     <use x="154.58984375" xlink:href="#DejaVuSans-33"/>
     <use x="218.212890625" xlink:href="#DejaVuSans-2e"/>
     <use x="250.0" xlink:href="#DejaVuSans-34"/>
    </g>
   </g>
   <g id="text_25">
    <g id="patch_12">
     <path d="
M155.629 146.39
L169.304 146.39
L169.304 112.211
L155.629 112.211
z
" style="fill:#ffffff;stroke:#ffffff;"/>
    </g>
    <!-- v0.3.5 -->
    <g transform="translate(165.224823319 144.390025625)rotate(-90.0)scale(0.09996 -0.09996)">
     <use xlink:href="#DejaVuSans-76"/>
     <use x="59.1796875" xlink:href="#DejaVuSans-30"/>
     <use x="122.802734375" xlink:href="#DejaVuSans-2e"/>
     <use x="154.58984375" xlink:href="#DejaVuSans-33"/>
     <use x="218.212890625" xlink:href="#DejaVuSans-2e"/>
     <use x="250.0" xlink:href="#DejaVuSans-35"/>
    </g>
   </g>
   <g id="text_26">
    <g id="patch_13">
     <path d="
M170.529 172.234
L184.204 172.234
L184.204 137.811
L170.529 137.811
z
" style="fill:#ffffff;stroke:#ffffff;"/>
    </g>
    <!-- v0.3.6 -->
    <g transform="translate(180.124689808 170.233678125)rotate(-90.0)scale(0.09996 -0.09996)">
     <use xlink:href="#DejaVuSans-76"/>
     <use x="59.1796875" xlink:href="#DejaVuSans-30"/>
     <use x="122.802734375" xlink:href="#DejaVuSans-2e"/>
     <use x="154.58984375" xlink:href="#DejaVuSans-33"/>
     <use x="218.212890625" xlink:href="#DejaVuSans-2e"/>
     <use x="250.0" xlink:href="#DejaVuSans-36"/>
    </g>
   </g>
   <g id="text_27">
    <g id="patch_14">
     <path d="
M183.194 146.409
L196.868 146.409
L196.868 112.211
L183.194 112.211
z
" style="fill:#ffffff;stroke:#ffffff;"/>
    </g>
    <!-- v0.3.7 -->
    <g transform="translate(192.789576323 144.408768125)rotate(-90.0)scale(0.09996 -0.09996)">
     <use xlink:href="#DejaVuSans-76"/>
     <use x="59.1796875" xlink:href="#DejaVuSans-30"/>
     <use x="122.802734375" xlink:href="#DejaVuSans-2e"/>
     <use x="154.58984375" xlink:href="#DejaVuSans-33"/>
     <use x="218.212890625" xlink:href="#DejaVuSans-2e"/>
     <use x="250.0" xlink:href="#DejaVuSans-37"/>
    </g>
   </g>
   <g id="text_28">
    <g id="patch_15">
     <path d="
M197.349 172.179
L211.023 172.179
L211.023 137.811
L197.349 137.811
z
" style="fill:#ffffff;stroke:#ffffff;"/>
    </g>
    <!-- v0.3.8 -->
    <g transform="translate(206.944449488 170.1790125)rotate(-90.0)scale(0.09996 -0.09996)">
     <use xlink:href="#DejaVuSans-76"/>
     <use x="59.1796875" xlink:href="#DejaVuSans-30"/>
     <use x="122.802734375" xlink:href="#DejaVuSans-2e"/>
     <use x="154.58984375" xlink:href="#DejaVuSans-33"/>
     <use x="218.212890625" xlink:href="#DejaVuSans-2e"/>
     <use x="250.0" xlink:href="#DejaVuSans-38"/>
    </g>
   </g>
   <g id="text_29">
    <g id="patch_16">
     <path d="
M208.524 146.56
L222.198 146.56
L222.198 112.211
L208.524 112.211
z
" style="fill:#ffffff;stroke:#ffffff;"/>
    </g>
    <!-- v0.3.9 -->
    <defs>
     <path d="
M10.9844 1.51562
L10.9844 10.5
Q14.7031 8.73438 18.5 7.8125
Q22.3125 6.89062 25.9844 6.89062
Q35.75 6.89062 40.8906 13.4531
Q46.0469 20.0156 46.7812 33.4062
Q43.9531 29.2031 39.5938 26.9531
Q35.25 24.7031 29.9844 24.7031
Q19.0469 24.7031 12.6719 31.3125
Q6.29688 37.9375 6.29688 49.4219
Q6.29688 60.6406 12.9375 67.4219
Q19.5781 74.2188 30.6094 74.2188
Q43.2656 74.2188 49.9219 64.5156
Q56.5938 54.8281 56.5938 36.375
Q56.5938 19.1406 48.4062 8.85938
Q40.2344 -1.42188 26.4219 -1.42188
Q22.7031 -1.42188 18.8906 -0.6875
Q15.0938 0.046875 10.9844 1.51562
M30.6094 32.4219
Q37.25 32.4219 41.125 36.9531
Q45.0156 41.5 45.0156 49.4219
Q45.0156 57.2812 41.125 61.8438
Q37.25 66.4062 30.6094 66.4062
Q23.9688 66.4062 20.0938 61.8438
Q16.2188 57.2812 16.2188 49.4219
Q16.2188 41.5 20.0938 36.9531
Q23.9688 32.4219 30.6094 32.4219" id="DejaVuSans-39"/>
    </defs>
    <g transform="translate(218.119349354 144.56027)rotate(-90.0)scale(0.09996 -0.09996)">
     <use xlink:href="#DejaVuSans-76"/>
     <use x="59.1796875" xlink:href="#DejaVuSans-30"/>
     <use x="122.802734375" xlink:href="#DejaVuSans-2e"/>
     <use x="154.58984375" xlink:href="#DejaVuSans-33"/>
     <use x="218.212890625" xlink:href="#DejaVuSans-2e"/>
     <use x="250.0" xlink:href="#DejaVuSans-39"/>
    </g>
   </g>
   <g id="text_30">
    <g id="patch_17">
     <path d="
M217.836 178.559
L231.511 178.559
L231.511 137.811
L217.836 137.811
z
" style="fill:#ffffff;stroke:#ffffff;"/>
    </g>
    <!-- v0.3.10 -->
    <g transform="translate(227.43176591 176.559271875)rotate(-90.0)scale(0.09996 -0.09996)">
     <use xlink:href="#DejaVuSans-76"/>
     <use x="59.1796875" xlink:href="#DejaVuSans-30"/>
     <use x="122.802734375" xlink:href="#DejaVuSans-2e"/>
     <use x="154.58984375" xlink:href="#DejaVuSans-33"/>
     <use x="218.212890625" xlink:href="#DejaVuSans-2e"/>
     <use x="250.0" xlink:href="#DejaVuSans-31"/>
     <use x="313.623046875" xlink:href="#DejaVuSans-30"/>
    </g>
   </g>
   <g id="text_31">
    <g id="patch_18">
     <path d="
M230.129 152.7
L243.803 152.7
L243.803 112.211
L230.129 112.211
z
" style="fill:#ffffff;stroke:#ffffff;"/>
    </g>
    <!-- v0.3.11 -->
    <g transform="translate(239.724155763 150.700000625)rotate(-90.0)scale(0.09996 -0.09996)">
     <use xlink:href="#DejaVuSans-76"/>
     <use x="59.1796875" xlink:href="#DejaVuSans-30"/>
     <use x="122.802734375" xlink:href="#DejaVuSans-2e"/>
     <use x="154.58984375" xlink:href="#DejaVuSans-33"/>
     <use x="218.212890625" xlink:href="#DejaVuSans-2e"/>
     <use x="250.0" xlink:href="#DejaVuSans-31"/>
     <use x="313.623046875" xlink:href="#DejaVuSans-31"/>
    </g>
   </g>
   <g id="text_32">
    <g id="patch_19">
     <path d="
M264.026 178.222
L277.7 178.222
L277.7 137.811
L264.026 137.811
z
" style="fill:#ffffff;stroke:#ffffff;"/>
    </g>
    <!-- v0.3.12 -->
    <g transform="translate(273.621352024 176.221906875)rotate(-90.0)scale(0.09996 -0.09996)">
     <use xlink:href="#DejaVuSans-76"/>
     <use x="59.1796875" xlink:href="#DejaVuSans-30"/>
     <use x="122.802734375" xlink:href="#DejaVuSans-2e"/>
     <use x="154.58984375" xlink:href="#DejaVuSans-33"/>
     <use x="218.212890625" xlink:href="#DejaVuSans-2e"/>
     <use x="250.0" xlink:href="#DejaVuSans-31"/>
     <use x="313.623046875" xlink:href="#DejaVuSans-32"/>
    </g>
   </g>
   <g id="text_33">
    <g id="patch_20">
     <path d="
M257.321 242.599
L270.995 242.599
L270.995 208.211
L257.321 208.211
z
" style="fill:#ffffff;stroke:#ffffff;"/>
    </g>
    <!-- v0.4.0 -->
    <g transform="translate(266.916412104 240.599316875)rotate(-90.0)scale(0.09996 -0.09996)">
     <use xlink:href="#DejaVuSans-76"/>
     <use x="59.1796875" xlink:href="#DejaVuSans-30"/>
     <use x="122.802734375" xlink:href="#DejaVuSans-2e"/>
     <use x="154.58984375" xlink:href="#DejaVuSans-34"/>
     <use x="218.212890625" xlink:href="#DejaVuSans-2e"/>
     <use x="250.0" xlink:href="#DejaVuSans-30"/>
    </g>
   </g>
   <g id="text_34">
    <g id="patch_21">
     <path d="
M268.868 223.14
L282.543 223.14
L282.543 189.011
L268.868 189.011
z
" style="fill:#ffffff;stroke:#ffffff;"/>
    </g>
    <!-- v0.4.1 -->
    <g transform="translate(278.463808633 221.140045625)rotate(-90.0)scale(0.09996 -0.09996)">
     <use xlink:href="#DejaVuSans-76"/>
     <use x="59.1796875" xlink:href="#DejaVuSans-30"/>
     <use x="122.802734375" xlink:href="#DejaVuSans-2e"/>
     <use x="154.58984375" xlink:href="#DejaVuSans-34"/>
     <use x="218.212890625" xlink:href="#DejaVuSans-2e"/>
     <use x="250.0" xlink:href="#DejaVuSans-31"/>
    </g>
   </g>
   <g id="text_35">
    <g id="patch_22">
     <path d="
M279.298 242.262
L292.973 242.262
L292.973 208.211
L279.298 208.211
z
" style="fill:#ffffff;stroke:#ffffff;"/>
    </g>
    <!-- v0.4.2 -->
    <g transform="translate(288.893715175 240.261951875)rotate(-90.0)scale(0.09996 -0.09996)">
     <use xlink:href="#DejaVuSans-76"/>
     <use x="59.1796875" xlink:href="#DejaVuSans-30"/>
     <use x="122.802734375" xlink:href="#DejaVuSans-2e"/>
     <use x="154.58984375" xlink:href="#DejaVuSans-34"/>
     <use x="218.212890625" xlink:href="#DejaVuSans-2e"/>
     <use x="250.0" xlink:href="#DejaVuSans-32"/>
    </g>
   </g>
   <g id="text_36">
    <g id="patch_23">
     <path d="
M293.081 223.262
L306.755 223.262
L306.755 189.011
L293.081 189.011
z
" style="fill:#ffffff;stroke:#ffffff;"/>
    </g>
    <!-- v0.4.3 -->
    <g transform="translate(302.676091677 221.261871875)rotate(-90.0)scale(0.09996 -0.09996)">
     <use xlink:href="#DejaVuSans-76"/>
     <use x="59.1796875" xlink:href="#DejaVuSans-30"/>
     <use x="122.802734375" xlink:href="#DejaVuSans-2e"/>
     <use x="154.58984375" xlink:href="#DejaVuSans-34"/>
     <use x="218.212890625" xlink:href="#DejaVuSans-2e"/>
     <use x="250.0" xlink:href="#DejaVuSans-33"/>
    </g>
   </g>
   <g id="text_37">
    <g id="patch_24">
     <path d="
M317.293 242.39
L330.967 242.39
L330.967 208.211
L317.293 208.211
z
" style="fill:#ffffff;stroke:#ffffff;"/>
    </g>
    <!-- v0.4.5 -->
    <g transform="translate(326.888374721 240.390025625)rotate(-90.0)scale(0.09996 -0.09996)">
     <use xlink:href="#DejaVuSans-76"/>
     <use x="59.1796875" xlink:href="#DejaVuSans-30"/>
     <use x="122.802734375" xlink:href="#DejaVuSans-2e"/>
     <use x="154.58984375" xlink:href="#DejaVuSans-34"/>
     <use x="218.212890625" xlink:href="#DejaVuSans-2e"/>
     <use x="250.0" xlink:href="#DejaVuSans-35"/>
    </g>
   </g>
   <g id="text_38">
    <g id="patch_25">
     <path d="
M352.308 223.434
L365.982 223.434
L365.982 189.011
L352.308 189.011
z
" style="fill:#ffffff;stroke:#ffffff;"/>
    </g>
    <!-- v0.4.6 -->
    <g transform="translate(361.90306097 221.433678125)rotate(-90.0)scale(0.09996 -0.09996)">
     <use xlink:href="#DejaVuSans-76"/>
     <use x="59.1796875" xlink:href="#DejaVuSans-30"/>
     <use x="122.802734375" xlink:href="#DejaVuSans-2e"/>
     <use x="154.58984375" xlink:href="#DejaVuSans-34"/>
     <use x="218.212890625" xlink:href="#DejaVuSans-2e"/>
     <use x="250.0" xlink:href="#DejaVuSans-36"/>
    </g>
   </g>
   <g id="text_39">
    <g id="patch_26">
     <path d="
M386.205 242.409
L399.879 242.409
L399.879 208.211
L386.205 208.211
z
" style="fill:#ffffff;stroke:#ffffff;"/>
    </g>
    <!-- v0.4.7 -->
    <g transform="translate(395.800257231 240.408768125)rotate(-90.0)scale(0.09996 -0.09996)">
     <use xlink:href="#DejaVuSans-76"/>
     <use x="59.1796875" xlink:href="#DejaVuSans-30"/>
     <use x="122.802734375" xlink:href="#DejaVuSans-2e"/>
     <use x="154.58984375" xlink:href="#DejaVuSans-34"/>
     <use x="218.212890625" xlink:href="#DejaVuSans-2e"/>
     <use x="250.0" xlink:href="#DejaVuSans-37"/>
    </g>
   </g>
   <g id="text_40">
    <g id="patch_27">
     <path d="
M386.577 178.599
L400.252 178.599
L400.252 144.211
L386.577 144.211
z
" style="fill:#ffffff;stroke:#ffffff;"/>
    </g>
    <!-- v0.5.0 -->
    <g transform="translate(396.172753893 176.599316875)rotate(-90.0)scale(0.09996 -0.09996)">
     <use xlink:href="#DejaVuSans-76"/>
     <use x="59.1796875" xlink:href="#DejaVuSans-30"/>
     <use x="122.802734375" xlink:href="#DejaVuSans-2e"/>
     <use x="154.58984375" xlink:href="#DejaVuSans-35"/>
     <use x="218.212890625" xlink:href="#DejaVuSans-2e"/>
     <use x="250.0" xlink:href="#DejaVuSans-30"/>
    </g>
   </g>
   <g id="text_41">
    <g id="patch_28">
     <path d="
M448.784 165.54
L462.459 165.54
L462.459 131.411
L448.784 131.411
z
" style="fill:#ffffff;stroke:#ffffff;"/>
    </g>
    <!-- v0.5.1 -->
    <g transform="translate(458.379696484 163.540045625)rotate(-90.0)scale(0.09996 -0.09996)">
     <use xlink:href="#DejaVuSans-76"/>
     <use x="59.1796875" xlink:href="#DejaVuSans-30"/>
     <use x="122.802734375" xlink:href="#DejaVuSans-2e"/>
     <use x="154.58984375" xlink:href="#DejaVuSans-35"/>
     <use x="218.212890625" xlink:href="#DejaVuSans-2e"/>
     <use x="250.0" xlink:href="#DejaVuSans-31"/>
    </g>
   </g>
   <g id="text_42">
    <g id="patch_29">
     <path d="
M471.879 178.262
L485.553 178.262
L485.553 144.211
L471.879 144.211
z
" style="fill:#ffffff;stroke:#ffffff;"/>
    </g>
    <!-- v0.5.2 -->
    <g transform="translate(481.474489541 176.261951875)rotate(-90.0)scale(0.09996 -0.09996)">
     <use xlink:href="#DejaVuSans-76"/>
     <use x="59.1796875" xlink:href="#DejaVuSans-30"/>
     <use x="122.802734375" xlink:href="#DejaVuSans-2e"/>
     <use x="154.58984375" xlink:href="#DejaVuSans-35"/>
     <use x="218.212890625" xlink:href="#DejaVuSans-2e"/>
     <use x="250.0" xlink:href="#DejaVuSans-32"/>
    </g>
   </g>
   <g id="text_43">
    <g id="patch_30">
     <path d="
M488.269 242.599
L501.943 242.599
L501.943 208.211
L488.269 208.211
z
" style="fill:#ffffff;stroke:#ffffff;"/>
    </g>
    <!-- v0.6.0 -->
    <g transform="translate(497.864342679 240.599316875)rotate(-90.0)scale(0.09996 -0.09996)">
     <use xlink:href="#DejaVuSans-76"/>
     <use x="59.1796875" xlink:href="#DejaVuSans-30"/>
     <use x="122.802734375" xlink:href="#DejaVuSans-2e"/>
     <use x="154.58984375" xlink:href="#DejaVuSans-36"/>
     <use x="218.212890625" xlink:href="#DejaVuSans-2e"/>
     <use x="250.0" xlink:href="#DejaVuSans-30"/>
    </g>
   </g>
   <g id="text_44">
    <g id="patch_31">
     <path d="
M535.576 203.94
L549.25 203.94
L549.25 169.811
L535.576 169.811
z
" style="fill:#ffffff;stroke:#ffffff;"/>
    </g>
    <!-- v0.6.1 -->
    <g transform="translate(545.17141878 201.940045625)rotate(-90.0)scale(0.09996 -0.09996)">
     <use xlink:href="#DejaVuSans-76"/>
     <use x="59.1796875" xlink:href="#DejaVuSans-30"/>
     <use x="122.802734375" xlink:href="#DejaVuSans-2e"/>
     <use x="154.58984375" xlink:href="#DejaVuSans-36"/>
     <use x="218.212890625" xlink:href="#DejaVuSans-2e"/>
     <use x="250.0" xlink:href="#DejaVuSans-31"/>
    </g>
   </g>
   <g id="text_45">
    <g id="patch_32">
     <path d="
M554.201 184.662
L567.875 184.662
L567.875 150.611
L554.201 150.611
z
" style="fill:#ffffff;stroke:#ffffff;"/>
    </g>
    <!-- v0.6.2 -->
    <g transform="translate(563.796251891 182.661951875)rotate(-90.0)scale(0.09996 -0.09996)">
     <use xlink:href="#DejaVuSans-76"/>
     <use x="59.1796875" xlink:href="#DejaVuSans-30"/>
     <use x="122.802734375" xlink:href="#DejaVuSans-2e"/>
     <use x="154.58984375" xlink:href="#DejaVuSans-36"/>
     <use x="218.212890625" xlink:href="#DejaVuSans-2e"/>
     <use x="250.0" xlink:href="#DejaVuSans-32"/>
    </g>
   </g>
   <g id="legend_1">
    <g id="patch_33">
     <path d="
M61.6755 109.037
L112.338 109.037
L112.338 18.0049
L61.6755 18.0049
L61.6755 109.037
z
" style="fill:#ffffff;stroke:#000000;"/>
    </g>
    <g id="line2d_69">
     <path d="
M68.6727 26.1001
L82.6671 26.1001" style="fill:none;stroke:#ff0000;stroke-linecap:square;stroke-width:2;"/>
    </g>
    <g id="line2d_70"/>
    <g id="text_46">
     <!-- 0.2 -->
     <g transform="translate(93.6627 29.598673125)scale(0.09996 -0.09996)">
      <use xlink:href="#DejaVuSans-30"/>
      <use x="63.623046875" xlink:href="#DejaVuSans-2e"/>
      <use x="95.41015625" xlink:href="#DejaVuSans-32"/>
     </g>
    </g>
    <g id="line2d_71">
     <path d="
M68.6727 40.7723
L82.6671 40.7723" style="fill:none;stroke:#008000;stroke-linecap:square;stroke-width:2;"/>
    </g>
    <g id="line2d_72"/>
    <g id="text_47">
     <!-- 0.3 -->
     <g transform="translate(93.6627 44.270926875)scale(0.09996 -0.09996)">
      <use xlink:href="#DejaVuSans-30"/>
      <use x="63.623046875" xlink:href="#DejaVuSans-2e"/>
      <use x="95.41015625" xlink:href="#DejaVuSans-33"/>
     </g>
    </g>
    <g id="line2d_73">
     <path d="
M68.6727 55.4446
L82.6671 55.4446" style="fill:none;stroke:#0000ff;stroke-linecap:square;stroke-width:2;"/>
    </g>
    <g id="line2d_74"/>
    <g id="text_48">
     <!-- 0.4 -->
     <g transform="translate(93.6627 58.943180625)scale(0.09996 -0.09996)">
      <use xlink:href="#DejaVuSans-30"/>
      <use x="63.623046875" xlink:href="#DejaVuSans-2e"/>
      <use x="95.41015625" xlink:href="#DejaVuSans-34"/>
     </g>
    </g>
    <g id="line2d_75">
     <path d="
M68.6727 70.1168
L82.6671 70.1168" style="fill:none;stroke:#000000;stroke-linecap:square;stroke-width:2;"/>
    </g>
    <g id="line2d_76"/>
    <g id="text_49">
     <!-- 0.5 -->
     <g transform="translate(93.6627 73.615434375)scale(0.09996 -0.09996)">
      <use xlink:href="#DejaVuSans-30"/>
      <use x="63.623046875" xlink:href="#DejaVuSans-2e"/>
      <use x="95.41015625" xlink:href="#DejaVuSans-35"/>
     </g>
    </g>
    <g id="line2d_77">
     <path d="
M68.6727 84.7891
L82.6671 84.7891" style="fill:none;stroke:#bfbf00;stroke-linecap:square;stroke-width:2;"/>
    </g>
    <g id="line2d_78"/>
    <g id="text_50">
     <!-- 0.6 -->
     <g transform="translate(93.6627 88.287688125)scale(0.09996 -0.09996)">
      <use xlink:href="#DejaVuSans-30"/>
      <use x="63.623046875" xlink:href="#DejaVuSans-2e"/>
      <use x="95.41015625" xlink:href="#DejaVuSans-36"/>
     </g>
    </g>
    <g id="line2d_79">
     <path d="
M68.6727 99.4613
L82.6671 99.4613" style="fill:none;stroke:#bf00bf;stroke-linecap:square;stroke-width:2;"/>
    </g>
    <g id="line2d_80"/>
    <g id="text_51">
     <!-- 0.7 -->
     <g transform="translate(93.6627 102.959941875)scale(0.09996 -0.09996)">
      <use xlink:href="#DejaVuSans-30"/>
      <use x="63.623046875" xlink:href="#DejaVuSans-2e"/>
      <use x="95.41015625" xlink:href="#DejaVuSans-37"/>
     </g>
    </g>
   </g>
  </g>
 </g>
 <defs>
  <clipPath id="pe067ca5dee">
   <rect height="230.4" width="558.0" x="56.6775" y="13.006875"/>
  </clipPath>
 </defs>
</svg>
