<?xml version="1.0" encoding="utf-8" standalone="no"?>
<!DOCTYPE svg PUBLIC "-//W3C//DTD SVG 1.1//EN"
  "http://www.w3.org/Graphics/SVG/1.1/DTD/svg11.dtd">
<!-- Created with matplotlib (http://matplotlib.org/) -->
<svg height="311pt" version="1.1" viewBox="0 0 623 311" width="623pt" xmlns="http://www.w3.org/2000/svg" xmlns:xlink="http://www.w3.org/1999/xlink">
 <defs>
  <style type="text/css">
*{stroke-linecap:butt;stroke-linejoin:round;}
  </style>
 </defs>
 <g id="figure_1">
  <g id="patch_1">
   <path d="
M0 311.719
L623.683 311.719
L623.683 0
L0 0
z
" style="fill:#ffffff;"/>
  </g>
  <g id="axes_1">
   <g id="patch_2">
    <path d="
M56.2388 243.407
L614.239 243.407
L614.239 13.0069
L56.2388 13.0069
z
" style="fill:#ffffff;"/>
   </g>
   <g id="line2d_1">
    <path clip-path="url(#p472e73a826)" d="
M126.248 217.487
L125.729 217.487
L125.211 217.871
L124.692 217.871
L124.174 218.063
L123.655 218.447
L123.137 218.447
L122.099 218.063
L121.581 218.063
L121.062 218.639
L120.544 218.639
L119.506 218.639
L118.988 218.639
L117.951 218.831
L117.432 218.831
L116.913 218.831
L116.395 219.023
L115.876 219.023
L115.358 219.023
L114.839 219.215
L114.321 219.215
L112.765 219.215
L112.246 219.215
L111.728 219.215
L111.209 219.215
L110.172 219.599
L109.135 219.983
L108.616 219.983
L108.097 220.175
L107.579 220.367
L106.542 220.751
L106.023 220.751
L105.505 220.751
L104.986 220.943
L104.467 221.135
L103.949 221.519
L102.912 221.711
L102.393 221.711
L101.874 222.287
L101.356 222.287
L100.837 222.287
L100.319 222.287
L99.8001 222.287
L99.2815 222.671
L98.2443 222.671
L97.7257 222.863
L97.2072 222.863
L96.6886 222.863
L96.17 222.863
L95.6514 222.863
L95.1328 223.247
L94.6142 223.439
L94.0956 223.631
L93.577 223.631
L90.4655 224.591
L89.9469 224.591
L89.4283 224.783
L88.9098 224.783
L88.3912 224.975
L87.8726 224.975
L87.354 224.975
L86.8354 224.975
L86.3168 224.975
L85.7982 224.975
L85.2796 224.975
L84.7611 224.975
L84.2425 225.935
L83.7239 224.399
L83.2053 224.591
L82.6867 224.591
L82.1681 224.591
L81.1309 224.783
L80.6124 224.783
L80.0938 225.359
L79.5752 225.359
L79.0566 225.359
L78.538 225.359
L78.0194 225.359
L77.5008 225.359
L76.9822 225.359
L76.4637 225.359
L75.9451 225.359
L75.4265 225.551
L71.7964 225.743
L70.7592 225.743
L69.2034 225.743
L65.5733 226.127
L65.0547 226.319
L64.0176 226.511
L63.499 226.511
L62.4618 226.703
L61.4246 226.895
L60.906 226.895
L59.8689 226.895
L59.3503 226.895
L58.8317 226.895
L58.3131 226.895
L57.7945 226.895
L57.2759 226.895
L56.7573 227.087
L56.2388 227.087" style="fill:none;stroke:#ff0000;stroke-linecap:square;stroke-width:2;"/>
   </g>
   <g id="line2d_2">
    <path clip-path="url(#p472e73a826)" d="
M526.597 148.367
L512.596 148.367
L512.077 148.559
L510.521 148.367
L504.817 148.367
L504.298 148.559
L503.78 148.367
L503.261 148.367
L502.742 148.559
L502.224 148.367
L500.668 148.367
L500.15 148.559
L497.557 148.559
L497.038 148.367
L490.815 148.367
L490.296 148.559
L489.778 148.367
L486.148 148.367
L485.629 148.559
L485.11 148.367
L484.592 148.559
L484.073 148.367
L477.85 148.367
L477.332 148.559
L476.295 148.559
L475.776 148.751
L474.739 148.559
L474.22 148.751
L473.702 148.559
L472.146 148.559
L471.627 148.751
L471.109 148.559
L467.997 148.559
L467.479 148.751
L466.96 148.559
L464.367 148.559
L463.848 148.751
L428.584 149.519
L420.287 149.903
L408.36 149.903
L405.248 150.287
L403.174 150.287
L392.283 150.479
L380.874 150.479
L374.133 151.055
L369.984 151.439
L365.317 151.439
L364.28 151.823
L362.205 151.439
L349.759 151.823
L348.203 152.207
L346.129 152.591
L344.055 152.783
L341.462 153.551
L339.387 154.511
L331.09 156.431
L328.497 156.815
L325.904 157.007
L324.348 157.391
L315.532 160.079
L306.716 161.999
L297.9 164.687
L297.382 164.687
L296.863 164.879
L296.345 165.263
L295.826 166.031
L295.308 166.415
L294.27 166.223
L293.233 166.607
L291.677 166.607
L291.159 166.799
L290.122 166.799
L289.603 167.183
L289.084 167.183
L288.566 167.567
L288.047 167.567
L286.492 167.375
L280.787 168.527
L279.75 168.527
L276.12 169.871
L275.083 169.871
L270.934 170.639
L270.415 171.023
L268.341 171.407
L264.192 172.751
L263.674 172.943
L263.155 173.519
L262.118 173.903
L261.081 173.903
L260.562 174.095
L258.488 174.479
L257.969 175.055
L257.451 175.247
L256.932 175.247
L255.895 176.207
L254.339 176.783
L252.265 176.783
L251.228 177.359
L250.19 177.359
L247.079 177.551
L246.56 178.127
L245.523 178.127
L239.3 178.319
L238.782 178.703
L238.263 178.511
L237.744 178.895
L237.226 178.895
L236.707 179.087
L236.189 179.471
L234.114 179.855
L231.521 179.855
L231.003 180.239
L229.966 180.239
L227.373 181.007
L224.78 182.159
L222.187 182.159
L220.631 182.543
L220.112 182.543
L218.038 183.695
L217.519 183.695
L217.001 183.311
L214.926 184.847
L214.408 185.039
L213.889 185.423
L212.852 185.999
L211.815 185.999
L211.296 186.191
L210.778 186.767
L210.259 186.767
L209.741 187.151
L207.666 187.151
L207.148 188.111
L206.629 188.111
L206.11 188.495
L204.036 189.839
L200.406 190.991
L197.813 192.335
L194.183 193.103
L193.146 193.487
L191.071 193.487
L190.553 193.679
L188.997 194.447
L186.923 195.023
L186.404 195.407
L185.367 195.407
L184.33 195.791
L183.293 195.791
L180.181 195.983
L178.107 196.943
L177.588 196.943
L177.07 197.519
L176.551 197.519
L176.032 197.711
L175.514 197.711
L174.995 198.095
L172.402 199.055
L170.847 199.055
L170.328 199.247
L169.809 199.247
L169.291 199.439
L168.254 199.439
L167.735 199.631
L167.216 199.631
L166.698 199.823
L166.179 200.207
L165.661 200.207
L165.142 200.399
L164.624 200.399
L164.105 200.591
L163.068 200.591
L162.549 200.975
L162.031 201.167
L160.475 201.167
L159.438 201.551
L158.919 201.551
L158.4 201.935
L157.363 201.935
L156.845 202.127
L156.326 202.511
L155.808 202.511
L154.252 202.895
L153.733 203.279
L153.215 203.279
L152.696 199.823
L152.177 203.663
L151.659 204.047
L151.14 204.047
L150.622 204.239
L149.066 204.047
L148.547 204.239
L147.51 204.239
L146.473 204.623
L144.399 204.623
L143.88 206.159
L142.843 206.159
L142.324 206.543
L141.287 206.927
L139.731 208.079
L136.62 208.079
L135.583 208.463
L135.064 209.039
L134.027 206.735
L132.99 207.119
L132.471 207.695
L131.434 207.695
L130.915 207.887
L130.397 207.887
L129.36 208.463
L128.322 208.463
L127.285 208.847
L126.767 208.847
L126.248 209.231
L124.174 209.999
L123.655 210.383
L123.137 210.383
L121.581 210.575
L121.062 211.151
L120.544 211.343
L117.951 211.343
L116.395 211.919
L115.358 211.919
L114.839 212.111
L114.321 212.111
L111.209 212.495
L110.172 213.071
L109.135 214.031
L108.097 214.031
L107.579 214.607
L106.542 214.799
L106.023 215.183
L105.505 215.183
L104.467 215.567
L103.949 215.951
L102.393 216.143
L101.874 216.719
L99.8001 216.719
L99.2815 217.103
L98.2443 217.103
L97.2072 217.487
L96.6886 217.487
L96.17 217.871
L95.6514 217.871
L95.1328 218.255
L89.4283 220.367
L88.9098 228.239
L88.3912 220.559
L87.8726 220.559
L87.354 220.751
L85.2796 220.751
L84.7611 220.943
L83.7239 220.943
L83.2053 221.327
L82.1681 221.327
L81.1309 221.519
L80.6124 222.095
L76.4637 222.095
L75.9451 222.287
L75.4265 222.671
L70.7592 222.863
L69.2034 222.863
L65.0547 223.823
L63.499 223.823
L62.4618 224.207
L58.8317 224.783
L57.2759 224.783
L56.7573 224.975
L56.2388 224.975
L56.2388 224.975" style="fill:none;stroke:#008000;stroke-linecap:square;stroke-width:2;"/>
   </g>
   <g id="line2d_3">
    <path clip-path="url(#p472e73a826)" d="
M614.239 71.3749
L613.72 71.3749
L612.683 71.5669
L610.09 71.1829
L607.497 71.1829
L606.979 71.3749
L601.274 71.3749
L577.938 71.7589
L575.863 72.1429
L574.308 72.1429
L573.789 72.3349
L571.196 71.9509
L570.677 72.1429
L567.566 72.1429
L565.492 72.9109
L564.454 72.9109
L563.936 73.8709
L561.343 72.9109
L558.75 72.9109
L555.12 73.2949
L553.564 73.2949
L552.527 73.4869
L547.86 73.4869
L547.341 74.0629
L546.822 74.4469
L546.304 74.6389
L544.748 74.4469
L544.229 74.8309
L539.044 75.2149
L538.006 75.5989
L535.413 75.5989
L534.376 75.9829
L533.339 75.9829
L532.302 76.3669
L528.153 76.3669
L527.635 76.5589
L527.116 77.1349
L525.56 77.7109
L525.042 78.4789
L524.005 78.4789
L523.486 78.6709
L522.967 78.6709
L521.93 79.0549
L521.412 79.6309
L520.374 80.0149
L519.856 80.0149
L519.337 80.3989
L518.3 80.3989
L517.782 80.5909
L517.263 80.5909
L516.744 80.9749
L515.707 81.3589
L515.189 81.7429
L514.151 81.7429
L513.114 82.1269
L512.077 82.1269
L511.04 82.5109
L510.521 83.0869
L510.003 83.2789
L509.484 83.6629
L508.966 83.6629
L508.447 83.8549
L507.928 83.8549
L507.41 84.0469
L506.891 84.0469
L505.335 84.6229
L502.742 84.6229
L502.224 85.0069
L501.705 85.0069
L501.187 85.3909
L500.668 85.3909
L500.15 85.7749
L499.631 85.7749
L499.112 85.5829
L498.594 85.5829
L497.557 86.3509
L497.038 86.5429
L496.519 87.1189
L496.001 87.5029
L494.445 87.3109
L493.926 87.6949
L492.889 88.0789
L492.371 88.0789
L491.852 88.2709
L491.334 88.2709
L489.259 89.0389
L488.222 89.2309
L487.703 89.6149
L487.185 89.6149
L486.666 89.8069
L486.148 89.6149
L485.629 89.6149
L484.592 89.9989
L484.073 89.9989
L483.036 90.3829
L482.518 90.1909
L481.999 90.1909
L480.962 90.5749
L480.443 90.5749
L479.925 90.7669
L479.406 90.7669
L477.85 91.3429
L477.332 92.1109
L476.813 92.1109
L476.295 92.3029
L475.776 92.8789
L474.22 93.2629
L473.183 93.6469
L472.146 93.6469
L471.627 93.8389
L471.109 93.8389
L469.553 94.4149
L469.034 94.2229
L468.516 94.4149
L467.997 94.4149
L466.96 95.5669
L466.441 95.5669
L465.923 95.7589
L465.404 95.5669
L464.886 95.7589
L464.367 96.1429
L463.848 96.3349
L455.551 100.751
L428.584 113.231
L420.287 119.375
L408.36 123.215
L405.248 125.135
L403.174 126.863
L392.283 130.511
L380.874 133.775
L378.282 134.351
L374.133 136.079
L370.503 137.039
L369.984 137.039
L365.317 137.807
L364.28 138.575
L362.205 138.767
L355.982 140.879
L349.759 145.103
L348.203 145.679
L346.129 146.639
L344.055 141.839
L341.462 143.567
L339.387 144.719
L331.09 148.367
L328.497 149.711
L324.348 150.863
L315.532 155.663
L310.865 156.623
L306.716 157.775
L297.9 160.655
L297.382 160.655
L296.863 160.847
L296.345 161.231
L295.826 161.999
L295.308 162.383
L294.27 162.383
L293.233 162.767
L291.677 162.959
L291.159 163.151
L290.122 163.151
L289.603 163.727
L289.084 163.727
L288.566 164.111
L286.492 164.111
L280.787 165.839
L279.75 165.839
L278.713 166.223
L278.194 166.607
L277.676 166.799
L276.12 167.567
L275.083 167.567
L270.934 168.143
L270.415 168.527
L268.341 168.911
L264.192 170.255
L263.674 170.447
L263.155 171.023
L262.118 171.407
L261.081 171.407
L260.562 171.791
L258.488 172.175
L257.969 172.559
L257.451 172.751
L256.932 172.751
L255.376 174.287
L254.339 174.671
L252.265 175.055
L251.228 175.631
L250.19 175.823
L247.079 176.015
L246.56 176.591
L245.523 176.591
L239.3 177.359
L238.782 177.743
L238.263 177.551
L237.744 177.935
L236.707 177.935
L236.189 178.319
L233.077 178.511
L232.04 178.895
L231.521 178.895
L231.003 179.279
L229.966 179.279
L227.373 181.007
L224.78 181.199
L222.187 181.199
L220.631 181.583
L220.112 181.583
L218.038 182.735
L217.519 182.159
L217.001 182.159
L214.926 183.695
L214.408 183.887
L213.889 184.463
L212.852 185.039
L211.815 185.039
L211.296 185.231
L210.778 185.807
L210.259 185.807
L209.741 185.999
L208.185 186.191
L207.666 186.191
L207.148 187.343
L206.629 187.343
L206.11 187.727
L204.036 189.071
L200.406 190.415
L198.85 190.799
L197.813 191.567
L194.183 192.335
L193.146 192.719
L190.553 192.719
L189.516 193.487
L188.997 193.679
L187.441 193.871
L186.404 194.639
L185.367 194.639
L184.848 194.831
L184.33 195.215
L183.293 195.215
L180.181 195.407
L178.107 196.367
L177.588 196.367
L177.07 196.943
L176.551 196.943
L176.032 197.135
L175.514 197.135
L174.995 197.519
L172.402 198.671
L170.847 198.671
L169.809 199.055
L168.254 199.055
L167.735 199.247
L167.216 199.247
L166.698 199.439
L166.179 199.823
L165.661 199.823
L165.142 200.015
L164.624 200.015
L164.105 200.207
L163.068 200.207
L162.031 200.975
L160.475 200.975
L159.438 201.359
L158.919 201.359
L158.4 201.743
L157.363 201.743
L156.845 201.935
L156.326 202.319
L155.808 202.319
L154.252 202.703
L153.733 203.087
L152.696 203.087
L151.659 203.855
L151.14 203.855
L150.622 204.047
L149.066 203.855
L148.547 204.047
L147.51 204.047
L146.992 204.239
L146.473 204.239
L144.917 204.431
L144.399 204.431
L143.88 205.967
L142.843 205.967
L142.324 206.351
L141.287 206.735
L139.731 207.887
L136.62 207.887
L135.583 208.271
L135.064 208.847
L134.027 209.231
L133.508 209.231
L132.99 209.615
L132.471 210.191
L131.434 210.191
L130.915 210.383
L130.397 210.383
L129.36 210.959
L128.322 210.959
L127.285 211.343
L126.767 211.919
L126.767 211.919" style="fill:none;stroke:#0000ff;stroke-linecap:square;stroke-width:2;"/>
   </g>
   <g id="line2d_4">
    <path clip-path="url(#p472e73a826)" d="
M614.239 39.3109
L613.72 39.5029
L612.683 39.3109
L610.09 39.1189
L609.571 39.8869
L608.534 40.8469
L608.016 41.8069
L607.497 41.9989
L606.979 42.3829
L605.941 42.5749
L605.423 42.9589
L601.274 43.3429
L582.086 50.8309
L579.493 50.8309
L578.975 51.7909
L577.938 51.7909
L575.863 52.5589
L574.308 52.5589
L573.789 53.3269
L571.196 53.7109
L570.677 54.8629
L569.64 55.2469
L569.122 56.3989
L567.566 56.3989
L567.047 56.5909
L565.492 57.9349
L564.454 57.9349
L563.936 59.0869
L561.343 57.9349
L560.824 57.9349
L560.306 58.1269
L559.787 58.1269
L559.268 57.9349
L558.75 58.1269
L557.194 58.8949
L555.638 59.0869
L555.12 59.0869
L554.083 59.2789
L553.564 59.0869
L552.527 59.4709
L551.49 60.2389
L550.971 61.1989
L549.934 60.8149
L548.897 61.1989
L548.378 61.9669
L547.86 62.1589
L547.341 62.7349
L546.822 63.6949
L546.304 64.0789
L544.748 64.2709
L544.229 65.8069
L538.006 68.1109
L537.488 68.1109
L536.451 68.8789
L535.413 68.8789
L534.376 70.2229
L533.339 70.2229
L532.821 70.4149
L532.302 70.7989
L531.265 71.1829
L530.746 71.9509
L530.228 71.9509
L529.709 72.1429
L529.19 72.5269
L528.153 72.9109
L527.635 73.4869
L527.116 74.2549
L526.597 74.2549
L526.079 74.6389
L525.56 74.8309
L525.042 72.3349
L524.005 72.1429
L523.486 72.3349
L522.449 73.1029
L521.93 73.2949
L521.412 75.4069
L520.893 76.1749
L519.337 76.7509
L518.819 77.3269
L518.3 77.1349
L517.782 77.1349
L517.263 75.7909
L516.744 76.1749
L516.226 76.9429
L515.707 76.9429
L515.189 77.5189
L514.67 77.7109
L514.151 77.5189
L512.077 78.2869
L511.04 78.8629
L510.521 79.6309
L510.003 79.6309
L509.484 80.0149
L508.966 80.0149
L507.41 80.5909
L506.891 80.5909
L505.854 81.5509
L505.335 81.5509
L504.817 81.7429
L504.298 81.5509
L502.742 81.5509
L502.224 81.9349
L501.705 83.2789
L501.187 82.3189
L500.668 82.5109
L500.15 82.8949
L499.112 83.2789
L498.594 83.2789
L497.557 84.8149
L497.038 84.8149
L496.519 85.3909
L496.001 85.7749
L494.445 85.5829
L493.926 85.9669
L493.408 86.5429
L492.889 86.7349
L492.371 86.7349
L491.852 86.9269
L491.334 86.9269
L490.815 87.1189
L490.296 87.5029
L489.778 87.5029
L489.259 87.6949
L488.222 87.8869
L487.703 88.4629
L486.666 88.4629
L486.148 88.2709
L485.11 88.6549
L484.073 88.6549
L483.555 88.8469
L483.036 88.8469
L482.518 89.0389
L481.999 89.0389
L479.925 89.8069
L479.406 89.8069
L478.369 90.5749
L477.85 90.5749
L477.332 91.3429
L476.813 91.3429
L476.295 91.5349
L475.776 91.9189
L473.183 92.8789
L472.146 92.8789
L471.627 93.0709
L471.109 93.0709
L470.071 93.4549
L469.553 93.4549
L469.034 93.6469
L468.516 93.4549
L467.997 93.6469
L466.96 94.7989
L465.404 94.7989
L464.886 94.9909
L464.367 95.3749
L463.848 95.5669
L428.584 113.423
L420.287 119.375
L408.36 123.407
L405.248 125.135
L403.174 126.863
L392.283 130.703
L380.874 133.775
L378.282 134.351
L374.651 135.503
L374.133 135.887
L370.503 136.847
L369.984 136.847
L369.984 136.847" style="fill:none;stroke:#000000;stroke-linecap:square;stroke-width:2;"/>
   </g>
   <g id="line2d_5">
    <path clip-path="url(#p472e73a826)" d="
M614.239 39.6949
L613.72 39.8869
L612.683 40.2709
L610.609 39.8869
L610.09 40.0789
L609.571 40.6549
L608.534 41.4229
L608.016 42.9589
L607.497 42.9589
L606.979 43.3429
L605.941 43.5349
L605.423 43.7269
L601.274 44.3029
L582.086 51.7909
L581.568 51.7909
L581.049 51.7909
L580.531 51.7909
L580.012 51.7909
L579.493 51.7909
L578.975 52.7509
L577.938 52.9429
L575.863 53.3269
L574.308 53.5189
L573.789 54.2869
L571.196 54.2869
L570.677 55.6309
L570.159 55.8229
L569.64 56.0149
L569.122 57.1669
L568.603 57.1669
L567.566 57.1669
L567.047 57.5509
L565.492 58.5109
L564.973 58.5109
L564.454 58.7029
L563.936 59.4709
L561.343 58.7029
L560.824 58.8949
L560.306 58.7029
L559.787 58.7029
L559.268 58.7029
L558.75 58.7029
L557.194 59.6629
L556.157 59.8549
L555.638 59.8549
L555.12 59.8549
L554.083 59.8549
L553.564 59.8549
L552.527 60.2389
L551.49 61.0069
L550.971 61.5829
L549.934 61.5829
L548.897 61.9669
L548.378 62.5429
L547.86 62.5429
L547.341 63.3109
L546.822 64.2709
L546.304 64.8469
L545.267 64.8469
L544.748 64.8469
L544.229 66.5749
L539.044 68.8789
L538.006 69.0709
L537.488 69.0709
L536.969 69.4549
L536.451 69.8389
L535.932 69.8389
L535.413 69.8389
L534.895 70.6069
L534.376 71.1829
L533.339 71.1829
L532.821 71.1829
L532.302 71.7589
L531.783 71.9509
L531.265 72.1429
L530.746 72.9109
L530.228 73.1029
L529.709 73.2949
L529.19 73.4869
L528.672 73.6789
L528.153 73.8709
L527.635 74.4469
L527.116 75.0229" style="fill:none;stroke:#bfbf00;stroke-linecap:square;stroke-width:2;"/>
   </g>
   <g id="line2d_6">
    <path clip-path="url(#p472e73a826)" d="
M130.397 243.407
L130.397 13.0069" style="fill:none;stroke:#333333;stroke-linecap:square;"/>
   </g>
   <g id="line2d_7">
    <path clip-path="url(#p472e73a826)" d="
M146.992 243.407
L146.992 13.0069" style="fill:none;stroke:#cccccc;stroke-linecap:square;"/>
   </g>
   <g id="line2d_8">
    <path clip-path="url(#p472e73a826)" d="
M162.549 243.407
L162.549 13.0069" style="fill:none;stroke:#cccccc;stroke-linecap:square;"/>
   </g>
   <g id="line2d_9">
    <path clip-path="url(#p472e73a826)" d="
M179.663 243.407
L179.663 13.0069" style="fill:none;stroke:#cccccc;stroke-linecap:square;"/>
   </g>
   <g id="line2d_10">
    <path clip-path="url(#p472e73a826)" d="
M196.776 243.407
L196.776 13.0069" style="fill:none;stroke:#cccccc;stroke-linecap:square;"/>
   </g>
   <g id="line2d_11">
    <path clip-path="url(#p472e73a826)" d="
M203.518 243.407
L203.518 13.0069" style="fill:none;stroke:#cccccc;stroke-linecap:square;"/>
   </g>
   <g id="line2d_12">
    <path clip-path="url(#p472e73a826)" d="
M224.261 243.407
L224.261 13.0069" style="fill:none;stroke:#cccccc;stroke-linecap:square;"/>
   </g>
   <g id="line2d_13">
    <path clip-path="url(#p472e73a826)" d="
M241.893 243.407
L241.893 13.0069" style="fill:none;stroke:#cccccc;stroke-linecap:square;"/>
   </g>
   <g id="line2d_14">
    <path clip-path="url(#p472e73a826)" d="
M261.599 243.407
L261.599 13.0069" style="fill:none;stroke:#cccccc;stroke-linecap:square;"/>
   </g>
   <g id="line2d_15">
    <path clip-path="url(#p472e73a826)" d="
M277.157 243.407
L277.157 13.0069" style="fill:none;stroke:#cccccc;stroke-linecap:square;"/>
   </g>
   <g id="line2d_16">
    <path clip-path="url(#p472e73a826)" d="
M290.122 243.407
L290.122 13.0069" style="fill:none;stroke:#cccccc;stroke-linecap:square;"/>
   </g>
   <g id="line2d_17">
    <path clip-path="url(#p472e73a826)" d="
M307.235 243.407
L307.235 13.0069" style="fill:none;stroke:#cccccc;stroke-linecap:square;"/>
   </g>
   <g id="line2d_18">
    <path clip-path="url(#p472e73a826)" d="
M354.426 243.407
L354.426 13.0069" style="fill:none;stroke:#cccccc;stroke-linecap:square;"/>
   </g>
   <g id="line2d_19">
    <path clip-path="url(#p472e73a826)" d="
M345.092 243.407
L345.092 13.0069" style="fill:none;stroke:#333333;stroke-linecap:square;"/>
   </g>
   <g id="line2d_20">
    <path clip-path="url(#p472e73a826)" d="
M361.168 243.407
L361.168 13.0069" style="fill:none;stroke:#cccccc;stroke-linecap:square;"/>
   </g>
   <g id="line2d_21">
    <path clip-path="url(#p472e73a826)" d="
M375.689 243.407
L375.689 13.0069" style="fill:none;stroke:#cccccc;stroke-linecap:square;"/>
   </g>
   <g id="line2d_22">
    <path clip-path="url(#p472e73a826)" d="
M394.876 243.407
L394.876 13.0069" style="fill:none;stroke:#cccccc;stroke-linecap:square;"/>
   </g>
   <g id="line2d_23">
    <path clip-path="url(#p472e73a826)" d="
M428.584 243.407
L428.584 13.0069" style="fill:none;stroke:#cccccc;stroke-linecap:square;"/>
   </g>
   <g id="line2d_24">
    <path clip-path="url(#p472e73a826)" d="
M477.332 243.407
L477.332 13.0069" style="fill:none;stroke:#cccccc;stroke-linecap:square;"/>
   </g>
   <g id="line2d_25">
    <path clip-path="url(#p472e73a826)" d="
M524.523 243.407
L524.523 13.0069" style="fill:none;stroke:#cccccc;stroke-linecap:square;"/>
   </g>
   <g id="line2d_26">
    <path clip-path="url(#p472e73a826)" d="
M525.042 243.407
L525.042 13.0069" style="fill:none;stroke:#333333;stroke-linecap:square;"/>
   </g>
   <g id="line2d_27">
    <path clip-path="url(#p472e73a826)" d="
M611.646 243.407
L611.646 13.0069" style="fill:none;stroke:#cccccc;stroke-linecap:square;"/>
   </g>
   <g id="matplotlib.axis_1">
    <g id="xtick_1">
     <g id="line2d_28">
      <defs>
       <path d="
M0 0
L0 -4" id="m93b0483c22" style="stroke:#000000;stroke-width:0.5;"/>
      </defs>
      <g>
       <use style="stroke:#000000;stroke-width:0.5;" x="57.2759247212" xlink:href="#m93b0483c22" y="243.406875"/>
      </g>
     </g>
     <g id="line2d_29">
      <defs>
       <path d="
M0 0
L0 4" id="m741efc42ff" style="stroke:#000000;stroke-width:0.5;"/>
      </defs>
      <g>
       <use style="stroke:#000000;stroke-width:0.5;" x="57.2759247212" xlink:href="#m741efc42ff" y="13.006875"/>
      </g>
     </g>
     <g id="text_1">
      <!-- Apr 2014 -->
      <defs>
       <path d="
M12.4062 8.29688
L28.5156 8.29688
L28.5156 63.9219
L10.9844 60.4062
L10.9844 69.3906
L28.4219 72.9062
L38.2812 72.9062
L38.2812 8.29688
L54.3906 8.29688
L54.3906 0
L12.4062 0
z
" id="DejaVuSans-31"/>
       <path d="
M31.7812 66.4062
Q24.1719 66.4062 20.3281 58.9062
Q16.5 51.4219 16.5 36.375
Q16.5 21.3906 20.3281 13.8906
Q24.1719 6.39062 31.7812 6.39062
Q39.4531 6.39062 43.2812 13.8906
Q47.125 21.3906 47.125 36.375
Q47.125 51.4219 43.2812 58.9062
Q39.4531 66.4062 31.7812 66.4062
M31.7812 74.2188
Q44.0469 74.2188 50.5156 64.5156
Q56.9844 54.8281 56.9844 36.375
Q56.9844 17.9688 50.5156 8.26562
Q44.0469 -1.42188 31.7812 -1.42188
Q19.5312 -1.42188 13.0625 8.26562
Q6.59375 17.9688 6.59375 36.375
Q6.59375 54.8281 13.0625 64.5156
Q19.5312 74.2188 31.7812 74.2188" id="DejaVuSans-30"/>
       <path id="DejaVuSans-20"/>
       <path d="
M19.1875 8.29688
L53.6094 8.29688
L53.6094 0
L7.32812 0
L7.32812 8.29688
Q12.9375 14.1094 22.625 23.8906
Q32.3281 33.6875 34.8125 36.5312
Q39.5469 41.8438 41.4219 45.5312
Q43.3125 49.2188 43.3125 52.7812
Q43.3125 58.5938 39.2344 62.25
Q35.1562 65.9219 28.6094 65.9219
Q23.9688 65.9219 18.8125 64.3125
Q13.6719 62.7031 7.8125 59.4219
L7.8125 69.3906
Q13.7656 71.7812 18.9375 73
Q24.125 74.2188 28.4219 74.2188
Q39.75 74.2188 46.4844 68.5469
Q53.2188 62.8906 53.2188 53.4219
Q53.2188 48.9219 51.5312 44.8906
Q49.8594 40.875 45.4062 35.4062
Q44.1875 33.9844 37.6406 27.2188
Q31.1094 20.4531 19.1875 8.29688" id="DejaVuSans-32"/>
       <path d="
M34.1875 63.1875
L20.7969 26.9062
L47.6094 26.9062
z

M28.6094 72.9062
L39.7969 72.9062
L67.5781 0
L57.3281 0
L50.6875 18.7031
L17.8281 18.7031
L11.1875 0
L0.78125 0
z
" id="DejaVuSans-41"/>
       <path d="
M37.7969 64.3125
L12.8906 25.3906
L37.7969 25.3906
z

M35.2031 72.9062
L47.6094 72.9062
L47.6094 25.3906
L58.0156 25.3906
L58.0156 17.1875
L47.6094 17.1875
L47.6094 0
L37.7969 0
L37.7969 17.1875
L4.89062 17.1875
L4.89062 26.7031
z
" id="DejaVuSans-34"/>
       <path d="
M18.1094 8.20312
L18.1094 -20.7969
L9.07812 -20.7969
L9.07812 54.6875
L18.1094 54.6875
L18.1094 46.3906
Q20.9531 51.2656 25.2656 53.625
Q29.5938 56 35.5938 56
Q45.5625 56 51.7812 48.0938
Q58.0156 40.1875 58.0156 27.2969
Q58.0156 14.4062 51.7812 6.48438
Q45.5625 -1.42188 35.5938 -1.42188
Q29.5938 -1.42188 25.2656 0.953125
Q20.9531 3.32812 18.1094 8.20312
M48.6875 27.2969
Q48.6875 37.2031 44.6094 42.8438
Q40.5312 48.4844 33.4062 48.4844
Q26.2656 48.4844 22.1875 42.8438
Q18.1094 37.2031 18.1094 27.2969
Q18.1094 17.3906 22.1875 11.75
Q26.2656 6.10938 33.4062 6.10938
Q40.5312 6.10938 44.6094 11.75
Q48.6875 17.3906 48.6875 27.2969" id="DejaVuSans-70"/>
       <path d="
M41.1094 46.2969
Q39.5938 47.1719 37.8125 47.5781
Q36.0312 48 33.8906 48
Q26.2656 48 22.1875 43.0469
Q18.1094 38.0938 18.1094 28.8125
L18.1094 0
L9.07812 0
L9.07812 54.6875
L18.1094 54.6875
L18.1094 46.1875
Q20.9531 51.1719 25.4844 53.5781
Q30.0312 56 36.5312 56
Q37.4531 56 38.5781 55.875
Q39.7031 55.7656 41.0625 55.5156
z
" id="DejaVuSans-72"/>
      </defs>
      <g transform="translate(60.5871747212 301.8475)rotate(-90.0)scale(0.12 -0.12)">
       <use xlink:href="#DejaVuSans-41"/>
       <use x="68.408203125" xlink:href="#DejaVuSans-70"/>
       <use x="131.884765625" xlink:href="#DejaVuSans-72"/>
       <use x="172.998046875" xlink:href="#DejaVuSans-20"/>
       <use x="204.78515625" xlink:href="#DejaVuSans-32"/>
       <use x="268.408203125" xlink:href="#DejaVuSans-30"/>
       <use x="332.03125" xlink:href="#DejaVuSans-31"/>
       <use x="395.654296875" xlink:href="#DejaVuSans-34"/>
      </g>
     </g>
    </g>
    <g id="xtick_2">
     <g id="line2d_30">
      <g>
       <use style="stroke:#000000;stroke-width:0.5;" x="120.543582714" xlink:href="#m93b0483c22" y="243.406875"/>
      </g>
     </g>
     <g id="line2d_31">
      <g>
       <use style="stroke:#000000;stroke-width:0.5;" x="120.543582714" xlink:href="#m741efc42ff" y="13.006875"/>
      </g>
     </g>
     <g id="text_2">
      <!-- Aug 2014 -->
      <defs>
       <path d="
M8.5 21.5781
L8.5 54.6875
L17.4844 54.6875
L17.4844 21.9219
Q17.4844 14.1562 20.5 10.2656
Q23.5312 6.39062 29.5938 6.39062
Q36.8594 6.39062 41.0781 11.0312
Q45.3125 15.6719 45.3125 23.6875
L45.3125 54.6875
L54.2969 54.6875
L54.2969 0
L45.3125 0
L45.3125 8.40625
Q42.0469 3.42188 37.7188 1
Q33.4062 -1.42188 27.6875 -1.42188
Q18.2656 -1.42188 13.375 4.4375
Q8.5 10.2969 8.5 21.5781
M31.1094 56
z
" id="DejaVuSans-75"/>
       <path d="
M45.4062 27.9844
Q45.4062 37.75 41.375 43.1094
Q37.3594 48.4844 30.0781 48.4844
Q22.8594 48.4844 18.8281 43.1094
Q14.7969 37.75 14.7969 27.9844
Q14.7969 18.2656 18.8281 12.8906
Q22.8594 7.51562 30.0781 7.51562
Q37.3594 7.51562 41.375 12.8906
Q45.4062 18.2656 45.4062 27.9844
M54.3906 6.78125
Q54.3906 -7.17188 48.1875 -13.9844
Q42 -20.7969 29.2031 -20.7969
Q24.4688 -20.7969 20.2656 -20.0938
Q16.0625 -19.3906 12.1094 -17.9219
L12.1094 -9.1875
Q16.0625 -11.3281 19.9219 -12.3438
Q23.7812 -13.375 27.7812 -13.375
Q36.625 -13.375 41.0156 -8.76562
Q45.4062 -4.15625 45.4062 5.17188
L45.4062 9.625
Q42.625 4.78125 38.2812 2.39062
Q33.9375 0 27.875 0
Q17.8281 0 11.6719 7.65625
Q5.51562 15.3281 5.51562 27.9844
Q5.51562 40.6719 11.6719 48.3281
Q17.8281 56 27.875 56
Q33.9375 56 38.2812 53.6094
Q42.625 51.2188 45.4062 46.3906
L45.4062 54.6875
L54.3906 54.6875
z
" id="DejaVuSans-67"/>
      </defs>
      <g transform="translate(123.854832714 304.519375)rotate(-90.0)scale(0.12 -0.12)">
       <use xlink:href="#DejaVuSans-41"/>
       <use x="68.408203125" xlink:href="#DejaVuSans-75"/>
       <use x="131.787109375" xlink:href="#DejaVuSans-67"/>
       <use x="195.263671875" xlink:href="#DejaVuSans-20"/>
       <use x="227.05078125" xlink:href="#DejaVuSans-32"/>
       <use x="290.673828125" xlink:href="#DejaVuSans-30"/>
       <use x="354.296875" xlink:href="#DejaVuSans-31"/>
       <use x="417.919921875" xlink:href="#DejaVuSans-34"/>
      </g>
     </g>
    </g>
    <g id="xtick_3">
     <g id="line2d_32">
      <g>
       <use style="stroke:#000000;stroke-width:0.5;" x="183.811240706" xlink:href="#m93b0483c22" y="243.406875"/>
      </g>
     </g>
     <g id="line2d_33">
      <g>
       <use style="stroke:#000000;stroke-width:0.5;" x="183.811240706" xlink:href="#m741efc42ff" y="13.006875"/>
      </g>
     </g>
     <g id="text_3">
      <!-- Dec 2014 -->
      <defs>
       <path d="
M19.6719 64.7969
L19.6719 8.10938
L31.5938 8.10938
Q46.6875 8.10938 53.6875 14.9375
Q60.6875 21.7812 60.6875 36.5312
Q60.6875 51.1719 53.6875 57.9844
Q46.6875 64.7969 31.5938 64.7969
z

M9.8125 72.9062
L30.0781 72.9062
Q51.2656 72.9062 61.1719 64.0938
Q71.0938 55.2812 71.0938 36.5312
Q71.0938 17.6719 61.125 8.82812
Q51.1719 0 30.0781 0
L9.8125 0
z
" id="DejaVuSans-44"/>
       <path d="
M56.2031 29.5938
L56.2031 25.2031
L14.8906 25.2031
Q15.4844 15.9219 20.4844 11.0625
Q25.4844 6.20312 34.4219 6.20312
Q39.5938 6.20312 44.4531 7.46875
Q49.3125 8.73438 54.1094 11.2812
L54.1094 2.78125
Q49.2656 0.734375 44.1875 -0.34375
Q39.1094 -1.42188 33.8906 -1.42188
Q20.7969 -1.42188 13.1562 6.1875
Q5.51562 13.8125 5.51562 26.8125
Q5.51562 40.2344 12.7656 48.1094
Q20.0156 56 32.3281 56
Q43.3594 56 49.7812 48.8906
Q56.2031 41.7969 56.2031 29.5938
M47.2188 32.2344
Q47.125 39.5938 43.0938 43.9844
Q39.0625 48.3906 32.4219 48.3906
Q24.9062 48.3906 20.3906 44.1406
Q15.875 39.8906 15.1875 32.1719
z
" id="DejaVuSans-65"/>
       <path d="
M48.7812 52.5938
L48.7812 44.1875
Q44.9688 46.2969 41.1406 47.3438
Q37.3125 48.3906 33.4062 48.3906
Q24.6562 48.3906 19.8125 42.8438
Q14.9844 37.3125 14.9844 27.2969
Q14.9844 17.2812 19.8125 11.7344
Q24.6562 6.20312 33.4062 6.20312
Q37.3125 6.20312 41.1406 7.25
Q44.9688 8.29688 48.7812 10.4062
L48.7812 2.09375
Q45.0156 0.34375 40.9844 -0.53125
Q36.9688 -1.42188 32.4219 -1.42188
Q20.0625 -1.42188 12.7812 6.34375
Q5.51562 14.1094 5.51562 27.2969
Q5.51562 40.6719 12.8594 48.3281
Q20.2188 56 33.0156 56
Q37.1562 56 41.1094 55.1406
Q45.0625 54.2969 48.7812 52.5938" id="DejaVuSans-63"/>
      </defs>
      <g transform="translate(187.122490706 304.309375)rotate(-90.0)scale(0.12 -0.12)">
       <use xlink:href="#DejaVuSans-44"/>
       <use x="77.001953125" xlink:href="#DejaVuSans-65"/>
       <use x="138.525390625" xlink:href="#DejaVuSans-63"/>
       <use x="193.505859375" xlink:href="#DejaVuSans-20"/>
       <use x="225.29296875" xlink:href="#DejaVuSans-32"/>
       <use x="288.916015625" xlink:href="#DejaVuSans-30"/>
       <use x="352.5390625" xlink:href="#DejaVuSans-31"/>
       <use x="416.162109375" xlink:href="#DejaVuSans-34"/>
      </g>
     </g>
    </g>
    <g id="xtick_4">
     <g id="line2d_34">
      <g>
       <use style="stroke:#000000;stroke-width:0.5;" x="246.560311338" xlink:href="#m93b0483c22" y="243.406875"/>
      </g>
     </g>
     <g id="line2d_35">
      <g>
       <use style="stroke:#000000;stroke-width:0.5;" x="246.560311338" xlink:href="#m741efc42ff" y="13.006875"/>
      </g>
     </g>
     <g id="text_4">
      <!-- Apr 2015 -->
      <defs>
       <path d="
M10.7969 72.9062
L49.5156 72.9062
L49.5156 64.5938
L19.8281 64.5938
L19.8281 46.7344
Q21.9688 47.4688 24.1094 47.8281
Q26.2656 48.1875 28.4219 48.1875
Q40.625 48.1875 47.75 41.5
Q54.8906 34.8125 54.8906 23.3906
Q54.8906 11.625 47.5625 5.09375
Q40.2344 -1.42188 26.9062 -1.42188
Q22.3125 -1.42188 17.5469 -0.640625
Q12.7969 0.140625 7.71875 1.70312
L7.71875 11.625
Q12.1094 9.23438 16.7969 8.0625
Q21.4844 6.89062 26.7031 6.89062
Q35.1562 6.89062 40.0781 11.3281
Q45.0156 15.7656 45.0156 23.3906
Q45.0156 31 40.0781 35.4375
Q35.1562 39.8906 26.7031 39.8906
Q22.75 39.8906 18.8125 39.0156
Q14.8906 38.1406 10.7969 36.2812
z
" id="DejaVuSans-35"/>
      </defs>
      <g transform="translate(249.871561338 301.4725)rotate(-90.0)scale(0.12 -0.12)">
       <use xlink:href="#DejaVuSans-41"/>
       <use x="68.408203125" xlink:href="#DejaVuSans-70"/>
       <use x="131.884765625" xlink:href="#DejaVuSans-72"/>
       <use x="172.998046875" xlink:href="#DejaVuSans-20"/>
       <use x="204.78515625" xlink:href="#DejaVuSans-32"/>
       <use x="268.408203125" xlink:href="#DejaVuSans-30"/>
       <use x="332.03125" xlink:href="#DejaVuSans-31"/>
       <use x="395.654296875" xlink:href="#DejaVuSans-35"/>
      </g>
     </g>
    </g>
    <g id="xtick_5">
     <g id="line2d_36">
      <g>
       <use style="stroke:#000000;stroke-width:0.5;" x="309.827969331" xlink:href="#m93b0483c22" y="243.406875"/>
      </g>
     </g>
     <g id="line2d_37">
      <g>
       <use style="stroke:#000000;stroke-width:0.5;" x="309.827969331" xlink:href="#m741efc42ff" y="13.006875"/>
      </g>
     </g>
     <g id="text_5">
      <!-- Aug 2015 -->
      <g transform="translate(313.139219331 304.144375)rotate(-90.0)scale(0.12 -0.12)">
       <use xlink:href="#DejaVuSans-41"/>
       <use x="68.408203125" xlink:href="#DejaVuSans-75"/>
       <use x="131.787109375" xlink:href="#DejaVuSans-67"/>
       <use x="195.263671875" xlink:href="#DejaVuSans-20"/>
       <use x="227.05078125" xlink:href="#DejaVuSans-32"/>
       <use x="290.673828125" xlink:href="#DejaVuSans-30"/>
       <use x="354.296875" xlink:href="#DejaVuSans-31"/>
       <use x="417.919921875" xlink:href="#DejaVuSans-35"/>
      </g>
     </g>
    </g>
    <g id="xtick_6">
     <g id="line2d_38">
      <g>
       <use style="stroke:#000000;stroke-width:0.5;" x="373.095627323" xlink:href="#m93b0483c22" y="243.406875"/>
      </g>
     </g>
     <g id="line2d_39">
      <g>
       <use style="stroke:#000000;stroke-width:0.5;" x="373.095627323" xlink:href="#m741efc42ff" y="13.006875"/>
      </g>
     </g>
     <g id="text_6">
      <!-- Dec 2015 -->
      <g transform="translate(376.406877323 303.934375)rotate(-90.0)scale(0.12 -0.12)">
       <use xlink:href="#DejaVuSans-44"/>
       <use x="77.001953125" xlink:href="#DejaVuSans-65"/>
       <use x="138.525390625" xlink:href="#DejaVuSans-63"/>
       <use x="193.505859375" xlink:href="#DejaVuSans-20"/>
       <use x="225.29296875" xlink:href="#DejaVuSans-32"/>
       <use x="288.916015625" xlink:href="#DejaVuSans-30"/>
       <use x="352.5390625" xlink:href="#DejaVuSans-31"/>
       <use x="416.162109375" xlink:href="#DejaVuSans-35"/>
      </g>
     </g>
    </g>
    <g id="xtick_7">
     <g id="line2d_40">
      <g>
       <use style="stroke:#000000;stroke-width:0.5;" x="436.363285316" xlink:href="#m93b0483c22" y="243.406875"/>
      </g>
     </g>
     <g id="line2d_41">
      <g>
       <use style="stroke:#000000;stroke-width:0.5;" x="436.363285316" xlink:href="#m741efc42ff" y="13.006875"/>
      </g>
     </g>
     <g id="text_7">
      <!-- Apr 2016 -->
      <defs>
       <path d="
M33.0156 40.375
Q26.375 40.375 22.4844 35.8281
Q18.6094 31.2969 18.6094 23.3906
Q18.6094 15.5312 22.4844 10.9531
Q26.375 6.39062 33.0156 6.39062
Q39.6562 6.39062 43.5312 10.9531
Q47.4062 15.5312 47.4062 23.3906
Q47.4062 31.2969 43.5312 35.8281
Q39.6562 40.375 33.0156 40.375
M52.5938 71.2969
L52.5938 62.3125
Q48.875 64.0625 45.0938 64.9844
Q41.3125 65.9219 37.5938 65.9219
Q27.8281 65.9219 22.6719 59.3281
Q17.5312 52.7344 16.7969 39.4062
Q19.6719 43.6562 24.0156 45.9219
Q28.375 48.1875 33.5938 48.1875
Q44.5781 48.1875 50.9531 41.5156
Q57.3281 34.8594 57.3281 23.3906
Q57.3281 12.1562 50.6875 5.35938
Q44.0469 -1.42188 33.0156 -1.42188
Q20.3594 -1.42188 13.6719 8.26562
Q6.98438 17.9688 6.98438 36.375
Q6.98438 53.6562 15.1875 63.9375
Q23.3906 74.2188 37.2031 74.2188
Q40.9219 74.2188 44.7031 73.4844
Q48.4844 72.75 52.5938 71.2969" id="DejaVuSans-36"/>
      </defs>
      <g transform="translate(439.674535316 301.765)rotate(-90.0)scale(0.12 -0.12)">
       <use xlink:href="#DejaVuSans-41"/>
       <use x="68.408203125" xlink:href="#DejaVuSans-70"/>
       <use x="131.884765625" xlink:href="#DejaVuSans-72"/>
       <use x="172.998046875" xlink:href="#DejaVuSans-20"/>
       <use x="204.78515625" xlink:href="#DejaVuSans-32"/>
       <use x="268.408203125" xlink:href="#DejaVuSans-30"/>
       <use x="332.03125" xlink:href="#DejaVuSans-31"/>
       <use x="395.654296875" xlink:href="#DejaVuSans-36"/>
      </g>
     </g>
    </g>
    <g id="xtick_8">
     <g id="line2d_42">
      <g>
       <use style="stroke:#000000;stroke-width:0.5;" x="499.630943309" xlink:href="#m93b0483c22" y="243.406875"/>
      </g>
     </g>
     <g id="line2d_43">
      <g>
       <use style="stroke:#000000;stroke-width:0.5;" x="499.630943309" xlink:href="#m741efc42ff" y="13.006875"/>
      </g>
     </g>
     <g id="text_8">
      <!-- Aug 2016 -->
      <g transform="translate(502.942193309 304.436875)rotate(-90.0)scale(0.12 -0.12)">
       <use xlink:href="#DejaVuSans-41"/>
       <use x="68.408203125" xlink:href="#DejaVuSans-75"/>
       <use x="131.787109375" xlink:href="#DejaVuSans-67"/>
       <use x="195.263671875" xlink:href="#DejaVuSans-20"/>
       <use x="227.05078125" xlink:href="#DejaVuSans-32"/>
       <use x="290.673828125" xlink:href="#DejaVuSans-30"/>
       <use x="354.296875" xlink:href="#DejaVuSans-31"/>
       <use x="417.919921875" xlink:href="#DejaVuSans-36"/>
      </g>
     </g>
    </g>
    <g id="xtick_9">
     <g id="line2d_44">
      <g>
       <use style="stroke:#000000;stroke-width:0.5;" x="562.898601301" xlink:href="#m93b0483c22" y="243.406875"/>
      </g>
     </g>
     <g id="line2d_45">
      <g>
       <use style="stroke:#000000;stroke-width:0.5;" x="562.898601301" xlink:href="#m741efc42ff" y="13.006875"/>
      </g>
     </g>
     <g id="text_9">
      <!-- Dec 2016 -->
      <g transform="translate(566.209851301 304.226875)rotate(-90.0)scale(0.12 -0.12)">
       <use xlink:href="#DejaVuSans-44"/>
       <use x="77.001953125" xlink:href="#DejaVuSans-65"/>
       <use x="138.525390625" xlink:href="#DejaVuSans-63"/>
       <use x="193.505859375" xlink:href="#DejaVuSans-20"/>
       <use x="225.29296875" xlink:href="#DejaVuSans-32"/>
       <use x="288.916015625" xlink:href="#DejaVuSans-30"/>
       <use x="352.5390625" xlink:href="#DejaVuSans-31"/>
       <use x="416.162109375" xlink:href="#DejaVuSans-36"/>
      </g>
     </g>
    </g>
   </g>
   <g id="matplotlib.axis_2">
    <g id="ytick_1">
     <g id="line2d_46">
      <defs>
       <path d="
M0 0
L4 0" id="m728421d6d4" style="stroke:#000000;stroke-width:0.5;"/>
      </defs>
      <g>
       <use style="stroke:#000000;stroke-width:0.5;" x="56.23875" xlink:href="#m728421d6d4" y="243.406875"/>
      </g>
     </g>
     <g id="line2d_47">
      <defs>
       <path d="
M0 0
L-4 0" id="mcb0005524f" style="stroke:#000000;stroke-width:0.5;"/>
      </defs>
      <g>
       <use style="stroke:#000000;stroke-width:0.5;" x="614.23875" xlink:href="#mcb0005524f" y="243.406875"/>
      </g>
     </g>
     <g id="text_10">
      <!-- 200 -->
      <g transform="translate(31.01 246.718125)scale(0.12 -0.12)">
       <use xlink:href="#DejaVuSans-32"/>
       <use x="63.623046875" xlink:href="#DejaVuSans-30"/>
       <use x="127.24609375" xlink:href="#DejaVuSans-30"/>
      </g>
     </g>
    </g>
    <g id="ytick_2">
     <g id="line2d_48">
      <g>
       <use style="stroke:#000000;stroke-width:0.5;" x="56.23875" xlink:href="#m728421d6d4" y="205.006875"/>
      </g>
     </g>
     <g id="line2d_49">
      <g>
       <use style="stroke:#000000;stroke-width:0.5;" x="614.23875" xlink:href="#mcb0005524f" y="205.006875"/>
      </g>
     </g>
     <g id="text_11">
      <!-- 400 -->
      <g transform="translate(30.7175 208.318125)scale(0.12 -0.12)">
       <use xlink:href="#DejaVuSans-34"/>
       <use x="63.623046875" xlink:href="#DejaVuSans-30"/>
       <use x="127.24609375" xlink:href="#DejaVuSans-30"/>
      </g>
     </g>
    </g>
    <g id="ytick_3">
     <g id="line2d_50">
      <g>
       <use style="stroke:#000000;stroke-width:0.5;" x="56.23875" xlink:href="#m728421d6d4" y="166.606875"/>
      </g>
     </g>
     <g id="line2d_51">
      <g>
       <use style="stroke:#000000;stroke-width:0.5;" x="614.23875" xlink:href="#mcb0005524f" y="166.606875"/>
      </g>
     </g>
     <g id="text_12">
      <!-- 600 -->
      <g transform="translate(30.96875 169.918125)scale(0.12 -0.12)">
       <use xlink:href="#DejaVuSans-36"/>
       <use x="63.623046875" xlink:href="#DejaVuSans-30"/>
       <use x="127.24609375" xlink:href="#DejaVuSans-30"/>
      </g>
     </g>
    </g>
    <g id="ytick_4">
     <g id="line2d_52">
      <g>
       <use style="stroke:#000000;stroke-width:0.5;" x="56.23875" xlink:href="#m728421d6d4" y="128.206875"/>
      </g>
     </g>
     <g id="line2d_53">
      <g>
       <use style="stroke:#000000;stroke-width:0.5;" x="614.23875" xlink:href="#mcb0005524f" y="128.206875"/>
      </g>
     </g>
     <g id="text_13">
      <!-- 800 -->
      <defs>
       <path d="
M31.7812 34.625
Q24.75 34.625 20.7188 30.8594
Q16.7031 27.0938 16.7031 20.5156
Q16.7031 13.9219 20.7188 10.1562
Q24.75 6.39062 31.7812 6.39062
Q38.8125 6.39062 42.8594 10.1719
Q46.9219 13.9688 46.9219 20.5156
Q46.9219 27.0938 42.8906 30.8594
Q38.875 34.625 31.7812 34.625
M21.9219 38.8125
Q15.5781 40.375 12.0312 44.7188
Q8.5 49.0781 8.5 55.3281
Q8.5 64.0625 14.7188 69.1406
Q20.9531 74.2188 31.7812 74.2188
Q42.6719 74.2188 48.875 69.1406
Q55.0781 64.0625 55.0781 55.3281
Q55.0781 49.0781 51.5312 44.7188
Q48 40.375 41.7031 38.8125
Q48.8281 37.1562 52.7969 32.3125
Q56.7812 27.4844 56.7812 20.5156
Q56.7812 9.90625 50.3125 4.23438
Q43.8438 -1.42188 31.7812 -1.42188
Q19.7344 -1.42188 13.25 4.23438
Q6.78125 9.90625 6.78125 20.5156
Q6.78125 27.4844 10.7812 32.3125
Q14.7969 37.1562 21.9219 38.8125
M18.3125 54.3906
Q18.3125 48.7344 21.8438 45.5625
Q25.3906 42.3906 31.7812 42.3906
Q38.1406 42.3906 41.7188 45.5625
Q45.3125 48.7344 45.3125 54.3906
Q45.3125 60.0625 41.7188 63.2344
Q38.1406 66.4062 31.7812 66.4062
Q25.3906 66.4062 21.8438 63.2344
Q18.3125 60.0625 18.3125 54.3906" id="DejaVuSans-38"/>
      </defs>
      <g transform="translate(30.944375 131.518125)scale(0.12 -0.12)">
       <use xlink:href="#DejaVuSans-38"/>
       <use x="63.623046875" xlink:href="#DejaVuSans-30"/>
       <use x="127.24609375" xlink:href="#DejaVuSans-30"/>
      </g>
     </g>
    </g>
    <g id="ytick_5">
     <g id="line2d_54">
      <g>
       <use style="stroke:#000000;stroke-width:0.5;" x="56.23875" xlink:href="#m728421d6d4" y="89.806875"/>
      </g>
     </g>
     <g id="line2d_55">
      <g>
       <use style="stroke:#000000;stroke-width:0.5;" x="614.23875" xlink:href="#mcb0005524f" y="89.806875"/>
      </g>
     </g>
     <g id="text_14">
      <!-- 1000 -->
      <g transform="translate(23.81375 93.118125)scale(0.12 -0.12)">
       <use xlink:href="#DejaVuSans-31"/>
       <use x="63.623046875" xlink:href="#DejaVuSans-30"/>
       <use x="127.24609375" xlink:href="#DejaVuSans-30"/>
       <use x="190.869140625" xlink:href="#DejaVuSans-30"/>
      </g>
     </g>
    </g>
    <g id="ytick_6">
     <g id="line2d_56">
      <g>
       <use style="stroke:#000000;stroke-width:0.5;" x="56.23875" xlink:href="#m728421d6d4" y="51.406875"/>
      </g>
     </g>
     <g id="line2d_57">
      <g>
       <use style="stroke:#000000;stroke-width:0.5;" x="614.23875" xlink:href="#mcb0005524f" y="51.406875"/>
      </g>
     </g>
     <g id="text_15">
      <!-- 1200 -->
      <g transform="translate(23.81375 54.718125)scale(0.12 -0.12)">
       <use xlink:href="#DejaVuSans-31"/>
       <use x="63.623046875" xlink:href="#DejaVuSans-32"/>
       <use x="127.24609375" xlink:href="#DejaVuSans-30"/>
       <use x="190.869140625" xlink:href="#DejaVuSans-30"/>
      </g>
     </g>
    </g>
    <g id="ytick_7">
     <g id="line2d_58">
      <g>
       <use style="stroke:#000000;stroke-width:0.5;" x="56.23875" xlink:href="#m728421d6d4" y="13.006875"/>
      </g>
     </g>
     <g id="line2d_59">
      <g>
       <use style="stroke:#000000;stroke-width:0.5;" x="614.23875" xlink:href="#mcb0005524f" y="13.006875"/>
      </g>
     </g>
     <g id="text_16">
      <!-- 1400 -->
      <g transform="translate(23.81375 16.318125)scale(0.12 -0.12)">
       <use xlink:href="#DejaVuSans-31"/>
       <use x="63.623046875" xlink:href="#DejaVuSans-34"/>
       <use x="127.24609375" xlink:href="#DejaVuSans-30"/>
       <use x="190.869140625" xlink:href="#DejaVuSans-30"/>
      </g>
     </g>
    </g>
    <g id="text_17">
     <!-- Number of Tagged Packages -->
     <defs>
      <path d="
M9.8125 72.9062
L23.0938 72.9062
L55.4219 11.9219
L55.4219 72.9062
L64.9844 72.9062
L64.9844 0
L51.7031 0
L19.3906 60.9844
L19.3906 0
L9.8125 0
z
" id="DejaVuSans-4e"/>
      <path d="
M19.6719 64.7969
L19.6719 37.4062
L32.0781 37.4062
Q38.9688 37.4062 42.7188 40.9688
Q46.4844 44.5312 46.4844 51.125
Q46.4844 57.6719 42.7188 61.2344
Q38.9688 64.7969 32.0781 64.7969
z

M9.8125 72.9062
L32.0781 72.9062
Q44.3438 72.9062 50.6094 67.3594
Q56.8906 61.8125 56.8906 51.125
Q56.8906 40.3281 50.6094 34.8125
Q44.3438 29.2969 32.0781 29.2969
L19.6719 29.2969
L19.6719 0
L9.8125 0
z
" id="DejaVuSans-50"/>
      <path d="
M30.6094 48.3906
Q23.3906 48.3906 19.1875 42.75
Q14.9844 37.1094 14.9844 27.2969
Q14.9844 17.4844 19.1562 11.8438
Q23.3438 6.20312 30.6094 6.20312
Q37.7969 6.20312 41.9844 11.8594
Q46.1875 17.5312 46.1875 27.2969
Q46.1875 37.0156 41.9844 42.7031
Q37.7969 48.3906 30.6094 48.3906
M30.6094 56
Q42.3281 56 49.0156 48.375
Q55.7188 40.7656 55.7188 27.2969
Q55.7188 13.875 49.0156 6.21875
Q42.3281 -1.42188 30.6094 -1.42188
Q18.8438 -1.42188 12.1719 6.21875
Q5.51562 13.875 5.51562 27.2969
Q5.51562 40.7656 12.1719 48.375
Q18.8438 56 30.6094 56" id="DejaVuSans-6f"/>
      <path d="
M52 44.1875
Q55.375 50.25 60.0625 53.125
Q64.75 56 71.0938 56
Q79.6406 56 84.2812 50.0156
Q88.9219 44.0469 88.9219 33.0156
L88.9219 0
L79.8906 0
L79.8906 32.7188
Q79.8906 40.5781 77.0938 44.375
Q74.3125 48.1875 68.6094 48.1875
Q61.625 48.1875 57.5625 43.5469
Q53.5156 38.9219 53.5156 30.9062
L53.5156 0
L44.4844 0
L44.4844 32.7188
Q44.4844 40.625 41.7031 44.4062
Q38.9219 48.1875 33.1094 48.1875
Q26.2188 48.1875 22.1562 43.5312
Q18.1094 38.875 18.1094 30.9062
L18.1094 0
L9.07812 0
L9.07812 54.6875
L18.1094 54.6875
L18.1094 46.1875
Q21.1875 51.2188 25.4844 53.6094
Q29.7812 56 35.6875 56
Q41.6562 56 45.8281 52.9688
Q50 49.9531 52 44.1875" id="DejaVuSans-6d"/>
      <path d="
M9.07812 75.9844
L18.1094 75.9844
L18.1094 31.1094
L44.9219 54.6875
L56.3906 54.6875
L27.3906 29.1094
L57.625 0
L45.9062 0
L18.1094 26.7031
L18.1094 0
L9.07812 0
z
" id="DejaVuSans-6b"/>
      <path d="
M37.1094 75.9844
L37.1094 68.5
L28.5156 68.5
Q23.6875 68.5 21.7969 66.5469
Q19.9219 64.5938 19.9219 59.5156
L19.9219 54.6875
L34.7188 54.6875
L34.7188 47.7031
L19.9219 47.7031
L19.9219 0
L10.8906 0
L10.8906 47.7031
L2.29688 47.7031
L2.29688 54.6875
L10.8906 54.6875
L10.8906 58.5
Q10.8906 67.625 15.1406 71.7969
Q19.3906 75.9844 28.6094 75.9844
z
" id="DejaVuSans-66"/>
      <path d="
M45.4062 46.3906
L45.4062 75.9844
L54.3906 75.9844
L54.3906 0
L45.4062 0
L45.4062 8.20312
Q42.5781 3.32812 38.25 0.953125
Q33.9375 -1.42188 27.875 -1.42188
Q17.9688 -1.42188 11.7344 6.48438
Q5.51562 14.4062 5.51562 27.2969
Q5.51562 40.1875 11.7344 48.0938
Q17.9688 56 27.875 56
Q33.9375 56 38.25 53.625
Q42.5781 51.2656 45.4062 46.3906
M14.7969 27.2969
Q14.7969 17.3906 18.875 11.75
Q22.9531 6.10938 30.0781 6.10938
Q37.2031 6.10938 41.2969 11.75
Q45.4062 17.3906 45.4062 27.2969
Q45.4062 37.2031 41.2969 42.8438
Q37.2031 48.4844 30.0781 48.4844
Q22.9531 48.4844 18.875 42.8438
Q14.7969 37.2031 14.7969 27.2969" id="DejaVuSans-64"/>
      <path d="
M34.2812 27.4844
Q23.3906 27.4844 19.1875 25
Q14.9844 22.5156 14.9844 16.5
Q14.9844 11.7188 18.1406 8.90625
Q21.2969 6.10938 26.7031 6.10938
Q34.1875 6.10938 38.7031 11.4062
Q43.2188 16.7031 43.2188 25.4844
L43.2188 27.4844
z

M52.2031 31.2031
L52.2031 0
L43.2188 0
L43.2188 8.29688
Q40.1406 3.32812 35.5469 0.953125
Q30.9531 -1.42188 24.3125 -1.42188
Q15.9219 -1.42188 10.9531 3.29688
Q6 8.01562 6 15.9219
Q6 25.1406 12.1719 29.8281
Q18.3594 34.5156 30.6094 34.5156
L43.2188 34.5156
L43.2188 35.4062
Q43.2188 41.6094 39.1406 45
Q35.0625 48.3906 27.6875 48.3906
Q23 48.3906 18.5469 47.2656
Q14.1094 46.1406 10.0156 43.8906
L10.0156 52.2031
Q14.9375 54.1094 19.5781 55.0469
Q24.2188 56 28.6094 56
Q40.4844 56 46.3438 49.8438
Q52.2031 43.7031 52.2031 31.2031" id="DejaVuSans-61"/>
      <path d="
M48.6875 27.2969
Q48.6875 37.2031 44.6094 42.8438
Q40.5312 48.4844 33.4062 48.4844
Q26.2656 48.4844 22.1875 42.8438
Q18.1094 37.2031 18.1094 27.2969
Q18.1094 17.3906 22.1875 11.75
Q26.2656 6.10938 33.4062 6.10938
Q40.5312 6.10938 44.6094 11.75
Q48.6875 17.3906 48.6875 27.2969
M18.1094 46.3906
Q20.9531 51.2656 25.2656 53.625
Q29.5938 56 35.5938 56
Q45.5625 56 51.7812 48.0938
Q58.0156 40.1875 58.0156 27.2969
Q58.0156 14.4062 51.7812 6.48438
Q45.5625 -1.42188 35.5938 -1.42188
Q29.5938 -1.42188 25.2656 0.953125
Q20.9531 3.32812 18.1094 8.20312
L18.1094 0
L9.07812 0
L9.07812 75.9844
L18.1094 75.9844
z
" id="DejaVuSans-62"/>
      <path d="
M44.2812 53.0781
L44.2812 44.5781
Q40.4844 46.5312 36.375 47.5
Q32.2812 48.4844 27.875 48.4844
Q21.1875 48.4844 17.8438 46.4375
Q14.5 44.3906 14.5 40.2812
Q14.5 37.1562 16.8906 35.375
Q19.2812 33.5938 26.5156 31.9844
L29.5938 31.2969
Q39.1562 29.25 43.1875 25.5156
Q47.2188 21.7812 47.2188 15.0938
Q47.2188 7.46875 41.1875 3.01562
Q35.1562 -1.42188 24.6094 -1.42188
Q20.2188 -1.42188 15.4531 -0.5625
Q10.6875 0.296875 5.42188 2
L5.42188 11.2812
Q10.4062 8.6875 15.2344 7.39062
Q20.0625 6.10938 24.8125 6.10938
Q31.1562 6.10938 34.5625 8.28125
Q37.9844 10.4531 37.9844 14.4062
Q37.9844 18.0625 35.5156 20.0156
Q33.0625 21.9688 24.7031 23.7812
L21.5781 24.5156
Q13.2344 26.2656 9.51562 29.9062
Q5.8125 33.5469 5.8125 39.8906
Q5.8125 47.6094 11.2812 51.7969
Q16.75 56 26.8125 56
Q31.7812 56 36.1719 55.2656
Q40.5781 54.5469 44.2812 53.0781" id="DejaVuSans-73"/>
      <path d="
M-0.296875 72.9062
L61.375 72.9062
L61.375 64.5938
L35.5 64.5938
L35.5 0
L25.5938 0
L25.5938 64.5938
L-0.296875 64.5938
z
" id="DejaVuSans-54"/>
     </defs>
     <g transform="translate(16.318125 212.98875)rotate(-90.0)scale(0.12 -0.12)">
      <use xlink:href="#DejaVuSans-4e"/>
      <use x="74.8046875" xlink:href="#DejaVuSans-75"/>
      <use x="138.18359375" xlink:href="#DejaVuSans-6d"/>
      <use x="235.595703125" xlink:href="#DejaVuSans-62"/>
      <use x="299.072265625" xlink:href="#DejaVuSans-65"/>
      <use x="360.595703125" xlink:href="#DejaVuSans-72"/>
      <use x="401.708984375" xlink:href="#DejaVuSans-20"/>
      <use x="433.49609375" xlink:href="#DejaVuSans-6f"/>
      <use x="494.677734375" xlink:href="#DejaVuSans-66"/>
      <use x="529.8828125" xlink:href="#DejaVuSans-20"/>
      <use x="561.669921875" xlink:href="#DejaVuSans-54"/>
      <use x="606.25390625" xlink:href="#DejaVuSans-61"/>
      <use x="667.533203125" xlink:href="#DejaVuSans-67"/>
      <use x="731.009765625" xlink:href="#DejaVuSans-67"/>
      <use x="794.486328125" xlink:href="#DejaVuSans-65"/>
      <use x="856.009765625" xlink:href="#DejaVuSans-64"/>
      <use x="919.486328125" xlink:href="#DejaVuSans-20"/>
      <use x="951.2734375" xlink:href="#DejaVuSans-50"/>
      <use x="1007.07617188" xlink:href="#DejaVuSans-61"/>
      <use x="1068.35546875" xlink:href="#DejaVuSans-63"/>
      <use x="1123.3359375" xlink:href="#DejaVuSans-6b"/>
      <use x="1179.49609375" xlink:href="#DejaVuSans-61"/>
      <use x="1240.77539062" xlink:href="#DejaVuSans-67"/>
      <use x="1304.25195312" xlink:href="#DejaVuSans-65"/>
      <use x="1365.77539062" xlink:href="#DejaVuSans-73"/>
     </g>
    </g>
   </g>
   <g id="patch_3">
    <path d="
M56.2388 13.0069
L614.239 13.0069" style="fill:none;stroke:#000000;"/>
   </g>
   <g id="patch_4">
    <path d="
M614.239 243.407
L614.239 13.0069" style="fill:none;stroke:#000000;"/>
   </g>
   <g id="patch_5">
    <path d="
M56.2388 243.407
L614.239 243.407" style="fill:none;stroke:#000000;"/>
   </g>
   <g id="patch_6">
    <path d="
M56.2388 243.407
L56.2388 13.0069" style="fill:none;stroke:#000000;"/>
   </g>
   <g id="text_18">
    <g id="patch_7">
     <path d="
M123.56 124.199
L137.234 124.199
L137.234 89.8115
L123.56 89.8115
z
" style="fill:#ffffff;stroke:#ffffff;"/>
    </g>
    <!-- v0.3.0 -->
    <defs>
     <path d="
M40.5781 39.3125
Q47.6562 37.7969 51.625 33
Q55.6094 28.2188 55.6094 21.1875
Q55.6094 10.4062 48.1875 4.48438
Q40.7656 -1.42188 27.0938 -1.42188
Q22.5156 -1.42188 17.6562 -0.515625
Q12.7969 0.390625 7.625 2.20312
L7.625 11.7188
Q11.7188 9.32812 16.5938 8.10938
Q21.4844 6.89062 26.8125 6.89062
Q36.0781 6.89062 40.9375 10.5469
Q45.7969 14.2031 45.7969 21.1875
Q45.7969 27.6406 41.2812 31.2656
Q36.7656 34.9062 28.7188 34.9062
L20.2188 34.9062
L20.2188 43.0156
L29.1094 43.0156
Q36.375 43.0156 40.2344 45.9219
Q44.0938 48.8281 44.0938 54.2969
Q44.0938 59.9062 40.1094 62.9062
Q36.1406 65.9219 28.7188 65.9219
Q24.6562 65.9219 20.0156 65.0312
Q15.375 64.1562 9.8125 62.3125
L9.8125 71.0938
Q15.4375 72.6562 20.3438 73.4375
Q25.25 74.2188 29.5938 74.2188
Q40.8281 74.2188 47.3594 69.1094
Q53.9062 64.0156 53.9062 55.3281
Q53.9062 49.2656 50.4375 45.0938
Q46.9688 40.9219 40.5781 39.3125" id="DejaVuSans-33"/>
     <path d="
M2.98438 54.6875
L12.5 54.6875
L29.5938 8.79688
L46.6875 54.6875
L56.2031 54.6875
L35.6875 0
L23.4844 0
z
" id="DejaVuSans-76"/>
     <path d="
M10.6875 12.4062
L21 12.4062
L21 0
L10.6875 0
z
" id="DejaVuSans-2e"/>
    </defs>
    <g transform="translate(133.155013815 122.199316875)rotate(-90.0)scale(0.09996 -0.09996)">
     <use xlink:href="#DejaVuSans-76"/>
     <use x="59.1796875" xlink:href="#DejaVuSans-30"/>
     <use x="122.802734375" xlink:href="#DejaVuSans-2e"/>
     <use x="154.58984375" xlink:href="#DejaVuSans-33"/>
     <use x="218.212890625" xlink:href="#DejaVuSans-2e"/>
     <use x="250.0" xlink:href="#DejaVuSans-30"/>
    </g>
   </g>
   <g id="text_19">
    <g id="patch_8">
     <path d="
M140.154 104.74
L153.829 104.74
L153.829 70.6115
L140.154 70.6115
z
" style="fill:#ffffff;stroke:#ffffff;"/>
    </g>
    <!-- v0.3.1 -->
    <g transform="translate(149.749809354 102.740045625)rotate(-90.0)scale(0.09996 -0.09996)">
     <use xlink:href="#DejaVuSans-76"/>
     <use x="59.1796875" xlink:href="#DejaVuSans-30"/>
     <use x="122.802734375" xlink:href="#DejaVuSans-2e"/>
     <use x="154.58984375" xlink:href="#DejaVuSans-33"/>
     <use x="218.212890625" xlink:href="#DejaVuSans-2e"/>
     <use x="250.0" xlink:href="#DejaVuSans-31"/>
    </g>
   </g>
   <g id="text_20">
    <g id="patch_9">
     <path d="
M155.712 123.862
L169.386 123.862
L169.386 89.8115
L155.712 89.8115
z
" style="fill:#ffffff;stroke:#ffffff;"/>
    </g>
    <!-- v0.3.2 -->
    <g transform="translate(165.307430172 121.861951875)rotate(-90.0)scale(0.09996 -0.09996)">
     <use xlink:href="#DejaVuSans-76"/>
     <use x="59.1796875" xlink:href="#DejaVuSans-30"/>
     <use x="122.802734375" xlink:href="#DejaVuSans-2e"/>
     <use x="154.58984375" xlink:href="#DejaVuSans-33"/>
     <use x="218.212890625" xlink:href="#DejaVuSans-2e"/>
     <use x="250.0" xlink:href="#DejaVuSans-32"/>
    </g>
   </g>
   <g id="text_21">
    <g id="patch_10">
     <path d="
M172.825 104.862
L186.5 104.862
L186.5 70.6115
L172.825 70.6115
z
" style="fill:#ffffff;stroke:#ffffff;"/>
    </g>
    <!-- v0.3.3 -->
    <g transform="translate(182.420813072 102.861871875)rotate(-90.0)scale(0.09996 -0.09996)">
     <use xlink:href="#DejaVuSans-76"/>
     <use x="59.1796875" xlink:href="#DejaVuSans-30"/>
     <use x="122.802734375" xlink:href="#DejaVuSans-2e"/>
     <use x="154.58984375" xlink:href="#DejaVuSans-33"/>
     <use x="218.212890625" xlink:href="#DejaVuSans-2e"/>
     <use x="250.0" xlink:href="#DejaVuSans-33"/>
    </g>
   </g>
   <g id="text_22">
    <g id="patch_11">
     <path d="
M189.939 124.302
L203.613 124.302
L203.613 89.8115
L189.939 89.8115
z
" style="fill:#ffffff;stroke:#ffffff;"/>
    </g>
    <!-- v0.3.4 -->
    <g transform="translate(199.534195971 122.302400625)rotate(-90.0)scale(0.09996 -0.09996)">
     <use xlink:href="#DejaVuSans-76"/>
     <use x="59.1796875" xlink:href="#DejaVuSans-30"/>
     <use x="122.802734375" xlink:href="#DejaVuSans-2e"/>
     <use x="154.58984375" xlink:href="#DejaVuSans-33"/>
     <use x="218.212890625" xlink:href="#DejaVuSans-2e"/>
     <use x="250.0" xlink:href="#DejaVuSans-34"/>
    </g>
   </g>
   <g id="text_23">
    <g id="patch_12">
     <path d="
M196.68 104.79
L210.355 104.79
L210.355 70.6115
L196.68 70.6115
z
" style="fill:#ffffff;stroke:#ffffff;"/>
    </g>
    <!-- v0.3.5 -->
    <g transform="translate(206.275831659 102.790025625)rotate(-90.0)scale(0.09996 -0.09996)">
     <use xlink:href="#DejaVuSans-76"/>
     <use x="59.1796875" xlink:href="#DejaVuSans-30"/>
     <use x="122.802734375" xlink:href="#DejaVuSans-2e"/>
     <use x="154.58984375" xlink:href="#DejaVuSans-33"/>
     <use x="218.212890625" xlink:href="#DejaVuSans-2e"/>
     <use x="250.0" xlink:href="#DejaVuSans-35"/>
    </g>
   </g>
   <g id="text_24">
    <g id="patch_13">
     <path d="
M217.424 124.234
L231.098 124.234
L231.098 89.8115
L217.424 89.8115
z
" style="fill:#ffffff;stroke:#ffffff;"/>
    </g>
    <!-- v0.3.6 -->
    <g transform="translate(227.019326083 122.233678125)rotate(-90.0)scale(0.09996 -0.09996)">
     <use xlink:href="#DejaVuSans-76"/>
     <use x="59.1796875" xlink:href="#DejaVuSans-30"/>
     <use x="122.802734375" xlink:href="#DejaVuSans-2e"/>
     <use x="154.58984375" xlink:href="#DejaVuSans-33"/>
     <use x="218.212890625" xlink:href="#DejaVuSans-2e"/>
     <use x="250.0" xlink:href="#DejaVuSans-36"/>
    </g>
   </g>
   <g id="text_25">
    <g id="patch_14">
     <path d="
M235.056 104.809
L248.73 104.809
L248.73 70.6115
L235.056 70.6115
z
" style="fill:#ffffff;stroke:#ffffff;"/>
    </g>
    <!-- v0.3.7 -->
    <defs>
     <path d="
M8.20312 72.9062
L55.0781 72.9062
L55.0781 68.7031
L28.6094 0
L18.3125 0
L43.2188 64.5938
L8.20312 64.5938
z
" id="DejaVuSans-37"/>
    </defs>
    <g transform="translate(244.651296343 102.808768125)rotate(-90.0)scale(0.09996 -0.09996)">
     <use xlink:href="#DejaVuSans-76"/>
     <use x="59.1796875" xlink:href="#DejaVuSans-30"/>
     <use x="122.802734375" xlink:href="#DejaVuSans-2e"/>
     <use x="154.58984375" xlink:href="#DejaVuSans-33"/>
     <use x="218.212890625" xlink:href="#DejaVuSans-2e"/>
     <use x="250.0" xlink:href="#DejaVuSans-37"/>
    </g>
   </g>
   <g id="text_26">
    <g id="patch_15">
     <path d="
M254.762 124.179
L268.436 124.179
L268.436 89.8115
L254.762 89.8115
z
" style="fill:#ffffff;stroke:#ffffff;"/>
    </g>
    <!-- v0.3.8 -->
    <g transform="translate(264.357616046 122.1790125)rotate(-90.0)scale(0.09996 -0.09996)">
     <use xlink:href="#DejaVuSans-76"/>
     <use x="59.1796875" xlink:href="#DejaVuSans-30"/>
     <use x="122.802734375" xlink:href="#DejaVuSans-2e"/>
     <use x="154.58984375" xlink:href="#DejaVuSans-33"/>
     <use x="218.212890625" xlink:href="#DejaVuSans-2e"/>
     <use x="250.0" xlink:href="#DejaVuSans-38"/>
    </g>
   </g>
   <g id="text_27">
    <g id="patch_16">
     <path d="
M270.32 104.96
L283.994 104.96
L283.994 70.6115
L270.32 70.6115
z
" style="fill:#ffffff;stroke:#ffffff;"/>
    </g>
    <!-- v0.3.9 -->
    <defs>
     <path d="
M10.9844 1.51562
L10.9844 10.5
Q14.7031 8.73438 18.5 7.8125
Q22.3125 6.89062 25.9844 6.89062
Q35.75 6.89062 40.8906 13.4531
Q46.0469 20.0156 46.7812 33.4062
Q43.9531 29.2031 39.5938 26.9531
Q35.25 24.7031 29.9844 24.7031
Q19.0469 24.7031 12.6719 31.3125
Q6.29688 37.9375 6.29688 49.4219
Q6.29688 60.6406 12.9375 67.4219
Q19.5781 74.2188 30.6094 74.2188
Q43.2656 74.2188 49.9219 64.5156
Q56.5938 54.8281 56.5938 36.375
Q56.5938 19.1406 48.4062 8.85938
Q40.2344 -1.42188 26.4219 -1.42188
Q22.7031 -1.42188 18.8906 -0.6875
Q15.0938 0.046875 10.9844 1.51562
M30.6094 32.4219
Q37.25 32.4219 41.125 36.9531
Q45.0156 41.5 45.0156 49.4219
Q45.0156 57.2812 41.125 61.8438
Q37.25 66.4062 30.6094 66.4062
Q23.9688 66.4062 20.0938 61.8438
Q16.2188 57.2812 16.2188 49.4219
Q16.2188 41.5 20.0938 36.9531
Q23.9688 32.4219 30.6094 32.4219" id="DejaVuSans-39"/>
    </defs>
    <g transform="translate(279.915236863 102.96027)rotate(-90.0)scale(0.09996 -0.09996)">
     <use xlink:href="#DejaVuSans-76"/>
     <use x="59.1796875" xlink:href="#DejaVuSans-30"/>
     <use x="122.802734375" xlink:href="#DejaVuSans-2e"/>
     <use x="154.58984375" xlink:href="#DejaVuSans-33"/>
     <use x="218.212890625" xlink:href="#DejaVuSans-2e"/>
     <use x="250.0" xlink:href="#DejaVuSans-39"/>
    </g>
   </g>
   <g id="text_28">
    <g id="patch_17">
     <path d="
M283.285 130.559
L296.959 130.559
L296.959 89.8115
L283.285 89.8115
z
" style="fill:#ffffff;stroke:#ffffff;"/>
    </g>
    <!-- v0.3.10 -->
    <g transform="translate(292.879920878 128.559271875)rotate(-90.0)scale(0.09996 -0.09996)">
     <use xlink:href="#DejaVuSans-76"/>
     <use x="59.1796875" xlink:href="#DejaVuSans-30"/>
     <use x="122.802734375" xlink:href="#DejaVuSans-2e"/>
     <use x="154.58984375" xlink:href="#DejaVuSans-33"/>
     <use x="218.212890625" xlink:href="#DejaVuSans-2e"/>
     <use x="250.0" xlink:href="#DejaVuSans-31"/>
     <use x="313.623046875" xlink:href="#DejaVuSans-30"/>
    </g>
   </g>
   <g id="text_29">
    <g id="patch_18">
     <path d="
M300.398 111.1
L314.072 111.1
L314.072 70.6115
L300.398 70.6115
z
" style="fill:#ffffff;stroke:#ffffff;"/>
    </g>
    <!-- v0.3.11 -->
    <g transform="translate(309.993303778 109.100000625)rotate(-90.0)scale(0.09996 -0.09996)">
     <use xlink:href="#DejaVuSans-76"/>
     <use x="59.1796875" xlink:href="#DejaVuSans-30"/>
     <use x="122.802734375" xlink:href="#DejaVuSans-2e"/>
     <use x="154.58984375" xlink:href="#DejaVuSans-33"/>
     <use x="218.212890625" xlink:href="#DejaVuSans-2e"/>
     <use x="250.0" xlink:href="#DejaVuSans-31"/>
     <use x="313.623046875" xlink:href="#DejaVuSans-31"/>
    </g>
   </g>
   <g id="text_30">
    <g id="patch_19">
     <path d="
M347.589 130.222
L361.264 130.222
L361.264 89.8115
L347.589 89.8115
z
" style="fill:#ffffff;stroke:#ffffff;"/>
    </g>
    <!-- v0.3.12 -->
    <g transform="translate(357.184753592 128.221906875)rotate(-90.0)scale(0.09996 -0.09996)">
     <use xlink:href="#DejaVuSans-76"/>
     <use x="59.1796875" xlink:href="#DejaVuSans-30"/>
     <use x="122.802734375" xlink:href="#DejaVuSans-2e"/>
     <use x="154.58984375" xlink:href="#DejaVuSans-33"/>
     <use x="218.212890625" xlink:href="#DejaVuSans-2e"/>
     <use x="250.0" xlink:href="#DejaVuSans-31"/>
     <use x="313.623046875" xlink:href="#DejaVuSans-32"/>
    </g>
   </g>
   <g id="text_31">
    <g id="patch_20">
     <path d="
M338.255 229.799
L351.929 229.799
L351.929 195.411
L338.255 195.411
z
" style="fill:#ffffff;stroke:#ffffff;"/>
    </g>
    <!-- v0.4.0 -->
    <g transform="translate(347.850181101 227.799316875)rotate(-90.0)scale(0.09996 -0.09996)">
     <use xlink:href="#DejaVuSans-76"/>
     <use x="59.1796875" xlink:href="#DejaVuSans-30"/>
     <use x="122.802734375" xlink:href="#DejaVuSans-2e"/>
     <use x="154.58984375" xlink:href="#DejaVuSans-34"/>
     <use x="218.212890625" xlink:href="#DejaVuSans-2e"/>
     <use x="250.0" xlink:href="#DejaVuSans-30"/>
    </g>
   </g>
   <g id="text_32">
    <g id="patch_21">
     <path d="
M354.331 210.34
L368.005 210.34
L368.005 176.211
L354.331 176.211
z
" style="fill:#ffffff;stroke:#ffffff;"/>
    </g>
    <!-- v0.4.1 -->
    <g transform="translate(363.92638928 208.340045625)rotate(-90.0)scale(0.09996 -0.09996)">
     <use xlink:href="#DejaVuSans-76"/>
     <use x="59.1796875" xlink:href="#DejaVuSans-30"/>
     <use x="122.802734375" xlink:href="#DejaVuSans-2e"/>
     <use x="154.58984375" xlink:href="#DejaVuSans-34"/>
     <use x="218.212890625" xlink:href="#DejaVuSans-2e"/>
     <use x="250.0" xlink:href="#DejaVuSans-31"/>
    </g>
   </g>
   <g id="text_33">
    <g id="patch_22">
     <path d="
M368.851 229.462
L382.526 229.462
L382.526 195.411
L368.851 195.411
z
" style="fill:#ffffff;stroke:#ffffff;"/>
    </g>
    <!-- v0.4.2 -->
    <g transform="translate(378.446835376 227.461951875)rotate(-90.0)scale(0.09996 -0.09996)">
     <use xlink:href="#DejaVuSans-76"/>
     <use x="59.1796875" xlink:href="#DejaVuSans-30"/>
     <use x="122.802734375" xlink:href="#DejaVuSans-2e"/>
     <use x="154.58984375" xlink:href="#DejaVuSans-34"/>
     <use x="218.212890625" xlink:href="#DejaVuSans-2e"/>
     <use x="250.0" xlink:href="#DejaVuSans-32"/>
    </g>
   </g>
   <g id="text_34">
    <g id="patch_23">
     <path d="
M388.039 210.462
L401.713 210.462
L401.713 176.211
L388.039 176.211
z
" style="fill:#ffffff;stroke:#ffffff;"/>
    </g>
    <!-- v0.4.3 -->
    <g transform="translate(397.634567718 208.461871875)rotate(-90.0)scale(0.09996 -0.09996)">
     <use xlink:href="#DejaVuSans-76"/>
     <use x="59.1796875" xlink:href="#DejaVuSans-30"/>
     <use x="122.802734375" xlink:href="#DejaVuSans-2e"/>
     <use x="154.58984375" xlink:href="#DejaVuSans-34"/>
     <use x="218.212890625" xlink:href="#DejaVuSans-2e"/>
     <use x="250.0" xlink:href="#DejaVuSans-33"/>
    </g>
   </g>
   <g id="text_35">
    <g id="patch_24">
     <path d="
M421.747 229.59
L435.422 229.59
L435.422 195.411
L421.747 195.411
z
" style="fill:#ffffff;stroke:#ffffff;"/>
    </g>
    <!-- v0.4.5 -->
    <g transform="translate(431.342746157 227.590025625)rotate(-90.0)scale(0.09996 -0.09996)">
     <use xlink:href="#DejaVuSans-76"/>
     <use x="59.1796875" xlink:href="#DejaVuSans-30"/>
     <use x="122.802734375" xlink:href="#DejaVuSans-2e"/>
     <use x="154.58984375" xlink:href="#DejaVuSans-34"/>
     <use x="218.212890625" xlink:href="#DejaVuSans-2e"/>
     <use x="250.0" xlink:href="#DejaVuSans-35"/>
    </g>
   </g>
   <g id="text_36">
    <g id="patch_25">
     <path d="
M470.495 210.634
L484.169 210.634
L484.169 176.211
L470.495 176.211
z
" style="fill:#ffffff;stroke:#ffffff;"/>
    </g>
    <!-- v0.4.6 -->
    <g transform="translate(480.089958053 208.633678125)rotate(-90.0)scale(0.09996 -0.09996)">
     <use xlink:href="#DejaVuSans-76"/>
     <use x="59.1796875" xlink:href="#DejaVuSans-30"/>
     <use x="122.802734375" xlink:href="#DejaVuSans-2e"/>
     <use x="154.58984375" xlink:href="#DejaVuSans-34"/>
     <use x="218.212890625" xlink:href="#DejaVuSans-2e"/>
     <use x="250.0" xlink:href="#DejaVuSans-36"/>
    </g>
   </g>
   <g id="text_37">
    <g id="patch_26">
     <path d="
M517.686 229.609
L531.36 229.609
L531.36 195.411
L517.686 195.411
z
" style="fill:#ffffff;stroke:#ffffff;"/>
    </g>
    <!-- v0.4.7 -->
    <g transform="translate(527.281407867 227.608768125)rotate(-90.0)scale(0.09996 -0.09996)">
     <use xlink:href="#DejaVuSans-76"/>
     <use x="59.1796875" xlink:href="#DejaVuSans-30"/>
     <use x="122.802734375" xlink:href="#DejaVuSans-2e"/>
     <use x="154.58984375" xlink:href="#DejaVuSans-34"/>
     <use x="218.212890625" xlink:href="#DejaVuSans-2e"/>
     <use x="250.0" xlink:href="#DejaVuSans-37"/>
    </g>
   </g>
   <g id="text_38">
    <g id="patch_27">
     <path d="
M518.205 133.799
L531.879 133.799
L531.879 99.4115
L518.205 99.4115
z
" style="fill:#ffffff;stroke:#ffffff;"/>
    </g>
    <!-- v0.5.0 -->
    <g transform="translate(527.799995228 131.799316875)rotate(-90.0)scale(0.09996 -0.09996)">
     <use xlink:href="#DejaVuSans-76"/>
     <use x="59.1796875" xlink:href="#DejaVuSans-30"/>
     <use x="122.802734375" xlink:href="#DejaVuSans-2e"/>
     <use x="154.58984375" xlink:href="#DejaVuSans-35"/>
     <use x="218.212890625" xlink:href="#DejaVuSans-2e"/>
     <use x="250.0" xlink:href="#DejaVuSans-30"/>
    </g>
   </g>
   <g id="text_39">
    <g id="patch_28">
     <path d="
M604.809 114.34
L618.483 114.34
L618.483 80.2115
L604.809 80.2115
z
" style="fill:#ffffff;stroke:#ffffff;"/>
    </g>
    <!-- v0.5.1 -->
    <g transform="translate(614.404084447 112.340045625)rotate(-90.0)scale(0.09996 -0.09996)">
     <use xlink:href="#DejaVuSans-76"/>
     <use x="59.1796875" xlink:href="#DejaVuSans-30"/>
     <use x="122.802734375" xlink:href="#DejaVuSans-2e"/>
     <use x="154.58984375" xlink:href="#DejaVuSans-35"/>
     <use x="218.212890625" xlink:href="#DejaVuSans-2e"/>
     <use x="250.0" xlink:href="#DejaVuSans-31"/>
    </g>
   </g>
   <g id="legend_1">
    <g id="patch_29">
     <path d="
M61.2368 94.3649
L111.899 94.3649
L111.899 18.0049
L61.2368 18.0049
L61.2368 94.3649
z
" style="fill:#ffffff;stroke:#000000;"/>
    </g>
    <g id="line2d_60">
     <path d="
M68.234 26.1001
L82.2284 26.1001" style="fill:none;stroke:#ff0000;stroke-linecap:square;stroke-width:2;"/>
    </g>
    <g id="line2d_61"/>
    <g id="text_40">
     <!-- 0.2 -->
     <g transform="translate(93.22395 29.598673125)scale(0.09996 -0.09996)">
      <use xlink:href="#DejaVuSans-30"/>
      <use x="63.623046875" xlink:href="#DejaVuSans-2e"/>
      <use x="95.41015625" xlink:href="#DejaVuSans-32"/>
     </g>
    </g>
    <g id="line2d_62">
     <path d="
M68.234 40.7723
L82.2284 40.7723" style="fill:none;stroke:#008000;stroke-linecap:square;stroke-width:2;"/>
    </g>
    <g id="line2d_63"/>
    <g id="text_41">
     <!-- 0.3 -->
     <g transform="translate(93.22395 44.270926875)scale(0.09996 -0.09996)">
      <use xlink:href="#DejaVuSans-30"/>
      <use x="63.623046875" xlink:href="#DejaVuSans-2e"/>
      <use x="95.41015625" xlink:href="#DejaVuSans-33"/>
     </g>
    </g>
    <g id="line2d_64">
     <path d="
M68.234 55.4446
L82.2284 55.4446" style="fill:none;stroke:#0000ff;stroke-linecap:square;stroke-width:2;"/>
    </g>
    <g id="line2d_65"/>
    <g id="text_42">
     <!-- 0.4 -->
     <g transform="translate(93.22395 58.943180625)scale(0.09996 -0.09996)">
      <use xlink:href="#DejaVuSans-30"/>
      <use x="63.623046875" xlink:href="#DejaVuSans-2e"/>
      <use x="95.41015625" xlink:href="#DejaVuSans-34"/>
     </g>
    </g>
    <g id="line2d_66">
     <path d="
M68.234 70.1168
L82.2284 70.1168" style="fill:none;stroke:#000000;stroke-linecap:square;stroke-width:2;"/>
    </g>
    <g id="line2d_67"/>
    <g id="text_43">
     <!-- 0.5 -->
     <g transform="translate(93.22395 73.615434375)scale(0.09996 -0.09996)">
      <use xlink:href="#DejaVuSans-30"/>
      <use x="63.623046875" xlink:href="#DejaVuSans-2e"/>
      <use x="95.41015625" xlink:href="#DejaVuSans-35"/>
     </g>
    </g>
    <g id="line2d_68">
     <path d="
M68.234 84.7891
L82.2284 84.7891" style="fill:none;stroke:#bfbf00;stroke-linecap:square;stroke-width:2;"/>
    </g>
    <g id="line2d_69"/>
    <g id="text_44">
     <!-- 0.6 -->
     <g transform="translate(93.22395 88.287688125)scale(0.09996 -0.09996)">
      <use xlink:href="#DejaVuSans-30"/>
      <use x="63.623046875" xlink:href="#DejaVuSans-2e"/>
      <use x="95.41015625" xlink:href="#DejaVuSans-36"/>
     </g>
    </g>
   </g>
  </g>
 </g>
 <defs>
  <clipPath id="p472e73a826">
   <rect height="230.4" width="558.0" x="56.23875" y="13.006875"/>
  </clipPath>
 </defs>
</svg>
