<?xml version="1.0" encoding="utf-8" standalone="no"?>
<!DOCTYPE svg PUBLIC "-//W3C//DTD SVG 1.1//EN"
  "http://www.w3.org/Graphics/SVG/1.1/DTD/svg11.dtd">
<!-- Created with matplotlib (http://matplotlib.org/) -->
<svg height="311pt" version="1.1" viewBox="0 0 621 311" width="621pt" xmlns="http://www.w3.org/2000/svg" xmlns:xlink="http://www.w3.org/1999/xlink">
 <defs>
  <style type="text/css">
*{stroke-linecap:butt;stroke-linejoin:round;}
  </style>
 </defs>
 <g id="figure_1">
  <g id="patch_1">
   <path d="
M0 311.71
L621.439 311.71
L621.439 0
L0 0
z
" style="fill:#ffffff;"/>
  </g>
  <g id="axes_1">
   <g id="patch_2">
    <path d="
M56.2388 243.407
L614.239 243.407
L614.239 13.0069
L56.2388 13.0069
z
" style="fill:#ffffff;"/>
   </g>
   <g id="line2d_1">
    <path clip-path="url(#pd39b4832ff)" d="
M123.799 217.487
L123.299 217.487
L122.798 217.871
L122.298 217.871
L121.797 218.063
L121.297 218.447
L120.797 218.447
L119.796 218.063
L119.295 218.063
L118.795 218.639
L118.294 218.639
L117.293 218.639
L116.793 218.639
L115.792 218.831
L115.292 218.831
L114.791 218.831
L114.291 219.023
L113.79 219.023
L113.29 219.023
L112.789 219.215
L112.289 219.215
L110.788 219.215
L110.287 219.215
L109.787 219.215
L109.286 219.215
L108.285 219.599
L107.284 219.983
L106.784 219.983
L106.284 220.175
L105.783 220.367
L104.782 220.751
L104.282 220.751
L103.781 220.751
L103.281 220.943
L102.78 221.135
L102.28 221.519
L101.279 221.711
L100.779 221.711
L100.278 222.287
L99.7778 222.287
L99.2773 222.287
L98.7769 222.287
L98.2764 222.287
L97.776 222.671
L96.7751 222.671
L96.2746 222.863
L95.7742 222.863
L95.2737 222.863
L94.7733 222.863
L94.2728 222.863
L93.7724 223.247
L93.2719 223.439
L92.7715 223.631
L92.271 223.631
L89.2683 224.591
L88.7679 224.591
L88.2674 224.783
L87.767 224.783
L87.2666 224.975
L86.7661 224.975
L86.2657 224.975
L85.7652 224.975
L85.2648 224.975
L84.7643 224.975
L84.2639 224.975
L83.7634 224.975
L83.263 225.935
L82.7625 224.399
L82.2621 224.591
L81.7616 224.591
L81.2612 224.591
L80.2603 224.783
L79.7598 224.783
L79.2594 225.359
L78.7589 225.359
L78.2585 225.359
L77.758 225.359
L77.2576 225.359
L76.7571 225.359
L76.2567 225.359
L75.7562 225.359
L75.2558 225.359
L74.7553 225.551
L71.2522 225.743
L70.2513 225.743
L68.75 225.743
L65.2468 226.127
L64.7464 226.319
L63.7455 226.511
L63.245 226.511
L62.2441 226.703
L61.2432 226.895
L60.7428 226.895
L59.7419 226.895
L59.2414 226.895
L58.741 226.895
L58.2405 226.895
L57.7401 226.895
L57.2396 226.895
L56.7392 227.087
L56.2388 227.087" style="fill:none;stroke:#ff0000;stroke-linecap:square;stroke-width:2;"/>
   </g>
   <g id="line2d_2">
    <path clip-path="url(#pd39b4832ff)" d="
M510.145 148.367
L496.633 148.367
L496.133 148.559
L494.632 148.367
L489.127 148.367
L488.626 148.559
L488.126 148.367
L487.625 148.367
L487.125 148.559
L486.624 148.367
L485.123 148.367
L484.623 148.559
L482.12 148.559
L481.62 148.367
L475.615 148.367
L475.114 148.559
L474.614 148.367
L471.11 148.367
L470.61 148.559
L470.11 148.367
L469.609 148.559
L469.109 148.367
L463.103 148.367
L462.603 148.559
L461.602 148.559
L461.102 148.751
L460.101 148.559
L459.6 148.751
L459.1 148.559
L457.598 148.559
L457.098 148.751
L456.597 148.559
L453.595 148.559
L453.094 148.751
L452.594 148.559
L450.092 148.559
L449.591 148.751
L415.561 149.519
L407.554 149.903
L396.043 149.903
L393.041 150.287
L391.039 150.287
L380.529 150.479
L369.519 150.479
L363.014 151.055
L359.01 151.439
L354.506 151.439
L353.505 151.823
L351.503 151.439
L339.493 151.823
L337.991 152.207
L335.989 152.591
L333.988 152.783
L331.485 153.551
L329.484 154.511
L321.476 156.431
L318.974 156.815
L316.472 157.007
L314.971 157.391
L306.463 160.079
L297.955 161.999
L289.448 164.687
L288.947 164.687
L288.447 164.879
L287.946 165.263
L287.446 166.031
L286.945 166.415
L285.945 166.223
L284.944 166.607
L283.442 166.607
L282.942 166.799
L281.941 166.799
L281.441 167.183
L280.94 167.183
L280.44 167.567
L279.939 167.567
L278.438 167.375
L272.933 168.527
L271.932 168.527
L268.429 169.871
L267.428 169.871
L263.424 170.639
L262.924 171.023
L260.922 171.407
L256.919 172.751
L256.418 172.943
L255.918 173.519
L254.917 173.903
L253.916 173.903
L253.415 174.095
L251.414 174.479
L250.913 175.055
L250.413 175.247
L249.912 175.247
L248.911 176.207
L247.41 176.783
L245.408 176.783
L244.407 177.359
L243.406 177.359
L240.404 177.551
L239.903 178.127
L238.902 178.127
L232.897 178.319
L232.397 178.703
L231.896 178.511
L231.396 178.895
L230.895 178.895
L230.395 179.087
L229.894 179.471
L227.893 179.855
L225.39 179.855
L224.89 180.239
L223.889 180.239
L221.387 181.007
L218.884 182.159
L216.382 182.159
L214.881 182.543
L214.38 182.543
L212.379 183.695
L211.878 183.695
L211.378 183.311
L209.376 184.847
L208.876 185.039
L208.375 185.423
L207.374 185.999
L206.373 185.999
L205.873 186.191
L205.372 186.767
L204.872 186.767
L204.371 187.151
L202.37 187.151
L201.869 188.111
L201.369 188.111
L200.868 188.495
L198.867 189.839
L195.363 190.991
L192.861 192.335
L189.358 193.103
L188.357 193.487
L186.355 193.487
L185.855 193.679
L184.354 194.447
L182.352 195.023
L181.851 195.407
L180.85 195.407
L179.85 195.791
L178.849 195.791
L175.846 195.983
L173.844 196.943
L173.344 196.943
L172.843 197.519
L172.343 197.519
L171.842 197.711
L171.342 197.711
L170.841 198.095
L168.339 199.055
L166.838 199.055
L166.337 199.247
L165.837 199.247
L165.337 199.439
L164.336 199.439
L163.835 199.631
L163.335 199.631
L162.834 199.823
L162.334 200.207
L161.833 200.207
L161.333 200.399
L160.832 200.399
L160.332 200.591
L159.331 200.591
L158.831 200.975
L158.33 201.167
L156.829 201.167
L155.828 201.551
L155.328 201.551
L154.827 201.935
L153.826 201.935
L153.326 202.127
L152.825 202.511
L152.325 202.511
L150.824 202.895
L150.323 203.279
L149.823 203.279
L149.322 199.823
L148.822 203.663
L148.321 204.047
L147.821 204.047
L147.32 204.239
L145.819 204.047
L145.319 204.239
L144.318 204.239
L143.317 204.623
L141.315 204.623
L140.815 206.159
L139.814 206.159
L139.313 206.543
L138.312 206.927
L136.811 208.079
L133.808 208.079
L132.807 208.463
L132.307 209.039
L131.306 206.735
L130.305 207.119
L129.805 207.695
L128.804 207.695
L128.303 207.887
L127.803 207.887
L126.802 208.463
L125.801 208.463
L124.8 208.847
L124.3 208.847
L123.799 209.231
L121.797 209.999
L121.297 210.383
L120.797 210.383
L119.295 210.575
L118.795 211.151
L118.294 211.343
L115.792 211.343
L114.291 211.919
L113.29 211.919
L112.789 212.111
L112.289 212.111
L109.286 212.495
L108.285 213.071
L107.284 214.031
L106.284 214.031
L105.783 214.607
L104.782 214.799
L104.282 215.183
L103.781 215.183
L102.78 215.567
L102.28 215.951
L100.779 216.143
L100.278 216.719
L98.2764 216.719
L97.776 217.103
L96.7751 217.103
L95.7742 217.487
L95.2737 217.487
L94.7733 217.871
L94.2728 217.871
L93.7724 218.255
L88.2674 220.367
L87.767 228.239
L87.2666 220.559
L86.7661 220.559
L86.2657 220.751
L84.2639 220.751
L83.7634 220.943
L82.7625 220.943
L82.2621 221.327
L81.2612 221.327
L80.2603 221.519
L79.7598 222.095
L75.7562 222.095
L75.2558 222.287
L74.7553 222.671
L70.2513 222.863
L68.75 222.863
L64.7464 223.823
L63.245 223.823
L62.2441 224.207
L58.741 224.783
L57.2396 224.783
L56.7392 224.975
L56.2388 224.975
L56.2388 224.975" style="fill:none;stroke:#008000;stroke-linecap:square;stroke-width:2;"/>
   </g>
   <g id="line2d_3">
    <path clip-path="url(#pd39b4832ff)" d="
M614.239 70.4149
L611.737 70.4149
L608.233 70.7989
L607.733 70.9909
L607.232 70.7989
L606.232 70.7989
L605.731 70.9909
L604.23 70.9909
L603.729 71.1829
L603.229 70.9909
L600.226 70.9909
L599.726 71.1829
L595.222 71.1829
L594.721 71.3749
L594.221 71.3749
L593.22 71.5669
L590.718 71.1829
L588.215 71.1829
L587.715 71.3749
L582.21 71.3749
L559.69 71.7589
L557.688 72.1429
L556.187 72.1429
L555.686 72.3349
L553.184 71.9509
L552.684 72.1429
L549.681 72.1429
L547.679 72.9109
L546.678 72.9109
L546.178 73.8709
L543.676 72.9109
L541.173 72.9109
L537.67 73.2949
L536.169 73.2949
L535.168 73.4869
L530.664 73.4869
L530.163 74.0629
L529.663 74.4469
L529.163 74.6389
L527.661 74.4469
L527.161 74.8309
L522.156 75.2149
L521.155 75.5989
L518.653 75.5989
L517.652 75.9829
L516.651 75.9829
L515.65 76.3669
L511.647 76.3669
L511.146 76.5589
L510.646 77.1349
L509.145 77.7109
L508.644 78.4789
L507.643 78.4789
L507.143 78.6709
L506.642 78.6709
L505.641 79.0549
L505.141 79.6309
L504.14 80.0149
L503.64 80.0149
L503.139 80.3989
L502.138 80.3989
L501.638 80.5909
L501.137 80.5909
L500.637 80.9749
L499.636 81.3589
L499.136 81.7429
L498.135 81.7429
L497.134 82.1269
L496.133 82.1269
L495.132 82.5109
L494.632 83.0869
L494.131 83.2789
L493.631 83.6629
L493.13 83.6629
L492.63 83.8549
L492.129 83.8549
L491.629 84.0469
L491.128 84.0469
L489.627 84.6229
L487.125 84.6229
L486.624 85.0069
L486.124 85.0069
L485.624 85.3909
L485.123 85.3909
L484.623 85.7749
L484.122 85.7749
L483.622 85.5829
L483.121 85.5829
L482.12 86.3509
L481.62 86.5429
L481.119 87.1189
L480.619 87.5029
L479.118 87.3109
L478.617 87.6949
L477.616 88.0789
L477.116 88.0789
L476.615 88.2709
L476.115 88.2709
L474.113 89.0389
L473.112 89.2309
L472.612 89.6149
L472.111 89.6149
L471.611 89.8069
L471.11 89.6149
L470.61 89.6149
L469.609 89.9989
L469.109 89.9989
L468.108 90.3829
L467.607 90.1909
L467.107 90.1909
L466.106 90.5749
L465.606 90.5749
L465.105 90.7669
L464.605 90.7669
L463.103 91.3429
L462.603 92.1109
L462.102 92.1109
L461.602 92.3029
L461.102 92.8789
L459.6 93.2629
L458.599 93.6469
L457.598 93.6469
L457.098 93.8389
L456.597 93.8389
L455.096 94.4149
L454.596 94.2229
L454.095 94.4149
L453.595 94.4149
L452.594 95.5669
L452.093 95.5669
L451.593 95.7589
L451.093 95.5669
L450.592 95.7589
L450.092 96.1429
L449.591 96.3349
L441.584 100.751
L415.561 113.231
L407.554 119.375
L396.043 123.215
L393.041 125.135
L391.039 126.863
L380.529 130.511
L369.519 133.775
L367.017 134.351
L363.014 136.079
L359.51 137.039
L359.01 137.039
L354.506 137.807
L353.505 138.575
L351.503 138.767
L345.498 140.879
L339.493 145.103
L337.991 145.679
L335.989 146.639
L333.988 141.839
L331.485 143.567
L329.484 144.719
L321.476 148.367
L318.974 149.711
L314.971 150.863
L306.463 155.663
L301.959 156.623
L297.955 157.775
L289.448 160.655
L288.947 160.655
L288.447 160.847
L287.946 161.231
L287.446 161.999
L286.945 162.383
L285.945 162.383
L284.944 162.767
L283.442 162.959
L282.942 163.151
L281.941 163.151
L281.441 163.727
L280.94 163.727
L280.44 164.111
L278.438 164.111
L272.933 165.839
L271.932 165.839
L270.931 166.223
L270.431 166.607
L269.93 166.799
L268.429 167.567
L267.428 167.567
L263.424 168.143
L262.924 168.527
L260.922 168.911
L256.919 170.255
L256.418 170.447
L255.918 171.023
L254.917 171.407
L253.916 171.407
L253.415 171.791
L251.414 172.175
L250.913 172.559
L250.413 172.751
L249.912 172.751
L248.411 174.287
L247.41 174.671
L245.408 175.055
L244.407 175.631
L243.406 175.823
L240.404 176.015
L239.903 176.591
L238.902 176.591
L232.897 177.359
L232.397 177.743
L231.896 177.551
L231.396 177.935
L230.395 177.935
L229.894 178.319
L226.892 178.511
L225.891 178.895
L225.39 178.895
L224.89 179.279
L223.889 179.279
L221.387 181.007
L218.884 181.199
L216.382 181.199
L214.881 181.583
L214.38 181.583
L212.379 182.735
L211.878 182.159
L211.378 182.159
L209.376 183.695
L208.876 183.887
L208.375 184.463
L207.374 185.039
L206.373 185.039
L205.873 185.231
L205.372 185.807
L204.872 185.807
L204.371 185.999
L202.87 186.191
L202.37 186.191
L201.869 187.343
L201.369 187.343
L200.868 187.727
L198.867 189.071
L195.363 190.415
L193.862 190.799
L192.861 191.567
L189.358 192.335
L188.357 192.719
L185.855 192.719
L184.854 193.487
L184.354 193.679
L182.852 193.871
L181.851 194.639
L180.85 194.639
L180.35 194.831
L179.85 195.215
L178.849 195.215
L175.846 195.407
L173.844 196.367
L173.344 196.367
L172.843 196.943
L172.343 196.943
L171.842 197.135
L171.342 197.135
L170.841 197.519
L168.339 198.671
L166.838 198.671
L165.837 199.055
L164.336 199.055
L163.835 199.247
L163.335 199.247
L162.834 199.439
L162.334 199.823
L161.833 199.823
L161.333 200.015
L160.832 200.015
L160.332 200.207
L159.331 200.207
L158.33 200.975
L156.829 200.975
L155.828 201.359
L155.328 201.359
L154.827 201.743
L153.826 201.743
L153.326 201.935
L152.825 202.319
L152.325 202.319
L150.824 202.703
L150.323 203.087
L149.322 203.087
L148.321 203.855
L147.821 203.855
L147.32 204.047
L145.819 203.855
L145.319 204.047
L144.318 204.047
L143.817 204.239
L143.317 204.239
L141.815 204.431
L141.315 204.431
L140.815 205.967
L139.814 205.967
L139.313 206.351
L138.312 206.735
L136.811 207.887
L133.808 207.887
L132.807 208.271
L132.307 208.847
L131.306 209.231
L130.806 209.231
L130.305 209.615
L129.805 210.191
L128.804 210.191
L128.303 210.383
L127.803 210.383
L126.802 210.959
L125.801 210.959
L124.8 211.343
L124.3 211.919
L124.3 211.919" style="fill:none;stroke:#0000ff;stroke-linecap:square;stroke-width:2;"/>
   </g>
   <g id="line2d_4">
    <path clip-path="url(#pd39b4832ff)" d="
M614.239 30.0949
L613.238 30.4789
L612.737 30.4789
L612.237 31.0549
L611.737 31.0549
L608.233 33.1669
L607.733 33.7429
L607.232 33.5509
L606.732 33.5509
L606.232 33.7429
L605.731 34.3189
L605.231 34.7029
L604.73 34.5109
L604.23 34.8949
L603.729 35.8549
L603.229 35.8549
L602.228 36.2389
L601.227 36.2389
L600.727 36.6229
L600.226 36.6229
L599.726 37.0069
L599.225 37.5829
L598.725 37.1989
L598.224 37.1989
L597.724 37.5829
L597.224 38.7349
L596.723 38.9269
L596.223 38.7349
L595.722 38.9269
L595.222 38.7349
L594.721 39.3109
L594.221 39.5029
L593.22 39.3109
L590.718 39.1189
L590.217 39.8869
L589.216 40.8469
L588.716 41.8069
L588.215 41.9989
L587.715 42.3829
L586.714 42.5749
L586.214 42.9589
L582.21 43.3429
L563.693 50.8309
L561.191 50.8309
L560.691 51.7909
L559.69 51.7909
L557.688 52.5589
L556.187 52.5589
L555.686 53.3269
L553.184 53.7109
L552.684 54.8629
L551.683 55.2469
L551.182 56.3989
L549.681 56.3989
L549.18 56.5909
L547.679 57.9349
L546.678 57.9349
L546.178 59.0869
L543.676 57.9349
L543.175 57.9349
L542.675 58.1269
L542.174 58.1269
L541.674 57.9349
L541.173 58.1269
L539.672 58.8949
L538.171 59.0869
L537.67 59.0869
L536.669 59.2789
L536.169 59.0869
L535.168 59.4709
L534.167 60.2389
L533.667 61.1989
L532.666 60.8149
L531.665 61.1989
L531.164 61.9669
L530.664 62.1589
L530.163 62.7349
L529.663 63.6949
L529.163 64.0789
L527.661 64.2709
L527.161 65.8069
L521.155 68.1109
L520.655 68.1109
L519.654 68.8789
L518.653 68.8789
L517.652 70.2229
L516.651 70.2229
L516.151 70.4149
L515.65 70.7989
L514.65 71.1829
L514.149 71.9509
L513.649 71.9509
L513.148 72.1429
L512.648 72.5269
L511.647 72.9109
L511.146 73.4869
L510.646 74.2549
L510.145 74.2549
L509.645 74.6389
L509.145 74.8309
L508.644 72.3349
L507.643 72.1429
L507.143 72.3349
L506.142 73.1029
L505.641 73.2949
L505.141 75.4069
L504.641 76.1749
L503.139 76.7509
L502.639 77.3269
L502.138 77.1349
L501.638 77.1349
L501.137 75.7909
L500.637 76.1749
L500.137 76.9429
L499.636 76.9429
L499.136 77.5189
L498.635 77.7109
L498.135 77.5189
L496.133 78.2869
L495.132 78.8629
L494.632 79.6309
L494.131 79.6309
L493.631 80.0149
L493.13 80.0149
L491.629 80.5909
L491.128 80.5909
L490.128 81.5509
L489.627 81.5509
L489.127 81.7429
L488.626 81.5509
L487.125 81.5509
L486.624 81.9349
L486.124 83.2789
L485.624 82.3189
L485.123 82.5109
L484.623 82.8949
L483.622 83.2789
L483.121 83.2789
L482.12 84.8149
L481.62 84.8149
L481.119 85.3909
L480.619 85.7749
L479.118 85.5829
L478.617 85.9669
L478.117 86.5429
L477.616 86.7349
L477.116 86.7349
L476.615 86.9269
L476.115 86.9269
L475.615 87.1189
L475.114 87.5029
L474.614 87.5029
L474.113 87.6949
L473.112 87.8869
L472.612 88.4629
L471.611 88.4629
L471.11 88.2709
L470.11 88.6549
L469.109 88.6549
L468.608 88.8469
L468.108 88.8469
L467.607 89.0389
L467.107 89.0389
L465.105 89.8069
L464.605 89.8069
L463.604 90.5749
L463.103 90.5749
L462.603 91.3429
L462.102 91.3429
L461.602 91.5349
L461.102 91.9189
L458.599 92.8789
L457.598 92.8789
L457.098 93.0709
L456.597 93.0709
L455.597 93.4549
L455.096 93.4549
L454.596 93.6469
L454.095 93.4549
L453.595 93.6469
L452.594 94.7989
L451.093 94.7989
L450.592 94.9909
L450.092 95.3749
L449.591 95.5669
L415.561 113.423
L407.554 119.375
L396.043 123.407
L393.041 125.135
L391.039 126.863
L380.529 130.703
L369.519 133.775
L367.017 134.351
L363.514 135.503
L363.014 135.887
L359.51 136.847
L359.01 136.847
L359.01 136.847" style="fill:none;stroke:#000000;stroke-linecap:square;stroke-width:2;"/>
   </g>
   <g id="line2d_5">
    <path clip-path="url(#pd39b4832ff)" d="
M614.239 30.6709
L613.738 31.0549
L613.238 31.4389
L612.737 31.4389
L612.237 31.4389
L611.737 32.0149
L608.233 34.1269
L607.733 34.1269
L607.232 34.7029
L606.732 34.5109
L606.232 34.3189
L605.731 35.0869
L605.231 35.0869
L604.73 35.2789
L604.23 35.8549
L603.729 36.6229
L603.229 36.8149
L602.728 37.5829
L602.228 37.0069
L601.728 37.0069
L601.227 37.0069
L600.727 37.3909
L600.226 37.3909
L599.726 37.9669
L599.225 38.1589
L598.725 38.1589
L598.224 38.3509
L597.724 38.5429
L597.224 40.2709
L596.723 39.6949
L596.223 39.8869
L595.722 40.0789
L595.222 39.3109
L594.721 39.6949
L594.221 39.8869
L593.22 40.2709
L591.218 39.8869
L590.718 40.0789
L590.217 40.6549
L589.216 41.4229
L588.716 42.9589
L588.215 42.9589
L587.715 43.3429
L586.714 43.5349
L586.214 43.7269
L582.21 44.3029
L563.693 51.7909
L563.193 51.7909
L562.693 51.7909
L562.192 51.7909
L561.692 51.7909
L561.191 51.7909
L560.691 52.7509
L559.69 52.9429
L557.688 53.3269
L556.187 53.5189
L555.686 54.2869
L553.184 54.2869
L552.684 55.6309
L552.183 55.8229
L551.683 56.0149
L551.182 57.1669
L550.682 57.1669
L549.681 57.1669
L549.18 57.5509
L547.679 58.5109
L547.179 58.5109
L546.678 58.7029
L546.178 59.4709
L543.676 58.7029
L543.175 58.8949
L542.675 58.7029
L542.174 58.7029
L541.674 58.7029
L541.173 58.7029
L539.672 59.6629
L538.671 59.8549
L538.171 59.8549
L537.67 59.8549
L536.669 59.8549
L536.169 59.8549
L535.168 60.2389
L534.167 61.0069
L533.667 61.5829
L532.666 61.5829
L531.665 61.9669
L531.164 62.5429
L530.664 62.5429
L530.163 63.3109
L529.663 64.2709
L529.163 64.8469
L528.162 64.8469
L527.661 64.8469
L527.161 66.5749
L522.156 68.8789
L521.155 69.0709
L520.655 69.0709
L520.154 69.4549
L519.654 69.8389
L519.154 69.8389
L518.653 69.8389
L518.153 70.6069
L517.652 71.1829
L516.651 71.1829
L516.151 71.1829
L515.65 71.7589
L515.15 71.9509
L514.65 72.1429
L514.149 72.9109
L513.649 73.1029
L513.148 73.2949
L512.648 73.4869
L512.147 73.6789
L511.647 73.8709
L511.146 74.4469
L510.646 75.0229" style="fill:none;stroke:#bfbf00;stroke-linecap:square;stroke-width:2;"/>
   </g>
   <g id="line2d_6">
    <path clip-path="url(#pd39b4832ff)" d="
M127.803 243.407
L127.803 13.0069" style="fill:none;stroke:#333333;stroke-linecap:square;"/>
   </g>
   <g id="line2d_7">
    <path clip-path="url(#pd39b4832ff)" d="
M143.817 243.407
L143.817 13.0069" style="fill:none;stroke:#cccccc;stroke-linecap:square;"/>
   </g>
   <g id="line2d_8">
    <path clip-path="url(#pd39b4832ff)" d="
M158.831 243.407
L158.831 13.0069" style="fill:none;stroke:#cccccc;stroke-linecap:square;"/>
   </g>
   <g id="line2d_9">
    <path clip-path="url(#pd39b4832ff)" d="
M175.345 243.407
L175.345 13.0069" style="fill:none;stroke:#cccccc;stroke-linecap:square;"/>
   </g>
   <g id="line2d_10">
    <path clip-path="url(#pd39b4832ff)" d="
M191.86 243.407
L191.86 13.0069" style="fill:none;stroke:#cccccc;stroke-linecap:square;"/>
   </g>
   <g id="line2d_11">
    <path clip-path="url(#pd39b4832ff)" d="
M198.366 243.407
L198.366 13.0069" style="fill:none;stroke:#cccccc;stroke-linecap:square;"/>
   </g>
   <g id="line2d_12">
    <path clip-path="url(#pd39b4832ff)" d="
M218.384 243.407
L218.384 13.0069" style="fill:none;stroke:#cccccc;stroke-linecap:square;"/>
   </g>
   <g id="line2d_13">
    <path clip-path="url(#pd39b4832ff)" d="
M235.399 243.407
L235.399 13.0069" style="fill:none;stroke:#cccccc;stroke-linecap:square;"/>
   </g>
   <g id="line2d_14">
    <path clip-path="url(#pd39b4832ff)" d="
M254.416 243.407
L254.416 13.0069" style="fill:none;stroke:#cccccc;stroke-linecap:square;"/>
   </g>
   <g id="line2d_15">
    <path clip-path="url(#pd39b4832ff)" d="
M269.43 243.407
L269.43 13.0069" style="fill:none;stroke:#cccccc;stroke-linecap:square;"/>
   </g>
   <g id="line2d_16">
    <path clip-path="url(#pd39b4832ff)" d="
M281.941 243.407
L281.941 13.0069" style="fill:none;stroke:#cccccc;stroke-linecap:square;"/>
   </g>
   <g id="line2d_17">
    <path clip-path="url(#pd39b4832ff)" d="
M298.456 243.407
L298.456 13.0069" style="fill:none;stroke:#cccccc;stroke-linecap:square;"/>
   </g>
   <g id="line2d_18">
    <path clip-path="url(#pd39b4832ff)" d="
M343.997 243.407
L343.997 13.0069" style="fill:none;stroke:#cccccc;stroke-linecap:square;"/>
   </g>
   <g id="line2d_19">
    <path clip-path="url(#pd39b4832ff)" d="
M334.989 243.407
L334.989 13.0069" style="fill:none;stroke:#333333;stroke-linecap:square;"/>
   </g>
   <g id="line2d_20">
    <path clip-path="url(#pd39b4832ff)" d="
M350.502 243.407
L350.502 13.0069" style="fill:none;stroke:#cccccc;stroke-linecap:square;"/>
   </g>
   <g id="line2d_21">
    <path clip-path="url(#pd39b4832ff)" d="
M364.515 243.407
L364.515 13.0069" style="fill:none;stroke:#cccccc;stroke-linecap:square;"/>
   </g>
   <g id="line2d_22">
    <path clip-path="url(#pd39b4832ff)" d="
M383.032 243.407
L383.032 13.0069" style="fill:none;stroke:#cccccc;stroke-linecap:square;"/>
   </g>
   <g id="line2d_23">
    <path clip-path="url(#pd39b4832ff)" d="
M415.561 243.407
L415.561 13.0069" style="fill:none;stroke:#cccccc;stroke-linecap:square;"/>
   </g>
   <g id="line2d_24">
    <path clip-path="url(#pd39b4832ff)" d="
M462.603 243.407
L462.603 13.0069" style="fill:none;stroke:#cccccc;stroke-linecap:square;"/>
   </g>
   <g id="line2d_25">
    <path clip-path="url(#pd39b4832ff)" d="
M508.144 243.407
L508.144 13.0069" style="fill:none;stroke:#cccccc;stroke-linecap:square;"/>
   </g>
   <g id="line2d_26">
    <path clip-path="url(#pd39b4832ff)" d="
M508.644 243.407
L508.644 13.0069" style="fill:none;stroke:#333333;stroke-linecap:square;"/>
   </g>
   <g id="line2d_27">
    <path clip-path="url(#pd39b4832ff)" d="
M592.219 243.407
L592.219 13.0069" style="fill:none;stroke:#cccccc;stroke-linecap:square;"/>
   </g>
   <g id="matplotlib.axis_1">
    <g id="xtick_1">
     <g id="line2d_28">
      <defs>
       <path d="
M0 0
L0 -4" id="m93b0483c22" style="stroke:#000000;stroke-width:0.5;"/>
      </defs>
      <g>
       <use style="stroke:#000000;stroke-width:0.5;" x="102.780454036" xlink:href="#m93b0483c22" y="243.406875"/>
      </g>
     </g>
     <g id="line2d_29">
      <defs>
       <path d="
M0 0
L0 4" id="m741efc42ff" style="stroke:#000000;stroke-width:0.5;"/>
      </defs>
      <g>
       <use style="stroke:#000000;stroke-width:0.5;" x="102.780454036" xlink:href="#m741efc42ff" y="13.006875"/>
      </g>
     </g>
     <g id="text_1">
      <!-- Jul 2014 -->
      <defs>
       <path d="
M9.8125 72.9062
L19.6719 72.9062
L19.6719 5.07812
Q19.6719 -8.10938 14.6719 -14.0625
Q9.67188 -20.0156 -1.42188 -20.0156
L-5.17188 -20.0156
L-5.17188 -11.7188
L-2.09375 -11.7188
Q4.4375 -11.7188 7.125 -8.04688
Q9.8125 -4.39062 9.8125 5.07812
z
" id="DejaVuSans-4a"/>
       <path d="
M9.42188 75.9844
L18.4062 75.9844
L18.4062 0
L9.42188 0
z
" id="DejaVuSans-6c"/>
       <path d="
M12.4062 8.29688
L28.5156 8.29688
L28.5156 63.9219
L10.9844 60.4062
L10.9844 69.3906
L28.4219 72.9062
L38.2812 72.9062
L38.2812 8.29688
L54.3906 8.29688
L54.3906 0
L12.4062 0
z
" id="DejaVuSans-31"/>
       <path d="
M31.7812 66.4062
Q24.1719 66.4062 20.3281 58.9062
Q16.5 51.4219 16.5 36.375
Q16.5 21.3906 20.3281 13.8906
Q24.1719 6.39062 31.7812 6.39062
Q39.4531 6.39062 43.2812 13.8906
Q47.125 21.3906 47.125 36.375
Q47.125 51.4219 43.2812 58.9062
Q39.4531 66.4062 31.7812 66.4062
M31.7812 74.2188
Q44.0469 74.2188 50.5156 64.5156
Q56.9844 54.8281 56.9844 36.375
Q56.9844 17.9688 50.5156 8.26562
Q44.0469 -1.42188 31.7812 -1.42188
Q19.5312 -1.42188 13.0625 8.26562
Q6.59375 17.9688 6.59375 36.375
Q6.59375 54.8281 13.0625 64.5156
Q19.5312 74.2188 31.7812 74.2188" id="DejaVuSans-30"/>
       <path id="DejaVuSans-20"/>
       <path d="
M19.1875 8.29688
L53.6094 8.29688
L53.6094 0
L7.32812 0
L7.32812 8.29688
Q12.9375 14.1094 22.625 23.8906
Q32.3281 33.6875 34.8125 36.5312
Q39.5469 41.8438 41.4219 45.5312
Q43.3125 49.2188 43.3125 52.7812
Q43.3125 58.5938 39.2344 62.25
Q35.1562 65.9219 28.6094 65.9219
Q23.9688 65.9219 18.8125 64.3125
Q13.6719 62.7031 7.8125 59.4219
L7.8125 69.3906
Q13.7656 71.7812 18.9375 73
Q24.125 74.2188 28.4219 74.2188
Q39.75 74.2188 46.4844 68.5469
Q53.2188 62.8906 53.2188 53.4219
Q53.2188 48.9219 51.5312 44.8906
Q49.8594 40.875 45.4062 35.4062
Q44.1875 33.9844 37.6406 27.2188
Q31.1094 20.4531 19.1875 8.29688" id="DejaVuSans-32"/>
       <path d="
M37.7969 64.3125
L12.8906 25.3906
L37.7969 25.3906
z

M35.2031 72.9062
L47.6094 72.9062
L47.6094 25.3906
L58.0156 25.3906
L58.0156 17.1875
L47.6094 17.1875
L47.6094 0
L37.7969 0
L37.7969 17.1875
L4.89062 17.1875
L4.89062 26.7031
z
" id="DejaVuSans-34"/>
       <path d="
M8.5 21.5781
L8.5 54.6875
L17.4844 54.6875
L17.4844 21.9219
Q17.4844 14.1562 20.5 10.2656
Q23.5312 6.39062 29.5938 6.39062
Q36.8594 6.39062 41.0781 11.0312
Q45.3125 15.6719 45.3125 23.6875
L45.3125 54.6875
L54.2969 54.6875
L54.2969 0
L45.3125 0
L45.3125 8.40625
Q42.0469 3.42188 37.7188 1
Q33.4062 -1.42188 27.6875 -1.42188
Q18.2656 -1.42188 13.375 4.4375
Q8.5 10.2969 8.5 21.5781
M31.1094 56
z
" id="DejaVuSans-75"/>
      </defs>
      <g transform="translate(106.091704036 296.186875)rotate(-90.0)scale(0.12 -0.12)">
       <use xlink:href="#DejaVuSans-4a"/>
       <use x="29.4921875" xlink:href="#DejaVuSans-75"/>
       <use x="92.87109375" xlink:href="#DejaVuSans-6c"/>
       <use x="120.654296875" xlink:href="#DejaVuSans-20"/>
       <use x="152.44140625" xlink:href="#DejaVuSans-32"/>
       <use x="216.064453125" xlink:href="#DejaVuSans-30"/>
       <use x="279.6875" xlink:href="#DejaVuSans-31"/>
       <use x="343.310546875" xlink:href="#DejaVuSans-34"/>
      </g>
     </g>
    </g>
    <g id="xtick_2">
     <g id="line2d_30">
      <g>
       <use style="stroke:#000000;stroke-width:0.5;" x="164.335610987" xlink:href="#m93b0483c22" y="243.406875"/>
      </g>
     </g>
     <g id="line2d_31">
      <g>
       <use style="stroke:#000000;stroke-width:0.5;" x="164.335610987" xlink:href="#m741efc42ff" y="13.006875"/>
      </g>
     </g>
     <g id="text_2">
      <!-- Nov 2014 -->
      <defs>
       <path d="
M30.6094 48.3906
Q23.3906 48.3906 19.1875 42.75
Q14.9844 37.1094 14.9844 27.2969
Q14.9844 17.4844 19.1562 11.8438
Q23.3438 6.20312 30.6094 6.20312
Q37.7969 6.20312 41.9844 11.8594
Q46.1875 17.5312 46.1875 27.2969
Q46.1875 37.0156 41.9844 42.7031
Q37.7969 48.3906 30.6094 48.3906
M30.6094 56
Q42.3281 56 49.0156 48.375
Q55.7188 40.7656 55.7188 27.2969
Q55.7188 13.875 49.0156 6.21875
Q42.3281 -1.42188 30.6094 -1.42188
Q18.8438 -1.42188 12.1719 6.21875
Q5.51562 13.875 5.51562 27.2969
Q5.51562 40.7656 12.1719 48.375
Q18.8438 56 30.6094 56" id="DejaVuSans-6f"/>
       <path d="
M9.8125 72.9062
L23.0938 72.9062
L55.4219 11.9219
L55.4219 72.9062
L64.9844 72.9062
L64.9844 0
L51.7031 0
L19.3906 60.9844
L19.3906 0
L9.8125 0
z
" id="DejaVuSans-4e"/>
       <path d="
M2.98438 54.6875
L12.5 54.6875
L29.5938 8.79688
L46.6875 54.6875
L56.2031 54.6875
L35.6875 0
L23.4844 0
z
" id="DejaVuSans-76"/>
      </defs>
      <g transform="translate(167.646860987 304.51)rotate(-90.0)scale(0.12 -0.12)">
       <use xlink:href="#DejaVuSans-4e"/>
       <use x="74.8046875" xlink:href="#DejaVuSans-6f"/>
       <use x="135.986328125" xlink:href="#DejaVuSans-76"/>
       <use x="195.166015625" xlink:href="#DejaVuSans-20"/>
       <use x="226.953125" xlink:href="#DejaVuSans-32"/>
       <use x="290.576171875" xlink:href="#DejaVuSans-30"/>
       <use x="354.19921875" xlink:href="#DejaVuSans-31"/>
       <use x="417.822265625" xlink:href="#DejaVuSans-34"/>
      </g>
     </g>
    </g>
    <g id="xtick_3">
     <g id="line2d_32">
      <g>
       <use style="stroke:#000000;stroke-width:0.5;" x="224.389422646" xlink:href="#m93b0483c22" y="243.406875"/>
      </g>
     </g>
     <g id="line2d_33">
      <g>
       <use style="stroke:#000000;stroke-width:0.5;" x="224.389422646" xlink:href="#m741efc42ff" y="13.006875"/>
      </g>
     </g>
     <g id="text_3">
      <!-- Mar 2015 -->
      <defs>
       <path d="
M9.8125 72.9062
L24.5156 72.9062
L43.1094 23.2969
L61.8125 72.9062
L76.5156 72.9062
L76.5156 0
L66.8906 0
L66.8906 64.0156
L48.0938 14.0156
L38.1875 14.0156
L19.3906 64.0156
L19.3906 0
L9.8125 0
z
" id="DejaVuSans-4d"/>
       <path d="
M41.1094 46.2969
Q39.5938 47.1719 37.8125 47.5781
Q36.0312 48 33.8906 48
Q26.2656 48 22.1875 43.0469
Q18.1094 38.0938 18.1094 28.8125
L18.1094 0
L9.07812 0
L9.07812 54.6875
L18.1094 54.6875
L18.1094 46.1875
Q20.9531 51.1719 25.4844 53.5781
Q30.0312 56 36.5312 56
Q37.4531 56 38.5781 55.875
Q39.7031 55.7656 41.0625 55.5156
z
" id="DejaVuSans-72"/>
       <path d="
M10.7969 72.9062
L49.5156 72.9062
L49.5156 64.5938
L19.8281 64.5938
L19.8281 46.7344
Q21.9688 47.4688 24.1094 47.8281
Q26.2656 48.1875 28.4219 48.1875
Q40.625 48.1875 47.75 41.5
Q54.8906 34.8125 54.8906 23.3906
Q54.8906 11.625 47.5625 5.09375
Q40.2344 -1.42188 26.9062 -1.42188
Q22.3125 -1.42188 17.5469 -0.640625
Q12.7969 0.140625 7.71875 1.70312
L7.71875 11.625
Q12.1094 9.23438 16.7969 8.0625
Q21.4844 6.89062 26.7031 6.89062
Q35.1562 6.89062 40.0781 11.3281
Q45.0156 15.7656 45.0156 23.3906
Q45.0156 31 40.0781 35.4375
Q35.1562 39.8906 26.7031 39.8906
Q22.75 39.8906 18.8125 39.0156
Q14.8906 38.1406 10.7969 36.2812
z
" id="DejaVuSans-35"/>
       <path d="
M34.2812 27.4844
Q23.3906 27.4844 19.1875 25
Q14.9844 22.5156 14.9844 16.5
Q14.9844 11.7188 18.1406 8.90625
Q21.2969 6.10938 26.7031 6.10938
Q34.1875 6.10938 38.7031 11.4062
Q43.2188 16.7031 43.2188 25.4844
L43.2188 27.4844
z

M52.2031 31.2031
L52.2031 0
L43.2188 0
L43.2188 8.29688
Q40.1406 3.32812 35.5469 0.953125
Q30.9531 -1.42188 24.3125 -1.42188
Q15.9219 -1.42188 10.9531 3.29688
Q6 8.01562 6 15.9219
Q6 25.1406 12.1719 29.8281
Q18.3594 34.5156 30.6094 34.5156
L43.2188 34.5156
L43.2188 35.4062
Q43.2188 41.6094 39.1406 45
Q35.0625 48.3906 27.6875 48.3906
Q23 48.3906 18.5469 47.2656
Q14.1094 46.1406 10.0156 43.8906
L10.0156 52.2031
Q14.9375 54.1094 19.5781 55.0469
Q24.2188 56 28.6094 56
Q40.4844 56 46.3438 49.8438
Q52.2031 43.7031 52.2031 31.2031" id="DejaVuSans-61"/>
      </defs>
      <g transform="translate(227.700672646 303.353125)rotate(-90.0)scale(0.12 -0.12)">
       <use xlink:href="#DejaVuSans-4d"/>
       <use x="86.279296875" xlink:href="#DejaVuSans-61"/>
       <use x="147.55859375" xlink:href="#DejaVuSans-72"/>
       <use x="188.671875" xlink:href="#DejaVuSans-20"/>
       <use x="220.458984375" xlink:href="#DejaVuSans-32"/>
       <use x="284.08203125" xlink:href="#DejaVuSans-30"/>
       <use x="347.705078125" xlink:href="#DejaVuSans-31"/>
       <use x="411.328125" xlink:href="#DejaVuSans-35"/>
      </g>
     </g>
    </g>
    <g id="xtick_4">
     <g id="line2d_34">
      <g>
       <use style="stroke:#000000;stroke-width:0.5;" x="285.444131166" xlink:href="#m93b0483c22" y="243.406875"/>
      </g>
     </g>
     <g id="line2d_35">
      <g>
       <use style="stroke:#000000;stroke-width:0.5;" x="285.444131166" xlink:href="#m741efc42ff" y="13.006875"/>
      </g>
     </g>
     <g id="text_4">
      <!-- Jul 2015 -->
      <g transform="translate(288.755381166 295.811875)rotate(-90.0)scale(0.12 -0.12)">
       <use xlink:href="#DejaVuSans-4a"/>
       <use x="29.4921875" xlink:href="#DejaVuSans-75"/>
       <use x="92.87109375" xlink:href="#DejaVuSans-6c"/>
       <use x="120.654296875" xlink:href="#DejaVuSans-20"/>
       <use x="152.44140625" xlink:href="#DejaVuSans-32"/>
       <use x="216.064453125" xlink:href="#DejaVuSans-30"/>
       <use x="279.6875" xlink:href="#DejaVuSans-31"/>
       <use x="343.310546875" xlink:href="#DejaVuSans-35"/>
      </g>
     </g>
    </g>
    <g id="xtick_5">
     <g id="line2d_36">
      <g>
       <use style="stroke:#000000;stroke-width:0.5;" x="346.999288117" xlink:href="#m93b0483c22" y="243.406875"/>
      </g>
     </g>
     <g id="line2d_37">
      <g>
       <use style="stroke:#000000;stroke-width:0.5;" x="346.999288117" xlink:href="#m741efc42ff" y="13.006875"/>
      </g>
     </g>
     <g id="text_5">
      <!-- Nov 2015 -->
      <g transform="translate(350.310538117 304.135)rotate(-90.0)scale(0.12 -0.12)">
       <use xlink:href="#DejaVuSans-4e"/>
       <use x="74.8046875" xlink:href="#DejaVuSans-6f"/>
       <use x="135.986328125" xlink:href="#DejaVuSans-76"/>
       <use x="195.166015625" xlink:href="#DejaVuSans-20"/>
       <use x="226.953125" xlink:href="#DejaVuSans-32"/>
       <use x="290.576171875" xlink:href="#DejaVuSans-30"/>
       <use x="354.19921875" xlink:href="#DejaVuSans-31"/>
       <use x="417.822265625" xlink:href="#DejaVuSans-35"/>
      </g>
     </g>
    </g>
    <g id="xtick_6">
     <g id="line2d_38">
      <g>
       <use style="stroke:#000000;stroke-width:0.5;" x="407.553548206" xlink:href="#m93b0483c22" y="243.406875"/>
      </g>
     </g>
     <g id="line2d_39">
      <g>
       <use style="stroke:#000000;stroke-width:0.5;" x="407.553548206" xlink:href="#m741efc42ff" y="13.006875"/>
      </g>
     </g>
     <g id="text_6">
      <!-- Mar 2016 -->
      <defs>
       <path d="
M33.0156 40.375
Q26.375 40.375 22.4844 35.8281
Q18.6094 31.2969 18.6094 23.3906
Q18.6094 15.5312 22.4844 10.9531
Q26.375 6.39062 33.0156 6.39062
Q39.6562 6.39062 43.5312 10.9531
Q47.4062 15.5312 47.4062 23.3906
Q47.4062 31.2969 43.5312 35.8281
Q39.6562 40.375 33.0156 40.375
M52.5938 71.2969
L52.5938 62.3125
Q48.875 64.0625 45.0938 64.9844
Q41.3125 65.9219 37.5938 65.9219
Q27.8281 65.9219 22.6719 59.3281
Q17.5312 52.7344 16.7969 39.4062
Q19.6719 43.6562 24.0156 45.9219
Q28.375 48.1875 33.5938 48.1875
Q44.5781 48.1875 50.9531 41.5156
Q57.3281 34.8594 57.3281 23.3906
Q57.3281 12.1562 50.6875 5.35938
Q44.0469 -1.42188 33.0156 -1.42188
Q20.3594 -1.42188 13.6719 8.26562
Q6.98438 17.9688 6.98438 36.375
Q6.98438 53.6562 15.1875 63.9375
Q23.3906 74.2188 37.2031 74.2188
Q40.9219 74.2188 44.7031 73.4844
Q48.4844 72.75 52.5938 71.2969" id="DejaVuSans-36"/>
      </defs>
      <g transform="translate(410.864798206 303.645625)rotate(-90.0)scale(0.12 -0.12)">
       <use xlink:href="#DejaVuSans-4d"/>
       <use x="86.279296875" xlink:href="#DejaVuSans-61"/>
       <use x="147.55859375" xlink:href="#DejaVuSans-72"/>
       <use x="188.671875" xlink:href="#DejaVuSans-20"/>
       <use x="220.458984375" xlink:href="#DejaVuSans-32"/>
       <use x="284.08203125" xlink:href="#DejaVuSans-30"/>
       <use x="347.705078125" xlink:href="#DejaVuSans-31"/>
       <use x="411.328125" xlink:href="#DejaVuSans-36"/>
      </g>
     </g>
    </g>
    <g id="xtick_7">
     <g id="line2d_40">
      <g>
       <use style="stroke:#000000;stroke-width:0.5;" x="468.608256727" xlink:href="#m93b0483c22" y="243.406875"/>
      </g>
     </g>
     <g id="line2d_41">
      <g>
       <use style="stroke:#000000;stroke-width:0.5;" x="468.608256727" xlink:href="#m741efc42ff" y="13.006875"/>
      </g>
     </g>
     <g id="text_7">
      <!-- Jul 2016 -->
      <g transform="translate(471.919506727 296.104375)rotate(-90.0)scale(0.12 -0.12)">
       <use xlink:href="#DejaVuSans-4a"/>
       <use x="29.4921875" xlink:href="#DejaVuSans-75"/>
       <use x="92.87109375" xlink:href="#DejaVuSans-6c"/>
       <use x="120.654296875" xlink:href="#DejaVuSans-20"/>
       <use x="152.44140625" xlink:href="#DejaVuSans-32"/>
       <use x="216.064453125" xlink:href="#DejaVuSans-30"/>
       <use x="279.6875" xlink:href="#DejaVuSans-31"/>
       <use x="343.310546875" xlink:href="#DejaVuSans-36"/>
      </g>
     </g>
    </g>
    <g id="xtick_8">
     <g id="line2d_42">
      <g>
       <use style="stroke:#000000;stroke-width:0.5;" x="530.163413677" xlink:href="#m93b0483c22" y="243.406875"/>
      </g>
     </g>
     <g id="line2d_43">
      <g>
       <use style="stroke:#000000;stroke-width:0.5;" x="530.163413677" xlink:href="#m741efc42ff" y="13.006875"/>
      </g>
     </g>
     <g id="text_8">
      <!-- Nov 2016 -->
      <g transform="translate(533.474663677 304.4275)rotate(-90.0)scale(0.12 -0.12)">
       <use xlink:href="#DejaVuSans-4e"/>
       <use x="74.8046875" xlink:href="#DejaVuSans-6f"/>
       <use x="135.986328125" xlink:href="#DejaVuSans-76"/>
       <use x="195.166015625" xlink:href="#DejaVuSans-20"/>
       <use x="226.953125" xlink:href="#DejaVuSans-32"/>
       <use x="290.576171875" xlink:href="#DejaVuSans-30"/>
       <use x="354.19921875" xlink:href="#DejaVuSans-31"/>
       <use x="417.822265625" xlink:href="#DejaVuSans-36"/>
      </g>
     </g>
    </g>
    <g id="xtick_9">
     <g id="line2d_44">
      <g>
       <use style="stroke:#000000;stroke-width:0.5;" x="590.217225336" xlink:href="#m93b0483c22" y="243.406875"/>
      </g>
     </g>
     <g id="line2d_45">
      <g>
       <use style="stroke:#000000;stroke-width:0.5;" x="590.217225336" xlink:href="#m741efc42ff" y="13.006875"/>
      </g>
     </g>
     <g id="text_9">
      <!-- Mar 2017 -->
      <defs>
       <path d="
M8.20312 72.9062
L55.0781 72.9062
L55.0781 68.7031
L28.6094 0
L18.3125 0
L43.2188 64.5938
L8.20312 64.5938
z
" id="DejaVuSans-37"/>
      </defs>
      <g transform="translate(593.528475336 303.375625)rotate(-90.0)scale(0.12 -0.12)">
       <use xlink:href="#DejaVuSans-4d"/>
       <use x="86.279296875" xlink:href="#DejaVuSans-61"/>
       <use x="147.55859375" xlink:href="#DejaVuSans-72"/>
       <use x="188.671875" xlink:href="#DejaVuSans-20"/>
       <use x="220.458984375" xlink:href="#DejaVuSans-32"/>
       <use x="284.08203125" xlink:href="#DejaVuSans-30"/>
       <use x="347.705078125" xlink:href="#DejaVuSans-31"/>
       <use x="411.328125" xlink:href="#DejaVuSans-37"/>
      </g>
     </g>
    </g>
   </g>
   <g id="matplotlib.axis_2">
    <g id="ytick_1">
     <g id="line2d_46">
      <defs>
       <path d="
M0 0
L4 0" id="m728421d6d4" style="stroke:#000000;stroke-width:0.5;"/>
      </defs>
      <g>
       <use style="stroke:#000000;stroke-width:0.5;" x="56.23875" xlink:href="#m728421d6d4" y="243.406875"/>
      </g>
     </g>
     <g id="line2d_47">
      <defs>
       <path d="
M0 0
L-4 0" id="mcb0005524f" style="stroke:#000000;stroke-width:0.5;"/>
      </defs>
      <g>
       <use style="stroke:#000000;stroke-width:0.5;" x="614.23875" xlink:href="#mcb0005524f" y="243.406875"/>
      </g>
     </g>
     <g id="text_10">
      <!-- 200 -->
      <g transform="translate(31.01 246.718125)scale(0.12 -0.12)">
       <use xlink:href="#DejaVuSans-32"/>
       <use x="63.623046875" xlink:href="#DejaVuSans-30"/>
       <use x="127.24609375" xlink:href="#DejaVuSans-30"/>
      </g>
     </g>
    </g>
    <g id="ytick_2">
     <g id="line2d_48">
      <g>
       <use style="stroke:#000000;stroke-width:0.5;" x="56.23875" xlink:href="#m728421d6d4" y="205.006875"/>
      </g>
     </g>
     <g id="line2d_49">
      <g>
       <use style="stroke:#000000;stroke-width:0.5;" x="614.23875" xlink:href="#mcb0005524f" y="205.006875"/>
      </g>
     </g>
     <g id="text_11">
      <!-- 400 -->
      <g transform="translate(30.7175 208.318125)scale(0.12 -0.12)">
       <use xlink:href="#DejaVuSans-34"/>
       <use x="63.623046875" xlink:href="#DejaVuSans-30"/>
       <use x="127.24609375" xlink:href="#DejaVuSans-30"/>
      </g>
     </g>
    </g>
    <g id="ytick_3">
     <g id="line2d_50">
      <g>
       <use style="stroke:#000000;stroke-width:0.5;" x="56.23875" xlink:href="#m728421d6d4" y="166.606875"/>
      </g>
     </g>
     <g id="line2d_51">
      <g>
       <use style="stroke:#000000;stroke-width:0.5;" x="614.23875" xlink:href="#mcb0005524f" y="166.606875"/>
      </g>
     </g>
     <g id="text_12">
      <!-- 600 -->
      <g transform="translate(30.96875 169.918125)scale(0.12 -0.12)">
       <use xlink:href="#DejaVuSans-36"/>
       <use x="63.623046875" xlink:href="#DejaVuSans-30"/>
       <use x="127.24609375" xlink:href="#DejaVuSans-30"/>
      </g>
     </g>
    </g>
    <g id="ytick_4">
     <g id="line2d_52">
      <g>
       <use style="stroke:#000000;stroke-width:0.5;" x="56.23875" xlink:href="#m728421d6d4" y="128.206875"/>
      </g>
     </g>
     <g id="line2d_53">
      <g>
       <use style="stroke:#000000;stroke-width:0.5;" x="614.23875" xlink:href="#mcb0005524f" y="128.206875"/>
      </g>
     </g>
     <g id="text_13">
      <!-- 800 -->
      <defs>
       <path d="
M31.7812 34.625
Q24.75 34.625 20.7188 30.8594
Q16.7031 27.0938 16.7031 20.5156
Q16.7031 13.9219 20.7188 10.1562
Q24.75 6.39062 31.7812 6.39062
Q38.8125 6.39062 42.8594 10.1719
Q46.9219 13.9688 46.9219 20.5156
Q46.9219 27.0938 42.8906 30.8594
Q38.875 34.625 31.7812 34.625
M21.9219 38.8125
Q15.5781 40.375 12.0312 44.7188
Q8.5 49.0781 8.5 55.3281
Q8.5 64.0625 14.7188 69.1406
Q20.9531 74.2188 31.7812 74.2188
Q42.6719 74.2188 48.875 69.1406
Q55.0781 64.0625 55.0781 55.3281
Q55.0781 49.0781 51.5312 44.7188
Q48 40.375 41.7031 38.8125
Q48.8281 37.1562 52.7969 32.3125
Q56.7812 27.4844 56.7812 20.5156
Q56.7812 9.90625 50.3125 4.23438
Q43.8438 -1.42188 31.7812 -1.42188
Q19.7344 -1.42188 13.25 4.23438
Q6.78125 9.90625 6.78125 20.5156
Q6.78125 27.4844 10.7812 32.3125
Q14.7969 37.1562 21.9219 38.8125
M18.3125 54.3906
Q18.3125 48.7344 21.8438 45.5625
Q25.3906 42.3906 31.7812 42.3906
Q38.1406 42.3906 41.7188 45.5625
Q45.3125 48.7344 45.3125 54.3906
Q45.3125 60.0625 41.7188 63.2344
Q38.1406 66.4062 31.7812 66.4062
Q25.3906 66.4062 21.8438 63.2344
Q18.3125 60.0625 18.3125 54.3906" id="DejaVuSans-38"/>
      </defs>
      <g transform="translate(30.944375 131.518125)scale(0.12 -0.12)">
       <use xlink:href="#DejaVuSans-38"/>
       <use x="63.623046875" xlink:href="#DejaVuSans-30"/>
       <use x="127.24609375" xlink:href="#DejaVuSans-30"/>
      </g>
     </g>
    </g>
    <g id="ytick_5">
     <g id="line2d_54">
      <g>
       <use style="stroke:#000000;stroke-width:0.5;" x="56.23875" xlink:href="#m728421d6d4" y="89.806875"/>
      </g>
     </g>
     <g id="line2d_55">
      <g>
       <use style="stroke:#000000;stroke-width:0.5;" x="614.23875" xlink:href="#mcb0005524f" y="89.806875"/>
      </g>
     </g>
     <g id="text_14">
      <!-- 1000 -->
      <g transform="translate(23.81375 93.118125)scale(0.12 -0.12)">
       <use xlink:href="#DejaVuSans-31"/>
       <use x="63.623046875" xlink:href="#DejaVuSans-30"/>
       <use x="127.24609375" xlink:href="#DejaVuSans-30"/>
       <use x="190.869140625" xlink:href="#DejaVuSans-30"/>
      </g>
     </g>
    </g>
    <g id="ytick_6">
     <g id="line2d_56">
      <g>
       <use style="stroke:#000000;stroke-width:0.5;" x="56.23875" xlink:href="#m728421d6d4" y="51.406875"/>
      </g>
     </g>
     <g id="line2d_57">
      <g>
       <use style="stroke:#000000;stroke-width:0.5;" x="614.23875" xlink:href="#mcb0005524f" y="51.406875"/>
      </g>
     </g>
     <g id="text_15">
      <!-- 1200 -->
      <g transform="translate(23.81375 54.718125)scale(0.12 -0.12)">
       <use xlink:href="#DejaVuSans-31"/>
       <use x="63.623046875" xlink:href="#DejaVuSans-32"/>
       <use x="127.24609375" xlink:href="#DejaVuSans-30"/>
       <use x="190.869140625" xlink:href="#DejaVuSans-30"/>
      </g>
     </g>
    </g>
    <g id="ytick_7">
     <g id="line2d_58">
      <g>
       <use style="stroke:#000000;stroke-width:0.5;" x="56.23875" xlink:href="#m728421d6d4" y="13.006875"/>
      </g>
     </g>
     <g id="line2d_59">
      <g>
       <use style="stroke:#000000;stroke-width:0.5;" x="614.23875" xlink:href="#mcb0005524f" y="13.006875"/>
      </g>
     </g>
     <g id="text_16">
      <!-- 1400 -->
      <g transform="translate(23.81375 16.318125)scale(0.12 -0.12)">
       <use xlink:href="#DejaVuSans-31"/>
       <use x="63.623046875" xlink:href="#DejaVuSans-34"/>
       <use x="127.24609375" xlink:href="#DejaVuSans-30"/>
       <use x="190.869140625" xlink:href="#DejaVuSans-30"/>
      </g>
     </g>
    </g>
    <g id="text_17">
     <!-- Number of Tagged Packages -->
     <defs>
      <path d="
M19.6719 64.7969
L19.6719 37.4062
L32.0781 37.4062
Q38.9688 37.4062 42.7188 40.9688
Q46.4844 44.5312 46.4844 51.125
Q46.4844 57.6719 42.7188 61.2344
Q38.9688 64.7969 32.0781 64.7969
z

M9.8125 72.9062
L32.0781 72.9062
Q44.3438 72.9062 50.6094 67.3594
Q56.8906 61.8125 56.8906 51.125
Q56.8906 40.3281 50.6094 34.8125
Q44.3438 29.2969 32.0781 29.2969
L19.6719 29.2969
L19.6719 0
L9.8125 0
z
" id="DejaVuSans-50"/>
      <path d="
M52 44.1875
Q55.375 50.25 60.0625 53.125
Q64.75 56 71.0938 56
Q79.6406 56 84.2812 50.0156
Q88.9219 44.0469 88.9219 33.0156
L88.9219 0
L79.8906 0
L79.8906 32.7188
Q79.8906 40.5781 77.0938 44.375
Q74.3125 48.1875 68.6094 48.1875
Q61.625 48.1875 57.5625 43.5469
Q53.5156 38.9219 53.5156 30.9062
L53.5156 0
L44.4844 0
L44.4844 32.7188
Q44.4844 40.625 41.7031 44.4062
Q38.9219 48.1875 33.1094 48.1875
Q26.2188 48.1875 22.1562 43.5312
Q18.1094 38.875 18.1094 30.9062
L18.1094 0
L9.07812 0
L9.07812 54.6875
L18.1094 54.6875
L18.1094 46.1875
Q21.1875 51.2188 25.4844 53.6094
Q29.7812 56 35.6875 56
Q41.6562 56 45.8281 52.9688
Q50 49.9531 52 44.1875" id="DejaVuSans-6d"/>
      <path d="
M9.07812 75.9844
L18.1094 75.9844
L18.1094 31.1094
L44.9219 54.6875
L56.3906 54.6875
L27.3906 29.1094
L57.625 0
L45.9062 0
L18.1094 26.7031
L18.1094 0
L9.07812 0
z
" id="DejaVuSans-6b"/>
      <path d="
M37.1094 75.9844
L37.1094 68.5
L28.5156 68.5
Q23.6875 68.5 21.7969 66.5469
Q19.9219 64.5938 19.9219 59.5156
L19.9219 54.6875
L34.7188 54.6875
L34.7188 47.7031
L19.9219 47.7031
L19.9219 0
L10.8906 0
L10.8906 47.7031
L2.29688 47.7031
L2.29688 54.6875
L10.8906 54.6875
L10.8906 58.5
Q10.8906 67.625 15.1406 71.7969
Q19.3906 75.9844 28.6094 75.9844
z
" id="DejaVuSans-66"/>
      <path d="
M45.4062 27.9844
Q45.4062 37.75 41.375 43.1094
Q37.3594 48.4844 30.0781 48.4844
Q22.8594 48.4844 18.8281 43.1094
Q14.7969 37.75 14.7969 27.9844
Q14.7969 18.2656 18.8281 12.8906
Q22.8594 7.51562 30.0781 7.51562
Q37.3594 7.51562 41.375 12.8906
Q45.4062 18.2656 45.4062 27.9844
M54.3906 6.78125
Q54.3906 -7.17188 48.1875 -13.9844
Q42 -20.7969 29.2031 -20.7969
Q24.4688 -20.7969 20.2656 -20.0938
Q16.0625 -19.3906 12.1094 -17.9219
L12.1094 -9.1875
Q16.0625 -11.3281 19.9219 -12.3438
Q23.7812 -13.375 27.7812 -13.375
Q36.625 -13.375 41.0156 -8.76562
Q45.4062 -4.15625 45.4062 5.17188
L45.4062 9.625
Q42.625 4.78125 38.2812 2.39062
Q33.9375 0 27.875 0
Q17.8281 0 11.6719 7.65625
Q5.51562 15.3281 5.51562 27.9844
Q5.51562 40.6719 11.6719 48.3281
Q17.8281 56 27.875 56
Q33.9375 56 38.2812 53.6094
Q42.625 51.2188 45.4062 46.3906
L45.4062 54.6875
L54.3906 54.6875
z
" id="DejaVuSans-67"/>
      <path d="
M45.4062 46.3906
L45.4062 75.9844
L54.3906 75.9844
L54.3906 0
L45.4062 0
L45.4062 8.20312
Q42.5781 3.32812 38.25 0.953125
Q33.9375 -1.42188 27.875 -1.42188
Q17.9688 -1.42188 11.7344 6.48438
Q5.51562 14.4062 5.51562 27.2969
Q5.51562 40.1875 11.7344 48.0938
Q17.9688 56 27.875 56
Q33.9375 56 38.25 53.625
Q42.5781 51.2656 45.4062 46.3906
M14.7969 27.2969
Q14.7969 17.3906 18.875 11.75
Q22.9531 6.10938 30.0781 6.10938
Q37.2031 6.10938 41.2969 11.75
Q45.4062 17.3906 45.4062 27.2969
Q45.4062 37.2031 41.2969 42.8438
Q37.2031 48.4844 30.0781 48.4844
Q22.9531 48.4844 18.875 42.8438
Q14.7969 37.2031 14.7969 27.2969" id="DejaVuSans-64"/>
      <path d="
M56.2031 29.5938
L56.2031 25.2031
L14.8906 25.2031
Q15.4844 15.9219 20.4844 11.0625
Q25.4844 6.20312 34.4219 6.20312
Q39.5938 6.20312 44.4531 7.46875
Q49.3125 8.73438 54.1094 11.2812
L54.1094 2.78125
Q49.2656 0.734375 44.1875 -0.34375
Q39.1094 -1.42188 33.8906 -1.42188
Q20.7969 -1.42188 13.1562 6.1875
Q5.51562 13.8125 5.51562 26.8125
Q5.51562 40.2344 12.7656 48.1094
Q20.0156 56 32.3281 56
Q43.3594 56 49.7812 48.8906
Q56.2031 41.7969 56.2031 29.5938
M47.2188 32.2344
Q47.125 39.5938 43.0938 43.9844
Q39.0625 48.3906 32.4219 48.3906
Q24.9062 48.3906 20.3906 44.1406
Q15.875 39.8906 15.1875 32.1719
z
" id="DejaVuSans-65"/>
      <path d="
M48.6875 27.2969
Q48.6875 37.2031 44.6094 42.8438
Q40.5312 48.4844 33.4062 48.4844
Q26.2656 48.4844 22.1875 42.8438
Q18.1094 37.2031 18.1094 27.2969
Q18.1094 17.3906 22.1875 11.75
Q26.2656 6.10938 33.4062 6.10938
Q40.5312 6.10938 44.6094 11.75
Q48.6875 17.3906 48.6875 27.2969
M18.1094 46.3906
Q20.9531 51.2656 25.2656 53.625
Q29.5938 56 35.5938 56
Q45.5625 56 51.7812 48.0938
Q58.0156 40.1875 58.0156 27.2969
Q58.0156 14.4062 51.7812 6.48438
Q45.5625 -1.42188 35.5938 -1.42188
Q29.5938 -1.42188 25.2656 0.953125
Q20.9531 3.32812 18.1094 8.20312
L18.1094 0
L9.07812 0
L9.07812 75.9844
L18.1094 75.9844
z
" id="DejaVuSans-62"/>
      <path d="
M48.7812 52.5938
L48.7812 44.1875
Q44.9688 46.2969 41.1406 47.3438
Q37.3125 48.3906 33.4062 48.3906
Q24.6562 48.3906 19.8125 42.8438
Q14.9844 37.3125 14.9844 27.2969
Q14.9844 17.2812 19.8125 11.7344
Q24.6562 6.20312 33.4062 6.20312
Q37.3125 6.20312 41.1406 7.25
Q44.9688 8.29688 48.7812 10.4062
L48.7812 2.09375
Q45.0156 0.34375 40.9844 -0.53125
Q36.9688 -1.42188 32.4219 -1.42188
Q20.0625 -1.42188 12.7812 6.34375
Q5.51562 14.1094 5.51562 27.2969
Q5.51562 40.6719 12.8594 48.3281
Q20.2188 56 33.0156 56
Q37.1562 56 41.1094 55.1406
Q45.0625 54.2969 48.7812 52.5938" id="DejaVuSans-63"/>
      <path d="
M44.2812 53.0781
L44.2812 44.5781
Q40.4844 46.5312 36.375 47.5
Q32.2812 48.4844 27.875 48.4844
Q21.1875 48.4844 17.8438 46.4375
Q14.5 44.3906 14.5 40.2812
Q14.5 37.1562 16.8906 35.375
Q19.2812 33.5938 26.5156 31.9844
L29.5938 31.2969
Q39.1562 29.25 43.1875 25.5156
Q47.2188 21.7812 47.2188 15.0938
Q47.2188 7.46875 41.1875 3.01562
Q35.1562 -1.42188 24.6094 -1.42188
Q20.2188 -1.42188 15.4531 -0.5625
Q10.6875 0.296875 5.42188 2
L5.42188 11.2812
Q10.4062 8.6875 15.2344 7.39062
Q20.0625 6.10938 24.8125 6.10938
Q31.1562 6.10938 34.5625 8.28125
Q37.9844 10.4531 37.9844 14.4062
Q37.9844 18.0625 35.5156 20.0156
Q33.0625 21.9688 24.7031 23.7812
L21.5781 24.5156
Q13.2344 26.2656 9.51562 29.9062
Q5.8125 33.5469 5.8125 39.8906
Q5.8125 47.6094 11.2812 51.7969
Q16.75 56 26.8125 56
Q31.7812 56 36.1719 55.2656
Q40.5781 54.5469 44.2812 53.0781" id="DejaVuSans-73"/>
      <path d="
M-0.296875 72.9062
L61.375 72.9062
L61.375 64.5938
L35.5 64.5938
L35.5 0
L25.5938 0
L25.5938 64.5938
L-0.296875 64.5938
z
" id="DejaVuSans-54"/>
     </defs>
     <g transform="translate(16.318125 212.98875)rotate(-90.0)scale(0.12 -0.12)">
      <use xlink:href="#DejaVuSans-4e"/>
      <use x="74.8046875" xlink:href="#DejaVuSans-75"/>
      <use x="138.18359375" xlink:href="#DejaVuSans-6d"/>
      <use x="235.595703125" xlink:href="#DejaVuSans-62"/>
      <use x="299.072265625" xlink:href="#DejaVuSans-65"/>
      <use x="360.595703125" xlink:href="#DejaVuSans-72"/>
      <use x="401.708984375" xlink:href="#DejaVuSans-20"/>
      <use x="433.49609375" xlink:href="#DejaVuSans-6f"/>
      <use x="494.677734375" xlink:href="#DejaVuSans-66"/>
      <use x="529.8828125" xlink:href="#DejaVuSans-20"/>
      <use x="561.669921875" xlink:href="#DejaVuSans-54"/>
      <use x="606.25390625" xlink:href="#DejaVuSans-61"/>
      <use x="667.533203125" xlink:href="#DejaVuSans-67"/>
      <use x="731.009765625" xlink:href="#DejaVuSans-67"/>
      <use x="794.486328125" xlink:href="#DejaVuSans-65"/>
      <use x="856.009765625" xlink:href="#DejaVuSans-64"/>
      <use x="919.486328125" xlink:href="#DejaVuSans-20"/>
      <use x="951.2734375" xlink:href="#DejaVuSans-50"/>
      <use x="1007.07617188" xlink:href="#DejaVuSans-61"/>
      <use x="1068.35546875" xlink:href="#DejaVuSans-63"/>
      <use x="1123.3359375" xlink:href="#DejaVuSans-6b"/>
      <use x="1179.49609375" xlink:href="#DejaVuSans-61"/>
      <use x="1240.77539062" xlink:href="#DejaVuSans-67"/>
      <use x="1304.25195312" xlink:href="#DejaVuSans-65"/>
      <use x="1365.77539062" xlink:href="#DejaVuSans-73"/>
     </g>
    </g>
   </g>
   <g id="patch_3">
    <path d="
M56.2388 13.0069
L614.239 13.0069" style="fill:none;stroke:#000000;"/>
   </g>
   <g id="patch_4">
    <path d="
M614.239 243.407
L614.239 13.0069" style="fill:none;stroke:#000000;"/>
   </g>
   <g id="patch_5">
    <path d="
M56.2388 243.407
L614.239 243.407" style="fill:none;stroke:#000000;"/>
   </g>
   <g id="patch_6">
    <path d="
M56.2388 243.407
L56.2388 13.0069" style="fill:none;stroke:#000000;"/>
   </g>
   <g id="text_18">
    <g id="patch_7">
     <path d="
M120.966 124.199
L134.64 124.199
L134.64 89.8115
L120.966 89.8115
z
" style="fill:#ffffff;stroke:#ffffff;"/>
    </g>
    <!-- v0.3.0 -->
    <defs>
     <path d="
M40.5781 39.3125
Q47.6562 37.7969 51.625 33
Q55.6094 28.2188 55.6094 21.1875
Q55.6094 10.4062 48.1875 4.48438
Q40.7656 -1.42188 27.0938 -1.42188
Q22.5156 -1.42188 17.6562 -0.515625
Q12.7969 0.390625 7.625 2.20312
L7.625 11.7188
Q11.7188 9.32812 16.5938 8.10938
Q21.4844 6.89062 26.8125 6.89062
Q36.0781 6.89062 40.9375 10.5469
Q45.7969 14.2031 45.7969 21.1875
Q45.7969 27.6406 41.2812 31.2656
Q36.7656 34.9062 28.7188 34.9062
L20.2188 34.9062
L20.2188 43.0156
L29.1094 43.0156
Q36.375 43.0156 40.2344 45.9219
Q44.0938 48.8281 44.0938 54.2969
Q44.0938 59.9062 40.1094 62.9062
Q36.1406 65.9219 28.7188 65.9219
Q24.6562 65.9219 20.0156 65.0312
Q15.375 64.1562 9.8125 62.3125
L9.8125 71.0938
Q15.4375 72.6562 20.3438 73.4375
Q25.25 74.2188 29.5938 74.2188
Q40.8281 74.2188 47.3594 69.1094
Q53.9062 64.0156 53.9062 55.3281
Q53.9062 49.2656 50.4375 45.0938
Q46.9688 40.9219 40.5781 39.3125" id="DejaVuSans-33"/>
     <path d="
M10.6875 12.4062
L21 12.4062
L21 0
L10.6875 0
z
" id="DejaVuSans-2e"/>
    </defs>
    <g transform="translate(130.561146811 122.199316875)rotate(-90.0)scale(0.09996 -0.09996)">
     <use xlink:href="#DejaVuSans-76"/>
     <use x="59.1796875" xlink:href="#DejaVuSans-30"/>
     <use x="122.802734375" xlink:href="#DejaVuSans-2e"/>
     <use x="154.58984375" xlink:href="#DejaVuSans-33"/>
     <use x="218.212890625" xlink:href="#DejaVuSans-2e"/>
     <use x="250.0" xlink:href="#DejaVuSans-30"/>
    </g>
   </g>
   <g id="text_19">
    <g id="patch_8">
     <path d="
M136.98 85.54
L150.654 85.54
L150.654 51.4115
L136.98 51.4115
z
" style="fill:#ffffff;stroke:#ffffff;"/>
    </g>
    <!-- v0.3.1 -->
    <g transform="translate(146.575496586 83.540045625)rotate(-90.0)scale(0.09996 -0.09996)">
     <use xlink:href="#DejaVuSans-76"/>
     <use x="59.1796875" xlink:href="#DejaVuSans-30"/>
     <use x="122.802734375" xlink:href="#DejaVuSans-2e"/>
     <use x="154.58984375" xlink:href="#DejaVuSans-33"/>
     <use x="218.212890625" xlink:href="#DejaVuSans-2e"/>
     <use x="250.0" xlink:href="#DejaVuSans-31"/>
    </g>
   </g>
   <g id="text_20">
    <g id="patch_9">
     <path d="
M151.994 123.862
L165.668 123.862
L165.668 89.8115
L151.994 89.8115
z
" style="fill:#ffffff;stroke:#ffffff;"/>
    </g>
    <!-- v0.3.2 -->
    <g transform="translate(161.588949501 121.861951875)rotate(-90.0)scale(0.09996 -0.09996)">
     <use xlink:href="#DejaVuSans-76"/>
     <use x="59.1796875" xlink:href="#DejaVuSans-30"/>
     <use x="122.802734375" xlink:href="#DejaVuSans-2e"/>
     <use x="154.58984375" xlink:href="#DejaVuSans-33"/>
     <use x="218.212890625" xlink:href="#DejaVuSans-2e"/>
     <use x="250.0" xlink:href="#DejaVuSans-32"/>
    </g>
   </g>
   <g id="text_21">
    <g id="patch_10">
     <path d="
M168.508 85.6619
L182.183 85.6619
L182.183 51.4115
L168.508 51.4115
z
" style="fill:#ffffff;stroke:#ffffff;"/>
    </g>
    <!-- v0.3.3 -->
    <g transform="translate(178.103747707 83.661871875)rotate(-90.0)scale(0.09996 -0.09996)">
     <use xlink:href="#DejaVuSans-76"/>
     <use x="59.1796875" xlink:href="#DejaVuSans-30"/>
     <use x="122.802734375" xlink:href="#DejaVuSans-2e"/>
     <use x="154.58984375" xlink:href="#DejaVuSans-33"/>
     <use x="218.212890625" xlink:href="#DejaVuSans-2e"/>
     <use x="250.0" xlink:href="#DejaVuSans-33"/>
    </g>
   </g>
   <g id="text_22">
    <g id="patch_11">
     <path d="
M185.023 124.302
L198.697 124.302
L198.697 89.8115
L185.023 89.8115
z
" style="fill:#ffffff;stroke:#ffffff;"/>
    </g>
    <!-- v0.3.4 -->
    <g transform="translate(194.618545914 122.302400625)rotate(-90.0)scale(0.09996 -0.09996)">
     <use xlink:href="#DejaVuSans-76"/>
     <use x="59.1796875" xlink:href="#DejaVuSans-30"/>
     <use x="122.802734375" xlink:href="#DejaVuSans-2e"/>
     <use x="154.58984375" xlink:href="#DejaVuSans-33"/>
     <use x="218.212890625" xlink:href="#DejaVuSans-2e"/>
     <use x="250.0" xlink:href="#DejaVuSans-34"/>
    </g>
   </g>
   <g id="text_23">
    <g id="patch_12">
     <path d="
M191.529 85.59
L205.203 85.59
L205.203 51.4115
L191.529 51.4115
z
" style="fill:#ffffff;stroke:#ffffff;"/>
    </g>
    <!-- v0.3.5 -->
    <g transform="translate(201.12437551 83.590025625)rotate(-90.0)scale(0.09996 -0.09996)">
     <use xlink:href="#DejaVuSans-76"/>
     <use x="59.1796875" xlink:href="#DejaVuSans-30"/>
     <use x="122.802734375" xlink:href="#DejaVuSans-2e"/>
     <use x="154.58984375" xlink:href="#DejaVuSans-33"/>
     <use x="218.212890625" xlink:href="#DejaVuSans-2e"/>
     <use x="250.0" xlink:href="#DejaVuSans-35"/>
    </g>
   </g>
   <g id="text_24">
    <g id="patch_13">
     <path d="
M211.547 124.234
L225.221 124.234
L225.221 89.8115
L211.547 89.8115
z
" style="fill:#ffffff;stroke:#ffffff;"/>
    </g>
    <!-- v0.3.6 -->
    <g transform="translate(221.14231273 122.233678125)rotate(-90.0)scale(0.09996 -0.09996)">
     <use xlink:href="#DejaVuSans-76"/>
     <use x="59.1796875" xlink:href="#DejaVuSans-30"/>
     <use x="122.802734375" xlink:href="#DejaVuSans-2e"/>
     <use x="154.58984375" xlink:href="#DejaVuSans-33"/>
     <use x="218.212890625" xlink:href="#DejaVuSans-2e"/>
     <use x="250.0" xlink:href="#DejaVuSans-36"/>
    </g>
   </g>
   <g id="text_25">
    <g id="patch_14">
     <path d="
M228.562 85.6088
L242.236 85.6088
L242.236 51.4115
L228.562 51.4115
z
" style="fill:#ffffff;stroke:#ffffff;"/>
    </g>
    <!-- v0.3.7 -->
    <g transform="translate(238.157559367 83.608768125)rotate(-90.0)scale(0.09996 -0.09996)">
     <use xlink:href="#DejaVuSans-76"/>
     <use x="59.1796875" xlink:href="#DejaVuSans-30"/>
     <use x="122.802734375" xlink:href="#DejaVuSans-2e"/>
     <use x="154.58984375" xlink:href="#DejaVuSans-33"/>
     <use x="218.212890625" xlink:href="#DejaVuSans-2e"/>
     <use x="250.0" xlink:href="#DejaVuSans-37"/>
    </g>
   </g>
   <g id="text_26">
    <g id="patch_15">
     <path d="
M247.579 124.179
L261.253 124.179
L261.253 89.8115
L247.579 89.8115
z
" style="fill:#ffffff;stroke:#ffffff;"/>
    </g>
    <!-- v0.3.8 -->
    <g transform="translate(257.174599725 122.1790125)rotate(-90.0)scale(0.09996 -0.09996)">
     <use xlink:href="#DejaVuSans-76"/>
     <use x="59.1796875" xlink:href="#DejaVuSans-30"/>
     <use x="122.802734375" xlink:href="#DejaVuSans-2e"/>
     <use x="154.58984375" xlink:href="#DejaVuSans-33"/>
     <use x="218.212890625" xlink:href="#DejaVuSans-2e"/>
     <use x="250.0" xlink:href="#DejaVuSans-38"/>
    </g>
   </g>
   <g id="text_27">
    <g id="patch_16">
     <path d="
M262.593 85.7603
L276.267 85.7603
L276.267 51.4115
L262.593 51.4115
z
" style="fill:#ffffff;stroke:#ffffff;"/>
    </g>
    <!-- v0.3.9 -->
    <defs>
     <path d="
M10.9844 1.51562
L10.9844 10.5
Q14.7031 8.73438 18.5 7.8125
Q22.3125 6.89062 25.9844 6.89062
Q35.75 6.89062 40.8906 13.4531
Q46.0469 20.0156 46.7812 33.4062
Q43.9531 29.2031 39.5938 26.9531
Q35.25 24.7031 29.9844 24.7031
Q19.0469 24.7031 12.6719 31.3125
Q6.29688 37.9375 6.29688 49.4219
Q6.29688 60.6406 12.9375 67.4219
Q19.5781 74.2188 30.6094 74.2188
Q43.2656 74.2188 49.9219 64.5156
Q56.5938 54.8281 56.5938 36.375
Q56.5938 19.1406 48.4062 8.85938
Q40.2344 -1.42188 26.4219 -1.42188
Q22.7031 -1.42188 18.8906 -0.6875
Q15.0938 0.046875 10.9844 1.51562
M30.6094 32.4219
Q37.25 32.4219 41.125 36.9531
Q45.0156 41.5 45.0156 49.4219
Q45.0156 57.2812 41.125 61.8438
Q37.25 66.4062 30.6094 66.4062
Q23.9688 66.4062 20.0938 61.8438
Q16.2188 57.2812 16.2188 49.4219
Q16.2188 41.5 20.0938 36.9531
Q23.9688 32.4219 30.6094 32.4219" id="DejaVuSans-39"/>
    </defs>
    <g transform="translate(272.18805264 83.76027)rotate(-90.0)scale(0.09996 -0.09996)">
     <use xlink:href="#DejaVuSans-76"/>
     <use x="59.1796875" xlink:href="#DejaVuSans-30"/>
     <use x="122.802734375" xlink:href="#DejaVuSans-2e"/>
     <use x="154.58984375" xlink:href="#DejaVuSans-33"/>
     <use x="218.212890625" xlink:href="#DejaVuSans-2e"/>
     <use x="250.0" xlink:href="#DejaVuSans-39"/>
    </g>
   </g>
   <g id="text_28">
    <g id="patch_17">
     <path d="
M275.104 130.559
L288.778 130.559
L288.778 89.8115
L275.104 89.8115
z
" style="fill:#ffffff;stroke:#ffffff;"/>
    </g>
    <!-- v0.3.10 -->
    <g transform="translate(284.699263403 128.559271875)rotate(-90.0)scale(0.09996 -0.09996)">
     <use xlink:href="#DejaVuSans-76"/>
     <use x="59.1796875" xlink:href="#DejaVuSans-30"/>
     <use x="122.802734375" xlink:href="#DejaVuSans-2e"/>
     <use x="154.58984375" xlink:href="#DejaVuSans-33"/>
     <use x="218.212890625" xlink:href="#DejaVuSans-2e"/>
     <use x="250.0" xlink:href="#DejaVuSans-31"/>
     <use x="313.623046875" xlink:href="#DejaVuSans-30"/>
    </g>
   </g>
   <g id="text_29">
    <g id="patch_18">
     <path d="
M291.619 91.9
L305.293 91.9
L305.293 51.4115
L291.619 51.4115
z
" style="fill:#ffffff;stroke:#ffffff;"/>
    </g>
    <!-- v0.3.11 -->
    <g transform="translate(301.214061609 89.900000625)rotate(-90.0)scale(0.09996 -0.09996)">
     <use xlink:href="#DejaVuSans-76"/>
     <use x="59.1796875" xlink:href="#DejaVuSans-30"/>
     <use x="122.802734375" xlink:href="#DejaVuSans-2e"/>
     <use x="154.58984375" xlink:href="#DejaVuSans-33"/>
     <use x="218.212890625" xlink:href="#DejaVuSans-2e"/>
     <use x="250.0" xlink:href="#DejaVuSans-31"/>
     <use x="313.623046875" xlink:href="#DejaVuSans-31"/>
    </g>
   </g>
   <g id="text_30">
    <g id="patch_19">
     <path d="
M337.159 130.222
L350.834 130.222
L350.834 89.8115
L337.159 89.8115
z
" style="fill:#ffffff;stroke:#ffffff;"/>
    </g>
    <!-- v0.3.12 -->
    <g transform="translate(346.754868784 128.221906875)rotate(-90.0)scale(0.09996 -0.09996)">
     <use xlink:href="#DejaVuSans-76"/>
     <use x="59.1796875" xlink:href="#DejaVuSans-30"/>
     <use x="122.802734375" xlink:href="#DejaVuSans-2e"/>
     <use x="154.58984375" xlink:href="#DejaVuSans-33"/>
     <use x="218.212890625" xlink:href="#DejaVuSans-2e"/>
     <use x="250.0" xlink:href="#DejaVuSans-31"/>
     <use x="313.623046875" xlink:href="#DejaVuSans-32"/>
    </g>
   </g>
   <g id="text_31">
    <g id="patch_20">
     <path d="
M328.151 229.799
L341.826 229.799
L341.826 195.411
L328.151 195.411
z
" style="fill:#ffffff;stroke:#ffffff;"/>
    </g>
    <!-- v0.4.0 -->
    <g transform="translate(337.746797035 227.799316875)rotate(-90.0)scale(0.09996 -0.09996)">
     <use xlink:href="#DejaVuSans-76"/>
     <use x="59.1796875" xlink:href="#DejaVuSans-30"/>
     <use x="122.802734375" xlink:href="#DejaVuSans-2e"/>
     <use x="154.58984375" xlink:href="#DejaVuSans-34"/>
     <use x="218.212890625" xlink:href="#DejaVuSans-2e"/>
     <use x="250.0" xlink:href="#DejaVuSans-30"/>
    </g>
   </g>
   <g id="text_32">
    <g id="patch_21">
     <path d="
M343.665 200.74
L357.34 200.74
L357.34 166.611
L343.665 166.611
z
" style="fill:#ffffff;stroke:#ffffff;"/>
    </g>
    <!-- v0.4.1 -->
    <g transform="translate(353.26069838 198.740045625)rotate(-90.0)scale(0.09996 -0.09996)">
     <use xlink:href="#DejaVuSans-76"/>
     <use x="59.1796875" xlink:href="#DejaVuSans-30"/>
     <use x="122.802734375" xlink:href="#DejaVuSans-2e"/>
     <use x="154.58984375" xlink:href="#DejaVuSans-34"/>
     <use x="218.212890625" xlink:href="#DejaVuSans-2e"/>
     <use x="250.0" xlink:href="#DejaVuSans-31"/>
    </g>
   </g>
   <g id="text_33">
    <g id="patch_22">
     <path d="
M357.678 229.462
L371.352 229.462
L371.352 195.411
L357.678 195.411
z
" style="fill:#ffffff;stroke:#ffffff;"/>
    </g>
    <!-- v0.4.2 -->
    <g transform="translate(367.273254434 227.461951875)rotate(-90.0)scale(0.09996 -0.09996)">
     <use xlink:href="#DejaVuSans-76"/>
     <use x="59.1796875" xlink:href="#DejaVuSans-30"/>
     <use x="122.802734375" xlink:href="#DejaVuSans-2e"/>
     <use x="154.58984375" xlink:href="#DejaVuSans-34"/>
     <use x="218.212890625" xlink:href="#DejaVuSans-2e"/>
     <use x="250.0" xlink:href="#DejaVuSans-32"/>
    </g>
   </g>
   <g id="text_34">
    <g id="patch_23">
     <path d="
M376.194 200.862
L389.869 200.862
L389.869 166.611
L376.194 166.611
z
" style="fill:#ffffff;stroke:#ffffff;"/>
    </g>
    <!-- v0.4.3 -->
    <g transform="translate(385.789846362 198.861871875)rotate(-90.0)scale(0.09996 -0.09996)">
     <use xlink:href="#DejaVuSans-76"/>
     <use x="59.1796875" xlink:href="#DejaVuSans-30"/>
     <use x="122.802734375" xlink:href="#DejaVuSans-2e"/>
     <use x="154.58984375" xlink:href="#DejaVuSans-34"/>
     <use x="218.212890625" xlink:href="#DejaVuSans-2e"/>
     <use x="250.0" xlink:href="#DejaVuSans-33"/>
    </g>
   </g>
   <g id="text_35">
    <g id="patch_24">
     <path d="
M408.724 229.59
L422.398 229.59
L422.398 195.411
L408.724 195.411
z
" style="fill:#ffffff;stroke:#ffffff;"/>
    </g>
    <!-- v0.4.5 -->
    <g transform="translate(418.318994344 227.590025625)rotate(-90.0)scale(0.09996 -0.09996)">
     <use xlink:href="#DejaVuSans-76"/>
     <use x="59.1796875" xlink:href="#DejaVuSans-30"/>
     <use x="122.802734375" xlink:href="#DejaVuSans-2e"/>
     <use x="154.58984375" xlink:href="#DejaVuSans-34"/>
     <use x="218.212890625" xlink:href="#DejaVuSans-2e"/>
     <use x="250.0" xlink:href="#DejaVuSans-35"/>
    </g>
   </g>
   <g id="text_36">
    <g id="patch_25">
     <path d="
M455.766 201.034
L469.44 201.034
L469.44 166.611
L455.766 166.611
z
" style="fill:#ffffff;stroke:#ffffff;"/>
    </g>
    <!-- v0.4.6 -->
    <g transform="translate(465.361146811 199.033678125)rotate(-90.0)scale(0.09996 -0.09996)">
     <use xlink:href="#DejaVuSans-76"/>
     <use x="59.1796875" xlink:href="#DejaVuSans-30"/>
     <use x="122.802734375" xlink:href="#DejaVuSans-2e"/>
     <use x="154.58984375" xlink:href="#DejaVuSans-34"/>
     <use x="218.212890625" xlink:href="#DejaVuSans-2e"/>
     <use x="250.0" xlink:href="#DejaVuSans-36"/>
    </g>
   </g>
   <g id="text_37">
    <g id="patch_26">
     <path d="
M501.307 229.609
L514.981 229.609
L514.981 195.411
L501.307 195.411
z
" style="fill:#ffffff;stroke:#ffffff;"/>
    </g>
    <!-- v0.4.7 -->
    <g transform="translate(510.901953986 227.608768125)rotate(-90.0)scale(0.09996 -0.09996)">
     <use xlink:href="#DejaVuSans-76"/>
     <use x="59.1796875" xlink:href="#DejaVuSans-30"/>
     <use x="122.802734375" xlink:href="#DejaVuSans-2e"/>
     <use x="154.58984375" xlink:href="#DejaVuSans-34"/>
     <use x="218.212890625" xlink:href="#DejaVuSans-2e"/>
     <use x="250.0" xlink:href="#DejaVuSans-37"/>
    </g>
   </g>
   <g id="text_38">
    <g id="patch_27">
     <path d="
M501.807 133.799
L515.481 133.799
L515.481 99.4115
L501.807 99.4115
z
" style="fill:#ffffff;stroke:#ffffff;"/>
    </g>
    <!-- v0.5.0 -->
    <g transform="translate(511.402402416 131.799316875)rotate(-90.0)scale(0.09996 -0.09996)">
     <use xlink:href="#DejaVuSans-76"/>
     <use x="59.1796875" xlink:href="#DejaVuSans-30"/>
     <use x="122.802734375" xlink:href="#DejaVuSans-2e"/>
     <use x="154.58984375" xlink:href="#DejaVuSans-35"/>
     <use x="218.212890625" xlink:href="#DejaVuSans-2e"/>
     <use x="250.0" xlink:href="#DejaVuSans-30"/>
    </g>
   </g>
   <g id="text_39">
    <g id="patch_28">
     <path d="
M585.382 114.34
L599.056 114.34
L599.056 80.2115
L585.382 80.2115
z
" style="fill:#ffffff;stroke:#ffffff;"/>
    </g>
    <!-- v0.5.1 -->
    <g transform="translate(594.977290308 112.340045625)rotate(-90.0)scale(0.09996 -0.09996)">
     <use xlink:href="#DejaVuSans-76"/>
     <use x="59.1796875" xlink:href="#DejaVuSans-30"/>
     <use x="122.802734375" xlink:href="#DejaVuSans-2e"/>
     <use x="154.58984375" xlink:href="#DejaVuSans-35"/>
     <use x="218.212890625" xlink:href="#DejaVuSans-2e"/>
     <use x="250.0" xlink:href="#DejaVuSans-31"/>
    </g>
   </g>
   <g id="legend_1">
    <g id="patch_29">
     <path d="
M61.2368 94.3649
L111.899 94.3649
L111.899 18.0049
L61.2368 18.0049
L61.2368 94.3649
z
" style="fill:#ffffff;stroke:#000000;"/>
    </g>
    <g id="line2d_60">
     <path d="
M68.234 26.1001
L82.2284 26.1001" style="fill:none;stroke:#ff0000;stroke-linecap:square;stroke-width:2;"/>
    </g>
    <g id="line2d_61"/>
    <g id="text_40">
     <!-- 0.2 -->
     <g transform="translate(93.22395 29.598673125)scale(0.09996 -0.09996)">
      <use xlink:href="#DejaVuSans-30"/>
      <use x="63.623046875" xlink:href="#DejaVuSans-2e"/>
      <use x="95.41015625" xlink:href="#DejaVuSans-32"/>
     </g>
    </g>
    <g id="line2d_62">
     <path d="
M68.234 40.7723
L82.2284 40.7723" style="fill:none;stroke:#008000;stroke-linecap:square;stroke-width:2;"/>
    </g>
    <g id="line2d_63"/>
    <g id="text_41">
     <!-- 0.3 -->
     <g transform="translate(93.22395 44.270926875)scale(0.09996 -0.09996)">
      <use xlink:href="#DejaVuSans-30"/>
      <use x="63.623046875" xlink:href="#DejaVuSans-2e"/>
      <use x="95.41015625" xlink:href="#DejaVuSans-33"/>
     </g>
    </g>
    <g id="line2d_64">
     <path d="
M68.234 55.4446
L82.2284 55.4446" style="fill:none;stroke:#0000ff;stroke-linecap:square;stroke-width:2;"/>
    </g>
    <g id="line2d_65"/>
    <g id="text_42">
     <!-- 0.4 -->
     <g transform="translate(93.22395 58.943180625)scale(0.09996 -0.09996)">
      <use xlink:href="#DejaVuSans-30"/>
      <use x="63.623046875" xlink:href="#DejaVuSans-2e"/>
      <use x="95.41015625" xlink:href="#DejaVuSans-34"/>
     </g>
    </g>
    <g id="line2d_66">
     <path d="
M68.234 70.1168
L82.2284 70.1168" style="fill:none;stroke:#000000;stroke-linecap:square;stroke-width:2;"/>
    </g>
    <g id="line2d_67"/>
    <g id="text_43">
     <!-- 0.5 -->
     <g transform="translate(93.22395 73.615434375)scale(0.09996 -0.09996)">
      <use xlink:href="#DejaVuSans-30"/>
      <use x="63.623046875" xlink:href="#DejaVuSans-2e"/>
      <use x="95.41015625" xlink:href="#DejaVuSans-35"/>
     </g>
    </g>
    <g id="line2d_68">
     <path d="
M68.234 84.7891
L82.2284 84.7891" style="fill:none;stroke:#bfbf00;stroke-linecap:square;stroke-width:2;"/>
    </g>
    <g id="line2d_69"/>
    <g id="text_44">
     <!-- 0.6 -->
     <g transform="translate(93.22395 88.287688125)scale(0.09996 -0.09996)">
      <use xlink:href="#DejaVuSans-30"/>
      <use x="63.623046875" xlink:href="#DejaVuSans-2e"/>
      <use x="95.41015625" xlink:href="#DejaVuSans-36"/>
     </g>
    </g>
   </g>
  </g>
 </g>
 <defs>
  <clipPath id="pd39b4832ff">
   <rect height="230.4" width="558.0" x="56.23875" y="13.006875"/>
  </clipPath>
 </defs>
</svg>
