<?xml version="1.0" encoding="UTF-8"?>
<svg xmlns="http://www.w3.org/2000/svg"
     xmlns:xlink="http://www.w3.org/1999/xlink"
     xmlns:gadfly="http://www.gadflyjl.org/ns"
     version="1.2"
     width="254mm" height="101.6mm" viewBox="0 0 254 101.6"
     stroke="none"
     fill="#000000"
     stroke-width="0.3"
     font-size="3.88"
>
<g class="plotroot xscalable yscalable" id="fig-e2660ce6b3034be1ba1d90ae13e819a6-element-1">
  <g font-size="3.88" font-family="'PT Sans','Helvetica Neue','Helvetica',sans-serif" fill="#564A55" stroke="#000000" stroke-opacity="0.000" id="fig-e2660ce6b3034be1ba1d90ae13e819a6-element-2">
    <text x="127.14" y="89.99" text-anchor="middle" dy="0.6em">Date</text>
  </g>
  <g class="guide xlabels" font-size="2.82" font-family="'PT Sans Caption','Helvetica Neue','Helvetica',sans-serif" fill="#6C606B" id="fig-e2660ce6b3034be1ba1d90ae13e819a6-element-3">
    <text x="22.38" y="83.32" text-anchor="middle" dy="0.6em">Apr</text>
    <text x="33.67" y="83.32" text-anchor="middle" dy="0.6em">May</text>
    <text x="45.33" y="83.32" text-anchor="middle" dy="0.6em">Jun</text>
    <text x="56.61" y="83.32" text-anchor="middle" dy="0.6em">Jul</text>
    <text x="68.27" y="83.32" text-anchor="middle" dy="0.6em">Aug</text>
    <text x="79.94" y="83.32" text-anchor="middle" dy="0.6em">Sep</text>
    <text x="91.22" y="83.32" text-anchor="middle" dy="0.6em">Oct</text>
    <text x="102.88" y="83.32" text-anchor="middle" dy="0.6em">Nov</text>
    <text x="114.17" y="83.32" text-anchor="middle" dy="0.6em">Dec</text>
    <text x="125.83" y="83.32" text-anchor="middle" dy="0.6em">Jan 2015</text>
    <text x="137.49" y="83.32" text-anchor="middle" dy="0.6em">Feb</text>
    <text x="148.02" y="83.32" text-anchor="middle" dy="0.6em">Mar</text>
    <text x="159.68" y="83.32" text-anchor="middle" dy="0.6em">Apr</text>
    <text x="170.96" y="83.32" text-anchor="middle" dy="0.6em">May</text>
    <text x="182.63" y="83.32" text-anchor="middle" dy="0.6em">Jun</text>
    <text x="193.91" y="83.32" text-anchor="middle" dy="0.6em">Jul</text>
    <text x="205.57" y="83.32" text-anchor="middle" dy="0.6em">Aug</text>
    <text x="217.23" y="83.32" text-anchor="middle" dy="0.6em">Sep</text>
    <text x="228.52" y="83.32" text-anchor="middle" dy="0.6em">Oct</text>
  </g>
  <g class="guide colorkey" id="fig-e2660ce6b3034be1ba1d90ae13e819a6-element-4">
    <g fill="#4C404B" font-size="2.82" font-family="'PT Sans','Helvetica Neue','Helvetica',sans-serif" id="fig-e2660ce6b3034be1ba1d90ae13e819a6-element-5">
      <text x="238.47" y="41.84" dy="0.35em" id="fig-e2660ce6b3034be1ba1d90ae13e819a6-element-6" class="color_0.2">0.2</text>
      <text x="238.47" y="45.47" dy="0.35em" id="fig-e2660ce6b3034be1ba1d90ae13e819a6-element-7" class="color_0.3">0.3</text>
      <text x="238.47" y="49.1" dy="0.35em" id="fig-e2660ce6b3034be1ba1d90ae13e819a6-element-8" class="color_0.4">0.4</text>
    </g>
    <g stroke="#000000" stroke-opacity="0.000" id="fig-e2660ce6b3034be1ba1d90ae13e819a6-element-9">
      <rect x="235.65" y="40.94" width="1.81" height="1.81" id="fig-e2660ce6b3034be1ba1d90ae13e819a6-element-10" fill="#00BFFF" class="color_0.2"/>
      <rect x="235.65" y="44.56" width="1.81" height="1.81" id="fig-e2660ce6b3034be1ba1d90ae13e819a6-element-11" fill="#D4CA3A" class="color_0.3"/>
      <rect x="235.65" y="48.19" width="1.81" height="1.81" id="fig-e2660ce6b3034be1ba1d90ae13e819a6-element-12" fill="#FF5EA0" class="color_0.4"/>
    </g>
    <g fill="#362A35" font-size="3.88" font-family="'PT Sans','Helvetica Neue','Helvetica',sans-serif" stroke="#000000" stroke-opacity="0.000" id="fig-e2660ce6b3034be1ba1d90ae13e819a6-element-13">
      <text x="235.65" y="38.02" id="fig-e2660ce6b3034be1ba1d90ae13e819a6-element-14">Julia ver.</text>
    </g>
  </g>
  <g clip-path="url(#fig-e2660ce6b3034be1ba1d90ae13e819a6-element-16)" id="fig-e2660ce6b3034be1ba1d90ae13e819a6-element-15">
    <g pointer-events="visible" opacity="1" fill="#000000" fill-opacity="0.000" stroke="#000000" stroke-opacity="0.000" class="guide background" id="fig-e2660ce6b3034be1ba1d90ae13e819a6-element-17">
      <rect x="19.63" y="5" width="215.02" height="77.32" id="fig-e2660ce6b3034be1ba1d90ae13e819a6-element-18"/>
    </g>
    <g class="guide ygridlines xfixed" stroke-dasharray="0.5,0.5" stroke-width="0.2" stroke="#D0D0E0" id="fig-e2660ce6b3034be1ba1d90ae13e819a6-element-19">
      <path fill="none" d="M19.63,80.32 L 234.65 80.32" id="fig-e2660ce6b3034be1ba1d90ae13e819a6-element-20"/>
      <path fill="none" d="M19.63,61.99 L 234.65 61.99" id="fig-e2660ce6b3034be1ba1d90ae13e819a6-element-21"/>
      <path fill="none" d="M19.63,43.66 L 234.65 43.66" id="fig-e2660ce6b3034be1ba1d90ae13e819a6-element-22"/>
      <path fill="none" d="M19.63,25.33 L 234.65 25.33" id="fig-e2660ce6b3034be1ba1d90ae13e819a6-element-23"/>
      <path fill="none" d="M19.63,7 L 234.65 7" id="fig-e2660ce6b3034be1ba1d90ae13e819a6-element-24"/>
    </g>
    <g class="guide xgridlines yfixed" stroke-dasharray="0.5,0.5" stroke-width="0.2" stroke="#D0D0E0" id="fig-e2660ce6b3034be1ba1d90ae13e819a6-element-25">
      <path fill="none" d="M22.38,5 L 22.38 82.32" id="fig-e2660ce6b3034be1ba1d90ae13e819a6-element-26"/>
      <path fill="none" d="M33.67,5 L 33.67 82.32" id="fig-e2660ce6b3034be1ba1d90ae13e819a6-element-27"/>
      <path fill="none" d="M45.33,5 L 45.33 82.32" id="fig-e2660ce6b3034be1ba1d90ae13e819a6-element-28"/>
      <path fill="none" d="M56.61,5 L 56.61 82.32" id="fig-e2660ce6b3034be1ba1d90ae13e819a6-element-29"/>
      <path fill="none" d="M68.27,5 L 68.27 82.32" id="fig-e2660ce6b3034be1ba1d90ae13e819a6-element-30"/>
      <path fill="none" d="M79.94,5 L 79.94 82.32" id="fig-e2660ce6b3034be1ba1d90ae13e819a6-element-31"/>
      <path fill="none" d="M91.22,5 L 91.22 82.32" id="fig-e2660ce6b3034be1ba1d90ae13e819a6-element-32"/>
      <path fill="none" d="M102.88,5 L 102.88 82.32" id="fig-e2660ce6b3034be1ba1d90ae13e819a6-element-33"/>
      <path fill="none" d="M114.17,5 L 114.17 82.32" id="fig-e2660ce6b3034be1ba1d90ae13e819a6-element-34"/>
      <path fill="none" d="M125.83,5 L 125.83 82.32" id="fig-e2660ce6b3034be1ba1d90ae13e819a6-element-35"/>
      <path fill="none" d="M137.49,5 L 137.49 82.32" id="fig-e2660ce6b3034be1ba1d90ae13e819a6-element-36"/>
      <path fill="none" d="M148.02,5 L 148.02 82.32" id="fig-e2660ce6b3034be1ba1d90ae13e819a6-element-37"/>
      <path fill="none" d="M159.68,5 L 159.68 82.32" id="fig-e2660ce6b3034be1ba1d90ae13e819a6-element-38"/>
      <path fill="none" d="M170.96,5 L 170.96 82.32" id="fig-e2660ce6b3034be1ba1d90ae13e819a6-element-39"/>
      <path fill="none" d="M182.63,5 L 182.63 82.32" id="fig-e2660ce6b3034be1ba1d90ae13e819a6-element-40"/>
      <path fill="none" d="M193.91,5 L 193.91 82.32" id="fig-e2660ce6b3034be1ba1d90ae13e819a6-element-41"/>
      <path fill="none" d="M205.57,5 L 205.57 82.32" id="fig-e2660ce6b3034be1ba1d90ae13e819a6-element-42"/>
      <path fill="none" d="M217.23,5 L 217.23 82.32" id="fig-e2660ce6b3034be1ba1d90ae13e819a6-element-43"/>
      <path fill="none" d="M228.52,5 L 228.52 82.32" id="fig-e2660ce6b3034be1ba1d90ae13e819a6-element-44"/>
    </g>
    <g class="plotpanel" id="fig-e2660ce6b3034be1ba1d90ae13e819a6-element-45">
      <g class="yfixed" stroke-dasharray="none" stroke-width="0.26" stroke="#7F7F7F" id="fig-e2660ce6b3034be1ba1d90ae13e819a6-element-46">
        <path fill="none" d="M75.42,5 L 75.42 82.32" id="fig-e2660ce6b3034be1ba1d90ae13e819a6-element-47"/>
        <path fill="none" d="M87.46,5 L 87.46 82.32" id="fig-e2660ce6b3034be1ba1d90ae13e819a6-element-48"/>
        <path fill="none" d="M98.74,5 L 98.74 82.32" id="fig-e2660ce6b3034be1ba1d90ae13e819a6-element-49"/>
        <path fill="none" d="M111.16,5 L 111.16 82.32" id="fig-e2660ce6b3034be1ba1d90ae13e819a6-element-50"/>
        <path fill="none" d="M123.57,5 L 123.57 82.32" id="fig-e2660ce6b3034be1ba1d90ae13e819a6-element-51"/>
        <path fill="none" d="M128.46,5 L 128.46 82.32" id="fig-e2660ce6b3034be1ba1d90ae13e819a6-element-52"/>
        <path fill="none" d="M143.51,5 L 143.51 82.32" id="fig-e2660ce6b3034be1ba1d90ae13e819a6-element-53"/>
        <path fill="none" d="M156.29,5 L 156.29 82.32" id="fig-e2660ce6b3034be1ba1d90ae13e819a6-element-54"/>
        <path fill="none" d="M170.59,5 L 170.59 82.32" id="fig-e2660ce6b3034be1ba1d90ae13e819a6-element-55"/>
        <path fill="none" d="M181.87,5 L 181.87 82.32" id="fig-e2660ce6b3034be1ba1d90ae13e819a6-element-56"/>
        <path fill="none" d="M181.87,5 L 181.87 82.32" id="fig-e2660ce6b3034be1ba1d90ae13e819a6-element-57"/>
        <path fill="none" d="M191.28,5 L 191.28 82.32" id="fig-e2660ce6b3034be1ba1d90ae13e819a6-element-58"/>
        <path fill="none" d="M203.69,5 L 203.69 82.32" id="fig-e2660ce6b3034be1ba1d90ae13e819a6-element-59"/>
        <path fill="none" d="M231.15,5 L 231.15 82.32" id="fig-e2660ce6b3034be1ba1d90ae13e819a6-element-60"/>
      </g>
      <g class="geometry" stroke="#000000" stroke-opacity="0.000" fill="#4C404B" font-size="2.82" font-family="'PT Sans Caption','Helvetica Neue','Helvetica',sans-serif" id="fig-e2660ce6b3034be1ba1d90ae13e819a6-element-61">
        <text x="74.93" y="71.15" text-anchor="end" dy="0.35em" id="fig-e2660ce6b3034be1ba1d90ae13e819a6-element-62">v0.3.0→</text>
        <text x="86.96" y="71.15" text-anchor="end" dy="0.35em" id="fig-e2660ce6b3034be1ba1d90ae13e819a6-element-63">v0.3.1→</text>
        <text x="98.25" y="71.15" text-anchor="end" dy="0.35em" id="fig-e2660ce6b3034be1ba1d90ae13e819a6-element-64">v0.3.2→</text>
        <text x="110.66" y="71.15" text-anchor="end" dy="0.35em" id="fig-e2660ce6b3034be1ba1d90ae13e819a6-element-65">v0.3.3→</text>
        <text x="123.07" y="71.15" text-anchor="end" dy="0.35em" id="fig-e2660ce6b3034be1ba1d90ae13e819a6-element-66">v0.3.4→</text>
        <text x="127.96" y="71.15" text-anchor="end" dy="0.35em" id="fig-e2660ce6b3034be1ba1d90ae13e819a6-element-67"></text>
        <text x="143.01" y="71.15" text-anchor="end" dy="0.35em" id="fig-e2660ce6b3034be1ba1d90ae13e819a6-element-68">v0.3.6→</text>
        <text x="155.8" y="71.15" text-anchor="end" dy="0.35em" id="fig-e2660ce6b3034be1ba1d90ae13e819a6-element-69">v0.3.7→</text>
        <text x="170.09" y="71.15" text-anchor="end" dy="0.35em" id="fig-e2660ce6b3034be1ba1d90ae13e819a6-element-70">v0.3.8→</text>
        <text x="181.38" y="71.15" text-anchor="end" dy="0.35em" id="fig-e2660ce6b3034be1ba1d90ae13e819a6-element-71">v0.3.9→</text>
        <text x="181.38" y="71.15" text-anchor="end" dy="0.35em" id="fig-e2660ce6b3034be1ba1d90ae13e819a6-element-72">v0.3.9→</text>
        <text x="190.78" y="71.15" text-anchor="end" dy="0.35em" id="fig-e2660ce6b3034be1ba1d90ae13e819a6-element-73"></text>
        <text x="203.19" y="71.15" text-anchor="end" dy="0.35em" id="fig-e2660ce6b3034be1ba1d90ae13e819a6-element-74">v0.3.11→</text>
        <text x="230.65" y="61.99" text-anchor="end" dy="0.35em" id="fig-e2660ce6b3034be1ba1d90ae13e819a6-element-75">v0.4.0→</text>
      </g>
      <g stroke-width="0.79" fill="#000000" fill-opacity="0.000" class="geometry color_0.4" stroke-dasharray="none" stroke="#FF5EA0" id="fig-e2660ce6b3034be1ba1d90ae13e819a6-element-76">
        <path fill="none" d="M72.79,46.96 L 73.16 46.68 73.54 46.59 73.92 46.5 74.29 46.5 74.67 46.5 75.42 46.22 75.8 46.22 76.17 46.13 76.55 46.13 76.93 46.13 77.3 45.86 77.68 45.67 78.05 45.67 78.81 45.49 79.18 45.22 79.94 45.03 80.31 45.03 80.69 45.03 82.19 45.03 83.32 44.48 83.7 44.39 84.07 44.3 84.45 44.12 84.83 44.12 85.2 44.12 85.58 43.38 85.95 43.38 86.33 43.38 87.08 43.29 87.46 43.29 87.83 43.2 88.21 43.2 88.59 43.2 88.96 43.11 89.34 43.11 90.09 43.2 90.47 43.11 90.84 43.11 91.22 42.92 91.6 42.74 91.97 42.74 92.35 42.74 92.72 42.56 93.85 42.37 94.23 42.37 94.61 42.19 94.98 42.1 95.36 42.1 95.73 42.1 96.11 41.92 96.49 41.92 96.86 41.82 97.24 41.73 97.61 41.73 97.99 41.73 98.37 41.73 98.74 41.55 99.12 41.37 99.5 41.37 99.87 41.37 100.25 41.27 100.62 41.27 101 41.18 101.38 41.18 101.75 41 102.13 40.91 102.5 40.91 102.88 40.82 103.26 40.82 103.63 40.82 104.01 40.82 104.39 40.72 104.76 40.63 105.89 40.63 107.77 40.08 108.15 39.9 108.52 39.9 108.9 39.81 109.28 39.81 109.65 39.53 110.03 39.53 111.53 39.08 111.91 39.08 113.79 38.98 114.54 38.98 114.92 38.8 115.29 38.71 115.67 38.71 116.05 38.71 116.42 38.53 116.8 38.34 117.93 38.25 118.3 38.16 119.06 37.79 119.43 37.79 119.81 37.79 120.94 37.79 121.69 37.61 122.82 37.43 124.32 37.24 125.07 36.88 126.2 36.69 128.84 36.05 130.34 35.41 130.72 35.23 131.09 35.23 131.47 34.68 131.84 34.68 132.22 34.68 132.97 34.58 133.35 34.49 133.73 34.49 134.1 34.22 134.48 34.13 134.85 34.13 135.23 34.13 135.98 33.85 136.36 33.58 136.73 33.49 138.24 32.75 138.62 32.75 138.99 33.03 139.74 32.75 140.5 32.48 140.87 32.48 142 32.29 143.88 32.29 145.76 32.2 147.64 31.38 148.02 31.38 148.4 31.38 148.77 31.19 149.15 31.19 149.9 31.01 150.65 31.01 152.16 30.92 152.53 30.74 152.91 30.74 153.29 30.74 153.66 30.55 154.04 30.64 154.41 30.46 158.93 30.09 159.68 30.09 160.06 29.82 160.81 29.82 162.31 29.73 163.07 29.64 163.82 29.36 165.32 29.18 166.07 28.99 166.45 28.72 167.2 28.26 167.58 28.26 167.96 28.17 168.33 27.99 168.71 27.99 169.08 27.89 169.84 27.8 170.21 27.62 170.96 27.62 171.72 27.44 172.09 27.16 172.47 27.07 173.22 26.89 173.6 26.8 175.48 26.43 176.98 26.25 177.36 26.06 180.37 25.79 180.74 25.79 181.12 25.79 182.25 25.42 182.63 25.33 183 25.15 183.75 24.96 184.51 24.96 185.26 24.78 188.64 24.14 189.77 24.14 190.15 24.14 190.52 23.95 190.9 23.95 191.28 23.68 191.65 23.68 192.03 23.68 192.41 23.59 193.53 23.5 194.29 23.31 195.04 23.31 195.41 23.13 195.79 22.76 196.17 22.58 196.54 22.49 196.92 22.49 203.31 21.11 206.32 20.56 209.71 20.11 216.1 17.81 217.23 17.63 219.11 17.26 220.99 16.62 227.01 14.88 228.52 14.33 230.4 13.51 231.9 15.8" id="fig-e2660ce6b3034be1ba1d90ae13e819a6-element-77"/>
      </g>
      <g stroke-width="0.79" fill="#000000" fill-opacity="0.000" class="geometry color_0.3" stroke-dasharray="none" stroke="#D4CA3A" id="fig-e2660ce6b3034be1ba1d90ae13e819a6-element-78">
        <path fill="none" d="M21.63,53.19 L 22.01 53.19 22.38 53.1 22.76 53.1 23.14 53.1 23.51 53.1 23.89 53.1 24.26 53.01 25.02 53.01 25.39 52.91 26.15 52.82 26.9 52.64 27.27 52.64 28.03 52.64 28.4 52.55 31.04 52.18 32.16 52.18 32.92 52.18 35.55 52.09 35.93 51.91 36.3 51.81 36.68 51.81 37.05 51.81 37.43 51.81 37.81 51.81 38.18 51.81 38.56 51.81 38.93 51.81 39.31 51.81 39.69 51.54 40.44 51.45 40.82 51.45 41.19 51.45 41.57 51.26 41.94 51.26 42.32 51.26 42.7 51.17 43.07 51.17 43.45 51.17 43.82 51.17 44.2 51.17 44.58 51.08 44.95 51.08 45.33 54.75 45.71 50.99 46.08 50.9 46.46 50.81 48.71 50.26 49.09 50.16 49.47 50.07 49.84 49.98 50.22 49.8 50.6 49.8 50.97 49.61 51.35 49.61 51.72 49.52 52.1 49.43 52.85 49.43 53.23 49.25 53.6 49.25 53.98 49.25 54.36 49.25 54.73 49.25 55.11 48.97 55.49 48.97 56.24 48.88 56.61 48.7 56.99 48.61 57.37 48.51 57.74 48.51 58.12 48.33 58.87 48.24 59.25 47.96 59.62 47.96 60 47.96 60.75 47.51 61.5 47.23 61.88 47.23 62.26 47.14 62.63 47.14 63.76 47.05 64.14 47.05 64.51 46.96 64.89 46.96 65.27 46.96 65.64 46.87 66.02 46.77 66.39 46.68 67.15 46.68 67.52 46.68 68.27 46.68 68.65 46.59 69.03 46.32 69.4 46.32 70.16 46.22 70.53 46.22 70.91 46.04 71.28 45.95 71.66 45.86 72.04 45.77 72.41 45.67 72.79 45.49 73.16 45.49 73.54 45.4 73.92 45.31 74.29 45.31 74.67 45.31 75.42 45.03 75.8 45.03 76.17 44.94 76.55 44.94 76.93 44.94 77.3 44.67 77.68 44.57 78.05 44.48 78.81 45.58 79.18 45.31 79.94 45.12 80.31 45.12 80.69 45.12 82.19 45.12 83.32 44.57 83.7 44.48 84.07 44.39 84.45 44.21 84.83 44.21 85.2 44.21 85.58 43.47 85.95 43.47 86.33 43.47 87.08 43.47 87.46 43.38 87.83 43.29 88.21 43.29 88.59 43.29 88.96 43.2 89.34 43.2 90.09 43.29 90.47 43.2 90.84 43.2 91.22 43.02 91.6 41.18 91.97 42.83 92.35 42.83 92.72 42.65 93.85 42.47 94.23 42.47 94.61 42.28 94.98 42.19 95.36 42.19 95.73 42.19 96.11 42.01 96.49 42.01 96.86 41.92 97.24 41.82 97.61 41.82 97.99 41.82 98.37 41.82 98.74 41.73 99.12 41.55 99.5 41.55 99.87 41.55 100.25 41.46 100.62 41.46 101 41.37 101.38 41.37 101.75 41.18 102.13 41.09 102.5 41.09 102.88 41 103.26 41 103.63 41 104.01 40.91 104.39 40.91 104.76 40.82 105.89 40.82 107.77 40.36 108.15 40.18 108.52 40.18 108.9 40.08 109.28 40.08 109.65 39.81 110.03 39.81 111.53 39.35 111.91 39.35 113.79 39.26 114.54 39.26 114.92 39.17 115.29 39.08 115.67 39.08 116.05 39.08 116.42 38.89 116.8 38.8 117.93 38.62 118.3 38.53 119.06 38.25 119.43 38.16 119.81 38.16 120.94 38.16 121.69 37.98 122.82 37.79 124.32 37.61 125.07 37.33 126.2 36.97 128.84 36.42 130.34 35.78 130.72 35.59 131.09 35.59 131.47 35.13 131.84 35.13 132.22 35.13 132.97 35.13 133.35 34.95 133.73 34.95 134.1 34.68 134.48 34.58 134.85 34.58 135.23 34.58 135.98 34.31 136.36 34.13 136.73 34.03 138.24 33.3 138.62 33.49 138.99 33.49 139.74 33.21 140.5 32.94 140.87 32.94 142 32.75 143.88 32.75 145.76 32.2 147.64 31.84 148.02 31.84 148.4 31.84 148.77 31.65 149.15 31.65 149.9 31.65 150.65 31.65 152.16 31.47 152.53 31.29 152.91 31.19 153.29 31.19 153.66 31.01 154.04 31.1 154.41 30.92 158.93 30.83 159.68 30.83 160.06 30.55 160.81 30.55 162.31 30.46 163.07 30.46 163.82 30.19 165.32 30.19 166.07 30 166.45 29.91 167.2 29.45 167.58 29.45 167.96 29.36 168.33 29.09 168.71 29.09 169.08 28.99 169.84 28.9 170.21 28.81 170.96 28.81 171.72 28.63 172.09 28.35 172.47 28.26 173.22 28.08 173.6 27.99 175.48 27.62 176.98 27.44 177.36 27.25 180.37 26.89 180.74 26.89 181.12 26.89 182.25 26.61 182.63 26.52 183 26.43 183.75 26.25 184.51 26.25 185.26 26.15 188.64 25.7 189.77 25.79 190.15 25.79 190.52 25.6 190.9 25.6 191.28 25.42 191.65 25.42 192.03 25.42 192.41 25.33 193.53 25.33 194.29 25.15 195.04 25.24 195.41 25.05 195.79 24.69 196.17 24.5 196.54 24.41 196.92 24.41 203.31 23.13 206.32 22.67 209.71 22.21 216.1 20.93 217.23 20.75 219.11 20.65 220.99 20.47 227.01 19.56 228.52 19.1 230.4 18.73 231.9 18.64" id="fig-e2660ce6b3034be1ba1d90ae13e819a6-element-79"/>
      </g>
      <g stroke-width="0.79" fill="#000000" fill-opacity="0.000" class="geometry color_0.2" stroke-dasharray="none" stroke="#00BFFF" id="fig-e2660ce6b3034be1ba1d90ae13e819a6-element-80">
        <path fill="none" d="M21.63,54.2 L 22.01 54.2 22.38 54.1 22.76 54.1 23.14 54.1 23.51 54.1 23.89 54.1 24.26 54.1 25.02 54.1 25.39 54.1 26.15 54.01 26.9 53.92 27.27 53.92 28.03 53.83 28.4 53.74 31.04 53.56 32.16 53.56 32.92 53.56 35.55 53.46 35.93 53.37 36.3 53.37 36.68 53.37 37.05 53.37 37.43 53.37 37.81 53.37 38.18 53.37 38.56 53.37 38.93 53.37 39.31 53.1 39.69 53.1 40.44 53.01 40.82 53.01 41.19 53.01 41.57 52.91 41.94 53.65 42.32 53.19 42.7 53.19 43.07 53.19 43.45 53.19 43.82 53.19 44.2 53.19 44.58 53.19 44.95 53.19 45.33 53.1 45.71 53.1 46.08 53.01 46.46 53.01 48.71 52.55 49.09 52.55 49.47 52.46 49.84 52.36 50.22 52.18 50.6 52.18 50.97 52.18 51.35 52.18 51.72 52.18 52.1 52.09 52.85 52.09 53.23 51.91 53.6 51.91 53.98 51.91 54.36 51.91 54.73 51.91 55.11 51.63 55.49 51.63 56.24 51.54 56.61 51.36 56.99 51.26 57.37 51.17 57.74 51.17 58.12 51.17 58.87 50.99 59.25 50.9 59.62 50.81 60 50.81 60.75 50.62 61.5 50.44 61.88 50.44 62.26 50.44 62.63 50.44 63.76 50.44 64.14 50.44 64.51 50.35 64.89 50.35 65.27 50.35 65.64 50.26 66.02 50.26 66.39 50.26 67.15 50.16 67.52 50.16 68.27 50.16 68.65 50.16 69.03 49.89 69.4 49.89 70.16 50.07 70.53 50.07 70.91 49.89 71.28 49.8 71.66 49.8 72.04 49.61 72.41 49.61" id="fig-e2660ce6b3034be1ba1d90ae13e819a6-element-81"/>
      </g>
    </g>
  </g>
  <g class="guide ylabels" font-size="2.82" font-family="'PT Sans Caption','Helvetica Neue','Helvetica',sans-serif" fill="#6C606B" id="fig-e2660ce6b3034be1ba1d90ae13e819a6-element-82">
    <text x="18.63" y="80.32" text-anchor="end" dy="0.35em" id="fig-e2660ce6b3034be1ba1d90ae13e819a6-element-83">0</text>
    <text x="18.63" y="61.99" text-anchor="end" dy="0.35em" id="fig-e2660ce6b3034be1ba1d90ae13e819a6-element-84">200</text>
    <text x="18.63" y="43.66" text-anchor="end" dy="0.35em" id="fig-e2660ce6b3034be1ba1d90ae13e819a6-element-85">400</text>
    <text x="18.63" y="25.33" text-anchor="end" dy="0.35em" id="fig-e2660ce6b3034be1ba1d90ae13e819a6-element-86">600</text>
    <text x="18.63" y="7" text-anchor="end" dy="0.35em" id="fig-e2660ce6b3034be1ba1d90ae13e819a6-element-87">800</text>
  </g>
  <g font-size="3.88" font-family="'PT Sans','Helvetica Neue','Helvetica',sans-serif" fill="#564A55" stroke="#000000" stroke-opacity="0.000" id="fig-e2660ce6b3034be1ba1d90ae13e819a6-element-88">
    <text x="8.81" y="41.66" text-anchor="middle" dy="0.35em" transform="rotate(-90, 8.81, 43.66)" id="fig-e2660ce6b3034be1ba1d90ae13e819a6-element-89">Number of Tagged Packages</text>
  </g>
</g>
<defs>
<clipPath id="fig-e2660ce6b3034be1ba1d90ae13e819a6-element-16">
  <path d="M19.63,5 L 234.65 5 234.65 82.32 19.63 82.32" />
</clipPath
></defs>
</svg>
