<?xml version="1.0" encoding="utf-8" standalone="no"?>
<!DOCTYPE svg PUBLIC "-//W3C//DTD SVG 1.1//EN"
  "http://www.w3.org/Graphics/SVG/1.1/DTD/svg11.dtd">
<!-- Created with matplotlib (http://matplotlib.org/) -->
<svg height="309pt" version="1.1" viewBox="0 0 615 309" width="615pt" xmlns="http://www.w3.org/2000/svg" xmlns:xlink="http://www.w3.org/1999/xlink">
 <defs>
  <style type="text/css">
*{stroke-linecap:butt;stroke-linejoin:round;stroke-miterlimit:100000;}
  </style>
 </defs>
 <g id="figure_1">
  <g id="patch_1">
   <path d="M 0 309.720625 
L 615.91875 309.720625 
L 615.91875 0 
L 0 0 
z
" style="fill:#ffffff;"/>
  </g>
  <g id="axes_1">
   <g id="patch_2">
    <path d="M 50.71875 243.406875 
L 608.71875 243.406875 
L 608.71875 13.006875 
L 50.71875 13.006875 
z
" style="fill:#ffffff;"/>
   </g>
   <g id="line2d_1">
    <path clip-path="url(#p0c42d8a415)" d="M 155.635185 198.972589 
L 154.858026 198.972589 
L 154.080867 199.630875 
L 153.303708 199.630875 
L 152.526549 199.960018 
L 151.749391 200.618304 
L 150.972232 200.618304 
L 149.417914 199.960018 
L 148.640756 199.960018 
L 147.863597 200.947446 
L 147.086438 200.947446 
L 145.53212 200.947446 
L 144.754962 200.947446 
L 143.200644 201.276589 
L 142.423485 201.276589 
L 141.646327 201.276589 
L 140.869168 201.605732 
L 140.092009 201.605732 
L 139.31485 201.605732 
L 138.537692 201.934875 
L 137.760533 201.934875 
L 135.429056 201.934875 
L 134.651898 201.934875 
L 133.874739 201.934875 
L 133.09758 201.934875 
L 131.543263 202.593161 
L 129.988945 203.251446 
L 129.211786 203.251446 
L 128.434627 203.580589 
L 127.657469 203.909732 
L 126.103151 204.568018 
L 125.325992 204.568018 
L 124.548834 204.568018 
L 123.771675 204.897161 
L 122.994516 205.226304 
L 122.217357 205.884589 
L 120.66304 206.213732 
L 119.885881 206.213732 
L 119.108722 207.201161 
L 118.331563 207.201161 
L 117.554405 207.201161 
L 116.777246 207.201161 
L 116.000087 207.201161 
L 115.222928 207.859446 
L 113.668611 207.859446 
L 112.891452 208.188589 
L 112.114293 208.188589 
L 111.337134 208.188589 
L 110.559976 208.188589 
L 109.782817 208.188589 
L 109.005658 208.846875 
L 108.228499 209.176018 
L 107.451341 209.505161 
L 106.674182 209.505161 
L 102.011229 211.150875 
L 101.23407 211.150875 
L 100.456912 211.480018 
L 99.679753 211.480018 
L 98.902594 211.809161 
L 98.125435 211.809161 
L 97.348276 211.809161 
L 96.571118 211.809161 
L 95.793959 211.809161 
L 95.0168 211.809161 
L 94.239641 211.809161 
L 93.462483 211.809161 
L 92.685324 213.454875 
L 91.908165 210.821732 
L 91.131006 211.150875 
L 90.353847 211.150875 
L 89.576689 211.150875 
L 88.022371 211.480018 
L 87.245212 211.480018 
L 86.468054 212.467446 
L 85.690895 212.467446 
L 84.913736 212.467446 
L 84.136577 212.467446 
L 83.359419 212.467446 
L 82.58226 212.467446 
L 81.805101 212.467446 
L 81.027942 212.467446 
L 80.250783 212.467446 
L 79.473625 212.796589 
L 74.033513 213.125732 
L 72.479196 213.125732 
L 70.147719 213.125732 
L 64.707608 213.784018 
L 63.930449 214.113161 
L 62.376132 214.442304 
L 61.598973 214.442304 
L 60.044655 214.771446 
L 58.490338 215.100589 
L 57.713179 215.100589 
L 56.158861 215.100589 
L 55.381703 215.100589 
L 54.604544 215.100589 
L 53.827385 215.100589 
L 53.050226 215.100589 
L 52.273068 215.100589 
L 51.495909 215.429732 
L 50.71875 215.429732 
" style="fill:none;stroke:#ff0000;stroke-linecap:square;stroke-width:2.0;"/>
   </g>
   <g id="line2d_2">
    <path clip-path="url(#p0c42d8a415)" d="M 608.71875 82.456018 
L 596.28421 83.114304 
L 578.409558 83.114304 
L 573.746605 83.772589 
L 570.63797 83.772589 
L 554.317636 84.101732 
L 537.220143 84.101732 
L 533.334349 84.430875 
L 527.894237 84.760018 
L 527.117079 85.089161 
L 520.899808 85.747446 
L 513.90538 85.747446 
L 512.351062 86.405732 
L 509.242427 85.747446 
L 490.590616 86.405732 
L 488.25914 87.064018 
L 485.150505 87.722304 
L 482.04187 88.051446 
L 478.156076 89.368018 
L 475.047441 91.013732 
L 462.6129 94.305161 
L 458.727107 94.963446 
L 454.841313 95.292589 
L 452.509836 95.950875 
L 439.298137 100.558875 
L 432.303708 102.204589 
L 426.086438 103.850304 
L 412.874739 108.458304 
L 412.09758 108.458304 
L 411.320421 108.787446 
L 410.543263 109.445732 
L 409.766104 110.762304 
L 408.988945 111.420589 
L 407.434627 111.091446 
L 405.88031 111.749732 
L 403.548834 111.749732 
L 402.771675 112.078875 
L 401.217357 112.078875 
L 400.440198 112.737161 
L 399.66304 112.737161 
L 398.885881 113.395446 
L 398.108722 113.395446 
L 395.777246 113.066304 
L 387.228499 115.041161 
L 385.674182 115.041161 
L 380.23407 117.345161 
L 378.679753 117.345161 
L 372.462483 118.661732 
L 371.685324 119.320018 
L 368.576689 119.978304 
L 363.913736 121.624018 
L 361.58226 122.611446 
L 360.805101 123.598875 
L 359.250783 124.257161 
L 357.696466 124.257161 
L 356.919307 124.586304 
L 355.36499 124.915446 
L 354.587831 125.244589 
L 353.810672 125.244589 
L 353.033513 126.232018 
L 352.256354 126.561161 
L 351.479196 126.561161 
L 349.924878 128.206875 
L 347.593402 129.194304 
L 344.484767 129.194304 
L 342.930449 130.181732 
L 341.376132 130.181732 
L 338.267497 130.510875 
L 336.713179 130.510875 
L 335.93602 131.498304 
L 334.381703 131.498304 
L 325.055797 131.827446 
L 324.278639 132.485732 
L 323.50148 132.156589 
L 322.724321 132.814875 
L 321.947162 132.814875 
L 321.170003 133.144018 
L 320.392845 133.802304 
L 317.28421 134.460589 
L 313.398416 134.460589 
L 312.621257 135.118875 
L 311.066939 135.118875 
L 307.181146 136.435446 
L 303.295352 138.410304 
L 299.409558 138.410304 
L 297.078081 139.068589 
L 296.300923 139.068589 
L 293.192288 141.043446 
L 292.415129 141.043446 
L 291.63797 140.385161 
L 288.529335 143.018304 
L 287.752176 143.347446 
L 286.975017 144.005732 
L 285.4207 144.993161 
L 283.866382 144.993161 
L 283.089224 145.322304 
L 282.312065 146.309732 
L 281.534906 146.309732 
L 280.757747 146.968018 
L 277.649112 146.968018 
L 276.871953 148.613732 
L 276.094795 148.613732 
L 275.317636 149.272018 
L 272.209001 151.576018 
L 266.768889 153.550875 
L 262.883095 155.854875 
L 259.77446 156.513161 
L 257.442984 157.171446 
L 255.888666 157.829732 
L 252.780031 157.829732 
L 252.002873 158.158875 
L 250.448555 159.146304 
L 249.671396 159.475446 
L 246.562761 160.462875 
L 245.785602 161.121161 
L 244.231285 161.121161 
L 242.676967 161.779446 
L 241.12265 161.779446 
L 236.459697 162.108589 
L 233.351062 163.754304 
L 232.573903 163.754304 
L 231.796744 164.741732 
L 231.019586 164.741732 
L 230.242427 165.070875 
L 229.465268 165.070875 
L 228.688109 165.729161 
L 224.802315 167.374875 
L 222.470839 167.374875 
L 221.69368 167.704018 
L 220.916522 167.704018 
L 220.139363 168.033161 
L 218.585045 168.033161 
L 217.807886 168.362304 
L 217.030728 168.362304 
L 216.253569 168.691446 
L 215.47641 169.349732 
L 214.699251 169.349732 
L 213.922093 169.678875 
L 213.144934 169.678875 
L 212.367775 170.008018 
L 210.813458 170.008018 
L 210.036299 170.666304 
L 209.25914 170.995446 
L 206.927664 170.995446 
L 205.373346 171.653732 
L 204.596187 171.653732 
L 203.819029 172.312018 
L 202.264711 172.312018 
L 201.487552 172.641161 
L 200.710393 173.299446 
L 199.933235 173.299446 
L 197.601758 173.957732 
L 196.8246 174.616018 
L 196.047441 174.616018 
L 195.270282 168.691446 
L 194.493123 175.274304 
L 193.715964 175.932589 
L 192.938806 175.932589 
L 192.161647 176.261732 
L 190.607329 175.932589 
L 189.830171 175.932589 
L 189.053012 176.261732 
L 187.498694 176.261732 
L 185.944377 176.920018 
L 182.835742 176.920018 
L 182.058583 179.553161 
L 180.504265 179.553161 
L 179.727107 180.211446 
L 178.172789 180.869732 
L 175.841313 182.844589 
L 171.17836 182.844589 
L 169.624042 183.502875 
L 168.846884 184.490304 
L 167.292566 180.540589 
L 165.738249 181.198875 
L 164.96109 182.186304 
L 163.406772 182.186304 
L 162.629614 182.515446 
L 161.852455 182.515446 
L 160.298137 183.502875 
L 158.74382 183.502875 
L 157.189502 184.161161 
L 156.412343 184.161161 
L 155.635185 184.819446 
L 152.526549 186.136018 
L 151.749391 186.794304 
L 150.972232 186.794304 
L 149.417914 187.123446 
L 148.640756 187.123446 
L 147.863597 188.110875 
L 147.086438 188.440018 
L 143.200644 188.440018 
L 140.869168 189.427446 
L 139.31485 189.427446 
L 138.537692 189.756589 
L 137.760533 189.756589 
L 133.09758 190.414875 
L 131.543263 191.402304 
L 129.988945 193.048018 
L 128.434627 193.048018 
L 127.657469 194.035446 
L 126.103151 194.364589 
L 125.325992 195.022875 
L 124.548834 195.022875 
L 122.994516 195.681161 
L 122.217357 196.339446 
L 120.66304 196.668589 
L 119.885881 196.668589 
L 119.108722 197.656018 
L 116.000087 197.656018 
L 115.222928 198.314304 
L 113.668611 198.314304 
L 112.114293 198.972589 
L 111.337134 198.972589 
L 110.559976 199.630875 
L 109.782817 199.630875 
L 109.005658 200.289161 
L 100.456912 203.909732 
L 99.679753 217.404589 
L 98.902594 204.238875 
L 98.125435 204.238875 
L 97.348276 204.568018 
L 94.239641 204.568018 
L 93.462483 204.897161 
L 91.908165 204.897161 
L 91.131006 205.555446 
L 89.576689 205.555446 
L 88.022371 205.884589 
L 87.245212 206.872018 
L 81.027942 206.872018 
L 80.250783 207.201161 
L 79.473625 207.859446 
L 72.479196 208.188589 
L 70.147719 208.188589 
L 64.707608 209.505161 
L 63.930449 209.834304 
L 61.598973 209.834304 
L 60.044655 210.492589 
L 58.490338 210.821732 
L 57.713179 211.150875 
L 56.158861 211.150875 
L 55.381703 211.480018 
L 52.273068 211.480018 
L 51.495909 211.809161 
L 50.71875 211.809161 
L 50.71875 211.809161 
" style="fill:none;stroke:#008000;stroke-linecap:square;stroke-width:2.0;"/>
   </g>
   <g id="line2d_3">
    <path clip-path="url(#p0c42d8a415)" d="M 608.71875 20.248018 
L 596.28421 30.780589 
L 578.409558 37.363446 
L 573.746605 40.654875 
L 570.63797 43.617161 
L 554.317636 49.870875 
L 537.220143 55.466304 
L 533.334349 56.453732 
L 527.117079 59.416018 
L 521.676967 61.061732 
L 520.899808 61.061732 
L 513.90538 62.378304 
L 512.351062 63.694875 
L 509.242427 64.024018 
L 499.916522 67.644589 
L 490.590616 74.885732 
L 488.25914 75.873161 
L 485.150505 77.518875 
L 482.04187 69.290304 
L 478.156076 72.252589 
L 475.047441 74.227446 
L 462.6129 80.481161 
L 458.727107 82.785161 
L 454.841313 84.101732 
L 452.509836 84.760018 
L 439.298137 92.988589 
L 432.303708 94.634304 
L 426.086438 96.609161 
L 412.874739 101.546304 
L 412.09758 101.546304 
L 411.320421 101.875446 
L 410.543263 102.533732 
L 409.766104 103.850304 
L 408.988945 104.508589 
L 407.434627 104.508589 
L 405.88031 105.166875 
L 403.548834 105.496018 
L 402.771675 105.825161 
L 401.217357 105.825161 
L 400.440198 106.812589 
L 399.66304 106.812589 
L 398.885881 107.470875 
L 395.777246 107.470875 
L 388.782817 109.774875 
L 387.228499 110.433161 
L 385.674182 110.433161 
L 384.119864 111.091446 
L 383.342705 111.749732 
L 382.565547 112.078875 
L 380.23407 113.395446 
L 378.679753 113.395446 
L 372.462483 114.382875 
L 371.685324 115.041161 
L 368.576689 115.699446 
L 363.913736 117.345161 
L 361.58226 118.332589 
L 360.805101 119.320018 
L 359.250783 119.978304 
L 357.696466 119.978304 
L 356.919307 120.636589 
L 355.36499 120.965732 
L 354.587831 121.294875 
L 353.810672 121.294875 
L 353.033513 121.953161 
L 352.256354 122.282304 
L 351.479196 122.282304 
L 349.924878 123.928018 
L 349.147719 124.915446 
L 347.593402 125.573732 
L 344.484767 126.232018 
L 342.930449 127.219446 
L 341.376132 127.548589 
L 338.267497 127.877732 
L 336.713179 127.877732 
L 335.93602 128.865161 
L 334.381703 128.865161 
L 325.055797 130.181732 
L 324.278639 130.840018 
L 323.50148 130.510875 
L 322.724321 131.169161 
L 321.170003 131.169161 
L 320.392845 131.827446 
L 317.28421 132.156589 
L 315.729892 132.156589 
L 314.175575 132.814875 
L 313.398416 132.814875 
L 312.621257 133.473161 
L 311.066939 133.473161 
L 307.181146 136.435446 
L 303.295352 136.764589 
L 299.409558 136.764589 
L 297.078081 137.422875 
L 296.300923 137.422875 
L 293.192288 139.397732 
L 292.415129 138.410304 
L 291.63797 138.410304 
L 288.529335 141.043446 
L 287.752176 141.372589 
L 286.975017 142.360018 
L 285.4207 143.347446 
L 283.866382 143.347446 
L 283.089224 143.676589 
L 282.312065 144.664018 
L 281.534906 144.664018 
L 280.757747 144.993161 
L 279.20343 145.322304 
L 277.649112 145.322304 
L 276.871953 147.297161 
L 276.094795 147.297161 
L 275.317636 147.955446 
L 272.209001 150.259446 
L 266.768889 152.563446 
L 264.437413 153.221732 
L 262.883095 154.538304 
L 259.77446 155.196589 
L 257.442984 155.854875 
L 255.888666 156.513161 
L 252.002873 156.513161 
L 250.448555 157.829732 
L 249.671396 158.158875 
L 247.33992 158.488018 
L 245.785602 159.804589 
L 244.231285 159.804589 
L 243.454126 160.133732 
L 242.676967 160.792018 
L 241.12265 160.792018 
L 236.459697 161.121161 
L 233.351062 162.766875 
L 232.573903 162.766875 
L 231.796744 163.754304 
L 231.019586 163.754304 
L 230.242427 164.083446 
L 229.465268 164.083446 
L 228.688109 164.741732 
L 224.802315 166.716589 
L 222.470839 166.716589 
L 220.916522 167.374875 
L 218.585045 167.374875 
L 217.807886 167.704018 
L 217.030728 167.704018 
L 216.253569 168.033161 
L 215.47641 168.691446 
L 214.699251 168.691446 
L 213.922093 169.020589 
L 213.144934 169.020589 
L 212.367775 169.349732 
L 210.813458 169.349732 
L 209.25914 170.666304 
L 206.927664 170.666304 
L 205.373346 171.324589 
L 204.596187 171.324589 
L 203.819029 171.982875 
L 202.264711 171.982875 
L 201.487552 172.312018 
L 200.710393 172.970304 
L 199.933235 172.970304 
L 197.601758 173.628589 
L 196.8246 174.286875 
L 195.270282 174.286875 
L 193.715964 175.603446 
L 192.938806 175.603446 
L 192.161647 175.932589 
L 190.607329 175.603446 
L 189.830171 175.603446 
L 189.053012 175.932589 
L 187.498694 175.932589 
L 186.721536 176.261732 
L 185.944377 176.261732 
L 184.390059 176.590875 
L 182.835742 176.590875 
L 182.058583 179.224018 
L 180.504265 179.224018 
L 179.727107 179.882304 
L 178.172789 180.540589 
L 175.841313 182.515446 
L 171.17836 182.515446 
L 169.624042 183.173732 
L 168.846884 184.161161 
L 167.292566 184.819446 
L 166.515407 184.819446 
L 165.738249 185.477732 
L 164.96109 186.465161 
L 163.406772 186.465161 
L 162.629614 186.794304 
L 161.852455 186.794304 
L 160.298137 187.781732 
L 158.74382 187.781732 
L 157.189502 188.440018 
L 156.412343 189.427446 
L 156.412343 189.427446 
" style="fill:none;stroke:#0000ff;stroke-linecap:square;stroke-width:2.0;"/>
   </g>
   <g id="line2d_4">
    <path clip-path="url(#p0c42d8a415)" d="M 608.71875 20.577161 
L 596.28421 30.780589 
L 578.409558 37.692589 
L 573.746605 40.654875 
L 570.63797 43.617161 
L 554.317636 50.200018 
L 537.220143 55.466304 
L 533.334349 56.453732 
L 527.894237 58.428589 
L 527.117079 59.086875 
L 521.676967 60.732589 
L 520.899808 60.732589 
" style="fill:none;stroke:#000000;stroke-linecap:square;stroke-width:2.0;"/>
   </g>
   <g id="line2d_5">
    <path clip-path="url(#p0c42d8a415)" d="M 161.852455 243.406875 
L 161.852455 13.006875 
" style="fill:none;stroke:#333333;stroke-linecap:square;"/>
   </g>
   <g id="line2d_6">
    <path clip-path="url(#p0c42d8a415)" d="M 186.721536 243.406875 
L 186.721536 13.006875 
" style="fill:none;stroke:#cccccc;stroke-linecap:square;"/>
   </g>
   <g id="line2d_7">
    <path clip-path="url(#p0c42d8a415)" d="M 210.036299 243.406875 
L 210.036299 13.006875 
" style="fill:none;stroke:#cccccc;stroke-linecap:square;"/>
   </g>
   <g id="line2d_8">
    <path clip-path="url(#p0c42d8a415)" d="M 235.682538 243.406875 
L 235.682538 13.006875 
" style="fill:none;stroke:#cccccc;stroke-linecap:square;"/>
   </g>
   <g id="line2d_9">
    <path clip-path="url(#p0c42d8a415)" d="M 261.328778 243.406875 
L 261.328778 13.006875 
" style="fill:none;stroke:#cccccc;stroke-linecap:square;"/>
   </g>
   <g id="line2d_10">
    <path clip-path="url(#p0c42d8a415)" d="M 271.431842 243.406875 
L 271.431842 13.006875 
" style="fill:none;stroke:#cccccc;stroke-linecap:square;"/>
   </g>
   <g id="line2d_11">
    <path clip-path="url(#p0c42d8a415)" d="M 302.518193 243.406875 
L 302.518193 13.006875 
" style="fill:none;stroke:#cccccc;stroke-linecap:square;"/>
   </g>
   <g id="line2d_12">
    <path clip-path="url(#p0c42d8a415)" d="M 328.941591 243.406875 
L 328.941591 13.006875 
" style="fill:none;stroke:#cccccc;stroke-linecap:square;"/>
   </g>
   <g id="line2d_13">
    <path clip-path="url(#p0c42d8a415)" d="M 358.473625 243.406875 
L 358.473625 13.006875 
" style="fill:none;stroke:#cccccc;stroke-linecap:square;"/>
   </g>
   <g id="line2d_14">
    <path clip-path="url(#p0c42d8a415)" d="M 381.788388 243.406875 
L 381.788388 13.006875 
" style="fill:none;stroke:#cccccc;stroke-linecap:square;"/>
   </g>
   <g id="line2d_15">
    <path clip-path="url(#p0c42d8a415)" d="M 401.217357 243.406875 
L 401.217357 13.006875 
" style="fill:none;stroke:#cccccc;stroke-linecap:square;"/>
   </g>
   <g id="line2d_16">
    <path clip-path="url(#p0c42d8a415)" d="M 426.863597 243.406875 
L 426.863597 13.006875 
" style="fill:none;stroke:#cccccc;stroke-linecap:square;"/>
   </g>
   <g id="line2d_17">
    <path clip-path="url(#p0c42d8a415)" d="M 497.585045 243.406875 
L 497.585045 13.006875 
" style="fill:none;stroke:#cccccc;stroke-linecap:square;"/>
   </g>
   <g id="line2d_18">
    <path clip-path="url(#p0c42d8a415)" d="M 483.596187 243.406875 
L 483.596187 13.006875 
" style="fill:none;stroke:#333333;stroke-linecap:square;"/>
   </g>
   <g id="line2d_19">
    <path clip-path="url(#p0c42d8a415)" d="M 507.688109 243.406875 
L 507.688109 13.006875 
" style="fill:none;stroke:#cccccc;stroke-linecap:square;"/>
   </g>
   <g id="line2d_20">
    <path clip-path="url(#p0c42d8a415)" d="M 529.448555 243.406875 
L 529.448555 13.006875 
" style="fill:none;stroke:#cccccc;stroke-linecap:square;"/>
   </g>
   <g id="line2d_21">
    <path clip-path="url(#p0c42d8a415)" d="M 558.20343 243.406875 
L 558.20343 13.006875 
" style="fill:none;stroke:#cccccc;stroke-linecap:square;"/>
   </g>
   <g id="patch_3">
    <path d="M 50.71875 13.006875 
L 608.71875 13.006875 
" style="fill:none;stroke:#000000;stroke-linecap:square;stroke-linejoin:miter;"/>
   </g>
   <g id="patch_4">
    <path d="M 608.71875 243.406875 
L 608.71875 13.006875 
" style="fill:none;stroke:#000000;stroke-linecap:square;stroke-linejoin:miter;"/>
   </g>
   <g id="patch_5">
    <path d="M 50.71875 243.406875 
L 608.71875 243.406875 
" style="fill:none;stroke:#000000;stroke-linecap:square;stroke-linejoin:miter;"/>
   </g>
   <g id="patch_6">
    <path d="M 50.71875 243.406875 
L 50.71875 13.006875 
" style="fill:none;stroke:#000000;stroke-linecap:square;stroke-linejoin:miter;"/>
   </g>
   <g id="matplotlib.axis_1">
    <g id="xtick_1">
     <g id="line2d_22">
      <defs>
       <path d="M 0 0 
L 0 -4 
" id="m67bd225ca7" style="stroke:#000000;stroke-width:0.5;"/>
      </defs>
      <g>
       <use style="stroke:#000000;stroke-width:0.5;" x="52.2730675488" xlink:href="#m67bd225ca7" y="243.406875"/>
      </g>
     </g>
     <g id="line2d_23">
      <defs>
       <path d="M 0 0 
L 0 4 
" id="m80303dfee7" style="stroke:#000000;stroke-width:0.5;"/>
      </defs>
      <g>
       <use style="stroke:#000000;stroke-width:0.5;" x="52.2730675488" xlink:href="#m80303dfee7" y="13.006875"/>
      </g>
     </g>
     <g id="text_1">
      <!-- Apr 2014 -->
      <defs>
       <path d="M 19.1875 8.296875 
L 53.609375 8.296875 
L 53.609375 0 
L 7.328125 0 
L 7.328125 8.296875 
Q 12.9375 14.109375 22.625 23.890625 
Q 32.328125 33.6875 34.8125 36.53125 
Q 39.546875 41.84375 41.421875 45.53125 
Q 43.3125 49.21875 43.3125 52.78125 
Q 43.3125 58.59375 39.234375 62.25 
Q 35.15625 65.921875 28.609375 65.921875 
Q 23.96875 65.921875 18.8125 64.3125 
Q 13.671875 62.703125 7.8125 59.421875 
L 7.8125 69.390625 
Q 13.765625 71.78125 18.9375 73 
Q 24.125 74.21875 28.421875 74.21875 
Q 39.75 74.21875 46.484375 68.546875 
Q 53.21875 62.890625 53.21875 53.421875 
Q 53.21875 48.921875 51.53125 44.890625 
Q 49.859375 40.875 45.40625 35.40625 
Q 44.1875 33.984375 37.640625 27.21875 
Q 31.109375 20.453125 19.1875 8.296875 
" id="BitstreamVeraSans-Roman-32"/>
       <path id="BitstreamVeraSans-Roman-20"/>
       <path d="M 31.78125 66.40625 
Q 24.171875 66.40625 20.328125 58.90625 
Q 16.5 51.421875 16.5 36.375 
Q 16.5 21.390625 20.328125 13.890625 
Q 24.171875 6.390625 31.78125 6.390625 
Q 39.453125 6.390625 43.28125 13.890625 
Q 47.125 21.390625 47.125 36.375 
Q 47.125 51.421875 43.28125 58.90625 
Q 39.453125 66.40625 31.78125 66.40625 
M 31.78125 74.21875 
Q 44.046875 74.21875 50.515625 64.515625 
Q 56.984375 54.828125 56.984375 36.375 
Q 56.984375 17.96875 50.515625 8.265625 
Q 44.046875 -1.421875 31.78125 -1.421875 
Q 19.53125 -1.421875 13.0625 8.265625 
Q 6.59375 17.96875 6.59375 36.375 
Q 6.59375 54.828125 13.0625 64.515625 
Q 19.53125 74.21875 31.78125 74.21875 
" id="BitstreamVeraSans-Roman-30"/>
       <path d="M 12.40625 8.296875 
L 28.515625 8.296875 
L 28.515625 63.921875 
L 10.984375 60.40625 
L 10.984375 69.390625 
L 28.421875 72.90625 
L 38.28125 72.90625 
L 38.28125 8.296875 
L 54.390625 8.296875 
L 54.390625 0 
L 12.40625 0 
z
" id="BitstreamVeraSans-Roman-31"/>
       <path d="M 37.796875 64.3125 
L 12.890625 25.390625 
L 37.796875 25.390625 
z
M 35.203125 72.90625 
L 47.609375 72.90625 
L 47.609375 25.390625 
L 58.015625 25.390625 
L 58.015625 17.1875 
L 47.609375 17.1875 
L 47.609375 0 
L 37.796875 0 
L 37.796875 17.1875 
L 4.890625 17.1875 
L 4.890625 26.703125 
z
" id="BitstreamVeraSans-Roman-34"/>
       <path d="M 34.1875 63.1875 
L 20.796875 26.90625 
L 47.609375 26.90625 
z
M 28.609375 72.90625 
L 39.796875 72.90625 
L 67.578125 0 
L 57.328125 0 
L 50.6875 18.703125 
L 17.828125 18.703125 
L 11.1875 0 
L 0.78125 0 
z
" id="BitstreamVeraSans-Roman-41"/>
       <path d="M 41.109375 46.296875 
Q 39.59375 47.171875 37.8125 47.578125 
Q 36.03125 48 33.890625 48 
Q 26.265625 48 22.1875 43.046875 
Q 18.109375 38.09375 18.109375 28.8125 
L 18.109375 0 
L 9.078125 0 
L 9.078125 54.6875 
L 18.109375 54.6875 
L 18.109375 46.1875 
Q 20.953125 51.171875 25.484375 53.578125 
Q 30.03125 56 36.53125 56 
Q 37.453125 56 38.578125 55.875 
Q 39.703125 55.765625 41.0625 55.515625 
z
" id="BitstreamVeraSans-Roman-72"/>
       <path d="M 18.109375 8.203125 
L 18.109375 -20.796875 
L 9.078125 -20.796875 
L 9.078125 54.6875 
L 18.109375 54.6875 
L 18.109375 46.390625 
Q 20.953125 51.265625 25.265625 53.625 
Q 29.59375 56 35.59375 56 
Q 45.5625 56 51.78125 48.09375 
Q 58.015625 40.1875 58.015625 27.296875 
Q 58.015625 14.40625 51.78125 6.484375 
Q 45.5625 -1.421875 35.59375 -1.421875 
Q 29.59375 -1.421875 25.265625 0.953125 
Q 20.953125 3.328125 18.109375 8.203125 
M 48.6875 27.296875 
Q 48.6875 37.203125 44.609375 42.84375 
Q 40.53125 48.484375 33.40625 48.484375 
Q 26.265625 48.484375 22.1875 42.84375 
Q 18.109375 37.203125 18.109375 27.296875 
Q 18.109375 17.390625 22.1875 11.75 
Q 26.265625 6.109375 33.40625 6.109375 
Q 40.53125 6.109375 44.609375 11.75 
Q 48.6875 17.390625 48.6875 27.296875 
" id="BitstreamVeraSans-Roman-70"/>
      </defs>
      <g transform="translate(55.5843175488 302.520625)rotate(-90.0)scale(0.12 -0.12)">
       <use xlink:href="#BitstreamVeraSans-Roman-41"/>
       <use x="68.408203125" xlink:href="#BitstreamVeraSans-Roman-70"/>
       <use x="131.884765625" xlink:href="#BitstreamVeraSans-Roman-72"/>
       <use x="172.998046875" xlink:href="#BitstreamVeraSans-Roman-20"/>
       <use x="204.78515625" xlink:href="#BitstreamVeraSans-Roman-32"/>
       <use x="268.408203125" xlink:href="#BitstreamVeraSans-Roman-30"/>
       <use x="332.03125" xlink:href="#BitstreamVeraSans-Roman-31"/>
       <use x="395.654296875" xlink:href="#BitstreamVeraSans-Roman-34"/>
      </g>
     </g>
    </g>
    <g id="xtick_2">
     <g id="line2d_24">
      <g>
       <use style="stroke:#000000;stroke-width:0.5;" x="122.994516017" xlink:href="#m67bd225ca7" y="243.406875"/>
      </g>
     </g>
     <g id="line2d_25">
      <g>
       <use style="stroke:#000000;stroke-width:0.5;" x="122.994516017" xlink:href="#m80303dfee7" y="13.006875"/>
      </g>
     </g>
     <g id="text_2">
      <!-- Jul 2014 -->
      <defs>
       <path d="M 8.5 21.578125 
L 8.5 54.6875 
L 17.484375 54.6875 
L 17.484375 21.921875 
Q 17.484375 14.15625 20.5 10.265625 
Q 23.53125 6.390625 29.59375 6.390625 
Q 36.859375 6.390625 41.078125 11.03125 
Q 45.3125 15.671875 45.3125 23.6875 
L 45.3125 54.6875 
L 54.296875 54.6875 
L 54.296875 0 
L 45.3125 0 
L 45.3125 8.40625 
Q 42.046875 3.421875 37.71875 1 
Q 33.40625 -1.421875 27.6875 -1.421875 
Q 18.265625 -1.421875 13.375 4.4375 
Q 8.5 10.296875 8.5 21.578125 
" id="BitstreamVeraSans-Roman-75"/>
       <path d="M 9.421875 75.984375 
L 18.40625 75.984375 
L 18.40625 0 
L 9.421875 0 
z
" id="BitstreamVeraSans-Roman-6c"/>
       <path d="M 9.8125 72.90625 
L 19.671875 72.90625 
L 19.671875 5.078125 
Q 19.671875 -8.109375 14.671875 -14.0625 
Q 9.671875 -20.015625 -1.421875 -20.015625 
L -5.171875 -20.015625 
L -5.171875 -11.71875 
L -2.09375 -11.71875 
Q 4.4375 -11.71875 7.125 -8.046875 
Q 9.8125 -4.390625 9.8125 5.078125 
z
" id="BitstreamVeraSans-Roman-4a"/>
      </defs>
      <g transform="translate(126.305766017 296.239375)rotate(-90.0)scale(0.12 -0.12)">
       <use xlink:href="#BitstreamVeraSans-Roman-4a"/>
       <use x="29.4921875" xlink:href="#BitstreamVeraSans-Roman-75"/>
       <use x="92.87109375" xlink:href="#BitstreamVeraSans-Roman-6c"/>
       <use x="120.654296875" xlink:href="#BitstreamVeraSans-Roman-20"/>
       <use x="152.44140625" xlink:href="#BitstreamVeraSans-Roman-32"/>
       <use x="216.064453125" xlink:href="#BitstreamVeraSans-Roman-30"/>
       <use x="279.6875" xlink:href="#BitstreamVeraSans-Roman-31"/>
       <use x="343.310546875" xlink:href="#BitstreamVeraSans-Roman-34"/>
      </g>
     </g>
    </g>
    <g id="xtick_3">
     <g id="line2d_26">
      <g>
       <use style="stroke:#000000;stroke-width:0.5;" x="194.493123259" xlink:href="#m67bd225ca7" y="243.406875"/>
      </g>
     </g>
     <g id="line2d_27">
      <g>
       <use style="stroke:#000000;stroke-width:0.5;" x="194.493123259" xlink:href="#m80303dfee7" y="13.006875"/>
      </g>
     </g>
     <g id="text_3">
      <!-- Oct 2014 -->
      <defs>
       <path d="M 39.40625 66.21875 
Q 28.65625 66.21875 22.328125 58.203125 
Q 16.015625 50.203125 16.015625 36.375 
Q 16.015625 22.609375 22.328125 14.59375 
Q 28.65625 6.59375 39.40625 6.59375 
Q 50.140625 6.59375 56.421875 14.59375 
Q 62.703125 22.609375 62.703125 36.375 
Q 62.703125 50.203125 56.421875 58.203125 
Q 50.140625 66.21875 39.40625 66.21875 
M 39.40625 74.21875 
Q 54.734375 74.21875 63.90625 63.9375 
Q 73.09375 53.65625 73.09375 36.375 
Q 73.09375 19.140625 63.90625 8.859375 
Q 54.734375 -1.421875 39.40625 -1.421875 
Q 24.03125 -1.421875 14.8125 8.828125 
Q 5.609375 19.09375 5.609375 36.375 
Q 5.609375 53.65625 14.8125 63.9375 
Q 24.03125 74.21875 39.40625 74.21875 
" id="BitstreamVeraSans-Roman-4f"/>
       <path d="M 18.3125 70.21875 
L 18.3125 54.6875 
L 36.8125 54.6875 
L 36.8125 47.703125 
L 18.3125 47.703125 
L 18.3125 18.015625 
Q 18.3125 11.328125 20.140625 9.421875 
Q 21.96875 7.515625 27.59375 7.515625 
L 36.8125 7.515625 
L 36.8125 0 
L 27.59375 0 
Q 17.1875 0 13.234375 3.875 
Q 9.28125 7.765625 9.28125 18.015625 
L 9.28125 47.703125 
L 2.6875 47.703125 
L 2.6875 54.6875 
L 9.28125 54.6875 
L 9.28125 70.21875 
z
" id="BitstreamVeraSans-Roman-74"/>
       <path d="M 48.78125 52.59375 
L 48.78125 44.1875 
Q 44.96875 46.296875 41.140625 47.34375 
Q 37.3125 48.390625 33.40625 48.390625 
Q 24.65625 48.390625 19.8125 42.84375 
Q 14.984375 37.3125 14.984375 27.296875 
Q 14.984375 17.28125 19.8125 11.734375 
Q 24.65625 6.203125 33.40625 6.203125 
Q 37.3125 6.203125 41.140625 7.25 
Q 44.96875 8.296875 48.78125 10.40625 
L 48.78125 2.09375 
Q 45.015625 0.34375 40.984375 -0.53125 
Q 36.96875 -1.421875 32.421875 -1.421875 
Q 20.0625 -1.421875 12.78125 6.34375 
Q 5.515625 14.109375 5.515625 27.296875 
Q 5.515625 40.671875 12.859375 48.328125 
Q 20.21875 56 33.015625 56 
Q 37.15625 56 41.109375 55.140625 
Q 45.0625 54.296875 48.78125 52.59375 
" id="BitstreamVeraSans-Roman-63"/>
      </defs>
      <g transform="translate(197.804373259 302.509375)rotate(-90.0)scale(0.12 -0.12)">
       <use xlink:href="#BitstreamVeraSans-Roman-4f"/>
       <use x="78.7109375" xlink:href="#BitstreamVeraSans-Roman-63"/>
       <use x="133.69140625" xlink:href="#BitstreamVeraSans-Roman-74"/>
       <use x="172.900390625" xlink:href="#BitstreamVeraSans-Roman-20"/>
       <use x="204.6875" xlink:href="#BitstreamVeraSans-Roman-32"/>
       <use x="268.310546875" xlink:href="#BitstreamVeraSans-Roman-30"/>
       <use x="331.93359375" xlink:href="#BitstreamVeraSans-Roman-31"/>
       <use x="395.556640625" xlink:href="#BitstreamVeraSans-Roman-34"/>
      </g>
     </g>
    </g>
    <g id="xtick_4">
     <g id="line2d_28">
      <g>
       <use style="stroke:#000000;stroke-width:0.5;" x="265.991730501" xlink:href="#m67bd225ca7" y="243.406875"/>
      </g>
     </g>
     <g id="line2d_29">
      <g>
       <use style="stroke:#000000;stroke-width:0.5;" x="265.991730501" xlink:href="#m80303dfee7" y="13.006875"/>
      </g>
     </g>
     <g id="text_4">
      <!-- Jan 2015 -->
      <defs>
       <path d="M 54.890625 33.015625 
L 54.890625 0 
L 45.90625 0 
L 45.90625 32.71875 
Q 45.90625 40.484375 42.875 44.328125 
Q 39.84375 48.1875 33.796875 48.1875 
Q 26.515625 48.1875 22.3125 43.546875 
Q 18.109375 38.921875 18.109375 30.90625 
L 18.109375 0 
L 9.078125 0 
L 9.078125 54.6875 
L 18.109375 54.6875 
L 18.109375 46.1875 
Q 21.34375 51.125 25.703125 53.5625 
Q 30.078125 56 35.796875 56 
Q 45.21875 56 50.046875 50.171875 
Q 54.890625 44.34375 54.890625 33.015625 
" id="BitstreamVeraSans-Roman-6e"/>
       <path d="M 34.28125 27.484375 
Q 23.390625 27.484375 19.1875 25 
Q 14.984375 22.515625 14.984375 16.5 
Q 14.984375 11.71875 18.140625 8.90625 
Q 21.296875 6.109375 26.703125 6.109375 
Q 34.1875 6.109375 38.703125 11.40625 
Q 43.21875 16.703125 43.21875 25.484375 
L 43.21875 27.484375 
z
M 52.203125 31.203125 
L 52.203125 0 
L 43.21875 0 
L 43.21875 8.296875 
Q 40.140625 3.328125 35.546875 0.953125 
Q 30.953125 -1.421875 24.3125 -1.421875 
Q 15.921875 -1.421875 10.953125 3.296875 
Q 6 8.015625 6 15.921875 
Q 6 25.140625 12.171875 29.828125 
Q 18.359375 34.515625 30.609375 34.515625 
L 43.21875 34.515625 
L 43.21875 35.40625 
Q 43.21875 41.609375 39.140625 45 
Q 35.0625 48.390625 27.6875 48.390625 
Q 23 48.390625 18.546875 47.265625 
Q 14.109375 46.140625 10.015625 43.890625 
L 10.015625 52.203125 
Q 14.9375 54.109375 19.578125 55.046875 
Q 24.21875 56 28.609375 56 
Q 40.484375 56 46.34375 49.84375 
Q 52.203125 43.703125 52.203125 31.203125 
" id="BitstreamVeraSans-Roman-61"/>
       <path d="M 10.796875 72.90625 
L 49.515625 72.90625 
L 49.515625 64.59375 
L 19.828125 64.59375 
L 19.828125 46.734375 
Q 21.96875 47.46875 24.109375 47.828125 
Q 26.265625 48.1875 28.421875 48.1875 
Q 40.625 48.1875 47.75 41.5 
Q 54.890625 34.8125 54.890625 23.390625 
Q 54.890625 11.625 47.5625 5.09375 
Q 40.234375 -1.421875 26.90625 -1.421875 
Q 22.3125 -1.421875 17.546875 -0.640625 
Q 12.796875 0.140625 7.71875 1.703125 
L 7.71875 11.625 
Q 12.109375 9.234375 16.796875 8.0625 
Q 21.484375 6.890625 26.703125 6.890625 
Q 35.15625 6.890625 40.078125 11.328125 
Q 45.015625 15.765625 45.015625 23.390625 
Q 45.015625 31 40.078125 35.4375 
Q 35.15625 39.890625 26.703125 39.890625 
Q 22.75 39.890625 18.8125 39.015625 
Q 14.890625 38.140625 10.796875 36.28125 
z
" id="BitstreamVeraSans-Roman-35"/>
      </defs>
      <g transform="translate(269.302980501 300.259375)rotate(-90.0)scale(0.12 -0.12)">
       <use xlink:href="#BitstreamVeraSans-Roman-4a"/>
       <use x="29.4921875" xlink:href="#BitstreamVeraSans-Roman-61"/>
       <use x="90.771484375" xlink:href="#BitstreamVeraSans-Roman-6e"/>
       <use x="154.150390625" xlink:href="#BitstreamVeraSans-Roman-20"/>
       <use x="185.9375" xlink:href="#BitstreamVeraSans-Roman-32"/>
       <use x="249.560546875" xlink:href="#BitstreamVeraSans-Roman-30"/>
       <use x="313.18359375" xlink:href="#BitstreamVeraSans-Roman-31"/>
       <use x="376.806640625" xlink:href="#BitstreamVeraSans-Roman-35"/>
      </g>
     </g>
    </g>
    <g id="xtick_5">
     <g id="line2d_30">
      <g>
       <use style="stroke:#000000;stroke-width:0.5;" x="335.936020195" xlink:href="#m67bd225ca7" y="243.406875"/>
      </g>
     </g>
     <g id="line2d_31">
      <g>
       <use style="stroke:#000000;stroke-width:0.5;" x="335.936020195" xlink:href="#m80303dfee7" y="13.006875"/>
      </g>
     </g>
     <g id="text_5">
      <!-- Apr 2015 -->
      <g transform="translate(339.247270195 302.520625)rotate(-90.0)scale(0.12 -0.12)">
       <use xlink:href="#BitstreamVeraSans-Roman-41"/>
       <use x="68.408203125" xlink:href="#BitstreamVeraSans-Roman-70"/>
       <use x="131.884765625" xlink:href="#BitstreamVeraSans-Roman-72"/>
       <use x="172.998046875" xlink:href="#BitstreamVeraSans-Roman-20"/>
       <use x="204.78515625" xlink:href="#BitstreamVeraSans-Roman-32"/>
       <use x="268.408203125" xlink:href="#BitstreamVeraSans-Roman-30"/>
       <use x="332.03125" xlink:href="#BitstreamVeraSans-Roman-31"/>
       <use x="395.654296875" xlink:href="#BitstreamVeraSans-Roman-35"/>
      </g>
     </g>
    </g>
    <g id="xtick_6">
     <g id="line2d_32">
      <g>
       <use style="stroke:#000000;stroke-width:0.5;" x="406.657468663" xlink:href="#m67bd225ca7" y="243.406875"/>
      </g>
     </g>
     <g id="line2d_33">
      <g>
       <use style="stroke:#000000;stroke-width:0.5;" x="406.657468663" xlink:href="#m80303dfee7" y="13.006875"/>
      </g>
     </g>
     <g id="text_6">
      <!-- Jul 2015 -->
      <g transform="translate(409.968718663 296.239375)rotate(-90.0)scale(0.12 -0.12)">
       <use xlink:href="#BitstreamVeraSans-Roman-4a"/>
       <use x="29.4921875" xlink:href="#BitstreamVeraSans-Roman-75"/>
       <use x="92.87109375" xlink:href="#BitstreamVeraSans-Roman-6c"/>
       <use x="120.654296875" xlink:href="#BitstreamVeraSans-Roman-20"/>
       <use x="152.44140625" xlink:href="#BitstreamVeraSans-Roman-32"/>
       <use x="216.064453125" xlink:href="#BitstreamVeraSans-Roman-30"/>
       <use x="279.6875" xlink:href="#BitstreamVeraSans-Roman-31"/>
       <use x="343.310546875" xlink:href="#BitstreamVeraSans-Roman-35"/>
      </g>
     </g>
    </g>
    <g id="xtick_7">
     <g id="line2d_34">
      <g>
       <use style="stroke:#000000;stroke-width:0.5;" x="478.156075905" xlink:href="#m67bd225ca7" y="243.406875"/>
      </g>
     </g>
     <g id="line2d_35">
      <g>
       <use style="stroke:#000000;stroke-width:0.5;" x="478.156075905" xlink:href="#m80303dfee7" y="13.006875"/>
      </g>
     </g>
     <g id="text_7">
      <!-- Oct 2015 -->
      <g transform="translate(481.467325905 302.509375)rotate(-90.0)scale(0.12 -0.12)">
       <use xlink:href="#BitstreamVeraSans-Roman-4f"/>
       <use x="78.7109375" xlink:href="#BitstreamVeraSans-Roman-63"/>
       <use x="133.69140625" xlink:href="#BitstreamVeraSans-Roman-74"/>
       <use x="172.900390625" xlink:href="#BitstreamVeraSans-Roman-20"/>
       <use x="204.6875" xlink:href="#BitstreamVeraSans-Roman-32"/>
       <use x="268.310546875" xlink:href="#BitstreamVeraSans-Roman-30"/>
       <use x="331.93359375" xlink:href="#BitstreamVeraSans-Roman-31"/>
       <use x="395.556640625" xlink:href="#BitstreamVeraSans-Roman-35"/>
      </g>
     </g>
    </g>
    <g id="xtick_8">
     <g id="line2d_36">
      <g>
       <use style="stroke:#000000;stroke-width:0.5;" x="549.654683148" xlink:href="#m67bd225ca7" y="243.406875"/>
      </g>
     </g>
     <g id="line2d_37">
      <g>
       <use style="stroke:#000000;stroke-width:0.5;" x="549.654683148" xlink:href="#m80303dfee7" y="13.006875"/>
      </g>
     </g>
     <g id="text_8">
      <!-- Jan 2016 -->
      <defs>
       <path d="M 33.015625 40.375 
Q 26.375 40.375 22.484375 35.828125 
Q 18.609375 31.296875 18.609375 23.390625 
Q 18.609375 15.53125 22.484375 10.953125 
Q 26.375 6.390625 33.015625 6.390625 
Q 39.65625 6.390625 43.53125 10.953125 
Q 47.40625 15.53125 47.40625 23.390625 
Q 47.40625 31.296875 43.53125 35.828125 
Q 39.65625 40.375 33.015625 40.375 
M 52.59375 71.296875 
L 52.59375 62.3125 
Q 48.875 64.0625 45.09375 64.984375 
Q 41.3125 65.921875 37.59375 65.921875 
Q 27.828125 65.921875 22.671875 59.328125 
Q 17.53125 52.734375 16.796875 39.40625 
Q 19.671875 43.65625 24.015625 45.921875 
Q 28.375 48.1875 33.59375 48.1875 
Q 44.578125 48.1875 50.953125 41.515625 
Q 57.328125 34.859375 57.328125 23.390625 
Q 57.328125 12.15625 50.6875 5.359375 
Q 44.046875 -1.421875 33.015625 -1.421875 
Q 20.359375 -1.421875 13.671875 8.265625 
Q 6.984375 17.96875 6.984375 36.375 
Q 6.984375 53.65625 15.1875 63.9375 
Q 23.390625 74.21875 37.203125 74.21875 
Q 40.921875 74.21875 44.703125 73.484375 
Q 48.484375 72.75 52.59375 71.296875 
" id="BitstreamVeraSans-Roman-36"/>
      </defs>
      <g transform="translate(552.965933148 300.259375)rotate(-90.0)scale(0.12 -0.12)">
       <use xlink:href="#BitstreamVeraSans-Roman-4a"/>
       <use x="29.4921875" xlink:href="#BitstreamVeraSans-Roman-61"/>
       <use x="90.771484375" xlink:href="#BitstreamVeraSans-Roman-6e"/>
       <use x="154.150390625" xlink:href="#BitstreamVeraSans-Roman-20"/>
       <use x="185.9375" xlink:href="#BitstreamVeraSans-Roman-32"/>
       <use x="249.560546875" xlink:href="#BitstreamVeraSans-Roman-30"/>
       <use x="313.18359375" xlink:href="#BitstreamVeraSans-Roman-31"/>
       <use x="376.806640625" xlink:href="#BitstreamVeraSans-Roman-36"/>
      </g>
     </g>
    </g>
   </g>
   <g id="matplotlib.axis_2">
    <g id="ytick_1">
     <g id="line2d_38">
      <defs>
       <path d="M 0 0 
L 4 0 
" id="m163d7784c7" style="stroke:#000000;stroke-width:0.5;"/>
      </defs>
      <g>
       <use style="stroke:#000000;stroke-width:0.5;" x="50.71875" xlink:href="#m163d7784c7" y="243.406875"/>
      </g>
     </g>
     <g id="line2d_39">
      <defs>
       <path d="M 0 0 
L -4 0 
" id="m019fbe4791" style="stroke:#000000;stroke-width:0.5;"/>
      </defs>
      <g>
       <use style="stroke:#000000;stroke-width:0.5;" x="608.71875" xlink:href="#m019fbe4791" y="243.406875"/>
      </g>
     </g>
     <g id="text_9">
      <!-- 200 -->
      <g transform="translate(23.81375 246.718125)scale(0.12 -0.12)">
       <use xlink:href="#BitstreamVeraSans-Roman-32"/>
       <use x="63.623046875" xlink:href="#BitstreamVeraSans-Roman-30"/>
       <use x="127.24609375" xlink:href="#BitstreamVeraSans-Roman-30"/>
      </g>
     </g>
    </g>
    <g id="ytick_2">
     <g id="line2d_40">
      <g>
       <use style="stroke:#000000;stroke-width:0.5;" x="50.71875" xlink:href="#m163d7784c7" y="210.492589286"/>
      </g>
     </g>
     <g id="line2d_41">
      <g>
       <use style="stroke:#000000;stroke-width:0.5;" x="608.71875" xlink:href="#m019fbe4791" y="210.492589286"/>
      </g>
     </g>
     <g id="text_10">
      <!-- 300 -->
      <defs>
       <path d="M 40.578125 39.3125 
Q 47.65625 37.796875 51.625 33 
Q 55.609375 28.21875 55.609375 21.1875 
Q 55.609375 10.40625 48.1875 4.484375 
Q 40.765625 -1.421875 27.09375 -1.421875 
Q 22.515625 -1.421875 17.65625 -0.515625 
Q 12.796875 0.390625 7.625 2.203125 
L 7.625 11.71875 
Q 11.71875 9.328125 16.59375 8.109375 
Q 21.484375 6.890625 26.8125 6.890625 
Q 36.078125 6.890625 40.9375 10.546875 
Q 45.796875 14.203125 45.796875 21.1875 
Q 45.796875 27.640625 41.28125 31.265625 
Q 36.765625 34.90625 28.71875 34.90625 
L 20.21875 34.90625 
L 20.21875 43.015625 
L 29.109375 43.015625 
Q 36.375 43.015625 40.234375 45.921875 
Q 44.09375 48.828125 44.09375 54.296875 
Q 44.09375 59.90625 40.109375 62.90625 
Q 36.140625 65.921875 28.71875 65.921875 
Q 24.65625 65.921875 20.015625 65.03125 
Q 15.375 64.15625 9.8125 62.3125 
L 9.8125 71.09375 
Q 15.4375 72.65625 20.34375 73.4375 
Q 25.25 74.21875 29.59375 74.21875 
Q 40.828125 74.21875 47.359375 69.109375 
Q 53.90625 64.015625 53.90625 55.328125 
Q 53.90625 49.265625 50.4375 45.09375 
Q 46.96875 40.921875 40.578125 39.3125 
" id="BitstreamVeraSans-Roman-33"/>
      </defs>
      <g transform="translate(23.81375 213.803839286)scale(0.12 -0.12)">
       <use xlink:href="#BitstreamVeraSans-Roman-33"/>
       <use x="63.623046875" xlink:href="#BitstreamVeraSans-Roman-30"/>
       <use x="127.24609375" xlink:href="#BitstreamVeraSans-Roman-30"/>
      </g>
     </g>
    </g>
    <g id="ytick_3">
     <g id="line2d_42">
      <g>
       <use style="stroke:#000000;stroke-width:0.5;" x="50.71875" xlink:href="#m163d7784c7" y="177.578303571"/>
      </g>
     </g>
     <g id="line2d_43">
      <g>
       <use style="stroke:#000000;stroke-width:0.5;" x="608.71875" xlink:href="#m019fbe4791" y="177.578303571"/>
      </g>
     </g>
     <g id="text_11">
      <!-- 400 -->
      <g transform="translate(23.81375 180.889553571)scale(0.12 -0.12)">
       <use xlink:href="#BitstreamVeraSans-Roman-34"/>
       <use x="63.623046875" xlink:href="#BitstreamVeraSans-Roman-30"/>
       <use x="127.24609375" xlink:href="#BitstreamVeraSans-Roman-30"/>
      </g>
     </g>
    </g>
    <g id="ytick_4">
     <g id="line2d_44">
      <g>
       <use style="stroke:#000000;stroke-width:0.5;" x="50.71875" xlink:href="#m163d7784c7" y="144.664017857"/>
      </g>
     </g>
     <g id="line2d_45">
      <g>
       <use style="stroke:#000000;stroke-width:0.5;" x="608.71875" xlink:href="#m019fbe4791" y="144.664017857"/>
      </g>
     </g>
     <g id="text_12">
      <!-- 500 -->
      <g transform="translate(23.81375 147.975267857)scale(0.12 -0.12)">
       <use xlink:href="#BitstreamVeraSans-Roman-35"/>
       <use x="63.623046875" xlink:href="#BitstreamVeraSans-Roman-30"/>
       <use x="127.24609375" xlink:href="#BitstreamVeraSans-Roman-30"/>
      </g>
     </g>
    </g>
    <g id="ytick_5">
     <g id="line2d_46">
      <g>
       <use style="stroke:#000000;stroke-width:0.5;" x="50.71875" xlink:href="#m163d7784c7" y="111.749732143"/>
      </g>
     </g>
     <g id="line2d_47">
      <g>
       <use style="stroke:#000000;stroke-width:0.5;" x="608.71875" xlink:href="#m019fbe4791" y="111.749732143"/>
      </g>
     </g>
     <g id="text_13">
      <!-- 600 -->
      <g transform="translate(23.81375 115.060982143)scale(0.12 -0.12)">
       <use xlink:href="#BitstreamVeraSans-Roman-36"/>
       <use x="63.623046875" xlink:href="#BitstreamVeraSans-Roman-30"/>
       <use x="127.24609375" xlink:href="#BitstreamVeraSans-Roman-30"/>
      </g>
     </g>
    </g>
    <g id="ytick_6">
     <g id="line2d_48">
      <g>
       <use style="stroke:#000000;stroke-width:0.5;" x="50.71875" xlink:href="#m163d7784c7" y="78.8354464286"/>
      </g>
     </g>
     <g id="line2d_49">
      <g>
       <use style="stroke:#000000;stroke-width:0.5;" x="608.71875" xlink:href="#m019fbe4791" y="78.8354464286"/>
      </g>
     </g>
     <g id="text_14">
      <!-- 700 -->
      <defs>
       <path d="M 8.203125 72.90625 
L 55.078125 72.90625 
L 55.078125 68.703125 
L 28.609375 0 
L 18.3125 0 
L 43.21875 64.59375 
L 8.203125 64.59375 
z
" id="BitstreamVeraSans-Roman-37"/>
      </defs>
      <g transform="translate(23.81375 82.1466964286)scale(0.12 -0.12)">
       <use xlink:href="#BitstreamVeraSans-Roman-37"/>
       <use x="63.623046875" xlink:href="#BitstreamVeraSans-Roman-30"/>
       <use x="127.24609375" xlink:href="#BitstreamVeraSans-Roman-30"/>
      </g>
     </g>
    </g>
    <g id="ytick_7">
     <g id="line2d_50">
      <g>
       <use style="stroke:#000000;stroke-width:0.5;" x="50.71875" xlink:href="#m163d7784c7" y="45.9211607143"/>
      </g>
     </g>
     <g id="line2d_51">
      <g>
       <use style="stroke:#000000;stroke-width:0.5;" x="608.71875" xlink:href="#m019fbe4791" y="45.9211607143"/>
      </g>
     </g>
     <g id="text_15">
      <!-- 800 -->
      <defs>
       <path d="M 31.78125 34.625 
Q 24.75 34.625 20.71875 30.859375 
Q 16.703125 27.09375 16.703125 20.515625 
Q 16.703125 13.921875 20.71875 10.15625 
Q 24.75 6.390625 31.78125 6.390625 
Q 38.8125 6.390625 42.859375 10.171875 
Q 46.921875 13.96875 46.921875 20.515625 
Q 46.921875 27.09375 42.890625 30.859375 
Q 38.875 34.625 31.78125 34.625 
M 21.921875 38.8125 
Q 15.578125 40.375 12.03125 44.71875 
Q 8.5 49.078125 8.5 55.328125 
Q 8.5 64.0625 14.71875 69.140625 
Q 20.953125 74.21875 31.78125 74.21875 
Q 42.671875 74.21875 48.875 69.140625 
Q 55.078125 64.0625 55.078125 55.328125 
Q 55.078125 49.078125 51.53125 44.71875 
Q 48 40.375 41.703125 38.8125 
Q 48.828125 37.15625 52.796875 32.3125 
Q 56.78125 27.484375 56.78125 20.515625 
Q 56.78125 9.90625 50.3125 4.234375 
Q 43.84375 -1.421875 31.78125 -1.421875 
Q 19.734375 -1.421875 13.25 4.234375 
Q 6.78125 9.90625 6.78125 20.515625 
Q 6.78125 27.484375 10.78125 32.3125 
Q 14.796875 37.15625 21.921875 38.8125 
M 18.3125 54.390625 
Q 18.3125 48.734375 21.84375 45.5625 
Q 25.390625 42.390625 31.78125 42.390625 
Q 38.140625 42.390625 41.71875 45.5625 
Q 45.3125 48.734375 45.3125 54.390625 
Q 45.3125 60.0625 41.71875 63.234375 
Q 38.140625 66.40625 31.78125 66.40625 
Q 25.390625 66.40625 21.84375 63.234375 
Q 18.3125 60.0625 18.3125 54.390625 
" id="BitstreamVeraSans-Roman-38"/>
      </defs>
      <g transform="translate(23.81375 49.2324107143)scale(0.12 -0.12)">
       <use xlink:href="#BitstreamVeraSans-Roman-38"/>
       <use x="63.623046875" xlink:href="#BitstreamVeraSans-Roman-30"/>
       <use x="127.24609375" xlink:href="#BitstreamVeraSans-Roman-30"/>
      </g>
     </g>
    </g>
    <g id="ytick_8">
     <g id="line2d_52">
      <g>
       <use style="stroke:#000000;stroke-width:0.5;" x="50.71875" xlink:href="#m163d7784c7" y="13.006875"/>
      </g>
     </g>
     <g id="line2d_53">
      <g>
       <use style="stroke:#000000;stroke-width:0.5;" x="608.71875" xlink:href="#m019fbe4791" y="13.006875"/>
      </g>
     </g>
     <g id="text_16">
      <!-- 900 -->
      <defs>
       <path d="M 10.984375 1.515625 
L 10.984375 10.5 
Q 14.703125 8.734375 18.5 7.8125 
Q 22.3125 6.890625 25.984375 6.890625 
Q 35.75 6.890625 40.890625 13.453125 
Q 46.046875 20.015625 46.78125 33.40625 
Q 43.953125 29.203125 39.59375 26.953125 
Q 35.25 24.703125 29.984375 24.703125 
Q 19.046875 24.703125 12.671875 31.3125 
Q 6.296875 37.9375 6.296875 49.421875 
Q 6.296875 60.640625 12.9375 67.421875 
Q 19.578125 74.21875 30.609375 74.21875 
Q 43.265625 74.21875 49.921875 64.515625 
Q 56.59375 54.828125 56.59375 36.375 
Q 56.59375 19.140625 48.40625 8.859375 
Q 40.234375 -1.421875 26.421875 -1.421875 
Q 22.703125 -1.421875 18.890625 -0.6875 
Q 15.09375 0.046875 10.984375 1.515625 
M 30.609375 32.421875 
Q 37.25 32.421875 41.125 36.953125 
Q 45.015625 41.5 45.015625 49.421875 
Q 45.015625 57.28125 41.125 61.84375 
Q 37.25 66.40625 30.609375 66.40625 
Q 23.96875 66.40625 20.09375 61.84375 
Q 16.21875 57.28125 16.21875 49.421875 
Q 16.21875 41.5 20.09375 36.953125 
Q 23.96875 32.421875 30.609375 32.421875 
" id="BitstreamVeraSans-Roman-39"/>
      </defs>
      <g transform="translate(23.81375 16.318125)scale(0.12 -0.12)">
       <use xlink:href="#BitstreamVeraSans-Roman-39"/>
       <use x="63.623046875" xlink:href="#BitstreamVeraSans-Roman-30"/>
       <use x="127.24609375" xlink:href="#BitstreamVeraSans-Roman-30"/>
      </g>
     </g>
    </g>
    <g id="text_17">
     <!-- Number of Tagged Packages -->
     <defs>
      <path d="M 9.8125 72.90625 
L 23.09375 72.90625 
L 55.421875 11.921875 
L 55.421875 72.90625 
L 64.984375 72.90625 
L 64.984375 0 
L 51.703125 0 
L 19.390625 60.984375 
L 19.390625 0 
L 9.8125 0 
z
" id="BitstreamVeraSans-Roman-4e"/>
      <path d="M 52 44.1875 
Q 55.375 50.25 60.0625 53.125 
Q 64.75 56 71.09375 56 
Q 79.640625 56 84.28125 50.015625 
Q 88.921875 44.046875 88.921875 33.015625 
L 88.921875 0 
L 79.890625 0 
L 79.890625 32.71875 
Q 79.890625 40.578125 77.09375 44.375 
Q 74.3125 48.1875 68.609375 48.1875 
Q 61.625 48.1875 57.5625 43.546875 
Q 53.515625 38.921875 53.515625 30.90625 
L 53.515625 0 
L 44.484375 0 
L 44.484375 32.71875 
Q 44.484375 40.625 41.703125 44.40625 
Q 38.921875 48.1875 33.109375 48.1875 
Q 26.21875 48.1875 22.15625 43.53125 
Q 18.109375 38.875 18.109375 30.90625 
L 18.109375 0 
L 9.078125 0 
L 9.078125 54.6875 
L 18.109375 54.6875 
L 18.109375 46.1875 
Q 21.1875 51.21875 25.484375 53.609375 
Q 29.78125 56 35.6875 56 
Q 41.65625 56 45.828125 52.96875 
Q 50 49.953125 52 44.1875 
" id="BitstreamVeraSans-Roman-6d"/>
      <path d="M 30.609375 48.390625 
Q 23.390625 48.390625 19.1875 42.75 
Q 14.984375 37.109375 14.984375 27.296875 
Q 14.984375 17.484375 19.15625 11.84375 
Q 23.34375 6.203125 30.609375 6.203125 
Q 37.796875 6.203125 41.984375 11.859375 
Q 46.1875 17.53125 46.1875 27.296875 
Q 46.1875 37.015625 41.984375 42.703125 
Q 37.796875 48.390625 30.609375 48.390625 
M 30.609375 56 
Q 42.328125 56 49.015625 48.375 
Q 55.71875 40.765625 55.71875 27.296875 
Q 55.71875 13.875 49.015625 6.21875 
Q 42.328125 -1.421875 30.609375 -1.421875 
Q 18.84375 -1.421875 12.171875 6.21875 
Q 5.515625 13.875 5.515625 27.296875 
Q 5.515625 40.765625 12.171875 48.375 
Q 18.84375 56 30.609375 56 
" id="BitstreamVeraSans-Roman-6f"/>
      <path d="M 9.078125 75.984375 
L 18.109375 75.984375 
L 18.109375 31.109375 
L 44.921875 54.6875 
L 56.390625 54.6875 
L 27.390625 29.109375 
L 57.625 0 
L 45.90625 0 
L 18.109375 26.703125 
L 18.109375 0 
L 9.078125 0 
z
" id="BitstreamVeraSans-Roman-6b"/>
      <path d="M 19.671875 64.796875 
L 19.671875 37.40625 
L 32.078125 37.40625 
Q 38.96875 37.40625 42.71875 40.96875 
Q 46.484375 44.53125 46.484375 51.125 
Q 46.484375 57.671875 42.71875 61.234375 
Q 38.96875 64.796875 32.078125 64.796875 
z
M 9.8125 72.90625 
L 32.078125 72.90625 
Q 44.34375 72.90625 50.609375 67.359375 
Q 56.890625 61.8125 56.890625 51.125 
Q 56.890625 40.328125 50.609375 34.8125 
Q 44.34375 29.296875 32.078125 29.296875 
L 19.671875 29.296875 
L 19.671875 0 
L 9.8125 0 
z
" id="BitstreamVeraSans-Roman-50"/>
      <path d="M -0.296875 72.90625 
L 61.375 72.90625 
L 61.375 64.59375 
L 35.5 64.59375 
L 35.5 0 
L 25.59375 0 
L 25.59375 64.59375 
L -0.296875 64.59375 
z
" id="BitstreamVeraSans-Roman-54"/>
      <path d="M 56.203125 29.59375 
L 56.203125 25.203125 
L 14.890625 25.203125 
Q 15.484375 15.921875 20.484375 11.0625 
Q 25.484375 6.203125 34.421875 6.203125 
Q 39.59375 6.203125 44.453125 7.46875 
Q 49.3125 8.734375 54.109375 11.28125 
L 54.109375 2.78125 
Q 49.265625 0.734375 44.1875 -0.34375 
Q 39.109375 -1.421875 33.890625 -1.421875 
Q 20.796875 -1.421875 13.15625 6.1875 
Q 5.515625 13.8125 5.515625 26.8125 
Q 5.515625 40.234375 12.765625 48.109375 
Q 20.015625 56 32.328125 56 
Q 43.359375 56 49.78125 48.890625 
Q 56.203125 41.796875 56.203125 29.59375 
M 47.21875 32.234375 
Q 47.125 39.59375 43.09375 43.984375 
Q 39.0625 48.390625 32.421875 48.390625 
Q 24.90625 48.390625 20.390625 44.140625 
Q 15.875 39.890625 15.1875 32.171875 
z
" id="BitstreamVeraSans-Roman-65"/>
      <path d="M 45.40625 46.390625 
L 45.40625 75.984375 
L 54.390625 75.984375 
L 54.390625 0 
L 45.40625 0 
L 45.40625 8.203125 
Q 42.578125 3.328125 38.25 0.953125 
Q 33.9375 -1.421875 27.875 -1.421875 
Q 17.96875 -1.421875 11.734375 6.484375 
Q 5.515625 14.40625 5.515625 27.296875 
Q 5.515625 40.1875 11.734375 48.09375 
Q 17.96875 56 27.875 56 
Q 33.9375 56 38.25 53.625 
Q 42.578125 51.265625 45.40625 46.390625 
M 14.796875 27.296875 
Q 14.796875 17.390625 18.875 11.75 
Q 22.953125 6.109375 30.078125 6.109375 
Q 37.203125 6.109375 41.296875 11.75 
Q 45.40625 17.390625 45.40625 27.296875 
Q 45.40625 37.203125 41.296875 42.84375 
Q 37.203125 48.484375 30.078125 48.484375 
Q 22.953125 48.484375 18.875 42.84375 
Q 14.796875 37.203125 14.796875 27.296875 
" id="BitstreamVeraSans-Roman-64"/>
      <path d="M 45.40625 27.984375 
Q 45.40625 37.75 41.375 43.109375 
Q 37.359375 48.484375 30.078125 48.484375 
Q 22.859375 48.484375 18.828125 43.109375 
Q 14.796875 37.75 14.796875 27.984375 
Q 14.796875 18.265625 18.828125 12.890625 
Q 22.859375 7.515625 30.078125 7.515625 
Q 37.359375 7.515625 41.375 12.890625 
Q 45.40625 18.265625 45.40625 27.984375 
M 54.390625 6.78125 
Q 54.390625 -7.171875 48.1875 -13.984375 
Q 42 -20.796875 29.203125 -20.796875 
Q 24.46875 -20.796875 20.265625 -20.09375 
Q 16.0625 -19.390625 12.109375 -17.921875 
L 12.109375 -9.1875 
Q 16.0625 -11.328125 19.921875 -12.34375 
Q 23.78125 -13.375 27.78125 -13.375 
Q 36.625 -13.375 41.015625 -8.765625 
Q 45.40625 -4.15625 45.40625 5.171875 
L 45.40625 9.625 
Q 42.625 4.78125 38.28125 2.390625 
Q 33.9375 0 27.875 0 
Q 17.828125 0 11.671875 7.65625 
Q 5.515625 15.328125 5.515625 27.984375 
Q 5.515625 40.671875 11.671875 48.328125 
Q 17.828125 56 27.875 56 
Q 33.9375 56 38.28125 53.609375 
Q 42.625 51.21875 45.40625 46.390625 
L 45.40625 54.6875 
L 54.390625 54.6875 
z
" id="BitstreamVeraSans-Roman-67"/>
      <path d="M 37.109375 75.984375 
L 37.109375 68.5 
L 28.515625 68.5 
Q 23.6875 68.5 21.796875 66.546875 
Q 19.921875 64.59375 19.921875 59.515625 
L 19.921875 54.6875 
L 34.71875 54.6875 
L 34.71875 47.703125 
L 19.921875 47.703125 
L 19.921875 0 
L 10.890625 0 
L 10.890625 47.703125 
L 2.296875 47.703125 
L 2.296875 54.6875 
L 10.890625 54.6875 
L 10.890625 58.5 
Q 10.890625 67.625 15.140625 71.796875 
Q 19.390625 75.984375 28.609375 75.984375 
z
" id="BitstreamVeraSans-Roman-66"/>
      <path d="M 44.28125 53.078125 
L 44.28125 44.578125 
Q 40.484375 46.53125 36.375 47.5 
Q 32.28125 48.484375 27.875 48.484375 
Q 21.1875 48.484375 17.84375 46.4375 
Q 14.5 44.390625 14.5 40.28125 
Q 14.5 37.15625 16.890625 35.375 
Q 19.28125 33.59375 26.515625 31.984375 
L 29.59375 31.296875 
Q 39.15625 29.25 43.1875 25.515625 
Q 47.21875 21.78125 47.21875 15.09375 
Q 47.21875 7.46875 41.1875 3.015625 
Q 35.15625 -1.421875 24.609375 -1.421875 
Q 20.21875 -1.421875 15.453125 -0.5625 
Q 10.6875 0.296875 5.421875 2 
L 5.421875 11.28125 
Q 10.40625 8.6875 15.234375 7.390625 
Q 20.0625 6.109375 24.8125 6.109375 
Q 31.15625 6.109375 34.5625 8.28125 
Q 37.984375 10.453125 37.984375 14.40625 
Q 37.984375 18.0625 35.515625 20.015625 
Q 33.0625 21.96875 24.703125 23.78125 
L 21.578125 24.515625 
Q 13.234375 26.265625 9.515625 29.90625 
Q 5.8125 33.546875 5.8125 39.890625 
Q 5.8125 47.609375 11.28125 51.796875 
Q 16.75 56 26.8125 56 
Q 31.78125 56 36.171875 55.265625 
Q 40.578125 54.546875 44.28125 53.078125 
" id="BitstreamVeraSans-Roman-73"/>
      <path d="M 48.6875 27.296875 
Q 48.6875 37.203125 44.609375 42.84375 
Q 40.53125 48.484375 33.40625 48.484375 
Q 26.265625 48.484375 22.1875 42.84375 
Q 18.109375 37.203125 18.109375 27.296875 
Q 18.109375 17.390625 22.1875 11.75 
Q 26.265625 6.109375 33.40625 6.109375 
Q 40.53125 6.109375 44.609375 11.75 
Q 48.6875 17.390625 48.6875 27.296875 
M 18.109375 46.390625 
Q 20.953125 51.265625 25.265625 53.625 
Q 29.59375 56 35.59375 56 
Q 45.5625 56 51.78125 48.09375 
Q 58.015625 40.1875 58.015625 27.296875 
Q 58.015625 14.40625 51.78125 6.484375 
Q 45.5625 -1.421875 35.59375 -1.421875 
Q 29.59375 -1.421875 25.265625 0.953125 
Q 20.953125 3.328125 18.109375 8.203125 
L 18.109375 0 
L 9.078125 0 
L 9.078125 75.984375 
L 18.109375 75.984375 
z
" id="BitstreamVeraSans-Roman-62"/>
     </defs>
     <g transform="translate(16.318125 214.6265625)rotate(-90.0)scale(0.12 -0.12)">
      <use xlink:href="#BitstreamVeraSans-Roman-4e"/>
      <use x="74.8046875" xlink:href="#BitstreamVeraSans-Roman-75"/>
      <use x="138.18359375" xlink:href="#BitstreamVeraSans-Roman-6d"/>
      <use x="235.595703125" xlink:href="#BitstreamVeraSans-Roman-62"/>
      <use x="299.072265625" xlink:href="#BitstreamVeraSans-Roman-65"/>
      <use x="360.595703125" xlink:href="#BitstreamVeraSans-Roman-72"/>
      <use x="401.708984375" xlink:href="#BitstreamVeraSans-Roman-20"/>
      <use x="433.49609375" xlink:href="#BitstreamVeraSans-Roman-6f"/>
      <use x="494.677734375" xlink:href="#BitstreamVeraSans-Roman-66"/>
      <use x="529.8828125" xlink:href="#BitstreamVeraSans-Roman-20"/>
      <use x="561.669921875" xlink:href="#BitstreamVeraSans-Roman-54"/>
      <use x="622.50390625" xlink:href="#BitstreamVeraSans-Roman-61"/>
      <use x="683.783203125" xlink:href="#BitstreamVeraSans-Roman-67"/>
      <use x="747.259765625" xlink:href="#BitstreamVeraSans-Roman-67"/>
      <use x="810.736328125" xlink:href="#BitstreamVeraSans-Roman-65"/>
      <use x="872.259765625" xlink:href="#BitstreamVeraSans-Roman-64"/>
      <use x="935.736328125" xlink:href="#BitstreamVeraSans-Roman-20"/>
      <use x="967.5234375" xlink:href="#BitstreamVeraSans-Roman-50"/>
      <use x="1027.76367188" xlink:href="#BitstreamVeraSans-Roman-61"/>
      <use x="1089.04296875" xlink:href="#BitstreamVeraSans-Roman-63"/>
      <use x="1144.0234375" xlink:href="#BitstreamVeraSans-Roman-6b"/>
      <use x="1201.91796875" xlink:href="#BitstreamVeraSans-Roman-61"/>
      <use x="1263.19726562" xlink:href="#BitstreamVeraSans-Roman-67"/>
      <use x="1326.67382812" xlink:href="#BitstreamVeraSans-Roman-65"/>
      <use x="1388.19726562" xlink:href="#BitstreamVeraSans-Roman-73"/>
     </g>
    </g>
   </g>
   <g id="text_18">
    <g id="patch_7">
     <path d="M 142.878797 232.327268 
L 180.826112 232.327268 
L 180.826112 216.055654 
L 142.878797 216.055654 
z
" style="fill:#ffffff;stroke:#ffffff;stroke-linejoin:miter;"/>
    </g>
    <!-- v0.3.0 -->
    <defs>
     <path d="M 2.984375 54.6875 
L 12.5 54.6875 
L 29.59375 8.796875 
L 46.6875 54.6875 
L 56.203125 54.6875 
L 35.6875 0 
L 23.484375 0 
z
" id="BitstreamVeraSans-Roman-76"/>
     <path d="M 10.6875 12.40625 
L 21 12.40625 
L 21 0 
L 10.6875 0 
z
" id="BitstreamVeraSans-Roman-2e"/>
    </defs>
    <g transform="translate(146.177477235 226.949732143)scale(0.09996 -0.09996)">
     <use xlink:href="#BitstreamVeraSans-Roman-76"/>
     <use x="59.1796875" xlink:href="#BitstreamVeraSans-Roman-30"/>
     <use x="122.802734375" xlink:href="#BitstreamVeraSans-Roman-2e"/>
     <use x="154.58984375" xlink:href="#BitstreamVeraSans-Roman-33"/>
     <use x="218.212890625" xlink:href="#BitstreamVeraSans-Roman-2e"/>
     <use x="250.0" xlink:href="#BitstreamVeraSans-Roman-30"/>
    </g>
   </g>
   <g id="text_19">
    <g id="patch_8">
     <path d="M 167.747878 215.870125 
L 205.695193 215.870125 
L 205.695193 199.598511 
L 167.747878 199.598511 
z
" style="fill:#ffffff;stroke:#ffffff;stroke-linejoin:miter;"/>
    </g>
    <!-- v0.3.1 -->
    <g transform="translate(171.046558015 210.492589286)scale(0.09996 -0.09996)">
     <use xlink:href="#BitstreamVeraSans-Roman-76"/>
     <use x="59.1796875" xlink:href="#BitstreamVeraSans-Roman-30"/>
     <use x="122.802734375" xlink:href="#BitstreamVeraSans-Roman-2e"/>
     <use x="154.58984375" xlink:href="#BitstreamVeraSans-Roman-33"/>
     <use x="218.212890625" xlink:href="#BitstreamVeraSans-Roman-2e"/>
     <use x="250.0" xlink:href="#BitstreamVeraSans-Roman-31"/>
    </g>
   </g>
   <g id="text_20">
    <g id="patch_9">
     <path d="M 191.062641 232.327268 
L 229.009956 232.327268 
L 229.009956 216.055654 
L 191.062641 216.055654 
z
" style="fill:#ffffff;stroke:#ffffff;stroke-linejoin:miter;"/>
    </g>
    <!-- v0.3.2 -->
    <g transform="translate(194.361321246 226.949732143)scale(0.09996 -0.09996)">
     <use xlink:href="#BitstreamVeraSans-Roman-76"/>
     <use x="59.1796875" xlink:href="#BitstreamVeraSans-Roman-30"/>
     <use x="122.802734375" xlink:href="#BitstreamVeraSans-Roman-2e"/>
     <use x="154.58984375" xlink:href="#BitstreamVeraSans-Roman-33"/>
     <use x="218.212890625" xlink:href="#BitstreamVeraSans-Roman-2e"/>
     <use x="250.0" xlink:href="#BitstreamVeraSans-Roman-32"/>
    </g>
   </g>
   <g id="text_21">
    <g id="patch_10">
     <path d="M 216.708881 215.870125 
L 254.656196 215.870125 
L 254.656196 199.598511 
L 216.708881 199.598511 
z
" style="fill:#ffffff;stroke:#ffffff;stroke-linejoin:miter;"/>
    </g>
    <!-- v0.3.3 -->
    <g transform="translate(220.007560801 210.492589286)scale(0.09996 -0.09996)">
     <use xlink:href="#BitstreamVeraSans-Roman-76"/>
     <use x="59.1796875" xlink:href="#BitstreamVeraSans-Roman-30"/>
     <use x="122.802734375" xlink:href="#BitstreamVeraSans-Roman-2e"/>
     <use x="154.58984375" xlink:href="#BitstreamVeraSans-Roman-33"/>
     <use x="218.212890625" xlink:href="#BitstreamVeraSans-Roman-2e"/>
     <use x="250.0" xlink:href="#BitstreamVeraSans-Roman-33"/>
    </g>
   </g>
   <g id="text_22">
    <g id="patch_11">
     <path d="M 242.35512 232.327268 
L 280.302435 232.327268 
L 280.302435 216.055654 
L 242.35512 216.055654 
z
" style="fill:#ffffff;stroke:#ffffff;stroke-linejoin:miter;"/>
    </g>
    <!-- v0.3.4 -->
    <g transform="translate(245.653800355 226.949732143)scale(0.09996 -0.09996)">
     <use xlink:href="#BitstreamVeraSans-Roman-76"/>
     <use x="59.1796875" xlink:href="#BitstreamVeraSans-Roman-30"/>
     <use x="122.802734375" xlink:href="#BitstreamVeraSans-Roman-2e"/>
     <use x="154.58984375" xlink:href="#BitstreamVeraSans-Roman-33"/>
     <use x="218.212890625" xlink:href="#BitstreamVeraSans-Roman-2e"/>
     <use x="250.0" xlink:href="#BitstreamVeraSans-Roman-34"/>
    </g>
   </g>
   <g id="text_23">
    <g id="patch_12">
     <path d="M 252.458184 215.870125 
L 290.405499 215.870125 
L 290.405499 199.598511 
L 252.458184 199.598511 
z
" style="fill:#ffffff;stroke:#ffffff;stroke-linejoin:miter;"/>
    </g>
    <!-- v0.3.5 -->
    <g transform="translate(255.756864422 210.492589286)scale(0.09996 -0.09996)">
     <use xlink:href="#BitstreamVeraSans-Roman-76"/>
     <use x="59.1796875" xlink:href="#BitstreamVeraSans-Roman-30"/>
     <use x="122.802734375" xlink:href="#BitstreamVeraSans-Roman-2e"/>
     <use x="154.58984375" xlink:href="#BitstreamVeraSans-Roman-33"/>
     <use x="218.212890625" xlink:href="#BitstreamVeraSans-Roman-2e"/>
     <use x="250.0" xlink:href="#BitstreamVeraSans-Roman-35"/>
    </g>
   </g>
   <g id="text_24">
    <g id="patch_13">
     <path d="M 283.544535 232.327268 
L 321.49185 232.327268 
L 321.49185 216.055654 
L 283.544535 216.055654 
z
" style="fill:#ffffff;stroke:#ffffff;stroke-linejoin:miter;"/>
    </g>
    <!-- v0.3.6 -->
    <g transform="translate(286.843215397 226.949732143)scale(0.09996 -0.09996)">
     <use xlink:href="#BitstreamVeraSans-Roman-76"/>
     <use x="59.1796875" xlink:href="#BitstreamVeraSans-Roman-30"/>
     <use x="122.802734375" xlink:href="#BitstreamVeraSans-Roman-2e"/>
     <use x="154.58984375" xlink:href="#BitstreamVeraSans-Roman-33"/>
     <use x="218.212890625" xlink:href="#BitstreamVeraSans-Roman-2e"/>
     <use x="250.0" xlink:href="#BitstreamVeraSans-Roman-36"/>
    </g>
   </g>
   <g id="text_25">
    <g id="patch_14">
     <path d="M 309.967934 215.870125 
L 347.915249 215.870125 
L 347.915249 199.598511 
L 309.967934 199.598511 
z
" style="fill:#ffffff;stroke:#ffffff;stroke-linejoin:miter;"/>
    </g>
    <!-- v0.3.7 -->
    <g transform="translate(313.266613726 210.492589286)scale(0.09996 -0.09996)">
     <use xlink:href="#BitstreamVeraSans-Roman-76"/>
     <use x="59.1796875" xlink:href="#BitstreamVeraSans-Roman-30"/>
     <use x="122.802734375" xlink:href="#BitstreamVeraSans-Roman-2e"/>
     <use x="154.58984375" xlink:href="#BitstreamVeraSans-Roman-33"/>
     <use x="218.212890625" xlink:href="#BitstreamVeraSans-Roman-2e"/>
     <use x="250.0" xlink:href="#BitstreamVeraSans-Roman-37"/>
    </g>
   </g>
   <g id="text_26">
    <g id="patch_15">
     <path d="M 339.499967 232.327268 
L 377.447282 232.327268 
L 377.447282 216.055654 
L 339.499967 216.055654 
z
" style="fill:#ffffff;stroke:#ffffff;stroke-linejoin:miter;"/>
    </g>
    <!-- v0.3.8 -->
    <g transform="translate(342.798647152 226.949732143)scale(0.09996 -0.09996)">
     <use xlink:href="#BitstreamVeraSans-Roman-76"/>
     <use x="59.1796875" xlink:href="#BitstreamVeraSans-Roman-30"/>
     <use x="122.802734375" xlink:href="#BitstreamVeraSans-Roman-2e"/>
     <use x="154.58984375" xlink:href="#BitstreamVeraSans-Roman-33"/>
     <use x="218.212890625" xlink:href="#BitstreamVeraSans-Roman-2e"/>
     <use x="250.0" xlink:href="#BitstreamVeraSans-Roman-38"/>
    </g>
   </g>
   <g id="text_27">
    <g id="patch_16">
     <path d="M 362.81473 215.870125 
L 400.762045 215.870125 
L 400.762045 199.598511 
L 362.81473 199.598511 
z
" style="fill:#ffffff;stroke:#ffffff;stroke-linejoin:miter;"/>
    </g>
    <!-- v0.3.9 -->
    <g transform="translate(366.113410383 210.492589286)scale(0.09996 -0.09996)">
     <use xlink:href="#BitstreamVeraSans-Roman-76"/>
     <use x="59.1796875" xlink:href="#BitstreamVeraSans-Roman-30"/>
     <use x="122.802734375" xlink:href="#BitstreamVeraSans-Roman-2e"/>
     <use x="154.58984375" xlink:href="#BitstreamVeraSans-Roman-33"/>
     <use x="218.212890625" xlink:href="#BitstreamVeraSans-Roman-2e"/>
     <use x="250.0" xlink:href="#BitstreamVeraSans-Roman-39"/>
    </g>
   </g>
   <g id="text_28">
    <g id="patch_17">
     <path d="M 379.063722 232.327268 
L 423.370992 232.327268 
L 423.370992 216.055654 
L 379.063722 216.055654 
z
" style="fill:#ffffff;stroke:#ffffff;stroke-linejoin:miter;"/>
    </g>
    <!-- v0.3.10 -->
    <g transform="translate(382.362402242 226.949732143)scale(0.09996 -0.09996)">
     <use xlink:href="#BitstreamVeraSans-Roman-76"/>
     <use x="59.1796875" xlink:href="#BitstreamVeraSans-Roman-30"/>
     <use x="122.802734375" xlink:href="#BitstreamVeraSans-Roman-2e"/>
     <use x="154.58984375" xlink:href="#BitstreamVeraSans-Roman-33"/>
     <use x="218.212890625" xlink:href="#BitstreamVeraSans-Roman-2e"/>
     <use x="250.0" xlink:href="#BitstreamVeraSans-Roman-31"/>
     <use x="313.623046875" xlink:href="#BitstreamVeraSans-Roman-30"/>
    </g>
   </g>
   <g id="text_29">
    <g id="patch_18">
     <path d="M 404.709962 215.870125 
L 449.017232 215.870125 
L 449.017232 199.598511 
L 404.709962 199.598511 
z
" style="fill:#ffffff;stroke:#ffffff;stroke-linejoin:miter;"/>
    </g>
    <!-- v0.3.11 -->
    <g transform="translate(408.008641797 210.492589286)scale(0.09996 -0.09996)">
     <use xlink:href="#BitstreamVeraSans-Roman-76"/>
     <use x="59.1796875" xlink:href="#BitstreamVeraSans-Roman-30"/>
     <use x="122.802734375" xlink:href="#BitstreamVeraSans-Roman-2e"/>
     <use x="154.58984375" xlink:href="#BitstreamVeraSans-Roman-33"/>
     <use x="218.212890625" xlink:href="#BitstreamVeraSans-Roman-2e"/>
     <use x="250.0" xlink:href="#BitstreamVeraSans-Roman-31"/>
     <use x="313.623046875" xlink:href="#BitstreamVeraSans-Roman-31"/>
    </g>
   </g>
   <g id="text_30">
    <g id="patch_19">
     <path d="M 475.43141 232.327268 
L 519.73868 232.327268 
L 519.73868 216.055654 
L 475.43141 216.055654 
z
" style="fill:#ffffff;stroke:#ffffff;stroke-linejoin:miter;"/>
    </g>
    <!-- v0.3.12 -->
    <g transform="translate(478.730090265 226.949732143)scale(0.09996 -0.09996)">
     <use xlink:href="#BitstreamVeraSans-Roman-76"/>
     <use x="59.1796875" xlink:href="#BitstreamVeraSans-Roman-30"/>
     <use x="122.802734375" xlink:href="#BitstreamVeraSans-Roman-2e"/>
     <use x="154.58984375" xlink:href="#BitstreamVeraSans-Roman-33"/>
     <use x="218.212890625" xlink:href="#BitstreamVeraSans-Roman-2e"/>
     <use x="250.0" xlink:href="#BitstreamVeraSans-Roman-31"/>
     <use x="313.623046875" xlink:href="#BitstreamVeraSans-Roman-32"/>
    </g>
   </g>
   <g id="text_31">
    <g id="patch_20">
     <path d="M 464.62253 182.955839 
L 502.569845 182.955839 
L 502.569845 166.684225 
L 464.62253 166.684225 
z
" style="fill:#ffffff;stroke:#ffffff;stroke-linejoin:miter;"/>
    </g>
    <!-- v0.4.0 -->
    <g transform="translate(467.921209826 177.578303571)scale(0.09996 -0.09996)">
     <use xlink:href="#BitstreamVeraSans-Roman-76"/>
     <use x="59.1796875" xlink:href="#BitstreamVeraSans-Roman-30"/>
     <use x="122.802734375" xlink:href="#BitstreamVeraSans-Roman-2e"/>
     <use x="154.58984375" xlink:href="#BitstreamVeraSans-Roman-34"/>
     <use x="218.212890625" xlink:href="#BitstreamVeraSans-Roman-2e"/>
     <use x="250.0" xlink:href="#BitstreamVeraSans-Roman-30"/>
    </g>
   </g>
   <g id="text_32">
    <g id="patch_21">
     <path d="M 488.714452 166.498696 
L 526.661767 166.498696 
L 526.661767 150.227083 
L 488.714452 150.227083 
z
" style="fill:#ffffff;stroke:#ffffff;stroke-linejoin:miter;"/>
    </g>
    <!-- v0.4.1 -->
    <g transform="translate(492.013131832 161.121160714)scale(0.09996 -0.09996)">
     <use xlink:href="#BitstreamVeraSans-Roman-76"/>
     <use x="59.1796875" xlink:href="#BitstreamVeraSans-Roman-30"/>
     <use x="122.802734375" xlink:href="#BitstreamVeraSans-Roman-2e"/>
     <use x="154.58984375" xlink:href="#BitstreamVeraSans-Roman-34"/>
     <use x="218.212890625" xlink:href="#BitstreamVeraSans-Roman-2e"/>
     <use x="250.0" xlink:href="#BitstreamVeraSans-Roman-31"/>
    </g>
   </g>
   <g id="text_33">
    <g id="patch_22">
     <path d="M 510.474898 182.955839 
L 548.422213 182.955839 
L 548.422213 166.684225 
L 510.474898 166.684225 
z
" style="fill:#ffffff;stroke:#ffffff;stroke-linejoin:miter;"/>
    </g>
    <!-- v0.4.2 -->
    <g transform="translate(513.773577514 177.578303571)scale(0.09996 -0.09996)">
     <use xlink:href="#BitstreamVeraSans-Roman-76"/>
     <use x="59.1796875" xlink:href="#BitstreamVeraSans-Roman-30"/>
     <use x="122.802734375" xlink:href="#BitstreamVeraSans-Roman-2e"/>
     <use x="154.58984375" xlink:href="#BitstreamVeraSans-Roman-34"/>
     <use x="218.212890625" xlink:href="#BitstreamVeraSans-Roman-2e"/>
     <use x="250.0" xlink:href="#BitstreamVeraSans-Roman-32"/>
    </g>
   </g>
   <g id="text_34">
    <g id="patch_23">
     <path d="M 539.229772 166.498696 
L 577.177087 166.498696 
L 577.177087 150.227083 
L 539.229772 150.227083 
z
" style="fill:#ffffff;stroke:#ffffff;stroke-linejoin:miter;"/>
    </g>
    <!-- v0.4.3 -->
    <g transform="translate(542.528452166 161.121160714)scale(0.09996 -0.09996)">
     <use xlink:href="#BitstreamVeraSans-Roman-76"/>
     <use x="59.1796875" xlink:href="#BitstreamVeraSans-Roman-30"/>
     <use x="122.802734375" xlink:href="#BitstreamVeraSans-Roman-2e"/>
     <use x="154.58984375" xlink:href="#BitstreamVeraSans-Roman-34"/>
     <use x="218.212890625" xlink:href="#BitstreamVeraSans-Roman-2e"/>
     <use x="250.0" xlink:href="#BitstreamVeraSans-Roman-33"/>
    </g>
   </g>
   <g id="legend_1">
    <g id="patch_24">
     <path d="M 55.71675 79.69269 
L 107.599114 79.69269 
L 107.599114 18.004875 
L 55.71675 18.004875 
z
" style="fill:#ffffff;stroke:#000000;stroke-linejoin:miter;"/>
    </g>
    <g id="line2d_54">
     <path d="M 62.71395 26.100073 
L 76.70835 26.100073 
" style="fill:none;stroke:#ff0000;stroke-linecap:square;stroke-width:2.0;"/>
    </g>
    <g id="line2d_55"/>
    <g id="text_35">
     <!-- 0.2 -->
     <g transform="translate(87.70395 29.598673125)scale(0.09996 -0.09996)">
      <use xlink:href="#BitstreamVeraSans-Roman-30"/>
      <use x="63.623046875" xlink:href="#BitstreamVeraSans-Roman-2e"/>
      <use x="95.41015625" xlink:href="#BitstreamVeraSans-Roman-32"/>
     </g>
    </g>
    <g id="line2d_56">
     <path d="M 62.71395 40.772327 
L 76.70835 40.772327 
" style="fill:none;stroke:#008000;stroke-linecap:square;stroke-width:2.0;"/>
    </g>
    <g id="line2d_57"/>
    <g id="text_36">
     <!-- 0.3 -->
     <g transform="translate(87.70395 44.270926875)scale(0.09996 -0.09996)">
      <use xlink:href="#BitstreamVeraSans-Roman-30"/>
      <use x="63.623046875" xlink:href="#BitstreamVeraSans-Roman-2e"/>
      <use x="95.41015625" xlink:href="#BitstreamVeraSans-Roman-33"/>
     </g>
    </g>
    <g id="line2d_58">
     <path d="M 62.71395 55.444581 
L 76.70835 55.444581 
" style="fill:none;stroke:#0000ff;stroke-linecap:square;stroke-width:2.0;"/>
    </g>
    <g id="line2d_59"/>
    <g id="text_37">
     <!-- 0.4 -->
     <g transform="translate(87.70395 58.943180625)scale(0.09996 -0.09996)">
      <use xlink:href="#BitstreamVeraSans-Roman-30"/>
      <use x="63.623046875" xlink:href="#BitstreamVeraSans-Roman-2e"/>
      <use x="95.41015625" xlink:href="#BitstreamVeraSans-Roman-34"/>
     </g>
    </g>
    <g id="line2d_60">
     <path d="M 62.71395 70.116834 
L 76.70835 70.116834 
" style="fill:none;stroke:#000000;stroke-linecap:square;stroke-width:2.0;"/>
    </g>
    <g id="line2d_61"/>
    <g id="text_38">
     <!-- 0.5 -->
     <g transform="translate(87.70395 73.615434375)scale(0.09996 -0.09996)">
      <use xlink:href="#BitstreamVeraSans-Roman-30"/>
      <use x="63.623046875" xlink:href="#BitstreamVeraSans-Roman-2e"/>
      <use x="95.41015625" xlink:href="#BitstreamVeraSans-Roman-35"/>
     </g>
    </g>
   </g>
  </g>
 </g>
 <defs>
  <clipPath id="p0c42d8a415">
   <rect height="230.4" width="558.0" x="50.71875" y="13.006875"/>
  </clipPath>
 </defs>
</svg>
