<?xml version="1.0" encoding="utf-8" standalone="no"?>
<!DOCTYPE svg PUBLIC "-//W3C//DTD SVG 1.1//EN"
  "http://www.w3.org/Graphics/SVG/1.1/DTD/svg11.dtd">
<!-- Created with matplotlib (http://matplotlib.org/) -->
<svg height="311pt" version="1.1" viewBox="0 0 621 311" width="621pt" xmlns="http://www.w3.org/2000/svg" xmlns:xlink="http://www.w3.org/1999/xlink">
 <defs>
  <style type="text/css">
*{stroke-linecap:butt;stroke-linejoin:round;}
  </style>
 </defs>
 <g id="figure_1">
  <g id="patch_1">
   <path d="
M0 311.719
L621.877 311.719
L621.877 0
L0 0
z
" style="fill:#ffffff;"/>
  </g>
  <g id="axes_1">
   <g id="patch_2">
    <path d="
M56.6775 243.407
L614.678 243.407
L614.678 13.0069
L56.6775 13.0069
z
" style="fill:#ffffff;"/>
   </g>
   <g id="line2d_1">
    <path clip-path="url(#pe067ca5dee)" d="
M106.831 226.127
L106.459 226.127
L106.088 226.383
L105.716 226.383
L105.345 226.511
L104.973 226.767
L104.602 226.767
L103.859 226.511
L103.487 226.511
L103.116 226.895
L102.744 226.895
L102.001 226.895
L101.63 226.895
L100.887 227.023
L100.515 227.023
L100.144 227.023
L99.772 227.151
L99.4005 227.151
L99.029 227.151
L98.6575 227.279
L98.286 227.279
L97.1715 227.279
L96.8 227.279
L96.4285 227.279
L96.057 227.279
L95.314 227.535
L94.571 227.791
L94.1995 227.791
L93.828 227.919
L93.4565 228.047
L92.7135 228.303
L92.3419 228.303
L91.9704 228.303
L91.5989 228.431
L91.2274 228.559
L90.8559 228.815
L90.1129 228.943
L89.7414 228.943
L89.3699 229.327
L88.9984 229.327
L88.6269 229.327
L88.2554 229.327
L87.8839 229.327
L87.5124 229.583
L86.7694 229.583
L86.3979 229.711
L86.0264 229.711
L85.6549 229.711
L85.2834 229.711
L84.9119 229.711
L84.5403 229.967
L84.1688 230.095
L83.7973 230.223
L83.4258 230.223
L81.1968 230.863
L80.8253 230.863
L80.4538 230.991
L80.0823 230.991
L79.7108 231.119
L79.3393 231.119
L78.9678 231.119
L78.5963 231.119
L78.2248 231.119
L77.8533 231.119
L77.4818 231.119
L77.1103 231.119
L76.7388 231.759
L76.3672 230.735
L75.9957 230.863
L75.6242 230.863
L75.2527 230.863
L74.5097 230.991
L74.1382 230.991
L73.7667 231.375
L73.3952 231.375
L73.0237 231.375
L72.6522 231.375
L72.2807 231.375
L71.9092 231.375
L71.5377 231.375
L71.1662 231.375
L70.7947 231.375
L70.4232 231.503
L67.8226 231.631
L67.0796 231.631
L65.9651 231.631
L63.3646 231.887
L62.9931 232.015
L62.2501 232.143
L61.8786 232.143
L61.1356 232.271
L60.3925 232.399
L60.021 232.399
L59.278 232.399
L58.9065 232.399
L58.535 232.399
L58.1635 232.399
L57.792 232.399
L57.4205 232.399
L57.049 232.527
L56.6775 232.527" style="fill:none;stroke:#ff0000;stroke-linecap:square;stroke-width:2;"/>
   </g>
   <g id="line2d_2">
    <path clip-path="url(#pe067ca5dee)" d="
M393.632 180.047
L383.602 180.047
L383.23 180.175
L382.116 180.047
L378.029 180.047
L377.658 180.175
L377.286 180.047
L376.915 180.047
L376.543 180.175
L376.172 180.047
L375.057 180.047
L374.685 180.175
L372.828 180.175
L372.456 180.047
L367.998 180.047
L367.627 180.175
L367.255 180.047
L364.655 180.047
L364.283 180.175
L363.912 180.047
L363.54 180.175
L363.169 180.047
L358.711 180.047
L358.339 180.175
L357.596 180.175
L357.225 180.303
L356.482 180.175
L356.11 180.303
L355.739 180.175
L354.624 180.175
L354.253 180.303
L353.881 180.175
L351.652 180.175
L351.281 180.303
L350.909 180.175
L349.052 180.175
L348.68 180.303
L308.929 181.071
L306.7 181.327
L305.214 181.327
L297.413 181.455
L289.239 181.455
L284.41 181.839
L281.438 182.095
L278.094 182.095
L277.351 182.351
L275.865 182.095
L266.949 182.351
L264.349 182.863
L262.863 182.991
L261.005 183.503
L259.519 184.143
L253.575 185.423
L251.717 185.679
L249.86 185.807
L248.745 186.063
L242.43 187.855
L236.114 189.135
L228.684 191.311
L228.313 191.823
L227.941 192.079
L227.198 191.951
L226.455 192.207
L225.341 192.207
L224.969 192.335
L224.226 192.335
L223.855 192.591
L223.483 192.591
L223.112 192.847
L222.74 192.847
L221.626 192.719
L217.539 193.487
L216.796 193.487
L214.195 194.383
L213.452 194.383
L210.48 194.895
L210.109 195.151
L208.623 195.407
L205.279 196.431
L204.908 196.815
L204.165 197.071
L203.422 197.071
L203.05 197.199
L201.564 197.455
L201.193 197.839
L200.821 197.967
L200.45 197.967
L199.707 198.607
L198.592 198.991
L197.106 198.991
L196.363 199.375
L195.62 199.375
L193.391 199.503
L193.02 199.887
L192.277 199.887
L187.819 200.015
L187.447 200.271
L187.076 200.143
L186.704 200.399
L186.333 200.399
L185.961 200.527
L185.59 200.783
L184.104 201.039
L182.246 201.039
L181.875 201.295
L181.132 201.295
L179.274 201.807
L177.417 202.575
L175.559 202.575
L174.073 202.831
L172.587 203.599
L172.215 203.599
L171.844 203.343
L169.615 204.751
L168.872 205.135
L168.129 205.135
L167.757 205.263
L167.386 205.647
L167.014 205.647
L166.643 205.903
L165.157 205.903
L164.785 206.543
L164.414 206.543
L162.556 207.695
L159.956 208.463
L158.098 209.359
L155.498 209.871
L154.755 210.127
L153.269 210.127
L152.897 210.255
L151.783 210.767
L150.297 211.151
L149.925 211.407
L149.182 211.407
L148.439 211.663
L147.696 211.663
L145.467 211.791
L143.981 212.431
L143.61 212.431
L143.238 212.815
L142.867 212.815
L142.495 212.943
L142.124 212.943
L141.752 213.199
L139.895 213.839
L138.78 213.839
L138.409 213.967
L138.037 213.967
L137.666 214.095
L136.923 214.095
L136.551 214.223
L136.179 214.223
L135.808 214.351
L135.436 214.607
L135.065 214.607
L134.693 214.735
L134.322 214.735
L133.95 214.863
L133.207 214.863
L132.464 215.247
L131.35 215.247
L130.607 215.503
L130.235 215.503
L129.864 215.759
L129.121 215.759
L128.749 215.887
L128.378 216.143
L128.006 216.143
L126.892 216.399
L126.52 216.655
L126.149 216.655
L125.777 214.351
L125.406 216.911
L125.034 217.167
L124.663 217.167
L124.291 217.295
L123.177 217.167
L122.805 217.295
L122.062 217.295
L121.319 217.551
L119.833 217.551
L119.462 218.575
L118.719 218.575
L117.976 218.959
L117.604 219.087
L116.49 219.855
L114.261 219.855
L113.518 220.111
L113.146 220.495
L112.403 218.959
L111.66 219.215
L111.289 219.599
L110.546 219.599
L110.174 219.727
L109.803 219.727
L109.06 220.111
L108.317 220.111
L107.574 220.367
L107.202 220.367
L106.459 220.751
L105.345 221.135
L104.973 221.391
L104.602 221.391
L103.487 221.519
L103.116 221.903
L102.744 222.031
L100.887 222.031
L99.772 222.415
L99.029 222.415
L98.6575 222.543
L98.286 222.543
L96.057 222.799
L95.314 223.183
L94.571 223.823
L93.828 223.823
L93.4565 224.207
L92.7135 224.335
L92.3419 224.591
L91.9704 224.591
L91.2274 224.847
L90.8559 225.103
L89.7414 225.231
L89.3699 225.615
L87.8839 225.615
L87.5124 225.871
L86.7694 225.871
L86.0264 226.127
L85.6549 226.127
L85.2834 226.383
L84.9119 226.383
L84.1688 226.767
L80.4538 228.047
L80.0823 233.295
L79.7108 228.175
L79.3393 228.175
L78.9678 228.303
L77.4818 228.303
L77.1103 228.431
L76.3672 228.431
L75.9957 228.687
L75.2527 228.687
L74.5097 228.815
L74.1382 229.199
L71.1662 229.199
L70.7947 229.327
L70.4232 229.583
L65.9651 229.711
L62.2501 230.351
L61.8786 230.351
L61.1356 230.607
L58.535 230.991
L57.4205 230.991
L57.049 231.119
L56.6775 231.119
L56.6775 231.119" style="fill:none;stroke:#008000;stroke-linecap:square;stroke-width:2;"/>
   </g>
   <g id="line2d_3">
    <path clip-path="url(#pe067ca5dee)" d="
M555.608 127.183
L554.865 127.183
L524.03 127.439
L521.801 127.311
L521.43 127.439
L518.086 127.439
L517.343 127.823
L516.972 127.439
L516.229 127.695
L515.857 127.567
L503.969 127.567
L503.598 127.695
L503.226 127.567
L493.567 127.567
L493.195 127.695
L487.623 127.695
L487.251 127.823
L486.88 128.463
L486.508 127.823
L484.279 127.823
L483.908 127.695
L483.536 127.823
L480.193 127.823
L477.964 128.079
L477.592 127.951
L476.106 127.951
L475.735 128.079
L475.363 127.951
L474.62 127.951
L474.249 128.079
L469.048 128.079
L465.333 128.335
L464.961 128.335
L464.59 128.463
L463.475 128.463
L463.104 128.591
L462.732 128.463
L460.503 128.463
L460.132 128.591
L456.788 128.591
L456.417 128.719
L456.045 128.719
L455.302 128.847
L453.444 128.591
L451.587 128.591
L451.215 128.719
L447.129 128.719
L430.411 128.975
L428.925 129.231
L427.811 129.231
L427.439 129.359
L425.582 129.103
L425.21 129.231
L422.981 129.231
L421.495 129.743
L420.752 129.743
L420.381 130.383
L418.523 129.743
L416.666 129.743
L414.065 129.999
L412.95 129.999
L412.207 130.127
L408.864 130.127
L408.121 130.767
L407.749 130.895
L406.635 130.767
L406.263 131.023
L402.548 131.279
L401.805 131.535
L399.948 131.535
L399.205 131.791
L398.462 131.791
L397.719 132.047
L394.747 132.047
L394.375 132.175
L394.004 132.559
L392.889 132.943
L392.518 133.455
L391.775 133.455
L391.403 133.583
L391.032 133.583
L390.289 133.839
L389.917 134.223
L389.174 134.479
L388.803 134.479
L388.431 134.735
L387.688 134.735
L387.317 134.863
L386.945 134.863
L386.202 135.247
L385.831 135.375
L385.459 135.631
L384.716 135.631
L383.973 135.887
L383.23 135.887
L382.487 136.143
L382.116 136.527
L381.744 136.655
L381.373 136.911
L381.001 136.911
L380.63 137.039
L380.258 137.039
L379.887 137.167
L379.515 137.167
L378.401 137.551
L376.543 137.551
L376.172 137.807
L375.8 137.807
L375.428 138.063
L375.057 138.063
L374.685 138.319
L374.314 138.319
L373.942 138.191
L373.571 138.191
L371.713 139.471
L370.599 139.343
L369.856 139.727
L369.484 139.855
L369.113 139.855
L368.741 139.983
L368.37 139.983
L366.884 140.495
L366.141 140.623
L365.769 140.879
L365.398 140.879
L365.026 141.007
L364.655 140.879
L364.283 140.879
L363.54 141.135
L363.169 141.135
L362.426 141.391
L362.054 141.263
L361.683 141.263
L360.94 141.519
L360.568 141.519
L360.197 141.647
L359.825 141.647
L358.711 142.031
L358.339 142.543
L357.968 142.543
L357.596 142.671
L357.225 143.055
L356.11 143.311
L355.367 143.567
L354.624 143.567
L354.253 143.695
L353.881 143.695
L352.767 144.079
L352.395 143.951
L352.024 144.079
L351.652 144.079
L350.909 144.847
L350.538 144.847
L350.166 144.975
L349.795 144.847
L349.423 144.975
L348.68 145.359
L342.736 148.303
L323.418 156.623
L317.474 160.719
L308.929 163.279
L306.7 164.559
L305.214 165.711
L297.413 168.143
L287.382 170.703
L284.41 171.855
L281.438 172.495
L278.094 173.007
L277.351 173.519
L275.865 173.647
L271.407 175.055
L266.949 177.871
L265.835 178.255
L264.349 178.895
L262.863 175.695
L261.005 176.847
L259.519 177.615
L253.575 180.047
L251.717 180.943
L248.745 181.711
L242.43 184.911
L239.086 185.551
L236.114 186.319
L228.684 188.623
L228.313 189.135
L227.941 189.391
L227.198 189.391
L226.455 189.647
L224.226 189.903
L223.855 190.287
L223.483 190.287
L223.112 190.543
L221.626 190.543
L217.539 191.695
L216.796 191.695
L216.053 191.951
L215.31 192.335
L214.195 192.847
L213.452 192.847
L210.48 193.231
L210.109 193.487
L208.623 193.743
L205.279 194.767
L204.908 195.151
L204.165 195.407
L203.422 195.407
L203.05 195.663
L201.564 195.919
L200.821 196.303
L200.45 196.303
L199.335 197.327
L198.592 197.583
L197.106 197.839
L196.363 198.223
L195.62 198.351
L193.391 198.479
L193.02 198.863
L192.277 198.863
L187.819 199.375
L187.447 199.631
L187.076 199.503
L186.704 199.759
L185.961 199.759
L185.59 200.015
L183.361 200.143
L182.618 200.399
L182.246 200.399
L181.875 200.655
L181.132 200.655
L179.274 201.807
L177.417 201.935
L175.559 201.935
L174.073 202.191
L172.587 202.959
L172.215 202.575
L171.844 202.575
L168.872 204.495
L168.129 204.495
L167.757 204.623
L167.386 205.007
L167.014 205.007
L166.643 205.135
L165.528 205.263
L165.157 205.263
L164.785 206.031
L164.414 206.031
L162.556 207.183
L159.956 208.079
L158.841 208.335
L158.098 208.847
L155.498 209.359
L154.755 209.615
L152.897 209.615
L151.783 210.255
L150.668 210.383
L149.925 210.895
L149.182 210.895
L148.811 211.023
L148.439 211.279
L147.696 211.279
L145.467 211.407
L143.981 212.047
L143.61 212.047
L143.238 212.431
L142.867 212.431
L142.495 212.559
L142.124 212.559
L141.752 212.815
L139.895 213.583
L138.78 213.583
L138.037 213.839
L136.923 213.839
L136.551 213.967
L136.179 213.967
L135.808 214.095
L135.436 214.351
L135.065 214.351
L134.693 214.479
L134.322 214.479
L133.95 214.607
L133.207 214.607
L132.464 215.119
L131.35 215.119
L130.607 215.375
L130.235 215.375
L129.864 215.631
L129.121 215.631
L128.749 215.759
L128.378 216.015
L128.006 216.015
L126.892 216.271
L126.52 216.527
L125.777 216.527
L125.034 217.039
L124.663 217.039
L124.291 217.167
L123.177 217.039
L122.805 217.167
L122.062 217.167
L121.691 217.295
L121.319 217.295
L120.205 217.423
L119.833 217.423
L119.462 218.447
L118.719 218.447
L117.976 218.831
L117.604 218.959
L116.49 219.727
L114.261 219.727
L113.518 219.983
L113.146 220.367
L112.403 220.623
L112.032 220.623
L110.917 221.263
L110.546 221.263
L110.174 221.391
L109.803 221.391
L109.06 221.775
L108.317 221.775
L107.574 222.031
L107.202 222.415
L107.202 222.415" style="fill:none;stroke:#0000ff;stroke-linecap:square;stroke-width:2;"/>
   </g>
   <g id="line2d_4">
    <path clip-path="url(#pe067ca5dee)" d="
M568.239 87.2469
L563.781 87.7589
L555.608 87.8869
L554.865 87.7589
L524.03 89.8069
L521.801 89.6789
L521.43 89.9349
L519.944 90.0629
L518.829 89.9349
L518.458 89.9349
L518.086 90.1909
L517.715 90.1909
L517.343 91.8549
L516.972 90.4469
L516.229 90.7029
L515.857 90.7029
L515.114 90.8309
L514.743 90.4469
L514.371 90.9589
L513.257 90.3189
L512.514 90.1909
L512.142 90.5749
L511.028 90.5749
L510.656 90.4469
L510.285 90.5749
L509.913 90.4469
L509.17 90.4469
L508.799 90.5749
L508.427 90.8309
L507.313 90.8309
L506.941 90.7029
L506.198 90.9589
L505.827 90.9589
L505.455 90.8309
L504.712 91.0869
L503.969 90.9589
L503.598 91.0869
L503.226 90.9589
L502.855 91.0869
L501.369 91.3429
L500.997 91.2149
L500.626 91.2149
L500.254 91.0869
L499.883 91.2149
L499.14 91.2149
L498.768 91.3429
L498.025 91.2149
L497.282 91.5989
L496.911 91.5989
L496.539 91.7269
L495.796 92.1109
L495.425 91.8549
L494.31 92.2389
L493.938 92.1109
L493.567 92.2389
L493.195 92.6229
L492.824 92.7509
L492.452 92.6229
L491.709 92.7509
L491.338 93.2629
L490.966 93.1349
L490.595 93.2629
L490.223 93.5189
L489.852 93.5189
L489.48 93.9029
L489.109 93.6469
L488.737 93.6469
L488.366 94.0309
L487.994 93.9029
L487.623 93.9029
L486.88 95.0549
L486.508 94.7989
L486.137 94.7989
L485.394 95.1829
L485.022 95.3109
L483.908 96.2069
L483.536 96.0789
L483.165 96.2069
L482.793 96.4629
L482.422 96.2069
L482.05 96.4629
L480.193 96.4629
L479.078 97.4869
L477.592 97.9989
L477.221 97.8709
L476.478 98.8949
L476.106 98.7669
L475.735 99.0229
L475.363 98.8949
L474.992 98.8949
L474.62 99.0229
L474.249 99.0229
L473.877 99.6629
L473.134 100.303
L472.391 100.559
L472.02 100.559
L470.905 101.199
L470.162 101.455
L469.791 101.455
L469.419 101.839
L469.048 101.839
L466.447 103.247
L466.076 103.631
L465.704 103.503
L465.333 103.503
L464.961 103.631
L464.218 104.271
L463.847 104.143
L463.475 104.399
L463.104 105.039
L462.732 105.039
L461.989 105.295
L461.246 105.295
L460.875 105.551
L460.503 105.551
L459.76 106.191
L459.389 105.935
L459.017 105.935
L458.646 106.191
L458.274 106.959
L457.903 107.087
L457.531 106.959
L457.16 107.087
L456.788 106.959
L456.417 107.343
L456.045 107.471
L455.302 107.343
L453.444 107.215
L453.073 107.727
L452.33 108.367
L451.958 109.007
L451.587 109.135
L451.215 109.391
L450.472 109.519
L450.101 109.775
L447.129 110.031
L433.383 115.023
L431.526 115.023
L431.154 115.663
L430.411 115.663
L428.925 116.175
L427.811 116.175
L427.439 116.687
L425.582 116.943
L425.21 117.711
L424.467 117.967
L424.096 118.735
L422.981 118.735
L422.61 118.863
L421.495 119.759
L420.752 119.759
L420.381 120.527
L418.523 119.759
L418.152 119.759
L417.78 119.887
L417.409 119.887
L417.037 119.759
L416.666 119.887
L415.551 120.399
L414.436 120.527
L414.065 120.527
L413.322 120.655
L412.95 120.527
L412.207 120.783
L411.464 121.295
L411.093 121.935
L410.35 121.679
L409.607 121.935
L409.235 122.447
L408.864 122.575
L408.492 122.959
L408.121 123.599
L407.749 123.855
L406.635 123.983
L406.263 125.007
L401.805 126.543
L401.434 126.543
L400.691 127.055
L399.948 127.055
L399.205 127.951
L398.462 127.951
L398.09 128.079
L397.347 128.463
L396.976 128.591
L396.604 129.103
L396.233 129.103
L395.861 129.231
L395.118 129.615
L394.747 129.743
L394.004 130.639
L393.632 130.639
L392.889 131.023
L392.518 129.359
L391.775 129.231
L391.403 129.359
L390.289 129.999
L389.917 131.407
L389.546 131.919
L388.431 132.303
L388.06 132.687
L387.688 132.559
L387.317 132.559
L386.945 131.663
L386.574 131.919
L386.202 132.431
L385.831 132.431
L385.459 132.815
L385.088 132.943
L384.716 132.815
L383.23 133.327
L382.487 133.711
L382.116 134.223
L381.744 134.223
L381.373 134.479
L381.001 134.479
L379.887 134.863
L379.515 134.863
L378.772 135.503
L378.401 135.503
L378.029 135.631
L377.658 135.503
L376.543 135.503
L376.172 135.759
L375.8 136.655
L375.428 136.015
L375.057 136.143
L374.314 136.527
L373.942 136.655
L373.571 136.655
L372.828 137.679
L372.456 137.679
L371.713 138.319
L370.599 138.191
L369.484 138.959
L369.113 138.959
L368.741 139.087
L368.37 139.087
L367.998 139.215
L367.627 139.471
L367.255 139.471
L366.884 139.599
L366.141 139.727
L365.769 140.111
L365.026 140.111
L364.655 139.983
L363.912 140.239
L363.169 140.239
L362.797 140.367
L362.426 140.367
L362.054 140.495
L361.683 140.495
L360.197 141.007
L359.825 141.007
L359.082 141.519
L358.711 141.519
L358.339 142.031
L357.968 142.031
L357.596 142.159
L357.225 142.415
L355.367 143.055
L354.624 143.055
L354.253 143.183
L353.881 143.183
L353.138 143.439
L352.767 143.439
L352.395 143.567
L352.024 143.439
L351.652 143.567
L350.909 144.335
L349.795 144.335
L349.423 144.463
L348.68 144.847
L323.418 156.751
L317.474 160.719
L308.929 163.407
L306.7 164.559
L305.214 165.711
L297.413 168.271
L284.781 171.471
L284.41 171.727
L281.438 172.367
L281.438 172.367" style="fill:none;stroke:#000000;stroke-linecap:square;stroke-width:2;"/>
   </g>
   <g id="line2d_5">
    <path clip-path="url(#pe067ca5dee)" d="
M614.677 36.6869
L613.934 36.8149
L613.191 37.4549
L612.448 37.3269
L611.705 38.2229
L610.962 37.7109
L610.219 38.6069
L609.476 38.3509
L608.733 38.2229
L607.99 38.3509
L607.247 39.1189
L606.504 39.5029
L605.018 39.7589
L603.532 40.6549
L602.789 40.9109
L602.046 40.9109
L601.303 41.8069
L600.56 42.1909
L599.446 42.4469
L590.53 47.5669
L589.787 48.3349
L589.044 48.3349
L588.301 49.3589
L587.558 49.2309
L586.815 50.5109
L586.072 49.9989
L585.329 50.6389
L584.586 52.1749
L583.1 52.0469
L582.357 52.6869
L581.614 53.0709
L580.871 52.6869
L580.128 52.6869
L579.385 52.4309
L578.642 52.6869
L577.527 53.4549
L576.041 55.2469
L575.298 55.7589
L574.555 55.8869
L573.812 56.3989
L573.069 56.6549
L572.326 57.0389
L571.583 57.1669
L570.84 57.8069
L568.982 59.0869
L568.239 58.4469
L563.781 59.5989
L554.865 63.3109
L524.03 80.8469
L521.801 81.6149
L521.43 82.2549
L520.315 83.0229
L519.944 83.0229
L518.829 83.4069
L518.458 83.7909
L517.715 84.0469
L517.343 86.3509
L516.972 84.5589
L516.6 85.9669
L516.229 85.8389
L515.857 85.8389
L515.114 86.2229
L514.743 86.6069
L514.371 86.7349
L511.771 87.3749
L510.285 88.6549
L509.913 89.1669
L508.056 89.5509
L507.313 89.9349
L506.941 89.8069
L506.57 90.0629
L506.198 90.0629
L505.455 90.3189
L504.712 90.7029
L503.969 90.8309
L503.598 91.0869
L503.226 90.8309
L502.112 91.7269
L501.74 91.5989
L501.369 91.8549
L500.997 91.7269
L500.254 91.7269
L499.883 91.9829
L498.768 92.1109
L498.025 92.1109
L497.282 93.0069
L496.911 93.0069
L496.168 93.3909
L495.053 93.7749
L494.31 94.4149
L493.938 89.2949
L493.567 89.4229
L493.195 89.9349
L492.452 90.1909
L491.709 90.3189
L490.966 90.9589
L490.595 91.0869
L490.223 91.9829
L489.852 92.1109
L489.48 92.6229
L489.109 94.5429
L488.737 92.7509
L488.366 93.1349
L487.994 93.0069
L487.623 93.1349
L487.251 93.7749
L486.88 94.0309
L486.137 94.0309
L485.765 94.5429
L485.394 94.5429
L483.165 96.2069
L482.793 96.0789
L482.05 96.3349
L481.679 96.3349
L481.307 96.4629
L480.936 96.4629
L480.193 96.7189
L477.964 98.3829
L477.592 98.5109
L477.221 98.5109
L476.849 99.1509
L476.478 99.2789
L476.106 99.5349
L475.735 99.4069
L474.992 99.6629
L474.62 99.5349
L474.249 99.6629
L473.877 100.303
L472.391 101.199
L472.02 101.071
L471.648 101.583
L471.277 101.455
L470.905 101.583
L470.162 102.095
L469.419 102.095
L469.048 102.479
L466.447 103.887
L466.076 103.887
L465.704 104.271
L464.961 104.015
L464.59 104.527
L464.218 104.527
L463.847 104.655
L462.361 106.191
L461.989 105.807
L461.246 105.807
L460.875 106.063
L460.503 106.063
L460.132 106.447
L459.76 106.575
L459.389 106.575
L458.646 106.831
L458.274 107.983
L457.903 107.599
L457.16 107.855
L456.788 107.343
L456.045 107.727
L455.302 107.983
L453.816 107.727
L453.444 107.855
L453.073 108.239
L452.33 108.751
L451.958 109.775
L451.587 109.775
L451.215 110.031
L447.129 110.671
L433.383 115.663
L431.526 115.663
L431.154 116.303
L427.811 116.815
L427.439 117.327
L425.582 117.327
L425.21 118.223
L424.467 118.479
L424.096 119.247
L422.981 119.247
L421.495 120.143
L421.124 120.143
L420.752 120.271
L420.381 120.783
L418.523 120.271
L418.152 120.399
L417.78 120.271
L416.666 120.271
L415.551 120.911
L414.436 121.039
L412.95 121.039
L412.207 121.295
L411.093 122.191
L410.35 122.191
L409.607 122.447
L409.235 122.831
L408.864 122.831
L407.749 124.367
L406.635 124.367
L406.263 125.519
L402.548 127.055
L401.434 127.183
L400.691 127.695
L399.948 127.695
L399.205 128.591
L398.09 128.591
L397.719 128.975
L396.976 129.231
L396.604 129.743
L394.747 130.383
L394.004 131.151
L394.004 131.151" style="fill:none;stroke:#bfbf00;stroke-linecap:square;stroke-width:2;"/>
   </g>
   <g id="line2d_6">
    <path clip-path="url(#pe067ca5dee)" d="
M614.677 36.4309
L613.934 36.6869
L613.191 36.9429
L612.448 36.5589
L611.705 37.7109
L610.962 37.8389
L610.219 37.8389
L609.476 37.5829
L608.733 37.7109
L607.99 37.9669
L607.247 38.2229
L606.504 39.1189
L605.018 39.7589
L604.275 40.3989
L603.532 40.6549
L602.789 40.6549
L602.046 40.9109
L601.303 42.0629
L600.56 42.8309
L599.446 43.4709
L590.53 49.4869
L589.787 50.6389
L589.044 50.5109
L588.301 51.9189
L587.558 51.2789
L586.815 52.4309
L586.072 52.1749
L585.329 52.6869
L584.586 53.7109
L583.1 56.5269
L582.357 56.0149
L581.614 56.1429
L580.871 55.8869
L580.128 54.4789
L579.385 54.6069
L578.642 54.3509
L577.527 55.3749
L576.041 56.5269
L575.298 56.0149
L574.555 56.0149
L573.812 56.1429
L573.069 56.5269
L572.326 57.0389
L571.583 58.1909
L570.84 58.7029
L568.982 63.6949
L568.239 63.8229" style="fill:none;stroke:#bf00bf;stroke-linecap:square;stroke-width:2;"/>
   </g>
   <g id="line2d_7">
    <path clip-path="url(#pe067ca5dee)" d="
M109.803 243.407
L109.803 13.0069" style="fill:none;stroke:#333333;stroke-linecap:square;"/>
   </g>
   <g id="line2d_8">
    <path clip-path="url(#pe067ca5dee)" d="
M121.691 243.407
L121.691 13.0069" style="fill:none;stroke:#cccccc;stroke-linecap:square;"/>
   </g>
   <g id="line2d_9">
    <path clip-path="url(#pe067ca5dee)" d="
M132.836 243.407
L132.836 13.0069" style="fill:none;stroke:#cccccc;stroke-linecap:square;"/>
   </g>
   <g id="line2d_10">
    <path clip-path="url(#pe067ca5dee)" d="
M145.096 243.407
L145.096 13.0069" style="fill:none;stroke:#cccccc;stroke-linecap:square;"/>
   </g>
   <g id="line2d_11">
    <path clip-path="url(#pe067ca5dee)" d="
M157.355 243.407
L157.355 13.0069" style="fill:none;stroke:#cccccc;stroke-linecap:square;"/>
   </g>
   <g id="line2d_12">
    <path clip-path="url(#pe067ca5dee)" d="
M162.185 243.407
L162.185 13.0069" style="fill:none;stroke:#cccccc;stroke-linecap:square;"/>
   </g>
   <g id="line2d_13">
    <path clip-path="url(#pe067ca5dee)" d="
M177.045 243.407
L177.045 13.0069" style="fill:none;stroke:#cccccc;stroke-linecap:square;"/>
   </g>
   <g id="line2d_14">
    <path clip-path="url(#pe067ca5dee)" d="
M189.676 243.407
L189.676 13.0069" style="fill:none;stroke:#cccccc;stroke-linecap:square;"/>
   </g>
   <g id="line2d_15">
    <path clip-path="url(#pe067ca5dee)" d="
M203.793 243.407
L203.793 13.0069" style="fill:none;stroke:#cccccc;stroke-linecap:square;"/>
   </g>
   <g id="line2d_16">
    <path clip-path="url(#pe067ca5dee)" d="
M214.938 243.407
L214.938 13.0069" style="fill:none;stroke:#cccccc;stroke-linecap:square;"/>
   </g>
   <g id="line2d_17">
    <path clip-path="url(#pe067ca5dee)" d="
M224.226 243.407
L224.226 13.0069" style="fill:none;stroke:#cccccc;stroke-linecap:square;"/>
   </g>
   <g id="line2d_18">
    <path clip-path="url(#pe067ca5dee)" d="
M236.486 243.407
L236.486 13.0069" style="fill:none;stroke:#cccccc;stroke-linecap:square;"/>
   </g>
   <g id="line2d_19">
    <path clip-path="url(#pe067ca5dee)" d="
M270.293 243.407
L270.293 13.0069" style="fill:none;stroke:#cccccc;stroke-linecap:square;"/>
   </g>
   <g id="line2d_20">
    <path clip-path="url(#pe067ca5dee)" d="
M263.606 243.407
L263.606 13.0069" style="fill:none;stroke:#333333;stroke-linecap:square;"/>
   </g>
   <g id="line2d_21">
    <path clip-path="url(#pe067ca5dee)" d="
M275.122 243.407
L275.122 13.0069" style="fill:none;stroke:#cccccc;stroke-linecap:square;"/>
   </g>
   <g id="line2d_22">
    <path clip-path="url(#pe067ca5dee)" d="
M285.524 243.407
L285.524 13.0069" style="fill:none;stroke:#cccccc;stroke-linecap:square;"/>
   </g>
   <g id="line2d_23">
    <path clip-path="url(#pe067ca5dee)" d="
M299.27 243.407
L299.27 13.0069" style="fill:none;stroke:#cccccc;stroke-linecap:square;"/>
   </g>
   <g id="line2d_24">
    <path clip-path="url(#pe067ca5dee)" d="
M323.418 243.407
L323.418 13.0069" style="fill:none;stroke:#cccccc;stroke-linecap:square;"/>
   </g>
   <g id="line2d_25">
    <path clip-path="url(#pe067ca5dee)" d="
M358.339 243.407
L358.339 13.0069" style="fill:none;stroke:#cccccc;stroke-linecap:square;"/>
   </g>
   <g id="line2d_26">
    <path clip-path="url(#pe067ca5dee)" d="
M392.146 243.407
L392.146 13.0069" style="fill:none;stroke:#cccccc;stroke-linecap:square;"/>
   </g>
   <g id="line2d_27">
    <path clip-path="url(#pe067ca5dee)" d="
M392.518 243.407
L392.518 13.0069" style="fill:none;stroke:#333333;stroke-linecap:square;"/>
   </g>
   <g id="line2d_28">
    <path clip-path="url(#pe067ca5dee)" d="
M454.559 243.407
L454.559 13.0069" style="fill:none;stroke:#cccccc;stroke-linecap:square;"/>
   </g>
   <g id="line2d_29">
    <path clip-path="url(#pe067ca5dee)" d="
M477.592 243.407
L477.592 13.0069" style="fill:none;stroke:#cccccc;stroke-linecap:square;"/>
   </g>
   <g id="line2d_30">
    <path clip-path="url(#pe067ca5dee)" d="
M493.938 243.407
L493.938 13.0069" style="fill:none;stroke:#333333;stroke-linecap:square;"/>
   </g>
   <g id="line2d_31">
    <path clip-path="url(#pe067ca5dee)" d="
M541.12 243.407
L541.12 13.0069" style="fill:none;stroke:#cccccc;stroke-linecap:square;"/>
   </g>
   <g id="line2d_32">
    <path clip-path="url(#pe067ca5dee)" d="
M559.695 243.407
L559.695 13.0069" style="fill:none;stroke:#cccccc;stroke-linecap:square;"/>
   </g>
   <g id="matplotlib.axis_1">
    <g id="xtick_1">
     <g id="line2d_33">
      <defs>
       <path d="
M0 0
L0 -4" id="m93b0483c22" style="stroke:#000000;stroke-width:0.5;"/>
      </defs>
      <g>
       <use style="stroke:#000000;stroke-width:0.5;" x="102.744077896" xlink:href="#m93b0483c22" y="243.406875"/>
      </g>
     </g>
     <g id="line2d_34">
      <defs>
       <path d="
M0 0
L0 4" id="m741efc42ff" style="stroke:#000000;stroke-width:0.5;"/>
      </defs>
      <g>
       <use style="stroke:#000000;stroke-width:0.5;" x="102.744077896" xlink:href="#m741efc42ff" y="13.006875"/>
      </g>
     </g>
     <g id="text_1">
      <!-- Aug 2014 -->
      <defs>
       <path d="
M12.4062 8.29688
L28.5156 8.29688
L28.5156 63.9219
L10.9844 60.4062
L10.9844 69.3906
L28.4219 72.9062
L38.2812 72.9062
L38.2812 8.29688
L54.3906 8.29688
L54.3906 0
L12.4062 0
z
" id="DejaVuSans-31"/>
       <path d="
M31.7812 66.4062
Q24.1719 66.4062 20.3281 58.9062
Q16.5 51.4219 16.5 36.375
Q16.5 21.3906 20.3281 13.8906
Q24.1719 6.39062 31.7812 6.39062
Q39.4531 6.39062 43.2812 13.8906
Q47.125 21.3906 47.125 36.375
Q47.125 51.4219 43.2812 58.9062
Q39.4531 66.4062 31.7812 66.4062
M31.7812 74.2188
Q44.0469 74.2188 50.5156 64.5156
Q56.9844 54.8281 56.9844 36.375
Q56.9844 17.9688 50.5156 8.26562
Q44.0469 -1.42188 31.7812 -1.42188
Q19.5312 -1.42188 13.0625 8.26562
Q6.59375 17.9688 6.59375 36.375
Q6.59375 54.8281 13.0625 64.5156
Q19.5312 74.2188 31.7812 74.2188" id="DejaVuSans-30"/>
       <path id="DejaVuSans-20"/>
       <path d="
M19.1875 8.29688
L53.6094 8.29688
L53.6094 0
L7.32812 0
L7.32812 8.29688
Q12.9375 14.1094 22.625 23.8906
Q32.3281 33.6875 34.8125 36.5312
Q39.5469 41.8438 41.4219 45.5312
Q43.3125 49.2188 43.3125 52.7812
Q43.3125 58.5938 39.2344 62.25
Q35.1562 65.9219 28.6094 65.9219
Q23.9688 65.9219 18.8125 64.3125
Q13.6719 62.7031 7.8125 59.4219
L7.8125 69.3906
Q13.7656 71.7812 18.9375 73
Q24.125 74.2188 28.4219 74.2188
Q39.75 74.2188 46.4844 68.5469
Q53.2188 62.8906 53.2188 53.4219
Q53.2188 48.9219 51.5312 44.8906
Q49.8594 40.875 45.4062 35.4062
Q44.1875 33.9844 37.6406 27.2188
Q31.1094 20.4531 19.1875 8.29688" id="DejaVuSans-32"/>
       <path d="
M34.1875 63.1875
L20.7969 26.9062
L47.6094 26.9062
z

M28.6094 72.9062
L39.7969 72.9062
L67.5781 0
L57.3281 0
L50.6875 18.7031
L17.8281 18.7031
L11.1875 0
L0.78125 0
z
" id="DejaVuSans-41"/>
       <path d="
M8.5 21.5781
L8.5 54.6875
L17.4844 54.6875
L17.4844 21.9219
Q17.4844 14.1562 20.5 10.2656
Q23.5312 6.39062 29.5938 6.39062
Q36.8594 6.39062 41.0781 11.0312
Q45.3125 15.6719 45.3125 23.6875
L45.3125 54.6875
L54.2969 54.6875
L54.2969 0
L45.3125 0
L45.3125 8.40625
Q42.0469 3.42188 37.7188 1
Q33.4062 -1.42188 27.6875 -1.42188
Q18.2656 -1.42188 13.375 4.4375
Q8.5 10.2969 8.5 21.5781
M31.1094 56
z
" id="DejaVuSans-75"/>
       <path d="
M45.4062 27.9844
Q45.4062 37.75 41.375 43.1094
Q37.3594 48.4844 30.0781 48.4844
Q22.8594 48.4844 18.8281 43.1094
Q14.7969 37.75 14.7969 27.9844
Q14.7969 18.2656 18.8281 12.8906
Q22.8594 7.51562 30.0781 7.51562
Q37.3594 7.51562 41.375 12.8906
Q45.4062 18.2656 45.4062 27.9844
M54.3906 6.78125
Q54.3906 -7.17188 48.1875 -13.9844
Q42 -20.7969 29.2031 -20.7969
Q24.4688 -20.7969 20.2656 -20.0938
Q16.0625 -19.3906 12.1094 -17.9219
L12.1094 -9.1875
Q16.0625 -11.3281 19.9219 -12.3438
Q23.7812 -13.375 27.7812 -13.375
Q36.625 -13.375 41.0156 -8.76562
Q45.4062 -4.15625 45.4062 5.17188
L45.4062 9.625
Q42.625 4.78125 38.2812 2.39062
Q33.9375 0 27.875 0
Q17.8281 0 11.6719 7.65625
Q5.51562 15.3281 5.51562 27.9844
Q5.51562 40.6719 11.6719 48.3281
Q17.8281 56 27.875 56
Q33.9375 56 38.2812 53.6094
Q42.625 51.2188 45.4062 46.3906
L45.4062 54.6875
L54.3906 54.6875
z
" id="DejaVuSans-67"/>
       <path d="
M37.7969 64.3125
L12.8906 25.3906
L37.7969 25.3906
z

M35.2031 72.9062
L47.6094 72.9062
L47.6094 25.3906
L58.0156 25.3906
L58.0156 17.1875
L47.6094 17.1875
L47.6094 0
L37.7969 0
L37.7969 17.1875
L4.89062 17.1875
L4.89062 26.7031
z
" id="DejaVuSans-34"/>
      </defs>
      <g transform="translate(106.055327896 304.519375)rotate(-90.0)scale(0.12 -0.12)">
       <use xlink:href="#DejaVuSans-41"/>
       <use x="68.408203125" xlink:href="#DejaVuSans-75"/>
       <use x="131.787109375" xlink:href="#DejaVuSans-67"/>
       <use x="195.263671875" xlink:href="#DejaVuSans-20"/>
       <use x="227.05078125" xlink:href="#DejaVuSans-32"/>
       <use x="290.673828125" xlink:href="#DejaVuSans-30"/>
       <use x="354.296875" xlink:href="#DejaVuSans-31"/>
       <use x="417.919921875" xlink:href="#DejaVuSans-34"/>
      </g>
     </g>
    </g>
    <g id="xtick_2">
     <g id="line2d_35">
      <g>
       <use style="stroke:#000000;stroke-width:0.5;" x="171.100935419" xlink:href="#m93b0483c22" y="243.406875"/>
      </g>
     </g>
     <g id="line2d_36">
      <g>
       <use style="stroke:#000000;stroke-width:0.5;" x="171.100935419" xlink:href="#m741efc42ff" y="13.006875"/>
      </g>
     </g>
     <g id="text_2">
      <!-- Feb 2015 -->
      <defs>
       <path d="
M10.7969 72.9062
L49.5156 72.9062
L49.5156 64.5938
L19.8281 64.5938
L19.8281 46.7344
Q21.9688 47.4688 24.1094 47.8281
Q26.2656 48.1875 28.4219 48.1875
Q40.625 48.1875 47.75 41.5
Q54.8906 34.8125 54.8906 23.3906
Q54.8906 11.625 47.5625 5.09375
Q40.2344 -1.42188 26.9062 -1.42188
Q22.3125 -1.42188 17.5469 -0.640625
Q12.7969 0.140625 7.71875 1.70312
L7.71875 11.625
Q12.1094 9.23438 16.7969 8.0625
Q21.4844 6.89062 26.7031 6.89062
Q35.1562 6.89062 40.0781 11.3281
Q45.0156 15.7656 45.0156 23.3906
Q45.0156 31 40.0781 35.4375
Q35.1562 39.8906 26.7031 39.8906
Q22.75 39.8906 18.8125 39.0156
Q14.8906 38.1406 10.7969 36.2812
z
" id="DejaVuSans-35"/>
       <path d="
M9.8125 72.9062
L51.7031 72.9062
L51.7031 64.5938
L19.6719 64.5938
L19.6719 43.1094
L48.5781 43.1094
L48.5781 34.8125
L19.6719 34.8125
L19.6719 0
L9.8125 0
z
" id="DejaVuSans-46"/>
       <path d="
M56.2031 29.5938
L56.2031 25.2031
L14.8906 25.2031
Q15.4844 15.9219 20.4844 11.0625
Q25.4844 6.20312 34.4219 6.20312
Q39.5938 6.20312 44.4531 7.46875
Q49.3125 8.73438 54.1094 11.2812
L54.1094 2.78125
Q49.2656 0.734375 44.1875 -0.34375
Q39.1094 -1.42188 33.8906 -1.42188
Q20.7969 -1.42188 13.1562 6.1875
Q5.51562 13.8125 5.51562 26.8125
Q5.51562 40.2344 12.7656 48.1094
Q20.0156 56 32.3281 56
Q43.3594 56 49.7812 48.8906
Q56.2031 41.7969 56.2031 29.5938
M47.2188 32.2344
Q47.125 39.5938 43.0938 43.9844
Q39.0625 48.3906 32.4219 48.3906
Q24.9062 48.3906 20.3906 44.1406
Q15.875 39.8906 15.1875 32.1719
z
" id="DejaVuSans-65"/>
       <path d="
M48.6875 27.2969
Q48.6875 37.2031 44.6094 42.8438
Q40.5312 48.4844 33.4062 48.4844
Q26.2656 48.4844 22.1875 42.8438
Q18.1094 37.2031 18.1094 27.2969
Q18.1094 17.3906 22.1875 11.75
Q26.2656 6.10938 33.4062 6.10938
Q40.5312 6.10938 44.6094 11.75
Q48.6875 17.3906 48.6875 27.2969
M18.1094 46.3906
Q20.9531 51.2656 25.2656 53.625
Q29.5938 56 35.5938 56
Q45.5625 56 51.7812 48.0938
Q58.0156 40.1875 58.0156 27.2969
Q58.0156 14.4062 51.7812 6.48438
Q45.5625 -1.42188 35.5938 -1.42188
Q29.5938 -1.42188 25.2656 0.953125
Q20.9531 3.32812 18.1094 8.20312
L18.1094 0
L9.07812 0
L9.07812 75.9844
L18.1094 75.9844
z
" id="DejaVuSans-62"/>
      </defs>
      <g transform="translate(174.412185419 301.95625)rotate(-90.0)scale(0.12 -0.12)">
       <use xlink:href="#DejaVuSans-46"/>
       <use x="52.01953125" xlink:href="#DejaVuSans-65"/>
       <use x="113.54296875" xlink:href="#DejaVuSans-62"/>
       <use x="177.01953125" xlink:href="#DejaVuSans-20"/>
       <use x="208.806640625" xlink:href="#DejaVuSans-32"/>
       <use x="272.4296875" xlink:href="#DejaVuSans-30"/>
       <use x="336.052734375" xlink:href="#DejaVuSans-31"/>
       <use x="399.67578125" xlink:href="#DejaVuSans-35"/>
      </g>
     </g>
    </g>
    <g id="xtick_3">
     <g id="line2d_37">
      <g>
       <use style="stroke:#000000;stroke-width:0.5;" x="238.343278961" xlink:href="#m93b0483c22" y="243.406875"/>
      </g>
     </g>
     <g id="line2d_38">
      <g>
       <use style="stroke:#000000;stroke-width:0.5;" x="238.343278961" xlink:href="#m741efc42ff" y="13.006875"/>
      </g>
     </g>
     <g id="text_3">
      <!-- Aug 2015 -->
      <g transform="translate(241.654528961 304.144375)rotate(-90.0)scale(0.12 -0.12)">
       <use xlink:href="#DejaVuSans-41"/>
       <use x="68.408203125" xlink:href="#DejaVuSans-75"/>
       <use x="131.787109375" xlink:href="#DejaVuSans-67"/>
       <use x="195.263671875" xlink:href="#DejaVuSans-20"/>
       <use x="227.05078125" xlink:href="#DejaVuSans-32"/>
       <use x="290.673828125" xlink:href="#DejaVuSans-30"/>
       <use x="354.296875" xlink:href="#DejaVuSans-31"/>
       <use x="417.919921875" xlink:href="#DejaVuSans-35"/>
      </g>
     </g>
    </g>
    <g id="xtick_4">
     <g id="line2d_39">
      <g>
       <use style="stroke:#000000;stroke-width:0.5;" x="306.700136485" xlink:href="#m93b0483c22" y="243.406875"/>
      </g>
     </g>
     <g id="line2d_40">
      <g>
       <use style="stroke:#000000;stroke-width:0.5;" x="306.700136485" xlink:href="#m741efc42ff" y="13.006875"/>
      </g>
     </g>
     <g id="text_4">
      <!-- Feb 2016 -->
      <defs>
       <path d="
M33.0156 40.375
Q26.375 40.375 22.4844 35.8281
Q18.6094 31.2969 18.6094 23.3906
Q18.6094 15.5312 22.4844 10.9531
Q26.375 6.39062 33.0156 6.39062
Q39.6562 6.39062 43.5312 10.9531
Q47.4062 15.5312 47.4062 23.3906
Q47.4062 31.2969 43.5312 35.8281
Q39.6562 40.375 33.0156 40.375
M52.5938 71.2969
L52.5938 62.3125
Q48.875 64.0625 45.0938 64.9844
Q41.3125 65.9219 37.5938 65.9219
Q27.8281 65.9219 22.6719 59.3281
Q17.5312 52.7344 16.7969 39.4062
Q19.6719 43.6562 24.0156 45.9219
Q28.375 48.1875 33.5938 48.1875
Q44.5781 48.1875 50.9531 41.5156
Q57.3281 34.8594 57.3281 23.3906
Q57.3281 12.1562 50.6875 5.35938
Q44.0469 -1.42188 33.0156 -1.42188
Q20.3594 -1.42188 13.6719 8.26562
Q6.98438 17.9688 6.98438 36.375
Q6.98438 53.6562 15.1875 63.9375
Q23.3906 74.2188 37.2031 74.2188
Q40.9219 74.2188 44.7031 73.4844
Q48.4844 72.75 52.5938 71.2969" id="DejaVuSans-36"/>
      </defs>
      <g transform="translate(310.011386485 302.24875)rotate(-90.0)scale(0.12 -0.12)">
       <use xlink:href="#DejaVuSans-46"/>
       <use x="52.01953125" xlink:href="#DejaVuSans-65"/>
       <use x="113.54296875" xlink:href="#DejaVuSans-62"/>
       <use x="177.01953125" xlink:href="#DejaVuSans-20"/>
       <use x="208.806640625" xlink:href="#DejaVuSans-32"/>
       <use x="272.4296875" xlink:href="#DejaVuSans-30"/>
       <use x="336.052734375" xlink:href="#DejaVuSans-31"/>
       <use x="399.67578125" xlink:href="#DejaVuSans-36"/>
      </g>
     </g>
    </g>
    <g id="xtick_5">
     <g id="line2d_41">
      <g>
       <use style="stroke:#000000;stroke-width:0.5;" x="374.313984687" xlink:href="#m93b0483c22" y="243.406875"/>
      </g>
     </g>
     <g id="line2d_42">
      <g>
       <use style="stroke:#000000;stroke-width:0.5;" x="374.313984687" xlink:href="#m741efc42ff" y="13.006875"/>
      </g>
     </g>
     <g id="text_5">
      <!-- Aug 2016 -->
      <g transform="translate(377.625234687 304.436875)rotate(-90.0)scale(0.12 -0.12)">
       <use xlink:href="#DejaVuSans-41"/>
       <use x="68.408203125" xlink:href="#DejaVuSans-75"/>
       <use x="131.787109375" xlink:href="#DejaVuSans-67"/>
       <use x="195.263671875" xlink:href="#DejaVuSans-20"/>
       <use x="227.05078125" xlink:href="#DejaVuSans-32"/>
       <use x="290.673828125" xlink:href="#DejaVuSans-30"/>
       <use x="354.296875" xlink:href="#DejaVuSans-31"/>
       <use x="417.919921875" xlink:href="#DejaVuSans-36"/>
      </g>
     </g>
    </g>
    <g id="xtick_6">
     <g id="line2d_43">
      <g>
       <use style="stroke:#000000;stroke-width:0.5;" x="442.67084221" xlink:href="#m93b0483c22" y="243.406875"/>
      </g>
     </g>
     <g id="line2d_44">
      <g>
       <use style="stroke:#000000;stroke-width:0.5;" x="442.67084221" xlink:href="#m741efc42ff" y="13.006875"/>
      </g>
     </g>
     <g id="text_6">
      <!-- Feb 2017 -->
      <defs>
       <path d="
M8.20312 72.9062
L55.0781 72.9062
L55.0781 68.7031
L28.6094 0
L18.3125 0
L43.2188 64.5938
L8.20312 64.5938
z
" id="DejaVuSans-37"/>
      </defs>
      <g transform="translate(445.98209221 301.97875)rotate(-90.0)scale(0.12 -0.12)">
       <use xlink:href="#DejaVuSans-46"/>
       <use x="52.01953125" xlink:href="#DejaVuSans-65"/>
       <use x="113.54296875" xlink:href="#DejaVuSans-62"/>
       <use x="177.01953125" xlink:href="#DejaVuSans-20"/>
       <use x="208.806640625" xlink:href="#DejaVuSans-32"/>
       <use x="272.4296875" xlink:href="#DejaVuSans-30"/>
       <use x="336.052734375" xlink:href="#DejaVuSans-31"/>
       <use x="399.67578125" xlink:href="#DejaVuSans-37"/>
      </g>
     </g>
    </g>
    <g id="xtick_7">
     <g id="line2d_45">
      <g>
       <use style="stroke:#000000;stroke-width:0.5;" x="509.913185752" xlink:href="#m93b0483c22" y="243.406875"/>
      </g>
     </g>
     <g id="line2d_46">
      <g>
       <use style="stroke:#000000;stroke-width:0.5;" x="509.913185752" xlink:href="#m741efc42ff" y="13.006875"/>
      </g>
     </g>
     <g id="text_7">
      <!-- Aug 2017 -->
      <g transform="translate(513.224435752 304.166875)rotate(-90.0)scale(0.12 -0.12)">
       <use xlink:href="#DejaVuSans-41"/>
       <use x="68.408203125" xlink:href="#DejaVuSans-75"/>
       <use x="131.787109375" xlink:href="#DejaVuSans-67"/>
       <use x="195.263671875" xlink:href="#DejaVuSans-20"/>
       <use x="227.05078125" xlink:href="#DejaVuSans-32"/>
       <use x="290.673828125" xlink:href="#DejaVuSans-30"/>
       <use x="354.296875" xlink:href="#DejaVuSans-31"/>
       <use x="417.919921875" xlink:href="#DejaVuSans-37"/>
      </g>
     </g>
    </g>
    <g id="xtick_8">
     <g id="line2d_47">
      <g>
       <use style="stroke:#000000;stroke-width:0.5;" x="578.270043276" xlink:href="#m93b0483c22" y="243.406875"/>
      </g>
     </g>
     <g id="line2d_48">
      <g>
       <use style="stroke:#000000;stroke-width:0.5;" x="578.270043276" xlink:href="#m741efc42ff" y="13.006875"/>
      </g>
     </g>
     <g id="text_8">
      <!-- Feb 2018 -->
      <defs>
       <path d="
M31.7812 34.625
Q24.75 34.625 20.7188 30.8594
Q16.7031 27.0938 16.7031 20.5156
Q16.7031 13.9219 20.7188 10.1562
Q24.75 6.39062 31.7812 6.39062
Q38.8125 6.39062 42.8594 10.1719
Q46.9219 13.9688 46.9219 20.5156
Q46.9219 27.0938 42.8906 30.8594
Q38.875 34.625 31.7812 34.625
M21.9219 38.8125
Q15.5781 40.375 12.0312 44.7188
Q8.5 49.0781 8.5 55.3281
Q8.5 64.0625 14.7188 69.1406
Q20.9531 74.2188 31.7812 74.2188
Q42.6719 74.2188 48.875 69.1406
Q55.0781 64.0625 55.0781 55.3281
Q55.0781 49.0781 51.5312 44.7188
Q48 40.375 41.7031 38.8125
Q48.8281 37.1562 52.7969 32.3125
Q56.7812 27.4844 56.7812 20.5156
Q56.7812 9.90625 50.3125 4.23438
Q43.8438 -1.42188 31.7812 -1.42188
Q19.7344 -1.42188 13.25 4.23438
Q6.78125 9.90625 6.78125 20.5156
Q6.78125 27.4844 10.7812 32.3125
Q14.7969 37.1562 21.9219 38.8125
M18.3125 54.3906
Q18.3125 48.7344 21.8438 45.5625
Q25.3906 42.3906 31.7812 42.3906
Q38.1406 42.3906 41.7188 45.5625
Q45.3125 48.7344 45.3125 54.3906
Q45.3125 60.0625 41.7188 63.2344
Q38.1406 66.4062 31.7812 66.4062
Q25.3906 66.4062 21.8438 63.2344
Q18.3125 60.0625 18.3125 54.3906" id="DejaVuSans-38"/>
      </defs>
      <g transform="translate(581.581293276 302.183125)rotate(-90.0)scale(0.12 -0.12)">
       <use xlink:href="#DejaVuSans-46"/>
       <use x="52.01953125" xlink:href="#DejaVuSans-65"/>
       <use x="113.54296875" xlink:href="#DejaVuSans-62"/>
       <use x="177.01953125" xlink:href="#DejaVuSans-20"/>
       <use x="208.806640625" xlink:href="#DejaVuSans-32"/>
       <use x="272.4296875" xlink:href="#DejaVuSans-30"/>
       <use x="336.052734375" xlink:href="#DejaVuSans-31"/>
       <use x="399.67578125" xlink:href="#DejaVuSans-38"/>
      </g>
     </g>
    </g>
   </g>
   <g id="matplotlib.axis_2">
    <g id="ytick_1">
     <g id="line2d_49">
      <defs>
       <path d="
M0 0
L4 0" id="m728421d6d4" style="stroke:#000000;stroke-width:0.5;"/>
      </defs>
      <g>
       <use style="stroke:#000000;stroke-width:0.5;" x="56.6775" xlink:href="#m728421d6d4" y="243.406875"/>
      </g>
     </g>
     <g id="line2d_50">
      <defs>
       <path d="
M0 0
L-4 0" id="mcb0005524f" style="stroke:#000000;stroke-width:0.5;"/>
      </defs>
      <g>
       <use style="stroke:#000000;stroke-width:0.5;" x="614.6775" xlink:href="#mcb0005524f" y="243.406875"/>
      </g>
     </g>
     <g id="text_9">
      <!-- 200 -->
      <g transform="translate(31.44875 246.718125)scale(0.12 -0.12)">
       <use xlink:href="#DejaVuSans-32"/>
       <use x="63.623046875" xlink:href="#DejaVuSans-30"/>
       <use x="127.24609375" xlink:href="#DejaVuSans-30"/>
      </g>
     </g>
    </g>
    <g id="ytick_2">
     <g id="line2d_51">
      <g>
       <use style="stroke:#000000;stroke-width:0.5;" x="56.6775" xlink:href="#m728421d6d4" y="217.806875"/>
      </g>
     </g>
     <g id="line2d_52">
      <g>
       <use style="stroke:#000000;stroke-width:0.5;" x="614.6775" xlink:href="#mcb0005524f" y="217.806875"/>
      </g>
     </g>
     <g id="text_10">
      <!-- 400 -->
      <g transform="translate(31.15625 221.118125)scale(0.12 -0.12)">
       <use xlink:href="#DejaVuSans-34"/>
       <use x="63.623046875" xlink:href="#DejaVuSans-30"/>
       <use x="127.24609375" xlink:href="#DejaVuSans-30"/>
      </g>
     </g>
    </g>
    <g id="ytick_3">
     <g id="line2d_53">
      <g>
       <use style="stroke:#000000;stroke-width:0.5;" x="56.6775" xlink:href="#m728421d6d4" y="192.206875"/>
      </g>
     </g>
     <g id="line2d_54">
      <g>
       <use style="stroke:#000000;stroke-width:0.5;" x="614.6775" xlink:href="#mcb0005524f" y="192.206875"/>
      </g>
     </g>
     <g id="text_11">
      <!-- 600 -->
      <g transform="translate(31.4075 195.518125)scale(0.12 -0.12)">
       <use xlink:href="#DejaVuSans-36"/>
       <use x="63.623046875" xlink:href="#DejaVuSans-30"/>
       <use x="127.24609375" xlink:href="#DejaVuSans-30"/>
      </g>
     </g>
    </g>
    <g id="ytick_4">
     <g id="line2d_55">
      <g>
       <use style="stroke:#000000;stroke-width:0.5;" x="56.6775" xlink:href="#m728421d6d4" y="166.606875"/>
      </g>
     </g>
     <g id="line2d_56">
      <g>
       <use style="stroke:#000000;stroke-width:0.5;" x="614.6775" xlink:href="#mcb0005524f" y="166.606875"/>
      </g>
     </g>
     <g id="text_12">
      <!-- 800 -->
      <g transform="translate(31.383125 169.918125)scale(0.12 -0.12)">
       <use xlink:href="#DejaVuSans-38"/>
       <use x="63.623046875" xlink:href="#DejaVuSans-30"/>
       <use x="127.24609375" xlink:href="#DejaVuSans-30"/>
      </g>
     </g>
    </g>
    <g id="ytick_5">
     <g id="line2d_57">
      <g>
       <use style="stroke:#000000;stroke-width:0.5;" x="56.6775" xlink:href="#m728421d6d4" y="141.006875"/>
      </g>
     </g>
     <g id="line2d_58">
      <g>
       <use style="stroke:#000000;stroke-width:0.5;" x="614.6775" xlink:href="#mcb0005524f" y="141.006875"/>
      </g>
     </g>
     <g id="text_13">
      <!-- 1000 -->
      <g transform="translate(24.2525 144.318125)scale(0.12 -0.12)">
       <use xlink:href="#DejaVuSans-31"/>
       <use x="63.623046875" xlink:href="#DejaVuSans-30"/>
       <use x="127.24609375" xlink:href="#DejaVuSans-30"/>
       <use x="190.869140625" xlink:href="#DejaVuSans-30"/>
      </g>
     </g>
    </g>
    <g id="ytick_6">
     <g id="line2d_59">
      <g>
       <use style="stroke:#000000;stroke-width:0.5;" x="56.6775" xlink:href="#m728421d6d4" y="115.406875"/>
      </g>
     </g>
     <g id="line2d_60">
      <g>
       <use style="stroke:#000000;stroke-width:0.5;" x="614.6775" xlink:href="#mcb0005524f" y="115.406875"/>
      </g>
     </g>
     <g id="text_14">
      <!-- 1200 -->
      <g transform="translate(24.2525 118.718125)scale(0.12 -0.12)">
       <use xlink:href="#DejaVuSans-31"/>
       <use x="63.623046875" xlink:href="#DejaVuSans-32"/>
       <use x="127.24609375" xlink:href="#DejaVuSans-30"/>
       <use x="190.869140625" xlink:href="#DejaVuSans-30"/>
      </g>
     </g>
    </g>
    <g id="ytick_7">
     <g id="line2d_61">
      <g>
       <use style="stroke:#000000;stroke-width:0.5;" x="56.6775" xlink:href="#m728421d6d4" y="89.806875"/>
      </g>
     </g>
     <g id="line2d_62">
      <g>
       <use style="stroke:#000000;stroke-width:0.5;" x="614.6775" xlink:href="#mcb0005524f" y="89.806875"/>
      </g>
     </g>
     <g id="text_15">
      <!-- 1400 -->
      <g transform="translate(24.2525 93.118125)scale(0.12 -0.12)">
       <use xlink:href="#DejaVuSans-31"/>
       <use x="63.623046875" xlink:href="#DejaVuSans-34"/>
       <use x="127.24609375" xlink:href="#DejaVuSans-30"/>
       <use x="190.869140625" xlink:href="#DejaVuSans-30"/>
      </g>
     </g>
    </g>
    <g id="ytick_8">
     <g id="line2d_63">
      <g>
       <use style="stroke:#000000;stroke-width:0.5;" x="56.6775" xlink:href="#m728421d6d4" y="64.206875"/>
      </g>
     </g>
     <g id="line2d_64">
      <g>
       <use style="stroke:#000000;stroke-width:0.5;" x="614.6775" xlink:href="#mcb0005524f" y="64.206875"/>
      </g>
     </g>
     <g id="text_16">
      <!-- 1600 -->
      <g transform="translate(24.2525 67.518125)scale(0.12 -0.12)">
       <use xlink:href="#DejaVuSans-31"/>
       <use x="63.623046875" xlink:href="#DejaVuSans-36"/>
       <use x="127.24609375" xlink:href="#DejaVuSans-30"/>
       <use x="190.869140625" xlink:href="#DejaVuSans-30"/>
      </g>
     </g>
    </g>
    <g id="ytick_9">
     <g id="line2d_65">
      <g>
       <use style="stroke:#000000;stroke-width:0.5;" x="56.6775" xlink:href="#m728421d6d4" y="38.606875"/>
      </g>
     </g>
     <g id="line2d_66">
      <g>
       <use style="stroke:#000000;stroke-width:0.5;" x="614.6775" xlink:href="#mcb0005524f" y="38.606875"/>
      </g>
     </g>
     <g id="text_17">
      <!-- 1800 -->
      <g transform="translate(24.2525 41.918125)scale(0.12 -0.12)">
       <use xlink:href="#DejaVuSans-31"/>
       <use x="63.623046875" xlink:href="#DejaVuSans-38"/>
       <use x="127.24609375" xlink:href="#DejaVuSans-30"/>
       <use x="190.869140625" xlink:href="#DejaVuSans-30"/>
      </g>
     </g>
    </g>
    <g id="ytick_10">
     <g id="line2d_67">
      <g>
       <use style="stroke:#000000;stroke-width:0.5;" x="56.6775" xlink:href="#m728421d6d4" y="13.006875"/>
      </g>
     </g>
     <g id="line2d_68">
      <g>
       <use style="stroke:#000000;stroke-width:0.5;" x="614.6775" xlink:href="#mcb0005524f" y="13.006875"/>
      </g>
     </g>
     <g id="text_18">
      <!-- 2000 -->
      <g transform="translate(23.81375 16.318125)scale(0.12 -0.12)">
       <use xlink:href="#DejaVuSans-32"/>
       <use x="63.623046875" xlink:href="#DejaVuSans-30"/>
       <use x="127.24609375" xlink:href="#DejaVuSans-30"/>
       <use x="190.869140625" xlink:href="#DejaVuSans-30"/>
      </g>
     </g>
    </g>
    <g id="text_19">
     <!-- Number of Tagged Packages -->
     <defs>
      <path d="
M9.8125 72.9062
L23.0938 72.9062
L55.4219 11.9219
L55.4219 72.9062
L64.9844 72.9062
L64.9844 0
L51.7031 0
L19.3906 60.9844
L19.3906 0
L9.8125 0
z
" id="DejaVuSans-4e"/>
      <path d="
M19.6719 64.7969
L19.6719 37.4062
L32.0781 37.4062
Q38.9688 37.4062 42.7188 40.9688
Q46.4844 44.5312 46.4844 51.125
Q46.4844 57.6719 42.7188 61.2344
Q38.9688 64.7969 32.0781 64.7969
z

M9.8125 72.9062
L32.0781 72.9062
Q44.3438 72.9062 50.6094 67.3594
Q56.8906 61.8125 56.8906 51.125
Q56.8906 40.3281 50.6094 34.8125
Q44.3438 29.2969 32.0781 29.2969
L19.6719 29.2969
L19.6719 0
L9.8125 0
z
" id="DejaVuSans-50"/>
      <path d="
M30.6094 48.3906
Q23.3906 48.3906 19.1875 42.75
Q14.9844 37.1094 14.9844 27.2969
Q14.9844 17.4844 19.1562 11.8438
Q23.3438 6.20312 30.6094 6.20312
Q37.7969 6.20312 41.9844 11.8594
Q46.1875 17.5312 46.1875 27.2969
Q46.1875 37.0156 41.9844 42.7031
Q37.7969 48.3906 30.6094 48.3906
M30.6094 56
Q42.3281 56 49.0156 48.375
Q55.7188 40.7656 55.7188 27.2969
Q55.7188 13.875 49.0156 6.21875
Q42.3281 -1.42188 30.6094 -1.42188
Q18.8438 -1.42188 12.1719 6.21875
Q5.51562 13.875 5.51562 27.2969
Q5.51562 40.7656 12.1719 48.375
Q18.8438 56 30.6094 56" id="DejaVuSans-6f"/>
      <path d="
M52 44.1875
Q55.375 50.25 60.0625 53.125
Q64.75 56 71.0938 56
Q79.6406 56 84.2812 50.0156
Q88.9219 44.0469 88.9219 33.0156
L88.9219 0
L79.8906 0
L79.8906 32.7188
Q79.8906 40.5781 77.0938 44.375
Q74.3125 48.1875 68.6094 48.1875
Q61.625 48.1875 57.5625 43.5469
Q53.5156 38.9219 53.5156 30.9062
L53.5156 0
L44.4844 0
L44.4844 32.7188
Q44.4844 40.625 41.7031 44.4062
Q38.9219 48.1875 33.1094 48.1875
Q26.2188 48.1875 22.1562 43.5312
Q18.1094 38.875 18.1094 30.9062
L18.1094 0
L9.07812 0
L9.07812 54.6875
L18.1094 54.6875
L18.1094 46.1875
Q21.1875 51.2188 25.4844 53.6094
Q29.7812 56 35.6875 56
Q41.6562 56 45.8281 52.9688
Q50 49.9531 52 44.1875" id="DejaVuSans-6d"/>
      <path d="
M9.07812 75.9844
L18.1094 75.9844
L18.1094 31.1094
L44.9219 54.6875
L56.3906 54.6875
L27.3906 29.1094
L57.625 0
L45.9062 0
L18.1094 26.7031
L18.1094 0
L9.07812 0
z
" id="DejaVuSans-6b"/>
      <path d="
M34.2812 27.4844
Q23.3906 27.4844 19.1875 25
Q14.9844 22.5156 14.9844 16.5
Q14.9844 11.7188 18.1406 8.90625
Q21.2969 6.10938 26.7031 6.10938
Q34.1875 6.10938 38.7031 11.4062
Q43.2188 16.7031 43.2188 25.4844
L43.2188 27.4844
z

M52.2031 31.2031
L52.2031 0
L43.2188 0
L43.2188 8.29688
Q40.1406 3.32812 35.5469 0.953125
Q30.9531 -1.42188 24.3125 -1.42188
Q15.9219 -1.42188 10.9531 3.29688
Q6 8.01562 6 15.9219
Q6 25.1406 12.1719 29.8281
Q18.3594 34.5156 30.6094 34.5156
L43.2188 34.5156
L43.2188 35.4062
Q43.2188 41.6094 39.1406 45
Q35.0625 48.3906 27.6875 48.3906
Q23 48.3906 18.5469 47.2656
Q14.1094 46.1406 10.0156 43.8906
L10.0156 52.2031
Q14.9375 54.1094 19.5781 55.0469
Q24.2188 56 28.6094 56
Q40.4844 56 46.3438 49.8438
Q52.2031 43.7031 52.2031 31.2031" id="DejaVuSans-61"/>
      <path d="
M37.1094 75.9844
L37.1094 68.5
L28.5156 68.5
Q23.6875 68.5 21.7969 66.5469
Q19.9219 64.5938 19.9219 59.5156
L19.9219 54.6875
L34.7188 54.6875
L34.7188 47.7031
L19.9219 47.7031
L19.9219 0
L10.8906 0
L10.8906 47.7031
L2.29688 47.7031
L2.29688 54.6875
L10.8906 54.6875
L10.8906 58.5
Q10.8906 67.625 15.1406 71.7969
Q19.3906 75.9844 28.6094 75.9844
z
" id="DejaVuSans-66"/>
      <path d="
M45.4062 46.3906
L45.4062 75.9844
L54.3906 75.9844
L54.3906 0
L45.4062 0
L45.4062 8.20312
Q42.5781 3.32812 38.25 0.953125
Q33.9375 -1.42188 27.875 -1.42188
Q17.9688 -1.42188 11.7344 6.48438
Q5.51562 14.4062 5.51562 27.2969
Q5.51562 40.1875 11.7344 48.0938
Q17.9688 56 27.875 56
Q33.9375 56 38.25 53.625
Q42.5781 51.2656 45.4062 46.3906
M14.7969 27.2969
Q14.7969 17.3906 18.875 11.75
Q22.9531 6.10938 30.0781 6.10938
Q37.2031 6.10938 41.2969 11.75
Q45.4062 17.3906 45.4062 27.2969
Q45.4062 37.2031 41.2969 42.8438
Q37.2031 48.4844 30.0781 48.4844
Q22.9531 48.4844 18.875 42.8438
Q14.7969 37.2031 14.7969 27.2969" id="DejaVuSans-64"/>
      <path d="
M41.1094 46.2969
Q39.5938 47.1719 37.8125 47.5781
Q36.0312 48 33.8906 48
Q26.2656 48 22.1875 43.0469
Q18.1094 38.0938 18.1094 28.8125
L18.1094 0
L9.07812 0
L9.07812 54.6875
L18.1094 54.6875
L18.1094 46.1875
Q20.9531 51.1719 25.4844 53.5781
Q30.0312 56 36.5312 56
Q37.4531 56 38.5781 55.875
Q39.7031 55.7656 41.0625 55.5156
z
" id="DejaVuSans-72"/>
      <path d="
M48.7812 52.5938
L48.7812 44.1875
Q44.9688 46.2969 41.1406 47.3438
Q37.3125 48.3906 33.4062 48.3906
Q24.6562 48.3906 19.8125 42.8438
Q14.9844 37.3125 14.9844 27.2969
Q14.9844 17.2812 19.8125 11.7344
Q24.6562 6.20312 33.4062 6.20312
Q37.3125 6.20312 41.1406 7.25
Q44.9688 8.29688 48.7812 10.4062
L48.7812 2.09375
Q45.0156 0.34375 40.9844 -0.53125
Q36.9688 -1.42188 32.4219 -1.42188
Q20.0625 -1.42188 12.7812 6.34375
Q5.51562 14.1094 5.51562 27.2969
Q5.51562 40.6719 12.8594 48.3281
Q20.2188 56 33.0156 56
Q37.1562 56 41.1094 55.1406
Q45.0625 54.2969 48.7812 52.5938" id="DejaVuSans-63"/>
      <path d="
M44.2812 53.0781
L44.2812 44.5781
Q40.4844 46.5312 36.375 47.5
Q32.2812 48.4844 27.875 48.4844
Q21.1875 48.4844 17.8438 46.4375
Q14.5 44.3906 14.5 40.2812
Q14.5 37.1562 16.8906 35.375
Q19.2812 33.5938 26.5156 31.9844
L29.5938 31.2969
Q39.1562 29.25 43.1875 25.5156
Q47.2188 21.7812 47.2188 15.0938
Q47.2188 7.46875 41.1875 3.01562
Q35.1562 -1.42188 24.6094 -1.42188
Q20.2188 -1.42188 15.4531 -0.5625
Q10.6875 0.296875 5.42188 2
L5.42188 11.2812
Q10.4062 8.6875 15.2344 7.39062
Q20.0625 6.10938 24.8125 6.10938
Q31.1562 6.10938 34.5625 8.28125
Q37.9844 10.4531 37.9844 14.4062
Q37.9844 18.0625 35.5156 20.0156
Q33.0625 21.9688 24.7031 23.7812
L21.5781 24.5156
Q13.2344 26.2656 9.51562 29.9062
Q5.8125 33.5469 5.8125 39.8906
Q5.8125 47.6094 11.2812 51.7969
Q16.75 56 26.8125 56
Q31.7812 56 36.1719 55.2656
Q40.5781 54.5469 44.2812 53.0781" id="DejaVuSans-73"/>
      <path d="
M-0.296875 72.9062
L61.375 72.9062
L61.375 64.5938
L35.5 64.5938
L35.5 0
L25.5938 0
L25.5938 64.5938
L-0.296875 64.5938
z
" id="DejaVuSans-54"/>
     </defs>
     <g transform="translate(16.318125 212.98875)rotate(-90.0)scale(0.12 -0.12)">
      <use xlink:href="#DejaVuSans-4e"/>
      <use x="74.8046875" xlink:href="#DejaVuSans-75"/>
      <use x="138.18359375" xlink:href="#DejaVuSans-6d"/>
      <use x="235.595703125" xlink:href="#DejaVuSans-62"/>
      <use x="299.072265625" xlink:href="#DejaVuSans-65"/>
      <use x="360.595703125" xlink:href="#DejaVuSans-72"/>
      <use x="401.708984375" xlink:href="#DejaVuSans-20"/>
      <use x="433.49609375" xlink:href="#DejaVuSans-6f"/>
      <use x="494.677734375" xlink:href="#DejaVuSans-66"/>
      <use x="529.8828125" xlink:href="#DejaVuSans-20"/>
      <use x="561.669921875" xlink:href="#DejaVuSans-54"/>
      <use x="606.25390625" xlink:href="#DejaVuSans-61"/>
      <use x="667.533203125" xlink:href="#DejaVuSans-67"/>
      <use x="731.009765625" xlink:href="#DejaVuSans-67"/>
      <use x="794.486328125" xlink:href="#DejaVuSans-65"/>
      <use x="856.009765625" xlink:href="#DejaVuSans-64"/>
      <use x="919.486328125" xlink:href="#DejaVuSans-20"/>
      <use x="951.2734375" xlink:href="#DejaVuSans-50"/>
      <use x="1007.07617188" xlink:href="#DejaVuSans-61"/>
      <use x="1068.35546875" xlink:href="#DejaVuSans-63"/>
      <use x="1123.3359375" xlink:href="#DejaVuSans-6b"/>
      <use x="1179.49609375" xlink:href="#DejaVuSans-61"/>
      <use x="1240.77539062" xlink:href="#DejaVuSans-67"/>
      <use x="1304.25195312" xlink:href="#DejaVuSans-65"/>
      <use x="1365.77539062" xlink:href="#DejaVuSans-73"/>
     </g>
    </g>
   </g>
   <g id="patch_3">
    <path d="
M56.6775 13.0069
L614.677 13.0069" style="fill:none;stroke:#000000;"/>
   </g>
   <g id="patch_4">
    <path d="
M614.678 243.407
L614.678 13.0069" style="fill:none;stroke:#000000;"/>
   </g>
   <g id="patch_5">
    <path d="
M56.6775 243.407
L614.677 243.407" style="fill:none;stroke:#000000;"/>
   </g>
   <g id="patch_6">
    <path d="
M56.6775 243.407
L56.6775 13.0069" style="fill:none;stroke:#000000;"/>
   </g>
   <g id="text_20">
    <g id="patch_7">
     <path d="
M102.966 172.199
L116.64 172.199
L116.64 137.811
L102.966 137.811
z
" style="fill:#ffffff;stroke:#ffffff;"/>
    </g>
    <!-- v0.3.0 -->
    <defs>
     <path d="
M40.5781 39.3125
Q47.6562 37.7969 51.625 33
Q55.6094 28.2188 55.6094 21.1875
Q55.6094 10.4062 48.1875 4.48438
Q40.7656 -1.42188 27.0938 -1.42188
Q22.5156 -1.42188 17.6562 -0.515625
Q12.7969 0.390625 7.625 2.20312
L7.625 11.7188
Q11.7188 9.32812 16.5938 8.10938
Q21.4844 6.89062 26.8125 6.89062
Q36.0781 6.89062 40.9375 10.5469
Q45.7969 14.2031 45.7969 21.1875
Q45.7969 27.6406 41.2812 31.2656
Q36.7656 34.9062 28.7188 34.9062
L20.2188 34.9062
L20.2188 43.0156
L29.1094 43.0156
Q36.375 43.0156 40.2344 45.9219
Q44.0938 48.8281 44.0938 54.2969
Q44.0938 59.9062 40.1094 62.9062
Q36.1406 65.9219 28.7188 65.9219
Q24.6562 65.9219 20.0156 65.0312
Q15.375 64.1562 9.8125 62.3125
L9.8125 71.0938
Q15.4375 72.6562 20.3438 73.4375
Q25.25 74.2188 29.5938 74.2188
Q40.8281 74.2188 47.3594 69.1094
Q53.9062 64.0156 53.9062 55.3281
Q53.9062 49.2656 50.4375 45.0938
Q46.9688 40.9219 40.5781 39.3125" id="DejaVuSans-33"/>
     <path d="
M2.98438 54.6875
L12.5 54.6875
L29.5938 8.79688
L46.6875 54.6875
L56.2031 54.6875
L35.6875 0
L23.4844 0
z
" id="DejaVuSans-76"/>
     <path d="
M10.6875 12.4062
L21 12.4062
L21 0
L10.6875 0
z
" id="DejaVuSans-2e"/>
    </defs>
    <g transform="translate(112.560937695 170.199316875)rotate(-90.0)scale(0.09996 -0.09996)">
     <use xlink:href="#DejaVuSans-76"/>
     <use x="59.1796875" xlink:href="#DejaVuSans-30"/>
     <use x="122.802734375" xlink:href="#DejaVuSans-2e"/>
     <use x="154.58984375" xlink:href="#DejaVuSans-33"/>
     <use x="218.212890625" xlink:href="#DejaVuSans-2e"/>
     <use x="250.0" xlink:href="#DejaVuSans-30"/>
    </g>
   </g>
   <g id="text_21">
    <g id="patch_8">
     <path d="
M114.854 146.34
L128.528 146.34
L128.528 112.211
L114.854 112.211
z
" style="fill:#ffffff;stroke:#ffffff;"/>
    </g>
    <!-- v0.3.1 -->
    <g transform="translate(124.449086829 144.340045625)rotate(-90.0)scale(0.09996 -0.09996)">
     <use xlink:href="#DejaVuSans-76"/>
     <use x="59.1796875" xlink:href="#DejaVuSans-30"/>
     <use x="122.802734375" xlink:href="#DejaVuSans-2e"/>
     <use x="154.58984375" xlink:href="#DejaVuSans-33"/>
     <use x="218.212890625" xlink:href="#DejaVuSans-2e"/>
     <use x="250.0" xlink:href="#DejaVuSans-31"/>
    </g>
   </g>
   <g id="text_22">
    <g id="patch_9">
     <path d="
M125.999 171.862
L139.673 171.862
L139.673 137.811
L125.999 137.811
z
" style="fill:#ffffff;stroke:#ffffff;"/>
    </g>
    <!-- v0.3.2 -->
    <g transform="translate(135.594226643 169.861951875)rotate(-90.0)scale(0.09996 -0.09996)">
     <use xlink:href="#DejaVuSans-76"/>
     <use x="59.1796875" xlink:href="#DejaVuSans-30"/>
     <use x="122.802734375" xlink:href="#DejaVuSans-2e"/>
     <use x="154.58984375" xlink:href="#DejaVuSans-33"/>
     <use x="218.212890625" xlink:href="#DejaVuSans-2e"/>
     <use x="250.0" xlink:href="#DejaVuSans-32"/>
    </g>
   </g>
   <g id="text_23">
    <g id="patch_10">
     <path d="
M138.258 146.462
L151.933 146.462
L151.933 112.211
L138.258 112.211
z
" style="fill:#ffffff;stroke:#ffffff;"/>
    </g>
    <!-- v0.3.3 -->
    <g transform="translate(147.853880438 144.461871875)rotate(-90.0)scale(0.09996 -0.09996)">
     <use xlink:href="#DejaVuSans-76"/>
     <use x="59.1796875" xlink:href="#DejaVuSans-30"/>
     <use x="122.802734375" xlink:href="#DejaVuSans-2e"/>
     <use x="154.58984375" xlink:href="#DejaVuSans-33"/>
     <use x="218.212890625" xlink:href="#DejaVuSans-2e"/>
     <use x="250.0" xlink:href="#DejaVuSans-33"/>
    </g>
   </g>
   <g id="text_24">
    <g id="patch_11">
     <path d="
M150.518 172.302
L164.192 172.302
L164.192 137.811
L150.518 137.811
z
" style="fill:#ffffff;stroke:#ffffff;"/>
    </g>
    <!-- v0.3.4 -->
    <g transform="translate(160.113534233 170.302400625)rotate(-90.0)scale(0.09996 -0.09996)">
     <use xlink:href="#DejaVuSans-76"/>
     <use x="59.1796875" xlink:href="#DejaVuSans-30"/>
     <use x="122.802734375" xlink:href="#DejaVuSans-2e"/>
     <use x="154.58984375" xlink:href="#DejaVuSans-33"/>
     <use x="218.212890625" xlink:href="#DejaVuSans-2e"/>
     <use x="250.0" xlink:href="#DejaVuSans-34"/>
    </g>
   </g>
   <g id="text_25">
    <g id="patch_12">
     <path d="
M155.348 146.39
L169.022 146.39
L169.022 112.211
L155.348 112.211
z
" style="fill:#ffffff;stroke:#ffffff;"/>
    </g>
    <!-- v0.3.5 -->
    <g transform="translate(164.943094819 144.390025625)rotate(-90.0)scale(0.09996 -0.09996)">
     <use xlink:href="#DejaVuSans-76"/>
     <use x="59.1796875" xlink:href="#DejaVuSans-30"/>
     <use x="122.802734375" xlink:href="#DejaVuSans-2e"/>
     <use x="154.58984375" xlink:href="#DejaVuSans-33"/>
     <use x="218.212890625" xlink:href="#DejaVuSans-2e"/>
     <use x="250.0" xlink:href="#DejaVuSans-35"/>
    </g>
   </g>
   <g id="text_26">
    <g id="patch_13">
     <path d="
M170.208 172.234
L183.882 172.234
L183.882 137.811
L170.208 137.811
z
" style="fill:#ffffff;stroke:#ffffff;"/>
    </g>
    <!-- v0.3.6 -->
    <g transform="translate(179.803281237 170.233678125)rotate(-90.0)scale(0.09996 -0.09996)">
     <use xlink:href="#DejaVuSans-76"/>
     <use x="59.1796875" xlink:href="#DejaVuSans-30"/>
     <use x="122.802734375" xlink:href="#DejaVuSans-2e"/>
     <use x="154.58984375" xlink:href="#DejaVuSans-33"/>
     <use x="218.212890625" xlink:href="#DejaVuSans-2e"/>
     <use x="250.0" xlink:href="#DejaVuSans-36"/>
    </g>
   </g>
   <g id="text_27">
    <g id="patch_14">
     <path d="
M182.839 146.409
L196.513 146.409
L196.513 112.211
L182.839 112.211
z
" style="fill:#ffffff;stroke:#ffffff;"/>
    </g>
    <!-- v0.3.7 -->
    <g transform="translate(192.434439692 144.408768125)rotate(-90.0)scale(0.09996 -0.09996)">
     <use xlink:href="#DejaVuSans-76"/>
     <use x="59.1796875" xlink:href="#DejaVuSans-30"/>
     <use x="122.802734375" xlink:href="#DejaVuSans-2e"/>
     <use x="154.58984375" xlink:href="#DejaVuSans-33"/>
     <use x="218.212890625" xlink:href="#DejaVuSans-2e"/>
     <use x="250.0" xlink:href="#DejaVuSans-37"/>
    </g>
   </g>
   <g id="text_28">
    <g id="patch_15">
     <path d="
M196.956 172.179
L210.63 172.179
L210.63 137.811
L196.956 137.811
z
" style="fill:#ffffff;stroke:#ffffff;"/>
    </g>
    <!-- v0.3.8 -->
    <g transform="translate(206.551616789 170.1790125)rotate(-90.0)scale(0.09996 -0.09996)">
     <use xlink:href="#DejaVuSans-76"/>
     <use x="59.1796875" xlink:href="#DejaVuSans-30"/>
     <use x="122.802734375" xlink:href="#DejaVuSans-2e"/>
     <use x="154.58984375" xlink:href="#DejaVuSans-33"/>
     <use x="218.212890625" xlink:href="#DejaVuSans-2e"/>
     <use x="250.0" xlink:href="#DejaVuSans-38"/>
    </g>
   </g>
   <g id="text_29">
    <g id="patch_16">
     <path d="
M208.101 146.56
L221.776 146.56
L221.776 112.211
L208.101 112.211
z
" style="fill:#ffffff;stroke:#ffffff;"/>
    </g>
    <!-- v0.3.9 -->
    <defs>
     <path d="
M10.9844 1.51562
L10.9844 10.5
Q14.7031 8.73438 18.5 7.8125
Q22.3125 6.89062 25.9844 6.89062
Q35.75 6.89062 40.8906 13.4531
Q46.0469 20.0156 46.7812 33.4062
Q43.9531 29.2031 39.5938 26.9531
Q35.25 24.7031 29.9844 24.7031
Q19.0469 24.7031 12.6719 31.3125
Q6.29688 37.9375 6.29688 49.4219
Q6.29688 60.6406 12.9375 67.4219
Q19.5781 74.2188 30.6094 74.2188
Q43.2656 74.2188 49.9219 64.5156
Q56.5938 54.8281 56.5938 36.375
Q56.5938 19.1406 48.4062 8.85938
Q40.2344 -1.42188 26.4219 -1.42188
Q22.7031 -1.42188 18.8906 -0.6875
Q15.0938 0.046875 10.9844 1.51562
M30.6094 32.4219
Q37.25 32.4219 41.125 36.9531
Q45.0156 41.5 45.0156 49.4219
Q45.0156 57.2812 41.125 61.8438
Q37.25 66.4062 30.6094 66.4062
Q23.9688 66.4062 20.0938 61.8438
Q16.2188 57.2812 16.2188 49.4219
Q16.2188 41.5 20.0938 36.9531
Q23.9688 32.4219 30.6094 32.4219" id="DejaVuSans-39"/>
    </defs>
    <g transform="translate(217.696756603 144.56027)rotate(-90.0)scale(0.09996 -0.09996)">
     <use xlink:href="#DejaVuSans-76"/>
     <use x="59.1796875" xlink:href="#DejaVuSans-30"/>
     <use x="122.802734375" xlink:href="#DejaVuSans-2e"/>
     <use x="154.58984375" xlink:href="#DejaVuSans-33"/>
     <use x="218.212890625" xlink:href="#DejaVuSans-2e"/>
     <use x="250.0" xlink:href="#DejaVuSans-39"/>
    </g>
   </g>
   <g id="text_30">
    <g id="patch_17">
     <path d="
M217.389 178.559
L231.063 178.559
L231.063 137.811
L217.389 137.811
z
" style="fill:#ffffff;stroke:#ffffff;"/>
    </g>
    <!-- v0.3.10 -->
    <g transform="translate(226.984373114 176.559271875)rotate(-90.0)scale(0.09996 -0.09996)">
     <use xlink:href="#DejaVuSans-76"/>
     <use x="59.1796875" xlink:href="#DejaVuSans-30"/>
     <use x="122.802734375" xlink:href="#DejaVuSans-2e"/>
     <use x="154.58984375" xlink:href="#DejaVuSans-33"/>
     <use x="218.212890625" xlink:href="#DejaVuSans-2e"/>
     <use x="250.0" xlink:href="#DejaVuSans-31"/>
     <use x="313.623046875" xlink:href="#DejaVuSans-30"/>
    </g>
   </g>
   <g id="text_31">
    <g id="patch_18">
     <path d="
M229.649 152.7
L243.323 152.7
L243.323 112.211
L229.649 112.211
z
" style="fill:#ffffff;stroke:#ffffff;"/>
    </g>
    <!-- v0.3.11 -->
    <g transform="translate(239.244026909 150.700000625)rotate(-90.0)scale(0.09996 -0.09996)">
     <use xlink:href="#DejaVuSans-76"/>
     <use x="59.1796875" xlink:href="#DejaVuSans-30"/>
     <use x="122.802734375" xlink:href="#DejaVuSans-2e"/>
     <use x="154.58984375" xlink:href="#DejaVuSans-33"/>
     <use x="218.212890625" xlink:href="#DejaVuSans-2e"/>
     <use x="250.0" xlink:href="#DejaVuSans-31"/>
     <use x="313.623046875" xlink:href="#DejaVuSans-31"/>
    </g>
   </g>
   <g id="text_32">
    <g id="patch_19">
     <path d="
M263.456 178.222
L277.13 178.222
L277.13 137.811
L263.456 137.811
z
" style="fill:#ffffff;stroke:#ffffff;"/>
    </g>
    <!-- v0.3.12 -->
    <g transform="translate(273.05095101 176.221906875)rotate(-90.0)scale(0.09996 -0.09996)">
     <use xlink:href="#DejaVuSans-76"/>
     <use x="59.1796875" xlink:href="#DejaVuSans-30"/>
     <use x="122.802734375" xlink:href="#DejaVuSans-2e"/>
     <use x="154.58984375" xlink:href="#DejaVuSans-33"/>
     <use x="218.212890625" xlink:href="#DejaVuSans-2e"/>
     <use x="250.0" xlink:href="#DejaVuSans-31"/>
     <use x="313.623046875" xlink:href="#DejaVuSans-32"/>
    </g>
   </g>
   <g id="text_33">
    <g id="patch_20">
     <path d="
M256.768 242.599
L270.443 242.599
L270.443 208.211
L256.768 208.211
z
" style="fill:#ffffff;stroke:#ffffff;"/>
    </g>
    <!-- v0.4.0 -->
    <g transform="translate(266.363867122 240.599316875)rotate(-90.0)scale(0.09996 -0.09996)">
     <use xlink:href="#DejaVuSans-76"/>
     <use x="59.1796875" xlink:href="#DejaVuSans-30"/>
     <use x="122.802734375" xlink:href="#DejaVuSans-2e"/>
     <use x="154.58984375" xlink:href="#DejaVuSans-34"/>
     <use x="218.212890625" xlink:href="#DejaVuSans-2e"/>
     <use x="250.0" xlink:href="#DejaVuSans-30"/>
    </g>
   </g>
   <g id="text_34">
    <g id="patch_21">
     <path d="
M268.285 223.14
L281.959 223.14
L281.959 189.011
L268.285 189.011
z
" style="fill:#ffffff;stroke:#ffffff;"/>
    </g>
    <!-- v0.4.1 -->
    <g transform="translate(277.880511596 221.140045625)rotate(-90.0)scale(0.09996 -0.09996)">
     <use xlink:href="#DejaVuSans-76"/>
     <use x="59.1796875" xlink:href="#DejaVuSans-30"/>
     <use x="122.802734375" xlink:href="#DejaVuSans-2e"/>
     <use x="154.58984375" xlink:href="#DejaVuSans-34"/>
     <use x="218.212890625" xlink:href="#DejaVuSans-2e"/>
     <use x="250.0" xlink:href="#DejaVuSans-31"/>
    </g>
   </g>
   <g id="text_35">
    <g id="patch_22">
     <path d="
M278.687 242.262
L292.361 242.262
L292.361 208.211
L278.687 208.211
z
" style="fill:#ffffff;stroke:#ffffff;"/>
    </g>
    <!-- v0.4.2 -->
    <g transform="translate(288.282642089 240.261951875)rotate(-90.0)scale(0.09996 -0.09996)">
     <use xlink:href="#DejaVuSans-76"/>
     <use x="59.1796875" xlink:href="#DejaVuSans-30"/>
     <use x="122.802734375" xlink:href="#DejaVuSans-2e"/>
     <use x="154.58984375" xlink:href="#DejaVuSans-34"/>
     <use x="218.212890625" xlink:href="#DejaVuSans-2e"/>
     <use x="250.0" xlink:href="#DejaVuSans-32"/>
    </g>
   </g>
   <g id="text_36">
    <g id="patch_23">
     <path d="
M292.433 223.262
L306.107 223.262
L306.107 189.011
L292.433 189.011
z
" style="fill:#ffffff;stroke:#ffffff;"/>
    </g>
    <!-- v0.4.3 -->
    <g transform="translate(302.028314526 221.261871875)rotate(-90.0)scale(0.09996 -0.09996)">
     <use xlink:href="#DejaVuSans-76"/>
     <use x="59.1796875" xlink:href="#DejaVuSans-30"/>
     <use x="122.802734375" xlink:href="#DejaVuSans-2e"/>
     <use x="154.58984375" xlink:href="#DejaVuSans-34"/>
     <use x="218.212890625" xlink:href="#DejaVuSans-2e"/>
     <use x="250.0" xlink:href="#DejaVuSans-33"/>
    </g>
   </g>
   <g id="text_37">
    <g id="patch_24">
     <path d="
M316.581 242.39
L330.255 242.39
L330.255 208.211
L316.581 208.211
z
" style="fill:#ffffff;stroke:#ffffff;"/>
    </g>
    <!-- v0.4.5 -->
    <g transform="translate(326.176117455 240.390025625)rotate(-90.0)scale(0.09996 -0.09996)">
     <use xlink:href="#DejaVuSans-76"/>
     <use x="59.1796875" xlink:href="#DejaVuSans-30"/>
     <use x="122.802734375" xlink:href="#DejaVuSans-2e"/>
     <use x="154.58984375" xlink:href="#DejaVuSans-34"/>
     <use x="218.212890625" xlink:href="#DejaVuSans-2e"/>
     <use x="250.0" xlink:href="#DejaVuSans-35"/>
    </g>
   </g>
   <g id="text_38">
    <g id="patch_25">
     <path d="
M351.502 223.434
L365.176 223.434
L365.176 189.011
L351.502 189.011
z
" style="fill:#ffffff;stroke:#ffffff;"/>
    </g>
    <!-- v0.4.6 -->
    <g transform="translate(361.097555538 221.433678125)rotate(-90.0)scale(0.09996 -0.09996)">
     <use xlink:href="#DejaVuSans-76"/>
     <use x="59.1796875" xlink:href="#DejaVuSans-30"/>
     <use x="122.802734375" xlink:href="#DejaVuSans-2e"/>
     <use x="154.58984375" xlink:href="#DejaVuSans-34"/>
     <use x="218.212890625" xlink:href="#DejaVuSans-2e"/>
     <use x="250.0" xlink:href="#DejaVuSans-36"/>
    </g>
   </g>
   <g id="text_39">
    <g id="patch_26">
     <path d="
M385.309 242.409
L398.983 242.409
L398.983 208.211
L385.309 208.211
z
" style="fill:#ffffff;stroke:#ffffff;"/>
    </g>
    <!-- v0.4.7 -->
    <g transform="translate(394.904479639 240.408768125)rotate(-90.0)scale(0.09996 -0.09996)">
     <use xlink:href="#DejaVuSans-76"/>
     <use x="59.1796875" xlink:href="#DejaVuSans-30"/>
     <use x="122.802734375" xlink:href="#DejaVuSans-2e"/>
     <use x="154.58984375" xlink:href="#DejaVuSans-34"/>
     <use x="218.212890625" xlink:href="#DejaVuSans-2e"/>
     <use x="250.0" xlink:href="#DejaVuSans-37"/>
    </g>
   </g>
   <g id="text_40">
    <g id="patch_27">
     <path d="
M385.681 178.599
L399.355 178.599
L399.355 144.211
L385.681 144.211
z
" style="fill:#ffffff;stroke:#ffffff;"/>
    </g>
    <!-- v0.5.0 -->
    <g transform="translate(395.275984299 176.599316875)rotate(-90.0)scale(0.09996 -0.09996)">
     <use xlink:href="#DejaVuSans-76"/>
     <use x="59.1796875" xlink:href="#DejaVuSans-30"/>
     <use x="122.802734375" xlink:href="#DejaVuSans-2e"/>
     <use x="154.58984375" xlink:href="#DejaVuSans-35"/>
     <use x="218.212890625" xlink:href="#DejaVuSans-2e"/>
     <use x="250.0" xlink:href="#DejaVuSans-30"/>
    </g>
   </g>
   <g id="text_41">
    <g id="patch_28">
     <path d="
M447.722 165.54
L461.396 165.54
L461.396 131.411
L447.722 131.411
z
" style="fill:#ffffff;stroke:#ffffff;"/>
    </g>
    <!-- v0.5.1 -->
    <g transform="translate(457.317262595 163.540045625)rotate(-90.0)scale(0.09996 -0.09996)">
     <use xlink:href="#DejaVuSans-76"/>
     <use x="59.1796875" xlink:href="#DejaVuSans-30"/>
     <use x="122.802734375" xlink:href="#DejaVuSans-2e"/>
     <use x="154.58984375" xlink:href="#DejaVuSans-35"/>
     <use x="218.212890625" xlink:href="#DejaVuSans-2e"/>
     <use x="250.0" xlink:href="#DejaVuSans-31"/>
    </g>
   </g>
   <g id="text_42">
    <g id="patch_29">
     <path d="
M470.755 178.262
L484.429 178.262
L484.429 144.211
L470.755 144.211
z
" style="fill:#ffffff;stroke:#ffffff;"/>
    </g>
    <!-- v0.5.2 -->
    <g transform="translate(480.350551543 176.261951875)rotate(-90.0)scale(0.09996 -0.09996)">
     <use xlink:href="#DejaVuSans-76"/>
     <use x="59.1796875" xlink:href="#DejaVuSans-30"/>
     <use x="122.802734375" xlink:href="#DejaVuSans-2e"/>
     <use x="154.58984375" xlink:href="#DejaVuSans-35"/>
     <use x="218.212890625" xlink:href="#DejaVuSans-2e"/>
     <use x="250.0" xlink:href="#DejaVuSans-32"/>
    </g>
   </g>
   <g id="text_43">
    <g id="patch_30">
     <path d="
M487.101 242.599
L500.776 242.599
L500.776 208.211
L487.101 208.211
z
" style="fill:#ffffff;stroke:#ffffff;"/>
    </g>
    <!-- v0.6.0 -->
    <g transform="translate(496.696756603 240.599316875)rotate(-90.0)scale(0.09996 -0.09996)">
     <use xlink:href="#DejaVuSans-76"/>
     <use x="59.1796875" xlink:href="#DejaVuSans-30"/>
     <use x="122.802734375" xlink:href="#DejaVuSans-2e"/>
     <use x="154.58984375" xlink:href="#DejaVuSans-36"/>
     <use x="218.212890625" xlink:href="#DejaVuSans-2e"/>
     <use x="250.0" xlink:href="#DejaVuSans-30"/>
    </g>
   </g>
   <g id="text_44">
    <g id="patch_31">
     <path d="
M534.282 203.94
L547.957 203.94
L547.957 169.811
L534.282 169.811
z
" style="fill:#ffffff;stroke:#ffffff;"/>
    </g>
    <!-- v0.6.1 -->
    <g transform="translate(543.87784848 201.940045625)rotate(-90.0)scale(0.09996 -0.09996)">
     <use xlink:href="#DejaVuSans-76"/>
     <use x="59.1796875" xlink:href="#DejaVuSans-30"/>
     <use x="122.802734375" xlink:href="#DejaVuSans-2e"/>
     <use x="154.58984375" xlink:href="#DejaVuSans-36"/>
     <use x="218.212890625" xlink:href="#DejaVuSans-2e"/>
     <use x="250.0" xlink:href="#DejaVuSans-31"/>
    </g>
   </g>
   <g id="text_45">
    <g id="patch_32">
     <path d="
M552.858 184.662
L566.532 184.662
L566.532 150.611
L552.858 150.611
z
" style="fill:#ffffff;stroke:#ffffff;"/>
    </g>
    <!-- v0.6.2 -->
    <g transform="translate(562.453081503 182.661951875)rotate(-90.0)scale(0.09996 -0.09996)">
     <use xlink:href="#DejaVuSans-76"/>
     <use x="59.1796875" xlink:href="#DejaVuSans-30"/>
     <use x="122.802734375" xlink:href="#DejaVuSans-2e"/>
     <use x="154.58984375" xlink:href="#DejaVuSans-36"/>
     <use x="218.212890625" xlink:href="#DejaVuSans-2e"/>
     <use x="250.0" xlink:href="#DejaVuSans-32"/>
    </g>
   </g>
   <g id="legend_1">
    <g id="patch_33">
     <path d="
M61.6755 109.037
L112.338 109.037
L112.338 18.0049
L61.6755 18.0049
L61.6755 109.037
z
" style="fill:#ffffff;stroke:#000000;"/>
    </g>
    <g id="line2d_69">
     <path d="
M68.6727 26.1001
L82.6671 26.1001" style="fill:none;stroke:#ff0000;stroke-linecap:square;stroke-width:2;"/>
    </g>
    <g id="line2d_70"/>
    <g id="text_46">
     <!-- 0.2 -->
     <g transform="translate(93.6627 29.598673125)scale(0.09996 -0.09996)">
      <use xlink:href="#DejaVuSans-30"/>
      <use x="63.623046875" xlink:href="#DejaVuSans-2e"/>
      <use x="95.41015625" xlink:href="#DejaVuSans-32"/>
     </g>
    </g>
    <g id="line2d_71">
     <path d="
M68.6727 40.7723
L82.6671 40.7723" style="fill:none;stroke:#008000;stroke-linecap:square;stroke-width:2;"/>
    </g>
    <g id="line2d_72"/>
    <g id="text_47">
     <!-- 0.3 -->
     <g transform="translate(93.6627 44.270926875)scale(0.09996 -0.09996)">
      <use xlink:href="#DejaVuSans-30"/>
      <use x="63.623046875" xlink:href="#DejaVuSans-2e"/>
      <use x="95.41015625" xlink:href="#DejaVuSans-33"/>
     </g>
    </g>
    <g id="line2d_73">
     <path d="
M68.6727 55.4446
L82.6671 55.4446" style="fill:none;stroke:#0000ff;stroke-linecap:square;stroke-width:2;"/>
    </g>
    <g id="line2d_74"/>
    <g id="text_48">
     <!-- 0.4 -->
     <g transform="translate(93.6627 58.943180625)scale(0.09996 -0.09996)">
      <use xlink:href="#DejaVuSans-30"/>
      <use x="63.623046875" xlink:href="#DejaVuSans-2e"/>
      <use x="95.41015625" xlink:href="#DejaVuSans-34"/>
     </g>
    </g>
    <g id="line2d_75">
     <path d="
M68.6727 70.1168
L82.6671 70.1168" style="fill:none;stroke:#000000;stroke-linecap:square;stroke-width:2;"/>
    </g>
    <g id="line2d_76"/>
    <g id="text_49">
     <!-- 0.5 -->
     <g transform="translate(93.6627 73.615434375)scale(0.09996 -0.09996)">
      <use xlink:href="#DejaVuSans-30"/>
      <use x="63.623046875" xlink:href="#DejaVuSans-2e"/>
      <use x="95.41015625" xlink:href="#DejaVuSans-35"/>
     </g>
    </g>
    <g id="line2d_77">
     <path d="
M68.6727 84.7891
L82.6671 84.7891" style="fill:none;stroke:#bfbf00;stroke-linecap:square;stroke-width:2;"/>
    </g>
    <g id="line2d_78"/>
    <g id="text_50">
     <!-- 0.6 -->
     <g transform="translate(93.6627 88.287688125)scale(0.09996 -0.09996)">
      <use xlink:href="#DejaVuSans-30"/>
      <use x="63.623046875" xlink:href="#DejaVuSans-2e"/>
      <use x="95.41015625" xlink:href="#DejaVuSans-36"/>
     </g>
    </g>
    <g id="line2d_79">
     <path d="
M68.6727 99.4613
L82.6671 99.4613" style="fill:none;stroke:#bf00bf;stroke-linecap:square;stroke-width:2;"/>
    </g>
    <g id="line2d_80"/>
    <g id="text_51">
     <!-- 0.7 -->
     <g transform="translate(93.6627 102.959941875)scale(0.09996 -0.09996)">
      <use xlink:href="#DejaVuSans-30"/>
      <use x="63.623046875" xlink:href="#DejaVuSans-2e"/>
      <use x="95.41015625" xlink:href="#DejaVuSans-37"/>
     </g>
    </g>
   </g>
  </g>
 </g>
 <defs>
  <clipPath id="pe067ca5dee">
   <rect height="230.4" width="558.0" x="56.6775" y="13.006875"/>
  </clipPath>
 </defs>
</svg>
