<?xml version="1.0" encoding="utf-8" standalone="no"?>
<!DOCTYPE svg PUBLIC "-//W3C//DTD SVG 1.1//EN"
  "http://www.w3.org/Graphics/SVG/1.1/DTD/svg11.dtd">
<!-- Created with matplotlib (http://matplotlib.org/) -->
<svg height="311pt" version="1.1" viewBox="0 0 621 311" width="621pt" xmlns="http://www.w3.org/2000/svg" xmlns:xlink="http://www.w3.org/1999/xlink">
 <defs>
  <style type="text/css">
*{stroke-linecap:butt;stroke-linejoin:round;}
  </style>
 </defs>
 <g id="figure_1">
  <g id="patch_1">
   <path d="
M0 311.719
L621.439 311.719
L621.439 0
L0 0
z
" style="fill:#ffffff;"/>
  </g>
  <g id="axes_1">
   <g id="patch_2">
    <path d="
M56.2388 243.407
L614.239 243.407
L614.239 13.0069
L56.2388 13.0069
z
" style="fill:#ffffff;"/>
   </g>
   <g id="line2d_1">
    <path clip-path="url(#p472e73a826)" d="
M118.29 221.19
L117.83 221.19
L117.371 221.519
L116.911 221.519
L116.451 221.683
L115.992 222.013
L115.532 222.013
L114.613 221.683
L114.153 221.683
L113.693 222.177
L113.234 222.177
L112.315 222.177
L111.855 222.177
L110.936 222.342
L110.476 222.342
L110.016 222.342
L109.557 222.506
L109.097 222.506
L108.637 222.506
L108.178 222.671
L107.718 222.671
L106.339 222.671
L105.88 222.671
L105.42 222.671
L104.96 222.671
L104.041 223
L103.122 223.329
L102.662 223.329
L102.203 223.494
L101.743 223.658
L100.824 223.987
L100.364 223.987
L99.9043 223.987
L99.4447 224.152
L98.985 224.317
L98.5254 224.646
L97.6061 224.81
L97.1465 224.81
L96.6869 225.304
L96.2272 225.304
L95.7676 225.304
L95.3079 225.304
L94.8483 225.304
L94.3887 225.633
L93.4694 225.633
L93.0098 225.798
L92.5501 225.798
L92.0905 225.798
L91.6308 225.798
L91.1712 225.798
L90.7116 226.127
L90.2519 226.291
L89.7923 226.456
L89.3327 226.456
L86.5748 227.279
L86.1152 227.279
L85.6556 227.443
L85.1959 227.443
L84.7363 227.608
L84.2766 227.608
L83.817 227.608
L83.3574 227.608
L82.8977 227.608
L82.4381 227.608
L81.9785 227.608
L81.5188 227.608
L81.0592 228.431
L80.5995 227.114
L80.1399 227.279
L79.6803 227.279
L79.2206 227.279
L78.3014 227.443
L77.8417 227.443
L77.3821 227.937
L76.9224 227.937
L76.4628 227.937
L76.0032 227.937
L75.5435 227.937
L75.0839 227.937
L74.6243 227.937
L74.1646 227.937
L73.705 227.937
L73.2453 228.102
L70.0279 228.266
L69.1086 228.266
L67.7297 228.266
L64.5122 228.595
L64.0526 228.76
L63.1333 228.925
L62.6737 228.925
L61.7544 229.089
L60.8351 229.254
L60.3755 229.254
L59.4562 229.254
L58.9966 229.254
L58.5369 229.254
L58.0773 229.254
L57.6177 229.254
L57.158 229.254
L56.6984 229.418
L56.2388 229.418" style="fill:none;stroke:#ff0000;stroke-linecap:square;stroke-width:2;"/>
   </g>
   <g id="line2d_2">
    <path clip-path="url(#p472e73a826)" d="
M473.13 161.944
L460.72 161.944
L460.26 162.109
L458.881 161.944
L453.825 161.944
L453.366 162.109
L452.906 161.944
L452.446 161.944
L451.987 162.109
L451.527 161.944
L450.148 161.944
L449.689 162.109
L447.39 162.109
L446.931 161.944
L441.415 161.944
L440.955 162.109
L440.496 161.944
L437.278 161.944
L436.819 162.109
L436.359 161.944
L435.899 162.109
L435.44 161.944
L429.924 161.944
L429.464 162.109
L428.545 162.109
L428.086 162.273
L427.166 162.109
L426.707 162.273
L426.247 162.109
L424.868 162.109
L424.408 162.273
L423.949 162.109
L421.191 162.109
L420.731 162.273
L420.272 162.109
L417.974 162.109
L417.514 162.273
L386.259 162.931
L378.904 163.261
L368.333 163.261
L365.575 163.59
L363.736 163.59
L354.084 163.754
L343.972 163.754
L337.997 164.248
L334.319 164.577
L330.183 164.577
L329.263 164.906
L327.425 164.577
L316.394 164.906
L313.176 165.565
L311.338 165.729
L309.039 166.387
L307.201 167.21
L299.847 168.856
L297.548 169.185
L295.25 169.35
L293.871 169.679
L286.058 171.983
L278.244 173.629
L270.43 175.933
L269.97 175.933
L269.511 176.097
L269.051 176.426
L268.591 177.085
L268.132 177.414
L267.212 177.249
L266.293 177.578
L264.914 177.578
L264.455 177.743
L263.535 177.743
L263.076 178.072
L262.616 178.072
L262.156 178.401
L261.697 178.401
L260.318 178.237
L255.262 179.224
L254.343 179.224
L251.125 180.376
L250.206 180.376
L246.529 181.034
L246.069 181.363
L244.231 181.693
L240.553 182.845
L240.094 183.009
L239.634 183.503
L238.715 183.832
L237.796 183.832
L237.336 183.997
L235.497 184.326
L235.038 184.819
L234.578 184.984
L234.118 184.984
L233.199 185.807
L231.82 186.301
L229.982 186.301
L229.062 186.794
L228.143 186.794
L225.385 186.959
L224.926 187.453
L224.006 187.453
L218.491 187.617
L218.031 187.946
L217.572 187.782
L217.112 188.111
L216.652 188.111
L216.193 188.275
L215.733 188.605
L213.894 188.934
L211.596 188.934
L211.137 189.263
L210.217 189.263
L207.919 189.921
L205.621 190.909
L203.323 190.909
L201.484 191.238
L199.646 192.225
L199.186 192.225
L198.726 191.896
L196.888 193.213
L196.428 193.377
L195.969 193.706
L195.049 194.2
L194.13 194.2
L193.67 194.365
L193.211 194.858
L192.751 194.858
L192.291 195.187
L190.453 195.187
L189.993 196.01
L189.534 196.01
L189.074 196.339
L187.235 197.491
L184.018 198.479
L181.72 199.631
L178.502 200.289
L177.583 200.618
L175.745 200.618
L175.285 200.783
L173.906 201.441
L172.067 201.935
L171.608 202.264
L170.689 202.264
L169.769 202.593
L168.85 202.593
L166.092 202.758
L164.254 203.581
L163.794 203.581
L163.334 204.074
L162.875 204.074
L162.415 204.239
L161.955 204.239
L161.496 204.568
L159.198 205.391
L157.819 205.391
L157.359 205.555
L156.899 205.555
L156.44 205.72
L155.52 205.72
L155.061 205.885
L154.601 205.885
L154.142 206.049
L153.682 206.378
L153.222 206.378
L152.763 206.543
L152.303 206.543
L151.843 206.707
L150.924 206.707
L150.464 207.037
L150.005 207.201
L148.626 207.201
L147.707 207.53
L147.247 207.53
L146.787 207.859
L145.868 207.859
L145.408 208.024
L144.949 208.353
L144.489 208.353
L143.11 208.682
L142.651 209.011
L142.191 209.011
L141.731 206.049
L141.272 209.341
L140.812 209.67
L140.352 209.67
L139.893 209.834
L138.514 209.67
L138.054 209.834
L137.135 209.834
L136.216 210.163
L134.377 210.163
L133.917 211.48
L132.998 211.48
L132.539 211.809
L131.619 212.138
L130.24 213.126
L127.483 213.126
L126.563 213.455
L126.104 213.949
L125.184 211.974
L124.265 212.303
L123.805 212.797
L122.886 212.797
L122.427 212.961
L121.967 212.961
L121.048 213.455
L120.128 213.455
L119.209 213.784
L118.749 213.784
L118.29 214.113
L116.451 214.771
L115.992 215.101
L115.532 215.101
L114.153 215.265
L113.693 215.759
L113.234 215.923
L110.936 215.923
L109.557 216.417
L108.637 216.417
L108.178 216.582
L107.718 216.582
L104.96 216.911
L104.041 217.405
L103.122 218.227
L102.203 218.227
L101.743 218.721
L100.824 218.886
L100.364 219.215
L99.9043 219.215
L98.985 219.544
L98.5254 219.873
L97.1465 220.038
L96.6869 220.531
L94.8483 220.531
L94.3887 220.861
L93.4694 220.861
L92.5501 221.19
L92.0905 221.19
L91.6308 221.519
L91.1712 221.519
L90.7116 221.848
L85.6556 223.658
L85.1959 230.406
L84.7363 223.823
L84.2766 223.823
L83.817 223.987
L81.9785 223.987
L81.5188 224.152
L80.5995 224.152
L80.1399 224.481
L79.2206 224.481
L78.3014 224.646
L77.8417 225.139
L74.1646 225.139
L73.705 225.304
L73.2453 225.633
L69.1086 225.798
L67.7297 225.798
L64.0526 226.621
L62.6737 226.621
L61.7544 226.95
L58.5369 227.443
L57.158 227.443
L56.6984 227.608
L56.2388 227.608
L56.2388 227.608" style="fill:none;stroke:#008000;stroke-linecap:square;stroke-width:2;"/>
   </g>
   <g id="line2d_3">
    <path clip-path="url(#p472e73a826)" d="
M614.239 94.4697
L609.642 94.4697
L609.183 94.6343
L608.723 94.4697
L596.773 94.4697
L596.313 94.6343
L589.418 94.6343
L588.959 94.7989
L588.499 95.6217
L588.039 94.7989
L585.282 94.7989
L584.822 94.6343
L584.362 94.7989
L580.226 94.7989
L577.468 95.128
L577.008 94.9634
L575.17 94.9634
L574.71 95.128
L574.25 94.9634
L573.331 94.9634
L572.871 95.128
L566.436 95.128
L563.219 95.4572
L562.759 95.6217
L562.3 95.4572
L561.38 95.4572
L560.921 95.6217
L559.542 95.6217
L559.082 95.7863
L558.623 95.6217
L555.865 95.6217
L555.405 95.7863
L551.268 95.7863
L550.809 95.9509
L550.349 95.9509
L549.43 96.1154
L547.132 95.7863
L544.833 95.7863
L544.374 95.9509
L539.318 95.9509
L518.634 96.28
L516.796 96.6092
L515.417 96.6092
L514.957 96.7737
L512.659 96.4446
L512.199 96.6092
L509.441 96.6092
L507.603 97.2674
L506.684 97.2674
L506.224 98.0903
L503.926 97.2674
L501.628 97.2674
L498.41 97.5966
L497.031 97.5966
L496.112 97.7612
L491.975 97.7612
L491.516 98.2549
L491.056 98.584
L490.596 98.7486
L489.217 98.584
L488.758 98.9132
L484.161 99.2423
L483.242 99.5714
L480.944 99.5714
L480.025 99.9006
L479.105 99.9006
L478.186 100.23
L474.509 100.23
L474.049 100.394
L473.59 100.888
L472.211 101.382
L471.751 102.04
L470.832 102.04
L470.372 102.205
L469.913 102.205
L468.993 102.534
L468.534 103.027
L467.614 103.357
L467.155 103.357
L466.695 103.686
L465.776 103.686
L465.316 103.85
L464.857 103.85
L464.397 104.179
L463.478 104.509
L463.018 104.838
L462.099 104.838
L461.179 105.167
L460.26 105.167
L459.341 105.496
L458.881 105.99
L458.422 106.154
L457.962 106.483
L457.502 106.483
L457.043 106.648
L456.583 106.648
L456.123 106.813
L455.664 106.813
L454.285 107.306
L451.987 107.306
L451.527 107.635
L451.067 107.635
L450.608 107.965
L450.148 107.965
L449.689 108.294
L449.229 108.294
L448.769 108.129
L448.31 108.129
L447.39 108.787
L446.931 108.952
L446.471 109.446
L446.011 109.775
L444.632 109.61
L444.173 109.939
L443.254 110.269
L442.794 110.269
L442.334 110.433
L441.875 110.433
L440.036 111.091
L439.117 111.256
L438.657 111.585
L438.198 111.585
L437.738 111.75
L437.278 111.585
L436.819 111.585
L435.899 111.914
L435.44 111.914
L434.52 112.243
L434.061 112.079
L433.601 112.079
L432.682 112.408
L432.222 112.408
L431.763 112.573
L431.303 112.573
L429.924 113.066
L429.464 113.725
L429.005 113.725
L428.545 113.889
L428.086 114.383
L426.707 114.712
L425.787 115.041
L424.868 115.041
L424.408 115.206
L423.949 115.206
L422.57 115.699
L422.11 115.535
L421.651 115.699
L421.191 115.699
L420.272 116.687
L419.812 116.687
L419.352 116.851
L418.893 116.687
L418.433 116.851
L417.974 117.181
L417.514 117.345
L410.16 121.13
L386.259 131.827
L378.904 137.094
L368.333 140.385
L365.575 142.031
L363.736 143.512
L354.084 146.639
L343.972 149.437
L341.674 149.93
L337.997 151.411
L334.779 152.234
L334.319 152.234
L330.183 152.893
L329.263 153.551
L327.425 153.715
L321.909 155.526
L316.394 159.146
L315.015 159.64
L313.176 160.463
L311.338 156.349
L309.039 157.83
L307.201 158.817
L299.847 161.944
L297.548 163.096
L293.871 164.083
L286.058 168.198
L281.921 169.021
L278.244 170.008
L270.43 172.477
L269.97 172.477
L269.511 172.641
L269.051 172.97
L268.591 173.629
L268.132 173.958
L267.212 173.958
L266.293 174.287
L263.535 174.616
L263.076 175.11
L262.616 175.11
L262.156 175.439
L260.318 175.439
L255.262 176.92
L254.343 176.92
L253.423 177.249
L252.964 177.578
L252.504 177.743
L251.125 178.401
L250.206 178.401
L246.529 178.895
L246.069 179.224
L244.231 179.553
L240.553 180.705
L240.094 180.87
L239.634 181.363
L238.715 181.693
L237.796 181.693
L237.336 182.022
L235.497 182.351
L235.038 182.68
L234.578 182.845
L234.118 182.845
L232.74 184.161
L231.82 184.49
L229.982 184.819
L229.062 185.313
L228.143 185.478
L225.385 185.642
L224.926 186.136
L224.006 186.136
L218.491 186.794
L218.031 187.123
L217.572 186.959
L217.112 187.288
L216.193 187.288
L215.733 187.617
L212.975 187.782
L212.056 188.111
L211.596 188.111
L211.137 188.44
L210.217 188.44
L207.919 189.921
L205.621 190.086
L203.323 190.086
L201.484 190.415
L199.646 191.402
L199.186 190.909
L198.726 190.909
L196.888 192.225
L196.428 192.39
L195.969 192.883
L195.049 193.377
L194.13 193.377
L193.67 193.542
L193.211 194.035
L192.751 194.035
L192.291 194.2
L190.913 194.365
L190.453 194.365
L189.993 195.352
L189.534 195.352
L189.074 195.681
L187.235 196.833
L184.018 197.985
L182.639 198.314
L181.72 198.973
L178.502 199.631
L177.583 199.96
L175.285 199.96
L174.366 200.618
L173.906 200.783
L172.527 200.947
L171.608 201.606
L170.689 201.606
L170.229 201.77
L169.769 202.099
L168.85 202.099
L166.092 202.264
L164.254 203.087
L163.794 203.087
L163.334 203.581
L162.875 203.581
L162.415 203.745
L161.955 203.745
L161.496 204.074
L159.198 205.062
L157.819 205.062
L156.899 205.391
L155.52 205.391
L155.061 205.555
L154.601 205.555
L154.142 205.72
L153.682 206.049
L153.222 206.049
L152.763 206.214
L152.303 206.214
L151.843 206.378
L150.924 206.378
L150.005 207.037
L148.626 207.037
L147.707 207.366
L147.247 207.366
L146.787 207.695
L145.868 207.695
L145.408 207.859
L144.949 208.189
L144.489 208.189
L143.11 208.518
L142.651 208.847
L141.731 208.847
L140.812 209.505
L140.352 209.505
L139.893 209.67
L138.514 209.505
L138.054 209.67
L137.135 209.67
L136.675 209.834
L136.216 209.834
L134.837 209.999
L134.377 209.999
L133.917 211.315
L132.998 211.315
L132.539 211.645
L131.619 211.974
L130.24 212.961
L127.483 212.961
L126.563 213.29
L126.104 213.784
L125.184 214.113
L124.725 214.113
L124.265 214.442
L123.805 214.936
L122.886 214.936
L122.427 215.101
L121.967 215.101
L121.048 215.594
L120.128 215.594
L119.209 215.923
L118.749 216.417
L118.749 216.417" style="fill:none;stroke:#0000ff;stroke-linecap:square;stroke-width:2;"/>
   </g>
   <g id="line2d_4">
    <path clip-path="url(#p472e73a826)" d="
M614.239 47.2377
L613.779 47.2377
L613.319 47.0732
L612.4 47.4023
L611.941 47.4023
L611.481 47.2377
L610.562 47.5669
L609.642 47.4023
L609.183 47.5669
L608.723 47.4023
L608.263 47.5669
L606.425 47.896
L605.965 47.7314
L605.506 47.7314
L605.046 47.5669
L604.586 47.7314
L603.667 47.7314
L603.207 47.896
L602.288 47.7314
L601.369 48.2252
L600.909 48.2252
L600.45 48.3897
L599.99 48.7189
L599.53 48.8834
L599.071 48.5543
L597.692 49.048
L597.232 48.8834
L596.773 49.048
L596.313 49.5417
L595.853 49.7063
L595.394 49.5417
L594.474 49.7063
L594.015 50.3646
L593.555 50.2
L593.095 50.3646
L592.636 50.6937
L592.176 50.6937
L591.717 51.1874
L591.257 50.8583
L590.797 50.8583
L590.338 51.352
L589.878 51.1874
L589.418 51.1874
L588.499 52.6686
L588.039 52.3394
L587.58 52.3394
L587.12 52.6686
L586.201 52.9977
L585.282 53.656
L584.822 54.1497
L584.362 53.9852
L583.903 54.1497
L583.443 54.4789
L582.983 54.1497
L582.524 54.4789
L580.226 54.4789
L578.847 55.7954
L577.008 56.4537
L576.548 56.2892
L575.629 57.6057
L575.17 57.4412
L574.71 57.7703
L574.25 57.6057
L573.791 57.6057
L573.331 57.7703
L572.871 57.7703
L572.412 58.5932
L571.952 59.0869
L571.492 59.416
L570.573 59.7452
L570.114 59.7452
L569.654 60.0743
L569.194 60.568
L568.735 60.568
L567.815 60.8972
L567.356 60.8972
L566.896 61.3909
L566.436 61.3909
L563.219 63.2012
L562.759 63.6949
L562.3 63.5303
L561.84 63.5303
L561.38 63.6949
L560.921 64.1886
L560.461 64.5177
L560.002 64.3532
L559.542 64.6823
L559.082 65.5052
L558.623 65.5052
L557.703 65.8343
L556.784 65.8343
L556.324 66.1634
L555.865 66.1634
L555.405 66.4926
L554.946 66.9863
L554.486 66.6572
L554.026 66.6572
L553.567 66.9863
L553.107 67.9737
L552.647 68.1383
L552.188 67.9737
L551.728 68.1383
L551.268 67.9737
L550.809 68.4674
L550.349 68.632
L549.43 68.4674
L547.132 68.3029
L546.672 68.9612
L545.753 69.784
L545.293 70.6069
L544.833 70.7714
L544.374 71.1006
L543.455 71.2652
L542.995 71.5943
L539.318 71.9234
L522.311 78.3417
L520.013 78.3417
L519.553 79.1646
L518.634 79.1646
L516.796 79.8229
L515.417 79.8229
L514.957 80.4812
L512.659 80.8103
L512.199 81.7977
L511.28 82.1269
L510.82 83.1143
L509.441 83.1143
L508.982 83.2789
L507.603 84.4309
L506.684 84.4309
L506.224 85.4183
L503.926 84.4309
L503.466 84.4309
L503.006 84.5954
L502.547 84.5954
L502.087 84.4309
L501.628 84.5954
L500.249 85.2537
L498.87 85.4183
L498.41 85.4183
L497.491 85.5829
L497.031 85.4183
L496.112 85.7474
L495.193 86.4057
L494.733 87.2286
L493.814 86.8994
L492.894 87.2286
L492.435 87.8869
L491.975 88.0514
L491.516 88.5452
L491.056 89.368
L490.596 89.6972
L489.217 89.8617
L488.758 91.1783
L483.242 93.1532
L482.782 93.1532
L481.863 93.8114
L480.944 93.8114
L480.025 94.9634
L479.105 94.9634
L478.646 95.128
L478.186 95.4572
L477.267 95.7863
L476.807 96.4446
L476.347 96.4446
L475.888 96.6092
L475.428 96.9383
L474.509 97.2674
L474.049 97.7612
L473.59 98.4194
L473.13 98.4194
L472.67 98.7486
L472.211 98.9132
L471.751 96.7737
L470.832 96.6092
L470.372 96.7737
L469.453 97.432
L468.993 97.5966
L468.534 99.4069
L468.074 100.065
L466.695 100.559
L466.235 101.053
L465.776 100.888
L465.316 100.888
L464.857 99.736
L464.397 100.065
L463.937 100.723
L463.478 100.723
L463.018 101.217
L462.558 101.382
L462.099 101.217
L460.26 101.875
L459.341 102.369
L458.881 103.027
L458.422 103.027
L457.962 103.357
L457.502 103.357
L456.123 103.85
L455.664 103.85
L454.745 104.673
L454.285 104.673
L453.825 104.838
L453.366 104.673
L451.987 104.673
L451.527 105.002
L451.067 106.154
L450.608 105.331
L450.148 105.496
L449.689 105.825
L448.769 106.154
L448.31 106.154
L447.39 107.471
L446.931 107.471
L446.471 107.965
L446.011 108.294
L444.632 108.129
L444.173 108.458
L443.713 108.952
L443.254 109.117
L442.794 109.117
L442.334 109.281
L441.875 109.281
L441.415 109.446
L440.955 109.775
L440.496 109.775
L440.036 109.939
L439.117 110.104
L438.657 110.598
L437.738 110.598
L437.278 110.433
L436.359 110.762
L435.44 110.762
L434.98 110.927
L434.52 110.927
L434.061 111.091
L433.601 111.091
L431.763 111.75
L431.303 111.75
L430.384 112.408
L429.924 112.408
L429.464 113.066
L429.005 113.066
L428.545 113.231
L428.086 113.56
L425.787 114.383
L424.868 114.383
L424.408 114.547
L423.949 114.547
L423.03 114.877
L422.57 114.877
L422.11 115.041
L421.651 114.877
L421.191 115.041
L420.272 116.029
L418.893 116.029
L418.433 116.193
L417.974 116.522
L417.514 116.687
L386.259 131.992
L378.904 137.094
L368.333 140.55
L365.575 142.031
L363.736 143.512
L354.084 146.803
L338.456 150.918
L337.997 151.247
L334.779 152.07
L334.319 152.07
L334.319 152.07" style="fill:none;stroke:#000000;stroke-linecap:square;stroke-width:2;"/>
   </g>
   <g id="line2d_5">
    <path clip-path="url(#p472e73a826)" d="
M614.239 45.9212
L613.779 46.0857
L613.319 45.9212
L612.86 46.2503
L612.4 46.2503
L611.481 46.5794
L611.021 46.9086
L610.562 47.0732
L609.642 47.2377
L609.183 47.5669
L608.723 47.2377
L608.263 47.5669
L607.344 48.3897
L606.885 48.2252
L606.425 48.5543
L605.965 48.3897
L605.046 48.3897
L604.586 48.7189
L603.207 48.8834
L602.288 48.8834
L601.369 50.0354
L600.909 50.0354
L600.45 50.3646
L598.611 51.0229
L598.151 51.5166
L597.692 51.8457
L597.232 45.2629
L596.773 45.4274
L596.313 46.0857
L595.394 46.4149
L594.474 46.5794
L594.015 47.0732
L593.555 47.4023
L593.095 47.5669
L592.636 48.7189
L592.176 48.8834
L591.717 49.5417
L591.257 52.0103
L590.797 49.7063
L590.338 50.2
L589.878 50.0354
L589.418 50.2
L588.959 51.0229
L588.499 51.352
L587.58 51.352
L587.12 52.0103
L586.66 52.0103
L586.201 52.3394
L585.741 52.8332
L583.903 54.1497
L583.443 53.9852
L582.524 54.3143
L582.064 54.3143
L581.604 54.4789
L581.145 54.4789
L580.226 54.808
L578.847 55.96
L577.468 56.9474
L577.008 57.112
L576.548 57.112
L576.089 57.9349
L575.629 58.0994
L575.17 58.4286
L574.71 58.264
L573.791 58.5932
L573.331 58.4286
L572.871 58.5932
L572.412 59.416
L571.952 59.7452
L571.492 59.9097
L570.573 60.568
L570.114 60.4034
L569.654 61.0617
L569.194 60.8972
L568.735 61.0617
L567.815 61.72
L566.896 61.72
L566.436 62.2137
L563.219 64.024
L562.759 64.024
L562.3 64.5177
L561.38 64.1886
L560.921 64.8469
L560.461 64.8469
L560.002 65.0114
L559.542 65.5052
L559.082 66.1634
L558.623 66.328
L558.163 66.9863
L557.703 66.4926
L556.784 66.4926
L556.324 66.8217
L555.865 66.8217
L555.405 67.3154
L554.946 67.48
L554.486 67.48
L553.567 67.8092
L553.107 69.2903
L552.647 68.7966
L551.728 69.1257
L551.268 68.4674
L550.809 68.7966
L549.43 69.2903
L547.591 68.9612
L547.132 69.1257
L546.672 69.6194
L545.753 70.2777
L545.293 71.5943
L544.833 71.5943
L544.374 71.9234
L539.318 72.7463
L522.311 79.1646
L520.013 79.1646
L519.553 79.9874
L515.417 80.6457
L514.957 81.304
L512.659 81.304
L512.199 82.456
L511.28 82.7852
L510.82 83.7726
L509.441 83.7726
L508.982 84.1017
L507.603 84.9246
L507.143 84.9246
L506.684 85.0892
L506.224 85.7474
L503.926 85.0892
L503.466 85.2537
L503.006 85.0892
L501.628 85.0892
L500.249 85.912
L498.87 86.0766
L497.031 86.0766
L496.112 86.4057
L495.193 87.064
L494.733 87.5577
L493.814 87.5577
L492.894 87.8869
L492.435 88.3806
L491.975 88.3806
L490.596 90.3554
L489.217 90.3554
L488.758 91.8366
L484.161 93.8114
L482.782 93.976
L481.863 94.6343
L480.944 94.6343
L480.025 95.7863
L478.646 95.7863
L478.186 96.28
L477.267 96.6092
L476.807 97.2674
L474.509 98.0903
L473.59 99.0777
L473.59 99.0777" style="fill:none;stroke:#bfbf00;stroke-linecap:square;stroke-width:2;"/>
   </g>
   <g id="line2d_6">
    <path clip-path="url(#p472e73a826)" d="
M121.967 243.407
L121.967 13.0069" style="fill:none;stroke:#333333;stroke-linecap:square;"/>
   </g>
   <g id="line2d_7">
    <path clip-path="url(#p472e73a826)" d="
M136.675 243.407
L136.675 13.0069" style="fill:none;stroke:#cccccc;stroke-linecap:square;"/>
   </g>
   <g id="line2d_8">
    <path clip-path="url(#p472e73a826)" d="
M150.464 243.407
L150.464 13.0069" style="fill:none;stroke:#cccccc;stroke-linecap:square;"/>
   </g>
   <g id="line2d_9">
    <path clip-path="url(#p472e73a826)" d="
M165.632 243.407
L165.632 13.0069" style="fill:none;stroke:#cccccc;stroke-linecap:square;"/>
   </g>
   <g id="line2d_10">
    <path clip-path="url(#p472e73a826)" d="
M180.801 243.407
L180.801 13.0069" style="fill:none;stroke:#cccccc;stroke-linecap:square;"/>
   </g>
   <g id="line2d_11">
    <path clip-path="url(#p472e73a826)" d="
M186.776 243.407
L186.776 13.0069" style="fill:none;stroke:#cccccc;stroke-linecap:square;"/>
   </g>
   <g id="line2d_12">
    <path clip-path="url(#p472e73a826)" d="
M205.161 243.407
L205.161 13.0069" style="fill:none;stroke:#cccccc;stroke-linecap:square;"/>
   </g>
   <g id="line2d_13">
    <path clip-path="url(#p472e73a826)" d="
M220.789 243.407
L220.789 13.0069" style="fill:none;stroke:#cccccc;stroke-linecap:square;"/>
   </g>
   <g id="line2d_14">
    <path clip-path="url(#p472e73a826)" d="
M238.255 243.407
L238.255 13.0069" style="fill:none;stroke:#cccccc;stroke-linecap:square;"/>
   </g>
   <g id="line2d_15">
    <path clip-path="url(#p472e73a826)" d="
M252.044 243.407
L252.044 13.0069" style="fill:none;stroke:#cccccc;stroke-linecap:square;"/>
   </g>
   <g id="line2d_16">
    <path clip-path="url(#p472e73a826)" d="
M263.535 243.407
L263.535 13.0069" style="fill:none;stroke:#cccccc;stroke-linecap:square;"/>
   </g>
   <g id="line2d_17">
    <path clip-path="url(#p472e73a826)" d="
M278.703 243.407
L278.703 13.0069" style="fill:none;stroke:#cccccc;stroke-linecap:square;"/>
   </g>
   <g id="line2d_18">
    <path clip-path="url(#p472e73a826)" d="
M320.53 243.407
L320.53 13.0069" style="fill:none;stroke:#cccccc;stroke-linecap:square;"/>
   </g>
   <g id="line2d_19">
    <path clip-path="url(#p472e73a826)" d="
M312.257 243.407
L312.257 13.0069" style="fill:none;stroke:#333333;stroke-linecap:square;"/>
   </g>
   <g id="line2d_20">
    <path clip-path="url(#p472e73a826)" d="
M326.506 243.407
L326.506 13.0069" style="fill:none;stroke:#cccccc;stroke-linecap:square;"/>
   </g>
   <g id="line2d_21">
    <path clip-path="url(#p472e73a826)" d="
M339.375 243.407
L339.375 13.0069" style="fill:none;stroke:#cccccc;stroke-linecap:square;"/>
   </g>
   <g id="line2d_22">
    <path clip-path="url(#p472e73a826)" d="
M356.382 243.407
L356.382 13.0069" style="fill:none;stroke:#cccccc;stroke-linecap:square;"/>
   </g>
   <g id="line2d_23">
    <path clip-path="url(#p472e73a826)" d="
M386.259 243.407
L386.259 13.0069" style="fill:none;stroke:#cccccc;stroke-linecap:square;"/>
   </g>
   <g id="line2d_24">
    <path clip-path="url(#p472e73a826)" d="
M429.464 243.407
L429.464 13.0069" style="fill:none;stroke:#cccccc;stroke-linecap:square;"/>
   </g>
   <g id="line2d_25">
    <path clip-path="url(#p472e73a826)" d="
M471.291 243.407
L471.291 13.0069" style="fill:none;stroke:#cccccc;stroke-linecap:square;"/>
   </g>
   <g id="line2d_26">
    <path clip-path="url(#p472e73a826)" d="
M471.751 243.407
L471.751 13.0069" style="fill:none;stroke:#333333;stroke-linecap:square;"/>
   </g>
   <g id="line2d_27">
    <path clip-path="url(#p472e73a826)" d="
M548.511 243.407
L548.511 13.0069" style="fill:none;stroke:#cccccc;stroke-linecap:square;"/>
   </g>
   <g id="line2d_28">
    <path clip-path="url(#p472e73a826)" d="
M577.008 243.407
L577.008 13.0069" style="fill:none;stroke:#cccccc;stroke-linecap:square;"/>
   </g>
   <g id="line2d_29">
    <path clip-path="url(#p472e73a826)" d="
M597.232 243.407
L597.232 13.0069" style="fill:none;stroke:#333333;stroke-linecap:square;"/>
   </g>
   <g id="matplotlib.axis_1">
    <g id="xtick_1">
     <g id="line2d_30">
      <defs>
       <path d="
M0 0
L0 -4" id="m93b0483c22" style="stroke:#000000;stroke-width:0.5;"/>
      </defs>
      <g>
       <use style="stroke:#000000;stroke-width:0.5;" x="57.1580251236" xlink:href="#m93b0483c22" y="243.406875"/>
      </g>
     </g>
     <g id="line2d_31">
      <defs>
       <path d="
M0 0
L0 4" id="m741efc42ff" style="stroke:#000000;stroke-width:0.5;"/>
      </defs>
      <g>
       <use style="stroke:#000000;stroke-width:0.5;" x="57.1580251236" xlink:href="#m741efc42ff" y="13.006875"/>
      </g>
     </g>
     <g id="text_1">
      <!-- Apr 2014 -->
      <defs>
       <path d="
M12.4062 8.29688
L28.5156 8.29688
L28.5156 63.9219
L10.9844 60.4062
L10.9844 69.3906
L28.4219 72.9062
L38.2812 72.9062
L38.2812 8.29688
L54.3906 8.29688
L54.3906 0
L12.4062 0
z
" id="DejaVuSans-31"/>
       <path d="
M31.7812 66.4062
Q24.1719 66.4062 20.3281 58.9062
Q16.5 51.4219 16.5 36.375
Q16.5 21.3906 20.3281 13.8906
Q24.1719 6.39062 31.7812 6.39062
Q39.4531 6.39062 43.2812 13.8906
Q47.125 21.3906 47.125 36.375
Q47.125 51.4219 43.2812 58.9062
Q39.4531 66.4062 31.7812 66.4062
M31.7812 74.2188
Q44.0469 74.2188 50.5156 64.5156
Q56.9844 54.8281 56.9844 36.375
Q56.9844 17.9688 50.5156 8.26562
Q44.0469 -1.42188 31.7812 -1.42188
Q19.5312 -1.42188 13.0625 8.26562
Q6.59375 17.9688 6.59375 36.375
Q6.59375 54.8281 13.0625 64.5156
Q19.5312 74.2188 31.7812 74.2188" id="DejaVuSans-30"/>
       <path id="DejaVuSans-20"/>
       <path d="
M19.1875 8.29688
L53.6094 8.29688
L53.6094 0
L7.32812 0
L7.32812 8.29688
Q12.9375 14.1094 22.625 23.8906
Q32.3281 33.6875 34.8125 36.5312
Q39.5469 41.8438 41.4219 45.5312
Q43.3125 49.2188 43.3125 52.7812
Q43.3125 58.5938 39.2344 62.25
Q35.1562 65.9219 28.6094 65.9219
Q23.9688 65.9219 18.8125 64.3125
Q13.6719 62.7031 7.8125 59.4219
L7.8125 69.3906
Q13.7656 71.7812 18.9375 73
Q24.125 74.2188 28.4219 74.2188
Q39.75 74.2188 46.4844 68.5469
Q53.2188 62.8906 53.2188 53.4219
Q53.2188 48.9219 51.5312 44.8906
Q49.8594 40.875 45.4062 35.4062
Q44.1875 33.9844 37.6406 27.2188
Q31.1094 20.4531 19.1875 8.29688" id="DejaVuSans-32"/>
       <path d="
M34.1875 63.1875
L20.7969 26.9062
L47.6094 26.9062
z

M28.6094 72.9062
L39.7969 72.9062
L67.5781 0
L57.3281 0
L50.6875 18.7031
L17.8281 18.7031
L11.1875 0
L0.78125 0
z
" id="DejaVuSans-41"/>
       <path d="
M37.7969 64.3125
L12.8906 25.3906
L37.7969 25.3906
z

M35.2031 72.9062
L47.6094 72.9062
L47.6094 25.3906
L58.0156 25.3906
L58.0156 17.1875
L47.6094 17.1875
L47.6094 0
L37.7969 0
L37.7969 17.1875
L4.89062 17.1875
L4.89062 26.7031
z
" id="DejaVuSans-34"/>
       <path d="
M18.1094 8.20312
L18.1094 -20.7969
L9.07812 -20.7969
L9.07812 54.6875
L18.1094 54.6875
L18.1094 46.3906
Q20.9531 51.2656 25.2656 53.625
Q29.5938 56 35.5938 56
Q45.5625 56 51.7812 48.0938
Q58.0156 40.1875 58.0156 27.2969
Q58.0156 14.4062 51.7812 6.48438
Q45.5625 -1.42188 35.5938 -1.42188
Q29.5938 -1.42188 25.2656 0.953125
Q20.9531 3.32812 18.1094 8.20312
M48.6875 27.2969
Q48.6875 37.2031 44.6094 42.8438
Q40.5312 48.4844 33.4062 48.4844
Q26.2656 48.4844 22.1875 42.8438
Q18.1094 37.2031 18.1094 27.2969
Q18.1094 17.3906 22.1875 11.75
Q26.2656 6.10938 33.4062 6.10938
Q40.5312 6.10938 44.6094 11.75
Q48.6875 17.3906 48.6875 27.2969" id="DejaVuSans-70"/>
       <path d="
M41.1094 46.2969
Q39.5938 47.1719 37.8125 47.5781
Q36.0312 48 33.8906 48
Q26.2656 48 22.1875 43.0469
Q18.1094 38.0938 18.1094 28.8125
L18.1094 0
L9.07812 0
L9.07812 54.6875
L18.1094 54.6875
L18.1094 46.1875
Q20.9531 51.1719 25.4844 53.5781
Q30.0312 56 36.5312 56
Q37.4531 56 38.5781 55.875
Q39.7031 55.7656 41.0625 55.5156
z
" id="DejaVuSans-72"/>
      </defs>
      <g transform="translate(60.4692751236 301.8475)rotate(-90.0)scale(0.12 -0.12)">
       <use xlink:href="#DejaVuSans-41"/>
       <use x="68.408203125" xlink:href="#DejaVuSans-70"/>
       <use x="131.884765625" xlink:href="#DejaVuSans-72"/>
       <use x="172.998046875" xlink:href="#DejaVuSans-20"/>
       <use x="204.78515625" xlink:href="#DejaVuSans-32"/>
       <use x="268.408203125" xlink:href="#DejaVuSans-30"/>
       <use x="332.03125" xlink:href="#DejaVuSans-31"/>
       <use x="395.654296875" xlink:href="#DejaVuSans-34"/>
      </g>
     </g>
    </g>
    <g id="xtick_2">
     <g id="line2d_32">
      <g>
       <use style="stroke:#000000;stroke-width:0.5;" x="113.233807661" xlink:href="#m93b0483c22" y="243.406875"/>
      </g>
     </g>
     <g id="line2d_33">
      <g>
       <use style="stroke:#000000;stroke-width:0.5;" x="113.233807661" xlink:href="#m741efc42ff" y="13.006875"/>
      </g>
     </g>
     <g id="text_2">
      <!-- Aug 2014 -->
      <defs>
       <path d="
M8.5 21.5781
L8.5 54.6875
L17.4844 54.6875
L17.4844 21.9219
Q17.4844 14.1562 20.5 10.2656
Q23.5312 6.39062 29.5938 6.39062
Q36.8594 6.39062 41.0781 11.0312
Q45.3125 15.6719 45.3125 23.6875
L45.3125 54.6875
L54.2969 54.6875
L54.2969 0
L45.3125 0
L45.3125 8.40625
Q42.0469 3.42188 37.7188 1
Q33.4062 -1.42188 27.6875 -1.42188
Q18.2656 -1.42188 13.375 4.4375
Q8.5 10.2969 8.5 21.5781
M31.1094 56
z
" id="DejaVuSans-75"/>
       <path d="
M45.4062 27.9844
Q45.4062 37.75 41.375 43.1094
Q37.3594 48.4844 30.0781 48.4844
Q22.8594 48.4844 18.8281 43.1094
Q14.7969 37.75 14.7969 27.9844
Q14.7969 18.2656 18.8281 12.8906
Q22.8594 7.51562 30.0781 7.51562
Q37.3594 7.51562 41.375 12.8906
Q45.4062 18.2656 45.4062 27.9844
M54.3906 6.78125
Q54.3906 -7.17188 48.1875 -13.9844
Q42 -20.7969 29.2031 -20.7969
Q24.4688 -20.7969 20.2656 -20.0938
Q16.0625 -19.3906 12.1094 -17.9219
L12.1094 -9.1875
Q16.0625 -11.3281 19.9219 -12.3438
Q23.7812 -13.375 27.7812 -13.375
Q36.625 -13.375 41.0156 -8.76562
Q45.4062 -4.15625 45.4062 5.17188
L45.4062 9.625
Q42.625 4.78125 38.2812 2.39062
Q33.9375 0 27.875 0
Q17.8281 0 11.6719 7.65625
Q5.51562 15.3281 5.51562 27.9844
Q5.51562 40.6719 11.6719 48.3281
Q17.8281 56 27.875 56
Q33.9375 56 38.2812 53.6094
Q42.625 51.2188 45.4062 46.3906
L45.4062 54.6875
L54.3906 54.6875
z
" id="DejaVuSans-67"/>
      </defs>
      <g transform="translate(116.545057661 304.519375)rotate(-90.0)scale(0.12 -0.12)">
       <use xlink:href="#DejaVuSans-41"/>
       <use x="68.408203125" xlink:href="#DejaVuSans-75"/>
       <use x="131.787109375" xlink:href="#DejaVuSans-67"/>
       <use x="195.263671875" xlink:href="#DejaVuSans-20"/>
       <use x="227.05078125" xlink:href="#DejaVuSans-32"/>
       <use x="290.673828125" xlink:href="#DejaVuSans-30"/>
       <use x="354.296875" xlink:href="#DejaVuSans-31"/>
       <use x="417.919921875" xlink:href="#DejaVuSans-34"/>
      </g>
     </g>
    </g>
    <g id="xtick_3">
     <g id="line2d_34">
      <g>
       <use style="stroke:#000000;stroke-width:0.5;" x="169.309590198" xlink:href="#m93b0483c22" y="243.406875"/>
      </g>
     </g>
     <g id="line2d_35">
      <g>
       <use style="stroke:#000000;stroke-width:0.5;" x="169.309590198" xlink:href="#m741efc42ff" y="13.006875"/>
      </g>
     </g>
     <g id="text_3">
      <!-- Dec 2014 -->
      <defs>
       <path d="
M19.6719 64.7969
L19.6719 8.10938
L31.5938 8.10938
Q46.6875 8.10938 53.6875 14.9375
Q60.6875 21.7812 60.6875 36.5312
Q60.6875 51.1719 53.6875 57.9844
Q46.6875 64.7969 31.5938 64.7969
z

M9.8125 72.9062
L30.0781 72.9062
Q51.2656 72.9062 61.1719 64.0938
Q71.0938 55.2812 71.0938 36.5312
Q71.0938 17.6719 61.125 8.82812
Q51.1719 0 30.0781 0
L9.8125 0
z
" id="DejaVuSans-44"/>
       <path d="
M56.2031 29.5938
L56.2031 25.2031
L14.8906 25.2031
Q15.4844 15.9219 20.4844 11.0625
Q25.4844 6.20312 34.4219 6.20312
Q39.5938 6.20312 44.4531 7.46875
Q49.3125 8.73438 54.1094 11.2812
L54.1094 2.78125
Q49.2656 0.734375 44.1875 -0.34375
Q39.1094 -1.42188 33.8906 -1.42188
Q20.7969 -1.42188 13.1562 6.1875
Q5.51562 13.8125 5.51562 26.8125
Q5.51562 40.2344 12.7656 48.1094
Q20.0156 56 32.3281 56
Q43.3594 56 49.7812 48.8906
Q56.2031 41.7969 56.2031 29.5938
M47.2188 32.2344
Q47.125 39.5938 43.0938 43.9844
Q39.0625 48.3906 32.4219 48.3906
Q24.9062 48.3906 20.3906 44.1406
Q15.875 39.8906 15.1875 32.1719
z
" id="DejaVuSans-65"/>
       <path d="
M48.7812 52.5938
L48.7812 44.1875
Q44.9688 46.2969 41.1406 47.3438
Q37.3125 48.3906 33.4062 48.3906
Q24.6562 48.3906 19.8125 42.8438
Q14.9844 37.3125 14.9844 27.2969
Q14.9844 17.2812 19.8125 11.7344
Q24.6562 6.20312 33.4062 6.20312
Q37.3125 6.20312 41.1406 7.25
Q44.9688 8.29688 48.7812 10.4062
L48.7812 2.09375
Q45.0156 0.34375 40.9844 -0.53125
Q36.9688 -1.42188 32.4219 -1.42188
Q20.0625 -1.42188 12.7812 6.34375
Q5.51562 14.1094 5.51562 27.2969
Q5.51562 40.6719 12.8594 48.3281
Q20.2188 56 33.0156 56
Q37.1562 56 41.1094 55.1406
Q45.0625 54.2969 48.7812 52.5938" id="DejaVuSans-63"/>
      </defs>
      <g transform="translate(172.620840198 304.309375)rotate(-90.0)scale(0.12 -0.12)">
       <use xlink:href="#DejaVuSans-44"/>
       <use x="77.001953125" xlink:href="#DejaVuSans-65"/>
       <use x="138.525390625" xlink:href="#DejaVuSans-63"/>
       <use x="193.505859375" xlink:href="#DejaVuSans-20"/>
       <use x="225.29296875" xlink:href="#DejaVuSans-32"/>
       <use x="288.916015625" xlink:href="#DejaVuSans-30"/>
       <use x="352.5390625" xlink:href="#DejaVuSans-31"/>
       <use x="416.162109375" xlink:href="#DejaVuSans-34"/>
      </g>
     </g>
    </g>
    <g id="xtick_4">
     <g id="line2d_36">
      <g>
       <use style="stroke:#000000;stroke-width:0.5;" x="224.925735173" xlink:href="#m93b0483c22" y="243.406875"/>
      </g>
     </g>
     <g id="line2d_37">
      <g>
       <use style="stroke:#000000;stroke-width:0.5;" x="224.925735173" xlink:href="#m741efc42ff" y="13.006875"/>
      </g>
     </g>
     <g id="text_4">
      <!-- Apr 2015 -->
      <defs>
       <path d="
M10.7969 72.9062
L49.5156 72.9062
L49.5156 64.5938
L19.8281 64.5938
L19.8281 46.7344
Q21.9688 47.4688 24.1094 47.8281
Q26.2656 48.1875 28.4219 48.1875
Q40.625 48.1875 47.75 41.5
Q54.8906 34.8125 54.8906 23.3906
Q54.8906 11.625 47.5625 5.09375
Q40.2344 -1.42188 26.9062 -1.42188
Q22.3125 -1.42188 17.5469 -0.640625
Q12.7969 0.140625 7.71875 1.70312
L7.71875 11.625
Q12.1094 9.23438 16.7969 8.0625
Q21.4844 6.89062 26.7031 6.89062
Q35.1562 6.89062 40.0781 11.3281
Q45.0156 15.7656 45.0156 23.3906
Q45.0156 31 40.0781 35.4375
Q35.1562 39.8906 26.7031 39.8906
Q22.75 39.8906 18.8125 39.0156
Q14.8906 38.1406 10.7969 36.2812
z
" id="DejaVuSans-35"/>
      </defs>
      <g transform="translate(228.236985173 301.4725)rotate(-90.0)scale(0.12 -0.12)">
       <use xlink:href="#DejaVuSans-41"/>
       <use x="68.408203125" xlink:href="#DejaVuSans-70"/>
       <use x="131.884765625" xlink:href="#DejaVuSans-72"/>
       <use x="172.998046875" xlink:href="#DejaVuSans-20"/>
       <use x="204.78515625" xlink:href="#DejaVuSans-32"/>
       <use x="268.408203125" xlink:href="#DejaVuSans-30"/>
       <use x="332.03125" xlink:href="#DejaVuSans-31"/>
       <use x="395.654296875" xlink:href="#DejaVuSans-35"/>
      </g>
     </g>
    </g>
    <g id="xtick_5">
     <g id="line2d_38">
      <g>
       <use style="stroke:#000000;stroke-width:0.5;" x="281.00151771" xlink:href="#m93b0483c22" y="243.406875"/>
      </g>
     </g>
     <g id="line2d_39">
      <g>
       <use style="stroke:#000000;stroke-width:0.5;" x="281.00151771" xlink:href="#m741efc42ff" y="13.006875"/>
      </g>
     </g>
     <g id="text_5">
      <!-- Aug 2015 -->
      <g transform="translate(284.31276771 304.144375)rotate(-90.0)scale(0.12 -0.12)">
       <use xlink:href="#DejaVuSans-41"/>
       <use x="68.408203125" xlink:href="#DejaVuSans-75"/>
       <use x="131.787109375" xlink:href="#DejaVuSans-67"/>
       <use x="195.263671875" xlink:href="#DejaVuSans-20"/>
       <use x="227.05078125" xlink:href="#DejaVuSans-32"/>
       <use x="290.673828125" xlink:href="#DejaVuSans-30"/>
       <use x="354.296875" xlink:href="#DejaVuSans-31"/>
       <use x="417.919921875" xlink:href="#DejaVuSans-35"/>
      </g>
     </g>
    </g>
    <g id="xtick_6">
     <g id="line2d_40">
      <g>
       <use style="stroke:#000000;stroke-width:0.5;" x="337.077300247" xlink:href="#m93b0483c22" y="243.406875"/>
      </g>
     </g>
     <g id="line2d_41">
      <g>
       <use style="stroke:#000000;stroke-width:0.5;" x="337.077300247" xlink:href="#m741efc42ff" y="13.006875"/>
      </g>
     </g>
     <g id="text_6">
      <!-- Dec 2015 -->
      <g transform="translate(340.388550247 303.934375)rotate(-90.0)scale(0.12 -0.12)">
       <use xlink:href="#DejaVuSans-44"/>
       <use x="77.001953125" xlink:href="#DejaVuSans-65"/>
       <use x="138.525390625" xlink:href="#DejaVuSans-63"/>
       <use x="193.505859375" xlink:href="#DejaVuSans-20"/>
       <use x="225.29296875" xlink:href="#DejaVuSans-32"/>
       <use x="288.916015625" xlink:href="#DejaVuSans-30"/>
       <use x="352.5390625" xlink:href="#DejaVuSans-31"/>
       <use x="416.162109375" xlink:href="#DejaVuSans-35"/>
      </g>
     </g>
    </g>
    <g id="xtick_7">
     <g id="line2d_42">
      <g>
       <use style="stroke:#000000;stroke-width:0.5;" x="393.153082784" xlink:href="#m93b0483c22" y="243.406875"/>
      </g>
     </g>
     <g id="line2d_43">
      <g>
       <use style="stroke:#000000;stroke-width:0.5;" x="393.153082784" xlink:href="#m741efc42ff" y="13.006875"/>
      </g>
     </g>
     <g id="text_7">
      <!-- Apr 2016 -->
      <defs>
       <path d="
M33.0156 40.375
Q26.375 40.375 22.4844 35.8281
Q18.6094 31.2969 18.6094 23.3906
Q18.6094 15.5312 22.4844 10.9531
Q26.375 6.39062 33.0156 6.39062
Q39.6562 6.39062 43.5312 10.9531
Q47.4062 15.5312 47.4062 23.3906
Q47.4062 31.2969 43.5312 35.8281
Q39.6562 40.375 33.0156 40.375
M52.5938 71.2969
L52.5938 62.3125
Q48.875 64.0625 45.0938 64.9844
Q41.3125 65.9219 37.5938 65.9219
Q27.8281 65.9219 22.6719 59.3281
Q17.5312 52.7344 16.7969 39.4062
Q19.6719 43.6562 24.0156 45.9219
Q28.375 48.1875 33.5938 48.1875
Q44.5781 48.1875 50.9531 41.5156
Q57.3281 34.8594 57.3281 23.3906
Q57.3281 12.1562 50.6875 5.35938
Q44.0469 -1.42188 33.0156 -1.42188
Q20.3594 -1.42188 13.6719 8.26562
Q6.98438 17.9688 6.98438 36.375
Q6.98438 53.6562 15.1875 63.9375
Q23.3906 74.2188 37.2031 74.2188
Q40.9219 74.2188 44.7031 73.4844
Q48.4844 72.75 52.5938 71.2969" id="DejaVuSans-36"/>
      </defs>
      <g transform="translate(396.464332784 301.765)rotate(-90.0)scale(0.12 -0.12)">
       <use xlink:href="#DejaVuSans-41"/>
       <use x="68.408203125" xlink:href="#DejaVuSans-70"/>
       <use x="131.884765625" xlink:href="#DejaVuSans-72"/>
       <use x="172.998046875" xlink:href="#DejaVuSans-20"/>
       <use x="204.78515625" xlink:href="#DejaVuSans-32"/>
       <use x="268.408203125" xlink:href="#DejaVuSans-30"/>
       <use x="332.03125" xlink:href="#DejaVuSans-31"/>
       <use x="395.654296875" xlink:href="#DejaVuSans-36"/>
      </g>
     </g>
    </g>
    <g id="xtick_8">
     <g id="line2d_44">
      <g>
       <use style="stroke:#000000;stroke-width:0.5;" x="449.228865321" xlink:href="#m93b0483c22" y="243.406875"/>
      </g>
     </g>
     <g id="line2d_45">
      <g>
       <use style="stroke:#000000;stroke-width:0.5;" x="449.228865321" xlink:href="#m741efc42ff" y="13.006875"/>
      </g>
     </g>
     <g id="text_8">
      <!-- Aug 2016 -->
      <g transform="translate(452.540115321 304.436875)rotate(-90.0)scale(0.12 -0.12)">
       <use xlink:href="#DejaVuSans-41"/>
       <use x="68.408203125" xlink:href="#DejaVuSans-75"/>
       <use x="131.787109375" xlink:href="#DejaVuSans-67"/>
       <use x="195.263671875" xlink:href="#DejaVuSans-20"/>
       <use x="227.05078125" xlink:href="#DejaVuSans-32"/>
       <use x="290.673828125" xlink:href="#DejaVuSans-30"/>
       <use x="354.296875" xlink:href="#DejaVuSans-31"/>
       <use x="417.919921875" xlink:href="#DejaVuSans-36"/>
      </g>
     </g>
    </g>
    <g id="xtick_9">
     <g id="line2d_46">
      <g>
       <use style="stroke:#000000;stroke-width:0.5;" x="505.304647858" xlink:href="#m93b0483c22" y="243.406875"/>
      </g>
     </g>
     <g id="line2d_47">
      <g>
       <use style="stroke:#000000;stroke-width:0.5;" x="505.304647858" xlink:href="#m741efc42ff" y="13.006875"/>
      </g>
     </g>
     <g id="text_9">
      <!-- Dec 2016 -->
      <g transform="translate(508.615897858 304.226875)rotate(-90.0)scale(0.12 -0.12)">
       <use xlink:href="#DejaVuSans-44"/>
       <use x="77.001953125" xlink:href="#DejaVuSans-65"/>
       <use x="138.525390625" xlink:href="#DejaVuSans-63"/>
       <use x="193.505859375" xlink:href="#DejaVuSans-20"/>
       <use x="225.29296875" xlink:href="#DejaVuSans-32"/>
       <use x="288.916015625" xlink:href="#DejaVuSans-30"/>
       <use x="352.5390625" xlink:href="#DejaVuSans-31"/>
       <use x="416.162109375" xlink:href="#DejaVuSans-36"/>
      </g>
     </g>
    </g>
    <g id="xtick_10">
     <g id="line2d_48">
      <g>
       <use style="stroke:#000000;stroke-width:0.5;" x="560.920792834" xlink:href="#m93b0483c22" y="243.406875"/>
      </g>
     </g>
     <g id="line2d_49">
      <g>
       <use style="stroke:#000000;stroke-width:0.5;" x="560.920792834" xlink:href="#m741efc42ff" y="13.006875"/>
      </g>
     </g>
     <g id="text_10">
      <!-- Apr 2017 -->
      <defs>
       <path d="
M8.20312 72.9062
L55.0781 72.9062
L55.0781 68.7031
L28.6094 0
L18.3125 0
L43.2188 64.5938
L8.20312 64.5938
z
" id="DejaVuSans-37"/>
      </defs>
      <g transform="translate(564.232042834 301.495)rotate(-90.0)scale(0.12 -0.12)">
       <use xlink:href="#DejaVuSans-41"/>
       <use x="68.408203125" xlink:href="#DejaVuSans-70"/>
       <use x="131.884765625" xlink:href="#DejaVuSans-72"/>
       <use x="172.998046875" xlink:href="#DejaVuSans-20"/>
       <use x="204.78515625" xlink:href="#DejaVuSans-32"/>
       <use x="268.408203125" xlink:href="#DejaVuSans-30"/>
       <use x="332.03125" xlink:href="#DejaVuSans-31"/>
       <use x="395.654296875" xlink:href="#DejaVuSans-37"/>
      </g>
     </g>
    </g>
   </g>
   <g id="matplotlib.axis_2">
    <g id="ytick_1">
     <g id="line2d_50">
      <defs>
       <path d="
M0 0
L4 0" id="m728421d6d4" style="stroke:#000000;stroke-width:0.5;"/>
      </defs>
      <g>
       <use style="stroke:#000000;stroke-width:0.5;" x="56.23875" xlink:href="#m728421d6d4" y="243.406875"/>
      </g>
     </g>
     <g id="line2d_51">
      <defs>
       <path d="
M0 0
L-4 0" id="mcb0005524f" style="stroke:#000000;stroke-width:0.5;"/>
      </defs>
      <g>
       <use style="stroke:#000000;stroke-width:0.5;" x="614.23875" xlink:href="#mcb0005524f" y="243.406875"/>
      </g>
     </g>
     <g id="text_11">
      <!-- 200 -->
      <g transform="translate(31.01 246.718125)scale(0.12 -0.12)">
       <use xlink:href="#DejaVuSans-32"/>
       <use x="63.623046875" xlink:href="#DejaVuSans-30"/>
       <use x="127.24609375" xlink:href="#DejaVuSans-30"/>
      </g>
     </g>
    </g>
    <g id="ytick_2">
     <g id="line2d_52">
      <g>
       <use style="stroke:#000000;stroke-width:0.5;" x="56.23875" xlink:href="#m728421d6d4" y="210.492589286"/>
      </g>
     </g>
     <g id="line2d_53">
      <g>
       <use style="stroke:#000000;stroke-width:0.5;" x="614.23875" xlink:href="#mcb0005524f" y="210.492589286"/>
      </g>
     </g>
     <g id="text_12">
      <!-- 400 -->
      <g transform="translate(30.7175 213.803839286)scale(0.12 -0.12)">
       <use xlink:href="#DejaVuSans-34"/>
       <use x="63.623046875" xlink:href="#DejaVuSans-30"/>
       <use x="127.24609375" xlink:href="#DejaVuSans-30"/>
      </g>
     </g>
    </g>
    <g id="ytick_3">
     <g id="line2d_54">
      <g>
       <use style="stroke:#000000;stroke-width:0.5;" x="56.23875" xlink:href="#m728421d6d4" y="177.578303571"/>
      </g>
     </g>
     <g id="line2d_55">
      <g>
       <use style="stroke:#000000;stroke-width:0.5;" x="614.23875" xlink:href="#mcb0005524f" y="177.578303571"/>
      </g>
     </g>
     <g id="text_13">
      <!-- 600 -->
      <g transform="translate(30.96875 180.889553571)scale(0.12 -0.12)">
       <use xlink:href="#DejaVuSans-36"/>
       <use x="63.623046875" xlink:href="#DejaVuSans-30"/>
       <use x="127.24609375" xlink:href="#DejaVuSans-30"/>
      </g>
     </g>
    </g>
    <g id="ytick_4">
     <g id="line2d_56">
      <g>
       <use style="stroke:#000000;stroke-width:0.5;" x="56.23875" xlink:href="#m728421d6d4" y="144.664017857"/>
      </g>
     </g>
     <g id="line2d_57">
      <g>
       <use style="stroke:#000000;stroke-width:0.5;" x="614.23875" xlink:href="#mcb0005524f" y="144.664017857"/>
      </g>
     </g>
     <g id="text_14">
      <!-- 800 -->
      <defs>
       <path d="
M31.7812 34.625
Q24.75 34.625 20.7188 30.8594
Q16.7031 27.0938 16.7031 20.5156
Q16.7031 13.9219 20.7188 10.1562
Q24.75 6.39062 31.7812 6.39062
Q38.8125 6.39062 42.8594 10.1719
Q46.9219 13.9688 46.9219 20.5156
Q46.9219 27.0938 42.8906 30.8594
Q38.875 34.625 31.7812 34.625
M21.9219 38.8125
Q15.5781 40.375 12.0312 44.7188
Q8.5 49.0781 8.5 55.3281
Q8.5 64.0625 14.7188 69.1406
Q20.9531 74.2188 31.7812 74.2188
Q42.6719 74.2188 48.875 69.1406
Q55.0781 64.0625 55.0781 55.3281
Q55.0781 49.0781 51.5312 44.7188
Q48 40.375 41.7031 38.8125
Q48.8281 37.1562 52.7969 32.3125
Q56.7812 27.4844 56.7812 20.5156
Q56.7812 9.90625 50.3125 4.23438
Q43.8438 -1.42188 31.7812 -1.42188
Q19.7344 -1.42188 13.25 4.23438
Q6.78125 9.90625 6.78125 20.5156
Q6.78125 27.4844 10.7812 32.3125
Q14.7969 37.1562 21.9219 38.8125
M18.3125 54.3906
Q18.3125 48.7344 21.8438 45.5625
Q25.3906 42.3906 31.7812 42.3906
Q38.1406 42.3906 41.7188 45.5625
Q45.3125 48.7344 45.3125 54.3906
Q45.3125 60.0625 41.7188 63.2344
Q38.1406 66.4062 31.7812 66.4062
Q25.3906 66.4062 21.8438 63.2344
Q18.3125 60.0625 18.3125 54.3906" id="DejaVuSans-38"/>
      </defs>
      <g transform="translate(30.944375 147.975267857)scale(0.12 -0.12)">
       <use xlink:href="#DejaVuSans-38"/>
       <use x="63.623046875" xlink:href="#DejaVuSans-30"/>
       <use x="127.24609375" xlink:href="#DejaVuSans-30"/>
      </g>
     </g>
    </g>
    <g id="ytick_5">
     <g id="line2d_58">
      <g>
       <use style="stroke:#000000;stroke-width:0.5;" x="56.23875" xlink:href="#m728421d6d4" y="111.749732143"/>
      </g>
     </g>
     <g id="line2d_59">
      <g>
       <use style="stroke:#000000;stroke-width:0.5;" x="614.23875" xlink:href="#mcb0005524f" y="111.749732143"/>
      </g>
     </g>
     <g id="text_15">
      <!-- 1000 -->
      <g transform="translate(23.81375 115.060982143)scale(0.12 -0.12)">
       <use xlink:href="#DejaVuSans-31"/>
       <use x="63.623046875" xlink:href="#DejaVuSans-30"/>
       <use x="127.24609375" xlink:href="#DejaVuSans-30"/>
       <use x="190.869140625" xlink:href="#DejaVuSans-30"/>
      </g>
     </g>
    </g>
    <g id="ytick_6">
     <g id="line2d_60">
      <g>
       <use style="stroke:#000000;stroke-width:0.5;" x="56.23875" xlink:href="#m728421d6d4" y="78.8354464286"/>
      </g>
     </g>
     <g id="line2d_61">
      <g>
       <use style="stroke:#000000;stroke-width:0.5;" x="614.23875" xlink:href="#mcb0005524f" y="78.8354464286"/>
      </g>
     </g>
     <g id="text_16">
      <!-- 1200 -->
      <g transform="translate(23.81375 82.1466964286)scale(0.12 -0.12)">
       <use xlink:href="#DejaVuSans-31"/>
       <use x="63.623046875" xlink:href="#DejaVuSans-32"/>
       <use x="127.24609375" xlink:href="#DejaVuSans-30"/>
       <use x="190.869140625" xlink:href="#DejaVuSans-30"/>
      </g>
     </g>
    </g>
    <g id="ytick_7">
     <g id="line2d_62">
      <g>
       <use style="stroke:#000000;stroke-width:0.5;" x="56.23875" xlink:href="#m728421d6d4" y="45.9211607143"/>
      </g>
     </g>
     <g id="line2d_63">
      <g>
       <use style="stroke:#000000;stroke-width:0.5;" x="614.23875" xlink:href="#mcb0005524f" y="45.9211607143"/>
      </g>
     </g>
     <g id="text_17">
      <!-- 1400 -->
      <g transform="translate(23.81375 49.2324107143)scale(0.12 -0.12)">
       <use xlink:href="#DejaVuSans-31"/>
       <use x="63.623046875" xlink:href="#DejaVuSans-34"/>
       <use x="127.24609375" xlink:href="#DejaVuSans-30"/>
       <use x="190.869140625" xlink:href="#DejaVuSans-30"/>
      </g>
     </g>
    </g>
    <g id="ytick_8">
     <g id="line2d_64">
      <g>
       <use style="stroke:#000000;stroke-width:0.5;" x="56.23875" xlink:href="#m728421d6d4" y="13.006875"/>
      </g>
     </g>
     <g id="line2d_65">
      <g>
       <use style="stroke:#000000;stroke-width:0.5;" x="614.23875" xlink:href="#mcb0005524f" y="13.006875"/>
      </g>
     </g>
     <g id="text_18">
      <!-- 1600 -->
      <g transform="translate(23.81375 16.318125)scale(0.12 -0.12)">
       <use xlink:href="#DejaVuSans-31"/>
       <use x="63.623046875" xlink:href="#DejaVuSans-36"/>
       <use x="127.24609375" xlink:href="#DejaVuSans-30"/>
       <use x="190.869140625" xlink:href="#DejaVuSans-30"/>
      </g>
     </g>
    </g>
    <g id="text_19">
     <!-- Number of Tagged Packages -->
     <defs>
      <path d="
M9.8125 72.9062
L23.0938 72.9062
L55.4219 11.9219
L55.4219 72.9062
L64.9844 72.9062
L64.9844 0
L51.7031 0
L19.3906 60.9844
L19.3906 0
L9.8125 0
z
" id="DejaVuSans-4e"/>
      <path d="
M19.6719 64.7969
L19.6719 37.4062
L32.0781 37.4062
Q38.9688 37.4062 42.7188 40.9688
Q46.4844 44.5312 46.4844 51.125
Q46.4844 57.6719 42.7188 61.2344
Q38.9688 64.7969 32.0781 64.7969
z

M9.8125 72.9062
L32.0781 72.9062
Q44.3438 72.9062 50.6094 67.3594
Q56.8906 61.8125 56.8906 51.125
Q56.8906 40.3281 50.6094 34.8125
Q44.3438 29.2969 32.0781 29.2969
L19.6719 29.2969
L19.6719 0
L9.8125 0
z
" id="DejaVuSans-50"/>
      <path d="
M30.6094 48.3906
Q23.3906 48.3906 19.1875 42.75
Q14.9844 37.1094 14.9844 27.2969
Q14.9844 17.4844 19.1562 11.8438
Q23.3438 6.20312 30.6094 6.20312
Q37.7969 6.20312 41.9844 11.8594
Q46.1875 17.5312 46.1875 27.2969
Q46.1875 37.0156 41.9844 42.7031
Q37.7969 48.3906 30.6094 48.3906
M30.6094 56
Q42.3281 56 49.0156 48.375
Q55.7188 40.7656 55.7188 27.2969
Q55.7188 13.875 49.0156 6.21875
Q42.3281 -1.42188 30.6094 -1.42188
Q18.8438 -1.42188 12.1719 6.21875
Q5.51562 13.875 5.51562 27.2969
Q5.51562 40.7656 12.1719 48.375
Q18.8438 56 30.6094 56" id="DejaVuSans-6f"/>
      <path d="
M52 44.1875
Q55.375 50.25 60.0625 53.125
Q64.75 56 71.0938 56
Q79.6406 56 84.2812 50.0156
Q88.9219 44.0469 88.9219 33.0156
L88.9219 0
L79.8906 0
L79.8906 32.7188
Q79.8906 40.5781 77.0938 44.375
Q74.3125 48.1875 68.6094 48.1875
Q61.625 48.1875 57.5625 43.5469
Q53.5156 38.9219 53.5156 30.9062
L53.5156 0
L44.4844 0
L44.4844 32.7188
Q44.4844 40.625 41.7031 44.4062
Q38.9219 48.1875 33.1094 48.1875
Q26.2188 48.1875 22.1562 43.5312
Q18.1094 38.875 18.1094 30.9062
L18.1094 0
L9.07812 0
L9.07812 54.6875
L18.1094 54.6875
L18.1094 46.1875
Q21.1875 51.2188 25.4844 53.6094
Q29.7812 56 35.6875 56
Q41.6562 56 45.8281 52.9688
Q50 49.9531 52 44.1875" id="DejaVuSans-6d"/>
      <path d="
M9.07812 75.9844
L18.1094 75.9844
L18.1094 31.1094
L44.9219 54.6875
L56.3906 54.6875
L27.3906 29.1094
L57.625 0
L45.9062 0
L18.1094 26.7031
L18.1094 0
L9.07812 0
z
" id="DejaVuSans-6b"/>
      <path d="
M37.1094 75.9844
L37.1094 68.5
L28.5156 68.5
Q23.6875 68.5 21.7969 66.5469
Q19.9219 64.5938 19.9219 59.5156
L19.9219 54.6875
L34.7188 54.6875
L34.7188 47.7031
L19.9219 47.7031
L19.9219 0
L10.8906 0
L10.8906 47.7031
L2.29688 47.7031
L2.29688 54.6875
L10.8906 54.6875
L10.8906 58.5
Q10.8906 67.625 15.1406 71.7969
Q19.3906 75.9844 28.6094 75.9844
z
" id="DejaVuSans-66"/>
      <path d="
M45.4062 46.3906
L45.4062 75.9844
L54.3906 75.9844
L54.3906 0
L45.4062 0
L45.4062 8.20312
Q42.5781 3.32812 38.25 0.953125
Q33.9375 -1.42188 27.875 -1.42188
Q17.9688 -1.42188 11.7344 6.48438
Q5.51562 14.4062 5.51562 27.2969
Q5.51562 40.1875 11.7344 48.0938
Q17.9688 56 27.875 56
Q33.9375 56 38.25 53.625
Q42.5781 51.2656 45.4062 46.3906
M14.7969 27.2969
Q14.7969 17.3906 18.875 11.75
Q22.9531 6.10938 30.0781 6.10938
Q37.2031 6.10938 41.2969 11.75
Q45.4062 17.3906 45.4062 27.2969
Q45.4062 37.2031 41.2969 42.8438
Q37.2031 48.4844 30.0781 48.4844
Q22.9531 48.4844 18.875 42.8438
Q14.7969 37.2031 14.7969 27.2969" id="DejaVuSans-64"/>
      <path d="
M34.2812 27.4844
Q23.3906 27.4844 19.1875 25
Q14.9844 22.5156 14.9844 16.5
Q14.9844 11.7188 18.1406 8.90625
Q21.2969 6.10938 26.7031 6.10938
Q34.1875 6.10938 38.7031 11.4062
Q43.2188 16.7031 43.2188 25.4844
L43.2188 27.4844
z

M52.2031 31.2031
L52.2031 0
L43.2188 0
L43.2188 8.29688
Q40.1406 3.32812 35.5469 0.953125
Q30.9531 -1.42188 24.3125 -1.42188
Q15.9219 -1.42188 10.9531 3.29688
Q6 8.01562 6 15.9219
Q6 25.1406 12.1719 29.8281
Q18.3594 34.5156 30.6094 34.5156
L43.2188 34.5156
L43.2188 35.4062
Q43.2188 41.6094 39.1406 45
Q35.0625 48.3906 27.6875 48.3906
Q23 48.3906 18.5469 47.2656
Q14.1094 46.1406 10.0156 43.8906
L10.0156 52.2031
Q14.9375 54.1094 19.5781 55.0469
Q24.2188 56 28.6094 56
Q40.4844 56 46.3438 49.8438
Q52.2031 43.7031 52.2031 31.2031" id="DejaVuSans-61"/>
      <path d="
M48.6875 27.2969
Q48.6875 37.2031 44.6094 42.8438
Q40.5312 48.4844 33.4062 48.4844
Q26.2656 48.4844 22.1875 42.8438
Q18.1094 37.2031 18.1094 27.2969
Q18.1094 17.3906 22.1875 11.75
Q26.2656 6.10938 33.4062 6.10938
Q40.5312 6.10938 44.6094 11.75
Q48.6875 17.3906 48.6875 27.2969
M18.1094 46.3906
Q20.9531 51.2656 25.2656 53.625
Q29.5938 56 35.5938 56
Q45.5625 56 51.7812 48.0938
Q58.0156 40.1875 58.0156 27.2969
Q58.0156 14.4062 51.7812 6.48438
Q45.5625 -1.42188 35.5938 -1.42188
Q29.5938 -1.42188 25.2656 0.953125
Q20.9531 3.32812 18.1094 8.20312
L18.1094 0
L9.07812 0
L9.07812 75.9844
L18.1094 75.9844
z
" id="DejaVuSans-62"/>
      <path d="
M44.2812 53.0781
L44.2812 44.5781
Q40.4844 46.5312 36.375 47.5
Q32.2812 48.4844 27.875 48.4844
Q21.1875 48.4844 17.8438 46.4375
Q14.5 44.3906 14.5 40.2812
Q14.5 37.1562 16.8906 35.375
Q19.2812 33.5938 26.5156 31.9844
L29.5938 31.2969
Q39.1562 29.25 43.1875 25.5156
Q47.2188 21.7812 47.2188 15.0938
Q47.2188 7.46875 41.1875 3.01562
Q35.1562 -1.42188 24.6094 -1.42188
Q20.2188 -1.42188 15.4531 -0.5625
Q10.6875 0.296875 5.42188 2
L5.42188 11.2812
Q10.4062 8.6875 15.2344 7.39062
Q20.0625 6.10938 24.8125 6.10938
Q31.1562 6.10938 34.5625 8.28125
Q37.9844 10.4531 37.9844 14.4062
Q37.9844 18.0625 35.5156 20.0156
Q33.0625 21.9688 24.7031 23.7812
L21.5781 24.5156
Q13.2344 26.2656 9.51562 29.9062
Q5.8125 33.5469 5.8125 39.8906
Q5.8125 47.6094 11.2812 51.7969
Q16.75 56 26.8125 56
Q31.7812 56 36.1719 55.2656
Q40.5781 54.5469 44.2812 53.0781" id="DejaVuSans-73"/>
      <path d="
M-0.296875 72.9062
L61.375 72.9062
L61.375 64.5938
L35.5 64.5938
L35.5 0
L25.5938 0
L25.5938 64.5938
L-0.296875 64.5938
z
" id="DejaVuSans-54"/>
     </defs>
     <g transform="translate(16.318125 212.98875)rotate(-90.0)scale(0.12 -0.12)">
      <use xlink:href="#DejaVuSans-4e"/>
      <use x="74.8046875" xlink:href="#DejaVuSans-75"/>
      <use x="138.18359375" xlink:href="#DejaVuSans-6d"/>
      <use x="235.595703125" xlink:href="#DejaVuSans-62"/>
      <use x="299.072265625" xlink:href="#DejaVuSans-65"/>
      <use x="360.595703125" xlink:href="#DejaVuSans-72"/>
      <use x="401.708984375" xlink:href="#DejaVuSans-20"/>
      <use x="433.49609375" xlink:href="#DejaVuSans-6f"/>
      <use x="494.677734375" xlink:href="#DejaVuSans-66"/>
      <use x="529.8828125" xlink:href="#DejaVuSans-20"/>
      <use x="561.669921875" xlink:href="#DejaVuSans-54"/>
      <use x="606.25390625" xlink:href="#DejaVuSans-61"/>
      <use x="667.533203125" xlink:href="#DejaVuSans-67"/>
      <use x="731.009765625" xlink:href="#DejaVuSans-67"/>
      <use x="794.486328125" xlink:href="#DejaVuSans-65"/>
      <use x="856.009765625" xlink:href="#DejaVuSans-64"/>
      <use x="919.486328125" xlink:href="#DejaVuSans-20"/>
      <use x="951.2734375" xlink:href="#DejaVuSans-50"/>
      <use x="1007.07617188" xlink:href="#DejaVuSans-61"/>
      <use x="1068.35546875" xlink:href="#DejaVuSans-63"/>
      <use x="1123.3359375" xlink:href="#DejaVuSans-6b"/>
      <use x="1179.49609375" xlink:href="#DejaVuSans-61"/>
      <use x="1240.77539062" xlink:href="#DejaVuSans-67"/>
      <use x="1304.25195312" xlink:href="#DejaVuSans-65"/>
      <use x="1365.77539062" xlink:href="#DejaVuSans-73"/>
     </g>
    </g>
   </g>
   <g id="patch_3">
    <path d="
M56.2388 13.0069
L614.239 13.0069" style="fill:none;stroke:#000000;"/>
   </g>
   <g id="patch_4">
    <path d="
M614.239 243.407
L614.239 13.0069" style="fill:none;stroke:#000000;"/>
   </g>
   <g id="patch_5">
    <path d="
M56.2388 243.407
L614.239 243.407" style="fill:none;stroke:#000000;"/>
   </g>
   <g id="patch_6">
    <path d="
M56.2388 243.407
L56.2388 13.0069" style="fill:none;stroke:#000000;"/>
   </g>
   <g id="text_20">
    <g id="patch_7">
     <path d="
M115.13 144.771
L128.804 144.771
L128.804 110.383
L115.13 110.383
z
" style="fill:#ffffff;stroke:#ffffff;"/>
    </g>
    <!-- v0.3.0 -->
    <defs>
     <path d="
M40.5781 39.3125
Q47.6562 37.7969 51.625 33
Q55.6094 28.2188 55.6094 21.1875
Q55.6094 10.4062 48.1875 4.48438
Q40.7656 -1.42188 27.0938 -1.42188
Q22.5156 -1.42188 17.6562 -0.515625
Q12.7969 0.390625 7.625 2.20312
L7.625 11.7188
Q11.7188 9.32812 16.5938 8.10938
Q21.4844 6.89062 26.8125 6.89062
Q36.0781 6.89062 40.9375 10.5469
Q45.7969 14.2031 45.7969 21.1875
Q45.7969 27.6406 41.2812 31.2656
Q36.7656 34.9062 28.7188 34.9062
L20.2188 34.9062
L20.2188 43.0156
L29.1094 43.0156
Q36.375 43.0156 40.2344 45.9219
Q44.0938 48.8281 44.0938 54.2969
Q44.0938 59.9062 40.1094 62.9062
Q36.1406 65.9219 28.7188 65.9219
Q24.6562 65.9219 20.0156 65.0312
Q15.375 64.1562 9.8125 62.3125
L9.8125 71.0938
Q15.4375 72.6562 20.3438 73.4375
Q25.25 74.2188 29.5938 74.2188
Q40.8281 74.2188 47.3594 69.1094
Q53.9062 64.0156 53.9062 55.3281
Q53.9062 49.2656 50.4375 45.0938
Q46.9688 40.9219 40.5781 39.3125" id="DejaVuSans-33"/>
     <path d="
M2.98438 54.6875
L12.5 54.6875
L29.5938 8.79688
L46.6875 54.6875
L56.2031 54.6875
L35.6875 0
L23.4844 0
z
" id="DejaVuSans-76"/>
     <path d="
M10.6875 12.4062
L21 12.4062
L21 0
L10.6875 0
z
" id="DejaVuSans-2e"/>
    </defs>
    <g transform="translate(124.725192584 142.770745446)rotate(-90.0)scale(0.09996 -0.09996)">
     <use xlink:href="#DejaVuSans-76"/>
     <use x="59.1796875" xlink:href="#DejaVuSans-30"/>
     <use x="122.802734375" xlink:href="#DejaVuSans-2e"/>
     <use x="154.58984375" xlink:href="#DejaVuSans-33"/>
     <use x="218.212890625" xlink:href="#DejaVuSans-2e"/>
     <use x="250.0" xlink:href="#DejaVuSans-30"/>
    </g>
   </g>
   <g id="text_21">
    <g id="patch_8">
     <path d="
M129.838 111.597
L143.512 111.597
L143.512 77.4686
L129.838 77.4686
z
" style="fill:#ffffff;stroke:#ffffff;"/>
    </g>
    <!-- v0.3.1 -->
    <g transform="translate(139.433594561 109.597188482)rotate(-90.0)scale(0.09996 -0.09996)">
     <use xlink:href="#DejaVuSans-76"/>
     <use x="59.1796875" xlink:href="#DejaVuSans-30"/>
     <use x="122.802734375" xlink:href="#DejaVuSans-2e"/>
     <use x="154.58984375" xlink:href="#DejaVuSans-33"/>
     <use x="218.212890625" xlink:href="#DejaVuSans-2e"/>
     <use x="250.0" xlink:href="#DejaVuSans-31"/>
    </g>
   </g>
   <g id="text_22">
    <g id="patch_9">
     <path d="
M143.627 144.433
L157.302 144.433
L157.302 110.383
L143.627 110.383
z
" style="fill:#ffffff;stroke:#ffffff;"/>
    </g>
    <!-- v0.3.2 -->
    <g transform="translate(153.222721415 142.433380446)rotate(-90.0)scale(0.09996 -0.09996)">
     <use xlink:href="#DejaVuSans-76"/>
     <use x="59.1796875" xlink:href="#DejaVuSans-30"/>
     <use x="122.802734375" xlink:href="#DejaVuSans-2e"/>
     <use x="154.58984375" xlink:href="#DejaVuSans-33"/>
     <use x="218.212890625" xlink:href="#DejaVuSans-2e"/>
     <use x="250.0" xlink:href="#DejaVuSans-32"/>
    </g>
   </g>
   <g id="text_23">
    <g id="patch_10">
     <path d="
M158.795 111.719
L172.47 111.719
L172.47 77.4686
L158.795 77.4686
z
" style="fill:#ffffff;stroke:#ffffff;"/>
    </g>
    <!-- v0.3.3 -->
    <g transform="translate(168.390760953 109.719014732)rotate(-90.0)scale(0.09996 -0.09996)">
     <use xlink:href="#DejaVuSans-76"/>
     <use x="59.1796875" xlink:href="#DejaVuSans-30"/>
     <use x="122.802734375" xlink:href="#DejaVuSans-2e"/>
     <use x="154.58984375" xlink:href="#DejaVuSans-33"/>
     <use x="218.212890625" xlink:href="#DejaVuSans-2e"/>
     <use x="250.0" xlink:href="#DejaVuSans-33"/>
    </g>
   </g>
   <g id="text_24">
    <g id="patch_11">
     <path d="
M173.963 144.874
L187.638 144.874
L187.638 110.383
L173.963 110.383
z
" style="fill:#ffffff;stroke:#ffffff;"/>
    </g>
    <!-- v0.3.4 -->
    <g transform="translate(183.558800492 142.873829196)rotate(-90.0)scale(0.09996 -0.09996)">
     <use xlink:href="#DejaVuSans-76"/>
     <use x="59.1796875" xlink:href="#DejaVuSans-30"/>
     <use x="122.802734375" xlink:href="#DejaVuSans-2e"/>
     <use x="154.58984375" xlink:href="#DejaVuSans-33"/>
     <use x="218.212890625" xlink:href="#DejaVuSans-2e"/>
     <use x="250.0" xlink:href="#DejaVuSans-34"/>
    </g>
   </g>
   <g id="text_25">
    <g id="patch_12">
     <path d="
M179.939 111.647
L193.613 111.647
L193.613 77.4686
L179.939 77.4686
z
" style="fill:#ffffff;stroke:#ffffff;"/>
    </g>
    <!-- v0.3.5 -->
    <g transform="translate(189.534088795 109.647168482)rotate(-90.0)scale(0.09996 -0.09996)">
     <use xlink:href="#DejaVuSans-76"/>
     <use x="59.1796875" xlink:href="#DejaVuSans-30"/>
     <use x="122.802734375" xlink:href="#DejaVuSans-2e"/>
     <use x="154.58984375" xlink:href="#DejaVuSans-33"/>
     <use x="218.212890625" xlink:href="#DejaVuSans-2e"/>
     <use x="250.0" xlink:href="#DejaVuSans-35"/>
    </g>
   </g>
   <g id="text_26">
    <g id="patch_13">
     <path d="
M198.324 144.805
L211.998 144.805
L211.998 110.383
L198.324 110.383
z
" style="fill:#ffffff;stroke:#ffffff;"/>
    </g>
    <!-- v0.3.6 -->
    <g transform="translate(207.919591266 142.805106696)rotate(-90.0)scale(0.09996 -0.09996)">
     <use xlink:href="#DejaVuSans-76"/>
     <use x="59.1796875" xlink:href="#DejaVuSans-30"/>
     <use x="122.802734375" xlink:href="#DejaVuSans-2e"/>
     <use x="154.58984375" xlink:href="#DejaVuSans-33"/>
     <use x="218.212890625" xlink:href="#DejaVuSans-2e"/>
     <use x="250.0" xlink:href="#DejaVuSans-36"/>
    </g>
   </g>
   <g id="text_27">
    <g id="patch_14">
     <path d="
M213.952 111.666
L227.626 111.666
L227.626 77.4686
L213.952 77.4686
z
" style="fill:#ffffff;stroke:#ffffff;"/>
    </g>
    <!-- v0.3.7 -->
    <g transform="translate(223.547268367 109.665910982)rotate(-90.0)scale(0.09996 -0.09996)">
     <use xlink:href="#DejaVuSans-76"/>
     <use x="59.1796875" xlink:href="#DejaVuSans-30"/>
     <use x="122.802734375" xlink:href="#DejaVuSans-2e"/>
     <use x="154.58984375" xlink:href="#DejaVuSans-33"/>
     <use x="218.212890625" xlink:href="#DejaVuSans-2e"/>
     <use x="250.0" xlink:href="#DejaVuSans-37"/>
    </g>
   </g>
   <g id="text_28">
    <g id="patch_15">
     <path d="
M231.418 144.75
L245.092 144.75
L245.092 110.383
L231.418 110.383
z
" style="fill:#ffffff;stroke:#ffffff;"/>
    </g>
    <!-- v0.3.8 -->
    <g transform="translate(241.013495715 142.750441071)rotate(-90.0)scale(0.09996 -0.09996)">
     <use xlink:href="#DejaVuSans-76"/>
     <use x="59.1796875" xlink:href="#DejaVuSans-30"/>
     <use x="122.802734375" xlink:href="#DejaVuSans-2e"/>
     <use x="154.58984375" xlink:href="#DejaVuSans-33"/>
     <use x="218.212890625" xlink:href="#DejaVuSans-2e"/>
     <use x="250.0" xlink:href="#DejaVuSans-38"/>
    </g>
   </g>
   <g id="text_29">
    <g id="patch_16">
     <path d="
M245.207 111.817
L258.881 111.817
L258.881 77.4686
L245.207 77.4686
z
" style="fill:#ffffff;stroke:#ffffff;"/>
    </g>
    <!-- v0.3.9 -->
    <defs>
     <path d="
M10.9844 1.51562
L10.9844 10.5
Q14.7031 8.73438 18.5 7.8125
Q22.3125 6.89062 25.9844 6.89062
Q35.75 6.89062 40.8906 13.4531
Q46.0469 20.0156 46.7812 33.4062
Q43.9531 29.2031 39.5938 26.9531
Q35.25 24.7031 29.9844 24.7031
Q19.0469 24.7031 12.6719 31.3125
Q6.29688 37.9375 6.29688 49.4219
Q6.29688 60.6406 12.9375 67.4219
Q19.5781 74.2188 30.6094 74.2188
Q43.2656 74.2188 49.9219 64.5156
Q56.5938 54.8281 56.5938 36.375
Q56.5938 19.1406 48.4062 8.85938
Q40.2344 -1.42188 26.4219 -1.42188
Q22.7031 -1.42188 18.8906 -0.6875
Q15.0938 0.046875 10.9844 1.51562
M30.6094 32.4219
Q37.25 32.4219 41.125 36.9531
Q45.0156 41.5 45.0156 49.4219
Q45.0156 57.2812 41.125 61.8438
Q37.25 66.4062 30.6094 66.4062
Q23.9688 66.4062 20.0938 61.8438
Q16.2188 57.2812 16.2188 49.4219
Q16.2188 41.5 20.0938 36.9531
Q23.9688 32.4219 30.6094 32.4219" id="DejaVuSans-39"/>
    </defs>
    <g transform="translate(254.802622568 109.817412857)rotate(-90.0)scale(0.09996 -0.09996)">
     <use xlink:href="#DejaVuSans-76"/>
     <use x="59.1796875" xlink:href="#DejaVuSans-30"/>
     <use x="122.802734375" xlink:href="#DejaVuSans-2e"/>
     <use x="154.58984375" xlink:href="#DejaVuSans-33"/>
     <use x="218.212890625" xlink:href="#DejaVuSans-2e"/>
     <use x="250.0" xlink:href="#DejaVuSans-39"/>
    </g>
   </g>
   <g id="text_30">
    <g id="patch_17">
     <path d="
M256.698 151.131
L270.372 151.131
L270.372 110.383
L256.698 110.383
z
" style="fill:#ffffff;stroke:#ffffff;"/>
    </g>
    <!-- v0.3.10 -->
    <g transform="translate(266.293561612 149.130700446)rotate(-90.0)scale(0.09996 -0.09996)">
     <use xlink:href="#DejaVuSans-76"/>
     <use x="59.1796875" xlink:href="#DejaVuSans-30"/>
     <use x="122.802734375" xlink:href="#DejaVuSans-2e"/>
     <use x="154.58984375" xlink:href="#DejaVuSans-33"/>
     <use x="218.212890625" xlink:href="#DejaVuSans-2e"/>
     <use x="250.0" xlink:href="#DejaVuSans-31"/>
     <use x="313.623046875" xlink:href="#DejaVuSans-30"/>
    </g>
   </g>
   <g id="text_31">
    <g id="patch_18">
     <path d="
M271.866 117.957
L285.54 117.957
L285.54 77.4686
L271.866 77.4686
z
" style="fill:#ffffff;stroke:#ffffff;"/>
    </g>
    <!-- v0.3.11 -->
    <g transform="translate(281.461601151 115.957143482)rotate(-90.0)scale(0.09996 -0.09996)">
     <use xlink:href="#DejaVuSans-76"/>
     <use x="59.1796875" xlink:href="#DejaVuSans-30"/>
     <use x="122.802734375" xlink:href="#DejaVuSans-2e"/>
     <use x="154.58984375" xlink:href="#DejaVuSans-33"/>
     <use x="218.212890625" xlink:href="#DejaVuSans-2e"/>
     <use x="250.0" xlink:href="#DejaVuSans-31"/>
     <use x="313.623046875" xlink:href="#DejaVuSans-31"/>
    </g>
   </g>
   <g id="text_32">
    <g id="patch_19">
     <path d="
M313.693 150.793
L327.367 150.793
L327.367 110.383
L313.693 110.383
z
" style="fill:#ffffff;stroke:#ffffff;"/>
    </g>
    <!-- v0.3.12 -->
    <g transform="translate(323.288619273 148.793335446)rotate(-90.0)scale(0.09996 -0.09996)">
     <use xlink:href="#DejaVuSans-76"/>
     <use x="59.1796875" xlink:href="#DejaVuSans-30"/>
     <use x="122.802734375" xlink:href="#DejaVuSans-2e"/>
     <use x="154.58984375" xlink:href="#DejaVuSans-33"/>
     <use x="218.212890625" xlink:href="#DejaVuSans-2e"/>
     <use x="250.0" xlink:href="#DejaVuSans-31"/>
     <use x="313.623046875" xlink:href="#DejaVuSans-32"/>
    </g>
   </g>
   <g id="text_33">
    <g id="patch_20">
     <path d="
M305.42 235.285
L319.094 235.285
L319.094 200.897
L305.42 200.897
z
" style="fill:#ffffff;stroke:#ffffff;"/>
    </g>
    <!-- v0.4.0 -->
    <g transform="translate(315.015143161 233.285031161)rotate(-90.0)scale(0.09996 -0.09996)">
     <use xlink:href="#DejaVuSans-76"/>
     <use x="59.1796875" xlink:href="#DejaVuSans-30"/>
     <use x="122.802734375" xlink:href="#DejaVuSans-2e"/>
     <use x="154.58984375" xlink:href="#DejaVuSans-34"/>
     <use x="218.212890625" xlink:href="#DejaVuSans-2e"/>
     <use x="250.0" xlink:href="#DejaVuSans-30"/>
    </g>
   </g>
   <g id="text_34">
    <g id="patch_21">
     <path d="
M319.669 210.34
L333.343 210.34
L333.343 176.211
L319.669 176.211
z
" style="fill:#ffffff;stroke:#ffffff;"/>
    </g>
    <!-- v0.4.1 -->
    <g transform="translate(329.263907576 208.340045625)rotate(-90.0)scale(0.09996 -0.09996)">
     <use xlink:href="#DejaVuSans-76"/>
     <use x="59.1796875" xlink:href="#DejaVuSans-30"/>
     <use x="122.802734375" xlink:href="#DejaVuSans-2e"/>
     <use x="154.58984375" xlink:href="#DejaVuSans-34"/>
     <use x="218.212890625" xlink:href="#DejaVuSans-2e"/>
     <use x="250.0" xlink:href="#DejaVuSans-31"/>
    </g>
   </g>
   <g id="text_35">
    <g id="patch_22">
     <path d="
M332.538 234.948
L346.213 234.948
L346.213 200.897
L332.538 200.897
z
" style="fill:#ffffff;stroke:#ffffff;"/>
    </g>
    <!-- v0.4.2 -->
    <g transform="translate(342.133759306 232.947666161)rotate(-90.0)scale(0.09996 -0.09996)">
     <use xlink:href="#DejaVuSans-76"/>
     <use x="59.1796875" xlink:href="#DejaVuSans-30"/>
     <use x="122.802734375" xlink:href="#DejaVuSans-2e"/>
     <use x="154.58984375" xlink:href="#DejaVuSans-34"/>
     <use x="218.212890625" xlink:href="#DejaVuSans-2e"/>
     <use x="250.0" xlink:href="#DejaVuSans-32"/>
    </g>
   </g>
   <g id="text_36">
    <g id="patch_23">
     <path d="
M349.545 210.462
L363.219 210.462
L363.219 176.211
L349.545 176.211
z
" style="fill:#ffffff;stroke:#ffffff;"/>
    </g>
    <!-- v0.4.3 -->
    <g transform="translate(359.140349092 208.461871875)rotate(-90.0)scale(0.09996 -0.09996)">
     <use xlink:href="#DejaVuSans-76"/>
     <use x="59.1796875" xlink:href="#DejaVuSans-30"/>
     <use x="122.802734375" xlink:href="#DejaVuSans-2e"/>
     <use x="154.58984375" xlink:href="#DejaVuSans-34"/>
     <use x="218.212890625" xlink:href="#DejaVuSans-2e"/>
     <use x="250.0" xlink:href="#DejaVuSans-33"/>
    </g>
   </g>
   <g id="text_37">
    <g id="patch_24">
     <path d="
M379.421 235.076
L393.096 235.076
L393.096 200.897
L379.421 200.897
z
" style="fill:#ffffff;stroke:#ffffff;"/>
    </g>
    <!-- v0.4.5 -->
    <g transform="translate(389.016790608 233.075739911)rotate(-90.0)scale(0.09996 -0.09996)">
     <use xlink:href="#DejaVuSans-76"/>
     <use x="59.1796875" xlink:href="#DejaVuSans-30"/>
     <use x="122.802734375" xlink:href="#DejaVuSans-2e"/>
     <use x="154.58984375" xlink:href="#DejaVuSans-34"/>
     <use x="218.212890625" xlink:href="#DejaVuSans-2e"/>
     <use x="250.0" xlink:href="#DejaVuSans-35"/>
    </g>
   </g>
   <g id="text_38">
    <g id="patch_25">
     <path d="
M422.627 210.634
L436.302 210.634
L436.302 176.211
L422.627 176.211
z
" style="fill:#ffffff;stroke:#ffffff;"/>
    </g>
    <!-- v0.4.6 -->
    <g transform="translate(432.222721415 208.633678125)rotate(-90.0)scale(0.09996 -0.09996)">
     <use xlink:href="#DejaVuSans-76"/>
     <use x="59.1796875" xlink:href="#DejaVuSans-30"/>
     <use x="122.802734375" xlink:href="#DejaVuSans-2e"/>
     <use x="154.58984375" xlink:href="#DejaVuSans-34"/>
     <use x="218.212890625" xlink:href="#DejaVuSans-2e"/>
     <use x="250.0" xlink:href="#DejaVuSans-36"/>
    </g>
   </g>
   <g id="text_39">
    <g id="patch_26">
     <path d="
M464.454 235.094
L478.129 235.094
L478.129 200.897
L464.454 200.897
z
" style="fill:#ffffff;stroke:#ffffff;"/>
    </g>
    <!-- v0.4.7 -->
    <g transform="translate(474.049739537 233.094482411)rotate(-90.0)scale(0.09996 -0.09996)">
     <use xlink:href="#DejaVuSans-76"/>
     <use x="59.1796875" xlink:href="#DejaVuSans-30"/>
     <use x="122.802734375" xlink:href="#DejaVuSans-2e"/>
     <use x="154.58984375" xlink:href="#DejaVuSans-34"/>
     <use x="218.212890625" xlink:href="#DejaVuSans-2e"/>
     <use x="250.0" xlink:href="#DejaVuSans-37"/>
    </g>
   </g>
   <g id="text_40">
    <g id="patch_27">
     <path d="
M464.914 152.999
L478.588 152.999
L478.588 118.611
L464.914 118.611
z
" style="fill:#ffffff;stroke:#ffffff;"/>
    </g>
    <!-- v0.5.0 -->
    <g transform="translate(474.509377098 150.999316875)rotate(-90.0)scale(0.09996 -0.09996)">
     <use xlink:href="#DejaVuSans-76"/>
     <use x="59.1796875" xlink:href="#DejaVuSans-30"/>
     <use x="122.802734375" xlink:href="#DejaVuSans-2e"/>
     <use x="154.58984375" xlink:href="#DejaVuSans-35"/>
     <use x="218.212890625" xlink:href="#DejaVuSans-2e"/>
     <use x="250.0" xlink:href="#DejaVuSans-30"/>
    </g>
   </g>
   <g id="text_41">
    <g id="patch_28">
     <path d="
M541.673 136.283
L555.348 136.283
L555.348 102.154
L541.673 102.154
z
" style="fill:#ffffff;stroke:#ffffff;"/>
    </g>
    <!-- v0.5.1 -->
    <g transform="translate(551.268849916 134.282902768)rotate(-90.0)scale(0.09996 -0.09996)">
     <use xlink:href="#DejaVuSans-76"/>
     <use x="59.1796875" xlink:href="#DejaVuSans-30"/>
     <use x="122.802734375" xlink:href="#DejaVuSans-2e"/>
     <use x="154.58984375" xlink:href="#DejaVuSans-35"/>
     <use x="218.212890625" xlink:href="#DejaVuSans-2e"/>
     <use x="250.0" xlink:href="#DejaVuSans-31"/>
    </g>
   </g>
   <g id="text_42">
    <g id="patch_29">
     <path d="
M570.171 152.662
L583.845 152.662
L583.845 118.611
L570.171 118.611
z
" style="fill:#ffffff;stroke:#ffffff;"/>
    </g>
    <!-- v0.5.2 -->
    <g transform="translate(579.766378746 150.661951875)rotate(-90.0)scale(0.09996 -0.09996)">
     <use xlink:href="#DejaVuSans-76"/>
     <use x="59.1796875" xlink:href="#DejaVuSans-30"/>
     <use x="122.802734375" xlink:href="#DejaVuSans-2e"/>
     <use x="154.58984375" xlink:href="#DejaVuSans-35"/>
     <use x="218.212890625" xlink:href="#DejaVuSans-2e"/>
     <use x="250.0" xlink:href="#DejaVuSans-32"/>
    </g>
   </g>
   <g id="text_43">
    <g id="patch_30">
     <path d="
M590.395 235.285
L604.069 235.285
L604.069 200.897
L590.395 200.897
z
" style="fill:#ffffff;stroke:#ffffff;"/>
    </g>
    <!-- v0.6.0 -->
    <g transform="translate(599.990431464 233.285031161)rotate(-90.0)scale(0.09996 -0.09996)">
     <use xlink:href="#DejaVuSans-76"/>
     <use x="59.1796875" xlink:href="#DejaVuSans-30"/>
     <use x="122.802734375" xlink:href="#DejaVuSans-2e"/>
     <use x="154.58984375" xlink:href="#DejaVuSans-36"/>
     <use x="218.212890625" xlink:href="#DejaVuSans-2e"/>
     <use x="250.0" xlink:href="#DejaVuSans-30"/>
    </g>
   </g>
   <g id="legend_1">
    <g id="patch_31">
     <path d="
M61.2368 94.3649
L111.899 94.3649
L111.899 18.0049
L61.2368 18.0049
L61.2368 94.3649
z
" style="fill:#ffffff;stroke:#000000;"/>
    </g>
    <g id="line2d_66">
     <path d="
M68.234 26.1001
L82.2284 26.1001" style="fill:none;stroke:#ff0000;stroke-linecap:square;stroke-width:2;"/>
    </g>
    <g id="line2d_67"/>
    <g id="text_44">
     <!-- 0.2 -->
     <g transform="translate(93.22395 29.598673125)scale(0.09996 -0.09996)">
      <use xlink:href="#DejaVuSans-30"/>
      <use x="63.623046875" xlink:href="#DejaVuSans-2e"/>
      <use x="95.41015625" xlink:href="#DejaVuSans-32"/>
     </g>
    </g>
    <g id="line2d_68">
     <path d="
M68.234 40.7723
L82.2284 40.7723" style="fill:none;stroke:#008000;stroke-linecap:square;stroke-width:2;"/>
    </g>
    <g id="line2d_69"/>
    <g id="text_45">
     <!-- 0.3 -->
     <g transform="translate(93.22395 44.270926875)scale(0.09996 -0.09996)">
      <use xlink:href="#DejaVuSans-30"/>
      <use x="63.623046875" xlink:href="#DejaVuSans-2e"/>
      <use x="95.41015625" xlink:href="#DejaVuSans-33"/>
     </g>
    </g>
    <g id="line2d_70">
     <path d="
M68.234 55.4446
L82.2284 55.4446" style="fill:none;stroke:#0000ff;stroke-linecap:square;stroke-width:2;"/>
    </g>
    <g id="line2d_71"/>
    <g id="text_46">
     <!-- 0.4 -->
     <g transform="translate(93.22395 58.943180625)scale(0.09996 -0.09996)">
      <use xlink:href="#DejaVuSans-30"/>
      <use x="63.623046875" xlink:href="#DejaVuSans-2e"/>
      <use x="95.41015625" xlink:href="#DejaVuSans-34"/>
     </g>
    </g>
    <g id="line2d_72">
     <path d="
M68.234 70.1168
L82.2284 70.1168" style="fill:none;stroke:#000000;stroke-linecap:square;stroke-width:2;"/>
    </g>
    <g id="line2d_73"/>
    <g id="text_47">
     <!-- 0.5 -->
     <g transform="translate(93.22395 73.615434375)scale(0.09996 -0.09996)">
      <use xlink:href="#DejaVuSans-30"/>
      <use x="63.623046875" xlink:href="#DejaVuSans-2e"/>
      <use x="95.41015625" xlink:href="#DejaVuSans-35"/>
     </g>
    </g>
    <g id="line2d_74">
     <path d="
M68.234 84.7891
L82.2284 84.7891" style="fill:none;stroke:#bfbf00;stroke-linecap:square;stroke-width:2;"/>
    </g>
    <g id="line2d_75"/>
    <g id="text_48">
     <!-- 0.6 -->
     <g transform="translate(93.22395 88.287688125)scale(0.09996 -0.09996)">
      <use xlink:href="#DejaVuSans-30"/>
      <use x="63.623046875" xlink:href="#DejaVuSans-2e"/>
      <use x="95.41015625" xlink:href="#DejaVuSans-36"/>
     </g>
    </g>
   </g>
  </g>
 </g>
 <defs>
  <clipPath id="p472e73a826">
   <rect height="230.4" width="558.0" x="56.23875" y="13.006875"/>
  </clipPath>
 </defs>
</svg>
