<?xml version="1.0" encoding="utf-8" standalone="no"?>
<!DOCTYPE svg PUBLIC "-//W3C//DTD SVG 1.1//EN"
  "http://www.w3.org/Graphics/SVG/1.1/DTD/svg11.dtd">
<!-- Created with matplotlib (http://matplotlib.org/) -->
<svg height="311pt" version="1.1" viewBox="0 0 621 311" width="621pt" xmlns="http://www.w3.org/2000/svg" xmlns:xlink="http://www.w3.org/1999/xlink">
 <defs>
  <style type="text/css">
*{stroke-linecap:butt;stroke-linejoin:round;}
  </style>
 </defs>
 <g id="figure_1">
  <g id="patch_1">
   <path d="
M0 311.71
L621.439 311.71
L621.439 0
L0 0
z
" style="fill:#ffffff;"/>
  </g>
  <g id="axes_1">
   <g id="patch_2">
    <path d="
M56.2388 243.407
L614.239 243.407
L614.239 13.0069
L56.2388 13.0069
z
" style="fill:#ffffff;"/>
   </g>
   <g id="line2d_1">
    <path clip-path="url(#pd39b4832ff)" d="
M116.842 221.19
L116.393 221.19
L115.944 221.519
L115.495 221.519
L115.046 221.683
L114.598 222.013
L114.149 222.013
L113.251 221.683
L112.802 221.683
L112.353 222.177
L111.904 222.177
L111.006 222.177
L110.557 222.177
L109.66 222.342
L109.211 222.342
L108.762 222.342
L108.313 222.506
L107.864 222.506
L107.415 222.506
L106.966 222.671
L106.517 222.671
L105.17 222.671
L104.721 222.671
L104.273 222.671
L103.824 222.671
L102.926 223
L102.028 223.329
L101.579 223.329
L101.13 223.494
L100.681 223.658
L99.7834 223.987
L99.3345 223.987
L98.8856 223.987
L98.4367 224.152
L97.9877 224.317
L97.5388 224.646
L96.641 224.81
L96.1921 224.81
L95.7432 225.304
L95.2943 225.304
L94.8453 225.304
L94.3964 225.304
L93.9475 225.304
L93.4986 225.633
L92.6008 225.633
L92.1519 225.798
L91.7029 225.798
L91.254 225.798
L90.8051 225.798
L90.3562 225.798
L89.9073 226.127
L89.4584 226.291
L89.0095 226.456
L88.5606 226.456
L85.8671 227.279
L85.4182 227.279
L84.9692 227.443
L84.5203 227.443
L84.0714 227.608
L83.6225 227.608
L83.1736 227.608
L82.7247 227.608
L82.2758 227.608
L81.8268 227.608
L81.3779 227.608
L80.929 227.608
L80.4801 228.431
L80.0312 227.114
L79.5823 227.279
L79.1334 227.279
L78.6844 227.279
L77.7866 227.443
L77.3377 227.443
L76.8888 227.937
L76.4399 227.937
L75.991 227.937
L75.542 227.937
L75.0931 227.937
L74.6442 227.937
L74.1953 227.937
L73.7464 227.937
L73.2975 227.937
L72.8486 228.102
L69.7062 228.266
L68.8083 228.266
L67.4616 228.266
L64.3192 228.595
L63.8703 228.76
L62.9725 228.925
L62.5235 228.925
L61.6257 229.089
L60.7279 229.254
L60.279 229.254
L59.3811 229.254
L58.9322 229.254
L58.4833 229.254
L58.0344 229.254
L57.5855 229.254
L57.1366 229.254
L56.6877 229.418
L56.2387 229.418" style="fill:none;stroke:#ff0000;stroke-linecap:square;stroke-width:2;"/>
   </g>
   <g id="line2d_2">
    <path clip-path="url(#pd39b4832ff)" d="
M463.404 161.944
L451.283 161.944
L450.834 162.109
L449.487 161.944
L444.549 161.944
L444.1 162.109
L443.651 161.944
L443.203 161.944
L442.754 162.109
L442.305 161.944
L440.958 161.944
L440.509 162.109
L438.264 162.109
L437.816 161.944
L432.429 161.944
L431.98 162.109
L431.531 161.944
L428.388 161.944
L427.939 162.109
L427.491 161.944
L427.042 162.109
L426.593 161.944
L421.206 161.944
L420.757 162.109
L419.859 162.109
L419.41 162.273
L418.512 162.109
L418.063 162.273
L417.614 162.109
L416.268 162.109
L415.819 162.273
L415.37 162.109
L412.676 162.109
L412.227 162.273
L411.779 162.109
L409.534 162.109
L409.085 162.273
L378.559 162.931
L371.376 163.261
L361.051 163.261
L358.358 163.59
L356.562 163.59
L347.135 163.754
L337.259 163.754
L331.423 164.248
L327.832 164.577
L323.791 164.577
L322.894 164.906
L321.098 164.577
L310.324 164.906
L307.182 165.565
L305.386 165.729
L303.141 166.387
L301.346 167.21
L294.163 168.856
L291.919 169.185
L289.674 169.35
L288.327 169.679
L280.696 171.983
L273.064 173.629
L265.433 175.933
L264.984 175.933
L264.535 176.097
L264.086 176.426
L263.637 177.085
L263.188 177.414
L262.29 177.249
L261.392 177.578
L260.046 177.578
L259.597 177.743
L258.699 177.743
L258.25 178.072
L257.801 178.072
L257.352 178.401
L256.903 178.401
L255.557 178.237
L250.618 179.224
L249.721 179.224
L246.578 180.376
L245.68 180.376
L242.089 181.034
L241.64 181.363
L239.845 181.693
L236.253 182.845
L235.804 183.009
L235.355 183.503
L234.458 183.832
L233.56 183.832
L233.111 183.997
L231.315 184.326
L230.866 184.819
L230.417 184.984
L229.968 184.984
L229.071 185.807
L227.724 186.301
L225.928 186.301
L225.03 186.794
L224.133 186.794
L221.439 186.959
L220.99 187.453
L220.092 187.453
L214.705 187.617
L214.256 187.946
L213.808 187.782
L213.359 188.111
L212.91 188.111
L212.461 188.275
L212.012 188.605
L210.216 188.934
L207.972 188.934
L207.523 189.263
L206.625 189.263
L204.38 189.921
L202.136 190.909
L199.891 190.909
L198.096 191.238
L196.3 192.225
L195.851 192.225
L195.402 191.896
L193.606 193.213
L193.157 193.377
L192.709 193.706
L191.811 194.2
L190.913 194.2
L190.464 194.365
L190.015 194.858
L189.566 194.858
L189.117 195.187
L187.322 195.187
L186.873 196.01
L186.424 196.01
L185.975 196.339
L184.179 197.491
L181.037 198.479
L178.792 199.631
L175.65 200.289
L174.752 200.618
L172.956 200.618
L172.507 200.783
L171.161 201.441
L169.365 201.935
L168.916 202.264
L168.018 202.264
L167.12 202.593
L166.223 202.593
L163.529 202.758
L161.734 203.581
L161.285 203.581
L160.836 204.074
L160.387 204.074
L159.938 204.239
L159.489 204.239
L159.04 204.568
L156.795 205.391
L155.449 205.391
L155 205.555
L154.551 205.555
L154.102 205.72
L153.204 205.72
L152.755 205.885
L152.306 205.885
L151.857 206.049
L151.409 206.378
L150.96 206.378
L150.511 206.543
L150.062 206.543
L149.613 206.707
L148.715 206.707
L148.266 207.037
L147.817 207.201
L146.47 207.201
L145.573 207.53
L145.124 207.53
L144.675 207.859
L143.777 207.859
L143.328 208.024
L142.879 208.353
L142.43 208.353
L141.083 208.682
L140.635 209.011
L140.186 209.011
L139.737 206.049
L139.288 209.341
L138.839 209.67
L138.39 209.67
L137.941 209.834
L136.594 209.67
L136.145 209.834
L135.248 209.834
L134.35 210.163
L132.554 210.163
L132.105 211.48
L131.207 211.48
L130.758 211.809
L129.861 212.138
L128.514 213.126
L125.82 213.126
L124.923 213.455
L124.474 213.949
L123.576 211.974
L122.678 212.303
L122.229 212.797
L121.331 212.797
L120.882 212.961
L120.433 212.961
L119.536 213.455
L118.638 213.455
L117.74 213.784
L117.291 213.784
L116.842 214.113
L115.046 214.771
L114.598 215.101
L114.149 215.101
L112.802 215.265
L112.353 215.759
L111.904 215.923
L109.66 215.923
L108.313 216.417
L107.415 216.417
L106.966 216.582
L106.517 216.582
L103.824 216.911
L102.926 217.405
L102.028 218.227
L101.13 218.227
L100.681 218.721
L99.7834 218.886
L99.3345 219.215
L98.8856 219.215
L97.9877 219.544
L97.5388 219.873
L96.1921 220.038
L95.7432 220.531
L93.9475 220.531
L93.4986 220.861
L92.6008 220.861
L91.7029 221.19
L91.254 221.19
L90.8051 221.519
L90.3562 221.519
L89.9073 221.848
L84.9692 223.658
L84.5203 230.406
L84.0714 223.823
L83.6225 223.823
L83.1736 223.987
L81.3779 223.987
L80.929 224.152
L80.0312 224.152
L79.5823 224.481
L78.6844 224.481
L77.7866 224.646
L77.3377 225.139
L73.7464 225.139
L73.2975 225.304
L72.8486 225.633
L68.8083 225.798
L67.4616 225.798
L63.8703 226.621
L62.5235 226.621
L61.6257 226.95
L58.4833 227.443
L57.1366 227.443
L56.6877 227.608
L56.2387 227.608
L56.2387 227.608" style="fill:none;stroke:#008000;stroke-linecap:square;stroke-width:2;"/>
   </g>
   <g id="line2d_3">
    <path clip-path="url(#pd39b4832ff)" d="
M614.239 94.3052
L613.79 94.3052
L613.341 94.6343
L612.892 94.7989
L612.443 94.3052
L611.545 94.6343
L611.096 94.4697
L596.731 94.4697
L596.282 94.6343
L595.833 94.4697
L584.162 94.4697
L583.713 94.6343
L576.979 94.6343
L576.53 94.7989
L576.081 95.6217
L575.632 94.7989
L572.939 94.7989
L572.49 94.6343
L572.041 94.7989
L568.001 94.7989
L565.307 95.128
L564.858 94.9634
L563.063 94.9634
L562.614 95.128
L562.165 94.9634
L561.267 94.9634
L560.818 95.128
L554.533 95.128
L551.391 95.4572
L550.942 95.6217
L550.493 95.4572
L549.595 95.4572
L549.146 95.6217
L547.799 95.6217
L547.351 95.7863
L546.902 95.6217
L544.208 95.6217
L543.759 95.7863
L539.719 95.7863
L539.27 95.9509
L538.821 95.9509
L537.923 96.1154
L535.679 95.7863
L533.434 95.7863
L532.985 95.9509
L528.047 95.9509
L507.846 96.28
L506.05 96.6092
L504.704 96.6092
L504.255 96.7737
L502.01 96.4446
L501.561 96.6092
L498.868 96.6092
L497.072 97.2674
L496.174 97.2674
L495.725 98.0903
L493.481 97.2674
L491.236 97.2674
L488.094 97.5966
L486.747 97.5966
L485.849 97.7612
L481.809 97.7612
L480.911 98.584
L480.462 98.7486
L479.116 98.584
L478.667 98.9132
L474.178 99.2423
L473.28 99.5714
L471.035 99.5714
L470.137 99.9006
L469.24 99.9006
L468.342 100.23
L464.75 100.23
L464.302 100.394
L463.853 100.888
L462.506 101.382
L462.057 102.04
L461.159 102.04
L460.71 102.205
L460.261 102.205
L459.363 102.534
L458.915 103.027
L458.017 103.357
L457.568 103.357
L457.119 103.686
L456.221 103.686
L455.772 103.85
L455.323 103.85
L454.874 104.179
L453.976 104.509
L453.528 104.838
L452.63 104.838
L451.732 105.167
L450.834 105.167
L449.936 105.496
L449.487 105.99
L449.038 106.154
L448.59 106.483
L448.141 106.483
L447.692 106.648
L447.243 106.648
L446.794 106.813
L446.345 106.813
L444.998 107.306
L442.754 107.306
L442.305 107.635
L441.856 107.635
L441.407 107.965
L440.958 107.965
L440.509 108.294
L440.06 108.294
L439.611 108.129
L439.162 108.129
L438.264 108.787
L437.816 108.952
L436.918 109.775
L435.571 109.61
L435.122 109.939
L434.224 110.269
L433.775 110.269
L433.326 110.433
L432.878 110.433
L431.082 111.091
L430.184 111.256
L429.735 111.585
L429.286 111.585
L428.837 111.75
L428.388 111.585
L427.939 111.585
L427.042 111.914
L426.593 111.914
L425.695 112.243
L425.246 112.079
L424.797 112.079
L423.899 112.408
L423.45 112.408
L423.001 112.573
L422.553 112.573
L421.206 113.066
L420.757 113.725
L420.308 113.725
L419.859 113.889
L419.41 114.383
L418.063 114.712
L417.166 115.041
L416.268 115.041
L415.819 115.206
L415.37 115.206
L414.023 115.699
L413.574 115.535
L413.125 115.699
L412.676 115.699
L411.779 116.687
L411.33 116.687
L410.881 116.851
L410.432 116.687
L409.983 116.851
L409.534 117.181
L409.085 117.345
L401.902 121.13
L378.559 131.827
L371.376 137.094
L361.051 140.385
L358.358 142.031
L356.562 143.512
L347.135 146.639
L337.259 149.437
L335.014 149.93
L331.423 151.411
L328.281 152.234
L327.832 152.234
L323.791 152.893
L322.894 153.551
L321.098 153.715
L315.711 155.526
L310.324 159.146
L308.977 159.64
L307.182 160.463
L305.386 156.349
L303.141 157.83
L301.346 158.817
L294.163 161.944
L291.919 163.096
L288.327 164.083
L280.696 168.198
L276.655 169.021
L273.064 170.008
L265.433 172.477
L264.984 172.477
L264.535 172.641
L264.086 172.97
L263.637 173.629
L263.188 173.958
L262.29 173.958
L261.392 174.287
L258.699 174.616
L258.25 175.11
L257.801 175.11
L257.352 175.439
L255.557 175.439
L250.618 176.92
L249.721 176.92
L248.823 177.249
L248.374 177.578
L247.925 177.743
L246.578 178.401
L245.68 178.401
L242.089 178.895
L241.64 179.224
L239.845 179.553
L236.253 180.705
L235.804 180.87
L235.355 181.363
L234.458 181.693
L233.56 181.693
L233.111 182.022
L231.315 182.351
L230.866 182.68
L230.417 182.845
L229.968 182.845
L228.622 184.161
L227.724 184.49
L225.928 184.819
L225.03 185.313
L224.133 185.478
L221.439 185.642
L220.99 186.136
L220.092 186.136
L214.705 186.794
L214.256 187.123
L213.808 186.959
L213.359 187.288
L212.461 187.288
L212.012 187.617
L209.318 187.782
L208.421 188.111
L207.972 188.111
L207.523 188.44
L206.625 188.44
L204.38 189.921
L202.136 190.086
L199.891 190.086
L198.096 190.415
L196.3 191.402
L195.851 190.909
L195.402 190.909
L193.606 192.225
L193.157 192.39
L192.709 192.883
L191.811 193.377
L190.913 193.377
L190.464 193.542
L190.015 194.035
L189.566 194.035
L189.117 194.2
L187.771 194.365
L187.322 194.365
L186.873 195.352
L186.424 195.352
L185.975 195.681
L184.179 196.833
L181.037 197.985
L179.69 198.314
L178.792 198.973
L175.65 199.631
L174.752 199.96
L172.507 199.96
L171.61 200.618
L171.161 200.783
L169.814 200.947
L168.916 201.606
L168.018 201.606
L167.569 201.77
L167.12 202.099
L166.223 202.099
L163.529 202.264
L161.734 203.087
L161.285 203.087
L160.836 203.581
L160.387 203.581
L159.938 203.745
L159.489 203.745
L159.04 204.074
L156.795 205.062
L155.449 205.062
L154.551 205.391
L153.204 205.391
L152.755 205.555
L152.306 205.555
L151.857 205.72
L151.409 206.049
L150.96 206.049
L150.511 206.214
L150.062 206.214
L149.613 206.378
L148.715 206.378
L147.817 207.037
L146.47 207.037
L145.573 207.366
L145.124 207.366
L144.675 207.695
L143.777 207.695
L143.328 207.859
L142.879 208.189
L142.43 208.189
L141.083 208.518
L140.635 208.847
L139.737 208.847
L138.839 209.505
L138.39 209.505
L137.941 209.67
L136.594 209.505
L136.145 209.67
L135.248 209.67
L134.799 209.834
L134.35 209.834
L133.003 209.999
L132.554 209.999
L132.105 211.315
L131.207 211.315
L130.758 211.645
L129.861 211.974
L128.514 212.961
L125.82 212.961
L124.923 213.29
L124.474 213.784
L123.576 214.113
L123.127 214.113
L122.678 214.442
L122.229 214.936
L121.331 214.936
L120.882 215.101
L120.433 215.101
L119.536 215.594
L118.638 215.594
L117.74 215.923
L117.291 216.417
L117.291 216.417" style="fill:none;stroke:#0000ff;stroke-linecap:square;stroke-width:2;"/>
   </g>
   <g id="line2d_4">
    <path clip-path="url(#pd39b4832ff)" d="
M614.239 46.0857
L613.79 46.4149
L613.341 46.4149
L612.892 48.5543
L612.443 46.744
L611.545 47.0732
L611.096 47.0732
L610.199 47.2377
L609.75 46.744
L609.301 47.4023
L607.954 46.5794
L607.056 46.4149
L606.607 46.9086
L605.26 46.9086
L604.812 46.744
L604.363 46.9086
L603.914 46.744
L603.016 46.744
L602.567 46.9086
L602.118 47.2377
L600.771 47.2377
L600.322 47.0732
L599.425 47.4023
L598.976 47.4023
L598.527 47.2377
L597.629 47.5669
L596.731 47.4023
L596.282 47.5669
L595.833 47.4023
L595.384 47.5669
L593.589 47.896
L593.14 47.7314
L592.691 47.7314
L592.242 47.5669
L591.793 47.7314
L590.895 47.7314
L590.446 47.896
L589.548 47.7314
L588.651 48.2252
L588.202 48.2252
L587.753 48.3897
L587.304 48.7189
L586.855 48.8834
L586.406 48.5543
L585.059 49.048
L584.61 48.8834
L584.162 49.048
L583.713 49.5417
L583.264 49.7063
L582.815 49.5417
L581.917 49.7063
L581.468 50.3646
L581.019 50.2
L580.57 50.3646
L580.121 50.6937
L579.672 50.6937
L579.223 51.1874
L578.775 50.8583
L578.326 50.8583
L577.877 51.352
L577.428 51.1874
L576.979 51.1874
L576.081 52.6686
L575.632 52.3394
L575.183 52.3394
L574.734 52.6686
L573.836 52.9977
L572.939 53.656
L572.49 54.1497
L572.041 53.9852
L571.592 54.1497
L571.143 54.4789
L570.694 54.1497
L570.245 54.4789
L568.001 54.4789
L566.654 55.7954
L564.858 56.4537
L564.409 56.2892
L563.511 57.6057
L563.063 57.4412
L562.614 57.7703
L562.165 57.6057
L561.716 57.6057
L561.267 57.7703
L560.818 57.7703
L560.369 58.5932
L559.471 59.416
L558.573 59.7452
L558.125 59.7452
L557.676 60.0743
L557.227 60.568
L556.778 60.568
L555.88 60.8972
L555.431 60.8972
L554.982 61.3909
L554.533 61.3909
L551.391 63.2012
L550.942 63.6949
L550.493 63.5303
L550.044 63.5303
L549.595 63.6949
L548.697 64.5177
L548.248 64.3532
L547.799 64.6823
L547.351 65.5052
L546.902 65.5052
L546.004 65.8343
L545.106 65.8343
L544.657 66.1634
L544.208 66.1634
L543.759 66.4926
L543.31 66.9863
L542.861 66.6572
L542.413 66.6572
L541.964 66.9863
L541.515 67.9737
L541.066 68.1383
L540.617 67.9737
L540.168 68.1383
L539.719 67.9737
L539.27 68.4674
L538.821 68.632
L537.923 68.4674
L535.679 68.3029
L535.23 68.9612
L534.332 69.784
L533.883 70.6069
L533.434 70.7714
L532.985 71.1006
L532.088 71.2652
L531.639 71.5943
L528.047 71.9234
L511.437 78.3417
L509.193 78.3417
L508.744 79.1646
L507.846 79.1646
L506.05 79.8229
L504.704 79.8229
L504.255 80.4812
L502.01 80.8103
L501.561 81.7977
L500.664 82.1269
L500.215 83.1143
L498.868 83.1143
L498.419 83.2789
L497.072 84.4309
L496.174 84.4309
L495.725 85.4183
L493.481 84.4309
L493.032 84.4309
L492.583 84.5954
L492.134 84.5954
L491.685 84.4309
L491.236 84.5954
L489.89 85.2537
L488.543 85.4183
L488.094 85.4183
L487.196 85.5829
L486.747 85.4183
L485.849 85.7474
L484.952 86.4057
L484.503 87.2286
L483.605 86.8994
L482.707 87.2286
L482.258 87.8869
L481.809 88.0514
L481.36 88.5452
L480.911 89.368
L480.462 89.6972
L479.116 89.8617
L478.667 91.1783
L473.28 93.1532
L472.831 93.1532
L471.933 93.8114
L471.035 93.8114
L470.137 94.9634
L469.24 94.9634
L468.791 95.128
L468.342 95.4572
L467.444 95.7863
L466.995 96.4446
L466.546 96.4446
L466.097 96.6092
L465.648 96.9383
L464.75 97.2674
L463.853 98.4194
L463.404 98.4194
L462.955 98.7486
L462.506 98.9132
L462.057 96.7737
L461.159 96.6092
L460.71 96.7737
L459.812 97.432
L459.363 97.5966
L458.915 99.4069
L458.466 100.065
L457.119 100.559
L456.67 101.053
L456.221 100.888
L455.772 100.888
L455.323 99.736
L454.874 100.065
L454.425 100.723
L453.976 100.723
L453.528 101.217
L453.079 101.382
L452.63 101.217
L450.834 101.875
L449.936 102.369
L449.487 103.027
L449.038 103.027
L448.59 103.357
L448.141 103.357
L446.794 103.85
L446.345 103.85
L445.447 104.673
L444.998 104.673
L444.549 104.838
L444.1 104.673
L442.754 104.673
L442.305 105.002
L441.856 106.154
L441.407 105.331
L440.958 105.496
L440.509 105.825
L439.611 106.154
L439.162 106.154
L438.264 107.471
L437.816 107.471
L436.918 108.294
L435.571 108.129
L435.122 108.458
L434.673 108.952
L434.224 109.117
L433.775 109.117
L433.326 109.281
L432.878 109.281
L432.429 109.446
L431.98 109.775
L431.531 109.775
L431.082 109.939
L430.184 110.104
L429.735 110.598
L428.837 110.598
L428.388 110.433
L427.491 110.762
L426.593 110.762
L426.144 110.927
L425.695 110.927
L425.246 111.091
L424.797 111.091
L423.001 111.75
L422.553 111.75
L421.655 112.408
L421.206 112.408
L420.757 113.066
L420.308 113.066
L419.859 113.231
L419.41 113.56
L417.166 114.383
L416.268 114.383
L415.819 114.547
L415.37 114.547
L414.472 114.877
L414.023 114.877
L413.574 115.041
L413.125 114.877
L412.676 115.041
L411.779 116.029
L410.432 116.029
L409.983 116.193
L409.534 116.522
L409.085 116.687
L378.559 131.992
L371.376 137.094
L361.051 140.55
L358.358 142.031
L356.562 143.512
L347.135 146.803
L331.872 150.918
L331.423 151.247
L328.281 152.07
L327.832 152.07
L327.832 152.07" style="fill:none;stroke:#000000;stroke-linecap:square;stroke-width:2;"/>
   </g>
   <g id="line2d_5">
    <path clip-path="url(#pd39b4832ff)" d="
M614.239 38.1863
L613.79 38.3509
L613.341 38.5154
L612.892 41.4777
L612.443 39.1737
L611.994 40.984
L611.545 40.8194
L611.096 40.8194
L610.199 41.3132
L609.75 41.8069
L609.301 41.9714
L606.158 42.7943
L604.363 44.44
L603.914 45.0983
L601.669 45.592
L601.22 45.9212
L600.771 46.0857
L600.322 45.9212
L599.874 46.2503
L599.425 46.2503
L598.527 46.5794
L598.078 46.9086
L597.629 47.0732
L596.731 47.2377
L596.282 47.5669
L595.833 47.2377
L595.384 47.5669
L594.487 48.3897
L594.038 48.2252
L593.589 48.5543
L593.14 48.3897
L592.242 48.3897
L591.793 48.7189
L590.446 48.8834
L589.548 48.8834
L588.651 50.0354
L588.202 50.0354
L587.753 50.3646
L585.957 51.0229
L585.059 51.8457
L584.61 45.2629
L584.162 45.4274
L583.713 46.0857
L582.815 46.4149
L581.917 46.5794
L581.019 47.4023
L580.57 47.5669
L580.121 48.7189
L579.672 48.8834
L579.223 49.5417
L578.775 52.0103
L578.326 49.7063
L577.877 50.2
L577.428 50.0354
L576.979 50.2
L576.53 51.0229
L576.081 51.352
L575.183 51.352
L574.734 52.0103
L574.285 52.0103
L573.836 52.3394
L572.939 53.1623
L571.592 54.1497
L571.143 53.9852
L570.245 54.3143
L569.796 54.3143
L569.347 54.4789
L568.898 54.4789
L568.001 54.808
L566.654 55.96
L565.307 56.9474
L564.858 57.112
L564.409 57.112
L563.96 57.9349
L563.511 58.0994
L563.063 58.4286
L562.614 58.264
L561.716 58.5932
L561.267 58.4286
L560.818 58.5932
L560.369 59.416
L559.92 59.7452
L559.471 59.9097
L558.573 60.568
L558.125 60.4034
L557.676 61.0617
L557.227 60.8972
L556.778 61.0617
L555.88 61.72
L554.982 61.72
L554.533 62.2137
L551.391 64.024
L550.942 64.024
L550.493 64.5177
L549.595 64.1886
L549.146 64.8469
L548.697 64.8469
L548.248 65.0114
L546.453 66.9863
L546.004 66.4926
L545.106 66.4926
L544.657 66.8217
L544.208 66.8217
L543.759 67.3154
L543.31 67.48
L542.861 67.48
L541.964 67.8092
L541.515 69.2903
L541.066 68.7966
L540.168 69.1257
L539.719 68.4674
L539.27 68.7966
L537.923 69.2903
L536.128 68.9612
L535.679 69.1257
L535.23 69.6194
L534.332 70.2777
L533.883 71.5943
L533.434 71.5943
L532.985 71.9234
L528.047 72.7463
L511.437 79.1646
L509.193 79.1646
L508.744 79.9874
L504.704 80.6457
L504.255 81.304
L502.01 81.304
L501.561 82.456
L500.664 82.7852
L500.215 83.7726
L498.868 83.7726
L498.419 84.1017
L497.072 84.9246
L496.623 84.9246
L496.174 85.0892
L495.725 85.7474
L493.481 85.0892
L493.032 85.2537
L492.583 85.0892
L491.236 85.0892
L489.89 85.912
L488.543 86.0766
L486.747 86.0766
L485.849 86.4057
L484.952 87.064
L484.503 87.5577
L483.605 87.5577
L482.707 87.8869
L482.258 88.3806
L481.809 88.3806
L480.462 90.3554
L479.116 90.3554
L478.667 91.8366
L474.178 93.8114
L472.831 93.976
L471.933 94.6343
L471.035 94.6343
L470.137 95.7863
L468.791 95.7863
L468.342 96.28
L467.444 96.6092
L466.995 97.2674
L464.75 98.0903
L463.853 99.0777
L463.853 99.0777" style="fill:none;stroke:#bfbf00;stroke-linecap:square;stroke-width:2;"/>
   </g>
   <g id="line2d_6">
    <path clip-path="url(#pd39b4832ff)" d="
M120.433 243.407
L120.433 13.0069" style="fill:none;stroke:#333333;stroke-linecap:square;"/>
   </g>
   <g id="line2d_7">
    <path clip-path="url(#pd39b4832ff)" d="
M134.799 243.407
L134.799 13.0069" style="fill:none;stroke:#cccccc;stroke-linecap:square;"/>
   </g>
   <g id="line2d_8">
    <path clip-path="url(#pd39b4832ff)" d="
M148.266 243.407
L148.266 13.0069" style="fill:none;stroke:#cccccc;stroke-linecap:square;"/>
   </g>
   <g id="line2d_9">
    <path clip-path="url(#pd39b4832ff)" d="
M163.08 243.407
L163.08 13.0069" style="fill:none;stroke:#cccccc;stroke-linecap:square;"/>
   </g>
   <g id="line2d_10">
    <path clip-path="url(#pd39b4832ff)" d="
M177.894 243.407
L177.894 13.0069" style="fill:none;stroke:#cccccc;stroke-linecap:square;"/>
   </g>
   <g id="line2d_11">
    <path clip-path="url(#pd39b4832ff)" d="
M183.73 243.407
L183.73 13.0069" style="fill:none;stroke:#cccccc;stroke-linecap:square;"/>
   </g>
   <g id="line2d_12">
    <path clip-path="url(#pd39b4832ff)" d="
M201.687 243.407
L201.687 13.0069" style="fill:none;stroke:#cccccc;stroke-linecap:square;"/>
   </g>
   <g id="line2d_13">
    <path clip-path="url(#pd39b4832ff)" d="
M216.95 243.407
L216.95 13.0069" style="fill:none;stroke:#cccccc;stroke-linecap:square;"/>
   </g>
   <g id="line2d_14">
    <path clip-path="url(#pd39b4832ff)" d="
M234.009 243.407
L234.009 13.0069" style="fill:none;stroke:#cccccc;stroke-linecap:square;"/>
   </g>
   <g id="line2d_15">
    <path clip-path="url(#pd39b4832ff)" d="
M247.476 243.407
L247.476 13.0069" style="fill:none;stroke:#cccccc;stroke-linecap:square;"/>
   </g>
   <g id="line2d_16">
    <path clip-path="url(#pd39b4832ff)" d="
M258.699 243.407
L258.699 13.0069" style="fill:none;stroke:#cccccc;stroke-linecap:square;"/>
   </g>
   <g id="line2d_17">
    <path clip-path="url(#pd39b4832ff)" d="
M273.513 243.407
L273.513 13.0069" style="fill:none;stroke:#cccccc;stroke-linecap:square;"/>
   </g>
   <g id="line2d_18">
    <path clip-path="url(#pd39b4832ff)" d="
M314.364 243.407
L314.364 13.0069" style="fill:none;stroke:#cccccc;stroke-linecap:square;"/>
   </g>
   <g id="line2d_19">
    <path clip-path="url(#pd39b4832ff)" d="
M306.284 243.407
L306.284 13.0069" style="fill:none;stroke:#333333;stroke-linecap:square;"/>
   </g>
   <g id="line2d_20">
    <path clip-path="url(#pd39b4832ff)" d="
M320.2 243.407
L320.2 13.0069" style="fill:none;stroke:#cccccc;stroke-linecap:square;"/>
   </g>
   <g id="line2d_21">
    <path clip-path="url(#pd39b4832ff)" d="
M332.77 243.407
L332.77 13.0069" style="fill:none;stroke:#cccccc;stroke-linecap:square;"/>
   </g>
   <g id="line2d_22">
    <path clip-path="url(#pd39b4832ff)" d="
M349.38 243.407
L349.38 13.0069" style="fill:none;stroke:#cccccc;stroke-linecap:square;"/>
   </g>
   <g id="line2d_23">
    <path clip-path="url(#pd39b4832ff)" d="
M378.559 243.407
L378.559 13.0069" style="fill:none;stroke:#cccccc;stroke-linecap:square;"/>
   </g>
   <g id="line2d_24">
    <path clip-path="url(#pd39b4832ff)" d="
M420.757 243.407
L420.757 13.0069" style="fill:none;stroke:#cccccc;stroke-linecap:square;"/>
   </g>
   <g id="line2d_25">
    <path clip-path="url(#pd39b4832ff)" d="
M461.608 243.407
L461.608 13.0069" style="fill:none;stroke:#cccccc;stroke-linecap:square;"/>
   </g>
   <g id="line2d_26">
    <path clip-path="url(#pd39b4832ff)" d="
M462.057 243.407
L462.057 13.0069" style="fill:none;stroke:#333333;stroke-linecap:square;"/>
   </g>
   <g id="line2d_27">
    <path clip-path="url(#pd39b4832ff)" d="
M537.026 243.407
L537.026 13.0069" style="fill:none;stroke:#cccccc;stroke-linecap:square;"/>
   </g>
   <g id="line2d_28">
    <path clip-path="url(#pd39b4832ff)" d="
M564.858 243.407
L564.858 13.0069" style="fill:none;stroke:#cccccc;stroke-linecap:square;"/>
   </g>
   <g id="line2d_29">
    <path clip-path="url(#pd39b4832ff)" d="
M584.61 243.407
L584.61 13.0069" style="fill:none;stroke:#333333;stroke-linecap:square;"/>
   </g>
   <g id="matplotlib.axis_1">
    <g id="xtick_1">
     <g id="line2d_30">
      <defs>
       <path d="
M0 0
L0 -4" id="m93b0483c22" style="stroke:#000000;stroke-width:0.5;"/>
      </defs>
      <g>
       <use style="stroke:#000000;stroke-width:0.5;" x="97.9877443684" xlink:href="#m93b0483c22" y="243.406875"/>
      </g>
     </g>
     <g id="line2d_31">
      <defs>
       <path d="
M0 0
L0 4" id="m741efc42ff" style="stroke:#000000;stroke-width:0.5;"/>
      </defs>
      <g>
       <use style="stroke:#000000;stroke-width:0.5;" x="97.9877443684" xlink:href="#m741efc42ff" y="13.006875"/>
      </g>
     </g>
     <g id="text_1">
      <!-- Jul 2014 -->
      <defs>
       <path d="
M9.8125 72.9062
L19.6719 72.9062
L19.6719 5.07812
Q19.6719 -8.10938 14.6719 -14.0625
Q9.67188 -20.0156 -1.42188 -20.0156
L-5.17188 -20.0156
L-5.17188 -11.7188
L-2.09375 -11.7188
Q4.4375 -11.7188 7.125 -8.04688
Q9.8125 -4.39062 9.8125 5.07812
z
" id="DejaVuSans-4a"/>
       <path d="
M9.42188 75.9844
L18.4062 75.9844
L18.4062 0
L9.42188 0
z
" id="DejaVuSans-6c"/>
       <path d="
M12.4062 8.29688
L28.5156 8.29688
L28.5156 63.9219
L10.9844 60.4062
L10.9844 69.3906
L28.4219 72.9062
L38.2812 72.9062
L38.2812 8.29688
L54.3906 8.29688
L54.3906 0
L12.4062 0
z
" id="DejaVuSans-31"/>
       <path d="
M31.7812 66.4062
Q24.1719 66.4062 20.3281 58.9062
Q16.5 51.4219 16.5 36.375
Q16.5 21.3906 20.3281 13.8906
Q24.1719 6.39062 31.7812 6.39062
Q39.4531 6.39062 43.2812 13.8906
Q47.125 21.3906 47.125 36.375
Q47.125 51.4219 43.2812 58.9062
Q39.4531 66.4062 31.7812 66.4062
M31.7812 74.2188
Q44.0469 74.2188 50.5156 64.5156
Q56.9844 54.8281 56.9844 36.375
Q56.9844 17.9688 50.5156 8.26562
Q44.0469 -1.42188 31.7812 -1.42188
Q19.5312 -1.42188 13.0625 8.26562
Q6.59375 17.9688 6.59375 36.375
Q6.59375 54.8281 13.0625 64.5156
Q19.5312 74.2188 31.7812 74.2188" id="DejaVuSans-30"/>
       <path id="DejaVuSans-20"/>
       <path d="
M19.1875 8.29688
L53.6094 8.29688
L53.6094 0
L7.32812 0
L7.32812 8.29688
Q12.9375 14.1094 22.625 23.8906
Q32.3281 33.6875 34.8125 36.5312
Q39.5469 41.8438 41.4219 45.5312
Q43.3125 49.2188 43.3125 52.7812
Q43.3125 58.5938 39.2344 62.25
Q35.1562 65.9219 28.6094 65.9219
Q23.9688 65.9219 18.8125 64.3125
Q13.6719 62.7031 7.8125 59.4219
L7.8125 69.3906
Q13.7656 71.7812 18.9375 73
Q24.125 74.2188 28.4219 74.2188
Q39.75 74.2188 46.4844 68.5469
Q53.2188 62.8906 53.2188 53.4219
Q53.2188 48.9219 51.5312 44.8906
Q49.8594 40.875 45.4062 35.4062
Q44.1875 33.9844 37.6406 27.2188
Q31.1094 20.4531 19.1875 8.29688" id="DejaVuSans-32"/>
       <path d="
M37.7969 64.3125
L12.8906 25.3906
L37.7969 25.3906
z

M35.2031 72.9062
L47.6094 72.9062
L47.6094 25.3906
L58.0156 25.3906
L58.0156 17.1875
L47.6094 17.1875
L47.6094 0
L37.7969 0
L37.7969 17.1875
L4.89062 17.1875
L4.89062 26.7031
z
" id="DejaVuSans-34"/>
       <path d="
M8.5 21.5781
L8.5 54.6875
L17.4844 54.6875
L17.4844 21.9219
Q17.4844 14.1562 20.5 10.2656
Q23.5312 6.39062 29.5938 6.39062
Q36.8594 6.39062 41.0781 11.0312
Q45.3125 15.6719 45.3125 23.6875
L45.3125 54.6875
L54.2969 54.6875
L54.2969 0
L45.3125 0
L45.3125 8.40625
Q42.0469 3.42188 37.7188 1
Q33.4062 -1.42188 27.6875 -1.42188
Q18.2656 -1.42188 13.375 4.4375
Q8.5 10.2969 8.5 21.5781
M31.1094 56
z
" id="DejaVuSans-75"/>
      </defs>
      <g transform="translate(101.298994368 296.186875)rotate(-90.0)scale(0.12 -0.12)">
       <use xlink:href="#DejaVuSans-4a"/>
       <use x="29.4921875" xlink:href="#DejaVuSans-75"/>
       <use x="92.87109375" xlink:href="#DejaVuSans-6c"/>
       <use x="120.654296875" xlink:href="#DejaVuSans-20"/>
       <use x="152.44140625" xlink:href="#DejaVuSans-32"/>
       <use x="216.064453125" xlink:href="#DejaVuSans-30"/>
       <use x="279.6875" xlink:href="#DejaVuSans-31"/>
       <use x="343.310546875" xlink:href="#DejaVuSans-34"/>
      </g>
     </g>
    </g>
    <g id="xtick_2">
     <g id="line2d_32">
      <g>
       <use style="stroke:#000000;stroke-width:0.5;" x="153.204156275" xlink:href="#m93b0483c22" y="243.406875"/>
      </g>
     </g>
     <g id="line2d_33">
      <g>
       <use style="stroke:#000000;stroke-width:0.5;" x="153.204156275" xlink:href="#m741efc42ff" y="13.006875"/>
      </g>
     </g>
     <g id="text_2">
      <!-- Nov 2014 -->
      <defs>
       <path d="
M30.6094 48.3906
Q23.3906 48.3906 19.1875 42.75
Q14.9844 37.1094 14.9844 27.2969
Q14.9844 17.4844 19.1562 11.8438
Q23.3438 6.20312 30.6094 6.20312
Q37.7969 6.20312 41.9844 11.8594
Q46.1875 17.5312 46.1875 27.2969
Q46.1875 37.0156 41.9844 42.7031
Q37.7969 48.3906 30.6094 48.3906
M30.6094 56
Q42.3281 56 49.0156 48.375
Q55.7188 40.7656 55.7188 27.2969
Q55.7188 13.875 49.0156 6.21875
Q42.3281 -1.42188 30.6094 -1.42188
Q18.8438 -1.42188 12.1719 6.21875
Q5.51562 13.875 5.51562 27.2969
Q5.51562 40.7656 12.1719 48.375
Q18.8438 56 30.6094 56" id="DejaVuSans-6f"/>
       <path d="
M9.8125 72.9062
L23.0938 72.9062
L55.4219 11.9219
L55.4219 72.9062
L64.9844 72.9062
L64.9844 0
L51.7031 0
L19.3906 60.9844
L19.3906 0
L9.8125 0
z
" id="DejaVuSans-4e"/>
       <path d="
M2.98438 54.6875
L12.5 54.6875
L29.5938 8.79688
L46.6875 54.6875
L56.2031 54.6875
L35.6875 0
L23.4844 0
z
" id="DejaVuSans-76"/>
      </defs>
      <g transform="translate(156.515406275 304.51)rotate(-90.0)scale(0.12 -0.12)">
       <use xlink:href="#DejaVuSans-4e"/>
       <use x="74.8046875" xlink:href="#DejaVuSans-6f"/>
       <use x="135.986328125" xlink:href="#DejaVuSans-76"/>
       <use x="195.166015625" xlink:href="#DejaVuSans-20"/>
       <use x="226.953125" xlink:href="#DejaVuSans-32"/>
       <use x="290.576171875" xlink:href="#DejaVuSans-30"/>
       <use x="354.19921875" xlink:href="#DejaVuSans-31"/>
       <use x="417.822265625" xlink:href="#DejaVuSans-34"/>
      </g>
     </g>
    </g>
    <g id="xtick_3">
     <g id="line2d_34">
      <g>
       <use style="stroke:#000000;stroke-width:0.5;" x="207.073826428" xlink:href="#m93b0483c22" y="243.406875"/>
      </g>
     </g>
     <g id="line2d_35">
      <g>
       <use style="stroke:#000000;stroke-width:0.5;" x="207.073826428" xlink:href="#m741efc42ff" y="13.006875"/>
      </g>
     </g>
     <g id="text_3">
      <!-- Mar 2015 -->
      <defs>
       <path d="
M9.8125 72.9062
L24.5156 72.9062
L43.1094 23.2969
L61.8125 72.9062
L76.5156 72.9062
L76.5156 0
L66.8906 0
L66.8906 64.0156
L48.0938 14.0156
L38.1875 14.0156
L19.3906 64.0156
L19.3906 0
L9.8125 0
z
" id="DejaVuSans-4d"/>
       <path d="
M41.1094 46.2969
Q39.5938 47.1719 37.8125 47.5781
Q36.0312 48 33.8906 48
Q26.2656 48 22.1875 43.0469
Q18.1094 38.0938 18.1094 28.8125
L18.1094 0
L9.07812 0
L9.07812 54.6875
L18.1094 54.6875
L18.1094 46.1875
Q20.9531 51.1719 25.4844 53.5781
Q30.0312 56 36.5312 56
Q37.4531 56 38.5781 55.875
Q39.7031 55.7656 41.0625 55.5156
z
" id="DejaVuSans-72"/>
       <path d="
M10.7969 72.9062
L49.5156 72.9062
L49.5156 64.5938
L19.8281 64.5938
L19.8281 46.7344
Q21.9688 47.4688 24.1094 47.8281
Q26.2656 48.1875 28.4219 48.1875
Q40.625 48.1875 47.75 41.5
Q54.8906 34.8125 54.8906 23.3906
Q54.8906 11.625 47.5625 5.09375
Q40.2344 -1.42188 26.9062 -1.42188
Q22.3125 -1.42188 17.5469 -0.640625
Q12.7969 0.140625 7.71875 1.70312
L7.71875 11.625
Q12.1094 9.23438 16.7969 8.0625
Q21.4844 6.89062 26.7031 6.89062
Q35.1562 6.89062 40.0781 11.3281
Q45.0156 15.7656 45.0156 23.3906
Q45.0156 31 40.0781 35.4375
Q35.1562 39.8906 26.7031 39.8906
Q22.75 39.8906 18.8125 39.0156
Q14.8906 38.1406 10.7969 36.2812
z
" id="DejaVuSans-35"/>
       <path d="
M34.2812 27.4844
Q23.3906 27.4844 19.1875 25
Q14.9844 22.5156 14.9844 16.5
Q14.9844 11.7188 18.1406 8.90625
Q21.2969 6.10938 26.7031 6.10938
Q34.1875 6.10938 38.7031 11.4062
Q43.2188 16.7031 43.2188 25.4844
L43.2188 27.4844
z

M52.2031 31.2031
L52.2031 0
L43.2188 0
L43.2188 8.29688
Q40.1406 3.32812 35.5469 0.953125
Q30.9531 -1.42188 24.3125 -1.42188
Q15.9219 -1.42188 10.9531 3.29688
Q6 8.01562 6 15.9219
Q6 25.1406 12.1719 29.8281
Q18.3594 34.5156 30.6094 34.5156
L43.2188 34.5156
L43.2188 35.4062
Q43.2188 41.6094 39.1406 45
Q35.0625 48.3906 27.6875 48.3906
Q23 48.3906 18.5469 47.2656
Q14.1094 46.1406 10.0156 43.8906
L10.0156 52.2031
Q14.9375 54.1094 19.5781 55.0469
Q24.2188 56 28.6094 56
Q40.4844 56 46.3438 49.8438
Q52.2031 43.7031 52.2031 31.2031" id="DejaVuSans-61"/>
      </defs>
      <g transform="translate(210.385076428 303.353125)rotate(-90.0)scale(0.12 -0.12)">
       <use xlink:href="#DejaVuSans-4d"/>
       <use x="86.279296875" xlink:href="#DejaVuSans-61"/>
       <use x="147.55859375" xlink:href="#DejaVuSans-72"/>
       <use x="188.671875" xlink:href="#DejaVuSans-20"/>
       <use x="220.458984375" xlink:href="#DejaVuSans-32"/>
       <use x="284.08203125" xlink:href="#DejaVuSans-30"/>
       <use x="347.705078125" xlink:href="#DejaVuSans-31"/>
       <use x="411.328125" xlink:href="#DejaVuSans-35"/>
      </g>
     </g>
    </g>
    <g id="xtick_4">
     <g id="line2d_36">
      <g>
       <use style="stroke:#000000;stroke-width:0.5;" x="261.841324417" xlink:href="#m93b0483c22" y="243.406875"/>
      </g>
     </g>
     <g id="line2d_37">
      <g>
       <use style="stroke:#000000;stroke-width:0.5;" x="261.841324417" xlink:href="#m741efc42ff" y="13.006875"/>
      </g>
     </g>
     <g id="text_4">
      <!-- Jul 2015 -->
      <g transform="translate(265.152574417 295.811875)rotate(-90.0)scale(0.12 -0.12)">
       <use xlink:href="#DejaVuSans-4a"/>
       <use x="29.4921875" xlink:href="#DejaVuSans-75"/>
       <use x="92.87109375" xlink:href="#DejaVuSans-6c"/>
       <use x="120.654296875" xlink:href="#DejaVuSans-20"/>
       <use x="152.44140625" xlink:href="#DejaVuSans-32"/>
       <use x="216.064453125" xlink:href="#DejaVuSans-30"/>
       <use x="279.6875" xlink:href="#DejaVuSans-31"/>
       <use x="343.310546875" xlink:href="#DejaVuSans-35"/>
      </g>
     </g>
    </g>
    <g id="xtick_5">
     <g id="line2d_38">
      <g>
       <use style="stroke:#000000;stroke-width:0.5;" x="317.057736323" xlink:href="#m93b0483c22" y="243.406875"/>
      </g>
     </g>
     <g id="line2d_39">
      <g>
       <use style="stroke:#000000;stroke-width:0.5;" x="317.057736323" xlink:href="#m741efc42ff" y="13.006875"/>
      </g>
     </g>
     <g id="text_5">
      <!-- Nov 2015 -->
      <g transform="translate(320.368986323 304.135)rotate(-90.0)scale(0.12 -0.12)">
       <use xlink:href="#DejaVuSans-4e"/>
       <use x="74.8046875" xlink:href="#DejaVuSans-6f"/>
       <use x="135.986328125" xlink:href="#DejaVuSans-76"/>
       <use x="195.166015625" xlink:href="#DejaVuSans-20"/>
       <use x="226.953125" xlink:href="#DejaVuSans-32"/>
       <use x="290.576171875" xlink:href="#DejaVuSans-30"/>
       <use x="354.19921875" xlink:href="#DejaVuSans-31"/>
       <use x="417.822265625" xlink:href="#DejaVuSans-35"/>
      </g>
     </g>
    </g>
    <g id="xtick_6">
     <g id="line2d_40">
      <g>
       <use style="stroke:#000000;stroke-width:0.5;" x="371.376320394" xlink:href="#m93b0483c22" y="243.406875"/>
      </g>
     </g>
     <g id="line2d_41">
      <g>
       <use style="stroke:#000000;stroke-width:0.5;" x="371.376320394" xlink:href="#m741efc42ff" y="13.006875"/>
      </g>
     </g>
     <g id="text_6">
      <!-- Mar 2016 -->
      <defs>
       <path d="
M33.0156 40.375
Q26.375 40.375 22.4844 35.8281
Q18.6094 31.2969 18.6094 23.3906
Q18.6094 15.5312 22.4844 10.9531
Q26.375 6.39062 33.0156 6.39062
Q39.6562 6.39062 43.5312 10.9531
Q47.4062 15.5312 47.4062 23.3906
Q47.4062 31.2969 43.5312 35.8281
Q39.6562 40.375 33.0156 40.375
M52.5938 71.2969
L52.5938 62.3125
Q48.875 64.0625 45.0938 64.9844
Q41.3125 65.9219 37.5938 65.9219
Q27.8281 65.9219 22.6719 59.3281
Q17.5312 52.7344 16.7969 39.4062
Q19.6719 43.6562 24.0156 45.9219
Q28.375 48.1875 33.5938 48.1875
Q44.5781 48.1875 50.9531 41.5156
Q57.3281 34.8594 57.3281 23.3906
Q57.3281 12.1562 50.6875 5.35938
Q44.0469 -1.42188 33.0156 -1.42188
Q20.3594 -1.42188 13.6719 8.26562
Q6.98438 17.9688 6.98438 36.375
Q6.98438 53.6562 15.1875 63.9375
Q23.3906 74.2188 37.2031 74.2188
Q40.9219 74.2188 44.7031 73.4844
Q48.4844 72.75 52.5938 71.2969" id="DejaVuSans-36"/>
      </defs>
      <g transform="translate(374.687570394 303.645625)rotate(-90.0)scale(0.12 -0.12)">
       <use xlink:href="#DejaVuSans-4d"/>
       <use x="86.279296875" xlink:href="#DejaVuSans-61"/>
       <use x="147.55859375" xlink:href="#DejaVuSans-72"/>
       <use x="188.671875" xlink:href="#DejaVuSans-20"/>
       <use x="220.458984375" xlink:href="#DejaVuSans-32"/>
       <use x="284.08203125" xlink:href="#DejaVuSans-30"/>
       <use x="347.705078125" xlink:href="#DejaVuSans-31"/>
       <use x="411.328125" xlink:href="#DejaVuSans-36"/>
      </g>
     </g>
    </g>
    <g id="xtick_7">
     <g id="line2d_42">
      <g>
       <use style="stroke:#000000;stroke-width:0.5;" x="426.143818383" xlink:href="#m93b0483c22" y="243.406875"/>
      </g>
     </g>
     <g id="line2d_43">
      <g>
       <use style="stroke:#000000;stroke-width:0.5;" x="426.143818383" xlink:href="#m741efc42ff" y="13.006875"/>
      </g>
     </g>
     <g id="text_7">
      <!-- Jul 2016 -->
      <g transform="translate(429.455068383 296.104375)rotate(-90.0)scale(0.12 -0.12)">
       <use xlink:href="#DejaVuSans-4a"/>
       <use x="29.4921875" xlink:href="#DejaVuSans-75"/>
       <use x="92.87109375" xlink:href="#DejaVuSans-6c"/>
       <use x="120.654296875" xlink:href="#DejaVuSans-20"/>
       <use x="152.44140625" xlink:href="#DejaVuSans-32"/>
       <use x="216.064453125" xlink:href="#DejaVuSans-30"/>
       <use x="279.6875" xlink:href="#DejaVuSans-31"/>
       <use x="343.310546875" xlink:href="#DejaVuSans-36"/>
      </g>
     </g>
    </g>
    <g id="xtick_8">
     <g id="line2d_44">
      <g>
       <use style="stroke:#000000;stroke-width:0.5;" x="481.36023029" xlink:href="#m93b0483c22" y="243.406875"/>
      </g>
     </g>
     <g id="line2d_45">
      <g>
       <use style="stroke:#000000;stroke-width:0.5;" x="481.36023029" xlink:href="#m741efc42ff" y="13.006875"/>
      </g>
     </g>
     <g id="text_8">
      <!-- Nov 2016 -->
      <g transform="translate(484.67148029 304.4275)rotate(-90.0)scale(0.12 -0.12)">
       <use xlink:href="#DejaVuSans-4e"/>
       <use x="74.8046875" xlink:href="#DejaVuSans-6f"/>
       <use x="135.986328125" xlink:href="#DejaVuSans-76"/>
       <use x="195.166015625" xlink:href="#DejaVuSans-20"/>
       <use x="226.953125" xlink:href="#DejaVuSans-32"/>
       <use x="290.576171875" xlink:href="#DejaVuSans-30"/>
       <use x="354.19921875" xlink:href="#DejaVuSans-31"/>
       <use x="417.822265625" xlink:href="#DejaVuSans-36"/>
      </g>
     </g>
    </g>
    <g id="xtick_9">
     <g id="line2d_46">
      <g>
       <use style="stroke:#000000;stroke-width:0.5;" x="535.229900442" xlink:href="#m93b0483c22" y="243.406875"/>
      </g>
     </g>
     <g id="line2d_47">
      <g>
       <use style="stroke:#000000;stroke-width:0.5;" x="535.229900442" xlink:href="#m741efc42ff" y="13.006875"/>
      </g>
     </g>
     <g id="text_9">
      <!-- Mar 2017 -->
      <defs>
       <path d="
M8.20312 72.9062
L55.0781 72.9062
L55.0781 68.7031
L28.6094 0
L18.3125 0
L43.2188 64.5938
L8.20312 64.5938
z
" id="DejaVuSans-37"/>
      </defs>
      <g transform="translate(538.541150442 303.375625)rotate(-90.0)scale(0.12 -0.12)">
       <use xlink:href="#DejaVuSans-4d"/>
       <use x="86.279296875" xlink:href="#DejaVuSans-61"/>
       <use x="147.55859375" xlink:href="#DejaVuSans-72"/>
       <use x="188.671875" xlink:href="#DejaVuSans-20"/>
       <use x="220.458984375" xlink:href="#DejaVuSans-32"/>
       <use x="284.08203125" xlink:href="#DejaVuSans-30"/>
       <use x="347.705078125" xlink:href="#DejaVuSans-31"/>
       <use x="411.328125" xlink:href="#DejaVuSans-37"/>
      </g>
     </g>
    </g>
    <g id="xtick_10">
     <g id="line2d_48">
      <g>
       <use style="stroke:#000000;stroke-width:0.5;" x="589.997398431" xlink:href="#m93b0483c22" y="243.406875"/>
      </g>
     </g>
     <g id="line2d_49">
      <g>
       <use style="stroke:#000000;stroke-width:0.5;" x="589.997398431" xlink:href="#m741efc42ff" y="13.006875"/>
      </g>
     </g>
     <g id="text_10">
      <!-- Jul 2017 -->
      <g transform="translate(593.308648431 295.834375)rotate(-90.0)scale(0.12 -0.12)">
       <use xlink:href="#DejaVuSans-4a"/>
       <use x="29.4921875" xlink:href="#DejaVuSans-75"/>
       <use x="92.87109375" xlink:href="#DejaVuSans-6c"/>
       <use x="120.654296875" xlink:href="#DejaVuSans-20"/>
       <use x="152.44140625" xlink:href="#DejaVuSans-32"/>
       <use x="216.064453125" xlink:href="#DejaVuSans-30"/>
       <use x="279.6875" xlink:href="#DejaVuSans-31"/>
       <use x="343.310546875" xlink:href="#DejaVuSans-37"/>
      </g>
     </g>
    </g>
   </g>
   <g id="matplotlib.axis_2">
    <g id="ytick_1">
     <g id="line2d_50">
      <defs>
       <path d="
M0 0
L4 0" id="m728421d6d4" style="stroke:#000000;stroke-width:0.5;"/>
      </defs>
      <g>
       <use style="stroke:#000000;stroke-width:0.5;" x="56.23875" xlink:href="#m728421d6d4" y="243.406875"/>
      </g>
     </g>
     <g id="line2d_51">
      <defs>
       <path d="
M0 0
L-4 0" id="mcb0005524f" style="stroke:#000000;stroke-width:0.5;"/>
      </defs>
      <g>
       <use style="stroke:#000000;stroke-width:0.5;" x="614.23875" xlink:href="#mcb0005524f" y="243.406875"/>
      </g>
     </g>
     <g id="text_11">
      <!-- 200 -->
      <g transform="translate(31.01 246.718125)scale(0.12 -0.12)">
       <use xlink:href="#DejaVuSans-32"/>
       <use x="63.623046875" xlink:href="#DejaVuSans-30"/>
       <use x="127.24609375" xlink:href="#DejaVuSans-30"/>
      </g>
     </g>
    </g>
    <g id="ytick_2">
     <g id="line2d_52">
      <g>
       <use style="stroke:#000000;stroke-width:0.5;" x="56.23875" xlink:href="#m728421d6d4" y="210.492589286"/>
      </g>
     </g>
     <g id="line2d_53">
      <g>
       <use style="stroke:#000000;stroke-width:0.5;" x="614.23875" xlink:href="#mcb0005524f" y="210.492589286"/>
      </g>
     </g>
     <g id="text_12">
      <!-- 400 -->
      <g transform="translate(30.7175 213.803839286)scale(0.12 -0.12)">
       <use xlink:href="#DejaVuSans-34"/>
       <use x="63.623046875" xlink:href="#DejaVuSans-30"/>
       <use x="127.24609375" xlink:href="#DejaVuSans-30"/>
      </g>
     </g>
    </g>
    <g id="ytick_3">
     <g id="line2d_54">
      <g>
       <use style="stroke:#000000;stroke-width:0.5;" x="56.23875" xlink:href="#m728421d6d4" y="177.578303571"/>
      </g>
     </g>
     <g id="line2d_55">
      <g>
       <use style="stroke:#000000;stroke-width:0.5;" x="614.23875" xlink:href="#mcb0005524f" y="177.578303571"/>
      </g>
     </g>
     <g id="text_13">
      <!-- 600 -->
      <g transform="translate(30.96875 180.889553571)scale(0.12 -0.12)">
       <use xlink:href="#DejaVuSans-36"/>
       <use x="63.623046875" xlink:href="#DejaVuSans-30"/>
       <use x="127.24609375" xlink:href="#DejaVuSans-30"/>
      </g>
     </g>
    </g>
    <g id="ytick_4">
     <g id="line2d_56">
      <g>
       <use style="stroke:#000000;stroke-width:0.5;" x="56.23875" xlink:href="#m728421d6d4" y="144.664017857"/>
      </g>
     </g>
     <g id="line2d_57">
      <g>
       <use style="stroke:#000000;stroke-width:0.5;" x="614.23875" xlink:href="#mcb0005524f" y="144.664017857"/>
      </g>
     </g>
     <g id="text_14">
      <!-- 800 -->
      <defs>
       <path d="
M31.7812 34.625
Q24.75 34.625 20.7188 30.8594
Q16.7031 27.0938 16.7031 20.5156
Q16.7031 13.9219 20.7188 10.1562
Q24.75 6.39062 31.7812 6.39062
Q38.8125 6.39062 42.8594 10.1719
Q46.9219 13.9688 46.9219 20.5156
Q46.9219 27.0938 42.8906 30.8594
Q38.875 34.625 31.7812 34.625
M21.9219 38.8125
Q15.5781 40.375 12.0312 44.7188
Q8.5 49.0781 8.5 55.3281
Q8.5 64.0625 14.7188 69.1406
Q20.9531 74.2188 31.7812 74.2188
Q42.6719 74.2188 48.875 69.1406
Q55.0781 64.0625 55.0781 55.3281
Q55.0781 49.0781 51.5312 44.7188
Q48 40.375 41.7031 38.8125
Q48.8281 37.1562 52.7969 32.3125
Q56.7812 27.4844 56.7812 20.5156
Q56.7812 9.90625 50.3125 4.23438
Q43.8438 -1.42188 31.7812 -1.42188
Q19.7344 -1.42188 13.25 4.23438
Q6.78125 9.90625 6.78125 20.5156
Q6.78125 27.4844 10.7812 32.3125
Q14.7969 37.1562 21.9219 38.8125
M18.3125 54.3906
Q18.3125 48.7344 21.8438 45.5625
Q25.3906 42.3906 31.7812 42.3906
Q38.1406 42.3906 41.7188 45.5625
Q45.3125 48.7344 45.3125 54.3906
Q45.3125 60.0625 41.7188 63.2344
Q38.1406 66.4062 31.7812 66.4062
Q25.3906 66.4062 21.8438 63.2344
Q18.3125 60.0625 18.3125 54.3906" id="DejaVuSans-38"/>
      </defs>
      <g transform="translate(30.944375 147.975267857)scale(0.12 -0.12)">
       <use xlink:href="#DejaVuSans-38"/>
       <use x="63.623046875" xlink:href="#DejaVuSans-30"/>
       <use x="127.24609375" xlink:href="#DejaVuSans-30"/>
      </g>
     </g>
    </g>
    <g id="ytick_5">
     <g id="line2d_58">
      <g>
       <use style="stroke:#000000;stroke-width:0.5;" x="56.23875" xlink:href="#m728421d6d4" y="111.749732143"/>
      </g>
     </g>
     <g id="line2d_59">
      <g>
       <use style="stroke:#000000;stroke-width:0.5;" x="614.23875" xlink:href="#mcb0005524f" y="111.749732143"/>
      </g>
     </g>
     <g id="text_15">
      <!-- 1000 -->
      <g transform="translate(23.81375 115.060982143)scale(0.12 -0.12)">
       <use xlink:href="#DejaVuSans-31"/>
       <use x="63.623046875" xlink:href="#DejaVuSans-30"/>
       <use x="127.24609375" xlink:href="#DejaVuSans-30"/>
       <use x="190.869140625" xlink:href="#DejaVuSans-30"/>
      </g>
     </g>
    </g>
    <g id="ytick_6">
     <g id="line2d_60">
      <g>
       <use style="stroke:#000000;stroke-width:0.5;" x="56.23875" xlink:href="#m728421d6d4" y="78.8354464286"/>
      </g>
     </g>
     <g id="line2d_61">
      <g>
       <use style="stroke:#000000;stroke-width:0.5;" x="614.23875" xlink:href="#mcb0005524f" y="78.8354464286"/>
      </g>
     </g>
     <g id="text_16">
      <!-- 1200 -->
      <g transform="translate(23.81375 82.1466964286)scale(0.12 -0.12)">
       <use xlink:href="#DejaVuSans-31"/>
       <use x="63.623046875" xlink:href="#DejaVuSans-32"/>
       <use x="127.24609375" xlink:href="#DejaVuSans-30"/>
       <use x="190.869140625" xlink:href="#DejaVuSans-30"/>
      </g>
     </g>
    </g>
    <g id="ytick_7">
     <g id="line2d_62">
      <g>
       <use style="stroke:#000000;stroke-width:0.5;" x="56.23875" xlink:href="#m728421d6d4" y="45.9211607143"/>
      </g>
     </g>
     <g id="line2d_63">
      <g>
       <use style="stroke:#000000;stroke-width:0.5;" x="614.23875" xlink:href="#mcb0005524f" y="45.9211607143"/>
      </g>
     </g>
     <g id="text_17">
      <!-- 1400 -->
      <g transform="translate(23.81375 49.2324107143)scale(0.12 -0.12)">
       <use xlink:href="#DejaVuSans-31"/>
       <use x="63.623046875" xlink:href="#DejaVuSans-34"/>
       <use x="127.24609375" xlink:href="#DejaVuSans-30"/>
       <use x="190.869140625" xlink:href="#DejaVuSans-30"/>
      </g>
     </g>
    </g>
    <g id="ytick_8">
     <g id="line2d_64">
      <g>
       <use style="stroke:#000000;stroke-width:0.5;" x="56.23875" xlink:href="#m728421d6d4" y="13.006875"/>
      </g>
     </g>
     <g id="line2d_65">
      <g>
       <use style="stroke:#000000;stroke-width:0.5;" x="614.23875" xlink:href="#mcb0005524f" y="13.006875"/>
      </g>
     </g>
     <g id="text_18">
      <!-- 1600 -->
      <g transform="translate(23.81375 16.318125)scale(0.12 -0.12)">
       <use xlink:href="#DejaVuSans-31"/>
       <use x="63.623046875" xlink:href="#DejaVuSans-36"/>
       <use x="127.24609375" xlink:href="#DejaVuSans-30"/>
       <use x="190.869140625" xlink:href="#DejaVuSans-30"/>
      </g>
     </g>
    </g>
    <g id="text_19">
     <!-- Number of Tagged Packages -->
     <defs>
      <path d="
M19.6719 64.7969
L19.6719 37.4062
L32.0781 37.4062
Q38.9688 37.4062 42.7188 40.9688
Q46.4844 44.5312 46.4844 51.125
Q46.4844 57.6719 42.7188 61.2344
Q38.9688 64.7969 32.0781 64.7969
z

M9.8125 72.9062
L32.0781 72.9062
Q44.3438 72.9062 50.6094 67.3594
Q56.8906 61.8125 56.8906 51.125
Q56.8906 40.3281 50.6094 34.8125
Q44.3438 29.2969 32.0781 29.2969
L19.6719 29.2969
L19.6719 0
L9.8125 0
z
" id="DejaVuSans-50"/>
      <path d="
M52 44.1875
Q55.375 50.25 60.0625 53.125
Q64.75 56 71.0938 56
Q79.6406 56 84.2812 50.0156
Q88.9219 44.0469 88.9219 33.0156
L88.9219 0
L79.8906 0
L79.8906 32.7188
Q79.8906 40.5781 77.0938 44.375
Q74.3125 48.1875 68.6094 48.1875
Q61.625 48.1875 57.5625 43.5469
Q53.5156 38.9219 53.5156 30.9062
L53.5156 0
L44.4844 0
L44.4844 32.7188
Q44.4844 40.625 41.7031 44.4062
Q38.9219 48.1875 33.1094 48.1875
Q26.2188 48.1875 22.1562 43.5312
Q18.1094 38.875 18.1094 30.9062
L18.1094 0
L9.07812 0
L9.07812 54.6875
L18.1094 54.6875
L18.1094 46.1875
Q21.1875 51.2188 25.4844 53.6094
Q29.7812 56 35.6875 56
Q41.6562 56 45.8281 52.9688
Q50 49.9531 52 44.1875" id="DejaVuSans-6d"/>
      <path d="
M9.07812 75.9844
L18.1094 75.9844
L18.1094 31.1094
L44.9219 54.6875
L56.3906 54.6875
L27.3906 29.1094
L57.625 0
L45.9062 0
L18.1094 26.7031
L18.1094 0
L9.07812 0
z
" id="DejaVuSans-6b"/>
      <path d="
M37.1094 75.9844
L37.1094 68.5
L28.5156 68.5
Q23.6875 68.5 21.7969 66.5469
Q19.9219 64.5938 19.9219 59.5156
L19.9219 54.6875
L34.7188 54.6875
L34.7188 47.7031
L19.9219 47.7031
L19.9219 0
L10.8906 0
L10.8906 47.7031
L2.29688 47.7031
L2.29688 54.6875
L10.8906 54.6875
L10.8906 58.5
Q10.8906 67.625 15.1406 71.7969
Q19.3906 75.9844 28.6094 75.9844
z
" id="DejaVuSans-66"/>
      <path d="
M45.4062 27.9844
Q45.4062 37.75 41.375 43.1094
Q37.3594 48.4844 30.0781 48.4844
Q22.8594 48.4844 18.8281 43.1094
Q14.7969 37.75 14.7969 27.9844
Q14.7969 18.2656 18.8281 12.8906
Q22.8594 7.51562 30.0781 7.51562
Q37.3594 7.51562 41.375 12.8906
Q45.4062 18.2656 45.4062 27.9844
M54.3906 6.78125
Q54.3906 -7.17188 48.1875 -13.9844
Q42 -20.7969 29.2031 -20.7969
Q24.4688 -20.7969 20.2656 -20.0938
Q16.0625 -19.3906 12.1094 -17.9219
L12.1094 -9.1875
Q16.0625 -11.3281 19.9219 -12.3438
Q23.7812 -13.375 27.7812 -13.375
Q36.625 -13.375 41.0156 -8.76562
Q45.4062 -4.15625 45.4062 5.17188
L45.4062 9.625
Q42.625 4.78125 38.2812 2.39062
Q33.9375 0 27.875 0
Q17.8281 0 11.6719 7.65625
Q5.51562 15.3281 5.51562 27.9844
Q5.51562 40.6719 11.6719 48.3281
Q17.8281 56 27.875 56
Q33.9375 56 38.2812 53.6094
Q42.625 51.2188 45.4062 46.3906
L45.4062 54.6875
L54.3906 54.6875
z
" id="DejaVuSans-67"/>
      <path d="
M45.4062 46.3906
L45.4062 75.9844
L54.3906 75.9844
L54.3906 0
L45.4062 0
L45.4062 8.20312
Q42.5781 3.32812 38.25 0.953125
Q33.9375 -1.42188 27.875 -1.42188
Q17.9688 -1.42188 11.7344 6.48438
Q5.51562 14.4062 5.51562 27.2969
Q5.51562 40.1875 11.7344 48.0938
Q17.9688 56 27.875 56
Q33.9375 56 38.25 53.625
Q42.5781 51.2656 45.4062 46.3906
M14.7969 27.2969
Q14.7969 17.3906 18.875 11.75
Q22.9531 6.10938 30.0781 6.10938
Q37.2031 6.10938 41.2969 11.75
Q45.4062 17.3906 45.4062 27.2969
Q45.4062 37.2031 41.2969 42.8438
Q37.2031 48.4844 30.0781 48.4844
Q22.9531 48.4844 18.875 42.8438
Q14.7969 37.2031 14.7969 27.2969" id="DejaVuSans-64"/>
      <path d="
M56.2031 29.5938
L56.2031 25.2031
L14.8906 25.2031
Q15.4844 15.9219 20.4844 11.0625
Q25.4844 6.20312 34.4219 6.20312
Q39.5938 6.20312 44.4531 7.46875
Q49.3125 8.73438 54.1094 11.2812
L54.1094 2.78125
Q49.2656 0.734375 44.1875 -0.34375
Q39.1094 -1.42188 33.8906 -1.42188
Q20.7969 -1.42188 13.1562 6.1875
Q5.51562 13.8125 5.51562 26.8125
Q5.51562 40.2344 12.7656 48.1094
Q20.0156 56 32.3281 56
Q43.3594 56 49.7812 48.8906
Q56.2031 41.7969 56.2031 29.5938
M47.2188 32.2344
Q47.125 39.5938 43.0938 43.9844
Q39.0625 48.3906 32.4219 48.3906
Q24.9062 48.3906 20.3906 44.1406
Q15.875 39.8906 15.1875 32.1719
z
" id="DejaVuSans-65"/>
      <path d="
M48.6875 27.2969
Q48.6875 37.2031 44.6094 42.8438
Q40.5312 48.4844 33.4062 48.4844
Q26.2656 48.4844 22.1875 42.8438
Q18.1094 37.2031 18.1094 27.2969
Q18.1094 17.3906 22.1875 11.75
Q26.2656 6.10938 33.4062 6.10938
Q40.5312 6.10938 44.6094 11.75
Q48.6875 17.3906 48.6875 27.2969
M18.1094 46.3906
Q20.9531 51.2656 25.2656 53.625
Q29.5938 56 35.5938 56
Q45.5625 56 51.7812 48.0938
Q58.0156 40.1875 58.0156 27.2969
Q58.0156 14.4062 51.7812 6.48438
Q45.5625 -1.42188 35.5938 -1.42188
Q29.5938 -1.42188 25.2656 0.953125
Q20.9531 3.32812 18.1094 8.20312
L18.1094 0
L9.07812 0
L9.07812 75.9844
L18.1094 75.9844
z
" id="DejaVuSans-62"/>
      <path d="
M48.7812 52.5938
L48.7812 44.1875
Q44.9688 46.2969 41.1406 47.3438
Q37.3125 48.3906 33.4062 48.3906
Q24.6562 48.3906 19.8125 42.8438
Q14.9844 37.3125 14.9844 27.2969
Q14.9844 17.2812 19.8125 11.7344
Q24.6562 6.20312 33.4062 6.20312
Q37.3125 6.20312 41.1406 7.25
Q44.9688 8.29688 48.7812 10.4062
L48.7812 2.09375
Q45.0156 0.34375 40.9844 -0.53125
Q36.9688 -1.42188 32.4219 -1.42188
Q20.0625 -1.42188 12.7812 6.34375
Q5.51562 14.1094 5.51562 27.2969
Q5.51562 40.6719 12.8594 48.3281
Q20.2188 56 33.0156 56
Q37.1562 56 41.1094 55.1406
Q45.0625 54.2969 48.7812 52.5938" id="DejaVuSans-63"/>
      <path d="
M44.2812 53.0781
L44.2812 44.5781
Q40.4844 46.5312 36.375 47.5
Q32.2812 48.4844 27.875 48.4844
Q21.1875 48.4844 17.8438 46.4375
Q14.5 44.3906 14.5 40.2812
Q14.5 37.1562 16.8906 35.375
Q19.2812 33.5938 26.5156 31.9844
L29.5938 31.2969
Q39.1562 29.25 43.1875 25.5156
Q47.2188 21.7812 47.2188 15.0938
Q47.2188 7.46875 41.1875 3.01562
Q35.1562 -1.42188 24.6094 -1.42188
Q20.2188 -1.42188 15.4531 -0.5625
Q10.6875 0.296875 5.42188 2
L5.42188 11.2812
Q10.4062 8.6875 15.2344 7.39062
Q20.0625 6.10938 24.8125 6.10938
Q31.1562 6.10938 34.5625 8.28125
Q37.9844 10.4531 37.9844 14.4062
Q37.9844 18.0625 35.5156 20.0156
Q33.0625 21.9688 24.7031 23.7812
L21.5781 24.5156
Q13.2344 26.2656 9.51562 29.9062
Q5.8125 33.5469 5.8125 39.8906
Q5.8125 47.6094 11.2812 51.7969
Q16.75 56 26.8125 56
Q31.7812 56 36.1719 55.2656
Q40.5781 54.5469 44.2812 53.0781" id="DejaVuSans-73"/>
      <path d="
M-0.296875 72.9062
L61.375 72.9062
L61.375 64.5938
L35.5 64.5938
L35.5 0
L25.5938 0
L25.5938 64.5938
L-0.296875 64.5938
z
" id="DejaVuSans-54"/>
     </defs>
     <g transform="translate(16.318125 212.98875)rotate(-90.0)scale(0.12 -0.12)">
      <use xlink:href="#DejaVuSans-4e"/>
      <use x="74.8046875" xlink:href="#DejaVuSans-75"/>
      <use x="138.18359375" xlink:href="#DejaVuSans-6d"/>
      <use x="235.595703125" xlink:href="#DejaVuSans-62"/>
      <use x="299.072265625" xlink:href="#DejaVuSans-65"/>
      <use x="360.595703125" xlink:href="#DejaVuSans-72"/>
      <use x="401.708984375" xlink:href="#DejaVuSans-20"/>
      <use x="433.49609375" xlink:href="#DejaVuSans-6f"/>
      <use x="494.677734375" xlink:href="#DejaVuSans-66"/>
      <use x="529.8828125" xlink:href="#DejaVuSans-20"/>
      <use x="561.669921875" xlink:href="#DejaVuSans-54"/>
      <use x="606.25390625" xlink:href="#DejaVuSans-61"/>
      <use x="667.533203125" xlink:href="#DejaVuSans-67"/>
      <use x="731.009765625" xlink:href="#DejaVuSans-67"/>
      <use x="794.486328125" xlink:href="#DejaVuSans-65"/>
      <use x="856.009765625" xlink:href="#DejaVuSans-64"/>
      <use x="919.486328125" xlink:href="#DejaVuSans-20"/>
      <use x="951.2734375" xlink:href="#DejaVuSans-50"/>
      <use x="1007.07617188" xlink:href="#DejaVuSans-61"/>
      <use x="1068.35546875" xlink:href="#DejaVuSans-63"/>
      <use x="1123.3359375" xlink:href="#DejaVuSans-6b"/>
      <use x="1179.49609375" xlink:href="#DejaVuSans-61"/>
      <use x="1240.77539062" xlink:href="#DejaVuSans-67"/>
      <use x="1304.25195312" xlink:href="#DejaVuSans-65"/>
      <use x="1365.77539062" xlink:href="#DejaVuSans-73"/>
     </g>
    </g>
   </g>
   <g id="patch_3">
    <path d="
M56.2387 13.0069
L614.239 13.0069" style="fill:none;stroke:#000000;"/>
   </g>
   <g id="patch_4">
    <path d="
M614.239 243.407
L614.239 13.0069" style="fill:none;stroke:#000000;"/>
   </g>
   <g id="patch_5">
    <path d="
M56.2387 243.407
L614.239 243.407" style="fill:none;stroke:#000000;"/>
   </g>
   <g id="patch_6">
    <path d="
M56.2388 243.407
L56.2388 13.0069" style="fill:none;stroke:#000000;"/>
   </g>
   <g id="text_20">
    <g id="patch_7">
     <path d="
M113.596 144.771
L127.271 144.771
L127.271 110.383
L113.596 110.383
z
" style="fill:#ffffff;stroke:#ffffff;"/>
    </g>
    <!-- v0.3.0 -->
    <defs>
     <path d="
M40.5781 39.3125
Q47.6562 37.7969 51.625 33
Q55.6094 28.2188 55.6094 21.1875
Q55.6094 10.4062 48.1875 4.48438
Q40.7656 -1.42188 27.0938 -1.42188
Q22.5156 -1.42188 17.6562 -0.515625
Q12.7969 0.390625 7.625 2.20312
L7.625 11.7188
Q11.7188 9.32812 16.5938 8.10938
Q21.4844 6.89062 26.8125 6.89062
Q36.0781 6.89062 40.9375 10.5469
Q45.7969 14.2031 45.7969 21.1875
Q45.7969 27.6406 41.2812 31.2656
Q36.7656 34.9062 28.7188 34.9062
L20.2188 34.9062
L20.2188 43.0156
L29.1094 43.0156
Q36.375 43.0156 40.2344 45.9219
Q44.0938 48.8281 44.0938 54.2969
Q44.0938 59.9062 40.1094 62.9062
Q36.1406 65.9219 28.7188 65.9219
Q24.6562 65.9219 20.0156 65.0312
Q15.375 64.1562 9.8125 62.3125
L9.8125 71.0938
Q15.4375 72.6562 20.3438 73.4375
Q25.25 74.2188 29.5938 74.2188
Q40.8281 74.2188 47.3594 69.1094
Q53.9062 64.0156 53.9062 55.3281
Q53.9062 49.2656 50.4375 45.0938
Q46.9688 40.9219 40.5781 39.3125" id="DejaVuSans-33"/>
     <path d="
M10.6875 12.4062
L21 12.4062
L21 0
L10.6875 0
z
" id="DejaVuSans-2e"/>
    </defs>
    <g transform="translate(123.191711515 142.770745446)rotate(-90.0)scale(0.09996 -0.09996)">
     <use xlink:href="#DejaVuSans-76"/>
     <use x="59.1796875" xlink:href="#DejaVuSans-30"/>
     <use x="122.802734375" xlink:href="#DejaVuSans-2e"/>
     <use x="154.58984375" xlink:href="#DejaVuSans-33"/>
     <use x="218.212890625" xlink:href="#DejaVuSans-2e"/>
     <use x="250.0" xlink:href="#DejaVuSans-30"/>
    </g>
   </g>
   <g id="text_21">
    <g id="patch_8">
     <path d="
M127.962 111.597
L141.636 111.597
L141.636 77.4686
L127.962 77.4686
z
" style="fill:#ffffff;stroke:#ffffff;"/>
    </g>
    <!-- v0.3.1 -->
    <g transform="translate(137.55695689 109.597188482)rotate(-90.0)scale(0.09996 -0.09996)">
     <use xlink:href="#DejaVuSans-76"/>
     <use x="59.1796875" xlink:href="#DejaVuSans-30"/>
     <use x="122.802734375" xlink:href="#DejaVuSans-2e"/>
     <use x="154.58984375" xlink:href="#DejaVuSans-33"/>
     <use x="218.212890625" xlink:href="#DejaVuSans-2e"/>
     <use x="250.0" xlink:href="#DejaVuSans-31"/>
    </g>
   </g>
   <g id="text_22">
    <g id="patch_9">
     <path d="
M141.429 144.433
L155.103 144.433
L155.103 110.383
L141.429 110.383
z
" style="fill:#ffffff;stroke:#ffffff;"/>
    </g>
    <!-- v0.3.2 -->
    <g transform="translate(151.024374428 142.433380446)rotate(-90.0)scale(0.09996 -0.09996)">
     <use xlink:href="#DejaVuSans-76"/>
     <use x="59.1796875" xlink:href="#DejaVuSans-30"/>
     <use x="122.802734375" xlink:href="#DejaVuSans-2e"/>
     <use x="154.58984375" xlink:href="#DejaVuSans-33"/>
     <use x="218.212890625" xlink:href="#DejaVuSans-2e"/>
     <use x="250.0" xlink:href="#DejaVuSans-32"/>
    </g>
   </g>
   <g id="text_23">
    <g id="patch_10">
     <path d="
M156.243 111.719
L169.917 111.719
L169.917 77.4686
L156.243 77.4686
z
" style="fill:#ffffff;stroke:#ffffff;"/>
    </g>
    <!-- v0.3.3 -->
    <g transform="translate(165.83853372 109.719014732)rotate(-90.0)scale(0.09996 -0.09996)">
     <use xlink:href="#DejaVuSans-76"/>
     <use x="59.1796875" xlink:href="#DejaVuSans-30"/>
     <use x="122.802734375" xlink:href="#DejaVuSans-2e"/>
     <use x="154.58984375" xlink:href="#DejaVuSans-33"/>
     <use x="218.212890625" xlink:href="#DejaVuSans-2e"/>
     <use x="250.0" xlink:href="#DejaVuSans-33"/>
    </g>
   </g>
   <g id="text_24">
    <g id="patch_11">
     <path d="
M171.057 144.874
L184.732 144.874
L184.732 110.383
L171.057 110.383
z
" style="fill:#ffffff;stroke:#ffffff;"/>
    </g>
    <!-- v0.3.4 -->
    <g transform="translate(180.652693012 142.873829196)rotate(-90.0)scale(0.09996 -0.09996)">
     <use xlink:href="#DejaVuSans-76"/>
     <use x="59.1796875" xlink:href="#DejaVuSans-30"/>
     <use x="122.802734375" xlink:href="#DejaVuSans-2e"/>
     <use x="154.58984375" xlink:href="#DejaVuSans-33"/>
     <use x="218.212890625" xlink:href="#DejaVuSans-2e"/>
     <use x="250.0" xlink:href="#DejaVuSans-34"/>
    </g>
   </g>
   <g id="text_25">
    <g id="patch_12">
     <path d="
M176.893 111.647
L190.567 111.647
L190.567 77.4686
L176.893 77.4686
z
" style="fill:#ffffff;stroke:#ffffff;"/>
    </g>
    <!-- v0.3.5 -->
    <g transform="translate(186.488573945 109.647168482)rotate(-90.0)scale(0.09996 -0.09996)">
     <use xlink:href="#DejaVuSans-76"/>
     <use x="59.1796875" xlink:href="#DejaVuSans-30"/>
     <use x="122.802734375" xlink:href="#DejaVuSans-2e"/>
     <use x="154.58984375" xlink:href="#DejaVuSans-33"/>
     <use x="218.212890625" xlink:href="#DejaVuSans-2e"/>
     <use x="250.0" xlink:href="#DejaVuSans-35"/>
    </g>
   </g>
   <g id="text_26">
    <g id="patch_13">
     <path d="
M194.85 144.805
L208.524 144.805
L208.524 110.383
L194.85 110.383
z
" style="fill:#ffffff;stroke:#ffffff;"/>
    </g>
    <!-- v0.3.6 -->
    <g transform="translate(204.445130663 142.805106696)rotate(-90.0)scale(0.09996 -0.09996)">
     <use xlink:href="#DejaVuSans-76"/>
     <use x="59.1796875" xlink:href="#DejaVuSans-30"/>
     <use x="122.802734375" xlink:href="#DejaVuSans-2e"/>
     <use x="154.58984375" xlink:href="#DejaVuSans-33"/>
     <use x="218.212890625" xlink:href="#DejaVuSans-2e"/>
     <use x="250.0" xlink:href="#DejaVuSans-36"/>
    </g>
   </g>
   <g id="text_27">
    <g id="patch_14">
     <path d="
M210.113 111.666
L223.787 111.666
L223.787 77.4686
L210.113 77.4686
z
" style="fill:#ffffff;stroke:#ffffff;"/>
    </g>
    <!-- v0.3.7 -->
    <g transform="translate(219.708203873 109.665910982)rotate(-90.0)scale(0.09996 -0.09996)">
     <use xlink:href="#DejaVuSans-76"/>
     <use x="59.1796875" xlink:href="#DejaVuSans-30"/>
     <use x="122.802734375" xlink:href="#DejaVuSans-2e"/>
     <use x="154.58984375" xlink:href="#DejaVuSans-33"/>
     <use x="218.212890625" xlink:href="#DejaVuSans-2e"/>
     <use x="250.0" xlink:href="#DejaVuSans-37"/>
    </g>
   </g>
   <g id="text_28">
    <g id="patch_15">
     <path d="
M227.172 144.75
L240.846 144.75
L240.846 110.383
L227.172 110.383
z
" style="fill:#ffffff;stroke:#ffffff;"/>
    </g>
    <!-- v0.3.8 -->
    <g transform="translate(236.766932754 142.750441071)rotate(-90.0)scale(0.09996 -0.09996)">
     <use xlink:href="#DejaVuSans-76"/>
     <use x="59.1796875" xlink:href="#DejaVuSans-30"/>
     <use x="122.802734375" xlink:href="#DejaVuSans-2e"/>
     <use x="154.58984375" xlink:href="#DejaVuSans-33"/>
     <use x="218.212890625" xlink:href="#DejaVuSans-2e"/>
     <use x="250.0" xlink:href="#DejaVuSans-38"/>
    </g>
   </g>
   <g id="text_29">
    <g id="patch_16">
     <path d="
M240.639 111.817
L254.313 111.817
L254.313 77.4686
L240.639 77.4686
z
" style="fill:#ffffff;stroke:#ffffff;"/>
    </g>
    <!-- v0.3.9 -->
    <defs>
     <path d="
M10.9844 1.51562
L10.9844 10.5
Q14.7031 8.73438 18.5 7.8125
Q22.3125 6.89062 25.9844 6.89062
Q35.75 6.89062 40.8906 13.4531
Q46.0469 20.0156 46.7812 33.4062
Q43.9531 29.2031 39.5938 26.9531
Q35.25 24.7031 29.9844 24.7031
Q19.0469 24.7031 12.6719 31.3125
Q6.29688 37.9375 6.29688 49.4219
Q6.29688 60.6406 12.9375 67.4219
Q19.5781 74.2188 30.6094 74.2188
Q43.2656 74.2188 49.9219 64.5156
Q56.5938 54.8281 56.5938 36.375
Q56.5938 19.1406 48.4062 8.85938
Q40.2344 -1.42188 26.4219 -1.42188
Q22.7031 -1.42188 18.8906 -0.6875
Q15.0938 0.046875 10.9844 1.51562
M30.6094 32.4219
Q37.25 32.4219 41.125 36.9531
Q45.0156 41.5 45.0156 49.4219
Q45.0156 57.2812 41.125 61.8438
Q37.25 66.4062 30.6094 66.4062
Q23.9688 66.4062 20.0938 61.8438
Q16.2188 57.2812 16.2188 49.4219
Q16.2188 41.5 20.0938 36.9531
Q23.9688 32.4219 30.6094 32.4219" id="DejaVuSans-39"/>
    </defs>
    <g transform="translate(250.234350293 109.817412857)rotate(-90.0)scale(0.09996 -0.09996)">
     <use xlink:href="#DejaVuSans-76"/>
     <use x="59.1796875" xlink:href="#DejaVuSans-30"/>
     <use x="122.802734375" xlink:href="#DejaVuSans-2e"/>
     <use x="154.58984375" xlink:href="#DejaVuSans-33"/>
     <use x="218.212890625" xlink:href="#DejaVuSans-2e"/>
     <use x="250.0" xlink:href="#DejaVuSans-39"/>
    </g>
   </g>
   <g id="text_30">
    <g id="patch_17">
     <path d="
M251.862 151.131
L265.536 151.131
L265.536 110.383
L251.862 110.383
z
" style="fill:#ffffff;stroke:#ffffff;"/>
    </g>
    <!-- v0.3.10 -->
    <g transform="translate(261.457198241 149.130700446)rotate(-90.0)scale(0.09996 -0.09996)">
     <use xlink:href="#DejaVuSans-76"/>
     <use x="59.1796875" xlink:href="#DejaVuSans-30"/>
     <use x="122.802734375" xlink:href="#DejaVuSans-2e"/>
     <use x="154.58984375" xlink:href="#DejaVuSans-33"/>
     <use x="218.212890625" xlink:href="#DejaVuSans-2e"/>
     <use x="250.0" xlink:href="#DejaVuSans-31"/>
     <use x="313.623046875" xlink:href="#DejaVuSans-30"/>
    </g>
   </g>
   <g id="text_31">
    <g id="patch_18">
     <path d="
M266.676 117.957
L280.35 117.957
L280.35 77.4686
L266.676 77.4686
z
" style="fill:#ffffff;stroke:#ffffff;"/>
    </g>
    <!-- v0.3.11 -->
    <g transform="translate(276.271357533 115.957143482)rotate(-90.0)scale(0.09996 -0.09996)">
     <use xlink:href="#DejaVuSans-76"/>
     <use x="59.1796875" xlink:href="#DejaVuSans-30"/>
     <use x="122.802734375" xlink:href="#DejaVuSans-2e"/>
     <use x="154.58984375" xlink:href="#DejaVuSans-33"/>
     <use x="218.212890625" xlink:href="#DejaVuSans-2e"/>
     <use x="250.0" xlink:href="#DejaVuSans-31"/>
     <use x="313.623046875" xlink:href="#DejaVuSans-31"/>
    </g>
   </g>
   <g id="text_32">
    <g id="patch_19">
     <path d="
M307.527 150.793
L321.201 150.793
L321.201 110.383
L307.527 110.383
z
" style="fill:#ffffff;stroke:#ffffff;"/>
    </g>
    <!-- v0.3.12 -->
    <g transform="translate(317.122524066 148.793335446)rotate(-90.0)scale(0.09996 -0.09996)">
     <use xlink:href="#DejaVuSans-76"/>
     <use x="59.1796875" xlink:href="#DejaVuSans-30"/>
     <use x="122.802734375" xlink:href="#DejaVuSans-2e"/>
     <use x="154.58984375" xlink:href="#DejaVuSans-33"/>
     <use x="218.212890625" xlink:href="#DejaVuSans-2e"/>
     <use x="250.0" xlink:href="#DejaVuSans-31"/>
     <use x="313.623046875" xlink:href="#DejaVuSans-32"/>
    </g>
   </g>
   <g id="text_33">
    <g id="patch_20">
     <path d="
M299.447 235.285
L313.121 235.285
L313.121 200.897
L299.447 200.897
z
" style="fill:#ffffff;stroke:#ffffff;"/>
    </g>
    <!-- v0.4.0 -->
    <g transform="translate(309.042073543 233.285031161)rotate(-90.0)scale(0.09996 -0.09996)">
     <use xlink:href="#DejaVuSans-76"/>
     <use x="59.1796875" xlink:href="#DejaVuSans-30"/>
     <use x="122.802734375" xlink:href="#DejaVuSans-2e"/>
     <use x="154.58984375" xlink:href="#DejaVuSans-34"/>
     <use x="218.212890625" xlink:href="#DejaVuSans-2e"/>
     <use x="250.0" xlink:href="#DejaVuSans-30"/>
    </g>
   </g>
   <g id="text_34">
    <g id="patch_21">
     <path d="
M313.363 210.34
L327.037 210.34
L327.037 176.211
L313.363 176.211
z
" style="fill:#ffffff;stroke:#ffffff;"/>
    </g>
    <!-- v0.4.1 -->
    <g transform="translate(322.958404999 208.340045625)rotate(-90.0)scale(0.09996 -0.09996)">
     <use xlink:href="#DejaVuSans-76"/>
     <use x="59.1796875" xlink:href="#DejaVuSans-30"/>
     <use x="122.802734375" xlink:href="#DejaVuSans-2e"/>
     <use x="154.58984375" xlink:href="#DejaVuSans-34"/>
     <use x="218.212890625" xlink:href="#DejaVuSans-2e"/>
     <use x="250.0" xlink:href="#DejaVuSans-31"/>
    </g>
   </g>
   <g id="text_35">
    <g id="patch_22">
     <path d="
M325.933 234.948
L339.607 234.948
L339.607 200.897
L325.933 200.897
z
" style="fill:#ffffff;stroke:#ffffff;"/>
    </g>
    <!-- v0.4.2 -->
    <g transform="translate(335.527994701 232.947666161)rotate(-90.0)scale(0.09996 -0.09996)">
     <use xlink:href="#DejaVuSans-76"/>
     <use x="59.1796875" xlink:href="#DejaVuSans-30"/>
     <use x="122.802734375" xlink:href="#DejaVuSans-2e"/>
     <use x="154.58984375" xlink:href="#DejaVuSans-34"/>
     <use x="218.212890625" xlink:href="#DejaVuSans-2e"/>
     <use x="250.0" xlink:href="#DejaVuSans-32"/>
    </g>
   </g>
   <g id="text_36">
    <g id="patch_23">
     <path d="
M342.542 210.462
L356.217 210.462
L356.217 176.211
L342.542 176.211
z
" style="fill:#ffffff;stroke:#ffffff;"/>
    </g>
    <!-- v0.4.3 -->
    <g transform="translate(352.137809665 208.461871875)rotate(-90.0)scale(0.09996 -0.09996)">
     <use xlink:href="#DejaVuSans-76"/>
     <use x="59.1796875" xlink:href="#DejaVuSans-30"/>
     <use x="122.802734375" xlink:href="#DejaVuSans-2e"/>
     <use x="154.58984375" xlink:href="#DejaVuSans-34"/>
     <use x="218.212890625" xlink:href="#DejaVuSans-2e"/>
     <use x="250.0" xlink:href="#DejaVuSans-33"/>
    </g>
   </g>
   <g id="text_37">
    <g id="patch_24">
     <path d="
M371.722 235.076
L385.396 235.076
L385.396 200.897
L371.722 200.897
z
" style="fill:#ffffff;stroke:#ffffff;"/>
    </g>
    <!-- v0.4.5 -->
    <g transform="translate(381.317214331 233.075739911)rotate(-90.0)scale(0.09996 -0.09996)">
     <use xlink:href="#DejaVuSans-76"/>
     <use x="59.1796875" xlink:href="#DejaVuSans-30"/>
     <use x="122.802734375" xlink:href="#DejaVuSans-2e"/>
     <use x="154.58984375" xlink:href="#DejaVuSans-34"/>
     <use x="218.212890625" xlink:href="#DejaVuSans-2e"/>
     <use x="250.0" xlink:href="#DejaVuSans-35"/>
    </g>
   </g>
   <g id="text_38">
    <g id="patch_25">
     <path d="
M413.92 210.634
L427.594 210.634
L427.594 176.211
L413.92 176.211
z
" style="fill:#ffffff;stroke:#ffffff;"/>
    </g>
    <!-- v0.4.6 -->
    <g transform="translate(423.515122618 208.633678125)rotate(-90.0)scale(0.09996 -0.09996)">
     <use xlink:href="#DejaVuSans-76"/>
     <use x="59.1796875" xlink:href="#DejaVuSans-30"/>
     <use x="122.802734375" xlink:href="#DejaVuSans-2e"/>
     <use x="154.58984375" xlink:href="#DejaVuSans-34"/>
     <use x="218.212890625" xlink:href="#DejaVuSans-2e"/>
     <use x="250.0" xlink:href="#DejaVuSans-36"/>
    </g>
   </g>
   <g id="text_39">
    <g id="patch_26">
     <path d="
M454.771 235.094
L468.445 235.094
L468.445 200.897
L454.771 200.897
z
" style="fill:#ffffff;stroke:#ffffff;"/>
    </g>
    <!-- v0.4.7 -->
    <g transform="translate(464.36628915 233.094482411)rotate(-90.0)scale(0.09996 -0.09996)">
     <use xlink:href="#DejaVuSans-76"/>
     <use x="59.1796875" xlink:href="#DejaVuSans-30"/>
     <use x="122.802734375" xlink:href="#DejaVuSans-2e"/>
     <use x="154.58984375" xlink:href="#DejaVuSans-34"/>
     <use x="218.212890625" xlink:href="#DejaVuSans-2e"/>
     <use x="250.0" xlink:href="#DejaVuSans-37"/>
    </g>
   </g>
   <g id="text_40">
    <g id="patch_27">
     <path d="
M455.22 152.999
L468.894 152.999
L468.894 118.611
L455.22 118.611
z
" style="fill:#ffffff;stroke:#ffffff;"/>
    </g>
    <!-- v0.5.0 -->
    <g transform="translate(464.815203068 150.999316875)rotate(-90.0)scale(0.09996 -0.09996)">
     <use xlink:href="#DejaVuSans-76"/>
     <use x="59.1796875" xlink:href="#DejaVuSans-30"/>
     <use x="122.802734375" xlink:href="#DejaVuSans-2e"/>
     <use x="154.58984375" xlink:href="#DejaVuSans-35"/>
     <use x="218.212890625" xlink:href="#DejaVuSans-2e"/>
     <use x="250.0" xlink:href="#DejaVuSans-30"/>
    </g>
   </g>
   <g id="text_41">
    <g id="patch_28">
     <path d="
M530.188 136.283
L543.863 136.283
L543.863 102.154
L530.188 102.154
z
" style="fill:#ffffff;stroke:#ffffff;"/>
    </g>
    <!-- v0.5.1 -->
    <g transform="translate(539.783827364 134.282902768)rotate(-90.0)scale(0.09996 -0.09996)">
     <use xlink:href="#DejaVuSans-76"/>
     <use x="59.1796875" xlink:href="#DejaVuSans-30"/>
     <use x="122.802734375" xlink:href="#DejaVuSans-2e"/>
     <use x="154.58984375" xlink:href="#DejaVuSans-35"/>
     <use x="218.212890625" xlink:href="#DejaVuSans-2e"/>
     <use x="250.0" xlink:href="#DejaVuSans-31"/>
    </g>
   </g>
   <g id="text_42">
    <g id="patch_29">
     <path d="
M558.021 152.662
L571.695 152.662
L571.695 118.611
L558.021 118.611
z
" style="fill:#ffffff;stroke:#ffffff;"/>
    </g>
    <!-- v0.5.2 -->
    <g transform="translate(567.616490277 150.661951875)rotate(-90.0)scale(0.09996 -0.09996)">
     <use xlink:href="#DejaVuSans-76"/>
     <use x="59.1796875" xlink:href="#DejaVuSans-30"/>
     <use x="122.802734375" xlink:href="#DejaVuSans-2e"/>
     <use x="154.58984375" xlink:href="#DejaVuSans-35"/>
     <use x="218.212890625" xlink:href="#DejaVuSans-2e"/>
     <use x="250.0" xlink:href="#DejaVuSans-32"/>
    </g>
   </g>
   <g id="text_43">
    <g id="patch_30">
     <path d="
M577.773 235.285
L591.448 235.285
L591.448 200.897
L577.773 200.897
z
" style="fill:#ffffff;stroke:#ffffff;"/>
    </g>
    <!-- v0.6.0 -->
    <g transform="translate(587.368702666 233.285031161)rotate(-90.0)scale(0.09996 -0.09996)">
     <use xlink:href="#DejaVuSans-76"/>
     <use x="59.1796875" xlink:href="#DejaVuSans-30"/>
     <use x="122.802734375" xlink:href="#DejaVuSans-2e"/>
     <use x="154.58984375" xlink:href="#DejaVuSans-36"/>
     <use x="218.212890625" xlink:href="#DejaVuSans-2e"/>
     <use x="250.0" xlink:href="#DejaVuSans-30"/>
    </g>
   </g>
   <g id="legend_1">
    <g id="patch_31">
     <path d="
M61.2368 94.3649
L111.899 94.3649
L111.899 18.0049
L61.2368 18.0049
L61.2368 94.3649
z
" style="fill:#ffffff;stroke:#000000;"/>
    </g>
    <g id="line2d_66">
     <path d="
M68.234 26.1001
L82.2284 26.1001" style="fill:none;stroke:#ff0000;stroke-linecap:square;stroke-width:2;"/>
    </g>
    <g id="line2d_67"/>
    <g id="text_44">
     <!-- 0.2 -->
     <g transform="translate(93.22395 29.598673125)scale(0.09996 -0.09996)">
      <use xlink:href="#DejaVuSans-30"/>
      <use x="63.623046875" xlink:href="#DejaVuSans-2e"/>
      <use x="95.41015625" xlink:href="#DejaVuSans-32"/>
     </g>
    </g>
    <g id="line2d_68">
     <path d="
M68.234 40.7723
L82.2284 40.7723" style="fill:none;stroke:#008000;stroke-linecap:square;stroke-width:2;"/>
    </g>
    <g id="line2d_69"/>
    <g id="text_45">
     <!-- 0.3 -->
     <g transform="translate(93.22395 44.270926875)scale(0.09996 -0.09996)">
      <use xlink:href="#DejaVuSans-30"/>
      <use x="63.623046875" xlink:href="#DejaVuSans-2e"/>
      <use x="95.41015625" xlink:href="#DejaVuSans-33"/>
     </g>
    </g>
    <g id="line2d_70">
     <path d="
M68.234 55.4446
L82.2284 55.4446" style="fill:none;stroke:#0000ff;stroke-linecap:square;stroke-width:2;"/>
    </g>
    <g id="line2d_71"/>
    <g id="text_46">
     <!-- 0.4 -->
     <g transform="translate(93.22395 58.943180625)scale(0.09996 -0.09996)">
      <use xlink:href="#DejaVuSans-30"/>
      <use x="63.623046875" xlink:href="#DejaVuSans-2e"/>
      <use x="95.41015625" xlink:href="#DejaVuSans-34"/>
     </g>
    </g>
    <g id="line2d_72">
     <path d="
M68.234 70.1168
L82.2284 70.1168" style="fill:none;stroke:#000000;stroke-linecap:square;stroke-width:2;"/>
    </g>
    <g id="line2d_73"/>
    <g id="text_47">
     <!-- 0.5 -->
     <g transform="translate(93.22395 73.615434375)scale(0.09996 -0.09996)">
      <use xlink:href="#DejaVuSans-30"/>
      <use x="63.623046875" xlink:href="#DejaVuSans-2e"/>
      <use x="95.41015625" xlink:href="#DejaVuSans-35"/>
     </g>
    </g>
    <g id="line2d_74">
     <path d="
M68.234 84.7891
L82.2284 84.7891" style="fill:none;stroke:#bfbf00;stroke-linecap:square;stroke-width:2;"/>
    </g>
    <g id="line2d_75"/>
    <g id="text_48">
     <!-- 0.6 -->
     <g transform="translate(93.22395 88.287688125)scale(0.09996 -0.09996)">
      <use xlink:href="#DejaVuSans-30"/>
      <use x="63.623046875" xlink:href="#DejaVuSans-2e"/>
      <use x="95.41015625" xlink:href="#DejaVuSans-36"/>
     </g>
    </g>
   </g>
  </g>
 </g>
 <defs>
  <clipPath id="pd39b4832ff">
   <rect height="230.4" width="558.0" x="56.23875" y="13.006875"/>
  </clipPath>
 </defs>
</svg>
