<?xml version="1.0" encoding="utf-8" standalone="no"?>
<!DOCTYPE svg PUBLIC "-//W3C//DTD SVG 1.1//EN"
  "http://www.w3.org/Graphics/SVG/1.1/DTD/svg11.dtd">
<!-- Created with matplotlib (http://matplotlib.org/) -->
<svg height="311pt" version="1.1" viewBox="0 0 621 311" width="621pt" xmlns="http://www.w3.org/2000/svg" xmlns:xlink="http://www.w3.org/1999/xlink">
 <defs>
  <style type="text/css">
*{stroke-linecap:butt;stroke-linejoin:round;}
  </style>
 </defs>
 <g id="figure_1">
  <g id="patch_1">
   <path d="
M0 311.719
L621.439 311.719
L621.439 0
L0 0
z
" style="fill:#ffffff;"/>
  </g>
  <g id="axes_1">
   <g id="patch_2">
    <path d="
M56.2388 243.407
L614.239 243.407
L614.239 13.0069
L56.2388 13.0069
z
" style="fill:#ffffff;"/>
   </g>
   <g id="line2d_1">
    <path clip-path="url(#p472e73a826)" d="
M118.137 221.19
L117.678 221.19
L117.22 221.519
L116.761 221.519
L116.303 221.683
L115.844 222.013
L115.386 222.013
L114.469 221.683
L114.01 221.683
L113.552 222.177
L113.093 222.177
L112.176 222.177
L111.718 222.177
L110.801 222.342
L110.342 222.342
L109.884 222.342
L109.425 222.506
L108.967 222.506
L108.508 222.506
L108.05 222.671
L107.591 222.671
L106.216 222.671
L105.757 222.671
L105.299 222.671
L104.84 222.671
L103.923 223
L103.006 223.329
L102.548 223.329
L102.089 223.494
L101.631 223.658
L100.714 223.987
L100.255 223.987
L99.7967 223.987
L99.3382 224.152
L98.8797 224.317
L98.4212 224.646
L97.5042 224.81
L97.0457 224.81
L96.5871 225.304
L96.1286 225.304
L95.6701 225.304
L95.2116 225.304
L94.7531 225.304
L94.2946 225.633
L93.3776 225.633
L92.9191 225.798
L92.4606 225.798
L92.0021 225.798
L91.5436 225.798
L91.0851 225.798
L90.6266 226.127
L90.1681 226.291
L89.7096 226.456
L89.2511 226.456
L86.5 227.279
L86.0415 227.279
L85.583 227.443
L85.1245 227.443
L84.666 227.608
L84.2075 227.608
L83.749 227.608
L83.2905 227.608
L82.832 227.608
L82.3735 227.608
L81.915 227.608
L81.4565 227.608
L80.998 228.431
L80.5395 227.114
L80.081 227.279
L79.6225 227.279
L79.164 227.279
L78.247 227.443
L77.7885 227.443
L77.33 227.937
L76.8715 227.937
L76.4129 227.937
L75.9544 227.937
L75.4959 227.937
L75.0374 227.937
L74.5789 227.937
L74.1204 227.937
L73.6619 227.937
L73.2034 228.102
L69.9939 228.266
L69.0769 228.266
L67.7014 228.266
L64.4918 228.595
L64.0333 228.76
L63.1163 228.925
L62.6578 228.925
L61.7408 229.089
L60.8238 229.254
L60.3653 229.254
L59.4483 229.254
L58.9898 229.254
L58.5313 229.254
L58.0728 229.254
L57.6143 229.254
L57.1558 229.254
L56.6973 229.418
L56.2388 229.418" style="fill:none;stroke:#ff0000;stroke-linecap:square;stroke-width:2;"/>
   </g>
   <g id="line2d_2">
    <path clip-path="url(#p472e73a826)" d="
M472.102 161.944
L459.723 161.944
L459.264 162.109
L457.889 161.944
L452.845 161.944
L452.387 162.109
L451.928 161.944
L451.47 161.944
L451.011 162.109
L450.553 161.944
L449.177 161.944
L448.719 162.109
L446.426 162.109
L445.968 161.944
L440.466 161.944
L440.007 162.109
L439.549 161.944
L436.339 161.944
L435.88 162.109
L435.422 161.944
L434.963 162.109
L434.505 161.944
L429.003 161.944
L428.544 162.109
L427.627 162.109
L427.169 162.273
L426.252 162.109
L425.793 162.273
L425.335 162.109
L423.959 162.109
L423.501 162.273
L423.042 162.109
L420.291 162.109
L419.833 162.273
L419.374 162.109
L417.082 162.109
L416.623 162.273
L385.445 162.931
L378.109 163.261
L367.563 163.261
L364.812 163.59
L362.978 163.59
L353.35 163.754
L343.263 163.754
L337.302 164.248
L333.634 164.577
L329.507 164.577
L328.59 164.906
L326.756 164.577
L315.752 164.906
L312.543 165.565
L310.709 165.729
L308.416 166.387
L306.582 167.21
L299.246 168.856
L296.954 169.185
L294.661 169.35
L293.286 169.679
L285.491 171.983
L277.696 173.629
L269.902 175.933
L269.443 175.933
L268.985 176.097
L268.526 176.426
L268.068 177.085
L267.609 177.414
L266.692 177.249
L265.775 177.578
L264.4 177.578
L263.941 177.743
L263.024 177.743
L262.566 178.072
L262.107 178.072
L261.649 178.401
L261.19 178.401
L259.815 178.237
L254.771 179.224
L253.854 179.224
L250.645 180.376
L249.728 180.376
L246.06 181.034
L245.601 181.363
L243.767 181.693
L240.099 182.845
L239.641 183.009
L239.182 183.503
L238.265 183.832
L237.348 183.832
L236.89 183.997
L235.056 184.326
L234.597 184.819
L234.139 184.984
L233.68 184.984
L232.763 185.807
L231.387 186.301
L229.553 186.301
L228.636 186.794
L227.719 186.794
L224.968 186.959
L224.51 187.453
L223.593 187.453
L218.091 187.617
L217.632 187.946
L217.174 187.782
L216.715 188.111
L216.257 188.111
L215.798 188.275
L215.34 188.605
L213.506 188.934
L211.213 188.934
L210.755 189.263
L209.838 189.263
L207.545 189.921
L205.253 190.909
L202.96 190.909
L201.126 191.238
L199.292 192.225
L198.834 192.225
L198.375 191.896
L196.541 193.213
L196.083 193.377
L195.624 193.706
L194.707 194.2
L193.79 194.2
L193.332 194.365
L192.873 194.858
L192.415 194.858
L191.956 195.187
L190.122 195.187
L189.664 196.01
L189.205 196.01
L188.747 196.339
L186.913 197.491
L183.703 198.479
L181.41 199.631
L178.201 200.289
L177.284 200.618
L175.45 200.618
L174.991 200.783
L173.616 201.441
L171.782 201.935
L171.323 202.264
L170.406 202.264
L169.489 202.593
L168.572 202.593
L165.821 202.758
L163.987 203.581
L163.529 203.581
L163.07 204.074
L162.612 204.074
L162.153 204.239
L161.695 204.239
L161.236 204.568
L158.944 205.391
L157.568 205.391
L157.11 205.555
L156.651 205.555
L156.193 205.72
L155.276 205.72
L154.817 205.885
L154.359 205.885
L153.9 206.049
L153.442 206.378
L152.983 206.378
L152.525 206.543
L152.066 206.543
L151.608 206.707
L150.691 206.707
L150.232 207.037
L149.774 207.201
L148.398 207.201
L147.481 207.53
L147.023 207.53
L146.564 207.859
L145.647 207.859
L145.189 208.024
L144.73 208.353
L144.272 208.353
L142.896 208.682
L142.438 209.011
L141.979 209.011
L141.521 206.049
L141.062 209.341
L140.604 209.67
L140.145 209.67
L139.687 209.834
L138.311 209.67
L137.853 209.834
L136.936 209.834
L136.019 210.163
L134.185 210.163
L133.726 211.48
L132.809 211.48
L132.351 211.809
L131.433 212.138
L130.058 213.126
L127.307 213.126
L126.39 213.455
L125.931 213.949
L125.014 211.974
L124.097 212.303
L123.639 212.797
L122.722 212.797
L122.263 212.961
L121.805 212.961
L120.888 213.455
L119.971 213.455
L119.054 213.784
L118.595 213.784
L118.137 214.113
L116.303 214.771
L115.844 215.101
L115.386 215.101
L114.01 215.265
L113.552 215.759
L113.093 215.923
L110.801 215.923
L109.425 216.417
L108.508 216.417
L108.05 216.582
L107.591 216.582
L104.84 216.911
L103.923 217.405
L103.006 218.227
L102.089 218.227
L101.631 218.721
L100.714 218.886
L100.255 219.215
L99.7967 219.215
L98.8797 219.544
L98.4212 219.873
L97.0457 220.038
L96.5871 220.531
L94.7531 220.531
L94.2946 220.861
L93.3776 220.861
L92.4606 221.19
L92.0021 221.19
L91.5436 221.519
L91.0851 221.519
L90.6266 221.848
L85.583 223.658
L85.1245 230.406
L84.666 223.823
L84.2075 223.823
L83.749 223.987
L81.915 223.987
L81.4565 224.152
L80.5395 224.152
L80.081 224.481
L79.164 224.481
L78.247 224.646
L77.7885 225.139
L74.1204 225.139
L73.6619 225.304
L73.2034 225.633
L69.0769 225.798
L67.7014 225.798
L64.0333 226.621
L62.6578 226.621
L61.7408 226.95
L58.5313 227.443
L57.1558 227.443
L56.6973 227.608
L56.2388 227.608
L56.2388 227.608" style="fill:none;stroke:#008000;stroke-linecap:square;stroke-width:2;"/>
   </g>
   <g id="line2d_3">
    <path clip-path="url(#p472e73a826)" d="
M614.239 94.4697
L608.278 94.4697
L607.82 94.6343
L607.361 94.4697
L595.44 94.4697
L594.982 94.6343
L588.104 94.6343
L587.645 94.7989
L587.187 95.6217
L586.728 94.7989
L583.977 94.7989
L583.519 94.6343
L583.06 94.7989
L578.934 94.7989
L576.183 95.128
L575.724 94.9634
L573.89 94.9634
L573.432 95.128
L572.973 94.9634
L572.056 94.9634
L571.598 95.128
L565.179 95.128
L561.969 95.4572
L561.511 95.6217
L561.052 95.4572
L560.135 95.4572
L559.677 95.6217
L558.301 95.6217
L557.843 95.7863
L557.384 95.6217
L554.633 95.6217
L554.175 95.7863
L550.048 95.7863
L549.59 95.9509
L549.131 95.9509
L548.214 96.1154
L545.922 95.7863
L543.629 95.7863
L543.171 95.9509
L538.127 95.9509
L517.494 96.28
L515.66 96.6092
L514.285 96.6092
L513.826 96.7737
L511.534 96.4446
L511.075 96.6092
L508.324 96.6092
L506.49 97.2674
L505.573 97.2674
L505.115 98.0903
L502.822 97.2674
L500.53 97.2674
L497.32 97.5966
L495.945 97.5966
L495.028 97.7612
L490.901 97.7612
L490.443 98.2549
L489.984 98.584
L489.526 98.7486
L488.15 98.584
L487.692 98.9132
L483.106 99.2423
L482.189 99.5714
L479.897 99.5714
L478.98 99.9006
L478.063 99.9006
L477.146 100.23
L473.478 100.23
L473.019 100.394
L472.561 100.888
L471.185 101.382
L470.727 102.04
L469.81 102.04
L469.351 102.205
L468.893 102.205
L467.976 102.534
L467.517 103.027
L466.6 103.357
L466.142 103.357
L465.683 103.686
L464.766 103.686
L464.308 103.85
L463.849 103.85
L463.391 104.179
L462.474 104.509
L462.015 104.838
L461.098 104.838
L460.181 105.167
L459.264 105.167
L458.347 105.496
L457.889 105.99
L457.43 106.154
L456.972 106.483
L456.513 106.483
L456.055 106.648
L455.596 106.648
L455.138 106.813
L454.679 106.813
L453.304 107.306
L451.011 107.306
L450.553 107.635
L450.094 107.635
L449.636 107.965
L449.177 107.965
L448.719 108.294
L448.26 108.294
L447.802 108.129
L447.343 108.129
L446.426 108.787
L445.968 108.952
L445.509 109.446
L445.051 109.775
L443.675 109.61
L443.217 109.939
L442.3 110.269
L441.841 110.269
L441.383 110.433
L440.924 110.433
L439.09 111.091
L438.173 111.256
L437.715 111.585
L437.256 111.585
L436.798 111.75
L436.339 111.585
L435.88 111.585
L434.963 111.914
L434.505 111.914
L433.588 112.243
L433.129 112.079
L432.671 112.079
L431.754 112.408
L431.295 112.408
L430.837 112.573
L430.378 112.573
L429.003 113.066
L428.544 113.725
L428.086 113.725
L427.627 113.889
L427.169 114.383
L425.793 114.712
L424.876 115.041
L423.959 115.041
L423.501 115.206
L423.042 115.206
L421.667 115.699
L421.208 115.535
L420.75 115.699
L420.291 115.699
L419.374 116.687
L418.916 116.687
L418.457 116.851
L417.999 116.687
L417.54 116.851
L417.082 117.181
L416.623 117.345
L409.287 121.13
L385.445 131.827
L378.109 137.094
L367.563 140.385
L364.812 142.031
L362.978 143.512
L353.35 146.639
L343.263 149.437
L340.97 149.93
L337.302 151.411
L334.092 152.234
L333.634 152.234
L329.507 152.893
L328.59 153.551
L326.756 153.715
L321.254 155.526
L315.752 159.146
L314.377 159.64
L312.543 160.463
L310.709 156.349
L308.416 157.83
L306.582 158.817
L299.246 161.944
L296.954 163.096
L293.286 164.083
L285.491 168.198
L281.364 169.021
L277.696 170.008
L269.902 172.477
L269.443 172.477
L268.985 172.641
L268.526 172.97
L268.068 173.629
L267.609 173.958
L266.692 173.958
L265.775 174.287
L263.024 174.616
L262.566 175.11
L262.107 175.11
L261.649 175.439
L259.815 175.439
L254.771 176.92
L253.854 176.92
L252.937 177.249
L252.479 177.578
L252.02 177.743
L250.645 178.401
L249.728 178.401
L246.06 178.895
L245.601 179.224
L243.767 179.553
L240.099 180.705
L239.641 180.87
L239.182 181.363
L238.265 181.693
L237.348 181.693
L236.89 182.022
L235.056 182.351
L234.597 182.68
L234.139 182.845
L233.68 182.845
L232.304 184.161
L231.387 184.49
L229.553 184.819
L228.636 185.313
L227.719 185.478
L224.968 185.642
L224.51 186.136
L223.593 186.136
L218.091 186.794
L217.632 187.123
L217.174 186.959
L216.715 187.288
L215.798 187.288
L215.34 187.617
L212.589 187.782
L211.672 188.111
L211.213 188.111
L210.755 188.44
L209.838 188.44
L207.545 189.921
L205.253 190.086
L202.96 190.086
L201.126 190.415
L199.292 191.402
L198.834 190.909
L198.375 190.909
L196.541 192.225
L196.083 192.39
L195.624 192.883
L194.707 193.377
L193.79 193.377
L193.332 193.542
L192.873 194.035
L192.415 194.035
L191.956 194.2
L190.581 194.365
L190.122 194.365
L189.664 195.352
L189.205 195.352
L188.747 195.681
L186.913 196.833
L183.703 197.985
L182.327 198.314
L181.41 198.973
L178.201 199.631
L177.284 199.96
L174.991 199.96
L174.074 200.618
L173.616 200.783
L172.24 200.947
L171.323 201.606
L170.406 201.606
L169.948 201.77
L169.489 202.099
L168.572 202.099
L165.821 202.264
L163.987 203.087
L163.529 203.087
L163.07 203.581
L162.612 203.581
L162.153 203.745
L161.695 203.745
L161.236 204.074
L158.944 205.062
L157.568 205.062
L156.651 205.391
L155.276 205.391
L154.817 205.555
L154.359 205.555
L153.9 205.72
L153.442 206.049
L152.983 206.049
L152.525 206.214
L152.066 206.214
L151.608 206.378
L150.691 206.378
L149.774 207.037
L148.398 207.037
L147.481 207.366
L147.023 207.366
L146.564 207.695
L145.647 207.695
L145.189 207.859
L144.73 208.189
L144.272 208.189
L142.896 208.518
L142.438 208.847
L141.521 208.847
L140.604 209.505
L140.145 209.505
L139.687 209.67
L138.311 209.505
L137.853 209.67
L136.936 209.67
L136.477 209.834
L136.019 209.834
L134.643 209.999
L134.185 209.999
L133.726 211.315
L132.809 211.315
L132.351 211.645
L131.433 211.974
L130.058 212.961
L127.307 212.961
L126.39 213.29
L125.931 213.784
L125.014 214.113
L124.556 214.113
L124.097 214.442
L123.639 214.936
L122.722 214.936
L122.263 215.101
L121.805 215.101
L120.888 215.594
L119.971 215.594
L119.054 215.923
L118.595 216.417
L118.595 216.417" style="fill:none;stroke:#0000ff;stroke-linecap:square;stroke-width:2;"/>
   </g>
   <g id="line2d_4">
    <path clip-path="url(#p472e73a826)" d="
M614.239 46.9086
L613.78 47.2377
L612.405 47.2377
L611.946 47.0732
L611.029 47.4023
L610.571 47.4023
L610.112 47.2377
L609.195 47.5669
L608.278 47.4023
L607.82 47.5669
L607.361 47.4023
L606.903 47.5669
L605.069 47.896
L604.61 47.7314
L604.152 47.7314
L603.693 47.5669
L603.235 47.7314
L602.318 47.7314
L601.859 47.896
L600.942 47.7314
L600.025 48.2252
L599.567 48.2252
L599.108 48.3897
L598.65 48.7189
L598.191 48.8834
L597.733 48.5543
L596.357 49.048
L595.899 48.8834
L595.44 49.048
L594.982 49.5417
L594.523 49.7063
L594.065 49.5417
L593.148 49.7063
L592.689 50.3646
L592.231 50.2
L591.772 50.3646
L591.314 50.6937
L590.855 50.6937
L590.397 51.1874
L589.938 50.8583
L589.48 50.8583
L589.021 51.352
L588.562 51.1874
L588.104 51.1874
L587.187 52.6686
L586.728 52.3394
L586.27 52.3394
L585.811 52.6686
L584.894 52.9977
L583.977 53.656
L583.519 54.1497
L583.06 53.9852
L582.602 54.1497
L582.143 54.4789
L581.685 54.1497
L581.226 54.4789
L578.934 54.4789
L577.558 55.7954
L575.724 56.4537
L575.266 56.2892
L574.349 57.6057
L573.89 57.4412
L573.432 57.7703
L572.973 57.6057
L572.515 57.6057
L572.056 57.7703
L571.598 57.7703
L571.139 58.5932
L570.681 59.0869
L570.222 59.416
L569.305 59.7452
L568.847 59.7452
L568.388 60.0743
L567.93 60.568
L567.471 60.568
L566.554 60.8972
L566.096 60.8972
L565.637 61.3909
L565.179 61.3909
L561.969 63.2012
L561.511 63.6949
L561.052 63.5303
L560.594 63.5303
L560.135 63.6949
L559.677 64.1886
L559.218 64.5177
L558.76 64.3532
L558.301 64.6823
L557.843 65.5052
L557.384 65.5052
L556.467 65.8343
L555.55 65.8343
L555.092 66.1634
L554.633 66.1634
L554.175 66.4926
L553.716 66.9863
L553.258 66.6572
L552.799 66.6572
L552.341 66.9863
L551.882 67.9737
L551.424 68.1383
L550.965 67.9737
L550.507 68.1383
L550.048 67.9737
L549.59 68.4674
L549.131 68.632
L548.214 68.4674
L545.922 68.3029
L545.463 68.9612
L544.546 69.784
L544.088 70.6069
L543.629 70.7714
L543.171 71.1006
L542.254 71.2652
L541.795 71.5943
L538.127 71.9234
L521.162 78.3417
L518.87 78.3417
L518.411 79.1646
L517.494 79.1646
L515.66 79.8229
L514.285 79.8229
L513.826 80.4812
L511.534 80.8103
L511.075 81.7977
L510.158 82.1269
L509.7 83.1143
L508.324 83.1143
L507.866 83.2789
L506.49 84.4309
L505.573 84.4309
L505.115 85.4183
L502.822 84.4309
L502.364 84.4309
L501.905 84.5954
L501.447 84.5954
L500.988 84.4309
L500.53 84.5954
L499.154 85.2537
L497.779 85.4183
L497.32 85.4183
L496.403 85.5829
L495.945 85.4183
L495.028 85.7474
L494.111 86.4057
L493.652 87.2286
L492.735 86.8994
L491.818 87.2286
L491.36 87.8869
L490.901 88.0514
L490.443 88.5452
L489.984 89.368
L489.526 89.6972
L488.15 89.8617
L487.692 91.1783
L482.189 93.1532
L481.731 93.1532
L480.814 93.8114
L479.897 93.8114
L478.98 94.9634
L478.063 94.9634
L477.604 95.128
L477.146 95.4572
L476.229 95.7863
L475.77 96.4446
L475.312 96.4446
L474.853 96.6092
L474.395 96.9383
L473.478 97.2674
L473.019 97.7612
L472.561 98.4194
L472.102 98.4194
L471.644 98.7486
L471.185 98.9132
L470.727 96.7737
L469.81 96.6092
L469.351 96.7737
L468.434 97.432
L467.976 97.5966
L467.517 99.4069
L467.059 100.065
L465.683 100.559
L465.225 101.053
L464.766 100.888
L464.308 100.888
L463.849 99.736
L463.391 100.065
L462.932 100.723
L462.474 100.723
L462.015 101.217
L461.557 101.382
L461.098 101.217
L459.264 101.875
L458.347 102.369
L457.889 103.027
L457.43 103.027
L456.972 103.357
L456.513 103.357
L455.138 103.85
L454.679 103.85
L453.762 104.673
L453.304 104.673
L452.845 104.838
L452.387 104.673
L451.011 104.673
L450.553 105.002
L450.094 106.154
L449.636 105.331
L449.177 105.496
L448.719 105.825
L447.802 106.154
L447.343 106.154
L446.426 107.471
L445.968 107.471
L445.509 107.965
L445.051 108.294
L443.675 108.129
L443.217 108.458
L442.758 108.952
L442.3 109.117
L441.841 109.117
L441.383 109.281
L440.924 109.281
L440.466 109.446
L440.007 109.775
L439.549 109.775
L439.09 109.939
L438.173 110.104
L437.715 110.598
L436.798 110.598
L436.339 110.433
L435.422 110.762
L434.505 110.762
L434.046 110.927
L433.588 110.927
L433.129 111.091
L432.671 111.091
L430.837 111.75
L430.378 111.75
L429.461 112.408
L429.003 112.408
L428.544 113.066
L428.086 113.066
L427.627 113.231
L427.169 113.56
L424.876 114.383
L423.959 114.383
L423.501 114.547
L423.042 114.547
L422.125 114.877
L421.667 114.877
L421.208 115.041
L420.75 114.877
L420.291 115.041
L419.374 116.029
L417.999 116.029
L417.54 116.193
L417.082 116.522
L416.623 116.687
L385.445 131.992
L378.109 137.094
L367.563 140.55
L364.812 142.031
L362.978 143.512
L353.35 146.803
L337.761 150.918
L337.302 151.247
L334.092 152.07
L333.634 152.07
L333.634 152.07" style="fill:none;stroke:#000000;stroke-linecap:square;stroke-width:2;"/>
   </g>
   <g id="line2d_5">
    <path clip-path="url(#p472e73a826)" d="
M614.239 45.4274
L613.78 45.4274
L613.322 45.592
L612.863 45.9212
L612.405 46.0857
L611.946 45.9212
L611.488 46.2503
L611.029 46.2503
L610.112 46.5794
L609.654 46.9086
L609.195 47.0732
L608.278 47.2377
L607.82 47.5669
L607.361 47.2377
L606.903 47.5669
L605.986 48.3897
L605.527 48.2252
L605.069 48.5543
L604.61 48.3897
L603.693 48.3897
L603.235 48.7189
L601.859 48.8834
L600.942 48.8834
L600.025 50.0354
L599.567 50.0354
L599.108 50.3646
L597.274 51.0229
L596.816 51.5166
L596.357 51.8457
L595.899 45.2629
L595.44 45.4274
L594.982 46.0857
L594.065 46.4149
L593.148 46.5794
L592.689 47.0732
L592.231 47.4023
L591.772 47.5669
L591.314 48.7189
L590.855 48.8834
L590.397 49.5417
L589.938 52.0103
L589.48 49.7063
L589.021 50.2
L588.562 50.0354
L588.104 50.2
L587.645 51.0229
L587.187 51.352
L586.27 51.352
L585.811 52.0103
L585.353 52.0103
L584.894 52.3394
L584.436 52.8332
L582.602 54.1497
L582.143 53.9852
L581.226 54.3143
L580.768 54.3143
L580.309 54.4789
L579.851 54.4789
L578.934 54.808
L577.558 55.96
L576.183 56.9474
L575.724 57.112
L575.266 57.112
L574.807 57.9349
L574.349 58.0994
L573.89 58.4286
L573.432 58.264
L572.515 58.5932
L572.056 58.4286
L571.598 58.5932
L571.139 59.416
L570.681 59.7452
L570.222 59.9097
L569.305 60.568
L568.847 60.4034
L568.388 61.0617
L567.93 60.8972
L567.471 61.0617
L566.554 61.72
L565.637 61.72
L565.179 62.2137
L561.969 64.024
L561.511 64.024
L561.052 64.5177
L560.135 64.1886
L559.677 64.8469
L559.218 64.8469
L558.76 65.0114
L558.301 65.5052
L557.843 66.1634
L557.384 66.328
L556.926 66.9863
L556.467 66.4926
L555.55 66.4926
L555.092 66.8217
L554.633 66.8217
L554.175 67.3154
L553.716 67.48
L553.258 67.48
L552.341 67.8092
L551.882 69.2903
L551.424 68.7966
L550.507 69.1257
L550.048 68.4674
L549.59 68.7966
L548.214 69.2903
L546.38 68.9612
L545.922 69.1257
L545.463 69.6194
L544.546 70.2777
L544.088 71.5943
L543.629 71.5943
L543.171 71.9234
L538.127 72.7463
L521.162 79.1646
L518.87 79.1646
L518.411 79.9874
L514.285 80.6457
L513.826 81.304
L511.534 81.304
L511.075 82.456
L510.158 82.7852
L509.7 83.7726
L508.324 83.7726
L507.866 84.1017
L506.49 84.9246
L506.032 84.9246
L505.573 85.0892
L505.115 85.7474
L502.822 85.0892
L502.364 85.2537
L501.905 85.0892
L500.53 85.0892
L499.154 85.912
L497.779 86.0766
L495.945 86.0766
L495.028 86.4057
L494.111 87.064
L493.652 87.5577
L492.735 87.5577
L491.818 87.8869
L491.36 88.3806
L490.901 88.3806
L489.526 90.3554
L488.15 90.3554
L487.692 91.8366
L483.106 93.8114
L481.731 93.976
L480.814 94.6343
L479.897 94.6343
L478.98 95.7863
L477.604 95.7863
L477.146 96.28
L476.229 96.6092
L475.77 97.2674
L473.478 98.0903
L472.561 99.0777
L472.561 99.0777" style="fill:none;stroke:#bfbf00;stroke-linecap:square;stroke-width:2;"/>
   </g>
   <g id="line2d_6">
    <path clip-path="url(#p472e73a826)" d="
M121.805 243.407
L121.805 13.0069" style="fill:none;stroke:#333333;stroke-linecap:square;"/>
   </g>
   <g id="line2d_7">
    <path clip-path="url(#p472e73a826)" d="
M136.477 243.407
L136.477 13.0069" style="fill:none;stroke:#cccccc;stroke-linecap:square;"/>
   </g>
   <g id="line2d_8">
    <path clip-path="url(#p472e73a826)" d="
M150.232 243.407
L150.232 13.0069" style="fill:none;stroke:#cccccc;stroke-linecap:square;"/>
   </g>
   <g id="line2d_9">
    <path clip-path="url(#p472e73a826)" d="
M165.363 243.407
L165.363 13.0069" style="fill:none;stroke:#cccccc;stroke-linecap:square;"/>
   </g>
   <g id="line2d_10">
    <path clip-path="url(#p472e73a826)" d="
M180.493 243.407
L180.493 13.0069" style="fill:none;stroke:#cccccc;stroke-linecap:square;"/>
   </g>
   <g id="line2d_11">
    <path clip-path="url(#p472e73a826)" d="
M186.454 243.407
L186.454 13.0069" style="fill:none;stroke:#cccccc;stroke-linecap:square;"/>
   </g>
   <g id="line2d_12">
    <path clip-path="url(#p472e73a826)" d="
M204.794 243.407
L204.794 13.0069" style="fill:none;stroke:#cccccc;stroke-linecap:square;"/>
   </g>
   <g id="line2d_13">
    <path clip-path="url(#p472e73a826)" d="
M220.383 243.407
L220.383 13.0069" style="fill:none;stroke:#cccccc;stroke-linecap:square;"/>
   </g>
   <g id="line2d_14">
    <path clip-path="url(#p472e73a826)" d="
M237.807 243.407
L237.807 13.0069" style="fill:none;stroke:#cccccc;stroke-linecap:square;"/>
   </g>
   <g id="line2d_15">
    <path clip-path="url(#p472e73a826)" d="
M251.562 243.407
L251.562 13.0069" style="fill:none;stroke:#cccccc;stroke-linecap:square;"/>
   </g>
   <g id="line2d_16">
    <path clip-path="url(#p472e73a826)" d="
M263.024 243.407
L263.024 13.0069" style="fill:none;stroke:#cccccc;stroke-linecap:square;"/>
   </g>
   <g id="line2d_17">
    <path clip-path="url(#p472e73a826)" d="
M278.155 243.407
L278.155 13.0069" style="fill:none;stroke:#cccccc;stroke-linecap:square;"/>
   </g>
   <g id="line2d_18">
    <path clip-path="url(#p472e73a826)" d="
M319.879 243.407
L319.879 13.0069" style="fill:none;stroke:#cccccc;stroke-linecap:square;"/>
   </g>
   <g id="line2d_19">
    <path clip-path="url(#p472e73a826)" d="
M311.626 243.407
L311.626 13.0069" style="fill:none;stroke:#333333;stroke-linecap:square;"/>
   </g>
   <g id="line2d_20">
    <path clip-path="url(#p472e73a826)" d="
M325.839 243.407
L325.839 13.0069" style="fill:none;stroke:#cccccc;stroke-linecap:square;"/>
   </g>
   <g id="line2d_21">
    <path clip-path="url(#p472e73a826)" d="
M338.678 243.407
L338.678 13.0069" style="fill:none;stroke:#cccccc;stroke-linecap:square;"/>
   </g>
   <g id="line2d_22">
    <path clip-path="url(#p472e73a826)" d="
M355.642 243.407
L355.642 13.0069" style="fill:none;stroke:#cccccc;stroke-linecap:square;"/>
   </g>
   <g id="line2d_23">
    <path clip-path="url(#p472e73a826)" d="
M385.445 243.407
L385.445 13.0069" style="fill:none;stroke:#cccccc;stroke-linecap:square;"/>
   </g>
   <g id="line2d_24">
    <path clip-path="url(#p472e73a826)" d="
M428.544 243.407
L428.544 13.0069" style="fill:none;stroke:#cccccc;stroke-linecap:square;"/>
   </g>
   <g id="line2d_25">
    <path clip-path="url(#p472e73a826)" d="
M470.268 243.407
L470.268 13.0069" style="fill:none;stroke:#cccccc;stroke-linecap:square;"/>
   </g>
   <g id="line2d_26">
    <path clip-path="url(#p472e73a826)" d="
M470.727 243.407
L470.727 13.0069" style="fill:none;stroke:#333333;stroke-linecap:square;"/>
   </g>
   <g id="line2d_27">
    <path clip-path="url(#p472e73a826)" d="
M547.297 243.407
L547.297 13.0069" style="fill:none;stroke:#cccccc;stroke-linecap:square;"/>
   </g>
   <g id="line2d_28">
    <path clip-path="url(#p472e73a826)" d="
M575.724 243.407
L575.724 13.0069" style="fill:none;stroke:#cccccc;stroke-linecap:square;"/>
   </g>
   <g id="line2d_29">
    <path clip-path="url(#p472e73a826)" d="
M595.899 243.407
L595.899 13.0069" style="fill:none;stroke:#333333;stroke-linecap:square;"/>
   </g>
   <g id="matplotlib.axis_1">
    <g id="xtick_1">
     <g id="line2d_30">
      <defs>
       <path d="
M0 0
L0 -4" id="m93b0483c22" style="stroke:#000000;stroke-width:0.5;"/>
      </defs>
      <g>
       <use style="stroke:#000000;stroke-width:0.5;" x="57.1557590386" xlink:href="#m93b0483c22" y="243.406875"/>
      </g>
     </g>
     <g id="line2d_31">
      <defs>
       <path d="
M0 0
L0 4" id="m741efc42ff" style="stroke:#000000;stroke-width:0.5;"/>
      </defs>
      <g>
       <use style="stroke:#000000;stroke-width:0.5;" x="57.1557590386" xlink:href="#m741efc42ff" y="13.006875"/>
      </g>
     </g>
     <g id="text_1">
      <!-- Apr 2014 -->
      <defs>
       <path d="
M12.4062 8.29688
L28.5156 8.29688
L28.5156 63.9219
L10.9844 60.4062
L10.9844 69.3906
L28.4219 72.9062
L38.2812 72.9062
L38.2812 8.29688
L54.3906 8.29688
L54.3906 0
L12.4062 0
z
" id="DejaVuSans-31"/>
       <path d="
M31.7812 66.4062
Q24.1719 66.4062 20.3281 58.9062
Q16.5 51.4219 16.5 36.375
Q16.5 21.3906 20.3281 13.8906
Q24.1719 6.39062 31.7812 6.39062
Q39.4531 6.39062 43.2812 13.8906
Q47.125 21.3906 47.125 36.375
Q47.125 51.4219 43.2812 58.9062
Q39.4531 66.4062 31.7812 66.4062
M31.7812 74.2188
Q44.0469 74.2188 50.5156 64.5156
Q56.9844 54.8281 56.9844 36.375
Q56.9844 17.9688 50.5156 8.26562
Q44.0469 -1.42188 31.7812 -1.42188
Q19.5312 -1.42188 13.0625 8.26562
Q6.59375 17.9688 6.59375 36.375
Q6.59375 54.8281 13.0625 64.5156
Q19.5312 74.2188 31.7812 74.2188" id="DejaVuSans-30"/>
       <path id="DejaVuSans-20"/>
       <path d="
M19.1875 8.29688
L53.6094 8.29688
L53.6094 0
L7.32812 0
L7.32812 8.29688
Q12.9375 14.1094 22.625 23.8906
Q32.3281 33.6875 34.8125 36.5312
Q39.5469 41.8438 41.4219 45.5312
Q43.3125 49.2188 43.3125 52.7812
Q43.3125 58.5938 39.2344 62.25
Q35.1562 65.9219 28.6094 65.9219
Q23.9688 65.9219 18.8125 64.3125
Q13.6719 62.7031 7.8125 59.4219
L7.8125 69.3906
Q13.7656 71.7812 18.9375 73
Q24.125 74.2188 28.4219 74.2188
Q39.75 74.2188 46.4844 68.5469
Q53.2188 62.8906 53.2188 53.4219
Q53.2188 48.9219 51.5312 44.8906
Q49.8594 40.875 45.4062 35.4062
Q44.1875 33.9844 37.6406 27.2188
Q31.1094 20.4531 19.1875 8.29688" id="DejaVuSans-32"/>
       <path d="
M34.1875 63.1875
L20.7969 26.9062
L47.6094 26.9062
z

M28.6094 72.9062
L39.7969 72.9062
L67.5781 0
L57.3281 0
L50.6875 18.7031
L17.8281 18.7031
L11.1875 0
L0.78125 0
z
" id="DejaVuSans-41"/>
       <path d="
M37.7969 64.3125
L12.8906 25.3906
L37.7969 25.3906
z

M35.2031 72.9062
L47.6094 72.9062
L47.6094 25.3906
L58.0156 25.3906
L58.0156 17.1875
L47.6094 17.1875
L47.6094 0
L37.7969 0
L37.7969 17.1875
L4.89062 17.1875
L4.89062 26.7031
z
" id="DejaVuSans-34"/>
       <path d="
M18.1094 8.20312
L18.1094 -20.7969
L9.07812 -20.7969
L9.07812 54.6875
L18.1094 54.6875
L18.1094 46.3906
Q20.9531 51.2656 25.2656 53.625
Q29.5938 56 35.5938 56
Q45.5625 56 51.7812 48.0938
Q58.0156 40.1875 58.0156 27.2969
Q58.0156 14.4062 51.7812 6.48438
Q45.5625 -1.42188 35.5938 -1.42188
Q29.5938 -1.42188 25.2656 0.953125
Q20.9531 3.32812 18.1094 8.20312
M48.6875 27.2969
Q48.6875 37.2031 44.6094 42.8438
Q40.5312 48.4844 33.4062 48.4844
Q26.2656 48.4844 22.1875 42.8438
Q18.1094 37.2031 18.1094 27.2969
Q18.1094 17.3906 22.1875 11.75
Q26.2656 6.10938 33.4062 6.10938
Q40.5312 6.10938 44.6094 11.75
Q48.6875 17.3906 48.6875 27.2969" id="DejaVuSans-70"/>
       <path d="
M41.1094 46.2969
Q39.5938 47.1719 37.8125 47.5781
Q36.0312 48 33.8906 48
Q26.2656 48 22.1875 43.0469
Q18.1094 38.0938 18.1094 28.8125
L18.1094 0
L9.07812 0
L9.07812 54.6875
L18.1094 54.6875
L18.1094 46.1875
Q20.9531 51.1719 25.4844 53.5781
Q30.0312 56 36.5312 56
Q37.4531 56 38.5781 55.875
Q39.7031 55.7656 41.0625 55.5156
z
" id="DejaVuSans-72"/>
      </defs>
      <g transform="translate(60.4670090386 301.8475)rotate(-90.0)scale(0.12 -0.12)">
       <use xlink:href="#DejaVuSans-41"/>
       <use x="68.408203125" xlink:href="#DejaVuSans-70"/>
       <use x="131.884765625" xlink:href="#DejaVuSans-72"/>
       <use x="172.998046875" xlink:href="#DejaVuSans-20"/>
       <use x="204.78515625" xlink:href="#DejaVuSans-32"/>
       <use x="268.408203125" xlink:href="#DejaVuSans-30"/>
       <use x="332.03125" xlink:href="#DejaVuSans-31"/>
       <use x="395.654296875" xlink:href="#DejaVuSans-34"/>
      </g>
     </g>
    </g>
    <g id="xtick_2">
     <g id="line2d_32">
      <g>
       <use style="stroke:#000000;stroke-width:0.5;" x="113.093310394" xlink:href="#m93b0483c22" y="243.406875"/>
      </g>
     </g>
     <g id="line2d_33">
      <g>
       <use style="stroke:#000000;stroke-width:0.5;" x="113.093310394" xlink:href="#m741efc42ff" y="13.006875"/>
      </g>
     </g>
     <g id="text_2">
      <!-- Aug 2014 -->
      <defs>
       <path d="
M8.5 21.5781
L8.5 54.6875
L17.4844 54.6875
L17.4844 21.9219
Q17.4844 14.1562 20.5 10.2656
Q23.5312 6.39062 29.5938 6.39062
Q36.8594 6.39062 41.0781 11.0312
Q45.3125 15.6719 45.3125 23.6875
L45.3125 54.6875
L54.2969 54.6875
L54.2969 0
L45.3125 0
L45.3125 8.40625
Q42.0469 3.42188 37.7188 1
Q33.4062 -1.42188 27.6875 -1.42188
Q18.2656 -1.42188 13.375 4.4375
Q8.5 10.2969 8.5 21.5781
M31.1094 56
z
" id="DejaVuSans-75"/>
       <path d="
M45.4062 27.9844
Q45.4062 37.75 41.375 43.1094
Q37.3594 48.4844 30.0781 48.4844
Q22.8594 48.4844 18.8281 43.1094
Q14.7969 37.75 14.7969 27.9844
Q14.7969 18.2656 18.8281 12.8906
Q22.8594 7.51562 30.0781 7.51562
Q37.3594 7.51562 41.375 12.8906
Q45.4062 18.2656 45.4062 27.9844
M54.3906 6.78125
Q54.3906 -7.17188 48.1875 -13.9844
Q42 -20.7969 29.2031 -20.7969
Q24.4688 -20.7969 20.2656 -20.0938
Q16.0625 -19.3906 12.1094 -17.9219
L12.1094 -9.1875
Q16.0625 -11.3281 19.9219 -12.3438
Q23.7812 -13.375 27.7812 -13.375
Q36.625 -13.375 41.0156 -8.76562
Q45.4062 -4.15625 45.4062 5.17188
L45.4062 9.625
Q42.625 4.78125 38.2812 2.39062
Q33.9375 0 27.875 0
Q17.8281 0 11.6719 7.65625
Q5.51562 15.3281 5.51562 27.9844
Q5.51562 40.6719 11.6719 48.3281
Q17.8281 56 27.875 56
Q33.9375 56 38.2812 53.6094
Q42.625 51.2188 45.4062 46.3906
L45.4062 54.6875
L54.3906 54.6875
z
" id="DejaVuSans-67"/>
      </defs>
      <g transform="translate(116.404560394 304.519375)rotate(-90.0)scale(0.12 -0.12)">
       <use xlink:href="#DejaVuSans-41"/>
       <use x="68.408203125" xlink:href="#DejaVuSans-75"/>
       <use x="131.787109375" xlink:href="#DejaVuSans-67"/>
       <use x="195.263671875" xlink:href="#DejaVuSans-20"/>
       <use x="227.05078125" xlink:href="#DejaVuSans-32"/>
       <use x="290.673828125" xlink:href="#DejaVuSans-30"/>
       <use x="354.296875" xlink:href="#DejaVuSans-31"/>
       <use x="417.919921875" xlink:href="#DejaVuSans-34"/>
      </g>
     </g>
    </g>
    <g id="xtick_3">
     <g id="line2d_34">
      <g>
       <use style="stroke:#000000;stroke-width:0.5;" x="169.03086175" xlink:href="#m93b0483c22" y="243.406875"/>
      </g>
     </g>
     <g id="line2d_35">
      <g>
       <use style="stroke:#000000;stroke-width:0.5;" x="169.03086175" xlink:href="#m741efc42ff" y="13.006875"/>
      </g>
     </g>
     <g id="text_3">
      <!-- Dec 2014 -->
      <defs>
       <path d="
M19.6719 64.7969
L19.6719 8.10938
L31.5938 8.10938
Q46.6875 8.10938 53.6875 14.9375
Q60.6875 21.7812 60.6875 36.5312
Q60.6875 51.1719 53.6875 57.9844
Q46.6875 64.7969 31.5938 64.7969
z

M9.8125 72.9062
L30.0781 72.9062
Q51.2656 72.9062 61.1719 64.0938
Q71.0938 55.2812 71.0938 36.5312
Q71.0938 17.6719 61.125 8.82812
Q51.1719 0 30.0781 0
L9.8125 0
z
" id="DejaVuSans-44"/>
       <path d="
M56.2031 29.5938
L56.2031 25.2031
L14.8906 25.2031
Q15.4844 15.9219 20.4844 11.0625
Q25.4844 6.20312 34.4219 6.20312
Q39.5938 6.20312 44.4531 7.46875
Q49.3125 8.73438 54.1094 11.2812
L54.1094 2.78125
Q49.2656 0.734375 44.1875 -0.34375
Q39.1094 -1.42188 33.8906 -1.42188
Q20.7969 -1.42188 13.1562 6.1875
Q5.51562 13.8125 5.51562 26.8125
Q5.51562 40.2344 12.7656 48.1094
Q20.0156 56 32.3281 56
Q43.3594 56 49.7812 48.8906
Q56.2031 41.7969 56.2031 29.5938
M47.2188 32.2344
Q47.125 39.5938 43.0938 43.9844
Q39.0625 48.3906 32.4219 48.3906
Q24.9062 48.3906 20.3906 44.1406
Q15.875 39.8906 15.1875 32.1719
z
" id="DejaVuSans-65"/>
       <path d="
M48.7812 52.5938
L48.7812 44.1875
Q44.9688 46.2969 41.1406 47.3438
Q37.3125 48.3906 33.4062 48.3906
Q24.6562 48.3906 19.8125 42.8438
Q14.9844 37.3125 14.9844 27.2969
Q14.9844 17.2812 19.8125 11.7344
Q24.6562 6.20312 33.4062 6.20312
Q37.3125 6.20312 41.1406 7.25
Q44.9688 8.29688 48.7812 10.4062
L48.7812 2.09375
Q45.0156 0.34375 40.9844 -0.53125
Q36.9688 -1.42188 32.4219 -1.42188
Q20.0625 -1.42188 12.7812 6.34375
Q5.51562 14.1094 5.51562 27.2969
Q5.51562 40.6719 12.8594 48.3281
Q20.2188 56 33.0156 56
Q37.1562 56 41.1094 55.1406
Q45.0625 54.2969 48.7812 52.5938" id="DejaVuSans-63"/>
      </defs>
      <g transform="translate(172.34211175 304.309375)rotate(-90.0)scale(0.12 -0.12)">
       <use xlink:href="#DejaVuSans-44"/>
       <use x="77.001953125" xlink:href="#DejaVuSans-65"/>
       <use x="138.525390625" xlink:href="#DejaVuSans-63"/>
       <use x="193.505859375" xlink:href="#DejaVuSans-20"/>
       <use x="225.29296875" xlink:href="#DejaVuSans-32"/>
       <use x="288.916015625" xlink:href="#DejaVuSans-30"/>
       <use x="352.5390625" xlink:href="#DejaVuSans-31"/>
       <use x="416.162109375" xlink:href="#DejaVuSans-34"/>
      </g>
     </g>
    </g>
    <g id="xtick_4">
     <g id="line2d_36">
      <g>
       <use style="stroke:#000000;stroke-width:0.5;" x="224.509908587" xlink:href="#m93b0483c22" y="243.406875"/>
      </g>
     </g>
     <g id="line2d_37">
      <g>
       <use style="stroke:#000000;stroke-width:0.5;" x="224.509908587" xlink:href="#m741efc42ff" y="13.006875"/>
      </g>
     </g>
     <g id="text_4">
      <!-- Apr 2015 -->
      <defs>
       <path d="
M10.7969 72.9062
L49.5156 72.9062
L49.5156 64.5938
L19.8281 64.5938
L19.8281 46.7344
Q21.9688 47.4688 24.1094 47.8281
Q26.2656 48.1875 28.4219 48.1875
Q40.625 48.1875 47.75 41.5
Q54.8906 34.8125 54.8906 23.3906
Q54.8906 11.625 47.5625 5.09375
Q40.2344 -1.42188 26.9062 -1.42188
Q22.3125 -1.42188 17.5469 -0.640625
Q12.7969 0.140625 7.71875 1.70312
L7.71875 11.625
Q12.1094 9.23438 16.7969 8.0625
Q21.4844 6.89062 26.7031 6.89062
Q35.1562 6.89062 40.0781 11.3281
Q45.0156 15.7656 45.0156 23.3906
Q45.0156 31 40.0781 35.4375
Q35.1562 39.8906 26.7031 39.8906
Q22.75 39.8906 18.8125 39.0156
Q14.8906 38.1406 10.7969 36.2812
z
" id="DejaVuSans-35"/>
      </defs>
      <g transform="translate(227.821158587 301.4725)rotate(-90.0)scale(0.12 -0.12)">
       <use xlink:href="#DejaVuSans-41"/>
       <use x="68.408203125" xlink:href="#DejaVuSans-70"/>
       <use x="131.884765625" xlink:href="#DejaVuSans-72"/>
       <use x="172.998046875" xlink:href="#DejaVuSans-20"/>
       <use x="204.78515625" xlink:href="#DejaVuSans-32"/>
       <use x="268.408203125" xlink:href="#DejaVuSans-30"/>
       <use x="332.03125" xlink:href="#DejaVuSans-31"/>
       <use x="395.654296875" xlink:href="#DejaVuSans-35"/>
      </g>
     </g>
    </g>
    <g id="xtick_5">
     <g id="line2d_38">
      <g>
       <use style="stroke:#000000;stroke-width:0.5;" x="280.447459942" xlink:href="#m93b0483c22" y="243.406875"/>
      </g>
     </g>
     <g id="line2d_39">
      <g>
       <use style="stroke:#000000;stroke-width:0.5;" x="280.447459942" xlink:href="#m741efc42ff" y="13.006875"/>
      </g>
     </g>
     <g id="text_5">
      <!-- Aug 2015 -->
      <g transform="translate(283.758709942 304.144375)rotate(-90.0)scale(0.12 -0.12)">
       <use xlink:href="#DejaVuSans-41"/>
       <use x="68.408203125" xlink:href="#DejaVuSans-75"/>
       <use x="131.787109375" xlink:href="#DejaVuSans-67"/>
       <use x="195.263671875" xlink:href="#DejaVuSans-20"/>
       <use x="227.05078125" xlink:href="#DejaVuSans-32"/>
       <use x="290.673828125" xlink:href="#DejaVuSans-30"/>
       <use x="354.296875" xlink:href="#DejaVuSans-31"/>
       <use x="417.919921875" xlink:href="#DejaVuSans-35"/>
      </g>
     </g>
    </g>
    <g id="xtick_6">
     <g id="line2d_40">
      <g>
       <use style="stroke:#000000;stroke-width:0.5;" x="336.385011298" xlink:href="#m93b0483c22" y="243.406875"/>
      </g>
     </g>
     <g id="line2d_41">
      <g>
       <use style="stroke:#000000;stroke-width:0.5;" x="336.385011298" xlink:href="#m741efc42ff" y="13.006875"/>
      </g>
     </g>
     <g id="text_6">
      <!-- Dec 2015 -->
      <g transform="translate(339.696261298 303.934375)rotate(-90.0)scale(0.12 -0.12)">
       <use xlink:href="#DejaVuSans-44"/>
       <use x="77.001953125" xlink:href="#DejaVuSans-65"/>
       <use x="138.525390625" xlink:href="#DejaVuSans-63"/>
       <use x="193.505859375" xlink:href="#DejaVuSans-20"/>
       <use x="225.29296875" xlink:href="#DejaVuSans-32"/>
       <use x="288.916015625" xlink:href="#DejaVuSans-30"/>
       <use x="352.5390625" xlink:href="#DejaVuSans-31"/>
       <use x="416.162109375" xlink:href="#DejaVuSans-35"/>
      </g>
     </g>
    </g>
    <g id="xtick_7">
     <g id="line2d_42">
      <g>
       <use style="stroke:#000000;stroke-width:0.5;" x="392.322562654" xlink:href="#m93b0483c22" y="243.406875"/>
      </g>
     </g>
     <g id="line2d_43">
      <g>
       <use style="stroke:#000000;stroke-width:0.5;" x="392.322562654" xlink:href="#m741efc42ff" y="13.006875"/>
      </g>
     </g>
     <g id="text_7">
      <!-- Apr 2016 -->
      <defs>
       <path d="
M33.0156 40.375
Q26.375 40.375 22.4844 35.8281
Q18.6094 31.2969 18.6094 23.3906
Q18.6094 15.5312 22.4844 10.9531
Q26.375 6.39062 33.0156 6.39062
Q39.6562 6.39062 43.5312 10.9531
Q47.4062 15.5312 47.4062 23.3906
Q47.4062 31.2969 43.5312 35.8281
Q39.6562 40.375 33.0156 40.375
M52.5938 71.2969
L52.5938 62.3125
Q48.875 64.0625 45.0938 64.9844
Q41.3125 65.9219 37.5938 65.9219
Q27.8281 65.9219 22.6719 59.3281
Q17.5312 52.7344 16.7969 39.4062
Q19.6719 43.6562 24.0156 45.9219
Q28.375 48.1875 33.5938 48.1875
Q44.5781 48.1875 50.9531 41.5156
Q57.3281 34.8594 57.3281 23.3906
Q57.3281 12.1562 50.6875 5.35938
Q44.0469 -1.42188 33.0156 -1.42188
Q20.3594 -1.42188 13.6719 8.26562
Q6.98438 17.9688 6.98438 36.375
Q6.98438 53.6562 15.1875 63.9375
Q23.3906 74.2188 37.2031 74.2188
Q40.9219 74.2188 44.7031 73.4844
Q48.4844 72.75 52.5938 71.2969" id="DejaVuSans-36"/>
      </defs>
      <g transform="translate(395.633812654 301.765)rotate(-90.0)scale(0.12 -0.12)">
       <use xlink:href="#DejaVuSans-41"/>
       <use x="68.408203125" xlink:href="#DejaVuSans-70"/>
       <use x="131.884765625" xlink:href="#DejaVuSans-72"/>
       <use x="172.998046875" xlink:href="#DejaVuSans-20"/>
       <use x="204.78515625" xlink:href="#DejaVuSans-32"/>
       <use x="268.408203125" xlink:href="#DejaVuSans-30"/>
       <use x="332.03125" xlink:href="#DejaVuSans-31"/>
       <use x="395.654296875" xlink:href="#DejaVuSans-36"/>
      </g>
     </g>
    </g>
    <g id="xtick_8">
     <g id="line2d_44">
      <g>
       <use style="stroke:#000000;stroke-width:0.5;" x="448.26011401" xlink:href="#m93b0483c22" y="243.406875"/>
      </g>
     </g>
     <g id="line2d_45">
      <g>
       <use style="stroke:#000000;stroke-width:0.5;" x="448.26011401" xlink:href="#m741efc42ff" y="13.006875"/>
      </g>
     </g>
     <g id="text_8">
      <!-- Aug 2016 -->
      <g transform="translate(451.57136401 304.436875)rotate(-90.0)scale(0.12 -0.12)">
       <use xlink:href="#DejaVuSans-41"/>
       <use x="68.408203125" xlink:href="#DejaVuSans-75"/>
       <use x="131.787109375" xlink:href="#DejaVuSans-67"/>
       <use x="195.263671875" xlink:href="#DejaVuSans-20"/>
       <use x="227.05078125" xlink:href="#DejaVuSans-32"/>
       <use x="290.673828125" xlink:href="#DejaVuSans-30"/>
       <use x="354.296875" xlink:href="#DejaVuSans-31"/>
       <use x="417.919921875" xlink:href="#DejaVuSans-36"/>
      </g>
     </g>
    </g>
    <g id="xtick_9">
     <g id="line2d_46">
      <g>
       <use style="stroke:#000000;stroke-width:0.5;" x="504.197665366" xlink:href="#m93b0483c22" y="243.406875"/>
      </g>
     </g>
     <g id="line2d_47">
      <g>
       <use style="stroke:#000000;stroke-width:0.5;" x="504.197665366" xlink:href="#m741efc42ff" y="13.006875"/>
      </g>
     </g>
     <g id="text_9">
      <!-- Dec 2016 -->
      <g transform="translate(507.508915366 304.226875)rotate(-90.0)scale(0.12 -0.12)">
       <use xlink:href="#DejaVuSans-44"/>
       <use x="77.001953125" xlink:href="#DejaVuSans-65"/>
       <use x="138.525390625" xlink:href="#DejaVuSans-63"/>
       <use x="193.505859375" xlink:href="#DejaVuSans-20"/>
       <use x="225.29296875" xlink:href="#DejaVuSans-32"/>
       <use x="288.916015625" xlink:href="#DejaVuSans-30"/>
       <use x="352.5390625" xlink:href="#DejaVuSans-31"/>
       <use x="416.162109375" xlink:href="#DejaVuSans-36"/>
      </g>
     </g>
    </g>
    <g id="xtick_10">
     <g id="line2d_48">
      <g>
       <use style="stroke:#000000;stroke-width:0.5;" x="559.676712202" xlink:href="#m93b0483c22" y="243.406875"/>
      </g>
     </g>
     <g id="line2d_49">
      <g>
       <use style="stroke:#000000;stroke-width:0.5;" x="559.676712202" xlink:href="#m741efc42ff" y="13.006875"/>
      </g>
     </g>
     <g id="text_10">
      <!-- Apr 2017 -->
      <defs>
       <path d="
M8.20312 72.9062
L55.0781 72.9062
L55.0781 68.7031
L28.6094 0
L18.3125 0
L43.2188 64.5938
L8.20312 64.5938
z
" id="DejaVuSans-37"/>
      </defs>
      <g transform="translate(562.987962202 301.495)rotate(-90.0)scale(0.12 -0.12)">
       <use xlink:href="#DejaVuSans-41"/>
       <use x="68.408203125" xlink:href="#DejaVuSans-70"/>
       <use x="131.884765625" xlink:href="#DejaVuSans-72"/>
       <use x="172.998046875" xlink:href="#DejaVuSans-20"/>
       <use x="204.78515625" xlink:href="#DejaVuSans-32"/>
       <use x="268.408203125" xlink:href="#DejaVuSans-30"/>
       <use x="332.03125" xlink:href="#DejaVuSans-31"/>
       <use x="395.654296875" xlink:href="#DejaVuSans-37"/>
      </g>
     </g>
    </g>
   </g>
   <g id="matplotlib.axis_2">
    <g id="ytick_1">
     <g id="line2d_50">
      <defs>
       <path d="
M0 0
L4 0" id="m728421d6d4" style="stroke:#000000;stroke-width:0.5;"/>
      </defs>
      <g>
       <use style="stroke:#000000;stroke-width:0.5;" x="56.23875" xlink:href="#m728421d6d4" y="243.406875"/>
      </g>
     </g>
     <g id="line2d_51">
      <defs>
       <path d="
M0 0
L-4 0" id="mcb0005524f" style="stroke:#000000;stroke-width:0.5;"/>
      </defs>
      <g>
       <use style="stroke:#000000;stroke-width:0.5;" x="614.23875" xlink:href="#mcb0005524f" y="243.406875"/>
      </g>
     </g>
     <g id="text_11">
      <!-- 200 -->
      <g transform="translate(31.01 246.718125)scale(0.12 -0.12)">
       <use xlink:href="#DejaVuSans-32"/>
       <use x="63.623046875" xlink:href="#DejaVuSans-30"/>
       <use x="127.24609375" xlink:href="#DejaVuSans-30"/>
      </g>
     </g>
    </g>
    <g id="ytick_2">
     <g id="line2d_52">
      <g>
       <use style="stroke:#000000;stroke-width:0.5;" x="56.23875" xlink:href="#m728421d6d4" y="210.492589286"/>
      </g>
     </g>
     <g id="line2d_53">
      <g>
       <use style="stroke:#000000;stroke-width:0.5;" x="614.23875" xlink:href="#mcb0005524f" y="210.492589286"/>
      </g>
     </g>
     <g id="text_12">
      <!-- 400 -->
      <g transform="translate(30.7175 213.803839286)scale(0.12 -0.12)">
       <use xlink:href="#DejaVuSans-34"/>
       <use x="63.623046875" xlink:href="#DejaVuSans-30"/>
       <use x="127.24609375" xlink:href="#DejaVuSans-30"/>
      </g>
     </g>
    </g>
    <g id="ytick_3">
     <g id="line2d_54">
      <g>
       <use style="stroke:#000000;stroke-width:0.5;" x="56.23875" xlink:href="#m728421d6d4" y="177.578303571"/>
      </g>
     </g>
     <g id="line2d_55">
      <g>
       <use style="stroke:#000000;stroke-width:0.5;" x="614.23875" xlink:href="#mcb0005524f" y="177.578303571"/>
      </g>
     </g>
     <g id="text_13">
      <!-- 600 -->
      <g transform="translate(30.96875 180.889553571)scale(0.12 -0.12)">
       <use xlink:href="#DejaVuSans-36"/>
       <use x="63.623046875" xlink:href="#DejaVuSans-30"/>
       <use x="127.24609375" xlink:href="#DejaVuSans-30"/>
      </g>
     </g>
    </g>
    <g id="ytick_4">
     <g id="line2d_56">
      <g>
       <use style="stroke:#000000;stroke-width:0.5;" x="56.23875" xlink:href="#m728421d6d4" y="144.664017857"/>
      </g>
     </g>
     <g id="line2d_57">
      <g>
       <use style="stroke:#000000;stroke-width:0.5;" x="614.23875" xlink:href="#mcb0005524f" y="144.664017857"/>
      </g>
     </g>
     <g id="text_14">
      <!-- 800 -->
      <defs>
       <path d="
M31.7812 34.625
Q24.75 34.625 20.7188 30.8594
Q16.7031 27.0938 16.7031 20.5156
Q16.7031 13.9219 20.7188 10.1562
Q24.75 6.39062 31.7812 6.39062
Q38.8125 6.39062 42.8594 10.1719
Q46.9219 13.9688 46.9219 20.5156
Q46.9219 27.0938 42.8906 30.8594
Q38.875 34.625 31.7812 34.625
M21.9219 38.8125
Q15.5781 40.375 12.0312 44.7188
Q8.5 49.0781 8.5 55.3281
Q8.5 64.0625 14.7188 69.1406
Q20.9531 74.2188 31.7812 74.2188
Q42.6719 74.2188 48.875 69.1406
Q55.0781 64.0625 55.0781 55.3281
Q55.0781 49.0781 51.5312 44.7188
Q48 40.375 41.7031 38.8125
Q48.8281 37.1562 52.7969 32.3125
Q56.7812 27.4844 56.7812 20.5156
Q56.7812 9.90625 50.3125 4.23438
Q43.8438 -1.42188 31.7812 -1.42188
Q19.7344 -1.42188 13.25 4.23438
Q6.78125 9.90625 6.78125 20.5156
Q6.78125 27.4844 10.7812 32.3125
Q14.7969 37.1562 21.9219 38.8125
M18.3125 54.3906
Q18.3125 48.7344 21.8438 45.5625
Q25.3906 42.3906 31.7812 42.3906
Q38.1406 42.3906 41.7188 45.5625
Q45.3125 48.7344 45.3125 54.3906
Q45.3125 60.0625 41.7188 63.2344
Q38.1406 66.4062 31.7812 66.4062
Q25.3906 66.4062 21.8438 63.2344
Q18.3125 60.0625 18.3125 54.3906" id="DejaVuSans-38"/>
      </defs>
      <g transform="translate(30.944375 147.975267857)scale(0.12 -0.12)">
       <use xlink:href="#DejaVuSans-38"/>
       <use x="63.623046875" xlink:href="#DejaVuSans-30"/>
       <use x="127.24609375" xlink:href="#DejaVuSans-30"/>
      </g>
     </g>
    </g>
    <g id="ytick_5">
     <g id="line2d_58">
      <g>
       <use style="stroke:#000000;stroke-width:0.5;" x="56.23875" xlink:href="#m728421d6d4" y="111.749732143"/>
      </g>
     </g>
     <g id="line2d_59">
      <g>
       <use style="stroke:#000000;stroke-width:0.5;" x="614.23875" xlink:href="#mcb0005524f" y="111.749732143"/>
      </g>
     </g>
     <g id="text_15">
      <!-- 1000 -->
      <g transform="translate(23.81375 115.060982143)scale(0.12 -0.12)">
       <use xlink:href="#DejaVuSans-31"/>
       <use x="63.623046875" xlink:href="#DejaVuSans-30"/>
       <use x="127.24609375" xlink:href="#DejaVuSans-30"/>
       <use x="190.869140625" xlink:href="#DejaVuSans-30"/>
      </g>
     </g>
    </g>
    <g id="ytick_6">
     <g id="line2d_60">
      <g>
       <use style="stroke:#000000;stroke-width:0.5;" x="56.23875" xlink:href="#m728421d6d4" y="78.8354464286"/>
      </g>
     </g>
     <g id="line2d_61">
      <g>
       <use style="stroke:#000000;stroke-width:0.5;" x="614.23875" xlink:href="#mcb0005524f" y="78.8354464286"/>
      </g>
     </g>
     <g id="text_16">
      <!-- 1200 -->
      <g transform="translate(23.81375 82.1466964286)scale(0.12 -0.12)">
       <use xlink:href="#DejaVuSans-31"/>
       <use x="63.623046875" xlink:href="#DejaVuSans-32"/>
       <use x="127.24609375" xlink:href="#DejaVuSans-30"/>
       <use x="190.869140625" xlink:href="#DejaVuSans-30"/>
      </g>
     </g>
    </g>
    <g id="ytick_7">
     <g id="line2d_62">
      <g>
       <use style="stroke:#000000;stroke-width:0.5;" x="56.23875" xlink:href="#m728421d6d4" y="45.9211607143"/>
      </g>
     </g>
     <g id="line2d_63">
      <g>
       <use style="stroke:#000000;stroke-width:0.5;" x="614.23875" xlink:href="#mcb0005524f" y="45.9211607143"/>
      </g>
     </g>
     <g id="text_17">
      <!-- 1400 -->
      <g transform="translate(23.81375 49.2324107143)scale(0.12 -0.12)">
       <use xlink:href="#DejaVuSans-31"/>
       <use x="63.623046875" xlink:href="#DejaVuSans-34"/>
       <use x="127.24609375" xlink:href="#DejaVuSans-30"/>
       <use x="190.869140625" xlink:href="#DejaVuSans-30"/>
      </g>
     </g>
    </g>
    <g id="ytick_8">
     <g id="line2d_64">
      <g>
       <use style="stroke:#000000;stroke-width:0.5;" x="56.23875" xlink:href="#m728421d6d4" y="13.006875"/>
      </g>
     </g>
     <g id="line2d_65">
      <g>
       <use style="stroke:#000000;stroke-width:0.5;" x="614.23875" xlink:href="#mcb0005524f" y="13.006875"/>
      </g>
     </g>
     <g id="text_18">
      <!-- 1600 -->
      <g transform="translate(23.81375 16.318125)scale(0.12 -0.12)">
       <use xlink:href="#DejaVuSans-31"/>
       <use x="63.623046875" xlink:href="#DejaVuSans-36"/>
       <use x="127.24609375" xlink:href="#DejaVuSans-30"/>
       <use x="190.869140625" xlink:href="#DejaVuSans-30"/>
      </g>
     </g>
    </g>
    <g id="text_19">
     <!-- Number of Tagged Packages -->
     <defs>
      <path d="
M9.8125 72.9062
L23.0938 72.9062
L55.4219 11.9219
L55.4219 72.9062
L64.9844 72.9062
L64.9844 0
L51.7031 0
L19.3906 60.9844
L19.3906 0
L9.8125 0
z
" id="DejaVuSans-4e"/>
      <path d="
M19.6719 64.7969
L19.6719 37.4062
L32.0781 37.4062
Q38.9688 37.4062 42.7188 40.9688
Q46.4844 44.5312 46.4844 51.125
Q46.4844 57.6719 42.7188 61.2344
Q38.9688 64.7969 32.0781 64.7969
z

M9.8125 72.9062
L32.0781 72.9062
Q44.3438 72.9062 50.6094 67.3594
Q56.8906 61.8125 56.8906 51.125
Q56.8906 40.3281 50.6094 34.8125
Q44.3438 29.2969 32.0781 29.2969
L19.6719 29.2969
L19.6719 0
L9.8125 0
z
" id="DejaVuSans-50"/>
      <path d="
M30.6094 48.3906
Q23.3906 48.3906 19.1875 42.75
Q14.9844 37.1094 14.9844 27.2969
Q14.9844 17.4844 19.1562 11.8438
Q23.3438 6.20312 30.6094 6.20312
Q37.7969 6.20312 41.9844 11.8594
Q46.1875 17.5312 46.1875 27.2969
Q46.1875 37.0156 41.9844 42.7031
Q37.7969 48.3906 30.6094 48.3906
M30.6094 56
Q42.3281 56 49.0156 48.375
Q55.7188 40.7656 55.7188 27.2969
Q55.7188 13.875 49.0156 6.21875
Q42.3281 -1.42188 30.6094 -1.42188
Q18.8438 -1.42188 12.1719 6.21875
Q5.51562 13.875 5.51562 27.2969
Q5.51562 40.7656 12.1719 48.375
Q18.8438 56 30.6094 56" id="DejaVuSans-6f"/>
      <path d="
M52 44.1875
Q55.375 50.25 60.0625 53.125
Q64.75 56 71.0938 56
Q79.6406 56 84.2812 50.0156
Q88.9219 44.0469 88.9219 33.0156
L88.9219 0
L79.8906 0
L79.8906 32.7188
Q79.8906 40.5781 77.0938 44.375
Q74.3125 48.1875 68.6094 48.1875
Q61.625 48.1875 57.5625 43.5469
Q53.5156 38.9219 53.5156 30.9062
L53.5156 0
L44.4844 0
L44.4844 32.7188
Q44.4844 40.625 41.7031 44.4062
Q38.9219 48.1875 33.1094 48.1875
Q26.2188 48.1875 22.1562 43.5312
Q18.1094 38.875 18.1094 30.9062
L18.1094 0
L9.07812 0
L9.07812 54.6875
L18.1094 54.6875
L18.1094 46.1875
Q21.1875 51.2188 25.4844 53.6094
Q29.7812 56 35.6875 56
Q41.6562 56 45.8281 52.9688
Q50 49.9531 52 44.1875" id="DejaVuSans-6d"/>
      <path d="
M9.07812 75.9844
L18.1094 75.9844
L18.1094 31.1094
L44.9219 54.6875
L56.3906 54.6875
L27.3906 29.1094
L57.625 0
L45.9062 0
L18.1094 26.7031
L18.1094 0
L9.07812 0
z
" id="DejaVuSans-6b"/>
      <path d="
M37.1094 75.9844
L37.1094 68.5
L28.5156 68.5
Q23.6875 68.5 21.7969 66.5469
Q19.9219 64.5938 19.9219 59.5156
L19.9219 54.6875
L34.7188 54.6875
L34.7188 47.7031
L19.9219 47.7031
L19.9219 0
L10.8906 0
L10.8906 47.7031
L2.29688 47.7031
L2.29688 54.6875
L10.8906 54.6875
L10.8906 58.5
Q10.8906 67.625 15.1406 71.7969
Q19.3906 75.9844 28.6094 75.9844
z
" id="DejaVuSans-66"/>
      <path d="
M45.4062 46.3906
L45.4062 75.9844
L54.3906 75.9844
L54.3906 0
L45.4062 0
L45.4062 8.20312
Q42.5781 3.32812 38.25 0.953125
Q33.9375 -1.42188 27.875 -1.42188
Q17.9688 -1.42188 11.7344 6.48438
Q5.51562 14.4062 5.51562 27.2969
Q5.51562 40.1875 11.7344 48.0938
Q17.9688 56 27.875 56
Q33.9375 56 38.25 53.625
Q42.5781 51.2656 45.4062 46.3906
M14.7969 27.2969
Q14.7969 17.3906 18.875 11.75
Q22.9531 6.10938 30.0781 6.10938
Q37.2031 6.10938 41.2969 11.75
Q45.4062 17.3906 45.4062 27.2969
Q45.4062 37.2031 41.2969 42.8438
Q37.2031 48.4844 30.0781 48.4844
Q22.9531 48.4844 18.875 42.8438
Q14.7969 37.2031 14.7969 27.2969" id="DejaVuSans-64"/>
      <path d="
M34.2812 27.4844
Q23.3906 27.4844 19.1875 25
Q14.9844 22.5156 14.9844 16.5
Q14.9844 11.7188 18.1406 8.90625
Q21.2969 6.10938 26.7031 6.10938
Q34.1875 6.10938 38.7031 11.4062
Q43.2188 16.7031 43.2188 25.4844
L43.2188 27.4844
z

M52.2031 31.2031
L52.2031 0
L43.2188 0
L43.2188 8.29688
Q40.1406 3.32812 35.5469 0.953125
Q30.9531 -1.42188 24.3125 -1.42188
Q15.9219 -1.42188 10.9531 3.29688
Q6 8.01562 6 15.9219
Q6 25.1406 12.1719 29.8281
Q18.3594 34.5156 30.6094 34.5156
L43.2188 34.5156
L43.2188 35.4062
Q43.2188 41.6094 39.1406 45
Q35.0625 48.3906 27.6875 48.3906
Q23 48.3906 18.5469 47.2656
Q14.1094 46.1406 10.0156 43.8906
L10.0156 52.2031
Q14.9375 54.1094 19.5781 55.0469
Q24.2188 56 28.6094 56
Q40.4844 56 46.3438 49.8438
Q52.2031 43.7031 52.2031 31.2031" id="DejaVuSans-61"/>
      <path d="
M48.6875 27.2969
Q48.6875 37.2031 44.6094 42.8438
Q40.5312 48.4844 33.4062 48.4844
Q26.2656 48.4844 22.1875 42.8438
Q18.1094 37.2031 18.1094 27.2969
Q18.1094 17.3906 22.1875 11.75
Q26.2656 6.10938 33.4062 6.10938
Q40.5312 6.10938 44.6094 11.75
Q48.6875 17.3906 48.6875 27.2969
M18.1094 46.3906
Q20.9531 51.2656 25.2656 53.625
Q29.5938 56 35.5938 56
Q45.5625 56 51.7812 48.0938
Q58.0156 40.1875 58.0156 27.2969
Q58.0156 14.4062 51.7812 6.48438
Q45.5625 -1.42188 35.5938 -1.42188
Q29.5938 -1.42188 25.2656 0.953125
Q20.9531 3.32812 18.1094 8.20312
L18.1094 0
L9.07812 0
L9.07812 75.9844
L18.1094 75.9844
z
" id="DejaVuSans-62"/>
      <path d="
M44.2812 53.0781
L44.2812 44.5781
Q40.4844 46.5312 36.375 47.5
Q32.2812 48.4844 27.875 48.4844
Q21.1875 48.4844 17.8438 46.4375
Q14.5 44.3906 14.5 40.2812
Q14.5 37.1562 16.8906 35.375
Q19.2812 33.5938 26.5156 31.9844
L29.5938 31.2969
Q39.1562 29.25 43.1875 25.5156
Q47.2188 21.7812 47.2188 15.0938
Q47.2188 7.46875 41.1875 3.01562
Q35.1562 -1.42188 24.6094 -1.42188
Q20.2188 -1.42188 15.4531 -0.5625
Q10.6875 0.296875 5.42188 2
L5.42188 11.2812
Q10.4062 8.6875 15.2344 7.39062
Q20.0625 6.10938 24.8125 6.10938
Q31.1562 6.10938 34.5625 8.28125
Q37.9844 10.4531 37.9844 14.4062
Q37.9844 18.0625 35.5156 20.0156
Q33.0625 21.9688 24.7031 23.7812
L21.5781 24.5156
Q13.2344 26.2656 9.51562 29.9062
Q5.8125 33.5469 5.8125 39.8906
Q5.8125 47.6094 11.2812 51.7969
Q16.75 56 26.8125 56
Q31.7812 56 36.1719 55.2656
Q40.5781 54.5469 44.2812 53.0781" id="DejaVuSans-73"/>
      <path d="
M-0.296875 72.9062
L61.375 72.9062
L61.375 64.5938
L35.5 64.5938
L35.5 0
L25.5938 0
L25.5938 64.5938
L-0.296875 64.5938
z
" id="DejaVuSans-54"/>
     </defs>
     <g transform="translate(16.318125 212.98875)rotate(-90.0)scale(0.12 -0.12)">
      <use xlink:href="#DejaVuSans-4e"/>
      <use x="74.8046875" xlink:href="#DejaVuSans-75"/>
      <use x="138.18359375" xlink:href="#DejaVuSans-6d"/>
      <use x="235.595703125" xlink:href="#DejaVuSans-62"/>
      <use x="299.072265625" xlink:href="#DejaVuSans-65"/>
      <use x="360.595703125" xlink:href="#DejaVuSans-72"/>
      <use x="401.708984375" xlink:href="#DejaVuSans-20"/>
      <use x="433.49609375" xlink:href="#DejaVuSans-6f"/>
      <use x="494.677734375" xlink:href="#DejaVuSans-66"/>
      <use x="529.8828125" xlink:href="#DejaVuSans-20"/>
      <use x="561.669921875" xlink:href="#DejaVuSans-54"/>
      <use x="606.25390625" xlink:href="#DejaVuSans-61"/>
      <use x="667.533203125" xlink:href="#DejaVuSans-67"/>
      <use x="731.009765625" xlink:href="#DejaVuSans-67"/>
      <use x="794.486328125" xlink:href="#DejaVuSans-65"/>
      <use x="856.009765625" xlink:href="#DejaVuSans-64"/>
      <use x="919.486328125" xlink:href="#DejaVuSans-20"/>
      <use x="951.2734375" xlink:href="#DejaVuSans-50"/>
      <use x="1007.07617188" xlink:href="#DejaVuSans-61"/>
      <use x="1068.35546875" xlink:href="#DejaVuSans-63"/>
      <use x="1123.3359375" xlink:href="#DejaVuSans-6b"/>
      <use x="1179.49609375" xlink:href="#DejaVuSans-61"/>
      <use x="1240.77539062" xlink:href="#DejaVuSans-67"/>
      <use x="1304.25195312" xlink:href="#DejaVuSans-65"/>
      <use x="1365.77539062" xlink:href="#DejaVuSans-73"/>
     </g>
    </g>
   </g>
   <g id="patch_3">
    <path d="
M56.2388 13.0069
L614.239 13.0069" style="fill:none;stroke:#000000;"/>
   </g>
   <g id="patch_4">
    <path d="
M614.239 243.407
L614.239 13.0069" style="fill:none;stroke:#000000;"/>
   </g>
   <g id="patch_5">
    <path d="
M56.2388 243.407
L614.239 243.407" style="fill:none;stroke:#000000;"/>
   </g>
   <g id="patch_6">
    <path d="
M56.2388 243.407
L56.2388 13.0069" style="fill:none;stroke:#000000;"/>
   </g>
   <g id="text_20">
    <g id="patch_7">
     <path d="
M114.968 144.771
L128.642 144.771
L128.642 110.383
L114.968 110.383
z
" style="fill:#ffffff;stroke:#ffffff;"/>
    </g>
    <!-- v0.3.0 -->
    <defs>
     <path d="
M40.5781 39.3125
Q47.6562 37.7969 51.625 33
Q55.6094 28.2188 55.6094 21.1875
Q55.6094 10.4062 48.1875 4.48438
Q40.7656 -1.42188 27.0938 -1.42188
Q22.5156 -1.42188 17.6562 -0.515625
Q12.7969 0.390625 7.625 2.20312
L7.625 11.7188
Q11.7188 9.32812 16.5938 8.10938
Q21.4844 6.89062 26.8125 6.89062
Q36.0781 6.89062 40.9375 10.5469
Q45.7969 14.2031 45.7969 21.1875
Q45.7969 27.6406 41.2812 31.2656
Q36.7656 34.9062 28.7188 34.9062
L20.2188 34.9062
L20.2188 43.0156
L29.1094 43.0156
Q36.375 43.0156 40.2344 45.9219
Q44.0938 48.8281 44.0938 54.2969
Q44.0938 59.9062 40.1094 62.9062
Q36.1406 65.9219 28.7188 65.9219
Q24.6562 65.9219 20.0156 65.0312
Q15.375 64.1562 9.8125 62.3125
L9.8125 71.0938
Q15.4375 72.6562 20.3438 73.4375
Q25.25 74.2188 29.5938 74.2188
Q40.8281 74.2188 47.3594 69.1094
Q53.9062 64.0156 53.9062 55.3281
Q53.9062 49.2656 50.4375 45.0938
Q46.9688 40.9219 40.5781 39.3125" id="DejaVuSans-33"/>
     <path d="
M2.98438 54.6875
L12.5 54.6875
L29.5938 8.79688
L46.6875 54.6875
L56.2031 54.6875
L35.6875 0
L23.4844 0
z
" id="DejaVuSans-76"/>
     <path d="
M10.6875 12.4062
L21 12.4062
L21 0
L10.6875 0
z
" id="DejaVuSans-2e"/>
    </defs>
    <g transform="translate(124.563167511 142.770745446)rotate(-90.0)scale(0.09996 -0.09996)">
     <use xlink:href="#DejaVuSans-76"/>
     <use x="59.1796875" xlink:href="#DejaVuSans-30"/>
     <use x="122.802734375" xlink:href="#DejaVuSans-2e"/>
     <use x="154.58984375" xlink:href="#DejaVuSans-33"/>
     <use x="218.212890625" xlink:href="#DejaVuSans-2e"/>
     <use x="250.0" xlink:href="#DejaVuSans-30"/>
    </g>
   </g>
   <g id="text_21">
    <g id="patch_8">
     <path d="
M129.64 111.597
L143.314 111.597
L143.314 77.4686
L129.64 77.4686
z
" style="fill:#ffffff;stroke:#ffffff;"/>
    </g>
    <!-- v0.3.1 -->
    <g transform="translate(139.235312129 109.597188482)rotate(-90.0)scale(0.09996 -0.09996)">
     <use xlink:href="#DejaVuSans-76"/>
     <use x="59.1796875" xlink:href="#DejaVuSans-30"/>
     <use x="122.802734375" xlink:href="#DejaVuSans-2e"/>
     <use x="154.58984375" xlink:href="#DejaVuSans-33"/>
     <use x="218.212890625" xlink:href="#DejaVuSans-2e"/>
     <use x="250.0" xlink:href="#DejaVuSans-31"/>
    </g>
   </g>
   <g id="text_22">
    <g id="patch_9">
     <path d="
M143.395 144.433
L157.069 144.433
L157.069 110.383
L143.395 110.383
z
" style="fill:#ffffff;stroke:#ffffff;"/>
    </g>
    <!-- v0.3.2 -->
    <g transform="translate(152.990447709 142.433380446)rotate(-90.0)scale(0.09996 -0.09996)">
     <use xlink:href="#DejaVuSans-76"/>
     <use x="59.1796875" xlink:href="#DejaVuSans-30"/>
     <use x="122.802734375" xlink:href="#DejaVuSans-2e"/>
     <use x="154.58984375" xlink:href="#DejaVuSans-33"/>
     <use x="218.212890625" xlink:href="#DejaVuSans-2e"/>
     <use x="250.0" xlink:href="#DejaVuSans-32"/>
    </g>
   </g>
   <g id="text_23">
    <g id="patch_10">
     <path d="
M158.526 111.719
L172.2 111.719
L172.2 77.4686
L158.526 77.4686
z
" style="fill:#ffffff;stroke:#ffffff;"/>
    </g>
    <!-- v0.3.3 -->
    <g transform="translate(168.121096846 109.719014732)rotate(-90.0)scale(0.09996 -0.09996)">
     <use xlink:href="#DejaVuSans-76"/>
     <use x="59.1796875" xlink:href="#DejaVuSans-30"/>
     <use x="122.802734375" xlink:href="#DejaVuSans-2e"/>
     <use x="154.58984375" xlink:href="#DejaVuSans-33"/>
     <use x="218.212890625" xlink:href="#DejaVuSans-2e"/>
     <use x="250.0" xlink:href="#DejaVuSans-33"/>
    </g>
   </g>
   <g id="text_24">
    <g id="patch_11">
     <path d="
M173.656 144.874
L187.331 144.874
L187.331 110.383
L173.656 110.383
z
" style="fill:#ffffff;stroke:#ffffff;"/>
    </g>
    <!-- v0.3.4 -->
    <g transform="translate(183.251745983 142.873829196)rotate(-90.0)scale(0.09996 -0.09996)">
     <use xlink:href="#DejaVuSans-76"/>
     <use x="59.1796875" xlink:href="#DejaVuSans-30"/>
     <use x="122.802734375" xlink:href="#DejaVuSans-2e"/>
     <use x="154.58984375" xlink:href="#DejaVuSans-33"/>
     <use x="218.212890625" xlink:href="#DejaVuSans-2e"/>
     <use x="250.0" xlink:href="#DejaVuSans-34"/>
    </g>
   </g>
   <g id="text_25">
    <g id="patch_12">
     <path d="
M179.617 111.647
L193.291 111.647
L193.291 77.4686
L179.617 77.4686
z
" style="fill:#ffffff;stroke:#ffffff;"/>
    </g>
    <!-- v0.3.5 -->
    <g transform="translate(189.212304734 109.647168482)rotate(-90.0)scale(0.09996 -0.09996)">
     <use xlink:href="#DejaVuSans-76"/>
     <use x="59.1796875" xlink:href="#DejaVuSans-30"/>
     <use x="122.802734375" xlink:href="#DejaVuSans-2e"/>
     <use x="154.58984375" xlink:href="#DejaVuSans-33"/>
     <use x="218.212890625" xlink:href="#DejaVuSans-2e"/>
     <use x="250.0" xlink:href="#DejaVuSans-35"/>
    </g>
   </g>
   <g id="text_26">
    <g id="patch_13">
     <path d="
M197.957 144.805
L211.631 144.805
L211.631 110.383
L197.957 110.383
z
" style="fill:#ffffff;stroke:#ffffff;"/>
    </g>
    <!-- v0.3.6 -->
    <g transform="translate(207.552485506 142.805106696)rotate(-90.0)scale(0.09996 -0.09996)">
     <use xlink:href="#DejaVuSans-76"/>
     <use x="59.1796875" xlink:href="#DejaVuSans-30"/>
     <use x="122.802734375" xlink:href="#DejaVuSans-2e"/>
     <use x="154.58984375" xlink:href="#DejaVuSans-33"/>
     <use x="218.212890625" xlink:href="#DejaVuSans-2e"/>
     <use x="250.0" xlink:href="#DejaVuSans-36"/>
    </g>
   </g>
   <g id="text_27">
    <g id="patch_14">
     <path d="
M213.546 111.666
L227.22 111.666
L227.22 77.4686
L213.546 77.4686
z
" style="fill:#ffffff;stroke:#ffffff;"/>
    </g>
    <!-- v0.3.7 -->
    <g transform="translate(223.141639163 109.665910982)rotate(-90.0)scale(0.09996 -0.09996)">
     <use xlink:href="#DejaVuSans-76"/>
     <use x="59.1796875" xlink:href="#DejaVuSans-30"/>
     <use x="122.802734375" xlink:href="#DejaVuSans-2e"/>
     <use x="154.58984375" xlink:href="#DejaVuSans-33"/>
     <use x="218.212890625" xlink:href="#DejaVuSans-2e"/>
     <use x="250.0" xlink:href="#DejaVuSans-37"/>
    </g>
   </g>
   <g id="text_28">
    <g id="patch_15">
     <path d="
M230.969 144.75
L244.644 144.75
L244.644 110.383
L230.969 110.383
z
" style="fill:#ffffff;stroke:#ffffff;"/>
    </g>
    <!-- v0.3.8 -->
    <g transform="translate(240.564810897 142.750441071)rotate(-90.0)scale(0.09996 -0.09996)">
     <use xlink:href="#DejaVuSans-76"/>
     <use x="59.1796875" xlink:href="#DejaVuSans-30"/>
     <use x="122.802734375" xlink:href="#DejaVuSans-2e"/>
     <use x="154.58984375" xlink:href="#DejaVuSans-33"/>
     <use x="218.212890625" xlink:href="#DejaVuSans-2e"/>
     <use x="250.0" xlink:href="#DejaVuSans-38"/>
    </g>
   </g>
   <g id="text_29">
    <g id="patch_16">
     <path d="
M244.725 111.817
L258.399 111.817
L258.399 77.4686
L244.725 77.4686
z
" style="fill:#ffffff;stroke:#ffffff;"/>
    </g>
    <!-- v0.3.9 -->
    <defs>
     <path d="
M10.9844 1.51562
L10.9844 10.5
Q14.7031 8.73438 18.5 7.8125
Q22.3125 6.89062 25.9844 6.89062
Q35.75 6.89062 40.8906 13.4531
Q46.0469 20.0156 46.7812 33.4062
Q43.9531 29.2031 39.5938 26.9531
Q35.25 24.7031 29.9844 24.7031
Q19.0469 24.7031 12.6719 31.3125
Q6.29688 37.9375 6.29688 49.4219
Q6.29688 60.6406 12.9375 67.4219
Q19.5781 74.2188 30.6094 74.2188
Q43.2656 74.2188 49.9219 64.5156
Q56.5938 54.8281 56.5938 36.375
Q56.5938 19.1406 48.4062 8.85938
Q40.2344 -1.42188 26.4219 -1.42188
Q22.7031 -1.42188 18.8906 -0.6875
Q15.0938 0.046875 10.9844 1.51562
M30.6094 32.4219
Q37.25 32.4219 41.125 36.9531
Q45.0156 41.5 45.0156 49.4219
Q45.0156 57.2812 41.125 61.8438
Q37.25 66.4062 30.6094 66.4062
Q23.9688 66.4062 20.0938 61.8438
Q16.2188 57.2812 16.2188 49.4219
Q16.2188 41.5 20.0938 36.9531
Q23.9688 32.4219 30.6094 32.4219" id="DejaVuSans-39"/>
    </defs>
    <g transform="translate(254.319946476 109.817412857)rotate(-90.0)scale(0.09996 -0.09996)">
     <use xlink:href="#DejaVuSans-76"/>
     <use x="59.1796875" xlink:href="#DejaVuSans-30"/>
     <use x="122.802734375" xlink:href="#DejaVuSans-2e"/>
     <use x="154.58984375" xlink:href="#DejaVuSans-33"/>
     <use x="218.212890625" xlink:href="#DejaVuSans-2e"/>
     <use x="250.0" xlink:href="#DejaVuSans-39"/>
    </g>
   </g>
   <g id="text_30">
    <g id="patch_17">
     <path d="
M256.187 151.131
L269.861 151.131
L269.861 110.383
L256.187 110.383
z
" style="fill:#ffffff;stroke:#ffffff;"/>
    </g>
    <!-- v0.3.10 -->
    <g transform="translate(265.782559459 149.130700446)rotate(-90.0)scale(0.09996 -0.09996)">
     <use xlink:href="#DejaVuSans-76"/>
     <use x="59.1796875" xlink:href="#DejaVuSans-30"/>
     <use x="122.802734375" xlink:href="#DejaVuSans-2e"/>
     <use x="154.58984375" xlink:href="#DejaVuSans-33"/>
     <use x="218.212890625" xlink:href="#DejaVuSans-2e"/>
     <use x="250.0" xlink:href="#DejaVuSans-31"/>
     <use x="313.623046875" xlink:href="#DejaVuSans-30"/>
    </g>
   </g>
   <g id="text_31">
    <g id="patch_18">
     <path d="
M271.318 117.957
L284.992 117.957
L284.992 77.4686
L271.318 77.4686
z
" style="fill:#ffffff;stroke:#ffffff;"/>
    </g>
    <!-- v0.3.11 -->
    <g transform="translate(280.913208596 115.957143482)rotate(-90.0)scale(0.09996 -0.09996)">
     <use xlink:href="#DejaVuSans-76"/>
     <use x="59.1796875" xlink:href="#DejaVuSans-30"/>
     <use x="122.802734375" xlink:href="#DejaVuSans-2e"/>
     <use x="154.58984375" xlink:href="#DejaVuSans-33"/>
     <use x="218.212890625" xlink:href="#DejaVuSans-2e"/>
     <use x="250.0" xlink:href="#DejaVuSans-31"/>
     <use x="313.623046875" xlink:href="#DejaVuSans-31"/>
    </g>
   </g>
   <g id="text_32">
    <g id="patch_19">
     <path d="
M313.042 150.793
L326.716 150.793
L326.716 110.383
L313.042 110.383
z
" style="fill:#ffffff;stroke:#ffffff;"/>
    </g>
    <!-- v0.3.12 -->
    <g transform="translate(322.637119853 148.793335446)rotate(-90.0)scale(0.09996 -0.09996)">
     <use xlink:href="#DejaVuSans-76"/>
     <use x="59.1796875" xlink:href="#DejaVuSans-30"/>
     <use x="122.802734375" xlink:href="#DejaVuSans-2e"/>
     <use x="154.58984375" xlink:href="#DejaVuSans-33"/>
     <use x="218.212890625" xlink:href="#DejaVuSans-2e"/>
     <use x="250.0" xlink:href="#DejaVuSans-31"/>
     <use x="313.623046875" xlink:href="#DejaVuSans-32"/>
    </g>
   </g>
   <g id="text_33">
    <g id="patch_20">
     <path d="
M304.789 235.285
L318.463 235.285
L318.463 200.897
L304.789 200.897
z
" style="fill:#ffffff;stroke:#ffffff;"/>
    </g>
    <!-- v0.4.0 -->
    <g transform="translate(314.384038506 233.285031161)rotate(-90.0)scale(0.09996 -0.09996)">
     <use xlink:href="#DejaVuSans-76"/>
     <use x="59.1796875" xlink:href="#DejaVuSans-30"/>
     <use x="122.802734375" xlink:href="#DejaVuSans-2e"/>
     <use x="154.58984375" xlink:href="#DejaVuSans-34"/>
     <use x="218.212890625" xlink:href="#DejaVuSans-2e"/>
     <use x="250.0" xlink:href="#DejaVuSans-30"/>
    </g>
   </g>
   <g id="text_34">
    <g id="patch_21">
     <path d="
M319.002 210.34
L332.677 210.34
L332.677 176.211
L319.002 176.211
z
" style="fill:#ffffff;stroke:#ffffff;"/>
    </g>
    <!-- v0.4.1 -->
    <g transform="translate(328.597678604 208.340045625)rotate(-90.0)scale(0.09996 -0.09996)">
     <use xlink:href="#DejaVuSans-76"/>
     <use x="59.1796875" xlink:href="#DejaVuSans-30"/>
     <use x="122.802734375" xlink:href="#DejaVuSans-2e"/>
     <use x="154.58984375" xlink:href="#DejaVuSans-34"/>
     <use x="218.212890625" xlink:href="#DejaVuSans-2e"/>
     <use x="250.0" xlink:href="#DejaVuSans-31"/>
    </g>
   </g>
   <g id="text_35">
    <g id="patch_22">
     <path d="
M331.84 234.948
L345.515 234.948
L345.515 200.897
L331.84 200.897
z
" style="fill:#ffffff;stroke:#ffffff;"/>
    </g>
    <!-- v0.4.2 -->
    <g transform="translate(341.435805145 232.947666161)rotate(-90.0)scale(0.09996 -0.09996)">
     <use xlink:href="#DejaVuSans-76"/>
     <use x="59.1796875" xlink:href="#DejaVuSans-30"/>
     <use x="122.802734375" xlink:href="#DejaVuSans-2e"/>
     <use x="154.58984375" xlink:href="#DejaVuSans-34"/>
     <use x="218.212890625" xlink:href="#DejaVuSans-2e"/>
     <use x="250.0" xlink:href="#DejaVuSans-32"/>
    </g>
   </g>
   <g id="text_36">
    <g id="patch_23">
     <path d="
M348.805 210.462
L362.479 210.462
L362.479 176.211
L348.805 176.211
z
" style="fill:#ffffff;stroke:#ffffff;"/>
    </g>
    <!-- v0.4.3 -->
    <g transform="translate(358.400472359 208.461871875)rotate(-90.0)scale(0.09996 -0.09996)">
     <use xlink:href="#DejaVuSans-76"/>
     <use x="59.1796875" xlink:href="#DejaVuSans-30"/>
     <use x="122.802734375" xlink:href="#DejaVuSans-2e"/>
     <use x="154.58984375" xlink:href="#DejaVuSans-34"/>
     <use x="218.212890625" xlink:href="#DejaVuSans-2e"/>
     <use x="250.0" xlink:href="#DejaVuSans-33"/>
    </g>
   </g>
   <g id="text_37">
    <g id="patch_24">
     <path d="
M378.608 235.076
L392.282 235.076
L392.282 200.897
L378.608 200.897
z
" style="fill:#ffffff;stroke:#ffffff;"/>
    </g>
    <!-- v0.4.5 -->
    <g transform="translate(388.203266114 233.075739911)rotate(-90.0)scale(0.09996 -0.09996)">
     <use xlink:href="#DejaVuSans-76"/>
     <use x="59.1796875" xlink:href="#DejaVuSans-30"/>
     <use x="122.802734375" xlink:href="#DejaVuSans-2e"/>
     <use x="154.58984375" xlink:href="#DejaVuSans-34"/>
     <use x="218.212890625" xlink:href="#DejaVuSans-2e"/>
     <use x="250.0" xlink:href="#DejaVuSans-35"/>
    </g>
   </g>
   <g id="text_38">
    <g id="patch_25">
     <path d="
M421.707 210.634
L435.382 210.634
L435.382 176.211
L421.707 176.211
z
" style="fill:#ffffff;stroke:#ffffff;"/>
    </g>
    <!-- v0.4.6 -->
    <g transform="translate(431.30269093 208.633678125)rotate(-90.0)scale(0.09996 -0.09996)">
     <use xlink:href="#DejaVuSans-76"/>
     <use x="59.1796875" xlink:href="#DejaVuSans-30"/>
     <use x="122.802734375" xlink:href="#DejaVuSans-2e"/>
     <use x="154.58984375" xlink:href="#DejaVuSans-34"/>
     <use x="218.212890625" xlink:href="#DejaVuSans-2e"/>
     <use x="250.0" xlink:href="#DejaVuSans-36"/>
    </g>
   </g>
   <g id="text_39">
    <g id="patch_26">
     <path d="
M463.431 235.094
L477.105 235.094
L477.105 200.897
L463.431 200.897
z
" style="fill:#ffffff;stroke:#ffffff;"/>
    </g>
    <!-- v0.4.7 -->
    <g transform="translate(473.026602187 233.094482411)rotate(-90.0)scale(0.09996 -0.09996)">
     <use xlink:href="#DejaVuSans-76"/>
     <use x="59.1796875" xlink:href="#DejaVuSans-30"/>
     <use x="122.802734375" xlink:href="#DejaVuSans-2e"/>
     <use x="154.58984375" xlink:href="#DejaVuSans-34"/>
     <use x="218.212890625" xlink:href="#DejaVuSans-2e"/>
     <use x="250.0" xlink:href="#DejaVuSans-37"/>
    </g>
   </g>
   <g id="text_40">
    <g id="patch_27">
     <path d="
M463.89 152.999
L477.564 152.999
L477.564 118.611
L463.89 118.611
z
" style="fill:#ffffff;stroke:#ffffff;"/>
    </g>
    <!-- v0.5.0 -->
    <g transform="translate(473.485106706 150.999316875)rotate(-90.0)scale(0.09996 -0.09996)">
     <use xlink:href="#DejaVuSans-76"/>
     <use x="59.1796875" xlink:href="#DejaVuSans-30"/>
     <use x="122.802734375" xlink:href="#DejaVuSans-2e"/>
     <use x="154.58984375" xlink:href="#DejaVuSans-35"/>
     <use x="218.212890625" xlink:href="#DejaVuSans-2e"/>
     <use x="250.0" xlink:href="#DejaVuSans-30"/>
    </g>
   </g>
   <g id="text_41">
    <g id="patch_28">
     <path d="
M540.46 136.283
L554.134 136.283
L554.134 102.154
L540.46 102.154
z
" style="fill:#ffffff;stroke:#ffffff;"/>
    </g>
    <!-- v0.5.1 -->
    <g transform="translate(550.055361431 134.282902768)rotate(-90.0)scale(0.09996 -0.09996)">
     <use xlink:href="#DejaVuSans-76"/>
     <use x="59.1796875" xlink:href="#DejaVuSans-30"/>
     <use x="122.802734375" xlink:href="#DejaVuSans-2e"/>
     <use x="154.58984375" xlink:href="#DejaVuSans-35"/>
     <use x="218.212890625" xlink:href="#DejaVuSans-2e"/>
     <use x="250.0" xlink:href="#DejaVuSans-31"/>
    </g>
   </g>
   <g id="text_42">
    <g id="patch_29">
     <path d="
M568.887 152.662
L582.561 152.662
L582.561 118.611
L568.887 118.611
z
" style="fill:#ffffff;stroke:#ffffff;"/>
    </g>
    <!-- v0.5.2 -->
    <g transform="translate(578.482641628 150.661951875)rotate(-90.0)scale(0.09996 -0.09996)">
     <use xlink:href="#DejaVuSans-76"/>
     <use x="59.1796875" xlink:href="#DejaVuSans-30"/>
     <use x="122.802734375" xlink:href="#DejaVuSans-2e"/>
     <use x="154.58984375" xlink:href="#DejaVuSans-35"/>
     <use x="218.212890625" xlink:href="#DejaVuSans-2e"/>
     <use x="250.0" xlink:href="#DejaVuSans-32"/>
    </g>
   </g>
   <g id="text_43">
    <g id="patch_30">
     <path d="
M589.061 235.285
L602.736 235.285
L602.736 200.897
L589.061 200.897
z
" style="fill:#ffffff;stroke:#ffffff;"/>
    </g>
    <!-- v0.6.0 -->
    <g transform="translate(598.656840478 233.285031161)rotate(-90.0)scale(0.09996 -0.09996)">
     <use xlink:href="#DejaVuSans-76"/>
     <use x="59.1796875" xlink:href="#DejaVuSans-30"/>
     <use x="122.802734375" xlink:href="#DejaVuSans-2e"/>
     <use x="154.58984375" xlink:href="#DejaVuSans-36"/>
     <use x="218.212890625" xlink:href="#DejaVuSans-2e"/>
     <use x="250.0" xlink:href="#DejaVuSans-30"/>
    </g>
   </g>
   <g id="legend_1">
    <g id="patch_31">
     <path d="
M61.2368 94.3649
L111.899 94.3649
L111.899 18.0049
L61.2368 18.0049
L61.2368 94.3649
z
" style="fill:#ffffff;stroke:#000000;"/>
    </g>
    <g id="line2d_66">
     <path d="
M68.234 26.1001
L82.2284 26.1001" style="fill:none;stroke:#ff0000;stroke-linecap:square;stroke-width:2;"/>
    </g>
    <g id="line2d_67"/>
    <g id="text_44">
     <!-- 0.2 -->
     <g transform="translate(93.22395 29.598673125)scale(0.09996 -0.09996)">
      <use xlink:href="#DejaVuSans-30"/>
      <use x="63.623046875" xlink:href="#DejaVuSans-2e"/>
      <use x="95.41015625" xlink:href="#DejaVuSans-32"/>
     </g>
    </g>
    <g id="line2d_68">
     <path d="
M68.234 40.7723
L82.2284 40.7723" style="fill:none;stroke:#008000;stroke-linecap:square;stroke-width:2;"/>
    </g>
    <g id="line2d_69"/>
    <g id="text_45">
     <!-- 0.3 -->
     <g transform="translate(93.22395 44.270926875)scale(0.09996 -0.09996)">
      <use xlink:href="#DejaVuSans-30"/>
      <use x="63.623046875" xlink:href="#DejaVuSans-2e"/>
      <use x="95.41015625" xlink:href="#DejaVuSans-33"/>
     </g>
    </g>
    <g id="line2d_70">
     <path d="
M68.234 55.4446
L82.2284 55.4446" style="fill:none;stroke:#0000ff;stroke-linecap:square;stroke-width:2;"/>
    </g>
    <g id="line2d_71"/>
    <g id="text_46">
     <!-- 0.4 -->
     <g transform="translate(93.22395 58.943180625)scale(0.09996 -0.09996)">
      <use xlink:href="#DejaVuSans-30"/>
      <use x="63.623046875" xlink:href="#DejaVuSans-2e"/>
      <use x="95.41015625" xlink:href="#DejaVuSans-34"/>
     </g>
    </g>
    <g id="line2d_72">
     <path d="
M68.234 70.1168
L82.2284 70.1168" style="fill:none;stroke:#000000;stroke-linecap:square;stroke-width:2;"/>
    </g>
    <g id="line2d_73"/>
    <g id="text_47">
     <!-- 0.5 -->
     <g transform="translate(93.22395 73.615434375)scale(0.09996 -0.09996)">
      <use xlink:href="#DejaVuSans-30"/>
      <use x="63.623046875" xlink:href="#DejaVuSans-2e"/>
      <use x="95.41015625" xlink:href="#DejaVuSans-35"/>
     </g>
    </g>
    <g id="line2d_74">
     <path d="
M68.234 84.7891
L82.2284 84.7891" style="fill:none;stroke:#bfbf00;stroke-linecap:square;stroke-width:2;"/>
    </g>
    <g id="line2d_75"/>
    <g id="text_48">
     <!-- 0.6 -->
     <g transform="translate(93.22395 88.287688125)scale(0.09996 -0.09996)">
      <use xlink:href="#DejaVuSans-30"/>
      <use x="63.623046875" xlink:href="#DejaVuSans-2e"/>
      <use x="95.41015625" xlink:href="#DejaVuSans-36"/>
     </g>
    </g>
   </g>
  </g>
 </g>
 <defs>
  <clipPath id="p472e73a826">
   <rect height="230.4" width="558.0" x="56.23875" y="13.006875"/>
  </clipPath>
 </defs>
</svg>
