<?xml version="1.0" encoding="utf-8" standalone="no"?>
<!DOCTYPE svg PUBLIC "-//W3C//DTD SVG 1.1//EN"
  "http://www.w3.org/Graphics/SVG/1.1/DTD/svg11.dtd">
<!-- Created with matplotlib (http://matplotlib.org/) -->
<svg height="311pt" version="1.1" viewBox="0 0 621 311" width="621pt" xmlns="http://www.w3.org/2000/svg" xmlns:xlink="http://www.w3.org/1999/xlink">
 <defs>
  <style type="text/css">
*{stroke-linecap:butt;stroke-linejoin:round;}
  </style>
 </defs>
 <g id="figure_1">
  <g id="patch_1">
   <path d="
M0 311.509
L621.877 311.509
L621.877 0
L0 0
z
" style="fill:#ffffff;"/>
  </g>
  <g id="axes_1">
   <g id="patch_2">
    <path d="
M56.6775 243.407
L614.678 243.407
L614.678 13.0069
L56.6775 13.0069
z
" style="fill:#ffffff;"/>
   </g>
   <g id="line2d_1">
    <path clip-path="url(#p4b7b2140f5)" d="
M104.325 226.127
L103.972 226.127
L103.619 226.383
L103.266 226.383
L102.913 226.511
L102.56 226.767
L102.207 226.767
L101.501 226.511
L101.148 226.511
L100.795 226.895
L100.442 226.895
L99.7363 226.895
L99.3834 226.895
L98.6775 227.023
L98.3246 227.023
L97.9716 227.023
L97.6187 227.151
L97.2657 227.151
L96.9128 227.151
L96.5599 227.279
L96.2069 227.279
L95.1481 227.279
L94.7951 227.279
L94.4422 227.279
L94.0893 227.279
L93.3834 227.535
L92.6775 227.791
L92.3246 227.791
L91.9716 227.919
L91.6187 228.047
L90.9128 228.303
L90.5599 228.303
L90.2069 228.303
L89.854 228.431
L89.501 228.559
L89.1481 228.815
L88.4422 228.943
L88.0893 228.943
L87.7363 229.327
L87.3834 229.327
L87.0304 229.327
L86.6775 229.327
L86.3246 229.327
L85.9716 229.583
L85.2657 229.583
L84.9128 229.711
L84.5599 229.711
L84.2069 229.711
L83.854 229.711
L83.501 229.711
L83.1481 229.967
L82.7951 230.095
L82.4422 230.223
L82.0893 230.223
L79.9716 230.863
L79.6187 230.863
L79.2657 230.991
L78.9128 230.991
L78.5599 231.119
L78.2069 231.119
L77.854 231.119
L77.501 231.119
L77.1481 231.119
L76.7951 231.119
L76.4422 231.119
L76.0893 231.119
L75.7363 231.759
L75.3834 230.735
L75.0304 230.863
L74.6775 230.863
L74.3246 230.863
L73.6187 230.991
L73.2657 230.991
L72.9128 231.375
L72.5599 231.375
L72.2069 231.375
L71.854 231.375
L71.501 231.375
L71.1481 231.375
L70.7951 231.375
L70.4422 231.375
L70.0893 231.375
L69.7363 231.503
L67.2657 231.631
L66.5599 231.631
L65.501 231.631
L63.0304 231.887
L62.6775 232.015
L61.9716 232.143
L61.6187 232.143
L60.9128 232.271
L60.2069 232.399
L59.854 232.399
L59.1481 232.399
L58.7951 232.399
L58.4422 232.399
L58.0893 232.399
L57.7363 232.399
L57.3834 232.399
L57.0304 232.527
L56.6775 232.527" style="fill:none;stroke:#ff0000;stroke-linecap:square;stroke-width:2;"/>
   </g>
   <g id="line2d_2">
    <path clip-path="url(#p4b7b2140f5)" d="
M376.795 180.047
L367.266 180.047
L366.913 180.175
L365.854 180.047
L361.972 180.047
L361.619 180.175
L361.266 180.047
L360.913 180.047
L360.56 180.175
L360.207 180.047
L359.148 180.047
L358.795 180.175
L357.03 180.175
L356.677 180.047
L352.442 180.047
L352.089 180.175
L351.736 180.047
L349.266 180.047
L348.913 180.175
L348.56 180.047
L348.207 180.175
L347.854 180.047
L343.619 180.047
L343.266 180.175
L342.56 180.175
L342.207 180.303
L341.501 180.175
L341.148 180.303
L340.795 180.175
L339.736 180.175
L339.383 180.303
L339.03 180.175
L336.913 180.175
L336.56 180.303
L336.207 180.175
L334.442 180.175
L334.089 180.303
L296.325 181.071
L294.207 181.327
L292.795 181.327
L285.383 181.455
L277.619 181.455
L273.03 181.839
L270.207 182.095
L267.03 182.095
L266.325 182.351
L264.913 182.095
L256.442 182.351
L253.972 182.863
L252.56 182.991
L250.795 183.503
L249.383 184.143
L243.736 185.423
L241.972 185.679
L240.207 185.807
L239.148 186.063
L233.148 187.855
L227.148 189.135
L220.089 191.311
L219.736 191.823
L219.383 192.079
L218.677 191.951
L217.972 192.207
L216.913 192.207
L216.56 192.335
L215.854 192.335
L215.501 192.591
L215.148 192.591
L214.795 192.847
L214.442 192.847
L213.383 192.719
L209.501 193.487
L208.795 193.487
L206.325 194.383
L205.619 194.383
L202.795 194.895
L202.442 195.151
L201.03 195.407
L197.854 196.431
L197.501 196.815
L196.795 197.071
L196.089 197.071
L195.736 197.199
L194.325 197.455
L193.972 197.839
L193.619 197.967
L193.266 197.967
L192.56 198.607
L191.501 198.991
L190.089 198.991
L189.383 199.375
L188.677 199.375
L186.56 199.503
L186.207 199.887
L185.501 199.887
L181.266 200.015
L180.913 200.271
L180.56 200.143
L180.207 200.399
L179.854 200.399
L179.501 200.527
L179.148 200.783
L177.736 201.039
L175.972 201.039
L175.619 201.295
L174.913 201.295
L173.148 201.807
L171.383 202.575
L169.619 202.575
L168.207 202.831
L166.795 203.599
L166.442 203.599
L166.089 203.343
L163.972 204.751
L163.266 205.135
L162.56 205.135
L162.207 205.263
L161.854 205.647
L161.501 205.647
L161.148 205.903
L159.736 205.903
L159.383 206.543
L159.03 206.543
L157.266 207.695
L154.795 208.463
L153.03 209.359
L150.56 209.871
L149.854 210.127
L148.442 210.127
L148.089 210.255
L147.03 210.767
L145.619 211.151
L145.266 211.407
L144.56 211.407
L143.854 211.663
L143.148 211.663
L141.03 211.791
L139.619 212.431
L139.266 212.431
L138.913 212.815
L138.56 212.815
L138.207 212.943
L137.854 212.943
L137.501 213.199
L135.736 213.839
L134.677 213.839
L134.325 213.967
L133.972 213.967
L133.619 214.095
L132.913 214.095
L132.56 214.223
L132.207 214.223
L131.854 214.351
L131.501 214.607
L131.148 214.607
L130.795 214.735
L130.442 214.735
L130.089 214.863
L129.383 214.863
L128.677 215.247
L127.619 215.247
L126.913 215.503
L126.56 215.503
L126.207 215.759
L125.501 215.759
L125.148 215.887
L124.795 216.143
L124.442 216.143
L123.383 216.399
L123.03 216.655
L122.677 216.655
L122.325 214.351
L121.972 216.911
L121.619 217.167
L121.266 217.167
L120.913 217.295
L119.854 217.167
L119.501 217.295
L118.795 217.295
L118.089 217.551
L116.677 217.551
L116.325 218.575
L115.619 218.575
L114.913 218.959
L114.56 219.087
L113.501 219.855
L111.383 219.855
L110.677 220.111
L110.325 220.495
L109.619 218.959
L108.913 219.215
L108.56 219.599
L107.854 219.599
L107.501 219.727
L107.148 219.727
L106.442 220.111
L105.736 220.111
L105.03 220.367
L104.677 220.367
L103.972 220.751
L102.913 221.135
L102.56 221.391
L102.207 221.391
L101.148 221.519
L100.795 221.903
L100.442 222.031
L98.6775 222.031
L97.6187 222.415
L96.9128 222.415
L96.5599 222.543
L96.2069 222.543
L94.0893 222.799
L93.3834 223.183
L92.6775 223.823
L91.9716 223.823
L91.6187 224.207
L90.9128 224.335
L90.5599 224.591
L90.2069 224.591
L89.501 224.847
L89.1481 225.103
L88.0893 225.231
L87.7363 225.615
L86.3246 225.615
L85.9716 225.871
L85.2657 225.871
L84.5599 226.127
L84.2069 226.127
L83.854 226.383
L83.501 226.383
L82.7951 226.767
L79.2657 228.047
L78.9128 233.295
L78.5599 228.175
L78.2069 228.175
L77.854 228.303
L76.4422 228.303
L76.0893 228.431
L75.3834 228.431
L75.0304 228.687
L74.3246 228.687
L73.6187 228.815
L73.2657 229.199
L70.4422 229.199
L70.0893 229.327
L69.7363 229.583
L65.501 229.711
L61.9716 230.351
L61.6187 230.351
L60.9128 230.607
L58.4422 230.991
L57.3834 230.991
L57.0304 231.119
L56.6775 231.119
L56.6775 231.119" style="fill:none;stroke:#008000;stroke-linecap:square;stroke-width:2;"/>
   </g>
   <g id="line2d_3">
    <path clip-path="url(#p4b7b2140f5)" d="
M530.677 127.183
L529.972 127.183
L500.677 127.439
L498.56 127.311
L498.207 127.439
L495.03 127.439
L494.325 127.823
L493.972 127.439
L493.266 127.695
L492.913 127.567
L481.619 127.567
L481.266 127.695
L480.913 127.567
L471.736 127.567
L471.383 127.695
L466.089 127.695
L465.736 127.823
L465.383 128.463
L465.03 127.823
L462.913 127.823
L462.56 127.695
L462.207 127.823
L459.03 127.823
L456.913 128.079
L456.56 127.951
L455.148 127.951
L454.795 128.079
L454.442 127.951
L453.736 127.951
L453.383 128.079
L448.442 128.079
L444.913 128.335
L444.56 128.335
L444.207 128.463
L443.148 128.463
L442.795 128.591
L442.442 128.463
L440.325 128.463
L439.972 128.591
L436.795 128.591
L436.442 128.719
L436.089 128.719
L435.383 128.847
L433.619 128.591
L431.854 128.591
L431.501 128.719
L427.619 128.719
L411.736 128.975
L410.325 129.231
L409.266 129.231
L408.913 129.359
L407.148 129.103
L406.795 129.231
L404.677 129.231
L403.266 129.743
L402.56 129.743
L402.207 130.383
L400.442 129.743
L398.677 129.743
L396.207 129.999
L395.148 129.999
L394.442 130.127
L391.266 130.127
L390.56 130.767
L390.207 130.895
L389.148 130.767
L388.795 131.023
L385.266 131.279
L384.56 131.535
L382.795 131.535
L382.089 131.791
L381.383 131.791
L380.677 132.047
L377.854 132.047
L377.501 132.175
L377.148 132.559
L376.089 132.943
L375.736 133.455
L375.03 133.455
L374.677 133.583
L374.325 133.583
L373.619 133.839
L373.266 134.223
L372.56 134.479
L372.207 134.479
L371.854 134.735
L371.148 134.735
L370.795 134.863
L370.442 134.863
L369.736 135.247
L369.383 135.375
L369.03 135.631
L368.325 135.631
L367.619 135.887
L366.913 135.887
L366.207 136.143
L365.854 136.527
L365.501 136.655
L365.148 136.911
L364.795 136.911
L364.442 137.039
L364.089 137.039
L363.736 137.167
L363.383 137.167
L362.325 137.551
L360.56 137.551
L360.207 137.807
L359.854 137.807
L359.501 138.063
L359.148 138.063
L358.795 138.319
L358.442 138.319
L358.089 138.191
L357.736 138.191
L355.972 139.471
L354.913 139.343
L354.207 139.727
L353.854 139.855
L353.501 139.855
L353.148 139.983
L352.795 139.983
L351.383 140.495
L350.677 140.623
L350.325 140.879
L349.972 140.879
L349.619 141.007
L349.266 140.879
L348.913 140.879
L348.207 141.135
L347.854 141.135
L347.148 141.391
L346.795 141.263
L346.442 141.263
L345.736 141.519
L345.383 141.519
L345.03 141.647
L344.677 141.647
L343.619 142.031
L343.266 142.543
L342.913 142.543
L342.56 142.671
L342.207 143.055
L341.148 143.311
L340.442 143.567
L339.736 143.567
L339.383 143.695
L339.03 143.695
L337.972 144.079
L337.619 143.951
L337.266 144.079
L336.913 144.079
L336.207 144.847
L335.854 144.847
L335.501 144.975
L335.148 144.847
L334.795 144.975
L334.089 145.359
L328.442 148.303
L310.089 156.623
L304.442 160.719
L296.325 163.279
L294.207 164.559
L292.795 165.711
L285.383 168.143
L275.854 170.703
L273.03 171.855
L270.207 172.495
L267.03 173.007
L266.325 173.519
L264.913 173.647
L260.677 175.055
L256.442 177.871
L255.383 178.255
L253.972 178.895
L252.56 175.695
L250.795 176.847
L249.383 177.615
L243.736 180.047
L241.972 180.943
L239.148 181.711
L233.148 184.911
L229.972 185.551
L227.148 186.319
L220.089 188.623
L219.736 189.135
L219.383 189.391
L218.677 189.391
L217.972 189.647
L215.854 189.903
L215.501 190.287
L215.148 190.287
L214.795 190.543
L213.383 190.543
L209.501 191.695
L208.795 191.695
L208.089 191.951
L207.383 192.335
L206.325 192.847
L205.619 192.847
L202.795 193.231
L202.442 193.487
L201.03 193.743
L197.854 194.767
L197.501 195.151
L196.795 195.407
L196.089 195.407
L195.736 195.663
L194.325 195.919
L193.619 196.303
L193.266 196.303
L192.207 197.327
L191.501 197.583
L190.089 197.839
L189.383 198.223
L188.677 198.351
L186.56 198.479
L186.207 198.863
L185.501 198.863
L181.266 199.375
L180.913 199.631
L180.56 199.503
L180.207 199.759
L179.501 199.759
L179.148 200.015
L177.03 200.143
L176.325 200.399
L175.972 200.399
L175.619 200.655
L174.913 200.655
L173.148 201.807
L171.383 201.935
L169.619 201.935
L168.207 202.191
L166.795 202.959
L166.442 202.575
L166.089 202.575
L163.266 204.495
L162.56 204.495
L162.207 204.623
L161.854 205.007
L161.501 205.007
L161.148 205.135
L160.089 205.263
L159.736 205.263
L159.383 206.031
L159.03 206.031
L157.266 207.183
L154.795 208.079
L153.736 208.335
L153.03 208.847
L150.56 209.359
L149.854 209.615
L148.089 209.615
L147.03 210.255
L145.972 210.383
L145.266 210.895
L144.56 210.895
L144.207 211.023
L143.854 211.279
L143.148 211.279
L141.03 211.407
L139.619 212.047
L139.266 212.047
L138.913 212.431
L138.56 212.431
L138.207 212.559
L137.854 212.559
L137.501 212.815
L135.736 213.583
L134.677 213.583
L133.972 213.839
L132.913 213.839
L132.56 213.967
L132.207 213.967
L131.854 214.095
L131.501 214.351
L131.148 214.351
L130.795 214.479
L130.442 214.479
L130.089 214.607
L129.383 214.607
L128.677 215.119
L127.619 215.119
L126.913 215.375
L126.56 215.375
L126.207 215.631
L125.501 215.631
L125.148 215.759
L124.795 216.015
L124.442 216.015
L123.383 216.271
L123.03 216.527
L122.325 216.527
L121.619 217.039
L121.266 217.039
L120.913 217.167
L119.854 217.039
L119.501 217.167
L118.795 217.167
L118.442 217.295
L118.089 217.295
L117.03 217.423
L116.677 217.423
L116.325 218.447
L115.619 218.447
L114.913 218.831
L114.56 218.959
L113.501 219.727
L111.383 219.727
L110.677 219.983
L110.325 220.367
L109.619 220.623
L109.266 220.623
L108.207 221.263
L107.854 221.263
L107.501 221.391
L107.148 221.391
L106.442 221.775
L105.736 221.775
L105.03 222.031
L104.677 222.415
L104.677 222.415" style="fill:none;stroke:#0000ff;stroke-linecap:square;stroke-width:2;"/>
   </g>
   <g id="line2d_4">
    <path clip-path="url(#p4b7b2140f5)" d="
M542.677 87.2469
L538.442 87.7589
L530.677 87.8869
L529.972 87.7589
L500.677 89.8069
L498.56 89.6789
L498.207 89.9349
L496.795 90.0629
L495.736 89.9349
L495.383 89.9349
L495.03 90.1909
L494.677 90.1909
L494.325 91.8549
L493.972 90.4469
L493.266 90.7029
L492.913 90.7029
L492.207 90.8309
L491.854 90.4469
L491.501 90.9589
L490.442 90.3189
L489.736 90.1909
L489.383 90.5749
L488.325 90.5749
L487.972 90.4469
L487.619 90.5749
L487.266 90.4469
L486.56 90.4469
L486.207 90.5749
L485.854 90.8309
L484.795 90.8309
L484.442 90.7029
L483.736 90.9589
L483.383 90.9589
L483.03 90.8309
L482.325 91.0869
L481.619 90.9589
L481.266 91.0869
L480.913 90.9589
L480.56 91.0869
L479.148 91.3429
L478.795 91.2149
L478.442 91.2149
L478.089 91.0869
L477.736 91.2149
L477.03 91.2149
L476.677 91.3429
L475.972 91.2149
L475.266 91.5989
L474.913 91.5989
L474.56 91.7269
L473.854 92.1109
L473.501 91.8549
L472.442 92.2389
L472.089 92.1109
L471.736 92.2389
L471.383 92.6229
L471.03 92.7509
L470.677 92.6229
L469.972 92.7509
L469.619 93.2629
L469.266 93.1349
L468.913 93.2629
L468.56 93.5189
L468.207 93.5189
L467.854 93.9029
L467.501 93.6469
L467.148 93.6469
L466.795 94.0309
L466.442 93.9029
L466.089 93.9029
L465.383 95.0549
L465.03 94.7989
L464.677 94.7989
L463.972 95.1829
L463.619 95.3109
L462.56 96.2069
L462.207 96.0789
L461.854 96.2069
L461.501 96.4629
L461.148 96.2069
L460.795 96.4629
L459.03 96.4629
L457.972 97.4869
L456.56 97.9989
L456.207 97.8709
L455.501 98.8949
L455.148 98.7669
L454.795 99.0229
L454.442 98.8949
L454.089 98.8949
L453.736 99.0229
L453.383 99.0229
L453.03 99.6629
L452.325 100.303
L451.619 100.559
L451.266 100.559
L450.207 101.199
L449.501 101.455
L449.148 101.455
L448.795 101.839
L448.442 101.839
L445.972 103.247
L445.619 103.631
L445.266 103.503
L444.913 103.503
L444.56 103.631
L443.854 104.271
L443.501 104.143
L443.148 104.399
L442.795 105.039
L442.442 105.039
L441.736 105.295
L441.03 105.295
L440.677 105.551
L440.325 105.551
L439.619 106.191
L439.266 105.935
L438.913 105.935
L438.56 106.191
L438.207 106.959
L437.854 107.087
L437.501 106.959
L437.148 107.087
L436.795 106.959
L436.442 107.343
L436.089 107.471
L435.383 107.343
L433.619 107.215
L433.266 107.727
L432.56 108.367
L432.207 109.007
L431.854 109.135
L431.501 109.391
L430.795 109.519
L430.442 109.775
L427.619 110.031
L414.56 115.023
L412.795 115.023
L412.442 115.663
L411.736 115.663
L410.325 116.175
L409.266 116.175
L408.913 116.687
L407.148 116.943
L406.795 117.711
L406.089 117.967
L405.736 118.735
L404.677 118.735
L404.325 118.863
L403.266 119.759
L402.56 119.759
L402.207 120.527
L400.442 119.759
L400.089 119.759
L399.736 119.887
L399.383 119.887
L399.03 119.759
L398.677 119.887
L397.619 120.399
L396.56 120.527
L396.207 120.527
L395.501 120.655
L395.148 120.527
L394.442 120.783
L393.736 121.295
L393.383 121.935
L392.677 121.679
L391.972 121.935
L391.619 122.447
L391.266 122.575
L390.913 122.959
L390.56 123.599
L390.207 123.855
L389.148 123.983
L388.795 125.007
L384.56 126.543
L384.207 126.543
L383.501 127.055
L382.795 127.055
L382.089 127.951
L381.383 127.951
L381.03 128.079
L380.325 128.463
L379.972 128.591
L379.619 129.103
L379.266 129.103
L378.913 129.231
L378.207 129.615
L377.854 129.743
L377.148 130.639
L376.795 130.639
L376.089 131.023
L375.736 129.359
L375.03 129.231
L374.677 129.359
L373.619 129.999
L373.266 131.407
L372.913 131.919
L371.854 132.303
L371.501 132.687
L371.148 132.559
L370.795 132.559
L370.442 131.663
L370.089 131.919
L369.736 132.431
L369.383 132.431
L369.03 132.815
L368.677 132.943
L368.325 132.815
L366.913 133.327
L366.207 133.711
L365.854 134.223
L365.501 134.223
L365.148 134.479
L364.795 134.479
L363.736 134.863
L363.383 134.863
L362.677 135.503
L362.325 135.503
L361.972 135.631
L361.619 135.503
L360.56 135.503
L360.207 135.759
L359.854 136.655
L359.501 136.015
L359.148 136.143
L358.442 136.527
L358.089 136.655
L357.736 136.655
L357.03 137.679
L356.677 137.679
L355.972 138.319
L354.913 138.191
L353.854 138.959
L353.501 138.959
L353.148 139.087
L352.795 139.087
L352.442 139.215
L352.089 139.471
L351.736 139.471
L351.383 139.599
L350.677 139.727
L350.325 140.111
L349.619 140.111
L349.266 139.983
L348.56 140.239
L347.854 140.239
L347.501 140.367
L347.148 140.367
L346.795 140.495
L346.442 140.495
L345.03 141.007
L344.677 141.007
L343.972 141.519
L343.619 141.519
L343.266 142.031
L342.913 142.031
L342.56 142.159
L342.207 142.415
L340.442 143.055
L339.736 143.055
L339.383 143.183
L339.03 143.183
L338.325 143.439
L337.972 143.439
L337.619 143.567
L337.266 143.439
L336.913 143.567
L336.207 144.335
L335.148 144.335
L334.795 144.463
L334.089 144.847
L310.089 156.751
L304.442 160.719
L296.325 163.407
L294.207 164.559
L292.795 165.711
L285.383 168.271
L273.383 171.471
L273.03 171.727
L270.207 172.367
L270.207 172.367" style="fill:none;stroke:#000000;stroke-linecap:square;stroke-width:2;"/>
   </g>
   <g id="line2d_5">
    <path clip-path="url(#p4b7b2140f5)" d="
M614.677 26.0629
L613.972 25.5509
L613.266 26.8309
L612.56 26.3189
L611.854 26.5749
L611.148 34.8949
L610.442 28.6229
L609.736 28.6229
L609.03 27.7269
L608.325 27.3429
L607.619 28.3669
L606.913 28.8789
L606.207 29.1349
L605.501 28.2389
L604.795 28.8789
L601.972 29.3909
L601.266 30.2869
L587.501 38.7349
L586.795 36.6869
L586.089 36.8149
L585.383 37.4549
L584.677 37.3269
L583.972 38.2229
L583.266 37.7109
L582.56 38.6069
L581.854 38.3509
L581.148 38.2229
L580.442 38.3509
L579.736 39.1189
L579.03 39.5029
L577.619 39.7589
L576.207 40.6549
L575.501 40.9109
L574.795 40.9109
L574.089 41.8069
L573.383 42.1909
L572.325 42.4469
L563.854 47.5669
L563.148 48.3349
L562.442 48.3349
L561.736 49.3589
L561.03 49.2309
L560.325 50.5109
L559.619 49.9989
L558.913 50.6389
L558.207 52.1749
L556.795 52.0469
L556.089 52.6869
L555.383 53.0709
L554.677 52.6869
L553.972 52.6869
L553.266 52.4309
L552.56 52.6869
L551.501 53.4549
L550.089 55.2469
L549.383 55.7589
L548.677 55.8869
L547.972 56.3989
L547.266 56.6549
L546.56 57.0389
L545.854 57.1669
L545.148 57.8069
L543.383 59.0869
L542.677 58.4469
L538.442 59.5989
L529.972 63.3109
L500.677 80.8469
L498.56 81.6149
L498.207 82.2549
L497.148 83.0229
L496.795 83.0229
L495.736 83.4069
L495.383 83.7909
L494.677 84.0469
L494.325 86.3509
L493.972 84.5589
L493.619 85.9669
L493.266 85.8389
L492.913 85.8389
L492.207 86.2229
L491.854 86.6069
L491.501 86.7349
L489.03 87.3749
L487.619 88.6549
L487.266 89.1669
L485.501 89.5509
L484.795 89.9349
L484.442 89.8069
L484.089 90.0629
L483.736 90.0629
L483.03 90.3189
L482.325 90.7029
L481.619 90.8309
L481.266 91.0869
L480.913 90.8309
L479.854 91.7269
L479.501 91.5989
L479.148 91.8549
L478.795 91.7269
L478.089 91.7269
L477.736 91.9829
L476.677 92.1109
L475.972 92.1109
L475.266 93.0069
L474.913 93.0069
L474.207 93.3909
L473.148 93.7749
L472.442 94.4149
L472.089 89.2949
L471.736 89.4229
L471.383 89.9349
L470.677 90.1909
L469.972 90.3189
L469.266 90.9589
L468.913 91.0869
L468.56 91.9829
L468.207 92.1109
L467.854 92.6229
L467.501 94.5429
L467.148 92.7509
L466.795 93.1349
L466.442 93.0069
L466.089 93.1349
L465.736 93.7749
L465.383 94.0309
L464.677 94.0309
L464.325 94.5429
L463.972 94.5429
L461.854 96.2069
L461.501 96.0789
L460.795 96.3349
L460.442 96.3349
L460.089 96.4629
L459.736 96.4629
L459.03 96.7189
L456.913 98.3829
L456.56 98.5109
L456.207 98.5109
L455.854 99.1509
L455.501 99.2789
L455.148 99.5349
L454.795 99.4069
L454.089 99.6629
L453.736 99.5349
L453.383 99.6629
L453.03 100.303
L451.619 101.199
L451.266 101.071
L450.913 101.583
L450.56 101.455
L450.207 101.583
L449.501 102.095
L448.795 102.095
L448.442 102.479
L445.972 103.887
L445.619 103.887
L445.266 104.271
L444.56 104.015
L444.207 104.527
L443.854 104.527
L443.501 104.655
L442.089 106.191
L441.736 105.807
L441.03 105.807
L440.677 106.063
L440.325 106.063
L439.972 106.447
L439.619 106.575
L439.266 106.575
L438.56 106.831
L438.207 107.983
L437.854 107.599
L437.148 107.855
L436.795 107.343
L436.089 107.727
L435.383 107.983
L433.972 107.727
L433.619 107.855
L433.266 108.239
L432.56 108.751
L432.207 109.775
L431.854 109.775
L431.501 110.031
L427.619 110.671
L414.56 115.663
L412.795 115.663
L412.442 116.303
L409.266 116.815
L408.913 117.327
L407.148 117.327
L406.795 118.223
L406.089 118.479
L405.736 119.247
L404.677 119.247
L403.266 120.143
L402.913 120.143
L402.56 120.271
L402.207 120.783
L400.442 120.271
L400.089 120.399
L399.736 120.271
L398.677 120.271
L397.619 120.911
L396.56 121.039
L395.148 121.039
L394.442 121.295
L393.383 122.191
L392.677 122.191
L391.972 122.447
L391.619 122.831
L391.266 122.831
L390.207 124.367
L389.148 124.367
L388.795 125.519
L385.266 127.055
L384.207 127.183
L383.501 127.695
L382.795 127.695
L382.089 128.591
L381.03 128.591
L380.677 128.975
L379.972 129.231
L379.619 129.743
L377.854 130.383
L377.148 131.151
L377.148 131.151" style="fill:none;stroke:#bfbf00;stroke-linecap:square;stroke-width:2;"/>
   </g>
   <g id="line2d_6">
    <path clip-path="url(#p4b7b2140f5)" d="
M587.501 38.6069
L586.795 36.4309
L586.089 36.6869
L585.383 36.9429
L584.677 36.5589
L583.972 37.7109
L583.266 37.8389
L582.56 37.8389
L581.854 37.5829
L581.148 37.7109
L580.442 37.9669
L579.736 38.2229
L579.03 39.1189
L577.619 39.7589
L576.913 40.3989
L576.207 40.6549
L575.501 40.6549
L574.795 40.9109
L574.089 42.0629
L573.383 42.8309
L572.325 43.4709
L563.854 49.4869
L563.148 50.6389
L562.442 50.5109
L561.736 51.9189
L561.03 51.2789
L560.325 52.4309
L559.619 52.1749
L558.913 52.6869
L558.207 53.7109
L556.795 56.5269
L556.089 56.0149
L555.383 56.1429
L554.677 55.8869
L553.972 54.4789
L553.266 54.6069
L552.56 54.3509
L551.501 55.3749
L550.089 56.5269
L549.383 56.0149
L548.677 56.0149
L547.972 56.1429
L547.266 56.5269
L546.56 57.0389
L545.854 58.1909
L545.148 58.7029
L543.383 63.6949
L542.677 63.8229" style="fill:none;stroke:#bf00bf;stroke-linecap:square;stroke-width:2;"/>
   </g>
   <g id="line2d_7">
    <path clip-path="url(#p4b7b2140f5)" d="
M107.148 243.407
L107.148 13.0069" style="fill:none;stroke:#333333;stroke-linecap:square;"/>
   </g>
   <g id="line2d_8">
    <path clip-path="url(#p4b7b2140f5)" d="
M118.442 243.407
L118.442 13.0069" style="fill:none;stroke:#cccccc;stroke-linecap:square;"/>
   </g>
   <g id="line2d_9">
    <path clip-path="url(#p4b7b2140f5)" d="
M129.03 243.407
L129.03 13.0069" style="fill:none;stroke:#cccccc;stroke-linecap:square;"/>
   </g>
   <g id="line2d_10">
    <path clip-path="url(#p4b7b2140f5)" d="
M140.677 243.407
L140.677 13.0069" style="fill:none;stroke:#cccccc;stroke-linecap:square;"/>
   </g>
   <g id="line2d_11">
    <path clip-path="url(#p4b7b2140f5)" d="
M152.325 243.407
L152.325 13.0069" style="fill:none;stroke:#cccccc;stroke-linecap:square;"/>
   </g>
   <g id="line2d_12">
    <path clip-path="url(#p4b7b2140f5)" d="
M156.913 243.407
L156.913 13.0069" style="fill:none;stroke:#cccccc;stroke-linecap:square;"/>
   </g>
   <g id="line2d_13">
    <path clip-path="url(#p4b7b2140f5)" d="
M171.03 243.407
L171.03 13.0069" style="fill:none;stroke:#cccccc;stroke-linecap:square;"/>
   </g>
   <g id="line2d_14">
    <path clip-path="url(#p4b7b2140f5)" d="
M183.03 243.407
L183.03 13.0069" style="fill:none;stroke:#cccccc;stroke-linecap:square;"/>
   </g>
   <g id="line2d_15">
    <path clip-path="url(#p4b7b2140f5)" d="
M196.442 243.407
L196.442 13.0069" style="fill:none;stroke:#cccccc;stroke-linecap:square;"/>
   </g>
   <g id="line2d_16">
    <path clip-path="url(#p4b7b2140f5)" d="
M207.03 243.407
L207.03 13.0069" style="fill:none;stroke:#cccccc;stroke-linecap:square;"/>
   </g>
   <g id="line2d_17">
    <path clip-path="url(#p4b7b2140f5)" d="
M215.854 243.407
L215.854 13.0069" style="fill:none;stroke:#cccccc;stroke-linecap:square;"/>
   </g>
   <g id="line2d_18">
    <path clip-path="url(#p4b7b2140f5)" d="
M227.501 243.407
L227.501 13.0069" style="fill:none;stroke:#cccccc;stroke-linecap:square;"/>
   </g>
   <g id="line2d_19">
    <path clip-path="url(#p4b7b2140f5)" d="
M259.619 243.407
L259.619 13.0069" style="fill:none;stroke:#cccccc;stroke-linecap:square;"/>
   </g>
   <g id="line2d_20">
    <path clip-path="url(#p4b7b2140f5)" d="
M253.266 243.407
L253.266 13.0069" style="fill:none;stroke:#333333;stroke-linecap:square;"/>
   </g>
   <g id="line2d_21">
    <path clip-path="url(#p4b7b2140f5)" d="
M264.207 243.407
L264.207 13.0069" style="fill:none;stroke:#cccccc;stroke-linecap:square;"/>
   </g>
   <g id="line2d_22">
    <path clip-path="url(#p4b7b2140f5)" d="
M274.089 243.407
L274.089 13.0069" style="fill:none;stroke:#cccccc;stroke-linecap:square;"/>
   </g>
   <g id="line2d_23">
    <path clip-path="url(#p4b7b2140f5)" d="
M287.148 243.407
L287.148 13.0069" style="fill:none;stroke:#cccccc;stroke-linecap:square;"/>
   </g>
   <g id="line2d_24">
    <path clip-path="url(#p4b7b2140f5)" d="
M310.089 243.407
L310.089 13.0069" style="fill:none;stroke:#cccccc;stroke-linecap:square;"/>
   </g>
   <g id="line2d_25">
    <path clip-path="url(#p4b7b2140f5)" d="
M343.266 243.407
L343.266 13.0069" style="fill:none;stroke:#cccccc;stroke-linecap:square;"/>
   </g>
   <g id="line2d_26">
    <path clip-path="url(#p4b7b2140f5)" d="
M375.383 243.407
L375.383 13.0069" style="fill:none;stroke:#cccccc;stroke-linecap:square;"/>
   </g>
   <g id="line2d_27">
    <path clip-path="url(#p4b7b2140f5)" d="
M375.736 243.407
L375.736 13.0069" style="fill:none;stroke:#333333;stroke-linecap:square;"/>
   </g>
   <g id="line2d_28">
    <path clip-path="url(#p4b7b2140f5)" d="
M434.677 243.407
L434.677 13.0069" style="fill:none;stroke:#cccccc;stroke-linecap:square;"/>
   </g>
   <g id="line2d_29">
    <path clip-path="url(#p4b7b2140f5)" d="
M456.56 243.407
L456.56 13.0069" style="fill:none;stroke:#cccccc;stroke-linecap:square;"/>
   </g>
   <g id="line2d_30">
    <path clip-path="url(#p4b7b2140f5)" d="
M472.089 243.407
L472.089 13.0069" style="fill:none;stroke:#333333;stroke-linecap:square;"/>
   </g>
   <g id="line2d_31">
    <path clip-path="url(#p4b7b2140f5)" d="
M516.913 243.407
L516.913 13.0069" style="fill:none;stroke:#cccccc;stroke-linecap:square;"/>
   </g>
   <g id="line2d_32">
    <path clip-path="url(#p4b7b2140f5)" d="
M534.56 243.407
L534.56 13.0069" style="fill:none;stroke:#cccccc;stroke-linecap:square;"/>
   </g>
   <g id="matplotlib.axis_1">
    <g id="xtick_1">
     <g id="line2d_33">
      <defs>
       <path d="
M0 0
L0 -4" id="m93b0483c22" style="stroke:#000000;stroke-width:0.5;"/>
      </defs>
      <g>
       <use style="stroke:#000000;stroke-width:0.5;" x="78.9127941176" xlink:href="#m93b0483c22" y="243.406875"/>
      </g>
     </g>
     <g id="line2d_34">
      <defs>
       <path d="
M0 0
L0 4" id="m741efc42ff" style="stroke:#000000;stroke-width:0.5;"/>
      </defs>
      <g>
       <use style="stroke:#000000;stroke-width:0.5;" x="78.9127941176" xlink:href="#m741efc42ff" y="13.006875"/>
      </g>
     </g>
     <g id="text_1">
      <!-- Jun 2014 -->
      <defs>
       <path d="
M9.8125 72.9062
L19.6719 72.9062
L19.6719 5.07812
Q19.6719 -8.10938 14.6719 -14.0625
Q9.67188 -20.0156 -1.42188 -20.0156
L-5.17188 -20.0156
L-5.17188 -11.7188
L-2.09375 -11.7188
Q4.4375 -11.7188 7.125 -8.04688
Q9.8125 -4.39062 9.8125 5.07812
z
" id="DejaVuSans-4a"/>
       <path d="
M54.8906 33.0156
L54.8906 0
L45.9062 0
L45.9062 32.7188
Q45.9062 40.4844 42.875 44.3281
Q39.8438 48.1875 33.7969 48.1875
Q26.5156 48.1875 22.3125 43.5469
Q18.1094 38.9219 18.1094 30.9062
L18.1094 0
L9.07812 0
L9.07812 54.6875
L18.1094 54.6875
L18.1094 46.1875
Q21.3438 51.125 25.7031 53.5625
Q30.0781 56 35.7969 56
Q45.2188 56 50.0469 50.1719
Q54.8906 44.3438 54.8906 33.0156" id="DejaVuSans-6e"/>
       <path d="
M12.4062 8.29688
L28.5156 8.29688
L28.5156 63.9219
L10.9844 60.4062
L10.9844 69.3906
L28.4219 72.9062
L38.2812 72.9062
L38.2812 8.29688
L54.3906 8.29688
L54.3906 0
L12.4062 0
z
" id="DejaVuSans-31"/>
       <path d="
M31.7812 66.4062
Q24.1719 66.4062 20.3281 58.9062
Q16.5 51.4219 16.5 36.375
Q16.5 21.3906 20.3281 13.8906
Q24.1719 6.39062 31.7812 6.39062
Q39.4531 6.39062 43.2812 13.8906
Q47.125 21.3906 47.125 36.375
Q47.125 51.4219 43.2812 58.9062
Q39.4531 66.4062 31.7812 66.4062
M31.7812 74.2188
Q44.0469 74.2188 50.5156 64.5156
Q56.9844 54.8281 56.9844 36.375
Q56.9844 17.9688 50.5156 8.26562
Q44.0469 -1.42188 31.7812 -1.42188
Q19.5312 -1.42188 13.0625 8.26562
Q6.59375 17.9688 6.59375 36.375
Q6.59375 54.8281 13.0625 64.5156
Q19.5312 74.2188 31.7812 74.2188" id="DejaVuSans-30"/>
       <path id="DejaVuSans-20"/>
       <path d="
M19.1875 8.29688
L53.6094 8.29688
L53.6094 0
L7.32812 0
L7.32812 8.29688
Q12.9375 14.1094 22.625 23.8906
Q32.3281 33.6875 34.8125 36.5312
Q39.5469 41.8438 41.4219 45.5312
Q43.3125 49.2188 43.3125 52.7812
Q43.3125 58.5938 39.2344 62.25
Q35.1562 65.9219 28.6094 65.9219
Q23.9688 65.9219 18.8125 64.3125
Q13.6719 62.7031 7.8125 59.4219
L7.8125 69.3906
Q13.7656 71.7812 18.9375 73
Q24.125 74.2188 28.4219 74.2188
Q39.75 74.2188 46.4844 68.5469
Q53.2188 62.8906 53.2188 53.4219
Q53.2188 48.9219 51.5312 44.8906
Q49.8594 40.875 45.4062 35.4062
Q44.1875 33.9844 37.6406 27.2188
Q31.1094 20.4531 19.1875 8.29688" id="DejaVuSans-32"/>
       <path d="
M37.7969 64.3125
L12.8906 25.3906
L37.7969 25.3906
z

M35.2031 72.9062
L47.6094 72.9062
L47.6094 25.3906
L58.0156 25.3906
L58.0156 17.1875
L47.6094 17.1875
L47.6094 0
L37.7969 0
L37.7969 17.1875
L4.89062 17.1875
L4.89062 26.7031
z
" id="DejaVuSans-34"/>
       <path d="
M8.5 21.5781
L8.5 54.6875
L17.4844 54.6875
L17.4844 21.9219
Q17.4844 14.1562 20.5 10.2656
Q23.5312 6.39062 29.5938 6.39062
Q36.8594 6.39062 41.0781 11.0312
Q45.3125 15.6719 45.3125 23.6875
L45.3125 54.6875
L54.2969 54.6875
L54.2969 0
L45.3125 0
L45.3125 8.40625
Q42.0469 3.42188 37.7188 1
Q33.4062 -1.42188 27.6875 -1.42188
Q18.2656 -1.42188 13.375 4.4375
Q8.5 10.2969 8.5 21.5781
M31.1094 56
z
" id="DejaVuSans-75"/>
      </defs>
      <g transform="translate(82.2240441176 300.458125)rotate(-90.0)scale(0.12 -0.12)">
       <use xlink:href="#DejaVuSans-4a"/>
       <use x="29.4921875" xlink:href="#DejaVuSans-75"/>
       <use x="92.87109375" xlink:href="#DejaVuSans-6e"/>
       <use x="156.25" xlink:href="#DejaVuSans-20"/>
       <use x="188.037109375" xlink:href="#DejaVuSans-32"/>
       <use x="251.66015625" xlink:href="#DejaVuSans-30"/>
       <use x="315.283203125" xlink:href="#DejaVuSans-31"/>
       <use x="378.90625" xlink:href="#DejaVuSans-34"/>
      </g>
     </g>
    </g>
    <g id="xtick_2">
     <g id="line2d_35">
      <g>
       <use style="stroke:#000000;stroke-width:0.5;" x="143.501029412" xlink:href="#m93b0483c22" y="243.406875"/>
      </g>
     </g>
     <g id="line2d_36">
      <g>
       <use style="stroke:#000000;stroke-width:0.5;" x="143.501029412" xlink:href="#m741efc42ff" y="13.006875"/>
      </g>
     </g>
     <g id="text_2">
      <!-- Dec 2014 -->
      <defs>
       <path d="
M19.6719 64.7969
L19.6719 8.10938
L31.5938 8.10938
Q46.6875 8.10938 53.6875 14.9375
Q60.6875 21.7812 60.6875 36.5312
Q60.6875 51.1719 53.6875 57.9844
Q46.6875 64.7969 31.5938 64.7969
z

M9.8125 72.9062
L30.0781 72.9062
Q51.2656 72.9062 61.1719 64.0938
Q71.0938 55.2812 71.0938 36.5312
Q71.0938 17.6719 61.125 8.82812
Q51.1719 0 30.0781 0
L9.8125 0
z
" id="DejaVuSans-44"/>
       <path d="
M56.2031 29.5938
L56.2031 25.2031
L14.8906 25.2031
Q15.4844 15.9219 20.4844 11.0625
Q25.4844 6.20312 34.4219 6.20312
Q39.5938 6.20312 44.4531 7.46875
Q49.3125 8.73438 54.1094 11.2812
L54.1094 2.78125
Q49.2656 0.734375 44.1875 -0.34375
Q39.1094 -1.42188 33.8906 -1.42188
Q20.7969 -1.42188 13.1562 6.1875
Q5.51562 13.8125 5.51562 26.8125
Q5.51562 40.2344 12.7656 48.1094
Q20.0156 56 32.3281 56
Q43.3594 56 49.7812 48.8906
Q56.2031 41.7969 56.2031 29.5938
M47.2188 32.2344
Q47.125 39.5938 43.0938 43.9844
Q39.0625 48.3906 32.4219 48.3906
Q24.9062 48.3906 20.3906 44.1406
Q15.875 39.8906 15.1875 32.1719
z
" id="DejaVuSans-65"/>
       <path d="
M48.7812 52.5938
L48.7812 44.1875
Q44.9688 46.2969 41.1406 47.3438
Q37.3125 48.3906 33.4062 48.3906
Q24.6562 48.3906 19.8125 42.8438
Q14.9844 37.3125 14.9844 27.2969
Q14.9844 17.2812 19.8125 11.7344
Q24.6562 6.20312 33.4062 6.20312
Q37.3125 6.20312 41.1406 7.25
Q44.9688 8.29688 48.7812 10.4062
L48.7812 2.09375
Q45.0156 0.34375 40.9844 -0.53125
Q36.9688 -1.42188 32.4219 -1.42188
Q20.0625 -1.42188 12.7812 6.34375
Q5.51562 14.1094 5.51562 27.2969
Q5.51562 40.6719 12.8594 48.3281
Q20.2188 56 33.0156 56
Q37.1562 56 41.1094 55.1406
Q45.0625 54.2969 48.7812 52.5938" id="DejaVuSans-63"/>
      </defs>
      <g transform="translate(146.812279412 304.309375)rotate(-90.0)scale(0.12 -0.12)">
       <use xlink:href="#DejaVuSans-44"/>
       <use x="77.001953125" xlink:href="#DejaVuSans-65"/>
       <use x="138.525390625" xlink:href="#DejaVuSans-63"/>
       <use x="193.505859375" xlink:href="#DejaVuSans-20"/>
       <use x="225.29296875" xlink:href="#DejaVuSans-32"/>
       <use x="288.916015625" xlink:href="#DejaVuSans-30"/>
       <use x="352.5390625" xlink:href="#DejaVuSans-31"/>
       <use x="416.162109375" xlink:href="#DejaVuSans-34"/>
      </g>
     </g>
    </g>
    <g id="xtick_3">
     <g id="line2d_37">
      <g>
       <use style="stroke:#000000;stroke-width:0.5;" x="207.736323529" xlink:href="#m93b0483c22" y="243.406875"/>
      </g>
     </g>
     <g id="line2d_38">
      <g>
       <use style="stroke:#000000;stroke-width:0.5;" x="207.736323529" xlink:href="#m741efc42ff" y="13.006875"/>
      </g>
     </g>
     <g id="text_3">
      <!-- Jun 2015 -->
      <defs>
       <path d="
M10.7969 72.9062
L49.5156 72.9062
L49.5156 64.5938
L19.8281 64.5938
L19.8281 46.7344
Q21.9688 47.4688 24.1094 47.8281
Q26.2656 48.1875 28.4219 48.1875
Q40.625 48.1875 47.75 41.5
Q54.8906 34.8125 54.8906 23.3906
Q54.8906 11.625 47.5625 5.09375
Q40.2344 -1.42188 26.9062 -1.42188
Q22.3125 -1.42188 17.5469 -0.640625
Q12.7969 0.140625 7.71875 1.70312
L7.71875 11.625
Q12.1094 9.23438 16.7969 8.0625
Q21.4844 6.89062 26.7031 6.89062
Q35.1562 6.89062 40.0781 11.3281
Q45.0156 15.7656 45.0156 23.3906
Q45.0156 31 40.0781 35.4375
Q35.1562 39.8906 26.7031 39.8906
Q22.75 39.8906 18.8125 39.0156
Q14.8906 38.1406 10.7969 36.2812
z
" id="DejaVuSans-35"/>
      </defs>
      <g transform="translate(211.047573529 300.083125)rotate(-90.0)scale(0.12 -0.12)">
       <use xlink:href="#DejaVuSans-4a"/>
       <use x="29.4921875" xlink:href="#DejaVuSans-75"/>
       <use x="92.87109375" xlink:href="#DejaVuSans-6e"/>
       <use x="156.25" xlink:href="#DejaVuSans-20"/>
       <use x="188.037109375" xlink:href="#DejaVuSans-32"/>
       <use x="251.66015625" xlink:href="#DejaVuSans-30"/>
       <use x="315.283203125" xlink:href="#DejaVuSans-31"/>
       <use x="378.90625" xlink:href="#DejaVuSans-35"/>
      </g>
     </g>
    </g>
    <g id="xtick_4">
     <g id="line2d_39">
      <g>
       <use style="stroke:#000000;stroke-width:0.5;" x="272.324558824" xlink:href="#m93b0483c22" y="243.406875"/>
      </g>
     </g>
     <g id="line2d_40">
      <g>
       <use style="stroke:#000000;stroke-width:0.5;" x="272.324558824" xlink:href="#m741efc42ff" y="13.006875"/>
      </g>
     </g>
     <g id="text_4">
      <!-- Dec 2015 -->
      <g transform="translate(275.635808824 303.934375)rotate(-90.0)scale(0.12 -0.12)">
       <use xlink:href="#DejaVuSans-44"/>
       <use x="77.001953125" xlink:href="#DejaVuSans-65"/>
       <use x="138.525390625" xlink:href="#DejaVuSans-63"/>
       <use x="193.505859375" xlink:href="#DejaVuSans-20"/>
       <use x="225.29296875" xlink:href="#DejaVuSans-32"/>
       <use x="288.916015625" xlink:href="#DejaVuSans-30"/>
       <use x="352.5390625" xlink:href="#DejaVuSans-31"/>
       <use x="416.162109375" xlink:href="#DejaVuSans-35"/>
      </g>
     </g>
    </g>
    <g id="xtick_5">
     <g id="line2d_41">
      <g>
       <use style="stroke:#000000;stroke-width:0.5;" x="336.912794118" xlink:href="#m93b0483c22" y="243.406875"/>
      </g>
     </g>
     <g id="line2d_42">
      <g>
       <use style="stroke:#000000;stroke-width:0.5;" x="336.912794118" xlink:href="#m741efc42ff" y="13.006875"/>
      </g>
     </g>
     <g id="text_5">
      <!-- Jun 2016 -->
      <defs>
       <path d="
M33.0156 40.375
Q26.375 40.375 22.4844 35.8281
Q18.6094 31.2969 18.6094 23.3906
Q18.6094 15.5312 22.4844 10.9531
Q26.375 6.39062 33.0156 6.39062
Q39.6562 6.39062 43.5312 10.9531
Q47.4062 15.5312 47.4062 23.3906
Q47.4062 31.2969 43.5312 35.8281
Q39.6562 40.375 33.0156 40.375
M52.5938 71.2969
L52.5938 62.3125
Q48.875 64.0625 45.0938 64.9844
Q41.3125 65.9219 37.5938 65.9219
Q27.8281 65.9219 22.6719 59.3281
Q17.5312 52.7344 16.7969 39.4062
Q19.6719 43.6562 24.0156 45.9219
Q28.375 48.1875 33.5938 48.1875
Q44.5781 48.1875 50.9531 41.5156
Q57.3281 34.8594 57.3281 23.3906
Q57.3281 12.1562 50.6875 5.35938
Q44.0469 -1.42188 33.0156 -1.42188
Q20.3594 -1.42188 13.6719 8.26562
Q6.98438 17.9688 6.98438 36.375
Q6.98438 53.6562 15.1875 63.9375
Q23.3906 74.2188 37.2031 74.2188
Q40.9219 74.2188 44.7031 73.4844
Q48.4844 72.75 52.5938 71.2969" id="DejaVuSans-36"/>
      </defs>
      <g transform="translate(340.224044118 300.375625)rotate(-90.0)scale(0.12 -0.12)">
       <use xlink:href="#DejaVuSans-4a"/>
       <use x="29.4921875" xlink:href="#DejaVuSans-75"/>
       <use x="92.87109375" xlink:href="#DejaVuSans-6e"/>
       <use x="156.25" xlink:href="#DejaVuSans-20"/>
       <use x="188.037109375" xlink:href="#DejaVuSans-32"/>
       <use x="251.66015625" xlink:href="#DejaVuSans-30"/>
       <use x="315.283203125" xlink:href="#DejaVuSans-31"/>
       <use x="378.90625" xlink:href="#DejaVuSans-36"/>
      </g>
     </g>
    </g>
    <g id="xtick_6">
     <g id="line2d_43">
      <g>
       <use style="stroke:#000000;stroke-width:0.5;" x="401.501029412" xlink:href="#m93b0483c22" y="243.406875"/>
      </g>
     </g>
     <g id="line2d_44">
      <g>
       <use style="stroke:#000000;stroke-width:0.5;" x="401.501029412" xlink:href="#m741efc42ff" y="13.006875"/>
      </g>
     </g>
     <g id="text_6">
      <!-- Dec 2016 -->
      <g transform="translate(404.812279412 304.226875)rotate(-90.0)scale(0.12 -0.12)">
       <use xlink:href="#DejaVuSans-44"/>
       <use x="77.001953125" xlink:href="#DejaVuSans-65"/>
       <use x="138.525390625" xlink:href="#DejaVuSans-63"/>
       <use x="193.505859375" xlink:href="#DejaVuSans-20"/>
       <use x="225.29296875" xlink:href="#DejaVuSans-32"/>
       <use x="288.916015625" xlink:href="#DejaVuSans-30"/>
       <use x="352.5390625" xlink:href="#DejaVuSans-31"/>
       <use x="416.162109375" xlink:href="#DejaVuSans-36"/>
      </g>
     </g>
    </g>
    <g id="xtick_7">
     <g id="line2d_45">
      <g>
       <use style="stroke:#000000;stroke-width:0.5;" x="465.736323529" xlink:href="#m93b0483c22" y="243.406875"/>
      </g>
     </g>
     <g id="line2d_46">
      <g>
       <use style="stroke:#000000;stroke-width:0.5;" x="465.736323529" xlink:href="#m741efc42ff" y="13.006875"/>
      </g>
     </g>
     <g id="text_7">
      <!-- Jun 2017 -->
      <defs>
       <path d="
M8.20312 72.9062
L55.0781 72.9062
L55.0781 68.7031
L28.6094 0
L18.3125 0
L43.2188 64.5938
L8.20312 64.5938
z
" id="DejaVuSans-37"/>
      </defs>
      <g transform="translate(469.047573529 300.105625)rotate(-90.0)scale(0.12 -0.12)">
       <use xlink:href="#DejaVuSans-4a"/>
       <use x="29.4921875" xlink:href="#DejaVuSans-75"/>
       <use x="92.87109375" xlink:href="#DejaVuSans-6e"/>
       <use x="156.25" xlink:href="#DejaVuSans-20"/>
       <use x="188.037109375" xlink:href="#DejaVuSans-32"/>
       <use x="251.66015625" xlink:href="#DejaVuSans-30"/>
       <use x="315.283203125" xlink:href="#DejaVuSans-31"/>
       <use x="378.90625" xlink:href="#DejaVuSans-37"/>
      </g>
     </g>
    </g>
    <g id="xtick_8">
     <g id="line2d_47">
      <g>
       <use style="stroke:#000000;stroke-width:0.5;" x="530.324558824" xlink:href="#m93b0483c22" y="243.406875"/>
      </g>
     </g>
     <g id="line2d_48">
      <g>
       <use style="stroke:#000000;stroke-width:0.5;" x="530.324558824" xlink:href="#m741efc42ff" y="13.006875"/>
      </g>
     </g>
     <g id="text_8">
      <!-- Dec 2017 -->
      <g transform="translate(533.635808824 303.956875)rotate(-90.0)scale(0.12 -0.12)">
       <use xlink:href="#DejaVuSans-44"/>
       <use x="77.001953125" xlink:href="#DejaVuSans-65"/>
       <use x="138.525390625" xlink:href="#DejaVuSans-63"/>
       <use x="193.505859375" xlink:href="#DejaVuSans-20"/>
       <use x="225.29296875" xlink:href="#DejaVuSans-32"/>
       <use x="288.916015625" xlink:href="#DejaVuSans-30"/>
       <use x="352.5390625" xlink:href="#DejaVuSans-31"/>
       <use x="416.162109375" xlink:href="#DejaVuSans-37"/>
      </g>
     </g>
    </g>
    <g id="xtick_9">
     <g id="line2d_49">
      <g>
       <use style="stroke:#000000;stroke-width:0.5;" x="594.559852941" xlink:href="#m93b0483c22" y="243.406875"/>
      </g>
     </g>
     <g id="line2d_50">
      <g>
       <use style="stroke:#000000;stroke-width:0.5;" x="594.559852941" xlink:href="#m741efc42ff" y="13.006875"/>
      </g>
     </g>
     <g id="text_9">
      <!-- Jun 2018 -->
      <defs>
       <path d="
M31.7812 34.625
Q24.75 34.625 20.7188 30.8594
Q16.7031 27.0938 16.7031 20.5156
Q16.7031 13.9219 20.7188 10.1562
Q24.75 6.39062 31.7812 6.39062
Q38.8125 6.39062 42.8594 10.1719
Q46.9219 13.9688 46.9219 20.5156
Q46.9219 27.0938 42.8906 30.8594
Q38.875 34.625 31.7812 34.625
M21.9219 38.8125
Q15.5781 40.375 12.0312 44.7188
Q8.5 49.0781 8.5 55.3281
Q8.5 64.0625 14.7188 69.1406
Q20.9531 74.2188 31.7812 74.2188
Q42.6719 74.2188 48.875 69.1406
Q55.0781 64.0625 55.0781 55.3281
Q55.0781 49.0781 51.5312 44.7188
Q48 40.375 41.7031 38.8125
Q48.8281 37.1562 52.7969 32.3125
Q56.7812 27.4844 56.7812 20.5156
Q56.7812 9.90625 50.3125 4.23438
Q43.8438 -1.42188 31.7812 -1.42188
Q19.7344 -1.42188 13.25 4.23438
Q6.78125 9.90625 6.78125 20.5156
Q6.78125 27.4844 10.7812 32.3125
Q14.7969 37.1562 21.9219 38.8125
M18.3125 54.3906
Q18.3125 48.7344 21.8438 45.5625
Q25.3906 42.3906 31.7812 42.3906
Q38.1406 42.3906 41.7188 45.5625
Q45.3125 48.7344 45.3125 54.3906
Q45.3125 60.0625 41.7188 63.2344
Q38.1406 66.4062 31.7812 66.4062
Q25.3906 66.4062 21.8438 63.2344
Q18.3125 60.0625 18.3125 54.3906" id="DejaVuSans-38"/>
      </defs>
      <g transform="translate(597.871102941 300.31)rotate(-90.0)scale(0.12 -0.12)">
       <use xlink:href="#DejaVuSans-4a"/>
       <use x="29.4921875" xlink:href="#DejaVuSans-75"/>
       <use x="92.87109375" xlink:href="#DejaVuSans-6e"/>
       <use x="156.25" xlink:href="#DejaVuSans-20"/>
       <use x="188.037109375" xlink:href="#DejaVuSans-32"/>
       <use x="251.66015625" xlink:href="#DejaVuSans-30"/>
       <use x="315.283203125" xlink:href="#DejaVuSans-31"/>
       <use x="378.90625" xlink:href="#DejaVuSans-38"/>
      </g>
     </g>
    </g>
   </g>
   <g id="matplotlib.axis_2">
    <g id="ytick_1">
     <g id="line2d_51">
      <defs>
       <path d="
M0 0
L4 0" id="m728421d6d4" style="stroke:#000000;stroke-width:0.5;"/>
      </defs>
      <g>
       <use style="stroke:#000000;stroke-width:0.5;" x="56.6775" xlink:href="#m728421d6d4" y="243.406875"/>
      </g>
     </g>
     <g id="line2d_52">
      <defs>
       <path d="
M0 0
L-4 0" id="mcb0005524f" style="stroke:#000000;stroke-width:0.5;"/>
      </defs>
      <g>
       <use style="stroke:#000000;stroke-width:0.5;" x="614.6775" xlink:href="#mcb0005524f" y="243.406875"/>
      </g>
     </g>
     <g id="text_10">
      <!-- 200 -->
      <g transform="translate(31.44875 246.718125)scale(0.12 -0.12)">
       <use xlink:href="#DejaVuSans-32"/>
       <use x="63.623046875" xlink:href="#DejaVuSans-30"/>
       <use x="127.24609375" xlink:href="#DejaVuSans-30"/>
      </g>
     </g>
    </g>
    <g id="ytick_2">
     <g id="line2d_53">
      <g>
       <use style="stroke:#000000;stroke-width:0.5;" x="56.6775" xlink:href="#m728421d6d4" y="217.806875"/>
      </g>
     </g>
     <g id="line2d_54">
      <g>
       <use style="stroke:#000000;stroke-width:0.5;" x="614.6775" xlink:href="#mcb0005524f" y="217.806875"/>
      </g>
     </g>
     <g id="text_11">
      <!-- 400 -->
      <g transform="translate(31.15625 221.118125)scale(0.12 -0.12)">
       <use xlink:href="#DejaVuSans-34"/>
       <use x="63.623046875" xlink:href="#DejaVuSans-30"/>
       <use x="127.24609375" xlink:href="#DejaVuSans-30"/>
      </g>
     </g>
    </g>
    <g id="ytick_3">
     <g id="line2d_55">
      <g>
       <use style="stroke:#000000;stroke-width:0.5;" x="56.6775" xlink:href="#m728421d6d4" y="192.206875"/>
      </g>
     </g>
     <g id="line2d_56">
      <g>
       <use style="stroke:#000000;stroke-width:0.5;" x="614.6775" xlink:href="#mcb0005524f" y="192.206875"/>
      </g>
     </g>
     <g id="text_12">
      <!-- 600 -->
      <g transform="translate(31.4075 195.518125)scale(0.12 -0.12)">
       <use xlink:href="#DejaVuSans-36"/>
       <use x="63.623046875" xlink:href="#DejaVuSans-30"/>
       <use x="127.24609375" xlink:href="#DejaVuSans-30"/>
      </g>
     </g>
    </g>
    <g id="ytick_4">
     <g id="line2d_57">
      <g>
       <use style="stroke:#000000;stroke-width:0.5;" x="56.6775" xlink:href="#m728421d6d4" y="166.606875"/>
      </g>
     </g>
     <g id="line2d_58">
      <g>
       <use style="stroke:#000000;stroke-width:0.5;" x="614.6775" xlink:href="#mcb0005524f" y="166.606875"/>
      </g>
     </g>
     <g id="text_13">
      <!-- 800 -->
      <g transform="translate(31.383125 169.918125)scale(0.12 -0.12)">
       <use xlink:href="#DejaVuSans-38"/>
       <use x="63.623046875" xlink:href="#DejaVuSans-30"/>
       <use x="127.24609375" xlink:href="#DejaVuSans-30"/>
      </g>
     </g>
    </g>
    <g id="ytick_5">
     <g id="line2d_59">
      <g>
       <use style="stroke:#000000;stroke-width:0.5;" x="56.6775" xlink:href="#m728421d6d4" y="141.006875"/>
      </g>
     </g>
     <g id="line2d_60">
      <g>
       <use style="stroke:#000000;stroke-width:0.5;" x="614.6775" xlink:href="#mcb0005524f" y="141.006875"/>
      </g>
     </g>
     <g id="text_14">
      <!-- 1000 -->
      <g transform="translate(24.2525 144.318125)scale(0.12 -0.12)">
       <use xlink:href="#DejaVuSans-31"/>
       <use x="63.623046875" xlink:href="#DejaVuSans-30"/>
       <use x="127.24609375" xlink:href="#DejaVuSans-30"/>
       <use x="190.869140625" xlink:href="#DejaVuSans-30"/>
      </g>
     </g>
    </g>
    <g id="ytick_6">
     <g id="line2d_61">
      <g>
       <use style="stroke:#000000;stroke-width:0.5;" x="56.6775" xlink:href="#m728421d6d4" y="115.406875"/>
      </g>
     </g>
     <g id="line2d_62">
      <g>
       <use style="stroke:#000000;stroke-width:0.5;" x="614.6775" xlink:href="#mcb0005524f" y="115.406875"/>
      </g>
     </g>
     <g id="text_15">
      <!-- 1200 -->
      <g transform="translate(24.2525 118.718125)scale(0.12 -0.12)">
       <use xlink:href="#DejaVuSans-31"/>
       <use x="63.623046875" xlink:href="#DejaVuSans-32"/>
       <use x="127.24609375" xlink:href="#DejaVuSans-30"/>
       <use x="190.869140625" xlink:href="#DejaVuSans-30"/>
      </g>
     </g>
    </g>
    <g id="ytick_7">
     <g id="line2d_63">
      <g>
       <use style="stroke:#000000;stroke-width:0.5;" x="56.6775" xlink:href="#m728421d6d4" y="89.806875"/>
      </g>
     </g>
     <g id="line2d_64">
      <g>
       <use style="stroke:#000000;stroke-width:0.5;" x="614.6775" xlink:href="#mcb0005524f" y="89.806875"/>
      </g>
     </g>
     <g id="text_16">
      <!-- 1400 -->
      <g transform="translate(24.2525 93.118125)scale(0.12 -0.12)">
       <use xlink:href="#DejaVuSans-31"/>
       <use x="63.623046875" xlink:href="#DejaVuSans-34"/>
       <use x="127.24609375" xlink:href="#DejaVuSans-30"/>
       <use x="190.869140625" xlink:href="#DejaVuSans-30"/>
      </g>
     </g>
    </g>
    <g id="ytick_8">
     <g id="line2d_65">
      <g>
       <use style="stroke:#000000;stroke-width:0.5;" x="56.6775" xlink:href="#m728421d6d4" y="64.206875"/>
      </g>
     </g>
     <g id="line2d_66">
      <g>
       <use style="stroke:#000000;stroke-width:0.5;" x="614.6775" xlink:href="#mcb0005524f" y="64.206875"/>
      </g>
     </g>
     <g id="text_17">
      <!-- 1600 -->
      <g transform="translate(24.2525 67.518125)scale(0.12 -0.12)">
       <use xlink:href="#DejaVuSans-31"/>
       <use x="63.623046875" xlink:href="#DejaVuSans-36"/>
       <use x="127.24609375" xlink:href="#DejaVuSans-30"/>
       <use x="190.869140625" xlink:href="#DejaVuSans-30"/>
      </g>
     </g>
    </g>
    <g id="ytick_9">
     <g id="line2d_67">
      <g>
       <use style="stroke:#000000;stroke-width:0.5;" x="56.6775" xlink:href="#m728421d6d4" y="38.606875"/>
      </g>
     </g>
     <g id="line2d_68">
      <g>
       <use style="stroke:#000000;stroke-width:0.5;" x="614.6775" xlink:href="#mcb0005524f" y="38.606875"/>
      </g>
     </g>
     <g id="text_18">
      <!-- 1800 -->
      <g transform="translate(24.2525 41.918125)scale(0.12 -0.12)">
       <use xlink:href="#DejaVuSans-31"/>
       <use x="63.623046875" xlink:href="#DejaVuSans-38"/>
       <use x="127.24609375" xlink:href="#DejaVuSans-30"/>
       <use x="190.869140625" xlink:href="#DejaVuSans-30"/>
      </g>
     </g>
    </g>
    <g id="ytick_10">
     <g id="line2d_69">
      <g>
       <use style="stroke:#000000;stroke-width:0.5;" x="56.6775" xlink:href="#m728421d6d4" y="13.006875"/>
      </g>
     </g>
     <g id="line2d_70">
      <g>
       <use style="stroke:#000000;stroke-width:0.5;" x="614.6775" xlink:href="#mcb0005524f" y="13.006875"/>
      </g>
     </g>
     <g id="text_19">
      <!-- 2000 -->
      <g transform="translate(23.81375 16.318125)scale(0.12 -0.12)">
       <use xlink:href="#DejaVuSans-32"/>
       <use x="63.623046875" xlink:href="#DejaVuSans-30"/>
       <use x="127.24609375" xlink:href="#DejaVuSans-30"/>
       <use x="190.869140625" xlink:href="#DejaVuSans-30"/>
      </g>
     </g>
    </g>
    <g id="text_20">
     <!-- Number of Tagged Packages -->
     <defs>
      <path d="
M9.8125 72.9062
L23.0938 72.9062
L55.4219 11.9219
L55.4219 72.9062
L64.9844 72.9062
L64.9844 0
L51.7031 0
L19.3906 60.9844
L19.3906 0
L9.8125 0
z
" id="DejaVuSans-4e"/>
      <path d="
M19.6719 64.7969
L19.6719 37.4062
L32.0781 37.4062
Q38.9688 37.4062 42.7188 40.9688
Q46.4844 44.5312 46.4844 51.125
Q46.4844 57.6719 42.7188 61.2344
Q38.9688 64.7969 32.0781 64.7969
z

M9.8125 72.9062
L32.0781 72.9062
Q44.3438 72.9062 50.6094 67.3594
Q56.8906 61.8125 56.8906 51.125
Q56.8906 40.3281 50.6094 34.8125
Q44.3438 29.2969 32.0781 29.2969
L19.6719 29.2969
L19.6719 0
L9.8125 0
z
" id="DejaVuSans-50"/>
      <path d="
M30.6094 48.3906
Q23.3906 48.3906 19.1875 42.75
Q14.9844 37.1094 14.9844 27.2969
Q14.9844 17.4844 19.1562 11.8438
Q23.3438 6.20312 30.6094 6.20312
Q37.7969 6.20312 41.9844 11.8594
Q46.1875 17.5312 46.1875 27.2969
Q46.1875 37.0156 41.9844 42.7031
Q37.7969 48.3906 30.6094 48.3906
M30.6094 56
Q42.3281 56 49.0156 48.375
Q55.7188 40.7656 55.7188 27.2969
Q55.7188 13.875 49.0156 6.21875
Q42.3281 -1.42188 30.6094 -1.42188
Q18.8438 -1.42188 12.1719 6.21875
Q5.51562 13.875 5.51562 27.2969
Q5.51562 40.7656 12.1719 48.375
Q18.8438 56 30.6094 56" id="DejaVuSans-6f"/>
      <path d="
M52 44.1875
Q55.375 50.25 60.0625 53.125
Q64.75 56 71.0938 56
Q79.6406 56 84.2812 50.0156
Q88.9219 44.0469 88.9219 33.0156
L88.9219 0
L79.8906 0
L79.8906 32.7188
Q79.8906 40.5781 77.0938 44.375
Q74.3125 48.1875 68.6094 48.1875
Q61.625 48.1875 57.5625 43.5469
Q53.5156 38.9219 53.5156 30.9062
L53.5156 0
L44.4844 0
L44.4844 32.7188
Q44.4844 40.625 41.7031 44.4062
Q38.9219 48.1875 33.1094 48.1875
Q26.2188 48.1875 22.1562 43.5312
Q18.1094 38.875 18.1094 30.9062
L18.1094 0
L9.07812 0
L9.07812 54.6875
L18.1094 54.6875
L18.1094 46.1875
Q21.1875 51.2188 25.4844 53.6094
Q29.7812 56 35.6875 56
Q41.6562 56 45.8281 52.9688
Q50 49.9531 52 44.1875" id="DejaVuSans-6d"/>
      <path d="
M9.07812 75.9844
L18.1094 75.9844
L18.1094 31.1094
L44.9219 54.6875
L56.3906 54.6875
L27.3906 29.1094
L57.625 0
L45.9062 0
L18.1094 26.7031
L18.1094 0
L9.07812 0
z
" id="DejaVuSans-6b"/>
      <path d="
M34.2812 27.4844
Q23.3906 27.4844 19.1875 25
Q14.9844 22.5156 14.9844 16.5
Q14.9844 11.7188 18.1406 8.90625
Q21.2969 6.10938 26.7031 6.10938
Q34.1875 6.10938 38.7031 11.4062
Q43.2188 16.7031 43.2188 25.4844
L43.2188 27.4844
z

M52.2031 31.2031
L52.2031 0
L43.2188 0
L43.2188 8.29688
Q40.1406 3.32812 35.5469 0.953125
Q30.9531 -1.42188 24.3125 -1.42188
Q15.9219 -1.42188 10.9531 3.29688
Q6 8.01562 6 15.9219
Q6 25.1406 12.1719 29.8281
Q18.3594 34.5156 30.6094 34.5156
L43.2188 34.5156
L43.2188 35.4062
Q43.2188 41.6094 39.1406 45
Q35.0625 48.3906 27.6875 48.3906
Q23 48.3906 18.5469 47.2656
Q14.1094 46.1406 10.0156 43.8906
L10.0156 52.2031
Q14.9375 54.1094 19.5781 55.0469
Q24.2188 56 28.6094 56
Q40.4844 56 46.3438 49.8438
Q52.2031 43.7031 52.2031 31.2031" id="DejaVuSans-61"/>
      <path d="
M37.1094 75.9844
L37.1094 68.5
L28.5156 68.5
Q23.6875 68.5 21.7969 66.5469
Q19.9219 64.5938 19.9219 59.5156
L19.9219 54.6875
L34.7188 54.6875
L34.7188 47.7031
L19.9219 47.7031
L19.9219 0
L10.8906 0
L10.8906 47.7031
L2.29688 47.7031
L2.29688 54.6875
L10.8906 54.6875
L10.8906 58.5
Q10.8906 67.625 15.1406 71.7969
Q19.3906 75.9844 28.6094 75.9844
z
" id="DejaVuSans-66"/>
      <path d="
M45.4062 27.9844
Q45.4062 37.75 41.375 43.1094
Q37.3594 48.4844 30.0781 48.4844
Q22.8594 48.4844 18.8281 43.1094
Q14.7969 37.75 14.7969 27.9844
Q14.7969 18.2656 18.8281 12.8906
Q22.8594 7.51562 30.0781 7.51562
Q37.3594 7.51562 41.375 12.8906
Q45.4062 18.2656 45.4062 27.9844
M54.3906 6.78125
Q54.3906 -7.17188 48.1875 -13.9844
Q42 -20.7969 29.2031 -20.7969
Q24.4688 -20.7969 20.2656 -20.0938
Q16.0625 -19.3906 12.1094 -17.9219
L12.1094 -9.1875
Q16.0625 -11.3281 19.9219 -12.3438
Q23.7812 -13.375 27.7812 -13.375
Q36.625 -13.375 41.0156 -8.76562
Q45.4062 -4.15625 45.4062 5.17188
L45.4062 9.625
Q42.625 4.78125 38.2812 2.39062
Q33.9375 0 27.875 0
Q17.8281 0 11.6719 7.65625
Q5.51562 15.3281 5.51562 27.9844
Q5.51562 40.6719 11.6719 48.3281
Q17.8281 56 27.875 56
Q33.9375 56 38.2812 53.6094
Q42.625 51.2188 45.4062 46.3906
L45.4062 54.6875
L54.3906 54.6875
z
" id="DejaVuSans-67"/>
      <path d="
M45.4062 46.3906
L45.4062 75.9844
L54.3906 75.9844
L54.3906 0
L45.4062 0
L45.4062 8.20312
Q42.5781 3.32812 38.25 0.953125
Q33.9375 -1.42188 27.875 -1.42188
Q17.9688 -1.42188 11.7344 6.48438
Q5.51562 14.4062 5.51562 27.2969
Q5.51562 40.1875 11.7344 48.0938
Q17.9688 56 27.875 56
Q33.9375 56 38.25 53.625
Q42.5781 51.2656 45.4062 46.3906
M14.7969 27.2969
Q14.7969 17.3906 18.875 11.75
Q22.9531 6.10938 30.0781 6.10938
Q37.2031 6.10938 41.2969 11.75
Q45.4062 17.3906 45.4062 27.2969
Q45.4062 37.2031 41.2969 42.8438
Q37.2031 48.4844 30.0781 48.4844
Q22.9531 48.4844 18.875 42.8438
Q14.7969 37.2031 14.7969 27.2969" id="DejaVuSans-64"/>
      <path d="
M-0.296875 72.9062
L61.375 72.9062
L61.375 64.5938
L35.5 64.5938
L35.5 0
L25.5938 0
L25.5938 64.5938
L-0.296875 64.5938
z
" id="DejaVuSans-54"/>
      <path d="
M48.6875 27.2969
Q48.6875 37.2031 44.6094 42.8438
Q40.5312 48.4844 33.4062 48.4844
Q26.2656 48.4844 22.1875 42.8438
Q18.1094 37.2031 18.1094 27.2969
Q18.1094 17.3906 22.1875 11.75
Q26.2656 6.10938 33.4062 6.10938
Q40.5312 6.10938 44.6094 11.75
Q48.6875 17.3906 48.6875 27.2969
M18.1094 46.3906
Q20.9531 51.2656 25.2656 53.625
Q29.5938 56 35.5938 56
Q45.5625 56 51.7812 48.0938
Q58.0156 40.1875 58.0156 27.2969
Q58.0156 14.4062 51.7812 6.48438
Q45.5625 -1.42188 35.5938 -1.42188
Q29.5938 -1.42188 25.2656 0.953125
Q20.9531 3.32812 18.1094 8.20312
L18.1094 0
L9.07812 0
L9.07812 75.9844
L18.1094 75.9844
z
" id="DejaVuSans-62"/>
      <path d="
M44.2812 53.0781
L44.2812 44.5781
Q40.4844 46.5312 36.375 47.5
Q32.2812 48.4844 27.875 48.4844
Q21.1875 48.4844 17.8438 46.4375
Q14.5 44.3906 14.5 40.2812
Q14.5 37.1562 16.8906 35.375
Q19.2812 33.5938 26.5156 31.9844
L29.5938 31.2969
Q39.1562 29.25 43.1875 25.5156
Q47.2188 21.7812 47.2188 15.0938
Q47.2188 7.46875 41.1875 3.01562
Q35.1562 -1.42188 24.6094 -1.42188
Q20.2188 -1.42188 15.4531 -0.5625
Q10.6875 0.296875 5.42188 2
L5.42188 11.2812
Q10.4062 8.6875 15.2344 7.39062
Q20.0625 6.10938 24.8125 6.10938
Q31.1562 6.10938 34.5625 8.28125
Q37.9844 10.4531 37.9844 14.4062
Q37.9844 18.0625 35.5156 20.0156
Q33.0625 21.9688 24.7031 23.7812
L21.5781 24.5156
Q13.2344 26.2656 9.51562 29.9062
Q5.8125 33.5469 5.8125 39.8906
Q5.8125 47.6094 11.2812 51.7969
Q16.75 56 26.8125 56
Q31.7812 56 36.1719 55.2656
Q40.5781 54.5469 44.2812 53.0781" id="DejaVuSans-73"/>
      <path d="
M41.1094 46.2969
Q39.5938 47.1719 37.8125 47.5781
Q36.0312 48 33.8906 48
Q26.2656 48 22.1875 43.0469
Q18.1094 38.0938 18.1094 28.8125
L18.1094 0
L9.07812 0
L9.07812 54.6875
L18.1094 54.6875
L18.1094 46.1875
Q20.9531 51.1719 25.4844 53.5781
Q30.0312 56 36.5312 56
Q37.4531 56 38.5781 55.875
Q39.7031 55.7656 41.0625 55.5156
z
" id="DejaVuSans-72"/>
     </defs>
     <g transform="translate(16.318125 212.98875)rotate(-90.0)scale(0.12 -0.12)">
      <use xlink:href="#DejaVuSans-4e"/>
      <use x="74.8046875" xlink:href="#DejaVuSans-75"/>
      <use x="138.18359375" xlink:href="#DejaVuSans-6d"/>
      <use x="235.595703125" xlink:href="#DejaVuSans-62"/>
      <use x="299.072265625" xlink:href="#DejaVuSans-65"/>
      <use x="360.595703125" xlink:href="#DejaVuSans-72"/>
      <use x="401.708984375" xlink:href="#DejaVuSans-20"/>
      <use x="433.49609375" xlink:href="#DejaVuSans-6f"/>
      <use x="494.677734375" xlink:href="#DejaVuSans-66"/>
      <use x="529.8828125" xlink:href="#DejaVuSans-20"/>
      <use x="561.669921875" xlink:href="#DejaVuSans-54"/>
      <use x="606.25390625" xlink:href="#DejaVuSans-61"/>
      <use x="667.533203125" xlink:href="#DejaVuSans-67"/>
      <use x="731.009765625" xlink:href="#DejaVuSans-67"/>
      <use x="794.486328125" xlink:href="#DejaVuSans-65"/>
      <use x="856.009765625" xlink:href="#DejaVuSans-64"/>
      <use x="919.486328125" xlink:href="#DejaVuSans-20"/>
      <use x="951.2734375" xlink:href="#DejaVuSans-50"/>
      <use x="1007.07617188" xlink:href="#DejaVuSans-61"/>
      <use x="1068.35546875" xlink:href="#DejaVuSans-63"/>
      <use x="1123.3359375" xlink:href="#DejaVuSans-6b"/>
      <use x="1179.49609375" xlink:href="#DejaVuSans-61"/>
      <use x="1240.77539062" xlink:href="#DejaVuSans-67"/>
      <use x="1304.25195312" xlink:href="#DejaVuSans-65"/>
      <use x="1365.77539062" xlink:href="#DejaVuSans-73"/>
     </g>
    </g>
   </g>
   <g id="patch_3">
    <path d="
M56.6775 13.0069
L614.677 13.0069" style="fill:none;stroke:#000000;"/>
   </g>
   <g id="patch_4">
    <path d="
M614.678 243.407
L614.678 13.0069" style="fill:none;stroke:#000000;"/>
   </g>
   <g id="patch_5">
    <path d="
M56.6775 243.407
L614.677 243.407" style="fill:none;stroke:#000000;"/>
   </g>
   <g id="patch_6">
    <path d="
M56.6775 243.407
L56.6775 13.0069" style="fill:none;stroke:#000000;"/>
   </g>
   <g id="text_21">
    <g id="patch_7">
     <path d="
M100.311 172.199
L113.985 172.199
L113.985 137.811
L100.311 137.811
z
" style="fill:#ffffff;stroke:#ffffff;"/>
    </g>
    <!-- v0.3.0 -->
    <defs>
     <path d="
M40.5781 39.3125
Q47.6562 37.7969 51.625 33
Q55.6094 28.2188 55.6094 21.1875
Q55.6094 10.4062 48.1875 4.48438
Q40.7656 -1.42188 27.0938 -1.42188
Q22.5156 -1.42188 17.6562 -0.515625
Q12.7969 0.390625 7.625 2.20312
L7.625 11.7188
Q11.7188 9.32812 16.5938 8.10938
Q21.4844 6.89062 26.8125 6.89062
Q36.0781 6.89062 40.9375 10.5469
Q45.7969 14.2031 45.7969 21.1875
Q45.7969 27.6406 41.2812 31.2656
Q36.7656 34.9062 28.7188 34.9062
L20.2188 34.9062
L20.2188 43.0156
L29.1094 43.0156
Q36.375 43.0156 40.2344 45.9219
Q44.0938 48.8281 44.0938 54.2969
Q44.0938 59.9062 40.1094 62.9062
Q36.1406 65.9219 28.7188 65.9219
Q24.6562 65.9219 20.0156 65.0312
Q15.375 64.1562 9.8125 62.3125
L9.8125 71.0938
Q15.4375 72.6562 20.3438 73.4375
Q25.25 74.2188 29.5938 74.2188
Q40.8281 74.2188 47.3594 69.1094
Q53.9062 64.0156 53.9062 55.3281
Q53.9062 49.2656 50.4375 45.0938
Q46.9688 40.9219 40.5781 39.3125" id="DejaVuSans-33"/>
     <path d="
M2.98438 54.6875
L12.5 54.6875
L29.5938 8.79688
L46.6875 54.6875
L56.2031 54.6875
L35.6875 0
L23.4844 0
z
" id="DejaVuSans-76"/>
     <path d="
M10.6875 12.4062
L21 12.4062
L21 0
L10.6875 0
z
" id="DejaVuSans-2e"/>
    </defs>
    <g transform="translate(109.906359485 170.199316875)rotate(-90.0)scale(0.09996 -0.09996)">
     <use xlink:href="#DejaVuSans-76"/>
     <use x="59.1796875" xlink:href="#DejaVuSans-30"/>
     <use x="122.802734375" xlink:href="#DejaVuSans-2e"/>
     <use x="154.58984375" xlink:href="#DejaVuSans-33"/>
     <use x="218.212890625" xlink:href="#DejaVuSans-2e"/>
     <use x="250.0" xlink:href="#DejaVuSans-30"/>
    </g>
   </g>
   <g id="text_22">
    <g id="patch_8">
     <path d="
M111.605 146.34
L125.279 146.34
L125.279 112.211
L111.605 112.211
z
" style="fill:#ffffff;stroke:#ffffff;"/>
    </g>
    <!-- v0.3.1 -->
    <g transform="translate(121.200477132 144.340045625)rotate(-90.0)scale(0.09996 -0.09996)">
     <use xlink:href="#DejaVuSans-76"/>
     <use x="59.1796875" xlink:href="#DejaVuSans-30"/>
     <use x="122.802734375" xlink:href="#DejaVuSans-2e"/>
     <use x="154.58984375" xlink:href="#DejaVuSans-33"/>
     <use x="218.212890625" xlink:href="#DejaVuSans-2e"/>
     <use x="250.0" xlink:href="#DejaVuSans-31"/>
    </g>
   </g>
   <g id="text_23">
    <g id="patch_9">
     <path d="
M122.193 171.862
L135.868 171.862
L135.868 137.811
L122.193 137.811
z
" style="fill:#ffffff;stroke:#ffffff;"/>
    </g>
    <!-- v0.3.2 -->
    <g transform="translate(131.788712426 169.861951875)rotate(-90.0)scale(0.09996 -0.09996)">
     <use xlink:href="#DejaVuSans-76"/>
     <use x="59.1796875" xlink:href="#DejaVuSans-30"/>
     <use x="122.802734375" xlink:href="#DejaVuSans-2e"/>
     <use x="154.58984375" xlink:href="#DejaVuSans-33"/>
     <use x="218.212890625" xlink:href="#DejaVuSans-2e"/>
     <use x="250.0" xlink:href="#DejaVuSans-32"/>
    </g>
   </g>
   <g id="text_24">
    <g id="patch_10">
     <path d="
M133.84 146.462
L147.515 146.462
L147.515 112.211
L133.84 112.211
z
" style="fill:#ffffff;stroke:#ffffff;"/>
    </g>
    <!-- v0.3.3 -->
    <g transform="translate(143.43577125 144.461871875)rotate(-90.0)scale(0.09996 -0.09996)">
     <use xlink:href="#DejaVuSans-76"/>
     <use x="59.1796875" xlink:href="#DejaVuSans-30"/>
     <use x="122.802734375" xlink:href="#DejaVuSans-2e"/>
     <use x="154.58984375" xlink:href="#DejaVuSans-33"/>
     <use x="218.212890625" xlink:href="#DejaVuSans-2e"/>
     <use x="250.0" xlink:href="#DejaVuSans-33"/>
    </g>
   </g>
   <g id="text_25">
    <g id="patch_11">
     <path d="
M145.487 172.302
L159.162 172.302
L159.162 137.811
L145.487 137.811
z
" style="fill:#ffffff;stroke:#ffffff;"/>
    </g>
    <!-- v0.3.4 -->
    <g transform="translate(155.082830074 170.302400625)rotate(-90.0)scale(0.09996 -0.09996)">
     <use xlink:href="#DejaVuSans-76"/>
     <use x="59.1796875" xlink:href="#DejaVuSans-30"/>
     <use x="122.802734375" xlink:href="#DejaVuSans-2e"/>
     <use x="154.58984375" xlink:href="#DejaVuSans-33"/>
     <use x="218.212890625" xlink:href="#DejaVuSans-2e"/>
     <use x="250.0" xlink:href="#DejaVuSans-34"/>
    </g>
   </g>
   <g id="text_26">
    <g id="patch_12">
     <path d="
M150.076 146.39
L163.75 146.39
L163.75 112.211
L150.076 112.211
z
" style="fill:#ffffff;stroke:#ffffff;"/>
    </g>
    <!-- v0.3.5 -->
    <g transform="translate(159.671065368 144.390025625)rotate(-90.0)scale(0.09996 -0.09996)">
     <use xlink:href="#DejaVuSans-76"/>
     <use x="59.1796875" xlink:href="#DejaVuSans-30"/>
     <use x="122.802734375" xlink:href="#DejaVuSans-2e"/>
     <use x="154.58984375" xlink:href="#DejaVuSans-33"/>
     <use x="218.212890625" xlink:href="#DejaVuSans-2e"/>
     <use x="250.0" xlink:href="#DejaVuSans-35"/>
    </g>
   </g>
   <g id="text_27">
    <g id="patch_13">
     <path d="
M164.193 172.234
L177.868 172.234
L177.868 137.811
L164.193 137.811
z
" style="fill:#ffffff;stroke:#ffffff;"/>
    </g>
    <!-- v0.3.6 -->
    <g transform="translate(173.788712426 170.233678125)rotate(-90.0)scale(0.09996 -0.09996)">
     <use xlink:href="#DejaVuSans-76"/>
     <use x="59.1796875" xlink:href="#DejaVuSans-30"/>
     <use x="122.802734375" xlink:href="#DejaVuSans-2e"/>
     <use x="154.58984375" xlink:href="#DejaVuSans-33"/>
     <use x="218.212890625" xlink:href="#DejaVuSans-2e"/>
     <use x="250.0" xlink:href="#DejaVuSans-36"/>
    </g>
   </g>
   <g id="text_28">
    <g id="patch_14">
     <path d="
M176.193 146.409
L189.868 146.409
L189.868 112.211
L176.193 112.211
z
" style="fill:#ffffff;stroke:#ffffff;"/>
    </g>
    <!-- v0.3.7 -->
    <g transform="translate(185.788712426 144.408768125)rotate(-90.0)scale(0.09996 -0.09996)">
     <use xlink:href="#DejaVuSans-76"/>
     <use x="59.1796875" xlink:href="#DejaVuSans-30"/>
     <use x="122.802734375" xlink:href="#DejaVuSans-2e"/>
     <use x="154.58984375" xlink:href="#DejaVuSans-33"/>
     <use x="218.212890625" xlink:href="#DejaVuSans-2e"/>
     <use x="250.0" xlink:href="#DejaVuSans-37"/>
    </g>
   </g>
   <g id="text_29">
    <g id="patch_15">
     <path d="
M189.605 172.179
L203.279 172.179
L203.279 137.811
L189.605 137.811
z
" style="fill:#ffffff;stroke:#ffffff;"/>
    </g>
    <!-- v0.3.8 -->
    <g transform="translate(199.200477132 170.1790125)rotate(-90.0)scale(0.09996 -0.09996)">
     <use xlink:href="#DejaVuSans-76"/>
     <use x="59.1796875" xlink:href="#DejaVuSans-30"/>
     <use x="122.802734375" xlink:href="#DejaVuSans-2e"/>
     <use x="154.58984375" xlink:href="#DejaVuSans-33"/>
     <use x="218.212890625" xlink:href="#DejaVuSans-2e"/>
     <use x="250.0" xlink:href="#DejaVuSans-38"/>
    </g>
   </g>
   <g id="text_30">
    <g id="patch_16">
     <path d="
M200.193 146.56
L213.868 146.56
L213.868 112.211
L200.193 112.211
z
" style="fill:#ffffff;stroke:#ffffff;"/>
    </g>
    <!-- v0.3.9 -->
    <defs>
     <path d="
M10.9844 1.51562
L10.9844 10.5
Q14.7031 8.73438 18.5 7.8125
Q22.3125 6.89062 25.9844 6.89062
Q35.75 6.89062 40.8906 13.4531
Q46.0469 20.0156 46.7812 33.4062
Q43.9531 29.2031 39.5938 26.9531
Q35.25 24.7031 29.9844 24.7031
Q19.0469 24.7031 12.6719 31.3125
Q6.29688 37.9375 6.29688 49.4219
Q6.29688 60.6406 12.9375 67.4219
Q19.5781 74.2188 30.6094 74.2188
Q43.2656 74.2188 49.9219 64.5156
Q56.5938 54.8281 56.5938 36.375
Q56.5938 19.1406 48.4062 8.85938
Q40.2344 -1.42188 26.4219 -1.42188
Q22.7031 -1.42188 18.8906 -0.6875
Q15.0938 0.046875 10.9844 1.51562
M30.6094 32.4219
Q37.25 32.4219 41.125 36.9531
Q45.0156 41.5 45.0156 49.4219
Q45.0156 57.2812 41.125 61.8438
Q37.25 66.4062 30.6094 66.4062
Q23.9688 66.4062 20.0938 61.8438
Q16.2188 57.2812 16.2188 49.4219
Q16.2188 41.5 20.0938 36.9531
Q23.9688 32.4219 30.6094 32.4219" id="DejaVuSans-39"/>
    </defs>
    <g transform="translate(209.788712426 144.56027)rotate(-90.0)scale(0.09996 -0.09996)">
     <use xlink:href="#DejaVuSans-76"/>
     <use x="59.1796875" xlink:href="#DejaVuSans-30"/>
     <use x="122.802734375" xlink:href="#DejaVuSans-2e"/>
     <use x="154.58984375" xlink:href="#DejaVuSans-33"/>
     <use x="218.212890625" xlink:href="#DejaVuSans-2e"/>
     <use x="250.0" xlink:href="#DejaVuSans-39"/>
    </g>
   </g>
   <g id="text_31">
    <g id="patch_17">
     <path d="
M209.017 178.559
L222.691 178.559
L222.691 137.811
L209.017 137.811
z
" style="fill:#ffffff;stroke:#ffffff;"/>
    </g>
    <!-- v0.3.10 -->
    <g transform="translate(218.612241838 176.559271875)rotate(-90.0)scale(0.09996 -0.09996)">
     <use xlink:href="#DejaVuSans-76"/>
     <use x="59.1796875" xlink:href="#DejaVuSans-30"/>
     <use x="122.802734375" xlink:href="#DejaVuSans-2e"/>
     <use x="154.58984375" xlink:href="#DejaVuSans-33"/>
     <use x="218.212890625" xlink:href="#DejaVuSans-2e"/>
     <use x="250.0" xlink:href="#DejaVuSans-31"/>
     <use x="313.623046875" xlink:href="#DejaVuSans-30"/>
    </g>
   </g>
   <g id="text_32">
    <g id="patch_18">
     <path d="
M220.664 152.7
L234.338 152.7
L234.338 112.211
L220.664 112.211
z
" style="fill:#ffffff;stroke:#ffffff;"/>
    </g>
    <!-- v0.3.11 -->
    <g transform="translate(230.259300662 150.700000625)rotate(-90.0)scale(0.09996 -0.09996)">
     <use xlink:href="#DejaVuSans-76"/>
     <use x="59.1796875" xlink:href="#DejaVuSans-30"/>
     <use x="122.802734375" xlink:href="#DejaVuSans-2e"/>
     <use x="154.58984375" xlink:href="#DejaVuSans-33"/>
     <use x="218.212890625" xlink:href="#DejaVuSans-2e"/>
     <use x="250.0" xlink:href="#DejaVuSans-31"/>
     <use x="313.623046875" xlink:href="#DejaVuSans-31"/>
    </g>
   </g>
   <g id="text_33">
    <g id="patch_19">
     <path d="
M252.782 178.222
L266.456 178.222
L266.456 137.811
L252.782 137.811
z
" style="fill:#ffffff;stroke:#ffffff;"/>
    </g>
    <!-- v0.3.12 -->
    <g transform="translate(262.376947721 176.221906875)rotate(-90.0)scale(0.09996 -0.09996)">
     <use xlink:href="#DejaVuSans-76"/>
     <use x="59.1796875" xlink:href="#DejaVuSans-30"/>
     <use x="122.802734375" xlink:href="#DejaVuSans-2e"/>
     <use x="154.58984375" xlink:href="#DejaVuSans-33"/>
     <use x="218.212890625" xlink:href="#DejaVuSans-2e"/>
     <use x="250.0" xlink:href="#DejaVuSans-31"/>
     <use x="313.623046875" xlink:href="#DejaVuSans-32"/>
    </g>
   </g>
   <g id="text_34">
    <g id="patch_20">
     <path d="
M246.429 242.599
L260.103 242.599
L260.103 208.211
L246.429 208.211
z
" style="fill:#ffffff;stroke:#ffffff;"/>
    </g>
    <!-- v0.4.0 -->
    <g transform="translate(256.024006544 240.599316875)rotate(-90.0)scale(0.09996 -0.09996)">
     <use xlink:href="#DejaVuSans-76"/>
     <use x="59.1796875" xlink:href="#DejaVuSans-30"/>
     <use x="122.802734375" xlink:href="#DejaVuSans-2e"/>
     <use x="154.58984375" xlink:href="#DejaVuSans-34"/>
     <use x="218.212890625" xlink:href="#DejaVuSans-2e"/>
     <use x="250.0" xlink:href="#DejaVuSans-30"/>
    </g>
   </g>
   <g id="text_35">
    <g id="patch_21">
     <path d="
M257.37 223.14
L271.044 223.14
L271.044 189.011
L257.37 189.011
z
" style="fill:#ffffff;stroke:#ffffff;"/>
    </g>
    <!-- v0.4.1 -->
    <g transform="translate(266.965183015 221.140045625)rotate(-90.0)scale(0.09996 -0.09996)">
     <use xlink:href="#DejaVuSans-76"/>
     <use x="59.1796875" xlink:href="#DejaVuSans-30"/>
     <use x="122.802734375" xlink:href="#DejaVuSans-2e"/>
     <use x="154.58984375" xlink:href="#DejaVuSans-34"/>
     <use x="218.212890625" xlink:href="#DejaVuSans-2e"/>
     <use x="250.0" xlink:href="#DejaVuSans-31"/>
    </g>
   </g>
   <g id="text_36">
    <g id="patch_22">
     <path d="
M267.252 242.262
L280.926 242.262
L280.926 208.211
L267.252 208.211
z
" style="fill:#ffffff;stroke:#ffffff;"/>
    </g>
    <!-- v0.4.2 -->
    <g transform="translate(276.847535956 240.261951875)rotate(-90.0)scale(0.09996 -0.09996)">
     <use xlink:href="#DejaVuSans-76"/>
     <use x="59.1796875" xlink:href="#DejaVuSans-30"/>
     <use x="122.802734375" xlink:href="#DejaVuSans-2e"/>
     <use x="154.58984375" xlink:href="#DejaVuSans-34"/>
     <use x="218.212890625" xlink:href="#DejaVuSans-2e"/>
     <use x="250.0" xlink:href="#DejaVuSans-32"/>
    </g>
   </g>
   <g id="text_37">
    <g id="patch_23">
     <path d="
M280.311 223.262
L293.985 223.262
L293.985 189.011
L280.311 189.011
z
" style="fill:#ffffff;stroke:#ffffff;"/>
    </g>
    <!-- v0.4.3 -->
    <g transform="translate(289.906359485 221.261871875)rotate(-90.0)scale(0.09996 -0.09996)">
     <use xlink:href="#DejaVuSans-76"/>
     <use x="59.1796875" xlink:href="#DejaVuSans-30"/>
     <use x="122.802734375" xlink:href="#DejaVuSans-2e"/>
     <use x="154.58984375" xlink:href="#DejaVuSans-34"/>
     <use x="218.212890625" xlink:href="#DejaVuSans-2e"/>
     <use x="250.0" xlink:href="#DejaVuSans-33"/>
    </g>
   </g>
   <g id="text_38">
    <g id="patch_24">
     <path d="
M303.252 242.39
L316.926 242.39
L316.926 208.211
L303.252 208.211
z
" style="fill:#ffffff;stroke:#ffffff;"/>
    </g>
    <!-- v0.4.5 -->
    <g transform="translate(312.847535956 240.390025625)rotate(-90.0)scale(0.09996 -0.09996)">
     <use xlink:href="#DejaVuSans-76"/>
     <use x="59.1796875" xlink:href="#DejaVuSans-30"/>
     <use x="122.802734375" xlink:href="#DejaVuSans-2e"/>
     <use x="154.58984375" xlink:href="#DejaVuSans-34"/>
     <use x="218.212890625" xlink:href="#DejaVuSans-2e"/>
     <use x="250.0" xlink:href="#DejaVuSans-35"/>
    </g>
   </g>
   <g id="text_39">
    <g id="patch_25">
     <path d="
M336.429 223.434
L350.103 223.434
L350.103 189.011
L336.429 189.011
z
" style="fill:#ffffff;stroke:#ffffff;"/>
    </g>
    <!-- v0.4.6 -->
    <g transform="translate(346.024006544 221.433678125)rotate(-90.0)scale(0.09996 -0.09996)">
     <use xlink:href="#DejaVuSans-76"/>
     <use x="59.1796875" xlink:href="#DejaVuSans-30"/>
     <use x="122.802734375" xlink:href="#DejaVuSans-2e"/>
     <use x="154.58984375" xlink:href="#DejaVuSans-34"/>
     <use x="218.212890625" xlink:href="#DejaVuSans-2e"/>
     <use x="250.0" xlink:href="#DejaVuSans-36"/>
    </g>
   </g>
   <g id="text_40">
    <g id="patch_26">
     <path d="
M368.546 242.409
L382.221 242.409
L382.221 208.211
L368.546 208.211
z
" style="fill:#ffffff;stroke:#ffffff;"/>
    </g>
    <!-- v0.4.7 -->
    <g transform="translate(378.141653603 240.408768125)rotate(-90.0)scale(0.09996 -0.09996)">
     <use xlink:href="#DejaVuSans-76"/>
     <use x="59.1796875" xlink:href="#DejaVuSans-30"/>
     <use x="122.802734375" xlink:href="#DejaVuSans-2e"/>
     <use x="154.58984375" xlink:href="#DejaVuSans-34"/>
     <use x="218.212890625" xlink:href="#DejaVuSans-2e"/>
     <use x="250.0" xlink:href="#DejaVuSans-37"/>
    </g>
   </g>
   <g id="text_41">
    <g id="patch_27">
     <path d="
M368.899 178.599
L382.573 178.599
L382.573 144.211
L368.899 144.211
z
" style="fill:#ffffff;stroke:#ffffff;"/>
    </g>
    <!-- v0.5.0 -->
    <g transform="translate(378.494594779 176.599316875)rotate(-90.0)scale(0.09996 -0.09996)">
     <use xlink:href="#DejaVuSans-76"/>
     <use x="59.1796875" xlink:href="#DejaVuSans-30"/>
     <use x="122.802734375" xlink:href="#DejaVuSans-2e"/>
     <use x="154.58984375" xlink:href="#DejaVuSans-35"/>
     <use x="218.212890625" xlink:href="#DejaVuSans-2e"/>
     <use x="250.0" xlink:href="#DejaVuSans-30"/>
    </g>
   </g>
   <g id="text_42">
    <g id="patch_28">
     <path d="
M427.84 165.54
L441.515 165.54
L441.515 131.411
L427.84 131.411
z
" style="fill:#ffffff;stroke:#ffffff;"/>
    </g>
    <!-- v0.5.1 -->
    <g transform="translate(437.43577125 163.540045625)rotate(-90.0)scale(0.09996 -0.09996)">
     <use xlink:href="#DejaVuSans-76"/>
     <use x="59.1796875" xlink:href="#DejaVuSans-30"/>
     <use x="122.802734375" xlink:href="#DejaVuSans-2e"/>
     <use x="154.58984375" xlink:href="#DejaVuSans-35"/>
     <use x="218.212890625" xlink:href="#DejaVuSans-2e"/>
     <use x="250.0" xlink:href="#DejaVuSans-31"/>
    </g>
   </g>
   <g id="text_43">
    <g id="patch_29">
     <path d="
M449.723 178.262
L463.397 178.262
L463.397 144.211
L449.723 144.211
z
" style="fill:#ffffff;stroke:#ffffff;"/>
    </g>
    <!-- v0.5.2 -->
    <g transform="translate(459.318124191 176.261951875)rotate(-90.0)scale(0.09996 -0.09996)">
     <use xlink:href="#DejaVuSans-76"/>
     <use x="59.1796875" xlink:href="#DejaVuSans-30"/>
     <use x="122.802734375" xlink:href="#DejaVuSans-2e"/>
     <use x="154.58984375" xlink:href="#DejaVuSans-35"/>
     <use x="218.212890625" xlink:href="#DejaVuSans-2e"/>
     <use x="250.0" xlink:href="#DejaVuSans-32"/>
    </g>
   </g>
   <g id="text_44">
    <g id="patch_30">
     <path d="
M465.252 242.599
L478.926 242.599
L478.926 208.211
L465.252 208.211
z
" style="fill:#ffffff;stroke:#ffffff;"/>
    </g>
    <!-- v0.6.0 -->
    <g transform="translate(474.847535956 240.599316875)rotate(-90.0)scale(0.09996 -0.09996)">
     <use xlink:href="#DejaVuSans-76"/>
     <use x="59.1796875" xlink:href="#DejaVuSans-30"/>
     <use x="122.802734375" xlink:href="#DejaVuSans-2e"/>
     <use x="154.58984375" xlink:href="#DejaVuSans-36"/>
     <use x="218.212890625" xlink:href="#DejaVuSans-2e"/>
     <use x="250.0" xlink:href="#DejaVuSans-30"/>
    </g>
   </g>
   <g id="text_45">
    <g id="patch_31">
     <path d="
M510.076 203.94
L523.75 203.94
L523.75 169.811
L510.076 169.811
z
" style="fill:#ffffff;stroke:#ffffff;"/>
    </g>
    <!-- v0.6.1 -->
    <g transform="translate(519.671065368 201.940045625)rotate(-90.0)scale(0.09996 -0.09996)">
     <use xlink:href="#DejaVuSans-76"/>
     <use x="59.1796875" xlink:href="#DejaVuSans-30"/>
     <use x="122.802734375" xlink:href="#DejaVuSans-2e"/>
     <use x="154.58984375" xlink:href="#DejaVuSans-36"/>
     <use x="218.212890625" xlink:href="#DejaVuSans-2e"/>
     <use x="250.0" xlink:href="#DejaVuSans-31"/>
    </g>
   </g>
   <g id="text_46">
    <g id="patch_32">
     <path d="
M527.723 184.662
L541.397 184.662
L541.397 150.611
L527.723 150.611
z
" style="fill:#ffffff;stroke:#ffffff;"/>
    </g>
    <!-- v0.6.2 -->
    <g transform="translate(537.318124191 182.661951875)rotate(-90.0)scale(0.09996 -0.09996)">
     <use xlink:href="#DejaVuSans-76"/>
     <use x="59.1796875" xlink:href="#DejaVuSans-30"/>
     <use x="122.802734375" xlink:href="#DejaVuSans-2e"/>
     <use x="154.58984375" xlink:href="#DejaVuSans-36"/>
     <use x="218.212890625" xlink:href="#DejaVuSans-2e"/>
     <use x="250.0" xlink:href="#DejaVuSans-32"/>
    </g>
   </g>
   <g id="legend_1">
    <g id="patch_33">
     <path d="
M61.6755 109.037
L112.338 109.037
L112.338 18.0049
L61.6755 18.0049
L61.6755 109.037
z
" style="fill:#ffffff;stroke:#000000;"/>
    </g>
    <g id="line2d_71">
     <path d="
M68.6727 26.1001
L82.6671 26.1001" style="fill:none;stroke:#ff0000;stroke-linecap:square;stroke-width:2;"/>
    </g>
    <g id="line2d_72"/>
    <g id="text_47">
     <!-- 0.2 -->
     <g transform="translate(93.6627 29.598673125)scale(0.09996 -0.09996)">
      <use xlink:href="#DejaVuSans-30"/>
      <use x="63.623046875" xlink:href="#DejaVuSans-2e"/>
      <use x="95.41015625" xlink:href="#DejaVuSans-32"/>
     </g>
    </g>
    <g id="line2d_73">
     <path d="
M68.6727 40.7723
L82.6671 40.7723" style="fill:none;stroke:#008000;stroke-linecap:square;stroke-width:2;"/>
    </g>
    <g id="line2d_74"/>
    <g id="text_48">
     <!-- 0.3 -->
     <g transform="translate(93.6627 44.270926875)scale(0.09996 -0.09996)">
      <use xlink:href="#DejaVuSans-30"/>
      <use x="63.623046875" xlink:href="#DejaVuSans-2e"/>
      <use x="95.41015625" xlink:href="#DejaVuSans-33"/>
     </g>
    </g>
    <g id="line2d_75">
     <path d="
M68.6727 55.4446
L82.6671 55.4446" style="fill:none;stroke:#0000ff;stroke-linecap:square;stroke-width:2;"/>
    </g>
    <g id="line2d_76"/>
    <g id="text_49">
     <!-- 0.4 -->
     <g transform="translate(93.6627 58.943180625)scale(0.09996 -0.09996)">
      <use xlink:href="#DejaVuSans-30"/>
      <use x="63.623046875" xlink:href="#DejaVuSans-2e"/>
      <use x="95.41015625" xlink:href="#DejaVuSans-34"/>
     </g>
    </g>
    <g id="line2d_77">
     <path d="
M68.6727 70.1168
L82.6671 70.1168" style="fill:none;stroke:#000000;stroke-linecap:square;stroke-width:2;"/>
    </g>
    <g id="line2d_78"/>
    <g id="text_50">
     <!-- 0.5 -->
     <g transform="translate(93.6627 73.615434375)scale(0.09996 -0.09996)">
      <use xlink:href="#DejaVuSans-30"/>
      <use x="63.623046875" xlink:href="#DejaVuSans-2e"/>
      <use x="95.41015625" xlink:href="#DejaVuSans-35"/>
     </g>
    </g>
    <g id="line2d_79">
     <path d="
M68.6727 84.7891
L82.6671 84.7891" style="fill:none;stroke:#bfbf00;stroke-linecap:square;stroke-width:2;"/>
    </g>
    <g id="line2d_80"/>
    <g id="text_51">
     <!-- 0.6 -->
     <g transform="translate(93.6627 88.287688125)scale(0.09996 -0.09996)">
      <use xlink:href="#DejaVuSans-30"/>
      <use x="63.623046875" xlink:href="#DejaVuSans-2e"/>
      <use x="95.41015625" xlink:href="#DejaVuSans-36"/>
     </g>
    </g>
    <g id="line2d_81">
     <path d="
M68.6727 99.4613
L82.6671 99.4613" style="fill:none;stroke:#bf00bf;stroke-linecap:square;stroke-width:2;"/>
    </g>
    <g id="line2d_82"/>
    <g id="text_52">
     <!-- 0.7 -->
     <g transform="translate(93.6627 102.959941875)scale(0.09996 -0.09996)">
      <use xlink:href="#DejaVuSans-30"/>
      <use x="63.623046875" xlink:href="#DejaVuSans-2e"/>
      <use x="95.41015625" xlink:href="#DejaVuSans-37"/>
     </g>
    </g>
   </g>
  </g>
 </g>
 <defs>
  <clipPath id="p4b7b2140f5">
   <rect height="230.4" width="558.0" x="56.6775" y="13.006875"/>
  </clipPath>
 </defs>
</svg>
