<?xml version="1.0" encoding="utf-8" standalone="no"?>
<!DOCTYPE svg PUBLIC "-//W3C//DTD SVG 1.1//EN"
  "http://www.w3.org/Graphics/SVG/1.1/DTD/svg11.dtd">
<!-- Created with matplotlib (http://matplotlib.org/) -->
<svg height="313pt" version="1.1" viewBox="0 0 624 313" width="624pt" xmlns="http://www.w3.org/2000/svg" xmlns:xlink="http://www.w3.org/1999/xlink">
 <defs>
  <style type="text/css">
*{stroke-linecap:butt;stroke-linejoin:round;stroke-miterlimit:100000;}
  </style>
 </defs>
 <g id="figure_1">
  <g id="patch_1">
   <path d="M 0 313.770625 
L 624.287898 313.770625 
L 624.287898 0 
L 0 0 
z
" style="fill:#ffffff;"/>
  </g>
  <g id="axes_1">
   <g id="patch_2">
    <path d="M 58.35375 243.406875 
L 616.35375 243.406875 
L 616.35375 13.006875 
L 58.35375 13.006875 
z
" style="fill:#ffffff;"/>
   </g>
   <g id="line2d_1">
    <path clip-path="url(#p01919f224a)" d="M 156.184919 204.526875 
L 155.460244 204.526875 
L 154.735568 205.102875 
L 154.010893 205.102875 
L 153.286218 205.390875 
L 152.561542 205.966875 
L 151.836867 205.966875 
L 150.387516 205.390875 
L 149.662841 205.390875 
L 148.938166 206.254875 
L 148.21349 206.254875 
L 146.76414 206.254875 
L 146.039464 206.254875 
L 144.590114 206.542875 
L 143.865438 206.542875 
L 143.140763 206.542875 
L 142.416088 206.830875 
L 141.691412 206.830875 
L 140.966737 206.830875 
L 140.242062 207.118875 
L 139.517386 207.118875 
L 137.34336 207.118875 
L 136.618685 207.118875 
L 135.89401 207.118875 
L 135.169334 207.118875 
L 133.719984 207.694875 
L 132.270633 208.270875 
L 131.545958 208.270875 
L 130.821282 208.558875 
L 130.096607 208.846875 
L 128.647256 209.422875 
L 127.922581 209.422875 
L 127.197906 209.422875 
L 126.473231 209.710875 
L 125.748555 209.998875 
L 125.02388 210.574875 
L 123.574529 210.862875 
L 122.849854 210.862875 
L 122.125179 211.726875 
L 121.400503 211.726875 
L 120.675828 211.726875 
L 119.951153 211.726875 
L 119.226477 211.726875 
L 118.501802 212.302875 
L 117.052451 212.302875 
L 116.327776 212.590875 
L 115.603101 212.590875 
L 114.878425 212.590875 
L 114.15375 212.590875 
L 113.429075 212.590875 
L 112.704399 213.166875 
L 111.979724 213.454875 
L 111.255049 213.742875 
L 110.530373 213.742875 
L 106.182321 215.182875 
L 105.457646 215.182875 
L 104.732971 215.470875 
L 104.008295 215.470875 
L 103.28362 215.758875 
L 102.558945 215.758875 
L 101.834269 215.758875 
L 101.109594 215.758875 
L 100.384919 215.758875 
L 99.660244 215.758875 
L 98.935568 215.758875 
L 98.210893 215.758875 
L 97.486218 217.198875 
L 96.761542 214.894875 
L 96.036867 215.182875 
L 95.312192 215.182875 
L 94.587516 215.182875 
L 93.138166 215.470875 
L 92.41349 215.470875 
L 91.688815 216.334875 
L 90.96414 216.334875 
L 90.239464 216.334875 
L 89.514789 216.334875 
L 88.790114 216.334875 
L 88.065438 216.334875 
L 87.340763 216.334875 
L 86.616088 216.334875 
L 85.891412 216.334875 
L 85.166737 216.622875 
L 80.09401 216.910875 
L 78.644659 216.910875 
L 76.470633 216.910875 
L 71.397906 217.486875 
L 70.673231 217.774875 
L 69.22388 218.062875 
L 68.499205 218.062875 
L 67.049854 218.350875 
L 65.600503 218.638875 
L 64.875828 218.638875 
L 63.426477 218.638875 
L 62.701802 218.638875 
L 61.977127 218.638875 
L 61.252451 218.638875 
L 60.527776 218.638875 
L 59.803101 218.638875 
L 59.078425 218.926875 
L 58.35375 218.926875 
" style="fill:none;stroke:#ff0000;stroke-linecap:square;stroke-width:2.0;"/>
   </g>
   <g id="line2d_2">
    <path clip-path="url(#p01919f224a)" d="M 616.35375 101.710875 
L 578.670633 102.574875 
L 567.075828 103.150875 
L 550.408295 103.150875 
L 546.060244 103.726875 
L 543.161542 103.726875 
L 527.94336 104.014875 
L 512.000503 104.014875 
L 508.377127 104.302875 
L 503.304399 104.590875 
L 502.579724 104.878875 
L 496.782321 105.454875 
L 490.260244 105.454875 
L 488.810893 106.030875 
L 485.912192 105.454875 
L 468.519984 106.030875 
L 466.345958 106.606875 
L 463.447256 107.182875 
L 460.548555 107.470875 
L 456.925179 108.622875 
L 454.026477 110.062875 
L 442.431672 112.942875 
L 438.808295 113.518875 
L 435.184919 113.806875 
L 433.010893 114.382875 
L 420.691412 118.414875 
L 414.169334 119.854875 
L 408.371932 121.294875 
L 396.052451 125.326875 
L 395.327776 125.326875 
L 394.603101 125.614875 
L 393.878425 126.190875 
L 393.15375 127.342875 
L 392.429075 127.918875 
L 390.979724 127.630875 
L 389.530373 128.206875 
L 387.356347 128.206875 
L 386.631672 128.494875 
L 385.182321 128.494875 
L 384.457646 129.070875 
L 383.732971 129.070875 
L 383.008295 129.646875 
L 382.28362 129.646875 
L 380.109594 129.358875 
L 372.138166 131.086875 
L 370.688815 131.086875 
L 365.616088 133.102875 
L 364.166737 133.102875 
L 358.369334 134.254875 
L 357.644659 134.830875 
L 354.745958 135.406875 
L 350.397906 136.846875 
L 348.22388 137.710875 
L 347.499205 138.574875 
L 346.049854 139.150875 
L 344.600503 139.150875 
L 343.875828 139.438875 
L 342.426477 139.726875 
L 341.701802 140.014875 
L 340.977127 140.014875 
L 340.252451 140.878875 
L 339.527776 141.166875 
L 338.803101 141.166875 
L 337.35375 142.606875 
L 335.179724 143.470875 
L 332.281023 143.470875 
L 330.831672 144.334875 
L 329.382321 144.334875 
L 326.48362 144.622875 
L 325.034269 144.622875 
L 324.309594 145.486875 
L 322.860244 145.486875 
L 314.16414 145.774875 
L 313.439464 146.350875 
L 312.714789 146.062875 
L 311.990114 146.638875 
L 311.265438 146.638875 
L 310.540763 146.926875 
L 309.816088 147.502875 
L 306.917386 148.078875 
L 303.29401 148.078875 
L 302.569334 148.654875 
L 301.119984 148.654875 
L 297.496607 149.806875 
L 293.873231 151.534875 
L 290.249854 151.534875 
L 288.075828 152.110875 
L 287.351153 152.110875 
L 284.452451 153.838875 
L 283.727776 153.838875 
L 283.003101 153.262875 
L 280.104399 155.566875 
L 279.379724 155.854875 
L 278.655049 156.430875 
L 277.205698 157.294875 
L 275.756347 157.294875 
L 275.031672 157.582875 
L 274.306997 158.446875 
L 273.582321 158.446875 
L 272.857646 159.022875 
L 269.958945 159.022875 
L 269.234269 160.462875 
L 268.509594 160.462875 
L 267.784919 161.038875 
L 264.886218 163.054875 
L 259.81349 164.782875 
L 256.190114 166.798875 
L 253.291412 167.374875 
L 251.117386 167.950875 
L 249.668036 168.526875 
L 246.769334 168.526875 
L 246.044659 168.814875 
L 244.595308 169.678875 
L 243.870633 169.966875 
L 240.971932 170.830875 
L 240.247256 171.406875 
L 238.797906 171.406875 
L 237.348555 171.982875 
L 235.899205 171.982875 
L 231.551153 172.270875 
L 228.652451 173.710875 
L 227.927776 173.710875 
L 227.203101 174.574875 
L 226.478425 174.574875 
L 225.75375 174.862875 
L 225.029075 174.862875 
L 224.304399 175.438875 
L 220.681023 176.878875 
L 218.506997 176.878875 
L 217.782321 177.166875 
L 217.057646 177.166875 
L 216.332971 177.454875 
L 214.88362 177.454875 
L 214.158945 177.742875 
L 213.434269 177.742875 
L 212.709594 178.030875 
L 211.984919 178.606875 
L 211.260244 178.606875 
L 210.535568 178.894875 
L 209.810893 178.894875 
L 209.086218 179.182875 
L 207.636867 179.182875 
L 206.912192 179.758875 
L 206.187516 180.046875 
L 204.01349 180.046875 
L 202.56414 180.622875 
L 201.839464 180.622875 
L 201.114789 181.198875 
L 199.665438 181.198875 
L 198.940763 181.486875 
L 198.216088 182.062875 
L 197.491412 182.062875 
L 195.317386 182.638875 
L 194.592711 183.214875 
L 193.868036 183.214875 
L 193.14336 178.030875 
L 192.418685 183.790875 
L 191.69401 184.366875 
L 190.969334 184.366875 
L 190.244659 184.654875 
L 188.795308 184.366875 
L 188.070633 184.366875 
L 187.345958 184.654875 
L 185.896607 184.654875 
L 184.447256 185.230875 
L 181.548555 185.230875 
L 180.82388 187.534875 
L 179.374529 187.534875 
L 178.649854 188.110875 
L 177.200503 188.686875 
L 175.026477 190.414875 
L 170.678425 190.414875 
L 169.229075 190.990875 
L 168.504399 191.854875 
L 167.055049 188.398875 
L 165.605698 188.974875 
L 164.881023 189.838875 
L 163.431672 189.838875 
L 162.706997 190.126875 
L 161.982321 190.126875 
L 160.532971 190.990875 
L 159.08362 190.990875 
L 157.634269 191.566875 
L 156.909594 191.566875 
L 156.184919 192.142875 
L 153.286218 193.294875 
L 152.561542 193.870875 
L 151.836867 193.870875 
L 150.387516 194.158875 
L 149.662841 194.158875 
L 148.938166 195.022875 
L 148.21349 195.310875 
L 144.590114 195.310875 
L 142.416088 196.174875 
L 140.966737 196.174875 
L 140.242062 196.462875 
L 139.517386 196.462875 
L 135.169334 197.038875 
L 133.719984 197.902875 
L 132.270633 199.342875 
L 130.821282 199.342875 
L 130.096607 200.206875 
L 128.647256 200.494875 
L 127.922581 201.070875 
L 127.197906 201.070875 
L 125.748555 201.646875 
L 125.02388 202.222875 
L 123.574529 202.510875 
L 122.849854 202.510875 
L 122.125179 203.374875 
L 119.226477 203.374875 
L 118.501802 203.950875 
L 117.052451 203.950875 
L 115.603101 204.526875 
L 114.878425 204.526875 
L 114.15375 205.102875 
L 113.429075 205.102875 
L 112.704399 205.678875 
L 104.732971 208.846875 
L 104.008295 220.654875 
L 103.28362 209.134875 
L 102.558945 209.134875 
L 101.834269 209.422875 
L 98.935568 209.422875 
L 98.210893 209.710875 
L 96.761542 209.710875 
L 96.036867 210.286875 
L 94.587516 210.286875 
L 93.138166 210.574875 
L 92.41349 211.438875 
L 86.616088 211.438875 
L 85.891412 211.726875 
L 85.166737 212.302875 
L 78.644659 212.590875 
L 76.470633 212.590875 
L 71.397906 213.742875 
L 70.673231 214.030875 
L 68.499205 214.030875 
L 67.049854 214.606875 
L 65.600503 214.894875 
L 64.875828 215.182875 
L 63.426477 215.182875 
L 62.701802 215.470875 
L 59.803101 215.470875 
L 59.078425 215.758875 
L 58.35375 215.758875 
L 58.35375 215.758875 
" style="fill:none;stroke:#008000;stroke-linecap:square;stroke-width:2.0;"/>
   </g>
   <g id="line2d_3">
    <path clip-path="url(#p01919f224a)" d="M 616.35375 29.422875 
L 578.670633 48.142875 
L 567.075828 57.358875 
L 550.408295 63.118875 
L 546.060244 65.998875 
L 543.161542 68.590875 
L 527.94336 74.062875 
L 512.000503 78.958875 
L 508.377127 79.822875 
L 502.579724 82.414875 
L 497.506997 83.854875 
L 496.782321 83.854875 
L 490.260244 85.006875 
L 488.810893 86.158875 
L 485.912192 86.446875 
L 477.216088 89.614875 
L 468.519984 95.950875 
L 466.345958 96.814875 
L 463.447256 98.254875 
L 460.548555 91.054875 
L 456.925179 93.646875 
L 454.026477 95.374875 
L 442.431672 100.846875 
L 438.808295 102.862875 
L 433.010893 104.590875 
L 420.691412 111.790875 
L 414.169334 113.230875 
L 408.371932 114.958875 
L 396.052451 119.278875 
L 395.327776 119.278875 
L 394.603101 119.566875 
L 393.878425 120.142875 
L 393.15375 121.294875 
L 392.429075 121.870875 
L 390.979724 121.870875 
L 389.530373 122.446875 
L 387.356347 122.734875 
L 386.631672 123.022875 
L 385.182321 123.022875 
L 384.457646 123.886875 
L 383.732971 123.886875 
L 383.008295 124.462875 
L 380.109594 124.462875 
L 373.587516 126.478875 
L 372.138166 127.054875 
L 370.688815 127.054875 
L 369.239464 127.630875 
L 368.514789 128.206875 
L 367.790114 128.494875 
L 365.616088 129.646875 
L 364.166737 129.646875 
L 358.369334 130.510875 
L 357.644659 131.086875 
L 354.745958 131.662875 
L 350.397906 133.102875 
L 348.22388 133.966875 
L 347.499205 134.830875 
L 346.049854 135.406875 
L 344.600503 135.406875 
L 343.875828 135.982875 
L 342.426477 136.270875 
L 341.701802 136.558875 
L 340.977127 136.558875 
L 340.252451 137.134875 
L 339.527776 137.422875 
L 338.803101 137.422875 
L 336.629075 139.726875 
L 335.179724 140.302875 
L 332.281023 140.878875 
L 330.831672 141.742875 
L 329.382321 142.030875 
L 326.48362 142.318875 
L 325.034269 142.318875 
L 324.309594 143.182875 
L 322.860244 143.182875 
L 314.16414 144.334875 
L 313.439464 144.910875 
L 312.714789 144.622875 
L 311.990114 145.198875 
L 310.540763 145.198875 
L 309.816088 145.774875 
L 306.917386 146.062875 
L 305.468036 146.062875 
L 304.018685 146.638875 
L 303.29401 146.638875 
L 302.569334 147.214875 
L 301.119984 147.214875 
L 297.496607 149.806875 
L 293.873231 150.094875 
L 290.249854 150.094875 
L 288.075828 150.670875 
L 287.351153 150.670875 
L 284.452451 152.398875 
L 283.727776 151.534875 
L 283.003101 151.534875 
L 280.104399 153.838875 
L 279.379724 154.126875 
L 278.655049 154.990875 
L 277.205698 155.854875 
L 275.756347 155.854875 
L 275.031672 156.142875 
L 274.306997 157.006875 
L 273.582321 157.006875 
L 272.857646 157.294875 
L 271.408295 157.582875 
L 269.958945 157.582875 
L 269.234269 159.310875 
L 268.509594 159.310875 
L 267.784919 159.886875 
L 264.886218 161.902875 
L 259.81349 163.918875 
L 257.639464 164.494875 
L 256.190114 165.646875 
L 253.291412 166.222875 
L 251.117386 166.798875 
L 249.668036 167.374875 
L 246.044659 167.374875 
L 244.595308 168.526875 
L 243.870633 168.814875 
L 241.696607 169.102875 
L 240.247256 170.254875 
L 238.797906 170.254875 
L 238.073231 170.542875 
L 237.348555 171.118875 
L 235.899205 171.118875 
L 231.551153 171.406875 
L 228.652451 172.846875 
L 227.927776 172.846875 
L 227.203101 173.710875 
L 226.478425 173.710875 
L 225.75375 173.998875 
L 225.029075 173.998875 
L 224.304399 174.574875 
L 220.681023 176.302875 
L 218.506997 176.302875 
L 217.057646 176.878875 
L 214.88362 176.878875 
L 214.158945 177.166875 
L 213.434269 177.166875 
L 212.709594 177.454875 
L 211.984919 178.030875 
L 211.260244 178.030875 
L 210.535568 178.318875 
L 209.810893 178.318875 
L 209.086218 178.606875 
L 207.636867 178.606875 
L 206.187516 179.758875 
L 204.01349 179.758875 
L 202.56414 180.334875 
L 201.839464 180.334875 
L 201.114789 180.910875 
L 199.665438 180.910875 
L 198.940763 181.198875 
L 198.216088 181.774875 
L 197.491412 181.774875 
L 195.317386 182.350875 
L 194.592711 182.926875 
L 193.14336 182.926875 
L 191.69401 184.078875 
L 190.969334 184.078875 
L 190.244659 184.366875 
L 188.795308 184.078875 
L 188.070633 184.078875 
L 187.345958 184.366875 
L 185.896607 184.366875 
L 185.171932 184.654875 
L 184.447256 184.654875 
L 182.997906 184.942875 
L 181.548555 184.942875 
L 180.82388 187.246875 
L 179.374529 187.246875 
L 178.649854 187.822875 
L 177.200503 188.398875 
L 175.026477 190.126875 
L 170.678425 190.126875 
L 169.229075 190.702875 
L 168.504399 191.566875 
L 167.055049 192.142875 
L 166.330373 192.142875 
L 165.605698 192.718875 
L 164.881023 193.582875 
L 163.431672 193.582875 
L 162.706997 193.870875 
L 161.982321 193.870875 
L 160.532971 194.734875 
L 159.08362 194.734875 
L 157.634269 195.310875 
L 156.909594 196.174875 
L 156.909594 196.174875 
" style="fill:none;stroke:#0000ff;stroke-linecap:square;stroke-width:2.0;"/>
   </g>
   <g id="line2d_4">
    <path clip-path="url(#p01919f224a)" d="M 578.670633 48.430875 
L 567.075828 57.358875 
L 550.408295 63.406875 
L 546.060244 65.998875 
L 543.161542 68.590875 
L 527.94336 74.350875 
L 512.000503 78.958875 
L 508.377127 79.822875 
L 503.304399 81.550875 
L 502.579724 82.126875 
L 497.506997 83.566875 
L 496.782321 83.566875 
" style="fill:none;stroke:#000000;stroke-linecap:square;stroke-width:2.0;"/>
   </g>
   <g id="line2d_5">
    <path clip-path="url(#p01919f224a)" d="M 161.982321 243.406875 
L 161.982321 13.006875 
" style="fill:none;stroke:#333333;stroke-linecap:square;"/>
   </g>
   <g id="line2d_6">
    <path clip-path="url(#p01919f224a)" d="M 185.171932 243.406875 
L 185.171932 13.006875 
" style="fill:none;stroke:#cccccc;stroke-linecap:square;"/>
   </g>
   <g id="line2d_7">
    <path clip-path="url(#p01919f224a)" d="M 206.912192 243.406875 
L 206.912192 13.006875 
" style="fill:none;stroke:#cccccc;stroke-linecap:square;"/>
   </g>
   <g id="line2d_8">
    <path clip-path="url(#p01919f224a)" d="M 230.826477 243.406875 
L 230.826477 13.006875 
" style="fill:none;stroke:#cccccc;stroke-linecap:square;"/>
   </g>
   <g id="line2d_9">
    <path clip-path="url(#p01919f224a)" d="M 254.740763 243.406875 
L 254.740763 13.006875 
" style="fill:none;stroke:#cccccc;stroke-linecap:square;"/>
   </g>
   <g id="line2d_10">
    <path clip-path="url(#p01919f224a)" d="M 264.161542 243.406875 
L 264.161542 13.006875 
" style="fill:none;stroke:#cccccc;stroke-linecap:square;"/>
   </g>
   <g id="line2d_11">
    <path clip-path="url(#p01919f224a)" d="M 293.148555 243.406875 
L 293.148555 13.006875 
" style="fill:none;stroke:#cccccc;stroke-linecap:square;"/>
   </g>
   <g id="line2d_12">
    <path clip-path="url(#p01919f224a)" d="M 317.787516 243.406875 
L 317.787516 13.006875 
" style="fill:none;stroke:#cccccc;stroke-linecap:square;"/>
   </g>
   <g id="line2d_13">
    <path clip-path="url(#p01919f224a)" d="M 345.325179 243.406875 
L 345.325179 13.006875 
" style="fill:none;stroke:#cccccc;stroke-linecap:square;"/>
   </g>
   <g id="line2d_14">
    <path clip-path="url(#p01919f224a)" d="M 367.065438 243.406875 
L 367.065438 13.006875 
" style="fill:none;stroke:#cccccc;stroke-linecap:square;"/>
   </g>
   <g id="line2d_15">
    <path clip-path="url(#p01919f224a)" d="M 385.182321 243.406875 
L 385.182321 13.006875 
" style="fill:none;stroke:#cccccc;stroke-linecap:square;"/>
   </g>
   <g id="line2d_16">
    <path clip-path="url(#p01919f224a)" d="M 409.096607 243.406875 
L 409.096607 13.006875 
" style="fill:none;stroke:#cccccc;stroke-linecap:square;"/>
   </g>
   <g id="line2d_17">
    <path clip-path="url(#p01919f224a)" d="M 475.042062 243.406875 
L 475.042062 13.006875 
" style="fill:none;stroke:#cccccc;stroke-linecap:square;"/>
   </g>
   <g id="line2d_18">
    <path clip-path="url(#p01919f224a)" d="M 461.997906 243.406875 
L 461.997906 13.006875 
" style="fill:none;stroke:#333333;stroke-linecap:square;"/>
   </g>
   <g id="line2d_19">
    <path clip-path="url(#p01919f224a)" d="M 484.462841 243.406875 
L 484.462841 13.006875 
" style="fill:none;stroke:#cccccc;stroke-linecap:square;"/>
   </g>
   <g id="line2d_20">
    <path clip-path="url(#p01919f224a)" d="M 504.75375 243.406875 
L 504.75375 13.006875 
" style="fill:none;stroke:#cccccc;stroke-linecap:square;"/>
   </g>
   <g id="line2d_21">
    <path clip-path="url(#p01919f224a)" d="M 531.566737 243.406875 
L 531.566737 13.006875 
" style="fill:none;stroke:#cccccc;stroke-linecap:square;"/>
   </g>
   <g id="patch_3">
    <path d="M 58.35375 13.006875 
L 616.35375 13.006875 
" style="fill:none;stroke:#000000;stroke-linecap:square;stroke-linejoin:miter;"/>
   </g>
   <g id="patch_4">
    <path d="M 616.35375 243.406875 
L 616.35375 13.006875 
" style="fill:none;stroke:#000000;stroke-linecap:square;stroke-linejoin:miter;"/>
   </g>
   <g id="patch_5">
    <path d="M 58.35375 243.406875 
L 616.35375 243.406875 
" style="fill:none;stroke:#000000;stroke-linecap:square;stroke-linejoin:miter;"/>
   </g>
   <g id="patch_6">
    <path d="M 58.35375 243.406875 
L 58.35375 13.006875 
" style="fill:none;stroke:#000000;stroke-linecap:square;stroke-linejoin:miter;"/>
   </g>
   <g id="matplotlib.axis_1">
    <g id="xtick_1">
     <g id="line2d_22">
      <defs>
       <path d="M 0 0 
L 0 -4 
" id="mce5c2e7cd3" style="stroke:#000000;stroke-width:0.5;"/>
      </defs>
      <g>
       <use style="stroke:#000000;stroke-width:0.5;" x="81.5433603897" xlink:href="#mce5c2e7cd3" y="243.406875"/>
      </g>
     </g>
     <g id="line2d_23">
      <defs>
       <path d="M 0 0 
L 0 4 
" id="me459e8fbf0" style="stroke:#000000;stroke-width:0.5;"/>
      </defs>
      <g>
       <use style="stroke:#000000;stroke-width:0.5;" x="81.5433603897" xlink:href="#me459e8fbf0" y="13.006875"/>
      </g>
     </g>
     <g id="text_1">
      <!-- May 2014 -->
      <defs>
       <path d="M 19.1875 8.296875 
L 53.609375 8.296875 
L 53.609375 0 
L 7.328125 0 
L 7.328125 8.296875 
Q 12.9375 14.109375 22.625 23.890625 
Q 32.328125 33.6875 34.8125 36.53125 
Q 39.546875 41.84375 41.421875 45.53125 
Q 43.3125 49.21875 43.3125 52.78125 
Q 43.3125 58.59375 39.234375 62.25 
Q 35.15625 65.921875 28.609375 65.921875 
Q 23.96875 65.921875 18.8125 64.3125 
Q 13.671875 62.703125 7.8125 59.421875 
L 7.8125 69.390625 
Q 13.765625 71.78125 18.9375 73 
Q 24.125 74.21875 28.421875 74.21875 
Q 39.75 74.21875 46.484375 68.546875 
Q 53.21875 62.890625 53.21875 53.421875 
Q 53.21875 48.921875 51.53125 44.890625 
Q 49.859375 40.875 45.40625 35.40625 
Q 44.1875 33.984375 37.640625 27.21875 
Q 31.109375 20.453125 19.1875 8.296875 
" id="BitstreamVeraSans-Roman-32"/>
       <path id="BitstreamVeraSans-Roman-20"/>
       <path d="M 31.78125 66.40625 
Q 24.171875 66.40625 20.328125 58.90625 
Q 16.5 51.421875 16.5 36.375 
Q 16.5 21.390625 20.328125 13.890625 
Q 24.171875 6.390625 31.78125 6.390625 
Q 39.453125 6.390625 43.28125 13.890625 
Q 47.125 21.390625 47.125 36.375 
Q 47.125 51.421875 43.28125 58.90625 
Q 39.453125 66.40625 31.78125 66.40625 
M 31.78125 74.21875 
Q 44.046875 74.21875 50.515625 64.515625 
Q 56.984375 54.828125 56.984375 36.375 
Q 56.984375 17.96875 50.515625 8.265625 
Q 44.046875 -1.421875 31.78125 -1.421875 
Q 19.53125 -1.421875 13.0625 8.265625 
Q 6.59375 17.96875 6.59375 36.375 
Q 6.59375 54.828125 13.0625 64.515625 
Q 19.53125 74.21875 31.78125 74.21875 
" id="BitstreamVeraSans-Roman-30"/>
       <path d="M 9.8125 72.90625 
L 24.515625 72.90625 
L 43.109375 23.296875 
L 61.8125 72.90625 
L 76.515625 72.90625 
L 76.515625 0 
L 66.890625 0 
L 66.890625 64.015625 
L 48.09375 14.015625 
L 38.1875 14.015625 
L 19.390625 64.015625 
L 19.390625 0 
L 9.8125 0 
z
" id="BitstreamVeraSans-Roman-4d"/>
       <path d="M 37.796875 64.3125 
L 12.890625 25.390625 
L 37.796875 25.390625 
z
M 35.203125 72.90625 
L 47.609375 72.90625 
L 47.609375 25.390625 
L 58.015625 25.390625 
L 58.015625 17.1875 
L 47.609375 17.1875 
L 47.609375 0 
L 37.796875 0 
L 37.796875 17.1875 
L 4.890625 17.1875 
L 4.890625 26.703125 
z
" id="BitstreamVeraSans-Roman-34"/>
       <path d="M 12.40625 8.296875 
L 28.515625 8.296875 
L 28.515625 63.921875 
L 10.984375 60.40625 
L 10.984375 69.390625 
L 28.421875 72.90625 
L 38.28125 72.90625 
L 38.28125 8.296875 
L 54.390625 8.296875 
L 54.390625 0 
L 12.40625 0 
z
" id="BitstreamVeraSans-Roman-31"/>
       <path d="M 32.171875 -5.078125 
Q 28.375 -14.84375 24.75 -17.8125 
Q 21.140625 -20.796875 15.09375 -20.796875 
L 7.90625 -20.796875 
L 7.90625 -13.28125 
L 13.1875 -13.28125 
Q 16.890625 -13.28125 18.9375 -11.515625 
Q 21 -9.765625 23.484375 -3.21875 
L 25.09375 0.875 
L 2.984375 54.6875 
L 12.5 54.6875 
L 29.59375 11.921875 
L 46.6875 54.6875 
L 56.203125 54.6875 
z
" id="BitstreamVeraSans-Roman-79"/>
       <path d="M 34.28125 27.484375 
Q 23.390625 27.484375 19.1875 25 
Q 14.984375 22.515625 14.984375 16.5 
Q 14.984375 11.71875 18.140625 8.90625 
Q 21.296875 6.109375 26.703125 6.109375 
Q 34.1875 6.109375 38.703125 11.40625 
Q 43.21875 16.703125 43.21875 25.484375 
L 43.21875 27.484375 
z
M 52.203125 31.203125 
L 52.203125 0 
L 43.21875 0 
L 43.21875 8.296875 
Q 40.140625 3.328125 35.546875 0.953125 
Q 30.953125 -1.421875 24.3125 -1.421875 
Q 15.921875 -1.421875 10.953125 3.296875 
Q 6 8.015625 6 15.921875 
Q 6 25.140625 12.171875 29.828125 
Q 18.359375 34.515625 30.609375 34.515625 
L 43.21875 34.515625 
L 43.21875 35.40625 
Q 43.21875 41.609375 39.140625 45 
Q 35.0625 48.390625 27.6875 48.390625 
Q 23 48.390625 18.546875 47.265625 
Q 14.109375 46.140625 10.015625 43.890625 
L 10.015625 52.203125 
Q 14.9375 54.109375 19.578125 55.046875 
Q 24.21875 56 28.609375 56 
Q 40.484375 56 46.34375 49.84375 
Q 52.203125 43.703125 52.203125 31.203125 
" id="BitstreamVeraSans-Roman-61"/>
      </defs>
      <g transform="translate(84.8546103897 306.570625)rotate(-90.0)scale(0.12 -0.12)">
       <use xlink:href="#BitstreamVeraSans-Roman-4d"/>
       <use x="86.279296875" xlink:href="#BitstreamVeraSans-Roman-61"/>
       <use x="147.55859375" xlink:href="#BitstreamVeraSans-Roman-79"/>
       <use x="206.73828125" xlink:href="#BitstreamVeraSans-Roman-20"/>
       <use x="238.525390625" xlink:href="#BitstreamVeraSans-Roman-32"/>
       <use x="302.1484375" xlink:href="#BitstreamVeraSans-Roman-30"/>
       <use x="365.771484375" xlink:href="#BitstreamVeraSans-Roman-31"/>
       <use x="429.39453125" xlink:href="#BitstreamVeraSans-Roman-34"/>
      </g>
     </g>
    </g>
    <g id="xtick_2">
     <g id="line2d_24">
      <g>
       <use style="stroke:#000000;stroke-width:0.5;" x="148.21349026" xlink:href="#mce5c2e7cd3" y="243.406875"/>
      </g>
     </g>
     <g id="line2d_25">
      <g>
       <use style="stroke:#000000;stroke-width:0.5;" x="148.21349026" xlink:href="#me459e8fbf0" y="13.006875"/>
      </g>
     </g>
     <g id="text_2">
      <!-- Aug 2014 -->
      <defs>
       <path d="M 45.40625 27.984375 
Q 45.40625 37.75 41.375 43.109375 
Q 37.359375 48.484375 30.078125 48.484375 
Q 22.859375 48.484375 18.828125 43.109375 
Q 14.796875 37.75 14.796875 27.984375 
Q 14.796875 18.265625 18.828125 12.890625 
Q 22.859375 7.515625 30.078125 7.515625 
Q 37.359375 7.515625 41.375 12.890625 
Q 45.40625 18.265625 45.40625 27.984375 
M 54.390625 6.78125 
Q 54.390625 -7.171875 48.1875 -13.984375 
Q 42 -20.796875 29.203125 -20.796875 
Q 24.46875 -20.796875 20.265625 -20.09375 
Q 16.0625 -19.390625 12.109375 -17.921875 
L 12.109375 -9.1875 
Q 16.0625 -11.328125 19.921875 -12.34375 
Q 23.78125 -13.375 27.78125 -13.375 
Q 36.625 -13.375 41.015625 -8.765625 
Q 45.40625 -4.15625 45.40625 5.171875 
L 45.40625 9.625 
Q 42.625 4.78125 38.28125 2.390625 
Q 33.9375 0 27.875 0 
Q 17.828125 0 11.671875 7.65625 
Q 5.515625 15.328125 5.515625 27.984375 
Q 5.515625 40.671875 11.671875 48.328125 
Q 17.828125 56 27.875 56 
Q 33.9375 56 38.28125 53.609375 
Q 42.625 51.21875 45.40625 46.390625 
L 45.40625 54.6875 
L 54.390625 54.6875 
z
" id="BitstreamVeraSans-Roman-67"/>
       <path d="M 8.5 21.578125 
L 8.5 54.6875 
L 17.484375 54.6875 
L 17.484375 21.921875 
Q 17.484375 14.15625 20.5 10.265625 
Q 23.53125 6.390625 29.59375 6.390625 
Q 36.859375 6.390625 41.078125 11.03125 
Q 45.3125 15.671875 45.3125 23.6875 
L 45.3125 54.6875 
L 54.296875 54.6875 
L 54.296875 0 
L 45.3125 0 
L 45.3125 8.40625 
Q 42.046875 3.421875 37.71875 1 
Q 33.40625 -1.421875 27.6875 -1.421875 
Q 18.265625 -1.421875 13.375 4.4375 
Q 8.5 10.296875 8.5 21.578125 
" id="BitstreamVeraSans-Roman-75"/>
       <path d="M 34.1875 63.1875 
L 20.796875 26.90625 
L 47.609375 26.90625 
z
M 28.609375 72.90625 
L 39.796875 72.90625 
L 67.578125 0 
L 57.328125 0 
L 50.6875 18.703125 
L 17.828125 18.703125 
L 11.1875 0 
L 0.78125 0 
z
" id="BitstreamVeraSans-Roman-41"/>
      </defs>
      <g transform="translate(151.52474026 305.1925)rotate(-90.0)scale(0.12 -0.12)">
       <use xlink:href="#BitstreamVeraSans-Roman-41"/>
       <use x="68.408203125" xlink:href="#BitstreamVeraSans-Roman-75"/>
       <use x="131.787109375" xlink:href="#BitstreamVeraSans-Roman-67"/>
       <use x="195.263671875" xlink:href="#BitstreamVeraSans-Roman-20"/>
       <use x="227.05078125" xlink:href="#BitstreamVeraSans-Roman-32"/>
       <use x="290.673828125" xlink:href="#BitstreamVeraSans-Roman-30"/>
       <use x="354.296875" xlink:href="#BitstreamVeraSans-Roman-31"/>
       <use x="417.919921875" xlink:href="#BitstreamVeraSans-Roman-34"/>
      </g>
     </g>
    </g>
    <g id="xtick_3">
     <g id="line2d_26">
      <g>
       <use style="stroke:#000000;stroke-width:0.5;" x="214.88362013" xlink:href="#mce5c2e7cd3" y="243.406875"/>
      </g>
     </g>
     <g id="line2d_27">
      <g>
       <use style="stroke:#000000;stroke-width:0.5;" x="214.88362013" xlink:href="#me459e8fbf0" y="13.006875"/>
      </g>
     </g>
     <g id="text_3">
      <!-- Nov 2014 -->
      <defs>
       <path d="M 2.984375 54.6875 
L 12.5 54.6875 
L 29.59375 8.796875 
L 46.6875 54.6875 
L 56.203125 54.6875 
L 35.6875 0 
L 23.484375 0 
z
" id="BitstreamVeraSans-Roman-76"/>
       <path d="M 9.8125 72.90625 
L 23.09375 72.90625 
L 55.421875 11.921875 
L 55.421875 72.90625 
L 64.984375 72.90625 
L 64.984375 0 
L 51.703125 0 
L 19.390625 60.984375 
L 19.390625 0 
L 9.8125 0 
z
" id="BitstreamVeraSans-Roman-4e"/>
       <path d="M 30.609375 48.390625 
Q 23.390625 48.390625 19.1875 42.75 
Q 14.984375 37.109375 14.984375 27.296875 
Q 14.984375 17.484375 19.15625 11.84375 
Q 23.34375 6.203125 30.609375 6.203125 
Q 37.796875 6.203125 41.984375 11.859375 
Q 46.1875 17.53125 46.1875 27.296875 
Q 46.1875 37.015625 41.984375 42.703125 
Q 37.796875 48.390625 30.609375 48.390625 
M 30.609375 56 
Q 42.328125 56 49.015625 48.375 
Q 55.71875 40.765625 55.71875 27.296875 
Q 55.71875 13.875 49.015625 6.21875 
Q 42.328125 -1.421875 30.609375 -1.421875 
Q 18.84375 -1.421875 12.171875 6.21875 
Q 5.515625 13.875 5.515625 27.296875 
Q 5.515625 40.765625 12.171875 48.375 
Q 18.84375 56 30.609375 56 
" id="BitstreamVeraSans-Roman-6f"/>
      </defs>
      <g transform="translate(218.19487013 305.183125)rotate(-90.0)scale(0.12 -0.12)">
       <use xlink:href="#BitstreamVeraSans-Roman-4e"/>
       <use x="74.8046875" xlink:href="#BitstreamVeraSans-Roman-6f"/>
       <use x="135.986328125" xlink:href="#BitstreamVeraSans-Roman-76"/>
       <use x="195.166015625" xlink:href="#BitstreamVeraSans-Roman-20"/>
       <use x="226.953125" xlink:href="#BitstreamVeraSans-Roman-32"/>
       <use x="290.576171875" xlink:href="#BitstreamVeraSans-Roman-30"/>
       <use x="354.19921875" xlink:href="#BitstreamVeraSans-Roman-31"/>
       <use x="417.822265625" xlink:href="#BitstreamVeraSans-Roman-34"/>
      </g>
     </g>
    </g>
    <g id="xtick_4">
     <g id="line2d_28">
      <g>
       <use style="stroke:#000000;stroke-width:0.5;" x="281.55375" xlink:href="#mce5c2e7cd3" y="243.406875"/>
      </g>
     </g>
     <g id="line2d_29">
      <g>
       <use style="stroke:#000000;stroke-width:0.5;" x="281.55375" xlink:href="#me459e8fbf0" y="13.006875"/>
      </g>
     </g>
     <g id="text_4">
      <!-- Feb 2015 -->
      <defs>
       <path d="M 56.203125 29.59375 
L 56.203125 25.203125 
L 14.890625 25.203125 
Q 15.484375 15.921875 20.484375 11.0625 
Q 25.484375 6.203125 34.421875 6.203125 
Q 39.59375 6.203125 44.453125 7.46875 
Q 49.3125 8.734375 54.109375 11.28125 
L 54.109375 2.78125 
Q 49.265625 0.734375 44.1875 -0.34375 
Q 39.109375 -1.421875 33.890625 -1.421875 
Q 20.796875 -1.421875 13.15625 6.1875 
Q 5.515625 13.8125 5.515625 26.8125 
Q 5.515625 40.234375 12.765625 48.109375 
Q 20.015625 56 32.328125 56 
Q 43.359375 56 49.78125 48.890625 
Q 56.203125 41.796875 56.203125 29.59375 
M 47.21875 32.234375 
Q 47.125 39.59375 43.09375 43.984375 
Q 39.0625 48.390625 32.421875 48.390625 
Q 24.90625 48.390625 20.390625 44.140625 
Q 15.875 39.890625 15.1875 32.171875 
z
" id="BitstreamVeraSans-Roman-65"/>
       <path d="M 9.8125 72.90625 
L 51.703125 72.90625 
L 51.703125 64.59375 
L 19.671875 64.59375 
L 19.671875 43.109375 
L 48.578125 43.109375 
L 48.578125 34.8125 
L 19.671875 34.8125 
L 19.671875 0 
L 9.8125 0 
z
" id="BitstreamVeraSans-Roman-46"/>
       <path d="M 10.796875 72.90625 
L 49.515625 72.90625 
L 49.515625 64.59375 
L 19.828125 64.59375 
L 19.828125 46.734375 
Q 21.96875 47.46875 24.109375 47.828125 
Q 26.265625 48.1875 28.421875 48.1875 
Q 40.625 48.1875 47.75 41.5 
Q 54.890625 34.8125 54.890625 23.390625 
Q 54.890625 11.625 47.5625 5.09375 
Q 40.234375 -1.421875 26.90625 -1.421875 
Q 22.3125 -1.421875 17.546875 -0.640625 
Q 12.796875 0.140625 7.71875 1.703125 
L 7.71875 11.625 
Q 12.109375 9.234375 16.796875 8.0625 
Q 21.484375 6.890625 26.703125 6.890625 
Q 35.15625 6.890625 40.078125 11.328125 
Q 45.015625 15.765625 45.015625 23.390625 
Q 45.015625 31 40.078125 35.4375 
Q 35.15625 39.890625 26.703125 39.890625 
Q 22.75 39.890625 18.8125 39.015625 
Q 14.890625 38.140625 10.796875 36.28125 
z
" id="BitstreamVeraSans-Roman-35"/>
       <path d="M 48.6875 27.296875 
Q 48.6875 37.203125 44.609375 42.84375 
Q 40.53125 48.484375 33.40625 48.484375 
Q 26.265625 48.484375 22.1875 42.84375 
Q 18.109375 37.203125 18.109375 27.296875 
Q 18.109375 17.390625 22.1875 11.75 
Q 26.265625 6.109375 33.40625 6.109375 
Q 40.53125 6.109375 44.609375 11.75 
Q 48.6875 17.390625 48.6875 27.296875 
M 18.109375 46.390625 
Q 20.953125 51.265625 25.265625 53.625 
Q 29.59375 56 35.59375 56 
Q 45.5625 56 51.78125 48.09375 
Q 58.015625 40.1875 58.015625 27.296875 
Q 58.015625 14.40625 51.78125 6.484375 
Q 45.5625 -1.421875 35.59375 -1.421875 
Q 29.59375 -1.421875 25.265625 0.953125 
Q 20.953125 3.328125 18.109375 8.203125 
L 18.109375 0 
L 9.078125 0 
L 9.078125 75.984375 
L 18.109375 75.984375 
z
" id="BitstreamVeraSans-Roman-62"/>
      </defs>
      <g transform="translate(284.865 303.655)rotate(-90.0)scale(0.12 -0.12)">
       <use xlink:href="#BitstreamVeraSans-Roman-46"/>
       <use x="57.44140625" xlink:href="#BitstreamVeraSans-Roman-65"/>
       <use x="118.96484375" xlink:href="#BitstreamVeraSans-Roman-62"/>
       <use x="182.44140625" xlink:href="#BitstreamVeraSans-Roman-20"/>
       <use x="214.228515625" xlink:href="#BitstreamVeraSans-Roman-32"/>
       <use x="277.8515625" xlink:href="#BitstreamVeraSans-Roman-30"/>
       <use x="341.474609375" xlink:href="#BitstreamVeraSans-Roman-31"/>
       <use x="405.09765625" xlink:href="#BitstreamVeraSans-Roman-35"/>
      </g>
     </g>
    </g>
    <g id="xtick_5">
     <g id="line2d_30">
      <g>
       <use style="stroke:#000000;stroke-width:0.5;" x="346.049853896" xlink:href="#mce5c2e7cd3" y="243.406875"/>
      </g>
     </g>
     <g id="line2d_31">
      <g>
       <use style="stroke:#000000;stroke-width:0.5;" x="346.049853896" xlink:href="#me459e8fbf0" y="13.006875"/>
      </g>
     </g>
     <g id="text_5">
      <!-- May 2015 -->
      <g transform="translate(349.361103896 306.570625)rotate(-90.0)scale(0.12 -0.12)">
       <use xlink:href="#BitstreamVeraSans-Roman-4d"/>
       <use x="86.279296875" xlink:href="#BitstreamVeraSans-Roman-61"/>
       <use x="147.55859375" xlink:href="#BitstreamVeraSans-Roman-79"/>
       <use x="206.73828125" xlink:href="#BitstreamVeraSans-Roman-20"/>
       <use x="238.525390625" xlink:href="#BitstreamVeraSans-Roman-32"/>
       <use x="302.1484375" xlink:href="#BitstreamVeraSans-Roman-30"/>
       <use x="365.771484375" xlink:href="#BitstreamVeraSans-Roman-31"/>
       <use x="429.39453125" xlink:href="#BitstreamVeraSans-Roman-35"/>
      </g>
     </g>
    </g>
    <g id="xtick_6">
     <g id="line2d_32">
      <g>
       <use style="stroke:#000000;stroke-width:0.5;" x="412.719983766" xlink:href="#mce5c2e7cd3" y="243.406875"/>
      </g>
     </g>
     <g id="line2d_33">
      <g>
       <use style="stroke:#000000;stroke-width:0.5;" x="412.719983766" xlink:href="#me459e8fbf0" y="13.006875"/>
      </g>
     </g>
     <g id="text_6">
      <!-- Aug 2015 -->
      <g transform="translate(416.031233766 305.1925)rotate(-90.0)scale(0.12 -0.12)">
       <use xlink:href="#BitstreamVeraSans-Roman-41"/>
       <use x="68.408203125" xlink:href="#BitstreamVeraSans-Roman-75"/>
       <use x="131.787109375" xlink:href="#BitstreamVeraSans-Roman-67"/>
       <use x="195.263671875" xlink:href="#BitstreamVeraSans-Roman-20"/>
       <use x="227.05078125" xlink:href="#BitstreamVeraSans-Roman-32"/>
       <use x="290.673828125" xlink:href="#BitstreamVeraSans-Roman-30"/>
       <use x="354.296875" xlink:href="#BitstreamVeraSans-Roman-31"/>
       <use x="417.919921875" xlink:href="#BitstreamVeraSans-Roman-35"/>
      </g>
     </g>
    </g>
    <g id="xtick_7">
     <g id="line2d_34">
      <g>
       <use style="stroke:#000000;stroke-width:0.5;" x="479.390113636" xlink:href="#mce5c2e7cd3" y="243.406875"/>
      </g>
     </g>
     <g id="line2d_35">
      <g>
       <use style="stroke:#000000;stroke-width:0.5;" x="479.390113636" xlink:href="#me459e8fbf0" y="13.006875"/>
      </g>
     </g>
     <g id="text_7">
      <!-- Nov 2015 -->
      <g transform="translate(482.701363636 305.183125)rotate(-90.0)scale(0.12 -0.12)">
       <use xlink:href="#BitstreamVeraSans-Roman-4e"/>
       <use x="74.8046875" xlink:href="#BitstreamVeraSans-Roman-6f"/>
       <use x="135.986328125" xlink:href="#BitstreamVeraSans-Roman-76"/>
       <use x="195.166015625" xlink:href="#BitstreamVeraSans-Roman-20"/>
       <use x="226.953125" xlink:href="#BitstreamVeraSans-Roman-32"/>
       <use x="290.576171875" xlink:href="#BitstreamVeraSans-Roman-30"/>
       <use x="354.19921875" xlink:href="#BitstreamVeraSans-Roman-31"/>
       <use x="417.822265625" xlink:href="#BitstreamVeraSans-Roman-35"/>
      </g>
     </g>
    </g>
    <g id="xtick_8">
     <g id="line2d_36">
      <g>
       <use style="stroke:#000000;stroke-width:0.5;" x="546.060243506" xlink:href="#mce5c2e7cd3" y="243.406875"/>
      </g>
     </g>
     <g id="line2d_37">
      <g>
       <use style="stroke:#000000;stroke-width:0.5;" x="546.060243506" xlink:href="#me459e8fbf0" y="13.006875"/>
      </g>
     </g>
     <g id="text_8">
      <!-- Feb 2016 -->
      <defs>
       <path d="M 33.015625 40.375 
Q 26.375 40.375 22.484375 35.828125 
Q 18.609375 31.296875 18.609375 23.390625 
Q 18.609375 15.53125 22.484375 10.953125 
Q 26.375 6.390625 33.015625 6.390625 
Q 39.65625 6.390625 43.53125 10.953125 
Q 47.40625 15.53125 47.40625 23.390625 
Q 47.40625 31.296875 43.53125 35.828125 
Q 39.65625 40.375 33.015625 40.375 
M 52.59375 71.296875 
L 52.59375 62.3125 
Q 48.875 64.0625 45.09375 64.984375 
Q 41.3125 65.921875 37.59375 65.921875 
Q 27.828125 65.921875 22.671875 59.328125 
Q 17.53125 52.734375 16.796875 39.40625 
Q 19.671875 43.65625 24.015625 45.921875 
Q 28.375 48.1875 33.59375 48.1875 
Q 44.578125 48.1875 50.953125 41.515625 
Q 57.328125 34.859375 57.328125 23.390625 
Q 57.328125 12.15625 50.6875 5.359375 
Q 44.046875 -1.421875 33.015625 -1.421875 
Q 20.359375 -1.421875 13.671875 8.265625 
Q 6.984375 17.96875 6.984375 36.375 
Q 6.984375 53.65625 15.1875 63.9375 
Q 23.390625 74.21875 37.203125 74.21875 
Q 40.921875 74.21875 44.703125 73.484375 
Q 48.484375 72.75 52.59375 71.296875 
" id="BitstreamVeraSans-Roman-36"/>
      </defs>
      <g transform="translate(549.371493506 303.655)rotate(-90.0)scale(0.12 -0.12)">
       <use xlink:href="#BitstreamVeraSans-Roman-46"/>
       <use x="57.44140625" xlink:href="#BitstreamVeraSans-Roman-65"/>
       <use x="118.96484375" xlink:href="#BitstreamVeraSans-Roman-62"/>
       <use x="182.44140625" xlink:href="#BitstreamVeraSans-Roman-20"/>
       <use x="214.228515625" xlink:href="#BitstreamVeraSans-Roman-32"/>
       <use x="277.8515625" xlink:href="#BitstreamVeraSans-Roman-30"/>
       <use x="341.474609375" xlink:href="#BitstreamVeraSans-Roman-31"/>
       <use x="405.09765625" xlink:href="#BitstreamVeraSans-Roman-36"/>
      </g>
     </g>
    </g>
    <g id="xtick_9">
     <g id="line2d_38">
      <g>
       <use style="stroke:#000000;stroke-width:0.5;" x="611.281022727" xlink:href="#mce5c2e7cd3" y="243.406875"/>
      </g>
     </g>
     <g id="line2d_39">
      <g>
       <use style="stroke:#000000;stroke-width:0.5;" x="611.281022727" xlink:href="#me459e8fbf0" y="13.006875"/>
      </g>
     </g>
     <g id="text_9">
      <!-- May 2016 -->
      <g transform="translate(614.592272727 306.570625)rotate(-90.0)scale(0.12 -0.12)">
       <use xlink:href="#BitstreamVeraSans-Roman-4d"/>
       <use x="86.279296875" xlink:href="#BitstreamVeraSans-Roman-61"/>
       <use x="147.55859375" xlink:href="#BitstreamVeraSans-Roman-79"/>
       <use x="206.73828125" xlink:href="#BitstreamVeraSans-Roman-20"/>
       <use x="238.525390625" xlink:href="#BitstreamVeraSans-Roman-32"/>
       <use x="302.1484375" xlink:href="#BitstreamVeraSans-Roman-30"/>
       <use x="365.771484375" xlink:href="#BitstreamVeraSans-Roman-31"/>
       <use x="429.39453125" xlink:href="#BitstreamVeraSans-Roman-36"/>
      </g>
     </g>
    </g>
   </g>
   <g id="matplotlib.axis_2">
    <g id="ytick_1">
     <g id="line2d_40">
      <defs>
       <path d="M 0 0 
L 4 0 
" id="m87edd9fe05" style="stroke:#000000;stroke-width:0.5;"/>
      </defs>
      <g>
       <use style="stroke:#000000;stroke-width:0.5;" x="58.35375" xlink:href="#m87edd9fe05" y="243.406875"/>
      </g>
     </g>
     <g id="line2d_41">
      <defs>
       <path d="M 0 0 
L -4 0 
" id="m16396ac27f" style="stroke:#000000;stroke-width:0.5;"/>
      </defs>
      <g>
       <use style="stroke:#000000;stroke-width:0.5;" x="616.35375" xlink:href="#m16396ac27f" y="243.406875"/>
      </g>
     </g>
     <g id="text_10">
      <!-- 200 -->
      <g transform="translate(31.44875 246.718125)scale(0.12 -0.12)">
       <use xlink:href="#BitstreamVeraSans-Roman-32"/>
       <use x="63.623046875" xlink:href="#BitstreamVeraSans-Roman-30"/>
       <use x="127.24609375" xlink:href="#BitstreamVeraSans-Roman-30"/>
      </g>
     </g>
    </g>
    <g id="ytick_2">
     <g id="line2d_42">
      <g>
       <use style="stroke:#000000;stroke-width:0.5;" x="58.35375" xlink:href="#m87edd9fe05" y="214.606875"/>
      </g>
     </g>
     <g id="line2d_43">
      <g>
       <use style="stroke:#000000;stroke-width:0.5;" x="616.35375" xlink:href="#m16396ac27f" y="214.606875"/>
      </g>
     </g>
     <g id="text_11">
      <!-- 300 -->
      <defs>
       <path d="M 40.578125 39.3125 
Q 47.65625 37.796875 51.625 33 
Q 55.609375 28.21875 55.609375 21.1875 
Q 55.609375 10.40625 48.1875 4.484375 
Q 40.765625 -1.421875 27.09375 -1.421875 
Q 22.515625 -1.421875 17.65625 -0.515625 
Q 12.796875 0.390625 7.625 2.203125 
L 7.625 11.71875 
Q 11.71875 9.328125 16.59375 8.109375 
Q 21.484375 6.890625 26.8125 6.890625 
Q 36.078125 6.890625 40.9375 10.546875 
Q 45.796875 14.203125 45.796875 21.1875 
Q 45.796875 27.640625 41.28125 31.265625 
Q 36.765625 34.90625 28.71875 34.90625 
L 20.21875 34.90625 
L 20.21875 43.015625 
L 29.109375 43.015625 
Q 36.375 43.015625 40.234375 45.921875 
Q 44.09375 48.828125 44.09375 54.296875 
Q 44.09375 59.90625 40.109375 62.90625 
Q 36.140625 65.921875 28.71875 65.921875 
Q 24.65625 65.921875 20.015625 65.03125 
Q 15.375 64.15625 9.8125 62.3125 
L 9.8125 71.09375 
Q 15.4375 72.65625 20.34375 73.4375 
Q 25.25 74.21875 29.59375 74.21875 
Q 40.828125 74.21875 47.359375 69.109375 
Q 53.90625 64.015625 53.90625 55.328125 
Q 53.90625 49.265625 50.4375 45.09375 
Q 46.96875 40.921875 40.578125 39.3125 
" id="BitstreamVeraSans-Roman-33"/>
      </defs>
      <g transform="translate(31.44875 217.918125)scale(0.12 -0.12)">
       <use xlink:href="#BitstreamVeraSans-Roman-33"/>
       <use x="63.623046875" xlink:href="#BitstreamVeraSans-Roman-30"/>
       <use x="127.24609375" xlink:href="#BitstreamVeraSans-Roman-30"/>
      </g>
     </g>
    </g>
    <g id="ytick_3">
     <g id="line2d_44">
      <g>
       <use style="stroke:#000000;stroke-width:0.5;" x="58.35375" xlink:href="#m87edd9fe05" y="185.806875"/>
      </g>
     </g>
     <g id="line2d_45">
      <g>
       <use style="stroke:#000000;stroke-width:0.5;" x="616.35375" xlink:href="#m16396ac27f" y="185.806875"/>
      </g>
     </g>
     <g id="text_12">
      <!-- 400 -->
      <g transform="translate(31.44875 189.118125)scale(0.12 -0.12)">
       <use xlink:href="#BitstreamVeraSans-Roman-34"/>
       <use x="63.623046875" xlink:href="#BitstreamVeraSans-Roman-30"/>
       <use x="127.24609375" xlink:href="#BitstreamVeraSans-Roman-30"/>
      </g>
     </g>
    </g>
    <g id="ytick_4">
     <g id="line2d_46">
      <g>
       <use style="stroke:#000000;stroke-width:0.5;" x="58.35375" xlink:href="#m87edd9fe05" y="157.006875"/>
      </g>
     </g>
     <g id="line2d_47">
      <g>
       <use style="stroke:#000000;stroke-width:0.5;" x="616.35375" xlink:href="#m16396ac27f" y="157.006875"/>
      </g>
     </g>
     <g id="text_13">
      <!-- 500 -->
      <g transform="translate(31.44875 160.318125)scale(0.12 -0.12)">
       <use xlink:href="#BitstreamVeraSans-Roman-35"/>
       <use x="63.623046875" xlink:href="#BitstreamVeraSans-Roman-30"/>
       <use x="127.24609375" xlink:href="#BitstreamVeraSans-Roman-30"/>
      </g>
     </g>
    </g>
    <g id="ytick_5">
     <g id="line2d_48">
      <g>
       <use style="stroke:#000000;stroke-width:0.5;" x="58.35375" xlink:href="#m87edd9fe05" y="128.206875"/>
      </g>
     </g>
     <g id="line2d_49">
      <g>
       <use style="stroke:#000000;stroke-width:0.5;" x="616.35375" xlink:href="#m16396ac27f" y="128.206875"/>
      </g>
     </g>
     <g id="text_14">
      <!-- 600 -->
      <g transform="translate(31.44875 131.518125)scale(0.12 -0.12)">
       <use xlink:href="#BitstreamVeraSans-Roman-36"/>
       <use x="63.623046875" xlink:href="#BitstreamVeraSans-Roman-30"/>
       <use x="127.24609375" xlink:href="#BitstreamVeraSans-Roman-30"/>
      </g>
     </g>
    </g>
    <g id="ytick_6">
     <g id="line2d_50">
      <g>
       <use style="stroke:#000000;stroke-width:0.5;" x="58.35375" xlink:href="#m87edd9fe05" y="99.406875"/>
      </g>
     </g>
     <g id="line2d_51">
      <g>
       <use style="stroke:#000000;stroke-width:0.5;" x="616.35375" xlink:href="#m16396ac27f" y="99.406875"/>
      </g>
     </g>
     <g id="text_15">
      <!-- 700 -->
      <defs>
       <path d="M 8.203125 72.90625 
L 55.078125 72.90625 
L 55.078125 68.703125 
L 28.609375 0 
L 18.3125 0 
L 43.21875 64.59375 
L 8.203125 64.59375 
z
" id="BitstreamVeraSans-Roman-37"/>
      </defs>
      <g transform="translate(31.44875 102.718125)scale(0.12 -0.12)">
       <use xlink:href="#BitstreamVeraSans-Roman-37"/>
       <use x="63.623046875" xlink:href="#BitstreamVeraSans-Roman-30"/>
       <use x="127.24609375" xlink:href="#BitstreamVeraSans-Roman-30"/>
      </g>
     </g>
    </g>
    <g id="ytick_7">
     <g id="line2d_52">
      <g>
       <use style="stroke:#000000;stroke-width:0.5;" x="58.35375" xlink:href="#m87edd9fe05" y="70.606875"/>
      </g>
     </g>
     <g id="line2d_53">
      <g>
       <use style="stroke:#000000;stroke-width:0.5;" x="616.35375" xlink:href="#m16396ac27f" y="70.606875"/>
      </g>
     </g>
     <g id="text_16">
      <!-- 800 -->
      <defs>
       <path d="M 31.78125 34.625 
Q 24.75 34.625 20.71875 30.859375 
Q 16.703125 27.09375 16.703125 20.515625 
Q 16.703125 13.921875 20.71875 10.15625 
Q 24.75 6.390625 31.78125 6.390625 
Q 38.8125 6.390625 42.859375 10.171875 
Q 46.921875 13.96875 46.921875 20.515625 
Q 46.921875 27.09375 42.890625 30.859375 
Q 38.875 34.625 31.78125 34.625 
M 21.921875 38.8125 
Q 15.578125 40.375 12.03125 44.71875 
Q 8.5 49.078125 8.5 55.328125 
Q 8.5 64.0625 14.71875 69.140625 
Q 20.953125 74.21875 31.78125 74.21875 
Q 42.671875 74.21875 48.875 69.140625 
Q 55.078125 64.0625 55.078125 55.328125 
Q 55.078125 49.078125 51.53125 44.71875 
Q 48 40.375 41.703125 38.8125 
Q 48.828125 37.15625 52.796875 32.3125 
Q 56.78125 27.484375 56.78125 20.515625 
Q 56.78125 9.90625 50.3125 4.234375 
Q 43.84375 -1.421875 31.78125 -1.421875 
Q 19.734375 -1.421875 13.25 4.234375 
Q 6.78125 9.90625 6.78125 20.515625 
Q 6.78125 27.484375 10.78125 32.3125 
Q 14.796875 37.15625 21.921875 38.8125 
M 18.3125 54.390625 
Q 18.3125 48.734375 21.84375 45.5625 
Q 25.390625 42.390625 31.78125 42.390625 
Q 38.140625 42.390625 41.71875 45.5625 
Q 45.3125 48.734375 45.3125 54.390625 
Q 45.3125 60.0625 41.71875 63.234375 
Q 38.140625 66.40625 31.78125 66.40625 
Q 25.390625 66.40625 21.84375 63.234375 
Q 18.3125 60.0625 18.3125 54.390625 
" id="BitstreamVeraSans-Roman-38"/>
      </defs>
      <g transform="translate(31.44875 73.918125)scale(0.12 -0.12)">
       <use xlink:href="#BitstreamVeraSans-Roman-38"/>
       <use x="63.623046875" xlink:href="#BitstreamVeraSans-Roman-30"/>
       <use x="127.24609375" xlink:href="#BitstreamVeraSans-Roman-30"/>
      </g>
     </g>
    </g>
    <g id="ytick_8">
     <g id="line2d_54">
      <g>
       <use style="stroke:#000000;stroke-width:0.5;" x="58.35375" xlink:href="#m87edd9fe05" y="41.806875"/>
      </g>
     </g>
     <g id="line2d_55">
      <g>
       <use style="stroke:#000000;stroke-width:0.5;" x="616.35375" xlink:href="#m16396ac27f" y="41.806875"/>
      </g>
     </g>
     <g id="text_17">
      <!-- 900 -->
      <defs>
       <path d="M 10.984375 1.515625 
L 10.984375 10.5 
Q 14.703125 8.734375 18.5 7.8125 
Q 22.3125 6.890625 25.984375 6.890625 
Q 35.75 6.890625 40.890625 13.453125 
Q 46.046875 20.015625 46.78125 33.40625 
Q 43.953125 29.203125 39.59375 26.953125 
Q 35.25 24.703125 29.984375 24.703125 
Q 19.046875 24.703125 12.671875 31.3125 
Q 6.296875 37.9375 6.296875 49.421875 
Q 6.296875 60.640625 12.9375 67.421875 
Q 19.578125 74.21875 30.609375 74.21875 
Q 43.265625 74.21875 49.921875 64.515625 
Q 56.59375 54.828125 56.59375 36.375 
Q 56.59375 19.140625 48.40625 8.859375 
Q 40.234375 -1.421875 26.421875 -1.421875 
Q 22.703125 -1.421875 18.890625 -0.6875 
Q 15.09375 0.046875 10.984375 1.515625 
M 30.609375 32.421875 
Q 37.25 32.421875 41.125 36.953125 
Q 45.015625 41.5 45.015625 49.421875 
Q 45.015625 57.28125 41.125 61.84375 
Q 37.25 66.40625 30.609375 66.40625 
Q 23.96875 66.40625 20.09375 61.84375 
Q 16.21875 57.28125 16.21875 49.421875 
Q 16.21875 41.5 20.09375 36.953125 
Q 23.96875 32.421875 30.609375 32.421875 
" id="BitstreamVeraSans-Roman-39"/>
      </defs>
      <g transform="translate(31.44875 45.118125)scale(0.12 -0.12)">
       <use xlink:href="#BitstreamVeraSans-Roman-39"/>
       <use x="63.623046875" xlink:href="#BitstreamVeraSans-Roman-30"/>
       <use x="127.24609375" xlink:href="#BitstreamVeraSans-Roman-30"/>
      </g>
     </g>
    </g>
    <g id="ytick_9">
     <g id="line2d_56">
      <g>
       <use style="stroke:#000000;stroke-width:0.5;" x="58.35375" xlink:href="#m87edd9fe05" y="13.006875"/>
      </g>
     </g>
     <g id="line2d_57">
      <g>
       <use style="stroke:#000000;stroke-width:0.5;" x="616.35375" xlink:href="#m16396ac27f" y="13.006875"/>
      </g>
     </g>
     <g id="text_18">
      <!-- 1000 -->
      <g transform="translate(23.81375 16.318125)scale(0.12 -0.12)">
       <use xlink:href="#BitstreamVeraSans-Roman-31"/>
       <use x="63.623046875" xlink:href="#BitstreamVeraSans-Roman-30"/>
       <use x="127.24609375" xlink:href="#BitstreamVeraSans-Roman-30"/>
       <use x="190.869140625" xlink:href="#BitstreamVeraSans-Roman-30"/>
      </g>
     </g>
    </g>
    <g id="text_19">
     <!-- Number of Tagged Packages -->
     <defs>
      <path d="M 52 44.1875 
Q 55.375 50.25 60.0625 53.125 
Q 64.75 56 71.09375 56 
Q 79.640625 56 84.28125 50.015625 
Q 88.921875 44.046875 88.921875 33.015625 
L 88.921875 0 
L 79.890625 0 
L 79.890625 32.71875 
Q 79.890625 40.578125 77.09375 44.375 
Q 74.3125 48.1875 68.609375 48.1875 
Q 61.625 48.1875 57.5625 43.546875 
Q 53.515625 38.921875 53.515625 30.90625 
L 53.515625 0 
L 44.484375 0 
L 44.484375 32.71875 
Q 44.484375 40.625 41.703125 44.40625 
Q 38.921875 48.1875 33.109375 48.1875 
Q 26.21875 48.1875 22.15625 43.53125 
Q 18.109375 38.875 18.109375 30.90625 
L 18.109375 0 
L 9.078125 0 
L 9.078125 54.6875 
L 18.109375 54.6875 
L 18.109375 46.1875 
Q 21.1875 51.21875 25.484375 53.609375 
Q 29.78125 56 35.6875 56 
Q 41.65625 56 45.828125 52.96875 
Q 50 49.953125 52 44.1875 
" id="BitstreamVeraSans-Roman-6d"/>
      <path d="M 9.078125 75.984375 
L 18.109375 75.984375 
L 18.109375 31.109375 
L 44.921875 54.6875 
L 56.390625 54.6875 
L 27.390625 29.109375 
L 57.625 0 
L 45.90625 0 
L 18.109375 26.703125 
L 18.109375 0 
L 9.078125 0 
z
" id="BitstreamVeraSans-Roman-6b"/>
      <path d="M 19.671875 64.796875 
L 19.671875 37.40625 
L 32.078125 37.40625 
Q 38.96875 37.40625 42.71875 40.96875 
Q 46.484375 44.53125 46.484375 51.125 
Q 46.484375 57.671875 42.71875 61.234375 
Q 38.96875 64.796875 32.078125 64.796875 
z
M 9.8125 72.90625 
L 32.078125 72.90625 
Q 44.34375 72.90625 50.609375 67.359375 
Q 56.890625 61.8125 56.890625 51.125 
Q 56.890625 40.328125 50.609375 34.8125 
Q 44.34375 29.296875 32.078125 29.296875 
L 19.671875 29.296875 
L 19.671875 0 
L 9.8125 0 
z
" id="BitstreamVeraSans-Roman-50"/>
      <path d="M -0.296875 72.90625 
L 61.375 72.90625 
L 61.375 64.59375 
L 35.5 64.59375 
L 35.5 0 
L 25.59375 0 
L 25.59375 64.59375 
L -0.296875 64.59375 
z
" id="BitstreamVeraSans-Roman-54"/>
      <path d="M 45.40625 46.390625 
L 45.40625 75.984375 
L 54.390625 75.984375 
L 54.390625 0 
L 45.40625 0 
L 45.40625 8.203125 
Q 42.578125 3.328125 38.25 0.953125 
Q 33.9375 -1.421875 27.875 -1.421875 
Q 17.96875 -1.421875 11.734375 6.484375 
Q 5.515625 14.40625 5.515625 27.296875 
Q 5.515625 40.1875 11.734375 48.09375 
Q 17.96875 56 27.875 56 
Q 33.9375 56 38.25 53.625 
Q 42.578125 51.265625 45.40625 46.390625 
M 14.796875 27.296875 
Q 14.796875 17.390625 18.875 11.75 
Q 22.953125 6.109375 30.078125 6.109375 
Q 37.203125 6.109375 41.296875 11.75 
Q 45.40625 17.390625 45.40625 27.296875 
Q 45.40625 37.203125 41.296875 42.84375 
Q 37.203125 48.484375 30.078125 48.484375 
Q 22.953125 48.484375 18.875 42.84375 
Q 14.796875 37.203125 14.796875 27.296875 
" id="BitstreamVeraSans-Roman-64"/>
      <path d="M 37.109375 75.984375 
L 37.109375 68.5 
L 28.515625 68.5 
Q 23.6875 68.5 21.796875 66.546875 
Q 19.921875 64.59375 19.921875 59.515625 
L 19.921875 54.6875 
L 34.71875 54.6875 
L 34.71875 47.703125 
L 19.921875 47.703125 
L 19.921875 0 
L 10.890625 0 
L 10.890625 47.703125 
L 2.296875 47.703125 
L 2.296875 54.6875 
L 10.890625 54.6875 
L 10.890625 58.5 
Q 10.890625 67.625 15.140625 71.796875 
Q 19.390625 75.984375 28.609375 75.984375 
z
" id="BitstreamVeraSans-Roman-66"/>
      <path d="M 41.109375 46.296875 
Q 39.59375 47.171875 37.8125 47.578125 
Q 36.03125 48 33.890625 48 
Q 26.265625 48 22.1875 43.046875 
Q 18.109375 38.09375 18.109375 28.8125 
L 18.109375 0 
L 9.078125 0 
L 9.078125 54.6875 
L 18.109375 54.6875 
L 18.109375 46.1875 
Q 20.953125 51.171875 25.484375 53.578125 
Q 30.03125 56 36.53125 56 
Q 37.453125 56 38.578125 55.875 
Q 39.703125 55.765625 41.0625 55.515625 
z
" id="BitstreamVeraSans-Roman-72"/>
      <path d="M 44.28125 53.078125 
L 44.28125 44.578125 
Q 40.484375 46.53125 36.375 47.5 
Q 32.28125 48.484375 27.875 48.484375 
Q 21.1875 48.484375 17.84375 46.4375 
Q 14.5 44.390625 14.5 40.28125 
Q 14.5 37.15625 16.890625 35.375 
Q 19.28125 33.59375 26.515625 31.984375 
L 29.59375 31.296875 
Q 39.15625 29.25 43.1875 25.515625 
Q 47.21875 21.78125 47.21875 15.09375 
Q 47.21875 7.46875 41.1875 3.015625 
Q 35.15625 -1.421875 24.609375 -1.421875 
Q 20.21875 -1.421875 15.453125 -0.5625 
Q 10.6875 0.296875 5.421875 2 
L 5.421875 11.28125 
Q 10.40625 8.6875 15.234375 7.390625 
Q 20.0625 6.109375 24.8125 6.109375 
Q 31.15625 6.109375 34.5625 8.28125 
Q 37.984375 10.453125 37.984375 14.40625 
Q 37.984375 18.0625 35.515625 20.015625 
Q 33.0625 21.96875 24.703125 23.78125 
L 21.578125 24.515625 
Q 13.234375 26.265625 9.515625 29.90625 
Q 5.8125 33.546875 5.8125 39.890625 
Q 5.8125 47.609375 11.28125 51.796875 
Q 16.75 56 26.8125 56 
Q 31.78125 56 36.171875 55.265625 
Q 40.578125 54.546875 44.28125 53.078125 
" id="BitstreamVeraSans-Roman-73"/>
      <path d="M 48.78125 52.59375 
L 48.78125 44.1875 
Q 44.96875 46.296875 41.140625 47.34375 
Q 37.3125 48.390625 33.40625 48.390625 
Q 24.65625 48.390625 19.8125 42.84375 
Q 14.984375 37.3125 14.984375 27.296875 
Q 14.984375 17.28125 19.8125 11.734375 
Q 24.65625 6.203125 33.40625 6.203125 
Q 37.3125 6.203125 41.140625 7.25 
Q 44.96875 8.296875 48.78125 10.40625 
L 48.78125 2.09375 
Q 45.015625 0.34375 40.984375 -0.53125 
Q 36.96875 -1.421875 32.421875 -1.421875 
Q 20.0625 -1.421875 12.78125 6.34375 
Q 5.515625 14.109375 5.515625 27.296875 
Q 5.515625 40.671875 12.859375 48.328125 
Q 20.21875 56 33.015625 56 
Q 37.15625 56 41.109375 55.140625 
Q 45.0625 54.296875 48.78125 52.59375 
" id="BitstreamVeraSans-Roman-63"/>
     </defs>
     <g transform="translate(16.318125 214.6265625)rotate(-90.0)scale(0.12 -0.12)">
      <use xlink:href="#BitstreamVeraSans-Roman-4e"/>
      <use x="74.8046875" xlink:href="#BitstreamVeraSans-Roman-75"/>
      <use x="138.18359375" xlink:href="#BitstreamVeraSans-Roman-6d"/>
      <use x="235.595703125" xlink:href="#BitstreamVeraSans-Roman-62"/>
      <use x="299.072265625" xlink:href="#BitstreamVeraSans-Roman-65"/>
      <use x="360.595703125" xlink:href="#BitstreamVeraSans-Roman-72"/>
      <use x="401.708984375" xlink:href="#BitstreamVeraSans-Roman-20"/>
      <use x="433.49609375" xlink:href="#BitstreamVeraSans-Roman-6f"/>
      <use x="494.677734375" xlink:href="#BitstreamVeraSans-Roman-66"/>
      <use x="529.8828125" xlink:href="#BitstreamVeraSans-Roman-20"/>
      <use x="561.669921875" xlink:href="#BitstreamVeraSans-Roman-54"/>
      <use x="622.50390625" xlink:href="#BitstreamVeraSans-Roman-61"/>
      <use x="683.783203125" xlink:href="#BitstreamVeraSans-Roman-67"/>
      <use x="747.259765625" xlink:href="#BitstreamVeraSans-Roman-67"/>
      <use x="810.736328125" xlink:href="#BitstreamVeraSans-Roman-65"/>
      <use x="872.259765625" xlink:href="#BitstreamVeraSans-Roman-64"/>
      <use x="935.736328125" xlink:href="#BitstreamVeraSans-Roman-20"/>
      <use x="967.5234375" xlink:href="#BitstreamVeraSans-Roman-50"/>
      <use x="1027.76367188" xlink:href="#BitstreamVeraSans-Roman-61"/>
      <use x="1089.04296875" xlink:href="#BitstreamVeraSans-Roman-63"/>
      <use x="1144.0234375" xlink:href="#BitstreamVeraSans-Roman-6b"/>
      <use x="1201.91796875" xlink:href="#BitstreamVeraSans-Roman-61"/>
      <use x="1263.19726562" xlink:href="#BitstreamVeraSans-Roman-67"/>
      <use x="1326.67382812" xlink:href="#BitstreamVeraSans-Roman-65"/>
      <use x="1388.19726562" xlink:href="#BitstreamVeraSans-Roman-73"/>
     </g>
    </g>
   </g>
   <g id="text_20">
    <g id="patch_7">
     <path d="M 143.008664 234.384411 
L 180.955979 234.384411 
L 180.955979 218.112797 
L 143.008664 218.112797 
z
" style="fill:#ffffff;stroke:#ffffff;stroke-linejoin:miter;"/>
    </g>
    <!-- v0.3.0 -->
    <defs>
     <path d="M 10.6875 12.40625 
L 21 12.40625 
L 21 0 
L 10.6875 0 
z
" id="BitstreamVeraSans-Roman-2e"/>
    </defs>
    <g transform="translate(146.307343929 229.006875)scale(0.09996 -0.09996)">
     <use xlink:href="#BitstreamVeraSans-Roman-76"/>
     <use x="59.1796875" xlink:href="#BitstreamVeraSans-Roman-30"/>
     <use x="122.802734375" xlink:href="#BitstreamVeraSans-Roman-2e"/>
     <use x="154.58984375" xlink:href="#BitstreamVeraSans-Roman-33"/>
     <use x="218.212890625" xlink:href="#BitstreamVeraSans-Roman-2e"/>
     <use x="250.0" xlink:href="#BitstreamVeraSans-Roman-30"/>
    </g>
   </g>
   <g id="text_21">
    <g id="patch_8">
     <path d="M 166.198274 219.984411 
L 204.145589 219.984411 
L 204.145589 203.712797 
L 166.198274 203.712797 
z
" style="fill:#ffffff;stroke:#ffffff;stroke-linejoin:miter;"/>
    </g>
    <!-- v0.3.1 -->
    <g transform="translate(169.496954318 214.606875)scale(0.09996 -0.09996)">
     <use xlink:href="#BitstreamVeraSans-Roman-76"/>
     <use x="59.1796875" xlink:href="#BitstreamVeraSans-Roman-30"/>
     <use x="122.802734375" xlink:href="#BitstreamVeraSans-Roman-2e"/>
     <use x="154.58984375" xlink:href="#BitstreamVeraSans-Roman-33"/>
     <use x="218.212890625" xlink:href="#BitstreamVeraSans-Roman-2e"/>
     <use x="250.0" xlink:href="#BitstreamVeraSans-Roman-31"/>
    </g>
   </g>
   <g id="text_22">
    <g id="patch_9">
     <path d="M 187.938534 234.384411 
L 225.885849 234.384411 
L 225.885849 218.112797 
L 187.938534 218.112797 
z
" style="fill:#ffffff;stroke:#ffffff;stroke-linejoin:miter;"/>
    </g>
    <!-- v0.3.2 -->
    <g transform="translate(191.237214058 229.006875)scale(0.09996 -0.09996)">
     <use xlink:href="#BitstreamVeraSans-Roman-76"/>
     <use x="59.1796875" xlink:href="#BitstreamVeraSans-Roman-30"/>
     <use x="122.802734375" xlink:href="#BitstreamVeraSans-Roman-2e"/>
     <use x="154.58984375" xlink:href="#BitstreamVeraSans-Roman-33"/>
     <use x="218.212890625" xlink:href="#BitstreamVeraSans-Roman-2e"/>
     <use x="250.0" xlink:href="#BitstreamVeraSans-Roman-32"/>
    </g>
   </g>
   <g id="text_23">
    <g id="patch_10">
     <path d="M 211.85282 219.984411 
L 249.800135 219.984411 
L 249.800135 203.712797 
L 211.85282 203.712797 
z
" style="fill:#ffffff;stroke:#ffffff;stroke-linejoin:miter;"/>
    </g>
    <!-- v0.3.3 -->
    <g transform="translate(215.151499773 214.606875)scale(0.09996 -0.09996)">
     <use xlink:href="#BitstreamVeraSans-Roman-76"/>
     <use x="59.1796875" xlink:href="#BitstreamVeraSans-Roman-30"/>
     <use x="122.802734375" xlink:href="#BitstreamVeraSans-Roman-2e"/>
     <use x="154.58984375" xlink:href="#BitstreamVeraSans-Roman-33"/>
     <use x="218.212890625" xlink:href="#BitstreamVeraSans-Roman-2e"/>
     <use x="250.0" xlink:href="#BitstreamVeraSans-Roman-33"/>
    </g>
   </g>
   <g id="text_24">
    <g id="patch_11">
     <path d="M 235.767105 234.384411 
L 273.71442 234.384411 
L 273.71442 218.112797 
L 235.767105 218.112797 
z
" style="fill:#ffffff;stroke:#ffffff;stroke-linejoin:miter;"/>
    </g>
    <!-- v0.3.4 -->
    <g transform="translate(239.065785487 229.006875)scale(0.09996 -0.09996)">
     <use xlink:href="#BitstreamVeraSans-Roman-76"/>
     <use x="59.1796875" xlink:href="#BitstreamVeraSans-Roman-30"/>
     <use x="122.802734375" xlink:href="#BitstreamVeraSans-Roman-2e"/>
     <use x="154.58984375" xlink:href="#BitstreamVeraSans-Roman-33"/>
     <use x="218.212890625" xlink:href="#BitstreamVeraSans-Roman-2e"/>
     <use x="250.0" xlink:href="#BitstreamVeraSans-Roman-34"/>
    </g>
   </g>
   <g id="text_25">
    <g id="patch_12">
     <path d="M 245.187885 219.984411 
L 283.1352 219.984411 
L 283.1352 203.712797 
L 245.187885 203.712797 
z
" style="fill:#ffffff;stroke:#ffffff;stroke-linejoin:miter;"/>
    </g>
    <!-- v0.3.5 -->
    <g transform="translate(248.486564708 214.606875)scale(0.09996 -0.09996)">
     <use xlink:href="#BitstreamVeraSans-Roman-76"/>
     <use x="59.1796875" xlink:href="#BitstreamVeraSans-Roman-30"/>
     <use x="122.802734375" xlink:href="#BitstreamVeraSans-Roman-2e"/>
     <use x="154.58984375" xlink:href="#BitstreamVeraSans-Roman-33"/>
     <use x="218.212890625" xlink:href="#BitstreamVeraSans-Roman-2e"/>
     <use x="250.0" xlink:href="#BitstreamVeraSans-Roman-35"/>
    </g>
   </g>
   <g id="text_26">
    <g id="patch_13">
     <path d="M 274.174898 234.384411 
L 312.122213 234.384411 
L 312.122213 218.112797 
L 274.174898 218.112797 
z
" style="fill:#ffffff;stroke:#ffffff;stroke-linejoin:miter;"/>
    </g>
    <!-- v0.3.6 -->
    <g transform="translate(277.473577695 229.006875)scale(0.09996 -0.09996)">
     <use xlink:href="#BitstreamVeraSans-Roman-76"/>
     <use x="59.1796875" xlink:href="#BitstreamVeraSans-Roman-30"/>
     <use x="122.802734375" xlink:href="#BitstreamVeraSans-Roman-2e"/>
     <use x="154.58984375" xlink:href="#BitstreamVeraSans-Roman-33"/>
     <use x="218.212890625" xlink:href="#BitstreamVeraSans-Roman-2e"/>
     <use x="250.0" xlink:href="#BitstreamVeraSans-Roman-36"/>
    </g>
   </g>
   <g id="text_27">
    <g id="patch_14">
     <path d="M 298.813859 219.984411 
L 336.761174 219.984411 
L 336.761174 203.712797 
L 298.813859 203.712797 
z
" style="fill:#ffffff;stroke:#ffffff;stroke-linejoin:miter;"/>
    </g>
    <!-- v0.3.7 -->
    <g transform="translate(302.112538734 214.606875)scale(0.09996 -0.09996)">
     <use xlink:href="#BitstreamVeraSans-Roman-76"/>
     <use x="59.1796875" xlink:href="#BitstreamVeraSans-Roman-30"/>
     <use x="122.802734375" xlink:href="#BitstreamVeraSans-Roman-2e"/>
     <use x="154.58984375" xlink:href="#BitstreamVeraSans-Roman-33"/>
     <use x="218.212890625" xlink:href="#BitstreamVeraSans-Roman-2e"/>
     <use x="250.0" xlink:href="#BitstreamVeraSans-Roman-37"/>
    </g>
   </g>
   <g id="text_28">
    <g id="patch_15">
     <path d="M 326.351521 234.384411 
L 364.298836 234.384411 
L 364.298836 218.112797 
L 326.351521 218.112797 
z
" style="fill:#ffffff;stroke:#ffffff;stroke-linejoin:miter;"/>
    </g>
    <!-- v0.3.8 -->
    <g transform="translate(329.650201071 229.006875)scale(0.09996 -0.09996)">
     <use xlink:href="#BitstreamVeraSans-Roman-76"/>
     <use x="59.1796875" xlink:href="#BitstreamVeraSans-Roman-30"/>
     <use x="122.802734375" xlink:href="#BitstreamVeraSans-Roman-2e"/>
     <use x="154.58984375" xlink:href="#BitstreamVeraSans-Roman-33"/>
     <use x="218.212890625" xlink:href="#BitstreamVeraSans-Roman-2e"/>
     <use x="250.0" xlink:href="#BitstreamVeraSans-Roman-38"/>
    </g>
   </g>
   <g id="text_29">
    <g id="patch_16">
     <path d="M 348.091781 219.984411 
L 386.039096 219.984411 
L 386.039096 203.712797 
L 348.091781 203.712797 
z
" style="fill:#ffffff;stroke:#ffffff;stroke-linejoin:miter;"/>
    </g>
    <!-- v0.3.9 -->
    <g transform="translate(351.390460812 214.606875)scale(0.09996 -0.09996)">
     <use xlink:href="#BitstreamVeraSans-Roman-76"/>
     <use x="59.1796875" xlink:href="#BitstreamVeraSans-Roman-30"/>
     <use x="122.802734375" xlink:href="#BitstreamVeraSans-Roman-2e"/>
     <use x="154.58984375" xlink:href="#BitstreamVeraSans-Roman-33"/>
     <use x="218.212890625" xlink:href="#BitstreamVeraSans-Roman-2e"/>
     <use x="250.0" xlink:href="#BitstreamVeraSans-Roman-39"/>
    </g>
   </g>
   <g id="text_30">
    <g id="patch_17">
     <path d="M 363.028686 234.384411 
L 407.335956 234.384411 
L 407.335956 218.112797 
L 363.028686 218.112797 
z
" style="fill:#ffffff;stroke:#ffffff;stroke-linejoin:miter;"/>
    </g>
    <!-- v0.3.10 -->
    <g transform="translate(366.327366429 229.006875)scale(0.09996 -0.09996)">
     <use xlink:href="#BitstreamVeraSans-Roman-76"/>
     <use x="59.1796875" xlink:href="#BitstreamVeraSans-Roman-30"/>
     <use x="122.802734375" xlink:href="#BitstreamVeraSans-Roman-2e"/>
     <use x="154.58984375" xlink:href="#BitstreamVeraSans-Roman-33"/>
     <use x="218.212890625" xlink:href="#BitstreamVeraSans-Roman-2e"/>
     <use x="250.0" xlink:href="#BitstreamVeraSans-Roman-31"/>
     <use x="313.623046875" xlink:href="#BitstreamVeraSans-Roman-30"/>
    </g>
   </g>
   <g id="text_31">
    <g id="patch_18">
     <path d="M 386.942972 219.984411 
L 431.250242 219.984411 
L 431.250242 203.712797 
L 386.942972 203.712797 
z
" style="fill:#ffffff;stroke:#ffffff;stroke-linejoin:miter;"/>
    </g>
    <!-- v0.3.11 -->
    <g transform="translate(390.241652143 214.606875)scale(0.09996 -0.09996)">
     <use xlink:href="#BitstreamVeraSans-Roman-76"/>
     <use x="59.1796875" xlink:href="#BitstreamVeraSans-Roman-30"/>
     <use x="122.802734375" xlink:href="#BitstreamVeraSans-Roman-2e"/>
     <use x="154.58984375" xlink:href="#BitstreamVeraSans-Roman-33"/>
     <use x="218.212890625" xlink:href="#BitstreamVeraSans-Roman-2e"/>
     <use x="250.0" xlink:href="#BitstreamVeraSans-Roman-31"/>
     <use x="313.623046875" xlink:href="#BitstreamVeraSans-Roman-31"/>
    </g>
   </g>
   <g id="text_32">
    <g id="patch_19">
     <path d="M 452.888427 234.384411 
L 497.195697 234.384411 
L 497.195697 218.112797 
L 452.888427 218.112797 
z
" style="fill:#ffffff;stroke:#ffffff;stroke-linejoin:miter;"/>
    </g>
    <!-- v0.3.12 -->
    <g transform="translate(456.187106688 229.006875)scale(0.09996 -0.09996)">
     <use xlink:href="#BitstreamVeraSans-Roman-76"/>
     <use x="59.1796875" xlink:href="#BitstreamVeraSans-Roman-30"/>
     <use x="122.802734375" xlink:href="#BitstreamVeraSans-Roman-2e"/>
     <use x="154.58984375" xlink:href="#BitstreamVeraSans-Roman-33"/>
     <use x="218.212890625" xlink:href="#BitstreamVeraSans-Roman-2e"/>
     <use x="250.0" xlink:href="#BitstreamVeraSans-Roman-31"/>
     <use x="313.623046875" xlink:href="#BitstreamVeraSans-Roman-32"/>
    </g>
   </g>
   <g id="text_33">
    <g id="patch_20">
     <path d="M 443.024248 191.184411 
L 480.971563 191.184411 
L 480.971563 174.912797 
L 443.024248 174.912797 
z
" style="fill:#ffffff;stroke:#ffffff;stroke-linejoin:miter;"/>
    </g>
    <!-- v0.4.0 -->
    <g transform="translate(446.322928344 185.806875)scale(0.09996 -0.09996)">
     <use xlink:href="#BitstreamVeraSans-Roman-76"/>
     <use x="59.1796875" xlink:href="#BitstreamVeraSans-Roman-30"/>
     <use x="122.802734375" xlink:href="#BitstreamVeraSans-Roman-2e"/>
     <use x="154.58984375" xlink:href="#BitstreamVeraSans-Roman-34"/>
     <use x="218.212890625" xlink:href="#BitstreamVeraSans-Roman-2e"/>
     <use x="250.0" xlink:href="#BitstreamVeraSans-Roman-30"/>
    </g>
   </g>
   <g id="text_34">
    <g id="patch_21">
     <path d="M 465.489183 176.784411 
L 503.436498 176.784411 
L 503.436498 160.512797 
L 465.489183 160.512797 
z
" style="fill:#ffffff;stroke:#ffffff;stroke-linejoin:miter;"/>
    </g>
    <!-- v0.4.1 -->
    <g transform="translate(468.787863409 171.406875)scale(0.09996 -0.09996)">
     <use xlink:href="#BitstreamVeraSans-Roman-76"/>
     <use x="59.1796875" xlink:href="#BitstreamVeraSans-Roman-30"/>
     <use x="122.802734375" xlink:href="#BitstreamVeraSans-Roman-2e"/>
     <use x="154.58984375" xlink:href="#BitstreamVeraSans-Roman-34"/>
     <use x="218.212890625" xlink:href="#BitstreamVeraSans-Roman-2e"/>
     <use x="250.0" xlink:href="#BitstreamVeraSans-Roman-31"/>
    </g>
   </g>
   <g id="text_35">
    <g id="patch_22">
     <path d="M 485.780093 191.184411 
L 523.727408 191.184411 
L 523.727408 174.912797 
L 485.780093 174.912797 
z
" style="fill:#ffffff;stroke:#ffffff;stroke-linejoin:miter;"/>
    </g>
    <!-- v0.4.2 -->
    <g transform="translate(489.0787725 185.806875)scale(0.09996 -0.09996)">
     <use xlink:href="#BitstreamVeraSans-Roman-76"/>
     <use x="59.1796875" xlink:href="#BitstreamVeraSans-Roman-30"/>
     <use x="122.802734375" xlink:href="#BitstreamVeraSans-Roman-2e"/>
     <use x="154.58984375" xlink:href="#BitstreamVeraSans-Roman-34"/>
     <use x="218.212890625" xlink:href="#BitstreamVeraSans-Roman-2e"/>
     <use x="250.0" xlink:href="#BitstreamVeraSans-Roman-32"/>
    </g>
   </g>
   <g id="text_36">
    <g id="patch_23">
     <path d="M 512.59308 176.784411 
L 550.540395 176.784411 
L 550.540395 160.512797 
L 512.59308 160.512797 
z
" style="fill:#ffffff;stroke:#ffffff;stroke-linejoin:miter;"/>
    </g>
    <!-- v0.4.3 -->
    <g transform="translate(515.891759513 171.406875)scale(0.09996 -0.09996)">
     <use xlink:href="#BitstreamVeraSans-Roman-76"/>
     <use x="59.1796875" xlink:href="#BitstreamVeraSans-Roman-30"/>
     <use x="122.802734375" xlink:href="#BitstreamVeraSans-Roman-2e"/>
     <use x="154.58984375" xlink:href="#BitstreamVeraSans-Roman-34"/>
     <use x="218.212890625" xlink:href="#BitstreamVeraSans-Roman-2e"/>
     <use x="250.0" xlink:href="#BitstreamVeraSans-Roman-33"/>
    </g>
   </g>
   <g id="legend_1">
    <g id="patch_24">
     <path d="M 63.35175 79.69269 
L 115.234114 79.69269 
L 115.234114 18.004875 
L 63.35175 18.004875 
z
" style="fill:#ffffff;stroke:#000000;stroke-linejoin:miter;"/>
    </g>
    <g id="line2d_58">
     <path d="M 70.34895 26.100073 
L 84.34335 26.100073 
" style="fill:none;stroke:#ff0000;stroke-linecap:square;stroke-width:2.0;"/>
    </g>
    <g id="line2d_59"/>
    <g id="text_37">
     <!-- 0.2 -->
     <g transform="translate(95.33895 29.598673125)scale(0.09996 -0.09996)">
      <use xlink:href="#BitstreamVeraSans-Roman-30"/>
      <use x="63.623046875" xlink:href="#BitstreamVeraSans-Roman-2e"/>
      <use x="95.41015625" xlink:href="#BitstreamVeraSans-Roman-32"/>
     </g>
    </g>
    <g id="line2d_60">
     <path d="M 70.34895 40.772327 
L 84.34335 40.772327 
" style="fill:none;stroke:#008000;stroke-linecap:square;stroke-width:2.0;"/>
    </g>
    <g id="line2d_61"/>
    <g id="text_38">
     <!-- 0.3 -->
     <g transform="translate(95.33895 44.270926875)scale(0.09996 -0.09996)">
      <use xlink:href="#BitstreamVeraSans-Roman-30"/>
      <use x="63.623046875" xlink:href="#BitstreamVeraSans-Roman-2e"/>
      <use x="95.41015625" xlink:href="#BitstreamVeraSans-Roman-33"/>
     </g>
    </g>
    <g id="line2d_62">
     <path d="M 70.34895 55.444581 
L 84.34335 55.444581 
" style="fill:none;stroke:#0000ff;stroke-linecap:square;stroke-width:2.0;"/>
    </g>
    <g id="line2d_63"/>
    <g id="text_39">
     <!-- 0.4 -->
     <g transform="translate(95.33895 58.943180625)scale(0.09996 -0.09996)">
      <use xlink:href="#BitstreamVeraSans-Roman-30"/>
      <use x="63.623046875" xlink:href="#BitstreamVeraSans-Roman-2e"/>
      <use x="95.41015625" xlink:href="#BitstreamVeraSans-Roman-34"/>
     </g>
    </g>
    <g id="line2d_64">
     <path d="M 70.34895 70.116834 
L 84.34335 70.116834 
" style="fill:none;stroke:#000000;stroke-linecap:square;stroke-width:2.0;"/>
    </g>
    <g id="line2d_65"/>
    <g id="text_40">
     <!-- 0.5 -->
     <g transform="translate(95.33895 73.615434375)scale(0.09996 -0.09996)">
      <use xlink:href="#BitstreamVeraSans-Roman-30"/>
      <use x="63.623046875" xlink:href="#BitstreamVeraSans-Roman-2e"/>
      <use x="95.41015625" xlink:href="#BitstreamVeraSans-Roman-35"/>
     </g>
    </g>
   </g>
  </g>
 </g>
 <defs>
  <clipPath id="p01919f224a">
   <rect height="230.4" width="558.0" x="58.35375" y="13.006875"/>
  </clipPath>
 </defs>
</svg>
