<?xml version="1.0" encoding="utf-8" standalone="no"?>
<!DOCTYPE svg PUBLIC "-//W3C//DTD SVG 1.1//EN"
  "http://www.w3.org/Graphics/SVG/1.1/DTD/svg11.dtd">
<!-- Created with matplotlib (http://matplotlib.org/) -->
<svg height="309pt" version="1.1" viewBox="0 0 621 309" width="621pt" xmlns="http://www.w3.org/2000/svg" xmlns:xlink="http://www.w3.org/1999/xlink">
 <defs>
  <style type="text/css">
*{stroke-linecap:butt;stroke-linejoin:round;}
  </style>
 </defs>
 <g id="figure_1">
  <g id="patch_1">
   <path d="
M0 309.449
L621.439 309.449
L621.439 0
L0 0
z
" style="fill:#ffffff;"/>
  </g>
  <g id="axes_1">
   <g id="patch_2">
    <path d="
M56.2388 243.407
L614.239 243.407
L614.239 13.0069
L56.2388 13.0069
z
" style="fill:#ffffff;"/>
   </g>
   <g id="line2d_1">
    <path clip-path="url(#p472e73a826)" d="
M121.914 217.487
L121.428 217.487
L120.941 217.871
L120.455 217.871
L119.968 218.063
L119.482 218.447
L118.996 218.447
L118.023 218.063
L117.536 218.063
L117.05 218.639
L116.563 218.639
L115.59 218.639
L115.104 218.639
L114.131 218.831
L113.644 218.831
L113.158 218.831
L112.671 219.023
L112.185 219.023
L111.698 219.023
L111.212 219.215
L110.725 219.215
L109.266 219.215
L108.779 219.215
L108.293 219.215
L107.806 219.215
L106.833 219.599
L105.86 219.983
L105.374 219.983
L104.887 220.175
L104.401 220.367
L103.428 220.751
L102.941 220.751
L102.455 220.751
L101.968 220.943
L101.482 221.135
L100.996 221.519
L100.023 221.711
L99.536 221.711
L99.0496 222.287
L98.5631 222.287
L98.0766 222.287
L97.5901 222.287
L97.1036 222.287
L96.6171 222.671
L95.6442 222.671
L95.1577 222.863
L94.6712 222.863
L94.1847 222.863
L93.6982 222.863
L93.2117 222.863
L92.7252 223.247
L92.2387 223.439
L91.7523 223.631
L91.2658 223.631
L88.3469 224.591
L87.8604 224.591
L87.3739 224.783
L86.8874 224.783
L86.4009 224.975
L85.9144 224.975
L85.4279 224.975
L84.9415 224.975
L84.455 224.975
L83.9685 224.975
L83.482 224.975
L82.9955 224.975
L82.509 225.935
L82.0225 224.399
L81.536 224.591
L81.0496 224.591
L80.5631 224.591
L79.5901 224.783
L79.1036 224.783
L78.6171 225.359
L78.1306 225.359
L77.6442 225.359
L77.1577 225.359
L76.6712 225.359
L76.1847 225.359
L75.6982 225.359
L75.2117 225.359
L74.7252 225.359
L74.2387 225.551
L70.8333 225.743
L69.8604 225.743
L68.4009 225.743
L64.9955 226.127
L64.509 226.319
L63.536 226.511
L63.0496 226.511
L62.0766 226.703
L61.1036 226.895
L60.6171 226.895
L59.6442 226.895
L59.1577 226.895
L58.6712 226.895
L58.1847 226.895
L57.6982 226.895
L57.2117 226.895
L56.7252 227.087
L56.2387 227.087" style="fill:none;stroke:#ff0000;stroke-linecap:square;stroke-width:2;"/>
   </g>
   <g id="line2d_2">
    <path clip-path="url(#p472e73a826)" d="
M497.482 148.367
L484.347 148.367
L483.86 148.559
L482.401 148.367
L477.05 148.367
L476.563 148.559
L476.077 148.367
L475.59 148.367
L475.104 148.559
L474.617 148.367
L473.158 148.367
L472.671 148.559
L470.239 148.559
L469.752 148.367
L463.914 148.367
L463.428 148.559
L462.941 148.367
L459.536 148.367
L459.05 148.559
L458.563 148.367
L458.077 148.559
L457.59 148.367
L451.752 148.367
L451.266 148.559
L450.293 148.559
L449.806 148.751
L448.833 148.559
L448.347 148.751
L447.86 148.559
L446.401 148.559
L445.914 148.751
L445.428 148.559
L442.509 148.559
L442.023 148.751
L441.536 148.559
L439.104 148.559
L438.617 148.751
L405.536 149.519
L397.752 149.903
L386.563 149.903
L383.644 150.287
L381.698 150.287
L371.482 150.479
L360.779 150.479
L354.455 151.055
L350.563 151.439
L346.185 151.439
L345.212 151.823
L343.266 151.439
L331.59 151.823
L330.131 152.207
L328.185 152.591
L326.239 152.783
L323.806 153.551
L321.86 154.511
L314.077 156.431
L311.644 156.815
L309.212 157.007
L307.752 157.391
L299.482 160.079
L291.212 161.999
L282.941 164.687
L282.455 164.687
L281.968 164.879
L281.482 165.263
L280.996 166.031
L280.509 166.415
L279.536 166.223
L278.563 166.607
L277.104 166.607
L276.617 166.799
L275.644 166.799
L275.158 167.183
L274.671 167.183
L274.185 167.567
L273.698 167.567
L272.239 167.375
L266.887 168.527
L265.914 168.527
L262.509 169.871
L261.536 169.871
L257.644 170.639
L257.158 171.023
L255.212 171.407
L251.32 172.751
L250.833 172.943
L250.347 173.519
L249.374 173.903
L248.401 173.903
L247.914 174.095
L245.968 174.479
L245.482 175.055
L244.996 175.247
L244.509 175.247
L243.536 176.207
L242.077 176.783
L240.131 176.783
L239.158 177.359
L238.185 177.359
L235.266 177.551
L234.779 178.127
L233.806 178.127
L227.968 178.319
L227.482 178.703
L226.996 178.511
L226.509 178.895
L226.023 178.895
L225.536 179.087
L225.05 179.471
L223.104 179.855
L220.671 179.855
L220.185 180.239
L219.212 180.239
L216.779 181.007
L214.347 182.159
L211.914 182.159
L210.455 182.543
L209.968 182.543
L208.023 183.695
L207.536 183.695
L207.05 183.311
L205.104 184.847
L204.617 185.039
L204.131 185.423
L203.158 185.999
L202.185 185.999
L201.698 186.191
L201.212 186.767
L200.725 186.767
L200.239 187.151
L198.293 187.151
L197.806 188.111
L197.32 188.111
L196.833 188.495
L194.887 189.839
L191.482 190.991
L189.05 192.335
L185.644 193.103
L184.671 193.487
L182.725 193.487
L182.239 193.679
L180.779 194.447
L178.833 195.023
L178.347 195.407
L177.374 195.407
L176.401 195.791
L175.428 195.791
L172.509 195.983
L170.563 196.943
L170.077 196.943
L169.59 197.519
L169.104 197.519
L168.617 197.711
L168.131 197.711
L167.644 198.095
L165.212 199.055
L163.752 199.055
L163.266 199.247
L162.779 199.247
L162.293 199.439
L161.32 199.439
L160.833 199.631
L160.347 199.631
L159.86 199.823
L159.374 200.207
L158.887 200.207
L158.401 200.399
L157.914 200.399
L157.428 200.591
L156.455 200.591
L155.968 200.975
L155.482 201.167
L154.023 201.167
L153.05 201.551
L152.563 201.551
L152.077 201.935
L151.104 201.935
L150.617 202.127
L150.131 202.511
L149.644 202.511
L148.185 202.895
L147.698 203.279
L147.212 203.279
L146.725 199.823
L146.239 203.663
L145.752 204.047
L145.266 204.047
L144.779 204.239
L143.32 204.047
L142.833 204.239
L141.86 204.239
L140.887 204.623
L138.941 204.623
L138.455 206.159
L137.482 206.159
L136.996 206.543
L136.023 206.927
L134.563 208.079
L131.644 208.079
L130.671 208.463
L130.185 209.039
L129.212 206.735
L128.239 207.119
L127.752 207.695
L126.779 207.695
L126.293 207.887
L125.806 207.887
L124.833 208.463
L123.86 208.463
L122.887 208.847
L122.401 208.847
L121.914 209.231
L119.968 209.999
L119.482 210.383
L118.996 210.383
L117.536 210.575
L117.05 211.151
L116.563 211.343
L114.131 211.343
L112.671 211.919
L111.698 211.919
L111.212 212.111
L110.725 212.111
L107.806 212.495
L106.833 213.071
L105.86 214.031
L104.887 214.031
L104.401 214.607
L103.428 214.799
L102.941 215.183
L102.455 215.183
L101.482 215.567
L100.996 215.951
L99.536 216.143
L99.0496 216.719
L97.1036 216.719
L96.6171 217.103
L95.6442 217.103
L94.6712 217.487
L94.1847 217.487
L93.6982 217.871
L93.2117 217.871
L92.7252 218.255
L87.3739 220.367
L86.8874 228.239
L86.4009 220.559
L85.9144 220.559
L85.4279 220.751
L83.482 220.751
L82.9955 220.943
L82.0225 220.943
L81.536 221.327
L80.5631 221.327
L79.5901 221.519
L79.1036 222.095
L75.2117 222.095
L74.7252 222.287
L74.2387 222.671
L69.8604 222.863
L68.4009 222.863
L64.509 223.823
L63.0496 223.823
L62.0766 224.207
L58.6712 224.783
L57.2117 224.783
L56.7252 224.975
L56.2387 224.975
L56.2387 224.975" style="fill:none;stroke:#008000;stroke-linecap:square;stroke-width:2;"/>
   </g>
   <g id="line2d_3">
    <path clip-path="url(#p472e73a826)" d="
M614.239 70.0309
L610.833 70.0309
L607.914 70.4149
L607.428 70.2229
L605.482 70.2229
L604.996 70.4149
L604.509 70.2229
L603.536 70.2229
L603.05 70.4149
L596.239 70.4149
L592.833 70.7989
L592.347 70.9909
L591.86 70.7989
L590.887 70.7989
L590.401 70.9909
L588.941 70.9909
L588.455 71.1829
L587.968 70.9909
L585.05 70.9909
L584.563 71.1829
L580.185 71.1829
L579.698 71.3749
L579.212 71.3749
L578.239 71.5669
L575.806 71.1829
L573.374 71.1829
L572.887 71.3749
L567.536 71.3749
L545.644 71.7589
L543.698 72.1429
L542.239 72.1429
L541.752 72.3349
L539.32 71.9509
L538.833 72.1429
L535.914 72.1429
L533.968 72.9109
L532.996 72.9109
L532.509 73.8709
L530.077 72.9109
L527.644 72.9109
L524.239 73.2949
L522.779 73.2949
L521.806 73.4869
L517.428 73.4869
L516.941 74.0629
L516.455 74.4469
L515.968 74.6389
L514.509 74.4469
L514.023 74.8309
L509.158 75.2149
L508.185 75.5989
L505.752 75.5989
L504.779 75.9829
L503.806 75.9829
L502.833 76.3669
L498.941 76.3669
L498.455 76.5589
L497.968 77.1349
L496.509 77.7109
L496.023 78.4789
L495.05 78.4789
L494.563 78.6709
L494.077 78.6709
L493.104 79.0549
L492.617 79.6309
L491.644 80.0149
L491.158 80.0149
L490.671 80.3989
L489.698 80.3989
L489.212 80.5909
L488.725 80.5909
L488.239 80.9749
L487.266 81.3589
L486.779 81.7429
L485.806 81.7429
L484.833 82.1269
L483.86 82.1269
L482.887 82.5109
L482.401 83.0869
L481.914 83.2789
L481.428 83.6629
L480.941 83.6629
L480.455 83.8549
L479.968 83.8549
L479.482 84.0469
L478.996 84.0469
L477.536 84.6229
L475.104 84.6229
L474.617 85.0069
L474.131 85.0069
L473.644 85.3909
L473.158 85.3909
L472.671 85.7749
L472.185 85.7749
L471.698 85.5829
L471.212 85.5829
L470.239 86.3509
L469.752 86.5429
L469.266 87.1189
L468.779 87.5029
L467.32 87.3109
L466.833 87.6949
L465.86 88.0789
L465.374 88.0789
L464.887 88.2709
L464.401 88.2709
L462.455 89.0389
L461.482 89.2309
L460.996 89.6149
L460.509 89.6149
L460.023 89.8069
L459.536 89.6149
L459.05 89.6149
L458.077 89.9989
L457.59 89.9989
L456.617 90.3829
L456.131 90.1909
L455.644 90.1909
L454.671 90.5749
L454.185 90.5749
L453.698 90.7669
L453.212 90.7669
L451.752 91.3429
L451.266 92.1109
L450.779 92.1109
L450.293 92.3029
L449.806 92.8789
L448.347 93.2629
L447.374 93.6469
L446.401 93.6469
L445.914 93.8389
L445.428 93.8389
L443.968 94.4149
L443.482 94.2229
L442.996 94.4149
L442.509 94.4149
L441.536 95.5669
L441.05 95.5669
L440.563 95.7589
L440.077 95.5669
L439.59 95.7589
L439.104 96.1429
L438.617 96.3349
L430.833 100.751
L405.536 113.231
L397.752 119.375
L386.563 123.215
L383.644 125.135
L381.698 126.863
L371.482 130.511
L360.779 133.775
L358.347 134.351
L354.455 136.079
L351.05 137.039
L350.563 137.039
L346.185 137.807
L345.212 138.575
L343.266 138.767
L337.428 140.879
L331.59 145.103
L330.131 145.679
L328.185 146.639
L326.239 141.839
L323.806 143.567
L321.86 144.719
L314.077 148.367
L311.644 149.711
L307.752 150.863
L299.482 155.663
L295.104 156.623
L291.212 157.775
L282.941 160.655
L282.455 160.655
L281.968 160.847
L281.482 161.231
L280.996 161.999
L280.509 162.383
L279.536 162.383
L278.563 162.767
L277.104 162.959
L276.617 163.151
L275.644 163.151
L275.158 163.727
L274.671 163.727
L274.185 164.111
L272.239 164.111
L266.887 165.839
L265.914 165.839
L264.941 166.223
L264.455 166.607
L263.968 166.799
L262.509 167.567
L261.536 167.567
L257.644 168.143
L257.158 168.527
L255.212 168.911
L251.32 170.255
L250.833 170.447
L250.347 171.023
L249.374 171.407
L248.401 171.407
L247.914 171.791
L245.968 172.175
L245.482 172.559
L244.996 172.751
L244.509 172.751
L243.05 174.287
L242.077 174.671
L240.131 175.055
L239.158 175.631
L238.185 175.823
L235.266 176.015
L234.779 176.591
L233.806 176.591
L227.968 177.359
L227.482 177.743
L226.996 177.551
L226.509 177.935
L225.536 177.935
L225.05 178.319
L222.131 178.511
L221.158 178.895
L220.671 178.895
L220.185 179.279
L219.212 179.279
L216.779 181.007
L214.347 181.199
L211.914 181.199
L210.455 181.583
L209.968 181.583
L208.023 182.735
L207.536 182.159
L207.05 182.159
L205.104 183.695
L204.617 183.887
L204.131 184.463
L203.158 185.039
L202.185 185.039
L201.698 185.231
L201.212 185.807
L200.725 185.807
L200.239 185.999
L198.779 186.191
L198.293 186.191
L197.806 187.343
L197.32 187.343
L196.833 187.727
L194.887 189.071
L191.482 190.415
L190.023 190.799
L189.05 191.567
L185.644 192.335
L184.671 192.719
L182.239 192.719
L181.266 193.487
L180.779 193.679
L179.32 193.871
L178.347 194.639
L177.374 194.639
L176.887 194.831
L176.401 195.215
L175.428 195.215
L172.509 195.407
L170.563 196.367
L170.077 196.367
L169.59 196.943
L169.104 196.943
L168.617 197.135
L168.131 197.135
L167.644 197.519
L165.212 198.671
L163.752 198.671
L162.779 199.055
L161.32 199.055
L160.833 199.247
L160.347 199.247
L159.86 199.439
L159.374 199.823
L158.887 199.823
L158.401 200.015
L157.914 200.015
L157.428 200.207
L156.455 200.207
L155.482 200.975
L154.023 200.975
L153.05 201.359
L152.563 201.359
L152.077 201.743
L151.104 201.743
L150.617 201.935
L150.131 202.319
L149.644 202.319
L148.185 202.703
L147.698 203.087
L146.725 203.087
L145.752 203.855
L145.266 203.855
L144.779 204.047
L143.32 203.855
L142.833 204.047
L141.86 204.047
L141.374 204.239
L140.887 204.239
L139.428 204.431
L138.941 204.431
L138.455 205.967
L137.482 205.967
L136.996 206.351
L136.023 206.735
L134.563 207.887
L131.644 207.887
L130.671 208.271
L130.185 208.847
L129.212 209.231
L128.725 209.231
L128.239 209.615
L127.752 210.191
L126.779 210.191
L126.293 210.383
L125.806 210.383
L124.833 210.959
L123.86 210.959
L122.887 211.343
L122.401 211.919
L122.401 211.919" style="fill:none;stroke:#0000ff;stroke-linecap:square;stroke-width:2;"/>
   </g>
   <g id="line2d_4">
    <path clip-path="url(#p472e73a826)" d="
M614.239 22.9909
L613.752 22.6069
L613.266 22.9909
L610.833 22.9909
L609.374 24.5269
L607.428 25.2949
L606.941 25.1029
L605.968 26.6389
L605.482 26.4469
L604.996 26.8309
L604.509 26.6389
L604.023 26.6389
L603.536 26.8309
L603.05 26.8309
L602.563 27.7909
L602.077 28.3669
L601.59 28.7509
L600.617 29.1349
L600.131 29.1349
L599.644 29.5189
L599.158 30.0949
L598.671 30.0949
L597.698 30.4789
L597.212 30.4789
L596.725 31.0549
L596.239 31.0549
L592.833 33.1669
L592.347 33.7429
L591.86 33.5509
L591.374 33.5509
L590.887 33.7429
L590.401 34.3189
L589.914 34.7029
L589.428 34.5109
L588.941 34.8949
L588.455 35.8549
L587.968 35.8549
L586.996 36.2389
L586.023 36.2389
L585.536 36.6229
L585.05 36.6229
L584.563 37.0069
L584.077 37.5829
L583.59 37.1989
L583.104 37.1989
L582.617 37.5829
L582.131 38.7349
L581.644 38.9269
L581.158 38.7349
L580.671 38.9269
L580.185 38.7349
L579.698 39.3109
L579.212 39.5029
L578.239 39.3109
L575.806 39.1189
L575.32 39.8869
L574.347 40.8469
L573.86 41.8069
L573.374 41.9989
L572.887 42.3829
L571.914 42.5749
L571.428 42.9589
L567.536 43.3429
L549.536 50.8309
L547.104 50.8309
L546.617 51.7909
L545.644 51.7909
L543.698 52.5589
L542.239 52.5589
L541.752 53.3269
L539.32 53.7109
L538.833 54.8629
L537.86 55.2469
L537.374 56.3989
L535.914 56.3989
L535.428 56.5909
L533.968 57.9349
L532.996 57.9349
L532.509 59.0869
L530.077 57.9349
L529.59 57.9349
L529.104 58.1269
L528.617 58.1269
L528.131 57.9349
L527.644 58.1269
L526.185 58.8949
L524.725 59.0869
L524.239 59.0869
L523.266 59.2789
L522.779 59.0869
L521.806 59.4709
L520.833 60.2389
L520.347 61.1989
L519.374 60.8149
L518.401 61.1989
L517.914 61.9669
L517.428 62.1589
L516.941 62.7349
L516.455 63.6949
L515.968 64.0789
L514.509 64.2709
L514.023 65.8069
L508.185 68.1109
L507.698 68.1109
L506.725 68.8789
L505.752 68.8789
L504.779 70.2229
L503.806 70.2229
L503.32 70.4149
L502.833 70.7989
L501.86 71.1829
L501.374 71.9509
L500.887 71.9509
L500.401 72.1429
L499.914 72.5269
L498.941 72.9109
L498.455 73.4869
L497.968 74.2549
L497.482 74.2549
L496.996 74.6389
L496.509 74.8309
L496.023 72.3349
L495.05 72.1429
L494.563 72.3349
L493.59 73.1029
L493.104 73.2949
L492.617 75.4069
L492.131 76.1749
L490.671 76.7509
L490.185 77.3269
L489.698 77.1349
L489.212 77.1349
L488.725 75.7909
L488.239 76.1749
L487.752 76.9429
L487.266 76.9429
L486.779 77.5189
L486.293 77.7109
L485.806 77.5189
L483.86 78.2869
L482.887 78.8629
L482.401 79.6309
L481.914 79.6309
L481.428 80.0149
L480.941 80.0149
L479.482 80.5909
L478.996 80.5909
L478.023 81.5509
L477.536 81.5509
L477.05 81.7429
L476.563 81.5509
L475.104 81.5509
L474.617 81.9349
L474.131 83.2789
L473.644 82.3189
L473.158 82.5109
L472.671 82.8949
L471.698 83.2789
L471.212 83.2789
L470.239 84.8149
L469.752 84.8149
L469.266 85.3909
L468.779 85.7749
L467.32 85.5829
L466.833 85.9669
L466.347 86.5429
L465.86 86.7349
L465.374 86.7349
L464.887 86.9269
L464.401 86.9269
L463.914 87.1189
L463.428 87.5029
L462.941 87.5029
L462.455 87.6949
L461.482 87.8869
L460.996 88.4629
L460.023 88.4629
L459.536 88.2709
L458.563 88.6549
L457.59 88.6549
L457.104 88.8469
L456.617 88.8469
L456.131 89.0389
L455.644 89.0389
L453.698 89.8069
L453.212 89.8069
L452.239 90.5749
L451.752 90.5749
L451.266 91.3429
L450.779 91.3429
L450.293 91.5349
L449.806 91.9189
L447.374 92.8789
L446.401 92.8789
L445.914 93.0709
L445.428 93.0709
L444.455 93.4549
L443.968 93.4549
L443.482 93.6469
L442.996 93.4549
L442.509 93.6469
L441.536 94.7989
L440.077 94.7989
L439.59 94.9909
L439.104 95.3749
L438.617 95.5669
L405.536 113.423
L397.752 119.375
L386.563 123.407
L383.644 125.135
L381.698 126.863
L371.482 130.703
L360.779 133.775
L358.347 134.351
L354.941 135.503
L354.455 135.887
L351.05 136.847
L350.563 136.847
L350.563 136.847" style="fill:none;stroke:#000000;stroke-linecap:square;stroke-width:2;"/>
   </g>
   <g id="line2d_5">
    <path clip-path="url(#p472e73a826)" d="
M614.239 22.4149
L613.266 22.7989
L612.779 22.7989
L612.293 22.9909
L611.806 22.9909
L610.833 23.3749
L609.374 24.7189
L607.914 25.8709
L607.428 26.0629
L606.941 26.0629
L606.455 27.0229
L605.968 27.2149
L605.482 27.5989
L604.996 27.4069
L604.023 27.7909
L603.536 27.5989
L603.05 27.7909
L602.563 28.7509
L602.077 29.1349
L601.59 29.3269
L600.617 30.0949
L600.131 29.9029
L599.644 30.6709
L599.158 30.4789
L598.671 30.6709
L597.698 31.4389
L596.725 31.4389
L596.239 32.0149
L592.833 34.1269
L592.347 34.1269
L591.86 34.7029
L590.887 34.3189
L590.401 35.0869
L589.914 35.0869
L589.428 35.2789
L588.941 35.8549
L588.455 36.6229
L587.968 36.8149
L587.482 37.5829
L586.996 37.0069
L586.023 37.0069
L585.536 37.3909
L585.05 37.3909
L584.563 37.9669
L584.077 38.1589
L583.59 38.1589
L582.617 38.5429
L582.131 40.2709
L581.644 39.6949
L580.671 40.0789
L580.185 39.3109
L579.698 39.6949
L578.239 40.2709
L576.293 39.8869
L575.806 40.0789
L575.32 40.6549
L574.347 41.4229
L573.86 42.9589
L573.374 42.9589
L572.887 43.3429
L567.536 44.3029
L549.536 51.7909
L547.104 51.7909
L546.617 52.7509
L542.239 53.5189
L541.752 54.2869
L539.32 54.2869
L538.833 55.6309
L537.86 56.0149
L537.374 57.1669
L535.914 57.1669
L535.428 57.5509
L533.968 58.5109
L533.482 58.5109
L532.996 58.7029
L532.509 59.4709
L530.077 58.7029
L529.59 58.8949
L529.104 58.7029
L527.644 58.7029
L526.185 59.6629
L524.725 59.8549
L522.779 59.8549
L521.806 60.2389
L520.833 61.0069
L520.347 61.5829
L519.374 61.5829
L518.401 61.9669
L517.914 62.5429
L517.428 62.5429
L515.968 64.8469
L514.509 64.8469
L514.023 66.5749
L509.158 68.8789
L507.698 69.0709
L506.725 69.8389
L505.752 69.8389
L504.779 71.1829
L503.32 71.1829
L502.833 71.7589
L501.86 72.1429
L501.374 72.9109
L498.941 73.8709
L497.968 75.0229
L497.968 75.0229" style="fill:none;stroke:#bfbf00;stroke-linecap:square;stroke-width:2;"/>
   </g>
   <g id="line2d_6">
    <path clip-path="url(#p472e73a826)" d="
M125.806 243.407
L125.806 13.0069" style="fill:none;stroke:#333333;stroke-linecap:square;"/>
   </g>
   <g id="line2d_7">
    <path clip-path="url(#p472e73a826)" d="
M141.374 243.407
L141.374 13.0069" style="fill:none;stroke:#cccccc;stroke-linecap:square;"/>
   </g>
   <g id="line2d_8">
    <path clip-path="url(#p472e73a826)" d="
M155.968 243.407
L155.968 13.0069" style="fill:none;stroke:#cccccc;stroke-linecap:square;"/>
   </g>
   <g id="line2d_9">
    <path clip-path="url(#p472e73a826)" d="
M172.023 243.407
L172.023 13.0069" style="fill:none;stroke:#cccccc;stroke-linecap:square;"/>
   </g>
   <g id="line2d_10">
    <path clip-path="url(#p472e73a826)" d="
M188.077 243.407
L188.077 13.0069" style="fill:none;stroke:#cccccc;stroke-linecap:square;"/>
   </g>
   <g id="line2d_11">
    <path clip-path="url(#p472e73a826)" d="
M194.401 243.407
L194.401 13.0069" style="fill:none;stroke:#cccccc;stroke-linecap:square;"/>
   </g>
   <g id="line2d_12">
    <path clip-path="url(#p472e73a826)" d="
M213.86 243.407
L213.86 13.0069" style="fill:none;stroke:#cccccc;stroke-linecap:square;"/>
   </g>
   <g id="line2d_13">
    <path clip-path="url(#p472e73a826)" d="
M230.401 243.407
L230.401 13.0069" style="fill:none;stroke:#cccccc;stroke-linecap:square;"/>
   </g>
   <g id="line2d_14">
    <path clip-path="url(#p472e73a826)" d="
M248.887 243.407
L248.887 13.0069" style="fill:none;stroke:#cccccc;stroke-linecap:square;"/>
   </g>
   <g id="line2d_15">
    <path clip-path="url(#p472e73a826)" d="
M263.482 243.407
L263.482 13.0069" style="fill:none;stroke:#cccccc;stroke-linecap:square;"/>
   </g>
   <g id="line2d_16">
    <path clip-path="url(#p472e73a826)" d="
M275.644 243.407
L275.644 13.0069" style="fill:none;stroke:#cccccc;stroke-linecap:square;"/>
   </g>
   <g id="line2d_17">
    <path clip-path="url(#p472e73a826)" d="
M291.698 243.407
L291.698 13.0069" style="fill:none;stroke:#cccccc;stroke-linecap:square;"/>
   </g>
   <g id="line2d_18">
    <path clip-path="url(#p472e73a826)" d="
M335.968 243.407
L335.968 13.0069" style="fill:none;stroke:#cccccc;stroke-linecap:square;"/>
   </g>
   <g id="line2d_19">
    <path clip-path="url(#p472e73a826)" d="
M327.212 243.407
L327.212 13.0069" style="fill:none;stroke:#333333;stroke-linecap:square;"/>
   </g>
   <g id="line2d_20">
    <path clip-path="url(#p472e73a826)" d="
M342.293 243.407
L342.293 13.0069" style="fill:none;stroke:#cccccc;stroke-linecap:square;"/>
   </g>
   <g id="line2d_21">
    <path clip-path="url(#p472e73a826)" d="
M355.914 243.407
L355.914 13.0069" style="fill:none;stroke:#cccccc;stroke-linecap:square;"/>
   </g>
   <g id="line2d_22">
    <path clip-path="url(#p472e73a826)" d="
M373.914 243.407
L373.914 13.0069" style="fill:none;stroke:#cccccc;stroke-linecap:square;"/>
   </g>
   <g id="line2d_23">
    <path clip-path="url(#p472e73a826)" d="
M405.536 243.407
L405.536 13.0069" style="fill:none;stroke:#cccccc;stroke-linecap:square;"/>
   </g>
   <g id="line2d_24">
    <path clip-path="url(#p472e73a826)" d="
M451.266 243.407
L451.266 13.0069" style="fill:none;stroke:#cccccc;stroke-linecap:square;"/>
   </g>
   <g id="line2d_25">
    <path clip-path="url(#p472e73a826)" d="
M495.536 243.407
L495.536 13.0069" style="fill:none;stroke:#cccccc;stroke-linecap:square;"/>
   </g>
   <g id="line2d_26">
    <path clip-path="url(#p472e73a826)" d="
M496.023 243.407
L496.023 13.0069" style="fill:none;stroke:#333333;stroke-linecap:square;"/>
   </g>
   <g id="line2d_27">
    <path clip-path="url(#p472e73a826)" d="
M577.266 243.407
L577.266 13.0069" style="fill:none;stroke:#cccccc;stroke-linecap:square;"/>
   </g>
   <g id="line2d_28">
    <path clip-path="url(#p472e73a826)" d="
M607.428 243.407
L607.428 13.0069" style="fill:none;stroke:#cccccc;stroke-linecap:square;"/>
   </g>
   <g id="matplotlib.axis_1">
    <g id="xtick_1">
     <g id="line2d_29">
      <defs>
       <path d="
M0 0
L0 -4" id="m93b0483c22" style="stroke:#000000;stroke-width:0.5;"/>
      </defs>
      <g>
       <use style="stroke:#000000;stroke-width:0.5;" x="86.8873986487" xlink:href="#m93b0483c22" y="243.406875"/>
      </g>
     </g>
     <g id="line2d_30">
      <defs>
       <path d="
M0 0
L0 4" id="m741efc42ff" style="stroke:#000000;stroke-width:0.5;"/>
      </defs>
      <g>
       <use style="stroke:#000000;stroke-width:0.5;" x="86.8873986487" xlink:href="#m741efc42ff" y="13.006875"/>
      </g>
     </g>
     <g id="text_1">
      <!-- Jun 2014 -->
      <defs>
       <path d="
M9.8125 72.9062
L19.6719 72.9062
L19.6719 5.07812
Q19.6719 -8.10938 14.6719 -14.0625
Q9.67188 -20.0156 -1.42188 -20.0156
L-5.17188 -20.0156
L-5.17188 -11.7188
L-2.09375 -11.7188
Q4.4375 -11.7188 7.125 -8.04688
Q9.8125 -4.39062 9.8125 5.07812
z
" id="DejaVuSans-4a"/>
       <path d="
M54.8906 33.0156
L54.8906 0
L45.9062 0
L45.9062 32.7188
Q45.9062 40.4844 42.875 44.3281
Q39.8438 48.1875 33.7969 48.1875
Q26.5156 48.1875 22.3125 43.5469
Q18.1094 38.9219 18.1094 30.9062
L18.1094 0
L9.07812 0
L9.07812 54.6875
L18.1094 54.6875
L18.1094 46.1875
Q21.3438 51.125 25.7031 53.5625
Q30.0781 56 35.7969 56
Q45.2188 56 50.0469 50.1719
Q54.8906 44.3438 54.8906 33.0156" id="DejaVuSans-6e"/>
       <path d="
M12.4062 8.29688
L28.5156 8.29688
L28.5156 63.9219
L10.9844 60.4062
L10.9844 69.3906
L28.4219 72.9062
L38.2812 72.9062
L38.2812 8.29688
L54.3906 8.29688
L54.3906 0
L12.4062 0
z
" id="DejaVuSans-31"/>
       <path d="
M31.7812 66.4062
Q24.1719 66.4062 20.3281 58.9062
Q16.5 51.4219 16.5 36.375
Q16.5 21.3906 20.3281 13.8906
Q24.1719 6.39062 31.7812 6.39062
Q39.4531 6.39062 43.2812 13.8906
Q47.125 21.3906 47.125 36.375
Q47.125 51.4219 43.2812 58.9062
Q39.4531 66.4062 31.7812 66.4062
M31.7812 74.2188
Q44.0469 74.2188 50.5156 64.5156
Q56.9844 54.8281 56.9844 36.375
Q56.9844 17.9688 50.5156 8.26562
Q44.0469 -1.42188 31.7812 -1.42188
Q19.5312 -1.42188 13.0625 8.26562
Q6.59375 17.9688 6.59375 36.375
Q6.59375 54.8281 13.0625 64.5156
Q19.5312 74.2188 31.7812 74.2188" id="DejaVuSans-30"/>
       <path id="DejaVuSans-20"/>
       <path d="
M19.1875 8.29688
L53.6094 8.29688
L53.6094 0
L7.32812 0
L7.32812 8.29688
Q12.9375 14.1094 22.625 23.8906
Q32.3281 33.6875 34.8125 36.5312
Q39.5469 41.8438 41.4219 45.5312
Q43.3125 49.2188 43.3125 52.7812
Q43.3125 58.5938 39.2344 62.25
Q35.1562 65.9219 28.6094 65.9219
Q23.9688 65.9219 18.8125 64.3125
Q13.6719 62.7031 7.8125 59.4219
L7.8125 69.3906
Q13.7656 71.7812 18.9375 73
Q24.125 74.2188 28.4219 74.2188
Q39.75 74.2188 46.4844 68.5469
Q53.2188 62.8906 53.2188 53.4219
Q53.2188 48.9219 51.5312 44.8906
Q49.8594 40.875 45.4062 35.4062
Q44.1875 33.9844 37.6406 27.2188
Q31.1094 20.4531 19.1875 8.29688" id="DejaVuSans-32"/>
       <path d="
M37.7969 64.3125
L12.8906 25.3906
L37.7969 25.3906
z

M35.2031 72.9062
L47.6094 72.9062
L47.6094 25.3906
L58.0156 25.3906
L58.0156 17.1875
L47.6094 17.1875
L47.6094 0
L37.7969 0
L37.7969 17.1875
L4.89062 17.1875
L4.89062 26.7031
z
" id="DejaVuSans-34"/>
       <path d="
M8.5 21.5781
L8.5 54.6875
L17.4844 54.6875
L17.4844 21.9219
Q17.4844 14.1562 20.5 10.2656
Q23.5312 6.39062 29.5938 6.39062
Q36.8594 6.39062 41.0781 11.0312
Q45.3125 15.6719 45.3125 23.6875
L45.3125 54.6875
L54.2969 54.6875
L54.2969 0
L45.3125 0
L45.3125 8.40625
Q42.0469 3.42188 37.7188 1
Q33.4062 -1.42188 27.6875 -1.42188
Q18.2656 -1.42188 13.375 4.4375
Q8.5 10.2969 8.5 21.5781
M31.1094 56
z
" id="DejaVuSans-75"/>
      </defs>
      <g transform="translate(90.1986486487 300.458125)rotate(-90.0)scale(0.12 -0.12)">
       <use xlink:href="#DejaVuSans-4a"/>
       <use x="29.4921875" xlink:href="#DejaVuSans-75"/>
       <use x="92.87109375" xlink:href="#DejaVuSans-6e"/>
       <use x="156.25" xlink:href="#DejaVuSans-20"/>
       <use x="188.037109375" xlink:href="#DejaVuSans-32"/>
       <use x="251.66015625" xlink:href="#DejaVuSans-30"/>
       <use x="315.283203125" xlink:href="#DejaVuSans-31"/>
       <use x="378.90625" xlink:href="#DejaVuSans-34"/>
      </g>
     </g>
    </g>
    <g id="xtick_2">
     <g id="line2d_31">
      <g>
       <use style="stroke:#000000;stroke-width:0.5;" x="146.23875" xlink:href="#m93b0483c22" y="243.406875"/>
      </g>
     </g>
     <g id="line2d_32">
      <g>
       <use style="stroke:#000000;stroke-width:0.5;" x="146.23875" xlink:href="#m741efc42ff" y="13.006875"/>
      </g>
     </g>
     <g id="text_2">
      <!-- Oct 2014 -->
      <defs>
       <path d="
M18.3125 70.2188
L18.3125 54.6875
L36.8125 54.6875
L36.8125 47.7031
L18.3125 47.7031
L18.3125 18.0156
Q18.3125 11.3281 20.1406 9.42188
Q21.9688 7.51562 27.5938 7.51562
L36.8125 7.51562
L36.8125 0
L27.5938 0
Q17.1875 0 13.2344 3.875
Q9.28125 7.76562 9.28125 18.0156
L9.28125 47.7031
L2.6875 47.7031
L2.6875 54.6875
L9.28125 54.6875
L9.28125 70.2188
z
" id="DejaVuSans-74"/>
       <path d="
M39.4062 66.2188
Q28.6562 66.2188 22.3281 58.2031
Q16.0156 50.2031 16.0156 36.375
Q16.0156 22.6094 22.3281 14.5938
Q28.6562 6.59375 39.4062 6.59375
Q50.1406 6.59375 56.4219 14.5938
Q62.7031 22.6094 62.7031 36.375
Q62.7031 50.2031 56.4219 58.2031
Q50.1406 66.2188 39.4062 66.2188
M39.4062 74.2188
Q54.7344 74.2188 63.9062 63.9375
Q73.0938 53.6562 73.0938 36.375
Q73.0938 19.1406 63.9062 8.85938
Q54.7344 -1.42188 39.4062 -1.42188
Q24.0312 -1.42188 14.8125 8.82812
Q5.60938 19.0938 5.60938 36.375
Q5.60938 53.6562 14.8125 63.9375
Q24.0312 74.2188 39.4062 74.2188" id="DejaVuSans-4f"/>
       <path d="
M48.7812 52.5938
L48.7812 44.1875
Q44.9688 46.2969 41.1406 47.3438
Q37.3125 48.3906 33.4062 48.3906
Q24.6562 48.3906 19.8125 42.8438
Q14.9844 37.3125 14.9844 27.2969
Q14.9844 17.2812 19.8125 11.7344
Q24.6562 6.20312 33.4062 6.20312
Q37.3125 6.20312 41.1406 7.25
Q44.9688 8.29688 48.7812 10.4062
L48.7812 2.09375
Q45.0156 0.34375 40.9844 -0.53125
Q36.9688 -1.42188 32.4219 -1.42188
Q20.0625 -1.42188 12.7812 6.34375
Q5.51562 14.1094 5.51562 27.2969
Q5.51562 40.6719 12.8594 48.3281
Q20.2188 56 33.0156 56
Q37.1562 56 41.1094 55.1406
Q45.0625 54.2969 48.7812 52.5938" id="DejaVuSans-63"/>
      </defs>
      <g transform="translate(149.55 301.83625)rotate(-90.0)scale(0.12 -0.12)">
       <use xlink:href="#DejaVuSans-4f"/>
       <use x="78.7109375" xlink:href="#DejaVuSans-63"/>
       <use x="133.69140625" xlink:href="#DejaVuSans-74"/>
       <use x="172.900390625" xlink:href="#DejaVuSans-20"/>
       <use x="204.6875" xlink:href="#DejaVuSans-32"/>
       <use x="268.310546875" xlink:href="#DejaVuSans-30"/>
       <use x="331.93359375" xlink:href="#DejaVuSans-31"/>
       <use x="395.556640625" xlink:href="#DejaVuSans-34"/>
      </g>
     </g>
    </g>
    <g id="xtick_3">
     <g id="line2d_33">
      <g>
       <use style="stroke:#000000;stroke-width:0.5;" x="206.076587838" xlink:href="#m93b0483c22" y="243.406875"/>
      </g>
     </g>
     <g id="line2d_34">
      <g>
       <use style="stroke:#000000;stroke-width:0.5;" x="206.076587838" xlink:href="#m741efc42ff" y="13.006875"/>
      </g>
     </g>
     <g id="text_3">
      <!-- Feb 2015 -->
      <defs>
       <path d="
M10.7969 72.9062
L49.5156 72.9062
L49.5156 64.5938
L19.8281 64.5938
L19.8281 46.7344
Q21.9688 47.4688 24.1094 47.8281
Q26.2656 48.1875 28.4219 48.1875
Q40.625 48.1875 47.75 41.5
Q54.8906 34.8125 54.8906 23.3906
Q54.8906 11.625 47.5625 5.09375
Q40.2344 -1.42188 26.9062 -1.42188
Q22.3125 -1.42188 17.5469 -0.640625
Q12.7969 0.140625 7.71875 1.70312
L7.71875 11.625
Q12.1094 9.23438 16.7969 8.0625
Q21.4844 6.89062 26.7031 6.89062
Q35.1562 6.89062 40.0781 11.3281
Q45.0156 15.7656 45.0156 23.3906
Q45.0156 31 40.0781 35.4375
Q35.1562 39.8906 26.7031 39.8906
Q22.75 39.8906 18.8125 39.0156
Q14.8906 38.1406 10.7969 36.2812
z
" id="DejaVuSans-35"/>
       <path d="
M9.8125 72.9062
L51.7031 72.9062
L51.7031 64.5938
L19.6719 64.5938
L19.6719 43.1094
L48.5781 43.1094
L48.5781 34.8125
L19.6719 34.8125
L19.6719 0
L9.8125 0
z
" id="DejaVuSans-46"/>
       <path d="
M56.2031 29.5938
L56.2031 25.2031
L14.8906 25.2031
Q15.4844 15.9219 20.4844 11.0625
Q25.4844 6.20312 34.4219 6.20312
Q39.5938 6.20312 44.4531 7.46875
Q49.3125 8.73438 54.1094 11.2812
L54.1094 2.78125
Q49.2656 0.734375 44.1875 -0.34375
Q39.1094 -1.42188 33.8906 -1.42188
Q20.7969 -1.42188 13.1562 6.1875
Q5.51562 13.8125 5.51562 26.8125
Q5.51562 40.2344 12.7656 48.1094
Q20.0156 56 32.3281 56
Q43.3594 56 49.7812 48.8906
Q56.2031 41.7969 56.2031 29.5938
M47.2188 32.2344
Q47.125 39.5938 43.0938 43.9844
Q39.0625 48.3906 32.4219 48.3906
Q24.9062 48.3906 20.3906 44.1406
Q15.875 39.8906 15.1875 32.1719
z
" id="DejaVuSans-65"/>
       <path d="
M48.6875 27.2969
Q48.6875 37.2031 44.6094 42.8438
Q40.5312 48.4844 33.4062 48.4844
Q26.2656 48.4844 22.1875 42.8438
Q18.1094 37.2031 18.1094 27.2969
Q18.1094 17.3906 22.1875 11.75
Q26.2656 6.10938 33.4062 6.10938
Q40.5312 6.10938 44.6094 11.75
Q48.6875 17.3906 48.6875 27.2969
M18.1094 46.3906
Q20.9531 51.2656 25.2656 53.625
Q29.5938 56 35.5938 56
Q45.5625 56 51.7812 48.0938
Q58.0156 40.1875 58.0156 27.2969
Q58.0156 14.4062 51.7812 6.48438
Q45.5625 -1.42188 35.5938 -1.42188
Q29.5938 -1.42188 25.2656 0.953125
Q20.9531 3.32812 18.1094 8.20312
L18.1094 0
L9.07812 0
L9.07812 75.9844
L18.1094 75.9844
z
" id="DejaVuSans-62"/>
      </defs>
      <g transform="translate(209.387837838 301.95625)rotate(-90.0)scale(0.12 -0.12)">
       <use xlink:href="#DejaVuSans-46"/>
       <use x="52.01953125" xlink:href="#DejaVuSans-65"/>
       <use x="113.54296875" xlink:href="#DejaVuSans-62"/>
       <use x="177.01953125" xlink:href="#DejaVuSans-20"/>
       <use x="208.806640625" xlink:href="#DejaVuSans-32"/>
       <use x="272.4296875" xlink:href="#DejaVuSans-30"/>
       <use x="336.052734375" xlink:href="#DejaVuSans-31"/>
       <use x="399.67578125" xlink:href="#DejaVuSans-35"/>
      </g>
     </g>
    </g>
    <g id="xtick_4">
     <g id="line2d_35">
      <g>
       <use style="stroke:#000000;stroke-width:0.5;" x="264.454966216" xlink:href="#m93b0483c22" y="243.406875"/>
      </g>
     </g>
     <g id="line2d_36">
      <g>
       <use style="stroke:#000000;stroke-width:0.5;" x="264.454966216" xlink:href="#m741efc42ff" y="13.006875"/>
      </g>
     </g>
     <g id="text_4">
      <!-- Jun 2015 -->
      <g transform="translate(267.766216216 300.083125)rotate(-90.0)scale(0.12 -0.12)">
       <use xlink:href="#DejaVuSans-4a"/>
       <use x="29.4921875" xlink:href="#DejaVuSans-75"/>
       <use x="92.87109375" xlink:href="#DejaVuSans-6e"/>
       <use x="156.25" xlink:href="#DejaVuSans-20"/>
       <use x="188.037109375" xlink:href="#DejaVuSans-32"/>
       <use x="251.66015625" xlink:href="#DejaVuSans-30"/>
       <use x="315.283203125" xlink:href="#DejaVuSans-31"/>
       <use x="378.90625" xlink:href="#DejaVuSans-35"/>
      </g>
     </g>
    </g>
    <g id="xtick_5">
     <g id="line2d_37">
      <g>
       <use style="stroke:#000000;stroke-width:0.5;" x="323.806317568" xlink:href="#m93b0483c22" y="243.406875"/>
      </g>
     </g>
     <g id="line2d_38">
      <g>
       <use style="stroke:#000000;stroke-width:0.5;" x="323.806317568" xlink:href="#m741efc42ff" y="13.006875"/>
      </g>
     </g>
     <g id="text_5">
      <!-- Oct 2015 -->
      <g transform="translate(327.117567568 301.46125)rotate(-90.0)scale(0.12 -0.12)">
       <use xlink:href="#DejaVuSans-4f"/>
       <use x="78.7109375" xlink:href="#DejaVuSans-63"/>
       <use x="133.69140625" xlink:href="#DejaVuSans-74"/>
       <use x="172.900390625" xlink:href="#DejaVuSans-20"/>
       <use x="204.6875" xlink:href="#DejaVuSans-32"/>
       <use x="268.310546875" xlink:href="#DejaVuSans-30"/>
       <use x="331.93359375" xlink:href="#DejaVuSans-31"/>
       <use x="395.556640625" xlink:href="#DejaVuSans-35"/>
      </g>
     </g>
    </g>
    <g id="xtick_6">
     <g id="line2d_39">
      <g>
       <use style="stroke:#000000;stroke-width:0.5;" x="383.644155405" xlink:href="#m93b0483c22" y="243.406875"/>
      </g>
     </g>
     <g id="line2d_40">
      <g>
       <use style="stroke:#000000;stroke-width:0.5;" x="383.644155405" xlink:href="#m741efc42ff" y="13.006875"/>
      </g>
     </g>
     <g id="text_6">
      <!-- Feb 2016 -->
      <defs>
       <path d="
M33.0156 40.375
Q26.375 40.375 22.4844 35.8281
Q18.6094 31.2969 18.6094 23.3906
Q18.6094 15.5312 22.4844 10.9531
Q26.375 6.39062 33.0156 6.39062
Q39.6562 6.39062 43.5312 10.9531
Q47.4062 15.5312 47.4062 23.3906
Q47.4062 31.2969 43.5312 35.8281
Q39.6562 40.375 33.0156 40.375
M52.5938 71.2969
L52.5938 62.3125
Q48.875 64.0625 45.0938 64.9844
Q41.3125 65.9219 37.5938 65.9219
Q27.8281 65.9219 22.6719 59.3281
Q17.5312 52.7344 16.7969 39.4062
Q19.6719 43.6562 24.0156 45.9219
Q28.375 48.1875 33.5938 48.1875
Q44.5781 48.1875 50.9531 41.5156
Q57.3281 34.8594 57.3281 23.3906
Q57.3281 12.1562 50.6875 5.35938
Q44.0469 -1.42188 33.0156 -1.42188
Q20.3594 -1.42188 13.6719 8.26562
Q6.98438 17.9688 6.98438 36.375
Q6.98438 53.6562 15.1875 63.9375
Q23.3906 74.2188 37.2031 74.2188
Q40.9219 74.2188 44.7031 73.4844
Q48.4844 72.75 52.5938 71.2969" id="DejaVuSans-36"/>
      </defs>
      <g transform="translate(386.955405405 302.24875)rotate(-90.0)scale(0.12 -0.12)">
       <use xlink:href="#DejaVuSans-46"/>
       <use x="52.01953125" xlink:href="#DejaVuSans-65"/>
       <use x="113.54296875" xlink:href="#DejaVuSans-62"/>
       <use x="177.01953125" xlink:href="#DejaVuSans-20"/>
       <use x="208.806640625" xlink:href="#DejaVuSans-32"/>
       <use x="272.4296875" xlink:href="#DejaVuSans-30"/>
       <use x="336.052734375" xlink:href="#DejaVuSans-31"/>
       <use x="399.67578125" xlink:href="#DejaVuSans-36"/>
      </g>
     </g>
    </g>
    <g id="xtick_7">
     <g id="line2d_41">
      <g>
       <use style="stroke:#000000;stroke-width:0.5;" x="442.50902027" xlink:href="#m93b0483c22" y="243.406875"/>
      </g>
     </g>
     <g id="line2d_42">
      <g>
       <use style="stroke:#000000;stroke-width:0.5;" x="442.50902027" xlink:href="#m741efc42ff" y="13.006875"/>
      </g>
     </g>
     <g id="text_7">
      <!-- Jun 2016 -->
      <g transform="translate(445.82027027 300.375625)rotate(-90.0)scale(0.12 -0.12)">
       <use xlink:href="#DejaVuSans-4a"/>
       <use x="29.4921875" xlink:href="#DejaVuSans-75"/>
       <use x="92.87109375" xlink:href="#DejaVuSans-6e"/>
       <use x="156.25" xlink:href="#DejaVuSans-20"/>
       <use x="188.037109375" xlink:href="#DejaVuSans-32"/>
       <use x="251.66015625" xlink:href="#DejaVuSans-30"/>
       <use x="315.283203125" xlink:href="#DejaVuSans-31"/>
       <use x="378.90625" xlink:href="#DejaVuSans-36"/>
      </g>
     </g>
    </g>
    <g id="xtick_8">
     <g id="line2d_43">
      <g>
       <use style="stroke:#000000;stroke-width:0.5;" x="501.860371622" xlink:href="#m93b0483c22" y="243.406875"/>
      </g>
     </g>
     <g id="line2d_44">
      <g>
       <use style="stroke:#000000;stroke-width:0.5;" x="501.860371622" xlink:href="#m741efc42ff" y="13.006875"/>
      </g>
     </g>
     <g id="text_8">
      <!-- Oct 2016 -->
      <g transform="translate(505.171621622 301.75375)rotate(-90.0)scale(0.12 -0.12)">
       <use xlink:href="#DejaVuSans-4f"/>
       <use x="78.7109375" xlink:href="#DejaVuSans-63"/>
       <use x="133.69140625" xlink:href="#DejaVuSans-74"/>
       <use x="172.900390625" xlink:href="#DejaVuSans-20"/>
       <use x="204.6875" xlink:href="#DejaVuSans-32"/>
       <use x="268.310546875" xlink:href="#DejaVuSans-30"/>
       <use x="331.93359375" xlink:href="#DejaVuSans-31"/>
       <use x="395.556640625" xlink:href="#DejaVuSans-36"/>
      </g>
     </g>
    </g>
    <g id="xtick_9">
     <g id="line2d_45">
      <g>
       <use style="stroke:#000000;stroke-width:0.5;" x="561.698209459" xlink:href="#m93b0483c22" y="243.406875"/>
      </g>
     </g>
     <g id="line2d_46">
      <g>
       <use style="stroke:#000000;stroke-width:0.5;" x="561.698209459" xlink:href="#m741efc42ff" y="13.006875"/>
      </g>
     </g>
     <g id="text_9">
      <!-- Feb 2017 -->
      <defs>
       <path d="
M8.20312 72.9062
L55.0781 72.9062
L55.0781 68.7031
L28.6094 0
L18.3125 0
L43.2188 64.5938
L8.20312 64.5938
z
" id="DejaVuSans-37"/>
      </defs>
      <g transform="translate(565.009459459 301.97875)rotate(-90.0)scale(0.12 -0.12)">
       <use xlink:href="#DejaVuSans-46"/>
       <use x="52.01953125" xlink:href="#DejaVuSans-65"/>
       <use x="113.54296875" xlink:href="#DejaVuSans-62"/>
       <use x="177.01953125" xlink:href="#DejaVuSans-20"/>
       <use x="208.806640625" xlink:href="#DejaVuSans-32"/>
       <use x="272.4296875" xlink:href="#DejaVuSans-30"/>
       <use x="336.052734375" xlink:href="#DejaVuSans-31"/>
       <use x="399.67578125" xlink:href="#DejaVuSans-37"/>
      </g>
     </g>
    </g>
   </g>
   <g id="matplotlib.axis_2">
    <g id="ytick_1">
     <g id="line2d_47">
      <defs>
       <path d="
M0 0
L4 0" id="m728421d6d4" style="stroke:#000000;stroke-width:0.5;"/>
      </defs>
      <g>
       <use style="stroke:#000000;stroke-width:0.5;" x="56.23875" xlink:href="#m728421d6d4" y="243.406875"/>
      </g>
     </g>
     <g id="line2d_48">
      <defs>
       <path d="
M0 0
L-4 0" id="mcb0005524f" style="stroke:#000000;stroke-width:0.5;"/>
      </defs>
      <g>
       <use style="stroke:#000000;stroke-width:0.5;" x="614.23875" xlink:href="#mcb0005524f" y="243.406875"/>
      </g>
     </g>
     <g id="text_10">
      <!-- 200 -->
      <g transform="translate(31.01 246.718125)scale(0.12 -0.12)">
       <use xlink:href="#DejaVuSans-32"/>
       <use x="63.623046875" xlink:href="#DejaVuSans-30"/>
       <use x="127.24609375" xlink:href="#DejaVuSans-30"/>
      </g>
     </g>
    </g>
    <g id="ytick_2">
     <g id="line2d_49">
      <g>
       <use style="stroke:#000000;stroke-width:0.5;" x="56.23875" xlink:href="#m728421d6d4" y="205.006875"/>
      </g>
     </g>
     <g id="line2d_50">
      <g>
       <use style="stroke:#000000;stroke-width:0.5;" x="614.23875" xlink:href="#mcb0005524f" y="205.006875"/>
      </g>
     </g>
     <g id="text_11">
      <!-- 400 -->
      <g transform="translate(30.7175 208.318125)scale(0.12 -0.12)">
       <use xlink:href="#DejaVuSans-34"/>
       <use x="63.623046875" xlink:href="#DejaVuSans-30"/>
       <use x="127.24609375" xlink:href="#DejaVuSans-30"/>
      </g>
     </g>
    </g>
    <g id="ytick_3">
     <g id="line2d_51">
      <g>
       <use style="stroke:#000000;stroke-width:0.5;" x="56.23875" xlink:href="#m728421d6d4" y="166.606875"/>
      </g>
     </g>
     <g id="line2d_52">
      <g>
       <use style="stroke:#000000;stroke-width:0.5;" x="614.23875" xlink:href="#mcb0005524f" y="166.606875"/>
      </g>
     </g>
     <g id="text_12">
      <!-- 600 -->
      <g transform="translate(30.96875 169.918125)scale(0.12 -0.12)">
       <use xlink:href="#DejaVuSans-36"/>
       <use x="63.623046875" xlink:href="#DejaVuSans-30"/>
       <use x="127.24609375" xlink:href="#DejaVuSans-30"/>
      </g>
     </g>
    </g>
    <g id="ytick_4">
     <g id="line2d_53">
      <g>
       <use style="stroke:#000000;stroke-width:0.5;" x="56.23875" xlink:href="#m728421d6d4" y="128.206875"/>
      </g>
     </g>
     <g id="line2d_54">
      <g>
       <use style="stroke:#000000;stroke-width:0.5;" x="614.23875" xlink:href="#mcb0005524f" y="128.206875"/>
      </g>
     </g>
     <g id="text_13">
      <!-- 800 -->
      <defs>
       <path d="
M31.7812 34.625
Q24.75 34.625 20.7188 30.8594
Q16.7031 27.0938 16.7031 20.5156
Q16.7031 13.9219 20.7188 10.1562
Q24.75 6.39062 31.7812 6.39062
Q38.8125 6.39062 42.8594 10.1719
Q46.9219 13.9688 46.9219 20.5156
Q46.9219 27.0938 42.8906 30.8594
Q38.875 34.625 31.7812 34.625
M21.9219 38.8125
Q15.5781 40.375 12.0312 44.7188
Q8.5 49.0781 8.5 55.3281
Q8.5 64.0625 14.7188 69.1406
Q20.9531 74.2188 31.7812 74.2188
Q42.6719 74.2188 48.875 69.1406
Q55.0781 64.0625 55.0781 55.3281
Q55.0781 49.0781 51.5312 44.7188
Q48 40.375 41.7031 38.8125
Q48.8281 37.1562 52.7969 32.3125
Q56.7812 27.4844 56.7812 20.5156
Q56.7812 9.90625 50.3125 4.23438
Q43.8438 -1.42188 31.7812 -1.42188
Q19.7344 -1.42188 13.25 4.23438
Q6.78125 9.90625 6.78125 20.5156
Q6.78125 27.4844 10.7812 32.3125
Q14.7969 37.1562 21.9219 38.8125
M18.3125 54.3906
Q18.3125 48.7344 21.8438 45.5625
Q25.3906 42.3906 31.7812 42.3906
Q38.1406 42.3906 41.7188 45.5625
Q45.3125 48.7344 45.3125 54.3906
Q45.3125 60.0625 41.7188 63.2344
Q38.1406 66.4062 31.7812 66.4062
Q25.3906 66.4062 21.8438 63.2344
Q18.3125 60.0625 18.3125 54.3906" id="DejaVuSans-38"/>
      </defs>
      <g transform="translate(30.944375 131.518125)scale(0.12 -0.12)">
       <use xlink:href="#DejaVuSans-38"/>
       <use x="63.623046875" xlink:href="#DejaVuSans-30"/>
       <use x="127.24609375" xlink:href="#DejaVuSans-30"/>
      </g>
     </g>
    </g>
    <g id="ytick_5">
     <g id="line2d_55">
      <g>
       <use style="stroke:#000000;stroke-width:0.5;" x="56.23875" xlink:href="#m728421d6d4" y="89.806875"/>
      </g>
     </g>
     <g id="line2d_56">
      <g>
       <use style="stroke:#000000;stroke-width:0.5;" x="614.23875" xlink:href="#mcb0005524f" y="89.806875"/>
      </g>
     </g>
     <g id="text_14">
      <!-- 1000 -->
      <g transform="translate(23.81375 93.118125)scale(0.12 -0.12)">
       <use xlink:href="#DejaVuSans-31"/>
       <use x="63.623046875" xlink:href="#DejaVuSans-30"/>
       <use x="127.24609375" xlink:href="#DejaVuSans-30"/>
       <use x="190.869140625" xlink:href="#DejaVuSans-30"/>
      </g>
     </g>
    </g>
    <g id="ytick_6">
     <g id="line2d_57">
      <g>
       <use style="stroke:#000000;stroke-width:0.5;" x="56.23875" xlink:href="#m728421d6d4" y="51.406875"/>
      </g>
     </g>
     <g id="line2d_58">
      <g>
       <use style="stroke:#000000;stroke-width:0.5;" x="614.23875" xlink:href="#mcb0005524f" y="51.406875"/>
      </g>
     </g>
     <g id="text_15">
      <!-- 1200 -->
      <g transform="translate(23.81375 54.718125)scale(0.12 -0.12)">
       <use xlink:href="#DejaVuSans-31"/>
       <use x="63.623046875" xlink:href="#DejaVuSans-32"/>
       <use x="127.24609375" xlink:href="#DejaVuSans-30"/>
       <use x="190.869140625" xlink:href="#DejaVuSans-30"/>
      </g>
     </g>
    </g>
    <g id="ytick_7">
     <g id="line2d_59">
      <g>
       <use style="stroke:#000000;stroke-width:0.5;" x="56.23875" xlink:href="#m728421d6d4" y="13.006875"/>
      </g>
     </g>
     <g id="line2d_60">
      <g>
       <use style="stroke:#000000;stroke-width:0.5;" x="614.23875" xlink:href="#mcb0005524f" y="13.006875"/>
      </g>
     </g>
     <g id="text_16">
      <!-- 1400 -->
      <g transform="translate(23.81375 16.318125)scale(0.12 -0.12)">
       <use xlink:href="#DejaVuSans-31"/>
       <use x="63.623046875" xlink:href="#DejaVuSans-34"/>
       <use x="127.24609375" xlink:href="#DejaVuSans-30"/>
       <use x="190.869140625" xlink:href="#DejaVuSans-30"/>
      </g>
     </g>
    </g>
    <g id="text_17">
     <!-- Number of Tagged Packages -->
     <defs>
      <path d="
M9.8125 72.9062
L23.0938 72.9062
L55.4219 11.9219
L55.4219 72.9062
L64.9844 72.9062
L64.9844 0
L51.7031 0
L19.3906 60.9844
L19.3906 0
L9.8125 0
z
" id="DejaVuSans-4e"/>
      <path d="
M19.6719 64.7969
L19.6719 37.4062
L32.0781 37.4062
Q38.9688 37.4062 42.7188 40.9688
Q46.4844 44.5312 46.4844 51.125
Q46.4844 57.6719 42.7188 61.2344
Q38.9688 64.7969 32.0781 64.7969
z

M9.8125 72.9062
L32.0781 72.9062
Q44.3438 72.9062 50.6094 67.3594
Q56.8906 61.8125 56.8906 51.125
Q56.8906 40.3281 50.6094 34.8125
Q44.3438 29.2969 32.0781 29.2969
L19.6719 29.2969
L19.6719 0
L9.8125 0
z
" id="DejaVuSans-50"/>
      <path d="
M30.6094 48.3906
Q23.3906 48.3906 19.1875 42.75
Q14.9844 37.1094 14.9844 27.2969
Q14.9844 17.4844 19.1562 11.8438
Q23.3438 6.20312 30.6094 6.20312
Q37.7969 6.20312 41.9844 11.8594
Q46.1875 17.5312 46.1875 27.2969
Q46.1875 37.0156 41.9844 42.7031
Q37.7969 48.3906 30.6094 48.3906
M30.6094 56
Q42.3281 56 49.0156 48.375
Q55.7188 40.7656 55.7188 27.2969
Q55.7188 13.875 49.0156 6.21875
Q42.3281 -1.42188 30.6094 -1.42188
Q18.8438 -1.42188 12.1719 6.21875
Q5.51562 13.875 5.51562 27.2969
Q5.51562 40.7656 12.1719 48.375
Q18.8438 56 30.6094 56" id="DejaVuSans-6f"/>
      <path d="
M52 44.1875
Q55.375 50.25 60.0625 53.125
Q64.75 56 71.0938 56
Q79.6406 56 84.2812 50.0156
Q88.9219 44.0469 88.9219 33.0156
L88.9219 0
L79.8906 0
L79.8906 32.7188
Q79.8906 40.5781 77.0938 44.375
Q74.3125 48.1875 68.6094 48.1875
Q61.625 48.1875 57.5625 43.5469
Q53.5156 38.9219 53.5156 30.9062
L53.5156 0
L44.4844 0
L44.4844 32.7188
Q44.4844 40.625 41.7031 44.4062
Q38.9219 48.1875 33.1094 48.1875
Q26.2188 48.1875 22.1562 43.5312
Q18.1094 38.875 18.1094 30.9062
L18.1094 0
L9.07812 0
L9.07812 54.6875
L18.1094 54.6875
L18.1094 46.1875
Q21.1875 51.2188 25.4844 53.6094
Q29.7812 56 35.6875 56
Q41.6562 56 45.8281 52.9688
Q50 49.9531 52 44.1875" id="DejaVuSans-6d"/>
      <path d="
M9.07812 75.9844
L18.1094 75.9844
L18.1094 31.1094
L44.9219 54.6875
L56.3906 54.6875
L27.3906 29.1094
L57.625 0
L45.9062 0
L18.1094 26.7031
L18.1094 0
L9.07812 0
z
" id="DejaVuSans-6b"/>
      <path d="
M34.2812 27.4844
Q23.3906 27.4844 19.1875 25
Q14.9844 22.5156 14.9844 16.5
Q14.9844 11.7188 18.1406 8.90625
Q21.2969 6.10938 26.7031 6.10938
Q34.1875 6.10938 38.7031 11.4062
Q43.2188 16.7031 43.2188 25.4844
L43.2188 27.4844
z

M52.2031 31.2031
L52.2031 0
L43.2188 0
L43.2188 8.29688
Q40.1406 3.32812 35.5469 0.953125
Q30.9531 -1.42188 24.3125 -1.42188
Q15.9219 -1.42188 10.9531 3.29688
Q6 8.01562 6 15.9219
Q6 25.1406 12.1719 29.8281
Q18.3594 34.5156 30.6094 34.5156
L43.2188 34.5156
L43.2188 35.4062
Q43.2188 41.6094 39.1406 45
Q35.0625 48.3906 27.6875 48.3906
Q23 48.3906 18.5469 47.2656
Q14.1094 46.1406 10.0156 43.8906
L10.0156 52.2031
Q14.9375 54.1094 19.5781 55.0469
Q24.2188 56 28.6094 56
Q40.4844 56 46.3438 49.8438
Q52.2031 43.7031 52.2031 31.2031" id="DejaVuSans-61"/>
      <path d="
M37.1094 75.9844
L37.1094 68.5
L28.5156 68.5
Q23.6875 68.5 21.7969 66.5469
Q19.9219 64.5938 19.9219 59.5156
L19.9219 54.6875
L34.7188 54.6875
L34.7188 47.7031
L19.9219 47.7031
L19.9219 0
L10.8906 0
L10.8906 47.7031
L2.29688 47.7031
L2.29688 54.6875
L10.8906 54.6875
L10.8906 58.5
Q10.8906 67.625 15.1406 71.7969
Q19.3906 75.9844 28.6094 75.9844
z
" id="DejaVuSans-66"/>
      <path d="
M45.4062 27.9844
Q45.4062 37.75 41.375 43.1094
Q37.3594 48.4844 30.0781 48.4844
Q22.8594 48.4844 18.8281 43.1094
Q14.7969 37.75 14.7969 27.9844
Q14.7969 18.2656 18.8281 12.8906
Q22.8594 7.51562 30.0781 7.51562
Q37.3594 7.51562 41.375 12.8906
Q45.4062 18.2656 45.4062 27.9844
M54.3906 6.78125
Q54.3906 -7.17188 48.1875 -13.9844
Q42 -20.7969 29.2031 -20.7969
Q24.4688 -20.7969 20.2656 -20.0938
Q16.0625 -19.3906 12.1094 -17.9219
L12.1094 -9.1875
Q16.0625 -11.3281 19.9219 -12.3438
Q23.7812 -13.375 27.7812 -13.375
Q36.625 -13.375 41.0156 -8.76562
Q45.4062 -4.15625 45.4062 5.17188
L45.4062 9.625
Q42.625 4.78125 38.2812 2.39062
Q33.9375 0 27.875 0
Q17.8281 0 11.6719 7.65625
Q5.51562 15.3281 5.51562 27.9844
Q5.51562 40.6719 11.6719 48.3281
Q17.8281 56 27.875 56
Q33.9375 56 38.2812 53.6094
Q42.625 51.2188 45.4062 46.3906
L45.4062 54.6875
L54.3906 54.6875
z
" id="DejaVuSans-67"/>
      <path d="
M45.4062 46.3906
L45.4062 75.9844
L54.3906 75.9844
L54.3906 0
L45.4062 0
L45.4062 8.20312
Q42.5781 3.32812 38.25 0.953125
Q33.9375 -1.42188 27.875 -1.42188
Q17.9688 -1.42188 11.7344 6.48438
Q5.51562 14.4062 5.51562 27.2969
Q5.51562 40.1875 11.7344 48.0938
Q17.9688 56 27.875 56
Q33.9375 56 38.25 53.625
Q42.5781 51.2656 45.4062 46.3906
M14.7969 27.2969
Q14.7969 17.3906 18.875 11.75
Q22.9531 6.10938 30.0781 6.10938
Q37.2031 6.10938 41.2969 11.75
Q45.4062 17.3906 45.4062 27.2969
Q45.4062 37.2031 41.2969 42.8438
Q37.2031 48.4844 30.0781 48.4844
Q22.9531 48.4844 18.875 42.8438
Q14.7969 37.2031 14.7969 27.2969" id="DejaVuSans-64"/>
      <path d="
M41.1094 46.2969
Q39.5938 47.1719 37.8125 47.5781
Q36.0312 48 33.8906 48
Q26.2656 48 22.1875 43.0469
Q18.1094 38.0938 18.1094 28.8125
L18.1094 0
L9.07812 0
L9.07812 54.6875
L18.1094 54.6875
L18.1094 46.1875
Q20.9531 51.1719 25.4844 53.5781
Q30.0312 56 36.5312 56
Q37.4531 56 38.5781 55.875
Q39.7031 55.7656 41.0625 55.5156
z
" id="DejaVuSans-72"/>
      <path d="
M44.2812 53.0781
L44.2812 44.5781
Q40.4844 46.5312 36.375 47.5
Q32.2812 48.4844 27.875 48.4844
Q21.1875 48.4844 17.8438 46.4375
Q14.5 44.3906 14.5 40.2812
Q14.5 37.1562 16.8906 35.375
Q19.2812 33.5938 26.5156 31.9844
L29.5938 31.2969
Q39.1562 29.25 43.1875 25.5156
Q47.2188 21.7812 47.2188 15.0938
Q47.2188 7.46875 41.1875 3.01562
Q35.1562 -1.42188 24.6094 -1.42188
Q20.2188 -1.42188 15.4531 -0.5625
Q10.6875 0.296875 5.42188 2
L5.42188 11.2812
Q10.4062 8.6875 15.2344 7.39062
Q20.0625 6.10938 24.8125 6.10938
Q31.1562 6.10938 34.5625 8.28125
Q37.9844 10.4531 37.9844 14.4062
Q37.9844 18.0625 35.5156 20.0156
Q33.0625 21.9688 24.7031 23.7812
L21.5781 24.5156
Q13.2344 26.2656 9.51562 29.9062
Q5.8125 33.5469 5.8125 39.8906
Q5.8125 47.6094 11.2812 51.7969
Q16.75 56 26.8125 56
Q31.7812 56 36.1719 55.2656
Q40.5781 54.5469 44.2812 53.0781" id="DejaVuSans-73"/>
      <path d="
M-0.296875 72.9062
L61.375 72.9062
L61.375 64.5938
L35.5 64.5938
L35.5 0
L25.5938 0
L25.5938 64.5938
L-0.296875 64.5938
z
" id="DejaVuSans-54"/>
     </defs>
     <g transform="translate(16.318125 212.98875)rotate(-90.0)scale(0.12 -0.12)">
      <use xlink:href="#DejaVuSans-4e"/>
      <use x="74.8046875" xlink:href="#DejaVuSans-75"/>
      <use x="138.18359375" xlink:href="#DejaVuSans-6d"/>
      <use x="235.595703125" xlink:href="#DejaVuSans-62"/>
      <use x="299.072265625" xlink:href="#DejaVuSans-65"/>
      <use x="360.595703125" xlink:href="#DejaVuSans-72"/>
      <use x="401.708984375" xlink:href="#DejaVuSans-20"/>
      <use x="433.49609375" xlink:href="#DejaVuSans-6f"/>
      <use x="494.677734375" xlink:href="#DejaVuSans-66"/>
      <use x="529.8828125" xlink:href="#DejaVuSans-20"/>
      <use x="561.669921875" xlink:href="#DejaVuSans-54"/>
      <use x="606.25390625" xlink:href="#DejaVuSans-61"/>
      <use x="667.533203125" xlink:href="#DejaVuSans-67"/>
      <use x="731.009765625" xlink:href="#DejaVuSans-67"/>
      <use x="794.486328125" xlink:href="#DejaVuSans-65"/>
      <use x="856.009765625" xlink:href="#DejaVuSans-64"/>
      <use x="919.486328125" xlink:href="#DejaVuSans-20"/>
      <use x="951.2734375" xlink:href="#DejaVuSans-50"/>
      <use x="1007.07617188" xlink:href="#DejaVuSans-61"/>
      <use x="1068.35546875" xlink:href="#DejaVuSans-63"/>
      <use x="1123.3359375" xlink:href="#DejaVuSans-6b"/>
      <use x="1179.49609375" xlink:href="#DejaVuSans-61"/>
      <use x="1240.77539062" xlink:href="#DejaVuSans-67"/>
      <use x="1304.25195312" xlink:href="#DejaVuSans-65"/>
      <use x="1365.77539062" xlink:href="#DejaVuSans-73"/>
     </g>
    </g>
   </g>
   <g id="patch_3">
    <path d="
M56.2387 13.0069
L614.239 13.0069" style="fill:none;stroke:#000000;"/>
   </g>
   <g id="patch_4">
    <path d="
M614.239 243.407
L614.239 13.0069" style="fill:none;stroke:#000000;"/>
   </g>
   <g id="patch_5">
    <path d="
M56.2387 243.407
L614.239 243.407" style="fill:none;stroke:#000000;"/>
   </g>
   <g id="patch_6">
    <path d="
M56.2388 243.407
L56.2388 13.0069" style="fill:none;stroke:#000000;"/>
   </g>
   <g id="text_18">
    <g id="patch_7">
     <path d="
M118.969 124.199
L132.643 124.199
L132.643 89.8115
L118.969 89.8115
z
" style="fill:#ffffff;stroke:#ffffff;"/>
    </g>
    <!-- v0.3.0 -->
    <defs>
     <path d="
M40.5781 39.3125
Q47.6562 37.7969 51.625 33
Q55.6094 28.2188 55.6094 21.1875
Q55.6094 10.4062 48.1875 4.48438
Q40.7656 -1.42188 27.0938 -1.42188
Q22.5156 -1.42188 17.6562 -0.515625
Q12.7969 0.390625 7.625 2.20312
L7.625 11.7188
Q11.7188 9.32812 16.5938 8.10938
Q21.4844 6.89062 26.8125 6.89062
Q36.0781 6.89062 40.9375 10.5469
Q45.7969 14.2031 45.7969 21.1875
Q45.7969 27.6406 41.2812 31.2656
Q36.7656 34.9062 28.7188 34.9062
L20.2188 34.9062
L20.2188 43.0156
L29.1094 43.0156
Q36.375 43.0156 40.2344 45.9219
Q44.0938 48.8281 44.0938 54.2969
Q44.0938 59.9062 40.1094 62.9062
Q36.1406 65.9219 28.7188 65.9219
Q24.6562 65.9219 20.0156 65.0312
Q15.375 64.1562 9.8125 62.3125
L9.8125 71.0938
Q15.4375 72.6562 20.3438 73.4375
Q25.25 74.2188 29.5938 74.2188
Q40.8281 74.2188 47.3594 69.1094
Q53.9062 64.0156 53.9062 55.3281
Q53.9062 49.2656 50.4375 45.0938
Q46.9688 40.9219 40.5781 39.3125" id="DejaVuSans-33"/>
     <path d="
M2.98438 54.6875
L12.5 54.6875
L29.5938 8.79688
L46.6875 54.6875
L56.2031 54.6875
L35.6875 0
L23.4844 0
z
" id="DejaVuSans-76"/>
     <path d="
M10.6875 12.4062
L21 12.4062
L21 0
L10.6875 0
z
" id="DejaVuSans-2e"/>
    </defs>
    <g transform="translate(128.564588818 122.199316875)rotate(-90.0)scale(0.09996 -0.09996)">
     <use xlink:href="#DejaVuSans-76"/>
     <use x="59.1796875" xlink:href="#DejaVuSans-30"/>
     <use x="122.802734375" xlink:href="#DejaVuSans-2e"/>
     <use x="154.58984375" xlink:href="#DejaVuSans-33"/>
     <use x="218.212890625" xlink:href="#DejaVuSans-2e"/>
     <use x="250.0" xlink:href="#DejaVuSans-30"/>
    </g>
   </g>
   <g id="text_19">
    <g id="patch_8">
     <path d="
M134.537 85.54
L148.211 85.54
L148.211 51.4115
L134.537 51.4115
z
" style="fill:#ffffff;stroke:#ffffff;"/>
    </g>
    <!-- v0.3.1 -->
    <g transform="translate(144.132156385 83.540045625)rotate(-90.0)scale(0.09996 -0.09996)">
     <use xlink:href="#DejaVuSans-76"/>
     <use x="59.1796875" xlink:href="#DejaVuSans-30"/>
     <use x="122.802734375" xlink:href="#DejaVuSans-2e"/>
     <use x="154.58984375" xlink:href="#DejaVuSans-33"/>
     <use x="218.212890625" xlink:href="#DejaVuSans-2e"/>
     <use x="250.0" xlink:href="#DejaVuSans-31"/>
    </g>
   </g>
   <g id="text_20">
    <g id="patch_9">
     <path d="
M149.131 123.862
L162.806 123.862
L162.806 89.8115
L149.131 89.8115
z
" style="fill:#ffffff;stroke:#ffffff;"/>
    </g>
    <!-- v0.3.2 -->
    <g transform="translate(158.72675098 121.861951875)rotate(-90.0)scale(0.09996 -0.09996)">
     <use xlink:href="#DejaVuSans-76"/>
     <use x="59.1796875" xlink:href="#DejaVuSans-30"/>
     <use x="122.802734375" xlink:href="#DejaVuSans-2e"/>
     <use x="154.58984375" xlink:href="#DejaVuSans-33"/>
     <use x="218.212890625" xlink:href="#DejaVuSans-2e"/>
     <use x="250.0" xlink:href="#DejaVuSans-32"/>
    </g>
   </g>
   <g id="text_21">
    <g id="patch_10">
     <path d="
M165.185 85.6619
L178.86 85.6619
L178.86 51.4115
L165.185 51.4115
z
" style="fill:#ffffff;stroke:#ffffff;"/>
    </g>
    <!-- v0.3.3 -->
    <g transform="translate(174.780805034 83.661871875)rotate(-90.0)scale(0.09996 -0.09996)">
     <use xlink:href="#DejaVuSans-76"/>
     <use x="59.1796875" xlink:href="#DejaVuSans-30"/>
     <use x="122.802734375" xlink:href="#DejaVuSans-2e"/>
     <use x="154.58984375" xlink:href="#DejaVuSans-33"/>
     <use x="218.212890625" xlink:href="#DejaVuSans-2e"/>
     <use x="250.0" xlink:href="#DejaVuSans-33"/>
    </g>
   </g>
   <g id="text_22">
    <g id="patch_11">
     <path d="
M181.239 124.302
L194.914 124.302
L194.914 89.8115
L181.239 89.8115
z
" style="fill:#ffffff;stroke:#ffffff;"/>
    </g>
    <!-- v0.3.4 -->
    <g transform="translate(190.834859088 122.302400625)rotate(-90.0)scale(0.09996 -0.09996)">
     <use xlink:href="#DejaVuSans-76"/>
     <use x="59.1796875" xlink:href="#DejaVuSans-30"/>
     <use x="122.802734375" xlink:href="#DejaVuSans-2e"/>
     <use x="154.58984375" xlink:href="#DejaVuSans-33"/>
     <use x="218.212890625" xlink:href="#DejaVuSans-2e"/>
     <use x="250.0" xlink:href="#DejaVuSans-34"/>
    </g>
   </g>
   <g id="text_23">
    <g id="patch_12">
     <path d="
M187.564 85.59
L201.238 85.59
L201.238 51.4115
L187.564 51.4115
z
" style="fill:#ffffff;stroke:#ffffff;"/>
    </g>
    <!-- v0.3.5 -->
    <g transform="translate(197.159183412 83.590025625)rotate(-90.0)scale(0.09996 -0.09996)">
     <use xlink:href="#DejaVuSans-76"/>
     <use x="59.1796875" xlink:href="#DejaVuSans-30"/>
     <use x="122.802734375" xlink:href="#DejaVuSans-2e"/>
     <use x="154.58984375" xlink:href="#DejaVuSans-33"/>
     <use x="218.212890625" xlink:href="#DejaVuSans-2e"/>
     <use x="250.0" xlink:href="#DejaVuSans-35"/>
    </g>
   </g>
   <g id="text_24">
    <g id="patch_13">
     <path d="
M207.023 124.234
L220.697 124.234
L220.697 89.8115
L207.023 89.8115
z
" style="fill:#ffffff;stroke:#ffffff;"/>
    </g>
    <!-- v0.3.6 -->
    <g transform="translate(216.618642872 122.233678125)rotate(-90.0)scale(0.09996 -0.09996)">
     <use xlink:href="#DejaVuSans-76"/>
     <use x="59.1796875" xlink:href="#DejaVuSans-30"/>
     <use x="122.802734375" xlink:href="#DejaVuSans-2e"/>
     <use x="154.58984375" xlink:href="#DejaVuSans-33"/>
     <use x="218.212890625" xlink:href="#DejaVuSans-2e"/>
     <use x="250.0" xlink:href="#DejaVuSans-36"/>
    </g>
   </g>
   <g id="text_25">
    <g id="patch_14">
     <path d="
M223.564 85.6088
L237.238 85.6088
L237.238 51.4115
L223.564 51.4115
z
" style="fill:#ffffff;stroke:#ffffff;"/>
    </g>
    <!-- v0.3.7 -->
    <g transform="translate(233.159183412 83.608768125)rotate(-90.0)scale(0.09996 -0.09996)">
     <use xlink:href="#DejaVuSans-76"/>
     <use x="59.1796875" xlink:href="#DejaVuSans-30"/>
     <use x="122.802734375" xlink:href="#DejaVuSans-2e"/>
     <use x="154.58984375" xlink:href="#DejaVuSans-33"/>
     <use x="218.212890625" xlink:href="#DejaVuSans-2e"/>
     <use x="250.0" xlink:href="#DejaVuSans-37"/>
    </g>
   </g>
   <g id="text_26">
    <g id="patch_15">
     <path d="
M242.05 124.179
L255.725 124.179
L255.725 89.8115
L242.05 89.8115
z
" style="fill:#ffffff;stroke:#ffffff;"/>
    </g>
    <!-- v0.3.8 -->
    <g transform="translate(251.645669899 122.1790125)rotate(-90.0)scale(0.09996 -0.09996)">
     <use xlink:href="#DejaVuSans-76"/>
     <use x="59.1796875" xlink:href="#DejaVuSans-30"/>
     <use x="122.802734375" xlink:href="#DejaVuSans-2e"/>
     <use x="154.58984375" xlink:href="#DejaVuSans-33"/>
     <use x="218.212890625" xlink:href="#DejaVuSans-2e"/>
     <use x="250.0" xlink:href="#DejaVuSans-38"/>
    </g>
   </g>
   <g id="text_27">
    <g id="patch_16">
     <path d="
M256.645 85.7603
L270.319 85.7603
L270.319 51.4115
L256.645 51.4115
z
" style="fill:#ffffff;stroke:#ffffff;"/>
    </g>
    <!-- v0.3.9 -->
    <defs>
     <path d="
M10.9844 1.51562
L10.9844 10.5
Q14.7031 8.73438 18.5 7.8125
Q22.3125 6.89062 25.9844 6.89062
Q35.75 6.89062 40.8906 13.4531
Q46.0469 20.0156 46.7812 33.4062
Q43.9531 29.2031 39.5938 26.9531
Q35.25 24.7031 29.9844 24.7031
Q19.0469 24.7031 12.6719 31.3125
Q6.29688 37.9375 6.29688 49.4219
Q6.29688 60.6406 12.9375 67.4219
Q19.5781 74.2188 30.6094 74.2188
Q43.2656 74.2188 49.9219 64.5156
Q56.5938 54.8281 56.5938 36.375
Q56.5938 19.1406 48.4062 8.85938
Q40.2344 -1.42188 26.4219 -1.42188
Q22.7031 -1.42188 18.8906 -0.6875
Q15.0938 0.046875 10.9844 1.51562
M30.6094 32.4219
Q37.25 32.4219 41.125 36.9531
Q45.0156 41.5 45.0156 49.4219
Q45.0156 57.2812 41.125 61.8438
Q37.25 66.4062 30.6094 66.4062
Q23.9688 66.4062 20.0938 61.8438
Q16.2188 57.2812 16.2188 49.4219
Q16.2188 41.5 20.0938 36.9531
Q23.9688 32.4219 30.6094 32.4219" id="DejaVuSans-39"/>
    </defs>
    <g transform="translate(266.240264493 83.76027)rotate(-90.0)scale(0.09996 -0.09996)">
     <use xlink:href="#DejaVuSans-76"/>
     <use x="59.1796875" xlink:href="#DejaVuSans-30"/>
     <use x="122.802734375" xlink:href="#DejaVuSans-2e"/>
     <use x="154.58984375" xlink:href="#DejaVuSans-33"/>
     <use x="218.212890625" xlink:href="#DejaVuSans-2e"/>
     <use x="250.0" xlink:href="#DejaVuSans-39"/>
    </g>
   </g>
   <g id="text_28">
    <g id="patch_17">
     <path d="
M268.807 130.559
L282.481 130.559
L282.481 89.8115
L268.807 89.8115
z
" style="fill:#ffffff;stroke:#ffffff;"/>
    </g>
    <!-- v0.3.10 -->
    <g transform="translate(278.402426655 128.559271875)rotate(-90.0)scale(0.09996 -0.09996)">
     <use xlink:href="#DejaVuSans-76"/>
     <use x="59.1796875" xlink:href="#DejaVuSans-30"/>
     <use x="122.802734375" xlink:href="#DejaVuSans-2e"/>
     <use x="154.58984375" xlink:href="#DejaVuSans-33"/>
     <use x="218.212890625" xlink:href="#DejaVuSans-2e"/>
     <use x="250.0" xlink:href="#DejaVuSans-31"/>
     <use x="313.623046875" xlink:href="#DejaVuSans-30"/>
    </g>
   </g>
   <g id="text_29">
    <g id="patch_18">
     <path d="
M284.861 91.9
L298.535 91.9
L298.535 51.4115
L284.861 51.4115
z
" style="fill:#ffffff;stroke:#ffffff;"/>
    </g>
    <!-- v0.3.11 -->
    <g transform="translate(294.456480709 89.900000625)rotate(-90.0)scale(0.09996 -0.09996)">
     <use xlink:href="#DejaVuSans-76"/>
     <use x="59.1796875" xlink:href="#DejaVuSans-30"/>
     <use x="122.802734375" xlink:href="#DejaVuSans-2e"/>
     <use x="154.58984375" xlink:href="#DejaVuSans-33"/>
     <use x="218.212890625" xlink:href="#DejaVuSans-2e"/>
     <use x="250.0" xlink:href="#DejaVuSans-31"/>
     <use x="313.623046875" xlink:href="#DejaVuSans-31"/>
    </g>
   </g>
   <g id="text_30">
    <g id="patch_19">
     <path d="
M329.131 130.222
L342.806 130.222
L342.806 89.8115
L329.131 89.8115
z
" style="fill:#ffffff;stroke:#ffffff;"/>
    </g>
    <!-- v0.3.12 -->
    <g transform="translate(338.72675098 128.221906875)rotate(-90.0)scale(0.09996 -0.09996)">
     <use xlink:href="#DejaVuSans-76"/>
     <use x="59.1796875" xlink:href="#DejaVuSans-30"/>
     <use x="122.802734375" xlink:href="#DejaVuSans-2e"/>
     <use x="154.58984375" xlink:href="#DejaVuSans-33"/>
     <use x="218.212890625" xlink:href="#DejaVuSans-2e"/>
     <use x="250.0" xlink:href="#DejaVuSans-31"/>
     <use x="313.623046875" xlink:href="#DejaVuSans-32"/>
    </g>
   </g>
   <g id="text_31">
    <g id="patch_20">
     <path d="
M320.375 229.799
L334.049 229.799
L334.049 195.411
L320.375 195.411
z
" style="fill:#ffffff;stroke:#ffffff;"/>
    </g>
    <!-- v0.4.0 -->
    <g transform="translate(329.969994223 227.799316875)rotate(-90.0)scale(0.09996 -0.09996)">
     <use xlink:href="#DejaVuSans-76"/>
     <use x="59.1796875" xlink:href="#DejaVuSans-30"/>
     <use x="122.802734375" xlink:href="#DejaVuSans-2e"/>
     <use x="154.58984375" xlink:href="#DejaVuSans-34"/>
     <use x="218.212890625" xlink:href="#DejaVuSans-2e"/>
     <use x="250.0" xlink:href="#DejaVuSans-30"/>
    </g>
   </g>
   <g id="text_32">
    <g id="patch_21">
     <path d="
M335.456 200.74
L349.13 200.74
L349.13 166.611
L335.456 166.611
z
" style="fill:#ffffff;stroke:#ffffff;"/>
    </g>
    <!-- v0.4.1 -->
    <g transform="translate(345.051075304 198.740045625)rotate(-90.0)scale(0.09996 -0.09996)">
     <use xlink:href="#DejaVuSans-76"/>
     <use x="59.1796875" xlink:href="#DejaVuSans-30"/>
     <use x="122.802734375" xlink:href="#DejaVuSans-2e"/>
     <use x="154.58984375" xlink:href="#DejaVuSans-34"/>
     <use x="218.212890625" xlink:href="#DejaVuSans-2e"/>
     <use x="250.0" xlink:href="#DejaVuSans-31"/>
    </g>
   </g>
   <g id="text_33">
    <g id="patch_22">
     <path d="
M349.077 229.462
L362.752 229.462
L362.752 195.411
L349.077 195.411
z
" style="fill:#ffffff;stroke:#ffffff;"/>
    </g>
    <!-- v0.4.2 -->
    <g transform="translate(358.672696926 227.461951875)rotate(-90.0)scale(0.09996 -0.09996)">
     <use xlink:href="#DejaVuSans-76"/>
     <use x="59.1796875" xlink:href="#DejaVuSans-30"/>
     <use x="122.802734375" xlink:href="#DejaVuSans-2e"/>
     <use x="154.58984375" xlink:href="#DejaVuSans-34"/>
     <use x="218.212890625" xlink:href="#DejaVuSans-2e"/>
     <use x="250.0" xlink:href="#DejaVuSans-32"/>
    </g>
   </g>
   <g id="text_34">
    <g id="patch_23">
     <path d="
M367.077 200.862
L380.752 200.862
L380.752 166.611
L367.077 166.611
z
" style="fill:#ffffff;stroke:#ffffff;"/>
    </g>
    <!-- v0.4.3 -->
    <g transform="translate(376.672696926 198.861871875)rotate(-90.0)scale(0.09996 -0.09996)">
     <use xlink:href="#DejaVuSans-76"/>
     <use x="59.1796875" xlink:href="#DejaVuSans-30"/>
     <use x="122.802734375" xlink:href="#DejaVuSans-2e"/>
     <use x="154.58984375" xlink:href="#DejaVuSans-34"/>
     <use x="218.212890625" xlink:href="#DejaVuSans-2e"/>
     <use x="250.0" xlink:href="#DejaVuSans-33"/>
    </g>
   </g>
   <g id="text_35">
    <g id="patch_24">
     <path d="
M398.699 229.59
L412.373 229.59
L412.373 195.411
L398.699 195.411
z
" style="fill:#ffffff;stroke:#ffffff;"/>
    </g>
    <!-- v0.4.5 -->
    <g transform="translate(408.294318547 227.590025625)rotate(-90.0)scale(0.09996 -0.09996)">
     <use xlink:href="#DejaVuSans-76"/>
     <use x="59.1796875" xlink:href="#DejaVuSans-30"/>
     <use x="122.802734375" xlink:href="#DejaVuSans-2e"/>
     <use x="154.58984375" xlink:href="#DejaVuSans-34"/>
     <use x="218.212890625" xlink:href="#DejaVuSans-2e"/>
     <use x="250.0" xlink:href="#DejaVuSans-35"/>
    </g>
   </g>
   <g id="text_36">
    <g id="patch_25">
     <path d="
M444.429 201.034
L458.103 201.034
L458.103 166.611
L444.429 166.611
z
" style="fill:#ffffff;stroke:#ffffff;"/>
    </g>
    <!-- v0.4.6 -->
    <g transform="translate(454.024048277 199.033678125)rotate(-90.0)scale(0.09996 -0.09996)">
     <use xlink:href="#DejaVuSans-76"/>
     <use x="59.1796875" xlink:href="#DejaVuSans-30"/>
     <use x="122.802734375" xlink:href="#DejaVuSans-2e"/>
     <use x="154.58984375" xlink:href="#DejaVuSans-34"/>
     <use x="218.212890625" xlink:href="#DejaVuSans-2e"/>
     <use x="250.0" xlink:href="#DejaVuSans-36"/>
    </g>
   </g>
   <g id="text_37">
    <g id="patch_26">
     <path d="
M488.699 229.609
L502.373 229.609
L502.373 195.411
L488.699 195.411
z
" style="fill:#ffffff;stroke:#ffffff;"/>
    </g>
    <!-- v0.4.7 -->
    <g transform="translate(498.294318547 227.608768125)rotate(-90.0)scale(0.09996 -0.09996)">
     <use xlink:href="#DejaVuSans-76"/>
     <use x="59.1796875" xlink:href="#DejaVuSans-30"/>
     <use x="122.802734375" xlink:href="#DejaVuSans-2e"/>
     <use x="154.58984375" xlink:href="#DejaVuSans-34"/>
     <use x="218.212890625" xlink:href="#DejaVuSans-2e"/>
     <use x="250.0" xlink:href="#DejaVuSans-37"/>
    </g>
   </g>
   <g id="text_38">
    <g id="patch_27">
     <path d="
M489.185 133.799
L502.86 133.799
L502.86 99.4115
L489.185 99.4115
z
" style="fill:#ffffff;stroke:#ffffff;"/>
    </g>
    <!-- v0.5.0 -->
    <g transform="translate(498.780805034 131.799316875)rotate(-90.0)scale(0.09996 -0.09996)">
     <use xlink:href="#DejaVuSans-76"/>
     <use x="59.1796875" xlink:href="#DejaVuSans-30"/>
     <use x="122.802734375" xlink:href="#DejaVuSans-2e"/>
     <use x="154.58984375" xlink:href="#DejaVuSans-35"/>
     <use x="218.212890625" xlink:href="#DejaVuSans-2e"/>
     <use x="250.0" xlink:href="#DejaVuSans-30"/>
    </g>
   </g>
   <g id="text_39">
    <g id="patch_28">
     <path d="
M570.429 114.34
L584.103 114.34
L584.103 80.2115
L570.429 80.2115
z
" style="fill:#ffffff;stroke:#ffffff;"/>
    </g>
    <!-- v0.5.1 -->
    <g transform="translate(580.024048277 112.340045625)rotate(-90.0)scale(0.09996 -0.09996)">
     <use xlink:href="#DejaVuSans-76"/>
     <use x="59.1796875" xlink:href="#DejaVuSans-30"/>
     <use x="122.802734375" xlink:href="#DejaVuSans-2e"/>
     <use x="154.58984375" xlink:href="#DejaVuSans-35"/>
     <use x="218.212890625" xlink:href="#DejaVuSans-2e"/>
     <use x="250.0" xlink:href="#DejaVuSans-31"/>
    </g>
   </g>
   <g id="text_40">
    <g id="patch_29">
     <path d="
M600.591 133.462
L614.265 133.462
L614.265 99.4115
L600.591 99.4115
z
" style="fill:#ffffff;stroke:#ffffff;"/>
    </g>
    <!-- v0.5.2 -->
    <g transform="translate(610.186210439 131.461951875)rotate(-90.0)scale(0.09996 -0.09996)">
     <use xlink:href="#DejaVuSans-76"/>
     <use x="59.1796875" xlink:href="#DejaVuSans-30"/>
     <use x="122.802734375" xlink:href="#DejaVuSans-2e"/>
     <use x="154.58984375" xlink:href="#DejaVuSans-35"/>
     <use x="218.212890625" xlink:href="#DejaVuSans-2e"/>
     <use x="250.0" xlink:href="#DejaVuSans-32"/>
    </g>
   </g>
   <g id="legend_1">
    <g id="patch_30">
     <path d="
M61.2368 94.3649
L111.899 94.3649
L111.899 18.0049
L61.2368 18.0049
L61.2368 94.3649
z
" style="fill:#ffffff;stroke:#000000;"/>
    </g>
    <g id="line2d_61">
     <path d="
M68.234 26.1001
L82.2284 26.1001" style="fill:none;stroke:#ff0000;stroke-linecap:square;stroke-width:2;"/>
    </g>
    <g id="line2d_62"/>
    <g id="text_41">
     <!-- 0.2 -->
     <g transform="translate(93.22395 29.598673125)scale(0.09996 -0.09996)">
      <use xlink:href="#DejaVuSans-30"/>
      <use x="63.623046875" xlink:href="#DejaVuSans-2e"/>
      <use x="95.41015625" xlink:href="#DejaVuSans-32"/>
     </g>
    </g>
    <g id="line2d_63">
     <path d="
M68.234 40.7723
L82.2284 40.7723" style="fill:none;stroke:#008000;stroke-linecap:square;stroke-width:2;"/>
    </g>
    <g id="line2d_64"/>
    <g id="text_42">
     <!-- 0.3 -->
     <g transform="translate(93.22395 44.270926875)scale(0.09996 -0.09996)">
      <use xlink:href="#DejaVuSans-30"/>
      <use x="63.623046875" xlink:href="#DejaVuSans-2e"/>
      <use x="95.41015625" xlink:href="#DejaVuSans-33"/>
     </g>
    </g>
    <g id="line2d_65">
     <path d="
M68.234 55.4446
L82.2284 55.4446" style="fill:none;stroke:#0000ff;stroke-linecap:square;stroke-width:2;"/>
    </g>
    <g id="line2d_66"/>
    <g id="text_43">
     <!-- 0.4 -->
     <g transform="translate(93.22395 58.943180625)scale(0.09996 -0.09996)">
      <use xlink:href="#DejaVuSans-30"/>
      <use x="63.623046875" xlink:href="#DejaVuSans-2e"/>
      <use x="95.41015625" xlink:href="#DejaVuSans-34"/>
     </g>
    </g>
    <g id="line2d_67">
     <path d="
M68.234 70.1168
L82.2284 70.1168" style="fill:none;stroke:#000000;stroke-linecap:square;stroke-width:2;"/>
    </g>
    <g id="line2d_68"/>
    <g id="text_44">
     <!-- 0.5 -->
     <g transform="translate(93.22395 73.615434375)scale(0.09996 -0.09996)">
      <use xlink:href="#DejaVuSans-30"/>
      <use x="63.623046875" xlink:href="#DejaVuSans-2e"/>
      <use x="95.41015625" xlink:href="#DejaVuSans-35"/>
     </g>
    </g>
    <g id="line2d_69">
     <path d="
M68.234 84.7891
L82.2284 84.7891" style="fill:none;stroke:#bfbf00;stroke-linecap:square;stroke-width:2;"/>
    </g>
    <g id="line2d_70"/>
    <g id="text_45">
     <!-- 0.6 -->
     <g transform="translate(93.22395 88.287688125)scale(0.09996 -0.09996)">
      <use xlink:href="#DejaVuSans-30"/>
      <use x="63.623046875" xlink:href="#DejaVuSans-2e"/>
      <use x="95.41015625" xlink:href="#DejaVuSans-36"/>
     </g>
    </g>
   </g>
  </g>
 </g>
 <defs>
  <clipPath id="p472e73a826">
   <rect height="230.4" width="558.0" x="56.23875" y="13.006875"/>
  </clipPath>
 </defs>
</svg>
