<?xml version="1.0" encoding="utf-8" standalone="no"?>
<!DOCTYPE svg PUBLIC "-//W3C//DTD SVG 1.1//EN"
  "http://www.w3.org/Graphics/SVG/1.1/DTD/svg11.dtd">
<!-- Created with matplotlib (http://matplotlib.org/) -->
<svg height="311pt" version="1.1" viewBox="0 0 621 311" width="621pt" xmlns="http://www.w3.org/2000/svg" xmlns:xlink="http://www.w3.org/1999/xlink">
 <defs>
  <style type="text/css">
*{stroke-linecap:butt;stroke-linejoin:round;}
  </style>
 </defs>
 <g id="figure_1">
  <g id="patch_1">
   <path d="
M0 311.719
L621.439 311.719
L621.439 0
L0 0
z
" style="fill:#ffffff;"/>
  </g>
  <g id="axes_1">
   <g id="patch_2">
    <path d="
M56.2388 243.407
L614.239 243.407
L614.239 13.0069
L56.2388 13.0069
z
" style="fill:#ffffff;"/>
   </g>
   <g id="line2d_1">
    <path clip-path="url(#p472e73a826)" d="
M125.796 217.487
L125.28 217.487
L124.765 217.871
L124.25 217.871
L123.735 218.063
L123.219 218.447
L122.704 218.447
L121.674 218.063
L121.158 218.063
L120.643 218.639
L120.128 218.639
L119.097 218.639
L118.582 218.639
L117.552 218.831
L117.037 218.831
L116.521 218.831
L116.006 219.023
L115.491 219.023
L114.976 219.023
L114.46 219.215
L113.945 219.215
L112.399 219.215
L111.884 219.215
L111.369 219.215
L110.854 219.215
L109.823 219.599
L108.793 219.983
L108.278 219.983
L107.762 220.175
L107.247 220.367
L106.217 220.751
L105.701 220.751
L105.186 220.751
L104.671 220.943
L104.156 221.135
L103.64 221.519
L102.61 221.711
L102.095 221.711
L101.579 222.287
L101.064 222.287
L100.549 222.287
L100.034 222.287
L99.5185 222.287
L99.0033 222.671
L97.9728 222.671
L97.4576 222.863
L96.9424 222.863
L96.4271 222.863
L95.9119 222.863
L95.3966 222.863
L94.8814 223.247
L94.3662 223.439
L93.8509 223.631
L93.3357 223.631
L90.2443 224.591
L89.7291 224.591
L89.2138 224.783
L88.6986 224.783
L88.1833 224.975
L87.6681 224.975
L87.1529 224.975
L86.6376 224.975
L86.1224 224.975
L85.6072 224.975
L85.0919 224.975
L84.5767 224.975
L84.0615 225.935
L83.5462 224.399
L83.031 224.591
L82.5158 224.591
L82.0005 224.591
L80.9701 224.783
L80.4548 224.783
L79.9396 225.359
L79.4243 225.359
L78.9091 225.359
L78.3939 225.359
L77.8786 225.359
L77.3634 225.359
L76.8482 225.359
L76.3329 225.359
L75.8177 225.359
L75.3025 225.551
L71.6958 225.743
L70.6653 225.743
L69.1196 225.743
L65.513 226.127
L64.9978 226.319
L63.9673 226.511
L63.452 226.511
L62.4216 226.703
L61.3911 226.895
L60.8759 226.895
L59.8454 226.895
L59.3302 226.895
L58.8149 226.895
L58.2997 226.895
L57.7845 226.895
L57.2692 226.895
L56.754 227.087
L56.2388 227.087" style="fill:none;stroke:#ff0000;stroke-linecap:square;stroke-width:2;"/>
   </g>
   <g id="line2d_2">
    <path clip-path="url(#p472e73a826)" d="
M523.557 148.367
L509.646 148.367
L509.131 148.559
L507.585 148.367
L501.917 148.367
L501.402 148.559
L500.887 148.367
L500.372 148.367
L499.856 148.559
L499.341 148.367
L497.796 148.367
L497.28 148.559
L494.704 148.559
L494.189 148.367
L488.006 148.367
L487.491 148.559
L486.976 148.367
L483.369 148.367
L482.854 148.559
L482.338 148.367
L481.823 148.559
L481.308 148.367
L475.125 148.367
L474.61 148.559
L473.579 148.559
L473.064 148.751
L472.034 148.559
L471.519 148.751
L471.003 148.559
L469.458 148.559
L468.942 148.751
L468.427 148.559
L465.336 148.559
L464.82 148.751
L464.305 148.559
L461.729 148.559
L461.214 148.751
L426.178 149.519
L417.934 149.903
L406.084 149.903
L402.992 150.287
L400.931 150.287
L390.111 150.479
L378.776 150.479
L372.078 151.055
L367.956 151.439
L363.319 151.439
L362.289 151.823
L360.228 151.439
L347.862 151.823
L346.316 152.207
L344.255 152.591
L342.194 152.783
L339.618 153.551
L337.557 154.511
L329.314 156.431
L326.737 156.815
L324.161 157.007
L322.615 157.391
L313.856 160.079
L305.097 161.999
L296.338 164.687
L295.823 164.687
L295.308 164.879
L294.793 165.263
L294.278 166.031
L293.762 166.415
L292.732 166.223
L291.701 166.607
L290.156 166.607
L289.64 166.799
L288.61 166.799
L288.095 167.183
L287.579 167.183
L287.064 167.567
L286.549 167.567
L285.003 167.375
L279.336 168.527
L278.305 168.527
L274.699 169.871
L273.668 169.871
L269.546 170.639
L269.031 171.023
L266.97 171.407
L262.848 172.751
L262.333 172.943
L261.818 173.519
L260.787 173.903
L259.757 173.903
L259.242 174.095
L257.181 174.479
L256.665 175.055
L256.15 175.247
L255.635 175.247
L254.604 176.207
L253.059 176.783
L250.998 176.783
L249.967 177.359
L248.937 177.359
L245.845 177.551
L245.33 178.127
L244.3 178.127
L238.117 178.319
L237.602 178.703
L237.086 178.511
L236.571 178.895
L236.056 178.895
L235.541 179.087
L235.025 179.471
L232.965 179.855
L230.388 179.855
L229.873 180.239
L228.843 180.239
L226.266 181.007
L223.69 182.159
L221.114 182.159
L219.568 182.543
L219.053 182.543
L216.992 183.695
L216.477 183.695
L215.962 183.311
L213.901 184.847
L213.386 185.039
L212.87 185.423
L211.84 185.999
L210.809 185.999
L210.294 186.191
L209.779 186.767
L209.264 186.767
L208.748 187.151
L206.688 187.151
L206.172 188.111
L205.657 188.111
L205.142 188.495
L203.081 189.839
L199.474 190.991
L196.898 192.335
L193.291 193.103
L192.261 193.487
L190.2 193.487
L189.685 193.679
L188.139 194.447
L186.078 195.023
L185.563 195.407
L184.532 195.407
L183.502 195.791
L182.471 195.791
L179.38 195.983
L177.319 196.943
L176.804 196.943
L176.289 197.519
L175.773 197.519
L175.258 197.711
L174.743 197.711
L174.228 198.095
L171.651 199.055
L170.106 199.055
L169.591 199.247
L169.075 199.247
L168.56 199.439
L167.53 199.439
L167.014 199.631
L166.499 199.631
L165.984 199.823
L165.469 200.207
L164.953 200.207
L164.438 200.399
L163.923 200.399
L163.408 200.591
L162.377 200.591
L161.862 200.975
L161.347 201.167
L159.801 201.167
L158.771 201.551
L158.255 201.551
L157.74 201.935
L156.71 201.935
L156.194 202.127
L155.679 202.511
L155.164 202.511
L153.618 202.895
L153.103 203.279
L152.588 203.279
L152.073 199.823
L151.557 203.663
L151.042 204.047
L150.527 204.047
L150.012 204.239
L148.466 204.047
L147.951 204.239
L146.92 204.239
L145.89 204.623
L143.829 204.623
L143.314 206.159
L142.283 206.159
L141.768 206.543
L140.737 206.927
L139.192 208.079
L136.1 208.079
L135.07 208.463
L134.555 209.039
L133.524 206.735
L132.494 207.119
L131.978 207.695
L130.948 207.695
L130.433 207.887
L129.917 207.887
L128.887 208.463
L127.856 208.463
L126.826 208.847
L126.311 208.847
L125.796 209.231
L123.735 209.999
L123.219 210.383
L122.704 210.383
L121.158 210.575
L120.643 211.151
L120.128 211.343
L117.552 211.343
L116.006 211.919
L114.976 211.919
L114.46 212.111
L113.945 212.111
L110.854 212.495
L109.823 213.071
L108.793 214.031
L107.762 214.031
L107.247 214.607
L106.217 214.799
L105.701 215.183
L105.186 215.183
L104.156 215.567
L103.64 215.951
L102.095 216.143
L101.579 216.719
L99.5185 216.719
L99.0033 217.103
L97.9728 217.103
L96.9424 217.487
L96.4271 217.487
L95.9119 217.871
L95.3966 217.871
L94.8814 218.255
L89.2138 220.367
L88.6986 228.239
L88.1833 220.559
L87.6681 220.559
L87.1529 220.751
L85.0919 220.751
L84.5767 220.943
L83.5462 220.943
L83.031 221.327
L82.0005 221.327
L80.9701 221.519
L80.4548 222.095
L76.3329 222.095
L75.8177 222.287
L75.3025 222.671
L70.6653 222.863
L69.1196 222.863
L64.9978 223.823
L63.452 223.823
L62.4216 224.207
L58.8149 224.783
L57.2692 224.783
L56.754 224.975
L56.2388 224.975
L56.2388 224.975" style="fill:none;stroke:#008000;stroke-linecap:square;stroke-width:2;"/>
   </g>
   <g id="line2d_3">
    <path clip-path="url(#p472e73a826)" d="
M614.239 71.1829
L611.147 71.1829
L610.632 71.3749
L610.117 71.3749
L609.086 71.5669
L606.51 71.1829
L603.934 71.1829
L603.419 71.3749
L597.751 71.3749
L574.566 71.7589
L572.505 72.1429
L570.959 72.1429
L570.444 72.3349
L567.868 71.9509
L567.352 72.1429
L564.261 72.1429
L562.2 72.9109
L561.169 72.9109
L560.654 73.8709
L558.078 72.9109
L555.502 72.9109
L551.895 73.2949
L550.35 73.2949
L549.319 73.4869
L544.682 73.4869
L544.167 74.0629
L543.651 74.4469
L543.136 74.6389
L541.591 74.4469
L541.075 74.8309
L535.923 75.2149
L534.892 75.5989
L532.316 75.5989
L531.286 75.9829
L530.255 75.9829
L529.225 76.3669
L525.103 76.3669
L524.588 76.5589
L524.073 77.1349
L522.527 77.7109
L522.012 78.4789
L520.981 78.4789
L520.466 78.6709
L519.951 78.6709
L518.92 79.0549
L518.405 79.6309
L517.374 80.0149
L516.859 80.0149
L516.344 80.3989
L515.314 80.3989
L514.798 80.5909
L514.283 80.5909
L513.768 80.9749
L512.737 81.3589
L512.222 81.7429
L511.192 81.7429
L510.161 82.1269
L509.131 82.1269
L508.1 82.5109
L507.585 83.0869
L507.07 83.2789
L506.555 83.6629
L506.039 83.6629
L505.524 83.8549
L505.009 83.8549
L504.494 84.0469
L503.978 84.0469
L502.433 84.6229
L499.856 84.6229
L499.341 85.0069
L498.826 85.0069
L498.311 85.3909
L497.796 85.3909
L497.28 85.7749
L496.765 85.7749
L496.25 85.5829
L495.735 85.5829
L494.704 86.3509
L494.189 86.5429
L493.674 87.1189
L493.158 87.5029
L491.613 87.3109
L491.097 87.6949
L490.067 88.0789
L489.552 88.0789
L489.037 88.2709
L488.521 88.2709
L486.46 89.0389
L485.43 89.2309
L484.915 89.6149
L484.399 89.6149
L483.884 89.8069
L483.369 89.6149
L482.854 89.6149
L481.823 89.9989
L481.308 89.9989
L480.278 90.3829
L479.762 90.1909
L479.247 90.1909
L478.217 90.5749
L477.701 90.5749
L477.186 90.7669
L476.671 90.7669
L475.125 91.3429
L474.61 92.1109
L474.095 92.1109
L473.579 92.3029
L473.064 92.8789
L471.519 93.2629
L470.488 93.6469
L469.458 93.6469
L468.942 93.8389
L468.427 93.8389
L466.881 94.4149
L466.366 94.2229
L465.851 94.4149
L465.336 94.4149
L464.305 95.5669
L463.79 95.5669
L463.275 95.7589
L462.76 95.5669
L462.244 95.7589
L461.729 96.1429
L461.214 96.3349
L452.97 100.751
L426.178 113.231
L417.934 119.375
L406.084 123.215
L402.992 125.135
L400.931 126.863
L390.111 130.511
L378.776 133.775
L376.2 134.351
L372.078 136.079
L368.471 137.039
L367.956 137.039
L363.319 137.807
L362.289 138.575
L360.228 138.767
L354.045 140.879
L347.862 145.103
L346.316 145.679
L344.255 146.639
L342.194 141.839
L339.618 143.567
L337.557 144.719
L329.314 148.367
L326.737 149.711
L322.615 150.863
L313.856 155.663
L309.219 156.623
L305.097 157.775
L296.338 160.655
L295.823 160.655
L295.308 160.847
L294.793 161.231
L294.278 161.999
L293.762 162.383
L292.732 162.383
L291.701 162.767
L290.156 162.959
L289.64 163.151
L288.61 163.151
L288.095 163.727
L287.579 163.727
L287.064 164.111
L285.003 164.111
L279.336 165.839
L278.305 165.839
L277.275 166.223
L276.76 166.607
L276.244 166.799
L274.699 167.567
L273.668 167.567
L269.546 168.143
L269.031 168.527
L266.97 168.911
L262.848 170.255
L262.333 170.447
L261.818 171.023
L260.787 171.407
L259.757 171.407
L259.242 171.791
L257.181 172.175
L256.665 172.559
L256.15 172.751
L255.635 172.751
L254.089 174.287
L253.059 174.671
L250.998 175.055
L249.967 175.631
L248.937 175.823
L245.845 176.015
L245.33 176.591
L244.3 176.591
L238.117 177.359
L237.602 177.743
L237.086 177.551
L236.571 177.935
L235.541 177.935
L235.025 178.319
L231.934 178.511
L230.904 178.895
L230.388 178.895
L229.873 179.279
L228.843 179.279
L226.266 181.007
L223.69 181.199
L221.114 181.199
L219.568 181.583
L219.053 181.583
L216.992 182.735
L216.477 182.159
L215.962 182.159
L213.901 183.695
L213.386 183.887
L212.87 184.463
L211.84 185.039
L210.809 185.039
L210.294 185.231
L209.779 185.807
L209.264 185.807
L208.748 185.999
L207.203 186.191
L206.688 186.191
L206.172 187.343
L205.657 187.343
L205.142 187.727
L203.081 189.071
L199.474 190.415
L197.929 190.799
L196.898 191.567
L193.291 192.335
L192.261 192.719
L189.685 192.719
L188.654 193.487
L188.139 193.679
L186.593 193.871
L185.563 194.639
L184.532 194.639
L184.017 194.831
L183.502 195.215
L182.471 195.215
L179.38 195.407
L177.319 196.367
L176.804 196.367
L176.289 196.943
L175.773 196.943
L175.258 197.135
L174.743 197.135
L174.228 197.519
L171.651 198.671
L170.106 198.671
L169.075 199.055
L167.53 199.055
L167.014 199.247
L166.499 199.247
L165.984 199.439
L165.469 199.823
L164.953 199.823
L164.438 200.015
L163.923 200.015
L163.408 200.207
L162.377 200.207
L161.347 200.975
L159.801 200.975
L158.771 201.359
L158.255 201.359
L157.74 201.743
L156.71 201.743
L156.194 201.935
L155.679 202.319
L155.164 202.319
L153.618 202.703
L153.103 203.087
L152.073 203.087
L151.042 203.855
L150.527 203.855
L150.012 204.047
L148.466 203.855
L147.951 204.047
L146.92 204.047
L146.405 204.239
L145.89 204.239
L144.344 204.431
L143.829 204.431
L143.314 205.967
L142.283 205.967
L141.768 206.351
L140.737 206.735
L139.192 207.887
L136.1 207.887
L135.07 208.271
L134.555 208.847
L133.524 209.231
L133.009 209.231
L132.494 209.615
L131.978 210.191
L130.948 210.191
L130.433 210.383
L129.917 210.383
L128.887 210.959
L127.856 210.959
L126.826 211.343
L126.311 211.919
L126.311 211.919" style="fill:none;stroke:#0000ff;stroke-linecap:square;stroke-width:2;"/>
   </g>
   <g id="line2d_4">
    <path clip-path="url(#p472e73a826)" d="
M614.239 37.1989
L613.724 37.5829
L613.208 38.7349
L612.693 38.9269
L612.178 38.7349
L611.663 38.9269
L611.147 38.7349
L610.632 39.3109
L610.117 39.5029
L609.086 39.3109
L606.51 39.1189
L605.995 39.8869
L604.965 40.8469
L604.449 41.8069
L603.934 41.9989
L603.419 42.3829
L602.388 42.5749
L601.873 42.9589
L597.751 43.3429
L578.688 50.8309
L576.111 50.8309
L575.596 51.7909
L574.566 51.7909
L572.505 52.5589
L570.959 52.5589
L570.444 53.3269
L567.868 53.7109
L567.352 54.8629
L566.322 55.2469
L565.807 56.3989
L564.261 56.3989
L563.746 56.5909
L562.2 57.9349
L561.169 57.9349
L560.654 59.0869
L558.078 57.9349
L557.563 57.9349
L557.048 58.1269
L556.532 58.1269
L556.017 57.9349
L555.502 58.1269
L553.956 58.8949
L552.41 59.0869
L551.895 59.0869
L550.865 59.2789
L550.35 59.0869
L549.319 59.4709
L548.289 60.2389
L547.773 61.1989
L546.743 60.8149
L545.712 61.1989
L545.197 61.9669
L544.682 62.1589
L544.167 62.7349
L543.651 63.6949
L543.136 64.0789
L541.591 64.2709
L541.075 65.8069
L534.892 68.1109
L534.377 68.1109
L533.347 68.8789
L532.316 68.8789
L531.286 70.2229
L530.255 70.2229
L529.74 70.4149
L529.225 70.7989
L528.194 71.1829
L527.679 71.9509
L527.164 71.9509
L526.649 72.1429
L526.133 72.5269
L525.103 72.9109
L524.588 73.4869
L524.073 74.2549
L523.557 74.2549
L523.042 74.6389
L522.527 74.8309
L522.012 72.3349
L520.981 72.1429
L520.466 72.3349
L519.435 73.1029
L518.92 73.2949
L518.405 75.4069
L517.89 76.1749
L516.344 76.7509
L515.829 77.3269
L515.314 77.1349
L514.798 77.1349
L514.283 75.7909
L513.768 76.1749
L513.253 76.9429
L512.737 76.9429
L512.222 77.5189
L511.707 77.7109
L511.192 77.5189
L509.131 78.2869
L508.1 78.8629
L507.585 79.6309
L507.07 79.6309
L506.555 80.0149
L506.039 80.0149
L504.494 80.5909
L503.978 80.5909
L502.948 81.5509
L502.433 81.5509
L501.917 81.7429
L501.402 81.5509
L499.856 81.5509
L499.341 81.9349
L498.826 83.2789
L498.311 82.3189
L497.796 82.5109
L497.28 82.8949
L496.25 83.2789
L495.735 83.2789
L494.704 84.8149
L494.189 84.8149
L493.674 85.3909
L493.158 85.7749
L491.613 85.5829
L491.097 85.9669
L490.582 86.5429
L490.067 86.7349
L489.552 86.7349
L489.037 86.9269
L488.521 86.9269
L488.006 87.1189
L487.491 87.5029
L486.976 87.5029
L486.46 87.6949
L485.43 87.8869
L484.915 88.4629
L483.884 88.4629
L483.369 88.2709
L482.338 88.6549
L481.308 88.6549
L480.793 88.8469
L480.278 88.8469
L479.762 89.0389
L479.247 89.0389
L477.186 89.8069
L476.671 89.8069
L475.64 90.5749
L475.125 90.5749
L474.61 91.3429
L474.095 91.3429
L473.579 91.5349
L473.064 91.9189
L470.488 92.8789
L469.458 92.8789
L468.942 93.0709
L468.427 93.0709
L467.397 93.4549
L466.881 93.4549
L466.366 93.6469
L465.851 93.4549
L465.336 93.6469
L464.305 94.7989
L462.76 94.7989
L462.244 94.9909
L461.729 95.3749
L461.214 95.5669
L426.178 113.423
L417.934 119.375
L406.084 123.407
L402.992 125.135
L400.931 126.863
L390.111 130.703
L378.776 133.775
L376.2 134.351
L372.593 135.503
L372.078 135.887
L368.471 136.847
L367.956 136.847
L367.956 136.847" style="fill:none;stroke:#000000;stroke-linecap:square;stroke-width:2;"/>
   </g>
   <g id="line2d_5">
    <path clip-path="url(#p472e73a826)" d="
M614.239 38.3509
L613.724 38.5429
L613.208 40.2709
L612.693 39.6949
L612.178 39.8869
L611.663 40.0789
L611.147 39.3109
L610.632 39.6949
L610.117 39.8869
L609.086 40.2709
L607.025 39.8869
L606.51 40.0789
L605.995 40.6549
L604.965 41.4229
L604.449 42.9589
L603.934 42.9589
L603.419 43.3429
L602.388 43.5349
L601.873 43.7269
L597.751 44.3029
L578.688 51.7909
L578.172 51.7909
L577.657 51.7909
L577.142 51.7909
L576.627 51.7909
L576.111 51.7909
L575.596 52.7509
L574.566 52.9429
L572.505 53.3269
L570.959 53.5189
L570.444 54.2869
L567.868 54.2869
L567.352 55.6309
L566.837 55.8229
L566.322 56.0149
L565.807 57.1669
L565.291 57.1669
L564.261 57.1669
L563.746 57.5509
L562.2 58.5109
L561.685 58.5109
L561.169 58.7029
L560.654 59.4709
L558.078 58.7029
L557.563 58.8949
L557.048 58.7029
L556.532 58.7029
L556.017 58.7029
L555.502 58.7029
L553.956 59.6629
L552.926 59.8549
L552.41 59.8549
L551.895 59.8549
L550.865 59.8549
L550.35 59.8549
L549.319 60.2389
L548.289 61.0069
L547.773 61.5829
L546.743 61.5829
L545.712 61.9669
L545.197 62.5429
L544.682 62.5429
L544.167 63.3109
L543.651 64.2709
L543.136 64.8469
L542.106 64.8469
L541.591 64.8469
L541.075 66.5749
L535.923 68.8789
L534.892 69.0709
L534.377 69.0709
L533.862 69.4549
L533.347 69.8389
L532.832 69.8389
L532.316 69.8389
L531.801 70.6069
L531.286 71.1829
L530.255 71.1829
L529.74 71.1829
L529.225 71.7589
L528.71 71.9509
L528.194 72.1429
L527.679 72.9109
L527.164 73.1029
L526.649 73.2949
L526.133 73.4869
L525.618 73.6789
L525.103 73.8709
L524.588 74.4469
L524.073 75.0229" style="fill:none;stroke:#bfbf00;stroke-linecap:square;stroke-width:2;"/>
   </g>
   <g id="line2d_6">
    <path clip-path="url(#p472e73a826)" d="
M129.917 243.407
L129.917 13.0069" style="fill:none;stroke:#333333;stroke-linecap:square;"/>
   </g>
   <g id="line2d_7">
    <path clip-path="url(#p472e73a826)" d="
M146.405 243.407
L146.405 13.0069" style="fill:none;stroke:#cccccc;stroke-linecap:square;"/>
   </g>
   <g id="line2d_8">
    <path clip-path="url(#p472e73a826)" d="
M161.862 243.407
L161.862 13.0069" style="fill:none;stroke:#cccccc;stroke-linecap:square;"/>
   </g>
   <g id="line2d_9">
    <path clip-path="url(#p472e73a826)" d="
M178.865 243.407
L178.865 13.0069" style="fill:none;stroke:#cccccc;stroke-linecap:square;"/>
   </g>
   <g id="line2d_10">
    <path clip-path="url(#p472e73a826)" d="
M195.868 243.407
L195.868 13.0069" style="fill:none;stroke:#cccccc;stroke-linecap:square;"/>
   </g>
   <g id="line2d_11">
    <path clip-path="url(#p472e73a826)" d="
M202.566 243.407
L202.566 13.0069" style="fill:none;stroke:#cccccc;stroke-linecap:square;"/>
   </g>
   <g id="line2d_12">
    <path clip-path="url(#p472e73a826)" d="
M223.175 243.407
L223.175 13.0069" style="fill:none;stroke:#cccccc;stroke-linecap:square;"/>
   </g>
   <g id="line2d_13">
    <path clip-path="url(#p472e73a826)" d="
M240.693 243.407
L240.693 13.0069" style="fill:none;stroke:#cccccc;stroke-linecap:square;"/>
   </g>
   <g id="line2d_14">
    <path clip-path="url(#p472e73a826)" d="
M260.272 243.407
L260.272 13.0069" style="fill:none;stroke:#cccccc;stroke-linecap:square;"/>
   </g>
   <g id="line2d_15">
    <path clip-path="url(#p472e73a826)" d="
M275.729 243.407
L275.729 13.0069" style="fill:none;stroke:#cccccc;stroke-linecap:square;"/>
   </g>
   <g id="line2d_16">
    <path clip-path="url(#p472e73a826)" d="
M288.61 243.407
L288.61 13.0069" style="fill:none;stroke:#cccccc;stroke-linecap:square;"/>
   </g>
   <g id="line2d_17">
    <path clip-path="url(#p472e73a826)" d="
M305.613 243.407
L305.613 13.0069" style="fill:none;stroke:#cccccc;stroke-linecap:square;"/>
   </g>
   <g id="line2d_18">
    <path clip-path="url(#p472e73a826)" d="
M352.499 243.407
L352.499 13.0069" style="fill:none;stroke:#cccccc;stroke-linecap:square;"/>
   </g>
   <g id="line2d_19">
    <path clip-path="url(#p472e73a826)" d="
M343.225 243.407
L343.225 13.0069" style="fill:none;stroke:#333333;stroke-linecap:square;"/>
   </g>
   <g id="line2d_20">
    <path clip-path="url(#p472e73a826)" d="
M359.197 243.407
L359.197 13.0069" style="fill:none;stroke:#cccccc;stroke-linecap:square;"/>
   </g>
   <g id="line2d_21">
    <path clip-path="url(#p472e73a826)" d="
M373.624 243.407
L373.624 13.0069" style="fill:none;stroke:#cccccc;stroke-linecap:square;"/>
   </g>
   <g id="line2d_22">
    <path clip-path="url(#p472e73a826)" d="
M392.688 243.407
L392.688 13.0069" style="fill:none;stroke:#cccccc;stroke-linecap:square;"/>
   </g>
   <g id="line2d_23">
    <path clip-path="url(#p472e73a826)" d="
M426.178 243.407
L426.178 13.0069" style="fill:none;stroke:#cccccc;stroke-linecap:square;"/>
   </g>
   <g id="line2d_24">
    <path clip-path="url(#p472e73a826)" d="
M474.61 243.407
L474.61 13.0069" style="fill:none;stroke:#cccccc;stroke-linecap:square;"/>
   </g>
   <g id="line2d_25">
    <path clip-path="url(#p472e73a826)" d="
M521.496 243.407
L521.496 13.0069" style="fill:none;stroke:#cccccc;stroke-linecap:square;"/>
   </g>
   <g id="line2d_26">
    <path clip-path="url(#p472e73a826)" d="
M522.012 243.407
L522.012 13.0069" style="fill:none;stroke:#333333;stroke-linecap:square;"/>
   </g>
   <g id="line2d_27">
    <path clip-path="url(#p472e73a826)" d="
M608.056 243.407
L608.056 13.0069" style="fill:none;stroke:#cccccc;stroke-linecap:square;"/>
   </g>
   <g id="matplotlib.axis_1">
    <g id="xtick_1">
     <g id="line2d_28">
      <defs>
       <path d="
M0 0
L0 -4" id="m93b0483c22" style="stroke:#000000;stroke-width:0.5;"/>
      </defs>
      <g>
       <use style="stroke:#000000;stroke-width:0.5;" x="57.2692209141" xlink:href="#m93b0483c22" y="243.406875"/>
      </g>
     </g>
     <g id="line2d_29">
      <defs>
       <path d="
M0 0
L0 4" id="m741efc42ff" style="stroke:#000000;stroke-width:0.5;"/>
      </defs>
      <g>
       <use style="stroke:#000000;stroke-width:0.5;" x="57.2692209141" xlink:href="#m741efc42ff" y="13.006875"/>
      </g>
     </g>
     <g id="text_1">
      <!-- Apr 2014 -->
      <defs>
       <path d="
M12.4062 8.29688
L28.5156 8.29688
L28.5156 63.9219
L10.9844 60.4062
L10.9844 69.3906
L28.4219 72.9062
L38.2812 72.9062
L38.2812 8.29688
L54.3906 8.29688
L54.3906 0
L12.4062 0
z
" id="DejaVuSans-31"/>
       <path d="
M31.7812 66.4062
Q24.1719 66.4062 20.3281 58.9062
Q16.5 51.4219 16.5 36.375
Q16.5 21.3906 20.3281 13.8906
Q24.1719 6.39062 31.7812 6.39062
Q39.4531 6.39062 43.2812 13.8906
Q47.125 21.3906 47.125 36.375
Q47.125 51.4219 43.2812 58.9062
Q39.4531 66.4062 31.7812 66.4062
M31.7812 74.2188
Q44.0469 74.2188 50.5156 64.5156
Q56.9844 54.8281 56.9844 36.375
Q56.9844 17.9688 50.5156 8.26562
Q44.0469 -1.42188 31.7812 -1.42188
Q19.5312 -1.42188 13.0625 8.26562
Q6.59375 17.9688 6.59375 36.375
Q6.59375 54.8281 13.0625 64.5156
Q19.5312 74.2188 31.7812 74.2188" id="DejaVuSans-30"/>
       <path id="DejaVuSans-20"/>
       <path d="
M19.1875 8.29688
L53.6094 8.29688
L53.6094 0
L7.32812 0
L7.32812 8.29688
Q12.9375 14.1094 22.625 23.8906
Q32.3281 33.6875 34.8125 36.5312
Q39.5469 41.8438 41.4219 45.5312
Q43.3125 49.2188 43.3125 52.7812
Q43.3125 58.5938 39.2344 62.25
Q35.1562 65.9219 28.6094 65.9219
Q23.9688 65.9219 18.8125 64.3125
Q13.6719 62.7031 7.8125 59.4219
L7.8125 69.3906
Q13.7656 71.7812 18.9375 73
Q24.125 74.2188 28.4219 74.2188
Q39.75 74.2188 46.4844 68.5469
Q53.2188 62.8906 53.2188 53.4219
Q53.2188 48.9219 51.5312 44.8906
Q49.8594 40.875 45.4062 35.4062
Q44.1875 33.9844 37.6406 27.2188
Q31.1094 20.4531 19.1875 8.29688" id="DejaVuSans-32"/>
       <path d="
M34.1875 63.1875
L20.7969 26.9062
L47.6094 26.9062
z

M28.6094 72.9062
L39.7969 72.9062
L67.5781 0
L57.3281 0
L50.6875 18.7031
L17.8281 18.7031
L11.1875 0
L0.78125 0
z
" id="DejaVuSans-41"/>
       <path d="
M37.7969 64.3125
L12.8906 25.3906
L37.7969 25.3906
z

M35.2031 72.9062
L47.6094 72.9062
L47.6094 25.3906
L58.0156 25.3906
L58.0156 17.1875
L47.6094 17.1875
L47.6094 0
L37.7969 0
L37.7969 17.1875
L4.89062 17.1875
L4.89062 26.7031
z
" id="DejaVuSans-34"/>
       <path d="
M18.1094 8.20312
L18.1094 -20.7969
L9.07812 -20.7969
L9.07812 54.6875
L18.1094 54.6875
L18.1094 46.3906
Q20.9531 51.2656 25.2656 53.625
Q29.5938 56 35.5938 56
Q45.5625 56 51.7812 48.0938
Q58.0156 40.1875 58.0156 27.2969
Q58.0156 14.4062 51.7812 6.48438
Q45.5625 -1.42188 35.5938 -1.42188
Q29.5938 -1.42188 25.2656 0.953125
Q20.9531 3.32812 18.1094 8.20312
M48.6875 27.2969
Q48.6875 37.2031 44.6094 42.8438
Q40.5312 48.4844 33.4062 48.4844
Q26.2656 48.4844 22.1875 42.8438
Q18.1094 37.2031 18.1094 27.2969
Q18.1094 17.3906 22.1875 11.75
Q26.2656 6.10938 33.4062 6.10938
Q40.5312 6.10938 44.6094 11.75
Q48.6875 17.3906 48.6875 27.2969" id="DejaVuSans-70"/>
       <path d="
M41.1094 46.2969
Q39.5938 47.1719 37.8125 47.5781
Q36.0312 48 33.8906 48
Q26.2656 48 22.1875 43.0469
Q18.1094 38.0938 18.1094 28.8125
L18.1094 0
L9.07812 0
L9.07812 54.6875
L18.1094 54.6875
L18.1094 46.1875
Q20.9531 51.1719 25.4844 53.5781
Q30.0312 56 36.5312 56
Q37.4531 56 38.5781 55.875
Q39.7031 55.7656 41.0625 55.5156
z
" id="DejaVuSans-72"/>
      </defs>
      <g transform="translate(60.5804709141 301.8475)rotate(-90.0)scale(0.12 -0.12)">
       <use xlink:href="#DejaVuSans-41"/>
       <use x="68.408203125" xlink:href="#DejaVuSans-70"/>
       <use x="131.884765625" xlink:href="#DejaVuSans-72"/>
       <use x="172.998046875" xlink:href="#DejaVuSans-20"/>
       <use x="204.78515625" xlink:href="#DejaVuSans-32"/>
       <use x="268.408203125" xlink:href="#DejaVuSans-30"/>
       <use x="332.03125" xlink:href="#DejaVuSans-31"/>
       <use x="395.654296875" xlink:href="#DejaVuSans-34"/>
      </g>
     </g>
    </g>
    <g id="xtick_2">
     <g id="line2d_30">
      <g>
       <use style="stroke:#000000;stroke-width:0.5;" x="120.127946676" xlink:href="#m93b0483c22" y="243.406875"/>
      </g>
     </g>
     <g id="line2d_31">
      <g>
       <use style="stroke:#000000;stroke-width:0.5;" x="120.127946676" xlink:href="#m741efc42ff" y="13.006875"/>
      </g>
     </g>
     <g id="text_2">
      <!-- Aug 2014 -->
      <defs>
       <path d="
M8.5 21.5781
L8.5 54.6875
L17.4844 54.6875
L17.4844 21.9219
Q17.4844 14.1562 20.5 10.2656
Q23.5312 6.39062 29.5938 6.39062
Q36.8594 6.39062 41.0781 11.0312
Q45.3125 15.6719 45.3125 23.6875
L45.3125 54.6875
L54.2969 54.6875
L54.2969 0
L45.3125 0
L45.3125 8.40625
Q42.0469 3.42188 37.7188 1
Q33.4062 -1.42188 27.6875 -1.42188
Q18.2656 -1.42188 13.375 4.4375
Q8.5 10.2969 8.5 21.5781
M31.1094 56
z
" id="DejaVuSans-75"/>
       <path d="
M45.4062 27.9844
Q45.4062 37.75 41.375 43.1094
Q37.3594 48.4844 30.0781 48.4844
Q22.8594 48.4844 18.8281 43.1094
Q14.7969 37.75 14.7969 27.9844
Q14.7969 18.2656 18.8281 12.8906
Q22.8594 7.51562 30.0781 7.51562
Q37.3594 7.51562 41.375 12.8906
Q45.4062 18.2656 45.4062 27.9844
M54.3906 6.78125
Q54.3906 -7.17188 48.1875 -13.9844
Q42 -20.7969 29.2031 -20.7969
Q24.4688 -20.7969 20.2656 -20.0938
Q16.0625 -19.3906 12.1094 -17.9219
L12.1094 -9.1875
Q16.0625 -11.3281 19.9219 -12.3438
Q23.7812 -13.375 27.7812 -13.375
Q36.625 -13.375 41.0156 -8.76562
Q45.4062 -4.15625 45.4062 5.17188
L45.4062 9.625
Q42.625 4.78125 38.2812 2.39062
Q33.9375 0 27.875 0
Q17.8281 0 11.6719 7.65625
Q5.51562 15.3281 5.51562 27.9844
Q5.51562 40.6719 11.6719 48.3281
Q17.8281 56 27.875 56
Q33.9375 56 38.2812 53.6094
Q42.625 51.2188 45.4062 46.3906
L45.4062 54.6875
L54.3906 54.6875
z
" id="DejaVuSans-67"/>
      </defs>
      <g transform="translate(123.439196676 304.519375)rotate(-90.0)scale(0.12 -0.12)">
       <use xlink:href="#DejaVuSans-41"/>
       <use x="68.408203125" xlink:href="#DejaVuSans-75"/>
       <use x="131.787109375" xlink:href="#DejaVuSans-67"/>
       <use x="195.263671875" xlink:href="#DejaVuSans-20"/>
       <use x="227.05078125" xlink:href="#DejaVuSans-32"/>
       <use x="290.673828125" xlink:href="#DejaVuSans-30"/>
       <use x="354.296875" xlink:href="#DejaVuSans-31"/>
       <use x="417.919921875" xlink:href="#DejaVuSans-34"/>
      </g>
     </g>
    </g>
    <g id="xtick_3">
     <g id="line2d_32">
      <g>
       <use style="stroke:#000000;stroke-width:0.5;" x="182.986672438" xlink:href="#m93b0483c22" y="243.406875"/>
      </g>
     </g>
     <g id="line2d_33">
      <g>
       <use style="stroke:#000000;stroke-width:0.5;" x="182.986672438" xlink:href="#m741efc42ff" y="13.006875"/>
      </g>
     </g>
     <g id="text_3">
      <!-- Dec 2014 -->
      <defs>
       <path d="
M19.6719 64.7969
L19.6719 8.10938
L31.5938 8.10938
Q46.6875 8.10938 53.6875 14.9375
Q60.6875 21.7812 60.6875 36.5312
Q60.6875 51.1719 53.6875 57.9844
Q46.6875 64.7969 31.5938 64.7969
z

M9.8125 72.9062
L30.0781 72.9062
Q51.2656 72.9062 61.1719 64.0938
Q71.0938 55.2812 71.0938 36.5312
Q71.0938 17.6719 61.125 8.82812
Q51.1719 0 30.0781 0
L9.8125 0
z
" id="DejaVuSans-44"/>
       <path d="
M56.2031 29.5938
L56.2031 25.2031
L14.8906 25.2031
Q15.4844 15.9219 20.4844 11.0625
Q25.4844 6.20312 34.4219 6.20312
Q39.5938 6.20312 44.4531 7.46875
Q49.3125 8.73438 54.1094 11.2812
L54.1094 2.78125
Q49.2656 0.734375 44.1875 -0.34375
Q39.1094 -1.42188 33.8906 -1.42188
Q20.7969 -1.42188 13.1562 6.1875
Q5.51562 13.8125 5.51562 26.8125
Q5.51562 40.2344 12.7656 48.1094
Q20.0156 56 32.3281 56
Q43.3594 56 49.7812 48.8906
Q56.2031 41.7969 56.2031 29.5938
M47.2188 32.2344
Q47.125 39.5938 43.0938 43.9844
Q39.0625 48.3906 32.4219 48.3906
Q24.9062 48.3906 20.3906 44.1406
Q15.875 39.8906 15.1875 32.1719
z
" id="DejaVuSans-65"/>
       <path d="
M48.7812 52.5938
L48.7812 44.1875
Q44.9688 46.2969 41.1406 47.3438
Q37.3125 48.3906 33.4062 48.3906
Q24.6562 48.3906 19.8125 42.8438
Q14.9844 37.3125 14.9844 27.2969
Q14.9844 17.2812 19.8125 11.7344
Q24.6562 6.20312 33.4062 6.20312
Q37.3125 6.20312 41.1406 7.25
Q44.9688 8.29688 48.7812 10.4062
L48.7812 2.09375
Q45.0156 0.34375 40.9844 -0.53125
Q36.9688 -1.42188 32.4219 -1.42188
Q20.0625 -1.42188 12.7812 6.34375
Q5.51562 14.1094 5.51562 27.2969
Q5.51562 40.6719 12.8594 48.3281
Q20.2188 56 33.0156 56
Q37.1562 56 41.1094 55.1406
Q45.0625 54.2969 48.7812 52.5938" id="DejaVuSans-63"/>
      </defs>
      <g transform="translate(186.297922438 304.309375)rotate(-90.0)scale(0.12 -0.12)">
       <use xlink:href="#DejaVuSans-44"/>
       <use x="77.001953125" xlink:href="#DejaVuSans-65"/>
       <use x="138.525390625" xlink:href="#DejaVuSans-63"/>
       <use x="193.505859375" xlink:href="#DejaVuSans-20"/>
       <use x="225.29296875" xlink:href="#DejaVuSans-32"/>
       <use x="288.916015625" xlink:href="#DejaVuSans-30"/>
       <use x="352.5390625" xlink:href="#DejaVuSans-31"/>
       <use x="416.162109375" xlink:href="#DejaVuSans-34"/>
      </g>
     </g>
    </g>
    <g id="xtick_4">
     <g id="line2d_34">
      <g>
       <use style="stroke:#000000;stroke-width:0.5;" x="245.330162742" xlink:href="#m93b0483c22" y="243.406875"/>
      </g>
     </g>
     <g id="line2d_35">
      <g>
       <use style="stroke:#000000;stroke-width:0.5;" x="245.330162742" xlink:href="#m741efc42ff" y="13.006875"/>
      </g>
     </g>
     <g id="text_4">
      <!-- Apr 2015 -->
      <defs>
       <path d="
M10.7969 72.9062
L49.5156 72.9062
L49.5156 64.5938
L19.8281 64.5938
L19.8281 46.7344
Q21.9688 47.4688 24.1094 47.8281
Q26.2656 48.1875 28.4219 48.1875
Q40.625 48.1875 47.75 41.5
Q54.8906 34.8125 54.8906 23.3906
Q54.8906 11.625 47.5625 5.09375
Q40.2344 -1.42188 26.9062 -1.42188
Q22.3125 -1.42188 17.5469 -0.640625
Q12.7969 0.140625 7.71875 1.70312
L7.71875 11.625
Q12.1094 9.23438 16.7969 8.0625
Q21.4844 6.89062 26.7031 6.89062
Q35.1562 6.89062 40.0781 11.3281
Q45.0156 15.7656 45.0156 23.3906
Q45.0156 31 40.0781 35.4375
Q35.1562 39.8906 26.7031 39.8906
Q22.75 39.8906 18.8125 39.0156
Q14.8906 38.1406 10.7969 36.2812
z
" id="DejaVuSans-35"/>
      </defs>
      <g transform="translate(248.641412742 301.4725)rotate(-90.0)scale(0.12 -0.12)">
       <use xlink:href="#DejaVuSans-41"/>
       <use x="68.408203125" xlink:href="#DejaVuSans-70"/>
       <use x="131.884765625" xlink:href="#DejaVuSans-72"/>
       <use x="172.998046875" xlink:href="#DejaVuSans-20"/>
       <use x="204.78515625" xlink:href="#DejaVuSans-32"/>
       <use x="268.408203125" xlink:href="#DejaVuSans-30"/>
       <use x="332.03125" xlink:href="#DejaVuSans-31"/>
       <use x="395.654296875" xlink:href="#DejaVuSans-35"/>
      </g>
     </g>
    </g>
    <g id="xtick_5">
     <g id="line2d_36">
      <g>
       <use style="stroke:#000000;stroke-width:0.5;" x="308.188888504" xlink:href="#m93b0483c22" y="243.406875"/>
      </g>
     </g>
     <g id="line2d_37">
      <g>
       <use style="stroke:#000000;stroke-width:0.5;" x="308.188888504" xlink:href="#m741efc42ff" y="13.006875"/>
      </g>
     </g>
     <g id="text_5">
      <!-- Aug 2015 -->
      <g transform="translate(311.500138504 304.144375)rotate(-90.0)scale(0.12 -0.12)">
       <use xlink:href="#DejaVuSans-41"/>
       <use x="68.408203125" xlink:href="#DejaVuSans-75"/>
       <use x="131.787109375" xlink:href="#DejaVuSans-67"/>
       <use x="195.263671875" xlink:href="#DejaVuSans-20"/>
       <use x="227.05078125" xlink:href="#DejaVuSans-32"/>
       <use x="290.673828125" xlink:href="#DejaVuSans-30"/>
       <use x="354.296875" xlink:href="#DejaVuSans-31"/>
       <use x="417.919921875" xlink:href="#DejaVuSans-35"/>
      </g>
     </g>
    </g>
    <g id="xtick_6">
     <g id="line2d_38">
      <g>
       <use style="stroke:#000000;stroke-width:0.5;" x="371.047614266" xlink:href="#m93b0483c22" y="243.406875"/>
      </g>
     </g>
     <g id="line2d_39">
      <g>
       <use style="stroke:#000000;stroke-width:0.5;" x="371.047614266" xlink:href="#m741efc42ff" y="13.006875"/>
      </g>
     </g>
     <g id="text_6">
      <!-- Dec 2015 -->
      <g transform="translate(374.358864266 303.934375)rotate(-90.0)scale(0.12 -0.12)">
       <use xlink:href="#DejaVuSans-44"/>
       <use x="77.001953125" xlink:href="#DejaVuSans-65"/>
       <use x="138.525390625" xlink:href="#DejaVuSans-63"/>
       <use x="193.505859375" xlink:href="#DejaVuSans-20"/>
       <use x="225.29296875" xlink:href="#DejaVuSans-32"/>
       <use x="288.916015625" xlink:href="#DejaVuSans-30"/>
       <use x="352.5390625" xlink:href="#DejaVuSans-31"/>
       <use x="416.162109375" xlink:href="#DejaVuSans-35"/>
      </g>
     </g>
    </g>
    <g id="xtick_7">
     <g id="line2d_40">
      <g>
       <use style="stroke:#000000;stroke-width:0.5;" x="433.906340028" xlink:href="#m93b0483c22" y="243.406875"/>
      </g>
     </g>
     <g id="line2d_41">
      <g>
       <use style="stroke:#000000;stroke-width:0.5;" x="433.906340028" xlink:href="#m741efc42ff" y="13.006875"/>
      </g>
     </g>
     <g id="text_7">
      <!-- Apr 2016 -->
      <defs>
       <path d="
M33.0156 40.375
Q26.375 40.375 22.4844 35.8281
Q18.6094 31.2969 18.6094 23.3906
Q18.6094 15.5312 22.4844 10.9531
Q26.375 6.39062 33.0156 6.39062
Q39.6562 6.39062 43.5312 10.9531
Q47.4062 15.5312 47.4062 23.3906
Q47.4062 31.2969 43.5312 35.8281
Q39.6562 40.375 33.0156 40.375
M52.5938 71.2969
L52.5938 62.3125
Q48.875 64.0625 45.0938 64.9844
Q41.3125 65.9219 37.5938 65.9219
Q27.8281 65.9219 22.6719 59.3281
Q17.5312 52.7344 16.7969 39.4062
Q19.6719 43.6562 24.0156 45.9219
Q28.375 48.1875 33.5938 48.1875
Q44.5781 48.1875 50.9531 41.5156
Q57.3281 34.8594 57.3281 23.3906
Q57.3281 12.1562 50.6875 5.35938
Q44.0469 -1.42188 33.0156 -1.42188
Q20.3594 -1.42188 13.6719 8.26562
Q6.98438 17.9688 6.98438 36.375
Q6.98438 53.6562 15.1875 63.9375
Q23.3906 74.2188 37.2031 74.2188
Q40.9219 74.2188 44.7031 73.4844
Q48.4844 72.75 52.5938 71.2969" id="DejaVuSans-36"/>
      </defs>
      <g transform="translate(437.217590028 301.765)rotate(-90.0)scale(0.12 -0.12)">
       <use xlink:href="#DejaVuSans-41"/>
       <use x="68.408203125" xlink:href="#DejaVuSans-70"/>
       <use x="131.884765625" xlink:href="#DejaVuSans-72"/>
       <use x="172.998046875" xlink:href="#DejaVuSans-20"/>
       <use x="204.78515625" xlink:href="#DejaVuSans-32"/>
       <use x="268.408203125" xlink:href="#DejaVuSans-30"/>
       <use x="332.03125" xlink:href="#DejaVuSans-31"/>
       <use x="395.654296875" xlink:href="#DejaVuSans-36"/>
      </g>
     </g>
    </g>
    <g id="xtick_8">
     <g id="line2d_42">
      <g>
       <use style="stroke:#000000;stroke-width:0.5;" x="496.765065789" xlink:href="#m93b0483c22" y="243.406875"/>
      </g>
     </g>
     <g id="line2d_43">
      <g>
       <use style="stroke:#000000;stroke-width:0.5;" x="496.765065789" xlink:href="#m741efc42ff" y="13.006875"/>
      </g>
     </g>
     <g id="text_8">
      <!-- Aug 2016 -->
      <g transform="translate(500.076315789 304.436875)rotate(-90.0)scale(0.12 -0.12)">
       <use xlink:href="#DejaVuSans-41"/>
       <use x="68.408203125" xlink:href="#DejaVuSans-75"/>
       <use x="131.787109375" xlink:href="#DejaVuSans-67"/>
       <use x="195.263671875" xlink:href="#DejaVuSans-20"/>
       <use x="227.05078125" xlink:href="#DejaVuSans-32"/>
       <use x="290.673828125" xlink:href="#DejaVuSans-30"/>
       <use x="354.296875" xlink:href="#DejaVuSans-31"/>
       <use x="417.919921875" xlink:href="#DejaVuSans-36"/>
      </g>
     </g>
    </g>
    <g id="xtick_9">
     <g id="line2d_44">
      <g>
       <use style="stroke:#000000;stroke-width:0.5;" x="559.623791551" xlink:href="#m93b0483c22" y="243.406875"/>
      </g>
     </g>
     <g id="line2d_45">
      <g>
       <use style="stroke:#000000;stroke-width:0.5;" x="559.623791551" xlink:href="#m741efc42ff" y="13.006875"/>
      </g>
     </g>
     <g id="text_9">
      <!-- Dec 2016 -->
      <g transform="translate(562.935041551 304.226875)rotate(-90.0)scale(0.12 -0.12)">
       <use xlink:href="#DejaVuSans-44"/>
       <use x="77.001953125" xlink:href="#DejaVuSans-65"/>
       <use x="138.525390625" xlink:href="#DejaVuSans-63"/>
       <use x="193.505859375" xlink:href="#DejaVuSans-20"/>
       <use x="225.29296875" xlink:href="#DejaVuSans-32"/>
       <use x="288.916015625" xlink:href="#DejaVuSans-30"/>
       <use x="352.5390625" xlink:href="#DejaVuSans-31"/>
       <use x="416.162109375" xlink:href="#DejaVuSans-36"/>
      </g>
     </g>
    </g>
   </g>
   <g id="matplotlib.axis_2">
    <g id="ytick_1">
     <g id="line2d_46">
      <defs>
       <path d="
M0 0
L4 0" id="m728421d6d4" style="stroke:#000000;stroke-width:0.5;"/>
      </defs>
      <g>
       <use style="stroke:#000000;stroke-width:0.5;" x="56.23875" xlink:href="#m728421d6d4" y="243.406875"/>
      </g>
     </g>
     <g id="line2d_47">
      <defs>
       <path d="
M0 0
L-4 0" id="mcb0005524f" style="stroke:#000000;stroke-width:0.5;"/>
      </defs>
      <g>
       <use style="stroke:#000000;stroke-width:0.5;" x="614.23875" xlink:href="#mcb0005524f" y="243.406875"/>
      </g>
     </g>
     <g id="text_10">
      <!-- 200 -->
      <g transform="translate(31.01 246.718125)scale(0.12 -0.12)">
       <use xlink:href="#DejaVuSans-32"/>
       <use x="63.623046875" xlink:href="#DejaVuSans-30"/>
       <use x="127.24609375" xlink:href="#DejaVuSans-30"/>
      </g>
     </g>
    </g>
    <g id="ytick_2">
     <g id="line2d_48">
      <g>
       <use style="stroke:#000000;stroke-width:0.5;" x="56.23875" xlink:href="#m728421d6d4" y="205.006875"/>
      </g>
     </g>
     <g id="line2d_49">
      <g>
       <use style="stroke:#000000;stroke-width:0.5;" x="614.23875" xlink:href="#mcb0005524f" y="205.006875"/>
      </g>
     </g>
     <g id="text_11">
      <!-- 400 -->
      <g transform="translate(30.7175 208.318125)scale(0.12 -0.12)">
       <use xlink:href="#DejaVuSans-34"/>
       <use x="63.623046875" xlink:href="#DejaVuSans-30"/>
       <use x="127.24609375" xlink:href="#DejaVuSans-30"/>
      </g>
     </g>
    </g>
    <g id="ytick_3">
     <g id="line2d_50">
      <g>
       <use style="stroke:#000000;stroke-width:0.5;" x="56.23875" xlink:href="#m728421d6d4" y="166.606875"/>
      </g>
     </g>
     <g id="line2d_51">
      <g>
       <use style="stroke:#000000;stroke-width:0.5;" x="614.23875" xlink:href="#mcb0005524f" y="166.606875"/>
      </g>
     </g>
     <g id="text_12">
      <!-- 600 -->
      <g transform="translate(30.96875 169.918125)scale(0.12 -0.12)">
       <use xlink:href="#DejaVuSans-36"/>
       <use x="63.623046875" xlink:href="#DejaVuSans-30"/>
       <use x="127.24609375" xlink:href="#DejaVuSans-30"/>
      </g>
     </g>
    </g>
    <g id="ytick_4">
     <g id="line2d_52">
      <g>
       <use style="stroke:#000000;stroke-width:0.5;" x="56.23875" xlink:href="#m728421d6d4" y="128.206875"/>
      </g>
     </g>
     <g id="line2d_53">
      <g>
       <use style="stroke:#000000;stroke-width:0.5;" x="614.23875" xlink:href="#mcb0005524f" y="128.206875"/>
      </g>
     </g>
     <g id="text_13">
      <!-- 800 -->
      <defs>
       <path d="
M31.7812 34.625
Q24.75 34.625 20.7188 30.8594
Q16.7031 27.0938 16.7031 20.5156
Q16.7031 13.9219 20.7188 10.1562
Q24.75 6.39062 31.7812 6.39062
Q38.8125 6.39062 42.8594 10.1719
Q46.9219 13.9688 46.9219 20.5156
Q46.9219 27.0938 42.8906 30.8594
Q38.875 34.625 31.7812 34.625
M21.9219 38.8125
Q15.5781 40.375 12.0312 44.7188
Q8.5 49.0781 8.5 55.3281
Q8.5 64.0625 14.7188 69.1406
Q20.9531 74.2188 31.7812 74.2188
Q42.6719 74.2188 48.875 69.1406
Q55.0781 64.0625 55.0781 55.3281
Q55.0781 49.0781 51.5312 44.7188
Q48 40.375 41.7031 38.8125
Q48.8281 37.1562 52.7969 32.3125
Q56.7812 27.4844 56.7812 20.5156
Q56.7812 9.90625 50.3125 4.23438
Q43.8438 -1.42188 31.7812 -1.42188
Q19.7344 -1.42188 13.25 4.23438
Q6.78125 9.90625 6.78125 20.5156
Q6.78125 27.4844 10.7812 32.3125
Q14.7969 37.1562 21.9219 38.8125
M18.3125 54.3906
Q18.3125 48.7344 21.8438 45.5625
Q25.3906 42.3906 31.7812 42.3906
Q38.1406 42.3906 41.7188 45.5625
Q45.3125 48.7344 45.3125 54.3906
Q45.3125 60.0625 41.7188 63.2344
Q38.1406 66.4062 31.7812 66.4062
Q25.3906 66.4062 21.8438 63.2344
Q18.3125 60.0625 18.3125 54.3906" id="DejaVuSans-38"/>
      </defs>
      <g transform="translate(30.944375 131.518125)scale(0.12 -0.12)">
       <use xlink:href="#DejaVuSans-38"/>
       <use x="63.623046875" xlink:href="#DejaVuSans-30"/>
       <use x="127.24609375" xlink:href="#DejaVuSans-30"/>
      </g>
     </g>
    </g>
    <g id="ytick_5">
     <g id="line2d_54">
      <g>
       <use style="stroke:#000000;stroke-width:0.5;" x="56.23875" xlink:href="#m728421d6d4" y="89.806875"/>
      </g>
     </g>
     <g id="line2d_55">
      <g>
       <use style="stroke:#000000;stroke-width:0.5;" x="614.23875" xlink:href="#mcb0005524f" y="89.806875"/>
      </g>
     </g>
     <g id="text_14">
      <!-- 1000 -->
      <g transform="translate(23.81375 93.118125)scale(0.12 -0.12)">
       <use xlink:href="#DejaVuSans-31"/>
       <use x="63.623046875" xlink:href="#DejaVuSans-30"/>
       <use x="127.24609375" xlink:href="#DejaVuSans-30"/>
       <use x="190.869140625" xlink:href="#DejaVuSans-30"/>
      </g>
     </g>
    </g>
    <g id="ytick_6">
     <g id="line2d_56">
      <g>
       <use style="stroke:#000000;stroke-width:0.5;" x="56.23875" xlink:href="#m728421d6d4" y="51.406875"/>
      </g>
     </g>
     <g id="line2d_57">
      <g>
       <use style="stroke:#000000;stroke-width:0.5;" x="614.23875" xlink:href="#mcb0005524f" y="51.406875"/>
      </g>
     </g>
     <g id="text_15">
      <!-- 1200 -->
      <g transform="translate(23.81375 54.718125)scale(0.12 -0.12)">
       <use xlink:href="#DejaVuSans-31"/>
       <use x="63.623046875" xlink:href="#DejaVuSans-32"/>
       <use x="127.24609375" xlink:href="#DejaVuSans-30"/>
       <use x="190.869140625" xlink:href="#DejaVuSans-30"/>
      </g>
     </g>
    </g>
    <g id="ytick_7">
     <g id="line2d_58">
      <g>
       <use style="stroke:#000000;stroke-width:0.5;" x="56.23875" xlink:href="#m728421d6d4" y="13.006875"/>
      </g>
     </g>
     <g id="line2d_59">
      <g>
       <use style="stroke:#000000;stroke-width:0.5;" x="614.23875" xlink:href="#mcb0005524f" y="13.006875"/>
      </g>
     </g>
     <g id="text_16">
      <!-- 1400 -->
      <g transform="translate(23.81375 16.318125)scale(0.12 -0.12)">
       <use xlink:href="#DejaVuSans-31"/>
       <use x="63.623046875" xlink:href="#DejaVuSans-34"/>
       <use x="127.24609375" xlink:href="#DejaVuSans-30"/>
       <use x="190.869140625" xlink:href="#DejaVuSans-30"/>
      </g>
     </g>
    </g>
    <g id="text_17">
     <!-- Number of Tagged Packages -->
     <defs>
      <path d="
M9.8125 72.9062
L23.0938 72.9062
L55.4219 11.9219
L55.4219 72.9062
L64.9844 72.9062
L64.9844 0
L51.7031 0
L19.3906 60.9844
L19.3906 0
L9.8125 0
z
" id="DejaVuSans-4e"/>
      <path d="
M19.6719 64.7969
L19.6719 37.4062
L32.0781 37.4062
Q38.9688 37.4062 42.7188 40.9688
Q46.4844 44.5312 46.4844 51.125
Q46.4844 57.6719 42.7188 61.2344
Q38.9688 64.7969 32.0781 64.7969
z

M9.8125 72.9062
L32.0781 72.9062
Q44.3438 72.9062 50.6094 67.3594
Q56.8906 61.8125 56.8906 51.125
Q56.8906 40.3281 50.6094 34.8125
Q44.3438 29.2969 32.0781 29.2969
L19.6719 29.2969
L19.6719 0
L9.8125 0
z
" id="DejaVuSans-50"/>
      <path d="
M30.6094 48.3906
Q23.3906 48.3906 19.1875 42.75
Q14.9844 37.1094 14.9844 27.2969
Q14.9844 17.4844 19.1562 11.8438
Q23.3438 6.20312 30.6094 6.20312
Q37.7969 6.20312 41.9844 11.8594
Q46.1875 17.5312 46.1875 27.2969
Q46.1875 37.0156 41.9844 42.7031
Q37.7969 48.3906 30.6094 48.3906
M30.6094 56
Q42.3281 56 49.0156 48.375
Q55.7188 40.7656 55.7188 27.2969
Q55.7188 13.875 49.0156 6.21875
Q42.3281 -1.42188 30.6094 -1.42188
Q18.8438 -1.42188 12.1719 6.21875
Q5.51562 13.875 5.51562 27.2969
Q5.51562 40.7656 12.1719 48.375
Q18.8438 56 30.6094 56" id="DejaVuSans-6f"/>
      <path d="
M52 44.1875
Q55.375 50.25 60.0625 53.125
Q64.75 56 71.0938 56
Q79.6406 56 84.2812 50.0156
Q88.9219 44.0469 88.9219 33.0156
L88.9219 0
L79.8906 0
L79.8906 32.7188
Q79.8906 40.5781 77.0938 44.375
Q74.3125 48.1875 68.6094 48.1875
Q61.625 48.1875 57.5625 43.5469
Q53.5156 38.9219 53.5156 30.9062
L53.5156 0
L44.4844 0
L44.4844 32.7188
Q44.4844 40.625 41.7031 44.4062
Q38.9219 48.1875 33.1094 48.1875
Q26.2188 48.1875 22.1562 43.5312
Q18.1094 38.875 18.1094 30.9062
L18.1094 0
L9.07812 0
L9.07812 54.6875
L18.1094 54.6875
L18.1094 46.1875
Q21.1875 51.2188 25.4844 53.6094
Q29.7812 56 35.6875 56
Q41.6562 56 45.8281 52.9688
Q50 49.9531 52 44.1875" id="DejaVuSans-6d"/>
      <path d="
M9.07812 75.9844
L18.1094 75.9844
L18.1094 31.1094
L44.9219 54.6875
L56.3906 54.6875
L27.3906 29.1094
L57.625 0
L45.9062 0
L18.1094 26.7031
L18.1094 0
L9.07812 0
z
" id="DejaVuSans-6b"/>
      <path d="
M37.1094 75.9844
L37.1094 68.5
L28.5156 68.5
Q23.6875 68.5 21.7969 66.5469
Q19.9219 64.5938 19.9219 59.5156
L19.9219 54.6875
L34.7188 54.6875
L34.7188 47.7031
L19.9219 47.7031
L19.9219 0
L10.8906 0
L10.8906 47.7031
L2.29688 47.7031
L2.29688 54.6875
L10.8906 54.6875
L10.8906 58.5
Q10.8906 67.625 15.1406 71.7969
Q19.3906 75.9844 28.6094 75.9844
z
" id="DejaVuSans-66"/>
      <path d="
M45.4062 46.3906
L45.4062 75.9844
L54.3906 75.9844
L54.3906 0
L45.4062 0
L45.4062 8.20312
Q42.5781 3.32812 38.25 0.953125
Q33.9375 -1.42188 27.875 -1.42188
Q17.9688 -1.42188 11.7344 6.48438
Q5.51562 14.4062 5.51562 27.2969
Q5.51562 40.1875 11.7344 48.0938
Q17.9688 56 27.875 56
Q33.9375 56 38.25 53.625
Q42.5781 51.2656 45.4062 46.3906
M14.7969 27.2969
Q14.7969 17.3906 18.875 11.75
Q22.9531 6.10938 30.0781 6.10938
Q37.2031 6.10938 41.2969 11.75
Q45.4062 17.3906 45.4062 27.2969
Q45.4062 37.2031 41.2969 42.8438
Q37.2031 48.4844 30.0781 48.4844
Q22.9531 48.4844 18.875 42.8438
Q14.7969 37.2031 14.7969 27.2969" id="DejaVuSans-64"/>
      <path d="
M34.2812 27.4844
Q23.3906 27.4844 19.1875 25
Q14.9844 22.5156 14.9844 16.5
Q14.9844 11.7188 18.1406 8.90625
Q21.2969 6.10938 26.7031 6.10938
Q34.1875 6.10938 38.7031 11.4062
Q43.2188 16.7031 43.2188 25.4844
L43.2188 27.4844
z

M52.2031 31.2031
L52.2031 0
L43.2188 0
L43.2188 8.29688
Q40.1406 3.32812 35.5469 0.953125
Q30.9531 -1.42188 24.3125 -1.42188
Q15.9219 -1.42188 10.9531 3.29688
Q6 8.01562 6 15.9219
Q6 25.1406 12.1719 29.8281
Q18.3594 34.5156 30.6094 34.5156
L43.2188 34.5156
L43.2188 35.4062
Q43.2188 41.6094 39.1406 45
Q35.0625 48.3906 27.6875 48.3906
Q23 48.3906 18.5469 47.2656
Q14.1094 46.1406 10.0156 43.8906
L10.0156 52.2031
Q14.9375 54.1094 19.5781 55.0469
Q24.2188 56 28.6094 56
Q40.4844 56 46.3438 49.8438
Q52.2031 43.7031 52.2031 31.2031" id="DejaVuSans-61"/>
      <path d="
M48.6875 27.2969
Q48.6875 37.2031 44.6094 42.8438
Q40.5312 48.4844 33.4062 48.4844
Q26.2656 48.4844 22.1875 42.8438
Q18.1094 37.2031 18.1094 27.2969
Q18.1094 17.3906 22.1875 11.75
Q26.2656 6.10938 33.4062 6.10938
Q40.5312 6.10938 44.6094 11.75
Q48.6875 17.3906 48.6875 27.2969
M18.1094 46.3906
Q20.9531 51.2656 25.2656 53.625
Q29.5938 56 35.5938 56
Q45.5625 56 51.7812 48.0938
Q58.0156 40.1875 58.0156 27.2969
Q58.0156 14.4062 51.7812 6.48438
Q45.5625 -1.42188 35.5938 -1.42188
Q29.5938 -1.42188 25.2656 0.953125
Q20.9531 3.32812 18.1094 8.20312
L18.1094 0
L9.07812 0
L9.07812 75.9844
L18.1094 75.9844
z
" id="DejaVuSans-62"/>
      <path d="
M44.2812 53.0781
L44.2812 44.5781
Q40.4844 46.5312 36.375 47.5
Q32.2812 48.4844 27.875 48.4844
Q21.1875 48.4844 17.8438 46.4375
Q14.5 44.3906 14.5 40.2812
Q14.5 37.1562 16.8906 35.375
Q19.2812 33.5938 26.5156 31.9844
L29.5938 31.2969
Q39.1562 29.25 43.1875 25.5156
Q47.2188 21.7812 47.2188 15.0938
Q47.2188 7.46875 41.1875 3.01562
Q35.1562 -1.42188 24.6094 -1.42188
Q20.2188 -1.42188 15.4531 -0.5625
Q10.6875 0.296875 5.42188 2
L5.42188 11.2812
Q10.4062 8.6875 15.2344 7.39062
Q20.0625 6.10938 24.8125 6.10938
Q31.1562 6.10938 34.5625 8.28125
Q37.9844 10.4531 37.9844 14.4062
Q37.9844 18.0625 35.5156 20.0156
Q33.0625 21.9688 24.7031 23.7812
L21.5781 24.5156
Q13.2344 26.2656 9.51562 29.9062
Q5.8125 33.5469 5.8125 39.8906
Q5.8125 47.6094 11.2812 51.7969
Q16.75 56 26.8125 56
Q31.7812 56 36.1719 55.2656
Q40.5781 54.5469 44.2812 53.0781" id="DejaVuSans-73"/>
      <path d="
M-0.296875 72.9062
L61.375 72.9062
L61.375 64.5938
L35.5 64.5938
L35.5 0
L25.5938 0
L25.5938 64.5938
L-0.296875 64.5938
z
" id="DejaVuSans-54"/>
     </defs>
     <g transform="translate(16.318125 212.98875)rotate(-90.0)scale(0.12 -0.12)">
      <use xlink:href="#DejaVuSans-4e"/>
      <use x="74.8046875" xlink:href="#DejaVuSans-75"/>
      <use x="138.18359375" xlink:href="#DejaVuSans-6d"/>
      <use x="235.595703125" xlink:href="#DejaVuSans-62"/>
      <use x="299.072265625" xlink:href="#DejaVuSans-65"/>
      <use x="360.595703125" xlink:href="#DejaVuSans-72"/>
      <use x="401.708984375" xlink:href="#DejaVuSans-20"/>
      <use x="433.49609375" xlink:href="#DejaVuSans-6f"/>
      <use x="494.677734375" xlink:href="#DejaVuSans-66"/>
      <use x="529.8828125" xlink:href="#DejaVuSans-20"/>
      <use x="561.669921875" xlink:href="#DejaVuSans-54"/>
      <use x="606.25390625" xlink:href="#DejaVuSans-61"/>
      <use x="667.533203125" xlink:href="#DejaVuSans-67"/>
      <use x="731.009765625" xlink:href="#DejaVuSans-67"/>
      <use x="794.486328125" xlink:href="#DejaVuSans-65"/>
      <use x="856.009765625" xlink:href="#DejaVuSans-64"/>
      <use x="919.486328125" xlink:href="#DejaVuSans-20"/>
      <use x="951.2734375" xlink:href="#DejaVuSans-50"/>
      <use x="1007.07617188" xlink:href="#DejaVuSans-61"/>
      <use x="1068.35546875" xlink:href="#DejaVuSans-63"/>
      <use x="1123.3359375" xlink:href="#DejaVuSans-6b"/>
      <use x="1179.49609375" xlink:href="#DejaVuSans-61"/>
      <use x="1240.77539062" xlink:href="#DejaVuSans-67"/>
      <use x="1304.25195312" xlink:href="#DejaVuSans-65"/>
      <use x="1365.77539062" xlink:href="#DejaVuSans-73"/>
     </g>
    </g>
   </g>
   <g id="patch_3">
    <path d="
M56.2388 13.0069
L614.239 13.0069" style="fill:none;stroke:#000000;"/>
   </g>
   <g id="patch_4">
    <path d="
M614.239 243.407
L614.239 13.0069" style="fill:none;stroke:#000000;"/>
   </g>
   <g id="patch_5">
    <path d="
M56.2388 243.407
L614.239 243.407" style="fill:none;stroke:#000000;"/>
   </g>
   <g id="patch_6">
    <path d="
M56.2388 243.407
L56.2388 13.0069" style="fill:none;stroke:#000000;"/>
   </g>
   <g id="text_18">
    <g id="patch_7">
     <path d="
M123.08 124.199
L136.755 124.199
L136.755 89.8115
L123.08 89.8115
z
" style="fill:#ffffff;stroke:#ffffff;"/>
    </g>
    <!-- v0.3.0 -->
    <defs>
     <path d="
M40.5781 39.3125
Q47.6562 37.7969 51.625 33
Q55.6094 28.2188 55.6094 21.1875
Q55.6094 10.4062 48.1875 4.48438
Q40.7656 -1.42188 27.0938 -1.42188
Q22.5156 -1.42188 17.6562 -0.515625
Q12.7969 0.390625 7.625 2.20312
L7.625 11.7188
Q11.7188 9.32812 16.5938 8.10938
Q21.4844 6.89062 26.8125 6.89062
Q36.0781 6.89062 40.9375 10.5469
Q45.7969 14.2031 45.7969 21.1875
Q45.7969 27.6406 41.2812 31.2656
Q36.7656 34.9062 28.7188 34.9062
L20.2188 34.9062
L20.2188 43.0156
L29.1094 43.0156
Q36.375 43.0156 40.2344 45.9219
Q44.0938 48.8281 44.0938 54.2969
Q44.0938 59.9062 40.1094 62.9062
Q36.1406 65.9219 28.7188 65.9219
Q24.6562 65.9219 20.0156 65.0312
Q15.375 64.1562 9.8125 62.3125
L9.8125 71.0938
Q15.4375 72.6562 20.3438 73.4375
Q25.25 74.2188 29.5938 74.2188
Q40.8281 74.2188 47.3594 69.1094
Q53.9062 64.0156 53.9062 55.3281
Q53.9062 49.2656 50.4375 45.0938
Q46.9688 40.9219 40.5781 39.3125" id="DejaVuSans-33"/>
     <path d="
M2.98438 54.6875
L12.5 54.6875
L29.5938 8.79688
L46.6875 54.6875
L56.2031 54.6875
L35.6875 0
L23.4844 0
z
" id="DejaVuSans-76"/>
     <path d="
M10.6875 12.4062
L21 12.4062
L21 0
L10.6875 0
z
" id="DejaVuSans-2e"/>
    </defs>
    <g transform="translate(132.67569161 122.199316875)rotate(-90.0)scale(0.09996 -0.09996)">
     <use xlink:href="#DejaVuSans-76"/>
     <use x="59.1796875" xlink:href="#DejaVuSans-30"/>
     <use x="122.802734375" xlink:href="#DejaVuSans-2e"/>
     <use x="154.58984375" xlink:href="#DejaVuSans-33"/>
     <use x="218.212890625" xlink:href="#DejaVuSans-2e"/>
     <use x="250.0" xlink:href="#DejaVuSans-30"/>
    </g>
   </g>
   <g id="text_19">
    <g id="patch_8">
     <path d="
M139.568 85.54
L153.242 85.54
L153.242 51.4115
L139.568 51.4115
z
" style="fill:#ffffff;stroke:#ffffff;"/>
    </g>
    <!-- v0.3.1 -->
    <g transform="translate(149.163226236 83.540045625)rotate(-90.0)scale(0.09996 -0.09996)">
     <use xlink:href="#DejaVuSans-76"/>
     <use x="59.1796875" xlink:href="#DejaVuSans-30"/>
     <use x="122.802734375" xlink:href="#DejaVuSans-2e"/>
     <use x="154.58984375" xlink:href="#DejaVuSans-33"/>
     <use x="218.212890625" xlink:href="#DejaVuSans-2e"/>
     <use x="250.0" xlink:href="#DejaVuSans-31"/>
    </g>
   </g>
   <g id="text_20">
    <g id="patch_9">
     <path d="
M155.025 123.862
L168.699 123.862
L168.699 89.8115
L155.025 89.8115
z
" style="fill:#ffffff;stroke:#ffffff;"/>
    </g>
    <!-- v0.3.2 -->
    <g transform="translate(164.620289948 121.861951875)rotate(-90.0)scale(0.09996 -0.09996)">
     <use xlink:href="#DejaVuSans-76"/>
     <use x="59.1796875" xlink:href="#DejaVuSans-30"/>
     <use x="122.802734375" xlink:href="#DejaVuSans-2e"/>
     <use x="154.58984375" xlink:href="#DejaVuSans-33"/>
     <use x="218.212890625" xlink:href="#DejaVuSans-2e"/>
     <use x="250.0" xlink:href="#DejaVuSans-32"/>
    </g>
   </g>
   <g id="text_21">
    <g id="patch_10">
     <path d="
M172.028 85.6619
L185.702 85.6619
L185.702 51.4115
L172.028 51.4115
z
" style="fill:#ffffff;stroke:#ffffff;"/>
    </g>
    <!-- v0.3.3 -->
    <g transform="translate(181.623060031 83.661871875)rotate(-90.0)scale(0.09996 -0.09996)">
     <use xlink:href="#DejaVuSans-76"/>
     <use x="59.1796875" xlink:href="#DejaVuSans-30"/>
     <use x="122.802734375" xlink:href="#DejaVuSans-2e"/>
     <use x="154.58984375" xlink:href="#DejaVuSans-33"/>
     <use x="218.212890625" xlink:href="#DejaVuSans-2e"/>
     <use x="250.0" xlink:href="#DejaVuSans-33"/>
    </g>
   </g>
   <g id="text_22">
    <g id="patch_11">
     <path d="
M189.03 124.302
L202.705 124.302
L202.705 89.8115
L189.03 89.8115
z
" style="fill:#ffffff;stroke:#ffffff;"/>
    </g>
    <!-- v0.3.4 -->
    <g transform="translate(198.625830114 122.302400625)rotate(-90.0)scale(0.09996 -0.09996)">
     <use xlink:href="#DejaVuSans-76"/>
     <use x="59.1796875" xlink:href="#DejaVuSans-30"/>
     <use x="122.802734375" xlink:href="#DejaVuSans-2e"/>
     <use x="154.58984375" xlink:href="#DejaVuSans-33"/>
     <use x="218.212890625" xlink:href="#DejaVuSans-2e"/>
     <use x="250.0" xlink:href="#DejaVuSans-34"/>
    </g>
   </g>
   <g id="text_23">
    <g id="patch_12">
     <path d="
M195.728 85.59
L209.403 85.59
L209.403 51.4115
L195.728 51.4115
z
" style="fill:#ffffff;stroke:#ffffff;"/>
    </g>
    <!-- v0.3.5 -->
    <g transform="translate(205.323891056 83.590025625)rotate(-90.0)scale(0.09996 -0.09996)">
     <use xlink:href="#DejaVuSans-76"/>
     <use x="59.1796875" xlink:href="#DejaVuSans-30"/>
     <use x="122.802734375" xlink:href="#DejaVuSans-2e"/>
     <use x="154.58984375" xlink:href="#DejaVuSans-33"/>
     <use x="218.212890625" xlink:href="#DejaVuSans-2e"/>
     <use x="250.0" xlink:href="#DejaVuSans-35"/>
    </g>
   </g>
   <g id="text_24">
    <g id="patch_13">
     <path d="
M216.338 124.234
L230.012 124.234
L230.012 89.8115
L216.338 89.8115
z
" style="fill:#ffffff;stroke:#ffffff;"/>
    </g>
    <!-- v0.3.6 -->
    <g transform="translate(225.933309339 122.233678125)rotate(-90.0)scale(0.09996 -0.09996)">
     <use xlink:href="#DejaVuSans-76"/>
     <use x="59.1796875" xlink:href="#DejaVuSans-30"/>
     <use x="122.802734375" xlink:href="#DejaVuSans-2e"/>
     <use x="154.58984375" xlink:href="#DejaVuSans-33"/>
     <use x="218.212890625" xlink:href="#DejaVuSans-2e"/>
     <use x="250.0" xlink:href="#DejaVuSans-36"/>
    </g>
   </g>
   <g id="text_25">
    <g id="patch_14">
     <path d="
M233.856 85.6088
L247.53 85.6088
L247.53 51.4115
L233.856 51.4115
z
" style="fill:#ffffff;stroke:#ffffff;"/>
    </g>
    <!-- v0.3.7 -->
    <defs>
     <path d="
M8.20312 72.9062
L55.0781 72.9062
L55.0781 68.7031
L28.6094 0
L18.3125 0
L43.2188 64.5938
L8.20312 64.5938
z
" id="DejaVuSans-37"/>
    </defs>
    <g transform="translate(243.451314879 83.608768125)rotate(-90.0)scale(0.09996 -0.09996)">
     <use xlink:href="#DejaVuSans-76"/>
     <use x="59.1796875" xlink:href="#DejaVuSans-30"/>
     <use x="122.802734375" xlink:href="#DejaVuSans-2e"/>
     <use x="154.58984375" xlink:href="#DejaVuSans-33"/>
     <use x="218.212890625" xlink:href="#DejaVuSans-2e"/>
     <use x="250.0" xlink:href="#DejaVuSans-37"/>
    </g>
   </g>
   <g id="text_26">
    <g id="patch_15">
     <path d="
M253.435 124.179
L267.109 124.179
L267.109 89.8115
L253.435 89.8115
z
" style="fill:#ffffff;stroke:#ffffff;"/>
    </g>
    <!-- v0.3.8 -->
    <g transform="translate(263.030262247 122.1790125)rotate(-90.0)scale(0.09996 -0.09996)">
     <use xlink:href="#DejaVuSans-76"/>
     <use x="59.1796875" xlink:href="#DejaVuSans-30"/>
     <use x="122.802734375" xlink:href="#DejaVuSans-2e"/>
     <use x="154.58984375" xlink:href="#DejaVuSans-33"/>
     <use x="218.212890625" xlink:href="#DejaVuSans-2e"/>
     <use x="250.0" xlink:href="#DejaVuSans-38"/>
    </g>
   </g>
   <g id="text_27">
    <g id="patch_16">
     <path d="
M268.892 85.7603
L282.566 85.7603
L282.566 51.4115
L268.892 51.4115
z
" style="fill:#ffffff;stroke:#ffffff;"/>
    </g>
    <!-- v0.3.9 -->
    <defs>
     <path d="
M10.9844 1.51562
L10.9844 10.5
Q14.7031 8.73438 18.5 7.8125
Q22.3125 6.89062 25.9844 6.89062
Q35.75 6.89062 40.8906 13.4531
Q46.0469 20.0156 46.7812 33.4062
Q43.9531 29.2031 39.5938 26.9531
Q35.25 24.7031 29.9844 24.7031
Q19.0469 24.7031 12.6719 31.3125
Q6.29688 37.9375 6.29688 49.4219
Q6.29688 60.6406 12.9375 67.4219
Q19.5781 74.2188 30.6094 74.2188
Q43.2656 74.2188 49.9219 64.5156
Q56.5938 54.8281 56.5938 36.375
Q56.5938 19.1406 48.4062 8.85938
Q40.2344 -1.42188 26.4219 -1.42188
Q22.7031 -1.42188 18.8906 -0.6875
Q15.0938 0.046875 10.9844 1.51562
M30.6094 32.4219
Q37.25 32.4219 41.125 36.9531
Q45.0156 41.5 45.0156 49.4219
Q45.0156 57.2812 41.125 61.8438
Q37.25 66.4062 30.6094 66.4062
Q23.9688 66.4062 20.0938 61.8438
Q16.2188 57.2812 16.2188 49.4219
Q16.2188 41.5 20.0938 36.9531
Q23.9688 32.4219 30.6094 32.4219" id="DejaVuSans-39"/>
    </defs>
    <g transform="translate(278.487325959 83.76027)rotate(-90.0)scale(0.09996 -0.09996)">
     <use xlink:href="#DejaVuSans-76"/>
     <use x="59.1796875" xlink:href="#DejaVuSans-30"/>
     <use x="122.802734375" xlink:href="#DejaVuSans-2e"/>
     <use x="154.58984375" xlink:href="#DejaVuSans-33"/>
     <use x="218.212890625" xlink:href="#DejaVuSans-2e"/>
     <use x="250.0" xlink:href="#DejaVuSans-39"/>
    </g>
   </g>
   <g id="text_28">
    <g id="patch_17">
     <path d="
M281.773 130.559
L295.447 130.559
L295.447 89.8115
L281.773 89.8115
z
" style="fill:#ffffff;stroke:#ffffff;"/>
    </g>
    <!-- v0.3.10 -->
    <g transform="translate(291.368212386 128.559271875)rotate(-90.0)scale(0.09996 -0.09996)">
     <use xlink:href="#DejaVuSans-76"/>
     <use x="59.1796875" xlink:href="#DejaVuSans-30"/>
     <use x="122.802734375" xlink:href="#DejaVuSans-2e"/>
     <use x="154.58984375" xlink:href="#DejaVuSans-33"/>
     <use x="218.212890625" xlink:href="#DejaVuSans-2e"/>
     <use x="250.0" xlink:href="#DejaVuSans-31"/>
     <use x="313.623046875" xlink:href="#DejaVuSans-30"/>
    </g>
   </g>
   <g id="text_29">
    <g id="patch_18">
     <path d="
M298.776 91.9
L312.45 91.9
L312.45 51.4115
L298.776 51.4115
z
" style="fill:#ffffff;stroke:#ffffff;"/>
    </g>
    <!-- v0.3.11 -->
    <g transform="translate(308.370982469 89.900000625)rotate(-90.0)scale(0.09996 -0.09996)">
     <use xlink:href="#DejaVuSans-76"/>
     <use x="59.1796875" xlink:href="#DejaVuSans-30"/>
     <use x="122.802734375" xlink:href="#DejaVuSans-2e"/>
     <use x="154.58984375" xlink:href="#DejaVuSans-33"/>
     <use x="218.212890625" xlink:href="#DejaVuSans-2e"/>
     <use x="250.0" xlink:href="#DejaVuSans-31"/>
     <use x="313.623046875" xlink:href="#DejaVuSans-31"/>
    </g>
   </g>
   <g id="text_30">
    <g id="patch_19">
     <path d="
M345.662 130.222
L359.336 130.222
L359.336 89.8115
L345.662 89.8115
z
" style="fill:#ffffff;stroke:#ffffff;"/>
    </g>
    <!-- v0.3.12 -->
    <g transform="translate(355.257409062 128.221906875)rotate(-90.0)scale(0.09996 -0.09996)">
     <use xlink:href="#DejaVuSans-76"/>
     <use x="59.1796875" xlink:href="#DejaVuSans-30"/>
     <use x="122.802734375" xlink:href="#DejaVuSans-2e"/>
     <use x="154.58984375" xlink:href="#DejaVuSans-33"/>
     <use x="218.212890625" xlink:href="#DejaVuSans-2e"/>
     <use x="250.0" xlink:href="#DejaVuSans-31"/>
     <use x="313.623046875" xlink:href="#DejaVuSans-32"/>
    </g>
   </g>
   <g id="text_31">
    <g id="patch_20">
     <path d="
M336.388 229.799
L350.062 229.799
L350.062 195.411
L336.388 195.411
z
" style="fill:#ffffff;stroke:#ffffff;"/>
    </g>
    <!-- v0.4.0 -->
    <g transform="translate(345.983170834 227.799316875)rotate(-90.0)scale(0.09996 -0.09996)">
     <use xlink:href="#DejaVuSans-76"/>
     <use x="59.1796875" xlink:href="#DejaVuSans-30"/>
     <use x="122.802734375" xlink:href="#DejaVuSans-2e"/>
     <use x="154.58984375" xlink:href="#DejaVuSans-34"/>
     <use x="218.212890625" xlink:href="#DejaVuSans-2e"/>
     <use x="250.0" xlink:href="#DejaVuSans-30"/>
    </g>
   </g>
   <g id="text_32">
    <g id="patch_21">
     <path d="
M352.36 200.74
L366.034 200.74
L366.034 166.611
L352.36 166.611
z
" style="fill:#ffffff;stroke:#ffffff;"/>
    </g>
    <!-- v0.4.1 -->
    <g transform="translate(361.955470003 198.740045625)rotate(-90.0)scale(0.09996 -0.09996)">
     <use xlink:href="#DejaVuSans-76"/>
     <use x="59.1796875" xlink:href="#DejaVuSans-30"/>
     <use x="122.802734375" xlink:href="#DejaVuSans-2e"/>
     <use x="154.58984375" xlink:href="#DejaVuSans-34"/>
     <use x="218.212890625" xlink:href="#DejaVuSans-2e"/>
     <use x="250.0" xlink:href="#DejaVuSans-31"/>
    </g>
   </g>
   <g id="text_33">
    <g id="patch_22">
     <path d="
M366.787 229.462
L380.461 229.462
L380.461 195.411
L366.787 195.411
z
" style="fill:#ffffff;stroke:#ffffff;"/>
    </g>
    <!-- v0.4.2 -->
    <g transform="translate(376.382062801 227.461951875)rotate(-90.0)scale(0.09996 -0.09996)">
     <use xlink:href="#DejaVuSans-76"/>
     <use x="59.1796875" xlink:href="#DejaVuSans-30"/>
     <use x="122.802734375" xlink:href="#DejaVuSans-2e"/>
     <use x="154.58984375" xlink:href="#DejaVuSans-34"/>
     <use x="218.212890625" xlink:href="#DejaVuSans-2e"/>
     <use x="250.0" xlink:href="#DejaVuSans-32"/>
    </g>
   </g>
   <g id="text_34">
    <g id="patch_23">
     <path d="
M385.85 200.862
L399.525 200.862
L399.525 166.611
L385.85 166.611
z
" style="fill:#ffffff;stroke:#ffffff;"/>
    </g>
    <!-- v0.4.3 -->
    <g transform="translate(395.445774713 198.861871875)rotate(-90.0)scale(0.09996 -0.09996)">
     <use xlink:href="#DejaVuSans-76"/>
     <use x="59.1796875" xlink:href="#DejaVuSans-30"/>
     <use x="122.802734375" xlink:href="#DejaVuSans-2e"/>
     <use x="154.58984375" xlink:href="#DejaVuSans-34"/>
     <use x="218.212890625" xlink:href="#DejaVuSans-2e"/>
     <use x="250.0" xlink:href="#DejaVuSans-33"/>
    </g>
   </g>
   <g id="text_35">
    <g id="patch_24">
     <path d="
M419.341 229.59
L433.015 229.59
L433.015 195.411
L419.341 195.411
z
" style="fill:#ffffff;stroke:#ffffff;"/>
    </g>
    <!-- v0.4.5 -->
    <g transform="translate(428.936079422 227.590025625)rotate(-90.0)scale(0.09996 -0.09996)">
     <use xlink:href="#DejaVuSans-76"/>
     <use x="59.1796875" xlink:href="#DejaVuSans-30"/>
     <use x="122.802734375" xlink:href="#DejaVuSans-2e"/>
     <use x="154.58984375" xlink:href="#DejaVuSans-34"/>
     <use x="218.212890625" xlink:href="#DejaVuSans-2e"/>
     <use x="250.0" xlink:href="#DejaVuSans-35"/>
    </g>
   </g>
   <g id="text_36">
    <g id="patch_25">
     <path d="
M467.773 201.034
L481.447 201.034
L481.447 166.611
L467.773 166.611
z
" style="fill:#ffffff;stroke:#ffffff;"/>
    </g>
    <!-- v0.4.6 -->
    <g transform="translate(477.368212386 199.033678125)rotate(-90.0)scale(0.09996 -0.09996)">
     <use xlink:href="#DejaVuSans-76"/>
     <use x="59.1796875" xlink:href="#DejaVuSans-30"/>
     <use x="122.802734375" xlink:href="#DejaVuSans-2e"/>
     <use x="154.58984375" xlink:href="#DejaVuSans-34"/>
     <use x="218.212890625" xlink:href="#DejaVuSans-2e"/>
     <use x="250.0" xlink:href="#DejaVuSans-36"/>
    </g>
   </g>
   <g id="text_37">
    <g id="patch_26">
     <path d="
M514.659 229.609
L528.333 229.609
L528.333 195.411
L514.659 195.411
z
" style="fill:#ffffff;stroke:#ffffff;"/>
    </g>
    <!-- v0.4.7 -->
    <g transform="translate(524.254638979 227.608768125)rotate(-90.0)scale(0.09996 -0.09996)">
     <use xlink:href="#DejaVuSans-76"/>
     <use x="59.1796875" xlink:href="#DejaVuSans-30"/>
     <use x="122.802734375" xlink:href="#DejaVuSans-2e"/>
     <use x="154.58984375" xlink:href="#DejaVuSans-34"/>
     <use x="218.212890625" xlink:href="#DejaVuSans-2e"/>
     <use x="250.0" xlink:href="#DejaVuSans-37"/>
    </g>
   </g>
   <g id="text_38">
    <g id="patch_27">
     <path d="
M515.174 133.799
L528.849 133.799
L528.849 99.4115
L515.174 99.4115
z
" style="fill:#ffffff;stroke:#ffffff;"/>
    </g>
    <!-- v0.5.0 -->
    <g transform="translate(524.769874436 131.799316875)rotate(-90.0)scale(0.09996 -0.09996)">
     <use xlink:href="#DejaVuSans-76"/>
     <use x="59.1796875" xlink:href="#DejaVuSans-30"/>
     <use x="122.802734375" xlink:href="#DejaVuSans-2e"/>
     <use x="154.58984375" xlink:href="#DejaVuSans-35"/>
     <use x="218.212890625" xlink:href="#DejaVuSans-2e"/>
     <use x="250.0" xlink:href="#DejaVuSans-30"/>
    </g>
   </g>
   <g id="text_39">
    <g id="patch_28">
     <path d="
M601.219 114.34
L614.893 114.34
L614.893 80.2115
L601.219 80.2115
z
" style="fill:#ffffff;stroke:#ffffff;"/>
    </g>
    <!-- v0.5.1 -->
    <g transform="translate(610.814195765 112.340045625)rotate(-90.0)scale(0.09996 -0.09996)">
     <use xlink:href="#DejaVuSans-76"/>
     <use x="59.1796875" xlink:href="#DejaVuSans-30"/>
     <use x="122.802734375" xlink:href="#DejaVuSans-2e"/>
     <use x="154.58984375" xlink:href="#DejaVuSans-35"/>
     <use x="218.212890625" xlink:href="#DejaVuSans-2e"/>
     <use x="250.0" xlink:href="#DejaVuSans-31"/>
    </g>
   </g>
   <g id="legend_1">
    <g id="patch_29">
     <path d="
M61.2368 94.3649
L111.899 94.3649
L111.899 18.0049
L61.2368 18.0049
L61.2368 94.3649
z
" style="fill:#ffffff;stroke:#000000;"/>
    </g>
    <g id="line2d_60">
     <path d="
M68.234 26.1001
L82.2284 26.1001" style="fill:none;stroke:#ff0000;stroke-linecap:square;stroke-width:2;"/>
    </g>
    <g id="line2d_61"/>
    <g id="text_40">
     <!-- 0.2 -->
     <g transform="translate(93.22395 29.598673125)scale(0.09996 -0.09996)">
      <use xlink:href="#DejaVuSans-30"/>
      <use x="63.623046875" xlink:href="#DejaVuSans-2e"/>
      <use x="95.41015625" xlink:href="#DejaVuSans-32"/>
     </g>
    </g>
    <g id="line2d_62">
     <path d="
M68.234 40.7723
L82.2284 40.7723" style="fill:none;stroke:#008000;stroke-linecap:square;stroke-width:2;"/>
    </g>
    <g id="line2d_63"/>
    <g id="text_41">
     <!-- 0.3 -->
     <g transform="translate(93.22395 44.270926875)scale(0.09996 -0.09996)">
      <use xlink:href="#DejaVuSans-30"/>
      <use x="63.623046875" xlink:href="#DejaVuSans-2e"/>
      <use x="95.41015625" xlink:href="#DejaVuSans-33"/>
     </g>
    </g>
    <g id="line2d_64">
     <path d="
M68.234 55.4446
L82.2284 55.4446" style="fill:none;stroke:#0000ff;stroke-linecap:square;stroke-width:2;"/>
    </g>
    <g id="line2d_65"/>
    <g id="text_42">
     <!-- 0.4 -->
     <g transform="translate(93.22395 58.943180625)scale(0.09996 -0.09996)">
      <use xlink:href="#DejaVuSans-30"/>
      <use x="63.623046875" xlink:href="#DejaVuSans-2e"/>
      <use x="95.41015625" xlink:href="#DejaVuSans-34"/>
     </g>
    </g>
    <g id="line2d_66">
     <path d="
M68.234 70.1168
L82.2284 70.1168" style="fill:none;stroke:#000000;stroke-linecap:square;stroke-width:2;"/>
    </g>
    <g id="line2d_67"/>
    <g id="text_43">
     <!-- 0.5 -->
     <g transform="translate(93.22395 73.615434375)scale(0.09996 -0.09996)">
      <use xlink:href="#DejaVuSans-30"/>
      <use x="63.623046875" xlink:href="#DejaVuSans-2e"/>
      <use x="95.41015625" xlink:href="#DejaVuSans-35"/>
     </g>
    </g>
    <g id="line2d_68">
     <path d="
M68.234 84.7891
L82.2284 84.7891" style="fill:none;stroke:#bfbf00;stroke-linecap:square;stroke-width:2;"/>
    </g>
    <g id="line2d_69"/>
    <g id="text_44">
     <!-- 0.6 -->
     <g transform="translate(93.22395 88.287688125)scale(0.09996 -0.09996)">
      <use xlink:href="#DejaVuSans-30"/>
      <use x="63.623046875" xlink:href="#DejaVuSans-2e"/>
      <use x="95.41015625" xlink:href="#DejaVuSans-36"/>
     </g>
    </g>
   </g>
  </g>
 </g>
 <defs>
  <clipPath id="p472e73a826">
   <rect height="230.4" width="558.0" x="56.23875" y="13.006875"/>
  </clipPath>
 </defs>
</svg>
