<?xml version="1.0" encoding="utf-8" standalone="no"?>
<!DOCTYPE svg PUBLIC "-//W3C//DTD SVG 1.1//EN"
  "http://www.w3.org/Graphics/SVG/1.1/DTD/svg11.dtd">
<!-- Created with matplotlib (http://matplotlib.org/) -->
<svg height="310pt" version="1.1" viewBox="0 0 621 310" width="621pt" xmlns="http://www.w3.org/2000/svg" xmlns:xlink="http://www.w3.org/1999/xlink">
 <defs>
  <style type="text/css">
*{stroke-linecap:butt;stroke-linejoin:round;}
  </style>
 </defs>
 <g id="figure_1">
  <g id="patch_1">
   <path d="
M0 310.908
L621.439 310.908
L621.439 0
L0 0
z
" style="fill:#ffffff;"/>
  </g>
  <g id="axes_1">
   <g id="patch_2">
    <path d="
M56.2388 243.407
L614.239 243.407
L614.239 13.0069
L56.2388 13.0069
z
" style="fill:#ffffff;"/>
   </g>
   <g id="line2d_1">
    <path clip-path="url(#p8b363464d2)" d="
M107.345 223.967
L106.966 223.967
L106.587 224.255
L106.209 224.255
L105.83 224.399
L105.452 224.687
L105.073 224.687
L104.316 224.399
L103.938 224.399
L103.559 224.831
L103.18 224.831
L102.423 224.831
L102.045 224.831
L101.288 224.975
L100.909 224.975
L100.53 224.975
L100.152 225.119
L99.7733 225.119
L99.3948 225.119
L99.0162 225.263
L98.6377 225.263
L97.502 225.263
L97.1234 225.263
L96.7449 225.263
L96.3663 225.263
L95.6092 225.551
L94.852 225.839
L94.4735 225.839
L94.0949 225.983
L93.7164 226.127
L92.9592 226.415
L92.5807 226.415
L92.2021 226.415
L91.8236 226.559
L91.445 226.703
L91.0664 226.991
L90.3093 227.135
L89.9307 227.135
L89.5522 227.567
L89.1736 227.567
L88.7951 227.567
L88.4165 227.567
L88.0379 227.567
L87.6594 227.855
L86.9023 227.855
L86.5237 227.999
L86.1451 227.999
L85.7666 227.999
L85.388 227.999
L85.0094 227.999
L84.6309 228.287
L84.2523 228.431
L83.8738 228.575
L83.4952 228.575
L81.2238 229.295
L80.8453 229.295
L80.4667 229.439
L80.0881 229.439
L79.7096 229.583
L79.331 229.583
L78.9525 229.583
L78.5739 229.583
L78.1953 229.583
L77.8168 229.583
L77.4382 229.583
L77.0596 229.583
L76.6811 230.303
L76.3025 229.151
L75.924 229.295
L75.5454 229.295
L75.1668 229.295
L74.4097 229.439
L74.0312 229.439
L73.6526 229.871
L73.274 229.871
L72.8955 229.871
L72.5169 229.871
L72.1383 229.871
L71.7598 229.871
L71.3812 229.871
L71.0027 229.871
L70.6241 229.871
L70.2455 230.015
L67.5956 230.159
L66.8385 230.159
L65.7028 230.159
L63.0529 230.447
L62.6743 230.591
L61.9172 230.735
L61.5386 230.735
L60.7815 230.879
L60.0244 231.023
L59.6458 231.023
L58.8887 231.023
L58.5101 231.023
L58.1316 231.023
L57.753 231.023
L57.3744 231.023
L56.9959 231.023
L56.6173 231.167
L56.2388 231.167" style="fill:none;stroke:#ff0000;stroke-linecap:square;stroke-width:2;"/>
   </g>
   <g id="line2d_2">
    <path clip-path="url(#p8b363464d2)" d="
M399.594 172.127
L389.373 172.127
L388.995 172.271
L387.859 172.127
L383.695 172.127
L383.316 172.271
L382.938 172.127
L382.559 172.127
L382.18 172.271
L381.802 172.127
L380.666 172.127
L380.288 172.271
L378.395 172.271
L378.016 172.127
L373.473 172.127
L373.095 172.271
L372.716 172.127
L370.066 172.127
L369.688 172.271
L369.309 172.127
L368.931 172.271
L368.552 172.127
L364.009 172.127
L363.631 172.271
L362.874 172.271
L362.495 172.415
L361.738 172.271
L361.36 172.415
L360.981 172.271
L359.845 172.271
L359.467 172.415
L359.088 172.271
L356.817 172.271
L356.438 172.415
L356.06 172.271
L354.167 172.271
L353.788 172.415
L313.282 173.279
L311.011 173.567
L309.497 173.567
L301.547 173.711
L293.218 173.711
L288.297 174.143
L285.269 174.431
L281.862 174.431
L281.104 174.719
L279.59 174.431
L270.505 174.719
L267.855 175.295
L266.341 175.439
L264.448 176.015
L262.933 176.735
L256.876 178.175
L254.984 178.463
L253.091 178.607
L251.955 178.895
L245.52 180.911
L239.084 182.351
L232.649 184.367
L232.27 184.367
L231.891 184.511
L231.513 184.799
L231.134 185.375
L230.756 185.663
L229.999 185.519
L229.241 185.807
L228.106 185.807
L227.727 185.951
L226.97 185.951
L226.592 186.239
L226.213 186.239
L225.834 186.527
L225.456 186.527
L224.32 186.383
L220.156 187.247
L219.399 187.247
L216.749 188.255
L215.992 188.255
L212.963 188.831
L212.585 189.119
L211.071 189.407
L207.663 190.559
L207.285 190.991
L206.528 191.279
L205.771 191.279
L205.392 191.423
L203.878 191.711
L203.499 192.143
L203.121 192.287
L202.742 192.287
L201.985 193.007
L200.849 193.439
L199.335 193.439
L198.578 193.871
L197.821 193.871
L195.549 194.015
L195.171 194.447
L194.414 194.447
L189.871 194.591
L189.492 194.879
L189.114 194.735
L188.735 195.023
L188.357 195.023
L187.978 195.167
L187.6 195.455
L186.085 195.743
L184.193 195.743
L183.814 196.031
L183.057 196.031
L181.164 196.607
L179.271 197.471
L177.379 197.471
L175.864 197.759
L174.35 198.623
L173.971 198.623
L173.593 198.335
L172.079 199.487
L171.7 199.631
L171.322 199.919
L170.564 200.351
L169.807 200.351
L169.429 200.495
L169.05 200.927
L168.672 200.927
L168.293 201.215
L166.779 201.215
L166.4 201.935
L166.022 201.935
L165.643 202.223
L164.129 203.231
L161.479 204.095
L159.586 205.103
L156.936 205.679
L156.179 205.967
L154.665 205.967
L154.286 206.111
L153.151 206.687
L151.636 207.119
L151.258 207.407
L150.501 207.407
L149.743 207.695
L148.986 207.695
L146.715 207.839
L145.201 208.559
L144.822 208.559
L144.444 208.991
L144.065 208.991
L143.687 209.135
L143.308 209.135
L142.929 209.423
L141.037 210.143
L139.901 210.143
L139.522 210.287
L139.144 210.287
L138.765 210.431
L138.008 210.431
L137.63 210.575
L137.251 210.575
L136.872 210.719
L136.494 211.007
L136.115 211.007
L135.737 211.151
L135.358 211.151
L134.98 211.295
L134.222 211.295
L133.844 211.583
L133.465 211.727
L132.33 211.727
L131.573 212.015
L131.194 212.015
L130.815 212.303
L130.058 212.303
L129.68 212.447
L129.301 212.735
L128.923 212.735
L127.787 213.023
L127.408 213.311
L127.03 213.311
L126.651 210.719
L126.273 213.599
L125.894 213.887
L125.516 213.887
L125.137 214.031
L124.001 213.887
L123.623 214.031
L122.866 214.031
L122.108 214.319
L120.594 214.319
L120.216 215.471
L119.459 215.471
L119.08 215.759
L118.323 216.047
L117.187 216.911
L114.916 216.911
L114.159 217.199
L113.78 217.631
L113.023 215.903
L112.266 216.191
L111.887 216.623
L111.13 216.623
L110.752 216.767
L110.373 216.767
L109.616 217.199
L108.859 217.199
L108.102 217.487
L107.723 217.487
L107.345 217.775
L105.83 218.351
L105.452 218.639
L105.073 218.639
L103.938 218.783
L103.559 219.215
L103.18 219.359
L101.288 219.359
L100.152 219.791
L99.3948 219.791
L99.0162 219.935
L98.6377 219.935
L96.3663 220.223
L95.6092 220.655
L94.852 221.375
L94.0949 221.375
L93.7164 221.807
L92.9592 221.951
L92.5807 222.239
L92.2021 222.239
L91.445 222.527
L91.0664 222.815
L89.9307 222.959
L89.5522 223.391
L88.0379 223.391
L87.6594 223.679
L86.9023 223.679
L86.1451 223.967
L85.7666 223.967
L85.388 224.255
L85.0094 224.255
L84.6309 224.543
L80.4667 226.127
L80.0881 232.031
L79.7096 226.271
L79.331 226.271
L78.9525 226.415
L77.4382 226.415
L77.0596 226.559
L76.3025 226.559
L75.924 226.847
L75.1668 226.847
L74.4097 226.991
L74.0312 227.423
L71.0027 227.423
L70.6241 227.567
L70.2455 227.855
L65.7028 227.999
L61.9172 228.719
L61.5386 228.719
L60.7815 229.007
L58.1316 229.439
L56.9959 229.439
L56.6173 229.583
L56.2388 229.583
L56.2388 229.583" style="fill:none;stroke:#008000;stroke-linecap:square;stroke-width:2;"/>
   </g>
   <g id="line2d_3">
    <path clip-path="url(#p8b363464d2)" d="
M564.647 112.655
L563.89 112.655
L532.469 112.943
L530.198 112.799
L529.819 112.943
L526.412 112.943
L526.034 113.231
L525.655 113.375
L525.277 112.943
L524.52 113.231
L524.141 113.087
L512.027 113.087
L511.649 113.231
L511.27 113.087
L501.427 113.087
L501.049 113.231
L495.37 113.231
L494.992 113.375
L494.613 114.095
L494.235 113.375
L491.963 113.375
L491.585 113.231
L491.206 113.375
L487.799 113.375
L485.528 113.663
L485.149 113.519
L483.635 113.519
L483.256 113.663
L482.878 113.519
L482.121 113.519
L481.742 113.663
L476.442 113.663
L473.035 113.951
L472.278 113.951
L471.9 114.095
L470.764 114.095
L470.385 114.239
L470.007 114.095
L467.735 114.095
L467.357 114.239
L463.95 114.239
L463.571 114.383
L463.193 114.383
L462.435 114.527
L460.543 114.239
L458.65 114.239
L458.271 114.383
L454.107 114.383
L437.072 114.671
L435.558 114.959
L434.422 114.959
L434.043 115.103
L432.151 114.815
L431.772 114.959
L429.501 114.959
L427.986 115.535
L427.229 115.535
L426.851 116.255
L424.958 115.535
L423.065 115.535
L420.415 115.823
L419.279 115.823
L418.522 115.967
L415.115 115.967
L414.358 116.687
L413.98 116.831
L412.844 116.687
L412.465 116.975
L408.68 117.263
L407.923 117.551
L406.03 117.551
L405.273 117.839
L404.516 117.839
L403.758 118.127
L400.73 118.127
L400.351 118.271
L399.973 118.703
L398.837 119.135
L398.459 119.711
L397.701 119.711
L397.323 119.855
L396.944 119.855
L396.187 120.143
L395.809 120.575
L395.052 120.863
L394.673 120.863
L394.294 121.151
L393.537 121.151
L393.159 121.295
L392.78 121.295
L392.402 121.583
L391.644 121.871
L391.266 122.159
L390.509 122.159
L389.752 122.447
L388.995 122.447
L388.237 122.735
L387.859 123.167
L387.48 123.311
L387.102 123.599
L386.723 123.599
L386.345 123.743
L385.966 123.743
L385.587 123.887
L385.209 123.887
L384.073 124.319
L382.18 124.319
L381.802 124.607
L381.423 124.607
L381.045 124.895
L380.666 124.895
L380.288 125.183
L379.909 125.183
L379.53 125.039
L379.152 125.039
L378.395 125.615
L378.016 125.759
L377.259 126.479
L376.123 126.335
L375.745 126.623
L374.988 126.911
L374.609 126.911
L374.231 127.055
L373.852 127.055
L372.338 127.631
L371.581 127.775
L371.202 128.063
L370.824 128.063
L370.445 128.207
L370.066 128.063
L369.688 128.063
L368.931 128.351
L368.552 128.351
L367.795 128.639
L367.416 128.495
L367.038 128.495
L366.281 128.783
L365.902 128.783
L365.524 128.927
L365.145 128.927
L364.009 129.359
L363.631 129.935
L363.252 129.935
L362.874 130.079
L362.495 130.511
L361.36 130.799
L360.602 131.087
L359.845 131.087
L359.467 131.231
L359.088 131.231
L357.952 131.663
L357.574 131.519
L357.195 131.663
L356.817 131.663
L356.06 132.527
L355.681 132.527
L355.303 132.671
L354.924 132.527
L354.545 132.671
L354.167 132.959
L353.788 133.103
L347.731 136.415
L328.046 145.775
L321.989 150.383
L313.282 153.263
L311.011 154.703
L309.497 155.999
L301.547 158.735
L293.218 161.183
L291.326 161.615
L288.297 162.911
L285.269 163.631
L281.862 164.207
L281.104 164.783
L279.59 164.927
L275.047 166.511
L270.505 169.679
L269.369 170.111
L267.855 170.831
L266.341 167.231
L264.448 168.527
L262.933 169.391
L256.876 172.127
L254.984 173.135
L251.955 173.999
L245.52 177.599
L242.113 178.319
L239.084 179.183
L232.649 181.343
L232.27 181.343
L231.891 181.487
L231.513 181.775
L231.134 182.351
L230.756 182.639
L229.999 182.639
L229.241 182.927
L226.97 183.215
L226.592 183.647
L226.213 183.647
L225.834 183.935
L224.32 183.935
L220.156 185.231
L219.399 185.231
L218.642 185.519
L218.263 185.807
L217.885 185.951
L216.749 186.527
L215.992 186.527
L212.963 186.959
L212.585 187.247
L211.071 187.535
L207.663 188.687
L207.285 189.119
L206.528 189.407
L205.771 189.407
L205.392 189.695
L203.878 189.983
L203.499 190.271
L203.121 190.415
L202.742 190.415
L201.606 191.567
L200.849 191.855
L199.335 192.143
L198.578 192.575
L197.821 192.719
L195.549 192.863
L195.171 193.295
L194.414 193.295
L189.871 193.871
L189.492 194.159
L189.114 194.015
L188.735 194.303
L187.978 194.303
L187.6 194.591
L185.328 194.735
L184.571 195.023
L184.193 195.023
L183.814 195.311
L183.057 195.311
L181.164 196.607
L179.271 196.751
L177.379 196.751
L175.864 197.039
L174.35 197.903
L173.971 197.471
L173.593 197.471
L172.079 198.623
L171.7 198.767
L171.322 199.199
L170.564 199.631
L169.807 199.631
L169.429 199.775
L169.05 200.207
L168.672 200.207
L168.293 200.351
L167.157 200.495
L166.779 200.495
L166.4 201.359
L166.022 201.359
L165.643 201.647
L164.129 202.655
L161.479 203.663
L160.343 203.951
L159.586 204.527
L156.936 205.103
L156.179 205.391
L154.286 205.391
L153.529 205.967
L153.151 206.111
L152.015 206.255
L151.258 206.831
L150.501 206.831
L150.122 206.975
L149.743 207.263
L148.986 207.263
L146.715 207.407
L145.201 208.127
L144.822 208.127
L144.444 208.559
L144.065 208.559
L143.687 208.703
L143.308 208.703
L142.929 208.991
L141.037 209.855
L139.901 209.855
L139.144 210.143
L138.008 210.143
L137.63 210.287
L137.251 210.287
L136.872 210.431
L136.494 210.719
L136.115 210.719
L135.737 210.863
L135.358 210.863
L134.98 211.007
L134.222 211.007
L133.465 211.583
L132.33 211.583
L131.573 211.871
L131.194 211.871
L130.815 212.159
L130.058 212.159
L129.68 212.303
L129.301 212.591
L128.923 212.591
L127.787 212.879
L127.408 213.167
L126.651 213.167
L125.894 213.743
L125.516 213.743
L125.137 213.887
L124.001 213.743
L123.623 213.887
L122.866 213.887
L122.487 214.031
L122.108 214.031
L120.973 214.175
L120.594 214.175
L120.216 215.327
L119.459 215.327
L119.08 215.615
L118.323 215.903
L117.187 216.767
L114.916 216.767
L114.159 217.055
L113.78 217.487
L113.023 217.775
L112.644 217.775
L112.266 218.063
L111.887 218.495
L111.13 218.495
L110.752 218.639
L110.373 218.639
L109.616 219.071
L108.859 219.071
L108.102 219.359
L107.723 219.791
L107.723 219.791" style="fill:none;stroke:#0000ff;stroke-linecap:square;stroke-width:2;"/>
   </g>
   <g id="line2d_4">
    <path clip-path="url(#p8b363464d2)" d="
M577.518 67.7269
L572.976 68.3029
L564.647 68.4469
L563.89 68.3029
L532.469 70.6069
L530.198 70.4629
L529.819 70.7509
L528.305 70.8949
L527.17 70.7509
L526.791 70.7509
L526.412 71.0389
L526.034 71.0389
L525.655 72.9109
L525.277 71.3269
L524.52 71.6149
L524.141 71.6149
L523.384 71.7589
L523.005 71.3269
L522.627 71.9029
L521.491 71.1829
L520.734 71.0389
L520.355 71.4709
L519.22 71.4709
L518.841 71.3269
L518.463 71.4709
L518.084 71.3269
L517.327 71.3269
L516.948 71.4709
L516.57 71.7589
L515.434 71.7589
L515.056 71.6149
L514.298 71.9029
L513.92 71.9029
L513.541 71.7589
L512.784 72.0469
L512.027 71.9029
L511.649 72.0469
L511.27 71.9029
L510.891 72.0469
L509.377 72.3349
L508.999 72.1909
L508.62 72.1909
L508.241 72.0469
L507.863 72.1909
L507.106 72.1909
L506.727 72.3349
L505.97 72.1909
L505.213 72.6229
L504.834 72.6229
L504.456 72.7669
L504.077 73.0549
L503.699 73.1989
L503.32 72.9109
L502.184 73.3429
L501.806 73.1989
L501.427 73.3429
L501.049 73.7749
L500.67 73.9189
L500.292 73.7749
L499.535 73.9189
L499.156 74.4949
L498.777 74.3509
L498.399 74.4949
L498.02 74.7829
L497.642 74.7829
L497.263 75.2149
L496.885 74.9269
L496.506 74.9269
L496.127 75.3589
L495.749 75.2149
L495.37 75.2149
L494.613 76.5109
L494.235 76.2229
L493.856 76.2229
L493.478 76.5109
L492.72 76.7989
L491.963 77.3749
L491.585 77.8069
L491.206 77.6629
L490.828 77.8069
L490.449 78.0949
L490.071 77.8069
L489.692 78.0949
L487.799 78.0949
L486.663 79.2469
L485.149 79.8229
L484.771 79.6789
L484.014 80.8309
L483.635 80.6869
L483.256 80.9749
L482.878 80.8309
L482.499 80.8309
L482.121 80.9749
L481.742 80.9749
L481.364 81.6949
L480.606 82.4149
L479.849 82.7029
L479.471 82.7029
L479.092 82.9909
L478.714 83.4229
L478.335 83.4229
L477.578 83.7109
L477.199 83.7109
L476.821 84.1429
L476.442 84.1429
L473.792 85.7269
L473.414 86.1589
L473.035 86.0149
L472.657 86.0149
L472.278 86.1589
L471.521 86.8789
L471.142 86.7349
L470.764 87.0229
L470.385 87.7429
L470.007 87.7429
L469.25 88.0309
L468.492 88.0309
L468.114 88.3189
L467.735 88.3189
L467.357 88.6069
L466.978 89.0389
L466.6 88.7509
L466.221 88.7509
L465.843 89.0389
L465.464 89.9029
L465.085 90.0469
L464.707 89.9029
L464.328 90.0469
L463.95 89.9029
L463.571 90.3349
L463.193 90.4789
L462.435 90.3349
L460.543 90.1909
L460.164 90.7669
L459.407 91.4869
L459.028 92.2069
L458.65 92.3509
L458.271 92.6389
L457.514 92.7829
L457.136 93.0709
L454.107 93.3589
L440.1 98.9749
L438.208 98.9749
L437.829 99.6949
L437.072 99.6949
L435.558 100.271
L434.422 100.271
L434.043 100.847
L432.151 101.135
L431.772 101.999
L431.015 102.287
L430.636 103.151
L429.501 103.151
L429.122 103.295
L427.986 104.303
L427.229 104.303
L426.851 105.167
L424.958 104.303
L424.579 104.303
L424.201 104.447
L423.822 104.447
L423.444 104.303
L423.065 104.447
L421.929 105.023
L420.794 105.167
L420.415 105.167
L419.658 105.311
L419.279 105.167
L418.522 105.455
L417.765 106.031
L417.387 106.751
L416.63 106.463
L415.872 106.751
L415.494 107.327
L415.115 107.471
L414.737 107.903
L414.358 108.623
L413.98 108.911
L412.844 109.055
L412.465 110.207
L407.923 111.935
L407.544 111.935
L406.787 112.511
L406.03 112.511
L405.273 113.519
L404.516 113.519
L404.137 113.663
L403.758 113.951
L403.001 114.239
L402.623 114.815
L402.244 114.815
L401.866 114.959
L401.487 115.247
L400.73 115.535
L399.973 116.543
L399.594 116.543
L399.216 116.831
L398.837 116.975
L398.459 115.103
L397.701 114.959
L397.323 115.103
L396.566 115.679
L396.187 115.823
L395.809 117.407
L395.43 117.983
L394.294 118.415
L393.916 118.847
L393.537 118.703
L393.159 118.703
L392.78 117.695
L392.402 117.983
L392.023 118.559
L391.644 118.559
L391.266 118.991
L390.887 119.135
L390.509 118.991
L388.995 119.567
L388.237 119.999
L387.859 120.575
L387.48 120.575
L387.102 120.863
L386.723 120.863
L385.587 121.295
L385.209 121.295
L384.452 122.015
L384.073 122.015
L383.695 122.159
L383.316 122.015
L382.18 122.015
L381.802 122.303
L381.423 123.311
L381.045 122.591
L380.666 122.735
L380.288 123.023
L379.53 123.311
L379.152 123.311
L378.395 124.463
L378.016 124.463
L377.259 125.183
L376.123 125.039
L375.745 125.327
L375.366 125.759
L374.988 125.903
L374.609 125.903
L374.231 126.047
L373.852 126.047
L373.473 126.191
L373.095 126.479
L372.716 126.479
L372.338 126.623
L371.581 126.767
L371.202 127.199
L370.445 127.199
L370.066 127.055
L369.309 127.343
L368.552 127.343
L368.174 127.487
L367.795 127.487
L367.416 127.631
L367.038 127.631
L365.524 128.207
L365.145 128.207
L364.388 128.783
L364.009 128.783
L363.631 129.359
L363.252 129.359
L362.874 129.503
L362.495 129.791
L360.602 130.511
L359.845 130.511
L359.467 130.655
L359.088 130.655
L358.331 130.943
L357.952 130.943
L357.574 131.087
L357.195 130.943
L356.817 131.087
L356.06 131.951
L354.924 131.951
L354.545 132.095
L354.167 132.383
L353.788 132.527
L328.046 145.919
L321.989 150.383
L313.282 153.407
L311.011 154.703
L309.497 155.999
L301.547 158.879
L288.676 162.479
L288.297 162.767
L285.269 163.487
L285.269 163.487" style="fill:none;stroke:#000000;stroke-linecap:square;stroke-width:2;"/>
   </g>
   <g id="line2d_5">
    <path clip-path="url(#p8b363464d2)" d="
M614.239 14.8789
L613.482 15.3109
L612.725 15.5989
L611.967 15.5989
L611.21 16.6069
L610.453 17.0389
L609.317 17.3269
L600.232 23.0869
L599.475 23.9509
L598.718 23.9509
L597.961 25.1029
L597.203 24.9589
L596.446 26.3989
L595.689 25.8229
L594.932 26.5429
L594.175 28.2709
L592.661 28.1269
L591.904 28.8469
L591.146 29.2789
L590.389 28.8469
L589.632 28.8469
L588.875 28.5589
L588.118 28.8469
L586.982 29.7109
L585.468 31.7269
L584.711 32.3029
L583.954 32.4469
L583.197 33.0229
L582.44 33.3109
L581.682 33.7429
L580.925 33.8869
L580.168 34.6069
L578.275 36.0469
L577.518 35.3269
L572.976 36.6229
L563.89 40.7989
L532.469 60.5269
L530.198 61.3909
L529.819 62.1109
L528.684 62.9749
L528.305 62.9749
L527.17 63.4069
L526.791 63.8389
L526.034 64.1269
L525.655 66.7189
L525.277 64.7029
L524.898 66.2869
L524.52 66.1429
L524.141 66.1429
L523.384 66.5749
L523.005 67.0069
L522.627 67.1509
L519.977 67.8709
L518.463 69.3109
L518.084 69.8869
L516.191 70.3189
L515.813 70.6069
L515.434 70.7509
L515.056 70.6069
L514.677 70.8949
L514.298 70.8949
L513.541 71.1829
L513.163 71.4709
L512.784 71.6149
L512.027 71.7589
L511.649 72.0469
L511.27 71.7589
L510.891 72.0469
L510.134 72.7669
L509.756 72.6229
L509.377 72.9109
L508.999 72.7669
L508.241 72.7669
L507.863 73.0549
L506.727 73.1989
L505.97 73.1989
L505.213 74.2069
L504.834 74.2069
L504.456 74.4949
L502.942 75.0709
L502.184 75.7909
L501.806 70.0309
L501.427 70.1749
L501.049 70.7509
L500.292 71.0389
L499.535 71.1829
L498.777 71.9029
L498.399 72.0469
L498.02 73.0549
L497.642 73.1989
L497.263 73.7749
L496.885 75.9349
L496.506 73.9189
L496.127 74.3509
L495.749 74.2069
L495.37 74.3509
L494.992 75.0709
L494.613 75.3589
L493.856 75.3589
L493.478 75.9349
L493.099 75.9349
L492.72 76.2229
L491.963 76.9429
L490.828 77.8069
L490.449 77.6629
L489.692 77.9509
L489.313 77.9509
L488.935 78.0949
L488.556 78.0949
L487.799 78.3829
L485.528 80.2549
L485.149 80.3989
L484.771 80.3989
L484.392 81.1189
L484.014 81.2629
L483.635 81.5509
L483.256 81.4069
L482.499 81.6949
L482.121 81.5509
L481.742 81.6949
L481.364 82.4149
L480.985 82.7029
L480.606 82.8469
L479.849 83.4229
L479.471 83.2789
L479.092 83.8549
L478.714 83.7109
L478.335 83.8549
L477.578 84.4309
L476.821 84.4309
L476.442 84.8629
L473.792 86.4469
L473.414 86.4469
L473.035 86.8789
L472.278 86.5909
L471.9 87.1669
L471.521 87.1669
L471.142 87.3109
L469.628 89.0389
L469.25 88.6069
L468.492 88.6069
L468.114 88.8949
L467.735 88.8949
L467.357 89.3269
L466.978 89.4709
L466.6 89.4709
L465.843 89.7589
L465.464 91.0549
L465.085 90.6229
L464.328 90.9109
L463.95 90.3349
L463.571 90.6229
L462.435 91.0549
L460.921 90.7669
L460.543 90.9109
L460.164 91.3429
L459.407 91.9189
L459.028 93.0709
L458.65 93.0709
L458.271 93.3589
L454.107 94.0789
L440.1 99.6949
L438.208 99.6949
L437.829 100.415
L434.422 100.991
L434.043 101.567
L432.151 101.567
L431.772 102.575
L431.015 102.863
L430.636 103.727
L429.501 103.727
L429.122 104.015
L427.986 104.735
L427.608 104.735
L427.229 104.879
L426.851 105.455
L424.958 104.879
L424.579 105.023
L424.201 104.879
L423.065 104.879
L421.929 105.599
L420.794 105.743
L419.279 105.743
L418.522 106.031
L417.765 106.607
L417.387 107.039
L416.63 107.039
L415.872 107.327
L415.494 107.759
L415.115 107.759
L413.98 109.487
L412.844 109.487
L412.465 110.783
L408.68 112.511
L407.544 112.655
L406.787 113.231
L406.03 113.231
L405.273 114.239
L404.137 114.239
L403.758 114.671
L403.001 114.959
L402.623 115.535
L400.73 116.255
L399.973 117.119
L399.973 117.119" style="fill:none;stroke:#bfbf00;stroke-linecap:square;stroke-width:2;"/>
   </g>
   <g id="line2d_6">
    <path clip-path="url(#p8b363464d2)" d="
M614.239 15.0229
L613.482 15.3109
L612.725 15.3109
L611.967 15.5989
L611.21 16.8949
L610.453 17.7589
L609.317 18.4789
L600.232 25.2469
L599.475 26.5429
L598.718 26.3989
L597.961 27.9829
L597.203 27.2629
L596.446 28.5589
L595.689 28.2709
L594.932 28.8469
L594.175 29.9989
L592.661 33.1669
L591.904 32.5909
L591.146 32.7349
L590.389 32.4469
L589.632 30.8629
L588.875 31.0069
L588.118 30.7189
L586.982 31.8709
L585.468 33.1669
L584.711 32.5909
L583.954 32.5909
L583.197 32.7349
L582.44 33.1669
L581.682 33.7429
L580.925 35.0389
L580.168 35.6149
L578.275 41.2309
L577.518 41.3749" style="fill:none;stroke:#bf00bf;stroke-linecap:square;stroke-width:2;"/>
   </g>
   <g id="line2d_7">
    <path clip-path="url(#p8b363464d2)" d="
M110.373 243.407
L110.373 13.0069" style="fill:none;stroke:#333333;stroke-linecap:square;"/>
   </g>
   <g id="line2d_8">
    <path clip-path="url(#p8b363464d2)" d="
M122.487 243.407
L122.487 13.0069" style="fill:none;stroke:#cccccc;stroke-linecap:square;"/>
   </g>
   <g id="line2d_9">
    <path clip-path="url(#p8b363464d2)" d="
M133.844 243.407
L133.844 13.0069" style="fill:none;stroke:#cccccc;stroke-linecap:square;"/>
   </g>
   <g id="line2d_10">
    <path clip-path="url(#p8b363464d2)" d="
M146.336 243.407
L146.336 13.0069" style="fill:none;stroke:#cccccc;stroke-linecap:square;"/>
   </g>
   <g id="line2d_11">
    <path clip-path="url(#p8b363464d2)" d="
M158.829 243.407
L158.829 13.0069" style="fill:none;stroke:#cccccc;stroke-linecap:square;"/>
   </g>
   <g id="line2d_12">
    <path clip-path="url(#p8b363464d2)" d="
M163.75 243.407
L163.75 13.0069" style="fill:none;stroke:#cccccc;stroke-linecap:square;"/>
   </g>
   <g id="line2d_13">
    <path clip-path="url(#p8b363464d2)" d="
M178.893 243.407
L178.893 13.0069" style="fill:none;stroke:#cccccc;stroke-linecap:square;"/>
   </g>
   <g id="line2d_14">
    <path clip-path="url(#p8b363464d2)" d="
M191.764 243.407
L191.764 13.0069" style="fill:none;stroke:#cccccc;stroke-linecap:square;"/>
   </g>
   <g id="line2d_15">
    <path clip-path="url(#p8b363464d2)" d="
M206.149 243.407
L206.149 13.0069" style="fill:none;stroke:#cccccc;stroke-linecap:square;"/>
   </g>
   <g id="line2d_16">
    <path clip-path="url(#p8b363464d2)" d="
M217.506 243.407
L217.506 13.0069" style="fill:none;stroke:#cccccc;stroke-linecap:square;"/>
   </g>
   <g id="line2d_17">
    <path clip-path="url(#p8b363464d2)" d="
M226.97 243.407
L226.97 13.0069" style="fill:none;stroke:#cccccc;stroke-linecap:square;"/>
   </g>
   <g id="line2d_18">
    <path clip-path="url(#p8b363464d2)" d="
M239.463 243.407
L239.463 13.0069" style="fill:none;stroke:#cccccc;stroke-linecap:square;"/>
   </g>
   <g id="line2d_19">
    <path clip-path="url(#p8b363464d2)" d="
M273.912 243.407
L273.912 13.0069" style="fill:none;stroke:#cccccc;stroke-linecap:square;"/>
   </g>
   <g id="line2d_20">
    <path clip-path="url(#p8b363464d2)" d="
M267.098 243.407
L267.098 13.0069" style="fill:none;stroke:#333333;stroke-linecap:square;"/>
   </g>
   <g id="line2d_21">
    <path clip-path="url(#p8b363464d2)" d="
M278.833 243.407
L278.833 13.0069" style="fill:none;stroke:#cccccc;stroke-linecap:square;"/>
   </g>
   <g id="line2d_22">
    <path clip-path="url(#p8b363464d2)" d="
M289.433 243.407
L289.433 13.0069" style="fill:none;stroke:#cccccc;stroke-linecap:square;"/>
   </g>
   <g id="line2d_23">
    <path clip-path="url(#p8b363464d2)" d="
M303.44 243.407
L303.44 13.0069" style="fill:none;stroke:#cccccc;stroke-linecap:square;"/>
   </g>
   <g id="line2d_24">
    <path clip-path="url(#p8b363464d2)" d="
M328.046 243.407
L328.046 13.0069" style="fill:none;stroke:#cccccc;stroke-linecap:square;"/>
   </g>
   <g id="line2d_25">
    <path clip-path="url(#p8b363464d2)" d="
M363.631 243.407
L363.631 13.0069" style="fill:none;stroke:#cccccc;stroke-linecap:square;"/>
   </g>
   <g id="line2d_26">
    <path clip-path="url(#p8b363464d2)" d="
M398.08 243.407
L398.08 13.0069" style="fill:none;stroke:#cccccc;stroke-linecap:square;"/>
   </g>
   <g id="line2d_27">
    <path clip-path="url(#p8b363464d2)" d="
M398.459 243.407
L398.459 13.0069" style="fill:none;stroke:#333333;stroke-linecap:square;"/>
   </g>
   <g id="line2d_28">
    <path clip-path="url(#p8b363464d2)" d="
M461.678 243.407
L461.678 13.0069" style="fill:none;stroke:#cccccc;stroke-linecap:square;"/>
   </g>
   <g id="line2d_29">
    <path clip-path="url(#p8b363464d2)" d="
M485.149 243.407
L485.149 13.0069" style="fill:none;stroke:#cccccc;stroke-linecap:square;"/>
   </g>
   <g id="line2d_30">
    <path clip-path="url(#p8b363464d2)" d="
M501.806 243.407
L501.806 13.0069" style="fill:none;stroke:#333333;stroke-linecap:square;"/>
   </g>
   <g id="line2d_31">
    <path clip-path="url(#p8b363464d2)" d="
M549.883 243.407
L549.883 13.0069" style="fill:none;stroke:#cccccc;stroke-linecap:square;"/>
   </g>
   <g id="line2d_32">
    <path clip-path="url(#p8b363464d2)" d="
M568.811 243.407
L568.811 13.0069" style="fill:none;stroke:#cccccc;stroke-linecap:square;"/>
   </g>
   <g id="matplotlib.axis_1">
    <g id="xtick_1">
     <g id="line2d_33">
      <defs>
       <path d="
M0 0
L0 -4" id="m93b0483c22" style="stroke:#000000;stroke-width:0.5;"/>
      </defs>
      <g>
       <use style="stroke:#000000;stroke-width:0.5;" x="114.915819199" xlink:href="#m93b0483c22" y="243.406875"/>
      </g>
     </g>
     <g id="line2d_34">
      <defs>
       <path d="
M0 0
L0 4" id="m741efc42ff" style="stroke:#000000;stroke-width:0.5;"/>
      </defs>
      <g>
       <use style="stroke:#000000;stroke-width:0.5;" x="114.915819199" xlink:href="#m741efc42ff" y="13.006875"/>
      </g>
     </g>
     <g id="text_1">
      <!-- Sep 2014 -->
      <defs>
       <path d="
M12.4062 8.29688
L28.5156 8.29688
L28.5156 63.9219
L10.9844 60.4062
L10.9844 69.3906
L28.4219 72.9062
L38.2812 72.9062
L38.2812 8.29688
L54.3906 8.29688
L54.3906 0
L12.4062 0
z
" id="DejaVuSans-31"/>
       <path d="
M31.7812 66.4062
Q24.1719 66.4062 20.3281 58.9062
Q16.5 51.4219 16.5 36.375
Q16.5 21.3906 20.3281 13.8906
Q24.1719 6.39062 31.7812 6.39062
Q39.4531 6.39062 43.2812 13.8906
Q47.125 21.3906 47.125 36.375
Q47.125 51.4219 43.2812 58.9062
Q39.4531 66.4062 31.7812 66.4062
M31.7812 74.2188
Q44.0469 74.2188 50.5156 64.5156
Q56.9844 54.8281 56.9844 36.375
Q56.9844 17.9688 50.5156 8.26562
Q44.0469 -1.42188 31.7812 -1.42188
Q19.5312 -1.42188 13.0625 8.26562
Q6.59375 17.9688 6.59375 36.375
Q6.59375 54.8281 13.0625 64.5156
Q19.5312 74.2188 31.7812 74.2188" id="DejaVuSans-30"/>
       <path id="DejaVuSans-20"/>
       <path d="
M19.1875 8.29688
L53.6094 8.29688
L53.6094 0
L7.32812 0
L7.32812 8.29688
Q12.9375 14.1094 22.625 23.8906
Q32.3281 33.6875 34.8125 36.5312
Q39.5469 41.8438 41.4219 45.5312
Q43.3125 49.2188 43.3125 52.7812
Q43.3125 58.5938 39.2344 62.25
Q35.1562 65.9219 28.6094 65.9219
Q23.9688 65.9219 18.8125 64.3125
Q13.6719 62.7031 7.8125 59.4219
L7.8125 69.3906
Q13.7656 71.7812 18.9375 73
Q24.125 74.2188 28.4219 74.2188
Q39.75 74.2188 46.4844 68.5469
Q53.2188 62.8906 53.2188 53.4219
Q53.2188 48.9219 51.5312 44.8906
Q49.8594 40.875 45.4062 35.4062
Q44.1875 33.9844 37.6406 27.2188
Q31.1094 20.4531 19.1875 8.29688" id="DejaVuSans-32"/>
       <path d="
M37.7969 64.3125
L12.8906 25.3906
L37.7969 25.3906
z

M35.2031 72.9062
L47.6094 72.9062
L47.6094 25.3906
L58.0156 25.3906
L58.0156 17.1875
L47.6094 17.1875
L47.6094 0
L37.7969 0
L37.7969 17.1875
L4.89062 17.1875
L4.89062 26.7031
z
" id="DejaVuSans-34"/>
       <path d="
M53.5156 70.5156
L53.5156 60.8906
Q47.9062 63.5781 42.9219 64.8906
Q37.9375 66.2188 33.2969 66.2188
Q25.25 66.2188 20.875 63.0938
Q16.5 59.9688 16.5 54.2031
Q16.5 49.3594 19.4062 46.8906
Q22.3125 44.4375 30.4219 42.9219
L36.375 41.7031
Q47.4062 39.5938 52.6562 34.2969
Q57.9062 29 57.9062 20.125
Q57.9062 9.51562 50.7969 4.04688
Q43.7031 -1.42188 29.9844 -1.42188
Q24.8125 -1.42188 18.9688 -0.25
Q13.1406 0.921875 6.89062 3.21875
L6.89062 13.375
Q12.8906 10.0156 18.6562 8.29688
Q24.4219 6.59375 29.9844 6.59375
Q38.4219 6.59375 43.0156 9.90625
Q47.6094 13.2344 47.6094 19.3906
Q47.6094 24.75 44.3125 27.7812
Q41.0156 30.8125 33.5 32.3281
L27.4844 33.5
Q16.4531 35.6875 11.5156 40.375
Q6.59375 45.0625 6.59375 53.4219
Q6.59375 63.0938 13.4062 68.6562
Q20.2188 74.2188 32.1719 74.2188
Q37.3125 74.2188 42.625 73.2812
Q47.9531 72.3594 53.5156 70.5156" id="DejaVuSans-53"/>
       <path d="
M56.2031 29.5938
L56.2031 25.2031
L14.8906 25.2031
Q15.4844 15.9219 20.4844 11.0625
Q25.4844 6.20312 34.4219 6.20312
Q39.5938 6.20312 44.4531 7.46875
Q49.3125 8.73438 54.1094 11.2812
L54.1094 2.78125
Q49.2656 0.734375 44.1875 -0.34375
Q39.1094 -1.42188 33.8906 -1.42188
Q20.7969 -1.42188 13.1562 6.1875
Q5.51562 13.8125 5.51562 26.8125
Q5.51562 40.2344 12.7656 48.1094
Q20.0156 56 32.3281 56
Q43.3594 56 49.7812 48.8906
Q56.2031 41.7969 56.2031 29.5938
M47.2188 32.2344
Q47.125 39.5938 43.0938 43.9844
Q39.0625 48.3906 32.4219 48.3906
Q24.9062 48.3906 20.3906 44.1406
Q15.875 39.8906 15.1875 32.1719
z
" id="DejaVuSans-65"/>
       <path d="
M18.1094 8.20312
L18.1094 -20.7969
L9.07812 -20.7969
L9.07812 54.6875
L18.1094 54.6875
L18.1094 46.3906
Q20.9531 51.2656 25.2656 53.625
Q29.5938 56 35.5938 56
Q45.5625 56 51.7812 48.0938
Q58.0156 40.1875 58.0156 27.2969
Q58.0156 14.4062 51.7812 6.48438
Q45.5625 -1.42188 35.5938 -1.42188
Q29.5938 -1.42188 25.2656 0.953125
Q20.9531 3.32812 18.1094 8.20312
M48.6875 27.2969
Q48.6875 37.2031 44.6094 42.8438
Q40.5312 48.4844 33.4062 48.4844
Q26.2656 48.4844 22.1875 42.8438
Q18.1094 37.2031 18.1094 27.2969
Q18.1094 17.3906 22.1875 11.75
Q26.2656 6.10938 33.4062 6.10938
Q40.5312 6.10938 44.6094 11.75
Q48.6875 17.3906 48.6875 27.2969" id="DejaVuSans-70"/>
      </defs>
      <g transform="translate(118.227069199 303.7075)rotate(-90.0)scale(0.12 -0.12)">
       <use xlink:href="#DejaVuSans-53"/>
       <use x="63.4765625" xlink:href="#DejaVuSans-65"/>
       <use x="125.0" xlink:href="#DejaVuSans-70"/>
       <use x="188.4765625" xlink:href="#DejaVuSans-20"/>
       <use x="220.263671875" xlink:href="#DejaVuSans-32"/>
       <use x="283.88671875" xlink:href="#DejaVuSans-30"/>
       <use x="347.509765625" xlink:href="#DejaVuSans-31"/>
       <use x="411.1328125" xlink:href="#DejaVuSans-34"/>
      </g>
     </g>
    </g>
    <g id="xtick_2">
     <g id="line2d_35">
      <g>
       <use style="stroke:#000000;stroke-width:0.5;" x="183.435493555" xlink:href="#m93b0483c22" y="243.406875"/>
      </g>
     </g>
     <g id="line2d_36">
      <g>
       <use style="stroke:#000000;stroke-width:0.5;" x="183.435493555" xlink:href="#m741efc42ff" y="13.006875"/>
      </g>
     </g>
     <g id="text_2">
      <!-- Mar 2015 -->
      <defs>
       <path d="
M9.8125 72.9062
L24.5156 72.9062
L43.1094 23.2969
L61.8125 72.9062
L76.5156 72.9062
L76.5156 0
L66.8906 0
L66.8906 64.0156
L48.0938 14.0156
L38.1875 14.0156
L19.3906 64.0156
L19.3906 0
L9.8125 0
z
" id="DejaVuSans-4d"/>
       <path d="
M41.1094 46.2969
Q39.5938 47.1719 37.8125 47.5781
Q36.0312 48 33.8906 48
Q26.2656 48 22.1875 43.0469
Q18.1094 38.0938 18.1094 28.8125
L18.1094 0
L9.07812 0
L9.07812 54.6875
L18.1094 54.6875
L18.1094 46.1875
Q20.9531 51.1719 25.4844 53.5781
Q30.0312 56 36.5312 56
Q37.4531 56 38.5781 55.875
Q39.7031 55.7656 41.0625 55.5156
z
" id="DejaVuSans-72"/>
       <path d="
M10.7969 72.9062
L49.5156 72.9062
L49.5156 64.5938
L19.8281 64.5938
L19.8281 46.7344
Q21.9688 47.4688 24.1094 47.8281
Q26.2656 48.1875 28.4219 48.1875
Q40.625 48.1875 47.75 41.5
Q54.8906 34.8125 54.8906 23.3906
Q54.8906 11.625 47.5625 5.09375
Q40.2344 -1.42188 26.9062 -1.42188
Q22.3125 -1.42188 17.5469 -0.640625
Q12.7969 0.140625 7.71875 1.70312
L7.71875 11.625
Q12.1094 9.23438 16.7969 8.0625
Q21.4844 6.89062 26.7031 6.89062
Q35.1562 6.89062 40.0781 11.3281
Q45.0156 15.7656 45.0156 23.3906
Q45.0156 31 40.0781 35.4375
Q35.1562 39.8906 26.7031 39.8906
Q22.75 39.8906 18.8125 39.0156
Q14.8906 38.1406 10.7969 36.2812
z
" id="DejaVuSans-35"/>
       <path d="
M34.2812 27.4844
Q23.3906 27.4844 19.1875 25
Q14.9844 22.5156 14.9844 16.5
Q14.9844 11.7188 18.1406 8.90625
Q21.2969 6.10938 26.7031 6.10938
Q34.1875 6.10938 38.7031 11.4062
Q43.2188 16.7031 43.2188 25.4844
L43.2188 27.4844
z

M52.2031 31.2031
L52.2031 0
L43.2188 0
L43.2188 8.29688
Q40.1406 3.32812 35.5469 0.953125
Q30.9531 -1.42188 24.3125 -1.42188
Q15.9219 -1.42188 10.9531 3.29688
Q6 8.01562 6 15.9219
Q6 25.1406 12.1719 29.8281
Q18.3594 34.5156 30.6094 34.5156
L43.2188 34.5156
L43.2188 35.4062
Q43.2188 41.6094 39.1406 45
Q35.0625 48.3906 27.6875 48.3906
Q23 48.3906 18.5469 47.2656
Q14.1094 46.1406 10.0156 43.8906
L10.0156 52.2031
Q14.9375 54.1094 19.5781 55.0469
Q24.2188 56 28.6094 56
Q40.4844 56 46.3438 49.8438
Q52.2031 43.7031 52.2031 31.2031" id="DejaVuSans-61"/>
      </defs>
      <g transform="translate(186.746743555 303.353125)rotate(-90.0)scale(0.12 -0.12)">
       <use xlink:href="#DejaVuSans-4d"/>
       <use x="86.279296875" xlink:href="#DejaVuSans-61"/>
       <use x="147.55859375" xlink:href="#DejaVuSans-72"/>
       <use x="188.671875" xlink:href="#DejaVuSans-20"/>
       <use x="220.458984375" xlink:href="#DejaVuSans-32"/>
       <use x="284.08203125" xlink:href="#DejaVuSans-30"/>
       <use x="347.705078125" xlink:href="#DejaVuSans-31"/>
       <use x="411.328125" xlink:href="#DejaVuSans-35"/>
      </g>
     </g>
    </g>
    <g id="xtick_3">
     <g id="line2d_37">
      <g>
       <use style="stroke:#000000;stroke-width:0.5;" x="253.090853121" xlink:href="#m93b0483c22" y="243.406875"/>
      </g>
     </g>
     <g id="line2d_38">
      <g>
       <use style="stroke:#000000;stroke-width:0.5;" x="253.090853121" xlink:href="#m741efc42ff" y="13.006875"/>
      </g>
     </g>
     <g id="text_3">
      <!-- Sep 2015 -->
      <g transform="translate(256.402103121 303.3325)rotate(-90.0)scale(0.12 -0.12)">
       <use xlink:href="#DejaVuSans-53"/>
       <use x="63.4765625" xlink:href="#DejaVuSans-65"/>
       <use x="125.0" xlink:href="#DejaVuSans-70"/>
       <use x="188.4765625" xlink:href="#DejaVuSans-20"/>
       <use x="220.263671875" xlink:href="#DejaVuSans-32"/>
       <use x="283.88671875" xlink:href="#DejaVuSans-30"/>
       <use x="347.509765625" xlink:href="#DejaVuSans-31"/>
       <use x="411.1328125" xlink:href="#DejaVuSans-35"/>
      </g>
     </g>
    </g>
    <g id="xtick_4">
     <g id="line2d_39">
      <g>
       <use style="stroke:#000000;stroke-width:0.5;" x="321.989089213" xlink:href="#m93b0483c22" y="243.406875"/>
      </g>
     </g>
     <g id="line2d_40">
      <g>
       <use style="stroke:#000000;stroke-width:0.5;" x="321.989089213" xlink:href="#m741efc42ff" y="13.006875"/>
      </g>
     </g>
     <g id="text_4">
      <!-- Mar 2016 -->
      <defs>
       <path d="
M33.0156 40.375
Q26.375 40.375 22.4844 35.8281
Q18.6094 31.2969 18.6094 23.3906
Q18.6094 15.5312 22.4844 10.9531
Q26.375 6.39062 33.0156 6.39062
Q39.6562 6.39062 43.5312 10.9531
Q47.4062 15.5312 47.4062 23.3906
Q47.4062 31.2969 43.5312 35.8281
Q39.6562 40.375 33.0156 40.375
M52.5938 71.2969
L52.5938 62.3125
Q48.875 64.0625 45.0938 64.9844
Q41.3125 65.9219 37.5938 65.9219
Q27.8281 65.9219 22.6719 59.3281
Q17.5312 52.7344 16.7969 39.4062
Q19.6719 43.6562 24.0156 45.9219
Q28.375 48.1875 33.5938 48.1875
Q44.5781 48.1875 50.9531 41.5156
Q57.3281 34.8594 57.3281 23.3906
Q57.3281 12.1562 50.6875 5.35938
Q44.0469 -1.42188 33.0156 -1.42188
Q20.3594 -1.42188 13.6719 8.26562
Q6.98438 17.9688 6.98438 36.375
Q6.98438 53.6562 15.1875 63.9375
Q23.3906 74.2188 37.2031 74.2188
Q40.9219 74.2188 44.7031 73.4844
Q48.4844 72.75 52.5938 71.2969" id="DejaVuSans-36"/>
      </defs>
      <g transform="translate(325.300339213 303.645625)rotate(-90.0)scale(0.12 -0.12)">
       <use xlink:href="#DejaVuSans-4d"/>
       <use x="86.279296875" xlink:href="#DejaVuSans-61"/>
       <use x="147.55859375" xlink:href="#DejaVuSans-72"/>
       <use x="188.671875" xlink:href="#DejaVuSans-20"/>
       <use x="220.458984375" xlink:href="#DejaVuSans-32"/>
       <use x="284.08203125" xlink:href="#DejaVuSans-30"/>
       <use x="347.705078125" xlink:href="#DejaVuSans-31"/>
       <use x="411.328125" xlink:href="#DejaVuSans-36"/>
      </g>
     </g>
    </g>
    <g id="xtick_5">
     <g id="line2d_41">
      <g>
       <use style="stroke:#000000;stroke-width:0.5;" x="391.644448779" xlink:href="#m93b0483c22" y="243.406875"/>
      </g>
     </g>
     <g id="line2d_42">
      <g>
       <use style="stroke:#000000;stroke-width:0.5;" x="391.644448779" xlink:href="#m741efc42ff" y="13.006875"/>
      </g>
     </g>
     <g id="text_5">
      <!-- Sep 2016 -->
      <g transform="translate(394.955698779 303.625)rotate(-90.0)scale(0.12 -0.12)">
       <use xlink:href="#DejaVuSans-53"/>
       <use x="63.4765625" xlink:href="#DejaVuSans-65"/>
       <use x="125.0" xlink:href="#DejaVuSans-70"/>
       <use x="188.4765625" xlink:href="#DejaVuSans-20"/>
       <use x="220.263671875" xlink:href="#DejaVuSans-32"/>
       <use x="283.88671875" xlink:href="#DejaVuSans-30"/>
       <use x="347.509765625" xlink:href="#DejaVuSans-31"/>
       <use x="411.1328125" xlink:href="#DejaVuSans-36"/>
      </g>
     </g>
    </g>
    <g id="xtick_6">
     <g id="line2d_43">
      <g>
       <use style="stroke:#000000;stroke-width:0.5;" x="460.164123134" xlink:href="#m93b0483c22" y="243.406875"/>
      </g>
     </g>
     <g id="line2d_44">
      <g>
       <use style="stroke:#000000;stroke-width:0.5;" x="460.164123134" xlink:href="#m741efc42ff" y="13.006875"/>
      </g>
     </g>
     <g id="text_6">
      <!-- Mar 2017 -->
      <defs>
       <path d="
M8.20312 72.9062
L55.0781 72.9062
L55.0781 68.7031
L28.6094 0
L18.3125 0
L43.2188 64.5938
L8.20312 64.5938
z
" id="DejaVuSans-37"/>
      </defs>
      <g transform="translate(463.475373134 303.375625)rotate(-90.0)scale(0.12 -0.12)">
       <use xlink:href="#DejaVuSans-4d"/>
       <use x="86.279296875" xlink:href="#DejaVuSans-61"/>
       <use x="147.55859375" xlink:href="#DejaVuSans-72"/>
       <use x="188.671875" xlink:href="#DejaVuSans-20"/>
       <use x="220.458984375" xlink:href="#DejaVuSans-32"/>
       <use x="284.08203125" xlink:href="#DejaVuSans-30"/>
       <use x="347.705078125" xlink:href="#DejaVuSans-31"/>
       <use x="411.328125" xlink:href="#DejaVuSans-37"/>
      </g>
     </g>
    </g>
    <g id="xtick_7">
     <g id="line2d_45">
      <g>
       <use style="stroke:#000000;stroke-width:0.5;" x="529.8194827" xlink:href="#m93b0483c22" y="243.406875"/>
      </g>
     </g>
     <g id="line2d_46">
      <g>
       <use style="stroke:#000000;stroke-width:0.5;" x="529.8194827" xlink:href="#m741efc42ff" y="13.006875"/>
      </g>
     </g>
     <g id="text_7">
      <!-- Sep 2017 -->
      <g transform="translate(533.1307327 303.355)rotate(-90.0)scale(0.12 -0.12)">
       <use xlink:href="#DejaVuSans-53"/>
       <use x="63.4765625" xlink:href="#DejaVuSans-65"/>
       <use x="125.0" xlink:href="#DejaVuSans-70"/>
       <use x="188.4765625" xlink:href="#DejaVuSans-20"/>
       <use x="220.263671875" xlink:href="#DejaVuSans-32"/>
       <use x="283.88671875" xlink:href="#DejaVuSans-30"/>
       <use x="347.509765625" xlink:href="#DejaVuSans-31"/>
       <use x="411.1328125" xlink:href="#DejaVuSans-37"/>
      </g>
     </g>
    </g>
    <g id="xtick_8">
     <g id="line2d_47">
      <g>
       <use style="stroke:#000000;stroke-width:0.5;" x="598.339157056" xlink:href="#m93b0483c22" y="243.406875"/>
      </g>
     </g>
     <g id="line2d_48">
      <g>
       <use style="stroke:#000000;stroke-width:0.5;" x="598.339157056" xlink:href="#m741efc42ff" y="13.006875"/>
      </g>
     </g>
     <g id="text_8">
      <!-- Mar 2018 -->
      <defs>
       <path d="
M31.7812 34.625
Q24.75 34.625 20.7188 30.8594
Q16.7031 27.0938 16.7031 20.5156
Q16.7031 13.9219 20.7188 10.1562
Q24.75 6.39062 31.7812 6.39062
Q38.8125 6.39062 42.8594 10.1719
Q46.9219 13.9688 46.9219 20.5156
Q46.9219 27.0938 42.8906 30.8594
Q38.875 34.625 31.7812 34.625
M21.9219 38.8125
Q15.5781 40.375 12.0312 44.7188
Q8.5 49.0781 8.5 55.3281
Q8.5 64.0625 14.7188 69.1406
Q20.9531 74.2188 31.7812 74.2188
Q42.6719 74.2188 48.875 69.1406
Q55.0781 64.0625 55.0781 55.3281
Q55.0781 49.0781 51.5312 44.7188
Q48 40.375 41.7031 38.8125
Q48.8281 37.1562 52.7969 32.3125
Q56.7812 27.4844 56.7812 20.5156
Q56.7812 9.90625 50.3125 4.23438
Q43.8438 -1.42188 31.7812 -1.42188
Q19.7344 -1.42188 13.25 4.23438
Q6.78125 9.90625 6.78125 20.5156
Q6.78125 27.4844 10.7812 32.3125
Q14.7969 37.1562 21.9219 38.8125
M18.3125 54.3906
Q18.3125 48.7344 21.8438 45.5625
Q25.3906 42.3906 31.7812 42.3906
Q38.1406 42.3906 41.7188 45.5625
Q45.3125 48.7344 45.3125 54.3906
Q45.3125 60.0625 41.7188 63.2344
Q38.1406 66.4062 31.7812 66.4062
Q25.3906 66.4062 21.8438 63.2344
Q18.3125 60.0625 18.3125 54.3906" id="DejaVuSans-38"/>
      </defs>
      <g transform="translate(601.650407056 303.58)rotate(-90.0)scale(0.12 -0.12)">
       <use xlink:href="#DejaVuSans-4d"/>
       <use x="86.279296875" xlink:href="#DejaVuSans-61"/>
       <use x="147.55859375" xlink:href="#DejaVuSans-72"/>
       <use x="188.671875" xlink:href="#DejaVuSans-20"/>
       <use x="220.458984375" xlink:href="#DejaVuSans-32"/>
       <use x="284.08203125" xlink:href="#DejaVuSans-30"/>
       <use x="347.705078125" xlink:href="#DejaVuSans-31"/>
       <use x="411.328125" xlink:href="#DejaVuSans-38"/>
      </g>
     </g>
    </g>
   </g>
   <g id="matplotlib.axis_2">
    <g id="ytick_1">
     <g id="line2d_49">
      <defs>
       <path d="
M0 0
L4 0" id="m728421d6d4" style="stroke:#000000;stroke-width:0.5;"/>
      </defs>
      <g>
       <use style="stroke:#000000;stroke-width:0.5;" x="56.23875" xlink:href="#m728421d6d4" y="243.406875"/>
      </g>
     </g>
     <g id="line2d_50">
      <defs>
       <path d="
M0 0
L-4 0" id="mcb0005524f" style="stroke:#000000;stroke-width:0.5;"/>
      </defs>
      <g>
       <use style="stroke:#000000;stroke-width:0.5;" x="614.23875" xlink:href="#mcb0005524f" y="243.406875"/>
      </g>
     </g>
     <g id="text_9">
      <!-- 200 -->
      <g transform="translate(31.01 246.718125)scale(0.12 -0.12)">
       <use xlink:href="#DejaVuSans-32"/>
       <use x="63.623046875" xlink:href="#DejaVuSans-30"/>
       <use x="127.24609375" xlink:href="#DejaVuSans-30"/>
      </g>
     </g>
    </g>
    <g id="ytick_2">
     <g id="line2d_51">
      <g>
       <use style="stroke:#000000;stroke-width:0.5;" x="56.23875" xlink:href="#m728421d6d4" y="214.606875"/>
      </g>
     </g>
     <g id="line2d_52">
      <g>
       <use style="stroke:#000000;stroke-width:0.5;" x="614.23875" xlink:href="#mcb0005524f" y="214.606875"/>
      </g>
     </g>
     <g id="text_10">
      <!-- 400 -->
      <g transform="translate(30.7175 217.918125)scale(0.12 -0.12)">
       <use xlink:href="#DejaVuSans-34"/>
       <use x="63.623046875" xlink:href="#DejaVuSans-30"/>
       <use x="127.24609375" xlink:href="#DejaVuSans-30"/>
      </g>
     </g>
    </g>
    <g id="ytick_3">
     <g id="line2d_53">
      <g>
       <use style="stroke:#000000;stroke-width:0.5;" x="56.23875" xlink:href="#m728421d6d4" y="185.806875"/>
      </g>
     </g>
     <g id="line2d_54">
      <g>
       <use style="stroke:#000000;stroke-width:0.5;" x="614.23875" xlink:href="#mcb0005524f" y="185.806875"/>
      </g>
     </g>
     <g id="text_11">
      <!-- 600 -->
      <g transform="translate(30.96875 189.118125)scale(0.12 -0.12)">
       <use xlink:href="#DejaVuSans-36"/>
       <use x="63.623046875" xlink:href="#DejaVuSans-30"/>
       <use x="127.24609375" xlink:href="#DejaVuSans-30"/>
      </g>
     </g>
    </g>
    <g id="ytick_4">
     <g id="line2d_55">
      <g>
       <use style="stroke:#000000;stroke-width:0.5;" x="56.23875" xlink:href="#m728421d6d4" y="157.006875"/>
      </g>
     </g>
     <g id="line2d_56">
      <g>
       <use style="stroke:#000000;stroke-width:0.5;" x="614.23875" xlink:href="#mcb0005524f" y="157.006875"/>
      </g>
     </g>
     <g id="text_12">
      <!-- 800 -->
      <g transform="translate(30.944375 160.318125)scale(0.12 -0.12)">
       <use xlink:href="#DejaVuSans-38"/>
       <use x="63.623046875" xlink:href="#DejaVuSans-30"/>
       <use x="127.24609375" xlink:href="#DejaVuSans-30"/>
      </g>
     </g>
    </g>
    <g id="ytick_5">
     <g id="line2d_57">
      <g>
       <use style="stroke:#000000;stroke-width:0.5;" x="56.23875" xlink:href="#m728421d6d4" y="128.206875"/>
      </g>
     </g>
     <g id="line2d_58">
      <g>
       <use style="stroke:#000000;stroke-width:0.5;" x="614.23875" xlink:href="#mcb0005524f" y="128.206875"/>
      </g>
     </g>
     <g id="text_13">
      <!-- 1000 -->
      <g transform="translate(23.81375 131.518125)scale(0.12 -0.12)">
       <use xlink:href="#DejaVuSans-31"/>
       <use x="63.623046875" xlink:href="#DejaVuSans-30"/>
       <use x="127.24609375" xlink:href="#DejaVuSans-30"/>
       <use x="190.869140625" xlink:href="#DejaVuSans-30"/>
      </g>
     </g>
    </g>
    <g id="ytick_6">
     <g id="line2d_59">
      <g>
       <use style="stroke:#000000;stroke-width:0.5;" x="56.23875" xlink:href="#m728421d6d4" y="99.406875"/>
      </g>
     </g>
     <g id="line2d_60">
      <g>
       <use style="stroke:#000000;stroke-width:0.5;" x="614.23875" xlink:href="#mcb0005524f" y="99.406875"/>
      </g>
     </g>
     <g id="text_14">
      <!-- 1200 -->
      <g transform="translate(23.81375 102.718125)scale(0.12 -0.12)">
       <use xlink:href="#DejaVuSans-31"/>
       <use x="63.623046875" xlink:href="#DejaVuSans-32"/>
       <use x="127.24609375" xlink:href="#DejaVuSans-30"/>
       <use x="190.869140625" xlink:href="#DejaVuSans-30"/>
      </g>
     </g>
    </g>
    <g id="ytick_7">
     <g id="line2d_61">
      <g>
       <use style="stroke:#000000;stroke-width:0.5;" x="56.23875" xlink:href="#m728421d6d4" y="70.606875"/>
      </g>
     </g>
     <g id="line2d_62">
      <g>
       <use style="stroke:#000000;stroke-width:0.5;" x="614.23875" xlink:href="#mcb0005524f" y="70.606875"/>
      </g>
     </g>
     <g id="text_15">
      <!-- 1400 -->
      <g transform="translate(23.81375 73.918125)scale(0.12 -0.12)">
       <use xlink:href="#DejaVuSans-31"/>
       <use x="63.623046875" xlink:href="#DejaVuSans-34"/>
       <use x="127.24609375" xlink:href="#DejaVuSans-30"/>
       <use x="190.869140625" xlink:href="#DejaVuSans-30"/>
      </g>
     </g>
    </g>
    <g id="ytick_8">
     <g id="line2d_63">
      <g>
       <use style="stroke:#000000;stroke-width:0.5;" x="56.23875" xlink:href="#m728421d6d4" y="41.806875"/>
      </g>
     </g>
     <g id="line2d_64">
      <g>
       <use style="stroke:#000000;stroke-width:0.5;" x="614.23875" xlink:href="#mcb0005524f" y="41.806875"/>
      </g>
     </g>
     <g id="text_16">
      <!-- 1600 -->
      <g transform="translate(23.81375 45.118125)scale(0.12 -0.12)">
       <use xlink:href="#DejaVuSans-31"/>
       <use x="63.623046875" xlink:href="#DejaVuSans-36"/>
       <use x="127.24609375" xlink:href="#DejaVuSans-30"/>
       <use x="190.869140625" xlink:href="#DejaVuSans-30"/>
      </g>
     </g>
    </g>
    <g id="ytick_9">
     <g id="line2d_65">
      <g>
       <use style="stroke:#000000;stroke-width:0.5;" x="56.23875" xlink:href="#m728421d6d4" y="13.006875"/>
      </g>
     </g>
     <g id="line2d_66">
      <g>
       <use style="stroke:#000000;stroke-width:0.5;" x="614.23875" xlink:href="#mcb0005524f" y="13.006875"/>
      </g>
     </g>
     <g id="text_17">
      <!-- 1800 -->
      <g transform="translate(23.81375 16.318125)scale(0.12 -0.12)">
       <use xlink:href="#DejaVuSans-31"/>
       <use x="63.623046875" xlink:href="#DejaVuSans-38"/>
       <use x="127.24609375" xlink:href="#DejaVuSans-30"/>
       <use x="190.869140625" xlink:href="#DejaVuSans-30"/>
      </g>
     </g>
    </g>
    <g id="text_18">
     <!-- Number of Tagged Packages -->
     <defs>
      <path d="
M9.8125 72.9062
L23.0938 72.9062
L55.4219 11.9219
L55.4219 72.9062
L64.9844 72.9062
L64.9844 0
L51.7031 0
L19.3906 60.9844
L19.3906 0
L9.8125 0
z
" id="DejaVuSans-4e"/>
      <path d="
M30.6094 48.3906
Q23.3906 48.3906 19.1875 42.75
Q14.9844 37.1094 14.9844 27.2969
Q14.9844 17.4844 19.1562 11.8438
Q23.3438 6.20312 30.6094 6.20312
Q37.7969 6.20312 41.9844 11.8594
Q46.1875 17.5312 46.1875 27.2969
Q46.1875 37.0156 41.9844 42.7031
Q37.7969 48.3906 30.6094 48.3906
M30.6094 56
Q42.3281 56 49.0156 48.375
Q55.7188 40.7656 55.7188 27.2969
Q55.7188 13.875 49.0156 6.21875
Q42.3281 -1.42188 30.6094 -1.42188
Q18.8438 -1.42188 12.1719 6.21875
Q5.51562 13.875 5.51562 27.2969
Q5.51562 40.7656 12.1719 48.375
Q18.8438 56 30.6094 56" id="DejaVuSans-6f"/>
      <path d="
M52 44.1875
Q55.375 50.25 60.0625 53.125
Q64.75 56 71.0938 56
Q79.6406 56 84.2812 50.0156
Q88.9219 44.0469 88.9219 33.0156
L88.9219 0
L79.8906 0
L79.8906 32.7188
Q79.8906 40.5781 77.0938 44.375
Q74.3125 48.1875 68.6094 48.1875
Q61.625 48.1875 57.5625 43.5469
Q53.5156 38.9219 53.5156 30.9062
L53.5156 0
L44.4844 0
L44.4844 32.7188
Q44.4844 40.625 41.7031 44.4062
Q38.9219 48.1875 33.1094 48.1875
Q26.2188 48.1875 22.1562 43.5312
Q18.1094 38.875 18.1094 30.9062
L18.1094 0
L9.07812 0
L9.07812 54.6875
L18.1094 54.6875
L18.1094 46.1875
Q21.1875 51.2188 25.4844 53.6094
Q29.7812 56 35.6875 56
Q41.6562 56 45.8281 52.9688
Q50 49.9531 52 44.1875" id="DejaVuSans-6d"/>
      <path d="
M9.07812 75.9844
L18.1094 75.9844
L18.1094 31.1094
L44.9219 54.6875
L56.3906 54.6875
L27.3906 29.1094
L57.625 0
L45.9062 0
L18.1094 26.7031
L18.1094 0
L9.07812 0
z
" id="DejaVuSans-6b"/>
      <path d="
M37.1094 75.9844
L37.1094 68.5
L28.5156 68.5
Q23.6875 68.5 21.7969 66.5469
Q19.9219 64.5938 19.9219 59.5156
L19.9219 54.6875
L34.7188 54.6875
L34.7188 47.7031
L19.9219 47.7031
L19.9219 0
L10.8906 0
L10.8906 47.7031
L2.29688 47.7031
L2.29688 54.6875
L10.8906 54.6875
L10.8906 58.5
Q10.8906 67.625 15.1406 71.7969
Q19.3906 75.9844 28.6094 75.9844
z
" id="DejaVuSans-66"/>
      <path d="
M8.5 21.5781
L8.5 54.6875
L17.4844 54.6875
L17.4844 21.9219
Q17.4844 14.1562 20.5 10.2656
Q23.5312 6.39062 29.5938 6.39062
Q36.8594 6.39062 41.0781 11.0312
Q45.3125 15.6719 45.3125 23.6875
L45.3125 54.6875
L54.2969 54.6875
L54.2969 0
L45.3125 0
L45.3125 8.40625
Q42.0469 3.42188 37.7188 1
Q33.4062 -1.42188 27.6875 -1.42188
Q18.2656 -1.42188 13.375 4.4375
Q8.5 10.2969 8.5 21.5781
M31.1094 56
z
" id="DejaVuSans-75"/>
      <path d="
M45.4062 27.9844
Q45.4062 37.75 41.375 43.1094
Q37.3594 48.4844 30.0781 48.4844
Q22.8594 48.4844 18.8281 43.1094
Q14.7969 37.75 14.7969 27.9844
Q14.7969 18.2656 18.8281 12.8906
Q22.8594 7.51562 30.0781 7.51562
Q37.3594 7.51562 41.375 12.8906
Q45.4062 18.2656 45.4062 27.9844
M54.3906 6.78125
Q54.3906 -7.17188 48.1875 -13.9844
Q42 -20.7969 29.2031 -20.7969
Q24.4688 -20.7969 20.2656 -20.0938
Q16.0625 -19.3906 12.1094 -17.9219
L12.1094 -9.1875
Q16.0625 -11.3281 19.9219 -12.3438
Q23.7812 -13.375 27.7812 -13.375
Q36.625 -13.375 41.0156 -8.76562
Q45.4062 -4.15625 45.4062 5.17188
L45.4062 9.625
Q42.625 4.78125 38.2812 2.39062
Q33.9375 0 27.875 0
Q17.8281 0 11.6719 7.65625
Q5.51562 15.3281 5.51562 27.9844
Q5.51562 40.6719 11.6719 48.3281
Q17.8281 56 27.875 56
Q33.9375 56 38.2812 53.6094
Q42.625 51.2188 45.4062 46.3906
L45.4062 54.6875
L54.3906 54.6875
z
" id="DejaVuSans-67"/>
      <path d="
M45.4062 46.3906
L45.4062 75.9844
L54.3906 75.9844
L54.3906 0
L45.4062 0
L45.4062 8.20312
Q42.5781 3.32812 38.25 0.953125
Q33.9375 -1.42188 27.875 -1.42188
Q17.9688 -1.42188 11.7344 6.48438
Q5.51562 14.4062 5.51562 27.2969
Q5.51562 40.1875 11.7344 48.0938
Q17.9688 56 27.875 56
Q33.9375 56 38.25 53.625
Q42.5781 51.2656 45.4062 46.3906
M14.7969 27.2969
Q14.7969 17.3906 18.875 11.75
Q22.9531 6.10938 30.0781 6.10938
Q37.2031 6.10938 41.2969 11.75
Q45.4062 17.3906 45.4062 27.2969
Q45.4062 37.2031 41.2969 42.8438
Q37.2031 48.4844 30.0781 48.4844
Q22.9531 48.4844 18.875 42.8438
Q14.7969 37.2031 14.7969 27.2969" id="DejaVuSans-64"/>
      <path d="
M19.6719 64.7969
L19.6719 37.4062
L32.0781 37.4062
Q38.9688 37.4062 42.7188 40.9688
Q46.4844 44.5312 46.4844 51.125
Q46.4844 57.6719 42.7188 61.2344
Q38.9688 64.7969 32.0781 64.7969
z

M9.8125 72.9062
L32.0781 72.9062
Q44.3438 72.9062 50.6094 67.3594
Q56.8906 61.8125 56.8906 51.125
Q56.8906 40.3281 50.6094 34.8125
Q44.3438 29.2969 32.0781 29.2969
L19.6719 29.2969
L19.6719 0
L9.8125 0
z
" id="DejaVuSans-50"/>
      <path d="
M48.6875 27.2969
Q48.6875 37.2031 44.6094 42.8438
Q40.5312 48.4844 33.4062 48.4844
Q26.2656 48.4844 22.1875 42.8438
Q18.1094 37.2031 18.1094 27.2969
Q18.1094 17.3906 22.1875 11.75
Q26.2656 6.10938 33.4062 6.10938
Q40.5312 6.10938 44.6094 11.75
Q48.6875 17.3906 48.6875 27.2969
M18.1094 46.3906
Q20.9531 51.2656 25.2656 53.625
Q29.5938 56 35.5938 56
Q45.5625 56 51.7812 48.0938
Q58.0156 40.1875 58.0156 27.2969
Q58.0156 14.4062 51.7812 6.48438
Q45.5625 -1.42188 35.5938 -1.42188
Q29.5938 -1.42188 25.2656 0.953125
Q20.9531 3.32812 18.1094 8.20312
L18.1094 0
L9.07812 0
L9.07812 75.9844
L18.1094 75.9844
z
" id="DejaVuSans-62"/>
      <path d="
M48.7812 52.5938
L48.7812 44.1875
Q44.9688 46.2969 41.1406 47.3438
Q37.3125 48.3906 33.4062 48.3906
Q24.6562 48.3906 19.8125 42.8438
Q14.9844 37.3125 14.9844 27.2969
Q14.9844 17.2812 19.8125 11.7344
Q24.6562 6.20312 33.4062 6.20312
Q37.3125 6.20312 41.1406 7.25
Q44.9688 8.29688 48.7812 10.4062
L48.7812 2.09375
Q45.0156 0.34375 40.9844 -0.53125
Q36.9688 -1.42188 32.4219 -1.42188
Q20.0625 -1.42188 12.7812 6.34375
Q5.51562 14.1094 5.51562 27.2969
Q5.51562 40.6719 12.8594 48.3281
Q20.2188 56 33.0156 56
Q37.1562 56 41.1094 55.1406
Q45.0625 54.2969 48.7812 52.5938" id="DejaVuSans-63"/>
      <path d="
M44.2812 53.0781
L44.2812 44.5781
Q40.4844 46.5312 36.375 47.5
Q32.2812 48.4844 27.875 48.4844
Q21.1875 48.4844 17.8438 46.4375
Q14.5 44.3906 14.5 40.2812
Q14.5 37.1562 16.8906 35.375
Q19.2812 33.5938 26.5156 31.9844
L29.5938 31.2969
Q39.1562 29.25 43.1875 25.5156
Q47.2188 21.7812 47.2188 15.0938
Q47.2188 7.46875 41.1875 3.01562
Q35.1562 -1.42188 24.6094 -1.42188
Q20.2188 -1.42188 15.4531 -0.5625
Q10.6875 0.296875 5.42188 2
L5.42188 11.2812
Q10.4062 8.6875 15.2344 7.39062
Q20.0625 6.10938 24.8125 6.10938
Q31.1562 6.10938 34.5625 8.28125
Q37.9844 10.4531 37.9844 14.4062
Q37.9844 18.0625 35.5156 20.0156
Q33.0625 21.9688 24.7031 23.7812
L21.5781 24.5156
Q13.2344 26.2656 9.51562 29.9062
Q5.8125 33.5469 5.8125 39.8906
Q5.8125 47.6094 11.2812 51.7969
Q16.75 56 26.8125 56
Q31.7812 56 36.1719 55.2656
Q40.5781 54.5469 44.2812 53.0781" id="DejaVuSans-73"/>
      <path d="
M-0.296875 72.9062
L61.375 72.9062
L61.375 64.5938
L35.5 64.5938
L35.5 0
L25.5938 0
L25.5938 64.5938
L-0.296875 64.5938
z
" id="DejaVuSans-54"/>
     </defs>
     <g transform="translate(16.318125 212.98875)rotate(-90.0)scale(0.12 -0.12)">
      <use xlink:href="#DejaVuSans-4e"/>
      <use x="74.8046875" xlink:href="#DejaVuSans-75"/>
      <use x="138.18359375" xlink:href="#DejaVuSans-6d"/>
      <use x="235.595703125" xlink:href="#DejaVuSans-62"/>
      <use x="299.072265625" xlink:href="#DejaVuSans-65"/>
      <use x="360.595703125" xlink:href="#DejaVuSans-72"/>
      <use x="401.708984375" xlink:href="#DejaVuSans-20"/>
      <use x="433.49609375" xlink:href="#DejaVuSans-6f"/>
      <use x="494.677734375" xlink:href="#DejaVuSans-66"/>
      <use x="529.8828125" xlink:href="#DejaVuSans-20"/>
      <use x="561.669921875" xlink:href="#DejaVuSans-54"/>
      <use x="606.25390625" xlink:href="#DejaVuSans-61"/>
      <use x="667.533203125" xlink:href="#DejaVuSans-67"/>
      <use x="731.009765625" xlink:href="#DejaVuSans-67"/>
      <use x="794.486328125" xlink:href="#DejaVuSans-65"/>
      <use x="856.009765625" xlink:href="#DejaVuSans-64"/>
      <use x="919.486328125" xlink:href="#DejaVuSans-20"/>
      <use x="951.2734375" xlink:href="#DejaVuSans-50"/>
      <use x="1007.07617188" xlink:href="#DejaVuSans-61"/>
      <use x="1068.35546875" xlink:href="#DejaVuSans-63"/>
      <use x="1123.3359375" xlink:href="#DejaVuSans-6b"/>
      <use x="1179.49609375" xlink:href="#DejaVuSans-61"/>
      <use x="1240.77539062" xlink:href="#DejaVuSans-67"/>
      <use x="1304.25195312" xlink:href="#DejaVuSans-65"/>
      <use x="1365.77539062" xlink:href="#DejaVuSans-73"/>
     </g>
    </g>
   </g>
   <g id="patch_3">
    <path d="
M56.2388 13.0069
L614.239 13.0069" style="fill:none;stroke:#000000;"/>
   </g>
   <g id="patch_4">
    <path d="
M614.239 243.407
L614.239 13.0069" style="fill:none;stroke:#000000;"/>
   </g>
   <g id="patch_5">
    <path d="
M56.2388 243.407
L614.239 243.407" style="fill:none;stroke:#000000;"/>
   </g>
   <g id="patch_6">
    <path d="
M56.2388 243.407
L56.2388 13.0069" style="fill:none;stroke:#000000;"/>
   </g>
   <g id="text_19">
    <g id="patch_7">
     <path d="
M103.536 160.199
L117.21 160.199
L117.21 125.811
L103.536 125.811
z
" style="fill:#ffffff;stroke:#ffffff;"/>
    </g>
    <!-- v0.3.0 -->
    <defs>
     <path d="
M40.5781 39.3125
Q47.6562 37.7969 51.625 33
Q55.6094 28.2188 55.6094 21.1875
Q55.6094 10.4062 48.1875 4.48438
Q40.7656 -1.42188 27.0938 -1.42188
Q22.5156 -1.42188 17.6562 -0.515625
Q12.7969 0.390625 7.625 2.20312
L7.625 11.7188
Q11.7188 9.32812 16.5938 8.10938
Q21.4844 6.89062 26.8125 6.89062
Q36.0781 6.89062 40.9375 10.5469
Q45.7969 14.2031 45.7969 21.1875
Q45.7969 27.6406 41.2812 31.2656
Q36.7656 34.9062 28.7188 34.9062
L20.2188 34.9062
L20.2188 43.0156
L29.1094 43.0156
Q36.375 43.0156 40.2344 45.9219
Q44.0938 48.8281 44.0938 54.2969
Q44.0938 59.9062 40.1094 62.9062
Q36.1406 65.9219 28.7188 65.9219
Q24.6562 65.9219 20.0156 65.0312
Q15.375 64.1562 9.8125 62.3125
L9.8125 71.0938
Q15.4375 72.6562 20.3438 73.4375
Q25.25 74.2188 29.5938 74.2188
Q40.8281 74.2188 47.3594 69.1094
Q53.9062 64.0156 53.9062 55.3281
Q53.9062 49.2656 50.4375 45.0938
Q46.9688 40.9219 40.5781 39.3125" id="DejaVuSans-33"/>
     <path d="
M2.98438 54.6875
L12.5 54.6875
L29.5938 8.79688
L46.6875 54.6875
L56.2031 54.6875
L35.6875 0
L23.4844 0
z
" id="DejaVuSans-76"/>
     <path d="
M10.6875 12.4062
L21 12.4062
L21 0
L10.6875 0
z
" id="DejaVuSans-2e"/>
    </defs>
    <g transform="translate(113.131349608 158.199316875)rotate(-90.0)scale(0.09996 -0.09996)">
     <use xlink:href="#DejaVuSans-76"/>
     <use x="59.1796875" xlink:href="#DejaVuSans-30"/>
     <use x="122.802734375" xlink:href="#DejaVuSans-2e"/>
     <use x="154.58984375" xlink:href="#DejaVuSans-33"/>
     <use x="218.212890625" xlink:href="#DejaVuSans-2e"/>
     <use x="250.0" xlink:href="#DejaVuSans-30"/>
    </g>
   </g>
   <g id="text_20">
    <g id="patch_8">
     <path d="
M115.65 131.14
L129.324 131.14
L129.324 97.0115
L115.65 97.0115
z
" style="fill:#ffffff;stroke:#ffffff;"/>
    </g>
    <!-- v0.3.1 -->
    <g transform="translate(125.245325185 129.140045625)rotate(-90.0)scale(0.09996 -0.09996)">
     <use xlink:href="#DejaVuSans-76"/>
     <use x="59.1796875" xlink:href="#DejaVuSans-30"/>
     <use x="122.802734375" xlink:href="#DejaVuSans-2e"/>
     <use x="154.58984375" xlink:href="#DejaVuSans-33"/>
     <use x="218.212890625" xlink:href="#DejaVuSans-2e"/>
     <use x="250.0" xlink:href="#DejaVuSans-31"/>
    </g>
   </g>
   <g id="text_21">
    <g id="patch_9">
     <path d="
M127.007 159.862
L140.681 159.862
L140.681 125.811
L127.007 125.811
z
" style="fill:#ffffff;stroke:#ffffff;"/>
    </g>
    <!-- v0.3.2 -->
    <g transform="translate(136.602177288 157.861951875)rotate(-90.0)scale(0.09996 -0.09996)">
     <use xlink:href="#DejaVuSans-76"/>
     <use x="59.1796875" xlink:href="#DejaVuSans-30"/>
     <use x="122.802734375" xlink:href="#DejaVuSans-2e"/>
     <use x="154.58984375" xlink:href="#DejaVuSans-33"/>
     <use x="218.212890625" xlink:href="#DejaVuSans-2e"/>
     <use x="250.0" xlink:href="#DejaVuSans-32"/>
    </g>
   </g>
   <g id="text_22">
    <g id="patch_10">
     <path d="
M139.499 131.262
L153.174 131.262
L153.174 97.0115
L139.499 97.0115
z
" style="fill:#ffffff;stroke:#ffffff;"/>
    </g>
    <!-- v0.3.3 -->
    <g transform="translate(149.094714601 129.261871875)rotate(-90.0)scale(0.09996 -0.09996)">
     <use xlink:href="#DejaVuSans-76"/>
     <use x="59.1796875" xlink:href="#DejaVuSans-30"/>
     <use x="122.802734375" xlink:href="#DejaVuSans-2e"/>
     <use x="154.58984375" xlink:href="#DejaVuSans-33"/>
     <use x="218.212890625" xlink:href="#DejaVuSans-2e"/>
     <use x="250.0" xlink:href="#DejaVuSans-33"/>
    </g>
   </g>
   <g id="text_23">
    <g id="patch_11">
     <path d="
M151.992 160.302
L165.666 160.302
L165.666 125.811
L151.992 125.811
z
" style="fill:#ffffff;stroke:#ffffff;"/>
    </g>
    <!-- v0.3.4 -->
    <g transform="translate(161.587251915 158.302400625)rotate(-90.0)scale(0.09996 -0.09996)">
     <use xlink:href="#DejaVuSans-76"/>
     <use x="59.1796875" xlink:href="#DejaVuSans-30"/>
     <use x="122.802734375" xlink:href="#DejaVuSans-2e"/>
     <use x="154.58984375" xlink:href="#DejaVuSans-33"/>
     <use x="218.212890625" xlink:href="#DejaVuSans-2e"/>
     <use x="250.0" xlink:href="#DejaVuSans-34"/>
    </g>
   </g>
   <g id="text_24">
    <g id="patch_12">
     <path d="
M156.913 131.19
L170.587 131.19
L170.587 97.0115
L156.913 97.0115
z
" style="fill:#ffffff;stroke:#ffffff;"/>
    </g>
    <!-- v0.3.5 -->
    <g transform="translate(166.508554493 129.190025625)rotate(-90.0)scale(0.09996 -0.09996)">
     <use xlink:href="#DejaVuSans-76"/>
     <use x="59.1796875" xlink:href="#DejaVuSans-30"/>
     <use x="122.802734375" xlink:href="#DejaVuSans-2e"/>
     <use x="154.58984375" xlink:href="#DejaVuSans-33"/>
     <use x="218.212890625" xlink:href="#DejaVuSans-2e"/>
     <use x="250.0" xlink:href="#DejaVuSans-35"/>
    </g>
   </g>
   <g id="text_25">
    <g id="patch_13">
     <path d="
M172.056 160.234
L185.73 160.234
L185.73 125.811
L172.056 125.811
z
" style="fill:#ffffff;stroke:#ffffff;"/>
    </g>
    <!-- v0.3.6 -->
    <g transform="translate(181.651023964 158.233678125)rotate(-90.0)scale(0.09996 -0.09996)">
     <use xlink:href="#DejaVuSans-76"/>
     <use x="59.1796875" xlink:href="#DejaVuSans-30"/>
     <use x="122.802734375" xlink:href="#DejaVuSans-2e"/>
     <use x="154.58984375" xlink:href="#DejaVuSans-33"/>
     <use x="218.212890625" xlink:href="#DejaVuSans-2e"/>
     <use x="250.0" xlink:href="#DejaVuSans-36"/>
    </g>
   </g>
   <g id="text_26">
    <g id="patch_14">
     <path d="
M184.927 131.209
L198.601 131.209
L198.601 97.0115
L184.927 97.0115
z
" style="fill:#ffffff;stroke:#ffffff;"/>
    </g>
    <!-- v0.3.7 -->
    <g transform="translate(194.522123014 129.208768125)rotate(-90.0)scale(0.09996 -0.09996)">
     <use xlink:href="#DejaVuSans-76"/>
     <use x="59.1796875" xlink:href="#DejaVuSans-30"/>
     <use x="122.802734375" xlink:href="#DejaVuSans-2e"/>
     <use x="154.58984375" xlink:href="#DejaVuSans-33"/>
     <use x="218.212890625" xlink:href="#DejaVuSans-2e"/>
     <use x="250.0" xlink:href="#DejaVuSans-37"/>
    </g>
   </g>
   <g id="text_27">
    <g id="patch_15">
     <path d="
M199.312 160.179
L212.986 160.179
L212.986 125.811
L199.312 125.811
z
" style="fill:#ffffff;stroke:#ffffff;"/>
    </g>
    <!-- v0.3.8 -->
    <g transform="translate(208.907469011 158.1790125)rotate(-90.0)scale(0.09996 -0.09996)">
     <use xlink:href="#DejaVuSans-76"/>
     <use x="59.1796875" xlink:href="#DejaVuSans-30"/>
     <use x="122.802734375" xlink:href="#DejaVuSans-2e"/>
     <use x="154.58984375" xlink:href="#DejaVuSans-33"/>
     <use x="218.212890625" xlink:href="#DejaVuSans-2e"/>
     <use x="250.0" xlink:href="#DejaVuSans-38"/>
    </g>
   </g>
   <g id="text_28">
    <g id="patch_16">
     <path d="
M210.669 131.36
L224.343 131.36
L224.343 97.0115
L210.669 97.0115
z
" style="fill:#ffffff;stroke:#ffffff;"/>
    </g>
    <!-- v0.3.9 -->
    <defs>
     <path d="
M10.9844 1.51562
L10.9844 10.5
Q14.7031 8.73438 18.5 7.8125
Q22.3125 6.89062 25.9844 6.89062
Q35.75 6.89062 40.8906 13.4531
Q46.0469 20.0156 46.7812 33.4062
Q43.9531 29.2031 39.5938 26.9531
Q35.25 24.7031 29.9844 24.7031
Q19.0469 24.7031 12.6719 31.3125
Q6.29688 37.9375 6.29688 49.4219
Q6.29688 60.6406 12.9375 67.4219
Q19.5781 74.2188 30.6094 74.2188
Q43.2656 74.2188 49.9219 64.5156
Q56.5938 54.8281 56.5938 36.375
Q56.5938 19.1406 48.4062 8.85938
Q40.2344 -1.42188 26.4219 -1.42188
Q22.7031 -1.42188 18.8906 -0.6875
Q15.0938 0.046875 10.9844 1.51562
M30.6094 32.4219
Q37.25 32.4219 41.125 36.9531
Q45.0156 41.5 45.0156 49.4219
Q45.0156 57.2812 41.125 61.8438
Q37.25 66.4062 30.6094 66.4062
Q23.9688 66.4062 20.0938 61.8438
Q16.2188 57.2812 16.2188 49.4219
Q16.2188 41.5 20.0938 36.9531
Q23.9688 32.4219 30.6094 32.4219" id="DejaVuSans-39"/>
    </defs>
    <g transform="translate(220.264321114 129.36027)rotate(-90.0)scale(0.09996 -0.09996)">
     <use xlink:href="#DejaVuSans-76"/>
     <use x="59.1796875" xlink:href="#DejaVuSans-30"/>
     <use x="122.802734375" xlink:href="#DejaVuSans-2e"/>
     <use x="154.58984375" xlink:href="#DejaVuSans-33"/>
     <use x="218.212890625" xlink:href="#DejaVuSans-2e"/>
     <use x="250.0" xlink:href="#DejaVuSans-39"/>
    </g>
   </g>
   <g id="text_29">
    <g id="patch_17">
     <path d="
M220.133 166.559
L233.807 166.559
L233.807 125.811
L220.133 125.811
z
" style="fill:#ffffff;stroke:#ffffff;"/>
    </g>
    <!-- v0.3.10 -->
    <g transform="translate(229.728364534 164.559271875)rotate(-90.0)scale(0.09996 -0.09996)">
     <use xlink:href="#DejaVuSans-76"/>
     <use x="59.1796875" xlink:href="#DejaVuSans-30"/>
     <use x="122.802734375" xlink:href="#DejaVuSans-2e"/>
     <use x="154.58984375" xlink:href="#DejaVuSans-33"/>
     <use x="218.212890625" xlink:href="#DejaVuSans-2e"/>
     <use x="250.0" xlink:href="#DejaVuSans-31"/>
     <use x="313.623046875" xlink:href="#DejaVuSans-30"/>
    </g>
   </g>
   <g id="text_30">
    <g id="patch_18">
     <path d="
M232.626 137.5
L246.3 137.5
L246.3 97.0115
L232.626 97.0115
z
" style="fill:#ffffff;stroke:#ffffff;"/>
    </g>
    <!-- v0.3.11 -->
    <g transform="translate(242.220901847 135.500000625)rotate(-90.0)scale(0.09996 -0.09996)">
     <use xlink:href="#DejaVuSans-76"/>
     <use x="59.1796875" xlink:href="#DejaVuSans-30"/>
     <use x="122.802734375" xlink:href="#DejaVuSans-2e"/>
     <use x="154.58984375" xlink:href="#DejaVuSans-33"/>
     <use x="218.212890625" xlink:href="#DejaVuSans-2e"/>
     <use x="250.0" xlink:href="#DejaVuSans-31"/>
     <use x="313.623046875" xlink:href="#DejaVuSans-31"/>
    </g>
   </g>
   <g id="text_31">
    <g id="patch_19">
     <path d="
M267.075 166.222
L280.749 166.222
L280.749 125.811
L267.075 125.811
z
" style="fill:#ffffff;stroke:#ffffff;"/>
    </g>
    <!-- v0.3.12 -->
    <g transform="translate(276.670019893 164.221906875)rotate(-90.0)scale(0.09996 -0.09996)">
     <use xlink:href="#DejaVuSans-76"/>
     <use x="59.1796875" xlink:href="#DejaVuSans-30"/>
     <use x="122.802734375" xlink:href="#DejaVuSans-2e"/>
     <use x="154.58984375" xlink:href="#DejaVuSans-33"/>
     <use x="218.212890625" xlink:href="#DejaVuSans-2e"/>
     <use x="250.0" xlink:href="#DejaVuSans-31"/>
     <use x="313.623046875" xlink:href="#DejaVuSans-32"/>
    </g>
   </g>
   <g id="text_32">
    <g id="patch_20">
     <path d="
M260.261 239.399
L273.935 239.399
L273.935 205.011
L260.261 205.011
z
" style="fill:#ffffff;stroke:#ffffff;"/>
    </g>
    <!-- v0.4.0 -->
    <g transform="translate(269.855908631 237.399316875)rotate(-90.0)scale(0.09996 -0.09996)">
     <use xlink:href="#DejaVuSans-76"/>
     <use x="59.1796875" xlink:href="#DejaVuSans-30"/>
     <use x="122.802734375" xlink:href="#DejaVuSans-2e"/>
     <use x="154.58984375" xlink:href="#DejaVuSans-34"/>
     <use x="218.212890625" xlink:href="#DejaVuSans-2e"/>
     <use x="250.0" xlink:href="#DejaVuSans-30"/>
    </g>
   </g>
   <g id="text_33">
    <g id="patch_21">
     <path d="
M271.996 217.54
L285.67 217.54
L285.67 183.411
L271.996 183.411
z
" style="fill:#ffffff;stroke:#ffffff;"/>
    </g>
    <!-- v0.4.1 -->
    <g transform="translate(281.591322471 215.540045625)rotate(-90.0)scale(0.09996 -0.09996)">
     <use xlink:href="#DejaVuSans-76"/>
     <use x="59.1796875" xlink:href="#DejaVuSans-30"/>
     <use x="122.802734375" xlink:href="#DejaVuSans-2e"/>
     <use x="154.58984375" xlink:href="#DejaVuSans-34"/>
     <use x="218.212890625" xlink:href="#DejaVuSans-2e"/>
     <use x="250.0" xlink:href="#DejaVuSans-31"/>
    </g>
   </g>
   <g id="text_34">
    <g id="patch_22">
     <path d="
M282.596 239.062
L296.27 239.062
L296.27 205.011
L282.596 205.011
z
" style="fill:#ffffff;stroke:#ffffff;"/>
    </g>
    <!-- v0.4.2 -->
    <g transform="translate(292.191051101 237.061951875)rotate(-90.0)scale(0.09996 -0.09996)">
     <use xlink:href="#DejaVuSans-76"/>
     <use x="59.1796875" xlink:href="#DejaVuSans-30"/>
     <use x="122.802734375" xlink:href="#DejaVuSans-2e"/>
     <use x="154.58984375" xlink:href="#DejaVuSans-34"/>
     <use x="218.212890625" xlink:href="#DejaVuSans-2e"/>
     <use x="250.0" xlink:href="#DejaVuSans-32"/>
    </g>
   </g>
   <g id="text_35">
    <g id="patch_23">
     <path d="
M296.602 217.662
L310.277 217.662
L310.277 183.411
L296.602 183.411
z
" style="fill:#ffffff;stroke:#ffffff;"/>
    </g>
    <!-- v0.4.3 -->
    <g transform="translate(306.197835361 215.661871875)rotate(-90.0)scale(0.09996 -0.09996)">
     <use xlink:href="#DejaVuSans-76"/>
     <use x="59.1796875" xlink:href="#DejaVuSans-30"/>
     <use x="122.802734375" xlink:href="#DejaVuSans-2e"/>
     <use x="154.58984375" xlink:href="#DejaVuSans-34"/>
     <use x="218.212890625" xlink:href="#DejaVuSans-2e"/>
     <use x="250.0" xlink:href="#DejaVuSans-33"/>
    </g>
   </g>
   <g id="text_36">
    <g id="patch_24">
     <path d="
M321.209 239.19
L334.883 239.19
L334.883 205.011
L321.209 205.011
z
" style="fill:#ffffff;stroke:#ffffff;"/>
    </g>
    <!-- v0.4.5 -->
    <g transform="translate(330.804348251 237.190025625)rotate(-90.0)scale(0.09996 -0.09996)">
     <use xlink:href="#DejaVuSans-76"/>
     <use x="59.1796875" xlink:href="#DejaVuSans-30"/>
     <use x="122.802734375" xlink:href="#DejaVuSans-2e"/>
     <use x="154.58984375" xlink:href="#DejaVuSans-34"/>
     <use x="218.212890625" xlink:href="#DejaVuSans-2e"/>
     <use x="250.0" xlink:href="#DejaVuSans-35"/>
    </g>
   </g>
   <g id="text_37">
    <g id="patch_25">
     <path d="
M356.794 217.834
L370.468 217.834
L370.468 183.411
L356.794 183.411
z
" style="fill:#ffffff;stroke:#ffffff;"/>
    </g>
    <!-- v0.4.6 -->
    <g transform="translate(366.389151508 215.833678125)rotate(-90.0)scale(0.09996 -0.09996)">
     <use xlink:href="#DejaVuSans-76"/>
     <use x="59.1796875" xlink:href="#DejaVuSans-30"/>
     <use x="122.802734375" xlink:href="#DejaVuSans-2e"/>
     <use x="154.58984375" xlink:href="#DejaVuSans-34"/>
     <use x="218.212890625" xlink:href="#DejaVuSans-2e"/>
     <use x="250.0" xlink:href="#DejaVuSans-36"/>
    </g>
   </g>
   <g id="text_38">
    <g id="patch_26">
     <path d="
M391.243 239.209
L404.917 239.209
L404.917 205.011
L391.243 205.011
z
" style="fill:#ffffff;stroke:#ffffff;"/>
    </g>
    <!-- v0.4.7 -->
    <g transform="translate(400.838269554 237.208768125)rotate(-90.0)scale(0.09996 -0.09996)">
     <use xlink:href="#DejaVuSans-76"/>
     <use x="59.1796875" xlink:href="#DejaVuSans-30"/>
     <use x="122.802734375" xlink:href="#DejaVuSans-2e"/>
     <use x="154.58984375" xlink:href="#DejaVuSans-34"/>
     <use x="218.212890625" xlink:href="#DejaVuSans-2e"/>
     <use x="250.0" xlink:href="#DejaVuSans-37"/>
    </g>
   </g>
   <g id="text_39">
    <g id="patch_27">
     <path d="
M391.621 167.399
L405.296 167.399
L405.296 133.011
L391.621 133.011
z
" style="fill:#ffffff;stroke:#ffffff;"/>
    </g>
    <!-- v0.5.0 -->
    <g transform="translate(401.216831291 165.399316875)rotate(-90.0)scale(0.09996 -0.09996)">
     <use xlink:href="#DejaVuSans-76"/>
     <use x="59.1796875" xlink:href="#DejaVuSans-30"/>
     <use x="122.802734375" xlink:href="#DejaVuSans-2e"/>
     <use x="154.58984375" xlink:href="#DejaVuSans-35"/>
     <use x="218.212890625" xlink:href="#DejaVuSans-2e"/>
     <use x="250.0" xlink:href="#DejaVuSans-30"/>
    </g>
   </g>
   <g id="text_40">
    <g id="patch_28">
     <path d="
M454.841 152.74
L468.515 152.74
L468.515 118.611
L454.841 118.611
z
" style="fill:#ffffff;stroke:#ffffff;"/>
    </g>
    <!-- v0.5.1 -->
    <g transform="translate(464.436641331 150.740045625)rotate(-90.0)scale(0.09996 -0.09996)">
     <use xlink:href="#DejaVuSans-76"/>
     <use x="59.1796875" xlink:href="#DejaVuSans-30"/>
     <use x="122.802734375" xlink:href="#DejaVuSans-2e"/>
     <use x="154.58984375" xlink:href="#DejaVuSans-35"/>
     <use x="218.212890625" xlink:href="#DejaVuSans-2e"/>
     <use x="250.0" xlink:href="#DejaVuSans-31"/>
    </g>
   </g>
   <g id="text_41">
    <g id="patch_29">
     <path d="
M478.312 167.062
L491.986 167.062
L491.986 133.011
L478.312 133.011
z
" style="fill:#ffffff;stroke:#ffffff;"/>
    </g>
    <!-- v0.5.2 -->
    <g transform="translate(487.907469011 165.061951875)rotate(-90.0)scale(0.09996 -0.09996)">
     <use xlink:href="#DejaVuSans-76"/>
     <use x="59.1796875" xlink:href="#DejaVuSans-30"/>
     <use x="122.802734375" xlink:href="#DejaVuSans-2e"/>
     <use x="154.58984375" xlink:href="#DejaVuSans-35"/>
     <use x="218.212890625" xlink:href="#DejaVuSans-2e"/>
     <use x="250.0" xlink:href="#DejaVuSans-32"/>
    </g>
   </g>
   <g id="text_42">
    <g id="patch_30">
     <path d="
M494.969 239.399
L508.643 239.399
L508.643 205.011
L494.969 205.011
z
" style="fill:#ffffff;stroke:#ffffff;"/>
    </g>
    <!-- v0.6.0 -->
    <g transform="translate(504.564185429 237.399316875)rotate(-90.0)scale(0.09996 -0.09996)">
     <use xlink:href="#DejaVuSans-76"/>
     <use x="59.1796875" xlink:href="#DejaVuSans-30"/>
     <use x="122.802734375" xlink:href="#DejaVuSans-2e"/>
     <use x="154.58984375" xlink:href="#DejaVuSans-36"/>
     <use x="218.212890625" xlink:href="#DejaVuSans-2e"/>
     <use x="250.0" xlink:href="#DejaVuSans-30"/>
    </g>
   </g>
   <g id="text_43">
    <g id="patch_31">
     <path d="
M543.046 195.94
L556.72 195.94
L556.72 161.811
L543.046 161.811
z
" style="fill:#ffffff;stroke:#ffffff;"/>
    </g>
    <!-- v0.6.1 -->
    <g transform="translate(552.641525999 193.940045625)rotate(-90.0)scale(0.09996 -0.09996)">
     <use xlink:href="#DejaVuSans-76"/>
     <use x="59.1796875" xlink:href="#DejaVuSans-30"/>
     <use x="122.802734375" xlink:href="#DejaVuSans-2e"/>
     <use x="154.58984375" xlink:href="#DejaVuSans-36"/>
     <use x="218.212890625" xlink:href="#DejaVuSans-2e"/>
     <use x="250.0" xlink:href="#DejaVuSans-31"/>
    </g>
   </g>
   <g id="text_44">
    <g id="patch_32">
     <path d="
M561.974 174.262
L575.648 174.262
L575.648 140.211
L561.974 140.211
z
" style="fill:#ffffff;stroke:#ffffff;"/>
    </g>
    <!-- v0.6.2 -->
    <g transform="translate(571.569612838 172.261951875)rotate(-90.0)scale(0.09996 -0.09996)">
     <use xlink:href="#DejaVuSans-76"/>
     <use x="59.1796875" xlink:href="#DejaVuSans-30"/>
     <use x="122.802734375" xlink:href="#DejaVuSans-2e"/>
     <use x="154.58984375" xlink:href="#DejaVuSans-36"/>
     <use x="218.212890625" xlink:href="#DejaVuSans-2e"/>
     <use x="250.0" xlink:href="#DejaVuSans-32"/>
    </g>
   </g>
   <g id="legend_1">
    <g id="patch_33">
     <path d="
M61.2368 109.037
L111.899 109.037
L111.899 18.0049
L61.2368 18.0049
L61.2368 109.037
z
" style="fill:#ffffff;stroke:#000000;"/>
    </g>
    <g id="line2d_67">
     <path d="
M68.234 26.1001
L82.2284 26.1001" style="fill:none;stroke:#ff0000;stroke-linecap:square;stroke-width:2;"/>
    </g>
    <g id="line2d_68"/>
    <g id="text_45">
     <!-- 0.2 -->
     <g transform="translate(93.22395 29.598673125)scale(0.09996 -0.09996)">
      <use xlink:href="#DejaVuSans-30"/>
      <use x="63.623046875" xlink:href="#DejaVuSans-2e"/>
      <use x="95.41015625" xlink:href="#DejaVuSans-32"/>
     </g>
    </g>
    <g id="line2d_69">
     <path d="
M68.234 40.7723
L82.2284 40.7723" style="fill:none;stroke:#008000;stroke-linecap:square;stroke-width:2;"/>
    </g>
    <g id="line2d_70"/>
    <g id="text_46">
     <!-- 0.3 -->
     <g transform="translate(93.22395 44.270926875)scale(0.09996 -0.09996)">
      <use xlink:href="#DejaVuSans-30"/>
      <use x="63.623046875" xlink:href="#DejaVuSans-2e"/>
      <use x="95.41015625" xlink:href="#DejaVuSans-33"/>
     </g>
    </g>
    <g id="line2d_71">
     <path d="
M68.234 55.4446
L82.2284 55.4446" style="fill:none;stroke:#0000ff;stroke-linecap:square;stroke-width:2;"/>
    </g>
    <g id="line2d_72"/>
    <g id="text_47">
     <!-- 0.4 -->
     <g transform="translate(93.22395 58.943180625)scale(0.09996 -0.09996)">
      <use xlink:href="#DejaVuSans-30"/>
      <use x="63.623046875" xlink:href="#DejaVuSans-2e"/>
      <use x="95.41015625" xlink:href="#DejaVuSans-34"/>
     </g>
    </g>
    <g id="line2d_73">
     <path d="
M68.234 70.1168
L82.2284 70.1168" style="fill:none;stroke:#000000;stroke-linecap:square;stroke-width:2;"/>
    </g>
    <g id="line2d_74"/>
    <g id="text_48">
     <!-- 0.5 -->
     <g transform="translate(93.22395 73.615434375)scale(0.09996 -0.09996)">
      <use xlink:href="#DejaVuSans-30"/>
      <use x="63.623046875" xlink:href="#DejaVuSans-2e"/>
      <use x="95.41015625" xlink:href="#DejaVuSans-35"/>
     </g>
    </g>
    <g id="line2d_75">
     <path d="
M68.234 84.7891
L82.2284 84.7891" style="fill:none;stroke:#bfbf00;stroke-linecap:square;stroke-width:2;"/>
    </g>
    <g id="line2d_76"/>
    <g id="text_49">
     <!-- 0.6 -->
     <g transform="translate(93.22395 88.287688125)scale(0.09996 -0.09996)">
      <use xlink:href="#DejaVuSans-30"/>
      <use x="63.623046875" xlink:href="#DejaVuSans-2e"/>
      <use x="95.41015625" xlink:href="#DejaVuSans-36"/>
     </g>
    </g>
    <g id="line2d_77">
     <path d="
M68.234 99.4613
L82.2284 99.4613" style="fill:none;stroke:#bf00bf;stroke-linecap:square;stroke-width:2;"/>
    </g>
    <g id="line2d_78"/>
    <g id="text_50">
     <!-- 0.7 -->
     <g transform="translate(93.22395 102.959941875)scale(0.09996 -0.09996)">
      <use xlink:href="#DejaVuSans-30"/>
      <use x="63.623046875" xlink:href="#DejaVuSans-2e"/>
      <use x="95.41015625" xlink:href="#DejaVuSans-37"/>
     </g>
    </g>
   </g>
  </g>
 </g>
 <defs>
  <clipPath id="p8b363464d2">
   <rect height="230.4" width="558.0" x="56.23875" y="13.006875"/>
  </clipPath>
 </defs>
</svg>
