<?xml version="1.0" encoding="UTF-8"?>
<svg xmlns="http://www.w3.org/2000/svg"
     xmlns:xlink="http://www.w3.org/1999/xlink"
     xmlns:gadfly="http://www.gadflyjl.org/ns"
     version="1.2"
     width="203.2mm" height="76.2mm" viewBox="0 0 203.2 76.2"
     stroke="none"
     fill="#000000"
     stroke-width="0.3"
     font-size="3.88"
>
<g class="plotroot xscalable yscalable" id="fig-45837cc07f684e66bc5e98b8820df7cd-element-1">
  <g font-size="3.88" font-family="'PT Sans','Helvetica Neue','Helvetica',sans-serif" fill="#564A55" stroke="#000000" stroke-opacity="0.000" id="fig-45837cc07f684e66bc5e98b8820df7cd-element-2">
    <text x="101.74" y="64.59" text-anchor="middle" dy="0.6em">Date</text>
  </g>
  <g class="guide xlabels" font-size="2.82" font-family="'PT Sans Caption','Helvetica Neue','Helvetica',sans-serif" fill="#6C606B" id="fig-45837cc07f684e66bc5e98b8820df7cd-element-3">
    <text x="22.21" y="57.91" text-anchor="middle" dy="0.6em">Apr</text>
    <text x="30.95" y="57.91" text-anchor="middle" dy="0.6em">May</text>
    <text x="39.98" y="57.91" text-anchor="middle" dy="0.6em">Jun</text>
    <text x="48.72" y="57.91" text-anchor="middle" dy="0.6em">Jul</text>
    <text x="57.75" y="57.91" text-anchor="middle" dy="0.6em">Aug</text>
    <text x="66.79" y="57.91" text-anchor="middle" dy="0.6em">Sep</text>
    <text x="75.52" y="57.91" text-anchor="middle" dy="0.6em">Oct</text>
    <text x="84.56" y="57.91" text-anchor="middle" dy="0.6em">Nov</text>
    <text x="93.29" y="57.91" text-anchor="middle" dy="0.6em">Dec</text>
    <text x="102.33" y="57.91" text-anchor="middle" dy="0.6em">Jan 2015</text>
    <text x="111.36" y="57.91" text-anchor="middle" dy="0.6em">Feb</text>
    <text x="119.51" y="57.91" text-anchor="middle" dy="0.6em">Mar</text>
    <text x="128.54" y="57.91" text-anchor="middle" dy="0.6em">Apr</text>
    <text x="137.28" y="57.91" text-anchor="middle" dy="0.6em">May</text>
    <text x="146.31" y="57.91" text-anchor="middle" dy="0.6em">Jun</text>
    <text x="155.05" y="57.91" text-anchor="middle" dy="0.6em">Jul</text>
    <text x="164.08" y="57.91" text-anchor="middle" dy="0.6em">Aug</text>
    <text x="173.11" y="57.91" text-anchor="middle" dy="0.6em">Sep</text>
    <text x="181.85" y="57.91" text-anchor="middle" dy="0.6em">Oct</text>
  </g>
  <g class="guide colorkey" id="fig-45837cc07f684e66bc5e98b8820df7cd-element-4">
    <g fill="#4C404B" font-size="2.82" font-family="'PT Sans','Helvetica Neue','Helvetica',sans-serif" id="fig-45837cc07f684e66bc5e98b8820df7cd-element-5">
      <text x="187.67" y="29.14" dy="0.35em" id="fig-45837cc07f684e66bc5e98b8820df7cd-element-6" class="color_0.2">0.2</text>
      <text x="187.67" y="32.77" dy="0.35em" id="fig-45837cc07f684e66bc5e98b8820df7cd-element-7" class="color_0.3">0.3</text>
      <text x="187.67" y="36.4" dy="0.35em" id="fig-45837cc07f684e66bc5e98b8820df7cd-element-8" class="color_0.4">0.4</text>
    </g>
    <g stroke="#000000" stroke-opacity="0.000" id="fig-45837cc07f684e66bc5e98b8820df7cd-element-9">
      <rect x="184.85" y="28.24" width="1.81" height="1.81" id="fig-45837cc07f684e66bc5e98b8820df7cd-element-10" fill="#00BFFF" class="color_0.2"/>
      <rect x="184.85" y="31.86" width="1.81" height="1.81" id="fig-45837cc07f684e66bc5e98b8820df7cd-element-11" fill="#D4CA3A" class="color_0.3"/>
      <rect x="184.85" y="35.49" width="1.81" height="1.81" id="fig-45837cc07f684e66bc5e98b8820df7cd-element-12" fill="#FF5EA0" class="color_0.4"/>
    </g>
    <g fill="#362A35" font-size="3.88" font-family="'PT Sans','Helvetica Neue','Helvetica',sans-serif" stroke="#000000" stroke-opacity="0.000" id="fig-45837cc07f684e66bc5e98b8820df7cd-element-13">
      <text x="184.85" y="25.32" id="fig-45837cc07f684e66bc5e98b8820df7cd-element-14">Julia ver.</text>
    </g>
  </g>
  <g clip-path="url(#fig-45837cc07f684e66bc5e98b8820df7cd-element-16)" id="fig-45837cc07f684e66bc5e98b8820df7cd-element-15">
    <g pointer-events="visible" opacity="1" fill="#000000" fill-opacity="0.000" stroke="#000000" stroke-opacity="0.000" class="guide background" id="fig-45837cc07f684e66bc5e98b8820df7cd-element-17">
      <rect x="19.63" y="5" width="164.22" height="51.91" id="fig-45837cc07f684e66bc5e98b8820df7cd-element-18"/>
    </g>
    <g class="guide ygridlines xfixed" stroke-dasharray="0.5,0.5" stroke-width="0.2" stroke="#D0D0E0" id="fig-45837cc07f684e66bc5e98b8820df7cd-element-19">
      <path fill="none" d="M19.63,54.91 L 183.85 54.91" id="fig-45837cc07f684e66bc5e98b8820df7cd-element-20"/>
      <path fill="none" d="M19.63,45.33 L 183.85 45.33" id="fig-45837cc07f684e66bc5e98b8820df7cd-element-21"/>
      <path fill="none" d="M19.63,35.75 L 183.85 35.75" id="fig-45837cc07f684e66bc5e98b8820df7cd-element-22"/>
      <path fill="none" d="M19.63,26.17 L 183.85 26.17" id="fig-45837cc07f684e66bc5e98b8820df7cd-element-23"/>
      <path fill="none" d="M19.63,16.58 L 183.85 16.58" id="fig-45837cc07f684e66bc5e98b8820df7cd-element-24"/>
      <path fill="none" d="M19.63,7 L 183.85 7" id="fig-45837cc07f684e66bc5e98b8820df7cd-element-25"/>
    </g>
    <g class="guide xgridlines yfixed" stroke-dasharray="0.5,0.5" stroke-width="0.2" stroke="#D0D0E0" id="fig-45837cc07f684e66bc5e98b8820df7cd-element-26">
      <path fill="none" d="M22.21,5 L 22.21 56.91" id="fig-45837cc07f684e66bc5e98b8820df7cd-element-27"/>
      <path fill="none" d="M30.95,5 L 30.95 56.91" id="fig-45837cc07f684e66bc5e98b8820df7cd-element-28"/>
      <path fill="none" d="M39.98,5 L 39.98 56.91" id="fig-45837cc07f684e66bc5e98b8820df7cd-element-29"/>
      <path fill="none" d="M48.72,5 L 48.72 56.91" id="fig-45837cc07f684e66bc5e98b8820df7cd-element-30"/>
      <path fill="none" d="M57.75,5 L 57.75 56.91" id="fig-45837cc07f684e66bc5e98b8820df7cd-element-31"/>
      <path fill="none" d="M66.79,5 L 66.79 56.91" id="fig-45837cc07f684e66bc5e98b8820df7cd-element-32"/>
      <path fill="none" d="M75.52,5 L 75.52 56.91" id="fig-45837cc07f684e66bc5e98b8820df7cd-element-33"/>
      <path fill="none" d="M84.56,5 L 84.56 56.91" id="fig-45837cc07f684e66bc5e98b8820df7cd-element-34"/>
      <path fill="none" d="M93.29,5 L 93.29 56.91" id="fig-45837cc07f684e66bc5e98b8820df7cd-element-35"/>
      <path fill="none" d="M102.33,5 L 102.33 56.91" id="fig-45837cc07f684e66bc5e98b8820df7cd-element-36"/>
      <path fill="none" d="M111.36,5 L 111.36 56.91" id="fig-45837cc07f684e66bc5e98b8820df7cd-element-37"/>
      <path fill="none" d="M119.51,5 L 119.51 56.91" id="fig-45837cc07f684e66bc5e98b8820df7cd-element-38"/>
      <path fill="none" d="M128.54,5 L 128.54 56.91" id="fig-45837cc07f684e66bc5e98b8820df7cd-element-39"/>
      <path fill="none" d="M137.28,5 L 137.28 56.91" id="fig-45837cc07f684e66bc5e98b8820df7cd-element-40"/>
      <path fill="none" d="M146.31,5 L 146.31 56.91" id="fig-45837cc07f684e66bc5e98b8820df7cd-element-41"/>
      <path fill="none" d="M155.05,5 L 155.05 56.91" id="fig-45837cc07f684e66bc5e98b8820df7cd-element-42"/>
      <path fill="none" d="M164.08,5 L 164.08 56.91" id="fig-45837cc07f684e66bc5e98b8820df7cd-element-43"/>
      <path fill="none" d="M173.11,5 L 173.11 56.91" id="fig-45837cc07f684e66bc5e98b8820df7cd-element-44"/>
      <path fill="none" d="M181.85,5 L 181.85 56.91" id="fig-45837cc07f684e66bc5e98b8820df7cd-element-45"/>
    </g>
    <g class="plotpanel" id="fig-45837cc07f684e66bc5e98b8820df7cd-element-46">
      <g class="geometry" stroke="#000000" stroke-opacity="0.000" fill="#4C404B" font-size="2.82" font-family="'PT Sans Caption','Helvetica Neue','Helvetica',sans-serif" id="fig-45837cc07f684e66bc5e98b8820df7cd-element-47">
        <text x="68.23" y="52.46" text-anchor="middle" dy="0.35em" id="fig-45837cc07f684e66bc5e98b8820df7cd-element-48" visibility="visible">v0.3.0</text>
        <text x="77.55" y="52.46" text-anchor="middle" dy="0.35em" id="fig-45837cc07f684e66bc5e98b8820df7cd-element-49" visibility="visible">v0.3.1</text>
        <text x="86.29" y="52.46" text-anchor="middle" dy="0.35em" id="fig-45837cc07f684e66bc5e98b8820df7cd-element-50" visibility="visible">v0.3.2</text>
        <text x="95.9" y="52.46" text-anchor="middle" dy="0.35em" id="fig-45837cc07f684e66bc5e98b8820df7cd-element-51" visibility="visible">v0.3.3</text>
        <text x="101.58" y="52.46" text-anchor="middle" dy="0.35em" id="fig-45837cc07f684e66bc5e98b8820df7cd-element-52" visibility="visible"></text>
        <text x="109.3" y="52.46" text-anchor="middle" dy="0.35em" id="fig-45837cc07f684e66bc5e98b8820df7cd-element-53" visibility="visible">v0.3.5</text>
        <text x="120.96" y="52.46" text-anchor="middle" dy="0.35em" id="fig-45837cc07f684e66bc5e98b8820df7cd-element-54" visibility="visible">v0.3.6</text>
        <text x="130.86" y="52.46" text-anchor="middle" dy="0.35em" id="fig-45837cc07f684e66bc5e98b8820df7cd-element-55" visibility="visible">v0.3.7</text>
        <text x="141.93" y="52.46" text-anchor="middle" dy="0.35em" id="fig-45837cc07f684e66bc5e98b8820df7cd-element-56" visibility="visible">v0.3.8</text>
        <text x="150.67" y="52.46" text-anchor="middle" dy="0.35em" id="fig-45837cc07f684e66bc5e98b8820df7cd-element-57" visibility="visible">v0.3.9</text>
        <text x="150.67" y="52.46" text-anchor="middle" dy="0.35em" id="fig-45837cc07f684e66bc5e98b8820df7cd-element-58" visibility="visible">v0.3.9</text>
        <text x="158.79" y="52.46" text-anchor="middle" dy="0.35em" id="fig-45837cc07f684e66bc5e98b8820df7cd-element-59" visibility="visible">v0.3.10</text>
        <text x="168.4" y="52.46" text-anchor="middle" dy="0.35em" id="fig-45837cc07f684e66bc5e98b8820df7cd-element-60" visibility="visible">v0.3.11</text>
      </g>
      <g class="yfixed" stroke-width="0.26" stroke="#333333" id="fig-45837cc07f684e66bc5e98b8820df7cd-element-61">
        <path fill="none" d="M63.29,5 L 63.29 56.91" id="fig-45837cc07f684e66bc5e98b8820df7cd-element-62"/>
        <path fill="none" d="M72.61,5 L 72.61 56.91" id="fig-45837cc07f684e66bc5e98b8820df7cd-element-63"/>
        <path fill="none" d="M81.35,5 L 81.35 56.91" id="fig-45837cc07f684e66bc5e98b8820df7cd-element-64"/>
        <path fill="none" d="M90.96,5 L 90.96 56.91" id="fig-45837cc07f684e66bc5e98b8820df7cd-element-65"/>
        <path fill="none" d="M100.58,5 L 100.58 56.91" id="fig-45837cc07f684e66bc5e98b8820df7cd-element-66"/>
        <path fill="none" d="M104.36,5 L 104.36 56.91" id="fig-45837cc07f684e66bc5e98b8820df7cd-element-67"/>
        <path fill="none" d="M116.02,5 L 116.02 56.91" id="fig-45837cc07f684e66bc5e98b8820df7cd-element-68"/>
        <path fill="none" d="M125.92,5 L 125.92 56.91" id="fig-45837cc07f684e66bc5e98b8820df7cd-element-69"/>
        <path fill="none" d="M136.99,5 L 136.99 56.91" id="fig-45837cc07f684e66bc5e98b8820df7cd-element-70"/>
        <path fill="none" d="M145.73,5 L 145.73 56.91" id="fig-45837cc07f684e66bc5e98b8820df7cd-element-71"/>
        <path fill="none" d="M145.73,5 L 145.73 56.91" id="fig-45837cc07f684e66bc5e98b8820df7cd-element-72"/>
        <path fill="none" d="M153.01,5 L 153.01 56.91" id="fig-45837cc07f684e66bc5e98b8820df7cd-element-73"/>
        <path fill="none" d="M162.63,5 L 162.63 56.91" id="fig-45837cc07f684e66bc5e98b8820df7cd-element-74"/>
      </g>
      <g stroke-width="0.79" fill="#000000" fill-opacity="0.000" class="geometry color_0.4" stroke="#FF5EA0" id="fig-45837cc07f684e66bc5e98b8820df7cd-element-75">
        <path fill="none" d="M61.25,39.2 L 61.54 38.91 61.83 38.82 62.12 38.72 62.42 38.72 62.71 38.72 63.29 38.43 63.58 38.43 63.87 38.34 64.16 38.34 64.45 38.34 64.75 38.05 65.04 37.86 65.33 37.86 65.91 37.67 66.2 37.38 66.79 37.19 67.08 37.19 67.37 37.19 68.53 37.19 69.41 36.61 69.7 36.52 69.99 36.42 70.28 36.23 70.57 36.23 70.86 36.23 71.15 35.46 71.45 35.46 71.74 35.46 72.32 35.37 72.61 35.37 72.9 35.27 73.19 35.27 73.49 35.27 73.78 35.17 74.07 35.17 74.65 35.27 74.94 35.17 75.23 35.17 75.52 34.98 75.82 34.79 76.11 34.79 76.4 34.79 76.69 34.6 77.56 34.41 77.86 34.41 78.15 34.22 78.44 34.12 78.73 34.12 79.02 34.12 79.31 33.93 79.6 33.93 79.89 33.83 80.19 33.74 80.48 33.74 80.77 33.74 81.06 33.74 81.35 33.54 81.64 33.35 81.93 33.35 82.22 33.35 82.52 33.26 82.81 33.26 83.1 33.16 83.39 33.16 83.68 32.97 83.97 32.87 84.26 32.87 84.56 32.78 84.85 32.78 85.14 32.78 85.43 32.78 85.72 32.68 86.01 32.59 86.89 32.59 88.34 32.01 88.63 31.82 88.93 31.82 89.22 31.72 89.51 31.72 89.8 31.44 90.09 31.44 91.26 30.96 91.55 30.96 93 30.86 93.59 30.86 93.88 30.67 94.17 30.57 94.46 30.57 94.75 30.57 95.04 30.38 95.33 30.19 96.21 30.1 96.5 30 97.08 29.62 97.37 29.62 97.66 29.62 98.54 29.62 99.12 29.42 100 29.23 101.16 29.04 101.74 28.66 102.62 28.47 104.66 27.8 105.82 27.12 106.11 26.93 106.4 26.93 106.7 26.36 106.99 26.36 107.28 26.36 107.86 26.26 108.15 26.17 108.44 26.17 108.73 25.88 109.03 25.78 109.32 25.78 109.61 25.78 110.19 25.5 110.48 25.21 110.77 25.11 111.94 24.35 112.23 24.35 112.52 24.63 113.1 24.35 113.69 24.06 113.98 24.06 114.85 23.87 116.31 23.87 117.77 23.77 119.22 22.91 119.51 22.91 119.8 22.91 120.1 22.72 120.39 22.72 120.97 22.52 121.55 22.52 122.72 22.43 123.01 22.24 123.3 22.24 123.59 22.24 123.88 22.05 124.17 22.14 124.47 21.95 127.96 21.57 128.54 21.57 128.84 21.28 129.42 21.28 130.58 21.18 131.17 21.09 131.75 20.8 132.91 20.61 133.5 20.42 133.79 20.13 134.37 19.65 134.66 19.65 134.95 19.55 135.24 19.36 135.54 19.36 135.83 19.27 136.41 19.17 136.7 18.98 137.28 18.98 137.87 18.79 138.16 18.5 138.45 18.4 139.03 18.21 139.32 18.12 140.78 17.73 141.94 17.54 142.24 17.35 144.57 17.06 144.86 17.06 145.15 17.06 146.02 16.68 146.31 16.58 146.61 16.39 147.19 16.2 147.77 16.2 148.35 16.01 150.97 15.34 151.85 15.34 152.14 15.34 152.43 15.15 152.72 15.15 153.01 14.86 153.31 14.86 153.6 14.86 153.89 14.76 154.76 14.67 155.34 14.47 155.93 14.47 156.22 14.28 156.51 13.9 156.8 13.71 157.09 13.61 157.38 13.61 162.34 12.17 164.67 11.6 167.29 11.12 172.24 8.72 173.11 8.53 174.57 8.15 176.03 7.48 180.69 5.66 181.85 5.08" id="fig-45837cc07f684e66bc5e98b8820df7cd-element-76"/>
      </g>
      <g stroke-width="0.79" fill="#000000" fill-opacity="0.000" class="geometry color_0.3" stroke="#D4CA3A" id="fig-45837cc07f684e66bc5e98b8820df7cd-element-77">
        <path fill="none" d="M21.63,45.72 L 21.92 45.72 22.21 45.62 22.51 45.62 22.8 45.62 23.09 45.62 23.38 45.62 23.67 45.52 24.25 45.52 24.54 45.43 25.13 45.33 25.71 45.14 26 45.14 26.58 45.14 26.88 45.04 28.91 44.66 29.79 44.66 30.37 44.66 32.41 44.57 32.7 44.37 32.99 44.28 33.28 44.28 33.58 44.28 33.87 44.28 34.16 44.28 34.45 44.28 34.74 44.28 35.03 44.28 35.32 44.28 35.61 43.99 36.2 43.89 36.49 43.89 36.78 43.89 37.07 43.7 37.36 43.7 37.65 43.7 37.95 43.61 38.24 43.61 38.53 43.61 38.82 43.61 39.11 43.61 39.4 43.51 39.69 43.51 39.98 47.34 40.28 43.42 40.57 43.32 40.86 43.22 42.61 42.65 42.9 42.55 43.19 42.46 43.48 42.36 43.77 42.17 44.06 42.17 44.35 41.98 44.65 41.98 44.94 41.88 45.23 41.79 45.81 41.79 46.1 41.59 46.39 41.59 46.68 41.59 46.98 41.59 47.27 41.59 47.56 41.31 47.85 41.31 48.43 41.21 48.72 41.02 49.02 40.92 49.31 40.83 49.6 40.83 49.89 40.64 50.47 40.54 50.76 40.25 51.05 40.25 51.35 40.25 51.93 39.77 52.51 39.49 52.8 39.49 53.09 39.39 53.38 39.39 54.26 39.29 54.55 39.29 54.84 39.2 55.13 39.2 55.42 39.2 55.72 39.1 56.01 39.01 56.3 38.91 56.88 38.91 57.17 38.91 57.75 38.91 58.05 38.82 58.34 38.53 58.63 38.53 59.21 38.43 59.5 38.43 59.79 38.24 60.09 38.14 60.38 38.05 60.67 37.95 60.96 37.86 61.25 37.67 61.54 37.67 61.83 37.57 62.12 37.47 62.42 37.47 62.71 37.47 63.29 37.19 63.58 37.19 63.87 37.09 64.16 37.09 64.45 37.09 64.75 36.8 65.04 36.71 65.33 36.61 65.91 37.76 66.2 37.47 66.79 37.28 67.08 37.28 67.37 37.28 68.53 37.28 69.41 36.71 69.7 36.61 69.99 36.52 70.28 36.32 70.57 36.32 70.86 36.32 71.15 35.56 71.45 35.56 71.74 35.56 72.32 35.56 72.61 35.46 72.9 35.37 73.19 35.37 73.49 35.37 73.78 35.27 74.07 35.27 74.65 35.37 74.94 35.27 75.23 35.27 75.52 35.08 75.82 33.16 76.11 34.89 76.4 34.89 76.69 34.69 77.56 34.5 77.86 34.5 78.15 34.31 78.44 34.22 78.73 34.22 79.02 34.22 79.31 34.02 79.6 34.02 79.89 33.93 80.19 33.83 80.48 33.83 80.77 33.83 81.06 33.83 81.35 33.74 81.64 33.54 81.93 33.54 82.22 33.54 82.52 33.45 82.81 33.45 83.1 33.35 83.39 33.35 83.68 33.16 83.97 33.07 84.26 33.07 84.56 32.97 84.85 32.97 85.14 32.97 85.43 32.87 85.72 32.87 86.01 32.78 86.89 32.78 88.34 32.3 88.63 32.11 88.93 32.11 89.22 32.01 89.51 32.01 89.8 31.72 90.09 31.72 91.26 31.24 91.55 31.24 93 31.15 93.59 31.15 93.88 31.05 94.17 30.96 94.46 30.96 94.75 30.96 95.04 30.77 95.33 30.67 96.21 30.48 96.5 30.38 97.08 30.1 97.37 30 97.66 30 98.54 30 99.12 29.81 100 29.62 101.16 29.42 101.74 29.14 102.62 28.75 104.66 28.18 105.82 27.51 106.11 27.32 106.4 27.32 106.7 26.84 106.99 26.84 107.28 26.84 107.86 26.84 108.15 26.65 108.44 26.65 108.73 26.36 109.03 26.26 109.32 26.26 109.61 26.26 110.19 25.97 110.48 25.78 110.77 25.69 111.94 24.92 112.23 25.11 112.52 25.11 113.1 24.82 113.69 24.54 113.98 24.54 114.85 24.35 116.31 24.35 117.77 23.77 119.22 23.39 119.51 23.39 119.8 23.39 120.1 23.2 120.39 23.2 120.97 23.2 121.55 23.2 122.72 23 123.01 22.81 123.3 22.72 123.59 22.72 123.88 22.52 124.17 22.62 124.47 22.43 127.96 22.33 128.54 22.33 128.84 22.05 129.42 22.05 130.58 21.95 131.17 21.95 131.75 21.66 132.91 21.66 133.5 21.47 133.79 21.37 134.37 20.9 134.66 20.9 134.95 20.8 135.24 20.51 135.54 20.51 135.83 20.42 136.41 20.32 136.7 20.22 137.28 20.22 137.87 20.03 138.16 19.75 138.45 19.65 139.03 19.46 139.32 19.36 140.78 18.98 141.94 18.79 142.24 18.6 144.57 18.21 144.86 18.21 145.15 18.21 146.02 17.92 146.31 17.83 146.61 17.73 147.19 17.54 147.77 17.54 148.35 17.45 150.97 16.97 151.85 17.06 152.14 17.06 152.43 16.87 152.72 16.87 153.01 16.68 153.31 16.68 153.6 16.68 153.89 16.58 154.76 16.58 155.34 16.39 155.93 16.49 156.22 16.3 156.51 15.91 156.8 15.72 157.09 15.62 157.38 15.62 162.34 14.28 164.67 13.8 167.29 13.32 172.24 11.98 173.11 11.79 174.57 11.7 176.03 11.5 180.69 10.55 181.85 10.07" id="fig-45837cc07f684e66bc5e98b8820df7cd-element-78"/>
      </g>
      <g stroke-width="0.79" fill="#000000" fill-opacity="0.000" class="geometry color_0.2" stroke="#00BFFF" id="fig-45837cc07f684e66bc5e98b8820df7cd-element-79">
        <path fill="none" d="M21.63,46.77 L 21.92 46.77 22.21 46.67 22.51 46.67 22.8 46.67 23.09 46.67 23.38 46.67 23.67 46.67 24.25 46.67 24.54 46.67 25.13 46.58 25.71 46.48 26 46.48 26.58 46.39 26.88 46.29 28.91 46.1 29.79 46.1 30.37 46.1 32.41 46 32.7 45.91 32.99 45.91 33.28 45.91 33.58 45.91 33.87 45.91 34.16 45.91 34.45 45.91 34.74 45.91 35.03 45.91 35.32 45.62 35.61 45.62 36.2 45.52 36.49 45.52 36.78 45.52 37.07 45.43 37.36 46.19 37.65 45.72 37.95 45.72 38.24 45.72 38.53 45.72 38.82 45.72 39.11 45.72 39.4 45.72 39.69 45.72 39.98 45.62 40.28 45.62 40.57 45.52 40.86 45.52 42.61 45.04 42.9 45.04 43.19 44.95 43.48 44.85 43.77 44.66 44.06 44.66 44.35 44.66 44.65 44.66 44.94 44.66 45.23 44.57 45.81 44.57 46.1 44.37 46.39 44.37 46.68 44.37 46.98 44.37 47.27 44.37 47.56 44.09 47.85 44.09 48.43 43.99 48.72 43.8 49.02 43.7 49.31 43.61 49.6 43.61 49.89 43.61 50.47 43.42 50.76 43.32 51.05 43.22 51.35 43.22 51.93 43.03 52.51 42.84 52.8 42.84 53.09 42.84 53.38 42.84 54.26 42.84 54.55 42.84 54.84 42.74 55.13 42.74 55.42 42.74 55.72 42.65 56.01 42.65 56.3 42.65 56.88 42.55 57.17 42.55 57.75 42.55 58.05 42.55 58.34 42.27 58.63 42.27 59.21 42.46 59.5 42.46 59.79 42.27 60.09 42.17 60.38 42.17 60.67 41.98 60.96 41.98" id="fig-45837cc07f684e66bc5e98b8820df7cd-element-80"/>
      </g>
    </g>
  </g>
  <g class="guide ylabels" font-size="2.82" font-family="'PT Sans Caption','Helvetica Neue','Helvetica',sans-serif" fill="#6C606B" id="fig-45837cc07f684e66bc5e98b8820df7cd-element-81">
    <text x="18.63" y="54.91" text-anchor="end" dy="0.35em" id="fig-45837cc07f684e66bc5e98b8820df7cd-element-82">200</text>
    <text x="18.63" y="45.33" text-anchor="end" dy="0.35em" id="fig-45837cc07f684e66bc5e98b8820df7cd-element-83">300</text>
    <text x="18.63" y="35.75" text-anchor="end" dy="0.35em" id="fig-45837cc07f684e66bc5e98b8820df7cd-element-84">400</text>
    <text x="18.63" y="26.17" text-anchor="end" dy="0.35em" id="fig-45837cc07f684e66bc5e98b8820df7cd-element-85">500</text>
    <text x="18.63" y="16.58" text-anchor="end" dy="0.35em" id="fig-45837cc07f684e66bc5e98b8820df7cd-element-86">600</text>
    <text x="18.63" y="7" text-anchor="end" dy="0.35em" id="fig-45837cc07f684e66bc5e98b8820df7cd-element-87">700</text>
  </g>
  <g font-size="3.88" font-family="'PT Sans','Helvetica Neue','Helvetica',sans-serif" fill="#564A55" stroke="#000000" stroke-opacity="0.000" id="fig-45837cc07f684e66bc5e98b8820df7cd-element-88">
    <text x="8.81" y="28.96" text-anchor="middle" dy="0.35em" transform="rotate(-90, 8.81, 30.96)" id="fig-45837cc07f684e66bc5e98b8820df7cd-element-89">Number of Tagged Packages</text>
  </g>
</g>
<defs>
<clipPath id="fig-45837cc07f684e66bc5e98b8820df7cd-element-16">
  <path d="M19.63,5 L 183.85 5 183.85 56.91 19.63 56.91" />
</clipPath
></defs>
</svg>
