<?xml version="1.0" encoding="UTF-8"?>
<svg xmlns="http://www.w3.org/2000/svg"
     xmlns:xlink="http://www.w3.org/1999/xlink"
     xmlns:gadfly="http://www.gadflyjl.org/ns"
     version="1.2"
     width="203.2mm" height="76.2mm" viewBox="0 0 203.2 76.2"
     stroke="none"
     fill="#000000"
     stroke-width="0.3"
     font-size="3.88"
>
<g class="plotroot xscalable yscalable" id="img-a0b7621f-1">
  <g font-size="3.88" font-family="'PT Sans','Helvetica Neue','Helvetica',sans-serif" fill="#564A55" stroke="#000000" stroke-opacity="0.000" id="img-a0b7621f-2">
    <text x="112.46" y="64.59" text-anchor="middle" dy="0.6em">Date</text>
  </g>
  <g class="guide xlabels" font-size="2.82" font-family="'PT Sans Caption','Helvetica Neue','Helvetica',sans-serif" fill="#6C606B" id="img-a0b7621f-3">
    <text x="39.59" y="57.91" text-anchor="middle" dy="0.6em">Nov</text>
    <text x="51.67" y="57.91" text-anchor="middle" dy="0.6em">Dec</text>
    <text x="64.15" y="57.91" text-anchor="middle" dy="0.6em">Jan 2015</text>
    <text x="76.63" y="57.91" text-anchor="middle" dy="0.6em">Feb</text>
    <text x="87.9" y="57.91" text-anchor="middle" dy="0.6em">Mar</text>
    <text x="100.38" y="57.91" text-anchor="middle" dy="0.6em">Apr</text>
    <text x="112.46" y="57.91" text-anchor="middle" dy="0.6em">May</text>
    <text x="124.94" y="57.91" text-anchor="middle" dy="0.6em">Jun</text>
    <text x="137.02" y="57.91" text-anchor="middle" dy="0.6em">Jul</text>
    <text x="149.5" y="57.91" text-anchor="middle" dy="0.6em">Aug</text>
    <text x="161.98" y="57.91" text-anchor="middle" dy="0.6em">Sep</text>
    <text x="174.06" y="57.91" text-anchor="middle" dy="0.6em">Oct</text>
    <text x="186.54" y="57.91" text-anchor="middle" dy="0.6em">Nov</text>
  </g>
<g clip-path="url(#img-a0b7621f-4)">
  <g id="img-a0b7621f-5">
    <g pointer-events="visible" opacity="1" fill="#000000" fill-opacity="0.000" stroke="#000000" stroke-opacity="0.000" class="guide background" id="img-a0b7621f-6">
      <rect x="26.72" y="5" width="171.47" height="51.91"/>
    </g>
    <g class="guide ygridlines xfixed" stroke-dasharray="0.5,0.5" stroke-width="0.2" stroke="#D0D0E0" id="img-a0b7621f-7">
      <path fill="none" d="M26.72,54.91 L 198.2 54.91"/>
      <path fill="none" d="M26.72,42.94 L 198.2 42.94"/>
      <path fill="none" d="M26.72,30.96 L 198.2 30.96"/>
      <path fill="none" d="M26.72,18.98 L 198.2 18.98"/>
      <path fill="none" d="M26.72,7 L 198.2 7"/>
    </g>
    <g class="guide xgridlines yfixed" stroke-dasharray="0.5,0.5" stroke-width="0.2" stroke="#D0D0E0" id="img-a0b7621f-8">
      <path fill="none" d="M39.59,5 L 39.59 56.91"/>
      <path fill="none" d="M51.67,5 L 51.67 56.91"/>
      <path fill="none" d="M64.15,5 L 64.15 56.91"/>
      <path fill="none" d="M76.63,5 L 76.63 56.91"/>
      <path fill="none" d="M87.9,5 L 87.9 56.91"/>
      <path fill="none" d="M100.38,5 L 100.38 56.91"/>
      <path fill="none" d="M112.46,5 L 112.46 56.91"/>
      <path fill="none" d="M124.94,5 L 124.94 56.91"/>
      <path fill="none" d="M137.02,5 L 137.02 56.91"/>
      <path fill="none" d="M149.5,5 L 149.5 56.91"/>
      <path fill="none" d="M161.98,5 L 161.98 56.91"/>
      <path fill="none" d="M174.06,5 L 174.06 56.91"/>
      <path fill="none" d="M186.54,5 L 186.54 56.91"/>
    </g>
    <g class="plotpanel" id="img-a0b7621f-9">
      <g stroke-width="0.79" fill="#000000" fill-opacity="0.000" class="geometry color_1.0" stroke-dasharray="none" stroke="#FFD700" id="img-a0b7621f-10">
        <path fill="none" d="M28.73,52.88 L 29.93 52.75 30.34 52.66 30.74 52.61 31.14 52.57 31.54 52.51 31.95 52.45 32.35 52.35 32.75 52.27 33.15 52.27 33.56 52.2 33.96 52.14 34.36 52.08 34.76 51.98 35.17 51.91 35.57 51.73 35.97 51.54 36.37 51.48 36.78 51.36 37.18 51.3 37.58 51.27 37.98 51.23 38.39 51.45 38.79 51.38 39.19 51.34 39.59 51.31 40 51.29 40.4 51.22 40.8 50.89 41.21 50.61 41.61 50.56 42.82 50.06 44.83 49.47 45.23 49.45 45.63 48.88 46.04 48.63 46.44 48.55 46.84 48.38 47.24 48.28 48.85 47.63 49.26 47.55 51.27 46.91 52.07 46.67 52.48 46.57 52.88 46.46 53.28 46.36 53.69 46.17 54.09 46.11 54.49 46.14 55.7 45.87 56.1 45.67 56.91 45.5 57.31 45.38 57.71 45.25 58.92 45.18 59.72 45.02 60.93 44.7 62.54 44.45 63.35 43.98 64.55 43.68 67.37 43.12 68.98 42.65 69.39 42.57 69.79 42.55 70.19 42.37 70.59 42.27 71 42.27 71.8 42.14 72.2 42.09 72.61 42.01 73.01 41.94 73.41 41.9 73.81 41.88 74.22 41.86 75.02 41.72 75.42 41.59 75.83 41.56 77.44 41.24 77.84 41.09 78.24 41.02 79.05 40.91 79.85 40.77 80.26 40.73 81.46 40.46 83.48 40 85.49 39.15 87.5 38.77 87.9 38.58 88.31 38.49 88.71 38.32 89.11 38.16 89.92 37.95 90.72 37.76 92.33 37.42 92.74 37.34 93.14 37.2 93.54 37.16 93.94 37.08 94.35 36.9 94.75 36.82 99.58 36.01 100.38 35.82 100.79 35.76 101.59 35.67 103.2 35.26 104.01 35.17 104.81 35.04 106.42 34.7 107.23 34.56 107.63 34.52 108.44 34.26 108.84 34.21 109.24 34.12 109.64 34.07 110.05 33.99 110.45 33.92 111.25 33.75 111.66 33.68 112.46 33.49 113.27 33.28 113.67 33.19 114.07 33.01 114.88 32.87 115.28 32.69 117.29 32.32 118.9 31.95 119.31 31.8 122.53 31.27 122.93 31.22 123.33 31.19 124.54 30.91 124.94 30.77 125.35 30.66 126.15 30.5 126.96 30.32 127.76 29.99 131.38 28.26 132.99 27.85 133.4 27.77 133.8 27.99 134.2 28.02 134.6 27.93 135.01 27.86 135.41 27.77 136.62 27.59 137.42 27.48 138.23 27.36 138.63 27.3 139.03 27.13 139.44 26.91 139.84 26.8 140.24 26.72 147.08 24.87 150.31 24.32 153.93 23.34 160.77 20.54 161.98 20.69 163.99 20.13 166.01 19.48 172.45 16.4 174.06 15.79 176.07 14.76 177.68 14.25 179.29 13.54 180.5 13.15 185.33 10.96 190.16 9.23 191.77 8.68 192.58 8.29 196.2 7.01"/>
      </g>
    </g>
  </g>
</g>
  <g class="guide ylabels" font-size="2.82" font-family="'PT Sans Caption','Helvetica Neue','Helvetica',sans-serif" fill="#6C606B" id="img-a0b7621f-11">
    <text x="25.72" y="54.91" text-anchor="end" dy="0.35em">4.0×10³</text>
    <text x="25.72" y="42.94" text-anchor="end" dy="0.35em">6.0×10³</text>
    <text x="25.72" y="30.96" text-anchor="end" dy="0.35em">8.0×10³</text>
    <text x="25.72" y="18.98" text-anchor="end" dy="0.35em">1.0×10⁴</text>
    <text x="25.72" y="7" text-anchor="end" dy="0.35em">1.2×10⁴</text>
  </g>
  <g font-size="3.88" font-family="'PT Sans','Helvetica Neue','Helvetica',sans-serif" fill="#564A55" stroke="#000000" stroke-opacity="0.000" id="img-a0b7621f-12">
    <text x="8.81" y="28.96" text-anchor="middle" dy="0.35em" transform="rotate(-90, 8.81, 30.96)">Number of Stars</text>
  </g>
</g>
<defs>
  <clipPath id="img-a0b7621f-4">
  <path d="M26.72,5 L 198.2 5 198.2 56.91 26.72 56.91" />
</clipPath>
</defs>
</svg>
