<?xml version="1.0" encoding="UTF-8"?>
<svg xmlns="http://www.w3.org/2000/svg"
     xmlns:xlink="http://www.w3.org/1999/xlink"
     xmlns:gadfly="http://www.gadflyjl.org/ns"
     version="1.2"
     width="203.2mm" height="76.2mm" viewBox="0 0 203.2 76.2"
     stroke="none"
     fill="#000000"
     stroke-width="0.3"
     font-size="3.88"
>
<g class="plotroot xscalable yscalable" id="fig-f59f0a617b5245518173ec774dff2d05-element-1">
  <g font-size="3.88" font-family="'PT Sans','Helvetica Neue','Helvetica',sans-serif" fill="#564A55" stroke="#000000" stroke-opacity="0.000" id="fig-f59f0a617b5245518173ec774dff2d05-element-2">
    <text x="112.46" y="64.59" text-anchor="middle" dy="0.6em">Date</text>
  </g>
  <g class="guide xlabels" font-size="2.82" font-family="'PT Sans Caption','Helvetica Neue','Helvetica',sans-serif" fill="#6C606B" id="fig-f59f0a617b5245518173ec774dff2d05-element-3">
    <text x="40.95" y="57.91" text-anchor="middle" dy="0.6em">Nov</text>
    <text x="54.53" y="57.91" text-anchor="middle" dy="0.6em">Dec</text>
    <text x="68.56" y="57.91" text-anchor="middle" dy="0.6em">Jan 2015</text>
    <text x="82.59" y="57.91" text-anchor="middle" dy="0.6em">Feb</text>
    <text x="95.26" y="57.91" text-anchor="middle" dy="0.6em">Mar</text>
    <text x="109.29" y="57.91" text-anchor="middle" dy="0.6em">Apr</text>
    <text x="122.87" y="57.91" text-anchor="middle" dy="0.6em">May</text>
    <text x="136.9" y="57.91" text-anchor="middle" dy="0.6em">Jun</text>
    <text x="150.48" y="57.91" text-anchor="middle" dy="0.6em">Jul</text>
    <text x="164.52" y="57.91" text-anchor="middle" dy="0.6em">Aug</text>
    <text x="178.55" y="57.91" text-anchor="middle" dy="0.6em">Sep</text>
    <text x="192.13" y="57.91" text-anchor="middle" dy="0.6em">Oct</text>
  </g>
  <g clip-path="url(#fig-f59f0a617b5245518173ec774dff2d05-element-5)" id="fig-f59f0a617b5245518173ec774dff2d05-element-4">
    <g pointer-events="visible" opacity="1" fill="#000000" fill-opacity="0.000" stroke="#000000" stroke-opacity="0.000" class="guide background" id="fig-f59f0a617b5245518173ec774dff2d05-element-6">
      <rect x="26.72" y="5" width="171.48" height="51.91"/>
    </g>
    <g class="guide ygridlines xfixed" stroke-dasharray="0.5,0.5" stroke-width="0.2" stroke="#D0D0E0" id="fig-f59f0a617b5245518173ec774dff2d05-element-7">
      <path fill="none" d="M26.72,54.91 L 198.2 54.91"/>
      <path fill="none" d="M26.72,42.94 L 198.2 42.94"/>
      <path fill="none" d="M26.72,30.96 L 198.2 30.96"/>
      <path fill="none" d="M26.72,18.98 L 198.2 18.98"/>
      <path fill="none" d="M26.72,7 L 198.2 7"/>
    </g>
    <g class="guide xgridlines yfixed" stroke-dasharray="0.5,0.5" stroke-width="0.2" stroke="#D0D0E0" id="fig-f59f0a617b5245518173ec774dff2d05-element-8">
      <path fill="none" d="M40.95,5 L 40.95 56.91"/>
      <path fill="none" d="M54.53,5 L 54.53 56.91"/>
      <path fill="none" d="M68.56,5 L 68.56 56.91"/>
      <path fill="none" d="M82.59,5 L 82.59 56.91"/>
      <path fill="none" d="M95.26,5 L 95.26 56.91"/>
      <path fill="none" d="M109.29,5 L 109.29 56.91"/>
      <path fill="none" d="M122.87,5 L 122.87 56.91"/>
      <path fill="none" d="M136.9,5 L 136.9 56.91"/>
      <path fill="none" d="M150.48,5 L 150.48 56.91"/>
      <path fill="none" d="M164.52,5 L 164.52 56.91"/>
      <path fill="none" d="M178.55,5 L 178.55 56.91"/>
      <path fill="none" d="M192.13,5 L 192.13 56.91"/>
    </g>
    <g class="plotpanel" id="fig-f59f0a617b5245518173ec774dff2d05-element-9">
      <g stroke-width="0.79" fill="#000000" fill-opacity="0.000" class="geometry color_1.0" stroke-dasharray="none" stroke="#FFD700" id="fig-f59f0a617b5245518173ec774dff2d05-element-10">
        <path fill="none" d="M28.72,52.88 L 30.08 52.75 30.54 52.66 30.99 52.61 31.44 52.57 31.89 52.51 32.35 52.45 32.8 52.35 33.25 52.27 33.7 52.27 34.16 52.2 34.61 52.14 35.06 52.08 35.51 51.98 35.97 51.91 36.42 51.73 36.87 51.54 37.33 51.48 37.78 51.36 38.23 51.3 38.68 51.27 39.14 51.23 39.59 51.45 40.04 51.38 40.49 51.34 40.95 51.31 41.4 51.29 41.85 51.22 42.3 50.89 42.76 50.61 43.21 50.56 44.57 50.06 46.83 49.47 47.28 49.45 47.74 48.88 48.19 48.63 48.64 48.55 49.09 48.38 49.55 48.28 51.36 47.63 51.81 47.55 54.07 46.91 54.98 46.67 55.43 46.57 55.88 46.46 56.34 46.36 56.79 46.17 57.24 46.11 57.69 46.14 59.05 45.87 59.5 45.67 60.41 45.5 60.86 45.38 61.31 45.25 62.67 45.18 63.58 45.02 64.94 44.7 66.75 44.45 67.65 43.98 69.01 43.68 72.18 43.12 73.99 42.65 74.44 42.57 74.89 42.55 75.35 42.37 75.8 42.27 76.25 42.27 77.16 42.14 77.61 42.09 78.06 42.01 78.51 41.94 78.97 41.9 79.42 41.88 79.87 41.86 80.78 41.72 81.23 41.59 81.68 41.56 83.49 41.24 83.95 41.09 84.4 41.02 85.3 40.91 86.21 40.77 86.66 40.73 88.02 40.46 90.28 40 92.55 39.15 94.81 38.77 95.26 38.58 95.71 38.49 96.17 38.32 96.62 38.16 97.53 37.95 98.43 37.76 100.24 37.42 100.69 37.34 101.15 37.2 101.6 37.16 102.05 37.08 102.5 36.9 102.96 36.82 108.39 36.01 109.29 35.82 109.75 35.76 110.65 35.67 112.46 35.26 113.37 35.17 114.27 35.04 116.08 34.7 116.99 34.56 117.44 34.52 118.35 34.26 118.8 34.21 119.25 34.12 119.7 34.07 120.16 33.99 120.61 33.92 121.52 33.75 121.97 33.68 122.87 33.49 123.78 33.28 124.23 33.19 124.68 33.01 125.59 32.87 126.04 32.69 128.3 32.32 130.12 31.95 130.57 31.8 134.19 31.27 134.64 31.22 135.09 31.19 136.45 30.91 136.9 30.77 137.36 30.66 138.26 30.5 139.17 30.32 140.07 29.99 144.15 28.26 145.96 27.85 146.41 27.77 146.86 27.99 147.32 28.02 147.77 27.93 148.22 27.86 148.67 27.77 150.03 27.59 150.94 27.48 151.84 27.36 152.29 27.3 152.75 27.13 153.2 26.91 153.65 26.8 154.1 26.72 161.8 24.87 165.42 24.32 169.49 23.34 177.19 20.54 178.55 20.69 180.81 20.13 183.07 19.48 190.32 16.4 192.13 15.79 194.39 14.76 196.2 14.25"/>
      </g>
    </g>
  </g>
  <g class="guide ylabels" font-size="2.82" font-family="'PT Sans Caption','Helvetica Neue','Helvetica',sans-serif" fill="#6C606B" id="fig-f59f0a617b5245518173ec774dff2d05-element-11">
    <text x="25.72" y="54.91" text-anchor="end" dy="0.35em">4.0×10³</text>
    <text x="25.72" y="42.94" text-anchor="end" dy="0.35em">6.0×10³</text>
    <text x="25.72" y="30.96" text-anchor="end" dy="0.35em">8.0×10³</text>
    <text x="25.72" y="18.98" text-anchor="end" dy="0.35em">1.0×10⁴</text>
    <text x="25.72" y="7" text-anchor="end" dy="0.35em">1.2×10⁴</text>
  </g>
  <g font-size="3.88" font-family="'PT Sans','Helvetica Neue','Helvetica',sans-serif" fill="#564A55" stroke="#000000" stroke-opacity="0.000" id="fig-f59f0a617b5245518173ec774dff2d05-element-12">
    <text x="8.81" y="28.96" text-anchor="middle" dy="0.35em" transform="rotate(-90, 8.81, 30.96)">Number of Stars</text>
  </g>
</g>
<defs>
<clipPath id="fig-f59f0a617b5245518173ec774dff2d05-element-5">
  <path d="M26.72,5 L 198.2 5 198.2 56.91 26.72 56.91" />
</clipPath
></defs>
</svg>
