<?xml version="1.0" encoding="UTF-8"?>
<svg xmlns="http://www.w3.org/2000/svg"
     xmlns:xlink="http://www.w3.org/1999/xlink"
     xmlns:gadfly="http://www.gadflyjl.org/ns"
     version="1.2"
     width="203.2mm" height="76.2mm" viewBox="0 0 203.2 76.2"
     stroke="none"
     fill="#000000"
     stroke-width="0.3"
     font-size="3.88"
>
<g class="plotroot xscalable yscalable" id="fig-1a250a8b8a714fb2ac148285929d2aa7-element-1">
  <g font-size="3.88" font-family="'PT Sans','Helvetica Neue','Helvetica',sans-serif" fill="#564A55" stroke="#000000" stroke-opacity="0.000" id="fig-1a250a8b8a714fb2ac148285929d2aa7-element-2">
    <text x="112.46" y="64.59" text-anchor="middle" dy="0.6em">Date</text>
  </g>
  <g class="guide xlabels" font-size="2.82" font-family="'PT Sans Caption','Helvetica Neue','Helvetica',sans-serif" fill="#6C606B" id="fig-1a250a8b8a714fb2ac148285929d2aa7-element-3">
    <text x="39.84" y="57.91" text-anchor="middle" dy="0.6em">Nov</text>
    <text x="52.18" y="57.91" text-anchor="middle" dy="0.6em">Dec</text>
    <text x="64.94" y="57.91" text-anchor="middle" dy="0.6em">Jan 2015</text>
    <text x="77.69" y="57.91" text-anchor="middle" dy="0.6em">Feb</text>
    <text x="89.21" y="57.91" text-anchor="middle" dy="0.6em">Mar</text>
    <text x="101.97" y="57.91" text-anchor="middle" dy="0.6em">Apr</text>
    <text x="114.31" y="57.91" text-anchor="middle" dy="0.6em">May</text>
    <text x="127.07" y="57.91" text-anchor="middle" dy="0.6em">Jun</text>
    <text x="139.41" y="57.91" text-anchor="middle" dy="0.6em">Jul</text>
    <text x="152.17" y="57.91" text-anchor="middle" dy="0.6em">Aug</text>
    <text x="164.93" y="57.91" text-anchor="middle" dy="0.6em">Sep</text>
    <text x="177.27" y="57.91" text-anchor="middle" dy="0.6em">Oct</text>
    <text x="190.03" y="57.91" text-anchor="middle" dy="0.6em">Nov</text>
  </g>
  <g clip-path="url(#fig-1a250a8b8a714fb2ac148285929d2aa7-element-5)" id="fig-1a250a8b8a714fb2ac148285929d2aa7-element-4">
    <g pointer-events="visible" opacity="1" fill="#000000" fill-opacity="0.000" stroke="#000000" stroke-opacity="0.000" class="guide background" id="fig-1a250a8b8a714fb2ac148285929d2aa7-element-6">
      <rect x="26.72" y="5" width="171.47" height="51.91"/>
    </g>
    <g class="guide ygridlines xfixed" stroke-dasharray="0.5,0.5" stroke-width="0.2" stroke="#D0D0E0" id="fig-1a250a8b8a714fb2ac148285929d2aa7-element-7">
      <path fill="none" d="M26.72,54.91 L 198.2 54.91"/>
      <path fill="none" d="M26.72,42.94 L 198.2 42.94"/>
      <path fill="none" d="M26.72,30.96 L 198.2 30.96"/>
      <path fill="none" d="M26.72,18.98 L 198.2 18.98"/>
      <path fill="none" d="M26.72,7 L 198.2 7"/>
    </g>
    <g class="guide xgridlines yfixed" stroke-dasharray="0.5,0.5" stroke-width="0.2" stroke="#D0D0E0" id="fig-1a250a8b8a714fb2ac148285929d2aa7-element-8">
      <path fill="none" d="M39.84,5 L 39.84 56.91"/>
      <path fill="none" d="M52.18,5 L 52.18 56.91"/>
      <path fill="none" d="M64.94,5 L 64.94 56.91"/>
      <path fill="none" d="M77.69,5 L 77.69 56.91"/>
      <path fill="none" d="M89.21,5 L 89.21 56.91"/>
      <path fill="none" d="M101.97,5 L 101.97 56.91"/>
      <path fill="none" d="M114.31,5 L 114.31 56.91"/>
      <path fill="none" d="M127.07,5 L 127.07 56.91"/>
      <path fill="none" d="M139.41,5 L 139.41 56.91"/>
      <path fill="none" d="M152.17,5 L 152.17 56.91"/>
      <path fill="none" d="M164.93,5 L 164.93 56.91"/>
      <path fill="none" d="M177.27,5 L 177.27 56.91"/>
      <path fill="none" d="M190.03,5 L 190.03 56.91"/>
    </g>
    <g class="plotpanel" id="fig-1a250a8b8a714fb2ac148285929d2aa7-element-9">
      <g stroke-width="0.79" fill="#000000" fill-opacity="0.000" class="geometry color_1.0" stroke-dasharray="none" stroke="#FFD700" id="fig-1a250a8b8a714fb2ac148285929d2aa7-element-10">
        <path fill="none" d="M28.73,52.88 L 29.96 52.75 30.37 52.66 30.78 52.61 31.19 52.57 31.61 52.51 32.02 52.45 32.43 52.35 32.84 52.27 33.25 52.27 33.66 52.2 34.07 52.14 34.49 52.08 34.9 51.98 35.31 51.91 35.72 51.73 36.13 51.54 36.54 51.48 36.95 51.36 37.37 51.3 37.78 51.27 38.19 51.23 38.6 51.45 39.01 51.38 39.42 51.34 39.84 51.31 40.25 51.29 40.66 51.22 41.07 50.89 41.48 50.61 41.89 50.56 43.13 50.06 45.18 49.47 45.6 49.45 46.01 48.88 46.42 48.63 46.83 48.55 47.24 48.38 47.65 48.28 49.3 47.63 49.71 47.55 51.77 46.91 52.59 46.67 53 46.57 53.41 46.46 53.83 46.36 54.24 46.17 54.65 46.11 55.06 46.14 56.29 45.87 56.71 45.67 57.53 45.5 57.94 45.38 58.35 45.25 59.59 45.18 60.41 45.02 61.64 44.7 63.29 44.45 64.11 43.98 65.35 43.68 68.23 43.12 69.87 42.65 70.29 42.57 70.7 42.55 71.11 42.37 71.52 42.27 71.93 42.27 72.75 42.14 73.17 42.09 73.58 42.01 73.99 41.94 74.4 41.9 74.81 41.88 75.22 41.86 76.05 41.72 76.46 41.59 76.87 41.56 78.51 41.24 78.93 41.09 79.34 41.02 80.16 40.91 80.98 40.77 81.4 40.73 82.63 40.46 84.69 40 86.74 39.15 88.8 38.77 89.21 38.58 89.63 38.49 90.04 38.32 90.45 38.16 91.27 37.95 92.09 37.76 93.74 37.42 94.15 37.34 94.56 37.2 94.97 37.16 95.39 37.08 95.8 36.9 96.21 36.82 101.15 36.01 101.97 35.82 102.38 35.76 103.2 35.67 104.85 35.26 105.67 35.17 106.5 35.04 108.14 34.7 108.96 34.56 109.38 34.52 110.2 34.26 110.61 34.21 111.02 34.12 111.43 34.07 111.85 33.99 112.26 33.92 113.08 33.75 113.49 33.68 114.31 33.49 115.14 33.28 115.55 33.19 115.96 33.01 116.78 32.87 117.19 32.69 119.25 32.32 120.9 31.95 121.31 31.8 124.6 31.27 125.01 31.22 125.42 31.19 126.66 30.91 127.07 30.77 127.48 30.66 128.3 30.5 129.13 30.32 129.95 29.99 133.65 28.26 135.3 27.85 135.71 27.77 136.12 27.99 136.53 28.02 136.95 27.93 137.36 27.86 137.77 27.77 139 27.59 139.83 27.48 140.65 27.36 141.06 27.3 141.47 27.13 141.88 26.91 142.3 26.8 142.71 26.72 149.7 24.87 152.99 24.32 156.7 23.34 163.69 20.54 164.93 20.69 166.98 20.13 169.04 19.48 175.63 16.4 177.27 15.79 179.33 14.76 180.98 14.25 182.62 13.54 183.86 13.15 188.79 10.96 193.73 9.23 195.38 8.68 196.2 8.29"/>
      </g>
    </g>
  </g>
  <g class="guide ylabels" font-size="2.82" font-family="'PT Sans Caption','Helvetica Neue','Helvetica',sans-serif" fill="#6C606B" id="fig-1a250a8b8a714fb2ac148285929d2aa7-element-11">
    <text x="25.72" y="54.91" text-anchor="end" dy="0.35em">4.0×10³</text>
    <text x="25.72" y="42.94" text-anchor="end" dy="0.35em">6.0×10³</text>
    <text x="25.72" y="30.96" text-anchor="end" dy="0.35em">8.0×10³</text>
    <text x="25.72" y="18.98" text-anchor="end" dy="0.35em">1.0×10⁴</text>
    <text x="25.72" y="7" text-anchor="end" dy="0.35em">1.2×10⁴</text>
  </g>
  <g font-size="3.88" font-family="'PT Sans','Helvetica Neue','Helvetica',sans-serif" fill="#564A55" stroke="#000000" stroke-opacity="0.000" id="fig-1a250a8b8a714fb2ac148285929d2aa7-element-12">
    <text x="8.81" y="28.96" text-anchor="middle" dy="0.35em" transform="rotate(-90, 8.81, 30.96)">Number of Stars</text>
  </g>
</g>
<defs>
<clipPath id="fig-1a250a8b8a714fb2ac148285929d2aa7-element-5">
  <path d="M26.72,5 L 198.2 5 198.2 56.91 26.72 56.91" />
</clipPath
></defs>
</svg>
