<?xml version="1.0" encoding="utf-8" standalone="no"?>
<!DOCTYPE svg PUBLIC "-//W3C//DTD SVG 1.1//EN"
  "http://www.w3.org/Graphics/SVG/1.1/DTD/svg11.dtd">
<!-- Created with matplotlib (http://matplotlib.org/) -->
<svg height="312pt" version="1.1" viewBox="0 0 631 312" width="631pt" xmlns="http://www.w3.org/2000/svg" xmlns:xlink="http://www.w3.org/1999/xlink">
 <defs>
  <style type="text/css">
*{stroke-linecap:butt;stroke-linejoin:round;stroke-miterlimit:100000;}
  </style>
 </defs>
 <g id="figure_1">
  <g id="patch_1">
   <path d="M -0 312.3925 
L 631.18875 312.3925 
L 631.18875 0 
L -0 0 
z
" style="fill:#ffffff;"/>
  </g>
  <g id="axes_1">
   <g id="patch_2">
    <path d="M 65.98875 243.406875 
L 623.98875 243.406875 
L 623.98875 13.006875 
L 65.98875 13.006875 
z
" style="fill:#ffffff;"/>
   </g>
   <g id="line2d_1">
    <path clip-path="url(#p0a3a718a2a)" d="M 623.98875 25.932315 
L 599.57625 37.475355 
L 574.00125 45.677595 
L 568.18875 50.930715 
L 560.05125 55.331355 
L 550.75125 58.879515 
L 549.58875 59.109915 
L 539.12625 64.040475 
L 536.80125 65.538075 
L 532.15125 67.680795 
L 518.20125 74.316315 
L 504.25125 82.725915 
L 500.76375 84.246555 
L 496.11375 86.965275 
L 491.46375 88.923675 
L 485.65125 92.909595 
L 481.00125 95.259675 
L 462.40125 107.079195 
L 456.58875 109.613595 
L 450.77625 111.756315 
L 447.28875 111.157275 
L 427.52625 121.939995 
L 417.06375 125.718555 
L 407.76375 127.838235 
L 388.00125 134.957595 
L 386.83875 135.257115 
L 385.67625 135.671835 
L 384.51375 136.524315 
L 383.35125 137.169435 
L 372.88875 139.312155 
L 370.56375 139.957275 
L 369.40125 139.842075 
L 368.23875 138.966555 
L 367.07625 139.289115 
L 362.42625 140.878875 
L 351.96375 147.514395 
L 349.63875 148.804635 
L 343.82625 150.532635 
L 342.66375 151.062555 
L 339.17625 152.145435 
L 338.01375 152.237595 
L 336.85125 152.467995 
L 327.55125 154.495515 
L 326.38875 155.048475 
L 321.73875 156.476955 
L 315.92625 157.928475 
L 314.76375 158.619675 
L 312.43875 159.149595 
L 311.27625 159.817755 
L 301.97625 162.651675 
L 296.16375 163.964955 
L 293.83875 164.955675 
L 292.67625 165.116955 
L 290.35125 165.646875 
L 283.37625 167.467035 
L 281.05125 167.789595 
L 276.40125 169.356315 
L 272.91375 169.955355 
L 270.58875 170.669595 
L 255.47625 174.125595 
L 254.31375 174.793755 
L 253.15125 175.116315 
L 251.98875 175.277595 
L 250.82625 175.784475 
L 242.68875 178.157595 
L 240.36375 178.963995 
L 238.03875 180.208155 
L 236.87625 180.553755 
L 235.71375 181.314075 
L 229.90125 182.765595 
L 224.08875 186.014235 
L 214.78875 188.825115 
L 213.62625 189.009435 
L 211.30125 189.539355 
L 207.81375 190.207515 
L 206.65125 190.783515 
L 202.00125 192.050715 
L 200.83875 192.165915 
L 199.67625 192.649755 
L 197.35125 193.179675 
L 193.86375 193.479195 
L 190.37625 194.262555 
L 188.05125 194.746395 
L 186.88875 194.769435 
L 185.72625 195.138075 
L 184.56375 195.829275 
L 183.40125 195.921435 
L 182.23875 196.243995 
L 177.58875 198.041115 
L 169.45125 200.206875 
L 165.96375 201.358875 
L 163.63875 203.155995 
L 158.98875 204.123675 
L 155.50125 205.344795 
L 153.17625 205.966875 
L 149.68875 206.243355 
L 147.36375 207.187995 
L 145.03875 207.856155 
L 143.87625 208.616475 
L 140.38875 209.653275 
L 139.22625 209.538075 
L 138.06375 209.768475 
L 136.90125 210.505755 
L 133.41375 211.680795 
L 124.11375 215.390235 
L 119.46375 217.878555 
L 118.30125 218.270235 
L 117.13875 218.938395 
L 115.97625 219.214875 
L 114.81375 220.205595 
L 113.65125 222.394395 
L 112.48875 222.463515 
L 106.67625 224.721435 
L 103.18875 226.656795 
L 102.02625 226.864155 
L 100.86375 227.923995 
L 99.70125 229.191195 
L 98.53875 229.467675 
L 96.21375 229.651995 
L 95.05125 229.813275 
L 93.88875 230.089755 
L 92.72625 229.237275 
L 89.23875 229.721115 
L 88.07625 230.181915 
L 86.91375 230.435355 
L 84.58875 231.863835 
L 83.42625 232.117275 
L 82.26375 232.485915 
L 78.77625 233.246235 
L 77.61375 233.223195 
L 72.96375 234.375195 
L 70.63875 234.743835 
L 69.47625 235.089435 
L 65.98875 235.573275 
L 65.98875 235.573275 
" style="fill:none;stroke:#ffd700;stroke-linecap:square;stroke-width:2.0;"/>
    <defs>
     <path d="M 0 -3 
L -0.673542 -0.927051 
L -2.85317 -0.927051 
L -1.089814 0.354102 
L -1.763356 2.427051 
L -0 1.145898 
L 1.763356 2.427051 
L 1.089814 0.354102 
L 2.85317 -0.927051 
L 0.673542 -0.927051 
z
" id="mb2a8ede7e2" style="stroke:#000000;stroke-linejoin:bevel;stroke-width:0.5;"/>
    </defs>
    <g clip-path="url(#p0a3a718a2a)">
     <use style="fill:#ffd700;stroke:#000000;stroke-linejoin:bevel;stroke-width:0.5;" x="623.98875" xlink:href="#mb2a8ede7e2" y="25.932315"/>
     <use style="fill:#ffd700;stroke:#000000;stroke-linejoin:bevel;stroke-width:0.5;" x="599.57625" xlink:href="#mb2a8ede7e2" y="37.475355"/>
     <use style="fill:#ffd700;stroke:#000000;stroke-linejoin:bevel;stroke-width:0.5;" x="574.00125" xlink:href="#mb2a8ede7e2" y="45.677595"/>
     <use style="fill:#ffd700;stroke:#000000;stroke-linejoin:bevel;stroke-width:0.5;" x="568.18875" xlink:href="#mb2a8ede7e2" y="50.930715"/>
     <use style="fill:#ffd700;stroke:#000000;stroke-linejoin:bevel;stroke-width:0.5;" x="560.05125" xlink:href="#mb2a8ede7e2" y="55.331355"/>
     <use style="fill:#ffd700;stroke:#000000;stroke-linejoin:bevel;stroke-width:0.5;" x="558.88875" xlink:href="#mb2a8ede7e2" y="55.769115"/>
     <use style="fill:#ffd700;stroke:#000000;stroke-linejoin:bevel;stroke-width:0.5;" x="550.75125" xlink:href="#mb2a8ede7e2" y="58.879515"/>
     <use style="fill:#ffd700;stroke:#000000;stroke-linejoin:bevel;stroke-width:0.5;" x="549.58875" xlink:href="#mb2a8ede7e2" y="59.109915"/>
     <use style="fill:#ffd700;stroke:#000000;stroke-linejoin:bevel;stroke-width:0.5;" x="539.12625" xlink:href="#mb2a8ede7e2" y="64.040475"/>
     <use style="fill:#ffd700;stroke:#000000;stroke-linejoin:bevel;stroke-width:0.5;" x="536.80125" xlink:href="#mb2a8ede7e2" y="65.538075"/>
     <use style="fill:#ffd700;stroke:#000000;stroke-linejoin:bevel;stroke-width:0.5;" x="532.15125" xlink:href="#mb2a8ede7e2" y="67.680795"/>
     <use style="fill:#ffd700;stroke:#000000;stroke-linejoin:bevel;stroke-width:0.5;" x="518.20125" xlink:href="#mb2a8ede7e2" y="74.316315"/>
     <use style="fill:#ffd700;stroke:#000000;stroke-linejoin:bevel;stroke-width:0.5;" x="504.25125" xlink:href="#mb2a8ede7e2" y="82.725915"/>
     <use style="fill:#ffd700;stroke:#000000;stroke-linejoin:bevel;stroke-width:0.5;" x="500.76375" xlink:href="#mb2a8ede7e2" y="84.246555"/>
     <use style="fill:#ffd700;stroke:#000000;stroke-linejoin:bevel;stroke-width:0.5;" x="496.11375" xlink:href="#mb2a8ede7e2" y="86.965275"/>
     <use style="fill:#ffd700;stroke:#000000;stroke-linejoin:bevel;stroke-width:0.5;" x="491.46375" xlink:href="#mb2a8ede7e2" y="88.923675"/>
     <use style="fill:#ffd700;stroke:#000000;stroke-linejoin:bevel;stroke-width:0.5;" x="485.65125" xlink:href="#mb2a8ede7e2" y="92.909595"/>
     <use style="fill:#ffd700;stroke:#000000;stroke-linejoin:bevel;stroke-width:0.5;" x="481.00125" xlink:href="#mb2a8ede7e2" y="95.259675"/>
     <use style="fill:#ffd700;stroke:#000000;stroke-linejoin:bevel;stroke-width:0.5;" x="462.40125" xlink:href="#mb2a8ede7e2" y="107.079195"/>
     <use style="fill:#ffd700;stroke:#000000;stroke-linejoin:bevel;stroke-width:0.5;" x="456.58875" xlink:href="#mb2a8ede7e2" y="109.613595"/>
     <use style="fill:#ffd700;stroke:#000000;stroke-linejoin:bevel;stroke-width:0.5;" x="450.77625" xlink:href="#mb2a8ede7e2" y="111.756315"/>
     <use style="fill:#ffd700;stroke:#000000;stroke-linejoin:bevel;stroke-width:0.5;" x="447.28875" xlink:href="#mb2a8ede7e2" y="111.157275"/>
     <use style="fill:#ffd700;stroke:#000000;stroke-linejoin:bevel;stroke-width:0.5;" x="427.52625" xlink:href="#mb2a8ede7e2" y="121.939995"/>
     <use style="fill:#ffd700;stroke:#000000;stroke-linejoin:bevel;stroke-width:0.5;" x="417.06375" xlink:href="#mb2a8ede7e2" y="125.718555"/>
     <use style="fill:#ffd700;stroke:#000000;stroke-linejoin:bevel;stroke-width:0.5;" x="407.76375" xlink:href="#mb2a8ede7e2" y="127.838235"/>
     <use style="fill:#ffd700;stroke:#000000;stroke-linejoin:bevel;stroke-width:0.5;" x="388.00125" xlink:href="#mb2a8ede7e2" y="134.957595"/>
     <use style="fill:#ffd700;stroke:#000000;stroke-linejoin:bevel;stroke-width:0.5;" x="386.83875" xlink:href="#mb2a8ede7e2" y="135.257115"/>
     <use style="fill:#ffd700;stroke:#000000;stroke-linejoin:bevel;stroke-width:0.5;" x="385.67625" xlink:href="#mb2a8ede7e2" y="135.671835"/>
     <use style="fill:#ffd700;stroke:#000000;stroke-linejoin:bevel;stroke-width:0.5;" x="384.51375" xlink:href="#mb2a8ede7e2" y="136.524315"/>
     <use style="fill:#ffd700;stroke:#000000;stroke-linejoin:bevel;stroke-width:0.5;" x="383.35125" xlink:href="#mb2a8ede7e2" y="137.169435"/>
     <use style="fill:#ffd700;stroke:#000000;stroke-linejoin:bevel;stroke-width:0.5;" x="382.18875" xlink:href="#mb2a8ede7e2" y="137.399835"/>
     <use style="fill:#ffd700;stroke:#000000;stroke-linejoin:bevel;stroke-width:0.5;" x="379.86375" xlink:href="#mb2a8ede7e2" y="137.883675"/>
     <use style="fill:#ffd700;stroke:#000000;stroke-linejoin:bevel;stroke-width:0.5;" x="377.53875" xlink:href="#mb2a8ede7e2" y="138.275355"/>
     <use style="fill:#ffd700;stroke:#000000;stroke-linejoin:bevel;stroke-width:0.5;" x="374.05125" xlink:href="#mb2a8ede7e2" y="138.966555"/>
     <use style="fill:#ffd700;stroke:#000000;stroke-linejoin:bevel;stroke-width:0.5;" x="372.88875" xlink:href="#mb2a8ede7e2" y="139.312155"/>
     <use style="fill:#ffd700;stroke:#000000;stroke-linejoin:bevel;stroke-width:0.5;" x="371.72625" xlink:href="#mb2a8ede7e2" y="139.588635"/>
     <use style="fill:#ffd700;stroke:#000000;stroke-linejoin:bevel;stroke-width:0.5;" x="370.56375" xlink:href="#mb2a8ede7e2" y="139.957275"/>
     <use style="fill:#ffd700;stroke:#000000;stroke-linejoin:bevel;stroke-width:0.5;" x="369.40125" xlink:href="#mb2a8ede7e2" y="139.842075"/>
     <use style="fill:#ffd700;stroke:#000000;stroke-linejoin:bevel;stroke-width:0.5;" x="368.23875" xlink:href="#mb2a8ede7e2" y="138.966555"/>
     <use style="fill:#ffd700;stroke:#000000;stroke-linejoin:bevel;stroke-width:0.5;" x="367.07625" xlink:href="#mb2a8ede7e2" y="139.289115"/>
     <use style="fill:#ffd700;stroke:#000000;stroke-linejoin:bevel;stroke-width:0.5;" x="362.42625" xlink:href="#mb2a8ede7e2" y="140.878875"/>
     <use style="fill:#ffd700;stroke:#000000;stroke-linejoin:bevel;stroke-width:0.5;" x="351.96375" xlink:href="#mb2a8ede7e2" y="147.514395"/>
     <use style="fill:#ffd700;stroke:#000000;stroke-linejoin:bevel;stroke-width:0.5;" x="349.63875" xlink:href="#mb2a8ede7e2" y="148.804635"/>
     <use style="fill:#ffd700;stroke:#000000;stroke-linejoin:bevel;stroke-width:0.5;" x="347.31375" xlink:href="#mb2a8ede7e2" y="149.495835"/>
     <use style="fill:#ffd700;stroke:#000000;stroke-linejoin:bevel;stroke-width:0.5;" x="344.98875" xlink:href="#mb2a8ede7e2" y="150.094875"/>
     <use style="fill:#ffd700;stroke:#000000;stroke-linejoin:bevel;stroke-width:0.5;" x="343.82625" xlink:href="#mb2a8ede7e2" y="150.532635"/>
     <use style="fill:#ffd700;stroke:#000000;stroke-linejoin:bevel;stroke-width:0.5;" x="342.66375" xlink:href="#mb2a8ede7e2" y="151.062555"/>
     <use style="fill:#ffd700;stroke:#000000;stroke-linejoin:bevel;stroke-width:0.5;" x="339.17625" xlink:href="#mb2a8ede7e2" y="152.145435"/>
     <use style="fill:#ffd700;stroke:#000000;stroke-linejoin:bevel;stroke-width:0.5;" x="338.01375" xlink:href="#mb2a8ede7e2" y="152.237595"/>
     <use style="fill:#ffd700;stroke:#000000;stroke-linejoin:bevel;stroke-width:0.5;" x="336.85125" xlink:href="#mb2a8ede7e2" y="152.467995"/>
     <use style="fill:#ffd700;stroke:#000000;stroke-linejoin:bevel;stroke-width:0.5;" x="327.55125" xlink:href="#mb2a8ede7e2" y="154.495515"/>
     <use style="fill:#ffd700;stroke:#000000;stroke-linejoin:bevel;stroke-width:0.5;" x="326.38875" xlink:href="#mb2a8ede7e2" y="155.048475"/>
     <use style="fill:#ffd700;stroke:#000000;stroke-linejoin:bevel;stroke-width:0.5;" x="321.73875" xlink:href="#mb2a8ede7e2" y="156.476955"/>
     <use style="fill:#ffd700;stroke:#000000;stroke-linejoin:bevel;stroke-width:0.5;" x="315.92625" xlink:href="#mb2a8ede7e2" y="157.928475"/>
     <use style="fill:#ffd700;stroke:#000000;stroke-linejoin:bevel;stroke-width:0.5;" x="314.76375" xlink:href="#mb2a8ede7e2" y="158.619675"/>
     <use style="fill:#ffd700;stroke:#000000;stroke-linejoin:bevel;stroke-width:0.5;" x="312.43875" xlink:href="#mb2a8ede7e2" y="159.149595"/>
     <use style="fill:#ffd700;stroke:#000000;stroke-linejoin:bevel;stroke-width:0.5;" x="311.27625" xlink:href="#mb2a8ede7e2" y="159.817755"/>
     <use style="fill:#ffd700;stroke:#000000;stroke-linejoin:bevel;stroke-width:0.5;" x="310.11375" xlink:href="#mb2a8ede7e2" y="160.186395"/>
     <use style="fill:#ffd700;stroke:#000000;stroke-linejoin:bevel;stroke-width:0.5;" x="307.78875" xlink:href="#mb2a8ede7e2" y="160.969755"/>
     <use style="fill:#ffd700;stroke:#000000;stroke-linejoin:bevel;stroke-width:0.5;" x="305.46375" xlink:href="#mb2a8ede7e2" y="161.707035"/>
     <use style="fill:#ffd700;stroke:#000000;stroke-linejoin:bevel;stroke-width:0.5;" x="304.30125" xlink:href="#mb2a8ede7e2" y="161.983515"/>
     <use style="fill:#ffd700;stroke:#000000;stroke-linejoin:bevel;stroke-width:0.5;" x="301.97625" xlink:href="#mb2a8ede7e2" y="162.651675"/>
     <use style="fill:#ffd700;stroke:#000000;stroke-linejoin:bevel;stroke-width:0.5;" x="300.81375" xlink:href="#mb2a8ede7e2" y="162.928155"/>
     <use style="fill:#ffd700;stroke:#000000;stroke-linejoin:bevel;stroke-width:0.5;" x="299.65125" xlink:href="#mb2a8ede7e2" y="163.227675"/>
     <use style="fill:#ffd700;stroke:#000000;stroke-linejoin:bevel;stroke-width:0.5;" x="298.48875" xlink:href="#mb2a8ede7e2" y="163.411995"/>
     <use style="fill:#ffd700;stroke:#000000;stroke-linejoin:bevel;stroke-width:0.5;" x="297.32625" xlink:href="#mb2a8ede7e2" y="163.757595"/>
     <use style="fill:#ffd700;stroke:#000000;stroke-linejoin:bevel;stroke-width:0.5;" x="296.16375" xlink:href="#mb2a8ede7e2" y="163.964955"/>
     <use style="fill:#ffd700;stroke:#000000;stroke-linejoin:bevel;stroke-width:0.5;" x="293.83875" xlink:href="#mb2a8ede7e2" y="164.955675"/>
     <use style="fill:#ffd700;stroke:#000000;stroke-linejoin:bevel;stroke-width:0.5;" x="292.67625" xlink:href="#mb2a8ede7e2" y="165.116955"/>
     <use style="fill:#ffd700;stroke:#000000;stroke-linejoin:bevel;stroke-width:0.5;" x="290.35125" xlink:href="#mb2a8ede7e2" y="165.646875"/>
     <use style="fill:#ffd700;stroke:#000000;stroke-linejoin:bevel;stroke-width:0.5;" x="285.70125" xlink:href="#mb2a8ede7e2" y="166.937115"/>
     <use style="fill:#ffd700;stroke:#000000;stroke-linejoin:bevel;stroke-width:0.5;" x="283.37625" xlink:href="#mb2a8ede7e2" y="167.467035"/>
     <use style="fill:#ffd700;stroke:#000000;stroke-linejoin:bevel;stroke-width:0.5;" x="281.05125" xlink:href="#mb2a8ede7e2" y="167.789595"/>
     <use style="fill:#ffd700;stroke:#000000;stroke-linejoin:bevel;stroke-width:0.5;" x="276.40125" xlink:href="#mb2a8ede7e2" y="169.356315"/>
     <use style="fill:#ffd700;stroke:#000000;stroke-linejoin:bevel;stroke-width:0.5;" x="274.07625" xlink:href="#mb2a8ede7e2" y="169.724955"/>
     <use style="fill:#ffd700;stroke:#000000;stroke-linejoin:bevel;stroke-width:0.5;" x="272.91375" xlink:href="#mb2a8ede7e2" y="169.955355"/>
     <use style="fill:#ffd700;stroke:#000000;stroke-linejoin:bevel;stroke-width:0.5;" x="270.58875" xlink:href="#mb2a8ede7e2" y="170.669595"/>
     <use style="fill:#ffd700;stroke:#000000;stroke-linejoin:bevel;stroke-width:0.5;" x="256.63875" xlink:href="#mb2a8ede7e2" y="173.803035"/>
     <use style="fill:#ffd700;stroke:#000000;stroke-linejoin:bevel;stroke-width:0.5;" x="255.47625" xlink:href="#mb2a8ede7e2" y="174.125595"/>
     <use style="fill:#ffd700;stroke:#000000;stroke-linejoin:bevel;stroke-width:0.5;" x="254.31375" xlink:href="#mb2a8ede7e2" y="174.793755"/>
     <use style="fill:#ffd700;stroke:#000000;stroke-linejoin:bevel;stroke-width:0.5;" x="253.15125" xlink:href="#mb2a8ede7e2" y="175.116315"/>
     <use style="fill:#ffd700;stroke:#000000;stroke-linejoin:bevel;stroke-width:0.5;" x="251.98875" xlink:href="#mb2a8ede7e2" y="175.277595"/>
     <use style="fill:#ffd700;stroke:#000000;stroke-linejoin:bevel;stroke-width:0.5;" x="250.82625" xlink:href="#mb2a8ede7e2" y="175.784475"/>
     <use style="fill:#ffd700;stroke:#000000;stroke-linejoin:bevel;stroke-width:0.5;" x="249.66375" xlink:href="#mb2a8ede7e2" y="176.107035"/>
     <use style="fill:#ffd700;stroke:#000000;stroke-linejoin:bevel;stroke-width:0.5;" x="245.01375" xlink:href="#mb2a8ede7e2" y="177.420315"/>
     <use style="fill:#ffd700;stroke:#000000;stroke-linejoin:bevel;stroke-width:0.5;" x="242.68875" xlink:href="#mb2a8ede7e2" y="178.157595"/>
     <use style="fill:#ffd700;stroke:#000000;stroke-linejoin:bevel;stroke-width:0.5;" x="240.36375" xlink:href="#mb2a8ede7e2" y="178.963995"/>
     <use style="fill:#ffd700;stroke:#000000;stroke-linejoin:bevel;stroke-width:0.5;" x="239.20125" xlink:href="#mb2a8ede7e2" y="179.586075"/>
     <use style="fill:#ffd700;stroke:#000000;stroke-linejoin:bevel;stroke-width:0.5;" x="238.03875" xlink:href="#mb2a8ede7e2" y="180.208155"/>
     <use style="fill:#ffd700;stroke:#000000;stroke-linejoin:bevel;stroke-width:0.5;" x="236.87625" xlink:href="#mb2a8ede7e2" y="180.553755"/>
     <use style="fill:#ffd700;stroke:#000000;stroke-linejoin:bevel;stroke-width:0.5;" x="235.71375" xlink:href="#mb2a8ede7e2" y="181.314075"/>
     <use style="fill:#ffd700;stroke:#000000;stroke-linejoin:bevel;stroke-width:0.5;" x="229.90125" xlink:href="#mb2a8ede7e2" y="182.765595"/>
     <use style="fill:#ffd700;stroke:#000000;stroke-linejoin:bevel;stroke-width:0.5;" x="224.08875" xlink:href="#mb2a8ede7e2" y="186.014235"/>
     <use style="fill:#ffd700;stroke:#000000;stroke-linejoin:bevel;stroke-width:0.5;" x="218.27625" xlink:href="#mb2a8ede7e2" y="187.788315"/>
     <use style="fill:#ffd700;stroke:#000000;stroke-linejoin:bevel;stroke-width:0.5;" x="214.78875" xlink:href="#mb2a8ede7e2" y="188.825115"/>
     <use style="fill:#ffd700;stroke:#000000;stroke-linejoin:bevel;stroke-width:0.5;" x="213.62625" xlink:href="#mb2a8ede7e2" y="189.009435"/>
     <use style="fill:#ffd700;stroke:#000000;stroke-linejoin:bevel;stroke-width:0.5;" x="211.30125" xlink:href="#mb2a8ede7e2" y="189.539355"/>
     <use style="fill:#ffd700;stroke:#000000;stroke-linejoin:bevel;stroke-width:0.5;" x="208.97625" xlink:href="#mb2a8ede7e2" y="189.954075"/>
     <use style="fill:#ffd700;stroke:#000000;stroke-linejoin:bevel;stroke-width:0.5;" x="207.81375" xlink:href="#mb2a8ede7e2" y="190.207515"/>
     <use style="fill:#ffd700;stroke:#000000;stroke-linejoin:bevel;stroke-width:0.5;" x="206.65125" xlink:href="#mb2a8ede7e2" y="190.783515"/>
     <use style="fill:#ffd700;stroke:#000000;stroke-linejoin:bevel;stroke-width:0.5;" x="202.00125" xlink:href="#mb2a8ede7e2" y="192.050715"/>
     <use style="fill:#ffd700;stroke:#000000;stroke-linejoin:bevel;stroke-width:0.5;" x="200.83875" xlink:href="#mb2a8ede7e2" y="192.165915"/>
     <use style="fill:#ffd700;stroke:#000000;stroke-linejoin:bevel;stroke-width:0.5;" x="199.67625" xlink:href="#mb2a8ede7e2" y="192.649755"/>
     <use style="fill:#ffd700;stroke:#000000;stroke-linejoin:bevel;stroke-width:0.5;" x="197.35125" xlink:href="#mb2a8ede7e2" y="193.179675"/>
     <use style="fill:#ffd700;stroke:#000000;stroke-linejoin:bevel;stroke-width:0.5;" x="196.18875" xlink:href="#mb2a8ede7e2" y="193.271835"/>
     <use style="fill:#ffd700;stroke:#000000;stroke-linejoin:bevel;stroke-width:0.5;" x="195.02625" xlink:href="#mb2a8ede7e2" y="193.340955"/>
     <use style="fill:#ffd700;stroke:#000000;stroke-linejoin:bevel;stroke-width:0.5;" x="193.86375" xlink:href="#mb2a8ede7e2" y="193.479195"/>
     <use style="fill:#ffd700;stroke:#000000;stroke-linejoin:bevel;stroke-width:0.5;" x="192.70125" xlink:href="#mb2a8ede7e2" y="193.755675"/>
     <use style="fill:#ffd700;stroke:#000000;stroke-linejoin:bevel;stroke-width:0.5;" x="191.53875" xlink:href="#mb2a8ede7e2" y="194.078235"/>
     <use style="fill:#ffd700;stroke:#000000;stroke-linejoin:bevel;stroke-width:0.5;" x="190.37625" xlink:href="#mb2a8ede7e2" y="194.262555"/>
     <use style="fill:#ffd700;stroke:#000000;stroke-linejoin:bevel;stroke-width:0.5;" x="188.05125" xlink:href="#mb2a8ede7e2" y="194.746395"/>
     <use style="fill:#ffd700;stroke:#000000;stroke-linejoin:bevel;stroke-width:0.5;" x="186.88875" xlink:href="#mb2a8ede7e2" y="194.769435"/>
     <use style="fill:#ffd700;stroke:#000000;stroke-linejoin:bevel;stroke-width:0.5;" x="185.72625" xlink:href="#mb2a8ede7e2" y="195.138075"/>
     <use style="fill:#ffd700;stroke:#000000;stroke-linejoin:bevel;stroke-width:0.5;" x="184.56375" xlink:href="#mb2a8ede7e2" y="195.829275"/>
     <use style="fill:#ffd700;stroke:#000000;stroke-linejoin:bevel;stroke-width:0.5;" x="183.40125" xlink:href="#mb2a8ede7e2" y="195.921435"/>
     <use style="fill:#ffd700;stroke:#000000;stroke-linejoin:bevel;stroke-width:0.5;" x="182.23875" xlink:href="#mb2a8ede7e2" y="196.243995"/>
     <use style="fill:#ffd700;stroke:#000000;stroke-linejoin:bevel;stroke-width:0.5;" x="177.58875" xlink:href="#mb2a8ede7e2" y="198.041115"/>
     <use style="fill:#ffd700;stroke:#000000;stroke-linejoin:bevel;stroke-width:0.5;" x="169.45125" xlink:href="#mb2a8ede7e2" y="200.206875"/>
     <use style="fill:#ffd700;stroke:#000000;stroke-linejoin:bevel;stroke-width:0.5;" x="165.96375" xlink:href="#mb2a8ede7e2" y="201.358875"/>
     <use style="fill:#ffd700;stroke:#000000;stroke-linejoin:bevel;stroke-width:0.5;" x="163.63875" xlink:href="#mb2a8ede7e2" y="203.155995"/>
     <use style="fill:#ffd700;stroke:#000000;stroke-linejoin:bevel;stroke-width:0.5;" x="158.98875" xlink:href="#mb2a8ede7e2" y="204.123675"/>
     <use style="fill:#ffd700;stroke:#000000;stroke-linejoin:bevel;stroke-width:0.5;" x="155.50125" xlink:href="#mb2a8ede7e2" y="205.344795"/>
     <use style="fill:#ffd700;stroke:#000000;stroke-linejoin:bevel;stroke-width:0.5;" x="153.17625" xlink:href="#mb2a8ede7e2" y="205.966875"/>
     <use style="fill:#ffd700;stroke:#000000;stroke-linejoin:bevel;stroke-width:0.5;" x="149.68875" xlink:href="#mb2a8ede7e2" y="206.243355"/>
     <use style="fill:#ffd700;stroke:#000000;stroke-linejoin:bevel;stroke-width:0.5;" x="148.52625" xlink:href="#mb2a8ede7e2" y="206.727195"/>
     <use style="fill:#ffd700;stroke:#000000;stroke-linejoin:bevel;stroke-width:0.5;" x="147.36375" xlink:href="#mb2a8ede7e2" y="207.187995"/>
     <use style="fill:#ffd700;stroke:#000000;stroke-linejoin:bevel;stroke-width:0.5;" x="145.03875" xlink:href="#mb2a8ede7e2" y="207.856155"/>
     <use style="fill:#ffd700;stroke:#000000;stroke-linejoin:bevel;stroke-width:0.5;" x="143.87625" xlink:href="#mb2a8ede7e2" y="208.616475"/>
     <use style="fill:#ffd700;stroke:#000000;stroke-linejoin:bevel;stroke-width:0.5;" x="140.38875" xlink:href="#mb2a8ede7e2" y="209.653275"/>
     <use style="fill:#ffd700;stroke:#000000;stroke-linejoin:bevel;stroke-width:0.5;" x="139.22625" xlink:href="#mb2a8ede7e2" y="209.538075"/>
     <use style="fill:#ffd700;stroke:#000000;stroke-linejoin:bevel;stroke-width:0.5;" x="138.06375" xlink:href="#mb2a8ede7e2" y="209.768475"/>
     <use style="fill:#ffd700;stroke:#000000;stroke-linejoin:bevel;stroke-width:0.5;" x="136.90125" xlink:href="#mb2a8ede7e2" y="210.505755"/>
     <use style="fill:#ffd700;stroke:#000000;stroke-linejoin:bevel;stroke-width:0.5;" x="135.73875" xlink:href="#mb2a8ede7e2" y="210.874395"/>
     <use style="fill:#ffd700;stroke:#000000;stroke-linejoin:bevel;stroke-width:0.5;" x="134.57625" xlink:href="#mb2a8ede7e2" y="211.289115"/>
     <use style="fill:#ffd700;stroke:#000000;stroke-linejoin:bevel;stroke-width:0.5;" x="133.41375" xlink:href="#mb2a8ede7e2" y="211.680795"/>
     <use style="fill:#ffd700;stroke:#000000;stroke-linejoin:bevel;stroke-width:0.5;" x="131.08875" xlink:href="#mb2a8ede7e2" y="212.625435"/>
     <use style="fill:#ffd700;stroke:#000000;stroke-linejoin:bevel;stroke-width:0.5;" x="125.27625" xlink:href="#mb2a8ede7e2" y="215.067675"/>
     <use style="fill:#ffd700;stroke:#000000;stroke-linejoin:bevel;stroke-width:0.5;" x="124.11375" xlink:href="#mb2a8ede7e2" y="215.390235"/>
     <use style="fill:#ffd700;stroke:#000000;stroke-linejoin:bevel;stroke-width:0.5;" x="119.46375" xlink:href="#mb2a8ede7e2" y="217.878555"/>
     <use style="fill:#ffd700;stroke:#000000;stroke-linejoin:bevel;stroke-width:0.5;" x="118.30125" xlink:href="#mb2a8ede7e2" y="218.270235"/>
     <use style="fill:#ffd700;stroke:#000000;stroke-linejoin:bevel;stroke-width:0.5;" x="117.13875" xlink:href="#mb2a8ede7e2" y="218.938395"/>
     <use style="fill:#ffd700;stroke:#000000;stroke-linejoin:bevel;stroke-width:0.5;" x="115.97625" xlink:href="#mb2a8ede7e2" y="219.214875"/>
     <use style="fill:#ffd700;stroke:#000000;stroke-linejoin:bevel;stroke-width:0.5;" x="114.81375" xlink:href="#mb2a8ede7e2" y="220.205595"/>
     <use style="fill:#ffd700;stroke:#000000;stroke-linejoin:bevel;stroke-width:0.5;" x="113.65125" xlink:href="#mb2a8ede7e2" y="222.394395"/>
     <use style="fill:#ffd700;stroke:#000000;stroke-linejoin:bevel;stroke-width:0.5;" x="112.48875" xlink:href="#mb2a8ede7e2" y="222.463515"/>
     <use style="fill:#ffd700;stroke:#000000;stroke-linejoin:bevel;stroke-width:0.5;" x="106.67625" xlink:href="#mb2a8ede7e2" y="224.721435"/>
     <use style="fill:#ffd700;stroke:#000000;stroke-linejoin:bevel;stroke-width:0.5;" x="103.18875" xlink:href="#mb2a8ede7e2" y="226.656795"/>
     <use style="fill:#ffd700;stroke:#000000;stroke-linejoin:bevel;stroke-width:0.5;" x="102.02625" xlink:href="#mb2a8ede7e2" y="226.864155"/>
     <use style="fill:#ffd700;stroke:#000000;stroke-linejoin:bevel;stroke-width:0.5;" x="100.86375" xlink:href="#mb2a8ede7e2" y="227.923995"/>
     <use style="fill:#ffd700;stroke:#000000;stroke-linejoin:bevel;stroke-width:0.5;" x="99.7012500002" xlink:href="#mb2a8ede7e2" y="229.191195"/>
     <use style="fill:#ffd700;stroke:#000000;stroke-linejoin:bevel;stroke-width:0.5;" x="98.5387500001" xlink:href="#mb2a8ede7e2" y="229.467675"/>
     <use style="fill:#ffd700;stroke:#000000;stroke-linejoin:bevel;stroke-width:0.5;" x="97.3762500001" xlink:href="#mb2a8ede7e2" y="229.536795"/>
     <use style="fill:#ffd700;stroke:#000000;stroke-linejoin:bevel;stroke-width:0.5;" x="96.2137500001" xlink:href="#mb2a8ede7e2" y="229.651995"/>
     <use style="fill:#ffd700;stroke:#000000;stroke-linejoin:bevel;stroke-width:0.5;" x="95.0512500001" xlink:href="#mb2a8ede7e2" y="229.813275"/>
     <use style="fill:#ffd700;stroke:#000000;stroke-linejoin:bevel;stroke-width:0.5;" x="93.8887500002" xlink:href="#mb2a8ede7e2" y="230.089755"/>
     <use style="fill:#ffd700;stroke:#000000;stroke-linejoin:bevel;stroke-width:0.5;" x="92.7262500001" xlink:href="#mb2a8ede7e2" y="229.237275"/>
     <use style="fill:#ffd700;stroke:#000000;stroke-linejoin:bevel;stroke-width:0.5;" x="91.5637500001" xlink:href="#mb2a8ede7e2" y="229.398555"/>
     <use style="fill:#ffd700;stroke:#000000;stroke-linejoin:bevel;stroke-width:0.5;" x="90.4012500001" xlink:href="#mb2a8ede7e2" y="229.513755"/>
     <use style="fill:#ffd700;stroke:#000000;stroke-linejoin:bevel;stroke-width:0.5;" x="89.2387500001" xlink:href="#mb2a8ede7e2" y="229.721115"/>
     <use style="fill:#ffd700;stroke:#000000;stroke-linejoin:bevel;stroke-width:0.5;" x="88.0762500002" xlink:href="#mb2a8ede7e2" y="230.181915"/>
     <use style="fill:#ffd700;stroke:#000000;stroke-linejoin:bevel;stroke-width:0.5;" x="86.9137500001" xlink:href="#mb2a8ede7e2" y="230.435355"/>
     <use style="fill:#ffd700;stroke:#000000;stroke-linejoin:bevel;stroke-width:0.5;" x="85.7512500001" xlink:href="#mb2a8ede7e2" y="231.149595"/>
     <use style="fill:#ffd700;stroke:#000000;stroke-linejoin:bevel;stroke-width:0.5;" x="84.5887500001" xlink:href="#mb2a8ede7e2" y="231.863835"/>
     <use style="fill:#ffd700;stroke:#000000;stroke-linejoin:bevel;stroke-width:0.5;" x="83.4262500001" xlink:href="#mb2a8ede7e2" y="232.117275"/>
     <use style="fill:#ffd700;stroke:#000000;stroke-linejoin:bevel;stroke-width:0.5;" x="82.2637500002" xlink:href="#mb2a8ede7e2" y="232.485915"/>
     <use style="fill:#ffd700;stroke:#000000;stroke-linejoin:bevel;stroke-width:0.5;" x="81.1012500001" xlink:href="#mb2a8ede7e2" y="232.716315"/>
     <use style="fill:#ffd700;stroke:#000000;stroke-linejoin:bevel;stroke-width:0.5;" x="79.9387500001" xlink:href="#mb2a8ede7e2" y="232.946715"/>
     <use style="fill:#ffd700;stroke:#000000;stroke-linejoin:bevel;stroke-width:0.5;" x="78.7762500001" xlink:href="#mb2a8ede7e2" y="233.246235"/>
     <use style="fill:#ffd700;stroke:#000000;stroke-linejoin:bevel;stroke-width:0.5;" x="77.6137500001" xlink:href="#mb2a8ede7e2" y="233.223195"/>
     <use style="fill:#ffd700;stroke:#000000;stroke-linejoin:bevel;stroke-width:0.5;" x="76.4512500002" xlink:href="#mb2a8ede7e2" y="233.522715"/>
     <use style="fill:#ffd700;stroke:#000000;stroke-linejoin:bevel;stroke-width:0.5;" x="75.2887500001" xlink:href="#mb2a8ede7e2" y="233.914395"/>
     <use style="fill:#ffd700;stroke:#000000;stroke-linejoin:bevel;stroke-width:0.5;" x="74.1262500001" xlink:href="#mb2a8ede7e2" y="234.144795"/>
     <use style="fill:#ffd700;stroke:#000000;stroke-linejoin:bevel;stroke-width:0.5;" x="72.9637500001" xlink:href="#mb2a8ede7e2" y="234.375195"/>
     <use style="fill:#ffd700;stroke:#000000;stroke-linejoin:bevel;stroke-width:0.5;" x="71.8012500001" xlink:href="#mb2a8ede7e2" y="234.536475"/>
     <use style="fill:#ffd700;stroke:#000000;stroke-linejoin:bevel;stroke-width:0.5;" x="70.6387500002" xlink:href="#mb2a8ede7e2" y="234.743835"/>
     <use style="fill:#ffd700;stroke:#000000;stroke-linejoin:bevel;stroke-width:0.5;" x="69.4762500001" xlink:href="#mb2a8ede7e2" y="235.089435"/>
     <use style="fill:#ffd700;stroke:#000000;stroke-linejoin:bevel;stroke-width:0.5;" x="65.9887500001" xlink:href="#mb2a8ede7e2" y="235.573275"/>
    </g>
   </g>
   <g id="patch_3">
    <path d="M 65.98875 13.006875 
L 623.98875 13.006875 
" style="fill:none;stroke:#000000;stroke-linecap:square;stroke-linejoin:miter;"/>
   </g>
   <g id="patch_4">
    <path d="M 623.98875 243.406875 
L 623.98875 13.006875 
" style="fill:none;stroke:#000000;stroke-linecap:square;stroke-linejoin:miter;"/>
   </g>
   <g id="patch_5">
    <path d="M 65.98875 243.406875 
L 623.98875 243.406875 
" style="fill:none;stroke:#000000;stroke-linecap:square;stroke-linejoin:miter;"/>
   </g>
   <g id="patch_6">
    <path d="M 65.98875 243.406875 
L 65.98875 13.006875 
" style="fill:none;stroke:#000000;stroke-linecap:square;stroke-linejoin:miter;"/>
   </g>
   <g id="matplotlib.axis_1">
    <g id="xtick_1">
     <g id="line2d_2">
      <defs>
       <path d="M 0 0 
L 0 -4 
" id="m7379d07e16" style="stroke:#000000;stroke-width:0.5;"/>
      </defs>
      <g>
       <use style="stroke:#000000;stroke-width:0.5;" x="132.25125" xlink:href="#m7379d07e16" y="243.406875"/>
      </g>
     </g>
     <g id="line2d_3">
      <defs>
       <path d="M 0 0 
L 0 4 
" id="md75a08d299" style="stroke:#000000;stroke-width:0.5;"/>
      </defs>
      <g>
       <use style="stroke:#000000;stroke-width:0.5;" x="132.25125" xlink:href="#md75a08d299" y="13.006875"/>
      </g>
     </g>
     <g id="text_1">
      <!-- Dec 2014 -->
      <defs>
       <path d="M 19.1875 8.296875 
L 53.609375 8.296875 
L 53.609375 0 
L 7.328125 0 
L 7.328125 8.296875 
Q 12.9375 14.109375 22.625 23.890625 
Q 32.328125 33.6875 34.8125 36.53125 
Q 39.546875 41.84375 41.421875 45.53125 
Q 43.3125 49.21875 43.3125 52.78125 
Q 43.3125 58.59375 39.234375 62.25 
Q 35.15625 65.921875 28.609375 65.921875 
Q 23.96875 65.921875 18.8125 64.3125 
Q 13.671875 62.703125 7.8125 59.421875 
L 7.8125 69.390625 
Q 13.765625 71.78125 18.9375 73 
Q 24.125 74.21875 28.421875 74.21875 
Q 39.75 74.21875 46.484375 68.546875 
Q 53.21875 62.890625 53.21875 53.421875 
Q 53.21875 48.921875 51.53125 44.890625 
Q 49.859375 40.875 45.40625 35.40625 
Q 44.1875 33.984375 37.640625 27.21875 
Q 31.109375 20.453125 19.1875 8.296875 
" id="BitstreamVeraSans-Roman-32"/>
       <path id="BitstreamVeraSans-Roman-20"/>
       <path d="M 31.78125 66.40625 
Q 24.171875 66.40625 20.328125 58.90625 
Q 16.5 51.421875 16.5 36.375 
Q 16.5 21.390625 20.328125 13.890625 
Q 24.171875 6.390625 31.78125 6.390625 
Q 39.453125 6.390625 43.28125 13.890625 
Q 47.125 21.390625 47.125 36.375 
Q 47.125 51.421875 43.28125 58.90625 
Q 39.453125 66.40625 31.78125 66.40625 
M 31.78125 74.21875 
Q 44.046875 74.21875 50.515625 64.515625 
Q 56.984375 54.828125 56.984375 36.375 
Q 56.984375 17.96875 50.515625 8.265625 
Q 44.046875 -1.421875 31.78125 -1.421875 
Q 19.53125 -1.421875 13.0625 8.265625 
Q 6.59375 17.96875 6.59375 36.375 
Q 6.59375 54.828125 13.0625 64.515625 
Q 19.53125 74.21875 31.78125 74.21875 
" id="BitstreamVeraSans-Roman-30"/>
       <path d="M 12.40625 8.296875 
L 28.515625 8.296875 
L 28.515625 63.921875 
L 10.984375 60.40625 
L 10.984375 69.390625 
L 28.421875 72.90625 
L 38.28125 72.90625 
L 38.28125 8.296875 
L 54.390625 8.296875 
L 54.390625 0 
L 12.40625 0 
z
" id="BitstreamVeraSans-Roman-31"/>
       <path d="M 37.796875 64.3125 
L 12.890625 25.390625 
L 37.796875 25.390625 
z
M 35.203125 72.90625 
L 47.609375 72.90625 
L 47.609375 25.390625 
L 58.015625 25.390625 
L 58.015625 17.1875 
L 47.609375 17.1875 
L 47.609375 0 
L 37.796875 0 
L 37.796875 17.1875 
L 4.890625 17.1875 
L 4.890625 26.703125 
z
" id="BitstreamVeraSans-Roman-34"/>
       <path d="M 19.671875 64.796875 
L 19.671875 8.109375 
L 31.59375 8.109375 
Q 46.6875 8.109375 53.6875 14.9375 
Q 60.6875 21.78125 60.6875 36.53125 
Q 60.6875 51.171875 53.6875 57.984375 
Q 46.6875 64.796875 31.59375 64.796875 
z
M 9.8125 72.90625 
L 30.078125 72.90625 
Q 51.265625 72.90625 61.171875 64.09375 
Q 71.09375 55.28125 71.09375 36.53125 
Q 71.09375 17.671875 61.125 8.828125 
Q 51.171875 0 30.078125 0 
L 9.8125 0 
z
" id="BitstreamVeraSans-Roman-44"/>
       <path d="M 56.203125 29.59375 
L 56.203125 25.203125 
L 14.890625 25.203125 
Q 15.484375 15.921875 20.484375 11.0625 
Q 25.484375 6.203125 34.421875 6.203125 
Q 39.59375 6.203125 44.453125 7.46875 
Q 49.3125 8.734375 54.109375 11.28125 
L 54.109375 2.78125 
Q 49.265625 0.734375 44.1875 -0.34375 
Q 39.109375 -1.421875 33.890625 -1.421875 
Q 20.796875 -1.421875 13.15625 6.1875 
Q 5.515625 13.8125 5.515625 26.8125 
Q 5.515625 40.234375 12.765625 48.109375 
Q 20.015625 56 32.328125 56 
Q 43.359375 56 49.78125 48.890625 
Q 56.203125 41.796875 56.203125 29.59375 
M 47.21875 32.234375 
Q 47.125 39.59375 43.09375 43.984375 
Q 39.0625 48.390625 32.421875 48.390625 
Q 24.90625 48.390625 20.390625 44.140625 
Q 15.875 39.890625 15.1875 32.171875 
z
" id="BitstreamVeraSans-Roman-65"/>
       <path d="M 48.78125 52.59375 
L 48.78125 44.1875 
Q 44.96875 46.296875 41.140625 47.34375 
Q 37.3125 48.390625 33.40625 48.390625 
Q 24.65625 48.390625 19.8125 42.84375 
Q 14.984375 37.3125 14.984375 27.296875 
Q 14.984375 17.28125 19.8125 11.734375 
Q 24.65625 6.203125 33.40625 6.203125 
Q 37.3125 6.203125 41.140625 7.25 
Q 44.96875 8.296875 48.78125 10.40625 
L 48.78125 2.09375 
Q 45.015625 0.34375 40.984375 -0.53125 
Q 36.96875 -1.421875 32.421875 -1.421875 
Q 20.0625 -1.421875 12.78125 6.34375 
Q 5.515625 14.109375 5.515625 27.296875 
Q 5.515625 40.671875 12.859375 48.328125 
Q 20.21875 56 33.015625 56 
Q 37.15625 56 41.109375 55.140625 
Q 45.0625 54.296875 48.78125 52.59375 
" id="BitstreamVeraSans-Roman-63"/>
      </defs>
      <g transform="translate(135.5625 304.9825)rotate(-90.0)scale(0.12 -0.12)">
       <use xlink:href="#BitstreamVeraSans-Roman-44"/>
       <use x="77.001953125" xlink:href="#BitstreamVeraSans-Roman-65"/>
       <use x="138.525390625" xlink:href="#BitstreamVeraSans-Roman-63"/>
       <use x="193.505859375" xlink:href="#BitstreamVeraSans-Roman-20"/>
       <use x="225.29296875" xlink:href="#BitstreamVeraSans-Roman-32"/>
       <use x="288.916015625" xlink:href="#BitstreamVeraSans-Roman-30"/>
       <use x="352.5390625" xlink:href="#BitstreamVeraSans-Roman-31"/>
       <use x="416.162109375" xlink:href="#BitstreamVeraSans-Roman-34"/>
      </g>
     </g>
    </g>
    <g id="xtick_2">
     <g id="line2d_4">
      <g>
       <use style="stroke:#000000;stroke-width:0.5;" x="204.32625" xlink:href="#m7379d07e16" y="243.406875"/>
      </g>
     </g>
     <g id="line2d_5">
      <g>
       <use style="stroke:#000000;stroke-width:0.5;" x="204.32625" xlink:href="#md75a08d299" y="13.006875"/>
      </g>
     </g>
     <g id="text_2">
      <!-- Feb 2015 -->
      <defs>
       <path d="M 9.8125 72.90625 
L 51.703125 72.90625 
L 51.703125 64.59375 
L 19.671875 64.59375 
L 19.671875 43.109375 
L 48.578125 43.109375 
L 48.578125 34.8125 
L 19.671875 34.8125 
L 19.671875 0 
L 9.8125 0 
z
" id="BitstreamVeraSans-Roman-46"/>
       <path d="M 10.796875 72.90625 
L 49.515625 72.90625 
L 49.515625 64.59375 
L 19.828125 64.59375 
L 19.828125 46.734375 
Q 21.96875 47.46875 24.109375 47.828125 
Q 26.265625 48.1875 28.421875 48.1875 
Q 40.625 48.1875 47.75 41.5 
Q 54.890625 34.8125 54.890625 23.390625 
Q 54.890625 11.625 47.5625 5.09375 
Q 40.234375 -1.421875 26.90625 -1.421875 
Q 22.3125 -1.421875 17.546875 -0.640625 
Q 12.796875 0.140625 7.71875 1.703125 
L 7.71875 11.625 
Q 12.109375 9.234375 16.796875 8.0625 
Q 21.484375 6.890625 26.703125 6.890625 
Q 35.15625 6.890625 40.078125 11.328125 
Q 45.015625 15.765625 45.015625 23.390625 
Q 45.015625 31 40.078125 35.4375 
Q 35.15625 39.890625 26.703125 39.890625 
Q 22.75 39.890625 18.8125 39.015625 
Q 14.890625 38.140625 10.796875 36.28125 
z
" id="BitstreamVeraSans-Roman-35"/>
       <path d="M 48.6875 27.296875 
Q 48.6875 37.203125 44.609375 42.84375 
Q 40.53125 48.484375 33.40625 48.484375 
Q 26.265625 48.484375 22.1875 42.84375 
Q 18.109375 37.203125 18.109375 27.296875 
Q 18.109375 17.390625 22.1875 11.75 
Q 26.265625 6.109375 33.40625 6.109375 
Q 40.53125 6.109375 44.609375 11.75 
Q 48.6875 17.390625 48.6875 27.296875 
M 18.109375 46.390625 
Q 20.953125 51.265625 25.265625 53.625 
Q 29.59375 56 35.59375 56 
Q 45.5625 56 51.78125 48.09375 
Q 58.015625 40.1875 58.015625 27.296875 
Q 58.015625 14.40625 51.78125 6.484375 
Q 45.5625 -1.421875 35.59375 -1.421875 
Q 29.59375 -1.421875 25.265625 0.953125 
Q 20.953125 3.328125 18.109375 8.203125 
L 18.109375 0 
L 9.078125 0 
L 9.078125 75.984375 
L 18.109375 75.984375 
z
" id="BitstreamVeraSans-Roman-62"/>
      </defs>
      <g transform="translate(207.6375 303.655)rotate(-90.0)scale(0.12 -0.12)">
       <use xlink:href="#BitstreamVeraSans-Roman-46"/>
       <use x="57.44140625" xlink:href="#BitstreamVeraSans-Roman-65"/>
       <use x="118.96484375" xlink:href="#BitstreamVeraSans-Roman-62"/>
       <use x="182.44140625" xlink:href="#BitstreamVeraSans-Roman-20"/>
       <use x="214.228515625" xlink:href="#BitstreamVeraSans-Roman-32"/>
       <use x="277.8515625" xlink:href="#BitstreamVeraSans-Roman-30"/>
       <use x="341.474609375" xlink:href="#BitstreamVeraSans-Roman-31"/>
       <use x="405.09765625" xlink:href="#BitstreamVeraSans-Roman-35"/>
      </g>
     </g>
    </g>
    <g id="xtick_3">
     <g id="line2d_6">
      <g>
       <use style="stroke:#000000;stroke-width:0.5;" x="272.91375" xlink:href="#m7379d07e16" y="243.406875"/>
      </g>
     </g>
     <g id="line2d_7">
      <g>
       <use style="stroke:#000000;stroke-width:0.5;" x="272.91375" xlink:href="#md75a08d299" y="13.006875"/>
      </g>
     </g>
     <g id="text_3">
      <!-- Apr 2015 -->
      <defs>
       <path d="M 41.109375 46.296875 
Q 39.59375 47.171875 37.8125 47.578125 
Q 36.03125 48 33.890625 48 
Q 26.265625 48 22.1875 43.046875 
Q 18.109375 38.09375 18.109375 28.8125 
L 18.109375 0 
L 9.078125 0 
L 9.078125 54.6875 
L 18.109375 54.6875 
L 18.109375 46.1875 
Q 20.953125 51.171875 25.484375 53.578125 
Q 30.03125 56 36.53125 56 
Q 37.453125 56 38.578125 55.875 
Q 39.703125 55.765625 41.0625 55.515625 
z
" id="BitstreamVeraSans-Roman-72"/>
       <path d="M 18.109375 8.203125 
L 18.109375 -20.796875 
L 9.078125 -20.796875 
L 9.078125 54.6875 
L 18.109375 54.6875 
L 18.109375 46.390625 
Q 20.953125 51.265625 25.265625 53.625 
Q 29.59375 56 35.59375 56 
Q 45.5625 56 51.78125 48.09375 
Q 58.015625 40.1875 58.015625 27.296875 
Q 58.015625 14.40625 51.78125 6.484375 
Q 45.5625 -1.421875 35.59375 -1.421875 
Q 29.59375 -1.421875 25.265625 0.953125 
Q 20.953125 3.328125 18.109375 8.203125 
M 48.6875 27.296875 
Q 48.6875 37.203125 44.609375 42.84375 
Q 40.53125 48.484375 33.40625 48.484375 
Q 26.265625 48.484375 22.1875 42.84375 
Q 18.109375 37.203125 18.109375 27.296875 
Q 18.109375 17.390625 22.1875 11.75 
Q 26.265625 6.109375 33.40625 6.109375 
Q 40.53125 6.109375 44.609375 11.75 
Q 48.6875 17.390625 48.6875 27.296875 
" id="BitstreamVeraSans-Roman-70"/>
       <path d="M 34.1875 63.1875 
L 20.796875 26.90625 
L 47.609375 26.90625 
z
M 28.609375 72.90625 
L 39.796875 72.90625 
L 67.578125 0 
L 57.328125 0 
L 50.6875 18.703125 
L 17.828125 18.703125 
L 11.1875 0 
L 0.78125 0 
z
" id="BitstreamVeraSans-Roman-41"/>
      </defs>
      <g transform="translate(276.225 302.520625)rotate(-90.0)scale(0.12 -0.12)">
       <use xlink:href="#BitstreamVeraSans-Roman-41"/>
       <use x="68.408203125" xlink:href="#BitstreamVeraSans-Roman-70"/>
       <use x="131.884765625" xlink:href="#BitstreamVeraSans-Roman-72"/>
       <use x="172.998046875" xlink:href="#BitstreamVeraSans-Roman-20"/>
       <use x="204.78515625" xlink:href="#BitstreamVeraSans-Roman-32"/>
       <use x="268.408203125" xlink:href="#BitstreamVeraSans-Roman-30"/>
       <use x="332.03125" xlink:href="#BitstreamVeraSans-Roman-31"/>
       <use x="395.654296875" xlink:href="#BitstreamVeraSans-Roman-35"/>
      </g>
     </g>
    </g>
    <g id="xtick_4">
     <g id="line2d_8">
      <g>
       <use style="stroke:#000000;stroke-width:0.5;" x="343.82625" xlink:href="#m7379d07e16" y="243.406875"/>
      </g>
     </g>
     <g id="line2d_9">
      <g>
       <use style="stroke:#000000;stroke-width:0.5;" x="343.82625" xlink:href="#md75a08d299" y="13.006875"/>
      </g>
     </g>
     <g id="text_4">
      <!-- Jun 2015 -->
      <defs>
       <path d="M 54.890625 33.015625 
L 54.890625 0 
L 45.90625 0 
L 45.90625 32.71875 
Q 45.90625 40.484375 42.875 44.328125 
Q 39.84375 48.1875 33.796875 48.1875 
Q 26.515625 48.1875 22.3125 43.546875 
Q 18.109375 38.921875 18.109375 30.90625 
L 18.109375 0 
L 9.078125 0 
L 9.078125 54.6875 
L 18.109375 54.6875 
L 18.109375 46.1875 
Q 21.34375 51.125 25.703125 53.5625 
Q 30.078125 56 35.796875 56 
Q 45.21875 56 50.046875 50.171875 
Q 54.890625 44.34375 54.890625 33.015625 
" id="BitstreamVeraSans-Roman-6e"/>
       <path d="M 8.5 21.578125 
L 8.5 54.6875 
L 17.484375 54.6875 
L 17.484375 21.921875 
Q 17.484375 14.15625 20.5 10.265625 
Q 23.53125 6.390625 29.59375 6.390625 
Q 36.859375 6.390625 41.078125 11.03125 
Q 45.3125 15.671875 45.3125 23.6875 
L 45.3125 54.6875 
L 54.296875 54.6875 
L 54.296875 0 
L 45.3125 0 
L 45.3125 8.40625 
Q 42.046875 3.421875 37.71875 1 
Q 33.40625 -1.421875 27.6875 -1.421875 
Q 18.265625 -1.421875 13.375 4.4375 
Q 8.5 10.296875 8.5 21.578125 
" id="BitstreamVeraSans-Roman-75"/>
       <path d="M 9.8125 72.90625 
L 19.671875 72.90625 
L 19.671875 5.078125 
Q 19.671875 -8.109375 14.671875 -14.0625 
Q 9.671875 -20.015625 -1.421875 -20.015625 
L -5.171875 -20.015625 
L -5.171875 -11.71875 
L -2.09375 -11.71875 
Q 4.4375 -11.71875 7.125 -8.046875 
Q 9.8125 -4.390625 9.8125 5.078125 
z
" id="BitstreamVeraSans-Roman-4a"/>
      </defs>
      <g transform="translate(347.1375 300.510625)rotate(-90.0)scale(0.12 -0.12)">
       <use xlink:href="#BitstreamVeraSans-Roman-4a"/>
       <use x="29.4921875" xlink:href="#BitstreamVeraSans-Roman-75"/>
       <use x="92.87109375" xlink:href="#BitstreamVeraSans-Roman-6e"/>
       <use x="156.25" xlink:href="#BitstreamVeraSans-Roman-20"/>
       <use x="188.037109375" xlink:href="#BitstreamVeraSans-Roman-32"/>
       <use x="251.66015625" xlink:href="#BitstreamVeraSans-Roman-30"/>
       <use x="315.283203125" xlink:href="#BitstreamVeraSans-Roman-31"/>
       <use x="378.90625" xlink:href="#BitstreamVeraSans-Roman-35"/>
      </g>
     </g>
    </g>
    <g id="xtick_5">
     <g id="line2d_10">
      <g>
       <use style="stroke:#000000;stroke-width:0.5;" x="414.73875" xlink:href="#m7379d07e16" y="243.406875"/>
      </g>
     </g>
     <g id="line2d_11">
      <g>
       <use style="stroke:#000000;stroke-width:0.5;" x="414.73875" xlink:href="#md75a08d299" y="13.006875"/>
      </g>
     </g>
     <g id="text_5">
      <!-- Aug 2015 -->
      <defs>
       <path d="M 45.40625 27.984375 
Q 45.40625 37.75 41.375 43.109375 
Q 37.359375 48.484375 30.078125 48.484375 
Q 22.859375 48.484375 18.828125 43.109375 
Q 14.796875 37.75 14.796875 27.984375 
Q 14.796875 18.265625 18.828125 12.890625 
Q 22.859375 7.515625 30.078125 7.515625 
Q 37.359375 7.515625 41.375 12.890625 
Q 45.40625 18.265625 45.40625 27.984375 
M 54.390625 6.78125 
Q 54.390625 -7.171875 48.1875 -13.984375 
Q 42 -20.796875 29.203125 -20.796875 
Q 24.46875 -20.796875 20.265625 -20.09375 
Q 16.0625 -19.390625 12.109375 -17.921875 
L 12.109375 -9.1875 
Q 16.0625 -11.328125 19.921875 -12.34375 
Q 23.78125 -13.375 27.78125 -13.375 
Q 36.625 -13.375 41.015625 -8.765625 
Q 45.40625 -4.15625 45.40625 5.171875 
L 45.40625 9.625 
Q 42.625 4.78125 38.28125 2.390625 
Q 33.9375 0 27.875 0 
Q 17.828125 0 11.671875 7.65625 
Q 5.515625 15.328125 5.515625 27.984375 
Q 5.515625 40.671875 11.671875 48.328125 
Q 17.828125 56 27.875 56 
Q 33.9375 56 38.28125 53.609375 
Q 42.625 51.21875 45.40625 46.390625 
L 45.40625 54.6875 
L 54.390625 54.6875 
z
" id="BitstreamVeraSans-Roman-67"/>
      </defs>
      <g transform="translate(418.05 305.1925)rotate(-90.0)scale(0.12 -0.12)">
       <use xlink:href="#BitstreamVeraSans-Roman-41"/>
       <use x="68.408203125" xlink:href="#BitstreamVeraSans-Roman-75"/>
       <use x="131.787109375" xlink:href="#BitstreamVeraSans-Roman-67"/>
       <use x="195.263671875" xlink:href="#BitstreamVeraSans-Roman-20"/>
       <use x="227.05078125" xlink:href="#BitstreamVeraSans-Roman-32"/>
       <use x="290.673828125" xlink:href="#BitstreamVeraSans-Roman-30"/>
       <use x="354.296875" xlink:href="#BitstreamVeraSans-Roman-31"/>
       <use x="417.919921875" xlink:href="#BitstreamVeraSans-Roman-35"/>
      </g>
     </g>
    </g>
    <g id="xtick_6">
     <g id="line2d_12">
      <g>
       <use style="stroke:#000000;stroke-width:0.5;" x="485.65125" xlink:href="#m7379d07e16" y="243.406875"/>
      </g>
     </g>
     <g id="line2d_13">
      <g>
       <use style="stroke:#000000;stroke-width:0.5;" x="485.65125" xlink:href="#md75a08d299" y="13.006875"/>
      </g>
     </g>
     <g id="text_6">
      <!-- Oct 2015 -->
      <defs>
       <path d="M 39.40625 66.21875 
Q 28.65625 66.21875 22.328125 58.203125 
Q 16.015625 50.203125 16.015625 36.375 
Q 16.015625 22.609375 22.328125 14.59375 
Q 28.65625 6.59375 39.40625 6.59375 
Q 50.140625 6.59375 56.421875 14.59375 
Q 62.703125 22.609375 62.703125 36.375 
Q 62.703125 50.203125 56.421875 58.203125 
Q 50.140625 66.21875 39.40625 66.21875 
M 39.40625 74.21875 
Q 54.734375 74.21875 63.90625 63.9375 
Q 73.09375 53.65625 73.09375 36.375 
Q 73.09375 19.140625 63.90625 8.859375 
Q 54.734375 -1.421875 39.40625 -1.421875 
Q 24.03125 -1.421875 14.8125 8.828125 
Q 5.609375 19.09375 5.609375 36.375 
Q 5.609375 53.65625 14.8125 63.9375 
Q 24.03125 74.21875 39.40625 74.21875 
" id="BitstreamVeraSans-Roman-4f"/>
       <path d="M 18.3125 70.21875 
L 18.3125 54.6875 
L 36.8125 54.6875 
L 36.8125 47.703125 
L 18.3125 47.703125 
L 18.3125 18.015625 
Q 18.3125 11.328125 20.140625 9.421875 
Q 21.96875 7.515625 27.59375 7.515625 
L 36.8125 7.515625 
L 36.8125 0 
L 27.59375 0 
Q 17.1875 0 13.234375 3.875 
Q 9.28125 7.765625 9.28125 18.015625 
L 9.28125 47.703125 
L 2.6875 47.703125 
L 2.6875 54.6875 
L 9.28125 54.6875 
L 9.28125 70.21875 
z
" id="BitstreamVeraSans-Roman-74"/>
      </defs>
      <g transform="translate(488.9625 302.509375)rotate(-90.0)scale(0.12 -0.12)">
       <use xlink:href="#BitstreamVeraSans-Roman-4f"/>
       <use x="78.7109375" xlink:href="#BitstreamVeraSans-Roman-63"/>
       <use x="133.69140625" xlink:href="#BitstreamVeraSans-Roman-74"/>
       <use x="172.900390625" xlink:href="#BitstreamVeraSans-Roman-20"/>
       <use x="204.6875" xlink:href="#BitstreamVeraSans-Roman-32"/>
       <use x="268.310546875" xlink:href="#BitstreamVeraSans-Roman-30"/>
       <use x="331.93359375" xlink:href="#BitstreamVeraSans-Roman-31"/>
       <use x="395.556640625" xlink:href="#BitstreamVeraSans-Roman-35"/>
      </g>
     </g>
    </g>
    <g id="xtick_7">
     <g id="line2d_14">
      <g>
       <use style="stroke:#000000;stroke-width:0.5;" x="556.56375" xlink:href="#m7379d07e16" y="243.406875"/>
      </g>
     </g>
     <g id="line2d_15">
      <g>
       <use style="stroke:#000000;stroke-width:0.5;" x="556.56375" xlink:href="#md75a08d299" y="13.006875"/>
      </g>
     </g>
     <g id="text_7">
      <!-- Dec 2015 -->
      <g transform="translate(559.875 304.9825)rotate(-90.0)scale(0.12 -0.12)">
       <use xlink:href="#BitstreamVeraSans-Roman-44"/>
       <use x="77.001953125" xlink:href="#BitstreamVeraSans-Roman-65"/>
       <use x="138.525390625" xlink:href="#BitstreamVeraSans-Roman-63"/>
       <use x="193.505859375" xlink:href="#BitstreamVeraSans-Roman-20"/>
       <use x="225.29296875" xlink:href="#BitstreamVeraSans-Roman-32"/>
       <use x="288.916015625" xlink:href="#BitstreamVeraSans-Roman-30"/>
       <use x="352.5390625" xlink:href="#BitstreamVeraSans-Roman-31"/>
       <use x="416.162109375" xlink:href="#BitstreamVeraSans-Roman-35"/>
      </g>
     </g>
    </g>
   </g>
   <g id="matplotlib.axis_2">
    <g id="ytick_1">
     <g id="line2d_16">
      <defs>
       <path d="M 0 0 
L 4 0 
" id="m59ebdbc17f" style="stroke:#000000;stroke-width:0.5;"/>
      </defs>
      <g>
       <use style="stroke:#000000;stroke-width:0.5;" x="65.98875" xlink:href="#m59ebdbc17f" y="243.406875"/>
      </g>
     </g>
     <g id="line2d_17">
      <defs>
       <path d="M 0 0 
L -4 0 
" id="mfbf3ecd55c" style="stroke:#000000;stroke-width:0.5;"/>
      </defs>
      <g>
       <use style="stroke:#000000;stroke-width:0.5;" x="623.98875" xlink:href="#mfbf3ecd55c" y="243.406875"/>
      </g>
     </g>
     <g id="text_8">
      <!-- 4000 -->
      <g transform="translate(31.44875 246.718125)scale(0.12 -0.12)">
       <use xlink:href="#BitstreamVeraSans-Roman-34"/>
       <use x="63.623046875" xlink:href="#BitstreamVeraSans-Roman-30"/>
       <use x="127.24609375" xlink:href="#BitstreamVeraSans-Roman-30"/>
       <use x="190.869140625" xlink:href="#BitstreamVeraSans-Roman-30"/>
      </g>
     </g>
    </g>
    <g id="ytick_2">
     <g id="line2d_18">
      <g>
       <use style="stroke:#000000;stroke-width:0.5;" x="65.98875" xlink:href="#m59ebdbc17f" y="197.326875"/>
      </g>
     </g>
     <g id="line2d_19">
      <g>
       <use style="stroke:#000000;stroke-width:0.5;" x="623.98875" xlink:href="#mfbf3ecd55c" y="197.326875"/>
      </g>
     </g>
     <g id="text_9">
      <!-- 6000 -->
      <defs>
       <path d="M 33.015625 40.375 
Q 26.375 40.375 22.484375 35.828125 
Q 18.609375 31.296875 18.609375 23.390625 
Q 18.609375 15.53125 22.484375 10.953125 
Q 26.375 6.390625 33.015625 6.390625 
Q 39.65625 6.390625 43.53125 10.953125 
Q 47.40625 15.53125 47.40625 23.390625 
Q 47.40625 31.296875 43.53125 35.828125 
Q 39.65625 40.375 33.015625 40.375 
M 52.59375 71.296875 
L 52.59375 62.3125 
Q 48.875 64.0625 45.09375 64.984375 
Q 41.3125 65.921875 37.59375 65.921875 
Q 27.828125 65.921875 22.671875 59.328125 
Q 17.53125 52.734375 16.796875 39.40625 
Q 19.671875 43.65625 24.015625 45.921875 
Q 28.375 48.1875 33.59375 48.1875 
Q 44.578125 48.1875 50.953125 41.515625 
Q 57.328125 34.859375 57.328125 23.390625 
Q 57.328125 12.15625 50.6875 5.359375 
Q 44.046875 -1.421875 33.015625 -1.421875 
Q 20.359375 -1.421875 13.671875 8.265625 
Q 6.984375 17.96875 6.984375 36.375 
Q 6.984375 53.65625 15.1875 63.9375 
Q 23.390625 74.21875 37.203125 74.21875 
Q 40.921875 74.21875 44.703125 73.484375 
Q 48.484375 72.75 52.59375 71.296875 
" id="BitstreamVeraSans-Roman-36"/>
      </defs>
      <g transform="translate(31.44875 200.638125)scale(0.12 -0.12)">
       <use xlink:href="#BitstreamVeraSans-Roman-36"/>
       <use x="63.623046875" xlink:href="#BitstreamVeraSans-Roman-30"/>
       <use x="127.24609375" xlink:href="#BitstreamVeraSans-Roman-30"/>
       <use x="190.869140625" xlink:href="#BitstreamVeraSans-Roman-30"/>
      </g>
     </g>
    </g>
    <g id="ytick_3">
     <g id="line2d_20">
      <g>
       <use style="stroke:#000000;stroke-width:0.5;" x="65.98875" xlink:href="#m59ebdbc17f" y="151.246875"/>
      </g>
     </g>
     <g id="line2d_21">
      <g>
       <use style="stroke:#000000;stroke-width:0.5;" x="623.98875" xlink:href="#mfbf3ecd55c" y="151.246875"/>
      </g>
     </g>
     <g id="text_10">
      <!-- 8000 -->
      <defs>
       <path d="M 31.78125 34.625 
Q 24.75 34.625 20.71875 30.859375 
Q 16.703125 27.09375 16.703125 20.515625 
Q 16.703125 13.921875 20.71875 10.15625 
Q 24.75 6.390625 31.78125 6.390625 
Q 38.8125 6.390625 42.859375 10.171875 
Q 46.921875 13.96875 46.921875 20.515625 
Q 46.921875 27.09375 42.890625 30.859375 
Q 38.875 34.625 31.78125 34.625 
M 21.921875 38.8125 
Q 15.578125 40.375 12.03125 44.71875 
Q 8.5 49.078125 8.5 55.328125 
Q 8.5 64.0625 14.71875 69.140625 
Q 20.953125 74.21875 31.78125 74.21875 
Q 42.671875 74.21875 48.875 69.140625 
Q 55.078125 64.0625 55.078125 55.328125 
Q 55.078125 49.078125 51.53125 44.71875 
Q 48 40.375 41.703125 38.8125 
Q 48.828125 37.15625 52.796875 32.3125 
Q 56.78125 27.484375 56.78125 20.515625 
Q 56.78125 9.90625 50.3125 4.234375 
Q 43.84375 -1.421875 31.78125 -1.421875 
Q 19.734375 -1.421875 13.25 4.234375 
Q 6.78125 9.90625 6.78125 20.515625 
Q 6.78125 27.484375 10.78125 32.3125 
Q 14.796875 37.15625 21.921875 38.8125 
M 18.3125 54.390625 
Q 18.3125 48.734375 21.84375 45.5625 
Q 25.390625 42.390625 31.78125 42.390625 
Q 38.140625 42.390625 41.71875 45.5625 
Q 45.3125 48.734375 45.3125 54.390625 
Q 45.3125 60.0625 41.71875 63.234375 
Q 38.140625 66.40625 31.78125 66.40625 
Q 25.390625 66.40625 21.84375 63.234375 
Q 18.3125 60.0625 18.3125 54.390625 
" id="BitstreamVeraSans-Roman-38"/>
      </defs>
      <g transform="translate(31.44875 154.558125)scale(0.12 -0.12)">
       <use xlink:href="#BitstreamVeraSans-Roman-38"/>
       <use x="63.623046875" xlink:href="#BitstreamVeraSans-Roman-30"/>
       <use x="127.24609375" xlink:href="#BitstreamVeraSans-Roman-30"/>
       <use x="190.869140625" xlink:href="#BitstreamVeraSans-Roman-30"/>
      </g>
     </g>
    </g>
    <g id="ytick_4">
     <g id="line2d_22">
      <g>
       <use style="stroke:#000000;stroke-width:0.5;" x="65.98875" xlink:href="#m59ebdbc17f" y="105.166875"/>
      </g>
     </g>
     <g id="line2d_23">
      <g>
       <use style="stroke:#000000;stroke-width:0.5;" x="623.98875" xlink:href="#mfbf3ecd55c" y="105.166875"/>
      </g>
     </g>
     <g id="text_11">
      <!-- 10000 -->
      <g transform="translate(23.81375 108.478125)scale(0.12 -0.12)">
       <use xlink:href="#BitstreamVeraSans-Roman-31"/>
       <use x="63.623046875" xlink:href="#BitstreamVeraSans-Roman-30"/>
       <use x="127.24609375" xlink:href="#BitstreamVeraSans-Roman-30"/>
       <use x="190.869140625" xlink:href="#BitstreamVeraSans-Roman-30"/>
       <use x="254.4921875" xlink:href="#BitstreamVeraSans-Roman-30"/>
      </g>
     </g>
    </g>
    <g id="ytick_5">
     <g id="line2d_24">
      <g>
       <use style="stroke:#000000;stroke-width:0.5;" x="65.98875" xlink:href="#m59ebdbc17f" y="59.086875"/>
      </g>
     </g>
     <g id="line2d_25">
      <g>
       <use style="stroke:#000000;stroke-width:0.5;" x="623.98875" xlink:href="#mfbf3ecd55c" y="59.086875"/>
      </g>
     </g>
     <g id="text_12">
      <!-- 12000 -->
      <g transform="translate(23.81375 62.398125)scale(0.12 -0.12)">
       <use xlink:href="#BitstreamVeraSans-Roman-31"/>
       <use x="63.623046875" xlink:href="#BitstreamVeraSans-Roman-32"/>
       <use x="127.24609375" xlink:href="#BitstreamVeraSans-Roman-30"/>
       <use x="190.869140625" xlink:href="#BitstreamVeraSans-Roman-30"/>
       <use x="254.4921875" xlink:href="#BitstreamVeraSans-Roman-30"/>
      </g>
     </g>
    </g>
    <g id="ytick_6">
     <g id="line2d_26">
      <g>
       <use style="stroke:#000000;stroke-width:0.5;" x="65.98875" xlink:href="#m59ebdbc17f" y="13.006875"/>
      </g>
     </g>
     <g id="line2d_27">
      <g>
       <use style="stroke:#000000;stroke-width:0.5;" x="623.98875" xlink:href="#mfbf3ecd55c" y="13.006875"/>
      </g>
     </g>
     <g id="text_13">
      <!-- 14000 -->
      <g transform="translate(23.81375 16.318125)scale(0.12 -0.12)">
       <use xlink:href="#BitstreamVeraSans-Roman-31"/>
       <use x="63.623046875" xlink:href="#BitstreamVeraSans-Roman-34"/>
       <use x="127.24609375" xlink:href="#BitstreamVeraSans-Roman-30"/>
       <use x="190.869140625" xlink:href="#BitstreamVeraSans-Roman-30"/>
       <use x="254.4921875" xlink:href="#BitstreamVeraSans-Roman-30"/>
      </g>
     </g>
    </g>
    <g id="text_14">
     <!-- Number of stars -->
     <defs>
      <path d="M 9.8125 72.90625 
L 23.09375 72.90625 
L 55.421875 11.921875 
L 55.421875 72.90625 
L 64.984375 72.90625 
L 64.984375 0 
L 51.703125 0 
L 19.390625 60.984375 
L 19.390625 0 
L 9.8125 0 
z
" id="BitstreamVeraSans-Roman-4e"/>
      <path d="M 52 44.1875 
Q 55.375 50.25 60.0625 53.125 
Q 64.75 56 71.09375 56 
Q 79.640625 56 84.28125 50.015625 
Q 88.921875 44.046875 88.921875 33.015625 
L 88.921875 0 
L 79.890625 0 
L 79.890625 32.71875 
Q 79.890625 40.578125 77.09375 44.375 
Q 74.3125 48.1875 68.609375 48.1875 
Q 61.625 48.1875 57.5625 43.546875 
Q 53.515625 38.921875 53.515625 30.90625 
L 53.515625 0 
L 44.484375 0 
L 44.484375 32.71875 
Q 44.484375 40.625 41.703125 44.40625 
Q 38.921875 48.1875 33.109375 48.1875 
Q 26.21875 48.1875 22.15625 43.53125 
Q 18.109375 38.875 18.109375 30.90625 
L 18.109375 0 
L 9.078125 0 
L 9.078125 54.6875 
L 18.109375 54.6875 
L 18.109375 46.1875 
Q 21.1875 51.21875 25.484375 53.609375 
Q 29.78125 56 35.6875 56 
Q 41.65625 56 45.828125 52.96875 
Q 50 49.953125 52 44.1875 
" id="BitstreamVeraSans-Roman-6d"/>
      <path d="M 30.609375 48.390625 
Q 23.390625 48.390625 19.1875 42.75 
Q 14.984375 37.109375 14.984375 27.296875 
Q 14.984375 17.484375 19.15625 11.84375 
Q 23.34375 6.203125 30.609375 6.203125 
Q 37.796875 6.203125 41.984375 11.859375 
Q 46.1875 17.53125 46.1875 27.296875 
Q 46.1875 37.015625 41.984375 42.703125 
Q 37.796875 48.390625 30.609375 48.390625 
M 30.609375 56 
Q 42.328125 56 49.015625 48.375 
Q 55.71875 40.765625 55.71875 27.296875 
Q 55.71875 13.875 49.015625 6.21875 
Q 42.328125 -1.421875 30.609375 -1.421875 
Q 18.84375 -1.421875 12.171875 6.21875 
Q 5.515625 13.875 5.515625 27.296875 
Q 5.515625 40.765625 12.171875 48.375 
Q 18.84375 56 30.609375 56 
" id="BitstreamVeraSans-Roman-6f"/>
      <path d="M 37.109375 75.984375 
L 37.109375 68.5 
L 28.515625 68.5 
Q 23.6875 68.5 21.796875 66.546875 
Q 19.921875 64.59375 19.921875 59.515625 
L 19.921875 54.6875 
L 34.71875 54.6875 
L 34.71875 47.703125 
L 19.921875 47.703125 
L 19.921875 0 
L 10.890625 0 
L 10.890625 47.703125 
L 2.296875 47.703125 
L 2.296875 54.6875 
L 10.890625 54.6875 
L 10.890625 58.5 
Q 10.890625 67.625 15.140625 71.796875 
Q 19.390625 75.984375 28.609375 75.984375 
z
" id="BitstreamVeraSans-Roman-66"/>
      <path d="M 34.28125 27.484375 
Q 23.390625 27.484375 19.1875 25 
Q 14.984375 22.515625 14.984375 16.5 
Q 14.984375 11.71875 18.140625 8.90625 
Q 21.296875 6.109375 26.703125 6.109375 
Q 34.1875 6.109375 38.703125 11.40625 
Q 43.21875 16.703125 43.21875 25.484375 
L 43.21875 27.484375 
z
M 52.203125 31.203125 
L 52.203125 0 
L 43.21875 0 
L 43.21875 8.296875 
Q 40.140625 3.328125 35.546875 0.953125 
Q 30.953125 -1.421875 24.3125 -1.421875 
Q 15.921875 -1.421875 10.953125 3.296875 
Q 6 8.015625 6 15.921875 
Q 6 25.140625 12.171875 29.828125 
Q 18.359375 34.515625 30.609375 34.515625 
L 43.21875 34.515625 
L 43.21875 35.40625 
Q 43.21875 41.609375 39.140625 45 
Q 35.0625 48.390625 27.6875 48.390625 
Q 23 48.390625 18.546875 47.265625 
Q 14.109375 46.140625 10.015625 43.890625 
L 10.015625 52.203125 
Q 14.9375 54.109375 19.578125 55.046875 
Q 24.21875 56 28.609375 56 
Q 40.484375 56 46.34375 49.84375 
Q 52.203125 43.703125 52.203125 31.203125 
" id="BitstreamVeraSans-Roman-61"/>
      <path d="M 44.28125 53.078125 
L 44.28125 44.578125 
Q 40.484375 46.53125 36.375 47.5 
Q 32.28125 48.484375 27.875 48.484375 
Q 21.1875 48.484375 17.84375 46.4375 
Q 14.5 44.390625 14.5 40.28125 
Q 14.5 37.15625 16.890625 35.375 
Q 19.28125 33.59375 26.515625 31.984375 
L 29.59375 31.296875 
Q 39.15625 29.25 43.1875 25.515625 
Q 47.21875 21.78125 47.21875 15.09375 
Q 47.21875 7.46875 41.1875 3.015625 
Q 35.15625 -1.421875 24.609375 -1.421875 
Q 20.21875 -1.421875 15.453125 -0.5625 
Q 10.6875 0.296875 5.421875 2 
L 5.421875 11.28125 
Q 10.40625 8.6875 15.234375 7.390625 
Q 20.0625 6.109375 24.8125 6.109375 
Q 31.15625 6.109375 34.5625 8.28125 
Q 37.984375 10.453125 37.984375 14.40625 
Q 37.984375 18.0625 35.515625 20.015625 
Q 33.0625 21.96875 24.703125 23.78125 
L 21.578125 24.515625 
Q 13.234375 26.265625 9.515625 29.90625 
Q 5.8125 33.546875 5.8125 39.890625 
Q 5.8125 47.609375 11.28125 51.796875 
Q 16.75 56 26.8125 56 
Q 31.78125 56 36.171875 55.265625 
Q 40.578125 54.546875 44.28125 53.078125 
" id="BitstreamVeraSans-Roman-73"/>
     </defs>
     <g transform="translate(16.318125 176.6540625)rotate(-90.0)scale(0.12 -0.12)">
      <use xlink:href="#BitstreamVeraSans-Roman-4e"/>
      <use x="74.8046875" xlink:href="#BitstreamVeraSans-Roman-75"/>
      <use x="138.18359375" xlink:href="#BitstreamVeraSans-Roman-6d"/>
      <use x="235.595703125" xlink:href="#BitstreamVeraSans-Roman-62"/>
      <use x="299.072265625" xlink:href="#BitstreamVeraSans-Roman-65"/>
      <use x="360.595703125" xlink:href="#BitstreamVeraSans-Roman-72"/>
      <use x="401.708984375" xlink:href="#BitstreamVeraSans-Roman-20"/>
      <use x="433.49609375" xlink:href="#BitstreamVeraSans-Roman-6f"/>
      <use x="494.677734375" xlink:href="#BitstreamVeraSans-Roman-66"/>
      <use x="529.8828125" xlink:href="#BitstreamVeraSans-Roman-20"/>
      <use x="561.669921875" xlink:href="#BitstreamVeraSans-Roman-73"/>
      <use x="613.76953125" xlink:href="#BitstreamVeraSans-Roman-74"/>
      <use x="652.978515625" xlink:href="#BitstreamVeraSans-Roman-61"/>
      <use x="714.2578125" xlink:href="#BitstreamVeraSans-Roman-72"/>
      <use x="755.37109375" xlink:href="#BitstreamVeraSans-Roman-73"/>
     </g>
    </g>
   </g>
  </g>
 </g>
 <defs>
  <clipPath id="p0a3a718a2a">
   <rect height="230.4" width="558.0" x="65.98875" y="13.006875"/>
  </clipPath>
 </defs>
</svg>
