<?xml version="1.0" encoding="UTF-8"?>
<svg xmlns="http://www.w3.org/2000/svg"
     xmlns:xlink="http://www.w3.org/1999/xlink"
     xmlns:gadfly="http://www.gadflyjl.org/ns"
     version="1.2"
     width="203.2mm" height="76.2mm" viewBox="0 0 203.2 76.2"
     stroke="none"
     fill="#000000"
     stroke-width="0.3"
     font-size="3.88"
>
<g class="plotroot xscalable yscalable" id="img-0d3877b8-1">
  <g font-size="3.88" font-family="'PT Sans','Helvetica Neue','Helvetica',sans-serif" fill="#564A55" stroke="#000000" stroke-opacity="0.000" id="img-0d3877b8-2">
    <text x="112.46" y="64.59" text-anchor="middle" dy="0.6em">Date</text>
  </g>
  <g class="guide xlabels" font-size="2.82" font-family="'PT Sans Caption','Helvetica Neue','Helvetica',sans-serif" fill="#6C606B" id="img-0d3877b8-3">
    <text x="39.07" y="57.91" text-anchor="middle" dy="0.6em">Nov</text>
    <text x="50.57" y="57.91" text-anchor="middle" dy="0.6em">Dec</text>
    <text x="62.45" y="57.91" text-anchor="middle" dy="0.6em">Jan 2015</text>
    <text x="74.33" y="57.91" text-anchor="middle" dy="0.6em">Feb</text>
    <text x="85.06" y="57.91" text-anchor="middle" dy="0.6em">Mar</text>
    <text x="96.94" y="57.91" text-anchor="middle" dy="0.6em">Apr</text>
    <text x="108.44" y="57.91" text-anchor="middle" dy="0.6em">May</text>
    <text x="120.32" y="57.91" text-anchor="middle" dy="0.6em">Jun</text>
    <text x="131.82" y="57.91" text-anchor="middle" dy="0.6em">Jul</text>
    <text x="143.7" y="57.91" text-anchor="middle" dy="0.6em">Aug</text>
    <text x="155.58" y="57.91" text-anchor="middle" dy="0.6em">Sep</text>
    <text x="167.07" y="57.91" text-anchor="middle" dy="0.6em">Oct</text>
    <text x="178.95" y="57.91" text-anchor="middle" dy="0.6em">Nov</text>
    <text x="190.45" y="57.91" text-anchor="middle" dy="0.6em">Dec</text>
  </g>
<g clip-path="url(#img-0d3877b8-4)">
  <g id="img-0d3877b8-5">
    <g pointer-events="visible" opacity="1" fill="#000000" fill-opacity="0.000" stroke="#000000" stroke-opacity="0.000" class="guide background" id="img-0d3877b8-6">
      <rect x="26.72" y="5" width="171.48" height="51.91"/>
    </g>
    <g class="guide ygridlines xfixed" stroke-dasharray="0.5,0.5" stroke-width="0.2" stroke="#D0D0E0" id="img-0d3877b8-7">
      <path fill="none" d="M26.72,54.91 L 198.2 54.91"/>
      <path fill="none" d="M26.72,38.94 L 198.2 38.94"/>
      <path fill="none" d="M26.72,22.97 L 198.2 22.97"/>
      <path fill="none" d="M26.72,7 L 198.2 7"/>
    </g>
    <g class="guide xgridlines yfixed" stroke-dasharray="0.5,0.5" stroke-width="0.2" stroke="#D0D0E0" id="img-0d3877b8-8">
      <path fill="none" d="M39.07,5 L 39.07 56.91"/>
      <path fill="none" d="M50.57,5 L 50.57 56.91"/>
      <path fill="none" d="M62.45,5 L 62.45 56.91"/>
      <path fill="none" d="M74.33,5 L 74.33 56.91"/>
      <path fill="none" d="M85.06,5 L 85.06 56.91"/>
      <path fill="none" d="M96.94,5 L 96.94 56.91"/>
      <path fill="none" d="M108.44,5 L 108.44 56.91"/>
      <path fill="none" d="M120.32,5 L 120.32 56.91"/>
      <path fill="none" d="M131.82,5 L 131.82 56.91"/>
      <path fill="none" d="M143.7,5 L 143.7 56.91"/>
      <path fill="none" d="M155.58,5 L 155.58 56.91"/>
      <path fill="none" d="M167.07,5 L 167.07 56.91"/>
      <path fill="none" d="M178.95,5 L 178.95 56.91"/>
      <path fill="none" d="M190.45,5 L 190.45 56.91"/>
    </g>
    <g class="plotpanel" id="img-0d3877b8-9">
      <g stroke-width="0.79" fill="#000000" fill-opacity="0.000" class="geometry color_1.0" stroke-dasharray="none" stroke="#FFD700" id="img-0d3877b8-10">
        <path fill="none" d="M28.72,41.05 L 29.87 40.98 30.26 40.94 30.64 40.91 31.02 40.89 31.41 40.85 31.79 40.82 32.17 40.77 32.56 40.73 32.94 40.73 33.32 40.69 33.71 40.66 34.09 40.62 34.47 40.57 34.86 40.54 35.24 40.44 35.62 40.34 36.01 40.3 36.39 40.24 36.77 40.21 37.16 40.2 37.54 40.17 37.92 40.29 38.31 40.25 38.69 40.23 39.07 40.21 39.46 40.21 39.84 40.17 40.22 39.99 40.61 39.84 40.99 39.82 42.14 39.55 44.05 39.23 44.44 39.22 44.82 38.92 45.2 38.78 45.59 38.75 45.97 38.65 46.35 38.6 47.89 38.25 48.27 38.21 50.19 37.87 50.95 37.74 51.34 37.68 51.72 37.63 52.1 37.58 52.49 37.47 52.87 37.44 53.25 37.46 54.4 37.31 54.79 37.21 55.55 37.12 55.93 37.05 56.32 36.99 57.47 36.95 58.23 36.86 59.38 36.69 60.92 36.56 61.68 36.31 62.83 36.15 65.52 35.85 67.05 35.6 67.43 35.55 67.82 35.54 68.2 35.45 68.58 35.39 68.96 35.39 69.73 35.32 70.11 35.3 70.5 35.25 70.88 35.22 71.26 35.2 71.65 35.19 72.03 35.17 72.8 35.1 73.18 35.03 73.56 35.02 75.1 34.84 75.48 34.76 75.86 34.73 76.63 34.67 77.4 34.6 77.78 34.57 78.93 34.43 80.85 34.18 82.76 33.73 84.68 33.53 85.06 33.42 85.44 33.38 85.83 33.29 86.21 33.2 86.98 33.09 87.74 32.99 89.28 32.81 89.66 32.76 90.04 32.69 90.43 32.67 90.81 32.62 91.19 32.53 91.58 32.49 96.17 32.05 96.94 31.95 97.32 31.92 98.09 31.87 99.62 31.65 100.39 31.61 101.16 31.54 102.69 31.36 103.46 31.28 103.84 31.26 104.61 31.12 104.99 31.09 105.37 31.05 105.76 31.02 106.14 30.98 106.52 30.94 107.29 30.85 107.67 30.81 108.44 30.71 109.2 30.6 109.59 30.55 109.97 30.46 110.74 30.38 111.12 30.29 113.04 30.09 114.57 29.89 114.95 29.81 118.02 29.53 118.4 29.5 118.79 29.48 119.94 29.33 120.32 29.26 120.7 29.2 121.47 29.12 122.24 29.02 123 28.84 126.45 27.92 127.98 27.7 128.37 27.66 128.75 27.78 129.13 27.8 129.52 27.74 129.9 27.71 130.28 27.66 131.43 27.56 132.2 27.51 132.97 27.44 133.35 27.41 133.73 27.32 134.12 27.2 134.5 27.14 134.88 27.1 141.4 26.11 144.46 25.82 147.91 25.3 154.43 23.8 155.58 23.89 157.49 23.59 159.41 23.24 165.54 21.6 167.07 21.27 168.99 20.72 170.52 20.45 172.06 20.07 173.21 19.86 177.8 18.69 182.4 17.77 183.94 17.48 184.7 17.27 188.15 16.59 188.54 16.55 191.22 16.12 191.6 16.06 194.28 15.45 196.2 14.72"/>
      </g>
    </g>
  </g>
</g>
  <g class="guide ylabels" font-size="2.82" font-family="'PT Sans Caption','Helvetica Neue','Helvetica',sans-serif" fill="#6C606B" id="img-0d3877b8-11">
    <text x="25.72" y="54.91" text-anchor="end" dy="0.35em">0</text>
    <text x="25.72" y="38.94" text-anchor="end" dy="0.35em">5.0×10³</text>
    <text x="25.72" y="22.97" text-anchor="end" dy="0.35em">1.0×10⁴</text>
    <text x="25.72" y="7" text-anchor="end" dy="0.35em">1.5×10⁴</text>
  </g>
  <g font-size="3.88" font-family="'PT Sans','Helvetica Neue','Helvetica',sans-serif" fill="#564A55" stroke="#000000" stroke-opacity="0.000" id="img-0d3877b8-12">
    <text x="8.81" y="28.96" text-anchor="middle" dy="0.35em" transform="rotate(-90, 8.81, 30.96)">Number of Stars</text>
  </g>
</g>
<defs>
  <clipPath id="img-0d3877b8-4">
  <path d="M26.72,5 L 198.2 5 198.2 56.91 26.72 56.91" />
</clipPath>
</defs>
</svg>
