<?xml version="1.0" encoding="utf-8" standalone="no"?>
<!DOCTYPE svg PUBLIC "-//W3C//DTD SVG 1.1//EN"
  "http://www.w3.org/Graphics/SVG/1.1/DTD/svg11.dtd">
<!-- Created with matplotlib (http://matplotlib.org/) -->
<svg height="313pt" version="1.1" viewBox="0 0 636 313" width="636pt" xmlns="http://www.w3.org/2000/svg" xmlns:xlink="http://www.w3.org/1999/xlink">
 <defs>
  <style type="text/css">
*{stroke-linecap:butt;stroke-linejoin:round;stroke-miterlimit:100000;}
  </style>
 </defs>
 <g id="figure_1">
  <g id="patch_1">
   <path d="M -0 313.770625 
L 636.995625 313.770625 
L 636.995625 0 
L -0 0 
z
" style="fill:#ffffff;"/>
  </g>
  <g id="axes_1">
   <g id="patch_2">
    <path d="M 65.98875 243.406875 
L 623.98875 243.406875 
L 623.98875 13.006875 
L 65.98875 13.006875 
z
" style="fill:#ffffff;"/>
   </g>
   <g id="line2d_1">
    <path clip-path="url(#pe4a74fa7cf)" d="M 623.98875 47.950875 
L 598.971206 58.491675 
L 592.44489 60.488475 
L 588.094013 62.178075 
L 565.251908 71.797275 
L 541.322083 78.632475 
L 535.883487 83.010075 
L 528.269452 86.677275 
L 519.567697 89.634075 
L 518.479978 89.826075 
L 508.690504 93.934875 
L 506.515066 95.182875 
L 502.164189 96.968475 
L 489.111557 102.498075 
L 476.058925 109.506075 
L 472.795768 110.773275 
L 468.44489 113.038875 
L 464.094013 114.670875 
L 458.655417 117.992475 
L 454.304539 119.950875 
L 436.901031 129.800475 
L 431.462434 131.912475 
L 426.023838 133.698075 
L 422.76068 133.198875 
L 404.269452 142.184475 
L 394.479978 145.333275 
L 385.778224 147.099675 
L 365.111557 153.627675 
L 364.023838 154.338075 
L 362.936118 154.875675 
L 352.058925 156.891675 
L 350.971206 157.198875 
L 349.883487 157.102875 
L 348.795768 156.373275 
L 347.708048 156.642075 
L 343.357171 157.966875 
L 333.567697 163.496475 
L 331.392259 164.571675 
L 325.953662 166.011675 
L 324.865943 166.453275 
L 321.602785 167.355675 
L 320.515066 167.432475 
L 319.427346 167.624475 
L 310.725592 169.314075 
L 309.637873 169.774875 
L 305.286996 170.965275 
L 299.848399 172.174875 
L 298.76068 172.750875 
L 296.585241 173.192475 
L 295.497522 173.749275 
L 286.795768 176.110875 
L 281.357171 177.205275 
L 279.181732 178.030875 
L 278.094013 178.165275 
L 275.918575 178.606875 
L 269.392259 180.123675 
L 267.21682 180.392475 
L 262.865943 181.698075 
L 259.602785 182.197275 
L 257.427346 182.792475 
L 243.286996 185.672475 
L 242.199276 186.229275 
L 241.111557 186.498075 
L 240.023838 186.632475 
L 238.936118 187.054875 
L 231.322083 189.032475 
L 229.146645 189.704475 
L 226.971206 190.741275 
L 225.883487 191.029275 
L 224.795768 191.662875 
L 219.357171 192.872475 
L 213.918575 195.579675 
L 205.21682 197.922075 
L 204.129101 198.075675 
L 198.690504 199.074075 
L 197.602785 199.554075 
L 193.251908 200.610075 
L 192.164189 200.706075 
L 191.076469 201.109275 
L 188.901031 201.550875 
L 185.637873 201.800475 
L 180.199276 202.856475 
L 179.111557 202.875675 
L 178.023838 203.182875 
L 176.936118 203.758875 
L 175.848399 203.835675 
L 174.76068 204.104475 
L 170.409803 205.602075 
L 162.795768 207.406875 
L 159.53261 208.366875 
L 157.357171 209.864475 
L 153.006294 210.670875 
L 149.743136 211.688475 
L 147.567697 212.206875 
L 144.304539 212.437275 
L 142.129101 213.224475 
L 139.953662 213.781275 
L 138.865943 214.414875 
L 135.602785 215.278875 
L 134.515066 215.182875 
L 133.427346 215.374875 
L 132.339627 215.989275 
L 129.076469 216.968475 
L 120.374715 220.059675 
L 116.023838 222.133275 
L 114.936118 222.459675 
L 113.848399 223.016475 
L 112.76068 223.246875 
L 111.672961 224.072475 
L 110.585241 225.896475 
L 109.497522 225.954075 
L 104.058925 227.835675 
L 100.795768 229.448475 
L 99.708048 229.621275 
L 98.620329 230.504475 
L 97.53261 231.560475 
L 96.44489 231.790875 
L 94.269452 231.944475 
L 92.094013 232.309275 
L 91.006294 231.598875 
L 87.743136 232.002075 
L 86.655417 232.386075 
L 85.567697 232.597275 
L 83.392259 233.787675 
L 77.953662 234.939675 
L 76.865943 234.920475 
L 72.515066 235.880475 
L 70.339627 236.187675 
L 69.251908 236.475675 
L 65.98875 236.878875 
L 65.98875 236.878875 
" style="fill:none;stroke:#ffd700;stroke-linecap:square;stroke-width:2.0;"/>
    <defs>
     <path d="M 0 -3 
L -0.673542 -0.927051 
L -2.85317 -0.927051 
L -1.089814 0.354102 
L -1.763356 2.427051 
L -0 1.145898 
L 1.763356 2.427051 
L 1.089814 0.354102 
L 2.85317 -0.927051 
L 0.673542 -0.927051 
z
" id="m3849059054" style="stroke:#000000;stroke-linejoin:bevel;stroke-width:0.5;"/>
    </defs>
    <g clip-path="url(#pe4a74fa7cf)">
     <use style="fill:#ffd700;stroke:#000000;stroke-linejoin:bevel;stroke-width:0.5;" x="623.98875" xlink:href="#m3849059054" y="47.950875"/>
     <use style="fill:#ffd700;stroke:#000000;stroke-linejoin:bevel;stroke-width:0.5;" x="598.97120614" xlink:href="#m3849059054" y="58.491675"/>
     <use style="fill:#ffd700;stroke:#000000;stroke-linejoin:bevel;stroke-width:0.5;" x="592.444890351" xlink:href="#m3849059054" y="60.488475"/>
     <use style="fill:#ffd700;stroke:#000000;stroke-linejoin:bevel;stroke-width:0.5;" x="588.094013158" xlink:href="#m3849059054" y="62.178075"/>
     <use style="fill:#ffd700;stroke:#000000;stroke-linejoin:bevel;stroke-width:0.5;" x="565.251907895" xlink:href="#m3849059054" y="71.797275"/>
     <use style="fill:#ffd700;stroke:#000000;stroke-linejoin:bevel;stroke-width:0.5;" x="541.322083333" xlink:href="#m3849059054" y="78.632475"/>
     <use style="fill:#ffd700;stroke:#000000;stroke-linejoin:bevel;stroke-width:0.5;" x="535.883486842" xlink:href="#m3849059054" y="83.010075"/>
     <use style="fill:#ffd700;stroke:#000000;stroke-linejoin:bevel;stroke-width:0.5;" x="528.269451754" xlink:href="#m3849059054" y="86.677275"/>
     <use style="fill:#ffd700;stroke:#000000;stroke-linejoin:bevel;stroke-width:0.5;" x="527.181732456" xlink:href="#m3849059054" y="87.042075"/>
     <use style="fill:#ffd700;stroke:#000000;stroke-linejoin:bevel;stroke-width:0.5;" x="519.567697368" xlink:href="#m3849059054" y="89.634075"/>
     <use style="fill:#ffd700;stroke:#000000;stroke-linejoin:bevel;stroke-width:0.5;" x="518.47997807" xlink:href="#m3849059054" y="89.826075"/>
     <use style="fill:#ffd700;stroke:#000000;stroke-linejoin:bevel;stroke-width:0.5;" x="508.690504386" xlink:href="#m3849059054" y="93.934875"/>
     <use style="fill:#ffd700;stroke:#000000;stroke-linejoin:bevel;stroke-width:0.5;" x="506.515065789" xlink:href="#m3849059054" y="95.182875"/>
     <use style="fill:#ffd700;stroke:#000000;stroke-linejoin:bevel;stroke-width:0.5;" x="502.164188596" xlink:href="#m3849059054" y="96.968475"/>
     <use style="fill:#ffd700;stroke:#000000;stroke-linejoin:bevel;stroke-width:0.5;" x="489.111557017" xlink:href="#m3849059054" y="102.498075"/>
     <use style="fill:#ffd700;stroke:#000000;stroke-linejoin:bevel;stroke-width:0.5;" x="476.058925439" xlink:href="#m3849059054" y="109.506075"/>
     <use style="fill:#ffd700;stroke:#000000;stroke-linejoin:bevel;stroke-width:0.5;" x="472.795767544" xlink:href="#m3849059054" y="110.773275"/>
     <use style="fill:#ffd700;stroke:#000000;stroke-linejoin:bevel;stroke-width:0.5;" x="468.444890351" xlink:href="#m3849059054" y="113.038875"/>
     <use style="fill:#ffd700;stroke:#000000;stroke-linejoin:bevel;stroke-width:0.5;" x="464.094013158" xlink:href="#m3849059054" y="114.670875"/>
     <use style="fill:#ffd700;stroke:#000000;stroke-linejoin:bevel;stroke-width:0.5;" x="458.655416667" xlink:href="#m3849059054" y="117.992475"/>
     <use style="fill:#ffd700;stroke:#000000;stroke-linejoin:bevel;stroke-width:0.5;" x="454.304539474" xlink:href="#m3849059054" y="119.950875"/>
     <use style="fill:#ffd700;stroke:#000000;stroke-linejoin:bevel;stroke-width:0.5;" x="436.901030702" xlink:href="#m3849059054" y="129.800475"/>
     <use style="fill:#ffd700;stroke:#000000;stroke-linejoin:bevel;stroke-width:0.5;" x="431.46243421" xlink:href="#m3849059054" y="131.912475"/>
     <use style="fill:#ffd700;stroke:#000000;stroke-linejoin:bevel;stroke-width:0.5;" x="426.023837719" xlink:href="#m3849059054" y="133.698075"/>
     <use style="fill:#ffd700;stroke:#000000;stroke-linejoin:bevel;stroke-width:0.5;" x="422.760679825" xlink:href="#m3849059054" y="133.198875"/>
     <use style="fill:#ffd700;stroke:#000000;stroke-linejoin:bevel;stroke-width:0.5;" x="404.269451754" xlink:href="#m3849059054" y="142.184475"/>
     <use style="fill:#ffd700;stroke:#000000;stroke-linejoin:bevel;stroke-width:0.5;" x="394.47997807" xlink:href="#m3849059054" y="145.333275"/>
     <use style="fill:#ffd700;stroke:#000000;stroke-linejoin:bevel;stroke-width:0.5;" x="385.778223684" xlink:href="#m3849059054" y="147.099675"/>
     <use style="fill:#ffd700;stroke:#000000;stroke-linejoin:bevel;stroke-width:0.5;" x="367.286995614" xlink:href="#m3849059054" y="153.032475"/>
     <use style="fill:#ffd700;stroke:#000000;stroke-linejoin:bevel;stroke-width:0.5;" x="366.199276316" xlink:href="#m3849059054" y="153.282075"/>
     <use style="fill:#ffd700;stroke:#000000;stroke-linejoin:bevel;stroke-width:0.5;" x="365.111557017" xlink:href="#m3849059054" y="153.627675"/>
     <use style="fill:#ffd700;stroke:#000000;stroke-linejoin:bevel;stroke-width:0.5;" x="364.023837719" xlink:href="#m3849059054" y="154.338075"/>
     <use style="fill:#ffd700;stroke:#000000;stroke-linejoin:bevel;stroke-width:0.5;" x="362.936118421" xlink:href="#m3849059054" y="154.875675"/>
     <use style="fill:#ffd700;stroke:#000000;stroke-linejoin:bevel;stroke-width:0.5;" x="361.848399123" xlink:href="#m3849059054" y="155.067675"/>
     <use style="fill:#ffd700;stroke:#000000;stroke-linejoin:bevel;stroke-width:0.5;" x="359.672960526" xlink:href="#m3849059054" y="155.470875"/>
     <use style="fill:#ffd700;stroke:#000000;stroke-linejoin:bevel;stroke-width:0.5;" x="357.49752193" xlink:href="#m3849059054" y="155.797275"/>
     <use style="fill:#ffd700;stroke:#000000;stroke-linejoin:bevel;stroke-width:0.5;" x="354.234364035" xlink:href="#m3849059054" y="156.373275"/>
     <use style="fill:#ffd700;stroke:#000000;stroke-linejoin:bevel;stroke-width:0.5;" x="353.146644737" xlink:href="#m3849059054" y="156.661275"/>
     <use style="fill:#ffd700;stroke:#000000;stroke-linejoin:bevel;stroke-width:0.5;" x="352.058925439" xlink:href="#m3849059054" y="156.891675"/>
     <use style="fill:#ffd700;stroke:#000000;stroke-linejoin:bevel;stroke-width:0.5;" x="350.97120614" xlink:href="#m3849059054" y="157.198875"/>
     <use style="fill:#ffd700;stroke:#000000;stroke-linejoin:bevel;stroke-width:0.5;" x="349.883486842" xlink:href="#m3849059054" y="157.102875"/>
     <use style="fill:#ffd700;stroke:#000000;stroke-linejoin:bevel;stroke-width:0.5;" x="348.795767544" xlink:href="#m3849059054" y="156.373275"/>
     <use style="fill:#ffd700;stroke:#000000;stroke-linejoin:bevel;stroke-width:0.5;" x="347.708048246" xlink:href="#m3849059054" y="156.642075"/>
     <use style="fill:#ffd700;stroke:#000000;stroke-linejoin:bevel;stroke-width:0.5;" x="343.357171053" xlink:href="#m3849059054" y="157.966875"/>
     <use style="fill:#ffd700;stroke:#000000;stroke-linejoin:bevel;stroke-width:0.5;" x="333.567697368" xlink:href="#m3849059054" y="163.496475"/>
     <use style="fill:#ffd700;stroke:#000000;stroke-linejoin:bevel;stroke-width:0.5;" x="331.392258772" xlink:href="#m3849059054" y="164.571675"/>
     <use style="fill:#ffd700;stroke:#000000;stroke-linejoin:bevel;stroke-width:0.5;" x="329.216820175" xlink:href="#m3849059054" y="165.147675"/>
     <use style="fill:#ffd700;stroke:#000000;stroke-linejoin:bevel;stroke-width:0.5;" x="327.041381579" xlink:href="#m3849059054" y="165.646875"/>
     <use style="fill:#ffd700;stroke:#000000;stroke-linejoin:bevel;stroke-width:0.5;" x="325.953662281" xlink:href="#m3849059054" y="166.011675"/>
     <use style="fill:#ffd700;stroke:#000000;stroke-linejoin:bevel;stroke-width:0.5;" x="324.865942982" xlink:href="#m3849059054" y="166.453275"/>
     <use style="fill:#ffd700;stroke:#000000;stroke-linejoin:bevel;stroke-width:0.5;" x="321.602785088" xlink:href="#m3849059054" y="167.355675"/>
     <use style="fill:#ffd700;stroke:#000000;stroke-linejoin:bevel;stroke-width:0.5;" x="320.515065789" xlink:href="#m3849059054" y="167.432475"/>
     <use style="fill:#ffd700;stroke:#000000;stroke-linejoin:bevel;stroke-width:0.5;" x="319.427346491" xlink:href="#m3849059054" y="167.624475"/>
     <use style="fill:#ffd700;stroke:#000000;stroke-linejoin:bevel;stroke-width:0.5;" x="310.725592105" xlink:href="#m3849059054" y="169.314075"/>
     <use style="fill:#ffd700;stroke:#000000;stroke-linejoin:bevel;stroke-width:0.5;" x="309.637872807" xlink:href="#m3849059054" y="169.774875"/>
     <use style="fill:#ffd700;stroke:#000000;stroke-linejoin:bevel;stroke-width:0.5;" x="305.286995614" xlink:href="#m3849059054" y="170.965275"/>
     <use style="fill:#ffd700;stroke:#000000;stroke-linejoin:bevel;stroke-width:0.5;" x="299.848399123" xlink:href="#m3849059054" y="172.174875"/>
     <use style="fill:#ffd700;stroke:#000000;stroke-linejoin:bevel;stroke-width:0.5;" x="298.760679825" xlink:href="#m3849059054" y="172.750875"/>
     <use style="fill:#ffd700;stroke:#000000;stroke-linejoin:bevel;stroke-width:0.5;" x="296.585241228" xlink:href="#m3849059054" y="173.192475"/>
     <use style="fill:#ffd700;stroke:#000000;stroke-linejoin:bevel;stroke-width:0.5;" x="295.49752193" xlink:href="#m3849059054" y="173.749275"/>
     <use style="fill:#ffd700;stroke:#000000;stroke-linejoin:bevel;stroke-width:0.5;" x="294.409802631" xlink:href="#m3849059054" y="174.056475"/>
     <use style="fill:#ffd700;stroke:#000000;stroke-linejoin:bevel;stroke-width:0.5;" x="292.234364035" xlink:href="#m3849059054" y="174.709275"/>
     <use style="fill:#ffd700;stroke:#000000;stroke-linejoin:bevel;stroke-width:0.5;" x="290.058925439" xlink:href="#m3849059054" y="175.323675"/>
     <use style="fill:#ffd700;stroke:#000000;stroke-linejoin:bevel;stroke-width:0.5;" x="288.97120614" xlink:href="#m3849059054" y="175.554075"/>
     <use style="fill:#ffd700;stroke:#000000;stroke-linejoin:bevel;stroke-width:0.5;" x="286.795767544" xlink:href="#m3849059054" y="176.110875"/>
     <use style="fill:#ffd700;stroke:#000000;stroke-linejoin:bevel;stroke-width:0.5;" x="285.708048246" xlink:href="#m3849059054" y="176.341275"/>
     <use style="fill:#ffd700;stroke:#000000;stroke-linejoin:bevel;stroke-width:0.5;" x="284.620328947" xlink:href="#m3849059054" y="176.590875"/>
     <use style="fill:#ffd700;stroke:#000000;stroke-linejoin:bevel;stroke-width:0.5;" x="283.532609649" xlink:href="#m3849059054" y="176.744475"/>
     <use style="fill:#ffd700;stroke:#000000;stroke-linejoin:bevel;stroke-width:0.5;" x="282.444890351" xlink:href="#m3849059054" y="177.032475"/>
     <use style="fill:#ffd700;stroke:#000000;stroke-linejoin:bevel;stroke-width:0.5;" x="281.357171053" xlink:href="#m3849059054" y="177.205275"/>
     <use style="fill:#ffd700;stroke:#000000;stroke-linejoin:bevel;stroke-width:0.5;" x="279.181732456" xlink:href="#m3849059054" y="178.030875"/>
     <use style="fill:#ffd700;stroke:#000000;stroke-linejoin:bevel;stroke-width:0.5;" x="278.094013158" xlink:href="#m3849059054" y="178.165275"/>
     <use style="fill:#ffd700;stroke:#000000;stroke-linejoin:bevel;stroke-width:0.5;" x="275.918574561" xlink:href="#m3849059054" y="178.606875"/>
     <use style="fill:#ffd700;stroke:#000000;stroke-linejoin:bevel;stroke-width:0.5;" x="271.567697368" xlink:href="#m3849059054" y="179.682075"/>
     <use style="fill:#ffd700;stroke:#000000;stroke-linejoin:bevel;stroke-width:0.5;" x="269.392258772" xlink:href="#m3849059054" y="180.123675"/>
     <use style="fill:#ffd700;stroke:#000000;stroke-linejoin:bevel;stroke-width:0.5;" x="267.216820175" xlink:href="#m3849059054" y="180.392475"/>
     <use style="fill:#ffd700;stroke:#000000;stroke-linejoin:bevel;stroke-width:0.5;" x="262.865942982" xlink:href="#m3849059054" y="181.698075"/>
     <use style="fill:#ffd700;stroke:#000000;stroke-linejoin:bevel;stroke-width:0.5;" x="260.690504386" xlink:href="#m3849059054" y="182.005275"/>
     <use style="fill:#ffd700;stroke:#000000;stroke-linejoin:bevel;stroke-width:0.5;" x="259.602785088" xlink:href="#m3849059054" y="182.197275"/>
     <use style="fill:#ffd700;stroke:#000000;stroke-linejoin:bevel;stroke-width:0.5;" x="257.427346491" xlink:href="#m3849059054" y="182.792475"/>
     <use style="fill:#ffd700;stroke:#000000;stroke-linejoin:bevel;stroke-width:0.5;" x="244.374714912" xlink:href="#m3849059054" y="185.403675"/>
     <use style="fill:#ffd700;stroke:#000000;stroke-linejoin:bevel;stroke-width:0.5;" x="243.286995614" xlink:href="#m3849059054" y="185.672475"/>
     <use style="fill:#ffd700;stroke:#000000;stroke-linejoin:bevel;stroke-width:0.5;" x="242.199276316" xlink:href="#m3849059054" y="186.229275"/>
     <use style="fill:#ffd700;stroke:#000000;stroke-linejoin:bevel;stroke-width:0.5;" x="241.111557017" xlink:href="#m3849059054" y="186.498075"/>
     <use style="fill:#ffd700;stroke:#000000;stroke-linejoin:bevel;stroke-width:0.5;" x="240.023837719" xlink:href="#m3849059054" y="186.632475"/>
     <use style="fill:#ffd700;stroke:#000000;stroke-linejoin:bevel;stroke-width:0.5;" x="238.936118421" xlink:href="#m3849059054" y="187.054875"/>
     <use style="fill:#ffd700;stroke:#000000;stroke-linejoin:bevel;stroke-width:0.5;" x="237.848399123" xlink:href="#m3849059054" y="187.323675"/>
     <use style="fill:#ffd700;stroke:#000000;stroke-linejoin:bevel;stroke-width:0.5;" x="233.49752193" xlink:href="#m3849059054" y="188.418075"/>
     <use style="fill:#ffd700;stroke:#000000;stroke-linejoin:bevel;stroke-width:0.5;" x="231.322083333" xlink:href="#m3849059054" y="189.032475"/>
     <use style="fill:#ffd700;stroke:#000000;stroke-linejoin:bevel;stroke-width:0.5;" x="229.146644737" xlink:href="#m3849059054" y="189.704475"/>
     <use style="fill:#ffd700;stroke:#000000;stroke-linejoin:bevel;stroke-width:0.5;" x="228.058925439" xlink:href="#m3849059054" y="190.222875"/>
     <use style="fill:#ffd700;stroke:#000000;stroke-linejoin:bevel;stroke-width:0.5;" x="226.97120614" xlink:href="#m3849059054" y="190.741275"/>
     <use style="fill:#ffd700;stroke:#000000;stroke-linejoin:bevel;stroke-width:0.5;" x="225.883486842" xlink:href="#m3849059054" y="191.029275"/>
     <use style="fill:#ffd700;stroke:#000000;stroke-linejoin:bevel;stroke-width:0.5;" x="224.795767544" xlink:href="#m3849059054" y="191.662875"/>
     <use style="fill:#ffd700;stroke:#000000;stroke-linejoin:bevel;stroke-width:0.5;" x="219.357171053" xlink:href="#m3849059054" y="192.872475"/>
     <use style="fill:#ffd700;stroke:#000000;stroke-linejoin:bevel;stroke-width:0.5;" x="213.918574561" xlink:href="#m3849059054" y="195.579675"/>
     <use style="fill:#ffd700;stroke:#000000;stroke-linejoin:bevel;stroke-width:0.5;" x="208.47997807" xlink:href="#m3849059054" y="197.058075"/>
     <use style="fill:#ffd700;stroke:#000000;stroke-linejoin:bevel;stroke-width:0.5;" x="205.216820175" xlink:href="#m3849059054" y="197.922075"/>
     <use style="fill:#ffd700;stroke:#000000;stroke-linejoin:bevel;stroke-width:0.5;" x="204.129100877" xlink:href="#m3849059054" y="198.075675"/>
     <use style="fill:#ffd700;stroke:#000000;stroke-linejoin:bevel;stroke-width:0.5;" x="201.953662281" xlink:href="#m3849059054" y="198.517275"/>
     <use style="fill:#ffd700;stroke:#000000;stroke-linejoin:bevel;stroke-width:0.5;" x="199.778223684" xlink:href="#m3849059054" y="198.862875"/>
     <use style="fill:#ffd700;stroke:#000000;stroke-linejoin:bevel;stroke-width:0.5;" x="198.690504386" xlink:href="#m3849059054" y="199.074075"/>
     <use style="fill:#ffd700;stroke:#000000;stroke-linejoin:bevel;stroke-width:0.5;" x="197.602785088" xlink:href="#m3849059054" y="199.554075"/>
     <use style="fill:#ffd700;stroke:#000000;stroke-linejoin:bevel;stroke-width:0.5;" x="193.251907895" xlink:href="#m3849059054" y="200.610075"/>
     <use style="fill:#ffd700;stroke:#000000;stroke-linejoin:bevel;stroke-width:0.5;" x="192.164188596" xlink:href="#m3849059054" y="200.706075"/>
     <use style="fill:#ffd700;stroke:#000000;stroke-linejoin:bevel;stroke-width:0.5;" x="191.076469298" xlink:href="#m3849059054" y="201.109275"/>
     <use style="fill:#ffd700;stroke:#000000;stroke-linejoin:bevel;stroke-width:0.5;" x="188.901030702" xlink:href="#m3849059054" y="201.550875"/>
     <use style="fill:#ffd700;stroke:#000000;stroke-linejoin:bevel;stroke-width:0.5;" x="187.813311404" xlink:href="#m3849059054" y="201.627675"/>
     <use style="fill:#ffd700;stroke:#000000;stroke-linejoin:bevel;stroke-width:0.5;" x="186.725592105" xlink:href="#m3849059054" y="201.685275"/>
     <use style="fill:#ffd700;stroke:#000000;stroke-linejoin:bevel;stroke-width:0.5;" x="185.637872807" xlink:href="#m3849059054" y="201.800475"/>
     <use style="fill:#ffd700;stroke:#000000;stroke-linejoin:bevel;stroke-width:0.5;" x="184.550153509" xlink:href="#m3849059054" y="202.030875"/>
     <use style="fill:#ffd700;stroke:#000000;stroke-linejoin:bevel;stroke-width:0.5;" x="183.46243421" xlink:href="#m3849059054" y="202.299675"/>
     <use style="fill:#ffd700;stroke:#000000;stroke-linejoin:bevel;stroke-width:0.5;" x="182.374714912" xlink:href="#m3849059054" y="202.453275"/>
     <use style="fill:#ffd700;stroke:#000000;stroke-linejoin:bevel;stroke-width:0.5;" x="180.199276316" xlink:href="#m3849059054" y="202.856475"/>
     <use style="fill:#ffd700;stroke:#000000;stroke-linejoin:bevel;stroke-width:0.5;" x="179.111557017" xlink:href="#m3849059054" y="202.875675"/>
     <use style="fill:#ffd700;stroke:#000000;stroke-linejoin:bevel;stroke-width:0.5;" x="178.023837719" xlink:href="#m3849059054" y="203.182875"/>
     <use style="fill:#ffd700;stroke:#000000;stroke-linejoin:bevel;stroke-width:0.5;" x="176.936118421" xlink:href="#m3849059054" y="203.758875"/>
     <use style="fill:#ffd700;stroke:#000000;stroke-linejoin:bevel;stroke-width:0.5;" x="175.848399123" xlink:href="#m3849059054" y="203.835675"/>
     <use style="fill:#ffd700;stroke:#000000;stroke-linejoin:bevel;stroke-width:0.5;" x="174.760679825" xlink:href="#m3849059054" y="204.104475"/>
     <use style="fill:#ffd700;stroke:#000000;stroke-linejoin:bevel;stroke-width:0.5;" x="170.409802631" xlink:href="#m3849059054" y="205.602075"/>
     <use style="fill:#ffd700;stroke:#000000;stroke-linejoin:bevel;stroke-width:0.5;" x="162.795767544" xlink:href="#m3849059054" y="207.406875"/>
     <use style="fill:#ffd700;stroke:#000000;stroke-linejoin:bevel;stroke-width:0.5;" x="159.532609649" xlink:href="#m3849059054" y="208.366875"/>
     <use style="fill:#ffd700;stroke:#000000;stroke-linejoin:bevel;stroke-width:0.5;" x="157.357171053" xlink:href="#m3849059054" y="209.864475"/>
     <use style="fill:#ffd700;stroke:#000000;stroke-linejoin:bevel;stroke-width:0.5;" x="153.00629386" xlink:href="#m3849059054" y="210.670875"/>
     <use style="fill:#ffd700;stroke:#000000;stroke-linejoin:bevel;stroke-width:0.5;" x="149.743135965" xlink:href="#m3849059054" y="211.688475"/>
     <use style="fill:#ffd700;stroke:#000000;stroke-linejoin:bevel;stroke-width:0.5;" x="147.567697368" xlink:href="#m3849059054" y="212.206875"/>
     <use style="fill:#ffd700;stroke:#000000;stroke-linejoin:bevel;stroke-width:0.5;" x="144.304539474" xlink:href="#m3849059054" y="212.437275"/>
     <use style="fill:#ffd700;stroke:#000000;stroke-linejoin:bevel;stroke-width:0.5;" x="143.216820175" xlink:href="#m3849059054" y="212.840475"/>
     <use style="fill:#ffd700;stroke:#000000;stroke-linejoin:bevel;stroke-width:0.5;" x="142.129100877" xlink:href="#m3849059054" y="213.224475"/>
     <use style="fill:#ffd700;stroke:#000000;stroke-linejoin:bevel;stroke-width:0.5;" x="139.953662281" xlink:href="#m3849059054" y="213.781275"/>
     <use style="fill:#ffd700;stroke:#000000;stroke-linejoin:bevel;stroke-width:0.5;" x="138.865942982" xlink:href="#m3849059054" y="214.414875"/>
     <use style="fill:#ffd700;stroke:#000000;stroke-linejoin:bevel;stroke-width:0.5;" x="135.602785088" xlink:href="#m3849059054" y="215.278875"/>
     <use style="fill:#ffd700;stroke:#000000;stroke-linejoin:bevel;stroke-width:0.5;" x="134.515065789" xlink:href="#m3849059054" y="215.182875"/>
     <use style="fill:#ffd700;stroke:#000000;stroke-linejoin:bevel;stroke-width:0.5;" x="133.427346491" xlink:href="#m3849059054" y="215.374875"/>
     <use style="fill:#ffd700;stroke:#000000;stroke-linejoin:bevel;stroke-width:0.5;" x="132.339627193" xlink:href="#m3849059054" y="215.989275"/>
     <use style="fill:#ffd700;stroke:#000000;stroke-linejoin:bevel;stroke-width:0.5;" x="131.251907895" xlink:href="#m3849059054" y="216.296475"/>
     <use style="fill:#ffd700;stroke:#000000;stroke-linejoin:bevel;stroke-width:0.5;" x="130.164188596" xlink:href="#m3849059054" y="216.642075"/>
     <use style="fill:#ffd700;stroke:#000000;stroke-linejoin:bevel;stroke-width:0.5;" x="129.076469298" xlink:href="#m3849059054" y="216.968475"/>
     <use style="fill:#ffd700;stroke:#000000;stroke-linejoin:bevel;stroke-width:0.5;" x="126.901030702" xlink:href="#m3849059054" y="217.755675"/>
     <use style="fill:#ffd700;stroke:#000000;stroke-linejoin:bevel;stroke-width:0.5;" x="121.46243421" xlink:href="#m3849059054" y="219.790875"/>
     <use style="fill:#ffd700;stroke:#000000;stroke-linejoin:bevel;stroke-width:0.5;" x="120.374714912" xlink:href="#m3849059054" y="220.059675"/>
     <use style="fill:#ffd700;stroke:#000000;stroke-linejoin:bevel;stroke-width:0.5;" x="116.023837719" xlink:href="#m3849059054" y="222.133275"/>
     <use style="fill:#ffd700;stroke:#000000;stroke-linejoin:bevel;stroke-width:0.5;" x="114.936118421" xlink:href="#m3849059054" y="222.459675"/>
     <use style="fill:#ffd700;stroke:#000000;stroke-linejoin:bevel;stroke-width:0.5;" x="113.848399123" xlink:href="#m3849059054" y="223.016475"/>
     <use style="fill:#ffd700;stroke:#000000;stroke-linejoin:bevel;stroke-width:0.5;" x="112.760679825" xlink:href="#m3849059054" y="223.246875"/>
     <use style="fill:#ffd700;stroke:#000000;stroke-linejoin:bevel;stroke-width:0.5;" x="111.672960526" xlink:href="#m3849059054" y="224.072475"/>
     <use style="fill:#ffd700;stroke:#000000;stroke-linejoin:bevel;stroke-width:0.5;" x="110.585241228" xlink:href="#m3849059054" y="225.896475"/>
     <use style="fill:#ffd700;stroke:#000000;stroke-linejoin:bevel;stroke-width:0.5;" x="109.49752193" xlink:href="#m3849059054" y="225.954075"/>
     <use style="fill:#ffd700;stroke:#000000;stroke-linejoin:bevel;stroke-width:0.5;" x="104.058925439" xlink:href="#m3849059054" y="227.835675"/>
     <use style="fill:#ffd700;stroke:#000000;stroke-linejoin:bevel;stroke-width:0.5;" x="100.795767544" xlink:href="#m3849059054" y="229.448475"/>
     <use style="fill:#ffd700;stroke:#000000;stroke-linejoin:bevel;stroke-width:0.5;" x="99.7080482455" xlink:href="#m3849059054" y="229.621275"/>
     <use style="fill:#ffd700;stroke:#000000;stroke-linejoin:bevel;stroke-width:0.5;" x="98.6203289473" xlink:href="#m3849059054" y="230.504475"/>
     <use style="fill:#ffd700;stroke:#000000;stroke-linejoin:bevel;stroke-width:0.5;" x="97.5326096491" xlink:href="#m3849059054" y="231.560475"/>
     <use style="fill:#ffd700;stroke:#000000;stroke-linejoin:bevel;stroke-width:0.5;" x="96.4448903508" xlink:href="#m3849059054" y="231.790875"/>
     <use style="fill:#ffd700;stroke:#000000;stroke-linejoin:bevel;stroke-width:0.5;" x="95.3571710526" xlink:href="#m3849059054" y="231.848475"/>
     <use style="fill:#ffd700;stroke:#000000;stroke-linejoin:bevel;stroke-width:0.5;" x="94.2694517543" xlink:href="#m3849059054" y="231.944475"/>
     <use style="fill:#ffd700;stroke:#000000;stroke-linejoin:bevel;stroke-width:0.5;" x="93.1817324561" xlink:href="#m3849059054" y="232.078875"/>
     <use style="fill:#ffd700;stroke:#000000;stroke-linejoin:bevel;stroke-width:0.5;" x="92.0940131579" xlink:href="#m3849059054" y="232.309275"/>
     <use style="fill:#ffd700;stroke:#000000;stroke-linejoin:bevel;stroke-width:0.5;" x="91.0062938596" xlink:href="#m3849059054" y="231.598875"/>
     <use style="fill:#ffd700;stroke:#000000;stroke-linejoin:bevel;stroke-width:0.5;" x="89.9185745614" xlink:href="#m3849059054" y="231.733275"/>
     <use style="fill:#ffd700;stroke:#000000;stroke-linejoin:bevel;stroke-width:0.5;" x="88.830855263" xlink:href="#m3849059054" y="231.829275"/>
     <use style="fill:#ffd700;stroke:#000000;stroke-linejoin:bevel;stroke-width:0.5;" x="87.7431359648" xlink:href="#m3849059054" y="232.002075"/>
     <use style="fill:#ffd700;stroke:#000000;stroke-linejoin:bevel;stroke-width:0.5;" x="86.6554166666" xlink:href="#m3849059054" y="232.386075"/>
     <use style="fill:#ffd700;stroke:#000000;stroke-linejoin:bevel;stroke-width:0.5;" x="85.5676973683" xlink:href="#m3849059054" y="232.597275"/>
     <use style="fill:#ffd700;stroke:#000000;stroke-linejoin:bevel;stroke-width:0.5;" x="84.4799780701" xlink:href="#m3849059054" y="233.192475"/>
     <use style="fill:#ffd700;stroke:#000000;stroke-linejoin:bevel;stroke-width:0.5;" x="83.3922587719" xlink:href="#m3849059054" y="233.787675"/>
     <use style="fill:#ffd700;stroke:#000000;stroke-linejoin:bevel;stroke-width:0.5;" x="82.3045394736" xlink:href="#m3849059054" y="233.998875"/>
     <use style="fill:#ffd700;stroke:#000000;stroke-linejoin:bevel;stroke-width:0.5;" x="81.2168201754" xlink:href="#m3849059054" y="234.306075"/>
     <use style="fill:#ffd700;stroke:#000000;stroke-linejoin:bevel;stroke-width:0.5;" x="80.1291008771" xlink:href="#m3849059054" y="234.498075"/>
     <use style="fill:#ffd700;stroke:#000000;stroke-linejoin:bevel;stroke-width:0.5;" x="79.0413815789" xlink:href="#m3849059054" y="234.690075"/>
     <use style="fill:#ffd700;stroke:#000000;stroke-linejoin:bevel;stroke-width:0.5;" x="77.9536622807" xlink:href="#m3849059054" y="234.939675"/>
     <use style="fill:#ffd700;stroke:#000000;stroke-linejoin:bevel;stroke-width:0.5;" x="76.8659429824" xlink:href="#m3849059054" y="234.920475"/>
     <use style="fill:#ffd700;stroke:#000000;stroke-linejoin:bevel;stroke-width:0.5;" x="75.7782236842" xlink:href="#m3849059054" y="235.170075"/>
     <use style="fill:#ffd700;stroke:#000000;stroke-linejoin:bevel;stroke-width:0.5;" x="74.6905043859" xlink:href="#m3849059054" y="235.496475"/>
     <use style="fill:#ffd700;stroke:#000000;stroke-linejoin:bevel;stroke-width:0.5;" x="73.6027850877" xlink:href="#m3849059054" y="235.688475"/>
     <use style="fill:#ffd700;stroke:#000000;stroke-linejoin:bevel;stroke-width:0.5;" x="72.5150657895" xlink:href="#m3849059054" y="235.880475"/>
     <use style="fill:#ffd700;stroke:#000000;stroke-linejoin:bevel;stroke-width:0.5;" x="71.4273464911" xlink:href="#m3849059054" y="236.014875"/>
     <use style="fill:#ffd700;stroke:#000000;stroke-linejoin:bevel;stroke-width:0.5;" x="70.3396271929" xlink:href="#m3849059054" y="236.187675"/>
     <use style="fill:#ffd700;stroke:#000000;stroke-linejoin:bevel;stroke-width:0.5;" x="69.2519078947" xlink:href="#m3849059054" y="236.475675"/>
     <use style="fill:#ffd700;stroke:#000000;stroke-linejoin:bevel;stroke-width:0.5;" x="65.9887499999" xlink:href="#m3849059054" y="236.878875"/>
    </g>
   </g>
   <g id="patch_3">
    <path d="M 65.98875 13.006875 
L 623.98875 13.006875 
" style="fill:none;stroke:#000000;stroke-linecap:square;stroke-linejoin:miter;"/>
   </g>
   <g id="patch_4">
    <path d="M 623.98875 243.406875 
L 623.98875 13.006875 
" style="fill:none;stroke:#000000;stroke-linecap:square;stroke-linejoin:miter;"/>
   </g>
   <g id="patch_5">
    <path d="M 65.98875 243.406875 
L 623.98875 243.406875 
" style="fill:none;stroke:#000000;stroke-linecap:square;stroke-linejoin:miter;"/>
   </g>
   <g id="patch_6">
    <path d="M 65.98875 243.406875 
L 65.98875 13.006875 
" style="fill:none;stroke:#000000;stroke-linecap:square;stroke-linejoin:miter;"/>
   </g>
   <g id="matplotlib.axis_1">
    <g id="xtick_1">
     <g id="line2d_2">
      <defs>
       <path d="M 0 0 
L 0 -4 
" id="m7862ed1cf5" style="stroke:#000000;stroke-width:0.5;"/>
      </defs>
      <g>
       <use style="stroke:#000000;stroke-width:0.5;" x="95.3571710526" xlink:href="#m7862ed1cf5" y="243.406875"/>
      </g>
     </g>
     <g id="line2d_3">
      <defs>
       <path d="M 0 0 
L 0 4 
" id="maa4a18c650" style="stroke:#000000;stroke-width:0.5;"/>
      </defs>
      <g>
       <use style="stroke:#000000;stroke-width:0.5;" x="95.3571710526" xlink:href="#maa4a18c650" y="13.006875"/>
      </g>
     </g>
     <g id="text_1">
      <!-- Nov 2014 -->
      <defs>
       <path d="M 19.1875 8.296875 
L 53.609375 8.296875 
L 53.609375 0 
L 7.328125 0 
L 7.328125 8.296875 
Q 12.9375 14.109375 22.625 23.890625 
Q 32.328125 33.6875 34.8125 36.53125 
Q 39.546875 41.84375 41.421875 45.53125 
Q 43.3125 49.21875 43.3125 52.78125 
Q 43.3125 58.59375 39.234375 62.25 
Q 35.15625 65.921875 28.609375 65.921875 
Q 23.96875 65.921875 18.8125 64.3125 
Q 13.671875 62.703125 7.8125 59.421875 
L 7.8125 69.390625 
Q 13.765625 71.78125 18.9375 73 
Q 24.125 74.21875 28.421875 74.21875 
Q 39.75 74.21875 46.484375 68.546875 
Q 53.21875 62.890625 53.21875 53.421875 
Q 53.21875 48.921875 51.53125 44.890625 
Q 49.859375 40.875 45.40625 35.40625 
Q 44.1875 33.984375 37.640625 27.21875 
Q 31.109375 20.453125 19.1875 8.296875 
" id="BitstreamVeraSans-Roman-32"/>
       <path id="BitstreamVeraSans-Roman-20"/>
       <path d="M 9.8125 72.90625 
L 23.09375 72.90625 
L 55.421875 11.921875 
L 55.421875 72.90625 
L 64.984375 72.90625 
L 64.984375 0 
L 51.703125 0 
L 19.390625 60.984375 
L 19.390625 0 
L 9.8125 0 
z
" id="BitstreamVeraSans-Roman-4e"/>
       <path d="M 12.40625 8.296875 
L 28.515625 8.296875 
L 28.515625 63.921875 
L 10.984375 60.40625 
L 10.984375 69.390625 
L 28.421875 72.90625 
L 38.28125 72.90625 
L 38.28125 8.296875 
L 54.390625 8.296875 
L 54.390625 0 
L 12.40625 0 
z
" id="BitstreamVeraSans-Roman-31"/>
       <path d="M 37.796875 64.3125 
L 12.890625 25.390625 
L 37.796875 25.390625 
z
M 35.203125 72.90625 
L 47.609375 72.90625 
L 47.609375 25.390625 
L 58.015625 25.390625 
L 58.015625 17.1875 
L 47.609375 17.1875 
L 47.609375 0 
L 37.796875 0 
L 37.796875 17.1875 
L 4.890625 17.1875 
L 4.890625 26.703125 
z
" id="BitstreamVeraSans-Roman-34"/>
       <path d="M 30.609375 48.390625 
Q 23.390625 48.390625 19.1875 42.75 
Q 14.984375 37.109375 14.984375 27.296875 
Q 14.984375 17.484375 19.15625 11.84375 
Q 23.34375 6.203125 30.609375 6.203125 
Q 37.796875 6.203125 41.984375 11.859375 
Q 46.1875 17.53125 46.1875 27.296875 
Q 46.1875 37.015625 41.984375 42.703125 
Q 37.796875 48.390625 30.609375 48.390625 
M 30.609375 56 
Q 42.328125 56 49.015625 48.375 
Q 55.71875 40.765625 55.71875 27.296875 
Q 55.71875 13.875 49.015625 6.21875 
Q 42.328125 -1.421875 30.609375 -1.421875 
Q 18.84375 -1.421875 12.171875 6.21875 
Q 5.515625 13.875 5.515625 27.296875 
Q 5.515625 40.765625 12.171875 48.375 
Q 18.84375 56 30.609375 56 
" id="BitstreamVeraSans-Roman-6f"/>
       <path d="M 31.78125 66.40625 
Q 24.171875 66.40625 20.328125 58.90625 
Q 16.5 51.421875 16.5 36.375 
Q 16.5 21.390625 20.328125 13.890625 
Q 24.171875 6.390625 31.78125 6.390625 
Q 39.453125 6.390625 43.28125 13.890625 
Q 47.125 21.390625 47.125 36.375 
Q 47.125 51.421875 43.28125 58.90625 
Q 39.453125 66.40625 31.78125 66.40625 
M 31.78125 74.21875 
Q 44.046875 74.21875 50.515625 64.515625 
Q 56.984375 54.828125 56.984375 36.375 
Q 56.984375 17.96875 50.515625 8.265625 
Q 44.046875 -1.421875 31.78125 -1.421875 
Q 19.53125 -1.421875 13.0625 8.265625 
Q 6.59375 17.96875 6.59375 36.375 
Q 6.59375 54.828125 13.0625 64.515625 
Q 19.53125 74.21875 31.78125 74.21875 
" id="BitstreamVeraSans-Roman-30"/>
       <path d="M 2.984375 54.6875 
L 12.5 54.6875 
L 29.59375 8.796875 
L 46.6875 54.6875 
L 56.203125 54.6875 
L 35.6875 0 
L 23.484375 0 
z
" id="BitstreamVeraSans-Roman-76"/>
      </defs>
      <g transform="translate(98.6684210526 305.183125)rotate(-90.0)scale(0.12 -0.12)">
       <use xlink:href="#BitstreamVeraSans-Roman-4e"/>
       <use x="74.8046875" xlink:href="#BitstreamVeraSans-Roman-6f"/>
       <use x="135.986328125" xlink:href="#BitstreamVeraSans-Roman-76"/>
       <use x="195.166015625" xlink:href="#BitstreamVeraSans-Roman-20"/>
       <use x="226.953125" xlink:href="#BitstreamVeraSans-Roman-32"/>
       <use x="290.576171875" xlink:href="#BitstreamVeraSans-Roman-30"/>
       <use x="354.19921875" xlink:href="#BitstreamVeraSans-Roman-31"/>
       <use x="417.822265625" xlink:href="#BitstreamVeraSans-Roman-34"/>
      </g>
     </g>
    </g>
    <g id="xtick_2">
     <g id="line2d_4">
      <g>
       <use style="stroke:#000000;stroke-width:0.5;" x="161.708048246" xlink:href="#m7862ed1cf5" y="243.406875"/>
      </g>
     </g>
     <g id="line2d_5">
      <g>
       <use style="stroke:#000000;stroke-width:0.5;" x="161.708048246" xlink:href="#maa4a18c650" y="13.006875"/>
      </g>
     </g>
     <g id="text_2">
      <!-- Jan 2015 -->
      <defs>
       <path d="M 54.890625 33.015625 
L 54.890625 0 
L 45.90625 0 
L 45.90625 32.71875 
Q 45.90625 40.484375 42.875 44.328125 
Q 39.84375 48.1875 33.796875 48.1875 
Q 26.515625 48.1875 22.3125 43.546875 
Q 18.109375 38.921875 18.109375 30.90625 
L 18.109375 0 
L 9.078125 0 
L 9.078125 54.6875 
L 18.109375 54.6875 
L 18.109375 46.1875 
Q 21.34375 51.125 25.703125 53.5625 
Q 30.078125 56 35.796875 56 
Q 45.21875 56 50.046875 50.171875 
Q 54.890625 44.34375 54.890625 33.015625 
" id="BitstreamVeraSans-Roman-6e"/>
       <path d="M 34.28125 27.484375 
Q 23.390625 27.484375 19.1875 25 
Q 14.984375 22.515625 14.984375 16.5 
Q 14.984375 11.71875 18.140625 8.90625 
Q 21.296875 6.109375 26.703125 6.109375 
Q 34.1875 6.109375 38.703125 11.40625 
Q 43.21875 16.703125 43.21875 25.484375 
L 43.21875 27.484375 
z
M 52.203125 31.203125 
L 52.203125 0 
L 43.21875 0 
L 43.21875 8.296875 
Q 40.140625 3.328125 35.546875 0.953125 
Q 30.953125 -1.421875 24.3125 -1.421875 
Q 15.921875 -1.421875 10.953125 3.296875 
Q 6 8.015625 6 15.921875 
Q 6 25.140625 12.171875 29.828125 
Q 18.359375 34.515625 30.609375 34.515625 
L 43.21875 34.515625 
L 43.21875 35.40625 
Q 43.21875 41.609375 39.140625 45 
Q 35.0625 48.390625 27.6875 48.390625 
Q 23 48.390625 18.546875 47.265625 
Q 14.109375 46.140625 10.015625 43.890625 
L 10.015625 52.203125 
Q 14.9375 54.109375 19.578125 55.046875 
Q 24.21875 56 28.609375 56 
Q 40.484375 56 46.34375 49.84375 
Q 52.203125 43.703125 52.203125 31.203125 
" id="BitstreamVeraSans-Roman-61"/>
       <path d="M 9.8125 72.90625 
L 19.671875 72.90625 
L 19.671875 5.078125 
Q 19.671875 -8.109375 14.671875 -14.0625 
Q 9.671875 -20.015625 -1.421875 -20.015625 
L -5.171875 -20.015625 
L -5.171875 -11.71875 
L -2.09375 -11.71875 
Q 4.4375 -11.71875 7.125 -8.046875 
Q 9.8125 -4.390625 9.8125 5.078125 
z
" id="BitstreamVeraSans-Roman-4a"/>
       <path d="M 10.796875 72.90625 
L 49.515625 72.90625 
L 49.515625 64.59375 
L 19.828125 64.59375 
L 19.828125 46.734375 
Q 21.96875 47.46875 24.109375 47.828125 
Q 26.265625 48.1875 28.421875 48.1875 
Q 40.625 48.1875 47.75 41.5 
Q 54.890625 34.8125 54.890625 23.390625 
Q 54.890625 11.625 47.5625 5.09375 
Q 40.234375 -1.421875 26.90625 -1.421875 
Q 22.3125 -1.421875 17.546875 -0.640625 
Q 12.796875 0.140625 7.71875 1.703125 
L 7.71875 11.625 
Q 12.109375 9.234375 16.796875 8.0625 
Q 21.484375 6.890625 26.703125 6.890625 
Q 35.15625 6.890625 40.078125 11.328125 
Q 45.015625 15.765625 45.015625 23.390625 
Q 45.015625 31 40.078125 35.4375 
Q 35.15625 39.890625 26.703125 39.890625 
Q 22.75 39.890625 18.8125 39.015625 
Q 14.890625 38.140625 10.796875 36.28125 
z
" id="BitstreamVeraSans-Roman-35"/>
      </defs>
      <g transform="translate(165.019298246 300.259375)rotate(-90.0)scale(0.12 -0.12)">
       <use xlink:href="#BitstreamVeraSans-Roman-4a"/>
       <use x="29.4921875" xlink:href="#BitstreamVeraSans-Roman-61"/>
       <use x="90.771484375" xlink:href="#BitstreamVeraSans-Roman-6e"/>
       <use x="154.150390625" xlink:href="#BitstreamVeraSans-Roman-20"/>
       <use x="185.9375" xlink:href="#BitstreamVeraSans-Roman-32"/>
       <use x="249.560546875" xlink:href="#BitstreamVeraSans-Roman-30"/>
       <use x="313.18359375" xlink:href="#BitstreamVeraSans-Roman-31"/>
       <use x="376.806640625" xlink:href="#BitstreamVeraSans-Roman-35"/>
      </g>
     </g>
    </g>
    <g id="xtick_3">
     <g id="line2d_6">
      <g>
       <use style="stroke:#000000;stroke-width:0.5;" x="225.883486842" xlink:href="#m7862ed1cf5" y="243.406875"/>
      </g>
     </g>
     <g id="line2d_7">
      <g>
       <use style="stroke:#000000;stroke-width:0.5;" x="225.883486842" xlink:href="#maa4a18c650" y="13.006875"/>
      </g>
     </g>
     <g id="text_3">
      <!-- Mar 2015 -->
      <defs>
       <path d="M 9.8125 72.90625 
L 24.515625 72.90625 
L 43.109375 23.296875 
L 61.8125 72.90625 
L 76.515625 72.90625 
L 76.515625 0 
L 66.890625 0 
L 66.890625 64.015625 
L 48.09375 14.015625 
L 38.1875 14.015625 
L 19.390625 64.015625 
L 19.390625 0 
L 9.8125 0 
z
" id="BitstreamVeraSans-Roman-4d"/>
       <path d="M 41.109375 46.296875 
Q 39.59375 47.171875 37.8125 47.578125 
Q 36.03125 48 33.890625 48 
Q 26.265625 48 22.1875 43.046875 
Q 18.109375 38.09375 18.109375 28.8125 
L 18.109375 0 
L 9.078125 0 
L 9.078125 54.6875 
L 18.109375 54.6875 
L 18.109375 46.1875 
Q 20.953125 51.171875 25.484375 53.578125 
Q 30.03125 56 36.53125 56 
Q 37.453125 56 38.578125 55.875 
Q 39.703125 55.765625 41.0625 55.515625 
z
" id="BitstreamVeraSans-Roman-72"/>
      </defs>
      <g transform="translate(229.194736842 304.40125)rotate(-90.0)scale(0.12 -0.12)">
       <use xlink:href="#BitstreamVeraSans-Roman-4d"/>
       <use x="86.279296875" xlink:href="#BitstreamVeraSans-Roman-61"/>
       <use x="147.55859375" xlink:href="#BitstreamVeraSans-Roman-72"/>
       <use x="188.671875" xlink:href="#BitstreamVeraSans-Roman-20"/>
       <use x="220.458984375" xlink:href="#BitstreamVeraSans-Roman-32"/>
       <use x="284.08203125" xlink:href="#BitstreamVeraSans-Roman-30"/>
       <use x="347.705078125" xlink:href="#BitstreamVeraSans-Roman-31"/>
       <use x="411.328125" xlink:href="#BitstreamVeraSans-Roman-35"/>
      </g>
     </g>
    </g>
    <g id="xtick_4">
     <g id="line2d_8">
      <g>
       <use style="stroke:#000000;stroke-width:0.5;" x="292.234364035" xlink:href="#m7862ed1cf5" y="243.406875"/>
      </g>
     </g>
     <g id="line2d_9">
      <g>
       <use style="stroke:#000000;stroke-width:0.5;" x="292.234364035" xlink:href="#maa4a18c650" y="13.006875"/>
      </g>
     </g>
     <g id="text_4">
      <!-- May 2015 -->
      <defs>
       <path d="M 32.171875 -5.078125 
Q 28.375 -14.84375 24.75 -17.8125 
Q 21.140625 -20.796875 15.09375 -20.796875 
L 7.90625 -20.796875 
L 7.90625 -13.28125 
L 13.1875 -13.28125 
Q 16.890625 -13.28125 18.9375 -11.515625 
Q 21 -9.765625 23.484375 -3.21875 
L 25.09375 0.875 
L 2.984375 54.6875 
L 12.5 54.6875 
L 29.59375 11.921875 
L 46.6875 54.6875 
L 56.203125 54.6875 
z
" id="BitstreamVeraSans-Roman-79"/>
      </defs>
      <g transform="translate(295.545614035 306.570625)rotate(-90.0)scale(0.12 -0.12)">
       <use xlink:href="#BitstreamVeraSans-Roman-4d"/>
       <use x="86.279296875" xlink:href="#BitstreamVeraSans-Roman-61"/>
       <use x="147.55859375" xlink:href="#BitstreamVeraSans-Roman-79"/>
       <use x="206.73828125" xlink:href="#BitstreamVeraSans-Roman-20"/>
       <use x="238.525390625" xlink:href="#BitstreamVeraSans-Roman-32"/>
       <use x="302.1484375" xlink:href="#BitstreamVeraSans-Roman-30"/>
       <use x="365.771484375" xlink:href="#BitstreamVeraSans-Roman-31"/>
       <use x="429.39453125" xlink:href="#BitstreamVeraSans-Roman-35"/>
      </g>
     </g>
    </g>
    <g id="xtick_5">
     <g id="line2d_10">
      <g>
       <use style="stroke:#000000;stroke-width:0.5;" x="358.585241228" xlink:href="#m7862ed1cf5" y="243.406875"/>
      </g>
     </g>
     <g id="line2d_11">
      <g>
       <use style="stroke:#000000;stroke-width:0.5;" x="358.585241228" xlink:href="#maa4a18c650" y="13.006875"/>
      </g>
     </g>
     <g id="text_5">
      <!-- Jul 2015 -->
      <defs>
       <path d="M 8.5 21.578125 
L 8.5 54.6875 
L 17.484375 54.6875 
L 17.484375 21.921875 
Q 17.484375 14.15625 20.5 10.265625 
Q 23.53125 6.390625 29.59375 6.390625 
Q 36.859375 6.390625 41.078125 11.03125 
Q 45.3125 15.671875 45.3125 23.6875 
L 45.3125 54.6875 
L 54.296875 54.6875 
L 54.296875 0 
L 45.3125 0 
L 45.3125 8.40625 
Q 42.046875 3.421875 37.71875 1 
Q 33.40625 -1.421875 27.6875 -1.421875 
Q 18.265625 -1.421875 13.375 4.4375 
Q 8.5 10.296875 8.5 21.578125 
" id="BitstreamVeraSans-Roman-75"/>
       <path d="M 9.421875 75.984375 
L 18.40625 75.984375 
L 18.40625 0 
L 9.421875 0 
z
" id="BitstreamVeraSans-Roman-6c"/>
      </defs>
      <g transform="translate(361.896491228 296.239375)rotate(-90.0)scale(0.12 -0.12)">
       <use xlink:href="#BitstreamVeraSans-Roman-4a"/>
       <use x="29.4921875" xlink:href="#BitstreamVeraSans-Roman-75"/>
       <use x="92.87109375" xlink:href="#BitstreamVeraSans-Roman-6c"/>
       <use x="120.654296875" xlink:href="#BitstreamVeraSans-Roman-20"/>
       <use x="152.44140625" xlink:href="#BitstreamVeraSans-Roman-32"/>
       <use x="216.064453125" xlink:href="#BitstreamVeraSans-Roman-30"/>
       <use x="279.6875" xlink:href="#BitstreamVeraSans-Roman-31"/>
       <use x="343.310546875" xlink:href="#BitstreamVeraSans-Roman-35"/>
      </g>
     </g>
    </g>
    <g id="xtick_6">
     <g id="line2d_12">
      <g>
       <use style="stroke:#000000;stroke-width:0.5;" x="426.023837719" xlink:href="#m7862ed1cf5" y="243.406875"/>
      </g>
     </g>
     <g id="line2d_13">
      <g>
       <use style="stroke:#000000;stroke-width:0.5;" x="426.023837719" xlink:href="#maa4a18c650" y="13.006875"/>
      </g>
     </g>
     <g id="text_6">
      <!-- Sep 2015 -->
      <defs>
       <path d="M 56.203125 29.59375 
L 56.203125 25.203125 
L 14.890625 25.203125 
Q 15.484375 15.921875 20.484375 11.0625 
Q 25.484375 6.203125 34.421875 6.203125 
Q 39.59375 6.203125 44.453125 7.46875 
Q 49.3125 8.734375 54.109375 11.28125 
L 54.109375 2.78125 
Q 49.265625 0.734375 44.1875 -0.34375 
Q 39.109375 -1.421875 33.890625 -1.421875 
Q 20.796875 -1.421875 13.15625 6.1875 
Q 5.515625 13.8125 5.515625 26.8125 
Q 5.515625 40.234375 12.765625 48.109375 
Q 20.015625 56 32.328125 56 
Q 43.359375 56 49.78125 48.890625 
Q 56.203125 41.796875 56.203125 29.59375 
M 47.21875 32.234375 
Q 47.125 39.59375 43.09375 43.984375 
Q 39.0625 48.390625 32.421875 48.390625 
Q 24.90625 48.390625 20.390625 44.140625 
Q 15.875 39.890625 15.1875 32.171875 
z
" id="BitstreamVeraSans-Roman-65"/>
       <path d="M 53.515625 70.515625 
L 53.515625 60.890625 
Q 47.90625 63.578125 42.921875 64.890625 
Q 37.9375 66.21875 33.296875 66.21875 
Q 25.25 66.21875 20.875 63.09375 
Q 16.5 59.96875 16.5 54.203125 
Q 16.5 49.359375 19.40625 46.890625 
Q 22.3125 44.4375 30.421875 42.921875 
L 36.375 41.703125 
Q 47.40625 39.59375 52.65625 34.296875 
Q 57.90625 29 57.90625 20.125 
Q 57.90625 9.515625 50.796875 4.046875 
Q 43.703125 -1.421875 29.984375 -1.421875 
Q 24.8125 -1.421875 18.96875 -0.25 
Q 13.140625 0.921875 6.890625 3.21875 
L 6.890625 13.375 
Q 12.890625 10.015625 18.65625 8.296875 
Q 24.421875 6.59375 29.984375 6.59375 
Q 38.421875 6.59375 43.015625 9.90625 
Q 47.609375 13.234375 47.609375 19.390625 
Q 47.609375 24.75 44.3125 27.78125 
Q 41.015625 30.8125 33.5 32.328125 
L 27.484375 33.5 
Q 16.453125 35.6875 11.515625 40.375 
Q 6.59375 45.0625 6.59375 53.421875 
Q 6.59375 63.09375 13.40625 68.65625 
Q 20.21875 74.21875 32.171875 74.21875 
Q 37.3125 74.21875 42.625 73.28125 
Q 47.953125 72.359375 53.515625 70.515625 
" id="BitstreamVeraSans-Roman-53"/>
       <path d="M 18.109375 8.203125 
L 18.109375 -20.796875 
L 9.078125 -20.796875 
L 9.078125 54.6875 
L 18.109375 54.6875 
L 18.109375 46.390625 
Q 20.953125 51.265625 25.265625 53.625 
Q 29.59375 56 35.59375 56 
Q 45.5625 56 51.78125 48.09375 
Q 58.015625 40.1875 58.015625 27.296875 
Q 58.015625 14.40625 51.78125 6.484375 
Q 45.5625 -1.421875 35.59375 -1.421875 
Q 29.59375 -1.421875 25.265625 0.953125 
Q 20.953125 3.328125 18.109375 8.203125 
M 48.6875 27.296875 
Q 48.6875 37.203125 44.609375 42.84375 
Q 40.53125 48.484375 33.40625 48.484375 
Q 26.265625 48.484375 22.1875 42.84375 
Q 18.109375 37.203125 18.109375 27.296875 
Q 18.109375 17.390625 22.1875 11.75 
Q 26.265625 6.109375 33.40625 6.109375 
Q 40.53125 6.109375 44.609375 11.75 
Q 48.6875 17.390625 48.6875 27.296875 
" id="BitstreamVeraSans-Roman-70"/>
      </defs>
      <g transform="translate(429.335087719 304.380625)rotate(-90.0)scale(0.12 -0.12)">
       <use xlink:href="#BitstreamVeraSans-Roman-53"/>
       <use x="63.4765625" xlink:href="#BitstreamVeraSans-Roman-65"/>
       <use x="125.0" xlink:href="#BitstreamVeraSans-Roman-70"/>
       <use x="188.4765625" xlink:href="#BitstreamVeraSans-Roman-20"/>
       <use x="220.263671875" xlink:href="#BitstreamVeraSans-Roman-32"/>
       <use x="283.88671875" xlink:href="#BitstreamVeraSans-Roman-30"/>
       <use x="347.509765625" xlink:href="#BitstreamVeraSans-Roman-31"/>
       <use x="411.1328125" xlink:href="#BitstreamVeraSans-Roman-35"/>
      </g>
     </g>
    </g>
    <g id="xtick_7">
     <g id="line2d_14">
      <g>
       <use style="stroke:#000000;stroke-width:0.5;" x="492.374714912" xlink:href="#m7862ed1cf5" y="243.406875"/>
      </g>
     </g>
     <g id="line2d_15">
      <g>
       <use style="stroke:#000000;stroke-width:0.5;" x="492.374714912" xlink:href="#maa4a18c650" y="13.006875"/>
      </g>
     </g>
     <g id="text_7">
      <!-- Nov 2015 -->
      <g transform="translate(495.685964912 305.183125)rotate(-90.0)scale(0.12 -0.12)">
       <use xlink:href="#BitstreamVeraSans-Roman-4e"/>
       <use x="74.8046875" xlink:href="#BitstreamVeraSans-Roman-6f"/>
       <use x="135.986328125" xlink:href="#BitstreamVeraSans-Roman-76"/>
       <use x="195.166015625" xlink:href="#BitstreamVeraSans-Roman-20"/>
       <use x="226.953125" xlink:href="#BitstreamVeraSans-Roman-32"/>
       <use x="290.576171875" xlink:href="#BitstreamVeraSans-Roman-30"/>
       <use x="354.19921875" xlink:href="#BitstreamVeraSans-Roman-31"/>
       <use x="417.822265625" xlink:href="#BitstreamVeraSans-Roman-35"/>
      </g>
     </g>
    </g>
    <g id="xtick_8">
     <g id="line2d_16">
      <g>
       <use style="stroke:#000000;stroke-width:0.5;" x="558.725592105" xlink:href="#m7862ed1cf5" y="243.406875"/>
      </g>
     </g>
     <g id="line2d_17">
      <g>
       <use style="stroke:#000000;stroke-width:0.5;" x="558.725592105" xlink:href="#maa4a18c650" y="13.006875"/>
      </g>
     </g>
     <g id="text_8">
      <!-- Jan 2016 -->
      <defs>
       <path d="M 33.015625 40.375 
Q 26.375 40.375 22.484375 35.828125 
Q 18.609375 31.296875 18.609375 23.390625 
Q 18.609375 15.53125 22.484375 10.953125 
Q 26.375 6.390625 33.015625 6.390625 
Q 39.65625 6.390625 43.53125 10.953125 
Q 47.40625 15.53125 47.40625 23.390625 
Q 47.40625 31.296875 43.53125 35.828125 
Q 39.65625 40.375 33.015625 40.375 
M 52.59375 71.296875 
L 52.59375 62.3125 
Q 48.875 64.0625 45.09375 64.984375 
Q 41.3125 65.921875 37.59375 65.921875 
Q 27.828125 65.921875 22.671875 59.328125 
Q 17.53125 52.734375 16.796875 39.40625 
Q 19.671875 43.65625 24.015625 45.921875 
Q 28.375 48.1875 33.59375 48.1875 
Q 44.578125 48.1875 50.953125 41.515625 
Q 57.328125 34.859375 57.328125 23.390625 
Q 57.328125 12.15625 50.6875 5.359375 
Q 44.046875 -1.421875 33.015625 -1.421875 
Q 20.359375 -1.421875 13.671875 8.265625 
Q 6.984375 17.96875 6.984375 36.375 
Q 6.984375 53.65625 15.1875 63.9375 
Q 23.390625 74.21875 37.203125 74.21875 
Q 40.921875 74.21875 44.703125 73.484375 
Q 48.484375 72.75 52.59375 71.296875 
" id="BitstreamVeraSans-Roman-36"/>
      </defs>
      <g transform="translate(562.036842105 300.259375)rotate(-90.0)scale(0.12 -0.12)">
       <use xlink:href="#BitstreamVeraSans-Roman-4a"/>
       <use x="29.4921875" xlink:href="#BitstreamVeraSans-Roman-61"/>
       <use x="90.771484375" xlink:href="#BitstreamVeraSans-Roman-6e"/>
       <use x="154.150390625" xlink:href="#BitstreamVeraSans-Roman-20"/>
       <use x="185.9375" xlink:href="#BitstreamVeraSans-Roman-32"/>
       <use x="249.560546875" xlink:href="#BitstreamVeraSans-Roman-30"/>
       <use x="313.18359375" xlink:href="#BitstreamVeraSans-Roman-31"/>
       <use x="376.806640625" xlink:href="#BitstreamVeraSans-Roman-36"/>
      </g>
     </g>
    </g>
    <g id="xtick_9">
     <g id="line2d_18">
      <g>
       <use style="stroke:#000000;stroke-width:0.5;" x="623.98875" xlink:href="#m7862ed1cf5" y="243.406875"/>
      </g>
     </g>
     <g id="line2d_19">
      <g>
       <use style="stroke:#000000;stroke-width:0.5;" x="623.98875" xlink:href="#maa4a18c650" y="13.006875"/>
      </g>
     </g>
     <g id="text_9">
      <!-- Mar 2016 -->
      <g transform="translate(627.3 304.40125)rotate(-90.0)scale(0.12 -0.12)">
       <use xlink:href="#BitstreamVeraSans-Roman-4d"/>
       <use x="86.279296875" xlink:href="#BitstreamVeraSans-Roman-61"/>
       <use x="147.55859375" xlink:href="#BitstreamVeraSans-Roman-72"/>
       <use x="188.671875" xlink:href="#BitstreamVeraSans-Roman-20"/>
       <use x="220.458984375" xlink:href="#BitstreamVeraSans-Roman-32"/>
       <use x="284.08203125" xlink:href="#BitstreamVeraSans-Roman-30"/>
       <use x="347.705078125" xlink:href="#BitstreamVeraSans-Roman-31"/>
       <use x="411.328125" xlink:href="#BitstreamVeraSans-Roman-36"/>
      </g>
     </g>
    </g>
   </g>
   <g id="matplotlib.axis_2">
    <g id="ytick_1">
     <g id="line2d_20">
      <defs>
       <path d="M 0 0 
L 4 0 
" id="mf223481690" style="stroke:#000000;stroke-width:0.5;"/>
      </defs>
      <g>
       <use style="stroke:#000000;stroke-width:0.5;" x="65.98875" xlink:href="#mf223481690" y="243.406875"/>
      </g>
     </g>
     <g id="line2d_21">
      <defs>
       <path d="M 0 0 
L -4 0 
" id="m9491d22d2d" style="stroke:#000000;stroke-width:0.5;"/>
      </defs>
      <g>
       <use style="stroke:#000000;stroke-width:0.5;" x="623.98875" xlink:href="#m9491d22d2d" y="243.406875"/>
      </g>
     </g>
     <g id="text_10">
      <!-- 4000 -->
      <g transform="translate(31.44875 246.718125)scale(0.12 -0.12)">
       <use xlink:href="#BitstreamVeraSans-Roman-34"/>
       <use x="63.623046875" xlink:href="#BitstreamVeraSans-Roman-30"/>
       <use x="127.24609375" xlink:href="#BitstreamVeraSans-Roman-30"/>
       <use x="190.869140625" xlink:href="#BitstreamVeraSans-Roman-30"/>
      </g>
     </g>
    </g>
    <g id="ytick_2">
     <g id="line2d_22">
      <g>
       <use style="stroke:#000000;stroke-width:0.5;" x="65.98875" xlink:href="#mf223481690" y="205.006875"/>
      </g>
     </g>
     <g id="line2d_23">
      <g>
       <use style="stroke:#000000;stroke-width:0.5;" x="623.98875" xlink:href="#m9491d22d2d" y="205.006875"/>
      </g>
     </g>
     <g id="text_11">
      <!-- 6000 -->
      <g transform="translate(31.44875 208.318125)scale(0.12 -0.12)">
       <use xlink:href="#BitstreamVeraSans-Roman-36"/>
       <use x="63.623046875" xlink:href="#BitstreamVeraSans-Roman-30"/>
       <use x="127.24609375" xlink:href="#BitstreamVeraSans-Roman-30"/>
       <use x="190.869140625" xlink:href="#BitstreamVeraSans-Roman-30"/>
      </g>
     </g>
    </g>
    <g id="ytick_3">
     <g id="line2d_24">
      <g>
       <use style="stroke:#000000;stroke-width:0.5;" x="65.98875" xlink:href="#mf223481690" y="166.606875"/>
      </g>
     </g>
     <g id="line2d_25">
      <g>
       <use style="stroke:#000000;stroke-width:0.5;" x="623.98875" xlink:href="#m9491d22d2d" y="166.606875"/>
      </g>
     </g>
     <g id="text_12">
      <!-- 8000 -->
      <defs>
       <path d="M 31.78125 34.625 
Q 24.75 34.625 20.71875 30.859375 
Q 16.703125 27.09375 16.703125 20.515625 
Q 16.703125 13.921875 20.71875 10.15625 
Q 24.75 6.390625 31.78125 6.390625 
Q 38.8125 6.390625 42.859375 10.171875 
Q 46.921875 13.96875 46.921875 20.515625 
Q 46.921875 27.09375 42.890625 30.859375 
Q 38.875 34.625 31.78125 34.625 
M 21.921875 38.8125 
Q 15.578125 40.375 12.03125 44.71875 
Q 8.5 49.078125 8.5 55.328125 
Q 8.5 64.0625 14.71875 69.140625 
Q 20.953125 74.21875 31.78125 74.21875 
Q 42.671875 74.21875 48.875 69.140625 
Q 55.078125 64.0625 55.078125 55.328125 
Q 55.078125 49.078125 51.53125 44.71875 
Q 48 40.375 41.703125 38.8125 
Q 48.828125 37.15625 52.796875 32.3125 
Q 56.78125 27.484375 56.78125 20.515625 
Q 56.78125 9.90625 50.3125 4.234375 
Q 43.84375 -1.421875 31.78125 -1.421875 
Q 19.734375 -1.421875 13.25 4.234375 
Q 6.78125 9.90625 6.78125 20.515625 
Q 6.78125 27.484375 10.78125 32.3125 
Q 14.796875 37.15625 21.921875 38.8125 
M 18.3125 54.390625 
Q 18.3125 48.734375 21.84375 45.5625 
Q 25.390625 42.390625 31.78125 42.390625 
Q 38.140625 42.390625 41.71875 45.5625 
Q 45.3125 48.734375 45.3125 54.390625 
Q 45.3125 60.0625 41.71875 63.234375 
Q 38.140625 66.40625 31.78125 66.40625 
Q 25.390625 66.40625 21.84375 63.234375 
Q 18.3125 60.0625 18.3125 54.390625 
" id="BitstreamVeraSans-Roman-38"/>
      </defs>
      <g transform="translate(31.44875 169.918125)scale(0.12 -0.12)">
       <use xlink:href="#BitstreamVeraSans-Roman-38"/>
       <use x="63.623046875" xlink:href="#BitstreamVeraSans-Roman-30"/>
       <use x="127.24609375" xlink:href="#BitstreamVeraSans-Roman-30"/>
       <use x="190.869140625" xlink:href="#BitstreamVeraSans-Roman-30"/>
      </g>
     </g>
    </g>
    <g id="ytick_4">
     <g id="line2d_26">
      <g>
       <use style="stroke:#000000;stroke-width:0.5;" x="65.98875" xlink:href="#mf223481690" y="128.206875"/>
      </g>
     </g>
     <g id="line2d_27">
      <g>
       <use style="stroke:#000000;stroke-width:0.5;" x="623.98875" xlink:href="#m9491d22d2d" y="128.206875"/>
      </g>
     </g>
     <g id="text_13">
      <!-- 10000 -->
      <g transform="translate(23.81375 131.518125)scale(0.12 -0.12)">
       <use xlink:href="#BitstreamVeraSans-Roman-31"/>
       <use x="63.623046875" xlink:href="#BitstreamVeraSans-Roman-30"/>
       <use x="127.24609375" xlink:href="#BitstreamVeraSans-Roman-30"/>
       <use x="190.869140625" xlink:href="#BitstreamVeraSans-Roman-30"/>
       <use x="254.4921875" xlink:href="#BitstreamVeraSans-Roman-30"/>
      </g>
     </g>
    </g>
    <g id="ytick_5">
     <g id="line2d_28">
      <g>
       <use style="stroke:#000000;stroke-width:0.5;" x="65.98875" xlink:href="#mf223481690" y="89.806875"/>
      </g>
     </g>
     <g id="line2d_29">
      <g>
       <use style="stroke:#000000;stroke-width:0.5;" x="623.98875" xlink:href="#m9491d22d2d" y="89.806875"/>
      </g>
     </g>
     <g id="text_14">
      <!-- 12000 -->
      <g transform="translate(23.81375 93.118125)scale(0.12 -0.12)">
       <use xlink:href="#BitstreamVeraSans-Roman-31"/>
       <use x="63.623046875" xlink:href="#BitstreamVeraSans-Roman-32"/>
       <use x="127.24609375" xlink:href="#BitstreamVeraSans-Roman-30"/>
       <use x="190.869140625" xlink:href="#BitstreamVeraSans-Roman-30"/>
       <use x="254.4921875" xlink:href="#BitstreamVeraSans-Roman-30"/>
      </g>
     </g>
    </g>
    <g id="ytick_6">
     <g id="line2d_30">
      <g>
       <use style="stroke:#000000;stroke-width:0.5;" x="65.98875" xlink:href="#mf223481690" y="51.406875"/>
      </g>
     </g>
     <g id="line2d_31">
      <g>
       <use style="stroke:#000000;stroke-width:0.5;" x="623.98875" xlink:href="#m9491d22d2d" y="51.406875"/>
      </g>
     </g>
     <g id="text_15">
      <!-- 14000 -->
      <g transform="translate(23.81375 54.718125)scale(0.12 -0.12)">
       <use xlink:href="#BitstreamVeraSans-Roman-31"/>
       <use x="63.623046875" xlink:href="#BitstreamVeraSans-Roman-34"/>
       <use x="127.24609375" xlink:href="#BitstreamVeraSans-Roman-30"/>
       <use x="190.869140625" xlink:href="#BitstreamVeraSans-Roman-30"/>
       <use x="254.4921875" xlink:href="#BitstreamVeraSans-Roman-30"/>
      </g>
     </g>
    </g>
    <g id="ytick_7">
     <g id="line2d_32">
      <g>
       <use style="stroke:#000000;stroke-width:0.5;" x="65.98875" xlink:href="#mf223481690" y="13.006875"/>
      </g>
     </g>
     <g id="line2d_33">
      <g>
       <use style="stroke:#000000;stroke-width:0.5;" x="623.98875" xlink:href="#m9491d22d2d" y="13.006875"/>
      </g>
     </g>
     <g id="text_16">
      <!-- 16000 -->
      <g transform="translate(23.81375 16.318125)scale(0.12 -0.12)">
       <use xlink:href="#BitstreamVeraSans-Roman-31"/>
       <use x="63.623046875" xlink:href="#BitstreamVeraSans-Roman-36"/>
       <use x="127.24609375" xlink:href="#BitstreamVeraSans-Roman-30"/>
       <use x="190.869140625" xlink:href="#BitstreamVeraSans-Roman-30"/>
       <use x="254.4921875" xlink:href="#BitstreamVeraSans-Roman-30"/>
      </g>
     </g>
    </g>
    <g id="text_17">
     <!-- Number of stars -->
     <defs>
      <path d="M 52 44.1875 
Q 55.375 50.25 60.0625 53.125 
Q 64.75 56 71.09375 56 
Q 79.640625 56 84.28125 50.015625 
Q 88.921875 44.046875 88.921875 33.015625 
L 88.921875 0 
L 79.890625 0 
L 79.890625 32.71875 
Q 79.890625 40.578125 77.09375 44.375 
Q 74.3125 48.1875 68.609375 48.1875 
Q 61.625 48.1875 57.5625 43.546875 
Q 53.515625 38.921875 53.515625 30.90625 
L 53.515625 0 
L 44.484375 0 
L 44.484375 32.71875 
Q 44.484375 40.625 41.703125 44.40625 
Q 38.921875 48.1875 33.109375 48.1875 
Q 26.21875 48.1875 22.15625 43.53125 
Q 18.109375 38.875 18.109375 30.90625 
L 18.109375 0 
L 9.078125 0 
L 9.078125 54.6875 
L 18.109375 54.6875 
L 18.109375 46.1875 
Q 21.1875 51.21875 25.484375 53.609375 
Q 29.78125 56 35.6875 56 
Q 41.65625 56 45.828125 52.96875 
Q 50 49.953125 52 44.1875 
" id="BitstreamVeraSans-Roman-6d"/>
      <path d="M 18.3125 70.21875 
L 18.3125 54.6875 
L 36.8125 54.6875 
L 36.8125 47.703125 
L 18.3125 47.703125 
L 18.3125 18.015625 
Q 18.3125 11.328125 20.140625 9.421875 
Q 21.96875 7.515625 27.59375 7.515625 
L 36.8125 7.515625 
L 36.8125 0 
L 27.59375 0 
Q 17.1875 0 13.234375 3.875 
Q 9.28125 7.765625 9.28125 18.015625 
L 9.28125 47.703125 
L 2.6875 47.703125 
L 2.6875 54.6875 
L 9.28125 54.6875 
L 9.28125 70.21875 
z
" id="BitstreamVeraSans-Roman-74"/>
      <path d="M 37.109375 75.984375 
L 37.109375 68.5 
L 28.515625 68.5 
Q 23.6875 68.5 21.796875 66.546875 
Q 19.921875 64.59375 19.921875 59.515625 
L 19.921875 54.6875 
L 34.71875 54.6875 
L 34.71875 47.703125 
L 19.921875 47.703125 
L 19.921875 0 
L 10.890625 0 
L 10.890625 47.703125 
L 2.296875 47.703125 
L 2.296875 54.6875 
L 10.890625 54.6875 
L 10.890625 58.5 
Q 10.890625 67.625 15.140625 71.796875 
Q 19.390625 75.984375 28.609375 75.984375 
z
" id="BitstreamVeraSans-Roman-66"/>
      <path d="M 44.28125 53.078125 
L 44.28125 44.578125 
Q 40.484375 46.53125 36.375 47.5 
Q 32.28125 48.484375 27.875 48.484375 
Q 21.1875 48.484375 17.84375 46.4375 
Q 14.5 44.390625 14.5 40.28125 
Q 14.5 37.15625 16.890625 35.375 
Q 19.28125 33.59375 26.515625 31.984375 
L 29.59375 31.296875 
Q 39.15625 29.25 43.1875 25.515625 
Q 47.21875 21.78125 47.21875 15.09375 
Q 47.21875 7.46875 41.1875 3.015625 
Q 35.15625 -1.421875 24.609375 -1.421875 
Q 20.21875 -1.421875 15.453125 -0.5625 
Q 10.6875 0.296875 5.421875 2 
L 5.421875 11.28125 
Q 10.40625 8.6875 15.234375 7.390625 
Q 20.0625 6.109375 24.8125 6.109375 
Q 31.15625 6.109375 34.5625 8.28125 
Q 37.984375 10.453125 37.984375 14.40625 
Q 37.984375 18.0625 35.515625 20.015625 
Q 33.0625 21.96875 24.703125 23.78125 
L 21.578125 24.515625 
Q 13.234375 26.265625 9.515625 29.90625 
Q 5.8125 33.546875 5.8125 39.890625 
Q 5.8125 47.609375 11.28125 51.796875 
Q 16.75 56 26.8125 56 
Q 31.78125 56 36.171875 55.265625 
Q 40.578125 54.546875 44.28125 53.078125 
" id="BitstreamVeraSans-Roman-73"/>
      <path d="M 48.6875 27.296875 
Q 48.6875 37.203125 44.609375 42.84375 
Q 40.53125 48.484375 33.40625 48.484375 
Q 26.265625 48.484375 22.1875 42.84375 
Q 18.109375 37.203125 18.109375 27.296875 
Q 18.109375 17.390625 22.1875 11.75 
Q 26.265625 6.109375 33.40625 6.109375 
Q 40.53125 6.109375 44.609375 11.75 
Q 48.6875 17.390625 48.6875 27.296875 
M 18.109375 46.390625 
Q 20.953125 51.265625 25.265625 53.625 
Q 29.59375 56 35.59375 56 
Q 45.5625 56 51.78125 48.09375 
Q 58.015625 40.1875 58.015625 27.296875 
Q 58.015625 14.40625 51.78125 6.484375 
Q 45.5625 -1.421875 35.59375 -1.421875 
Q 29.59375 -1.421875 25.265625 0.953125 
Q 20.953125 3.328125 18.109375 8.203125 
L 18.109375 0 
L 9.078125 0 
L 9.078125 75.984375 
L 18.109375 75.984375 
z
" id="BitstreamVeraSans-Roman-62"/>
     </defs>
     <g transform="translate(16.318125 176.6540625)rotate(-90.0)scale(0.12 -0.12)">
      <use xlink:href="#BitstreamVeraSans-Roman-4e"/>
      <use x="74.8046875" xlink:href="#BitstreamVeraSans-Roman-75"/>
      <use x="138.18359375" xlink:href="#BitstreamVeraSans-Roman-6d"/>
      <use x="235.595703125" xlink:href="#BitstreamVeraSans-Roman-62"/>
      <use x="299.072265625" xlink:href="#BitstreamVeraSans-Roman-65"/>
      <use x="360.595703125" xlink:href="#BitstreamVeraSans-Roman-72"/>
      <use x="401.708984375" xlink:href="#BitstreamVeraSans-Roman-20"/>
      <use x="433.49609375" xlink:href="#BitstreamVeraSans-Roman-6f"/>
      <use x="494.677734375" xlink:href="#BitstreamVeraSans-Roman-66"/>
      <use x="529.8828125" xlink:href="#BitstreamVeraSans-Roman-20"/>
      <use x="561.669921875" xlink:href="#BitstreamVeraSans-Roman-73"/>
      <use x="613.76953125" xlink:href="#BitstreamVeraSans-Roman-74"/>
      <use x="652.978515625" xlink:href="#BitstreamVeraSans-Roman-61"/>
      <use x="714.2578125" xlink:href="#BitstreamVeraSans-Roman-72"/>
      <use x="755.37109375" xlink:href="#BitstreamVeraSans-Roman-73"/>
     </g>
    </g>
   </g>
  </g>
 </g>
 <defs>
  <clipPath id="pe4a74fa7cf">
   <rect height="230.4" width="558.0" x="65.98875" y="13.006875"/>
  </clipPath>
 </defs>
</svg>
