<?xml version="1.0" encoding="UTF-8"?>
<svg xmlns="http://www.w3.org/2000/svg"
     xmlns:xlink="http://www.w3.org/1999/xlink"
     xmlns:gadfly="http://www.gadflyjl.org/ns"
     version="1.2"
     width="203.2mm" height="76.2mm" viewBox="0 0 203.2 76.2"
     stroke="none"
     fill="#000000"
     stroke-width="0.3"
     font-size="3.88"
>
<g class="plotroot xscalable yscalable" id="img-de7e6e51-1">
  <g font-size="3.88" font-family="'PT Sans','Helvetica Neue','Helvetica',sans-serif" fill="#564A55" stroke="#000000" stroke-opacity="0.000" id="img-de7e6e51-2">
    <text x="112.46" y="64.59" text-anchor="middle" dy="0.6em">Date</text>
  </g>
  <g class="guide xlabels" font-size="2.82" font-family="'PT Sans Caption','Helvetica Neue','Helvetica',sans-serif" fill="#6C606B" id="img-de7e6e51-3">
    <text x="39.36" y="57.91" text-anchor="middle" dy="0.6em">Nov</text>
    <text x="51.19" y="57.91" text-anchor="middle" dy="0.6em">Dec</text>
    <text x="63.4" y="57.91" text-anchor="middle" dy="0.6em">Jan 2015</text>
    <text x="75.62" y="57.91" text-anchor="middle" dy="0.6em">Feb</text>
    <text x="86.65" y="57.91" text-anchor="middle" dy="0.6em">Mar</text>
    <text x="98.87" y="57.91" text-anchor="middle" dy="0.6em">Apr</text>
    <text x="110.69" y="57.91" text-anchor="middle" dy="0.6em">May</text>
    <text x="122.91" y="57.91" text-anchor="middle" dy="0.6em">Jun</text>
    <text x="134.73" y="57.91" text-anchor="middle" dy="0.6em">Jul</text>
    <text x="146.94" y="57.91" text-anchor="middle" dy="0.6em">Aug</text>
    <text x="159.16" y="57.91" text-anchor="middle" dy="0.6em">Sep</text>
    <text x="170.98" y="57.91" text-anchor="middle" dy="0.6em">Oct</text>
    <text x="183.2" y="57.91" text-anchor="middle" dy="0.6em">Nov</text>
    <text x="195.02" y="57.91" text-anchor="middle" dy="0.6em">Dec</text>
  </g>
<g clip-path="url(#img-de7e6e51-4)">
  <g id="img-de7e6e51-5">
    <g pointer-events="visible" opacity="1" fill="#000000" fill-opacity="0.000" stroke="#000000" stroke-opacity="0.000" class="guide background" id="img-de7e6e51-6">
      <rect x="26.72" y="5" width="171.48" height="51.91"/>
    </g>
    <g class="guide ygridlines xfixed" stroke-dasharray="0.5,0.5" stroke-width="0.2" stroke="#D0D0E0" id="img-de7e6e51-7">
      <path fill="none" d="M26.72,54.91 L 198.2 54.91"/>
      <path fill="none" d="M26.72,38.94 L 198.2 38.94"/>
      <path fill="none" d="M26.72,22.97 L 198.2 22.97"/>
      <path fill="none" d="M26.72,7 L 198.2 7"/>
    </g>
    <g class="guide xgridlines yfixed" stroke-dasharray="0.5,0.5" stroke-width="0.2" stroke="#D0D0E0" id="img-de7e6e51-8">
      <path fill="none" d="M39.36,5 L 39.36 56.91"/>
      <path fill="none" d="M51.19,5 L 51.19 56.91"/>
      <path fill="none" d="M63.4,5 L 63.4 56.91"/>
      <path fill="none" d="M75.62,5 L 75.62 56.91"/>
      <path fill="none" d="M86.65,5 L 86.65 56.91"/>
      <path fill="none" d="M98.87,5 L 98.87 56.91"/>
      <path fill="none" d="M110.69,5 L 110.69 56.91"/>
      <path fill="none" d="M122.91,5 L 122.91 56.91"/>
      <path fill="none" d="M134.73,5 L 134.73 56.91"/>
      <path fill="none" d="M146.94,5 L 146.94 56.91"/>
      <path fill="none" d="M159.16,5 L 159.16 56.91"/>
      <path fill="none" d="M170.98,5 L 170.98 56.91"/>
      <path fill="none" d="M183.2,5 L 183.2 56.91"/>
      <path fill="none" d="M195.02,5 L 195.02 56.91"/>
    </g>
    <g class="plotpanel" id="img-de7e6e51-9">
      <g stroke-width="0.79" fill="#000000" fill-opacity="0.000" class="geometry color_1.0" stroke-dasharray="none" stroke="#FFD700" id="img-de7e6e51-10">
        <path fill="none" d="M28.73,41.05 L 29.91 40.98 30.3 40.94 30.7 40.91 31.09 40.89 31.48 40.85 31.88 40.82 32.27 40.77 32.67 40.73 33.06 40.73 33.45 40.69 33.85 40.66 34.24 40.62 34.64 40.57 35.03 40.54 35.42 40.44 35.82 40.34 36.21 40.3 36.61 40.24 37 40.21 37.39 40.2 37.79 40.17 38.18 40.29 38.58 40.25 38.97 40.23 39.36 40.21 39.76 40.21 40.15 40.17 40.55 39.99 40.94 39.84 41.33 39.82 42.52 39.55 44.49 39.23 44.88 39.22 45.28 38.92 45.67 38.78 46.06 38.75 46.46 38.65 46.85 38.6 48.43 38.25 48.82 38.21 50.79 37.87 51.58 37.74 51.97 37.68 52.37 37.63 52.76 37.58 53.16 37.47 53.55 37.44 53.94 37.46 55.13 37.31 55.52 37.21 56.31 37.12 56.7 37.05 57.1 36.99 58.28 36.95 59.07 36.86 60.25 36.69 61.83 36.56 62.61 36.31 63.8 36.15 66.55 35.85 68.13 35.6 68.52 35.55 68.92 35.54 69.31 35.45 69.71 35.39 70.1 35.39 70.89 35.32 71.28 35.3 71.68 35.25 72.07 35.22 72.47 35.2 72.86 35.19 73.25 35.17 74.04 35.1 74.44 35.03 74.83 35.02 76.41 34.84 76.8 34.76 77.19 34.73 77.98 34.67 78.77 34.6 79.16 34.57 80.35 34.43 82.32 34.18 84.29 33.73 86.26 33.53 86.65 33.42 87.05 33.38 87.44 33.29 87.83 33.2 88.62 33.09 89.41 32.99 90.99 32.81 91.38 32.76 91.77 32.69 92.17 32.67 92.56 32.62 92.96 32.53 93.35 32.49 98.08 32.05 98.87 31.95 99.26 31.92 100.05 31.87 101.63 31.65 102.41 31.61 103.2 31.54 104.78 31.36 105.57 31.28 105.96 31.26 106.75 31.12 107.14 31.09 107.54 31.05 107.93 31.02 108.32 30.98 108.72 30.94 109.51 30.85 109.9 30.81 110.69 30.71 111.48 30.6 111.87 30.55 112.27 30.46 113.05 30.38 113.45 30.29 115.42 30.09 116.99 29.89 117.39 29.81 120.54 29.53 120.93 29.5 121.33 29.48 122.51 29.33 122.91 29.26 123.3 29.2 124.09 29.12 124.88 29.02 125.66 28.84 129.21 27.92 130.79 27.7 131.18 27.66 131.57 27.78 131.97 27.8 132.36 27.74 132.76 27.71 133.15 27.66 134.33 27.56 135.12 27.51 135.91 27.44 136.3 27.41 136.7 27.32 137.09 27.2 137.49 27.14 137.88 27.1 144.58 26.11 147.73 25.82 151.28 25.3 157.98 23.8 159.16 23.89 161.13 23.59 163.1 23.24 169.4 21.6 170.98 21.27 172.95 20.72 174.53 20.45 176.1 20.07 177.29 19.86 182.01 18.69 186.74 17.77 188.32 17.48 189.11 17.27 192.65 16.59 193.05 16.55 195.81 16.12 196.2 16.06"/>
      </g>
    </g>
  </g>
</g>
  <g class="guide ylabels" font-size="2.82" font-family="'PT Sans Caption','Helvetica Neue','Helvetica',sans-serif" fill="#6C606B" id="img-de7e6e51-11">
    <text x="25.72" y="54.91" text-anchor="end" dy="0.35em">0</text>
    <text x="25.72" y="38.94" text-anchor="end" dy="0.35em">5.0×10³</text>
    <text x="25.72" y="22.97" text-anchor="end" dy="0.35em">1.0×10⁴</text>
    <text x="25.72" y="7" text-anchor="end" dy="0.35em">1.5×10⁴</text>
  </g>
  <g font-size="3.88" font-family="'PT Sans','Helvetica Neue','Helvetica',sans-serif" fill="#564A55" stroke="#000000" stroke-opacity="0.000" id="img-de7e6e51-12">
    <text x="8.81" y="28.96" text-anchor="middle" dy="0.35em" transform="rotate(-90, 8.81, 30.96)">Number of Stars</text>
  </g>
</g>
<defs>
  <clipPath id="img-de7e6e51-4">
  <path d="M26.72,5 L 198.2 5 198.2 56.91 26.72 56.91" />
</clipPath>
</defs>
</svg>
